<svg width="36" height="35" viewBox="0 0 36 35" fill="none" xmlns="http://www.w3.org/2000/svg">
<path id="Vector" d="M25.5547 0H10.4632C3.90795 0 0 3.7975 0 10.1675V24.815C0 31.2025 3.90795 35 10.4632 35H25.5367C32.092 35 35.9999 31.2025 35.9999 24.8325V10.1675C36.0179 3.7975 32.11 0 25.5547 0ZM25.3206 16.0475L18.9634 22.225C18.6933 22.4875 18.3511 22.61 18.009 22.61C17.6668 22.61 17.3246 22.4875 17.0545 22.225L10.6973 16.0475C10.1751 15.54 10.1751 14.7 10.6973 14.1925C11.2196 13.685 12.084 13.685 12.6063 14.1925L18.009 19.4425L23.4117 14.1925C23.9339 13.685 24.7984 13.685 25.3206 14.1925C25.8429 14.7 25.8429 15.5225 25.3206 16.0475Z" fill="#FEFEFE"/>
</svg>
