<svg width="39" height="40" viewBox="0 0 39 40" fill="none" xmlns="http://www.w3.org/2000/svg">
<path id="Vector" d="M7.79838 10.8172L7.79844 10.8172L7.79238 10.811L6.07226 9.04673C5.71955 8.67062 5.52244 8.1652 5.5269 7.63823C5.53138 7.10988 5.7381 6.60691 6.09875 6.237C6.45901 5.86751 6.94367 5.66029 7.4476 5.6558C7.95019 5.65132 8.4369 5.84879 8.80289 6.20983L10.523 7.97405L10.5229 7.9741L10.5291 7.98022C10.7147 8.1641 10.8635 8.38475 10.9661 8.62965C11.0686 8.87456 11.1228 9.13842 11.1251 9.40573C11.1273 9.67305 11.0776 9.93787 10.9792 10.1846C10.8808 10.4314 10.7358 10.6547 10.5532 10.8419C10.3707 11.0291 10.1544 11.1765 9.91717 11.276C9.68002 11.3755 9.42637 11.4254 9.17092 11.4231C8.91546 11.4209 8.66266 11.3664 8.42717 11.2627C8.19164 11.1589 7.97777 11.0077 7.79838 10.8172ZM25.2225 27.4644C24.6005 27.9695 24.1034 28.6783 23.9346 29.5H15.0641C14.8973 28.6784 14.4016 27.9693 13.7768 27.4638L13.7768 27.4638C12.267 26.2426 11.1639 24.5677 10.6229 22.6708C10.0819 20.7737 10.1306 18.7507 10.7621 16.8835C11.3936 15.0165 12.5757 13.3998 14.142 12.2567C15.708 11.1137 17.5808 10.5006 19.5 10.5006C21.4192 10.5006 23.292 11.1137 24.858 12.2567C26.4243 13.3997 27.6064 15.0165 28.2379 16.8835C28.8694 18.7507 28.9181 20.7737 28.3771 22.6708C27.8361 24.5677 26.733 26.2426 25.2232 27.4638L25.2225 27.4644ZM20.8656 1.08128C21.2304 1.45544 21.4375 1.96554 21.4375 2.5V5C21.4375 5.53446 21.2304 6.04456 20.8656 6.41872C20.5012 6.79244 20.0097 7 19.5 7C18.9903 7 18.4988 6.79244 18.1344 6.41872C17.7696 6.04456 17.5625 5.53446 17.5625 5V2.5C17.5625 1.96554 17.7696 1.45544 18.1344 1.08128C18.4988 0.707556 18.9903 0.5 19.5 0.5C20.0097 0.5 20.5012 0.707556 20.8656 1.08128ZM33.4731 7.63823C33.4776 8.16517 33.2805 8.67057 32.9278 9.04668L31.2108 10.8077C30.8448 11.1687 30.3581 11.3662 29.8555 11.3617C29.3516 11.3572 28.8669 11.15 28.5067 10.7805C28.146 10.4106 27.9393 9.90762 27.9348 9.37927C27.9304 8.85231 28.1275 8.3469 28.4802 7.9708L30.1971 6.20985C30.5631 5.8488 31.0498 5.65132 31.5524 5.6558C32.0563 5.66029 32.541 5.86751 32.9012 6.237C33.2619 6.60691 33.4686 7.10988 33.4731 7.63823ZM38.5 20C38.5 20.5345 38.2929 21.0446 37.9281 21.4187C37.5637 21.7924 37.0722 22 36.5625 22H34.125C33.6153 22 33.1238 21.7924 32.7594 21.4187C32.3946 21.0446 32.1875 20.5345 32.1875 20C32.1875 19.4655 32.3946 18.9554 32.7594 18.5813C33.1238 18.2076 33.6153 18 34.125 18H36.5625C37.0722 18 37.5637 18.2076 37.9281 18.5813C38.2929 18.9554 38.5 19.4655 38.5 20ZM6.8125 20C6.8125 20.5345 6.60538 21.0446 6.24057 21.4187C5.87619 21.7924 5.38471 22 4.875 22H2.4375C1.92779 22 1.43631 21.7924 1.07193 21.4187C0.707124 21.0446 0.5 20.5345 0.5 20C0.5 19.4655 0.707124 18.9554 1.07193 18.5813C1.43631 18.2076 1.92779 18 2.4375 18H4.875C5.38471 18 5.87619 18.2076 6.24057 18.5813C6.60538 18.9554 6.8125 19.4655 6.8125 20ZM15.125 35V33H23.875V35C23.875 36.1975 23.4111 37.3435 22.5891 38.1865C21.7676 39.029 20.6562 39.5 19.5 39.5C18.3438 39.5 17.2324 39.029 16.4109 38.1865C15.5889 37.3435 15.125 36.1975 15.125 35Z" stroke="black"/>
</svg>
