<svg width="39" height="40" viewBox="0 0 39 40" fill="none" xmlns="http://www.w3.org/2000/svg">
<path id="Vector" d="M21.9375 2.5C21.9375 1.83696 21.6807 1.20107 21.2236 0.732233C20.7665 0.263392 20.1465 0 19.5 0C18.8535 0 18.2335 0.263392 17.7764 0.732233C17.3193 1.20107 17.0625 1.83696 17.0625 2.5V5C17.0625 5.66304 17.3193 6.29893 17.7764 6.76777C18.2335 7.23661 18.8535 7.5 19.5 7.5C20.1465 7.5 20.7665 7.23661 21.2236 6.76777C21.6807 6.29893 21.9375 5.66304 21.9375 5V2.5ZM33.2889 9.3925C33.7329 8.92099 33.9786 8.28949 33.9731 7.634C33.9675 6.97851 33.7112 6.35147 33.2592 5.88795C32.8073 5.42443 32.196 5.16151 31.5569 5.15581C30.9177 5.15012 30.302 5.4021 29.8423 5.8575L28.119 7.625C27.675 8.09651 27.4293 8.72801 27.4349 9.3835C27.4404 10.039 27.6968 10.666 28.1487 11.1295C28.6006 11.5931 29.212 11.856 29.8511 11.8617C30.4902 11.8674 31.1059 11.6154 31.5656 11.16L33.2889 9.3925ZM39 20C39 20.663 38.7432 21.2989 38.2861 21.7678C37.829 22.2366 37.209 22.5 36.5625 22.5H34.125C33.4785 22.5 32.8585 22.2366 32.4014 21.7678C31.9443 21.2989 31.6875 20.663 31.6875 20C31.6875 19.337 31.9443 18.7011 32.4014 18.2322C32.8585 17.7634 33.4785 17.5 34.125 17.5H36.5625C37.209 17.5 37.829 17.7634 38.2861 18.2322C38.7432 18.7011 39 19.337 39 20ZM7.43438 11.16C7.65923 11.3988 7.92819 11.5892 8.22558 11.7203C8.52296 11.8513 8.84281 11.9202 9.16646 11.9231C9.49011 11.926 9.81108 11.8628 10.1106 11.7371C10.4102 11.6114 10.6823 11.4257 10.9112 11.191C11.1401 10.9563 11.3211 10.6771 11.4436 10.3699C11.5662 10.0626 11.6279 9.73344 11.625 9.4015C11.6222 9.06955 11.555 8.7415 11.4272 8.43649C11.2995 8.13148 11.1138 7.85562 10.881 7.625L9.15769 5.8575C8.69797 5.4021 8.08225 5.15012 7.44315 5.15581C6.80404 5.16151 6.19269 5.42443 5.74075 5.88795C5.28882 6.35147 5.03247 6.97851 5.02692 7.634C5.02137 8.28949 5.26705 8.92099 5.71106 9.3925L7.43438 11.16ZM7.3125 20C7.3125 20.663 7.05569 21.2989 6.59857 21.7678C6.14145 22.2366 5.52147 22.5 4.875 22.5H2.4375C1.79103 22.5 1.17105 22.2366 0.713927 21.7678C0.256807 21.2989 0 20.663 0 20C0 19.337 0.256807 18.7011 0.713927 18.2322C1.17105 17.7634 1.79103 17.5 2.4375 17.5H4.875C5.52147 17.5 6.14145 17.7634 6.59857 18.2322C7.05569 18.7011 7.3125 19.337 7.3125 20ZM14.625 35V32.5H24.375V35C24.375 36.3261 23.8614 37.5979 22.9471 38.5355C22.0329 39.4732 20.7929 40 19.5 40C18.2071 40 16.9671 39.4732 16.0529 38.5355C15.1386 37.5979 14.625 36.3261 14.625 35ZM24.375 30C24.4116 29.15 24.882 28.385 25.5377 27.8525C27.1286 26.5656 28.2891 24.8024 28.8579 22.8079C29.4267 20.8134 29.3756 18.6866 28.7115 16.7233C28.0475 14.76 26.8036 13.0576 25.1528 11.8528C23.5019 10.648 21.5261 10.0006 19.5 10.0006C17.4739 10.0006 15.4981 10.648 13.8472 11.8528C12.1964 13.0576 10.9525 14.76 10.2885 16.7233C9.62444 18.6866 9.57328 20.8134 10.1421 22.8079C10.7109 24.8024 11.8714 26.5656 13.4623 27.8525C14.1204 28.385 14.5884 29.15 14.6226 30H24.3774H24.375Z" fill="black"/>
</svg>
