<svg width="40" height="40" viewBox="0 0 40 40" fill="none" xmlns="http://www.w3.org/2000/svg">
<path id="Vector" fill-rule="evenodd" clip-rule="evenodd" d="M18.2325 0.731985C18.7013 0.263295 19.3371 0 20 0C20.6629 0 21.2987 0.263295 21.7675 0.731985L39.268 18.2325C39.6175 18.5821 39.8556 19.0275 39.952 19.5124C40.0484 19.9973 39.9989 20.4999 39.8097 20.9567C39.6205 21.4134 39.3002 21.8038 38.8891 22.0786C38.4781 22.3533 37.9949 22.5 37.5005 22.5001H35.0004V37.5005C35.0004 38.1635 34.737 38.7994 34.2681 39.2683C33.7993 39.7371 33.1634 40.0005 32.5003 40.0005H27.5002C26.8371 40.0005 26.2012 39.7371 25.7324 39.2683C25.2635 38.7994 25.0001 38.1635 25.0001 37.5005V30.0003C25.0001 29.3372 24.7367 28.7013 24.2679 28.2325C23.799 27.7636 23.1631 27.5002 22.5001 27.5002H17.4999C16.8369 27.5002 16.201 27.7636 15.7321 28.2325C15.2633 28.7013 14.9999 29.3372 14.9999 30.0003V37.5005C14.9999 38.1635 14.7365 38.7994 14.2676 39.2683C13.7988 39.7371 13.1629 40.0005 12.4998 40.0005H7.49967C6.83661 40.0005 6.20071 39.7371 5.73185 39.2683C5.263 38.7994 4.9996 38.1635 4.9996 37.5005V22.5001H2.49953C2.00514 22.5 1.52189 22.3533 1.11085 22.0786C0.699815 21.8038 0.379458 21.4134 0.190278 20.9567C0.00109741 20.4999 -0.0484115 19.9973 0.04801 19.5124C0.144431 19.0275 0.382454 18.5821 0.731987 18.2325L18.2325 0.731985Z" fill="black"/>
</svg>
