<svg width="40" height="40" viewBox="0 0 40 40" fill="none" xmlns="http://www.w3.org/2000/svg">
<path id="Vector" d="M34.5004 22.0001H35.0004H37.5004C37.5004 22.0001 37.5004 22.0001 37.5005 22.0001C37.8959 22 38.2825 21.8826 38.6113 21.6629C38.9401 21.4431 39.1964 21.1307 39.3478 20.7653C39.4991 20.3999 39.5387 19.9978 39.4616 19.6099C39.3845 19.222 39.1941 18.8657 38.9145 18.586L38.9144 18.586M34.5004 22.0001L39.268 18.2325L38.9144 18.586M34.5004 22.0001V22.5001M34.5004 22.0001V22.5001M38.9144 18.586L21.414 1.08559M38.9144 18.586L21.414 1.08559M21.414 1.08559C21.414 1.08557 21.414 1.08556 21.414 1.08554M21.414 1.08559L21.414 1.08554M34.5004 22.5001V37.5005C34.5004 38.0309 34.2897 38.5396 33.9146 38.9147C33.5395 39.2898 33.0308 39.5005 32.5003 39.5005H27.5002C26.9697 39.5005 26.461 39.2898 26.0859 38.9147C25.7109 38.5396 25.5001 38.0309 25.5001 37.5005V30.0003C25.5001 29.2046 25.1841 28.4415 24.6214 27.8789C24.0588 27.3163 23.2957 27.0002 22.5001 27.0002H17.4999C16.7043 27.0002 15.9412 27.3163 15.3786 27.8789C14.8159 28.4415 14.4999 29.2046 14.4999 30.0003V37.5005C14.4999 38.0309 14.2891 38.5396 13.9141 38.9147C13.539 39.2898 13.0303 39.5005 12.4998 39.5005H7.49967C6.96922 39.5005 6.46049 39.2898 6.08541 38.9147C5.71032 38.5396 5.4996 38.0309 5.4996 37.5005V22.5001V22.0001M34.5004 22.5001L5.4996 22.0001M5.4996 22.0001H4.9996M5.4996 22.0001H4.9996M4.9996 22.0001H2.49964L2.49953 22.4995V22.0001C2.10406 22 1.71749 21.8826 1.38869 21.6629C1.05986 21.4431 0.803569 21.1307 0.652223 20.7653C0.500878 20.3999 0.461271 19.9978 0.538408 19.6099C0.615541 19.222 0.805941 18.8657 1.08554 18.586L4.9996 22.0001ZM20 0.5C19.4697 0.5 18.9611 0.710618 18.586 1.08554L18.586 1.08559M20 0.5L18.2325 0.731985L18.586 1.08559M20 0.5C20.5303 0.5 21.0389 0.710618 21.414 1.08554M20 0.5L21.414 1.08554M18.586 1.08559L1.08559 18.586L18.586 1.08559Z" stroke="black"/>
</svg>
