<svg width="40" height="40" viewBox="0 0 40 40" fill="none" xmlns="http://www.w3.org/2000/svg">
<path id="Vector" d="M30.0505 29.1776L30.0227 29.1655C28.0502 28.3103 27.0729 27.0383 26.4944 25.6157C26.2108 24.9186 26.0247 24.1901 25.8594 23.4797C25.8232 23.324 25.7881 23.1696 25.7533 23.0165C25.6267 22.4601 25.5037 21.9195 25.3444 21.3857L25.3443 21.3854C24.7528 19.3987 22.6212 17.8568 20.0004 17.8568H19.9993C18.7913 17.854 17.6209 18.1924 16.6641 18.8132C15.7082 19.4333 15.0231 20.2972 14.6953 21.2655C14.4908 21.878 14.3641 22.5187 14.2299 23.1975L14.216 23.2679C14.0788 23.9615 13.9309 24.6933 13.6777 25.4018C13.1572 26.858 12.1992 28.1932 10.0612 29.1429L10.0288 29.1573L9.99461 29.167C8.39817 29.6195 7.3692 30.1527 6.72895 30.8916C6.10041 31.6169 5.7852 32.6131 5.7852 34.1379C5.7852 35.2698 6.34857 36.4881 7.32855 37.4758C8.30433 38.4593 9.66178 39.1803 11.1853 39.3395L11.1983 39.3409L11.1983 39.341C14.7774 39.8101 17.5454 39.1963 19.7784 38.0897L20.0004 37.9797L20.2224 38.0897C22.4553 39.1963 25.2213 39.8092 28.8068 39.341L28.8195 39.3393L28.8195 39.3395C30.3425 39.1803 31.6997 38.4615 32.6753 37.4795C33.6548 36.4935 34.2186 35.2754 34.2186 34.138L30.0505 29.1776ZM30.0505 29.1776L30.0796 29.1862M30.0505 29.1776L30.0796 29.1862M30.0796 29.1862C31.6893 29.6629 32.6957 30.1742 33.3144 30.8914M30.0796 29.1862L33.3144 30.8914M17.1889 10.6448C17.3204 9.54071 17.5328 6.77383 17.2376 4.37097C17.0891 3.16202 16.8186 2.10515 16.3884 1.39828C16.1767 1.05057 15.9398 0.809754 15.6812 0.667191C15.4295 0.52838 15.1253 0.46466 14.7382 0.521686M17.1889 10.6448L14.7382 0.521686M17.1889 10.6448C16.9525 12.6262 15.3969 14.2919 13.2914 14.6031C11.443 14.8756 10.0563 14.2409 9.12304 13.1327C8.17331 12.0048 7.66677 10.3504 7.70201 8.57696C7.77238 5.03546 9.98648 1.22246 14.7382 0.521686M17.1889 10.6448L14.6653 0.0270267L14.7382 0.521686M25.2615 0.520801L25.3345 0.0261573M25.2615 0.520801C24.8747 0.463796 24.5706 0.527505 24.3189 0.666303C24.0604 0.808858 23.8235 1.04967 23.6119 1.3974C23.1817 2.1043 22.9111 3.16118 22.7625 4.37015C22.4671 6.77273 22.6789 9.53924 22.8099 10.6437L25.3345 0.0261573M25.2615 0.520801L25.3345 0.0261573M25.2615 0.520801C30.0133 1.222 32.2275 5.03524 32.2981 8.57688C32.3334 10.3504 31.8271 12.0049 30.8776 13.1327C29.9446 14.2409 28.5583 14.8756 26.7106 14.6031C24.605 14.292 23.0475 12.6263 22.81 10.6442L25.3345 0.0261573M33.3144 30.8914C33.9198 31.5931 34.2181 32.5694 34.2186 34.1379L33.3144 30.8914ZM7.58891 19.381L7.59965 19.3932L7.61115 19.4047C8.29729 20.089 8.72026 21.0262 8.72026 22.0584C8.72026 24.1331 7.01258 25.8269 4.8932 25.8269C3.28394 25.8269 1.91156 24.8539 1.34448 23.4766L1.34177 23.47L1.33888 23.4635C0.743466 22.1268 0.431179 20.5376 0.512813 19.1092C0.594982 17.6713 1.06774 16.484 1.94164 15.8226C1.94283 15.822 1.98504 15.7961 2.11962 15.8033C2.26198 15.8108 2.45656 15.8534 2.70225 15.9406C3.19201 16.1146 3.7961 16.4339 4.43059 16.8348C5.70241 17.6386 6.99284 18.7037 7.58891 19.381ZM32.3897 19.4047L32.4012 19.3932L32.4119 19.381C33.008 18.7037 34.2984 17.6385 35.57 16.8348C36.2044 16.4338 36.8083 16.1146 37.2978 15.9406C37.5434 15.8534 37.7378 15.8108 37.8799 15.8033C38.0155 15.796 38.0569 15.8225 38.0569 15.8224C38.9319 16.4837 39.4048 17.6711 39.4871 19.1092C39.5689 20.5377 39.2568 22.127 38.6628 23.4639L38.6626 23.4639L38.6574 23.4766C38.0904 24.8537 36.7171 25.8269 35.1066 25.8269C32.9891 25.8269 31.2796 24.1329 31.2796 22.0584C31.2796 21.0265 31.7033 20.0892 32.3897 19.4047ZM25.8235 21.2427C25.1585 19.0089 22.8035 17.3568 20.0004 17.3568L25.8235 21.2427ZM25.8845 33.0971H26.3845V32.5971V29.1189V28.6189H25.8845H22.5752L22.5794 25.6415L22.5802 25.1408H22.0794H17.9234H17.4225L17.4234 25.6417L17.4285 28.6189H13.8843H13.3843V29.1189V32.5971V33.0971H13.8843H17.4275L17.4224 36.0743L17.4215 36.5752H17.9224H22.0784H22.5792L22.5784 36.0745L22.5742 33.0971H25.8845Z" stroke="black"/>
</svg>
