<svg width="38" height="40" viewBox="0 0 38 40" fill="none" xmlns="http://www.w3.org/2000/svg">
<path id="Vector" d="M0.0568718 13.8431C0.921438 11.1591 2.34203 8.68958 4.22514 6.597C4.38086 6.42412 4.5842 6.30162 4.80935 6.24507C5.0345 6.18852 5.2713 6.20047 5.48967 6.2794L9.9811 7.8933C10.3008 8.008 10.6416 8.05149 10.9797 8.02073C11.3179 7.98998 11.6453 7.88572 11.9393 7.71519C12.2334 7.54466 12.487 7.31193 12.6826 7.03313C12.8782 6.75434 13.0111 6.43614 13.0722 6.1006L13.9292 1.38123C13.9706 1.1515 14.0791 0.939333 14.2409 0.771751C14.4028 0.604168 14.6105 0.488748 14.8378 0.440184C17.5812 -0.146728 20.4169 -0.146728 23.1603 0.440184C23.3876 0.488748 23.5954 0.604168 23.7572 0.771751C23.919 0.939333 24.0275 1.1515 24.0689 1.38123L24.926 6.1006C24.987 6.43614 25.1199 6.75434 25.3156 7.03313C25.5112 7.31193 25.7648 7.54466 26.0588 7.71519C26.3529 7.88572 26.6803 7.98998 27.0184 8.02073C27.3566 8.05149 27.6973 8.008 28.0171 7.8933L32.5108 6.2794C32.7294 6.20075 32.9664 6.18917 33.1915 6.24615C33.4167 6.30312 33.6199 6.42606 33.7754 6.59935C35.6582 8.69124 37.0788 11.16 37.9436 13.8431C38.0147 14.0649 38.0187 14.303 37.9549 14.5271C37.8911 14.7512 37.7625 14.9512 37.5853 15.1017L33.944 18.2072C33.6853 18.4281 33.4775 18.7028 33.335 19.0123C33.1925 19.3219 33.1187 19.6588 33.1187 19.9999C33.1187 20.3409 33.1925 20.6779 33.335 20.9875C33.4775 21.297 33.6853 21.5717 33.944 21.7926L37.5853 24.8981C37.7621 25.0489 37.8902 25.249 37.9536 25.4731C38.017 25.6971 38.0127 25.9351 37.9413 26.1567C37.0767 28.8407 35.6561 31.3102 33.773 33.4028C33.6173 33.5757 33.414 33.6982 33.1888 33.7547C32.9637 33.8113 32.7269 33.7993 32.5085 33.7204L28.0171 32.1065C27.6973 31.9918 27.3566 31.9483 27.0184 31.9791C26.6803 32.0098 26.3529 32.1141 26.0588 32.2846C25.7648 32.4551 25.5112 32.6879 25.3156 32.9667C25.1199 33.2455 24.987 33.5637 24.926 33.8992L24.0689 38.6209C24.0271 38.8502 23.9184 39.0619 23.7566 39.229C23.5949 39.3961 23.3873 39.5112 23.1603 39.5596C20.4169 40.1468 17.5812 40.1468 14.8378 39.5596C14.6105 39.511 14.4028 39.3956 14.2409 39.228C14.0791 39.0605 13.9706 38.8483 13.9292 38.6186L13.0722 33.8992C13.0111 33.5637 12.8782 33.2455 12.6826 32.9667C12.487 32.6879 12.2334 32.4551 11.9393 32.2846C11.6453 32.1141 11.3179 32.0098 10.9797 31.9791C10.6416 31.9483 10.3008 31.9918 9.9811 32.1065L5.48967 33.7204C5.27107 33.799 5.03413 33.8106 4.80897 33.7536C4.5838 33.6967 4.38058 33.5737 4.22514 33.4004C2.34226 31.3086 0.921673 28.8399 0.0568718 26.1567C-0.0145129 25.9351 -0.0187928 25.6971 0.0445747 25.4731C0.107942 25.249 0.236104 25.0489 0.412814 24.8981L4.0542 21.7926C4.31287 21.5717 4.52066 21.297 4.66316 20.9875C4.80567 20.6779 4.87947 20.3409 4.87947 19.9999C4.87947 19.6588 4.80567 19.3219 4.66316 19.0123C4.52066 18.7028 4.31287 18.4281 4.0542 18.2072L0.412814 15.1017C0.236104 14.9509 0.107942 14.7508 0.0445747 14.5267C-0.0187928 14.3026 -0.0145129 14.0647 0.0568718 13.8431ZM14.318 19.9999C14.318 21.2478 14.8114 22.4446 15.6897 23.327C16.568 24.2094 17.7593 24.7051 19.0014 24.7051C20.2436 24.7051 21.4348 24.2094 22.3131 23.327C23.1914 22.4446 23.6849 21.2478 23.6849 19.9999C23.6849 18.752 23.1914 17.5552 22.3131 16.6728C21.4348 15.7904 20.2436 15.2946 19.0014 15.2946C17.7593 15.2946 16.568 15.7904 15.6897 16.6728C14.8114 17.5552 14.318 18.752 14.318 19.9999Z" fill="black"/>
</svg>
