<svg width="92" height="92" viewBox="0 0 92 92" fill="none" xmlns="http://www.w3.org/2000/svg">
<g id="mdi:about-circle-outline">
<path id="Vector" d="M42.1667 34.5001H49.8334V26.8334H42.1667M46.0001 76.6667C29.0951 76.6667 15.3334 62.9051 15.3334 46.0001C15.3334 29.0951 29.0951 15.3334 46.0001 15.3334C62.9051 15.3334 76.6667 29.0951 76.6667 46.0001C76.6667 62.9051 62.9051 76.6667 46.0001 76.6667ZM46.0001 7.66675C40.9661 7.66675 35.9814 8.65827 31.3305 10.5847C26.6797 12.5111 22.4539 15.3347 18.8943 18.8943C11.7054 26.0832 7.66675 35.8334 7.66675 46.0001C7.66675 56.1667 11.7054 65.9169 18.8943 73.1058C22.4539 76.6654 26.6797 79.489 31.3305 81.4155C35.9814 83.3419 40.9661 84.3334 46.0001 84.3334C56.1667 84.3334 65.9169 80.2947 73.1058 73.1058C80.2947 65.9169 84.3334 56.1667 84.3334 46.0001C84.3334 40.9661 83.3419 35.9814 81.4155 31.3305C79.489 26.6797 76.6654 22.4539 73.1058 18.8943C69.5463 15.3347 65.3204 12.5111 60.6696 10.5847C56.0188 8.65827 51.0341 7.66675 46.0001 7.66675ZM42.1667 65.1667H49.8334V42.1667H42.1667V65.1667Z" fill="black"/>
</g>
</svg>
