<svg width="38" height="40" viewBox="0 0 38 40" fill="none" xmlns="http://www.w3.org/2000/svg">
<path id="Vector" d="M5.32059 6.74994L5.31972 6.74963C5.19494 6.70453 5.05972 6.69772 4.93115 6.73001C4.80262 6.76229 4.6862 6.83228 4.59681 6.93146C2.76091 8.97158 1.3758 11.3794 0.532794 13.9964L5.32059 6.74994ZM5.32059 6.74994L9.81202 8.36384L9.81226 8.36393M5.32059 6.74994L9.81226 8.36393M9.81226 8.36393C10.2005 8.50321 10.6143 8.55603 11.025 8.51868C11.4357 8.48133 11.8333 8.35471 12.1902 8.14771C12.5471 7.94073 12.8547 7.65835 13.0919 7.32031C13.3291 6.98227 13.4902 6.59661 13.5641 6.19007L13.5641 6.18994M9.81226 8.36393L13.5641 6.18994M13.5641 6.18994L14.4212 1.47058L14.4213 1.4699M13.5641 6.18994L14.4213 1.4699M14.4213 1.4699C14.4452 1.33736 14.5078 1.21526 14.6007 1.11905C14.6935 1.02286 14.8125 0.956881 14.9423 0.929149L14.9424 0.929121M14.4213 1.4699L14.9424 0.929121M14.9424 0.929121C17.6169 0.35696 20.3813 0.35696 23.0557 0.929121L23.0559 0.929149M14.9424 0.929121L23.0559 0.929149M23.0559 0.929149C23.1857 0.956881 23.3046 1.02285 23.3975 1.11905C23.4904 1.21526 23.553 1.33736 23.5768 1.4699L23.577 1.47058M23.0559 0.929149L23.577 1.47058M23.577 1.47058L24.434 6.18994L24.4341 6.19007M23.577 1.47058L24.4341 6.19007M24.4341 6.19007C24.508 6.59661 24.6691 6.98227 24.9062 7.32031C25.1434 7.65835 25.4511 7.94073 25.808 8.14771C26.1649 8.35471 26.5625 8.48133 26.9731 8.51868C27.3838 8.55603 27.7977 8.50321 28.1859 8.36393L28.1861 8.36387M24.4341 6.19007L28.1861 8.36387M28.1861 8.36387L32.6798 6.74997L32.6801 6.74987M28.1861 8.36387L32.6801 6.74987M32.6801 6.74987C32.805 6.70493 32.9403 6.69834 33.0689 6.73087C33.1975 6.76341 33.3139 6.83371 33.4032 6.93322L33.4037 6.93385M32.6801 6.74987L33.4037 6.93385M33.4037 6.93385C35.2393 8.9733 36.6245 11.3803 37.4677 13.9965C37.5085 14.1242 37.5107 14.2612 37.474 14.3902C37.4372 14.5194 37.3631 14.6344 37.2615 14.7207L37.2609 14.7213M33.4037 6.93385L37.2609 14.7213M37.2609 14.7213L33.6195 17.8268L33.6193 17.8269M37.2609 14.7213L33.6193 17.8269M33.6193 17.8269C33.3055 18.0949 33.0535 18.4281 32.8808 18.8032C32.7081 19.1784 32.6187 19.5867 32.6187 19.9999C32.6187 20.4131 32.7081 20.8214 32.8808 21.1966C33.0535 21.5717 33.3055 21.9049 33.6193 22.1729L33.6195 22.173M33.6193 17.8269L33.6195 22.173M33.6195 22.173L37.2608 25.2784C37.3621 25.3649 37.4359 25.4799 37.4725 25.6091C37.509 25.7384 37.5065 25.8756 37.4654 26.0034C36.6224 28.6204 35.2373 31.0282 33.4014 33.0683C33.312 33.1675 33.1955 33.2375 33.067 33.2698C32.9384 33.3021 32.8032 33.2953 32.6784 33.2502L32.6776 33.2499M33.6195 22.173L32.6776 33.2499M13.0722 33.8992L13.9292 38.6186L13.0722 33.8992ZM13.0722 33.8992C13.0111 33.5637 12.8782 33.2455 12.6826 32.9667C12.487 32.6879 12.2334 32.4551 11.9393 32.2846C11.6453 32.1141 11.3179 32.0098 10.9797 31.9791C10.6416 31.9483 10.3008 31.9918 9.9811 32.1065L5.48967 33.7204M13.0722 33.8992L5.48967 33.7204M32.6776 33.2499L28.1861 31.636L28.1859 31.6359M32.6776 33.2499L28.1859 31.6359M28.1859 31.6359C27.7977 31.4966 27.3838 31.4438 26.9731 31.4811C26.5625 31.5185 26.1649 31.6451 25.808 31.8521C25.4511 32.0591 25.1434 32.3414 24.9062 32.6795C24.6691 33.0175 24.508 33.4032 24.4341 33.8097L24.434 33.8099M28.1859 31.6359L24.434 33.8099M24.434 33.8099L23.577 38.5312C23.5529 38.6635 23.4902 38.7853 23.3974 38.8813C23.3045 38.9772 23.1857 39.043 23.056 39.0706L23.0557 39.0707M24.434 33.8099L23.0557 39.0707M23.0557 39.0707C20.3813 39.6431 17.6169 39.6431 14.9425 39.0707L14.9423 39.0706M23.0557 39.0707L14.9423 39.0706M14.9423 39.0706C14.8125 39.0429 14.6935 38.9769 14.6007 38.8807C14.5078 38.7845 14.4452 38.6624 14.4213 38.5299L14.4212 38.5292M14.9423 39.0706L14.4212 38.5292M14.4212 38.5292L13.5641 33.8099L13.5641 33.8097M14.4212 38.5292L13.5641 33.8097M13.5641 33.8097C13.4902 33.4032 13.3291 33.0175 13.0919 32.6795C12.8547 32.3414 12.5471 32.0591 12.1902 31.8521C11.8333 31.6451 11.4357 31.5185 11.025 31.4811C10.6143 31.4438 10.2005 31.4966 9.81226 31.6359L9.81202 31.636M13.5641 33.8097L9.81202 31.636M9.81202 31.636L5.32059 33.2499L5.3204 33.2499M9.81202 31.636L5.3204 33.2499M5.3204 33.2499C5.19549 33.2949 5.0602 33.3015 4.93161 33.2689C4.80301 33.2364 4.6866 33.1661 4.59734 33.0666L4.59677 33.0659M5.3204 33.2499L4.59677 33.0659M4.59677 33.0659C2.76111 31.0266 1.37603 28.6196 0.532794 26.0034L4.59677 33.0659ZM4.37886 22.1729L4.37864 22.173L0.7374 25.2784C0.737354 25.2784 0.737308 25.2785 0.737262 25.2785C0.635986 25.365 0.56223 25.48 0.525706 25.6091C0.489169 25.7383 0.49163 25.8756 0.532764 26.0033L4.37886 22.1729ZM4.37886 22.1729C4.6927 21.9049 4.94463 21.5717 5.11735 21.1966C5.29006 20.8214 5.37947 20.4131 5.37947 19.9999C5.37947 19.5867 5.29006 19.1784 5.11735 18.8032C4.94463 18.4281 4.6927 18.0949 4.37886 17.8269L4.37864 17.8268M4.37886 22.1729L4.37864 17.8268M4.37864 17.8268L0.7374 14.7214M4.37864 17.8268L0.7374 14.7214M5.48967 33.7204C5.27107 33.799 5.03413 33.8106 4.80897 33.7536C4.5838 33.6967 4.38058 33.5737 4.22514 33.4004L5.48967 33.7204ZM0.7374 14.7214C0.737354 14.7214 0.737308 14.7213 0.737262 14.7213M0.7374 14.7214L0.737262 14.7213M0.737262 14.7213C0.635987 14.6348 0.56223 14.5198 0.525706 14.3907M0.737262 14.7213L0.525706 14.3907M0.525706 14.3907C0.489162 14.2614 0.491634 14.1242 0.53279 13.9964L0.525706 14.3907ZM14.8382 0.441839L14.8382 0.441854L14.8382 0.441839ZM13.818 19.9999C13.818 21.3797 14.3635 22.7034 15.3354 23.6797C16.3073 24.6562 17.6259 25.2051 19.0014 25.2051C20.3769 25.2051 21.6956 24.6562 22.6675 23.6797C23.6393 22.7034 24.1849 21.3797 24.1849 19.9999C24.1849 18.6201 23.6393 17.2964 22.6675 16.3201C21.6956 15.3436 20.3769 14.7946 19.0014 14.7946C17.6259 14.7946 16.3073 15.3436 15.3354 16.3201C14.3635 17.2964 13.818 18.6201 13.818 19.9999Z" stroke="black"/>
</svg>
