<svg width="99" height="99" viewBox="0 0 99 99" fill="none" xmlns="http://www.w3.org/2000/svg">
<g id="healthicons:ui-preferences-outline">
<g id="Group">
<path id="Vector" d="M47.4375 47.2766C47.4375 46.1918 48.4151 45.375 49.5 45.375C50.5849 45.375 51.5625 46.1918 51.5625 47.2766V84.5625C51.5625 85.1095 51.3452 85.6341 50.9584 86.0209C50.5716 86.4077 50.047 86.625 49.5 86.625C48.953 86.625 48.4284 86.4077 48.0416 86.0209C47.6548 85.6341 47.4375 85.1095 47.4375 84.5625V47.2766Z" fill="black"/>
<path id="Vector_2" fill-rule="evenodd" clip-rule="evenodd" d="M41.25 33C41.2502 31.1708 41.8581 29.3936 42.978 27.9473C44.098 26.5011 45.6666 25.4679 47.4375 25.0099V14.4375C47.4375 13.8905 47.6548 13.3659 48.0416 12.9791C48.4284 12.5923 48.953 12.375 49.5 12.375C50.047 12.375 50.5716 12.5923 50.9584 12.9791C51.3452 13.3659 51.5625 13.8905 51.5625 14.4375V25.0099C53.5023 25.5167 55.1912 26.7122 56.3141 28.3731C57.4369 30.0341 57.9169 32.0469 57.6643 34.0358C57.4117 36.0247 56.4438 37.8537 54.9415 39.1813C53.4391 40.5088 51.5049 41.2442 49.5 41.25C47.312 41.25 45.2135 40.3808 43.6664 38.8336C42.1192 37.2865 41.25 35.188 41.25 33ZM49.5 37.125C50.594 37.125 51.6432 36.6904 52.4168 35.9168C53.1904 35.1432 53.625 34.094 53.625 33C53.625 31.906 53.1904 30.8568 52.4168 30.0832C51.6432 29.3096 50.594 28.875 49.5 28.875C48.406 28.875 47.3568 29.3096 46.5832 30.0832C45.8096 30.8568 45.375 31.906 45.375 33C45.375 34.094 45.8096 35.1432 46.5832 35.9168C47.3568 36.6904 48.406 37.125 49.5 37.125ZM33 66C32.9996 67.5437 32.5662 69.0563 31.7489 70.3658C30.9316 71.6754 29.7633 72.7294 28.3768 73.4081C26.9903 74.0867 25.4413 74.3627 23.9057 74.2047C22.3701 74.0467 20.9097 73.4611 19.6904 72.5144C18.4711 71.5677 17.5419 70.2979 17.0084 68.8493C16.4749 67.4008 16.3585 65.8316 16.6724 64.3202C16.9863 62.8088 17.718 61.4158 18.7843 60.2995C19.8505 59.1833 21.2086 58.3886 22.704 58.0058C22.6933 57.9209 22.6878 57.8355 22.6875 57.75V14.4375C22.6875 13.8905 22.9048 13.3659 23.2916 12.9791C23.6784 12.5923 24.203 12.375 24.75 12.375C25.297 12.375 25.8216 12.5923 26.2084 12.9791C26.5952 13.3659 26.8125 13.8905 26.8125 14.4375V57.75C26.8125 57.8366 26.8063 57.9212 26.796 58.0058C28.5707 58.4608 30.1435 59.4933 31.2667 60.9407C32.3899 62.388 32.9997 64.1679 33 66ZM28.875 66C28.875 67.094 28.4404 68.1432 27.6668 68.9168C26.8932 69.6904 25.844 70.125 24.75 70.125C23.656 70.125 22.6068 69.6904 21.8332 68.9168C21.0596 68.1432 20.625 67.094 20.625 66C20.625 64.906 21.0596 63.8568 21.8332 63.0832C22.6068 62.3096 23.656 61.875 24.75 61.875C25.844 61.875 26.8932 62.3096 27.6668 63.0832C28.4404 63.8568 28.875 64.906 28.875 66Z" fill="black"/>
<path id="Vector_3" d="M74.25 86.625C73.703 86.625 73.1784 86.4077 72.7916 86.0209C72.4048 85.6341 72.1875 85.1095 72.1875 84.5625V69.9641C72.1875 68.8793 73.1651 68.0625 74.25 68.0625C75.3349 68.0625 76.3125 68.8793 76.3125 69.9641V84.5625C76.3125 85.1095 76.0952 85.6341 75.7084 86.0209C75.3216 86.4077 74.797 86.625 74.25 86.625Z" fill="black"/>
<path id="Vector_4" fill-rule="evenodd" clip-rule="evenodd" d="M74.25 12.375C73.703 12.375 73.1783 12.5923 72.7916 12.9791C72.4048 13.3659 72.1875 13.8905 72.1875 14.4375V47.6974C70.2477 48.2042 68.5587 49.3997 67.4359 51.0606C66.313 52.7216 65.8331 54.7344 66.0857 56.7233C66.3383 58.7122 67.3061 60.5412 68.8085 61.8688C70.3109 63.1963 72.2451 63.9317 74.25 63.9375C76.2594 63.9395 78.2005 63.208 79.7088 61.8804C81.2172 60.5528 82.1892 58.7203 82.4424 56.7269C82.6955 54.7335 82.2125 52.7162 81.0838 51.0537C79.9552 49.3912 78.2586 48.1977 76.3125 47.6974V14.4375C76.3125 13.8905 76.0952 13.3659 75.7084 12.9791C75.3216 12.5923 74.797 12.375 74.25 12.375ZM74.25 51.5625C73.1559 51.5625 72.1067 51.9971 71.3331 52.7707C70.5596 53.5443 70.125 54.5935 70.125 55.6875C70.125 56.7815 70.5596 57.8307 71.3331 58.6043C72.1067 59.3779 73.1559 59.8125 74.25 59.8125C75.344 59.8125 76.3932 59.3779 77.1668 58.6043C77.9404 57.8307 78.375 56.7815 78.375 55.6875C78.375 54.5935 77.9404 53.5443 77.1668 52.7707C76.3932 51.9971 75.344 51.5625 74.25 51.5625Z" fill="black"/>
<path id="Vector_5" d="M22.6875 84.5625C22.6875 85.1095 22.9048 85.6341 23.2916 86.0209C23.6784 86.4077 24.203 86.625 24.75 86.625C25.297 86.625 25.8216 86.4077 26.2084 86.0209C26.5952 85.6341 26.8125 85.1095 26.8125 84.5625V80.2766C26.8125 79.1918 25.8349 78.375 24.75 78.375C23.6651 78.375 22.6875 79.1918 22.6875 80.2766V84.5625Z" fill="black"/>
</g>
</g>
</svg>
