<svg width="72" height="72" viewBox="0 0 72 72" fill="none" xmlns="http://www.w3.org/2000/svg">
<g id="wpf:renew-subscription" clip-path="url(#clip0_104_528)">
<path id="Vector" d="M11.0769 0V52.6154C11.0769 54.1523 9.84462 55.3846 8.30769 55.3846C6.77077 55.3846 5.53846 54.1523 5.53846 52.6154V19.3846H8.30769V13.8462H0V52.6154C0 57.1708 3.75231 60.9231 8.30769 60.9231H36C35.4462 59.2615 35.1332 57.3231 35.1332 55.3846H16.1003C16.416 54.5095 16.6182 53.5929 16.6182 52.6154V5.53846H60.9258V36C62.8643 36.5538 64.8028 37.3846 66.4643 38.7692V0H11.0769ZM22.1538 11.0769V22.1538H55.3846V11.0769H22.1538ZM22.1538 27.6923V33.2308H36V27.6923H22.1538ZM41.5385 27.6923V33.2308H55.3846V27.6923H41.5385ZM22.1538 36V41.5385H36V36H22.1538ZM55.3846 38.7692C46.1797 38.7692 38.7692 46.1797 38.7692 55.3846C38.7692 64.5895 46.1797 72 55.3846 72V66.4615C49.0818 66.4615 44.3077 61.6874 44.3077 55.3846C44.3077 49.0818 49.0818 44.3077 55.3846 44.3077C61.6874 44.3077 66.4615 49.0818 66.4615 55.3846C66.4615 57.7883 65.7775 60.0092 64.5563 61.7898L60.9231 58.1538L59.5385 70.6154L72 69.2308L68.5385 65.7692C70.8397 62.8782 72 59.1978 72 55.3846C72 46.1797 64.5895 38.7692 55.3846 38.7692ZM22.1538 44.3077V49.8462H36V44.3077H22.1538Z" fill="black"/>
</g>
<defs>
<clipPath id="clip0_104_528">
<rect width="72" height="72" fill="white"/>
</clipPath>
</defs>
</svg>
