<svg width="82" height="82" viewBox="0 0 82 82" fill="none" xmlns="http://www.w3.org/2000/svg">
<g id="carbon:order-details">
<path id="Vector" d="M48.6875 53.8125H33.3125C31.2736 53.8125 29.3183 54.6224 27.8766 56.0641C26.4349 57.5058 25.625 59.4612 25.625 61.5V66.625H30.75V61.5C30.75 60.8204 31.02 60.1686 31.5005 59.688C31.9811 59.2075 32.6329 58.9375 33.3125 58.9375H48.6875C49.3671 58.9375 50.0189 59.2075 50.4995 59.688C50.98 60.1686 51.25 60.8204 51.25 61.5V66.625H56.375V61.5C56.375 59.4612 55.5651 57.5058 54.1234 56.0641C52.6817 54.6224 50.7264 53.8125 48.6875 53.8125ZM41 51.25C43.0273 51.25 45.009 50.6489 46.6946 49.5226C48.3802 48.3963 49.694 46.7955 50.4698 44.9225C51.2456 43.0496 51.4485 40.9886 51.0531 39.0003C50.6576 37.012 49.6813 35.1856 48.2478 33.7522C46.8144 32.3187 44.988 31.3425 42.9997 30.947C41.0114 30.5515 38.9504 30.7544 37.0775 31.5302C35.2046 32.306 33.6037 33.6198 32.4774 35.3054C31.3512 36.991 30.75 38.9727 30.75 41C30.75 43.7185 31.8299 46.3256 33.7522 48.2478C35.6744 50.1701 38.2815 51.25 41 51.25ZM41 35.875C42.0136 35.875 43.0045 36.1756 43.8473 36.7387C44.6901 37.3019 45.347 38.1023 45.7349 39.0388C46.1228 39.9752 46.2243 41.0057 46.0265 41.9998C45.8288 42.994 45.3407 43.9072 44.6239 44.6239C43.9072 45.3407 42.994 45.8288 41.9998 46.0265C41.0057 46.2243 39.9752 46.1228 39.0387 45.7349C38.1023 45.347 37.3019 44.6901 36.7387 43.8473C36.1756 43.0045 35.875 42.0136 35.875 41C35.875 39.6408 36.415 38.3372 37.3761 37.3761C38.3372 36.415 39.6408 35.875 41 35.875Z" fill="black"/>
<path id="Vector_2" d="M64.0625 12.8125H56.375V10.25C56.375 8.89077 55.835 7.5872 54.8739 6.62608C53.9128 5.66495 52.6092 5.125 51.25 5.125H30.75C29.3908 5.125 28.0872 5.66495 27.1261 6.62608C26.165 7.5872 25.625 8.89077 25.625 10.25V12.8125H17.9375C16.5783 12.8125 15.2747 13.3525 14.3136 14.3136C13.3525 15.2747 12.8125 16.5783 12.8125 17.9375V71.75C12.8125 73.1092 13.3525 74.4128 14.3136 75.3739C15.2747 76.335 16.5783 76.875 17.9375 76.875H64.0625C65.4217 76.875 66.7253 76.335 67.6864 75.3739C68.6475 74.4128 69.1875 73.1092 69.1875 71.75V17.9375C69.1875 16.5783 68.6475 15.2747 67.6864 14.3136C66.7253 13.3525 65.4217 12.8125 64.0625 12.8125ZM30.75 10.25H51.25V20.5H30.75V10.25ZM64.0625 71.75H17.9375V17.9375H25.625V25.625H56.375V17.9375H64.0625V71.75Z" fill="black"/>
</g>
</svg>
