<?xml version="1.0" encoding="UTF-8"?>
<!DOCTYPE svg PUBLIC "-//W3C//DTD SVG 1.1//EN" "http://www.w3.org/Graphics/SVG/1.1/DTD/svg11.dtd">
<svg xmlns="http://www.w3.org/2000/svg" version="1.1" width="600px" height="600px" style="shape-rendering:geometricPrecision; text-rendering:geometricPrecision; image-rendering:optimizeQuality; fill-rule:evenodd; clip-rule:evenodd" xmlns:xlink="http://www.w3.org/1999/xlink">
<g><path style="opacity:0.958" fill="#040303" d="M 57.5,9.5 C 72.5664,10.466 86.2331,15.2994 98.5,24C 128.111,44.9846 156.444,67.6512 183.5,92C 186.135,94.0459 189.135,95.2126 192.5,95.5C 203.603,93.4743 214.603,90.9743 225.5,88C 233.398,86.1837 241.398,85.3504 249.5,85.5C 266.167,86.8333 282.833,88.1667 299.5,89.5C 312.221,88.957 324.887,87.7904 337.5,86C 345.5,85.3333 353.5,85.3333 361.5,86C 373.636,88.0339 385.636,90.7006 397.5,94C 403.353,96.2601 409.02,95.9268 414.5,93C 436.584,73.578 459.251,54.9113 482.5,37C 493.661,28.9163 505.328,21.583 517.5,15C 550.141,3.57142 570.308,14.7381 578,48.5C 579.108,55.4622 579.941,62.4622 580.5,69.5C 579.636,113.353 573.136,156.353 561,198.5C 552.864,223.241 544.531,247.908 536,272.5C 534.55,280.268 533.716,288.102 533.5,296C 540.71,369.339 522.543,435.506 479,494.5C 467.388,508.45 454.221,520.616 439.5,531C 397.297,573.965 345.964,594.632 285.5,593C 235.976,587.237 193.976,566.57 159.5,531C 123.426,503.903 97.5928,469.07 82,426.5C 66.3264,384.445 60.8264,341.111 65.5,296.5C 65.4739,285.624 63.9739,274.958 61,264.5C 46.2345,227.87 34.9011,190.203 27,151.5C 20.8186,119.779 18.4853,87.7791 20,55.5C 21.141,42.0652 25.9743,30.2319 34.5,20C 41.2478,14.2896 48.9145,10.7896 57.5,9.5 Z"/></g>
<g><path style="opacity:1" fill="#4b4848" d="M 53.5,20.5 C 67.3854,20.3047 80.052,24.138 91.5,32C 121.986,53.8118 151.319,77.1451 179.5,102C 183.218,104.776 187.385,105.943 192,105.5C 205.934,103.226 219.767,100.392 233.5,97C 238.639,96.2118 243.806,95.7118 249,95.5C 265.799,97.495 282.632,99.1617 299.5,100.5C 316.326,98.7926 333.16,97.126 350,95.5C 366.486,96.9972 382.653,100.164 398.5,105C 407.322,106.81 415.322,105.144 422.5,100C 451.832,72.9913 483.165,48.658 516.5,27C 547.618,13.4223 565.118,23.589 569,57.5C 569.997,100.53 564.997,142.863 554,184.5C 544.729,214.313 535.062,243.979 525,273.5C 523.968,280.455 523.468,287.455 523.5,294.5C 529.966,361.381 514.799,422.714 478,478.5C 471.706,486.462 465.04,494.129 458,501.5C 478.974,466.792 489.474,428.959 489.5,388C 491.467,347.578 474.8,317.911 439.5,299C 437.641,297.442 436.141,295.609 435,293.5C 431.119,283.106 428.119,272.439 426,261.5C 423.685,254.381 419.519,248.548 413.5,244C 406.833,240.333 400.167,236.667 393.5,233C 376.637,210.157 355.304,204.824 329.5,217C 316.416,227.321 308.582,240.821 306,257.5C 304.817,269.232 303.151,280.899 301,292.5C 300.71,294.044 300.044,295.377 299,296.5C 296.809,285.938 295.143,275.272 294,264.5C 292.027,245.385 283.86,229.552 269.5,217C 243.357,204.796 221.69,210.296 204.5,233.5C 193.853,237.736 184.686,244.07 177,252.5C 174.781,256.271 173.115,260.271 172,264.5C 169.851,273.54 167.517,282.54 165,291.5C 163.748,293.001 162.748,294.668 162,296.5C 149.392,303.815 138.059,312.815 128,323.5C 114.146,343.074 107.979,364.908 109.5,389C 108.887,417.602 114.054,445.102 125,471.5C 129.739,480.979 134.406,490.312 139,499.5C 106.125,462.737 85.7916,419.737 78,370.5C 76.4803,362.902 75.4803,355.235 75,347.5C 74.9445,324.499 74.9445,301.499 75,278.5C 70.0712,258.713 63.7378,239.38 56,220.5C 38.9593,170.257 30.126,118.59 29.5,65.5C 29.2255,51.827 33.0589,39.4937 41,28.5C 44.6715,24.9227 48.8381,22.2561 53.5,20.5 Z"/></g>
<g><path style="opacity:1" fill="#0b0a0a" d="M 56.5,37.5 C 65.4336,36.6503 73.7669,38.4837 81.5,43C 111.507,63.671 137.674,88.5044 160,117.5C 172.874,134.196 176.208,152.529 170,172.5C 158.344,197.277 142.177,218.777 121.5,237C 117.127,240.186 112.46,242.853 107.5,245C 102.382,245.888 97.3822,245.555 92.5,244C 82.7905,231.085 75.2905,216.918 70,201.5C 52.5057,154.698 43.5057,106.365 43,56.5C 44.1075,47.5731 48.6075,41.2397 56.5,37.5 Z"/></g>
<g><path style="opacity:1" fill="#0b0a0a" d="M 531.5,37.5 C 545.462,35.6304 553.629,41.6304 556,55.5C 555.509,111.29 544.509,164.957 523,216.5C 518.883,226.579 513.383,235.745 506.5,244C 501.953,245.545 497.287,245.879 492.5,245C 486.551,243.027 481.217,240.027 476.5,236C 455.235,217.083 439.069,194.583 428,168.5C 423.918,151.931 426.585,136.598 436,122.5C 458.583,91.2498 485.75,64.7498 517.5,43C 522.017,40.4455 526.684,38.6121 531.5,37.5 Z"/></g>
<g><path style="opacity:1" fill="#f2e6d8" d="M 531.5,42.5 C 542.338,41.1758 548.838,45.8425 551,56.5C 550.123,112.014 538.79,165.348 517,216.5C 513.356,225.128 508.522,232.961 502.5,240C 499.5,240.667 496.5,240.667 493.5,240C 482.208,233.719 472.375,225.552 464,215.5C 450.281,200.065 439.614,182.731 432,163.5C 429.286,149.95 431.953,137.616 440,126.5C 462.583,95.2498 489.75,68.7498 521.5,47C 524.893,45.38 528.226,43.88 531.5,42.5 Z"/></g>
<g><path style="opacity:1" fill="#f2e6d8" d="M 58.5,42.5 C 65.2177,42.4099 71.551,43.9099 77.5,47C 110.291,69.4577 138.125,96.9577 161,129.5C 167.63,141.111 169.297,153.444 166,166.5C 154.204,193.964 136.704,217.131 113.5,236C 108.641,239.401 103.308,240.734 97.5,240C 95.714,239.215 94.214,238.049 93,236.5C 76.0607,205.353 64.0607,172.353 57,137.5C 50.6119,110.847 47.6119,83.8475 48,56.5C 49.3588,50.0698 52.8588,45.4031 58.5,42.5 Z"/></g>
<g><path style="opacity:1" fill="#f5f5f5" d="M 238.5,215.5 C 254.74,213.708 267.573,219.375 277,232.5C 280.962,238.713 283.962,245.38 286,252.5C 288.578,266.787 290.911,281.12 293,295.5C 293.782,301.295 296.949,303.462 302.5,302C 303.46,300.581 304.293,299.081 305,297.5C 307.666,282.181 310.332,266.848 313,251.5C 317.286,233.552 328.119,221.719 345.5,216C 358.654,214.275 370.32,217.608 380.5,226C 384.132,230.634 388.132,234.967 392.5,239C 402.1,242.383 410.267,247.883 417,255.5C 422.088,265.596 425.421,276.263 427,287.5C 428.408,293.486 431.242,298.652 435.5,303C 465.251,317.981 481.417,342.148 484,375.5C 487.456,459.787 452.623,522.287 379.5,563C 311.469,594.7 247.469,588.033 187.5,543C 129.247,494.273 106.08,432.106 118,356.5C 122.323,340.349 130.823,326.849 143.5,316C 151.087,310.957 158.587,305.79 166,300.5C 168.573,296.455 170.573,292.122 172,287.5C 173.844,279.125 175.844,270.792 178,262.5C 180.291,256.405 184.124,251.571 189.5,248C 195.325,245.255 200.992,242.255 206.5,239C 214.611,227.468 225.277,219.634 238.5,215.5 Z"/></g>
<g><path style="opacity:1" fill="#080807" d="M 214.5,262.5 C 237.951,259.311 252.118,269.311 257,292.5C 258.359,297.775 258.692,303.109 258,308.5C 254.319,311.36 250.152,312.193 245.5,311C 224.601,308.799 206.767,300.299 192,285.5C 189.545,281.814 188.545,277.814 189,273.5C 196.532,267.385 205.032,263.718 214.5,262.5 Z"/></g>
<g><path style="opacity:1" fill="#070706" d="M 365.5,262.5 C 377.176,261.543 388.509,263.043 399.5,267C 403.419,268.54 406.919,270.707 410,273.5C 410.652,276.594 410.318,279.594 409,282.5C 397.036,297.408 381.536,306.574 362.5,310C 356.529,311.131 350.529,311.464 344.5,311C 341.141,309.865 339.808,307.532 340.5,304C 341.315,289.374 346.981,277.041 357.5,267C 360.191,265.395 362.858,263.895 365.5,262.5 Z"/></g>
<g><path style="opacity:1" fill="#362e2b" d="M 214.5,267.5 C 231.023,264.176 242.523,270.176 249,285.5C 251.934,291.894 253.267,298.56 253,305.5C 232.136,305.709 213.969,298.709 198.5,284.5C 195.631,282.105 194.464,279.105 195,275.5C 201.168,271.73 207.668,269.063 214.5,267.5 Z"/></g>
<g><path style="opacity:1" fill="#352e2b" d="M 368.5,267.5 C 381.781,266.291 393.948,269.291 405,276.5C 404.036,280.565 401.87,284.065 398.5,287C 383.43,299.468 366.097,305.802 346.5,306C 346.304,293.598 350.304,282.598 358.5,273C 361.767,270.87 365.1,269.037 368.5,267.5 Z"/></g>
<g><path style="opacity:1" fill="#efefef" d="M 236.5,275.5 C 242.356,275.854 244.523,278.854 243,284.5C 237.688,288.931 234.188,287.764 232.5,281C 232.901,278.44 234.234,276.607 236.5,275.5 Z"/></g>
<g><path style="opacity:1" fill="#eeeeee" d="M 359.5,275.5 C 365.356,275.854 367.523,278.854 366,284.5C 360.927,288.864 357.427,287.864 355.5,281.5C 355.67,278.674 357.003,276.674 359.5,275.5 Z"/></g>
<g><path style="opacity:1" fill="#070706" d="M 288.5,386.5 C 301.146,385.581 313.48,387.081 325.5,391C 334.594,394.102 341.094,399.935 345,408.5C 348.881,427.858 343.381,444.025 328.5,457C 313.528,464.889 297.862,466.556 281.5,462C 264.605,455.755 255.105,443.588 253,425.5C 250.346,412.448 254.512,402.281 265.5,395C 272.88,391.044 280.547,388.211 288.5,386.5 Z"/></g>
<g><path style="opacity:1" fill="#362e2b" d="M 295.5,391.5 C 310.235,390.682 323.568,394.515 335.5,403C 341.551,410.641 343.051,419.141 340,428.5C 334.535,449.112 321.035,459.446 299.5,459.5C 269.99,457.817 256.157,442.15 258,412.5C 261.534,404.635 267.367,399.135 275.5,396C 282.095,393.524 288.762,392.024 295.5,391.5 Z"/></g>
<g><path style="opacity:1" fill="#080707" d="M 263.5,495.5 C 267.162,495.277 270.495,494.277 273.5,492.5C 279.503,491.112 285.503,489.612 291.5,488C 296.489,487.501 301.489,487.334 306.5,487.5C 311.278,489.279 316.278,490.613 321.5,491.5C 323.214,492.738 325.214,493.405 327.5,493.5C 330.854,495.258 334.521,496.258 338.5,496.5C 351.637,500.509 362.47,497.176 371,486.5C 380.092,470.559 386.426,453.559 390,435.5C 393.491,432.554 395.658,433.388 396.5,438C 393.461,456.449 387.628,473.949 379,490.5C 371.068,500.435 362.401,509.768 353,518.5C 346.953,526.092 340.786,533.592 334.5,541C 317.441,551.769 299.107,554.435 279.5,549C 274.055,547.112 269.055,544.445 264.5,541C 252.385,525.649 239.218,511.149 225,497.5C 216.947,487.059 211.28,475.392 208,462.5C 205.771,454.419 203.938,446.253 202.5,438C 203.342,433.388 205.509,432.554 209,435.5C 212.176,446.535 215.509,457.535 219,468.5C 222.16,477.982 227.327,486.149 234.5,493C 236.888,494.861 239.554,496.194 242.5,497C 249.607,497.748 256.607,497.248 263.5,495.5 Z"/></g>
<g><path style="opacity:1" fill="#98687b" d="M 306.5,487.5 C 311.888,487.762 316.888,489.095 321.5,491.5C 316.278,490.613 311.278,489.279 306.5,487.5 Z"/></g>
<g><path style="opacity:1" fill="#734053" d="M 306.5,487.5 C 301.489,487.334 296.489,487.501 291.5,488C 285.503,489.612 279.503,491.112 273.5,492.5C 284.004,487.118 295.004,485.451 306.5,487.5 Z"/></g>
<g><path style="opacity:1" fill="#c25b83" d="M 342.5,502.5 C 339.729,521.909 329.396,535.409 311.5,543C 307.886,543.936 304.22,544.436 300.5,544.5C 300.611,543.883 300.944,543.383 301.5,543C 288.167,529.667 274.833,516.333 261.5,503C 259.866,502.506 258.199,502.34 256.5,502.5C 267.412,499.479 278.412,496.313 289.5,493C 304.895,491.545 319.561,494.212 333.5,501C 336.513,501.502 339.513,502.002 342.5,502.5 Z"/></g>
<g><path style="opacity:1" fill="#6f3e50" d="M 273.5,492.5 C 270.495,494.277 267.162,495.277 263.5,495.5C 266.505,493.723 269.838,492.723 273.5,492.5 Z"/></g>
<g><path style="opacity:1" fill="#9f7182" d="M 327.5,493.5 C 331.479,493.742 335.146,494.742 338.5,496.5C 334.521,496.258 330.854,495.258 327.5,493.5 Z"/></g>
<g><path style="opacity:1" fill="#352d2a" d="M 256.5,502.5 C 258.798,516.266 265.132,527.766 275.5,537C 282.937,542.423 291.27,544.923 300.5,544.5C 304.22,544.436 307.886,543.936 311.5,543C 329.396,535.409 339.729,521.909 342.5,502.5C 348.879,502.484 355.212,502.318 361.5,502C 352.585,510.911 344.418,520.411 337,530.5C 322.728,545.031 305.561,549.864 285.5,545C 275.67,542.5 267.504,537.333 261,529.5C 253.612,519.106 245.112,509.606 235.5,501C 242.337,502.282 249.337,502.782 256.5,502.5 Z"/></g>
<g><path style="opacity:1" fill="#e06a99" d="M 256.5,502.5 C 258.199,502.34 259.866,502.506 261.5,503C 274.833,516.333 288.167,529.667 301.5,543C 300.944,543.383 300.611,543.883 300.5,544.5C 291.27,544.923 282.937,542.423 275.5,537C 265.132,527.766 258.798,516.266 256.5,502.5 Z"/></g>
</svg>
