<?xml version="1.0" encoding="UTF-8"?>
<!DOCTYPE svg PUBLIC "-//W3C//DTD SVG 1.1//EN" "http://www.w3.org/Graphics/SVG/1.1/DTD/svg11.dtd">
<svg xmlns="http://www.w3.org/2000/svg" version="1.1" width="600px" height="600px" style="shape-rendering:geometricPrecision; text-rendering:geometricPrecision; image-rendering:optimizeQuality; fill-rule:evenodd; clip-rule:evenodd" xmlns:xlink="http://www.w3.org/1999/xlink">
<g><path style="opacity:0.953" fill="#010000" d="M 599.5,192.5 C 599.5,202.5 599.5,212.5 599.5,222.5C 595.277,224.901 590.944,225.068 586.5,223C 581.063,217.287 576.23,211.12 572,204.5C 571.196,203.196 570.029,202.529 568.5,202.5C 544.227,206.857 522.561,216.69 503.5,232C 500.95,233.442 498.284,234.608 495.5,235.5C 496.496,255.045 494.663,274.378 490,293.5C 481.726,306.772 473.059,319.772 464,332.5C 456.134,344.898 450.468,358.231 447,372.5C 444.498,404.519 435.498,434.519 420,462.5C 417.19,474.265 413.19,485.598 408,496.5C 393.309,517.576 373.143,525.909 347.5,521.5C 314.837,528.166 282.17,528.166 249.5,521.5C 218.614,525.98 197.114,513.98 185,485.5C 181.521,476.396 178.854,467.063 177,457.5C 166.548,440.819 159.214,422.819 155,403.5C 153.352,377.223 145.685,352.89 132,330.5C 123.667,318.167 115.333,305.833 107,293.5C 104.441,286.372 102.774,279.038 102,271.5C 101.229,259.467 101.395,247.467 102.5,235.5C 99.763,234.969 97.0964,234.136 94.5,233C 83.304,224.15 71.304,216.483 58.5,210C 49.1301,205.932 39.4635,202.766 29.5,200.5C 24.1978,208.269 18.5311,215.769 12.5,223C 7.98905,225.141 3.65572,224.975 -0.5,222.5C -0.5,212.5 -0.5,202.5 -0.5,192.5C 4.38139,182.434 11.0481,173.601 19.5,166C 45.8502,143.684 74.8502,125.351 106.5,111C 136.233,98.8513 164.566,101.518 191.5,119C 194.687,119.889 197.853,120.722 201,121.5C 221.782,115.92 242.949,114.086 264.5,116C 275.845,117.057 287.178,118.223 298.5,119.5C 324.076,115.466 349.743,114.632 375.5,117C 383.283,118.319 390.783,120.486 398,123.5C 430.049,100.094 463.882,97.2609 499.5,115C 529.894,129.851 557.894,148.185 583.5,170C 589.715,176.952 595.048,184.452 599.5,192.5 Z"/></g>
<g><path style="opacity:1" fill="#5b5144" d="M 187.5,128.5 C 185.637,130.492 183.304,131.992 180.5,133C 175.389,133.429 170.389,134.262 165.5,135.5C 163.535,133.512 161.202,132.012 158.5,131C 142.527,127.061 126.861,128.061 111.5,134C 92.7889,141.52 75.1222,150.854 58.5,162C 55.5,163 52.5,164 49.5,165C 47.9617,166.932 46.795,169.099 46,171.5C 40.2458,176.864 35.0791,182.697 30.5,189C 28.6183,189.198 26.9516,189.698 25.5,190.5C 23.629,190.859 22.129,191.859 21,193.5C 16.3333,200.167 11.6667,206.833 7,213.5C 6.20935,209.074 6.54268,204.741 8,200.5C 13.4386,186.719 22.272,175.553 34.5,167C 59.1105,147.755 85.7772,131.755 114.5,119C 131.704,112.081 149.037,111.748 166.5,118C 173.805,120.986 180.805,124.486 187.5,128.5 Z"/></g>
<g><path style="opacity:1" fill="#5b5144" d="M 570.5,191.5 C 568.629,191.141 567.129,190.141 566,188.5C 556.7,175.531 545.2,165.031 531.5,157C 511.371,144.103 489.705,134.769 466.5,129C 450.215,126.047 435.882,129.88 423.5,140.5C 430.671,145.588 437.671,150.922 444.5,156.5C 430.339,157.661 416.006,157.827 401.5,157C 398.956,155.908 396.289,155.241 393.5,155C 385.696,149.362 378.696,142.862 372.5,135.5C 368.485,132.16 364.151,129.327 359.5,127C 360.448,126.517 361.448,126.351 362.5,126.5C 375.219,126.721 387.385,129.387 399,134.5C 410.512,127.16 422.679,120.993 435.5,116C 454.245,111.299 472.245,113.299 489.5,122C 522.801,137.223 552.967,157.056 580,181.5C 585.031,188.225 589.031,195.558 592,203.5C 592.667,206.833 592.667,210.167 592,213.5C 586.167,206.333 580.333,199.167 574.5,192C 573.207,191.51 571.873,191.343 570.5,191.5 Z"/></g>
<g><path style="opacity:1" fill="#4a4238" d="M 260.5,126.5 C 254.463,126.171 248.463,126.504 242.5,127.5C 237.422,135.244 230.755,141.244 222.5,145.5C 215.878,155.785 208.878,165.785 201.5,175.5C 186.629,184.659 171.962,193.992 157.5,203.5C 153.465,216.245 148.298,228.578 142,240.5C 135.453,246.766 127.62,249.599 118.5,249C 123.996,242.505 129.829,236.338 136,230.5C 141.035,220.973 144.701,210.973 147,200.5C 149.261,196.237 151.928,192.237 155,188.5C 163.909,180.627 173.742,174.127 184.5,169C 188.971,165.384 193.638,162.051 198.5,159C 204.559,152.06 208.226,144.227 209.5,135.5C 205.6,137.284 201.6,138.784 197.5,140C 186.697,141.508 176.03,143.341 165.5,145.5C 166.833,142.167 166.833,138.833 165.5,135.5C 170.389,134.262 175.389,133.429 180.5,133C 183.304,131.992 185.637,130.492 187.5,128.5C 191.124,130.206 194.957,131.206 199,131.5C 210.394,129.021 221.894,127.188 233.5,126C 242.676,125.176 251.676,125.343 260.5,126.5 Z"/></g>
<g><path style="opacity:1" fill="#5c5245" d="M 260.5,126.5 C 272.691,127.196 284.858,128.196 297,129.5C 309.162,128.389 321.329,127.389 333.5,126.5C 339.129,134.129 345.129,141.463 351.5,148.5C 361.77,153.976 372.77,157.143 384.5,158C 389.272,160.576 394.272,162.576 399.5,164C 420.313,176.207 442.98,182.04 467.5,181.5C 474.054,189.938 479.054,199.271 482.5,209.5C 482.53,210.497 482.03,211.164 481,211.5C 472.27,209.308 463.437,208.975 454.5,210.5C 445.992,212.431 437.659,214.931 429.5,218C 420.594,222.982 411.261,226.982 401.5,230C 394.5,230.667 387.5,230.667 380.5,230C 377.833,228.667 375.167,227.333 372.5,226C 366.629,225.769 360.796,225.269 355,224.5C 352.205,225.185 349.372,225.685 346.5,226C 339.805,228.238 333.472,231.071 327.5,234.5C 318.968,243.888 308.968,251.055 297.5,256C 285.17,260.492 272.503,263.825 259.5,266C 255.953,267.979 252.286,269.813 248.5,271.5C 247.694,258.85 241.694,249.85 230.5,244.5C 230.72,240.055 231.554,235.722 233,231.5C 236.442,226.688 240.276,222.188 244.5,218C 251.528,214.734 258.861,212.068 266.5,210C 277.167,209.667 287.833,209.333 298.5,209C 309.833,206.667 321.167,204.333 332.5,202C 345.537,201.482 358.537,200.482 371.5,199C 384.782,194.598 398.116,194.431 411.5,198.5C 417.137,199.663 422.804,199.83 428.5,199C 412.506,192.005 396.506,185.005 380.5,178C 372.699,177.153 365.033,177.82 357.5,180C 344.726,187.034 331.393,192.701 317.5,197C 301.771,197.821 286.104,197.321 270.5,195.5C 261.93,195.695 253.597,197.195 245.5,200C 241.161,203.043 236.828,206.043 232.5,209C 228.46,213.406 225.627,218.573 224,224.5C 222.893,230.787 222.393,237.12 222.5,243.5C 204.623,244.669 192.123,253.335 185,269.5C 182.903,285.316 189.403,295.65 204.5,300.5C 204.389,301.117 204.056,301.617 203.5,302C 190.178,303.153 176.845,304.153 163.5,305C 159.317,307.257 154.984,309.257 150.5,311C 146.956,315.046 142.956,318.546 138.5,321.5C 134.5,315.5 130.5,309.5 126.5,303.5C 126.238,302.022 126.571,300.689 127.5,299.5C 134.196,294.569 141.196,290.069 148.5,286C 152.541,282.815 155.541,278.981 157.5,274.5C 158.675,274.719 159.675,274.386 160.5,273.5C 166.032,265.76 172.032,258.426 178.5,251.5C 185.756,246.288 192.923,240.955 200,235.5C 203.333,230.833 206.667,226.167 210,221.5C 214.732,211.955 219.065,202.288 223,192.5C 230.215,182.637 239.715,175.804 251.5,172C 261.67,168.937 272.003,166.604 282.5,165C 286.773,163.021 290.94,160.855 295,158.5C 295.635,157.034 296.469,155.7 297.5,154.5C 278.002,155.76 258.336,156.926 238.5,158C 235.346,159.081 232.679,160.914 230.5,163.5C 221.535,177.323 212.702,191.323 204,205.5C 190.189,217.64 178.189,231.307 168,246.5C 165.934,249.297 163.434,251.631 160.5,253.5C 153.371,265.129 144.038,274.629 132.5,282C 126.856,283.661 121.189,285.161 115.5,286.5C 113.919,280.609 112.752,274.609 112,268.5C 111.667,255.49 111.667,242.49 112,229.5C 111.292,228.619 110.458,227.953 109.5,227.5C 109.111,224.447 109.777,221.78 111.5,219.5C 113.017,219.489 114.184,218.823 115,217.5C 123.508,205.819 129.008,192.819 131.5,178.5C 141.51,166.157 152.843,155.157 165.5,145.5C 176.03,143.341 186.697,141.508 197.5,140C 201.6,138.784 205.6,137.284 209.5,135.5C 208.226,144.227 204.559,152.06 198.5,159C 193.638,162.051 188.971,165.384 184.5,169C 173.742,174.127 163.909,180.627 155,188.5C 151.928,192.237 149.261,196.237 147,200.5C 144.701,210.973 141.035,220.973 136,230.5C 129.829,236.338 123.996,242.505 118.5,249C 127.62,249.599 135.453,246.766 142,240.5C 148.298,228.578 153.465,216.245 157.5,203.5C 171.962,193.992 186.629,184.659 201.5,175.5C 208.878,165.785 215.878,155.785 222.5,145.5C 230.755,141.244 237.422,135.244 242.5,127.5C 248.463,126.504 254.463,126.171 260.5,126.5 Z"/></g>
<g><path style="opacity:1" fill="#4a4238" d="M 362.5,126.5 C 361.448,126.351 360.448,126.517 359.5,127C 364.151,129.327 368.485,132.16 372.5,135.5C 378.696,142.862 385.696,149.362 393.5,155C 396.289,155.241 398.956,155.908 401.5,157C 416.006,157.827 430.339,157.661 444.5,156.5C 453.243,163.907 460.91,172.24 467.5,181.5C 442.98,182.04 420.313,176.207 399.5,164C 394.272,162.576 389.272,160.576 384.5,158C 372.77,157.143 361.77,153.976 351.5,148.5C 345.129,141.463 339.129,134.129 333.5,126.5C 343.295,125.207 352.962,125.207 362.5,126.5 Z"/></g>
<g><path style="opacity:1" fill="#332d24" d="M 165.5,135.5 C 166.833,138.833 166.833,142.167 165.5,145.5C 152.843,155.157 141.51,166.157 131.5,178.5C 126.513,185.129 122.013,192.129 118,199.5C 114.538,205.721 112.371,212.387 111.5,219.5C 109.777,221.78 109.111,224.447 109.5,227.5C 104.992,226.161 100.658,224.328 96.5,222C 76.041,204.441 52.3743,193.941 25.5,190.5C 26.9516,189.698 28.6183,189.198 30.5,189C 35.0791,182.697 40.2458,176.864 46,171.5C 46.795,169.099 47.9617,166.932 49.5,165C 52.5,164 55.5,163 58.5,162C 75.1222,150.854 92.7889,141.52 111.5,134C 126.861,128.061 142.527,127.061 158.5,131C 161.202,132.012 163.535,133.512 165.5,135.5 Z"/></g>
<g><path style="opacity:1" fill="#332d24" d="M 570.5,191.5 C 544.831,195.004 521.831,204.837 501.5,221C 497.137,223.684 492.47,225.518 487.5,226.5C 486.813,220.448 485.146,214.782 482.5,209.5C 479.054,199.271 474.054,189.938 467.5,181.5C 460.91,172.24 453.243,163.907 444.5,156.5C 437.671,150.922 430.671,145.588 423.5,140.5C 435.882,129.88 450.215,126.047 466.5,129C 489.705,134.769 511.371,144.103 531.5,157C 545.2,165.031 556.7,175.531 566,188.5C 567.129,190.141 568.629,191.141 570.5,191.5 Z"/></g>
<g><path style="opacity:1" fill="#4b4238" d="M 126.5,303.5 C 122.1,298.381 118.433,292.714 115.5,286.5C 121.189,285.161 126.856,283.661 132.5,282C 144.038,274.629 153.371,265.129 160.5,253.5C 163.434,251.631 165.934,249.297 168,246.5C 178.189,231.307 190.189,217.64 204,205.5C 212.702,191.323 221.535,177.323 230.5,163.5C 232.679,160.914 235.346,159.081 238.5,158C 258.336,156.926 278.002,155.76 297.5,154.5C 296.469,155.7 295.635,157.034 295,158.5C 290.94,160.855 286.773,163.021 282.5,165C 272.003,166.604 261.67,168.937 251.5,172C 239.715,175.804 230.215,182.637 223,192.5C 219.065,202.288 214.732,211.955 210,221.5C 206.667,226.167 203.333,230.833 200,235.5C 192.923,240.955 185.756,246.288 178.5,251.5C 172.032,258.426 166.032,265.76 160.5,273.5C 159.675,274.386 158.675,274.719 157.5,274.5C 155.541,278.981 152.541,282.815 148.5,286C 141.196,290.069 134.196,294.569 127.5,299.5C 126.571,300.689 126.238,302.022 126.5,303.5 Z"/></g>
<g><path style="opacity:1" fill="#4b4338" d="M 230.5,244.5 C 227.873,243.908 225.206,243.575 222.5,243.5C 222.393,237.12 222.893,230.787 224,224.5C 225.627,218.573 228.46,213.406 232.5,209C 236.828,206.043 241.161,203.043 245.5,200C 253.597,197.195 261.93,195.695 270.5,195.5C 286.104,197.321 301.771,197.821 317.5,197C 331.393,192.701 344.726,187.034 357.5,180C 365.033,177.82 372.699,177.153 380.5,178C 396.506,185.005 412.506,192.005 428.5,199C 422.804,199.83 417.137,199.663 411.5,198.5C 398.116,194.431 384.782,194.598 371.5,199C 358.537,200.482 345.537,201.482 332.5,202C 321.167,204.333 309.833,206.667 298.5,209C 287.833,209.333 277.167,209.667 266.5,210C 258.861,212.068 251.528,214.734 244.5,218C 240.276,222.188 236.442,226.688 233,231.5C 231.554,235.722 230.72,240.055 230.5,244.5 Z"/></g>
<g><path style="opacity:1" fill="#494137" d="M 131.5,178.5 C 129.008,192.819 123.508,205.819 115,217.5C 114.184,218.823 113.017,219.489 111.5,219.5C 112.371,212.387 114.538,205.721 118,199.5C 122.013,192.129 126.513,185.129 131.5,178.5 Z"/></g>
<g><path style="opacity:1" fill="#4b4338" d="M 482.5,209.5 C 485.146,214.782 486.813,220.448 487.5,226.5C 486.71,227.401 485.71,228.068 484.5,228.5C 481.769,224.973 478.103,222.806 473.5,222C 467.558,220.594 461.558,220.261 455.5,221C 442.961,223.503 430.961,227.503 419.5,233C 411.706,234.467 404.039,236.467 396.5,239C 385.496,239.452 374.496,239.286 363.5,238.5C 349.367,238.282 336.367,241.949 324.5,249.5C 315.619,255.446 307.286,262.112 299.5,269.5C 287.058,277.48 273.392,281.98 258.5,283C 254.145,284.846 249.812,286.679 245.5,288.5C 247.879,283.112 248.879,277.445 248.5,271.5C 252.286,269.813 255.953,267.979 259.5,266C 272.503,263.825 285.17,260.492 297.5,256C 308.968,251.055 318.968,243.888 327.5,234.5C 333.472,231.071 339.805,228.238 346.5,226C 349.372,225.685 352.205,225.185 355,224.5C 360.796,225.269 366.629,225.769 372.5,226C 375.167,227.333 377.833,228.667 380.5,230C 387.5,230.667 394.5,230.667 401.5,230C 411.261,226.982 420.594,222.982 429.5,218C 437.659,214.931 445.992,212.431 454.5,210.5C 463.437,208.975 472.27,209.308 481,211.5C 482.03,211.164 482.53,210.497 482.5,209.5 Z"/></g>
<g><path style="opacity:1" fill="#5c5245" d="M 484.5,228.5 C 484.305,234.708 484.305,241.041 484.5,247.5C 470.182,244.375 455.682,243.708 441,245.5C 433.398,248.731 426.898,253.565 421.5,260C 417.422,262.281 413.422,264.448 409.5,266.5C 399.137,248.82 383.804,241.653 363.5,245C 353.512,250.505 348.179,259.005 347.5,270.5C 348.173,277.077 345.673,282.077 340,285.5C 338.229,290.502 335.895,295.169 333,299.5C 329.215,302.964 324.715,304.298 319.5,303.5C 291.441,299.215 264.774,303.381 239.5,316C 226.669,323.664 216.336,333.831 208.5,346.5C 196.477,345.082 184.477,345.248 172.5,347C 166.529,349.159 160.529,350.992 154.5,352.5C 152.836,348.504 151.169,344.504 149.5,340.5C 157.546,333.798 165.213,326.631 172.5,319C 175.167,317.667 177.833,316.333 180.5,315C 193.315,311.796 206.315,309.463 219.5,308C 222.167,306.667 224.833,305.333 227.5,304C 228.252,303.329 228.586,302.496 228.5,301.5C 236.191,299.809 241.857,295.476 245.5,288.5C 249.812,286.679 254.145,284.846 258.5,283C 273.392,281.98 287.058,277.48 299.5,269.5C 307.286,262.112 315.619,255.446 324.5,249.5C 336.367,241.949 349.367,238.282 363.5,238.5C 374.496,239.286 385.496,239.452 396.5,239C 404.039,236.467 411.706,234.467 419.5,233C 430.961,227.503 442.961,223.503 455.5,221C 461.558,220.261 467.558,220.594 473.5,222C 478.103,222.806 481.769,224.973 484.5,228.5 Z"/></g>
<g><path style="opacity:1" fill="#010000" d="M 222.5,243.5 C 225.206,243.575 227.873,243.908 230.5,244.5C 241.694,249.85 247.694,258.85 248.5,271.5C 248.879,277.445 247.879,283.112 245.5,288.5C 241.857,295.476 236.191,299.809 228.5,301.5C 220.425,302.971 212.425,302.637 204.5,300.5C 189.403,295.65 182.903,285.316 185,269.5C 192.123,253.335 204.623,244.669 222.5,243.5 Z"/></g>
<g><path style="opacity:1" fill="#000000" d="M 409.5,266.5 C 411.669,271.359 412.002,276.359 410.5,281.5C 409.1,287.226 406.1,291.893 401.5,295.5C 390.953,301.592 379.619,303.592 367.5,301.5C 363.441,300.636 359.774,298.97 356.5,296.5C 349.239,289.526 346.239,280.859 347.5,270.5C 348.179,259.005 353.512,250.505 363.5,245C 383.804,241.653 399.137,248.82 409.5,266.5 Z"/></g>
<g><path style="opacity:1" fill="#4a4238" d="M 484.5,247.5 C 484.5,249.5 484.5,251.5 484.5,253.5C 466.792,250.102 451.125,253.935 437.5,265C 433.868,269.966 429.534,274.299 424.5,278C 419.966,279.813 415.299,280.98 410.5,281.5C 412.002,276.359 411.669,271.359 409.5,266.5C 413.422,264.448 417.422,262.281 421.5,260C 426.898,253.565 433.398,248.731 441,245.5C 455.682,243.708 470.182,244.375 484.5,247.5 Z"/></g>
<g><path style="opacity:1" fill="#5c5245" d="M 484.5,253.5 C 484.97,266.971 482.97,279.971 478.5,292.5C 472.219,293.913 466.219,296.08 460.5,299C 457.122,302.042 453.455,304.709 449.5,307C 444.262,309.304 439.095,311.804 434,314.5C 424.308,316.795 414.475,318.295 404.5,319C 400.635,319.761 397.635,321.761 395.5,325C 389.764,327.587 384.431,330.753 379.5,334.5C 373.772,328.767 367.772,323.433 361.5,318.5C 364.508,315.801 367.841,313.301 371.5,311C 383.673,307.914 395.673,304.247 407.5,300C 408.833,299 408.833,298 407.5,297C 405.292,296.809 403.292,296.309 401.5,295.5C 406.1,291.893 409.1,287.226 410.5,281.5C 415.299,280.98 419.966,279.813 424.5,278C 429.534,274.299 433.868,269.966 437.5,265C 451.125,253.935 466.792,250.102 484.5,253.5 Z"/></g>
<g><path style="opacity:1" fill="#e7e7e7" d="M 384.5,255.5 C 393.38,255.932 396.213,260.265 393,268.5C 385.997,273.411 381.497,271.745 379.5,263.5C 379.672,259.807 381.339,257.141 384.5,255.5 Z"/></g>
<g><path style="opacity:1" fill="#ebebeb" d="M 221.5,256.5 C 229.993,255.492 233.493,259.158 232,267.5C 226.833,273.092 222.167,272.759 218,266.5C 217.182,262.469 218.349,259.136 221.5,256.5 Z"/></g>
<g><path style="opacity:1" fill="#4a4238" d="M 347.5,270.5 C 346.239,280.859 349.239,289.526 356.5,296.5C 354.712,296.215 353.045,296.548 351.5,297.5C 348.393,300.56 345.059,303.394 341.5,306C 340.748,306.671 340.414,307.504 340.5,308.5C 333.493,306.436 326.493,304.769 319.5,303.5C 324.715,304.298 329.215,302.964 333,299.5C 335.895,295.169 338.229,290.502 340,285.5C 345.673,282.077 348.173,277.077 347.5,270.5 Z"/></g>
<g><path style="opacity:1" fill="#4a4238" d="M 478.5,292.5 C 472.523,301.8 466.19,310.8 459.5,319.5C 459.44,318.957 459.107,318.624 458.5,318.5C 453.359,321.235 448.026,323.735 442.5,326C 433.003,327.722 423.669,330.056 414.5,333C 405.778,337.892 398.111,344.059 391.5,351.5C 387.758,345.695 383.758,340.029 379.5,334.5C 384.431,330.753 389.764,327.587 395.5,325C 397.635,321.761 400.635,319.761 404.5,319C 414.475,318.295 424.308,316.795 434,314.5C 439.095,311.804 444.262,309.304 449.5,307C 453.455,304.709 457.122,302.042 460.5,299C 466.219,296.08 472.219,293.913 478.5,292.5 Z"/></g>
<g><path style="opacity:1" fill="#5b5144" d="M 356.5,296.5 C 359.774,298.97 363.441,300.636 367.5,301.5C 367.918,302.222 368.584,302.722 369.5,303C 364.537,307.142 359.204,310.642 353.5,313.5C 349.083,312.028 344.75,310.362 340.5,308.5C 340.414,307.504 340.748,306.671 341.5,306C 345.059,303.394 348.393,300.56 351.5,297.5C 353.045,296.548 354.712,296.215 356.5,296.5 Z"/></g>
<g><path style="opacity:1" fill="#4a4238" d="M 401.5,295.5 C 403.292,296.309 405.292,296.809 407.5,297C 408.833,298 408.833,299 407.5,300C 395.673,304.247 383.673,307.914 371.5,311C 367.841,313.301 364.508,315.801 361.5,318.5C 358.797,316.819 356.131,315.153 353.5,313.5C 359.204,310.642 364.537,307.142 369.5,303C 368.584,302.722 367.918,302.222 367.5,301.5C 379.619,303.592 390.953,301.592 401.5,295.5 Z"/></g>
<g><path style="opacity:1" fill="#4a4238" d="M 204.5,300.5 C 212.425,302.637 220.425,302.971 228.5,301.5C 228.586,302.496 228.252,303.329 227.5,304C 224.833,305.333 222.167,306.667 219.5,308C 206.315,309.463 193.315,311.796 180.5,315C 177.833,316.333 175.167,317.667 172.5,319C 165.213,326.631 157.546,333.798 149.5,340.5C 146.101,334.038 142.434,327.705 138.5,321.5C 142.956,318.546 146.956,315.046 150.5,311C 154.984,309.257 159.317,307.257 163.5,305C 176.845,304.153 190.178,303.153 203.5,302C 204.056,301.617 204.389,301.117 204.5,300.5 Z"/></g>
<g><path style="opacity:1" fill="#332e24" d="M 319.5,303.5 C 326.493,304.769 333.493,306.436 340.5,308.5C 344.75,310.362 349.083,312.028 353.5,313.5C 356.131,315.153 358.797,316.819 361.5,318.5C 367.772,323.433 373.772,328.767 379.5,334.5C 383.758,340.029 387.758,345.695 391.5,351.5C 396.415,360.658 400.748,369.991 404.5,379.5C 405.336,383.323 406.336,386.989 407.5,390.5C 412.685,407.095 415.685,424.095 416.5,441.5C 417.5,441.5 418.5,441.5 419.5,441.5C 416.345,447.139 413.179,452.806 410,458.5C 407.501,474.353 401.334,488.519 391.5,501C 385.64,505.849 378.973,509.182 371.5,511C 360.521,511.989 349.521,512.489 338.5,512.5C 334.681,512.395 331.014,511.562 327.5,510C 318.014,505.059 308.18,500.892 298,497.5C 288.336,501.247 278.836,505.414 269.5,510C 265.986,511.562 262.319,512.395 258.5,512.5C 249.188,511.863 239.854,511.696 230.5,512C 213.21,508.708 201.377,498.875 195,482.5C 191.222,472.388 188.222,462.054 186,451.5C 183.888,448.273 182.055,444.94 180.5,441.5C 180.334,436.156 180.501,430.823 181,425.5C 182.597,419.914 183.764,414.247 184.5,408.5C 186.012,402.989 187.345,397.323 188.5,391.5C 192.302,380.761 196.302,370.094 200.5,359.5C 202.902,355.035 205.568,350.702 208.5,346.5C 216.336,333.831 226.669,323.664 239.5,316C 264.774,303.381 291.441,299.215 319.5,303.5 Z"/></g>
<g><path style="opacity:1" fill="#5c5245" d="M 459.5,319.5 C 453.516,329.462 448.016,339.796 443,350.5C 439.92,357.574 437.753,364.907 436.5,372.5C 426.307,376.676 415.64,379.009 404.5,379.5C 400.748,369.991 396.415,360.658 391.5,351.5C 398.111,344.059 405.778,337.892 414.5,333C 423.669,330.056 433.003,327.722 442.5,326C 448.026,323.735 453.359,321.235 458.5,318.5C 459.107,318.624 459.44,318.957 459.5,319.5 Z"/></g>
<g><path style="opacity:1" fill="#4b4339" d="M 208.5,346.5 C 205.568,350.702 202.902,355.035 200.5,359.5C 194.445,359.338 188.445,359.838 182.5,361C 174.78,363.066 167.114,365.233 159.5,367.5C 158.292,362.327 156.625,357.327 154.5,352.5C 160.529,350.992 166.529,349.159 172.5,347C 184.477,345.248 196.477,345.082 208.5,346.5 Z"/></g>
<g><path style="opacity:1" fill="#090100" d="M 286.5,349.5 C 299.522,348.497 312.188,349.997 324.5,354C 338.125,361.495 343.292,372.995 340,388.5C 334.511,411.182 320.011,422.849 296.5,423.5C 267.195,418.595 254.028,401.261 257,371.5C 259.678,362.822 265.178,356.655 273.5,353C 277.929,351.682 282.262,350.516 286.5,349.5 Z"/></g>
<g><path style="opacity:1" fill="#5c5245" d="M 200.5,359.5 C 196.302,370.094 192.302,380.761 188.5,391.5C 181.456,392.508 174.456,393.841 167.5,395.5C 166.075,395.377 164.742,395.043 163.5,394.5C 162.902,385.385 161.569,376.385 159.5,367.5C 167.114,365.233 174.78,363.066 182.5,361C 188.445,359.838 194.445,359.338 200.5,359.5 Z"/></g>
<g><path style="opacity:1" fill="#4a4238" d="M 436.5,372.5 C 435.301,378.232 434.301,383.899 433.5,389.5C 430.572,388.18 427.239,387.514 423.5,387.5C 419.145,387.601 414.812,387.934 410.5,388.5C 408.97,388.64 407.97,389.307 407.5,390.5C 406.336,386.989 405.336,383.323 404.5,379.5C 415.64,379.009 426.307,376.676 436.5,372.5 Z"/></g>
<g><path style="opacity:1" fill="#4a4238" d="M 188.5,391.5 C 187.345,397.323 186.012,402.989 184.5,408.5C 184.5,407.5 184.5,406.5 184.5,405.5C 178.721,406.978 173.388,409.312 168.5,412.5C 166.415,406.719 164.748,400.719 163.5,394.5C 164.742,395.043 166.075,395.377 167.5,395.5C 174.456,393.841 181.456,392.508 188.5,391.5 Z"/></g>
<g><path style="opacity:1" fill="#52493e" d="M 433.5,389.5 C 431.067,407.461 426.4,424.795 419.5,441.5C 418.5,441.5 417.5,441.5 416.5,441.5C 415.685,424.095 412.685,407.095 407.5,390.5C 407.97,389.307 408.97,388.64 410.5,388.5C 414.812,387.934 419.145,387.601 423.5,387.5C 427.239,387.514 430.572,388.18 433.5,389.5 Z"/></g>
<g><path style="opacity:1" fill="#5a5044" d="M 184.5,408.5 C 183.764,414.247 182.597,419.914 181,425.5C 180.501,430.823 180.334,436.156 180.5,441.5C 174.955,432.545 170.955,422.879 168.5,412.5C 173.388,409.312 178.721,406.978 184.5,405.5C 184.5,406.5 184.5,407.5 184.5,408.5 Z"/></g>
<g><path style="opacity:1" fill="#1d1a12" d="M 338.5,512.5 C 311.827,517.76 285.161,517.76 258.5,512.5C 262.319,512.395 265.986,511.562 269.5,510C 278.836,505.414 288.336,501.247 298,497.5C 308.18,500.892 318.014,505.059 327.5,510C 331.014,511.562 334.681,512.395 338.5,512.5 Z"/></g>
</svg>
