<?xml version="1.0" encoding="UTF-8"?>
<!DOCTYPE svg PUBLIC "-//W3C//DTD SVG 1.1//EN" "http://www.w3.org/Graphics/SVG/1.1/DTD/svg11.dtd">
<svg xmlns="http://www.w3.org/2000/svg" version="1.1" width="600px" height="600px" style="shape-rendering:geometricPrecision; text-rendering:geometricPrecision; image-rendering:optimizeQuality; fill-rule:evenodd; clip-rule:evenodd" xmlns:xlink="http://www.w3.org/1999/xlink">
<g><path style="opacity:0.97" fill="#040302" d="M 599.5,111.5 C 599.5,133.167 599.5,154.833 599.5,176.5C 595.539,187.433 590.705,198.099 585,208.5C 565.021,237.786 548.688,269.12 536,302.5C 533.595,309.047 531.595,315.714 530,322.5C 525.972,333.899 518.138,338.399 506.5,336C 499.705,332.257 494.872,326.757 492,319.5C 482.347,343.139 471.347,366.139 459,388.5C 447.55,412.736 439.55,438.069 435,464.5C 432.793,487.601 429.793,510.601 426,533.5C 413.93,585.534 383.93,599.534 336,575.5C 311.667,578.167 287.333,578.167 263,575.5C 249.945,581.679 236.279,585.679 222,587.5C 204.275,585.811 191.275,577.145 183,561.5C 177.143,548.741 173.143,535.408 171,521.5C 168.627,506.576 166.961,491.576 166,476.5C 161.847,444.709 152.847,414.376 139,385.5C 127.26,364.02 116.593,342.02 107,319.5C 103.399,329.273 96.5656,335.273 86.5,337.5C 78.2019,336.7 72.7019,332.367 70,324.5C 61.7071,296.245 50.3738,269.245 36,243.5C 21.2062,222.578 9.03955,200.244 -0.5,176.5C -0.5,155.167 -0.5,133.833 -0.5,112.5C 4.50166,103.657 11.1683,96.1566 19.5,90C 30.9724,81.8729 42.9724,74.5396 55.5,68C 94.8333,50.3333 134.167,32.6667 173.5,15C 183.769,11.327 193.769,11.9937 203.5,17C 208.333,20.3409 213,23.8409 217.5,27.5C 272.335,14.2139 327.168,14.2139 382,27.5C 389.271,20.5741 397.771,15.7408 407.5,13C 415.571,11.9336 423.238,13.2669 430.5,17C 469.588,34.3758 508.588,52.0424 547.5,70C 564.854,78.5937 580.354,89.7603 594,103.5C 595.609,106.407 597.442,109.073 599.5,111.5 Z"/></g>
<g><path style="opacity:1" fill="#3e1a0e" d="M 136.5,166.5 C 125.926,156.542 114.26,148.042 101.5,141C 95.0462,137.855 90.2129,139.355 87,145.5C 86.0237,155.285 86.6903,164.951 89,174.5C 93.389,190.936 98.0556,207.269 103,223.5C 105.013,235.012 107.179,246.345 109.5,257.5C 106.468,279.026 100.468,299.693 91.5,319.5C 90.3578,320.826 89.0245,321.826 87.5,322.5C 90.5492,310.933 91.0492,299.266 89,287.5C 86.7414,277.906 80.7414,272.572 71,271.5C 68.7794,271.393 66.9461,272.06 65.5,273.5C 59.8709,260.901 54.2042,248.234 48.5,235.5C 47.325,235.719 46.325,235.386 45.5,234.5C 44.1952,231.567 43.1952,228.567 42.5,225.5C 39.2206,224.969 37.8872,222.969 38.5,219.5C 35.2206,218.969 33.8872,216.969 34.5,213.5C 33.325,213.719 32.325,213.386 31.5,212.5C 28.868,206.91 26.5347,201.243 24.5,195.5C 23.325,195.719 22.325,195.386 21.5,194.5C 15.2322,180.3 10.3989,165.633 7,150.5C 6.33333,144.167 6.33333,137.833 7,131.5C 7.97649,127.258 9.47649,123.258 11.5,119.5C 17.6541,127.792 22.8207,136.792 27,146.5C 28.7328,148.602 30.7328,148.935 33,147.5C 38.9065,135.032 37.2399,123.699 28,113.5C 26.0198,111.101 23.8531,109.101 21.5,107.5C 23.6017,104.229 26.2683,101.395 29.5,99C 37.0034,93.4119 45.0034,88.5785 53.5,84.5C 58.2005,96.0359 66.2005,104.536 77.5,110C 83.831,110.338 86.9977,107.171 87,100.5C 88.0451,91.6385 89.2118,82.8052 90.5,74C 90.4961,71.6392 90.1627,69.4726 89.5,67.5C 93.5608,65.633 97.5608,63.4663 101.5,61C 123.464,52.7388 145.13,43.7388 166.5,34C 172.463,30.0096 178.963,27.1762 186,25.5C 190.331,26.3327 194.498,27.666 198.5,29.5C 201.5,32.5 204.5,35.5 207.5,38.5C 208.189,40.444 208.689,42.444 209,44.5C 209.925,45.0465 210.758,45.7132 211.5,46.5C 213.167,49.8333 214.833,53.1667 216.5,56.5C 212.37,62.7273 206.703,66.7273 199.5,68.5C 199.719,69.675 199.386,70.675 198.5,71.5C 191.5,78.5 184.5,85.5 177.5,92.5C 176.675,93.3857 175.675,93.719 174.5,93.5C 174.742,97.9166 172.742,100.583 168.5,101.5C 169.113,104.969 167.779,106.969 164.5,107.5C 163.805,110.567 162.805,113.567 161.5,116.5C 160.675,117.386 159.675,117.719 158.5,117.5C 150.855,133.782 143.522,150.116 136.5,166.5 Z"/></g>
<g><path style="opacity:1" fill="#3e1a0e" d="M 442.5,38.5 C 446.254,49.1805 451.921,58.6805 459.5,67C 464.008,71.2388 468.508,71.4055 473,67.5C 475.332,62.6684 477.166,57.6684 478.5,52.5C 501.989,62.9084 525.323,73.9084 548.5,85.5C 549.386,86.325 549.719,87.325 549.5,88.5C 552.567,89.1952 555.567,90.1952 558.5,91.5C 559.386,92.325 559.719,93.325 559.5,94.5C 562.969,93.8872 564.969,95.2206 565.5,98.5C 567.262,98.3573 568.929,98.6906 570.5,99.5C 575.5,104.5 580.5,109.5 585.5,114.5C 593.147,129.771 594.647,145.771 590,162.5C 585.696,174.259 581.03,185.925 576,197.5C 575.29,198.973 574.124,199.64 572.5,199.5C 571.395,204.644 569.395,209.31 566.5,213.5C 566.53,212.503 566.03,211.836 565,211.5C 541.552,220.969 519.719,233.136 499.5,248C 496.111,251.969 493.111,256.136 490.5,260.5C 482.241,222.775 470.908,186.109 456.5,150.5C 460.927,158.095 466.927,164.261 474.5,169C 480.338,169.863 484.171,167.363 486,161.5C 493.387,144.519 490.22,130.019 476.5,118C 469.128,111.209 460.461,108.209 450.5,109C 448.376,110.122 446.543,111.622 445,113.5C 444.52,118.267 445.02,122.933 446.5,127.5C 445.325,127.719 444.325,127.386 443.5,126.5C 441.532,122.24 439.866,117.907 438.5,113.5C 435.221,112.969 433.887,110.969 434.5,107.5C 431.221,106.969 429.887,104.969 430.5,101.5C 427.221,100.969 425.887,98.9694 426.5,95.5C 421.614,93.9465 418.947,90.6132 418.5,85.5C 413.119,82.2937 408.452,78.127 404.5,73C 400.26,69.852 395.593,67.352 390.5,65.5C 387.462,62.7974 384.795,59.7974 382.5,56.5C 384.167,53.1667 385.833,49.8333 387.5,46.5C 388.242,45.7132 389.075,45.0465 390,44.5C 390.311,42.444 390.811,40.444 391.5,38.5C 395.775,32.7119 401.275,28.7119 408,26.5C 411.174,25.2305 414.341,25.2305 417.5,26.5C 424.177,30.2804 431.177,33.2804 438.5,35.5C 439.386,36.325 439.719,37.325 439.5,38.5C 440.5,38.5 441.5,38.5 442.5,38.5 Z"/></g>
<g><path style="opacity:1" fill="#e8c5a8" d="M 376.5,36.5 C 352.922,55.0389 352.588,74.2056 375.5,94C 378.508,96.7541 382.008,98.5874 386,99.5C 387.812,99.5066 389.312,98.84 390.5,97.5C 392.315,91.6678 393.482,85.6678 394,79.5C 395.011,78.6634 396.178,78.33 397.5,78.5C 402.119,83.1186 406.785,87.7853 411.5,92.5C 413.348,96.363 416.015,99.6964 419.5,102.5C 422.595,109.146 426.595,115.146 431.5,120.5C 439.085,133.96 446.085,147.627 452.5,161.5C 452.657,162.873 452.49,164.207 452,165.5C 439.514,151.335 425.014,139.835 408.5,131C 397.711,126.793 392.378,130.46 392.5,142C 392.813,146.189 393.313,150.356 394,154.5C 399.224,177.063 405.224,199.396 412,221.5C 412.498,224.482 412.665,227.482 412.5,230.5C 397.696,221.01 383.029,221.176 368.5,231C 355.887,242.984 353.22,256.817 360.5,272.5C 350.143,285.971 349.977,299.638 360,313.5C 365.643,321.479 372.809,327.645 381.5,332C 386.12,333.538 389.287,332.038 391,327.5C 393.153,315.554 394.986,303.554 396.5,291.5C 410.306,288.361 419.306,280.027 423.5,266.5C 436.228,275.965 450.561,279.465 466.5,277C 472.665,276.068 478.665,274.568 484.5,272.5C 485.117,272.611 485.617,272.944 486,273.5C 486.378,277.842 487.211,282.008 488.5,286C 486.252,293.893 483.752,301.726 481,309.5C 480.316,312.38 480.483,315.213 481.5,318C 471.015,341.472 459.848,364.638 448,387.5C 436.596,412.45 428.596,438.45 424,465.5C 422.535,485.937 420.202,506.27 417,526.5C 414.842,539.81 410.175,552.143 403,563.5C 392.756,575.607 379.923,579.44 364.5,575C 356.125,572.71 348.125,569.543 340.5,565.5C 335.236,562.193 329.902,558.86 324.5,555.5C 319.316,551.74 313.65,548.74 307.5,546.5C 301.555,544.253 295.555,544.419 289.5,547C 279.438,552.356 269.771,558.19 260.5,564.5C 253.305,567.93 245.971,571.096 238.5,574C 214.316,581.158 197.816,572.991 189,549.5C 186.199,541.295 183.866,532.962 182,524.5C 179.274,502.846 176.607,481.18 174,459.5C 169.146,434.272 161.48,409.939 151,386.5C 140.473,366.779 130.473,346.779 121,326.5C 116.47,315.41 112.637,304.077 109.5,292.5C 114.886,265.671 121.553,239.338 129.5,213.5C 133.305,223.032 137.805,232.365 143,241.5C 146.833,248 152,253.167 158.5,257C 162.582,258.293 165.749,257.126 168,253.5C 172.635,243.991 174.302,233.991 173,223.5C 165.991,208.647 154.491,199.647 138.5,196.5C 135.073,198.6 133.74,197.6 134.5,193.5C 136.995,186.327 140.162,179.327 144,172.5C 144.025,168.087 145.191,164.087 147.5,160.5C 149.49,159.001 151.823,158.168 154.5,158C 155.333,157.167 156.167,156.333 157,155.5C 162.342,142.302 167.176,128.969 171.5,115.5C 174.389,110.264 177.723,105.264 181.5,100.5C 189.833,92.1667 198.167,83.8333 206.5,75.5C 212.178,72.6641 217.511,69.3308 222.5,65.5C 222.829,59.4632 222.496,53.4632 221.5,47.5C 219.917,45.01 218.917,42.3433 218.5,39.5C 217.448,39.6495 216.448,39.4828 215.5,39C 225.17,35.5306 235.17,33.1973 245.5,32C 289.452,26.2049 333.119,27.7049 376.5,36.5 Z"/></g>
<g><path style="opacity:1" fill="#ae917a" d="M 376.5,36.5 C 378.957,37.023 381.291,37.8563 383.5,39C 382.552,39.4828 381.552,39.6495 380.5,39.5C 380.083,42.3433 379.083,45.01 377.5,47.5C 376.504,53.4632 376.171,59.4632 376.5,65.5C 380.167,66.5 382.5,68.8333 383.5,72.5C 388.644,73.6053 393.31,75.6053 397.5,78.5C 396.178,78.33 395.011,78.6634 394,79.5C 393.482,85.6678 392.315,91.6678 390.5,97.5C 389.312,98.84 387.812,99.5066 386,99.5C 382.008,98.5874 378.508,96.7541 375.5,94C 352.588,74.2056 352.922,55.0389 376.5,36.5 Z"/></g>
<g><path style="opacity:1" fill="#ad8e79" d="M 442.5,38.5 C 450.787,42.1558 459.12,45.8225 467.5,49.5C 471.086,50.9195 474.753,51.9195 478.5,52.5C 477.166,57.6684 475.332,62.6684 473,67.5C 468.508,71.4055 464.008,71.2388 459.5,67C 451.921,58.6805 446.254,49.1805 442.5,38.5 Z"/></g>
<g><path style="opacity:1" fill="#ac8d78" d="M 494.5,63.5 C 496.308,63.4914 497.975,63.9914 499.5,65C 510.269,76.3633 518.102,89.53 523,104.5C 523.497,111.673 521.83,118.34 518,124.5C 514.801,128.659 512.135,128.325 510,123.5C 508.872,118.861 507.872,114.195 507,109.5C 502,98.8333 497,88.1667 492,77.5C 490.806,72.3686 491.639,67.7019 494.5,63.5 Z"/></g>
<g><path style="opacity:1" fill="#b0937b" d="M 254.5,66.5 C 261.109,67.2584 263.276,70.9251 261,77.5C 257.667,83.5 254.333,89.5 251,95.5C 248.368,98.1924 246.034,97.859 244,94.5C 242.186,86.3248 243.853,78.9915 249,72.5C 251.04,70.6298 252.873,68.6298 254.5,66.5 Z"/></g>
<g><path style="opacity:1" fill="#ac8d79" d="M 89.5,67.5 C 90.1627,69.4726 90.4961,71.6392 90.5,74C 89.2118,82.8052 88.0451,91.6385 87,100.5C 86.9977,107.171 83.831,110.338 77.5,110C 66.2005,104.536 58.2005,96.0359 53.5,84.5C 65.0323,77.9996 77.0323,72.3329 89.5,67.5 Z"/></g>
<g><path style="opacity:1" fill="#b0927b" d="M 305.5,79.5 C 310.003,80.1532 314.003,81.9866 317.5,85C 326.068,92.9976 333.568,101.831 340,111.5C 342.965,117.973 343.298,124.64 341,131.5C 340.118,137.903 337.451,138.903 333,134.5C 330.446,127.724 327.113,121.391 323,115.5C 317.094,108.683 311.427,101.683 306,94.5C 302.972,89.4865 302.806,84.4865 305.5,79.5 Z"/></g>
<g><path style="opacity:1" fill="#aa8c77" d="M 116.5,92.5 C 120.536,93.0201 123.703,95.0201 126,98.5C 129.841,103.518 132.008,109.184 132.5,115.5C 132.109,118.781 130.776,121.615 128.5,124C 126.633,124.711 125.133,124.211 124,122.5C 120.333,115.833 116.667,109.167 113,102.5C 112.333,100.5 112.333,98.5 113,96.5C 114.376,95.2949 115.542,93.9616 116.5,92.5 Z"/></g>
<g><path style="opacity:1" fill="#ab8c78" d="M 21.5,107.5 C 23.8531,109.101 26.0198,111.101 28,113.5C 37.2399,123.699 38.9065,135.032 33,147.5C 30.7328,148.935 28.7328,148.602 27,146.5C 22.8207,136.792 17.6541,127.792 11.5,119.5C 13.5623,117.714 14.8957,115.381 15.5,112.5C 17.2469,110.41 19.2469,108.743 21.5,107.5 Z"/></g>
<g><path style="opacity:1" fill="#ae8f7a" d="M 456.5,150.5 C 452.83,142.841 449.496,135.175 446.5,127.5C 445.02,122.933 444.52,118.267 445,113.5C 446.543,111.622 448.376,110.122 450.5,109C 460.461,108.209 469.128,111.209 476.5,118C 490.22,130.019 493.387,144.519 486,161.5C 484.171,167.363 480.338,169.863 474.5,169C 466.927,164.261 460.927,158.095 456.5,150.5 Z"/></g>
<g><path style="opacity:1" fill="#a88c76" d="M 171.5,115.5 C 167.176,128.969 162.342,142.302 157,155.5C 156.167,156.333 155.333,157.167 154.5,158C 151.823,158.168 149.49,159.001 147.5,160.5C 153.669,148.709 159.669,136.709 165.5,124.5C 167.875,121.621 169.875,118.621 171.5,115.5 Z"/></g>
<g><path style="opacity:1" fill="#ae927b" d="M 452.5,161.5 C 466.094,197.646 476.76,234.646 484.5,272.5C 478.665,274.568 472.665,276.068 466.5,277C 450.561,279.465 436.228,275.965 423.5,266.5C 427.235,252.079 423.569,240.079 412.5,230.5C 412.665,227.482 412.498,224.482 412,221.5C 405.224,199.396 399.224,177.063 394,154.5C 393.313,150.356 392.813,146.189 392.5,142C 392.378,130.46 397.711,126.793 408.5,131C 425.014,139.835 439.514,151.335 452,165.5C 452.49,164.207 452.657,162.873 452.5,161.5 Z"/></g>
<g><path style="opacity:1" fill="#ae8f7a" d="M 136.5,166.5 C 125.469,196.305 116.469,226.638 109.5,257.5C 107.179,246.345 105.013,235.012 103,223.5C 98.0556,207.269 93.389,190.936 89,174.5C 86.6903,164.951 86.0237,155.285 87,145.5C 90.2129,139.355 95.0462,137.855 101.5,141C 114.26,148.042 125.926,156.542 136.5,166.5 Z"/></g>
<g><path style="opacity:1" fill="#b0937b" d="M 177.5,152.5 C 179.527,152.338 181.527,152.505 183.5,153C 193.658,163.475 201.158,175.641 206,189.5C 207.687,198.92 205.52,207.42 199.5,215C 197.112,215.865 195.612,215.032 195,212.5C 193.804,206.049 192.137,199.716 190,193.5C 183.789,182.745 178.955,171.412 175.5,159.5C 175.886,157.068 176.553,154.734 177.5,152.5 Z"/></g>
<g><path style="opacity:1" fill="#401b0f" d="M 216.5,181.5 C 238.738,180.07 251.405,190.403 254.5,212.5C 254.195,220.971 249.861,224.471 241.5,223C 232.424,217.754 223.757,211.921 215.5,205.5C 209.759,199.155 208.592,192.155 212,184.5C 213.409,183.219 214.909,182.219 216.5,181.5 Z"/></g>
<g><path style="opacity:1" fill="#401b0f" d="M 369.5,181.5 C 374.93,181.161 380.264,181.661 385.5,183C 389.735,187.576 390.568,192.743 388,198.5C 386.561,201.603 384.727,204.436 382.5,207C 375.993,211.086 369.66,215.42 363.5,220C 359.46,222.427 355.127,223.427 350.5,223C 346.732,220.808 344.732,217.474 344.5,213C 345.857,196.711 354.19,186.211 369.5,181.5 Z"/></g>
<g><path style="opacity:1" fill="#af927b" d="M 134.5,193.5 C 133.74,197.6 135.073,198.6 138.5,196.5C 154.491,199.647 165.991,208.647 173,223.5C 174.302,233.991 172.635,243.991 168,253.5C 165.749,257.126 162.582,258.293 158.5,257C 152,253.167 146.833,248 143,241.5C 137.805,232.365 133.305,223.032 129.5,213.5C 131.423,206.881 133.09,200.215 134.5,193.5 Z"/></g>
<g><path style="opacity:1" fill="#ae8f7a" d="M 566.5,213.5 C 565.036,215.63 563.036,216.963 560.5,217.5C 561.113,220.969 559.779,222.969 556.5,223.5C 555.805,226.567 554.805,229.567 553.5,232.5C 552.675,233.386 551.675,233.719 550.5,233.5C 549.577,236.777 548.744,240.11 548,243.5C 547.29,244.973 546.124,245.64 544.5,245.5C 541.412,252.685 538.579,260.018 536,267.5C 535.29,268.973 534.124,269.64 532.5,269.5C 528.868,281.728 524.868,293.728 520.5,305.5C 512.519,304.505 505.185,301.838 498.5,297.5C 495.732,285.237 493.065,272.904 490.5,260.5C 493.111,256.136 496.111,251.969 499.5,248C 519.719,233.136 541.552,220.969 565,211.5C 566.03,211.836 566.53,212.503 566.5,213.5 Z"/></g>
<g><path style="opacity:1" fill="#a5d5e5" d="M 200.5,221.5 C 221.762,219.366 235.596,228.366 242,248.5C 242.9,277.129 229.066,290.629 200.5,289C 180.929,282.033 172.429,268.2 175,247.5C 179.017,234.318 187.517,225.651 200.5,221.5 Z"/></g>
<g><path style="opacity:1" fill="#a4d4e4" d="M 412.5,230.5 C 423.569,240.079 427.235,252.079 423.5,266.5C 419.306,280.027 410.306,288.361 396.5,291.5C 380.558,292.53 368.558,286.197 360.5,272.5C 353.22,256.817 355.887,242.984 368.5,231C 383.029,221.176 397.696,221.01 412.5,230.5 Z"/></g>
<g><path style="opacity:1" fill="#020404" d="M 201.5,230.5 C 223.04,229.211 233.54,239.211 233,260.5C 228.348,275.466 218.181,281.966 202.5,280C 184.102,272.616 178.935,259.783 187,241.5C 190.857,236.468 195.69,232.801 201.5,230.5 Z"/></g>
<g><path style="opacity:1" fill="#030404" d="M 389.5,231.5 C 405.484,232.651 414.484,241.151 416.5,257C 413.466,276.694 402.133,284.694 382.5,281C 369.567,274.974 364.067,264.807 366,250.5C 370.213,239.433 378.046,233.1 389.5,231.5 Z"/></g>
<g><path style="opacity:1" fill="#f5f5f5" d="M 213.5,240.5 C 223.21,239.046 227.377,243.046 226,252.5C 220.667,259.167 215.333,259.167 210,252.5C 208.745,247.738 209.912,243.738 213.5,240.5 Z"/></g>
<g><path style="opacity:1" fill="#f4f4f4" d="M 396.5,240.5 C 406.158,238.993 410.325,242.993 409,252.5C 406.413,257.068 402.579,258.568 397.5,257C 392.845,254.103 391.345,249.937 393,244.5C 394.376,243.295 395.542,241.962 396.5,240.5 Z"/></g>
<g><path style="opacity:1" fill="#ab8d78" d="M 87.5,322.5 C 86.9232,323.773 86.2565,323.773 85.5,322.5C 84.6906,320.929 84.3573,319.262 84.5,317.5C 82.8762,317.64 81.7096,316.973 81,315.5C 77.6575,301.839 73.4908,288.506 68.5,275.5C 66.8212,275.715 65.8212,275.048 65.5,273.5C 66.9461,272.06 68.7794,271.393 71,271.5C 80.7414,272.572 86.7414,277.906 89,287.5C 91.0492,299.266 90.5492,310.933 87.5,322.5 Z"/></g>
<g><path style="opacity:1" fill="#af927b" d="M 360.5,272.5 C 368.558,286.197 380.558,292.53 396.5,291.5C 394.986,303.554 393.153,315.554 391,327.5C 389.287,332.038 386.12,333.538 381.5,332C 372.809,327.645 365.643,321.479 360,313.5C 349.977,299.638 350.143,285.971 360.5,272.5 Z"/></g>
<g><path style="opacity:1" fill="#af927b" d="M 263.5,294.5 C 277.614,291.433 282.114,296.433 277,309.5C 267.331,326.845 256.665,343.512 245,359.5C 240.842,368.485 236.175,377.152 231,385.5C 225.794,391.291 219.294,394.291 211.5,394.5C 200.244,393.692 189.91,390.192 180.5,384C 173.981,379.295 171.314,372.961 172.5,365C 172.444,350.444 178.444,339.111 190.5,331C 213.263,315.619 237.596,303.452 263.5,294.5 Z"/></g>
<g><path style="opacity:1" fill="#3e1a0e" d="M 498.5,297.5 C 505.185,301.838 512.519,304.505 520.5,305.5C 519.987,309.553 519.154,313.553 518,317.5C 515.355,325.693 511.688,326.359 507,319.5C 503.277,312.496 500.444,305.163 498.5,297.5 Z"/></g>
<g><path style="opacity:1" fill="#b0927b" d="M 417.5,303.5 C 423.287,304.394 428.287,306.894 432.5,311C 440.472,318.633 447.305,327.133 453,336.5C 455.499,345.008 454.666,353.175 450.5,361C 448.633,361.711 447.133,361.211 446,359.5C 442.907,352.977 439.573,346.644 436,340.5C 430.333,333.5 424.667,326.5 419,319.5C 415.182,314.328 414.682,308.995 417.5,303.5 Z"/></g>
<g><path style="opacity:1" fill="#b0937b" d="M 142.5,315.5 C 149.104,316.334 151.271,320.001 149,326.5C 145.599,331.577 142.599,336.911 140,342.5C 137.865,347.325 135.199,347.659 132,343.5C 130.092,332.049 133.592,322.716 142.5,315.5 Z"/></g>
<g><path style="opacity:1" fill="#b0937c" d="M 406.5,373.5 C 410.683,372.846 413.516,374.512 415,378.5C 415.667,383.167 415.667,387.833 415,392.5C 412.977,397.503 410.31,397.836 407,393.5C 403.599,388.641 402.266,383.308 403,377.5C 404.376,376.295 405.542,374.962 406.5,373.5 Z"/></g>
<g><path style="opacity:1" fill="#b2957d" d="M 158.5,398.5 C 162.17,398.327 164.67,399.993 166,403.5C 167.606,407.45 167.773,411.45 166.5,415.5C 163.565,409.963 160.898,404.296 158.5,398.5 Z"/></g>
<g><path style="opacity:1" fill="#030303" d="M 283.5,450.5 C 295.876,450.157 308.209,450.657 320.5,452C 344.211,455.687 353.711,469.187 349,492.5C 341.556,506.934 330.056,516.767 314.5,522C 290.042,527.179 269.875,520.013 254,500.5C 243.277,479.521 248.444,464.021 269.5,454C 274.368,453.116 279.034,451.95 283.5,450.5 Z"/></g>
<g><path style="opacity:1" fill="#302825" d="M 307.5,546.5 C 310.819,549.258 314.486,551.758 318.5,554C 320.345,555.128 322.345,555.628 324.5,555.5C 329.902,558.86 335.236,562.193 340.5,565.5C 325.838,565.936 311.171,566.269 296.5,566.5C 284.427,566.705 272.427,566.038 260.5,564.5C 269.771,558.19 279.438,552.356 289.5,547C 295.555,544.419 301.555,544.253 307.5,546.5 Z"/></g>
<g><path style="opacity:1" fill="#5a4b43" d="M 307.5,546.5 C 313.65,548.74 319.316,551.74 324.5,555.5C 322.345,555.628 320.345,555.128 318.5,554C 314.486,551.758 310.819,549.258 307.5,546.5 Z"/></g>
</svg>
