<?xml version="1.0" encoding="UTF-8"?>
<!DOCTYPE svg PUBLIC "-//W3C//DTD SVG 1.1//EN" "http://www.w3.org/Graphics/SVG/1.1/DTD/svg11.dtd">
<svg xmlns="http://www.w3.org/2000/svg" version="1.1" width="600px" height="600px" style="shape-rendering:geometricPrecision; text-rendering:geometricPrecision; image-rendering:optimizeQuality; fill-rule:evenodd; clip-rule:evenodd" xmlns:xlink="http://www.w3.org/1999/xlink">
<g><path style="opacity:0.958" fill="#020101" d="M -0.5,222.5 C -0.5,216.167 -0.5,209.833 -0.5,203.5C 3.61407,191.468 10.6141,181.302 20.5,173C 55.0066,146.885 93.0066,127.219 134.5,114C 147.318,111.657 159.985,112.324 172.5,116C 181.584,119.08 190.25,123.08 198.5,128C 200.581,128.869 202.747,129.369 205,129.5C 219.966,125.983 235.132,123.983 250.5,123.5C 266.344,124.668 282.178,126.001 298,127.5C 314.473,125.836 330.973,124.502 347.5,123.5C 362.995,123.57 377.995,126.236 392.5,131.5C 424.721,108.619 458.388,106.452 493.5,125C 523.231,138.114 550.898,154.447 576.5,174C 588.506,184.677 595.506,198.011 597.5,214C 597.409,226.464 591.743,230.464 580.5,226C 574.167,219.667 567.833,213.333 561.5,207C 535.165,209.503 511.831,219.17 491.5,236C 488.782,237.072 486.115,238.238 483.5,239.5C 484.116,242.11 484.449,244.777 484.5,247.5C 483.413,260.525 482.08,273.525 480.5,286.5C 483.106,301.806 485.606,317.139 488,332.5C 492.971,384.956 480.304,432.622 450,475.5C 444.366,482.136 438.366,488.469 432,494.5C 433.176,509.661 426.676,519.827 412.5,525C 396.432,529.072 381.265,526.905 367,518.5C 353.938,521.745 340.772,522.245 327.5,520C 317.536,517.27 307.703,514.103 298,510.5C 286.713,514.728 275.213,518.228 263.5,521C 252.079,522.245 240.912,521.079 230,517.5C 212.097,528.966 193.597,530.133 174.5,521C 165.696,514.252 162.196,505.419 164,494.5C 146.851,478.665 133.518,459.998 124,438.5C 104.531,392.351 101.198,345.018 114,296.5C 114.167,293 114.333,289.5 114.5,286C 112.632,270.221 111.632,254.388 111.5,238.5C 108.309,237.908 105.309,236.741 102.5,235C 82.7434,218.636 60.0768,209.302 34.5,207C 27.8028,214.032 20.8028,220.698 13.5,227C 7.51748,229.394 2.85081,227.894 -0.5,222.5 Z"/></g>
<g><path style="opacity:1" fill="#2c2b2a" d="M 557.5,196.5 C 537.31,174.543 513.31,157.71 485.5,146C 475.857,141.757 465.857,138.757 455.5,137C 440.79,134.05 427.957,137.55 417,147.5C 416.333,148.167 416.333,148.833 417,149.5C 447.409,168.7 467.909,195.367 478.5,229.5C 476.909,230.219 475.409,231.219 474,232.5C 473.855,250.24 472.689,267.907 470.5,285.5C 472.674,302.872 475.174,320.205 478,337.5C 481.72,385.632 469.72,429.298 442,468.5C 438.034,473.467 433.701,478.134 429,482.5C 425.134,472.986 421.801,463.319 419,453.5C 416.664,440.499 414.331,427.499 412,414.5C 409.451,406.704 407.451,398.704 406,390.5C 403.583,383.088 400.916,375.755 398,368.5C 378.27,326.194 345.103,306.861 298.5,310.5C 264.558,307.012 236.058,317.679 213,342.5C 210.333,346.5 207.667,350.5 205,354.5C 202.044,361.377 198.711,368.044 195,374.5C 191.566,385.883 188.233,397.216 185,408.5C 181.644,433.462 175.978,457.795 168,481.5C 167.282,482.451 166.449,482.617 165.5,482C 138.762,452.342 122.929,417.509 118,377.5C 117.333,363.833 117.333,350.167 118,336.5C 120.501,319.33 123.001,302.163 125.5,285C 123.731,272.052 122.398,259.052 121.5,246C 122.209,241.503 122.376,237.003 122,232.5C 120.591,231.219 119.091,230.219 117.5,229.5C 127.025,198.17 145.192,172.837 172,153.5C 175.428,146.239 173.261,141.406 165.5,139C 156.658,136.574 147.658,135.907 138.5,137C 102.216,146.636 70.5489,164.303 43.5,190C 41.2101,191.777 39.5434,193.944 38.5,196.5C 35.4543,195.115 32.4543,195.281 29.5,197C 22.6667,203.833 15.8333,210.667 9,217.5C 9.42586,205.306 13.7592,194.639 22,185.5C 54.0571,159.879 89.5571,140.046 128.5,126C 151.465,119.736 172.798,123.403 192.5,137C 196.307,138.769 200.307,139.602 204.5,139.5C 214.178,138.064 223.845,136.564 233.5,135C 243.5,134.333 253.5,134.333 263.5,135C 274.3,136.305 285.133,137.138 296,137.5C 312.308,136.139 328.641,135.139 345,134.5C 361.275,133.742 376.942,136.408 392,142.5C 393.811,141.922 395.645,141.422 397.5,141C 415.298,126.403 435.631,120.736 458.5,124C 498.603,136.715 535.269,155.715 568.5,181C 579.815,190.265 585.648,202.099 586,216.5C 578.53,210.032 571.364,203.198 564.5,196C 562.071,195.297 559.738,195.463 557.5,196.5 Z"/></g>
<g><path style="opacity:1" fill="#ba949f" d="M 117.5,229.5 C 114.689,229.174 112.022,228.341 109.5,227C 88.7193,210.343 65.0526,200.177 38.5,196.5C 39.5434,193.944 41.2101,191.777 43.5,190C 70.5489,164.303 102.216,146.636 138.5,137C 147.658,135.907 156.658,136.574 165.5,139C 173.261,141.406 175.428,146.239 172,153.5C 145.192,172.837 127.025,198.17 117.5,229.5 Z"/></g>
<g><path style="opacity:1" fill="#ba949f" d="M 557.5,196.5 C 531.452,200.028 508.119,209.861 487.5,226C 484.511,227.273 481.511,228.439 478.5,229.5C 467.909,195.367 447.409,168.7 417,149.5C 416.333,148.833 416.333,148.167 417,147.5C 427.957,137.55 440.79,134.05 455.5,137C 465.857,138.757 475.857,141.757 485.5,146C 513.31,157.71 537.31,174.543 557.5,196.5 Z"/></g>
<g><path style="opacity:1" fill="#434241" d="M 280.5,151.5 C 286.385,152.209 291.218,154.876 295,159.5C 303.038,171.946 307.705,185.613 309,200.5C 309.861,221.857 309.528,243.19 308,264.5C 302.86,269.107 299.36,268.107 297.5,261.5C 300.245,237.812 300.078,214.146 297,190.5C 295.341,179.841 291.174,170.341 284.5,162C 279.916,160.778 277.75,157.944 278,153.5C 278.995,152.934 279.828,152.267 280.5,151.5 Z"/></g>
<g><path style="opacity:1" fill="#434241" d="M 273.5,186.5 C 276.365,186.055 278.865,186.722 281,188.5C 285.145,200.489 286.478,212.823 285,225.5C 284.409,232.565 283.409,239.565 282,246.5C 276.784,251.069 273.618,249.902 272.5,243C 275.454,225.576 275.12,208.243 271.5,191C 271.519,189.167 272.185,187.667 273.5,186.5 Z"/></g>
<g><path style="opacity:1" fill="#010202" d="M 216.5,243.5 C 233.853,241.761 244.353,249.428 248,266.5C 249.845,293.32 237.345,305.153 210.5,302C 191.338,298.848 182.838,287.682 185,268.5C 191.698,255.251 202.198,246.917 216.5,243.5 Z"/></g>
<g><path style="opacity:1" fill="#010202" d="M 365.5,243.5 C 386.512,242.248 401.679,250.915 411,269.5C 413.054,284.757 406.887,294.924 392.5,300C 383.225,302.747 373.892,303.08 364.5,301C 355.002,297.839 349.502,291.339 348,281.5C 344.986,264.538 350.82,251.871 365.5,243.5 Z"/></g>
<g><path style="opacity:1" fill="#f4f4f4" d="M 221.5,256.5 C 231.855,256.038 234.855,260.538 230.5,270C 221.406,273.235 217.239,270.068 218,260.5C 219.376,259.295 220.542,257.962 221.5,256.5 Z"/></g>
<g><path style="opacity:1" fill="#efefef" d="M 382.5,257.5 C 388.133,257.961 390.633,260.961 390,266.5C 386.728,271.403 383.061,271.737 379,267.5C 377.581,263.082 378.748,259.749 382.5,257.5 Z"/></g>
<g><path style="opacity:1" fill="#4b4848" d="M 249.5,489.5 C 243.12,495.132 236.786,501.132 230.5,507.5C 229.614,508.325 229.281,509.325 229.5,510.5C 213.301,522.777 195.968,524.61 177.5,516C 169.806,509.394 167.639,501.227 171,491.5C 173.333,484.833 175.667,478.167 178,471.5C 183.916,443.969 190.249,416.635 197,389.5C 204.067,365.861 217.234,346.361 236.5,331C 255.316,318.723 275.983,313.557 298.5,315.5C 334.415,313.616 362.581,327.283 383,356.5C 390.195,368.065 395.862,380.398 400,393.5C 406.172,420.854 412.339,448.187 418.5,475.5C 421.607,482.58 424.107,489.913 426,497.5C 425.806,512.033 418.306,519.866 403.5,521C 380.17,522.087 362.67,512.587 351,492.5C 339.858,481.691 329.025,470.524 318.5,459C 307.394,448.116 295.394,446.783 282.5,455C 269.799,464.927 258.799,476.427 249.5,489.5 Z"/></g>
<g><path style="opacity:1" fill="#010202" d="M 284.5,332.5 C 296.286,331.937 307.953,332.771 319.5,335C 340.741,341.647 348.241,355.813 342,377.5C 335.904,399.929 321.237,411.595 298,412.5C 278.905,412.797 265.238,404.464 257,387.5C 244.583,357.663 253.75,339.329 284.5,332.5 Z"/></g>
<g><path style="opacity:1" fill="#3a3835" d="M 297.5,454.5 C 301.845,456.007 305.845,458.173 309.5,461C 325.182,476.818 340.182,493.151 354.5,510C 346.167,510.667 337.833,510.667 329.5,510C 321.173,507.013 312.84,504.013 304.5,501C 297.679,500.124 291.012,500.791 284.5,503C 271.133,510.285 256.8,512.452 241.5,509.5C 250.094,500.811 258.261,491.811 266,482.5C 274.261,470.392 284.761,461.059 297.5,454.5 Z"/></g>
<g><path style="opacity:1" fill="#242222" d="M 249.5,489.5 C 248.91,490.766 248.41,492.099 248,493.5C 242.237,499.769 236.071,505.436 229.5,510.5C 229.281,509.325 229.614,508.325 230.5,507.5C 236.786,501.132 243.12,495.132 249.5,489.5 Z"/></g>
</svg>
