<?xml version="1.0" encoding="UTF-8"?>
<!DOCTYPE svg PUBLIC "-//W3C//DTD SVG 1.1//EN" "http://www.w3.org/Graphics/SVG/1.1/DTD/svg11.dtd">
<svg xmlns="http://www.w3.org/2000/svg" version="1.1" width="600px" height="600px" style="shape-rendering:geometricPrecision; text-rendering:geometricPrecision; image-rendering:optimizeQuality; fill-rule:evenodd; clip-rule:evenodd" xmlns:xlink="http://www.w3.org/1999/xlink">
<g><path style="opacity:0.968" fill="#030202" d="M 599.5,456.5 C 599.5,481.5 599.5,506.5 599.5,531.5C 594.874,545.22 586.874,556.72 575.5,566C 537.833,596.281 495.833,603.947 449.5,589C 431.073,584.207 415.573,574.707 403,560.5C 392.306,541.541 390.64,521.874 398,501.5C 385.944,508.952 373.111,510.452 359.5,506C 354.231,504.363 349.231,502.197 344.5,499.5C 314.833,506.167 285.166,506.167 255.5,499.5C 250.505,501.664 245.505,503.83 240.5,506C 225.923,510.664 212.256,508.831 199.5,500.5C 210.966,547.396 193.3,576.896 146.5,589C 96.2172,604.548 52.0506,594.382 14,558.5C 8.39745,551.615 3.56411,544.282 -0.5,536.5C -0.5,507.833 -0.5,479.167 -0.5,450.5C 3.42676,441.313 7.92676,432.313 13,423.5C 23.9417,407.957 35.6084,392.957 48,378.5C 57.9746,355.581 66.9746,332.248 75,308.5C 81.2341,276.663 88.2341,244.996 96,213.5C 103,190.5 110,167.5 117,144.5C 130.017,114.788 146.35,87.1216 166,61.5C 192.037,32.395 224.537,15.2283 263.5,10C 309.421,2.41657 353.088,9.08324 394.5,30C 411.831,40.6598 426.664,54.1598 439,70.5C 449.251,86.6664 459.251,103 469,119.5C 473.275,128.382 477.275,137.382 481,146.5C 487.69,169.925 494.69,193.258 502,216.5C 509.474,248.061 516.474,279.728 523,311.5C 530.667,332.167 538.333,352.833 546,373.5C 559.718,390.883 573.051,408.55 586,426.5C 591.585,436.118 596.085,446.118 599.5,456.5 Z"/></g>
<g><path style="opacity:1" fill="#4b4848" d="M 433.5,82.5 C 446.982,107.118 455.149,133.451 458,161.5C 460.829,193.391 459.162,225.058 453,256.5C 448.587,277.822 443.087,298.822 436.5,319.5C 433.366,328.234 430.033,336.901 426.5,345.5C 425.69,326.263 420.524,308.263 411,291.5C 398.794,270.76 383.961,252.094 366.5,235.5C 385.268,239.251 400.768,233.585 413,218.5C 424.99,195.948 421.157,176.781 401.5,161C 379.471,149.751 360.638,153.585 345,172.5C 339.092,182.008 336.925,192.342 338.5,203.5C 328.847,193.163 324.513,180.829 325.5,166.5C 325.62,157.811 326.12,149.144 327,140.5C 329.228,126.134 331.561,111.801 334,97.5C 334.667,85.5 334.667,73.5 334,61.5C 330.717,41.5826 318.883,32.2493 298.5,33.5C 281.232,32.9501 270.399,40.9501 266,57.5C 264.464,67.7821 264.13,78.1155 265,88.5C 266.586,105.601 268.919,122.601 272,139.5C 272.878,149.664 273.711,159.83 274.5,170C 273.634,183.109 268.968,194.609 260.5,204.5C 262.996,183.66 254.996,168.16 236.5,158C 212.314,150.013 194.147,157.179 182,179.5C 174.297,205.927 183.13,224.427 208.5,235C 215.947,237.085 223.28,236.919 230.5,234.5C 231.107,234.624 231.44,234.957 231.5,235.5C 205.978,258.205 187.145,285.539 175,317.5C 173.785,323.845 172.618,330.178 171.5,336.5C 153.781,294.293 142.614,250.293 138,204.5C 134.706,161.568 143.206,121.235 163.5,83.5C 186.271,48.9647 218.271,28.1314 259.5,21C 295.382,15.3278 330.715,17.6611 365.5,28C 394.301,38.647 416.968,56.8137 433.5,82.5 Z"/></g>
<g><path style="opacity:1" fill="#f4f4f4" d="M 316.5,143.5 C 315.047,150.109 314.381,156.942 314.5,164C 314.501,168.347 314.834,172.514 315.5,176.5C 316.469,187.909 320.302,198.242 327,207.5C 331.428,213.351 336.094,219.017 341,224.5C 361.57,243.724 379.904,264.724 396,287.5C 413.129,314.289 420.296,343.622 417.5,375.5C 417.444,382.533 417.111,389.533 416.5,396.5C 401.368,381.869 386.368,367.035 371.5,352C 370.906,351.536 370.239,351.369 369.5,351.5C 367.109,330.258 355.443,316.758 334.5,311C 312.488,306.435 290.488,306.435 268.5,311C 236.949,320.932 226.116,341.765 236,373.5C 247.15,392.796 263.316,405.463 284.5,411.5C 312.632,440.132 340.965,468.632 369.5,497C 369.272,497.399 368.938,497.565 368.5,497.5C 362.808,496.769 357.475,494.936 352.5,492C 340.776,483.277 328.776,474.944 316.5,467C 302.926,460.294 289.926,461.294 277.5,470C 265.713,479.116 253.38,487.45 240.5,495C 215.041,502.687 198.208,493.853 190,468.5C 188.6,461.531 187.433,454.531 186.5,447.5C 186.23,442.972 185.563,438.639 184.5,434.5C 184.5,432.5 184.5,430.5 184.5,428.5C 184.153,423.32 183.487,418.32 182.5,413.5C 180.773,390.862 180.273,368.196 181,345.5C 182.487,324.372 189.154,305.039 201,287.5C 205.333,281.5 209.667,275.5 214,269.5C 229.938,251.56 246.605,234.226 264,217.5C 281.337,198.512 288.003,176.179 284,150.5C 280.439,128.906 277.439,107.239 275,85.5C 273.94,76.0262 274.607,66.6928 277,57.5C 281.328,47.9112 288.828,43.2445 299.5,43.5C 313.646,43.477 321.813,50.477 324,64.5C 324.667,72.1667 324.667,79.8333 324,87.5C 322.042,106.247 319.542,124.914 316.5,143.5 Z"/></g>
<g><path style="opacity:1" fill="#3d3938" d="M 433.5,82.5 C 449.489,104.8 462.656,128.8 473,154.5C 479.353,177.241 486.019,199.908 493,222.5C 499.669,253.182 506.336,283.848 513,314.5C 520.467,335.233 528.133,355.899 536,376.5C 544.516,390.02 554.183,402.687 565,414.5C 573.258,425.338 580.258,437.005 586,449.5C 589.098,457.224 590.931,465.224 591.5,473.5C 539.833,422.167 488.167,370.833 436.5,319.5C 443.087,298.822 448.587,277.822 453,256.5C 459.162,225.058 460.829,193.391 458,161.5C 455.149,133.451 446.982,107.118 433.5,82.5 Z"/></g>
<g><path style="opacity:1" fill="#3d3938" d="M 163.5,83.5 C 143.206,121.235 134.706,161.568 138,204.5C 142.614,250.293 153.781,294.293 171.5,336.5C 168.955,380.103 171.455,423.437 179,466.5C 180.542,472.338 182.542,478.005 185,483.5C 187.821,498.783 190.321,514.116 192.5,529.5C 190.874,550.629 180.207,565.129 160.5,573C 132.391,585.044 103.391,588.044 73.5,582C 52.5935,576.134 34.7602,565.301 20,549.5C 10.7466,537.862 5.74662,524.528 5,509.5C 0.92589,479.812 6.92589,452.478 23,427.5C 32.2381,414.258 42.2381,401.592 53,389.5C 56.7546,384.997 59.7546,379.997 62,374.5C 70.0636,353.642 77.7303,332.642 85,311.5C 91.1278,283.195 97.1278,254.861 103,226.5C 110.834,202.009 118.167,177.342 125,152.5C 134.793,127.606 147.626,104.606 163.5,83.5 Z"/></g>
<g><path style="opacity:1" fill="#3d3938" d="M 260.5,204.5 C 251.2,215.135 241.533,225.468 231.5,235.5C 231.44,234.957 231.107,234.624 230.5,234.5C 223.28,236.919 215.947,237.085 208.5,235C 183.13,224.427 174.297,205.927 182,179.5C 194.147,157.179 212.314,150.013 236.5,158C 254.996,168.16 262.996,183.66 260.5,204.5 Z"/></g>
<g><path style="opacity:1" fill="#3d3938" d="M 366.5,235.5 C 356.801,225.135 347.467,214.469 338.5,203.5C 336.925,192.342 339.092,182.008 345,172.5C 360.638,153.585 379.471,149.751 401.5,161C 421.157,176.781 424.99,195.948 413,218.5C 400.768,233.585 385.268,239.251 366.5,235.5 Z"/></g>
<g><path style="opacity:1" fill="#3e3c3c" d="M 316.5,143.5 C 315.751,154.484 315.417,165.484 315.5,176.5C 314.834,172.514 314.501,168.347 314.5,164C 314.381,156.942 315.047,150.109 316.5,143.5 Z"/></g>
<g><path style="opacity:1" fill="#302826" d="M 212.5,167.5 C 229.053,165.353 240.22,172.02 246,187.5C 248.47,212.36 237.304,224.194 212.5,223C 202.262,219.761 195.762,212.928 193,202.5C 190.182,185.457 196.682,173.791 212.5,167.5 Z"/></g>
<g><path style="opacity:1" fill="#302826" d="M 372.5,167.5 C 396.311,166.477 407.478,177.81 406,201.5C 400.965,218.106 389.799,225.273 372.5,223C 357.138,217.118 350.305,205.951 352,189.5C 354.619,178.053 361.452,170.72 372.5,167.5 Z"/></g>
<g><path style="opacity:1" fill="#f3f3f3" d="M 383.5,178.5 C 392.06,177.877 395.227,181.544 393,189.5C 388.162,195.036 383.829,194.703 380,188.5C 378.756,184.191 379.923,180.858 383.5,178.5 Z"/></g>
<g><path style="opacity:1" fill="#f3f3f3" d="M 224.5,179.5 C 233.515,179.623 235.848,183.623 231.5,191.5C 225.752,194.039 222.085,192.372 220.5,186.5C 221.071,183.687 222.404,181.354 224.5,179.5 Z"/></g>
<g><path style="opacity:1" fill="#040404" d="M 369.5,351.5 C 369.503,363.656 366.003,374.656 359,384.5C 338.921,406.913 314.087,415.913 284.5,411.5C 263.316,405.463 247.15,392.796 236,373.5C 226.116,341.765 236.949,320.932 268.5,311C 290.488,306.435 312.488,306.435 334.5,311C 355.443,316.758 367.109,330.258 369.5,351.5 Z"/></g>
<g><path style="opacity:1" fill="#302826" d="M 327.5,319.5 C 332.724,321.361 338.391,323.861 344.5,327C 357.843,336.875 362.009,349.709 357,365.5C 350.068,381.096 338.568,391.93 322.5,398C 294.344,406.618 270.51,399.785 251,377.5C 238.689,360.273 239.855,344.106 254.5,329C 258.559,326.879 261.892,324.713 264.5,322.5C 272.699,319.072 281.366,317.239 290.5,317C 303.1,316.018 315.434,316.851 327.5,319.5 Z"/></g>
<g><path style="opacity:1" fill="#363332" d="M 436.5,319.5 C 488.167,370.833 539.833,422.167 591.5,473.5C 592.585,485.807 592.752,498.141 592,510.5C 590.698,532.276 581.198,549.443 563.5,562C 539.895,579.905 513.228,587.572 483.5,585C 461.588,582.918 441.255,576.251 422.5,565C 410.911,555.823 404.911,543.823 404.5,529C 406.573,514.773 409.073,500.606 412,486.5C 415.775,480.498 418.775,474.164 421,467.5C 426.295,426.947 428.128,386.28 426.5,345.5C 430.033,336.901 433.366,328.234 436.5,319.5 Z"/></g>
<g><path style="opacity:1" fill="#525151" d="M 327.5,319.5 C 352.522,323.902 363.022,338.569 359,363.5C 352.059,381.772 339.225,393.939 320.5,400C 292.61,407.483 269.11,400.317 250,378.5C 239.972,364.467 238.972,349.8 247,334.5C 251.415,328.38 257.249,324.38 264.5,322.5C 261.892,324.713 258.559,326.879 254.5,329C 239.855,344.106 238.689,360.273 251,377.5C 270.51,399.785 294.344,406.618 322.5,398C 338.568,391.93 350.068,381.096 357,365.5C 362.009,349.709 357.843,336.875 344.5,327C 338.391,323.861 332.724,321.361 327.5,319.5 Z"/></g>
<g><path style="opacity:1" fill="#dadada" d="M 369.5,351.5 C 370.239,351.369 370.906,351.536 371.5,352C 386.368,367.035 401.368,381.869 416.5,396.5C 416.046,421.378 413.546,446.044 409,470.5C 402.164,489.974 388.664,498.974 368.5,497.5C 368.938,497.565 369.272,497.399 369.5,497C 340.965,468.632 312.632,440.132 284.5,411.5C 314.087,415.913 338.921,406.913 359,384.5C 366.003,374.656 369.503,363.656 369.5,351.5 Z"/></g>
<g><path style="opacity:1" fill="#444343" d="M 182.5,413.5 C 183.487,418.32 184.153,423.32 184.5,428.5C 182.762,423.783 182.096,418.783 182.5,413.5 Z"/></g>
<g><path style="opacity:1" fill="#3b3a3a" d="M 184.5,434.5 C 185.563,438.639 186.23,442.972 186.5,447.5C 185.778,447.082 185.278,446.416 185,445.5C 184.501,441.848 184.335,438.182 184.5,434.5 Z"/></g>
<g><path style="opacity:1" fill="#2f2725" d="M 323.5,484.5 C 307.824,485.637 292.157,485.637 276.5,484.5C 282.772,478.28 290.272,474.28 299,472.5C 308.366,474.267 316.533,478.267 323.5,484.5 Z"/></g>
<g><path style="opacity:1" fill="#4a4747" d="M 276.5,484.5 C 292.157,485.637 307.824,485.637 323.5,484.5C 326.582,486.075 329.249,488.242 331.5,491C 310.142,495.428 288.809,495.428 267.5,491C 270.206,488.324 273.206,486.158 276.5,484.5 Z"/></g>
</svg>
