<?xml version="1.0" encoding="UTF-8"?>
<!DOCTYPE svg PUBLIC "-//W3C//DTD SVG 1.1//EN" "http://www.w3.org/Graphics/SVG/1.1/DTD/svg11.dtd">
<svg xmlns="http://www.w3.org/2000/svg" version="1.1" width="600px" height="600px" style="shape-rendering:geometricPrecision; text-rendering:geometricPrecision; image-rendering:optimizeQuality; fill-rule:evenodd; clip-rule:evenodd" xmlns:xlink="http://www.w3.org/1999/xlink">
<g><path style="opacity:0.952" fill="#010000" d="M 599.5,389.5 C 599.5,401.5 599.5,413.5 599.5,425.5C 598.144,428.577 597.311,431.91 597,435.5C 596.667,443.833 596.333,452.167 596,460.5C 596.153,469.892 593.82,478.559 589,486.5C 585.484,488.926 582.151,491.593 579,494.5C 572.586,506.329 565.92,517.996 559,529.5C 556.108,532.057 552.941,534.224 549.5,536C 530.929,540.857 512.596,546.523 494.5,553C 486.669,555.528 478.669,556.528 470.5,556C 451.113,548.871 431.447,542.538 411.5,537C 406.269,534.769 401.269,532.103 396.5,529C 391.962,524.683 387.795,520.183 384,515.5C 371.107,518.263 358.774,516.596 347,510.5C 325.88,516.097 304.38,517.931 282.5,516C 272.308,515.135 262.308,513.302 252.5,510.5C 240.674,516.519 228.34,518.186 215.5,515.5C 209.93,523.899 202.596,530.399 193.5,535C 177.694,540.602 161.694,545.602 145.5,550C 133.044,557.513 120.044,558.513 106.5,553C 88.417,546.455 70.0836,540.788 51.5,536C 48.0589,534.224 44.8922,532.057 42,529.5C 35.0804,517.996 28.4138,506.329 22,494.5C 19.2141,491.112 15.8807,488.446 12,486.5C 7.66271,479.494 5.32937,471.827 5,463.5C 4.72121,452.142 4.05455,440.808 3,429.5C 2.05751,426.626 0.890847,423.96 -0.5,421.5C -0.5,413.167 -0.5,404.833 -0.5,396.5C 3.26418,385.457 6.43085,374.123 9,362.5C 9.47612,355.327 9.30945,348.16 8.5,341C 8.51535,337.097 9.01535,333.264 10,329.5C 16.3932,315.047 23.0599,300.713 30,286.5C 30.5063,274.966 33.173,263.966 38,253.5C 47.7547,238.997 56.7547,223.997 65,208.5C 65.4518,196.462 69.7851,186.129 78,177.5C 88.0303,167.804 97.697,157.804 107,147.5C 109.789,142.466 111.789,137.132 113,131.5C 117.355,122.809 123.521,115.643 131.5,110C 143.57,101.933 155.07,93.0993 166,83.5C 169.715,73.7859 176.215,66.6192 185.5,62C 201.566,53.1322 218.566,46.7989 236.5,43C 240.936,42.4189 245.269,42.9189 249.5,44.5C 283.327,37.8569 317.161,37.8569 351,44.5C 359.961,41.9669 368.794,42.4669 377.5,46C 395.34,51.0871 411.673,59.0871 426.5,70C 430.208,73.9096 433.042,78.4096 435,83.5C 446.262,93.4314 458.095,102.598 470.5,111C 481.732,118.63 488.566,129.13 491,142.5C 492.667,145.167 494.333,147.833 496,150.5C 508.771,162.266 520.438,174.933 531,188.5C 533.494,194.948 535.16,201.615 536,208.5C 545.667,225.167 555.333,241.833 565,258.5C 567.87,268.728 570.204,279.061 572,289.5C 578.879,302.591 585.212,315.924 591,329.5C 591.906,333.279 592.406,337.112 592.5,341C 590.279,357.912 592.612,374.079 599.5,389.5 Z"/></g>
<g><path style="opacity:1" fill="#6d411e" d="M 370.5,55.5 C 390.645,62.5714 408.645,73.2381 424.5,87.5C 427.806,91.4729 431.473,95.1396 435.5,98.5C 468.115,145.932 476.615,197.598 461,253.5C 457.351,265.035 454.017,276.701 451,288.5C 436.165,325.987 421.499,363.654 407,401.5C 405.407,407.778 405.24,414.111 406.5,420.5C 406.666,426.509 406.499,432.509 406,438.5C 388.582,420.579 370.748,403.246 352.5,386.5C 347.748,378.441 340.748,373.275 331.5,371C 311.907,366.755 292.24,366.422 272.5,370C 247.669,378.156 240.169,394.323 250,418.5C 254.333,425.332 259.833,430.999 266.5,435.5C 266.369,436.239 266.536,436.906 267,437.5C 283.368,453.701 299.535,470.035 315.5,486.5C 301.177,481.343 287.844,483.01 275.5,491.5C 269.332,494.08 263.665,497.414 258.5,501.5C 254.869,500.588 251.203,500.421 247.5,501C 236.46,506.825 224.96,507.992 213,504.5C 211.408,504.605 209.908,504.939 208.5,505.5C 204.482,503.528 201.315,500.528 199,496.5C 196.248,491.162 194.582,485.495 194,479.5C 192.363,454.32 192.196,429.153 193.5,404C 179.139,366.778 164.639,329.611 150,292.5C 141.281,268.092 135.281,243.092 132,217.5C 128.675,182.124 135.342,148.79 152,117.5C 155.329,112.014 158.829,106.68 162.5,101.5C 167.844,97.1548 172.511,92.1548 176.5,86.5C 188.835,75.5017 202.502,66.5017 217.5,59.5C 225.549,55.1029 234.216,53.2696 243.5,54C 244.729,54.7811 246.062,55.2811 247.5,55.5C 282.491,47.5005 317.491,47.5005 352.5,55.5C 358.558,52.8444 364.558,52.8444 370.5,55.5 Z"/></g>
<g><path style="opacity:1" fill="#592d09" d="M 370.5,55.5 C 389.263,59.5801 406.096,67.5801 421,79.5C 422.454,82.0711 423.62,84.7378 424.5,87.5C 408.645,73.2381 390.645,62.5714 370.5,55.5 Z"/></g>
<g><path style="opacity:1" fill="#582c09" d="M 217.5,59.5 C 202.502,66.5017 188.835,75.5017 176.5,86.5C 178.476,80.6843 182.143,76.1843 187.5,73C 196.91,67.1275 206.91,62.6275 217.5,59.5 Z"/></g>
<g><path style="opacity:1" fill="#5b2d08" d="M 435.5,98.5 C 449.03,107.521 461.864,117.521 474,128.5C 477.709,133.586 480.042,139.253 481,145.5C 482.934,149.759 485.268,153.759 488,157.5C 500.771,169.266 512.438,181.933 523,195.5C 523.827,201.961 525.16,208.295 527,214.5C 535.748,229.666 544.748,244.666 554,259.5C 555.333,262.833 556.667,266.167 558,269.5C 557.964,277.409 559.298,285.075 562,292.5C 567.333,303.167 572.667,313.833 578,324.5C 579.333,328.5 580.667,332.5 582,336.5C 581.537,343.822 581.203,351.155 581,358.5C 583.881,373.692 587.548,388.692 592,403.5C 593.331,410.249 592.331,416.582 589,422.5C 588.118,425.789 587.452,429.123 587,432.5C 586.706,444.523 586.039,456.523 585,468.5C 584.489,470.878 583.822,473.212 583,475.5C 578.181,480.268 573.514,485.268 569,490.5C 564,499.833 559,509.167 554,518.5C 552.167,521.667 549.667,524.167 546.5,526C 540.804,527.206 535.137,528.539 529.5,530C 514.408,535.586 499.075,540.586 483.5,545C 475.23,546.613 467.563,545.28 460.5,541C 445.833,536.667 431.167,532.333 416.5,528C 404.74,523.738 396.406,515.904 391.5,504.5C 392.552,504.649 393.552,504.483 394.5,504C 401.518,496.433 404.851,487.6 404.5,477.5C 405.357,468.509 406.357,459.509 407.5,450.5C 407.466,440.359 407.133,430.359 406.5,420.5C 405.24,414.111 405.407,407.778 407,401.5C 421.499,363.654 436.165,325.987 451,288.5C 454.017,276.701 457.351,265.035 461,253.5C 476.615,197.598 468.115,145.932 435.5,98.5 Z"/></g>
<g><path style="opacity:1" fill="#5b2d08" d="M 162.5,101.5 C 158.829,106.68 155.329,112.014 152,117.5C 135.342,148.79 128.675,182.124 132,217.5C 135.281,243.092 141.281,268.092 150,292.5C 164.639,329.611 179.139,366.778 193.5,404C 192.196,429.153 192.363,454.32 194,479.5C 194.582,485.495 196.248,491.162 199,496.5C 201.315,500.528 204.482,503.528 208.5,505.5C 205.463,512.035 201.13,517.535 195.5,522C 181.46,528.791 166.793,533.791 151.5,537C 144.39,539.389 137.39,542.056 130.5,545C 125.833,545.667 121.167,545.667 116.5,545C 101.115,540.205 85.7821,535.205 70.5,530C 65.9002,528.683 61.2335,527.683 56.5,527C 53.7336,525.533 51.2336,523.7 49,521.5C 43.0794,511.327 37.4127,500.994 32,490.5C 28.9513,485.784 24.9513,482.118 20,479.5C 16.5489,472.247 14.8822,464.58 15,456.5C 14.6667,447.833 14.3333,439.167 14,430.5C 12.9278,425.617 11.2612,420.95 9,416.5C 8.33333,411.833 8.33333,407.167 9,402.5C 13.4872,388.373 17.1538,374.039 20,359.5C 19.6667,351.5 19.3333,343.5 19,335.5C 24.5127,321.473 30.846,307.807 38,294.5C 41.5462,286.195 43.2128,277.528 43,268.5C 43.8624,266.913 44.5291,265.246 45,263.5C 54.0816,247.668 63.4149,232.001 73,216.5C 75.2809,210.71 76.6142,204.71 77,198.5C 78.3333,195.833 79.6667,193.167 81,190.5C 92.3333,178.5 103.667,166.5 115,154.5C 118.818,146.222 122.484,137.888 126,129.5C 137.236,118.816 149.402,109.483 162.5,101.5 Z"/></g>
<g><path style="opacity:1" fill="#302826" d="M 213.5,183.5 C 230.704,181.683 241.87,189.016 247,205.5C 248.82,222.004 241.986,233.171 226.5,239C 202.257,240.409 191.09,228.909 193,204.5C 196.685,194.316 203.519,187.316 213.5,183.5 Z"/></g>
<g><path style="opacity:1" fill="#302826" d="M 372.5,183.5 C 396.833,182.665 408,194.332 406,218.5C 400.725,234.748 389.559,241.581 372.5,239C 356.259,232.696 349.759,220.863 353,203.5C 356.351,193.65 362.851,186.983 372.5,183.5 Z"/></g>
<g><path style="opacity:1" fill="#f2f1f1" d="M 384.5,194.5 C 391.655,194.153 394.821,197.486 394,204.5C 389.333,211.167 384.667,211.167 380,204.5C 378.571,199.783 380.071,196.45 384.5,194.5 Z"/></g>
<g><path style="opacity:1" fill="#f2f2f2" d="M 225.5,195.5 C 232.193,195.685 235.026,199.019 234,205.5C 229.953,210.809 225.953,210.809 222,205.5C 220.755,201.235 221.922,197.902 225.5,195.5 Z"/></g>
<g><path style="opacity:1" fill="#302825" d="M 352.5,386.5 C 359.131,408.096 352.798,424.93 333.5,437C 310.717,451.493 288.384,450.993 266.5,435.5C 259.833,430.999 254.333,425.332 250,418.5C 240.169,394.323 247.669,378.156 272.5,370C 292.24,366.422 311.907,366.755 331.5,371C 340.748,373.275 347.748,378.441 352.5,386.5 Z"/></g>
<g><path style="opacity:1" fill="#603311" d="M 352.5,386.5 C 370.748,403.246 388.582,420.579 406,438.5C 406.499,432.509 406.666,426.509 406.5,420.5C 407.133,430.359 407.466,440.359 407.5,450.5C 406.357,459.509 405.357,468.509 404.5,477.5C 404.851,487.6 401.518,496.433 394.5,504C 393.552,504.483 392.552,504.649 391.5,504.5C 390.033,504.106 388.533,503.773 387,503.5C 374.822,507.922 362.989,507.089 351.5,501C 347.797,500.421 344.131,500.588 340.5,501.5C 335.335,497.414 329.668,494.08 323.5,491.5C 320.871,489.837 318.204,488.171 315.5,486.5C 299.535,470.035 283.368,453.701 267,437.5C 266.536,436.906 266.369,436.239 266.5,435.5C 288.384,450.993 310.717,451.493 333.5,437C 352.798,424.93 359.131,408.096 352.5,386.5 Z"/></g>
<g><path style="opacity:1" fill="#322825" d="M 315.5,486.5 C 318.204,488.171 320.871,489.837 323.5,491.5C 307.484,492.764 291.484,492.764 275.5,491.5C 287.844,483.01 301.177,481.343 315.5,486.5 Z"/></g>
<g><path style="opacity:1" fill="#5a2d08" d="M 275.5,491.5 C 291.484,492.764 307.484,492.764 323.5,491.5C 329.668,494.08 335.335,497.414 340.5,501.5C 313.163,508.14 285.83,508.14 258.5,501.5C 263.665,497.414 269.332,494.08 275.5,491.5 Z"/></g>
</svg>
