<?xml version="1.0" encoding="UTF-8"?>
<!DOCTYPE svg PUBLIC "-//W3C//DTD SVG 1.1//EN" "http://www.w3.org/Graphics/SVG/1.1/DTD/svg11.dtd">
<svg xmlns="http://www.w3.org/2000/svg" version="1.1" width="600px" height="600px" style="shape-rendering:geometricPrecision; text-rendering:geometricPrecision; image-rendering:optimizeQuality; fill-rule:evenodd; clip-rule:evenodd" xmlns:xlink="http://www.w3.org/1999/xlink">
<g><path style="opacity:0.968" fill="#020202" d="M 599.5,297.5 C 599.5,302.5 599.5,307.5 599.5,312.5C 593.648,316.418 587.815,316.085 582,311.5C 581.833,312 581.667,312.5 581.5,313C 584.755,320.008 587.588,327.175 590,334.5C 591.384,340.109 591.717,345.775 591,351.5C 586.408,369.943 581.408,388.276 576,406.5C 572.902,412.319 568.902,412.986 564,408.5C 563.542,412.677 563.708,416.843 564.5,421C 563.986,429.007 560.153,431.174 553,427.5C 552.833,428 552.667,428.5 552.5,429C 555.131,442.025 558.464,454.858 562.5,467.5C 561.109,474.861 556.776,477.694 549.5,476C 545.332,473.75 541.332,471.25 537.5,468.5C 536.886,473.22 534.553,476.72 530.5,479C 525.026,479.634 519.693,478.968 514.5,477C 495.578,470.878 479.244,460.712 465.5,446.5C 462.564,453.539 459.23,460.373 455.5,467C 457.299,473.181 457.466,479.347 456,485.5C 452.733,489.934 448.733,490.6 444,487.5C 445.584,504.754 439.75,518.921 426.5,530C 423.912,531.686 421.245,531.853 418.5,530.5C 417.113,533.492 415.446,536.325 413.5,539C 408.875,542.099 403.875,544.432 398.5,546C 392.633,546.984 388.3,544.818 385.5,539.5C 374.731,550.891 361.731,558.724 346.5,563C 315.158,570.315 283.825,570.315 252.5,563C 236.901,559.122 223.734,551.289 213,539.5C 210.795,542.04 208.295,544.207 205.5,546C 197.729,545.798 190.729,543.298 184.5,538.5C 182.747,535.995 181.247,533.329 180,530.5C 176.543,532.007 173.376,531.507 170.5,529C 158.531,517.438 153.031,503.271 154,486.5C 148.035,491.175 143.368,490.175 140,483.5C 139.679,475.4 140.512,467.4 142.5,459.5C 140.336,453.838 138.17,448.172 136,442.5C 118.817,464.508 96.3173,476.675 68.5,479C 67.0692,478.535 65.9025,477.701 65,476.5C 64.131,473.67 62.9643,471.003 61.5,468.5C 57.9704,471.195 54.3037,473.695 50.5,476C 42.4435,478.151 38.1101,475.151 37.5,467C 40.889,455.277 43.889,443.444 46.5,431.5C 46.1667,430.5 45.8333,429.5 45.5,428.5C 41.8733,430.075 38.7066,429.408 36,426.5C 35.5292,420.462 35.5292,414.462 36,408.5C 31.5216,412.731 27.5216,412.398 24,407.5C 18.5939,389.281 13.5939,370.948 9,352.5C 8.33333,347.5 8.33333,342.5 9,337.5C 11.0834,328.749 14.2501,320.416 18.5,312.5C 18.1667,312.167 17.8333,311.833 17.5,311.5C 11.5459,316.065 5.54592,316.399 -0.5,312.5C -0.5,307.833 -0.5,303.167 -0.5,298.5C 7.36901,281.108 17.5357,265.108 30,250.5C 33.159,243.512 36.8256,236.846 41,230.5C 55.9645,211.868 72.6311,194.868 91,179.5C 98.0795,170.346 104.413,160.68 110,150.5C 114.5,146 119,141.5 123.5,137C 118.532,130.5 119.865,125.833 127.5,123C 133.184,122.081 138.851,121.081 144.5,120C 139.073,116.675 137.573,112.175 140,106.5C 144.906,104.093 149.906,104.093 155,106.5C 155.5,106.333 156,106.167 156.5,106C 154.75,102.079 155.75,99.0792 159.5,97C 162.359,96.447 165.192,96.6137 168,97.5C 175.352,95.1203 182.852,93.287 190.5,92C 196.402,90.0495 202.068,87.5495 207.5,84.5C 208.072,82.9222 208.406,81.4222 208.5,80C 202.44,76.7819 198.44,71.9486 196.5,65.5C 197.941,58.2442 202.441,54.9108 210,55.5C 213.29,55.8353 216.456,56.3353 219.5,57C 215.37,52.24 212.704,46.74 211.5,40.5C 212.171,36.4955 214.505,34.1621 218.5,33.5C 228.409,37.1201 237.409,42.2867 245.5,49C 249.348,53.0156 253.348,56.8489 257.5,60.5C 258.908,58.4926 260.408,56.4926 262,54.5C 261.787,49.0572 264.12,45.3905 269,43.5C 270.5,44 272,44.5 273.5,45C 277.043,49.9161 280.21,55.0828 283,60.5C 285.581,53.4521 287.247,46.1188 288,38.5C 290.398,34.8126 293.565,33.9793 297.5,36C 301.612,41.979 304.778,48.479 307,55.5C 308.497,59.1649 310.497,62.4983 313,65.5C 314.829,63.8442 316.163,61.8442 317,59.5C 319.469,51.7582 322.136,44.0916 325,36.5C 329.67,29.0227 334.67,28.6893 340,35.5C 340.333,39.8333 340.667,44.1667 341,48.5C 346.569,43.9652 352.403,39.7986 358.5,36C 363.08,33.4526 367.747,33.1193 372.5,35C 376.167,39.7882 376.001,44.6216 372,49.5C 370.167,52 368.333,54.5 366.5,57C 371.342,55.6854 376.342,55.352 381.5,56C 390.867,60.5101 391.867,66.5101 384.5,74C 390.592,75.0455 392.925,78.3789 391.5,84C 397.264,87.2159 403.264,89.8825 409.5,92C 417.501,93.1252 425.334,94.9586 433,97.5C 440.897,95.5782 444.73,98.5782 444.5,106.5C 448.695,104.767 453.029,104.267 457.5,105C 462.313,110.37 461.646,115.37 455.5,120C 460.813,121.092 466.147,122.092 471.5,123C 474.034,123.516 476.2,124.683 478,126.5C 478.498,130.65 478.164,134.65 477,138.5C 482,142.167 486.333,146.5 490,151.5C 495,159.5 500,167.5 505,175.5C 523.032,191.865 540.032,209.198 556,227.5C 561.768,235.369 566.768,243.702 571,252.5C 582.549,266.279 592.049,281.279 599.5,297.5 Z"/></g>
<g><path style="opacity:1" fill="#7c6154" d="M 431.5,117.5 C 430.822,121.273 432.156,124.106 435.5,126C 445.394,131.778 455.394,137.278 465.5,142.5C 472.167,147.167 477.833,152.833 482.5,159.5C 482.03,160.693 481.03,161.36 479.5,161.5C 476.188,160.621 472.855,160.454 469.5,161C 468.484,161.519 467.818,162.353 467.5,163.5C 474.27,176.706 480.77,190.039 487,203.5C 490.295,210.105 491.129,216.938 489.5,224C 486.074,223.06 482.574,221.893 479,220.5C 476.127,220.598 474.127,221.932 473,224.5C 472.333,228.5 472.333,232.5 473,236.5C 477.859,251.41 481.692,266.576 484.5,282C 484.435,284.225 484.102,286.392 483.5,288.5C 480.041,289.291 476.707,290.291 473.5,291.5C 471.311,291.406 469.311,290.739 467.5,289.5C 465.97,291.226 464.97,293.226 464.5,295.5C 467.172,303.846 470.672,311.846 475,319.5C 475.906,321.744 476.406,324.077 476.5,326.5C 475.648,330.371 474.648,334.205 473.5,338C 473.74,340.016 474.074,342.016 474.5,344C 472.759,346.261 471.759,348.927 471.5,352C 473.15,362.282 472.65,372.448 470,382.5C 468.666,386.104 466.166,387.271 462.5,386C 460.228,383.973 458.061,381.806 456,379.5C 456.672,394.032 458.838,408.365 462.5,422.5C 462.376,423.107 462.043,423.44 461.5,423.5C 442.704,373.872 407.37,343.372 355.5,332C 342.282,311.392 332.449,289.226 326,265.5C 324.414,256.4 323.581,247.233 323.5,238C 324.374,222.675 325.041,207.342 325.5,192C 326.265,174.946 322.098,159.113 313,144.5C 303.838,133.918 294.171,133.252 284,142.5C 274.21,157.034 269.377,173.034 269.5,190.5C 270.383,206.841 271.383,223.174 272.5,239.5C 271.922,259.476 267.422,278.476 259,296.5C 253.231,308.538 247.064,320.371 240.5,332C 196.398,341.304 164.065,365.804 143.5,405.5C 142.876,405.083 142.543,404.416 142.5,403.5C 144.495,396.223 145.162,388.89 144.5,381.5C 142.684,382.815 141.017,384.315 139.5,386C 136.653,386.944 134.153,386.444 132,384.5C 128.175,373.79 127.675,362.957 130.5,352C 129.258,349.156 128.258,346.156 127.5,343C 127.58,341.106 127.913,339.273 128.5,337.5C 126.357,333.951 125.023,330.118 124.5,326C 127.915,317.002 131.748,308.168 136,299.5C 136.45,295.812 136.283,292.146 135.5,288.5C 132.972,289.011 130.472,289.678 128,290.5C 126.635,290.156 125.468,289.489 124.5,288.5C 122.298,289.78 120.132,289.78 118,288.5C 117.333,285.833 117.333,283.167 118,280.5C 122.102,262.722 125.935,244.889 129.5,227C 129.542,221.368 126.876,219.034 121.5,220C 118.968,222.094 116.301,223.927 113.5,225.5C 110.216,224.872 108.883,222.872 109.5,219.5C 113.319,202.198 120.152,186.198 130,171.5C 134.214,161.047 131.214,158.047 121,162.5C 119.358,162.022 118.191,161.022 117.5,159.5C 120.761,153.237 125.428,148.237 131.5,144.5C 142.769,138.864 153.769,132.698 164.5,126C 167.712,123.981 169.378,121.147 169.5,117.5C 172.101,114.663 172.101,111.83 169.5,109C 170.672,108.581 171.672,107.915 172.5,107C 182.495,104.334 192.495,101.667 202.5,99C 209.239,95.8815 215.739,92.3815 222,88.5C 222.439,84.7887 222.106,81.1221 221,77.5C 216.5,73.6667 212,69.8333 207.5,66C 212.204,65.8369 216.537,67.1702 220.5,70C 225.889,74.3888 231.556,78.3888 237.5,82C 241.317,83.0234 244.817,82.5234 248,80.5C 248.667,78.5 248.667,76.5 248,74.5C 242.333,68.1667 236.667,61.8333 231,55.5C 229.081,53.3089 227.747,50.9755 227,48.5C 237.459,56.6236 247.626,65.1236 257.5,74C 260.634,74.7901 263.634,74.4568 266.5,73C 268.329,69.7723 270.162,66.6056 272,63.5C 274,66.8333 276,70.1667 278,73.5C 282.765,78.3258 287.765,78.6591 293,74.5C 293.835,68.7173 294.835,63.0506 296,57.5C 298.364,63.7286 301.864,69.2286 306.5,74C 310.278,76.9439 314.278,77.2772 318.5,75C 322.016,72.1291 324.683,68.6291 326.5,64.5C 328.123,68.0576 330.79,69.2243 334.5,68C 342.721,60.4073 351.387,53.7407 360.5,48C 354.04,56.1292 347.206,63.9626 340,71.5C 336.972,76.9812 338.472,79.9812 344.5,80.5C 352.932,78.2842 360.598,74.4509 367.5,69C 381.328,63.634 381.995,64.9674 369.5,73C 366.675,75.1433 364.675,77.81 363.5,81C 363.439,82.7106 364.106,84.044 365.5,85C 369.486,85.4988 373.486,85.6655 377.5,85.5C 377.297,87.3904 377.963,88.8904 379.5,90C 386.621,93.0605 393.621,96.3938 400.5,100C 409.778,102.537 419.112,104.87 428.5,107C 429.328,107.915 430.328,108.581 431.5,109C 428.899,111.83 428.899,114.663 431.5,117.5 Z"/></g>
<g><path style="opacity:1" fill="#3d3837" d="M 169.5,117.5 C 169.378,121.147 167.712,123.981 164.5,126C 153.769,132.698 142.769,138.864 131.5,144.5C 135.28,141.051 135.946,137.218 133.5,133C 140.345,132.126 147.012,130.459 153.5,128C 157.084,125.087 158.417,121.587 157.5,117.5C 161.482,118.671 165.482,118.671 169.5,117.5 Z"/></g>
<g><path style="opacity:1" fill="#3e3938" d="M 431.5,117.5 C 434.803,118.826 438.136,118.826 441.5,117.5C 441.104,121.459 442.437,124.959 445.5,128C 452.024,130.443 458.691,132.277 465.5,133.5C 464.175,136.531 464.175,139.531 465.5,142.5C 455.394,137.278 445.394,131.778 435.5,126C 432.156,124.106 430.822,121.273 431.5,117.5 Z"/></g>
<g><path style="opacity:1" fill="#f5f2ef" d="M 407.5,528.5 C 406.778,528.082 406.278,527.416 406,526.5C 404.785,512.423 401.785,498.757 397,485.5C 395.867,483.789 394.367,483.289 392.5,484C 390.578,488.516 387.911,492.516 384.5,496C 381.196,497.042 379.029,495.875 378,492.5C 375.797,485.558 373.797,478.558 372,471.5C 370.434,468.733 368.267,466.733 365.5,465.5C 366.435,462.887 366.602,460.221 366,457.5C 363.46,455.295 361.293,452.795 359.5,450C 357.5,449.333 355.5,449.333 353.5,450C 349.65,455.177 344.65,458.843 338.5,461C 310.367,469.947 282.367,469.614 254.5,460C 249.681,457.599 245.681,454.265 242.5,450C 241.271,449.219 239.938,448.719 238.5,448.5C 235.085,451.945 231.251,454.945 227,457.5C 226.403,460.681 226.903,463.681 228.5,466.5C 227.269,467.718 226.102,469.051 225,470.5C 223.161,479.365 220.328,487.865 216.5,496C 215.167,496.667 213.833,496.667 212.5,496C 209.089,492.516 206.422,488.516 204.5,484C 203.056,483.219 201.723,483.386 200.5,484.5C 195.29,497.676 192.123,511.342 191,525.5C 190.617,526.056 190.117,526.389 189.5,526.5C 187.046,518.68 185.212,510.68 184,502.5C 181.333,499.833 178.667,499.833 176,502.5C 175.114,507.47 174.448,512.47 174,517.5C 165.849,507.599 163.183,496.266 166,483.5C 166.882,473.446 167.882,463.446 169,453.5C 166.847,451.556 164.347,451.056 161.5,452C 157.957,456.916 154.79,462.083 152,467.5C 153.483,452.377 157.817,438.044 165,424.5C 167.846,416.029 165.013,412.529 156.5,414C 153.37,416.128 150.537,418.628 148,421.5C 159.631,390.524 180.464,367.691 210.5,353C 222.09,347.803 234.09,343.803 246.5,341C 267.721,310.839 279.721,277.339 282.5,240.5C 281.611,223.993 280.611,207.493 279.5,191C 279.332,176.836 282.832,163.669 290,151.5C 295.769,143.435 301.103,143.768 306,152.5C 313.547,164.774 316.713,178.107 315.5,192.5C 314.833,207.833 314.167,223.167 313.5,238.5C 313.175,255.377 316.009,271.71 322,287.5C 328.598,306.197 337.432,323.697 348.5,340C 372.889,345.531 394.889,355.864 414.5,371C 429.805,384.488 440.972,400.655 448,419.5C 443.366,413.327 437.7,411.994 431,415.5C 430.333,418.5 430.333,421.5 431,424.5C 438.306,438.748 442.973,453.748 445,469.5C 443.07,463.804 440.236,458.637 436.5,454C 433.975,453.104 431.808,453.604 430,455.5C 431.673,467.903 432.84,480.403 433.5,493C 433.647,502.228 430.813,510.395 425,517.5C 424.173,511.05 422.84,504.717 421,498.5C 418.333,495.833 415.667,495.833 413,498.5C 411.915,508.683 410.081,518.683 407.5,528.5 Z"/></g>
<g><path style="opacity:1" fill="#3d3938" d="M 117.5,159.5 C 118.191,161.022 119.358,162.022 121,162.5C 131.214,158.047 134.214,161.047 130,171.5C 120.152,186.198 113.319,202.198 109.5,219.5C 108.883,222.872 110.216,224.872 113.5,225.5C 116.301,223.927 118.968,222.094 121.5,220C 126.876,219.034 129.542,221.368 129.5,227C 125.935,244.889 122.102,262.722 118,280.5C 117.333,283.167 117.333,285.833 118,288.5C 120.132,289.78 122.298,289.78 124.5,288.5C 125.468,289.489 126.635,290.156 128,290.5C 130.472,289.678 132.972,289.011 135.5,288.5C 136.283,292.146 136.45,295.812 136,299.5C 131.748,308.168 127.915,317.002 124.5,326C 125.023,330.118 126.357,333.951 128.5,337.5C 127.913,339.273 127.58,341.106 127.5,343C 128.258,346.156 129.258,349.156 130.5,352C 127.675,362.957 128.175,373.79 132,384.5C 134.153,386.444 136.653,386.944 139.5,386C 141.017,384.315 142.684,382.815 144.5,381.5C 145.162,388.89 144.495,396.223 142.5,403.5C 142.543,404.416 142.876,405.083 143.5,405.5C 137.915,413.385 133.749,422.052 131,431.5C 124.451,442.383 115.617,450.883 104.5,457C 94.8536,462.048 84.8536,466.215 74.5,469.5C 73.8405,455.17 67.5072,452.004 55.5,460C 53.3333,461.5 51.1667,463 49,464.5C 51.1528,455.559 53.4862,446.559 56,437.5C 57.8578,428.78 57.8578,420.113 56,411.5C 53.4355,409.821 50.6021,409.154 47.5,409.5C 47.6655,405.486 47.4988,401.486 47,397.5C 45.5421,391.941 42.0421,390.108 36.5,392C 35,393.5 33.5,395 32,396.5C 26.7299,380.753 22.3965,364.753 19,348.5C 18.4228,344.112 18.7561,339.779 20,335.5C 22.4716,329.085 25.1383,322.752 28,316.5C 30.4865,311.26 29.9865,306.427 26.5,302C 20.9187,299.763 15.5853,300.263 10.5,303.5C 10.1667,303.167 9.83333,302.833 9.5,302.5C 15.4699,287.22 23.9699,273.553 35,261.5C 40.6798,252.134 46.3465,242.801 52,233.5C 66.3333,216.5 82,200.833 99,186.5C 105.42,177.596 111.587,168.596 117.5,159.5 Z"/></g>
<g><path style="opacity:1" fill="#3d3938" d="M 482.5,159.5 C 487.393,167.605 492.56,175.605 498,183.5C 516.032,199.865 533.032,217.198 549,235.5C 557.263,251.704 567.263,266.704 579,280.5C 583.755,287.665 587.089,295.332 589,303.5C 573.921,296.918 568.254,301.585 572,317.5C 574.942,323.718 577.609,330.051 580,336.5C 580.909,345.289 580.242,353.956 578,362.5C 574.718,373.681 571.051,384.681 567,395.5C 563.95,391.87 560.117,390.703 555.5,392C 554.299,392.903 553.465,394.069 553,395.5C 552.667,400.5 552.333,405.5 552,410.5C 546.219,408.266 542.886,410.266 542,416.5C 541.536,422.529 541.869,428.529 543,434.5C 545.302,445.04 547.968,455.373 551,465.5C 545.97,460.481 539.97,457.147 533,455.5C 530.501,456.083 528.501,457.416 527,459.5C 526.824,462.882 526.324,466.215 525.5,469.5C 504.661,464.669 487.161,454.336 473,438.5C 470.646,433.43 467.146,429.43 462.5,426.5C 461.873,425.583 461.539,424.583 461.5,423.5C 462.043,423.44 462.376,423.107 462.5,422.5C 458.838,408.365 456.672,394.032 456,379.5C 458.061,381.806 460.228,383.973 462.5,386C 466.166,387.271 468.666,386.104 470,382.5C 472.65,372.448 473.15,362.282 471.5,352C 471.759,348.927 472.759,346.261 474.5,344C 474.074,342.016 473.74,340.016 473.5,338C 474.648,334.205 475.648,330.371 476.5,326.5C 476.406,324.077 475.906,321.744 475,319.5C 470.672,311.846 467.172,303.846 464.5,295.5C 464.97,293.226 465.97,291.226 467.5,289.5C 469.311,290.739 471.311,291.406 473.5,291.5C 476.707,290.291 480.041,289.291 483.5,288.5C 484.102,286.392 484.435,284.225 484.5,282C 481.692,266.576 477.859,251.41 473,236.5C 472.333,232.5 472.333,228.5 473,224.5C 474.127,221.932 476.127,220.598 479,220.5C 482.574,221.893 486.074,223.06 489.5,224C 491.129,216.938 490.295,210.105 487,203.5C 480.77,190.039 474.27,176.706 467.5,163.5C 467.818,162.353 468.484,161.519 469.5,161C 472.855,160.454 476.188,160.621 479.5,161.5C 481.03,161.36 482.03,160.693 482.5,159.5 Z"/></g>
<g><path style="opacity:1" fill="#937c6e" d="M 401.5,235.5 C 399.287,234.227 396.954,233.227 394.5,232.5C 385.516,228.587 376.182,225.921 366.5,224.5C 364.052,223.527 361.385,223.194 358.5,223.5C 349.867,222.286 341.201,221.12 332.5,220C 326.885,215.032 325.052,208.865 327,201.5C 330.096,194.734 335.263,190.568 342.5,189C 381.584,189.625 413.417,205.125 438,235.5C 442.168,240.312 443.168,245.645 441,251.5C 437.621,253.923 434.121,254.09 430.5,252C 421.429,245.464 411.762,239.964 401.5,235.5 Z"/></g>
<g><path style="opacity:1" fill="#937c6e" d="M 236.5,224.5 C 233.615,224.194 230.948,224.527 228.5,225.5C 217.978,226.068 207.978,228.401 198.5,232.5C 195.794,232.688 193.461,233.688 191.5,235.5C 180.687,239.239 170.353,244.072 160.5,250C 151.804,251.842 148.637,248.342 151,239.5C 173.972,209.426 204.472,193.093 242.5,190.5C 254.553,189.767 263.053,194.767 268,205.5C 269.323,212.386 267.49,218.219 262.5,223C 253.916,224.41 245.25,224.91 236.5,224.5 Z"/></g>
<g><path style="opacity:1" fill="#46a3d6" d="M 358.5,223.5 C 361.385,223.194 364.052,223.527 366.5,224.5C 353.922,232.855 351.089,243.855 358,257.5C 365.088,266.084 373.922,268.584 384.5,265C 393.403,260.865 397.737,253.865 397.5,244C 397.601,239.816 396.601,235.983 394.5,232.5C 396.954,233.227 399.287,234.227 401.5,235.5C 405.336,252.657 399.003,264.49 382.5,271C 364.161,273.32 352.994,265.487 349,247.5C 348.545,238.075 351.712,230.075 358.5,223.5 Z"/></g>
<g><path style="opacity:1" fill="#9dd3f1" d="M 228.5,225.5 C 240.89,235.019 242.723,246.352 234,259.5C 221.225,269.672 209.558,268.672 199,256.5C 194.18,248.516 194.347,240.683 199.5,233C 199.272,232.601 198.938,232.435 198.5,232.5C 207.978,228.401 217.978,226.068 228.5,225.5 Z"/></g>
<g><path style="opacity:1" fill="#45a4d6" d="M 236.5,224.5 C 247.32,238.188 246.986,251.688 235.5,265C 221.995,274.305 209.161,273.472 197,262.5C 191.202,254.307 189.368,245.307 191.5,235.5C 193.461,233.688 195.794,232.688 198.5,232.5C 198.938,232.435 199.272,232.601 199.5,233C 194.347,240.683 194.18,248.516 199,256.5C 209.558,268.672 221.225,269.672 234,259.5C 242.723,246.352 240.89,235.019 228.5,225.5C 230.948,224.527 233.615,224.194 236.5,224.5 Z"/></g>
<g><path style="opacity:1" fill="#9fd4f3" d="M 366.5,224.5 C 376.182,225.921 385.516,228.587 394.5,232.5C 396.601,235.983 397.601,239.816 397.5,244C 397.737,253.865 393.403,260.865 384.5,265C 373.922,268.584 365.088,266.084 358,257.5C 351.089,243.855 353.922,232.855 366.5,224.5 Z"/></g>
<g><path style="opacity:1" fill="#261a18" d="M 220.5,234.5 C 217.913,237.01 217.913,239.677 220.5,242.5C 223.718,244.029 226.385,243.362 228.5,240.5C 231.115,249.933 227.449,255.599 217.5,257.5C 207.389,255.549 203.555,249.549 206,239.5C 209.666,233.205 214.499,231.538 220.5,234.5 Z"/></g>
<g><path style="opacity:1" fill="#261b19" d="M 379.5,233.5 C 374.742,239.318 376.075,242.484 383.5,243C 385.426,242.578 386.426,241.411 386.5,239.5C 390.074,249.331 386.574,255.331 376,257.5C 364.666,254.831 361.333,248.164 366,237.5C 369.76,233.006 374.26,231.673 379.5,233.5 Z"/></g>
<g><path style="opacity:1" fill="#f0f0f1" d="M 379.5,233.5 C 384.339,232.677 386.673,234.677 386.5,239.5C 386.426,241.411 385.426,242.578 383.5,243C 376.075,242.484 374.742,239.318 379.5,233.5 Z"/></g>
<g><path style="opacity:1" fill="#f3f4f4" d="M 228.5,240.5 C 226.385,243.362 223.718,244.029 220.5,242.5C 217.913,239.677 217.913,237.01 220.5,234.5C 225.636,232.952 228.303,234.952 228.5,240.5 Z"/></g>
<g><path style="opacity:1" fill="#040404" d="M 296.5,358.5 C 309.143,358.595 321.143,361.429 332.5,367C 346.043,379.62 348.21,394.12 339,410.5C 317.865,435.444 293.698,438.944 266.5,421C 252.342,409.86 247.842,395.693 253,378.5C 258.575,369.121 266.742,363.288 277.5,361C 283.977,360.138 290.311,359.305 296.5,358.5 Z"/></g>
<g><path style="opacity:1" fill="#2f2725" d="M 296.5,368.5 C 307.501,368.267 317.834,370.767 327.5,376C 335.853,385.063 336.686,394.896 330,405.5C 307.218,428.711 285.218,428.044 264,403.5C 256.836,384.62 263.336,373.453 283.5,370C 288.019,369.825 292.353,369.325 296.5,368.5 Z"/></g>
<g><path style="opacity:1" fill="#6d554a" d="M 446.5,432.5 C 449.372,435.027 452.705,436.693 456.5,437.5C 455.293,441.287 453.793,444.954 452,448.5C 449.475,443.426 447.642,438.093 446.5,432.5 Z"/></g>
<g><path style="opacity:1" fill="#6c5549" d="M 146.5,435.5 C 147.497,435.47 148.164,435.97 148.5,437C 147.691,441.218 146.691,441.385 145.5,437.5C 145.863,436.817 146.196,436.15 146.5,435.5 Z"/></g>
<g><path style="opacity:1" fill="#080606" d="M 365.5,465.5 C 358.528,480.11 350.028,493.776 340,506.5C 333.495,540.014 313.661,552.847 280.5,545C 271,540.833 264.167,534 260,524.5C 257.846,518.883 255.846,513.216 254,507.5C 243.972,494.776 235.472,481.11 228.5,466.5C 226.903,463.681 226.403,460.681 227,457.5C 231.251,454.945 235.085,451.945 238.5,448.5C 239.938,448.719 241.271,449.219 242.5,450C 245.681,454.265 249.681,457.599 254.5,460C 282.367,469.614 310.367,469.947 338.5,461C 344.65,458.843 349.65,455.177 353.5,450C 355.5,449.333 357.5,449.333 359.5,450C 361.293,452.795 363.46,455.295 366,457.5C 366.602,460.221 366.435,462.887 365.5,465.5 Z"/></g>
<g><path style="opacity:1" fill="#251916" d="M 256.5,471.5 C 255.414,471.62 254.747,472.287 254.5,473.5C 255.387,480.144 256.054,486.811 256.5,493.5C 249.137,483.646 243.304,472.979 239,461.5C 244.04,466.406 249.873,469.739 256.5,471.5 Z"/></g>
<g><path style="opacity:1" fill="#251a1a" d="M 337.5,492.5 C 337.576,487.652 337.909,482.819 338.5,478C 338.453,475.705 337.787,473.871 336.5,472.5C 342.534,471.091 348.034,468.424 353,464.5C 349.36,474.65 344.194,483.983 337.5,492.5 Z"/></g>
<g><path style="opacity:1" fill="#ede7e2" d="M 365.5,465.5 C 368.267,466.733 370.434,468.733 372,471.5C 373.797,478.558 375.797,485.558 378,492.5C 379.029,495.875 381.196,497.042 384.5,496C 387.911,492.516 390.578,488.516 392.5,484C 394.367,483.289 395.867,483.789 397,485.5C 401.785,498.757 404.785,512.423 406,526.5C 406.278,527.416 406.778,528.082 407.5,528.5C 404.828,531.93 401.328,534.263 397,535.5C 394.407,532.52 391.907,529.353 389.5,526C 387.167,525.333 384.833,525.333 382.5,526C 374.907,536.917 364.907,544.917 352.5,550C 317.919,560.928 283.253,561.262 248.5,551C 234.688,546.273 223.688,537.94 215.5,526C 213.5,525.333 211.5,525.333 209.5,526C 206.76,529.361 203.927,532.528 201,535.5C 195.623,534.255 191.79,531.255 189.5,526.5C 190.117,526.389 190.617,526.056 191,525.5C 192.123,511.342 195.29,497.676 200.5,484.5C 201.723,483.386 203.056,483.219 204.5,484C 206.422,488.516 209.089,492.516 212.5,496C 213.833,496.667 215.167,496.667 216.5,496C 220.328,487.865 223.161,479.365 225,470.5C 226.102,469.051 227.269,467.718 228.5,466.5C 235.472,481.11 243.972,494.776 254,507.5C 255.846,513.216 257.846,518.883 260,524.5C 264.167,534 271,540.833 280.5,545C 313.661,552.847 333.495,540.014 340,506.5C 350.028,493.776 358.528,480.11 365.5,465.5 Z"/></g>
<g><path style="opacity:1" fill="#df8b8d" d="M 256.5,471.5 C 269.549,476.245 283.049,478.245 297,477.5C 310.465,478.029 323.631,476.362 336.5,472.5C 337.787,473.871 338.453,475.705 338.5,478C 337.909,482.819 337.576,487.652 337.5,492.5C 335.613,495.577 333.446,498.577 331,501.5C 328.35,511.105 324.35,520.105 319,528.5C 304.292,540.32 289.625,540.32 275,528.5C 269.647,520.126 265.647,511.126 263,501.5C 260.242,499.249 258.075,496.582 256.5,493.5C 256.054,486.811 255.387,480.144 254.5,473.5C 254.747,472.287 255.414,471.62 256.5,471.5 Z"/></g>
</svg>
