<?xml version="1.0" encoding="UTF-8"?>
<!DOCTYPE svg PUBLIC "-//W3C//DTD SVG 1.1//EN" "http://www.w3.org/Graphics/SVG/1.1/DTD/svg11.dtd">
<svg xmlns="http://www.w3.org/2000/svg" version="1.1" width="600px" height="600px" style="shape-rendering:geometricPrecision; text-rendering:geometricPrecision; image-rendering:optimizeQuality; fill-rule:evenodd; clip-rule:evenodd" xmlns:xlink="http://www.w3.org/1999/xlink">
<g><path style="opacity:0.948" fill="#020100" d="M 188.5,-0.5 C 192.5,-0.5 196.5,-0.5 200.5,-0.5C 209.359,6.50457 216.859,14.8379 223,24.5C 237.515,48.1891 251.015,72.5224 263.5,97.5C 267.223,98.6806 270.889,100.014 274.5,101.5C 274.337,96.4671 274.837,91.4671 276,86.5C 281.184,82.2493 285.851,82.916 290,88.5C 292.917,92.6661 295.584,96.9994 298,101.5C 298.333,94.1667 298.667,86.8333 299,79.5C 303.88,75.3823 308.547,75.7157 313,80.5C 317.78,87.7257 321.78,95.3923 325,103.5C 328.527,93.4441 333.361,84.1108 339.5,75.5C 343.794,72.4514 347.294,73.1181 350,77.5C 350.585,84.3992 350.085,91.2325 348.5,98C 348.627,102.056 350.127,102.556 353,99.5C 367.89,67.3629 385.557,37.0296 406,8.5C 409.292,5.12683 412.792,2.12683 416.5,-0.5C 420.5,-0.5 424.5,-0.5 428.5,-0.5C 430.54,1.19533 432.374,3.19533 434,5.5C 452.966,45.106 468.299,86.106 480,128.5C 494.04,144.248 503.04,162.581 507,183.5C 511.71,206.932 514.377,230.598 515,254.5C 516.022,297.833 517.022,341.166 518,384.5C 517.852,398.078 519.352,411.412 522.5,424.5C 522.268,426.798 521.601,428.965 520.5,431C 524.559,482.96 534.892,533.627 551.5,583C 551.276,587.389 548.943,589.556 544.5,589.5C 534.551,586.692 525.217,582.525 516.5,577C 494.971,563.818 475.471,547.985 458,529.5C 456.954,530.772 456.454,532.272 456.5,534C 459.684,554.253 464.017,574.253 469.5,594C 468.923,595.9 468.256,597.733 467.5,599.5C 464.5,599.5 461.5,599.5 458.5,599.5C 438.697,587.204 421.864,571.537 408,552.5C 407.973,565.757 409.14,578.924 411.5,592C 408.906,598.791 404.573,600.125 398.5,596C 390.607,590.396 383.94,583.562 378.5,575.5C 376.568,576.52 374.568,576.687 372.5,576C 367.89,573.526 363.223,571.359 358.5,569.5C 358.666,574.844 358.499,580.177 358,585.5C 357.002,587.921 355.168,589.255 352.5,589.5C 349.226,588.53 346.226,587.03 343.5,585C 337.164,579.164 331.164,572.998 325.5,566.5C 321.023,573.928 315.69,580.762 309.5,587C 305.368,590.505 301.868,590.005 299,585.5C 298.21,578.528 296.543,571.861 294,565.5C 287.139,576.035 278.139,584.035 267,589.5C 264.849,589.357 263.182,588.357 262,586.5C 261.627,580.43 260.793,574.43 259.5,568.5C 253.571,573.131 246.905,576.131 239.5,577.5C 233.203,587.308 224.703,594.308 214,598.5C 210.216,597.555 208.382,595.055 208.5,591C 210.78,578.589 211.613,566.089 211,553.5C 197.468,572.205 180.968,587.538 161.5,599.5C 158.833,599.5 156.167,599.5 153.5,599.5C 151.613,598.232 150.613,596.399 150.5,594C 156.184,573.25 160.184,552.25 162.5,531C 161.975,530.308 161.308,529.808 160.5,529.5C 139.198,551.967 114.864,570.467 87.5,585C 82.9987,587 78.332,588.5 73.5,589.5C 70.1393,588.972 67.8059,587.139 66.5,584C 85.4624,532.364 95.4624,479.197 96.5,424.5C 97.2324,421.803 98.0657,419.136 99,416.5C 99.9387,404.849 100.605,393.183 101,381.5C 101.764,332.482 103.097,283.482 105,234.5C 106.155,208.06 111.155,182.393 120,157.5C 124.475,147.377 130.142,138.044 137,129.5C 148.253,87.4038 163.253,46.7371 182,7.5C 183.957,4.54022 186.124,1.87355 188.5,-0.5 Z"/></g>
<g><path style="opacity:1" fill="#b47e24" d="M 258.5,107.5 C 259.568,108.434 260.901,108.768 262.5,108.5C 264.391,111.614 265.724,114.948 266.5,118.5C 263.763,118.401 261.096,118.735 258.5,119.5C 255.193,117.847 251.86,116.18 248.5,114.5C 239.52,92.8733 228.686,72.2066 216,52.5C 212.619,48.2407 209.119,44.0741 205.5,40C 200.91,36.3012 195.91,35.6345 190.5,38C 186.885,41.6189 184.051,45.7856 182,50.5C 172.076,72.104 164.243,94.4374 158.5,117.5C 158.586,118.496 158.252,119.329 157.5,120C 154.117,121.686 151.117,123.853 148.5,126.5C 157.915,93.0863 169.415,60.4196 183,28.5C 186.077,21.3404 189.91,14.6738 194.5,8.5C 198.442,10.9383 201.942,13.9383 205,17.5C 223.941,45.0314 240.608,74.0314 255,104.5C 256.039,105.71 257.206,106.71 258.5,107.5 Z"/></g>
<g><path style="opacity:1" fill="#b47d24" d="M 467.5,122.5 C 463.926,121.379 460.592,119.713 457.5,117.5C 451.88,91.1601 442.713,65.8268 430,41.5C 424.328,35.4382 418.162,34.9382 411.5,40C 405.152,46.536 399.652,53.7027 395,61.5C 385.491,77.8477 376.491,94.5144 368,111.5C 367.616,113.197 367.782,114.863 368.5,116.5C 365.594,116.957 362.928,117.957 360.5,119.5C 357.154,118.997 353.821,118.33 350.5,117.5C 351.893,113.714 353.559,110.048 355.5,106.5C 355.043,105.702 354.376,105.369 353.5,105.5C 357.957,102.889 358.624,104.055 355.5,109C 357.678,109.165 359.511,108.332 361,106.5C 375.937,74.9489 393.27,44.9489 413,16.5C 415.727,13.2694 418.894,10.6028 422.5,8.5C 423.892,9.60531 425.059,10.9386 426,12.5C 442.882,47.9743 456.715,84.641 467.5,122.5 Z"/></g>
<g><path style="opacity:1" fill="#0f0a03" d="M 248.5,114.5 C 247.152,117.508 244.818,118.841 241.5,118.5C 229.755,114.898 217.755,112.564 205.5,111.5C 192.811,112.504 180.811,115.671 169.5,121C 164.774,122.482 161.107,121.315 158.5,117.5C 164.243,94.4374 172.076,72.104 182,50.5C 184.051,45.7856 186.885,41.6189 190.5,38C 195.91,35.6345 200.91,36.3012 205.5,40C 209.119,44.0741 212.619,48.2407 216,52.5C 228.686,72.2066 239.52,92.8733 248.5,114.5 Z"/></g>
<g><path style="opacity:1" fill="#0f0a02" d="M 457.5,117.5 C 455.693,119.445 453.36,120.445 450.5,120.5C 438.703,115.802 426.37,112.802 413.5,111.5C 400.199,112.742 387.199,115.409 374.5,119.5C 371.692,119.922 369.692,118.922 368.5,116.5C 367.782,114.863 367.616,113.197 368,111.5C 376.491,94.5144 385.491,77.8477 395,61.5C 399.652,53.7027 405.152,46.536 411.5,40C 418.162,34.9382 424.328,35.4382 430,41.5C 442.713,65.8268 451.88,91.1601 457.5,117.5 Z"/></g>
<g><path style="opacity:1" fill="#d0a266" d="M 241.5,110.5 C 241.083,111.124 240.416,111.457 239.5,111.5C 214.192,102.309 189.525,103.642 165.5,115.5C 164.893,115.376 164.56,115.043 164.5,114.5C 171.093,90.6457 179.927,67.6457 191,45.5C 193.683,40.6686 197.183,40.1686 201.5,44C 211.564,55.4045 220.064,67.9045 227,81.5C 232.094,91.0777 236.928,100.744 241.5,110.5 Z"/></g>
<g><path style="opacity:1" fill="#d0a266" d="M 452.5,114.5 C 426.776,103.301 400.776,102.634 374.5,112.5C 384.79,90.5826 396.623,69.5826 410,49.5C 412.86,45.6285 416.526,42.9619 421,41.5C 422.944,42.4394 424.611,43.7727 426,45.5C 436.708,67.7916 445.541,90.7916 452.5,114.5 Z"/></g>
<g><path style="opacity:1" fill="#b58441" d="M 241.5,110.5 C 243.529,112.02 243.529,113.02 241.5,113.5C 215.719,103.557 190.386,104.557 165.5,116.5C 163.582,116.139 163.249,115.472 164.5,114.5C 164.56,115.043 164.893,115.376 165.5,115.5C 189.525,103.642 214.192,102.309 239.5,111.5C 240.416,111.457 241.083,111.124 241.5,110.5 Z"/></g>
<g><path style="opacity:1" fill="#b68542" d="M 452.5,114.5 C 452.938,114.435 453.272,114.601 453.5,115C 452.833,115.167 452.167,115.333 451.5,115.5C 432.845,107.149 413.511,104.983 393.5,109C 387.078,110.529 380.745,112.363 374.5,114.5C 372.094,114.19 372.094,113.523 374.5,112.5C 400.776,102.634 426.776,103.301 452.5,114.5 Z"/></g>
<g><path style="opacity:1" fill="#674816" d="M 260.5,103.5 C 260.893,105.284 261.559,106.95 262.5,108.5C 260.901,108.768 259.568,108.434 258.5,107.5C 259.239,107.631 259.906,107.464 260.5,107C 259.186,104.973 259.186,103.807 260.5,103.5 Z"/></g>
<g><path style="opacity:1" fill="#c28d44" d="M 248.5,114.5 C 251.86,116.18 255.193,117.847 258.5,119.5C 242.72,123.376 228.053,129.876 214.5,139C 181.379,164.118 153.879,194.284 132,229.5C 119.854,250.114 112.02,272.114 108.5,295.5C 108.5,294.5 108.5,293.5 108.5,292.5C 109.041,284.334 110.541,276.334 113,268.5C 113.712,240.243 116.712,212.243 122,184.5C 125.602,167.299 132.935,151.966 144,138.5C 146.003,134.654 147.503,130.654 148.5,126.5C 151.117,123.853 154.117,121.686 157.5,120C 158.252,119.329 158.586,118.496 158.5,117.5C 161.107,121.315 164.774,122.482 169.5,121C 180.811,115.671 192.811,112.504 205.5,111.5C 217.755,112.564 229.755,114.898 241.5,118.5C 244.818,118.841 247.152,117.508 248.5,114.5 Z"/></g>
<g><path style="opacity:1" fill="#c38d44" d="M 457.5,117.5 C 460.592,119.713 463.926,121.379 467.5,122.5C 468.508,126.19 469.674,129.857 471,133.5C 484.142,148.116 492.809,165.116 497,184.5C 502.09,210.915 504.757,237.582 505,264.5C 508.57,273.85 510.403,283.516 510.5,293.5C 505.172,264.496 494.005,237.829 477,213.5C 456.581,184.414 432.081,159.247 403.5,138C 397.822,134.159 391.822,130.826 385.5,128C 377.01,125.303 368.677,122.47 360.5,119.5C 362.928,117.957 365.594,116.957 368.5,116.5C 369.692,118.922 371.692,119.922 374.5,119.5C 387.199,115.409 400.199,112.742 413.5,111.5C 426.37,112.802 438.703,115.802 450.5,120.5C 453.36,120.445 455.693,119.445 457.5,117.5 Z"/></g>
<g><path style="opacity:1" fill="#cfa166" d="M 353.5,105.5 C 354.376,105.369 355.043,105.702 355.5,106.5C 353.559,110.048 351.893,113.714 350.5,117.5C 353.821,118.33 357.154,118.997 360.5,119.5C 368.677,122.47 377.01,125.303 385.5,128C 391.822,130.826 397.822,134.159 403.5,138C 432.081,159.247 456.581,184.414 477,213.5C 494.005,237.829 505.172,264.496 510.5,293.5C 510.5,301.833 510.5,310.167 510.5,318.5C 508.235,327.383 507.235,336.55 507.5,346C 507.924,358.574 508.757,371.074 510,383.5C 508.493,384.535 506.993,384.368 505.5,383C 503.667,380.5 501.833,378 500,375.5C 499.854,382.084 501.188,388.418 504,394.5C 507.555,402.267 511.055,409.934 514.5,417.5C 515.588,419.516 516.588,421.683 517.5,424C 517.361,425.301 516.695,426.134 515.5,426.5C 513.692,426.509 512.025,426.009 510.5,425C 506.357,420.767 502.023,416.767 497.5,413C 496.517,412.409 495.85,412.743 495.5,414C 492.653,422.276 490.819,430.776 490,439.5C 488.613,453.807 487.613,468.14 487,482.5C 486.309,491.362 484.643,500.029 482,508.5C 480.333,512.5 478.667,512.5 477,508.5C 473.517,498.717 470.85,488.717 469,478.5C 469.366,494.039 465.533,508.373 457.5,521.5C 455.5,523.833 453.5,526.167 451.5,528.5C 450.5,528.5 449.5,528.5 448.5,528.5C 446.837,515.865 445.337,503.198 444,490.5C 443.692,489.692 443.192,489.025 442.5,488.5C 441.331,503.538 439.831,518.538 438,533.5C 437.167,535.667 435.667,537.167 433.5,538C 429.371,539.949 425.037,541.116 420.5,541.5C 419.004,530.884 417.837,520.218 417,509.5C 416.751,508.376 416.251,507.376 415.5,506.5C 410.105,513.958 405.772,521.958 402.5,530.5C 402.672,531.492 402.338,532.158 401.5,532.5C 399.684,534.118 398.351,536.118 397.5,538.5C 395.901,540.604 394.068,542.604 392,544.5C 390.837,542.715 390.17,540.715 390,538.5C 388.258,519.196 386.924,499.862 386,480.5C 378.553,488.227 369.887,494.227 360,498.5C 359.626,496.102 359.626,493.769 360,491.5C 352.776,500.801 343.276,505.968 331.5,507C 311.436,511.295 291.769,509.962 272.5,503C 267.373,499.541 262.873,495.374 259,490.5C 259.253,493.133 259.253,495.8 259,498.5C 249.627,494.317 241.294,488.651 234,481.5C 233.087,496.155 232.42,510.822 232,525.5C 230.488,530.393 229.488,535.393 229,540.5C 227.183,545.407 224.683,545.74 221.5,541.5C 219.75,540.341 218.75,538.674 218.5,536.5C 214.294,525.751 208.794,515.751 202,506.5C 201.062,518.204 199.895,529.871 198.5,541.5C 192.153,541.001 186.653,538.667 182,534.5C 181.012,531.576 180.346,528.576 180,525.5C 179.373,513.129 178.373,500.796 177,488.5C 175.054,491.139 174.054,494.139 174,497.5C 173.376,507.526 172.543,517.526 171.5,527.5C 171.38,528.586 170.713,529.253 169.5,529.5C 166.146,526.812 163.146,523.812 160.5,520.5C 153.934,508.026 150.434,494.693 150,480.5C 148.11,490.394 145.444,500.06 142,509.5C 140.488,511.957 139.154,511.957 138,509.5C 136.052,504.658 134.719,499.658 134,494.5C 132.251,475.176 130.584,455.843 129,436.5C 128.057,428.673 126.39,421.006 124,413.5C 123.282,412.549 122.449,412.383 121.5,413C 116.644,419.237 110.644,423.737 103.5,426.5C 102.853,425.726 102.52,424.726 102.5,423.5C 102.886,421.068 103.553,418.734 104.5,416.5C 112.486,403.868 117.653,390.201 120,375.5C 117.618,378.427 115.118,381.261 112.5,384C 111.552,384.483 110.552,384.649 109.5,384.5C 110.826,371.879 111.493,359.212 111.5,346.5C 110.59,329.475 109.59,312.475 108.5,295.5C 112.02,272.114 119.854,250.114 132,229.5C 153.879,194.284 181.379,164.118 214.5,139C 228.053,129.876 242.72,123.376 258.5,119.5C 261.096,118.735 263.763,118.401 266.5,118.5C 265.724,114.948 264.391,111.614 262.5,108.5C 261.559,106.95 260.893,105.284 260.5,103.5C 267.455,102.978 272.788,105.644 276.5,111.5C 277.723,112.614 279.056,112.781 280.5,112C 281.02,104.208 281.353,96.3743 281.5,88.5C 284.522,90.6881 287.022,93.3548 289,96.5C 292.27,102.04 295.27,107.707 298,113.5C 299.444,115.155 301.278,115.822 303.5,115.5C 303.5,104.167 303.5,92.8333 303.5,81.5C 306.263,81.7438 308.429,83.0771 310,85.5C 315.106,95.3779 319.939,105.378 324.5,115.5C 329.923,104.986 335.09,94.3198 340,83.5C 340.875,80.7854 342.708,79.4521 345.5,79.5C 344.901,85.5238 344.068,91.5238 343,97.5C 342.333,102.5 342.333,107.5 343,112.5C 343.423,113.956 344.256,114.456 345.5,114C 347.695,110.641 350.362,107.807 353.5,105.5 Z"/></g>
<g><path style="opacity:1" fill="#c48e45" d="M 439.5,388.5 C 442.712,339.009 440.212,289.676 432,240.5C 427.797,220.331 417.297,204.498 400.5,193C 383.366,184.246 366.366,184.579 349.5,194C 345.001,197.007 340.668,200.174 336.5,203.5C 328.214,200.411 319.714,198.411 311,197.5C 301.074,197.524 291.574,199.524 282.5,203.5C 266.532,188.571 247.865,183.738 226.5,189C 207.924,197.582 195.757,211.749 190,231.5C 184.087,253.073 180.754,275.073 180,297.5C 179.619,322.169 179.119,346.836 178.5,371.5C 178.5,377.676 178.834,383.676 179.5,389.5C 165.452,415.811 156.286,443.811 152,473.5C 153.464,458.553 154.797,443.553 156,428.5C 155.628,367.437 164.295,307.77 182,249.5C 192.508,214.138 209.508,182.471 233,154.5C 263.472,120.695 300.639,110.528 344.5,124C 363.91,133.398 380.41,146.565 394,163.5C 416.119,194.079 432.119,227.745 442,264.5C 449.335,293.51 455.002,322.843 459,352.5C 461.106,394.262 464.106,435.929 468,477.5C 463.805,446.084 454.305,416.417 439.5,388.5 Z"/></g>
<g><path style="opacity:1" fill="#b88025" d="M 439.5,388.5 C 421.574,354.408 396.24,327.241 363.5,307C 321.608,285.512 281.275,288.178 242.5,315C 215.509,334.845 194.509,359.678 179.5,389.5C 178.834,383.676 178.5,377.676 178.5,371.5C 179.119,346.836 179.619,322.169 180,297.5C 180.754,275.073 184.087,253.073 190,231.5C 195.757,211.749 207.924,197.582 226.5,189C 247.865,183.738 266.532,188.571 282.5,203.5C 291.574,199.524 301.074,197.524 311,197.5C 319.714,198.411 328.214,200.411 336.5,203.5C 340.668,200.174 345.001,197.007 349.5,194C 366.366,184.579 383.366,184.246 400.5,193C 417.297,204.498 427.797,220.331 432,240.5C 440.212,289.676 442.712,339.009 439.5,388.5 Z"/></g>
<g><path style="opacity:1" fill="#312826" d="M 366.5,227.5 C 388.629,226.458 397.796,236.791 394,258.5C 386.748,271.251 376.248,275.084 362.5,270C 350.666,262.161 347.499,251.661 353,238.5C 356.213,233.107 360.713,229.441 366.5,227.5 Z"/></g>
<g><path style="opacity:1" fill="#f3f3f3" d="M 375.5,235.5 C 383.6,236.088 386.1,240.088 383,247.5C 379.333,251.5 375.667,251.5 372,247.5C 369.255,242.248 370.422,238.248 375.5,235.5 Z"/></g>
<g><path style="opacity:1" fill="#312826" d="M 237.5,227.5 C 258.328,225.498 268.161,234.831 267,255.5C 261.551,269.77 251.384,274.937 236.5,271C 224.471,264.103 220.304,253.937 224,240.5C 227.076,234.589 231.576,230.255 237.5,227.5 Z"/></g>
<g><path style="opacity:1" fill="#f3f3f3" d="M 247.5,235.5 C 255.6,236.088 258.1,240.088 255,247.5C 251.333,251.5 247.667,251.5 244,247.5C 241.255,242.248 242.422,238.248 247.5,235.5 Z"/></g>
<g><path style="opacity:1" fill="#302826" d="M 338.5,374.5 C 342.276,386.012 339.276,395.512 329.5,403C 323.053,407.113 316.886,411.613 311,416.5C 310.333,418.5 310.333,420.5 311,422.5C 327.407,427.227 343.907,431.227 360.5,434.5C 334.36,442.486 307.693,444.653 280.5,441C 272.313,439.287 264.313,436.953 256.5,434C 270.889,431.256 285.222,428.256 299.5,425C 304.803,424.382 306.97,421.548 306,416.5C 298.5,411 291,405.5 283.5,400C 277.278,393.329 275.112,385.496 277,376.5C 279.247,371.288 283.08,367.788 288.5,366C 303.912,361.201 318.912,362.201 333.5,369C 335.373,370.704 337.04,372.537 338.5,374.5 Z"/></g>
<g><path style="opacity:1" fill="#b48341" d="M 108.5,292.5 C 108.5,293.5 108.5,294.5 108.5,295.5C 109.59,312.475 110.59,329.475 111.5,346.5C 111.493,359.212 110.826,371.879 109.5,384.5C 110.552,384.649 111.552,384.483 112.5,384C 115.118,381.261 117.618,378.427 120,375.5C 117.653,390.201 112.486,403.868 104.5,416.5C 105.473,411.546 107.306,406.879 110,402.5C 110.191,396.917 110.691,391.417 111.5,386C 108.321,385.82 106.988,384.154 107.5,381C 109.194,369.894 110.194,358.728 110.5,347.5C 109.5,333.498 108.5,319.498 107.5,305.5C 107.501,300.987 107.834,296.653 108.5,292.5 Z"/></g>
<g><path style="opacity:1" fill="#c59961" d="M 338.5,374.5 C 355.737,391.071 372.737,408.071 389.5,425.5C 386.795,429.19 383.128,431.356 378.5,432C 372.486,432.901 366.486,433.734 360.5,434.5C 343.907,431.227 327.407,427.227 311,422.5C 310.333,420.5 310.333,418.5 311,416.5C 316.886,411.613 323.053,407.113 329.5,403C 339.276,395.512 342.276,386.012 338.5,374.5 Z"/></g>
<g><path style="opacity:1" fill="#bd8944" d="M 510.5,318.5 C 510.114,328.348 509.448,338.182 508.5,348C 509.543,360.505 510.543,373.005 511.5,385.5C 510.167,385.5 508.833,385.5 507.5,385.5C 507.122,395.141 509.289,404.141 514,412.5C 514.494,414.134 514.66,415.801 514.5,417.5C 511.055,409.934 507.555,402.267 504,394.5C 501.188,388.418 499.854,382.084 500,375.5C 501.833,378 503.667,380.5 505.5,383C 506.993,384.368 508.493,384.535 510,383.5C 508.757,371.074 507.924,358.574 507.5,346C 507.235,336.55 508.235,327.383 510.5,318.5 Z"/></g>
<g><path style="opacity:1" fill="#c28c44" d="M 160.5,520.5 C 159.883,520.611 159.383,520.944 159,521.5C 158.417,519.998 157.584,518.665 156.5,517.5C 135.274,542.228 110.107,561.894 81,576.5C 95.7388,527.965 104.905,478.299 108.5,427.5C 106.585,427.784 104.919,427.451 103.5,426.5C 110.644,423.737 116.644,419.237 121.5,413C 122.449,412.383 123.282,412.549 124,413.5C 126.39,421.006 128.057,428.673 129,436.5C 130.584,455.843 132.251,475.176 134,494.5C 134.719,499.658 136.052,504.658 138,509.5C 139.154,511.957 140.488,511.957 142,509.5C 145.444,500.06 148.11,490.394 150,480.5C 150.434,494.693 153.934,508.026 160.5,520.5 Z"/></g>
<g><path style="opacity:1" fill="#c28c44" d="M 515.5,426.5 C 514.081,427.451 512.415,427.784 510.5,427.5C 514.095,478.299 523.261,527.966 538,576.5C 508.749,561.875 483.415,542.208 462,517.5C 461.55,520.106 460.05,521.439 457.5,521.5C 465.533,508.373 469.366,494.039 469,478.5C 470.85,488.717 473.517,498.717 477,508.5C 478.667,512.5 480.333,512.5 482,508.5C 484.643,500.029 486.309,491.362 487,482.5C 487.613,468.14 488.613,453.807 490,439.5C 490.819,430.776 492.653,422.276 495.5,414C 495.85,412.743 496.517,412.409 497.5,413C 502.023,416.767 506.357,420.767 510.5,425C 512.025,426.009 513.692,426.509 515.5,426.5 Z"/></g>
<g><path style="opacity:1" fill="#b88025" d="M 397.5,538.5 C 397.5,538.833 397.5,539.167 397.5,539.5C 397.383,554.219 397.883,568.886 399,583.5C 391.402,575.238 384.568,566.405 378.5,557C 376.866,556.506 375.199,556.34 373.5,556.5C 367.012,544.878 362.178,532.545 359,519.5C 357.266,523.597 356.266,527.931 356,532.5C 355.229,539.485 354.729,546.485 354.5,553.5C 351.27,553.561 349.437,555.228 349,558.5C 348.667,564.167 348.333,569.833 348,575.5C 340.855,568.693 334.855,561.027 330,552.5C 326.952,548.99 323.619,548.657 320,551.5C 317.031,559.442 313.031,566.775 308,573.5C 305.376,567.399 303.376,561.065 302,554.5C 300.497,551.155 297.997,549.155 294.5,548.5C 292.626,548.39 291.126,549.056 290,550.5C 285.947,559.931 279.947,567.931 272,574.5C 271.609,568.137 270.942,561.803 270,555.5C 268.729,554.117 267.229,553.117 265.5,552.5C 265.141,541.319 263.641,530.319 261,519.5C 257.491,533.18 252.325,546.18 245.5,558.5C 243.801,558.34 242.134,558.506 240.5,559C 234.705,567.292 228.372,575.125 221.5,582.5C 221.834,568.83 221.834,555.163 221.5,541.5C 224.683,545.74 227.183,545.407 229,540.5C 229.488,535.393 230.488,530.393 232,525.5C 232.42,510.822 233.087,496.155 234,481.5C 241.294,488.651 249.627,494.317 259,498.5C 259.253,495.8 259.253,493.133 259,490.5C 262.873,495.374 267.373,499.541 272.5,503C 291.769,509.962 311.436,511.295 331.5,507C 343.276,505.968 352.776,500.801 360,491.5C 359.626,493.769 359.626,496.102 360,498.5C 369.887,494.227 378.553,488.227 386,480.5C 386.924,499.862 388.258,519.196 390,538.5C 390.17,540.715 390.837,542.715 392,544.5C 394.068,542.604 395.901,540.604 397.5,538.5 Z"/></g>
<g><path style="opacity:1" fill="#b67f25" d="M 218.5,536.5 C 216.694,534.911 215.361,532.911 214.5,530.5C 213.998,529.479 213.332,529.312 212.5,530C 201.032,552.477 184.866,570.977 164,585.5C 166.779,570.596 169.446,555.596 172,540.5C 172.814,535.98 172.647,531.646 171.5,527.5C 172.543,517.526 173.376,507.526 174,497.5C 174.054,494.139 175.054,491.139 177,488.5C 178.373,500.796 179.373,513.129 180,525.5C 180.346,528.576 181.012,531.576 182,534.5C 186.653,538.667 192.153,541.001 198.5,541.5C 199.895,529.871 201.062,518.204 202,506.5C 208.794,515.751 214.294,525.751 218.5,536.5 Z"/></g>
<g><path style="opacity:1" fill="#b67f25" d="M 451.5,528.5 C 450.432,529.434 449.099,529.768 447.5,529.5C 446.278,530.689 446.111,534.022 447,539.5C 449.887,554.934 452.887,570.268 456,585.5C 434.722,570.063 417.555,551.063 404.5,528.5C 403.818,529.243 403.151,529.909 402.5,530.5C 405.772,521.958 410.105,513.958 415.5,506.5C 416.251,507.376 416.751,508.376 417,509.5C 417.837,520.218 419.004,530.884 420.5,541.5C 425.037,541.116 429.371,539.949 433.5,538C 435.667,537.167 437.167,535.667 438,533.5C 439.831,518.538 441.331,503.538 442.5,488.5C 443.192,489.025 443.692,489.692 444,490.5C 445.337,503.198 446.837,515.865 448.5,528.5C 449.5,528.5 450.5,528.5 451.5,528.5 Z"/></g>
<g><path style="opacity:1" fill="#c28c43" d="M 265.5,552.5 C 259.568,555.916 253.735,559.582 248,563.5C 247.634,561.548 246.801,559.882 245.5,558.5C 252.325,546.18 257.491,533.18 261,519.5C 263.641,530.319 265.141,541.319 265.5,552.5 Z"/></g>
<g><path style="opacity:1" fill="#c28c43" d="M 373.5,556.5 C 372.132,558.605 371.132,560.939 370.5,563.5C 365.398,559.718 360.064,556.384 354.5,553.5C 354.729,546.485 355.229,539.485 356,532.5C 356.266,527.931 357.266,523.597 359,519.5C 362.178,532.545 367.012,544.878 373.5,556.5 Z"/></g>
<g><path style="opacity:1" fill="#6c4c16" d="M 401.5,532.5 C 400.921,535.331 399.588,537.664 397.5,539.5C 397.5,539.167 397.5,538.833 397.5,538.5C 398.351,536.118 399.684,534.118 401.5,532.5 Z"/></g>
</svg>
