<?xml version="1.0" encoding="UTF-8"?>
<!DOCTYPE svg PUBLIC "-//W3C//DTD SVG 1.1//EN" "http://www.w3.org/Graphics/SVG/1.1/DTD/svg11.dtd">
<svg xmlns="http://www.w3.org/2000/svg" version="1.1" width="600px" height="600px" style="shape-rendering:geometricPrecision; text-rendering:geometricPrecision; image-rendering:optimizeQuality; fill-rule:evenodd; clip-rule:evenodd" xmlns:xlink="http://www.w3.org/1999/xlink">
<g><path style="opacity:0.953" fill="#010101" d="M 113.5,-0.5 C 120.833,-0.5 128.167,-0.5 135.5,-0.5C 153.385,10.5491 168.218,24.8825 180,42.5C 187.917,54.6655 195.584,66.9988 203,79.5C 216.528,105.891 229.528,132.557 242,159.5C 243.046,161.09 244.213,162.59 245.5,164C 249.689,164.336 253.856,164.836 258,165.5C 271.793,164.159 285.627,163.493 299.5,163.5C 317.18,164.054 334.847,164.554 352.5,165C 354.359,163.442 355.859,161.609 357,159.5C 373.403,121.357 392.403,84.6901 414,49.5C 424.363,34.133 436.53,20.2997 450.5,8C 454.739,4.91027 459.072,2.07693 463.5,-0.5C 470.833,-0.5 478.167,-0.5 485.5,-0.5C 492.353,5.50086 497.52,12.8342 501,21.5C 506.734,36.7675 511.067,52.4342 514,68.5C 523.843,122.087 529.51,176.087 531,230.5C 529.285,242.312 525.951,253.646 521,264.5C 514.845,275.809 509.512,287.475 505,299.5C 503.044,331.102 499.044,362.435 493,393.5C 483.146,436.237 461.812,471.904 429,500.5C 423.722,506.718 419.722,513.718 417,521.5C 413.822,533.212 410.489,544.878 407,556.5C 402.688,568.961 395.521,579.461 385.5,588C 381.952,589.941 378.286,591.607 374.5,593C 358.842,591.909 343.842,594.075 329.5,599.5C 309.5,599.5 289.5,599.5 269.5,599.5C 255.146,594.076 240.146,591.909 224.5,593C 213.432,587.594 204.599,579.76 198,569.5C 196.607,565.714 194.941,562.048 193,558.5C 189,545.167 185,531.833 181,518.5C 178.423,512.34 175.09,506.673 171,501.5C 141.875,475.608 121.541,443.941 110,406.5C 100.895,372.767 95.8953,338.434 95,303.5C 90.7143,289.926 85.0476,276.926 78,264.5C 70.9496,249.799 67.4496,234.299 67.5,218C 70.4657,157.44 78.6324,97.6063 92,38.5C 95.1152,26.6056 100.115,15.6056 107,5.5C 109.063,3.26589 111.229,1.26589 113.5,-0.5 Z"/></g>
<g><path style="opacity:1" fill="#3d3938" d="M 238.5,171.5 C 226.21,173.474 214.877,177.974 204.5,185C 167.164,210.334 134.997,241.167 108,277.5C 104.443,282.273 102.943,287.606 103.5,293.5C 96.7751,279.711 90.2751,265.711 84,251.5C 79.7171,240.919 77.5504,229.919 77.5,218.5C 80.6647,168.851 86.498,119.518 95,70.5C 98.1459,50.3955 104.479,31.3955 114,13.5C 117.231,8.46562 121.731,6.63228 127.5,8C 139.071,13.891 149.237,21.7243 158,31.5C 172.403,49.2958 185.07,68.2958 196,88.5C 209.052,114.327 221.718,140.327 234,166.5C 235.059,168.659 236.559,170.326 238.5,171.5 Z"/></g>
<g><path style="opacity:1" fill="#3e3938" d="M 481.5,393.5 C 458.44,420.174 431.44,442.841 400.5,461.5C 398.272,460.781 396.439,459.448 395,457.5C 391.919,451.669 388.585,446.002 385,440.5C 369.951,421.785 355.284,402.785 341,383.5C 315.876,341.666 305.209,296.333 309,247.5C 310.556,234.383 312.89,221.383 316,208.5C 318.946,199.942 322.946,191.942 328,184.5C 331.161,180.491 334.994,177.491 339.5,175.5C 344.489,176.222 349.489,176.388 354.5,176C 358.299,173.203 361.799,170.036 365,166.5C 379.612,134.609 395.279,103.276 412,72.5C 423.812,51.0154 438.979,32.182 457.5,16C 461.569,12.9368 465.902,10.2701 470.5,8C 476.658,6.32837 481.491,8.1617 485,13.5C 496.013,34.8721 503.013,57.5387 506,81.5C 513.469,126.056 518.303,170.889 520.5,216C 520.551,223.878 520.051,231.711 519,239.5C 513.89,255.494 507.223,270.827 499,285.5C 496.934,290.363 495.268,295.363 494,300.5C 492.85,332.05 488.683,363.05 481.5,393.5 Z"/></g>
<g><path style="opacity:1" fill="#090503" d="M 125.5,38.5 C 128.187,38.3359 130.854,38.5026 133.5,39C 137.783,41.6153 141.783,44.6153 145.5,48C 170.197,75.2091 188.364,106.376 200,141.5C 205.149,163.726 198.315,181.226 179.5,194C 172.167,199 164.833,204 157.5,209C 145.456,219.379 133.123,229.379 120.5,239C 114.582,242.331 108.249,243.331 101.5,242C 97.6749,239.512 95.5082,236.012 95,231.5C 94.3333,224.5 94.3333,217.5 95,210.5C 98.6671,192.499 102.334,174.499 106,156.5C 107.79,129.173 109.457,101.84 111,74.5C 112.179,63.1045 115.512,52.4378 121,42.5C 122.397,40.9297 123.897,39.5964 125.5,38.5 Z"/></g>
<g><path style="opacity:1" fill="#090503" d="M 465.5,38.5 C 472.128,37.231 476.961,39.5644 480,45.5C 484.066,54.7641 486.733,64.4308 488,74.5C 489.543,101.84 491.21,129.173 493,156.5C 496.666,174.499 500.333,192.499 504,210.5C 504.667,217.5 504.667,224.5 504,231.5C 501.521,242.072 495.021,245.572 484.5,242C 482.5,241 480.5,240 478.5,239C 465.877,229.379 453.544,219.379 441.5,209C 428.524,201.363 416.69,192.196 406,181.5C 397.49,169.365 395.156,156.032 399,141.5C 410.636,106.376 428.803,75.2091 453.5,48C 457.399,44.5887 461.399,41.4221 465.5,38.5 Z"/></g>
<g><path style="opacity:1" fill="#c56b1d" d="M 127.5,43.5 C 129.655,43.372 131.655,43.872 133.5,45C 148.926,58.7562 161.759,74.5895 172,92.5C 182.455,109.744 190.455,128.078 196,147.5C 198.058,158.596 195.725,168.596 189,177.5C 185.5,181 182,184.5 178.5,188C 158.752,200.88 140.085,215.213 122.5,231C 118.455,234.523 113.789,236.689 108.5,237.5C 103.728,237.564 100.894,235.23 100,230.5C 99.3333,223.833 99.3333,217.167 100,210.5C 103.669,193.158 107.336,175.825 111,158.5C 112.606,128.469 114.606,98.4689 117,68.5C 118.342,59.1627 121.842,50.8294 127.5,43.5 Z"/></g>
<g><path style="opacity:1" fill="#c56b1d" d="M 467.5,43.5 C 471.526,43.6766 474.359,45.6766 476,49.5C 478.771,55.5806 480.771,61.9139 482,68.5C 484.394,98.4689 486.394,128.469 488,158.5C 491.664,175.825 495.331,193.158 499,210.5C 499.667,217.167 499.667,223.833 499,230.5C 497.202,236.984 493.035,239.151 486.5,237C 473.414,229.117 461.414,219.783 450.5,209C 440.777,201.611 430.777,194.611 420.5,188C 411.786,181.384 405.953,172.884 403,162.5C 402.226,155.776 402.559,149.11 404,142.5C 413.843,114.14 427.843,88.1404 446,64.5C 452.399,56.5993 459.566,49.5993 467.5,43.5 Z"/></g>
<g><path style="opacity:1" fill="#6c6f72" d="M 238.5,171.5 C 239.987,172.804 241.654,173.97 243.5,175C 253.512,175.547 263.512,175.38 273.5,174.5C 271.031,175.317 268.365,175.817 265.5,176C 268.629,179.752 271.129,183.919 273,188.5C 282.386,251.645 276.386,313.311 255,373.5C 245.988,399.178 228.822,417.012 203.5,427C 181.022,435.328 158.022,438.828 134.5,437.5C 130.761,431.894 127.595,425.894 125,419.5C 112.829,381.805 106.495,343.138 106,303.5C 105.057,300.176 104.224,296.843 103.5,293.5C 102.943,287.606 104.443,282.273 108,277.5C 134.997,241.167 167.164,210.334 204.5,185C 214.877,177.974 226.21,173.474 238.5,171.5 Z"/></g>
<g><path style="opacity:1" fill="#d1d1d2" d="M 339.5,175.5 C 334.994,177.491 331.161,180.491 328,184.5C 322.946,191.942 318.946,199.942 316,208.5C 312.89,221.383 310.556,234.383 309,247.5C 305.209,296.333 315.876,341.666 341,383.5C 355.284,402.785 369.951,421.785 385,440.5C 388.585,446.002 391.919,451.669 395,457.5C 396.439,459.448 398.272,460.781 400.5,461.5C 431.44,442.841 458.44,420.174 481.5,393.5C 471.587,434.351 450.754,468.351 419,495.5C 413.722,501.718 409.722,508.718 407,516.5C 403.822,528.212 400.489,539.878 397,551.5C 393.641,561.729 388.141,570.562 380.5,578C 370.809,583.487 360.475,584.987 349.5,582.5C 346.024,583.104 342.691,584.104 339.5,585.5C 331.356,583.758 324.022,580.425 317.5,575.5C 311.873,571.528 305.873,568.195 299.5,565.5C 293.362,568.266 287.696,571.6 282.5,575.5C 275.732,580.713 268.065,584.046 259.5,585.5C 256.045,584.404 252.545,583.404 249,582.5C 242.193,583.572 235.36,583.739 228.5,583C 215.723,576.888 207.223,567.055 203,553.5C 199,540.167 195,526.833 191,513.5C 185.303,500.465 176.637,489.798 165,481.5C 155.899,471.068 147.565,460.068 140,448.5C 138.14,444.78 136.307,441.114 134.5,437.5C 158.022,438.828 181.022,435.328 203.5,427C 228.822,417.012 245.988,399.178 255,373.5C 276.386,313.311 282.386,251.645 273,188.5C 271.129,183.919 268.629,179.752 265.5,176C 268.365,175.817 271.031,175.317 273.5,174.5C 295.52,173.258 317.52,173.592 339.5,175.5 Z"/></g>
<g><path style="opacity:1" fill="#c36a20" d="M 201.5,303.5 C 228.844,303.678 242.678,317.345 243,344.5C 237.633,366.866 223.467,377.366 200.5,376C 179.357,369.834 169.524,355.667 171,333.5C 175.164,317.167 185.331,307.167 201.5,303.5 Z"/></g>
<g><path style="opacity:1" fill="#c2691f" d="M 384.5,303.5 C 413.858,303.026 428.358,317.359 428,346.5C 421.612,368.212 407.112,378.045 384.5,376C 363.343,369.17 353.843,354.67 356,332.5C 360.35,317.651 369.85,307.985 384.5,303.5 Z"/></g>
<g><path style="opacity:1" fill="#302725" d="M 206.5,314.5 C 225.405,316.909 233.572,327.575 231,346.5C 224.778,362.671 213.278,368.171 196.5,363C 181.213,352.599 178.38,339.432 188,323.5C 193.031,317.924 199.197,314.924 206.5,314.5 Z"/></g>
<g><path style="opacity:1" fill="#302725" d="M 391.5,314.5 C 411.426,317.941 419.259,329.608 415,349.5C 407.693,363.165 396.527,367.665 381.5,363C 371.319,357.631 366.319,349.131 366.5,337.5C 369.499,323.828 377.832,316.161 391.5,314.5 Z"/></g>
<g><path style="opacity:1" fill="#ecebeb" d="M 212.5,327.5 C 219.997,326.804 221.997,329.637 218.5,336C 211.188,336.871 209.188,334.038 212.5,327.5 Z"/></g>
<g><path style="opacity:1" fill="#f8f7f7" d="M 398.5,327.5 C 405.486,327.331 407.153,330.164 403.5,336C 396.416,336.475 394.749,333.642 398.5,327.5 Z"/></g>
<g><path style="opacity:1" fill="#372f2c" d="M 295.5,474.5 C 306.273,475.206 316.94,476.706 327.5,479C 347.524,489.758 351.024,504.592 338,523.5C 312.253,548.822 286.587,548.822 261,523.5C 252.189,512.959 250.855,501.626 257,489.5C 262.199,484.759 268.032,480.925 274.5,478C 281.656,476.96 288.656,475.793 295.5,474.5 Z"/></g>
<g><path style="opacity:1" fill="#332c2a" d="M 317.5,575.5 C 311.749,577.04 305.749,577.706 299.5,577.5C 295.167,577.333 290.833,577.167 286.5,577C 284.942,576.79 283.609,576.29 282.5,575.5C 287.696,571.6 293.362,568.266 299.5,565.5C 305.873,568.195 311.873,571.528 317.5,575.5 Z"/></g>
<g><path style="opacity:1" fill="#868787" d="M 282.5,575.5 C 283.609,576.29 284.942,576.79 286.5,577C 290.833,577.167 295.167,577.333 299.5,577.5C 305.749,577.706 311.749,577.04 317.5,575.5C 324.022,580.425 331.356,583.758 339.5,585.5C 312.862,593.498 286.195,593.498 259.5,585.5C 268.065,584.046 275.732,580.713 282.5,575.5 Z"/></g>
</svg>
