<?xml version="1.0" encoding="UTF-8"?>
<!DOCTYPE svg PUBLIC "-//W3C//DTD SVG 1.1//EN" "http://www.w3.org/Graphics/SVG/1.1/DTD/svg11.dtd">
<svg xmlns="http://www.w3.org/2000/svg" version="1.1" width="600px" height="600px" style="shape-rendering:geometricPrecision; text-rendering:geometricPrecision; image-rendering:optimizeQuality; fill-rule:evenodd; clip-rule:evenodd" xmlns:xlink="http://www.w3.org/1999/xlink">
<g><path style="opacity:0.949" fill="#010000" d="M 155.5,-0.5 C 164.167,-0.5 172.833,-0.5 181.5,-0.5C 192.27,5.72336 202.936,12.2234 213.5,19C 221.167,21.1858 229.001,22.3524 237,22.5C 248.147,20.6712 259.314,18.8379 270.5,17C 298.808,13.797 326.808,15.4637 354.5,22C 366.317,23.2739 377.651,21.6073 388.5,17C 397.898,10.6381 407.565,4.80477 417.5,-0.5C 426.167,-0.5 434.833,-0.5 443.5,-0.5C 444.45,2.0679 444.45,4.5679 443.5,7C 451.536,8.36976 456.203,13.0364 457.5,21C 490.313,31.655 520.48,47.155 548,67.5C 558.026,78.5953 562.026,91.5953 560,106.5C 552.565,138.338 549.732,170.505 551.5,203C 549.436,218.87 540.436,225.87 524.5,224C 520.057,223.128 515.724,221.962 511.5,220.5C 510.833,222.819 510.666,225.153 511,227.5C 517.408,233.238 523.075,239.571 528,246.5C 529.974,254.051 527.474,259.551 520.5,263C 515.675,264.895 510.675,265.728 505.5,265.5C 504.772,280.15 504.272,294.816 504,309.5C 503.079,321.027 501.079,332.36 498,343.5C 502.229,386.345 494.896,427.011 476,465.5C 468.363,478.476 459.196,490.31 448.5,501C 442.38,506.813 435.213,509.313 427,508.5C 418.419,528.173 405.252,544.006 387.5,556C 383.501,557.458 379.501,557.958 375.5,557.5C 369.394,566.441 362.061,574.274 353.5,581C 342.057,587.72 330.39,593.887 318.5,599.5C 305.5,599.5 292.5,599.5 279.5,599.5C 266.617,593.724 254.283,586.89 242.5,579C 235.237,572.576 228.904,565.409 223.5,557.5C 217.155,557.914 211.155,556.414 205.5,553C 190.873,540.715 179.706,525.882 172,508.5C 164.364,509.21 157.531,507.043 151.5,502C 124.613,475.394 108.446,443.227 103,405.5C 100.622,385.545 99.9551,365.545 101,345.5C 94.533,319.233 92.033,292.566 93.5,265.5C 85.8221,266.072 78.9887,264.072 73,259.5C 68.3115,252.928 68.6449,246.595 74,240.5C 78.9675,236.534 83.6342,232.201 88,227.5C 88.2361,224.774 87.4028,222.441 85.5,220.5C 77.4595,224.504 69.1262,225.337 60.5,223C 51.8321,218.344 47.4987,211.011 47.5,201C 48.5659,166.591 45.2326,132.591 37.5,99C 38.3595,84.9487 44.0262,73.282 54.5,64C 81.2145,45.9761 109.881,31.6427 140.5,21C 141.808,13.5258 146.142,9.02582 153.5,7.5C 154.26,4.81326 154.927,2.14659 155.5,-0.5 Z"/></g>
<g><path style="opacity:1" fill="#5a4437" d="M 242.5,33.5 C 243.598,34.397 243.598,35.2303 242.5,36C 209.577,43.699 185.411,62.5323 170,92.5C 158.957,116.922 146.624,140.589 133,163.5C 123.384,177.615 111.884,189.948 98.5,200.5C 91.0878,206.542 82.7545,211.042 73.5,214C 66.9661,215.493 62.1328,213.327 59,207.5C 58.7882,189.48 58.1215,171.48 57,153.5C 54.6518,135.245 51.8184,117.078 48.5,99C 48.7202,86.8937 53.7202,77.227 63.5,70C 92.3292,51.0871 123.329,36.7537 156.5,27C 157.451,26.2825 157.617,25.4491 157,24.5C 155.315,22.9825 153.815,21.3159 152.5,19.5C 154.167,19.1667 155.833,18.8333 157.5,18.5C 161.507,19.1727 165.507,19.8394 169.5,20.5C 167.833,14.5 166.167,8.5 164.5,2.5C 165.873,2.34332 167.207,2.50999 168.5,3C 171.319,5.57498 174.319,7.90832 177.5,10C 188.99,15.5752 199.99,21.9086 210.5,29C 221.01,31.607 231.676,33.107 242.5,33.5 Z"/></g>
<g><path style="opacity:1" fill="#5a4437" d="M 499.5,200.5 C 478.025,182.174 461.191,160.174 449,134.5C 440.036,114.57 430.036,95.2369 419,76.5C 402.926,55.8663 382.093,42.3663 356.5,36C 355.748,35.3292 355.414,34.4959 355.5,33.5C 367.486,33.5668 379.153,31.7335 390.5,28C 404.602,18.9551 418.936,10.4551 433.5,2.5C 432.999,8.17549 431.333,13.5088 428.5,18.5C 428.709,19.086 429.043,19.586 429.5,20C 433.408,19.4581 437.408,18.9581 441.5,18.5C 447.689,18.8972 447.856,20.5639 442,23.5C 441.316,24.7839 441.483,25.9505 442.5,27C 476.886,37.5278 508.886,52.8611 538.5,73C 545.861,79.8903 549.861,88.3903 550.5,98.5C 544.087,127.304 540.42,156.471 539.5,186C 539.602,191.018 539.936,196.018 540.5,201C 540.415,211.089 535.415,215.422 525.5,214C 516.125,210.813 507.458,206.313 499.5,200.5 Z"/></g>
<g><path style="opacity:1" fill="#4b382d" d="M 355.5,33.5 C 355.414,34.4959 355.748,35.3292 356.5,36C 382.093,42.3663 402.926,55.8663 419,76.5C 430.036,95.2369 440.036,114.57 449,134.5C 461.191,160.174 478.025,182.174 499.5,200.5C 500.172,207.863 500.172,215.197 499.5,222.5C 496.906,221.408 494.739,219.741 493,217.5C 492.333,218.833 492.333,220.167 493,221.5C 494.608,224.772 496.608,227.772 499,230.5C 505.681,237.014 512.181,243.681 518.5,250.5C 517.636,252.197 516.303,253.363 514.5,254C 509.5,254.333 504.5,254.667 499.5,255C 497.396,256.693 495.896,258.86 495,261.5C 495.432,285.663 493.766,309.663 490,333.5C 489.122,337.052 487.956,340.386 486.5,343.5C 485.127,343.657 483.793,343.49 482.5,343C 481.468,341.373 480.134,340.207 478.5,339.5C 474.087,309.761 465.92,281.095 454,253.5C 445.321,237.923 432.821,234.09 416.5,242C 408.5,245.667 400.5,249.333 392.5,253C 385.965,255.134 379.298,256.634 372.5,257.5C 361.028,239.828 350.528,221.495 341,202.5C 330.072,180.953 324.238,158.119 323.5,134C 325.139,115.527 325.639,97.0266 325,78.5C 323.682,65.1899 318.515,53.6899 309.5,44C 299.501,38.4558 291.001,40.2891 284,49.5C 275.737,63.1372 271.903,77.9706 272.5,94C 274.011,112.478 274.511,130.978 274,149.5C 270.259,172.055 262.926,193.389 252,213.5C 243.392,228.396 234.559,243.063 225.5,257.5C 219.758,256.765 214.091,255.598 208.5,254C 197.837,248.501 186.837,243.834 175.5,240C 161.823,235.778 151.656,239.944 145,252.5C 137.012,268.775 131.012,285.775 127,303.5C 124.305,315.14 121.805,326.807 119.5,338.5C 118.002,341.331 115.669,342.998 112.5,343.5C 111.442,342.4 110.608,341.066 110,339.5C 108.178,332.265 106.845,324.932 106,317.5C 105.1,298.15 104.1,278.816 103,259.5C 102.167,257.333 100.667,255.833 98.5,255C 93.1667,254.667 87.8333,254.333 82.5,254C 80.6751,252.534 80.1751,250.701 81,248.5C 89,241.833 96.3333,234.5 103,226.5C 104.303,224.06 105.47,221.56 106.5,219C 106.167,218.5 105.833,218 105.5,217.5C 103.777,220.694 101.111,222.361 97.5,222.5C 97.7091,216.619 98.3758,210.786 99.5,205C 99.4915,203.293 99.1582,201.793 98.5,200.5C 111.884,189.948 123.384,177.615 133,163.5C 146.624,140.589 158.957,116.922 170,92.5C 185.411,62.5323 209.577,43.699 242.5,36C 243.598,35.2303 243.598,34.397 242.5,33.5C 260.442,27.8677 278.942,25.5344 298,26.5C 317.7,25.7222 336.867,28.0556 355.5,33.5 Z"/></g>
<g><path style="opacity:1" fill="#0a0706" d="M 372.5,257.5 C 380.733,272.767 384.733,289.1 384.5,306.5C 382.499,327.014 371.499,340.181 351.5,346C 342.506,346.5 333.506,346.666 324.5,346.5C 316.171,345.834 307.838,345.168 299.5,344.5C 291.481,345.003 283.481,345.669 275.5,346.5C 266.161,346.666 256.827,346.5 247.5,346C 222.353,338.645 211.353,321.811 214.5,295.5C 215.737,282.124 219.403,269.458 225.5,257.5C 234.559,243.063 243.392,228.396 252,213.5C 262.926,193.389 270.259,172.055 274,149.5C 274.511,130.978 274.011,112.478 272.5,94C 271.903,77.9706 275.737,63.1372 284,49.5C 291.001,40.2891 299.501,38.4558 309.5,44C 318.515,53.6899 323.682,65.1899 325,78.5C 325.639,97.0266 325.139,115.527 323.5,134C 324.238,158.119 330.072,180.953 341,202.5C 350.528,221.495 361.028,239.828 372.5,257.5 Z"/></g>
<g><path style="opacity:1" fill="#ededed" d="M 378.5,311.5 C 364.833,298.833 351.167,286.167 337.5,273.5C 332.494,265.992 325.494,261.492 316.5,260C 300.243,256.726 284.577,258.393 269.5,265C 259.993,272.186 256.827,281.686 260,293.5C 263.18,300.845 268.013,306.845 274.5,311.5C 282.582,320.084 290.916,328.584 299.5,337C 297.942,337.21 296.609,337.71 295.5,338.5C 291.267,338.539 287.267,339.205 283.5,340.5C 272.183,341.493 260.85,341.66 249.5,341C 231.877,337.282 221.877,326.449 219.5,308.5C 219.287,301.789 219.62,295.123 220.5,288.5C 221.957,281.295 224.123,274.295 227,267.5C 235.829,251.172 245.162,235.172 255,219.5C 267.392,197.657 275.392,174.323 279,149.5C 279.447,130.315 278.947,111.148 277.5,92C 277.139,75.4158 282.139,60.7491 292.5,48C 296.833,44.6667 301.167,44.6667 305.5,48C 313.579,56.5439 318.412,66.7105 320,78.5C 319.711,101.835 319.378,125.168 319,148.5C 323.658,177.474 333.658,204.474 349,229.5C 359.036,243.541 367.37,258.541 374,274.5C 379.183,286.402 380.683,298.735 378.5,311.5 Z"/></g>
<g><path style="opacity:1" fill="#a26623" d="M 237.5,111.5 C 250.583,112.918 257.583,120.251 258.5,133.5C 257.301,144.711 252.968,146.211 245.5,138C 238.725,135.534 232.892,131.7 228,126.5C 226,123.5 226,120.5 228,117.5C 230.843,114.837 234.009,112.837 237.5,111.5 Z"/></g>
<g><path style="opacity:1" fill="#a36623" d="M 354.5,111.5 C 361.099,111.215 366.599,113.549 371,118.5C 372.039,124.482 369.873,128.982 364.5,132C 357.561,134.713 351.394,138.546 346,143.5C 343.541,143.11 341.874,141.776 341,139.5C 338.826,126.85 343.326,117.517 354.5,111.5 Z"/></g>
<g><path style="opacity:1" fill="#5a4437" d="M 216.5,143.5 C 239.99,142.156 250.823,153.156 249,176.5C 240.458,195.015 226.958,199.848 208.5,191C 196.507,180.597 194.34,168.43 202,154.5C 205.912,149.478 210.745,145.811 216.5,143.5 Z"/></g>
<g><path style="opacity:1" fill="#5a4437" d="M 368.5,143.5 C 389.824,142.328 400.657,152.328 401,173.5C 396.279,189.885 385.446,197.052 368.5,195C 354.623,190.087 348.123,180.254 349,165.5C 351.479,154.525 357.979,147.192 368.5,143.5 Z"/></g>
<g><path style="opacity:1" fill="#302826" d="M 219.5,151.5 C 234.341,151.506 241.508,158.84 241,173.5C 235.339,186.055 226.173,189.555 213.5,184C 206.963,178.245 204.797,171.078 207,162.5C 210.148,157.509 214.314,153.843 219.5,151.5 Z"/></g>
<g><path style="opacity:1" fill="#312826" d="M 370.5,151.5 C 388.024,151.849 394.857,160.515 391,177.5C 385.64,185.625 378.14,188.458 368.5,186C 357.262,179.278 354.762,170.112 361,158.5C 364.068,155.917 367.235,153.584 370.5,151.5 Z"/></g>
<g><path style="opacity:1" fill="#eae9e9" d="M 227.5,157.5 C 232.325,157.488 234.491,159.821 234,164.5C 231.048,168.482 228.048,168.482 225,164.5C 224.333,163.167 224.333,161.833 225,160.5C 226.045,159.627 226.878,158.627 227.5,157.5 Z"/></g>
<g><path style="opacity:1" fill="#ededed" d="M 378.5,157.5 C 384.585,157.51 386.585,160.344 384.5,166C 378.086,168.593 375.586,166.426 377,159.5C 377.717,158.956 378.217,158.289 378.5,157.5 Z"/></g>
<g><path style="opacity:1" fill="#a46723" d="M 225.5,257.5 C 219.403,269.458 215.737,282.124 214.5,295.5C 213.681,298.305 213.181,301.305 213,304.5C 210.16,301.657 206.827,299.657 203,298.5C 201.167,299 200,300.167 199.5,302C 207.246,314.665 214.579,327.499 221.5,340.5C 211.915,340.861 202.915,343.361 194.5,348C 181.167,358 167.833,368 154.5,378C 148.936,381.576 142.936,384.076 136.5,385.5C 132.417,385.592 129.917,383.592 129,379.5C 125.178,365.856 122.012,352.189 119.5,338.5C 121.805,326.807 124.305,315.14 127,303.5C 131.012,285.775 137.012,268.775 145,252.5C 151.656,239.944 161.823,235.778 175.5,240C 186.837,243.834 197.837,248.501 208.5,254C 214.091,255.598 219.758,256.765 225.5,257.5 Z"/></g>
<g><path style="opacity:1" fill="#a46723" d="M 478.5,339.5 C 476.202,353.241 473.035,366.908 469,380.5C 467.75,383.759 465.417,385.425 462,385.5C 456.138,384.321 450.638,382.155 445.5,379C 432.167,369 418.833,359 405.5,349C 396.796,344.043 387.463,341.209 377.5,340.5C 380.147,334.371 382.98,328.371 386,322.5C 390.923,316.325 395.089,309.658 398.5,302.5C 398.573,298.927 396.906,297.76 393.5,299C 389.334,301.066 386.334,303.566 384.5,306.5C 384.733,289.1 380.733,272.767 372.5,257.5C 379.298,256.634 385.965,255.134 392.5,253C 400.5,249.333 408.5,245.667 416.5,242C 432.821,234.09 445.321,237.923 454,253.5C 465.92,281.095 474.087,309.761 478.5,339.5 Z"/></g>
<g><path style="opacity:1" fill="#080808" d="M 337.5,273.5 C 342.455,289.799 337.789,302.632 323.5,312C 312.383,319.692 300.383,321.692 287.5,318C 282.861,316.347 278.528,314.181 274.5,311.5C 268.013,306.845 263.18,300.845 260,293.5C 256.827,281.686 259.993,272.186 269.5,265C 284.577,258.393 300.243,256.726 316.5,260C 325.494,261.492 332.494,265.992 337.5,273.5 Z"/></g>
<g><path style="opacity:1" fill="#2f2725" d="M 296.5,263.5 C 308.479,262.744 319.479,265.578 329.5,272C 335.987,280.676 336.154,289.509 330,298.5C 311.292,318.67 291.626,319.67 271,301.5C 262.649,291.37 262.483,281.204 270.5,271C 278.675,266.295 287.341,263.795 296.5,263.5 Z"/></g>
<g><path style="opacity:1" fill="#e2e2e2" d="M 337.5,273.5 C 351.167,286.167 364.833,298.833 378.5,311.5C 374.618,328.715 363.951,338.715 346.5,341.5C 336.486,341.499 326.486,341.166 316.5,340.5C 312.802,340.448 309.135,340.114 305.5,339.5C 302.375,338.521 299.042,338.187 295.5,338.5C 296.609,337.71 297.942,337.21 299.5,337C 290.916,328.584 282.582,320.084 274.5,311.5C 278.528,314.181 282.861,316.347 287.5,318C 300.383,321.692 312.383,319.692 323.5,312C 337.789,302.632 342.455,289.799 337.5,273.5 Z"/></g>
<g><path style="opacity:1" fill="#4a3a2b" d="M 220.5,288.5 C 219.62,295.123 219.287,301.789 219.5,308.5C 218.347,302.681 218.181,296.681 219,290.5C 219.278,289.584 219.778,288.918 220.5,288.5 Z"/></g>
<g><path style="opacity:1" fill="#2a1d19" d="M 214.5,295.5 C 211.353,321.811 222.353,338.645 247.5,346C 256.827,346.5 266.161,346.666 275.5,346.5C 267.684,347.492 259.684,347.826 251.5,347.5C 251.546,361.901 253.212,376.068 256.5,390C 256.272,390.399 255.938,390.565 255.5,390.5C 254.833,390.5 254.5,390.167 254.5,389.5C 253.581,386.911 251.914,384.911 249.5,383.5C 238.463,370.467 229.13,356.133 221.5,340.5C 214.579,327.499 207.246,314.665 199.5,302C 200,300.167 201.167,299 203,298.5C 206.827,299.657 210.16,301.657 213,304.5C 213.181,301.305 213.681,298.305 214.5,295.5 Z"/></g>
<g><path style="opacity:1" fill="#281c18" d="M 377.5,340.5 C 369.783,356.643 360.116,371.31 348.5,384.5C 346.833,385.833 345.167,387.167 343.5,388.5C 345.637,374.918 346.97,361.251 347.5,347.5C 339.648,347.825 331.982,347.492 324.5,346.5C 333.506,346.666 342.506,346.5 351.5,346C 371.499,340.181 382.499,327.014 384.5,306.5C 386.334,303.566 389.334,301.066 393.5,299C 396.906,297.76 398.573,298.927 398.5,302.5C 395.089,309.658 390.923,316.325 386,322.5C 382.98,328.371 380.147,334.371 377.5,340.5 Z"/></g>
<g><path style="opacity:1" fill="#eeeeee" d="M 119.5,338.5 C 122.012,352.189 125.178,365.856 129,379.5C 129.917,383.592 132.417,385.592 136.5,385.5C 142.936,384.076 148.936,381.576 154.5,378C 167.833,368 181.167,358 194.5,348C 202.915,343.361 211.915,340.861 221.5,340.5C 229.13,356.133 238.463,370.467 249.5,383.5C 250.419,386.089 252.086,388.089 254.5,389.5C 254.5,390.167 254.833,390.5 255.5,390.5C 255.833,391.5 256.5,392.167 257.5,392.5C 265.164,421.61 283.83,432.776 313.5,426C 321.621,423.855 328.121,419.355 333,412.5C 336.713,405.742 339.879,398.742 342.5,391.5C 343.5,391.167 344.167,390.5 344.5,389.5C 346.587,388.415 347.92,386.749 348.5,384.5C 360.116,371.31 369.783,356.643 377.5,340.5C 387.463,341.209 396.796,344.043 405.5,349C 418.833,359 432.167,369 445.5,379C 450.638,382.155 456.138,384.321 462,385.5C 465.417,385.425 467.75,383.759 469,380.5C 473.035,366.908 476.202,353.241 478.5,339.5C 480.134,340.207 481.468,341.373 482.5,343C 483.793,343.49 485.127,343.657 486.5,343.5C 491.229,384.156 484.729,422.823 467,459.5C 459.183,473.302 449.35,485.468 437.5,496C 435.655,497.128 433.655,497.628 431.5,497.5C 431.855,492.151 432.022,486.818 432,481.5C 428.853,484.468 426.186,487.802 424,491.5C 417.586,503.329 410.92,514.996 404,526.5C 398.127,534.04 391.294,540.54 383.5,546C 381.051,546.775 379.384,545.942 378.5,543.5C 379.167,540.5 379.833,537.5 380.5,534.5C 379.998,533.479 379.332,533.312 378.5,534C 372.333,542.833 366.167,551.667 360,560.5C 353.989,567.08 347.156,572.58 339.5,577C 326.222,583.807 312.889,590.307 299.5,596.5C 281.908,588.705 264.908,579.871 248.5,570C 243.633,565.468 239.133,560.634 235,555.5C 230.056,547.557 224.723,539.891 219,532.5C 219.124,537.136 219.29,541.802 219.5,546.5C 216.575,546.54 213.909,545.707 211.5,544C 206.667,539.167 201.833,534.333 197,529.5C 187.829,515.163 179.163,500.496 171,485.5C 169.833,484.333 168.667,483.167 167.5,482C 166.668,481.312 166.002,481.479 165.5,482.5C 166.903,487.392 167.57,492.392 167.5,497.5C 163.562,497.365 160.228,495.865 157.5,493C 125.635,459.39 110.301,419.223 111.5,372.5C 112.287,362.848 112.621,353.182 112.5,343.5C 115.669,342.998 118.002,341.331 119.5,338.5 Z"/></g>
<g><path style="opacity:1" fill="#7f5757" d="M 295.5,338.5 C 299.042,338.187 302.375,338.521 305.5,339.5C 298.146,339.479 290.813,339.813 283.5,340.5C 287.267,339.205 291.267,338.539 295.5,338.5 Z"/></g>
<g><path style="opacity:1" fill="#ab8c8b" d="M 316.5,340.5 C 326.486,341.166 336.486,341.499 346.5,341.5C 336.457,342.879 326.457,342.546 316.5,340.5 Z"/></g>
<g><path style="opacity:1" fill="#e08b8d" d="M 324.5,346.5 C 331.982,347.492 339.648,347.825 347.5,347.5C 346.97,361.251 345.637,374.918 343.5,388.5C 342.443,389.206 342.776,389.539 344.5,389.5C 344.167,390.5 343.5,391.167 342.5,391.5C 341.624,391.369 340.957,391.702 340.5,392.5C 332.596,419.957 314.596,430.79 286.5,425C 277.311,422.145 270.144,416.645 265,408.5C 262.461,402.478 259.961,397.144 257.5,392.5C 256.5,392.167 255.833,391.5 255.5,390.5C 255.938,390.565 256.272,390.399 256.5,390C 253.212,376.068 251.546,361.901 251.5,347.5C 259.684,347.826 267.684,347.492 275.5,346.5C 283.481,345.669 291.481,345.003 299.5,344.5C 307.838,345.168 316.171,345.834 324.5,346.5 Z"/></g>
<g><path style="opacity:1" fill="#716b69" d="M 249.5,383.5 C 251.914,384.911 253.581,386.911 254.5,389.5C 252.086,388.089 250.419,386.089 249.5,383.5 Z"/></g>
<g><path style="opacity:1" fill="#7a7574" d="M 348.5,384.5 C 347.92,386.749 346.587,388.415 344.5,389.5C 342.776,389.539 342.443,389.206 343.5,388.5C 345.167,387.167 346.833,385.833 348.5,384.5 Z"/></g>
<g><path style="opacity:1" fill="#e6b5b6" d="M 342.5,391.5 C 339.879,398.742 336.713,405.742 333,412.5C 328.121,419.355 321.621,423.855 313.5,426C 283.83,432.776 265.164,421.61 257.5,392.5C 259.961,397.144 262.461,402.478 265,408.5C 270.144,416.645 277.311,422.145 286.5,425C 314.596,430.79 332.596,419.957 340.5,392.5C 340.957,391.702 341.624,391.369 342.5,391.5 Z"/></g>
</svg>
