<?xml version="1.0" encoding="UTF-8"?>
<!DOCTYPE svg PUBLIC "-//W3C//DTD SVG 1.1//EN" "http://www.w3.org/Graphics/SVG/1.1/DTD/svg11.dtd">
<svg xmlns="http://www.w3.org/2000/svg" version="1.1" width="600px" height="600px" style="shape-rendering:geometricPrecision; text-rendering:geometricPrecision; image-rendering:optimizeQuality; fill-rule:evenodd; clip-rule:evenodd" xmlns:xlink="http://www.w3.org/1999/xlink">
<g><path style="opacity:0.957" fill="#040303" d="M 142.5,-0.5 C 144.5,-0.5 146.5,-0.5 148.5,-0.5C 155.363,1.82197 161.696,5.32197 167.5,10C 189.614,31.3995 207.447,55.8995 221,83.5C 233.892,108.685 244.725,134.685 253.5,161.5C 257.851,160.83 262.184,159.996 266.5,159C 283.365,158.812 300.198,158.312 317,157.5C 326.334,158.1 335.334,160.1 344,163.5C 357.1,126.636 373.433,91.3031 393,57.5C 404.218,38.2736 418.385,21.4403 435.5,7C 440.152,3.62763 445.152,1.12763 450.5,-0.5C 452.5,-0.5 454.5,-0.5 456.5,-0.5C 463.956,1.44782 469.123,6.11449 472,13.5C 485.027,61.664 492.861,110.664 495.5,160.5C 494.29,186.51 493.123,212.51 492,238.5C 490.096,249.303 485.763,258.97 479,267.5C 470.333,276.833 461.667,286.167 453,295.5C 449.295,333.769 443.628,371.769 436,409.5C 429.197,438.24 420.197,466.24 409,493.5C 402.505,505.828 395.505,517.828 388,529.5C 375.911,546.677 363.578,563.677 351,580.5C 342.893,590.295 332.726,596.629 320.5,599.5C 306.167,599.5 291.833,599.5 277.5,599.5C 265.819,596.677 255.985,590.677 248,581.5C 234,561.5 220,541.5 206,521.5C 190.608,497.671 179.275,472.004 172,444.5C 160.462,401.684 151.462,358.35 145,314.5C 143.96,306.869 143.294,299.202 143,291.5C 131.128,281.305 121.128,269.639 113,256.5C 110.23,250.424 108.23,244.091 107,237.5C 105.911,211.842 104.745,186.176 103.5,160.5C 106.343,111.775 113.843,63.7747 126,16.5C 128.396,7.62658 133.896,1.95991 142.5,-0.5 Z"/></g>
<g><path style="opacity:1" fill="#cfb593" d="M 141.5,10.5 C 148.408,10.1191 154.408,12.2858 159.5,17C 172.201,28.0235 183.034,40.5235 192,54.5C 215.66,92.4911 234.493,132.824 248.5,175.5C 253.065,173.383 257.731,171.55 262.5,170C 279.004,169.631 295.504,169.131 312,168.5C 325.507,167.506 338.007,170.506 349.5,177.5C 361.067,144.67 374.9,112.67 391,81.5C 400.091,64.9764 410.424,49.3097 422,34.5C 428.864,27.3017 436.03,20.4684 443.5,14C 447.722,10.8895 452.389,9.88949 457.5,11C 462.032,15.577 464.866,21.077 466,27.5C 476.232,71.1238 482.732,115.291 485.5,160C 484.001,182.471 483.167,204.971 483,227.5C 482.315,237.915 479.315,247.582 474,256.5C 464.774,268.732 454.44,280.065 443,290.5C 442.864,302.284 441.698,313.951 439.5,325.5C 438.178,325.67 437.011,325.337 436,324.5C 432.17,326.765 428.003,327.932 423.5,328C 417.556,335.67 414.389,344.503 414,354.5C 413.161,366.234 411.828,377.901 410,389.5C 408.914,392.915 407.581,396.249 406,399.5C 402.5,403 399,406.5 395.5,410C 392.832,411.874 389.832,412.707 386.5,412.5C 382.783,411.962 379.116,411.128 375.5,410C 362.771,400.613 350.605,390.447 339,379.5C 324.219,356.532 318.552,331.198 322,303.5C 325.465,284.243 328.465,264.91 331,245.5C 331.843,233.128 331.51,220.795 330,208.5C 328.914,205.085 327.581,201.751 326,198.5C 323.5,196 321,193.5 318.5,191C 305.829,186.393 293.162,186.393 280.5,191C 272.371,197.488 268.204,205.988 268,216.5C 267.333,225.5 267.333,234.5 268,243.5C 272.046,268.772 275.546,294.106 278.5,319.5C 277.851,341.488 271.685,361.488 260,379.5C 256.726,383.449 252.893,386.616 248.5,389C 239.185,398.663 228.519,406.33 216.5,412C 207.67,413.531 200.504,410.698 195,403.5C 191.35,396.886 188.684,389.886 187,382.5C 186.241,366.23 183.908,350.23 180,334.5C 178.969,331.461 177.135,328.961 174.5,327C 169.113,326.216 163.78,326.382 158.5,327.5C 156.692,321.988 155.525,316.321 155,310.5C 154.667,303.167 154.333,295.833 154,288.5C 143.256,277.76 133.256,266.427 124,254.5C 119.705,246.696 117.038,238.363 116,229.5C 110.411,157.219 117.411,86.2189 137,16.5C 138.332,14.34 139.832,12.34 141.5,10.5 Z"/></g>
<g><path style="opacity:1" fill="#d9ad96" d="M 148.5,41.5 C 151.928,41.5465 154.928,42.7132 157.5,45C 170.056,58.8978 180.223,74.3978 188,91.5C 201.101,119.635 210.268,148.968 215.5,179.5C 215.336,186.155 213.836,192.489 211,198.5C 202.333,209.167 193.667,219.833 185,230.5C 178.211,239.296 172.211,248.63 167,258.5C 166.261,259.574 165.261,260.241 164,260.5C 151.714,252.871 143.048,242.204 138,228.5C 135.701,208.502 133.368,188.502 131,168.5C 129.211,128.97 132.877,89.9703 142,51.5C 143.246,47.4484 145.413,44.1151 148.5,41.5 Z"/></g>
<g><path style="opacity:1" fill="#d9ad96" d="M 446.5,41.5 C 451.448,41.2673 454.615,43.6006 456,48.5C 468.394,95.2283 471.394,142.562 465,190.5C 468.247,216.767 460.414,238.934 441.5,257C 438.822,259.446 435.822,259.946 432.5,258.5C 428.667,252.167 424.833,245.833 421,239.5C 411.045,226.543 400.712,213.876 390,201.5C 386.201,194.844 384.034,187.677 383.5,180C 391.049,136.412 406.549,95.9116 430,58.5C 434.36,51.641 439.86,45.9743 446.5,41.5 Z"/></g>
<g><path style="opacity:1" fill="#c4b4a2" d="M 312.5,195.5 C 304.876,194.602 297.209,194.269 289.5,194.5C 296.296,192.028 303.296,191.862 310.5,194C 311.416,194.278 312.082,194.778 312.5,195.5 Z"/></g>
<g><path style="opacity:1" fill="#ebe8e6" d="M 289.5,194.5 C 297.209,194.269 304.876,194.602 312.5,195.5C 315.141,197.804 317.808,200.138 320.5,202.5C 323.577,206.545 325.411,211.211 326,216.5C 326.825,226.342 326.658,236.009 325.5,245.5C 324.194,250.616 323.527,255.949 323.5,261.5C 323.795,263.735 323.461,265.735 322.5,267.5C 321.097,270.909 320.43,274.575 320.5,278.5C 319.097,281.909 318.43,285.575 318.5,289.5C 315.093,312.379 316.093,335.045 321.5,357.5C 321.707,360.241 322.707,362.574 324.5,364.5C 326.951,367.74 328.618,371.407 329.5,375.5C 330.479,379.461 332.479,382.794 335.5,385.5C 337.892,390.225 341.559,393.558 346.5,395.5C 347.585,397.587 349.251,398.92 351.5,399.5C 355.639,403.468 359.973,407.301 364.5,411C 367.48,413.324 370.813,414.824 374.5,415.5C 376.786,415.595 378.786,416.262 380.5,417.5C 385.316,418.65 390.316,418.816 395.5,418C 396.056,417.617 396.389,417.117 396.5,416.5C 397.514,415.326 398.847,414.66 400.5,414.5C 404.167,412.833 406.833,410.167 408.5,406.5C 411.207,403.753 412.873,400.42 413.5,396.5C 413.721,393.933 414.388,391.599 415.5,389.5C 416.222,389.082 416.722,388.416 417,387.5C 418.087,380.54 418.587,373.54 418.5,366.5C 418.5,365.5 418.5,364.5 418.5,363.5C 419.994,354.51 421.994,345.51 424.5,336.5C 427.134,334.32 430.134,332.987 433.5,332.5C 434.122,331.373 434.955,330.373 436,329.5C 433.824,386.706 420.824,441.373 397,493.5C 381.487,519.868 364.487,545.201 346,569.5C 334.522,585.17 319.022,591.836 299.5,589.5C 284.966,591.24 271.966,587.74 260.5,579C 240.442,553.605 221.942,527.105 205,499.5C 195.771,481.151 188.105,462.151 182,442.5C 172.735,406.453 165.235,370.12 159.5,333.5C 163.488,332.302 167.488,332.302 171.5,333.5C 171.942,334.739 172.609,335.739 173.5,336.5C 176.544,341.662 178.211,347.328 178.5,353.5C 178.321,359.404 178.988,365.071 180.5,370.5C 180.5,371.833 180.5,373.167 180.5,374.5C 180.334,378.514 180.501,382.514 181,386.5C 181.278,387.416 181.778,388.082 182.5,388.5C 185.268,401.734 192.602,411.401 204.5,417.5C 209.65,418.651 214.984,418.817 220.5,418C 221.571,417.148 222.571,416.315 223.5,415.5C 227.856,414.489 231.856,412.656 235.5,410C 242.167,404.667 248.833,399.333 255.5,394C 259.107,390.902 262.107,387.402 264.5,383.5C 265.34,381.147 266.674,379.147 268.5,377.5C 270.267,374.666 272.101,371.666 274,368.5C 274.49,367.207 274.657,365.873 274.5,364.5C 276.19,359.759 277.856,355.093 279.5,350.5C 280.117,350.389 280.617,350.056 281,349.5C 282.715,339.227 283.882,328.894 284.5,318.5C 284.279,310.258 283.279,302.258 281.5,294.5C 281.375,288.556 280.375,282.89 278.5,277.5C 278.57,273.575 277.903,269.909 276.5,266.5C 276.468,261.609 275.801,256.943 274.5,252.5C 273.767,240.848 273.434,229.181 273.5,217.5C 273.5,217.167 273.5,216.833 273.5,216.5C 274.768,214.095 275.435,211.428 275.5,208.5C 278.525,202.141 283.192,197.475 289.5,194.5 Z"/></g>
<g><path style="opacity:1" fill="#ab967d" d="M 312.5,195.5 C 316.429,196.431 319.095,198.764 320.5,202.5C 317.808,200.138 315.141,197.804 312.5,195.5 Z"/></g>
<g><path style="opacity:1" fill="#ac977e" d="M 289.5,194.5 C 283.192,197.475 278.525,202.141 275.5,208.5C 277.167,200.833 281.833,196.167 289.5,194.5 Z"/></g>
<g><path style="opacity:1" fill="#a9947a" d="M 275.5,208.5 C 275.435,211.428 274.768,214.095 273.5,216.5C 273.294,213.505 273.96,210.838 275.5,208.5 Z"/></g>
<g><path style="opacity:1" fill="#ae9a81" d="M 273.5,217.5 C 273.434,229.181 273.767,240.848 274.5,252.5C 273.065,245.385 272.398,238.052 272.5,230.5C 272.501,225.987 272.834,221.653 273.5,217.5 Z"/></g>
<g><path style="opacity:1" fill="#af9b83" d="M 325.5,245.5 C 325.624,251.069 324.957,256.402 323.5,261.5C 323.527,255.949 324.194,250.616 325.5,245.5 Z"/></g>
<g><path style="opacity:1" fill="#ac987e" d="M 274.5,252.5 C 275.801,256.943 276.468,261.609 276.5,266.5C 275.028,262.081 274.362,257.414 274.5,252.5 Z"/></g>
<g><path style="opacity:1" fill="#dfcaaf" d="M 244.5,259.5 C 258.574,261.415 265.907,269.582 266.5,284C 266.872,291.3 263.539,294.3 256.5,293C 251.005,290.542 245.338,288.542 239.5,287C 229.66,280.258 228.993,272.592 237.5,264C 239.898,262.476 242.231,260.976 244.5,259.5 Z"/></g>
<g><path style="opacity:1" fill="#dfcaaf" d="M 348.5,259.5 C 361.17,260.332 367.337,266.998 367,279.5C 365.542,281.96 363.709,284.127 361.5,286C 354.879,287.571 348.546,289.905 342.5,293C 335.398,294.046 332.398,290.879 333.5,283.5C 333.468,272.209 338.468,264.209 348.5,259.5 Z"/></g>
<g><path style="opacity:1" fill="#ac987f" d="M 276.5,266.5 C 277.903,269.909 278.57,273.575 278.5,277.5C 277.097,274.091 276.43,270.425 276.5,266.5 Z"/></g>
<g><path style="opacity:1" fill="#ac987f" d="M 322.5,267.5 C 322.57,271.425 321.903,275.091 320.5,278.5C 320.43,274.575 321.097,270.909 322.5,267.5 Z"/></g>
<g><path style="opacity:1" fill="#ad9980" d="M 278.5,277.5 C 280.375,282.89 281.375,288.556 281.5,294.5C 279.883,289.067 278.883,283.4 278.5,277.5 Z"/></g>
<g><path style="opacity:1" fill="#ac987f" d="M 320.5,278.5 C 320.57,282.425 319.903,286.091 318.5,289.5C 318.43,285.575 319.097,281.909 320.5,278.5 Z"/></g>
<g><path style="opacity:1" fill="#77615d" d="M 228.5,297.5 C 252.166,296.667 263.666,308 263,331.5C 257.238,347.129 246.071,354.296 229.5,353C 213.07,347.313 205.904,335.813 208,318.5C 211.351,307.984 218.184,300.984 228.5,297.5 Z"/></g>
<g><path style="opacity:1" fill="#76615d" d="M 358.5,297.5 C 381.868,297.032 392.701,308.365 391,331.5C 385.934,347.288 375.101,354.455 358.5,353C 338.002,345.164 331.835,330.998 340,310.5C 344.627,303.786 350.794,299.453 358.5,297.5 Z"/></g>
<g><path style="opacity:1" fill="#1e1e1c" d="M 229.5,307.5 C 246.14,306.524 253.64,314.19 252,330.5C 246.403,342.367 237.57,345.534 225.5,340C 213.837,327.474 215.17,316.641 229.5,307.5 Z"/></g>
<g><path style="opacity:1" fill="#1e1d1b" d="M 359.5,307.5 C 374.645,307.144 381.811,314.477 381,329.5C 374.968,342.622 365.468,345.789 352.5,339C 345.543,331.145 344.71,322.645 350,313.5C 352.843,310.837 356.009,308.837 359.5,307.5 Z"/></g>
<g><path style="opacity:1" fill="#f2f2f2" d="M 239.5,314.5 C 246.57,315.407 248.237,318.907 244.5,325C 239.921,326.577 236.921,325.077 235.5,320.5C 236.467,318.21 237.8,316.21 239.5,314.5 Z"/></g>
<g><path style="opacity:1" fill="#efefef" d="M 368.5,314.5 C 375.57,315.407 377.237,318.907 373.5,325C 367.662,326.48 364.829,324.313 365,318.5C 365.69,316.65 366.856,315.316 368.5,314.5 Z"/></g>
<g><path style="opacity:1" fill="#c9b9a7" d="M 281.5,294.5 C 283.279,302.258 284.279,310.258 284.5,318.5C 283.882,328.894 282.715,339.227 281,349.5C 280.617,350.056 280.117,350.389 279.5,350.5C 283.384,331.91 284.051,313.244 281.5,294.5 Z"/></g>
<g><path style="opacity:1" fill="#b6a38c" d="M 173.5,336.5 C 172.609,335.739 171.942,334.739 171.5,333.5C 167.488,332.302 163.488,332.302 159.5,333.5C 159.611,332.883 159.944,332.383 160.5,332C 164.541,331.173 168.541,331.34 172.5,332.5C 173.246,333.736 173.579,335.07 173.5,336.5 Z"/></g>
<g><path style="opacity:1" fill="#a9947a" d="M 433.5,332.5 C 430.134,332.987 427.134,334.32 424.5,336.5C 424.539,335.417 424.873,334.417 425.5,333.5C 428.086,332.52 430.753,332.187 433.5,332.5 Z"/></g>
<g><path style="opacity:1" fill="#b8a58e" d="M 424.5,336.5 C 421.994,345.51 419.994,354.51 418.5,363.5C 418.479,353.928 420.479,344.928 424.5,336.5 Z"/></g>
<g><path style="opacity:1" fill="#a89479" d="M 321.5,357.5 C 323.293,359.426 324.293,361.759 324.5,364.5C 322.707,362.574 321.707,360.241 321.5,357.5 Z"/></g>
<g><path style="opacity:1" fill="#b09c83" d="M 178.5,353.5 C 179.737,358.96 180.404,364.627 180.5,370.5C 178.988,365.071 178.321,359.404 178.5,353.5 Z"/></g>
<g><path style="opacity:1" fill="#b6a48d" d="M 274.5,364.5 C 274.657,365.873 274.49,367.207 274,368.5C 272.101,371.666 270.267,374.666 268.5,377.5C 269.716,372.738 271.716,368.405 274.5,364.5 Z"/></g>
<g><path style="opacity:1" fill="#ac987e" d="M 329.5,375.5 C 332,378.494 334,381.827 335.5,385.5C 332.479,382.794 330.479,379.461 329.5,375.5 Z"/></g>
<g><path style="opacity:1" fill="#bfad99" d="M 418.5,366.5 C 418.587,373.54 418.087,380.54 417,387.5C 416.722,388.416 416.222,389.082 415.5,389.5C 416.434,381.686 417.434,374.019 418.5,366.5 Z"/></g>
<g><path style="opacity:1" fill="#bfae9a" d="M 180.5,374.5 C 181.521,378.98 182.187,383.647 182.5,388.5C 181.778,388.082 181.278,387.416 181,386.5C 180.501,382.514 180.334,378.514 180.5,374.5 Z"/></g>
<g><path style="opacity:1" fill="#af9b82" d="M 335.5,385.5 C 339.192,388.862 342.859,392.195 346.5,395.5C 341.559,393.558 337.892,390.225 335.5,385.5 Z"/></g>
<g><path style="opacity:1" fill="#a9957b" d="M 346.5,395.5 C 348.749,396.08 350.415,397.413 351.5,399.5C 349.251,398.92 347.585,397.587 346.5,395.5 Z"/></g>
<g><path style="opacity:1" fill="#a9957b" d="M 413.5,396.5 C 412.873,400.42 411.207,403.753 408.5,406.5C 409.659,402.849 411.326,399.515 413.5,396.5 Z"/></g>
<g><path style="opacity:1" fill="#ac987f" d="M 264.5,383.5 C 262.107,387.402 259.107,390.902 255.5,394C 248.833,399.333 242.167,404.667 235.5,410C 231.856,412.656 227.856,414.489 223.5,415.5C 238.288,406.391 251.955,395.725 264.5,383.5 Z"/></g>
<g><path style="opacity:1" fill="#ac987f" d="M 408.5,406.5 C 406.833,410.167 404.167,412.833 400.5,414.5C 402.833,411.5 405.5,408.833 408.5,406.5 Z"/></g>
<g><path style="opacity:1" fill="#ab977d" d="M 351.5,399.5 C 359,405.083 366.667,410.416 374.5,415.5C 370.813,414.824 367.48,413.324 364.5,411C 359.973,407.301 355.639,403.468 351.5,399.5 Z"/></g>
<g><path style="opacity:1" fill="#bead99" d="M 223.5,415.5 C 222.571,416.315 221.571,417.148 220.5,418C 214.984,418.817 209.65,418.651 204.5,417.5C 210.969,417.849 217.302,417.183 223.5,415.5 Z"/></g>
<g><path style="opacity:1" fill="#b09c84" d="M 396.5,416.5 C 396.389,417.117 396.056,417.617 395.5,418C 390.316,418.816 385.316,418.65 380.5,417.5C 385.88,417.676 391.213,417.342 396.5,416.5 Z"/></g>
<g><path style="opacity:1" fill="#010101" d="M 289.5,443.5 C 303.85,441.505 316.85,444.671 328.5,453C 341.093,468.438 340.093,483.105 325.5,497C 303.874,511.276 284.041,509.11 266,490.5C 255.68,465.806 263.514,450.139 289.5,443.5 Z"/></g>
<g><path style="opacity:1" fill="#060605" d="M 264.5,511.5 C 264.032,526.791 265.866,541.791 270,556.5C 277.752,573.769 290.919,579.935 309.5,575C 317.111,573.054 322.611,568.554 326,561.5C 331.957,545.729 334.457,529.395 333.5,512.5C 333.5,512.167 333.5,511.833 333.5,511.5C 340.704,509.637 346.538,505.637 351,499.5C 355.21,491.575 360.043,484.075 365.5,477C 368.743,474.622 370.41,475.455 370.5,479.5C 363.158,496.373 356.325,513.373 350,530.5C 344.271,542.291 338.271,553.957 332,565.5C 323.567,575.769 312.567,580.435 299,579.5C 286.084,580.423 275.417,576.09 267,566.5C 259.633,555.101 253.299,543.101 248,530.5C 241.545,513.127 234.712,495.96 227.5,479C 227.437,476.058 228.77,475.058 231.5,476C 233.333,477.833 235.167,479.667 237,481.5C 241.634,491.787 248.134,500.62 256.5,508C 259.071,509.454 261.738,510.62 264.5,511.5 Z"/></g>
<g><path style="opacity:1" fill="#de8a8c" d="M 276.5,513.5 C 284.225,515.138 291.892,514.471 299.5,511.5C 310.726,515.115 322.059,515.448 333.5,512.5C 334.457,529.395 331.957,545.729 326,561.5C 322.611,568.554 317.111,573.054 309.5,575C 290.919,579.935 277.752,573.769 270,556.5C 265.866,541.791 264.032,526.791 264.5,511.5C 264.917,510.876 265.584,510.543 266.5,510.5C 269.749,511.812 273.082,512.812 276.5,513.5 Z"/></g>
<g><path style="opacity:1" fill="#e4a9a9" d="M 333.5,511.5 C 333.5,511.833 333.5,512.167 333.5,512.5C 322.059,515.448 310.726,515.115 299.5,511.5C 291.892,514.471 284.225,515.138 276.5,513.5C 284.382,514.057 292.049,513.057 299.5,510.5C 310.741,514.109 322.075,514.442 333.5,511.5 Z"/></g>
</svg>
