<?xml version="1.0" encoding="UTF-8"?>
<!DOCTYPE svg PUBLIC "-//W3C//DTD SVG 1.1//EN" "http://www.w3.org/Graphics/SVG/1.1/DTD/svg11.dtd">
<svg xmlns="http://www.w3.org/2000/svg" version="1.1" width="600px" height="600px" style="shape-rendering:geometricPrecision; text-rendering:geometricPrecision; image-rendering:optimizeQuality; fill-rule:evenodd; clip-rule:evenodd" xmlns:xlink="http://www.w3.org/1999/xlink">
<g><path style="opacity:0.962" fill="#030302" d="M 123.5,9.5 C 129.121,9.65478 134.121,11.4881 138.5,15C 155.811,33.4742 171.311,53.3075 185,74.5C 199.128,95.974 212.461,117.974 225,140.5C 227.109,144.936 228.276,149.603 228.5,154.5C 264.176,143.466 300.509,140.633 337.5,146C 348.954,147.822 360.121,150.655 371,154.5C 373.485,146.524 376.818,138.857 381,131.5C 401.313,95.868 423.98,61.868 449,29.5C 454.588,21.9104 461.421,15.7438 469.5,11C 476.536,8.8006 482.703,10.3006 488,15.5C 491.137,20.1082 493.47,25.1082 495,30.5C 509.389,84.2769 516.056,138.944 515,194.5C 514.209,201.538 512.209,208.204 509,214.5C 499.75,232.01 489.25,248.677 477.5,264.5C 487.591,298.33 488.091,332.33 479,366.5C 472.654,398.557 460.654,428.224 443,455.5C 432.431,468.299 423.097,481.966 415,496.5C 409.413,516.433 404.08,536.433 399,556.5C 391.267,576.964 376.434,588.13 354.5,590C 336.688,591.282 319.188,589.449 302,584.5C 284.471,589.433 266.638,591.267 248.5,590C 225.708,587.204 210.541,575.037 203,553.5C 198.952,538.26 195.285,522.927 192,507.5C 189.192,496.886 184.526,487.219 178,478.5C 149.254,444.663 130.921,405.663 123,361.5C 115.332,329.871 115.832,298.371 124.5,267C 117.397,255.307 109.897,243.807 102,232.5C 98.3333,225.833 94.6667,219.167 91,212.5C 86.1494,199.79 84.3161,186.623 85.5,173C 86.8506,131.696 92.0172,90.8623 101,50.5C 103.071,40.2134 106.071,30.2134 110,20.5C 113.219,15.101 117.719,11.4343 123.5,9.5 Z"/></g>
<g><path style="opacity:1" fill="#7a6051" d="M 147.5,41.5 C 136.569,42.9909 125.569,42.6576 114.5,40.5C 115.371,34.0569 117.537,28.0569 121,22.5C 123.968,20.0092 127.135,19.8426 130.5,22C 137.122,27.7803 142.788,34.2803 147.5,41.5 Z"/></g>
<g><path style="opacity:1" fill="#6d5649" d="M 114.5,40.5 C 125.569,42.6576 136.569,42.9909 147.5,41.5C 150.185,44.1897 152.518,47.1897 154.5,50.5C 149.156,50.8159 143.822,51.3159 138.5,52C 137.944,52.3826 137.611,52.8826 137.5,53.5C 132.54,47.8553 128.04,48.1887 124,54.5C 120.647,70.3703 118.147,86.3703 116.5,102.5C 111.226,103.301 106.226,104.968 101.5,107.5C 104.022,84.6803 108.355,62.347 114.5,40.5 Z"/></g>
<g><path style="opacity:1" fill="#564f49" d="M 137.5,53.5 C 158.622,78.7137 175.455,106.714 188,137.5C 188.979,142.236 190.146,146.902 191.5,151.5C 191.5,156.5 191.5,161.5 191.5,166.5C 190.176,176.815 186.509,186.148 180.5,194.5C 177.198,198.809 173.864,203.143 170.5,207.5C 165.654,213.51 159.987,218.677 153.5,223C 151.564,223.813 149.564,224.313 147.5,224.5C 143.401,224.633 139.734,223.467 136.5,221C 129.102,214.789 123.102,207.623 118.5,199.5C 112.834,187.882 110.501,175.548 111.5,162.5C 112.25,142.414 113.917,122.414 116.5,102.5C 118.147,86.3703 120.647,70.3703 124,54.5C 128.04,48.1887 132.54,47.8553 137.5,53.5 Z"/></g>
<g><path style="opacity:1" fill="#564f49" d="M 489.5,156.5 C 489.666,166.172 489.5,175.839 489,185.5C 488.59,186.901 488.09,188.234 487.5,189.5C 480.571,201.942 472.238,213.442 462.5,224C 460.323,225.202 457.989,225.702 455.5,225.5C 452.127,224.934 449.127,223.601 446.5,221.5C 439.843,216.509 433.843,210.843 428.5,204.5C 423.076,197.979 418.409,190.979 414.5,183.5C 412.693,177.104 411.027,170.771 409.5,164.5C 409.652,154.934 411.152,145.601 414,136.5C 426.552,104.883 444.052,76.3825 466.5,51C 472.748,47.7387 476.582,49.5721 478,56.5C 484.322,89.5368 488.155,122.87 489.5,156.5 Z"/></g>
<g><path style="opacity:1" fill="#745b4d" d="M 505.5,172.5 C 500.652,174.73 495.652,175.063 490.5,173.5C 490.822,167.642 490.489,161.975 489.5,156.5C 488.155,122.87 484.322,89.5368 478,56.5C 476.582,49.5721 472.748,47.7387 466.5,51C 444.052,76.3825 426.552,104.883 414,136.5C 411.152,145.601 409.652,154.934 409.5,164.5C 400.044,162.349 391.044,159.015 382.5,154.5C 382.687,152.436 383.187,150.436 384,148.5C 406.436,107.274 432.102,68.2736 461,31.5C 464.167,28.3333 467.333,25.1667 470.5,22C 474.474,19.6355 477.974,20.1355 481,23.5C 486.549,37.0274 490.549,51.0274 493,65.5C 499.803,100.87 503.97,136.537 505.5,172.5 Z"/></g>
<g><path style="opacity:1" fill="#796051" d="M 154.5,50.5 C 176.3,79.4012 196.133,109.735 214,141.5C 215.474,144.756 216.64,148.089 217.5,151.5C 209.066,150.362 200.399,150.362 191.5,151.5C 190.146,146.902 188.979,142.236 188,137.5C 175.455,106.714 158.622,78.7137 137.5,53.5C 137.611,52.8826 137.944,52.3826 138.5,52C 143.822,51.3159 149.156,50.8159 154.5,50.5 Z"/></g>
<g><path style="opacity:1" fill="#765d4f" d="M 116.5,102.5 C 113.917,122.414 112.25,142.414 111.5,162.5C 110.501,175.548 112.834,187.882 118.5,199.5C 118.565,199.938 118.399,200.272 118,200.5C 110.801,198.513 103.634,196.847 96.5,195.5C 94.5944,165.945 96.2611,136.611 101.5,107.5C 106.226,104.968 111.226,103.301 116.5,102.5 Z"/></g>
<g><path style="opacity:1" fill="#685346" d="M 217.5,151.5 C 218.913,154.382 219.579,157.549 219.5,161C 219.494,163.033 219.161,164.866 218.5,166.5C 209.443,165.328 200.443,165.328 191.5,166.5C 191.5,161.5 191.5,156.5 191.5,151.5C 200.399,150.362 209.066,150.362 217.5,151.5 Z"/></g>
<g><path style="opacity:1" fill="#7b6152" d="M 382.5,154.5 C 391.044,159.015 400.044,162.349 409.5,164.5C 411.027,170.771 412.693,177.104 414.5,183.5C 396.11,184.168 378.776,180.335 362.5,172C 352.676,162.614 341.009,158.614 327.5,160C 320.058,161.555 312.558,162.722 305,163.5C 297.678,162.172 290.344,160.839 283,159.5C 276.16,159.42 271.16,162.42 268,168.5C 263.709,179.597 257.543,189.43 249.5,198C 246.446,200.194 243.112,201.861 239.5,203C 222.173,205.847 205.173,204.514 188.5,199C 185.552,197.763 182.885,196.263 180.5,194.5C 186.509,186.148 190.176,176.815 191.5,166.5C 200.443,165.328 209.443,165.328 218.5,166.5C 218.5,167.5 218.5,168.5 218.5,169.5C 257.931,154.242 298.598,150.075 340.5,157C 354.2,159.591 367.534,163.425 380.5,168.5C 381.167,163.683 381.834,159.017 382.5,154.5 Z"/></g>
<g><path style="opacity:1" fill="#6a5447" d="M 414.5,183.5 C 418.409,190.979 423.076,197.979 428.5,204.5C 421.043,204.767 413.71,203.934 406.5,202C 386.742,194.193 367.075,186.193 347.5,178C 338.906,176.32 330.24,175.153 321.5,174.5C 313.821,175.369 306.155,176.369 298.5,177.5C 293.658,176.898 288.825,176.232 284,175.5C 280.871,175.329 278.037,176.162 275.5,178C 268.382,187.066 261.882,196.566 256,206.5C 249.804,213.096 242.137,216.429 233,216.5C 211.954,214.847 191.121,211.847 170.5,207.5C 173.864,203.143 177.198,198.809 180.5,194.5C 182.885,196.263 185.552,197.763 188.5,199C 205.173,204.514 222.173,205.847 239.5,203C 243.112,201.861 246.446,200.194 249.5,198C 257.543,189.43 263.709,179.597 268,168.5C 271.16,162.42 276.16,159.42 283,159.5C 290.344,160.839 297.678,162.172 305,163.5C 312.558,162.722 320.058,161.555 327.5,160C 341.009,158.614 352.676,162.614 362.5,172C 378.776,180.335 396.11,184.168 414.5,183.5 Z"/></g>
<g><path style="opacity:1" fill="#685346" d="M 489.5,156.5 C 490.489,161.975 490.822,167.642 490.5,173.5C 495.652,175.063 500.652,174.73 505.5,172.5C 505.824,179.354 505.491,186.021 504.5,192.5C 504.5,191.167 504.5,189.833 504.5,188.5C 498.862,189.22 493.196,189.553 487.5,189.5C 488.09,188.234 488.59,186.901 489,185.5C 489.5,175.839 489.666,166.172 489.5,156.5 Z"/></g>
<g><path style="opacity:1" fill="#7b6152" d="M 428.5,204.5 C 433.843,210.843 439.843,216.509 446.5,221.5C 446.44,222.043 446.107,222.376 445.5,222.5C 438.198,218.899 430.531,216.399 422.5,215C 406.647,215.093 391.314,212.426 376.5,207C 365.802,201.651 355.136,196.318 344.5,191C 338.743,188.561 332.743,187.394 326.5,187.5C 314.42,188.343 302.42,189.843 290.5,192C 281.651,194.18 275.151,199.347 271,207.5C 267.667,214.167 264.333,220.833 261,227.5C 256.119,233.193 249.952,236.693 242.5,238C 214.95,244.103 187.95,242.436 161.5,233C 156.603,230.392 151.937,227.559 147.5,224.5C 149.564,224.313 151.564,223.813 153.5,223C 159.987,218.677 165.654,213.51 170.5,207.5C 191.121,211.847 211.954,214.847 233,216.5C 242.137,216.429 249.804,213.096 256,206.5C 261.882,196.566 268.382,187.066 275.5,178C 278.037,176.162 280.871,175.329 284,175.5C 288.825,176.232 293.658,176.898 298.5,177.5C 306.155,176.369 313.821,175.369 321.5,174.5C 330.24,175.153 338.906,176.32 347.5,178C 367.075,186.193 386.742,194.193 406.5,202C 413.71,203.934 421.043,204.767 428.5,204.5 Z"/></g>
<g><path style="opacity:1" fill="#6a5447" d="M 446.5,221.5 C 449.127,223.601 452.127,224.934 455.5,225.5C 464.601,231.195 474.601,233.862 485.5,233.5C 483.192,237.795 480.526,241.795 477.5,245.5C 469.033,240.605 460.033,236.771 450.5,234C 443.506,233.273 436.506,232.607 429.5,232C 419.429,229.198 409.429,226.198 399.5,223C 387.437,222.182 375.437,220.849 363.5,219C 353.88,214.524 344.547,209.524 335.5,204C 321.45,199.33 307.116,198.33 292.5,201C 287.071,202.802 282.571,205.969 279,210.5C 275.379,219.371 271.379,228.037 267,236.5C 264.441,239.531 261.274,241.698 257.5,243C 247.866,244.236 238.199,245.236 228.5,246C 219.445,248.462 210.445,251.129 201.5,254C 186.663,256.362 172.663,254.029 159.5,247C 143.888,236.388 128.555,225.388 113.5,214C 110.394,212.364 107.227,210.864 104,209.5C 102.97,209.836 102.47,210.503 102.5,211.5C 99.4181,206.653 97.4181,201.319 96.5,195.5C 103.634,196.847 110.801,198.513 118,200.5C 118.399,200.272 118.565,199.938 118.5,199.5C 123.102,207.623 129.102,214.789 136.5,221C 139.734,223.467 143.401,224.633 147.5,224.5C 151.937,227.559 156.603,230.392 161.5,233C 187.95,242.436 214.95,244.103 242.5,238C 249.952,236.693 256.119,233.193 261,227.5C 264.333,220.833 267.667,214.167 271,207.5C 275.151,199.347 281.651,194.18 290.5,192C 302.42,189.843 314.42,188.343 326.5,187.5C 332.743,187.394 338.743,188.561 344.5,191C 355.136,196.318 365.802,201.651 376.5,207C 391.314,212.426 406.647,215.093 422.5,215C 430.531,216.399 438.198,218.899 445.5,222.5C 446.107,222.376 446.44,222.043 446.5,221.5 Z"/></g>
<g><path style="opacity:1" fill="#7b6152" d="M 477.5,245.5 C 473.648,250.857 469.981,256.357 466.5,262C 471.378,276.1 474.044,290.6 474.5,305.5C 458.69,296.092 442.69,286.926 426.5,278C 415.519,275.589 404.852,272.256 394.5,268C 386.53,261.031 378.864,253.698 371.5,246C 364.694,240.397 356.86,237.564 348,237.5C 338.712,238.865 329.378,239.865 320,240.5C 303.933,236.031 290.266,239.698 279,251.5C 273.667,261.832 266.501,270.665 257.5,278C 254.626,279.899 251.459,280.733 248,280.5C 241.894,279.096 235.727,278.596 229.5,279C 227.5,280.333 225.5,281.667 223.5,283C 224.167,283.667 224.833,284.333 225.5,285C 243.097,292.111 261.431,295.277 280.5,294.5C 279.806,304.153 279.139,313.82 278.5,323.5C 277.85,323.804 277.183,324.137 276.5,324.5C 270.087,321.817 263.42,320.151 256.5,319.5C 250.985,305.316 240.651,297.649 225.5,296.5C 211.562,293.661 197.562,290.495 183.5,287C 179.835,285.503 176.502,283.503 173.5,281C 167.461,273.294 160.461,266.627 152.5,261C 145.469,257.994 138.136,256.161 130.5,255.5C 119.982,241.636 110.649,226.97 102.5,211.5C 102.47,210.503 102.97,209.836 104,209.5C 107.227,210.864 110.394,212.364 113.5,214C 128.555,225.388 143.888,236.388 159.5,247C 172.663,254.029 186.663,256.362 201.5,254C 210.445,251.129 219.445,248.462 228.5,246C 238.199,245.236 247.866,244.236 257.5,243C 261.274,241.698 264.441,239.531 267,236.5C 271.379,228.037 275.379,219.371 279,210.5C 282.571,205.969 287.071,202.802 292.5,201C 307.116,198.33 321.45,199.33 335.5,204C 344.547,209.524 353.88,214.524 363.5,219C 375.437,220.849 387.437,222.182 399.5,223C 409.429,226.198 419.429,229.198 429.5,232C 436.506,232.607 443.506,233.273 450.5,234C 460.033,236.771 469.033,240.605 477.5,245.5 Z"/></g>
<g><path style="opacity:1" fill="#775e50" d="M 504.5,192.5 C 501.311,207.67 494.977,221.336 485.5,233.5C 474.601,233.862 464.601,231.195 455.5,225.5C 457.989,225.702 460.323,225.202 462.5,224C 472.238,213.442 480.571,201.942 487.5,189.5C 493.196,189.553 498.862,189.22 504.5,188.5C 504.5,189.833 504.5,191.167 504.5,192.5 Z"/></g>
<g><path style="opacity:1" fill="#695346" d="M 474.5,305.5 C 475.833,312.833 475.833,320.167 474.5,327.5C 474.5,323.5 474.5,319.5 474.5,315.5C 467.278,315.112 460.278,313.612 453.5,311C 440.425,302.934 427.091,295.267 413.5,288C 404.573,285.926 395.573,284.259 386.5,283C 374.551,274.719 362.885,266.052 351.5,257C 337.121,249.159 321.788,246.492 305.5,249C 301.232,249.534 297.232,250.867 293.5,253C 287.333,259.833 281.167,266.667 275,273.5C 272.006,276.82 269.506,280.487 267.5,284.5C 267.709,285.086 268.043,285.586 268.5,286C 273.144,286.998 277.477,286.498 281.5,284.5C 281.167,287.833 280.833,291.167 280.5,294.5C 261.431,295.277 243.097,292.111 225.5,285C 224.833,284.333 224.167,283.667 223.5,283C 225.5,281.667 227.5,280.333 229.5,279C 235.727,278.596 241.894,279.096 248,280.5C 251.459,280.733 254.626,279.899 257.5,278C 266.501,270.665 273.667,261.832 279,251.5C 290.266,239.698 303.933,236.031 320,240.5C 329.378,239.865 338.712,238.865 348,237.5C 356.86,237.564 364.694,240.397 371.5,246C 378.864,253.698 386.53,261.031 394.5,268C 404.852,272.256 415.519,275.589 426.5,278C 442.69,286.926 458.69,296.092 474.5,305.5 Z"/></g>
<g><path style="opacity:1" fill="#7b6152" d="M 474.5,327.5 C 474.08,333.863 473.413,340.196 472.5,346.5C 455.469,352.496 439.136,350.996 423.5,342C 421.333,339.833 419.167,337.667 417,335.5C 416.814,332.964 416.314,330.631 415.5,328.5C 412.673,308.344 401.006,297.344 380.5,295.5C 378.182,295.997 375.848,296.33 373.5,296.5C 367.143,293.981 360.81,291.148 354.5,288C 346.833,281.667 339.167,275.333 331.5,269C 326.726,266.878 321.726,265.712 316.5,265.5C 310.796,256.493 302.796,253.993 292.5,258C 288.961,259.907 286.461,262.74 285,266.5C 283.182,272.38 282.015,278.38 281.5,284.5C 277.477,286.498 273.144,286.998 268.5,286C 268.043,285.586 267.709,285.086 267.5,284.5C 269.506,280.487 272.006,276.82 275,273.5C 281.167,266.667 287.333,259.833 293.5,253C 297.232,250.867 301.232,249.534 305.5,249C 321.788,246.492 337.121,249.159 351.5,257C 362.885,266.052 374.551,274.719 386.5,283C 395.573,284.259 404.573,285.926 413.5,288C 427.091,295.267 440.425,302.934 453.5,311C 460.278,313.612 467.278,315.112 474.5,315.5C 474.5,319.5 474.5,323.5 474.5,327.5 Z"/></g>
<g><path style="opacity:1" fill="#695447" d="M 130.5,255.5 C 138.136,256.161 145.469,257.994 152.5,261C 160.461,266.627 167.461,273.294 173.5,281C 176.502,283.503 179.835,285.503 183.5,287C 197.562,290.495 211.562,293.661 225.5,296.5C 217.55,295.655 210.217,297.322 203.5,301.5C 193.713,299.838 183.713,298.672 173.5,298C 165.061,296.447 157.728,292.78 151.5,287C 146.262,281.258 140.596,276.091 134.5,271.5C 134.548,268.687 135.215,266.021 136.5,263.5C 134.091,261.098 132.091,258.431 130.5,255.5 Z"/></g>
<g><path style="opacity:1" fill="#6a5447" d="M 316.5,265.5 C 321.726,265.712 326.726,266.878 331.5,269C 339.167,275.333 346.833,281.667 354.5,288C 360.81,291.148 367.143,293.981 373.5,296.5C 368.898,297.588 364.564,299.254 360.5,301.5C 357.726,300.277 355.059,298.777 352.5,297C 342.75,287.074 331.75,278.908 319.5,272.5C 318.659,270.188 317.659,267.855 316.5,265.5 Z"/></g>
<g><path style="opacity:1" fill="#f4f4f4" d="M 298.5,266.5 C 304.231,266.721 307.731,269.721 309,275.5C 311.51,299.139 313.843,322.805 316,346.5C 319.546,381.362 329.879,414.028 347,444.5C 359.911,465.654 371.244,487.654 381,510.5C 385.568,522.098 387.568,534.098 387,546.5C 385.985,563.75 377.152,574.25 360.5,578C 350.545,579.498 340.545,579.831 330.5,579C 320.925,577.552 311.425,575.718 302,573.5C 292.213,575.591 282.379,577.424 272.5,579C 257.016,581.417 242.35,579.084 228.5,572C 222.887,568.445 219.22,563.445 217.5,557C 214.344,547.627 213.844,538.127 216,528.5C 218.536,518.227 221.869,508.227 226,498.5C 235.158,480.182 244.825,462.182 255,444.5C 262.154,431.193 268.487,417.527 274,403.5C 277.806,389.277 281.139,374.944 284,360.5C 287.606,332.225 290.606,303.891 293,275.5C 293.837,271.843 295.67,268.843 298.5,266.5 Z"/></g>
<g><path style="opacity:1" fill="#7b6152" d="M 134.5,271.5 C 140.596,276.091 146.262,281.258 151.5,287C 157.728,292.78 165.061,296.447 173.5,298C 183.713,298.672 193.713,299.838 203.5,301.5C 186.18,315.057 182.68,331.723 193,351.5C 199.529,360.516 208.362,365.516 219.5,366.5C 220.391,367.261 221.058,368.261 221.5,369.5C 223.236,386.73 232.236,398.23 248.5,404C 252.722,405.446 257.055,406.28 261.5,406.5C 257.836,414.496 254.169,422.496 250.5,430.5C 236.65,427.147 226.484,419.147 220,406.5C 216.135,392.772 210.135,380.105 202,368.5C 193.145,361.068 184.479,353.402 176,345.5C 169.349,335.037 161.849,325.204 153.5,316C 144.149,311.469 136.149,305.303 129.5,297.5C 129.907,288.467 131.574,279.8 134.5,271.5 Z"/></g>
<g><path style="opacity:1" fill="#7a6152" d="M 319.5,272.5 C 331.75,278.908 342.75,287.074 352.5,297C 355.059,298.777 357.726,300.277 360.5,301.5C 356.124,304.874 352.458,308.874 349.5,313.5C 342.671,306.838 335.671,300.338 328.5,294C 326.423,292.295 324.09,291.128 321.5,290.5C 320.343,284.572 319.676,278.572 319.5,272.5 Z"/></g>
<g><path style="opacity:1" fill="#695346" d="M 321.5,290.5 C 324.09,291.128 326.423,292.295 328.5,294C 335.671,300.338 342.671,306.838 349.5,313.5C 346.083,319.712 344.75,326.378 345.5,333.5C 344.698,332.048 344.198,330.382 344,328.5C 340.39,326.556 337.057,324.223 334,321.5C 330.159,315.822 326.826,309.822 324,303.5C 323.31,302.262 322.81,302.262 322.5,303.5C 321.515,299.366 321.182,295.032 321.5,290.5 Z"/></g>
<g><path style="opacity:1" fill="#564e48" d="M 225.5,296.5 C 240.651,297.649 250.985,305.316 256.5,319.5C 258.125,325.031 258.791,330.697 258.5,336.5C 255.008,351.991 245.674,361.991 230.5,366.5C 226.833,366.5 223.167,366.5 219.5,366.5C 208.362,365.516 199.529,360.516 193,351.5C 182.68,331.723 186.18,315.057 203.5,301.5C 210.217,297.322 217.55,295.655 225.5,296.5 Z"/></g>
<g><path style="opacity:1" fill="#554e48" d="M 415.5,328.5 C 416.336,336.484 414.669,343.817 410.5,350.5C 406.578,357.293 400.912,361.96 393.5,364.5C 383.162,368.664 373.162,367.998 363.5,362.5C 352.203,356.26 346.203,346.593 345.5,333.5C 344.75,326.378 346.083,319.712 349.5,313.5C 352.458,308.874 356.124,304.874 360.5,301.5C 364.564,299.254 368.898,297.588 373.5,296.5C 375.848,296.33 378.182,295.997 380.5,295.5C 401.006,297.344 412.673,308.344 415.5,328.5 Z"/></g>
<g><path style="opacity:1" fill="#6a5447" d="M 129.5,297.5 C 136.149,305.303 144.149,311.469 153.5,316C 161.849,325.204 169.349,335.037 176,345.5C 184.479,353.402 193.145,361.068 202,368.5C 210.135,380.105 216.135,392.772 220,406.5C 226.484,419.147 236.65,427.147 250.5,430.5C 247.47,435.9 244.47,441.234 241.5,446.5C 236.112,444.33 231.279,440.997 227,436.5C 219.667,423.833 212.333,411.167 205,398.5C 199,391.833 193,385.167 187,378.5C 177.912,365.324 168.579,352.324 159,339.5C 154.5,335 150,330.5 145.5,326C 140.086,322.626 134.419,319.793 128.5,317.5C 128.176,310.646 128.509,303.979 129.5,297.5 Z"/></g>
<g><path style="opacity:1" fill="#7a6051" d="M 345.5,333.5 C 346.203,346.593 352.203,356.26 363.5,362.5C 351.771,365.455 340.105,364.789 328.5,360.5C 324.819,341.72 322.819,322.72 322.5,303.5C 322.81,302.262 323.31,302.262 324,303.5C 326.826,309.822 330.159,315.822 334,321.5C 337.057,324.223 340.39,326.556 344,328.5C 344.198,330.382 344.698,332.048 345.5,333.5 Z"/></g>
<g><path style="opacity:1" fill="#372f2c" d="M 215.5,306.5 C 237.968,304.803 248.801,315.137 248,337.5C 240.819,354.837 228.319,360.337 210.5,354C 198.791,346.018 194.958,335.185 199,321.5C 202.822,314.504 208.322,309.504 215.5,306.5 Z"/></g>
<g><path style="opacity:1" fill="#372f2c" d="M 373.5,306.5 C 396.668,304.834 407.168,315.501 405,338.5C 397.185,356.111 384.351,360.944 366.5,353C 356.268,344.638 353.102,334.138 357,321.5C 360.822,314.504 366.322,309.504 373.5,306.5 Z"/></g>
<g><path style="opacity:1" fill="#f6f5f5" d="M 213.5,316.5 C 222.818,316.655 224.818,320.488 219.5,328C 212.667,329.167 209.833,326.333 211,319.5C 211.698,318.309 212.531,317.309 213.5,316.5 Z"/></g>
<g><path style="opacity:1" fill="#f3f3f3" d="M 371.5,316.5 C 379.744,316.228 382.078,319.728 378.5,327C 373.047,329.876 369.381,328.376 367.5,322.5C 367.937,319.775 369.27,317.775 371.5,316.5 Z"/></g>
<g><path style="opacity:1" fill="#7b6152" d="M 128.5,317.5 C 134.419,319.793 140.086,322.626 145.5,326C 150,330.5 154.5,335 159,339.5C 168.579,352.324 177.912,365.324 187,378.5C 193,385.167 199,391.833 205,398.5C 212.333,411.167 219.667,423.833 227,436.5C 231.279,440.997 236.112,444.33 241.5,446.5C 238.233,452.035 235.233,457.702 232.5,463.5C 226.741,461.265 221.908,457.599 218,452.5C 214.412,446.325 211.078,439.991 208,433.5C 205.872,430.37 203.372,427.537 200.5,425C 188.049,417.358 176.216,408.858 165,399.5C 160,387.833 155,376.167 150,364.5C 144.986,358.64 138.819,354.64 131.5,352.5C 129.599,340.926 128.599,329.26 128.5,317.5 Z"/></g>
<g><path style="opacity:1" fill="#685245" d="M 256.5,319.5 C 263.42,320.151 270.087,321.817 276.5,324.5C 277.183,324.137 277.85,323.804 278.5,323.5C 278.041,331.042 277.041,338.375 275.5,345.5C 275.5,344.167 275.5,342.833 275.5,341.5C 269.63,340.431 263.963,338.764 258.5,336.5C 258.791,330.697 258.125,325.031 256.5,319.5 Z"/></g>
<g><path style="opacity:1" fill="#695447" d="M 415.5,328.5 C 416.314,330.631 416.814,332.964 417,335.5C 419.167,337.667 421.333,339.833 423.5,342C 439.136,350.996 455.469,352.496 472.5,346.5C 472.142,349.689 471.475,352.689 470.5,355.5C 470.083,354.876 469.416,354.543 468.5,354.5C 455.138,358.806 441.471,360.306 427.5,359C 421.478,356.795 415.811,353.962 410.5,350.5C 414.669,343.817 416.336,336.484 415.5,328.5 Z"/></g>
<g><path style="opacity:1" fill="#7b6152" d="M 258.5,336.5 C 263.963,338.764 269.63,340.431 275.5,341.5C 275.5,342.833 275.5,344.167 275.5,345.5C 275.494,350.215 274.994,354.882 274,359.5C 271.283,370.083 268.95,380.75 267,391.5C 266.617,392.056 266.117,392.389 265.5,392.5C 252.902,390.619 242.402,384.953 234,375.5C 232.727,372.511 231.561,369.511 230.5,366.5C 245.674,361.991 255.008,351.991 258.5,336.5 Z"/></g>
<g><path style="opacity:1" fill="#7b6152" d="M 410.5,350.5 C 415.811,353.962 421.478,356.795 427.5,359C 441.471,360.306 455.138,358.806 468.5,354.5C 469.416,354.543 470.083,354.876 470.5,355.5C 469.784,361.645 468.451,367.645 466.5,373.5C 460.855,375.988 455.188,378.488 449.5,381C 444.167,381.667 438.833,381.667 433.5,381C 420.097,377.301 407.097,372.467 394.5,366.5C 393.702,366.043 393.369,365.376 393.5,364.5C 400.912,361.96 406.578,357.293 410.5,350.5 Z"/></g>
<g><path style="opacity:1" fill="#695346" d="M 131.5,352.5 C 138.819,354.64 144.986,358.64 150,364.5C 155,376.167 160,387.833 165,399.5C 176.216,408.858 188.049,417.358 200.5,425C 203.372,427.537 205.872,430.37 208,433.5C 211.078,439.991 214.412,446.325 218,452.5C 221.908,457.599 226.741,461.265 232.5,463.5C 227.484,472.868 222.484,482.201 217.5,491.5C 210.4,486.245 203.4,480.745 196.5,475C 194.5,474 192.5,473 190.5,472C 188.934,471.235 187.601,471.402 186.5,472.5C 182.864,467.858 179.197,463.191 175.5,458.5C 188.337,458.545 200.337,461.378 211.5,467C 208.932,459.033 205.432,451.533 201,444.5C 198.261,441.882 195.427,439.382 192.5,437C 182.409,430.873 172.576,424.373 163,417.5C 158.875,412.699 155.542,407.365 153,401.5C 149.728,391.015 146.061,380.682 142,370.5C 139.63,367.961 137.13,365.628 134.5,363.5C 133.134,360.039 132.134,356.373 131.5,352.5 Z"/></g>
<g><path style="opacity:1" fill="#695347" d="M 328.5,360.5 C 340.105,364.789 351.771,365.455 363.5,362.5C 373.162,367.998 383.162,368.664 393.5,364.5C 393.369,365.376 393.702,366.043 394.5,366.5C 407.097,372.467 420.097,377.301 433.5,381C 438.833,381.667 444.167,381.667 449.5,381C 455.188,378.488 460.855,375.988 466.5,373.5C 465.279,379.402 463.612,385.068 461.5,390.5C 461.44,389.957 461.107,389.624 460.5,389.5C 447.368,393.701 434.368,393.201 421.5,388C 409.511,383.336 397.511,378.67 385.5,374C 374.006,372.448 362.672,373.448 351.5,377C 344.972,377.229 338.639,377.396 332.5,377.5C 331.038,371.978 329.704,366.311 328.5,360.5 Z"/></g>
<g><path style="opacity:1" fill="#7b6152" d="M 134.5,363.5 C 137.13,365.628 139.63,367.961 142,370.5C 146.061,380.682 149.728,391.015 153,401.5C 155.542,407.365 158.875,412.699 163,417.5C 172.576,424.373 182.409,430.873 192.5,437C 195.427,439.382 198.261,441.882 201,444.5C 205.432,451.533 208.932,459.033 211.5,467C 200.337,461.378 188.337,458.545 175.5,458.5C 154.508,430.164 140.842,398.498 134.5,363.5 Z"/></g>
<g><path style="opacity:1" fill="#6a5447" d="M 219.5,366.5 C 223.167,366.5 226.833,366.5 230.5,366.5C 231.561,369.511 232.727,372.511 234,375.5C 242.402,384.953 252.902,390.619 265.5,392.5C 265.089,397.486 263.755,402.152 261.5,406.5C 257.055,406.28 252.722,405.446 248.5,404C 232.236,398.23 223.236,386.73 221.5,369.5C 221.058,368.261 220.391,367.261 219.5,366.5 Z"/></g>
<g><path style="opacity:1" fill="#7b6152" d="M 461.5,390.5 C 458.682,401.135 455.016,411.468 450.5,421.5C 437.992,420.908 425.658,422.075 413.5,425C 400.328,429.919 387.662,435.919 375.5,443C 370.761,445.374 365.761,446.541 360.5,446.5C 356.593,439.689 352.927,432.689 349.5,425.5C 349.47,424.503 349.97,423.836 351,423.5C 359.078,425.174 366.911,424.34 374.5,421C 386.61,413.132 399.61,407.299 413.5,403.5C 410.998,402.208 408.331,401.541 405.5,401.5C 396.208,403.709 386.875,405.709 377.5,407.5C 371.262,406.94 365.262,405.44 359.5,403C 352.872,401.948 346.206,401.448 339.5,401.5C 336.006,393.999 333.672,385.999 332.5,377.5C 338.639,377.396 344.972,377.229 351.5,377C 362.672,373.448 374.006,372.448 385.5,374C 397.511,378.67 409.511,383.336 421.5,388C 434.368,393.201 447.368,393.701 460.5,389.5C 461.107,389.624 461.44,389.957 461.5,390.5 Z"/></g>
<g><path style="opacity:1" fill="#6a5447" d="M 339.5,401.5 C 346.206,401.448 352.872,401.948 359.5,403C 365.262,405.44 371.262,406.94 377.5,407.5C 386.875,405.709 396.208,403.709 405.5,401.5C 408.331,401.541 410.998,402.208 413.5,403.5C 399.61,407.299 386.61,413.132 374.5,421C 366.911,424.34 359.078,425.174 351,423.5C 349.97,423.836 349.47,424.503 349.5,425.5C 346.697,419.894 343.864,414.227 341,408.5C 340.338,406.187 339.838,403.854 339.5,401.5 Z"/></g>
<g><path style="opacity:1" fill="#695346" d="M 450.5,421.5 C 447.243,429.024 443.243,436.024 438.5,442.5C 434.514,443.329 430.514,444.163 426.5,445C 413.12,445.096 399.787,445.763 386.5,447C 379.173,449.324 372.84,453.157 367.5,458.5C 364.677,454.864 362.344,450.864 360.5,446.5C 365.761,446.541 370.761,445.374 375.5,443C 387.662,435.919 400.328,429.919 413.5,425C 425.658,422.075 437.992,420.908 450.5,421.5 Z"/></g>
<g><path style="opacity:1" fill="#7b6152" d="M 438.5,442.5 C 433.644,450.226 428.311,457.559 422.5,464.5C 406.736,466.511 391.403,470.177 376.5,475.5C 373.773,469.714 370.773,464.048 367.5,458.5C 372.84,453.157 379.173,449.324 386.5,447C 399.787,445.763 413.12,445.096 426.5,445C 430.514,444.163 434.514,443.329 438.5,442.5 Z"/></g>
<g><path style="opacity:1" fill="#040404" d="M 283.5,464.5 C 296.875,464.143 310.208,464.643 323.5,466C 348.177,470.222 357.677,484.388 352,508.5C 342.248,525.977 327.414,536.477 307.5,540C 285.917,540.625 268.417,532.459 255,515.5C 243.912,493.621 249.412,477.788 271.5,468C 275.647,466.891 279.647,465.724 283.5,464.5 Z"/></g>
<g><path style="opacity:1" fill="#695346" d="M 422.5,464.5 C 419.522,469.469 416.189,474.135 412.5,478.5C 412.44,477.957 412.107,477.624 411.5,477.5C 402.289,481.937 393.289,486.604 384.5,491.5C 381.323,486.48 378.657,481.146 376.5,475.5C 391.403,470.177 406.736,466.511 422.5,464.5 Z"/></g>
<g><path style="opacity:1" fill="#775e50" d="M 217.5,491.5 C 213.085,501.063 209.419,511.063 206.5,521.5C 203.338,503.667 196.671,487.334 186.5,472.5C 187.601,471.402 188.934,471.235 190.5,472C 192.5,473 194.5,474 196.5,475C 203.4,480.745 210.4,486.245 217.5,491.5 Z"/></g>
<g><path style="opacity:1" fill="#362e2b" d="M 287.5,474.5 C 296.839,474.334 306.173,474.5 315.5,475C 322.416,476.194 329.082,478.194 335.5,481C 343.063,486.698 345.563,494.198 343,503.5C 338.5,513.333 331.333,520.5 321.5,525C 315.18,527.901 308.514,529.734 301.5,530.5C 290.315,529.161 280.315,524.994 271.5,518C 260.565,509.089 257.732,498.255 263,485.5C 270.087,479.202 278.254,475.536 287.5,474.5 Z"/></g>
<g><path style="opacity:1" fill="#7a6051" d="M 412.5,478.5 C 404.251,493.47 398.751,509.47 396,526.5C 393.524,514.211 389.69,502.544 384.5,491.5C 393.289,486.604 402.289,481.937 411.5,477.5C 412.107,477.624 412.44,477.957 412.5,478.5 Z"/></g>
</svg>
