<?xml version="1.0" encoding="UTF-8"?>
<!DOCTYPE svg PUBLIC "-//W3C//DTD SVG 1.1//EN" "http://www.w3.org/Graphics/SVG/1.1/DTD/svg11.dtd">
<svg xmlns="http://www.w3.org/2000/svg" version="1.1" width="600px" height="600px" style="shape-rendering:geometricPrecision; text-rendering:geometricPrecision; image-rendering:optimizeQuality; fill-rule:evenodd; clip-rule:evenodd" xmlns:xlink="http://www.w3.org/1999/xlink">
<g><path style="opacity:0.959" fill="#020202" d="M 289.5,1.5 C 323.764,-1.34835 356.097,5.15165 386.5,21C 405.048,32.5474 419.881,47.7141 431,66.5C 436.968,79.7014 442.634,93.0348 448,106.5C 463.449,135.064 478.116,164.064 492,193.5C 496.636,204.742 499.636,216.409 501,228.5C 502.068,265.163 503.068,301.829 504,338.5C 506.729,384.335 513.063,429.669 523,474.5C 529.997,503.486 536.83,532.486 543.5,561.5C 542.434,574.418 535.767,583.252 523.5,588C 487.274,600.166 452.274,597.5 418.5,580C 401.665,568.836 389.165,554.002 381,535.5C 372.489,513.123 366.323,490.123 362.5,466.5C 356.572,463.406 351.739,459.073 348,453.5C 341.653,442.801 335.32,432.134 329,421.5C 314.291,405.506 299.624,405.506 285,421.5C 277.499,432.498 270.499,443.832 264,455.5C 260.753,459.291 257.086,462.624 253,465.5C 249.295,491.323 242.628,516.323 233,540.5C 216.78,572.877 190.613,591.377 154.5,596C 132.608,598.435 111.275,596.101 90.5,589C 76.1639,582.832 70.3306,571.999 73,556.5C 87.318,504.229 97.9846,451.229 105,397.5C 107.472,375.896 109.138,354.229 110,332.5C 110.333,300.5 110.667,268.5 111,236.5C 111.62,223.398 114.287,210.732 119,198.5C 132.867,168.432 147.534,138.766 163,109.5C 168.553,94.1738 174.887,79.1738 182,64.5C 199.272,35.9215 224.105,17.0881 256.5,8C 267.524,5.22802 278.524,3.06135 289.5,1.5 Z"/></g>
<g><path style="opacity:1" fill="#241d19" d="M 443.5,120.5 C 443.217,162.217 437.05,203.217 425,243.5C 419.279,262.165 413.112,280.498 406.5,298.5C 415.541,263.05 420.041,227.05 420,190.5C 412.415,204.009 404.082,217.009 395,229.5C 391.535,233.967 387.702,238.133 383.5,242C 379.099,245.188 374.766,248.355 370.5,251.5C 354.975,219.773 342.475,186.773 333,152.5C 327.763,125.859 329.096,99.5253 337,73.5C 340.132,63.1048 343.465,52.7715 347,42.5C 347.81,37.7426 347.476,33.0759 346,28.5C 342.946,25.4459 340.279,22.7792 338,20.5C 337.586,20.9574 337.086,21.2907 336.5,21.5C 326.621,18.1628 316.454,16.8295 306,17.5C 293.023,16.1411 280.856,18.3078 269.5,24C 263.885,28.9683 262.052,35.135 264,42.5C 271.163,60.9885 276.496,79.9885 280,99.5C 282.981,121.455 281.647,143.122 276,164.5C 266.346,195.488 255.179,224.488 242.5,251.5C 239.908,248.002 236.575,245.169 232.5,243C 226.413,237.304 220.913,231.137 216,224.5C 208.907,213.593 202.074,202.593 195.5,191.5C 195.44,190.957 195.107,190.624 194.5,190.5C 193.189,194.984 193.189,199.317 194.5,203.5C 196.976,247.877 204.976,291.211 218.5,333.5C 203.688,294.549 190.521,254.215 179,212.5C 172.056,182.364 168.556,152.03 168.5,121.5C 175.597,108.045 181.431,94.0448 186,79.5C 201.24,48.6018 225.407,28.1018 258.5,18C 300.17,7.1215 340.503,10.7882 379.5,29C 407.79,46.3606 426.29,71.194 435,103.5C 437.847,109.193 440.68,114.86 443.5,120.5 Z"/></g>
<g><path style="opacity:1" fill="#eaecea" d="M 298.5,21.5 C 308.912,21.4011 319.245,22.2345 329.5,24C 339.172,24.988 343.672,30.1547 343,39.5C 335.831,58.674 330.497,78.3407 327,98.5C 324.56,117.286 325.226,135.953 329,154.5C 331.845,164.879 334.845,175.212 338,185.5C 349.057,213.281 360.39,240.947 372,268.5C 383.237,298.109 387.737,328.775 385.5,360.5C 385.347,385.522 384.514,410.522 383,435.5C 382.703,444.11 379.203,450.944 372.5,456C 369.697,456.755 367.03,456.422 364.5,455C 362,453.167 359.833,451 358,448.5C 353.168,439.499 347.835,430.832 342,422.5C 343.482,415.327 340.649,411.827 333.5,412C 315.143,393.873 297.143,394.206 279.5,413C 277.833,413.333 276.167,413.667 274.5,414C 269.376,425.409 263.543,436.576 257,447.5C 246.759,461.415 238.759,460.082 233,443.5C 230.625,426.922 229.292,410.256 229,393.5C 228.333,369.5 228.333,345.5 229,321.5C 230.316,303.235 234.316,285.568 241,268.5C 254.109,238.28 266.109,207.613 277,176.5C 289.327,140.961 289.661,105.295 278,69.5C 275.197,60.7584 272.197,52.0917 269,43.5C 265.439,34.3945 268.272,28.2278 277.5,25C 284.556,23.3398 291.556,22.1731 298.5,21.5 Z"/></g>
<g><path style="opacity:1" fill="#c36a1d" d="M 233.5,83.5 C 249.276,84.2871 258.943,92.2871 262.5,107.5C 262.949,110.637 261.949,113.137 259.5,115C 250.379,112.711 241.046,111.045 231.5,110C 222.772,108.285 219.272,103.119 221,94.5C 224.127,89.54 228.294,85.8733 233.5,83.5 Z"/></g>
<g><path style="opacity:1" fill="#c2691d" d="M 373.5,83.5 C 386.229,83.7309 392.729,90.0642 393,102.5C 390.362,106.128 386.862,108.628 382.5,110C 372.933,111.037 363.6,112.704 354.5,115C 352.129,113.257 350.795,110.923 350.5,108C 353.933,95.7369 361.6,87.5702 373.5,83.5 Z"/></g>
<g><path style="opacity:1" fill="#302826" d="M 443.5,120.5 C 457.646,147.155 471.146,174.155 484,201.5C 487.988,211.463 490.321,221.797 491,232.5C 487.615,342.799 501.615,450.799 533,556.5C 534.388,565.891 530.888,572.724 522.5,577C 508.244,582.771 493.411,585.271 478,584.5C 427.172,583.905 395.505,558.905 383,509.5C 378.546,493.688 375.046,477.688 372.5,461.5C 381.623,456.28 386.456,448.28 387,437.5C 389.763,408.234 390.93,378.901 390.5,349.5C 396.611,332.83 401.944,315.83 406.5,298.5C 413.112,280.498 419.279,262.165 425,243.5C 437.05,203.217 443.217,162.217 443.5,120.5 Z"/></g>
<g><path style="opacity:1" fill="#302826" d="M 168.5,121.5 C 168.556,152.03 172.056,182.364 179,212.5C 190.521,254.215 203.688,294.549 218.5,333.5C 219.796,338.393 221.462,343.06 223.5,347.5C 223.553,376.548 224.719,405.548 227,434.5C 227.305,446.448 232.305,455.781 242,462.5C 239.013,491.111 231.346,518.445 219,544.5C 199.327,573.837 171.661,587.837 136,586.5C 120.018,587.032 104.851,583.866 90.5,577C 84.0059,572.505 81.5059,566.338 83,558.5C 113.582,448.598 126.915,336.598 123,222.5C 124.85,212.799 127.85,203.466 132,194.5C 143.653,169.861 155.819,145.528 168.5,121.5 Z"/></g>
<g><path style="opacity:1" fill="#eaeaea" d="M 356.5,120.5 C 359.09,120.918 361.423,121.918 363.5,123.5C 358.581,136.999 363.081,145.332 377,148.5C 384.593,148.042 389.927,144.376 393,137.5C 394.667,138.833 396.333,140.167 398,141.5C 396.783,146.075 393.95,149.575 389.5,152C 373.354,159.259 361.854,154.759 355,138.5C 354.101,132.353 354.601,126.353 356.5,120.5 Z"/></g>
<g><path style="opacity:1" fill="#ebebeb" d="M 253.5,122.5 C 256.346,122.809 257.846,124.475 258,127.5C 258.66,149.509 248.16,158.676 226.5,155C 222.157,153.332 218.824,150.499 216.5,146.5C 218.047,144.806 219.88,143.473 222,142.5C 231.09,150.79 239.757,150.457 248,141.5C 251.09,135.837 251.257,130.17 248.5,124.5C 250.553,124.598 252.22,123.931 253.5,122.5 Z"/></g>
<g><path style="opacity:1" fill="#c36a1d" d="M 195.5,191.5 C 202.074,202.593 208.907,213.593 216,224.5C 220.913,231.137 226.413,237.304 232.5,243C 236.575,245.169 239.908,248.002 242.5,251.5C 235.504,268.322 230.004,285.656 226,303.5C 223.964,318.095 223.131,332.762 223.5,347.5C 221.462,343.06 219.796,338.393 218.5,333.5C 204.976,291.211 196.976,247.877 194.5,203.5C 194.183,199.298 194.517,195.298 195.5,191.5 Z"/></g>
<g><path style="opacity:1" fill="#c36a1d" d="M 406.5,298.5 C 401.944,315.83 396.611,332.83 390.5,349.5C 391.755,322.286 387.588,295.952 378,270.5C 375.484,264.141 372.984,257.808 370.5,251.5C 374.766,248.355 379.099,245.188 383.5,242C 387.702,238.133 391.535,233.967 395,229.5C 404.082,217.009 412.415,204.009 420,190.5C 420.041,227.05 415.541,263.05 406.5,298.5 Z"/></g>
<g><path style="opacity:1" fill="#6a3c1a" d="M 195.5,191.5 C 194.517,195.298 194.183,199.298 194.5,203.5C 193.189,199.317 193.189,194.984 194.5,190.5C 195.107,190.624 195.44,190.957 195.5,191.5 Z"/></g>
<g><path style="opacity:1" fill="#040405" d="M 297.5,282.5 C 315.082,281.081 331.748,284.248 347.5,292C 359.862,302.421 364.696,315.588 362,331.5C 355.723,351.78 342.556,365.613 322.5,373C 306.928,377.697 292.261,375.697 278.5,367C 254.858,353.069 246.691,332.902 254,306.5C 260.31,295.201 269.81,288.034 282.5,285C 287.681,284.4 292.681,283.566 297.5,282.5 Z"/></g>
</svg>
