<?xml version="1.0" encoding="UTF-8"?>
<!DOCTYPE svg PUBLIC "-//W3C//DTD SVG 1.1//EN" "http://www.w3.org/Graphics/SVG/1.1/DTD/svg11.dtd">
<svg xmlns="http://www.w3.org/2000/svg" version="1.1" width="600px" height="600px" style="shape-rendering:geometricPrecision; text-rendering:geometricPrecision; image-rendering:optimizeQuality; fill-rule:evenodd; clip-rule:evenodd" xmlns:xlink="http://www.w3.org/1999/xlink">
<g><path style="opacity:0.967" fill="#030201" d="M 295.5,57.5 C 323.931,57.0468 351.764,60.7134 379,68.5C 382.146,67.4506 385.312,67.6173 388.5,69C 416.401,78.9383 441.067,93.9383 462.5,114C 503.264,155.118 540.097,199.285 573,246.5C 582.422,260.345 589.422,275.345 594,291.5C 594.714,306.837 592.714,321.837 588,336.5C 572.567,388.184 550.233,436.518 521,481.5C 502.779,503.69 486.112,502.69 471,478.5C 461.136,458.771 451.803,438.771 443,418.5C 439.661,409.469 437.994,400.136 438,390.5C 430.441,412.071 424.441,434.071 420,456.5C 421.69,473.179 420.023,489.512 415,505.5C 410.711,516.781 402.544,523.281 390.5,525C 384.23,526.152 377.897,526.818 371.5,527C 333.372,542.847 294.372,545.514 254.5,535C 247.266,532.922 240.266,530.256 233.5,527C 210.187,526.996 195.687,515.83 190,493.5C 185.12,452.765 175.787,413.098 162,374.5C 162.565,398.908 156.565,421.574 144,442.5C 137.501,454.168 130.501,465.502 123,476.5C 102.877,500.815 85.8768,498.815 72,470.5C 51.0154,426.533 31.6821,381.866 14,336.5C 7.80331,321.057 4.80331,305.057 5,288.5C 8.33203,275.832 13.332,263.832 20,252.5C 55.4658,196.012 97.9658,145.179 147.5,100C 166.87,87.6495 187.537,77.9828 209.5,71C 213.5,70.6667 217.5,70.3333 221.5,70C 245.741,62.5145 270.407,58.3478 295.5,57.5 Z"/></g>
<g><path style="opacity:1" fill="#aa8553" d="M 421.5,407.5 C 420.903,407.265 420.57,406.765 420.5,406C 426.624,361.844 432.624,317.678 438.5,273.5C 438.667,260.659 434.334,249.659 425.5,240.5C 429.945,241.397 434.445,242.064 439,242.5C 445.097,242.471 447.097,239.471 445,233.5C 442.833,228.667 439.333,225.167 434.5,223C 410.754,209.046 385.754,206.046 359.5,214C 342.081,222.373 338.748,234.54 349.5,250.5C 342.027,268.807 336.861,287.807 334,307.5C 333.295,317.847 333.462,328.181 334.5,338.5C 334.444,340.64 333.777,342.306 332.5,343.5C 312.828,340.859 293.161,340.859 273.5,343.5C 275.167,321.088 273,299.088 267,277.5C 263.051,266.485 259.218,255.485 255.5,244.5C 262.775,230.837 259.441,220.337 245.5,213C 215.522,204.774 188.189,210.107 163.5,229C 160.727,231.383 158.561,234.217 157,237.5C 155.793,242.774 157.793,245.774 163,246.5C 167.79,245.261 172.623,244.261 177.5,243.5C 177.938,243.435 178.272,243.601 178.5,244C 171.707,251.875 168.374,261.042 168.5,271.5C 175.619,321.835 182.786,372.168 190,422.5C 190.805,425.696 190.638,428.696 189.5,431.5C 184.862,410.084 178.696,389.084 171,368.5C 169.756,364.078 166.923,361.744 162.5,361.5C 162.1,349.806 161.267,338.14 160,326.5C 156.441,303.481 152.775,280.481 149,257.5C 144.339,219.775 147.672,182.775 159,146.5C 165.097,129.126 174.597,113.96 187.5,101C 196.678,94.5772 205.678,87.9105 214.5,81C 217.833,80.6667 221.167,80.3333 224.5,80C 242.308,73.8644 260.641,70.1977 279.5,69C 315.84,66.6672 351.507,70.3339 386.5,80C 393.989,85.9106 401.655,91.5773 409.5,97C 422.217,109.728 431.717,124.562 438,141.5C 450.845,180.618 454.845,220.618 450,261.5C 446.117,284.801 442.45,308.134 439,331.5C 437.303,347.122 436.47,362.789 436.5,378.5C 432.91,378.544 430.41,380.211 429,383.5C 426.191,391.426 423.691,399.426 421.5,407.5 Z"/></g>
<g><path style="opacity:1" fill="#866034" d="M 390.5,76.5 C 390.56,75.9569 390.893,75.6236 391.5,75.5C 410.603,83.8803 428.603,94.0469 445.5,106C 495.004,152.477 538.17,203.977 575,260.5C 579.906,269.544 584.239,278.877 588,288.5C 589.719,299.934 589.052,311.267 586,322.5C 572.173,373.813 551.507,422.146 524,467.5C 520.578,472.678 516.911,477.678 513,482.5C 498.91,497.011 486.91,495.345 477,477.5C 468.096,460.46 459.762,443.127 452,425.5C 444.71,408.427 441.21,390.593 441.5,372C 441.779,362.821 442.279,353.655 443,344.5C 446.349,317.74 450.349,291.073 455,264.5C 460.865,217.808 455.531,172.474 439,128.5C 428.501,105.836 412.335,88.5029 390.5,76.5 Z"/></g>
<g><path style="opacity:1" fill="#866034" d="M 207.5,76.5 C 210.999,76.259 211.332,77.0924 208.5,79C 180.108,94.7369 161.275,118.237 152,149.5C 142.158,185.974 139.491,222.974 144,260.5C 147.775,283.481 151.441,306.481 155,329.5C 158.039,354.567 157.706,379.567 154,404.5C 145.969,427.228 135.303,448.561 122,468.5C 117.061,476.772 110.228,482.939 101.5,487C 97.2176,487.965 93.2176,487.298 89.5,485C 85.5783,481.749 82.4117,477.916 80,473.5C 63.1185,437.738 46.7852,401.738 31,365.5C 23.4756,347.594 17.1423,329.261 12,310.5C 10.5028,302.221 10.1695,293.888 11,285.5C 14.1762,276.146 18.1762,267.146 23,258.5C 55.2843,206.523 93.4509,159.023 137.5,116C 142.876,110.956 148.542,106.289 154.5,102C 171.74,92.3785 189.406,83.8785 207.5,76.5 Z"/></g>
<g><path style="opacity:1" fill="#997447" d="M 297.5,121.5 C 299.722,121.178 301.556,121.845 303,123.5C 303.667,157.167 303.667,190.833 303,224.5C 300.408,225.982 298.075,225.648 296,223.5C 295.333,190.167 295.333,156.833 296,123.5C 296.717,122.956 297.217,122.289 297.5,121.5 Z"/></g>
<g><path style="opacity:1" fill="#997447" d="M 256.5,147.5 C 260.897,148.695 264.73,151.028 268,154.5C 280.312,169.422 282.812,185.922 275.5,204C 271.905,205.073 269.905,203.739 269.5,200C 276.078,181.469 271.578,166.302 256,154.5C 255.297,152.071 255.463,149.738 256.5,147.5 Z"/></g>
<g><path style="opacity:1" fill="#997447" d="M 340.5,147.5 C 345.377,147.963 346.544,150.296 344,154.5C 329.23,166.486 324.73,181.653 330.5,200C 330.537,202.523 329.371,204.023 327,204.5C 325.347,204.18 324.347,203.18 324,201.5C 316.823,179.526 322.323,161.526 340.5,147.5 Z"/></g>
<g><path style="opacity:1" fill="#876135" d="M 255.5,244.5 C 253.668,246.894 251.168,247.894 248,247.5C 239.463,245.574 230.963,243.407 222.5,241C 207.176,238.549 192.176,239.382 177.5,243.5C 172.623,244.261 167.79,245.261 163,246.5C 157.793,245.774 155.793,242.774 157,237.5C 158.561,234.217 160.727,231.383 163.5,229C 188.189,210.107 215.522,204.774 245.5,213C 259.441,220.337 262.775,230.837 255.5,244.5 Z"/></g>
<g><path style="opacity:1" fill="#876135" d="M 425.5,240.5 C 401.343,236.311 378.343,239.811 356.5,251C 354.115,251.556 351.782,251.39 349.5,250.5C 338.748,234.54 342.081,222.373 359.5,214C 385.754,206.046 410.754,209.046 434.5,223C 439.333,225.167 442.833,228.667 445,233.5C 447.097,239.471 445.097,242.471 439,242.5C 434.445,242.064 429.945,241.397 425.5,240.5 Z"/></g>
<g><path style="opacity:1" fill="#987346" d="M 255.5,244.5 C 259.218,255.485 263.051,266.485 267,277.5C 273,299.088 275.167,321.088 273.5,343.5C 255.489,348.603 240.655,358.603 229,373.5C 213.618,394.599 201.118,417.265 191.5,441.5C 191.041,438.123 190.374,434.789 189.5,431.5C 190.638,428.696 190.805,425.696 190,422.5C 182.786,372.168 175.619,321.835 168.5,271.5C 168.374,261.042 171.707,251.875 178.5,244C 178.272,243.601 177.938,243.435 177.5,243.5C 192.176,239.382 207.176,238.549 222.5,241C 230.963,243.407 239.463,245.574 248,247.5C 251.168,247.894 253.668,246.894 255.5,244.5 Z"/></g>
<g><path style="opacity:1" fill="#987346" d="M 425.5,240.5 C 434.334,249.659 438.667,260.659 438.5,273.5C 432.624,317.678 426.624,361.844 420.5,406C 420.57,406.765 420.903,407.265 421.5,407.5C 418.544,416.655 416.211,425.989 414.5,435.5C 408.016,422.204 401.183,408.871 394,395.5C 383.953,378.787 371.119,364.62 355.5,353C 348.074,348.923 340.407,345.756 332.5,343.5C 333.777,342.306 334.444,340.64 334.5,338.5C 333.462,328.181 333.295,317.847 334,307.5C 336.861,287.807 342.027,268.807 349.5,250.5C 351.782,251.39 354.115,251.556 356.5,251C 378.343,239.811 401.343,236.311 425.5,240.5 Z"/></g>
<g><path style="opacity:1" fill="#533e35" d="M 208.5,246.5 C 226.261,244.789 238.428,252.122 245,268.5C 245.608,293.98 233.108,305.48 207.5,303C 190.905,297.4 183.738,285.9 186,268.5C 189.735,257.233 197.235,249.9 208.5,246.5 Z"/></g>
<g><path style="opacity:1" fill="#543e35" d="M 381.5,246.5 C 395.489,244.77 406.656,249.437 415,260.5C 422.229,275.429 419.396,288.262 406.5,299C 390.327,307.115 376.16,304.615 364,291.5C 354.198,270.435 360.032,255.435 381.5,246.5 Z"/></g>
<g><path style="opacity:1" fill="#181818" d="M 211.5,254.5 C 233.477,255.963 240.644,266.963 233,287.5C 223.973,296.233 213.806,297.733 202.5,292C 192.166,282.829 190.999,272.662 199,261.5C 202.728,258.223 206.895,255.89 211.5,254.5 Z"/></g>
<g><path style="opacity:1" fill="#181818" d="M 383.5,254.5 C 406.058,254.846 413.892,265.512 407,286.5C 400.679,294.275 392.512,297.109 382.5,295C 367.911,288.498 364.078,277.998 371,263.5C 374.651,259.609 378.818,256.609 383.5,254.5 Z"/></g>
<g><path style="opacity:1" fill="#e3e4e4" d="M 221.5,261.5 C 230.968,261.285 233.301,265.118 228.5,273C 222.984,274.925 219.651,273.091 218.5,267.5C 218.984,265.199 219.984,263.199 221.5,261.5 Z"/></g>
<g><path style="opacity:1" fill="#e6e7e7" d="M 395.5,261.5 C 403.028,261.023 405.695,264.356 403.5,271.5C 399.681,275.529 396.181,275.196 393,270.5C 391.927,266.9 392.76,263.9 395.5,261.5 Z"/></g>
<g><path style="opacity:1" fill="#362e2c" d="M 332.5,343.5 C 340.407,345.756 348.074,348.923 355.5,353C 371.119,364.62 383.953,378.787 394,395.5C 401.183,408.871 408.016,422.204 414.5,435.5C 412.789,440.717 411.456,446.05 410.5,451.5C 391.167,428.833 371.833,406.167 352.5,383.5C 347.293,367.029 335.959,357.863 318.5,356C 301.561,353.317 284.894,354.317 268.5,359C 248.002,369.997 242.169,386.497 251,408.5C 260.949,425.897 275.782,436.564 295.5,440.5C 295.85,451.549 295.35,462.549 294,473.5C 287.549,484.951 278.716,494.118 267.5,501C 257.008,507.246 246.008,512.412 234.5,516.5C 216.059,516.878 204.559,508.212 200,490.5C 198.242,473.951 195.409,457.618 191.5,441.5C 201.118,417.265 213.618,394.599 229,373.5C 240.655,358.603 255.489,348.603 273.5,343.5C 293.161,340.859 312.828,340.859 332.5,343.5 Z"/></g>
<g><path style="opacity:1" fill="#2b2523" d="M 352.5,383.5 C 371.833,406.167 391.167,428.833 410.5,451.5C 409.732,462.801 409.232,474.134 409,485.5C 408.485,494.755 405.318,502.921 399.5,510C 388.693,515.565 377.193,518.065 365,517.5C 349.555,511.362 335.055,503.528 321.5,494C 315.59,488.761 310.423,482.928 306,476.5C 305.08,473.899 304.413,471.232 304,468.5C 303.5,459.173 303.334,449.839 303.5,440.5C 322.796,437.024 337.629,427.024 348,410.5C 351.853,401.911 353.353,392.911 352.5,383.5 Z"/></g>
<g><path style="opacity:1" fill="#251f1e" d="M 349.5,520.5 C 316.813,532.446 284.147,532.446 251.5,520.5C 262.068,514.876 272.402,508.71 282.5,502C 294.312,498.344 305.979,498.678 317.5,503C 328.119,509.165 338.785,514.999 349.5,520.5 Z"/></g>
<g><path style="opacity:1" fill="#8f7047" d="M 251.5,520.5 C 284.147,532.446 316.813,532.446 349.5,520.5C 350.922,520.709 352.255,521.209 353.5,522C 319.263,534.15 284.929,534.484 250.5,523C 247.949,521.484 248.282,520.651 251.5,520.5 Z"/></g>
</svg>
