<?xml version="1.0" encoding="UTF-8"?>
<!DOCTYPE svg PUBLIC "-//W3C//DTD SVG 1.1//EN" "http://www.w3.org/Graphics/SVG/1.1/DTD/svg11.dtd">
<svg xmlns="http://www.w3.org/2000/svg" version="1.1" width="600px" height="600px" style="shape-rendering:geometricPrecision; text-rendering:geometricPrecision; image-rendering:optimizeQuality; fill-rule:evenodd; clip-rule:evenodd" xmlns:xlink="http://www.w3.org/1999/xlink">
<g><path style="opacity:0.97" fill="#020101" d="M 599.5,232.5 C 599.5,256.167 599.5,279.833 599.5,303.5C 589.45,341.597 572.95,376.597 550,408.5C 541.657,419.515 531.49,428.348 519.5,435C 505.545,440.398 492.212,439.064 479.5,431C 472.871,426.428 466.704,421.262 461,415.5C 459.34,420.668 455.84,423.335 450.5,423.5C 452.222,430.504 454.055,437.504 456,444.5C 458.543,452.478 457.877,460.145 454,467.5C 450.955,470.998 447.288,472.331 443,471.5C 446.553,506.571 432.387,531.404 400.5,546C 396.554,547.662 392.554,547.996 388.5,547C 379.593,559.119 367.926,567.286 353.5,571.5C 350.833,570.877 348.333,569.877 346,568.5C 333.625,581.203 318.958,590.203 302,595.5C 285.124,589.226 270.124,579.893 257,567.5C 253.159,570.555 248.992,571.055 244.5,569C 232.673,563.937 223.007,556.27 215.5,546C 207.921,547.261 200.921,545.595 194.5,541C 168.376,524.584 157.543,501.084 162,470.5C 156.522,472.005 152.189,470.338 149,465.5C 146.58,450.995 148.747,437.162 155.5,424C 146.586,423.37 142.419,418.537 143,409.5C 132.25,424.123 118.084,433.623 100.5,438C 93.2201,439.035 86.2201,438.035 79.5,435C 65.0925,426.593 53.2592,415.427 44,401.5C 23.7148,370.931 8.88147,337.931 -0.5,302.5C -0.5,279.167 -0.5,255.833 -0.5,232.5C 31.3522,169.462 72.0189,112.629 121.5,62C 136.808,50.7282 153.808,43.2282 172.5,39.5C 171.975,34.0517 173.975,29.8851 178.5,27C 187.682,24.0379 197.015,21.7046 206.5,20C 208.741,16.2044 212.074,13.871 216.5,13C 222.355,12.9564 228.189,13.4564 234,14.5C 234.772,14.3552 235.439,14.0219 236,13.5C 237.168,7.83507 240.668,4.83507 246.5,4.5C 250.901,6.69814 255.568,7.69814 260.5,7.5C 273.773,5.50834 287.107,4.175 300.5,3.5C 313.877,4.3386 327.21,5.67193 340.5,7.5C 345.432,7.69814 350.099,6.69814 354.5,4.5C 356.889,5.18047 359.222,6.0138 361.5,7C 363.221,9.61943 365.054,12.1194 367,14.5C 372.811,13.4564 378.645,12.9564 384.5,13C 389.214,13.3834 392.547,15.7167 394.5,20C 403.232,21.6829 411.899,23.6829 420.5,26C 426.093,28.6642 429.093,33.1642 429.5,39.5C 446.939,44.0544 462.939,51.5544 477.5,62C 519.038,104.946 554.871,152.112 585,203.5C 589.879,213.259 594.713,222.925 599.5,232.5 Z"/></g>
<g><path style="opacity:1" fill="#d0b694" d="M 418.5,48.5 C 428.855,55.6751 438.522,63.8418 447.5,73C 450.817,73.4983 454.15,73.665 457.5,73.5C 461.077,73.2051 464.243,74.2051 467,76.5C 468.238,79.9257 467.071,81.5923 463.5,81.5C 460.843,81.162 458.51,81.8287 456.5,83.5C 460.23,91.3633 465.563,97.6966 472.5,102.5C 472.131,104.441 471.464,106.275 470.5,108C 474.1,117.607 477.767,127.107 481.5,136.5C 482.768,138.905 483.435,141.572 483.5,144.5C 485.278,150.051 488.111,155.051 492,159.5C 492.49,160.793 492.657,162.127 492.5,163.5C 491.5,163.5 490.5,163.5 489.5,163.5C 488.503,163.47 487.836,163.97 487.5,165C 488.394,168.776 488.728,172.61 488.5,176.5C 488.663,178.857 488.497,181.19 488,183.5C 450.651,159.297 409.817,150.131 365.5,156C 355.48,156.574 345.646,158.074 336,160.5C 335.612,159.572 334.945,158.905 334,158.5C 320.976,160.942 309.643,166.609 300,175.5C 290.408,166.96 279.242,161.46 266.5,159C 235.935,153.891 205.269,153.224 174.5,157C 152.899,161.364 132.899,169.531 114.5,181.5C 113.526,179.257 113.192,176.924 113.5,174.5C 114.482,171.038 114.815,167.371 114.5,163.5C 113.5,163.5 112.5,163.5 111.5,163.5C 112.196,160.446 113.696,157.78 116,155.5C 116.494,153.866 116.66,152.199 116.5,150.5C 116.42,147.219 117.087,144.219 118.5,141.5C 120.947,135.811 122.614,129.811 123.5,123.5C 124.199,118.728 125.866,114.395 128.5,110.5C 131.674,105.484 134.341,100.151 136.5,94.5C 139.268,91.1584 141.934,87.6584 144.5,84C 143.756,82.9614 142.756,82.4614 141.5,82.5C 140.201,80.8466 140.534,79.3466 142.5,78C 144.345,76.872 146.345,76.372 148.5,76.5C 154.909,71.5968 160.909,66.0968 166.5,60C 171.35,56.6366 176.017,53.1366 180.5,49.5C 187.01,46.9118 193.343,43.7451 199.5,40C 194.255,38.5702 188.922,37.5702 183.5,37C 187.683,35.2039 192.016,33.8706 196.5,33C 205.867,32.053 215.2,30.8863 224.5,29.5C 222.569,27.1956 220.236,25.3622 217.5,24C 223.979,24.1945 230.479,24.6945 237,25.5C 239.898,25.3632 242.731,24.8632 245.5,24C 247.18,23.6532 248.18,22.6532 248.5,21C 247.496,19.2017 246.996,17.3684 247,15.5C 250.972,17.9037 255.306,18.9037 260,18.5C 273.445,16.5553 286.945,15.222 300.5,14.5C 314.039,15.3798 327.539,16.7131 341,18.5C 345.694,18.9037 350.028,17.9037 354,15.5C 354.004,17.3684 353.504,19.2017 352.5,21C 352.82,22.6532 353.82,23.6532 355.5,24C 358.269,24.8632 361.102,25.3632 364,25.5C 370.843,24.6348 377.676,24.1348 384.5,24C 381.622,25.5992 378.956,27.4325 376.5,29.5C 390.021,30.5619 403.354,32.7286 416.5,36C 416.833,36.3333 417.167,36.6667 417.5,37C 412.078,37.5702 406.745,38.5702 401.5,40C 406.91,43.3716 412.577,46.2049 418.5,48.5 Z"/></g>
<g><path style="opacity:1" fill="#ab8555" d="M 151.5,56.5 C 152.239,56.369 152.906,56.5357 153.5,57C 148.949,62.8955 143.282,67.2289 136.5,70C 132.028,73.7798 129.861,78.6131 130,84.5C 117.878,104.661 109.878,126.328 106,149.5C 101.142,154.22 99.4749,159.886 101,166.5C 102.707,168.909 103.54,171.575 103.5,174.5C 96.1132,176.728 91.6132,181.728 90,189.5C 88.4713,196.509 89.9713,202.676 94.5,208C 92.3197,223.154 92.153,238.32 94,253.5C 95.278,258.612 98.4447,261.945 103.5,263.5C 100.139,268.888 97.3061,274.554 95,280.5C 93.9456,287.698 94.6122,294.698 97,301.5C 98.892,303.054 100.392,304.888 101.5,307C 97.1254,321.848 98.292,336.348 105,350.5C 108.691,354.261 113.191,356.261 118.5,356.5C 116.514,364.142 113.681,371.476 110,378.5C 108.779,385.891 111.612,391.058 118.5,394C 126.516,394.331 134.516,394.331 142.5,394C 136.238,402.266 129.238,409.932 121.5,417C 111.707,425.598 100.374,428.931 87.5,427C 81.5268,424.681 76.1935,421.347 71.5,417C 51.5838,397.057 36.4172,373.89 26,347.5C 14.2054,319.783 6.70537,290.95 3.5,261C 6.1441,243.738 11.9774,227.572 21,212.5C 50.9946,160.016 87.1612,112.183 129.5,69C 136.733,64.553 144.067,60.3863 151.5,56.5 Z"/></g>
<g><path style="opacity:1" fill="#92724b" d="M 418.5,48.5 C 423.159,50.3014 427.492,52.8014 431.5,56C 437.469,60.9672 443.135,66.3005 448.5,72C 451.695,72.1805 454.695,72.6805 457.5,73.5C 454.15,73.665 450.817,73.4983 447.5,73C 438.522,63.8418 428.855,55.6751 418.5,48.5 Z"/></g>
<g><path style="opacity:1" fill="#99774c" d="M 448.5,58.5 C 448.56,57.9569 448.893,57.6236 449.5,57.5C 452.213,58.9055 454.879,60.4055 457.5,62C 455.833,62.6667 454.167,62.6667 452.5,62C 451.295,60.6244 449.962,59.4577 448.5,58.5 Z"/></g>
<g><path style="opacity:1" fill="#997a52" d="M 180.5,49.5 C 176.017,53.1366 171.35,56.6366 166.5,60C 160.909,66.0968 154.909,71.5968 148.5,76.5C 157.403,65.2518 168.07,56.2518 180.5,49.5 Z"/></g>
<g><path style="opacity:1" fill="#ab8555" d="M 477.5,76.5 C 521.464,123.322 558.297,175.322 588,232.5C 596.024,248.835 597.69,265.835 593,283.5C 584.724,324.368 569.057,362.035 546,396.5C 538.167,407 529,416.167 518.5,424C 510.093,427.761 501.427,428.427 492.5,426C 478.169,418.504 466.502,408.004 457.5,394.5C 459,394.167 460.5,393.833 462,393.5C 470.463,394.886 478.963,395.386 487.5,395C 494.999,391.501 497.833,385.667 496,377.5C 492.203,370.941 489.703,363.941 488.5,356.5C 493.503,356.915 497.67,355.248 501,351.5C 507.549,337.322 509.049,322.655 505.5,307.5C 514.561,291.981 513.228,277.315 501.5,263.5C 505.396,262.436 508.229,260.103 510,256.5C 511.282,250.245 512.115,243.911 512.5,237.5C 511.729,220.804 510.562,204.137 509,187.5C 507.932,182.765 505.099,179.598 500.5,178C 499.196,177.196 498.529,176.029 498.5,174.5C 502.497,169.18 503.997,163.18 503,156.5C 499.667,151.167 496.333,145.833 493,140.5C 490.804,130.579 487.804,120.913 484,111.5C 484.803,101.778 481.303,94.1113 473.5,88.5C 476.06,84.9348 477.393,80.9348 477.5,76.5 Z"/></g>
<g><path style="opacity:1" fill="#93734c" d="M 141.5,82.5 C 142.756,82.4614 143.756,82.9614 144.5,84C 141.934,87.6584 139.268,91.1584 136.5,94.5C 138.097,90.8106 140.097,87.3106 142.5,84C 141.944,83.6174 141.611,83.1174 141.5,82.5 Z"/></g>
<g><path style="opacity:1" fill="#92734b" d="M 463.5,81.5 C 461.811,82.3037 460.145,83.3037 458.5,84.5C 461.25,88.3318 463.75,92.3318 466,96.5C 469.214,97.4983 471.381,99.4983 472.5,102.5C 465.563,97.6966 460.23,91.3633 456.5,83.5C 458.51,81.8287 460.843,81.162 463.5,81.5 Z"/></g>
<g><path style="opacity:1" fill="#91714a" d="M 136.5,94.5 C 134.341,100.151 131.674,105.484 128.5,110.5C 130.126,104.581 132.793,99.2474 136.5,94.5 Z"/></g>
<g><path style="opacity:1" fill="#9c7d56" d="M 472.5,102.5 C 472.824,104.964 472.991,107.631 473,110.5C 476.741,118.889 479.574,127.556 481.5,136.5C 477.767,127.107 474.1,117.607 470.5,108C 471.464,106.275 472.131,104.441 472.5,102.5 Z"/></g>
<g><path style="opacity:1" fill="#a08159" d="M 123.5,123.5 C 122.614,129.811 120.947,135.811 118.5,141.5C 118.98,135.073 120.647,129.073 123.5,123.5 Z"/></g>
<g><path style="opacity:1" fill="#92724b" d="M 483.5,144.5 C 486.412,149.263 489.579,153.929 493,158.5C 493.495,160.473 493.662,162.473 493.5,164.5C 491.901,164.768 490.568,164.434 489.5,163.5C 490.5,163.5 491.5,163.5 492.5,163.5C 492.657,162.127 492.49,160.793 492,159.5C 488.111,155.051 485.278,150.051 483.5,144.5 Z"/></g>
<g><path style="opacity:1" fill="#bb9872" d="M 488.5,176.5 C 489.468,178.607 489.802,180.941 489.5,183.5C 489.5,184.5 489.5,185.5 489.5,186.5C 493.363,188.022 496.696,190.355 499.5,193.5C 498.917,197.083 498.917,200.75 499.5,204.5C 498.717,202.657 498.05,200.657 497.5,198.5C 479.956,190.207 461.623,184.541 442.5,181.5C 433.892,182.417 433.225,185.417 440.5,190.5C 441.696,190.154 441.696,189.654 440.5,189C 447.192,193.025 452.692,198.525 457,205.5C 459.854,209.848 461.52,214.514 462,219.5C 461.026,217.122 460.359,217.456 460,220.5C 455.763,216.964 451.263,213.798 446.5,211C 444.19,210.503 441.857,210.337 439.5,210.5C 439.338,212.527 439.505,214.527 440,216.5C 444.688,226.321 446.688,236.655 446,247.5C 442.097,235.855 436.264,225.355 428.5,216C 427.552,215.517 426.552,215.351 425.5,215.5C 419.413,207.952 411.746,202.618 402.5,199.5C 399.543,198.345 396.543,197.345 393.5,196.5C 390.466,194.982 387.133,194.149 383.5,194C 377.509,193.501 371.509,193.334 365.5,193.5C 365.03,192.307 364.03,191.64 362.5,191.5C 353.302,192.373 344.302,194.206 335.5,197C 326.301,202.859 318.301,210.192 311.5,219C 306.956,220.521 302.789,222.688 299,225.5C 290.084,217.574 280.918,210.074 271.5,203C 261.622,197.429 251.289,194.595 240.5,194.5C 221.354,191.302 203.354,194.469 186.5,204C 183.274,206.064 180.608,208.564 178.5,211.5C 178.565,211.062 178.399,210.728 178,210.5C 173.251,214.578 169.251,219.245 166,224.5C 160.896,233.708 156.063,243.041 151.5,252.5C 150.312,245.149 150.478,237.816 152,230.5C 153.85,224.144 155.683,217.811 157.5,211.5C 154.984,211.755 152.65,212.589 150.5,214C 146.167,217.167 141.833,220.333 137.5,223.5C 136.348,220.894 136.182,218.227 137,215.5C 142.359,202.804 150.692,192.47 162,184.5C 162.617,183.551 162.451,182.718 161.5,182C 143.324,182.639 125.991,186.972 109.5,195C 107.501,197.255 106.168,199.755 105.5,202.5C 105.5,200.833 105.5,199.167 105.5,197.5C 103.5,197.5 101.5,197.5 99.5,197.5C 99.0254,194.918 99.6921,192.918 101.5,191.5C 104.932,188.054 108.599,185.054 112.5,182.5C 112.194,179.615 112.527,176.948 113.5,174.5C 113.192,176.924 113.526,179.257 114.5,181.5C 132.899,169.531 152.899,161.364 174.5,157C 205.269,153.224 235.935,153.891 266.5,159C 279.242,161.46 290.408,166.96 300,175.5C 309.643,166.609 320.976,160.942 334,158.5C 334.945,158.905 335.612,159.572 336,160.5C 345.646,158.074 355.48,156.574 365.5,156C 409.817,150.131 450.651,159.297 488,183.5C 488.497,181.19 488.663,178.857 488.5,176.5 Z"/></g>
<g><path style="opacity:1" fill="#91724a" d="M 116.5,150.5 C 116.66,152.199 116.494,153.866 116,155.5C 113.696,157.78 112.196,160.446 111.5,163.5C 112.5,163.5 113.5,163.5 114.5,163.5C 114.815,167.371 114.482,171.038 113.5,174.5C 113.5,171.167 113.5,167.833 113.5,164.5C 112.5,164.5 111.5,164.5 110.5,164.5C 110.34,162.801 110.506,161.134 111,159.5C 113.565,156.807 115.398,153.807 116.5,150.5 Z"/></g>
<g><path style="opacity:1" fill="#d0b694" d="M 178.5,211.5 C 176.575,220.62 177.575,229.287 181.5,237.5C 184.441,244.774 189.441,250.107 196.5,253.5C 203.018,258.13 210.351,259.963 218.5,259C 239.694,255.14 251.027,242.473 252.5,221C 251.849,210.54 247.849,201.706 240.5,194.5C 251.289,194.595 261.622,197.429 271.5,203C 280.918,210.074 290.084,217.574 299,225.5C 302.789,222.688 306.956,220.521 311.5,219C 318.301,210.192 326.301,202.859 335.5,197C 344.302,194.206 353.302,192.373 362.5,191.5C 364.03,191.64 365.03,192.307 365.5,193.5C 346.1,214.015 347.1,233.515 368.5,252C 387.795,262.473 404.628,259.306 419,242.5C 424.153,234.221 426.32,225.221 425.5,215.5C 426.552,215.351 427.552,215.517 428.5,216C 436.264,225.355 442.097,235.855 446,247.5C 446.688,236.655 444.688,226.321 440,216.5C 439.505,214.527 439.338,212.527 439.5,210.5C 441.857,210.337 444.19,210.503 446.5,211C 451.263,213.798 455.763,216.964 460,220.5C 460.359,217.456 461.026,217.122 462,219.5C 461.52,214.514 459.854,209.848 457,205.5C 452.692,198.525 447.192,193.025 440.5,189C 441.696,189.654 441.696,190.154 440.5,190.5C 433.225,185.417 433.892,182.417 442.5,181.5C 461.623,184.541 479.956,190.207 497.5,198.5C 498.05,200.657 498.717,202.657 499.5,204.5C 500.477,207.287 500.81,210.287 500.5,213.5C 500.667,226.171 500.5,238.838 500,251.5C 497.606,252.136 495.106,252.136 492.5,251.5C 491.235,250.521 489.901,249.521 488.5,248.5C 487.338,253.131 487.172,257.798 488,262.5C 488.377,263.942 489.21,264.942 490.5,265.5C 493.688,271.062 496.855,276.728 500,282.5C 501.01,287.558 500.51,292.391 498.5,297C 493.292,297.362 488.292,296.695 483.5,295C 497.548,309.42 500.381,325.92 492,344.5C 488.872,345.942 486.038,345.442 483.5,343C 480.333,339.833 477.167,336.667 474,333.5C 473.131,335.581 472.631,337.747 472.5,340C 475.133,354.535 479.467,368.535 485.5,382C 484.956,383.947 483.623,384.78 481.5,384.5C 472.422,383.574 463.422,382.241 454.5,380.5C 453.479,381.901 452.479,383.235 451.5,384.5C 448.511,389.271 446.178,394.437 444.5,400C 447.188,404.207 449.188,408.707 450.5,413.5C 446.87,413.235 443.703,411.902 441,409.5C 439.301,412.935 437.801,416.435 436.5,420C 441.759,431.279 445.092,443.112 446.5,455.5C 447.103,460.31 445.436,461.81 441.5,460C 437.966,456.131 434.133,452.631 430,449.5C 429.5,450.5 429,451.5 428.5,452.5C 430.265,463.095 431.598,473.761 432.5,484.5C 431.685,504.461 423.019,519.961 406.5,531C 402.121,533.694 397.454,535.527 392.5,536.5C 392.249,533.091 392.583,529.758 393.5,526.5C 391.579,525.359 389.579,525.192 387.5,526C 381.365,542.635 370.032,554.135 353.5,560.5C 352.594,555.029 352.594,549.529 353.5,544C 353.609,541.3 353.109,538.8 352,536.5C 348.054,548.895 341.221,559.395 331.5,568C 322.333,574.667 312.5,580.167 302,584.5C 299.008,583.755 296.174,582.588 293.5,581C 286.328,576.581 279.328,571.915 272.5,567C 268.298,563.133 264.465,558.967 261,554.5C 257.979,548.066 254.979,541.733 252,535.5C 251.228,535.645 250.561,535.978 250,536.5C 249.627,544.186 249.627,551.852 250,559.5C 233.902,553.235 223.069,541.902 217.5,525.5C 214.973,524.786 212.473,524.12 210,523.5C 209.83,527.493 209.996,531.493 210.5,535.5C 186.238,526.871 173.238,509.538 171.5,483.5C 173.658,472.238 174.824,460.905 175,449.5C 174.586,449.043 174.086,448.709 173.5,448.5C 168.539,452.126 163.872,456.126 159.5,460.5C 158.339,456.205 158.172,451.871 159,447.5C 161.531,438.74 164.364,430.073 167.5,421.5C 166.421,416.928 164.754,412.594 162.5,408.5C 160.833,409.667 159.167,410.833 157.5,412C 156.365,412.749 155.365,412.583 154.5,411.5C 156.5,408.167 158.5,404.833 160.5,401.5C 157.902,394.872 155.402,388.205 153,381.5C 151.708,380.209 150.542,380.209 149.5,381.5C 139.845,382.366 130.178,382.533 120.5,382C 121.861,380.416 122.528,378.582 122.5,376.5C 126.605,363.863 130.272,351.196 133.5,338.5C 134.647,335.711 134.147,333.044 132,330.5C 128.167,334.333 124.333,338.167 120.5,342C 118.559,343.903 116.226,344.736 113.5,344.5C 111.432,341.237 110.432,337.57 110.5,333.5C 109.835,327.523 109.502,321.523 109.5,315.5C 109.692,311.898 111.026,308.898 113.5,306.5C 116.078,303.052 118.911,299.719 122,296.5C 122.483,295.552 122.649,294.552 122.5,293.5C 118.274,294.185 114.107,295.185 110,296.5C 108.289,296.561 106.956,295.894 106,294.5C 104.949,288.206 105.783,282.206 108.5,276.5C 110.074,271.68 112.407,267.347 115.5,263.5C 116.993,262.688 117.66,261.355 117.5,259.5C 116.79,256.201 116.457,252.867 116.5,249.5C 113.422,250.202 110.422,251.202 107.5,252.5C 105.557,252.213 104.223,251.213 103.5,249.5C 103.5,249.167 103.5,248.833 103.5,248.5C 104.045,236.174 104.378,223.84 104.5,211.5C 104.264,208.391 104.597,205.391 105.5,202.5C 106.168,199.755 107.501,197.255 109.5,195C 125.991,186.972 143.324,182.639 161.5,182C 162.451,182.718 162.617,183.551 162,184.5C 150.692,192.47 142.359,202.804 137,215.5C 136.182,218.227 136.348,220.894 137.5,223.5C 141.833,220.333 146.167,217.167 150.5,214C 152.65,212.589 154.984,211.755 157.5,211.5C 155.683,217.811 153.85,224.144 152,230.5C 150.478,237.816 150.312,245.149 151.5,252.5C 156.063,243.041 160.896,233.708 166,224.5C 169.251,219.245 173.251,214.578 178,210.5C 178.399,210.728 178.565,211.062 178.5,211.5 Z"/></g>
<g><path style="opacity:1" fill="#4b3b28" d="M 489.5,183.5 C 492.12,185.149 494.787,186.815 497.5,188.5C 499.005,189.842 499.672,191.508 499.5,193.5C 496.696,190.355 493.363,188.022 489.5,186.5C 489.5,185.5 489.5,184.5 489.5,183.5 Z"/></g>
<g><path style="opacity:1" fill="#58452e" d="M 112.5,182.5 C 108.599,185.054 104.932,188.054 101.5,191.5C 102.704,185.639 106.37,182.639 112.5,182.5 Z"/></g>
<g><path style="opacity:1" fill="#7d501c" d="M 240.5,194.5 C 247.849,201.706 251.849,210.54 252.5,221C 251.027,242.473 239.694,255.14 218.5,259C 210.351,259.963 203.018,258.13 196.5,253.5C 190.738,248.742 185.738,243.409 181.5,237.5C 177.575,229.287 176.575,220.62 178.5,211.5C 180.608,208.564 183.274,206.064 186.5,204C 203.354,194.469 221.354,191.302 240.5,194.5 Z"/></g>
<g><path style="opacity:1" fill="#7d501c" d="M 365.5,193.5 C 371.509,193.334 377.509,193.501 383.5,194C 387.133,194.149 390.466,194.982 393.5,196.5C 372.537,196.296 362.703,206.629 364,227.5C 372.162,246.779 385.662,251.612 404.5,242C 418.403,227.04 417.736,212.874 402.5,199.5C 411.746,202.618 419.413,207.952 425.5,215.5C 426.32,225.221 424.153,234.221 419,242.5C 404.628,259.306 387.795,262.473 368.5,252C 347.1,233.515 346.1,214.015 365.5,193.5 Z"/></g>
<g><path style="opacity:1" fill="#302725" d="M 208.5,196.5 C 231.771,195.599 241.938,206.599 239,229.5C 232.998,243.254 222.498,248.754 207.5,246C 193.793,240.425 187.959,230.258 190,215.5C 193.017,205.984 199.184,199.651 208.5,196.5 Z"/></g>
<g><path style="opacity:1" fill="#2f2725" d="M 393.5,196.5 C 396.543,197.345 399.543,198.345 402.5,199.5C 417.736,212.874 418.403,227.04 404.5,242C 385.662,251.612 372.162,246.779 364,227.5C 362.703,206.629 372.537,196.296 393.5,196.5 Z"/></g>
<g><path style="opacity:1" fill="#f5f5f5" d="M 218.5,209.5 C 228.191,208.428 231.191,212.261 227.5,221C 218.763,224.586 214.93,221.752 216,212.5C 217.045,211.627 217.878,210.627 218.5,209.5 Z"/></g>
<g><path style="opacity:1" fill="#f3f3f2" d="M 393.5,209.5 C 401.825,207.993 405.325,211.327 404,219.5C 400.245,224.073 396.245,224.406 392,220.5C 389.842,216.461 390.342,212.794 393.5,209.5 Z"/></g>
<g><path style="opacity:1" fill="#a5865f" d="M 104.5,211.5 C 104.378,223.84 104.045,236.174 103.5,248.5C 102.24,236.138 102.573,223.804 104.5,211.5 Z"/></g>
<g><path style="opacity:1" fill="#a3845c" d="M 500.5,213.5 C 502.288,226.35 502.454,239.35 501,252.5C 497.888,253.951 495.055,253.618 492.5,251.5C 495.106,252.136 497.606,252.136 500,251.5C 500.5,238.838 500.667,226.171 500.5,213.5 Z"/></g>
<g><path style="opacity:1" fill="#573918" d="M 181.5,237.5 C 185.738,243.409 190.738,248.742 196.5,253.5C 189.441,250.107 184.441,244.774 181.5,237.5 Z"/></g>
<g><path style="opacity:1" fill="#9a7a52" d="M 103.5,249.5 C 104.223,251.213 105.557,252.213 107.5,252.5C 110.422,251.202 113.422,250.202 116.5,249.5C 116.457,252.867 116.79,256.201 117.5,259.5C 117.66,261.355 116.993,262.688 115.5,263.5C 116.001,259.588 116.001,255.588 115.5,251.5C 111.989,253.085 108.322,253.585 104.5,253C 103.663,251.989 103.33,250.822 103.5,249.5 Z"/></g>
<g><path style="opacity:1" fill="#987850" d="M 492.5,251.5 C 491.178,251.67 490.011,251.337 489,250.5C 488.092,255.683 488.592,260.683 490.5,265.5C 489.21,264.942 488.377,263.942 488,262.5C 487.172,257.798 487.338,253.131 488.5,248.5C 489.901,249.521 491.235,250.521 492.5,251.5 Z"/></g>
<g><path style="opacity:1" fill="#917149" d="M 490.5,265.5 C 494.833,270.148 498.333,275.481 501,281.5C 501.167,283.833 501.333,286.167 501.5,288.5C 501.704,291.906 501.038,295.072 499.5,298C 495.664,298.306 491.997,298.472 488.5,298.5C 497.884,310.565 500.05,323.898 495,338.5C 493.957,346.958 489.79,348.791 482.5,344C 480,341.5 477.5,339 475,336.5C 474.009,337.43 473.509,338.596 473.5,340C 476.202,353.645 480.369,366.812 486,379.5C 487.569,383.902 486.069,385.902 481.5,385.5C 472.502,384.249 463.502,383.416 454.5,383C 453.953,383.925 453.287,384.758 452.5,385.5C 451.893,385.376 451.56,385.043 451.5,384.5C 452.479,383.235 453.479,381.901 454.5,380.5C 463.422,382.241 472.422,383.574 481.5,384.5C 483.623,384.78 484.956,383.947 485.5,382C 479.467,368.535 475.133,354.535 472.5,340C 472.631,337.747 473.131,335.581 474,333.5C 477.167,336.667 480.333,339.833 483.5,343C 486.038,345.442 488.872,345.942 492,344.5C 500.381,325.92 497.548,309.42 483.5,295C 488.292,296.695 493.292,297.362 498.5,297C 500.51,292.391 501.01,287.558 500,282.5C 496.855,276.728 493.688,271.062 490.5,265.5 Z"/></g>
<g><path style="opacity:1" fill="#95754d" d="M 108.5,276.5 C 105.783,282.206 104.949,288.206 106,294.5C 106.956,295.894 108.289,296.561 110,296.5C 114.107,295.185 118.274,294.185 122.5,293.5C 122.649,294.552 122.483,295.552 122,296.5C 118.911,299.719 116.078,303.052 113.5,306.5C 115.037,301.94 117.704,298.107 121.5,295C 117.754,295.794 113.92,296.627 110,297.5C 107.966,297.646 106.299,296.98 105,295.5C 104.333,291.167 104.333,286.833 105,282.5C 105.424,279.975 106.59,277.975 108.5,276.5 Z"/></g>
<g><path style="opacity:1" fill="#95744d" d="M 109.5,315.5 C 109.502,321.523 109.835,327.523 110.5,333.5C 109.097,329.928 108.431,326.095 108.5,322C 108.504,319.639 108.837,317.473 109.5,315.5 Z"/></g>
<g><path style="opacity:1" fill="#93734b" d="M 133.5,338.5 C 133.313,336.436 132.813,334.436 132,332.5C 127.801,337.034 123.301,341.201 118.5,345C 116.613,345.78 114.946,345.613 113.5,344.5C 116.226,344.736 118.559,343.903 120.5,342C 124.333,338.167 128.167,334.333 132,330.5C 134.147,333.044 134.647,335.711 133.5,338.5 Z"/></g>
<g><path style="opacity:1" fill="#a68760" d="M 122.5,376.5 C 122.528,378.582 121.861,380.416 120.5,382C 130.178,382.533 139.845,382.366 149.5,381.5C 140.08,383.674 130.413,384.507 120.5,384C 119.509,381.125 120.176,378.625 122.5,376.5 Z"/></g>
<g><path style="opacity:1" fill="#2f2724" d="M 288.5,393.5 C 301.608,393.585 314.608,394.751 327.5,397C 354.508,405 362.008,421.833 350,447.5C 322.665,478.837 292.498,482.004 259.5,457C 245.102,443.51 242.269,428.01 251,410.5C 254.642,405.854 259.142,402.354 264.5,400C 272.37,396.869 280.37,394.702 288.5,393.5 Z"/></g>
<g><path style="opacity:1" fill="#070605" d="M 298.5,508.5 C 303.937,508.62 309.27,509.454 314.5,511C 320.913,515.068 327.579,518.735 334.5,522C 311.774,530.29 288.774,530.623 265.5,523C 275.86,516.481 286.86,511.648 298.5,508.5 Z"/></g>
</svg>
