<?xml version="1.0" encoding="UTF-8"?>
<!DOCTYPE svg PUBLIC "-//W3C//DTD SVG 1.1//EN" "http://www.w3.org/Graphics/SVG/1.1/DTD/svg11.dtd">
<svg xmlns="http://www.w3.org/2000/svg" version="1.1" width="600px" height="600px" style="shape-rendering:geometricPrecision; text-rendering:geometricPrecision; image-rendering:optimizeQuality; fill-rule:evenodd; clip-rule:evenodd" xmlns:xlink="http://www.w3.org/1999/xlink">
<g><path style="opacity:0.956" fill="#030202" d="M 290.5,6.5 C 323.653,3.76422 354.987,9.93089 384.5,25C 402.715,36.2146 417.215,51.0479 428,69.5C 434.502,86.8391 441.835,103.839 450,120.5C 464.661,146.822 477.994,173.822 490,201.5C 494.127,212.804 496.461,224.47 497,236.5C 494.421,314.917 500.755,392.584 516,469.5C 522.214,498.688 529.214,527.688 537,556.5C 539.314,566.905 536.147,575.072 527.5,581C 511.667,588.252 495.001,591.752 477.5,591.5C 422.294,589.979 388.461,562.313 376,508.5C 372.332,494.995 369.499,481.328 367.5,467.5C 360.886,466.105 355.386,462.772 351,457.5C 344.831,448.5 339.164,439.166 334,429.5C 328.645,420.475 321.145,413.975 311.5,410C 304.058,408.592 297.391,410.259 291.5,415C 288.667,417.833 285.833,420.667 283,423.5C 275.917,435.335 268.583,447.002 261,458.5C 256.654,462.838 251.654,466.171 246,468.5C 242.223,496.161 234.223,522.495 222,547.5C 203.772,574.537 178.272,589.037 145.5,591C 125.429,592.562 106.096,589.562 87.5,582C 78.5129,576.713 74.6796,568.88 76,558.5C 94.2439,494.614 106.577,429.614 113,363.5C 115.409,319.202 116.743,274.868 117,230.5C 117.94,219.074 120.607,208.074 125,197.5C 139.124,167.919 153.791,138.586 169,109.5C 174.391,97.327 179.391,84.9936 184,72.5C 201.898,39.9612 229.065,19.4612 265.5,11C 273.949,9.34581 282.282,7.84581 290.5,6.5 Z"/></g>
<g><path style="opacity:1" fill="#f3f3f3" d="M 336.5,20.5 C 340.66,22.4205 344.327,25.0871 347.5,28.5C 349.087,32.0232 349.587,35.6899 349,39.5C 345.004,52.1558 341.004,64.8224 337,77.5C 327.835,109.034 328.501,140.367 339,171.5C 342.136,181.241 345.469,190.908 349,200.5C 360.587,227.594 371.587,254.927 382,282.5C 388.962,306.829 391.796,331.662 390.5,357C 390.545,387.646 388.712,418.146 385,448.5C 383.053,450.063 381.886,452.063 381.5,454.5C 379.5,455.833 377.833,457.5 376.5,459.5C 372.394,461.445 368.061,461.945 363.5,461C 361.907,460.051 360.574,458.885 359.5,457.5C 359.425,454.593 358.591,451.927 357,449.5C 354.128,446.963 351.628,444.13 349.5,441C 348.552,440.517 347.552,440.351 346.5,440.5C 343.833,435.833 341.167,431.167 338.5,426.5C 336.424,403.007 337.424,379.674 341.5,356.5C 344.949,351.523 348.783,346.857 353,342.5C 358.93,329.793 358.93,317.126 353,304.5C 343.331,293.818 331.165,288.318 316.5,288C 299.214,285.989 282.88,288.989 267.5,297C 256.315,307.216 252.815,319.716 257,334.5C 259.597,343.375 264.43,350.708 271.5,356.5C 271.263,357.791 271.596,358.791 272.5,359.5C 276.471,381.008 277.471,402.675 275.5,424.5C 269.678,434.139 263.845,443.806 258,453.5C 245.506,465.643 235.839,463.643 229,447.5C 226.019,432.319 224.353,416.986 224,401.5C 223.333,374.5 223.333,347.5 224,320.5C 226.2,299.033 231.533,278.366 240,258.5C 250.553,234.06 260.553,209.393 270,184.5C 284.213,149.147 286.213,113.147 276,76.5C 272.333,65.1667 268.667,53.8333 265,42.5C 263.061,29.0826 268.894,21.2492 282.5,19C 300.635,16.6456 318.635,17.1456 336.5,20.5 Z"/></g>
<g><path style="opacity:1" fill="#7f5239" d="M 266.5,66.5 C 248.267,66.2002 233.767,73.5335 223,88.5C 213.572,102.097 207.238,117.097 204,133.5C 198.097,143.374 194.93,154.041 194.5,165.5C 194.422,187.987 196.255,210.32 200,232.5C 204.97,261.855 211.136,290.855 218.5,319.5C 218.5,322.833 218.5,326.167 218.5,329.5C 217.732,330.263 217.232,331.263 217,332.5C 209.273,306.984 200.939,281.651 192,256.5C 178.605,216.563 171.105,175.563 169.5,133.5C 177.2,116.763 184.366,99.7626 191,82.5C 205.925,51.2281 230.091,31.3947 263.5,23C 260.387,27.2773 259.054,32.1107 259.5,37.5C 259.667,39.8333 259.833,42.1667 260,44.5C 262.275,51.822 264.441,59.1554 266.5,66.5 Z"/></g>
<g><path style="opacity:1" fill="#41312a" d="M 336.5,20.5 C 341.832,20.989 345.499,23.6557 347.5,28.5C 344.327,25.0871 340.66,22.4205 336.5,20.5 Z"/></g>
<g><path style="opacity:1" fill="#7f5239" d="M 443.5,131.5 C 442.793,169.655 436.959,206.988 426,243.5C 420.734,259.131 415.567,274.798 410.5,290.5C 409.861,289.903 409.528,289.07 409.5,288C 417.869,250.248 423.203,212.081 425.5,173.5C 425.278,159.28 421.945,145.946 415.5,133.5C 412.037,111.407 402.371,92.5734 386.5,77C 374.06,67.1022 360.394,64.9355 345.5,70.5C 349.205,59.5476 352.205,48.3809 354.5,37C 354.617,31.1139 352.617,26.1139 348.5,22C 380.807,30.2979 404.973,49.1312 421,78.5C 427.41,96.6504 434.91,114.317 443.5,131.5 Z"/></g>
<g><path style="opacity:1" fill="#412c29" d="M 266.5,66.5 C 276.817,92.9401 279.65,120.273 275,148.5C 265.864,182.419 253.698,215.086 238.5,246.5C 233.651,244.164 229.484,240.831 226,236.5C 215.361,222.954 208.361,207.621 205,190.5C 203.342,180.566 202.342,170.566 202,160.5C 200.114,163.242 197.614,164.909 194.5,165.5C 194.93,154.041 198.097,143.374 204,133.5C 207.238,117.097 213.572,102.097 223,88.5C 233.767,73.5335 248.267,66.2002 266.5,66.5 Z"/></g>
<g><path style="opacity:1" fill="#412c29" d="M 415.5,133.5 C 420.216,160.679 417.716,187.346 408,213.5C 401.778,229.983 390.945,242.316 375.5,250.5C 362.865,222.101 351.699,193.101 342,163.5C 335.471,138.335 334.805,113.001 340,87.5C 341.391,81.5716 343.224,75.905 345.5,70.5C 360.394,64.9355 374.06,67.1022 386.5,77C 402.371,92.5734 412.037,111.407 415.5,133.5 Z"/></g>
<g><path style="opacity:1" fill="#eae9e9" d="M 223.5,141.5 C 229.736,148.102 237.069,149.268 245.5,145C 251.055,139.291 252.388,132.791 249.5,125.5C 257.027,120.637 260.36,122.97 259.5,132.5C 256.883,150.616 246.55,158.116 228.5,155C 223.81,153.475 220.143,150.641 217.5,146.5C 218.911,144.086 220.911,142.419 223.5,141.5 Z"/></g>
<g><path style="opacity:1" fill="#ebeaea" d="M 363.5,126.5 C 361.528,143.357 368.861,149.857 385.5,146C 387.041,144.629 388.375,143.129 389.5,141.5C 392.099,142.761 394.432,144.427 396.5,146.5C 388.662,155.464 378.996,157.964 367.5,154C 354.974,146.262 351.641,135.762 357.5,122.5C 358.795,123.098 360.128,123.598 361.5,124C 362.756,124.417 363.423,125.25 363.5,126.5 Z"/></g>
<g><path style="opacity:1" fill="#050506" d="M 249.5,125.5 C 252.388,132.791 251.055,139.291 245.5,145C 237.069,149.268 229.736,148.102 223.5,141.5C 231.461,135.178 240.128,129.845 249.5,125.5 Z"/></g>
<g><path style="opacity:1" fill="#030304" d="M 363.5,126.5 C 373.178,129.866 381.845,134.866 389.5,141.5C 388.375,143.129 387.041,144.629 385.5,146C 368.861,149.857 361.528,143.357 363.5,126.5 Z"/></g>
<g><path style="opacity:1" fill="#402b28" d="M 169.5,133.5 C 171.105,175.563 178.605,216.563 192,256.5C 200.939,281.651 209.273,306.984 217,332.5C 217.232,331.263 217.732,330.263 218.5,329.5C 217.425,364.532 218.258,399.532 221,434.5C 221.783,442.969 224.117,450.969 228,458.5C 230.039,460.874 232.372,462.874 235,464.5C 232.742,489.528 226.409,513.528 216,536.5C 197.743,567.635 170.409,582.301 134,580.5C 119.032,581.459 104.865,578.626 91.5,572C 86.7886,567.86 85.2886,562.694 87,556.5C 117.48,450.992 130.813,343.325 127,233.5C 128.436,217.19 133.103,201.857 141,187.5C 150.274,169.28 159.774,151.28 169.5,133.5 Z"/></g>
<g><path style="opacity:1" fill="#402b28" d="M 443.5,131.5 C 454.496,151.49 464.996,171.823 475,192.5C 479.329,201.819 482.662,211.486 485,221.5C 481.692,336.039 495.692,448.373 527,558.5C 528.214,563.343 527.047,567.51 523.5,571C 508.694,578.146 493.027,581.313 476.5,580.5C 441.86,581.306 415.693,566.973 398,537.5C 387.829,514.653 380.996,490.82 377.5,466C 379.356,463.819 381.523,461.985 384,460.5C 389.259,451.961 392.259,442.627 393,432.5C 395.215,400.245 396.048,367.912 395.5,335.5C 400.329,320.547 405.329,305.547 410.5,290.5C 415.567,274.798 420.734,259.131 426,243.5C 436.959,206.988 442.793,169.655 443.5,131.5 Z"/></g>
<g><path style="opacity:1" fill="#6f4733" d="M 415.5,133.5 C 421.945,145.946 425.278,159.28 425.5,173.5C 423.203,212.081 417.869,250.248 409.5,288C 409.528,289.07 409.861,289.903 410.5,290.5C 405.329,305.547 400.329,320.547 395.5,335.5C 394.617,305.84 387.95,277.507 375.5,250.5C 390.945,242.316 401.778,229.983 408,213.5C 417.716,187.346 420.216,160.679 415.5,133.5 Z"/></g>
<g><path style="opacity:1" fill="#6f4733" d="M 238.5,246.5 C 234.049,258.352 229.882,270.352 226,282.5C 222.511,294.782 220.011,307.115 218.5,319.5C 211.136,290.855 204.97,261.855 200,232.5C 196.255,210.32 194.422,187.987 194.5,165.5C 197.614,164.909 200.114,163.242 202,160.5C 202.342,170.566 203.342,180.566 205,190.5C 208.361,207.621 215.361,222.954 226,236.5C 229.484,240.831 233.651,244.164 238.5,246.5 Z"/></g>
<g><path style="opacity:1" fill="#030304" d="M 341.5,356.5 C 318.145,376.496 294.811,376.496 271.5,356.5C 264.43,350.708 259.597,343.375 257,334.5C 252.815,319.716 256.315,307.216 267.5,297C 282.88,288.989 299.214,285.989 316.5,288C 331.165,288.318 343.331,293.818 353,304.5C 358.93,317.126 358.93,329.793 353,342.5C 348.783,346.857 344.949,351.523 341.5,356.5 Z"/></g>
<g><path style="opacity:1" fill="#918f8f" d="M 271.5,356.5 C 294.811,376.496 318.145,376.496 341.5,356.5C 337.424,379.674 336.424,403.007 338.5,426.5C 332.821,416.326 324.488,409.159 313.5,405C 309.514,404.501 305.514,404.334 301.5,404.5C 303.969,403.683 306.635,403.183 309.5,403C 297.504,388.15 285.171,373.65 272.5,359.5C 271.596,358.791 271.263,357.791 271.5,356.5 Z"/></g>
<g><path style="opacity:1" fill="#a4a3a3" d="M 272.5,359.5 C 285.171,373.65 297.504,388.15 309.5,403C 306.635,403.183 303.969,403.683 301.5,404.5C 290.234,407.764 281.567,414.431 275.5,424.5C 277.471,402.675 276.471,381.008 272.5,359.5 Z"/></g>
<g><path style="opacity:1" fill="#cecece" d="M 346.5,440.5 C 347.552,440.351 348.552,440.517 349.5,441C 351.628,444.13 354.128,446.963 357,449.5C 358.591,451.927 359.425,454.593 359.5,457.5C 354.048,452.711 349.715,447.045 346.5,440.5 Z"/></g>
<g><path style="opacity:1" fill="#595252" d="M 381.5,454.5 C 380.833,457.167 379.167,458.833 376.5,459.5C 377.833,457.5 379.5,455.833 381.5,454.5 Z"/></g>
</svg>
