<?xml version="1.0" encoding="UTF-8"?>
<!DOCTYPE svg PUBLIC "-//W3C//DTD SVG 1.1//EN" "http://www.w3.org/Graphics/SVG/1.1/DTD/svg11.dtd">
<svg xmlns="http://www.w3.org/2000/svg" version="1.1" width="600px" height="600px" style="shape-rendering:geometricPrecision; text-rendering:geometricPrecision; image-rendering:optimizeQuality; fill-rule:evenodd; clip-rule:evenodd" xmlns:xlink="http://www.w3.org/1999/xlink">
<g><path style="opacity:0.952" fill="#000000" d="M 599.5,262.5 C 599.5,281.167 599.5,299.833 599.5,318.5C 584.054,359.074 562.22,395.74 534,428.5C 526.036,436.803 517.203,443.97 507.5,450C 494.728,455.027 482.394,454.027 470.5,447C 459.05,438.883 448.883,429.383 440,418.5C 435.988,412.479 432.488,406.146 429.5,399.5C 420.079,417.257 411.913,435.59 405,454.5C 403.749,472.796 403.082,491.129 403,509.5C 399.824,532.006 386.991,541.506 364.5,538C 351.824,535.573 339.991,531.073 329,524.5C 309.333,527.167 289.667,527.167 270,524.5C 214.336,553.326 190.169,536.66 197.5,474.5C 195.896,458.513 191.729,443.18 185,428.5C 180.361,417.888 175.194,407.554 169.5,397.5C 160.01,420.492 144.343,437.992 122.5,450C 107.133,455.793 93.1331,453.46 80.5,443C 56.5378,420.907 37.0378,395.407 22,366.5C 13.3557,350.554 5.85574,334.221 -0.5,317.5C -0.5,299.167 -0.5,280.833 -0.5,262.5C 16.1778,233.157 35.3445,205.49 57,179.5C 69.9621,164.203 83.2954,149.203 97,134.5C 108.229,122.602 120.063,111.435 132.5,101C 150.625,88.6063 170.625,81.273 192.5,79C 239.257,62.991 287.257,57.6576 336.5,63C 360.497,65.4995 383.83,70.8329 406.5,79C 432.984,81.915 456.317,91.915 476.5,109C 513.026,144.507 546.192,182.673 576,223.5C 584.492,236.146 592.325,249.146 599.5,262.5 Z"/></g>
<g><path style="opacity:1" fill="#2b1b11" d="M 404.5,89.5 C 402.008,91.4706 402.342,93.3039 405.5,95C 436.554,112.223 453.721,138.723 457,174.5C 459,194.833 459,215.167 457,235.5C 452.458,260.669 447.124,285.669 441,310.5C 438.106,327.444 436.273,344.444 435.5,361.5C 426.911,380.681 417.744,399.681 408,418.5C 402.436,431.374 397.603,444.374 393.5,457.5C 392.399,423.23 386.233,389.896 375,357.5C 360.582,324.663 344.582,292.663 327,261.5C 320.101,243.431 317.767,224.764 320,205.5C 321.821,194.395 324.154,183.395 327,172.5C 329.08,156.24 323.913,142.74 311.5,132C 299.832,125.719 289.998,127.886 282,138.5C 279.064,143.373 276.397,148.373 274,153.5C 272.516,159.765 272.182,166.098 273,172.5C 280.795,196.768 282.461,221.435 278,246.5C 276.295,252.25 274.295,257.916 272,263.5C 258.745,287.675 245.745,312.008 233,336.5C 226.832,349.168 221.498,362.168 217,375.5C 209.663,403.363 206.496,431.696 207.5,460.5C 203.192,447.085 198.359,433.752 193,420.5C 183.169,400.838 173.336,381.171 163.5,361.5C 162.048,327.835 156.548,294.835 147,262.5C 138.013,224.042 138.346,185.709 148,147.5C 153.556,131.557 162.722,118.057 175.5,107C 182.333,102.167 189.167,97.3333 196,92.5C 196.239,91.212 195.739,90.212 194.5,89.5C 237.825,74.0212 282.492,68.5212 328.5,73C 354.653,74.8635 379.987,80.3635 404.5,89.5 Z"/></g>
<g><path style="opacity:1" fill="#22150f" d="M 194.5,89.5 C 195.739,90.212 196.239,91.212 196,92.5C 189.167,97.3333 182.333,102.167 175.5,107C 162.722,118.057 153.556,131.557 148,147.5C 138.346,185.709 138.013,224.042 147,262.5C 156.548,294.835 162.048,327.835 163.5,361.5C 164.692,383.389 158.192,402.722 144,419.5C 136.945,428.232 128.445,435.065 118.5,440C 109.159,443.766 100.159,443.099 91.5,438C 72.4563,421.624 56.2897,402.791 43,381.5C 28.6699,358.546 17.0033,334.213 8,308.5C 3.02819,294.985 3.36152,281.652 9,268.5C 17.7453,251.332 27.7453,234.999 39,219.5C 66.5984,183.884 96.4318,150.05 128.5,118C 147.261,101.122 169.261,91.6224 194.5,89.5 Z"/></g>
<g><path style="opacity:1" fill="#23160f" d="M 404.5,89.5 C 429.016,91.9493 450.683,101.116 469.5,117C 505.693,152.174 538.527,190.007 568,230.5C 578.744,245.318 587.411,261.318 594,278.5C 595.946,288.743 594.946,298.743 591,308.5C 576.339,349.843 555.006,387.177 527,420.5C 519.367,428.472 510.867,435.305 501.5,441C 488.064,443.967 476.398,440.634 466.5,431C 457.172,422.017 449.006,412.184 442,401.5C 440.36,397.608 439.027,393.608 438,389.5C 436.979,380.039 436.146,370.706 435.5,361.5C 436.273,344.444 438.106,327.444 441,310.5C 447.124,285.669 452.458,260.669 457,235.5C 459,215.167 459,194.833 457,174.5C 453.721,138.723 436.554,112.223 405.5,95C 402.342,93.3039 402.008,91.4706 404.5,89.5 Z"/></g>
<g><path style="opacity:1" fill="#422411" d="M 393.5,457.5 C 392.973,476.513 392.139,495.513 391,514.5C 388.546,524.12 382.38,528.454 372.5,527.5C 358.528,526.454 345.528,522.287 333.5,515C 325.736,513.12 318.403,510.12 311.5,506C 302.403,502.06 293.403,502.06 284.5,506C 269.57,514.42 253.903,521.087 237.5,526C 231.881,527.299 226.214,527.632 220.5,527C 213.983,524.807 210.15,520.307 209,513.5C 207.586,495.875 207.086,478.209 207.5,460.5C 206.496,431.696 209.663,403.363 217,375.5C 221.498,362.168 226.832,349.168 233,336.5C 245.745,312.008 258.745,287.675 272,263.5C 274.295,257.916 276.295,252.25 278,246.5C 282.461,221.435 280.795,196.768 273,172.5C 272.182,166.098 272.516,159.765 274,153.5C 276.397,148.373 279.064,143.373 282,138.5C 289.998,127.886 299.832,125.719 311.5,132C 323.913,142.74 329.08,156.24 327,172.5C 324.154,183.395 321.821,194.395 320,205.5C 317.767,224.764 320.101,243.431 327,261.5C 344.582,292.663 360.582,324.663 375,357.5C 386.233,389.896 392.399,423.23 393.5,457.5 Z"/></g>
<g><path style="opacity:1" fill="#6b5148" d="M 216.5,194.5 C 242.158,195.656 254.991,208.989 255,234.5C 249.514,255.977 235.68,265.81 213.5,264C 194.147,257.973 184.98,244.806 186,224.5C 190.129,208.203 200.296,198.203 216.5,194.5 Z"/></g>
<g><path style="opacity:1" fill="#6b5148" d="M 376.5,194.5 C 403.948,195.78 416.781,210.113 415,237.5C 408.236,257.304 394.403,266.137 373.5,264C 352.889,257.292 344.055,243.126 347,221.5C 351.642,206.686 361.476,197.686 376.5,194.5 Z"/></g>
<g><path style="opacity:1" fill="#020303" d="M 215.5,206.5 C 232.119,205.463 241.453,213.129 243.5,229.5C 242.723,244.444 234.89,252.111 220,252.5C 205.662,251.381 198.162,243.547 197.5,229C 198.542,217.465 204.542,209.965 215.5,206.5 Z"/></g>
<g><path style="opacity:1" fill="#020303" d="M 375.5,206.5 C 396.343,205.872 405.509,215.872 403,236.5C 397.954,249.61 388.454,254.777 374.5,252C 362.259,247.35 356.759,238.517 358,225.5C 360.241,215.762 366.075,209.429 375.5,206.5 Z"/></g>
<g><path style="opacity:1" fill="#f2f2f2" d="M 226.5,217.5 C 232.433,218.363 234.6,221.697 233,227.5C 230.431,230.57 227.264,231.237 223.5,229.5C 219.576,224.271 220.576,220.271 226.5,217.5 Z"/></g>
<g><path style="opacity:1" fill="#f1f1f1" d="M 387.5,217.5 C 393.145,217.972 395.645,220.972 395,226.5C 391.399,231.321 387.399,231.654 383,227.5C 381.558,222.723 383.058,219.39 387.5,217.5 Z"/></g>
<g><path style="opacity:1" fill="#010202" d="M 277.5,377.5 C 289.505,377.333 301.505,377.5 313.5,378C 326.251,378.801 337.418,383.301 347,391.5C 353.519,401.063 354.185,411.063 349,421.5C 325.096,449.859 296.929,455.359 264.5,438C 256.852,432.687 251.018,425.854 247,417.5C 242.958,404.114 246.458,393.281 257.5,385C 263.96,381.588 270.627,379.088 277.5,377.5 Z"/></g>
</svg>
