<?xml version="1.0" encoding="UTF-8"?>
<!DOCTYPE svg PUBLIC "-//W3C//DTD SVG 1.1//EN" "http://www.w3.org/Graphics/SVG/1.1/DTD/svg11.dtd">
<svg xmlns="http://www.w3.org/2000/svg" version="1.1" width="600px" height="600px" style="shape-rendering:geometricPrecision; text-rendering:geometricPrecision; image-rendering:optimizeQuality; fill-rule:evenodd; clip-rule:evenodd" xmlns:xlink="http://www.w3.org/1999/xlink">
<g><path style="opacity:0.951" fill="#020100" d="M 599.5,286.5 C 599.5,287.167 599.5,287.833 599.5,288.5C 592.143,336.252 579.31,382.585 561,427.5C 551.344,450.171 538.677,470.838 523,489.5C 512.471,502.51 499.304,511.676 483.5,517C 457.114,521.722 436.614,512.888 422,490.5C 410.775,507.528 394.941,515.028 374.5,513C 369.422,512.151 364.422,510.985 359.5,509.5C 319.349,524.158 279.183,524.158 239,509.5C 213.995,518.296 193.495,512.296 177.5,491.5C 152.626,522.445 123.96,526.612 91.5,504C 73.8535,488.537 59.6869,470.37 49,449.5C 23.849,398.238 7.68236,344.238 0.5,287.5C 0.866794,276.427 4.36679,266.427 11,257.5C 36.5971,223.89 64.4305,192.057 94.5,162C 121.562,137.961 151.228,117.628 183.5,101C 220.434,84.8468 259.101,77.3468 299.5,78.5C 359.344,76.6201 413.344,93.1201 461.5,128C 487.74,146.559 511.907,167.725 534,191.5C 551.711,212.209 569.044,233.209 586,254.5C 593.04,264.229 597.54,274.895 599.5,286.5 Z"/></g>
<g><path style="opacity:1" fill="#a76437" d="M 415.5,112.5 C 429.294,130.69 437.127,151.356 439,174.5C 441.018,209.221 438.351,243.554 431,277.5C 423.607,312.194 416.107,346.86 408.5,381.5C 396.308,361.476 379.975,345.643 359.5,334C 343.461,323.657 326.127,316.657 307.5,313C 295.646,311.843 283.979,312.843 272.5,316C 238.02,329.05 210.687,350.884 190.5,381.5C 182.178,343.21 174.011,304.877 166,266.5C 160.632,236.721 158.632,206.721 160,176.5C 161.438,152.673 169.272,131.339 183.5,112.5C 193.108,109.535 202.442,105.702 211.5,101C 240.146,92.2051 269.48,88.0384 299.5,88.5C 320.283,89.0409 340.95,90.8742 361.5,94C 377.3,97.155 392.3,102.488 406.5,110C 409.722,110.199 412.722,111.032 415.5,112.5 Z"/></g>
<g><path style="opacity:1" fill="#985628" d="M 415.5,112.5 C 452.456,131.94 485.623,156.607 515,186.5C 535.709,210.206 556.042,234.206 576,258.5C 582.63,266.759 586.797,276.092 588.5,286.5C 581.734,335.629 568.567,382.963 549,428.5C 538.147,453.387 522.981,475.22 503.5,494C 478.301,514.775 454.801,512.942 433,488.5C 429.723,483.586 426.223,478.92 422.5,474.5C 428.779,441.839 424.112,410.839 408.5,381.5C 416.107,346.86 423.607,312.194 431,277.5C 438.351,243.554 441.018,209.221 439,174.5C 437.127,151.356 429.294,130.69 415.5,112.5 Z"/></g>
<g><path style="opacity:1" fill="#985628" d="M 183.5,112.5 C 169.272,131.339 161.438,152.673 160,176.5C 158.632,206.721 160.632,236.721 166,266.5C 174.011,304.877 182.178,343.21 190.5,381.5C 174.957,410.878 170.29,441.878 176.5,474.5C 149.07,516.706 118.237,519.372 84,482.5C 58.5305,449.226 40.1972,412.226 29,371.5C 20.9302,343.891 14.7635,315.891 10.5,287.5C 10.5366,282.556 11.7032,277.889 14,273.5C 17.6048,266.9 21.6048,260.566 26,254.5C 50.0091,224.151 75.8424,195.317 103.5,168C 127.929,146.285 154.595,127.785 183.5,112.5 Z"/></g>
<g><path style="opacity:1" fill="#995729" d="M 231.5,170.5 C 244.18,170.657 253.013,176.657 258,188.5C 261.814,195.106 261.314,201.273 256.5,207C 254.5,207.667 252.5,207.667 250.5,207C 244.158,202.33 237.158,198.996 229.5,197C 223.602,194.444 219.936,190.111 218.5,184C 218.542,182.033 219.042,180.199 220,178.5C 223.464,175.195 227.297,172.528 231.5,170.5 Z"/></g>
<g><path style="opacity:1" fill="#995729" d="M 359.5,170.5 C 367.714,170.357 374.547,173.357 380,179.5C 382.008,186.472 379.842,191.638 373.5,195C 368.58,197.196 363.58,199.196 358.5,201C 342.194,212.39 336.361,208.224 341,188.5C 345.102,180.229 351.269,174.229 359.5,170.5 Z"/></g>
<g><path style="opacity:1" fill="#743c16" d="M 214.5,215.5 C 241.702,214.538 255.202,227.538 255,254.5C 250.263,272.382 238.596,281.715 220,282.5C 197.342,278.831 187.009,265.498 189,242.5C 192.577,228.759 201.077,219.759 214.5,215.5 Z"/></g>
<g><path style="opacity:1" fill="#743d16" d="M 369.5,215.5 C 389.293,213.806 402.793,222.14 410,240.5C 413.102,260.474 405.269,273.974 386.5,281C 364.289,284.981 350.122,276.148 344,254.5C 343.001,235.139 351.501,222.139 369.5,215.5 Z"/></g>
<g><path style="opacity:1" fill="#171515" d="M 216.5,228.5 C 236.803,227.967 244.97,237.634 241,257.5C 235.494,267.666 226.994,271.499 215.5,269C 201.395,261.683 197.895,250.849 205,236.5C 208.15,232.689 211.983,230.023 216.5,228.5 Z"/></g>
<g><path style="opacity:1" fill="#171515" d="M 370.5,228.5 C 388.799,226.97 397.965,235.304 398,253.5C 393.236,266.302 384.069,271.469 370.5,269C 358.553,262.937 354.386,253.437 358,240.5C 360.744,234.921 364.911,230.921 370.5,228.5 Z"/></g>
<g><path style="opacity:1" fill="#eeeeee" d="M 225.5,238.5 C 230.703,237.189 234.036,239.022 235.5,244C 232.6,251.513 228.433,252.347 223,246.5C 222.388,243.389 223.221,240.723 225.5,238.5 Z"/></g>
<g><path style="opacity:1" fill="#f1f1f1" d="M 382.5,238.5 C 391.487,237.665 393.82,241.165 389.5,249C 382.565,251.404 379.398,248.904 380,241.5C 381.045,240.627 381.878,239.627 382.5,238.5 Z"/></g>
<g><path style="opacity:1" fill="#a25c2a" d="M 408.5,381.5 C 424.112,410.839 428.779,441.839 422.5,474.5C 420.278,474.178 418.444,474.845 417,476.5C 408.604,497.62 393.104,506.12 370.5,502C 366.816,500.896 363.15,499.73 359.5,498.5C 356.87,499.378 354.203,500.045 351.5,500.5C 351.611,498.352 350.944,498.019 349.5,499.5C 348.201,498.91 347.368,497.91 347,496.5C 345.927,497.28 344.76,497.113 343.5,496C 344.167,495.667 344.833,495.333 345.5,495C 343.336,494.086 341.336,492.919 339.5,491.5C 338.914,491.709 338.414,492.043 338,492.5C 335.891,489.352 333.058,487.019 329.5,485.5C 328.914,485.709 328.414,486.043 328,486.5C 326.235,483.527 323.735,481.36 320.5,480C 310.466,479.939 300.466,478.772 290.5,476.5C 278.436,481.365 267.102,487.531 256.5,495C 253.029,497.072 249.362,498.572 245.5,499.5C 239.535,497.948 233.868,498.781 228.5,502C 212.773,505.711 199.607,501.544 189,489.5C 186.279,484.552 183.446,479.719 180.5,475C 179.207,474.51 177.873,474.343 176.5,474.5C 170.29,441.878 174.957,410.878 190.5,381.5C 210.687,350.884 238.02,329.05 272.5,316C 283.979,312.843 295.646,311.843 307.5,313C 326.127,316.657 343.461,323.657 359.5,334C 379.975,345.643 396.308,361.476 408.5,381.5 Z"/></g>
<g><path style="opacity:1" fill="#161515" d="M 342.5,399.5 C 336.108,404.89 330.441,410.89 325.5,417.5C 311.514,426.499 296.847,427.832 281.5,421.5C 280.172,417.83 277.505,416.163 273.5,416.5C 256.312,407.129 249.812,392.796 254,373.5C 255.963,367.201 259.797,362.368 265.5,359C 288.133,349.032 310.8,349.032 333.5,359C 344.725,366.628 348.892,377.128 346,390.5C 345.505,393.828 344.338,396.828 342.5,399.5 Z"/></g>
<g><path style="opacity:1" fill="#482e1d" d="M 342.5,399.5 C 338.235,406.767 332.568,412.767 325.5,417.5C 330.441,410.89 336.108,404.89 342.5,399.5 Z"/></g>
<g><path style="opacity:1" fill="#4a2f1d" d="M 273.5,416.5 C 277.505,416.163 280.172,417.83 281.5,421.5C 278.296,420.617 275.629,418.95 273.5,416.5 Z"/></g>
<g><path style="opacity:1" fill="#985628" d="M 351.5,500.5 C 344.046,504.207 336.046,506.707 327.5,508C 300.635,512.805 274.301,510.805 248.5,502C 247.058,501.623 246.058,500.79 245.5,499.5C 249.362,498.572 253.029,497.072 256.5,495C 267.102,487.531 278.436,481.365 290.5,476.5C 300.466,478.772 310.466,479.939 320.5,480C 323.735,481.36 326.235,483.527 328,486.5C 328.414,486.043 328.914,485.709 329.5,485.5C 333.058,487.019 335.891,489.352 338,492.5C 338.414,492.043 338.914,491.709 339.5,491.5C 341.336,492.919 343.336,494.086 345.5,495C 344.833,495.333 344.167,495.667 343.5,496C 344.76,497.113 345.927,497.28 347,496.5C 347.368,497.91 348.201,498.91 349.5,499.5C 350.944,498.019 351.611,498.352 351.5,500.5 Z"/></g>
</svg>
