<?xml version="1.0" encoding="UTF-8"?>
<!DOCTYPE svg PUBLIC "-//W3C//DTD SVG 1.1//EN" "http://www.w3.org/Graphics/SVG/1.1/DTD/svg11.dtd">
<svg xmlns="http://www.w3.org/2000/svg" version="1.1" width="600px" height="600px" style="shape-rendering:geometricPrecision; text-rendering:geometricPrecision; image-rendering:optimizeQuality; fill-rule:evenodd; clip-rule:evenodd" xmlns:xlink="http://www.w3.org/1999/xlink">
<g><path style="opacity:0.946" fill="#030101" d="M 286.5,40.5 C 317.587,39.735 348.253,42.9016 378.5,50C 387.48,52.5484 396.147,55.8818 404.5,60C 424.433,64.1336 442.1,72.8003 457.5,86C 466.03,93.2302 473.53,101.397 480,110.5C 520.515,168.782 554.848,230.782 583,296.5C 588.877,311.675 592.711,327.342 594.5,343.5C 592.033,359.736 586.866,375.069 579,389.5C 553.688,438.148 520.188,480.315 478.5,516C 470.939,522.447 462.272,526.781 452.5,529C 438.428,529.643 426.595,524.81 417,514.5C 406.753,502.352 398.253,489.019 391.5,474.5C 376.943,486.64 360.276,491.306 341.5,488.5C 313.403,499.858 285.069,500.358 256.5,490C 238.053,491.434 221.553,486.601 207,475.5C 198.964,492.768 188.131,507.934 174.5,521C 162.816,530.035 150.149,531.702 136.5,526C 123.651,518.154 111.651,509.154 100.5,499C 62.8718,461.251 33.0385,418.085 11,369.5C 5.49359,357.292 3.82693,344.625 6,331.5C 10.9455,309.33 18.2789,287.996 28,267.5C 56.714,207.027 90.714,150.027 130,96.5C 147.403,78.5456 168.236,66.379 192.5,60C 208.356,52.382 225.023,47.382 242.5,45C 257.26,42.891 271.927,41.391 286.5,40.5 Z"/></g>
<g><path style="opacity:1" fill="#f7f4f4" d="M 357.5,53.5 C 350.786,57.8805 345.452,63.5471 341.5,70.5C 334.888,78.7769 330.055,88.1102 327,98.5C 320.721,119.399 318.388,140.733 320,162.5C 323.666,181.831 327.333,201.164 331,220.5C 332.568,225.714 334.401,230.714 336.5,235.5C 341.586,251.259 350.919,263.925 364.5,273.5C 372.118,279.473 380.784,283.64 390.5,286C 404.115,287.406 417.782,287.906 431.5,287.5C 420.911,318.768 410.411,350.102 400,381.5C 400.112,388.519 400.779,395.519 402,402.5C 402.667,415.833 402.667,429.167 402,442.5C 400.725,448.374 398.892,454.041 396.5,459.5C 382.889,478.437 364.389,486.437 341,483.5C 319.822,491.571 297.989,493.737 275.5,490C 268.476,488.437 261.643,486.27 255,483.5C 234.476,486.16 217.309,479.826 203.5,464.5C 197.872,455.333 194.705,445.333 194,434.5C 193.343,417.09 194.009,399.756 196,382.5C 186.438,353.313 176.605,324.313 166.5,295.5C 166.007,293.194 165.674,290.861 165.5,288.5C 178.613,289.1 191.613,288.267 204.5,286C 211.452,283.857 217.786,280.691 223.5,276.5C 230.365,272.146 236.532,266.813 242,260.5C 243.421,258.595 244.588,256.595 245.5,254.5C 246.458,254.047 247.292,253.381 248,252.5C 252.88,243.407 257.214,234.073 261,224.5C 264.379,209.651 268.379,194.985 273,180.5C 280.096,149.618 278.429,119.285 268,89.5C 261.986,74.0001 252.153,61.6668 238.5,52.5C 239.681,50.9328 241.347,50.0995 243.5,50C 261.717,47.1127 280.051,45.9461 298.5,46.5C 318.359,45.6579 338.026,47.1579 357.5,51C 358.774,51.9772 358.774,52.8106 357.5,53.5 Z"/></g>
<g><path style="opacity:1" fill="#b26a39" d="M 238.5,52.5 C 252.153,61.6668 261.986,74.0001 268,89.5C 278.429,119.285 280.096,149.618 273,180.5C 268.379,194.985 264.379,209.651 261,224.5C 257.214,234.073 252.88,243.407 248,252.5C 247.292,253.381 246.458,254.047 245.5,254.5C 237.833,261.5 230.5,268.833 223.5,276.5C 217.786,280.691 211.452,283.857 204.5,286C 191.613,288.267 178.613,289.1 165.5,288.5C 165.674,290.861 166.007,293.194 166.5,295.5C 157.778,268.452 150.278,240.785 144,212.5C 138.556,185.206 138.223,157.873 143,130.5C 147.888,109.375 158.388,91.7084 174.5,77.5C 181.346,72.7572 189.012,70.2572 197.5,70C 210.345,63.1623 224.011,58.4956 238.5,56C 239.167,55.6667 239.833,55.3333 240.5,55C 239.619,54.2917 238.953,53.4584 238.5,52.5 Z"/></g>
<g><path style="opacity:1" fill="#b26a39" d="M 356.5,56.5 C 371.519,58.8957 385.852,63.3957 399.5,70C 406.077,69.739 412.077,71.239 417.5,74.5C 436.959,89.0521 449.126,108.385 454,132.5C 458.747,162.723 457.414,192.723 450,222.5C 444.915,244.51 438.749,266.177 431.5,287.5C 417.782,287.906 404.115,287.406 390.5,286C 380.784,283.64 372.118,279.473 364.5,273.5C 360.176,268.676 355.676,264.009 351,259.5C 346.201,251.263 341.367,243.263 336.5,235.5C 334.401,230.714 332.568,225.714 331,220.5C 327.333,201.164 323.666,181.831 320,162.5C 318.388,140.733 320.721,119.399 327,98.5C 330.055,88.1102 334.888,78.7769 341.5,70.5C 345.866,65.1338 350.866,60.4671 356.5,56.5 Z"/></g>
<g><path style="opacity:1" fill="#c89b7e" d="M 357.5,53.5 C 356.89,54.391 356.557,55.391 356.5,56.5C 350.866,60.4671 345.866,65.1338 341.5,70.5C 345.452,63.5471 350.786,57.8805 357.5,53.5 Z"/></g>
<g><path style="opacity:1" fill="#9d5d2e" d="M 417.5,74.5 C 434.931,81.418 450.098,91.7513 463,105.5C 501.389,158.908 534.722,215.574 563,275.5C 571.016,292.202 577.349,309.536 582,327.5C 583.39,335.458 583.723,343.458 583,351.5C 577.576,368.682 570.243,385.016 561,400.5C 539.424,438.09 512.591,471.59 480.5,501C 472.546,508.279 463.546,513.946 453.5,518C 449.167,518.667 444.833,518.667 440.5,518C 431.544,514.378 424.377,508.545 419,500.5C 409.905,487.638 402.405,473.972 396.5,459.5C 398.892,454.041 400.725,448.374 402,442.5C 402.667,429.167 402.667,415.833 402,402.5C 400.779,395.519 400.112,388.519 400,381.5C 410.411,350.102 420.911,318.768 431.5,287.5C 438.749,266.177 444.915,244.51 450,222.5C 457.414,192.723 458.747,162.723 454,132.5C 449.126,108.385 436.959,89.0521 417.5,74.5 Z"/></g>
<g><path style="opacity:1" fill="#9d5e2e" d="M 174.5,77.5 C 158.388,91.7084 147.888,109.375 143,130.5C 138.223,157.873 138.556,185.206 144,212.5C 150.278,240.785 157.778,268.452 166.5,295.5C 176.605,324.313 186.438,353.313 196,382.5C 194.009,399.756 193.343,417.09 194,434.5C 194.705,445.333 197.872,455.333 203.5,464.5C 202.542,464.047 201.708,463.381 201,462.5C 194.461,477.916 186.128,492.249 176,505.5C 164.214,519.823 150.381,522.323 134.5,513C 106.917,492.751 83.4174,468.585 64,440.5C 48.5705,418.656 34.9039,395.656 23,371.5C 20.4695,364.909 18.1361,358.242 16,351.5C 15.2249,343.452 15.5582,335.452 17,327.5C 23.3784,305.077 31.7117,283.411 42,262.5C 69.056,207.351 100.389,155.018 136,105.5C 147.21,93.8235 160.043,84.4902 174.5,77.5 Z"/></g>
<g><path style="opacity:1" fill="#6d4122" d="M 213.5,160.5 C 233.8,158.898 247.633,167.564 255,186.5C 258.368,207.948 249.868,222.115 229.5,229C 208.198,232.431 194.031,223.931 187,203.5C 184.166,181.813 193,167.48 213.5,160.5 Z"/></g>
<g><path style="opacity:1" fill="#6d4122" d="M 366.5,160.5 C 387.829,158.565 401.995,167.565 409,187.5C 411.004,214.163 398.671,228.496 372,230.5C 351.863,226.52 341.029,214.187 339.5,193.5C 342.143,177.174 351.143,166.174 366.5,160.5 Z"/></g>
<g><path style="opacity:1" fill="#251916" d="M 216.5,173.5 C 234.84,173.337 243.34,182.337 242,200.5C 237.979,212.845 229.479,218.345 216.5,217C 201.215,210.925 196.382,200.092 202,184.5C 205.562,178.988 210.396,175.322 216.5,173.5 Z"/></g>
<g><path style="opacity:1" fill="#251916" d="M 369.5,173.5 C 386.934,172.935 395.768,181.268 396,198.5C 391.993,213.094 382.493,218.927 367.5,216C 356.588,211.015 351.755,202.515 353,190.5C 356.019,182.316 361.519,176.649 369.5,173.5 Z"/></g>
<g><path style="opacity:1" fill="#f4f4f4" d="M 225.5,184.5 C 234.818,184.655 236.818,188.488 231.5,196C 224.333,197.5 221.5,194.667 223,187.5C 223.698,186.309 224.531,185.309 225.5,184.5 Z"/></g>
<g><path style="opacity:1" fill="#f7f7f7" d="M 380.5,184.5 C 389.171,184.178 391.504,187.845 387.5,195.5C 380.202,197.701 377.036,195.034 378,187.5C 379.045,186.627 379.878,185.627 380.5,184.5 Z"/></g>
<g><path style="opacity:1" fill="#c28964" d="M 336.5,235.5 C 341.367,243.263 346.201,251.263 351,259.5C 355.676,264.009 360.176,268.676 364.5,273.5C 350.919,263.925 341.586,251.259 336.5,235.5 Z"/></g>
<g><path style="opacity:1" fill="#cb9b7b" d="M 245.5,254.5 C 244.588,256.595 243.421,258.595 242,260.5C 236.532,266.813 230.365,272.146 223.5,276.5C 230.5,268.833 237.833,261.5 245.5,254.5 Z"/></g>
<g><path style="opacity:1" fill="#38302d" d="M 321.5,368.5 C 323.977,371.524 327.31,373.358 331.5,374C 334.704,377.036 337.704,380.203 340.5,383.5C 341.268,384.263 341.768,385.263 342,386.5C 343.391,394.064 342.224,401.064 338.5,407.5C 332.719,413.293 326.719,418.626 320.5,423.5C 303.789,433.332 287.456,432.665 271.5,421.5C 265.072,415.411 259.405,408.744 254.5,401.5C 251.158,382.313 259.158,370.813 278.5,367C 292.996,364.624 307.329,365.124 321.5,368.5 Z"/></g>
<g><path style="opacity:1" fill="#787270" d="M 321.5,368.5 C 330.514,370.189 336.848,375.189 340.5,383.5C 337.704,380.203 334.704,377.036 331.5,374C 327.31,373.358 323.977,371.524 321.5,368.5 Z"/></g>
<g><path style="opacity:1" fill="#726c69" d="M 338.5,407.5 C 335.445,412.729 331.445,417.229 326.5,421C 324.593,422.122 322.593,422.955 320.5,423.5C 326.719,418.626 332.719,413.293 338.5,407.5 Z"/></g>
<g><path style="opacity:1" fill="#797371" d="M 254.5,401.5 C 259.405,408.744 265.072,415.411 271.5,421.5C 263.727,416.719 258.06,410.053 254.5,401.5 Z"/></g>
</svg>
