<?xml version="1.0" encoding="UTF-8"?>
<!DOCTYPE svg PUBLIC "-//W3C//DTD SVG 1.1//EN" "http://www.w3.org/Graphics/SVG/1.1/DTD/svg11.dtd">
<svg xmlns="http://www.w3.org/2000/svg" version="1.1" width="600px" height="600px" style="shape-rendering:geometricPrecision; text-rendering:geometricPrecision; image-rendering:optimizeQuality; fill-rule:evenodd; clip-rule:evenodd" xmlns:xlink="http://www.w3.org/1999/xlink">
<g><path style="opacity:0.946" fill="#070606" d="M 294.5,14.5 C 298.308,14.1632 301.974,14.6632 305.5,16C 308.765,20.3648 311.099,25.1981 312.5,30.5C 316.108,31.5932 319.775,31.7599 323.5,31C 335.089,22.3589 348.089,18.3589 362.5,19C 366.696,21.9811 367.529,25.8144 365,30.5C 362.766,32.6998 360.266,34.5331 357.5,36C 361.23,37.2011 365.063,38.0345 369,38.5C 384.994,36.5855 400.828,37.4188 416.5,41C 422.769,42.7151 424.935,46.5484 423,52.5C 421.681,54.4875 419.848,55.6541 417.5,56C 427.534,57.4501 437.534,59.1167 447.5,61C 451.385,61.7394 455.052,63.0728 458.5,65C 462.249,68.2365 463.082,72.0698 461,76.5C 458.567,78.6258 455.734,79.9591 452.5,80.5C 452.667,80.8333 452.833,81.1667 453,81.5C 463.935,87.3842 475.102,92.8842 486.5,98C 492.396,100.95 494.562,105.45 493,111.5C 490.326,113.871 487.159,115.037 483.5,115C 492.883,122.717 502.549,130.051 512.5,137C 515.021,139.22 517.188,141.72 519,144.5C 521.876,152.975 518.71,156.809 509.5,156C 516.333,163.5 523.167,171 530,178.5C 532.435,181.934 534.435,185.6 536,189.5C 536.543,192.17 536.043,194.67 534.5,197C 536.179,202.729 537.346,208.562 538,214.5C 543.118,227.403 548.784,240.07 555,252.5C 558.226,263.651 560.559,274.985 562,286.5C 566.851,297.87 570.851,309.536 574,321.5C 574.153,329.173 574.153,336.84 574,344.5C 576.436,358.845 578.936,373.178 581.5,387.5C 580.904,392.311 579.738,396.978 578,401.5C 577.211,415.855 576.211,430.188 575,444.5C 573.834,449.499 571.167,453.499 567,456.5C 561.992,467.535 556.992,478.535 552,489.5C 550.5,491 549,492.5 547.5,494C 541.649,495.949 535.983,498.282 530.5,501C 535.521,512.877 540.687,524.71 546,536.5C 547.618,543.795 544.785,546.962 537.5,546C 519.343,537.919 503.676,526.419 490.5,511.5C 492.209,529.034 495.876,546.367 501.5,563.5C 500.341,569.091 497.008,570.924 491.5,569C 480.929,560.663 472.096,550.83 465,539.5C 466.889,553.058 470.055,566.392 474.5,579.5C 473.801,584.857 470.801,586.69 465.5,585C 454.283,574.783 444.116,563.616 435,551.5C 433.343,557.263 433.843,562.93 436.5,568.5C 432.887,575.693 428.221,576.36 422.5,570.5C 419.479,567.314 416.646,563.98 414,560.5C 414.695,566.949 416.195,573.282 418.5,579.5C 416.721,585.367 413.055,586.867 407.5,584C 401.625,577.793 396.125,571.293 391,564.5C 390.667,567.5 390.333,570.5 390,573.5C 387.365,576.825 384.198,577.325 380.5,575C 376.663,569.788 372.497,564.954 368,560.5C 367.228,560.645 366.561,560.978 366,561.5C 363.921,565.993 361.588,570.326 359,574.5C 354.956,578.715 350.79,579.049 346.5,575.5C 345.241,570.76 343.908,566.093 342.5,561.5C 337.533,560.874 333.033,562.207 329,565.5C 326.804,570.42 324.804,575.42 323,580.5C 319.257,586.029 314.924,586.695 310,582.5C 308.207,576.959 306.874,571.292 306,565.5C 305.5,565 305,564.5 304.5,564C 300.459,563.173 296.459,563.34 292.5,564.5C 290.509,569.285 289.342,574.285 289,579.5C 285.986,586.103 281.652,587.103 276,582.5C 273.472,577.249 271.139,571.916 269,566.5C 263.136,560.104 257.636,559.937 252.5,566C 253.96,572.244 251.627,576.41 245.5,578.5C 242.341,577.845 239.841,576.178 238,573.5C 235.5,569.167 233,564.833 230.5,560.5C 229.28,561.711 228.113,561.711 227,560.5C 224.333,564.5 221.667,568.5 219,572.5C 215.552,576.791 211.552,577.458 207,574.5C 205.34,571.23 205.006,567.897 206,564.5C 200.573,571.931 194.407,578.764 187.5,585C 182.304,586.623 179.304,584.79 178.5,579.5C 180.213,574.216 181.38,568.883 182,563.5C 178.445,569.113 173.445,572.78 167,574.5C 162.833,574.333 160.667,572.167 160.5,568C 161.757,563.139 163.09,558.306 164.5,553.5C 164,552.5 163.5,551.5 163,550.5C 154.263,563.239 144.096,574.739 132.5,585C 127.199,586.69 124.199,584.857 123.5,579.5C 125.628,571.115 127.962,562.781 130.5,554.5C 129.865,550.688 130.698,547.022 133,543.5C 133.667,542.167 133.667,540.833 133,539.5C 126.005,550.307 117.505,559.807 107.5,568C 101.953,570.867 98.2863,569.367 96.5,563.5C 102.124,546.367 105.791,529.034 107.5,511.5C 93.621,526.88 77.121,538.547 58,546.5C 52.4547,545.422 50.4547,542.089 52,536.5C 57.3128,524.71 62.4794,512.877 67.5,501C 62.9212,498.027 57.9212,496.027 52.5,495C 48.5191,491.891 45.3525,488.058 43,483.5C 40,475.833 37,468.167 34,460.5C 25.3139,452.454 21.3139,442.454 22,430.5C 21.6667,421.833 21.3333,413.167 21,404.5C 19.203,398.78 18.0363,392.947 17.5,387C 18.9461,374.713 21.1127,362.547 24,350.5C 24.3333,340.167 24.6667,329.833 25,319.5C 28.7683,306.632 33.1017,293.966 38,281.5C 38.4697,271.186 40.4697,261.186 44,251.5C 49.6072,239.953 54.9406,228.286 60,216.5C 61.0039,210.469 62.1706,204.469 63.5,198.5C 61.8058,195.336 61.3058,192.002 62,188.5C 64.4888,183.527 67.4888,178.86 71,174.5C 77.199,168.636 83.0323,162.469 88.5,156C 85.5,155.667 82.5,155.333 79.5,155C 76.6397,152.145 76.1397,148.978 78,145.5C 80.7969,141.701 83.9636,138.201 87.5,135C 96.7369,129.099 105.404,122.432 113.5,115C 106.24,115.658 103.073,112.492 104,105.5C 105.458,103.04 107.291,100.873 109.5,99C 121.5,93 133.5,87 145.5,81C 143.269,79.853 140.935,78.853 138.5,78C 134.066,72.6049 134.733,67.9382 140.5,64C 144.163,62.2923 147.996,61.1257 152,60.5C 161.487,58.9066 170.987,57.4066 180.5,56C 173.001,53.4887 171.668,49.1554 176.5,43C 182.557,40.3214 188.89,38.6547 195.5,38C 206.357,37.2232 217.19,37.3898 228,38.5C 231.937,38.0345 235.77,37.2011 239.5,36C 235.006,33.5102 232.006,29.8435 230.5,25C 231.083,22.0848 232.75,20.0848 235.5,19C 249.916,18.3607 262.916,22.3607 274.5,31C 276.167,31.1667 277.833,31.3333 279.5,31.5C 282.011,31.712 284.178,31.0454 286,29.5C 286.807,23.2058 289.64,18.2058 294.5,14.5 Z"/></g>
<g><path style="opacity:1" fill="#f1f1f0" d="M 505.5,424.5 C 504.732,423.737 504.232,422.737 504,421.5C 500.792,398.92 498.459,376.253 497,353.5C 497.248,307.017 494.915,260.684 490,214.5C 482.865,173.089 462.365,140.256 428.5,116C 413.029,106.566 396.363,100.399 378.5,97.5C 373.252,95.8545 367.918,94.5212 362.5,93.5C 362.506,101.326 360.672,108.659 357,115.5C 350.031,123.47 342.698,131.136 335,138.5C 316.275,161.442 313.608,186.109 327,212.5C 333.46,220.629 340.294,228.463 347.5,236C 401.491,249.081 439.991,280.915 463,331.5C 471.293,350.044 477.793,369.211 482.5,389C 482.167,389.833 481.833,390.667 481.5,391.5C 475.701,383.535 469.367,376.035 462.5,369C 460.866,368.506 459.199,368.34 457.5,368.5C 459.045,381.959 462.878,394.626 469,406.5C 470.154,410.447 470.987,414.447 471.5,418.5C 475.448,436.965 477.281,455.631 477,474.5C 474.46,475.876 472.46,475.21 471,472.5C 468.726,466.51 466.56,460.51 464.5,454.5C 463.453,446.066 460.953,438.066 457,430.5C 454.916,427.967 452.916,427.967 451,430.5C 452.378,446.491 454.045,462.491 456,478.5C 456.383,479.056 456.883,479.389 457.5,479.5C 457.666,489.172 457.5,498.839 457,508.5C 456.755,512.822 455.588,516.822 453.5,520.5C 449.044,507.569 444.71,494.569 440.5,481.5C 439.106,479.049 438.272,476.382 438,473.5C 436.503,463.523 435.17,453.523 434,443.5C 432.482,417.521 431.482,391.521 431,365.5C 430.782,343.749 427.782,322.416 422,301.5C 402.966,256.055 368.799,235.888 319.5,241C 312.709,242.709 305.875,244.209 299,245.5C 270.239,236.141 242.406,238.308 215.5,252C 187.525,271.428 172.025,298.261 169,332.5C 166.58,367.46 164.913,402.46 164,437.5C 163.159,454.564 160.326,471.231 155.5,487.5C 152.455,498.691 148.955,509.691 145,520.5C 143.26,517.091 142.26,513.424 142,509.5C 141.5,499.506 141.334,489.506 141.5,479.5C 143.915,464.604 146.248,449.604 148.5,434.5C 148.16,432.488 147.827,430.488 147.5,428.5C 143.763,428.241 141.43,429.907 140.5,433.5C 137.02,445.447 133.186,457.447 129,469.5C 128.208,471.587 127.041,473.421 125.5,475C 124.216,475.684 123.049,475.517 122,474.5C 121.411,448.124 125.244,422.457 133.5,397.5C 137.767,388.353 140.434,378.687 141.5,368.5C 139.011,368.298 136.677,368.798 134.5,370C 128.833,377 123.167,384 117.5,391C 116.068,391.27 115.068,390.604 114.5,389C 122.825,352.86 137.991,320.026 160,290.5C 183.554,262.963 213.054,244.963 248.5,236.5C 254.814,229.018 261.314,221.685 268,214.5C 276.843,200.774 279.843,185.774 277,169.5C 274.816,159.134 270.483,149.801 264,141.5C 255.663,133.497 247.663,125.163 240,116.5C 235.499,109.498 233.333,101.831 233.5,93.5C 228.724,94.5265 224.058,95.8599 219.5,97.5C 168.07,107.638 133.236,137.305 115,186.5C 112.04,195.674 109.706,205.008 108,214.5C 106.514,226.816 105.181,239.149 104,251.5C 102.634,294.85 100.967,338.183 99,381.5C 97.3647,395.885 95.3647,410.218 93,424.5C 92.7216,423.584 92.2216,422.918 91.5,422.5C 87.432,403.963 82.932,403.963 78,422.5C 77.6827,424.301 77.016,424.634 76,423.5C 76.1209,411.475 76.9542,399.475 78.5,387.5C 77.8896,377.058 76.5563,366.725 74.5,356.5C 73.1266,356.343 71.7932,356.51 70.5,357C 68.8749,360.42 66.8749,363.587 64.5,366.5C 64.1667,364 63.8333,361.5 63.5,359C 64.4108,346.368 66.2441,333.868 69,321.5C 70.0827,311.515 70.416,301.515 70,291.5C 68.9335,289.717 67.4335,289.217 65.5,290C 63.5,292 61.5,294 59.5,296C 58.5165,296.591 57.8499,296.257 57.5,295C 60.634,284.898 64.4673,275.065 69,265.5C 72.1521,254.278 73.6521,242.944 73.5,231.5C 72.277,230.386 70.9437,230.219 69.5,231C 66.0354,233.463 62.8688,236.296 60,239.5C 60.1403,235.193 61.4737,231.193 64,227.5C 70.1264,219.362 75.4597,210.696 80,201.5C 82.313,196.4 83.4797,191.067 83.5,185.5C 78.8485,186.165 74.5151,187.831 70.5,190.5C 70.1667,190.167 69.8333,189.833 69.5,189.5C 76.9596,179.605 85.1263,170.271 94,161.5C 96.6856,156.455 99.1856,151.288 101.5,146C 101.138,144.115 99.9713,143.281 98,143.5C 94.0201,144.596 90.1868,145.762 86.5,147C 95.591,138.572 105.258,130.905 115.5,124C 119,119.833 122.5,115.667 126,111.5C 126.743,109.559 126.576,107.726 125.5,106C 120.796,106.119 116.129,106.453 111.5,107C 122.325,100.387 133.658,94.7203 145.5,90C 150.642,86.3582 155.642,82.5249 160.5,78.5C 161.747,76.9579 161.747,75.4579 160.5,74C 154.61,72.7547 148.61,72.088 142.5,72C 143.167,71.3333 143.833,70.6667 144.5,70C 158.357,66.5918 172.357,63.9251 186.5,62C 191.064,60.7181 195.397,58.8847 199.5,56.5C 200.452,54.9547 200.785,53.288 200.5,51.5C 196.296,50.0898 191.963,49.4231 187.5,49.5C 186.5,48.8333 185.5,48.1667 184.5,47.5C 198.843,44.3391 213.343,43.6724 228,45.5C 236.375,45.3741 244.375,43.7074 252,40.5C 252.667,39.1667 252.667,37.8333 252,36.5C 247.786,32.6179 243.286,29.1179 238.5,26C 250.672,26.6143 261.672,30.6143 271.5,38C 277.585,38.8608 283.585,38.5275 289.5,37C 290.333,36.1667 291.167,35.3333 292,34.5C 297.161,17.1051 301.828,17.4385 306,35.5C 306.903,36.7014 308.069,37.5348 309.5,38C 314.833,38.6667 320.167,38.6667 325.5,38C 334.898,31.089 345.398,26.9223 357,25.5C 358.563,26.1021 358.396,26.9354 356.5,28C 351.573,30.4318 347.906,33.9318 345.5,38.5C 345.709,39.9945 346.376,41.1612 347.5,42C 360.503,45.5172 373.67,46.3506 387,44.5C 396.129,44.1614 404.962,45.4947 413.5,48.5C 408.5,49.3333 403.5,50.1667 398.5,51C 395.833,53 395.833,55 398.5,57C 404.537,60.1235 410.87,62.4568 417.5,64C 429.368,64.8846 441.035,66.8846 452.5,70C 453.167,70.6667 453.833,71.3333 454.5,72C 448.722,72.0941 443.056,72.7608 437.5,74C 436.446,75.3876 436.28,76.8876 437,78.5C 442.41,82.7881 447.91,86.9548 453.5,91C 464.898,95.5323 475.898,100.866 486.5,107C 481.521,106.507 476.521,106.174 471.5,106C 470.446,107.388 470.28,108.888 471,110.5C 474.754,116.258 479.254,121.425 484.5,126C 494.072,132.236 503.072,139.236 511.5,147C 506.707,145.291 501.707,144.124 496.5,143.5C 497.515,149.543 499.682,155.21 503,160.5C 508.634,167.136 514.634,173.469 521,179.5C 523.888,182.722 526.388,186.222 528.5,190C 523.774,187.992 518.774,186.492 513.5,185.5C 514.413,192.076 516.247,198.409 519,204.5C 523.167,212.172 527.834,219.505 533,226.5C 535.107,230.381 536.941,234.381 538.5,238.5C 537.998,239.521 537.332,239.688 536.5,239C 533.797,235.962 530.797,233.295 527.5,231C 526.216,230.316 525.049,230.483 524,231.5C 524.264,241.94 525.597,252.274 528,262.5C 532.583,273.167 536.75,284 540.5,295C 540.167,295.5 539.833,296 539.5,296.5C 537.016,294.517 534.683,292.35 532.5,290C 530.866,289.506 529.199,289.34 527.5,289.5C 526.78,308.743 528.614,327.743 533,346.5C 534.065,352.811 534.398,359.144 534,365.5C 532.853,366.458 531.853,366.125 531,364.5C 529.877,361.751 528.377,359.251 526.5,357C 525.216,356.316 524.049,356.483 523,357.5C 520.803,367.214 519.636,377.047 519.5,387C 520.872,399.471 521.372,411.971 521,424.5C 518.833,419.5 516.667,414.5 514.5,409.5C 512.994,408.253 511.494,408.253 510,409.5C 508.183,414.448 506.683,419.448 505.5,424.5 Z"/></g>
<g><path style="opacity:1" fill="#8d8d8d" d="M 184.5,47.5 C 185.5,48.1667 186.5,48.8333 187.5,49.5C 185.473,49.6621 183.473,49.4955 181.5,49C 182.244,47.9614 183.244,47.4614 184.5,47.5 Z"/></g>
<g><path style="opacity:1" fill="#141311" d="M 133.5,397.5 C 131.665,396.878 130.498,395.544 130,393.5C 123.925,412.726 117.258,431.726 110,450.5C 108.254,454.327 106.254,457.993 104,461.5C 102.644,462.38 101.144,462.714 99.5,462.5C 103.858,440.018 107.024,417.351 109,394.5C 111.196,346.806 113.862,299.139 117,251.5C 118.825,221.2 125.825,192.2 138,164.5C 148.783,144.717 163.949,129.217 183.5,118C 195.154,110.503 207.154,103.67 219.5,97.5C 224.058,95.8599 228.724,94.5265 233.5,93.5C 233.333,101.831 235.499,109.498 240,116.5C 247.663,125.163 255.663,133.497 264,141.5C 270.483,149.801 274.816,159.134 277,169.5C 279.843,185.774 276.843,200.774 268,214.5C 261.314,221.685 254.814,229.018 248.5,236.5C 213.054,244.963 183.554,262.963 160,290.5C 137.991,320.026 122.825,352.86 114.5,389C 115.068,390.604 116.068,391.27 117.5,391C 123.167,384 128.833,377 134.5,370C 136.677,368.798 139.011,368.298 141.5,368.5C 140.434,378.687 137.767,388.353 133.5,397.5 Z"/></g>
<g><path style="opacity:1" fill="#131211" d="M 378.5,97.5 C 398.129,105.816 416.796,115.983 434.5,128C 450.597,142.682 461.763,160.516 468,181.5C 474.486,205.414 478.486,229.748 480,254.5C 483.886,323.836 487.719,393.169 491.5,462.5C 487.425,462.601 484.925,460.601 484,456.5C 479.698,443.762 475.531,431.095 471.5,418.5C 470.987,414.447 470.154,410.447 469,406.5C 462.878,394.626 459.045,381.959 457.5,368.5C 459.199,368.34 460.866,368.506 462.5,369C 469.367,376.035 475.701,383.535 481.5,391.5C 481.833,390.667 482.167,389.833 482.5,389C 477.793,369.211 471.293,350.044 463,331.5C 439.991,280.915 401.491,249.081 347.5,236C 340.294,228.463 333.46,220.629 327,212.5C 313.608,186.109 316.275,161.442 335,138.5C 342.698,131.136 350.031,123.47 357,115.5C 360.672,108.659 362.506,101.326 362.5,93.5C 367.918,94.5212 373.252,95.8545 378.5,97.5 Z"/></g>
<g><path style="opacity:1" fill="#f2e6d7" d="M 219.5,97.5 C 207.154,103.67 195.154,110.503 183.5,118C 163.949,129.217 148.783,144.717 138,164.5C 125.825,192.2 118.825,221.2 117,251.5C 113.862,299.139 111.196,346.806 109,394.5C 107.024,417.351 103.858,440.018 99.5,462.5C 101.144,462.714 102.644,462.38 104,461.5C 106.254,457.993 108.254,454.327 110,450.5C 117.258,431.726 123.925,412.726 130,393.5C 130.498,395.544 131.665,396.878 133.5,397.5C 125.244,422.457 121.411,448.124 122,474.5C 123.049,475.517 124.216,475.684 125.5,475C 127.041,473.421 128.208,471.587 129,469.5C 133.186,457.447 137.02,445.447 140.5,433.5C 140.425,439.521 140.758,445.521 141.5,451.5C 140.599,461 138.933,470.333 136.5,479.5C 138.167,479.5 139.833,479.5 141.5,479.5C 141.334,489.506 141.5,499.506 142,509.5C 142.26,513.424 143.26,517.091 145,520.5C 148.955,509.691 152.455,498.691 155.5,487.5C 156.097,487.735 156.43,488.235 156.5,489C 153.126,504.357 148.459,519.191 142.5,533.5C 142.666,529.486 142.499,525.486 142,521.5C 140.963,518.616 139.129,517.95 136.5,519.5C 128.517,534.452 118.35,547.785 106,559.5C 110.064,542.015 113.564,524.348 116.5,506.5C 117.076,502.317 115.576,499.317 112,497.5C 111.167,497.667 110.333,497.833 109.5,498C 95.6638,514.844 79.1638,528.344 60,538.5C 73.8289,506.341 84.4956,473.007 92,438.5C 92.6761,433.129 92.5095,427.796 91.5,422.5C 92.2216,422.918 92.7216,423.584 93,424.5C 95.3647,410.218 97.3647,395.885 99,381.5C 100.967,338.183 102.634,294.85 104,251.5C 105.181,239.149 106.514,226.816 108,214.5C 109.706,205.008 112.04,195.674 115,186.5C 133.236,137.305 168.07,107.638 219.5,97.5 Z"/></g>
<g><path style="opacity:1" fill="#c9b7a1" d="M 365.5,98.5 C 389.302,106.234 411.302,117.401 431.5,132C 450.832,150.49 462.999,172.99 468,199.5C 473.64,228.901 476.973,258.567 478,288.5C 479.566,314.158 480.566,339.825 481,365.5C 470.251,326.458 450.084,293.291 420.5,266C 399.863,249.349 376.53,238.016 350.5,232C 341.906,222.743 334.073,212.91 327,202.5C 319.68,182.417 322.347,163.751 335,146.5C 343.667,137.167 352.333,127.833 361,118.5C 364.906,112.389 366.406,105.722 365.5,98.5 Z"/></g>
<g><path style="opacity:1" fill="#c9b7a1" d="M 226.5,99.5 C 227.833,99.5 229.167,99.5 230.5,99.5C 230.149,106.762 231.982,113.429 236,119.5C 243.636,128.137 251.636,136.47 260,144.5C 276.382,165.995 277.715,188.329 264,211.5C 257.5,218.667 251,225.833 244.5,233C 194.839,245.239 158.339,274.072 135,319.5C 126.941,335.951 120.275,352.951 115,370.5C 115.893,325.757 118.56,281.09 123,236.5C 125.643,209.577 133.309,184.244 146,160.5C 157.581,143.921 172.081,130.421 189.5,120C 201.574,112.631 213.907,105.798 226.5,99.5 Z"/></g>
<g><path style="opacity:1" fill="#f2e6d7" d="M 378.5,97.5 C 396.363,100.399 413.029,106.566 428.5,116C 462.365,140.256 482.865,173.089 490,214.5C 494.915,260.684 497.248,307.017 497,353.5C 498.459,376.253 500.792,398.92 504,421.5C 504.232,422.737 504.732,423.737 505.5,424.5C 510.127,464.002 521.127,501.669 538.5,537.5C 538.333,537.833 538.167,538.167 538,538.5C 518.836,528.344 502.336,514.844 488.5,498C 483.102,497.74 480.769,500.407 481.5,506C 483.884,524.155 487.384,541.988 492,559.5C 479.59,547.43 469.09,533.93 460.5,519C 458.633,518.289 457.133,518.789 456,520.5C 455.501,525.155 455.334,529.821 455.5,534.5C 447.82,517.427 442.82,499.76 440.5,481.5C 444.71,494.569 449.044,507.569 453.5,520.5C 455.588,516.822 456.755,512.822 457,508.5C 457.5,498.839 457.666,489.172 457.5,479.5C 459.144,479.714 460.644,479.38 462,478.5C 462.512,470.316 463.346,462.316 464.5,454.5C 466.56,460.51 468.726,466.51 471,472.5C 472.46,475.21 474.46,475.876 477,474.5C 477.281,455.631 475.448,436.965 471.5,418.5C 475.531,431.095 479.698,443.762 484,456.5C 484.925,460.601 487.425,462.601 491.5,462.5C 487.719,393.169 483.886,323.836 480,254.5C 478.486,229.748 474.486,205.414 468,181.5C 461.763,160.516 450.597,142.682 434.5,128C 416.796,115.983 398.129,105.816 378.5,97.5 Z"/></g>
<g><path style="opacity:1" fill="#030302" d="M 232.5,160.5 C 234.144,160.286 235.644,160.62 237,161.5C 239.337,178.852 247.337,192.852 261,203.5C 261.123,208.184 258.956,209.517 254.5,207.5C 241.281,212.722 227.614,216.222 213.5,218C 208.228,220.941 203.228,224.274 198.5,228C 194.132,230.557 191.965,229.39 192,224.5C 206.53,214.973 219.53,203.64 231,190.5C 233.178,187.317 234.344,183.817 234.5,180C 233.023,173.588 232.356,167.088 232.5,160.5 Z"/></g>
<g><path style="opacity:1" fill="#030302" d="M 360.5,160.5 C 363.93,159.755 365.597,161.089 365.5,164.5C 364.5,169.833 363.5,175.167 362.5,180.5C 362.83,183.324 363.664,185.991 365,188.5C 376.44,202.607 389.773,214.607 405,224.5C 405.5,228 404,229.5 400.5,229C 395.344,224.586 389.677,220.919 383.5,218C 369.37,216.218 355.703,212.718 342.5,207.5C 337.377,209.545 335.543,207.878 337,202.5C 350.791,191.925 358.624,177.925 360.5,160.5 Z"/></g>
<g><path style="opacity:1" fill="#b8a893" d="M 521.5,196.5 C 524.659,199.486 526.159,203.152 526,207.5C 523.934,204.039 522.434,200.373 521.5,196.5 Z"/></g>
<g><path style="opacity:1" fill="#73695c" d="M 75.5,197.5 C 76.0431,197.56 76.3764,197.893 76.5,198.5C 75.3333,200.833 74.1667,203.167 73,205.5C 72.9335,202.613 73.7668,199.946 75.5,197.5 Z"/></g>
<g><path style="opacity:1" fill="#c8b7a1" d="M 68.5,237.5 C 68.8829,245.82 67.7162,254.153 65,262.5C 59.5954,272.803 55.7621,283.636 53.5,295C 53.0887,300.257 55.422,302.257 60.5,301C 62.6238,299.878 64.4571,298.378 66,296.5C 66.1667,298 66.3333,299.5 66.5,301C 65.1126,317.27 62.946,333.437 60,349.5C 59.3333,356.167 59.3333,362.833 60,369.5C 64.7674,372.758 68.4341,371.758 71,366.5C 71.3333,366.833 71.6667,367.167 72,367.5C 72.9429,374.153 73.7762,380.819 74.5,387.5C 73.2177,397.142 72.2177,406.808 71.5,416.5C 71.4481,420.587 71.9481,424.587 73,428.5C 75.0639,429.591 77.2305,429.758 79.5,429C 81.9011,425.477 83.7344,421.644 85,417.5C 86.8006,422.167 87.9672,427 88.5,432C 84.8227,451.861 79.8227,471.361 73.5,490.5C 68.2867,488.736 62.9534,487.236 57.5,486C 56.6667,485.167 55.8333,484.333 55,483.5C 50.3333,472.833 45.6667,462.167 41,451.5C 35.2901,447.712 32.6234,442.378 33,435.5C 32.6667,426.167 32.3333,416.833 32,407.5C 31.0448,400.516 29.5448,393.683 27.5,387C 30.0001,372.5 32.5001,358 35,343.5C 34.9448,335.836 34.9448,328.169 35,320.5C 38.4699,310.423 42.1366,300.423 46,290.5C 48.4962,282.352 49.8295,274.019 50,265.5C 52.6105,258.336 55.6105,251.336 59,244.5C 63.1422,243.529 66.3088,241.196 68.5,237.5 Z"/></g>
<g><path style="opacity:1" fill="#c8b7a1" d="M 528.5,238.5 C 531.56,241.947 535.393,243.947 540,244.5C 542.942,250.718 545.609,257.051 548,263.5C 547.92,272.393 549.254,281.06 552,289.5C 556.285,300.402 560.285,311.402 564,322.5C 563.727,331.489 563.727,340.489 564,349.5C 566.876,361.38 569.043,373.38 570.5,385.5C 569.865,391.912 568.699,398.246 567,404.5C 566.821,417.199 566.155,429.865 565,442.5C 563.093,446.41 560.427,449.744 557,452.5C 552.45,463.327 547.616,473.994 542.5,484.5C 536.731,486.463 531.064,488.796 525.5,491.5C 518.296,472.017 512.962,452.017 509.5,431.5C 509.613,426.933 510.613,422.6 512.5,418.5C 514.107,422.212 516.107,425.712 518.5,429C 520.769,429.758 522.936,429.591 525,428.5C 525.738,414.787 525.238,401.12 523.5,387.5C 523.724,380.099 524.557,372.766 526,365.5C 527.938,370.458 531.438,372.291 536.5,371C 537.126,370.25 537.626,369.416 538,368.5C 538.667,363.5 538.667,358.5 538,353.5C 536.259,340.128 534.259,326.795 532,313.5C 531.333,307.833 531.333,302.167 532,296.5C 533.878,299.23 536.378,300.897 539.5,301.5C 543.317,301.347 544.984,299.347 544.5,295.5C 543.962,290.68 542.795,286.013 541,281.5C 533.692,268.076 529.525,253.743 528.5,238.5 Z"/></g>
<g><path style="opacity:1" fill="#f8f0e7" d="M 440.5,481.5 C 442.82,499.76 447.82,517.427 455.5,534.5C 457.046,540.442 458.38,546.442 459.5,552.5C 450.106,548.287 441.939,542.287 435,534.5C 434.005,535.066 433.172,535.733 432.5,536.5C 431.2,540.001 430.034,543.667 429,547.5C 428.333,548.167 427.667,548.833 427,549.5C 426.582,554.535 426.582,559.535 427,564.5C 419.889,556.054 413.555,547.054 408,537.5C 406.667,536.167 405.333,536.167 404,537.5C 403.333,541.833 403.333,546.167 404,550.5C 405.383,558.678 407.049,566.678 409,574.5C 402.976,567.147 396.976,559.813 391,552.5C 388.981,554.851 386.648,556.851 384,558.5C 383.667,561.167 383.333,563.833 383,566.5C 379.837,562.844 377.171,558.844 375,554.5C 371.739,553.207 369.072,551.207 367,548.5C 365.739,548.759 364.739,549.426 364,550.5C 362.058,554.069 359.892,557.402 357.5,560.5C 354.003,556.852 351.503,552.519 350,547.5C 338.499,508.461 337.499,469.128 347,429.5C 354.87,402.225 362.536,374.891 370,347.5C 374.475,331.713 375.809,315.713 374,299.5C 371.423,291.587 366.589,285.42 359.5,281C 353.823,277.659 347.823,275.159 341.5,273.5C 338.646,265.883 333.312,260.716 325.5,258C 307.811,253.381 290.145,253.381 272.5,258C 264.685,260.989 259.018,266.156 255.5,273.5C 241.786,276.402 231.286,283.736 224,295.5C 222.156,300.846 221.323,306.346 221.5,312C 222.011,321.246 223.178,330.413 225,339.5C 232.389,368.668 240.389,397.668 249,426.5C 257.997,465.603 257.664,504.603 248,543.5C 246.19,549.786 243.357,555.453 239.5,560.5C 237.615,556.045 234.782,552.379 231,549.5C 229.779,550.272 228.779,551.272 228,552.5C 226.612,551.446 225.112,551.28 223.5,552C 220.706,557.09 217.54,561.923 214,566.5C 214.724,559.891 212.057,555.225 206,552.5C 200.074,559.773 194.074,567.106 188,574.5C 189.464,568.971 190.797,563.304 192,557.5C 193.012,551.204 193.512,544.871 193.5,538.5C 191.856,538.286 190.356,538.62 189,539.5C 183.826,549.008 177.493,557.675 170,565.5C 171.062,559.92 171.395,554.254 171,548.5C 169.004,544.104 167.17,539.77 165.5,535.5C 165.013,534.527 164.513,533.527 164,532.5C 156.733,540.616 148.233,546.949 138.5,551.5C 138.062,551.565 137.728,551.399 137.5,551C 139.984,545.425 141.65,539.592 142.5,533.5C 148.459,519.191 153.126,504.357 156.5,489C 156.43,488.235 156.097,487.735 155.5,487.5C 160.326,471.231 163.159,454.564 164,437.5C 164.913,402.46 166.58,367.46 169,332.5C 172.025,298.261 187.525,271.428 215.5,252C 242.406,238.308 270.239,236.141 299,245.5C 305.875,244.209 312.709,242.709 319.5,241C 368.799,235.888 402.966,256.055 422,301.5C 427.782,322.416 430.782,343.749 431,365.5C 431.482,391.521 432.482,417.521 434,443.5C 435.17,453.523 436.503,463.523 438,473.5C 438.272,476.382 439.106,479.049 440.5,481.5 Z"/></g>
<g><path style="opacity:1" fill="#030303" d="M 341.5,273.5 C 345.208,286.878 341.542,298.045 330.5,307C 324.444,311.696 317.777,315.363 310.5,318C 309,319.5 307.5,321 306,322.5C 303.214,331.389 302.881,340.389 305,349.5C 305.465,350.931 306.299,352.097 307.5,353C 319.605,354.419 331.605,356.419 343.5,359C 348.109,361.715 348.443,364.715 344.5,368C 340.167,368.667 335.833,368.667 331.5,368C 320.728,365.779 309.894,363.945 299,362.5C 286,364.833 273,367.167 260,369.5C 252.44,369.644 250.273,366.477 253.5,360C 256.44,358.848 259.44,357.848 262.5,357C 271.764,356.03 280.93,354.53 290,352.5C 291.735,351.318 292.735,349.651 293,347.5C 293.87,339.103 293.537,330.77 292,322.5C 290.833,321.333 289.667,320.167 288.5,319C 276.034,314.523 265.867,307.023 258,296.5C 254.659,289.091 253.826,281.424 255.5,273.5C 259.018,266.156 264.685,260.989 272.5,258C 290.145,253.381 307.811,253.381 325.5,258C 333.312,260.716 338.646,265.883 341.5,273.5 Z"/></g>
<g><path style="opacity:1" fill="#f1f1f1" d="M 255.5,273.5 C 253.826,281.424 254.659,289.091 258,296.5C 265.867,307.023 276.034,314.523 288.5,319C 289.667,320.167 290.833,321.333 292,322.5C 293.537,330.77 293.87,339.103 293,347.5C 292.735,349.651 291.735,351.318 290,352.5C 280.93,354.53 271.764,356.03 262.5,357C 259.44,357.848 256.44,358.848 253.5,360C 250.273,366.477 252.44,369.644 260,369.5C 273,367.167 286,364.833 299,362.5C 309.894,363.945 320.728,365.779 331.5,368C 335.833,368.667 340.167,368.667 344.5,368C 348.443,364.715 348.109,361.715 343.5,359C 331.605,356.419 319.605,354.419 307.5,353C 306.299,352.097 305.465,350.931 305,349.5C 302.881,340.389 303.214,331.389 306,322.5C 307.5,321 309,319.5 310.5,318C 317.777,315.363 324.444,311.696 330.5,307C 341.542,298.045 345.208,286.878 341.5,273.5C 347.823,275.159 353.823,277.659 359.5,281C 366.589,285.42 371.423,291.587 374,299.5C 375.809,315.713 374.475,331.713 370,347.5C 362.536,374.891 354.87,402.225 347,429.5C 337.499,469.128 338.499,508.461 350,547.5C 351.503,552.519 354.003,556.852 357.5,560.5C 356.934,563.873 355.601,566.873 353.5,569.5C 352.833,566.167 352.167,562.833 351.5,559.5C 349.27,558.225 347.937,556.225 347.5,553.5C 337.499,552.202 328.999,555.202 322,562.5C 319.804,567.42 317.804,572.42 316,577.5C 315.333,573.5 314.667,569.5 314,565.5C 312.895,560.794 310.062,557.627 305.5,556C 300.833,555.333 296.167,555.333 291.5,556C 287.6,557.569 285.1,560.402 284,564.5C 282.97,568.773 282.303,573.106 282,577.5C 280.008,572.867 278.008,568.201 276,563.5C 274.859,561.391 273.359,559.558 271.5,558C 264.882,554.799 258.049,553.299 251,553.5C 250.529,555.246 249.862,556.913 249,558.5C 247.989,557.663 246.822,557.33 245.5,557.5C 247.039,572.818 245.039,573.818 239.5,560.5C 243.357,555.453 246.19,549.786 248,543.5C 257.664,504.603 257.997,465.603 249,426.5C 240.389,397.668 232.389,368.668 225,339.5C 223.178,330.413 222.011,321.246 221.5,312C 221.323,306.346 222.156,300.846 224,295.5C 231.286,283.736 241.786,276.402 255.5,273.5 Z"/></g>
<g><path style="opacity:1" fill="#b9a894" d="M 125.5,390.5 C 125.351,389.448 125.517,388.448 126,387.5C 129.333,383.5 132.667,379.5 136,375.5C 135.243,378.784 134.243,382.117 133,385.5C 129.53,385.818 127.03,387.484 125.5,390.5 Z"/></g>
<g><path style="opacity:1" fill="#c9b8a1" d="M 463.5,377.5 C 468.508,382.99 473.174,388.823 477.5,395C 479.473,395.495 481.473,395.662 483.5,395.5C 484.704,413.165 485.537,430.831 486,448.5C 480.392,431.343 475.392,414.01 471,396.5C 467.248,390.761 464.748,384.428 463.5,377.5 Z"/></g>
<g><path style="opacity:1" fill="#c9b8a1" d="M 125.5,390.5 C 120.37,408.058 114.536,425.391 108,442.5C 109.953,427.586 111.62,412.586 113,397.5C 115.133,395.862 117.633,395.029 120.5,395C 122.037,393.293 123.704,391.793 125.5,390.5 Z"/></g>
<g><path style="opacity:1" fill="#0a0909" d="M 141.5,479.5 C 139.833,479.5 138.167,479.5 136.5,479.5C 138.933,470.333 140.599,461 141.5,451.5C 140.758,445.521 140.425,439.521 140.5,433.5C 141.43,429.907 143.763,428.241 147.5,428.5C 147.827,430.488 148.16,432.488 148.5,434.5C 146.248,449.604 143.915,464.604 141.5,479.5 Z"/></g>
<g><path style="opacity:1" fill="#0e0d0c" d="M 464.5,454.5 C 463.346,462.316 462.512,470.316 462,478.5C 460.644,479.38 459.144,479.714 457.5,479.5C 456.883,479.389 456.383,479.056 456,478.5C 454.045,462.491 452.378,446.491 451,430.5C 452.916,427.967 454.916,427.967 457,430.5C 460.953,438.066 463.453,446.066 464.5,454.5 Z"/></g>
<g><path style="opacity:1" fill="#c1b09b" d="M 455.5,440.5 C 457.129,442.858 458.295,445.524 459,448.5C 459.667,453.833 459.667,459.167 459,464.5C 458.065,456.453 456.898,448.453 455.5,440.5 Z"/></g>
<g><path style="opacity:1" fill="#ebdfd1" d="M 165.5,535.5 C 164.504,535.414 163.671,535.748 163,536.5C 154.524,550.316 144.524,562.983 133,574.5C 134.658,566.863 136.492,559.197 138.5,551.5C 148.233,546.949 156.733,540.616 164,532.5C 164.513,533.527 165.013,534.527 165.5,535.5 Z"/></g>
<g><path style="opacity:1" fill="#ebe0d1" d="M 459.5,552.5 C 461.469,559.886 463.302,567.219 465,574.5C 453.893,563.597 444.227,551.597 436,538.5C 435.184,537.177 434.017,536.511 432.5,536.5C 433.172,535.733 434.005,535.066 435,534.5C 441.939,542.287 450.106,548.287 459.5,552.5 Z"/></g>
<g><path style="opacity:1" fill="#5e5e5e" d="M 351.5,559.5 C 352.167,562.833 352.833,566.167 353.5,569.5C 353.44,570.043 353.107,570.376 352.5,570.5C 351.511,566.893 351.177,563.226 351.5,559.5 Z"/></g>
</svg>
