<?xml version="1.0" encoding="UTF-8"?>
<!DOCTYPE svg PUBLIC "-//W3C//DTD SVG 1.1//EN" "http://www.w3.org/Graphics/SVG/1.1/DTD/svg11.dtd">
<svg xmlns="http://www.w3.org/2000/svg" version="1.1" width="600px" height="600px" style="shape-rendering:geometricPrecision; text-rendering:geometricPrecision; image-rendering:optimizeQuality; fill-rule:evenodd; clip-rule:evenodd" xmlns:xlink="http://www.w3.org/1999/xlink">
<g><path style="opacity:0.952" fill="#020101" d="M 170.5,-0.5 C 180.5,-0.5 190.5,-0.5 200.5,-0.5C 211.886,12.5998 219.886,27.5998 224.5,44.5C 231.064,46.5564 237.064,49.723 242.5,54C 247.649,58.3149 252.649,62.8149 257.5,67.5C 259.02,56.5895 265.02,52.4228 275.5,55C 277.667,56.5 279.5,58.3333 281,60.5C 281.68,47.1156 288.18,42.6156 300.5,47C 305.774,54.0492 309.607,61.8825 312,70.5C 314.071,62.619 316.738,54.9524 320,47.5C 326.799,38.4442 334.133,37.7775 342,45.5C 342.681,47.8947 343.515,50.228 344.5,52.5C 350.34,47.5799 357.007,44.2466 364.5,42.5C 367.743,43.0148 370.576,44.3481 373,46.5C 376.992,37.2008 380.992,27.8675 385,18.5C 389.018,11.7859 393.518,5.45255 398.5,-0.5C 408.833,-0.5 419.167,-0.5 429.5,-0.5C 432.828,4.14789 435.661,9.14789 438,14.5C 455.776,60.6048 466.776,108.271 471,157.5C 479.851,161.842 485.018,168.842 486.5,178.5C 486.169,185.661 482.503,189.828 475.5,191C 483.377,206.795 489.377,223.295 493.5,240.5C 492.902,245.462 491.402,250.128 489,254.5C 486.576,256.652 483.743,257.985 480.5,258.5C 478.802,257.319 477.135,257.319 475.5,258.5C 477.538,271.447 480.704,284.113 485,296.5C 487.557,304.808 486.891,312.808 483,320.5C 482.167,321.333 481.333,322.167 480.5,323C 476.621,324.049 472.954,325.549 469.5,327.5C 474.37,335.405 477.703,343.905 479.5,353C 477.344,361.046 475.844,369.213 475,377.5C 476.799,392.371 474.799,406.704 469,420.5C 466.806,423.181 463.973,424.681 460.5,425C 460.627,434.262 462.127,443.429 465,452.5C 465.998,456.473 466.331,460.473 466,464.5C 459.476,497.732 442.309,523.899 414.5,543C 407.959,546.369 401.959,545.535 396.5,540.5C 393.512,547.146 390.012,553.479 386,559.5C 381.856,563.408 377.023,564.908 371.5,564C 363.176,576.99 351.843,586.324 337.5,592C 328.202,595.155 318.869,597.655 309.5,599.5C 302.833,599.5 296.167,599.5 289.5,599.5C 268.1,596.55 249.6,587.55 234,572.5C 231.971,569.971 230.138,567.304 228.5,564.5C 222.485,565.024 217.319,563.024 213,558.5C 209.412,552.325 206.078,545.991 203,539.5C 197.987,545.215 192.154,546.382 185.5,543C 158.244,524.405 141.41,498.905 135,466.5C 135.246,452.447 137.079,438.614 140.5,425C 135.611,424.444 132.111,421.944 130,417.5C 125.751,406.042 124.584,394.376 126.5,382.5C 125.348,378.895 124.348,375.228 123.5,371.5C 123.941,369.855 124.274,368.189 124.5,366.5C 123.344,362.207 122.344,357.874 121.5,353.5C 122.198,349.042 123.365,344.709 125,340.5C 127.735,335.701 129.902,330.701 131.5,325.5C 118.528,325.696 112.695,319.363 114,306.5C 117.618,290.911 120.785,275.244 123.5,259.5C 116.896,259.371 111.73,256.704 108,251.5C 107.04,248.367 106.207,245.2 105.5,242C 109.02,224.608 115.02,208.108 123.5,192.5C 112.57,185.854 110.737,177.187 118,166.5C 121.035,163.13 124.368,160.13 128,157.5C 132.503,108.648 143.503,61.3146 161,15.5C 163.423,9.64338 166.589,4.31004 170.5,-0.5 Z"/></g>
<g><path style="opacity:1" fill="#a29584" d="M 228.5,83.5 C 224.618,80.3912 220.284,78.0579 215.5,76.5C 213.631,75.8354 211.631,75.1687 209.5,74.5C 206.426,64.5132 201.426,55.6799 194.5,48C 189.903,45.4595 186.07,46.2929 183,50.5C 168.708,82.6666 160.208,116.333 157.5,151.5C 151.5,155.167 145.5,158.833 139.5,162.5C 141.882,109.638 153.715,58.9718 175,10.5C 180.609,2.31393 187.109,1.4806 194.5,8C 200.211,15.2473 205.044,23.0807 209,31.5C 215.503,48.8523 222.003,66.1857 228.5,83.5 Z"/></g>
<g><path style="opacity:1" fill="#a29584" d="M 460.5,162.5 C 454.633,159.404 448.967,156.071 443.5,152.5C 441.147,117.422 432.981,83.7554 419,51.5C 417.5,50 416,48.5 414.5,47C 412.5,46.3333 410.5,46.3333 408.5,47C 405.333,48.8333 402.833,51.3333 401,54.5C 394.29,67.798 388.457,81.4647 383.5,95.5C 378.683,96.1669 374.017,96.8335 369.5,97.5C 368.127,97.6567 366.793,97.49 365.5,97C 369.667,93.5 373.833,90 378,86.5C 382.42,80.3813 380.92,77.048 373.5,76.5C 379.502,59.3283 386.002,42.3283 393,25.5C 395.416,20.9994 398.083,16.6661 401,12.5C 403.921,8.90844 407.421,6.07511 411.5,4C 417.563,3.4523 422.063,5.9523 425,11.5C 445.601,59.7742 457.434,110.108 460.5,162.5 Z"/></g>
<g><path style="opacity:1" fill="#b6a691" d="M 215.5,76.5 C 212.813,76.3359 210.146,76.5026 207.5,77C 205.604,78.8083 205.104,80.975 206,83.5C 210.199,88.0343 214.699,92.201 219.5,96C 218.376,96.2492 217.376,96.7492 216.5,97.5C 217.5,99.1667 218.833,100.5 220.5,101.5C 207.886,110.429 193.886,115.929 178.5,118C 175.339,119.413 172.339,121.08 169.5,123C 168.424,124.726 168.257,126.559 169,128.5C 176.051,133.509 176.218,138.675 169.5,144C 165.64,146.761 161.64,149.261 157.5,151.5C 160.208,116.333 168.708,82.6666 183,50.5C 186.07,46.2929 189.903,45.4595 194.5,48C 201.426,55.6799 206.426,64.5132 209.5,74.5C 211.631,75.1687 213.631,75.8354 215.5,76.5 Z"/></g>
<g><path style="opacity:1" fill="#b6a691" d="M 443.5,152.5 C 436.98,149.155 431.147,144.821 426,139.5C 425.333,137.833 425.333,136.167 426,134.5C 428.063,131.946 429.897,129.28 431.5,126.5C 430.781,124.272 429.448,122.439 427.5,121C 424.326,119.275 420.993,117.942 417.5,117C 403.503,115.334 390.837,110.334 379.5,102C 381.167,101 382.5,99.6667 383.5,98C 378.845,97.5008 374.179,97.3342 369.5,97.5C 374.017,96.8335 378.683,96.1669 383.5,95.5C 388.457,81.4647 394.29,67.798 401,54.5C 402.833,51.3333 405.333,48.8333 408.5,47C 410.5,46.3333 412.5,46.3333 414.5,47C 416,48.5 417.5,50 419,51.5C 432.981,83.7554 441.147,117.422 443.5,152.5 Z"/></g>
<g><path style="opacity:1" fill="#d2bda3" d="M 373.5,76.5 C 380.92,77.048 382.42,80.3813 378,86.5C 373.833,90 369.667,93.5 365.5,97C 366.793,97.49 368.127,97.6567 369.5,97.5C 374.179,97.3342 378.845,97.5008 383.5,98C 382.5,99.6667 381.167,101 379.5,102C 390.837,110.334 403.503,115.334 417.5,117C 420.993,117.942 424.326,119.275 427.5,121C 429.448,122.439 430.781,124.272 431.5,126.5C 429.897,129.28 428.063,131.946 426,134.5C 425.333,136.167 425.333,137.833 426,139.5C 431.147,144.821 436.98,149.155 443.5,152.5C 448.967,156.071 454.633,159.404 460.5,162.5C 467.272,166.104 472.605,171.271 476.5,178C 476.355,178.772 476.022,179.439 475.5,180C 471.167,180.333 466.833,180.667 462.5,181C 461.941,181.725 461.608,182.558 461.5,183.5C 465.997,193.828 470.497,204.162 475,214.5C 478.219,222.986 480.719,231.653 482.5,240.5C 482.333,242.167 482.167,243.833 482,245.5C 481.612,246.428 480.945,247.095 480,247.5C 476.529,243.953 472.362,242.787 467.5,244C 466.874,244.75 466.374,245.584 466,246.5C 466.062,263.541 468.729,280.208 474,296.5C 475.145,301.799 475.478,307.132 475,312.5C 472.14,314.043 469.14,315.376 466,316.5C 463.861,315.764 461.861,314.764 460,313.5C 458.261,315.71 457.094,318.21 456.5,321C 460.222,331.776 464.222,342.443 468.5,353C 467.72,356.888 466.387,360.555 464.5,364C 463.56,373.388 463.56,382.888 464.5,392.5C 464.088,399.303 462.922,405.969 461,412.5C 459.582,414.363 457.749,414.863 455.5,414C 452.628,411.463 450.128,408.63 448,405.5C 447.929,414.199 448.595,422.866 450,431.5C 451.941,441.478 453.774,451.478 455.5,461.5C 450.567,487.534 438.234,509.367 418.5,527C 415.986,528.252 413.32,528.752 410.5,528.5C 410.701,532.36 409.035,534.194 405.5,534C 402.75,528.754 400.584,523.254 399,517.5C 398.577,516.044 397.744,515.544 396.5,516C 395.333,517.167 394.167,518.333 393,519.5C 389.942,526.007 387.275,532.674 385,539.5C 383.005,544.16 380.505,548.494 377.5,552.5C 376.349,553.731 375.183,553.731 374,552.5C 373.259,549.438 373.425,546.438 374.5,543.5C 374.065,541.003 372.731,539.837 370.5,540C 366.958,546.612 363.791,553.445 361,560.5C 347.813,576.847 330.647,586.014 309.5,588C 281.915,591.108 258.748,582.608 240,562.5C 236.31,555.102 232.81,547.602 229.5,540C 227.892,539.342 226.725,539.842 226,541.5C 226.005,545.592 225.838,549.592 225.5,553.5C 222.708,553.548 220.875,552.215 220,549.5C 215.231,541.295 211.564,532.628 209,523.5C 207.589,520.003 205.256,517.336 202,515.5C 199.667,521.167 197.333,526.833 195,532.5C 194.163,534.007 192.996,534.507 191.5,534C 168.434,518.469 153.267,496.969 146,469.5C 145.833,466.333 145.667,463.167 145.5,460C 147.199,444.442 149.365,428.942 152,413.5C 152.667,410.5 152.667,407.5 152,404.5C 149.518,407.949 146.685,411.116 143.5,414C 141.633,414.711 140.133,414.211 139,412.5C 135.626,401.724 135.126,390.891 137.5,380C 137.208,376.263 136.208,372.763 134.5,369.5C 134.67,367.471 135.004,365.471 135.5,363.5C 132.253,357.768 131.753,351.768 134,345.5C 136.94,339.954 139.606,334.287 142,328.5C 143.184,324.551 143.518,320.551 143,316.5C 142.221,315.272 141.221,314.272 140,313.5C 136.727,315.872 133.56,315.872 130.5,313.5C 128.591,314.348 126.591,314.682 124.5,314.5C 127.62,292.78 131.287,271.114 135.5,249.5C 135.933,244.11 133.599,241.61 128.5,242C 125.656,244.181 122.822,246.347 120,248.5C 117.128,246.918 115.962,244.418 116.5,241C 120.067,223.363 126.567,206.863 136,191.5C 137.628,187.675 137.795,183.842 136.5,180C 132.889,180.627 129.223,180.96 125.5,181C 123.675,179.534 123.175,177.701 124,175.5C 128.48,170.173 133.647,165.84 139.5,162.5C 145.5,158.833 151.5,155.167 157.5,151.5C 161.64,149.261 165.64,146.761 169.5,144C 176.218,138.675 176.051,133.509 169,128.5C 168.257,126.559 168.424,124.726 169.5,123C 172.339,121.08 175.339,119.413 178.5,118C 193.886,115.929 207.886,110.429 220.5,101.5C 218.833,100.5 217.5,99.1667 216.5,97.5C 217.376,96.7492 218.376,96.2492 219.5,96C 214.699,92.201 210.199,88.0343 206,83.5C 205.104,80.975 205.604,78.8083 207.5,77C 210.146,76.5026 212.813,76.3359 215.5,76.5C 220.284,78.0579 224.618,80.3912 228.5,83.5C 232.663,88.483 237.829,92.1497 244,94.5C 244.5,94.1667 245,93.8333 245.5,93.5C 238.143,84.6441 230.977,75.6441 224,66.5C 221.148,62.4747 220.315,58.1414 221.5,53.5C 228.009,56.5846 234.009,60.418 239.5,65C 246.144,71.9762 253.144,78.6429 260.5,85C 262.433,85.7826 263.933,85.2826 265,83.5C 265.498,80.5184 265.665,77.5184 265.5,74.5C 266.822,74.33 267.989,74.6634 269,75.5C 269.175,71.789 269.675,68.1224 270.5,64.5C 274.841,71.1794 278.675,78.1794 282,85.5C 283.786,88.3616 286.119,89.0283 289,87.5C 289.173,81.6518 289.673,75.9851 290.5,70.5C 292.43,66.6273 293.097,62.294 292.5,57.5C 293.279,55.0728 294.446,55.0728 296,57.5C 299.39,66.6136 303.057,75.6136 307,84.5C 310.418,88.3673 313.751,88.3673 317,84.5C 318.333,81.8333 319.667,79.1667 321,76.5C 323.053,68.2843 325.72,60.2843 329,52.5C 330.11,50.9632 331.61,50.2965 333.5,50.5C 332.983,59.914 332.149,69.2474 331,78.5C 340.011,68.8147 350.178,60.648 361.5,54C 363.134,53.5065 364.801,53.3398 366.5,53.5C 366.201,57.1055 365.035,60.4388 363,63.5C 356.218,73.2834 349.051,82.7834 341.5,92C 349.237,90.4612 355.904,86.7945 361.5,81C 365.219,78.6361 369.219,77.1361 373.5,76.5 Z"/></g>
<g><path style="opacity:1" fill="#7c6f60" d="M 292.5,57.5 C 293.097,62.294 292.43,66.6273 290.5,70.5C 291.113,66.063 291.78,61.7297 292.5,57.5 Z"/></g>
<g><path style="opacity:1" fill="#dbc9b5" d="M 426.5,247.5 C 424.262,248.537 421.929,248.703 419.5,248C 413.842,246.058 408.175,244.225 402.5,242.5C 399.417,242.084 396.417,241.417 393.5,240.5C 391.259,240.046 389.259,240.046 387.5,240.5C 384.495,238.701 381.162,238.034 377.5,238.5C 371.833,238.5 366.167,238.5 360.5,238.5C 356.663,238.931 352.997,239.598 349.5,240.5C 346.6,240.28 343.933,240.946 341.5,242.5C 345.415,251.927 350.081,260.927 355.5,269.5C 367.209,278.211 375.543,289.545 380.5,303.5C 383.272,309.952 384.105,316.619 383,323.5C 387.14,325.65 390.64,328.483 393.5,332C 393.167,332.5 392.833,333 392.5,333.5C 389.823,331.835 387.823,332.335 386.5,335C 393.056,347.473 396.389,360.64 396.5,374.5C 395.354,373.855 394.354,373.022 393.5,372C 392.365,371.251 391.365,371.417 390.5,372.5C 392.036,375.778 393.369,379.111 394.5,382.5C 402.699,402.61 404.532,423.276 400,444.5C 397.977,449.503 395.31,449.836 392,445.5C 391,443.5 390,441.5 389,439.5C 387.853,440.458 386.853,440.125 386,438.5C 389.359,460.48 383.526,479.647 368.5,496C 365.764,498.599 362.764,498.599 359.5,496C 357.683,494.2 356.516,492.034 356,489.5C 354,490.833 352,490.833 350,489.5C 348.624,490.705 347.458,492.038 346.5,493.5C 344.122,495.878 341.455,497.878 338.5,499.5C 327.575,506.319 315.742,511.319 303,514.5C 300.262,513.518 297.428,512.852 294.5,512.5C 282.073,510.078 270.406,505.578 259.5,499C 256.669,497.334 254.336,495.168 252.5,492.5C 251.386,491.115 250.386,489.615 249.5,488C 248.092,487.685 246.759,488.018 245.5,489C 244.281,493.139 243.114,497.306 242,501.5C 240.951,502.517 239.784,502.684 238.5,502C 229.145,493.319 221.312,483.486 215,472.5C 213.639,460.856 213.139,449.189 213.5,437.5C 210.238,440.512 207.572,444.012 205.5,448C 201.774,448.961 199.608,447.461 199,443.5C 196.026,432.281 195.693,420.947 198,409.5C 200.571,396.545 204.071,383.878 208.5,371.5C 205.833,372.5 203.167,373.5 200.5,374.5C 200.531,369.375 201.364,364.375 203,359.5C 205.545,350.7 208.378,342.033 211.5,333.5C 203.908,334.307 202.908,332.474 208.5,328C 211.249,326.877 213.749,325.377 216,323.5C 216.791,314.002 219.291,305.002 223.5,296.5C 229.685,285.736 237.519,276.403 247,268.5C 251.607,260.014 255.441,251.18 258.5,242C 254.406,241.443 250.406,240.61 246.5,239.5C 243.833,239.167 241.167,238.833 238.5,238.5C 237.167,238.5 235.833,238.5 234.5,238.5C 231.5,238.5 228.5,238.5 225.5,238.5C 219.082,238.442 212.748,239.108 206.5,240.5C 203.198,241.294 199.865,241.96 196.5,242.5C 191.795,243.623 187.128,244.956 182.5,246.5C 179.551,248.499 176.551,248.832 173.5,247.5C 171.609,245.164 171.109,242.498 172,239.5C 175.23,234.637 179.396,230.804 184.5,228C 204.768,215.533 226.768,210.2 250.5,212C 262.263,213.105 269.763,219.272 273,230.5C 272.686,227.454 272.853,224.454 273.5,221.5C 276.52,224.355 279.687,227.021 283,229.5C 283.182,226.774 283.682,224.107 284.5,221.5C 285.981,222.48 287.315,223.647 288.5,225C 290.044,226.187 291.711,226.52 293.5,226C 294.272,220.896 294.439,215.729 294,210.5C 298.689,217.879 302.856,225.545 306.5,233.5C 311.833,224.833 317.167,216.167 322.5,207.5C 322.833,208.833 323.167,210.167 323.5,211.5C 321.7,218.06 321.2,224.727 322,231.5C 323.708,229.457 325.708,227.79 328,226.5C 331.4,218.208 337.567,213.375 346.5,212C 374.204,209.668 399.204,216.668 421.5,233C 426.962,236.596 428.628,241.429 426.5,247.5 Z"/></g>
<g><path style="opacity:1" fill="#422706" d="M 225.5,238.5 C 221.966,246.58 224.633,250.08 233.5,249C 237.065,245.784 237.398,242.284 234.5,238.5C 235.833,238.5 237.167,238.5 238.5,238.5C 241.533,240.403 242.866,243.236 242.5,247C 240.38,262.453 231.713,268.453 216.5,265C 206.681,259.524 203.348,251.357 206.5,240.5C 212.748,239.108 219.082,238.442 225.5,238.5 Z"/></g>
<g><path style="opacity:1" fill="#e3e2e2" d="M 225.5,238.5 C 228.5,238.5 231.5,238.5 234.5,238.5C 237.398,242.284 237.065,245.784 233.5,249C 224.633,250.08 221.966,246.58 225.5,238.5 Z"/></g>
<g><path style="opacity:1" fill="#422706" d="M 360.5,238.5 C 366.167,238.5 371.833,238.5 377.5,238.5C 373.966,246.58 376.633,250.08 385.5,249C 388.48,246.586 389.147,243.752 387.5,240.5C 389.259,240.046 391.259,240.046 393.5,240.5C 396.391,255.397 390.391,264.064 375.5,266.5C 358.832,263.158 353.832,253.824 360.5,238.5 Z"/></g>
<g><path style="opacity:1" fill="#e3e2e2" d="M 377.5,238.5 C 381.162,238.034 384.495,238.701 387.5,240.5C 389.147,243.752 388.48,246.586 385.5,249C 376.633,250.08 373.966,246.58 377.5,238.5 Z"/></g>
<g><path style="opacity:1" fill="#817563" d="M 238.5,238.5 C 241.167,238.833 243.833,239.167 246.5,239.5C 249.295,240.399 250.628,242.399 250.5,245.5C 248.301,267.438 236.301,276.604 214.5,273C 201.482,267.151 195.482,256.984 196.5,242.5C 199.865,241.96 203.198,241.294 206.5,240.5C 203.348,251.357 206.681,259.524 216.5,265C 231.713,268.453 240.38,262.453 242.5,247C 242.866,243.236 241.533,240.403 238.5,238.5 Z"/></g>
<g><path style="opacity:1" fill="#817563" d="M 360.5,238.5 C 353.832,253.824 358.832,263.158 375.5,266.5C 390.391,264.064 396.391,255.397 393.5,240.5C 396.417,241.417 399.417,242.084 402.5,242.5C 402.725,264.776 391.725,275.276 369.5,274C 353.515,268.546 346.848,257.38 349.5,240.5C 352.997,239.598 356.663,238.931 360.5,238.5 Z"/></g>
<g><path style="opacity:1" fill="#ac9c87" d="M 246.5,239.5 C 250.406,240.61 254.406,241.443 258.5,242C 255.441,251.18 251.607,260.014 247,268.5C 237.519,276.403 229.685,285.736 223.5,296.5C 209.084,280.42 195.417,263.754 182.5,246.5C 187.128,244.956 191.795,243.623 196.5,242.5C 195.482,256.984 201.482,267.151 214.5,273C 236.301,276.604 248.301,267.438 250.5,245.5C 250.628,242.399 249.295,240.399 246.5,239.5 Z"/></g>
<g><path style="opacity:1" fill="#ac9c87" d="M 349.5,240.5 C 346.848,257.38 353.515,268.546 369.5,274C 391.725,275.276 402.725,264.776 402.5,242.5C 408.175,244.225 413.842,246.058 419.5,248C 421.929,248.703 424.262,248.537 426.5,247.5C 433.017,254.258 435.184,262.258 433,271.5C 427.251,289.495 422.584,307.829 419,326.5C 416.262,331.303 414.096,336.303 412.5,341.5C 401.457,329.126 390.791,316.46 380.5,303.5C 375.543,289.545 367.209,278.211 355.5,269.5C 350.081,260.927 345.415,251.927 341.5,242.5C 343.933,240.946 346.6,240.28 349.5,240.5 Z"/></g>
<g><path style="opacity:1" fill="#b9a891" d="M 182.5,246.5 C 195.417,263.754 209.084,280.42 223.5,296.5C 219.291,305.002 216.791,314.002 216,323.5C 213.749,325.377 211.249,326.877 208.5,328C 202.908,332.474 203.908,334.307 211.5,333.5C 208.378,342.033 205.545,350.7 203,359.5C 201.364,364.375 200.531,369.375 200.5,374.5C 185.503,342.209 174.336,308.542 167,273.5C 166.333,267.833 166.333,262.167 167,256.5C 167.931,252.431 170.098,249.431 173.5,247.5C 176.551,248.832 179.551,248.499 182.5,246.5 Z"/></g>
<g><path style="opacity:1" fill="#b9a891" d="M 380.5,303.5 C 390.791,316.46 401.457,329.126 412.5,341.5C 408.425,356.075 402.425,369.741 394.5,382.5C 393.369,379.111 392.036,375.778 390.5,372.5C 391.365,371.417 392.365,371.251 393.5,372C 394.354,373.022 395.354,373.855 396.5,374.5C 396.389,360.64 393.056,347.473 386.5,335C 387.823,332.335 389.823,331.835 392.5,333.5C 392.833,333 393.167,332.5 393.5,332C 390.64,328.483 387.14,325.65 383,323.5C 384.105,316.619 383.272,309.952 380.5,303.5 Z"/></g>
<g><path style="opacity:1" fill="#231815" d="M 288.5,425.5 C 304.546,423.958 319.879,426.458 334.5,433C 343.747,440.856 346.58,450.689 343,462.5C 340.43,470.071 335.93,476.237 329.5,481C 321.77,484.862 313.77,488.195 305.5,491C 287.114,492.058 271.947,485.558 260,471.5C 249.029,452.701 253.196,438.534 272.5,429C 277.954,427.745 283.287,426.578 288.5,425.5 Z"/></g>
<g><path style="opacity:1" fill="#f3a494" d="M 252.5,492.5 C 254.336,495.168 256.669,497.334 259.5,499C 270.406,505.578 282.073,510.078 294.5,512.5C 296.109,513.771 297.942,514.771 300,515.5C 311.174,513.889 322.007,510.389 332.5,505C 334.396,502.932 336.396,501.099 338.5,499.5C 341.455,497.878 344.122,495.878 346.5,493.5C 347.103,495.626 347.103,497.959 346.5,500.5C 345.575,517.384 342.075,533.717 336,549.5C 324.647,569.404 307.814,576.237 285.5,570C 273.63,565.129 265.463,556.629 261,544.5C 259.356,539.923 258.022,535.256 257,530.5C 256.583,529.244 255.75,528.577 254.5,528.5C 251.545,516.507 250.878,504.507 252.5,492.5 Z"/></g>
<g><path style="opacity:1" fill="#e8b5a4" d="M 338.5,499.5 C 336.396,501.099 334.396,502.932 332.5,505C 322.007,510.389 311.174,513.889 300,515.5C 297.942,514.771 296.109,513.771 294.5,512.5C 297.428,512.852 300.262,513.518 303,514.5C 315.742,511.319 327.575,506.319 338.5,499.5 Z"/></g>
<g><path style="opacity:1" fill="#e6ae9a" d="M 346.5,500.5 C 346.704,517.581 343.537,534.248 337,550.5C 325.022,570.836 307.522,577.669 284.5,571C 272.63,566.129 264.463,557.629 260,545.5C 258.313,539.739 256.48,534.073 254.5,528.5C 255.75,528.577 256.583,529.244 257,530.5C 258.022,535.256 259.356,539.923 261,544.5C 265.463,556.629 273.63,565.129 285.5,570C 307.814,576.237 324.647,569.404 336,549.5C 342.075,533.717 345.575,517.384 346.5,500.5 Z"/></g>
</svg>
