<?xml version="1.0" encoding="UTF-8"?>
<!DOCTYPE svg PUBLIC "-//W3C//DTD SVG 1.1//EN" "http://www.w3.org/Graphics/SVG/1.1/DTD/svg11.dtd">
<svg xmlns="http://www.w3.org/2000/svg" version="1.1" width="600px" height="600px" style="shape-rendering:geometricPrecision; text-rendering:geometricPrecision; image-rendering:optimizeQuality; fill-rule:evenodd; clip-rule:evenodd" xmlns:xlink="http://www.w3.org/1999/xlink">
<g><path style="opacity:0.955" fill="#030202" d="M 282.5,44.5 C 289.88,43.7931 295.714,46.4597 300,52.5C 304.83,45.3355 311.33,43.1688 319.5,46C 321.378,47.5429 322.878,49.3762 324,51.5C 324.954,55.8964 326.121,60.2297 327.5,64.5C 331.157,67.8347 335.49,69.5014 340.5,69.5C 342.109,58.0801 348.442,54.2468 359.5,58C 361.167,59 362.833,60 364.5,61C 368.066,64.5664 371.566,68.0664 375,71.5C 386.43,66.9192 397.43,67.5859 408,73.5C 411.385,78.9603 411.218,84.2937 407.5,89.5C 422.776,95.1576 438.443,96.6576 454.5,94C 465.446,91.7399 476.113,88.5732 486.5,84.5C 493.751,85.5841 497.751,89.7508 498.5,97C 497.063,102.251 495.396,107.418 493.5,112.5C 500.141,113.141 503.808,116.808 504.5,123.5C 504.373,126.387 503.373,128.887 501.5,131C 529.827,159.662 553.993,191.495 574,226.5C 582.234,244.684 582.568,263.018 575,281.5C 553.705,320.72 536.705,361.72 524,404.5C 516.101,414.931 506.268,417.097 494.5,411C 490.445,408.399 486.945,405.232 484,401.5C 482.388,407.746 479.054,412.746 474,416.5C 474.133,425.495 474.133,434.495 474,443.5C 473.428,447.142 471.928,450.309 469.5,453C 472.024,473.421 466.857,491.587 454,507.5C 448.542,513.213 442.209,514.546 435,511.5C 430.877,517.623 426.043,523.123 420.5,528C 412.499,531.916 406.166,530.083 401.5,522.5C 383.077,541.042 360.743,551.542 334.5,554C 307.775,557.596 281.108,557.263 254.5,553C 231.829,549.751 212.995,539.584 198,522.5C 193.767,530.023 187.6,532.189 179.5,529C 173.06,524.282 167.894,518.448 164,511.5C 156.053,515.24 149.386,513.573 144,506.5C 132.171,491.172 127.338,473.838 129.5,454.5C 127.49,451.132 125.99,447.465 125,443.5C 124.727,434.489 124.727,425.489 125,416.5C 119.718,413.285 116.385,408.618 115,402.5C 109.009,409.16 101.676,413.493 93,415.5C 84.4783,414.304 78.145,409.97 74,402.5C 61.8781,359.128 44.8781,317.795 23,278.5C 17,263.167 17,247.833 23,232.5C 26.553,223.726 30.8863,215.393 36,207.5C 53.8429,179.977 74.3429,154.477 97.5,131C 93.6427,125.508 93.9761,120.174 98.5,115C 100.957,113.438 103.624,112.438 106.5,112C 102.713,106.02 101.213,99.5204 102,92.5C 104.117,88.024 107.617,85.3573 112.5,84.5C 130.358,92.4386 149.025,95.9386 168.5,95C 176.632,93.967 184.632,92.3004 192.5,90C 186.698,82.9498 187.365,76.6165 194.5,71C 204.379,67.631 214.213,67.7976 224,71.5C 228.513,66.3254 233.679,61.8254 239.5,58C 250.558,54.2468 256.891,58.0801 258.5,69.5C 263.617,69.4316 268.117,67.7649 272,64.5C 272.875,59.3673 274.208,54.3673 276,49.5C 277.965,47.4497 280.132,45.783 282.5,44.5 Z"/></g>
<g><path style="opacity:1" fill="#2f2725" d="M 402.5,99.5 C 407.238,103.861 412.905,106.027 419.5,106C 424.681,107.545 429.681,109.545 434.5,112C 436.211,113.133 436.711,114.633 436,116.5C 433.782,118.182 431.949,120.182 430.5,122.5C 434.288,127.244 437.955,132.077 441.5,137C 460.318,143.346 476.651,153.513 490.5,167.5C 485.533,168.329 480.533,168.829 475.5,169C 473.066,172.716 472.899,176.549 475,180.5C 487.828,197.499 494.995,216.499 496.5,237.5C 491.956,232.229 486.289,230.396 479.5,232C 478.107,233.171 477.273,234.671 477,236.5C 476.524,242.275 477.19,247.942 479,253.5C 482.408,264.058 486.408,274.391 491,284.5C 492.034,291.367 491.367,298.033 489,304.5C 487.152,301.959 484.652,300.959 481.5,301.5C 481.662,303.527 481.495,305.527 481,307.5C 479.556,305.845 477.722,305.178 475.5,305.5C 472.84,303.503 469.84,302.003 466.5,301C 450.946,300.969 435.946,303.969 421.5,310C 417.833,311.5 414.167,313 410.5,314.5C 409.702,314.957 409.369,315.624 409.5,316.5C 371.496,279.89 326.163,265.39 273.5,273C 241.85,278.657 214.517,292.491 191.5,314.5C 176.446,309.093 161.112,304.593 145.5,301C 137.111,299.125 129.778,300.959 123.5,306.5C 121.389,305.032 119.556,305.365 118,307.5C 117.505,305.527 117.338,303.527 117.5,301.5C 114.348,300.959 111.848,301.959 110,304.5C 106.678,295.906 106.678,287.239 110,278.5C 117.272,265.36 121.272,251.36 122,236.5C 119.612,231.774 115.778,230.274 110.5,232C 107.421,233.248 104.754,235.081 102.5,237.5C 104.012,216.476 111.179,197.476 124,180.5C 126.101,176.549 125.934,172.716 123.5,169C 118.467,168.829 113.467,168.329 108.5,167.5C 115.13,160.035 122.797,153.869 131.5,149C 140.378,144.394 149.378,140.061 158.5,136C 161.848,131.323 165.181,126.656 168.5,122C 167.256,119.618 165.423,117.785 163,116.5C 162.289,114.633 162.789,113.133 164.5,112C 172.586,107.478 181.252,104.811 190.5,104C 192.898,102.476 195.231,100.976 197.5,99.5C 201.782,97.3518 205.782,94.6851 209.5,91.5C 206.973,86.8062 203.306,83.3062 198.5,81C 208.69,78.3397 218.523,79.5064 228,84.5C 232.095,79.7285 236.262,74.8952 240.5,70C 242.706,67.6537 245.206,67.1537 248,68.5C 249.778,79.1238 255.944,82.6238 266.5,79C 278.684,76.474 284.517,68.974 284,56.5C 284.667,55.8333 285.333,55.1667 286,54.5C 292.454,59.3951 296.954,65.7284 299.5,73.5C 302.057,65.6935 306.557,59.3602 313,54.5C 315.676,73.1496 326.509,81.3162 345.5,79C 349.03,76.4421 350.863,72.9421 351,68.5C 353.21,67.2512 355.376,67.4178 357.5,69C 362.071,74.2288 366.571,79.3955 371,84.5C 380.365,79.361 390.198,78.1944 400.5,81C 395.694,83.3062 392.027,86.8062 389.5,91.5C 393.356,94.9288 397.69,97.5954 402.5,99.5 Z"/></g>
<g><path style="opacity:1" fill="#3d3938" d="M 197.5,99.5 C 195.231,100.976 192.898,102.476 190.5,104C 181.252,104.811 172.586,107.478 164.5,112C 162.789,113.133 162.289,114.633 163,116.5C 165.423,117.785 167.256,119.618 168.5,122C 165.181,126.656 161.848,131.323 158.5,136C 149.378,140.061 140.378,144.394 131.5,149C 122.797,153.869 115.13,160.035 108.5,167.5C 113.467,168.329 118.467,168.829 123.5,169C 125.934,172.716 126.101,176.549 124,180.5C 111.179,197.476 104.012,216.476 102.5,237.5C 104.754,235.081 107.421,233.248 110.5,232C 115.778,230.274 119.612,231.774 122,236.5C 121.272,251.36 117.272,265.36 110,278.5C 106.678,287.239 106.678,295.906 110,304.5C 111.848,301.959 114.348,300.959 117.5,301.5C 117.338,303.527 117.505,305.527 118,307.5C 119.556,305.365 121.389,305.032 123.5,306.5C 122.427,314.677 122.427,322.844 123.5,331C 121.556,335.557 119.889,340.224 118.5,345C 119.276,347.995 120.443,350.828 122,353.5C 122,357.5 122,361.5 122,365.5C 122.414,365.043 122.914,364.709 123.5,364.5C 124.429,365.689 124.762,367.022 124.5,368.5C 119.86,377.105 114.693,385.438 109,393.5C 104.939,399.406 99.4388,403.073 92.5,404.5C 89.3703,404.352 86.8703,403.018 85,400.5C 71.7516,356.003 54.085,313.337 32,272.5C 27.9832,258.133 28.9832,244.133 35,230.5C 56.0815,194.067 81.7481,161.067 112,131.5C 112.667,130.5 112.667,129.5 112,128.5C 109.667,126.994 107.5,125.327 105.5,123.5C 111.104,121.726 116.604,119.726 122,117.5C 122.667,116.5 122.667,115.5 122,114.5C 115.89,109.614 112.39,103.281 111.5,95.5C 126.662,101.207 142.329,104.873 158.5,106.5C 171.766,105.558 184.766,103.224 197.5,99.5 Z"/></g>
<g><path style="opacity:1" fill="#3d3938" d="M 474.5,367.5 C 474.5,366.5 474.5,365.5 474.5,364.5C 475.5,364.5 476.5,364.5 477.5,364.5C 476.81,360.51 476.643,356.51 477,352.5C 481.187,346.124 480.854,339.791 476,333.5C 475.5,324.173 475.334,314.839 475.5,305.5C 477.722,305.178 479.556,305.845 481,307.5C 481.495,305.527 481.662,303.527 481.5,301.5C 484.652,300.959 487.152,301.959 489,304.5C 491.367,298.033 492.034,291.367 491,284.5C 486.408,274.391 482.408,264.058 479,253.5C 477.19,247.942 476.524,242.275 477,236.5C 477.273,234.671 478.107,233.171 479.5,232C 486.289,230.396 491.956,232.229 496.5,237.5C 494.995,216.499 487.828,197.499 475,180.5C 472.899,176.549 473.066,172.716 475.5,169C 480.533,168.829 485.533,168.329 490.5,167.5C 476.651,153.513 460.318,143.346 441.5,137C 437.955,132.077 434.288,127.244 430.5,122.5C 431.949,120.182 433.782,118.182 436,116.5C 436.711,114.633 436.211,113.133 434.5,112C 429.681,109.545 424.681,107.545 419.5,106C 412.905,106.027 407.238,103.861 402.5,99.5C 414.368,103.173 426.535,105.506 439,106.5C 455.638,104.798 471.804,101.132 487.5,95.5C 486.324,103.685 482.658,110.519 476.5,116C 477.5,117 478.5,118 479.5,119C 484.557,120.347 489.557,121.847 494.5,123.5C 491.914,125.043 489.414,126.709 487,128.5C 486.333,129.5 486.333,130.5 487,131.5C 514.391,157.548 538.057,186.548 558,218.5C 570.934,238.111 572.934,258.778 564,280.5C 543.039,318.716 526.373,358.716 514,400.5C 511.934,402.97 509.267,404.304 506,404.5C 498.883,402.103 493.217,397.77 489,391.5C 483.89,383.603 479.056,375.603 474.5,367.5 Z"/></g>
<g><path style="opacity:1" fill="#c46a1e" d="M 355.5,161.5 C 358.572,161.183 361.572,161.516 364.5,162.5C 361.227,165.047 359.56,168.38 359.5,172.5C 367.087,169.472 374.92,167.139 383,165.5C 384.662,165.388 385.829,166.054 386.5,167.5C 384.816,170.612 384.15,173.946 384.5,177.5C 391.508,177.334 398.508,177.5 405.5,178C 407.833,179 410.167,180 412.5,181C 410.003,181.412 408.003,182.578 406.5,184.5C 411.151,186.491 415.484,188.991 419.5,192C 421.607,193.264 422.607,195.097 422.5,197.5C 420.143,197.337 417.81,197.503 415.5,198C 422.294,203.435 425.961,210.268 426.5,218.5C 402.931,204.977 378.265,202.477 352.5,211C 342.668,214.341 336.501,211.175 334,201.5C 332.051,183.054 339.218,169.721 355.5,161.5 Z"/></g>
<g><path style="opacity:1" fill="#c46a1e" d="M 234.5,161.5 C 249.626,162.102 259.46,169.769 264,184.5C 265.954,191.514 265.954,198.514 264,205.5C 263.215,207.286 262.049,208.786 260.5,210C 255.953,211.545 251.287,211.879 246.5,211C 228.99,205.089 211.323,204.422 193.5,209C 186.056,212.066 178.723,215.066 171.5,218C 173.708,210.249 177.708,203.582 183.5,198C 181.1,197.814 178.766,197.314 176.5,196.5C 180.513,190.313 186.179,186.313 193.5,184.5C 191.664,183.081 189.664,181.914 187.5,181C 189.221,179.473 191.221,178.473 193.5,178C 200.492,177.5 207.492,177.334 214.5,177.5C 214.85,173.946 214.184,170.612 212.5,167.5C 215.784,166.343 219.118,166.176 222.5,167C 228.188,168.848 233.855,170.682 239.5,172.5C 239.657,171.127 239.49,169.793 239,168.5C 237.479,166.11 235.979,163.777 234.5,161.5 Z"/></g>
<g><path style="opacity:1" fill="#7a5341" d="M 219.5,214.5 C 244.363,213.196 255.863,224.862 254,249.5C 248.946,264.542 238.446,271.709 222.5,271C 204.335,266.145 196.502,254.312 199,235.5C 202.685,225.316 209.519,218.316 219.5,214.5 Z"/></g>
<g><path style="opacity:1" fill="#795341" d="M 365.5,214.5 C 390.363,213.196 401.863,224.862 400,249.5C 394.938,264.553 384.438,271.719 368.5,271C 356.216,268.716 348.382,261.549 345,249.5C 342.604,232.277 349.437,220.611 365.5,214.5 Z"/></g>
<g><path style="opacity:1" fill="#020101" d="M 221.5,223.5 C 242.142,223.774 249.309,233.774 243,253.5C 234.697,262.319 225.197,263.819 214.5,258C 204.639,246.626 205.305,235.959 216.5,226C 218.315,225.243 219.981,224.41 221.5,223.5 Z"/></g>
<g><path style="opacity:1" fill="#010000" d="M 380.5,228.5 C 377.872,229.625 377.039,231.625 378,234.5C 380.621,237.14 383.121,237.14 385.5,234.5C 386.29,233.391 386.79,232.058 387,230.5C 391.674,236.539 392.674,243.206 390,250.5C 385.171,259.496 377.671,262.996 367.5,261C 355.165,256.16 350.999,247.327 355,234.5C 362.082,223.031 371.582,220.531 383.5,227C 382.263,227.232 381.263,227.732 380.5,228.5 Z"/></g>
<g><path style="opacity:1" fill="#efefef" d="M 231.5,228.5 C 238.158,227.344 240.158,229.844 237.5,236C 230.75,237.469 228.75,234.969 231.5,228.5 Z"/></g>
<g><path style="opacity:1" fill="#f3f3f3" d="M 380.5,228.5 C 384.908,228.062 386.575,230.062 385.5,234.5C 383.121,237.14 380.621,237.14 378,234.5C 377.039,231.625 377.872,229.625 380.5,228.5 Z"/></g>
<g><path style="opacity:1" fill="#f4f4f4" d="M 393.5,514.5 C 392.018,506.859 388.851,499.859 384,493.5C 377.165,528.24 371.165,527.906 366,492.5C 364.985,482.191 364.319,471.857 364,461.5C 358.634,467.9 355.134,475.234 353.5,483.5C 352.998,484.521 352.332,484.688 351.5,484C 350.915,482.698 350.249,481.531 349.5,480.5C 345.99,468.438 344.324,456.104 344.5,443.5C 331.893,442.131 319.893,438.631 308.5,433C 301.798,428.599 300.798,423.099 305.5,416.5C 320.759,412.792 333.592,405.125 344,393.5C 357.413,366.825 349.58,349.992 320.5,343C 303.674,340.493 287.007,341.16 270.5,345C 254.375,350.417 247.208,361.584 249,378.5C 252.36,391.864 260.193,401.697 272.5,408C 279.283,411.393 286.283,414.226 293.5,416.5C 297.68,421.909 297.347,427.076 292.5,432C 280.766,437.849 268.433,441.682 255.5,443.5C 255.174,456.782 253.174,469.782 249.5,482.5C 248.533,483.806 247.199,484.473 245.5,484.5C 243.726,475.951 240.559,467.951 236,460.5C 235.803,471.911 234.803,483.245 233,494.5C 231.875,502.411 229.875,510.077 227,517.5C 225.759,519.421 224.259,519.754 222.5,518.5C 219.228,510.413 216.728,502.08 215,493.5C 210.139,499.878 206.972,506.878 205.5,514.5C 201.691,509.567 198.358,504.234 195.5,498.5C 192.337,501.106 190.17,504.439 189,508.5C 189.986,521.978 186.319,523.644 178,513.5C 169.671,501.53 165.671,488.197 166,473.5C 164.08,476.339 162.413,479.339 161,482.5C 160.034,489.365 159.2,496.198 158.5,503C 157.5,503.667 156.5,503.667 155.5,503C 143.943,491.49 138.61,477.49 139.5,461C 141.017,404.738 160.684,356.071 198.5,315C 255.111,268.551 315.444,263.218 379.5,299C 401.922,313.681 419.422,332.848 432,356.5C 452.82,394.268 461.486,434.601 458,477.5C 455.705,486.927 451.205,495.094 444.5,502C 443.207,502.49 441.873,502.657 440.5,502.5C 441.612,491.548 439.112,481.548 433,472.5C 433.46,490.463 427.627,505.963 415.5,519C 414.207,519.49 412.873,519.657 411.5,519.5C 412.186,510.886 409.519,503.553 403.5,497.5C 400.915,503.679 397.582,509.346 393.5,514.5 Z"/></g>
<g><path style="opacity:1" fill="#c56b1d" d="M 191.5,314.5 C 160.633,348.917 142.133,389.25 136,435.5C 136.435,423.85 136.435,412.183 136,400.5C 135.667,399.5 135.333,398.5 135,397.5C 132.661,400.176 130.828,403.176 129.5,406.5C 127.854,405.221 126.687,403.555 126,401.5C 122.155,391.491 121.989,381.491 125.5,371.5C 125.315,370.416 124.982,369.416 124.5,368.5C 124.762,367.022 124.429,365.689 123.5,364.5C 122.914,364.709 122.414,365.043 122,365.5C 122,361.5 122,357.5 122,353.5C 120.443,350.828 119.276,347.995 118.5,345C 119.889,340.224 121.556,335.557 123.5,331C 122.427,322.844 122.427,314.677 123.5,306.5C 129.778,300.959 137.111,299.125 145.5,301C 161.112,304.593 176.446,309.093 191.5,314.5 Z"/></g>
<g><path style="opacity:1" fill="#c56b1d" d="M 475.5,305.5 C 475.334,314.839 475.5,324.173 476,333.5C 480.854,339.791 481.187,346.124 477,352.5C 476.643,356.51 476.81,360.51 477.5,364.5C 476.5,364.5 475.5,364.5 474.5,364.5C 474.5,365.5 474.5,366.5 474.5,367.5C 473.751,372.727 474.417,377.894 476.5,383C 475.781,388.916 474.614,394.749 473,400.5C 470.14,408.387 467.807,408.054 466,399.5C 465.147,397.875 464.147,397.542 463,398.5C 462.468,410.526 462.468,422.526 463,434.5C 457.18,389.469 439.347,350.136 409.5,316.5C 409.369,315.624 409.702,314.957 410.5,314.5C 414.167,313 417.833,311.5 421.5,310C 435.946,303.969 450.946,300.969 466.5,301C 469.84,302.003 472.84,303.503 475.5,305.5 Z"/></g>
<g><path style="opacity:1" fill="#030202" d="M 349.5,480.5 C 346.536,498.296 336.536,510.129 319.5,516C 299.196,522.831 280.529,519.831 263.5,507C 256.867,499.895 252.201,491.728 249.5,482.5C 253.174,469.782 255.174,456.782 255.5,443.5C 268.433,441.682 280.766,437.849 292.5,432C 297.347,427.076 297.68,421.909 293.5,416.5C 286.283,414.226 279.283,411.393 272.5,408C 260.193,401.697 252.36,391.864 249,378.5C 247.208,361.584 254.375,350.417 270.5,345C 287.007,341.16 303.674,340.493 320.5,343C 349.58,349.992 357.413,366.825 344,393.5C 333.592,405.125 320.759,412.792 305.5,416.5C 300.798,423.099 301.798,428.599 308.5,433C 319.893,438.631 331.893,442.131 344.5,443.5C 344.324,456.104 345.99,468.438 349.5,480.5 Z"/></g>
<g><path style="opacity:1" fill="#e59597" d="M 326.5,503.5 C 326.141,501.629 325.141,500.129 323.5,499C 302.379,482.881 281.546,466.381 261,449.5C 260.817,452.365 260.317,455.031 259.5,457.5C 259.5,454.167 259.5,450.833 259.5,447.5C 274.35,445.941 287.85,440.941 300,432.5C 304.593,437.151 310.093,440.318 316.5,442C 323.868,445.18 331.535,447.014 339.5,447.5C 339.352,455.237 340.018,462.903 341.5,470.5C 340.517,483.457 335.517,494.457 326.5,503.5 Z"/></g>
<g><path style="opacity:1" fill="#ef9b9e" d="M 326.5,503.5 C 318.94,510.02 310.106,513.02 300,512.5C 279.292,512.471 265.958,502.471 260,482.5C 259.009,478.868 258.175,475.201 257.5,471.5C 258.385,466.855 259.052,462.189 259.5,457.5C 260.317,455.031 260.817,452.365 261,449.5C 281.546,466.381 302.379,482.881 323.5,499C 325.141,500.129 326.141,501.629 326.5,503.5 Z"/></g>
<g><path style="opacity:1" fill="#dbdbdb" d="M 249.5,482.5 C 252.201,491.728 256.867,499.895 263.5,507C 280.529,519.831 299.196,522.831 319.5,516C 336.536,510.129 346.536,498.296 349.5,480.5C 350.249,481.531 350.915,482.698 351.5,484C 352.332,484.688 352.998,484.521 353.5,483.5C 355.134,475.234 358.634,467.9 364,461.5C 364.319,471.857 364.985,482.191 366,492.5C 371.165,527.906 377.165,528.24 384,493.5C 388.851,499.859 392.018,506.859 393.5,514.5C 383.13,526.694 370.13,534.86 354.5,539C 323.424,546.002 292.091,547.336 260.5,543C 238.16,540.833 219.827,531.333 205.5,514.5C 206.972,506.878 210.139,499.878 215,493.5C 216.728,502.08 219.228,510.413 222.5,518.5C 224.259,519.754 225.759,519.421 227,517.5C 229.875,510.077 231.875,502.411 233,494.5C 234.803,483.245 235.803,471.911 236,460.5C 240.559,467.951 243.726,475.951 245.5,484.5C 247.199,484.473 248.533,483.806 249.5,482.5 Z"/></g>
</svg>
