<?xml version="1.0" encoding="UTF-8"?>
<!DOCTYPE svg PUBLIC "-//W3C//DTD SVG 1.1//EN" "http://www.w3.org/Graphics/SVG/1.1/DTD/svg11.dtd">
<svg xmlns="http://www.w3.org/2000/svg" version="1.1" width="600px" height="600px" style="shape-rendering:geometricPrecision; text-rendering:geometricPrecision; image-rendering:optimizeQuality; fill-rule:evenodd; clip-rule:evenodd" xmlns:xlink="http://www.w3.org/1999/xlink">
<g><path style="opacity:0.953" fill="#020101" d="M 280.5,4.5 C 322.415,1.98934 363.081,7.82267 402.5,22C 414.156,27.8264 425.49,34.1597 436.5,41C 447.757,41.5295 457.924,45.0295 467,51.5C 481.693,49.3022 496.193,46.3022 510.5,42.5C 509.651,50.1903 506.151,56.5237 500,61.5C 499.333,62.5 499.333,63.5 500,64.5C 504.43,65.8242 508.93,66.9909 513.5,68C 516.644,68.9187 517.644,70.7521 516.5,73.5C 514.358,74.6005 512.192,75.6005 510,76.5C 509.333,77.5 509.333,78.5 510,79.5C 542.345,110.91 569.345,146.243 591,185.5C 597.234,201.314 596.901,216.981 590,232.5C 568.186,272.269 550.852,313.935 538,357.5C 532.695,363.368 526.862,363.868 520.5,359C 516.298,355.133 512.465,350.967 509,346.5C 509.116,378.135 504.783,409.135 496,439.5C 488.589,455.997 478.923,470.997 467,484.5C 461.126,490.043 454.959,495.21 448.5,500C 446.888,500.72 445.388,500.554 444,499.5C 443.599,495.256 444.099,491.089 445.5,487C 445.333,486.167 445.167,485.333 445,484.5C 444.25,485.126 443.416,485.626 442.5,486C 433.21,499.413 424.043,512.913 415,526.5C 408.386,534.121 400.886,540.621 392.5,546C 390.527,546.495 388.527,546.662 386.5,546.5C 387.097,542.168 387.263,537.835 387,533.5C 380.286,541.212 373.953,549.212 368,557.5C 358.801,566.521 348.301,573.687 336.5,579C 324.122,583.789 311.955,588.955 300,594.5C 288.758,589.085 277.258,584.252 265.5,580C 244.001,571.167 227.501,556.667 216,536.5C 214.846,535.257 213.512,534.257 212,533.5C 211.779,536.904 212.279,540.238 213.5,543.5C 212.278,546.089 210.278,546.923 207.5,546C 197.801,540.638 189.634,533.471 183,524.5C 174.947,511.117 166.114,498.283 156.5,486C 156.167,485.833 155.833,485.667 155.5,485.5C 155.167,486.5 154.833,487.5 154.5,488.5C 155.274,492.465 155.607,496.465 155.5,500.5C 152.072,500.453 149.072,499.287 146.5,497C 134.354,487.178 124.188,475.678 116,462.5C 111.906,454.639 107.573,446.973 103,439.5C 94.5593,409.082 90.226,378.082 90,346.5C 85.6754,354.831 79.0087,360.164 70,362.5C 64.5243,361.689 60.8576,358.689 59,353.5C 52.9266,330.613 45.26,308.28 36,286.5C 26.8622,266.225 17.1955,246.225 7,226.5C 3.0105,215.261 2.67716,203.927 6,192.5C 8.58798,183.992 12.2546,175.992 17,168.5C 38.0909,135.724 62.5909,105.558 90.5,78C 88.6234,75.8942 86.29,74.5609 83.5,74C 80.9364,71.724 81.2697,69.724 84.5,68C 89.3762,66.8839 94.2096,65.7172 99,64.5C 99.6667,63.5 99.6667,62.5 99,61.5C 94.8906,57.3902 91.5573,52.7235 89,47.5C 88.2571,45.5594 88.4238,43.7261 89.5,42C 103.669,46.0626 118.169,49.2292 133,51.5C 141.923,45.6353 151.757,42.1353 162.5,41C 186.655,24.2629 213.321,13.5963 242.5,9C 255.271,7.08214 267.937,5.58214 280.5,4.5 Z"/></g>
<g><path style="opacity:1" fill="#2e2624" d="M 302.5,15.5 C 302.831,37.0065 302.497,58.3399 301.5,79.5C 301.667,60.1638 301.5,40.8305 301,21.5C 301.266,18.0992 299.766,16.4326 296.5,16.5C 296.064,47.5094 294.897,78.5094 293,109.5C 292.105,119.56 290.771,129.56 289,139.5C 288.667,138.833 288.333,138.167 288,137.5C 286.772,151.426 283.772,165.092 279,178.5C 277.933,179.943 276.766,181.276 275.5,182.5C 275.833,183.167 276.167,183.833 276.5,184.5C 266.986,207.063 252.986,226.23 234.5,242C 220.808,250.689 208.641,261.189 198,273.5C 196.66,276.202 195.327,278.869 194,281.5C 193.354,287.08 192.188,292.414 190.5,297.5C 187.752,294.952 184.419,293.118 180.5,292C 170.56,288.798 160.56,285.798 150.5,283C 143.833,282.333 137.167,282.333 130.5,283C 115.562,290.771 104.562,302.271 97.5,317.5C 95.9891,315.524 95.1558,313.191 95,310.5C 94.586,310.957 94.086,311.291 93.5,311.5C 92.3972,308.361 92.3972,305.194 93.5,302C 92.0217,298.212 90.6884,294.378 89.5,290.5C 90.4349,286.626 91.9349,282.96 94,279.5C 94.4998,270.173 94.6665,260.839 94.5,251.5C 91.6755,251.919 89.5088,250.919 88,248.5C 85.5991,249.602 83.0991,249.769 80.5,249C 79.9032,247.938 79.5698,246.772 79.5,245.5C 84.7236,226.664 89.2236,207.664 93,188.5C 93.9956,183.771 93.4956,179.271 91.5,175C 90.1268,174.125 88.6268,173.625 87,173.5C 82.7203,175.609 78.5537,177.942 74.5,180.5C 71.2896,179.601 69.6229,177.434 69.5,174C 70.6628,166.845 72.8294,160.012 76,153.5C 82.1737,141.146 88.8403,129.146 96,117.5C 96.9782,114.331 96.4782,111.497 94.5,109C 90.9877,109.05 87.4877,109.55 84,110.5C 79.7074,109.805 78.5407,107.472 80.5,103.5C 81.8333,101.5 83.5,99.8333 85.5,98.5C 100.446,90.6923 115.446,82.859 130.5,75C 134.411,69.936 138.078,64.7693 141.5,59.5C 143.428,57.5259 145.761,56.0259 148.5,55C 155.223,53.5464 161.89,51.8797 168.5,50C 198.599,29.4669 231.933,18.1336 268.5,16C 279.828,15.5001 291.162,15.3335 302.5,15.5 Z"/></g>
<g><path style="opacity:1" fill="#2e2624" d="M 302.5,15.5 C 349.811,13.3245 393.144,25.1578 432.5,51C 439.985,52.0301 447.318,53.6968 454.5,56C 456.66,56.9959 458.327,58.4959 459.5,60.5C 458.475,60.8966 458.308,61.5632 459,62.5C 462.5,66.6667 466,70.8333 469.5,75C 483.397,82.4481 497.397,89.6148 511.5,96.5C 515.5,99.8333 519.167,103.5 522.5,107.5C 521.209,109.315 519.376,110.315 517,110.5C 512.52,109.568 508.02,109.401 503.5,110C 502.941,110.725 502.608,111.558 502.5,112.5C 512.055,129.612 520.555,147.279 528,165.5C 528.667,169.5 528.667,173.5 528,177.5C 527.612,178.428 526.945,179.095 526,179.5C 511.511,171.012 505.178,175.012 507,191.5C 508.808,197.732 510.141,204.065 511,210.5C 516.385,222.302 519.051,234.636 519,247.5C 516.925,249.648 514.592,249.982 512,248.5C 510.412,251.309 508.245,251.975 505.5,250.5C 504.335,259.482 504.168,268.482 505,277.5C 507.532,281.728 509.365,286.228 510.5,291C 509.755,293.992 508.588,296.826 507,299.5C 506.63,302.338 506.797,305.171 507.5,308C 507.167,309.167 506.833,310.333 506.5,311.5C 505.914,311.291 505.414,310.957 505,310.5C 504.823,314.356 504.323,318.023 503.5,321.5C 496.525,304.36 484.858,291.527 468.5,283C 461.833,282.333 455.167,282.333 448.5,283C 434.913,286.474 421.58,290.641 408.5,295.5C 408.5,297.5 408.5,299.5 408.5,301.5C 405.701,283.403 397.701,267.903 384.5,255C 375.44,248.275 366.107,241.942 356.5,236C 341.148,222.484 329.314,206.317 321,187.5C 315.385,171.821 310.885,155.821 307.5,139.5C 307.996,137.529 308.33,135.529 308.5,133.5C 307.959,128.263 306.792,123.93 305,120.5C 303.738,106.825 302.571,93.1587 301.5,79.5C 302.497,58.3399 302.831,37.0065 302.5,15.5 Z"/></g>
<g><path style="opacity:1" fill="#070707" d="M 301.5,79.5 C 302.571,93.1587 303.738,106.825 305,120.5C 306.792,123.93 307.959,128.263 308.5,133.5C 308.33,135.529 307.996,137.529 307.5,139.5C 310.885,155.821 315.385,171.821 321,187.5C 329.314,206.317 341.148,222.484 356.5,236C 366.107,241.942 375.44,248.275 384.5,255C 397.701,267.903 405.701,283.403 408.5,301.5C 410.47,314.744 410.97,328.078 410,341.5C 409.79,343.058 409.29,344.391 408.5,345.5C 406.928,348.215 405.928,351.215 405.5,354.5C 404.662,354.842 404.328,355.508 404.5,356.5C 399.629,364.38 393.963,371.714 387.5,378.5C 384.759,379.439 382.759,381.273 381.5,384C 376.706,385.566 372.039,387.399 367.5,389.5C 364.933,389.721 362.599,390.388 360.5,391.5C 360.5,392.833 360.5,394.167 360.5,395.5C 357.315,408.891 353.481,422.224 349,435.5C 337.428,465.206 315.928,476.373 284.5,469C 267.625,463.124 256.459,451.624 251,434.5C 246.367,421.616 242.534,408.616 239.5,395.5C 239.822,393.278 239.155,391.444 237.5,390C 220.962,385.264 207.629,376.097 197.5,362.5C 196.416,359.996 195.083,357.663 193.5,355.5C 190.552,345.753 188.885,335.753 188.5,325.5C 189.217,316.297 189.884,306.963 190.5,297.5C 192.188,292.414 193.354,287.08 194,281.5C 195.327,278.869 196.66,276.202 198,273.5C 208.641,261.189 220.808,250.689 234.5,242C 252.986,226.23 266.986,207.063 276.5,184.5C 276.167,183.833 275.833,183.167 275.5,182.5C 276.766,181.276 277.933,179.943 279,178.5C 283.772,165.092 286.772,151.426 288,137.5C 288.333,138.167 288.667,138.833 289,139.5C 290.771,129.56 292.105,119.56 293,109.5C 294.897,78.5094 296.064,47.5094 296.5,16.5C 299.766,16.4326 301.266,18.0992 301,21.5C 301.5,40.8305 301.667,60.1638 301.5,79.5 Z"/></g>
<g><path style="opacity:1" fill="#3d3938" d="M 141.5,59.5 C 138.078,64.7693 134.411,69.936 130.5,75C 115.446,82.859 100.446,90.6923 85.5,98.5C 89.4632,94.0355 93.6298,89.7022 98,85.5C 99.308,82.2698 100.308,78.9364 101,75.5C 109.079,72.4197 111.912,66.753 109.5,58.5C 117.869,58.5893 126.036,59.9227 134,62.5C 136.648,61.7858 139.148,60.7858 141.5,59.5 Z"/></g>
<g><path style="opacity:1" fill="#3c3837" d="M 511.5,96.5 C 497.397,89.6148 483.397,82.4481 469.5,75C 466,70.8333 462.5,66.6667 459,62.5C 458.308,61.5632 458.475,60.8966 459.5,60.5C 461.783,61.0293 464.117,61.3626 466.5,61.5C 474.16,60.3672 481.827,59.3672 489.5,58.5C 487.536,66.5728 490.37,72.2395 498,75.5C 498.692,78.9364 499.692,82.2698 501,85.5C 504.704,89.0357 508.204,92.7024 511.5,96.5 Z"/></g>
<g><path style="opacity:1" fill="#b88a45" d="M 213.5,102.5 C 229.918,101.63 241.751,108.63 249,123.5C 252.365,138.475 247.199,142.642 233.5,136C 226.476,135.146 219.476,134.146 212.5,133C 197.953,128.058 195.62,119.725 205.5,108C 208.07,105.913 210.737,104.08 213.5,102.5 Z"/></g>
<g><path style="opacity:1" fill="#575757" d="M 299.5,109.5 C 298.833,108.833 298.167,108.167 297.5,107.5C 297.335,104.15 297.502,100.817 298,97.5C 299.354,101.363 299.854,105.363 299.5,109.5 Z"/></g>
<g><path style="opacity:1" fill="#b88945" d="M 372.5,102.5 C 384.487,100.577 393.32,104.911 399,115.5C 400.658,125.319 396.491,131.152 386.5,133C 379.2,134.219 371.867,135.219 364.5,136C 356.17,142.052 350.837,140.219 348.5,130.5C 351.852,117.151 359.852,107.817 372.5,102.5 Z"/></g>
<g><path style="opacity:1" fill="#3d3938" d="M 80.5,103.5 C 78.5407,107.472 79.7074,109.805 84,110.5C 87.4877,109.55 90.9877,109.05 94.5,109C 96.4782,111.497 96.9782,114.331 96,117.5C 88.8403,129.146 82.1737,141.146 76,153.5C 72.8294,160.012 70.6628,166.845 69.5,174C 69.6229,177.434 71.2896,179.601 74.5,180.5C 78.5537,177.942 82.7203,175.609 87,173.5C 88.6268,173.625 90.1268,174.125 91.5,175C 93.4956,179.271 93.9956,183.771 93,188.5C 89.2236,207.664 84.7236,226.664 79.5,245.5C 79.5698,246.772 79.9032,247.938 80.5,249C 83.0991,249.769 85.5991,249.602 88,248.5C 89.5088,250.919 91.6755,251.919 94.5,251.5C 94.6665,260.839 94.4998,270.173 94,279.5C 91.9349,282.96 90.4349,286.626 89.5,290.5C 90.6884,294.378 92.0217,298.212 93.5,302C 92.3972,305.194 92.3972,308.361 93.5,311.5C 94.086,311.291 94.586,310.957 95,310.5C 95.1558,313.191 95.9891,315.524 97.5,317.5C 94.8283,322.851 93.1616,328.517 92.5,334.5C 90.0733,334.523 87.74,335.023 85.5,336C 81.5,340.667 77.5,345.333 73.5,350C 72.1233,351.241 70.79,351.408 69.5,350.5C 57.1191,306.856 39.9524,265.189 18,225.5C 13.4139,213.477 13.4139,201.477 18,189.5C 28.1722,170.478 39.8388,152.478 53,135.5C 61.6574,124.347 70.824,113.68 80.5,103.5 Z"/></g>
<g><path style="opacity:1" fill="#3d3938" d="M 522.5,107.5 C 542.728,130.238 560.895,154.571 577,180.5C 584.146,192.225 586.479,204.892 584,218.5C 573.743,239.348 563.743,260.348 554,281.5C 544.585,303.998 536.585,326.998 530,350.5C 529.282,351.451 528.449,351.617 527.5,351C 522.088,346.259 517.421,340.926 513.5,335C 511.187,334.338 508.854,333.838 506.5,333.5C 506.122,329.322 505.122,325.322 503.5,321.5C 504.323,318.023 504.823,314.356 505,310.5C 505.414,310.957 505.914,311.291 506.5,311.5C 506.833,310.333 507.167,309.167 507.5,308C 506.797,305.171 506.63,302.338 507,299.5C 508.588,296.826 509.755,293.992 510.5,291C 509.365,286.228 507.532,281.728 505,277.5C 504.168,268.482 504.335,259.482 505.5,250.5C 508.245,251.975 510.412,251.309 512,248.5C 514.592,249.982 516.925,249.648 519,247.5C 519.051,234.636 516.385,222.302 511,210.5C 510.141,204.065 508.808,197.732 507,191.5C 505.178,175.012 511.511,171.012 526,179.5C 526.945,179.095 527.612,178.428 528,177.5C 528.667,173.5 528.667,169.5 528,165.5C 520.555,147.279 512.055,129.612 502.5,112.5C 502.608,111.558 502.941,110.725 503.5,110C 508.02,109.401 512.52,109.568 517,110.5C 519.376,110.315 521.209,109.315 522.5,107.5 Z"/></g>
<g><path style="opacity:1" fill="#f3f3f3" d="M 297.5,107.5 C 298.167,108.167 298.833,108.833 299.5,109.5C 301.73,136.147 307.23,162.147 316,187.5C 323.656,206.145 334.822,222.311 349.5,236C 358.892,243.057 368.558,249.724 378.5,256C 387.28,262.712 393.78,271.212 398,281.5C 406.262,303.804 407.596,326.47 402,349.5C 394.112,367.884 380.612,380.218 361.5,386.5C 354.142,386.831 346.809,385.998 339.5,384C 328.041,377.528 316.375,371.528 304.5,366C 299.079,365.161 293.746,365.494 288.5,367C 278.292,373.938 267.625,380.105 256.5,385.5C 232.508,386.754 213.674,377.421 200,357.5C 193.801,342.438 191.801,326.772 194,310.5C 192.987,291.975 199.153,276.475 212.5,264C 226.54,254.3 239.706,243.467 252,231.5C 271.258,209.985 283.925,184.985 290,156.5C 293.776,140.344 296.276,124.011 297.5,107.5 Z"/></g>
<g><path style="opacity:1" fill="#3d3938" d="M 204.5,142.5 C 222.735,140.694 234.902,148.36 241,165.5C 242.645,191.521 230.478,204.021 204.5,203C 186.95,197.064 179.117,184.897 181,166.5C 184.358,153.977 192.191,145.977 204.5,142.5 Z"/></g>
<g><path style="opacity:1" fill="#3d3938" d="M 380.5,142.5 C 406.518,141.352 419.018,153.685 418,179.5C 412.158,197.012 399.991,204.845 381.5,203C 363.658,196.823 355.825,184.323 358,165.5C 361.684,153.984 369.184,146.317 380.5,142.5 Z"/></g>
<g><path style="opacity:1" fill="#010101" d="M 205.5,152.5 C 227.232,152.391 235.065,162.724 229,183.5C 217.765,196.454 206.098,196.787 194,184.5C 187.437,169.979 191.27,159.313 205.5,152.5 Z"/></g>
<g><path style="opacity:1" fill="#010101" d="M 382.5,152.5 C 400.49,151.324 408.99,159.657 408,177.5C 401.937,192.61 391.437,196.776 376.5,190C 365.888,180.164 364.888,169.497 373.5,158C 376.263,155.626 379.263,153.792 382.5,152.5 Z"/></g>
<g><path style="opacity:1" fill="#ebebeb" d="M 215.5,159.5 C 224.274,159.408 226.274,162.908 221.5,170C 216.608,171.69 213.608,170.023 212.5,165C 213.124,162.915 214.124,161.082 215.5,159.5 Z"/></g>
<g><path style="opacity:1" fill="#efefef" d="M 391.5,159.5 C 398.163,158.333 400.997,160.999 400,167.5C 397.162,171.035 393.995,171.368 390.5,168.5C 388.992,165.231 389.325,162.231 391.5,159.5 Z"/></g>
<g><path style="opacity:1" fill="#010101" d="M 285.5,250.5 C 301.429,249.547 317.096,251.047 332.5,255C 357.91,263.653 366.41,280.82 358,306.5C 347.413,325.732 331.247,337.566 309.5,342C 282.907,344.122 261.407,334.622 245,313.5C 231.619,287.928 237.786,268.761 263.5,256C 270.776,253.456 278.109,251.623 285.5,250.5 Z"/></g>
<g><path style="opacity:1" fill="#ba8b45" d="M 190.5,297.5 C 188.528,306.44 187.861,315.773 188.5,325.5C 188.885,335.753 190.552,345.753 193.5,355.5C 193.555,358.614 194.888,360.948 197.5,362.5C 207.629,376.097 220.962,385.264 237.5,390C 239.155,391.444 239.822,393.278 239.5,395.5C 229.234,393.684 218.901,392.351 208.5,391.5C 194.809,391.786 182.475,395.952 171.5,404C 161.84,413.324 151.84,422.324 141.5,431C 134.206,436.126 126.539,440.626 118.5,444.5C 114.247,439.277 111.414,433.277 110,426.5C 103.519,399.234 100.519,371.567 101,343.5C 100.019,338.687 97.1855,335.687 92.5,334.5C 93.1616,328.517 94.8283,322.851 97.5,317.5C 104.562,302.271 115.562,290.771 130.5,283C 137.167,282.333 143.833,282.333 150.5,283C 160.56,285.798 170.56,288.798 180.5,292C 184.419,293.118 187.752,294.952 190.5,297.5 Z"/></g>
<g><path style="opacity:1" fill="#ba8b45" d="M 503.5,321.5 C 505.122,325.322 506.122,329.322 506.5,333.5C 501.594,334.931 498.761,338.264 498,343.5C 497.819,359.192 497.153,374.859 496,390.5C 493.611,404.221 490.945,417.888 488,431.5C 486.598,435.975 484.431,439.975 481.5,443.5C 473.564,440.399 466.231,436.232 459.5,431C 449.865,422.703 440.198,414.37 430.5,406C 416.106,393.536 399.439,388.536 380.5,391C 373.832,392.614 367.165,394.114 360.5,395.5C 360.5,394.167 360.5,392.833 360.5,391.5C 363.228,391.829 365.562,391.163 367.5,389.5C 372.039,387.399 376.706,385.566 381.5,384C 382.759,381.273 384.759,379.439 387.5,378.5C 392.792,374.71 397.625,370.376 402,365.5C 403.903,362.829 404.736,359.829 404.5,356.5C 404.328,355.508 404.662,354.842 405.5,354.5C 407.554,351.992 408.554,348.992 408.5,345.5C 409.29,344.391 409.79,343.058 410,341.5C 410.97,328.078 410.47,314.744 408.5,301.5C 408.5,299.5 408.5,297.5 408.5,295.5C 421.58,290.641 434.913,286.474 448.5,283C 455.167,282.333 461.833,282.333 468.5,283C 484.858,291.527 496.525,304.36 503.5,321.5 Z"/></g>
<g><path style="opacity:1" fill="#775b32" d="M 190.5,297.5 C 189.884,306.963 189.217,316.297 188.5,325.5C 187.861,315.773 188.528,306.44 190.5,297.5 Z"/></g>
<g><path style="opacity:1" fill="#514d4c" d="M 220.5,304.5 C 225.493,304.997 226.493,307.164 223.5,311C 218.382,310.824 217.382,308.658 220.5,304.5 Z"/></g>
<g><path style="opacity:1" fill="#524e4d" d="M 375.5,304.5 C 379.935,304.752 381.268,306.919 379.5,311C 374.57,311.427 373.237,309.26 375.5,304.5 Z"/></g>
<g><path style="opacity:1" fill="#524e4d" d="M 236.5,319.5 C 240.677,318.842 242.177,320.508 241,324.5C 239.688,326.658 238.022,326.991 236,325.5C 235.322,323.402 235.489,321.402 236.5,319.5 Z"/></g>
<g><path style="opacity:1" fill="#4c4947" d="M 359.5,319.5 C 364.493,319.997 365.493,322.164 362.5,326C 357.382,325.824 356.382,323.658 359.5,319.5 Z"/></g>
<g><path style="opacity:1" fill="#514d4c" d="M 216.5,334.5 C 221.493,334.997 222.493,337.164 219.5,341C 214.382,340.824 213.382,338.658 216.5,334.5 Z"/></g>
<g><path style="opacity:1" fill="#4d4a48" d="M 379.5,334.5 C 384.478,334.952 385.478,337.119 382.5,341C 379.678,341.699 378.012,340.532 377.5,337.5C 378.193,336.482 378.859,335.482 379.5,334.5 Z"/></g>
<g><path style="opacity:1" fill="#494544" d="M 239.5,343.5 C 244.159,343.015 245.492,344.848 243.5,349C 238.728,349.81 237.395,347.977 239.5,343.5 Z"/></g>
<g><path style="opacity:1" fill="#484442" d="M 355.5,343.5 C 359.908,343.062 361.575,345.062 360.5,349.5C 355.074,350.416 353.407,348.416 355.5,343.5 Z"/></g>
<g><path style="opacity:1" fill="#5f4a2c" d="M 408.5,345.5 C 408.554,348.992 407.554,351.992 405.5,354.5C 405.928,351.215 406.928,348.215 408.5,345.5 Z"/></g>
<g><path style="opacity:1" fill="#5d482c" d="M 193.5,355.5 C 195.083,357.663 196.416,359.996 197.5,362.5C 194.888,360.948 193.555,358.614 193.5,355.5 Z"/></g>
<g><path style="opacity:1" fill="#474342" d="M 220.5,361.5 C 224.908,361.062 226.575,363.062 225.5,367.5C 223.5,367.5 221.5,367.5 219.5,367.5C 219.325,365.379 219.659,363.379 220.5,361.5 Z"/></g>
<g><path style="opacity:1" fill="#464240" d="M 374.5,361.5 C 379.159,361.015 380.492,362.848 378.5,367C 373.728,367.81 372.395,365.977 374.5,361.5 Z"/></g>
<g><path style="opacity:1" fill="#3f2829" d="M 344.5,390.5 C 341.784,390.322 339.117,389.822 336.5,389C 327.339,384.254 318.339,379.254 309.5,374C 302.137,369.421 294.803,369.421 287.5,374C 277.608,381.946 266.608,387.779 254.5,391.5C 265.857,386.651 276.524,380.484 286.5,373C 294.471,368.402 302.471,368.402 310.5,373C 321.216,380.19 332.549,386.024 344.5,390.5 Z"/></g>
<g><path style="opacity:1" fill="#f19c9f" d="M 344.5,390.5 C 345.245,410.611 341.078,429.611 332,447.5C 317.886,466.726 300.052,470.893 278.5,460C 267.393,450.291 260.56,438.125 258,423.5C 255.846,412.937 254.68,402.27 254.5,391.5C 266.608,387.779 277.608,381.946 287.5,374C 294.803,369.421 302.137,369.421 309.5,374C 318.339,379.254 327.339,384.254 336.5,389C 339.117,389.822 341.784,390.322 344.5,390.5 Z"/></g>
<g><path style="opacity:1" fill="#705630" d="M 404.5,356.5 C 404.736,359.829 403.903,362.829 402,365.5C 397.625,370.376 392.792,374.71 387.5,378.5C 393.963,371.714 399.629,364.38 404.5,356.5 Z"/></g>
<g><path style="opacity:1" fill="#5d482b" d="M 367.5,389.5 C 365.562,391.163 363.228,391.829 360.5,391.5C 362.599,390.388 364.933,389.721 367.5,389.5 Z"/></g>
<g><path style="opacity:1" fill="#f5f5f4" d="M 481.5,443.5 C 475.328,457.836 466.661,470.502 455.5,481.5C 447.561,472.373 439.727,472.707 432,482.5C 424.085,493.996 416.418,505.662 409,517.5C 405.368,522.134 401.368,526.467 397,530.5C 393.413,524.309 388.247,522.476 381.5,525C 374.829,531.525 368.995,538.691 364,546.5C 353.492,557.844 340.992,566.344 326.5,572C 317.269,575.282 308.269,579.116 299.5,583.5C 289.864,578.517 279.864,574.35 269.5,571C 258.212,565.777 248.045,558.944 239,550.5C 232.88,542.045 226.38,533.879 219.5,526C 212.704,522.324 206.871,523.49 202,529.5C 196.588,524.759 191.921,519.426 188,513.5C 180.668,500.504 172.168,488.338 162.5,477C 158.339,474.207 154.006,473.874 149.5,476C 147.359,477.539 145.359,478.872 143.5,480C 133.066,469.627 124.733,457.794 118.5,444.5C 126.539,440.626 134.206,436.126 141.5,431C 151.84,422.324 161.84,413.324 171.5,404C 182.475,395.952 194.809,391.786 208.5,391.5C 218.901,392.351 229.234,393.684 239.5,395.5C 242.534,408.616 246.367,421.616 251,434.5C 256.459,451.624 267.625,463.124 284.5,469C 315.928,476.373 337.428,465.206 349,435.5C 353.481,422.224 357.315,408.891 360.5,395.5C 367.165,394.114 373.832,392.614 380.5,391C 399.439,388.536 416.106,393.536 430.5,406C 440.198,414.37 449.865,422.703 459.5,431C 466.231,436.232 473.564,440.399 481.5,443.5 Z"/></g>
</svg>
