<?xml version="1.0" encoding="UTF-8"?>
<!DOCTYPE svg PUBLIC "-//W3C//DTD SVG 1.1//EN" "http://www.w3.org/Graphics/SVG/1.1/DTD/svg11.dtd">
<svg xmlns="http://www.w3.org/2000/svg" version="1.1" width="600px" height="600px" style="shape-rendering:geometricPrecision; text-rendering:geometricPrecision; image-rendering:optimizeQuality; fill-rule:evenodd; clip-rule:evenodd" xmlns:xlink="http://www.w3.org/1999/xlink">
<g><path style="opacity:0.943" fill="#020202" d="M 135.5,21.5 C 142.97,19.8235 148.803,22.1568 153,28.5C 172.561,67.3027 193.895,104.969 217,141.5C 232.117,153.661 249.284,157.827 268.5,154C 265.465,150.63 262.132,147.63 258.5,145C 248.875,140.571 239.042,136.737 229,133.5C 228.243,130.524 229.409,128.691 232.5,128C 252.484,122.106 268.984,127.273 282,143.5C 283.667,146.167 285.333,148.833 287,151.5C 294.719,130.805 297.719,109.472 296,87.5C 296.561,86.9781 297.228,86.6448 298,86.5C 300.321,87.4872 301.987,89.1539 303,91.5C 311.08,106.898 314.413,123.232 313,140.5C 316.883,136.95 321.049,133.783 325.5,131C 328.614,129.069 331.947,128.402 335.5,129C 336.591,131.064 336.758,133.231 336,135.5C 333.216,142.52 330.05,149.354 326.5,156C 336.629,158.891 346.962,159.891 357.5,159C 372.961,135.251 387.794,111.084 402,86.5C 412.237,65.6879 423.237,45.3546 435,25.5C 444.713,19.2756 453.38,20.6089 461,29.5C 470.689,43.549 477.689,58.8823 482,75.5C 492.766,113.099 499.1,151.432 501,190.5C 504.692,192.692 507.526,195.692 509.5,199.5C 506.762,200.493 504.095,200.159 501.5,198.5C 500.107,204.518 498.607,210.518 497,216.5C 495.46,220.419 493.293,223.919 490.5,227C 495.66,230.499 501.326,232.833 507.5,234C 516.196,234.776 524.862,234.61 533.5,233.5C 540.407,233.57 542.907,236.903 541,243.5C 531.924,260.786 517.757,267.453 498.5,263.5C 498.714,265.144 498.38,266.644 497.5,268C 511.974,281.44 528.974,290.106 548.5,294C 554.724,296.782 555.058,300.115 549.5,304C 536.814,309.764 523.481,312.098 509.5,311C 520.279,326.779 531.446,342.279 543,357.5C 551.721,370.021 549.888,372.188 537.5,364C 529.097,360.759 520.764,360.926 512.5,364.5C 512.565,375.196 515.898,384.696 522.5,393C 526.171,395.795 530.338,397.295 535,397.5C 542.076,395.771 549.243,394.771 556.5,394.5C 556.394,401.213 553.727,406.713 548.5,411C 537.037,420.822 523.704,425.489 508.5,425C 527.984,437.286 535.65,454.619 531.5,477C 529.833,477.667 528.167,477.667 526.5,477C 521.546,473.715 516.88,470.048 512.5,466C 511.668,465.312 511.002,465.479 510.5,466.5C 516.74,477.02 519.24,488.353 518,500.5C 517.767,502.78 516.934,504.78 515.5,506.5C 512.505,501.844 510.005,496.844 508,491.5C 503.328,483.827 496.662,478.827 488,476.5C 487.228,476.645 486.561,476.978 486,477.5C 482.551,487.151 482.217,496.818 485,506.5C 488.199,512.897 491.365,519.231 494.5,525.5C 490.118,524.141 486.118,521.974 482.5,519C 472.173,510.015 463.34,499.849 456,488.5C 453.066,498.637 449.732,508.637 446,518.5C 445.07,521.362 443.403,523.695 441,525.5C 439.08,515.17 435.914,505.17 431.5,495.5C 430.726,494.289 429.893,494.289 429,495.5C 425.246,501.008 422.58,507.008 421,513.5C 419.51,522.517 419.01,531.517 419.5,540.5C 418.635,541.583 417.635,541.749 416.5,541C 411.954,536.123 407.787,530.956 404,525.5C 398.445,530.055 392.612,534.221 386.5,538C 384.866,538.494 383.199,538.66 381.5,538.5C 381.472,536.418 382.139,534.584 383.5,533C 372.21,534.375 360.877,536.042 349.5,538C 340.445,539.443 332.945,543.609 327,550.5C 324.247,554.333 323.914,558.333 326,562.5C 329.549,565.713 332.716,569.213 335.5,573C 335.095,573.945 334.428,574.612 333.5,575C 325.617,575.863 318.284,574.196 311.5,570C 306.346,565.012 301.346,559.845 296.5,554.5C 294.17,559.607 294.67,564.607 298,569.5C 300.557,572.192 303.391,574.525 306.5,576.5C 304.979,577.937 303.145,578.604 301,578.5C 280.743,577.055 266.077,567.388 257,549.5C 244.971,539.726 231.471,533.726 216.5,531.5C 217.5,533.5 218.5,535.5 219.5,537.5C 217.926,538.631 216.259,538.798 214.5,538C 207.147,534.478 200.814,529.644 195.5,523.5C 191.461,527.375 187.961,531.708 185,536.5C 183.281,538.557 181.281,540.224 179,541.5C 177.089,540.218 176.256,538.385 176.5,536C 179.033,520.635 175.7,506.802 166.5,494.5C 160.87,503.676 157.703,513.676 157,524.5C 156.586,524.957 156.086,525.291 155.5,525.5C 153.515,523.543 152.015,521.21 151,518.5C 147.4,508.532 143.9,498.532 140.5,488.5C 133.216,494.282 126.382,500.615 120,507.5C 115.544,513.625 110.711,519.458 105.5,525C 103.866,525.494 102.199,525.66 100.5,525.5C 100.798,509.341 103.798,493.675 109.5,478.5C 109.167,478.167 108.833,477.833 108.5,477.5C 96.4511,483.35 84.1178,488.516 71.5,493C 68.5184,493.498 65.5184,493.665 62.5,493.5C 62.4914,491.692 62.9914,490.025 64,488.5C 81.4463,471.17 90.113,450.17 90,425.5C 83.1667,435 75,443.167 65.5,450C 61.2287,451.323 58.062,450.156 56,446.5C 55.0416,416.376 63.8749,389.543 82.5,366C 69.5419,364.237 57.5419,359.904 46.5,353C 42.9233,351.148 41.9233,348.482 43.5,345C 66.5374,344.664 81.2041,333.498 87.5,311.5C 72.6073,313.888 59.7739,309.554 49,298.5C 45.9801,295.377 44.9801,291.71 46,287.5C 68.7104,291.432 87.2104,284.432 101.5,266.5C 100.469,265.3 99.6355,263.966 99,262.5C 71.8322,266.999 52.9988,256.499 42.5,231C 43.1412,228.616 44.6412,227.116 47,226.5C 58.3643,230.734 70.031,233.734 82,235.5C 88.065,234.859 93.8984,233.359 99.5,231C 92.8568,225.687 88.6901,218.854 87,210.5C 86.0248,203.178 85.1915,195.845 84.5,188.5C 87.0029,149.816 93.5029,111.816 104,74.5C 108.525,58.7893 115.191,44.1226 124,30.5C 127.183,26.4622 131.016,23.4622 135.5,21.5 Z"/></g>
<g><path style="opacity:1" fill="#c1a98d" d="M 156.5,57.5 C 155.504,57.5858 154.671,57.2524 154,56.5C 146.771,42.7805 138.437,42.1138 129,54.5C 117.909,74.1014 110.576,95.1014 107,117.5C 103.194,134.976 101.027,152.643 100.5,170.5C 99.1667,170.5 97.8333,170.5 96.5,170.5C 99.2339,136.429 105.734,103.096 116,70.5C 119.94,59.2895 124.94,48.6229 131,38.5C 133.439,35.3882 136.439,33.0548 140,31.5C 141.944,32.4394 143.611,33.7727 145,35.5C 149.114,42.7294 152.947,50.0627 156.5,57.5 Z"/></g>
<g><path style="opacity:1" fill="#c1a88c" d="M 489.5,183.5 C 488.5,182.833 487.5,182.167 486.5,181.5C 485.376,143.752 478.542,107.086 466,71.5C 462.718,61.4074 456.884,53.2408 448.5,47C 442.11,45.0578 437.277,46.8912 434,52.5C 415.847,89.4916 395.68,125.158 373.5,159.5C 372.167,159.5 370.833,159.5 369.5,159.5C 394.77,121.986 417.27,82.6526 437,41.5C 439.016,37.329 441.849,33.9957 445.5,31.5C 446.938,31.7189 448.271,32.2189 449.5,33C 457.845,42.5148 464.011,53.3481 468,65.5C 480.884,103.805 488.051,143.139 489.5,183.5 Z"/></g>
<g><path style="opacity:1" fill="#eeceae" d="M 156.5,57.5 C 161.133,69.7741 166.633,81.7741 173,93.5C 180.512,106.527 188.012,119.527 195.5,132.5C 189.968,133.253 184.301,133.92 178.5,134.5C 171.56,133.177 164.56,132.177 157.5,131.5C 155.5,131.667 153.5,131.833 151.5,132C 150.09,132.368 149.09,133.201 148.5,134.5C 156.729,139.202 164.563,144.536 172,150.5C 175.723,156.367 176.556,162.7 174.5,169.5C 161.799,168.325 149.133,166.825 136.5,165C 135.724,166.77 135.89,168.603 137,170.5C 138.332,172.66 139.832,174.66 141.5,176.5C 127.408,176.535 113.741,174.535 100.5,170.5C 101.027,152.643 103.194,134.976 107,117.5C 110.576,95.1014 117.909,74.1014 129,54.5C 138.437,42.1138 146.771,42.7805 154,56.5C 154.671,57.2524 155.504,57.5858 156.5,57.5 Z"/></g>
<g><path style="opacity:1" fill="#eeceae" d="M 486.5,181.5 C 478.222,177.574 469.555,174.741 460.5,173C 455.316,172.184 450.316,172.35 445.5,173.5C 440.577,171.086 435.577,169.086 430.5,167.5C 432.624,166.969 434.124,165.635 435,163.5C 440.103,151.504 439.436,139.837 433,128.5C 431.276,125.27 429.276,124.936 427,127.5C 426.252,137.098 423.585,146.098 419,154.5C 414.475,159.175 408.975,161.842 402.5,162.5C 407.512,154.363 408.679,145.696 406,136.5C 404.894,133.274 403.061,130.607 400.5,128.5C 399.522,128.977 398.689,129.643 398,130.5C 397.727,137.535 396.061,144.202 393,150.5C 387.583,155.791 381.083,158.791 373.5,159.5C 395.68,125.158 415.847,89.4916 434,52.5C 437.277,46.8912 442.11,45.0578 448.5,47C 456.884,53.2408 462.718,61.4074 466,71.5C 478.542,107.086 485.376,143.752 486.5,181.5 Z"/></g>
<g><path style="opacity:1" fill="#bfa68b" d="M 156.5,57.5 C 170.055,83.6113 184.389,109.278 199.5,134.5C 197.801,134.473 196.467,133.806 195.5,132.5C 188.012,119.527 180.512,106.527 173,93.5C 166.633,81.7741 161.133,69.7741 156.5,57.5 Z"/></g>
<g><path style="opacity:1" fill="#f3efe8" d="M 430.5,167.5 C 424.587,166.191 418.587,165.524 412.5,165.5C 407.86,165.34 403.36,166.006 399,167.5C 398.5,167.333 398,167.167 397.5,167C 399.063,165.264 400.73,163.764 402.5,162.5C 408.975,161.842 414.475,159.175 419,154.5C 423.585,146.098 426.252,137.098 427,127.5C 429.276,124.936 431.276,125.27 433,128.5C 439.436,139.837 440.103,151.504 435,163.5C 434.124,165.635 432.624,166.969 430.5,167.5 Z"/></g>
<g><path style="opacity:1" fill="#dcbe9f" d="M 402.5,162.5 C 400.73,163.764 399.063,165.264 397.5,167C 398,167.167 398.5,167.333 399,167.5C 403.36,166.006 407.86,165.34 412.5,165.5C 418.587,165.524 424.587,166.191 430.5,167.5C 435.577,169.086 440.577,171.086 445.5,173.5C 452.075,176.624 457.742,180.957 462.5,186.5C 462,186.833 461.5,187.167 461,187.5C 449.223,182.79 437.39,182.457 425.5,186.5C 432.79,197.958 442.457,206.791 454.5,213C 460.997,215.295 467.664,215.961 474.5,215C 473.619,214.292 472.953,213.458 472.5,212.5C 478.412,208.71 482.412,203.377 484.5,196.5C 485.325,195.614 486.325,195.281 487.5,195.5C 488.5,195.5 489.5,195.5 490.5,195.5C 490.603,205.694 487.436,214.694 481,222.5C 480.341,225.888 480.508,229.221 481.5,232.5C 479.9,231.488 478.566,231.988 477.5,234C 467.552,238.329 457.552,238.663 447.5,235C 456.098,244.959 466.431,252.459 478.5,257.5C 479.183,257.137 479.85,256.804 480.5,256.5C 479.426,259.499 479.593,262.499 481,265.5C 483.479,267.966 485.979,270.299 488.5,272.5C 480.22,273.789 471.887,274.789 463.5,275.5C 473.71,289.873 483.71,304.373 493.5,319C 493.333,319.5 493.167,320 493,320.5C 484.836,314.145 476.169,313.145 467,317.5C 465.996,325.15 467.663,332.15 472,338.5C 473.731,340.617 475.898,342.117 478.5,343C 485.898,343.487 493.231,342.987 500.5,341.5C 498.743,349.111 494.409,354.945 487.5,359C 479.656,362.86 471.323,364.86 462.5,365C 476.057,374.281 482.557,387.114 482,403.5C 481.196,404.804 480.029,405.471 478.5,405.5C 473.771,402.947 469.438,399.78 465.5,396C 464.517,395.409 463.85,395.743 463.5,397C 469.403,406.864 470.903,417.364 468,428.5C 465.486,417.987 459.319,410.487 449.5,406C 447.833,405.333 446.167,405.333 444.5,406C 443.083,408.983 442.25,412.15 442,415.5C 431.998,396.004 418.831,379.004 402.5,364.5C 414.765,358.069 424.265,348.736 431,336.5C 450.682,297.064 444.182,262.564 411.5,233C 393.248,217.359 372.248,211.025 348.5,214C 337.697,217.467 329.197,223.967 323,233.5C 309.638,256.021 305.472,280.187 310.5,306C 309.5,310.016 306.833,311.85 302.5,311.5C 302.291,310.078 301.791,308.745 301,307.5C 300.333,306.167 299.667,306.167 299,307.5C 298.821,311.025 298.321,314.359 297.5,317.5C 297.662,315.473 297.495,313.473 297,311.5C 295.197,310.687 293.697,309.52 292.5,308C 298.832,278.683 293.332,251.85 276,227.5C 259.259,211.79 240.092,208.29 218.5,217C 188.842,229.99 170.009,252.156 162,283.5C 158.79,316.401 170.29,342.734 196.5,362.5C 171.265,384.624 153.265,411.624 142.5,443.5C 141.444,430.711 143.444,418.377 148.5,406.5C 148.167,406.167 147.833,405.833 147.5,405.5C 136.741,410.919 125.575,415.252 114,418.5C 113.167,418.167 112.333,417.833 111.5,417.5C 118.33,409.181 124.163,400.181 129,390.5C 132.019,381.74 133.353,372.74 133,363.5C 127.874,370.96 121.707,377.46 114.5,383C 110.392,385.659 107.559,384.826 106,380.5C 105.598,357.038 112.765,336.204 127.5,318C 116.786,316.473 106.786,312.973 97.5,307.5C 96.7515,305.668 95.7515,304.001 94.5,302.5C 113.864,302.455 125.864,293.121 130.5,274.5C 123.7,274.872 117.033,274.206 110.5,272.5C 113.292,266.521 112.292,261.188 107.5,256.5C 124.65,256.848 137.65,249.681 146.5,235C 133.989,239.204 121.989,238.037 110.5,231.5C 110.628,229.345 110.128,227.345 109,225.5C 97.4917,215.455 92.9917,202.788 95.5,187.5C 95.5007,182.322 95.834,177.322 96.5,172.5C 95.6039,177.915 96.9372,182.582 100.5,186.5C 100.281,196.134 103.615,204.301 110.5,211C 114.221,213.365 118.221,214.865 122.5,215.5C 131.433,215.683 139.767,213.517 147.5,209C 155.539,202.628 162.539,195.295 168.5,187C 157.919,187.369 148.919,183.869 141.5,176.5C 139.832,174.66 138.332,172.66 137,170.5C 135.89,168.603 135.724,166.77 136.5,165C 149.133,166.825 161.799,168.325 174.5,169.5C 181.869,168.997 189.202,168.164 196.5,167C 202.403,159.002 201.736,151.668 194.5,145C 190.326,142.412 185.993,140.079 181.5,138C 180.29,136.961 179.29,135.794 178.5,134.5C 184.301,133.92 189.968,133.253 195.5,132.5C 196.467,133.806 197.801,134.473 199.5,134.5C 202.891,138.928 206.058,143.594 209,148.5C 228.503,164.803 250.669,169.636 275.5,163C 277.303,162.363 278.636,161.197 279.5,159.5C 286.017,163.823 291.517,162.823 296,156.5C 298.602,150.361 300.602,144.028 302,137.5C 301.818,148.498 306.985,153.164 317.5,151.5C 314.657,157.472 315.99,162.305 321.5,166C 333.401,168.488 345.401,169.821 357.5,170C 363.48,168.858 367.48,165.358 369.5,159.5C 370.833,159.5 372.167,159.5 373.5,159.5C 381.083,158.791 387.583,155.791 393,150.5C 396.061,144.202 397.727,137.535 398,130.5C 398.689,129.643 399.522,128.977 400.5,128.5C 403.061,130.607 404.894,133.274 406,136.5C 408.679,145.696 407.512,154.363 402.5,162.5 Z"/></g>
<g><path style="opacity:1" fill="#f3f0e8" d="M 178.5,134.5 C 179.29,135.794 180.29,136.961 181.5,138C 185.993,140.079 190.326,142.412 194.5,145C 201.736,151.668 202.403,159.002 196.5,167C 189.202,168.164 181.869,168.997 174.5,169.5C 176.556,162.7 175.723,156.367 172,150.5C 164.563,144.536 156.729,139.202 148.5,134.5C 149.09,133.201 150.09,132.368 151.5,132C 153.5,131.833 155.5,131.667 157.5,131.5C 164.56,132.177 171.56,133.177 178.5,134.5 Z"/></g>
<g><path style="opacity:1" fill="#f3f0e8" d="M 96.5,170.5 C 97.8333,170.5 99.1667,170.5 100.5,170.5C 113.741,174.535 127.408,176.535 141.5,176.5C 148.919,183.869 157.919,187.369 168.5,187C 162.539,195.295 155.539,202.628 147.5,209C 139.767,213.517 131.433,215.683 122.5,215.5C 126.667,210.495 130.667,205.328 134.5,200C 121.321,199.89 109.987,195.39 100.5,186.5C 96.9372,182.582 95.6039,177.915 96.5,172.5C 96.5,171.833 96.5,171.167 96.5,170.5 Z"/></g>
<g><path style="opacity:1" fill="#f3efe8" d="M 445.5,173.5 C 450.316,172.35 455.316,172.184 460.5,173C 469.555,174.741 478.222,177.574 486.5,181.5C 487.5,182.167 488.5,182.833 489.5,183.5C 490.322,186.665 490.989,189.998 491.5,193.5C 491.457,194.416 491.124,195.083 490.5,195.5C 489.5,195.5 488.5,195.5 487.5,195.5C 481.309,194.461 474.975,194.627 468.5,196C 465.968,196.619 463.635,197.619 461.5,199C 464.652,203.979 468.319,208.479 472.5,212.5C 472.953,213.458 473.619,214.292 474.5,215C 467.664,215.961 460.997,215.295 454.5,213C 442.457,206.791 432.79,197.958 425.5,186.5C 437.39,182.457 449.223,182.79 461,187.5C 461.5,187.167 462,186.833 462.5,186.5C 457.742,180.957 452.075,176.624 445.5,173.5 Z"/></g>
<g><path style="opacity:1" fill="#eeceaf" d="M 100.5,186.5 C 109.987,195.39 121.321,199.89 134.5,200C 130.667,205.328 126.667,210.495 122.5,215.5C 118.221,214.865 114.221,213.365 110.5,211C 103.615,204.301 100.281,196.134 100.5,186.5 Z"/></g>
<g><path style="opacity:1" fill="#eecfb0" d="M 487.5,195.5 C 486.325,195.281 485.325,195.614 484.5,196.5C 482.412,203.377 478.412,208.71 472.5,212.5C 468.319,208.479 464.652,203.979 461.5,199C 463.635,197.619 465.968,196.619 468.5,196C 474.975,194.627 481.309,194.461 487.5,195.5 Z"/></g>
<g><path style="opacity:1" fill="#ba9468" d="M 297.5,317.5 C 297.002,320.487 296.502,323.487 296,326.5C 292.308,319.974 287.141,314.974 280.5,311.5C 280.167,311.833 279.833,312.167 279.5,312.5C 283.19,317.211 285.19,322.544 285.5,328.5C 252.068,330.415 222.401,341.748 196.5,362.5C 170.29,342.734 158.79,316.401 162,283.5C 170.009,252.156 188.842,229.99 218.5,217C 240.092,208.29 259.259,211.79 276,227.5C 293.332,251.85 298.832,278.683 292.5,308C 293.697,309.52 295.197,310.687 297,311.5C 297.495,313.473 297.662,315.473 297.5,317.5 Z"/></g>
<g><path style="opacity:1" fill="#ba9468" d="M 402.5,364.5 C 377.481,343.264 348.481,331.597 315.5,329.5C 316.763,323.38 318.429,317.38 320.5,311.5C 313.883,314.619 309.05,319.619 306,326.5C 305.4,321.326 304.233,316.326 302.5,311.5C 306.833,311.85 309.5,310.016 310.5,306C 305.472,280.187 309.638,256.021 323,233.5C 329.197,223.967 337.697,217.467 348.5,214C 372.248,211.025 393.248,217.359 411.5,233C 444.182,262.564 450.682,297.064 431,336.5C 424.265,348.736 414.765,358.069 402.5,364.5 Z"/></g>
<g><path style="opacity:1" fill="#efece5" d="M 110.5,231.5 C 121.989,238.037 133.989,239.204 146.5,235C 137.65,249.681 124.65,256.848 107.5,256.5C 105.196,254.203 102.363,252.869 99,252.5C 84.0466,256.512 71.2133,253.012 60.5,242C 67.4963,243.638 74.663,244.805 82,245.5C 90.6267,244.981 98.7934,242.814 106.5,239C 108.789,237.008 110.123,234.508 110.5,231.5 Z"/></g>
<g><path style="opacity:1" fill="#f1eee6" d="M 481.5,232.5 C 486.622,237.951 492.955,241.451 500.5,243C 509.029,245.03 517.696,246.03 526.5,246C 523.866,249.318 520.533,251.651 516.5,253C 507.298,254.097 498.298,253.263 489.5,250.5C 484.92,250.281 481.92,252.281 480.5,256.5C 479.85,256.804 479.183,257.137 478.5,257.5C 466.431,252.459 456.098,244.959 447.5,235C 457.552,238.663 467.552,238.329 477.5,234C 478.566,231.988 479.9,231.488 481.5,232.5 Z"/></g>
<g><path style="opacity:1" fill="#f0ede5" d="M 110.5,272.5 C 117.033,274.206 123.7,274.872 130.5,274.5C 125.864,293.121 113.864,302.455 94.5,302.5C 92.4113,301.109 90.078,300.442 87.5,300.5C 79.4822,302.472 71.8156,301.639 64.5,298C 83.8397,296.502 99.1731,288.002 110.5,272.5 Z"/></g>
<g><path style="opacity:1" fill="#f2efe8" d="M 488.5,272.5 C 499.944,285.4 513.944,294.567 530.5,300C 522.476,300.442 514.476,300.442 506.5,300C 498.02,303.594 496.186,309.427 501,317.5C 508.78,328.947 516.947,340.114 525.5,351C 520.691,351.409 516.024,352.409 511.5,354C 503.495,357.649 500.661,363.816 503,372.5C 504.016,384.95 509.183,395.116 518.5,403C 523.745,406.062 529.412,407.728 535.5,408C 525.208,413.44 514.208,415.773 502.5,415C 496.584,419.084 495.417,424.251 499,430.5C 507.713,436.213 514.713,443.546 520,452.5C 521.314,455.089 521.981,457.756 522,460.5C 514.74,453.024 507.74,453.024 501,460.5C 500.648,464.101 500.481,467.434 500.5,470.5C 494.563,467.213 488.23,466.046 481.5,467C 479.667,468.167 478.167,469.667 477,471.5C 474.315,478.256 472.649,485.256 472,492.5C 468.523,487.026 464.356,482.193 459.5,478C 453.26,476.537 448.76,478.703 446,484.5C 445.202,487.893 444.202,491.226 443,494.5C 441.352,491.222 439.519,488.055 437.5,485C 429.193,480.992 423.026,483.158 419,491.5C 414.75,499.086 411.583,507.086 409.5,515.5C 406.335,515.551 403.002,515.718 399.5,516C 395.805,518.51 392.138,521.01 388.5,523.5C 387.728,519.25 387.228,514.917 387,510.5C 386.417,508.998 385.584,507.665 384.5,506.5C 376.517,509.567 368.351,510.234 360,508.5C 359.333,507.5 359.333,506.5 360,505.5C 369.522,499.933 372.522,491.933 369,481.5C 367.771,486.529 365.771,491.196 363,495.5C 361.736,497.607 359.903,498.607 357.5,498.5C 358.443,490.519 358.61,482.519 358,474.5C 357.333,473.167 356.667,473.167 356,474.5C 355.086,478.604 353.419,482.27 351,485.5C 349.739,485.241 348.739,484.574 348,483.5C 343.094,473.486 342.261,463.153 345.5,452.5C 351.097,446.392 355.263,439.392 358,431.5C 358.667,428.167 358.667,424.833 358,421.5C 357.439,420.978 356.772,420.645 356,420.5C 353.303,424.549 350.97,428.883 349,433.5C 340.642,445.645 329.476,448.979 315.5,443.5C 313.815,441.182 311.481,440.182 308.5,440.5C 304.12,439.115 302.12,436.115 302.5,431.5C 324.554,427.316 333.721,414.316 330,392.5C 324.975,384.896 317.808,380.729 308.5,380C 297.588,378.324 287.255,379.991 277.5,385C 269.023,393.066 267.19,402.566 272,413.5C 277.971,423.626 286.804,429.626 298.5,431.5C 298.66,433.199 298.494,434.866 298,436.5C 295.521,438.314 293.021,439.981 290.5,441.5C 287.458,441.733 284.792,442.733 282.5,444.5C 277.87,445.229 273.203,445.563 268.5,445.5C 262.561,444.439 257.728,441.439 254,436.5C 250.811,431.259 247.811,425.925 245,420.5C 244.333,421.167 243.667,421.833 243,422.5C 241.94,432.713 245.107,441.38 252.5,448.5C 253.128,451.09 254.295,453.423 256,455.5C 257.546,465.303 256.212,474.636 252,483.5C 250.921,485.394 249.587,485.727 248,484.5C 246.713,480.63 245.047,476.964 243,473.5C 241.902,481.77 241.402,490.104 241.5,498.5C 235.176,493.852 232.009,487.519 232,479.5C 227.32,490.626 230.153,499.293 240.5,505.5C 241.594,506.868 241.26,508.035 239.5,509C 233.5,509.667 227.5,509.667 221.5,509C 219.464,508.546 217.63,507.713 216,506.5C 215.055,506.905 214.388,507.572 214,508.5C 212.892,512.086 212.392,515.753 212.5,519.5C 211.359,520.339 210.026,521.006 208.5,521.5C 205.656,519.155 202.99,516.655 200.5,514C 195.525,512.774 191.025,513.607 187,516.5C 185.172,504.013 180.005,493.18 171.5,484C 169.645,483.578 167.811,483.078 166,482.5C 164.189,483.078 162.355,483.578 160.5,484C 157.433,487.297 155.267,491.131 154,495.5C 152.603,489.893 150.603,484.559 148,479.5C 143.621,475.816 139.121,475.649 134.5,479C 127.698,484.801 121.198,490.968 115,497.5C 116.418,490.329 118.252,483.162 120.5,476C 118.538,468.178 113.538,465.178 105.5,467C 99.8333,469.833 94.1667,472.667 88.5,475.5C 88.1667,475.167 87.8333,474.833 87.5,474.5C 97.5494,457.875 101.716,439.875 100,420.5C 98.0409,416.328 94.7076,414.328 90,414.5C 88.1118,414.796 86.2784,415.296 84.5,416C 78.6843,423.117 72.5176,429.95 66,436.5C 67.6615,412.518 75.9949,391.185 91,372.5C 94.7993,366.823 94.2993,361.657 89.5,357C 81.3867,355.433 73.3867,353.433 65.5,351C 81.136,345.362 91.3026,334.529 96,318.5C 97.9336,314.923 98.4336,311.257 97.5,307.5C 106.786,312.973 116.786,316.473 127.5,318C 112.765,336.204 105.598,357.038 106,380.5C 107.559,384.826 110.392,385.659 114.5,383C 121.707,377.46 127.874,370.96 133,363.5C 133.353,372.74 132.019,381.74 129,390.5C 124.163,400.181 118.33,409.181 111.5,417.5C 112.333,417.833 113.167,418.167 114,418.5C 125.575,415.252 136.741,410.919 147.5,405.5C 147.833,405.833 148.167,406.167 148.5,406.5C 143.444,418.377 141.444,430.711 142.5,443.5C 153.265,411.624 171.265,384.624 196.5,362.5C 222.401,341.748 252.068,330.415 285.5,328.5C 285.19,322.544 283.19,317.211 279.5,312.5C 279.833,312.167 280.167,311.833 280.5,311.5C 287.141,314.974 292.308,319.974 296,326.5C 296.502,323.487 297.002,320.487 297.5,317.5C 298.321,314.359 298.821,311.025 299,307.5C 299.667,306.167 300.333,306.167 301,307.5C 301.791,308.745 302.291,310.078 302.5,311.5C 304.233,316.326 305.4,321.326 306,326.5C 309.05,319.619 313.883,314.619 320.5,311.5C 318.429,317.38 316.763,323.38 315.5,329.5C 348.481,331.597 377.481,343.264 402.5,364.5C 418.831,379.004 431.998,396.004 442,415.5C 442.25,412.15 443.083,408.983 444.5,406C 446.167,405.333 447.833,405.333 449.5,406C 459.319,410.487 465.486,417.987 468,428.5C 470.903,417.364 469.403,406.864 463.5,397C 463.85,395.743 464.517,395.409 465.5,396C 469.438,399.78 473.771,402.947 478.5,405.5C 480.029,405.471 481.196,404.804 482,403.5C 482.557,387.114 476.057,374.281 462.5,365C 471.323,364.86 479.656,362.86 487.5,359C 494.409,354.945 498.743,349.111 500.5,341.5C 493.231,342.987 485.898,343.487 478.5,343C 475.898,342.117 473.731,340.617 472,338.5C 467.663,332.15 465.996,325.15 467,317.5C 476.169,313.145 484.836,314.145 493,320.5C 493.167,320 493.333,319.5 493.5,319C 483.71,304.373 473.71,289.873 463.5,275.5C 471.887,274.789 480.22,273.789 488.5,272.5 Z"/></g>
<g><path style="opacity:1" fill="#312927" d="M 225.5,275.5 C 246.98,274.146 256.813,284.146 255,305.5C 251.189,316.3 243.523,322.3 232,323.5C 214.024,320.493 206.357,309.826 209,291.5C 212.066,283.569 217.566,278.236 225.5,275.5 Z"/></g>
<g><path style="opacity:1" fill="#322a27" d="M 359.5,275.5 C 384.371,274.187 394.204,285.52 389,309.5C 382.265,321.076 372.432,325.243 359.5,322C 345.315,315.455 340.481,304.622 345,289.5C 348.408,283.257 353.242,278.59 359.5,275.5 Z"/></g>
<g><path style="opacity:1" fill="#f5f4f4" d="M 233.5,284.5 C 239.629,283.555 243.296,286.055 244.5,292C 242.37,299.479 237.87,301.312 231,297.5C 228.463,292.395 229.296,288.061 233.5,284.5 Z"/></g>
<g><path style="opacity:1" fill="#f5f5f5" d="M 368.5,284.5 C 376.656,283.821 380.156,287.488 379,295.5C 374.333,300.833 369.667,300.833 365,295.5C 363.882,291.077 365.049,287.41 368.5,284.5 Z"/></g>
<g><path style="opacity:1" fill="#39312d" d="M 308.5,440.5 C 305.844,439.842 303.178,439.175 300.5,438.5C 297.129,439.577 293.796,440.577 290.5,441.5C 293.021,439.981 295.521,438.314 298,436.5C 298.494,434.866 298.66,433.199 298.5,431.5C 286.804,429.626 277.971,423.626 272,413.5C 267.19,402.566 269.023,393.066 277.5,385C 287.255,379.991 297.588,378.324 308.5,380C 317.808,380.729 324.975,384.896 330,392.5C 333.721,414.316 324.554,427.316 302.5,431.5C 302.12,436.115 304.12,439.115 308.5,440.5 Z"/></g>
<g><path style="opacity:1" fill="#3b322f" d="M 268.5,445.5 C 269.209,446.404 270.209,446.737 271.5,446.5C 271.181,451.363 271.514,456.03 272.5,460.5C 275.35,488.753 290.017,497.92 316.5,488C 322.819,482.196 326.653,475.03 328,466.5C 329.274,459.897 329.774,453.23 329.5,446.5C 326.15,446.665 322.817,446.498 319.5,446C 317.934,445.392 316.6,444.558 315.5,443.5C 329.476,448.979 340.642,445.645 349,433.5C 350.97,428.883 353.303,424.549 356,420.5C 356.772,420.645 357.439,420.978 358,421.5C 358.667,424.833 358.667,428.167 358,431.5C 355.263,439.392 351.097,446.392 345.5,452.5C 342.473,454.264 339.973,456.598 338,459.5C 335.335,466.822 332.668,474.155 330,481.5C 322.484,491.674 312.317,496.674 299.5,496.5C 288.984,496.157 280.15,492.157 273,484.5C 269.182,475.565 265.516,466.565 262,457.5C 258.938,454.268 255.771,451.268 252.5,448.5C 245.107,441.38 241.94,432.713 243,422.5C 243.667,421.833 244.333,421.167 245,420.5C 247.811,425.925 250.811,431.259 254,436.5C 257.728,441.439 262.561,444.439 268.5,445.5 Z"/></g>
<g><path style="opacity:1" fill="#ef9b9e" d="M 308.5,440.5 C 310.426,442.293 312.759,443.293 315.5,443.5C 316.6,444.558 317.934,445.392 319.5,446C 322.817,446.498 326.15,446.665 329.5,446.5C 329.774,453.23 329.274,459.897 328,466.5C 326.653,475.03 322.819,482.196 316.5,488C 290.017,497.92 275.35,488.753 272.5,460.5C 272.5,455.833 272.5,451.167 272.5,446.5C 276.16,446.841 279.493,446.175 282.5,444.5C 285.542,444.267 288.208,443.267 290.5,441.5C 293.796,440.577 297.129,439.577 300.5,438.5C 303.178,439.175 305.844,439.842 308.5,440.5 Z"/></g>
<g><path style="opacity:1" fill="#50423e" d="M 290.5,441.5 C 288.208,443.267 285.542,444.267 282.5,444.5C 284.792,442.733 287.458,441.733 290.5,441.5 Z"/></g>
<g><path style="opacity:1" fill="#675a56" d="M 308.5,440.5 C 311.481,440.182 313.815,441.182 315.5,443.5C 312.759,443.293 310.426,442.293 308.5,440.5 Z"/></g>
<g><path style="opacity:1" fill="#8f6766" d="M 282.5,444.5 C 279.493,446.175 276.16,446.841 272.5,446.5C 272.5,451.167 272.5,455.833 272.5,460.5C 271.514,456.03 271.181,451.363 271.5,446.5C 270.209,446.737 269.209,446.404 268.5,445.5C 273.203,445.563 277.87,445.229 282.5,444.5 Z"/></g>
<g><path style="opacity:1" fill="#d1cfcb" d="M 252.5,448.5 C 255.771,451.268 258.938,454.268 262,457.5C 265.516,466.565 269.182,475.565 273,484.5C 280.15,492.157 288.984,496.157 299.5,496.5C 312.317,496.674 322.484,491.674 330,481.5C 332.668,474.155 335.335,466.822 338,459.5C 339.973,456.598 342.473,454.264 345.5,452.5C 342.261,463.153 343.094,473.486 348,483.5C 348.739,484.574 349.739,485.241 351,485.5C 353.419,482.27 355.086,478.604 356,474.5C 356.667,473.167 357.333,473.167 358,474.5C 358.61,482.519 358.443,490.519 357.5,498.5C 359.903,498.607 361.736,497.607 363,495.5C 365.771,491.196 367.771,486.529 369,481.5C 372.522,491.933 369.522,499.933 360,505.5C 359.333,506.5 359.333,507.5 360,508.5C 368.351,510.234 376.517,509.567 384.5,506.5C 385.584,507.665 386.417,508.998 387,510.5C 387.228,514.917 387.728,519.25 388.5,523.5C 380.498,522.829 372.498,523.329 364.5,525C 353.967,526.55 343.634,528.884 333.5,532C 321.947,537.206 315.447,546.039 314,558.5C 310.619,554.241 307.119,550.074 303.5,546C 296.464,542.543 290.631,544.043 286,550.5C 285.088,554.795 284.421,559.128 284,563.5C 275.152,558.827 268.819,551.827 265,542.5C 249.594,530.3 232.094,522.633 212.5,519.5C 212.392,515.753 212.892,512.086 214,508.5C 214.388,507.572 215.055,506.905 216,506.5C 217.63,507.713 219.464,508.546 221.5,509C 227.5,509.667 233.5,509.667 239.5,509C 241.26,508.035 241.594,506.868 240.5,505.5C 230.153,499.293 227.32,490.626 232,479.5C 232.009,487.519 235.176,493.852 241.5,498.5C 241.402,490.104 241.902,481.77 243,473.5C 245.047,476.964 246.713,480.63 248,484.5C 249.587,485.727 250.921,485.394 252,483.5C 256.212,474.636 257.546,465.303 256,455.5C 254.295,453.423 253.128,451.09 252.5,448.5 Z"/></g>
</svg>
