<?xml version="1.0" encoding="UTF-8"?>
<!DOCTYPE svg PUBLIC "-//W3C//DTD SVG 1.1//EN" "http://www.w3.org/Graphics/SVG/1.1/DTD/svg11.dtd">
<svg xmlns="http://www.w3.org/2000/svg" version="1.1" width="600px" height="600px" style="shape-rendering:geometricPrecision; text-rendering:geometricPrecision; image-rendering:optimizeQuality; fill-rule:evenodd; clip-rule:evenodd" xmlns:xlink="http://www.w3.org/1999/xlink">
<g><path style="opacity:0.958" fill="#010101" d="M 252.5,9.5 C 260.497,9.2486 268.164,10.7486 275.5,14C 283.399,18.1169 291.399,21.9503 299.5,25.5C 307.083,21.7084 314.75,17.875 322.5,14C 329.836,10.7486 337.503,9.2486 345.5,9.5C 344.301,14.4392 343.301,19.4392 342.5,24.5C 357.36,23.2869 372.027,20.7869 386.5,17C 389.5,16.3333 392.5,16.3333 395.5,17C 396.451,17.7175 396.617,18.5509 396,19.5C 391.326,23.3431 386.826,27.3431 382.5,31.5C 383.381,32.9705 384.714,33.8038 386.5,34C 392.713,36.0924 398.713,35.7591 404.5,33C 410.143,32.1357 415.81,31.469 421.5,31C 428.326,27.2503 435.326,24.0837 442.5,21.5C 440.392,26.1786 437.392,30.3453 433.5,34C 437.71,33.091 442.044,32.591 446.5,32.5C 446.753,34.8273 446.086,36.8273 444.5,38.5C 444.709,39.086 445.043,39.586 445.5,40C 465.89,44.7632 485.89,50.7632 505.5,58C 526.691,66.1843 539.525,81.351 544,103.5C 544.667,132.5 544.667,161.5 544,190.5C 542.685,210.469 535.185,227.636 521.5,242C 513.837,247.154 506.004,247.654 498,243.5C 496.317,230.069 493.984,216.736 491,203.5C 490.192,205.423 489.692,207.423 489.5,209.5C 490.267,216.174 491.101,222.841 492,229.5C 495.501,247.006 499.001,264.506 502.5,282C 502.955,284.923 501.955,287.09 499.5,288.5C 495.477,286.79 491.477,285.124 487.5,283.5C 483.91,284.576 482.077,286.909 482,290.5C 485.253,292.543 488.42,294.71 491.5,297C 493.741,298.739 495.408,300.906 496.5,303.5C 496.113,304.72 495.28,305.387 494,305.5C 489.889,304.596 485.722,304.263 481.5,304.5C 481.34,306.199 481.506,307.866 482,309.5C 490.559,321.949 497.559,335.283 503,349.5C 503.498,352.817 503.665,356.15 503.5,359.5C 498.817,359.493 494.817,357.826 491.5,354.5C 491.167,355.5 490.833,356.5 490.5,357.5C 498.469,373.902 504.969,390.902 510,408.5C 514.707,425.376 515.373,442.376 512,459.5C 504.896,481.428 496.229,482.095 486,461.5C 483.169,461.042 480.836,459.708 479,457.5C 478.934,468.344 479.434,479.177 480.5,490C 480.489,494.889 479.989,499.723 479,504.5C 468.982,521.867 456.648,537.534 442,551.5C 440.057,557.07 436.89,561.737 432.5,565.5C 431.719,564.271 431.219,562.938 431,561.5C 428.586,563.291 426.086,564.957 423.5,566.5C 422.249,569.756 421.249,573.09 420.5,576.5C 416.173,579.999 411.506,582.999 406.5,585.5C 405.914,585.291 405.414,584.957 405,584.5C 403.767,571.129 402.434,557.795 401,544.5C 398,547.5 395,550.5 392,553.5C 388.456,565.464 384.123,577.131 379,588.5C 377.989,589.337 376.822,589.67 375.5,589.5C 374.203,581.198 373.036,572.865 372,564.5C 365.036,572.963 357.202,580.63 348.5,587.5C 348.024,583.283 347.024,579.283 345.5,575.5C 330.336,580.79 315.002,585.457 299.5,589.5C 289.174,585.418 278.508,582.585 267.5,581C 261.392,579.112 255.392,576.945 249.5,574.5C 248.135,577.695 247.135,581.028 246.5,584.5C 239.5,577.833 232.5,571.167 225.5,564.5C 223.81,571.376 222.643,578.376 222,585.5C 221.804,587.286 220.971,588.619 219.5,589.5C 217.282,588.076 215.782,586.076 215,583.5C 211.465,573.229 208.132,562.895 205,552.5C 201.63,549.465 198.63,546.132 196,542.5C 195.703,556.927 194.536,571.261 192.5,585.5C 187.079,583.377 182.246,580.377 178,576.5C 177.012,573.576 176.346,570.576 176,567.5C 173.154,565.743 170.488,563.743 168,561.5C 167.691,562.766 167.191,563.933 166.5,565C 161.855,562.325 158.688,558.158 157,552.5C 142.769,538.612 130.436,523.279 120,506.5C 118.519,501.614 117.686,496.614 117.5,491.5C 118.566,479.483 119.399,467.483 120,455.5C 117.333,457.5 114.667,459.5 112,461.5C 109.693,468.804 105.026,473.804 98,476.5C 93.6795,474.846 90.6795,471.846 89,467.5C 87.0462,463.019 85.7128,458.352 85,453.5C 82.9258,430.686 86.2592,408.686 95,387.5C 99.3707,377.381 103.537,367.214 107.5,357C 107.167,355.833 106.833,354.667 106.5,353.5C 103.5,355.333 100.5,357.167 97.5,359C 95.8659,359.494 94.1992,359.66 92.5,359.5C 91.9646,352.855 93.1313,346.522 96,340.5C 101.874,328.579 108.374,317.079 115.5,306C 114.788,304.558 113.621,303.725 112,303.5C 108.667,304.167 105.333,304.833 102,305.5C 100.72,305.387 99.8869,304.72 99.5,303.5C 100.592,300.906 102.259,298.739 104.5,297C 108.248,294.376 112.081,291.876 116,289.5C 116.184,285.843 114.351,283.843 110.5,283.5C 106.613,285.026 102.78,286.693 99,288.5C 96.116,287.576 94.9493,285.576 95.5,282.5C 98.935,265.492 102.435,248.492 106,231.5C 107.698,222.223 108.365,212.89 108,203.5C 104.161,215.867 101.827,228.534 101,241.5C 98.9253,245.537 95.592,247.204 91,246.5C 83.7547,246.533 77.7547,243.867 73,238.5C 57.8044,217.732 51.3044,194.399 53.5,168.5C 54.7274,151.665 54.7274,134.831 53.5,118C 52.5272,96.956 60.1939,79.956 76.5,67C 83.9422,61.9455 91.9422,57.9455 100.5,55C 118.42,49.3538 136.42,44.0205 154.5,39C 152.549,37.2658 151.549,35.0991 151.5,32.5C 155.956,32.591 160.29,33.091 164.5,34C 161.309,30.31 158.309,26.4767 155.5,22.5C 156.167,22.1667 156.833,21.8333 157.5,21.5C 163.266,24.0909 168.933,26.9242 174.5,30C 180.772,31.2902 187.105,32.2902 193.5,33C 194.833,33.6667 196.167,34.3333 197.5,35C 204.112,35.4846 210.446,34.4846 216.5,32C 211.226,27.547 206.226,22.8803 201.5,18C 203.116,16.9229 204.949,16.4229 207,16.5C 219.597,18.4862 232.097,20.9862 244.5,24C 248.691,24.9216 252.691,24.5882 256.5,23C 254.463,18.7217 253.13,14.2217 252.5,9.5 Z"/></g>
<g><path style="opacity:1" fill="#4b4742" d="M 454.5,53.5 C 450.917,57.2617 447.417,61.2617 444,65.5C 443.448,68.4192 444.115,71.0859 446,73.5C 459.919,82.5425 473.752,91.7092 487.5,101C 493.135,105.629 497.635,111.129 501,117.5C 501.49,118.793 501.657,120.127 501.5,121.5C 496.528,120.578 491.528,120.412 486.5,121C 485.892,122.231 485.559,123.564 485.5,125C 490.658,137.8 495.825,150.634 501,163.5C 506.244,176.386 508.911,189.719 509,203.5C 506.16,204.517 503.66,203.85 501.5,201.5C 499.152,192.326 493.485,189.492 484.5,193C 481.819,195.194 480.319,198.027 480,201.5C 479.255,211.585 479.922,221.585 482,231.5C 484.298,245.627 487.132,259.627 490.5,273.5C 481.115,272.535 474.781,276.535 471.5,285.5C 467.5,283.833 463.5,282.167 459.5,280.5C 453.897,272.727 447.731,265.394 441,258.5C 440.667,257.5 440.333,256.5 440,255.5C 435.5,252.333 431,249.167 426.5,246C 402.57,235.601 377.57,229.768 351.5,228.5C 351.5,227.5 351.5,226.5 351.5,225.5C 349.5,225.5 347.5,225.5 345.5,225.5C 346.833,221.833 348.167,218.167 349.5,214.5C 346.059,214.301 342.726,214.801 339.5,216C 331.415,219.695 323.249,223.195 315,226.5C 309.594,223.547 304.094,220.713 298.5,218C 293.705,215.967 288.705,215.134 283.5,215.5C 283.724,219.179 284.058,222.846 284.5,226.5C 277.965,223.736 271.298,221.236 264.5,219C 257.54,217.913 250.54,217.413 243.5,217.5C 243.575,220.206 243.908,222.873 244.5,225.5C 241.873,224.908 239.206,224.575 236.5,224.5C 236.421,225.93 236.754,227.264 237.5,228.5C 236.975,229.192 236.308,229.692 235.5,230C 225.224,231.752 214.891,233.086 204.5,234C 186.162,238.816 170.828,248.15 158.5,262C 150.566,266.935 143.566,272.935 137.5,280C 133.833,281.5 130.167,283 126.5,284.5C 122.874,276.215 116.54,272.549 107.5,273.5C 110.985,258.931 114.152,244.265 117,229.5C 118.314,219.862 118.648,210.196 118,200.5C 117.179,194.011 113.512,190.678 107,190.5C 104.077,190.795 101.743,192.129 100,194.5C 98.522,197.158 97.3554,199.825 96.5,202.5C 96.5654,202.062 96.3988,201.728 96,201.5C 94.2141,204.362 91.8808,205.028 89,203.5C 89.0723,188.6 92.0723,174.267 98,160.5C 102.875,148.039 108.042,135.706 113.5,123.5C 112.952,120.458 111.119,119.124 108,119.5C 104.17,120.25 100.337,120.917 96.5,121.5C 98.6681,113.694 103.001,107.194 109.5,102C 123.667,92.5 137.833,83 152,73.5C 154.271,70.8805 154.938,67.8805 154,64.5C 150.949,60.2847 147.449,56.618 143.5,53.5C 148.244,51.5583 153.244,50.0583 158.5,49C 162.227,46.0139 166.561,44.6805 171.5,45C 172.725,43.437 174.225,42.2703 176,41.5C 180.795,42.2538 185.628,42.7538 190.5,43C 193.592,44.8641 196.926,46.0307 200.5,46.5C 206.167,45.3333 211.833,44.1667 217.5,43C 223.947,41.3813 227.28,37.2147 227.5,30.5C 233.419,32.306 239.419,33.806 245.5,35C 253.074,36.6507 259.574,34.8173 265,29.5C 265.662,27.1873 266.162,24.854 266.5,22.5C 268.564,22.687 270.564,23.187 272.5,24C 279.421,27.2653 286.087,30.932 292.5,35C 294.764,35.2362 296.931,35.7362 299,36.5C 301.069,35.7362 303.236,35.2362 305.5,35C 313.202,29.9743 321.369,25.8076 330,22.5C 333.176,33.1806 340.343,37.3473 351.5,35C 357.88,33.6548 364.213,32.1548 370.5,30.5C 371.389,36.2177 374.389,40.3844 379.5,43C 385.794,44.3823 392.127,45.549 398.5,46.5C 401.725,45.8157 404.725,44.649 407.5,43C 412.372,42.7538 417.205,42.2538 422,41.5C 425.829,44.8033 430.329,46.3033 435.5,46C 436.551,47.3848 437.884,48.3848 439.5,49C 444.647,50.442 449.647,51.942 454.5,53.5 Z"/></g>
<g><path style="opacity:1" fill="#726f68" d="M 143.5,53.5 C 147.449,56.618 150.949,60.2847 154,64.5C 154.938,67.8805 154.271,70.8805 152,73.5C 137.833,83 123.667,92.5 109.5,102C 103.001,107.194 98.6681,113.694 96.5,121.5C 100.337,120.917 104.17,120.25 108,119.5C 111.119,119.124 112.952,120.458 113.5,123.5C 108.042,135.706 102.875,148.039 98,160.5C 92.0723,174.267 89.0723,188.6 89,203.5C 91.8808,205.028 94.2141,204.362 96,201.5C 96.3988,201.728 96.5654,202.062 96.5,202.5C 93.5428,213.624 91.8761,224.958 91.5,236.5C 86.7879,236.227 82.9545,234.227 80,230.5C 71.0972,218.683 66.0972,205.35 65,190.5C 64.7474,165.66 64.2474,140.826 63.5,116C 63.2363,98.8623 69.9029,85.1956 83.5,75C 102.248,64.3615 122.248,57.1948 143.5,53.5 Z"/></g>
<g><path style="opacity:1" fill="#726f68" d="M 454.5,53.5 C 474.364,57.5102 493.364,64.0102 511.5,73C 527.558,82.9703 535.225,97.4703 534.5,116.5C 533.178,134 533.178,151.5 534.5,169C 536.479,191.11 531.312,211.277 519,229.5C 515.845,233.824 511.678,236.157 506.5,236.5C 506.666,232.486 506.499,228.486 506,224.5C 504.594,216.792 503.094,209.126 501.5,201.5C 503.66,203.85 506.16,204.517 509,203.5C 508.911,189.719 506.244,176.386 501,163.5C 495.825,150.634 490.658,137.8 485.5,125C 485.559,123.564 485.892,122.231 486.5,121C 491.528,120.412 496.528,120.578 501.5,121.5C 501.657,120.127 501.49,118.793 501,117.5C 497.635,111.129 493.135,105.629 487.5,101C 473.752,91.7092 459.919,82.5425 446,73.5C 444.115,71.0859 443.448,68.4192 444,65.5C 447.417,61.2617 450.917,57.2617 454.5,53.5 Z"/></g>
<g><path style="opacity:1" fill="#010101" d="M 224.5,148.5 C 226.144,148.286 227.644,148.62 229,149.5C 231.589,169.093 240.589,185.093 256,197.5C 257.072,200.553 256.072,202.553 253,203.5C 250.547,202.507 248.047,202.34 245.5,203C 232.079,208.818 218.079,212.485 203.5,214C 196.185,217.325 189.518,221.658 183.5,227C 180.186,228.165 178.186,226.998 177.5,223.5C 178,222.5 178.5,221.5 179,220.5C 195.849,209.986 210.516,196.986 223,181.5C 224.881,178.576 226.048,175.409 226.5,172C 225.418,166.174 224.418,160.341 223.5,154.5C 223.573,152.41 223.906,150.41 224.5,148.5 Z"/></g>
<g><path style="opacity:1" fill="#010101" d="M 369.5,148.5 C 373.338,148.007 375.338,149.674 375.5,153.5C 373.983,159.416 372.983,165.416 372.5,171.5C 372.453,174.295 372.953,176.961 374,179.5C 386.834,196.338 402.167,210.338 420,221.5C 420.564,226.936 418.397,228.436 413.5,226C 408.442,221.943 403.108,218.276 397.5,215C 388.923,212.904 380.256,211.237 371.5,210C 365.082,207.96 358.749,205.627 352.5,203C 349.953,202.34 347.453,202.507 345,203.5C 341.928,202.553 340.928,200.553 342,197.5C 357.914,185.009 367.081,168.676 369.5,148.5 Z"/></g>
<g><path style="opacity:1" fill="#726f68" d="M 447.5,530.5 C 449.042,520.084 450.042,509.584 450.5,499C 448.52,461.519 447.02,424.019 446,386.5C 445.811,347.984 432.311,315.15 405.5,288C 391.978,276.657 376.478,269.491 359,266.5C 357.93,266.528 357.097,266.861 356.5,267.5C 346.071,257.952 333.738,252.119 319.5,250C 306.167,249.333 292.833,249.333 279.5,250C 265.143,251.183 252.81,256.683 242.5,266.5C 234.369,266.018 226.369,267.518 218.5,271C 189.354,283.816 169.521,305.316 159,335.5C 152.973,356.045 149.973,377.045 150,398.5C 149.121,430.166 148.288,461.833 147.5,493.5C 147.754,505.966 149.088,518.299 151.5,530.5C 142.717,521.877 135.217,512.21 129,501.5C 128.371,487.631 128.871,473.798 130.5,460C 131.008,447.149 125.341,442.816 113.5,447C 110.424,449.62 107.258,452.12 104,454.5C 102.333,457.5 100.667,460.5 99,463.5C 94.8765,452.535 93.5432,441.202 95,429.5C 96.1557,418.899 98.489,408.565 102,398.5C 106.782,385.603 112.115,372.936 118,360.5C 119.965,350.757 116.131,344.757 106.5,342.5C 112.163,331.836 118.33,321.503 125,311.5C 127.308,306.537 126.808,301.87 123.5,297.5C 129.846,293.993 136.513,291.16 143.5,289C 149.898,281.604 157.231,275.27 165.5,270C 168.564,267.793 170.564,264.959 171.5,261.5C 172.552,261.649 173.552,261.483 174.5,261C 182.843,254.002 192.177,248.669 202.5,245C 216.967,243.503 231.3,241.169 245.5,238C 248.844,235.59 251.844,232.756 254.5,229.5C 257.106,228.348 259.773,228.182 262.5,229C 267.025,230.511 271.359,232.511 275.5,235C 281.001,237.214 286.334,236.88 291.5,234C 292.861,232.416 293.528,230.582 293.5,228.5C 298.494,229.828 303.161,231.995 307.5,235C 313.298,237.125 318.965,236.792 324.5,234C 328.288,232.022 332.121,230.189 336,228.5C 336.346,230.848 337.513,232.681 339.5,234C 342.377,234.956 345.044,236.289 347.5,238C 373.246,239.271 397.913,244.938 421.5,255C 424.128,256.626 426.461,258.626 428.5,261C 429.448,261.483 430.448,261.649 431.5,261.5C 435.103,268.304 439.936,274.304 446,279.5C 447.796,282.927 449.963,286.094 452.5,289C 459.897,291.238 466.897,294.238 473.5,298C 469.694,303.695 469.527,309.529 473,315.5C 479.098,324.443 484.598,333.776 489.5,343.5C 485.975,344.526 483.141,346.526 481,349.5C 480.333,354.167 480.333,358.833 481,363.5C 491.516,383.049 498.849,403.716 503,425.5C 503.667,433.833 503.667,442.167 503,450.5C 502.74,454.779 501.573,458.779 499.5,462.5C 496.637,457.951 493.637,453.451 490.5,449C 484.5,447.04 478.5,446.707 472.5,448C 469.19,451.089 467.524,454.922 467.5,459.5C 469.398,473.446 469.898,487.446 469,501.5C 462.788,511.948 455.621,521.614 447.5,530.5 Z"/></g>
<g><path style="opacity:1" fill="#000000" d="M 356.5,267.5 C 366.282,280.243 369.282,294.576 365.5,310.5C 356.385,333.774 339.719,348.941 315.5,356C 284.525,361.337 259.359,351.503 240,326.5C 237.007,321.012 234.507,315.345 232.5,309.5C 229.108,293.471 232.442,279.137 242.5,266.5C 252.81,256.683 265.143,251.183 279.5,250C 292.833,249.333 306.167,249.333 319.5,250C 333.738,252.119 346.071,257.952 356.5,267.5 Z"/></g>
<g><path style="opacity:1" fill="#8d8984" d="M 242.5,266.5 C 232.442,279.137 229.108,293.471 232.5,309.5C 217.743,317.336 210.41,329.67 210.5,346.5C 211.514,362.403 214.014,378.07 218,393.5C 227.209,427.458 236.209,461.458 245,495.5C 249,517.983 250.5,540.649 249.5,563.5C 247.063,563.756 244.729,564.423 242.5,565.5C 239.673,561.841 236.34,558.674 232.5,556C 227.09,552.716 221.924,552.882 217,556.5C 216.261,552.615 214.927,548.948 213,545.5C 208.466,541.301 204.299,536.801 200.5,532C 194.843,530.282 190.343,531.782 187,536.5C 185.239,544.388 184.239,552.388 184,560.5C 181.203,558.408 178.37,556.408 175.5,554.5C 174.958,539.171 174.458,523.838 174,508.5C 173,507.5 172,506.5 171,505.5C 169.806,520.169 168.306,534.502 166.5,548.5C 161.477,542.481 156.477,536.481 151.5,530.5C 149.088,518.299 147.754,505.966 147.5,493.5C 148.288,461.833 149.121,430.166 150,398.5C 149.973,377.045 152.973,356.045 159,335.5C 169.521,305.316 189.354,283.816 218.5,271C 226.369,267.518 234.369,266.018 242.5,266.5 Z"/></g>
<g><path style="opacity:1" fill="#8d8984" d="M 447.5,530.5 C 443.537,534.964 439.37,539.298 435,543.5C 433.579,545.405 432.412,547.405 431.5,549.5C 430.007,535.347 428.84,521.014 428,506.5C 427.767,504.22 426.934,502.22 425.5,500.5C 424.885,518.537 423.885,536.537 422.5,554.5C 419.476,556.013 416.809,558.013 414.5,560.5C 413.833,557.167 413.167,553.833 412.5,550.5C 413.593,543.794 411.926,537.961 407.5,533C 404.558,531.876 401.558,531.542 398.5,532C 393.387,537.113 388.221,542.279 383,547.5C 381.853,550.618 380.52,553.618 379,556.5C 373.173,553.499 367.673,553.999 362.5,558C 360.167,561 357.833,564 355.5,567C 352.498,566.842 349.498,566.342 346.5,565.5C 344.67,535.127 347.503,505.127 355,475.5C 366.733,438.366 376.4,400.7 384,362.5C 389.709,340.547 383.542,323.213 365.5,310.5C 369.282,294.576 366.282,280.243 356.5,267.5C 357.097,266.861 357.93,266.528 359,266.5C 376.478,269.491 391.978,276.657 405.5,288C 432.311,315.15 445.811,347.984 446,386.5C 447.02,424.019 448.52,461.519 450.5,499C 450.042,509.584 449.042,520.084 447.5,530.5 Z"/></g>
<g><path style="opacity:1" fill="#737069" d="M 232.5,309.5 C 234.507,315.345 237.007,321.012 240,326.5C 259.359,351.503 284.525,361.337 315.5,356C 339.719,348.941 356.385,333.774 365.5,310.5C 383.542,323.213 389.709,340.547 384,362.5C 376.4,400.7 366.733,438.366 355,475.5C 347.503,505.127 344.67,535.127 346.5,565.5C 330.769,570.131 314.936,574.465 299,578.5C 289.437,574.987 279.603,572.487 269.5,571C 262.685,568.566 256.018,566.066 249.5,563.5C 250.5,540.649 249,517.983 245,495.5C 236.209,461.458 227.209,427.458 218,393.5C 214.014,378.07 211.514,362.403 210.5,346.5C 210.41,329.67 217.743,317.336 232.5,309.5 Z"/></g>
<g><path style="opacity:1" fill="#f19c9f" d="M 296.5,381.5 C 299.271,381.421 301.937,381.921 304.5,383C 317.767,390.967 331.767,397.3 346.5,402C 350.486,402.499 354.486,402.666 358.5,402.5C 359.717,425.096 357.884,447.43 353,469.5C 349.226,484.553 341.726,497.386 330.5,508C 310.908,520.625 290.908,521.292 270.5,510C 258.192,499.902 250.025,487.068 246,471.5C 240.692,448.812 238.526,425.812 239.5,402.5C 246.322,402.876 252.988,402.043 259.5,400C 272.173,394.33 284.506,388.164 296.5,381.5 Z"/></g>
<g><path style="opacity:1" fill="#73706a" d="M 431.5,549.5 C 428.296,550.727 425.296,552.394 422.5,554.5C 423.885,536.537 424.885,518.537 425.5,500.5C 426.934,502.22 427.767,504.22 428,506.5C 428.84,521.014 430.007,535.347 431.5,549.5 Z"/></g>
<g><path style="opacity:1" fill="#74706a" d="M 175.5,554.5 C 172.337,552.645 169.337,550.645 166.5,548.5C 168.306,534.502 169.806,520.169 171,505.5C 172,506.5 173,507.5 174,508.5C 174.458,523.838 174.958,539.171 175.5,554.5 Z"/></g>
<g><path style="opacity:1" fill="#3e3c3a" d="M 412.5,550.5 C 413.167,553.833 413.833,557.167 414.5,560.5C 414.44,561.043 414.107,561.376 413.5,561.5C 412.511,557.893 412.177,554.226 412.5,550.5 Z"/></g>
</svg>
