<?xml version="1.0" encoding="UTF-8"?>
<!DOCTYPE svg PUBLIC "-//W3C//DTD SVG 1.1//EN" "http://www.w3.org/Graphics/SVG/1.1/DTD/svg11.dtd">
<svg xmlns="http://www.w3.org/2000/svg" version="1.1" width="600px" height="600px" style="shape-rendering:geometricPrecision; text-rendering:geometricPrecision; image-rendering:optimizeQuality; fill-rule:evenodd; clip-rule:evenodd" xmlns:xlink="http://www.w3.org/1999/xlink">
<g><path style="opacity:0.95" fill="#010000" d="M 292.5,51.5 C 327.262,50.5366 360.928,56.0366 393.5,68C 400.991,71.5783 408.324,75.4117 415.5,79.5C 417.098,78.5153 418.765,78.3486 420.5,79C 456.437,90.0487 486.937,109.549 512,137.5C 544.996,172.791 570.996,212.791 590,257.5C 595.653,274.473 596.986,291.807 594,309.5C 578.029,381.432 550.363,448.432 511,510.5C 503.601,521.9 494.768,532.066 484.5,541C 469.545,551.194 456.711,549.027 446,534.5C 433.135,511.246 423.801,486.579 418,460.5C 412.518,437.325 409.851,413.992 410,390.5C 407.619,398.74 405.619,407.073 404,415.5C 401.698,433.89 399.031,452.223 396,470.5C 394.031,479.414 390.697,487.747 386,495.5C 384.18,507.451 380.514,518.784 375,529.5C 370.347,536.826 363.68,540.16 355,539.5C 345.735,539.078 337.235,536.245 329.5,531C 322.5,526 315.5,521 308.5,516C 301.122,512.296 294.122,512.963 287.5,518C 278.281,525.55 268.281,531.883 257.5,537C 240.923,543.923 228.756,539.423 221,523.5C 217.243,514.141 214.577,504.475 213,494.5C 206.42,483.762 202.42,472.095 201,459.5C 199.136,436.115 195.136,413.115 189,390.5C 188.792,434.203 180.126,476.203 163,516.5C 158.809,527.412 152.309,536.578 143.5,544C 137.151,547.742 130.484,548.409 123.5,546C 118.494,543.499 113.827,540.499 109.5,537C 99.5766,526.311 90.7433,514.811 83,502.5C 48.5146,445.397 23.1812,384.397 7,319.5C 1.41783,297.813 2.41783,276.479 10,255.5C 34.4612,200.05 69.2946,152.216 114.5,112C 133.826,97.3356 155.159,86.3356 178.5,79C 180.856,78.8446 183.189,78.8446 185.5,79C 206.705,66.0417 229.705,58.0417 254.5,55C 267.279,53.3745 279.946,52.2078 292.5,51.5 Z"/></g>
<g><path style="opacity:1" fill="#352d2b" d="M 413.5,90.5 C 414.128,93.09 415.295,95.4234 417,97.5C 447.397,132.047 460.397,172.38 456,218.5C 455.261,238.935 451.928,258.935 446,278.5C 440.102,296.034 433.935,313.368 427.5,330.5C 424.26,329.258 420.926,329.424 417.5,331C 412.565,333.606 407.898,336.606 403.5,340C 390.737,344.923 378.903,343.089 368,334.5C 365.347,343.772 362.68,353.105 360,362.5C 359.333,364.5 359.333,366.5 360,368.5C 375.445,395.002 384.945,423.336 388.5,453.5C 386.958,467.333 382.791,480.333 376,492.5C 374.393,503.712 371.059,514.379 366,524.5C 363.323,528.338 359.656,530.005 355,529.5C 347.638,528.574 340.805,526.074 334.5,522C 327.5,517 320.5,512 313.5,507C 302.756,501.757 292.423,502.424 282.5,509C 274.103,515.06 265.437,520.727 256.5,526C 243.074,533.516 233.908,530.016 229,515.5C 226.317,508.756 224.651,501.756 224,494.5C 217.21,481.964 212.71,468.631 210.5,454.5C 214.241,424.11 223.741,395.443 239,368.5C 239.667,366.5 239.667,364.5 239,362.5C 236.499,353.161 233.999,343.827 231.5,334.5C 221.852,341.667 211.185,344.167 199.5,342C 193.5,338.333 187.5,334.667 181.5,331C 178.243,329.957 174.91,329.457 171.5,329.5C 156.625,295.357 147.125,259.691 143,222.5C 137.551,174.292 150.884,132.292 183,96.5C 184.122,94.5932 184.955,92.5932 185.5,90.5C 219.713,69.9882 256.88,60.6548 297,62.5C 328.12,61.6593 358.287,66.4926 387.5,77C 396.556,80.9239 405.223,85.4239 413.5,90.5 Z"/></g>
<g><path style="opacity:1" fill="#28201e" d="M 413.5,368.5 C 418.442,356.157 423.109,343.491 427.5,330.5C 433.935,313.368 440.102,296.034 446,278.5C 451.928,258.935 455.261,238.935 456,218.5C 460.397,172.38 447.397,132.047 417,97.5C 415.295,95.4234 414.128,93.09 413.5,90.5C 419.025,89.4923 424.358,90.3256 429.5,93C 462.587,106.301 490.42,126.801 513,154.5C 541.45,187.033 564.117,223.366 581,263.5C 583.897,271.573 585.064,279.906 584.5,288.5C 583.857,309.741 580.024,330.408 573,350.5C 555.089,408.649 529.422,462.983 496,513.5C 491.167,519 486.333,524.5 481.5,530C 469.41,540.094 459.577,538.261 452,524.5C 428.654,477.101 418.654,427.101 422,374.5C 420.331,370.639 417.498,368.639 413.5,368.5 Z"/></g>
<g><path style="opacity:1" fill="#28201e" d="M 185.5,90.5 C 184.955,92.5932 184.122,94.5932 183,96.5C 150.884,132.292 137.551,174.292 143,222.5C 147.125,259.691 156.625,295.357 171.5,329.5C 175.994,341.817 179.994,354.317 183.5,367C 183.836,368.03 184.503,368.53 185.5,368.5C 181.502,368.639 178.669,370.639 177,374.5C 180.545,421.672 172.878,467.005 154,510.5C 150.841,517.488 147.174,524.154 143,530.5C 136.593,537.446 129.426,538.28 121.5,533C 110.55,522.715 101.05,511.215 93,498.5C 57.1192,439.728 31.4526,376.728 16,309.5C 13.4935,294 14.1601,278.667 18,263.5C 38.9397,214.097 68.4397,170.597 106.5,133C 127.35,113.187 151.517,98.6867 179,89.5C 181.099,90.2865 183.266,90.6199 185.5,90.5 Z"/></g>
<g><path style="opacity:1" fill="#cba670" d="M 231.5,178.5 C 249.13,178.463 259.463,187.13 262.5,204.5C 262.493,212.671 258.493,215.838 250.5,214C 242.725,209.224 235.225,204.057 228,198.5C 224.889,194.278 223.889,189.611 225,184.5C 226.436,181.558 228.603,179.558 231.5,178.5 Z"/></g>
<g><path style="opacity:1" fill="#cba670" d="M 358.5,178.5 C 373.299,177.469 377.799,183.802 372,197.5C 365.098,203.034 357.932,208.201 350.5,213C 342.151,216.497 337.484,213.83 336.5,205C 338.282,191.397 345.616,182.564 358.5,178.5 Z"/></g>
<g><path style="opacity:1" fill="#020202" d="M 217.5,217.5 C 233.69,215.67 244.524,222.337 250,237.5C 251.187,257.817 241.687,268.817 221.5,270.5C 203.846,266.534 196.013,255.534 198,237.5C 201.351,227.65 207.851,220.983 217.5,217.5 Z"/></g>
<g><path style="opacity:1" fill="#020202" d="M 368.5,217.5 C 391.206,216.374 402.039,227.04 401,249.5C 396.092,264.715 385.592,271.548 369.5,270C 353.915,264.659 347.082,253.826 349,237.5C 352.378,227.624 358.878,220.957 368.5,217.5 Z"/></g>
<g><path style="opacity:1" fill="#f3f3f3" d="M 227.5,227.5 C 235.494,226.329 238.994,229.663 238,237.5C 234.011,242.356 229.678,242.689 225,238.5C 222.826,234.193 223.659,230.526 227.5,227.5 Z"/></g>
<g><path style="opacity:1" fill="#f2f2f2" d="M 377.5,227.5 C 383.766,226.117 387.433,228.45 388.5,234.5C 387.383,240.732 383.717,242.898 377.5,241C 372.248,236.506 372.248,232.006 377.5,227.5 Z"/></g>
<g><path style="opacity:1" fill="#cba670" d="M 171.5,329.5 C 174.91,329.457 178.243,329.957 181.5,331C 187.5,334.667 193.5,338.333 199.5,342C 211.185,344.167 221.852,341.667 231.5,334.5C 233.999,343.827 236.499,353.161 239,362.5C 239.667,364.5 239.667,366.5 239,368.5C 223.741,395.443 214.241,424.11 210.5,454.5C 208.788,431.469 204.955,408.802 199,386.5C 197.578,381.227 195.578,376.227 193,371.5C 190.692,370.009 188.192,369.009 185.5,368.5C 184.503,368.53 183.836,368.03 183.5,367C 179.994,354.317 175.994,341.817 171.5,329.5 Z"/></g>
<g><path style="opacity:1" fill="#cca670" d="M 427.5,330.5 C 423.109,343.491 418.442,356.157 413.5,368.5C 410.808,369.009 408.308,370.009 406,371.5C 396.202,397.946 390.368,425.279 388.5,453.5C 384.945,423.336 375.445,395.002 360,368.5C 359.333,366.5 359.333,364.5 360,362.5C 362.68,353.105 365.347,343.772 368,334.5C 378.903,343.089 390.737,344.923 403.5,340C 407.898,336.606 412.565,333.606 417.5,331C 420.926,329.424 424.26,329.258 427.5,330.5 Z"/></g>
<g><path style="opacity:1" fill="#010202" d="M 289.5,433.5 C 304.508,432.338 318.841,434.838 332.5,441C 344.533,452.364 345.7,464.864 336,478.5C 333.833,480.667 331.667,482.833 329.5,485C 323.541,487.644 317.541,490.311 311.5,493C 298.982,497.339 286.982,496.006 275.5,489C 261.834,481.5 255.667,470 257,454.5C 259.771,446.73 264.937,441.23 272.5,438C 278.164,436.002 283.83,434.502 289.5,433.5 Z"/></g>
</svg>
