<?xml version="1.0" encoding="UTF-8"?>
<!DOCTYPE svg PUBLIC "-//W3C//DTD SVG 1.1//EN" "http://www.w3.org/Graphics/SVG/1.1/DTD/svg11.dtd">
<svg xmlns="http://www.w3.org/2000/svg" version="1.1" width="600px" height="600px" style="shape-rendering:geometricPrecision; text-rendering:geometricPrecision; image-rendering:optimizeQuality; fill-rule:evenodd; clip-rule:evenodd" xmlns:xlink="http://www.w3.org/1999/xlink">
<g><path style="opacity:0.962" fill="#010000" d="M 284.5,3.5 C 316.56,1.41194 346.894,7.5786 375.5,22C 393.886,32.5967 408.386,47.0967 419,65.5C 425.528,80.0843 431.861,94.751 438,109.5C 452.526,136.552 466.526,163.885 480,191.5C 485.202,202.972 488.535,214.972 490,227.5C 491.074,264.829 492.074,302.162 493,339.5C 495.655,387.07 502.321,434.07 513,480.5C 519.602,508.74 526.435,536.907 533.5,565C 531.463,577.044 524.463,584.71 512.5,588C 491.464,593.658 470.13,594.992 448.5,592C 414.181,585.35 390.347,565.85 377,533.5C 369.025,510.765 362.859,487.598 358.5,464C 352.774,461.608 348.274,457.774 345,452.5C 340.418,444.334 335.585,436.334 330.5,428.5C 320.435,432.705 309.935,434.372 299,433.5C 293.833,433.333 288.667,433.167 283.5,433C 277.793,431.818 272.126,430.818 266.5,430C 261.043,439.751 255.21,449.251 249,458.5C 246.081,461.6 242.581,463.6 238.5,464.5C 235.602,491.092 229.102,516.759 219,541.5C 204.668,571.148 181.168,588.648 148.5,594C 130.056,596.387 111.723,595.72 93.5,592C 82.8187,590.25 74.3187,585.084 68,576.5C 66.8529,573.245 66.0196,569.912 65.5,566.5C 79.3453,514.786 90.1787,462.453 98,409.5C 100.882,386.912 102.882,364.245 104,341.5C 105.067,304.175 105.733,266.841 106,229.5C 107.1,218.433 109.767,207.767 114,197.5C 128.713,167.074 143.713,136.741 159,106.5C 177.284,43.3752 219.118,9.04186 284.5,3.5 Z"/></g>
<g><path style="opacity:1" fill="#c28d44" d="M 436.5,130.5 C 435.844,160.564 432.011,190.231 425,219.5C 421.707,230.004 419.041,240.67 417,251.5C 403.517,286.781 392.351,322.781 383.5,359.5C 382.51,353.69 382.177,347.69 382.5,341.5C 382.297,308.682 374.297,278.015 358.5,249.5C 361.928,249.453 364.928,248.287 367.5,246C 371.98,241.189 376.813,236.689 382,232.5C 392.948,213.66 399.948,193.327 403,171.5C 404.942,149.55 396.442,133.05 377.5,122C 361.064,112.474 343.397,108.141 324.5,109C 324,109.5 323.5,110 323,110.5C 321.573,126.735 322.906,142.735 327,158.5C 330.212,171.919 333.712,185.252 337.5,198.5C 337.457,199.416 337.124,200.083 336.5,200.5C 323.458,180.832 305.458,174.332 282.5,181C 269.103,186.893 260.103,196.727 255.5,210.5C 254.903,210.265 254.57,209.765 254.5,209C 262.957,183.672 269.124,157.839 273,131.5C 273.667,124.833 273.667,118.167 273,111.5C 272.167,110.667 271.333,109.833 270.5,109C 244.15,107.448 221.983,116.281 204,135.5C 196.559,146.366 193.559,158.366 195,171.5C 197.235,193.54 204.235,213.874 216,232.5C 221.822,240.164 228.655,246.498 236.5,251.5C 223.122,274.672 216.122,299.672 215.5,326.5C 214.833,337.833 214.167,349.167 213.5,360.5C 205.666,326.827 195.499,293.827 183,261.5C 168.586,219.684 160.42,176.684 158.5,132.5C 167.487,113.524 175.654,94.1907 183,74.5C 203.772,39.5027 234.605,19.6694 275.5,15C 314.945,9.2397 350.945,17.573 383.5,40C 402.327,55.8519 415.161,75.6852 422,99.5C 426.845,109.855 431.678,120.188 436.5,130.5 Z"/></g>
<g><path style="opacity:1" fill="#ac7b3b" d="M 262.5,29.5 C 265.425,29.4598 268.091,30.2932 270.5,32C 286.404,47.3962 293.237,66.2295 291,88.5C 289.989,89.3366 288.822,89.67 287.5,89.5C 288.154,73.9254 284.321,59.5921 276,46.5C 272.194,41.6891 267.527,38.0225 262,35.5C 261.51,33.4546 261.677,31.4546 262.5,29.5 Z"/></g>
<g><path style="opacity:1" fill="#ac7c3b" d="M 324.5,29.5 C 329,29.1638 330.833,31.1638 330,35.5C 317.742,42.3179 310.076,52.6512 307,66.5C 305.945,74.1565 304.945,81.8232 304,89.5C 302.605,90.8146 301.605,90.4812 301,88.5C 299.644,71.6203 303.311,55.9537 312,41.5C 315.486,36.6952 319.653,32.6952 324.5,29.5 Z"/></g>
<g><path style="opacity:1" fill="#ac7c3b" d="M 248.5,66.5 C 260.831,65.4175 268.997,70.7509 273,82.5C 275.577,89.4276 275.91,96.4276 274,103.5C 272.644,104.38 271.144,104.714 269.5,104.5C 272.306,92.5461 269.306,82.3794 260.5,74C 252.059,70.8567 244.725,72.5234 238.5,79C 234.633,79.3076 233.633,77.6409 235.5,74C 239.602,70.9539 243.935,68.4539 248.5,66.5 Z"/></g>
<g><path style="opacity:1" fill="#ac7b3b" d="M 338.5,66.5 C 347.722,66.3487 355.389,69.6821 361.5,76.5C 360.833,77.8333 359.833,78.8333 358.5,79.5C 339.55,66.309 328.55,71.1424 325.5,94C 325.913,97.1957 326.08,100.362 326,103.5C 323.978,104.991 322.312,104.658 321,102.5C 318.351,89.0388 322.185,77.8721 332.5,69C 334.611,68.1553 336.611,67.322 338.5,66.5 Z"/></g>
<g><path style="opacity:1" fill="#86623e" d="M 255.5,210.5 C 249.936,224.622 243.603,238.288 236.5,251.5C 228.655,246.498 221.822,240.164 216,232.5C 204.235,213.874 197.235,193.54 195,171.5C 193.559,158.366 196.559,146.366 204,135.5C 221.983,116.281 244.15,107.448 270.5,109C 271.333,109.833 272.167,110.667 273,111.5C 273.667,118.167 273.667,124.833 273,131.5C 269.124,157.839 262.957,183.672 254.5,209C 254.57,209.765 254.903,210.265 255.5,210.5 Z"/></g>
<g><path style="opacity:1" fill="#86623e" d="M 358.5,249.5 C 357.624,249.631 356.957,249.298 356.5,248.5C 348.139,233.122 341.472,217.122 336.5,200.5C 337.124,200.083 337.457,199.416 337.5,198.5C 333.712,185.252 330.212,171.919 327,158.5C 322.906,142.735 321.573,126.735 323,110.5C 323.5,110 324,109.5 324.5,109C 343.397,108.141 361.064,112.474 377.5,122C 396.442,133.05 404.942,149.55 403,171.5C 399.948,193.327 392.948,213.66 382,232.5C 376.813,236.689 371.98,241.189 367.5,246C 364.928,248.287 361.928,249.453 358.5,249.5 Z"/></g>
<g><path style="opacity:1" fill="#ed999c" d="M 213.5,145.5 C 213.511,147.017 214.177,148.184 215.5,149C 225.797,153.9 233.63,151.4 239,141.5C 239.706,137.113 239.54,132.78 238.5,128.5C 240.656,126.159 243.156,124.159 246,122.5C 254.076,140.712 248.909,153.545 230.5,161C 220.431,163.033 212.098,160.2 205.5,152.5C 208.161,150.173 210.828,147.84 213.5,145.5 Z"/></g>
<g><path style="opacity:1" fill="#ec999b" d="M 360.5,128.5 C 356.119,141.079 360.452,148.412 373.5,150.5C 377.812,150.731 381.479,149.398 384.5,146.5C 387.283,148.067 389.949,149.9 392.5,152C 385.524,159.879 376.857,162.546 366.5,160C 352.723,153.95 347.223,143.45 350,128.5C 350.36,126.579 351.194,124.912 352.5,123.5C 355.568,124.691 358.235,126.358 360.5,128.5 Z"/></g>
<g><path style="opacity:1" fill="#050202" d="M 238.5,128.5 C 239.54,132.78 239.706,137.113 239,141.5C 233.63,151.4 225.797,153.9 215.5,149C 214.177,148.184 213.511,147.017 213.5,145.5C 221.577,139.417 229.911,133.75 238.5,128.5 Z"/></g>
<g><path style="opacity:1" fill="#030101" d="M 360.5,128.5 C 368.896,134.025 376.896,140.025 384.5,146.5C 381.479,149.398 377.812,150.731 373.5,150.5C 360.452,148.412 356.119,141.079 360.5,128.5 Z"/></g>
<g><path style="opacity:1" fill="#412c28" d="M 436.5,130.5 C 450.627,155.087 463.461,180.421 475,206.5C 479.583,221.639 481.75,237.139 481.5,253C 479.459,320.048 484.626,386.548 497,452.5C 504.188,488.107 512.521,523.441 522,558.5C 524.206,568.591 520.373,575.091 510.5,578C 487.67,584.446 464.67,585.113 441.5,580C 417.513,572.348 400.013,557.181 389,534.5C 379.536,510.978 373.036,486.645 369.5,461.5C 373.813,458.226 376.647,453.892 378,448.5C 381.653,418.933 383.487,389.266 383.5,359.5C 392.351,322.781 403.517,286.781 417,251.5C 419.041,240.67 421.707,230.004 425,219.5C 432.011,190.231 435.844,160.564 436.5,130.5 Z"/></g>
<g><path style="opacity:1" fill="#412c28" d="M 158.5,132.5 C 160.42,176.684 168.586,219.684 183,261.5C 195.499,293.827 205.666,326.827 213.5,360.5C 214.234,361.708 214.567,363.041 214.5,364.5C 214.58,391.251 216.08,417.918 219,444.5C 220.271,448.979 221.938,453.312 224,457.5C 225.371,459.041 226.871,460.375 228.5,461.5C 225.494,486.192 219.66,510.192 211,533.5C 194.066,568.318 166.066,585.651 127,585.5C 111.524,585.838 96.6905,583.005 82.5,577C 76.9592,573.178 75.1259,568.011 77,561.5C 91.8461,507.269 102.846,452.269 110,396.5C 112.563,374.235 114.23,351.901 115,329.5C 115.333,297.167 115.667,264.833 116,232.5C 117.37,218.058 121.37,204.392 128,191.5C 137.686,171.458 147.852,151.792 158.5,132.5 Z"/></g>
<g><path style="opacity:1" fill="#5a443a" d="M 336.5,200.5 C 341.472,217.122 348.139,233.122 356.5,248.5C 356.957,249.298 357.624,249.631 358.5,249.5C 374.297,278.015 382.297,308.682 382.5,341.5C 370.119,329.451 357.786,317.451 345.5,305.5C 338.908,297.03 330.242,291.864 319.5,290C 304.167,287.086 288.833,287.419 273.5,291C 251.448,297.927 242.948,312.76 248,335.5C 251.302,345.966 257.469,354.3 266.5,360.5C 281.245,376.748 296.579,392.581 312.5,408C 312.272,408.399 311.938,408.565 311.5,408.5C 302.753,404.343 294.086,404.51 285.5,409C 280.713,411.955 276.38,415.455 272.5,419.5C 268.77,418.011 265.103,418.178 261.5,420C 258.639,422.894 256.139,426.061 254,429.5C 250.171,437.163 245.837,444.496 241,451.5C 238.331,454.164 235.164,455.998 231.5,457C 230.601,458.652 229.601,460.152 228.5,461.5C 226.871,460.375 225.371,459.041 224,457.5C 221.938,453.312 220.271,448.979 219,444.5C 216.08,417.918 214.58,391.251 214.5,364.5C 215.495,352.011 215.829,339.344 215.5,326.5C 216.122,299.672 223.122,274.672 236.5,251.5C 243.603,238.288 249.936,224.622 255.5,210.5C 260.103,196.727 269.103,186.893 282.5,181C 305.458,174.332 323.458,180.832 336.5,200.5 Z"/></g>
<g><path style="opacity:1" fill="#020204" d="M 345.5,305.5 C 352.949,320.785 351.782,335.452 342,349.5C 330.75,363.761 316.083,371.428 298,372.5C 286.227,371.744 275.727,367.744 266.5,360.5C 257.469,354.3 251.302,345.966 248,335.5C 242.948,312.76 251.448,297.927 273.5,291C 288.833,287.419 304.167,287.086 319.5,290C 330.242,291.864 338.908,297.03 345.5,305.5 Z"/></g>
<g><path style="opacity:1" fill="#533f35" d="M 345.5,305.5 C 357.786,317.451 370.119,329.451 382.5,341.5C 382.177,347.69 382.51,353.69 383.5,359.5C 383.487,389.266 381.653,418.933 378,448.5C 376.647,453.892 373.813,458.226 369.5,461.5C 368.952,459.606 367.952,457.94 366.5,456.5C 362.398,455.035 358.898,452.701 356,449.5C 350.333,439.495 344.166,429.828 337.5,420.5C 333.315,418.269 328.982,417.935 324.5,419.5C 320.46,415.458 316.127,411.791 311.5,408.5C 311.938,408.565 312.272,408.399 312.5,408C 296.579,392.581 281.245,376.748 266.5,360.5C 275.727,367.744 286.227,371.744 298,372.5C 316.083,371.428 330.75,363.761 342,349.5C 351.782,335.452 352.949,320.785 345.5,305.5 Z"/></g>
<g><path style="opacity:1" fill="#7b5a3c" d="M 215.5,326.5 C 215.829,339.344 215.495,352.011 214.5,364.5C 214.567,363.041 214.234,361.708 213.5,360.5C 214.167,349.167 214.833,337.833 215.5,326.5 Z"/></g>
<g><path style="opacity:1" fill="#412c28" d="M 311.5,408.5 C 316.127,411.791 320.46,415.458 324.5,419.5C 322.641,420.594 320.641,421.427 318.5,422C 305.159,423.914 291.825,423.914 278.5,422C 276.277,421.434 274.277,420.6 272.5,419.5C 276.38,415.455 280.713,411.955 285.5,409C 294.086,404.51 302.753,404.343 311.5,408.5 Z"/></g>
</svg>
