<?xml version="1.0" encoding="UTF-8"?>
<!DOCTYPE svg PUBLIC "-//W3C//DTD SVG 1.1//EN" "http://www.w3.org/Graphics/SVG/1.1/DTD/svg11.dtd">
<svg xmlns="http://www.w3.org/2000/svg" version="1.1" width="600px" height="600px" style="shape-rendering:geometricPrecision; text-rendering:geometricPrecision; image-rendering:optimizeQuality; fill-rule:evenodd; clip-rule:evenodd" xmlns:xlink="http://www.w3.org/1999/xlink">
<g><path style="opacity:0.961" fill="#010101" d="M 274.5,61.5 C 307.635,59.2882 340.301,62.1216 372.5,70C 389.107,74.3053 404.441,81.3053 418.5,91C 452.273,100.161 481.606,116.828 506.5,141C 541.353,175.185 569.186,214.352 590,258.5C 596.496,274.293 598.496,290.626 596,307.5C 590.024,337.762 581.024,367.095 569,395.5C 551.377,439.769 528.377,480.769 500,518.5C 493.993,525.848 486.827,531.681 478.5,536C 469.561,539.898 461.228,538.898 453.5,533C 445.217,524.949 439.05,515.449 435,504.5C 421.492,472.133 413.158,438.466 410,403.5C 408.079,410.436 406.413,417.436 405,424.5C 402.761,445.281 399.761,465.948 396,486.5C 393.559,497.553 388.392,507.053 380.5,515C 371.286,519.794 361.619,520.794 351.5,518C 344.859,516.123 338.692,513.29 333,509.5C 311.938,512.96 290.771,513.293 269.5,510.5C 262.119,512.682 254.785,515.182 247.5,518C 226.566,523.451 212.732,515.951 206,495.5C 200.181,475.587 196.848,455.254 196,434.5C 194.299,423.696 191.966,413.029 189,402.5C 186.34,437.14 178.34,470.473 165,502.5C 160.544,514.588 153.71,525.088 144.5,534C 133.797,540.055 123.463,539.388 113.5,532C 104.305,524.105 96.1386,515.272 89,505.5C 48.9825,446.451 20.6492,382.118 4,312.5C 0.15502,292.373 2.48835,273.04 11,254.5C 36.4468,202.379 71.6134,157.879 116.5,121C 136.002,107.251 157.335,97.2511 180.5,91C 199.723,78.3663 220.723,70.033 243.5,66C 253.944,64.2391 264.277,62.7391 274.5,61.5 Z"/></g>
<g><path style="opacity:1" fill="#2d2c2c" d="M 413.5,100.5 C 413.755,103.016 414.589,105.35 416,107.5C 450.326,144.082 463.659,187.415 456,237.5C 453.67,258.486 448.67,278.82 441,298.5C 435.717,312.71 430.217,326.71 424.5,340.5C 422.801,340.34 421.134,340.506 419.5,341C 412.9,344.605 406.566,348.605 400.5,353C 394.006,357.014 387.006,358.348 379.5,357C 377.246,355.623 375.08,354.123 373,352.5C 372.601,352.728 372.435,353.062 372.5,353.5C 360.368,330.571 347.201,308.238 333,286.5C 320.732,266.698 313.899,245.198 312.5,222C 312.747,210.603 314.414,199.436 317.5,188.5C 316.785,181.853 316.285,175.187 316,168.5C 314.498,158.509 308.998,152.176 299.5,149.5C 294.726,150.143 290.893,152.476 288,156.5C 285.428,161.144 283.261,165.978 281.5,171C 282.745,176.151 282.745,181.318 281.5,186.5C 285.185,200.478 286.852,214.644 286.5,229C 283.958,247.587 278.125,265.087 269,281.5C 254.051,305.069 239.884,329.069 226.5,353.5C 217.144,358.942 207.81,358.776 198.5,353C 191.223,347.195 183.223,342.695 174.5,339.5C 163.056,314.004 153.89,287.671 147,260.5C 140.262,231.214 139.929,201.881 146,172.5C 152.408,147.338 164.742,125.671 183,107.5C 184.411,105.35 185.245,103.016 185.5,100.5C 209.986,84.2817 236.986,75.1151 266.5,73C 297.343,70.2622 328.009,71.5955 358.5,77C 378.366,81.4485 396.699,89.2818 413.5,100.5 Z"/></g>
<g><path style="opacity:1" fill="#1d1d1d" d="M 185.5,100.5 C 185.245,103.016 184.411,105.35 183,107.5C 164.742,125.671 152.408,147.338 146,172.5C 139.929,201.881 140.262,231.214 147,260.5C 153.89,287.671 163.056,314.004 174.5,339.5C 176.893,347.179 179.393,354.846 182,362.5C 184.597,370.65 186.097,378.984 186.5,387.5C 182.98,388.183 180.48,390.183 179,393.5C 176.942,431.731 168.275,468.398 153,503.5C 149.529,511.617 144.695,518.783 138.5,525C 133.167,528.333 127.833,528.333 122.5,525C 115.374,520.208 109.207,514.375 104,507.5C 68.222,456.608 40.8886,401.275 22,341.5C 16.7789,325.394 13.6122,308.894 12.5,292C 12.8546,283.612 14.3546,275.445 17,267.5C 42.4329,210.465 79.9329,162.965 129.5,125C 146.864,113.817 165.531,105.65 185.5,100.5 Z"/></g>
<g><path style="opacity:1" fill="#1d1d1d" d="M 413.5,100.5 C 441.806,108.151 467.139,121.318 489.5,140C 529.85,176.533 561.017,219.7 583,269.5C 586.951,282.28 587.617,295.28 585,308.5C 577.322,344.52 565.655,379.187 550,412.5C 534.393,448.405 514.726,481.738 491,512.5C 485.98,518.86 479.813,523.693 472.5,527C 465.655,528.33 460.155,526.164 456,520.5C 441.682,495.557 431.682,468.891 426,440.5C 423.53,424.876 421.53,409.21 420,393.5C 418.52,390.183 416.02,388.183 412.5,387.5C 414.468,371.295 418.468,355.628 424.5,340.5C 430.217,326.71 435.717,312.71 441,298.5C 448.67,278.82 453.67,258.486 456,237.5C 463.659,187.415 450.326,144.082 416,107.5C 414.589,105.35 413.755,103.016 413.5,100.5 Z"/></g>
<g><path style="opacity:1" fill="#b3b3b3" d="M 293.5,167.5 C 300.145,166.977 301.811,169.477 298.5,175C 296.559,175.743 294.726,175.576 293,174.5C 292.501,178.486 292.334,182.486 292.5,186.5C 291.836,184.022 291.503,181.355 291.5,178.5C 291.294,174.531 291.961,170.865 293.5,167.5 Z"/></g>
<g><path style="opacity:1" fill="#a05b2b" d="M 230.5,188.5 C 246.876,187.37 257.376,194.704 262,210.5C 264.478,220.677 260.644,225.177 250.5,224C 243.998,220.25 237.665,216.25 231.5,212C 225.23,207.291 223.064,201.124 225,193.5C 226.73,191.598 228.563,189.931 230.5,188.5 Z"/></g>
<g><path style="opacity:1" fill="#a05b2b" d="M 359.5,188.5 C 372.318,185.941 377.818,190.941 376,203.5C 374.6,206.902 372.433,209.736 369.5,212C 363.335,216.25 357.002,220.25 350.5,224C 346.013,225.378 342.513,224.212 340,220.5C 338.476,204.873 344.976,194.206 359.5,188.5 Z"/></g>
<g><path style="opacity:1" fill="#c6a26d" d="M 216.5,222.5 C 233.478,220.666 244.978,227.666 251,243.5C 252.99,268.509 241.49,280.343 216.5,279C 200.098,273.379 192.931,261.879 195,244.5C 198.35,233.318 205.517,225.984 216.5,222.5 Z"/></g>
<g><path style="opacity:1" fill="#c7a26d" d="M 371.5,223.5 C 394.965,224.096 405.798,236.096 404,259.5C 395.425,279.94 380.925,285.773 360.5,277C 346.569,265.917 343.735,252.417 352,236.5C 356.799,229.524 363.299,225.19 371.5,223.5 Z"/></g>
<g><path style="opacity:1" fill="#030403" d="M 217.5,230.5 C 232.999,228.837 241.999,235.671 244.5,251C 243.404,263.93 236.404,271.096 223.5,272.5C 207.787,270.283 200.954,261.283 203,245.5C 205.351,237.984 210.184,232.984 217.5,230.5 Z"/></g>
<g><path style="opacity:1" fill="#050504" d="M 370.5,231.5 C 389.525,230.689 398.025,239.689 396,258.5C 391.377,269.901 382.877,274.734 370.5,273C 358.849,268.544 353.682,260.044 355,247.5C 357.711,239.624 362.878,234.291 370.5,231.5 Z"/></g>
<g><path style="opacity:1" fill="#b2b2b2" d="M 295.5,235.5 C 301,234.831 303.167,237.165 302,242.5C 299.226,243.523 296.393,243.523 293.5,242.5C 294.015,240.106 294.681,237.772 295.5,235.5 Z"/></g>
<g><path style="opacity:1" fill="#f5f5f5" d="M 228.5,238.5 C 237.85,238.365 240.517,242.532 236.5,251C 227.249,254.416 223.415,251.25 225,241.5C 226.145,240.364 227.312,239.364 228.5,238.5 Z"/></g>
<g><path style="opacity:1" fill="#f2f2f2" d="M 388.5,467.5 C 372.764,455.091 356.764,443.091 340.5,431.5C 338.461,426.622 335.127,422.788 330.5,420C 324.753,417.231 318.753,415.398 312.5,414.5C 310.372,413.719 310.205,412.719 312,411.5C 312.852,405.001 310.519,403.334 305,406.5C 304.104,409.025 304.604,411.192 306.5,413C 305.207,413.49 303.873,413.657 302.5,413.5C 293.057,413.829 283.724,414.995 274.5,417C 256.084,425.664 251.918,438.83 262,456.5C 267.206,463.209 273.706,468.209 281.5,471.5C 281.414,472.496 281.748,473.329 282.5,474C 287.015,477.03 291.349,480.197 295.5,483.5C 283.895,487.136 273.228,492.636 263.5,500C 256.616,503.275 249.616,506.275 242.5,509C 233.877,511.304 226.711,509.137 221,502.5C 201.402,458.597 203.235,415.597 226.5,373.5C 229.365,373.945 231.865,373.278 234,371.5C 234.326,368.668 233.826,366.001 232.5,363.5C 246.632,336.568 261.799,310.235 278,284.5C 285.058,271.156 290.224,257.156 293.5,242.5C 296.393,243.523 299.226,243.523 302,242.5C 303.167,237.165 301,234.831 295.5,235.5C 296.074,219.054 295.074,202.721 292.5,186.5C 292.334,182.486 292.501,178.486 293,174.5C 294.726,175.576 296.559,175.743 298.5,175C 301.811,169.477 300.145,166.977 293.5,167.5C 294.368,163.797 296.534,161.13 300,159.5C 303.298,162.075 305.631,165.408 307,169.5C 308.061,181.679 307.061,193.679 304,205.5C 303.333,215.5 303.333,225.5 304,235.5C 307.847,254.53 314.514,272.53 324,289.5C 344.439,321.364 363.106,354.364 380,388.5C 391.484,414.026 394.318,440.359 388.5,467.5 Z"/></g>
<g><path style="opacity:1" fill="#f3f3f3" d="M 380.5,238.5 C 390.052,238.197 393.052,242.364 389.5,251C 382.864,254.33 378.531,252.497 376.5,245.5C 377.071,242.687 378.404,240.354 380.5,238.5 Z"/></g>
<g><path style="opacity:1" fill="#b6b6b6" d="M 288.5,270.5 C 294.313,270.062 295.98,272.562 293.5,278C 286.745,278.756 285.078,276.256 288.5,270.5 Z"/></g>
<g><path style="opacity:1" fill="#b7b6b6" d="M 306.5,270.5 C 312.313,270.062 313.98,272.562 311.5,278C 304.745,278.756 303.078,276.256 306.5,270.5 Z"/></g>
<g><path style="opacity:1" fill="#b8b8b8" d="M 298.5,291.5 C 304.643,292.026 305.976,294.86 302.5,300C 297.504,300.664 295.67,298.498 297,293.5C 297.717,292.956 298.217,292.289 298.5,291.5 Z"/></g>
<g><path style="opacity:1" fill="#b6b6b6" d="M 284.5,300.5 C 289.984,300.481 291.65,302.981 289.5,308C 282.369,309.211 280.702,306.711 284.5,300.5 Z"/></g>
<g><path style="opacity:1" fill="#bab9b9" d="M 289.5,314.5 C 295.845,314.542 297.512,317.209 294.5,322.5C 287.851,323.221 286.184,320.555 289.5,314.5 Z"/></g>
<g><path style="opacity:1" fill="#b9b9b9" d="M 305.5,314.5 C 311.661,314.943 312.995,317.777 309.5,323C 302.4,322.752 301.067,319.919 305.5,314.5 Z"/></g>
<g><path style="opacity:1" fill="#b6b6b6" d="M 298.5,334.5 C 304.488,334.664 305.821,337.164 302.5,342C 298.798,343.393 296.798,342.226 296.5,338.5C 296.803,336.886 297.47,335.552 298.5,334.5 Z"/></g>
<g><path style="opacity:1" fill="#bababa" d="M 325.5,337.5 C 332.913,337.699 334.246,340.532 329.5,346C 323.499,345.495 322.165,342.662 325.5,337.5 Z"/></g>
<g><path style="opacity:1" fill="#b6b6b6" d="M 280.5,338.5 C 286.313,338.062 287.98,340.562 285.5,346C 278.745,346.756 277.078,344.256 280.5,338.5 Z"/></g>
<g><path style="opacity:1" fill="#9d5a2a" d="M 174.5,339.5 C 183.223,342.695 191.223,347.195 198.5,353C 207.81,358.776 217.144,358.942 226.5,353.5C 216.277,370.949 207.943,389.282 201.5,408.5C 200.13,402.685 198.296,397.019 196,391.5C 193.421,388.89 190.254,387.557 186.5,387.5C 186.097,378.984 184.597,370.65 182,362.5C 179.393,354.846 176.893,347.179 174.5,339.5 Z"/></g>
<g><path style="opacity:1" fill="#9d5a2a" d="M 424.5,340.5 C 418.468,355.628 414.468,371.295 412.5,387.5C 409.421,387.804 406.587,388.804 404,390.5C 401.226,396.6 399.226,402.933 398,409.5C 391.923,389.786 383.423,371.119 372.5,353.5C 372.435,353.062 372.601,352.728 373,352.5C 375.08,354.123 377.246,355.623 379.5,357C 387.006,358.348 394.006,357.014 400.5,353C 406.566,348.605 412.9,344.605 419.5,341C 421.134,340.506 422.801,340.34 424.5,340.5 Z"/></g>
<g><path style="opacity:1" fill="#b7b7b7" d="M 304.5,344.5 C 311.145,343.977 312.811,346.477 309.5,352C 303.98,352.37 302.313,349.87 304.5,344.5 Z"/></g>
<g><path style="opacity:1" fill="#b6b6b6" d="M 252.5,348.5 C 258.488,348.664 259.821,351.164 256.5,356C 252.798,357.393 250.798,356.226 250.5,352.5C 250.803,350.886 251.47,349.552 252.5,348.5 Z"/></g>
<g><path style="opacity:1" fill="#b8b8b8" d="M 342.5,348.5 C 349.004,348.138 350.671,350.638 347.5,356C 340.745,356.756 339.078,354.256 342.5,348.5 Z"/></g>
<g><path style="opacity:1" fill="#b9b9b9" d="M 296.5,354.5 C 303.358,355.127 304.691,357.96 300.5,363C 297.783,364.033 295.949,363.2 295,360.5C 294.252,358.16 294.752,356.16 296.5,354.5 Z"/></g>
<g><path style="opacity:1" fill="#b8b8b8" d="M 281.5,359.5 C 288.004,359.138 289.671,361.638 286.5,367C 279.745,367.756 278.078,365.256 281.5,359.5 Z"/></g>
<g><path style="opacity:1" fill="#b8b8b8" d="M 312.5,359.5 C 319.004,359.138 320.671,361.638 317.5,367C 310.745,367.756 309.078,365.256 312.5,359.5 Z"/></g>
<g><path style="opacity:1" fill="#b2b2b2" d="M 232.5,363.5 C 233.826,366.001 234.326,368.668 234,371.5C 231.865,373.278 229.365,373.945 226.5,373.5C 228.515,370.131 230.515,366.798 232.5,363.5 Z"/></g>
<g><path style="opacity:1" fill="#b6b6b6" d="M 295.5,368.5 C 303.219,367.87 305.219,370.87 301.5,377.5C 296.929,379.381 294.263,377.881 293.5,373C 293.519,371.167 294.185,369.667 295.5,368.5 Z"/></g>
<g><path style="opacity:1" fill="#b7b7b7" d="M 273.5,374.5 C 281.709,373.352 284.042,376.352 280.5,383.5C 272.149,385.125 269.816,382.125 273.5,374.5 Z"/></g>
<g><path style="opacity:1" fill="#b8b8b8" d="M 312.5,374.5 C 319.004,374.138 320.671,376.638 317.5,382C 310.745,382.756 309.078,380.256 312.5,374.5 Z"/></g>
<g><path style="opacity:1" fill="#b6b6b6" d="M 332.5,378.5 C 337.984,378.481 339.65,380.981 337.5,386C 330.369,387.211 328.702,384.711 332.5,378.5 Z"/></g>
<g><path style="opacity:1" fill="#b8b8b8" d="M 287.5,379.5 C 293.83,378.666 296.663,381.333 296,387.5C 292.333,391.5 288.667,391.5 285,387.5C 284.018,384.225 284.851,381.559 287.5,379.5 Z"/></g>
<g><path style="opacity:1" fill="#bababa" d="M 304.5,383.5 C 311.289,383.258 312.955,385.925 309.5,391.5C 302.851,392.221 301.184,389.555 304.5,383.5 Z"/></g>
<g><path style="opacity:1" fill="#b8b8b8" d="M 269.5,386.5 C 276.978,387.75 278.311,391.25 273.5,397C 267.667,397.833 265.167,395.333 266,389.5C 267.145,388.364 268.312,387.364 269.5,386.5 Z"/></g>
<g><path style="opacity:1" fill="#b6b6b6" d="M 317.5,390.5 C 324.978,390.485 327.811,394.152 326,401.5C 322,405.5 318,405.5 314,401.5C 312.663,396.916 313.829,393.249 317.5,390.5 Z"/></g>
<g><path style="opacity:1" fill="#b9b9b9" d="M 279.5,393.5 C 286.913,393.699 288.246,396.532 283.5,402C 277.481,401.445 276.147,398.612 279.5,393.5 Z"/></g>
<g><path style="opacity:1" fill="#b7b7b7" d="M 298.5,393.5 C 304.555,393.052 306.721,395.719 305,401.5C 302,405.5 299,405.5 296,401.5C 295.023,398.183 295.856,395.516 298.5,393.5 Z"/></g>
<g><path style="opacity:1" fill="#b9b9b9" d="M 242.5,394.5 C 249.492,394.976 250.825,397.809 246.5,403C 243.783,404.033 241.949,403.2 241,400.5C 240.252,398.16 240.752,396.16 242.5,394.5 Z"/></g>
<g><path style="opacity:1" fill="#b8b8b8" d="M 352.5,394.5 C 358.643,395.026 359.976,397.86 356.5,403C 351.504,403.664 349.67,401.498 351,396.5C 351.717,395.956 352.217,395.289 352.5,394.5 Z"/></g>
<g><path style="opacity:1" fill="#b7b6b6" d="M 287.5,401.5 C 294,400.499 296.5,403.165 295,409.5C 292,413.5 289,413.5 286,409.5C 285.109,406.502 285.609,403.836 287.5,401.5 Z"/></g>
<g><path style="opacity:1" fill="#b8b8b8" d="M 265.5,403.5 C 271.643,404.026 272.976,406.86 269.5,412C 264.504,412.664 262.67,410.498 264,405.5C 264.717,404.956 265.217,404.289 265.5,403.5 Z"/></g>
<g><path style="opacity:1" fill="#b8b8b8" d="M 329.5,403.5 C 335.643,404.026 336.976,406.86 333.5,412C 328.504,412.664 326.67,410.498 328,405.5C 328.717,404.956 329.217,404.289 329.5,403.5 Z"/></g>
<g><path style="opacity:1" fill="#b5b5b4" d="M 312.5,414.5 C 308.958,414.813 305.625,414.479 302.5,413.5C 303.873,413.657 305.207,413.49 306.5,413C 304.604,411.192 304.104,409.025 305,406.5C 310.519,403.334 312.852,405.001 312,411.5C 310.205,412.719 310.372,413.719 312.5,414.5 Z"/></g>
<g><path style="opacity:1" fill="#302826" d="M 302.5,413.5 C 305.625,414.479 308.958,414.813 312.5,414.5C 318.753,415.398 324.753,417.231 330.5,420C 335.127,422.788 338.461,426.622 340.5,431.5C 344.388,446.576 339.722,458.409 326.5,467C 314.168,475.388 300.835,477.722 286.5,474C 284.807,473.153 283.14,472.32 281.5,471.5C 273.706,468.209 267.206,463.209 262,456.5C 251.918,438.83 256.084,425.664 274.5,417C 283.724,414.995 293.057,413.829 302.5,413.5 Z"/></g>
<g><path style="opacity:1" fill="#b9b9b9" d="M 226.5,415.5 C 232.164,416.159 233.497,418.826 230.5,423.5C 226.624,425.446 224.291,424.28 223.5,420C 223.957,418.06 224.957,416.56 226.5,415.5 Z"/></g>
<g><path style="opacity:1" fill="#e7e7e7" d="M 340.5,431.5 C 356.764,443.091 372.764,455.091 388.5,467.5C 388.383,476.631 386.383,485.298 382.5,493.5C 377.573,491.595 375.406,493.262 376,498.5C 376.417,499.756 377.25,500.423 378.5,500.5C 376.679,504.485 373.679,507.319 369.5,509C 357.258,509.552 345.925,506.552 335.5,500C 328.076,494.905 320.41,490.238 312.5,486C 307.012,483.984 301.345,483.151 295.5,483.5C 291.349,480.197 287.015,477.03 282.5,474C 281.748,473.329 281.414,472.496 281.5,471.5C 283.14,472.32 284.807,473.153 286.5,474C 300.835,477.722 314.168,475.388 326.5,467C 339.722,458.409 344.388,446.576 340.5,431.5 Z"/></g>
<g><path style="opacity:1" fill="#b8b8b8" d="M 377.5,441.5 C 383.643,442.026 384.976,444.86 381.5,450C 376.504,450.664 374.67,448.498 376,443.5C 376.717,442.956 377.217,442.289 377.5,441.5 Z"/></g>
<g><path style="opacity:1" fill="#b8b8b8" d="M 212.5,451.5 C 219.004,451.138 220.671,453.638 217.5,459C 210.745,459.756 209.078,457.256 212.5,451.5 Z"/></g>
<g><path style="opacity:1" fill="#b0b0b0" d="M 361.5,459.5 C 366.281,460.091 367.947,462.591 366.5,467C 362.642,469.54 359.976,468.707 358.5,464.5C 359.092,462.577 360.092,460.911 361.5,459.5 Z"/></g>
<g><path style="opacity:1" fill="#b6b6b6" d="M 240.5,462.5 C 247.004,462.138 248.671,464.638 245.5,470C 239.593,470.746 237.927,468.246 240.5,462.5 Z"/></g>
<g><path style="opacity:1" fill="#bab9b9" d="M 231.5,487.5 C 237.53,487.815 239.197,490.481 236.5,495.5C 229.411,496.615 227.744,493.948 231.5,487.5 Z"/></g>
<g><path style="opacity:1" fill="#a6a6a6" d="M 382.5,493.5 C 381.921,496.331 380.588,498.664 378.5,500.5C 377.25,500.423 376.417,499.756 376,498.5C 375.406,493.262 377.573,491.595 382.5,493.5 Z"/></g>
<g><path style="opacity:1" fill="#2c2523" d="M 296.5,492.5 C 304.507,493.003 311.841,495.503 318.5,500C 306.656,501.643 294.656,501.976 282.5,501C 281.167,500.333 281.167,499.667 282.5,499C 287.147,496.506 291.814,494.339 296.5,492.5 Z"/></g>
</svg>
