<?xml version="1.0" encoding="UTF-8"?>
<!DOCTYPE svg PUBLIC "-//W3C//DTD SVG 1.1//EN" "http://www.w3.org/Graphics/SVG/1.1/DTD/svg11.dtd">
<svg xmlns="http://www.w3.org/2000/svg" version="1.1" width="600px" height="600px" style="shape-rendering:geometricPrecision; text-rendering:geometricPrecision; image-rendering:optimizeQuality; fill-rule:evenodd; clip-rule:evenodd" xmlns:xlink="http://www.w3.org/1999/xlink">
<g><path style="opacity:0.969" fill="#030201" d="M 599.5,157.5 C 599.5,173.833 599.5,190.167 599.5,206.5C 592.163,267.333 567.496,319.833 525.5,364C 515.397,371.446 505.563,371.279 496,363.5C 492.276,356.273 489.942,348.607 489,340.5C 486.502,322.519 484.169,304.519 482,286.5C 478.729,302.585 474.062,318.251 468,333.5C 457.543,355.748 446.543,377.748 435,399.5C 421.331,432.843 412.998,467.51 410,503.5C 407.485,517.037 400.985,528.203 390.5,537C 377.133,542.742 363.633,542.909 350,537.5C 316.338,544.166 282.671,544.166 249,537.5C 220.073,548.651 200.74,539.651 191,510.5C 187.741,489.43 184.075,468.43 180,447.5C 176.133,432.566 171.466,417.899 166,403.5C 154.473,381.779 143.473,359.779 133,337.5C 126.056,320.668 120.723,303.334 117,285.5C 114.995,304.208 112.662,322.875 110,341.5C 109.093,348.034 107.427,354.368 105,360.5C 99.9551,368.409 92.7884,371.242 83.5,369C 74.9315,365.444 67.7648,359.944 62,352.5C 26.8748,309.638 6.0415,260.638 -0.5,205.5C -0.5,189.833 -0.5,174.167 -0.5,158.5C 1.46898,146.077 7.46898,135.91 17.5,128C 36.2332,114.628 56.2332,103.294 77.5,94C 111.085,78.6937 145.919,67.1937 182,59.5C 192.058,60.3489 200.891,64.0156 208.5,70.5C 238.197,60.7573 268.697,56.0907 300,56.5C 330.963,56.1849 361.129,60.8515 390.5,70.5C 405.477,58.8098 421.81,56.6431 439.5,64C 483.238,76.465 524.905,93.7983 564.5,116C 576.859,122.69 587.026,131.857 595,143.5C 596.522,148.286 598.022,152.952 599.5,157.5 Z"/></g>
<g><path style="opacity:1" fill="#ddbe89" d="M 397.5,80.5 C 398.526,81.853 399.859,82.853 401.5,83.5C 405.535,86.8573 409.868,89.8573 414.5,92.5C 416.254,96.5882 419.254,99.2549 423.5,100.5C 429.833,107.167 436.167,113.833 442.5,120.5C 442.842,121.338 443.508,121.672 444.5,121.5C 444.5,122.833 444.5,124.167 444.5,125.5C 445.969,130.138 448.469,134.138 452,137.5C 455.136,144.763 457.97,152.096 460.5,159.5C 461.5,159.5 462.5,159.5 463.5,159.5C 463.157,161.483 463.824,162.817 465.5,163.5C 470.488,180.786 474.822,198.12 478.5,215.5C 478.647,221.909 479.647,227.909 481.5,233.5C 478.012,251.986 474.512,270.653 471,289.5C 466.726,306.654 461.06,323.321 454,339.5C 443.411,359.677 433.078,380.011 423,400.5C 411.288,428.681 404.288,458.014 402,488.5C 400.375,500.709 396.375,512.042 390,522.5C 384.977,528.177 378.644,531.177 371,531.5C 364.303,530.545 357.803,528.878 351.5,526.5C 349.793,526.728 348.126,527.062 346.5,527.5C 344.473,527.662 342.473,527.495 340.5,527C 321.602,516.638 301.602,513.638 280.5,518C 274.431,519.573 268.765,521.906 263.5,525C 259.959,526.44 256.292,527.274 252.5,527.5C 250.658,527.277 248.825,526.943 247,526.5C 240.486,528.783 233.819,530.449 227,531.5C 215.567,530.409 207.9,524.409 204,513.5C 198.887,498.621 195.887,483.288 195,467.5C 191.048,441.02 183.381,415.687 172,391.5C 159.672,369.844 148.672,347.511 139,324.5C 129.781,298.193 123.448,271.193 120,243.5C 119.283,242.956 118.783,242.289 118.5,241.5C 118.616,238.14 118.949,234.807 119.5,231.5C 122.861,215.687 125.861,199.687 128.5,183.5C 129.261,179.216 130.595,175.216 132.5,171.5C 133.693,171.03 134.36,170.03 134.5,168.5C 134.997,166.182 135.33,163.848 135.5,161.5C 136.5,161.5 137.5,161.5 138.5,161.5C 138.192,159.076 138.526,156.743 139.5,154.5C 144.906,143.688 150.24,133.021 155.5,122.5C 155.5,122.167 155.5,121.833 155.5,121.5C 159.38,118.973 162.046,115.64 163.5,111.5C 167.888,107.779 171.888,103.779 175.5,99.5C 175.833,99.5 176.167,99.5 176.5,99.5C 183.386,95.0428 190.386,90.5428 197.5,86C 199.384,84.9513 200.718,83.4513 201.5,81.5C 202.416,81.9817 203.416,82.315 204.5,82.5C 235.106,71.1814 266.773,66.1814 299.5,67.5C 330.045,66.5536 359.711,71.0536 388.5,81C 391.592,81.7358 394.592,81.5691 397.5,80.5 Z"/></g>
<g><path style="opacity:1" fill="#c4a878" d="M 174.5,75.5 C 178.226,75.1774 181.893,75.5108 185.5,76.5C 185.333,76.8333 185.167,77.1667 185,77.5C 177.612,81.556 170.778,86.3894 164.5,92C 149.144,107.04 137.311,124.54 129,144.5C 125.342,155.473 121.676,166.473 118,177.5C 113.256,198.714 109.256,220.048 106,241.5C 102.711,275.586 98.7114,309.586 94,343.5C 94.0245,348.128 92.0245,351.461 88,353.5C 82.4209,349.927 77.4209,345.594 73,340.5C 49.7159,311.271 32.7159,278.604 22,242.5C 19.2943,228.893 16.961,215.226 15,201.5C 14.0845,186.454 14.4179,171.454 16,156.5C 20.3734,149.12 25.8734,142.62 32.5,137C 59.4935,119.503 88.1601,105.17 118.5,94C 136.987,86.893 155.653,80.7263 174.5,75.5 Z"/></g>
<g><path style="opacity:1" fill="#c4a778" d="M 413.5,75.5 C 417.182,75.3347 420.848,75.5014 424.5,76C 471.457,88.8138 516.124,107.147 558.5,131C 567.296,137.462 575.129,144.962 582,153.5C 586.986,190.631 583.319,226.965 571,262.5C 559.66,290.786 544.66,316.786 526,340.5C 521.801,345.034 517.301,349.201 512.5,353C 510.097,353.63 508.263,352.797 507,350.5C 506.206,347.529 505.539,344.529 505,341.5C 499.532,298.814 494.199,256.147 489,213.5C 483.878,181.55 473.878,151.217 459,122.5C 456.333,118.5 453.667,114.5 451,110.5C 445.573,103.069 439.407,96.2362 432.5,90C 426.844,85.5038 420.844,81.5038 414.5,78C 413.748,77.3292 413.414,76.4959 413.5,75.5 Z"/></g>
<g><path style="opacity:1" fill="#493e2d" d="M 397.5,80.5 C 399.725,79.6679 401.058,80.6679 401.5,83.5C 399.859,82.853 398.526,81.853 397.5,80.5 Z"/></g>
<g><path style="opacity:1" fill="#9d8761" d="M 201.5,81.5 C 200.718,83.4513 199.384,84.9513 197.5,86C 190.386,90.5428 183.386,95.0428 176.5,99.5C 178.208,97.784 179.542,95.784 180.5,93.5C 181.85,92.0499 183.516,91.3832 185.5,91.5C 187.678,90.3434 189.678,89.0101 191.5,87.5C 193.678,86.3434 195.678,85.0101 197.5,83.5C 198.794,82.7101 199.961,81.7101 201,80.5C 201.399,80.7284 201.565,81.0618 201.5,81.5 Z"/></g>
<g><path style="opacity:1" fill="#544834" d="M 197.5,83.5 C 195.678,85.0101 193.678,86.3434 191.5,87.5C 192.392,84.7079 194.392,83.3746 197.5,83.5 Z"/></g>
<g><path style="opacity:1" fill="#534733" d="M 191.5,87.5 C 189.678,89.0101 187.678,90.3434 185.5,91.5C 186.392,88.7079 188.392,87.3746 191.5,87.5 Z"/></g>
<g><path style="opacity:1" fill="#433929" d="M 401.5,83.5 C 402.873,83.3433 404.207,83.51 405.5,84C 411.962,88.7479 418.296,93.5812 424.5,98.5C 423.833,98.5 423.167,98.5 422.5,98.5C 420.098,96.0908 417.431,94.0908 414.5,92.5C 409.868,89.8573 405.535,86.8573 401.5,83.5 Z"/></g>
<g><path style="opacity:1" fill="#a08a63" d="M 414.5,92.5 C 417.431,94.0908 420.098,96.0908 422.5,98.5C 422.833,99.1667 423.167,99.8333 423.5,100.5C 419.254,99.2549 416.254,96.5882 414.5,92.5 Z"/></g>
<g><path style="opacity:1" fill="#695a41" d="M 422.5,98.5 C 423.167,98.5 423.833,98.5 424.5,98.5C 427.813,101.478 431.147,104.478 434.5,107.5C 436.44,112.379 439.106,116.712 442.5,120.5C 436.167,113.833 429.833,107.167 423.5,100.5C 423.167,99.8333 422.833,99.1667 422.5,98.5 Z"/></g>
<g><path style="opacity:1" fill="#62543c" d="M 175.5,99.5 C 171.888,103.779 167.888,107.779 163.5,111.5C 165.098,106.717 168.098,102.883 172.5,100C 173.448,99.5172 174.448,99.3505 175.5,99.5 Z"/></g>
<g><path style="opacity:1" fill="#6b5c42" d="M 163.5,111.5 C 162.046,115.64 159.38,118.973 155.5,121.5C 155.5,120.167 155.5,118.833 155.5,117.5C 158.388,117.78 159.888,116.447 160,113.5C 160.816,112.177 161.983,111.511 163.5,111.5 Z"/></g>
<g><path style="opacity:1" fill="#524632" d="M 444.5,121.5 C 446.9,123.689 448.567,126.356 449.5,129.5C 447.833,128.167 446.167,126.833 444.5,125.5C 444.5,124.167 444.5,122.833 444.5,121.5 Z"/></g>
<g><path style="opacity:1" fill="#9a845f" d="M 155.5,122.5 C 150.24,133.021 144.906,143.688 139.5,154.5C 138.526,156.743 138.192,159.076 138.5,161.5C 137.5,161.5 136.5,161.5 135.5,161.5C 136.491,157.537 137.491,153.537 138.5,149.5C 141.408,144.358 143.741,139.024 145.5,133.5C 146.5,133.5 147.5,133.5 148.5,133.5C 149.963,130.573 151.463,127.573 153,124.5C 153.708,123.619 154.542,122.953 155.5,122.5 Z"/></g>
<g><path style="opacity:1" fill="#a99269" d="M 444.5,125.5 C 446.167,126.833 447.833,128.167 449.5,129.5C 454.735,139.192 459.402,149.192 463.5,159.5C 462.5,159.5 461.5,159.5 460.5,159.5C 457.97,152.096 455.136,144.763 452,137.5C 448.469,134.138 445.969,130.138 444.5,125.5 Z"/></g>
<g><path style="opacity:1" fill="#2f281e" d="M 449.5,129.5 C 450.5,129.5 451.5,129.5 452.5,129.5C 454.991,136.465 458.158,143.131 462,149.5C 463.655,154.058 464.821,158.724 465.5,163.5C 463.824,162.817 463.157,161.483 463.5,159.5C 459.402,149.192 454.735,139.192 449.5,129.5 Z"/></g>
<g><path style="opacity:1" fill="#9b8560" d="M 135.5,161.5 C 135.33,163.848 134.997,166.182 134.5,168.5C 134.36,170.03 133.693,171.03 132.5,171.5C 132.587,167.668 133.587,164.335 135.5,161.5 Z"/></g>
<g><path style="opacity:1" fill="#9d8761" d="M 128.5,183.5 C 125.861,199.687 122.861,215.687 119.5,231.5C 120.664,216.673 122.998,202.007 126.5,187.5C 127.172,186.051 127.839,184.718 128.5,183.5 Z"/></g>
<g><path style="opacity:1" fill="#c4a777" d="M 211.5,209.5 C 241.65,209.483 256.484,224.483 256,254.5C 249.253,278.565 233.419,289.065 208.5,286C 187.162,278.315 177.662,263.149 180,240.5C 184.47,223.862 194.97,213.529 211.5,209.5 Z"/></g>
<g><path style="opacity:1" fill="#c4a778" d="M 374.5,209.5 C 405.665,209.885 420.498,225.552 419,256.5C 411.302,279.432 395.469,289.266 371.5,286C 350.484,278.15 340.984,262.983 343,240.5C 347.795,224.218 358.295,213.884 374.5,209.5 Z"/></g>
<g><path style="opacity:1" fill="#372f2c" d="M 209.5,220.5 C 227.402,217.859 239.569,224.859 246,241.5C 248.089,258.83 240.923,270.33 224.5,276C 202.728,277.9 191.061,267.9 189.5,246C 191.497,233.836 198.164,225.336 209.5,220.5 Z"/></g>
<g><path style="opacity:1" fill="#382f2c" d="M 372.5,220.5 C 390.402,217.859 402.569,224.859 409,241.5C 411.089,258.83 403.923,270.33 387.5,276C 365.738,277.911 354.071,267.911 352.5,246C 354.527,233.812 361.193,225.312 372.5,220.5 Z"/></g>
<g><path style="opacity:1" fill="#3c3325" d="M 478.5,215.5 C 480.353,221.091 481.353,227.091 481.5,233.5C 479.647,227.909 478.647,221.909 478.5,215.5 Z"/></g>
<g><path style="opacity:1" fill="#816f50" d="M 119.5,231.5 C 118.949,234.807 118.616,238.14 118.5,241.5C 117.84,240.036 117.507,238.369 117.5,236.5C 117.556,234.36 118.223,232.694 119.5,231.5 Z"/></g>
<g><path style="opacity:1" fill="#f3f2f2" d="M 227.5,231.5 C 234.274,231.44 237.44,234.773 237,241.5C 232.283,248.152 227.617,248.152 223,241.5C 221.571,236.783 223.071,233.45 227.5,231.5 Z"/></g>
<g><path style="opacity:1" fill="#f4f4f4" d="M 390.5,231.5 C 398.489,230.989 401.655,234.656 400,242.5C 395.585,247.726 391.251,247.726 387,242.5C 385.662,237.96 386.829,234.293 390.5,231.5 Z"/></g>
<g><path style="opacity:1" fill="#2f2725" d="M 286.5,392.5 C 300.642,392.014 314.642,393.181 328.5,396C 350.084,402.283 358.25,416.45 353,438.5C 344.122,455.703 330.289,466.87 311.5,472C 283.831,476.081 262.664,466.248 248,442.5C 239.353,422.312 244.853,407.478 264.5,398C 271.882,395.821 279.215,393.988 286.5,392.5 Z"/></g>
<g><path style="opacity:1" fill="#302825" d="M 346.5,527.5 C 315.164,534.166 283.83,534.166 252.5,527.5C 256.292,527.274 259.959,526.44 263.5,525C 268.765,521.906 274.431,519.573 280.5,518C 301.602,513.638 321.602,516.638 340.5,527C 342.473,527.495 344.473,527.662 346.5,527.5 Z"/></g>
</svg>
