<?xml version="1.0" encoding="UTF-8"?>
<!DOCTYPE svg PUBLIC "-//W3C//DTD SVG 1.1//EN" "http://www.w3.org/Graphics/SVG/1.1/DTD/svg11.dtd">
<svg xmlns="http://www.w3.org/2000/svg" version="1.1" width="600px" height="600px" style="shape-rendering:geometricPrecision; text-rendering:geometricPrecision; image-rendering:optimizeQuality; fill-rule:evenodd; clip-rule:evenodd" xmlns:xlink="http://www.w3.org/1999/xlink">
<g><path style="opacity:0.963" fill="#020101" d="M 599.5,149.5 C 599.5,175.833 599.5,202.167 599.5,228.5C 590.326,253.507 580.826,278.507 571,303.5C 566.615,323.759 562.615,344.092 559,364.5C 548.145,375.348 537.811,374.681 528,362.5C 519.925,349.616 514.591,335.616 512,320.5C 508.798,337.709 505.798,355.042 503,372.5C 496.662,397.848 486.996,421.848 474,444.5C 462.414,464.011 450.08,483.011 437,501.5C 438.108,512.897 437.441,524.23 435,535.5C 432.882,542.583 428.382,547.416 421.5,550C 412.13,554.301 402.297,556.801 392,557.5C 374.259,557.373 359.592,550.707 348,537.5C 345.766,533.542 342.933,530.042 339.5,527C 337.298,525.978 334.965,525.478 332.5,525.5C 321.542,526.852 310.542,527.518 299.5,527.5C 286.479,527.027 273.479,526.527 260.5,526C 256.248,529.581 252.748,533.748 250,538.5C 236.555,552.541 220.055,558.708 200.5,557C 197.471,556.461 194.471,555.794 191.5,555C 184.157,552.751 177.157,549.751 170.5,546C 165.67,541.173 162.837,535.34 162,528.5C 161.667,518.833 161.333,509.167 161,499.5C 135.918,467.018 116.251,431.351 102,392.5C 95.479,367.524 90.8123,342.19 88,316.5C 84.9422,333.347 78.9422,349.014 70,363.5C 62.0576,373.117 52.8909,374.617 42.5,368C 40.9588,366.421 39.7922,364.587 39,362.5C 35.7187,343.094 32.052,323.76 28,304.5C 18.4382,279.402 8.93818,254.402 -0.5,229.5C -0.5,202.5 -0.5,175.5 -0.5,148.5C 6.26239,133.821 16.5957,122.321 30.5,114C 73.4964,92.9461 118.83,80.1127 166.5,75.5C 172.498,76.4303 178.498,76.9303 184.5,77C 228.361,60.6388 273.694,53.9721 320.5,57C 353.727,58.9785 385.894,65.8118 417,77.5C 429.831,75.2929 442.665,75.4596 455.5,78C 497.439,84.7573 537.106,98.0906 574.5,118C 585.851,126.252 594.184,136.752 599.5,149.5 Z"/></g>
<g><path style="opacity:1" fill="#b0874e" d="M 415.5,88.5 C 415.119,91.5694 415.953,94.5694 418,97.5C 441.878,115.707 461.878,137.373 478,162.5C 489.252,179.762 497.085,198.429 501.5,218.5C 506.666,274.513 502.499,329.847 489,384.5C 478.942,414.284 464.942,441.95 447,467.5C 440.724,477.074 434.224,486.408 427.5,495.5C 426.504,480.009 426.17,464.342 426.5,448.5C 426.5,446.167 426.5,443.833 426.5,441.5C 427.83,434.867 428.497,427.867 428.5,420.5C 428.497,413.133 427.83,406.133 426.5,399.5C 425.477,384.88 423.477,370.38 420.5,356C 420.701,352.277 421.367,348.777 422.5,345.5C 425.431,343.909 428.098,341.909 430.5,339.5C 429.52,338.019 428.353,336.685 427,335.5C 426.503,331.476 426.669,327.476 427.5,323.5C 430.188,320.446 431.521,316.78 431.5,312.5C 434.878,302.35 439.211,292.683 444.5,283.5C 447.955,280.459 449.622,276.459 449.5,271.5C 451.951,269.104 452.951,266.104 452.5,262.5C 453.826,255.102 453.493,247.768 451.5,240.5C 451.293,237.759 450.293,235.426 448.5,233.5C 446.659,231.151 445.326,228.485 444.5,225.5C 443.931,222.281 442.264,219.948 439.5,218.5C 430.787,206.829 420.12,197.496 407.5,190.5C 405.574,188.707 403.241,187.707 400.5,187.5C 391.44,183.901 382.107,181.235 372.5,179.5C 370.485,178.076 368.152,177.41 365.5,177.5C 360.678,176.834 355.678,176.501 350.5,176.5C 345.119,176.506 340.119,177.172 335.5,178.5C 332.708,178.452 330.875,179.785 330,182.5C 328.073,185.948 326.739,189.615 326,193.5C 325.912,213.951 327.412,234.284 330.5,254.5C 330.806,257.385 330.473,260.052 329.5,262.5C 311.954,259.316 294.288,258.649 276.5,260.5C 273.833,260.5 271.167,260.5 268.5,260.5C 268.5,258.167 268.5,255.833 268.5,253.5C 269.003,247.479 269.669,241.479 270.5,235.5C 272.453,229.926 273.12,223.926 272.5,217.5C 272.666,208.827 272.5,200.16 272,191.5C 271.132,185.734 268.298,181.4 263.5,178.5C 258.881,177.172 253.881,176.506 248.5,176.5C 243.322,176.501 238.322,176.834 233.5,177.5C 213.128,180.652 194.461,187.985 177.5,199.5C 170.906,201.76 166.24,206.094 163.5,212.5C 162.92,214.749 161.587,216.415 159.5,217.5C 158.5,217.5 157.5,217.5 156.5,217.5C 154.652,221.704 152.985,226.037 151.5,230.5C 147.137,239.627 145.137,249.293 145.5,259.5C 145.41,262.152 146.076,264.485 147.5,266.5C 150.009,272.01 152.342,277.676 154.5,283.5C 154.552,286.346 155.552,288.68 157.5,290.5C 167.074,306.888 173.074,324.555 175.5,343.5C 176.307,349.464 176.64,355.464 176.5,361.5C 174.346,372.061 172.846,382.728 172,393.5C 171.822,428.168 171.822,462.835 172,497.5C 149.517,467.554 130.85,435.221 116,400.5C 112.058,389.676 108.725,378.676 106,367.5C 104.052,352.095 101.718,336.762 99,321.5C 93.9048,286.539 93.4048,251.539 97.5,216.5C 107.333,181.829 124.666,151.496 149.5,125.5C 159.851,115.981 170.351,106.648 181,97.5C 182.047,94.5338 182.881,91.5338 183.5,88.5C 219.91,73.3427 257.91,66.3427 297.5,67.5C 338.354,66.3341 377.688,73.3341 415.5,88.5 Z"/></g>
<g><path style="opacity:1" fill="#2e2624" d="M 183.5,88.5 C 182.881,91.5338 182.047,94.5338 181,97.5C 170.351,106.648 159.851,115.981 149.5,125.5C 124.666,151.496 107.333,181.829 97.5,216.5C 88.2133,249.189 81.3799,282.523 77,316.5C 74.5048,330.322 69.8382,343.322 63,355.5C 60.0443,360.231 55.8776,362.064 50.5,361C 46.1,341.004 41.9334,320.837 38,300.5C 31.7865,282.527 24.7865,264.86 17,247.5C 9.37059,228.184 4.87059,208.184 3.5,187.5C 2.39681,162.931 11.0635,142.765 29.5,127C 68.7669,106.245 110.434,92.9113 154.5,87C 164.26,86.0917 173.927,86.5917 183.5,88.5 Z"/></g>
<g><path style="opacity:1" fill="#2e2624" d="M 501.5,218.5 C 497.085,198.429 489.252,179.762 478,162.5C 461.878,137.373 441.878,115.707 418,97.5C 415.953,94.5694 415.119,91.5694 415.5,88.5C 427.772,86.1055 440.105,85.9389 452.5,88C 494.22,94.5887 533.553,107.922 570.5,128C 583.959,139.416 591.793,153.916 594,171.5C 595.919,192.32 593.586,212.653 587,232.5C 577.716,256.066 568.716,279.733 560,303.5C 556.211,322.611 552.378,341.611 548.5,360.5C 544.046,362.369 540.38,361.369 537.5,357.5C 532.336,350.17 528.502,342.17 526,333.5C 520.903,308.917 516.236,284.251 512,259.5C 509.434,245.472 505.934,231.806 501.5,218.5 Z"/></g>
<g><path style="opacity:1" fill="#987444" d="M 261.5,108.5 C 274.671,114.513 283.504,124.513 288,138.5C 292.928,151.406 294.595,164.739 293,178.5C 291.989,179.337 290.822,179.67 289.5,179.5C 289.489,167.538 287.656,155.871 284,144.5C 279.716,131.9 271.716,122.566 260,116.5C 259.109,113.502 259.609,110.836 261.5,108.5 Z"/></g>
<g><path style="opacity:1" fill="#997444" d="M 334.5,108.5 C 339.151,109.174 340.651,111.841 339,116.5C 329.722,120.778 322.722,127.445 318,136.5C 312.897,149.706 309.897,163.372 309,177.5C 308.29,178.973 307.124,179.64 305.5,179.5C 303.321,157.548 308.488,137.548 321,119.5C 325.112,115.216 329.612,111.549 334.5,108.5 Z"/></g>
<g><path style="opacity:1" fill="#997444" d="M 244.5,154.5 C 266.883,157.38 280.55,169.88 285.5,192C 286.061,195.448 284.894,196.615 282,195.5C 277.252,175.418 264.752,163.584 244.5,160C 243.248,158.172 243.248,156.339 244.5,154.5 Z"/></g>
<g><path style="opacity:1" fill="#997444" d="M 347.5,154.5 C 349.857,154.337 352.19,154.503 354.5,155C 355.554,156.388 355.72,157.888 355,159.5C 334.668,163.327 321.835,175.327 316.5,195.5C 314.192,196.948 312.859,196.282 312.5,193.5C 316.864,173.809 328.531,160.809 347.5,154.5 Z"/></g>
<g><path style="opacity:1" fill="#795d36" d="M 233.5,177.5 C 238.322,176.834 243.322,176.501 248.5,176.5C 253.881,176.506 258.881,177.172 263.5,178.5C 253.532,177.604 243.532,177.271 233.5,177.5 Z"/></g>
<g><path style="opacity:1" fill="#795c35" d="M 365.5,177.5 C 355.461,177.242 345.461,177.576 335.5,178.5C 340.119,177.172 345.119,176.506 350.5,176.5C 355.678,176.501 360.678,176.834 365.5,177.5 Z"/></g>
<g><path style="opacity:1" fill="#564126" d="M 365.5,177.5 C 368.152,177.41 370.485,178.076 372.5,179.5C 369.848,179.59 367.515,178.924 365.5,177.5 Z"/></g>
<g><path style="opacity:1" fill="#352d2b" d="M 262.5,264.5 C 234.783,273.061 212.95,289.394 197,313.5C 191.26,323.646 186.093,333.98 181.5,344.5C 179.431,332.557 176.264,320.891 172,309.5C 166,296.167 160,282.833 154,269.5C 148.411,255.502 149.744,242.169 158,229.5C 173.948,204.256 196.781,189.089 226.5,184C 237.461,182.514 248.461,182.181 259.5,183C 264.4,183.661 266.9,186.494 267,191.5C 267.167,196.833 267.333,202.167 267.5,207.5C 266.494,226.558 264.827,245.558 262.5,264.5 Z"/></g>
<g><path style="opacity:1" fill="#352d2b" d="M 420.5,328.5 C 404.979,313.145 389.313,297.979 373.5,283C 362.256,274.711 349.922,268.544 336.5,264.5C 334.177,244.712 332.177,224.879 330.5,205C 329.668,197.333 331.334,190.333 335.5,184C 372.642,178.737 404.475,189.237 431,215.5C 440.2,226.402 446.033,238.902 448.5,253C 448.018,259.411 446.518,265.578 444,271.5C 434.488,289.851 426.655,308.851 420.5,328.5 Z"/></g>
<g><path style="opacity:1" fill="#5d472a" d="M 400.5,187.5 C 403.241,187.707 405.574,188.707 407.5,190.5C 404.759,190.293 402.426,189.293 400.5,187.5 Z"/></g>
<g><path style="opacity:1" fill="#6d5330" d="M 177.5,199.5 C 172.859,203.805 168.193,208.139 163.5,212.5C 166.24,206.094 170.906,201.76 177.5,199.5 Z"/></g>
<g><path style="opacity:1" fill="#5a5453" d="M 195.5,211.5 C 222.331,211.537 234.831,224.87 233,251.5C 226.465,271.023 212.965,279.19 192.5,276C 174.887,269.295 167.054,256.462 169,237.5C 173.087,223.912 181.92,215.246 195.5,211.5 Z"/></g>
<g><path style="opacity:1" fill="#5a5453" d="M 391.5,211.5 C 410.539,210.256 423.039,218.589 429,236.5C 431.86,256.629 423.694,269.795 404.5,276C 383.095,278.587 369.929,269.421 365,248.5C 363.871,235.285 368.704,224.785 379.5,217C 383.475,214.854 387.475,213.02 391.5,211.5 Z"/></g>
<g><path style="opacity:1" fill="#6f5531" d="M 159.5,217.5 C 157.07,222.037 154.403,226.37 151.5,230.5C 152.985,226.037 154.652,221.704 156.5,217.5C 157.5,217.5 158.5,217.5 159.5,217.5 Z"/></g>
<g><path style="opacity:1" fill="#231815" d="M 195.5,223.5 C 214.489,221.989 223.322,230.656 222,249.5C 216.044,264.222 205.544,268.722 190.5,263C 181.637,256.758 178.471,248.258 181,237.5C 183.774,230.557 188.607,225.89 195.5,223.5 Z"/></g>
<g><path style="opacity:1" fill="#231815" d="M 390.5,223.5 C 409.994,221.498 419.161,230.165 418,249.5C 412.044,264.222 401.544,268.722 386.5,263C 376.024,254.822 373.691,244.656 379.5,232.5C 382.315,228.341 385.982,225.341 390.5,223.5 Z"/></g>
<g><path style="opacity:1" fill="#654d2d" d="M 439.5,218.5 C 442.264,219.948 443.931,222.281 444.5,225.5C 442.478,223.469 440.811,221.135 439.5,218.5 Z"/></g>
<g><path style="opacity:1" fill="#775b35" d="M 272.5,217.5 C 273.12,223.926 272.453,229.926 270.5,235.5C 270.982,229.34 271.649,223.34 272.5,217.5 Z"/></g>
<g><path style="opacity:1" fill="#dddcdc" d="M 206.5,231.5 C 210.273,230.822 213.106,232.156 215,235.5C 215.917,240.327 213.917,242.994 209,243.5C 203.977,242.458 202.31,239.458 204,234.5C 205.045,233.627 205.878,232.627 206.5,231.5 Z"/></g>
<g><path style="opacity:1" fill="#dddcdc" d="M 402.5,231.5 C 406.273,230.822 409.106,232.156 411,235.5C 411.917,240.327 409.917,242.994 405,243.5C 399.977,242.458 398.31,239.458 400,234.5C 401.045,233.627 401.878,232.627 402.5,231.5 Z"/></g>
<g><path style="opacity:1" fill="#634b2c" d="M 448.5,233.5 C 450.293,235.426 451.293,237.759 451.5,240.5C 449.707,238.574 448.707,236.241 448.5,233.5 Z"/></g>
<g><path style="opacity:1" fill="#715632" d="M 268.5,253.5 C 268.5,255.833 268.5,258.167 268.5,260.5C 271.167,260.5 273.833,260.5 276.5,260.5C 268.255,264.589 265.588,262.255 268.5,253.5 Z"/></g>
<g><path style="opacity:1" fill="#4c3a22" d="M 330.5,254.5 C 331.803,257.355 331.803,260.355 330.5,263.5C 329.893,263.376 329.56,263.043 329.5,262.5C 330.473,260.052 330.806,257.385 330.5,254.5 Z"/></g>
<g><path style="opacity:1" fill="#2e2624" d="M 262.5,264.5 C 264.322,266.16 266.489,267.16 269,267.5C 289.493,263.51 309.993,263.51 330.5,267.5C 333.308,267.922 335.308,266.922 336.5,264.5C 349.922,268.544 362.256,274.711 373.5,283C 389.313,297.979 404.979,313.145 420.5,328.5C 418.417,337.753 416.75,347.086 415.5,356.5C 418.86,371.659 421.026,386.993 422,402.5C 420.424,444.418 420.091,486.418 421,528.5C 420.55,530.519 419.717,532.352 418.5,534C 412.229,536.459 405.896,538.626 399.5,540.5C 383.023,531.295 370.856,517.962 363,500.5C 356.361,481.554 347.361,463.887 336,447.5C 310.91,420.567 286.244,420.9 262,448.5C 250.397,465.939 241.064,484.606 234,504.5C 225.952,520.38 214.119,532.38 198.5,540.5C 192.838,538.78 187.171,536.946 181.5,535C 179.513,533.681 178.346,531.848 178,529.5C 177.132,483.834 176.798,438.168 177,392.5C 177.909,382.044 179.576,371.711 182,361.5C 182.687,355.796 182.521,350.13 181.5,344.5C 186.093,333.98 191.26,323.646 197,313.5C 212.95,289.394 234.783,273.061 262.5,264.5 Z"/></g>
<g><path style="opacity:1" fill="#624b2c" d="M 145.5,259.5 C 146.924,261.515 147.59,263.848 147.5,266.5C 146.076,264.485 145.41,262.152 145.5,259.5 Z"/></g>
<g><path style="opacity:1" fill="#735833" d="M 452.5,262.5 C 452.951,266.104 451.951,269.104 449.5,271.5C 449.928,268.215 450.928,265.215 452.5,262.5 Z"/></g>
<g><path style="opacity:1" fill="#7d5f38" d="M 449.5,271.5 C 449.622,276.459 447.955,280.459 444.5,283.5C 445.655,279.203 447.321,275.203 449.5,271.5 Z"/></g>
<g><path style="opacity:1" fill="#634c2c" d="M 154.5,283.5 C 156.065,285.509 157.065,287.843 157.5,290.5C 155.552,288.68 154.552,286.346 154.5,283.5 Z"/></g>
<g><path style="opacity:1" fill="#4b4848" d="M 285.5,294.5 C 303.214,292.567 320.214,295.067 336.5,302C 350.541,312.959 353.374,326.459 345,342.5C 326.112,366.763 302.612,372.929 274.5,361C 262.455,355.288 254.288,346.122 250,333.5C 247.073,316.082 253.906,304.248 270.5,298C 275.545,296.425 280.545,295.259 285.5,294.5 Z"/></g>
<g><path style="opacity:1" fill="#7c5f37" d="M 431.5,312.5 C 431.521,316.78 430.188,320.446 427.5,323.5C 428.065,319.463 429.399,315.797 431.5,312.5 Z"/></g>
<g><path style="opacity:1" fill="#8d6b3e" d="M 427.5,323.5 C 426.669,327.476 426.503,331.476 427,335.5C 428.353,336.685 429.52,338.019 430.5,339.5C 428.098,341.909 425.431,343.909 422.5,345.5C 422.934,337.772 424.601,330.439 427.5,323.5 Z"/></g>
<g><path style="opacity:1" fill="#6d5330" d="M 175.5,343.5 C 177.03,346.695 177.696,350.195 177.5,354C 177.497,356.69 177.164,359.19 176.5,361.5C 176.64,355.464 176.307,349.464 175.5,343.5 Z"/></g>
<g><path style="opacity:1" fill="#86673b" d="M 426.5,399.5 C 427.83,406.133 428.497,413.133 428.5,420.5C 428.497,427.867 427.83,434.867 426.5,441.5C 427.833,427.5 427.833,413.5 426.5,399.5 Z"/></g>
<g><path style="opacity:1" fill="#221815" d="M 399.5,540.5 C 388.232,543.028 377.565,541.195 367.5,535C 361.167,528 354.833,521 348.5,514C 343.678,511.281 338.511,509.781 333,509.5C 321.207,510.876 309.374,511.543 297.5,511.5C 284.792,511.324 272.125,510.824 259.5,510C 256.311,510.842 253.311,512.175 250.5,514C 243.809,521.689 236.809,529.022 229.5,536C 219.609,540.948 209.276,542.448 198.5,540.5C 214.119,532.38 225.952,520.38 234,504.5C 241.064,484.606 250.397,465.939 262,448.5C 286.244,420.9 310.91,420.567 336,447.5C 347.361,463.887 356.361,481.554 363,500.5C 370.856,517.962 383.023,531.295 399.5,540.5 Z"/></g>
<g><path style="opacity:1" fill="#6b522f" d="M 426.5,448.5 C 426.17,464.342 426.504,480.009 427.5,495.5C 427.539,496.756 427.039,497.756 426,498.5C 425.172,481.662 425.338,464.995 426.5,448.5 Z"/></g>
</svg>
