<?xml version="1.0" encoding="UTF-8"?>
<!DOCTYPE svg PUBLIC "-//W3C//DTD SVG 1.1//EN" "http://www.w3.org/Graphics/SVG/1.1/DTD/svg11.dtd">
<svg xmlns="http://www.w3.org/2000/svg" version="1.1" width="600px" height="600px" style="shape-rendering:geometricPrecision; text-rendering:geometricPrecision; image-rendering:optimizeQuality; fill-rule:evenodd; clip-rule:evenodd" xmlns:xlink="http://www.w3.org/1999/xlink">
<g><path style="opacity:0.956" fill="#010101" d="M 115.5,45.5 C 136.337,44.3615 156.337,47.8615 175.5,56C 190.375,63.9374 205.375,71.6041 220.5,79C 228.738,81.9261 237.238,83.4261 246,83.5C 262.96,81.6526 279.96,80.3193 297,79.5C 314.04,80.3193 331.04,81.6526 348,83.5C 358.615,83.3771 368.782,81.2105 378.5,77C 391.833,70 405.167,63 418.5,56C 487.658,32.9386 541.158,52.4386 579,114.5C 582.395,121.185 584.895,128.185 586.5,135.5C 584.657,143.843 579.49,148.509 571,149.5C 553.994,145.199 536.827,141.865 519.5,139.5C 518.479,140.002 518.312,140.668 519,141.5C 526.059,148.391 530.225,156.724 531.5,166.5C 531.687,175.478 527.354,180.645 518.5,182C 508.784,182.141 499.117,182.807 489.5,184C 488.773,185.399 488.273,186.899 488,188.5C 487.145,203.286 488.145,217.953 491,232.5C 516.343,324.222 532.509,417.555 539.5,512.5C 537.9,530.132 529.233,534.965 513.5,527C 506.717,521.518 500.217,515.685 494,509.5C 494.984,526.061 496.817,542.561 499.5,559C 498.376,574.247 490.376,579.58 475.5,575C 462.481,568.983 450.815,560.983 440.5,551C 417.163,529.337 395.663,506.171 376,481.5C 369.333,488.167 362.667,494.833 356,501.5C 350.167,517.5 342.5,532.5 333,546.5C 318.282,562.639 300.449,567.472 279.5,561C 268.778,556.277 260.611,548.777 255,538.5C 248.474,525.252 242.14,511.919 236,498.5C 229.391,493.727 223.224,488.394 217.5,482.5C 200.561,503.143 182.561,522.977 163.5,542C 154.167,550 144.833,558 135.5,566C 128.099,571.7 119.765,575.2 110.5,576.5C 99.9277,576.094 94.5944,570.594 94.5,560C 97.2771,543.235 99.1104,526.402 100,509.5C 93.3332,517.509 85.4999,524.009 76.5,529C 62.9642,533.044 55.6308,527.877 54.5,513.5C 59.8177,449.44 68.651,385.773 81,322.5C 88.1967,290.713 95.8634,259.047 104,227.5C 106.237,213.909 106.904,200.243 106,186.5C 104.675,184.007 102.509,182.84 99.5,183C 91.5,182.667 83.5,182.333 75.5,182C 66.6465,180.645 62.3131,175.478 62.5,166.5C 64.1385,156.056 68.8052,147.222 76.5,140C 72.5,139.333 68.5,139.333 64.5,140C 50.7346,142.358 37.068,145.191 23.5,148.5C 14.1667,147.833 9.16667,142.833 8.5,133.5C 10.9837,121.201 16.1504,110.201 24,100.5C 35.9561,84.8744 50.1228,71.7078 66.5,61C 82.0283,52.8774 98.3616,47.7108 115.5,45.5 Z"/></g>
<g><path style="opacity:1" fill="#362e2a" d="M 110.5,56.5 C 130.133,54.5747 149.133,57.0747 167.5,64C 183.01,72.2555 198.677,80.2555 214.5,88C 224.612,92.0464 235.112,93.8798 246,93.5C 262.473,92.0694 278.973,91.0694 295.5,90.5C 317.16,91.8892 338.826,92.7225 360.5,93C 367.731,91.776 374.731,89.776 381.5,87C 397.292,79.2708 412.958,71.2708 428.5,63C 494.781,45.6392 543.281,67.4726 574,128.5C 575.25,131.077 575.584,133.743 575,136.5C 574.044,137.894 572.711,138.561 571,138.5C 553.542,134.008 535.875,130.675 518,128.5C 511.581,128.601 505.747,130.435 500.5,134C 506.544,142.588 512.711,151.088 519,159.5C 520.579,163.12 520.745,166.786 519.5,170.5C 507.769,170.92 496.103,172.087 484.5,174C 479.776,177.613 477.276,182.446 477,188.5C 476.145,203.286 477.145,217.953 480,232.5C 506.163,326.144 522.163,421.478 528,518.5C 527.5,519 527,519.5 526.5,520C 524.08,519.975 521.747,519.309 519.5,518C 508.23,508.733 497.564,498.733 487.5,488C 486.004,487.493 484.837,487.993 484,489.5C 482.659,493.71 481.826,498.043 481.5,502.5C 482.965,519.588 485.132,536.588 488,553.5C 488.793,557.423 488.626,561.256 487.5,565C 482.106,566.033 477.106,565.033 472.5,562C 463.263,556.099 454.596,549.432 446.5,542C 423.534,519.993 402.201,496.66 382.5,472C 393.357,453.484 396.524,433.651 392,412.5C 388.994,400.482 384.994,388.815 380,377.5C 370.573,358.977 360.907,340.644 351,322.5C 337.592,294.411 329.592,264.745 327,233.5C 321.957,198.652 318.624,163.652 317,128.5C 316.304,120.737 313.471,113.904 308.5,108C 292.044,100.039 281.878,105.205 278,123.5C 275.504,160.272 271.838,196.939 267,233.5C 263.752,258.74 258.086,283.407 250,307.5C 237.682,331.469 225.349,355.469 213,379.5C 208.475,390.216 204.808,401.216 202,412.5C 197.431,433.622 200.597,453.455 211.5,472C 191.655,497.851 169.655,521.851 145.5,544C 138.452,550.049 131.119,555.716 123.5,561C 118.338,564.612 112.671,565.946 106.5,565C 105.878,563.431 105.544,561.764 105.5,560C 108.395,541.067 110.729,522.067 112.5,503C 112.584,497.922 111.584,493.088 109.5,488.5C 108.635,487.417 107.635,487.251 106.5,488C 96.4365,498.733 85.7698,508.733 74.5,518C 68.8172,521.825 65.8172,520.325 65.5,513.5C 71.1591,444.56 80.9924,376.226 95,308.5C 101.824,281.537 108.491,254.537 115,227.5C 117.237,213.909 117.904,200.243 117,186.5C 116.135,181.258 113.635,177.091 109.5,174C 97.8973,172.087 86.2306,170.92 74.5,170.5C 72.8854,165.429 73.7187,160.762 77,156.5C 82.3578,149.976 87.5245,143.31 92.5,136.5C 93.7472,134.994 93.7472,133.494 92.5,132C 84.1027,128.839 75.436,127.839 66.5,129C 53.7051,131.022 41.0385,133.688 28.5,137C 25.5184,137.498 22.5184,137.665 19.5,137.5C 19.324,129.833 21.4906,122.833 26,116.5C 38.9865,94.513 56.8199,77.6796 79.5,66C 89.7099,62.037 100.043,58.8704 110.5,56.5 Z"/></g>
<g><path style="opacity:1" fill="#f4f4f4" d="M 299.5,114.5 C 300.167,115.833 301.167,116.833 302.5,117.5C 304.446,119.734 305.613,122.401 306,125.5C 308.989,182.411 316.322,238.744 328,294.5C 332.707,306.252 337.707,317.919 343,329.5C 356.935,354.036 369.268,379.37 380,405.5C 384.512,421.545 384.512,437.545 380,453.5C 372.537,473.799 358.037,484.799 336.5,486.5C 323.041,485.368 309.708,483.368 296.5,480.5C 283.324,483.585 269.991,485.585 256.5,486.5C 232.707,483.21 217.873,469.876 212,446.5C 208.905,427.494 211.239,409.16 219,391.5C 231.062,367.042 243.396,342.709 256,318.5C 259.875,309.201 263.542,299.868 267,290.5C 277.841,238.11 284.507,185.11 287,131.5C 287.539,125.797 289.206,120.464 292,115.5C 294.381,114.565 296.881,114.232 299.5,114.5 Z"/></g>
<g><path style="opacity:1" fill="#706e6d" d="M 299.5,114.5 C 301.5,114.5 302.5,115.5 302.5,117.5C 301.167,116.833 300.167,115.833 299.5,114.5 Z"/></g>
<g><path style="opacity:1" fill="#e3e1e3" d="M 199.5,210.5 C 225.666,209.165 237.832,221.498 236,247.5C 231.484,262.52 221.318,269.853 205.5,269.5C 192.541,268.936 183.708,262.603 179,250.5C 174.498,231.168 181.331,217.835 199.5,210.5 Z"/></g>
<g><path style="opacity:1" fill="#e2e0e3" d="M 379.5,210.5 C 408.445,209.936 420.112,223.769 414.5,252C 405.354,268.831 391.687,273.831 373.5,267C 360.333,259.251 355.167,247.751 358,232.5C 361.685,221.65 368.851,214.316 379.5,210.5 Z"/></g>
<g><path style="opacity:1" fill="#482a03" d="M 201.5,221.5 C 222.516,221.874 229.35,231.874 222,251.5C 214.62,258.94 206.12,260.44 196.5,256C 189.221,250.164 186.721,242.664 189,233.5C 191.744,227.921 195.911,223.921 201.5,221.5 Z"/></g>
<g><path style="opacity:1" fill="#472a02" d="M 382.5,221.5 C 402.435,221.932 409.268,231.599 403,250.5C 395.604,258.876 386.771,260.71 376.5,256C 367.799,248.034 366.299,238.867 372,228.5C 374.998,225.262 378.498,222.929 382.5,221.5 Z"/></g>
<g><path style="opacity:1" fill="#efeeed" d="M 213.5,227.5 C 219.653,227.484 222.486,230.484 222,236.5C 217.902,241.804 213.902,241.804 210,236.5C 208.959,232.59 210.125,229.59 213.5,227.5 Z"/></g>
<g><path style="opacity:1" fill="#f0efee" d="M 392.5,227.5 C 400.845,227.691 403.178,231.524 399.5,239C 393.793,241.977 390.126,240.31 388.5,234C 389.25,231.429 390.583,229.262 392.5,227.5 Z"/></g>
<g><path style="opacity:1" fill="#040403" d="M 282.5,394.5 C 294.214,394.139 305.881,394.639 317.5,396C 342.329,402.493 349.162,417.326 338,440.5C 315.901,465.043 291.401,467.876 264.5,449C 249.714,436.45 247.214,421.95 257,405.5C 264.577,399.455 273.077,395.789 282.5,394.5 Z"/></g>
<g><path style="opacity:1" fill="#362e2a" d="M 284.5,404.5 C 292.507,404.334 300.507,404.5 308.5,405C 316.647,405.491 323.813,408.324 330,413.5C 334.286,419.237 334.619,425.237 331,431.5C 310.708,456.331 289.041,457.664 266,435.5C 258.231,426.145 259.065,417.645 268.5,410C 273.74,407.534 279.073,405.7 284.5,404.5 Z"/></g>
<g><path style="opacity:1" fill="#bb8083" d="M 336.5,486.5 C 335.378,487.156 334.045,487.489 332.5,487.5C 320.392,486.139 308.392,484.139 296.5,481.5C 284.804,484.31 272.971,486.31 261,487.5C 259.293,487.492 257.793,487.158 256.5,486.5C 269.991,485.585 283.324,483.585 296.5,480.5C 309.708,483.368 323.041,485.368 336.5,486.5 Z"/></g>
<g><path style="opacity:1" fill="#f19c9f" d="M 326.5,496.5 C 329.625,497.479 332.958,497.813 336.5,497.5C 335.883,509.204 333.55,520.537 329.5,531.5C 319.56,550.295 304.227,556.795 283.5,551C 273.925,546.926 267.258,540.093 263.5,530.5C 259.464,519.886 257.464,508.886 257.5,497.5C 260.385,497.806 263.052,497.473 265.5,496.5C 275.814,495.804 285.98,494.138 296,491.5C 306.114,493.649 316.28,495.315 326.5,496.5 Z"/></g>
<g><path style="opacity:1" fill="#3d322e" d="M 265.5,496.5 C 263.052,497.473 260.385,497.806 257.5,497.5C 257.464,508.886 259.464,519.886 263.5,530.5C 257.208,519.415 251.541,507.915 246.5,496C 252.748,496.414 259.081,496.581 265.5,496.5 Z"/></g>
<g><path style="opacity:1" fill="#3b302d" d="M 329.5,531.5 C 333.55,520.537 335.883,509.204 336.5,497.5C 332.958,497.813 329.625,497.479 326.5,496.5C 333.56,496.551 340.56,496.384 347.5,496C 342.312,507.545 336.978,519.045 331.5,530.5C 331.043,531.298 330.376,531.631 329.5,531.5 Z"/></g>
</svg>
