<?xml version="1.0" encoding="UTF-8"?>
<!DOCTYPE svg PUBLIC "-//W3C//DTD SVG 1.1//EN" "http://www.w3.org/Graphics/SVG/1.1/DTD/svg11.dtd">
<svg xmlns="http://www.w3.org/2000/svg" version="1.1" width="600px" height="600px" style="shape-rendering:geometricPrecision; text-rendering:geometricPrecision; image-rendering:optimizeQuality; fill-rule:evenodd; clip-rule:evenodd" xmlns:xlink="http://www.w3.org/1999/xlink">
<g><path style="opacity:0.959" fill="#020100" d="M 334.5,50.5 C 346.011,49.3431 351.011,54.3431 349.5,65.5C 351.277,66.901 352.944,68.401 354.5,70C 376.412,72.2699 397.579,77.4366 418,85.5C 426.33,80.6166 435.164,79.45 444.5,82C 475.577,93.1365 506.577,104.47 537.5,116C 553.375,121.846 567.542,130.346 580,141.5C 589.754,156.712 591.087,172.712 584,189.5C 582.274,193.953 580.274,198.286 578,202.5C 567.333,217.833 556.667,233.167 546,248.5C 538.237,262.025 531.57,276.025 526,290.5C 521.054,296.039 515.054,297.705 508,295.5C 509.395,302.596 510.895,309.763 512.5,317C 510.814,330.259 503.647,334.759 491,330.5C 492.96,345.635 495.96,360.635 500,375.5C 501.572,390.943 495.072,396.443 480.5,392C 479.333,390.833 478.167,389.667 477,388.5C 477.63,397.805 478.463,407.138 479.5,416.5C 480.095,427.366 475.095,433.366 464.5,434.5C 463.641,441.578 461.474,448.245 458,454.5C 453.389,460.405 447.555,462.738 440.5,461.5C 440.849,467.345 440.016,473.012 438,478.5C 427.631,496.37 414.131,511.537 397.5,524C 385.81,529.908 378.31,526.408 375,513.5C 365.139,521.016 354.306,526.849 342.5,531C 328.462,536.259 314.129,540.425 299.5,543.5C 277.538,539.187 256.538,532.021 236.5,522C 232.247,519.29 228.08,516.457 224,513.5C 220.717,526.395 213.217,529.895 201.5,524C 188.627,514.127 177.46,502.627 168,489.5C 161.344,481.364 158.177,472.031 158.5,461.5C 148.385,462.678 141.552,458.344 138,448.5C 136.358,443.598 135.191,438.598 134.5,433.5C 126.866,433.701 122.366,430.034 121,422.5C 121.082,410.441 121.749,398.441 123,386.5C 118.121,392.794 111.954,394.628 104.5,392C 102.622,390.457 101.122,388.624 100,386.5C 99.7339,381.568 99.5672,376.734 99.5,372C 103.362,358.72 106.029,345.22 107.5,331.5C 94.6419,334.578 87.6419,329.578 86.5,316.5C 87.6232,309.508 89.2898,302.675 91.5,296C 84.0645,297.632 77.8979,295.465 73,289.5C 67.7582,275.682 61.4249,262.348 54,249.5C 45.0707,235.307 35.4041,221.64 25,208.5C 17.0873,195.929 12.2539,182.262 10.5,167.5C 10.8278,152.003 17.4944,140.17 30.5,132C 46.1687,123 62.502,115.333 79.5,109C 104.652,100.394 129.652,91.3939 154.5,82C 163.309,79.5888 171.809,80.4221 180,84.5C 198.664,78.0173 217.831,73.5173 237.5,71C 239.977,69.3573 242.31,67.524 244.5,65.5C 246.007,58.8275 250.173,55.1608 257,54.5C 263.543,55.4585 269.543,57.7918 275,61.5C 278.005,53.2458 283.838,50.0791 292.5,52C 300.395,54.7415 307.395,58.9082 313.5,64.5C 320.018,58.9592 327.018,54.2926 334.5,50.5 Z"/></g>
<g><path style="opacity:1" fill="#b88024" d="M 418.5,96.5 C 414.855,101.106 411.689,106.106 409,111.5C 408.48,113.289 408.813,114.956 410,116.5C 419.449,121.634 428.616,127.134 437.5,133C 447.174,142.835 455.507,153.669 462.5,165.5C 463.5,166.167 464.5,166.833 465.5,167.5C 471.798,178.231 476.631,189.565 480,201.5C 485.89,215.392 490.39,229.725 493.5,244.5C 492.603,243.402 491.77,243.402 491,244.5C 489.621,247.515 488.788,250.681 488.5,254C 491.002,274.176 495.169,294.01 501,313.5C 501.667,315.833 501.667,318.167 501,320.5C 500.107,321.081 499.107,321.415 498,321.5C 494.791,320.48 491.624,319.314 488.5,318C 485.044,317.145 482.544,318.311 481,321.5C 480.182,324.107 479.682,326.774 479.5,329.5C 482.841,347.526 486.175,365.526 489.5,383.5C 488.448,383.649 487.448,383.483 486.5,383C 481.568,377.229 475.902,372.396 469.5,368.5C 468.522,368.977 467.689,369.643 467,370.5C 465.903,374.384 465.403,378.384 465.5,382.5C 466.734,395.496 467.567,408.496 468,421.5C 466.135,423.855 463.969,424.022 461.5,422C 460,420.5 458.5,419 457,417.5C 445.656,363.259 416.49,321.759 369.5,293C 309.64,263.108 253.974,269.441 202.5,312C 170.787,340.589 150.287,375.755 141,417.5C 138.49,420.665 135.324,422.665 131.5,423.5C 131.732,409.981 132.399,396.481 133.5,383C 133.558,378.747 133.058,374.58 132,370.5C 129.592,368.376 127.092,368.543 124.5,371C 119.684,374.981 115.018,379.148 110.5,383.5C 110.167,382.333 109.833,381.167 109.5,380C 113.153,363.056 116.486,346.056 119.5,329C 118.535,317.348 113.202,314.681 103.5,321C 101.559,321.743 99.7261,321.576 98,320.5C 97.3333,317.833 97.3333,315.167 98,312.5C 103.595,293.12 107.762,273.454 110.5,253.5C 109.974,250.728 109.141,248.062 108,245.5C 107.23,244.402 106.397,244.402 105.5,245.5C 110.903,214.868 122.07,185.868 139,158.5C 143.677,154.321 147.843,149.655 151.5,144.5C 158.303,139.874 163.636,134.374 167.5,128C 174.582,123.375 181.749,118.875 189,114.5C 188.914,111.298 187.914,108.298 186,105.5C 183.59,102.603 181.423,99.6032 179.5,96.5C 202.929,87.0597 227.263,81.2263 252.5,79C 251.167,77.6667 249.833,76.3333 248.5,75C 251.482,74.502 254.482,74.3354 257.5,74.5C 257.127,71.4261 256.461,68.4261 255.5,65.5C 258.271,65.4207 260.937,65.9207 263.5,67C 269.981,70.655 276.481,74.155 283,77.5C 284.107,77.4148 285.107,77.0814 286,76.5C 286,71.8333 286,67.1667 286,62.5C 286.725,61.9415 287.558,61.6082 288.5,61.5C 297.836,64.8368 305.836,70.1701 312.5,77.5C 319.972,72.5278 327.305,67.3611 334.5,62C 336.345,60.872 338.345,60.372 340.5,60.5C 339.268,64.8038 337.601,68.9704 335.5,73C 335.645,73.772 335.978,74.4387 336.5,75C 339.2,75.2532 341.867,75.2532 344.5,75C 343.313,76.0195 342.313,77.1861 341.5,78.5C 368.029,80.9746 393.695,86.9746 418.5,96.5 Z"/></g>
<g><path style="opacity:1" fill="#81511c" d="M 179.5,96.5 C 181.423,99.6032 183.59,102.603 186,105.5C 187.914,108.298 188.914,111.298 189,114.5C 181.749,118.875 174.582,123.375 167.5,128C 163.636,134.374 158.303,139.874 151.5,144.5C 147.843,149.655 143.677,154.321 139,158.5C 122.07,185.868 110.903,214.868 105.5,245.5C 103.029,258.081 98.8619,270.081 93,281.5C 90.1126,286.142 86.4459,287.142 82,284.5C 71.2435,255.631 55.9102,229.631 36,206.5C 29.4,196.707 24.7333,186.041 22,174.5C 19.6301,163.626 22.1301,154.126 29.5,146C 35.1559,141.504 41.1559,137.504 47.5,134C 63.1757,126.553 79.1757,119.886 95.5,114C 117.329,106.724 138.996,99.0574 160.5,91C 167.603,90.2522 173.937,92.0856 179.5,96.5 Z"/></g>
<g><path style="opacity:1" fill="#81511c" d="M 493.5,244.5 C 490.39,229.725 485.89,215.392 480,201.5C 476.631,189.565 471.798,178.231 465.5,167.5C 464.5,166.833 463.5,166.167 462.5,165.5C 455.507,153.669 447.174,142.835 437.5,133C 428.616,127.134 419.449,121.634 410,116.5C 408.813,114.956 408.48,113.289 409,111.5C 411.689,106.106 414.855,101.106 418.5,96.5C 422.561,94.1395 426.894,92.3062 431.5,91C 435.261,90.2617 438.928,90.5951 442.5,92C 476.343,104.21 510.01,116.877 543.5,130C 555.584,134.61 565.75,141.777 574,151.5C 578.634,163.129 578.634,174.795 574,186.5C 567.337,201.164 558.671,214.498 548,226.5C 535.657,244.183 525.657,263.183 518,283.5C 516.475,286.087 514.308,286.92 511.5,286C 508.667,284.5 506.5,282.333 505,279.5C 499.862,268.253 496.029,256.586 493.5,244.5 Z"/></g>
<g><path style="opacity:1" fill="#81511c" d="M 215.5,204.5 C 201.538,207.376 188.204,212.043 175.5,218.5C 174.054,217.387 172.387,217.22 170.5,218C 158.948,224.887 147.948,232.554 137.5,241C 131.871,241.031 130.371,238.531 133,233.5C 151.874,199.81 180.374,179.476 218.5,172.5C 230.724,173.221 236.891,179.554 237,191.5C 235.895,194.937 233.728,197.437 230.5,199C 225.543,200.158 220.543,200.992 215.5,201.5C 215.5,202.5 215.5,203.5 215.5,204.5 Z"/></g>
<g><path style="opacity:1" fill="#81511c" d="M 424.5,220.5 C 412.184,213.432 399.017,208.432 385,205.5C 383.744,205.648 382.577,205.982 381.5,206.5C 382.413,204.914 382.413,203.414 381.5,202C 375.724,201.045 370.057,199.712 364.5,198C 358.482,192.364 357.982,186.197 363,179.5C 367.349,175.41 372.516,173.076 378.5,172.5C 412.479,178.898 439.312,196.232 459,224.5C 461.505,228.011 463.339,231.844 464.5,236C 464.444,238.626 463.277,240.46 461,241.5C 451.844,235.015 442.677,228.515 433.5,222C 430.597,219.712 427.597,219.212 424.5,220.5 Z"/></g>
<g><path style="opacity:1" fill="#241916" d="M 215.5,204.5 C 218.697,207.708 221.864,211.042 225,214.5C 233.723,232.326 229.556,246.159 212.5,256C 190.414,261.116 177.414,252.449 173.5,230C 174.25,226.17 174.917,222.337 175.5,218.5C 188.204,212.043 201.538,207.376 215.5,204.5 Z"/></g>
<g><path style="opacity:1" fill="#241916" d="M 424.5,220.5 C 428.583,239.164 421.583,251.664 403.5,258C 385.215,260.039 373.715,252.206 369,234.5C 368.004,222.828 372.171,213.494 381.5,206.5C 382.577,205.982 383.744,205.648 385,205.5C 399.017,208.432 412.184,213.432 424.5,220.5 Z"/></g>
<g><path style="opacity:1" fill="#d0d0d0" d="M 212.5,217.5 C 219.173,218.338 221.673,222.004 220,228.5C 215.763,233.808 211.429,233.808 207,228.5C 205.679,223.141 207.513,219.474 212.5,217.5 Z"/></g>
<g><path style="opacity:1" fill="#d1d1d1" d="M 405.5,218.5 C 417.198,218.36 419.531,222.86 412.5,232C 404.839,232.67 401.673,229.17 403,221.5C 404.045,220.627 404.878,219.627 405.5,218.5 Z"/></g>
<g><path style="opacity:1" fill="#624d41" d="M 288.5,279.5 C 328.129,278.095 362.795,290.262 392.5,316C 422.935,343.336 442.769,377.169 452,417.5C 453.449,428.31 451.616,438.477 446.5,448C 445.167,448.667 443.833,448.667 442.5,448C 438.916,442.835 435.583,437.502 432.5,432C 430.299,431.175 428.466,431.675 427,433.5C 426.714,441.998 426.88,450.498 427.5,459C 427.577,463.917 427.077,468.75 426,473.5C 415.772,489.061 403.439,502.728 389,514.5C 388.215,508.234 386.548,502.234 384,496.5C 381.903,495.009 379.57,494.009 377,493.5C 368.927,502.965 359.094,510.132 347.5,515C 331.977,521.675 315.977,526.841 299.5,530.5C 277.261,525.921 256.261,518.088 236.5,507C 231.453,503.62 227.453,499.286 224.5,494C 220.972,493.507 217.805,494.34 215,496.5C 213.377,502.245 211.544,507.912 209.5,513.5C 195.02,502.191 182.853,488.857 173,473.5C 171.931,469.085 171.431,464.585 171.5,460C 172.229,451.169 172.396,442.336 172,433.5C 170.445,431.485 168.611,431.152 166.5,432.5C 163.415,437 160.582,441.667 158,446.5C 154.193,449.281 151.526,448.281 150,443.5C 146.322,433.358 145.656,423.025 148,412.5C 149.554,403.949 151.888,395.616 155,387.5C 162.97,372.072 171.47,357.072 180.5,342.5C 181.822,342.67 182.989,342.337 184,341.5C 189.243,332.235 196.077,324.068 204.5,317C 228.831,296.675 256.831,284.175 288.5,279.5 Z"/></g>
<g><path style="opacity:1" fill="#020101" d="M 285.5,335.5 C 294.839,335.334 304.173,335.5 313.5,336C 325.259,337.463 335.426,342.296 344,350.5C 352.141,368.251 348.307,382.918 332.5,394.5C 326.576,398.628 320.243,401.962 313.5,404.5C 311.815,406.017 310.315,407.684 309,409.5C 308.333,416.833 308.333,424.167 309,431.5C 310.586,434.341 312.42,437.007 314.5,439.5C 317.107,440.318 319.774,440.818 322.5,441C 336.873,441.109 351.207,441.776 365.5,443C 368.381,444.358 371.214,445.858 374,447.5C 374.781,448.944 374.614,450.277 373.5,451.5C 371.998,452.083 370.665,452.916 369.5,454C 363.042,455.129 356.542,455.963 350,456.5C 333.548,455.234 317.048,454.567 300.5,454.5C 285.5,454.667 270.5,454.833 255.5,455C 253.712,456.088 251.712,456.588 249.5,456.5C 242.788,455.996 236.122,455.162 229.5,454C 225.694,452.605 224.694,450.105 226.5,446.5C 228.795,444.52 231.461,443.353 234.5,443C 248.46,441.779 262.46,441.112 276.5,441C 280.108,440.974 283.442,440.141 286.5,438.5C 290.61,429.137 291.776,419.471 290,409.5C 289.215,407.714 288.049,406.214 286.5,405C 270.598,399.762 259.098,389.595 252,374.5C 249.783,353.023 259.45,340.356 281,336.5C 282.226,336.645 283.393,336.978 284.5,337.5C 285.298,337.043 285.631,336.376 285.5,335.5 Z"/></g>
<g><path style="opacity:1" fill="#986a1e" d="M 432.5,444.5 C 436.001,446.347 436.335,448.68 433.5,451.5C 432.526,449.257 432.192,446.924 432.5,444.5 Z"/></g>
<g><path style="opacity:1" fill="#996a1e" d="M 166.5,442.5 C 167.399,445.428 167.066,448.428 165.5,451.5C 164.28,451.113 163.613,450.28 163.5,449C 164.906,447.022 165.906,444.855 166.5,442.5 Z"/></g>
</svg>
