<?xml version="1.0" encoding="UTF-8"?>
<!DOCTYPE svg PUBLIC "-//W3C//DTD SVG 1.1//EN" "http://www.w3.org/Graphics/SVG/1.1/DTD/svg11.dtd">
<svg xmlns="http://www.w3.org/2000/svg" version="1.1" width="600px" height="600px" style="shape-rendering:geometricPrecision; text-rendering:geometricPrecision; image-rendering:optimizeQuality; fill-rule:evenodd; clip-rule:evenodd" xmlns:xlink="http://www.w3.org/1999/xlink">
<g><path style="opacity:0.967" fill="#030303" d="M 165.5,6.5 C 175.819,7.99415 184.485,12.6608 191.5,20.5C 200.747,17.3532 209.747,17.8532 218.5,22C 228.371,31.0395 238.037,40.2062 247.5,49.5C 254.078,47.9169 260.745,46.7502 267.5,46C 290.167,44.0229 312.834,44.0229 335.5,46C 342.108,46.7953 348.608,47.962 355,49.5C 364.143,40.0246 373.643,30.858 383.5,22C 392.253,17.8532 401.253,17.3532 410.5,20.5C 416.89,13.3893 424.723,8.72263 434,6.5C 434.833,6.83333 435.667,7.16667 436.5,7.5C 433.813,11.0205 430.647,14.0205 427,16.5C 425.5,18.6667 424,20.8333 422.5,23C 426.165,22.0162 429.832,20.6828 433.5,19C 442.494,17.6547 443.828,20.3214 437.5,27C 477.031,39.1729 517.364,47.5063 558.5,52C 564.796,53.0566 569.629,56.2233 573,61.5C 574.572,69.7554 574.905,78.0887 574,86.5C 572.295,98.115 569.462,109.448 565.5,120.5C 568.842,125.851 571.676,131.518 574,137.5C 575.564,142.132 575.731,146.799 574.5,151.5C 570.742,145.002 566.242,139.002 561,133.5C 562.933,139.278 563.6,145.278 563,151.5C 562.311,152.357 561.478,153.023 560.5,153.5C 557.81,151.644 555.644,149.311 554,146.5C 545.438,162.414 541.105,179.414 541,197.5C 538.947,201.292 535.781,202.458 531.5,201C 524.674,197.831 518.841,193.331 514,187.5C 526.256,231.318 526.589,275.318 515,319.5C 508.372,349.052 498.372,377.385 485,404.5C 473.831,422.668 461.498,440.001 448,456.5C 439.865,468.105 433.865,480.772 430,494.5C 426,511.833 422,529.167 418,546.5C 411.886,572.973 395.386,588.139 368.5,592C 345.531,593.483 323.031,590.983 301,584.5C 278.967,590.948 256.467,593.448 233.5,592C 210.429,589.901 194.929,578.067 187,556.5C 181.239,536.361 176.239,516.028 172,495.5C 169.59,487.267 166.59,479.267 163,471.5C 146.745,445.318 129.745,419.652 112,394.5C 93.954,353.316 82.954,310.316 79,265.5C 77.8201,239.618 80.9868,214.285 88.5,189.5C 88.3333,188.833 88.1667,188.167 88,187.5C 83.1591,193.331 77.3258,197.831 70.5,201C 66.2194,202.458 63.0527,201.292 61,197.5C 60.8958,179.417 56.5625,162.417 48,146.5C 46.3563,149.311 44.1897,151.644 41.5,153.5C 40.5224,153.023 39.6891,152.357 39,151.5C 38.3999,145.278 39.0665,139.278 41,133.5C 35.7583,139.002 31.2583,145.002 27.5,151.5C 26.2691,146.799 26.4358,142.132 28,137.5C 30.3243,131.518 33.1576,125.851 36.5,120.5C 29.4578,102.459 26.6245,83.792 28,64.5C 30.4907,57.1538 35.6574,52.9871 43.5,52C 84.6356,47.5063 124.969,39.1729 164.5,27C 158.172,20.3214 159.506,17.6547 168.5,19C 172.168,20.6828 175.835,22.0162 179.5,23C 176.045,17.2114 171.545,12.378 166,8.5C 165.536,7.90558 165.369,7.23891 165.5,6.5 Z"/></g>
<g><path style="opacity:1" fill="#80511b" d="M 219.5,62.5 C 207.838,52.6661 194.838,50.4994 180.5,56C 175.902,58.2701 171.569,60.9368 167.5,64C 147.313,88.8604 129.48,115.36 114,143.5C 112.232,145.878 112.065,148.378 113.5,151C 112.669,155.151 112.003,159.317 111.5,163.5C 108.642,169.204 105.142,174.537 101,179.5C 97.9714,171.933 92.8047,170.1 85.5,174C 81.3514,179.316 76.6848,184.149 71.5,188.5C 69.791,171.873 64.9577,156.206 57,141.5C 52.5194,138.423 50.5194,134.09 51,128.5C 50.3848,126.884 49.3848,125.551 48,124.5C 46.2747,116.324 43.9414,108.324 41,100.5C 38.0213,89.3383 37.0213,78.0049 38,66.5C 41.155,63.3327 44.9883,61.4994 49.5,61C 88.2392,56.988 126.239,49.3213 163.5,38C 167.719,37.2087 171.386,35.3754 174.5,32.5C 178.397,33.7545 182.064,33.2545 185.5,31C 192.184,30.307 198.851,29.4737 205.5,28.5C 208.937,28.5521 211.937,29.7187 214.5,32C 221.681,39.0144 228.681,46.181 235.5,53.5C 230.463,57.0186 225.13,60.0186 219.5,62.5 Z"/></g>
<g><path style="opacity:1" fill="#f4f4f4" d="M 491.5,166.5 C 491.714,159.344 490.881,152.344 489,145.5C 473.276,117.206 455.443,90.3727 435.5,65C 421.246,52.3928 405.58,50.0595 388.5,58C 386.627,59.7038 384.96,61.5372 383.5,63.5C 377.332,60.9196 371.665,57.5863 366.5,53.5C 373.319,46.181 380.319,39.0144 387.5,32C 390.063,29.7187 393.063,28.5521 396.5,28.5C 403.149,29.4737 409.816,30.307 416.5,31C 420.057,33.5904 423.89,34.0904 428,32.5C 430.626,35.2308 433.793,37.0642 437.5,38C 475.042,49.3971 513.375,57.0637 552.5,61C 556.851,61.8873 560.685,63.7206 564,66.5C 565.064,78.0096 564.064,89.3429 561,100.5C 556.739,112.86 552.905,125.194 549.5,137.5C 547.851,138.648 546.351,139.981 545,141.5C 537.046,156.197 532.212,171.864 530.5,188.5C 525.315,184.149 520.649,179.316 516.5,174C 509.151,170.227 503.651,172.061 500,179.5C 496.648,175.451 493.815,171.118 491.5,166.5 Z"/></g>
<g><path style="opacity:1" fill="#212120" d="M 219.5,62.5 C 212.791,66.3601 206.458,70.8601 200.5,76C 183.205,90.2928 166.205,104.96 149.5,120C 136.698,134.478 124.031,148.978 111.5,163.5C 112.003,159.317 112.669,155.151 113.5,151C 112.065,148.378 112.232,145.878 114,143.5C 129.48,115.36 147.313,88.8604 167.5,64C 171.569,60.9368 175.902,58.2701 180.5,56C 194.838,50.4994 207.838,52.6661 219.5,62.5 Z"/></g>
<g><path style="opacity:1" fill="#212121" d="M 491.5,166.5 C 477.817,148.972 463.151,132.139 447.5,116C 431.353,101.763 415.02,87.7632 398.5,74C 393.597,70.2476 388.597,66.7476 383.5,63.5C 384.96,61.5372 386.627,59.7038 388.5,58C 405.58,50.0595 421.246,52.3928 435.5,65C 455.443,90.3727 473.276,117.206 489,145.5C 490.881,152.344 491.714,159.344 491.5,166.5 Z"/></g>
<g><path style="opacity:1" fill="#f1f1f1" d="M 481.5,168.5 C 468.566,157.068 456.066,145.068 444,132.5C 432.965,145.11 419.798,154.943 404.5,162C 388.792,167.927 372.792,172.927 356.5,177C 351.401,179.883 346.067,182.217 340.5,184C 347.691,186.467 355.024,188.633 362.5,190.5C 364.071,189.691 365.738,189.357 367.5,189.5C 358.813,191.903 350.48,195.403 342.5,200C 333.415,209.337 327.915,220.504 326,233.5C 325.333,244.833 325.333,256.167 326,267.5C 327.846,278.938 330.013,290.272 332.5,301.5C 333.551,307.58 335.051,313.58 337,319.5C 337.902,321.431 339.069,323.097 340.5,324.5C 342.679,328.203 344.345,332.203 345.5,336.5C 345.784,339.254 346.451,341.92 347.5,344.5C 348.283,346.288 349.616,347.288 351.5,347.5C 354.08,350.989 356.413,354.656 358.5,358.5C 359.745,361.009 360.745,363.675 361.5,366.5C 362.912,367.806 364.579,368.64 366.5,369C 369.737,373.183 373.403,376.849 377.5,380C 379.927,381.591 382.593,382.425 385.5,382.5C 403.613,391.472 422.28,392.806 441.5,386.5C 444.016,386.245 446.35,385.411 448.5,384C 450.373,381.791 452.54,379.958 455,378.5C 456.368,375.814 457.701,373.147 459,370.5C 460.011,369.663 461.178,369.33 462.5,369.5C 468.233,377.233 473.566,385.233 478.5,393.5C 473.768,403.3 468.268,412.633 462,421.5C 448.044,437.798 436.044,455.465 426,474.5C 424.333,479.5 422.667,484.5 421,489.5C 416.469,509.959 411.469,530.292 406,550.5C 401.474,565.693 391.64,575.526 376.5,580C 362.251,582.971 347.917,583.304 333.5,581C 322.614,579.07 311.781,576.903 301,574.5C 287.308,577.772 273.474,580.272 259.5,582C 245.519,583.563 231.853,582.229 218.5,578C 214.247,575.29 210.08,572.457 206,569.5C 202.159,563.822 198.826,557.822 196,551.5C 190.493,531.301 185.493,510.968 181,490.5C 178.59,482.267 175.59,474.267 172,466.5C 155.06,439.896 137.726,413.563 120,387.5C 101.72,345.546 91.2201,301.713 88.5,256C 88.6744,239.428 90.6744,223.095 94.5,207C 94.2645,206.127 93.9312,205.293 93.5,204.5C 109.273,180.221 126.773,157.221 146,135.5C 167.906,114.923 190.406,95.0894 213.5,76C 223.509,69.6602 233.842,63.8269 244.5,58.5C 245.446,58.9867 246.446,59.3201 247.5,59.5C 264.478,56.0465 281.644,54.7132 299,55.5C 319.346,54.6428 339.513,56.1428 359.5,60C 368.661,64.7464 377.661,69.7464 386.5,75C 410.7,94.2072 433.867,114.707 456,136.5C 463.333,145.167 470.667,153.833 478,162.5C 479.421,164.405 480.588,166.405 481.5,168.5 Z"/></g>
<g><path style="opacity:1" fill="#f4f4f4" d="M 481.5,168.5 C 491.05,180.576 499.883,193.243 508,206.5C 512.795,232.326 513.795,258.326 511,284.5C 505.884,322.614 495.051,358.947 478.5,393.5C 473.566,385.233 468.233,377.233 462.5,369.5C 471.577,352.601 477.244,334.601 479.5,315.5C 482.013,291.152 480.347,267.152 474.5,243.5C 474.1,237.294 471.767,231.96 467.5,227.5C 466.754,226.264 466.421,224.93 466.5,223.5C 465.325,223.719 464.325,223.386 463.5,222.5C 460.992,219.162 458.325,215.995 455.5,213C 453.975,211.991 452.308,211.491 450.5,211.5C 448.77,210.974 447.436,209.974 446.5,208.5C 445.766,207.292 445.433,205.959 445.5,204.5C 430.397,196.912 414.397,191.912 397.5,189.5C 387.5,189.5 377.5,189.5 367.5,189.5C 365.738,189.357 364.071,189.691 362.5,190.5C 355.024,188.633 347.691,186.467 340.5,184C 346.067,182.217 351.401,179.883 356.5,177C 372.792,172.927 388.792,167.927 404.5,162C 419.798,154.943 432.965,145.11 444,132.5C 456.066,145.068 468.566,157.068 481.5,168.5 Z"/></g>
<g><path style="opacity:1" fill="#0a0604" d="M 367.5,189.5 C 377.5,189.5 387.5,189.5 397.5,189.5C 414.749,193.254 431.082,199.587 446.5,208.5C 447.436,209.974 448.77,210.974 450.5,211.5C 461.219,220.207 469.219,230.874 474.5,243.5C 480.347,267.152 482.013,291.152 479.5,315.5C 475.514,339.294 466.014,360.628 451,379.5C 447.932,382.083 444.765,384.416 441.5,386.5C 422.28,392.806 403.613,391.472 385.5,382.5C 375.285,375.957 366.285,367.957 358.5,358.5C 356.413,354.656 354.08,350.989 351.5,347.5C 350.258,343.345 348.258,339.678 345.5,336.5C 344.345,332.203 342.679,328.203 340.5,324.5C 338.204,316.609 335.537,308.942 332.5,301.5C 330.013,290.272 327.846,278.938 326,267.5C 325.333,256.167 325.333,244.833 326,233.5C 327.915,220.504 333.415,209.337 342.5,200C 350.48,195.403 358.813,191.903 367.5,189.5 Z"/></g>
<g><path style="opacity:1" fill="#80511c" d="M 367.5,194.5 C 403.123,190.983 433.623,201.65 459,226.5C 468.688,240.228 474.022,255.561 475,272.5C 478.781,304.825 472.781,335.158 457,363.5C 444.314,383.291 426.481,390.124 403.5,384C 382.232,377.401 366.399,364.235 356,344.5C 336.938,310.254 328.605,273.588 331,234.5C 333.956,212.712 346.123,199.379 367.5,194.5 Z"/></g>
<g><path style="opacity:1" fill="#b1b1b0" d="M 397.5,189.5 C 414.397,191.912 430.397,196.912 445.5,204.5C 445.433,205.959 445.766,207.292 446.5,208.5C 431.082,199.587 414.749,193.254 397.5,189.5 Z"/></g>
<g><path style="opacity:1" fill="#b7b6b6" d="M 450.5,211.5 C 452.308,211.491 453.975,211.991 455.5,213C 458.325,215.995 460.992,219.162 463.5,222.5C 464.325,223.386 465.325,223.719 466.5,223.5C 466.421,224.93 466.754,226.264 467.5,227.5C 471.767,231.96 474.1,237.294 474.5,243.5C 469.219,230.874 461.219,220.207 450.5,211.5 Z"/></g>
<g><path style="opacity:1" fill="#81531f" d="M 197.5,227.5 C 226.261,229.595 242.261,244.928 245.5,273.5C 242.487,301.18 227.153,316.513 199.5,319.5C 171.656,316.656 156.656,301.323 154.5,273.5C 156.481,246.522 170.814,231.189 197.5,227.5 Z"/></g>
<g><path style="opacity:1" fill="#f1f0f0" d="M 393.5,227.5 C 421.889,225.091 440.056,237.425 448,264.5C 450.806,290.736 439.972,308.57 415.5,318C 387.698,323.019 368.531,312.519 358,286.5C 352.995,256.487 364.828,236.82 393.5,227.5 Z"/></g>
<g><path style="opacity:1" fill="#282727" d="M 192.5,240.5 C 212.469,239.055 225.636,247.722 232,266.5C 233.49,291.343 221.823,304.677 197,306.5C 173.857,301.343 164.19,287.01 168,263.5C 172.534,251.795 180.7,244.128 192.5,240.5 Z"/></g>
<g><path style="opacity:1" fill="#292828" d="M 400.5,240.5 C 420.454,241.294 432.121,251.461 435.5,271C 434.679,292.32 423.679,304.153 402.5,306.5C 382.065,304.567 371.398,293.4 370.5,273C 371.735,253.936 381.735,243.103 400.5,240.5 Z"/></g>
<g><path style="opacity:1" fill="#ececec" d="M 188.5,253.5 C 196.033,253.529 199.533,257.196 199,264.5C 196.459,269.069 192.625,270.569 187.5,269C 182.025,263.481 182.359,258.314 188.5,253.5 Z"/></g>
<g><path style="opacity:1" fill="#ececec" d="M 391.5,253.5 C 399.32,253.152 402.82,256.819 402,264.5C 399.459,269.069 395.625,270.569 390.5,269C 384.964,263.404 385.297,258.237 391.5,253.5 Z"/></g>
<g><path style="opacity:1" fill="#b8b7b6" d="M 332.5,301.5 C 335.537,308.942 338.204,316.609 340.5,324.5C 339.069,323.097 337.902,321.431 337,319.5C 335.051,313.58 333.551,307.58 332.5,301.5 Z"/></g>
<g><path style="opacity:1" fill="#b0afaf" d="M 345.5,336.5 C 348.258,339.678 350.258,343.345 351.5,347.5C 349.616,347.288 348.283,346.288 347.5,344.5C 346.451,341.92 345.784,339.254 345.5,336.5 Z"/></g>
<g><path style="opacity:1" fill="#b4b3b3" d="M 479.5,315.5 C 477.244,334.601 471.577,352.601 462.5,369.5C 461.178,369.33 460.011,369.663 459,370.5C 457.701,373.147 456.368,375.814 455,378.5C 452.54,379.958 450.373,381.791 448.5,384C 446.35,385.411 444.016,386.245 441.5,386.5C 444.765,384.416 447.932,382.083 451,379.5C 466.014,360.628 475.514,339.294 479.5,315.5 Z"/></g>
<g><path style="opacity:1" fill="#b3b2b1" d="M 358.5,358.5 C 366.285,367.957 375.285,375.957 385.5,382.5C 382.593,382.425 379.927,381.591 377.5,380C 373.403,376.849 369.737,373.183 366.5,369C 364.579,368.64 362.912,367.806 361.5,366.5C 360.745,363.675 359.745,361.009 358.5,358.5 Z"/></g>
<g><path style="opacity:1" fill="#282727" d="M 291.5,443.5 C 309.731,442.623 327.398,445.123 344.5,451C 366.551,462.14 373.051,479.306 364,502.5C 351.14,523.865 332.306,536.698 307.5,541C 281.336,542 259.836,532.5 243,512.5C 233.193,498.381 231.526,483.381 238,467.5C 244.711,457.712 253.877,451.212 265.5,448C 274.217,445.937 282.884,444.437 291.5,443.5 Z"/></g>
</svg>
