<?xml version="1.0" encoding="UTF-8"?>
<!DOCTYPE svg PUBLIC "-//W3C//DTD SVG 1.1//EN" "http://www.w3.org/Graphics/SVG/1.1/DTD/svg11.dtd">
<svg xmlns="http://www.w3.org/2000/svg" version="1.1" width="600px" height="600px" style="shape-rendering:geometricPrecision; text-rendering:geometricPrecision; image-rendering:optimizeQuality; fill-rule:evenodd; clip-rule:evenodd" xmlns:xlink="http://www.w3.org/1999/xlink">
<g><path style="opacity:0.961" fill="#010101" d="M 192.5,20.5 C 193.552,20.3505 194.552,20.5172 195.5,21C 200.201,25.3658 204.534,30.0325 208.5,35C 209.729,35.7811 211.062,36.2811 212.5,36.5C 251.817,22.8192 292.151,18.6526 333.5,24C 351.295,26.2399 368.461,30.7399 385,37.5C 391.112,32.721 396.612,27.221 401.5,21C 402.793,20.51 404.127,20.3433 405.5,20.5C 404.153,25.8507 402.82,31.184 401.5,36.5C 403.199,36.6602 404.866,36.4935 406.5,36C 412.269,32.699 418.103,29.5323 424,26.5C 425.169,27.0085 426.002,27.8419 426.5,29C 424.038,34.0921 421.705,39.2587 419.5,44.5C 419.977,45.4776 420.643,46.3109 421.5,47C 428.58,48.7804 435.746,48.9471 443,47.5C 445.526,47.5651 447.859,48.2317 450,49.5C 449.643,53.5827 448.977,57.5827 448,61.5C 464.697,73.5314 478.697,88.1981 490,105.5C 500.966,114.797 511.632,124.464 522,134.5C 536.92,153.321 549.587,173.655 560,195.5C 571.307,223.758 582.807,251.925 594.5,280C 594.188,282.281 592.855,283.448 590.5,283.5C 585.234,281.903 579.901,281.069 574.5,281C 573.106,281.956 572.439,283.289 572.5,285C 573.185,287.54 574.019,290.04 575,292.5C 580.839,301.508 586.172,310.841 591,320.5C 595.323,332.029 595.657,343.695 592,355.5C 587.4,371.301 582.4,386.967 577,402.5C 575.84,407.434 575.34,412.434 575.5,417.5C 574.448,417.649 573.448,417.483 572.5,417C 568.966,413.131 565.133,409.631 561,406.5C 560.333,409.167 560.333,411.833 561,414.5C 563.823,424.46 566.323,434.46 568.5,444.5C 567.448,444.649 566.448,444.483 565.5,444C 562.833,441 560.167,438 557.5,435C 556.552,434.517 555.552,434.351 554.5,434.5C 558.266,455.373 565.433,475.04 576,493.5C 577.773,497.152 578.94,500.985 579.5,505C 579.607,507.847 578.273,509.347 575.5,509.5C 570.226,507.53 565.226,505.03 560.5,502C 557.607,500.851 554.607,500.351 551.5,500.5C 552.324,504.799 552.991,509.133 553.5,513.5C 553.46,515.429 553.127,517.262 552.5,519C 540.868,520.456 530.535,517.456 521.5,510C 512.583,503.085 505.083,494.918 499,485.5C 488.722,470.617 479.722,454.95 472,438.5C 467.799,426.162 465.132,413.495 464,400.5C 463.667,373.5 463.333,346.5 463,319.5C 462.627,304.734 461.294,290.067 459,275.5C 454.126,325.119 439.792,371.786 416,415.5C 401.389,457.666 387.389,499.999 374,542.5C 366.216,559.817 353.049,570.65 334.5,575C 310.167,581 285.833,581 261.5,575C 235.382,568.21 220.549,551.377 217,524.5C 202.449,484.723 188.449,444.723 175,404.5C 161.79,380.869 152.123,355.869 146,329.5C 142.781,314.179 139.781,298.846 137,283.5C 136.223,290.823 135.556,298.157 135,305.5C 134.907,338.186 134.24,370.853 133,403.5C 131.68,418.448 128.013,432.781 122,446.5C 111.966,466.185 99.9664,484.518 86,501.5C 78.6531,509.179 69.9865,514.846 60,518.5C 55.5653,519.824 51.0653,520.324 46.5,520C 44.3352,518.839 43.3352,517.006 43.5,514.5C 44.8119,509.921 45.4785,505.254 45.5,500.5C 42.7294,500.421 40.0627,500.921 37.5,502C 32.6572,505.171 27.4905,507.671 22,509.5C 19.0524,509.251 17.8857,507.584 18.5,504.5C 18.5943,502.077 19.0943,499.744 20,497.5C 30.4996,478.34 38.3329,458.173 43.5,437C 43.2373,435.054 42.2373,434.388 40.5,435C 37.2731,438.638 33.9398,442.138 30.5,445.5C 29.1195,445 28.4528,444 28.5,442.5C 32.6015,431.094 35.6015,419.427 37.5,407.5C 32.8498,409.629 28.8498,412.795 25.5,417C 24.2396,418.113 23.073,418.28 22,417.5C 21.6667,413.167 21.3333,408.833 21,404.5C 16.8682,391.105 12.5349,377.771 8,364.5C 5.20626,355.698 3.37292,346.698 2.5,337.5C 5.12691,321.915 11.2936,307.915 21,295.5C 29.3603,282.204 26.1937,278.038 11.5,283C 9.16667,283.667 6.83333,283.667 4.5,283C 3.42378,281.274 3.25711,279.441 4,277.5C 15.2193,251.728 25.886,225.728 36,199.5C 48.545,172.226 64.7117,147.392 84.5,125C 90.7574,120.287 96.924,115.454 103,110.5C 113.167,98.3333 123.333,86.1667 133.5,74C 138.667,70.1667 143.833,66.3333 149,62.5C 149.082,58.1036 148.749,53.7702 148,49.5C 150.141,48.2317 152.474,47.5651 155,47.5C 162.723,49.2963 170.223,48.7963 177.5,46C 177.833,45.6667 178.167,45.3333 178.5,45C 176.433,39.5344 174.1,34.201 171.5,29C 171.613,27.7202 172.28,26.8869 173.5,26.5C 179.605,29.4316 185.605,32.5982 191.5,36C 193.134,36.4935 194.801,36.6602 196.5,36.5C 195.153,31.1493 193.82,25.816 192.5,20.5 Z"/></g>
<g><path style="opacity:1" fill="#4b4848" d="M 138.5,261.5 C 138.76,228.469 139.926,195.469 142,162.5C 143.75,142.231 148.084,122.564 155,103.5C 166.714,81.306 181.881,61.9727 200.5,45.5C 201.265,45.0766 202.098,44.7432 203,44.5C 205.866,45.8997 208.866,46.8997 212,47.5C 237.87,37.4936 264.704,32.4936 292.5,32.5C 290.191,47.0687 288.691,61.7353 288,76.5C 286.281,124.832 284.614,173.165 283,221.5C 279.567,269.997 270.234,317.33 255,363.5C 242.86,398.587 231.527,433.92 221,469.5C 219.125,477.748 217.792,486.081 217,494.5C 205.748,463.746 195.082,432.746 185,401.5C 171.06,376.351 161.06,349.684 155,321.5C 151.351,304.275 148.351,286.942 146,269.5C 145.32,264.989 142.82,262.323 138.5,261.5 Z"/></g>
<g><path style="opacity:1" fill="#4b4848" d="M 397.5,46.5 C 412.969,60.144 426.136,75.8106 437,93.5C 445.534,109.102 450.867,125.769 453,143.5C 456.625,180.747 458.792,218.08 459.5,255.5C 455.438,255.724 452.605,257.724 451,261.5C 447.06,297.747 439.06,333.08 427,367.5C 407.255,408.4 391.255,450.733 379,494.5C 377.901,483.337 375.901,472.337 373,461.5C 361.205,424.449 349.205,387.449 337,350.5C 324.246,309.063 316.246,266.73 313,223.5C 311.896,173.161 310.563,122.828 309,72.5C 308.267,59.0676 306.767,45.7342 304.5,32.5C 331.939,32.7113 358.439,37.7113 384,47.5C 387.48,46.9637 390.813,45.9637 394,44.5C 395.459,44.8082 396.626,45.4749 397.5,46.5 Z"/></g>
<g><path style="opacity:1" fill="#3d3938" d="M 200.5,45.5 C 181.881,61.9727 166.714,81.306 155,103.5C 148.084,122.564 143.75,142.231 142,162.5C 139.926,195.469 138.76,228.469 138.5,261.5C 133.579,261.043 130.079,263.043 128,267.5C 126.502,282.154 125.168,296.82 124,311.5C 123.667,340.833 123.333,370.167 123,399.5C 122.17,416.161 117.837,431.828 110,446.5C 102.083,460.674 93.4161,474.34 84,487.5C 76.59,497.42 67.09,504.42 55.5,508.5C 57.8033,493.477 51.4699,487.81 36.5,491.5C 36.1667,491 35.8333,490.5 35.5,490C 42.8789,474.741 48.7122,458.908 53,442.5C 55.3387,433.816 52.5053,427.649 44.5,424C 47.0702,417.403 47.9035,410.569 47,403.5C 44.8983,398.735 41.2316,396.402 36,396.5C 33.863,397.077 31.6963,397.41 29.5,397.5C 25.9719,385.415 22.1386,373.415 18,361.5C 15.7013,353.975 14.2013,346.308 13.5,338.5C 13.5284,334.764 14.0284,331.097 15,327.5C 20.1604,317.175 25.8271,307.175 32,297.5C 40.0256,281.887 35.5256,272.554 18.5,269.5C 28.4883,246.702 37.9883,223.702 47,200.5C 59.0641,175.519 74.2307,152.686 92.5,132C 109.03,120.135 122.864,105.635 134,88.5C 141.416,81.0799 149.416,74.4132 158,68.5C 159.461,65.3214 160.295,61.9881 160.5,58.5C 166.176,58.6661 171.843,58.4994 177.5,58C 183.228,56.2721 186.895,52.6054 188.5,47C 192.548,46.6958 196.548,46.1958 200.5,45.5 Z"/></g>
<g><path style="opacity:1" fill="#3d3938" d="M 397.5,46.5 C 401.5,47.8333 405.5,47.8333 409.5,46.5C 410.881,52.3836 414.547,56.2169 420.5,58C 426.157,58.4994 431.824,58.6661 437.5,58.5C 437.547,61.5682 438.047,64.5682 439,67.5C 446.667,73.8333 454.333,80.1667 462,86.5C 469,95.5 476,104.5 483,113.5C 488.851,119.831 495.351,125.331 502.5,130C 521.571,149.631 537.071,171.798 549,196.5C 558.781,221.179 568.947,245.679 579.5,270C 563.919,270.999 558.753,278.832 564,293.5C 570.602,305.039 576.935,316.705 583,328.5C 584.393,333.095 584.726,337.761 584,342.5C 579.478,360.733 574.145,378.733 568,396.5C 563.834,396.229 559.667,396.729 555.5,398C 551.332,400.652 549.332,404.486 549.5,409.5C 550.66,414.471 551.66,419.471 552.5,424.5C 546.494,426.296 543.494,430.463 543.5,437C 547.549,455.647 553.882,473.48 562.5,490.5C 562,490.833 561.5,491.167 561,491.5C 545.927,487.245 539.76,492.745 542.5,508C 540.447,508.325 538.447,507.991 536.5,507C 525.425,500.593 516.258,492.093 509,481.5C 502.667,471.5 496.333,461.5 490,451.5C 481.581,436.575 476.581,420.575 475,403.5C 473.764,369.518 473.098,335.518 473,301.5C 471.339,290.226 470.339,278.893 470,267.5C 470.179,260.184 466.679,256.184 459.5,255.5C 458.792,218.08 456.625,180.747 453,143.5C 450.867,125.769 445.534,109.102 437,93.5C 426.136,75.8106 412.969,60.144 397.5,46.5 Z"/></g>
<g><path style="opacity:1" fill="#8c8883" d="M 299.5,72.5 C 298.833,73.1667 298.167,73.8333 297.5,74.5C 297.263,70.7267 297.763,67.0601 299,63.5C 299.498,66.4816 299.665,69.4816 299.5,72.5 Z"/></g>
<g><path style="opacity:1" fill="#f3ece3" d="M 299.5,72.5 C 301.071,119.481 302.237,166.481 303,213.5C 306.084,264.67 315.417,314.67 331,363.5C 340.198,390.093 349.198,416.759 358,443.5C 362.906,457.79 366.572,472.456 369,487.5C 372.031,504.545 370.697,521.211 365,537.5C 359.864,550.991 350.364,559.825 336.5,564C 311.909,570.586 287.242,570.92 262.5,565C 246.581,560.787 235.748,550.954 230,535.5C 224.47,515.635 224.136,495.635 229,475.5C 240.995,434.514 253.995,393.848 268,353.5C 281.731,308.173 290.065,261.84 293,214.5C 293.957,167.809 295.457,121.143 297.5,74.5C 298.167,73.8333 298.833,73.1667 299.5,72.5 Z"/></g>
<g><path style="opacity:1" fill="#595555" d="M 201.5,176.5 C 226.765,174.282 242.932,185.282 250,209.5C 251.937,234.139 241.104,249.972 217.5,257C 193.105,259.253 177.271,248.753 170,225.5C 166.954,200.223 177.454,183.89 201.5,176.5 Z"/></g>
<g><path style="opacity:1" fill="#595555" d="M 378.5,176.5 C 402.262,174.282 418.095,184.282 426,206.5C 429.872,232.249 419.372,249.082 394.5,257C 370.105,259.253 354.271,248.753 347,225.5C 343.952,200.227 354.452,183.894 378.5,176.5 Z"/></g>
<g><path style="opacity:1" fill="#302826" d="M 203.5,188.5 C 228.344,187.843 239.511,199.843 237,224.5C 232.099,238.629 222.099,245.629 207,245.5C 188.132,240.946 179.798,228.946 182,209.5C 185.785,198.88 192.952,191.88 203.5,188.5 Z"/></g>
<g><path style="opacity:1" fill="#302826" d="M 380.5,188.5 C 405.344,187.843 416.511,199.843 414,224.5C 409.099,238.629 399.099,245.629 384,245.5C 365.132,240.946 356.798,228.946 359,209.5C 362.785,198.88 369.952,191.88 380.5,188.5 Z"/></g>
<g><path style="opacity:1" fill="#ebeaea" d="M 200.5,198.5 C 209.549,198.701 212.215,202.868 208.5,211C 200.398,213.895 196.565,211.062 197,202.5C 198.376,201.295 199.542,199.962 200.5,198.5 Z"/></g>
<g><path style="opacity:1" fill="#ebeaea" d="M 377.5,198.5 C 386.549,198.701 389.215,202.868 385.5,211C 377.398,213.895 373.565,211.062 374,202.5C 375.376,201.295 376.542,199.962 377.5,198.5 Z"/></g>
<g><path style="opacity:1" fill="#050505" d="M 293.5,447.5 C 311.948,447.279 329.282,451.446 345.5,460C 361.318,473.105 367.484,489.938 364,510.5C 358.507,540.64 340.673,558.474 310.5,564C 284.968,568.372 262.801,561.872 244,544.5C 229.696,525.65 225.363,504.65 231,481.5C 236.633,467.202 246.799,457.702 261.5,453C 272.036,449.524 282.703,447.691 293.5,447.5 Z"/></g>
<g><path style="opacity:1" fill="#2f2725" d="M 288.5,457.5 C 304.779,456.325 320.446,458.825 335.5,465C 349.06,473.463 355.394,485.463 354.5,501C 354.218,526.5 342.551,543.5 319.5,552C 297.115,558.586 276.449,555.919 257.5,544C 239.864,527.463 234.197,507.463 240.5,484C 246.5,470.49 256.833,462.49 271.5,460C 277.303,459.109 282.97,458.275 288.5,457.5 Z"/></g>
</svg>
