<?xml version="1.0" encoding="UTF-8"?>
<!DOCTYPE svg PUBLIC "-//W3C//DTD SVG 1.1//EN" "http://www.w3.org/Graphics/SVG/1.1/DTD/svg11.dtd">
<svg xmlns="http://www.w3.org/2000/svg" version="1.1" width="600px" height="600px" style="shape-rendering:geometricPrecision; text-rendering:geometricPrecision; image-rendering:optimizeQuality; fill-rule:evenodd; clip-rule:evenodd" xmlns:xlink="http://www.w3.org/1999/xlink">
<g><path style="opacity:0.975" fill="#040403" d="M 292.5,4.5 C 334.1,4.17956 374.266,11.5129 413,26.5C 426.767,19.4813 440.934,18.648 455.5,24C 499.53,39.3728 535.697,65.5394 564,102.5C 573.589,116.774 576.922,132.441 574,149.5C 572.023,161.099 569.023,172.433 565,183.5C 557.678,200.639 550.511,217.805 543.5,235C 546.738,259.003 550.905,282.837 556,306.5C 559.381,315.594 563.548,324.261 568.5,332.5C 567.548,334.512 565.881,335.512 563.5,335.5C 557.878,334.274 552.378,332.608 547,330.5C 545.739,330.759 544.739,331.426 544,332.5C 543.284,350.132 540.617,367.465 536,384.5C 534.477,404.365 537.811,423.365 546,441.5C 546.667,443.833 546.667,446.167 546,448.5C 544.23,449.276 542.397,449.11 540.5,448C 534.984,445.411 529.984,442.078 525.5,438C 521.984,438.149 519.484,439.983 518,443.5C 515.333,448.833 512.667,454.167 510,459.5C 507.088,472.736 503.421,485.736 499,498.5C 497.274,499.576 495.441,499.743 493.5,499C 490.443,496.277 487.11,493.944 483.5,492C 481.029,491.294 478.695,491.627 476.5,493C 472.065,497.378 468.232,502.212 465,507.5C 459.587,517.994 453.921,528.327 448,538.5C 440.206,548.622 430.372,556.122 418.5,561C 416.597,561.774 414.93,561.44 413.5,560C 416.856,552.787 420.356,545.621 424,538.5C 425.079,535.937 425.579,533.271 425.5,530.5C 420.966,530.267 416.632,531.1 412.5,533C 405.502,536.497 398.835,540.497 392.5,545C 375.387,561.786 357.387,577.453 338.5,592C 335.286,594.402 332.786,593.902 331,590.5C 330.373,584.815 330.54,579.149 331.5,573.5C 331.558,570.943 330.891,568.61 329.5,566.5C 324.153,568.671 318.653,570.338 313,571.5C 310.695,571.516 309.028,570.516 308,568.5C 306.139,570.888 304.806,573.554 304,576.5C 302.573,582.824 301.24,589.157 300,595.5C 295.378,597.171 291.211,596.338 287.5,593C 276.49,582.656 266.157,571.656 256.5,560C 254.167,558.833 251.833,557.667 249.5,556.5C 247.259,557.032 245.759,558.365 245,560.5C 244.787,569.541 245.121,578.541 246,587.5C 244.612,588.554 243.112,588.72 241.5,588C 228.167,573 214.833,558 201.5,543C 194.429,537.299 186.429,533.465 177.5,531.5C 175.813,531.76 174.313,532.427 173,533.5C 173.626,540.892 174.793,548.226 176.5,555.5C 171.003,555.757 166.003,554.257 161.5,551C 155.407,546.911 149.907,542.078 145,536.5C 138.155,524.143 131.822,511.477 126,498.5C 122.591,490.714 116.758,487.548 108.5,489C 104.29,490.623 100.29,492.623 96.5,495C 95.2161,495.684 94.0495,495.517 93,494.5C 90.8952,483.274 89.2285,471.941 88,460.5C 84.7168,452.76 80.5501,445.593 75.5,439C 74.1667,438.333 72.8333,438.333 71.5,439C 67.0161,443.078 62.0161,446.411 56.5,449C 54.5594,449.743 52.7261,449.576 51,448.5C 50.6717,445.793 51.005,443.126 52,440.5C 58.8113,425.781 62.3113,410.281 62.5,394C 61.0544,381.715 58.8877,369.548 56,357.5C 55.0557,348.829 54.2224,340.162 53.5,331.5C 46.8024,332.229 40.3024,333.896 34,336.5C 31.2026,336.203 29.7026,334.703 29.5,332C 34.5688,323.354 38.7355,314.188 42,304.5C 46.4936,281.213 50.6602,257.88 54.5,234.5C 46.7081,217.29 39.2081,199.957 32,182.5C 24.0011,163.51 21.3345,143.844 24,123.5C 25.6555,116.189 28.6555,109.522 33,103.5C 62.1511,65.018 99.6511,38.1846 145.5,23C 158.846,18.8456 171.68,20.0123 184,26.5C 219.028,12.9281 255.194,5.59481 292.5,4.5 Z"/></g>
<g><path style="opacity:1" fill="#e0d0bd" d="M 443.5,31.5 C 439.833,32.1667 436.167,32.8333 432.5,33.5C 425.358,35.4624 419.358,39.2957 414.5,45C 433.467,54.6321 448.634,68.4655 460,86.5C 471.344,106.195 479.344,127.195 484,149.5C 484.846,153.234 486.346,156.568 488.5,159.5C 490.841,128.38 486.674,98.0463 476,68.5C 471.753,56.4805 464.92,46.3138 455.5,38C 451.925,36.1993 448.258,34.6993 444.5,33.5C 444.842,32.6618 445.508,32.3284 446.5,32.5C 486.832,45.0011 520.666,67.3344 548,99.5C 553.843,105.684 558.51,112.684 562,120.5C 563.864,125.324 564.698,130.324 564.5,135.5C 564.142,143.219 563.309,150.886 562,158.5C 555.101,180.861 546.434,202.528 536,223.5C 534.613,227.215 533.78,231.048 533.5,235C 536.666,255.831 539.833,276.664 543,297.5C 545.072,305.214 547.239,312.881 549.5,320.5C 541.404,320.103 536.237,323.77 534,331.5C 533.284,349.132 530.617,366.465 526,383.5C 525.833,387 525.667,390.5 525.5,394C 525.902,406.051 527.402,417.884 530,429.5C 525.966,427.032 521.799,426.865 517.5,429C 510.132,436.223 504.632,444.723 501,454.5C 498.02,465.087 495.353,475.754 493,486.5C 486.445,480.994 479.278,480.16 471.5,484C 468.333,487.167 465.167,490.333 462,493.5C 455.16,504.51 448.826,515.844 443,527.5C 440.908,530.681 438.575,533.681 436,536.5C 436.225,523.726 430.059,518.559 417.5,521C 406.395,523.886 396.395,528.886 387.5,536C 379.864,542.635 372.53,549.635 365.5,557C 357.667,563.5 349.833,570 342,576.5C 341.656,571.744 340.822,567.077 339.5,562.5C 341.122,560.359 343.122,558.692 345.5,557.5C 349.38,557.802 352.38,556.469 354.5,553.5C 360.122,549.878 364.788,545.212 368.5,539.5C 369.708,538.766 371.041,538.433 372.5,538.5C 372.993,536.194 373.326,533.861 373.5,531.5C 376.103,525.087 377.77,518.42 378.5,511.5C 380.015,506.76 381.348,501.76 382.5,496.5C 383.086,496.709 383.586,497.043 384,497.5C 384.333,500.833 384.667,504.167 385,507.5C 385.383,508.056 385.883,508.389 386.5,508.5C 387.056,512.961 388.223,517.294 390,521.5C 392.204,524.202 395.037,525.035 398.5,524C 403.719,520.231 409.053,516.731 414.5,513.5C 419.412,512.108 423.412,509.274 426.5,505C 427.5,504.667 428.5,504.333 429.5,504C 431.745,501.269 433.745,498.436 435.5,495.5C 437.833,492.5 440.5,489.833 443.5,487.5C 445.716,486.797 447.549,485.464 449,483.5C 451.157,481.183 452.657,478.516 453.5,475.5C 454.992,472.517 456.492,469.517 458,466.5C 458.859,463.052 459.359,459.552 459.5,456C 458.704,447.799 457.704,439.632 456.5,431.5C 456.351,430.448 456.517,429.448 457,428.5C 457.671,429.252 458.504,429.586 459.5,429.5C 462.198,436.924 466.365,443.257 472,448.5C 473.395,448.22 474.562,447.553 475.5,446.5C 484.957,429.867 491.79,412.2 496,393.5C 497.255,387.552 498.088,381.552 498.5,375.5C 499.829,370.208 500.496,364.542 500.5,358.5C 500.333,352.833 500.167,347.167 500,341.5C 499.617,340.944 499.117,340.611 498.5,340.5C 498.034,318.403 490.367,299.403 475.5,283.5C 473.167,279.167 469.833,275.833 465.5,273.5C 457.811,265.481 449.145,258.648 439.5,253C 407.184,234.75 372.517,223.583 335.5,219.5C 335.082,218.778 334.416,218.278 333.5,218C 329.514,217.501 325.514,217.334 321.5,217.5C 304.178,216.323 286.845,216.323 269.5,217.5C 267.102,217.259 265.102,217.926 263.5,219.5C 257.453,219.776 251.453,220.443 245.5,221.5C 242.848,221.41 240.515,222.076 238.5,223.5C 202.106,230.565 169.106,245.065 139.5,267C 131.96,273.039 125.293,279.873 119.5,287.5C 115.594,288.614 113.594,291.281 113.5,295.5C 105.43,310.441 101.097,326.441 100.5,343.5C 98.983,347.56 98.3164,351.893 98.5,356.5C 98.4667,362.392 99.1333,368.059 100.5,373.5C 102.456,389.911 106.123,405.911 111.5,421.5C 111.963,424.482 112.296,427.482 112.5,430.5C 113.5,430.5 114.5,430.5 115.5,430.5C 117.865,436.688 120.865,442.521 124.5,448C 125.833,448.667 127.167,448.667 128.5,448C 130.037,446.293 131.704,444.793 133.5,443.5C 134.5,443.5 135.5,443.5 136.5,443.5C 139.265,432.782 140.598,433.115 140.5,444.5C 140.203,451.92 140.536,459.254 141.5,466.5C 141.704,469.518 142.037,472.518 142.5,475.5C 143.5,475.5 144.5,475.5 145.5,475.5C 146.343,479.675 148.676,482.675 152.5,484.5C 156.807,488.472 161.141,492.472 165.5,496.5C 167.284,498.948 168.618,501.615 169.5,504.5C 172.374,505.063 175.04,506.063 177.5,507.5C 177.703,509.044 178.37,510.378 179.5,511.5C 182.75,512.754 185.417,514.754 187.5,517.5C 190.327,519.353 193.327,520.687 196.5,521.5C 198.916,523.036 201.583,524.036 204.5,524.5C 208.053,524.117 210.22,522.117 211,518.5C 212.657,511.907 213.824,505.241 214.5,498.5C 215.822,498.33 216.989,498.663 218,499.5C 217.917,503.311 218.75,506.645 220.5,509.5C 221.923,525.514 228.59,539.014 240.5,550C 236.316,553.865 234.149,558.699 234,564.5C 225.833,555 217.667,545.5 209.5,536C 199.971,527.904 188.971,523.07 176.5,521.5C 166.802,522.366 161.635,527.699 161,537.5C 157.297,534.133 153.964,530.466 151,526.5C 145.606,514.711 139.939,503.044 134,491.5C 125.959,477.911 114.959,474.578 101,481.5C 101.612,461.571 95.1121,444.404 81.5,430C 77.018,427.105 72.518,426.938 68,429.5C 70.2371,417.832 71.7371,405.999 72.5,394C 71.2155,381.358 69.0488,368.858 66,356.5C 65.0241,348.862 64.3574,341.195 64,333.5C 62.4372,323.628 56.6038,319.461 46.5,321C 49.5767,313.433 52.0767,305.6 54,297.5C 57.7179,276.526 61.2179,255.526 64.5,234.5C 58.5611,218.619 52.0611,202.953 45,187.5C 41.6047,178.648 38.6047,169.648 36,160.5C 33.2511,147.536 32.9177,134.536 35,121.5C 39.43,112.301 45.0966,103.967 52,96.5C 79.0317,66.134 111.865,44.634 150.5,32C 155.442,30.6721 160.442,30.3388 165.5,31C 171.949,32.4799 178.116,34.6465 184,37.5C 248.185,12.5197 313.685,8.68635 380.5,26C 391.774,29.6464 402.94,33.4797 414,37.5C 418.173,36.3295 422.007,34.4962 425.5,32C 431.499,30.4307 437.499,30.264 443.5,31.5 Z"/></g>
<g><path style="opacity:1" fill="#8c8175" d="M 443.5,31.5 C 444.791,31.2627 445.791,31.596 446.5,32.5C 445.508,32.3284 444.842,32.6618 444.5,33.5C 440.5,33.5 436.5,33.5 432.5,33.5C 436.167,32.8333 439.833,32.1667 443.5,31.5 Z"/></g>
<g><path style="opacity:1" fill="#231815" d="M 151.5,33.5 C 164.127,31.3182 174.46,35.1515 182.5,45C 163.869,54.2967 149.035,67.7967 138,85.5C 132.199,95.4359 127.199,105.769 123,116.5C 118.648,130.918 114.148,145.252 109.5,159.5C 106.447,127.039 110.947,95.372 123,64.5C 127.073,54.1811 133.24,45.3478 141.5,38C 144.893,36.38 148.226,34.88 151.5,33.5 Z"/></g>
<g><path style="opacity:1" fill="#241916" d="M 432.5,33.5 C 436.5,33.5 440.5,33.5 444.5,33.5C 448.258,34.6993 451.925,36.1993 455.5,38C 464.92,46.3138 471.753,56.4805 476,68.5C 486.674,98.0463 490.841,128.38 488.5,159.5C 486.346,156.568 484.846,153.234 484,149.5C 479.344,127.195 471.344,106.195 460,86.5C 448.634,68.4655 433.467,54.6321 414.5,45C 419.358,39.2957 425.358,35.4624 432.5,33.5 Z"/></g>
<g><path style="opacity:1" fill="#241916" d="M 215.5,132.5 C 217.124,132.36 218.29,133.027 219,134.5C 220.765,151.57 228.432,165.237 242,175.5C 242.779,177.906 241.946,179.573 239.5,180.5C 237.568,179.48 235.568,179.313 233.5,180C 221.318,185.104 208.652,188.437 195.5,190C 189.005,193.567 182.671,196.9 176.5,200C 174.993,199.163 174.493,197.996 175,196.5C 183.121,190.715 190.954,184.548 198.5,178C 204.41,172.761 209.577,166.928 214,160.5C 215.404,158.361 216.237,156.028 216.5,153.5C 215.446,148.01 214.446,142.51 213.5,137C 213.519,135.167 214.185,133.667 215.5,132.5 Z"/></g>
<g><path style="opacity:1" fill="#251a17" d="M 381.5,132.5 C 384.525,133.033 385.858,134.867 385.5,138C 384.509,142.79 383.842,147.623 383.5,152.5C 383.453,155.295 383.953,157.961 385,160.5C 396.44,174.607 409.773,186.607 425,196.5C 425.5,200 424,201.5 420.5,201C 415.344,196.586 409.677,192.919 403.5,190C 390.302,188.581 377.635,185.247 365.5,180C 363.623,179.424 361.789,179.591 360,180.5C 357.277,179.792 356.277,178.125 357,175.5C 370.852,164.468 379.019,150.135 381.5,132.5 Z"/></g>
<g><path style="opacity:1" fill="#585047" d="M 269.5,217.5 C 267.898,219.074 265.898,219.741 263.5,219.5C 265.102,217.926 267.102,217.259 269.5,217.5 Z"/></g>
<g><path style="opacity:1" fill="#49433b" d="M 321.5,217.5 C 325.514,217.334 329.514,217.501 333.5,218C 334.416,218.278 335.082,218.778 335.5,219.5C 330.662,219.089 325.995,218.422 321.5,217.5 Z"/></g>
<g><path style="opacity:1" fill="#635038" d="M 282.5,221.5 C 338.942,219.278 391.609,232.111 440.5,260C 456.208,270.039 469.708,282.539 481,297.5C 488.859,311.446 493.192,326.446 494,342.5C 496.744,377.783 489.411,410.783 472,441.5C 468.493,436.49 465.493,431.157 463,425.5C 459.645,420.69 455.979,420.356 452,424.5C 452.749,436.826 453.415,449.159 454,461.5C 453.058,464.993 451.725,468.326 450,471.5C 434.611,490.618 416.444,506.618 395.5,519.5C 393.683,517.584 392.516,515.251 392,512.5C 391.397,505.332 390.064,498.332 388,491.5C 382.44,488.095 378.44,489.428 376,495.5C 375.467,511.871 370.801,526.871 362,540.5C 347.958,552.106 332.125,560.439 314.5,565.5C 313.558,565.392 312.725,565.059 312,564.5C 309.845,551.795 307.512,539.129 305,526.5C 299.33,522.926 295.33,524.259 293,530.5C 291.922,542.631 290.089,554.631 287.5,566.5C 268.788,561.934 252.288,553.267 238,540.5C 236.056,536.89 233.723,533.557 231,530.5C 227.582,520.071 225.249,509.404 224,498.5C 222.259,489.97 217.926,488.303 211,493.5C 209.561,500.468 208.227,507.468 207,514.5C 206.735,516.651 205.735,518.318 204,519.5C 185.697,507.99 169.03,494.323 154,478.5C 150.555,473.945 147.888,468.945 146,463.5C 145.634,451.128 145.967,438.795 147,426.5C 145.666,422.896 143.166,421.729 139.5,423C 135.289,429.253 131.455,435.753 128,442.5C 107.65,407.749 100.65,370.415 107,330.5C 110.609,307.778 121.109,288.944 138.5,274C 168.892,251.146 202.892,235.813 240.5,228C 254.547,225.165 268.547,222.998 282.5,221.5 Z"/></g>
<g><path style="opacity:1" fill="#60574e" d="M 245.5,221.5 C 243.562,223.163 241.228,223.829 238.5,223.5C 240.515,222.076 242.848,221.41 245.5,221.5 Z"/></g>
<g><path style="opacity:1" fill="#231815" d="M 284.5,254.5 C 297.244,254.21 309.911,255.043 322.5,257C 350.518,264.202 358.018,280.702 345,306.5C 316.988,337.807 287.321,339.473 256,311.5C 245.352,298.273 243.685,284.273 251,269.5C 260.457,260.521 271.624,255.521 284.5,254.5 Z"/></g>
<g><path style="opacity:1" fill="#504940" d="M 465.5,273.5 C 469.833,275.833 473.167,279.167 475.5,283.5C 471.833,280.5 468.5,277.167 465.5,273.5 Z"/></g>
<g><path style="opacity:1" fill="#9b9083" d="M 119.5,287.5 C 117.853,290.473 115.853,293.14 113.5,295.5C 113.594,291.281 115.594,288.614 119.5,287.5 Z"/></g>
<g><path style="opacity:1" fill="#aea293" d="M 498.5,340.5 C 499.117,340.611 499.617,340.944 500,341.5C 500.167,347.167 500.333,352.833 500.5,358.5C 500.496,364.542 499.829,370.208 498.5,375.5C 499.812,363.846 499.812,352.179 498.5,340.5 Z"/></g>
<g><path style="opacity:1" fill="#b0a495" d="M 100.5,343.5 C 99.3559,353.491 99.3559,363.491 100.5,373.5C 99.1333,368.059 98.4667,362.392 98.5,356.5C 98.3164,351.893 98.983,347.56 100.5,343.5 Z"/></g>
<g><path style="opacity:1" fill="#f19c9f" d="M 275.5,354.5 C 294.906,353.945 314.24,354.778 333.5,357C 336.903,357.578 340.07,358.745 343,360.5C 343.017,379.101 338.35,396.434 329,412.5C 318.419,427.369 304.253,432.536 286.5,428C 276.45,423.949 268.95,417.115 264,407.5C 256.526,392.697 253.193,377.03 254,360.5C 255.171,359.107 256.671,358.273 258.5,358C 264.265,356.614 269.931,355.448 275.5,354.5 Z"/></g>
<g><path style="opacity:1" fill="#a5998a" d="M 111.5,421.5 C 113.204,424.256 114.537,427.256 115.5,430.5C 114.5,430.5 113.5,430.5 112.5,430.5C 112.296,427.482 111.963,424.482 111.5,421.5 Z"/></g>
<g><path style="opacity:1" fill="#645b52" d="M 459.5,429.5 C 458.504,429.586 457.671,429.252 457,428.5C 456.517,429.448 456.351,430.448 456.5,431.5C 455.566,430.432 455.232,429.099 455.5,427.5C 457.38,427.229 458.713,427.896 459.5,429.5 Z"/></g>
<g><path style="opacity:1" fill="#b4a898" d="M 140.5,444.5 C 140.598,433.115 139.265,432.782 136.5,443.5C 135.5,443.5 134.5,443.5 133.5,443.5C 141.846,425.046 144.179,425.379 140.5,444.5 Z"/></g>
<g><path style="opacity:1" fill="#a19587" d="M 141.5,466.5 C 143.07,469.314 144.403,472.314 145.5,475.5C 144.5,475.5 143.5,475.5 142.5,475.5C 142.037,472.518 141.704,469.518 141.5,466.5 Z"/></g>
<g><path style="opacity:1" fill="#80766b" d="M 145.5,475.5 C 148.209,478.208 150.542,481.208 152.5,484.5C 148.676,482.675 146.343,479.675 145.5,475.5 Z"/></g>
<g><path style="opacity:1" fill="#998e81" d="M 453.5,475.5 C 452.657,478.516 451.157,481.183 449,483.5C 447.549,485.464 445.716,486.797 443.5,487.5C 446.844,483.46 450.177,479.46 453.5,475.5 Z"/></g>
<g><path style="opacity:1" fill="#a19588" d="M 165.5,496.5 C 169.526,500.195 173.526,503.862 177.5,507.5C 175.04,506.063 172.374,505.063 169.5,504.5C 168.618,501.615 167.284,498.948 165.5,496.5 Z"/></g>
<g><path style="opacity:1" fill="#a09486" d="M 386.5,508.5 C 385.883,508.389 385.383,508.056 385,507.5C 384.667,504.167 384.333,500.833 384,497.5C 383.586,497.043 383.086,496.709 382.5,496.5C 381.348,501.76 380.015,506.76 378.5,511.5C 379.275,506.218 379.942,500.885 380.5,495.5C 382.144,495.286 383.644,495.62 385,496.5C 385.642,500.491 386.142,504.491 386.5,508.5 Z"/></g>
<g><path style="opacity:1" fill="#9a8f82" d="M 220.5,509.5 C 218.75,506.645 217.917,503.311 218,499.5C 216.989,498.663 215.822,498.33 214.5,498.5C 214.62,497.414 215.287,496.747 216.5,496.5C 217.167,496.833 217.833,497.167 218.5,497.5C 219.33,501.469 219.996,505.469 220.5,509.5 Z"/></g>
<g><path style="opacity:1" fill="#b1a496" d="M 435.5,495.5 C 433.745,498.436 431.745,501.269 429.5,504C 428.5,504.333 427.5,504.667 426.5,505C 423.412,509.274 419.412,512.108 414.5,513.5C 421.475,507.529 428.475,501.529 435.5,495.5 Z"/></g>
<g><path style="opacity:1" fill="#a99d8e" d="M 177.5,507.5 C 184.049,511.934 190.383,516.601 196.5,521.5C 193.327,520.687 190.327,519.353 187.5,517.5C 185.417,514.754 182.75,512.754 179.5,511.5C 178.37,510.378 177.703,509.044 177.5,507.5 Z"/></g>
<g><path style="opacity:1" fill="#b8a999" d="M 298.5,529.5 C 299.5,529.5 300.5,529.5 301.5,529.5C 303.382,539.079 304.215,548.746 304,558.5C 301.333,559.833 299.333,561.833 298,564.5C 294.937,570.189 292.771,576.189 291.5,582.5C 286.981,578.815 282.981,574.648 279.5,570C 281.856,570.003 284.189,570.503 286.5,571.5C 289.133,570.699 290.967,569.033 292,566.5C 294.495,554.184 296.662,541.851 298.5,529.5 Z"/></g>
<g><path style="opacity:1" fill="#a39688" d="M 373.5,531.5 C 373.326,533.861 372.993,536.194 372.5,538.5C 371.041,538.433 369.708,538.766 368.5,539.5C 370.17,536.825 371.836,534.159 373.5,531.5 Z"/></g>
<g><path style="opacity:1" fill="#a39789" d="M 354.5,553.5 C 352.38,556.469 349.38,557.802 345.5,557.5C 348.088,555.408 351.088,554.075 354.5,553.5 Z"/></g>
</svg>
