<?xml version="1.0" encoding="UTF-8"?>
<!DOCTYPE svg PUBLIC "-//W3C//DTD SVG 1.1//EN" "http://www.w3.org/Graphics/SVG/1.1/DTD/svg11.dtd">
<svg xmlns="http://www.w3.org/2000/svg" version="1.1" width="600px" height="600px" style="shape-rendering:geometricPrecision; text-rendering:geometricPrecision; image-rendering:optimizeQuality; fill-rule:evenodd; clip-rule:evenodd" xmlns:xlink="http://www.w3.org/1999/xlink">
<g><path style="opacity:0.991" fill="#030303" d="M 599.5,336.5 C 599.5,362.167 599.5,387.833 599.5,413.5C 596.803,453.65 588.303,492.65 574,530.5C 566.773,549.132 555.94,565.299 541.5,579C 527.867,589.14 513.534,590.14 498.5,582C 487.744,574.58 478.244,565.746 470,555.5C 459.311,538.791 447.645,522.791 435,507.5C 430.416,500.668 426.083,493.668 422,486.5C 420.046,482.019 418.713,477.352 418,472.5C 417.667,461.833 417.333,451.167 417,440.5C 414.254,448.945 412.92,457.612 413,466.5C 412.529,468.246 411.862,469.913 411,471.5C 410.344,502.56 408.678,533.56 406,564.5C 405.241,575.874 399.408,583.041 388.5,586C 378.758,586.92 369.092,586.587 359.5,585C 355.726,583.698 352.559,581.531 350,578.5C 345.967,571.962 342.134,565.296 338.5,558.5C 337.667,558.167 336.833,557.833 336,557.5C 316.89,559.517 297.723,560.017 278.5,559C 273.269,558.534 268.102,557.7 263,556.5C 257.926,562.968 253.593,569.968 250,577.5C 243.341,585.409 234.841,588.743 224.5,587.5C 207.885,588.8 197.719,581.466 194,565.5C 192.34,555.571 191.34,545.571 191,535.5C 190.057,510.83 189.057,486.164 188,461.5C 186.254,453.435 184.254,445.435 182,437.5C 186.058,461.662 180.725,483.328 166,502.5C 151.845,520.812 138.178,539.478 125,558.5C 116.502,569.342 106.002,577.508 93.5,583C 80.7882,587.057 69.1215,585.057 58.5,577C 42.5354,561.583 30.702,543.416 23,522.5C 10.2114,485.387 2.37809,447.387 -0.5,408.5C -0.5,384.5 -0.5,360.5 -0.5,336.5C 3.77462,316.831 9.60796,297.498 17,278.5C 43.9146,211.999 76.5813,148.666 115,88.5C 119,83.1667 123,77.8333 127,72.5C 148.833,51.8338 174.666,39.0004 204.5,34C 260.21,7.54081 317.21,4.54081 375.5,25C 384.23,28.1983 392.563,32.1983 400.5,37C 426.678,43.1715 449.845,55.0048 470,72.5C 482.902,88.6313 494.568,105.631 505,123.5C 540.137,182.227 569.137,243.893 592,308.5C 594.529,317.96 597.029,327.293 599.5,336.5 Z"/></g>
<g><path style="opacity:1" fill="#737373" d="M 326.5,19.5 C 330.741,21.6207 335.075,23.7874 339.5,26C 342.369,29.0379 345.369,31.8712 348.5,34.5C 353.633,44.3424 354.8,54.6757 352,65.5C 348.576,74.2694 346.076,83.2694 344.5,92.5C 341.209,102.779 339.376,113.446 339,124.5C 338.333,136.5 338.333,148.5 339,160.5C 339.183,163.365 339.683,166.031 340.5,168.5C 341.249,180.328 343.082,191.995 346,203.5C 353.001,229.333 360.501,254.999 368.5,280.5C 381.172,317.167 392.005,354.501 401,392.5C 402.828,404.107 404.162,415.774 405,427.5C 405.841,430.628 406.675,433.628 407.5,436.5C 406.07,475.451 404.236,514.451 402,553.5C 401.768,561.333 399.768,568.666 396,575.5C 390.057,580.424 383.223,582.424 375.5,581.5C 367.777,582.424 360.943,580.424 355,575.5C 349.919,566.335 344.585,557.335 339,548.5C 337.658,534.537 337.158,520.537 337.5,506.5C 338.703,496.999 339.703,487.332 340.5,477.5C 341.877,471.169 343.711,464.835 346,458.5C 365.169,439.987 369.169,418.654 358,394.5C 349.951,384.384 339.451,378.218 326.5,376C 307.839,372.687 289.172,372.687 270.5,376C 240.596,384.63 229.43,404.13 237,434.5C 240.669,444.497 246.336,453.164 254,460.5C 256.88,471.065 259.046,481.732 260.5,492.5C 260.061,503.347 260.727,514.013 262.5,524.5C 261.834,531.486 261.501,538.486 261.5,545.5C 256.041,555.072 250.541,564.739 245,574.5C 237.219,581.739 228.052,584.239 217.5,582C 209.297,581.323 203.797,577.157 201,569.5C 199.488,564.607 198.488,559.607 198,554.5C 194.482,505.198 193.815,455.865 196,406.5C 197.556,393.276 200.223,380.276 204,367.5C 212.874,339.044 222.041,310.711 231.5,282.5C 237.14,268.914 241.806,254.914 245.5,240.5C 254.12,217.677 259.453,194.01 261.5,169.5C 262.661,156.006 262.827,142.34 262,128.5C 261.676,121.224 260.51,114.224 258.5,107.5C 256.636,92.1455 252.636,77.4788 246.5,63.5C 243.513,40.3355 253.18,25.5021 275.5,19C 292.556,15.567 309.556,15.7336 326.5,19.5 Z"/></g>
<g><path style="opacity:1" fill="#363535" d="M 249.5,22.5 C 251.199,22.3398 252.866,22.5065 254.5,23C 244.731,30.8003 240.064,40.9669 240.5,53.5C 240.667,57.1667 240.833,60.8333 241,64.5C 260.539,118.609 261.539,172.943 244,227.5C 229.161,272.352 214.161,317.018 199,361.5C 191.688,386.634 188.022,412.301 188,438.5C 175.462,396.886 162.129,355.553 148,314.5C 137.801,279.84 130.801,244.506 127,208.5C 120.668,157.806 133.001,112.473 164,72.5C 187.274,46.9446 215.774,30.2779 249.5,22.5 Z"/></g>
<g><path style="opacity:1" fill="#363535" d="M 444.5,340.5 C 439.219,356.414 434.219,370.747 429.5,383.5C 423.132,400.108 417.632,417.108 413,434.5C 411.009,411.897 407.342,389.564 402,367.5C 394.271,339.308 385.271,311.308 375,283.5C 374.082,277.411 372.748,271.411 371,265.5C 360.253,236.505 352.253,206.505 347,175.5C 341.42,138.209 345.087,101.876 358,66.5C 362.767,49.2843 358.6,34.7843 345.5,23C 413.813,36.9793 455.313,78.146 470,146.5C 473.744,167.733 474.41,189.067 472,210.5C 469.442,231.29 466.109,251.957 462,272.5C 455.848,295.12 450.015,317.787 444.5,340.5 Z"/></g>
<g><path style="opacity:1" fill="#2e2d2d" d="M 326.5,19.5 C 336.278,21.0455 343.611,26.0455 348.5,34.5C 345.369,31.8712 342.369,29.0379 339.5,26C 335.075,23.7874 330.741,21.6207 326.5,19.5 Z"/></g>
<g><path style="opacity:1" fill="#393939" d="M 295.5,63.5 C 292.169,64.3903 290.169,62.8903 289.5,59C 290.634,53.6271 293.634,52.2938 298.5,55C 299.788,57.4665 299.788,59.9665 298.5,62.5C 297.675,63.3857 296.675,63.719 295.5,63.5 Z"/></g>
<g><path style="opacity:1" fill="#000000" d="M 295.5,63.5 C 289.356,61.0818 289.022,58.0818 294.5,54.5C 299.489,56.9193 299.822,59.9193 295.5,63.5 Z"/></g>
<g><path style="opacity:1" fill="#2b2a2a" d="M 246.5,63.5 C 252.636,77.4788 256.636,92.1455 258.5,107.5C 254.74,92.8685 250.74,78.2019 246.5,63.5 Z"/></g>
<g><path style="opacity:1" fill="#3a3a3a" d="M 287.5,86.5 C 294.99,86.3233 296.99,89.4899 293.5,96C 284.678,96.8396 282.678,93.6729 287.5,86.5 Z"/></g>
<g><path style="opacity:1" fill="#000000" d="M 288.5,87.5 C 293.999,88 295.332,90.5 292.5,95C 285.652,95.1345 284.318,92.6345 288.5,87.5 Z"/></g>
<g><path style="opacity:1" fill="#2b2b2b" d="M 344.5,92.5 C 339.643,117.629 338.309,142.963 340.5,168.5C 339.683,166.031 339.183,163.365 339,160.5C 338.333,148.5 338.333,136.5 339,124.5C 339.376,113.446 341.209,102.779 344.5,92.5 Z"/></g>
<g><path style="opacity:1" fill="#2b2a2a" d="M 258.5,107.5 C 260.51,114.224 261.676,121.224 262,128.5C 262.827,142.34 262.661,156.006 261.5,169.5C 262.131,148.736 261.131,128.069 258.5,107.5 Z"/></g>
<g><path style="opacity:1" fill="#030304" d="M 382.5,131.5 C 408.969,133.474 428.469,146.14 441,169.5C 443.667,174.833 446.333,180.167 449,185.5C 450.806,189.72 451.806,194.053 452,198.5C 451.667,198.833 451.333,199.167 451,199.5C 435.396,182.947 416.896,170.78 395.5,163C 387.656,161.167 379.99,158.834 372.5,156C 366.828,144.176 370.161,136.009 382.5,131.5 Z"/></g>
<g><path style="opacity:1" fill="#030304" d="M 215.5,170.5 C 210.63,172.267 209.297,175.6 211.5,180.5C 215.554,184.571 219.221,184.238 222.5,179.5C 227.481,191.097 223.814,199.597 211.5,205C 197.352,206.525 189.352,200.192 187.5,186C 187.959,182.302 188.792,178.802 190,175.5C 179.058,183.938 168.558,192.938 158.5,202.5C 160.329,177.352 171.663,157.519 192.5,143C 199.442,139.02 206.776,136.02 214.5,134C 221.485,132.355 227.651,133.855 233,138.5C 237.179,143.92 237.513,149.587 234,155.5C 224.262,159.525 214.429,163.358 204.5,167C 208.614,167.115 212.281,168.282 215.5,170.5 Z"/></g>
<g><path style="opacity:1" fill="#383838" d="M 294.5,140.5 C 302.486,139.998 304.486,143.165 300.5,150C 292.424,150.805 290.424,147.638 294.5,140.5 Z"/></g>
<g><path style="opacity:1" fill="#000000" d="M 295.5,141.5 C 301.488,141.664 302.821,144.164 299.5,149C 293.403,149.147 292.07,146.647 295.5,141.5 Z"/></g>
<g><path style="opacity:1" fill="#040404" d="M 406.5,170.5 C 402.017,173.557 401.351,177.39 404.5,182C 409.268,184.282 412.935,183.115 415.5,178.5C 418.68,193.496 412.846,202.496 398,205.5C 386.069,204.736 379.569,198.402 378.5,186.5C 380.366,173.135 388.033,166.968 401.5,168C 403.491,168.374 405.158,169.207 406.5,170.5 Z"/></g>
<g><path style="opacity:1" fill="#f0f0f0" d="M 215.5,170.5 C 221.49,170.851 223.823,173.851 222.5,179.5C 219.221,184.238 215.554,184.571 211.5,180.5C 209.297,175.6 210.63,172.267 215.5,170.5 Z"/></g>
<g><path style="opacity:1" fill="#f0f0f0" d="M 406.5,170.5 C 411.981,170.312 414.981,172.979 415.5,178.5C 412.935,183.115 409.268,184.282 404.5,182C 401.351,177.39 402.017,173.557 406.5,170.5 Z"/></g>
<g><path style="opacity:1" fill="#3e3e3e" d="M 285.5,184.5 C 291.157,184.324 293.324,186.991 292,192.5C 288.667,196.5 285.333,196.5 282,192.5C 280.78,188.707 281.947,186.04 285.5,184.5 Z"/></g>
<g><path style="opacity:1" fill="#000000" d="M 286.5,185.5 C 292.6,187.812 292.934,190.812 287.5,194.5C 282.584,191.937 282.251,188.937 286.5,185.5 Z"/></g>
<g><path style="opacity:1" fill="#3e3e3e" d="M 308.5,184.5 C 315.968,185.674 317.301,189.174 312.5,195C 306.667,195.833 304.167,193.333 305,187.5C 306.145,186.364 307.312,185.364 308.5,184.5 Z"/></g>
<g><path style="opacity:1" fill="#000000" d="M 309.5,185.5 C 315.622,187.865 315.956,190.865 310.5,194.5C 305.584,191.937 305.251,188.937 309.5,185.5 Z"/></g>
<g><path style="opacity:1" fill="#3a3a3a" d="M 297.5,211.5 C 304.865,211.653 306.865,214.82 303.5,221C 297.24,223.412 294.407,221.245 295,214.5C 296.045,213.627 296.878,212.627 297.5,211.5 Z"/></g>
<g><path style="opacity:1" fill="#000000" d="M 298.5,212.5 C 305.689,214.966 306.022,217.966 299.5,221.5C 294.634,218.927 294.301,215.927 298.5,212.5 Z"/></g>
<g><path style="opacity:1" fill="#383838" d="M 278.5,223.5 C 281.119,223.232 283.619,223.565 286,224.5C 288.412,230.76 286.245,233.593 279.5,233C 275.846,230.209 275.513,227.043 278.5,223.5 Z"/></g>
<g><path style="opacity:1" fill="#000000" d="M 279.5,224.5 C 283.145,223.68 285.478,225.013 286.5,228.5C 284.086,233.259 281.252,233.593 278,229.5C 277.878,227.718 278.378,226.052 279.5,224.5 Z"/></g>
<g><path style="opacity:1" fill="#3a3a3a" d="M 306.5,240.5 C 313.57,241.407 315.237,244.907 311.5,251C 305,252.5 302.5,250 304,243.5C 305.045,242.627 305.878,241.627 306.5,240.5 Z"/></g>
<g><path style="opacity:1" fill="#000000" d="M 306.5,242.5 C 312.488,242.664 313.821,245.164 310.5,250C 304.403,250.147 303.07,247.647 306.5,242.5 Z"/></g>
<g><path style="opacity:1" fill="#383838" d="M 287.5,240.5 C 294.978,241.75 296.311,245.25 291.5,251C 285.714,251.881 283.214,249.381 284,243.5C 285.145,242.364 286.312,241.364 287.5,240.5 Z"/></g>
<g><path style="opacity:1" fill="#000000" d="M 288.5,241.5 C 294.905,244.202 295.071,247.202 289,250.5C 283.291,247.672 283.125,244.672 288.5,241.5 Z"/></g>
<g><path style="opacity:1" fill="#2b2a2a" d="M 245.5,240.5 C 241.806,254.914 237.14,268.914 231.5,282.5C 235.595,268.216 240.261,254.216 245.5,240.5 Z"/></g>
<g><path style="opacity:1" fill="#383838" d="M 331.5,270.5 C 337.337,269.518 340.17,271.851 340,277.5C 335.451,281.89 331.951,281.223 329.5,275.5C 329.902,273.7 330.569,272.033 331.5,270.5 Z"/></g>
<g><path style="opacity:1" fill="#3a3a3a" d="M 275.5,270.5 C 282.57,271.407 284.237,274.907 280.5,281C 274,282.5 271.5,280 273,273.5C 274.045,272.627 274.878,271.627 275.5,270.5 Z"/></g>
<g><path style="opacity:1" fill="#000000" d="M 332.5,271.5 C 338.488,271.664 339.821,274.164 336.5,279C 330.834,278.835 329.501,276.335 332.5,271.5 Z"/></g>
<g><path style="opacity:1" fill="#000000" d="M 275.5,272.5 C 281.488,272.664 282.821,275.164 279.5,280C 273.403,280.147 272.07,277.647 275.5,272.5 Z"/></g>
<g><path style="opacity:1" fill="#3d3d3d" d="M 297.5,265.5 C 305.828,266.069 307.495,269.569 302.5,276C 296.333,277.167 293.833,274.667 295,268.5C 296.045,267.627 296.878,266.627 297.5,265.5 Z"/></g>
<g><path style="opacity:1" fill="#000000" d="M 299.5,266.5 C 303.148,267.5 304.314,269.834 303,273.5C 299.456,276.32 296.956,275.486 295.5,271C 296.344,268.993 297.677,267.493 299.5,266.5 Z"/></g>
<g><path style="opacity:1" fill="#373737" d="M 305.5,278.5 C 313.486,277.998 315.486,281.165 311.5,288C 303.424,288.805 301.424,285.638 305.5,278.5 Z"/></g>
<g><path style="opacity:1" fill="#000000" d="M 306.5,279.5 C 312.488,279.664 313.821,282.164 310.5,287C 304.403,287.147 303.07,284.647 306.5,279.5 Z"/></g>
<g><path style="opacity:1" fill="#373737" d="M 345.5,286.5 C 348.073,286.148 350.406,286.648 352.5,288C 352.307,289.645 352.14,291.479 352,293.5C 349.667,296.167 347.333,296.167 345,293.5C 344.297,291.071 344.463,288.738 345.5,286.5 Z"/></g>
<g><path style="opacity:1" fill="#000000" d="M 346.5,287.5 C 347.833,287.5 349.167,287.5 350.5,287.5C 352.454,290.59 351.787,292.923 348.5,294.5C 345.497,292.822 344.831,290.489 346.5,287.5 Z"/></g>
<g><path style="opacity:1" fill="#2b2a2a" d="M 368.5,280.5 C 382.913,318.455 394.413,357.455 403,397.5C 404.246,410.546 405.746,423.546 407.5,436.5C 406.675,433.628 405.841,430.628 405,427.5C 404.162,415.774 402.828,404.107 401,392.5C 392.005,354.501 381.172,317.167 368.5,280.5 Z"/></g>
<g><path style="opacity:1" fill="#3d3d3d" d="M 246.5,283.5 C 254.818,283.987 256.485,287.487 251.5,294C 243.088,293.812 241.421,290.312 246.5,283.5 Z"/></g>
<g><path style="opacity:1" fill="#000000" d="M 248.5,284.5 C 254.905,287.202 255.071,290.202 249,293.5C 246.709,292.876 245.543,291.376 245.5,289C 245.557,286.791 246.557,285.291 248.5,284.5 Z"/></g>
<g><path style="opacity:1" fill="#393939" d="M 295.5,291.5 C 302.865,291.653 304.865,294.82 301.5,301C 295.24,303.412 292.407,301.245 293,294.5C 294.045,293.627 294.878,292.627 295.5,291.5 Z"/></g>
<g><path style="opacity:1" fill="#000000" d="M 296.5,292.5 C 303.689,294.966 304.022,297.966 297.5,301.5C 292.634,298.927 292.301,295.927 296.5,292.5 Z"/></g>
<g><path style="opacity:1" fill="#393939" d="M 276.5,297.5 C 284.021,297.39 286.021,300.557 282.5,307C 273.91,307.612 271.91,304.445 276.5,297.5 Z"/></g>
<g><path style="opacity:1" fill="#000000" d="M 277.5,298.5 C 283.02,299.044 284.354,301.544 281.5,306C 275.403,306.147 274.07,303.647 277.5,298.5 Z"/></g>
<g><path style="opacity:1" fill="#373737" d="M 315.5,297.5 C 323.486,296.998 325.486,300.165 321.5,307C 313.424,307.805 311.424,304.638 315.5,297.5 Z"/></g>
<g><path style="opacity:1" fill="#000000" d="M 316.5,298.5 C 322.488,298.664 323.821,301.164 320.5,306C 314.403,306.147 313.07,303.647 316.5,298.5 Z"/></g>
<g><path style="opacity:1" fill="#3a3a3a" d="M 243.5,310.5 C 250.99,310.323 252.99,313.49 249.5,320C 244.643,321.753 241.643,320.253 240.5,315.5C 240.757,313.308 241.757,311.641 243.5,310.5 Z"/></g>
<g><path style="opacity:1" fill="#181818" d="M 358.5,308.5 C 364.622,310.865 364.956,313.865 359.5,317.5C 354.584,314.937 354.251,311.937 358.5,308.5 Z"/></g>
<g><path style="opacity:1" fill="#000000" d="M 244.5,311.5 C 249.999,312 251.332,314.5 248.5,319C 244.872,320.316 242.539,319.149 241.5,315.5C 242.172,313.84 243.172,312.507 244.5,311.5 Z"/></g>
<g><path style="opacity:1" fill="#3b3b3b" d="M 294.5,308.5 C 301.825,307.992 304.658,311.326 303,318.5C 299.685,322.105 296.018,322.439 292,319.5C 291.399,317.863 290.899,316.197 290.5,314.5C 291.432,312.235 292.765,310.235 294.5,308.5 Z"/></g>
<g><path style="opacity:1" fill="#000000" d="M 295.5,309.5 C 302.978,310.75 304.311,314.25 299.5,320C 295.236,320.869 292.569,319.202 291.5,315C 292.665,313.008 293.998,311.175 295.5,309.5 Z"/></g>
<g><path style="opacity:1" fill="#383838" d="M 267.5,316.5 C 274.825,315.992 277.658,319.326 276,326.5C 273.441,329.349 270.274,330.183 266.5,329C 262.334,324.368 262.667,320.202 267.5,316.5 Z"/></g>
<g><path style="opacity:1" fill="#000000" d="M 268.5,317.5 C 275.968,318.674 277.301,322.174 272.5,328C 267.201,329.033 264.701,326.866 265,321.5C 265.69,319.65 266.856,318.316 268.5,317.5 Z"/></g>
<g><path style="opacity:1" fill="#383838" d="M 316.5,316.5 C 323.286,318.823 323.952,322.157 318.5,326.5C 317.033,326.277 315.533,325.944 314,325.5C 312.779,321.718 313.613,318.718 316.5,316.5 Z"/></g>
<g><path style="opacity:1" fill="#000000" d="M 315.5,318.5 C 318.257,318.378 320.257,319.545 321.5,322C 319.679,324.137 317.346,324.97 314.5,324.5C 314.325,322.379 314.659,320.379 315.5,318.5 Z"/></g>
<g><path style="opacity:1" fill="#3c3c3c" d="M 288.5,336.5 C 281.67,337.122 279.17,333.789 281,326.5C 283.684,322.287 287.184,321.454 291.5,324C 294.864,327.026 295.364,330.526 293,334.5C 291.89,336.037 290.39,336.703 288.5,336.5 Z"/></g>
<g><path style="opacity:1" fill="#010101" d="M 288.5,336.5 C 281.103,334.642 279.769,330.808 284.5,325C 291.696,323.857 294.196,326.691 292,333.5C 290.855,334.636 289.688,335.636 288.5,336.5 Z"/></g>
<g><path style="opacity:1" fill="#000000" d="M 341.5,324.5 C 346.145,325.28 346.645,327.28 343,330.5C 340.521,328.912 340.021,326.912 341.5,324.5 Z"/></g>
<g><path style="opacity:1" fill="#3d3d3d" d="M 306.5,328.5 C 313.968,329.674 315.301,333.174 310.5,339C 304.714,339.881 302.214,337.381 303,331.5C 304.145,330.364 305.312,329.364 306.5,328.5 Z"/></g>
<g><path style="opacity:1" fill="#000000" d="M 307.5,329.5 C 313.622,331.865 313.956,334.865 308.5,338.5C 303.584,335.937 303.251,332.937 307.5,329.5 Z"/></g>
<g><path style="opacity:1" fill="#3c3c3c" d="M 261.5,332.5 C 270.407,334.781 271.74,339.281 265.5,346C 258.333,346.833 255.167,343.667 256,336.5C 257.5,334.531 259.333,333.198 261.5,332.5 Z"/></g>
<g><path style="opacity:1" fill="#000000" d="M 259.5,334.5 C 266.205,333.694 268.705,336.361 267,342.5C 262.366,346.464 258.866,345.464 256.5,339.5C 257.26,337.64 258.26,335.973 259.5,334.5 Z"/></g>
<g><path style="opacity:1" fill="#373737" d="M 323.5,338.5 C 330.848,339.652 333.348,343.652 331,350.5C 327.958,354.25 324.458,354.916 320.5,352.5C 319.914,352.709 319.414,353.043 319,353.5C 315.874,350.453 315.041,346.953 316.5,343C 318.76,341.212 321.093,339.712 323.5,338.5 Z"/></g>
<g><path style="opacity:1" fill="#030303" d="M 321.5,340.5 C 326.575,339.572 329.908,341.572 331.5,346.5C 328.807,352.845 324.474,354.178 318.5,350.5C 317.833,349.167 317.167,347.833 316.5,346.5C 317.956,344.285 319.622,342.285 321.5,340.5 Z"/></g>
<g><path style="opacity:1" fill="#070708" d="M 444.5,340.5 C 491.795,381.291 538.962,422.291 586,463.5C 582.492,494.357 573.159,523.357 558,550.5C 550.881,562.62 541.381,572.453 529.5,580C 522.094,583.292 514.427,583.292 506.5,580C 498.038,575.018 490.205,569.185 483,562.5C 472.931,550.029 463.598,537.029 455,523.5C 442.999,510.153 432.999,495.486 425,479.5C 421.719,446.827 423.552,415.327 430.5,385C 429.944,384.617 429.611,384.117 429.5,383.5C 434.219,370.747 439.219,356.414 444.5,340.5 Z"/></g>
<g><path style="opacity:1" fill="#373737" d="M 273.5,341.5 C 281.486,340.998 283.486,344.165 279.5,351C 271.424,351.805 269.424,348.638 273.5,341.5 Z"/></g>
<g><path style="opacity:1" fill="#000000" d="M 274.5,342.5 C 280.488,342.664 281.821,345.164 278.5,350C 272.403,350.147 271.07,347.647 274.5,342.5 Z"/></g>
<g><path style="opacity:1" fill="#373737" d="M 305.5,350.5 C 305.426,352.411 304.426,353.578 302.5,354C 295.215,354.962 292.382,351.795 294,344.5C 298,340.5 302,340.5 306,344.5C 306.789,346.712 306.622,348.712 305.5,350.5 Z"/></g>
<g><path style="opacity:1" fill="#000000" d="M 305.5,350.5 C 301.497,354.769 297.997,354.436 295,349.5C 294.66,344.178 297.16,342.011 302.5,343C 305.041,344.848 306.041,347.348 305.5,350.5 Z"/></g>
<g><path style="opacity:1" fill="#171717" d="M 366.5,343.5 C 373.647,345.434 374.147,348.434 368,352.5C 364.121,349.996 363.621,346.996 366.5,343.5 Z"/></g>
<g><path style="opacity:1" fill="#3a3a3a" d="M 226.5,342.5 C 232.665,341.829 235.165,344.496 234,350.5C 227.412,355.509 224.078,353.842 224,345.5C 225.045,344.627 225.878,343.627 226.5,342.5 Z"/></g>
<g><path style="opacity:1" fill="#000000" d="M 227.5,343.5 C 234.647,345.434 235.147,348.434 229,352.5C 224.963,350.142 224.463,347.142 227.5,343.5 Z"/></g>
<g><path style="opacity:1" fill="#3d3d3d" d="M 283.5,351.5 C 291.321,349.833 294.821,352.833 294,360.5C 289.667,365.833 285.333,365.833 281,360.5C 279.927,356.9 280.76,353.9 283.5,351.5 Z"/></g>
<g><path style="opacity:1" fill="#000000" d="M 284.5,352.5 C 289.093,351.418 292.093,353.085 293.5,357.5C 289.5,365.5 285.5,365.5 281.5,357.5C 282.26,355.64 283.26,353.973 284.5,352.5 Z"/></g>
<g><path style="opacity:1" fill="#171717" d="M 338.5,354.5 C 344.662,356.96 344.995,359.96 339.5,363.5C 334.511,361.081 334.178,358.081 338.5,354.5 Z"/></g>
<g><path style="opacity:1" fill="#383838" d="M 307.5,355.5 C 315.219,354.87 317.219,357.87 313.5,364.5C 307.697,366.518 304.864,364.518 305,358.5C 306.045,357.627 306.878,356.627 307.5,355.5 Z"/></g>
<g><path style="opacity:1" fill="#000000" d="M 308.5,356.5 C 313.214,356.201 314.88,358.201 313.5,362.5C 310.123,365.485 307.79,364.819 306.5,360.5C 306.752,358.927 307.418,357.594 308.5,356.5 Z"/></g>
<g><path style="opacity:1" fill="#383838" d="M 256.5,353.5 C 263.978,354.75 265.311,358.25 260.5,364C 253.947,364.763 251.781,361.93 254,355.5C 254.995,354.934 255.828,354.267 256.5,353.5 Z"/></g>
<g><path style="opacity:1" fill="#000000" d="M 257.5,354.5 C 263.639,356.906 263.973,359.906 258.5,363.5C 253.584,360.937 253.251,357.937 257.5,354.5 Z"/></g>
<g><path style="opacity:1" fill="#373737" d="M 217.5,369.5 C 225.486,368.998 227.486,372.165 223.5,379C 215.424,379.805 213.424,376.638 217.5,369.5 Z"/></g>
<g><path style="opacity:1" fill="#000000" d="M 218.5,370.5 C 224.488,370.664 225.821,373.164 222.5,378C 216.403,378.147 215.07,375.647 218.5,370.5 Z"/></g>
<g><path style="opacity:1" fill="#000000" d="M 379.5,373.5 C 384.197,374.874 384.531,376.874 380.5,379.5C 377.025,377.916 376.692,375.916 379.5,373.5 Z"/></g>
<g><path style="opacity:1" fill="#000000" d="M 391.5,404.5 C 396.197,405.874 396.531,407.874 392.5,410.5C 388.928,409.061 388.595,407.061 391.5,404.5 Z"/></g>
<g><path style="opacity:1" fill="#373737" d="M 201.5,414.5 C 209.486,413.998 211.486,417.165 207.5,424C 199.424,424.805 197.424,421.638 201.5,414.5 Z"/></g>
<g><path style="opacity:1" fill="#000000" d="M 202.5,415.5 C 208.488,415.664 209.821,418.164 206.5,423C 200.403,423.147 199.07,420.647 202.5,415.5 Z"/></g>
<g><path style="opacity:1" fill="#3b3b3b" d="M 224.5,428.5 C 230.665,427.829 233.165,430.496 232,436.5C 228.255,440.566 224.922,440.233 222,435.5C 221.333,434.167 221.333,432.833 222,431.5C 223.045,430.627 223.878,429.627 224.5,428.5 Z"/></g>
<g><path style="opacity:1" fill="#000000" d="M 225.5,429.5 C 231.02,430.044 232.354,432.544 229.5,437C 223.202,437.495 221.868,434.995 225.5,429.5 Z"/></g>
<g><path style="opacity:1" fill="#363535" d="M 261.5,463.5 C 272.788,471.804 285.454,476.804 299.5,478.5C 313.501,477.114 326.001,472.114 337,463.5C 332.662,488.893 330.662,514.559 331,540.5C 317.079,522.42 299.913,518.587 279.5,529C 275,532.167 271.167,536 268,540.5C 267.92,535.017 268.086,529.517 268.5,524C 266.975,512.999 266.141,501.832 266,490.5C 265.288,481.346 263.788,472.346 261.5,463.5 Z"/></g>
<g><path style="opacity:1" fill="#3a3a3a" d="M 213.5,460.5 C 218.813,460.644 220.979,463.31 220,468.5C 217.339,471.966 214.339,472.299 211,469.5C 209.93,465.858 210.764,462.858 213.5,460.5 Z"/></g>
<g><path style="opacity:1" fill="#000000" d="M 212.5,462.5 C 218.729,462.027 220.395,464.36 217.5,469.5C 211.828,470.467 210.161,468.134 212.5,462.5 Z"/></g>
<g><path style="opacity:1" fill="#2d2c2c" d="M 340.5,477.5 C 339.703,487.332 338.703,496.999 337.5,506.5C 337.272,496.565 338.272,486.898 340.5,477.5 Z"/></g>
<g><path style="opacity:1" fill="#2f2e2e" d="M 260.5,492.5 C 261.096,503.159 262.096,513.826 263.5,524.5C 263.232,531.689 262.565,538.689 261.5,545.5C 261.501,538.486 261.834,531.486 262.5,524.5C 260.727,514.013 260.061,503.347 260.5,492.5 Z"/></g>
</svg>
