<?xml version="1.0" encoding="UTF-8"?>
<!DOCTYPE svg PUBLIC "-//W3C//DTD SVG 1.1//EN" "http://www.w3.org/Graphics/SVG/1.1/DTD/svg11.dtd">
<svg xmlns="http://www.w3.org/2000/svg" version="1.1" width="600px" height="600px" style="shape-rendering:geometricPrecision; text-rendering:geometricPrecision; image-rendering:optimizeQuality; fill-rule:evenodd; clip-rule:evenodd" xmlns:xlink="http://www.w3.org/1999/xlink">
<g><path style="opacity:0.963" fill="#010101" d="M 599.5,153.5 C 599.5,165.167 599.5,176.833 599.5,188.5C 593.548,193.155 587.215,193.655 580.5,190C 577.656,187.819 574.822,185.653 572,183.5C 554.772,188.199 538.938,195.699 524.5,206C 514.643,214.858 505.143,224.025 496,233.5C 497.31,244.583 498.143,255.75 498.5,267C 498.419,272.188 498.086,277.354 497.5,282.5C 500.16,303.586 501.827,324.752 502.5,346C 501.866,392.572 487.699,434.405 460,471.5C 456.233,476.023 452.233,480.357 448,484.5C 444.167,505.667 431.667,518.167 410.5,522C 387.172,527.268 365.839,522.935 346.5,509C 340.796,508.633 335.13,507.966 329.5,507C 319.768,504.275 309.935,502.108 300,500.5C 283.351,504.536 266.517,507.703 249.5,510C 224.976,523.4 199.643,525.066 173.5,515C 161.812,508.158 154.645,497.992 152,484.5C 125.927,458.364 109.261,427.031 102,390.5C 96.8159,364.972 95.8159,339.306 99,313.5C 100.207,306.464 101.541,299.464 103,292.5C 102.963,272.816 102.963,253.149 103,233.5C 93.8569,224.025 84.3569,214.858 74.5,206C 60.0617,195.699 44.2284,188.199 27,183.5C 22.8471,187.493 18.0137,190.326 12.5,192C 7.62612,192.763 3.29279,191.596 -0.5,188.5C -0.5,176.833 -0.5,165.167 -0.5,153.5C 7.59127,138.241 19.2579,126.408 34.5,118C 68.7359,98.8095 105.069,85.1429 143.5,77C 166.709,74.5171 187.376,80.5171 205.5,95C 213.204,102.373 221.204,109.373 229.5,116C 246.601,114.838 263.601,115.671 280.5,118.5C 293.03,118.49 305.53,118.49 318,118.5C 335.039,115.688 352.205,114.854 369.5,116C 378.5,108.333 387.5,100.667 396.5,93C 414.053,80.0277 433.719,74.6944 455.5,77C 500.233,86.0145 541.566,103.014 579.5,128C 587.557,135.539 594.223,144.039 599.5,153.5 Z"/></g>
<g><path style="opacity:1" fill="#38312f" d="M 147.5,86.5 C 168.487,85.6664 186.82,92.1664 202.5,106C 208.05,112.053 214.05,117.553 220.5,122.5C 220.291,123.086 219.957,123.586 219.5,124C 212.957,124.729 206.624,126.229 200.5,128.5C 194.452,122.955 188.452,117.122 182.5,111C 179.567,109.729 176.901,108.062 174.5,106C 156.112,101.215 137.779,101.548 119.5,107C 100.834,113.33 82.8335,121.33 65.5,131C 49.1321,142.362 33.6321,154.862 19,168.5C 18.3744,170.713 18.5411,172.88 19.5,175C 8.43982,186.005 3.93982,183.505 6,167.5C 11.2664,150.809 21.433,137.975 36.5,129C 71.2524,108.61 108.252,94.4435 147.5,86.5 Z"/></g>
<g><path style="opacity:1" fill="#38312f" d="M 438.5,86.5 C 461.635,88.0332 483.969,93.1998 505.5,102C 530.499,110.984 553.833,122.984 575.5,138C 583.491,146.145 589.325,155.645 593,166.5C 593.777,171.222 593.61,175.889 592.5,180.5C 587.156,182.086 582.989,180.42 580,175.5C 581.455,171.437 580.621,167.937 577.5,165C 563.404,152.902 548.738,141.568 533.5,131C 510.875,117.415 486.541,108.082 460.5,103C 434.879,97.7502 415.212,106.083 401.5,128C 399.5,128.667 397.5,128.667 395.5,128C 390.646,125.223 385.312,123.89 379.5,124C 379.167,123.667 378.833,123.333 378.5,123C 388.425,113.05 399.092,104.05 410.5,96C 419.322,90.8932 428.656,87.7265 438.5,86.5 Z"/></g>
<g><path style="opacity:1" fill="#716062" d="M 140.5,108.5 C 154.128,106.574 166.795,109.074 178.5,116C 185.483,122.138 191.483,128.971 196.5,136.5C 197.833,136.167 199.167,135.833 200.5,135.5C 200.389,136.117 200.056,136.617 199.5,137C 186.465,139.853 174.799,145.353 164.5,153.5C 155.962,159.528 148.129,166.528 141,174.5C 137.071,178.705 133.904,183.372 131.5,188.5C 123.136,200.565 117.469,213.899 114.5,228.5C 112.05,227.223 109.717,225.723 107.5,224C 92.9814,205.476 74.9814,191.476 53.5,182C 43.9516,178.766 34.6182,175.266 25.5,171.5C 41.3526,156.641 58.3526,143.307 76.5,131.5C 84.3576,128.07 92.0242,124.403 99.5,120.5C 112.944,115.685 126.61,111.685 140.5,108.5 Z"/></g>
<g><path style="opacity:1" fill="#716062" d="M 473.5,111.5 C 498.297,118.898 521.297,130.065 542.5,145C 553.356,153.698 564.023,162.531 574.5,171.5C 550.288,177.938 528.622,189.104 509.5,205C 502.255,214.081 493.921,221.915 484.5,228.5C 484.59,225.848 483.924,223.515 482.5,221.5C 477.426,201.681 467.926,184.347 454,169.5C 439.683,154.595 422.849,143.595 403.5,136.5C 409.104,126.897 416.437,118.897 425.5,112.5C 429.306,111.565 432.972,110.231 436.5,108.5C 440.333,108.167 444.167,107.833 448,107.5C 456.601,108.208 465.101,109.541 473.5,111.5 Z"/></g>
<g><path style="opacity:1" fill="#332c2b" d="M 425.5,112.5 C 416.437,118.897 409.104,126.897 403.5,136.5C 402.167,136.5 400.833,136.5 399.5,136.5C 399.5,136.167 399.5,135.833 399.5,135.5C 401.39,135.703 402.89,135.037 404,133.5C 409.069,124.264 416.235,117.264 425.5,112.5 Z"/></g>
<g><path style="opacity:1" fill="#352e2c" d="M 140.5,108.5 C 166.346,103.423 185.013,112.757 196.5,136.5C 191.483,128.971 185.483,122.138 178.5,116C 166.795,109.074 154.128,106.574 140.5,108.5 Z"/></g>
<g><path style="opacity:1" fill="#332c2b" d="M 473.5,111.5 C 505.032,119.431 533.032,133.931 557.5,155C 562.876,160.044 568.542,164.711 574.5,169C 575.774,169.977 575.774,170.811 574.5,171.5C 564.023,162.531 553.356,153.698 542.5,145C 521.297,130.065 498.297,118.898 473.5,111.5 Z"/></g>
<g><path style="opacity:1" fill="#312b29" d="M 99.5,120.5 C 92.0242,124.403 84.3576,128.07 76.5,131.5C 83.4691,126.517 91.1358,122.85 99.5,120.5 Z"/></g>
<g><path style="opacity:1" fill="#b19b82" d="M 399.5,135.5 C 399.5,135.833 399.5,136.167 399.5,136.5C 411.59,142.379 423.59,148.546 435.5,155C 448.601,166.747 460.101,179.581 470,193.5C 474.105,203.03 478.271,212.364 482.5,221.5C 483.924,223.515 484.59,225.848 484.5,228.5C 486.624,265.5 488.958,302.5 491.5,339.5C 492.503,386.32 479.003,428.32 451,465.5C 447.291,470.71 442.791,475.043 437.5,478.5C 437.939,466.283 437.273,454.283 435.5,442.5C 433.171,428.526 430.838,414.526 428.5,400.5C 432.598,377.706 439.598,355.873 449.5,335C 455.972,319.99 458.805,304.49 458,288.5C 451.526,268.688 439.693,252.855 422.5,241C 409.884,233.024 396.55,226.691 382.5,222C 375.458,220.325 368.458,220.325 361.5,222C 355.939,224.562 352.106,228.728 350,234.5C 348.073,247.509 346.073,260.509 344,273.5C 341.369,282.901 337.869,291.901 333.5,300.5C 322.261,298.517 310.928,297.183 299.5,296.5C 289.041,296.958 278.708,298.291 268.5,300.5C 258.194,280.815 253.028,259.815 253,237.5C 249.576,225.861 241.743,220.195 229.5,220.5C 197.079,224.952 171.246,240.286 152,266.5C 147.171,273.49 144.004,281.157 142.5,289.5C 143.24,299.699 145.073,309.699 148,319.5C 157.284,344.185 165.451,369.185 172.5,394.5C 169.689,408.417 167.189,422.417 165,436.5C 163.548,451.342 162.715,466.009 162.5,480.5C 134.571,452.981 117.404,419.647 111,380.5C 106.38,352.071 107.047,323.738 113,295.5C 113.27,273.155 113.77,250.822 114.5,228.5C 117.469,213.899 123.136,200.565 131.5,188.5C 142.081,176.582 153.081,164.915 164.5,153.5C 174.799,145.353 186.465,139.853 199.5,137C 200.056,136.617 200.389,136.117 200.5,135.5C 215.859,129.696 231.859,126.696 248.5,126.5C 265.473,127.809 282.473,128.809 299.5,129.5C 310.549,129.328 321.549,128.495 332.5,127C 355.502,124.835 377.835,127.668 399.5,135.5 Z"/></g>
<g><path style="opacity:1" fill="#332c2b" d="M 76.5,131.5 C 58.3526,143.307 41.3526,156.641 25.5,171.5C 24.475,171.103 24.3083,170.437 25,169.5C 38.8628,157.157 53.3628,145.657 68.5,135C 71.0711,133.546 73.7378,132.38 76.5,131.5 Z"/></g>
<g><path style="opacity:1" fill="#8f7d6a" d="M 164.5,153.5 C 153.081,164.915 142.081,176.582 131.5,188.5C 133.904,183.372 137.071,178.705 141,174.5C 148.129,166.528 155.962,159.528 164.5,153.5 Z"/></g>
<g><path style="opacity:1" fill="#917e6c" d="M 399.5,136.5 C 400.833,136.5 402.167,136.5 403.5,136.5C 422.849,143.595 439.683,154.595 454,169.5C 467.926,184.347 477.426,201.681 482.5,221.5C 478.271,212.364 474.105,203.03 470,193.5C 460.101,179.581 448.601,166.747 435.5,155C 423.59,148.546 411.59,142.379 399.5,136.5 Z"/></g>
<g><path style="opacity:1" fill="#53463e" d="M 268.5,300.5 C 232.134,310.7 204.3,332.033 185,364.5C 180.026,374.26 175.859,384.26 172.5,394.5C 165.451,369.185 157.284,344.185 148,319.5C 145.073,309.699 143.24,299.699 142.5,289.5C 144.004,281.157 147.171,273.49 152,266.5C 171.246,240.286 197.079,224.952 229.5,220.5C 241.743,220.195 249.576,225.861 253,237.5C 253.028,259.815 258.194,280.815 268.5,300.5 Z"/></g>
<g><path style="opacity:1" fill="#53463e" d="M 428.5,400.5 C 414.568,350.236 382.901,316.903 333.5,300.5C 337.869,291.901 341.369,282.901 344,273.5C 346.073,260.509 348.073,247.509 350,234.5C 352.106,228.728 355.939,224.562 361.5,222C 368.458,220.325 375.458,220.325 382.5,222C 396.55,226.691 409.884,233.024 422.5,241C 439.693,252.855 451.526,268.688 458,288.5C 458.805,304.49 455.972,319.99 449.5,335C 439.598,355.873 432.598,377.706 428.5,400.5 Z"/></g>
<g><path style="opacity:1" fill="#665040" d="M 193.5,240.5 C 218.458,237.381 234.625,247.715 242,271.5C 244.423,294.83 234.589,310.33 212.5,318C 187.344,321.18 171.178,310.68 164,286.5C 162.045,263.374 171.878,248.041 193.5,240.5 Z"/></g>
<g><path style="opacity:1" fill="#665140" d="M 386.5,242.5 C 409.09,239.845 424.924,248.845 434,269.5C 438.522,292.29 430.355,308.79 409.5,319C 383.056,324.866 365.556,315.032 357,289.5C 354.719,266.034 364.552,250.367 386.5,242.5 Z"/></g>
<g><path style="opacity:1" fill="#010000" d="M 197.5,255.5 C 216.219,254.067 226.552,262.567 228.5,281C 227.463,296.538 219.13,305.038 203.5,306.5C 187.616,304.782 178.949,295.949 177.5,280C 179.3,267.714 185.966,259.547 197.5,255.5 Z"/></g>
<g><path style="opacity:1" fill="#010000" d="M 390.5,255.5 C 411.977,254.81 422.144,265.143 421,286.5C 415.376,302.401 404.209,308.567 387.5,305C 373.6,298.366 368.434,287.533 372,272.5C 375.439,263.723 381.606,258.057 390.5,255.5 Z"/></g>
<g><path style="opacity:1" fill="#f4f4f4" d="M 208.5,266.5 C 217.024,266.345 219.358,270.011 215.5,277.5C 208.202,279.701 205.036,277.034 206,269.5C 207.045,268.627 207.878,267.627 208.5,266.5 Z"/></g>
<g><path style="opacity:1" fill="#f4f4f4" d="M 401.5,268.5 C 410.818,268.655 412.818,272.488 407.5,280C 400.333,281.5 397.5,278.667 399,271.5C 399.698,270.309 400.531,269.309 401.5,268.5 Z"/></g>
<g><path style="opacity:1" fill="#483e3d" d="M 333.5,300.5 C 382.901,316.903 414.568,350.236 428.5,400.5C 430.838,414.526 433.171,428.526 435.5,442.5C 435.923,455.001 436.59,467.334 437.5,479.5C 435.799,496.361 426.799,506.861 410.5,511C 398.126,513.916 385.792,513.916 373.5,511C 369.05,509.939 365.05,508.105 361.5,505.5C 349.506,493.339 337.673,481.006 326,468.5C 314.112,455.053 306.779,439.386 304,421.5C 302.835,410.857 302.001,400.19 301.5,389.5C 322.307,384.998 337.14,372.998 346,353.5C 349.503,345.174 348.836,337.174 344,329.5C 336.761,321.793 329.261,315.293 321.5,310C 305.662,305.023 289.995,305.357 274.5,311C 264.667,316.833 256.833,324.667 251,334.5C 248.589,342.132 249.256,349.466 253,356.5C 253.333,356.167 253.667,355.833 254,355.5C 262.571,373.078 276.237,384.412 295,389.5C 297.086,413.484 292.086,435.818 280,456.5C 264.351,472.65 248.851,488.983 233.5,505.5C 225.451,509.873 216.784,511.54 207.5,510.5C 195.365,511.374 184.032,508.874 173.5,503C 166.762,497.023 163.095,489.523 162.5,480.5C 162.715,466.009 163.548,451.342 165,436.5C 167.189,422.417 169.689,408.417 172.5,394.5C 175.859,384.26 180.026,374.26 185,364.5C 204.3,332.033 232.134,310.7 268.5,300.5C 278.708,298.291 289.041,296.958 299.5,296.5C 310.928,297.183 322.261,298.517 333.5,300.5 Z"/></g>
<g><path style="opacity:1" fill="#0f0f0f" d="M 361.5,505.5 C 356.976,503.957 352.976,501.623 349.5,498.5C 336.396,486.566 323.396,474.4 310.5,462C 303.76,456.45 296.76,456.117 289.5,461C 276.199,474.478 262.199,486.978 247.5,498.5C 243.097,502.036 238.43,504.369 233.5,505.5C 248.851,488.983 264.351,472.65 280,456.5C 292.086,435.818 297.086,413.484 295,389.5C 276.237,384.412 262.571,373.078 254,355.5C 253.667,355.833 253.333,356.167 253,356.5C 249.256,349.466 248.589,342.132 251,334.5C 256.833,324.667 264.667,316.833 274.5,311C 289.995,305.357 305.662,305.023 321.5,310C 329.261,315.293 336.761,321.793 344,329.5C 348.836,337.174 349.503,345.174 346,353.5C 337.14,372.998 322.307,384.998 301.5,389.5C 302.001,400.19 302.835,410.857 304,421.5C 306.779,439.386 314.112,455.053 326,468.5C 337.673,481.006 349.506,493.339 361.5,505.5 Z"/></g>
<g><path style="opacity:1" fill="#796a5e" d="M 435.5,442.5 C 437.273,454.283 437.939,466.283 437.5,478.5C 437.5,478.833 437.5,479.167 437.5,479.5C 436.59,467.334 435.923,455.001 435.5,442.5 Z"/></g>
<g><path style="opacity:1" fill="#3e3636" d="M 349.5,498.5 C 343.129,498.512 336.796,498.012 330.5,497C 320.047,494.262 309.547,491.762 299,489.5C 288.815,491.921 278.648,494.421 268.5,497C 261.547,498.163 254.547,498.663 247.5,498.5C 262.199,486.978 276.199,474.478 289.5,461C 296.76,456.117 303.76,456.45 310.5,462C 323.396,474.4 336.396,486.566 349.5,498.5 Z"/></g>
</svg>
