<?xml version="1.0" encoding="UTF-8"?>
<!DOCTYPE svg PUBLIC "-//W3C//DTD SVG 1.1//EN" "http://www.w3.org/Graphics/SVG/1.1/DTD/svg11.dtd">
<svg xmlns="http://www.w3.org/2000/svg" version="1.1" width="600px" height="600px" style="shape-rendering:geometricPrecision; text-rendering:geometricPrecision; image-rendering:optimizeQuality; fill-rule:evenodd; clip-rule:evenodd" xmlns:xlink="http://www.w3.org/1999/xlink">
<g><path style="opacity:0.95" fill="#000000" d="M 54.5,-0.5 C 62.5,-0.5 70.5,-0.5 78.5,-0.5C 117.246,24.0589 153.912,51.5589 188.5,82C 198.066,90.2331 206.9,99.0665 215,108.5C 263.405,91.3907 312.571,88.8907 362.5,101C 370.153,103.107 377.653,105.607 385,108.5C 388.365,102.129 392.865,96.6287 398.5,92C 436.345,56.7685 477.345,25.9351 521.5,-0.5C 529.167,-0.5 536.833,-0.5 544.5,-0.5C 550.388,5.96601 553.888,13.6327 555,22.5C 556.589,40.209 555.089,57.709 550.5,75C 550.735,75.8732 551.069,76.7065 551.5,77.5C 540.065,135.573 524.732,192.573 505.5,248.5C 513.564,285.518 513.397,322.518 505,359.5C 500.952,382.982 492.952,404.982 481,425.5C 476.367,431.135 471.367,436.468 466,441.5C 459.065,452.368 451.398,462.702 443,472.5C 427.299,494.272 419.632,518.606 420,545.5C 415.778,570.198 402.612,588.198 380.5,599.5C 326.833,599.5 273.167,599.5 219.5,599.5C 190.633,584.784 176.967,561.117 178.5,528.5C 175.431,515.792 171.264,503.458 166,491.5C 155.085,475.337 144.418,459.004 134,442.5C 119.655,429.156 109.322,413.156 103,394.5C 84.9652,346.141 81.4652,296.807 92.5,246.5C 70.0067,176.861 53.3401,105.861 42.5,33.5C 43.3642,26.0423 44.8642,18.709 47,11.5C 48.7602,6.96696 51.2602,2.96696 54.5,-0.5 Z"/></g>
<g><path style="opacity:1" fill="#362e2b" d="M 203.5,113.5 C 199.517,118.121 196.017,123.121 193,128.5C 188.602,132.729 184.436,137.062 180.5,141.5C 180.268,130.302 177.101,119.968 171,110.5C 154.5,88.6667 135.333,69.5 113.5,53C 106.833,48.3333 100.167,43.6667 93.5,39C 78.2222,29.6079 72.0555,33.7745 75,51.5C 79.1076,86.2571 85.441,120.59 94,154.5C 96.1743,166.367 102.008,175.867 111.5,183C 120.228,189.392 129.228,195.392 138.5,201C 141.833,201.667 145.167,201.667 148.5,201C 152.614,198.716 156.28,195.883 159.5,192.5C 161.168,223.663 177.168,243.83 207.5,253C 221.289,256.576 235.289,258.743 249.5,259.5C 243.689,271.121 237.356,282.454 230.5,293.5C 223.568,287.856 215.568,285.189 206.5,285.5C 192.56,285.203 180.06,289.203 169,297.5C 168.113,302.072 168.78,306.405 171,310.5C 181.839,322.503 195.006,330.837 210.5,335.5C 204.5,349.172 199.333,363.172 195,377.5C 191.098,406.684 201.098,429.684 225,446.5C 253.321,456.706 280.154,453.206 305.5,436C 320.246,425.257 333.746,413.09 346,399.5C 341.824,417.87 337.157,436.204 332,454.5C 329.74,464.394 328.24,474.394 327.5,484.5C 326.5,484.5 325.5,484.5 324.5,484.5C 304.626,481.156 284.959,481.989 265.5,487C 241.561,497.623 235.394,514.789 247,538.5C 256.109,550.456 267.609,559.123 281.5,564.5C 288.812,572.146 296.145,579.813 303.5,587.5C 301.031,588.168 298.698,588.835 296.5,589.5C 283.828,591.223 271.161,593.056 258.5,595C 236.151,596.886 217.317,589.72 202,573.5C 196.752,567.004 193.085,559.67 191,551.5C 189.991,523.786 182.324,498.12 168,474.5C 158.589,462.016 149.922,449.016 142,435.5C 133.886,428.718 127.219,420.718 122,411.5C 96.743,358.094 90.5764,302.594 103.5,245C 81.8984,179.093 65.3984,111.927 54,43.5C 52.7538,33.5866 53.7538,23.9199 57,14.5C 58.6404,9.1688 62.1404,6.6688 67.5,7C 80.2581,12.7708 92.2581,19.7708 103.5,28C 137.232,52.4699 169.398,78.9699 200,107.5C 201.421,109.405 202.588,111.405 203.5,113.5 Z"/></g>
<g><path style="opacity:1" fill="#010202" d="M 180.5,141.5 C 178.498,148.495 176.332,155.495 174,162.5C 168.862,172.441 164.028,182.441 159.5,192.5C 156.28,195.883 152.614,198.716 148.5,201C 145.167,201.667 141.833,201.667 138.5,201C 129.228,195.392 120.228,189.392 111.5,183C 102.008,175.867 96.1743,166.367 94,154.5C 85.441,120.59 79.1076,86.2571 75,51.5C 72.0555,33.7745 78.2222,29.6079 93.5,39C 100.167,43.6667 106.833,48.3333 113.5,53C 135.333,69.5 154.5,88.6667 171,110.5C 177.101,119.968 180.268,130.302 180.5,141.5 Z"/></g>
<g><path style="opacity:1" fill="#362d2a" d="M 296.5,589.5 C 298.698,588.835 301.031,588.168 303.5,587.5C 296.145,579.813 288.812,572.146 281.5,564.5C 291.784,568.129 302.117,568.296 312.5,565C 324.019,560.148 334.519,553.648 344,545.5C 355.207,534.006 358.207,520.673 353,505.5C 350.925,501.421 348.092,497.921 344.5,495C 337.912,491.207 331.245,487.707 324.5,484.5C 325.5,484.5 326.5,484.5 327.5,484.5C 328.24,474.394 329.74,464.394 332,454.5C 337.157,436.204 341.824,417.87 346,399.5C 333.746,413.09 320.246,425.257 305.5,436C 280.154,453.206 253.321,456.706 225,446.5C 201.098,429.684 191.098,406.684 195,377.5C 199.333,363.172 204.5,349.172 210.5,335.5C 211.15,335.196 211.817,334.863 212.5,334.5C 219.904,336.747 227.404,338.413 235,339.5C 237.52,338.793 240.02,337.96 242.5,337C 243.126,336.25 243.626,335.416 244,334.5C 244.252,329.413 243.585,324.413 242,319.5C 238.939,310.387 235.105,301.72 230.5,293.5C 237.356,282.454 243.689,271.121 249.5,259.5C 235.289,258.743 221.289,256.576 207.5,253C 177.168,243.83 161.168,223.663 159.5,192.5C 164.028,182.441 168.862,172.441 174,162.5C 176.332,155.495 178.498,148.495 180.5,141.5C 184.436,137.062 188.602,132.729 193,128.5C 196.017,123.121 199.517,118.121 203.5,113.5C 205.75,116.333 207.75,119.333 209.5,122.5C 257.889,102.885 307.555,99.0512 358.5,111C 369.498,113.944 380.165,117.777 390.5,122.5C 392.55,116.732 395.384,111.398 399,106.5C 433.576,73.575 470.742,44.075 510.5,18C 517.614,13.1096 525.281,9.27629 533.5,6.5C 536.214,6.94042 538.38,8.27375 540,10.5C 545.081,21.6242 546.748,33.2909 545,45.5C 534.572,114.213 517.739,181.213 494.5,246.5C 503.681,284.524 503.514,322.524 494,360.5C 490.016,381.455 482.683,401.121 472,419.5C 467.367,425.135 462.367,430.468 457,435.5C 450.065,446.368 442.398,456.702 434,466.5C 415.944,493.006 406.944,522.339 407,554.5C 397.926,577.564 381.093,591.064 356.5,595C 349.167,595.667 341.833,595.667 334.5,595C 321.871,592.84 309.204,591.007 296.5,589.5 Z"/></g>
<g><path style="opacity:1" fill="#010202" d="M 513.5,34.5 C 521.826,32.9907 525.492,36.4907 524.5,45C 520.146,75.2929 514.979,105.46 509,135.5C 506.503,149.327 501.837,162.327 495,174.5C 485.065,183.103 474.565,190.937 463.5,198C 456.424,201.876 450.091,200.876 444.5,195C 431.173,179.18 423.173,161.013 420.5,140.5C 420.581,129.507 423.747,119.507 430,110.5C 442.423,93.4093 456.923,78.2427 473.5,65C 472.542,63.8525 472.875,62.8525 474.5,62C 486.865,51.8275 499.865,42.6608 513.5,34.5 Z"/></g>
<g><path style="opacity:1" fill="#010202" d="M 230.5,293.5 C 235.105,301.72 238.939,310.387 242,319.5C 243.585,324.413 244.252,329.413 244,334.5C 243.626,335.416 243.126,336.25 242.5,337C 240.02,337.96 237.52,338.793 235,339.5C 227.404,338.413 219.904,336.747 212.5,334.5C 211.817,334.863 211.15,335.196 210.5,335.5C 195.006,330.837 181.839,322.503 171,310.5C 168.78,306.405 168.113,302.072 169,297.5C 180.06,289.203 192.56,285.203 206.5,285.5C 215.568,285.189 223.568,287.856 230.5,293.5 Z"/></g>
<g><path style="opacity:1" fill="#010202" d="M 390.5,286.5 C 403.456,285.993 415.789,288.493 427.5,294C 434.098,297.797 435.264,302.963 431,309.5C 412.41,329.041 389.577,338.541 362.5,338C 360.274,336.38 358.94,334.214 358.5,331.5C 360.41,316.912 366.077,304.078 375.5,293C 380.135,289.675 385.135,287.508 390.5,286.5 Z"/></g>
<g><path style="opacity:1" fill="#ebebeb" d="M 219.5,300.5 C 228.306,300.464 230.639,304.297 226.5,312C 220.723,314.611 217.39,312.778 216.5,306.5C 216.628,304.045 217.628,302.045 219.5,300.5 Z"/></g>
<g><path style="opacity:1" fill="#ececec" d="M 377.5,300.5 C 386.306,300.464 388.639,304.297 384.5,312C 378.723,314.611 375.39,312.778 374.5,306.5C 374.628,304.045 375.628,302.045 377.5,300.5 Z"/></g>
<g><path style="opacity:1" fill="#050403" d="M 324.5,484.5 C 331.245,487.707 337.912,491.207 344.5,495C 348.092,497.921 350.925,501.421 353,505.5C 358.207,520.673 355.207,534.006 344,545.5C 334.519,553.648 324.019,560.148 312.5,565C 302.117,568.296 291.784,568.129 281.5,564.5C 267.609,559.123 256.109,550.456 247,538.5C 235.394,514.789 241.561,497.623 265.5,487C 284.959,481.989 304.626,481.156 324.5,484.5 Z"/></g>
</svg>
