<?xml version="1.0" encoding="UTF-8"?>
<!DOCTYPE svg PUBLIC "-//W3C//DTD SVG 1.1//EN" "http://www.w3.org/Graphics/SVG/1.1/DTD/svg11.dtd">
<svg xmlns="http://www.w3.org/2000/svg" version="1.1" width="600px" height="600px" style="shape-rendering:geometricPrecision; text-rendering:geometricPrecision; image-rendering:optimizeQuality; fill-rule:evenodd; clip-rule:evenodd" xmlns:xlink="http://www.w3.org/1999/xlink">
<g><path style="opacity:0.975" fill="#030302" d="M 167.5,-0.5 C 177.167,-0.5 186.833,-0.5 196.5,-0.5C 201.388,19.4261 206.221,39.4261 211,59.5C 212.943,65.328 215.276,70.9947 218,76.5C 218.725,77.0585 219.558,77.3918 220.5,77.5C 233.958,74.1253 247.625,72.7919 261.5,73.5C 297.832,74.3256 334.165,74.4922 370.5,74C 377.092,74.6517 383.592,75.8184 390,77.5C 390.833,77.1667 391.667,76.8333 392.5,76.5C 396.02,69.4415 398.853,62.1082 401,54.5C 404.743,36.0266 408.91,17.6933 413.5,-0.5C 423.167,-0.5 432.833,-0.5 442.5,-0.5C 453.328,12.4662 462.161,26.7996 469,42.5C 477.448,64.0639 486.448,85.3972 496,106.5C 506.939,128.044 517.605,149.71 528,171.5C 534.63,187.318 537.463,203.818 536.5,221C 537.149,240.58 531.982,258.413 521,274.5C 520.667,276.167 520.333,277.833 520,279.5C 520.905,306.838 520.571,334.171 519,361.5C 517.064,392.577 510.397,422.577 499,451.5C 489.079,469.675 479.412,488.009 470,506.5C 461.851,526.968 452.184,546.634 441,565.5C 441.771,577.837 438.937,589.17 432.5,599.5C 418.833,599.5 405.167,599.5 391.5,599.5C 390.571,598.685 389.571,597.852 388.5,597C 375.947,595.384 364.947,590.55 355.5,582.5C 322.002,593.149 288.502,593.149 255,582.5C 245.725,590.601 234.892,595.434 222.5,597C 221.429,597.852 220.429,598.685 219.5,599.5C 205.833,599.5 192.167,599.5 178.5,599.5C 175.292,595.752 173.126,591.418 172,586.5C 170.844,578.551 170.178,570.551 170,562.5C 161.971,546.087 155.304,529.087 150,511.5C 147.667,505.833 145.333,500.167 143,494.5C 133.079,476.325 123.412,457.991 114,439.5C 93.0109,387.567 83.6775,333.567 86,277.5C 82.2726,269.045 78.2726,260.712 74,252.5C 67.2305,227.157 68.2305,202.157 77,177.5C 87.7451,156.342 98.7451,135.342 110,114.5C 123.216,86.0685 135.883,57.4018 148,28.5C 153.546,18.1334 160.046,8.46677 167.5,-0.5 Z"/></g>
<g><path style="opacity:1" fill="#ae706e" d="M 183.5,1.5 C 178.765,6.96928 175.599,13.3026 174,20.5C 170.783,43.0957 168.117,65.7624 166,88.5C 162.167,116.16 150.834,140.16 132,160.5C 115.895,176.778 99.0616,192.111 81.5,206.5C 81.0902,198.14 82.5902,190.14 86,182.5C 98.9217,158.324 111.588,133.991 124,109.5C 133.885,87.7311 143.218,65.7311 152,43.5C 158.467,28.7291 167.3,15.5624 178.5,4C 180.078,2.9055 181.745,2.07217 183.5,1.5 Z"/></g>
<g><path style="opacity:1" fill="#ae706e" d="M 426.5,1.5 C 432.723,4.88423 437.89,9.55089 442,15.5C 448.679,24.8506 454.346,34.8506 459,45.5C 476.569,90.3023 496.569,133.969 519,176.5C 523.538,185.652 525.371,195.319 524.5,205.5C 503.466,188.3 484.633,168.966 468,147.5C 455.864,130.78 448.197,112.114 445,91.5C 442.58,72.5448 440.58,53.5448 439,34.5C 438.448,21.9936 434.281,10.9936 426.5,1.5 Z"/></g>
<g><path style="opacity:1" fill="#eadecf" d="M 522.5,211.5 C 523.209,212.404 524.209,212.737 525.5,212.5C 525.5,218.5 525.5,224.5 525.5,230.5C 525.931,243.298 522.098,254.631 514,264.5C 512.382,268.068 511.049,271.735 510,275.5C 509.741,306.51 509.074,337.51 508,368.5C 505.19,408.261 493.19,444.927 472,478.5C 460.947,500.996 450.28,523.663 440,546.5C 439.132,534.515 438.632,522.515 438.5,510.5C 439.462,483.504 439.629,456.504 439,429.5C 436.875,400.125 428.875,372.459 415,346.5C 393.562,313.352 363.062,294.852 323.5,291C 246.097,284.769 196.931,318.935 176,393.5C 171.019,419.226 169.186,445.226 170.5,471.5C 170.831,493.34 170.497,515.006 169.5,536.5C 164.904,521.972 159.737,507.639 154,493.5C 142.474,472.449 131.474,451.116 121,429.5C 106.48,392.566 98.4795,354.232 97,314.5C 96.894,299.794 96.2273,285.127 95,270.5C 89.2939,261.797 84.9606,252.464 82,242.5C 80.6687,232.55 80.1687,222.55 80.5,212.5C 82.5643,212.313 84.5643,211.813 86.5,211C 104.188,196.548 121.021,181.048 137,164.5C 153.787,146.262 164.787,124.929 170,100.5C 173.715,76.2556 176.715,51.9223 179,27.5C 180.133,20.4278 182.633,13.9278 186.5,8C 188.807,7.72866 189.974,8.89532 190,11.5C 193.267,31.5053 197.934,51.1719 204,70.5C 206.133,77.2853 209.633,83.1186 214.5,88C 217.167,88.6667 219.833,88.6667 222.5,88C 229.243,85.7078 236.243,84.3745 243.5,84C 263.358,83.407 283.192,83.907 303,85.5C 324.48,83.9703 345.98,83.4703 367.5,84C 375.805,84.8006 383.971,86.3006 392,88.5C 395.333,88.5 398,87.1667 400,84.5C 404.984,74.5484 408.984,64.2151 412,53.5C 415.18,37.7813 418.514,22.1147 422,6.5C 427.086,11.4063 430.086,17.4063 431,24.5C 433.736,49.1946 436.736,73.8613 440,98.5C 443.603,118.029 451.27,135.696 463,151.5C 480.357,174.023 500.19,194.023 522.5,211.5 Z"/></g>
<g><path style="opacity:1" fill="#a99a90" d="M 183.5,1.5 C 184.376,1.36912 185.043,1.70245 185.5,2.5C 179.659,7.84583 176.159,14.5125 175,22.5C 171.945,46.8205 168.945,71.1539 166,95.5C 161.354,120.792 150.354,142.792 133,161.5C 116.858,178.529 99.6913,193.529 81.5,206.5C 99.0616,192.111 115.895,176.778 132,160.5C 150.834,140.16 162.167,116.16 166,88.5C 168.117,65.7624 170.783,43.0957 174,20.5C 175.599,13.3026 178.765,6.96928 183.5,1.5 Z"/></g>
<g><path style="opacity:1" fill="#a99a90" d="M 426.5,1.5 C 434.281,10.9936 438.448,21.9936 439,34.5C 440.58,53.5448 442.58,72.5448 445,91.5C 448.197,112.114 455.864,130.78 468,147.5C 484.633,168.966 503.466,188.3 524.5,205.5C 496.592,185.705 473.425,160.372 455,129.5C 450.666,119.498 447.333,109.164 445,98.5C 441.736,73.8613 438.736,49.1946 436,24.5C 435.068,16.3037 431.734,9.3037 426,3.5C 425.308,2.56323 425.475,1.89657 426.5,1.5 Z"/></g>
<g><path style="opacity:1" fill="#746e66" d="M 522.5,211.5 C 523.833,211.5 525.167,211.5 526.5,211.5C 526.823,218.022 526.49,224.355 525.5,230.5C 525.5,224.5 525.5,218.5 525.5,212.5C 524.209,212.737 523.209,212.404 522.5,211.5 Z"/></g>
<g><path style="opacity:1" fill="#363330" d="M 192.5,278.5 C 201.445,285.827 210.779,286.327 220.5,280C 227.98,272.595 229.313,264.428 224.5,255.5C 226.997,252.918 229.997,251.418 233.5,251C 239.775,265.847 236.775,278.513 224.5,289C 214.775,294.093 204.775,294.759 194.5,291C 191.61,289.062 188.944,286.895 186.5,284.5C 188.188,282.146 190.188,280.146 192.5,278.5 Z"/></g>
<g><path style="opacity:1" fill="#363330" d="M 384.5,254.5 C 379.543,268.075 383.543,277.908 396.5,284C 404.248,285.866 410.915,284.032 416.5,278.5C 419.427,279.757 421.761,281.757 423.5,284.5C 411.969,294.66 399.302,296.16 385.5,289C 376.976,282.956 372.643,274.622 372.5,264C 372.83,259.148 374.163,254.648 376.5,250.5C 379.193,251.847 381.86,253.18 384.5,254.5 Z"/></g>
<g><path style="opacity:1" fill="#7d501c" d="M 224.5,255.5 C 229.313,264.428 227.98,272.595 220.5,280C 210.779,286.327 201.445,285.827 192.5,278.5C 194.091,276.367 196.091,274.701 198.5,273.5C 207.62,278.846 214.454,276.846 219,267.5C 219.495,264.469 219.329,261.469 218.5,258.5C 220.216,256.975 222.216,255.975 224.5,255.5 Z"/></g>
<g><path style="opacity:1" fill="#7e501c" d="M 384.5,254.5 C 387.047,255.934 389.381,257.6 391.5,259.5C 388.745,265.451 390.079,270.618 395.5,275C 400.804,277.265 405.804,276.765 410.5,273.5C 413.089,274.419 415.089,276.086 416.5,278.5C 410.915,284.032 404.248,285.866 396.5,284C 383.543,277.908 379.543,268.075 384.5,254.5 Z"/></g>
<g><path style="opacity:1" fill="#060403" d="M 218.5,258.5 C 219.329,261.469 219.495,264.469 219,267.5C 214.454,276.846 207.62,278.846 198.5,273.5C 204.577,267.762 211.244,262.762 218.5,258.5 Z"/></g>
<g><path style="opacity:1" fill="#040302" d="M 391.5,259.5 C 394.274,260.723 396.941,262.223 399.5,264C 403.359,267.032 407.026,270.198 410.5,273.5C 405.804,276.765 400.804,277.265 395.5,275C 390.079,270.618 388.745,265.451 391.5,259.5 Z"/></g>
<g><path style="opacity:1" fill="#847767" d="M 429.5,435.5 C 429.819,453.577 429.486,471.577 428.5,489.5C 428.333,503.837 428.5,518.171 429,532.5C 429.19,541.779 430.023,550.945 431.5,560C 430.69,568.835 429.523,577.668 428,586.5C 426.412,591.052 423.245,593.885 418.5,595C 412.606,596.037 406.939,595.371 401.5,593C 390.037,586.201 380.537,577.368 373,566.5C 366.273,551.38 359.273,536.38 352,521.5C 345.252,509.089 336.085,498.922 324.5,491C 304.24,482.274 286.74,486.107 272,502.5C 265.003,511.154 259.003,520.487 254,530.5C 248.667,542.5 243.333,554.5 238,566.5C 230.41,577.425 220.91,586.258 209.5,593C 203.98,595.058 198.313,595.724 192.5,595C 186.59,593.421 183.09,589.588 182,583.5C 181.973,540.498 181.14,497.498 179.5,454.5C 178.445,420.601 185.612,388.601 201,358.5C 224.382,319.463 259.048,299.796 305,299.5C 358.262,300.441 395.596,325.108 417,373.5C 423.702,393.643 427.868,414.31 429.5,435.5 Z"/></g>
<g><path style="opacity:1" fill="#1b1b1b" d="M 294.5,334.5 C 316.057,331.844 333.89,338.511 348,354.5C 355.534,365.518 356.534,377.185 351,389.5C 346.199,399.065 338.532,404.732 328,406.5C 320.533,404.4 313.033,402.4 305.5,400.5C 297.566,402.699 289.566,404.699 281.5,406.5C 268.933,403.767 261.099,396.1 258,383.5C 254.47,365.39 260.637,351.557 276.5,342C 282.49,339.179 288.49,336.679 294.5,334.5 Z"/></g>
<g><path style="opacity:1" fill="#000000" d="M 280.5,348.5 C 290.41,350.569 294.577,356.569 293,366.5C 287.251,371.981 280.418,373.814 272.5,372C 270.671,370.887 269.837,369.387 270,367.5C 274.506,365.796 278.84,363.796 283,361.5C 283.153,357.621 281.986,354.121 279.5,351C 279.743,350.098 280.077,349.265 280.5,348.5 Z"/></g>
<g><path style="opacity:1" fill="#010101" d="M 328.5,348.5 C 329.5,348.5 330.5,348.5 331.5,348.5C 331.856,351.564 331.023,354.231 329,356.5C 328.333,358.5 328.333,360.5 329,362.5C 332.856,363.876 336.689,365.376 340.5,367C 342.013,369.454 341.346,371.121 338.5,372C 330.102,374.259 323.269,372.093 318,365.5C 317.437,357.288 320.937,351.621 328.5,348.5 Z"/></g>
<g><path style="opacity:1" fill="#383531" d="M 429.5,435.5 C 430.166,444.327 430.5,453.327 430.5,462.5C 430.498,471.859 429.832,480.859 428.5,489.5C 429.486,471.577 429.819,453.577 429.5,435.5 Z"/></g>
<g><path style="opacity:1" fill="#928a81" d="M 170.5,471.5 C 171.663,493.663 171.83,515.996 171,538.5C 170.283,537.956 169.783,537.289 169.5,536.5C 170.497,515.006 170.831,493.34 170.5,471.5 Z"/></g>
</svg>
