<?xml version="1.0" encoding="UTF-8"?>
<!DOCTYPE svg PUBLIC "-//W3C//DTD SVG 1.1//EN" "http://www.w3.org/Graphics/SVG/1.1/DTD/svg11.dtd">
<svg xmlns="http://www.w3.org/2000/svg" version="1.1" width="600px" height="600px" style="shape-rendering:geometricPrecision; text-rendering:geometricPrecision; image-rendering:optimizeQuality; fill-rule:evenodd; clip-rule:evenodd" xmlns:xlink="http://www.w3.org/1999/xlink">
<g><path style="opacity:0.968" fill="#010101" d="M 599.5,217.5 C 599.5,237.167 599.5,256.833 599.5,276.5C 589.019,297.736 579.185,319.403 570,341.5C 560.992,368.208 554.658,395.542 551,423.5C 542.691,438.731 531.191,441.564 516.5,432C 496.522,412.015 481.356,388.848 471,362.5C 458.48,394.058 447.147,426.058 437,458.5C 433.843,474.95 430.177,491.284 426,507.5C 422.121,519.768 414.955,529.602 404.5,537C 399.999,539 395.332,540.5 390.5,541.5C 383.48,541.232 376.313,540.566 369,539.5C 345.815,543.479 322.481,546.146 299,547.5C 288.131,547.136 277.298,546.303 266.5,545C 254.071,542.678 241.571,540.845 229,539.5C 199.373,545.216 180.373,533.549 172,504.5C 167.775,480.706 161.775,457.372 154,434.5C 149.806,427.446 146.139,420.112 143,412.5C 137.133,396.565 131.466,380.565 126,364.5C 115.549,389.939 100.716,412.439 81.5,432C 66.8086,441.564 55.3086,438.731 47,423.5C 43.0519,393.759 36.0519,364.759 26,336.5C 17.1168,316.743 8.28351,297.077 -0.5,277.5C -0.5,258.5 -0.5,239.5 -0.5,220.5C 32.4904,170.677 74.4904,130.177 125.5,99C 141.754,89.6932 159.088,83.3598 177.5,80C 228.069,54.8426 281.403,46.1759 337.5,54C 366.883,56.3666 394.216,65.0332 419.5,80C 437.555,83.0184 454.555,89.0184 470.5,98C 484.5,107 498.5,116 512.5,125C 535.558,142.389 556.391,162.222 575,184.5C 584.163,194.855 592.329,205.855 599.5,217.5 Z"/></g>
<g><path style="opacity:1" fill="#414141" d="M 350.5,66.5 C 306.13,66.1884 286.296,88.1884 291,132.5C 291.76,136.819 292.427,141.152 293,145.5C 297.495,159.491 302.829,173.158 309,186.5C 312.241,200.849 315.574,215.182 319,229.5C 323.333,249.52 331.333,267.853 343,284.5C 351.297,294.731 361.797,301.564 374.5,305C 386.031,307.644 397.697,309.311 409.5,310C 424.484,312.329 437.151,318.996 447.5,330C 451.089,332.631 455.089,333.797 459.5,333.5C 460.24,337.577 462.24,340.91 465.5,343.5C 465.333,344.167 465.167,344.833 465,345.5C 452.992,379.527 440.992,413.527 429,447.5C 424.284,466.082 419.95,484.749 416,503.5C 413.298,512.412 408.464,519.912 401.5,526C 395.426,529.907 388.759,531.407 381.5,530.5C 361.273,523.366 341.273,515.533 321.5,507C 321.546,504.255 319.879,502.755 316.5,502.5C 310.783,499.31 304.783,496.644 298.5,494.5C 289.726,496.555 281.726,500.222 274.5,505.5C 260.65,514.758 245.983,522.425 230.5,528.5C 205.305,535.49 189.138,526.49 182,501.5C 177.671,477.017 171.504,453.017 163.5,429.5C 164.973,430.74 166.64,431.74 168.5,432.5C 177.01,428.158 182.843,421.491 186,412.5C 193.161,391.684 201.494,371.35 211,351.5C 228,325.833 245,300.167 262,274.5C 277.78,244.104 284.946,211.771 283.5,177.5C 284.303,153.799 281.803,130.466 276,107.5C 270.25,84.9118 255.75,73.9118 232.5,74.5C 224.675,74.3741 217.009,75.3741 209.5,77.5C 217.423,73.8029 225.756,70.9695 234.5,69C 273.021,61.3364 311.687,60.503 350.5,66.5 Z"/></g>
<g><path style="opacity:1" fill="#1e1e1e" d="M 350.5,66.5 C 370.66,69.4422 389.66,75.7756 407.5,85.5C 407.035,90.1177 407.535,94.7844 409,99.5C 419.936,108.433 430.269,118.1 440,128.5C 446.078,137.391 451.411,146.724 456,156.5C 466.144,183.644 471.311,211.644 471.5,240.5C 470.252,258.517 468.752,276.517 467,294.5C 465.738,298.313 465.071,302.313 465,306.5C 461.374,315.103 459.541,324.103 459.5,333.5C 455.089,333.797 451.089,332.631 447.5,330C 437.151,318.996 424.484,312.329 409.5,310C 397.697,309.311 386.031,307.644 374.5,305C 361.797,301.564 351.297,294.731 343,284.5C 331.333,267.853 323.333,249.52 319,229.5C 315.574,215.182 312.241,200.849 309,186.5C 302.829,173.158 297.495,159.491 293,145.5C 292.427,141.152 291.76,136.819 291,132.5C 286.296,88.1884 306.13,66.1884 350.5,66.5 Z"/></g>
<g><path style="opacity:1" fill="#1e1e1e" d="M 163.5,429.5 C 158.836,421.506 154.67,413.173 151,404.5C 143.998,384.995 137.498,365.329 131.5,345.5C 132.396,341.232 133.896,337.232 136,333.5C 136.759,330.374 137.259,327.207 137.5,324C 127.6,273.577 127.1,223.077 136,172.5C 139.94,153.963 147.607,137.296 159,122.5C 168.755,113.408 179.088,105.075 190,97.5C 191.718,93.2051 191.885,88.8718 190.5,84.5C 196.725,81.8885 203.058,79.5551 209.5,77.5C 217.009,75.3741 224.675,74.3741 232.5,74.5C 255.75,73.9118 270.25,84.9118 276,107.5C 281.803,130.466 284.303,153.799 283.5,177.5C 284.946,211.771 277.78,244.104 262,274.5C 245,300.167 228,325.833 211,351.5C 201.494,371.35 193.161,391.684 186,412.5C 182.843,421.491 177.01,428.158 168.5,432.5C 166.64,431.74 164.973,430.74 163.5,429.5 Z"/></g>
<g><path style="opacity:1" fill="#202020" d="M 125.5,327.5 C 119.066,288.086 116.899,248.419 119,208.5C 120.662,185.862 125.328,163.862 133,142.5C 138.406,128.761 146.572,116.928 157.5,107C 164.212,101.324 171.212,96.1576 178.5,91.5C 179.386,90.2241 180.386,90.2241 181.5,91.5C 160.592,103.574 145.092,120.574 135,142.5C 123.79,174.173 118.623,206.84 119.5,240.5C 119.374,268.944 122.04,297.11 127.5,325C 127.316,326.376 126.649,327.209 125.5,327.5 Z"/></g>
<g><path style="opacity:1" fill="#414141" d="M 178.5,91.5 C 171.212,96.1576 164.212,101.324 157.5,107C 146.572,116.928 138.406,128.761 133,142.5C 125.328,163.862 120.662,185.862 119,208.5C 116.899,248.419 119.066,288.086 125.5,327.5C 118.347,364.976 101.347,397.143 74.5,424C 65.5606,429.953 59.394,427.786 56,417.5C 50.9805,371.441 37.3138,328.108 15,287.5C 10.2515,276.922 6.91816,265.922 5,254.5C 2.89739,242.245 5.23072,230.912 12,220.5C 44.5279,173.301 85.3612,135.134 134.5,106C 148.118,97.8494 162.785,93.0161 178.5,91.5 Z"/></g>
<g><path style="opacity:1" fill="#414141" d="M 491.5,124.5 C 488.403,124.571 485.07,124.738 481.5,125C 478.906,126.339 477.406,128.506 477,131.5C 476.153,141.927 476.82,152.26 479,162.5C 485,183.833 491,205.167 497,226.5C 498.52,236.472 499.853,246.472 501,256.5C 504.622,275.122 515.789,285.955 534.5,289C 544.167,289.667 553.833,289.667 563.5,289C 571.62,287.467 578.954,284.3 585.5,279.5C 578.637,295.566 571.47,311.566 564,327.5C 553.112,355.94 545.778,385.273 542,415.5C 539.852,426.795 533.686,429.629 523.5,424C 495.537,396.58 478.203,363.413 471.5,324.5C 484.906,270.085 484.739,215.752 471,161.5C 461.045,133.134 443.879,109.967 419.5,92C 431.372,92.7312 442.705,95.7312 453.5,101C 466.632,108.067 479.298,115.9 491.5,124.5 Z"/></g>
<g><path style="opacity:1" fill="#1e1e1e" d="M 491.5,124.5 C 508.584,134.904 524.25,147.237 538.5,161.5C 556.348,178.838 572.514,197.505 587,217.5C 597.341,238.47 596.841,259.137 585.5,279.5C 578.954,284.3 571.62,287.467 563.5,289C 553.833,289.667 544.167,289.667 534.5,289C 515.789,285.955 504.622,275.122 501,256.5C 499.853,246.472 498.52,236.472 497,226.5C 491,205.167 485,183.833 479,162.5C 476.82,152.26 476.153,141.927 477,131.5C 477.406,128.506 478.906,126.339 481.5,125C 485.07,124.738 488.403,124.571 491.5,124.5 Z"/></g>
<g><path style="opacity:1" fill="#42342b" d="M 201.5,206.5 C 230.645,204.813 244.812,218.48 244,247.5C 237.601,267.791 223.768,276.625 202.5,274C 182.126,267.102 173.626,252.935 177,231.5C 181.017,218.984 189.184,210.65 201.5,206.5 Z"/></g>
<g><path style="opacity:1" fill="#42342b" d="M 383.5,207.5 C 411.216,208.044 424.05,222.044 422,249.5C 415.982,269.443 402.482,278.276 381.5,276C 361.673,269.178 352.84,255.345 355,234.5C 359.527,220.137 369.027,211.137 383.5,207.5 Z"/></g>
<g><path style="opacity:1" fill="#010101" d="M 202.5,215.5 C 218.789,212.722 229.623,219.055 235,234.5C 236,256.5 225.5,266.666 203.5,265C 185.839,257.018 181.005,244.184 189,226.5C 192.666,221.758 197.166,218.092 202.5,215.5 Z"/></g>
<g><path style="opacity:1" fill="#010101" d="M 383.5,216.5 C 398.886,215.273 409.052,221.939 414,236.5C 415.781,253.043 408.614,263.21 392.5,267C 371.703,266.978 362.203,256.478 364,235.5C 367.417,225.915 373.917,219.582 383.5,216.5 Z"/></g>
<g><path style="opacity:1" fill="#f5f5f5" d="M 215.5,225.5 C 225.158,223.993 229.325,227.993 228,237.5C 222.667,244.167 217.333,244.167 212,237.5C 210.593,232.643 211.76,228.643 215.5,225.5 Z"/></g>
<g><path style="opacity:1" fill="#f3f3f3" d="M 397.5,224.5 C 405.502,225.332 408.668,229.665 407,237.5C 401.57,244.145 396.236,244.145 391,237.5C 389.056,230.98 391.223,226.646 397.5,224.5 Z"/></g>
<g><path style="opacity:1" fill="#1e1e1e" d="M 510.5,304.5 C 522.528,304.357 529.028,310.357 530,322.5C 529.848,336.577 528.014,350.41 524.5,364C 523.127,364.875 521.627,365.375 520,365.5C 507.297,359.796 498.297,350.462 493,337.5C 492.517,323.133 498.35,312.133 510.5,304.5 Z"/></g>
<g><path style="opacity:1" fill="#1e1e1e" d="M 61.5,319.5 C 76.5095,321.947 87.0095,330.28 93,344.5C 94.1616,350.557 93.1616,356.223 90,361.5C 85.7731,369.398 79.4397,374.732 71,377.5C 67.8017,377.304 65.8017,375.637 65,372.5C 64.2284,360.839 63.5617,349.173 63,337.5C 62.3471,332.707 61.1805,328.041 59.5,323.5C 59.7517,321.927 60.4183,320.594 61.5,319.5 Z"/></g>
<g><path style="opacity:1" fill="#1e1e1e" d="M 392.5,326.5 C 406.981,325.491 418.481,330.825 427,342.5C 429.364,349.985 430.031,357.652 429,365.5C 426.88,372.611 422.38,374.444 415.5,371C 401.657,361.494 391.99,348.828 386.5,333C 387.326,329.676 389.326,327.51 392.5,326.5 Z"/></g>
<g><path style="opacity:1" fill="#1e1e1e" d="M 231.5,359.5 C 233.722,359.178 235.556,359.845 237,361.5C 237.667,365.833 237.667,370.167 237,374.5C 232.264,391.042 226.93,407.375 221,423.5C 219.492,427.674 217.159,428.341 214,425.5C 202.649,398.903 208.482,376.903 231.5,359.5 Z"/></g>
<g><path style="opacity:1" fill="#1e1e1e" d="M 365.5,378.5 C 368.425,378.46 371.091,379.293 373.5,381C 381.726,388.227 388.893,396.393 395,405.5C 397.023,412.525 396.857,419.525 394.5,426.5C 392.994,427.747 391.494,427.747 390,426.5C 384.29,413.8 376.624,402.466 367,392.5C 363.296,387.998 362.796,383.331 365.5,378.5 Z"/></g>
<g><path style="opacity:1" fill="#000000" d="M 282.5,389.5 C 295.209,389.152 307.875,389.652 320.5,391C 346.4,395.347 355.567,409.847 348,434.5C 336.852,453.009 320.352,463.343 298.5,465.5C 284.673,463.834 272.506,458.501 262,449.5C 261.282,450.451 260.449,450.617 259.5,450C 245.216,436.339 242.716,420.839 252,403.5C 257.329,397.75 263.829,393.916 271.5,392C 275.347,391.367 279.014,390.533 282.5,389.5 Z"/></g>
<g><path style="opacity:1" fill="#010101" d="M 316.5,502.5 C 317.058,503.79 318.058,504.623 319.5,505C 318.5,505.333 317.5,505.667 316.5,506C 302.327,506.827 288.327,506.661 274.5,505.5C 281.726,500.222 289.726,496.555 298.5,494.5C 304.783,496.644 310.783,499.31 316.5,502.5 Z"/></g>
<g><path style="opacity:1" fill="#333232" d="M 316.5,502.5 C 319.879,502.755 321.546,504.255 321.5,507C 341.273,515.533 361.273,523.366 381.5,530.5C 376.98,530.03 372.48,529.363 368,528.5C 356.472,530.147 344.972,531.98 333.5,534C 312.531,536.741 291.531,537.074 270.5,535C 257.143,532.718 243.809,530.551 230.5,528.5C 245.983,522.425 260.65,514.758 274.5,505.5C 288.327,506.661 302.327,506.827 316.5,506C 317.5,505.667 318.5,505.333 319.5,505C 318.058,504.623 317.058,503.79 316.5,502.5 Z"/></g>
</svg>
