<?xml version="1.0" encoding="UTF-8"?>
<!DOCTYPE svg PUBLIC "-//W3C//DTD SVG 1.1//EN" "http://www.w3.org/Graphics/SVG/1.1/DTD/svg11.dtd">
<svg xmlns="http://www.w3.org/2000/svg" version="1.1" width="600px" height="600px" style="shape-rendering:geometricPrecision; text-rendering:geometricPrecision; image-rendering:optimizeQuality; fill-rule:evenodd; clip-rule:evenodd" xmlns:xlink="http://www.w3.org/1999/xlink">
<g><path style="opacity:0.967" fill="#010000" d="M 599.5,298.5 C 599.5,310.833 599.5,323.167 599.5,335.5C 596.214,336.207 592.881,336.54 589.5,336.5C 592.857,345.761 595.19,355.261 596.5,365C 595.597,370.108 594.763,375.275 594,380.5C 588.793,399.787 583.793,419.12 579,438.5C 578.215,440.286 577.049,441.786 575.5,443C 572.455,443.745 569.789,445.078 567.5,447C 569.085,452.573 568.252,457.739 565,462.5C 562.765,464.202 560.265,465.202 557.5,465.5C 559.93,478.385 562.596,491.218 565.5,504C 564.782,516.198 558.449,520.865 546.5,518C 543.751,516.877 541.251,515.377 539,513.5C 536.203,519.658 531.37,522.992 524.5,523.5C 494.7,517.535 471.2,502.202 454,477.5C 444.224,456.961 438.891,435.295 438,412.5C 432.761,421.72 428.595,431.387 425.5,441.5C 427.845,459.589 426.011,477.256 420,494.5C 408.615,518.443 389.782,528.609 363.5,525C 358.735,523.801 354.069,522.301 349.5,520.5C 316.033,525.778 282.533,525.778 249,520.5C 228.282,529.156 209.115,526.656 191.5,513C 179.853,499.408 173.687,483.575 173,465.5C 172.203,455.101 172.703,444.768 174.5,434.5C 171.573,425.209 167.406,416.543 162,408.5C 161.333,429.506 157.333,449.84 150,469.5C 138.119,492.714 119.952,508.88 95.5,518C 88.7,520.617 81.7,522.45 74.5,523.5C 67.8588,523.516 63.1921,520.516 60.5,514.5C 56.3808,517.372 51.8808,519.372 47,520.5C 37.9154,518.863 33.4154,513.363 33.5,504C 36.7355,491.892 39.7355,479.725 42.5,467.5C 39.5081,466.113 36.6748,464.446 34,462.5C 30.6391,457.148 29.8058,451.481 31.5,445.5C 26.0288,445.844 22.1954,443.511 20,438.5C 15.0019,418.507 10.0019,398.507 5,378.5C 2.08963,364.213 3.92296,350.547 10.5,337.5C 6.86674,336.588 3.20007,335.921 -0.5,335.5C -0.5,323.5 -0.5,311.5 -0.5,299.5C 7.96328,283.922 17.4633,268.922 28,254.5C 32.0395,243.814 37.7062,234.147 45,225.5C 59.2633,208.567 74.2633,192.233 90,176.5C 103.511,150.353 121.677,127.853 144.5,109C 153.411,101.629 163.578,96.7954 175,94.5C 176.789,95.4091 178.623,95.5758 180.5,95C 217.642,72.7956 257.975,61.9622 301.5,62.5C 336.762,62.3186 370.428,69.4853 402.5,84C 409.247,87.4553 415.747,91.2886 422,95.5C 428.311,95.6178 434.477,97.1178 440.5,100C 460.541,113.039 477.708,129.206 492,148.5C 498.251,157.999 504.251,167.666 510,177.5C 530.57,196.724 548.904,217.724 565,240.5C 571.563,255.301 579.896,268.968 590,281.5C 593.208,287.261 596.375,292.928 599.5,298.5 Z"/></g>
<g><path style="opacity:1" fill="#684d3a" d="M 460.5,209.5 C 460.619,235.508 460.285,261.508 459.5,287.5C 459.49,295.605 458.823,303.605 457.5,311.5C 454.084,332.243 451.751,353.243 450.5,374.5C 435.922,391.492 424.422,411.826 416,435.5C 415.505,437.473 415.338,439.473 415.5,441.5C 412.511,402.351 395.511,370.851 364.5,347C 349.467,335.982 333.133,327.315 315.5,321C 294.944,315.981 275.611,318.981 257.5,330C 216.025,352.957 191.691,387.791 184.5,434.5C 182.491,424.983 178.991,415.983 174,407.5C 166.36,395.377 158.193,383.711 149.5,372.5C 148.436,355.583 146.436,338.916 143.5,322.5C 142.18,315.945 141.513,309.278 141.5,302.5C 139.646,271.193 139.146,239.859 140,208.5C 141.169,198.158 142.335,187.824 143.5,177.5C 149.801,149.676 162.468,126.176 181.5,107C 210.465,87.4552 242.465,76.4552 277.5,74C 329.065,68.3892 376.732,79.2225 420.5,106.5C 421.612,111.724 424.445,115.724 429,118.5C 449.138,145.41 459.638,175.744 460.5,209.5 Z"/></g>
<g><path style="opacity:1" fill="#47382e" d="M 164.5,108.5 C 165.239,108.369 165.906,108.536 166.5,109C 143.02,136.753 130.52,168.919 129,205.5C 126.847,263.515 130.514,321.182 140,378.5C 144.418,382.247 148.084,386.58 151,391.5C 152.581,417.276 148.914,442.276 140,466.5C 125.021,491.783 103.021,507.449 74,513.5C 72.7387,513.241 71.7387,512.574 71,511.5C 70.6667,507.167 70.3333,502.833 70,498.5C 69.4387,497.978 68.772,497.645 68,497.5C 61.2622,500.45 55.0955,504.284 49.5,509C 47.8876,509.72 46.3876,509.554 45,508.5C 44.3333,505.167 44.3333,501.833 45,498.5C 50.5844,481.916 53.5844,464.916 54,447.5C 51.8064,444.983 49.8064,445.316 48,448.5C 46.9417,452.053 44.775,454.386 41.5,455.5C 42.9934,445.548 43.4934,435.548 43,425.5C 41.9505,424.483 40.7839,424.316 39.5,425C 36.6579,428.672 33.6579,432.172 30.5,435.5C 25.2292,415.522 20.0626,395.522 15,375.5C 14.3333,368.833 14.3333,362.167 15,355.5C 18.0489,346.401 21.3822,337.401 25,328.5C 26.4152,323.92 24.7485,321.586 20,321.5C 15.1378,323.197 10.3045,324.697 5.5,326C 3.92497,319.27 4.7583,312.77 8,306.5C 16.1454,290.703 25.4787,275.703 36,261.5C 40.8089,249.875 47.1422,239.208 55,229.5C 67.8993,213.596 81.8993,198.596 97,184.5C 110.017,160.133 126.85,138.633 147.5,120C 152.887,115.648 158.553,111.815 164.5,108.5 Z"/></g>
<g><path style="opacity:1" fill="#47382e" d="M 433.5,109.5 C 433.56,108.957 433.893,108.624 434.5,108.5C 445.148,115.08 454.982,122.746 464,131.5C 478.96,148.086 491.96,166.086 503,185.5C 523.238,204.392 541.238,225.059 557,247.5C 559.06,252.62 561.393,257.62 564,262.5C 571.247,272.66 578.247,282.994 585,293.5C 591.18,303.368 594.513,314.034 595,325.5C 594.439,326.022 593.772,326.355 593,326.5C 589.558,324.862 586.058,323.362 582.5,322C 575.333,319.833 572.833,322.333 575,329.5C 578.197,337.422 581.197,345.422 584,353.5C 585.846,363.214 585.512,372.88 583,382.5C 577.882,399.304 573.549,416.304 570,433.5C 569.282,434.451 568.449,434.617 567.5,434C 564.658,430.328 561.658,426.828 558.5,423.5C 557.914,423.709 557.414,424.043 557,424.5C 556.925,434.863 556.758,445.196 556.5,455.5C 554.056,451.882 551.39,448.382 548.5,445C 547.551,444.383 546.718,444.549 546,445.5C 545.751,464.009 548.751,482.009 555,499.5C 555.667,501.833 555.667,504.167 555,506.5C 553.582,508.363 551.749,508.863 549.5,508C 545.656,505.578 541.99,502.911 538.5,500C 535.688,498.451 532.688,497.618 529.5,497.5C 529.666,501.514 529.499,505.514 529,509.5C 528.242,511.91 526.575,512.91 524,512.5C 498.618,506.771 478.285,493.438 463,472.5C 451.58,447.411 446.913,421.078 449,393.5C 449.972,391.695 451.139,390.028 452.5,388.5C 458.319,386.171 461.152,381.838 461,375.5C 464.247,346.525 467.247,317.525 470,288.5C 471.489,261.516 471.823,234.516 471,207.5C 469.576,172.682 458.576,141.349 438,113.5C 436.629,111.959 435.129,110.625 433.5,109.5 Z"/></g>
<g><path style="opacity:1" fill="#4c3a2f" d="M 143.5,177.5 C 142.335,187.824 141.169,198.158 140,208.5C 139.146,239.859 139.646,271.193 141.5,302.5C 137.674,267.341 137.174,232.007 140,196.5C 140.539,189.916 141.706,183.583 143.5,177.5 Z"/></g>
<g><path style="opacity:1" fill="#7b6152" d="M 204.5,230.5 C 230.089,227.695 246.923,238.362 255,262.5C 257.129,285.421 247.629,301.255 226.5,310C 201.079,314.541 183.913,304.707 175,280.5C 171.757,255.97 181.591,239.304 204.5,230.5 Z"/></g>
<g><path style="opacity:1" fill="#7b6152" d="M 375.5,230.5 C 402.403,228.01 419.237,239.677 426,265.5C 427.099,287.077 417.599,301.91 397.5,310C 372.3,314.984 355.133,305.484 346,281.5C 342.174,256.513 352.008,239.513 375.5,230.5 Z"/></g>
<g><path style="opacity:1" fill="#060403" d="M 208.5,245.5 C 227.057,244.233 237.724,252.733 240.5,271C 236.48,291.336 224.48,299.003 204.5,294C 189.826,285.308 185.992,273.141 193,257.5C 197.184,252.14 202.351,248.14 208.5,245.5 Z"/></g>
<g><path style="opacity:1" fill="#070403" d="M 379.5,245.5 C 401.009,244.841 411.175,255.174 410,276.5C 404.532,292.149 393.699,298.316 377.5,295C 366.444,290.923 360.444,282.923 359.5,271C 360.811,258.2 367.477,249.7 379.5,245.5 Z"/></g>
<g><path style="opacity:1" fill="#241916" d="M 213.5,256.5 C 212.774,267.95 217.774,271.95 228.5,268.5C 228.853,277.713 224.353,283.379 215,285.5C 200.383,281.117 197.216,272.617 205.5,260C 208.071,258.546 210.738,257.38 213.5,256.5 Z"/></g>
<g><path style="opacity:1" fill="#f3f3f3" d="M 213.5,256.5 C 221.491,256.83 226.491,260.83 228.5,268.5C 217.774,271.95 212.774,267.95 213.5,256.5 Z"/></g>
<g><path style="opacity:1" fill="#241917" d="M 385.5,256.5 C 383.684,264.339 386.684,269.005 394.5,270.5C 396.3,270.098 397.967,269.431 399.5,268.5C 399.111,278.394 393.945,284.06 384,285.5C 370.452,280.189 367.952,271.689 376.5,260C 379.148,257.95 382.148,256.784 385.5,256.5 Z"/></g>
<g><path style="opacity:1" fill="#f3f3f3" d="M 385.5,256.5 C 392.926,257.258 397.593,261.258 399.5,268.5C 397.967,269.431 396.3,270.098 394.5,270.5C 386.684,269.005 383.684,264.339 385.5,256.5 Z"/></g>
<g><path style="opacity:1" fill="#47382d" d="M 460.5,209.5 C 461.167,219.494 461.5,229.661 461.5,240C 461.648,256.026 460.982,271.86 459.5,287.5C 460.285,261.508 460.619,235.508 460.5,209.5 Z"/></g>
<g><path style="opacity:1" fill="#7b6152" d="M 415.5,441.5 C 416.799,458.549 414.965,475.215 410,491.5C 401.469,508.698 387.636,516.531 368.5,515C 362.199,513.173 355.866,511.673 349.5,510.5C 338.598,503.37 327.598,496.203 316.5,489C 306.245,483.027 295.578,482.027 284.5,486C 271.906,494.124 259.239,501.958 246.5,509.5C 232.034,516.273 217.701,516.106 203.5,509C 194.283,502.083 188.449,492.916 186,481.5C 183.353,465.901 182.853,450.234 184.5,434.5C 191.691,387.791 216.025,352.957 257.5,330C 275.611,318.981 294.944,315.981 315.5,321C 333.133,327.315 349.467,335.982 364.5,347C 395.511,370.851 412.511,402.351 415.5,441.5 Z"/></g>
<g><path style="opacity:1" fill="#46372d" d="M 143.5,322.5 C 146.436,338.916 148.436,355.583 149.5,372.5C 146.913,356.613 144.913,339.946 143.5,322.5 Z"/></g>
<g><path style="opacity:1" fill="#45362c" d="M 457.5,311.5 C 455.517,332.68 453.184,353.68 450.5,374.5C 451.751,353.243 454.084,332.243 457.5,311.5 Z"/></g>
<g><path style="opacity:1" fill="#010101" d="M 292.5,366.5 C 308.699,365.698 324.032,368.865 338.5,376C 348.381,384.666 351.881,395.499 349,408.5C 341.056,427.768 326.89,439.935 306.5,445C 285.239,446.288 268.072,438.455 255,421.5C 248.584,409.436 247.918,397.103 253,384.5C 257.401,378.208 263.235,373.708 270.5,371C 277.88,369.073 285.214,367.573 292.5,366.5 Z"/></g>
<g><path style="opacity:1" fill="#574131" d="M 349.5,510.5 C 337.724,504.443 326.391,497.61 315.5,490C 306.881,484.469 297.881,483.135 288.5,486C 275.999,493.416 263.665,501.083 251.5,509C 249.866,509.494 248.199,509.66 246.5,509.5C 259.239,501.958 271.906,494.124 284.5,486C 295.578,482.027 306.245,483.027 316.5,489C 327.598,496.203 338.598,503.37 349.5,510.5 Z"/></g>
<g><path style="opacity:1" fill="#564030" d="M 296.5,494.5 C 301.567,494.689 306.234,496.189 310.5,499C 317.339,503.252 324.006,507.752 330.5,512.5C 320.667,512.833 310.833,513.167 301,513.5C 289.454,513.61 277.954,513.11 266.5,512C 275.968,504.983 285.968,499.15 296.5,494.5 Z"/></g>
</svg>
