<?xml version="1.0" encoding="UTF-8"?>
<!DOCTYPE svg PUBLIC "-//W3C//DTD SVG 1.1//EN" "http://www.w3.org/Graphics/SVG/1.1/DTD/svg11.dtd">
<svg xmlns="http://www.w3.org/2000/svg" version="1.1" width="600px" height="600px" style="shape-rendering:geometricPrecision; text-rendering:geometricPrecision; image-rendering:optimizeQuality; fill-rule:evenodd; clip-rule:evenodd" xmlns:xlink="http://www.w3.org/1999/xlink">
<g><path style="opacity:0.963" fill="#010101" d="M 292.5,68.5 C 326.367,68.3112 359.034,74.4779 390.5,87C 405.81,88.9405 420.81,92.2738 435.5,97C 463.465,108.631 483.965,128.131 497,155.5C 508.434,180.13 518.1,205.464 526,231.5C 535.58,249 545.913,266 557,282.5C 562.292,289.46 567.958,296.127 574,302.5C 579.927,313.59 576.761,320.757 564.5,324C 570.893,334.394 578.06,344.227 586,353.5C 589.687,361.244 587.854,367.41 580.5,372C 587.164,379.359 586.497,386.025 578.5,392C 575.312,393.383 572.146,393.549 569,392.5C 570.301,400.074 572.635,407.407 576,414.5C 580,423.167 584,431.833 588,440.5C 593.223,456.497 588.723,468.997 574.5,478C 550.985,492.089 525.652,501.089 498.5,505C 460.485,507.263 436.651,490.096 427,453.5C 425.174,468.308 420.174,481.975 412,494.5C 395.367,511.582 375.867,515.748 353.5,507C 338.206,499.355 323.54,490.688 309.5,481C 300.623,477.055 292.29,478.055 284.5,484C 272.498,492.672 259.832,500.338 246.5,507C 224.478,515.595 204.978,511.762 188,495.5C 179.035,482.606 174.035,468.272 173,452.5C 161.865,492.914 135.365,510.081 93.5,504C 71.6973,499.844 51.0306,492.51 31.5,482C 25.4325,478.601 19.9325,474.435 15,469.5C 7.77046,459.784 6.77046,449.451 12,438.5C 19.478,423.727 25.978,408.56 31.5,393C 21.8015,394.487 15.8015,390.487 13.5,381C 14.2876,377.537 15.9543,374.537 18.5,372C 10.5888,366.862 9.08882,360.362 14,352.5C 21.4129,343.588 28.2462,334.254 34.5,324.5C 29.9616,322.97 26.1282,320.303 23,316.5C 22.654,314.782 22.154,313.115 21.5,311.5C 22.154,309.885 22.654,308.218 23,306.5C 30.0466,298.455 36.7133,290.122 43,281.5C 51.4168,267.664 60.0835,253.998 69,240.5C 77.9405,215.678 87.2738,191.011 97,166.5C 116.857,117.999 153.024,91.8325 205.5,88C 233.623,76.8821 262.623,70.3821 292.5,68.5 Z"/></g>
<g><path style="opacity:1" fill="#2f2725" d="M 287.5,79.5 C 323.124,78.5483 357.458,84.715 390.5,98C 409.745,99.7276 428.079,104.728 445.5,113C 461.735,123.236 474.569,136.736 484,153.5C 487.333,160.167 490.667,166.833 494,173.5C 502.803,197.578 511.803,221.578 521,245.5C 529.916,258.998 538.583,272.664 547,286.5C 552.578,294.749 558.912,302.416 566,309.5C 566.483,310.448 566.649,311.448 566.5,312.5C 560.097,310.864 553.93,308.531 548,305.5C 546.5,305.667 545.667,306.5 545.5,308C 548.808,317.782 553.308,326.949 559,335.5C 565.167,343.833 571.333,352.167 577.5,360.5C 575.534,361.372 573.534,361.205 571.5,360C 564.998,356.25 558.665,352.25 552.5,348C 550.956,346.813 549.289,346.48 547.5,347C 554.931,359.678 563.931,371.178 574.5,381.5C 573.167,381.833 571.833,382.167 570.5,382.5C 565.206,381.284 559.872,380.284 554.5,379.5C 555.869,389.113 558.369,398.446 562,407.5C 567.392,420.617 573.058,433.617 579,446.5C 580.068,451.768 579.401,456.768 577,461.5C 573.419,465.752 569.252,469.252 564.5,472C 541.7,485.156 517.2,492.656 491,494.5C 467.439,495.063 450.772,484.73 441,463.5C 436.478,448.367 432.811,433.033 430,417.5C 428.846,415.043 427.512,415.043 426,417.5C 421.915,395.328 413.915,374.661 402,355.5C 397.542,348.708 392.042,342.875 385.5,338C 368.998,327.917 352.664,317.583 336.5,307C 332.298,303.133 328.465,298.967 325,294.5C 323.284,273.779 312.118,264.279 291.5,266C 283.505,267.742 277.672,272.242 274,279.5C 272.65,285.289 270.983,290.956 269,296.5C 265.535,300.967 261.702,305.133 257.5,309C 244.508,318.165 231.174,326.831 217.5,335C 203.887,345.038 193.72,357.871 187,373.5C 180.644,387.925 176.311,402.925 174,418.5C 172.032,414.777 170.365,414.777 169,418.5C 166.927,433.458 163.594,448.124 159,462.5C 148.837,484.638 131.504,495.304 107,494.5C 80.825,492.109 56.325,484.276 33.5,471C 27.2505,467.752 22.7505,462.919 20,456.5C 19.3333,453.5 19.3333,450.5 20,447.5C 30.7769,425.667 39.2769,403 45.5,379.5C 39.4681,380.239 33.4681,381.239 27.5,382.5C 26.5,382.167 25.5,381.833 24.5,381.5C 35.2174,371.29 44.2174,359.79 51.5,347C 49.7111,346.48 48.0444,346.813 46.5,348C 39.1524,353.348 31.3191,357.848 23,361.5C 22.5,361.167 22,360.833 21.5,360.5C 33.1027,346.717 42.9361,331.717 51,315.5C 52.3524,312.28 53.1857,308.947 53.5,305.5C 46.5738,308.031 39.5738,310.364 32.5,312.5C 48.6092,291.858 63.4426,270.192 77,247.5C 84.9826,229.221 91.9826,210.554 98,191.5C 105.137,170.888 115.137,151.888 128,134.5C 140.101,120.534 154.934,110.7 172.5,105C 185.345,101.581 198.345,98.9147 211.5,97C 236.105,87.2506 261.438,81.4172 287.5,79.5 Z"/></g>
<g><path style="opacity:1" fill="#c08b43" d="M 195.5,231.5 C 219.421,229.944 234.587,240.611 241,263.5C 242.8,287.746 231.966,302.913 208.5,309C 184.243,310.415 169.41,299.249 164,275.5C 163.073,252.601 173.573,237.934 195.5,231.5 Z"/></g>
<g><path style="opacity:1" fill="#bf8b43" d="M 391.5,231.5 C 423.137,231.303 438.304,246.969 437,278.5C 429.18,301.976 413.014,311.809 388.5,308C 365.284,298.735 356.451,281.902 362,257.5C 367.667,243.994 377.5,235.327 391.5,231.5 Z"/></g>
<g><path style="opacity:1" fill="#251a16" d="M 199.5,246.5 C 220.489,247.801 228.989,258.801 225,279.5C 217.841,292.891 207.007,297.057 192.5,292C 182.968,286.948 178.302,278.948 178.5,268C 181.065,256.27 188.065,249.103 199.5,246.5 Z"/></g>
<g><path style="opacity:1" fill="#251a16" d="M 394.5,246.5 C 414.704,246.533 423.87,256.533 422,276.5C 418.551,287.741 410.885,293.741 399,294.5C 380.575,291.67 372.908,281.003 376,262.5C 379.645,254.007 385.811,248.674 394.5,246.5 Z"/></g>
<g><path style="opacity:1" fill="#f5f5f5" d="M 206.5,252.5 C 213.609,251.112 217.943,253.945 219.5,261C 217.867,267.986 213.533,270.652 206.5,269C 201.931,266.459 200.431,262.625 202,257.5C 203.025,255.313 204.525,253.646 206.5,252.5 Z"/></g>
<g><path style="opacity:1" fill="#f5f5f5" d="M 403.5,252.5 C 413.158,250.993 417.325,254.993 416,264.5C 413.058,269.153 408.891,270.653 403.5,269C 396.899,263.504 396.899,258.004 403.5,252.5 Z"/></g>
<g><path style="opacity:1" fill="#c38d44" d="M 292.5,276.5 C 298.275,275.775 303.608,276.941 308.5,280C 310.041,281.579 311.208,283.413 312,285.5C 312.501,293.339 315.168,300.339 320,306.5C 324.575,311.746 329.742,316.246 335.5,320C 350.431,328.603 365.098,337.603 379.5,347C 398.533,365.899 410.033,388.732 414,415.5C 419.091,438.991 416.758,461.657 407,483.5C 394.357,500.037 378.19,504.87 358.5,498C 343.871,490.687 329.871,482.354 316.5,473C 306.816,466.737 296.816,466.07 286.5,471C 273,479.584 259.333,487.918 245.5,496C 224.855,505.961 207.355,502.128 193,484.5C 187.831,475.161 184.831,465.161 184,454.5C 180.929,419.115 189.262,386.782 209,357.5C 212.5,354 216,350.5 219.5,347C 231.232,338.939 243.232,331.272 255.5,324C 265.667,317.833 273.833,309.667 280,299.5C 281.505,293.422 283.172,287.422 285,281.5C 287.479,279.686 289.979,278.019 292.5,276.5 Z"/></g>
<g><path style="opacity:1" fill="#070504" d="M 283.5,373.5 C 295.886,373.106 308.22,373.606 320.5,375C 346.391,381.28 355.224,397.113 347,422.5C 334.335,443.25 315.835,453.083 291.5,452C 278.009,448.006 266.509,440.839 257,430.5C 241.047,399.746 249.881,380.746 283.5,373.5 Z"/></g>
<g><path style="opacity:1" fill="#362e2b" d="M 289.5,383.5 C 301.349,382.904 313.016,384.071 324.5,387C 337.76,392.354 342.26,401.854 338,415.5C 331.13,428.36 320.63,436.86 306.5,441C 301.833,441.667 297.167,441.667 292.5,441C 280.899,437.613 271.399,431.113 264,421.5C 256.131,407.474 258.964,396.307 272.5,388C 278.175,386 283.842,384.5 289.5,383.5 Z"/></g>
</svg>
