<?xml version="1.0" encoding="UTF-8"?>
<!DOCTYPE svg PUBLIC "-//W3C//DTD SVG 1.1//EN" "http://www.w3.org/Graphics/SVG/1.1/DTD/svg11.dtd">
<svg xmlns="http://www.w3.org/2000/svg" version="1.1" width="600px" height="600px" style="shape-rendering:geometricPrecision; text-rendering:geometricPrecision; image-rendering:optimizeQuality; fill-rule:evenodd; clip-rule:evenodd" xmlns:xlink="http://www.w3.org/1999/xlink">
<g><path style="opacity:0.956" fill="#010000" d="M 599.5,266.5 C 599.5,281.167 599.5,295.833 599.5,310.5C 598.167,315.167 598.167,319.833 599.5,324.5C 599.5,353.167 599.5,381.833 599.5,410.5C 597.864,411.749 596.697,413.416 596,415.5C 595.389,423.512 595.556,431.512 596.5,439.5C 596.327,443.541 595.827,447.541 595,451.5C 590.667,462.167 586.333,472.833 582,483.5C 580.107,492.688 580.274,501.855 582.5,511C 580.904,523.518 574.571,532.851 563.5,539C 525.954,560.746 492.454,555.579 463,523.5C 458.605,517.434 454.605,511.1 451,504.5C 446.436,511.026 440.269,514.86 432.5,516C 430.5,520 427.5,523 423.5,525C 417.793,527.568 411.96,529.735 406,531.5C 401.416,530.64 397.416,528.64 394,525.5C 383.729,535.556 371.562,542.389 357.5,546C 319.18,555.983 280.847,555.983 242.5,546C 228.762,541.883 216.595,535.05 206,525.5C 201.316,530.378 195.816,531.878 189.5,530C 183.933,528.217 178.599,525.883 173.5,523C 171.259,521.261 169.592,519.094 168.5,516.5C 160.598,514.606 153.931,510.606 148.5,504.5C 133.488,533.598 109.654,549.931 77,553.5C 58.2585,550.593 41.4252,543.427 26.5,532C 20.4905,526.313 17.1572,519.313 16.5,511C 18.2398,502.904 18.7398,494.737 18,486.5C 13.888,474.277 9.22131,462.277 4,450.5C 3.17636,447.215 2.67636,443.882 2.5,440.5C 3.49934,432.181 3.666,423.848 3,415.5C 2.4005,413.09 1.23383,411.09 -0.5,409.5C -0.5,381.5 -0.5,353.5 -0.5,325.5C 0.833333,320.167 0.833333,314.833 -0.5,309.5C -0.5,295.5 -0.5,281.5 -0.5,267.5C 7.02154,255.13 15.1882,243.13 24,231.5C 29.3929,219.047 35.0596,206.714 41,194.5C 44.2762,188.892 47.9429,183.558 52,178.5C 62,166.5 72,154.5 82,142.5C 103.556,119.269 128.723,101.102 157.5,88C 167.756,85.6156 178.089,83.6156 188.5,82C 196.605,78.8902 204.938,76.5568 213.5,75C 216.581,66.6139 222.581,63.2806 231.5,65C 237.778,65.7997 243.944,66.9664 250,68.5C 250.273,63.7709 250.939,59.1042 252,54.5C 256.057,48.442 261.557,46.6087 268.5,49C 271.965,51.4626 275.131,54.2959 278,57.5C 278.43,51.2449 280.597,45.7449 284.5,41C 292.724,37.2656 299.558,39.0989 305,46.5C 308.507,51.5095 311.507,56.8428 314,62.5C 318.669,53.4981 324.503,45.3314 331.5,38C 343.686,33.2616 350.352,37.4283 351.5,50.5C 350.542,56.5686 349.708,62.5686 349,68.5C 357.104,66.6759 365.271,65.0093 373.5,63.5C 375.889,64.1805 378.222,65.0138 380.5,66C 383.099,68.7459 385.433,71.5793 387.5,74.5C 395.724,76.297 403.724,78.797 411.5,82C 421.554,83.7442 431.554,85.7442 441.5,88C 470.616,101.44 496.116,119.94 518,143.5C 529.378,156.542 540.378,169.875 551,183.5C 560.367,197.904 568.034,213.237 574,229.5C 582.523,241.899 591.023,254.233 599.5,266.5 Z"/></g>
<g><path style="opacity:1" fill="#4b4848" d="M 408.5,92.5 C 431.164,106.845 452.83,122.679 473.5,140C 481.737,147.567 489.237,155.733 496,164.5C 497.968,172.525 497.968,180.525 496,188.5C 494.178,190.045 492.011,190.712 489.5,190.5C 483.429,189.123 477.429,189.289 471.5,191C 470.233,192.796 470.233,194.629 471.5,196.5C 478.359,201.86 485.359,207.026 492.5,212C 497.415,216.244 501.581,221.077 505,226.5C 508.458,244.733 509.291,263.067 507.5,281.5C 505.926,282.631 504.259,282.798 502.5,282C 494.102,277.836 486.435,273.336 479.5,268.5C 489.332,283.188 498.166,298.521 506,314.5C 506.543,317.868 506.376,321.201 505.5,324.5C 485.167,299.833 464.833,275.167 444.5,250.5C 431.332,222.838 409.998,204.671 380.5,196C 372.881,194.571 365.215,194.238 357.5,195C 344.481,200.4 340.648,209.566 346,222.5C 346.903,223.701 348.069,224.535 349.5,225C 355.771,225.524 361.771,226.691 367.5,228.5C 349.08,238.265 344.58,252.598 354,271.5C 364.014,283.452 376.18,286.452 390.5,280.5C 392.017,280.511 393.184,281.177 394,282.5C 423.037,320.598 452.537,358.265 482.5,395.5C 484.709,401.589 487.209,407.589 490,413.5C 490.491,422.044 488.491,430.044 484,437.5C 475.746,450.915 465.579,462.582 453.5,472.5C 453.167,472.5 452.833,472.5 452.5,472.5C 450.019,439.971 441.519,408.971 427,379.5C 403.695,338.246 368.528,313.913 321.5,306.5C 298.877,278.541 275.877,250.875 252.5,223.5C 258.87,209.731 254.87,200.231 240.5,195C 224.706,193.281 210.04,196.615 196.5,205C 178.565,215.601 164.732,230.101 155,248.5C 154.333,251.167 154.333,253.833 155,256.5C 155.748,258.751 157.248,260.084 159.5,260.5C 160.609,261.29 161.942,261.79 163.5,262C 183.673,283.006 204.007,303.84 224.5,324.5C 189.348,348.749 166.515,381.749 156,423.5C 152.142,440.161 149.309,456.828 147.5,473.5C 147.167,473.5 146.833,473.5 146.5,473.5C 129.412,460.347 116.912,443.68 109,423.5C 108.333,420.167 108.333,416.833 109,413.5C 116.924,396.587 121.424,378.921 122.5,360.5C 116.686,365.146 111.02,369.979 105.5,375C 104.207,375.49 102.873,375.657 101.5,375.5C 98.6294,366.724 97.1294,357.724 97,348.5C 100.048,339.402 104.881,331.402 111.5,324.5C 107.731,323.573 104.064,324.073 100.5,326C 97.1658,327.212 94.6658,326.379 93,323.5C 92.3333,320.5 92.3333,317.5 93,314.5C 100.742,299.342 109.242,284.676 118.5,270.5C 118.333,270.167 118.167,269.833 118,269.5C 111.144,275.513 103.311,279.847 94.5,282.5C 93.5581,282.392 92.7247,282.059 92,281.5C 91.2103,266.141 91.5436,250.808 93,235.5C 93.3303,228.842 95.8303,223.176 100.5,218.5C 107.787,211.376 115.787,205.21 124.5,200C 126.557,198.281 128.224,196.281 129.5,194C 128.846,192.013 127.513,190.68 125.5,190C 118.167,189.667 110.833,189.333 103.5,189C 99.6383,186.08 98.1383,182.247 99,177.5C 103.266,165.17 110.433,154.67 120.5,146C 143.472,125.864 167.806,107.698 193.5,91.5C 200.835,88.2489 208.501,86.0823 216.5,85C 224.205,85.0051 231.871,85.3385 239.5,86C 234.277,83.4427 229.61,80.1094 225.5,76C 232.853,76.0964 240.186,76.763 247.5,78C 251.78,79.9466 255.113,82.9466 257.5,87C 262.321,87.6753 264.321,85.5086 263.5,80.5C 262.362,73.2048 261.696,65.8715 261.5,58.5C 264.614,59.0913 267.114,60.758 269,63.5C 274.505,71.8399 279.505,80.5065 284,89.5C 286.084,92.033 288.084,92.033 290,89.5C 290.138,76.1278 290.304,62.7945 290.5,49.5C 291.552,49.3505 292.552,49.5172 293.5,50C 302.568,62.3011 309.401,75.8011 314,90.5C 318.803,78.8944 324.137,67.5611 330,56.5C 332.139,53.0607 334.639,49.894 337.5,47C 338.448,46.5172 339.448,46.3505 340.5,46.5C 339.169,57.8233 337.836,69.1566 336.5,80.5C 336.32,83.5795 336.986,86.4129 338.5,89C 339.167,89.6667 339.833,89.6667 340.5,89C 343.549,84.2842 347.549,80.6176 352.5,78C 360.097,76.2478 367.763,75.2478 375.5,75C 371.033,79.3996 366.033,83.0662 360.5,86C 377.257,82.465 393.257,84.6317 408.5,92.5 Z"/></g>
<g><path style="opacity:1" fill="#3d3938" d="M 193.5,91.5 C 167.806,107.698 143.472,125.864 120.5,146C 110.433,154.67 103.266,165.17 99,177.5C 98.1383,182.247 99.6383,186.08 103.5,189C 110.833,189.333 118.167,189.667 125.5,190C 127.513,190.68 128.846,192.013 129.5,194C 128.224,196.281 126.557,198.281 124.5,200C 115.787,205.21 107.787,211.376 100.5,218.5C 95.8303,223.176 93.3303,228.842 93,235.5C 91.5436,250.808 91.2103,266.141 92,281.5C 92.7247,282.059 93.5581,282.392 94.5,282.5C 103.311,279.847 111.144,275.513 118,269.5C 118.167,269.833 118.333,270.167 118.5,270.5C 109.242,284.676 100.742,299.342 93,314.5C 92.3333,317.5 92.3333,320.5 93,323.5C 94.6658,326.379 97.1658,327.212 100.5,326C 104.064,324.073 107.731,323.573 111.5,324.5C 104.881,331.402 100.048,339.402 97,348.5C 97.1294,357.724 98.6294,366.724 101.5,375.5C 102.873,375.657 104.207,375.49 105.5,375C 111.02,369.979 116.686,365.146 122.5,360.5C 121.424,378.921 116.924,396.587 109,413.5C 108.333,416.833 108.333,420.167 109,423.5C 116.912,443.68 129.412,460.347 146.5,473.5C 141.402,508.106 122.069,530.606 88.5,541C 67.0206,543.063 48.1872,536.896 32,522.5C 30.4138,520.33 29.0804,517.996 28,515.5C 27.8484,508.676 28.0151,501.842 28.5,495C 28.5056,489.778 28.0056,484.611 27,479.5C 23.217,469.267 18.8837,459.267 14,449.5C 13.7468,438.159 13.7468,426.825 14,415.5C 11.7918,408.752 8.79177,402.419 5,396.5C 4.13383,369.422 6.3005,342.589 11.5,316C 11.4182,312.765 10.9182,309.598 10,306.5C 2.48234,293.658 2.81567,280.991 11,268.5C 17.6107,258.223 24.6107,248.223 32,238.5C 38.288,224.294 44.9547,210.294 52,196.5C 70.9475,169.808 92.7808,145.641 117.5,124C 131.452,113.409 146.452,104.409 162.5,97C 172.871,95.3046 183.205,93.4712 193.5,91.5 Z"/></g>
<g><path style="opacity:1" fill="#3d3938" d="M 408.5,92.5 C 417.502,93.8579 426.502,95.3579 435.5,97C 464.431,109.889 489.598,128.055 511,151.5C 524.428,166.925 537.095,182.925 549,199.5C 554.94,211.714 560.607,224.047 566,236.5C 575.663,249.151 584.329,262.485 592,276.5C 594.318,282.307 594.984,288.307 594,294.5C 590.616,301.316 588.45,308.482 587.5,316C 592.622,342.586 594.789,369.42 594,396.5C 590.743,402.681 587.743,409.015 585,415.5C 585.14,426.829 585.14,438.162 585,449.5C 581.258,458.233 577.425,466.899 573.5,475.5C 571.983,475.489 570.816,474.823 570,473.5C 539.374,437.205 508.374,401.205 477,365.5C 476.617,366.056 476.117,366.389 475.5,366.5C 475.5,364.833 475.5,363.167 475.5,361.5C 477.783,361.608 479.783,362.441 481.5,364C 485.2,368.035 489.2,371.702 493.5,375C 494.793,375.49 496.127,375.657 497.5,375.5C 500.556,366.055 501.723,356.388 501,346.5C 497.767,338.364 493.267,331.031 487.5,324.5C 488.167,324.167 488.833,323.833 489.5,323.5C 493.259,324.809 497.093,325.809 501,326.5C 503.008,326.693 504.508,326.026 505.5,324.5C 506.376,321.201 506.543,317.868 506,314.5C 498.166,298.521 489.332,283.188 479.5,268.5C 486.435,273.336 494.102,277.836 502.5,282C 504.259,282.798 505.926,282.631 507.5,281.5C 509.291,263.067 508.458,244.733 505,226.5C 501.581,221.077 497.415,216.244 492.5,212C 485.359,207.026 478.359,201.86 471.5,196.5C 470.233,194.629 470.233,192.796 471.5,191C 477.429,189.289 483.429,189.123 489.5,190.5C 492.011,190.712 494.178,190.045 496,188.5C 497.968,180.525 497.968,172.525 496,164.5C 489.237,155.733 481.737,147.567 473.5,140C 452.83,122.679 431.164,106.845 408.5,92.5 Z"/></g>
<g><path style="opacity:1" fill="#3e3a39" d="M 252.5,223.5 C 247.389,224.763 242.389,226.097 237.5,227.5C 221.844,227.692 207.51,232.025 194.5,240.5C 184.496,244.885 175.163,251.052 166.5,259C 164.323,260.202 161.989,260.702 159.5,260.5C 157.248,260.084 155.748,258.751 155,256.5C 154.333,253.833 154.333,251.167 155,248.5C 164.732,230.101 178.565,215.601 196.5,205C 210.04,196.615 224.706,193.281 240.5,195C 254.87,200.231 258.87,209.731 252.5,223.5 Z"/></g>
<g><path style="opacity:1" fill="#3e3a39" d="M 444.5,250.5 C 445.434,257.718 442.434,261.218 435.5,261C 424.752,251.744 413.085,243.91 400.5,237.5C 390.11,232.259 379.11,229.259 367.5,228.5C 361.771,226.691 355.771,225.524 349.5,225C 348.069,224.535 346.903,223.701 346,222.5C 340.648,209.566 344.481,200.4 357.5,195C 365.215,194.238 372.881,194.571 380.5,196C 409.998,204.671 431.332,222.838 444.5,250.5 Z"/></g>
<g><path style="opacity:1" fill="#454141" d="M 252.5,223.5 C 275.877,250.875 298.877,278.541 321.5,306.5C 287.028,301.73 254.695,307.73 224.5,324.5C 204.007,303.84 183.673,283.006 163.5,262C 161.942,261.79 160.609,261.29 159.5,260.5C 161.989,260.702 164.323,260.202 166.5,259C 175.163,251.052 184.496,244.885 194.5,240.5C 187.301,262.267 194.301,277.434 215.5,286C 234.932,288.213 247.432,280.046 253,261.5C 255.665,246.503 250.499,235.169 237.5,227.5C 242.389,226.097 247.389,224.763 252.5,223.5 Z"/></g>
<g><path style="opacity:1" fill="#281f1d" d="M 237.5,227.5 C 250.499,235.169 255.665,246.503 253,261.5C 247.432,280.046 234.932,288.213 215.5,286C 194.301,277.434 187.301,262.267 194.5,240.5C 207.51,232.025 221.844,227.692 237.5,227.5 Z"/></g>
<g><path style="opacity:1" fill="#29201e" d="M 367.5,228.5 C 379.11,229.259 390.11,232.259 400.5,237.5C 406.985,248.653 407.152,259.986 401,271.5C 397.874,275.141 394.374,278.141 390.5,280.5C 376.18,286.452 364.014,283.452 354,271.5C 344.58,252.598 349.08,238.265 367.5,228.5 Z"/></g>
<g><path style="opacity:1" fill="#e0dfdf" d="M 223.5,239.5 C 232.158,238.327 235.992,241.994 235,250.5C 232.72,254.768 229.22,256.268 224.5,255C 219.931,252.459 218.431,248.625 220,243.5C 221.376,242.295 222.542,240.962 223.5,239.5 Z"/></g>
<g><path style="opacity:1" fill="#dfdede" d="M 378.5,239.5 C 385.622,237.885 389.955,240.552 391.5,247.5C 388.101,256.255 382.935,257.588 376,251.5C 373.696,246.855 374.529,242.855 378.5,239.5 Z"/></g>
<g><path style="opacity:1" fill="#454141" d="M 400.5,237.5 C 413.085,243.91 424.752,251.744 435.5,261C 442.434,261.218 445.434,257.718 444.5,250.5C 464.833,275.167 485.167,299.833 505.5,324.5C 504.508,326.026 503.008,326.693 501,326.5C 497.093,325.809 493.259,324.809 489.5,323.5C 488.833,323.833 488.167,324.167 487.5,324.5C 493.267,331.031 497.767,338.364 501,346.5C 501.723,356.388 500.556,366.055 497.5,375.5C 496.127,375.657 494.793,375.49 493.5,375C 489.2,371.702 485.2,368.035 481.5,364C 479.783,362.441 477.783,361.608 475.5,361.5C 475.5,363.167 475.5,364.833 475.5,366.5C 477.363,376.285 479.696,385.952 482.5,395.5C 452.537,358.265 423.037,320.598 394,282.5C 393.184,281.177 392.017,280.511 390.5,280.5C 394.374,278.141 397.874,275.141 401,271.5C 407.152,259.986 406.985,248.653 400.5,237.5 Z"/></g>
<g><path style="opacity:1" fill="#3d3938" d="M 321.5,306.5 C 368.528,313.913 403.695,338.246 427,379.5C 441.519,408.971 450.019,439.971 452.5,472.5C 452.057,486.72 445.89,497.72 434,505.5C 432.305,497.926 430.971,490.259 430,482.5C 429.804,480.714 428.971,479.381 427.5,478.5C 425.645,488.063 424.479,497.73 424,507.5C 423.333,509.5 422.667,511.5 422,513.5C 416.523,516.878 410.69,519.045 404.5,520C 400.951,516.787 397.784,513.287 395,509.5C 386.627,520.111 376.127,527.945 363.5,533C 321.161,546.998 278.828,546.998 236.5,533C 224.209,527.451 213.709,519.618 205,509.5C 202.295,513.06 199.462,516.56 196.5,520C 190.879,519.538 185.546,517.871 180.5,515C 178.513,513.681 177.346,511.848 177,509.5C 175.668,499.19 174.502,488.856 173.5,478.5C 172.522,478.977 171.689,479.643 171,480.5C 169.766,489.008 168.099,497.342 166,505.5C 154.934,497.705 148.767,487.039 147.5,473.5C 149.309,456.828 152.142,440.161 156,423.5C 166.515,381.749 189.348,348.749 224.5,324.5C 254.695,307.73 287.028,301.73 321.5,306.5 Z"/></g>
<g><path style="opacity:1" fill="#3a3534" d="M 573.5,475.5 C 572.137,478.662 571.303,481.996 571,485.5C 570.815,495.839 570.815,506.173 571,516.5C 564.949,525.54 556.783,532.04 546.5,536C 538.049,539.113 529.382,541.279 520.5,542.5C 490.558,538.437 469.725,522.437 458,494.5C 455.317,487.403 453.817,480.07 453.5,472.5C 465.579,462.582 475.746,450.915 484,437.5C 488.491,430.044 490.491,422.044 490,413.5C 487.209,407.589 484.709,401.589 482.5,395.5C 479.696,385.952 477.363,376.285 475.5,366.5C 476.117,366.389 476.617,366.056 477,365.5C 508.374,401.205 539.374,437.205 570,473.5C 570.816,474.823 571.983,475.489 573.5,475.5 Z"/></g>
<g><path style="opacity:1" fill="#29211f" d="M 286.5,385.5 C 301.123,384.49 315.457,385.99 329.5,390C 344.784,396.404 349.95,407.571 345,423.5C 333.037,443.065 315.537,451.898 292.5,450C 275.842,446.932 263.342,438.098 255,423.5C 250.139,410.095 253.639,399.595 265.5,392C 272.46,389.255 279.46,387.088 286.5,385.5 Z"/></g>
</svg>
