<?xml version="1.0" encoding="UTF-8"?>
<!DOCTYPE svg PUBLIC "-//W3C//DTD SVG 1.1//EN" "http://www.w3.org/Graphics/SVG/1.1/DTD/svg11.dtd">
<svg xmlns="http://www.w3.org/2000/svg" version="1.1" width="600px" height="600px" style="shape-rendering:geometricPrecision; text-rendering:geometricPrecision; image-rendering:optimizeQuality; fill-rule:evenodd; clip-rule:evenodd" xmlns:xlink="http://www.w3.org/1999/xlink">
<g><path style="opacity:0.955" fill="#020202" d="M 163.5,-0.5 C 177.833,-0.5 192.167,-0.5 206.5,-0.5C 213.685,4.49573 219.518,10.8291 224,18.5C 249.064,13.7514 274.397,11.7514 300,12.5C 325.599,11.8001 350.932,13.8001 376,18.5C 380.482,10.8291 386.315,4.49573 393.5,-0.5C 407.833,-0.5 422.167,-0.5 436.5,-0.5C 468.107,11.206 499.773,23.0394 531.5,35C 545.603,40.5468 558.603,47.8801 570.5,57C 581.677,68.1854 586.177,81.6854 584,97.5C 581.977,109.214 577.977,120.214 572,130.5C 560,147.833 548,165.167 536,182.5C 527.576,197.347 520.243,212.68 514,228.5C 506.067,235.926 497.9,236.26 489.5,229.5C 487.144,226.978 484.977,224.312 483,221.5C 481.359,247.154 480.359,272.821 480,298.5C 497.297,317.361 506.63,339.694 508,365.5C 511.335,405.489 503.001,442.823 483,477.5C 479.292,482.179 474.625,483.845 469,482.5C 467.18,497.141 460.846,509.474 450,519.5C 447.935,534.112 443.268,547.779 436,560.5C 432.724,564.555 428.557,567.222 423.5,568.5C 422.361,571.947 420.361,574.781 417.5,577C 411.883,580.642 405.883,583.475 399.5,585.5C 392.449,584.091 388.616,579.757 388,572.5C 386.341,579.006 382.841,584.173 377.5,588C 371.992,589.915 367.159,588.749 363,584.5C 354.316,589.921 345.482,594.921 336.5,599.5C 311.833,599.5 287.167,599.5 262.5,599.5C 253.401,594.781 244.401,589.781 235.5,584.5C 229.588,590.649 223.421,590.982 217,585.5C 215,582.167 213,578.833 211,575.5C 208.596,584.156 203.096,586.989 194.5,584C 186.208,581.374 180.208,576.207 176.5,568.5C 168.328,565.832 162.495,560.499 159,552.5C 154.756,542.191 151.756,531.524 150,520.5C 139.276,510.385 132.776,498.051 130.5,483.5C 125.199,483.901 120.699,482.234 117,478.5C 91.2622,434.67 84.2622,388.003 96,338.5C 100.755,322.315 109.089,308.315 121,296.5C 120.753,270.813 119.753,245.147 118,219.5C 114.852,224.98 110.685,229.48 105.5,233C 98.1143,235.362 91.6143,233.862 86,228.5C 77.0214,205.54 65.688,183.874 52,163.5C 40.0388,149.86 30.0388,134.86 22,118.5C 7.49425,84.6661 16.6609,59.8327 49.5,44C 62.1694,37.5554 75.1694,31.8887 88.5,27C 113.714,18.0989 138.714,8.93219 163.5,-0.5 Z"/></g>
<g><path style="opacity:1" fill="#534a46" d="M 219.5,29.5 C 212.061,34.9602 204.061,39.7936 195.5,44C 172.566,63.33 155.066,86.83 143,114.5C 136.833,128.505 131.499,142.839 127,157.5C 126.5,163.825 126.334,170.158 126.5,176.5C 125.676,172.688 125.176,168.688 125,164.5C 120.798,179.64 116.131,194.64 111,209.5C 109.254,213.327 107.254,216.993 105,220.5C 101.531,223.916 97.8644,224.25 94,221.5C 81.6186,189.147 64.2853,159.813 42,133.5C 32.5617,119.954 27.0617,104.954 25.5,88.5C 25.9734,78.5656 29.9734,70.399 37.5,64C 48.1872,56.6528 59.5206,50.3195 71.5,45C 107.346,31.2734 143.346,17.94 179.5,5C 197.591,3.56447 209.924,11.3978 216.5,28.5C 217.325,29.3857 218.325,29.719 219.5,29.5 Z"/></g>
<g><path style="opacity:1" fill="#534a46" d="M 473.5,179.5 C 473.666,172.492 473.5,165.492 473,158.5C 462.517,118.351 443.35,83.1839 415.5,53C 411.833,50 408.167,47 404.5,44C 395.896,39.8782 387.896,35.0448 380.5,29.5C 381.675,29.719 382.675,29.3857 383.5,28.5C 390.076,11.3978 402.409,3.56447 420.5,5C 457.376,18.0704 494.043,31.737 530.5,46C 544.6,51.4567 557.1,59.29 568,69.5C 575.884,82.7138 576.55,96.3804 570,110.5C 561.585,128.337 550.918,144.671 538,159.5C 525.098,179.807 513.931,200.974 504.5,223C 499.186,224.26 495.353,222.426 493,217.5C 485.469,200.715 479.469,183.382 475,165.5C 474.826,170.351 474.326,175.018 473.5,179.5 Z"/></g>
<g><path style="opacity:1" fill="#dad1c0" d="M 380.5,29.5 C 387.896,35.0448 395.896,39.8782 404.5,44C 408.167,47 411.833,50 415.5,53C 443.35,83.1839 462.517,118.351 473,158.5C 473.5,165.492 473.666,172.492 473.5,179.5C 473.421,180.93 473.754,182.264 474.5,183.5C 471.066,223.119 469.399,262.785 469.5,302.5C 458.726,293.608 447.392,285.441 435.5,278C 422.455,270.974 409.122,264.807 395.5,259.5C 392.914,248.165 389.248,237.165 384.5,226.5C 386.843,225.275 388.677,225.941 390,228.5C 391.393,222.113 390.226,216.28 386.5,211C 387.737,210.768 388.737,210.268 389.5,209.5C 404.066,206.099 412.066,196.932 413.5,182C 412.963,176.596 411.63,171.43 409.5,166.5C 413.22,166.564 416.886,167.064 420.5,168C 428.749,171.876 437.249,175.042 446,177.5C 449.311,177.187 450.811,175.353 450.5,172C 450.385,169.268 449.552,166.768 448,164.5C 421.369,138.068 389.536,127.235 352.5,132C 348.564,133.547 345.064,135.713 342,138.5C 334.158,135.661 326.991,132.994 320.5,130.5C 320.833,128.5 321.167,126.5 321.5,124.5C 316.575,126.253 311.742,128.253 307,130.5C 302.507,127.518 297.674,125.185 292.5,123.5C 292.682,125.675 293.349,127.675 294.5,129.5C 294.167,130.167 293.833,130.833 293.5,131.5C 289.063,128.116 284.063,126.116 278.5,125.5C 275.813,125.538 275.146,126.538 276.5,128.5C 275.271,129.281 273.938,129.781 272.5,130C 273.167,130.667 273.833,131.333 274.5,132C 268.932,133.968 263.432,136.134 258,138.5C 249.978,132.215 240.811,129.215 230.5,129.5C 199.268,131.183 172.768,143.183 151,165.5C 149.259,169.094 149.092,172.761 150.5,176.5C 151.688,177.84 153.188,178.507 155,178.5C 166.226,173.48 177.726,169.146 189.5,165.5C 190.107,165.624 190.44,165.957 190.5,166.5C 182.726,184.259 187.059,198.093 203.5,208C 205.74,208.977 208.073,209.477 210.5,209.5C 211.091,210.151 211.757,210.818 212.5,211.5C 209.419,216.819 208.419,222.486 209.5,228.5C 211.332,227.752 212.999,226.752 214.5,225.5C 214.833,226.333 215.167,227.167 215.5,228C 211.023,238.258 207.69,248.758 205.5,259.5C 178.036,266.74 153.702,280.073 132.5,299.5C 130.812,258.483 128.812,217.483 126.5,176.5C 126.334,170.158 126.5,163.825 127,157.5C 131.499,142.839 136.833,128.505 143,114.5C 155.066,86.83 172.566,63.33 195.5,44C 204.061,39.7936 212.061,34.9602 219.5,29.5C 273.16,20.1669 326.827,20.1669 380.5,29.5 Z"/></g>
<g><path style="opacity:1" fill="#b7ac96" d="M 409.5,166.5 C 403.756,164.182 397.756,162.682 391.5,162C 383.18,161.219 374.847,160.719 366.5,160.5C 367.176,164.187 368.676,167.52 371,170.5C 376.723,176.288 381.723,182.621 386,189.5C 387.908,192.206 388.741,195.206 388.5,198.5C 386.143,198.337 383.81,198.503 381.5,199C 382.405,202.314 383.738,205.481 385.5,208.5C 386.689,209.429 388.022,209.762 389.5,209.5C 388.737,210.268 387.737,210.768 386.5,211C 390.226,216.28 391.393,222.113 390,228.5C 388.677,225.941 386.843,225.275 384.5,226.5C 389.248,237.165 392.914,248.165 395.5,259.5C 398.328,270.22 398.162,280.886 395,291.5C 393.563,295.73 391.229,296.397 388,293.5C 387.414,289.674 385.414,287.008 382,285.5C 381.501,290.155 381.334,294.821 381.5,299.5C 381.666,303.846 381.499,308.179 381,312.5C 377.413,320.56 373.246,328.227 368.5,335.5C 366.031,338.144 363.698,340.977 361.5,344C 359.933,345.076 358.266,345.909 356.5,346.5C 355.353,346.182 354.519,345.516 354,344.5C 353.667,340.833 353.333,337.167 353,333.5C 351.89,331.963 350.39,331.297 348.5,331.5C 348.96,312.583 339.96,301.083 321.5,297C 304.299,293.125 287.299,293.791 270.5,299C 256.333,305.679 250,316.846 251.5,332.5C 249.665,333.122 248.498,334.456 248,336.5C 247.667,339.167 247.333,341.833 247,344.5C 246.612,345.428 245.945,346.095 245,346.5C 239.983,342.649 235.483,338.315 231.5,333.5C 227.393,327.545 223.893,321.212 221,314.5C 219.729,309.246 219.229,303.913 219.5,298.5C 222.663,280.605 220.33,279.438 212.5,295C 209.702,295.561 207.869,294.394 207,291.5C 205.041,286.361 204.208,281.027 204.5,275.5C 204.701,270.151 205.034,264.818 205.5,259.5C 207.69,248.758 211.023,238.258 215.5,228C 215.167,227.167 214.833,226.333 214.5,225.5C 212.999,226.752 211.332,227.752 209.5,228.5C 208.419,222.486 209.419,216.819 212.5,211.5C 211.757,210.818 211.091,210.151 210.5,209.5C 211.675,209.719 212.675,209.386 213.5,208.5C 215.108,205.618 216.441,202.618 217.5,199.5C 215.577,198.692 213.577,198.192 211.5,198C 210.978,197.439 210.645,196.772 210.5,196C 211.53,193.44 212.697,190.94 214,188.5C 220.643,179.69 227.476,171.023 234.5,162.5C 234.291,161.914 233.957,161.414 233.5,161C 225.15,160.616 216.817,160.95 208.5,162C 202.193,162.69 196.193,164.19 190.5,166.5C 190.44,165.957 190.107,165.624 189.5,165.5C 177.726,169.146 166.226,173.48 155,178.5C 153.188,178.507 151.688,177.84 150.5,176.5C 149.092,172.761 149.259,169.094 151,165.5C 172.768,143.183 199.268,131.183 230.5,129.5C 240.811,129.215 249.978,132.215 258,138.5C 263.432,136.134 268.932,133.968 274.5,132C 273.833,131.333 273.167,130.667 272.5,130C 273.938,129.781 275.271,129.281 276.5,128.5C 275.146,126.538 275.813,125.538 278.5,125.5C 284.063,126.116 289.063,128.116 293.5,131.5C 293.833,130.833 294.167,130.167 294.5,129.5C 293.349,127.675 292.682,125.675 292.5,123.5C 297.674,125.185 302.507,127.518 307,130.5C 311.742,128.253 316.575,126.253 321.5,124.5C 321.167,126.5 320.833,128.5 320.5,130.5C 326.991,132.994 334.158,135.661 342,138.5C 345.064,135.713 348.564,133.547 352.5,132C 389.536,127.235 421.369,138.068 448,164.5C 449.552,166.768 450.385,169.268 450.5,172C 450.811,175.353 449.311,177.187 446,177.5C 437.249,175.042 428.749,171.876 420.5,168C 416.886,167.064 413.22,166.564 409.5,166.5 Z"/></g>
<g><path style="opacity:1" fill="#271c19" d="M 210.5,209.5 C 208.073,209.477 205.74,208.977 203.5,208C 187.059,198.093 182.726,184.259 190.5,166.5C 196.193,164.19 202.193,162.69 208.5,162C 216.817,160.95 225.15,160.616 233.5,161C 233.957,161.414 234.291,161.914 234.5,162.5C 227.476,171.023 220.643,179.69 214,188.5C 212.697,190.94 211.53,193.44 210.5,196C 210.645,196.772 210.978,197.439 211.5,198C 213.577,198.192 215.577,198.692 217.5,199.5C 216.441,202.618 215.108,205.618 213.5,208.5C 212.675,209.386 211.675,209.719 210.5,209.5 Z"/></g>
<g><path style="opacity:1" fill="#261c18" d="M 409.5,166.5 C 411.63,171.43 412.963,176.596 413.5,182C 412.066,196.932 404.066,206.099 389.5,209.5C 388.022,209.762 386.689,209.429 385.5,208.5C 383.738,205.481 382.405,202.314 381.5,199C 383.81,198.503 386.143,198.337 388.5,198.5C 388.741,195.206 387.908,192.206 386,189.5C 381.723,182.621 376.723,176.288 371,170.5C 368.676,167.52 367.176,164.187 366.5,160.5C 374.847,160.719 383.18,161.219 391.5,162C 397.756,162.682 403.756,164.182 409.5,166.5 Z"/></g>
<g><path style="opacity:1" fill="#f6f6f6" d="M 211.5,166.5 C 217.433,167.363 219.6,170.697 218,176.5C 215.833,179.287 212.999,180.12 209.5,179C 206.713,176.833 205.88,173.999 207,170.5C 208.25,168.807 209.75,167.473 211.5,166.5 Z"/></g>
<g><path style="opacity:1" fill="#f6f6f6" d="M 386.5,166.5 C 392.433,167.363 394.6,170.697 393,176.5C 390.833,179.287 387.999,180.12 384.5,179C 381.713,176.833 380.88,173.999 382,170.5C 383.25,168.807 384.75,167.473 386.5,166.5 Z"/></g>
<g><path style="opacity:1" fill="#f4f4f4" d="M 205.5,259.5 C 205.034,264.818 204.701,270.151 204.5,275.5C 204.208,281.027 205.041,286.361 207,291.5C 207.869,294.394 209.702,295.561 212.5,295C 220.33,279.438 222.663,280.605 219.5,298.5C 205.582,303.913 194.082,312.58 185,324.5C 175.935,336.964 169.268,350.631 165,365.5C 162.723,382.438 161.056,399.438 160,416.5C 159.546,449.025 159.046,481.358 158.5,513.5C 145.568,503.295 140.068,489.961 142,473.5C 142.324,467.098 143.158,460.764 144.5,454.5C 144.167,453.5 143.833,452.5 143.5,451.5C 139.763,457.3 136.263,463.3 133,469.5C 131.611,471.227 129.944,472.561 128,473.5C 126.739,473.241 125.739,472.574 125,471.5C 102.093,431.392 95.4266,388.725 105,343.5C 110.378,326.325 119.545,311.658 132.5,299.5C 153.702,280.073 178.036,266.74 205.5,259.5 Z"/></g>
<g><path style="opacity:1" fill="#f4f4f4" d="M 395.5,259.5 C 409.122,264.807 422.455,270.974 435.5,278C 447.392,285.441 458.726,293.608 469.5,302.5C 488.423,321.397 497.923,344.397 498,371.5C 500.15,407.61 492.15,441.277 474,472.5C 472.951,473.517 471.784,473.684 470.5,473C 469,471.5 467.5,470 466,468.5C 463.34,462.51 460.174,456.844 456.5,451.5C 456.167,452.833 455.833,454.167 455.5,455.5C 456.875,463.455 457.875,471.455 458.5,479.5C 458.502,487.995 456.002,495.661 451,502.5C 447.664,506.668 444.164,510.668 440.5,514.5C 439.274,477.088 438.107,439.421 437,401.5C 436.925,373.048 428.592,347.381 412,324.5C 403.462,314.124 393.295,305.791 381.5,299.5C 381.334,294.821 381.501,290.155 382,285.5C 385.414,287.008 387.414,289.674 388,293.5C 391.229,296.397 393.563,295.73 395,291.5C 398.162,280.886 398.328,270.22 395.5,259.5 Z"/></g>
<g><path style="opacity:1" fill="#372f2b" d="M 348.5,331.5 C 342.575,356.918 326.575,371.418 300.5,375C 302.456,379.363 305.122,383.363 308.5,387C 317.514,387.083 326.514,386.583 335.5,385.5C 341.666,384.334 346.499,386.334 350,391.5C 353.735,396.282 355.735,401.615 356,407.5C 355.586,407.957 355.086,408.291 354.5,408.5C 350.964,403.948 347.297,399.448 343.5,395C 340.961,393.953 338.295,393.453 335.5,393.5C 328.121,394.342 320.787,395.509 313.5,397C 308.5,397.167 303.5,397.333 298.5,397.5C 284.431,396.642 270.431,395.476 256.5,394C 252.241,397.358 249.074,401.525 247,406.5C 243.37,409.226 242.037,408.226 243,403.5C 245.377,397.238 248.877,391.738 253.5,387C 256.712,385.921 260.045,385.421 263.5,385.5C 272.814,386.665 282.147,387.165 291.5,387C 295.127,383.745 297.46,379.745 298.5,375C 280.976,372.489 267.143,363.989 257,349.5C 254.261,344.115 252.427,338.449 251.5,332.5C 250,316.846 256.333,305.679 270.5,299C 287.299,293.791 304.299,293.125 321.5,297C 339.96,301.083 348.96,312.583 348.5,331.5 Z"/></g>
<g><path style="opacity:1" fill="#dad1c0" d="M 219.5,298.5 C 219.229,303.913 219.729,309.246 221,314.5C 223.893,321.212 227.393,327.545 231.5,333.5C 219.05,343.898 214.55,357.231 218,373.5C 223.813,404.753 231.813,435.42 242,465.5C 253.153,501.162 256.153,537.495 251,574.5C 243.833,568.667 237.333,562.167 231.5,555C 231.167,554.833 230.833,554.667 230.5,554.5C 229.259,557.537 229.259,560.537 230.5,563.5C 229.883,563.611 229.383,563.944 229,564.5C 228.697,568.894 228.03,573.227 227,577.5C 226.282,578.451 225.449,578.617 224.5,578C 219.684,567.889 215.851,557.389 213,546.5C 212.292,545.619 211.458,544.953 210.5,544.5C 210.927,539.608 209.76,534.942 207,530.5C 206,529.5 205,528.5 204,527.5C 203.172,532.132 202.672,536.798 202.5,541.5C 202.621,544.441 203.287,547.108 204.5,549.5C 202.558,557.463 201.224,565.796 200.5,574.5C 195.126,573.29 190.626,570.623 187,566.5C 185.188,556.194 184.022,545.861 183.5,535.5C 183.832,525.81 183.498,516.144 182.5,506.5C 181.833,505.833 181.167,505.167 180.5,504.5C 178.738,513.4 178.071,522.4 178.5,531.5C 177.627,539.669 176.961,548.003 176.5,556.5C 175.178,556.67 174.011,556.337 173,555.5C 170.746,551.993 168.746,548.327 167,544.5C 163.735,534.176 160.901,523.843 158.5,513.5C 159.046,481.358 159.546,449.025 160,416.5C 161.056,399.438 162.723,382.438 165,365.5C 169.268,350.631 175.935,336.964 185,324.5C 194.082,312.58 205.582,303.913 219.5,298.5 Z"/></g>
<g><path style="opacity:1" fill="#dad1c0" d="M 381.5,299.5 C 393.295,305.791 403.462,314.124 412,324.5C 428.592,347.381 436.925,373.048 437,401.5C 438.107,439.421 439.274,477.088 440.5,514.5C 438.531,527.703 434.698,540.37 429,552.5C 424.951,558.407 422.951,557.741 423,550.5C 422.828,543.987 422.328,537.653 421.5,531.5C 421.628,522.134 421.128,512.8 420,503.5C 419.71,501.956 419.044,500.623 418,499.5C 416.852,505.334 416.352,511.334 416.5,517.5C 416.501,523.343 416.834,529.01 417.5,534.5C 417.217,535.289 416.717,535.956 416,536.5C 415.818,546.604 414.818,556.604 413,566.5C 408.953,570.606 404.12,573.273 398.5,574.5C 398.334,565.783 397.334,557.45 395.5,549.5C 396.813,541.163 396.479,532.83 394.5,524.5C 391.083,529.667 389.083,535.334 388.5,541.5C 387.883,541.611 387.383,541.944 387,542.5C 383.394,553.984 379.394,565.318 375,576.5C 374.035,578.26 372.868,578.594 371.5,577.5C 370.4,573.061 369.4,568.728 368.5,564.5C 370.173,550.833 368.006,550.166 362,562.5C 356.968,567.867 351.635,572.867 346,577.5C 342.194,549.718 342.86,522.051 348,494.5C 355.715,465.684 364.049,437.017 373,408.5C 377.809,390.797 380.142,372.797 380,354.5C 378.696,346.547 374.863,340.213 368.5,335.5C 373.246,328.227 377.413,320.56 381,312.5C 381.499,308.179 381.666,303.846 381.5,299.5 Z"/></g>
<g><path style="opacity:1" fill="#f4f4f4" d="M 348.5,331.5 C 350.39,331.297 351.89,331.963 353,333.5C 353.333,337.167 353.667,340.833 354,344.5C 354.519,345.516 355.353,346.182 356.5,346.5C 358.266,345.909 359.933,345.076 361.5,344C 363.698,340.977 366.031,338.144 368.5,335.5C 374.863,340.213 378.696,346.547 380,354.5C 380.142,372.797 377.809,390.797 373,408.5C 364.049,437.017 355.715,465.684 348,494.5C 342.86,522.051 342.194,549.718 346,577.5C 351.635,572.867 356.968,567.867 362,562.5C 368.006,550.166 370.173,550.833 368.5,564.5C 363.888,571.943 357.555,577.443 349.5,581C 339.302,586.767 328.635,591.433 317.5,595C 313.726,596.183 310.559,595.349 308,592.5C 305.135,580.643 303.135,568.643 302,556.5C 301.632,555.09 300.799,554.09 299.5,553.5C 298.194,554.912 297.36,556.579 297,558.5C 296.134,569.3 294.467,579.966 292,590.5C 291.502,594 289.502,595.667 286,595.5C 267.704,591.101 251.204,583.101 236.5,571.5C 234.091,569.098 232.091,566.431 230.5,563.5C 229.259,560.537 229.259,557.537 230.5,554.5C 230.833,554.667 231.167,554.833 231.5,555C 237.333,562.167 243.833,568.667 251,574.5C 256.153,537.495 253.153,501.162 242,465.5C 231.813,435.42 223.813,404.753 218,373.5C 214.55,357.231 219.05,343.898 231.5,333.5C 235.483,338.315 239.983,342.649 245,346.5C 245.945,346.095 246.612,345.428 247,344.5C 247.333,341.833 247.667,339.167 248,336.5C 248.498,334.456 249.665,333.122 251.5,332.5C 252.427,338.449 254.261,344.115 257,349.5C 267.143,363.989 280.976,372.489 298.5,375C 297.46,379.745 295.127,383.745 291.5,387C 282.147,387.165 272.814,386.665 263.5,385.5C 260.045,385.421 256.712,385.921 253.5,387C 248.877,391.738 245.377,397.238 243,403.5C 242.037,408.226 243.37,409.226 247,406.5C 249.074,401.525 252.241,397.358 256.5,394C 270.431,395.476 284.431,396.642 298.5,397.5C 303.5,397.333 308.5,397.167 313.5,397C 320.787,395.509 328.121,394.342 335.5,393.5C 338.295,393.453 340.961,393.953 343.5,395C 347.297,399.448 350.964,403.948 354.5,408.5C 355.086,408.291 355.586,407.957 356,407.5C 355.735,401.615 353.735,396.282 350,391.5C 346.499,386.334 341.666,384.334 335.5,385.5C 326.514,386.583 317.514,387.083 308.5,387C 305.122,383.363 302.456,379.363 300.5,375C 326.575,371.418 342.575,356.918 348.5,331.5 Z"/></g>
<g><path style="opacity:1" fill="#f2f2f0" d="M 421.5,531.5 C 420.474,532.853 419.141,533.853 417.5,534.5C 416.834,529.01 416.501,523.343 416.5,517.5C 416.352,511.334 416.852,505.334 418,499.5C 419.044,500.623 419.71,501.956 420,503.5C 421.128,512.8 421.628,522.134 421.5,531.5 Z"/></g>
<g><path style="opacity:1" fill="#f1f1f0" d="M 183.5,535.5 C 181.246,534.876 179.579,533.543 178.5,531.5C 178.071,522.4 178.738,513.4 180.5,504.5C 181.167,505.167 181.833,505.833 182.5,506.5C 183.498,516.144 183.832,525.81 183.5,535.5 Z"/></g>
<g><path style="opacity:1" fill="#f2f1f0" d="M 395.5,549.5 C 390.858,548.897 388.525,546.231 388.5,541.5C 389.083,535.334 391.083,529.667 394.5,524.5C 396.479,532.83 396.813,541.163 395.5,549.5 Z"/></g>
<g><path style="opacity:1" fill="#f1f0ef" d="M 210.5,544.5 C 209.712,547.621 207.712,549.288 204.5,549.5C 203.287,547.108 202.621,544.441 202.5,541.5C 202.672,536.798 203.172,532.132 204,527.5C 205,528.5 206,529.5 207,530.5C 209.76,534.942 210.927,539.608 210.5,544.5 Z"/></g>
</svg>
