<?xml version="1.0" encoding="UTF-8"?>
<!DOCTYPE svg PUBLIC "-//W3C//DTD SVG 1.1//EN" "http://www.w3.org/Graphics/SVG/1.1/DTD/svg11.dtd">
<svg xmlns="http://www.w3.org/2000/svg" version="1.1" width="600px" height="600px" style="shape-rendering:geometricPrecision; text-rendering:geometricPrecision; image-rendering:optimizeQuality; fill-rule:evenodd; clip-rule:evenodd" xmlns:xlink="http://www.w3.org/1999/xlink">
<g><path style="opacity:0.949" fill="#020100" d="M 599.5,98.5 C 599.5,108.833 599.5,119.167 599.5,129.5C 594.67,162.642 594.336,195.975 598.5,229.5C 596.731,246.235 587.398,253.735 570.5,252C 559.352,249.592 549.018,245.259 539.5,239C 531.691,233.359 524.025,227.525 516.5,221.5C 514.193,237.028 514.526,252.528 517.5,268C 517.187,272.611 515.52,276.611 512.5,280C 517.063,288.79 521.063,297.79 524.5,307C 522.699,315.329 517.699,319.162 509.5,318.5C 509.167,319.167 508.833,319.833 508.5,320.5C 512.313,348.366 513.48,376.366 512,404.5C 511.057,423.198 509.724,441.865 508,460.5C 506.927,467.46 504.927,474.126 502,480.5C 495.622,488.052 487.789,490.219 478.5,487C 438.536,554.918 379.036,591.418 300,596.5C 220.957,590.578 161.457,553.578 121.5,485.5C 112.239,489.586 104.739,487.586 99,479.5C 95.9145,472.827 93.9145,465.827 93,458.5C 88.0513,412.514 87.3846,366.514 91,320.5C 82.4528,321.64 77.6194,317.806 76.5,309C 78.8556,299.287 82.8556,290.287 88.5,282C 85.0878,278.949 83.0878,275.116 82.5,270.5C 86.215,252.212 86.3817,233.879 83,215.5C 70.2512,227.126 55.4178,234.96 38.5,239C 19.7394,241.633 9.07278,233.633 6.5,215C 8.84767,185.773 8.01434,156.607 4,127.5C 3.12766,119.577 1.62766,111.91 -0.5,104.5C -0.5,99.1667 -0.5,93.8333 -0.5,88.5C 2.06575,75.8916 8.39908,65.3916 18.5,57C 38.3312,44.9196 59.3312,35.2529 81.5,28C 108.189,17.9525 135.689,11.4525 164,8.5C 172.678,8.93243 181.178,10.4324 189.5,13C 202.6,18.2001 215.934,22.7001 229.5,26.5C 242.655,25.4365 255.655,23.2699 268.5,20C 300.42,15.4943 331.753,17.9943 362.5,27.5C 380.944,23.52 399.278,19.02 417.5,14C 427.92,13.2208 438.253,13.8875 448.5,16C 489.325,26.2747 528.325,41.2747 565.5,61C 581.651,69.3092 592.984,81.8092 599.5,98.5 Z"/></g>
<g><path style="opacity:1" fill="#da8c23" d="M 230.5,36.5 C 232.343,37.2829 234.343,37.9495 236.5,38.5C 237.833,39.1667 237.833,39.8333 236.5,40.5C 199.509,46.723 171.343,65.723 152,97.5C 140.92,117.995 129.587,138.328 118,158.5C 110.721,169.606 102.888,180.273 94.5,190.5C 82.0947,204.064 67.7614,215.23 51.5,224C 45.0827,226.771 38.416,228.604 31.5,229.5C 25.3878,229.528 20.8878,226.861 18,221.5C 18.9238,197.16 18.5905,172.827 17,148.5C 15.4614,130.352 12.9614,112.352 9.5,94.5C 9.63153,85.2673 12.7982,77.2673 19,70.5C 30.4697,60.8421 43.303,53.3421 57.5,48C 84.0882,36.9147 111.422,28.2481 139.5,22C 153.116,19.2356 166.783,18.9023 180.5,21C 192.822,25.3299 205.156,29.6632 217.5,34C 221.816,34.9964 226.149,35.8297 230.5,36.5 Z"/></g>
<g><path style="opacity:1" fill="#da8c23" d="M 507.5,197.5 C 486.18,169.553 467.346,139.886 451,108.5C 430.84,72.6848 400.674,50.1848 360.5,41C 359.692,40.6924 359.025,40.1924 358.5,39.5C 359.602,38.8243 360.602,38.1577 361.5,37.5C 368.94,36.9868 376.273,35.8201 383.5,34C 405.06,24.2821 427.393,21.9488 450.5,27C 488.779,37.2042 525.446,51.5375 560.5,70C 567.282,74.448 573.782,79.2814 580,84.5C 587.144,92.4573 590.644,101.791 590.5,112.5C 585.247,150.721 584.247,189.054 587.5,227.5C 588.863,233.596 586.863,238.096 581.5,241C 576.833,241.667 572.167,241.667 567.5,241C 544.101,231.139 524.101,216.639 507.5,197.5 Z"/></g>
<g><path style="opacity:1" fill="#ecaa53" d="M 361.5,37.5 C 360.602,38.1577 359.602,38.8243 358.5,39.5C 359.025,40.1924 359.692,40.6924 360.5,41C 400.674,50.1848 430.84,72.6848 451,108.5C 467.346,139.886 486.18,169.553 507.5,197.5C 506.624,211.006 505.624,224.506 504.5,238C 505.2,249.168 505.867,260.335 506.5,271.5C 502.33,270.174 499.163,267.508 497,263.5C 497.684,269.241 499.017,274.907 501,280.5C 506.017,289.527 510.184,298.861 513.5,308.5C 510.575,308.54 507.909,307.707 505.5,306C 503.295,303.46 500.795,301.293 498,299.5C 497.495,301.518 496.995,303.518 496.5,305.5C 494.105,293.853 491.272,282.187 488,270.5C 480.325,252.799 472.658,235.132 465,217.5C 460.203,202.109 455.203,186.776 450,171.5C 444.138,156.262 435.638,142.762 424.5,131C 405.602,118.346 386.602,118.346 367.5,131C 346.699,145.767 336.366,165.934 336.5,191.5C 328.372,155.394 321.538,119.061 316,82.5C 313.186,75.0914 307.852,72.0914 300,73.5C 292.476,72.5956 287.142,75.5956 284,82.5C 278.795,118.398 272.295,154.065 264.5,189.5C 262.295,154.95 244.629,132.45 211.5,122C 189.817,119.425 173.65,127.591 163,146.5C 158.139,154.888 153.806,163.554 150,172.5C 145.124,187.885 140.124,203.218 135,218.5C 127.333,236.167 119.667,253.833 112,271.5C 109.133,282.968 106.3,294.302 103.5,305.5C 102.91,304.234 102.41,302.901 102,301.5C 98.0399,306.19 93.2065,309.023 87.5,310C 87.0426,309.586 86.7093,309.086 86.5,308.5C 90.9844,299.531 95.4844,290.531 100,281.5C 100.244,276.6 101.411,271.934 103.5,267.5C 103.333,267.167 103.167,266.833 103,266.5C 100.469,269.888 97.302,272.221 93.5,273.5C 96.1267,250.508 96.1267,227.508 93.5,204.5C 93.592,199.799 93.9254,195.132 94.5,190.5C 102.888,180.273 110.721,169.606 118,158.5C 129.587,138.328 140.92,117.995 152,97.5C 171.343,65.723 199.509,46.723 236.5,40.5C 237.833,39.8333 237.833,39.1667 236.5,38.5C 234.343,37.9495 232.343,37.2829 230.5,36.5C 244.233,35.1558 257.9,32.9892 271.5,30C 302.068,26.108 332.068,28.608 361.5,37.5 Z"/></g>
<g><path style="opacity:1" fill="#da8c24" d="M 336.5,191.5 C 343.881,231.144 356.381,269.144 374,305.5C 391.206,328.778 400.706,354.945 402.5,384C 400.609,393.525 398.609,403.025 396.5,412.5C 392.356,425.974 383.356,434.307 369.5,437.5C 363.872,438.495 358.206,438.829 352.5,438.5C 348.382,438.47 344.382,437.803 340.5,436.5C 332.132,432.596 323.465,429.263 314.5,426.5C 306.75,423.748 298.75,422.915 290.5,424C 276.373,430.095 262.04,435.261 247.5,439.5C 238.302,441.567 229.635,440.234 221.5,435.5C 211.675,428.009 205.008,418.342 201.5,406.5C 195.191,381.775 197.358,357.775 208,334.5C 212.534,324.652 217.867,315.318 224,306.5C 236.555,281.835 246.555,256.169 254,229.5C 257.21,216.083 260.71,202.75 264.5,189.5C 272.295,154.065 278.795,118.398 284,82.5C 287.142,75.5956 292.476,72.5956 300,73.5C 307.852,72.0914 313.186,75.0914 316,82.5C 321.538,119.061 328.372,155.394 336.5,191.5 Z"/></g>
<g><path style="opacity:1" fill="#df9b42" d="M 264.5,189.5 C 260.71,202.75 257.21,216.083 254,229.5C 246.555,256.169 236.555,281.835 224,306.5C 217.867,315.318 212.534,324.652 208,334.5C 197.358,357.775 195.191,381.775 201.5,406.5C 193.063,413.415 184.397,420.249 175.5,427C 160.162,443.179 144.162,458.346 127.5,472.5C 126.883,472.389 126.383,472.056 126,471.5C 121.302,474.945 116.135,476.778 110.5,477C 106.789,472.548 104.622,467.381 104,461.5C 101.464,432.044 99.6304,402.544 98.5,373C 98.675,350.382 100.342,327.882 103.5,305.5C 106.3,294.302 109.133,282.968 112,271.5C 119.667,253.833 127.333,236.167 135,218.5C 140.124,203.218 145.124,187.885 150,172.5C 153.806,163.554 158.139,154.888 163,146.5C 173.65,127.591 189.817,119.425 211.5,122C 244.629,132.45 262.295,154.95 264.5,189.5 Z"/></g>
<g><path style="opacity:1" fill="#df9b43" d="M 496.5,305.5 C 500.157,329.015 501.823,352.681 501.5,376.5C 501.163,404.563 499.663,432.563 497,460.5C 496.57,466.755 494.403,472.255 490.5,477C 484.787,477.043 479.454,475.543 474.5,472.5C 472.106,467.933 469.106,463.766 465.5,460C 443.798,450.967 424.798,437.967 408.5,421C 404.257,418.217 400.257,415.384 396.5,412.5C 398.609,403.025 400.609,393.525 402.5,384C 400.706,354.945 391.206,328.778 374,305.5C 356.381,269.144 343.881,231.144 336.5,191.5C 336.366,165.934 346.699,145.767 367.5,131C 386.602,118.346 405.602,118.346 424.5,131C 435.638,142.762 444.138,156.262 450,171.5C 455.203,186.776 460.203,202.109 465,217.5C 472.658,235.132 480.325,252.799 488,270.5C 491.272,282.187 494.105,293.853 496.5,305.5 Z"/></g>
<g><path style="opacity:1" fill="#db8d24" d="M 223.5,150.5 C 238.466,152.303 246.466,160.803 247.5,176C 246.412,189.19 241.412,190.857 232.5,181C 225.066,178.205 218.566,174.038 213,168.5C 209.334,163.506 209.834,159.006 214.5,155C 217.648,153.576 220.648,152.076 223.5,150.5 Z"/></g>
<g><path style="opacity:1" fill="#db8d24" d="M 369.5,150.5 C 375.189,150.673 380.523,152.173 385.5,155C 390.655,159.948 390.822,165.115 386,170.5C 380.908,174.298 375.408,177.465 369.5,180C 366.537,181.961 363.871,184.294 361.5,187C 356.876,188.056 354.043,186.223 353,181.5C 351.696,167.438 357.196,157.104 369.5,150.5 Z"/></g>
<g><path style="opacity:1" fill="#ebcfba" d="M 198.5,180.5 C 223.351,179.191 236.184,190.858 237,215.5C 232.715,234.455 220.882,243.622 201.5,243C 181.643,237.792 172.809,224.959 175,204.5C 179.018,192.65 186.851,184.65 198.5,180.5 Z"/></g>
<g><path style="opacity:1" fill="#ebcfba" d="M 387.5,180.5 C 405.8,178.893 418.3,186.559 425,203.5C 427.66,224.489 418.827,237.655 398.5,243C 373.209,242.036 361.709,228.869 364,203.5C 368.441,192.224 376.274,184.558 387.5,180.5 Z"/></g>
<g><path style="opacity:1" fill="#251a17" d="M 199.5,190.5 C 213.059,188.523 222.225,193.856 227,206.5C 228.321,224.845 219.821,233.678 201.5,233C 187.971,228.79 182.471,219.624 185,205.5C 187.351,197.984 192.184,192.984 199.5,190.5 Z"/></g>
<g><path style="opacity:1" fill="#261a17" d="M 388.5,190.5 C 403.705,188.421 413.038,194.755 416.5,209.5C 414.612,227.894 404.612,235.394 386.5,232C 375.965,226.775 371.465,218.275 373,206.5C 375.711,198.624 380.878,193.291 388.5,190.5 Z"/></g>
<g><path style="opacity:1" fill="#f1f1f1" d="M 210.5,200.5 C 216.82,200.32 219.32,203.32 218,209.5C 213.974,213.631 210.307,213.298 207,208.5C 206.279,204.946 207.446,202.28 210.5,200.5 Z"/></g>
<g><path style="opacity:1" fill="#f4f4f4" d="M 399.5,200.5 C 405.82,200.32 408.32,203.32 407,209.5C 401.844,214.032 398.01,213.032 395.5,206.5C 396.361,204.089 397.694,202.089 399.5,200.5 Z"/></g>
<g><path style="opacity:1" fill="#010000" d="M 285.5,313.5 C 297.543,313.162 309.543,313.662 321.5,315C 347.302,319.498 357.468,334.331 352,359.5C 343.712,376.774 330.212,387.94 311.5,393C 288.258,395.964 269.092,388.464 254,370.5C 245.326,357.736 244.326,344.402 251,330.5C 255.316,324.86 260.816,320.694 267.5,318C 273.553,316.153 279.553,314.653 285.5,313.5 Z"/></g>
<g><path style="opacity:1" fill="#dc8f2c" d="M 201.5,406.5 C 205.008,418.342 211.675,428.009 221.5,435.5C 231.819,456.815 241.653,478.482 251,500.5C 254.575,508.212 259.075,515.212 264.5,521.5C 277.973,543.935 296.64,549.769 320.5,539C 326.056,534.608 331.056,529.775 335.5,524.5C 342.83,515.858 348.663,506.191 353,495.5C 360.788,475.098 369.122,455.098 378,435.5C 370.4,440.204 362.233,441.537 353.5,439.5C 352.833,439.5 352.5,439.167 352.5,438.5C 358.206,438.829 363.872,438.495 369.5,437.5C 383.356,434.307 392.356,425.974 396.5,412.5C 400.257,415.384 404.257,418.217 408.5,421C 424.798,437.967 443.798,450.967 465.5,460C 469.106,463.766 472.106,467.933 474.5,472.5C 440.427,536.554 387.427,574.054 315.5,585C 286.751,587.56 259.084,583.226 232.5,572C 185.603,551.267 150.603,518.1 127.5,472.5C 144.162,458.346 160.162,443.179 175.5,427C 184.397,420.249 193.063,413.415 201.5,406.5 Z"/></g>
<g><path style="opacity:1" fill="#f3a394" d="M 314.5,426.5 C 322.711,430.796 331.378,434.13 340.5,436.5C 344.382,437.803 348.382,438.47 352.5,438.5C 352.5,439.167 352.833,439.5 353.5,439.5C 351.8,464.368 347.3,488.701 340,512.5C 338.403,516.269 336.57,519.936 334.5,523.5C 334.624,524.107 334.957,524.44 335.5,524.5C 331.056,529.775 326.056,534.608 320.5,539C 296.64,549.769 277.973,543.935 264.5,521.5C 253.728,495.308 248.061,467.975 247.5,439.5C 262.04,435.261 276.373,430.095 290.5,424C 298.75,422.915 306.75,423.748 314.5,426.5 Z"/></g>
<g><path style="opacity:1" fill="#e79865" d="M 314.5,426.5 C 323.465,429.263 332.132,432.596 340.5,436.5C 331.378,434.13 322.711,430.796 314.5,426.5 Z"/></g>
<g><path style="opacity:1" fill="#050201" d="M 221.5,435.5 C 229.635,440.234 238.302,441.567 247.5,439.5C 248.061,467.975 253.728,495.308 264.5,521.5C 259.075,515.212 254.575,508.212 251,500.5C 241.653,478.482 231.819,456.815 221.5,435.5 Z"/></g>
<g><path style="opacity:1" fill="#030100" d="M 335.5,524.5 C 334.957,524.44 334.624,524.107 334.5,523.5C 336.57,519.936 338.403,516.269 340,512.5C 347.3,488.701 351.8,464.368 353.5,439.5C 362.233,441.537 370.4,440.204 378,435.5C 369.122,455.098 360.788,475.098 353,495.5C 348.663,506.191 342.83,515.858 335.5,524.5 Z"/></g>
</svg>
