<?xml version="1.0" encoding="UTF-8"?>
<!DOCTYPE svg PUBLIC "-//W3C//DTD SVG 1.1//EN" "http://www.w3.org/Graphics/SVG/1.1/DTD/svg11.dtd">
<svg xmlns="http://www.w3.org/2000/svg" version="1.1" width="600px" height="600px" style="shape-rendering:geometricPrecision; text-rendering:geometricPrecision; image-rendering:optimizeQuality; fill-rule:evenodd; clip-rule:evenodd" xmlns:xlink="http://www.w3.org/1999/xlink">
<g><path style="opacity:0.972" fill="#020101" d="M 599.5,118.5 C 599.5,124.833 599.5,131.167 599.5,137.5C 598.1,147.764 596.267,158.098 594,168.5C 587.924,188.727 582.257,209.06 577,229.5C 574.951,248.434 573.951,267.434 574,286.5C 572.486,296.513 566.653,301.846 556.5,302.5C 538.935,298.384 524.602,289.218 513.5,275C 512.833,274.333 512.167,274.333 511.5,275C 507.695,281.412 504.861,288.245 503,295.5C 498.935,323.429 491.602,350.429 481,376.5C 478,380.833 475,385.167 472,389.5C 466,394.833 460,400.167 454,405.5C 443.009,420.632 435.509,437.132 431.5,455C 423.99,478.52 414.156,501.02 402,522.5C 392.865,535.295 381.032,544.795 366.5,551C 333.558,565.161 299.558,568.828 264.5,562C 244.471,557.98 225.804,550.647 208.5,540C 193.825,526.823 182.992,510.99 176,492.5C 170.516,480.205 166.183,467.538 163,454.5C 156.857,437.214 148.857,420.881 139,405.5C 129.333,398.5 121,390.167 114,380.5C 106.688,366.565 101.355,351.899 98,336.5C 94.6667,321.167 91.3333,305.833 88,290.5C 86.5977,286.793 85.0977,283.126 83.5,279.5C 82.9984,278.479 82.3317,278.312 81.5,279C 70.9714,291.351 57.8047,299.518 42,303.5C 32.5594,302.724 26.8928,297.724 25,288.5C 25.2742,266.72 23.9409,245.053 21,223.5C 15.5122,204.549 10.1788,185.549 5,166.5C 2.73083,155.425 0.897494,144.425 -0.5,133.5C -0.5,128.833 -0.5,124.167 -0.5,119.5C 0.0330299,103.799 7.6997,93.2992 22.5,88C 49.4732,81.8932 76.4732,75.8932 103.5,70C 131.971,60.7318 160.305,51.0651 188.5,41C 197.128,38.1344 205.961,36.3011 215,35.5C 226.85,36.2585 236.517,41.2585 244,50.5C 249.5,57.3333 255,64.1667 260.5,71C 285.559,70.4724 310.559,71.6391 335.5,74.5C 337.728,73.7814 339.561,72.448 341,70.5C 348.792,59.0413 358.292,49.208 369.5,41C 379.333,36.6855 389.333,36.3521 399.5,40C 434.02,51.7289 468.687,63.0622 503.5,74C 527.193,78.8931 550.86,83.8931 574.5,89C 589.633,93.2838 597.966,103.117 599.5,118.5 Z"/></g>
<g><path style="opacity:1" fill="#2f1e18" d="M 213.5,90.5 C 195.231,88.5475 180.065,94.5475 168,108.5C 151.378,132.738 136.544,158.072 123.5,184.5C 111.034,208.433 99.3672,232.766 88.5,257.5C 85.5314,256.671 82.5314,256.505 79.5,257C 70.6606,268.512 59.994,277.845 47.5,285C 45.5643,285.813 43.5643,286.313 41.5,286.5C 42.8956,258.372 40.0623,230.706 33,203.5C 23.4608,178.512 17.9608,152.679 16.5,126C 14.4739,111.355 20.8073,103.022 35.5,101C 59.379,96.965 83.0457,91.965 106.5,86C 134.12,77.46 161.454,68.1266 188.5,58C 196.937,54.91 205.603,52.7433 214.5,51.5C 218.074,51.9693 221.408,53.1359 224.5,55C 234.904,64.5572 243.571,75.3906 250.5,87.5C 247.117,91.2815 242.951,93.9482 238,95.5C 235.06,93.1198 232.227,90.6198 229.5,88C 223.678,85.9587 218.344,86.792 213.5,90.5 Z"/></g>
<g><path style="opacity:1" fill="#2f1e18" d="M 508.5,253.5 C 498.782,230.998 488.116,208.998 476.5,187.5C 463.456,161.072 448.622,135.738 432,111.5C 419.948,96.6511 404.448,90.3178 385.5,92.5C 380.152,89.2428 374.485,88.4094 368.5,90C 366.093,92.7019 363.593,95.2019 361,97.5C 356.099,95.4188 351.932,92.4188 348.5,88.5C 355.411,77.8832 363.411,68.0498 372.5,59C 377.739,54.7175 383.739,53.3841 390.5,55C 394.869,55.8423 399.203,56.8423 403.5,58C 432.966,68.5998 462.633,78.5998 492.5,88C 516.009,93.7684 539.675,98.7684 563.5,103C 569.557,104.349 575.057,106.849 580,110.5C 580.667,111.833 581.333,113.167 582,114.5C 583.604,137.003 580.937,159.003 574,180.5C 560.538,214.232 555.038,249.232 557.5,285.5C 549.96,284.23 543.293,281.064 537.5,276C 530.095,269.265 523.428,261.932 517.5,254C 514.508,252.426 511.508,252.259 508.5,253.5 Z"/></g>
<g><path style="opacity:1" fill="#f0f0f0" d="M 258.5,82.5 C 285.108,80.7412 311.774,81.7412 338.5,85.5C 337.52,86.9814 336.353,88.3147 335,89.5C 334.333,90.1667 334.333,90.8333 335,91.5C 341.403,98.2829 348.903,103.45 357.5,107C 360.167,107.667 362.833,107.667 365.5,107C 368.975,104.876 372.141,102.376 375,99.5C 377.214,99.8457 378.714,101.012 379.5,103C 352.534,174.496 336.034,248.329 330,324.5C 329.303,342.179 329.47,359.846 330.5,377.5C 320.924,376.038 311.257,375.371 301.5,375.5C 289.756,375.483 278.089,376.149 266.5,377.5C 268.863,334.802 266.029,292.468 258,250.5C 248.556,200.057 235.056,150.723 217.5,102.5C 218.71,99.7884 220.876,98.1217 224,97.5C 226.5,100.278 229.333,102.778 232.5,105C 236.594,105.767 240.594,105.434 244.5,104C 252.399,99.8798 259.399,94.5464 265.5,88C 263.004,86.3335 260.671,84.5002 258.5,82.5 Z"/></g>
<g><path style="opacity:1" fill="#211614" d="M 213.5,90.5 C 206.912,95.4122 205.245,101.745 208.5,109.5C 207.577,108.697 206.577,108.53 205.5,109C 176.443,132.22 149.11,157.387 123.5,184.5C 136.544,158.072 151.378,132.738 168,108.5C 180.065,94.5475 195.231,88.5475 213.5,90.5 Z"/></g>
<g><path style="opacity:1" fill="#211614" d="M 476.5,187.5 C 460.366,170.533 443.7,154.033 426.5,138C 414.511,127.163 401.844,117.33 388.5,108.5C 391.324,102.46 390.324,97.1267 385.5,92.5C 404.448,90.3178 419.948,96.6511 432,111.5C 448.622,135.738 463.456,161.072 476.5,187.5 Z"/></g>
<g><path style="opacity:1" fill="#472f26" d="M 208.5,109.5 C 230.411,169.476 245.577,231.143 254,294.5C 257.752,323.465 258.252,352.465 255.5,381.5C 251.405,381.808 247.405,382.641 243.5,384C 240.508,386.11 237.175,387.443 233.5,388C 225.374,392.149 217.374,396.482 209.5,401C 199.333,411.167 189.167,421.333 179,431.5C 177.667,434.167 176.333,436.833 175,439.5C 169.002,422.5 160.669,406.834 150,392.5C 137.737,384.571 128.737,373.905 123,360.5C 119.228,351.078 116.228,341.411 114,331.5C 110.842,315.042 107.175,298.709 103,282.5C 100.171,272.821 95.338,264.488 88.5,257.5C 99.3672,232.766 111.034,208.433 123.5,184.5C 149.11,157.387 176.443,132.22 205.5,109C 206.577,108.53 207.577,108.697 208.5,109.5 Z"/></g>
<g><path style="opacity:1" fill="#472f26" d="M 388.5,108.5 C 401.844,117.33 414.511,127.163 426.5,138C 443.7,154.033 460.366,170.533 476.5,187.5C 488.116,208.998 498.782,230.998 508.5,253.5C 499.463,262.078 492.963,272.411 489,284.5C 485.335,301.488 481.669,318.488 478,335.5C 475.003,349.835 469.67,363.168 462,375.5C 453,383.167 444.667,391.5 437,400.5C 430.537,411.093 424.87,422.093 420,433.5C 409.191,420.025 397.025,407.858 383.5,397C 370.258,389.309 356.258,383.476 341.5,379.5C 338.349,338.577 340.516,297.911 348,257.5C 357.604,206.747 371.104,157.081 388.5,108.5 Z"/></g>
<g><path style="opacity:1" fill="#e0e1e0" d="M 297.5,118.5 C 299.39,118.297 300.89,118.963 302,120.5C 302.667,160.167 302.667,199.833 302,239.5C 300,242.167 298,242.167 296,239.5C 295.333,199.833 295.333,160.167 296,120.5C 296.717,119.956 297.217,119.289 297.5,118.5 Z"/></g>
<g><path style="opacity:1" fill="#e0e1e0" d="M 241.5,148.5 C 250.939,150.981 258.439,156.314 264,164.5C 273.541,180.541 277.874,197.874 277,216.5C 274.667,219.167 272.333,219.167 270,216.5C 270.318,201.422 267.318,187.089 261,173.5C 258.533,169.4 255.699,165.566 252.5,162C 249.015,158.952 245.182,156.452 241,154.5C 240.322,152.402 240.489,150.402 241.5,148.5 Z"/></g>
<g><path style="opacity:1" fill="#e0e1e0" d="M 353.5,148.5 C 358.068,148.083 359.568,150.083 358,154.5C 350.144,157.759 344.144,163.092 340,170.5C 332.007,185.125 328.341,200.792 329,217.5C 326.408,218.982 324.075,218.648 322,216.5C 320.549,195.844 325.882,177.178 338,160.5C 342.803,155.843 347.97,151.843 353.5,148.5 Z"/></g>
<g><path style="opacity:1" fill="#2d1d17" d="M 185.5,229.5 C 213.301,228.156 230.801,240.823 238,267.5C 239.453,294.372 227.286,311.539 201.5,319C 174.994,321.166 157.494,309.666 149,284.5C 146.191,256.096 158.358,237.762 185.5,229.5 Z"/></g>
<g><path style="opacity:1" fill="#2e1e17" d="M 398.5,229.5 C 424.589,228.122 441.755,239.789 450,264.5C 453.213,290.592 442.713,308.425 418.5,318C 390.593,322.8 371.76,311.967 362,285.5C 358.374,256.396 370.541,237.729 398.5,229.5 Z"/></g>
<g><path style="opacity:1" fill="#0c0a0a" d="M 185.5,242.5 C 212.811,241.312 225.978,254.312 225,281.5C 217.038,303.23 201.872,310.73 179.5,304C 162.671,293.858 157.505,279.358 164,260.5C 168.942,251.715 176.109,245.715 185.5,242.5 Z"/></g>
<g><path style="opacity:1" fill="#0d0a0a" d="M 398.5,242.5 C 418.774,240.544 431.941,249.211 438,268.5C 438.432,295.362 425.265,307.862 398.5,306C 380.148,299.821 371.981,286.988 374,267.5C 377.709,254.625 385.876,246.292 398.5,242.5 Z"/></g>
<g><path style="opacity:1" fill="#ededed" d="M 181.5,255.5 C 192.446,254.925 195.446,259.425 190.5,269C 181.406,272.235 177.239,269.068 178,259.5C 179.032,257.973 180.199,256.64 181.5,255.5 Z"/></g>
<g><path style="opacity:1" fill="#efefef" d="M 394.5,255.5 C 404.855,255.038 407.855,259.538 403.5,269C 393.961,272.66 389.794,269.493 391,259.5C 391.69,257.65 392.856,256.316 394.5,255.5 Z"/></g>
<g><path style="opacity:1" fill="#a0a1a0" d="M 334.5,390.5 C 318.315,387.124 301.982,386.124 285.5,387.5C 290.456,386.172 295.789,385.505 301.5,385.5C 311.575,385.755 321.575,386.755 331.5,388.5C 332.602,389.176 333.602,389.842 334.5,390.5 Z"/></g>
<g><path style="opacity:1" fill="#dedfde" d="M 334.5,390.5 C 373.895,399.183 402.229,421.683 419.5,458C 413.641,474.555 406.807,490.722 399,506.5C 388.498,526.984 371.998,540.151 349.5,546C 317.364,557.559 285.031,558.225 252.5,548C 239.368,544.691 227.368,539.191 216.5,531.5C 207.546,523.572 200.546,514.239 195.5,503.5C 194.735,502.388 193.735,501.721 192.5,501.5C 190.578,497.987 188.912,494.321 187.5,490.5C 186.24,483.553 184.073,476.886 181,470.5C 180.833,469 180.667,467.5 180.5,466C 182.768,458.64 185.435,451.473 188.5,444.5C 196.997,431.838 207.33,421.005 219.5,412C 224,409.635 228,406.801 231.5,403.5C 237.438,402.655 243.105,400.989 248.5,398.5C 248.5,397.5 248.5,396.5 248.5,395.5C 251.285,393.905 254.285,392.905 257.5,392.5C 267.036,391.302 276.37,389.635 285.5,387.5C 301.982,386.124 318.315,387.124 334.5,390.5 Z"/></g>
<g><path style="opacity:1" fill="#a6a6a6" d="M 285.5,387.5 C 276.37,389.635 267.036,391.302 257.5,392.5C 266.182,388.273 275.516,386.606 285.5,387.5 Z"/></g>
<g><path style="opacity:1" fill="#aaabaa" d="M 248.5,395.5 C 248.5,396.5 248.5,397.5 248.5,398.5C 243.105,400.989 237.438,402.655 231.5,403.5C 236.735,400.051 242.402,397.384 248.5,395.5 Z"/></g>
<g><path style="opacity:1" fill="#010101" d="M 292.5,417.5 C 305.055,417.21 317.389,418.71 329.5,422C 346.463,429.1 352.296,441.6 347,459.5C 338.785,479.869 323.618,490.202 301.5,490.5C 301.334,495.511 301.501,500.511 302,505.5C 302.373,509.285 303.539,512.785 305.5,516C 309.598,517.006 313.764,517.506 318,517.5C 327.812,516.293 337.645,515.793 347.5,516C 348.5,518.091 347.833,519.757 345.5,521C 337.193,524.497 328.526,526.497 319.5,527C 301.132,527.902 282.799,527.569 264.5,526C 258.547,525.363 253.88,522.696 250.5,518C 251.229,516.008 252.729,515.174 255,515.5C 266.834,517.703 278.667,517.87 290.5,516C 292.668,512.494 293.835,508.661 294,504.5C 294.499,499.845 294.666,495.179 294.5,490.5C 262.655,486.835 248.488,469.169 252,437.5C 253.776,434.059 255.943,430.892 258.5,428C 268.942,421.26 280.276,417.76 292.5,417.5 Z"/></g>
<g><path style="opacity:1" fill="#848584" d="M 231.5,403.5 C 228,406.801 224,409.635 219.5,412C 207.33,421.005 196.997,431.838 188.5,444.5C 187.9,445.9 186.9,446.9 185.5,447.5C 187.979,442.162 191.146,437.162 195,432.5C 205.498,420.53 217.664,410.863 231.5,403.5 Z"/></g>
<g><path style="opacity:1" fill="#a5a6a5" d="M 188.5,444.5 C 185.435,451.473 182.768,458.64 180.5,466C 180.667,467.5 180.833,469 181,470.5C 184.073,476.886 186.24,483.553 187.5,490.5C 183.566,483.113 180.566,475.28 178.5,467C 179.041,461.949 180.208,457.116 182,452.5C 182.902,450.569 184.069,448.903 185.5,447.5C 186.9,446.9 187.9,445.9 188.5,444.5 Z"/></g>
<g><path style="opacity:1" fill="#afafaf" d="M 192.5,501.5 C 193.735,501.721 194.735,502.388 195.5,503.5C 200.546,514.239 207.546,523.572 216.5,531.5C 205.956,523.613 197.956,513.613 192.5,501.5 Z"/></g>
</svg>
