<?xml version="1.0" encoding="UTF-8"?>
<!DOCTYPE svg PUBLIC "-//W3C//DTD SVG 1.1//EN" "http://www.w3.org/Graphics/SVG/1.1/DTD/svg11.dtd">
<svg xmlns="http://www.w3.org/2000/svg" version="1.1" width="600px" height="600px" style="shape-rendering:geometricPrecision; text-rendering:geometricPrecision; image-rendering:optimizeQuality; fill-rule:evenodd; clip-rule:evenodd" xmlns:xlink="http://www.w3.org/1999/xlink">
<g><path style="opacity:0.967" fill="#020201" d="M 568.5,-0.5 C 569.5,-0.5 570.5,-0.5 571.5,-0.5C 582.199,2.35496 589.699,9.02162 594,19.5C 595.763,24.3056 597.596,28.9723 599.5,33.5C 599.5,75.8333 599.5,118.167 599.5,160.5C 591.513,201.804 574.347,238.804 548,271.5C 535.701,285.467 523.034,299.134 510,312.5C 506.023,319.431 503.023,326.764 501,334.5C 496.002,355.49 491.002,376.49 486,397.5C 482.365,413.089 476.031,427.423 467,440.5C 462.425,445.746 457.258,450.246 451.5,454C 443.047,462.128 436.547,471.628 432,482.5C 423.723,503.329 415.057,523.996 406,544.5C 397.082,564.419 382.582,578.586 362.5,587C 322.62,600.624 282.62,600.957 242.5,588C 220.387,579.221 204.887,563.721 196,541.5C 189.94,526.656 184.274,511.656 179,496.5C 174.388,484.609 168.721,473.276 162,462.5C 154,455.167 146,447.833 138,440.5C 133.576,434.658 129.909,428.324 127,421.5C 122.383,409.033 118.383,396.366 115,383.5C 111.945,377.667 109.278,371.667 107,365.5C 102.278,349.273 96.945,333.273 91,317.5C 89.3333,315.167 87.6667,312.833 86,310.5C 40.6255,270.415 11.7921,220.749 -0.5,161.5C -0.5,120.167 -0.5,78.8333 -0.5,37.5C 2.25257,25.1635 8.25257,14.6635 17.5,6C 24.9795,1.7529 32.6461,1.41957 40.5,5C 60.7149,16.2702 79.7149,29.2702 97.5,44C 127.045,69.5401 155.378,96.5401 182.5,125C 189.051,131.076 196.718,133.076 205.5,131C 250.535,111.478 297.202,106.144 345.5,115C 361.417,117.812 376.75,122.478 391.5,129C 400.884,131.078 409.217,129.078 416.5,123C 433.5,106 450.5,89 467.5,72C 492.5,48.0167 519.5,26.6834 548.5,8C 554.934,4.27362 561.601,1.44029 568.5,-0.5 Z"/></g>
<g><path style="opacity:1" fill="#362e2b" d="M 335.5,458.5 C 335.657,459.873 335.49,461.207 335,462.5C 312.969,456.21 290.803,455.876 268.5,461.5C 268.667,444.497 268.5,427.497 268,410.5C 268.851,395.496 261.851,387.496 247,386.5C 242.758,386.935 238.591,387.769 234.5,389C 226.729,392.885 218.729,396.219 210.5,399C 190.997,400.499 173.331,395.499 157.5,384C 146.947,375.236 137.281,365.57 128.5,355C 124.027,353.059 119.693,353.226 115.5,355.5C 111.385,343.987 107.552,332.321 104,320.5C 102.333,317.167 100.667,313.833 99,310.5C 87.3679,297.2 75.3679,284.2 63,271.5C 25.9448,226.361 6.6115,174.361 5,115.5C 4.33333,99.5 4.33333,83.5 5,67.5C 6.0041,52.1397 9.67077,37.473 16,23.5C 18.5174,17.6465 22.8507,13.9799 29,12.5C 36.9086,15.0365 44.4086,18.5365 51.5,23C 75.9877,40.1469 99.321,58.8135 121.5,79C 140.167,96.3333 158.167,114.333 175.5,133C 189.78,144.377 204.78,145.377 220.5,136C 277.954,116.243 334.954,117.576 391.5,140C 397.558,140.739 403.558,140.406 409.5,139C 414.997,136.755 419.997,133.755 424.5,130C 458.957,93.3166 495.957,59.6499 535.5,29C 545.077,21.7701 555.41,15.7701 566.5,11C 572.029,10.1778 576.529,12.0111 580,16.5C 588.366,30.6109 593.032,45.9442 594,62.5C 598.413,113.484 591.413,162.817 573,210.5C 564.32,229.48 553.654,247.147 541,263.5C 528.701,277.467 516.034,291.134 503,304.5C 497.266,312.692 493.266,321.692 491,331.5C 486.549,331.968 482.382,333.301 478.5,335.5C 467.08,355.496 452.08,372.329 433.5,386C 412.137,400.4 390.47,401.067 368.5,388C 358.07,382.889 348.07,383.556 338.5,390C 336.064,392.707 334.564,395.873 334,399.5C 333.773,419.181 334.273,438.847 335.5,458.5 Z"/></g>
<g><path style="opacity:1" fill="#040302" d="M 25.5,28.5 C 31.2328,27.8951 36.5661,29.0617 41.5,32C 77.438,62.9362 110.271,96.7696 140,133.5C 143.603,139.707 146.936,146.04 150,152.5C 152.025,160.575 151.691,168.575 149,176.5C 140.308,196.884 130.308,216.551 119,235.5C 114.519,241.979 109.352,247.812 103.5,253C 97.8249,256.668 91.8249,257.335 85.5,255C 67.6395,239.156 52.8061,220.989 41,200.5C 28.3442,173.213 20.6776,144.547 18,114.5C 14.4333,90.5665 13.7666,66.5665 16,42.5C 16.6667,40.5 17.3333,38.5 18,36.5C 20.705,33.9638 23.205,31.2971 25.5,28.5 Z"/></g>
<g><path style="opacity:1" fill="#040302" d="M 568.5,28.5 C 577.898,27.6714 584.065,31.6714 587,40.5C 589.316,53.0755 589.983,65.7421 589,78.5C 587.035,109.259 582.368,139.592 575,169.5C 564.767,203.481 545.933,231.648 518.5,254C 513.299,256.758 507.965,257.091 502.5,255C 494.91,249.412 488.744,242.579 484,234.5C 471.779,213.725 461.445,192.058 453,169.5C 452.182,163.098 452.516,156.765 454,150.5C 457.414,144.003 461.081,137.67 465,131.5C 495.143,94.7242 528.31,60.8909 564.5,30C 566.058,29.79 567.391,29.29 568.5,28.5 Z"/></g>
<g><path style="opacity:1" fill="#e1c37d" d="M 30.5,38.5 C 33.09,39.1283 35.4234,40.295 37.5,42C 70.7125,71.5455 101.546,103.379 130,137.5C 134.446,144.058 138.113,151.058 141,158.5C 141.796,164.005 141.129,169.338 139,174.5C 128.776,197.294 116.776,218.96 103,239.5C 96.9916,247.255 90.8249,247.422 84.5,240C 54.0573,210.614 36.2239,174.781 31,132.5C 26.3505,105.343 24.3505,78.0093 25,50.5C 25.5173,45.8045 27.3506,41.8045 30.5,38.5 Z"/></g>
<g><path style="opacity:1" fill="#e0c37d" d="M 571.5,38.5 C 575.592,39.9868 577.758,42.9868 578,47.5C 579.598,88.1158 575.265,128.116 565,167.5C 555.049,198.12 537.882,223.953 513.5,245C 511.5,245.667 509.5,245.667 507.5,245C 503,241.833 499.167,238 496,233.5C 483.165,212.831 472.165,191.164 463,168.5C 462.333,164.833 462.333,161.167 463,157.5C 465.897,150.937 469.23,144.603 473,138.5C 502.328,101.673 535.161,68.3392 571.5,38.5 Z"/></g>
<g><path style="opacity:1" fill="#ddc07b" d="M 243.5,255.5 C 254.036,255.21 259.536,260.21 260,270.5C 254.41,280.614 246.243,283.28 235.5,278.5C 229.633,270.736 230.633,263.903 238.5,258C 240.315,257.243 241.981,256.41 243.5,255.5 Z"/></g>
<g><path style="opacity:1" fill="#ddbf7b" d="M 354.5,255.5 C 365.545,255.38 371.045,260.714 371,271.5C 366.128,279.674 358.961,282.507 349.5,280C 342.303,275.695 340.803,269.862 345,262.5C 347.529,259.115 350.696,256.782 354.5,255.5 Z"/></g>
<g><path style="opacity:1" fill="#bf7d27" d="M 214.5,283.5 C 237.593,280.953 252.759,290.619 260,312.5C 262.547,336.937 252.047,352.437 228.5,359C 205.146,359.976 190.646,349.143 185,326.5C 183.935,304.616 193.768,290.283 214.5,283.5 Z"/></g>
<g><path style="opacity:1" fill="#bf7d27" d="M 371.5,283.5 C 394.263,281.455 409.43,291.122 417,312.5C 420.041,337.268 409.541,352.768 385.5,359C 356.343,359.177 341.843,344.677 342,315.5C 345.846,299.16 355.679,288.493 371.5,283.5 Z"/></g>
<g><path style="opacity:1" fill="#231815" d="M 216.5,294.5 C 232.69,292.67 243.524,299.337 249,314.5C 251.133,328.732 245.967,339.232 233.5,346C 220.831,350.291 209.998,347.458 201,337.5C 191.27,317.508 196.437,303.175 216.5,294.5 Z"/></g>
<g><path style="opacity:1" fill="#231815" d="M 373.5,294.5 C 396.331,293.83 407.164,304.83 406,327.5C 398.712,345.393 385.878,351.226 367.5,345C 353.65,335.437 350.15,322.937 357,307.5C 361.166,301.35 366.666,297.017 373.5,294.5 Z"/></g>
<g><path style="opacity:1" fill="#f3f3f3" d="M 216.5,303.5 C 225.234,304.967 227.567,309.634 223.5,317.5C 216.523,321.893 211.857,320.06 209.5,312C 210.256,307.754 212.589,304.921 216.5,303.5 Z"/></g>
<g><path style="opacity:1" fill="#f3f3f3" d="M 371.5,303.5 C 379.002,304.161 382.169,308.161 381,315.5C 376.591,321.406 371.925,321.74 367,316.5C 365.578,313.97 365.245,311.303 366,308.5C 367.73,306.598 369.563,304.931 371.5,303.5 Z"/></g>
<g><path style="opacity:1" fill="#e0c27d" d="M 485.5,342.5 C 486.586,342.62 487.253,343.287 487.5,344.5C 482.877,369.658 476.377,394.325 468,418.5C 465.839,423.492 463.172,428.159 460,432.5C 452.856,439.4 445.523,446.067 438,452.5C 434.419,457.328 431.085,462.328 428,467.5C 418.507,487.486 409.84,507.819 402,528.5C 395.926,544.164 386.759,557.664 374.5,569C 358.229,578.966 340.563,584.633 321.5,586C 302.422,587.115 283.422,586.448 264.5,584C 247.876,580.937 233.376,573.771 221,562.5C 215.544,555.702 210.877,548.369 207,540.5C 200.722,524.944 194.722,509.277 189,493.5C 183.647,479.739 176.981,466.739 169,454.5C 164.425,449.254 159.258,444.754 153.5,441C 142.01,430.195 134.51,417.029 131,401.5C 127.337,388.89 124.337,376.223 122,363.5C 139.463,388.149 162.963,403.649 192.5,410C 198.5,410.667 204.5,410.667 210.5,410C 221.157,406.838 231.49,402.838 241.5,398C 245.594,397.233 249.594,397.566 253.5,399C 255.049,400.214 256.215,401.714 257,403.5C 258.266,424.822 258.6,446.155 258,467.5C 245.258,477.904 241.925,490.904 248,506.5C 254.017,518.848 263.517,527.348 276.5,532C 305.341,542.231 330.508,536.397 352,514.5C 358.076,505.025 360.076,494.692 358,483.5C 355.814,477.328 352.147,472.328 347,468.5C 345.413,445.519 344.747,422.519 345,399.5C 348.396,395.797 352.563,394.631 357.5,396C 366.371,399.21 375.038,402.876 383.5,407C 403.745,410.417 422.412,406.417 439.5,395C 459.362,381.315 474.695,363.815 485.5,342.5 Z"/></g>
<g><path style="opacity:1" fill="#221815" d="M 335.5,458.5 C 334.642,467.745 337.809,475.412 345,481.5C 350.25,491.498 349.25,500.831 342,509.5C 319.267,530.03 295.1,532.196 269.5,516C 252.168,502.252 251.334,487.752 267,472.5C 268.237,468.94 268.737,465.273 268.5,461.5C 290.803,455.876 312.969,456.21 335,462.5C 335.49,461.207 335.657,459.873 335.5,458.5 Z"/></g>
</svg>
