<?xml version="1.0" encoding="UTF-8"?>
<!DOCTYPE svg PUBLIC "-//W3C//DTD SVG 1.1//EN" "http://www.w3.org/Graphics/SVG/1.1/DTD/svg11.dtd">
<svg xmlns="http://www.w3.org/2000/svg" version="1.1" width="600px" height="600px" style="shape-rendering:geometricPrecision; text-rendering:geometricPrecision; image-rendering:optimizeQuality; fill-rule:evenodd; clip-rule:evenodd" xmlns:xlink="http://www.w3.org/1999/xlink">
<g><path style="opacity:0.972" fill="#040403" d="M 599.5,95.5 C 599.5,105.5 599.5,115.5 599.5,125.5C 597.252,135.316 594.585,145.149 591.5,155C 594.842,159.89 597.509,165.057 599.5,170.5C 599.5,178.167 599.5,185.833 599.5,193.5C 595.28,197.319 590.447,198.319 585,196.5C 580.984,199.032 576.817,200.365 572.5,200.5C 569.362,206.045 568.029,211.878 568.5,218C 566.886,224.745 565.719,231.578 565,238.5C 563.702,243.274 560.868,246.774 556.5,249C 561.365,254.2 566.532,259.033 572,263.5C 577.688,269.935 577.855,276.435 572.5,283C 571.167,283.667 569.833,284.333 568.5,285C 564.664,285.306 560.997,285.472 557.5,285.5C 563.009,291.172 564.176,297.505 561,304.5C 559.649,306.019 558.149,307.352 556.5,308.5C 561.109,315.201 561.943,322.201 559,329.5C 554.385,334.544 548.885,335.71 542.5,333C 538.143,329.571 533.31,327.071 528,325.5C 527.333,329.167 527.333,332.833 528,336.5C 531.531,357.55 534.031,378.717 535.5,400C 534.807,420.161 534.307,440.328 534,460.5C 532.626,467.374 528.459,471.374 521.5,472.5C 518.044,471.845 514.877,470.511 512,468.5C 512.105,481.012 509.772,493.012 505,504.5C 500.69,509.942 495.19,512.109 488.5,511C 483.396,519.438 476.396,525.771 467.5,530C 464.833,530.333 462.167,530.667 459.5,531C 457.89,534.943 455.223,537.943 451.5,540C 444.271,543.299 436.771,545.799 429,547.5C 423.38,547.023 418.713,544.69 415,540.5C 401.142,553.013 384.975,561.179 366.5,565C 326.313,574.128 285.98,574.795 245.5,567C 223.918,563.151 204.751,554.318 188,540.5C 184.406,544.547 179.906,546.881 174.5,547.5C 165.169,545.832 156.502,542.499 148.5,537.5C 146.774,535.772 145.441,533.772 144.5,531.5C 141.47,531.899 138.47,531.399 135.5,530C 126.881,525.048 119.881,518.381 114.5,510C 107.317,511.322 101.817,508.822 98,502.5C 94.1173,490.825 91.9506,478.825 91.5,466.5C 78.6055,474.386 70.9388,470.886 68.5,456C 69.3177,433.514 69.4844,411.014 69,388.5C 71.736,367.516 74.236,346.516 76.5,325.5C 68.8206,328.091 61.3206,331.091 54,334.5C 46.502,333.669 42.3354,329.502 41.5,322C 42.4751,317.241 44.1417,312.741 46.5,308.5C 42.917,305.676 40.5837,302.01 39.5,297.5C 40.5647,292.871 42.5647,288.704 45.5,285C 40.2753,286.222 35.2753,285.555 30.5,283C 25.1455,276.435 25.3122,269.935 31,263.5C 36.1189,259.348 40.9523,254.848 45.5,250C 39.2327,248.066 35.3994,243.9 34,237.5C 33.9562,224.7 31.6228,212.367 27,200.5C 22.5002,200.448 18.1668,199.114 14,196.5C 8.08571,198.597 3.25238,197.264 -0.5,192.5C -0.5,185.5 -0.5,178.5 -0.5,171.5C 1.86436,165.768 4.53102,160.101 7.5,154.5C 4.33297,144.161 1.6663,133.828 -0.5,123.5C -0.5,114.5 -0.5,105.5 -0.5,96.5C 1.9609,85.2278 8.9609,78.3945 20.5,76C 43.2066,71.4737 66.0399,67.6404 89,64.5C 104.677,61.3724 120.177,57.5391 135.5,53C 137.613,51.0162 138.78,48.5162 139,45.5C 140.5,44 142,42.5 143.5,41C 142.188,32.9453 145.688,28.112 154,26.5C 164.295,28.731 173.462,33.231 181.5,40C 195.766,37.3994 208.433,40.7328 219.5,50C 227.29,57.7794 234.957,65.6127 242.5,73.5C 262.006,70.2178 281.673,68.5512 301.5,68.5C 320.58,68.9633 339.58,70.13 358.5,72C 365.532,65.3028 372.198,58.3028 378.5,51C 389.662,40.9584 402.662,37.2918 417.5,40C 425.534,33.2333 434.7,28.7333 445,26.5C 453.312,28.112 456.812,32.9453 455.5,41C 459.265,44.3472 461.931,48.3472 463.5,53C 479.718,57.471 496.051,61.471 512.5,65C 533.571,67.9253 554.571,71.2587 575.5,75C 587.909,76.9907 595.909,83.824 599.5,95.5 Z"/></g>
<g><path style="opacity:1" fill="#838383" d="M 523.5,219.5 C 514.666,205.838 506.333,191.838 498.5,177.5C 483.823,150.988 467.323,125.655 449,101.5C 433.949,85.3061 416.449,81.8061 396.5,91C 393.579,93.7494 390.912,96.5828 388.5,99.5C 378.804,98.4834 370.138,94.9834 362.5,89C 360.393,87.7365 359.393,85.9032 359.5,83.5C 360.552,83.6495 361.552,83.4828 362.5,83C 370.864,74.97 378.864,66.6367 386.5,58C 389.659,54.9177 393.325,52.5843 397.5,51C 405.524,50.5583 413.524,50.5583 421.5,51C 428.121,43.1909 436.454,38.8575 446.5,38C 440.946,43.0512 435.946,48.5512 431.5,54.5C 432,54.8333 432.5,55.1667 433,55.5C 438.509,51.4983 444.676,49.8316 451.5,50.5C 450.677,53.351 449.344,56.0177 447.5,58.5C 467.482,65.08 487.816,70.58 508.5,75C 528.75,78.4779 549.084,81.4779 569.5,84C 574.383,85.0722 579.05,86.7388 583.5,89C 586.106,90.9384 587.939,93.4384 589,96.5C 590.448,116.929 587.615,136.762 580.5,156C 583.447,161.393 586.281,166.893 589,172.5C 590.418,177.428 590.751,182.428 590,187.5C 586.491,180.323 581.825,173.99 576,168.5C 577.777,174.646 578.443,180.979 578,187.5C 577.275,189.158 576.108,189.658 574.5,189C 572.291,187.127 570.458,184.96 569,182.5C 561.972,195.242 557.639,208.576 556,222.5C 555.841,227.916 555.174,233.25 554,238.5C 552.087,240.187 549.92,240.687 547.5,240C 537.467,235.461 529.467,228.628 523.5,219.5 Z"/></g>
<g><path style="opacity:1" fill="#838383" d="M 242.5,83.5 C 234.518,91.6626 224.851,96.996 213.5,99.5C 209.186,97.7075 205.519,94.8741 202.5,91C 183.176,81.9165 166.009,85.0831 151,100.5C 133.399,123.28 117.565,147.28 103.5,172.5C 103.624,173.107 103.957,173.44 104.5,173.5C 95.4938,186.17 87.4938,199.504 80.5,213.5C 73.6924,223.807 65.0257,232.307 54.5,239C 49.6162,241.741 46.1162,240.575 44,235.5C 44.4161,216.427 39.7494,198.76 30,182.5C 23.4767,192.407 20.4767,191.407 21,179.5C 21.6701,175.989 22.8368,172.656 24.5,169.5C 23.9984,168.479 23.3317,168.312 22.5,169C 17.3887,174.723 12.8887,180.89 9,187.5C 8.04791,181.638 8.71457,175.972 11,170.5C 13.5821,165.667 16.4155,161 19.5,156.5C 11.138,136.539 8.3047,115.872 11,94.5C 15.5256,88.3149 21.6922,84.8149 29.5,84C 52.9037,80.7268 76.2371,77.0601 99.5,73C 116.859,68.4939 134.192,63.9939 151.5,59.5C 150.03,56.6819 149.03,53.6819 148.5,50.5C 154.96,50.043 160.793,51.7096 166,55.5C 166.5,55.1667 167,54.8333 167.5,54.5C 164.239,48.4043 159.739,43.4043 154,39.5C 153.409,38.5165 153.743,37.8499 155,37.5C 163.994,39.5775 171.494,44.0775 177.5,51C 182.486,51.1266 187.486,50.9599 192.5,50.5C 199.776,49.9807 206.109,52.1473 211.5,57C 220.197,65.3632 228.531,74.0299 236.5,83C 238.473,83.4955 240.473,83.6621 242.5,83.5 Z"/></g>
<g><path style="opacity:1" fill="#9d9899" d="M 359.5,83.5 C 359.393,85.9032 360.393,87.7365 362.5,89C 370.138,94.9834 378.804,98.4834 388.5,99.5C 405.507,106.504 421.507,115.337 436.5,126C 458.207,141.87 478.874,159.037 498.5,177.5C 506.333,191.838 514.666,205.838 523.5,219.5C 527.108,229.38 532.274,238.38 539,246.5C 548.221,255.721 557.387,264.887 566.5,274C 564.728,275.487 562.728,275.82 560.5,275C 550.232,271.189 539.899,267.689 529.5,264.5C 530.092,267.691 531.259,270.691 533,273.5C 539.707,280.538 546.04,287.872 552,295.5C 552.483,296.448 552.649,297.448 552.5,298.5C 545.153,296.72 537.82,294.72 530.5,292.5C 529.833,292.833 529.167,293.167 528.5,293.5C 534.474,299.395 540.307,305.395 546,311.5C 549.21,315.251 550.71,319.584 550.5,324.5C 545.952,322.893 541.619,320.726 537.5,318C 531.625,315.579 525.625,315.079 519.5,316.5C 516.638,322.862 515.805,329.529 517,336.5C 520.531,357.55 523.031,378.717 524.5,400C 523.807,420.161 523.307,440.328 523,460.5C 521.493,461.535 519.993,461.368 518.5,460C 513.613,453.445 507.78,447.945 501,443.5C 500.228,443.645 499.561,443.978 499,444.5C 499.574,456.821 499.908,469.154 500,481.5C 499.732,486.65 498.732,491.65 497,496.5C 496.218,499.188 494.718,500.188 492.5,499.5C 495.382,488.353 496.216,477.019 495,465.5C 491.746,454.319 489.079,442.985 487,431.5C 484.146,424.918 482.313,418.084 481.5,411C 486.175,374.583 486.675,338.083 483,301.5C 478.756,278.762 474.089,256.095 469,233.5C 464.536,216.416 457.202,200.749 447,186.5C 422.028,161.959 392.528,154.126 358.5,163C 355.167,164.667 351.833,166.333 348.5,168C 327.316,187.516 313.149,211.349 306,239.5C 305.053,244.832 304.22,250.166 303.5,255.5C 302.833,254.167 302.167,252.833 301.5,251.5C 295.136,220.6 280.803,194.1 258.5,172C 250.837,166.669 242.504,162.669 233.5,160C 190.323,154.561 159.49,171.394 141,210.5C 133.288,231.635 127.621,253.302 124,275.5C 122.436,287.584 120.436,299.584 118,311.5C 117.333,334.833 117.333,358.167 118,381.5C 119.05,391.012 120.217,400.512 121.5,410C 118.813,422.625 115.646,435.125 112,447.5C 112.102,453.845 110.768,459.845 108,465.5C 107.663,476.432 108.496,487.266 110.5,498C 110.167,498.5 109.833,499 109.5,499.5C 105.81,495.27 103.976,490.27 104,484.5C 103.719,470.826 103.719,457.159 104,443.5C 102.132,442.328 100.298,442.495 98.5,444C 92.9321,449.737 87.2654,455.237 81.5,460.5C 80.914,460.291 80.414,459.957 80,459.5C 80.2151,434.511 80.2151,409.511 80,384.5C 81.3443,369.746 83.3443,355.079 86,340.5C 86.6667,333.833 86.6667,327.167 86,320.5C 84.3659,316.686 81.5326,314.686 77.5,314.5C 69.7986,315.687 62.7986,318.52 56.5,323C 55.2068,323.49 53.8734,323.657 52.5,323.5C 52.588,318.987 54.088,314.987 57,311.5C 62.3436,304.99 68.1769,298.99 74.5,293.5C 72.5787,292.359 70.5787,292.192 68.5,293C 62.5829,295.139 56.5829,296.973 50.5,298.5C 50.9289,294.976 52.4289,291.976 55,289.5C 59.2998,284.199 63.9664,279.199 69,274.5C 71.324,271.52 72.824,268.187 73.5,264.5C 62.7108,267.485 52.0441,270.985 41.5,275C 39.597,275.774 37.9304,275.44 36.5,274C 45.6126,264.887 54.7792,255.721 64,246.5C 70.271,238.963 75.271,230.63 79,221.5C 80.0793,218.937 80.5793,216.271 80.5,213.5C 87.4938,199.504 95.4938,186.17 104.5,173.5C 134.067,144.536 167.4,120.703 204.5,102C 207.353,100.57 210.353,99.7366 213.5,99.5C 224.851,96.996 234.518,91.6626 242.5,83.5C 281.49,78.2207 320.49,78.2207 359.5,83.5 Z"/></g>
<g><path style="opacity:1" fill="#434141" d="M 213.5,99.5 C 210.353,99.7366 207.353,100.57 204.5,102C 167.4,120.703 134.067,144.536 104.5,173.5C 103.957,173.44 103.624,173.107 103.5,172.5C 117.565,147.28 133.399,123.28 151,100.5C 166.009,85.0831 183.176,81.9165 202.5,91C 205.519,94.8741 209.186,97.7075 213.5,99.5 Z"/></g>
<g><path style="opacity:1" fill="#434141" d="M 498.5,177.5 C 478.874,159.037 458.207,141.87 436.5,126C 421.507,115.337 405.507,106.504 388.5,99.5C 390.912,96.5828 393.579,93.7494 396.5,91C 416.449,81.8061 433.949,85.3061 449,101.5C 467.323,125.655 483.823,150.988 498.5,177.5 Z"/></g>
<g><path style="opacity:1" fill="#cea167" d="M 227.5,169.5 C 227.5,169.833 227.5,170.167 227.5,170.5C 235.184,175.129 243.184,179.462 251.5,183.5C 255.507,188.679 259.34,194.012 263,199.5C 264.615,200.386 266.115,201.386 267.5,202.5C 270.613,204.64 271.946,207.64 271.5,211.5C 273.143,211.48 274.476,212.147 275.5,213.5C 277.285,217.411 279.285,221.078 281.5,224.5C 283.779,230.06 285.779,235.726 287.5,241.5C 287.157,243.483 287.824,244.817 289.5,245.5C 289.5,245.833 289.5,246.167 289.5,246.5C 289.892,248.179 290.392,249.846 291,251.5C 291.5,264.829 291.667,278.163 291.5,291.5C 272.64,293.778 253.973,297.278 235.5,302C 220.719,307.705 206.385,314.371 192.5,322C 175.802,334.691 160.302,348.858 146,364.5C 140.158,374.183 134.824,384.183 130,394.5C 127.553,368.908 126.886,343.241 128,317.5C 128.839,313.363 129.673,309.363 130.5,305.5C 132.066,301.783 133.232,297.783 134,293.5C 134.499,289.514 134.666,285.514 134.5,281.5C 137.108,264.487 140.774,247.82 145.5,231.5C 147.176,230.817 147.843,229.483 147.5,227.5C 150.162,218.166 154.162,209.499 159.5,201.5C 165.167,195.167 171.167,189.167 177.5,183.5C 179.795,182.525 181.795,181.192 183.5,179.5C 196.944,171.14 211.611,167.807 227.5,169.5 Z"/></g>
<g><path style="opacity:1" fill="#cfa167" d="M 399.5,171.5 C 404.325,172.907 408.991,174.907 413.5,177.5C 416.432,180.637 419.766,183.47 423.5,186C 425.725,186.561 427.725,187.561 429.5,189C 432.374,192.709 435.707,195.875 439.5,198.5C 443.238,201.361 445.905,205.028 447.5,209.5C 447.182,212.481 448.182,214.815 450.5,216.5C 451.338,216.842 451.672,217.508 451.5,218.5C 451.216,220.415 451.549,222.081 452.5,223.5C 454.797,231.699 457.464,239.699 460.5,247.5C 465.534,270.943 470.2,294.276 474.5,317.5C 476.121,343.366 475.454,369.032 472.5,394.5C 469.076,388.654 465.91,382.654 463,376.5C 450.332,357.161 434.832,340.328 416.5,326C 410.635,323.458 405.301,320.125 400.5,316C 390.885,310.687 380.885,306.354 370.5,303C 364.72,301.74 359.053,300.073 353.5,298C 340.347,296.375 327.347,294.209 314.5,291.5C 314.5,279.5 314.5,267.5 314.5,255.5C 315.868,245.891 318.368,236.557 322,227.5C 326.59,217.111 331.757,207.111 337.5,197.5C 339.395,196.027 341.061,194.36 342.5,192.5C 348.193,187.139 353.86,181.805 359.5,176.5C 364.084,172.906 369.417,170.739 375.5,170C 383.567,169.518 391.567,170.018 399.5,171.5 Z"/></g>
<g><path style="opacity:1" fill="#35312e" d="M 227.5,170.5 C 227.5,170.167 227.5,169.833 227.5,169.5C 234.117,169.356 239.45,171.689 243.5,176.5C 239.973,176.047 236.973,174.547 234.5,172C 232.187,171.338 229.854,170.838 227.5,170.5 Z"/></g>
<g><path style="opacity:1" fill="#282524" d="M 399.5,171.5 C 405.023,172.006 410.357,173.34 415.5,175.5C 416.826,176.642 417.826,177.976 418.5,179.5C 416.833,178.833 415.167,178.167 413.5,177.5C 408.991,174.907 404.325,172.907 399.5,171.5 Z"/></g>
<g><path style="opacity:1" fill="#a48053" d="M 227.5,170.5 C 229.854,170.838 232.187,171.338 234.5,172C 236.973,174.547 239.973,176.047 243.5,176.5C 243.5,176.833 243.5,177.167 243.5,177.5C 246.428,179.087 249.094,181.087 251.5,183.5C 243.184,179.462 235.184,175.129 227.5,170.5 Z"/></g>
<g><path style="opacity:1" fill="#4a423a" d="M 183.5,179.5 C 181.795,181.192 179.795,182.525 177.5,183.5C 178.663,181.018 180.663,179.684 183.5,179.5 Z"/></g>
<g><path style="opacity:1" fill="#453f3b" d="M 243.5,177.5 C 246.407,177.575 249.073,178.409 251.5,180C 254.631,184.133 258.131,187.966 262,191.5C 262.791,192.745 263.291,194.078 263.5,195.5C 259.86,191.194 255.86,187.194 251.5,183.5C 249.094,181.087 246.428,179.087 243.5,177.5 Z"/></g>
<g><path style="opacity:1" fill="#826542" d="M 359.5,176.5 C 353.86,181.805 348.193,187.139 342.5,192.5C 342.557,191.391 342.89,190.391 343.5,189.5C 348.273,184.386 353.606,180.052 359.5,176.5 Z"/></g>
<g><path style="opacity:1" fill="#a17e51" d="M 413.5,177.5 C 415.167,178.167 416.833,178.833 418.5,179.5C 421.159,181.164 423.825,182.83 426.5,184.5C 430.807,188.472 435.141,192.472 439.5,196.5C 439.5,197.167 439.5,197.833 439.5,198.5C 435.707,195.875 432.374,192.709 429.5,189C 427.725,187.561 425.725,186.561 423.5,186C 419.766,183.47 416.432,180.637 413.5,177.5 Z"/></g>
<g><path style="opacity:1" fill="#3e3a38" d="M 426.5,184.5 C 428.179,184.892 429.846,185.392 431.5,186C 433.311,188.978 435.644,191.478 438.5,193.5C 439.386,194.325 439.719,195.325 439.5,196.5C 435.141,192.472 430.807,188.472 426.5,184.5 Z"/></g>
<g><path style="opacity:1" fill="#413b36" d="M 177.5,183.5 C 171.167,189.167 165.167,195.167 159.5,201.5C 159.498,199.169 160.331,197.169 162,195.5C 165.651,192.349 169.151,189.016 172.5,185.5C 173.85,184.05 175.516,183.383 177.5,183.5 Z"/></g>
<g><path style="opacity:1" fill="#403a35" d="M 343.5,189.5 C 342.89,190.391 342.557,191.391 342.5,192.5C 341.061,194.36 339.395,196.027 337.5,197.5C 337.588,193.411 339.588,190.744 343.5,189.5 Z"/></g>
<g><path style="opacity:1" fill="#a48053" d="M 251.5,183.5 C 255.86,187.194 259.86,191.194 263.5,195.5C 264.861,197.85 266.194,200.184 267.5,202.5C 266.115,201.386 264.615,200.386 263,199.5C 259.34,194.012 255.507,188.679 251.5,183.5 Z"/></g>
<g><path style="opacity:1" fill="#2a2622" d="M 263.5,195.5 C 265.17,195.751 266.67,196.418 268,197.5C 270.667,201.5 273.333,205.5 276,209.5C 278.585,214.242 280.418,219.242 281.5,224.5C 279.285,221.078 277.285,217.411 275.5,213.5C 274.476,212.147 273.143,211.48 271.5,211.5C 271.946,207.64 270.613,204.64 267.5,202.5C 266.194,200.184 264.861,197.85 263.5,195.5 Z"/></g>
<g><path style="opacity:1" fill="#796247" d="M 447.5,209.5 C 448.912,211.604 449.912,213.937 450.5,216.5C 448.182,214.815 447.182,212.481 447.5,209.5 Z"/></g>
<g><path style="opacity:1" fill="#554739" d="M 451.5,218.5 C 452.931,219.903 454.098,221.569 455,223.5C 455.49,224.793 455.657,226.127 455.5,227.5C 454.143,226.41 453.143,225.076 452.5,223.5C 451.549,222.081 451.216,220.415 451.5,218.5 Z"/></g>
<g><path style="opacity:1" fill="#2f2724" d="M 204.5,226.5 C 225.122,228.288 236.788,239.455 239.5,260C 237.579,280.754 226.246,291.921 205.5,293.5C 189.789,292.953 179.289,285.287 174,270.5C 169.912,245.779 180.079,231.112 204.5,226.5 Z"/></g>
<g><path style="opacity:1" fill="#6c573e" d="M 147.5,227.5 C 147.843,229.483 147.176,230.817 145.5,231.5C 145.157,229.517 145.824,228.183 147.5,227.5 Z"/></g>
<g><path style="opacity:1" fill="#a17f55" d="M 452.5,223.5 C 453.143,225.076 454.143,226.41 455.5,227.5C 456.319,229.772 456.985,232.106 457.5,234.5C 457.12,236.698 457.787,238.365 459.5,239.5C 459.833,242.167 460.167,244.833 460.5,247.5C 457.464,239.699 454.797,231.699 452.5,223.5 Z"/></g>
<g><path style="opacity:1" fill="#302825" d="M 392.5,226.5 C 413.016,228.084 424.349,239.084 426.5,259.5C 424.897,280.27 413.73,291.603 393,293.5C 372.519,291.685 361.352,280.519 359.5,260C 362.043,240.292 373.043,229.125 392.5,226.5 Z"/></g>
<g><path style="opacity:1" fill="#4f453b" d="M 457.5,234.5 C 459.213,235.635 459.88,237.302 459.5,239.5C 457.787,238.365 457.12,236.698 457.5,234.5 Z"/></g>
<g><path style="opacity:1" fill="#ebebeb" d="M 207.5,240.5 C 212.162,239.804 216.329,240.804 220,243.5C 224.43,252.64 221.764,258.64 212,261.5C 203.928,259.694 200.594,254.694 202,246.5C 203.36,243.977 205.193,241.977 207.5,240.5 Z"/></g>
<g><path style="opacity:1" fill="#ebebeb" d="M 395.5,240.5 C 400.162,239.804 404.329,240.804 408,243.5C 412.43,252.64 409.764,258.64 400,261.5C 392.216,259.913 388.883,255.246 390,247.5C 390.967,244.379 392.8,242.046 395.5,240.5 Z"/></g>
<g><path style="opacity:1" fill="#564839" d="M 287.5,241.5 C 289.176,242.183 289.843,243.517 289.5,245.5C 287.824,244.817 287.157,243.483 287.5,241.5 Z"/></g>
<g><path style="opacity:1" fill="#716d6e" d="M 301.5,251.5 C 302.167,252.833 302.833,254.167 303.5,255.5C 303.948,265.273 303.448,274.939 302,284.5C 301.5,273.505 301.333,262.505 301.5,251.5 Z"/></g>
<g><path style="opacity:1" fill="#9b7a51" d="M 314.5,255.5 C 314.5,267.5 314.5,279.5 314.5,291.5C 313.414,291.38 312.747,290.713 312.5,289.5C 313.126,278.019 313.792,266.685 314.5,255.5 Z"/></g>
<g><path style="opacity:1" fill="#2b251f" d="M 289.5,246.5 C 290.15,246.804 290.817,247.137 291.5,247.5C 292.826,262.328 292.826,276.995 291.5,291.5C 291.667,278.163 291.5,264.829 291,251.5C 290.392,249.846 289.892,248.179 289.5,246.5 Z"/></g>
<g><path style="opacity:1" fill="#9e7e58" d="M 134.5,281.5 C 134.666,285.514 134.499,289.514 134,293.5C 133.232,297.783 132.066,301.783 130.5,305.5C 131.236,297.267 132.569,289.267 134.5,281.5 Z"/></g>
<g><path style="opacity:1" fill="#dbb88b" d="M 313.5,303.5 C 313.833,303.5 314.167,303.5 314.5,303.5C 318.657,304.449 322.99,305.116 327.5,305.5C 334.138,306.378 340.805,307.044 347.5,307.5C 350.335,309.413 353.668,310.413 357.5,310.5C 358.568,311.434 359.901,311.768 361.5,311.5C 361.5,311.833 361.5,312.167 361.5,312.5C 364.509,316.072 368.509,317.739 373.5,317.5C 374.833,317.5 376.167,317.5 377.5,317.5C 379.9,319.2 382.566,320.533 385.5,321.5C 388.833,323.833 392.167,326.167 395.5,328.5C 399.118,331.73 403.118,334.397 407.5,336.5C 419.846,346.006 431.179,356.84 441.5,369C 442.094,369.464 442.761,369.631 443.5,369.5C 443.343,370.873 443.51,372.207 444,373.5C 449.12,380.509 453.953,387.509 458.5,394.5C 459.578,397.402 460.244,400.402 460.5,403.5C 462.592,403.561 464.092,404.561 465,406.5C 467.345,411.52 469.178,416.52 470.5,421.5C 472.366,425.766 474.033,430.099 475.5,434.5C 477.057,442.398 479.057,450.065 481.5,457.5C 481.369,462.978 482.202,468.311 484,473.5C 487.693,493.967 480.859,509.634 463.5,520.5C 462.066,518.78 461.233,516.78 461,514.5C 460.623,506.991 459.289,499.658 457,492.5C 455.989,491.663 454.822,491.33 453.5,491.5C 452.963,500.159 452.463,508.826 452,517.5C 451.743,521.377 450.743,525.043 449,528.5C 441.618,534.192 433.452,536.358 424.5,535C 421.943,531.372 419.277,527.872 416.5,524.5C 407.109,535.362 395.776,543.529 382.5,549C 344.725,561.382 306.058,565.049 266.5,560C 241.588,557.921 218.921,549.921 198.5,536C 194.623,532.292 190.957,528.458 187.5,524.5C 184.295,528.386 180.961,532.22 177.5,536C 169.573,536.381 162.24,534.381 155.5,530C 153.207,525.102 151.707,519.935 151,514.5C 150.667,507.5 150.333,500.5 150,493.5C 149.692,492.692 149.192,492.025 148.5,491.5C 146.364,492.472 145.197,494.139 145,496.5C 144.333,501.833 143.667,507.167 143,512.5C 142.583,515.422 141.583,518.089 140,520.5C 122.584,509.615 115.584,493.948 119,473.5C 121.651,454.897 126.151,436.897 132.5,419.5C 139.163,406.519 146.163,393.519 153.5,380.5C 154.452,378.955 154.785,377.288 154.5,375.5C 166.914,364.59 178.914,353.09 190.5,341C 195.145,337.696 199.812,334.363 204.5,331C 206.868,330.144 209.202,329.31 211.5,328.5C 211.433,327.041 211.766,325.708 212.5,324.5C 213.167,324.5 213.5,324.167 213.5,323.5C 215.483,323.843 216.817,323.176 217.5,321.5C 219.5,321.167 221.5,320.833 223.5,320.5C 228.719,318.732 234.052,317.232 239.5,316C 240.5,315 241.5,314 242.5,313C 254.277,310.363 265.944,307.863 277.5,305.5C 289.463,303.502 301.463,302.835 313.5,303.5 Z"/></g>
<g><path style="opacity:1" fill="#8d765a" d="M 313.5,303.5 C 301.463,302.835 289.463,303.502 277.5,305.5C 285.398,303.176 293.731,301.843 302.5,301.5C 306.565,301.511 310.232,302.178 313.5,303.5 Z"/></g>
<g><path style="opacity:1" fill="#7d6341" d="M 314.5,303.5 C 319.294,302.903 323.627,303.57 327.5,305.5C 322.99,305.116 318.657,304.449 314.5,303.5 Z"/></g>
<g><path style="opacity:1" fill="#413423" d="M 347.5,307.5 C 350.522,307.804 353.522,308.304 356.5,309C 357.056,309.383 357.389,309.883 357.5,310.5C 353.668,310.413 350.335,309.413 347.5,307.5 Z"/></g>
<g><path style="opacity:1" fill="#62503a" d="M 240.5,311.5 C 240.489,313.017 239.823,314.184 238.5,315C 236.19,315.497 233.857,315.663 231.5,315.5C 234.476,314.211 237.476,312.877 240.5,311.5 Z"/></g>
<g><path style="opacity:1" fill="#9f8664" d="M 361.5,312.5 C 364.143,313.454 366.81,314.454 369.5,315.5C 371.483,315.157 372.817,315.824 373.5,317.5C 368.509,317.739 364.509,316.072 361.5,312.5 Z"/></g>
<g><path style="opacity:1" fill="#52412b" d="M 361.5,312.5 C 361.5,312.167 361.5,311.833 361.5,311.5C 364.899,311.609 367.566,312.942 369.5,315.5C 366.81,314.454 364.143,313.454 361.5,312.5 Z"/></g>
<g><path style="opacity:1" fill="#a88c68" d="M 277.5,305.5 C 265.944,307.863 254.277,310.363 242.5,313C 241.5,314 240.5,315 239.5,316C 234.052,317.232 228.719,318.732 223.5,320.5C 224.287,318.896 225.62,318.229 227.5,318.5C 227.5,317.5 227.5,316.5 227.5,315.5C 228.833,315.5 230.167,315.5 231.5,315.5C 233.857,315.663 236.19,315.497 238.5,315C 239.823,314.184 240.489,313.017 240.5,311.5C 252.592,308.082 264.925,306.082 277.5,305.5 Z"/></g>
<g><path style="opacity:1" fill="#524029" d="M 377.5,317.5 C 380.899,317.609 383.566,318.942 385.5,321.5C 382.566,320.533 379.9,319.2 377.5,317.5 Z"/></g>
<g><path style="opacity:1" fill="#786145" d="M 217.5,321.5 C 216.817,323.176 215.483,323.843 213.5,323.5C 214.183,321.824 215.517,321.157 217.5,321.5 Z"/></g>
<g><path style="opacity:1" fill="#513f28" d="M 213.5,323.5 C 213.5,324.167 213.167,324.5 212.5,324.5C 210.851,325.473 209.184,326.473 207.5,327.5C 208.122,324.224 210.122,322.891 213.5,323.5 Z"/></g>
<g><path style="opacity:1" fill="#493a26" d="M 385.5,321.5 C 391.753,322.958 397.087,325.958 401.5,330.5C 399.685,329.37 397.685,328.704 395.5,328.5C 392.167,326.167 388.833,323.833 385.5,321.5 Z"/></g>
<g><path style="opacity:1" fill="#2b2622" d="M 474.5,317.5 C 475.832,327.478 476.499,337.811 476.5,348.5C 476.487,364.237 475.487,379.904 473.5,395.5C 472.893,395.376 472.56,395.043 472.5,394.5C 475.454,369.032 476.121,343.366 474.5,317.5 Z"/></g>
<g><path style="opacity:1" fill="#453624" d="M 207.5,327.5 C 204.139,329.304 200.806,331.304 197.5,333.5C 199.148,328.998 202.482,326.998 207.5,327.5 Z"/></g>
<g><path style="opacity:1" fill="#51402b" d="M 197.5,333.5 C 195.018,335.675 192.352,337.675 189.5,339.5C 190.055,337.271 191.389,335.605 193.5,334.5C 194.689,333.571 196.022,333.238 197.5,333.5 Z"/></g>
<g><path style="opacity:1" fill="#9d8363" d="M 395.5,328.5 C 397.685,328.704 399.685,329.37 401.5,330.5C 403.219,331.022 404.552,332.022 405.5,333.5C 406.167,334.5 406.833,335.5 407.5,336.5C 403.118,334.397 399.118,331.73 395.5,328.5 Z"/></g>
<g><path style="opacity:1" fill="#52412a" d="M 405.5,333.5 C 406.873,333.343 408.207,333.51 409.5,334C 412.957,336.387 415.957,339.22 418.5,342.5C 415.271,339.718 411.604,337.718 407.5,336.5C 406.833,335.5 406.167,334.5 405.5,333.5 Z"/></g>
<g><path style="opacity:1" fill="#bb9d77" d="M 212.5,324.5 C 211.766,325.708 211.433,327.041 211.5,328.5C 209.202,329.31 206.868,330.144 204.5,331C 199.812,334.363 195.145,337.696 190.5,341C 178.914,353.09 166.914,364.59 154.5,375.5C 159.599,370.74 163.932,365.407 167.5,359.5C 175.733,353.939 183.066,347.272 189.5,339.5C 192.352,337.675 195.018,335.675 197.5,333.5C 200.806,331.304 204.139,329.304 207.5,327.5C 209.184,326.473 210.851,325.473 212.5,324.5 Z"/></g>
<g><path style="opacity:1" fill="#78644a" d="M 407.5,336.5 C 411.604,337.718 415.271,339.718 418.5,342.5C 426.479,350.145 434.479,357.812 442.5,365.5C 443.429,366.689 443.762,368.022 443.5,369.5C 442.761,369.631 442.094,369.464 441.5,369C 431.179,356.84 419.846,346.006 407.5,336.5 Z"/></g>
<g><path style="opacity:1" fill="#67553d" d="M 189.5,339.5 C 183.066,347.272 175.733,353.939 167.5,359.5C 173.091,352.905 179.091,346.572 185.5,340.5C 186.689,339.571 188.022,339.238 189.5,339.5 Z"/></g>
<g><path style="opacity:1" fill="#302826" d="M 288.5,370.5 C 298.878,370.196 309.211,370.696 319.5,372C 337.935,376.399 344.435,387.565 339,405.5C 332.546,415.321 323.712,422.155 312.5,426C 307.796,430.883 306.296,436.717 308,443.5C 309.122,445.624 310.622,447.457 312.5,449C 324.464,451.899 335.297,457.066 345,464.5C 345.749,465.635 345.583,466.635 344.5,467.5C 342.224,468.213 339.891,468.713 337.5,469C 313.5,469.667 289.5,469.667 265.5,469C 262.242,468.997 259.575,467.83 257.5,465.5C 261.324,462.421 265.324,459.588 269.5,457C 277.02,453.605 284.687,450.605 292.5,448C 298.186,440.144 297.519,432.81 290.5,426C 279.773,422.241 271.273,415.741 265,406.5C 259.142,393.085 262.309,382.585 274.5,375C 279.191,373.131 283.858,371.631 288.5,370.5 Z"/></g>
<g><path style="opacity:1" fill="#665239" d="M 167.5,359.5 C 163.932,365.407 159.599,370.74 154.5,375.5C 154.167,375.5 153.833,375.5 153.5,375.5C 153.238,374.022 153.571,372.689 154.5,371.5C 158.573,367.088 162.907,363.088 167.5,359.5 Z"/></g>
<g><path style="opacity:1" fill="#745f43" d="M 153.5,375.5 C 153.843,377.483 153.176,378.817 151.5,379.5C 151.157,377.517 151.824,376.183 153.5,375.5 Z"/></g>
<g><path style="opacity:1" fill="#7d684c" d="M 443.5,369.5 C 444.735,369.721 445.735,370.388 446.5,371.5C 448.688,376.608 451.688,381.108 455.5,385C 456.607,388.154 457.607,391.32 458.5,394.5C 453.953,387.509 449.12,380.509 444,373.5C 443.51,372.207 443.343,370.873 443.5,369.5 Z"/></g>
<g><path style="opacity:1" fill="#4a3b28" d="M 151.5,379.5 C 150.14,381.54 148.807,383.54 147.5,385.5C 146.891,382.122 148.224,380.122 151.5,379.5 Z"/></g>
<g><path style="opacity:1" fill="#9e8462" d="M 153.5,375.5 C 153.833,375.5 154.167,375.5 154.5,375.5C 154.785,377.288 154.452,378.955 153.5,380.5C 146.163,393.519 139.163,406.519 132.5,419.5C 132.888,416.121 133.555,412.788 134.5,409.5C 138.382,401.057 142.715,393.057 147.5,385.5C 148.807,383.54 150.14,381.54 151.5,379.5C 153.176,378.817 153.843,377.483 153.5,375.5 Z"/></g>
<g><path style="opacity:1" fill="#9e8462" d="M 458.5,394.5 C 465.415,402.014 469.415,411.014 470.5,421.5C 469.178,416.52 467.345,411.52 465,406.5C 464.092,404.561 462.592,403.561 460.5,403.5C 460.244,400.402 459.578,397.402 458.5,394.5 Z"/></g>
<g><path style="opacity:1" fill="#464341" d="M 475.5,434.5 C 476.117,434.611 476.617,434.944 477,435.5C 479.138,442.716 480.638,450.049 481.5,457.5C 479.057,450.065 477.057,442.398 475.5,434.5 Z"/></g>
</svg>
