<?xml version="1.0" encoding="UTF-8"?>
<!DOCTYPE svg PUBLIC "-//W3C//DTD SVG 1.1//EN" "http://www.w3.org/Graphics/SVG/1.1/DTD/svg11.dtd">
<svg xmlns="http://www.w3.org/2000/svg" version="1.1" width="600px" height="600px" style="shape-rendering:geometricPrecision; text-rendering:geometricPrecision; image-rendering:optimizeQuality; fill-rule:evenodd; clip-rule:evenodd" xmlns:xlink="http://www.w3.org/1999/xlink">
<g><path style="opacity:0.969" fill="#030100" d="M 133.5,-0.5 C 141.5,-0.5 149.5,-0.5 157.5,-0.5C 179.206,6.33165 197.373,18.665 212,36.5C 224.094,51.684 236.428,66.684 249,81.5C 253.336,87.2027 259.003,90.2027 266,90.5C 288.668,87.8518 311.335,87.8518 334,90.5C 339.129,90.475 343.962,89.3084 348.5,87C 352,83.5 355.5,80 359,76.5C 368.667,63.5 378.333,50.5 388,37.5C 403.936,17.7984 424.102,5.13174 448.5,-0.5C 454.833,-0.5 461.167,-0.5 467.5,-0.5C 473.734,2.56421 478.567,7.23088 482,13.5C 489.397,27.6899 494.397,42.6899 497,58.5C 502.619,94.6273 502.786,130.794 497.5,167C 498.044,173.943 499.211,180.776 501,187.5C 538.042,241.045 552.042,300.045 543,364.5C 542,365.167 541,365.833 540,366.5C 540.843,393.931 536.843,420.597 528,446.5C 523.549,453.83 518.716,454.163 513.5,447.5C 495.317,495.185 463.317,530.352 417.5,553C 411.313,554.742 407.313,552.575 405.5,546.5C 375.915,569.127 343.582,586.794 308.5,599.5C 302.167,599.5 295.833,599.5 289.5,599.5C 254.654,587.745 222.654,570.745 193.5,548.5C 189.941,553.601 185.274,554.767 179.5,552C 134.173,529.342 103.006,494.175 86,446.5C 82.9375,451.869 78.7708,452.869 73.5,449.5C 69.2859,442.732 66.4525,435.399 65,427.5C 60.5582,407.415 58.5582,387.081 59,366.5C 54.6704,364.179 52.6704,360.512 53,355.5C 48.5518,295.956 62.5518,241.289 95,191.5C 96.3134,187.58 97.3134,183.58 98,179.5C 96.4028,150.534 95.7361,121.534 96,92.5C 96.9209,66.5532 102.921,41.8865 114,18.5C 118.435,9.89678 124.935,3.56345 133.5,-0.5 Z"/></g>
<g><path style="opacity:1" fill="#9b4b15" d="M 527.5,345.5 C 521.783,337.605 515.449,330.105 508.5,323C 507.517,322.409 506.85,322.743 506.5,324C 519.463,358.746 519.797,393.579 507.5,428.5C 506.685,429.837 505.518,430.837 504,431.5C 503.299,434.327 502.299,436.994 501,439.5C 499.16,425.787 495.327,412.787 489.5,400.5C 487.012,396.259 484.012,392.425 480.5,389C 478.512,388.82 476.512,388.986 474.5,389.5C 474.174,421.662 463.174,449.495 441.5,473C 431.325,463.4 419.325,456.566 405.5,452.5C 392.293,468.539 377.293,482.706 360.5,495C 309.532,524.76 262.198,519.76 218.5,480C 210.061,471.902 202.394,463.235 195.5,454C 192.134,453.67 188.801,454.003 185.5,455C 178.258,457.621 171.592,461.288 165.5,466C 162.724,468.394 160.557,471.227 159,474.5C 145.064,460.931 135.064,444.931 129,426.5C 126.194,415.33 124.361,403.997 123.5,392.5C 122.901,389.032 120.901,387.865 117.5,389C 105.708,404.029 99.2076,421.195 98,440.5C 95.6235,434.906 92.7902,429.572 89.5,424.5C 80.7864,395.009 80.2864,365.343 88,335.5C 89.2221,331.39 90.7221,327.39 92.5,323.5C 91.9984,322.479 91.3317,322.312 90.5,323C 83.5423,328.951 77.7089,335.785 73,343.5C 71.3775,344.099 69.8775,344.766 68.5,345.5C 65.7606,349.304 63.2606,353.304 61,357.5C 55.8952,298.584 69.5619,244.584 102,195.5C 103.587,190.232 104.92,184.899 106,179.5C 105.086,156.044 104.253,132.544 103.5,109C 102.715,83.4404 106.549,58.6071 115,34.5C 118.557,24.3039 124.39,15.8039 132.5,9C 143.993,5.575 155.327,6.24166 166.5,11C 180.548,17.6138 192.714,26.7805 203,38.5C 218.084,57.5887 233.918,76.0887 250.5,94C 254.796,97.1175 259.629,98.6175 265,98.5C 288.006,95.8664 311.006,95.8664 334,98.5C 338.954,98.3868 343.787,97.5535 348.5,96C 352.951,93.2171 357.117,90.0504 361,86.5C 373.05,71.4508 384.717,56.1175 396,40.5C 408.555,25.605 424.055,15.105 442.5,9C 451.214,7.1003 459.881,7.1003 468.5,9C 477.906,20.1875 484.073,33.0208 487,47.5C 491.532,67.5783 493.698,87.9117 493.5,108.5C 492.936,127.692 491.936,146.859 490.5,166C 489.807,175.532 491.307,184.698 495,193.5C 529.155,242.449 543.155,296.783 537,356.5C 535.03,353.032 532.864,349.699 530.5,346.5C 529.675,345.614 528.675,345.281 527.5,345.5 Z"/></g>
<g><path style="opacity:1" fill="#060301" d="M 174.5,126.5 C 171.167,129.167 168.167,132.167 165.5,135.5C 160.547,139.058 155.047,141.392 149,142.5C 145.619,140.978 142.119,139.644 138.5,138.5C 136.5,138.5 134.5,138.5 132.5,138.5C 132.5,136.167 132.5,133.833 132.5,131.5C 135.601,123.764 137.434,115.764 138,107.5C 137.275,106.941 136.442,106.608 135.5,106.5C 131.696,107.934 127.863,109.268 124,110.5C 123.167,110.167 122.333,109.833 121.5,109.5C 124.805,104.362 128.305,99.3617 132,94.5C 133.707,92.0912 134.54,89.4245 134.5,86.5C 130.462,86.9578 126.462,87.6245 122.5,88.5C 125.229,83.6086 129.229,79.7753 134.5,77C 136.359,75.4422 137.859,73.6089 139,71.5C 140.573,60.8633 141.906,50.1966 143,39.5C 143.871,35.016 145.204,30.6827 147,26.5C 149.332,23.2091 152.165,22.7091 155.5,25C 162.149,31.312 167.649,38.4786 172,46.5C 177.204,57.2284 181.537,68.2284 185,79.5C 188.894,96.9154 185.394,112.582 174.5,126.5 Z"/></g>
<g><path style="opacity:1" fill="#070301" d="M 444.5,23.5 C 446.827,23.2471 448.827,23.9137 450.5,25.5C 451.942,28.0496 453.108,30.7163 454,33.5C 456.396,45.7306 458.063,58.0639 459,70.5C 464.046,77.0473 469.88,82.714 476.5,87.5C 475.667,87.8333 474.833,88.1667 474,88.5C 470.593,87.3076 467.093,86.641 463.5,86.5C 465.845,93.6908 469.679,100.024 475,105.5C 476.009,107.025 476.509,108.692 476.5,110.5C 471.213,108.96 465.88,107.626 460.5,106.5C 460.335,109.518 460.502,112.518 461,115.5C 463.63,122.681 465.297,130.014 466,137.5C 463.382,138.738 460.715,138.738 458,137.5C 455.888,138.608 454.054,140.108 452.5,142C 446.692,142.734 441.359,141.401 436.5,138C 419.046,125.594 410.88,108.761 412,87.5C 416.046,66.0021 424.713,46.6688 438,29.5C 440.063,27.2659 442.229,25.2659 444.5,23.5 Z"/></g>
<g><path style="opacity:1" fill="#432e1d" d="M 151.5,28.5 C 160.348,36.5511 167.181,46.2178 172,57.5C 178.501,71.495 181.501,86.1617 181,101.5C 177.784,114.377 170.951,124.877 160.5,133C 157.267,135.079 153.767,136.579 150,137.5C 147.672,137.183 145.839,136.016 144.5,134C 142.19,133.503 139.857,133.337 137.5,133.5C 139.495,125.846 141.495,118.179 143.5,110.5C 143.21,104.21 139.877,100.877 133.5,100.5C 137.919,96.0081 139.752,90.6747 139,84.5C 137.978,83.646 137.145,82.646 136.5,81.5C 139.188,78.646 141.688,75.646 144,72.5C 145.213,61.1515 146.547,49.8182 148,38.5C 148.866,35.0209 150.033,31.6876 151.5,28.5 Z"/></g>
<g><path style="opacity:1" fill="#432e1d" d="M 445.5,28.5 C 446.376,28.3691 447.043,28.7025 447.5,29.5C 451.053,42.9175 453.22,56.5841 454,70.5C 455.493,74.8307 457.993,78.4973 461.5,81.5C 459.202,83.7497 458.369,86.4164 459,89.5C 460.267,93.8692 462.433,97.7025 465.5,101C 455.896,101.336 452.729,106.17 456,115.5C 457.66,121.142 459.16,126.809 460.5,132.5C 458.801,132.34 457.134,132.506 455.5,133C 453.223,134.959 450.723,136.459 448,137.5C 425.076,127.654 415.076,110.321 418,85.5C 421.849,63.8053 431.016,44.8053 445.5,28.5 Z"/></g>
<g><path style="opacity:1" fill="#5d2e0d" d="M 174.5,126.5 C 172.5,130.5 169.5,133.5 165.5,135.5C 168.167,132.167 171.167,129.167 174.5,126.5 Z"/></g>
<g><path style="opacity:1" fill="#4f270d" d="M 132.5,131.5 C 132.5,133.833 132.5,136.167 132.5,138.5C 134.5,138.5 136.5,138.5 138.5,138.5C 136.393,139.468 134.059,139.802 131.5,139.5C 131.194,136.615 131.527,133.948 132.5,131.5 Z"/></g>
<g><path style="opacity:1" fill="#010000" d="M 223.5,242.5 C 235.512,240.653 245.345,244.32 253,253.5C 257.951,262.018 261.117,271.184 262.5,281C 262.297,283.406 261.297,285.406 259.5,287C 237.796,287.878 218.963,281.045 203,266.5C 194.115,256.212 196.282,249.379 209.5,246C 214.295,244.801 218.962,243.634 223.5,242.5 Z"/></g>
<g><path style="opacity:1" fill="#010000" d="M 363.5,242.5 C 376.843,241.875 389.01,245.209 400,252.5C 400.912,256.452 400.245,260.119 398,263.5C 381.121,281.79 360.787,288.79 337,284.5C 336.843,273.796 339.51,263.796 345,254.5C 349.513,247.798 355.679,243.798 363.5,242.5 Z"/></g>
<g><path style="opacity:1" fill="#ebebeb" d="M 242.5,254.5 C 247.33,255.156 249.163,257.823 248,262.5C 243.501,266.9 240.001,266.233 237.5,260.5C 238.465,257.872 240.132,255.872 242.5,254.5 Z"/></g>
<g><path style="opacity:1" fill="#f1f1f1" d="M 352.5,255.5 C 360.44,254.937 362.44,258.104 358.5,265C 350.424,265.805 348.424,262.638 352.5,255.5 Z"/></g>
<g><path style="opacity:1" fill="#432e1d" d="M 387.5,376.5 C 385.349,388.635 379.683,398.802 370.5,407C 364.003,412.085 357.003,416.418 349.5,420C 344.599,421.325 339.599,421.825 334.5,421.5C 327.313,418.573 320.313,415.073 313.5,411C 303.5,407.667 293.5,407.667 283.5,411C 277.235,414.798 270.902,418.298 264.5,421.5C 257.939,422.081 251.605,421.248 245.5,419C 229.022,410.005 217.688,396.505 211.5,378.5C 213.115,369.262 216.949,360.928 223,353.5C 272.366,291.587 322.699,290.92 374,351.5C 380.103,359.044 384.603,367.378 387.5,376.5 Z"/></g>
<g><path style="opacity:1" fill="#442e1d" d="M 527.5,345.5 C 534.026,377.455 532.026,408.788 521.5,439.5C 519.213,434.39 516.88,429.223 514.5,424C 513.5,423.333 512.5,423.333 511.5,424C 510.717,426.118 509.384,427.618 507.5,428.5C 519.797,393.579 519.463,358.746 506.5,324C 506.85,322.743 507.517,322.409 508.5,323C 515.449,330.105 521.783,337.605 527.5,345.5 Z"/></g>
<g><path style="opacity:1" fill="#442e1d" d="M 89.5,424.5 C 87.6089,423.464 85.7755,423.464 84,424.5C 81.9284,428.642 80.4284,432.975 79.5,437.5C 78.8333,438.167 78.1667,438.833 77.5,439.5C 67.021,408.709 65.021,377.376 71.5,345.5C 70.5,345.5 69.5,345.5 68.5,345.5C 69.8775,344.766 71.3775,344.099 73,343.5C 77.7089,335.785 83.5423,328.951 90.5,323C 91.3317,322.312 91.9984,322.479 92.5,323.5C 90.7221,327.39 89.2221,331.39 88,335.5C 80.2864,365.343 80.7864,395.009 89.5,424.5 Z"/></g>
<g><path style="opacity:1" fill="#010202" d="M 289.5,338.5 C 303.852,337.558 317.519,340.058 330.5,346C 334.916,348.998 337.082,353.165 337,358.5C 338.509,365.757 337.175,372.423 333,378.5C 315.768,397.952 296.268,400.786 274.5,387C 269.396,382.57 265.063,377.57 261.5,372C 257.724,357.552 262.724,347.552 276.5,342C 281.012,341.038 285.345,339.871 289.5,338.5 Z"/></g>
<g><path style="opacity:1" fill="#040202" d="M 211.5,378.5 C 217.688,396.505 229.022,410.005 245.5,419C 251.605,421.248 257.939,422.081 264.5,421.5C 264.806,429.868 265.473,438.201 266.5,446.5C 254.255,435.376 241.255,425.21 227.5,416C 217.096,406.091 209.763,394.257 205.5,380.5C 206.739,376.364 208.739,375.698 211.5,378.5 Z"/></g>
<g><path style="opacity:1" fill="#030202" d="M 387.5,376.5 C 389.144,376.286 390.644,376.62 392,377.5C 392.546,380.899 392.213,384.232 391,387.5C 385.477,399.694 377.644,410.194 367.5,419C 354.714,426.728 343.047,435.895 332.5,446.5C 333.629,438.21 334.296,429.876 334.5,421.5C 339.599,421.825 344.599,421.325 349.5,420C 357.003,416.418 364.003,412.085 370.5,407C 379.683,398.802 385.349,388.635 387.5,376.5 Z"/></g>
<g><path style="opacity:1" fill="#432e1d" d="M 117.5,397.5 C 119.489,416.837 124.656,435.171 133,452.5C 135.755,454.01 136.921,456.343 136.5,459.5C 139.779,460.031 141.113,462.031 140.5,465.5C 145.031,468.016 149.031,471.349 152.5,475.5C 153.386,476.325 153.719,477.325 153.5,478.5C 156.271,480.086 159.271,480.586 162.5,480C 164.855,475.135 168.189,470.968 172.5,467.5C 177.988,465.139 183.322,462.639 188.5,460C 193.152,458.84 195.152,460.673 194.5,465.5C 195.675,465.281 196.675,465.614 197.5,466.5C 205.167,474.167 212.833,481.833 220.5,489.5C 221.386,490.325 221.719,491.325 221.5,492.5C 225.917,492.258 228.583,494.258 229.5,498.5C 232.567,499.195 235.567,500.195 238.5,501.5C 239.386,502.325 239.719,503.325 239.5,504.5C 245.024,506.259 250.358,508.592 255.5,511.5C 286.253,522.513 316.586,522.013 346.5,510C 369.602,497.938 389.269,481.438 405.5,460.5C 407.074,459.369 408.741,459.202 410.5,460C 414.187,462.295 418.187,464.128 422.5,465.5C 423.386,466.325 423.719,467.325 423.5,468.5C 429.61,469.766 433.776,473.433 436,479.5C 438.132,480.78 440.298,480.78 442.5,479.5C 464.475,459.783 476.641,435.116 479,405.5C 479.822,403.212 480.489,400.878 481,398.5C 489.175,412.655 493.841,427.988 495,444.5C 496.066,447.563 498.233,449.063 501.5,449C 485.189,490.645 457.022,521.478 417,541.5C 417.658,534.24 414.492,531.073 407.5,532C 382.135,551.692 354.801,568.359 325.5,582C 316.987,585.838 308.153,588.671 299,590.5C 281.373,586.105 264.54,579.605 248.5,571C 228.422,560.242 209.422,547.908 191.5,534C 186.096,533.382 182.93,535.882 182,541.5C 143.971,521.472 116.305,491.805 99,452.5C 98.51,451.207 98.3433,449.873 98.5,448.5C 99.8221,448.67 100.989,448.337 102,447.5C 103.549,436.581 105.883,425.915 109,415.5C 112.502,409.826 115.336,403.826 117.5,397.5 Z"/></g>
<g><path style="opacity:1" fill="#f2a293" d="M 334.5,421.5 C 334.296,429.876 333.629,438.21 332.5,446.5C 331.786,462.157 326.12,475.657 315.5,487C 292.572,496.155 277.405,488.988 270,465.5C 267.867,459.337 266.701,453.004 266.5,446.5C 265.473,438.201 264.806,429.868 264.5,421.5C 270.902,418.298 277.235,414.798 283.5,411C 293.5,407.667 303.5,407.667 313.5,411C 320.313,415.073 327.313,418.573 334.5,421.5 Z"/></g>
</svg>
