<?xml version="1.0" encoding="UTF-8"?>
<!DOCTYPE svg PUBLIC "-//W3C//DTD SVG 1.1//EN" "http://www.w3.org/Graphics/SVG/1.1/DTD/svg11.dtd">
<svg xmlns="http://www.w3.org/2000/svg" version="1.1" width="600px" height="600px" style="shape-rendering:geometricPrecision; text-rendering:geometricPrecision; image-rendering:optimizeQuality; fill-rule:evenodd; clip-rule:evenodd" xmlns:xlink="http://www.w3.org/1999/xlink">
<g><path style="opacity:0.953" fill="#000000" d="M 75.5,-0.5 C 82.1667,-0.5 88.8333,-0.5 95.5,-0.5C 107.361,4.43466 118.361,10.9347 128.5,19C 148.136,36.9679 167.469,55.3012 186.5,74C 191.382,78.6303 197.215,81.1303 204,81.5C 219.93,79.226 235.764,76.3926 251.5,73C 281.833,68.3333 312.167,68.3333 342.5,73C 358.268,76.2204 374.102,79.0538 390,81.5C 395.809,81.4244 400.976,79.591 405.5,76C 426.23,55.267 447.564,35.267 469.5,16C 478.711,8.93101 488.711,3.43101 499.5,-0.5C 505.833,-0.5 512.167,-0.5 518.5,-0.5C 532.581,5.4217 542.081,15.755 547,30.5C 552.229,45.4153 555.562,60.7486 557,76.5C 559.932,123.059 557.765,169.393 550.5,215.5C 555.225,236.179 560.058,256.845 565,277.5C 580.163,366.226 557.496,443.559 497,509.5C 450.49,558.009 393.99,588.009 327.5,599.5C 307.833,599.5 288.167,599.5 268.5,599.5C 177.754,582.236 108.92,533.903 62,454.5C 28.3874,392.615 20.3874,327.948 38,260.5C 40.297,251.276 42.797,242.109 45.5,233C 41.0474,201.974 37.8807,170.807 36,139.5C 35.1543,118.144 35.4876,96.811 37,75.5C 38.2852,52.6614 44.9519,31.6614 57,12.5C 62.2609,6.71711 68.4276,2.38378 75.5,-0.5 Z"/></g>
<g><path style="opacity:1" fill="#342e27" d="M 77.5,9.5 C 88.5275,8.01136 98.5275,10.5114 107.5,17C 117.072,23.2358 126.072,30.2358 134.5,38C 150.833,53.6667 167.167,69.3333 183.5,85C 189.51,89.7117 196.343,91.8784 204,91.5C 223.495,88.4685 242.995,85.3019 262.5,82C 284.833,80 307.167,80 329.5,82C 346.894,84.612 364.228,87.612 381.5,91C 393.392,93.027 404.059,90.3604 413.5,83C 427.862,68.3041 442.529,53.9707 457.5,40C 469.587,28.1211 483.254,18.4545 498.5,11C 510.632,7.07275 520.798,9.90609 529,19.5C 534.609,27.3865 538.609,36.0531 541,45.5C 547.104,72.1521 549.437,99.1521 548,126.5C 546.372,155.906 543.872,185.24 540.5,214.5C 540.575,218.555 541.075,222.555 542,226.5C 550.032,253.363 555.699,280.696 559,308.5C 563.097,373.809 545.097,432.142 505,483.5C 454.849,546.002 389.682,581.502 309.5,590C 271.732,591.38 235.732,584.046 201.5,568C 128.177,532.885 77.6771,477.052 50,400.5C 38.8855,363.379 36.5521,325.713 43,287.5C 46.6245,268.506 50.7912,249.673 55.5,231C 51.1312,196.277 47.9646,161.443 46,126.5C 44.7805,100.239 46.7805,74.2389 52,48.5C 54.9964,34.6684 61.4964,22.8351 71.5,13C 73.7274,12.059 75.7274,10.8923 77.5,9.5 Z"/></g>
<g><path style="opacity:1" fill="#2c2721" d="M 90.5,33.5 C 97.3188,33.6217 103.652,35.455 109.5,39C 119.987,46.6728 129.82,55.1728 139,64.5C 150.378,77.5421 161.378,90.8754 172,104.5C 177.559,111.784 181.059,119.951 182.5,129C 182.506,131.3 182.006,133.466 181,135.5C 149.833,164.667 118.667,193.833 87.5,223C 81.4318,226.044 76.9318,224.544 74,218.5C 71.5735,212.368 69.9068,206.034 69,199.5C 63.6324,164.688 61.6324,129.688 63,94.5C 63.5324,76.4955 67.8658,59.4955 76,43.5C 79.6886,38.2804 84.5219,34.9471 90.5,33.5 Z"/></g>
<g><path style="opacity:1" fill="#2c2721" d="M 499.5,33.5 C 508.066,33.5773 514.566,37.244 519,44.5C 526.29,58.9398 530.29,74.2732 531,90.5C 533.412,132.219 530.412,173.552 522,214.5C 520.631,219.7 517.464,223.033 512.5,224.5C 509.972,224.237 507.639,223.404 505.5,222C 475,193.5 444.5,165 414,136.5C 411.377,130.172 411.71,123.839 415,117.5C 432.469,88.6872 454.302,63.5206 480.5,42C 486.446,38.0218 492.779,35.1885 499.5,33.5 Z"/></g>
<g><path style="opacity:1" fill="#020303" d="M 214.5,285.5 C 223.547,284.347 231.881,286.18 239.5,291C 249.95,299.401 255.45,310.235 256,323.5C 255.5,324 255,324.5 254.5,325C 248.038,325.709 241.705,327.043 235.5,329C 224.942,331.764 214.942,330.43 205.5,325C 198.352,319.85 191.852,314.017 186,307.5C 185.333,306.167 185.333,304.833 186,303.5C 194.072,295.058 203.572,289.058 214.5,285.5 Z"/></g>
<g><path style="opacity:1" fill="#010202" d="M 372.5,285.5 C 389.27,284.803 403.103,290.803 414,303.5C 414.667,305.167 414.667,306.833 414,308.5C 406.153,317.688 396.653,324.521 385.5,329C 381.176,329.582 376.843,330.082 372.5,330.5C 363.544,328.511 354.544,326.678 345.5,325C 345.176,305.487 354.176,292.32 372.5,285.5 Z"/></g>
<g><path style="opacity:1" fill="#f3e9de" d="M 231.5,302.5 C 237.643,303.026 238.976,305.86 235.5,311C 230.504,311.664 228.67,309.498 230,304.5C 230.717,303.956 231.217,303.289 231.5,302.5 Z"/></g>
<g><path style="opacity:1" fill="#e6ddd2" d="M 364.5,302.5 C 371.486,302.331 373.153,305.164 369.5,311C 362.416,311.475 360.749,308.642 364.5,302.5 Z"/></g>
<g><path style="opacity:1" fill="#010202" d="M 287.5,371.5 C 304.496,369.934 320.829,372.434 336.5,379C 348.025,386.909 351.525,397.409 347,410.5C 342.648,422.187 334.814,430.687 323.5,436C 298.568,447.147 277.068,442.314 259,421.5C 245.727,401.718 249.561,386.551 270.5,376C 276.276,374.419 281.942,372.919 287.5,371.5 Z"/></g>
<g><path style="opacity:1" fill="#020202" d="M 255.5,477.5 C 257.058,489.848 258.725,502.181 260.5,514.5C 250.009,500.499 238.176,487.499 225,475.5C 219.394,468.218 215.061,460.218 212,451.5C 210.984,452.634 210.317,452.301 210,450.5C 206.54,439.326 203.706,427.992 201.5,416.5C 203.007,412.165 205.507,411.498 209,414.5C 210.826,433.645 216.826,451.312 227,467.5C 234.516,476.505 244.016,479.839 255.5,477.5 Z"/></g>
<g><path style="opacity:1" fill="#010202" d="M 340.5,512.5 C 342.075,500.807 343.742,489.141 345.5,477.5C 351.934,477.475 358.267,476.642 364.5,475C 367.63,472.872 370.463,470.372 373,467.5C 378.054,460.058 382.054,452.058 385,443.5C 387.822,433.877 390.489,424.211 393,414.5C 395.085,413.353 396.585,414.02 397.5,416.5C 394.368,432.696 389.535,448.363 383,463.5C 380.888,467.278 378.388,470.778 375.5,474C 369.12,481.4 361.954,488.9 354,496.5C 350.011,502.317 345.511,507.651 340.5,512.5 Z"/></g>
<g><path style="opacity:1" fill="#f1a293" d="M 345.5,477.5 C 343.742,489.141 342.075,500.807 340.5,512.5C 338.527,519.847 336.36,527.18 334,534.5C 325.279,556.61 309.446,564.443 286.5,558C 277.935,553.397 271.768,546.564 268,537.5C 265.029,529.936 262.529,522.27 260.5,514.5C 258.725,502.181 257.058,489.848 255.5,477.5C 269.69,472.109 284.357,468.109 299.5,465.5C 305.971,465.867 312.304,467.034 318.5,469C 327.522,472.176 336.522,475.009 345.5,477.5 Z"/></g>
</svg>
