<?xml version="1.0" encoding="UTF-8"?>
<!DOCTYPE svg PUBLIC "-//W3C//DTD SVG 1.1//EN" "http://www.w3.org/Graphics/SVG/1.1/DTD/svg11.dtd">
<svg xmlns="http://www.w3.org/2000/svg" version="1.1" width="600px" height="600px" style="shape-rendering:geometricPrecision; text-rendering:geometricPrecision; image-rendering:optimizeQuality; fill-rule:evenodd; clip-rule:evenodd" xmlns:xlink="http://www.w3.org/1999/xlink">
<g><path style="opacity:0.963" fill="#050404" d="M 256.5,-0.5 C 260.833,-0.5 265.167,-0.5 269.5,-0.5C 281.333,5.09889 291.333,13.0989 299.5,23.5C 308.031,13.5798 318.031,5.57978 329.5,-0.5C 333.833,-0.5 338.167,-0.5 342.5,-0.5C 343.555,2.07283 343.722,4.73949 343,7.5C 340.095,12.1295 336.595,16.2962 332.5,20C 336.439,18.5903 340.605,17.7569 345,17.5C 351.015,16.5745 354.182,19.0745 354.5,25C 354.204,28.3871 353.204,31.5537 351.5,34.5C 366.194,39.5056 380.527,45.6722 394.5,53C 401.784,57.9497 408.784,63.2831 415.5,69C 428.03,73.2632 439.363,79.5965 449.5,88C 467.636,104.466 481.469,123.966 491,146.5C 498.643,169.74 505.976,193.073 513,216.5C 520.569,232.642 528.903,248.309 538,263.5C 541.683,271.531 545.35,279.531 549,287.5C 553.872,310.861 558.872,334.195 564,357.5C 569.437,374.372 575.437,391.039 582,407.5C 593.937,438.79 598.604,471.123 596,504.5C 592.098,552.383 567.598,584.05 522.5,599.5C 500.167,599.5 477.833,599.5 455.5,599.5C 437.938,596.122 423.105,587.789 411,574.5C 403.327,564.14 399.327,552.474 399,539.5C 389.144,546.087 378.311,548.254 366.5,546C 356.913,543.706 348.246,539.539 340.5,533.5C 314.012,538.824 287.512,538.824 261,533.5C 255.844,536.651 250.677,539.818 245.5,543C 234.698,546.753 223.698,547.42 212.5,545C 207.919,543.129 203.752,540.629 200,537.5C 199.365,560.436 189.199,577.602 169.5,589C 160.387,593.402 151.054,596.902 141.5,599.5C 120.833,599.5 100.167,599.5 79.5,599.5C 39.2884,587.448 14.7884,560.782 6,519.5C 0.893968,493.36 1.56063,467.36 8,441.5C 11.7272,427.318 16.0606,413.318 21,399.5C 26.7905,386.129 31.7905,372.462 36,358.5C 40.7857,335.119 45.7857,311.785 51,288.5C 52.4696,283.757 54.1363,279.091 56,274.5C 66.2548,255.658 76.2548,236.658 86,217.5C 93.3333,194.167 100.667,170.833 108,147.5C 119.162,120.012 136.662,97.5124 160.5,80C 168.667,74.9164 177.334,70.9164 186.5,68C 204.741,52.711 225.408,41.8777 248.5,35.5C 240.65,22.203 244.317,16.3696 259.5,18C 261.844,19.0277 264.177,19.6943 266.5,20C 262.881,15.9259 259.381,11.7593 256,7.5C 255.398,4.77946 255.565,2.11279 256.5,-0.5 Z"/></g>
<g><path style="opacity:1" fill="#f6e1d4" d="M 266.5,8.5 C 279.59,13.0412 289.757,21.7078 297,34.5C 299.267,35.9348 301.267,35.6015 303,33.5C 306.118,28.7139 309.618,24.2139 313.5,20C 318.977,15.0937 324.977,10.9271 331.5,7.5C 330.994,10.6048 329.16,13.2715 326,15.5C 323.667,19.1667 321.333,22.8333 319,26.5C 317.086,29.2975 316.086,32.2975 316,35.5C 318.153,37.4439 320.653,37.9439 323.5,37C 328.138,32.3457 333.471,28.679 339.5,26C 341.902,25.1859 344.235,25.3526 346.5,26.5C 345.169,29.8338 343.335,32.8338 341,35.5C 340.333,37.1667 340.333,38.8333 341,40.5C 348.019,43.0403 355.185,45.207 362.5,47C 365.28,48.8123 367.78,50.979 370,53.5C 370.755,56.3033 370.422,58.9699 369,61.5C 359.783,69.051 350.283,76.2176 340.5,83C 317.933,103.217 306.933,128.55 307.5,159C 307.318,191.838 315.818,222.005 333,249.5C 351.079,275.32 368.412,301.653 385,328.5C 392.726,342.828 399.393,357.495 405,372.5C 409.554,392.902 411.887,413.569 412,434.5C 412.829,459.236 411.829,483.903 409,508.5C 401.849,533.148 386.015,542.315 361.5,536C 349.39,530.301 338.39,522.968 328.5,514C 320.254,507.218 310.921,503.052 300.5,501.5C 293.749,501.806 287.582,503.806 282,507.5C 274.209,512.957 266.709,518.791 259.5,525C 253.243,528.134 247.243,531.801 241.5,536C 215.523,542.929 199.023,533.429 192,507.5C 186.393,468.222 186.059,428.889 191,389.5C 193.205,375.888 197.205,362.888 203,350.5C 207.87,341.518 212.537,332.518 217,323.5C 236.667,294.167 256.333,264.833 276,235.5C 292.82,201.216 297.487,165.216 290,127.5C 285.568,111.812 277.401,98.3124 265.5,87C 255.186,78.843 244.52,71.1764 233.5,64C 227.898,58.6082 228.232,53.6082 234.5,49C 242.219,45.761 250.053,42.9277 258,40.5C 258.667,38.8333 258.667,37.1667 258,35.5C 255.665,32.8338 253.831,29.8338 252.5,26.5C 255.535,25.3352 258.535,25.5019 261.5,27C 266.723,29.5573 271.39,32.8906 275.5,37C 278.257,37.782 280.757,37.282 283,35.5C 280.072,24.9868 274.572,15.9868 266.5,8.5 Z"/></g>
<g><path style="opacity:1" fill="#a56e3d" d="M 185.5,388.5 C 165.686,343.553 151.186,296.886 142,248.5C 135.806,212.022 137.806,176.022 148,140.5C 154.28,118.932 164.447,99.5982 178.5,82.5C 182.587,80.1245 186.92,78.2911 191.5,77C 201.39,68.4674 212.223,61.3007 224,55.5C 224.413,58.2321 225.08,60.8987 226,63.5C 236.267,72.4354 247.1,80.602 258.5,88C 282.965,111.632 292.798,140.465 288,174.5C 285.814,200.728 277.481,224.728 263,246.5C 244.924,271.648 227.591,297.315 211,323.5C 199.141,343.88 190.641,365.546 185.5,388.5 Z"/></g>
<g><path style="opacity:1" fill="#a56e3d" d="M 421.5,82.5 C 441.109,107.45 453.276,135.783 458,167.5C 463.216,203.712 461.882,239.712 454,275.5C 448.508,295.8 443.175,316.134 438,336.5C 430.962,357.124 423.462,377.458 415.5,397.5C 411.786,373.864 403.952,351.53 392,330.5C 375.515,302.359 357.849,275.026 339,248.5C 321.659,221.491 312.826,191.825 312.5,159.5C 312.17,132.301 321.503,109.134 340.5,90C 351.333,81.8333 362.167,73.6667 373,65.5C 374.692,62.3562 375.858,59.0229 376.5,55.5C 388.734,61.2409 399.734,68.7409 409.5,78C 413.645,79.2136 417.645,80.7136 421.5,82.5 Z"/></g>
<g><path style="opacity:1" fill="#69533d" d="M 178.5,82.5 C 164.447,99.5982 154.28,118.932 148,140.5C 137.806,176.022 135.806,212.022 142,248.5C 151.186,296.886 165.686,343.553 185.5,388.5C 184.457,399.143 183.623,409.81 183,420.5C 182.713,443.369 182.547,466.202 182.5,489C 182.538,495.207 183.038,501.374 184,507.5C 185.874,514.788 187.54,522.121 189,529.5C 191.136,552.397 182.302,569.564 162.5,581C 137.439,592.04 111.439,595.04 84.5,590C 46.813,579.314 23.9796,554.814 16,516.5C 10.8176,490.599 11.8176,464.932 19,439.5C 27.0922,413.98 35.7588,388.646 45,363.5C 50.2045,339.145 55.5378,314.812 61,290.5C 72.1394,266.888 83.8061,243.555 96,220.5C 103.334,197.162 110.667,173.828 118,150.5C 127.525,127.307 142.025,107.807 161.5,92C 166.898,88.3022 172.565,85.1355 178.5,82.5 Z"/></g>
<g><path style="opacity:1" fill="#69533d" d="M 421.5,82.5 C 443.453,94.6198 460.62,111.62 473,133.5C 478.109,142.832 482.443,152.499 486,162.5C 490.955,180.941 496.288,199.274 502,217.5C 512.474,239.116 523.474,260.449 535,281.5C 537.572,287.311 539.572,293.311 541,299.5C 545.235,322.674 550.235,345.674 556,368.5C 565.528,392.419 573.862,416.752 581,441.5C 590.554,477.494 587.888,512.494 573,546.5C 561.188,566.842 544.021,580.675 521.5,588C 490.759,596.403 461.093,593.403 432.5,579C 417.821,568.985 410.154,554.985 409.5,537C 413.558,515.702 416.058,494.202 417,472.5C 417.613,447.478 417.113,422.478 415.5,397.5C 423.462,377.458 430.962,357.124 438,336.5C 443.175,316.134 448.508,295.8 454,275.5C 461.882,239.712 463.216,203.712 458,167.5C 453.276,135.783 441.109,107.45 421.5,82.5 Z"/></g>
<g><path style="opacity:1" fill="#6f381f" d="M 212.5,166.5 C 237.668,165.156 253.835,176.489 261,200.5C 261.147,232.353 245.314,248.186 213.5,248C 187.3,240.113 176.467,222.613 181,195.5C 186.854,180.677 197.354,171.01 212.5,166.5 Z"/></g>
<g><path style="opacity:1" fill="#6f381f" d="M 371.5,166.5 C 396.59,164.77 412.757,175.77 420,199.5C 422.212,223.926 411.712,239.759 388.5,247C 373.095,250.119 360.261,245.953 350,234.5C 345.554,227.942 341.887,220.942 339,213.5C 337.961,189.567 348.794,173.9 371.5,166.5 Z"/></g>
<g><path style="opacity:1" fill="#1d1d1b" d="M 372.5,179.5 C 388.57,177.446 399.736,183.779 406,198.5C 408.167,223.667 396.667,235.167 371.5,233C 353.736,224.379 348.569,210.879 356,192.5C 360.166,186.35 365.666,182.017 372.5,179.5 Z"/></g>
<g><path style="opacity:1" fill="#1e1d1b" d="M 214.5,179.5 C 230.578,178.61 241.411,185.61 247,200.5C 248.505,219.168 240.005,230.168 221.5,233.5C 201.902,231.739 192.402,221.073 193,201.5C 196.315,190.352 203.482,183.019 214.5,179.5 Z"/></g>
<g><path style="opacity:1" fill="#f5f5f5" d="M 383.5,190.5 C 393.525,189.731 396.525,193.898 392.5,203C 385.864,206.33 381.531,204.497 379.5,197.5C 380.071,194.687 381.404,192.354 383.5,190.5 Z"/></g>
<g><path style="opacity:1" fill="#f3f3f3" d="M 225.5,191.5 C 232.88,191.043 235.713,194.376 234,201.5C 231.441,204.349 228.274,205.183 224.5,204C 220.334,199.368 220.667,195.202 225.5,191.5 Z"/></g>
<g><path style="opacity:1" fill="#0d0c0b" d="M 285.5,357.5 C 300.264,356.919 314.931,357.753 329.5,360C 356.396,366.304 366.562,382.804 360,409.5C 352.323,424.842 340.49,435.676 324.5,442C 293.791,451.544 268.291,443.711 248,418.5C 240.158,405.162 239.491,391.496 246,377.5C 249.933,371.566 255.1,367.066 261.5,364C 269.317,360.91 277.317,358.744 285.5,357.5 Z"/></g>
<g><path style="opacity:1" fill="#2f2725" d="M 287.5,362.5 C 302.341,361.72 317.008,362.886 331.5,366C 353.218,373.272 360.718,387.772 354,409.5C 340.353,431.41 320.52,441.91 294.5,441C 278.469,437.405 264.969,429.572 254,417.5C 239.61,392.876 245.777,375.709 272.5,366C 277.596,364.64 282.596,363.474 287.5,362.5 Z"/></g>
<g><path style="opacity:1" fill="#a36d3d" d="M 327.5,520.5 C 318.926,522.48 310.093,523.48 301,523.5C 291.48,523.044 281.98,522.377 272.5,521.5C 280.461,513.735 289.961,508.735 301,506.5C 311.391,508.443 320.224,513.109 327.5,520.5 Z"/></g>
<g><path style="opacity:1" fill="#9c6a50" d="M 327.5,520.5 C 329.138,521.657 330.804,522.824 332.5,524C 311.145,528.629 289.811,528.629 268.5,524C 269.693,522.905 271.027,522.072 272.5,521.5C 281.98,522.377 291.48,523.044 301,523.5C 310.093,523.48 318.926,522.48 327.5,520.5 Z"/></g>
</svg>
