<?xml version="1.0" encoding="UTF-8"?>
<!DOCTYPE svg PUBLIC "-//W3C//DTD SVG 1.1//EN" "http://www.w3.org/Graphics/SVG/1.1/DTD/svg11.dtd">
<svg xmlns="http://www.w3.org/2000/svg" version="1.1" width="600px" height="600px" style="shape-rendering:geometricPrecision; text-rendering:geometricPrecision; image-rendering:optimizeQuality; fill-rule:evenodd; clip-rule:evenodd" xmlns:xlink="http://www.w3.org/1999/xlink">
<g><path style="opacity:0.951" fill="#030202" d="M 599.5,225.5 C 599.5,235.167 599.5,244.833 599.5,254.5C 595.952,255.759 592.285,256.593 588.5,257C 596.471,268.387 598.971,280.887 596,294.5C 591.791,310.791 587.791,327.124 584,343.5C 581.728,349.056 577.561,351.723 571.5,351.5C 573.768,358.252 572.435,364.085 567.5,369C 565.655,370.128 563.655,370.628 561.5,370.5C 564.846,380.374 568.68,390.041 573,399.5C 573.773,409.897 568.939,415.564 558.5,416.5C 553.563,416.099 548.896,414.766 544.5,412.5C 542.631,419.104 538.298,422.937 531.5,424C 503.943,424.779 478.609,417.779 455.5,403C 451.298,399.133 447.465,394.967 444,390.5C 433.499,413.994 424.166,437.994 416,462.5C 415.601,473.558 414.601,484.558 413,495.5C 408.173,520.327 393.173,533.993 368,536.5C 353.727,535.41 340.893,530.577 329.5,522C 328.167,521.833 326.833,521.667 325.5,521.5C 306.166,522.558 286.833,522.725 267.5,522C 248.724,537.037 228.724,539.037 207.5,528C 194.839,518.411 188.006,505.578 187,489.5C 186.175,478.096 184.841,466.763 183,455.5C 175.894,432.174 167.227,409.508 157,387.5C 148.099,400.395 136.266,409.561 121.5,415C 104.088,421.68 86.0875,424.68 67.5,424C 60.7022,422.937 56.3689,419.104 54.5,412.5C 47.8188,416.377 40.8188,417.21 33.5,415C 27.3858,411.605 24.8858,406.438 26,399.5C 29.8467,389.811 33.68,380.145 37.5,370.5C 30.3885,369.72 26.7219,365.72 26.5,358.5C 26.7529,356.142 27.0862,353.808 27.5,351.5C 21.4386,351.723 17.2719,349.056 15,343.5C 11.2103,327.128 7.21029,310.794 3,294.5C 0.0282622,280.89 2.52826,268.39 10.5,257C 6.71484,256.593 3.04817,255.759 -0.5,254.5C -0.5,244.833 -0.5,235.167 -0.5,225.5C 7.97293,213.528 18.3063,203.361 30.5,195C 37.301,188.378 43.6343,181.378 49.5,174C 68.6465,159.253 88.9799,146.253 110.5,135C 118.136,128.365 125.47,121.365 132.5,114C 149.548,100.305 168.548,89.9721 189.5,83C 197.034,80.911 204.7,79.5777 212.5,79C 271.251,57.9149 329.751,58.4149 388,80.5C 389.231,79.8922 390.564,79.5589 392,79.5C 408.57,81.4679 424.07,86.6346 438.5,95C 447.772,100.608 456.772,106.608 465.5,113C 472.864,120.698 480.53,128.031 488.5,135C 510.02,146.253 530.353,159.253 549.5,174C 555.366,181.378 561.699,188.378 568.5,195C 580.694,203.361 591.027,213.528 599.5,225.5 Z"/></g>
<g><path style="opacity:1" fill="#dac0a2" d="M 385.5,90.5 C 384.782,92.1368 384.616,93.8034 385,95.5C 403.532,107.363 417.865,123.03 428,142.5C 435.329,162.155 439.329,182.489 440,203.5C 440.667,221.167 440.667,238.833 440,256.5C 436.034,287.814 435.7,319.147 439,350.5C 439.94,354.762 441.106,358.928 442.5,363C 441.748,363.671 441.414,364.504 441.5,365.5C 428.264,397.036 416.097,429.036 405,461.5C 404.661,472.895 403.661,484.229 402,495.5C 398.171,513.995 386.838,523.995 368,525.5C 354.908,524.368 343.408,519.535 333.5,511C 332.207,510.51 330.873,510.343 329.5,510.5C 321.089,503.047 311.256,498.713 300,497.5C 292.976,497.286 286.643,499.286 281,503.5C 279.951,502.483 278.784,502.316 277.5,503C 273.92,505.277 270.586,507.777 267.5,510.5C 260.875,514.817 253.875,518.65 246.5,522C 230.773,527.931 217.273,524.764 206,512.5C 202.578,507.655 200.245,502.322 199,496.5C 196.561,482.91 194.894,469.244 194,455.5C 183.819,423.816 171.986,392.816 158.5,362.5C 157.672,359.096 158.172,355.763 160,352.5C 161.865,339.902 162.698,327.236 162.5,314.5C 160.624,287.198 159.291,259.864 158.5,232.5C 157.683,206.802 160.183,181.469 166,156.5C 169.812,142.538 176.479,130.204 186,119.5C 191.167,114.333 196.333,109.167 201.5,104C 206.1,101.785 210.266,98.9517 214,95.5C 214.613,93.5048 214.113,91.8381 212.5,90.5C 239.791,79.1996 268.291,73.8663 298,74.5C 328.374,73.688 357.541,79.0213 385.5,90.5 Z"/></g>
<g><path style="opacity:1" fill="#bba58a" d="M 212.5,90.5 C 214.113,91.8381 214.613,93.5048 214,95.5C 210.266,98.9517 206.1,101.785 201.5,104C 196.333,109.167 191.167,114.333 186,119.5C 176.479,130.204 169.812,142.538 166,156.5C 160.183,181.469 157.683,206.802 158.5,232.5C 159.291,259.864 160.624,287.198 162.5,314.5C 162.698,327.236 161.865,339.902 160,352.5C 158.172,355.763 157.672,359.096 158.5,362.5C 154.823,368.846 151.323,375.512 148,382.5C 140.391,392.742 130.558,400.242 118.5,405C 101.745,411.552 84.4121,414.218 66.5,413C 65.5363,408.934 65.203,404.767 65.5,400.5C 62.1501,400.335 58.8168,400.502 55.5,401C 50.5329,402.933 45.5329,404.767 40.5,406.5C 39.4461,406.32 38.4461,405.987 37.5,405.5C 36.3483,402.894 36.1816,400.227 37,397.5C 45.1016,384.197 49.7683,369.864 51,354.5C 50.2753,353.941 49.4419,353.608 48.5,353.5C 45.7624,354.728 43.4291,356.562 41.5,359C 39.9751,360.009 38.3084,360.509 36.5,360.5C 37.7226,354.888 38.8893,349.221 40,343.5C 40.6667,340.5 40.6667,337.5 40,334.5C 37.7579,333.825 35.5912,334.325 33.5,336C 31.1659,339.08 28.3326,340.58 25,340.5C 21.4107,324.398 17.4107,308.398 13,292.5C 12.3333,286.5 12.3333,280.5 13,274.5C 16.1727,267.329 20.1727,260.663 25,254.5C 29.5933,247.496 27.76,244.162 19.5,244.5C 14.5112,245.054 9.51119,245.388 4.5,245.5C 5.26934,236.625 8.76934,228.959 15,222.5C 22.5374,215.294 30.3708,208.46 38.5,202C 45.1667,194.667 51.8333,187.333 58.5,180C 76.9879,165.915 96.6546,153.582 117.5,143C 135.415,123.414 156.415,108.081 180.5,97C 190.624,92.1962 201.291,90.0295 212.5,90.5 Z"/></g>
<g><path style="opacity:1" fill="#bba58a" d="M 385.5,90.5 C 397.06,89.936 408.06,92.1027 418.5,97C 442.87,107.688 463.87,123.021 481.5,143C 502.569,154.086 522.569,166.753 541.5,181C 547.833,188 554.167,195 560.5,202C 574.813,211.312 585.98,223.478 594,238.5C 594.497,240.81 594.663,243.143 594.5,245.5C 587.499,244.939 580.499,244.772 573.5,245C 571.675,246.466 571.175,248.299 572,250.5C 577.185,258.204 581.852,266.204 586,274.5C 586.667,279.833 586.667,285.167 586,290.5C 581.998,307.171 577.998,323.837 574,340.5C 573.282,341.451 572.449,341.617 571.5,341C 568.5,338.667 565.5,336.333 562.5,334C 561.216,333.316 560.049,333.483 559,334.5C 558.333,337.5 558.333,340.5 559,343.5C 560.361,349.141 561.528,354.808 562.5,360.5C 560.692,360.509 559.025,360.009 557.5,359C 555.571,356.562 553.238,354.728 550.5,353.5C 549.558,353.608 548.725,353.941 548,354.5C 547.446,361.066 548.446,367.399 551,373.5C 553.897,382.2 557.564,390.533 562,398.5C 562.814,400.902 562.647,403.235 561.5,405.5C 556.199,406.216 551.199,405.049 546.5,402C 542.23,400.925 537.897,400.425 533.5,400.5C 533.797,404.767 533.464,408.934 532.5,413C 504.496,415.421 479.496,408.088 457.5,391C 451.488,382.783 446.155,374.283 441.5,365.5C 441.414,364.504 441.748,363.671 442.5,363C 441.106,358.928 439.94,354.762 439,350.5C 435.7,319.147 436.034,287.814 440,256.5C 440.667,238.833 440.667,221.167 440,203.5C 439.329,182.489 435.329,162.155 428,142.5C 417.865,123.03 403.532,107.363 385,95.5C 384.616,93.8034 384.782,92.1368 385.5,90.5 Z"/></g>
<g><path style="opacity:1" fill="#c2ac8f" d="M 232.5,205.5 C 247.316,207.817 254.816,216.484 255,231.5C 251.75,234.353 247.917,235.186 243.5,234C 234.653,231.999 227.153,227.833 221,221.5C 220.038,216.767 221.538,212.934 225.5,210C 227.898,208.476 230.231,206.976 232.5,205.5 Z"/></g>
<g><path style="opacity:1" fill="#c2ac8f" d="M 360.5,205.5 C 368.152,205.652 373.985,208.985 378,215.5C 379.202,219.793 378.035,223.293 374.5,226C 365.772,231.136 356.439,233.803 346.5,234C 344.703,232.406 343.703,230.406 343.5,228C 345.236,217.442 350.903,209.942 360.5,205.5 Z"/></g>
<g><path style="opacity:1" fill="#ad9881" d="M 222.5,239.5 C 231.716,238.293 239.216,241.293 245,248.5C 251.694,256.75 254.861,266.083 254.5,276.5C 247.51,279.327 240.51,282.161 233.5,285C 222.732,288.05 212.732,286.384 203.5,280C 197.396,275.863 191.563,271.363 186,266.5C 185.365,264.365 185.699,262.365 187,260.5C 196.992,250.259 208.825,243.259 222.5,239.5 Z"/></g>
<g><path style="opacity:1" fill="#ad9881" d="M 366.5,239.5 C 385.322,239.996 400.822,247.33 413,261.5C 413.667,263.5 413.667,265.5 413,267.5C 403.613,276.224 392.779,282.39 380.5,286C 376.5,286.667 372.5,286.667 368.5,286C 360.935,282.717 353.268,279.717 345.5,277C 344.648,264.672 348.648,254.005 357.5,245C 360.263,242.626 363.263,240.792 366.5,239.5 Z"/></g>
<g><path style="opacity:1" fill="#705236" d="M 218.5,242.5 C 229.143,241.429 237.643,245.096 244,253.5C 248.775,265.788 245.275,274.955 233.5,281C 221.064,285.549 211.231,282.382 204,271.5C 200.319,261.694 202.486,253.527 210.5,247C 213.191,245.395 215.858,243.895 218.5,242.5 Z"/></g>
<g><path style="opacity:1" fill="#705136" d="M 370.5,242.5 C 391.577,242.383 399.744,252.383 395,272.5C 388.314,281.177 379.48,284.343 368.5,282C 354.61,276.338 350.443,266.505 356,252.5C 360.012,247.762 364.845,244.429 370.5,242.5 Z"/></g>
<g><path style="opacity:1" fill="#191817" d="M 219.5,250.5 C 233.608,249.758 239.108,256.091 236,269.5C 230.953,275.488 224.786,276.988 217.5,274C 210.06,269.377 208.56,263.211 213,255.5C 214.965,253.45 217.132,251.783 219.5,250.5 Z"/></g>
<g><path style="opacity:1" fill="#191716" d="M 370.5,250.5 C 386.028,250.168 391.195,257.168 386,271.5C 378.398,277.05 371.065,276.716 364,270.5C 359.602,261.642 361.769,254.975 370.5,250.5 Z"/></g>
<g><path style="opacity:1" fill="#eeeeee" d="M 229.5,257.5 C 234.006,256.527 236.172,258.194 236,262.5C 229.645,266.201 227.478,264.534 229.5,257.5 Z"/></g>
<g><path style="opacity:1" fill="#e5e5e5" d="M 382.5,256.5 C 387.324,257.752 388.324,260.252 385.5,264C 381.002,265.477 378.835,263.977 379,259.5C 380.145,258.364 381.312,257.364 382.5,256.5 Z"/></g>
<g><path style="opacity:1" fill="#1d1a1b" d="M 289.5,398.5 C 304.196,397.629 318.529,399.462 332.5,404C 344.318,409.471 348.818,418.637 346,431.5C 344.583,434.67 342.916,437.67 341,440.5C 317.965,462.892 292.799,465.392 265.5,448C 251.866,437.799 249.033,425.299 257,410.5C 261.126,406.518 265.959,403.685 271.5,402C 277.626,400.741 283.626,399.574 289.5,398.5 Z"/></g>
<g><path style="opacity:1" fill="#b39778" d="M 329.5,510.5 C 308.839,513.116 288.172,513.116 267.5,510.5C 270.586,507.777 273.92,505.277 277.5,503C 278.784,502.316 279.951,502.483 281,503.5C 286.643,499.286 292.976,497.286 300,497.5C 311.256,498.713 321.089,503.047 329.5,510.5 Z"/></g>
</svg>
