<?xml version="1.0" encoding="UTF-8"?>
<!DOCTYPE svg PUBLIC "-//W3C//DTD SVG 1.1//EN" "http://www.w3.org/Graphics/SVG/1.1/DTD/svg11.dtd">
<svg xmlns="http://www.w3.org/2000/svg" version="1.1" width="600px" height="600px" style="shape-rendering:geometricPrecision; text-rendering:geometricPrecision; image-rendering:optimizeQuality; fill-rule:evenodd; clip-rule:evenodd" xmlns:xlink="http://www.w3.org/1999/xlink">
<g><path style="opacity:0.97" fill="#030303" d="M 599.5,393.5 C 599.5,420.5 599.5,447.5 599.5,474.5C 586.082,513.069 559.082,535.569 518.5,542C 499.342,544.969 481.676,541.303 465.5,531C 457.078,523.58 451.578,514.413 449,503.5C 444.37,509.806 438.37,514.14 431,516.5C 430.667,516.167 430.333,515.833 430,515.5C 428.539,519.26 426.039,522.093 422.5,524C 416.207,527.097 409.707,529.597 403,531.5C 398.872,530.513 395.039,528.846 391.5,526.5C 372.095,541.363 350.095,549.863 325.5,552C 290.298,556.615 256.298,552.281 223.5,539C 216.89,535.111 210.723,530.611 205,525.5C 200.261,530.391 194.761,531.891 188.5,530C 181.691,528.013 175.525,524.846 170,520.5C 169,518.833 168,517.167 167,515.5C 166.586,515.957 166.086,516.291 165.5,516.5C 159.074,514.087 153.408,510.42 148.5,505.5C 142.281,526.455 128.281,538.288 106.5,541C 54.0065,544.598 18.3398,522.098 -0.5,473.5C -0.5,447.167 -0.5,420.833 -0.5,394.5C 2.80916,384.084 6.64249,373.75 11,363.5C 19.212,347.743 26.8786,331.743 34,315.5C 39.026,298.727 44.3593,282.061 50,265.5C 59.1512,248.693 69.4846,232.693 81,217.5C 85.559,210.326 89.059,202.659 91.5,194.5C 90.4223,191.022 89.4223,187.522 88.5,184C 91.1797,174.614 95.0131,165.781 100,157.5C 127.403,128.425 158.569,104.258 193.5,85C 200.31,82.381 207.31,80.5477 214.5,79.5C 214.253,76.495 215.253,73.995 217.5,72C 220.206,70.4525 223.04,69.2858 226,68.5C 234.025,70.0596 242.025,71.7263 250,73.5C 247.561,62.702 251.561,55.702 262,52.5C 268.416,54.2106 273.416,57.8772 277,63.5C 275.833,52.7954 280.333,46.1288 290.5,43.5C 296.174,44.6633 300.674,47.6633 304,52.5C 307.841,58.1777 311.174,64.1777 314,70.5C 317.81,62.2124 322.144,54.2124 327,46.5C 334.861,39.3149 341.861,39.9816 348,48.5C 348.5,50.5 349,52.5 349.5,54.5C 348.591,60.1969 347.591,65.8636 346.5,71.5C 354.496,71.4552 362.496,70.4552 370.5,68.5C 377.77,68.7744 381.77,72.4411 382.5,79.5C 395.64,80.9359 407.64,85.4359 418.5,93C 435.362,103.93 451.695,115.597 467.5,128C 478.333,137.5 488.5,147.667 498,158.5C 503.785,167.607 506.118,177.607 505,188.5C 512.676,209.531 523.676,228.531 538,245.5C 541.585,251.002 544.919,256.669 548,262.5C 554.198,280.76 560.198,299.093 566,317.5C 573.651,333.469 581.317,349.469 589,365.5C 592.84,374.822 596.34,384.155 599.5,393.5 Z"/></g>
<g><path style="opacity:1" fill="#494646" d="M 336.5,51.5 C 337.748,52.3339 338.415,53.6672 338.5,55.5C 336.676,66.1215 335.176,76.7881 334,87.5C 333,83.8333 332,80.1667 331,76.5C 329.641,74.3078 327.808,72.6411 325.5,71.5C 328.671,64.485 332.338,57.8184 336.5,51.5 Z"/></g>
<g><path style="opacity:1" fill="#ece7dc" d="M 289.5,54.5 C 291.716,55.2026 293.549,56.5359 295,58.5C 301.979,70.098 307.813,82.2646 312.5,95C 314.113,95.0885 315.28,94.2552 316,92.5C 317.667,88.8333 319.333,85.1667 321,81.5C 325.407,95.0548 330.407,108.388 336,121.5C 343.311,137.808 344.311,154.475 339,171.5C 334.183,186.625 329.016,201.459 323.5,216C 323.651,218.197 323.985,220.364 324.5,222.5C 318.735,247.661 319.235,272.661 326,297.5C 327.654,302.815 330.32,307.482 334,311.5C 377.855,323.25 409.521,349.583 429,390.5C 440.213,416.016 447.046,442.683 449.5,470.5C 449.545,485.413 443.545,497.08 431.5,505.5C 430.029,504.619 429.196,503.286 429,501.5C 428.573,495.473 427.907,489.473 427,483.5C 426.417,481.998 425.584,480.665 424.5,479.5C 423.914,479.709 423.414,480.043 423,480.5C 422.808,489.543 422.141,498.543 421,507.5C 420.619,511.365 418.785,514.199 415.5,516C 410.691,518.386 405.691,519.72 400.5,520C 397.61,516.618 394.944,513.118 392.5,509.5C 381.15,523.184 366.816,532.351 349.5,537C 325.108,542.256 300.441,543.923 275.5,542C 254.389,540.893 235.055,534.56 217.5,523C 212.957,518.625 208.624,514.125 204.5,509.5C 201.845,513.32 198.845,516.82 195.5,520C 189.812,519.773 184.479,518.106 179.5,515C 177.959,513.421 176.792,511.587 176,509.5C 174.833,499.5 173.667,489.5 172.5,479.5C 171.914,479.709 171.414,480.043 171,480.5C 169.559,488.143 168.226,495.81 167,503.5C 166.692,504.308 166.192,504.975 165.5,505.5C 153.884,497.438 147.884,486.272 147.5,472C 149.96,432.954 161.794,397.12 183,364.5C 204.035,336.72 231.535,318.554 265.5,310C 272.826,297.872 276.993,284.706 278,270.5C 278.915,255.78 278.415,241.113 276.5,226.5C 278.734,218.954 277.234,212.287 272,206.5C 267.98,193.437 262.98,180.77 257,168.5C 254.401,155.555 255.401,142.889 260,130.5C 266.064,114.975 271.731,99.3083 277,83.5C 278.871,88.0812 281.371,92.2478 284.5,96C 285.784,96.6838 286.951,96.5171 288,95.5C 288.184,81.7586 288.684,68.0919 289.5,54.5 Z"/></g>
<g><path style="opacity:1" fill="#4b4848" d="M 258.5,200.5 C 221.012,201.66 190.179,216.66 166,245.5C 161.893,255.858 165.06,259.692 175.5,257C 184.458,251.687 193.792,247.187 203.5,243.5C 197.213,255.55 198.547,266.716 207.5,277C 218.359,284.809 229.693,285.476 241.5,279C 252.509,268.2 254.343,256.034 247,242.5C 244.584,239.577 241.75,237.243 238.5,235.5C 238.611,234.883 238.944,234.383 239.5,234C 248.494,233.5 257.494,233.334 266.5,233.5C 269.328,250.58 268.828,267.58 265,284.5C 263.518,290.114 261.351,295.447 258.5,300.5C 204.958,316.206 169.125,350.539 151,403.5C 144.453,423.806 139.953,444.473 137.5,465.5C 123.018,452.882 113.352,437.216 108.5,418.5C 116.312,400.594 121.645,381.927 124.5,362.5C 123.448,362.351 122.448,362.517 121.5,363C 116.167,367.667 110.833,372.333 105.5,377C 104.365,377.749 103.365,377.583 102.5,376.5C 99.9402,369.035 98.2735,361.368 97.5,353.5C 100.025,343.285 105.025,334.451 112.5,327C 111.737,326.056 110.737,325.556 109.5,325.5C 104.783,327.882 99.7828,328.882 94.5,328.5C 93.56,324.537 93.3933,320.537 94,316.5C 102.037,301.144 110.87,286.311 120.5,272C 113.845,276.174 106.845,280.174 99.5,284C 97.3136,285.309 95.1469,285.476 93,284.5C 91.3731,267.108 92.0398,249.775 95,232.5C 97.9405,225.548 102.44,219.714 108.5,215C 113.833,211.333 119.167,207.667 124.5,204C 126.774,202.235 128.441,200.068 129.5,197.5C 129.41,195.575 128.41,194.408 126.5,194C 118.755,193.801 111.088,193.301 103.5,192.5C 101.02,190.077 99.6864,187.077 99.5,183.5C 101.72,175.06 105.553,167.393 111,160.5C 136.653,134.835 165.153,113.001 196.5,95C 209.293,89.4586 222.459,88.2919 236,91.5C 236.833,91.1667 237.667,90.8333 238.5,90.5C 233.091,88.1358 228.424,84.8025 224.5,80.5C 225.167,80.1667 225.833,79.8333 226.5,79.5C 233.124,80.8987 239.791,82.0654 246.5,83C 250.78,84.9466 254.113,87.9466 256.5,92C 257.833,92.6667 259.167,92.6667 260.5,92C 261.98,89.7534 262.647,87.2534 262.5,84.5C 261.286,77.5487 260.619,70.5487 260.5,63.5C 261.552,63.3505 262.552,63.5172 263.5,64C 266.407,67.1508 269.074,70.4841 271.5,74C 269.667,75.1667 268.167,76.6667 267,78.5C 261.265,96.4726 255.098,114.306 248.5,132C 243.892,145.338 243.392,158.838 247,172.5C 251.125,181.745 254.958,191.078 258.5,200.5 Z"/></g>
<g><path style="opacity:1" fill="#4b4848" d="M 493.5,172.5 C 493.666,178.842 493.5,185.175 493,191.5C 492.167,192.333 491.333,193.167 490.5,194C 483.85,193.695 477.183,193.695 470.5,194C 468.59,194.408 467.59,195.575 467.5,197.5C 468.559,200.068 470.226,202.235 472.5,204C 481.867,209.695 490.367,216.528 498,224.5C 501.049,228.647 502.716,233.313 503,238.5C 505.245,253.823 505.578,269.156 504,284.5C 502.612,285.554 501.112,285.72 499.5,285C 492.708,282.105 486.375,278.438 480.5,274C 479.668,273.312 479.002,273.479 478.5,274.5C 487.17,287.836 495.337,301.502 503,315.5C 503.667,318.833 503.667,322.167 503,325.5C 502.882,327.573 501.882,328.907 500,329.5C 495.16,328.051 490.327,326.718 485.5,325.5C 488.317,331.175 491.817,336.509 496,341.5C 499.878,348.867 500.545,356.533 498,364.5C 497.49,369.375 495.824,373.708 493,377.5C 487.588,374.095 482.755,369.928 478.5,365C 476.783,363.441 474.783,362.608 472.5,362.5C 475.594,381.784 480.927,400.451 488.5,418.5C 483.301,436.683 473.968,452.35 460.5,465.5C 457.274,452.218 454.441,438.551 452,424.5C 443.1,384.494 422.934,351.661 391.5,326C 376.864,314.85 360.531,307.184 342.5,303C 341.069,302.535 339.903,301.701 339,300.5C 332.658,287.957 329.824,274.624 330.5,260.5C 331.144,250.411 332.144,240.411 333.5,230.5C 343.073,230.655 352.406,231.655 361.5,233.5C 344.953,243.002 341.12,256.336 350,273.5C 360.151,284.293 371.984,286.46 385.5,280C 397.918,270.34 400.585,258.506 393.5,244.5C 393.56,243.957 393.893,243.624 394.5,243.5C 405.218,248.733 415.551,254.566 425.5,261C 431.291,262.27 434.291,259.937 434.5,254C 434.204,252.112 433.704,250.278 433,248.5C 410.49,217.327 379.99,200.994 341.5,199.5C 344.018,190.444 346.851,181.444 350,172.5C 353.514,157.086 353.181,141.753 349,126.5C 345.24,115.817 341.073,105.317 336.5,95C 340.15,91.4189 343.816,87.7522 347.5,84C 354.665,81.8516 361.999,80.3516 369.5,79.5C 370.5,79.8333 371.5,80.1667 372.5,80.5C 368.56,84.1435 364.226,87.3102 359.5,90C 378.258,87.0236 395.592,90.6903 411.5,101C 439.601,118.084 465.101,138.584 488,162.5C 490.112,165.727 491.945,169.06 493.5,172.5 Z"/></g>
<g><path style="opacity:1" fill="#3d3938" d="M 493.5,172.5 C 494.328,178.653 494.828,184.987 495,191.5C 498,198.833 501,206.167 504,213.5C 513.256,229.016 523.256,244.016 534,258.5C 536,262.5 538,266.5 540,270.5C 545.845,288.881 551.845,307.214 558,325.5C 567.959,344.374 576.959,363.707 585,383.5C 597.618,416.862 597.618,450.196 585,483.5C 563.652,521.089 531.485,536.589 488.5,530C 470.337,525.213 460.504,513.38 459,494.5C 458.578,484.791 459.078,475.125 460.5,465.5C 473.968,452.35 483.301,436.683 488.5,418.5C 480.927,400.451 475.594,381.784 472.5,362.5C 474.783,362.608 476.783,363.441 478.5,365C 482.755,369.928 487.588,374.095 493,377.5C 495.824,373.708 497.49,369.375 498,364.5C 500.545,356.533 499.878,348.867 496,341.5C 491.817,336.509 488.317,331.175 485.5,325.5C 490.327,326.718 495.16,328.051 500,329.5C 501.882,328.907 502.882,327.573 503,325.5C 503.667,322.167 503.667,318.833 503,315.5C 495.337,301.502 487.17,287.836 478.5,274.5C 479.002,273.479 479.668,273.312 480.5,274C 486.375,278.438 492.708,282.105 499.5,285C 501.112,285.72 502.612,285.554 504,284.5C 505.578,269.156 505.245,253.823 503,238.5C 502.716,233.313 501.049,228.647 498,224.5C 490.367,216.528 481.867,209.695 472.5,204C 470.226,202.235 468.559,200.068 467.5,197.5C 467.59,195.575 468.59,194.408 470.5,194C 477.183,193.695 483.85,193.695 490.5,194C 491.333,193.167 492.167,192.333 493,191.5C 493.5,185.175 493.666,178.842 493.5,172.5 Z"/></g>
<g><path style="opacity:1" fill="#3d3938" d="M 103.5,192.5 C 111.088,193.301 118.755,193.801 126.5,194C 128.41,194.408 129.41,195.575 129.5,197.5C 128.441,200.068 126.774,202.235 124.5,204C 119.167,207.667 113.833,211.333 108.5,215C 102.44,219.714 97.9405,225.548 95,232.5C 92.0398,249.775 91.3731,267.108 93,284.5C 95.1469,285.476 97.3136,285.309 99.5,284C 106.845,280.174 113.845,276.174 120.5,272C 110.87,286.311 102.037,301.144 94,316.5C 93.3933,320.537 93.56,324.537 94.5,328.5C 99.7828,328.882 104.783,327.882 109.5,325.5C 110.737,325.556 111.737,326.056 112.5,327C 105.025,334.451 100.025,343.285 97.5,353.5C 98.2735,361.368 99.9402,369.035 102.5,376.5C 103.365,377.583 104.365,377.749 105.5,377C 110.833,372.333 116.167,367.667 121.5,363C 122.448,362.517 123.448,362.351 124.5,362.5C 121.645,381.927 116.312,400.594 108.5,418.5C 113.352,437.216 123.018,452.882 137.5,465.5C 138.969,476.764 139.469,488.098 139,499.5C 134.447,519.382 121.947,529.882 101.5,531C 62.2159,532.944 33.0493,516.777 14,482.5C 0.356486,445.651 1.68982,409.318 18,373.5C 26,356.833 34,340.167 42,323.5C 47.8022,305.093 53.8022,286.76 60,268.5C 62.079,264.007 64.4123,259.674 67,255.5C 75.7231,243.776 84.0565,231.776 92,219.5C 96.3968,210.71 100.23,201.71 103.5,192.5 Z"/></g>
<g><path style="opacity:1" fill="#3e3a39" d="M 341.5,199.5 C 379.99,200.994 410.49,217.327 433,248.5C 433.704,250.278 434.204,252.112 434.5,254C 434.291,259.937 431.291,262.27 425.5,261C 415.551,254.566 405.218,248.733 394.5,243.5C 393.893,243.624 393.56,243.957 393.5,244.5C 383.839,238.5 373.172,234.833 361.5,233.5C 352.406,231.655 343.073,230.655 333.5,230.5C 334.235,225.215 334.735,219.882 335,214.5C 338.21,209.957 340.376,204.957 341.5,199.5 Z"/></g>
<g><path style="opacity:1" fill="#3e3a39" d="M 258.5,200.5 C 259.723,206.645 262.223,212.312 266,217.5C 265.334,222.845 265.501,228.179 266.5,233.5C 257.494,233.334 248.494,233.5 239.5,234C 238.944,234.383 238.611,234.883 238.5,235.5C 226.245,235.145 214.579,237.812 203.5,243.5C 193.792,247.187 184.458,251.687 175.5,257C 165.06,259.692 161.893,255.858 166,245.5C 190.179,216.66 221.012,201.66 258.5,200.5 Z"/></g>
<g><path style="opacity:1" fill="#302725" d="M 361.5,233.5 C 373.172,234.833 383.839,238.5 393.5,244.5C 400.585,258.506 397.918,270.34 385.5,280C 371.984,286.46 360.151,284.293 350,273.5C 341.12,256.336 344.953,243.002 361.5,233.5 Z"/></g>
<g><path style="opacity:1" fill="#302725" d="M 238.5,235.5 C 241.75,237.243 244.584,239.577 247,242.5C 254.343,256.034 252.509,268.2 241.5,279C 229.693,285.476 218.359,284.809 207.5,277C 198.547,266.716 197.213,255.55 203.5,243.5C 214.579,237.812 226.245,235.145 238.5,235.5 Z"/></g>
<g><path style="opacity:1" fill="#efefef" d="M 227.5,242.5 C 236.152,241.986 239.652,245.986 238,254.5C 235.398,258.212 231.898,259.378 227.5,258C 223.139,255.774 221.639,252.274 223,247.5C 224.366,245.638 225.866,243.972 227.5,242.5 Z"/></g>
<g><path style="opacity:1" fill="#f0f0f0" d="M 372.5,242.5 C 384.133,242.267 387.133,247.1 381.5,257C 372.42,260.215 368.253,257.048 369,247.5C 369.997,245.677 371.164,244.01 372.5,242.5 Z"/></g>
<g><path style="opacity:1" fill="#080707" d="M 283.5,387.5 C 298.781,386.496 313.781,387.996 328.5,392C 345.432,400.67 349.265,413.503 340,430.5C 316.777,455.529 291.277,458.029 263.5,438C 251.523,426.796 249.356,413.962 257,399.5C 264.756,392.868 273.589,388.868 283.5,387.5 Z"/></g>
<g><path style="opacity:1" fill="#443c3b" d="M 284.5,398.5 C 293.839,398.334 303.173,398.5 312.5,399C 322.119,399.218 329.286,403.384 334,411.5C 334.497,419.675 331.33,426.175 324.5,431C 303.25,445.908 283.75,443.741 266,424.5C 259.835,411.984 263.669,403.817 277.5,400C 280.036,399.814 282.369,399.314 284.5,398.5 Z"/></g>
</svg>
