<?xml version="1.0" encoding="UTF-8"?>
<!DOCTYPE svg PUBLIC "-//W3C//DTD SVG 1.1//EN" "http://www.w3.org/Graphics/SVG/1.1/DTD/svg11.dtd">
<svg xmlns="http://www.w3.org/2000/svg" version="1.1" width="600px" height="600px" style="shape-rendering:geometricPrecision; text-rendering:geometricPrecision; image-rendering:optimizeQuality; fill-rule:evenodd; clip-rule:evenodd" xmlns:xlink="http://www.w3.org/1999/xlink">
<g><path style="opacity:0.952" fill="#000000" d="M 42.5,-0.5 C 56.1667,-0.5 69.8333,-0.5 83.5,-0.5C 107.486,11.3073 129.486,26.1406 149.5,44C 158.167,52 166.833,60 175.5,68C 199.167,92.3333 222.833,116.667 246.5,141C 252.735,144.967 259.568,147.134 267,147.5C 289.163,146.271 311.163,146.271 333,147.5C 338.776,147.014 344.276,145.514 349.5,143C 361.304,132.197 372.804,121.03 384,109.5C 413.688,76.139 446.188,45.9723 481.5,19C 492.439,11.7007 503.772,5.20067 515.5,-0.5C 529.167,-0.5 542.833,-0.5 556.5,-0.5C 566.317,4.8269 573.151,12.8269 577,23.5C 582.094,37.7323 584.261,52.399 583.5,67.5C 582.014,119.066 574.514,169.732 561,219.5C 556.441,237.617 548.441,253.95 537,268.5C 525.784,280.613 515.284,293.28 505.5,306.5C 508.295,321.178 508.128,335.844 505,350.5C 499.983,374.906 492.65,398.572 483,421.5C 472.831,443.331 459.165,462.664 442,479.5C 437,486.833 432,494.167 427,501.5C 423.78,507.941 421.113,514.608 419,521.5C 415.713,536.267 412.047,550.934 408,565.5C 406.274,569.953 404.274,574.286 402,578.5C 394.714,587.951 385.547,594.951 374.5,599.5C 350.833,599.5 327.167,599.5 303.5,599.5C 301.167,598.167 298.833,598.167 296.5,599.5C 272.833,599.5 249.167,599.5 225.5,599.5C 209.517,593.284 198.683,581.951 193,565.5C 188.953,550.934 185.287,536.267 182,521.5C 176.188,502.533 165.855,486.533 151,473.5C 129.488,449.826 114.154,422.493 105,391.5C 101.355,378.92 98.0215,366.253 95,353.5C 93.8211,337.528 93.1545,321.528 93,305.5C 79.9542,290.123 67.2876,274.456 55,258.5C 42.7048,236.284 34.3714,212.617 30,187.5C 20.1076,140.974 15.6076,93.9743 16.5,46.5C 17.73,32.3874 22.5633,19.7207 31,8.5C 34.733,5.25464 38.5663,2.25464 42.5,-0.5 Z"/></g>
<g><path style="opacity:1" fill="#282223" d="M 282.5,157.5 C 288.779,168.602 292.279,180.602 293,193.5C 297.548,255.042 292.215,315.708 277,375.5C 271.895,395.166 263.895,413.499 253,430.5C 240.396,445.068 224.896,455.568 206.5,462C 192.672,466.529 178.672,469.696 164.5,471.5C 142.962,450.46 127.462,425.46 118,396.5C 112.731,380.758 108.398,364.758 105,348.5C 103.563,333.489 103.23,318.489 104,303.5C 101.333,299.5 98.6667,295.5 96,291.5C 84.5225,278.535 73.5225,265.202 63,251.5C 56.3617,240.218 51.3617,228.218 48,215.5C 34.1484,163.058 26.815,109.724 26,55.5C 30.2447,6.93393 53.7447,-5.56607 96.5,18C 115.92,29.7474 133.92,43.4141 150.5,59C 180.14,88.3074 209.474,117.974 238.5,148C 251.788,157.153 266.454,160.319 282.5,157.5 Z"/></g>
<g><path style="opacity:1" fill="#282223" d="M 495.5,302.5 C 487.892,280.286 476.392,260.286 461,242.5C 452.328,232.995 443.495,223.662 434.5,214.5C 416.535,197.699 397.535,182.199 377.5,168C 363.857,163.256 349.857,160.089 335.5,158.5C 341.377,156.691 347.377,154.857 353.5,153C 355.5,151.667 357.5,150.333 359.5,149C 388.526,118.974 417.86,89.3074 447.5,60C 463.308,45.8544 479.974,32.8544 497.5,21C 507.22,14.9735 517.553,10.3069 528.5,7C 549.061,3.57051 562.561,11.7372 569,31.5C 571.847,42.649 573.347,53.9823 573.5,65.5C 571.428,107.225 566.261,148.558 558,189.5C 553.922,210.067 547.256,229.733 538,248.5C 529.137,261.703 519.137,274.036 508,285.5C 503.616,291.044 499.449,296.711 495.5,302.5 Z"/></g>
<g><path style="opacity:1" fill="#040303" d="M 55.5,32.5 C 64.2749,32.2768 72.6082,34.1101 80.5,38C 101.9,49.0542 120.733,63.5542 137,81.5C 156.945,103.704 172.612,128.704 184,156.5C 187.034,163.911 188.034,171.578 187,179.5C 184.803,186.227 181.803,192.561 178,198.5C 163.801,218.376 145.301,232.543 122.5,241C 103.254,245.619 88.7535,239.452 79,222.5C 60.1282,179.014 48.1282,133.681 43,86.5C 42.1348,74.4569 42.4682,62.4569 44,50.5C 44.9061,42.4646 48.7394,36.4646 55.5,32.5 Z"/></g>
<g><path style="opacity:1" fill="#040303" d="M 434.5,214.5 C 434.649,213.448 434.483,212.448 434,211.5C 424.32,203.821 417.32,194.154 413,182.5C 412.082,179.402 411.582,176.235 411.5,173C 412.467,165.631 414.301,158.464 417,151.5C 437.084,105.475 468.25,68.9755 510.5,42C 519.202,36.9326 528.536,33.7659 538.5,32.5C 544.612,32.4719 549.112,35.1386 552,40.5C 554.113,45.2837 555.446,50.2837 556,55.5C 556.161,114.528 543.827,170.861 519,224.5C 510.576,237.961 498.409,243.794 482.5,242C 464.735,238.455 450.068,229.789 438.5,216C 437.255,215.209 435.922,214.709 434.5,214.5 Z"/></g>
<g><path style="opacity:1" fill="#424345" d="M 58.5,37.5 C 70.7159,39.7395 82.0493,44.2395 92.5,51C 132.824,79.3337 161.991,116.5 180,162.5C 181.645,167.065 182.312,171.731 182,176.5C 171.403,202.099 153.57,220.932 128.5,233C 112.495,240.533 98.6616,237.699 87,224.5C 66.0728,179.802 53.0728,132.802 48,83.5C 46.456,69.8503 47.7893,56.517 52,43.5C 53.4936,40.6865 55.6603,38.6865 58.5,37.5 Z"/></g>
<g><path style="opacity:1" fill="#424345" d="M 536.5,37.5 C 541.147,37.5714 544.647,39.5714 547,43.5C 550.552,52.4814 552.052,61.8148 551.5,71.5C 548.194,120.721 537.028,168.054 518,213.5C 508.515,235.323 492.682,241.823 470.5,233C 447.721,221.888 430.555,205.055 419,182.5C 417.932,179.396 417.099,176.229 416.5,173C 423.299,148.236 434.465,125.736 450,105.5C 468.426,79.5536 491.593,59.0536 519.5,44C 525.16,41.5073 530.826,39.3407 536.5,37.5 Z"/></g>
<g><path style="opacity:1" fill="#f0f1f1" d="M 335.5,158.5 C 349.857,160.089 363.857,163.256 377.5,168C 397.535,182.199 416.535,197.699 434.5,214.5C 443.495,223.662 452.328,232.995 461,242.5C 476.392,260.286 487.892,280.286 495.5,302.5C 497.541,347.345 488.041,389.678 467,429.5C 457.868,444.637 447.201,458.637 435,471.5C 428.945,479.222 423.278,487.222 418,495.5C 414.414,502.592 411.414,509.925 409,517.5C 405.443,534.061 401.11,550.395 396,566.5C 389.082,579.888 378.249,588.388 363.5,592C 350.513,593.924 337.513,593.924 324.5,592C 316.333,590.5 308.166,589 300,587.5C 281.088,592.053 261.921,593.886 242.5,593C 221.784,590.412 208.284,579.245 202,559.5C 197.537,541.777 192.87,524.11 188,506.5C 181.904,493.588 174.071,481.922 164.5,471.5C 178.672,469.696 192.672,466.529 206.5,462C 224.896,455.568 240.396,445.068 253,430.5C 263.895,413.499 271.895,395.166 277,375.5C 292.215,315.708 297.548,255.042 293,193.5C 292.279,180.602 288.779,168.602 282.5,157.5C 300.191,156.123 317.857,156.456 335.5,158.5 Z"/></g>
<g><path style="opacity:1" fill="#414244" d="M 197.5,286.5 C 219.948,284.791 234.781,294.457 242,315.5C 245.332,339.021 235.832,354.521 213.5,362C 189.08,364.569 173.58,354.069 167,330.5C 166.055,307.971 176.222,293.304 197.5,286.5 Z"/></g>
<g><path style="opacity:1" fill="#444446" d="M 384.5,288.5 C 407.319,285.315 422.819,294.315 431,315.5C 434.425,331.633 429.925,345.133 417.5,356C 397.622,367.769 379.789,365.269 364,348.5C 352.44,329.802 354.273,312.636 369.5,297C 374.27,293.619 379.27,290.786 384.5,288.5 Z"/></g>
<g><path style="opacity:1" fill="#1b0e10" d="M 196.5,297.5 C 212.278,294.806 223.778,300.473 231,314.5C 236.194,337.143 227.361,349.81 204.5,352.5C 187.616,351.116 178.616,341.949 177.5,325C 177.74,311.598 184.073,302.431 196.5,297.5 Z"/></g>
<g><path style="opacity:1" fill="#1b0e10" d="M 386.5,298.5 C 410.829,296.335 422.663,307.335 422,331.5C 417.419,347.213 406.919,354.713 390.5,354C 369.557,347.182 362.723,333.348 370,312.5C 374.198,306.123 379.698,301.456 386.5,298.5 Z"/></g>
<g><path style="opacity:1" fill="#e7e8e8" d="M 211.5,311.5 C 218.655,311.153 221.821,314.486 221,321.5C 217.011,326.356 212.678,326.689 208,322.5C 206.663,317.872 207.83,314.205 211.5,311.5 Z"/></g>
<g><path style="opacity:1" fill="#e7e8e8" d="M 398.5,312.5 C 408.637,312.941 410.97,317.441 405.5,326C 397.225,328.057 393.725,324.89 395,316.5C 396.376,315.295 397.542,313.962 398.5,312.5 Z"/></g>
<g><path style="opacity:1" fill="#191917" d="M 296.5,474.5 C 309.752,474.636 322.752,476.47 335.5,480C 356.389,489.7 361.556,504.866 351,525.5C 322.409,556.39 290.909,559.557 256.5,535C 243.946,524.34 240.112,511.174 245,495.5C 249.754,487.524 256.588,482.024 265.5,479C 275.871,476.748 286.205,475.248 296.5,474.5 Z"/></g>
</svg>
