<?xml version="1.0" encoding="UTF-8"?>
<!DOCTYPE svg PUBLIC "-//W3C//DTD SVG 1.1//EN" "http://www.w3.org/Graphics/SVG/1.1/DTD/svg11.dtd">
<svg xmlns="http://www.w3.org/2000/svg" version="1.1" width="600px" height="600px" style="shape-rendering:geometricPrecision; text-rendering:geometricPrecision; image-rendering:optimizeQuality; fill-rule:evenodd; clip-rule:evenodd" xmlns:xlink="http://www.w3.org/1999/xlink">
<g><path style="opacity:0.97" fill="#010101" d="M 202.5,16.5 C 237.718,14.9345 271.551,20.9345 304,34.5C 331.538,20.8805 360.705,15.3805 391.5,18C 431.597,20.4786 468.93,31.812 503.5,52C 517.426,62.0105 527.926,74.8438 535,90.5C 546.985,121.082 554.651,152.749 558,185.5C 561.628,214.745 564.295,244.078 566,273.5C 568.647,325.474 570.647,377.474 572,429.5C 572.939,468.161 576.939,506.495 584,544.5C 586.938,557.477 590.771,570.144 595.5,582.5C 592.774,582.736 590.441,581.903 588.5,580C 580.263,572.433 572.763,564.267 566,555.5C 546.363,529.512 528.697,502.179 513,473.5C 508.6,499.415 507.767,525.415 510.5,551.5C 504.788,550.977 499.788,548.81 495.5,545C 486.168,537.01 478.334,527.843 472,517.5C 469.995,524.884 466.495,531.384 461.5,537C 460.551,537.617 459.718,537.451 459,536.5C 457.453,521.542 456.453,506.542 456,491.5C 453.667,486.833 451.333,482.167 449,477.5C 445.783,492.15 440.783,506.15 434,519.5C 432.311,522.891 430.144,525.891 427.5,528.5C 425.311,505.506 423.145,482.506 421,459.5C 418.623,463.29 416.623,467.29 415,471.5C 409.864,487.241 404.531,502.908 399,518.5C 397.744,522.016 395.744,525.016 393,527.5C 391.249,525.51 390.249,523.177 390,520.5C 389.051,508.766 387.717,497.1 386,485.5C 378.668,498.496 370.168,510.662 360.5,522C 358.975,523.009 357.308,523.509 355.5,523.5C 356.114,514.815 356.614,506.149 357,497.5C 338.969,509.96 319.302,518.96 298,524.5C 276.645,519.404 257.145,510.404 239.5,497.5C 239.167,497.833 238.833,498.167 238.5,498.5C 239.958,506.453 240.791,514.453 241,522.5C 240.439,523.022 239.772,523.355 239,523.5C 235.38,520.883 232.047,517.883 229,514.5C 222.247,503.994 215.247,493.66 208,483.5C 206.612,497.159 205.278,510.825 204,524.5C 202.672,534.818 200.005,535.152 196,525.5C 190.155,506.453 184.155,487.453 178,468.5C 176.667,465.833 175.333,463.167 174,460.5C 172.424,483.201 170.591,505.867 168.5,528.5C 157.753,511.994 150.586,493.994 147,474.5C 143.25,479.239 140.916,484.572 140,490.5C 139.771,505.892 138.771,521.225 137,536.5C 136.586,536.957 136.086,537.291 135.5,537.5C 133.851,536.352 132.351,535.019 131,533.5C 127.481,526.775 124.647,519.775 122.5,512.5C 113.207,524.96 101.874,535.127 88.5,543C 85.9234,544.25 83.2567,544.584 80.5,544C 86.9524,521.791 88.4524,499.291 85,476.5C 65.0587,511.553 40.892,543.387 12.5,572C 10.0602,573.303 7.56016,574.47 5,575.5C 4.5,575.167 4,574.833 3.5,574.5C 11.9813,552.934 17.4813,530.6 20,507.5C 21.8941,490.544 23.2274,473.544 24,456.5C 24.7542,369.4 28.0875,282.4 34,195.5C 35.5819,161.674 41.5819,128.674 52,96.5C 61.19,73.3157 76.69,55.8157 98.5,44C 131.375,27.6161 166.042,18.4494 202.5,16.5 Z"/></g>
<g><path style="opacity:1" fill="#323232" d="M 476.5,507.5 C 477.705,491.747 479.538,476.08 482,460.5C 484.737,413.808 475.07,370.142 453,329.5C 451.656,326.728 449.823,324.395 447.5,322.5C 415.338,277.567 371.338,253.067 315.5,249C 267.129,244.761 223.129,256.761 183.5,285C 153.38,310.381 133.213,342.214 123,380.5C 115.456,404.643 112.789,429.309 115,454.5C 116.345,469.922 118.012,485.255 120,500.5C 111.787,508.557 103.787,516.891 96,525.5C 96.9304,515.898 97.4304,506.231 97.5,496.5C 97.548,488.789 97.048,481.122 96,473.5C 94.0905,465.955 89.2572,463.121 81.5,465C 79.714,465.785 78.214,466.951 77,468.5C 62.3792,495.418 45.0459,520.418 25,543.5C 29.7158,517.434 32.7158,491.101 34,464.5C 35.2171,380.438 38.2171,296.438 43,212.5C 44.6437,192.132 46.6437,171.798 49,151.5C 51.6429,128.257 58.3096,106.257 69,85.5C 75.4512,74.0486 84.2845,64.882 95.5,58C 138.351,33.967 184.351,23.967 233.5,28C 257.69,30.0481 281.024,35.5481 303.5,44.5C 305.923,44.4057 308.256,43.9057 310.5,43C 325.135,34.8998 340.802,30.2331 357.5,29C 410.307,24.7557 458.974,36.7557 503.5,65C 516.565,76.9476 525.732,91.4476 531,108.5C 539.36,134.584 545.027,161.251 548,188.5C 551.963,222.756 554.963,257.089 557,291.5C 559,350.181 561.334,408.847 564,467.5C 565.806,494.758 569.139,521.758 574,548.5C 554.675,523.198 537.341,496.531 522,468.5C 514.792,461.21 508.459,461.877 503,470.5C 500.15,491.403 498.483,512.403 498,533.5C 495.333,530.833 492.667,528.167 490,525.5C 485.723,519.253 481.223,513.253 476.5,507.5 Z"/></g>
<g><path style="opacity:1" fill="#050505" d="M 183.5,132.5 C 207.279,131.698 230.945,132.864 254.5,136C 264.445,137.648 274.112,140.315 283.5,144C 288.761,146.545 293.594,149.712 298,153.5C 306.298,146.434 315.798,141.6 326.5,139C 346.865,133.997 367.532,131.83 388.5,132.5C 433.15,130.111 473.484,141.944 509.5,168C 511.667,170.167 513.833,172.333 516,174.5C 519.894,182.855 517.394,186.355 508.5,185C 497.401,180.078 486.068,175.744 474.5,172C 466.982,169.533 459.315,168.2 451.5,168C 463.463,176.081 471.963,186.915 477,200.5C 477.796,204.755 477.629,208.921 476.5,213C 474.833,213.667 473.167,213.667 471.5,213C 467.217,210.385 463.217,207.385 459.5,204C 458.517,203.409 457.85,203.743 457.5,205C 461.156,217.592 462.656,230.425 462,243.5C 459.084,245.013 456.418,244.68 454,242.5C 448.036,225.893 439.036,211.227 427,198.5C 431.303,222.54 421.303,236.207 397,239.5C 381.641,238.136 371.641,230.136 367,215.5C 364.853,200.295 370.353,188.795 383.5,181C 368.048,179.64 353.048,181.64 338.5,187C 333.902,189.27 329.569,191.937 325.5,195C 319.5,202.333 312.833,209 305.5,215C 300.5,218.333 295.5,218.333 290.5,215C 283.167,209 276.5,202.333 270.5,195C 253.325,183.36 234.325,178.694 213.5,181C 230.836,192.021 235.003,206.854 226,225.5C 214.501,240.215 200.334,243.382 183.5,235C 170.88,225.472 166.88,213.139 171.5,198C 171.167,197.833 170.833,197.667 170.5,197.5C 165.134,202.7 160.301,208.367 156,214.5C 150.806,223.554 146.139,232.888 142,242.5C 135.468,246.435 132.635,244.602 133.5,237C 133.926,225.67 135.926,214.67 139.5,204C 135.076,205.709 131.076,208.376 127.5,212C 124.711,213.664 121.877,213.83 119,212.5C 117.856,203.743 119.856,195.743 125,188.5C 130.46,180.706 136.96,173.873 144.5,168C 124.982,170.615 106.315,176.282 88.5,185C 78.248,186.522 75.748,182.689 81,173.5C 110.802,148.954 144.969,135.288 183.5,132.5 Z"/></g>
<g><path style="opacity:1" fill="#e5e4e3" d="M 185.5,137.5 C 210.328,136.511 234.995,138.011 259.5,142C 274.054,144.862 286.887,151.029 298,160.5C 310.253,150.128 324.419,143.628 340.5,141C 367.409,137.165 394.409,136.498 421.5,139C 454.304,142.742 483.637,154.742 509.5,175C 510.376,176.586 511.376,178.086 512.5,179.5C 512.167,179.833 511.833,180.167 511.5,180.5C 492.916,171.454 473.416,165.454 453,162.5C 445.87,161.494 443.537,164.16 446,170.5C 458.917,178.677 467.751,190.01 472.5,204.5C 472.267,205.932 471.6,206.432 470.5,206C 466.39,201.891 461.723,198.557 456.5,196C 450.906,194.087 448.739,195.92 450,201.5C 454.855,212.684 457.188,224.35 457,236.5C 450.607,218.213 440.107,202.713 425.5,190C 406.342,177.311 385.342,172.644 362.5,176C 349.031,176.601 336.698,180.601 325.5,188C 318.833,194.667 312.167,201.333 305.5,208C 303.252,209.914 300.752,211.414 298,212.5C 295.61,211.722 293.443,210.555 291.5,209C 284.5,202 277.5,195 270.5,188C 259.061,181.41 246.728,177.41 233.5,176C 186.393,171.771 154.893,191.938 139,236.5C 138.641,224.628 140.974,213.295 146,202.5C 147.913,196.906 146.08,194.739 140.5,196C 134.724,199.444 129.224,203.277 124,207.5C 123.95,203.302 124.95,199.302 127,195.5C 129.248,192.672 131.248,189.672 133,186.5C 138.645,180.523 144.645,174.857 151,169.5C 151.39,164.401 148.89,162.067 143.5,162.5C 138.15,163.225 132.817,164.058 127.5,165C 112.533,169.502 97.8668,174.502 83.5,180C 84.7899,177.708 86.4565,175.708 88.5,174C 117.292,152.265 149.625,140.098 185.5,137.5 Z"/></g>
<g><path style="opacity:1" fill="#eeeeee" d="M 213.5,193.5 C 222.244,193.413 224.577,197.246 220.5,205C 214.557,207.911 210.89,206.078 209.5,199.5C 210.347,197.129 211.68,195.129 213.5,193.5 Z"/></g>
<g><path style="opacity:1" fill="#f2f2f2" d="M 408.5,193.5 C 417.306,193.464 419.639,197.297 415.5,205C 407.735,207.575 404.568,204.742 406,196.5C 407.045,195.627 407.878,194.627 408.5,193.5 Z"/></g>
<g><path style="opacity:1" fill="#e6e5e4" d="M 275.5,258.5 C 387.616,253.119 452.783,305.786 471,416.5C 473.04,441.325 471.706,465.991 467,490.5C 466.069,472.87 464.403,455.203 462,437.5C 459.325,428.025 453.492,425.525 444.5,430C 443.283,431.648 442.45,433.481 442,435.5C 442.468,453.571 440.135,471.237 435,488.5C 433.454,478.891 432.454,469.224 432,459.5C 430.102,449.991 424.602,446.824 415.5,450C 409.904,457.024 405.737,464.857 403,473.5C 401.135,478.761 399.469,484.095 398,489.5C 397.52,484.379 395.686,479.879 392.5,476C 387.034,473.452 382.2,474.286 378,478.5C 374.667,483.833 371.333,489.167 368,494.5C 365.693,488.125 361.193,485.625 354.5,487C 349.228,489.941 344.228,493.274 339.5,497C 332.379,500.061 325.379,503.394 318.5,507C 311.68,510.33 304.514,512.496 297,513.5C 293.358,513.287 289.858,512.453 286.5,511C 271.281,505.394 257.281,497.727 244.5,488C 236.468,484.767 231.301,487.267 229,495.5C 224.944,488.112 220.111,481.278 214.5,475C 208.276,472.024 203.109,473.191 199,478.5C 197.263,482.649 196.263,486.983 196,491.5C 193.394,479.349 189.394,467.682 184,456.5C 179.615,449.612 173.782,448.112 166.5,452C 165.874,452.75 165.374,453.584 165,454.5C 163.138,465.082 161.805,475.748 161,486.5C 156.154,469.887 153.821,452.887 154,435.5C 151.367,430.268 147.201,428.435 141.5,430C 135.606,431.978 132.772,436.144 133,442.5C 131.789,455.459 131.122,468.459 131,481.5C 130.055,485.114 129.388,488.781 129,492.5C 116.572,435.746 124.905,382.413 154,332.5C 175.204,298.638 205.037,276.138 243.5,265C 254.216,262.357 264.883,260.191 275.5,258.5 Z"/></g>
<g><path style="opacity:1" fill="#000000" d="M 290.5,274.5 C 304.605,273.345 317.938,275.845 330.5,282C 338.474,288.947 340.641,297.447 337,307.5C 327.406,330.213 310.572,339.047 286.5,334C 267.34,326.166 258.507,311.999 260,291.5C 262.584,284.618 267.417,280.118 274.5,278C 279.905,276.504 285.239,275.337 290.5,274.5 Z"/></g>
<g><path style="opacity:1" fill="#030303" d="M 286.5,354.5 C 294,355.817 301.5,355.817 309,354.5C 312.349,355.741 313.182,357.908 311.5,361C 303.555,362.488 295.555,362.822 287.5,362C 282.704,359.842 282.371,357.342 286.5,354.5 Z"/></g>
<g><path style="opacity:1" fill="#222222" d="M 447.5,322.5 C 449.823,324.395 451.656,326.728 453,329.5C 475.07,370.142 484.737,413.808 482,460.5C 479.538,476.08 477.705,491.747 476.5,507.5C 474.748,507.582 473.748,506.749 473.5,505C 485.962,458.217 484.129,412.05 468,366.5C 461.937,351.379 455.103,336.712 447.5,322.5 Z"/></g>
<g><path style="opacity:1" fill="#2a2a2a" d="M 144.5,438.5 C 145.196,446.037 145.863,453.704 146.5,461.5C 145.232,463.047 143.565,464.047 141.5,464.5C 141.167,463.667 140.833,462.833 140.5,462C 141.193,457.19 141.693,452.357 142,447.5C 142.057,444.189 142.89,441.189 144.5,438.5 Z"/></g>
<g><path style="opacity:1" fill="#272726" d="M 451.5,437.5 C 453.068,439.811 453.902,442.478 454,445.5C 455.055,453.149 455.388,460.815 455,468.5C 453.89,466.963 452.39,466.297 450.5,466.5C 450.194,456.75 450.527,447.084 451.5,437.5 Z"/></g>
</svg>
