<?xml version="1.0" encoding="UTF-8"?>
<!DOCTYPE svg PUBLIC "-//W3C//DTD SVG 1.1//EN" "http://www.w3.org/Graphics/SVG/1.1/DTD/svg11.dtd">
<svg xmlns="http://www.w3.org/2000/svg" version="1.1" width="600px" height="600px" style="shape-rendering:geometricPrecision; text-rendering:geometricPrecision; image-rendering:optimizeQuality; fill-rule:evenodd; clip-rule:evenodd" xmlns:xlink="http://www.w3.org/1999/xlink">
<g><path style="opacity:0.969" fill="#030100" d="M 599.5,320.5 C 599.5,332.167 599.5,343.833 599.5,355.5C 593.048,359.465 586.548,359.465 580,355.5C 581.427,362.135 583.093,368.802 585,375.5C 585.667,381.833 585.667,388.167 585,394.5C 580.895,418.691 575.895,442.691 570,466.5C 566.061,471.868 560.894,473.535 554.5,471.5C 554.044,477.347 552.878,483.013 551,488.5C 547.187,492.409 542.687,493.742 537.5,492.5C 538.929,506.313 541.262,519.98 544.5,533.5C 541.272,550.05 532.272,554.217 517.5,546C 514.72,544.188 512.22,542.021 510,539.5C 507.683,546.814 502.683,550.814 495,551.5C 460.606,543.33 433.272,524.997 413,496.5C 407.408,485.057 403.408,473.057 401,460.5C 398.436,480.988 394.436,501.321 389,521.5C 383.923,535.577 374.423,545.411 360.5,551C 348.849,555.246 336.849,557.913 324.5,559C 308.5,559.667 292.5,559.667 276.5,559C 258.804,558.164 242.471,553.164 227.5,544C 217.918,536.762 212.085,527.262 210,515.5C 206.667,497.501 203.334,479.501 200,461.5C 195.339,491 180.506,513.833 155.5,530C 140.292,540.017 123.792,547.184 106,551.5C 102.633,550.867 99.4666,549.7 96.5,548C 94.369,545.552 92.369,543.052 90.5,540.5C 85.5689,546.05 79.4022,549.383 72,550.5C 64.2805,549.984 59.6139,545.984 58,538.5C 57.3333,534.833 57.3333,531.167 58,527.5C 61.2555,515.984 62.7555,504.317 62.5,492.5C 58.224,493.472 54.3906,492.472 51,489.5C 48.3935,483.799 46.8935,477.799 46.5,471.5C 39.66,473.721 34.4934,471.721 31,465.5C 24.3864,441.046 18.7197,416.379 14,391.5C 13.2166,379.132 15.3833,367.299 20.5,356C 17.0058,357.098 13.3391,357.931 9.5,358.5C 5.55359,358.522 2.22026,357.188 -0.5,354.5C -0.5,343.5 -0.5,332.5 -0.5,321.5C 2.8419,313.152 7.00856,305.152 12,297.5C 11.2383,283.213 14.5716,269.88 22,257.5C 44.1225,226.265 67.4559,195.932 92,166.5C 113.78,143.705 137.613,123.538 163.5,106C 180.729,86.2091 202.396,73.8758 228.5,69C 242.369,66.3307 256.369,64.8307 270.5,64.5C 289.665,65.7907 308.832,65.7907 328,64.5C 353.512,64.3358 378.012,69.1692 401.5,79C 415.554,86.3774 427.887,96.044 438.5,108C 476.504,134.002 509.337,165.502 537,202.5C 550.244,219.989 563.244,237.656 576,255.5C 584.194,268.062 587.861,281.729 587,296.5C 591.466,304.435 595.633,312.435 599.5,320.5 Z"/></g>
<g><path style="opacity:1" fill="#7d4d24" d="M 431.5,115.5 C 434.477,120.674 437.311,126.008 440,131.5C 442.153,141.359 444.987,150.692 448.5,159.5C 449.429,162.675 450.262,166.009 451,169.5C 451.298,181.205 452.131,192.872 453.5,204.5C 452.047,227.503 450.547,250.503 449,273.5C 446.923,285.554 444.589,297.554 442,309.5C 435.492,324.921 428.992,340.254 422.5,355.5C 421.5,355.5 420.5,355.5 419.5,355.5C 416.321,365.522 412.321,375.189 407.5,384.5C 406.868,388.817 406.368,393.15 406,397.5C 405.346,396.304 404.846,396.304 404.5,397.5C 405.618,402.78 405.784,408.113 405,413.5C 404.667,408.833 404.333,404.167 404,399.5C 394.839,432.971 387.839,466.971 383,501.5C 381.228,507.79 379.561,514.124 378,520.5C 373.771,530.396 366.604,537.229 356.5,541C 338.339,547.104 319.673,549.604 300.5,548.5C 280.201,549.783 260.535,546.95 241.5,540C 229.653,534.159 222.319,524.826 219.5,512C 213.664,471.561 205.497,431.395 195,391.5C 189.141,374.817 181.475,359.15 172,344.5C 168.299,336.953 164.799,329.287 161.5,321.5C 155.456,303.32 151.623,284.653 150,265.5C 147.858,236.9 147.025,208.233 147.5,179.5C 149.001,170.981 150.501,162.314 152,153.5C 155.127,144.986 157.627,136.32 159.5,127.5C 160.675,127.719 161.675,127.386 162.5,126.5C 176.655,102.237 197.655,86.7366 225.5,80C 234.08,78.1076 242.747,76.7743 251.5,76C 283.497,76.4851 315.497,76.4851 347.5,76C 372.54,77.5838 395.207,85.5838 415.5,100C 420.702,105.37 426.035,110.536 431.5,115.5 Z"/></g>
<g><path style="opacity:1" fill="#5d3712" d="M 431.5,115.5 C 436.955,119.115 442.288,122.948 447.5,127C 444.606,128.392 442.606,130.559 441.5,133.5C 444.478,142.086 446.812,150.753 448.5,159.5C 444.987,150.692 442.153,141.359 440,131.5C 437.311,126.008 434.477,120.674 431.5,115.5 Z"/></g>
<g><path style="opacity:1" fill="#673b10" d="M 448.5,137.5 C 449.251,136.427 450.251,136.26 451.5,137C 477.094,159.259 500.594,183.425 522,209.5C 526.333,215.833 530.667,222.167 535,228.5C 549.205,243.846 560.872,260.846 570,279.5C 571.607,285.688 571.774,291.855 570.5,298C 571.22,302.415 573.053,306.248 576,309.5C 578.956,316.377 582.289,323.044 586,329.5C 586.811,333.496 587.144,337.496 587,341.5C 586.167,340.667 585.333,339.833 584.5,339C 578.086,336.635 571.419,335.968 564.5,337C 563.107,338.171 562.273,339.671 562,341.5C 561.47,347.204 561.803,352.871 563,358.5C 566.652,366.724 569.152,375.39 570.5,384.5C 567.554,406.73 563.387,428.73 558,450.5C 549.666,440.238 543.332,441.238 539,453.5C 538.667,458.833 538.333,464.167 538,469.5C 532.584,462.598 527.584,462.931 523,470.5C 521.463,478.77 521.13,487.103 522,495.5C 523.383,508.027 525.55,520.361 528.5,532.5C 524.528,531.051 521.194,528.551 518.5,525C 513.613,521.965 508.28,520.132 502.5,519.5C 500.303,519.848 498.47,520.848 497,522.5C 496.172,526.466 495.672,530.466 495.5,534.5C 491.306,534.45 487.306,533.617 483.5,532C 475.5,528 467.5,524 459.5,520C 451.333,513.167 443.167,506.333 435,499.5C 430.636,493.734 426.636,487.734 423,481.5C 413.816,453.704 409.816,425.038 411,395.5C 412.333,391.5 413.667,387.5 415,383.5C 425.434,364.188 435.101,344.521 444,324.5C 445.756,317.687 447.756,311.02 450,304.5C 451.536,296.526 452.869,288.526 454,280.5C 455.723,260.521 457.056,240.521 458,220.5C 458.667,209.833 458.667,199.167 458,188.5C 456.696,179.996 456.029,171.329 456,162.5C 454.667,155.833 453.333,149.167 452,142.5C 451.098,140.569 449.931,138.903 448.5,137.5 Z"/></g>
<g><path style="opacity:1" fill="#673b10" d="M 149.5,136.5 C 150.097,136.735 150.43,137.235 150.5,138C 149.21,140.792 148.043,143.625 147,146.5C 145.403,155.135 144.07,163.801 143,172.5C 142.333,195.833 142.333,219.167 143,242.5C 144.309,252.34 144.975,262.34 145,272.5C 146.844,291.657 150.844,310.323 157,328.5C 165.625,345.715 174.625,362.715 184,379.5C 189.176,393.261 190.843,407.595 189,422.5C 187.875,441.18 184.875,459.513 180,477.5C 177.623,481.29 175.623,485.29 174,489.5C 166.5,499.667 157.667,508.5 147.5,516C 141.938,518.965 136.605,522.299 131.5,526C 124.833,528.667 118.167,531.333 111.5,534C 109.741,534.798 108.074,534.631 106.5,533.5C 107.067,521.555 101.734,517.388 90.5,521C 87.8333,522.333 85.1667,523.667 82.5,525C 79.9841,527.683 77.3174,530.183 74.5,532.5C 74.1667,531.833 73.8333,531.167 73.5,530.5C 75.822,519.262 77.6553,507.929 79,496.5C 79.8527,487.114 79.5194,477.781 78,468.5C 73.543,463.998 68.8763,463.664 64,467.5C 63.6331,461.796 62.9664,456.13 62,450.5C 59.3714,444.178 54.8714,442.344 48.5,445C 46.2546,447.245 44.4213,449.079 43,450.5C 38.6821,433.604 34.6821,416.604 31,399.5C 28.0164,385.076 29.6831,371.41 36,358.5C 37.1679,353.518 37.8345,348.518 38,343.5C 37.4837,340.966 36.317,338.8 34.5,337C 26.2249,335.278 18.7249,336.778 12,341.5C 11.8333,340.667 11.6667,339.833 11.5,339C 13.8258,327.013 18.6591,316.18 26,306.5C 28.5363,300.995 29.0363,295.328 27.5,289.5C 27.6764,286.118 28.1764,282.785 29,279.5C 35.0333,266.792 42.7,255.126 52,244.5C 75.285,209.841 102.452,178.007 133.5,149C 134.5,148.667 135.5,148.333 136.5,148C 140.457,143.531 144.79,139.698 149.5,136.5 Z"/></g>
<g><path style="opacity:1" fill="#190f04" d="M 147.5,179.5 C 147.025,208.233 147.858,236.9 150,265.5C 151.623,284.653 155.456,303.32 161.5,321.5C 160.542,321.047 159.708,320.381 159,319.5C 157.667,315.5 156.333,311.5 155,307.5C 152.857,294.765 150.857,282.098 149,269.5C 148.975,259.34 148.309,249.34 147,239.5C 146.171,219.329 146.338,199.329 147.5,179.5 Z"/></g>
<g><path style="opacity:1" fill="#673b11" d="M 210.5,230.5 C 239.129,228.632 253.296,241.965 253,270.5C 246.991,289.923 233.824,299.09 213.5,298C 192.161,291.843 182.995,277.677 186,255.5C 190.044,242.958 198.21,234.624 210.5,230.5 Z"/></g>
<g><path style="opacity:1" fill="#673b11" d="M 372.5,230.5 C 393.608,228.126 407.775,236.792 415,256.5C 416.752,281.744 405.085,295.744 380,298.5C 363.178,296.761 352.512,287.761 348,271.5C 345.426,251.302 353.593,237.635 372.5,230.5 Z"/></g>
<g><path style="opacity:1" fill="#241815" d="M 213.5,239.5 C 234.019,239.184 243.852,249.184 243,269.5C 238.203,283.651 228.369,289.817 213.5,288C 197.092,281.684 191.592,270.184 197,253.5C 201.146,247.183 206.646,242.516 213.5,239.5 Z"/></g>
<g><path style="opacity:1" fill="#231815" d="M 373.5,240.5 C 398.332,239.151 408.165,250.485 403,274.5C 396.031,286.272 385.865,290.438 372.5,287C 359.09,279.999 354.59,269.166 359,254.5C 362.408,248.257 367.242,243.59 373.5,240.5 Z"/></g>
<g><path style="opacity:1" fill="#f3f3f3" d="M 211.5,248.5 C 219.201,248.362 222.367,252.029 221,259.5C 216.667,264.833 212.333,264.833 208,259.5C 206.662,254.96 207.829,251.293 211.5,248.5 Z"/></g>
<g><path style="opacity:1" fill="#f2f1f1" d="M 372.5,248.5 C 380.147,248.313 383.314,251.98 382,259.5C 377.715,264.821 373.381,264.821 369,259.5C 367.662,254.96 368.829,251.293 372.5,248.5 Z"/></g>
<g><path style="opacity:1" fill="#231815" d="M 297.5,439.5 C 312.654,439.115 326.988,442.281 340.5,449C 352.745,460.367 354.578,473.201 346,487.5C 334.362,501.905 319.195,509.905 300.5,511.5C 294.739,510.762 289.073,509.596 283.5,508C 275.149,504.491 267.149,500.491 259.5,496C 247.187,483.562 245.354,469.728 254,454.5C 259.396,448.135 266.063,444.801 274,444.5C 281.87,442.54 289.703,440.874 297.5,439.5 Z"/></g>
</svg>
