<?xml version="1.0" encoding="UTF-8"?>
<!DOCTYPE svg PUBLIC "-//W3C//DTD SVG 1.1//EN" "http://www.w3.org/Graphics/SVG/1.1/DTD/svg11.dtd">
<svg xmlns="http://www.w3.org/2000/svg" version="1.1" width="600px" height="600px" style="shape-rendering:geometricPrecision; text-rendering:geometricPrecision; image-rendering:optimizeQuality; fill-rule:evenodd; clip-rule:evenodd" xmlns:xlink="http://www.w3.org/1999/xlink">
<g><path style="opacity:0.964" fill="#020202" d="M 599.5,212.5 C 599.5,226.167 599.5,239.833 599.5,253.5C 591.488,270.354 581.988,286.354 571,301.5C 547.479,338.21 528.479,377.21 514,418.5C 501.685,431.763 489.352,431.763 477,418.5C 470.393,408.618 465.393,397.952 462,386.5C 448.187,422.279 434.187,457.946 420,493.5C 417.066,508.978 411.4,523.311 403,536.5C 388.861,551.995 371.694,556.495 351.5,550C 332.486,544.828 315.486,535.995 300.5,523.5C 278.378,542.56 252.712,552.06 223.5,552C 206.227,547.397 194.727,536.563 189,519.5C 184.07,502.71 178.737,486.043 173,469.5C 161.333,440.5 149.667,411.5 138,382.5C 135.038,393.717 130.705,404.384 125,414.5C 112.933,432.048 99.5992,433.382 85,418.5C 76.5409,392.911 65.8742,368.245 53,344.5C 39.0046,319.167 24.0046,294.501 8,270.5C 5.12073,264.741 2.28739,259.075 -0.5,253.5C -0.5,240.167 -0.5,226.833 -0.5,213.5C 5.97583,202.509 13.4758,192.176 22,182.5C 57.3909,143.419 97.2242,109.919 141.5,82C 160.398,70.8673 180.731,64.034 202.5,61.5C 204.038,61.6728 205.538,62.0062 207,62.5C 237.098,51.0805 268.264,45.7472 300.5,46.5C 332.768,45.7509 363.935,51.0843 394,62.5C 413.918,63.1308 432.751,68.2975 450.5,78C 502.956,109.1 548.789,148.266 588,195.5C 592.352,200.887 596.185,206.553 599.5,212.5 Z"/></g>
<g><path style="opacity:1" fill="#f5f5f5" d="M 413.5,91.5 C 414.08,93.7488 415.413,95.4154 417.5,96.5C 427.897,108.292 434.897,121.959 438.5,137.5C 438.59,141.214 439.59,144.548 441.5,147.5C 441.41,150.152 442.076,152.485 443.5,154.5C 444.451,155.919 444.784,157.585 444.5,159.5C 445.518,169.821 447.185,179.821 449.5,189.5C 451.04,197.631 452.207,205.964 453,214.5C 454.444,250.896 456.611,287.229 459.5,323.5C 460.314,332.527 461.314,341.527 462.5,350.5C 452.272,383.28 440.105,415.28 426,446.5C 420.466,462.217 414.966,477.884 409.5,493.5C 401.772,462.876 386.438,436.71 363.5,415C 331.204,388.504 296.204,384.171 258.5,402C 236.768,416.33 220.268,435.164 209,458.5C 203.109,472.351 197.942,486.351 193.5,500.5C 191.381,490.64 188.547,480.973 185,471.5C 173.886,442.606 162.22,413.94 150,385.5C 145.847,373.546 142.014,361.546 138.5,349.5C 139.034,336.825 139.701,324.158 140.5,311.5C 141.497,302.865 142.164,294.198 142.5,285.5C 144.478,274.215 145.145,262.548 144.5,250.5C 144.5,249.5 144.5,248.5 144.5,247.5C 146.474,237.889 147.141,227.889 146.5,217.5C 148.737,202.144 150.737,186.477 152.5,170.5C 152.205,168.265 152.539,166.265 153.5,164.5C 154.924,162.485 155.59,160.152 155.5,157.5C 155.207,154.246 155.874,151.246 157.5,148.5C 160.875,142.705 162.875,136.372 163.5,129.5C 164.766,123.64 167.1,118.307 170.5,113.5C 171.708,112.766 173.041,112.433 174.5,112.5C 176.165,108.968 177.665,105.301 179,101.5C 186.683,94.3174 193.849,86.6507 200.5,78.5C 204.819,74.6679 209.819,71.8346 215.5,70C 234.25,63.2081 253.583,59.2081 273.5,58C 309.848,54.6685 345.515,58.0018 380.5,68C 393.863,72.5322 404.863,80.3656 413.5,91.5 Z"/></g>
<g><path style="opacity:1" fill="#362e2b" d="M 185.5,79.5 C 186.978,79.238 188.311,79.5713 189.5,80.5C 169.381,100.061 156.548,123.728 151,151.5C 148.107,165.534 145.441,179.534 143,193.5C 139.88,231.394 137.547,269.394 136,307.5C 132.865,334.885 127.532,361.885 120,388.5C 117.765,395.211 114.765,401.544 111,407.5C 104.804,415.992 99.8042,415.326 96,405.5C 87.462,379.423 76.462,354.423 63,330.5C 48.1693,304.834 32.8359,279.501 17,254.5C 8.75366,238.767 9.75366,223.767 20,209.5C 60.0509,159.42 107.884,118.92 163.5,88C 170.821,84.828 178.154,81.9947 185.5,79.5 Z"/></g>
<g><path style="opacity:1" fill="#362f2c" d="M 409.5,80.5 C 409.917,79.8761 410.584,79.5427 411.5,79.5C 435.604,86.7182 457.604,97.8849 477.5,113C 515.812,140.975 549.979,173.475 580,210.5C 588.877,223.857 589.877,237.857 583,252.5C 565.83,280.169 549.163,308.169 533,336.5C 520.403,360.023 509.737,384.357 501,409.5C 496.791,414.686 492.791,414.353 489,408.5C 486.079,403.659 483.412,398.659 481,393.5C 472.172,364.692 466.172,335.359 463,305.5C 461.548,267.722 459.214,230.055 456,192.5C 452.542,163.669 444.876,136.002 433,109.5C 426.818,98.486 418.985,88.8193 409.5,80.5 Z"/></g>
<g><path style="opacity:1" fill="#646464" d="M 194.5,83.5 C 191.5,87.1667 188.167,90.5 184.5,93.5C 186.833,89.1667 190.167,85.8333 194.5,83.5 Z"/></g>
<g><path style="opacity:1" fill="#38312e" d="M 199.5,93.5 C 204.635,92.4262 208.468,94.0928 211,98.5C 213.237,105.845 211.07,111.345 204.5,115C 197.175,116.757 193.008,113.924 192,106.5C 191.882,100.744 194.382,96.4112 199.5,93.5 Z"/></g>
<g><path style="opacity:1" fill="#909090" d="M 413.5,91.5 C 415.587,92.5846 416.92,94.2512 417.5,96.5C 415.413,95.4154 414.08,93.7488 413.5,91.5 Z"/></g>
<g><path style="opacity:1" fill="#bdbdbd" d="M 200.5,78.5 C 193.849,86.6507 186.683,94.3174 179,101.5C 177.665,105.301 176.165,108.968 174.5,112.5C 173.041,112.433 171.708,112.766 170.5,113.5C 174.006,105.998 178.673,99.3317 184.5,93.5C 188.167,90.5 191.5,87.1667 194.5,83.5C 195.911,81.086 197.911,79.4194 200.5,78.5 Z"/></g>
<g><path style="opacity:1" fill="#39312e" d="M 396.5,114.5 C 410.865,116.037 417.365,124.037 416,138.5C 412.078,143.289 407.578,143.789 402.5,140C 394.575,134.98 391.408,127.813 393,118.5C 394.376,117.295 395.542,115.962 396.5,114.5 Z"/></g>
<g><path style="opacity:1" fill="#a9a9a9" d="M 163.5,129.5 C 162.875,136.372 160.875,142.705 157.5,148.5C 158.324,141.699 160.324,135.365 163.5,129.5 Z"/></g>
<g><path style="opacity:1" fill="#8f8f8f" d="M 438.5,137.5 C 440.277,140.505 441.277,143.838 441.5,147.5C 439.59,144.548 438.59,141.214 438.5,137.5 Z"/></g>
<g><path style="opacity:1" fill="#8b8b8b" d="M 441.5,147.5 C 442.924,149.515 443.59,151.848 443.5,154.5C 442.076,152.485 441.41,150.152 441.5,147.5 Z"/></g>
<g><path style="opacity:1" fill="#f1f1f1" d="M 479.5,152.5 C 491.139,152.304 496.306,157.971 495,169.5C 491.307,176.759 485.474,179.259 477.5,177C 470.129,171.887 468.629,165.387 473,157.5C 474.965,155.45 477.132,153.783 479.5,152.5 Z"/></g>
<g><path style="opacity:1" fill="#f0f0f0" d="M 118.5,157.5 C 127.303,158.064 130.469,162.731 128,171.5C 125.945,181.245 120.111,186.078 110.5,186C 106.741,182.257 105.574,177.757 107,172.5C 108.941,165.906 112.774,160.906 118.5,157.5 Z"/></g>
<g><path style="opacity:1" fill="#919191" d="M 155.5,157.5 C 155.59,160.152 154.924,162.485 153.5,164.5C 153.41,161.848 154.076,159.515 155.5,157.5 Z"/></g>
<g><path style="opacity:1" fill="#efefef" d="M 524.5,171.5 C 528.35,171.178 531.517,172.511 534,175.5C 538.365,182.252 540.031,189.585 539,197.5C 537.065,205.874 532.731,207.541 526,202.5C 521.336,195.511 519.336,187.844 520,179.5C 520.738,176.352 522.238,173.685 524.5,171.5 Z"/></g>
<g><path style="opacity:1" fill="#a9a9a9" d="M 444.5,159.5 C 447.298,169.166 448.964,179.166 449.5,189.5C 447.185,179.821 445.518,169.821 444.5,159.5 Z"/></g>
<g><path style="opacity:1" fill="#adadad" d="M 152.5,170.5 C 150.737,186.477 148.737,202.144 146.5,217.5C 146.872,201.475 148.872,185.808 152.5,170.5 Z"/></g>
<g><path style="opacity:1" fill="#372f2c" d="M 350.5,201.5 C 373.777,199.314 394.443,205.481 412.5,220C 424.199,233.925 429.533,250.092 428.5,268.5C 429.006,287.808 424.506,305.808 415,322.5C 405.72,337.129 392.553,342.296 375.5,338C 362.49,333.986 351.99,326.486 344,315.5C 327.894,289.077 320.894,260.41 323,229.5C 324.876,221.246 328.709,214.079 334.5,208C 339.607,204.935 344.94,202.769 350.5,201.5 Z"/></g>
<g><path style="opacity:1" fill="#f1f1f1" d="M 48.5,214.5 C 60.0912,213.588 67.9246,218.588 72,229.5C 74.7317,242.397 69.7317,250.064 57,252.5C 48.2114,251.437 42.2114,246.77 39,238.5C 35.7982,227.913 38.9649,219.913 48.5,214.5 Z"/></g>
<g><path style="opacity:1" fill="#a7a7a7" d="M 146.5,217.5 C 147.141,227.889 146.474,237.889 144.5,247.5C 145.066,237.349 145.733,227.349 146.5,217.5 Z"/></g>
<g><path style="opacity:1" fill="#020202" d="M 221.5,236.5 C 243.879,240.385 252.379,253.385 247,275.5C 239.051,289.551 227.217,294.384 211.5,290C 194.449,280.172 190.282,266.339 199,248.5C 204.991,241.424 212.491,237.424 221.5,236.5 Z"/></g>
<g><path style="opacity:1" fill="#000000" d="M 369.5,236.5 C 393.394,236.222 404.227,247.889 402,271.5C 394.41,289.708 381.244,295.542 362.5,289C 351.123,282.076 346.29,271.909 348,258.5C 351.35,247.318 358.517,239.984 369.5,236.5 Z"/></g>
<g><path style="opacity:1" fill="#f2f2f2" d="M 504.5,246.5 C 515.359,247.184 522.193,252.851 525,263.5C 527.201,274.595 523.367,282.761 513.5,288C 502.128,288.325 494.962,282.825 492,271.5C 489.853,259.793 494.019,251.46 504.5,246.5 Z"/></g>
<g><path style="opacity:1" fill="#f3f3f3" d="M 213.5,247.5 C 220.019,247.85 222.519,251.183 221,257.5C 217.478,262.398 213.478,262.731 209,258.5C 207.391,253.391 208.891,249.725 213.5,247.5 Z"/></g>
<g><path style="opacity:1" fill="#ededed" d="M 366.5,247.5 C 376.286,249.089 377.953,253.589 371.5,261C 364.333,261.833 361.167,258.667 362,251.5C 363.397,249.93 364.897,248.596 366.5,247.5 Z"/></g>
<g><path style="opacity:1" fill="#efeeee" d="M 109.5,257.5 C 116.148,259.317 120.315,263.65 122,270.5C 123.363,274.761 123.696,279.095 123,283.5C 120.398,292.374 115.732,293.707 109,287.5C 103.18,278.962 102.18,269.962 106,260.5C 107.145,259.364 108.312,258.364 109.5,257.5 Z"/></g>
<g><path style="opacity:1" fill="#a4a4a4" d="M 144.5,250.5 C 145.145,262.548 144.478,274.215 142.5,285.5C 143.082,273.684 143.749,262.017 144.5,250.5 Z"/></g>
<g><path style="opacity:1" fill="#acacac" d="M 140.5,311.5 C 139.701,324.158 139.034,336.825 138.5,349.5C 137.345,342.679 137.179,335.679 138,328.5C 139.022,322.731 139.855,317.064 140.5,311.5 Z"/></g>
<g><path style="opacity:1" fill="#a2a2a2" d="M 459.5,323.5 C 460.996,328.964 462.163,334.631 463,340.5C 463.808,344.027 463.641,347.36 462.5,350.5C 461.314,341.527 460.314,332.527 459.5,323.5 Z"/></g>
<g><path style="opacity:1" fill="#ececec" d="M 106.5,378.5 C 108.144,378.286 109.644,378.62 111,379.5C 113.129,386.561 110.962,391.561 104.5,394.5C 103.558,394.392 102.725,394.059 102,393.5C 100.376,387.388 101.876,382.388 106.5,378.5 Z"/></g>
<g><path style="opacity:1" fill="#372f2c" d="M 409.5,493.5 C 406.81,507.208 401.644,519.875 394,531.5C 387.511,538.827 379.344,542.493 369.5,542.5C 345.676,539.621 324.676,530.454 306.5,515C 302.5,511.667 298.5,511.667 294.5,515C 277.996,529.083 258.996,538.083 237.5,542C 224.474,544.104 213.974,539.937 206,529.5C 200.372,520.444 196.205,510.777 193.5,500.5C 197.942,486.351 203.109,472.351 209,458.5C 220.268,435.164 236.768,416.33 258.5,402C 296.204,384.171 331.204,388.504 363.5,415C 386.438,436.71 401.772,462.876 409.5,493.5 Z"/></g>
<g><path style="opacity:1" fill="#000000" d="M 287.5,423.5 C 300.706,422.713 313.706,423.88 326.5,427C 345.637,431.82 353.137,443.653 349,462.5C 346.063,471.872 340.563,479.372 332.5,485C 304.101,502.78 278.935,498.946 257,473.5C 249.983,462.174 249.816,450.841 256.5,439.5C 256.291,438.914 255.957,438.414 255.5,438C 264.623,429.603 275.289,424.769 287.5,423.5 Z"/></g>
</svg>
