<?xml version="1.0" encoding="UTF-8"?>
<!DOCTYPE svg PUBLIC "-//W3C//DTD SVG 1.1//EN" "http://www.w3.org/Graphics/SVG/1.1/DTD/svg11.dtd">
<svg xmlns="http://www.w3.org/2000/svg" version="1.1" width="600px" height="600px" style="shape-rendering:geometricPrecision; text-rendering:geometricPrecision; image-rendering:optimizeQuality; fill-rule:evenodd; clip-rule:evenodd" xmlns:xlink="http://www.w3.org/1999/xlink">
<g><path style="opacity:0.952" fill="#010101" d="M 599.5,203.5 C 599.5,216.5 599.5,229.5 599.5,242.5C 595.741,244.321 591.741,244.821 587.5,244C 585.848,245.47 584.848,247.303 584.5,249.5C 587.659,259.051 588.159,268.718 586,278.5C 583.381,284.276 578.881,286.943 572.5,286.5C 572.119,291.237 571.286,295.904 570,300.5C 563.742,314.852 556.575,328.685 548.5,342C 545.095,343.544 541.595,344.711 538,345.5C 532.417,364.328 524.417,381.995 514,398.5C 505.731,408.382 495.231,412.216 482.5,410C 468.226,406.364 455.892,399.364 445.5,389C 438.581,395.919 431.414,403.086 424,410.5C 422.08,413.339 420.413,416.339 419,419.5C 414.063,433.645 408.729,447.645 403,461.5C 402.751,473.202 401.418,484.535 399,495.5C 393.526,510.308 383.359,520.474 368.5,526C 359.687,529.662 350.52,531.162 341,530.5C 330.387,530.487 319.887,529.487 309.5,527.5C 296.895,527.66 284.228,528.493 271.5,530C 221.42,534.553 196.253,511.719 196,461.5C 190.945,443.659 183.945,426.659 175,410.5C 167.572,403.744 160.905,396.411 155,388.5C 144.856,397.494 133.356,404.327 120.5,409C 106.364,413.011 94.5306,409.511 85,398.5C 74.5832,381.995 66.5832,364.328 61,345.5C 53.2771,344.643 47.9437,340.643 45,333.5C 40.3333,324.167 35.6667,314.833 31,305.5C 28.4161,299.412 26.9161,293.078 26.5,286.5C 15.5934,285.406 10.5934,279.239 11.5,268C 11.7967,261.72 12.7967,255.553 14.5,249.5C 13.4331,243.798 10.2665,242.131 5,244.5C 3.1852,243.756 1.35187,243.089 -0.5,242.5C -0.5,229.5 -0.5,216.5 -0.5,203.5C 10.9298,190.23 22.5965,177.063 34.5,164C 39.8528,160.322 45.5194,157.156 51.5,154.5C 46.2054,148.035 46.2054,141.535 51.5,135C 63.4938,127.891 76.4938,123.558 90.5,122C 96.6683,116.916 103.668,113.416 111.5,111.5C 113.574,102.6 119.241,97.7671 128.5,97C 121.217,88.4402 120.883,79.7735 127.5,71C 129.916,69.9371 132.416,69.1037 135,68.5C 161.926,83.1058 190.76,89.9392 221.5,89C 225.537,89.5683 229.37,90.735 233,92.5C 238.949,90.2421 245.116,88.7421 251.5,88C 277.359,89.1397 303.192,88.6397 329,86.5C 341.308,86.6951 353.308,88.6951 365,92.5C 369.344,90.7185 373.844,89.5518 378.5,89C 409.076,89.8542 437.743,83.0208 464.5,68.5C 474.589,70.4335 478.422,76.4335 476,86.5C 474.774,89.9518 473.274,93.2852 471.5,96.5C 477.435,97.7527 482.268,100.753 486,105.5C 486.662,107.813 487.162,110.146 487.5,112.5C 495.494,113.497 502.494,116.664 508.5,122C 522.506,123.558 535.506,127.891 547.5,135C 549.971,137.941 551.637,141.274 552.5,145C 551.637,148.726 549.971,152.059 547.5,155C 553.61,157.221 559.277,160.221 564.5,164C 576.404,177.063 588.07,190.23 599.5,203.5 Z"/></g>
<g><path style="opacity:1" fill="#5a4d43" d="M 230.5,105.5 C 230.699,108.941 230.199,112.274 229,115.5C 223.722,123.778 218.055,131.778 212,139.5C 197.807,165.412 188.807,193.079 185,222.5C 183.242,253.97 180.242,285.304 176,316.5C 173.098,334.875 167.265,352.208 158.5,368.5C 149.128,380.695 137.461,390.195 123.5,397C 111.198,403.304 100.698,401.137 92,390.5C 89.6667,386.5 87.3333,382.5 85,378.5C 78.0562,361.612 71.3895,344.612 65,327.5C 64.3109,326.643 63.4776,325.977 62.5,325.5C 60.8555,327.925 59.6888,330.592 59,333.5C 58.3333,334.833 57.6667,334.833 57,333.5C 49.5859,320.672 43.2526,307.339 38,293.5C 37.3476,287.979 37.5142,282.479 38.5,277C 37.9722,274.119 37.3055,271.285 36.5,268.5C 31.9405,269.538 28.2739,272.038 25.5,276C 24.5509,276.617 23.7175,276.451 23,275.5C 22.3333,269.167 22.3333,262.833 23,256.5C 24.3228,252.892 24.9895,249.225 25,245.5C 20.9869,235.582 13.8203,231.582 3.5,233.5C 3.28099,232.325 3.61432,231.325 4.5,230.5C 9.24356,226.712 14.0769,223.045 19,219.5C 20.0086,217.975 20.5086,216.308 20.5,214.5C 15.8333,214.5 11.1667,214.5 6.5,214.5C 16.7614,199.383 28.4281,185.217 41.5,172C 49.9553,166.067 59.2886,162.067 69.5,160C 74.3253,157.865 74.6586,155.199 70.5,152C 65.7018,150.411 61.3684,148.077 57.5,145C 57.7591,143.739 58.4258,142.739 59.5,142C 70.789,136.177 82.789,132.844 95.5,132C 99.3815,127.786 104.048,124.786 109.5,123C 116.707,121.066 124.04,120.233 131.5,120.5C 131.67,119.178 131.337,118.011 130.5,117C 127.898,116.023 125.398,114.856 123,113.5C 122.439,110.702 123.606,108.869 126.5,108C 132.175,107.406 137.842,106.74 143.5,106C 144.428,105.612 145.095,104.945 145.5,104C 141.682,98.177 137.849,92.3437 134,86.5C 133.5,85 133,83.5 132.5,82C 132.667,80.5 133.5,79.6667 135,79.5C 154.699,90.6207 175.866,97.1207 198.5,99C 207.167,99.3333 215.833,99.6667 224.5,100C 227.647,100.649 229.647,102.482 230.5,105.5 Z"/></g>
<g><path style="opacity:1" fill="#5a4d43" d="M 440.5,369.5 C 431.566,351.112 425.399,331.778 422,311.5C 418.671,281.566 416.004,251.566 414,221.5C 409.534,182.59 395.2,147.924 371,117.5C 369.236,113.296 368.07,108.962 367.5,104.5C 369.433,102.404 371.767,100.904 374.5,100C 406.889,100.358 437.555,93.5248 466.5,79.5C 464.457,88.2489 460.29,95.9156 454,102.5C 453.251,103.635 453.417,104.635 454.5,105.5C 460.04,107.046 465.706,107.88 471.5,108C 473.519,108.45 475.352,109.283 477,110.5C 477.507,111.996 477.007,113.163 475.5,114C 472.193,114.653 469.527,116.319 467.5,119C 477.392,120.048 487.059,122.382 496.5,126C 499.128,127.626 501.461,129.626 503.5,132C 516.134,133.158 528.134,136.491 539.5,142C 541.421,143.241 541.754,144.741 540.5,146.5C 535.136,148.264 530.302,150.931 526,154.5C 525.333,155.5 525.333,156.5 526,157.5C 531.985,161.29 538.485,163.79 545.5,165C 549.327,166.746 552.993,168.746 556.5,171C 568.922,184.032 580.756,197.532 592,211.5C 592.483,212.448 592.649,213.448 592.5,214.5C 587.833,214.5 583.167,214.5 578.5,214.5C 578.491,216.308 578.991,217.975 580,219.5C 584.923,223.045 589.756,226.712 594.5,230.5C 595.386,231.325 595.719,232.325 595.5,233.5C 589.081,231.147 583.581,232.48 579,237.5C 577.333,240.167 575.667,242.833 574,245.5C 574.011,249.225 574.677,252.892 576,256.5C 576.667,262.833 576.667,269.167 576,275.5C 575.282,276.451 574.449,276.617 573.5,276C 570.726,272.038 567.059,269.538 562.5,268.5C 561.989,271.028 561.322,273.528 560.5,276C 562.36,285.113 561.526,293.947 558,302.5C 552.922,312.99 547.589,323.323 542,333.5C 541.333,334.833 540.667,334.833 540,333.5C 539.402,330.692 538.235,328.192 536.5,326C 535.668,325.312 535.002,325.479 534.5,326.5C 528.902,340.794 523.402,355.128 518,369.5C 514.039,379.937 508.206,389.103 500.5,397C 493.021,401.247 485.354,401.58 477.5,398C 462.96,391.285 450.627,381.785 440.5,369.5 Z"/></g>
<g><path style="opacity:1" fill="#68594d" d="M 367.5,104.5 C 368.07,108.962 369.236,113.296 371,117.5C 395.2,147.924 409.534,182.59 414,221.5C 416.004,251.566 418.671,281.566 422,311.5C 425.399,331.778 431.566,351.112 440.5,369.5C 436.137,382.863 428.304,393.863 417,402.5C 415.667,404.5 414.333,406.5 413,408.5C 406.473,422.917 400.64,437.584 395.5,452.5C 394.883,452.389 394.383,452.056 394,451.5C 392.872,446.861 391.872,442.195 391,437.5C 385.887,427.941 381.887,417.941 379,407.5C 373.848,397.865 368.681,388.198 363.5,378.5C 354.783,369.394 347.283,359.394 341,348.5C 334.283,340.905 327.45,333.405 320.5,326C 305.912,317.025 291.579,317.359 277.5,327C 250.292,354.222 229.459,385.722 215,421.5C 210.91,434.368 208.077,447.368 206.5,460.5C 201.097,440.447 193.264,421.447 183,403.5C 174.495,396.337 167.495,388.004 162,378.5C 160.54,375.252 159.374,371.919 158.5,368.5C 167.265,352.208 173.098,334.875 176,316.5C 180.242,285.304 183.242,253.97 185,222.5C 188.807,193.079 197.807,165.412 212,139.5C 218.055,131.778 223.722,123.778 229,115.5C 230.199,112.274 230.699,108.941 230.5,105.5C 235.747,101.513 241.747,99.3459 248.5,99C 262.169,98.5513 275.836,98.7179 289.5,99.5C 302.504,98.8996 315.504,98.233 328.5,97.5C 342.018,97.1415 355.018,99.4748 367.5,104.5 Z"/></g>
<g><path style="opacity:1" fill="#533d31" d="M 225.5,259.5 C 250.534,259.364 262.367,271.697 261,296.5C 255.54,313.152 244.04,320.652 226.5,319C 207.711,313.623 199.878,301.123 203,281.5C 207.117,270.548 214.617,263.215 225.5,259.5 Z"/></g>
<g><path style="opacity:1" fill="#533d31" d="M 362.5,259.5 C 380.595,258.765 392.095,267.099 397,284.5C 397.008,309.489 384.508,320.989 359.5,319C 343.733,312.982 336.399,301.482 337.5,284.5C 340.916,271.084 349.25,262.75 362.5,259.5 Z"/></g>
<g><path style="opacity:1" fill="#020101" d="M 228.5,270.5 C 241.696,270.535 249.029,277.035 250.5,290C 249.418,301.582 243.085,308.082 231.5,309.5C 214.096,305.36 208.93,295.026 216,278.5C 219.579,274.724 223.746,272.057 228.5,270.5 Z"/></g>
<g><path style="opacity:1" fill="#010000" d="M 360.5,271.5 C 375.318,269.173 383.652,275.34 385.5,290C 383.665,304.818 375.331,310.818 360.5,308C 346.09,299.978 343.757,289.311 353.5,276C 355.898,274.476 358.231,272.976 360.5,271.5 Z"/></g>
<g><path style="opacity:1" fill="#e2e2e2" d="M 224.5,276.5 C 231.519,276.723 233.519,279.89 230.5,286C 224.24,288.412 221.407,286.245 222,279.5C 222.698,278.309 223.531,277.309 224.5,276.5 Z"/></g>
<g><path style="opacity:1" fill="#dfdfdf" d="M 359.5,276.5 C 367.774,276.929 369.44,280.429 364.5,287C 356.088,286.812 354.421,283.312 359.5,276.5 Z"/></g>
<g><path style="opacity:1" fill="#5a4d43" d="M 395.5,452.5 C 394.346,455.479 393.18,458.479 392,461.5C 395.602,498.048 379.268,517.714 343,520.5C 328.441,519.79 313.941,518.456 299.5,516.5C 281.919,519.122 264.253,520.288 246.5,520C 224.996,515.829 212.163,502.996 208,481.5C 207.797,474.421 207.297,467.421 206.5,460.5C 208.077,447.368 210.91,434.368 215,421.5C 229.459,385.722 250.292,354.222 277.5,327C 291.579,317.359 305.912,317.025 320.5,326C 327.45,333.405 334.283,340.905 341,348.5C 347.283,359.394 354.783,369.394 363.5,378.5C 368.681,388.198 373.848,397.865 379,407.5C 381.887,417.941 385.887,427.941 391,437.5C 391.872,442.195 392.872,446.861 394,451.5C 394.383,452.056 394.883,452.389 395.5,452.5 Z"/></g>
<g><path style="opacity:1" fill="#161515" d="M 288.5,400.5 C 305.012,398.903 320.679,401.737 335.5,409C 345.581,417.579 349.081,428.412 346,441.5C 335.917,464.244 318.417,475.744 293.5,476C 279.387,471.873 267.554,464.373 258,453.5C 245.39,422.719 255.557,405.053 288.5,400.5 Z"/></g>
</svg>
