<?xml version="1.0" encoding="UTF-8"?>
<!DOCTYPE svg PUBLIC "-//W3C//DTD SVG 1.1//EN" "http://www.w3.org/Graphics/SVG/1.1/DTD/svg11.dtd">
<svg xmlns="http://www.w3.org/2000/svg" version="1.1" width="600px" height="600px" style="shape-rendering:geometricPrecision; text-rendering:geometricPrecision; image-rendering:optimizeQuality; fill-rule:evenodd; clip-rule:evenodd" xmlns:xlink="http://www.w3.org/1999/xlink">
<g><path style="opacity:0.955" fill="#030302" d="M 251.5,-0.5 C 259.167,-0.5 266.833,-0.5 274.5,-0.5C 277.167,0.833333 279.833,0.833333 282.5,-0.5C 295.167,-0.5 307.833,-0.5 320.5,-0.5C 323.167,0.833333 325.833,0.833333 328.5,-0.5C 336.167,-0.5 343.833,-0.5 351.5,-0.5C 356.196,1.34445 360.863,3.51112 365.5,6C 381.763,4.31275 396.097,8.64608 408.5,19C 424.373,19.4358 437.04,25.9358 446.5,38.5C 461.708,40.8902 472.375,49.0568 478.5,63C 492.929,67.6831 501.429,77.5165 504,92.5C 516.602,99.8069 522.269,110.807 521,125.5C 531.078,134.578 533.912,145.578 529.5,158.5C 533.208,164.288 535.542,170.621 536.5,177.5C 535.181,181.094 534.681,184.761 535,188.5C 549.982,206.453 562.982,225.786 574,246.5C 577.324,257.257 578.324,268.257 577,279.5C 573.333,300.5 569.667,321.5 566,342.5C 564.004,356.114 563.004,369.78 563,383.5C 567.623,389.748 570.29,396.748 571,404.5C 574.439,410.275 577.439,416.275 580,422.5C 581.106,427.769 581.773,433.103 582,438.5C 584.068,445.605 585.901,452.772 587.5,460C 585.363,470.436 583.53,480.936 582,491.5C 579.757,495.748 576.757,499.414 573,502.5C 570.275,508.786 566.442,514.286 561.5,519C 549.615,522.972 537.615,526.639 525.5,530C 522.167,530.667 518.833,530.667 515.5,530C 505.571,526.802 495.571,523.802 485.5,521C 478.115,518.11 472.448,513.276 468.5,506.5C 467.914,506.709 467.414,507.043 467,507.5C 465.86,525.069 460.86,541.402 452,556.5C 447.96,562.269 442.46,565.602 435.5,566.5C 433.693,570.141 431.026,572.974 427.5,575C 420.936,578.799 413.936,580.466 406.5,580C 404.714,579.215 403.214,578.049 402,576.5C 400.661,573.119 399.328,569.786 398,566.5C 395.754,573.177 391.921,578.677 386.5,583C 380.806,585.201 375.973,584.035 372,579.5C 369.463,582.372 366.63,584.872 363.5,587C 354.864,591.487 346.197,595.653 337.5,599.5C 313.5,599.5 289.5,599.5 265.5,599.5C 256.803,595.653 248.136,591.487 239.5,587C 235.901,584.384 232.567,581.55 229.5,578.5C 222.178,586.318 215.011,585.984 208,577.5C 206.08,574.661 204.413,571.661 203,568.5C 202.301,575.866 198.301,579.866 191,580.5C 180.864,579.023 172.697,574.356 166.5,566.5C 159.54,565.602 154.04,562.269 150,556.5C 140.83,541.162 135.996,524.495 135.5,506.5C 134.448,506.351 133.448,506.517 132.5,507C 128.614,513.783 122.947,518.45 115.5,521C 106.352,523.203 97.3518,525.87 88.5,529C 84.8333,529.667 81.1667,529.667 77.5,529C 66.1558,525.663 54.8225,522.329 43.5,519C 37.9962,514.173 33.8295,508.34 31,501.5C 27.6667,499.5 25,496.833 23,493.5C 21.0845,482.357 19.2512,471.19 17.5,460C 18.1736,453.312 19.6736,446.812 22,440.5C 22.7599,436.775 22.5932,433.108 21.5,429.5C 23.6367,420.894 27.1367,412.894 32,405.5C 32.8984,397.802 35.565,390.802 40,384.5C 40.2328,367.725 38.8994,351.058 36,334.5C 32.2797,315.565 28.9463,296.565 26,277.5C 24.5089,266.128 25.8422,255.128 30,244.5C 41.3145,224.03 54.4811,204.863 69.5,187C 67.0459,180.933 66.8793,174.767 69,168.5C 70.533,164.982 72.033,161.482 73.5,158C 69.376,145.329 72.2094,134.495 82,125.5C 81.1853,110.459 87.1853,99.1254 100,91.5C 102.364,77.1283 110.53,67.6283 124.5,63C 128.167,52.6667 135.167,45.6667 145.5,42C 149.608,40.9735 153.608,39.6401 157.5,38C 162.083,30.7472 168.416,25.7472 176.5,23C 182.777,21.3891 189.11,20.0558 195.5,19C 202.125,12.3539 210.125,8.35394 219.5,7C 225.5,6.66667 231.5,6.33333 237.5,6C 242.137,3.51112 246.804,1.34445 251.5,-0.5 Z"/></g>
<g><path style="opacity:1" fill="#f8f0e7" d="M 522.5,187.5 C 519.922,192.081 520.089,196.747 523,201.5C 523.667,204.833 523.667,208.167 523,211.5C 520.81,216.363 517.81,220.696 514,224.5C 515.525,234.609 512.692,243.109 505.5,250C 497.985,253.506 494.818,259.339 496,267.5C 498.188,272.084 499.354,276.917 499.5,282C 498.551,288.681 496.884,295.181 494.5,301.5C 495.085,310.147 497.418,318.147 501.5,325.5C 500.903,325.735 500.57,326.235 500.5,327C 504.206,336.522 505.706,346.356 505,356.5C 503.973,361.921 501.973,366.921 499,371.5C 494.886,376.07 490.553,380.403 486,384.5C 486.968,389.397 487.801,394.397 488.5,399.5C 483.923,383.214 474.923,369.714 461.5,359C 438.516,342.512 413.182,330.845 385.5,324C 315.022,305.068 246.022,309.401 178.5,337C 159.151,344.916 142.318,356.416 128,371.5C 125.477,375.233 122.977,378.899 120.5,382.5C 120.274,378.708 119.44,375.041 118,371.5C 117.667,364.167 117.333,356.833 117,349.5C 111.176,340.516 107.676,330.849 106.5,320.5C 108.523,315.92 109.857,311.087 110.5,306C 109.617,300.348 108.117,294.848 106,289.5C 104.887,282.285 105.554,275.285 108,268.5C 108.667,265.167 108.667,261.833 108,258.5C 103,253.5 98,248.5 93,243.5C 91.8044,237.581 91.1378,231.581 91,225.5C 89.3745,222.872 87.3745,220.539 85,218.5C 79.5477,210.86 79.0477,202.86 83.5,194.5C 83.5643,192.443 82.8976,190.777 81.5,189.5C 79.5959,185.691 78.2626,181.691 77.5,177.5C 79.1287,171.048 81.4621,164.881 84.5,159C 84.0531,156.044 83.2197,153.211 82,150.5C 80.9702,145.72 81.9702,141.387 85,137.5C 91.9072,131.491 94.5739,123.824 93,114.5C 94,112.5 95,110.5 96,108.5C 100,105.167 104,101.833 108,98.5C 109.916,95.1016 110.916,91.4349 111,87.5C 112.08,85.0038 113.414,82.6705 115,80.5C 120.585,76.6227 126.418,73.1227 132.5,70C 134.841,64.3117 138.174,59.3117 142.5,55C 148.973,51.8394 155.64,49.1727 162.5,47C 166.752,42.0966 171.419,37.7633 176.5,34C 183.7,31.8739 191.033,30.2072 198.5,29C 202.447,26.7202 206.113,24.0535 209.5,21C 211.717,19.7246 214.051,18.7246 216.5,18C 223.833,17.6667 231.167,17.3333 238.5,17C 250.714,9.54182 263.88,7.37516 278,10.5C 285.7,8.45095 293.533,7.11761 301.5,6.5C 308.96,7.23546 316.293,8.56879 323.5,10.5C 330.798,9.22629 338.132,8.72629 345.5,9C 352.169,10.8334 358.502,13.5 364.5,17C 371.833,17.3333 379.167,17.6667 386.5,18C 388.949,18.7246 391.283,19.7246 393.5,21C 396.887,24.0535 400.553,26.7202 404.5,29C 411.93,30.2384 419.263,31.9051 426.5,34C 432.028,37.3697 436.694,41.703 440.5,47C 447.283,49.3631 453.95,52.0298 460.5,55C 464.833,60.6667 469.167,66.3333 473.5,72C 479.251,74.2886 484.418,77.4553 489,81.5C 491.453,87.0161 493.453,92.6827 495,98.5C 500.621,101.787 505.288,106.121 509,111.5C 510.186,117.085 510.852,122.751 511,128.5C 512.907,132.41 515.573,135.744 519,138.5C 521.22,142.595 521.887,146.928 521,151.5C 519.767,153.866 518.934,156.366 518.5,159C 520.195,163.704 522.361,168.204 525,172.5C 526.13,177.92 525.297,182.92 522.5,187.5 Z"/></g>
<g><path style="opacity:1" fill="#e1d1be" d="M 411.5,239.5 C 403.639,236.409 395.639,233.575 387.5,231C 382.937,229.525 378.27,228.692 373.5,228.5C 373.082,227.778 372.416,227.278 371.5,227C 358.424,226.61 345.757,224.277 333.5,220C 329.567,215.535 328.067,210.368 329,204.5C 334.62,189.437 345.454,183.937 361.5,188C 398.304,194.392 428.304,212.059 451.5,241C 451.043,241.414 450.709,241.914 450.5,242.5C 454.197,246.729 455.03,251.396 453,256.5C 451.687,257.573 450.187,258.24 448.5,258.5C 440.061,253.904 431.727,249.071 423.5,244C 419.781,241.636 415.781,240.136 411.5,239.5 Z"/></g>
<g><path style="opacity:1" fill="#e1d1be" d="M 81.5,189.5 C 82.8976,190.777 83.5643,192.443 83.5,194.5C 79.0477,202.86 79.5477,210.86 85,218.5C 87.3745,220.539 89.3745,222.872 91,225.5C 91.1378,231.581 91.8044,237.581 93,243.5C 98,248.5 103,253.5 108,258.5C 108.667,261.833 108.667,265.167 108,268.5C 105.554,275.285 104.887,282.285 106,289.5C 108.117,294.848 109.617,300.348 110.5,306C 109.857,311.087 108.523,315.92 106.5,320.5C 100.994,326.271 94.6604,331.105 87.5,335C 82.2953,338.531 79.1286,343.364 78,349.5C 72.3333,355.167 66.6667,360.833 61,366.5C 59.3968,373.707 56.2301,380.04 51.5,385.5C 51.427,376.811 50.927,368.145 50,359.5C 46.4232,333.039 42.0898,306.706 37,280.5C 34.4554,269.919 35.122,259.586 39,249.5C 50.6986,227.654 64.8652,207.654 81.5,189.5 Z"/></g>
<g><path style="opacity:1" fill="#e1d1be" d="M 522.5,187.5 C 533.811,202.991 544.977,218.658 556,234.5C 560.751,242.002 564.418,250.002 567,258.5C 567.702,267.203 567.368,275.87 566,284.5C 561.359,307.375 557.359,330.375 554,353.5C 552.752,364.464 552.252,375.464 552.5,386.5C 547.436,380.373 543.936,373.373 542,365.5C 537.301,360.466 532.301,355.8 527,351.5C 524.586,348.185 522.919,344.518 522,340.5C 515.569,334.896 508.736,329.896 501.5,325.5C 497.418,318.147 495.085,310.147 494.5,301.5C 496.884,295.181 498.551,288.681 499.5,282C 499.354,276.917 498.188,272.084 496,267.5C 494.818,259.339 497.985,253.506 505.5,250C 512.692,243.109 515.525,234.609 514,224.5C 517.81,220.696 520.81,216.363 523,211.5C 523.667,208.167 523.667,204.833 523,201.5C 520.089,196.747 519.922,192.081 522.5,187.5 Z"/></g>
<g><path style="opacity:1" fill="#e1d1be" d="M 230.5,228.5 C 217.602,229.815 205.269,233.148 193.5,238.5C 191.274,237.441 188.941,237.608 186.5,239C 175.087,244.124 163.92,249.624 153,255.5C 149.749,254.353 147.916,252.019 147.5,248.5C 148.389,245.721 149.556,243.055 151,240.5C 162.47,226.36 176.303,215.193 192.5,207C 193.833,206.333 193.833,205.667 192.5,205C 211.232,194.788 231.232,189.788 252.5,190C 251.5,190.333 250.5,190.667 249.5,191C 263.895,190.672 272.895,197.339 276.5,211C 275.749,216.168 273.415,220.502 269.5,224C 258.564,225.248 247.564,226.082 236.5,226.5C 234.048,226.539 232.048,227.206 230.5,228.5 Z"/></g>
<g><path style="opacity:1" fill="#322a28" d="M 230.5,228.5 C 249.203,241.327 252.37,257.327 240,276.5C 223.523,290.058 207.856,289.058 193,273.5C 185.549,261.646 185.716,249.979 193.5,238.5C 205.269,233.148 217.602,229.815 230.5,228.5 Z"/></g>
<g><path style="opacity:1" fill="#322a28" d="M 373.5,228.5 C 378.27,228.692 382.937,229.525 387.5,231C 395.639,233.575 403.639,236.409 411.5,239.5C 420.046,257.372 416.046,271.872 399.5,283C 379.023,290.177 364.856,283.677 357,263.5C 354.466,247.907 359.966,236.24 373.5,228.5 Z"/></g>
<g><path style="opacity:1" fill="#f8f8f8" d="M 221.5,237.5 C 230.453,237.963 233.953,242.63 232,251.5C 226.208,258.1 220.541,258.1 215,251.5C 213.189,244.796 215.355,240.129 221.5,237.5 Z"/></g>
<g><path style="opacity:1" fill="#f7f7f7" d="M 390.5,237.5 C 399.014,237.843 402.514,242.176 401,250.5C 396.737,257.157 391.403,258.157 385,253.5C 381.42,246.323 383.254,240.99 390.5,237.5 Z"/></g>
<g><path style="opacity:1" fill="#e1d1be" d="M 488.5,399.5 C 494.409,433.395 488.076,464.728 469.5,493.5C 467.992,496.25 465.659,497.084 462.5,496C 460.371,493.561 458.371,491.061 456.5,488.5C 456.068,487.29 455.401,486.29 454.5,485.5C 454.104,467.832 453.604,450.166 453,432.5C 450.153,370.314 417.653,335.814 355.5,329C 346.833,328.333 338.167,328.333 329.5,329C 319.446,330.181 309.446,331.681 299.5,333.5C 266.097,325.104 233.43,327.271 201.5,340C 172.986,353.847 155.82,376.347 150,407.5C 148.135,434.532 146.635,461.532 145.5,488.5C 142.675,497.323 138.008,498.656 131.5,492.5C 131.611,491.883 131.944,491.383 132.5,491C 113.698,461.987 107.865,430.487 115,396.5C 116.572,391.696 118.405,387.029 120.5,382.5C 122.977,378.899 125.477,375.233 128,371.5C 142.318,356.416 159.151,344.916 178.5,337C 246.022,309.401 315.022,305.068 385.5,324C 413.182,330.845 438.516,342.512 461.5,359C 474.923,369.714 483.923,383.214 488.5,399.5 Z"/></g>
<g><path style="opacity:1" fill="#fdf9f2" d="M 106.5,320.5 C 107.676,330.849 111.176,340.516 117,349.5C 117.333,356.833 117.667,364.167 118,371.5C 119.44,375.041 120.274,378.708 120.5,382.5C 118.405,387.029 116.572,391.696 115,396.5C 107.865,430.487 113.698,461.987 132.5,491C 131.944,491.383 131.611,491.883 131.5,492.5C 126.828,497.318 122.495,502.485 118.5,508C 115.833,509.333 113.167,510.667 110.5,512C 102.222,513.403 94.222,515.736 86.5,519C 81.3856,519.412 76.3856,518.745 71.5,517C 64.7443,514.121 57.7443,512.121 50.5,511C 45.234,506.049 41.0673,500.216 38,493.5C 35.3333,492.167 33.3333,490.167 32,487.5C 30.7957,481.247 30.129,474.914 30,468.5C 28.86,465.581 28.0267,462.581 27.5,459.5C 28.6928,453.755 30.1928,448.088 32,442.5C 32.3333,437.167 32.6667,431.833 33,426.5C 35.9844,420.531 38.9844,414.531 42,408.5C 42.9781,399.884 46.1448,392.217 51.5,385.5C 56.2301,380.04 59.3968,373.707 61,366.5C 66.6667,360.833 72.3333,355.167 78,349.5C 79.1286,343.364 82.2953,338.531 87.5,335C 94.6604,331.105 100.994,326.271 106.5,320.5 Z"/></g>
<g><path style="opacity:1" fill="#fdf9f2" d="M 501.5,325.5 C 508.736,329.896 515.569,334.896 522,340.5C 522.919,344.518 524.586,348.185 527,351.5C 532.301,355.8 537.301,360.466 542,365.5C 543.936,373.373 547.436,380.373 552.5,386.5C 557.541,392.585 560.374,399.585 561,407.5C 564.809,414.299 568.143,421.299 571,428.5C 570.785,431.811 570.785,435.144 571,438.5C 573.036,445.609 574.869,452.775 576.5,460C 574.176,469.01 572.676,478.177 572,487.5C 569.705,490.797 567.038,493.797 564,496.5C 561.577,502.206 558.077,507.039 553.5,511C 545.409,513.023 537.409,515.356 529.5,518C 524.905,519.393 520.239,519.726 515.5,519C 505.392,515.973 495.392,512.64 485.5,509C 480.696,503.525 475.862,498.025 471,492.5C 470.617,493.056 470.117,493.389 469.5,493.5C 488.076,464.728 494.409,433.395 488.5,399.5C 487.801,394.397 486.968,389.397 486,384.5C 490.553,380.403 494.886,376.07 499,371.5C 501.973,366.921 503.973,361.921 505,356.5C 505.706,346.356 504.206,336.522 500.5,327C 500.57,326.235 500.903,325.735 501.5,325.5 Z"/></g>
<g><path style="opacity:1" fill="#c9b8a2" d="M 454.5,485.5 C 454.198,488.059 454.532,490.393 455.5,492.5C 457.269,509.015 455.102,525.015 449,540.5C 446.846,546.647 443.18,551.647 438,555.5C 437.667,554.833 437.333,554.167 437,553.5C 436.019,545.858 435.186,538.191 434.5,530.5C 432.517,531.982 430.684,533.649 429,535.5C 428.479,544.565 427.479,553.565 426,562.5C 421.467,566.518 416.301,569.018 410.5,570C 409.265,563.38 407.931,556.88 406.5,550.5C 407.715,542.706 407.215,535.039 405,527.5C 399.352,537.129 394.518,547.129 390.5,557.5C 388.618,562.265 386.452,566.932 384,571.5C 382.89,573.037 381.39,573.703 379.5,573.5C 378.207,567.579 377.374,561.579 377,555.5C 375.961,551.777 374.794,551.777 373.5,555.5C 367,562.001 359.834,567.668 352,572.5C 347.657,546.893 348.99,521.56 356,496.5C 366.654,470.204 376.321,443.538 385,416.5C 388.407,405.732 389.74,394.732 389,383.5C 386.982,376.954 383.148,371.787 377.5,368C 368.67,363.082 359.337,359.582 349.5,357.5C 348.274,357.52 347.274,357.853 346.5,358.5C 340.216,354.029 333.216,351.196 325.5,350C 307.438,346.611 289.438,346.945 271.5,351C 265.748,352.711 260.414,355.211 255.5,358.5C 239.839,357.787 226.339,363.12 215,374.5C 210.694,381.904 209.361,389.904 211,398.5C 211.95,404.914 213.283,411.248 215,417.5C 223.492,443.481 232.825,469.148 243,494.5C 251.299,519.222 252.466,544.222 246.5,569.5C 241.812,566.822 237.479,563.656 233.5,560C 232.184,559.472 231.517,559.972 231.5,561.5C 230.497,557.164 227.83,554.497 223.5,553.5C 223.182,559.895 222.348,566.228 221,572.5C 220.439,573.022 219.772,573.355 219,573.5C 214.634,568.072 210.801,562.406 207.5,556.5C 206.3,547.792 202.966,539.625 197.5,532C 197.167,531.833 196.833,531.667 196.5,531.5C 195.749,532.376 195.249,533.376 195,534.5C 194.697,538.529 194.197,542.529 193.5,546.5C 193.685,547.584 194.018,548.584 194.5,549.5C 193.674,554.316 193.174,559.316 193,564.5C 192.767,566.78 191.934,568.78 190.5,570.5C 186.381,568.941 182.381,567.107 178.5,565C 176.226,562.656 175.059,559.822 175,556.5C 174.333,549.167 173.667,541.833 173,534.5C 171.255,533.044 169.422,531.711 167.5,530.5C 166.645,538.164 165.811,545.83 165,553.5C 164.667,554.167 164.333,554.833 164,555.5C 158.853,551.672 155.186,546.672 153,540.5C 146.879,523.503 144.379,506.169 145.5,488.5C 146.635,461.532 148.135,434.532 150,407.5C 155.82,376.347 172.986,353.847 201.5,340C 233.43,327.271 266.097,325.104 299.5,333.5C 309.446,331.681 319.446,330.181 329.5,329C 338.167,328.333 346.833,328.333 355.5,329C 417.653,335.814 450.153,370.314 453,432.5C 453.604,450.166 454.104,467.832 454.5,485.5 Z"/></g>
<g><path style="opacity:1" fill="#453d3c" d="M 346.5,358.5 C 355.884,365.472 359.718,374.806 358,386.5C 354.611,400.12 346.778,410.287 334.5,417C 303.021,433.677 275.188,428.844 251,402.5C 242.851,389.633 242.518,376.633 250,363.5C 251.73,361.598 253.563,359.931 255.5,358.5C 260.414,355.211 265.748,352.711 271.5,351C 289.438,346.945 307.438,346.611 325.5,350C 333.216,351.196 340.216,354.029 346.5,358.5 Z"/></g>
<g><path style="opacity:1" fill="#e1d1be" d="M 255.5,358.5 C 253.563,359.931 251.73,361.598 250,363.5C 242.518,376.633 242.851,389.633 251,402.5C 275.188,428.844 303.021,433.677 334.5,417C 346.778,410.287 354.611,400.12 358,386.5C 359.718,374.806 355.884,365.472 346.5,358.5C 347.274,357.853 348.274,357.52 349.5,357.5C 359.337,359.582 368.67,363.082 377.5,368C 383.148,371.787 386.982,376.954 389,383.5C 389.74,394.732 388.407,405.732 385,416.5C 376.321,443.538 366.654,470.204 356,496.5C 348.99,521.56 347.657,546.893 352,572.5C 359.834,567.668 367,562.001 373.5,555.5C 371.074,565.748 365.407,573.581 356.5,579C 343.407,586.717 329.407,591.883 314.5,594.5C 310.768,594.94 308.601,593.274 308,589.5C 306.118,580.876 304.452,572.21 303,563.5C 300.74,561.003 299.407,561.67 299,565.5C 298.574,575.441 296.407,584.941 292.5,594C 283.798,594.41 275.465,592.743 267.5,589C 256.17,585.019 246.003,579.186 237,571.5C 234.888,568.273 233.055,564.94 231.5,561.5C 231.517,559.972 232.184,559.472 233.5,560C 237.479,563.656 241.812,566.822 246.5,569.5C 252.466,544.222 251.299,519.222 243,494.5C 232.825,469.148 223.492,443.481 215,417.5C 213.283,411.248 211.95,404.914 211,398.5C 209.361,389.904 210.694,381.904 215,374.5C 226.339,363.12 239.839,357.787 255.5,358.5 Z"/></g>
<g><path style="opacity:1" fill="#6b6256" d="M 454.5,485.5 C 455.401,486.29 456.068,487.29 456.5,488.5C 455.566,489.568 455.232,490.901 455.5,492.5C 454.532,490.393 454.198,488.059 454.5,485.5 Z"/></g>
<g><path style="opacity:1" fill="#dfcfbc" d="M 406.5,550.5 C 401.613,553.946 396.279,556.279 390.5,557.5C 394.518,547.129 399.352,537.129 405,527.5C 407.215,535.039 407.715,542.706 406.5,550.5 Z"/></g>
<g><path style="opacity:1" fill="#decebb" d="M 207.5,556.5 C 203.034,554.434 198.701,552.1 194.5,549.5C 194.018,548.584 193.685,547.584 193.5,546.5C 194.197,542.529 194.697,538.529 195,534.5C 195.249,533.376 195.749,532.376 196.5,531.5C 196.833,531.667 197.167,531.833 197.5,532C 202.966,539.625 206.3,547.792 207.5,556.5 Z"/></g>
</svg>
