<?xml version="1.0" encoding="UTF-8"?>
<!DOCTYPE svg PUBLIC "-//W3C//DTD SVG 1.1//EN" "http://www.w3.org/Graphics/SVG/1.1/DTD/svg11.dtd">
<svg xmlns="http://www.w3.org/2000/svg" version="1.1" width="600px" height="600px" style="shape-rendering:geometricPrecision; text-rendering:geometricPrecision; image-rendering:optimizeQuality; fill-rule:evenodd; clip-rule:evenodd" xmlns:xlink="http://www.w3.org/1999/xlink">
<g><path style="opacity:0.955" fill="#010100" d="M 212.5,-0.5 C 272.167,-0.5 331.833,-0.5 391.5,-0.5C 391.169,4.33153 393.503,6.33153 398.5,5.5C 405.506,4.89938 412.506,4.23272 419.5,3.5C 424.766,3.26861 429.266,4.93527 433,8.5C 434.009,10.0249 434.509,11.6916 434.5,13.5C 449.603,14.1095 464.27,16.9428 478.5,22C 480.719,23.7635 482.719,25.7635 484.5,28C 503.73,38.5569 519.897,52.7236 533,70.5C 564.568,116.017 584.068,166.35 591.5,221.5C 591.881,229.863 589.214,237.029 583.5,243C 579.522,245.493 575.189,246.659 570.5,246.5C 563.915,246.104 557.582,244.604 551.5,242C 534.658,237.336 520.492,228.502 509,215.5C 500.096,202.593 490.43,190.26 480,178.5C 475.628,198.654 470.628,218.654 465,238.5C 455.866,260.765 446.199,282.765 436,304.5C 435.535,311.918 436.202,319.251 438,326.5C 443.173,339.51 448.339,352.51 453.5,365.5C 452.167,372.833 447.833,377.167 440.5,378.5C 445.422,393.108 448.422,408.108 449.5,423.5C 450.38,434.61 445.38,440.277 434.5,440.5C 438.985,468.572 434.152,494.905 420,519.5C 414.127,527.04 407.294,533.54 399.5,539C 394.925,540.987 390.258,541.654 385.5,541C 380.028,551.144 373.028,560.144 364.5,568C 360.345,570.665 355.845,572.498 351,573.5C 349.333,572.833 347.667,572.167 346,571.5C 337.231,582.106 327.398,591.439 316.5,599.5C 307.5,599.5 298.5,599.5 289.5,599.5C 278.735,591.903 269.402,582.736 261.5,572C 257.548,572.434 253.548,572.434 249.5,572C 236.39,564.89 226.724,554.557 220.5,541C 213.33,541.953 206.997,539.953 201.5,535C 177.205,512.13 166.705,483.963 170,450.5C 170.212,447.242 170.712,444.076 171.5,441C 163.587,441.482 158.754,437.982 157,430.5C 156.318,412.427 159.151,394.927 165.5,378C 157.956,377.406 153.622,373.406 152.5,366C 157.514,352.134 162.68,338.301 168,324.5C 169.467,317.223 169.801,309.889 169,302.5C 160.333,282.5 151.667,262.5 143,242.5C 135.774,222.264 130.108,201.597 126,180.5C 123.958,179.715 121.958,180.048 120,181.5C 109.214,195.954 98.0477,210.121 86.5,224C 70.0099,235.489 51.8432,243.323 32,247.5C 20.4724,246.306 13.8057,239.973 12,228.5C 17.4279,171.992 36.0945,120.325 68,73.5C 81.7818,53.7133 99.2818,38.2133 120.5,27C 121.833,25 123.5,23.3333 125.5,22C 139.728,16.9436 154.394,14.1103 169.5,13.5C 169.724,9.43835 171.724,6.60502 175.5,5C 178.433,4.10661 181.433,3.60661 184.5,3.5C 193.494,4.96826 202.494,5.30159 211.5,4.5C 212.309,2.92908 212.643,1.26241 212.5,-0.5 Z"/></g>
<g><path style="opacity:1" fill="#635038" d="M 470.5,32.5 C 457.957,32.386 446.29,35.5527 435.5,42C 434.044,43.7448 432.711,45.5781 431.5,47.5C 432.527,49.024 434.027,49.6906 436,49.5C 445.807,47.4281 455.64,46.4281 465.5,46.5C 461.208,50.2902 457.042,54.2902 453,58.5C 451.504,60.4503 451.337,62.4503 452.5,64.5C 454.889,65.1805 457.222,66.0138 459.5,67C 467.167,67.3333 474.833,67.6667 482.5,68C 486.377,68.2565 490.043,69.2565 493.5,71C 481.927,71.9799 470.927,74.9799 460.5,80C 459.009,82.0217 459.342,83.6883 461.5,85C 474.079,86.1131 486.413,88.4465 498.5,92C 499.91,92.3678 500.91,93.2011 501.5,94.5C 494.782,95.1191 488.115,95.9524 481.5,97C 475.092,100.323 472.925,105.489 475,112.5C 476.333,114.5 477.667,116.5 479,118.5C 485.353,123.353 490.853,129.02 495.5,135.5C 489.541,135.875 483.541,136.042 477.5,136C 475.522,138.497 475.022,141.331 476,144.5C 480.738,152.395 485.238,160.395 489.5,168.5C 489.253,169.713 488.586,170.38 487.5,170.5C 483.055,168.106 478.722,165.44 474.5,162.5C 473.201,163.09 472.368,164.09 472,165.5C 468.064,188.911 462.397,211.911 455,234.5C 445.866,256.765 436.199,278.765 426,300.5C 424.746,314.308 426.746,327.642 432,340.5C 435.999,349.003 439.499,357.669 442.5,366.5C 437.85,364.371 433.85,361.205 430.5,357C 429.551,356.383 428.718,356.549 428,357.5C 427.333,361.833 427.333,366.167 428,370.5C 433.486,386.941 436.986,403.774 438.5,421C 438.167,424.167 437.833,427.333 437.5,430.5C 432.833,425.167 428.167,419.833 423.5,414.5C 423.167,417 422.833,419.5 422.5,422C 424.524,438.786 425.358,455.619 425,472.5C 423.257,495.157 413.757,513.657 396.5,528C 394.421,529.64 392.088,530.806 389.5,531.5C 388.753,520.851 388.753,510.184 389.5,499.5C 391.467,493.564 392.967,487.564 394,481.5C 394.195,471.826 394.195,462.16 394,452.5C 395,453.833 396,453.833 397,452.5C 397.942,455.993 399.275,459.326 401,462.5C 403.084,465.033 405.084,465.033 407,462.5C 408.737,458.339 409.737,454.005 410,449.5C 411.866,419.261 408.033,389.761 398.5,361C 398.833,360.5 399.167,360 399.5,359.5C 401.381,361.734 403.715,363.067 406.5,363.5C 404.536,345.384 400.536,327.718 394.5,310.5C 394.608,309.558 394.941,308.725 395.5,308C 397.936,308.053 400.269,307.887 402.5,307.5C 398.999,302.166 394.666,297.666 389.5,294C 391.519,282.511 390.352,271.344 386,260.5C 382.275,251.382 378.275,242.382 374,233.5C 369.271,229.108 364.938,224.441 361,219.5C 356.258,205.608 350.925,191.941 345,178.5C 342.359,173.856 338.525,170.689 333.5,169C 334.858,167.168 335.192,165.335 334.5,163.5C 331.81,165.356 329.644,167.689 328,170.5C 327.631,159.45 327.964,148.45 329,137.5C 326.833,139.83 325.166,142.497 324,145.5C 320.533,155.096 316.533,164.429 312,173.5C 308.202,162.576 303.868,151.91 299,141.5C 299.355,148.538 299.188,155.538 298.5,162.5C 297.635,163.583 296.635,163.749 295.5,163C 293.316,160.984 291.316,158.817 289.5,156.5C 288.833,159.833 288.167,163.167 287.5,166.5C 284.86,163.194 281.86,160.194 278.5,157.5C 278.063,161.179 277.73,164.846 277.5,168.5C 272.9,160.28 271.233,160.78 272.5,170C 268.212,172.292 265.378,175.792 264,180.5C 260.399,197.981 254.066,214.315 245,229.5C 242.961,231.874 240.628,233.874 238,235.5C 231.297,247.911 225.963,260.911 222,274.5C 220.892,281.115 220.225,287.782 220,294.5C 214.358,297.642 209.858,301.975 206.5,307.5C 209.086,308.48 211.753,308.813 214.5,308.5C 209.433,325.556 205.433,342.889 202.5,360.5C 202.477,362.067 202.977,363.4 204,364.5C 205.815,362.595 207.815,360.928 210,359.5C 210.87,360.108 211.37,360.941 211.5,362C 202.204,389.406 198.037,417.572 199,446.5C 199.907,451.944 201.24,457.277 203,462.5C 204.768,466.325 206.768,466.325 209,462.5C 210.037,457.7 212.37,453.7 216,450.5C 215.684,461.156 215.684,471.822 216,482.5C 221.329,500.327 230.162,516.161 242.5,530C 243.448,530.483 244.448,530.649 245.5,530.5C 246.016,527.101 246.85,523.768 248,520.5C 249.333,519.833 250.667,519.167 252,518.5C 253.886,522.44 256.386,525.94 259.5,529C 269.014,533.923 278.68,538.59 288.5,543C 293.709,547.878 299.209,552.378 305,556.5C 309.833,552.333 314.667,548.167 319.5,544C 329.193,539.486 338.86,534.986 348.5,530.5C 346.469,551.397 337.469,568.564 321.5,582C 315.518,586.991 309.185,591.491 302.5,595.5C 289.952,587.787 279.119,578.121 270,566.5C 263.754,555.091 259.087,543.091 256,530.5C 255.333,531.167 254.667,531.833 254,532.5C 253.833,534.833 253.667,537.167 253.5,539.5C 254.25,547.165 254.917,554.832 255.5,562.5C 241.276,555.763 231.776,544.763 227,529.5C 223.949,519.352 221.115,509.186 218.5,499C 217.256,498.544 216.423,499.044 216,500.5C 215.833,503.333 215.667,506.167 215.5,509C 216.249,516.162 216.916,523.329 217.5,530.5C 214.072,530.453 211.072,529.287 208.5,527C 189.081,509.607 179.414,487.774 179.5,461.5C 181.44,446.205 182.607,430.872 183,415.5C 182.667,415.167 182.333,414.833 182,414.5C 180.333,416.167 178.667,417.833 177,419.5C 174.71,423.619 171.876,427.286 168.5,430.5C 167.336,423.524 167.169,416.524 168,409.5C 171.504,394.153 175.004,378.82 178.5,363.5C 178.679,360.869 178.013,358.535 176.5,356.5C 172.792,360.21 168.792,363.543 164.5,366.5C 164.167,365.833 163.833,365.167 163.5,364.5C 169.557,350.83 174.723,336.83 179,322.5C 180.762,314.807 180.762,307.141 179,299.5C 170.333,279.5 161.667,259.5 153,239.5C 144.384,215.753 138.051,191.42 134,166.5C 133.363,164.697 132.197,163.364 130.5,162.5C 126.442,165.89 122.109,168.89 117.5,171.5C 116.893,171.376 116.56,171.043 116.5,170.5C 116.34,168.801 116.506,167.134 117,165.5C 122.689,157.621 127.189,149.121 130.5,140C 130.646,137.812 129.646,136.479 127.5,136C 121.825,135.634 116.159,135.8 110.5,136.5C 110.954,133.86 112.121,131.527 114,129.5C 120,124.833 125.333,119.5 130,113.5C 133.467,104.601 130.634,98.7677 121.5,96C 115.141,95.8306 108.807,95.3306 102.5,94.5C 102.667,94.1667 102.833,93.8333 103,93.5C 106.659,91.6126 110.492,90.1126 114.5,89C 123.833,87.6667 133.167,86.3333 142.5,85C 144.658,83.6883 144.991,82.0217 143.5,80C 141.5,79 139.5,78 137.5,77C 128.501,74.6021 119.501,72.6021 110.5,71C 112.957,69.4379 115.624,68.4379 118.5,68C 126.167,67.6667 133.833,67.3333 141.5,67C 144.974,66.6993 148.308,65.866 151.5,64.5C 152.663,62.4503 152.496,60.4503 151,58.5C 146.958,54.2902 142.792,50.2902 138.5,46.5C 139.333,46.1667 140.167,45.8333 141,45.5C 149.63,46.9977 158.297,48.3311 167,49.5C 168.5,49.3333 170,49.1667 171.5,49C 171.632,45.925 170.299,43.2584 167.5,41C 156.434,35.5548 144.767,32.7214 132.5,32.5C 129.887,31.9045 129.887,31.0712 132.5,30C 151.044,25.3278 169.878,22.8278 189,22.5C 190.608,22.0261 190.774,21.3594 189.5,20.5C 185.958,18.9401 182.625,17.1068 179.5,15C 193.155,15.39 206.822,15.39 220.5,15C 223.072,14.7582 224.739,13.4249 225.5,11C 224.756,8.84493 223.756,6.84493 222.5,5C 222.833,4.5 223.167,4 223.5,3.5C 229.613,5.85607 235.947,7.1894 242.5,7.5C 282.17,0.833491 321.836,0.833491 361.5,7.5C 368.379,7.11263 375.045,5.77929 381.5,3.5C 380.8,6.06274 379.8,8.56274 378.5,11C 379.261,13.4249 380.928,14.7582 383.5,15C 397.174,15.2815 410.841,15.2815 424.5,15C 420.833,17.1667 417.167,19.3333 413.5,21.5C 414,21.8333 414.5,22.1667 415,22.5C 433.796,22.8301 452.296,25.3301 470.5,30C 474.456,31.1139 474.456,31.9473 470.5,32.5 Z"/></g>
<g><path style="opacity:1" fill="#4a3a28" d="M 132.5,32.5 C 144.767,32.7214 156.434,35.5548 167.5,41C 170.299,43.2584 171.632,45.925 171.5,49C 170,49.1667 168.5,49.3333 167,49.5C 158.297,48.3311 149.63,46.9977 141,45.5C 140.167,45.8333 139.333,46.1667 138.5,46.5C 142.792,50.2902 146.958,54.2902 151,58.5C 152.496,60.4503 152.663,62.4503 151.5,64.5C 148.308,65.866 144.974,66.6993 141.5,67C 133.833,67.3333 126.167,67.6667 118.5,68C 115.624,68.4379 112.957,69.4379 110.5,71C 119.501,72.6021 128.501,74.6021 137.5,77C 139.5,78 141.5,79 143.5,80C 144.991,82.0217 144.658,83.6883 142.5,85C 133.167,86.3333 123.833,87.6667 114.5,89C 110.492,90.1126 106.659,91.6126 103,93.5C 102.833,93.8333 102.667,94.1667 102.5,94.5C 108.807,95.3306 115.141,95.8306 121.5,96C 130.634,98.7677 133.467,104.601 130,113.5C 125.333,119.5 120,124.833 114,129.5C 112.121,131.527 110.954,133.86 110.5,136.5C 116.159,135.8 121.825,135.634 127.5,136C 129.646,136.479 130.646,137.812 130.5,140C 127.189,149.121 122.689,157.621 117,165.5C 116.506,167.134 116.34,168.801 116.5,170.5C 104.817,184.024 93.6504,198.024 83,212.5C 77.6023,218.56 71.1023,223.06 63.5,226C 56.1667,229 48.8333,232 41.5,235C 37.2388,236.363 32.9054,236.696 28.5,236C 26,234.833 24.1667,233 23,230.5C 22.3333,224.167 22.3333,217.833 23,211.5C 31.059,168.312 46.3923,127.979 69,90.5C 84.6848,64.9739 105.851,45.6406 132.5,32.5 Z"/></g>
<g><path style="opacity:1" fill="#4a3a28" d="M 470.5,32.5 C 498.197,46.3578 520.03,66.6911 536,93.5C 557.354,129.556 572.02,168.223 580,209.5C 580.667,216.167 580.667,222.833 580,229.5C 577.611,235.777 573.111,237.943 566.5,236C 552.865,231.68 539.865,226.013 527.5,219C 523.667,215.167 519.833,211.333 516,207.5C 507.05,194.72 497.55,182.387 487.5,170.5C 488.586,170.38 489.253,169.713 489.5,168.5C 485.238,160.395 480.738,152.395 476,144.5C 475.022,141.331 475.522,138.497 477.5,136C 483.541,136.042 489.541,135.875 495.5,135.5C 490.853,129.02 485.353,123.353 479,118.5C 477.667,116.5 476.333,114.5 475,112.5C 472.925,105.489 475.092,100.323 481.5,97C 488.115,95.9524 494.782,95.1191 501.5,94.5C 500.91,93.2011 499.91,92.3678 498.5,92C 486.413,88.4465 474.079,86.1131 461.5,85C 459.342,83.6883 459.009,82.0217 460.5,80C 470.927,74.9799 481.927,71.9799 493.5,71C 490.043,69.2565 486.377,68.2565 482.5,68C 474.833,67.6667 467.167,67.3333 459.5,67C 457.222,66.0138 454.889,65.1805 452.5,64.5C 451.337,62.4503 451.504,60.4503 453,58.5C 457.042,54.2902 461.208,50.2902 465.5,46.5C 455.64,46.4281 445.807,47.4281 436,49.5C 434.027,49.6906 432.527,49.024 431.5,47.5C 432.711,45.5781 434.044,43.7448 435.5,42C 446.29,35.5527 457.957,32.386 470.5,32.5 Z"/></g>
<g><path style="opacity:1" fill="#4b3b29" d="M 244.5,148.5 C 232.398,146.864 220.398,148.031 208.5,152C 207.244,152.417 206.577,153.25 206.5,154.5C 203.432,155.022 200.432,155.855 197.5,157C 191.569,160.134 185.569,162.967 179.5,165.5C 177.626,165.61 176.126,164.944 175,163.5C 174.245,160.697 174.578,158.03 176,155.5C 195.34,133.505 219.506,123.671 248.5,126C 254.3,127.3 257.966,130.8 259.5,136.5C 257.179,139.394 256.012,142.727 256,146.5C 252.417,148.29 248.584,148.957 244.5,148.5 Z"/></g>
<g><path style="opacity:1" fill="#4b3b29" d="M 391.5,153.5 C 388.402,153.587 388.068,153.087 390.5,152C 385.587,150.655 380.587,149.822 375.5,149.5C 369.805,148.539 364.138,148.539 358.5,149.5C 349.859,150.865 344.859,147.198 343.5,138.5C 344.952,131.215 349.285,126.715 356.5,125C 385.413,124.211 409.247,134.711 428,156.5C 428.497,159.146 428.664,161.813 428.5,164.5C 424.378,164.303 420.378,163.47 416.5,162C 408.33,158.382 399.996,155.549 391.5,153.5 Z"/></g>
<g><path style="opacity:1" fill="#4b3b29" d="M 389.5,499.5 C 386.704,502.761 384.704,506.427 383.5,510.5C 383.19,509.262 382.69,509.262 382,510.5C 378.44,515.787 375.274,521.287 372.5,527C 370.254,528.039 368.087,529.206 366,530.5C 362.804,527.32 360.471,523.653 359,519.5C 355.475,523.283 351.975,526.95 348.5,530.5C 338.86,534.986 329.193,539.486 319.5,544C 314.667,548.167 309.833,552.333 305,556.5C 299.209,552.378 293.709,547.878 288.5,543C 278.68,538.59 269.014,533.923 259.5,529C 256.386,525.94 253.886,522.44 252,518.5C 250.667,519.167 249.333,519.833 248,520.5C 246.85,523.768 246.016,527.101 245.5,530.5C 244.448,530.649 243.448,530.483 242.5,530C 230.162,516.161 221.329,500.327 216,482.5C 215.684,471.822 215.684,461.156 216,450.5C 212.37,453.7 210.037,457.7 209,462.5C 206.768,466.325 204.768,466.325 203,462.5C 201.24,457.277 199.907,451.944 199,446.5C 198.037,417.572 202.204,389.406 211.5,362C 211.37,360.941 210.87,360.108 210,359.5C 207.815,360.928 205.815,362.595 204,364.5C 202.977,363.4 202.477,362.067 202.5,360.5C 205.433,342.889 209.433,325.556 214.5,308.5C 211.753,308.813 209.086,308.48 206.5,307.5C 209.858,301.975 214.358,297.642 220,294.5C 220.225,287.782 220.892,281.115 222,274.5C 225.963,260.911 231.297,247.911 238,235.5C 240.628,233.874 242.961,231.874 245,229.5C 254.066,214.315 260.399,197.981 264,180.5C 265.378,175.792 268.212,172.292 272.5,170C 271.233,160.78 272.9,160.28 277.5,168.5C 277.73,164.846 278.063,161.179 278.5,157.5C 281.86,160.194 284.86,163.194 287.5,166.5C 288.167,163.167 288.833,159.833 289.5,156.5C 291.316,158.817 293.316,160.984 295.5,163C 296.635,163.749 297.635,163.583 298.5,162.5C 299.188,155.538 299.355,148.538 299,141.5C 303.868,151.91 308.202,162.576 312,173.5C 316.533,164.429 320.533,155.096 324,145.5C 325.166,142.497 326.833,139.83 329,137.5C 327.964,148.45 327.631,159.45 328,170.5C 329.644,167.689 331.81,165.356 334.5,163.5C 335.192,165.335 334.858,167.168 333.5,169C 338.525,170.689 342.359,173.856 345,178.5C 350.925,191.941 356.258,205.608 361,219.5C 364.938,224.441 369.271,229.108 374,233.5C 378.275,242.382 382.275,251.382 386,260.5C 390.352,271.344 391.519,282.511 389.5,294C 394.666,297.666 398.999,302.166 402.5,307.5C 400.269,307.887 397.936,308.053 395.5,308C 394.941,308.725 394.608,309.558 394.5,310.5C 400.536,327.718 404.536,345.384 406.5,363.5C 403.715,363.067 401.381,361.734 399.5,359.5C 399.167,360 398.833,360.5 398.5,361C 408.033,389.761 411.866,419.261 410,449.5C 409.737,454.005 408.737,458.339 407,462.5C 405.084,465.033 403.084,465.033 401,462.5C 399.275,459.326 397.942,455.993 397,452.5C 396,453.833 395,453.833 394,452.5C 394.195,462.16 394.195,471.826 394,481.5C 392.967,487.564 391.467,493.564 389.5,499.5 Z"/></g>
<g><path style="opacity:1" fill="#040304" d="M 244.5,148.5 C 244.5,148.833 244.5,149.167 244.5,149.5C 237.866,149.677 237.866,150.177 244.5,151C 257.046,164.709 256.379,177.709 242.5,190C 238.234,192.811 233.567,194.311 228.5,194.5C 211.994,194.328 203.328,185.995 202.5,169.5C 203.022,164.27 204.355,159.27 206.5,154.5C 206.577,153.25 207.244,152.417 208.5,152C 220.398,148.031 232.398,146.864 244.5,148.5 Z"/></g>
<g><path style="opacity:1" fill="#030303" d="M 375.5,149.5 C 378.5,150.833 381.5,152.167 384.5,153.5C 376.394,158.424 376.561,163.09 385,167.5C 390.422,166.329 392.589,162.995 391.5,157.5C 391.435,157.062 391.601,156.728 392,156.5C 393.33,157.582 394.83,158.249 396.5,158.5C 397.167,159.167 397.833,159.833 398.5,160.5C 402.111,180.308 394.111,191.974 374.5,195.5C 356.411,193.424 348.244,183.091 350,164.5C 351.633,161.319 352.966,157.986 354,154.5C 355.707,152.963 357.207,151.296 358.5,149.5C 364.138,148.539 369.805,148.539 375.5,149.5 Z"/></g>
<g><path style="opacity:1" fill="#2a2117" d="M 375.5,149.5 C 380.587,149.822 385.587,150.655 390.5,152C 388.068,153.087 388.402,153.587 391.5,153.5C 394.111,154.111 395.778,155.777 396.5,158.5C 394.83,158.249 393.33,157.582 392,156.5C 391.601,156.728 391.435,157.062 391.5,157.5C 389.664,155.412 387.331,154.079 384.5,153.5C 381.5,152.167 378.5,150.833 375.5,149.5 Z"/></g>
<g><path style="opacity:1" fill="#c5c4c3" d="M 237.5,153.5 C 244.333,154.505 246.499,158.172 244,164.5C 240.545,168.413 237.045,168.413 233.5,164.5C 231.382,159.448 232.715,155.781 237.5,153.5 Z"/></g>
<g><path style="opacity:1" fill="#c5c4c3" d="M 384.5,153.5 C 387.331,154.079 389.664,155.412 391.5,157.5C 392.589,162.995 390.422,166.329 385,167.5C 376.561,163.09 376.394,158.424 384.5,153.5 Z"/></g>
<g><path style="opacity:1" fill="#251e16" d="M 398.5,160.5 C 403.403,175.54 398.737,186.706 384.5,194C 381.274,195.199 377.941,195.699 374.5,195.5C 394.111,191.974 402.111,180.308 398.5,160.5 Z"/></g>
<g><path style="opacity:1" fill="#231d15" d="M 244.5,149.5 C 258.158,163.63 257.825,177.463 243.5,191C 238.787,194.426 233.787,195.593 228.5,194.5C 233.567,194.311 238.234,192.811 242.5,190C 256.379,177.709 257.046,164.709 244.5,151C 237.866,150.177 237.866,149.677 244.5,149.5 Z"/></g>
<g><path style="opacity:1" fill="#020203" d="M 283.5,393.5 C 297.204,393.163 310.871,393.663 324.5,395C 334.353,395.833 341.853,400.333 347,408.5C 350.702,429.41 344.202,446.243 327.5,459C 304.48,470.173 283.646,467.34 265,450.5C 257.511,438.571 254.178,425.571 255,411.5C 258.299,403.538 264.132,398.371 272.5,396C 276.392,395.581 280.058,394.748 283.5,393.5 Z"/></g>
<g><path style="opacity:1" fill="#56442f" d="M 383.5,510.5 C 380.84,529.655 372.507,545.821 358.5,559C 356.182,560.993 353.516,562.159 350.5,562.5C 350.67,561.178 350.337,560.011 349.5,559C 351.111,550.607 351.611,542.107 351,533.5C 350.764,531.881 349.931,530.881 348.5,530.5C 351.975,526.95 355.475,523.283 359,519.5C 360.471,523.653 362.804,527.32 366,530.5C 368.087,529.206 370.254,528.039 372.5,527C 375.274,521.287 378.44,515.787 382,510.5C 382.69,509.262 383.19,509.262 383.5,510.5 Z"/></g>
</svg>
