<?xml version="1.0" encoding="UTF-8"?>
<!DOCTYPE svg PUBLIC "-//W3C//DTD SVG 1.1//EN" "http://www.w3.org/Graphics/SVG/1.1/DTD/svg11.dtd">
<svg xmlns="http://www.w3.org/2000/svg" version="1.1" width="600px" height="600px" style="shape-rendering:geometricPrecision; text-rendering:geometricPrecision; image-rendering:optimizeQuality; fill-rule:evenodd; clip-rule:evenodd" xmlns:xlink="http://www.w3.org/1999/xlink">
<g><path style="opacity:0.951" fill="#010101" d="M 211.5,-0.5 C 219.167,-0.5 226.833,-0.5 234.5,-0.5C 237.246,2.99959 238.913,6.99959 239.5,11.5C 238.266,17.0326 236.933,22.5326 235.5,28C 236.187,34.1871 237.021,40.3537 238,46.5C 246.998,82.1573 255.831,117.824 264.5,153.5C 292.174,146.858 319.841,146.858 347.5,153.5C 357.43,117.448 366.597,81.1145 375,44.5C 377.369,32.855 376.869,21.355 373.5,10C 374.117,6.36052 375.117,2.86052 376.5,-0.5C 385.833,-0.5 395.167,-0.5 404.5,-0.5C 413.224,10.7914 419.391,23.4581 423,37.5C 431.937,67.249 439.937,97.249 447,127.5C 451.8,156.098 456.133,184.765 460,213.5C 461.338,227.598 460.172,241.432 456.5,255C 465.745,307.794 459.911,358.961 439,408.5C 434.068,418.421 428.735,428.087 423,437.5C 419.103,446.628 415.77,455.962 413,465.5C 405.905,502.2 398.571,538.867 391,575.5C 387.044,586.952 379.544,594.952 368.5,599.5C 352.167,599.5 335.833,599.5 319.5,599.5C 315.369,598.192 311.035,597.192 306.5,596.5C 301.965,597.192 297.631,598.192 293.5,599.5C 278.167,599.5 262.833,599.5 247.5,599.5C 237.54,596.72 230.04,590.72 225,581.5C 222.534,574.635 220.534,567.635 219,560.5C 213.563,528.983 207.23,497.65 200,466.5C 198.202,460.105 196.202,453.772 194,447.5C 186.937,433.042 179.604,418.708 172,404.5C 153.556,356.111 148.056,306.278 155.5,255C 151.795,238.358 150.628,221.525 152,204.5C 156.243,137.861 172.243,74.1946 200,13.5C 202.668,7.8028 206.502,3.13613 211.5,-0.5 Z"/></g>
<g><path style="opacity:1" fill="#6f6e6e" d="M 440.5,374.5 C 433.286,388.226 423.619,400.059 411.5,410C 402.261,417.227 391.927,419.56 380.5,417C 371.256,413.53 361.922,410.363 352.5,407.5C 349.613,407.627 347.113,408.627 345,410.5C 347.824,440.259 349.991,470.092 351.5,500C 351.333,506.5 351.167,513 351,519.5C 350.667,519.833 350.333,520.167 350,520.5C 349.292,519.619 348.458,518.953 347.5,518.5C 344.655,510.823 339.322,505.656 331.5,503C 318.703,499.714 305.703,498.714 292.5,500C 278.586,500.686 269.419,507.519 265,520.5C 264.503,523.146 264.336,525.813 264.5,528.5C 263.023,524.767 262.189,520.767 262,516.5C 261.333,505.833 261.333,495.167 262,484.5C 264.093,460.101 266.426,435.768 269,411.5C 264.506,407.142 259.339,406.309 253.5,409C 244.099,414.078 234.099,417.245 223.5,418.5C 209.898,416.449 198.731,410.116 190,399.5C 182.364,391.213 176.53,381.88 172.5,371.5C 162.438,333.45 160.105,294.783 165.5,255.5C 164.334,246.502 163.167,237.502 162,228.5C 161.333,221.5 161.333,214.5 162,207.5C 164.23,182.076 167.23,156.742 171,131.5C 179.175,98.1295 189.508,65.4628 202,33.5C 205.547,23.9669 210.713,15.4669 217.5,8C 220.366,6.54321 223.366,6.20988 226.5,7C 227.126,7.75044 227.626,8.58377 228,9.5C 227.195,15.8017 226.362,22.135 225.5,28.5C 225.897,35.5487 226.73,42.5487 228,49.5C 235.532,79.9631 243.532,110.296 252,140.5C 253.795,148.752 254.962,157.086 255.5,165.5C 263.606,164.641 271.606,163.141 279.5,161C 306.217,157.706 332.551,159.54 358.5,166.5C 358.428,158.078 359.261,149.744 361,141.5C 371.079,106.184 379.746,70.5175 387,34.5C 388.113,27.2851 387.446,20.2851 385,13.5C 383.551,3.97772 387.051,1.47772 395.5,6C 401.051,11.5997 405.218,18.0997 408,25.5C 428.623,84.2238 442.289,144.557 449,206.5C 450.212,222.79 449.379,238.956 446.5,255C 448.05,261.086 449.217,267.252 450,273.5C 452.292,307.706 449.125,341.373 440.5,374.5 Z"/></g>
<g><path style="opacity:1" fill="#656464" d="M 241.5,277.5 C 246.08,277.113 250.414,277.947 254.5,280C 264.968,288.08 269.134,298.58 267,311.5C 263.09,317.985 258.923,318.152 254.5,312C 246.081,308.044 238.247,303.211 231,297.5C 228.212,293.33 227.879,288.997 230,284.5C 233.257,281.048 237.09,278.715 241.5,277.5 Z"/></g>
<g><path style="opacity:1" fill="#656464" d="M 362.5,277.5 C 371.879,276.443 379.046,279.777 384,287.5C 384.242,294.623 381.076,299.789 374.5,303C 366.81,305.84 360.143,310.173 354.5,316C 349.404,317.58 346.237,315.746 345,310.5C 343.508,295.478 349.341,284.478 362.5,277.5 Z"/></g>
<g><path style="opacity:1" fill="#646363" d="M 231.5,313.5 C 252.844,314.339 262.678,325.339 261,346.5C 255.917,362.301 245.084,368.801 228.5,366C 215.818,361.973 209.151,353.306 208.5,340C 210.35,325.991 218.017,317.157 231.5,313.5 Z"/></g>
<g><path style="opacity:1" fill="#646363" d="M 374.5,313.5 C 397.764,315.575 406.93,327.908 402,350.5C 392.344,367.269 378.844,371.103 361.5,362C 346.85,347.626 346.85,333.293 361.5,319C 365.561,316.265 369.894,314.432 374.5,313.5 Z"/></g>
<g><path style="opacity:1" fill="#241916" d="M 231.5,322.5 C 246.666,322.165 253.833,329.498 253,344.5C 245.153,360.225 234.486,362.559 221,351.5C 214.14,337.904 217.64,328.238 231.5,322.5 Z"/></g>
<g><path style="opacity:1" fill="#231916" d="M 372.5,322.5 C 391.401,322.55 398.234,331.55 393,349.5C 385.861,359.085 377.028,360.918 366.5,355C 357.314,345.242 357.314,335.575 366.5,326C 368.727,325.059 370.727,323.892 372.5,322.5 Z"/></g>
<g><path style="opacity:1" fill="#f0efef" d="M 225.5,328.5 C 231.992,328.658 233.658,331.492 230.5,337C 223.421,337.527 221.754,334.694 225.5,328.5 Z"/></g>
<g><path style="opacity:1" fill="#eeeeee" d="M 366.5,328.5 C 373.486,328.331 375.153,331.164 371.5,337C 364.416,337.475 362.749,334.642 366.5,328.5 Z"/></g>
<g><path style="opacity:1" fill="#646363" d="M 172.5,371.5 C 176.53,381.88 182.364,391.213 190,399.5C 198.731,410.116 209.898,416.449 223.5,418.5C 234.099,417.245 244.099,414.078 253.5,409C 259.339,406.309 264.506,407.142 269,411.5C 266.426,435.768 264.093,460.101 262,484.5C 261.333,495.167 261.333,505.833 262,516.5C 262.189,520.767 263.023,524.767 264.5,528.5C 266.924,537.767 272.257,544.934 280.5,550C 305.402,561.487 326.902,556.987 345,536.5C 347.151,530.711 347.984,524.711 347.5,518.5C 348.458,518.953 349.292,519.619 350,520.5C 350.333,520.167 350.667,519.833 351,519.5C 351.167,513 351.333,506.5 351.5,500C 349.991,470.092 347.824,440.259 345,410.5C 347.113,408.627 349.613,407.627 352.5,407.5C 361.922,410.363 371.256,413.53 380.5,417C 391.927,419.56 402.261,417.227 411.5,410C 423.619,400.059 433.286,388.226 440.5,374.5C 433.511,396.322 424.011,416.989 412,436.5C 406.097,451.441 401.431,466.775 398,482.5C 393.551,508.199 388.885,533.866 384,559.5C 382.741,566.872 380.408,573.872 377,580.5C 371.628,586.77 364.795,590.27 356.5,591C 339.582,591.636 322.915,589.802 306.5,585.5C 294.129,588.312 281.629,590.312 269,591.5C 245.108,593.273 231.774,582.273 229,558.5C 223.742,525.211 217.075,492.211 209,459.5C 206.864,452.758 204.531,446.091 202,439.5C 195.333,426.833 188.667,414.167 182,401.5C 178.122,391.701 174.955,381.701 172.5,371.5 Z"/></g>
<g><path style="opacity:1" fill="#231815" d="M 347.5,518.5 C 347.984,524.711 347.151,530.711 345,536.5C 326.902,556.987 305.402,561.487 280.5,550C 272.257,544.934 266.924,537.767 264.5,528.5C 264.336,525.813 264.503,523.146 265,520.5C 269.419,507.519 278.586,500.686 292.5,500C 305.703,498.714 318.703,499.714 331.5,503C 339.322,505.656 344.655,510.823 347.5,518.5 Z"/></g>
</svg>
