<?xml version="1.0" encoding="UTF-8"?>
<!DOCTYPE svg PUBLIC "-//W3C//DTD SVG 1.1//EN" "http://www.w3.org/Graphics/SVG/1.1/DTD/svg11.dtd">
<svg xmlns="http://www.w3.org/2000/svg" version="1.1" width="600px" height="600px" style="shape-rendering:geometricPrecision; text-rendering:geometricPrecision; image-rendering:optimizeQuality; fill-rule:evenodd; clip-rule:evenodd" xmlns:xlink="http://www.w3.org/1999/xlink">
<g><path style="opacity:0.965" fill="#020202" d="M 599.5,307.5 C 599.5,320.833 599.5,334.167 599.5,347.5C 593.249,350.536 587.416,349.869 582,345.5C 583.827,351.333 585.494,357.333 587,363.5C 587.856,367.624 588.356,371.79 588.5,376C 585.048,403.927 579.548,431.427 572,458.5C 568.104,463.177 563.271,464.51 557.5,462.5C 556.844,467.879 556.011,473.213 555,478.5C 551.169,483.378 546.336,485.378 540.5,484.5C 542.236,498.081 544.569,511.581 547.5,525C 545.871,538.476 538.538,543.476 525.5,540C 521.324,537.412 517.324,534.579 513.5,531.5C 510.069,539.435 504.069,542.935 495.5,542C 463.735,533.862 438.235,516.695 419,490.5C 411.393,475.344 406.393,459.344 404,442.5C 400.844,459.613 397.178,476.613 393,493.5C 386.95,513.878 373.45,526.378 352.5,531C 334.618,535.542 316.451,537.376 298,536.5C 279.549,537.376 261.382,535.542 243.5,531C 227.735,527.543 215.568,519.043 207,505.5C 200.976,486.033 195.976,466.367 192,446.5C 189.788,474.427 177.955,497.26 156.5,515C 140.141,528.679 121.474,537.846 100.5,542.5C 93.1491,542.082 88.3157,538.415 86,531.5C 81.1906,537.322 75.0239,540.655 67.5,541.5C 58.1975,540.027 53.1975,534.527 52.5,525C 55.7498,511.669 57.7498,498.169 58.5,484.5C 53.4502,484.871 49.2836,483.204 46,479.5C 44.0459,474.029 43.0459,468.362 43,462.5C 36.647,464.821 31.647,463.154 28,457.5C 21.1848,432.424 15.5181,407.091 11,381.5C 10.3797,369.48 12.5464,357.98 17.5,347C 14.1519,347.995 10.6519,348.828 7,349.5C 4.33513,349.332 1.83513,348.665 -0.5,347.5C -0.5,334.167 -0.5,320.833 -0.5,307.5C 2.74165,300.521 6.40832,293.688 10.5,287C 9.10636,279.441 9.60636,271.941 12,264.5C 14.531,257.105 17.8644,250.105 22,243.5C 44.4672,211.028 68.4672,179.694 94,149.5C 118.223,124.259 145.056,102.425 174.5,84C 213.345,64.8953 254.512,55.7286 298,56.5C 341.163,55.5978 381.997,64.7644 420.5,84C 455.863,105.3 487.363,131.466 515,162.5C 537.487,189.984 558.82,218.317 579,247.5C 586.824,259.626 589.991,272.793 588.5,287C 592.584,293.672 596.251,300.506 599.5,307.5 Z"/></g>
<g><path style="opacity:1" fill="#939394" d="M 425.5,329.5 C 426.28,325.873 427.78,322.54 430,319.5C 430.959,315.741 429.625,313.408 426,312.5C 423.497,312.99 421.497,314.323 420,316.5C 416.811,321.058 415.478,326.058 416,331.5C 416.637,333.303 417.803,334.636 419.5,335.5C 420.622,334.37 421.956,333.703 423.5,333.5C 416.931,344.936 411.431,356.936 407,369.5C 406.303,373.535 406.47,377.535 407.5,381.5C 400.549,408.636 394.549,435.969 389.5,463.5C 382.256,457.762 375.423,451.428 369,444.5C 368.261,447.591 366.428,449.091 363.5,449C 359.257,443.945 356.757,438.111 356,431.5C 354.67,430.418 353.17,429.751 351.5,429.5C 348.011,419.845 341.344,413.345 331.5,410C 327.833,409 324.167,408 320.5,407C 303.421,404.728 286.421,405.061 269.5,408C 246.922,415.077 239.088,429.911 246,452.5C 251.148,462.665 258.982,469.998 269.5,474.5C 270.882,477.394 272.882,479.894 275.5,482C 291.363,496.366 307.03,510.866 322.5,525.5C 304.164,525.667 285.83,525.5 267.5,525C 249.991,524.278 234.491,518.444 221,507.5C 218.497,504.498 216.497,501.165 215,497.5C 206.259,458.463 197.259,419.463 188,380.5C 188.291,375.856 188.291,371.189 188,366.5C 183.219,352.808 176.552,340.141 168,328.5C 141.794,273.17 134.127,215.17 145,154.5C 151.635,126.91 167.635,106.243 193,92.5C 193.251,90.567 193.751,88.7337 194.5,87C 210.673,79.0534 227.673,73.7201 245.5,71C 287.085,65.3622 328.418,66.6955 369.5,75C 381.369,77.9561 392.703,82.2894 403.5,88C 404.249,89.7337 404.749,91.567 405,93.5C 434.968,111.438 451.301,137.771 454,172.5C 455.16,200.337 454.494,228.003 452,255.5C 449.124,270.004 445.457,284.337 441,298.5C 436.876,309.384 431.709,319.717 425.5,329.5 Z"/></g>
<g><path style="opacity:1" fill="#737273" d="M 351.5,84.5 C 360.108,83.27 365.275,86.9366 367,95.5C 367.667,99.1667 367.667,102.833 367,106.5C 365.782,113.464 364.282,120.297 362.5,127C 359.697,127.755 357.03,127.422 354.5,126C 348.926,121.421 344.426,115.921 341,109.5C 339.178,98.854 342.678,90.5206 351.5,84.5 Z"/></g>
<g><path style="opacity:1" fill="#686868" d="M 161.5,107.5 C 162.239,107.369 162.906,107.536 163.5,108C 148.254,126.061 139.42,146.894 137,170.5C 133.443,208.926 135.943,246.926 144.5,284.5C 149.566,297.53 154.733,310.53 160,323.5C 163.325,331.493 167.659,338.826 173,345.5C 176.216,351.264 178.883,357.264 181,363.5C 183.621,393.303 182.621,422.97 178,452.5C 175.227,472.884 166.06,489.717 150.5,503C 136.132,515.604 119.632,524.437 101,529.5C 99.3468,529.18 98.3468,528.18 98,526.5C 97.6667,523.167 97.3333,519.833 97,516.5C 95.1363,513.793 92.6363,512.959 89.5,514C 82.0498,518.457 74.8831,523.29 68,528.5C 66.2655,527.534 65.4322,526.034 65.5,524C 70.8324,504.841 72.9991,485.341 72,465.5C 71.3816,460.197 68.5482,458.03 63.5,459C 60.6939,462.114 58.5272,465.614 57,469.5C 56.6667,461.167 56.3333,452.833 56,444.5C 55.141,438.267 51.9743,436.434 46.5,439C 43.8773,442.412 41.3773,445.912 39,449.5C 34.452,430.876 30.1187,412.21 26,393.5C 24.1243,385.921 23.4576,378.254 24,370.5C 25.8522,360.942 28.5188,351.609 32,342.5C 34.6734,332.176 30.8401,328.01 20.5,330C 15.8878,331.639 11.5545,333.806 7.5,336.5C 6.34524,333.554 6.17858,330.554 7,327.5C 10.165,314.506 15.4984,302.506 23,291.5C 21.5076,281.902 22.5076,272.569 26,263.5C 30.2454,254.669 35.2454,246.336 41,238.5C 59.1858,212.643 78.5192,187.643 99,163.5C 118.538,143.115 139.371,124.448 161.5,107.5 Z"/></g>
<g><path style="opacity:1" fill="#686868" d="M 413.5,413.5 C 414.375,415.568 415.541,417.568 417,419.5C 418.667,420.833 420.333,420.833 422,419.5C 424,415.167 424,410.833 422,406.5C 419.718,402.959 417.051,402.626 414,405.5C 413.506,407.134 413.34,408.801 413.5,410.5C 412.834,406.514 412.501,402.347 412.5,398C 410.369,378.47 414.203,360.303 424,343.5C 453.947,294.79 465.947,241.79 460,184.5C 459.945,155.663 450.778,130.163 432.5,108C 464.92,129.4 493.42,155.567 518,186.5C 532.333,205.5 546.667,224.5 561,243.5C 567.582,252.663 572.582,262.663 576,273.5C 576.406,279.528 576.406,285.528 576,291.5C 584.435,303.805 589.935,317.305 592.5,332C 592.167,333.5 591.833,335 591.5,336.5C 585.062,331.225 577.728,329.058 569.5,330C 566.572,333.257 565.738,337.091 567,341.5C 569.867,350.434 572.533,359.434 575,368.5C 575.508,379.618 574.508,390.618 572,401.5C 568.558,417.822 565.225,434.155 562,450.5C 559.44,445.884 556.273,441.718 552.5,438C 548.276,436.55 545.776,438.05 545,442.5C 543.914,451.13 543.247,459.797 543,468.5C 541.321,464.618 538.821,461.452 535.5,459C 531.412,458.396 528.912,460.23 528,464.5C 527.165,484.648 529.331,504.482 534.5,524C 534.568,526.034 533.734,527.534 532,528.5C 526.919,525.373 522.085,521.873 517.5,518C 514.056,515.944 510.389,514.444 506.5,513.5C 504.971,513.529 503.804,514.196 503,515.5C 502.106,519.863 501.106,524.196 500,528.5C 472.359,522.917 449.692,508.917 432,486.5C 424.24,472.803 419.24,458.136 417,442.5C 415.577,432.858 414.41,423.191 413.5,413.5 Z"/></g>
<g><path style="opacity:1" fill="#a9a9aa" d="M 265.5,112.5 C 268.699,112.696 270.699,114.363 271.5,117.5C 269.576,121.933 267.409,126.266 265,130.5C 263.492,134.674 261.159,135.341 258,132.5C 257.333,129.5 257.333,126.5 258,123.5C 259.518,119.151 262.018,115.484 265.5,112.5 Z"/></g>
<g><path style="opacity:1" fill="#737273" d="M 301.5,122.5 C 304.928,122.547 307.928,123.713 310.5,126C 316.41,131.239 321.577,137.072 326,143.5C 329.392,150.087 329.225,156.587 325.5,163C 324.004,163.507 322.837,163.007 322,161.5C 317.151,151.128 310.818,141.795 303,133.5C 300.532,130.036 300.032,126.37 301.5,122.5 Z"/></g>
<g><path style="opacity:1" fill="#7a7b7e" d="M 385.5,124.5 C 387.199,124.34 388.866,124.506 390.5,125C 395.369,129.892 397.536,135.725 397,142.5C 396.363,144.303 395.197,145.636 393.5,146.5C 388.382,140.603 385.215,133.936 384,126.5C 384.717,125.956 385.217,125.289 385.5,124.5 Z"/></g>
<g><path style="opacity:1" fill="#737273" d="M 190.5,127.5 C 201.911,127.247 207.244,132.914 206.5,144.5C 203.904,156.023 199.904,167.023 194.5,177.5C 192.088,178.818 189.754,178.651 187.5,177C 178.172,168.517 173.672,158.017 174,145.5C 177.271,137.398 182.771,131.398 190.5,127.5 Z"/></g>
<g><path style="opacity:1" fill="#737273" d="M 410.5,263.5 C 410.368,241.25 399.368,227.917 377.5,223.5C 373.183,206.564 369.016,189.564 365,172.5C 364.333,168.833 364.333,165.167 365,161.5C 367.053,157.708 370.219,156.542 374.5,158C 380.17,160.833 385.503,164.166 390.5,168C 408.865,183.357 424.698,200.857 438,220.5C 441.8,232.436 441.133,244.103 436,255.5C 432.748,259.366 428.581,261.533 423.5,262C 419.23,263.075 414.897,263.575 410.5,263.5 Z"/></g>
<g><path style="opacity:1" fill="#737273" d="M 231.5,205.5 C 231.5,206.167 231.5,206.833 231.5,207.5C 230.709,211.354 229.209,215.021 227,218.5C 225.817,219.731 224.651,219.731 223.5,218.5C 221.724,208.004 217.891,198.338 212,189.5C 209.638,184.785 209.138,179.951 210.5,175C 212.92,174.313 215.087,174.813 217,176.5C 223.983,185.132 228.816,194.799 231.5,205.5 Z"/></g>
<g><path style="opacity:1" fill="#aaaaab" d="M 288.5,174.5 C 291.365,174.055 293.865,174.722 296,176.5C 296.667,180.167 296.667,183.833 296,187.5C 292.081,190.345 289.581,189.179 288.5,184C 287.202,180.788 287.202,177.622 288.5,174.5 Z"/></g>
<g><path style="opacity:1" fill="#565555" d="M 122.5,184.5 C 125.978,184.184 129.312,184.684 132.5,186C 133.602,188.401 133.769,190.901 133,193.5C 120.936,212.571 109.269,231.904 98,251.5C 90.0634,257.177 81.5634,258.01 72.5,254C 66.4396,252.066 61.6063,248.566 58,243.5C 56.0541,234.033 57.7208,225.366 63,217.5C 74.0618,208.046 86.2285,200.213 99.5,194C 107.076,190.316 114.743,187.15 122.5,184.5 Z"/></g>
<g><path style="opacity:1" fill="#565555" d="M 469.5,184.5 C 477.579,184.603 485.245,186.436 492.5,190C 506.943,196.386 520.61,204.052 533.5,213C 543.368,221.947 546.202,232.781 542,245.5C 530.8,255.433 518.3,257.933 504.5,253C 493.759,235.253 482.592,217.753 471,200.5C 467.319,195.29 466.819,189.956 469.5,184.5 Z"/></g>
<g><path style="opacity:1" fill="#aaaaab" d="M 231.5,207.5 C 231.5,206.833 231.5,206.167 231.5,205.5C 238.607,196.136 246.773,195.136 256,202.5C 259.699,208.347 258.865,213.514 253.5,218C 245.866,223.075 238.699,222.575 232,216.5C 231.502,213.518 231.335,210.518 231.5,207.5 Z"/></g>
<g><path style="opacity:1" fill="#aaaaab" d="M 348.5,197.5 C 360.158,196.659 365.658,201.993 365,213.5C 359.383,220.722 352.217,222.889 343.5,220C 338.406,215.795 337.24,210.628 340,204.5C 342.441,201.546 345.275,199.213 348.5,197.5 Z"/></g>
<g><path style="opacity:1" fill="#737273" d="M 207.5,226.5 C 199.91,230.092 193.91,235.426 189.5,242.5C 182.26,233.656 177.593,223.49 175.5,212C 175.643,209.849 176.643,208.182 178.5,207C 192.791,206.487 202.458,212.987 207.5,226.5 Z"/></g>
<g><path style="opacity:1" fill="#d0a164" d="M 189.5,242.5 C 193.91,235.426 199.91,230.092 207.5,226.5C 231.887,219.443 248.72,227.777 258,251.5C 261.022,270.958 253.855,285.125 236.5,294C 212.321,301.16 195.821,292.993 187,269.5C 184.473,260.156 185.306,251.156 189.5,242.5 Z"/></g>
<g><path style="opacity:1" fill="#d0a164" d="M 377.5,223.5 C 399.368,227.917 410.368,241.25 410.5,263.5C 408.858,274.459 403.858,283.459 395.5,290.5C 391.952,292.441 388.286,294.107 384.5,295.5C 377.877,296.38 371.211,296.713 364.5,296.5C 358.006,293.997 352.173,290.33 347,285.5C 343.091,280.13 339.924,274.464 337.5,268.5C 336.078,240.261 349.411,225.261 377.5,223.5 Z"/></g>
<g><path style="opacity:1" fill="#241815" d="M 216.5,234.5 C 238.999,234.164 249.165,245.164 247,267.5C 242.56,279.751 233.726,286.084 220.5,286.5C 200.106,281.384 192.94,268.717 199,248.5C 203.237,241.755 209.071,237.088 216.5,234.5 Z"/></g>
<g><path style="opacity:1" fill="#231815" d="M 370.5,234.5 C 385.14,233.989 394.64,240.655 399,254.5C 401.104,269.807 394.937,279.973 380.5,285C 364.917,287.459 354.417,281.293 349,266.5C 346.983,249.506 354.15,238.839 370.5,234.5 Z"/></g>
<g><path style="opacity:1" fill="#f1f1f1" d="M 214.5,243.5 C 223.162,243.317 226.328,247.317 224,255.5C 218.885,261.075 214.219,260.742 210,254.5C 208.776,249.626 210.276,245.959 214.5,243.5 Z"/></g>
<g><path style="opacity:1" fill="#f3f3f3" d="M 365.5,243.5 C 373.201,243.362 376.367,247.029 375,254.5C 370.829,260.729 366.163,261.062 361,255.5C 359.309,250.131 360.809,246.131 365.5,243.5 Z"/></g>
<g><path style="opacity:1" fill="#989898" d="M 533.5,267.5 C 535.911,267.137 537.411,268.137 538,270.5C 538.667,273.5 538.667,276.5 538,279.5C 536.084,282.033 534.084,282.033 532,279.5C 529.784,275.132 530.284,271.132 533.5,267.5 Z"/></g>
<g><path style="opacity:1" fill="#757373" d="M 337.5,268.5 C 339.924,274.464 343.091,280.13 347,285.5C 352.173,290.33 358.006,293.997 364.5,296.5C 364.119,300.282 362.119,302.615 358.5,303.5C 347.88,298.959 340.38,291.293 336,280.5C 335.202,276.219 335.702,272.219 337.5,268.5 Z"/></g>
<g><path style="opacity:1" fill="#565555" d="M 105.5,274.5 C 107.39,274.297 108.89,274.963 110,276.5C 110.667,278.833 110.667,281.167 110,283.5C 107.709,288.448 104.709,292.782 101,296.5C 99.3468,296.18 98.3468,295.18 98,293.5C 97.3333,290.833 97.3333,288.167 98,285.5C 100.016,281.458 102.516,277.791 105.5,274.5 Z"/></g>
<g><path style="opacity:1" fill="#565555" d="M 492.5,274.5 C 496.33,275.485 499.163,277.819 501,281.5C 503.933,286.314 504.1,291.148 501.5,296C 499.633,296.711 498.133,296.211 497,294.5C 494.667,290.167 492.333,285.833 490,281.5C 489.333,280.167 489.333,278.833 490,277.5C 491.045,276.627 491.878,275.627 492.5,274.5 Z"/></g>
<g><path style="opacity:1" fill="#999999" d="M 44.5,278.5 C 50.1558,278.867 51.9891,281.867 50,287.5C 47.2354,291.261 44.9021,295.261 43,299.5C 40.4781,302.326 38.4781,301.993 37,298.5C 35.8482,290.469 38.3482,283.803 44.5,278.5 Z"/></g>
<g><path style="opacity:1" fill="#aaaaab" d="M 184.5,291.5 C 189.984,291.438 191.817,294.105 190,299.5C 187.387,304.6 184.22,309.267 180.5,313.5C 179.522,313.023 178.689,312.357 178,311.5C 177.333,307.833 177.333,304.167 178,300.5C 179.686,297.117 181.853,294.117 184.5,291.5 Z"/></g>
<g><path style="opacity:1" fill="#737273" d="M 395.5,290.5 C 400.382,295.259 404.549,300.593 408,306.5C 408.667,310.833 408.667,315.167 408,319.5C 406.899,323.6 404.899,324.267 402,321.5C 397.914,311.664 392.081,302.997 384.5,295.5C 388.286,294.107 391.952,292.441 395.5,290.5 Z"/></g>
<g><path style="opacity:1" fill="#737273" d="M 298.5,294.5 C 308.055,292.881 311.222,296.547 308,305.5C 301.663,317.514 294.33,328.848 286,339.5C 282.508,347.153 278.508,354.487 274,361.5C 265.705,367.194 256.872,368.027 247.5,364C 242.387,361.694 237.887,358.528 234,354.5C 230.863,341.577 234.363,330.743 244.5,322C 261.323,310.422 279.323,301.255 298.5,294.5 Z"/></g>
<g><path style="opacity:1" fill="#a8a8a9" d="M 425.5,329.5 C 425.771,331.38 425.104,332.713 423.5,333.5C 421.956,333.703 420.622,334.37 419.5,335.5C 417.803,334.636 416.637,333.303 416,331.5C 415.478,326.058 416.811,321.058 420,316.5C 421.497,314.323 423.497,312.99 426,312.5C 429.625,313.408 430.959,315.741 430,319.5C 427.78,322.54 426.28,325.873 425.5,329.5 Z"/></g>
<g><path style="opacity:1" fill="#565555" d="M 57.5,313.5 C 63.0666,312.753 64.9,315.087 63,320.5C 60.5495,325.76 57.3828,330.427 53.5,334.5C 52.3527,334.182 51.5194,333.516 51,332.5C 50.3333,329.167 50.3333,325.833 51,322.5C 52.6863,319.117 54.853,316.117 57.5,313.5 Z"/></g>
<g><path style="opacity:1" fill="#565555" d="M 539.5,312.5 C 544.786,314.289 548.286,317.956 550,323.5C 550.667,326.5 550.667,329.5 550,332.5C 548.688,334.658 547.022,334.991 545,333.5C 542.667,329.5 540.333,325.5 538,321.5C 537.068,318.177 537.568,315.177 539.5,312.5 Z"/></g>
<g><path style="opacity:1" fill="#737273" d="M 358.5,320.5 C 371.115,319.094 381.281,323.427 389,333.5C 394.166,364.028 386.166,367.695 365,344.5C 361.479,339.458 358.479,334.125 356,328.5C 355.018,325.225 355.851,322.559 358.5,320.5 Z"/></g>
<g><path style="opacity:1" fill="#565555" d="M 130.5,335.5 C 133.292,335.452 135.125,336.785 136,339.5C 136.793,343.423 136.626,347.256 135.5,351C 134.167,351.667 132.833,351.667 131.5,351C 128.09,347.101 126.924,342.601 128,337.5C 128.995,336.934 129.828,336.267 130.5,335.5 Z"/></g>
<g><path style="opacity:1" fill="#565555" d="M 467.5,335.5 C 471.489,335.489 473.489,337.489 473.5,341.5C 473.459,346.169 471.459,349.502 467.5,351.5C 466.558,351.392 465.725,351.059 465,350.5C 463.776,345.043 464.609,340.043 467.5,335.5 Z"/></g>
<g><path style="opacity:1" fill="#9a9a9a" d="M 164.5,348.5 C 169.292,349.117 172.459,351.784 174,356.5C 175.123,361.436 174.29,365.936 171.5,370C 167.385,370.571 164.885,368.737 164,364.5C 161.929,358.957 162.095,353.624 164.5,348.5 Z"/></g>
<g><path style="opacity:1" fill="#aaaaab" d="M 195.5,350.5 C 198.325,350.081 200.491,351.081 202,353.5C 202.667,357.167 202.667,360.833 202,364.5C 200.327,366.917 198.494,366.917 196.5,364.5C 193.129,359.947 192.796,355.28 195.5,350.5 Z"/></g>
<g><path style="opacity:1" fill="#999999" d="M 541.5,350.5 C 548.039,352.047 551.706,356.214 552.5,363C 552.437,367.745 550.27,369.245 546,367.5C 544.059,363.952 542.393,360.286 541,356.5C 540.322,354.402 540.489,352.402 541.5,350.5 Z"/></g>
<g><path style="opacity:1" fill="#565555" d="M 93.5,366.5 C 103.714,366.204 109.547,371.204 111,381.5C 110.701,392.966 109.201,404.299 106.5,415.5C 105.312,416.84 103.812,417.507 102,417.5C 92.0483,412.882 84.715,405.548 80,395.5C 78.565,383.038 83.065,373.371 93.5,366.5 Z"/></g>
<g><path style="opacity:1" fill="#565555" d="M 499.5,366.5 C 508.744,366.557 515.244,370.891 519,379.5C 521.766,385.386 522.099,391.386 520,397.5C 516.213,402.956 512.046,408.123 507.5,413C 504.654,415.173 501.488,416.673 498,417.5C 496.289,417.561 494.956,416.894 494,415.5C 492.405,406 490.905,396.5 489.5,387C 489.035,378.099 492.369,371.265 499.5,366.5 Z"/></g>
<g><path style="opacity:1" fill="#999999" d="M 36.5,370.5 C 39.3245,370.081 41.4912,371.081 43,373.5C 43.6667,377.5 43.6667,381.5 43,385.5C 41,388.167 39,388.167 37,385.5C 34.1954,381.909 33.1954,377.909 34,373.5C 34.6979,372.309 35.5313,371.309 36.5,370.5 Z"/></g>
<g><path style="opacity:1" fill="#999999" d="M 149.5,369.5 C 156.848,370.713 158.348,374.38 154,380.5C 148.808,385.213 145.975,384.046 145.5,377C 145.667,375.833 145.833,374.667 146,373.5C 147.376,372.295 148.542,370.962 149.5,369.5 Z"/></g>
<g><path style="opacity:1" fill="#999999" d="M 544.5,381.5 C 552.292,384.404 555.458,390.071 554,398.5C 549.975,405.307 546.309,404.974 543,397.5C 541.756,393.221 541.423,388.888 542,384.5C 543.045,383.627 543.878,382.627 544.5,381.5 Z"/></g>
<g><path style="opacity:1" fill="#565555" d="M 424.5,384.5 C 428.824,384.158 430.824,386.158 430.5,390.5C 430.479,395.155 428.479,398.488 424.5,400.5C 423.353,400.182 422.519,399.516 422,398.5C 420.806,393.369 421.639,388.702 424.5,384.5 Z"/></g>
<g><path style="opacity:1" fill="#565555" d="M 172.5,384.5 C 175.808,383.974 177.974,385.307 179,388.5C 179.667,391.833 179.667,395.167 179,398.5C 177,401.167 175,401.167 173,398.5C 169.99,393.821 169.823,389.154 172.5,384.5 Z"/></g>
<g><path style="opacity:1" fill="#aaaaab" d="M 240.5,392.5 C 245.288,393.123 247.121,395.79 246,400.5C 243.232,406.384 239.732,411.717 235.5,416.5C 234.201,415.91 233.368,414.91 233,413.5C 231.547,405.076 234.047,398.076 240.5,392.5 Z"/></g>
<g><path style="opacity:1" fill="#565555" d="M 125.5,396.5 C 129.14,397.15 132.473,398.65 135.5,401C 141.262,406.704 146.428,412.871 151,419.5C 152.966,425.194 152.8,430.86 150.5,436.5C 148.994,437.747 147.494,437.747 146,436.5C 144.861,433.417 143.528,430.417 142,427.5C 137.05,420.216 131.717,413.216 126,406.5C 124.384,403.176 124.217,399.843 125.5,396.5 Z"/></g>
<g><path style="opacity:1" fill="#565555" d="M 471.5,396.5 C 475.968,396.748 477.468,399.082 476,403.5C 472.066,410.367 467.399,416.7 462,422.5C 459.246,427.008 456.746,431.674 454.5,436.5C 451.251,438.222 449.418,437.222 449,433.5C 448.333,429.167 448.333,424.833 449,420.5C 454.985,411.017 462.485,403.017 471.5,396.5 Z"/></g>
<g><path style="opacity:1" fill="#999999" d="M 527.5,403.5 C 535.379,403.064 537.546,406.397 534,413.5C 529.176,418.171 526.009,417.338 524.5,411C 524.828,408.171 525.828,405.671 527.5,403.5 Z"/></g>
<g><path style="opacity:1" fill="#999999" d="M 413.5,413.5 C 413.5,412.5 413.5,411.5 413.5,410.5C 413.34,408.801 413.506,407.134 414,405.5C 417.051,402.626 419.718,402.959 422,406.5C 424,410.833 424,415.167 422,419.5C 420.333,420.833 418.667,420.833 417,419.5C 415.541,417.568 414.375,415.568 413.5,413.5 Z"/></g>
<g><path style="opacity:1" fill="#231815" d="M 351.5,429.5 C 355.451,449.102 348.451,463.602 330.5,473C 310.35,484.61 290.017,485.11 269.5,474.5C 258.982,469.998 251.148,462.665 246,452.5C 239.088,429.911 246.922,415.077 269.5,408C 286.421,405.061 303.421,404.728 320.5,407C 324.167,408 327.833,409 331.5,410C 341.344,413.345 348.011,419.845 351.5,429.5 Z"/></g>
<g><path style="opacity:1" fill="#8c8c8d" d="M 351.5,429.5 C 353.17,429.751 354.67,430.418 356,431.5C 356.757,438.111 359.257,443.945 363.5,449C 366.428,449.091 368.261,447.591 369,444.5C 375.423,451.428 382.256,457.762 389.5,463.5C 387.2,474.964 384.367,486.297 381,497.5C 375.707,507.784 367.54,514.951 356.5,519C 345.429,522.567 334.096,524.734 322.5,525.5C 307.03,510.866 291.363,496.366 275.5,482C 272.882,479.894 270.882,477.394 269.5,474.5C 290.017,485.11 310.35,484.61 330.5,473C 348.451,463.602 355.451,449.102 351.5,429.5 Z"/></g>
<g><path style="opacity:1" fill="#565555" d="M 102.5,434.5 C 114.441,433.389 124.275,437.389 132,446.5C 136.789,455.487 136.623,464.32 131.5,473C 128.697,473.755 126.03,473.422 123.5,472C 113.536,464.699 105.703,455.533 100,444.5C 98.8613,440.579 99.6946,437.246 102.5,434.5 Z"/></g>
<g><path style="opacity:1" fill="#565555" d="M 485.5,434.5 C 490.267,434.191 494.934,434.691 499.5,436C 501.444,438.153 501.944,440.653 501,443.5C 495.69,455.138 487.856,464.638 477.5,472C 471.753,475.063 467.92,473.563 466,467.5C 463.384,457.349 465.884,448.849 473.5,442C 477.396,439.225 481.396,436.725 485.5,434.5 Z"/></g>
<g><path style="opacity:1" fill="#a1a1a2" d="M 359.5,462.5 C 364.023,462.345 367.189,464.345 369,468.5C 370.277,472.097 370.61,475.764 370,479.5C 368.914,483.457 366.414,484.957 362.5,484C 359.843,479.222 358.176,474.055 357.5,468.5C 357.611,466.286 358.278,464.286 359.5,462.5 Z"/></g>
<g><path style="opacity:1" fill="#aaaaaa" d="M 232.5,484.5 C 235.808,483.974 237.974,485.307 239,488.5C 239.667,491.833 239.667,495.167 239,498.5C 236.872,502.376 234.539,502.376 232,498.5C 229.844,494.738 229.177,490.738 230,486.5C 230.995,485.934 231.828,485.267 232.5,484.5 Z"/></g>
<g><path style="opacity:1" fill="#a1a1a2" d="M 343.5,484.5 C 350,483.499 352.5,486.165 351,492.5C 349.235,494.774 347.068,496.441 344.5,497.5C 341.706,496.602 340.372,494.602 340.5,491.5C 340.695,488.782 341.695,486.449 343.5,484.5 Z"/></g>
</svg>
