<?xml version="1.0" encoding="UTF-8"?>
<!DOCTYPE svg PUBLIC "-//W3C//DTD SVG 1.1//EN" "http://www.w3.org/Graphics/SVG/1.1/DTD/svg11.dtd">
<svg xmlns="http://www.w3.org/2000/svg" version="1.1" width="600px" height="600px" style="shape-rendering:geometricPrecision; text-rendering:geometricPrecision; image-rendering:optimizeQuality; fill-rule:evenodd; clip-rule:evenodd" xmlns:xlink="http://www.w3.org/1999/xlink">
<g><path style="opacity:0.967" fill="#020201" d="M 599.5,254.5 C 599.5,282.5 599.5,310.5 599.5,338.5C 580.439,401.951 552.272,460.951 515,515.5C 506.363,527.806 495.53,537.639 482.5,545C 465.704,551.092 451.537,547.258 440,533.5C 426.789,512.067 417.122,489.067 411,464.5C 408.623,477.338 405.289,490.005 401,502.5C 390.307,526.263 372.473,534.43 347.5,527C 341.516,524.728 335.516,522.561 329.5,520.5C 309.5,523.167 289.5,523.167 269.5,520.5C 258.304,525.454 246.638,528.787 234.5,530.5C 219.205,529.28 208.039,521.947 201,508.5C 194.563,494.52 190.563,479.853 189,464.5C 182.918,484.741 175.251,504.408 166,523.5C 148.696,551.54 127.196,555.373 101.5,535C 83.9565,516.457 69.1232,495.957 57,473.5C 33.0374,430.416 13.8707,385.416 -0.5,338.5C -0.5,310.833 -0.5,283.167 -0.5,255.5C 26.68,197.351 65.68,148.517 116.5,109C 134.996,96.7535 154.996,87.7535 176.5,82C 200.395,67.0639 226.395,57.7305 254.5,54C 297.053,48.1214 339.053,50.7881 380.5,62C 395.564,66.5327 409.564,73.1994 422.5,82C 462.816,93.4 496.983,114.567 525,145.5C 555.305,178.116 580.139,214.45 599.5,254.5 Z"/></g>
<g><path style="opacity:1" fill="#2f2624" d="M 417.5,91.5 C 413.76,94.6427 412.593,98.6427 414,103.5C 419.618,111.453 425.618,119.12 432,126.5C 452.374,156.329 460.707,189.329 457,225.5C 455.203,250.619 449.87,274.953 441,298.5C 435.332,312.008 430.165,325.674 425.5,339.5C 416.339,342.415 408.005,346.915 400.5,353C 396.67,354.998 392.67,356.498 388.5,357.5C 380.822,343.64 373.322,329.64 366,315.5C 357,301.167 348,286.833 339,272.5C 333.017,260.217 328.017,247.551 324,234.5C 322.623,221.936 323.623,209.603 327,197.5C 327.667,185.5 327.667,173.5 327,161.5C 324.89,158.508 323.557,155.175 323,151.5C 320.203,147.701 317.036,144.201 313.5,141C 304.124,137.784 294.791,137.784 285.5,141C 281.964,144.201 278.797,147.701 276,151.5C 275.443,155.175 274.11,158.508 272,161.5C 271.333,172.833 271.333,184.167 272,195.5C 276.239,210.822 276.572,226.156 273,241.5C 270.667,247.833 268.333,254.167 266,260.5C 255.827,279.337 244.827,297.67 233,315.5C 226.335,330.376 218.835,344.709 210.5,358.5C 201.639,354.731 193.306,349.898 185.5,344C 182.039,341.934 178.373,340.434 174.5,339.5C 159.67,307.176 149.17,273.51 143,238.5C 135.203,187.572 148.869,143.572 184,106.5C 186.657,100.684 185.823,95.684 181.5,91.5C 207.252,74.7995 235.586,65.2995 266.5,63C 298.419,59.988 330.086,61.6547 361.5,68C 381.993,71.8746 400.66,79.708 417.5,91.5 Z"/></g>
<g><path style="opacity:1" fill="#231c1a" d="M 181.5,91.5 C 185.823,95.684 186.657,100.684 184,106.5C 148.869,143.572 135.203,187.572 143,238.5C 149.17,273.51 159.67,307.176 174.5,339.5C 182.18,359.885 187.18,380.885 189.5,402.5C 188.778,402.918 188.278,403.584 188,404.5C 185.067,447.624 173.067,487.957 152,525.5C 142.279,538.188 130.446,540.688 116.5,533C 104.964,524.097 95.1311,513.597 87,501.5C 49.0749,443.967 21.7416,381.634 5,314.5C 1.95409,300.132 1.95409,285.799 5,271.5C 26.9068,218.539 59.0735,172.706 101.5,134C 124.847,113.823 151.514,99.6566 181.5,91.5 Z"/></g>
<g><path style="opacity:1" fill="#231c1a" d="M 417.5,91.5 C 446.77,98.9663 472.77,112.466 495.5,132C 538.883,171.05 571.716,217.55 594,271.5C 596.995,284.076 597.328,296.743 595,309.5C 579.795,374.464 554.461,435.131 519,491.5C 509.691,506.814 498.191,520.314 484.5,532C 474.652,538.807 464.652,539.141 454.5,533C 445.368,524.581 438.868,514.414 435,502.5C 430.777,492.717 427.11,482.717 424,472.5C 417.979,449.462 413.146,426.462 409.5,403.5C 411.704,381.349 417.038,360.016 425.5,339.5C 430.165,325.674 435.332,312.008 441,298.5C 449.87,274.953 455.203,250.619 457,225.5C 460.707,189.329 452.374,156.329 432,126.5C 425.618,119.12 419.618,111.453 414,103.5C 412.593,98.6427 413.76,94.6427 417.5,91.5 Z"/></g>
<g><path style="opacity:1" fill="#f1f1f1" d="M 373.5,354.5 C 373.75,356.674 374.75,358.341 376.5,359.5C 376.328,360.492 376.662,361.158 377.5,361.5C 378.079,364.331 379.412,366.664 381.5,368.5C 382.992,372.818 384.992,376.818 387.5,380.5C 387.402,382.553 388.069,384.22 389.5,385.5C 391.296,390.884 393.296,396.217 395.5,401.5C 395.171,404.228 395.837,406.562 397.5,408.5C 397.294,411.495 397.96,414.162 399.5,416.5C 399.5,416.833 399.5,417.167 399.5,417.5C 399.444,422.731 400.111,427.731 401.5,432.5C 401.328,446.235 400.328,459.901 398.5,473.5C 397.883,473.611 397.383,473.944 397,474.5C 378.556,459.543 359.722,445.209 340.5,431.5C 338.461,426.622 335.127,422.788 330.5,420C 312.174,413.032 293.507,412.032 274.5,417C 254.581,426.989 251.081,441.156 264,459.5C 269.11,464.632 274.943,468.632 281.5,471.5C 289.621,478.931 298.288,485.931 307.5,492.5C 307.043,493.298 306.376,493.631 305.5,493.5C 300.401,493.175 295.401,493.675 290.5,495C 280.833,500.667 271.167,506.333 261.5,512C 250.176,518.132 238.176,520.132 225.5,518C 219.774,515.608 215.274,511.774 212,506.5C 205.027,492.276 200.694,477.276 199,461.5C 197.661,449.012 197.495,436.679 198.5,424.5C 200.378,418.409 201.712,412.075 202.5,405.5C 204.163,403.562 204.829,401.228 204.5,398.5C 204.796,396.597 205.463,394.93 206.5,393.5C 208.397,391.302 209.397,388.636 209.5,385.5C 209.328,384.508 209.662,383.842 210.5,383.5C 214.008,377.818 217.008,371.818 219.5,365.5C 234.606,337.3 250.772,309.633 268,282.5C 279.018,263.446 285.185,242.946 286.5,221C 285.468,208.779 283.968,196.612 282,184.5C 280.074,171.275 283.907,160.109 293.5,151C 299.776,147.684 305.276,148.851 310,154.5C 316.259,163.203 318.592,172.869 317,183.5C 315.172,196.464 313.672,209.464 312.5,222.5C 313.965,242.362 319.465,261.028 329,278.5C 344.613,303.396 359.447,328.729 373.5,354.5 Z"/></g>
<g><path style="opacity:1" fill="#cba570" d="M 230.5,188.5 C 248.639,187.973 259.306,196.64 262.5,214.5C 262.197,222.996 257.864,226.163 249.5,224C 241.556,219.111 234.056,213.611 227,207.5C 224.626,203.106 223.959,198.44 225,193.5C 226.406,191.256 228.239,189.59 230.5,188.5 Z"/></g>
<g><path style="opacity:1" fill="#cba670" d="M 357.5,188.5 C 362.777,187.931 367.777,188.765 372.5,191C 376.303,199.264 374.636,206.264 367.5,212C 361.434,216.395 355.1,220.395 348.5,224C 340.857,225.846 336.857,222.846 336.5,215C 338.19,201.824 345.19,192.991 357.5,188.5 Z"/></g>
<g><path style="opacity:1" fill="#885c2f" d="M 216.5,222.5 C 233.478,220.666 244.978,227.666 251,243.5C 253.842,260.989 247.009,272.822 230.5,279C 205.863,280.696 194.029,269.196 195,244.5C 198.35,233.318 205.517,225.984 216.5,222.5 Z"/></g>
<g><path style="opacity:1" fill="#885c2f" d="M 371.5,223.5 C 387.691,223.006 398.524,230.34 404,245.5C 406.569,264.189 398.736,276.023 380.5,281C 357.005,280.879 346.172,269.045 348,245.5C 351.971,233.949 359.805,226.615 371.5,223.5 Z"/></g>
<g><path style="opacity:1" fill="#030303" d="M 217.5,230.5 C 232.989,228.826 241.989,235.659 244.5,251C 243.404,263.93 236.404,271.096 223.5,272.5C 207.787,270.283 200.954,261.283 203,245.5C 205.351,237.984 210.184,232.984 217.5,230.5 Z"/></g>
<g><path style="opacity:1" fill="#030303" d="M 370.5,231.5 C 389.525,230.689 398.025,239.689 396,258.5C 391.377,269.901 382.877,274.734 370.5,273C 360.537,269.862 355.204,263.028 354.5,252.5C 355.386,241.965 360.719,234.965 370.5,231.5 Z"/></g>
<g><path style="opacity:1" fill="#f5f5f5" d="M 228.5,238.5 C 237.85,238.365 240.517,242.532 236.5,251C 227.249,254.416 223.415,251.25 225,241.5C 226.145,240.364 227.312,239.364 228.5,238.5 Z"/></g>
<g><path style="opacity:1" fill="#f3f3f3" d="M 380.5,238.5 C 390.052,238.197 393.052,242.364 389.5,251C 382.864,254.33 378.531,252.497 376.5,245.5C 377.071,242.687 378.404,240.354 380.5,238.5 Z"/></g>
<g><path style="opacity:1" fill="#c8a36e" d="M 174.5,339.5 C 178.373,340.434 182.039,341.934 185.5,344C 193.306,349.898 201.639,354.731 210.5,358.5C 201.57,374.109 195.07,390.775 191,408.5C 190.685,406.414 190.185,404.414 189.5,402.5C 187.18,380.885 182.18,359.885 174.5,339.5 Z"/></g>
<g><path style="opacity:1" fill="#c9a46e" d="M 425.5,339.5 C 417.038,360.016 411.704,381.349 409.5,403.5C 408.91,404.766 408.41,406.099 408,407.5C 403.446,390.062 396.946,373.395 388.5,357.5C 392.67,356.498 396.67,354.998 400.5,353C 408.005,346.915 416.339,342.415 425.5,339.5 Z"/></g>
<g><path style="opacity:1" fill="#8c7556" d="M 373.5,354.5 C 375.25,355.659 376.25,357.326 376.5,359.5C 374.75,358.341 373.75,356.674 373.5,354.5 Z"/></g>
<g><path style="opacity:1" fill="#8a7354" d="M 377.5,361.5 C 379.588,363.336 380.921,365.669 381.5,368.5C 379.412,366.664 378.079,364.331 377.5,361.5 Z"/></g>
<g><path style="opacity:1" fill="#8a7354" d="M 219.5,365.5 C 217.008,371.818 214.008,377.818 210.5,383.5C 212.46,376.914 215.46,370.914 219.5,365.5 Z"/></g>
<g><path style="opacity:1" fill="#877050" d="M 387.5,380.5 C 388.931,381.78 389.598,383.447 389.5,385.5C 388.069,384.22 387.402,382.553 387.5,380.5 Z"/></g>
<g><path style="opacity:1" fill="#ac9982" d="M 209.5,385.5 C 209.397,388.636 208.397,391.302 206.5,393.5C 206.733,390.458 207.733,387.792 209.5,385.5 Z"/></g>
<g><path style="opacity:1" fill="#a9957c" d="M 204.5,398.5 C 204.829,401.228 204.163,403.562 202.5,405.5C 202.721,402.933 203.388,400.599 204.5,398.5 Z"/></g>
<g><path style="opacity:1" fill="#aa977e" d="M 395.5,401.5 C 396.924,403.515 397.59,405.848 397.5,408.5C 395.837,406.562 395.171,404.228 395.5,401.5 Z"/></g>
<g><path style="opacity:1" fill="#8f795a" d="M 397.5,408.5 C 398.768,410.905 399.435,413.572 399.5,416.5C 397.96,414.162 397.294,411.495 397.5,408.5 Z"/></g>
<g><path style="opacity:1" fill="#302826" d="M 340.5,431.5 C 344.388,446.576 339.722,458.409 326.5,467C 314.168,475.388 300.835,477.722 286.5,474C 284.807,473.153 283.14,472.32 281.5,471.5C 274.943,468.632 269.11,464.632 264,459.5C 251.081,441.156 254.581,426.989 274.5,417C 293.507,412.032 312.174,413.032 330.5,420C 335.127,422.788 338.461,426.622 340.5,431.5 Z"/></g>
<g><path style="opacity:1" fill="#b7a690" d="M 202.5,405.5 C 201.712,412.075 200.378,418.409 198.5,424.5C 198.831,417.841 200.164,411.507 202.5,405.5 Z"/></g>
<g><path style="opacity:1" fill="#ac9880" d="M 399.5,417.5 C 401.031,422.25 401.698,427.25 401.5,432.5C 400.111,427.731 399.444,422.731 399.5,417.5 Z"/></g>
<g><path style="opacity:1" fill="#e8e8e8" d="M 340.5,431.5 C 359.722,445.209 378.556,459.543 397,474.5C 397.383,473.944 397.883,473.611 398.5,473.5C 396.446,484.616 392.946,495.283 388,505.5C 378.13,518.645 365.296,522.478 349.5,517C 345.419,515.529 341.419,513.862 337.5,512C 326.902,505.54 316.235,499.373 305.5,493.5C 306.376,493.631 307.043,493.298 307.5,492.5C 298.288,485.931 289.621,478.931 281.5,471.5C 283.14,472.32 284.807,473.153 286.5,474C 300.835,477.722 314.168,475.388 326.5,467C 339.722,458.409 344.388,446.576 340.5,431.5 Z"/></g>
<g><path style="opacity:1" fill="#2d2624" d="M 296.5,504.5 C 298.527,504.338 300.527,504.505 302.5,505C 305.833,507 309.167,509 312.5,511C 303.833,511.667 295.167,511.667 286.5,511C 290.009,508.97 293.342,506.804 296.5,504.5 Z"/></g>
</svg>
