<?xml version="1.0" encoding="UTF-8"?>
<!DOCTYPE svg PUBLIC "-//W3C//DTD SVG 1.1//EN" "http://www.w3.org/Graphics/SVG/1.1/DTD/svg11.dtd">
<svg xmlns="http://www.w3.org/2000/svg" version="1.1" width="600px" height="600px" style="shape-rendering:geometricPrecision; text-rendering:geometricPrecision; image-rendering:optimizeQuality; fill-rule:evenodd; clip-rule:evenodd" xmlns:xlink="http://www.w3.org/1999/xlink">
<g><path style="opacity:0.959" fill="#040301" d="M 599.5,137.5 C 599.5,152.833 599.5,168.167 599.5,183.5C 591.581,190.586 582.915,191.753 573.5,187C 571.333,185.5 569.167,184 567,182.5C 559.473,192.571 554.973,203.904 553.5,216.5C 565.773,296.133 561.273,374.8 540,452.5C 535.209,470.563 527.542,487.229 517,502.5C 512.536,507.97 507.203,512.303 501,515.5C 494.826,534.968 483.993,551.135 468.5,564C 444.743,575.716 422.576,573.216 402,556.5C 383.674,567.821 364.84,568.487 345.5,558.5C 328.647,581.054 306.647,588.221 279.5,580C 268.217,575.384 259.384,567.884 253,557.5C 234.008,567.489 215.508,566.822 197.5,555.5C 176.154,573.471 153.154,575.971 128.5,563C 126.04,561.542 123.873,559.709 122,557.5C 117.031,549.854 112.031,542.187 107,534.5C 103.78,528.059 101.113,521.392 99,514.5C 89.0276,509.694 81.5276,502.361 76.5,492.5C 64.4661,468.042 55.9661,442.376 51,415.5C 40.0976,364.34 36.431,312.673 40,260.5C 40.9598,245.447 43.1264,230.614 46.5,216C 44.6126,208.003 42.1126,200.17 39,192.5C 37.1591,188.817 34.8258,185.484 32,182.5C 21.1108,191.888 10.2775,192.221 -0.5,183.5C -0.5,168.833 -0.5,154.167 -0.5,139.5C 6.87764,107.242 22.211,79.4082 45.5,56C 69.9292,35.8551 98.0958,26.0218 130,26.5C 151.021,27.0033 171.688,30.0033 192,35.5C 198.107,33.7651 204.273,32.2651 210.5,31C 226.457,29.2814 242.457,28.1147 258.5,27.5C 272.174,28.0102 285.841,28.6769 299.5,29.5C 336.041,25.4317 372.208,27.4317 408,35.5C 432.717,28.5399 457.884,25.7066 483.5,27C 530.627,32.1499 564.461,55.9833 585,98.5C 590.557,111.351 595.391,124.351 599.5,137.5 Z"/></g>
<g><path style="opacity:1" fill="#9b7232" d="M 191.5,46.5 C 153.261,63.8955 122.095,89.8955 98,124.5C 78.3005,151.432 64.4672,181.099 56.5,213.5C 54.2382,197.478 47.5716,183.645 36.5,172C 34.3046,170.627 31.9712,170.294 29.5,171C 11.7733,185.616 3.94001,181.449 6,158.5C 27.3551,54.5597 89.1884,17.2264 191.5,46.5 Z"/></g>
<g><path style="opacity:1" fill="#9b7232" d="M 543.5,219.5 C 530.08,161.593 500.747,113.427 455.5,75C 440.528,63.6839 424.528,54.1839 407.5,46.5C 508.48,16.89 570.313,53.2234 593,155.5C 593.667,161.5 593.667,167.5 593,173.5C 589.787,179.645 584.954,181.145 578.5,178C 575.833,176 573.167,174 570.5,172C 566.793,171.004 563.459,171.67 560.5,174C 549.609,187.17 543.942,202.336 543.5,219.5 Z"/></g>
<g><path style="opacity:1" fill="#c38d44" d="M 407.5,46.5 C 424.528,54.1839 440.528,63.6839 455.5,75C 500.747,113.427 530.08,161.593 543.5,219.5C 546.219,233.032 548.052,246.699 549,260.5C 549.807,290.181 549.473,319.847 548,349.5C 544.866,374.969 540.866,400.302 536,425.5C 531.294,447.954 523.628,469.287 513,489.5C 509.333,495.833 504.333,500.833 498,504.5C 497.667,503.5 497.333,502.5 497,501.5C 502.66,459.603 498.827,418.269 485.5,377.5C 480.799,363.052 475.132,349.052 468.5,335.5C 467.325,335.719 466.325,335.386 465.5,334.5C 464.195,331.567 463.195,328.567 462.5,325.5C 461.325,325.719 460.325,325.386 459.5,324.5C 458.195,321.567 457.195,318.567 456.5,315.5C 452.258,314.583 450.258,311.917 450.5,307.5C 442.444,301.616 435.11,294.783 428.5,287C 424.299,285.471 420.966,282.804 418.5,279C 400.49,266.545 380.823,257.545 359.5,252C 353.554,248.237 347.221,245.237 340.5,243C 312.904,238.195 285.237,238.362 257.5,243.5C 252.307,245.771 246.974,247.438 241.5,248.5C 241.64,250.124 240.973,251.29 239.5,252C 231.415,254.195 223.415,256.695 215.5,259.5C 207.695,263.738 199.695,267.405 191.5,270.5C 190.969,273.779 188.969,275.113 185.5,274.5C 184.583,278.742 181.917,280.742 177.5,280.5C 176.583,284.742 173.917,286.742 169.5,286.5C 169.719,287.675 169.386,288.675 168.5,289.5C 164.167,293.833 159.833,298.167 155.5,302.5C 154.675,303.386 153.675,303.719 152.5,303.5C 152.053,308.613 149.386,311.947 144.5,313.5C 145.113,316.969 143.779,318.969 140.5,319.5C 141.113,322.969 139.779,324.969 136.5,325.5C 137.113,328.969 135.779,330.969 132.5,331.5C 119.476,357.567 109.81,384.9 103.5,413.5C 99.5614,435.678 98.0614,458.011 99,480.5C 100.101,488.181 101.267,495.848 102.5,503.5C 97.7677,502.29 93.9343,499.623 91,495.5C 85.3014,487.439 80.6347,478.772 77,469.5C 49.0459,385.885 42.2125,300.551 56.5,213.5C 64.4672,181.099 78.3005,151.432 98,124.5C 122.095,89.8955 153.261,63.8955 191.5,46.5C 198.877,43.5726 206.544,41.7393 214.5,41C 228.265,39.1447 242.098,38.3114 256,38.5C 290.499,39.4166 324.999,39.5833 359.5,39C 375.941,39.0305 391.941,41.5305 407.5,46.5 Z"/></g>
<g><path style="opacity:1" fill="#382e2b" d="M 177.5,219.5 C 203.082,216.242 212.249,226.908 205,251.5C 196.704,269.044 183.204,275.21 164.5,270C 151.104,262.708 145.604,251.542 148,236.5C 153.3,229.592 160.133,224.758 168.5,222C 171.678,221.34 174.678,220.507 177.5,219.5 Z"/></g>
<g><path style="opacity:1" fill="#382e2b" d="M 410.5,219.5 C 427.482,217.867 442.648,222.2 456,232.5C 461.926,245.965 459.093,257.465 447.5,267C 431.515,276.308 417.682,273.808 406,259.5C 399.964,250.366 397.964,240.366 400,229.5C 402.081,224.584 405.581,221.25 410.5,219.5 Z"/></g>
<g><path style="opacity:1" fill="#f3f3f3" d="M 184.5,230.5 C 191.996,229.174 195.496,232.174 195,239.5C 191.455,245.209 187.121,245.875 182,241.5C 179.592,237.034 180.425,233.367 184.5,230.5 Z"/></g>
<g><path style="opacity:1" fill="#f6f6f6" d="M 416.5,230.5 C 427.393,229.85 430.059,234.017 424.5,243C 416.097,245.525 412.597,242.358 414,233.5C 414.698,232.309 415.531,231.309 416.5,230.5 Z"/></g>
<g><path style="opacity:1" fill="#352e2b" d="M 345.5,252.5 C 314.832,247.167 284.166,247.167 253.5,252.5C 268.17,246.832 283.503,244.165 299.5,244.5C 315.497,244.165 330.83,246.832 345.5,252.5 Z"/></g>
<g><path style="opacity:1" fill="#4b4848" d="M 345.5,252.5 C 363.115,258.802 380.448,265.968 397.5,274C 417.088,285.251 433.921,299.751 448,317.5C 482.679,370.211 497.679,428.211 493,491.5C 489.777,514.943 479.944,534.943 463.5,551.5C 444.603,557.917 428.77,553.584 416,538.5C 411.554,531.942 407.887,524.942 405,517.5C 399.109,494.938 392.443,472.605 385,450.5C 379.891,438.222 372.391,427.889 362.5,419.5C 364.736,407.28 366.069,394.947 366.5,382.5C 365.325,382.281 364.325,382.614 363.5,383.5C 357.152,391.178 350.485,398.512 343.5,405.5C 334.09,401.594 326.257,395.594 320,387.5C 314.496,374.346 316.996,363.179 327.5,354C 335.61,348.889 343.443,343.389 351,337.5C 355.443,332.062 356.443,326.062 354,319.5C 346.05,305.093 334.217,295.26 318.5,290C 291.48,282.756 268.647,289.589 250,310.5C 239.767,323.771 241.6,334.938 255.5,344C 261.337,347.418 267.004,351.084 272.5,355C 281.09,362.278 283.923,371.444 281,382.5C 278.949,387.214 276.115,391.381 272.5,395C 267.14,399.012 261.474,402.512 255.5,405.5C 249.159,399.323 243.326,392.656 238,385.5C 236.736,383.393 234.903,382.393 232.5,382.5C 233.653,394.52 234.987,406.52 236.5,418.5C 226.53,427.324 219.03,437.991 214,450.5C 210.94,457.68 208.273,465.014 206,472.5C 201.826,488.195 197.493,503.861 193,519.5C 188.423,534.738 178.923,545.572 164.5,552C 156.196,553.795 147.863,553.961 139.5,552.5C 137.468,551.952 136.468,550.619 136.5,548.5C 132.303,545.818 128.47,542.485 125,538.5C 112.962,520.046 106.295,499.713 105,477.5C 102.426,414.899 120.092,358.899 158,309.5C 171.145,294.675 186.312,282.508 203.5,273C 219.856,265.319 236.523,258.486 253.5,252.5C 284.166,247.167 314.832,247.167 345.5,252.5 Z"/></g>
<g><path style="opacity:1" fill="#302826" d="M 343.5,405.5 C 340.404,409.773 337.07,413.94 333.5,418C 342.254,421.696 351.087,425.196 360,428.5C 360.772,428.355 361.439,428.022 362,427.5C 362.497,424.854 362.664,422.187 362.5,419.5C 372.391,427.889 379.891,438.222 385,450.5C 392.443,472.605 399.109,494.938 405,517.5C 407.887,524.942 411.554,531.942 416,538.5C 428.77,553.584 444.603,557.917 463.5,551.5C 454.285,556.92 444.285,559.087 433.5,558C 421.396,554.112 411.062,547.446 402.5,538C 401.552,537.517 400.552,537.351 399.5,537.5C 396.468,533.939 393.968,529.939 392,525.5C 385.315,505.109 377.648,485.109 369,465.5C 356.52,448.667 339.686,439.167 318.5,437C 297.833,435.077 277.5,436.743 257.5,442C 242.667,448.833 231.833,459.667 225,474.5C 218.388,492.059 212.055,509.726 206,527.5C 204.058,531.069 201.892,534.402 199.5,537.5C 196.757,538.388 194.09,539.555 191.5,541C 180.515,553.817 166.515,559.484 149.5,558C 145.663,556.847 142.33,555.013 139.5,552.5C 147.863,553.961 156.196,553.795 164.5,552C 178.923,545.572 188.423,534.738 193,519.5C 197.493,503.861 201.826,488.195 206,472.5C 208.273,465.014 210.94,457.68 214,450.5C 219.03,437.991 226.53,427.324 236.5,418.5C 236.46,421.881 236.793,425.214 237.5,428.5C 247.148,425.618 256.481,421.951 265.5,417.5C 261.767,413.773 258.434,409.773 255.5,405.5C 261.474,402.512 267.14,399.012 272.5,395C 276.115,391.381 278.949,387.214 281,382.5C 283.923,371.444 281.09,362.278 272.5,355C 267.004,351.084 261.337,347.418 255.5,344C 241.6,334.938 239.767,323.771 250,310.5C 268.647,289.589 291.48,282.756 318.5,290C 334.217,295.26 346.05,305.093 354,319.5C 356.443,326.062 355.443,332.062 351,337.5C 343.443,343.389 335.61,348.889 327.5,354C 316.996,363.179 314.496,374.346 320,387.5C 326.257,395.594 334.09,401.594 343.5,405.5 Z"/></g>
<g><path style="opacity:1" fill="#efefef" d="M 255.5,405.5 C 258.434,409.773 261.767,413.773 265.5,417.5C 256.481,421.951 247.148,425.618 237.5,428.5C 236.793,425.214 236.46,421.881 236.5,418.5C 234.987,406.52 233.653,394.52 232.5,382.5C 234.903,382.393 236.736,383.393 238,385.5C 243.326,392.656 249.159,399.323 255.5,405.5 Z"/></g>
<g><path style="opacity:1" fill="#f0f0f0" d="M 362.5,419.5 C 362.664,422.187 362.497,424.854 362,427.5C 361.439,428.022 360.772,428.355 360,428.5C 351.087,425.196 342.254,421.696 333.5,418C 337.07,413.94 340.404,409.773 343.5,405.5C 350.485,398.512 357.152,391.178 363.5,383.5C 364.325,382.614 365.325,382.281 366.5,382.5C 366.069,394.947 364.736,407.28 362.5,419.5 Z"/></g>
<g><path style="opacity:1" fill="#4b4848" d="M 399.5,537.5 C 395.871,543.958 390.538,548.458 383.5,551C 375.778,551.812 368.111,551.478 360.5,550C 354.023,547.926 348.023,545.092 342.5,541.5C 341.5,541.833 340.5,542.167 339.5,542.5C 337.084,547.001 334.417,551.334 331.5,555.5C 330.311,556.429 328.978,556.762 327.5,556.5C 326.679,559.339 325.013,561.672 322.5,563.5C 315.323,567.448 307.656,569.781 299.5,570.5C 285.711,569.43 274.378,563.43 265.5,552.5C 264.195,549.567 263.195,546.567 262.5,543.5C 260.641,543.539 259.308,542.706 258.5,541C 256.19,540.503 253.857,540.337 251.5,540.5C 250.969,543.779 248.969,545.113 245.5,544.5C 245.719,545.675 245.386,546.675 244.5,547.5C 234.4,551.373 224.067,552.206 213.5,550C 211.841,547.518 209.508,546.018 206.5,545.5C 203.742,543.084 201.409,540.417 199.5,537.5C 201.892,534.402 204.058,531.069 206,527.5C 212.055,509.726 218.388,492.059 225,474.5C 231.833,459.667 242.667,448.833 257.5,442C 277.5,436.743 297.833,435.077 318.5,437C 339.686,439.167 356.52,448.667 369,465.5C 377.648,485.109 385.315,505.109 392,525.5C 393.968,529.939 396.468,533.939 399.5,537.5 Z"/></g>
</svg>
