<?xml version="1.0" encoding="UTF-8"?>
<!DOCTYPE svg PUBLIC "-//W3C//DTD SVG 1.1//EN" "http://www.w3.org/Graphics/SVG/1.1/DTD/svg11.dtd">
<svg xmlns="http://www.w3.org/2000/svg" version="1.1" width="600px" height="600px" style="shape-rendering:geometricPrecision; text-rendering:geometricPrecision; image-rendering:optimizeQuality; fill-rule:evenodd; clip-rule:evenodd" xmlns:xlink="http://www.w3.org/1999/xlink">
<g><path style="opacity:0.952" fill="#010000" d="M 103.5,-0.5 C 110.833,-0.5 118.167,-0.5 125.5,-0.5C 138.196,6.009 149.362,14.6757 159,25.5C 193.379,67.5779 218.379,114.911 234,167.5C 237.169,178.845 240.336,190.178 243.5,201.5C 283.169,188.189 322.836,188.189 362.5,201.5C 373.207,157.212 389.707,115.212 412,75.5C 425.78,51.7066 442.614,30.2066 462.5,11C 468.499,6.47693 474.832,2.64359 481.5,-0.5C 488.5,-0.5 495.5,-0.5 502.5,-0.5C 509.64,3.41568 514.14,9.41568 516,17.5C 524.469,53.8452 531.136,90.5119 536,127.5C 540.482,168.309 537.815,208.642 528,248.5C 525.225,259.715 520.558,270.049 514,279.5C 502.701,289.131 491.701,299.131 481,309.5C 477.289,314.59 474.956,320.257 474,326.5C 474.954,361.059 469.954,394.726 459,427.5C 455.583,436.75 451.583,445.75 447,454.5C 437.917,469.668 428.584,484.668 419,499.5C 411.883,517.069 404.216,534.402 396,551.5C 381.91,575.786 361.41,591.786 334.5,599.5C 313.5,599.5 292.5,599.5 271.5,599.5C 244.416,591.598 223.916,575.265 210,550.5C 202.278,533.999 194.945,517.333 188,500.5C 179,486.167 170,471.833 161,457.5C 146.922,430.865 138.256,402.531 135,372.5C 133.883,357.524 133.216,342.524 133,327.5C 132.078,320.392 129.411,314.059 125,308.5C 113.959,298.491 102.959,288.491 92,278.5C 82.6425,262.765 76.6425,245.765 74,227.5C 66.06,179.001 67.06,130.668 77,82.5C 81.5086,60.1324 86.1753,37.7991 91,15.5C 93.5212,8.74573 97.6878,3.41239 103.5,-0.5 Z"/></g>
<g><path style="opacity:1" fill="#2e2624" d="M 456.5,393.5 C 451.644,389.274 447.144,389.941 443,395.5C 434.667,410.833 426.333,426.167 418,441.5C 404.765,460.259 386.598,468.426 363.5,466C 358.893,465.266 354.559,463.766 350.5,461.5C 350.167,461.833 349.833,462.167 349.5,462.5C 357.322,483.464 363.822,504.797 369,526.5C 369.85,537.544 369.517,548.544 368,559.5C 365.763,566.316 362.263,572.316 357.5,577.5C 350.027,582.899 341.694,586.732 332.5,589C 311.415,592.644 290.415,592.311 269.5,588C 262.574,585.881 256.241,582.714 250.5,578.5C 238.278,565.632 233.778,550.299 237,532.5C 240.943,508.498 247.443,485.165 256.5,462.5C 237.458,468.084 219.125,465.917 201.5,456C 195.955,452.122 191.455,447.289 188,441.5C 180.333,426.167 172.667,410.833 165,395.5C 160.275,389.444 155.441,389.111 150.5,394.5C 147.932,385.447 146.098,376.113 145,366.5C 144.083,350.486 143.083,334.486 142,318.5C 137.861,307.688 131.361,298.522 122.5,291C 116.333,286.167 110.167,281.333 104,276.5C 94.7477,263.985 88.7477,249.985 86,234.5C 76.6152,181.001 77.6152,127.668 89,74.5C 92.9996,55.8357 96.9996,37.169 101,18.5C 105.205,8.6589 112.371,5.82557 122.5,10C 137.82,18.6497 150.653,30.1497 161,44.5C 196.878,93.389 221.211,147.722 234,207.5C 235.266,210.635 237.599,212.302 241,212.5C 282.168,199.175 323.335,199.175 364.5,212.5C 367.63,212.352 370.13,211.018 372,208.5C 383.775,155.813 404.109,106.813 433,61.5C 444.017,44.1483 457.517,28.9817 473.5,16C 478.728,11.6464 484.728,9.14637 491.5,8.5C 500.661,9.15748 505.827,14.1575 507,23.5C 514.415,56.2415 520.415,89.2415 525,122.5C 529.825,162.872 527.825,202.872 519,242.5C 516.335,255.83 510.501,267.497 501.5,277.5C 491.344,285.009 481.844,293.342 473,302.5C 467.52,309.935 464.186,318.268 463,327.5C 462.79,342.857 462.123,358.19 461,373.5C 460.021,380.415 458.521,387.082 456.5,393.5 Z"/></g>
<g><path style="opacity:1" fill="#030202" d="M 116.5,27.5 C 128.987,25.4619 139.153,29.4619 147,39.5C 164.149,63.4726 177.816,89.1392 188,116.5C 196.269,137.977 202.936,159.977 208,182.5C 208.793,212.82 198.293,238.32 176.5,259C 162.823,269.468 147.489,272.801 130.5,269C 114.659,261.489 104.159,249.323 99,232.5C 82.4774,168.074 84.144,104.074 104,40.5C 107.025,34.9769 111.191,30.6436 116.5,27.5 Z"/></g>
<g><path style="opacity:1" fill="#030202" d="M 479.5,27.5 C 490.529,27.3422 498.363,32.3422 503,42.5C 519.381,97.7386 522.715,153.739 513,210.5C 510.685,227.14 504.685,242.14 495,255.5C 479.68,270.84 461.847,274.34 441.5,266C 420.391,253.624 407.224,235.457 402,211.5C 400.639,203.862 399.472,196.195 398.5,188.5C 407.251,141.391 423.751,97.3914 448,56.5C 453.387,47.1137 460.221,38.9471 468.5,32C 471.86,29.4633 475.527,27.9633 479.5,27.5 Z"/></g>
<g><path style="opacity:1" fill="#c38027" d="M 120.5,37.5 C 125.377,36.8124 129.71,37.9791 133.5,41C 142.35,50.5315 149.85,61.0315 156,72.5C 173.804,106.908 187.47,142.908 197,180.5C 197.625,202.291 191.958,222.291 180,240.5C 170.631,253.036 158.131,259.702 142.5,260.5C 128.807,258.302 118.973,250.969 113,238.5C 100.58,203.889 95.5801,168.222 98,131.5C 99.657,102.565 104.657,74.2314 113,46.5C 114.642,42.6997 117.142,39.6997 120.5,37.5 Z"/></g>
<g><path style="opacity:1" fill="#c38027" d="M 479.5,37.5 C 485.007,37.5197 489.174,39.8531 492,44.5C 509.041,97.5793 512.708,151.579 503,206.5C 500.506,219.816 496.173,232.483 490,244.5C 477.58,260.554 462.08,264.054 443.5,255C 428.694,245.26 418.861,231.76 414,214.5C 410.773,204.375 409.107,194.042 409,183.5C 420.15,136.351 438.483,92.3515 464,51.5C 468.116,45.5444 473.283,40.8778 479.5,37.5 Z"/></g>
<g><path style="opacity:1" fill="#c07e27" d="M 237.5,320.5 C 246.409,320.574 252.909,324.574 257,332.5C 259.371,337.939 260.037,343.606 259,349.5C 257.425,354.124 254.592,355.291 250.5,353C 249.167,351.667 247.833,350.333 246.5,349C 240.418,345.877 234.585,342.377 229,338.5C 226.755,335.119 226.088,331.452 227,327.5C 230.154,324.488 233.654,322.155 237.5,320.5 Z"/></g>
<g><path style="opacity:1" fill="#c07e27" d="M 361.5,320.5 C 368.332,320.387 374.165,322.721 379,327.5C 380.369,332.437 379.203,336.604 375.5,340C 370.659,342.921 365.659,345.588 360.5,348C 358.833,349.667 357.167,351.333 355.5,353C 348.637,354.138 345.637,351.138 346.5,344C 347.103,333.281 352.103,325.448 361.5,320.5 Z"/></g>
<g><path style="opacity:1" fill="#3d3938" d="M 216.5,347.5 C 244.247,348.683 254.747,362.683 248,389.5C 237.903,404.737 224.403,408.57 207.5,401C 192.607,389.651 189.774,375.818 199,359.5C 203.805,353.859 209.639,349.859 216.5,347.5 Z"/></g>
<g><path style="opacity:1" fill="#3c3837" d="M 377.5,347.5 C 401.878,347.375 413.378,359.375 412,383.5C 402.839,404.221 388.005,409.721 367.5,400C 355.157,389.64 352.323,377.14 359,362.5C 363.592,355.394 369.758,350.394 377.5,347.5 Z"/></g>
<g><path style="opacity:1" fill="#020202" d="M 217.5,356.5 C 235.011,355.843 243.177,364.176 242,381.5C 236.09,394.871 226.257,399.037 212.5,394C 202.762,386.885 200.262,377.718 205,366.5C 208.191,361.837 212.358,358.503 217.5,356.5 Z"/></g>
<g><path style="opacity:1" fill="#010101" d="M 380.5,356.5 C 399.355,357.52 406.522,367.187 402,385.5C 394.426,396.801 384.592,399.301 372.5,393C 364.645,385.994 362.479,377.494 366,367.5C 369.321,361.66 374.154,357.993 380.5,356.5 Z"/></g>
<g><path style="opacity:1" fill="#f3f3f3" d="M 225.5,362.5 C 232.655,362.153 235.821,365.486 235,372.5C 230.667,377.833 226.333,377.833 222,372.5C 220.756,368.191 221.923,364.858 225.5,362.5 Z"/></g>
<g><path style="opacity:1" fill="#f0f0f0" d="M 387.5,362.5 C 397.247,362.085 399.913,366.252 395.5,375C 389.162,378.224 385.162,376.391 383.5,369.5C 384.071,366.687 385.404,364.354 387.5,362.5 Z"/></g>
<g><path style="opacity:1" fill="#c17f27" d="M 250.5,578.5 C 238.899,571.399 229.399,562.066 222,550.5C 212.752,531.753 204.086,512.753 196,493.5C 184.205,475.691 173.205,457.357 163,438.5C 156.333,424.493 152.166,409.826 150.5,394.5C 155.441,389.111 160.275,389.444 165,395.5C 172.667,410.833 180.333,426.167 188,441.5C 191.455,447.289 195.955,452.122 201.5,456C 219.125,465.917 237.458,468.084 256.5,462.5C 247.443,485.165 240.943,508.498 237,532.5C 233.778,550.299 238.278,565.632 250.5,578.5 Z"/></g>
<g><path style="opacity:1" fill="#c17f27" d="M 456.5,393.5 C 453.412,415.262 446.246,435.595 435,454.5C 425.416,469.332 416.083,484.332 407,499.5C 401.447,514.826 395.113,529.826 388,544.5C 381.086,558.578 370.919,569.578 357.5,577.5C 362.263,572.316 365.763,566.316 368,559.5C 369.517,548.544 369.85,537.544 369,526.5C 363.822,504.797 357.322,483.464 349.5,462.5C 349.833,462.167 350.167,461.833 350.5,461.5C 354.559,463.766 358.893,465.266 363.5,466C 386.598,468.426 404.765,460.259 418,441.5C 426.333,426.167 434.667,410.833 443,395.5C 447.144,389.941 451.644,389.274 456.5,393.5 Z"/></g>
<g><path style="opacity:1" fill="#000000" d="M 290.5,506.5 C 306.222,504.31 320.888,507.143 334.5,515C 340.397,520.356 343.397,527.023 343.5,535C 341.604,561.893 327.104,575.393 300,575.5C 275.943,573.776 262.777,560.943 260.5,537C 260.009,526.648 264.009,518.648 272.5,513C 278.301,509.903 284.301,507.736 290.5,506.5 Z"/></g>
</svg>
