<?xml version="1.0" encoding="UTF-8"?>
<!DOCTYPE svg PUBLIC "-//W3C//DTD SVG 1.1//EN" "http://www.w3.org/Graphics/SVG/1.1/DTD/svg11.dtd">
<svg xmlns="http://www.w3.org/2000/svg" version="1.1" width="600px" height="600px" style="shape-rendering:geometricPrecision; text-rendering:geometricPrecision; image-rendering:optimizeQuality; fill-rule:evenodd; clip-rule:evenodd" xmlns:xlink="http://www.w3.org/1999/xlink">
<g><path style="opacity:0.97" fill="#060606" d="M 103.5,-0.5 C 116.833,-0.5 130.167,-0.5 143.5,-0.5C 151.55,4.70242 159.217,10.5358 166.5,17C 182.5,33.6667 198.5,50.3333 214.5,67C 217.297,68.9949 220.463,69.8283 224,69.5C 239.864,66.9098 255.697,64.0765 271.5,61C 291.167,59 310.833,59 330.5,61C 344.26,63.19 357.927,65.8566 371.5,69C 380.123,71.3036 387.289,69.137 393,62.5C 405.132,48.6994 417.632,35.1994 430.5,22C 439.443,13.8768 448.777,6.37678 458.5,-0.5C 472.167,-0.5 485.833,-0.5 499.5,-0.5C 511.705,11.2389 519.205,25.5722 522,42.5C 526.37,63.6082 528.203,84.9415 527.5,106.5C 527.018,132.552 525.852,158.552 524,184.5C 537.997,228.821 549.33,273.821 558,319.5C 564.302,350.937 563.969,382.27 557,413.5C 551.317,431.835 542.983,448.835 532,464.5C 519.667,481.5 507.333,498.5 495,515.5C 462.779,551.685 423.279,576.519 376.5,590C 364.366,593.198 352.366,596.365 340.5,599.5C 315.5,599.5 290.5,599.5 265.5,599.5C 192.509,587.98 134.009,552.647 90,493.5C 81.1628,479.156 71.8295,465.156 62,451.5C 43.081,419.009 36.081,384.009 41,346.5C 49.1032,290.086 61.9365,234.753 79.5,180.5C 74.1608,140.922 73.3275,101.255 77,61.5C 78.7058,41.9861 84.7058,23.9861 95,7.5C 97.7291,4.60066 100.562,1.93399 103.5,-0.5 Z"/></g>
<g><path style="opacity:1" fill="#cab593" d="M 336.5,186.5 C 335.167,174.167 333.833,161.833 332.5,149.5C 329.84,142.495 325.507,136.829 319.5,132.5C 316.519,129.512 312.852,127.846 308.5,127.5C 307.833,127.5 307.167,127.5 306.5,127.5C 304.19,126.836 301.69,126.503 299,126.5C 296.071,126.525 293.571,127.191 291.5,128.5C 289.103,130.195 286.437,131.528 283.5,132.5C 281.251,133.08 279.585,134.413 278.5,136.5C 278.5,137.167 278.167,137.5 277.5,137.5C 275.413,138.585 274.08,140.251 273.5,142.5C 271.881,146.069 270.548,149.736 269.5,153.5C 268.833,165.167 268.167,176.833 267.5,188.5C 251.06,182.187 234.394,181.854 217.5,187.5C 212.797,190.3 208.13,193.3 203.5,196.5C 197.977,204.856 190.977,211.689 182.5,217C 168.445,223.695 154.445,230.362 140.5,237C 136.797,238.192 133.13,239.359 129.5,240.5C 129.719,241.675 129.386,242.675 128.5,243.5C 124.696,246.546 120.362,248.212 115.5,248.5C 115.719,249.675 115.386,250.675 114.5,251.5C 106.355,255.634 99.3548,261.301 93.5,268.5C 92.675,269.386 91.675,269.719 90.5,269.5C 90.3719,274.237 88.7052,278.237 85.5,281.5C 82.2597,292.272 80.093,303.272 79,314.5C 78.6667,335.167 78.3333,355.833 78,376.5C 75.3631,388.357 73.3631,400.357 72,412.5C 71.8333,416.667 71.6667,420.833 71.5,425C 71.5271,433.97 72.3604,442.803 74,451.5C 54.4262,420.666 46.7596,386.999 51,350.5C 55.785,308.793 64.1183,267.793 76,227.5C 80.3333,213.167 84.6667,198.833 89,184.5C 87.2562,158.207 86.0895,131.873 85.5,105.5C 83.7133,78.4023 87.2133,52.069 96,26.5C 106.066,2.71524 121.899,-2.11809 143.5,12C 148.014,15.0912 152.347,18.4245 156.5,22C 174.228,39.0596 191.228,56.7263 207.5,75C 213.698,79.9534 220.698,81.6201 228.5,80C 252.708,73.2798 277.374,69.7798 302.5,69.5C 313.245,69.342 323.911,70.1754 334.5,72C 349.159,74.9437 363.826,77.7771 378.5,80.5C 384.363,80.1569 389.696,78.3236 394.5,75C 410.5,58.3333 426.5,41.6667 442.5,25C 447.543,20.2879 452.877,15.9546 458.5,12C 477.248,-0.683083 492.414,2.48358 504,21.5C 510.658,36.4639 514.658,52.1306 516,68.5C 516.986,80.8116 517.486,93.145 517.5,105.5C 516.721,131.238 515.221,156.904 513,182.5C 526.035,224.307 537.035,266.64 546,309.5C 552.056,340.333 553.056,371.333 549,402.5C 544.596,421.306 536.929,438.639 526,454.5C 526.513,450.294 527.846,446.294 530,442.5C 530.667,430.833 530.667,419.167 530,407.5C 526.187,397.073 523.687,386.24 522.5,375C 521.72,349.67 520.22,324.503 518,299.5C 516.48,293.588 514.98,287.588 513.5,281.5C 510.804,277.79 508.471,273.79 506.5,269.5C 500.251,262.746 493.585,256.58 486.5,251C 481.129,249.444 476.462,246.777 472.5,243C 455.151,234.971 437.818,226.971 420.5,219C 410.802,211.811 401.802,203.645 393.5,194.5C 375.785,181.698 356.785,179.031 336.5,186.5 Z"/></g>
<g><path style="opacity:1" fill="#12100e" d="M 128.5,24.5 C 133.377,23.8124 137.71,24.9791 141.5,28C 165.627,51.7577 177.46,80.591 177,114.5C 172,130.666 162.5,143.499 148.5,153C 140.492,158.049 131.826,159.716 122.5,158C 121.5,157 120.5,156 119.5,155C 115.5,154.667 111.5,154.333 107.5,154C 105.903,151.974 104.903,149.641 104.5,147C 105.719,139.46 107.719,132.126 110.5,125C 110.167,124.5 109.833,124 109.5,123.5C 104.994,125.384 100.327,125.884 95.5,125C 93.0052,121.015 92.8385,116.848 95,112.5C 97.4062,110.017 99.5729,107.35 101.5,104.5C 94.2801,103.447 91.7801,99.4472 94,92.5C 99.819,87.5917 105.819,82.925 112,78.5C 114.412,64.8895 116.745,51.2228 119,37.5C 120.488,31.8584 123.655,27.5251 128.5,24.5 Z"/></g>
<g><path style="opacity:1" fill="#0b0908" d="M 466.5,24.5 C 472.07,23.4161 476.57,25.0827 480,29.5C 482.466,34.2316 484.133,39.2316 485,44.5C 486.552,54.804 487.886,65.1373 489,75.5C 492.397,80.617 496.897,84.4504 502.5,87C 505.612,89.4391 507.945,92.4391 509.5,96C 509.066,98.3161 508.066,100.316 506.5,102C 503.981,103.156 501.648,103.656 499.5,103.5C 503.238,107.069 506.404,111.069 509,115.5C 510.467,122.043 507.967,125.376 501.5,125.5C 498.334,125.551 495.334,124.884 492.5,123.5C 492.167,123.833 491.833,124.167 491.5,124.5C 495.569,133.436 497.403,142.769 497,152.5C 496.5,153 496,153.5 495.5,154C 491.5,154.333 487.5,154.667 483.5,155C 480.474,157.945 476.807,159.112 472.5,158.5C 465.932,158.589 459.932,156.755 454.5,153C 437.306,142.096 427.639,126.596 425.5,106.5C 427.027,72.817 440.694,45.4837 466.5,24.5 Z"/></g>
<g><path style="opacity:1" fill="#dfdbd5" d="M 137.5,31.5 C 140.167,34.8333 143.167,37.8333 146.5,40.5C 158.97,56.7845 167.136,75.1179 171,95.5C 171.5,101.825 171.666,108.158 171.5,114.5C 169.853,118.424 168.186,122.424 166.5,126.5C 164.782,128.223 163.449,130.223 162.5,132.5C 160.413,133.585 159.08,135.251 158.5,137.5C 155.126,140.51 151.792,143.51 148.5,146.5C 144.665,148.25 140.999,150.25 137.5,152.5C 132.281,154.139 127.281,153.806 122.5,151.5C 122.586,150.504 122.252,149.671 121.5,149C 117.434,149.409 113.434,149.242 109.5,148.5C 109.993,146.194 110.326,143.861 110.5,141.5C 111.924,139.485 112.59,137.152 112.5,134.5C 115.653,129.01 116.986,123.01 116.5,116.5C 111.656,116.436 107.322,117.769 103.5,120.5C 101.833,120.5 100.167,120.5 98.5,120.5C 100.596,115.214 103.763,110.547 108,106.5C 109.094,104.922 109.928,103.255 110.5,101.5C 112.074,99.8984 112.741,97.8984 112.5,95.5C 109.505,95.2938 106.838,95.9605 104.5,97.5C 102.396,97.7989 100.396,97.4656 98.5,96.5C 100.673,93.932 103.006,91.5987 105.5,89.5C 108.37,88.5667 110.704,86.9 112.5,84.5C 117.026,82.7959 119.026,79.4625 118.5,74.5C 119.383,60.8706 121.883,47.5373 126,34.5C 127.02,33.1095 127.853,31.6095 128.5,30C 131.681,29.4029 134.681,29.9029 137.5,31.5 Z"/></g>
<g><path style="opacity:1" fill="#dfdbd5" d="M 483.5,69.5 C 482.059,77.6224 485.059,83.289 492.5,86.5C 495.627,89.8979 499.293,92.5646 503.5,94.5C 504.404,95.209 504.737,96.209 504.5,97.5C 502.167,97.5 499.833,97.5 497.5,97.5C 495.22,95.7773 492.553,95.1107 489.5,95.5C 489.166,98.491 490.166,100.824 492.5,102.5C 492.738,104.404 493.738,105.738 495.5,106.5C 496.757,109.427 498.757,111.761 501.5,113.5C 502.471,115.483 503.471,117.483 504.5,119.5C 503.584,119.982 502.584,120.315 501.5,120.5C 498.87,119.622 496.203,118.955 493.5,118.5C 491.22,116.777 488.553,116.111 485.5,116.5C 485.116,120.489 485.783,124.155 487.5,127.5C 487.263,128.791 487.596,129.791 488.5,130.5C 488.723,134.162 489.723,137.495 491.5,140.5C 491.232,142.099 491.566,143.432 492.5,144.5C 492.5,146.167 492.5,147.833 492.5,149.5C 489.833,149.5 487.167,149.5 484.5,149.5C 483.5,148.167 482.5,148.167 481.5,149.5C 479.139,152.179 476.139,153.512 472.5,153.5C 469.113,153.036 465.78,152.369 462.5,151.5C 459.434,149.11 456.1,147.11 452.5,145.5C 447.805,140.474 443.139,135.474 438.5,130.5C 438.573,128.973 437.906,127.973 436.5,127.5C 435.07,123.646 433.403,119.979 431.5,116.5C 430.806,111.195 430.472,105.862 430.5,100.5C 432.007,92.805 433.674,85.1384 435.5,77.5C 437.403,74.4701 438.737,71.1368 439.5,67.5C 440.338,67.1583 440.672,66.4916 440.5,65.5C 442.008,63.8185 443.008,61.8185 443.5,59.5C 445.083,57.3374 446.416,55.0041 447.5,52.5C 450.323,49.5249 452.656,46.1916 454.5,42.5C 457.167,40.5 459.5,38.1667 461.5,35.5C 461.5,35.1667 461.5,34.8333 461.5,34.5C 463.749,33.9202 465.415,32.5869 466.5,30.5C 471.357,29.0092 474.857,30.6759 477,35.5C 480.327,46.6242 482.493,57.9576 483.5,69.5 Z"/></g>
<g><path style="opacity:1" fill="#574e40" d="M 137.5,31.5 C 141.5,33.5 144.5,36.5 146.5,40.5C 143.167,37.8333 140.167,34.8333 137.5,31.5 Z"/></g>
<g><path style="opacity:1" fill="#766c5b" d="M 466.5,30.5 C 465.415,32.5869 463.749,33.9202 461.5,34.5C 462.585,32.4131 464.251,31.0798 466.5,30.5 Z"/></g>
<g><path style="opacity:1" fill="#716757" d="M 461.5,35.5 C 459.5,38.1667 457.167,40.5 454.5,42.5C 455.833,39.1667 458.167,36.8333 461.5,35.5 Z"/></g>
<g><path style="opacity:1" fill="#5f5647" d="M 454.5,42.5 C 452.656,46.1916 450.323,49.5249 447.5,52.5C 448.851,48.4584 451.185,45.1251 454.5,42.5 Z"/></g>
<g><path style="opacity:1" fill="#5a5142" d="M 443.5,59.5 C 443.008,61.8185 442.008,63.8185 440.5,65.5C 440.461,62.911 441.461,60.911 443.5,59.5 Z"/></g>
<g><path style="opacity:1" fill="#5c5344" d="M 439.5,67.5 C 438.737,71.1368 437.403,74.4701 435.5,77.5C 435.872,73.7029 437.206,70.3695 439.5,67.5 Z"/></g>
<g><path style="opacity:1" fill="#595042" d="M 483.5,69.5 C 484.171,72.7577 485.004,76.0911 486,79.5C 488.372,81.7032 490.539,84.0365 492.5,86.5C 485.059,83.289 482.059,77.6224 483.5,69.5 Z"/></g>
<g><path style="opacity:1" fill="#6c6252" d="M 118.5,74.5 C 119.026,79.4625 117.026,82.7959 112.5,84.5C 115.553,81.7168 117.553,78.3835 118.5,74.5 Z"/></g>
<g><path style="opacity:1" fill="#615849" d="M 492.5,86.5 C 496.732,88.4002 500.399,91.0669 503.5,94.5C 499.293,92.5646 495.627,89.8979 492.5,86.5 Z"/></g>
<g><path style="opacity:1" fill="#615849" d="M 105.5,89.5 C 103.006,91.5987 100.673,93.932 98.5,96.5C 100.396,97.4656 102.396,97.7989 104.5,97.5C 102.393,98.4682 100.059,98.8016 97.5,98.5C 98.0036,93.6589 100.67,90.6589 105.5,89.5 Z"/></g>
<g><path style="opacity:1" fill="#5b5243" d="M 497.5,97.5 C 495.105,96.6365 492.771,96.6365 490.5,97.5C 491.456,99.0754 492.123,100.742 492.5,102.5C 490.166,100.824 489.166,98.491 489.5,95.5C 492.553,95.1107 495.22,95.7773 497.5,97.5 Z"/></g>
<g><path style="opacity:1" fill="#5a5143" d="M 430.5,100.5 C 430.472,105.862 430.806,111.195 431.5,116.5C 430.065,113.45 429.398,110.117 429.5,106.5C 429.505,104.304 429.838,102.304 430.5,100.5 Z"/></g>
<g><path style="opacity:1" fill="#605748" d="M 495.5,106.5 C 498.243,108.239 500.243,110.573 501.5,113.5C 498.757,111.761 496.757,109.427 495.5,106.5 Z"/></g>
<g><path style="opacity:1" fill="#5f5547" d="M 110.5,101.5 C 109.928,103.255 109.094,104.922 108,106.5C 103.763,110.547 100.596,115.214 98.5,120.5C 100.167,120.5 101.833,120.5 103.5,120.5C 101.735,121.461 99.7354,121.795 97.5,121.5C 97.2978,119.011 97.7978,116.677 99,114.5C 102.699,109.973 106.532,105.639 110.5,101.5 Z"/></g>
<g><path style="opacity:1" fill="#5c5344" d="M 493.5,118.5 C 491.194,118.007 488.861,117.674 486.5,117.5C 486.616,120.86 486.949,124.193 487.5,127.5C 485.783,124.155 485.116,120.489 485.5,116.5C 488.553,116.111 491.22,116.777 493.5,118.5 Z"/></g>
<g><path style="opacity:1" fill="#5d5445" d="M 171.5,114.5 C 171.373,119.232 169.707,123.232 166.5,126.5C 168.186,122.424 169.853,118.424 171.5,114.5 Z"/></g>
<g><path style="opacity:1" fill="#5e5546" d="M 493.5,118.5 C 496.203,118.955 498.87,119.622 501.5,120.5C 502.584,120.315 503.584,119.982 504.5,119.5C 504.03,120.693 503.03,121.36 501.5,121.5C 498.445,121.263 495.779,120.263 493.5,118.5 Z"/></g>
<g><path style="opacity:1" fill="#5d5445" d="M 431.5,116.5 C 433.403,119.979 435.07,123.646 436.5,127.5C 433.512,124.519 431.846,120.852 431.5,116.5 Z"/></g>
<g><path style="opacity:1" fill="#82745e" d="M 306.5,127.5 C 301.453,127.337 296.453,127.671 291.5,128.5C 293.571,127.191 296.071,126.525 299,126.5C 301.69,126.503 304.19,126.836 306.5,127.5 Z"/></g>
<g><path style="opacity:1" fill="#6b604d" d="M 308.5,127.5 C 312.852,127.846 316.519,129.512 319.5,132.5C 315.646,131.07 311.979,129.403 308.5,127.5 Z"/></g>
<g><path style="opacity:1" fill="#6b645d" d="M 294.5,132.5 C 310.57,130.446 321.736,136.779 328,151.5C 328.667,169.5 328.667,187.5 328,205.5C 325.94,222.428 322.94,239.095 319,255.5C 317.504,279.196 320.837,302.196 329,324.5C 349.253,337.1 363.253,354.767 371,377.5C 378.011,386.667 387.344,390.667 399,389.5C 406.188,389.301 413.354,388.801 420.5,388C 426.867,386.599 433.2,385.099 439.5,383.5C 439.48,391.769 437.98,399.769 435,407.5C 427.811,423.394 420.811,439.394 414,455.5C 402.486,478.544 388.486,499.878 372,519.5C 360.595,529.564 348.095,538.064 334.5,545C 288.98,559.048 251.813,547.214 223,509.5C 198.945,477.393 179.945,442.393 166,404.5C 163.606,397.699 162.44,390.699 162.5,383.5C 178.784,388.603 195.451,390.77 212.5,390C 219.583,388.584 225.416,385.084 230,379.5C 235.674,361.309 245.507,345.809 259.5,333C 264.776,330.112 269.609,326.612 274,322.5C 279.964,305.146 283.464,287.313 284.5,269C 281.824,249.779 278.658,230.613 275,211.5C 273.624,192.851 273.291,174.184 274,155.5C 276.844,144.162 283.678,136.495 294.5,132.5 Z"/></g>
<g><path style="opacity:1" fill="#5a5143" d="M 438.5,130.5 C 443.139,135.474 447.805,140.474 452.5,145.5C 446.45,141.783 441.783,136.783 438.5,130.5 Z"/></g>
<g><path style="opacity:1" fill="#5f5547" d="M 488.5,130.5 C 490.277,133.505 491.277,136.838 491.5,140.5C 489.723,137.495 488.723,134.162 488.5,130.5 Z"/></g>
<g><path style="opacity:1" fill="#5e5546" d="M 162.5,132.5 C 161.92,134.749 160.587,136.415 158.5,137.5C 159.08,135.251 160.413,133.585 162.5,132.5 Z"/></g>
<g><path style="opacity:1" fill="#595041" d="M 283.5,132.5 C 282.415,134.587 280.749,135.92 278.5,136.5C 279.585,134.413 281.251,133.08 283.5,132.5 Z"/></g>
<g><path style="opacity:1" fill="#5d5445" d="M 112.5,134.5 C 112.59,137.152 111.924,139.485 110.5,141.5C 110.41,138.848 111.076,136.515 112.5,134.5 Z"/></g>
<g><path style="opacity:1" fill="#615747" d="M 277.5,137.5 C 276.92,139.749 275.587,141.415 273.5,142.5C 274.08,140.251 275.413,138.585 277.5,137.5 Z"/></g>
<g><path style="opacity:1" fill="#5f5546" d="M 492.5,144.5 C 493.461,146.265 493.795,148.265 493.5,150.5C 490.287,150.81 487.287,150.477 484.5,149.5C 487.167,149.5 489.833,149.5 492.5,149.5C 492.5,147.833 492.5,146.167 492.5,144.5 Z"/></g>
<g><path style="opacity:1" fill="#645b4b" d="M 109.5,148.5 C 113.434,149.242 117.434,149.409 121.5,149C 122.252,149.671 122.586,150.504 122.5,151.5C 119.827,149.45 116.827,149.117 113.5,150.5C 111.667,150.415 110.334,149.748 109.5,148.5 Z"/></g>
<g><path style="opacity:1" fill="#5c5344" d="M 148.5,146.5 C 145.6,149.786 141.933,151.786 137.5,152.5C 140.999,150.25 144.665,148.25 148.5,146.5 Z"/></g>
<g><path style="opacity:1" fill="#5b5243" d="M 481.5,149.5 C 481.084,151.752 479.751,153.252 477.5,154C 472.04,155.129 467.04,154.296 462.5,151.5C 465.78,152.369 469.113,153.036 472.5,153.5C 476.139,153.512 479.139,152.179 481.5,149.5 Z"/></g>
<g><path style="opacity:1" fill="#80735d" d="M 332.5,149.5 C 333.833,161.833 335.167,174.167 336.5,186.5C 335.791,187.404 334.791,187.737 333.5,187.5C 333.754,174.803 333.421,162.137 332.5,149.5 Z"/></g>
<g><path style="opacity:1" fill="#342f26" d="M 269.5,153.5 C 269.832,165.518 269.499,177.518 268.5,189.5C 267.893,189.376 267.56,189.043 267.5,188.5C 268.167,176.833 268.833,165.167 269.5,153.5 Z"/></g>
<g><path style="opacity:1" fill="#dedad5" d="M 353.5,187.5 C 369.495,187.401 383.328,192.734 395,203.5C 399.711,211.211 406.044,217.211 414,221.5C 434.881,231.69 455.714,242.024 476.5,252.5C 489.746,258.912 499.912,268.579 507,281.5C 510.612,292.224 512.945,303.224 514,314.5C 515.665,335.8 516.665,357.133 517,378.5C 519.822,390.79 522.489,403.123 525,415.5C 527.315,432.976 523.649,448.976 514,463.5C 482.305,520.475 435.138,558.641 372.5,578C 305.302,597.011 240.969,590.011 179.5,557C 140,533.5 108.5,502 85,462.5C 78.12,447.553 75.4533,431.886 77,415.5C 78.7445,403.446 80.7445,391.446 83,379.5C 83.1313,357.144 83.7979,334.811 85,312.5C 85.2847,298.685 88.9513,286.018 96,274.5C 105.213,263.972 116.046,255.472 128.5,249C 149.167,238.667 169.833,228.333 190.5,218C 197.833,212 204.5,205.333 210.5,198C 228.998,187.013 247.998,185.847 267.5,194.5C 267.334,199.844 267.501,205.177 268,210.5C 271.623,230.777 274.789,251.11 277.5,271.5C 276.686,287.731 273.519,303.397 268,318.5C 262.5,322.667 257,326.833 251.5,331C 247,336.167 242.5,341.333 238,346.5C 232.081,357.172 226.581,368.006 221.5,379C 215.802,382.906 209.469,384.406 202.5,383.5C 191.274,383.111 180.274,381.278 169.5,378C 160.873,374.959 156.207,377.793 155.5,386.5C 156.299,393.997 157.799,401.331 160,408.5C 174.87,447.907 195.203,484.241 221,517.5C 251.271,554.287 289.438,565.787 335.5,552C 351.663,544.172 366.163,534.005 379,521.5C 394.907,502.035 408.574,481.035 420,458.5C 428.271,439.624 436.271,420.624 444,401.5C 446.109,394.967 446.776,388.3 446,381.5C 445.535,380.069 444.701,378.903 443.5,378C 439.833,377.333 436.167,377.333 432.5,378C 415.956,382.915 399.29,383.582 382.5,380C 381,378.5 379.5,377 378,375.5C 369.247,352.092 354.58,333.425 334,319.5C 332.005,311.512 330.005,303.512 328,295.5C 325.67,282.591 325.003,269.591 326,256.5C 330.751,235.74 333.751,214.74 335,193.5C 341.071,190.929 347.238,188.929 353.5,187.5 Z"/></g>
<g><path style="opacity:1" fill="#4e4a4a" d="M 233.5,231.5 C 245.157,230.078 253.99,234.412 260,244.5C 265.339,252.23 266.672,260.564 264,269.5C 261.988,274.903 258.488,276.403 253.5,274C 246.687,267.756 239.02,262.756 230.5,259C 216.295,248.074 217.295,238.908 233.5,231.5 Z"/></g>
<g><path style="opacity:1" fill="#4d4949" d="M 357.5,231.5 C 367.346,230.345 375.18,233.679 381,241.5C 381.93,248.478 379.43,253.978 373.5,258C 367.992,261.255 362.325,264.255 356.5,267C 352.895,270.446 348.895,273.279 344.5,275.5C 341.132,274.298 338.966,271.965 338,268.5C 336.136,251.553 342.636,239.22 357.5,231.5 Z"/></g>
<g><path style="opacity:1" fill="#020101" d="M 217.5,277.5 C 236.372,275.684 247.872,284.018 252,302.5C 253.025,306.46 253.859,310.46 254.5,314.5C 253.631,319.035 250.797,321.035 246,320.5C 227.646,319.277 211.646,312.61 198,300.5C 190.93,292.474 192.096,286.307 201.5,282C 206.874,280.16 212.207,278.66 217.5,277.5 Z"/></g>
<g><path style="opacity:1" fill="#020202" d="M 371.5,277.5 C 381.472,277.051 391.139,278.551 400.5,282C 403.759,283.211 406.592,285.044 409,287.5C 409.184,293.305 407.017,298.139 402.5,302C 387.843,314.553 370.843,320.553 351.5,320C 348.932,318.873 347.598,316.873 347.5,314C 349.089,304.565 352.255,295.732 357,287.5C 361.012,282.762 365.845,279.429 371.5,277.5 Z"/></g>
<g><path style="opacity:1" fill="#ececec" d="M 233.5,289.5 C 239.168,288.671 241.668,291.005 241,296.5C 236.447,300.903 233.28,300.07 231.5,294C 231.519,292.167 232.185,290.667 233.5,289.5 Z"/></g>
<g><path style="opacity:1" fill="#eeeeee" d="M 363.5,289.5 C 370.628,289.706 372.294,292.873 368.5,299C 362.498,299.993 360.332,297.493 362,291.5C 362.717,290.956 363.217,290.289 363.5,289.5 Z"/></g>
<g><path style="opacity:1" fill="#020303" d="M 288.5,362.5 C 300.286,361.937 311.953,362.771 323.5,365C 342.504,371.497 349.671,384.664 345,404.5C 335.524,428.163 318.024,438.33 292.5,435C 263.042,427.542 251.876,409.042 259,379.5C 261.121,375.712 263.954,372.545 267.5,370C 274.302,366.569 281.302,364.069 288.5,362.5 Z"/></g>
<g><path style="opacity:1" fill="#030404" d="M 263.5,450.5 C 264.357,463.596 267.857,475.929 274,487.5C 280.608,496.636 289.608,500.97 301,500.5C 314.671,501.3 324.504,495.633 330.5,483.5C 336.11,487.772 341.443,492.438 346.5,497.5C 343.199,502.611 338.533,506.111 332.5,508C 308.253,516.301 284.586,514.968 261.5,504C 255.742,500.246 250.575,495.746 246,490.5C 234.615,476.116 223.615,461.45 213,446.5C 204.016,430.701 198.849,413.868 197.5,396C 199.367,395.289 200.867,395.789 202,397.5C 205.747,408.407 210.08,419.074 215,429.5C 225.782,448.296 241.948,455.296 263.5,450.5 Z"/></g>
<g><path style="opacity:1" fill="#100b07" d="M 346.5,497.5 C 341.443,492.438 336.11,487.772 330.5,483.5C 330.5,483.167 330.5,482.833 330.5,482.5C 334.856,473.42 337.523,463.754 338.5,453.5C 339.268,452.737 339.768,451.737 340,450.5C 360.128,455.686 375.795,449.686 387,432.5C 392.846,420.961 397.513,408.961 401,396.5C 402.356,395.62 403.856,395.286 405.5,395.5C 402.801,412.293 397.635,428.293 390,443.5C 380.052,457.781 369.719,471.781 359,485.5C 355.478,490.251 351.312,494.251 346.5,497.5 Z"/></g>
<g><path style="opacity:1" fill="#b3859b" d="M 338.5,449.5 C 327.32,447.455 316.32,444.622 305.5,441C 300.682,440.221 296.015,440.721 291.5,442.5C 282.372,445.654 273.038,447.987 263.5,449.5C 275.763,445.641 288.263,442.308 301,439.5C 314.284,442.435 326.784,445.768 338.5,449.5 Z"/></g>
<g><path style="opacity:1" fill="#d794b9" d="M 338.5,449.5 C 338.5,450.833 338.5,452.167 338.5,453.5C 337.523,463.754 334.856,473.42 330.5,482.5C 317.5,469.167 304.5,455.833 291.5,442.5C 296.015,440.721 300.682,440.221 305.5,441C 316.32,444.622 327.32,447.455 338.5,449.5 Z"/></g>
<g><path style="opacity:1" fill="#e19ac2" d="M 291.5,442.5 C 304.5,455.833 317.5,469.167 330.5,482.5C 330.5,482.833 330.5,483.167 330.5,483.5C 324.504,495.633 314.671,501.3 301,500.5C 289.608,500.97 280.608,496.636 274,487.5C 267.857,475.929 264.357,463.596 263.5,450.5C 263.5,450.167 263.5,449.833 263.5,449.5C 273.038,447.987 282.372,445.654 291.5,442.5 Z"/></g>
</svg>
