<?xml version="1.0" encoding="UTF-8"?>
<!DOCTYPE svg PUBLIC "-//W3C//DTD SVG 1.1//EN" "http://www.w3.org/Graphics/SVG/1.1/DTD/svg11.dtd">
<svg xmlns="http://www.w3.org/2000/svg" version="1.1" width="600px" height="600px" style="shape-rendering:geometricPrecision; text-rendering:geometricPrecision; image-rendering:optimizeQuality; fill-rule:evenodd; clip-rule:evenodd" xmlns:xlink="http://www.w3.org/1999/xlink">
<g><path style="opacity:0.952" fill="#020100" d="M 599.5,276.5 C 599.5,289.167 599.5,301.833 599.5,314.5C 596.518,314.963 593.518,315.296 590.5,315.5C 593.759,324.541 595.759,333.874 596.5,343.5C 595.84,352.636 594.34,361.636 592,370.5C 587.547,385.312 583.88,400.312 581,415.5C 578.537,419.066 575.203,421.399 571,422.5C 570.667,426.167 570.333,429.833 570,433.5C 568.777,438.562 565.61,441.229 560.5,441.5C 562.462,454.142 565.129,466.642 568.5,479C 568.064,490.109 562.398,495.109 551.5,494C 548.302,493.152 545.469,491.652 543,489.5C 538.745,496.54 532.578,499.04 524.5,497C 498.307,489.84 477.807,475.006 463,452.5C 459.014,444.877 456.014,436.877 454,428.5C 450.087,437.235 446.753,446.235 444,455.5C 440.715,471.592 437.048,487.592 433,503.5C 420.679,536.223 398.179,546.223 365.5,533.5C 357.803,554.696 343.137,568.529 321.5,575C 297.45,581.656 275.117,577.989 254.5,564C 249.333,560.167 244.833,555.667 241,550.5C 238.242,544.68 235.409,539.014 232.5,533.5C 200.375,545.192 178.208,535.192 166,503.5C 161.952,487.592 158.285,471.592 155,455.5C 152.061,446.015 148.727,436.681 145,427.5C 138.241,456.259 121.741,477.426 95.5,491C 86.8176,495.061 77.8176,498.228 68.5,500.5C 62.5404,499.609 58.0404,496.609 55,491.5C 46.9078,498.479 39.2412,498.146 32,490.5C 30.7009,487.638 29.8676,484.638 29.5,481.5C 32.8055,468.948 35.4722,456.281 37.5,443.5C 33.862,443.262 31.0287,441.596 29,438.5C 27.9393,433.896 27.2727,429.229 27,424.5C 22.3145,423.494 18.9811,420.828 17,416.5C 11.5299,394.952 6.52993,373.286 2,351.5C 1.29729,339.639 3.46396,328.306 8.5,317.5C 5.7331,317.639 2.7331,317.306 -0.5,316.5C -0.5,303.167 -0.5,289.833 -0.5,276.5C 5.29337,264.926 12.1267,253.926 20,243.5C 25.0335,231.098 31.3668,219.431 39,208.5C 51.8768,191.283 65.8768,174.95 81,159.5C 94.8083,132.063 113.308,108.229 136.5,88C 144.382,81.5605 153.382,77.5605 163.5,76C 178.786,65.337 195.453,57.337 213.5,52C 267.99,37.4576 322.657,36.7909 377.5,50C 397.027,54.7675 415.027,62.7675 431.5,74C 442.856,74.6801 452.856,78.6801 461.5,86C 485.263,106.377 504.096,130.544 518,158.5C 536.225,177.048 552.558,197.048 567,218.5C 573.368,233.51 581.368,247.51 591,260.5C 594.132,265.768 596.965,271.101 599.5,276.5 Z"/></g>
<g><path style="opacity:1" fill="#c29143" d="M 432.5,86.5 C 432.298,88.9892 432.798,91.3225 434,93.5C 450.272,113.048 460.939,135.381 466,160.5C 467.328,168.458 468.328,176.458 469,184.5C 470.177,219.232 469.177,253.898 466,288.5C 461.455,321.366 458.955,354.366 458.5,387.5C 441.784,423.153 429.951,460.486 423,499.5C 414.22,525.554 396.72,534.054 370.5,525C 366.355,523.786 362.355,522.286 358.5,520.5C 359.393,512.479 361.56,504.812 365,497.5C 375.154,487.525 384.321,476.859 392.5,465.5C 397.399,458.641 400.232,450.975 401,442.5C 398.154,449.521 395.321,456.521 392.5,463.5C 387.602,469.894 381.602,475.061 374.5,479C 366.668,481.217 358.668,482.05 350.5,481.5C 337.932,477.143 325.099,472.81 312,468.5C 310.614,467.271 309.114,466.271 307.5,465.5C 301.959,459.47 301.126,452.803 305,445.5C 313.812,442.011 322.312,437.844 330.5,433C 342.07,424.808 348.737,413.641 350.5,399.5C 350.641,389.281 346.641,381.115 338.5,375C 325.954,368.564 312.621,365.397 298.5,365.5C 288.346,366.019 278.346,367.519 268.5,370C 250.152,377.681 243.652,391.181 249,410.5C 253.299,421.801 260.799,430.301 271.5,436C 278.601,439.365 285.767,442.532 293,445.5C 297.393,453.851 295.893,460.851 288.5,466.5C 274.628,471.233 260.961,475.9 247.5,480.5C 230.42,483.866 216.92,478.533 207,464.5C 202.587,457.673 199.254,450.34 197,442.5C 198.189,453.556 202.189,463.556 209,472.5C 216.962,482.131 225.296,491.464 234,500.5C 236.673,507.018 238.84,513.685 240.5,520.5C 232.903,522.817 225.236,524.983 217.5,527C 196.139,529.974 182.305,521.141 176,500.5C 171.704,484.649 168.037,468.649 165,452.5C 157.568,429.657 149.068,407.324 139.5,385.5C 139.667,374.495 139.5,363.495 139,352.5C 131.107,298.437 127.774,244.104 129,189.5C 129.908,162.779 136.908,137.779 150,114.5C 153.846,106.985 158.846,100.318 165,94.5C 166.664,92.2144 166.83,89.8811 165.5,87.5C 187.475,71.1055 212.142,60.6055 239.5,56C 271.364,51.2165 303.364,50.2165 335.5,53C 370.909,55.7259 403.242,66.8925 432.5,86.5 Z"/></g>
<g><path style="opacity:1" fill="#b88025" d="M 458.5,387.5 C 458.955,354.366 461.455,321.366 466,288.5C 469.177,253.898 470.177,219.232 469,184.5C 468.328,176.458 467.328,168.458 466,160.5C 460.939,135.381 450.272,113.048 434,93.5C 432.798,91.3225 432.298,88.9892 432.5,86.5C 433.134,85.0532 434.301,84.3866 436,84.5C 444.108,86.6365 451.275,90.4699 457.5,96C 471.196,108.019 483.029,121.519 493,136.5C 498.497,146.831 504.497,156.831 511,166.5C 528.816,183.843 544.483,202.843 558,223.5C 561.14,230.586 564.474,237.586 568,244.5C 575.501,255.498 582.501,266.832 589,278.5C 592.919,286.752 595.086,295.419 595.5,304.5C 590.023,303.436 584.689,301.769 579.5,299.5C 575.853,300.486 574.686,302.819 576,306.5C 579.007,315.176 582.007,323.843 585,332.5C 585.776,341.874 585.442,351.207 584,360.5C 579.346,377.447 574.846,394.447 570.5,411.5C 567.392,408.133 564.392,404.633 561.5,401C 560.551,400.383 559.718,400.549 559,401.5C 558.326,410.226 558.826,418.893 560.5,427.5C 560.167,428.833 559.833,430.167 559.5,431.5C 556.723,428.128 554.057,424.628 551.5,421C 550.551,420.383 549.718,420.549 549,421.5C 548.954,438.895 551.621,455.895 557,472.5C 557.667,476.167 557.667,479.833 557,483.5C 555.951,484.517 554.784,484.684 553.5,484C 549.217,481.385 545.217,478.385 541.5,475C 539.091,473.293 536.425,472.46 533.5,472.5C 533.666,476.846 533.499,481.179 533,485.5C 531.192,487.396 529.025,487.896 526.5,487C 487.665,475.51 465.498,449.677 460,409.5C 458.884,402.208 458.384,394.874 458.5,387.5 Z"/></g>
<g><path style="opacity:1" fill="#b88024" d="M 165.5,87.5 C 166.83,89.8811 166.664,92.2144 165,94.5C 158.846,100.318 153.846,106.985 150,114.5C 136.908,137.779 129.908,162.779 129,189.5C 127.774,244.104 131.107,298.437 139,352.5C 139.5,363.495 139.667,374.495 139.5,385.5C 140.042,407.919 135.542,429.253 126,449.5C 111.997,471.512 92.1639,484.678 66.5,489C 66,488.5 65.5,488 65,487.5C 64.501,483.179 64.3343,478.846 64.5,474.5C 62.3453,474.372 60.3453,474.872 58.5,476C 53.8815,478.95 49.5482,482.284 45.5,486C 43.8876,486.72 42.3876,486.554 41,485.5C 40.3333,482.167 40.3333,478.833 41,475.5C 46.5216,458.567 49.1882,441.234 49,423.5C 48.2825,422.549 47.4491,422.383 46.5,423C 44.375,426.082 42.375,429.249 40.5,432.5C 39.675,433.386 38.675,433.719 37.5,433.5C 38.5988,423.518 39.0988,413.518 39,403.5C 38.2825,402.549 37.4491,402.383 36.5,403C 33.8333,406.333 31.1667,409.667 28.5,413C 27.5165,413.591 26.8499,413.257 26.5,412C 21.7526,392.937 17.2526,373.77 13,354.5C 12.3333,348.167 12.3333,341.833 13,335.5C 15.3811,327.737 18.0478,320.07 21,312.5C 22.1244,309.558 22.4577,306.558 22,303.5C 19.5991,302.398 17.0991,302.231 14.5,303C 11.4247,304.62 8.25802,306.12 5,307.5C 4.22797,307.355 3.5613,307.022 3,306.5C 2.57111,299.206 3.90445,292.206 7,285.5C 14.6452,270.206 23.3119,255.54 33,241.5C 35.6122,233.609 39.2789,226.276 44,219.5C 57.1648,200.993 71.8315,183.66 88,167.5C 101.904,139.544 120.737,115.377 144.5,95C 149.849,90.8259 155.849,87.9926 162.5,86.5C 163.584,86.685 164.584,87.0183 165.5,87.5 Z"/></g>
<g><path style="opacity:1" fill="#010100" d="M 213.5,209.5 C 234.221,211.712 247.554,222.879 253.5,243C 253.265,243.873 252.931,244.707 252.5,245.5C 244.393,248.387 236.393,251.553 228.5,255C 216.118,258.176 204.451,256.509 193.5,250C 188.672,246.419 183.672,243.085 178.5,240C 177.409,237.936 177.242,235.769 178,233.5C 186.838,220.848 198.671,212.848 213.5,209.5 Z"/></g>
<g><path style="opacity:1" fill="#010100" d="M 377.5,209.5 C 394.872,210.77 408.705,218.436 419,232.5C 420.301,234.365 420.635,236.365 420,238.5C 410.893,246.804 400.393,252.638 388.5,256C 383.5,256.667 378.5,256.667 373.5,256C 363.962,253.23 354.628,249.897 345.5,246C 344.272,242.826 344.439,239.659 346,236.5C 352.531,222.681 363.031,213.681 377.5,209.5 Z"/></g>
<g><path style="opacity:1" fill="#f4f4f4" d="M 218.5,220.5 C 228.247,220.085 230.913,224.252 226.5,233C 218.398,235.895 214.565,233.062 215,224.5C 215.69,222.65 216.856,221.316 218.5,220.5 Z"/></g>
<g><path style="opacity:1" fill="#f1f1f1" d="M 385.5,220.5 C 392.996,219.174 396.496,222.174 396,229.5C 392.468,235.29 388.135,235.957 383,231.5C 380.827,227.179 381.66,223.513 385.5,220.5 Z"/></g>
<g><path style="opacity:1" fill="#010000" d="M 307.5,465.5 C 303.047,465.562 298.381,465.729 293.5,466C 292.128,466.402 290.795,466.902 289.5,467.5C 288.893,467.376 288.56,467.043 288.5,466.5C 295.893,460.851 297.393,453.851 293,445.5C 285.767,442.532 278.601,439.365 271.5,436C 260.799,430.301 253.299,421.801 249,410.5C 243.652,391.181 250.152,377.681 268.5,370C 278.346,367.519 288.346,366.019 298.5,365.5C 312.621,365.397 325.954,368.564 338.5,375C 346.641,381.115 350.641,389.281 350.5,399.5C 348.737,413.641 342.07,424.808 330.5,433C 322.312,437.844 313.812,442.011 305,445.5C 301.126,452.803 301.959,459.47 307.5,465.5 Z"/></g>
<g><path style="opacity:1" fill="#241915" d="M 247.5,480.5 C 247.368,497.421 249.868,514.088 255,530.5C 263.033,550.186 277.7,560.186 299,560.5C 324.723,559.118 340.39,545.785 346,520.5C 348.586,507.475 350.086,494.475 350.5,481.5C 358.668,482.05 366.668,481.217 374.5,479C 381.602,475.061 387.602,469.894 392.5,463.5C 392.5,464.167 392.5,464.833 392.5,465.5C 384.321,476.859 375.154,487.525 365,497.5C 361.56,504.812 359.393,512.479 358.5,520.5C 350.924,551.144 331.257,566.811 299.5,567.5C 267.653,566.975 247.986,551.309 240.5,520.5C 238.84,513.685 236.673,507.018 234,500.5C 225.296,491.464 216.962,482.131 209,472.5C 202.189,463.556 198.189,453.556 197,442.5C 199.254,450.34 202.587,457.673 207,464.5C 216.92,478.533 230.42,483.866 247.5,480.5 Z"/></g>
<g><path style="opacity:1" fill="#674b29" d="M 392.5,465.5 C 392.5,464.833 392.5,464.167 392.5,463.5C 395.321,456.521 398.154,449.521 401,442.5C 400.232,450.975 397.399,458.641 392.5,465.5 Z"/></g>
<g><path style="opacity:1" fill="#f19c9f" d="M 307.5,465.5 C 309.114,466.271 310.614,467.271 312,468.5C 325.099,472.81 337.932,477.143 350.5,481.5C 350.086,494.475 348.586,507.475 346,520.5C 340.39,545.785 324.723,559.118 299,560.5C 277.7,560.186 263.033,550.186 255,530.5C 249.868,514.088 247.368,497.421 247.5,480.5C 260.961,475.9 274.628,471.233 288.5,466.5C 288.56,467.043 288.893,467.376 289.5,467.5C 290.795,466.902 292.128,466.402 293.5,466C 298.381,465.729 303.047,465.562 307.5,465.5 Z"/></g>
</svg>
