<?xml version="1.0" encoding="UTF-8"?>
<!DOCTYPE svg PUBLIC "-//W3C//DTD SVG 1.1//EN" "http://www.w3.org/Graphics/SVG/1.1/DTD/svg11.dtd">
<svg xmlns="http://www.w3.org/2000/svg" version="1.1" width="600px" height="600px" style="shape-rendering:geometricPrecision; text-rendering:geometricPrecision; image-rendering:optimizeQuality; fill-rule:evenodd; clip-rule:evenodd" xmlns:xlink="http://www.w3.org/1999/xlink">
<g><path style="opacity:0.968" fill="#040202" d="M 599.5,303.5 C 599.5,323.833 599.5,344.167 599.5,364.5C 573.531,416.213 538.531,461.046 494.5,499C 458.077,530.021 427.243,525.187 402,484.5C 402.429,503.796 397.429,521.462 387,537.5C 364.825,560.336 339.658,564.17 311.5,549C 306.692,545.692 302.025,542.192 297.5,538.5C 289.666,543.585 281.666,548.418 273.5,553C 244.5,563.11 221.333,555.61 204,530.5C 197.493,517.639 194.16,503.972 194,489.5C 172.048,522.785 144.881,527.951 112.5,505C 64.1616,466.182 26.4949,419.016 -0.5,363.5C -0.5,343.833 -0.5,324.167 -0.5,304.5C 30.57,231.998 70.07,164.665 118,102.5C 138.716,79.8884 164.216,65.7217 194.5,60C 227.716,46.8802 262.216,40.7135 298,41.5C 334.978,40.5787 370.478,47.2453 404.5,61.5C 405.446,61.0133 406.446,60.6799 407.5,60.5C 445.032,69.2018 474.532,89.5351 496,121.5C 526.839,164.385 554.506,209.385 579,256.5C 586.538,271.978 593.371,287.645 599.5,303.5 Z"/></g>
<g><path style="opacity:1" fill="#301f14" d="M 286.5,52.5 C 294.167,51.1667 301.833,51.1667 309.5,52.5C 306.615,52.1936 303.948,52.5269 301.5,53.5C 298.833,53.5 296.167,53.5 293.5,53.5C 291.393,52.5318 289.059,52.1984 286.5,52.5 Z"/></g>
<g><path style="opacity:1" fill="#9f663f" d="M 286.5,52.5 C 289.059,52.1984 291.393,52.5318 293.5,53.5C 282.577,54.1838 273.41,58.5172 266,66.5C 264.175,69.3111 262.842,72.3111 262,75.5C 261.333,85.1667 261.333,94.8333 262,104.5C 264.997,143.124 267.33,181.79 269,220.5C 272.778,249.005 269.111,276.339 258,302.5C 243.22,331.065 228.22,359.398 213,387.5C 207.35,400.624 203.183,414.291 200.5,428.5C 183.713,376.97 167.213,325.304 151,273.5C 141.992,241.768 136.826,209.434 135.5,176.5C 134.572,142.093 145.905,112.593 169.5,88C 177.129,81.8561 185.129,76.3561 193.5,71.5C 223.049,58.406 254.049,52.0727 286.5,52.5 Z"/></g>
<g><path style="opacity:1" fill="#9f663f" d="M 301.5,53.5 C 303.948,52.5269 306.615,52.1936 309.5,52.5C 342.421,52.1496 373.754,58.8163 403.5,72.5C 431.975,87.8501 449.808,111.517 457,143.5C 461.474,168.48 461.474,193.48 457,218.5C 454.356,235.72 450.689,252.72 446,269.5C 434.018,310.448 421.018,351.115 407,391.5C 404.618,402.982 401.618,414.316 398,425.5C 397.647,428.152 396.48,430.152 394.5,431.5C 391.689,415.907 387.189,400.907 381,386.5C 367.319,361.135 353.652,335.802 340,310.5C 335.064,298.782 330.731,286.782 327,274.5C 325.086,265.27 324.253,255.936 324.5,246.5C 325.944,201.11 328.444,155.777 332,110.5C 332.667,98.1667 332.667,85.8333 332,73.5C 325.759,60.9563 315.593,54.2896 301.5,53.5 Z"/></g>
<g><path style="opacity:1" fill="#f7f4f3" d="M 321.5,120.5 C 320.012,129.626 319.345,138.959 319.5,148.5C 319.5,149.5 319.5,150.5 319.5,151.5C 318.245,158.3 317.578,165.3 317.5,172.5C 315.95,195.472 314.95,218.472 314.5,241.5C 313.553,265.263 318.053,287.929 328,309.5C 341.731,335.96 355.731,362.294 370,388.5C 388.275,429.986 393.608,472.986 386,517.5C 373.629,543.932 353.462,552.766 325.5,544C 322.833,542.667 320.167,541.333 317.5,540C 310.669,535.326 304.002,530.493 297.5,525.5C 289.873,530.653 282.206,535.82 274.5,541C 251.318,552.411 231.484,548.244 215,528.5C 206.687,513.646 203.187,497.646 204.5,480.5C 205.039,447.352 212.039,415.685 225.5,385.5C 228.341,381.151 230.674,376.484 232.5,371.5C 241.338,356.494 249.671,341.161 257.5,325.5C 260.874,321.419 263.207,316.753 264.5,311.5C 272.402,297.256 277.235,281.922 279,265.5C 279.667,246.833 279.667,228.167 279,209.5C 276.711,172.164 274.378,134.831 272,97.5C 267.963,72.8663 278.463,61.6996 303.5,64C 311.876,65.0971 318.043,69.2637 322,76.5C 322.452,91.172 322.286,105.839 321.5,120.5 Z"/></g>
<g><path style="opacity:1" fill="#362111" d="M 193.5,71.5 C 185.129,76.3561 177.129,81.8561 169.5,88C 145.905,112.593 134.572,142.093 135.5,176.5C 136.826,209.434 141.992,241.768 151,273.5C 167.213,325.304 183.713,376.97 200.5,428.5C 197.24,441.583 195.407,454.916 195,468.5C 189.38,479.454 182.213,489.288 173.5,498C 162.899,507.975 150.566,510.975 136.5,507C 123.453,500.146 111.453,491.813 100.5,482C 61.2229,445.92 30.3896,403.753 8,355.5C 3.6744,342.632 3.34107,329.632 7,316.5C 14.7345,293.361 24.4011,271.028 36,249.5C 62.5089,200.455 92.5089,153.789 126,109.5C 144.352,89.4086 166.852,76.7419 193.5,71.5 Z"/></g>
<g><path style="opacity:1" fill="#352111" d="M 394.5,431.5 C 396.48,430.152 397.647,428.152 398,425.5C 401.618,414.316 404.618,402.982 407,391.5C 421.018,351.115 434.018,310.448 446,269.5C 450.689,252.72 454.356,235.72 457,218.5C 461.474,193.48 461.474,168.48 457,143.5C 449.808,111.517 431.975,87.8501 403.5,72.5C 411.803,71.7354 419.803,73.2354 427.5,77C 445.723,85.1964 461.557,96.6964 475,111.5C 520.029,169.623 557.362,232.623 587,300.5C 591.426,311.8 594.259,323.467 595.5,335.5C 595.11,342.728 593.61,349.728 591,356.5C 564.926,412.156 527.759,458.989 479.5,497C 455.998,514.662 435.165,511.828 417,488.5C 410.205,479.024 404.205,469.024 399,458.5C 398.082,449.399 396.582,440.399 394.5,431.5 Z"/></g>
<g><path style="opacity:1" fill="#745d50" d="M 321.5,120.5 C 321.399,130.024 320.733,139.357 319.5,148.5C 319.345,138.959 320.012,129.626 321.5,120.5 Z"/></g>
<g><path style="opacity:1" fill="#7e675b" d="M 319.5,151.5 C 319.65,158.721 318.983,165.721 317.5,172.5C 317.578,165.3 318.245,158.3 319.5,151.5 Z"/></g>
<g><path style="opacity:1" fill="#6e3e10" d="M 206.5,220.5 C 228.153,218.232 242.653,227.232 250,247.5C 251.665,277.502 237.498,292.002 207.5,291C 186.692,284.501 177.526,270.334 180,248.5C 183.912,234.423 192.745,225.09 206.5,220.5 Z"/></g>
<g><path style="opacity:1" fill="#6e3f10" d="M 372.5,220.5 C 394.747,218.187 409.247,227.521 416,248.5C 418.486,270.326 409.319,284.492 388.5,291C 366.7,293.52 352.533,284.354 346,263.5C 343.654,242.179 352.488,227.845 372.5,220.5 Z"/></g>
<g><path style="opacity:1" fill="#241916" d="M 209.5,233.5 C 228.673,233.172 237.84,242.506 237,261.5C 229.469,278.001 217.636,282.167 201.5,274C 189.547,261.915 189.547,249.915 201.5,238C 204.099,236.205 206.766,234.705 209.5,233.5 Z"/></g>
<g><path style="opacity:1" fill="#251916" d="M 375.5,233.5 C 397.388,233.861 405.888,244.528 401,265.5C 393.699,277.156 383.532,280.656 370.5,276C 358.48,267.602 355.647,256.769 362,243.5C 365.579,238.731 370.079,235.397 375.5,233.5 Z"/></g>
<g><path style="opacity:1" fill="#efefef" d="M 219.5,244.5 C 226.005,243.518 229.172,246.185 229,252.5C 225.421,258.753 221.421,259.086 217,253.5C 215.927,249.9 216.76,246.9 219.5,244.5 Z"/></g>
<g><path style="opacity:1" fill="#f3f3f3" d="M 386.5,244.5 C 395.306,244.464 397.639,248.297 393.5,256C 385.735,258.575 382.568,255.742 384,247.5C 385.045,246.627 385.878,245.627 386.5,244.5 Z"/></g>
<g><path style="opacity:1" fill="#543c2d" d="M 264.5,311.5 C 263.207,316.753 260.874,321.419 257.5,325.5C 259.326,320.516 261.659,315.849 264.5,311.5 Z"/></g>
<g><path style="opacity:1" fill="#563e2f" d="M 232.5,371.5 C 230.674,376.484 228.341,381.151 225.5,385.5C 226.793,380.247 229.126,375.581 232.5,371.5 Z"/></g>
<g><path style="opacity:1" fill="#060606" d="M 283.5,429.5 C 300.063,427.964 316.063,430.13 331.5,436C 341.968,442.723 345.801,452.223 343,464.5C 338.628,477.874 329.794,487.04 316.5,492C 294.857,499.715 276.024,495.215 260,478.5C 251.328,467.08 250.328,455.08 257,442.5C 259.205,439.96 261.705,437.793 264.5,436C 270.653,433.052 276.986,430.886 283.5,429.5 Z"/></g>
<g><path style="opacity:1" fill="#362e2a" d="M 287.5,439.5 C 301.479,437.963 314.813,440.129 327.5,446C 334.5,453.029 335.334,460.863 330,469.5C 309.176,491.154 288.176,491.487 267,470.5C 259.151,458.39 261.651,449.224 274.5,443C 278.929,441.682 283.262,440.516 287.5,439.5 Z"/></g>
</svg>
