<?xml version="1.0" encoding="UTF-8"?>
<!DOCTYPE svg PUBLIC "-//W3C//DTD SVG 1.1//EN" "http://www.w3.org/Graphics/SVG/1.1/DTD/svg11.dtd">
<svg xmlns="http://www.w3.org/2000/svg" version="1.1" width="600px" height="600px" style="shape-rendering:geometricPrecision; text-rendering:geometricPrecision; image-rendering:optimizeQuality; fill-rule:evenodd; clip-rule:evenodd" xmlns:xlink="http://www.w3.org/1999/xlink">
<g><path style="opacity:0.967" fill="#040404" d="M 229.5,-0.5 C 240.833,-0.5 252.167,-0.5 263.5,-0.5C 267.354,2.02105 271.188,4.68771 275,7.5C 278.133,1.67346 282.966,-0.49321 289.5,1C 296.073,3.08156 301.74,6.58156 306.5,11.5C 311.178,6.98656 316.511,3.48656 322.5,1C 328.949,-0.908201 333.949,0.925133 337.5,6.5C 340.829,4.49394 343.829,2.1606 346.5,-0.5C 358.833,-0.5 371.167,-0.5 383.5,-0.5C 425.195,7.67635 465.195,21.1764 503.5,40C 511.222,44.609 514.889,51.4423 514.5,60.5C 508.797,96.643 499.63,131.976 487,166.5C 485.843,182.474 485.176,198.474 485,214.5C 477.593,262.296 465.427,308.796 448.5,354C 457.427,369.191 462.26,385.691 463,403.5C 465.387,437.239 458.22,468.739 441.5,498C 439.119,499.766 436.452,500.932 433.5,501.5C 431.149,513.001 425.982,523.001 418,531.5C 407.688,543.154 396.188,553.321 383.5,562C 378.367,564.642 373.033,565.142 367.5,563.5C 365.17,570.986 361.17,577.486 355.5,583C 346.565,589.296 337.232,594.796 327.5,599.5C 311.167,599.5 294.833,599.5 278.5,599.5C 265.957,593.967 254.79,586.301 245,576.5C 242.5,572.167 240,567.833 237.5,563.5C 232.46,565.519 227.46,565.019 222.5,562C 205.333,550.167 190.833,535.667 179,518.5C 176.533,512.93 174.366,507.263 172.5,501.5C 168.607,500.637 165.44,498.637 163,495.5C 140.668,452.831 137.334,408.831 153,363.5C 155.654,359.02 158.154,354.52 160.5,350C 146.468,307.236 135.301,263.736 127,219.5C 126.385,202.831 125.718,186.165 125,169.5C 119.268,152.303 113.935,134.97 109,117.5C 106.365,107.625 104.365,97.6254 103,87.5C 99.2859,79.0227 96.7859,70.1894 95.5,61C 95.8025,52.3885 99.4691,45.7218 106.5,41C 145.637,21.4204 186.637,7.58706 229.5,-0.5 Z"/></g>
<g><path style="opacity:1" fill="#ceb38f" d="M 249.5,26.5 C 243.276,32.6111 238.276,39.6111 234.5,47.5C 226.556,59.4012 220.722,72.4012 217,86.5C 212.84,105.8 209.007,125.133 205.5,144.5C 205.426,146.411 204.426,147.578 202.5,148C 196.098,148.818 189.765,148.484 183.5,147C 170.885,143.033 159.885,136.533 150.5,127.5C 144.5,120.833 138.167,114.5 131.5,108.5C 115.92,94.26 107.753,76.5934 107,55.5C 108.122,53.3762 109.622,51.5429 111.5,50C 154.816,27.3959 200.816,13.5626 249.5,8.5C 253.285,8.41099 256.952,8.91099 260.5,10C 262.211,11.1332 262.711,12.6332 262,14.5C 257.964,18.7036 253.798,22.7036 249.5,26.5 Z"/></g>
<g><path style="opacity:1" fill="#ceb38f" d="M 485.5,100.5 C 476.194,110.14 466.861,119.807 457.5,129.5C 447.891,136.806 437.224,142.306 425.5,146C 419.459,147.896 413.459,147.896 407.5,146C 405.064,143.293 403.564,140.127 403,136.5C 400.316,112.098 394.649,88.4309 386,65.5C 383.646,60.1126 380.812,55.1126 377.5,50.5C 369.757,37.5719 360.257,25.9052 349,15.5C 348.087,12.648 348.92,10.4814 351.5,9C 368.398,8.19526 385.065,9.86193 401.5,14C 436.029,22.1196 469.029,34.2863 500.5,50.5C 503.343,53.0209 504.677,56.1876 504.5,60C 502.408,75.6326 496.075,89.1326 485.5,100.5 Z"/></g>
<g><path style="opacity:1" fill="#f5f5f5" d="M 436.5,355.5 C 427.413,346.135 417.413,337.969 406.5,331C 392.374,324.55 378.04,318.55 363.5,313C 340.488,309.396 317.322,307.896 294,308.5C 282.833,308.667 271.667,308.833 260.5,309C 252.021,310.968 243.355,312.301 234.5,313C 226.004,314.821 218.671,318.821 212.5,325C 197.573,331.954 184.24,341.121 172.5,352.5C 161.014,317.208 150.847,281.541 142,245.5C 140.014,235.555 138.347,225.555 137,215.5C 136.794,198.478 136.128,181.478 135,164.5C 128.494,146.321 122.827,127.988 118,109.5C 131.084,125.927 146.584,139.427 164.5,150C 171.538,153.457 178.872,156.124 186.5,158C 194.839,159.315 202.839,158.315 210.5,155C 212.7,152.766 214.533,150.266 216,147.5C 219.907,127.821 223.907,108.154 228,88.5C 236.01,61.4629 250.344,38.4629 271,19.5C 273.445,23.4972 275.112,27.8305 276,32.5C 277.699,31.5939 279.533,31.2606 281.5,31.5C 280.539,28.5739 279.873,25.5739 279.5,22.5C 281.927,22.523 284.26,23.023 286.5,24C 289.029,26.0285 291.696,27.8619 294.5,29.5C 294.833,29 295.167,28.5 295.5,28C 293.21,22.5848 290.043,17.7515 286,13.5C 285.251,12.365 285.417,11.365 286.5,10.5C 294.736,14.7346 301.402,20.7346 306.5,28.5C 311.582,20.9159 318.082,14.9159 326,10.5C 327.257,10.8499 327.591,11.5165 327,12.5C 322.71,17.4647 319.21,22.9647 316.5,29C 317.5,29.6667 318.5,29.6667 319.5,29C 323.301,24.9322 327.968,22.7655 333.5,22.5C 333.497,25.675 332.497,28.5084 330.5,31C 332.345,32.128 334.345,32.628 336.5,32.5C 336.156,28.0341 337.323,24.0341 340,20.5C 360.932,39.6826 375.266,63.0159 383,90.5C 386.775,108.817 390.442,127.15 394,145.5C 395.769,150.935 399.269,154.768 404.5,157C 420.519,159.583 435.519,156.583 449.5,148C 466.546,136.624 481.379,122.79 494,106.5C 489.443,126.512 483.443,146.178 476,165.5C 474.919,182.482 474.253,199.482 474,216.5C 466.022,264.081 453.522,310.415 436.5,355.5 Z"/></g>
<g><path style="opacity:1" fill="#b8b5b2" d="M 249.5,26.5 C 244.743,33.6845 239.743,40.6845 234.5,47.5C 238.276,39.6111 243.276,32.6111 249.5,26.5 Z"/></g>
<g><path style="opacity:1" fill="#bbb7b2" d="M 234.5,47.5 C 220.051,75.359 211.551,105.026 209,136.5C 208.678,139.666 207.511,142.333 205.5,144.5C 209.007,125.133 212.84,105.8 217,86.5C 220.722,72.4012 226.556,59.4012 234.5,47.5 Z"/></g>
<g><path style="opacity:1" fill="#b8b5b2" d="M 131.5,108.5 C 138.167,114.5 144.5,120.833 150.5,127.5C 143.167,122.167 136.833,115.833 131.5,108.5 Z"/></g>
<g><path style="opacity:1" fill="#b8b5b1" d="M 485.5,100.5 C 477.539,111.461 468.206,121.128 457.5,129.5C 466.861,119.807 476.194,110.14 485.5,100.5 Z"/></g>
<g><path style="opacity:1" fill="#bcb7b2" d="M 377.5,50.5 C 380.812,55.1126 383.646,60.1126 386,65.5C 394.649,88.4309 400.316,112.098 403,136.5C 403.564,140.127 405.064,143.293 407.5,146C 413.459,147.896 419.459,147.896 425.5,146C 437.224,142.306 447.891,136.806 457.5,129.5C 447.628,138.773 435.961,144.94 422.5,148C 409.246,151.967 402.08,147.134 401,133.5C 398.29,104.319 390.457,76.652 377.5,50.5 Z"/></g>
<g><path style="opacity:1" fill="#ceb38f" d="M 244.5,233.5 C 234.498,232.211 224.498,232.211 214.5,233.5C 201.225,234.704 188.392,237.704 176,242.5C 171.328,239.981 170.328,236.314 173,231.5C 198.136,208.591 227.303,200.758 260.5,208C 270.108,211.717 273.441,218.55 270.5,228.5C 268.408,231.761 265.574,234.095 262,235.5C 256.847,234.447 251.681,233.447 246.5,232.5C 245.584,232.543 244.917,232.876 244.5,233.5 Z"/></g>
<g><path style="opacity:1" fill="#ceb38f" d="M 395.5,233.5 C 385.732,232.019 376.065,232.352 366.5,234.5C 366.083,233.876 365.416,233.543 364.5,233.5C 357.816,235.607 351.149,235.773 344.5,234C 336.792,221.517 339.792,212.517 353.5,207C 386.333,201.411 414.5,209.578 438,231.5C 441.919,236.141 441.252,239.807 436,242.5C 422.827,236.992 409.327,233.992 395.5,233.5 Z"/></g>
<g><path style="opacity:1" fill="#1e1d1b" d="M 244.5,233.5 C 253.929,241.961 256.762,252.294 253,264.5C 245.474,278.228 234.307,282.728 219.5,278C 205.838,270.707 201.338,259.54 206,244.5C 208.284,240.386 211.117,236.72 214.5,233.5C 224.498,232.211 234.498,232.211 244.5,233.5 Z"/></g>
<g><path style="opacity:1" fill="#1d1d1b" d="M 395.5,233.5 C 407.198,243.035 409.698,254.702 403,268.5C 393.153,280.391 381.32,282.891 367.5,276C 357.273,267.65 354.106,257.15 358,244.5C 359.948,240.387 362.781,237.054 366.5,234.5C 376.065,232.352 385.732,232.019 395.5,233.5 Z"/></g>
<g><path style="opacity:1" fill="#e1e1e0" d="M 221.5,238.5 C 229.571,239.093 231.571,242.926 227.5,250C 220.672,251.824 217.506,249.324 218,242.5C 218.69,240.65 219.856,239.316 221.5,238.5 Z"/></g>
<g><path style="opacity:1" fill="#dbdbdb" d="M 367.5,238.5 C 374.329,237.828 377.163,240.828 376,247.5C 370.613,253.153 366.447,252.32 363.5,245C 364.25,242.429 365.583,240.262 367.5,238.5 Z"/></g>
<g><path style="opacity:1" fill="#ebebeb" d="M 436.5,355.5 C 449.322,373.501 454.655,393.667 452.5,416C 453.053,442.01 447.22,466.51 435,489.5C 433.333,490.833 431.667,490.833 430,489.5C 426.73,483.96 423.73,478.293 421,472.5C 422.038,482.786 422.371,493.119 422,503.5C 419.986,510.529 416.652,516.862 412,522.5C 401.731,533.774 390.565,543.941 378.5,553C 375.784,555.151 373.284,554.984 371,552.5C 369.111,545.277 367.777,537.943 367,530.5C 366.282,529.549 365.449,529.383 364.5,530C 362.725,536.683 361.558,543.516 361,550.5C 359.322,560.567 354.822,569.067 347.5,576C 338.74,582.047 329.406,587.047 319.5,591C 316.558,592.124 313.558,592.458 310.5,592C 307.434,581.773 305.601,571.273 305,560.5C 304.751,559.376 304.251,558.376 303.5,557.5C 303.167,557.667 302.833,557.833 302.5,558C 300.945,568.493 299.112,578.993 297,589.5C 296.424,591.852 294.924,592.852 292.5,592.5C 278.512,588.59 266.012,581.923 255,572.5C 249.727,565.357 246.393,557.357 245,548.5C 244.136,542.857 243.469,537.19 243,531.5C 241.667,527.5 240.333,527.5 239,531.5C 238.489,538.254 237.489,544.921 236,551.5C 234.883,553.124 233.383,554.124 231.5,554.5C 214.304,543.807 199.804,530.14 188,513.5C 184.167,506.654 182.833,499.32 184,491.5C 184.725,486.15 185.558,480.816 186.5,475.5C 186.167,474.5 185.833,473.5 185.5,472.5C 182.719,477.333 180.219,482.333 178,487.5C 175.966,490.859 173.632,491.192 171,488.5C 153.85,454.491 149.184,418.825 157,381.5C 160.313,370.728 165.48,361.061 172.5,352.5C 184.24,341.121 197.573,331.954 212.5,325C 218.671,318.821 226.004,314.821 234.5,313C 243.355,312.301 252.021,310.968 260.5,309C 271.667,308.833 282.833,308.667 294,308.5C 317.322,307.896 340.488,309.396 363.5,313C 378.04,318.55 392.374,324.55 406.5,331C 417.413,337.969 427.413,346.135 436.5,355.5 Z"/></g>
<g><path style="opacity:1" fill="#1b1b1a" d="M 299.5,369.5 C 310.841,369.367 321.841,371.2 332.5,375C 345.606,382.383 350.772,393.55 348,408.5C 342.747,431.814 328.08,443.48 304,443.5C 271.606,441.707 257.273,424.707 261,392.5C 263.651,383.846 269.151,377.679 277.5,374C 284.829,371.768 292.162,370.268 299.5,369.5 Z"/></g>
</svg>
