<?xml version="1.0" encoding="UTF-8"?>
<!DOCTYPE svg PUBLIC "-//W3C//DTD SVG 1.1//EN" "http://www.w3.org/Graphics/SVG/1.1/DTD/svg11.dtd">
<svg xmlns="http://www.w3.org/2000/svg" version="1.1" width="600px" height="600px" style="shape-rendering:geometricPrecision; text-rendering:geometricPrecision; image-rendering:optimizeQuality; fill-rule:evenodd; clip-rule:evenodd" xmlns:xlink="http://www.w3.org/1999/xlink">
<g><path style="opacity:0.952" fill="#000000" d="M 154.5,-0.5 C 164.167,-0.5 173.833,-0.5 183.5,-0.5C 193.589,7.63506 200.756,17.9684 205,30.5C 221.869,53.0422 239.869,74.7089 259,95.5C 263.667,102.167 268.333,108.833 273,115.5C 290.76,116.658 308.593,116.825 326.5,116C 332.302,107.564 338.469,99.3977 345,91.5C 364.456,71.0507 382.789,49.7174 400,27.5C 403.957,16.5531 410.123,7.21977 418.5,-0.5C 426.167,-0.5 433.833,-0.5 441.5,-0.5C 452.504,7.46309 460.67,17.7964 466,30.5C 481.153,67.712 486.819,106.379 483,146.5C 481.016,171.189 478.849,195.855 476.5,220.5C 477.322,235.591 478.989,250.591 481.5,265.5C 481.463,271.818 479.796,277.651 476.5,283C 491.973,322.616 496.806,363.449 491,405.5C 491.574,427.999 488.574,449.999 482,471.5C 479.603,478.756 474.77,482.09 467.5,481.5C 452.047,520.284 425.38,548.284 387.5,565.5C 384.402,564.479 381.402,563.646 378.5,563C 359.185,577.486 338.518,589.653 316.5,599.5C 304.833,599.5 293.167,599.5 281.5,599.5C 259.655,590.245 239.322,578.411 220.5,564C 217.405,563.687 214.405,564.187 211.5,565.5C 173.62,548.284 146.953,520.284 131.5,481.5C 126.323,482.167 122.156,480.167 119,475.5C 111.146,452.861 107.48,429.528 108,405.5C 102.661,363.364 107.494,322.364 122.5,282.5C 120.065,277.095 118.732,271.428 118.5,265.5C 121.011,250.591 122.678,235.591 123.5,220.5C 120.597,191.874 118.097,163.207 116,134.5C 113.051,99.092 117.717,64.7587 130,31.5C 135.059,18.2965 143.226,7.62981 154.5,-0.5 Z"/></g>
<g><path style="opacity:1" fill="#1d1d1d" d="M 479.5,400.5 C 474.268,388.887 467.602,378.054 459.5,368C 458.4,367.568 457.733,368.068 457.5,369.5C 468.18,405.484 466.513,440.817 452.5,475.5C 450.831,460.163 446.664,445.496 440,431.5C 438.959,429.415 437.459,427.748 435.5,426.5C 434.994,456.204 425.161,482.204 406,504.5C 403.987,497.819 399.82,492.986 393.5,490C 382.078,484.349 370.078,480.516 357.5,478.5C 348.2,477.207 338.867,476.207 329.5,475.5C 331.249,464.512 332.915,453.512 334.5,442.5C 343.522,438.497 348.688,431.497 350,421.5C 356.718,388.911 363.051,356.244 369,323.5C 370.825,312.344 376.325,303.511 385.5,297C 397.43,291.802 409.43,286.802 421.5,282C 428.379,276.179 430.212,269.012 427,260.5C 415.193,239.717 397.693,225.884 374.5,219C 356.081,213.554 338.081,214.554 320.5,222C 314.512,226.805 310.679,232.972 309,240.5C 306.571,249.74 304.571,259.073 303,268.5C 299.298,279.176 296.298,278.843 294,267.5C 292.72,257.435 291.054,247.435 289,237.5C 284.304,223.698 274.47,216.532 259.5,216C 227.342,213.718 200.508,224.551 179,248.5C 174.255,254.327 171.422,260.993 170.5,268.5C 171.193,276.365 175.193,281.865 182.5,285C 193.369,287.633 203.702,291.633 213.5,297C 220.187,301.349 225.021,307.182 228,314.5C 235.107,350.141 242.107,385.808 249,421.5C 250.316,431.509 255.482,438.509 264.5,442.5C 266.258,453.474 267.925,464.474 269.5,475.5C 245.829,475.864 223.496,481.364 202.5,492C 198.538,495.123 195.538,498.957 193.5,503.5C 185.031,495.251 178.531,485.585 174,474.5C 168.291,458.997 164.791,442.997 163.5,426.5C 159.076,431.004 155.909,436.337 154,442.5C 150.643,453.284 148.31,464.284 147,475.5C 132.27,440.289 130.77,404.456 142.5,368C 142.167,367.5 141.833,367 141.5,366.5C 131.848,376.825 124.515,388.491 119.5,401.5C 113.309,360.98 118.309,320.98 134.5,281.5C 130.509,276.356 128.842,270.523 129.5,264C 131.96,249.612 133.626,235.112 134.5,220.5C 131.597,192.54 129.097,164.54 127,136.5C 124.587,106.344 127.254,76.6774 135,47.5C 138.976,33.3714 146.142,21.2048 156.5,11C 167.893,3.82486 177.727,5.6582 186,16.5C 190.253,25.938 195.253,34.938 201,43.5C 215.584,62.0879 230.917,80.0879 247,97.5C 254.805,106.473 261.638,116.14 267.5,126.5C 271,126.833 274.5,127.167 278,127.5C 296.176,126.806 314.343,126.472 332.5,126.5C 338.419,117.081 344.919,108.081 352,99.5C 368.333,81.1667 384.667,62.8333 401,44.5C 407.359,35.7859 412.692,26.4526 417,16.5C 421.443,8.52501 427.943,6.02501 436.5,9C 440.299,11.7969 443.799,14.9636 447,18.5C 459.945,38.9973 467.945,61.3307 471,85.5C 472.476,106.48 472.809,127.48 472,148.5C 470.062,172.529 467.895,196.529 465.5,220.5C 466.51,234.927 468.177,249.26 470.5,263.5C 470.932,270.275 469.265,276.442 465.5,282C 480.213,319.87 485.713,359.036 482,399.5C 481.329,400.252 480.496,400.586 479.5,400.5 Z"/></g>
<g><path style="opacity:1" fill="#030303" d="M 164.5,9.5 C 170.561,9.24168 175.728,11.2417 180,15.5C 182,18.8333 184,22.1667 186,25.5C 188.548,32.6866 191.548,39.6866 195,46.5C 206.42,63.6737 218.086,80.6737 230,97.5C 235.489,106.811 240.156,116.477 244,126.5C 247.4,145.31 241.567,160.476 226.5,172C 220.874,175.557 215.707,175.057 211,170.5C 206.098,175.971 199.932,178.638 192.5,178.5C 191.702,189.651 186.036,193.651 175.5,190.5C 174.914,190.709 174.414,191.043 174,191.5C 172.667,197.5 171.333,203.5 170,209.5C 168.878,211.624 167.378,213.457 165.5,215C 155.93,216.965 149.097,213.465 145,204.5C 137.553,171.588 133.386,138.255 132.5,104.5C 132.637,73.6217 139.803,44.6217 154,17.5C 156.885,13.7509 160.385,11.0842 164.5,9.5 Z"/></g>
<g><path style="opacity:1" fill="#030202" d="M 428.5,16.5 C 436.065,16.4119 441.565,19.7453 445,26.5C 463.646,64.3846 469.98,104.385 464,146.5C 461.517,164.916 458.517,183.249 455,201.5C 452.159,211.167 445.659,216.167 435.5,216.5C 430.758,216.213 426.925,214.213 424,210.5C 422.605,204.456 421.105,198.456 419.5,192.5C 408.461,196.134 402.461,192.134 401.5,180.5C 392.996,180.832 386.162,177.499 381,170.5C 376.876,173.854 372.376,174.354 367.5,172C 351.381,162.672 345.547,148.838 350,130.5C 355.024,118.791 361.357,107.791 369,97.5C 380.91,82.0118 392.577,66.3452 404,50.5C 408.968,41.2088 413.634,31.8755 418,22.5C 419.5,21 421,19.5 422.5,18C 424.708,17.8091 426.708,17.3091 428.5,16.5 Z"/></g>
<g><path style="opacity:1" fill="#f8c9c6" d="M 166.5,19.5 C 169.263,19.7438 171.429,21.0771 173,23.5C 176.667,31.8333 180.333,40.1667 184,48.5C 196.172,67.5128 208.838,86.1795 222,104.5C 225.922,111.342 229.588,118.342 233,125.5C 237.605,141.355 233.271,154.022 220,163.5C 218.997,150.487 214.83,138.654 207.5,128C 206.552,127.517 205.552,127.351 204.5,127.5C 207.156,136.659 207.989,145.992 207,155.5C 205.495,161.671 201.828,166.005 196,168.5C 192.745,162.992 189.745,157.325 187,151.5C 186,149.167 184.333,147.5 182,146.5C 182.07,154.504 182.57,162.504 183.5,170.5C 183.579,173.955 183.079,177.288 182,180.5C 181.333,181.833 180.667,181.833 180,180.5C 178.39,175.669 176.39,171.003 174,166.5C 173.282,165.549 172.449,165.383 171.5,166C 169.239,168.772 167.739,171.938 167,175.5C 165.023,185.218 162.857,194.884 160.5,204.5C 159.998,205.521 159.332,205.688 158.5,205C 155.894,203.062 154.061,200.562 153,197.5C 150.006,178.212 147.339,158.878 145,139.5C 139.863,103.397 143.863,68.3969 157,34.5C 159.178,28.7954 162.345,23.7954 166.5,19.5 Z"/></g>
<g><path style="opacity:1" fill="#f8c9c6" d="M 428.5,26.5 C 431.263,26.7438 433.429,28.0771 435,30.5C 453.839,66.3673 460.172,104.367 454,144.5C 451.334,161.832 448.667,179.165 446,196.5C 444.28,203.613 439.78,206.613 432.5,205.5C 431.056,193.165 428.222,181.165 424,169.5C 423.035,167.74 421.868,167.406 420.5,168.5C 417.743,173.682 415.243,179.015 413,184.5C 411.023,180.983 410.189,177.149 410.5,173C 416.158,142.517 412.658,141.017 400,168.5C 399.311,169.357 398.478,170.023 397.5,170.5C 391.08,167.575 387.58,162.575 387,155.5C 386.103,147.161 386.936,138.994 389.5,131C 389.167,130.5 388.833,130 388.5,129.5C 384.451,132.584 381.618,136.584 380,141.5C 376.778,148.499 374.778,155.833 374,163.5C 360.094,156.793 355.761,146.126 361,131.5C 363.745,125.675 366.745,120.008 370,114.5C 383.756,95.3221 397.756,76.3221 412,57.5C 417.513,47.1398 423.013,36.8064 428.5,26.5 Z"/></g>
<g><path style="opacity:1" fill="#29292a" d="M 334.5,442.5 C 322.947,444.689 311.28,446.022 299.5,446.5C 287.724,446.023 276.057,444.689 264.5,442.5C 255.482,438.509 250.316,431.509 249,421.5C 242.107,385.808 235.107,350.141 228,314.5C 225.021,307.182 220.187,301.349 213.5,297C 203.702,291.633 193.369,287.633 182.5,285C 175.193,281.865 171.193,276.365 170.5,268.5C 171.422,260.993 174.255,254.327 179,248.5C 200.508,224.551 227.342,213.718 259.5,216C 274.47,216.532 284.304,223.698 289,237.5C 291.054,247.435 292.72,257.435 294,267.5C 296.298,278.843 299.298,279.176 303,268.5C 304.571,259.073 306.571,249.74 309,240.5C 310.679,232.972 314.512,226.805 320.5,222C 338.081,214.554 356.081,213.554 374.5,219C 397.693,225.884 415.193,239.717 427,260.5C 430.212,269.012 428.379,276.179 421.5,282C 409.43,286.802 397.43,291.802 385.5,297C 376.325,303.511 370.825,312.344 369,323.5C 363.051,356.244 356.718,388.911 350,421.5C 348.688,431.497 343.522,438.497 334.5,442.5 Z"/></g>
<g><path style="opacity:1" fill="#757575" d="M 230.5,235.5 C 250.338,234.507 260.171,243.841 260,263.5C 252.64,281.73 240.14,286.563 222.5,278C 212.719,268.601 210.886,257.768 217,245.5C 220.802,241.037 225.302,237.703 230.5,235.5 Z"/></g>
<g><path style="opacity:1" fill="#757575" d="M 355.5,236.5 C 377.298,234.95 387.131,244.95 385,266.5C 377.861,281.993 366.361,286.493 350.5,280C 340.019,272.274 336.853,262.107 341,249.5C 344.367,243.42 349.2,239.087 355.5,236.5 Z"/></g>
<g><path style="opacity:1" fill="#bfbfbe" d="M 233.5,238.5 C 253.048,240.533 259.881,250.866 254,269.5C 241.88,283.003 230.214,282.67 219,268.5C 213.928,253.646 218.761,243.646 233.5,238.5 Z"/></g>
<g><path style="opacity:1" fill="#bfbebe" d="M 358.5,239.5 C 375.966,239.466 383.8,248.133 382,265.5C 375.007,279.387 364.507,282.887 350.5,276C 339.539,264.627 339.872,253.627 351.5,243C 353.925,241.787 356.259,240.621 358.5,239.5 Z"/></g>
<g><path style="opacity:1" fill="#1d1214" d="M 233.5,245.5 C 247.763,246.235 252.596,253.235 248,266.5C 242.421,272.791 235.921,273.958 228.5,270C 222.923,264.146 222.09,257.646 226,250.5C 228.17,248.177 230.67,246.51 233.5,245.5 Z"/></g>
<g><path style="opacity:1" fill="#1c1012" d="M 358.5,246.5 C 374,246.83 378.833,254.163 373,268.5C 363.948,275.49 356.282,274.157 350,264.5C 347.779,255.947 350.612,249.947 358.5,246.5 Z"/></g>
<g><path style="opacity:1" fill="#eeeeee" d="M 238.5,251.5 C 242.756,250.454 245.422,251.954 246.5,256C 244.532,260.741 241.532,261.575 237.5,258.5C 236.073,255.884 236.406,253.551 238.5,251.5 Z"/></g>
<g><path style="opacity:1" fill="#ebebeb" d="M 364.5,251.5 C 370.989,251.156 372.989,253.99 370.5,260C 367.49,262.222 364.99,261.722 363,258.5C 362.167,255.829 362.667,253.496 364.5,251.5 Z"/></g>
<g><path style="opacity:1" fill="#323232" d="M 269.5,475.5 C 271.245,483.335 274.411,490.669 279,497.5C 293.307,511.125 307.307,510.792 321,496.5C 324.911,489.934 327.744,482.934 329.5,475.5C 338.867,476.207 348.2,477.207 357.5,478.5C 376.167,498.167 394.833,517.833 413.5,537.5C 405.651,544.017 397.151,549.684 388,554.5C 387.228,554.355 386.561,554.022 386,553.5C 385.503,550.854 385.336,548.187 385.5,545.5C 384.448,545.351 383.448,545.517 382.5,546C 361.605,563.532 338.605,577.865 313.5,589C 301.862,594.037 290.529,593.371 279.5,587C 255.861,576.5 234.195,563 214.5,546.5C 213.686,548.766 213.186,551.1 213,553.5C 211.951,554.517 210.784,554.684 209.5,554C 170.255,532.085 145.421,499.252 135,455.5C 133.654,460.552 132.154,465.552 130.5,470.5C 129.833,471.833 129.167,471.833 128.5,470.5C 120.832,448.149 117.832,425.149 119.5,401.5C 124.515,388.491 131.848,376.825 141.5,366.5C 141.833,367 142.167,367.5 142.5,368C 130.77,404.456 132.27,440.289 147,475.5C 148.31,464.284 150.643,453.284 154,442.5C 155.909,436.337 159.076,431.004 163.5,426.5C 164.791,442.997 168.291,458.997 174,474.5C 178.531,485.585 185.031,495.251 193.5,503.5C 195.538,498.957 198.538,495.123 202.5,492C 223.496,481.364 245.829,475.864 269.5,475.5 Z"/></g>
<g><path style="opacity:1" fill="#302f30" d="M 479.5,400.5 C 481.269,423.623 478.769,446.289 472,468.5C 471.492,470.904 470.325,471.571 468.5,470.5C 467.001,465.172 465.501,459.839 464,454.5C 457.332,488.53 440.498,516.196 413.5,537.5C 394.833,517.833 376.167,498.167 357.5,478.5C 370.078,480.516 382.078,484.349 393.5,490C 399.82,492.986 403.987,497.819 406,504.5C 425.161,482.204 434.994,456.204 435.5,426.5C 437.459,427.748 438.959,429.415 440,431.5C 446.664,445.496 450.831,460.163 452.5,475.5C 466.513,440.817 468.18,405.484 457.5,369.5C 457.733,368.068 458.4,367.568 459.5,368C 467.602,378.054 474.268,388.887 479.5,400.5 Z"/></g>
<g><path style="opacity:1" fill="#231f20" d="M 289.5,369.5 C 298.213,369.248 306.88,369.748 315.5,371C 330.519,374.202 336.685,383.369 334,398.5C 326.878,412.494 315.378,420.16 299.5,421.5C 283.43,419.911 271.93,411.911 265,397.5C 262.93,388.03 265.764,380.53 273.5,375C 278.715,372.429 284.048,370.596 289.5,369.5 Z"/></g>
<g><path style="opacity:1" fill="#f59e8f" d="M 264.5,442.5 C 276.057,444.689 287.724,446.023 299.5,446.5C 311.28,446.022 322.947,444.689 334.5,442.5C 332.915,453.512 331.249,464.512 329.5,475.5C 327.744,482.934 324.911,489.934 321,496.5C 307.307,510.792 293.307,511.125 279,497.5C 274.411,490.669 271.245,483.335 269.5,475.5C 267.925,464.474 266.258,453.474 264.5,442.5 Z"/></g>
</svg>
