<?xml version="1.0" encoding="UTF-8"?>
<!DOCTYPE svg PUBLIC "-//W3C//DTD SVG 1.1//EN" "http://www.w3.org/Graphics/SVG/1.1/DTD/svg11.dtd">
<svg xmlns="http://www.w3.org/2000/svg" version="1.1" width="600px" height="600px" style="shape-rendering:geometricPrecision; text-rendering:geometricPrecision; image-rendering:optimizeQuality; fill-rule:evenodd; clip-rule:evenodd" xmlns:xlink="http://www.w3.org/1999/xlink">
<g><path style="opacity:0.951" fill="#000000" d="M 599.5,273.5 C 599.5,287.167 599.5,300.833 599.5,314.5C 585.827,354.854 565.661,391.521 539,424.5C 532.167,432.667 524.667,440.167 516.5,447C 497.737,460.097 479.403,459.431 461.5,445C 453.32,437.485 445.82,429.319 439,420.5C 432.528,430.239 428.195,440.905 426,452.5C 424.316,466.133 422.982,479.799 422,493.5C 417.818,527.695 398.652,543.528 364.5,541C 358.089,539.974 351.922,538.141 346,535.5C 323.113,545.007 299.613,547.174 275.5,542C 268.332,540.333 261.332,538.166 254.5,535.5C 234.784,544.468 215.784,543.301 197.5,532C 186.645,521.12 180.479,507.953 179,492.5C 177.919,477.433 176.252,462.433 174,447.5C 171.448,437.729 167.781,428.396 163,419.5C 156.237,428.267 148.737,436.433 140.5,444C 126.514,456.083 110.848,459.083 93.5,453C 80.7853,444.623 69.6186,434.456 60,422.5C 32.7559,388.349 12.5892,350.349 -0.5,308.5C -0.5,298.5 -0.5,288.5 -0.5,278.5C 4.82524,266.185 10.9919,254.185 18,242.5C 52.0255,192.791 91.5255,147.624 136.5,107C 151.798,97.0213 168.465,90.3546 186.5,87C 210.366,74.6971 235.699,67.0304 262.5,64C 307.326,58.1823 350.992,62.849 393.5,78C 399.044,80.2895 404.377,82.9561 409.5,86C 429.744,89.4128 448.411,96.7461 465.5,108C 511.871,150.353 552.371,197.519 587,249.5C 591.466,257.435 595.633,265.435 599.5,273.5 Z"/></g>
<g><path style="opacity:1" fill="#3d3938" d="M 405.5,95.5 C 405.179,97.0481 404.179,97.7148 402.5,97.5C 402.33,98.8221 402.663,99.9887 403.5,101C 436.856,119.501 454.69,148.001 457,186.5C 458.912,212.756 457.246,238.756 452,264.5C 444.619,291.407 439.285,318.741 436,346.5C 435.17,352.196 435.337,357.863 436.5,363.5C 438.149,364.648 439.649,365.981 441,367.5C 441.683,378.325 440.85,388.992 438.5,399.5C 427.128,415.915 419.295,433.915 415,453.5C 414.368,460.34 413.535,467.007 412.5,473.5C 413.981,442.446 405.148,414.78 386,390.5C 371.041,373.899 357.041,356.566 344,338.5C 332.414,319.409 325.414,298.742 323,276.5C 322.111,244.829 321.111,213.163 320,181.5C 319.472,162.739 316.472,144.405 311,126.5C 307.094,116.667 301.094,115.001 293,121.5C 288.932,129.37 286.266,137.704 285,146.5C 283.007,159.767 281.673,173.1 281,186.5C 280.156,217.174 279.156,247.841 278,278.5C 273.907,309.147 261.907,336.147 242,359.5C 228.196,374.298 215.529,389.965 204,406.5C 192.056,427.946 186.889,450.946 188.5,475.5C 187.683,458.712 184.183,442.379 178,426.5C 173.006,416.691 167.839,407.024 162.5,397.5C 162.624,392.711 163.458,388.045 165,383.5C 166.299,360.291 164.632,337.291 160,314.5C 154.021,289.287 148.687,263.954 144,238.5C 141.263,214.001 142.263,189.668 147,165.5C 151.743,144.509 162.243,127.009 178.5,113C 185.167,108.333 191.833,103.667 198.5,99C 196.568,97.5415 194.568,96.3748 192.5,95.5C 226.313,78.851 262.146,71.1844 300,72.5C 329.301,72.0665 357.801,76.5665 385.5,86C 392.314,88.9076 398.981,92.0743 405.5,95.5 Z"/></g>
<g><path style="opacity:1" fill="#2e2c2b" d="M 192.5,95.5 C 194.568,96.3748 196.568,97.5415 198.5,99C 191.833,103.667 185.167,108.333 178.5,113C 162.243,127.009 151.743,144.509 147,165.5C 142.263,189.668 141.263,214.001 144,238.5C 148.687,263.954 154.021,289.287 160,314.5C 164.632,337.291 166.299,360.291 165,383.5C 163.458,388.045 162.624,392.711 162.5,397.5C 154.425,415.093 142.425,429.593 126.5,441C 114.871,448.625 103.537,448.292 92.5,440C 78.2647,427.666 65.7647,413.832 55,398.5C 37.1933,371.998 22.86,343.664 12,313.5C 8.88859,304.049 7.88859,294.382 9,284.5C 15.8897,266.632 24.8897,249.965 36,234.5C 67.5048,190.984 103.338,151.15 143.5,115C 158.741,105.644 175.075,99.1442 192.5,95.5 Z"/></g>
<g><path style="opacity:1" fill="#2e2c2b" d="M 405.5,95.5 C 429.684,99.2776 451.018,109.111 469.5,125C 505.029,159.51 537.196,196.676 566,236.5C 572.584,246.666 578.918,257 585,267.5C 591.915,279.407 593.915,292.074 591,305.5C 575.768,353.824 550.934,396.324 516.5,433C 512.833,436 509.167,439 505.5,442C 494.158,448.336 483.158,447.669 472.5,440C 458.008,429.02 446.675,415.52 438.5,399.5C 440.85,388.992 441.683,378.325 441,367.5C 439.649,365.981 438.149,364.648 436.5,363.5C 435.337,357.863 435.17,352.196 436,346.5C 439.285,318.741 444.619,291.407 452,264.5C 457.246,238.756 458.912,212.756 457,186.5C 454.69,148.001 436.856,119.501 403.5,101C 402.663,99.9887 402.33,98.8221 402.5,97.5C 404.179,97.7148 405.179,97.0481 405.5,95.5 Z"/></g>
<g><path style="opacity:1" fill="#4c4646" d="M 412.5,473.5 C 413.709,489.147 410.543,503.813 403,517.5C 391.81,529.764 377.976,533.931 361.5,530C 355.829,528.054 350.162,526.22 344.5,524.5C 335.2,517.845 325.534,511.678 315.5,506C 307.149,500.94 298.482,500.273 289.5,504C 277.605,510.105 266.272,516.938 255.5,524.5C 243.084,530.072 230.084,531.906 216.5,530C 202.547,524.956 194.047,515.122 191,500.5C 189.507,492.233 188.673,483.899 188.5,475.5C 186.889,450.946 192.056,427.946 204,406.5C 215.529,389.965 228.196,374.298 242,359.5C 261.907,336.147 273.907,309.147 278,278.5C 279.156,247.841 280.156,217.174 281,186.5C 281.673,173.1 283.007,159.767 285,146.5C 286.266,137.704 288.932,129.37 293,121.5C 301.094,115.001 307.094,116.667 311,126.5C 316.472,144.405 319.472,162.739 320,181.5C 321.111,213.163 322.111,244.829 323,276.5C 325.414,298.742 332.414,319.409 344,338.5C 357.041,356.566 371.041,373.899 386,390.5C 405.148,414.78 413.981,442.446 412.5,473.5 Z"/></g>
<g><path style="opacity:1" fill="#4c4646" d="M 213.5,206.5 C 242.662,205.495 256.496,219.495 255,248.5C 247.134,270.183 231.968,278.35 209.5,273C 192.748,264.665 185.581,251.165 188,232.5C 192.017,219.318 200.517,210.651 213.5,206.5 Z"/></g>
<g><path style="opacity:1" fill="#4c4646" d="M 371.5,206.5 C 396.542,204.561 410.876,215.895 414.5,240.5C 412.636,262.032 400.969,273.365 379.5,274.5C 358.572,272.906 347.239,261.573 345.5,240.5C 347.073,223.61 355.739,212.277 371.5,206.5 Z"/></g>
<g><path style="opacity:1" fill="#2f2d2c" d="M 216.5,217.5 C 229.89,216.398 239.057,222.065 244,234.5C 245.878,252.116 238.045,261.783 220.5,263.5C 209.486,262.739 202.319,257.072 199,246.5C 196.704,231.737 202.537,222.071 216.5,217.5 Z"/></g>
<g><path style="opacity:1" fill="#2f2d2c" d="M 373.5,217.5 C 396.871,217.018 406.038,228.018 401,250.5C 396.481,259.181 389.314,263.514 379.5,263.5C 363.01,261.501 355.51,252.168 357,235.5C 359.619,226.719 365.119,220.719 373.5,217.5 Z"/></g>
<g><path style="opacity:1" fill="#f1f1f1" d="M 224.5,228.5 C 230.641,227.816 233.808,230.483 234,236.5C 230.421,242.753 226.421,243.086 222,237.5C 220.927,233.9 221.76,230.9 224.5,228.5 Z"/></g>
<g><path style="opacity:1" fill="#f2f2f2" d="M 385.5,228.5 C 394.244,228.413 396.577,232.246 392.5,240C 386.793,242.977 383.126,241.31 381.5,235C 382.25,232.429 383.583,230.262 385.5,228.5 Z"/></g>
<g><path style="opacity:1" fill="#333030" d="M 314.5,314.5 C 317.292,314.452 319.125,315.785 320,318.5C 320.499,323.155 320.666,327.821 320.5,332.5C 318.143,332.663 315.81,332.497 313.5,332C 310.78,325.986 311.113,320.153 314.5,314.5 Z"/></g>
<g><path style="opacity:1" fill="#000000" d="M 285.5,411.5 C 300.786,410.453 315.786,411.953 330.5,416C 349.905,425.365 354.739,439.865 345,459.5C 322.984,486.131 297.15,490.631 267.5,473C 258.519,466.681 252.685,458.181 250,447.5C 248.591,431.489 255.424,420.655 270.5,415C 275.545,413.425 280.545,412.259 285.5,411.5 Z"/></g>
<g><path style="opacity:1" fill="#343131" d="M 223.5,413.5 C 225.591,413.318 227.591,413.652 229.5,414.5C 230.833,417.5 230.833,420.5 229.5,423.5C 226.146,428.207 223.313,433.207 221,438.5C 219.644,439.38 218.144,439.714 216.5,439.5C 214.696,435.737 214.196,431.737 215,427.5C 217.06,422.382 219.894,417.716 223.5,413.5 Z"/></g>
<g><path style="opacity:1" fill="#343131" d="M 361.5,418.5 C 365.192,417.971 368.358,418.971 371,421.5C 372.5,423.833 374,426.167 375.5,428.5C 378.86,437.189 376.193,440.523 367.5,438.5C 365.129,432.995 362.462,427.661 359.5,422.5C 360.18,421.14 360.847,419.807 361.5,418.5 Z"/></g>
<g><path style="opacity:1" fill="#343131" d="M 237.5,487.5 C 241.471,486.758 244.304,488.091 246,491.5C 246.667,495.167 246.667,498.833 246,502.5C 242.655,505.387 239.655,505.054 237,501.5C 236.305,498.615 235.472,495.782 234.5,493C 234.863,490.808 235.863,488.974 237.5,487.5 Z"/></g>
<g><path style="opacity:1" fill="#2f2d2c" d="M 344.5,524.5 C 314.821,537.832 285.155,537.832 255.5,524.5C 266.272,516.938 277.605,510.105 289.5,504C 298.482,500.273 307.149,500.94 315.5,506C 325.534,511.678 335.2,517.845 344.5,524.5 Z"/></g>
</svg>
