<?xml version="1.0" encoding="UTF-8"?>
<!DOCTYPE svg PUBLIC "-//W3C//DTD SVG 1.1//EN" "http://www.w3.org/Graphics/SVG/1.1/DTD/svg11.dtd">
<svg xmlns="http://www.w3.org/2000/svg" version="1.1" width="600px" height="600px" style="shape-rendering:geometricPrecision; text-rendering:geometricPrecision; image-rendering:optimizeQuality; fill-rule:evenodd; clip-rule:evenodd" xmlns:xlink="http://www.w3.org/1999/xlink">
<g><path style="opacity:0.966" fill="#000000" d="M 315.5,599.5 C 304.833,599.5 294.167,599.5 283.5,599.5C 267.244,596.25 251.41,591.25 236,584.5C 229.609,591.715 222.943,592.049 216,585.5C 213.806,582.446 212.139,579.112 211,575.5C 207.448,586.441 200.614,588.941 190.5,583C 184.9,583.939 179.567,582.939 174.5,580C 156.627,566.461 141.127,550.627 128,532.5C 120.954,522.319 117.954,510.986 119,498.5C 108.788,503.083 100.788,500.417 95,490.5C 88.6728,477.538 86.3395,463.871 88,449.5C 90.2944,430.82 95.4611,412.987 103.5,396C 101.4,393.9 99.2331,391.733 97,389.5C 96.1656,386.828 95.3323,384.161 94.5,381.5C 97.1715,368.66 102.172,356.827 109.5,346C 100.072,337.473 100.406,329.14 110.5,321C 113.663,318.584 116.996,316.418 120.5,314.5C 120.833,312.333 121.167,310.167 121.5,308C 120.015,282.849 118.848,257.682 118,232.5C 114.034,241.634 107.2,247.3 97.5,249.5C 92.6973,248.737 88.5306,246.737 85,243.5C 78.7575,227.68 71.4242,212.347 63,197.5C 51,180.167 39,162.833 27,145.5C 16.9863,129.452 12.9863,112.119 15,93.5C 17.2971,83.5326 22.4637,75.366 30.5,69C 48.9356,56.9492 68.6023,47.2826 89.5,40C 116.383,30.8902 143.049,21.2235 169.5,11C 185.577,4.60558 199.91,7.27225 212.5,19C 213.5,19.1667 214.5,19.3333 215.5,19.5C 271.665,8.84118 327.832,8.84118 384,19.5C 389.913,15.1232 396.413,11.6232 403.5,9C 409.097,7.54392 414.763,7.21059 420.5,8C 452.822,19.6633 485.156,31.33 517.5,43C 538.201,49.9299 557.034,60.0966 574,73.5C 582.779,84.2768 586.446,96.6102 585,110.5C 582.163,127.02 575.83,142.02 566,155.5C 545.009,181.79 528.343,210.79 516,242.5C 507.256,250.648 498.09,251.148 488.5,244C 486.3,241.766 484.467,239.266 483,236.5C 481.307,261.468 479.973,286.468 479,311.5C 478.727,313.101 478.227,314.601 477.5,316C 482.954,319.12 487.454,323.287 491,328.5C 493.972,336.252 491.805,342.086 484.5,346C 492.433,356.62 497.766,368.453 500.5,381.5C 500.115,387.191 497.448,391.357 492.5,394C 504.556,417.391 510.056,442.224 509,468.5C 508.133,480.063 503.633,489.896 495.5,498C 489.7,502.176 483.866,502.343 478,498.5C 479.46,512.319 475.794,524.652 467,535.5C 454.167,552.333 439.333,567.167 422.5,580C 414.929,581.349 407.429,583.515 400,586.5C 392.593,585.375 388.593,581.041 388,573.5C 386.412,582.582 381.245,588.249 372.5,590.5C 368.37,589.523 364.87,587.523 362,584.5C 346.744,590.642 331.244,595.642 315.5,599.5 Z"/></g>
<g><path style="opacity:1" fill="#0d0e0a" d="M 209.5,31.5 C 213.304,35.4342 215.137,40.1009 215,45.5C 206.251,50.5753 197.751,56.0753 189.5,62C 166.368,83.469 149.201,108.969 138,138.5C 132.306,151.746 128.139,165.413 125.5,179.5C 124.503,179.47 123.836,179.97 123.5,181C 119.118,199.147 112.951,216.647 105,233.5C 102.075,238.062 98.2421,239.229 93.5,237C 80.1772,204.047 62.3439,173.88 40,146.5C 32.8736,136.127 27.8736,124.793 25,112.5C 22.0124,97.4537 26.5124,85.287 38.5,76C 46.9846,70.2534 55.9846,65.2534 65.5,61C 104.852,45.1056 144.685,30.6056 185,17.5C 195.358,18.4266 203.525,23.0932 209.5,31.5 Z"/></g>
<g><path style="opacity:1" fill="#0e0f0a" d="M 477.5,187.5 C 470.353,158.929 459.52,131.595 445,105.5C 435.102,88.9225 422.935,74.0891 408.5,61C 401.052,55.527 393.219,50.6936 385,46.5C 383.491,40.7159 384.991,35.8825 389.5,32C 388.263,31.7679 387.263,31.2679 386.5,30.5C 390.678,29.8548 394.011,27.6881 396.5,24C 402.987,18.8784 410.32,16.8784 418.5,18C 457.021,31.8783 495.354,46.2117 533.5,61C 542.984,65.2392 551.984,70.2392 560.5,76C 572.698,85.5842 577.198,98.0842 574,113.5C 570.972,124.889 566.305,135.556 560,145.5C 538.002,173.142 520.335,203.476 507,236.5C 501.203,239.621 496.536,238.288 493,232.5C 486.044,217.791 480.878,202.791 477.5,187.5 Z"/></g>
<g><path style="opacity:1" fill="#272525" d="M 386.5,30.5 C 387.263,31.2679 388.263,31.7679 389.5,32C 384.991,35.8825 383.491,40.7159 385,46.5C 393.219,50.6936 401.052,55.527 408.5,61C 422.935,74.0891 435.102,88.9225 445,105.5C 459.52,131.595 470.353,158.929 477.5,187.5C 476.531,185.337 475.698,183.004 475,180.5C 471.815,224.121 469.482,267.787 468,311.5C 467.667,311.167 467.333,310.833 467,310.5C 466.502,313.482 466.335,316.482 466.5,319.5C 465.849,320.091 465.182,320.757 464.5,321.5C 458.958,318.709 453.291,316.209 447.5,314C 442.742,307.238 437.242,301.071 431,295.5C 430.667,294.167 430.333,292.833 430,291.5C 425.233,289.062 420.733,286.229 416.5,283C 408.108,280.43 400.108,277.097 392.5,273C 376.136,268.689 359.803,265.189 343.5,262.5C 343.156,259.38 343.823,256.547 345.5,254C 345.167,253.5 344.833,253 344.5,252.5C 334.301,254.733 324.468,258.066 315,262.5C 305.119,259.02 294.952,256.353 284.5,254.5C 284.124,257.373 284.124,260.373 284.5,263.5C 276.342,260.898 268.009,258.732 259.5,257C 254.798,256.172 250.131,256.338 245.5,257.5C 248.284,259.952 247.951,261.952 244.5,263.5C 243.549,262.674 242.549,262.508 241.5,263C 240.13,264.441 239.13,266.108 238.5,268C 228.288,270.383 217.955,272.05 207.5,273C 191.886,277.281 178.886,285.281 168.5,297C 160.921,301.909 153.921,307.575 147.5,314C 143.167,315.833 138.833,317.667 134.5,319.5C 133.828,318.051 133.161,316.718 132.5,315.5C 130.69,270.14 128.356,224.807 125.5,179.5C 128.139,165.413 132.306,151.746 138,138.5C 149.201,108.969 166.368,83.469 189.5,62C 197.751,56.0753 206.251,50.5753 215,45.5C 215.137,40.1009 213.304,35.4342 209.5,31.5C 239.074,24.6595 269.074,21.6595 299.5,22.5C 328.78,22.4042 357.78,25.0709 386.5,30.5 Z"/></g>
<g><path style="opacity:1" fill="#0e0f0a" d="M 236.5,175.5 C 236.217,174.784 235.884,173.951 235.5,173C 218.328,170.899 201.328,171.732 184.5,175.5C 178.722,175.527 173.056,176.36 167.5,178C 158.155,182.119 148.488,184.786 138.5,186C 135.64,182.319 134.807,178.152 136,173.5C 142.904,165.458 151.07,158.958 160.5,154C 190.549,136.58 222.549,131.246 256.5,138C 263.729,139.897 269.229,144.064 273,150.5C 273.667,156.167 273.667,161.833 273,167.5C 271.418,173.633 267.418,176.633 261,176.5C 253.595,175.96 246.262,174.96 239,173.5C 237.989,174.056 237.156,174.722 236.5,175.5 Z"/></g>
<g><path style="opacity:1" fill="#0e0f0a" d="M 414.5,175.5 C 398.335,171.834 382.002,171.001 365.5,173C 364.956,173.717 364.289,174.217 363.5,174.5C 362.584,174.018 361.584,173.685 360.5,173.5C 350.904,175.312 341.237,175.812 331.5,175C 324.963,169.245 322.797,162.078 325,153.5C 328.205,145.964 333.705,140.797 341.5,138C 383.902,130.517 422.235,139.85 456.5,166C 465.721,173.116 465.721,179.949 456.5,186.5C 444.874,182.903 433.207,179.403 421.5,176C 419.19,175.503 416.857,175.337 414.5,175.5 Z"/></g>
<g><path style="opacity:1" fill="#000000" d="M 236.5,175.5 C 245.793,196.453 240.126,211.953 219.5,222C 199,226.168 185.5,218.335 179,198.5C 177.26,189.798 179.093,182.131 184.5,175.5C 201.328,171.732 218.328,170.899 235.5,173C 235.884,173.951 236.217,174.784 236.5,175.5 Z"/></g>
<g><path style="opacity:1" fill="#000000" d="M 414.5,175.5 C 418.835,180.161 420.835,185.828 420.5,192.5C 417.677,214.153 405.344,224.319 383.5,223C 367.911,218.415 359.244,208.082 357.5,192C 358.349,185.772 360.349,179.939 363.5,174.5C 364.289,174.217 364.956,173.717 365.5,173C 382.002,171.001 398.335,171.834 414.5,175.5 Z"/></g>
<g><path style="opacity:1" fill="#e9e9e9" d="M 218.5,176.5 C 226.963,177.271 228.629,181.104 223.5,188C 217.166,189.329 214.332,186.829 215,180.5C 215.69,178.65 216.856,177.316 218.5,176.5 Z"/></g>
<g><path style="opacity:1" fill="#e9e9e9" d="M 376.5,176.5 C 382.82,176.32 385.32,179.32 384,185.5C 379.837,189.747 376.171,189.414 373,184.5C 372.279,180.946 373.446,178.28 376.5,176.5 Z"/></g>
<g><path style="opacity:1" fill="#222221" d="M 466.5,319.5 C 466.33,320.822 466.663,321.989 467.5,323C 472.613,325.306 477.113,328.472 481,332.5C 481.483,333.448 481.649,334.448 481.5,335.5C 477.181,334.751 472.848,334.585 468.5,335C 467.941,335.725 467.608,336.558 467.5,337.5C 471.734,344.962 476.234,352.296 481,359.5C 484.952,366.068 487.785,373.068 489.5,380.5C 489.888,382.955 488.888,384.288 486.5,384.5C 483.473,383.639 480.806,382.139 478.5,380C 477.207,379.51 475.873,379.343 474.5,379.5C 478.633,388.437 482.799,397.437 487,406.5C 497.208,428.165 500.541,450.832 497,474.5C 496.041,480.727 493.207,485.894 488.5,490C 486.833,490.667 485.167,490.667 483.5,490C 478.498,485.329 474.665,479.829 472,473.5C 471.751,474.624 471.251,475.624 470.5,476.5C 469.086,475.376 467.586,474.376 466,473.5C 465.967,483.176 466.467,492.842 467.5,502.5C 467.923,513.641 464.423,523.308 457,531.5C 451.468,538.544 445.468,545.211 439,551.5C 444.297,536.056 447.131,520.056 447.5,503.5C 446.308,464.466 444.475,425.466 442,386.5C 438.027,344.239 417.194,313.739 379.5,295C 358.001,287.301 336.001,285.467 313.5,289.5C 290.923,288.471 268.257,287.971 245.5,288C 215.075,291.775 191.242,306.275 174,331.5C 164.578,345.43 158.912,360.764 157,377.5C 155.338,390.782 154.338,404.116 154,417.5C 153.065,449.831 152.732,482.164 153,514.5C 154.404,529.56 158.071,543.893 164,557.5C 151.443,545.954 140.777,532.954 132,518.5C 130.329,513.643 129.495,508.643 129.5,503.5C 130.864,492.862 131.364,482.195 131,471.5C 124.765,475.737 119.931,481.237 116.5,488C 112.14,491.662 108.307,491.162 105,486.5C 100.106,477.641 97.9391,468.141 98.5,458C 98.9716,439.31 103.138,421.476 111,404.5C 114.597,396.73 118.43,389.064 122.5,381.5C 120.956,379.554 118.956,379.054 116.5,380C 113.589,383.392 110.089,384.559 106,383.5C 105.333,381.5 105.333,379.5 106,377.5C 111.489,363.017 118.656,349.517 127.5,337C 127.355,336.228 127.022,335.561 126.5,335C 122.129,334.371 117.796,334.537 113.5,335.5C 114.091,332.386 115.758,329.886 118.5,328C 122.919,325.373 127.419,322.873 132,320.5C 132.494,318.866 132.66,317.199 132.5,315.5C 133.161,316.718 133.828,318.051 134.5,319.5C 138.833,317.667 143.167,315.833 147.5,314C 153.921,307.575 160.921,301.909 168.5,297C 178.886,285.281 191.886,277.281 207.5,273C 217.955,272.05 228.288,270.383 238.5,268C 239.13,266.108 240.13,264.441 241.5,263C 242.549,262.508 243.549,262.674 244.5,263.5C 247.951,261.952 248.284,259.952 245.5,257.5C 250.131,256.338 254.798,256.172 259.5,257C 268.009,258.732 276.342,260.898 284.5,263.5C 284.124,260.373 284.124,257.373 284.5,254.5C 294.952,256.353 305.119,259.02 315,262.5C 324.468,258.066 334.301,254.733 344.5,252.5C 344.833,253 345.167,253.5 345.5,254C 343.823,256.547 343.156,259.38 343.5,262.5C 359.803,265.189 376.136,268.689 392.5,273C 400.108,277.097 408.108,280.43 416.5,283C 420.733,286.229 425.233,289.062 430,291.5C 430.333,292.833 430.667,294.167 431,295.5C 437.242,301.071 442.742,307.238 447.5,314C 453.291,316.209 458.958,318.709 464.5,321.5C 465.182,320.757 465.849,320.091 466.5,319.5 Z"/></g>
<g><path style="opacity:1" fill="#4a3f39" d="M 282.5,296.5 C 262.792,298.545 251.792,309.211 249.5,328.5C 235.491,332.241 225.324,340.574 219,353.5C 217.018,368.993 218.018,384.326 222,399.5C 229.392,427.343 237.392,455.01 246,482.5C 249.275,495.832 251.775,509.166 253.5,522.5C 254.154,540.278 253.154,557.944 250.5,575.5C 243.5,569.167 236.833,562.5 230.5,555.5C 229.774,561.922 228.774,568.255 227.5,574.5C 227.229,576.312 226.562,577.978 225.5,579.5C 224.914,579.291 224.414,578.957 224,578.5C 221.575,573.022 219.075,567.688 216.5,562.5C 214.511,554.031 212.011,545.698 209,537.5C 207.834,534.497 206.167,531.83 204,529.5C 203.624,536.518 203.124,543.518 202.5,550.5C 202.12,558.93 201.12,567.263 199.5,575.5C 195.109,573.645 191.109,571.311 187.5,568.5C 186.019,564.681 185.186,560.681 185,556.5C 184.021,540.124 182.854,523.791 181.5,507.5C 181.167,507.167 180.833,506.833 180.5,506.5C 179.682,509.107 179.182,511.774 179,514.5C 178.304,528.877 177.304,543.21 176,557.5C 175.667,557.833 175.333,558.167 175,558.5C 168.881,551.595 164.881,543.595 163,534.5C 159.023,513.352 157.523,492.019 158.5,470.5C 158.5,468.5 158.5,466.5 158.5,464.5C 159.887,443.014 160.554,421.348 160.5,399.5C 161.899,389.314 163.232,378.981 164.5,368.5C 183.633,311.271 222.967,287.271 282.5,296.5 Z"/></g>
<g><path style="opacity:1" fill="#4a3f39" d="M 437.5,398.5 C 437.796,424.685 438.796,450.685 440.5,476.5C 440.5,477.167 440.5,477.833 440.5,478.5C 440.667,492.171 440.5,505.837 440,519.5C 438.085,530.16 435.085,540.493 431,550.5C 429.487,553.524 427.487,556.191 425,558.5C 423.21,552.892 422.043,547.225 421.5,541.5C 421.5,541.167 421.5,540.833 421.5,540.5C 421.666,532.493 421.5,524.493 421,516.5C 420.869,511.306 419.869,506.306 418,501.5C 417.153,523.199 415.82,544.866 414,566.5C 413.31,568.35 412.144,569.684 410.5,570.5C 407.193,572.153 403.86,573.82 400.5,575.5C 399.914,575.291 399.414,574.957 399,574.5C 397.964,567.201 397.464,559.868 397.5,552.5C 396.324,543.863 395.324,535.196 394.5,526.5C 388.977,538.068 384.644,550.068 381.5,562.5C 379.31,568.239 376.644,573.739 373.5,579C 372.4,579.432 371.733,578.932 371.5,577.5C 371.036,574.651 370.369,571.984 369.5,569.5C 369.111,564.496 368.611,559.496 368,554.5C 362.051,563.614 354.884,571.614 346.5,578.5C 343.827,560.417 342.827,542.084 343.5,523.5C 345.094,514.339 346.428,505.006 347.5,495.5C 355.19,469.25 363.024,442.916 371,416.5C 375.581,399.929 378.748,383.096 380.5,366C 380.17,351.334 373.503,340.668 360.5,334C 356.342,331.672 352.008,329.839 347.5,328.5C 347.122,314.574 340.455,305.074 327.5,300C 323.268,298.388 318.934,297.221 314.5,296.5C 355.007,287.947 388.507,299.614 415,331.5C 428.814,351.776 436.314,374.109 437.5,398.5 Z"/></g>
<g><path style="opacity:1" fill="#000000" d="M 314.5,296.5 C 318.934,297.221 323.268,298.388 327.5,300C 340.455,305.074 347.122,314.574 347.5,328.5C 346.959,343.081 340.959,354.914 329.5,364C 321.874,370.145 313.207,374.145 303.5,376C 301.378,381.143 303.045,385.143 308.5,388C 317.019,388.11 325.519,387.61 334,386.5C 341.896,385.282 347.563,388.282 351,395.5C 352.667,398.833 354.333,402.167 356,405.5C 356.833,408.667 355.667,409.833 352.5,409C 349.963,406.094 347.796,402.927 346,399.5C 341.86,394.789 336.694,393.289 330.5,395C 320.181,397.769 309.681,399.269 299,399.5C 286.211,398.735 273.545,397.068 261,394.5C 253.951,395.538 249.284,399.538 247,406.5C 245.736,408.607 243.903,409.607 241.5,409.5C 242.365,400.937 246.032,393.77 252.5,388C 255.88,386.916 259.38,386.416 263,386.5C 271.806,387.719 280.639,388.219 289.5,388C 293.347,385.308 295.68,381.642 296.5,377C 282.156,373.915 269.99,367.081 260,356.5C 253.255,348.438 249.755,339.105 249.5,328.5C 251.792,309.211 262.792,298.545 282.5,296.5C 293.167,295.167 303.833,295.167 314.5,296.5 Z"/></g>
<g><path style="opacity:1" fill="#1d1d1c" d="M 249.5,328.5 C 249.755,339.105 253.255,348.438 260,356.5C 269.99,367.081 282.156,373.915 296.5,377C 295.68,381.642 293.347,385.308 289.5,388C 280.639,388.219 271.806,387.719 263,386.5C 259.38,386.416 255.88,386.916 252.5,388C 246.032,393.77 242.365,400.937 241.5,409.5C 243.903,409.607 245.736,408.607 247,406.5C 249.284,399.538 253.951,395.538 261,394.5C 273.545,397.068 286.211,398.735 299,399.5C 309.681,399.269 320.181,397.769 330.5,395C 336.694,393.289 341.86,394.789 346,399.5C 347.796,402.927 349.963,406.094 352.5,409C 355.667,409.833 356.833,408.667 356,405.5C 354.333,402.167 352.667,398.833 351,395.5C 347.563,388.282 341.896,385.282 334,386.5C 325.519,387.61 317.019,388.11 308.5,388C 303.045,385.143 301.378,381.143 303.5,376C 313.207,374.145 321.874,370.145 329.5,364C 340.959,354.914 346.959,343.081 347.5,328.5C 352.008,329.839 356.342,331.672 360.5,334C 373.503,340.668 380.17,351.334 380.5,366C 378.748,383.096 375.581,399.929 371,416.5C 363.024,442.916 355.19,469.25 347.5,495.5C 348.187,489.751 349.353,484.084 351,478.5C 361.296,447.613 369.962,416.28 377,384.5C 384.405,357.977 375.405,339.977 350,330.5C 345.092,356.575 329.592,372.242 303.5,377.5C 303.738,381.138 305.404,383.971 308.5,386C 317.216,386.493 325.882,385.993 334.5,384.5C 342.355,383.677 348.188,386.677 352,393.5C 353.667,396.833 355.333,400.167 357,403.5C 358.725,410.144 356.558,412.311 350.5,410C 347.67,403.338 343.004,398.504 336.5,395.5C 311.172,402.146 285.839,402.146 260.5,395.5C 254.495,398.006 250.328,402.339 248,408.5C 241.63,413.148 238.963,411.482 240,403.5C 242.71,397.465 246.21,391.965 250.5,387C 254.09,385.107 257.923,384.273 262,384.5C 270.791,385.947 279.624,386.447 288.5,386C 291.559,384.401 293.559,381.901 294.5,378.5C 275.892,374.032 261.725,363.699 252,347.5C 250.03,341.954 248.53,336.287 247.5,330.5C 220.941,340.962 212.108,359.962 221,387.5C 228.752,420.51 237.752,453.176 248,485.5C 251.136,497.649 252.969,509.982 253.5,522.5C 251.775,509.166 249.275,495.832 246,482.5C 237.392,455.01 229.392,427.343 222,399.5C 218.018,384.326 217.018,368.993 219,353.5C 225.324,340.574 235.491,332.241 249.5,328.5 Z"/></g>
<g><path style="opacity:1" fill="#222221" d="M 242.5,338.5 C 249.495,359.33 263.495,373.497 284.5,381C 277.017,380.695 269.517,380.195 262,379.5C 253.498,378.444 246.831,381.444 242,388.5C 239.412,392.674 237.079,397.007 235,401.5C 232.261,409.619 234.928,414.619 243,416.5C 249.505,415 253.838,411 256,404.5C 257.333,402.167 259.333,401.167 262,401.5C 279.977,405.291 298.144,406.457 316.5,405C 323.793,403.338 331.126,402.338 338.5,402C 341.833,406.333 345.167,410.667 348.5,415C 360.17,417.998 364.67,413.498 362,401.5C 358.955,391.535 352.789,384.368 343.5,380C 340.5,379.833 337.5,379.667 334.5,379.5C 327.143,380.118 319.809,380.618 312.5,381C 333.383,373.617 347.383,359.451 354.5,338.5C 361.749,341.583 367.249,346.583 371,353.5C 372.905,357.967 373.738,362.633 373.5,367.5C 372.972,377.642 371.472,387.642 369,397.5C 362.11,424.06 354.443,450.393 346,476.5C 337.318,510.768 335.151,545.434 339.5,580.5C 339.291,581.086 338.957,581.586 338.5,582C 325.086,585.605 311.753,589.438 298.5,593.5C 284.144,589.258 269.81,584.925 255.5,580.5C 257.715,575.131 258.882,569.464 259,563.5C 261.356,535.092 259.023,507.092 252,479.5C 243.189,451.734 235.189,423.734 228,395.5C 224.514,382.97 223.514,370.304 225,357.5C 227.928,348.408 233.762,342.075 242.5,338.5 Z"/></g>
<g><path style="opacity:1" fill="#1f1e1d" d="M 437.5,398.5 C 436.314,374.109 428.814,351.776 415,331.5C 388.507,299.614 355.007,287.947 314.5,296.5C 303.833,295.167 293.167,295.167 282.5,296.5C 222.967,287.271 183.633,311.271 164.5,368.5C 175.484,325.017 203.151,299.85 247.5,293C 260.066,292.062 272.566,292.562 285,294.5C 306.504,294.375 328.004,293.875 349.5,293C 392.526,299.694 420.359,323.86 433,365.5C 435.73,376.336 437.23,387.336 437.5,398.5 Z"/></g>
<g><path style="opacity:1" fill="#272523" d="M 437.5,398.5 C 439.824,424.292 440.824,450.292 440.5,476.5C 438.796,450.685 437.796,424.685 437.5,398.5 Z"/></g>
<g><path style="opacity:1" fill="#272523" d="M 160.5,399.5 C 160.554,421.348 159.887,443.014 158.5,464.5C 158.133,442.642 158.799,420.975 160.5,399.5 Z"/></g>
<g><path style="opacity:1" fill="#21201f" d="M 421.5,540.5 C 420.618,530.659 419.784,520.659 419,510.5C 418.08,527.839 417.08,545.173 416,562.5C 416.013,566.124 414.68,569.124 412,571.5C 411.617,570.944 411.117,570.611 410.5,570.5C 412.144,569.684 413.31,568.35 414,566.5C 415.82,544.866 417.153,523.199 418,501.5C 419.869,506.306 420.869,511.306 421,516.5C 421.5,524.493 421.666,532.493 421.5,540.5 Z"/></g>
<g><path style="opacity:1" fill="#22211f" d="M 397.5,552.5 C 395.238,545.479 394.071,538.146 394,530.5C 389.939,540.682 386.272,551.015 383,561.5C 382.617,562.056 382.117,562.389 381.5,562.5C 384.644,550.068 388.977,538.068 394.5,526.5C 395.324,535.196 396.324,543.863 397.5,552.5 Z"/></g>
<g><path style="opacity:1" fill="#232220" d="M 440.5,478.5 C 445.072,505.164 441.572,530.831 430,555.5C 428.285,558.397 425.785,559.731 422.5,559.5C 421.759,553.529 421.425,547.529 421.5,541.5C 422.043,547.225 423.21,552.892 425,558.5C 427.487,556.191 429.487,553.524 431,550.5C 435.085,540.493 438.085,530.16 440,519.5C 440.5,505.837 440.667,492.171 440.5,478.5 Z"/></g>
<g><path style="opacity:1" fill="#21201f" d="M 216.5,562.5 C 212.597,552.638 208.763,542.638 205,532.5C 204.967,538.762 204.134,544.762 202.5,550.5C 203.124,543.518 203.624,536.518 204,529.5C 206.167,531.83 207.834,534.497 209,537.5C 212.011,545.698 214.511,554.031 216.5,562.5 Z"/></g>
<g><path style="opacity:1" fill="#201f1e" d="M 253.5,522.5 C 254.914,540.38 254.581,558.38 252.5,576.5C 251.127,576.657 249.793,576.49 248.5,576C 242,570.833 236.167,565 231,558.5C 231.075,564.249 229.908,569.583 227.5,574.5C 228.774,568.255 229.774,561.922 230.5,555.5C 236.833,562.5 243.5,569.167 250.5,575.5C 253.154,557.944 254.154,540.278 253.5,522.5 Z"/></g>
<g><path style="opacity:1" fill="#21201f" d="M 343.5,523.5 C 342.827,542.084 343.827,560.417 346.5,578.5C 345.434,579.692 344.601,579.359 344,577.5C 342.295,559.358 342.128,541.358 343.5,523.5 Z"/></g>
<g><path style="opacity:1" fill="#21201f" d="M 158.5,470.5 C 157.523,492.019 159.023,513.352 163,534.5C 164.881,543.595 168.881,551.595 175,558.5C 175.333,558.167 175.667,557.833 176,557.5C 177.304,543.21 178.304,528.877 179,514.5C 179.182,511.774 179.682,509.107 180.5,506.5C 180.833,506.833 181.167,507.167 181.5,507.5C 182.854,523.791 184.021,540.124 185,556.5C 185.186,560.681 186.019,564.681 187.5,568.5C 186.883,568.611 186.383,568.944 186,569.5C 184.908,566.956 184.241,564.289 184,561.5C 182.827,544.512 181.827,527.512 181,510.5C 180.086,526.552 178.752,542.552 177,558.5C 175.951,559.517 174.784,559.684 173.5,559C 168.572,553.313 165.072,546.813 163,539.5C 157.604,516.62 156.104,493.62 158.5,470.5 Z"/></g>
<g><path style="opacity:1" fill="#21201f" d="M 369.5,569.5 C 368.368,566.372 367.535,563.038 367,559.5C 361.694,567.555 354.861,573.888 346.5,578.5C 354.884,571.614 362.051,563.614 368,554.5C 368.611,559.496 369.111,564.496 369.5,569.5 Z"/></g>
</svg>
