<?xml version="1.0" encoding="UTF-8"?>
<!DOCTYPE svg PUBLIC "-//W3C//DTD SVG 1.1//EN" "http://www.w3.org/Graphics/SVG/1.1/DTD/svg11.dtd">
<svg xmlns="http://www.w3.org/2000/svg" version="1.1" width="600px" height="600px" style="shape-rendering:geometricPrecision; text-rendering:geometricPrecision; image-rendering:optimizeQuality; fill-rule:evenodd; clip-rule:evenodd" xmlns:xlink="http://www.w3.org/1999/xlink">
<g><path style="opacity:0.95" fill="#010101" d="M 179.5,0.5 C 191.18,0.0903438 200.68,4.42368 208,13.5C 213.993,25.4648 219.993,37.4648 226,49.5C 242.127,74.2484 257.627,99.4151 272.5,125C 281.75,123.753 291.083,122.919 300.5,122.5C 310.837,122.563 321.004,123.896 331,126.5C 344.402,102.698 358.069,79.0317 372,55.5C 378.441,43.5048 384.108,31.1714 389,18.5C 403.477,-2.36816 420.644,-4.86816 440.5,11C 448.236,19.6273 454.069,29.4606 458,40.5C 473.136,88.3136 481.469,137.314 483,187.5C 484.194,221.557 483.361,255.557 480.5,289.5C 484.886,329.419 486.053,369.419 484,409.5C 479.227,445.879 463.727,476.713 437.5,502C 432.244,506.48 426.244,508.147 419.5,507C 412.456,520.752 403.456,533.085 392.5,544C 389.003,546.583 385.336,548.916 381.5,551C 377.892,552.661 374.225,552.995 370.5,552C 364.005,562.583 355.339,570.916 344.5,577C 329.85,584.575 315.016,591.742 300,598.5C 280.602,590.718 262.102,581.218 244.5,570C 238.424,564.595 233.091,558.595 228.5,552C 221.887,552.845 215.887,551.178 210.5,547C 204.667,542.5 199.5,537.333 195,531.5C 189.458,523.587 184.292,515.42 179.5,507C 172.177,508.251 165.844,506.251 160.5,501C 128.321,468.667 112.655,429.5 113.5,383.5C 114.048,366.835 114.548,350.168 115,333.5C 115.45,320.428 116.617,307.428 118.5,294.5C 111.17,214.115 117.337,134.782 137,56.5C 140.921,41.6612 147.254,27.9945 156,15.5C 162.281,7.79229 170.114,2.79229 179.5,0.5 Z"/></g>
<g><path style="opacity:1" fill="#262526" d="M 177.5,11.5 C 186.888,9.90454 194.388,12.9045 200,20.5C 205.791,33.4144 212.124,46.081 219,58.5C 236.089,83.6669 251.922,109.667 266.5,136.5C 267.5,136.833 268.5,137.167 269.5,137.5C 278.716,135.186 288.05,133.519 297.5,132.5C 311.242,133.823 324.909,135.323 338.5,137C 353.352,108.795 368.852,80.962 385,53.5C 389.954,41.9611 395.288,30.6278 401,19.5C 410.96,9.41519 421.46,8.91519 432.5,18C 440.397,26.9172 446.23,37.0839 450,48.5C 460.513,82.4009 467.18,117.068 470,152.5C 474.738,198.521 474.571,244.521 469.5,290.5C 474.076,328.031 475.576,365.698 474,403.5C 470.779,439.773 455.946,470.273 429.5,495C 427.655,496.128 425.655,496.628 423.5,496.5C 423.779,491.773 424.446,487.107 425.5,482.5C 423.097,482.393 421.264,483.393 420,485.5C 411.75,500.339 402.75,514.672 393,528.5C 389.133,532.702 384.967,536.535 380.5,540C 378.655,541.128 376.655,541.628 374.5,541.5C 375.088,537.108 375.088,532.774 374.5,528.5C 369.087,535.658 363.921,542.991 359,550.5C 352.768,557.73 345.601,563.897 337.5,569C 324.791,574.789 312.291,580.956 300,587.5C 283.563,580.468 267.73,572.302 252.5,563C 242.093,553.601 233.593,542.768 227,530.5C 225.989,529.663 224.822,529.33 223.5,529.5C 224.162,533.466 224.495,537.466 224.5,541.5C 217.178,539.066 211.012,534.733 206,528.5C 196.541,515.03 187.874,501.03 180,486.5C 178.429,484.077 176.263,482.744 173.5,482.5C 174.796,487.062 175.462,491.729 175.5,496.5C 172.774,496.736 170.441,495.903 168.5,494C 142.124,468.927 127.624,438.093 125,401.5C 124.039,365.1 125.206,328.767 128.5,292.5C 123.573,229.135 126.407,166.135 137,103.5C 135.94,117.119 135.107,130.786 134.5,144.5C 134.591,152.194 135.091,159.861 136,167.5C 138.634,171.935 141.134,176.435 143.5,181C 142.238,185.623 142.905,189.956 145.5,194C 139.089,207.427 143.256,215.26 158,217.5C 163.148,217.005 167.982,215.505 172.5,213C 188.506,196.187 206.173,181.52 225.5,169C 237.443,158.511 242.276,145.344 240,129.5C 236.998,125.788 233.998,122.122 231,118.5C 230.667,116.167 230.333,113.833 230,111.5C 228.485,109.323 226.985,107.156 225.5,105C 227.246,100.287 227.746,95.4541 227,90.5C 219.744,76.3203 212.744,61.987 206,47.5C 202.753,38.2001 198.753,29.2001 194,20.5C 188.51,15.2271 182.01,13.3937 174.5,15C 172.631,16.6017 170.631,17.6017 168.5,18C 171.402,15.5828 174.402,13.4161 177.5,11.5 Z"/></g>
<g><path style="opacity:1" fill="#030303" d="M 412.5,17.5 C 421.442,17.0885 428.609,20.4219 434,27.5C 444.134,44.5604 451.134,62.8937 455,82.5C 461.182,109.834 463.515,137.5 462,165.5C 461.654,168.576 460.988,171.576 460,174.5C 454.738,179.499 451.905,185.665 451.5,193C 459.667,205.833 456.667,214.833 442.5,220C 437.761,220.726 433.095,220.393 428.5,219C 417.466,208.298 406.133,197.964 394.5,188C 386.16,182.495 377.493,177.495 368.5,173C 356.698,162.639 352.865,149.806 357,134.5C 359.704,130.42 362.871,126.753 366.5,123.5C 367.224,120.385 368.724,117.718 371,115.5C 371.053,110.805 370.553,106.138 369.5,101.5C 369.542,98.7414 370.042,96.0747 371,93.5C 381.823,71.0245 392.157,48.3578 402,25.5C 404.885,21.7509 408.385,19.0842 412.5,17.5 Z"/></g>
<g><path style="opacity:1" fill="#f9c9c6" d="M 178.5,24.5 C 182.025,24.3459 184.859,25.6792 187,28.5C 196.497,51.6587 206.664,74.492 217.5,97C 215.43,104.855 213.597,112.688 212,120.5C 214.46,119.042 216.627,117.209 218.5,115C 219.332,114.312 219.998,114.479 220.5,115.5C 218.475,121.576 217.141,127.576 216.5,133.5C 219.196,132.149 221.53,130.316 223.5,128C 224.448,127.517 225.448,127.351 226.5,127.5C 226.108,130.722 226.608,133.722 228,136.5C 228.915,135.672 229.581,134.672 230,133.5C 231.466,145.408 227.299,154.908 217.5,162C 198.71,174.447 181.376,188.78 165.5,205C 160.579,208.71 156.246,208.21 152.5,203.5C 155.441,196.452 158.774,189.618 162.5,183C 162.167,182.5 161.833,182 161.5,181.5C 158.42,182.789 155.586,184.455 153,186.5C 154.355,180.446 156.855,174.779 160.5,169.5C 160,169.167 159.5,168.833 159,168.5C 156.106,169.697 153.273,171.03 150.5,172.5C 149.853,169.546 149.686,166.546 150,163.5C 149.667,163.167 149.333,162.833 149,162.5C 148.167,163.5 147.333,164.5 146.5,165.5C 141.966,119.729 149.466,76.0628 169,34.5C 171.696,30.6393 174.863,27.306 178.5,24.5 Z"/></g>
<g><path style="opacity:1" fill="#f8c9c6" d="M 414.5,27.5 C 419.422,27.8995 423.255,30.2328 426,34.5C 433.622,48.029 439.289,62.3623 443,77.5C 451.558,107.455 454.058,137.788 450.5,168.5C 449.281,167.737 448.281,166.737 447.5,165.5C 446.676,168.785 446.176,172.118 446,175.5C 442.647,173.044 439.147,171.711 435.5,171.5C 439.112,176.058 441.612,181.058 443,186.5C 440.579,185.039 438.079,183.706 435.5,182.5C 435.167,183 434.833,183.5 434.5,184C 438.815,190.797 442.482,197.963 445.5,205.5C 444.331,209.011 441.831,210.677 438,210.5C 434.058,209.611 430.558,207.778 427.5,205C 413.017,187.837 395.684,174.504 375.5,165C 366.629,158.221 363.629,149.388 366.5,138.5C 367.719,139.263 368.719,140.263 369.5,141.5C 370.208,138.634 370.875,135.8 371.5,133C 372.167,132.333 372.833,132.333 373.5,133C 375.47,135.316 377.804,137.149 380.5,138.5C 380.833,138 381.167,137.5 381.5,137C 379.509,132.206 378.509,127.372 378.5,122.5C 380.316,123.815 381.983,125.315 383.5,127C 384.5,127.667 385.5,127.667 386.5,127C 383.667,118.85 381.333,110.517 379.5,102C 389.079,81.0082 398.246,59.8415 407,38.5C 408.582,34.106 411.082,30.4393 414.5,27.5 Z"/></g>
<g><path style="opacity:1" fill="#f5f5f5" d="M 356.5,488.5 C 367.762,476.726 375.929,463.059 381,447.5C 381.667,442.833 381.667,438.167 381,433.5C 379.987,445.222 376.654,456.222 371,466.5C 365.041,474.897 356.875,479.23 346.5,479.5C 333.5,478.906 320.833,476.073 308.5,471C 309.738,470.31 309.738,469.81 308.5,469.5C 301.821,463.905 300.821,457.405 305.5,450C 317.659,446.491 326.825,439.325 333,428.5C 336.906,416.199 333.073,407.366 321.5,402C 305.222,396.831 289.222,397.497 273.5,404C 262.042,414.55 261.542,425.716 272,437.5C 278.297,443.069 285.464,447.235 293.5,450C 298.429,457.887 297.096,464.553 289.5,470C 289.728,470.399 290.062,470.565 290.5,470.5C 286.441,472.465 282.108,473.965 277.5,475C 268.985,476.352 260.651,477.852 252.5,479.5C 238.618,479.138 229.118,472.471 224,459.5C 220.535,450.839 218.868,441.839 219,432.5C 216.859,441.811 217.859,450.811 222,459.5C 227.834,470.494 235.001,480.494 243.5,489.5C 185.698,461.249 160.198,414.916 167,350.5C 168.295,334.688 171.628,319.355 177,304.5C 178.814,303.24 180.647,303.24 182.5,304.5C 186.766,315.265 194.432,322.431 205.5,326C 230.076,330.935 254.409,329.935 278.5,323C 283.418,321.48 286.585,318.314 288,313.5C 289.846,306.935 291.18,300.269 292,293.5C 292.78,282.812 293.78,272.145 295,261.5C 295.364,258.751 296.697,256.751 299,255.5C 300.261,255.759 301.261,256.426 302,257.5C 304.518,268.674 305.851,280.007 306,291.5C 306.981,300.407 308.981,309.074 312,317.5C 318.453,323.102 325.953,326.602 334.5,328C 350.445,330.864 366.445,331.198 382.5,329C 396.128,327.77 407.294,321.937 416,311.5C 416.837,309.649 417.671,307.816 418.5,306C 423.12,304.462 426.287,305.962 428,310.5C 433.243,339.712 434.243,369.046 431,398.5C 426.521,424.956 414.354,447.123 394.5,465C 383.702,474.235 372.035,482.235 359.5,489C 358.251,489.74 357.251,489.573 356.5,488.5 Z"/></g>
<g><path style="opacity:1" fill="#3da2d6" d="M 229.5,270.5 C 243.518,268.591 253.685,273.925 260,286.5C 263.734,302.534 257.901,313.367 242.5,319C 221.488,320.321 211.321,310.487 212,289.5C 214.955,280.383 220.789,274.05 229.5,270.5 Z"/></g>
<g><path style="opacity:1" fill="#3da2d7" d="M 355.5,270.5 C 371.181,268.363 381.681,274.697 387,289.5C 387.679,310.487 377.512,320.321 356.5,319C 343.159,314.15 336.992,304.65 338,290.5C 340.525,280.816 346.358,274.15 355.5,270.5 Z"/></g>
<g><path style="opacity:1" fill="#a0d4f1" d="M 230.5,275.5 C 248,274.171 256.5,282.171 256,299.5C 251.647,311.431 243.147,316.264 230.5,314C 219.918,309.67 215.418,301.837 217,290.5C 219.29,283.383 223.79,278.383 230.5,275.5 Z"/></g>
<g><path style="opacity:1" fill="#a0d4f1" d="M 356.5,275.5 C 368.725,273.589 377.225,278.255 382,289.5C 382.948,307.552 374.448,315.719 356.5,314C 344.045,307.967 340.212,298.467 345,285.5C 347.818,280.839 351.651,277.505 356.5,275.5 Z"/></g>
<g><path style="opacity:1" fill="#251c19" d="M 239.5,284.5 C 236.249,288.774 237.082,291.774 242,293.5C 243.699,293.613 244.866,292.947 245.5,291.5C 249.097,299.862 246.097,304.862 236.5,306.5C 226.456,304.228 223.289,298.228 227,288.5C 230.394,284.369 234.561,283.036 239.5,284.5 Z"/></g>
<g><path style="opacity:1" fill="#251c1a" d="M 365.5,285.5 C 362.86,287.879 362.86,290.379 365.5,293C 368.614,294.087 370.947,293.254 372.5,290.5C 375.357,299.754 371.857,305.088 362,306.5C 353.623,304.425 350.289,299.092 352,290.5C 354.746,285.544 358.913,283.377 364.5,284C 365.056,284.383 365.389,284.883 365.5,285.5 Z"/></g>
<g><path style="opacity:1" fill="#f4f4f5" d="M 239.5,284.5 C 244.903,284.222 246.903,286.555 245.5,291.5C 244.866,292.947 243.699,293.613 242,293.5C 237.082,291.774 236.249,288.774 239.5,284.5 Z"/></g>
<g><path style="opacity:1" fill="#f3f4f4" d="M 372.5,290.5 C 370.947,293.254 368.614,294.087 365.5,293C 362.86,290.379 362.86,287.879 365.5,285.5C 370.084,283.962 372.418,285.628 372.5,290.5 Z"/></g>
<g><path style="opacity:1" fill="#1c1012" d="M 308.5,469.5 C 302.342,467.851 296.342,468.185 290.5,470.5C 290.062,470.565 289.728,470.399 289.5,470C 297.096,464.553 298.429,457.887 293.5,450C 285.464,447.235 278.297,443.069 272,437.5C 261.542,425.716 262.042,414.55 273.5,404C 289.222,397.497 305.222,396.831 321.5,402C 333.073,407.366 336.906,416.199 333,428.5C 326.825,439.325 317.659,446.491 305.5,450C 300.821,457.405 301.821,463.905 308.5,469.5 Z"/></g>
<g><path style="opacity:1" fill="#1d1213" d="M 252.5,479.5 C 251.109,499.067 255.609,517.067 266,533.5C 282.337,548.467 300.837,551.634 321.5,543C 333.829,535.202 341.329,524.036 344,509.5C 346.05,499.606 346.883,489.606 346.5,479.5C 356.875,479.23 365.041,474.897 371,466.5C 376.654,456.222 379.987,445.222 381,433.5C 381.667,438.167 381.667,442.833 381,447.5C 375.929,463.059 367.762,476.726 356.5,488.5C 354.187,490.209 352.687,492.543 352,495.5C 348.733,507.3 345.067,518.966 341,530.5C 333.643,543.608 322.477,551.442 307.5,554C 289.135,556.398 273.968,550.565 262,536.5C 255.808,523.752 251.142,510.419 248,496.5C 246.974,493.761 245.474,491.428 243.5,489.5C 235.001,480.494 227.834,470.494 222,459.5C 217.859,450.811 216.859,441.811 219,432.5C 218.868,441.839 220.535,450.839 224,459.5C 229.118,472.471 238.618,479.138 252.5,479.5 Z"/></g>
<g><path style="opacity:1" fill="#f19799" d="M 308.5,469.5 C 309.738,469.81 309.738,470.31 308.5,471C 320.833,476.073 333.5,478.906 346.5,479.5C 346.883,489.606 346.05,499.606 344,509.5C 341.329,524.036 333.829,535.202 321.5,543C 300.837,551.634 282.337,548.467 266,533.5C 255.609,517.067 251.109,499.067 252.5,479.5C 260.651,477.852 268.985,476.352 277.5,475C 282.108,473.965 286.441,472.465 290.5,470.5C 296.342,468.185 302.342,467.851 308.5,469.5 Z"/></g>
</svg>
