<?xml version="1.0" encoding="UTF-8"?>
<!DOCTYPE svg PUBLIC "-//W3C//DTD SVG 1.1//EN" "http://www.w3.org/Graphics/SVG/1.1/DTD/svg11.dtd">
<svg xmlns="http://www.w3.org/2000/svg" version="1.1" width="600px" height="600px" style="shape-rendering:geometricPrecision; text-rendering:geometricPrecision; image-rendering:optimizeQuality; fill-rule:evenodd; clip-rule:evenodd" xmlns:xlink="http://www.w3.org/1999/xlink">
<g><path style="opacity:0.952" fill="#030201" d="M 599.5,307.5 C 599.5,322.5 599.5,337.5 599.5,352.5C 593.125,355.36 587.125,354.693 581.5,350.5C 581.167,351 580.833,351.5 580.5,352C 587.792,370.378 589.292,389.212 585,408.5C 581.386,430.238 577.386,451.904 573,473.5C 570.793,482.351 565.293,485.684 556.5,483.5C 555.935,489.955 554.769,496.288 553,502.5C 549.769,506.849 545.603,508.515 540.5,507.5C 539.34,511.459 539.173,515.459 540,519.5C 541.455,531.395 543.288,543.229 545.5,555C 544.933,568.918 537.933,574.585 524.5,572C 519.714,568.882 515.214,565.382 511,561.5C 509.125,569.372 504.125,573.705 496,574.5C 458.912,564.394 430.912,542.727 412,509.5C 405.636,492.348 401.302,474.682 399,456.5C 397.128,475.191 393.462,493.525 388,511.5C 381.324,524.508 371.157,533.675 357.5,539C 339.001,545.188 320.001,547.688 300.5,546.5C 275.091,548.826 251.425,543.659 229.5,531C 221.982,525.8 216.482,518.966 213,510.5C 208.465,493.659 204.632,476.659 201.5,459.5C 199.211,475.113 195.711,490.446 191,505.5C 179.71,528.79 162.877,546.957 140.5,560C 129.386,566.642 117.552,571.475 105,574.5C 96.8838,573.715 91.8838,569.381 90,561.5C 84.8826,567.791 78.3826,571.791 70.5,573.5C 60.4759,571.801 55.4759,565.801 55.5,555.5C 58.7024,539.62 61.0357,523.62 62.5,507.5C 55.105,509.219 49.9383,506.552 47,499.5C 46.1368,494.173 45.3035,488.839 44.5,483.5C 37.2943,485.647 32.1276,483.313 29,476.5C 21.5752,446.802 15.7419,416.802 11.5,386.5C 12.2728,374.076 14.9394,362.076 19.5,350.5C 19.3333,350.167 19.1667,349.833 19,349.5C 13.0763,354.442 6.5763,355.442 -0.5,352.5C -0.5,337.833 -0.5,323.167 -0.5,308.5C 2.67957,301.136 6.17957,293.803 10,286.5C 8.98092,272.952 11.3143,259.952 17,247.5C 41.5421,204.969 69.2088,164.636 100,126.5C 117.641,106.187 137.141,88.0202 158.5,72C 173.513,51.9796 193.18,38.6462 217.5,32C 235.651,26.9015 254.151,24.7348 273,25.5C 292.355,26.7478 311.689,26.4145 331,24.5C 358.624,24.6146 384.79,30.7813 409.5,43C 416.115,47.2807 422.448,51.9474 428.5,57C 440.185,70.6837 453.185,83.017 467.5,94C 489.233,114.387 508.733,136.554 526,160.5C 542.581,184.661 558.915,208.994 575,233.5C 585.47,249.718 590.137,267.384 589,286.5C 592.53,293.561 596.03,300.561 599.5,307.5 Z"/></g>
<g><path style="opacity:1" fill="#e1c37d" d="M 434.5,80.5 C 445.542,97.7958 451.709,116.796 453,137.5C 454.814,178.034 452.814,218.367 447,258.5C 441.281,289.323 430.615,318.323 415,345.5C 410.797,355.608 407.297,365.941 404.5,376.5C 395.526,415.202 388.026,454.202 382,493.5C 379.534,510.967 370.034,522.8 353.5,529C 344.44,532.265 335.107,534.265 325.5,535C 308.833,535.667 292.167,535.667 275.5,535C 256.62,534.303 240.454,527.47 227,514.5C 223.162,508.323 220.495,501.656 219,494.5C 214.147,468.528 209.48,442.528 205,416.5C 201.71,401.413 198.21,386.413 194.5,371.5C 188.939,353.373 181.439,336.039 172,319.5C 155.341,278.536 147.008,235.87 147,191.5C 146.333,173.833 146.333,156.167 147,138.5C 148.66,117.357 154.827,97.6899 165.5,79.5C 180.007,60.2298 199.007,47.3965 222.5,41C 233.693,38.4138 245.026,36.7471 256.5,36C 279.836,36.463 303.17,36.2963 326.5,35.5C 355.211,34.5239 382.211,40.6905 407.5,54C 418.332,60.9992 427.332,69.8326 434.5,80.5 Z"/></g>
<g><path style="opacity:1" fill="#d3a364" d="M 165.5,79.5 C 154.827,97.6899 148.66,117.357 147,138.5C 146.333,156.167 146.333,173.833 147,191.5C 147.008,235.87 155.341,278.536 172,319.5C 181.439,336.039 188.939,353.373 194.5,371.5C 192.961,374.865 192.294,378.531 192.5,382.5C 194.744,413.68 193.244,444.68 188,475.5C 184.299,502.741 171.465,524.574 149.5,541C 137.388,550.393 124.055,557.726 109.5,563C 104.615,564.718 101.449,563.218 100,558.5C 101.759,545.619 97.5921,542.786 87.5,550C 83.5342,552.964 79.8675,556.297 76.5,560C 69.2231,564.672 65.8897,562.672 66.5,554C 68.3863,541.181 70.2196,528.348 72,515.5C 72.6667,505.833 72.6667,496.167 72,486.5C 71.3878,483.968 69.8878,483.135 67.5,484C 64.9536,487.59 62.7869,491.423 61,495.5C 59.9207,497.394 58.5874,497.727 57,496.5C 56.6667,485.833 56.3333,475.167 56,464.5C 55.5883,462.003 54.4216,460.003 52.5,458.5C 48.4486,463.062 44.9486,468.062 42,473.5C 41,474.833 40,474.833 39,473.5C 33.0232,448.307 27.6899,422.974 23,397.5C 22.3333,389.833 22.3333,382.167 23,374.5C 24.9258,366.056 27.2591,357.722 30,349.5C 30.9977,345.527 31.3311,341.527 31,337.5C 27.6754,335.188 24.1754,335.021 20.5,337C 16.5094,339.578 12.3427,341.745 8,343.5C 4.54085,342.611 3.04085,340.278 3.5,336.5C 6.06283,318.977 11.8962,302.643 21,287.5C 18.8356,271.327 22.169,256.327 31,242.5C 54.3652,205.098 79.6986,169.098 107,134.5C 124.808,114.186 144.308,95.8531 165.5,79.5 Z"/></g>
<g><path style="opacity:1" fill="#d3a364" d="M 434.5,80.5 C 466.95,105.782 495.117,135.115 519,168.5C 533,189.167 547,209.833 561,230.5C 568.278,241.723 573.944,253.723 578,266.5C 578.775,273.038 578.609,279.538 577.5,286C 583.003,296.508 587.836,307.341 592,318.5C 594.705,326.371 595.538,334.371 594.5,342.5C 592.926,343.631 591.259,343.798 589.5,343C 584.507,339.669 579.174,337.169 573.5,335.5C 567.903,336.526 566.07,339.859 568,345.5C 570.667,354.833 573.333,364.167 576,373.5C 576.667,381.833 576.667,390.167 576,398.5C 572.232,423.675 567.565,448.675 562,473.5C 561.107,474.711 560.274,474.711 559.5,473.5C 556.537,468.406 553.204,463.572 549.5,459C 547.591,458.552 546.424,459.385 546,461.5C 544.609,473.447 544.109,485.447 544.5,497.5C 543.178,497.67 542.011,497.337 541,496.5C 539.129,491.919 536.629,487.752 533.5,484C 531.112,483.135 529.612,483.968 529,486.5C 527.95,506.72 529.617,526.72 534,546.5C 534.781,551.554 534.614,556.554 533.5,561.5C 531.579,562.641 529.579,562.808 527.5,562C 522.5,557.667 517.5,553.333 512.5,549C 510.06,547.697 507.56,546.53 505,545.5C 504.228,545.645 503.561,545.978 503,546.5C 502.535,551.631 501.535,556.631 500,561.5C 497.503,563.478 494.669,563.978 491.5,563C 463.754,552.907 441.587,535.74 425,511.5C 417.952,497.277 413.285,482.277 411,466.5C 409.854,458.854 408.854,451.187 408,443.5C 406.8,421.523 406.134,399.523 406,377.5C 405.617,376.944 405.117,376.611 404.5,376.5C 407.297,365.941 410.797,355.608 415,345.5C 430.615,318.323 441.281,289.323 447,258.5C 452.814,218.367 454.814,178.034 453,137.5C 451.709,116.796 445.542,97.7958 434.5,80.5 Z"/></g>
<g><path style="opacity:1" fill="#d1a163" d="M 221.5,207.5 C 250.212,207.043 263.712,221.043 262,249.5C 255.893,269.478 242.393,278.312 221.5,276C 200.906,269.333 192.072,255.167 195,233.5C 199.21,220.003 208.044,211.336 221.5,207.5 Z"/></g>
<g><path style="opacity:1" fill="#d1a264" d="M 364.5,207.5 C 393.181,207.012 406.681,221.012 405,249.5C 398.549,268.982 385.049,277.816 364.5,276C 343.911,269.347 335.078,255.18 338,233.5C 342.21,220.003 351.044,211.336 364.5,207.5 Z"/></g>
<g><path style="opacity:1" fill="#231815" d="M 224.5,217.5 C 245.194,217.691 254.361,228.024 252,248.5C 245.516,264.451 234.016,269.617 217.5,264C 205.673,256.574 201.839,246.074 206,232.5C 209.966,224.693 216.133,219.693 224.5,217.5 Z"/></g>
<g><path style="opacity:1" fill="#241915" d="M 369.5,217.5 C 392.69,220.881 400.19,233.548 392,255.5C 382.209,266.243 370.709,268.41 357.5,262C 344.218,248.636 344.218,235.303 357.5,222C 361.432,219.972 365.432,218.472 369.5,217.5 Z"/></g>
<g><path style="opacity:1" fill="#f2f2f2" d="M 220.5,226.5 C 228.161,225.663 231.661,228.996 231,236.5C 226.473,243.053 221.806,243.053 217,236.5C 216.182,232.469 217.349,229.136 220.5,226.5 Z"/></g>
<g><path style="opacity:1" fill="#f1f1f1" d="M 362.5,226.5 C 370.161,225.663 373.661,228.996 373,236.5C 368.473,243.053 363.806,243.053 359,236.5C 358.333,234.5 358.333,232.5 359,230.5C 360.376,229.295 361.542,227.962 362.5,226.5 Z"/></g>
<g><path style="opacity:1" fill="#231815" d="M 297.5,406.5 C 312.693,406.117 327.026,409.284 340.5,416C 351.565,425.763 354.398,437.596 349,451.5C 337.757,468.976 321.424,478.31 300,479.5C 279.724,478.368 263.724,469.701 252,453.5C 243.866,431.935 250.699,417.435 272.5,410C 280.904,408.284 289.238,407.117 297.5,406.5 Z"/></g>
</svg>
