<?xml version="1.0" encoding="UTF-8"?>
<!DOCTYPE svg PUBLIC "-//W3C//DTD SVG 1.1//EN" "http://www.w3.org/Graphics/SVG/1.1/DTD/svg11.dtd">
<svg xmlns="http://www.w3.org/2000/svg" version="1.1" width="600px" height="600px" style="shape-rendering:geometricPrecision; text-rendering:geometricPrecision; image-rendering:optimizeQuality; fill-rule:evenodd; clip-rule:evenodd" xmlns:xlink="http://www.w3.org/1999/xlink">
<g><path style="opacity:0.95" fill="#010000" d="M 599.5,317.5 C 599.5,327.5 599.5,337.5 599.5,347.5C 594.686,351.334 589.519,352.001 584,349.5C 585.794,357.363 587.294,365.363 588.5,373.5C 587.124,383.128 584.624,392.461 581,401.5C 574.391,416.385 568.058,431.385 562,446.5C 558.855,450.66 554.855,451.993 550,450.5C 549.811,455.357 548.811,460.024 547,464.5C 544.194,467.603 540.694,469.27 536.5,469.5C 537.259,480.628 538.925,491.628 541.5,502.5C 541.79,512.608 536.956,518.275 527,519.5C 521.136,518.402 516.136,515.736 512,511.5C 506.73,519.475 499.563,521.641 490.5,518C 464.852,509.671 444.352,494.504 429,472.5C 422.994,460.148 418.994,447.148 417,433.5C 414.804,438.42 412.804,443.42 411,448.5C 410.667,471.167 410.333,493.833 410,516.5C 407.828,535.007 397.494,545.007 379,546.5C 362.92,544.807 347.587,540.473 333,533.5C 310.949,537.359 288.949,537.359 267,533.5C 252.739,540.316 237.739,544.649 222,546.5C 206.09,545.927 196.09,537.927 192,522.5C 190.721,500.209 190.054,477.875 190,455.5C 188.518,447.719 185.851,440.386 182,433.5C 180.556,451.323 174.556,467.323 164,481.5C 148.958,498.867 130.458,511.034 108.5,518C 99.506,521.444 92.3394,519.277 87,511.5C 78.0963,521.183 69.0963,521.517 60,512.5C 58.9322,509.396 58.0989,506.229 57.5,503C 60.2033,491.946 62.2033,480.779 63.5,469.5C 53.3797,468.02 48.713,462.02 49.5,451.5C 45.1249,451.653 41.2916,450.32 38,447.5C 31.6089,431.718 24.9422,416.051 18,400.5C 14.3339,391.67 12.1672,382.503 11.5,373C 12.1158,365.371 13.4492,357.871 15.5,350.5C 9.6697,352.041 4.33637,351.041 -0.5,347.5C -0.5,337.833 -0.5,328.167 -0.5,318.5C 6.6752,302.488 15.1752,287.154 25,272.5C 29.2506,259.329 35.5839,247.329 44,236.5C 56.0506,220.424 69.0506,205.091 83,190.5C 95.8306,162.685 113.664,138.519 136.5,118C 197.129,75.0098 264.462,58.3431 338.5,68C 373.123,72.206 405.123,83.5393 434.5,102C 446.423,106.292 457.09,112.625 466.5,121C 479.788,133.449 491.288,147.282 501,162.5C 506.08,172.327 511.413,181.994 517,191.5C 535.833,210.861 552.5,231.861 567,254.5C 572.841,269.851 580.508,284.184 590,297.5C 593.487,304.136 596.654,310.803 599.5,317.5 Z"/></g>
<g><path style="opacity:1" fill="#5b453a" d="M 430.5,111.5 C 428.863,113.923 428.363,116.59 429,119.5C 442.293,135.753 451.627,154.086 457,174.5C 460.79,195.054 461.457,215.721 459,236.5C 456.231,262.114 452.064,287.447 446.5,312.5C 445.448,312.351 444.448,312.517 443.5,313C 435.779,320.721 428.113,328.387 420.5,336C 415.472,339.177 410.472,342.344 405.5,345.5C 394.432,351.032 383.099,356.032 371.5,360.5C 371.229,362.38 371.896,363.713 373.5,364.5C 373.631,365.239 373.464,365.906 373,366.5C 339.123,339.881 301.623,333.381 260.5,347C 248.316,351.871 237.15,358.371 227,366.5C 227.498,364.473 227.331,362.473 226.5,360.5C 201.335,349.818 179.001,334.984 159.5,316C 157.113,315.436 155.113,314.27 153.5,312.5C 143.217,271.905 138.717,230.572 140,188.5C 143.587,162.036 153.92,138.702 171,118.5C 171.667,117.167 171.667,115.833 171,114.5C 169.052,113.891 167.218,113.224 165.5,112.5C 206.415,87.1112 251.082,75.1112 299.5,76.5C 335.924,76.0152 370.924,82.8485 404.5,97C 413.678,101.085 422.345,105.918 430.5,111.5 Z"/></g>
<g><path style="opacity:1" fill="#48302b" d="M 165.5,112.5 C 167.218,113.224 169.052,113.891 171,114.5C 171.667,115.833 171.667,117.167 171,118.5C 153.92,138.702 143.587,162.036 140,188.5C 138.717,230.572 143.217,271.905 153.5,312.5C 153.485,316.56 153.985,320.56 155,324.5C 160.361,345.61 165.528,366.61 170.5,387.5C 174.253,411.187 172.753,434.52 166,457.5C 155.051,478.778 138.551,494.278 116.5,504C 110.712,506.711 104.712,508.378 98.5,509C 96.385,504.838 95.385,500.338 95.5,495.5C 91.8945,495.799 88.5612,496.965 85.5,499C 81.8333,502 78.1667,505 74.5,508C 72.7412,508.798 71.0745,508.631 69.5,507.5C 68.4149,504.227 68.2483,500.894 69,497.5C 73.2899,482.434 74.9565,467.1 74,451.5C 73.8832,448.371 72.3832,447.205 69.5,448C 67.2879,450.921 65.4545,454.088 64,457.5C 62.9887,458.337 61.8221,458.67 60.5,458.5C 60.9172,449.085 60.4172,439.752 59,430.5C 57.9505,429.483 56.7839,429.316 55.5,430C 52.7886,433.922 49.9553,437.756 47,441.5C 38.7986,423.091 31.132,404.425 24,385.5C 22.8489,381.563 22.0156,377.563 21.5,373.5C 22.8693,363.224 25.3693,353.224 29,343.5C 31.575,335.912 29.075,333.079 21.5,335C 18.3388,336.413 15.3388,338.08 12.5,340C 8.18942,341.139 6.18942,339.472 6.5,335C 11.1151,315.271 19.6151,297.438 32,281.5C 35.6205,272.629 39.6205,263.963 44,255.5C 57.7719,234.718 73.4385,215.385 91,197.5C 102.944,172.23 118.777,149.73 138.5,130C 146.596,122.731 155.596,116.898 165.5,112.5 Z"/></g>
<g><path style="opacity:1" fill="#48302b" d="M 430.5,111.5 C 446.948,117.767 460.781,127.767 472,141.5C 479.487,150.476 486.487,159.809 493,169.5C 498.16,179.825 503.827,189.825 510,199.5C 527.23,217.053 542.563,236.053 556,256.5C 560,265.167 564,273.833 568,282.5C 578.891,296.615 586.891,312.281 592,329.5C 592.789,333.091 592.622,336.591 591.5,340C 586.524,339.527 581.858,337.86 577.5,335C 569.925,333.079 567.425,335.912 570,343.5C 572.62,350.405 574.953,357.405 577,364.5C 577.818,370.902 577.484,377.235 576,383.5C 569.056,402.336 561.722,421.003 554,439.5C 552.817,440.731 551.651,440.731 550.5,439.5C 548.36,436.193 546.026,433.026 543.5,430C 542.216,429.316 541.049,429.483 540,430.5C 538.647,439.775 538.147,449.109 538.5,458.5C 537.325,458.719 536.325,458.386 535.5,457.5C 533.912,453.59 531.579,450.257 528.5,447.5C 526.06,449.109 524.893,451.443 525,454.5C 524.94,468.358 526.607,482.024 530,495.5C 531.715,510.783 527.215,512.616 516.5,501C 513.22,498.713 509.72,496.88 506,495.5C 505.228,495.645 504.561,495.978 504,496.5C 503.84,500.287 503.174,503.954 502,507.5C 501.044,508.894 499.711,509.561 498,509.5C 472.322,502.143 451.989,487.476 437,465.5C 426.721,440.705 423.888,415.038 428.5,388.5C 430.971,382.689 432.638,376.523 433.5,370C 433.415,368.893 433.081,367.893 432.5,367C 438.331,349.175 442.998,331.009 446.5,312.5C 452.064,287.447 456.231,262.114 459,236.5C 461.457,215.721 460.79,195.054 457,174.5C 451.627,154.086 442.293,135.753 429,119.5C 428.363,116.59 428.863,113.923 430.5,111.5 Z"/></g>
<g><path style="opacity:1" fill="#c17f28" d="M 234.5,188.5 C 246.466,187.569 255.966,191.902 263,201.5C 263.464,209.057 259.964,213.89 252.5,216C 239.143,216.812 231.143,210.645 228.5,197.5C 228.298,192.873 230.298,189.873 234.5,188.5 Z"/></g>
<g><path style="opacity:1" fill="#c27f28" d="M 355.5,188.5 C 372.076,186.554 376.576,192.888 369,207.5C 360.293,218.214 350.626,219.214 340,210.5C 337.237,204.415 338.404,199.248 343.5,195C 347.434,192.536 351.434,190.369 355.5,188.5 Z"/></g>
<g><path style="opacity:1" fill="#bf7d28" d="M 207.5,211.5 C 235.821,209.988 249.321,223.321 248,251.5C 242.567,268.398 230.901,277.065 213,277.5C 190.57,272.985 180.57,259.318 183,236.5C 186.717,223.68 194.883,215.346 207.5,211.5 Z"/></g>
<g><path style="opacity:1" fill="#be7d28" d="M 377.5,211.5 C 397.46,208.887 410.96,216.887 418,235.5C 421.09,255.502 413.256,269.002 394.5,276C 374.258,279.633 360.758,271.8 354,252.5C 350.947,232.606 358.781,218.94 377.5,211.5 Z"/></g>
<g><path style="opacity:1" fill="#241815" d="M 207.5,220.5 C 226.598,217.626 237.264,225.626 239.5,244.5C 239.383,254.237 235.049,261.404 226.5,266C 211.774,271.314 200.608,267.148 193,253.5C 188.887,238.478 193.72,227.478 207.5,220.5 Z"/></g>
<g><path style="opacity:1" fill="#241815" d="M 378.5,220.5 C 396.708,218.221 407.375,226.055 410.5,244C 408.395,261.103 398.729,269.103 381.5,268C 367.67,264.51 361.17,255.677 362,241.5C 363.266,231.078 368.766,224.078 378.5,220.5 Z"/></g>
<g><path style="opacity:1" fill="#f0f0f0" d="M 219.5,231.5 C 226.163,230.333 228.997,232.999 228,239.5C 224.952,243.01 221.619,243.343 218,240.5C 215.788,237.021 216.288,234.021 219.5,231.5 Z"/></g>
<g><path style="opacity:1" fill="#f5f5f5" d="M 390.5,231.5 C 399.865,230.936 401.865,234.436 396.5,242C 388.48,242.135 386.48,238.635 390.5,231.5 Z"/></g>
<g><path style="opacity:1" fill="#c28028" d="M 153.5,312.5 C 155.113,314.27 157.113,315.436 159.5,316C 179.001,334.984 201.335,349.818 226.5,360.5C 227.331,362.473 227.498,364.473 227,366.5C 237.15,358.371 248.316,351.871 260.5,347C 301.623,333.381 339.123,339.881 373,366.5C 373.464,365.906 373.631,365.239 373.5,364.5C 373.586,363.504 373.252,362.671 372.5,362C 384.119,357.524 395.119,352.024 405.5,345.5C 410.472,342.344 415.472,339.177 420.5,336C 428.113,328.387 435.779,320.721 443.5,313C 444.448,312.517 445.448,312.351 446.5,312.5C 442.998,331.009 438.331,349.175 432.5,367C 433.081,367.893 433.415,368.893 433.5,370C 432.638,376.523 430.971,382.689 428.5,388.5C 417.679,406.827 408.179,426.494 400,447.5C 399.667,470.5 399.333,493.5 399,516.5C 397.824,528.677 391.157,535.011 379,535.5C 372.375,535.035 365.875,533.868 359.5,532C 351.12,529.135 342.787,526.302 334.5,523.5C 323.955,516.818 312.455,512.485 300,510.5C 287.968,512.772 276.802,517.105 266.5,523.5C 256.87,526.641 247.204,529.808 237.5,533C 229.231,535.632 220.898,535.965 212.5,534C 206.359,530.226 202.859,524.726 202,517.5C 201.924,494.468 201.258,471.468 200,448.5C 192.032,426.582 182.199,406.248 170.5,387.5C 165.528,366.61 160.361,345.61 155,324.5C 153.985,320.56 153.485,316.56 153.5,312.5 Z"/></g>
<g><path style="opacity:1" fill="#6e5037" d="M 405.5,345.5 C 395.119,352.024 384.119,357.524 372.5,362C 373.252,362.671 373.586,363.504 373.5,364.5C 371.896,363.713 371.229,362.38 371.5,360.5C 383.099,356.032 394.432,351.032 405.5,345.5 Z"/></g>
<g><path style="opacity:1" fill="#221814" d="M 298.5,392.5 C 311.688,392.454 324.354,394.954 336.5,400C 351.821,409.494 356.987,422.994 352,440.5C 347.696,452.269 340.196,461.436 329.5,468C 308.149,481.399 287.482,480.399 267.5,465C 251.726,453.29 245.559,437.79 249,418.5C 253.656,406.232 262.489,398.732 275.5,396C 283.239,394.351 290.906,393.185 298.5,392.5 Z"/></g>
<g><path style="opacity:1" fill="#926836" d="M 334.5,523.5 C 311.826,526.128 289.159,526.128 266.5,523.5C 276.802,517.105 287.968,512.772 300,510.5C 312.455,512.485 323.955,516.818 334.5,523.5 Z"/></g>
</svg>
