<?xml version="1.0" encoding="UTF-8"?>
<!DOCTYPE svg PUBLIC "-//W3C//DTD SVG 1.1//EN" "http://www.w3.org/Graphics/SVG/1.1/DTD/svg11.dtd">
<svg xmlns="http://www.w3.org/2000/svg" version="1.1" width="600px" height="600px" style="shape-rendering:geometricPrecision; text-rendering:geometricPrecision; image-rendering:optimizeQuality; fill-rule:evenodd; clip-rule:evenodd" xmlns:xlink="http://www.w3.org/1999/xlink">
<g><path style="opacity:0.969" fill="#020101" d="M 261.5,-0.5 C 290.5,-0.5 319.5,-0.5 348.5,-0.5C 414.639,15.8165 452.806,57.8165 463,125.5C 473.844,145.186 484.177,165.186 494,185.5C 502.11,203.274 506.443,221.941 507,241.5C 504.732,320.025 511.732,397.692 528,474.5C 534.997,503.486 541.83,532.486 548.5,561.5C 547.591,576.25 540.257,586.417 526.5,592C 517.207,595.154 507.873,597.654 498.5,599.5C 484.833,599.5 471.167,599.5 457.5,599.5C 408.072,589.24 377.905,559.24 367,509.5C 363.489,495.944 360.489,482.278 358,468.5C 353.348,465.514 349.348,461.847 346,457.5C 339.455,445.628 332.121,434.295 324,423.5C 312.029,411.272 300.362,411.605 289,424.5C 281.499,435.498 274.499,446.832 268,458.5C 265.035,462.56 261.535,466.06 257.5,469C 253.803,491.289 248.303,513.122 241,534.5C 227.025,569.318 201.858,590.984 165.5,599.5C 146.167,599.5 126.833,599.5 107.5,599.5C 96.167,597.439 85.8337,592.939 76.5,586C 70.6558,579.481 67.3225,571.815 66.5,563C 80.5351,511.158 91.3684,458.658 99,405.5C 102.143,380.592 104.143,355.592 105,330.5C 105.333,298.833 105.667,267.167 106,235.5C 107.407,217.28 112.074,199.946 120,183.5C 128.744,165.677 137.744,148.011 147,130.5C 155.617,60.7323 193.783,17.0657 261.5,-0.5 Z"/></g>
<g><path style="opacity:1" fill="#282726" d="M 453.5,129.5 C 454.228,173.91 448.061,217.577 435,260.5C 423.732,293.972 413.065,327.638 403,361.5C 402.832,378.338 402.332,395.005 401.5,411.5C 401.667,384.831 401.5,358.165 401,331.5C 399.595,328.381 399.095,325.048 399.5,321.5C 413.243,279.037 420.076,235.37 420,190.5C 413.667,200.833 407.333,211.167 401,221.5C 394.271,230.349 387.104,238.683 379.5,246.5C 369.874,224.145 360.707,201.478 352,178.5C 338.553,145.43 336.886,111.763 347,77.5C 351.07,65.9556 354.737,54.2889 358,42.5C 360.352,31.0622 356.852,21.8955 347.5,15C 340.882,10.5578 333.549,8.22447 325.5,8C 306.218,5.5237 287.218,6.85703 268.5,12C 255.773,18.2863 250.607,28.453 253,42.5C 260.072,62.0546 265.738,82.0546 270,102.5C 272.157,118.219 271.824,133.885 269,149.5C 259.762,181.718 248.262,213.052 234.5,243.5C 227.188,238.354 221.021,232.021 216,224.5C 208.907,213.593 202.074,202.593 195.5,191.5C 195.44,190.957 195.107,190.624 194.5,190.5C 193.189,194.984 193.189,199.317 194.5,203.5C 196.119,242.227 202.786,279.893 214.5,316.5C 213.538,335.133 213.205,353.799 213.5,372.5C 203.738,341.049 193.238,309.716 182,278.5C 165.918,231.616 157.418,183.616 156.5,134.5C 159.832,98.9632 173.832,68.4632 198.5,43C 229.352,17.3244 265.018,4.82436 305.5,5.5C 344.525,5.11802 379.191,16.9514 409.5,41C 434.531,65.2072 449.198,94.7072 453.5,129.5 Z"/></g>
<g><path style="opacity:1" fill="#eaecea" d="M 339.5,426.5 C 337.375,402.617 338.708,378.95 343.5,355.5C 357.265,341.443 361.098,325.11 355,306.5C 347.368,296.429 337.202,290.596 324.5,289C 304.446,284.949 285.446,287.616 267.5,297C 257.509,305.97 253.676,317.137 256,330.5C 258.367,340.91 263.533,349.576 271.5,356.5C 273.541,367.748 275.041,379.081 276,390.5C 276.241,401.587 276.408,412.587 276.5,423.5C 271.173,431.478 266.34,439.812 262,448.5C 258.454,453.713 253.954,457.88 248.5,461C 240.184,462.425 234.35,459.258 231,451.5C 226.738,436.146 224.738,420.479 225,404.5C 223.175,373.157 223.175,341.824 225,310.5C 227.591,295.135 231.591,280.135 237,265.5C 250.109,235.28 262.109,204.613 273,173.5C 283.954,139.928 284.287,106.262 274,72.5C 270.663,62.4891 267.33,52.4891 264,42.5C 262.05,29.0917 267.883,21.2584 281.5,19C 297.824,17.0355 314.157,17.0355 330.5,19C 337.92,20.2767 343.42,24.1101 347,30.5C 347.667,34.5 347.667,38.5 347,42.5C 339.42,62.2407 334.087,82.574 331,103.5C 330.177,117.864 330.511,132.197 332,146.5C 335.319,161.459 339.653,176.126 345,190.5C 357.887,220.941 370.22,251.607 382,282.5C 387.554,300.86 390.554,319.527 391,338.5C 392.218,373.275 390.884,407.942 387,442.5C 385.418,452.91 379.584,459.244 369.5,461.5C 362.364,459.84 356.864,455.84 353,449.5C 348.488,441.806 343.988,434.139 339.5,426.5 Z"/></g>
<g><path style="opacity:1" fill="#c36a1e" d="M 233.5,83.5 C 249.276,84.2871 258.943,92.2871 262.5,107.5C 262.949,110.637 261.949,113.137 259.5,115C 250.379,112.711 241.046,111.045 231.5,110C 222.772,108.285 219.272,103.119 221,94.5C 224.127,89.54 228.294,85.8733 233.5,83.5 Z"/></g>
<g><path style="opacity:1" fill="#c36a1e" d="M 373.5,83.5 C 386.229,83.7309 392.729,90.0642 393,102.5C 390.362,106.128 386.862,108.628 382.5,110C 372.882,110.753 363.549,112.419 354.5,115C 352.129,113.257 350.795,110.923 350.5,108C 353.933,95.7369 361.6,87.5702 373.5,83.5 Z"/></g>
<g><path style="opacity:1" fill="#eaeaea" d="M 356.5,120.5 C 359.09,120.918 361.423,121.918 363.5,123.5C 358.581,136.999 363.081,145.332 377,148.5C 384.593,148.042 389.927,144.376 393,137.5C 394.667,138.833 396.333,140.167 398,141.5C 396.783,146.075 393.95,149.575 389.5,152C 373.354,159.259 361.854,154.759 355,138.5C 354.101,132.353 354.601,126.353 356.5,120.5 Z"/></g>
<g><path style="opacity:1" fill="#ececec" d="M 253.5,122.5 C 256.346,122.809 257.846,124.475 258,127.5C 259.146,147.687 249.646,157.187 229.5,156C 223.878,154.537 219.544,151.371 216.5,146.5C 218.204,144.959 220.037,143.625 222,142.5C 231.09,150.79 239.757,150.457 248,141.5C 250.962,136.353 251.128,131.186 248.5,126C 250.233,124.811 251.9,123.644 253.5,122.5 Z"/></g>
<g><path style="opacity:1" fill="#302826" d="M 453.5,129.5 C 467.588,154.343 480.088,180.01 491,206.5C 492.715,212.074 494.048,217.74 495,223.5C 491.758,336.805 506.092,447.805 538,556.5C 539.266,568.469 534.432,576.969 523.5,582C 501.365,589.491 478.698,591.491 455.5,588C 425.416,582.569 403.249,566.402 389,539.5C 379.392,517.734 372.892,495.067 369.5,471.5C 374.248,471.725 378.915,471.225 383.5,470C 387,466.5 390.5,463 394,459.5C 395.975,453.6 397.642,447.6 399,441.5C 399.122,431.406 399.956,421.406 401.5,411.5C 402.332,395.005 402.832,378.338 403,361.5C 413.065,327.638 423.732,293.972 435,260.5C 448.061,217.577 454.228,173.91 453.5,129.5 Z"/></g>
<g><path style="opacity:1" fill="#302826" d="M 156.5,134.5 C 157.418,183.616 165.918,231.616 182,278.5C 193.238,309.716 203.738,341.049 213.5,372.5C 213.401,398.322 215.234,423.989 219,449.5C 222.886,462.395 231.386,469.895 244.5,472C 243.991,483.237 242.158,494.404 239,505.5C 224.924,566.9 186.424,595.4 123.5,591C 109.48,590.135 96.4803,586.135 84.5,579C 77.714,571.969 75.8806,563.802 79,554.5C 108.744,448.546 121.411,340.546 117,230.5C 118.276,218.395 121.276,206.728 126,195.5C 135.653,174.861 145.819,154.528 156.5,134.5 Z"/></g>
<g><path style="opacity:1" fill="#c3691e" d="M 195.5,191.5 C 202.074,202.593 208.907,213.593 216,224.5C 221.021,232.021 227.188,238.354 234.5,243.5C 229.712,256.364 225.212,269.364 221,282.5C 217.611,293.612 215.444,304.945 214.5,316.5C 202.786,279.893 196.119,242.227 194.5,203.5C 194.183,199.298 194.517,195.298 195.5,191.5 Z"/></g>
<g><path style="opacity:1" fill="#c2691e" d="M 399.5,321.5 C 398.896,310.313 397.063,299.313 394,288.5C 389.853,274.226 385.02,260.226 379.5,246.5C 387.104,238.683 394.271,230.349 401,221.5C 407.333,211.167 413.667,200.833 420,190.5C 420.076,235.37 413.243,279.037 399.5,321.5 Z"/></g>
<g><path style="opacity:1" fill="#6c3f25" d="M 195.5,191.5 C 194.517,195.298 194.183,199.298 194.5,203.5C 193.189,199.317 193.189,194.984 194.5,190.5C 195.107,190.624 195.44,190.957 195.5,191.5 Z"/></g>
<g><path style="opacity:1" fill="#040405" d="M 343.5,355.5 C 336.218,360.145 328.552,364.312 320.5,368C 311.5,371.333 302.5,371.333 293.5,368C 285.752,364.702 278.419,360.868 271.5,356.5C 263.533,349.576 258.367,340.91 256,330.5C 253.676,317.137 257.509,305.97 267.5,297C 285.446,287.616 304.446,284.949 324.5,289C 337.202,290.596 347.368,296.429 355,306.5C 361.098,325.11 357.265,341.443 343.5,355.5 Z"/></g>
<g><path style="opacity:1" fill="#9d9d9b" d="M 343.5,355.5 C 338.708,378.95 337.375,402.617 339.5,426.5C 319.606,397.559 298.606,396.559 276.5,423.5C 276.408,412.587 276.241,401.587 276,390.5C 275.041,379.081 273.541,367.748 271.5,356.5C 278.419,360.868 285.752,364.702 293.5,368C 302.5,371.333 311.5,371.333 320.5,368C 328.552,364.312 336.218,360.145 343.5,355.5 Z"/></g>
</svg>
