<?xml version="1.0" encoding="UTF-8"?>
<!DOCTYPE svg PUBLIC "-//W3C//DTD SVG 1.1//EN" "http://www.w3.org/Graphics/SVG/1.1/DTD/svg11.dtd">
<svg xmlns="http://www.w3.org/2000/svg" version="1.1" width="600px" height="600px" style="shape-rendering:geometricPrecision; text-rendering:geometricPrecision; image-rendering:optimizeQuality; fill-rule:evenodd; clip-rule:evenodd" xmlns:xlink="http://www.w3.org/1999/xlink">
<g><path style="opacity:0.953" fill="#030202" d="M 599.5,201.5 C 599.5,221.833 599.5,242.167 599.5,262.5C 584.877,288.419 572.377,315.419 562,343.5C 555.51,363.798 549.176,384.131 543,404.5C 533.65,417.211 522.15,419.544 508.5,411.5C 505.104,429.711 498.937,447.045 490,463.5C 480.658,479.176 468.825,492.676 454.5,504C 448.658,508.182 442.491,509.015 436,506.5C 427.225,523.529 415.059,537.696 399.5,549C 393.602,552.727 387.269,554.06 380.5,553C 374.5,560.333 367.833,567 360.5,573C 340.846,582.15 321.179,590.983 301.5,599.5C 300.5,599.5 299.5,599.5 298.5,599.5C 280.774,591.638 263.107,583.472 245.5,575C 235.377,568.544 226.877,560.377 220,550.5C 214.847,553.012 209.68,552.845 204.5,550C 195.779,544.286 187.946,537.452 181,529.5C 175.667,521.5 170.333,513.5 165,505.5C 160.64,507.984 156.14,508.15 151.5,506C 118.383,481.974 98.883,449.474 93,408.5C 75.0841,420.417 62.0841,416.417 54,396.5C 40.9934,349.291 22.8268,304.291 -0.5,261.5C -0.5,241.833 -0.5,222.167 -0.5,202.5C 21.871,160.631 49.5377,122.465 82.5,88C 76.8871,79.803 78.2204,72.803 86.5,67C 88.0249,65.9914 89.6916,65.4914 91.5,65.5C 88.8297,60.3102 86.8297,54.8102 85.5,49C 85.9336,41.2845 89.9336,36.7845 97.5,35.5C 102.49,37.327 107.49,39.1603 112.5,41C 124.093,42.7035 135.593,44.8701 147,47.5C 152.915,45.8968 158.748,44.0635 164.5,42C 188.89,22.7417 216.556,10.4084 247.5,5C 299.208,-4.4971 349.541,0.169562 398.5,19C 411.364,25.8746 423.697,33.5413 435.5,42C 440.531,43.2064 445.531,44.5397 450.5,46C 467.829,44.9171 484.663,41.4171 501,35.5C 511.866,38.0632 515.532,44.7298 512,55.5C 510.561,58.6026 508.727,61.4359 506.5,64C 514.293,66.125 518.96,71.125 520.5,79C 520.064,82.434 518.73,85.434 516.5,88C 549.054,122.368 576.721,160.202 599.5,201.5 Z"/></g>
<g><path style="opacity:1" fill="#f2e5d9" d="M 451.5,57.5 C 454.495,59.0976 457.329,61.0976 460,63.5C 460.667,64.8333 460.667,66.1667 460,67.5C 457.46,69.7047 455.293,72.2047 453.5,75C 457.06,79.563 460.227,84.3963 463,89.5C 476.417,97.7923 489.917,105.959 503.5,114C 519.676,126.013 518.01,131.346 498.5,130C 497.376,130.839 496.709,132.006 496.5,133.5C 501.106,145.381 506.272,157.048 512,168.5C 516.208,179.291 519.708,190.291 522.5,201.5C 522.228,204.715 521.395,207.715 520,210.5C 506.46,201.02 500.127,204.353 501,220.5C 504.619,240.805 508.786,260.972 513.5,281C 514.522,287.905 511.855,290.405 505.5,288.5C 504.614,289.325 504.281,290.325 504.5,291.5C 502.533,291.739 500.699,291.406 499,290.5C 498.333,300.833 498.333,311.167 499,321.5C 501.947,326.066 503.78,331.066 504.5,336.5C 503.447,340.934 502.114,345.268 500.5,349.5C 502.146,354.155 501.813,358.655 499.5,363C 500.676,372.493 500.676,381.993 499.5,391.5C 499.312,397.682 498.312,403.682 496.5,409.5C 494.801,409.66 493.134,409.494 491.5,409C 488.005,405.749 484.005,403.249 479.5,401.5C 477.354,406.273 476.021,411.273 475.5,416.5C 476.491,424.485 476.657,432.485 476,440.5C 473.198,450.571 470.198,460.571 467,470.5C 464.005,473.987 462.172,477.987 461.5,482.5C 455.067,483.922 451.733,481.422 451.5,475C 447.042,466.579 442.208,458.412 437,450.5C 433.659,457.84 429.492,464.673 424.5,471C 420.658,471.458 416.991,470.791 413.5,469C 403.919,459.419 394.419,449.919 385,440.5C 382.033,437.604 381.199,434.27 382.5,430.5C 404.378,413.727 412.211,391.727 406,364.5C 401.533,346.764 394.533,330.098 385,314.5C 367.494,289.163 352.828,262.163 341,233.5C 337.338,220.857 333.672,208.19 330,195.5C 328.611,188.891 327.611,182.224 327,175.5C 327.599,143.173 327.933,110.84 328,78.5C 325.451,63.5714 319.284,50.4047 309.5,39C 303.137,34.4099 296.803,34.4099 290.5,39C 280.716,50.4047 274.549,63.5714 272,78.5C 272.067,110.84 272.401,143.173 273,175.5C 268.897,203.477 260.564,230.143 248,255.5C 235.009,280.156 221.009,304.156 206,327.5C 196.982,344.22 191.815,362.054 190.5,381C 190.018,403.217 199.018,420.051 217.5,431.5C 217.5,432.167 217.5,432.833 217.5,433.5C 210.583,440.59 203.749,447.923 197,455.5C 191.17,463.156 185.837,471.156 181,479.5C 177.143,485.559 173.809,485.559 171,479.5C 168.125,467.006 166.458,454.339 166,441.5C 160.505,456.323 153.671,470.49 145.5,484C 143.803,484.384 142.137,484.218 140.5,483.5C 137.381,477.262 134.214,470.929 131,464.5C 123.341,443.878 120.008,422.545 121,400.5C 120.667,399.833 120.333,399.167 120,398.5C 117.049,401.572 114.216,404.739 111.5,408C 109.702,409.505 107.868,409.672 106,408.5C 105.125,405.599 103.958,402.932 102.5,400.5C 101.873,395.859 101.54,391.193 101.5,386.5C 101.557,384.116 101.223,381.782 100.5,379.5C 101.427,375.623 102.427,371.79 103.5,368C 103.129,365.144 102.629,362.311 102,359.5C 101.586,359.957 101.086,360.291 100.5,360.5C 99.4105,356.858 99.4105,353.192 100.5,349.5C 98.7446,345.148 97.4113,340.648 96.5,336C 97.1257,331.996 98.2923,328.163 100,324.5C 100.5,313.505 100.667,302.505 100.5,291.5C 97.7224,291.978 95.7224,290.978 94.5,288.5C 90.0272,291.924 87.3606,290.924 86.5,285.5C 91.3153,262.904 95.8153,240.237 100,217.5C 101.426,212.243 100.259,207.743 96.5,204C 95.6667,203.833 94.8333,203.667 94,203.5C 89.4309,205.726 85.0976,208.393 81,211.5C 79.3468,211.18 78.3468,210.18 78,208.5C 77.3333,204.5 77.3333,200.5 78,196.5C 84.0921,177.318 92.0921,158.984 102,141.5C 104.015,137.5 103.849,133.666 101.5,130C 96.9336,130.925 92.2669,131.259 87.5,131C 85.7119,126.07 87.0452,122.07 91.5,119C 94.1667,117 96.8333,115 99.5,113C 112.252,105.542 124.752,97.7087 137,89.5C 139.969,84.3664 143.136,79.3664 146.5,74.5C 144.851,72.3501 143.018,70.3501 141,68.5C 140.333,66.8333 140.333,65.1667 141,63.5C 142.965,61.4497 145.132,59.783 147.5,58.5C 153.494,55.6084 159.828,53.7751 166.5,53C 196.743,28.5763 231.41,14.9096 270.5,12C 306.834,8.4552 342.5,11.7885 377.5,22C 397.307,28.8999 415.307,38.8999 431.5,52C 438.438,52.925 445.105,54.7583 451.5,57.5 Z"/></g>
<g><path style="opacity:1" fill="#f6f2ef" d="M 382.5,430.5 C 381.128,431.512 379.795,432.512 378.5,433.5C 369.447,436.564 360.114,437.897 350.5,437.5C 333.674,435.787 316.84,434.12 300,432.5C 282.26,433.399 264.76,435.066 247.5,437.5C 236.991,437.861 226.991,435.861 217.5,431.5C 199.018,420.051 190.018,403.217 190.5,381C 191.815,362.054 196.982,344.22 206,327.5C 221.009,304.156 235.009,280.156 248,255.5C 260.564,230.143 268.897,203.477 273,175.5C 272.401,143.173 272.067,110.84 272,78.5C 274.549,63.5714 280.716,50.4047 290.5,39C 296.803,34.4099 303.137,34.4099 309.5,39C 319.284,50.4047 325.451,63.5714 328,78.5C 327.933,110.84 327.599,143.173 327,175.5C 327.611,182.224 328.611,188.891 330,195.5C 333.672,208.19 337.338,220.857 341,233.5C 352.828,262.163 367.494,289.163 385,314.5C 394.533,330.098 401.533,346.764 406,364.5C 412.211,391.727 404.378,413.727 382.5,430.5 Z"/></g>
<g><path style="opacity:1" fill="#eedaca" d="M 147.5,58.5 C 145.132,59.783 142.965,61.4497 141,63.5C 140.333,65.1667 140.333,66.8333 141,68.5C 143.018,70.3501 144.851,72.3501 146.5,74.5C 143.136,79.3664 139.969,84.3664 137,89.5C 124.752,97.7087 112.252,105.542 99.5,113C 96.8333,115 94.1667,117 91.5,119C 87.0452,122.07 85.7119,126.07 87.5,131C 92.2669,131.259 96.9336,130.925 101.5,130C 103.849,133.666 104.015,137.5 102,141.5C 92.0921,158.984 84.0921,177.318 78,196.5C 77.3333,200.5 77.3333,204.5 78,208.5C 78.3468,210.18 79.3468,211.18 81,211.5C 85.0976,208.393 89.4309,205.726 94,203.5C 94.8333,203.667 95.6667,203.833 96.5,204C 100.259,207.743 101.426,212.243 100,217.5C 95.8153,240.237 91.3153,262.904 86.5,285.5C 87.3606,290.924 90.0272,291.924 94.5,288.5C 95.7224,290.978 97.7224,291.978 100.5,291.5C 100.667,302.505 100.5,313.505 100,324.5C 98.2923,328.163 97.1257,331.996 96.5,336C 97.4113,340.648 98.7446,345.148 100.5,349.5C 99.4105,353.192 99.4105,356.858 100.5,360.5C 101.086,360.291 101.586,359.957 102,359.5C 102.629,362.311 103.129,365.144 103.5,368C 102.427,371.79 101.427,375.623 100.5,379.5C 101.223,381.782 101.557,384.116 101.5,386.5C 100.732,385.737 100.232,384.737 100,383.5C 94.9293,392.85 87.7626,400.017 78.5,405C 70.9433,405.464 66.11,401.964 64,394.5C 50.9616,346.384 32.6283,300.384 9,256.5C 3.42876,240.937 3.09543,225.27 8,209.5C 12.3004,198.897 17.6337,188.897 24,179.5C 45.2111,146.792 69.5444,116.459 97,88.5C 97.7515,84.4047 95.9182,82.2381 91.5,82C 88.6593,78.8412 89.326,76.5078 93.5,75C 98.4984,74.2774 103.332,73.1107 108,71.5C 108.667,70.1667 108.667,68.8333 108,67.5C 103.6,63.0328 99.9338,58.0328 97,52.5C 96.5045,50.5273 96.3379,48.5273 96.5,46.5C 100.802,47.979 105.135,49.479 109.5,51C 122.454,52.7659 135.121,55.2659 147.5,58.5 Z"/></g>
<g><path style="opacity:1" fill="#eedaca" d="M 499.5,391.5 C 500.676,381.993 500.676,372.493 499.5,363C 501.813,358.655 502.146,354.155 500.5,349.5C 502.114,345.268 503.447,340.934 504.5,336.5C 503.78,331.066 501.947,326.066 499,321.5C 498.333,311.167 498.333,300.833 499,290.5C 500.699,291.406 502.533,291.739 504.5,291.5C 504.281,290.325 504.614,289.325 505.5,288.5C 511.855,290.405 514.522,287.905 513.5,281C 508.786,260.972 504.619,240.805 501,220.5C 500.127,204.353 506.46,201.02 520,210.5C 521.395,207.715 522.228,204.715 522.5,201.5C 519.708,190.291 516.208,179.291 512,168.5C 506.272,157.048 501.106,145.381 496.5,133.5C 496.709,132.006 497.376,130.839 498.5,130C 518.01,131.346 519.676,126.013 503.5,114C 489.917,105.959 476.417,97.7923 463,89.5C 460.227,84.3963 457.06,79.563 453.5,75C 455.293,72.2047 457.46,69.7047 460,67.5C 460.667,66.1667 460.667,64.8333 460,63.5C 457.329,61.0976 454.495,59.0976 451.5,57.5C 468.805,55.0072 485.805,51.3405 502.5,46.5C 502.662,48.5273 502.495,50.5273 502,52.5C 498.578,57.6776 494.911,62.6776 491,67.5C 490.333,68.8333 490.333,70.1667 491,71.5C 497.33,72.5902 503.33,74.5902 509,77.5C 509.684,78.7839 509.517,79.9505 508.5,81C 505.898,81.9771 503.398,83.1437 501,84.5C 500.333,85.5 500.333,86.5 501,87.5C 530.804,117.285 556.804,149.952 579,185.5C 583.861,193.888 588.194,202.554 592,211.5C 597.095,227.076 596.428,242.409 590,257.5C 565.639,302.251 546.973,349.251 534,398.5C 528.424,406.347 521.59,407.513 513.5,402C 508.954,397.123 504.787,391.956 501,386.5C 500.802,388.382 500.302,390.048 499.5,391.5 Z"/></g>
<g><path style="opacity:1" fill="#916936" d="M 206.5,187.5 C 224.979,185.152 237.813,192.485 245,209.5C 247.873,232.613 237.873,245.946 215,249.5C 192.868,246.611 182.535,233.944 184,211.5C 187.671,199.762 195.171,191.762 206.5,187.5 Z"/></g>
<g><path style="opacity:1" fill="#916936" d="M 376.5,187.5 C 404.714,186.32 417.214,199.654 414,227.5C 406.067,246.545 392.233,252.712 372.5,246C 353.828,234.649 349.328,219.149 359,199.5C 363.851,193.843 369.684,189.843 376.5,187.5 Z"/></g>
<g><path style="opacity:1" fill="#010100" d="M 208.5,195.5 C 225.846,193.359 235.846,200.859 238.5,218C 235.921,234.577 226.254,242.244 209.5,241C 193.773,234.848 188.606,223.682 194,207.5C 197.541,201.78 202.374,197.78 208.5,195.5 Z"/></g>
<g><path style="opacity:1" fill="#020101" d="M 377.5,195.5 C 399.808,194.302 409.308,204.635 406,226.5C 398.957,240.265 388.123,244.431 373.5,239C 362.25,231.585 358.75,221.419 363,208.5C 366.162,202.164 370.996,197.831 377.5,195.5 Z"/></g>
<g><path style="opacity:1" fill="#f2f2f2" d="M 218.5,200.5 C 227.681,201.647 230.347,206.313 226.5,214.5C 222.5,218.5 218.5,218.5 214.5,214.5C 210.987,208.391 212.32,203.724 218.5,200.5 Z"/></g>
<g><path style="opacity:1" fill="#f4f4f4" d="M 388.5,200.5 C 395.994,201.145 398.827,205.145 397,212.5C 396.5,214.333 395.333,215.5 393.5,216C 384.008,217.511 380.508,213.677 383,204.5C 384.5,202.531 386.333,201.198 388.5,200.5 Z"/></g>
<g><path style="opacity:1" fill="#000000" d="M 295.5,322.5 C 305.202,322.9 314.868,323.733 324.5,325C 355.155,333.14 363.322,351.306 349,379.5C 317.692,412.031 285.692,412.697 253,381.5C 241.97,366.366 241.803,351.2 252.5,336C 257.217,331.973 262.551,328.973 268.5,327C 277.527,324.785 286.527,323.285 295.5,322.5 Z"/></g>
<g><path style="opacity:1" fill="#ebd7c7" d="M 140.5,483.5 C 118.424,460.336 105.758,432.669 102.5,400.5C 103.958,402.932 105.125,405.599 106,408.5C 107.868,409.672 109.702,409.505 111.5,408C 114.216,404.739 117.049,401.572 120,398.5C 120.333,399.167 120.667,399.833 121,400.5C 120.008,422.545 123.341,443.878 131,464.5C 134.214,470.929 137.381,477.262 140.5,483.5 Z"/></g>
<g><path style="opacity:1" fill="#eddaca" d="M 496.5,409.5 C 493.107,437.949 481.44,462.282 461.5,482.5C 462.172,477.987 464.005,473.987 467,470.5C 470.198,460.571 473.198,450.571 476,440.5C 476.657,432.485 476.491,424.485 475.5,416.5C 476.021,411.273 477.354,406.273 479.5,401.5C 484.005,403.249 488.005,405.749 491.5,409C 493.134,409.494 494.801,409.66 496.5,409.5 Z"/></g>
<g><path style="opacity:1" fill="#040303" d="M 217.5,431.5 C 226.991,435.861 236.991,437.861 247.5,437.5C 248.747,448.038 250.08,458.704 251.5,469.5C 237.041,460.376 225.708,448.376 217.5,433.5C 217.5,432.833 217.5,432.167 217.5,431.5 Z"/></g>
<g><path style="opacity:1" fill="#f19da0" d="M 350.5,437.5 C 350.106,447.902 349.106,458.235 347.5,468.5C 344.743,481.257 339.91,493.257 333,504.5C 325.246,512.659 315.746,517.825 304.5,520C 282.961,521.65 267.461,512.817 258,493.5C 254.894,485.74 252.727,477.74 251.5,469.5C 250.08,458.704 248.747,448.038 247.5,437.5C 264.76,435.066 282.26,433.399 300,432.5C 316.84,434.12 333.674,435.787 350.5,437.5 Z"/></g>
<g><path style="opacity:1" fill="#eedaca" d="M 382.5,430.5 C 381.199,434.27 382.033,437.604 385,440.5C 394.419,449.919 403.919,459.419 413.5,469C 416.991,470.791 420.658,471.458 424.5,471C 429.492,464.673 433.659,457.84 437,450.5C 442.208,458.412 447.042,466.579 451.5,475C 451.733,481.422 455.067,483.922 461.5,482.5C 456.345,490.23 449.345,495.23 440.5,497.5C 440.311,492.839 440.978,488.339 442.5,484C 442,483.5 441.5,483 441,482.5C 439,484.5 437,486.5 435,488.5C 428.583,499.003 421.916,509.337 415,519.5C 407.756,529.586 398.59,537.253 387.5,542.5C 385.261,542.426 384.261,541.259 384.5,539C 384.934,536.432 385.6,533.932 386.5,531.5C 385.635,530.417 384.635,530.251 383.5,531C 375.265,543.237 365.598,554.237 354.5,564C 336.704,572.652 318.704,580.819 300.5,588.5C 289.954,583.727 279.287,579.227 268.5,575C 253.555,569.46 241.055,560.627 231,548.5C 226.749,541.416 221.583,535.083 215.5,529.5C 215.167,530.333 214.833,531.167 214.5,532C 215.286,535.458 215.62,538.958 215.5,542.5C 213.345,542.628 211.345,542.128 209.5,541C 204.044,537.213 198.877,533.046 194,528.5C 183.84,514.848 174.173,500.848 165,486.5C 163.429,484.077 161.263,482.744 158.5,482.5C 158.745,486.237 159.411,489.903 160.5,493.5C 160.78,495.623 159.947,496.956 158,497.5C 151.413,493.743 145.579,489.076 140.5,483.5C 142.137,484.218 143.803,484.384 145.5,484C 153.671,470.49 160.505,456.323 166,441.5C 166.458,454.339 168.125,467.006 171,479.5C 173.809,485.559 177.143,485.559 181,479.5C 185.837,471.156 191.17,463.156 197,455.5C 203.749,447.923 210.583,440.59 217.5,433.5C 225.708,448.376 237.041,460.376 251.5,469.5C 252.727,477.74 254.894,485.74 258,493.5C 267.461,512.817 282.961,521.65 304.5,520C 315.746,517.825 325.246,512.659 333,504.5C 339.91,493.257 344.743,481.257 347.5,468.5C 356.26,464.258 363.76,458.258 370,450.5C 373.581,445.672 376.915,440.672 380,435.5C 380.528,434.184 380.028,433.517 378.5,433.5C 379.795,432.512 381.128,431.512 382.5,430.5 Z"/></g>
<g><path style="opacity:1" fill="#060505" d="M 378.5,433.5 C 380.028,433.517 380.528,434.184 380,435.5C 376.915,440.672 373.581,445.672 370,450.5C 363.76,458.258 356.26,464.258 347.5,468.5C 349.106,458.235 350.106,447.902 350.5,437.5C 360.114,437.897 369.447,436.564 378.5,433.5 Z"/></g>
</svg>
