<?xml version="1.0" encoding="UTF-8"?>
<!DOCTYPE svg PUBLIC "-//W3C//DTD SVG 1.1//EN" "http://www.w3.org/Graphics/SVG/1.1/DTD/svg11.dtd">
<svg xmlns="http://www.w3.org/2000/svg" version="1.1" width="600px" height="600px" style="shape-rendering:geometricPrecision; text-rendering:geometricPrecision; image-rendering:optimizeQuality; fill-rule:evenodd; clip-rule:evenodd" xmlns:xlink="http://www.w3.org/1999/xlink">
<g><path style="opacity:0.965" fill="#020101" d="M 599.5,136.5 C 599.5,167.5 599.5,198.5 599.5,229.5C 590.098,273.219 571.931,312.885 545,348.5C 538.5,357.667 530.667,365.5 521.5,372C 507.277,378.788 492.944,379.122 478.5,373C 472.508,370.341 468.675,365.841 467,359.5C 465.744,354.552 464.744,349.552 464,344.5C 462.557,328.531 461.557,312.531 461,296.5C 455.89,311.275 451.556,326.275 448,341.5C 438.049,386.92 427.716,432.253 417,477.5C 414.39,506.951 411.39,536.284 408,565.5C 403.929,588.266 390.763,597.1 368.5,592C 347.754,581.368 333.921,564.868 327,542.5C 322.714,529.021 319.214,515.355 316.5,501.5C 306.167,501.5 295.833,501.5 285.5,501.5C 281.306,522.25 274.806,542.25 266,561.5C 257.183,575.991 245.016,586.491 229.5,593C 214.727,596.03 203.893,590.863 197,577.5C 195.204,573.317 193.871,568.984 193,564.5C 191.223,547.18 189.557,529.847 188,512.5C 178.483,469.065 170.15,425.399 163,381.5C 156.77,349.479 148.103,318.145 137,287.5C 136.563,303.51 135.896,319.51 135,335.5C 134.394,345.474 132.394,355.141 129,364.5C 123.385,371.836 115.885,376.002 106.5,377C 87.9647,378.978 72.798,372.812 61,358.5C 41.1168,333.419 24.7835,306.086 12,276.5C 6.88313,262.661 2.71646,248.661 -0.5,234.5C -0.5,201.167 -0.5,167.833 -0.5,134.5C 3.17577,128.311 7.84244,122.811 13.5,118C 34.0787,102.535 56.4121,89.8688 80.5,80C 112.854,65.8246 146.188,54.4913 180.5,46C 190.585,44.7708 200.252,46.2708 209.5,50.5C 269.016,29.1748 328.516,29.1748 388,50.5C 397.433,46.3496 407.267,44.8496 417.5,46C 467.221,58.239 514.554,76.5723 559.5,101C 571.803,107.965 582.97,116.465 593,126.5C 595.44,129.728 597.606,133.061 599.5,136.5 Z"/></g>
<g><path style="opacity:1" fill="#c38d44" d="M 388.5,61.5 C 388.315,63.1958 387.481,64.5291 386,65.5C 385.333,66.8333 385.333,68.1667 386,69.5C 427.484,92.7622 453.15,127.762 463,174.5C 466.065,188.684 467.898,203.018 468.5,217.5C 466.631,229.156 464.797,240.822 463,252.5C 456.597,276.039 449.597,299.373 442,322.5C 435.026,352.839 428.193,383.172 421.5,413.5C 420.833,406.167 420.167,398.833 419.5,391.5C 418.718,367.675 414.051,344.675 405.5,322.5C 426.086,285.911 432.586,246.911 425,205.5C 412.19,167.023 387.19,139.69 350,123.5C 325.904,160.332 320.57,199.665 334,241.5C 338.35,251.704 343.85,261.204 350.5,270C 349.906,270.464 349.239,270.631 348.5,270.5C 317.167,263.833 285.833,263.833 254.5,270.5C 253.761,270.631 253.094,270.464 252.5,270C 287.299,225.508 289.466,179.342 259,131.5C 257.477,128.445 255.477,125.778 253,123.5C 220.018,138.816 197.018,163.483 184,197.5C 174.326,235.144 177.326,271.811 193,307.5C 194.689,311.56 196.856,315.227 199.5,318.5C 189.401,340.384 184.067,363.384 183.5,387.5C 182.833,400.833 182.167,414.167 181.5,427.5C 174.014,375.571 161.514,324.904 144,275.5C 138.35,254.39 133.85,233.056 130.5,211.5C 130.857,169.24 144.69,132.24 172,100.5C 184.068,88.4739 197.401,78.1406 212,69.5C 212.667,68.1667 212.667,66.8333 212,65.5C 210.519,64.5291 209.685,63.1958 209.5,61.5C 269.156,39.2764 328.823,39.2764 388.5,61.5 Z"/></g>
<g><path style="opacity:1" fill="#4b4848" d="M 209.5,61.5 C 209.685,63.1958 210.519,64.5291 212,65.5C 212.667,66.8333 212.667,68.1667 212,69.5C 197.401,78.1406 184.068,88.4739 172,100.5C 144.69,132.24 130.857,169.24 130.5,211.5C 128.267,222.571 127.1,233.904 127,245.5C 126.201,276.175 125.201,306.842 124,337.5C 123.836,343.97 122.836,350.304 121,356.5C 118.447,361.703 114.28,364.87 108.5,366C 95.5469,368.72 84.0469,365.887 74,357.5C 31.7196,309.241 8.38622,252.908 4,188.5C 3.33333,178.167 3.33333,167.833 4,157.5C 4.98665,144.025 10.82,133.192 21.5,125C 49.668,105.414 80.0014,89.7475 112.5,78C 133.715,69.557 155.381,62.557 177.5,57C 182.455,55.7821 187.455,55.4488 192.5,56C 198.3,57.5448 203.967,59.3781 209.5,61.5 Z"/></g>
<g><path style="opacity:1" fill="#4b4848" d="M 468.5,217.5 C 467.898,203.018 466.065,188.684 463,174.5C 453.15,127.762 427.484,92.7622 386,69.5C 385.333,68.1667 385.333,66.8333 386,65.5C 387.481,64.5291 388.315,63.1958 388.5,61.5C 394.033,59.3781 399.7,57.5448 405.5,56C 410.53,55.586 415.53,55.9193 420.5,57C 466.536,69.2329 510.536,86.5662 552.5,109C 566.148,116.24 577.981,125.74 588,137.5C 590.929,143.881 592.929,150.548 594,157.5C 597.607,236.036 572.773,303.87 519.5,361C 509.774,366.156 499.44,367.822 488.5,366C 483.16,364.59 479.327,361.423 477,356.5C 475.164,350.304 474.164,343.97 474,337.5C 472.724,306.844 471.724,276.178 471,245.5C 470.728,235.966 469.895,226.632 468.5,217.5 Z"/></g>
<g><path style="opacity:1" fill="#aa7d45" d="M 254.5,270.5 C 244.235,274.127 234.235,278.627 224.5,284C 213.984,294.002 205.65,305.502 199.5,318.5C 196.856,315.227 194.689,311.56 193,307.5C 177.326,271.811 174.326,235.144 184,197.5C 197.018,163.483 220.018,138.816 253,123.5C 255.477,125.778 257.477,128.445 259,131.5C 289.466,179.342 287.299,225.508 252.5,270C 253.094,270.464 253.761,270.631 254.5,270.5 Z"/></g>
<g><path style="opacity:1" fill="#aa7d45" d="M 405.5,322.5 C 400.783,312.736 395.283,303.403 389,294.5C 377.534,283.019 364.034,275.019 348.5,270.5C 349.239,270.631 349.906,270.464 350.5,270C 343.85,261.204 338.35,251.704 334,241.5C 320.57,199.665 325.904,160.332 350,123.5C 387.19,139.69 412.19,167.023 425,205.5C 432.586,246.911 426.086,285.911 405.5,322.5 Z"/></g>
<g><path style="opacity:1" fill="#c28d44" d="M 222.5,160.5 C 248.336,160.168 260.836,172.835 260,198.5C 251.973,220.595 236.807,227.762 214.5,220C 198.659,209.479 194.159,195.312 201,177.5C 206.242,169.308 213.409,163.641 222.5,160.5 Z"/></g>
<g><path style="opacity:1" fill="#c28c44" d="M 366.5,160.5 C 385.328,158.82 397.828,166.82 404,184.5C 406.08,208.254 395.246,221.254 371.5,223.5C 349.438,219.254 339.938,205.92 343,183.5C 347.263,172.13 355.097,164.464 366.5,160.5 Z"/></g>
<g><path style="opacity:1" fill="#382f2b" d="M 238.5,175.5 C 233.45,177.264 231.95,180.598 234,185.5C 238.968,189.866 243.135,189.2 246.5,183.5C 251.101,199.628 245.101,208.961 228.5,211.5C 214.161,209.317 207.995,200.983 210,186.5C 216.078,173.361 225.578,169.695 238.5,175.5 Z"/></g>
<g><path style="opacity:1" fill="#382f2b" d="M 382.5,175.5 C 378.256,178.267 377.422,181.934 380,186.5C 384.561,189.487 388.394,188.82 391.5,184.5C 395.047,200.124 388.881,209.124 373,211.5C 361.006,210.506 354.839,204.006 354.5,192C 355.667,177.905 363.334,171.572 377.5,173C 379.491,173.374 381.158,174.207 382.5,175.5 Z"/></g>
<g><path style="opacity:1" fill="#f5f4f3" d="M 238.5,175.5 C 243.457,175.79 246.123,178.457 246.5,183.5C 243.135,189.2 238.968,189.866 234,185.5C 231.95,180.598 233.45,177.264 238.5,175.5 Z"/></g>
<g><path style="opacity:1" fill="#f5f4f3" d="M 382.5,175.5 C 389.167,174.833 392.167,177.833 391.5,184.5C 388.394,188.82 384.561,189.487 380,186.5C 377.422,181.934 378.256,178.267 382.5,175.5 Z"/></g>
<g><path style="opacity:1" fill="#4c4848" d="M 406.5,475.5 C 403.937,504.855 401.104,534.188 398,563.5C 393.812,582.845 382.979,588.012 365.5,579C 349.983,567.48 339.816,552.313 335,533.5C 331.003,519.176 327.169,504.842 323.5,490.5C 321.085,478.509 317.585,466.842 313,455.5C 305.749,444.901 298.416,444.901 291,455.5C 285.341,466.643 281.175,478.309 278.5,490.5C 275.022,502.043 271.856,513.709 269,525.5C 264.821,543.749 256.321,559.582 243.5,573C 238.678,577.156 233.345,580.489 227.5,583C 217.485,585.242 210.318,581.742 206,572.5C 203.772,566.36 202.439,560.026 202,553.5C 201.04,539.142 199.874,524.808 198.5,510.5C 197.356,490.837 196.189,471.17 195,451.5C 194.333,429.5 194.333,407.5 195,385.5C 195.916,360.163 202.583,336.496 215,314.5C 222.006,301.161 232.506,291.661 246.5,286C 269.443,277.598 293.11,274.598 317.5,277C 337.904,278.357 356.571,284.69 373.5,296C 393.192,318.375 404.359,344.542 407,374.5C 408.905,408.174 408.738,441.84 406.5,475.5 Z"/></g>
<g><path style="opacity:1" fill="#5c4529" d="M 406.5,475.5 C 408.738,441.84 408.905,408.174 407,374.5C 404.359,344.542 393.192,318.375 373.5,296C 356.571,284.69 337.904,278.357 317.5,277C 293.11,274.598 269.443,277.598 246.5,286C 232.506,291.661 222.006,301.161 215,314.5C 202.583,336.496 195.916,360.163 195,385.5C 194.333,407.5 194.333,429.5 195,451.5C 196.189,471.17 197.356,490.837 198.5,510.5C 192.99,469.847 191.156,428.847 193,387.5C 194.333,361.133 201.333,336.467 214,313.5C 218.406,306.424 223.572,299.924 229.5,294C 247.156,282.67 266.489,276.337 287.5,275C 310.757,273.74 333.424,276.74 355.5,284C 361.965,287.4 368.298,291.067 374.5,295C 393.362,316.234 404.528,341.067 408,369.5C 411.555,405.025 411.055,440.359 406.5,475.5 Z"/></g>
<g><path style="opacity:1" fill="#000000" d="M 300.5,334.5 C 316.71,334.266 332.043,337.766 346.5,345C 362.732,363.492 362.399,381.825 345.5,400C 332.925,411.119 318.258,417.619 301.5,419.5C 285.667,417.998 271.834,411.998 260,401.5C 259.667,401.833 259.333,402.167 259,402.5C 243.175,388.868 239.508,372.535 248,353.5C 253.854,345.48 261.687,340.313 271.5,338C 281.254,336.308 290.921,335.141 300.5,334.5 Z"/></g>
<g><path style="opacity:1" fill="#8b6530" d="M 183.5,387.5 C 183.667,403.837 183.5,420.17 183,436.5C 182.498,433.487 181.998,430.487 181.5,427.5C 182.167,414.167 182.833,400.833 183.5,387.5 Z"/></g>
<g><path style="opacity:1" fill="#8f6832" d="M 419.5,391.5 C 420.167,398.833 420.833,406.167 421.5,413.5C 421.108,415.179 420.608,416.846 420,418.5C 419.5,409.506 419.334,400.506 419.5,391.5 Z"/></g>
<g><path style="opacity:1" fill="#040404" d="M 219.5,403.5 C 226.486,403.331 228.153,406.164 224.5,412C 217.416,412.475 215.749,409.642 219.5,403.5 Z"/></g>
<g><path style="opacity:1" fill="#000000" d="M 381.5,404.5 C 386.493,404.997 387.493,407.164 384.5,411C 379.382,410.824 378.382,408.658 381.5,404.5 Z"/></g>
<g><path style="opacity:1" fill="#050505" d="M 240.5,421.5 C 246.264,421.86 247.931,424.693 245.5,430C 237.208,430.89 235.542,428.057 240.5,421.5 Z"/></g>
<g><path style="opacity:1" fill="#000000" d="M 361.5,422.5 C 367.5,424.492 367.833,427.158 362.5,430.5C 358.933,428.235 358.6,425.568 361.5,422.5 Z"/></g>
<g><path style="opacity:1" fill="#030303" d="M 214.5,440.5 C 220.487,439.977 222.487,442.477 220.5,448C 216.301,450.401 213.634,449.234 212.5,444.5C 212.752,442.927 213.418,441.594 214.5,440.5 Z"/></g>
<g><path style="opacity:1" fill="#000000" d="M 386.5,441.5 C 391.493,441.997 392.493,444.164 389.5,448C 384.382,447.824 383.382,445.658 386.5,441.5 Z"/></g>
<g><path style="opacity:1" fill="#383229" d="M 323.5,490.5 C 308.5,490.5 293.5,490.5 278.5,490.5C 281.175,478.309 285.341,466.643 291,455.5C 298.416,444.901 305.749,444.901 313,455.5C 317.585,466.842 321.085,478.509 323.5,490.5 Z"/></g>
<g><path style="opacity:1" fill="#050404" d="M 243.5,451.5 C 250.158,450.344 252.158,452.844 249.5,459C 245.167,461.374 242.501,460.041 241.5,455C 241.978,453.697 242.645,452.531 243.5,451.5 Z"/></g>
<g><path style="opacity:1" fill="#000000" d="M 356.5,452.5 C 363.399,453.277 364.066,455.61 358.5,459.5C 354.437,457.863 353.771,455.53 356.5,452.5 Z"/></g>
<g><path style="opacity:1" fill="#040404" d="M 220.5,473.5 C 227.486,473.331 229.153,476.164 225.5,482C 218.416,482.475 216.749,479.642 220.5,473.5 Z"/></g>
<g><path style="opacity:1" fill="#000000" d="M 380.5,474.5 C 384.976,474.8 386.31,476.967 384.5,481C 378.738,481.418 377.404,479.251 380.5,474.5 Z"/></g>
</svg>
