<?xml version="1.0" encoding="UTF-8"?>
<!DOCTYPE svg PUBLIC "-//W3C//DTD SVG 1.1//EN" "http://www.w3.org/Graphics/SVG/1.1/DTD/svg11.dtd">
<svg xmlns="http://www.w3.org/2000/svg" version="1.1" width="600px" height="600px" style="shape-rendering:geometricPrecision; text-rendering:geometricPrecision; image-rendering:optimizeQuality; fill-rule:evenodd; clip-rule:evenodd" xmlns:xlink="http://www.w3.org/1999/xlink">
<g><path style="opacity:0.972" fill="#020101" d="M 599.5,172.5 C 599.5,196.167 599.5,219.833 599.5,243.5C 588.782,260.936 579.615,279.269 572,298.5C 562.873,319.547 555.54,341.214 550,363.5C 547.065,375.567 540.565,385.067 530.5,392C 521.773,394.862 513.773,393.529 506.5,388C 501.917,384.088 498.083,379.588 495,374.5C 476.333,406.5 457.667,438.5 439,470.5C 432.923,485.802 427.923,501.469 424,517.5C 418.623,528.43 412.123,538.596 404.5,548C 390.539,558.127 375.872,559.127 360.5,551C 354.129,547.151 347.795,543.318 341.5,539.5C 318.96,546.577 295.96,548.41 272.5,545C 267.095,544.192 261.928,542.692 257,540.5C 245.124,549.436 231.791,554.77 217,556.5C 203.475,555.971 193.142,549.971 186,538.5C 178.828,525.32 173.828,511.32 171,496.5C 169.426,495.016 168.093,493.349 167,491.5C 163.183,483.234 159.517,474.9 156,466.5C 137.223,436.623 120.223,405.623 105,373.5C 100.255,383.249 92.755,389.749 82.5,393C 72.7184,394.694 64.885,391.527 59,383.5C 57,380.167 55,376.833 53,373.5C 40.7166,327.127 22.8832,283.127 -0.5,241.5C -0.5,218.833 -0.5,196.167 -0.5,173.5C 3.89484,165.054 9.06151,157.054 15,149.5C 59.5156,102.314 113.682,71.8138 177.5,58C 216.619,39.0753 257.952,29.9086 301.5,30.5C 336.548,30.3967 370.548,36.23 403.5,48C 411.288,51.394 418.955,55.0606 426.5,59C 486.735,72.6895 538.235,101.523 581,145.5C 588.202,153.855 594.368,162.855 599.5,172.5 Z"/></g>
<g><path style="opacity:1" fill="#2f2724" d="M 424.5,69.5 C 463.029,94.8239 487.529,130.157 498,175.5C 510.159,234.12 508.992,292.453 494.5,350.5C 488.992,365.186 481.658,378.852 472.5,391.5C 480.047,376.066 486.214,360.066 491,343.5C 492.353,336.208 492.686,328.875 492,321.5C 490.573,315.075 486.74,310.908 480.5,309C 475.5,308.333 470.5,308.333 465.5,309C 447.306,312.464 429.639,317.631 412.5,324.5C 409.16,319.17 405.327,314.17 401,309.5C 386.27,295.439 372.27,280.773 359,265.5C 351.403,255.317 345.07,244.317 340,232.5C 328.681,201.519 321.681,169.519 319,136.5C 316.876,111.509 314.876,86.5092 313,61.5C 312.43,56.0781 311.43,50.7448 310,45.5C 308.833,44.3333 307.667,43.1667 306.5,42C 348.226,41.0989 387.559,50.2655 424.5,69.5 Z"/></g>
<g><path style="opacity:1" fill="#2f2624" d="M 185.5,325.5 C 165.615,317.317 144.948,311.65 123.5,308.5C 111.812,308.188 105.479,313.855 104.5,325.5C 103.778,325.918 103.278,326.584 103,327.5C 96.5687,283.916 95.902,240.25 101,196.5C 106.833,151.997 126,114.497 158.5,84C 166.076,78.6548 173.076,73.4881 179.5,68.5C 213.996,51.1785 250.663,42.3452 289.5,42C 287.19,43.6374 285.69,45.804 285,48.5C 281.962,75.4324 279.629,102.432 278,129.5C 275.005,171.889 264.672,212.222 247,250.5C 238.104,264.064 228.437,277.064 218,289.5C 206.561,301.098 195.728,313.098 185.5,325.5 Z"/></g>
<g><path style="opacity:1" fill="#f4f4f4" d="M 296.5,48.5 C 299.05,48.5608 300.55,49.8941 301,52.5C 302.036,55.7527 302.703,59.086 303,62.5C 305.124,99.9884 308.791,137.322 314,174.5C 318.13,202.552 326.463,229.218 339,254.5C 343,260.5 347,266.5 351,272.5C 362.637,285.138 374.637,297.471 387,309.5C 404.585,326.666 415.919,347.332 421,371.5C 427.234,411.889 426.901,452.223 420,492.5C 418.076,509.525 410.576,523.358 397.5,534C 383.648,542.885 369.981,542.552 356.5,533C 340.915,518.75 326.748,503.25 314,486.5C 310.448,483.281 306.615,480.448 302.5,478C 297.306,476.758 292.64,477.758 288.5,481C 276.667,496.167 264.833,511.333 253,526.5C 236.153,543.424 217.986,544.924 198.5,531C 194.964,527.799 191.797,524.299 189,520.5C 181.153,500.249 176.82,479.249 176,457.5C 173.228,424.323 174.561,391.323 180,358.5C 182.93,349.973 186.93,341.973 192,334.5C 207.627,315.871 223.627,297.537 240,279.5C 256.972,256.614 268.972,231.281 276,203.5C 281.861,179.139 285.861,154.472 288,129.5C 289.777,107.175 291.444,84.8418 293,62.5C 293.254,57.5774 294.421,52.9107 296.5,48.5 Z"/></g>
<g><path style="opacity:1" fill="#3d3938" d="M 179.5,68.5 C 173.076,73.4881 166.076,78.6548 158.5,84C 126,114.497 106.833,151.997 101,196.5C 95.902,240.25 96.5687,283.916 103,327.5C 103.278,326.584 103.778,325.918 104.5,325.5C 104.028,333.381 105.028,341.047 107.5,348.5C 106.624,348.369 105.957,348.702 105.5,349.5C 100.998,362.364 93.6648,373.197 83.5,382C 75.9623,384.597 70.129,382.43 66,375.5C 64.6667,372.833 63.3333,370.167 62,367.5C 56.7147,345.598 49.7147,324.265 41,303.5C 30.286,277.674 18.6193,252.341 6,227.5C 1.07953,208.382 3.07953,190.049 12,172.5C 19.6246,159.865 29.1246,148.698 40.5,139C 80.1704,102.83 126.504,79.3301 179.5,68.5 Z"/></g>
<g><path style="opacity:1" fill="#3d3938" d="M 424.5,69.5 C 485.951,83.7949 537.785,114.128 580,160.5C 597.218,183.477 600.884,208.477 591,235.5C 567.452,277.93 549.452,322.597 537,369.5C 534.559,375.608 530.392,380.108 524.5,383C 520.88,383.841 517.546,383.174 514.5,381C 505.45,372.401 498.783,362.235 494.5,350.5C 508.992,292.453 510.159,234.12 498,175.5C 487.529,130.157 463.029,94.8239 424.5,69.5 Z"/></g>
<g><path style="opacity:1" fill="#c46a1e" d="M 203.5,152.5 C 223.657,152.151 237.157,161.484 244,180.5C 244.797,194.528 238.964,198.028 226.5,191C 217.784,189.958 209.118,188.624 200.5,187C 192.874,184.876 188.207,180.043 186.5,172.5C 186.466,169.567 187.299,166.9 189,164.5C 193.149,159.503 197.983,155.503 203.5,152.5 Z"/></g>
<g><path style="opacity:1" fill="#c46a1e" d="M 383.5,152.5 C 396.944,151.098 406.777,156.431 413,168.5C 413.67,178.196 409.17,184.363 399.5,187C 390.546,188.632 381.546,189.966 372.5,191C 358.266,197.445 353.1,192.945 357,177.5C 362.187,165.181 371.021,156.847 383.5,152.5 Z"/></g>
<g><path style="opacity:1" fill="#3d3938" d="M 199.5,197.5 C 220.877,199.543 232.543,211.21 234.5,232.5C 232.584,253.583 221.084,265.25 200,267.5C 178.934,265.267 167.434,253.601 165.5,232.5C 167.417,211.584 178.751,199.917 199.5,197.5 Z"/></g>
<g><path style="opacity:1" fill="#3d3938" d="M 399.5,197.5 C 420.877,199.543 432.543,211.21 434.5,232.5C 432.584,253.583 421.084,265.25 400,267.5C 378.934,265.267 367.434,253.601 365.5,232.5C 367.417,211.584 378.751,199.917 399.5,197.5 Z"/></g>
<g><path style="opacity:1" fill="#302826" d="M 194.5,209.5 C 211.613,207.958 221.279,215.625 223.5,232.5C 222.061,246.773 214.227,254.44 200,255.5C 185.596,254.596 178.096,246.929 177.5,232.5C 178.096,220.938 183.762,213.271 194.5,209.5 Z"/></g>
<g><path style="opacity:1" fill="#302826" d="M 394.5,209.5 C 413.662,208.498 423.162,217.498 423,236.5C 418.6,251.125 408.766,257.292 393.5,255C 381.465,250.288 375.965,241.454 377,228.5C 379.278,218.728 385.111,212.394 394.5,209.5 Z"/></g>
<g><path style="opacity:1" fill="#f8f8f8" d="M 205.5,217.5 C 214.818,217.655 216.818,221.488 211.5,229C 204.333,230.5 201.5,227.667 203,220.5C 203.698,219.309 204.531,218.309 205.5,217.5 Z"/></g>
<g><path style="opacity:1" fill="#f8f8f8" d="M 404.5,217.5 C 413.024,217.345 415.358,221.011 411.5,228.5C 404.202,230.701 401.036,228.034 402,220.5C 403.045,219.627 403.878,218.627 404.5,217.5 Z"/></g>
<g><path style="opacity:1" fill="#c56b1d" d="M 185.5,325.5 C 175.665,338.49 169.832,353.157 168,369.5C 164.179,400.791 163.512,432.124 166,463.5C 148.397,434.636 132.064,404.97 117,374.5C 113.531,365.925 110.364,357.258 107.5,348.5C 105.028,341.047 104.028,333.381 104.5,325.5C 105.479,313.855 111.812,308.188 123.5,308.5C 144.948,311.65 165.615,317.317 185.5,325.5 Z"/></g>
<g><path style="opacity:1" fill="#c56b1d" d="M 472.5,391.5 C 460.532,413.431 448.032,435.097 435,456.5C 436.275,430.097 435.275,403.764 432,377.5C 429.336,358.332 422.836,340.665 412.5,324.5C 429.639,317.631 447.306,312.464 465.5,309C 470.5,308.333 475.5,308.333 480.5,309C 486.74,310.908 490.573,315.075 492,321.5C 492.686,328.875 492.353,336.208 491,343.5C 486.214,360.066 480.047,376.066 472.5,391.5 Z"/></g>
<g><path style="opacity:1" fill="#000000" d="M 284.5,326.5 C 299.546,326.479 314.546,327.313 329.5,329C 337.618,330.818 345.285,333.818 352.5,338C 369.117,351.046 373.617,367.546 366,387.5C 359.936,399.564 351.103,409.064 339.5,416C 310.283,433.625 281.95,432.291 254.5,412C 235.248,398.664 227.748,380.498 232,357.5C 236.871,345.63 245.371,337.463 257.5,333C 266.381,329.752 275.381,327.585 284.5,326.5 Z"/></g>
<g><path style="opacity:1" fill="#4d4c4b" d="M 215.5,407.5 C 211.502,404.391 209.169,405.391 208.5,410.5C 207.183,405.655 209.183,403.822 214.5,405C 215.252,405.671 215.586,406.504 215.5,407.5 Z"/></g>
<g><path style="opacity:1" fill="#444343" d="M 391.5,410.5 C 390.831,405.391 388.498,404.391 384.5,407.5C 384.414,406.504 384.748,405.671 385.5,405C 390.817,403.822 392.817,405.655 391.5,410.5 Z"/></g>
<g><path style="opacity:1" fill="#151514" d="M 215.5,407.5 C 216.27,411.864 214.27,413.364 209.5,412C 208.944,411.617 208.611,411.117 208.5,410.5C 209.169,405.391 211.502,404.391 215.5,407.5 Z"/></g>
<g><path style="opacity:1" fill="#111111" d="M 391.5,410.5 C 389.989,412.441 387.989,412.941 385.5,412C 384.62,410.644 384.286,409.144 384.5,407.5C 388.498,404.391 390.831,405.391 391.5,410.5 Z"/></g>
<g><path style="opacity:1" fill="#131313" d="M 367.5,421.5 C 373.488,421.664 374.821,424.164 371.5,429C 365.403,429.147 364.07,426.647 367.5,421.5 Z"/></g>
<g><path style="opacity:1" fill="#161515" d="M 228.5,421.5 C 234.488,421.664 235.821,424.164 232.5,429C 226.403,429.147 225.07,426.647 228.5,421.5 Z"/></g>
<g><path style="opacity:1" fill="#131212" d="M 390.5,438.5 C 396.488,438.664 397.821,441.164 394.5,446C 388.403,446.147 387.07,443.647 390.5,438.5 Z"/></g>
<g><path style="opacity:1" fill="#0d0c0c" d="M 205.5,438.5 C 211.704,438.314 213.037,440.814 209.5,446C 203.403,446.147 202.07,443.647 205.5,438.5 Z"/></g>
<g><path style="opacity:1" fill="#191919" d="M 231.5,448.5 C 237.966,447.799 239.633,450.132 236.5,455.5C 230.77,456.41 229.103,454.077 231.5,448.5 Z"/></g>
<g><path style="opacity:1" fill="#151515" d="M 363.5,448.5 C 369.704,448.314 371.037,450.814 367.5,456C 361.95,455.635 360.617,453.135 363.5,448.5 Z"/></g>
<g><path style="opacity:1" fill="#151515" d="M 384.5,468.5 C 391.004,468.138 392.671,470.638 389.5,476C 383.785,476.401 382.119,473.901 384.5,468.5 Z"/></g>
<g><path style="opacity:1" fill="#121211" d="M 210.5,468.5 C 216.313,468.062 217.98,470.562 215.5,476C 208.745,476.756 207.078,474.256 210.5,468.5 Z"/></g>
</svg>
