<?xml version="1.0" encoding="UTF-8"?>
<!DOCTYPE svg PUBLIC "-//W3C//DTD SVG 1.1//EN" "http://www.w3.org/Graphics/SVG/1.1/DTD/svg11.dtd">
<svg xmlns="http://www.w3.org/2000/svg" version="1.1" width="600px" height="600px" style="shape-rendering:geometricPrecision; text-rendering:geometricPrecision; image-rendering:optimizeQuality; fill-rule:evenodd; clip-rule:evenodd" xmlns:xlink="http://www.w3.org/1999/xlink">
<g><path style="opacity:0.949" fill="#020202" d="M 599.5,185.5 C 599.5,191.167 599.5,196.833 599.5,202.5C 594.466,205.795 589.133,206.295 583.5,204C 571.312,196.741 559.646,188.741 548.5,180C 545.833,179.333 543.167,179.333 540.5,180C 534.549,185.973 527.882,190.973 520.5,195C 513.597,196.826 506.597,198.159 499.5,199C 484.498,216.008 467.664,230.841 449,243.5C 445.263,265.783 440.263,287.783 434,309.5C 423.666,344.168 412.333,378.501 400,412.5C 392.981,440.574 385.648,468.574 378,496.5C 364.963,524.66 342.796,538.326 311.5,537.5C 299.865,537.163 288.199,536.996 276.5,537C 247.224,534.371 228.057,519.204 219,491.5C 212.844,468.543 206.844,445.543 201,422.5C 182.716,373.315 167.049,323.315 154,272.5C 151.951,262.872 150.118,253.205 148.5,243.5C 129.577,231.091 112.577,216.257 97.5,199C 86.8866,198.932 77.2199,195.932 68.5,190C 65.1325,186.297 61.4658,182.964 57.5,180C 54.0357,179.183 50.7024,179.517 47.5,181C 37.0523,189.446 26.0523,197.113 14.5,204C 11.9471,204.761 9.44713,205.594 7,206.5C 4.40276,205.727 1.90276,204.727 -0.5,203.5C -0.5,196.833 -0.5,190.167 -0.5,183.5C 29.6036,152.293 62.9369,125.127 99.5,102C 116.364,91.9021 134.364,84.5687 153.5,80C 173.73,75.6428 192.063,79.6428 208.5,92C 216.099,99.2619 223.266,106.762 230,114.5C 275.846,99.9362 321.679,99.9362 367.5,114.5C 373.57,108.256 379.57,101.756 385.5,95C 402.535,80.1573 422.202,75.1573 444.5,80C 468.03,85.6002 489.696,95.2669 509.5,109C 542.067,131.393 572.067,156.893 599.5,185.5 Z"/></g>
<g><path style="opacity:1" fill="#5a453b" d="M 299.5,114.5 C 300.29,115.401 301.29,116.068 302.5,116.5C 305.934,119.881 307.601,124.047 307.5,129C 306.929,135.717 304.596,141.717 300.5,147C 284.181,148.301 273.348,156.801 268,172.5C 263.713,186.18 262.38,200.18 264,214.5C 268.329,233.489 272.662,252.489 277,271.5C 278.591,291.953 276.258,311.953 270,331.5C 258.45,362.818 246.117,393.818 233,424.5C 228.76,435.125 226.26,446.125 225.5,457.5C 224.833,461.5 224.167,465.5 223.5,469.5C 213.603,426.64 200.77,384.64 185,343.5C 176.107,316.157 168.44,288.49 162,260.5C 160.673,253.217 159.84,245.884 159.5,238.5C 167.879,213.618 180.712,191.285 198,171.5C 204.2,166.298 210.033,160.798 215.5,155C 210.664,143.477 206.83,131.643 204,119.5C 202.287,115.127 199.787,111.293 196.5,108C 183.611,105.539 170.944,106.539 158.5,111C 118.974,124.761 82.3073,143.761 48.5,168C 49.0944,168.464 49.7611,168.631 50.5,168.5C 49.0484,169.302 47.3817,169.802 45.5,170C 34.1667,178 22.8333,186 11.5,194C 10.1279,194.402 8.79457,194.902 7.5,195.5C 6.38615,194.277 6.21948,192.944 7,191.5C 39.0821,157.404 75.2488,128.571 115.5,105C 128.21,98.3108 141.543,93.3108 155.5,90C 171.846,86.5052 186.846,89.5052 200.5,99C 210.166,107.488 218.499,116.988 225.5,127.5C 235.762,123.024 246.429,119.858 257.5,118C 271.427,115.985 285.427,114.819 299.5,114.5 Z"/></g>
<g><path style="opacity:1" fill="#f4f4f4" d="M 548.5,168.5 C 512.268,141.551 472.268,121.718 428.5,109C 419.515,106.427 410.515,106.094 401.5,108C 398.129,111.236 395.629,115.069 394,119.5C 389.888,131.824 386.221,144.157 383,156.5C 408.895,177.283 426.561,203.616 436,235.5C 436.377,236.942 437.21,237.942 438.5,238.5C 437.663,247.197 436.496,255.863 435,264.5C 422.601,313.633 407.601,361.967 390,409.5C 383.179,435.119 376.512,460.785 370,486.5C 360.4,514.067 340.9,527.4 311.5,526.5C 297.497,526.731 283.497,526.231 269.5,525C 251.294,521.445 238.46,511.279 231,494.5C 229.007,488.193 227.174,481.86 225.5,475.5C 225.5,469.5 225.5,463.5 225.5,457.5C 226.26,446.125 228.76,435.125 233,424.5C 246.117,393.818 258.45,362.818 270,331.5C 276.258,311.953 278.591,291.953 277,271.5C 272.662,252.489 268.329,233.489 264,214.5C 262.38,200.18 263.713,186.18 268,172.5C 273.348,156.801 284.181,148.301 300.5,147C 304.596,141.717 306.929,135.717 307.5,129C 307.601,124.047 305.934,119.881 302.5,116.5C 306.298,115.517 310.298,115.183 314.5,115.5C 334.067,116.213 353.067,119.88 371.5,126.5C 372.442,126.392 373.275,126.059 374,125.5C 382.991,110.175 395.491,98.6755 411.5,91C 425.645,87.4976 439.645,88.1643 453.5,93C 478.269,101.713 500.935,114.047 521.5,130C 545.187,148.345 567.687,168.179 589,189.5C 590.559,191.217 591.392,193.217 591.5,195.5C 588.309,194.908 585.309,193.741 582.5,192C 571.312,183.91 559.979,176.077 548.5,168.5 Z"/></g>
<g><path style="opacity:1" fill="#7b6152" d="M 159.5,238.5 C 149.764,232.271 140.431,225.438 131.5,218C 122.167,208.667 112.833,199.333 103.5,190C 101.913,189.138 100.246,188.471 98.5,188C 92.7512,187.852 87.0845,187.186 81.5,186C 75.1667,181 68.8333,176 62.5,171C 58.7924,168.868 54.7924,168.035 50.5,168.5C 49.7611,168.631 49.0944,168.464 48.5,168C 82.3073,143.761 118.974,124.761 158.5,111C 170.944,106.539 183.611,105.539 196.5,108C 199.787,111.293 202.287,115.127 204,119.5C 206.83,131.643 210.664,143.477 215.5,155C 210.033,160.798 204.2,166.298 198,171.5C 180.712,191.285 167.879,213.618 159.5,238.5 Z"/></g>
<g><path style="opacity:1" fill="#7c6253" d="M 548.5,168.5 C 544.418,168.344 540.418,168.844 536.5,170C 529.784,175.717 522.784,181.05 515.5,186C 509.915,187.186 504.249,187.852 498.5,188C 497.167,188.667 495.833,189.333 494.5,190C 477.564,208.281 458.897,224.447 438.5,238.5C 437.21,237.942 436.377,236.942 436,235.5C 426.561,203.616 408.895,177.283 383,156.5C 386.221,144.157 389.888,131.824 394,119.5C 395.629,115.069 398.129,111.236 401.5,108C 410.515,106.094 419.515,106.427 428.5,109C 472.268,121.718 512.268,141.551 548.5,168.5 Z"/></g>
<g><path style="opacity:1" fill="#a3a3a2" d="M 299.5,114.5 C 304.695,114.179 309.695,114.513 314.5,115.5C 310.298,115.183 306.298,115.517 302.5,116.5C 301.29,116.068 300.29,115.401 299.5,114.5 Z"/></g>
<g><path style="opacity:1" fill="#030303" d="M 221.5,259.5 C 244.342,258.841 255.175,269.841 254,292.5C 249.081,308.55 238.248,315.383 221.5,313C 205.969,307.79 199.135,296.957 201,280.5C 204.016,269.652 210.849,262.652 221.5,259.5 Z"/></g>
<g><path style="opacity:1" fill="#030304" d="M 363.5,259.5 C 386.83,258.996 397.664,270.329 396,293.5C 390.538,308.819 379.705,315.319 363.5,313C 346.29,306.078 340.123,293.578 345,275.5C 349.217,267.774 355.384,262.441 363.5,259.5 Z"/></g>
<g><path style="opacity:1" fill="#ebebeb" d="M 234.5,272.5 C 241.825,271.992 244.658,275.326 243,282.5C 238.694,286.675 234.694,286.342 231,281.5C 229.98,277.553 231.147,274.553 234.5,272.5 Z"/></g>
<g><path style="opacity:1" fill="#e8e8e8" d="M 376.5,272.5 C 383.799,271.371 386.965,274.371 386,281.5C 381.155,287.079 376.822,286.746 373,280.5C 372.777,277.275 373.943,274.609 376.5,272.5 Z"/></g>
<g><path style="opacity:1" fill="#050404" d="M 287.5,433.5 C 301.345,432.636 314.679,434.803 327.5,440C 337.291,444.463 343.457,451.963 346,462.5C 351.981,489.369 341.815,506.869 315.5,515C 292.378,520.907 272.545,515.407 256,498.5C 247.409,482.857 247.409,467.19 256,451.5C 264.766,442.208 275.266,436.208 287.5,433.5 Z"/></g>
<g><path style="opacity:1" fill="#362e2b" d="M 289.5,439.5 C 298.618,439.132 307.618,439.966 316.5,442C 337.298,449.754 345.464,464.588 341,486.5C 333.725,501.736 321.558,509.902 304.5,511C 286.431,512.984 271.598,507.151 260,493.5C 250.238,472.124 255.404,455.624 275.5,444C 280.373,442.763 285.04,441.263 289.5,439.5 Z"/></g>
<g><path style="opacity:1" fill="#b6b3b1" d="M 225.5,457.5 C 225.5,463.5 225.5,469.5 225.5,475.5C 224.542,473.698 223.875,471.698 223.5,469.5C 224.167,465.5 224.833,461.5 225.5,457.5 Z"/></g>
</svg>
