<?xml version="1.0" encoding="UTF-8"?>
<!DOCTYPE svg PUBLIC "-//W3C//DTD SVG 1.1//EN" "http://www.w3.org/Graphics/SVG/1.1/DTD/svg11.dtd">
<svg xmlns="http://www.w3.org/2000/svg" version="1.1" width="600px" height="600px" style="shape-rendering:geometricPrecision; text-rendering:geometricPrecision; image-rendering:optimizeQuality; fill-rule:evenodd; clip-rule:evenodd" xmlns:xlink="http://www.w3.org/1999/xlink">
<g><path style="opacity:0.959" fill="#050403" d="M 599.5,87.5 C 599.5,107.833 599.5,128.167 599.5,148.5C 593.752,154.698 587.418,155.531 580.5,151C 570.212,137.599 561.046,123.433 553,108.5C 546.301,114.864 539.968,121.531 534,128.5C 523.333,143.833 512.667,159.167 502,174.5C 495.431,181.739 488.265,188.239 480.5,194C 491.203,233.457 496.036,273.623 495,314.5C 520.065,339.61 537.732,369.276 548,403.5C 548.165,418.265 541.165,423.265 527,418.5C 531.751,435.851 535.417,453.517 538,471.5C 539.098,478.385 538.431,485.051 536,491.5C 528.739,499.111 521.073,499.444 513,492.5C 514.684,506.571 513.017,520.238 508,533.5C 499.771,541.769 492.437,541.102 486,531.5C 483.683,540.098 481.349,548.765 479,557.5C 472.553,568.611 464.22,570.278 454,562.5C 453,560.5 452,558.5 451,556.5C 448.631,539.283 445.298,522.283 441,505.5C 435.897,514.812 428.397,518.145 418.5,515.5C 415.989,532.55 411.155,548.884 404,564.5C 398.643,572.066 391.81,573.9 383.5,570C 381.951,568.786 380.785,567.286 380,565.5C 373.527,576.665 364.861,578.999 354,572.5C 351.586,569.185 349.919,565.518 349,561.5C 341.981,576.257 330.481,582.423 314.5,580C 311.438,578.939 308.938,577.106 307,574.5C 303.598,567.907 301.265,560.907 300,553.5C 297.98,560.23 295.647,566.897 293,573.5C 284.205,582.657 274.372,583.824 263.5,577C 257.566,573.067 253.066,567.9 250,561.5C 247.444,573.521 240.278,578.021 228.5,575C 225.021,572.688 222.021,569.854 219.5,566.5C 211.328,574.702 203.495,574.368 196,565.5C 193.473,561.779 191.473,557.779 190,553.5C 186.007,541.031 182.84,528.364 180.5,515.5C 174.403,518.065 168.737,517.232 163.5,513C 160.96,510.795 158.793,508.295 157,505.5C 153.021,522.708 149.687,540.042 147,557.5C 142.273,566.965 135.106,569.465 125.5,565C 124,563.5 122.5,562 121,560.5C 117.112,550.834 114.445,540.834 113,530.5C 107.189,540.287 99.8557,541.62 91,534.5C 88.4074,529.465 86.7408,524.132 86,518.5C 85.6667,509.833 85.3333,501.167 85,492.5C 77.0128,499.46 69.3462,499.126 62,491.5C 61.0266,489.608 60.3599,487.608 60,485.5C 60.5001,462.832 64.6667,440.832 72.5,419.5C 72.1667,419.167 71.8333,418.833 71.5,418.5C 59.4901,423 52.4901,419 50.5,406.5C 60.6266,371.24 78.4599,340.574 104,314.5C 103.136,273.602 107.97,233.435 118.5,194C 111.069,188.573 104.236,182.407 98,175.5C 86.8404,160.516 76.1737,145.182 66,129.5C 59.6429,122.144 52.9762,115.144 46,108.5C 40.3333,118.167 34.6667,127.833 29,137.5C 25.7685,142.788 21.9352,147.622 17.5,152C 10.7015,155.303 4.70147,154.137 -0.5,148.5C -0.5,128.5 -0.5,108.5 -0.5,88.5C 19.1358,57.7109 46.1358,35.8775 80.5,23C 100.631,16.4845 120.964,15.8179 141.5,21C 169.427,27.4609 193.76,40.4609 214.5,60C 216.167,60.1667 217.833,60.3333 219.5,60.5C 271.472,48.7412 323.472,48.5745 375.5,60C 378.833,60.6667 382.167,60.6667 385.5,60C 416.451,30.4547 453.451,16.4547 496.5,18C 524.404,22.454 548.738,34.1206 569.5,53C 581.231,63.2151 591.231,74.7151 599.5,87.5 Z"/></g>
<g><path style="opacity:1" fill="#edc29d" d="M 411.5,477.5 C 411.005,475.518 410.505,473.518 410,471.5C 409.501,477.491 409.334,483.491 409.5,489.5C 409.225,511.486 405.391,532.819 398,553.5C 396.877,556.249 395.377,558.749 393.5,561C 391.299,561.825 389.466,561.325 388,559.5C 386.875,556.216 385.875,552.883 385,549.5C 382.034,546.735 379.367,547.068 377,550.5C 374.542,555.253 371.708,559.753 368.5,564C 364.899,567.687 362.066,567.187 360,562.5C 360.502,547.644 361.668,532.81 363.5,518C 363.333,516.5 363.167,515 363,513.5C 362.586,513.043 362.086,512.709 361.5,512.5C 354.321,527.86 346.821,543.193 339,558.5C 335.158,565.524 329.325,569.524 321.5,570.5C 318.675,570.881 316.509,569.881 315,567.5C 311.698,558.373 309.032,549.04 307,539.5C 305.884,535.226 303.384,532.226 299.5,530.5C 296.164,531.672 293.997,534.005 293,537.5C 290.179,547.118 287.512,556.784 285,566.5C 280.082,571.304 274.582,571.804 268.5,568C 266.667,566.167 264.833,564.333 263,562.5C 253.597,546.36 245.263,529.693 238,512.5C 236.054,513.994 235.221,515.994 235.5,518.5C 236.834,530.506 238.167,542.506 239.5,554.5C 239.579,557.955 239.079,561.288 238,564.5C 235.88,567.08 233.713,567.08 231.5,564.5C 228.169,560.508 225.336,556.175 223,551.5C 220.6,547.313 217.6,546.646 214,549.5C 210.682,565.148 206.016,565.481 200,550.5C 191.995,524.127 188.328,497.127 189,469.5C 186.466,479.969 183.466,490.302 180,500.5C 178.833,502.333 177.667,504.167 176.5,506C 174.833,506.667 173.167,506.667 171.5,506C 169.667,504.167 167.833,502.333 166,500.5C 163.88,495.758 161.38,491.258 158.5,487C 156.559,486.257 154.726,486.424 153,487.5C 148.802,496.095 145.802,505.095 144,514.5C 141.233,527.772 138.899,541.105 137,554.5C 133.801,558.659 131.135,558.325 129,553.5C 123.077,533.958 120.411,513.958 121,493.5C 119.846,491.043 118.512,491.043 117,493.5C 111.552,504.511 106.885,515.844 103,527.5C 101.951,528.517 100.784,528.684 99.5,528C 98.6705,526.184 97.8372,524.351 97,522.5C 94.5705,499.127 96.5705,476.127 103,453.5C 103.997,442.832 101.33,441.832 95,450.5C 89.8523,461.621 84.5189,472.621 79,483.5C 77.6106,485.227 75.9439,486.561 74,487.5C 72.7387,487.241 71.7387,486.574 71,485.5C 71.2586,454.132 78.5919,424.465 93,396.5C 94.0793,393.937 94.5793,391.271 94.5,388.5C 91.0722,388.547 88.0722,389.713 85.5,392C 79.1452,397.357 73.1452,403.023 67.5,409C 64.2598,411.363 61.9265,410.697 60.5,407C 71.0962,373.289 88.9295,344.122 114,319.5C 113.007,276.441 118.007,234.108 129,192.5C 129.71,191.027 130.876,190.36 132.5,190.5C 138.301,161.912 148.801,135.245 164,110.5C 167.333,102.167 167.333,93.8333 164,85.5C 158.707,71.0684 150.54,58.5684 139.5,48C 126.539,38.957 112.205,35.957 96.5,39C 83.7356,42.2982 72.9023,48.7982 64,58.5C 55.0261,69.6249 47.1928,81.4582 40.5,94C 40.5852,95.1074 40.9186,96.1074 41.5,97C 32.2078,112.421 22.5412,127.587 12.5,142.5C 11.2322,143.428 9.89888,143.595 8.5,143C 6.95556,140.001 5.78889,136.834 5,133.5C 0.780029,112.709 5.4467,94.3761 19,78.5C 34.0315,60.9187 51.8648,47.0854 72.5,37C 94.1247,27.9629 116.458,25.9629 139.5,31C 166.706,37.2647 190.039,50.2647 209.5,70C 211.87,71.036 214.37,71.536 217,71.5C 270.149,58.588 323.316,58.4214 376.5,71C 381.768,72.068 386.768,71.4013 391.5,69C 421.553,38.8681 457.886,25.5347 500.5,29C 520.558,33.0312 538.558,41.3645 554.5,54C 566.701,64.5342 577.868,76.0342 588,88.5C 596.306,105.279 597.639,122.613 592,140.5C 591.653,142.18 590.653,143.18 589,143.5C 587.056,142.561 585.389,141.227 584,139.5C 575.167,125.333 566.333,111.167 557.5,97C 558.576,95.2739 558.743,93.4406 558,91.5C 549.707,77.2034 539.873,64.0368 528.5,52C 512.635,38.8694 494.635,34.8694 474.5,40C 463.367,43.8215 454.533,50.6548 448,60.5C 439.916,71.8289 434.75,84.3289 432.5,98C 433.437,108.374 437.27,117.541 444,125.5C 454.189,146.234 461.689,167.901 466.5,190.5C 467.822,190.33 468.989,190.663 470,191.5C 480.501,233.174 485.501,275.507 485,318.5C 509.695,343.537 527.528,372.871 538.5,406.5C 537.024,410.707 534.358,411.54 530.5,409C 523.72,401.214 516.053,394.547 507.5,389C 506.207,388.51 504.873,388.343 503.5,388.5C 509.813,404.267 515.646,420.267 521,436.5C 524.917,450.417 527.417,464.584 528.5,479C 528.675,488.234 525.509,489.734 519,483.5C 513.139,470.277 506.639,457.444 499.5,445C 497.888,444.28 496.388,444.446 495,445.5C 497.704,460.035 500.037,474.701 502,489.5C 503.198,502.692 502.365,515.692 499.5,528.5C 498.022,528.762 496.689,528.429 495.5,527.5C 492.432,519.128 489.265,510.794 486,502.5C 484.416,498.325 482.082,494.659 479,491.5C 477.847,504.739 476.513,518.072 475,531.5C 473.311,538.921 471.311,546.254 469,553.5C 466.333,558.833 463.667,558.833 461,553.5C 458.969,536.979 455.969,520.645 452,504.5C 450.461,498.205 447.961,492.372 444.5,487C 442.833,486.333 441.167,486.333 439.5,487C 436.636,494.413 432.303,500.746 426.5,506C 425.167,506.667 423.833,506.667 422.5,506C 420.044,503.592 418.211,500.759 417,497.5C 414.855,490.902 413.022,484.235 411.5,477.5 Z"/></g>
<g><path style="opacity:1" fill="#dba772" d="M 65.5,62.5 C 68.8333,59.8333 71.8333,56.8333 74.5,53.5C 76.9131,51.1128 79.5798,48.9461 82.5,47C 98.6192,39.9226 114.786,39.756 131,46.5C 141.191,52.3512 148.857,60.3512 154,70.5C 156.997,78.1555 159.997,85.8222 163,93.5C 163.667,96.5 163.667,99.5 163,102.5C 156.682,115.136 150.349,127.802 144,140.5C 138.587,155.238 134.087,170.238 130.5,185.5C 126.118,184.141 122.118,181.974 118.5,179C 114.333,174.833 110.167,170.667 106,166.5C 94.2459,149.325 82.2459,132.325 70,115.5C 62.5563,107.05 54.223,99.7168 45,93.5C 44.4795,91.7111 44.8129,90.0444 46,88.5C 52.3219,79.5919 58.8219,70.9252 65.5,62.5 Z"/></g>
<g><path style="opacity:1" fill="#dba672" d="M 480.5,41.5 C 503.889,39.2895 522.722,47.2895 537,65.5C 542.548,72.898 547.881,80.5647 553,88.5C 553.273,90.1012 553.773,91.6012 554.5,93C 545.11,99.3841 536.61,106.884 529,115.5C 516.944,131.89 505.277,148.557 494,165.5C 486.888,173.618 478.888,180.618 470,186.5C 465.686,172.888 461.352,159.221 457,145.5C 451.972,132.442 445.638,120.109 438,108.5C 434.667,101.5 434.667,94.5 438,87.5C 440.616,81.9374 442.949,76.2708 445,70.5C 450.271,60.5505 457.771,52.3838 467.5,46C 472.119,44.9619 476.452,43.4619 480.5,41.5 Z"/></g>
<g><path style="opacity:1" fill="#967351" d="M 74.5,53.5 C 71.8333,56.8333 68.8333,59.8333 65.5,62.5C 67.5,58.5 70.5,55.5 74.5,53.5 Z"/></g>
<g><path style="opacity:1" fill="#231815" d="M 194.5,222.5 C 213.778,223.451 224.445,233.451 226.5,252.5C 225.892,255.145 225.392,257.812 225,260.5C 224.735,262.651 223.735,264.318 222,265.5C 207.828,268.335 193.994,272.335 180.5,277.5C 164.152,263.58 162.486,248.08 175.5,231C 178.328,228.752 181.328,226.752 184.5,225C 187.991,224.262 191.325,223.429 194.5,222.5 Z"/></g>
<g><path style="opacity:1" fill="#241916" d="M 401.5,222.5 C 423.416,224.581 433.583,236.581 432,258.5C 429.985,266.669 425.485,273.002 418.5,277.5C 404.541,272.094 390.208,268.094 375.5,265.5C 369.162,241.813 377.829,227.48 401.5,222.5 Z"/></g>
<g><path style="opacity:1" fill="#f3f3f3" d="M 203.5,231.5 C 210.967,232.131 214.134,236.131 213,243.5C 210.459,248.069 206.625,249.569 201.5,248C 196.465,244.987 195.298,240.82 198,235.5C 199.5,233.531 201.333,232.198 203.5,231.5 Z"/></g>
<g><path style="opacity:1" fill="#f4f4f4" d="M 412.5,231.5 C 419.967,232.131 423.134,236.131 422,243.5C 419.459,248.069 415.625,249.569 410.5,248C 406.232,245.72 404.732,242.22 406,237.5C 407.494,234.686 409.66,232.686 412.5,231.5 Z"/></g>
<g><path style="opacity:1" fill="#241815" d="M 284.5,248.5 C 296.221,248.113 307.887,248.613 319.5,250C 337.775,253.236 343.608,263.403 337,280.5C 334.737,283.886 331.903,286.719 328.5,289C 323.256,291.203 318.422,294.036 314,297.5C 313.333,299.833 313.333,302.167 314,304.5C 317.833,309.667 322.333,314.167 327.5,318C 341.661,327.914 355.994,337.581 370.5,347C 397.28,370.726 412.28,400.559 415.5,436.5C 415.878,440.758 414.044,443.425 410,444.5C 408.395,443.899 407.062,442.899 406,441.5C 399.289,403.877 380.789,373.71 350.5,351C 340.085,345.98 329.085,343.313 317.5,343C 300.094,341.992 282.761,342.659 265.5,345C 256.232,347.135 247.898,351.135 240.5,357C 215.767,379.628 200.267,407.461 194,440.5C 191.094,444.847 188.094,445.18 185,441.5C 185.276,404 199.443,372.834 227.5,348C 243.775,337.39 259.775,326.39 275.5,315C 280.145,311.199 283.812,306.699 286.5,301.5C 286.281,300.062 285.781,298.729 285,297.5C 280.578,294.036 275.744,291.203 270.5,289C 263.803,284.097 259.803,277.597 258.5,269.5C 260.024,260.136 265.357,253.969 274.5,251C 278.038,250.465 281.372,249.632 284.5,248.5 Z"/></g>
<g><path style="opacity:1" fill="#59483a" d="M 411.5,477.5 C 410.833,481.5 410.167,485.5 409.5,489.5C 409.334,483.491 409.501,477.491 410,471.5C 410.505,473.518 411.005,475.518 411.5,477.5 Z"/></g>
</svg>
