<?xml version="1.0" encoding="UTF-8"?>
<!DOCTYPE svg PUBLIC "-//W3C//DTD SVG 1.1//EN" "http://www.w3.org/Graphics/SVG/1.1/DTD/svg11.dtd">
<svg xmlns="http://www.w3.org/2000/svg" version="1.1" width="600px" height="600px" style="shape-rendering:geometricPrecision; text-rendering:geometricPrecision; image-rendering:optimizeQuality; fill-rule:evenodd; clip-rule:evenodd" xmlns:xlink="http://www.w3.org/1999/xlink">
<g><path style="opacity:0.963" fill="#040302" d="M 599.5,274.5 C 599.5,304.833 599.5,335.167 599.5,365.5C 589.55,406.09 575.05,445.09 556,482.5C 545.5,502.331 532,519.831 515.5,535C 502.756,543.674 489.422,544.674 475.5,538C 459.802,528.111 447.635,514.944 439,498.5C 433.823,521.313 420.323,537.146 398.5,546C 394.554,547.662 390.554,547.996 386.5,547C 377.593,559.119 365.926,567.286 351.5,571.5C 348.833,570.877 346.333,569.877 344,568.5C 331.328,580.498 316.661,589.164 300,594.5C 282.825,589.081 267.825,580.081 255,567.5C 252.974,569.097 250.641,570.097 248,570.5C 233.686,566.17 222.186,558.004 213.5,546C 209.147,546.918 204.814,546.585 200.5,545C 180.229,535.898 166.896,520.731 160.5,499.5C 153.185,510.995 144.518,521.495 134.5,531C 112.367,547.652 91.8668,545.819 73,525.5C 46.9208,493.355 27.5875,457.355 15,417.5C 9.28299,399.864 4.11632,382.197 -0.5,364.5C -0.5,334.5 -0.5,304.5 -0.5,274.5C 13.6086,238.28 30.4419,203.28 50,169.5C 63.2494,146.662 77.2494,124.328 92,102.5C 100.736,89.7604 110.236,77.5937 120.5,66C 135.163,53.667 151.83,45.0004 170.5,40C 170.596,32.2415 174.596,27.2415 182.5,25C 190.143,23.1722 197.81,21.5055 205.5,20C 208.155,15.0852 212.322,12.5852 218,12.5C 223.016,13.1072 228.016,13.7738 233,14.5C 234.946,12.1194 236.779,9.61943 238.5,7C 240.778,6.0138 243.111,5.18047 245.5,4.5C 249.901,6.69814 254.568,7.69814 259.5,7.5C 272.771,5.50775 286.104,4.17441 299.5,3.5C 312.719,4.29811 325.885,5.63145 339,7.5C 344.126,7.83809 348.959,6.83809 353.5,4.5C 356.056,5.05118 358.389,6.05118 360.5,7.5C 362.251,10.034 364.084,12.3673 366,14.5C 370.824,13.8036 375.657,13.137 380.5,12.5C 386.102,12.9629 390.436,15.4629 393.5,20C 402.985,21.7046 412.318,24.0379 421.5,27C 425.602,30.1026 427.935,34.2693 428.5,39.5C 446.565,44.8641 462.898,53.3641 477.5,65C 486.758,74.9208 495.258,85.4208 503,96.5C 541.728,152.117 573.894,211.45 599.5,274.5 Z"/></g>
<g><path style="opacity:1" fill="#d0b694" d="M 415.5,47.5 C 426.808,54.6244 437.141,63.1244 446.5,73C 452.791,73.0731 458.791,74.4064 464.5,77C 465.833,78 465.833,79 464.5,80C 461.568,81.1449 458.568,81.9782 455.5,82.5C 456.151,85.803 457.818,88.4697 460.5,90.5C 461.906,90.9731 462.573,91.9731 462.5,93.5C 462.709,94.9217 463.209,96.255 464,97.5C 469.85,98.9941 471.683,102.494 469.5,108C 469.808,109.459 470.475,110.626 471.5,111.5C 473.293,113.426 474.293,115.759 474.5,118.5C 475.429,122.127 476.263,125.793 477,129.5C 477.383,130.056 477.883,130.389 478.5,130.5C 480.591,135.191 481.924,140.191 482.5,145.5C 485.225,151.282 488.225,156.949 491.5,162.5C 489.5,162.5 487.5,162.5 485.5,162.5C 486.293,169.192 486.293,175.859 485.5,182.5C 453.763,162.176 418.93,152.51 381,153.5C 365.757,154.174 350.591,155.674 335.5,158C 334.484,158.519 333.818,159.353 333.5,160.5C 335.252,172.849 337.085,185.182 339,197.5C 346.408,194.565 353.908,193.565 361.5,194.5C 347.055,211.683 346.888,229.017 361,246.5C 375.183,260.065 391.016,262.232 408.5,253C 420.174,244.149 425.841,232.315 425.5,217.5C 427.793,218.981 429.96,221.314 432,224.5C 437.135,233.773 441.969,243.107 446.5,252.5C 447.217,245.856 447.05,239.189 446,232.5C 444.395,225.3 442.229,218.3 439.5,211.5C 441.655,211.372 443.655,211.872 445.5,213C 450.362,216.695 455.362,220.195 460.5,223.5C 460.833,222.333 461.167,221.167 461.5,220C 457.266,205.589 448.933,194.089 436.5,185.5C 435.289,184.28 435.289,183.113 436.5,182C 446.058,181.592 455.391,182.926 464.5,186C 475.314,189.881 485.98,194.047 496.5,198.5C 496.328,199.492 496.662,200.158 497.5,200.5C 497.321,206.404 497.988,212.071 499.5,217.5C 499.5,218.167 499.5,218.833 499.5,219.5C 499.666,229.839 499.5,240.172 499,250.5C 498.326,251.578 497.326,252.245 496,252.5C 492.761,251.714 489.761,250.381 487,248.5C 486.501,252.152 486.335,255.818 486.5,259.5C 486.5,259.833 486.5,260.167 486.5,260.5C 489.132,266.437 491.798,272.437 494.5,278.5C 494.957,279.298 495.624,279.631 496.5,279.5C 497.931,280.78 498.598,282.447 498.5,284.5C 498.608,288.247 498.108,291.914 497,295.5C 494.959,296.423 492.792,296.756 490.5,296.5C 487.779,295.859 485.112,295.359 482.5,295C 486.399,299.302 489.399,304.136 491.5,309.5C 493.283,316.339 493.95,323.339 493.5,330.5C 493.784,332.415 493.451,334.081 492.5,335.5C 491.516,338.051 490.516,340.718 489.5,343.5C 488.311,344.429 486.978,344.762 485.5,344.5C 482.105,340.102 478.105,336.436 473.5,333.5C 472.136,335.22 471.136,337.22 470.5,339.5C 471.325,341.801 471.992,344.135 472.5,346.5C 475.843,358.857 479.176,371.19 482.5,383.5C 472.47,383.83 462.47,382.83 452.5,380.5C 448.417,386.667 445.417,393.334 443.5,400.5C 445.094,403.937 446.927,407.27 449,410.5C 449.49,411.793 449.657,413.127 449.5,414.5C 445.495,414.443 441.995,413.11 439,410.5C 438.03,413.744 436.863,416.91 435.5,420C 438.982,428.409 441.649,436.909 443.5,445.5C 444.833,450.833 444.833,456.167 443.5,461.5C 442.127,461.657 440.793,461.49 439.5,461C 437.963,459.293 436.296,457.793 434.5,456.5C 433.218,453.383 431.051,451.05 428,449.5C 427.5,450.5 427,451.5 426.5,452.5C 429.218,465.696 430.385,479.03 430,492.5C 425.312,514.935 412.146,529.601 390.5,536.5C 390.211,532.894 390.544,529.394 391.5,526C 389.5,525.333 387.5,525.333 385.5,526C 379.365,542.635 368.032,554.135 351.5,560.5C 350.526,554.857 350.526,549.191 351.5,543.5C 351.603,540.963 351.103,538.629 350,536.5C 346.325,547.355 340.491,556.855 332.5,565C 322.443,572.709 311.609,579.209 300,584.5C 289.279,579.558 279.112,573.725 269.5,567C 260.075,558.318 253.575,547.818 250,535.5C 247.982,537.522 247.148,540.022 247.5,543C 248.165,548.482 248.498,553.982 248.5,559.5C 231.887,554.221 220.887,543.221 215.5,526.5C 213.535,525.708 211.535,525.041 209.5,524.5C 208.534,526.396 208.201,528.396 208.5,530.5C 208.5,532.167 208.5,533.833 208.5,535.5C 207.5,535.5 206.5,535.5 205.5,535.5C 182.312,525.465 170.312,507.798 169.5,482.5C 170.229,473.959 171.229,465.459 172.5,457C 173.173,447.988 170.84,447.154 165.5,454.5C 162.831,456.999 159.998,459.332 157,461.5C 156.617,460.944 156.117,460.611 155.5,460.5C 155.833,455.167 156.167,449.833 156.5,444.5C 158.204,440.383 159.537,436.049 160.5,431.5C 160.402,429.447 161.069,427.78 162.5,426.5C 165.062,420.571 164.228,414.905 160,409.5C 159.283,410.044 158.783,410.711 158.5,411.5C 156.634,412.014 154.8,412.68 153,413.5C 152.5,413.167 152,412.833 151.5,412.5C 153.539,408.81 155.539,405.143 157.5,401.5C 157.061,398.824 156.061,396.491 154.5,394.5C 153.747,390.323 152.414,386.323 150.5,382.5C 149,382.167 147.5,381.833 146,381.5C 137.192,382.558 128.359,383.225 119.5,383.5C 120.167,380.833 120.833,378.167 121.5,375.5C 124.479,369.895 126.479,363.895 127.5,357.5C 128.232,351.906 129.565,346.573 131.5,341.5C 132.883,338.138 132.55,334.805 130.5,331.5C 129.478,331.855 128.811,332.522 128.5,333.5C 125.105,337.898 121.105,341.564 116.5,344.5C 115.022,344.762 113.689,344.429 112.5,343.5C 111.484,340.718 110.484,338.051 109.5,335.5C 108.549,334.081 108.216,332.415 108.5,330.5C 108.05,323.339 108.717,316.339 110.5,309.5C 113.901,304.39 117.568,299.39 121.5,294.5C 118.859,293.164 116.526,293.498 114.5,295.5C 113.791,296.404 112.791,296.737 111.5,296.5C 109.208,296.756 107.041,296.423 105,295.5C 104.391,290.139 104.558,284.805 105.5,279.5C 108.883,275.078 111.55,270.078 113.5,264.5C 114.947,263.866 115.613,262.699 115.5,261C 115.015,257.135 114.348,253.302 113.5,249.5C 111.604,250.275 109.937,251.275 108.5,252.5C 106.234,252.859 104.401,252.192 103,250.5C 102.5,239.839 102.333,229.172 102.5,218.5C 102.276,212.261 102.943,206.261 104.5,200.5C 105.345,199.329 106.011,197.995 106.5,196.5C 123.318,187.283 141.318,182.45 160.5,182C 161.451,182.718 161.617,183.551 161,184.5C 149.692,192.47 141.359,202.804 136,215.5C 135.182,218.227 135.348,220.894 136.5,223.5C 140.833,220.333 145.167,217.167 149.5,214C 151.65,212.589 153.984,211.755 156.5,211.5C 154.683,217.811 152.85,224.144 151,230.5C 149.478,237.816 149.312,245.149 150.5,252.5C 155.972,240.22 162.472,228.553 170,217.5C 172.333,215.167 174.667,212.833 177,210.5C 177.399,210.728 177.565,211.062 177.5,211.5C 173.915,239.243 185.915,255.243 213.5,259.5C 239.636,255.906 252.136,240.906 251,214.5C 248.936,206.691 245.102,200.024 239.5,194.5C 239.917,193.876 240.584,193.543 241.5,193.5C 248.718,194.641 255.718,196.308 262.5,198.5C 264.094,185.486 265.761,172.486 267.5,159.5C 258.242,157.677 248.909,156.177 239.5,155C 198.588,149.518 159.921,156.185 123.5,175C 119.667,177.5 115.833,180 112,182.5C 111.503,179.854 111.336,177.187 111.5,174.5C 112.161,172.866 112.494,171.033 112.5,169C 112.003,165.759 111.336,162.592 110.5,159.5C 113.338,152.286 115.672,144.953 117.5,137.5C 120.603,130.519 122.937,123.185 124.5,115.5C 127.403,110.023 130.07,104.357 132.5,98.5C 133.079,95.6689 134.412,93.3356 136.5,91.5C 138.966,89.2597 140.966,86.593 142.5,83.5C 140.335,82.1196 140.001,80.4529 141.5,78.5C 143.564,78.313 145.564,77.813 147.5,77C 157.609,65.8156 168.943,56.3156 181.5,48.5C 186.632,46.1005 191.632,43.4338 196.5,40.5C 192.03,38.8619 187.363,38.0286 182.5,38C 181.167,37.3333 181.167,36.6667 182.5,36C 195.514,31.9977 208.848,29.831 222.5,29.5C 220.381,27.6002 218.047,25.9336 215.5,24.5C 216.667,24.1667 217.833,23.8333 219,23.5C 227.147,24.5546 235.314,24.7213 243.5,24C 247.179,21.9121 247.512,19.2455 244.5,16C 245,15.8333 245.5,15.6667 246,15.5C 249.595,17.4208 253.429,18.4208 257.5,18.5C 284.688,13.2021 311.855,13.2021 339,18.5C 343.883,18.5397 348.55,17.5397 353,15.5C 353.5,15.6667 354,15.8333 354.5,16C 350.745,18.7843 350.745,21.4509 354.5,24C 364.179,24.3145 373.845,24.3145 383.5,24C 380.784,25.7419 378.117,27.5753 375.5,29.5C 389.411,30.322 403.078,32.4887 416.5,36C 417.833,36.6667 417.833,37.3333 416.5,38C 411.416,38.1728 406.416,38.8394 401.5,40C 406.062,42.7796 410.728,45.2796 415.5,47.5 Z"/></g>
<g><path style="opacity:1" fill="#92734b" d="M 181.5,48.5 C 168.943,56.3156 157.609,65.8156 147.5,77C 145.564,77.813 143.564,78.313 141.5,78.5C 142.842,77.207 144.509,76.3736 146.5,76C 153.9,67.9295 161.9,60.5962 170.5,54C 173.86,51.4543 177.526,49.6209 181.5,48.5 Z"/></g>
<g><path style="opacity:1" fill="#a07d50" d="M 437.5,53.5 C 448.088,57.4582 457.754,62.9582 466.5,70C 461.359,68.8066 456.026,67.8066 450.5,67C 445.914,62.584 441.581,58.084 437.5,53.5 Z"/></g>
<g><path style="opacity:1" fill="#ab8555" d="M 160.5,53.5 C 154.468,59.0186 148.135,65.1852 141.5,72C 135.807,73.7016 133.307,77.535 134,83.5C 121.454,104.127 113.121,126.46 109,150.5C 104.023,156.516 103.19,163.183 106.5,170.5C 106.064,173.179 105.564,175.845 105,178.5C 101.112,180.379 97.7789,183.045 95,186.5C 94.3333,191.167 94.3333,195.833 95,200.5C 96.5557,201.52 97.7224,202.853 98.5,204.5C 96.5635,220.108 96.0635,235.775 97,251.5C 98.2284,257.91 102.062,260.244 108.5,258.5C 106.009,265.465 102.842,272.131 99,278.5C 97.217,285.143 97.217,291.81 99,298.5C 100.715,301.397 103.215,302.731 106.5,302.5C 104.45,308.327 102.783,314.327 101.5,320.5C 102.602,327.844 103.769,335.177 105,342.5C 106.128,345.207 107.628,347.707 109.5,350C 115.031,351.358 119.865,350.191 124,346.5C 122.296,357.342 118.963,367.675 114,377.5C 111.807,386.377 115.14,390.377 124,389.5C 131.529,389.043 139.029,388.376 146.5,387.5C 147.218,391.655 148.552,395.655 150.5,399.5C 149.952,401.556 148.786,403.223 147,404.5C 142.447,416.103 146.28,421.103 158.5,419.5C 156.158,425.376 153.992,431.376 152,437.5C 150.107,445.076 149.441,452.742 150,460.5C 151.899,467.706 156.066,469.373 162.5,465.5C 156.6,488.412 144.6,507.912 126.5,524C 115.11,532.737 103.11,533.737 90.5,527C 77.8378,515.338 67.0045,502.171 58,487.5C 28.0512,433.321 9.55119,375.487 2.5,314C 2.86923,302.154 5.03589,290.654 9,279.5C 20.0715,250.287 33.0715,221.954 48,194.5C 70.01,153.791 95.01,115.124 123,78.5C 134.137,68.0224 146.637,59.689 160.5,53.5 Z"/></g>
<g><path style="opacity:1" fill="#907149" d="M 415.5,47.5 C 427.665,53.4716 438.331,61.6383 447.5,72C 453.791,72.0731 459.791,73.4064 465.5,76C 466.833,77.6667 466.833,79.3333 465.5,81C 462.5,82 459.5,83 456.5,84C 458.232,85.9719 459.565,88.1386 460.5,90.5C 457.818,88.4697 456.151,85.803 455.5,82.5C 458.568,81.9782 461.568,81.1449 464.5,80C 465.833,79 465.833,78 464.5,77C 458.791,74.4064 452.791,73.0731 446.5,73C 437.141,63.1244 426.808,54.6244 415.5,47.5 Z"/></g>
<g><path style="opacity:1" fill="#ab8555" d="M 470.5,73.5 C 476.841,79.6773 482.674,86.344 488,93.5C 520.366,138.864 548.699,186.864 573,237.5C 583.256,258.601 590.923,280.601 596,303.5C 596.667,311.167 596.667,318.833 596,326.5C 587.825,378.69 571.825,428.357 548,475.5C 540.175,489.653 531.175,502.986 521,515.5C 515.562,522.616 508.729,527.783 500.5,531C 495.5,531.667 490.5,531.667 485.5,531C 475.845,526.91 467.678,520.743 461,512.5C 456.167,505.667 451.333,498.833 446.5,492C 448.504,489.159 449.004,485.993 448,482.5C 445.491,478.466 443.657,474.133 442.5,469.5C 442.608,468.558 442.941,467.725 443.5,467C 445.329,466.727 446.829,465.893 448,464.5C 450.897,449.433 449.063,435.1 442.5,421.5C 453.262,422.576 457.429,417.909 455,407.5C 453.596,404.456 452.096,401.456 450.5,398.5C 452.467,394.703 454.634,391.036 457,387.5C 465.377,389.354 473.877,390.188 482.5,390C 487.419,387.259 489.252,383.092 488,377.5C 484.702,368.429 481.869,359.096 479.5,349.5C 480.955,348.255 482.289,348.422 483.5,350C 488.526,351.494 492.692,350.327 496,346.5C 497.077,339.782 498.41,333.115 500,326.5C 501.21,317.867 499.376,310.034 494.5,303C 499.885,302.614 503.051,299.781 504,294.5C 504.667,290.5 504.667,286.5 504,282.5C 500.746,274.417 496.913,266.584 492.5,259C 495.914,258.703 499.247,258.036 502.5,257C 503.717,255.352 504.55,253.519 505,251.5C 506.017,229.741 505.017,208.075 502,186.5C 499.793,183.436 496.959,181.436 493.5,180.5C 492.838,176.534 492.505,172.534 492.5,168.5C 494.39,168.703 495.89,168.037 497,166.5C 497.667,163.5 497.667,160.5 497,157.5C 493.855,151.74 490.521,146.073 487,140.5C 484.277,132.041 481.944,123.374 480,114.5C 477.001,109.703 475.668,104.37 476,98.5C 472.451,95.287 469.284,91.787 466.5,88C 471.175,84.1346 472.509,79.3012 470.5,73.5 Z"/></g>
<g><path style="opacity:1" fill="#94744d" d="M 141.5,78.5 C 140.001,80.4529 140.335,82.1196 142.5,83.5C 140.966,86.593 138.966,89.2597 136.5,91.5C 137.557,89.0587 138.89,86.7254 140.5,84.5C 138.815,81.952 139.148,79.952 141.5,78.5 Z"/></g>
<g><path style="opacity:1" fill="#8e6f47" d="M 462.5,93.5 C 464.762,96.4008 467.596,98.7341 471,100.5C 471.069,104.319 471.236,107.986 471.5,111.5C 470.475,110.626 469.808,109.459 469.5,108C 471.683,102.494 469.85,98.9941 464,97.5C 463.209,96.255 462.709,94.9217 462.5,93.5 Z"/></g>
<g><path style="opacity:1" fill="#907048" d="M 132.5,98.5 C 130.07,104.357 127.403,110.023 124.5,115.5C 125.848,109.14 128.515,103.473 132.5,98.5 Z"/></g>
<g><path style="opacity:1" fill="#967750" d="M 474.5,118.5 C 476.74,122.098 478.074,126.098 478.5,130.5C 477.883,130.389 477.383,130.056 477,129.5C 476.263,125.793 475.429,122.127 474.5,118.5 Z"/></g>
<g><path style="opacity:1" fill="#9d7e57" d="M 124.5,115.5 C 122.937,123.185 120.603,130.519 117.5,137.5C 118.655,129.706 120.988,122.373 124.5,115.5 Z"/></g>
<g><path style="opacity:1" fill="#bb9872" d="M 239.5,194.5 C 220.297,191.148 202.297,194.314 185.5,204C 182.274,206.064 179.608,208.564 177.5,211.5C 177.565,211.062 177.399,210.728 177,210.5C 174.667,212.833 172.333,215.167 170,217.5C 162.472,228.553 155.972,240.22 150.5,252.5C 149.312,245.149 149.478,237.816 151,230.5C 152.85,224.144 154.683,217.811 156.5,211.5C 153.984,211.755 151.65,212.589 149.5,214C 145.167,217.167 140.833,220.333 136.5,223.5C 135.348,220.894 135.182,218.227 136,215.5C 141.359,202.804 149.692,192.47 161,184.5C 161.617,183.551 161.451,182.718 160.5,182C 141.318,182.45 123.318,187.283 106.5,196.5C 104.5,196.5 102.5,196.5 100.5,196.5C 100.421,195.07 100.754,193.736 101.5,192.5C 104.448,189.869 107.781,187.869 111.5,186.5C 111.737,185.209 111.404,184.209 110.5,183.5C 110.5,182.833 110.5,182.167 110.5,181.5C 110.198,178.941 110.532,176.607 111.5,174.5C 111.336,177.187 111.503,179.854 112,182.5C 115.833,180 119.667,177.5 123.5,175C 159.921,156.185 198.588,149.518 239.5,155C 248.909,156.177 258.242,157.677 267.5,159.5C 265.761,172.486 264.094,185.486 262.5,198.5C 255.718,196.308 248.718,194.641 241.5,193.5C 240.584,193.543 239.917,193.876 239.5,194.5 Z"/></g>
<g><path style="opacity:1" fill="#bb9872" d="M 491.5,162.5 C 490.432,163.434 489.099,163.768 487.5,163.5C 487.192,167.958 487.192,172.625 487.5,177.5C 487.301,180.941 487.801,184.274 489,187.5C 493.774,189.749 496.274,193.416 496.5,198.5C 485.98,194.047 475.314,189.881 464.5,186C 455.391,182.926 446.058,181.592 436.5,182C 435.289,183.113 435.289,184.28 436.5,185.5C 448.933,194.089 457.266,205.589 461.5,220C 461.167,221.167 460.833,222.333 460.5,223.5C 455.362,220.195 450.362,216.695 445.5,213C 443.655,211.872 441.655,211.372 439.5,211.5C 442.229,218.3 444.395,225.3 446,232.5C 447.05,239.189 447.217,245.856 446.5,252.5C 441.969,243.107 437.135,233.773 432,224.5C 429.96,221.314 427.793,218.981 425.5,217.5C 419.581,208.939 411.581,202.939 401.5,199.5C 398.421,198.696 395.421,197.696 392.5,196.5C 389.466,194.982 386.133,194.149 382.5,194C 375.42,193.205 368.42,193.372 361.5,194.5C 353.908,193.565 346.408,194.565 339,197.5C 337.085,185.182 335.252,172.849 333.5,160.5C 333.818,159.353 334.484,158.519 335.5,158C 350.591,155.674 365.757,154.174 381,153.5C 418.93,152.51 453.763,162.176 485.5,182.5C 486.293,175.859 486.293,169.192 485.5,162.5C 487.5,162.5 489.5,162.5 491.5,162.5 Z"/></g>
<g><path style="opacity:1" fill="#907149" d="M 482.5,145.5 C 485.47,149.32 488.304,153.32 491,157.5C 492.202,159.677 492.702,162.011 492.5,164.5C 490.585,164.784 488.919,164.451 487.5,163.5C 489.099,163.768 490.432,163.434 491.5,162.5C 488.225,156.949 485.225,151.282 482.5,145.5 Z"/></g>
<g><path style="opacity:1" fill="#95764e" d="M 110.5,159.5 C 111.336,162.592 112.003,165.759 112.5,169C 112.494,171.033 112.161,172.866 111.5,174.5C 111.802,170.177 111.135,166.01 109.5,162C 109.528,160.93 109.861,160.097 110.5,159.5 Z"/></g>
<g><path style="opacity:1" fill="#3a2e1f" d="M 110.5,181.5 C 110.5,182.167 110.5,182.833 110.5,183.5C 107.672,185.748 104.672,187.748 101.5,189.5C 102.502,187.989 103.169,186.322 103.5,184.5C 106.453,184.85 108.787,183.85 110.5,181.5 Z"/></g>
<g><path style="opacity:1" fill="#483926" d="M 489.5,185.5 C 493.438,186.442 496.105,188.775 497.5,192.5C 494.808,190.138 492.141,187.804 489.5,185.5 Z"/></g>
<g><path style="opacity:1" fill="#896e4f" d="M 487.5,177.5 C 488.371,180.003 489.037,182.67 489.5,185.5C 492.141,187.804 494.808,190.138 497.5,192.5C 497.5,195.167 497.5,197.833 497.5,200.5C 496.662,200.158 496.328,199.492 496.5,198.5C 496.274,193.416 493.774,189.749 489,187.5C 487.801,184.274 487.301,180.941 487.5,177.5 Z"/></g>
<g><path style="opacity:1" fill="#80521d" d="M 239.5,194.5 C 245.102,200.024 248.936,206.691 251,214.5C 252.136,240.906 239.636,255.906 213.5,259.5C 185.915,255.243 173.915,239.243 177.5,211.5C 179.608,208.564 182.274,206.064 185.5,204C 202.297,194.314 220.297,191.148 239.5,194.5 Z"/></g>
<g><path style="opacity:1" fill="#80521d" d="M 392.5,196.5 C 378.245,195.213 368.411,201.213 363,214.5C 360.372,228.31 365.206,238.476 377.5,245C 402.162,249.67 413.662,239.503 412,214.5C 411.275,212.051 410.275,209.717 409,207.5C 406.295,204.964 403.795,202.297 401.5,199.5C 411.581,202.939 419.581,208.939 425.5,217.5C 425.841,232.315 420.174,244.149 408.5,253C 391.016,262.232 375.183,260.065 361,246.5C 346.888,229.017 347.055,211.683 361.5,194.5C 368.42,193.372 375.42,193.205 382.5,194C 386.133,194.149 389.466,194.982 392.5,196.5 Z"/></g>
<g><path style="opacity:1" fill="#302725" d="M 206.5,196.5 C 225.49,194.514 236.157,202.847 238.5,221.5C 238.037,233.789 232.037,241.955 220.5,246C 206.583,248.79 196.416,243.956 190,231.5C 185.323,214.86 190.823,203.193 206.5,196.5 Z"/></g>
<g><path style="opacity:1" fill="#2f2725" d="M 392.5,196.5 C 395.421,197.696 398.421,198.696 401.5,199.5C 403.795,202.297 406.295,204.964 409,207.5C 410.275,209.717 411.275,212.051 412,214.5C 413.662,239.503 402.162,249.67 377.5,245C 365.206,238.476 360.372,228.31 363,214.5C 368.411,201.213 378.245,195.213 392.5,196.5 Z"/></g>
<g><path style="opacity:1" fill="#8c7051" d="M 110.5,183.5 C 111.404,184.209 111.737,185.209 111.5,186.5C 107.781,187.869 104.448,189.869 101.5,192.5C 100.754,193.736 100.421,195.07 100.5,196.5C 102.5,196.5 104.5,196.5 106.5,196.5C 106.011,197.995 105.345,199.329 104.5,200.5C 104.5,199.5 104.5,198.5 104.5,197.5C 102.833,197.5 101.167,197.5 99.5,197.5C 99.2826,194.579 99.9493,191.913 101.5,189.5C 104.672,187.748 107.672,185.748 110.5,183.5 Z"/></g>
<g><path style="opacity:1" fill="#f9f9f9" d="M 217.5,209.5 C 227.818,209.322 230.151,213.489 224.5,222C 218.708,223.871 215.041,221.871 213.5,216C 214.25,213.429 215.583,211.262 217.5,209.5 Z"/></g>
<g><path style="opacity:1" fill="#f6f6f6" d="M 392.5,209.5 C 399.996,208.174 403.496,211.174 403,218.5C 399.011,223.356 394.678,223.689 390,219.5C 388.861,215.579 389.695,212.246 392.5,209.5 Z"/></g>
<g><path style="opacity:1" fill="#9f7f58" d="M 497.5,200.5 C 498.884,205.944 499.55,211.611 499.5,217.5C 497.988,212.071 497.321,206.404 497.5,200.5 Z"/></g>
<g><path style="opacity:1" fill="#92724b" d="M 102.5,218.5 C 102.333,229.172 102.5,239.839 103,250.5C 104.401,252.192 106.234,252.859 108.5,252.5C 106.137,254.002 103.97,253.668 102,251.5C 101.174,240.326 101.341,229.326 102.5,218.5 Z"/></g>
<g><path style="opacity:1" fill="#8f7048" d="M 499.5,219.5 C 500.659,229.992 500.825,240.659 500,251.5C 495.923,254.117 491.923,253.783 488,250.5C 487.819,253.695 487.319,256.695 486.5,259.5C 486.335,255.818 486.501,252.152 487,248.5C 489.761,250.381 492.761,251.714 496,252.5C 497.326,252.245 498.326,251.578 499,250.5C 499.5,240.172 499.666,229.839 499.5,219.5 Z"/></g>
<g><path style="opacity:1" fill="#96764e" d="M 113.5,264.5 C 114.256,260.176 113.922,255.843 112.5,251.5C 111.264,252.246 109.93,252.579 108.5,252.5C 109.937,251.275 111.604,250.275 113.5,249.5C 114.348,253.302 115.015,257.135 115.5,261C 115.613,262.699 114.947,263.866 113.5,264.5 Z"/></g>
<g><path style="opacity:1" fill="#997a53" d="M 486.5,260.5 C 490.594,266.351 493.927,272.685 496.5,279.5C 495.624,279.631 494.957,279.298 494.5,278.5C 491.798,272.437 489.132,266.437 486.5,260.5 Z"/></g>
<g><path style="opacity:1" fill="#987952" d="M 113.5,264.5 C 111.55,270.078 108.883,275.078 105.5,279.5C 107.407,274.016 110.073,269.016 113.5,264.5 Z"/></g>
<g><path style="opacity:1" fill="#a3845d" d="M 105.5,279.5 C 104.558,284.805 104.391,290.139 105,295.5C 107.041,296.423 109.208,296.756 111.5,296.5C 109.105,297.814 106.605,297.814 104,296.5C 101.564,290.431 102.064,284.764 105.5,279.5 Z"/></g>
<g><path style="opacity:1" fill="#8d6e46" d="M 498.5,284.5 C 499.694,288.389 499.528,292.389 498,296.5C 495.395,297.814 492.895,297.814 490.5,296.5C 492.792,296.756 494.959,296.423 497,295.5C 498.108,291.914 498.608,288.247 498.5,284.5 Z"/></g>
<g><path style="opacity:1" fill="#93734c" d="M 110.5,309.5 C 112.601,304.136 115.601,299.302 119.5,295C 117.893,295.019 116.226,295.185 114.5,295.5C 116.526,293.498 118.859,293.164 121.5,294.5C 117.568,299.39 113.901,304.39 110.5,309.5 Z"/></g>
<g><path style="opacity:1" fill="#9f8059" d="M 110.5,309.5 C 108.717,316.339 108.05,323.339 108.5,330.5C 105.551,323.183 106.218,316.183 110.5,309.5 Z"/></g>
<g><path style="opacity:1" fill="#9f8059" d="M 491.5,309.5 C 495.782,316.183 496.449,323.183 493.5,330.5C 493.95,323.339 493.283,316.339 491.5,309.5 Z"/></g>
<g><path style="opacity:1" fill="#907149" d="M 131.5,341.5 C 131.662,339.473 131.495,337.473 131,335.5C 130.583,334.244 129.75,333.577 128.5,333.5C 128.811,332.522 129.478,331.855 130.5,331.5C 132.55,334.805 132.883,338.138 131.5,341.5 Z"/></g>
<g><path style="opacity:1" fill="#9a7a53" d="M 473.5,333.5 C 478.105,336.436 482.105,340.102 485.5,344.5C 480.895,341.564 476.895,337.898 473.5,333.5 Z"/></g>
<g><path style="opacity:1" fill="#91724a" d="M 109.5,335.5 C 110.484,338.051 111.484,340.718 112.5,343.5C 113.689,344.429 115.022,344.762 116.5,344.5C 114.965,345.788 113.299,345.788 111.5,344.5C 110.067,341.667 109.4,338.667 109.5,335.5 Z"/></g>
<g><path style="opacity:1" fill="#91724a" d="M 492.5,335.5 C 492.6,338.667 491.933,341.667 490.5,344.5C 488.701,345.788 487.035,345.788 485.5,344.5C 486.978,344.762 488.311,344.429 489.5,343.5C 490.516,340.718 491.516,338.051 492.5,335.5 Z"/></g>
<g><path style="opacity:1" fill="#8e6f47" d="M 472.5,346.5 C 476.721,357.838 480.388,369.505 483.5,381.5C 483.457,382.416 483.124,383.083 482.5,383.5C 479.176,371.19 475.843,358.857 472.5,346.5 Z"/></g>
<g><path style="opacity:1" fill="#91724a" d="M 127.5,357.5 C 126.479,363.895 124.479,369.895 121.5,375.5C 122.928,369.216 124.928,363.216 127.5,357.5 Z"/></g>
<g><path style="opacity:1" fill="#91714a" d="M 121.5,375.5 C 120.833,378.167 120.167,380.833 119.5,383.5C 128.359,383.225 137.192,382.558 146,381.5C 147.5,381.833 149,382.167 150.5,382.5C 152.414,386.323 153.747,390.323 154.5,394.5C 152.609,391.043 150.942,387.376 149.5,383.5C 148.333,383.167 147.167,382.833 146,382.5C 136.873,383.739 127.706,384.406 118.5,384.5C 118.132,380.956 119.132,377.956 121.5,375.5 Z"/></g>
<g><path style="opacity:1" fill="#8d6e46" d="M 482.5,383.5 C 481.504,384.665 480.171,385.332 478.5,385.5C 469.855,384.145 461.188,383.311 452.5,383C 449.157,388.52 446.49,394.353 444.5,400.5C 448.453,404.736 450.453,409.736 450.5,415.5C 446.993,415.693 443.66,415.027 440.5,413.5C 438.898,415.427 437.565,417.594 436.5,420C 440.755,427.999 443.088,436.499 443.5,445.5C 441.649,436.909 438.982,428.409 435.5,420C 436.863,416.91 438.03,413.744 439,410.5C 441.995,413.11 445.495,414.443 449.5,414.5C 449.657,413.127 449.49,411.793 449,410.5C 446.927,407.27 445.094,403.937 443.5,400.5C 445.417,393.334 448.417,386.667 452.5,380.5C 462.47,382.83 472.47,383.83 482.5,383.5 Z"/></g>
<g><path style="opacity:1" fill="#302825" d="M 284.5,394.5 C 297.209,394.152 309.875,394.652 322.5,396C 352.582,402.998 361.082,420.498 348,448.5C 335.249,463.391 319.082,472.058 299.5,474.5C 278.696,472.48 262.196,463.146 250,446.5C 238.984,421.54 246.484,405.04 272.5,397C 276.665,396.295 280.665,395.461 284.5,394.5 Z"/></g>
<g><path style="opacity:1" fill="#907149" d="M 154.5,394.5 C 156.061,396.491 157.061,398.824 157.5,401.5C 155.539,405.143 153.539,408.81 151.5,412.5C 152,412.833 152.5,413.167 153,413.5C 154.8,412.68 156.634,412.014 158.5,411.5C 156.497,413.982 153.831,414.982 150.5,414.5C 151.139,409.555 153.139,405.222 156.5,401.5C 155.423,399.271 154.756,396.937 154.5,394.5 Z"/></g>
<g><path style="opacity:1" fill="#907149" d="M 162.5,426.5 C 163.775,421.623 163.108,416.956 160.5,412.5C 160.043,411.702 159.376,411.369 158.5,411.5C 158.783,410.711 159.283,410.044 160,409.5C 164.228,414.905 165.062,420.571 162.5,426.5 Z"/></g>
<g><path style="opacity:1" fill="#907049" d="M 160.5,431.5 C 159.537,436.049 158.204,440.383 156.5,444.5C 156.654,439.711 157.987,435.378 160.5,431.5 Z"/></g>
<g><path style="opacity:1" fill="#9d7d56" d="M 156.5,444.5 C 156.167,449.833 155.833,455.167 155.5,460.5C 154.239,455.1 154.572,449.767 156.5,444.5 Z"/></g>
<g><path style="opacity:1" fill="#8a6c44" d="M 434.5,456.5 C 436.296,457.793 437.963,459.293 439.5,461C 440.793,461.49 442.127,461.657 443.5,461.5C 438.996,463.063 435.996,461.396 434.5,456.5 Z"/></g>
<g><path style="opacity:1" fill="#8d6f48" d="M 165.5,454.5 C 163.832,458.332 160.999,460.999 157,462.5C 155.97,462.164 155.47,461.497 155.5,460.5C 156.117,460.611 156.617,460.944 157,461.5C 159.998,459.332 162.831,456.999 165.5,454.5 Z"/></g>
<g><path style="opacity:1" fill="#302825" d="M 312.5,510.5 C 316.5,515.5 320.5,520.5 324.5,525.5C 304.162,530.334 284.162,529.334 264.5,522.5C 273.897,517.469 283.564,512.969 293.5,509C 299.929,508.327 306.262,508.827 312.5,510.5 Z"/></g>
<g><path style="opacity:1" fill="#4d3f36" d="M 312.5,510.5 C 319.805,514.951 327.472,518.784 335.5,522C 331.986,523.604 328.319,524.771 324.5,525.5C 320.5,520.5 316.5,515.5 312.5,510.5 Z"/></g>
<g><path style="opacity:1" fill="#584d3e" d="M 208.5,530.5 C 209.461,532.265 209.795,534.265 209.5,536.5C 207.901,536.768 206.568,536.434 205.5,535.5C 206.5,535.5 207.5,535.5 208.5,535.5C 208.5,533.833 208.5,532.167 208.5,530.5 Z"/></g>
</svg>
