<?xml version="1.0" encoding="UTF-8"?>
<!DOCTYPE svg PUBLIC "-//W3C//DTD SVG 1.1//EN" "http://www.w3.org/Graphics/SVG/1.1/DTD/svg11.dtd">
<svg xmlns="http://www.w3.org/2000/svg" version="1.1" width="600px" height="600px" style="shape-rendering:geometricPrecision; text-rendering:geometricPrecision; image-rendering:optimizeQuality; fill-rule:evenodd; clip-rule:evenodd" xmlns:xlink="http://www.w3.org/1999/xlink">
<g><path style="opacity:0.973" fill="#040303" d="M 100.5,-0.5 C 108.5,-0.5 116.5,-0.5 124.5,-0.5C 130.229,2.03255 135.896,4.86588 141.5,8C 165.929,26.1677 188.763,46.3344 210,68.5C 218.205,77.0361 226.038,85.8694 233.5,95C 239.797,96.5654 246.13,97.5654 252.5,98C 250.342,88.1537 254.176,81.9871 264,79.5C 269.753,81.2446 274.42,84.5779 278,89.5C 277.033,79.7274 281.199,73.7274 290.5,71.5C 295.825,72.3188 299.991,74.9854 303,79.5C 306.585,85.0021 309.919,90.6688 313,96.5C 316.299,86.7106 321.466,78.2106 328.5,71C 338.938,67.548 344.938,71.2147 346.5,82C 345.774,87.4257 344.774,92.759 343.5,98C 350.492,97.3821 357.492,96.3821 364.5,95C 386.81,71.0237 410.143,48.0237 434.5,26C 442.654,19.424 450.987,13.0906 459.5,7C 464.804,4.1784 470.137,1.6784 475.5,-0.5C 483.5,-0.5 491.5,-0.5 499.5,-0.5C 511.318,7.11734 517.484,18.1173 518,32.5C 518.79,48.9338 517.79,65.2671 515,81.5C 509.178,119.786 500.678,157.452 489.5,194.5C 494.159,194.031 498.826,194.531 503.5,196C 505.5,197.333 507.167,199 508.5,201C 513.694,201.131 518.694,202.131 523.5,204C 530.199,210.615 529.866,216.949 522.5,223C 516.377,225.229 510.377,227.729 504.5,230.5C 505.843,232.839 507.176,235.172 508.5,237.5C 518.833,244 529.167,250.5 539.5,257C 548.605,263.937 549.272,271.271 541.5,279C 539.047,279.738 536.547,280.238 534,280.5C 528.48,279.393 522.98,278.56 517.5,278C 525.272,294.117 535.772,308.284 549,320.5C 552.209,324.048 554.042,328.215 554.5,333C 554.261,338.493 551.594,342.16 546.5,344C 542.47,344.326 538.47,344.326 534.5,344C 541.469,350.878 542.969,358.711 539,367.5C 537.229,368.304 535.729,369.471 534.5,371C 539.658,378.406 540.825,386.239 538,394.5C 537,395.5 536,396.5 535,397.5C 534.869,402.694 533.869,407.694 532,412.5C 529.094,416.464 525.428,418.13 521,417.5C 521.502,423.192 522.502,428.858 524,434.5C 524.667,441.5 524.667,448.5 524,455.5C 521.473,468.608 518.473,481.608 515,494.5C 514.667,511.167 514.333,527.833 514,544.5C 512.106,552.049 507.273,555.216 499.5,554C 496.966,553.484 494.8,552.317 493,550.5C 492.068,562.291 492.901,573.958 495.5,585.5C 495.404,590.557 494.07,595.224 491.5,599.5C 477.833,599.5 464.167,599.5 450.5,599.5C 440.246,590.365 432.413,579.365 427,566.5C 419.795,550.384 414.295,533.717 410.5,516.5C 404.222,515.176 397.888,514.176 391.5,513.5C 388.697,536.789 376.197,552.123 354,559.5C 324.901,567.388 295.401,569.222 265.5,565C 250.614,563.151 236.948,558.151 224.5,550C 219.917,546.088 216.083,541.588 213,536.5C 210.677,528.872 208.51,521.206 206.5,513.5C 206,513.167 205.5,512.833 205,512.5C 200.535,513.494 196.035,514.328 191.5,515C 190.333,515.5 189.5,516.333 189,517.5C 182.676,542.831 172.676,566.497 159,588.5C 155.936,592.667 152.436,596.333 148.5,599.5C 140.5,599.5 132.5,599.5 124.5,599.5C 124.167,598.167 123.833,598.167 123.5,599.5C 117.833,599.5 112.167,599.5 106.5,599.5C 102.152,593.102 100.819,586.102 102.5,578.5C 101.849,569.176 101.349,559.842 101,550.5C 94.7969,555.788 88.6302,555.788 82.5,550.5C 81.066,548.78 80.2326,546.78 80,544.5C 79.6667,524.833 79.3333,505.167 79,485.5C 76.5758,472.045 74.4092,458.545 72.5,445C 73.0762,435.953 74.7429,427.119 77.5,418.5C 66.738,417.7 62.0714,411.7 63.5,400.5C 57.398,398.157 54.0647,393.657 53.5,387C 54.4362,381.246 56.4362,375.912 59.5,371C 53.0919,367.677 50.9252,362.511 53,355.5C 54.3061,351.554 56.1394,347.888 58.5,344.5C 58.1667,344.167 57.8333,343.833 57.5,343.5C 47.527,347.009 41.527,343.509 39.5,333C 39.958,328.215 41.7913,324.048 45,320.5C 58.0007,308.338 68.5007,294.338 76.5,278.5C 76,278.167 75.5,277.833 75,277.5C 68.3414,279.9 61.5081,280.733 54.5,280C 44.1961,273.306 43.8627,265.972 53.5,258C 64.1667,251.333 74.8333,244.667 85.5,238C 86.6759,235.314 88.3425,232.981 90.5,231C 85.7391,228.413 80.7391,226.413 75.5,225C 66.4047,221.425 63.9047,215.258 68,206.5C 69.214,204.951 70.714,203.785 72.5,203C 77.1042,201.939 81.7709,201.273 86.5,201C 89.4561,197.02 93.4561,194.853 98.5,194.5C 102.477,195.554 106.477,196.054 110.5,196C 94.989,146.111 84.989,95.1109 80.5,43C 80.3844,30.2254 83.5511,18.392 90,7.5C 92.9753,3.95246 96.4753,1.2858 100.5,-0.5 Z"/></g>
<g><path style="opacity:1" fill="#3d3938" d="M 105.5,8.5 C 116.021,7.61693 125.688,10.1169 134.5,16C 166.522,39.5538 195.522,66.5538 221.5,97C 219.307,99.0253 218.307,101.525 218.5,104.5C 212.464,105.782 206.464,106.949 200.5,108C 185.456,85.274 167.789,64.6073 147.5,46C 141.478,40.9873 135.144,36.3206 128.5,32C 124.259,30.5427 119.926,30.2093 115.5,31C 113.106,32.9522 111.606,35.4522 111,38.5C 110.281,66.1408 112.948,93.4741 119,120.5C 122.245,136.723 125.745,152.89 129.5,169C 126.869,175.142 123.202,180.642 118.5,185.5C 105.514,143.736 96.6802,101.069 92,57.5C 91.1556,46.7888 91.4889,36.1221 93,25.5C 94.368,17.6508 98.5347,11.9841 105.5,8.5 Z"/></g>
<g><path style="opacity:1" fill="#3d3938" d="M 480.5,8.5 C 496.18,6.09052 505.014,12.7572 507,28.5C 507.728,57.1392 505.061,85.4725 499,113.5C 493.773,139.41 487.439,165.077 480,190.5C 479.333,191.833 478.667,191.833 478,190.5C 474.121,184.636 470.288,178.802 466.5,173C 478.701,129.965 485.534,86.1317 487,41.5C 486.848,37.3661 485.348,33.8661 482.5,31C 477.743,30.1902 473.076,30.5236 468.5,32C 449.115,45.7155 431.948,61.8822 417,80.5C 411.424,87.3202 406.091,94.3202 401,101.5C 399.519,104.11 398.352,106.777 397.5,109.5C 390.768,106.952 383.768,105.285 376.5,104.5C 376.714,102.856 376.38,101.356 375.5,100C 400.549,71.2844 427.882,44.9511 457.5,21C 464.653,15.7592 472.319,11.5926 480.5,8.5 Z"/></g>
<g><path style="opacity:1" fill="#938075" d="M 118.5,37.5 C 120.857,37.3367 123.19,37.5034 125.5,38C 154.426,59.5869 178.426,85.5869 197.5,116C 189.921,120.413 184.254,126.579 180.5,134.5C 163.985,144.015 149.485,156.015 137,170.5C 125.265,127.96 118.599,84.627 117,40.5C 117.513,39.4734 118.013,38.4734 118.5,37.5 Z"/></g>
<g><path style="opacity:1" fill="#938075" d="M 473.5,36.5 C 476.044,36.1043 478.211,36.771 480,38.5C 480.667,49.1667 480.667,59.8333 480,70.5C 476.659,92.2121 472.992,113.879 469,135.5C 466.467,148.422 463.134,161.089 459,173.5C 446.691,158.945 432.524,146.611 416.5,136.5C 412.817,128.324 407.484,121.491 400.5,116C 419.455,84.6149 443.788,58.1149 473.5,36.5 Z"/></g>
<g><path style="opacity:1" fill="#f6eee5" d="M 437.5,159.5 C 441.105,164.774 445.438,169.441 450.5,173.5C 466.761,190.974 479.261,210.974 488,233.5C 502.778,274.167 510.445,316.167 511,359.5C 519.369,374.434 523.536,390.434 523.5,407.5C 522.127,407.657 520.793,407.49 519.5,407C 511.245,399.604 507.412,401.104 508,411.5C 512.394,424.525 514.394,437.859 514,451.5C 509.458,473.667 504.291,495.667 498.5,517.5C 497.914,517.291 497.414,516.957 497,516.5C 495.337,512.504 493.171,508.837 490.5,505.5C 489.833,516.167 489.167,526.833 488.5,537.5C 486.21,534.506 484.376,531.173 483,527.5C 482,526.167 481,526.167 480,527.5C 479.422,547.218 481.255,566.718 485.5,586C 485.349,588.644 484.349,590.811 482.5,592.5C 478.023,589.857 474.357,586.357 471.5,582C 469.783,580.441 467.783,579.608 465.5,579.5C 465.356,583.375 465.69,587.208 466.5,591C 466.719,592.971 465.885,594.138 464,594.5C 454.735,590.235 447.735,583.568 443,574.5C 422.144,536.079 412.81,495.079 415,451.5C 419.285,420.457 423.785,389.457 428.5,358.5C 430.509,349.414 431.509,340.081 431.5,330.5C 432.12,324.8 432.787,319.133 433.5,313.5C 434.329,306.011 434.829,298.344 435,290.5C 443.215,321.674 448.549,353.34 451,385.5C 451.289,418.435 454.289,451.102 460,483.5C 462.069,492.04 464.736,500.373 468,508.5C 469.147,509.458 470.147,509.125 471,507.5C 472.488,503.213 473.822,498.88 475,494.5C 476.711,475.837 478.378,457.171 480,438.5C 481.539,431.138 483.206,423.804 485,416.5C 485.718,415.549 486.551,415.383 487.5,416C 490.977,419.567 494.644,422.9 498.5,426C 500.909,427.707 503.575,428.54 506.5,428.5C 506.579,425.729 506.079,423.063 505,420.5C 498.647,410.126 493.647,399.126 490,387.5C 489.333,385.5 489.333,383.5 490,381.5C 492.061,383.806 494.228,385.973 496.5,388C 497.448,388.483 498.448,388.649 499.5,388.5C 498.341,377.039 497.674,365.539 497.5,354C 497.593,341.255 498.593,328.588 500.5,316C 499.594,293.816 493.761,272.983 483,253.5C 457.167,209 422,173.833 377.5,148C 367.833,145 358.167,142 348.5,139C 341.724,138.08 335.057,138.414 328.5,140C 329.056,140.383 329.389,140.883 329.5,141.5C 325.356,141.777 321.689,143.11 318.5,145.5C 314.495,146.498 311.161,148.498 308.5,151.5C 305.183,152.823 301.85,154.157 298.5,155.5C 292.911,153.219 287.578,150.553 282.5,147.5C 279.691,145.103 276.358,143.77 272.5,143.5C 271.07,142.463 269.403,141.796 267.5,141.5C 268.953,140.175 268.619,139.342 266.5,139C 246.702,138.83 228.035,143.496 210.5,153C 166.84,181.322 133.007,218.488 109,264.5C 101.386,280.29 97.5527,296.957 97.5,314.5C 100.082,339.177 100.082,363.844 97.5,388.5C 102.258,387.586 105.758,384.919 108,380.5C 107.267,388.092 105.267,395.425 102,402.5C 98.5883,409.658 94.9216,416.658 91,423.5C 90.5065,425.134 90.3398,426.801 90.5,428.5C 92.1992,428.66 93.8659,428.494 95.5,428C 100.977,424.024 106.31,419.858 111.5,415.5C 113.917,422.338 115.75,429.338 117,436.5C 118.858,456.855 120.858,477.188 123,497.5C 124.087,501.766 125.754,505.766 128,509.5C 128.667,508.833 129.333,508.167 130,507.5C 135.839,491.319 139.839,474.652 142,457.5C 144.107,434.877 145.441,412.211 146,389.5C 148.308,356.32 153.641,323.653 162,291.5C 162.181,294.695 162.681,297.695 163.5,300.5C 163.187,304.042 163.521,307.375 164.5,310.5C 164.727,318.559 165.394,326.559 166.5,334.5C 166.418,343.76 167.418,352.76 169.5,361.5C 174.548,393.122 179.381,424.789 184,456.5C 185.096,471.925 184.429,487.258 182,502.5C 176.105,527.519 167.438,551.519 156,574.5C 151.265,583.568 144.265,590.235 135,594.5C 134.228,594.355 133.561,594.022 133,593.5C 132.501,588.845 132.334,584.179 132.5,579.5C 130.345,579.372 128.345,579.872 126.5,581C 123.266,584.145 120.266,587.478 117.5,591C 115.888,591.72 114.388,591.554 113,590.5C 112.333,586.833 112.333,583.167 113,579.5C 116.208,562.964 117.875,546.297 118,529.5C 117.751,528.376 117.251,527.376 116.5,526.5C 116.167,526.667 115.833,526.833 115.5,527C 113.107,530.288 111.107,533.788 109.5,537.5C 108.979,526.691 108.146,516.024 107,505.5C 104.333,509.5 101.667,513.5 99,517.5C 95.1728,501.859 91.1728,486.193 87,470.5C 81.5181,450.471 82.5181,430.804 90,411.5C 90.6667,408.833 90.6667,406.167 90,403.5C 89.2613,402.426 88.2613,401.759 87,401.5C 83.4403,402.695 80.2736,404.529 77.5,407C 76.2161,407.684 75.0495,407.517 74,406.5C 74.2327,390.238 78.2327,374.904 86,360.5C 85.8227,313.226 94.156,267.559 111,223.5C 126.092,187.149 150.592,158.982 184.5,139C 191.562,125.121 202.896,117.121 218.5,115C 226.603,114.341 234.603,114.674 242.5,116C 237.421,113.417 232.754,110.25 228.5,106.5C 229.333,106.167 230.167,105.833 231,105.5C 237.476,106.812 243.976,107.979 250.5,109C 253.645,110.978 256.312,113.478 258.5,116.5C 263.282,117.722 265.282,115.722 264.5,110.5C 263.888,105.327 263.221,100.16 262.5,95C 262.833,93.5 263.167,92 263.5,90.5C 266.805,91.9722 269.305,94.3055 271,97.5C 275.601,105.036 279.934,112.703 284,120.5C 285.494,121.747 286.994,121.747 288.5,120.5C 288.989,107.882 288.989,95.2154 288.5,82.5C 292.683,83.7591 295.849,86.4258 298,90.5C 302.951,100.565 307.785,110.565 312.5,120.5C 318.59,108.653 324.423,96.6534 330,84.5C 331.041,82.4148 332.541,80.7481 334.5,79.5C 334.833,80.8333 335.167,82.1667 335.5,83.5C 333.925,92.6315 332.592,101.798 331.5,111C 331.305,113.793 331.971,116.293 333.5,118.5C 334.5,119.833 335.5,119.833 336.5,118.5C 339.027,113.806 342.694,110.306 347.5,108C 354.15,106.8 360.816,106.133 367.5,106C 363.538,110.315 358.871,113.648 353.5,116C 368.931,112.53 383.597,114.53 397.5,122C 400.295,123.793 402.795,125.96 405,128.5C 407.498,132.648 409.998,136.815 412.5,141C 421.576,146.2 429.909,152.367 437.5,159.5 Z"/></g>
<g><path style="opacity:1" fill="#dfd9d0" d="M 267.5,141.5 C 262.68,143.074 258.347,145.407 254.5,148.5C 252.371,150.95 249.704,152.617 246.5,153.5C 243.109,154.529 240.443,156.529 238.5,159.5C 237.738,161.262 236.404,162.262 234.5,162.5C 230.229,165.101 226.563,168.434 223.5,172.5C 219.766,175.231 216.766,178.564 214.5,182.5C 212.413,183.585 211.08,185.251 210.5,187.5C 207.547,192.45 204.214,197.117 200.5,201.5C 198.05,203.629 196.383,206.296 195.5,209.5C 193.076,212.008 191.41,215.008 190.5,218.5C 188.461,219.911 187.461,221.911 187.5,224.5C 187.008,226.819 186.008,228.819 184.5,230.5C 182.375,233.088 181.042,236.088 180.5,239.5C 178.069,243.111 176.403,247.111 175.5,251.5C 175.737,252.791 175.404,253.791 174.5,254.5C 172.399,257.797 171.065,261.463 170.5,265.5C 170.737,266.791 170.404,267.791 169.5,268.5C 167.723,271.505 166.723,274.838 166.5,278.5C 165.4,280.277 164.566,282.277 164,284.5C 163.501,289.823 163.334,295.156 163.5,300.5C 162.681,297.695 162.181,294.695 162,291.5C 153.641,323.653 148.308,356.32 146,389.5C 145.441,412.211 144.107,434.877 142,457.5C 139.839,474.652 135.839,491.319 130,507.5C 129.333,508.167 128.667,508.833 128,509.5C 125.754,505.766 124.087,501.766 123,497.5C 120.858,477.188 118.858,456.855 117,436.5C 115.75,429.338 113.917,422.338 111.5,415.5C 106.31,419.858 100.977,424.024 95.5,428C 93.8659,428.494 92.1992,428.66 90.5,428.5C 90.3398,426.801 90.5065,425.134 91,423.5C 94.9216,416.658 98.5883,409.658 102,402.5C 105.267,395.425 107.267,388.092 108,380.5C 105.758,384.919 102.258,387.586 97.5,388.5C 100.082,363.844 100.082,339.177 97.5,314.5C 97.5527,296.957 101.386,280.29 109,264.5C 133.007,218.488 166.84,181.322 210.5,153C 228.035,143.496 246.702,138.83 266.5,139C 268.619,139.342 268.953,140.175 267.5,141.5 Z"/></g>
<g><path style="opacity:1" fill="#dfd9d0" d="M 433.5,313.5 C 433.5,305.167 433.5,296.833 433.5,288.5C 433.483,284.466 432.483,280.799 430.5,277.5C 430.277,273.838 429.277,270.505 427.5,267.5C 426.602,262.466 424.935,257.799 422.5,253.5C 419.734,248.883 417.734,243.883 416.5,238.5C 413.541,229.914 409.541,221.914 404.5,214.5C 401.01,206.359 396.343,199.025 390.5,192.5C 388.889,188.949 386.556,185.949 383.5,183.5C 381.57,179.9 378.903,176.9 375.5,174.5C 373.833,173.5 372.5,172.167 371.5,170.5C 367.722,165.383 363.055,161.383 357.5,158.5C 352.32,155.412 347.32,152.078 342.5,148.5C 338.653,145.407 334.32,143.074 329.5,141.5C 329.389,140.883 329.056,140.383 328.5,140C 335.057,138.414 341.724,138.08 348.5,139C 358.167,142 367.833,145 377.5,148C 422,173.833 457.167,209 483,253.5C 493.761,272.983 499.594,293.816 500.5,316C 498.593,328.588 497.593,341.255 497.5,354C 497.674,365.539 498.341,377.039 499.5,388.5C 498.448,388.649 497.448,388.483 496.5,388C 494.228,385.973 492.061,383.806 490,381.5C 489.333,383.5 489.333,385.5 490,387.5C 493.647,399.126 498.647,410.126 505,420.5C 506.079,423.063 506.579,425.729 506.5,428.5C 503.575,428.54 500.909,427.707 498.5,426C 494.644,422.9 490.977,419.567 487.5,416C 486.551,415.383 485.718,415.549 485,416.5C 483.206,423.804 481.539,431.138 480,438.5C 478.378,457.171 476.711,475.837 475,494.5C 473.822,498.88 472.488,503.213 471,507.5C 470.147,509.125 469.147,509.458 468,508.5C 464.736,500.373 462.069,492.04 460,483.5C 454.289,451.102 451.289,418.435 451,385.5C 448.549,353.34 443.215,321.674 435,290.5C 434.829,298.344 434.329,306.011 433.5,313.5 Z"/></g>
<g><path style="opacity:1" fill="#807269" d="M 329.5,141.5 C 334.32,143.074 338.653,145.407 342.5,148.5C 338.069,146.785 333.735,144.785 329.5,142.5C 325.878,143.708 322.211,144.708 318.5,145.5C 321.689,143.11 325.356,141.777 329.5,141.5 Z"/></g>
<g><path style="opacity:1" fill="#7c6f66" d="M 267.5,141.5 C 269.403,141.796 271.07,142.463 272.5,143.5C 270.738,143.643 269.071,143.309 267.5,142.5C 263.265,144.785 258.931,146.785 254.5,148.5C 258.347,145.407 262.68,143.074 267.5,141.5 Z"/></g>
<g><path style="opacity:1" fill="#786a61" d="M 282.5,147.5 C 287.578,150.553 292.911,153.219 298.5,155.5C 301.85,154.157 305.183,152.823 308.5,151.5C 302.691,157.462 296.358,157.962 289.5,153C 286.98,151.303 284.647,149.47 282.5,147.5 Z"/></g>
<g><path style="opacity:1" fill="#938075" d="M 414.5,382.5 C 407.096,395.658 401.596,409.658 398,424.5C 395.108,438.854 392.108,453.188 389,467.5C 388.083,478.916 386.583,490.249 384.5,501.5C 381.812,511.224 378.645,520.891 375,530.5C 371.5,536.667 366.667,541.5 360.5,545C 352.905,548.865 344.905,551.532 336.5,553C 308.03,557.95 279.697,557.283 251.5,551C 239.859,548.007 230.359,541.84 223,532.5C 219.596,522.309 216.763,511.976 214.5,501.5C 209.566,467.995 202.399,434.995 193,402.5C 189.997,395.16 186.497,388.16 182.5,381.5C 177.885,350.014 175.385,318.347 175,286.5C 184.154,250.309 200.154,217.642 223,188.5C 235.486,174.335 249.986,162.835 266.5,154C 269.257,153.416 271.923,153.75 274.5,155C 281.616,160.725 289.616,164.558 298.5,166.5C 307.384,164.558 315.384,160.725 322.5,155C 327.526,152.803 332.193,153.469 336.5,157C 361.806,172.975 381.639,194.141 396,220.5C 408.55,243.593 417.717,267.926 423.5,293.5C 421.881,323.355 418.881,353.021 414.5,382.5 Z"/></g>
<g><path style="opacity:1" fill="#776960" d="M 246.5,153.5 C 244.2,155.984 241.533,157.984 238.5,159.5C 240.443,156.529 243.109,154.529 246.5,153.5 Z"/></g>
<g><path style="opacity:1" fill="#786a61" d="M 357.5,158.5 C 363.055,161.383 367.722,165.383 371.5,170.5C 366.533,166.868 361.867,162.868 357.5,158.5 Z"/></g>
<g><path style="opacity:1" fill="#a9a49d" d="M 437.5,159.5 C 442.562,163.559 446.895,168.226 450.5,173.5C 445.438,169.441 441.105,164.774 437.5,159.5 Z"/></g>
<g><path style="opacity:1" fill="#74665d" d="M 234.5,162.5 C 231.437,166.566 227.771,169.899 223.5,172.5C 226.563,168.434 230.229,165.101 234.5,162.5 Z"/></g>
<g><path style="opacity:1" fill="#786a61" d="M 375.5,174.5 C 378.903,176.9 381.57,179.9 383.5,183.5C 380.097,181.1 377.43,178.1 375.5,174.5 Z"/></g>
<g><path style="opacity:1" fill="#776960" d="M 223.5,172.5 C 221.234,176.436 218.234,179.769 214.5,182.5C 216.766,178.564 219.766,175.231 223.5,172.5 Z"/></g>
<g><path style="opacity:1" fill="#776960" d="M 214.5,182.5 C 213.92,184.749 212.587,186.415 210.5,187.5C 211.08,185.251 212.413,183.585 214.5,182.5 Z"/></g>
<g><path style="opacity:1" fill="#776960" d="M 383.5,183.5 C 386.556,185.949 388.889,188.949 390.5,192.5C 387.444,190.051 385.111,187.051 383.5,183.5 Z"/></g>
<g><path style="opacity:1" fill="#796b62" d="M 390.5,192.5 C 396.343,199.025 401.01,206.359 404.5,214.5C 399.446,207.439 394.779,200.106 390.5,192.5 Z"/></g>
<g><path style="opacity:1" fill="#76685f" d="M 200.5,201.5 C 199.617,204.704 197.95,207.371 195.5,209.5C 196.383,206.296 198.05,203.629 200.5,201.5 Z"/></g>
<g><path style="opacity:1" fill="#3c3837" d="M 96.5,205.5 C 100.064,205.151 103.398,205.817 106.5,207.5C 104.005,213.03 101.338,218.363 98.5,223.5C 91.2163,219.965 83.883,216.632 76.5,213.5C 82.7985,212.504 89.1318,212.17 95.5,212.5C 95.298,210.05 95.6314,207.717 96.5,205.5 Z"/></g>
<g><path style="opacity:1" fill="#3c3837" d="M 491.5,205.5 C 493.924,205.192 496.257,205.526 498.5,206.5C 497.652,208.409 497.318,210.409 497.5,212.5C 504.175,212.334 510.842,212.5 517.5,213C 510.423,216.287 503.256,219.454 496,222.5C 493.273,218.052 490.773,213.385 488.5,208.5C 489.34,207.265 490.34,206.265 491.5,205.5 Z"/></g>
<g><path style="opacity:1" fill="#776960" d="M 195.5,209.5 C 194.59,212.992 192.924,215.992 190.5,218.5C 191.41,215.008 193.076,212.008 195.5,209.5 Z"/></g>
<g><path style="opacity:1" fill="#7a6c63" d="M 190.5,218.5 C 190.008,220.819 189.008,222.819 187.5,224.5C 187.461,221.911 188.461,219.911 190.5,218.5 Z"/></g>
<g><path style="opacity:1" fill="#75675e" d="M 184.5,230.5 C 183.958,233.912 182.625,236.912 180.5,239.5C 181.042,236.088 182.375,233.088 184.5,230.5 Z"/></g>
<g><path style="opacity:1" fill="#776a61" d="M 404.5,214.5 C 409.541,221.914 413.541,229.914 416.5,238.5C 411.992,230.818 407.992,222.818 404.5,214.5 Z"/></g>
<g><path style="opacity:1" fill="#786a62" d="M 180.5,239.5 C 179.597,243.889 177.931,247.889 175.5,251.5C 176.403,247.111 178.069,243.111 180.5,239.5 Z"/></g>
<g><path style="opacity:1" fill="#3b3837" d="M 90.5,246.5 C 91.0431,246.56 91.3764,246.893 91.5,247.5C 89.7513,253 88.0846,258.5 86.5,264C 78.7784,265.876 71.1117,267.876 63.5,270C 56.2504,271.023 55.5837,269.356 61.5,265C 71.5701,259.308 81.2367,253.141 90.5,246.5 Z"/></g>
<g><path style="opacity:1" fill="#3c3837" d="M 504.5,247.5 C 515.655,253.913 526.322,261.08 536.5,269C 527.305,268.885 518.305,267.385 509.5,264.5C 507.628,258.886 505.962,253.219 504.5,247.5 Z"/></g>
<g><path style="opacity:1" fill="#7b6e65" d="M 174.5,254.5 C 173.935,258.537 172.601,262.203 170.5,265.5C 171.065,261.463 172.399,257.797 174.5,254.5 Z"/></g>
<g><path style="opacity:1" fill="#7a6d64" d="M 422.5,253.5 C 424.935,257.799 426.602,262.466 427.5,267.5C 425.065,263.201 423.398,258.534 422.5,253.5 Z"/></g>
<g><path style="opacity:1" fill="#7b6e65" d="M 427.5,267.5 C 429.277,270.505 430.277,273.838 430.5,277.5C 428.723,274.495 427.723,271.162 427.5,267.5 Z"/></g>
<g><path style="opacity:1" fill="#7c6e66" d="M 169.5,268.5 C 169.277,272.162 168.277,275.495 166.5,278.5C 166.723,274.838 167.723,271.505 169.5,268.5 Z"/></g>
<g><path style="opacity:1" fill="#bca694" d="M 207.5,268.5 C 237.378,268.211 251.878,282.877 251,312.5C 242.35,336.743 225.516,345.576 200.5,339C 183.954,330.077 176.788,316.243 179,297.5C 183.35,282.651 192.85,272.985 207.5,268.5 Z"/></g>
<g><path style="opacity:1" fill="#bca694" d="M 373.5,268.5 C 402.822,267.989 417.322,282.323 417,311.5C 410.621,333.2 396.121,343.034 373.5,341C 352.102,334.385 342.602,319.885 345,297.5C 349.35,282.651 358.85,272.985 373.5,268.5 Z"/></g>
<g><path style="opacity:1" fill="#38302c" d="M 207.5,278.5 C 233.634,277.447 244.467,289.781 240,315.5C 231.883,330.32 219.716,335.154 203.5,330C 191.842,323.184 186.675,313.017 188,299.5C 190.95,289.055 197.45,282.055 207.5,278.5 Z"/></g>
<g><path style="opacity:1" fill="#382f2c" d="M 373.5,278.5 C 399.629,277.432 410.462,289.765 406,315.5C 397.85,330.33 385.683,335.163 369.5,330C 355.49,321.801 350.99,309.967 356,294.5C 359.503,286.492 365.336,281.159 373.5,278.5 Z"/></g>
<g><path style="opacity:1" fill="#796c63" d="M 430.5,277.5 C 432.483,280.799 433.483,284.466 433.5,288.5C 431.926,285.093 430.926,281.427 430.5,277.5 Z"/></g>
<g><path style="opacity:1" fill="#7b6d64" d="M 166.5,278.5 C 164.69,289.055 164.024,299.721 164.5,310.5C 163.521,307.375 163.187,304.042 163.5,300.5C 163.334,295.156 163.501,289.823 164,284.5C 164.566,282.277 165.4,280.277 166.5,278.5 Z"/></g>
<g><path style="opacity:1" fill="#ecebeb" d="M 222.5,288.5 C 231.322,287.82 235.155,291.82 234,300.5C 228.667,307.167 223.333,307.167 218,300.5C 217.333,298.167 217.333,295.833 218,293.5C 219.366,291.638 220.866,289.972 222.5,288.5 Z"/></g>
<g><path style="opacity:1" fill="#ececec" d="M 385.5,288.5 C 395.747,288.559 398.913,293.226 395,302.5C 389.605,306.934 384.938,306.267 381,300.5C 379.474,295.239 380.974,291.239 385.5,288.5 Z"/></g>
<g><path style="opacity:1" fill="#3c3837" d="M 79.5,294.5 C 80.6408,297.64 80.8075,300.973 80,304.5C 78.7975,311.151 77.6308,317.817 76.5,324.5C 70.8333,327 65.1667,329.5 59.5,332C 56.5698,333.318 53.5698,333.985 50.5,334C 50.1667,333.667 49.8333,333.333 49.5,333C 54.9586,325.873 60.7919,319.039 67,312.5C 71.7767,306.896 75.9434,300.896 79.5,294.5 Z"/></g>
<g><path style="opacity:1" fill="#3c3837" d="M 516.5,298.5 C 524.01,309.19 532.51,319.19 542,328.5C 543.128,330.345 543.628,332.345 543.5,334.5C 534.848,332.447 526.681,329.114 519,324.5C 518.495,315.793 517.661,307.127 516.5,298.5 Z"/></g>
<g><path style="opacity:1" fill="#3a3635" d="M 75.5,338.5 C 76.6517,343.985 76.8184,349.651 76,355.5C 71.7403,357.883 67.2403,359.549 62.5,360.5C 62.7553,357.984 63.5886,355.65 65,353.5C 68.7199,348.62 72.2199,343.62 75.5,338.5 Z"/></g>
<g><path style="opacity:1" fill="#3a3736" d="M 520.5,342.5 C 525.687,347.535 529.354,353.535 531.5,360.5C 528.11,360.223 524.943,359.223 522,357.5C 520.612,352.628 520.112,347.628 520.5,342.5 Z"/></g>
<g><path style="opacity:1" fill="#8e8179" d="M 166.5,334.5 C 168.056,343.298 169.056,352.298 169.5,361.5C 167.418,352.76 166.418,343.76 166.5,334.5 Z"/></g>
<g><path style="opacity:1" fill="#8f8279" d="M 431.5,330.5 C 431.509,340.081 430.509,349.414 428.5,358.5C 428.93,348.964 429.93,339.631 431.5,330.5 Z"/></g>
<g><path style="opacity:1" fill="#dac7c3" d="M 325.5,375.5 C 326.822,375.33 327.989,375.663 329,376.5C 332.831,381.822 332.331,386.488 327.5,390.5C 326.186,389.687 325.019,388.687 324,387.5C 323.083,383.238 323.583,379.238 325.5,375.5 Z"/></g>
<g><path style="opacity:1" fill="#3e3a39" d="M 414.5,382.5 C 410.134,406.028 406.634,429.695 404,453.5C 403.333,465.167 403.333,476.833 404,488.5C 404.289,493.605 405.122,498.605 406.5,503.5C 405.333,503.833 404.167,504.167 403,504.5C 396.812,503.552 390.645,502.552 384.5,501.5C 386.583,490.249 388.083,478.916 389,467.5C 392.108,453.188 395.108,438.854 398,424.5C 401.596,409.658 407.096,395.658 414.5,382.5 Z"/></g>
<g><path style="opacity:1" fill="#3e3a39" d="M 182.5,381.5 C 186.497,388.16 189.997,395.16 193,402.5C 202.399,434.995 209.566,467.995 214.5,501.5C 207.309,501.289 200.309,502.289 193.5,504.5C 196.667,478.525 195.834,452.525 191,426.5C 188.376,411.419 185.543,396.419 182.5,381.5 Z"/></g>
<g><path style="opacity:1" fill="#decac7" d="M 253.5,415.5 C 257.531,415.034 259.531,416.867 259.5,421C 257.159,426.184 254.659,431.351 252,436.5C 249.478,439.326 247.478,438.993 246,435.5C 244.848,427.469 247.348,420.803 253.5,415.5 Z"/></g>
<g><path style="opacity:1" fill="#dcc8c5" d="M 360.5,449.5 C 365.09,450.921 368.256,453.921 370,458.5C 371.052,462.187 369.885,464.854 366.5,466.5C 365.252,465.96 364.085,465.293 363,464.5C 361.861,461.417 360.528,458.417 359,455.5C 358.252,453.16 358.752,451.16 360.5,449.5 Z"/></g>
<g><path style="opacity:1" fill="#372f2c" d="M 284.5,451.5 C 295.881,451.144 307.215,451.644 318.5,453C 344.277,459.388 350.777,474.221 338,497.5C 312.918,523.054 286.918,524.054 260,500.5C 245.622,477.63 251.122,461.797 276.5,453C 279.365,452.817 282.031,452.317 284.5,451.5 Z"/></g>
<g><path style="opacity:1" fill="#e0cdc9" d="M 363.5,481.5 C 368.267,484.175 370.934,488.342 371.5,494C 371.187,497.473 369.521,499.973 366.5,501.5C 364.803,500.636 363.637,499.303 363,497.5C 362.216,493.95 361.383,490.45 360.5,487C 361.223,484.982 362.223,483.148 363.5,481.5 Z"/></g>
<g><path style="opacity:1" fill="#ddc9c6" d="M 235.5,502.5 C 238.808,501.974 240.974,503.307 242,506.5C 242.667,509.833 242.667,513.167 242,516.5C 240.522,519.993 238.522,520.326 236,517.5C 233.195,513.909 232.195,509.909 233,505.5C 233.698,504.309 234.531,503.309 235.5,502.5 Z"/></g>
<g><path style="opacity:1" fill="#e0cdc9" d="M 346.5,503.5 C 353.071,503.65 354.571,506.317 351,511.5C 347.425,515.778 345.258,515.112 344.5,509.5C 344.611,507.286 345.278,505.286 346.5,503.5 Z"/></g>
<g><path style="opacity:1" fill="#3a3635" d="M 90.5,525.5 C 92.8825,527.046 95.5491,527.713 98.5,527.5C 100.209,534.91 97.8758,540.576 91.5,544.5C 90.8076,543.975 90.3076,543.308 90,542.5C 89.3742,536.805 89.5409,531.138 90.5,525.5 Z"/></g>
<g><path style="opacity:1" fill="#383433" d="M 499.5,527.5 C 501.144,527.286 502.644,527.62 504,528.5C 504.667,533.167 504.667,537.833 504,542.5C 503.692,543.308 503.192,543.975 502.5,544.5C 500.404,543.408 499.071,541.741 498.5,539.5C 499.362,535.547 499.695,531.547 499.5,527.5 Z"/></g>
</svg>
