<?xml version="1.0" encoding="UTF-8"?>
<!DOCTYPE svg PUBLIC "-//W3C//DTD SVG 1.1//EN" "http://www.w3.org/Graphics/SVG/1.1/DTD/svg11.dtd">
<svg xmlns="http://www.w3.org/2000/svg" version="1.1" width="600px" height="600px" style="shape-rendering:geometricPrecision; text-rendering:geometricPrecision; image-rendering:optimizeQuality; fill-rule:evenodd; clip-rule:evenodd" xmlns:xlink="http://www.w3.org/1999/xlink">
<g><path style="opacity:0.967" fill="#030202" d="M 599.5,303.5 C 599.5,323.833 599.5,344.167 599.5,364.5C 573.531,416.213 538.531,461.046 494.5,499C 458.077,530.021 427.243,525.187 402,484.5C 402.429,503.796 397.429,521.462 387,537.5C 368.862,557.493 347.028,562.993 321.5,554C 312.978,549.241 304.978,543.741 297.5,537.5C 292.027,541.14 286.694,544.973 281.5,549C 242.49,566.242 214.323,555.409 197,516.5C 195.095,508.263 193.762,499.929 193,491.5C 185.369,501.794 175.869,509.961 164.5,516C 151.556,521.056 138.89,520.389 126.5,514C 101.317,498.164 79.1505,478.664 60,455.5C 36.0094,427.344 15.8428,396.677 -0.5,363.5C -0.5,343.833 -0.5,324.167 -0.5,304.5C 30.57,231.998 70.07,164.665 118,102.5C 138.716,79.8884 164.216,65.7217 194.5,60C 227.716,46.8802 262.216,40.7135 298,41.5C 334.978,40.5787 370.478,47.2453 404.5,61.5C 405.446,61.0133 406.446,60.6799 407.5,60.5C 445.032,69.2018 474.532,89.5351 496,121.5C 526.839,164.385 554.506,209.385 579,256.5C 586.538,271.978 593.371,287.645 599.5,303.5 Z"/></g>
<g><path style="opacity:1" fill="#3e3027" d="M 286.5,52.5 C 294.167,51.1667 301.833,51.1667 309.5,52.5C 306.941,52.1984 304.607,52.5318 302.5,53.5C 298.833,53.5 295.167,53.5 291.5,53.5C 290.081,52.5489 288.415,52.2155 286.5,52.5 Z"/></g>
<g><path style="opacity:1" fill="#ecb895" d="M 286.5,52.5 C 288.415,52.2155 290.081,52.5489 291.5,53.5C 275.638,54.4888 265.471,62.4888 261,77.5C 263.707,133.822 266.541,190.155 269.5,246.5C 269.18,263.6 266.347,280.266 261,296.5C 246.015,324.468 231.015,352.468 216,380.5C 209.333,395.335 204.166,410.668 200.5,426.5C 182.793,374.543 165.96,322.209 150,269.5C 138.251,229.922 134.251,189.589 138,148.5C 144.089,113.621 162.589,87.9543 193.5,71.5C 223.03,58.3936 254.03,52.0603 286.5,52.5 Z"/></g>
<g><path style="opacity:1" fill="#ecb895" d="M 302.5,53.5 C 304.607,52.5318 306.941,52.1984 309.5,52.5C 342.421,52.1496 373.754,58.8163 403.5,72.5C 435.875,90.5035 454.375,118.17 459,155.5C 461.118,191.434 457.452,226.768 448,261.5C 440.86,285.064 434.193,308.731 428,332.5C 416.656,366.364 405.823,400.364 395.5,434.5C 391.478,418.263 386.311,402.263 380,386.5C 367.736,362.582 355.069,338.915 342,315.5C 336.211,302.583 331.545,289.249 328,275.5C 327.226,271.853 326.559,268.186 326,264.5C 325.333,248.833 325.333,233.167 326,217.5C 328.068,179.151 330.401,140.817 333,102.5C 333.667,93.8333 333.667,85.1667 333,76.5C 328.337,61.7325 318.171,54.0659 302.5,53.5 Z"/></g>
<g><path style="opacity:1" fill="#c9ac9b" d="M 301.5,63.5 C 296.859,64.1266 292.193,64.4599 287.5,64.5C 292.087,62.5445 296.754,62.2111 301.5,63.5 Z"/></g>
<g><path style="opacity:1" fill="#f7f3f3" d="M 301.5,63.5 C 303.415,63.2155 305.081,63.5489 306.5,64.5C 310.461,66.4806 314.461,68.4806 318.5,70.5C 320.262,71.2623 321.262,72.5956 321.5,74.5C 322.387,83.8006 322.721,93.1339 322.5,102.5C 322.5,103.833 322.5,105.167 322.5,106.5C 321.012,115.626 320.345,124.959 320.5,134.5C 320.065,150.354 319.065,166.021 317.5,181.5C 316.042,193.303 315.376,205.303 315.5,217.5C 315.333,233.503 315.5,249.503 316,265.5C 317.187,272.913 318.687,280.246 320.5,287.5C 320.678,290.216 321.178,292.883 322,295.5C 322.2,297.32 323.034,298.653 324.5,299.5C 326.403,302.979 328.07,306.646 329.5,310.5C 329.933,313.166 330.433,315.832 331,318.5C 344.255,342.675 357.255,367.008 370,391.5C 376.479,408.102 381.979,424.768 386.5,441.5C 390.415,463.048 391.248,484.715 389,506.5C 385.651,526.399 374.485,539.566 355.5,546C 343.651,548.9 332.317,547.566 321.5,542C 313.228,536.284 305.061,530.45 297,524.5C 289.606,530.117 282.106,535.617 274.5,541C 244.11,553.887 221.943,545.387 208,515.5C 206.358,510.292 205.358,504.959 205,499.5C 202.685,464.842 207.352,431.176 219,398.5C 220.337,394.493 222.17,390.827 224.5,387.5C 228.008,381.818 231.008,375.818 233.5,369.5C 234.376,369.631 235.043,369.298 235.5,368.5C 236.846,365.145 238.18,361.812 239.5,358.5C 240.376,358.631 241.043,358.298 241.5,357.5C 242.513,354.812 243.513,352.146 244.5,349.5C 245.079,346.669 246.412,344.336 248.5,342.5C 249.376,342.631 250.043,342.298 250.5,341.5C 252.179,337.479 253.846,333.479 255.5,329.5C 255.66,327.847 256.326,326.514 257.5,325.5C 260.874,321.419 263.207,316.753 264.5,311.5C 265.108,308.594 266.441,306.26 268.5,304.5C 269.79,303.942 270.623,302.942 271,301.5C 273.723,295.411 275.223,289.077 275.5,282.5C 275.788,279.061 276.454,275.728 277.5,272.5C 278.268,271.737 278.768,270.737 279,269.5C 279.499,265.848 279.665,262.182 279.5,258.5C 279.941,220.766 278.274,183.099 274.5,145.5C 272.228,123.269 271.061,100.935 271,78.5C 271.099,76.3474 271.933,74.6808 273.5,73.5C 275.5,72.1667 277.167,70.5 278.5,68.5C 281.686,67.4031 284.686,66.0697 287.5,64.5C 292.193,64.4599 296.859,64.1266 301.5,63.5 Z"/></g>
<g><path style="opacity:1" fill="#af8c74" d="M 287.5,64.5 C 284.686,66.0697 281.686,67.4031 278.5,68.5C 280.835,65.8352 283.835,64.5018 287.5,64.5 Z"/></g>
<g><path style="opacity:1" fill="#b7947e" d="M 306.5,64.5 C 311.35,64.9249 315.35,66.9249 318.5,70.5C 314.461,68.4806 310.461,66.4806 306.5,64.5 Z"/></g>
<g><path style="opacity:1" fill="#b18d76" d="M 278.5,68.5 C 277.167,70.5 275.5,72.1667 273.5,73.5C 274.167,70.8333 275.833,69.1667 278.5,68.5 Z"/></g>
<g><path style="opacity:1" fill="#d69b64" d="M 193.5,71.5 C 162.589,87.9543 144.089,113.621 138,148.5C 134.251,189.589 138.251,229.922 150,269.5C 165.96,322.209 182.793,374.543 200.5,426.5C 197.613,441.023 195.446,455.69 194,470.5C 187.714,482.787 179.214,493.287 168.5,502C 158.382,509.614 147.382,511.281 135.5,507C 118.056,496.603 102.056,484.27 87.5,470C 59.9814,441.447 36.4814,409.947 17,375.5C 9.89817,363.194 5.39817,350.027 3.5,336C 4.86287,323.049 8.02954,310.549 13,298.5C 43.2309,231.334 80.5642,168.667 125,110.5C 140.179,94.4898 158.013,82.3231 178.5,74C 183.325,72.1053 188.325,71.272 193.5,71.5 Z"/></g>
<g><path style="opacity:1" fill="#d69b64" d="M 395.5,434.5 C 405.823,400.364 416.656,366.364 428,332.5C 434.193,308.731 440.86,285.064 448,261.5C 457.452,226.768 461.118,191.434 459,155.5C 454.375,118.17 435.875,90.5035 403.5,72.5C 406.743,71.42 410.076,71.2534 413.5,72C 445.643,82.1597 470.81,101.326 489,129.5C 519.345,172.164 546.678,216.83 571,263.5C 580.62,282.406 588.287,302.073 594,322.5C 595.962,331.175 595.962,339.842 594,348.5C 582.663,376.187 567.996,401.854 550,425.5C 532.254,448.581 512.421,469.747 490.5,489C 480.759,496.871 470.093,503.205 458.5,508C 447.622,510.393 437.955,508.06 429.5,501C 409.047,483.411 397.714,461.244 395.5,434.5 Z"/></g>
<g><path style="opacity:1" fill="#b6937d" d="M 321.5,74.5 C 322.268,75.2625 322.768,76.2625 323,77.5C 323.823,86.0104 323.657,94.3437 322.5,102.5C 322.721,93.1339 322.387,83.8006 321.5,74.5 Z"/></g>
<g><path style="opacity:1" fill="#b99781" d="M 322.5,106.5 C 322.399,116.024 321.733,125.357 320.5,134.5C 320.345,124.959 321.012,115.626 322.5,106.5 Z"/></g>
<g><path style="opacity:1" fill="#bf9e89" d="M 274.5,145.5 C 278.274,183.099 279.941,220.766 279.5,258.5C 278.535,220.801 276.869,183.135 274.5,145.5 Z"/></g>
<g><path style="opacity:1" fill="#b3917a" d="M 317.5,181.5 C 317.421,193.686 316.754,205.686 315.5,217.5C 315.376,205.303 316.042,193.303 317.5,181.5 Z"/></g>
<g><path style="opacity:1" fill="#925e2e" d="M 206.5,220.5 C 228.179,218.243 242.679,227.243 250,247.5C 252.598,274.227 240.598,288.893 214,291.5C 192.066,289.001 180.566,276.668 179.5,254.5C 181.343,237.478 190.343,226.145 206.5,220.5 Z"/></g>
<g><path style="opacity:1" fill="#925e2e" d="M 372.5,220.5 C 394.747,218.187 409.247,227.521 416,248.5C 418.119,271.128 408.286,285.294 386.5,291C 365.732,292.569 352.232,283.403 346,263.5C 343.654,242.179 352.488,227.845 372.5,220.5 Z"/></g>
<g><path style="opacity:1" fill="#251916" d="M 211.5,233.5 C 230.967,234.454 239.134,244.454 236,263.5C 231.698,273.494 224.032,278.494 213,278.5C 200.614,276.112 193.781,268.612 192.5,256C 193.735,243.949 200.068,236.449 211.5,233.5 Z"/></g>
<g><path style="opacity:1" fill="#251916" d="M 375.5,233.5 C 395.345,233.176 404.178,242.843 402,262.5C 398.26,272.3 391.093,277.634 380.5,278.5C 360.642,274.099 354.475,262.433 362,243.5C 365.579,238.731 370.079,235.397 375.5,233.5 Z"/></g>
<g><path style="opacity:1" fill="#efefef" d="M 219.5,244.5 C 226.005,243.518 229.172,246.185 229,252.5C 225.421,258.753 221.421,259.086 217,253.5C 215.927,249.9 216.76,246.9 219.5,244.5 Z"/></g>
<g><path style="opacity:1" fill="#f3f3f3" d="M 386.5,244.5 C 395.306,244.464 397.639,248.297 393.5,256C 385.735,258.575 382.568,255.742 384,247.5C 385.045,246.627 385.878,245.627 386.5,244.5 Z"/></g>
<g><path style="opacity:1" fill="#c5a592" d="M 279.5,258.5 C 279.665,262.182 279.499,265.848 279,269.5C 278.768,270.737 278.268,271.737 277.5,272.5C 277.911,267.662 278.578,262.995 279.5,258.5 Z"/></g>
<g><path style="opacity:1" fill="#d0b29f" d="M 275.5,282.5 C 275.223,289.077 273.723,295.411 271,301.5C 270.623,302.942 269.79,303.942 268.5,304.5C 271.277,297.173 273.611,289.84 275.5,282.5 Z"/></g>
<g><path style="opacity:1" fill="#c9ac9a" d="M 320.5,287.5 C 322.405,291.216 323.739,295.216 324.5,299.5C 323.034,298.653 322.2,297.32 322,295.5C 321.178,292.883 320.678,290.216 320.5,287.5 Z"/></g>
<g><path style="opacity:1" fill="#b18d76" d="M 264.5,311.5 C 263.207,316.753 260.874,321.419 257.5,325.5C 259.326,320.516 261.659,315.849 264.5,311.5 Z"/></g>
<g><path style="opacity:1" fill="#d2b5a3" d="M 329.5,310.5 C 331.386,316.287 333.886,321.954 337,327.5C 349.096,348.022 360.43,369.022 371,390.5C 377.893,407.01 383.06,424.01 386.5,441.5C 381.979,424.768 376.479,408.102 370,391.5C 357.255,367.008 344.255,342.675 331,318.5C 330.433,315.832 329.933,313.166 329.5,310.5 Z"/></g>
<g><path style="opacity:1" fill="#c9ae9d" d="M 255.5,329.5 C 253.846,333.479 252.179,337.479 250.5,341.5C 250.043,342.298 249.376,342.631 248.5,342.5C 250.074,337.68 252.407,333.347 255.5,329.5 Z"/></g>
<g><path style="opacity:1" fill="#ccb2a2" d="M 244.5,349.5 C 243.513,352.146 242.513,354.812 241.5,357.5C 241.043,358.298 240.376,358.631 239.5,358.5C 240.41,355.008 242.076,352.008 244.5,349.5 Z"/></g>
<g><path style="opacity:1" fill="#ccb1a1" d="M 239.5,358.5 C 238.18,361.812 236.846,365.145 235.5,368.5C 235.043,369.298 234.376,369.631 233.5,369.5C 234.742,365.345 236.742,361.678 239.5,358.5 Z"/></g>
<g><path style="opacity:1" fill="#b18e77" d="M 233.5,369.5 C 231.008,375.818 228.008,381.818 224.5,387.5C 226.46,380.914 229.46,374.914 233.5,369.5 Z"/></g>
<g><path style="opacity:1" fill="#070606" d="M 283.5,429.5 C 294.877,429.174 306.21,429.674 317.5,431C 340.147,435.471 347.98,448.638 341,470.5C 334.175,481.98 324.342,489.813 311.5,494C 291.463,498.574 274.296,493.408 260,478.5C 251.328,467.092 250.328,455.092 257,442.5C 259.205,439.96 261.705,437.793 264.5,436C 270.653,433.052 276.986,430.886 283.5,429.5 Z"/></g>
<g><path style="opacity:1" fill="#362e2a" d="M 286.5,439.5 C 300.856,437.93 314.523,440.097 327.5,446C 334.609,452.643 335.442,460.143 330,468.5C 306.725,493.336 284.725,492.336 264,465.5C 260.868,457.842 262.368,451.342 268.5,446C 274.188,442.591 280.188,440.424 286.5,439.5 Z"/></g>
</svg>
