<?xml version="1.0" encoding="UTF-8"?>
<!DOCTYPE svg PUBLIC "-//W3C//DTD SVG 1.1//EN" "http://www.w3.org/Graphics/SVG/1.1/DTD/svg11.dtd">
<svg xmlns="http://www.w3.org/2000/svg" version="1.1" width="600px" height="600px" style="shape-rendering:geometricPrecision; text-rendering:geometricPrecision; image-rendering:optimizeQuality; fill-rule:evenodd; clip-rule:evenodd" xmlns:xlink="http://www.w3.org/1999/xlink">
<g><path style="opacity:0.988" fill="#000101" d="M 599.5,247.5 C 599.5,271.167 599.5,294.833 599.5,318.5C 597.194,318.993 594.861,319.326 592.5,319.5C 594.866,327.161 596.533,334.995 597.5,343C 596.829,347.861 595.995,352.695 595,357.5C 590.461,374.115 586.128,390.782 582,407.5C 580.189,411.655 577.023,413.655 572.5,413.5C 573.041,418.449 572.208,423.116 570,427.5C 568.266,429.451 566.099,430.451 563.5,430.5C 564.37,439.685 566.204,448.685 569,457.5C 571.609,471.854 565.776,478.688 551.5,478C 544.476,484.088 536.476,485.754 527.5,483C 516.866,476.68 506.199,470.347 495.5,464C 474.746,447.663 463.579,426.163 462,399.5C 456.755,410.894 452.089,422.56 448,434.5C 443.46,452.869 438.793,471.202 434,489.5C 426.909,510.293 412.409,521.293 390.5,522.5C 382.277,521.856 374.277,520.189 366.5,517.5C 358.808,537.358 344.808,550.525 324.5,557C 293.98,565.495 267.147,558.995 244,537.5C 239.612,531.391 236.279,524.724 234,517.5C 217.061,524.922 200.561,524.088 184.5,515C 181,511.5 177.5,508 174,504.5C 171.412,500.326 169.079,495.993 167,491.5C 162.061,475.744 158.061,459.744 155,443.5C 149.923,427.936 144.257,412.602 138,397.5C 136.121,408.684 133.454,419.684 130,430.5C 123.507,445.666 113.341,457.833 99.5,467C 89.841,471.828 80.5077,477.161 71.5,483C 62.5243,485.754 54.5243,484.088 47.5,478C 36.4254,479.269 30.4254,474.269 29.5,463C 32.0612,452.258 34.0612,441.425 35.5,430.5C 32.2933,429.974 29.7933,428.308 28,425.5C 26.7338,421.605 26.2338,417.605 26.5,413.5C 22.3158,413.156 19.1491,411.156 17,407.5C 12.9815,390.76 8.64818,374.093 4,357.5C 3.2855,352.6 2.45217,347.767 1.5,343C 2.71424,335.097 4.38091,327.264 6.5,319.5C 4.13895,319.326 1.80562,318.993 -0.5,318.5C -0.5,295.167 -0.5,271.833 -0.5,248.5C 29.2528,199.545 64.5861,154.711 105.5,114C 115.208,105.29 125.208,96.9566 135.5,89C 149.5,80.6667 163.5,72.3333 177.5,64C 216.44,45.8449 257.44,37.3449 300.5,38.5C 344.804,37.3931 386.804,46.5598 426.5,66C 438.665,73.9171 450.999,81.5838 463.5,89C 485.193,105.354 505.026,123.854 523,144.5C 551.061,177.043 576.561,211.376 599.5,247.5 Z"/></g>
<g><path style="opacity:1" fill="#362e2a" d="M 462.5,368.5 C 444.281,361.484 426.281,353.984 408.5,346C 399.44,339.275 390.107,332.942 380.5,327C 375.801,325.287 373.468,326.787 373.5,331.5C 359.065,313.196 345.898,293.862 334,273.5C 327.304,259.088 322.804,244.588 320.5,230C 318.314,216.738 315.48,203.571 312,190.5C 310.057,184.672 307.724,179.005 305,173.5C 302.105,167.559 298.771,167.225 295,172.5C 293.877,175.249 292.377,177.749 290.5,180C 290.833,180.333 291.167,180.667 291.5,181C 289.833,184.667 288.167,188.333 286.5,192C 286.957,192.414 287.291,192.914 287.5,193.5C 285.754,198.32 284.088,203.154 282.5,208C 280.687,239.33 271.187,268.497 254,295.5C 245.337,308.643 236.17,321.31 226.5,333.5C 226.347,326.464 223.014,324.63 216.5,328C 205.833,335.333 195.167,342.667 184.5,350C 169.025,356.428 153.692,362.928 138.5,369.5C 110.932,310.463 101.098,248.463 109,183.5C 118.895,118.605 155.395,77.1046 218.5,59C 244.685,51.8936 271.352,48.727 298.5,49.5C 337.695,48.1058 375.361,54.9391 411.5,70C 454.969,92.0306 481.135,127.197 490,175.5C 499.76,242.594 490.593,306.927 462.5,368.5 Z"/></g>
<g><path style="opacity:1" fill="#c46a1e" d="M 222.5,164.5 C 241.84,163.997 255.34,172.664 263,190.5C 263.667,194.167 263.667,197.833 263,201.5C 261.833,204.909 259.5,206.909 256,207.5C 251.889,205.862 247.723,204.362 243.5,203C 232.373,202.592 221.707,200.259 211.5,196C 204.823,190.989 203.323,184.823 207,177.5C 211.362,172.088 216.528,167.755 222.5,164.5 Z"/></g>
<g><path style="opacity:1" fill="#c56b1e" d="M 364.5,164.5 C 379.219,162.938 389.385,168.938 395,182.5C 394.118,192.39 388.618,198.223 378.5,200C 372.5,200.667 366.5,201.333 360.5,202C 355.465,202.755 350.798,204.421 346.5,207C 339.148,207.307 335.815,203.64 336.5,196C 340.007,180.326 349.341,169.826 364.5,164.5 Z"/></g>
<g><path style="opacity:1" fill="#362e2b" d="M 373.5,331.5 C 385.531,346.05 394.364,362.383 400,380.5C 403.684,395.324 404.517,410.324 402.5,425.5C 399.438,438.451 393.104,449.618 383.5,459C 373.687,464.946 363.021,467.112 351.5,465.5C 336.654,461.44 321.987,456.774 307.5,451.5C 308.552,451.649 309.552,451.483 310.5,451C 303.425,446.122 301.925,439.956 306,432.5C 314.308,429.059 322.475,425.226 330.5,421C 345.935,412.293 353.102,399.127 352,381.5C 350.261,372.092 345.094,365.258 336.5,361C 314.832,353.551 292.832,352.551 270.5,358C 251.338,365.156 244.505,378.656 250,398.5C 253.482,406.966 258.982,413.8 266.5,419C 274.89,424.362 283.89,428.362 293.5,431C 296.393,435.025 297.226,439.525 296,444.5C 293.999,447.331 291.833,449.997 289.5,452.5C 276.627,456.757 263.627,460.59 250.5,464C 249.525,469.741 249.192,475.575 249.5,481.5C 248.512,476.36 248.179,471.026 248.5,465.5C 229.903,468.703 215.737,462.37 206,446.5C 202.645,439.253 199.812,431.919 197.5,424.5C 194.17,402.303 197.67,381.303 208,361.5C 213.929,351.967 220.095,342.633 226.5,333.5C 236.17,321.31 245.337,308.643 254,295.5C 271.187,268.497 280.687,239.33 282.5,208C 284.088,203.154 285.754,198.32 287.5,193.5C 287.291,192.914 286.957,192.414 286.5,192C 288.167,188.333 289.833,184.667 291.5,181C 291.167,180.667 290.833,180.333 290.5,180C 292.377,177.749 293.877,175.249 295,172.5C 298.771,167.225 302.105,167.559 305,173.5C 307.724,179.005 310.057,184.672 312,190.5C 315.48,203.571 318.314,216.738 320.5,230C 322.804,244.588 327.304,259.088 334,273.5C 345.898,293.862 359.065,313.196 373.5,331.5 Z"/></g>
<g><path style="opacity:1" fill="#000000" d="M 217.5,214.5 C 237.956,214.767 252.122,224.433 260,243.5C 260.497,246.146 260.664,248.813 260.5,251.5C 252.657,253.75 244.99,256.584 237.5,260C 227.833,263.333 218.167,263.333 208.5,260C 199.911,255.458 191.744,250.291 184,244.5C 183.333,242.5 183.333,240.5 184,238.5C 192.62,226.68 203.786,218.68 217.5,214.5 Z"/></g>
<g><path style="opacity:1" fill="#010100" d="M 372.5,214.5 C 392.35,214.341 407.517,222.675 418,239.5C 418.651,241.235 418.485,242.902 417.5,244.5C 411.243,249.587 404.576,254.087 397.5,258C 387.503,262.485 377.169,263.485 366.5,261C 358.269,257.384 349.936,254.05 341.5,251C 340.424,249.274 340.257,247.441 341,245.5C 346.809,230.189 357.309,219.856 372.5,214.5 Z"/></g>
<g><path style="opacity:1" fill="#f1f1f1" d="M 225.5,224.5 C 231.184,224.011 234.851,226.511 236.5,232C 234.313,239.504 229.813,241.337 223,237.5C 220.458,232.438 221.292,228.105 225.5,224.5 Z"/></g>
<g><path style="opacity:1" fill="#f2f2f2" d="M 383.5,224.5 C 393.197,224.72 395.864,229.22 391.5,238C 382.319,241.325 378.485,238.158 380,228.5C 381.102,227.051 382.269,225.718 383.5,224.5 Z"/></g>
<g><path style="opacity:1" fill="#c56b1e" d="M 226.5,333.5 C 220.095,342.633 213.929,351.967 208,361.5C 197.67,381.303 194.17,402.303 197.5,424.5C 196.639,433.781 198.805,442.448 204,450.5C 212.281,461.781 221.614,472.114 232,481.5C 235.526,488.386 238.359,495.553 240.5,503C 237.27,505.419 233.604,507.086 229.5,508C 216.121,513.314 203.121,512.648 190.5,506C 184.411,500.986 179.911,494.819 177,487.5C 172.24,471.701 168.24,455.701 165,439.5C 156.847,415.871 148.014,392.537 138.5,369.5C 153.692,362.928 169.025,356.428 184.5,350C 195.167,342.667 205.833,335.333 216.5,328C 223.014,324.63 226.347,326.464 226.5,333.5 Z"/></g>
<g><path style="opacity:1" fill="#c46a1d" d="M 462.5,368.5 C 454.076,389.691 445.909,411.024 438,432.5C 433.539,449.803 429.206,467.136 425,484.5C 416.856,507.826 400.689,516.326 376.5,510C 371.606,508.189 366.606,506.522 361.5,505C 360.484,504.481 359.818,503.647 359.5,502.5C 361.481,496.221 363.481,489.887 365.5,483.5C 381.162,470.513 392.996,454.846 401,436.5C 402.108,432.914 402.608,429.247 402.5,425.5C 404.517,410.324 403.684,395.324 400,380.5C 394.364,362.383 385.531,346.05 373.5,331.5C 373.468,326.787 375.801,325.287 380.5,327C 390.107,332.942 399.44,339.275 408.5,346C 426.281,353.984 444.281,361.484 462.5,368.5 Z"/></g>
<g><path style="opacity:1" fill="#000000" d="M 307.5,451.5 C 301.476,450.494 295.476,450.828 289.5,452.5C 291.833,449.997 293.999,447.331 296,444.5C 297.226,439.525 296.393,435.025 293.5,431C 283.89,428.362 274.89,424.362 266.5,419C 258.982,413.8 253.482,406.966 250,398.5C 244.505,378.656 251.338,365.156 270.5,358C 292.832,352.551 314.832,353.551 336.5,361C 345.094,365.258 350.261,372.092 352,381.5C 353.102,399.127 345.935,412.293 330.5,421C 322.475,425.226 314.308,429.059 306,432.5C 301.925,439.956 303.425,446.122 310.5,451C 309.552,451.483 308.552,451.649 307.5,451.5 Z"/></g>
<g><path style="opacity:1" fill="#f19c9f" d="M 307.5,451.5 C 321.987,456.774 336.654,461.44 351.5,465.5C 352.627,485.074 349.127,503.74 341,521.5C 328.441,539.254 311.274,546.088 289.5,542C 273.567,538.741 262.4,529.575 256,514.5C 251.972,503.862 249.806,492.862 249.5,481.5C 249.192,475.575 249.525,469.741 250.5,464C 263.627,460.59 276.627,456.757 289.5,452.5C 295.476,450.828 301.476,450.494 307.5,451.5 Z"/></g>
</svg>
