<?xml version="1.0" encoding="UTF-8"?>
<!DOCTYPE svg PUBLIC "-//W3C//DTD SVG 1.1//EN" "http://www.w3.org/Graphics/SVG/1.1/DTD/svg11.dtd">
<svg xmlns="http://www.w3.org/2000/svg" version="1.1" width="600px" height="600px" style="shape-rendering:geometricPrecision; text-rendering:geometricPrecision; image-rendering:optimizeQuality; fill-rule:evenodd; clip-rule:evenodd" xmlns:xlink="http://www.w3.org/1999/xlink">
<g><path style="opacity:0.967" fill="#020201" d="M 92.5,-0.5 C 117.167,-0.5 141.833,-0.5 166.5,-0.5C 174.137,2.15007 181.471,5.65007 188.5,10C 206.42,23.9158 223.753,38.5824 240.5,54C 241.448,54.4828 242.448,54.6495 243.5,54.5C 242.058,44.4591 246.558,39.1257 257,38.5C 272.799,41.2047 287.132,47.2047 300,56.5C 313.18,46.9923 327.846,40.9923 344,38.5C 353.896,39.5451 358.396,44.8784 357.5,54.5C 372.5,41.6667 387.5,28.8333 402.5,16C 411.711,8.93101 421.711,3.43101 432.5,-0.5C 457.5,-0.5 482.5,-0.5 507.5,-0.5C 530.154,16.667 547.988,38.0004 561,63.5C 562.622,67.9661 562.789,72.4661 561.5,77C 564.648,81.9639 566.981,87.2972 568.5,93C 568.167,94.6667 567.833,96.3333 567.5,98C 569.071,104.116 570.404,110.282 571.5,116.5C 571.5,121.656 569.5,125.822 565.5,129C 569.92,137.627 569.253,145.794 563.5,153.5C 564.992,158.9 564.826,164.233 563,169.5C 561.649,171.019 560.149,172.352 558.5,173.5C 557.613,182.832 555.446,191.832 552,200.5C 550.117,203.024 547.617,204.358 544.5,204.5C 542.624,214.178 537.124,217.512 528,214.5C 526.261,220.075 522.761,223.742 517.5,225.5C 519.802,233.712 521.636,242.045 523,250.5C 523.789,256.237 523.456,261.903 522,267.5C 517.591,274.316 511.424,276.649 503.5,274.5C 505.845,297.728 509.678,320.728 515,343.5C 516.814,351.418 514.981,358.251 509.5,364C 504.243,367.02 498.909,367.187 493.5,364.5C 493.167,365.5 492.833,366.5 492.5,367.5C 495.465,389.455 499.131,411.288 503.5,433C 501.576,444.185 495.409,447.685 485,443.5C 488.33,460.473 490.83,477.64 492.5,495C 491.856,515.895 487.023,535.728 478,554.5C 474.833,560.333 470.333,564.833 464.5,568C 461.772,569.086 459.106,569.42 456.5,569C 455.505,572.654 453.505,575.654 450.5,578C 443.424,582.12 435.924,585.287 428,587.5C 422.997,587.171 419.331,584.837 417,580.5C 415.528,576.277 414.528,571.943 414,567.5C 411.255,573.325 408.255,578.992 405,584.5C 399.619,591.138 393.119,592.638 385.5,589C 382.433,585.703 380.267,581.869 379,577.5C 372.838,583.498 365.671,587.831 357.5,590.5C 356.833,590.167 356.167,589.833 355.5,589.5C 350.231,593.63 344.565,596.963 338.5,599.5C 313.167,599.5 287.833,599.5 262.5,599.5C 256.234,597.289 250.568,593.956 245.5,589.5C 241.648,590.124 237.981,589.29 234.5,587C 229.074,583.871 223.907,580.371 219,576.5C 217.509,587.681 211.342,592.181 200.5,590C 193.564,583.987 188.73,576.487 186,567.5C 184.909,571.46 183.909,575.46 183,579.5C 181.036,583.799 177.702,586.132 173,586.5C 164.988,584.497 157.488,581.331 150.5,577C 147.898,574.228 145.898,571.061 144.5,567.5C 141.498,568.511 138.498,568.344 135.5,567C 129.722,562.943 125.222,557.777 122,551.5C 109.511,526.109 105.844,499.442 111,471.5C 113.653,461.902 115.653,452.235 117,442.5C 109.977,447.165 103.977,446.165 99,439.5C 98.2618,437.047 97.7618,434.547 97.5,432C 100.829,413.528 103.995,395.028 107,376.5C 107.667,372.167 107.667,367.833 107,363.5C 98.5264,367.878 91.8598,365.878 87,357.5C 86.2618,355.047 85.7618,352.547 85.5,350C 89.1279,331.527 92.6279,313.027 96,294.5C 97.1992,287.178 97.8659,279.845 98,272.5C 85.474,276.502 78.6406,271.835 77.5,258.5C 79.0349,247.714 80.8682,237.048 83,226.5C 77.6226,224.793 73.7893,221.293 71.5,216C 62.7293,217.611 57.0626,214.111 54.5,205.5C 50.9423,203.981 48.109,201.648 46,198.5C 43.7378,190.26 41.9045,181.926 40.5,173.5C 37.4337,171.707 35.6004,169.04 35,165.5C 34.6244,161.082 35.1244,156.749 36.5,152.5C 29.6836,145.505 28.6836,137.672 33.5,129C 29.8717,125.452 28.205,121.119 28.5,116C 28.8169,109.746 30.1503,103.746 32.5,98C 30.4047,91.2242 31.9047,85.0576 37,79.5C 35.6811,70.4398 37.6811,62.1065 43,54.5C 53.4607,37.445 65.9607,21.945 80.5,8C 84.6803,5.30357 88.6803,2.47023 92.5,-0.5 Z"/></g>
<g><path style="opacity:1" fill="#cda164" d="M 237.5,64.5 C 240.642,67.4686 243.975,70.302 247.5,73C 243.391,76.3877 238.725,78.721 233.5,80C 213.127,76.1219 196.293,81.9553 183,97.5C 177.577,104.427 172.744,111.76 168.5,119.5C 167.5,120.833 166.5,120.833 165.5,119.5C 164.786,117.189 163.786,115.022 162.5,113C 161.004,112.493 159.837,112.993 159,114.5C 156.19,121.196 154.856,128.196 155,135.5C 154.156,139.211 153.156,142.877 152,146.5C 150.817,147.731 149.651,147.731 148.5,146.5C 147.833,144.5 147.167,142.5 146.5,140.5C 145.726,139.289 144.893,139.289 144,140.5C 141.892,148.239 140.058,156.073 138.5,164C 138.167,164.5 137.833,165 137.5,165.5C 136.765,162.298 135.598,159.298 134,156.5C 132.171,163.796 130.505,171.13 129,178.5C 128.667,178.833 128.333,179.167 128,179.5C 126.907,177.651 125.574,175.984 124,174.5C 123.667,174.833 123.333,175.167 123,175.5C 121.899,181.489 120.732,187.489 119.5,193.5C 118.5,192.167 117.5,190.833 116.5,189.5C 115.914,189.709 115.414,190.043 115,190.5C 113.333,195.167 111.667,199.833 110,204.5C 108.748,202.999 107.748,201.332 107,199.5C 106.333,198.167 105.667,198.167 105,199.5C 104.327,206.222 103.327,212.888 102,219.5C 100.224,220.536 98.3911,220.536 96.5,219.5C 95.5188,213.21 93.1855,207.543 89.5,202.5C 87.6474,206.236 86.4808,210.236 86,214.5C 85.4646,216.271 84.6313,216.604 83.5,215.5C 80.0807,208.494 77.5807,201.161 76,193.5C 75.3109,192.643 74.4776,191.977 73.5,191.5C 70.7336,195.46 68.7336,199.793 67.5,204.5C 66.7261,205.711 65.8928,205.711 65,204.5C 63.5396,196.232 62.5396,187.898 62,179.5C 61.7508,178.376 61.2508,177.376 60.5,176.5C 58.921,181.344 58.0876,186.344 58,191.5C 57.7508,192.624 57.2508,193.624 56.5,194.5C 56.1667,194.167 55.8333,193.833 55.5,193.5C 51.5478,181.523 51.5478,169.523 55.5,157.5C 55.1667,156.5 54.8333,155.5 54.5,154.5C 51.5085,157.661 48.6752,160.995 46,164.5C 45.523,156.876 46.3563,149.376 48.5,142C 48.1667,140.833 47.8333,139.667 47.5,138.5C 45.8333,139.833 44.1667,141.167 42.5,142.5C 42.1667,141.333 41.8333,140.167 41.5,139C 43.6951,129.748 46.6951,120.748 50.5,112C 50.1667,111.5 49.8333,111 49.5,110.5C 46.9587,114.252 43.9587,117.585 40.5,120.5C 38.976,119.473 38.3094,117.973 38.5,116C 39.0309,111.012 40.1976,106.178 42,101.5C 46.0223,96.9788 49.8556,92.3121 53.5,87.5C 52.9984,86.479 52.3317,86.3123 51.5,87C 48.6397,89.3603 45.6397,91.527 42.5,93.5C 41.4173,92.635 41.2506,91.635 42,90.5C 46.5191,82.128 52.0191,74.4613 58.5,67.5C 58.3333,67.1667 58.1667,66.8333 58,66.5C 54.9177,68.625 51.7511,70.625 48.5,72.5C 47.3691,70.9255 47.2025,69.2588 48,67.5C 58.7749,47.38 72.6082,29.5466 89.5,14C 100.351,6.07822 112.517,2.91156 126,4.5C 148.412,3.89224 168.912,9.72558 187.5,22C 204.358,36.0314 221.025,50.198 237.5,64.5 Z"/></g>
<g><path style="opacity:1" fill="#cda164" d="M 503.5,215.5 C 501.376,216.031 499.876,217.365 499,219.5C 498.74,217.382 497.74,215.716 496,214.5C 495.827,209.416 495.161,204.416 494,199.5C 493.667,199.167 493.333,198.833 493,198.5C 492.086,200.664 490.919,202.664 489.5,204.5C 487.837,199.855 486.17,195.188 484.5,190.5C 483.998,189.479 483.332,189.312 482.5,190C 481.54,191.419 480.707,192.919 480,194.5C 479.667,194.167 479.333,193.833 479,193.5C 478.79,187.769 478.124,182.103 477,176.5C 476.692,175.692 476.192,175.025 475.5,174.5C 473.937,175.945 472.604,177.611 471.5,179.5C 471.167,179.167 470.833,178.833 470.5,178.5C 468.704,171.084 466.871,163.751 465,156.5C 463.848,159.44 462.848,162.44 462,165.5C 461.667,165.167 461.333,164.833 461,164.5C 459.49,156.416 457.657,148.416 455.5,140.5C 454.726,139.289 453.893,139.289 453,140.5C 452.088,142.659 451.255,144.825 450.5,147C 449.365,147.749 448.365,147.583 447.5,146.5C 445.027,138.361 443.527,130.028 443,121.5C 442.108,118.048 440.442,115.048 438,112.5C 435.894,114.377 434.561,116.71 434,119.5C 433.282,120.451 432.449,120.617 431.5,120C 425.076,107.901 416.742,97.2344 406.5,88C 402.153,84.3274 397.153,81.9941 391.5,81C 383.5,80.6667 375.5,80.3333 367.5,80C 361.445,79.3054 356.111,76.972 351.5,73C 355.462,70.8601 358.796,68.0267 361.5,64.5C 377.667,50.5018 394.001,36.6685 410.5,23C 423.77,12.905 438.77,6.90498 455.5,5C 481.89,-1.0394 504.057,5.79393 522,25.5C 533.724,38.6103 543.724,52.9437 552,68.5C 552.49,69.7932 552.657,71.1266 552.5,72.5C 548.755,70.953 545.088,69.453 541.5,68C 547.838,74.6748 553.004,82.1748 557,90.5C 557.749,91.635 557.583,92.635 556.5,93.5C 553.36,91.527 550.36,89.3603 547.5,87C 546.833,86.3333 546.167,86.3333 545.5,87C 549.333,91.5 553.167,96 557,100.5C 558.488,105.12 559.655,109.786 560.5,114.5C 560.588,116.712 560.088,118.712 559,120.5C 555.326,117.158 551.992,113.492 549,109.5C 550.42,116.704 552.754,123.704 556,130.5C 557.499,134.473 557.666,138.473 556.5,142.5C 554.833,141.167 553.167,139.833 551.5,138.5C 551.167,139.5 550.833,140.5 550.5,141.5C 552.917,149.076 553.917,156.743 553.5,164.5C 550.509,161.339 547.675,158.005 545,154.5C 545.093,161.722 545.926,168.888 547.5,176C 544.616,200.255 541.783,200.422 539,176.5C 537.413,186.179 535.58,195.846 533.5,205.5C 532.522,205.023 531.689,204.357 531,203.5C 530.404,198.854 528.57,194.854 525.5,191.5C 524.201,192.09 523.368,193.09 523,194.5C 521.466,201.768 519.133,208.768 516,215.5C 514.844,216.993 514.01,216.826 513.5,215C 512.796,211.872 512.296,208.706 512,205.5C 511.581,204.328 510.915,203.328 510,202.5C 506.76,206.313 504.594,210.646 503.5,215.5 Z"/></g>
<g><path style="opacity:1" fill="#e9cc8f" d="M 468.5,420.5 C 463.208,406.238 457.042,392.238 450,378.5C 444.625,372.777 439.958,366.443 436,359.5C 434.989,358.663 433.822,358.33 432.5,358.5C 432.657,357.127 432.49,355.793 432,354.5C 420.886,341.049 408.22,329.382 394,319.5C 391.383,311.818 388.883,304.151 386.5,296.5C 394.432,297.787 395.432,295.954 389.5,291C 387.336,290.086 385.336,288.919 383.5,287.5C 382.506,282.544 382.173,277.544 382.5,272.5C 401.663,274.348 412.663,265.681 415.5,246.5C 415.521,239.711 413.188,233.878 408.5,229C 400.19,223.66 391.19,220.993 381.5,221C 372.473,224.22 366.473,230.387 363.5,239.5C 362.749,240.573 361.749,240.74 360.5,240C 357.37,237.872 354.537,235.372 352,232.5C 350.264,219.179 344.764,207.346 335.5,197C 333.975,195.991 332.308,195.491 330.5,195.5C 330.5,193.5 330.5,191.5 330.5,189.5C 327.383,189.642 324.883,190.976 323,193.5C 323.658,186.22 324.158,178.887 324.5,171.5C 322.856,171.286 321.356,171.62 320,172.5C 315.92,180.329 311.587,187.996 307,195.5C 304.072,187.809 300.239,180.642 295.5,174C 294.552,173.517 293.552,173.351 292.5,173.5C 293.321,178.863 293.321,184.197 292.5,189.5C 289.693,187.331 286.693,185.665 283.5,184.5C 283.663,186.857 283.497,189.19 283,191.5C 280.564,187.55 277.064,185.55 272.5,185.5C 272.663,187.857 272.497,190.19 272,192.5C 266.859,190.339 264.692,191.839 265.5,197C 264.333,198.167 263.167,199.333 262,200.5C 257.519,210.952 252.853,221.285 248,231.5C 245.457,232.207 243.291,233.54 241.5,235.5C 240.817,235.137 240.15,234.804 239.5,234.5C 235.938,227.934 230.605,223.6 223.5,221.5C 211.435,225.449 200.268,231.116 190,238.5C 187.336,250.176 190.503,260.009 199.5,268C 203.474,270.602 207.807,272.102 212.5,272.5C 213.919,273.451 215.585,273.784 217.5,273.5C 217.328,277.534 216.828,281.534 216,285.5C 213.417,286.874 210.917,288.374 208.5,290C 207.642,291.788 206.642,293.622 205.5,295.5C 207.743,296.474 210.076,296.808 212.5,296.5C 209.974,304.91 207.141,313.243 204,321.5C 185.245,334.922 169.245,350.922 156,369.5C 147.029,384.945 139.529,401.112 133.5,418C 133.164,419.03 132.497,419.53 131.5,419.5C 130.31,416.923 128.31,416.09 125.5,417C 119.883,423.073 114.383,429.239 109,435.5C 108.333,431.833 108.333,428.167 109,424.5C 112.325,406.882 115.325,389.216 118,371.5C 119.061,365.276 118.394,359.276 116,353.5C 114.818,351.643 113.151,350.643 111,350.5C 106.56,352.486 102.06,353.986 97.5,355C 96.8656,352.925 96.5323,350.759 96.5,348.5C 99.9362,328.819 103.436,309.153 107,289.5C 108.423,279.536 108.756,269.536 108,259.5C 107.32,256.82 105.653,255.153 103,254.5C 99,257.833 95,261.167 91,264.5C 90.0546,264.095 89.3879,263.428 89,262.5C 88.2503,252.242 89.5837,242.242 93,232.5C 96.3888,232.297 99.8888,232.13 103.5,232C 107.066,231.3 109.9,229.467 112,226.5C 112.858,222.398 114.025,218.398 115.5,214.5C 119.221,212.289 121.554,209.123 122.5,205C 125.738,204.768 128.238,203.268 130,200.5C 130.995,196.855 131.828,193.188 132.5,189.5C 135.263,189.256 137.429,187.923 139,185.5C 140.278,182.279 141.111,178.946 141.5,175.5C 144.263,175.256 146.429,173.923 148,171.5C 149.636,167.29 150.803,162.956 151.5,158.5C 156.029,158.504 159.529,156.504 162,152.5C 164.148,145.906 165.982,139.239 167.5,132.5C 172.439,132.075 176.272,129.742 179,125.5C 184.006,114.994 190.84,105.828 199.5,98C 202.934,95.5651 206.6,93.5651 210.5,92C 219.833,91.6667 229.167,91.3333 238.5,91C 245.648,89.1774 251.815,85.6774 257,80.5C 257.564,77.8453 258.064,75.1786 258.5,72.5C 257.674,64.8403 256.008,57.1736 253.5,49.5C 269.657,50.9136 283.99,56.747 296.5,67C 303.079,67.2204 308.746,64.8871 313.5,60C 323.547,53.3725 334.547,49.8725 346.5,49.5C 344.637,57.3862 342.637,65.2196 340.5,73C 340.693,78.2047 343.026,82.2047 347.5,85C 351.804,87.7706 356.471,89.7706 361.5,91C 369.833,91.3333 378.167,91.6667 386.5,92C 394.112,93.8913 400.612,97.7246 406,103.5C 412.044,112.421 418.21,121.254 424.5,130C 427.022,131.341 429.689,132.174 432.5,132.5C 433.362,139.284 434.862,145.951 437,152.5C 439.733,156.75 443.566,159.084 448.5,159.5C 449.013,163.553 449.846,167.553 451,171.5C 452.745,173.749 454.912,175.416 457.5,176.5C 457.911,183.227 461.244,187.561 467.5,189.5C 466.979,195.462 468.979,200.295 473.5,204C 474.793,204.49 476.127,204.657 477.5,204.5C 477.749,209.43 480.083,213.097 484.5,215.5C 486.96,228.32 494.294,232.653 506.5,228.5C 510.933,239.765 512.766,251.431 512,263.5C 511.275,264.059 510.442,264.392 509.5,264.5C 505.753,262.261 502.42,259.427 499.5,256C 495.747,255.074 493.58,256.574 493,260.5C 492.554,263.343 492.054,266.176 491.5,269C 492.306,276.499 493.139,283.999 494,291.5C 497.63,310.65 501.13,329.817 504.5,349C 504.333,350.833 504.167,352.667 504,354.5C 503.107,355.081 502.107,355.415 501,355.5C 497.268,353.72 493.434,352.053 489.5,350.5C 485.605,352.603 483.438,355.936 483,360.5C 482.333,365.833 482.333,371.167 483,376.5C 486.36,394.798 489.526,413.132 492.5,431.5C 492.167,432.833 491.833,434.167 491.5,435.5C 486.628,429.614 481.628,423.78 476.5,418C 472.656,415.457 469.99,416.29 468.5,420.5 Z"/></g>
<g><path style="opacity:1" fill="#dec086" d="M 237.5,64.5 C 252.414,70.7092 252.08,76.2092 236.5,81C 227.833,81.3333 219.167,81.6667 210.5,82C 201.768,83.9492 194.268,88.1159 188,94.5C 180.723,103.111 174.223,112.278 168.5,122C 167.056,122.781 165.723,122.614 164.5,121.5C 163.833,119.833 163.167,118.167 162.5,116.5C 161.726,115.289 160.893,115.289 160,116.5C 157.783,126.108 155.783,135.775 154,145.5C 153.131,148.394 151.298,149.561 148.5,149C 146.765,146.808 145.598,144.308 145,141.5C 143.272,149.537 141.439,157.537 139.5,165.5C 136.018,166.823 134.185,165.49 134,161.5C 133.37,167.617 132.203,173.617 130.5,179.5C 127.233,180.992 125.066,179.992 124,176.5C 122.957,182.816 122.123,189.15 121.5,195.5C 119.019,195.677 117.186,194.677 116,192.5C 114.669,196.489 113.335,200.489 112,204.5C 109.925,205.895 108.092,205.562 106.5,203.5C 105.805,209.68 104.472,215.68 102.5,221.5C 99.7679,223.034 97.7679,222.367 96.5,219.5C 98.3911,220.536 100.224,220.536 102,219.5C 103.327,212.888 104.327,206.222 105,199.5C 105.667,198.167 106.333,198.167 107,199.5C 107.748,201.332 108.748,202.999 110,204.5C 111.667,199.833 113.333,195.167 115,190.5C 115.414,190.043 115.914,189.709 116.5,189.5C 117.5,190.833 118.5,192.167 119.5,193.5C 120.732,187.489 121.899,181.489 123,175.5C 123.333,175.167 123.667,174.833 124,174.5C 125.574,175.984 126.907,177.651 128,179.5C 128.333,179.167 128.667,178.833 129,178.5C 130.505,171.13 132.171,163.796 134,156.5C 135.598,159.298 136.765,162.298 137.5,165.5C 137.833,165 138.167,164.5 138.5,164C 140.058,156.073 141.892,148.239 144,140.5C 144.893,139.289 145.726,139.289 146.5,140.5C 147.167,142.5 147.833,144.5 148.5,146.5C 149.651,147.731 150.817,147.731 152,146.5C 153.156,142.877 154.156,139.211 155,135.5C 154.856,128.196 156.19,121.196 159,114.5C 159.837,112.993 161.004,112.493 162.5,113C 163.786,115.022 164.786,117.189 165.5,119.5C 166.5,120.833 167.5,120.833 168.5,119.5C 172.744,111.76 177.577,104.427 183,97.5C 196.293,81.9553 213.127,76.1219 233.5,80C 238.725,78.721 243.391,76.3877 247.5,73C 243.975,70.302 240.642,67.4686 237.5,64.5 Z"/></g>
<g><path style="opacity:1" fill="#dec186" d="M 361.5,64.5 C 358.796,68.0267 355.462,70.8601 351.5,73C 356.111,76.972 361.445,79.3054 367.5,80C 375.5,80.3333 383.5,80.6667 391.5,81C 397.153,81.9941 402.153,84.3274 406.5,88C 416.742,97.2344 425.076,107.901 431.5,120C 432.449,120.617 433.282,120.451 434,119.5C 434.561,116.71 435.894,114.377 438,112.5C 440.442,115.048 442.108,118.048 443,121.5C 443.527,130.028 445.027,138.361 447.5,146.5C 448.365,147.583 449.365,147.749 450.5,147C 451.255,144.825 452.088,142.659 453,140.5C 453.893,139.289 454.726,139.289 455.5,140.5C 457.657,148.416 459.49,156.416 461,164.5C 461.333,164.833 461.667,165.167 462,165.5C 462.848,162.44 463.848,159.44 465,156.5C 466.871,163.751 468.704,171.084 470.5,178.5C 470.833,178.833 471.167,179.167 471.5,179.5C 472.604,177.611 473.937,175.945 475.5,174.5C 476.192,175.025 476.692,175.692 477,176.5C 478.124,182.103 478.79,187.769 479,193.5C 479.333,193.833 479.667,194.167 480,194.5C 480.707,192.919 481.54,191.419 482.5,190C 483.332,189.312 483.998,189.479 484.5,190.5C 486.17,195.188 487.837,199.855 489.5,204.5C 490.919,202.664 492.086,200.664 493,198.5C 493.333,198.833 493.667,199.167 494,199.5C 495.161,204.416 495.827,209.416 496,214.5C 497.74,215.716 498.74,217.382 499,219.5C 499.876,217.365 501.376,216.031 503.5,215.5C 503.938,215.435 504.272,215.601 504.5,216C 502.5,216.667 501.167,218 500.5,220C 499.552,220.483 498.552,220.649 497.5,220.5C 496.274,217.997 495.274,215.331 494.5,212.5C 494.047,208.827 493.547,205.16 493,201.5C 492.244,204.792 490.411,205.792 487.5,204.5C 486.299,200.345 484.799,196.345 483,192.5C 482.121,195.346 480.454,196.013 478,194.5C 477.196,188.765 476.196,183.098 475,177.5C 473.776,180.473 471.776,181.14 469,179.5C 467.299,173.601 465.965,167.601 465,161.5C 465.209,165.459 463.375,167.126 459.5,166.5C 458.196,158.319 456.362,150.319 454,142.5C 453.358,144.762 452.525,146.929 451.5,149C 449.299,149.825 447.466,149.325 446,147.5C 443.727,136.8 441.393,126.134 439,115.5C 438.667,115.167 438.333,114.833 438,114.5C 437.023,117.102 435.856,119.602 434.5,122C 433.101,122.595 431.768,122.428 430.5,121.5C 423.843,110.005 415.843,99.5051 406.5,90C 401.244,85.7062 395.244,83.0395 388.5,82C 380.167,81.6667 371.833,81.3333 363.5,81C 358.688,80.0112 354.521,77.8445 351,74.5C 350.333,73.5 350.333,72.5 351,71.5C 354.128,68.5264 357.628,66.1931 361.5,64.5 Z"/></g>
<g><path style="opacity:1" fill="#cda164" d="M 363.5,239.5 C 372.124,249.069 378.458,260.069 382.5,272.5C 382.173,277.544 382.506,282.544 383.5,287.5C 385.336,288.919 387.336,290.086 389.5,291C 395.432,295.954 394.432,297.787 386.5,296.5C 388.883,304.151 391.383,311.818 394,319.5C 408.22,329.382 420.886,341.049 432,354.5C 432.49,355.793 432.657,357.127 432.5,358.5C 433.822,358.33 434.989,358.663 436,359.5C 439.958,366.443 444.625,372.777 450,378.5C 457.042,392.238 463.208,406.238 468.5,420.5C 471.325,433.804 474.158,447.137 477,460.5C 478.968,471.939 480.468,483.439 481.5,495C 481.021,513.736 476.854,531.57 469,548.5C 467.167,551 465.333,553.5 463.5,556C 461.945,557.289 460.279,557.956 458.5,558C 456.153,543.647 454.653,529.147 454,514.5C 453.827,510.281 452.827,506.281 451,502.5C 449.894,519.492 448.894,536.492 448,553.5C 447.732,558.65 446.732,563.65 445,568.5C 439.254,572.122 433.088,574.789 426.5,576.5C 424.518,559.864 422.684,543.198 421,526.5C 414.529,538.444 408.862,550.777 404,563.5C 401.465,569.408 398.298,574.908 394.5,580C 392.892,580.658 391.725,580.158 391,578.5C 390.42,571.127 388.92,563.794 386.5,556.5C 377.822,565.348 368.155,573.015 357.5,579.5C 357.167,578.833 356.833,578.167 356.5,577.5C 357.501,574.518 358.001,571.518 358,568.5C 352.458,579.708 343.624,586.874 331.5,590C 305.847,598.335 280.847,596.668 256.5,585C 251.254,580.425 246.754,575.258 243,569.5C 243.155,572.141 243.655,574.807 244.5,577.5C 244.167,578.167 243.833,578.833 243.5,579.5C 230.987,573.319 220.487,564.653 212,553.5C 210.619,562.136 208.953,570.802 207,579.5C 206.282,580.451 205.449,580.617 204.5,580C 197.813,569.124 192.313,557.624 188,545.5C 184.745,539.992 181.745,534.325 179,528.5C 176.565,543.705 174.898,559.038 174,574.5C 172.612,575.554 171.112,575.72 169.5,575C 164.468,573.402 159.968,570.902 156,567.5C 155.489,565.122 154.822,562.788 154,560.5C 152.247,541.199 150.914,521.866 150,502.5C 148.085,505.862 147.085,509.529 147,513.5C 145.887,527.524 144.554,541.524 143,555.5C 142.612,556.428 141.945,557.095 141,557.5C 137.679,555.512 135.012,552.846 133,549.5C 122.657,530.117 118.324,509.45 120,487.5C 122.372,466.305 126.539,445.472 132.5,425C 132.33,423.43 131.997,421.597 131.5,419.5C 132.497,419.53 133.164,419.03 133.5,418C 139.529,401.112 147.029,384.945 156,369.5C 169.245,350.922 185.245,334.922 204,321.5C 207.141,313.243 209.974,304.91 212.5,296.5C 210.076,296.808 207.743,296.474 205.5,295.5C 206.642,293.622 207.642,291.788 208.5,290C 210.917,288.374 213.417,286.874 216,285.5C 216.828,281.534 217.328,277.534 217.5,273.5C 215.585,273.784 213.919,273.451 212.5,272.5C 214.924,272.808 217.257,272.474 219.5,271.5C 224.031,260.103 229.864,249.436 237,239.5C 238.205,238.929 239.372,238.262 240.5,237.5C 239.873,236.583 239.539,235.583 239.5,234.5C 240.15,234.804 240.817,235.137 241.5,235.5C 243.291,233.54 245.457,232.207 248,231.5C 252.853,221.285 257.519,210.952 262,200.5C 263.167,199.333 264.333,198.167 265.5,197C 264.692,191.839 266.859,190.339 272,192.5C 272.497,190.19 272.663,187.857 272.5,185.5C 277.064,185.55 280.564,187.55 283,191.5C 283.497,189.19 283.663,186.857 283.5,184.5C 286.693,185.665 289.693,187.331 292.5,189.5C 293.321,184.197 293.321,178.863 292.5,173.5C 293.552,173.351 294.552,173.517 295.5,174C 300.239,180.642 304.072,187.809 307,195.5C 311.587,187.996 315.92,180.329 320,172.5C 321.356,171.62 322.856,171.286 324.5,171.5C 324.158,178.887 323.658,186.22 323,193.5C 324.883,190.976 327.383,189.642 330.5,189.5C 330.5,191.5 330.5,193.5 330.5,195.5C 332.308,195.491 333.975,195.991 335.5,197C 344.764,207.346 350.264,219.179 352,232.5C 354.537,235.372 357.37,237.872 360.5,240C 361.749,240.74 362.749,240.573 363.5,239.5 Z"/></g>
<g><path style="opacity:1" fill="#070504" d="M 382.5,272.5 C 378.458,260.069 372.124,249.069 363.5,239.5C 366.473,230.387 372.473,224.22 381.5,221C 391.19,220.993 400.19,223.66 408.5,229C 413.188,233.878 415.521,239.711 415.5,246.5C 412.663,265.681 401.663,274.348 382.5,272.5 Z"/></g>
<g><path style="opacity:1" fill="#080605" d="M 239.5,234.5 C 239.539,235.583 239.873,236.583 240.5,237.5C 239.372,238.262 238.205,238.929 237,239.5C 229.864,249.436 224.031,260.103 219.5,271.5C 217.257,272.474 214.924,272.808 212.5,272.5C 207.807,272.102 203.474,270.602 199.5,268C 190.503,260.009 187.336,250.176 190,238.5C 200.268,231.116 211.435,225.449 223.5,221.5C 230.605,223.6 235.938,227.934 239.5,234.5 Z"/></g>
<g><path style="opacity:1" fill="#ececec" d="M 218.5,228.5 C 226.357,229.165 229.19,233.165 227,240.5C 222.667,245.833 218.333,245.833 214,240.5C 212.309,235.131 213.809,231.131 218.5,228.5 Z"/></g>
<g><path style="opacity:1" fill="#ededed" d="M 393.5,228.5 C 400.203,229.257 403.036,232.924 402,239.5C 399.089,243.277 395.256,244.444 390.5,243C 385.882,236.848 386.882,232.014 393.5,228.5 Z"/></g>
<g><path style="opacity:1" fill="#221814" d="M 288.5,306.5 C 300.603,306.004 312.603,306.837 324.5,309C 339.853,311.691 349.353,320.524 353,335.5C 353.154,350.025 347.321,361.525 335.5,370C 305.028,390.31 277.861,386.477 254,358.5C 242.941,339.905 246.441,324.738 264.5,313C 272.37,309.869 280.37,307.702 288.5,306.5 Z"/></g>
<g><path style="opacity:1" fill="#312e2d" d="M 344.5,482.5 C 340.833,485.5 337.5,488.833 334.5,492.5C 310.955,507.375 287.621,507.042 264.5,491.5C 261.833,488.167 258.833,485.167 255.5,482.5C 250.812,470.091 246.145,457.758 241.5,445.5C 236.225,438.556 230.225,432.223 223.5,426.5C 215.719,417.77 210.719,407.603 208.5,396C 208.708,392.306 210.041,389.139 212.5,386.5C 216.196,394.887 220.696,402.887 226,410.5C 235.111,422.818 247.278,427.818 262.5,425.5C 260.052,426.473 257.385,426.806 254.5,426.5C 252.963,445.537 256.463,463.537 265,480.5C 276.053,494.574 290.553,500.074 308.5,497C 323.748,494.424 334.248,485.924 340,471.5C 344.902,456.895 346.735,441.895 345.5,426.5C 342.941,426.802 340.607,426.468 338.5,425.5C 349.908,427.317 359.908,424.484 368.5,417C 371.667,413.167 374.833,409.333 378,405.5C 381.34,398.798 384.673,392.131 388,385.5C 390.329,387.813 391.496,390.647 391.5,394C 390.395,401.65 387.895,408.816 384,415.5C 376.722,425.778 368.389,435.111 359,443.5C 354.258,456.562 349.425,469.562 344.5,482.5 Z"/></g>
<g><path style="opacity:1" fill="#f19c9f" d="M 337.5,425.5 C 337.833,425.5 338.167,425.5 338.5,425.5C 340.607,426.468 342.941,426.802 345.5,426.5C 346.735,441.895 344.902,456.895 340,471.5C 334.248,485.924 323.748,494.424 308.5,497C 290.553,500.074 276.053,494.574 265,480.5C 256.463,463.537 252.963,445.537 254.5,426.5C 257.385,426.806 260.052,426.473 262.5,425.5C 269.667,424.886 276.334,422.886 282.5,419.5C 288.309,416.929 294.309,414.929 300.5,413.5C 309.905,416.698 319.238,420.198 328.5,424C 331.432,424.953 334.432,425.453 337.5,425.5 Z"/></g>
<g><path style="opacity:1" fill="#685345" d="M 337.5,425.5 C 334.432,425.453 331.432,424.953 328.5,424C 319.238,420.198 309.905,416.698 300.5,413.5C 294.309,414.929 288.309,416.929 282.5,419.5C 287.493,415.427 293.326,412.76 300,411.5C 309.557,414.575 318.89,418.242 328,422.5C 330.795,423.185 333.628,423.685 336.5,424C 337.056,424.383 337.389,424.883 337.5,425.5 Z"/></g>
<g><path style="opacity:1" fill="#594840" d="M 282.5,419.5 C 276.334,422.886 269.667,424.886 262.5,425.5C 268.777,422.522 275.443,420.522 282.5,419.5 Z"/></g>
<g><path style="opacity:1" fill="#8a6f4c" d="M 223.5,426.5 C 230.225,432.223 236.225,438.556 241.5,445.5C 234.775,439.777 228.775,433.444 223.5,426.5 Z"/></g>
<g><path style="opacity:1" fill="#8a6f4c" d="M 255.5,482.5 C 258.833,485.167 261.833,488.167 264.5,491.5C 260.5,489.5 257.5,486.5 255.5,482.5 Z"/></g>
<g><path style="opacity:1" fill="#8e724d" d="M 344.5,482.5 C 342.167,486.833 338.833,490.167 334.5,492.5C 337.5,488.833 340.833,485.5 344.5,482.5 Z"/></g>
</svg>
