<?xml version="1.0" encoding="UTF-8"?>
<!DOCTYPE svg PUBLIC "-//W3C//DTD SVG 1.1//EN" "http://www.w3.org/Graphics/SVG/1.1/DTD/svg11.dtd">
<svg xmlns="http://www.w3.org/2000/svg" version="1.1" width="600px" height="600px" style="shape-rendering:geometricPrecision; text-rendering:geometricPrecision; image-rendering:optimizeQuality; fill-rule:evenodd; clip-rule:evenodd" xmlns:xlink="http://www.w3.org/1999/xlink">
<g><path style="opacity:0.953" fill="#030303" d="M 599.5,247.5 C 599.5,271.167 599.5,294.833 599.5,318.5C 597.194,318.993 594.861,319.326 592.5,319.5C 594.866,327.161 596.533,334.995 597.5,343C 596.829,347.861 595.995,352.695 595,357.5C 590.461,374.115 586.128,390.782 582,407.5C 580.189,411.655 577.023,413.655 572.5,413.5C 573.041,418.449 572.208,423.116 570,427.5C 568.266,429.451 566.099,430.451 563.5,430.5C 564.37,439.685 566.204,448.685 569,457.5C 571.609,471.854 565.776,478.688 551.5,478C 544.476,484.088 536.476,485.754 527.5,483C 516.866,476.68 506.199,470.347 495.5,464C 474.873,447.587 463.54,426.087 461.5,399.5C 456.118,411.601 451.284,423.935 447,436.5C 444.177,451.28 440.844,465.947 437,480.5C 433.663,490.839 428.997,500.506 423,509.5C 411.629,520.289 398.129,524.455 382.5,522C 376.793,520.818 371.126,519.818 365.5,519C 357.941,538.225 344.274,550.891 324.5,557C 293.98,565.495 267.147,558.995 244,537.5C 239.484,531.468 236.317,524.802 234.5,517.5C 223.763,521.024 212.763,522.191 201.5,521C 183.273,516.777 171.439,505.61 166,487.5C 161.794,470.136 157.461,452.803 153,435.5C 148.278,422.389 143.278,409.389 138,396.5C 136.278,408.056 133.611,419.389 130,430.5C 123.507,445.666 113.341,457.833 99.5,467C 89.841,471.828 80.5077,477.161 71.5,483C 62.5243,485.754 54.5243,484.088 47.5,478C 36.4254,479.269 30.4254,474.269 29.5,463C 32.0612,452.258 34.0612,441.425 35.5,430.5C 32.2933,429.974 29.7933,428.308 28,425.5C 26.7338,421.605 26.2338,417.605 26.5,413.5C 22.3158,413.156 19.1491,411.156 17,407.5C 12.9815,390.76 8.64818,374.093 4,357.5C 3.2855,352.6 2.45217,347.767 1.5,343C 2.71424,335.097 4.38091,327.264 6.5,319.5C 4.13895,319.326 1.80562,318.993 -0.5,318.5C -0.5,295.167 -0.5,271.833 -0.5,248.5C 29.2528,199.545 64.5861,154.711 105.5,114C 115.208,105.29 125.208,96.9566 135.5,89C 149.5,80.6667 163.5,72.3333 177.5,64C 216.44,45.8449 257.44,37.3449 300.5,38.5C 344.804,37.3931 386.804,46.5598 426.5,66C 438.665,73.9171 450.999,81.5838 463.5,89C 485.193,105.354 505.026,123.854 523,144.5C 551.061,177.043 576.561,211.376 599.5,247.5 Z"/></g>
<g><path style="opacity:1" fill="#fefaf5" d="M 441.5,87.5 C 449.121,94.9617 456.287,102.962 463,111.5C 480.536,137.436 490.536,166.103 493,197.5C 497.246,251.556 489.08,303.556 468.5,353.5C 457.128,380.918 446.295,408.584 436,436.5C 433.104,454.991 428.437,472.991 422,490.5C 416.533,504.627 406.2,511.627 391,511.5C 379.992,511.289 369.492,508.955 359.5,504.5C 360.955,497.301 363.121,490.301 366,483.5C 378.476,472.831 388.809,460.498 397,446.5C 400.321,440.546 401.988,434.213 402,427.5C 398.612,442.821 390.446,454.654 377.5,463C 369.014,465.293 360.347,466.126 351.5,465.5C 338.019,461.793 324.686,457.459 311.5,452.5C 308.553,449.981 306.053,446.981 304,443.5C 302.781,438.102 304.281,433.602 308.5,430C 320.727,426.922 331.393,421.089 340.5,412.5C 341.469,409.698 343.302,407.698 346,406.5C 352.341,396.455 353.674,385.788 350,374.5C 345.982,366.819 339.815,361.652 331.5,359C 310.481,353.029 289.481,353.029 268.5,359C 252.231,365.365 245.731,377.198 249,394.5C 252.47,405.305 258.97,413.805 268.5,420C 277.178,424.59 286.011,428.757 295,432.5C 298.059,439.993 296.559,446.327 290.5,451.5C 276.339,457.708 261.672,462.375 246.5,465.5C 228.68,468.171 215.18,461.838 206,446.5C 202.478,439.763 199.644,432.763 197.5,425.5C 196.863,434.445 199.03,442.779 204,450.5C 211.614,461.714 220.614,471.714 231,480.5C 235.552,487.94 238.719,495.94 240.5,504.5C 228.325,509.569 215.658,511.735 202.5,511C 187.893,506.388 178.726,496.555 175,481.5C 171.078,462.963 166.412,444.63 161,426.5C 151.258,401.77 141.425,377.103 131.5,352.5C 107.551,293.457 101.051,232.457 112,169.5C 119.438,135.585 136.272,107.585 162.5,85.5C 189.503,66.7707 219.503,55.604 252.5,52C 288.591,48.1536 324.591,48.8203 360.5,54C 390.099,59.1407 417.099,70.3073 441.5,87.5 Z"/></g>
<g><path style="opacity:1" fill="#f8ede3" d="M 162.5,85.5 C 136.272,107.585 119.438,135.585 112,169.5C 101.051,232.457 107.551,293.457 131.5,352.5C 129.891,355.149 129.057,358.149 129,361.5C 129.285,383.997 126.285,405.997 120,427.5C 115.124,438.386 107.957,447.552 98.5,455C 88.5,461 78.5,467 68.5,473C 58.3949,475.728 52.7282,471.895 51.5,461.5C 49.3102,463.524 46.9768,465.357 44.5,467C 40.874,467.838 39.2073,466.338 39.5,462.5C 44.7887,446.229 47.2887,429.562 47,412.5C 46.2825,411.549 45.4491,411.383 44.5,412C 42.4569,415.253 40.2902,418.42 38,421.5C 37.6667,421.167 37.3333,420.833 37,420.5C 37.6795,411.512 37.5128,402.512 36.5,393.5C 33.0317,396.456 30.0317,399.789 27.5,403.5C 24.1568,391.128 20.6568,378.795 17,366.5C 12.1068,353.673 11.4401,340.673 15,327.5C 16.9256,323.483 18.4256,319.316 19.5,315C 18.7142,311.761 17.3809,308.761 15.5,306C 12.0338,306.141 8.86713,307.308 6,309.5C 5.22797,309.355 4.5613,309.022 4,308.5C 3.33333,306.167 3.33333,303.833 4,301.5C 5.40501,296.453 6.90501,291.453 8.5,286.5C 3.33869,272.102 4.83869,258.436 13,245.5C 44.9041,195.907 82.4041,150.741 125.5,110C 136.861,100.323 149.194,92.156 162.5,85.5 Z"/></g>
<g><path style="opacity:1" fill="#f8ede3" d="M 441.5,87.5 C 452.229,94.0565 462.562,101.223 472.5,109C 516.976,150.786 555.476,197.286 588,248.5C 594.216,260.804 595.049,273.47 590.5,286.5C 593.596,293.546 595.096,300.879 595,308.5C 594.439,309.022 593.772,309.355 593,309.5C 590.379,307.773 587.545,306.44 584.5,305.5C 582.475,308.379 580.808,311.546 579.5,315C 582.066,321.363 584.232,327.863 586,334.5C 586.667,339.833 586.667,345.167 586,350.5C 581.459,367.789 577.125,385.123 573,402.5C 572.282,403.451 571.449,403.617 570.5,403C 568.602,399.379 566.102,396.212 563,393.5C 561.872,396.647 561.372,399.98 561.5,403.5C 561.964,409.179 562.131,414.846 562,420.5C 561.333,421.833 560.667,421.833 560,420.5C 558.291,417.582 556.458,414.748 554.5,412C 553.551,411.383 552.718,411.549 552,412.5C 551.333,416.833 551.333,421.167 552,425.5C 553.706,437.991 556.206,450.324 559.5,462.5C 559.793,466.338 558.126,467.838 554.5,467C 552.023,465.357 549.69,463.524 547.5,461.5C 545.826,472.168 539.826,476.001 529.5,473C 521.201,467.178 512.534,461.845 503.5,457C 493.477,449.648 485.644,440.482 480,429.5C 472.334,408.502 469.334,386.835 471,364.5C 470.205,360.688 469.371,357.021 468.5,353.5C 489.08,303.556 497.246,251.556 493,197.5C 490.536,166.103 480.536,137.436 463,111.5C 456.287,102.962 449.121,94.9617 441.5,87.5 Z"/></g>
<g><path style="opacity:1" fill="#38302c" d="M 217.5,214.5 C 237.223,214.381 251.057,223.381 259,241.5C 260.199,244.726 260.699,248.059 260.5,251.5C 252.434,254.027 244.434,256.861 236.5,260C 225.565,263.633 214.898,262.966 204.5,258C 197.564,254.06 190.897,249.727 184.5,245C 183.203,242.455 183.369,239.955 185,237.5C 193.274,226.035 204.108,218.368 217.5,214.5 Z"/></g>
<g><path style="opacity:1" fill="#38302c" d="M 372.5,214.5 C 392.358,214.345 407.524,222.678 418,239.5C 418.667,240.833 418.667,242.167 418,243.5C 408.306,252.932 396.806,259.099 383.5,262C 376.7,262.776 370.033,262.109 363.5,260C 356.717,256.607 349.717,253.774 342.5,251.5C 341.348,248.894 341.182,246.227 342,243.5C 347.872,229.124 358.038,219.457 372.5,214.5 Z"/></g>
<g><path style="opacity:1" fill="#f5f5f4" d="M 225.5,224.5 C 235.197,224.72 237.864,229.22 233.5,238C 224.894,240.732 221.061,237.566 222,228.5C 223.376,227.295 224.542,225.962 225.5,224.5 Z"/></g>
<g><path style="opacity:1" fill="#f6f6f6" d="M 383.5,224.5 C 391.201,224.362 394.367,228.029 393,235.5C 388.667,240.833 384.333,240.833 380,235.5C 378.662,230.96 379.829,227.293 383.5,224.5 Z"/></g>
<g><path style="opacity:1" fill="#372f2b" d="M 311.5,452.5 C 304.825,449.926 298.159,449.926 291.5,452.5C 290.893,452.376 290.56,452.043 290.5,451.5C 296.559,446.327 298.059,439.993 295,432.5C 286.011,428.757 277.178,424.59 268.5,420C 258.97,413.805 252.47,405.305 249,394.5C 245.731,377.198 252.231,365.365 268.5,359C 289.481,353.029 310.481,353.029 331.5,359C 339.815,361.652 345.982,366.819 350,374.5C 353.674,385.788 352.341,396.455 346,406.5C 343.302,407.698 341.469,409.698 340.5,412.5C 331.393,421.089 320.727,426.922 308.5,430C 304.281,433.602 302.781,438.102 304,443.5C 306.053,446.981 308.553,449.981 311.5,452.5 Z"/></g>
<g><path style="opacity:1" fill="#261a17" d="M 246.5,465.5 C 247.5,465.5 248.5,465.5 249.5,465.5C 247.792,484.72 250.959,503.053 259,520.5C 271.357,538.741 288.523,545.908 310.5,542C 331.435,537.041 343.935,523.875 348,502.5C 350.398,490.285 351.565,477.952 351.5,465.5C 360.347,466.126 369.014,465.293 377.5,463C 390.446,454.654 398.612,442.821 402,427.5C 401.988,434.213 400.321,440.546 397,446.5C 388.809,460.498 378.476,472.831 366,483.5C 363.121,490.301 360.955,497.301 359.5,504.5C 354.696,526.139 341.696,540.306 320.5,547C 297.102,553.755 275.769,549.755 256.5,535C 248.673,526.18 243.339,516.013 240.5,504.5C 238.719,495.94 235.552,487.94 231,480.5C 220.614,471.714 211.614,461.714 204,450.5C 199.03,442.779 196.863,434.445 197.5,425.5C 199.644,432.763 202.478,439.763 206,446.5C 215.18,461.838 228.68,468.171 246.5,465.5 Z"/></g>
<g><path style="opacity:1" fill="#f09c9f" d="M 311.5,452.5 C 324.686,457.459 338.019,461.793 351.5,465.5C 351.565,477.952 350.398,490.285 348,502.5C 343.935,523.875 331.435,537.041 310.5,542C 288.523,545.908 271.357,538.741 259,520.5C 250.959,503.053 247.792,484.72 249.5,465.5C 248.5,465.5 247.5,465.5 246.5,465.5C 261.672,462.375 276.339,457.708 290.5,451.5C 290.56,452.043 290.893,452.376 291.5,452.5C 298.159,449.926 304.825,449.926 311.5,452.5 Z"/></g>
</svg>
