<?xml version="1.0" encoding="UTF-8"?>
<!DOCTYPE svg PUBLIC "-//W3C//DTD SVG 1.1//EN" "http://www.w3.org/Graphics/SVG/1.1/DTD/svg11.dtd">
<svg xmlns="http://www.w3.org/2000/svg" version="1.1" width="600px" height="600px" style="shape-rendering:geometricPrecision; text-rendering:geometricPrecision; image-rendering:optimizeQuality; fill-rule:evenodd; clip-rule:evenodd" xmlns:xlink="http://www.w3.org/1999/xlink">
<g><path style="opacity:0.966" fill="#050301" d="M 121.5,-0.5 C 133.833,-0.5 146.167,-0.5 158.5,-0.5C 169.435,8.60107 179.602,18.6011 189,29.5C 224.318,77.8652 250.818,130.865 268.5,188.5C 278.708,186.312 289.042,184.979 299.5,184.5C 309.94,185.104 320.273,186.438 330.5,188.5C 347.93,131.308 374.097,78.641 409,30.5C 418.699,19.6345 428.866,9.30112 439.5,-0.5C 451.833,-0.5 464.167,-0.5 476.5,-0.5C 480.054,4.64568 482.554,10.3123 484,16.5C 496.492,65.7832 504.325,115.783 507.5,166.5C 506.235,194.171 505.069,221.838 504,249.5C 502.051,261.395 497.384,272.061 490,281.5C 478.696,293.804 467.03,305.804 455,317.5C 453.414,319.67 452.08,322.004 451,324.5C 445.307,367.273 434.307,408.606 418,448.5C 408.667,468.5 399.333,488.5 390,508.5C 387.798,514.772 385.798,521.105 384,527.5C 380.565,549.014 375.232,570.014 368,590.5C 366.314,593.883 364.147,596.883 361.5,599.5C 320.167,599.5 278.833,599.5 237.5,599.5C 231.735,592.083 227.568,583.75 225,574.5C 220.587,551.513 214.92,528.846 208,506.5C 191.663,474.818 177.663,442.151 166,408.5C 157.751,380.256 151.418,351.589 147,322.5C 145.333,320.167 143.667,317.833 142,315.5C 130.304,304.138 118.97,292.471 108,280.5C 101.488,271.474 97.1551,261.474 95,250.5C 93.8933,222.34 92.7266,194.173 91.5,166C 94.501,116.493 102.001,67.6596 114,19.5C 115.692,12.4632 118.192,5.7965 121.5,-0.5 Z"/></g>
<g><path style="opacity:1" fill="#b9733a" d="M 111.5,82.5 C 112.468,84.6074 112.802,86.9407 112.5,89.5C 109.15,116.404 107.983,143.404 109,170.5C 112.658,193.02 114.991,215.687 116,238.5C 121.878,261.052 134.711,278.552 154.5,291C 160.331,293.229 165.998,292.895 171.5,290C 178.966,278.901 186.799,268.068 195,257.5C 206.632,244.2 218.632,231.2 231,218.5C 239.976,202.045 241.976,184.712 237,166.5C 225.64,120.423 205.974,78.0901 178,39.5C 172.167,32.3333 165.667,25.8333 158.5,20C 146.971,12.9081 136.804,14.4081 128,24.5C 124.322,30.6945 121.822,37.3612 120.5,44.5C 119.662,44.1583 119.328,43.4916 119.5,42.5C 121.139,29.9419 124.639,17.9419 130,6.5C 133.527,1.52847 138.027,0.361802 143.5,3C 148.098,5.27015 152.431,7.93682 156.5,11C 179.913,33.021 199.079,58.1877 214,86.5C 232.973,121.776 248.639,158.442 261,196.5C 262.255,198.594 264.088,199.594 266.5,199.5C 272.392,197.684 278.392,196.85 284.5,197C 271.76,209.087 264.594,223.92 263,241.5C 260.69,257.76 260.023,274.093 261,290.5C 264.251,307.423 267.251,324.423 270,341.5C 270.698,353.903 270.031,366.237 268,378.5C 258.683,413.209 246.35,446.543 231,478.5C 227,488.242 223.334,498.242 220,508.5C 210.274,486.714 200.274,465.047 190,443.5C 173.489,403.635 162.489,362.301 157,319.5C 149.459,307.622 140.126,297.289 129,288.5C 124.333,283.167 119.667,277.833 115,272.5C 110.111,265.172 106.778,257.172 105,248.5C 98.2461,192.76 100.413,137.426 111.5,82.5 Z"/></g>
<g><path style="opacity:1" fill="#b9733a" d="M 477.5,34.5 C 477.5,35.8333 477.5,37.1667 477.5,38.5C 475.195,31.0763 471.195,24.5763 465.5,19C 455.549,14.2789 446.215,15.2789 437.5,22C 418.192,41.1095 402.692,62.9428 391,87.5C 378.274,113.671 368.274,141.004 361,169.5C 356.107,188.257 359.107,205.591 370,221.5C 386.82,237.645 402.153,254.979 416,273.5C 419.308,279.95 423.474,285.783 428.5,291C 438.373,293.41 447.04,291.077 454.5,284C 463.855,275.319 471.688,265.486 478,254.5C 480.277,248.668 481.944,242.668 483,236.5C 484.74,207.739 487.24,179.072 490.5,150.5C 489.819,125.723 487.819,101.056 484.5,76.5C 484.232,74.901 484.566,73.5676 485.5,72.5C 497.241,130.643 500.075,189.31 494,248.5C 492.228,257.706 488.562,266.039 483,273.5C 472.03,285.471 460.696,297.138 449,308.5C 445.581,312.331 442.914,316.665 441,321.5C 435.872,364.414 424.872,405.748 408,445.5C 398.358,467.277 388.192,487.777 377.5,507C 367.185,480.184 356.352,453.684 345,427.5C 340.48,414.273 336.147,400.939 332,387.5C 327.472,370.022 326.472,352.355 329,334.5C 331.888,319.838 334.554,305.171 337,290.5C 338.458,264.924 335.458,239.924 328,215.5C 324.693,208.187 319.86,202.02 313.5,197C 319.846,197.366 326.179,198.199 332.5,199.5C 334.912,199.594 336.745,198.594 338,196.5C 354.042,144.421 377.042,95.754 407,50.5C 419.371,32.2516 434.538,16.7516 452.5,4C 462.15,-0.763982 468.65,2.06935 472,12.5C 474.778,19.6102 476.611,26.9436 477.5,34.5 Z"/></g>
<g><path style="opacity:1" fill="#0b0603" d="M 112.5,89.5 C 114.609,74.5222 117.275,59.5222 120.5,44.5C 121.822,37.3612 124.322,30.6945 128,24.5C 136.804,14.4081 146.971,12.9081 158.5,20C 165.667,25.8333 172.167,32.3333 178,39.5C 205.974,78.0901 225.64,120.423 237,166.5C 241.976,184.712 239.976,202.045 231,218.5C 218.632,231.2 206.632,244.2 195,257.5C 186.799,268.068 178.966,278.901 171.5,290C 165.998,292.895 160.331,293.229 154.5,291C 134.711,278.552 121.878,261.052 116,238.5C 114.991,215.687 112.658,193.02 109,170.5C 107.983,143.404 109.15,116.404 112.5,89.5 Z"/></g>
<g><path style="opacity:1" fill="#0c0603" d="M 477.5,38.5 C 479.637,51.3334 481.97,64.0001 484.5,76.5C 487.819,101.056 489.819,125.723 490.5,150.5C 487.24,179.072 484.74,207.739 483,236.5C 481.944,242.668 480.277,248.668 478,254.5C 471.688,265.486 463.855,275.319 454.5,284C 447.04,291.077 438.373,293.41 428.5,291C 423.474,285.783 419.308,279.95 416,273.5C 402.153,254.979 386.82,237.645 370,221.5C 359.107,205.591 356.107,188.257 361,169.5C 368.274,141.004 378.274,113.671 391,87.5C 402.692,62.9428 418.192,41.1095 437.5,22C 446.215,15.2789 455.549,14.2789 465.5,19C 471.195,24.5763 475.195,31.0763 477.5,38.5 Z"/></g>
<g><path style="opacity:1" fill="#e3a399" d="M 140.5,26.5 C 141.167,26.5 141.833,26.5 142.5,26.5C 144.527,26.3379 146.527,26.5045 148.5,27C 150.886,28.1932 153.22,29.3599 155.5,30.5C 158.167,33.8333 161.167,36.8333 164.5,39.5C 177.928,56.6849 189.595,75.0182 199.5,94.5C 200.71,99.251 202.71,103.584 205.5,107.5C 215.599,130.377 223.432,154.043 229,178.5C 231.028,192.049 228.194,204.383 220.5,215.5C 216.434,218.563 213.101,222.229 210.5,226.5C 207.833,228.5 205.5,230.833 203.5,233.5C 199.434,236.563 196.101,240.229 193.5,244.5C 182.881,255.627 173.548,267.793 165.5,281C 163.167,281.667 160.833,281.667 158.5,281C 156.609,279.558 154.609,278.391 152.5,277.5C 149.167,273.5 145.5,269.833 141.5,266.5C 136.245,259.663 131.745,252.33 128,244.5C 126.683,239.9 125.683,235.234 125,230.5C 124.688,218.447 123.855,206.447 122.5,194.5C 122.656,190.236 121.989,186.236 120.5,182.5C 116.374,133.092 120.707,84.4251 133.5,36.5C 135.328,32.8544 137.662,29.5211 140.5,26.5 Z"/></g>
<g><path style="opacity:1" fill="#e3a399" d="M 443.5,279.5 C 440.355,281.191 437.021,281.691 433.5,281C 432.267,279.333 430.933,277.833 429.5,276.5C 422.407,263.401 413.407,251.734 402.5,241.5C 398.227,235.558 393.227,230.224 387.5,225.5C 386.167,223.5 384.5,221.833 382.5,220.5C 381.581,217.911 379.914,215.911 377.5,214.5C 372.923,207.102 369.923,199.102 368.5,190.5C 370.799,171.97 375.299,153.97 382,136.5C 387.57,122.364 393.403,108.364 399.5,94.5C 402.008,90.8178 404.008,86.8178 405.5,82.5C 413.168,68.4928 421.834,55.1594 431.5,42.5C 436.167,38.5 440.5,34.1667 444.5,29.5C 447.348,27.505 450.514,26.1716 454,25.5C 455.5,25.8333 457,26.1667 458.5,26.5C 462.636,31.1034 465.469,36.4368 467,42.5C 480.978,95.9719 483.644,149.972 475,204.5C 475.287,217.687 473.954,230.687 471,243.5C 464.651,257.679 455.484,269.679 443.5,279.5 Z"/></g>
<g><path style="opacity:1" fill="#5a3a23" d="M 142.5,26.5 C 147.718,24.593 152.051,25.9263 155.5,30.5C 153.22,29.3599 150.886,28.1932 148.5,27C 146.527,26.5045 144.527,26.3379 142.5,26.5 Z"/></g>
<g><path style="opacity:1" fill="#492e17" d="M 155.5,30.5 C 159.5,32.5 162.5,35.5 164.5,39.5C 161.167,36.8333 158.167,33.8333 155.5,30.5 Z"/></g>
<g><path style="opacity:1" fill="#55361e" d="M 140.5,26.5 C 137.662,29.5211 135.328,32.8544 133.5,36.5C 133.889,31.6955 136.223,28.3622 140.5,26.5 Z"/></g>
<g><path style="opacity:1" fill="#5b3a22" d="M 444.5,29.5 C 440.5,34.1667 436.167,38.5 431.5,42.5C 434.833,37.1667 439.167,32.8333 444.5,29.5 Z"/></g>
<g><path style="opacity:1" fill="#8b562b" d="M 477.5,34.5 C 480.784,46.9155 483.451,59.5821 485.5,72.5C 484.566,73.5676 484.232,74.901 484.5,76.5C 481.97,64.0001 479.637,51.3334 477.5,38.5C 477.5,37.1667 477.5,35.8333 477.5,34.5 Z"/></g>
<g><path style="opacity:1" fill="#925b2d" d="M 119.5,42.5 C 119.328,43.4916 119.662,44.1583 120.5,44.5C 117.275,59.5222 114.609,74.5222 112.5,89.5C 112.802,86.9407 112.468,84.6074 111.5,82.5C 113.548,68.9256 116.215,55.5922 119.5,42.5 Z"/></g>
<g><path style="opacity:1" fill="#4d301a" d="M 405.5,82.5 C 404.008,86.8178 402.008,90.8178 399.5,94.5C 400.46,89.9136 402.46,85.9136 405.5,82.5 Z"/></g>
<g><path style="opacity:1" fill="#4e311a" d="M 199.5,94.5 C 202.29,98.4156 204.29,102.749 205.5,107.5C 202.71,103.584 200.71,99.251 199.5,94.5 Z"/></g>
<g><path style="opacity:1" fill="#593921" d="M 120.5,182.5 C 121.989,186.236 122.656,190.236 122.5,194.5C 121.205,190.733 120.539,186.733 120.5,182.5 Z"/></g>
<g><path style="opacity:1" fill="#f5f4f4" d="M 307.5,205.5 C 309.5,208.167 311.833,210.5 314.5,212.5C 321.771,227.248 325.771,242.914 326.5,259.5C 326.633,272.516 326.299,285.516 325.5,298.5C 323.712,308.112 322.045,317.779 320.5,327.5C 319.075,330.903 318.242,334.57 318,338.5C 317.176,347.343 317.343,356.01 318.5,364.5C 320.063,380.146 323.229,395.479 328,410.5C 338.837,439.839 350.503,468.839 363,497.5C 368.502,509.988 371.502,522.988 372,536.5C 368.886,553.624 364.22,570.29 358,586.5C 354.474,592.352 349.307,595.852 342.5,597C 337.167,597.667 331.833,597.667 326.5,597C 317.629,593.987 308.629,591.487 299.5,589.5C 290.371,591.487 281.371,593.987 272.5,597C 251.589,600.798 239.089,592.298 235,571.5C 232.154,557.423 228.987,543.423 225.5,529.5C 227.737,518.553 230.903,507.886 235,497.5C 246.057,471.661 256.724,445.661 267,419.5C 276.891,393.717 281.224,367.05 280,339.5C 277.147,324.199 274.481,308.865 272,293.5C 270.362,272.285 271.695,251.285 276,230.5C 278.163,220.661 282.997,212.495 290.5,206C 296.084,202.842 301.751,202.675 307.5,205.5 Z"/></g>
<g><path style="opacity:1" fill="#634531" d="M 307.5,205.5 C 310.833,206.833 313.167,209.167 314.5,212.5C 311.833,210.5 309.5,208.167 307.5,205.5 Z"/></g>
<g><path style="opacity:1" fill="#593922" d="M 377.5,214.5 C 379.914,215.911 381.581,217.911 382.5,220.5C 380.086,219.089 378.419,217.089 377.5,214.5 Z"/></g>
<g><path style="opacity:1" fill="#5b3a23" d="M 220.5,215.5 C 217.899,219.771 214.566,223.437 210.5,226.5C 213.101,222.229 216.434,218.563 220.5,215.5 Z"/></g>
<g><path style="opacity:1" fill="#51331c" d="M 387.5,225.5 C 393.227,230.224 398.227,235.558 402.5,241.5C 396.773,236.776 391.773,231.442 387.5,225.5 Z"/></g>
<g><path style="opacity:1" fill="#52341d" d="M 203.5,233.5 C 200.899,237.771 197.566,241.437 193.5,244.5C 196.101,240.229 199.434,236.563 203.5,233.5 Z"/></g>
<g><path style="opacity:1" fill="#50331b" d="M 141.5,266.5 C 145.5,269.833 149.167,273.5 152.5,277.5C 147.833,274.833 144.167,271.167 141.5,266.5 Z"/></g>
<g><path style="opacity:1" fill="#755846" d="M 326.5,259.5 C 327.166,264.489 327.499,269.656 327.5,275C 327.662,283.056 326.995,290.889 325.5,298.5C 326.299,285.516 326.633,272.516 326.5,259.5 Z"/></g>
<g><path style="opacity:1" fill="#51331c" d="M 429.5,276.5 C 430.933,277.833 432.267,279.333 433.5,281C 437.021,281.691 440.355,281.191 443.5,279.5C 442.942,280.79 441.942,281.623 440.5,282C 434.668,284.025 431.002,282.192 429.5,276.5 Z"/></g>
<g><path style="opacity:1" fill="#a66938" d="M 222.5,333.5 C 243.239,331.846 255.239,341.179 258.5,361.5C 255.543,382.48 243.543,391.647 222.5,389C 207.113,383.057 200.279,371.891 202,355.5C 205.259,344.744 212.092,337.411 222.5,333.5 Z"/></g>
<g><path style="opacity:1" fill="#a66938" d="M 361.5,333.5 C 385.678,332.181 397.511,343.514 397,367.5C 391.239,384.58 379.406,391.747 361.5,389C 346.133,383.106 339.3,371.939 341,355.5C 344.285,344.719 351.119,337.386 361.5,333.5 Z"/></g>
<g><path style="opacity:1" fill="#302725" d="M 224.5,342.5 C 242.225,341.722 250.059,350.055 248,367.5C 242.634,379.073 233.801,382.906 221.5,379C 210.763,371.645 208.263,362.145 214,350.5C 216.94,346.963 220.44,344.297 224.5,342.5 Z"/></g>
<g><path style="opacity:1" fill="#302725" d="M 363.5,342.5 C 383.064,342.225 390.564,351.559 386,370.5C 378.483,381.045 368.983,383.211 357.5,377C 345.294,363.013 347.294,351.513 363.5,342.5 Z"/></g>
<g><path style="opacity:1" fill="#684b37" d="M 320.5,327.5 C 318.823,339.766 318.156,352.099 318.5,364.5C 317.343,356.01 317.176,347.343 318,338.5C 318.242,334.57 319.075,330.903 320.5,327.5 Z"/></g>
<g><path style="opacity:1" fill="#f3f3f3" d="M 233.5,351.5 C 240.574,352.482 242.24,355.982 238.5,362C 232,363.5 229.5,361 231,354.5C 232.045,353.627 232.878,352.627 233.5,351.5 Z"/></g>
<g><path style="opacity:1" fill="#f0f0f0" d="M 373.5,351.5 C 380.985,352.805 382.319,356.305 377.5,362C 372.16,362.989 369.66,360.822 370,355.5C 370.69,353.65 371.856,352.316 373.5,351.5 Z"/></g>
<g><path style="opacity:1" fill="#080403" d="M 298.5,514.5 C 313.233,514.343 325.399,519.676 335,530.5C 341.467,546.103 337.633,558.603 323.5,568C 303.135,578.453 284.302,576.286 267,561.5C 254.956,540.744 260.122,525.91 282.5,517C 287.956,516.055 293.289,515.222 298.5,514.5 Z"/></g>
<g><path style="opacity:1" fill="#853812" d="M 288.5,525.5 C 295.508,525.334 302.508,525.5 309.5,526C 319.498,527.795 325.831,533.462 328.5,543C 327.612,549.883 324.279,555.216 318.5,559C 302.239,567.872 287.405,566.039 274,553.5C 268.72,545.574 269.554,538.407 276.5,532C 280.434,529.536 284.434,527.369 288.5,525.5 Z"/></g>
</svg>
