<?xml version="1.0" encoding="UTF-8"?>
<!DOCTYPE svg PUBLIC "-//W3C//DTD SVG 1.1//EN" "http://www.w3.org/Graphics/SVG/1.1/DTD/svg11.dtd">
<svg xmlns="http://www.w3.org/2000/svg" version="1.1" width="600px" height="600px" style="shape-rendering:geometricPrecision; text-rendering:geometricPrecision; image-rendering:optimizeQuality; fill-rule:evenodd; clip-rule:evenodd" xmlns:xlink="http://www.w3.org/1999/xlink">
<g><path style="opacity:0.969" fill="#010000" d="M 599.5,370.5 C 599.5,406.833 599.5,443.167 599.5,479.5C 596.038,486.808 590.871,492.808 584,497.5C 578.079,507.673 572.413,518.006 567,528.5C 563.5,532 560,535.5 556.5,539C 532.923,546.525 509.256,553.858 485.5,561C 480.875,562.162 476.208,562.496 471.5,562C 450.77,554.566 429.77,547.899 408.5,542C 398.414,537.907 390.081,531.573 383.5,523C 370.198,523.908 357.364,521.741 345,516.5C 315,523.167 285,523.167 255,516.5C 248.875,518.479 242.709,520.312 236.5,522C 229.854,523.535 223.187,523.868 216.5,523C 210.618,530.549 203.285,536.215 194.5,540C 174.227,545.869 154.227,552.536 134.5,560C 123.627,561.859 112.96,560.859 102.5,557C 85.5311,550.455 68.1978,545.121 50.5,541C 42.7815,537.947 36.9482,532.781 33,525.5C 28.5089,515.849 23.5089,506.515 18,497.5C 13.6742,494.174 9.6742,490.507 6,486.5C 2.62331,479.394 0.456642,472.06 -0.5,464.5C -0.5,435.833 -0.5,407.167 -0.5,378.5C 4.62173,366.589 5.62173,354.256 2.5,341.5C 3.28603,337.504 4.11937,333.504 5,329.5C 11.1186,314.595 17.7852,299.929 25,285.5C 25.7594,274.036 28.4261,263.036 33,252.5C 42.2516,237.666 51.2516,222.666 60,207.5C 60.7545,199.814 62.7545,192.481 66,185.5C 76.5623,171.933 88.229,159.266 101,147.5C 104.709,142.414 107.042,136.747 108,130.5C 112.634,120.529 119.467,112.363 128.5,106C 140.235,98.2673 151.402,89.7673 162,80.5C 166.051,70.4495 172.885,62.9495 182.5,58C 199.205,48.7651 216.872,42.0985 235.5,38C 240.274,37.3464 244.94,37.8464 249.5,39.5C 283.163,31.5472 316.83,31.5472 350.5,39.5C 355.412,37.9273 360.412,37.4273 365.5,38C 389.338,43.047 411.005,52.7137 430.5,67C 434.77,74.2033 439.77,80.87 445.5,87C 459.523,96.0188 472.69,106.185 485,117.5C 487.583,120.997 489.916,124.664 492,128.5C 493.359,134.916 495.693,140.916 499,146.5C 507,155.833 515.667,164.5 525,172.5C 530.599,178.695 534.933,185.695 538,193.5C 538.767,199.322 540.1,204.989 542,210.5C 551.731,225.905 561.065,241.572 570,257.5C 572.847,267.736 575.18,278.069 577,288.5C 583.546,300.924 589.546,313.591 595,326.5C 596.553,331.213 597.387,336.046 597.5,341C 596.605,348.49 596.438,355.99 597,363.5C 597.39,366.104 598.224,368.438 599.5,370.5 Z"/></g>
<g><path style="opacity:1" fill="#af5626" d="M 353.5,50.5 C 357.718,51.971 362.051,52.971 366.5,53.5C 369.797,55.6013 373.463,56.9347 377.5,57.5C 380.241,57.7073 382.574,58.7073 384.5,60.5C 393.159,65.4966 401.825,70.4966 410.5,75.5C 413.539,78.5398 416.873,81.2065 420.5,83.5C 435.721,98.292 447.721,115.292 456.5,134.5C 457.928,140.784 459.928,146.784 462.5,152.5C 464.26,156.547 465.26,160.88 465.5,165.5C 465.083,169.817 465.75,173.817 467.5,177.5C 468.452,200.658 467.119,223.658 463.5,246.5C 462.087,249.219 461.42,252.219 461.5,255.5C 455.373,270.364 449.873,285.698 445,301.5C 441.151,311.192 437.318,320.859 433.5,330.5C 396.368,293.868 359.368,257.035 322.5,220C 321.668,219.312 321.002,219.479 320.5,220.5C 324.227,232.523 329.393,243.856 336,254.5C 351.499,277.494 366.499,300.827 381,324.5C 388.303,338.08 394.636,352.08 400,366.5C 406.458,365.458 412.958,364.458 419.5,363.5C 414.409,377.605 409.409,391.771 404.5,406C 405.45,413.456 405.784,420.956 405.5,428.5C 407.41,448.491 406.577,468.491 403,488.5C 401.667,491.833 400.333,495.167 399,498.5C 395.298,502.37 391.464,506.037 387.5,509.5C 382.778,510.914 377.945,511.914 373,512.5C 363.505,511.276 354.338,508.943 345.5,505.5C 337.472,500.489 329.472,495.489 321.5,490.5C 311.938,484.632 301.605,482.799 290.5,485C 285.696,486.572 281.029,488.405 276.5,490.5C 269.382,496.233 261.716,501.233 253.5,505.5C 249.089,506.693 244.756,508.193 240.5,510C 231.375,513.271 222.375,513.104 213.5,509.5C 212.817,509.863 212.15,510.196 211.5,510.5C 207.076,507.582 203.076,504.082 199.5,500C 199.833,499.667 200.167,499.333 200.5,499C 199.105,495.612 197.438,492.445 195.5,489.5C 194.949,482.964 193.949,476.631 192.5,470.5C 192.5,469.833 192.5,469.167 192.5,468.5C 192.47,446.817 192.636,425.15 193,403.5C 192.626,401.509 191.793,399.842 190.5,398.5C 186.631,385.78 181.964,373.447 176.5,361.5C 174.265,353.781 171.265,346.447 167.5,339.5C 159.618,319.181 151.952,298.848 144.5,278.5C 144.277,274.838 143.277,271.505 141.5,268.5C 141.164,263.114 139.83,258.114 137.5,253.5C 136.549,252.081 136.216,250.415 136.5,248.5C 134.92,238.021 133.253,227.688 131.5,217.5C 129.078,196.189 130.745,175.189 136.5,154.5C 139.013,150.622 140.346,146.289 140.5,141.5C 142.267,139.208 143.267,136.542 143.5,133.5C 147.751,125.999 151.751,118.332 155.5,110.5C 155.427,108.973 156.094,107.973 157.5,107.5C 162.929,100.897 168.595,94.3971 174.5,88C 181.356,82.6357 188.023,77.1357 194.5,71.5C 195.659,69.7497 197.326,68.7497 199.5,68.5C 202.992,67.5903 205.992,65.9236 208.5,63.5C 209.873,63.6567 211.207,63.49 212.5,63C 217.397,59.9984 222.397,57.4984 227.5,55.5C 230.785,55.0719 233.785,54.0719 236.5,52.5C 239.152,52.5905 241.485,51.9238 243.5,50.5C 280.167,42.5571 316.833,42.5571 353.5,50.5 Z"/></g>
<g><path style="opacity:1" fill="#663b24" d="M 243.5,50.5 C 241.485,51.9238 239.152,52.5905 236.5,52.5C 238.515,51.0762 240.848,50.4095 243.5,50.5 Z"/></g>
<g><path style="opacity:1" fill="#673b24" d="M 353.5,50.5 C 353.735,49.9033 354.235,49.5699 355,49.5C 359.027,50.6213 362.861,51.9546 366.5,53.5C 362.051,52.971 357.718,51.971 353.5,50.5 Z"/></g>
<g><path style="opacity:1" fill="#663b24" d="M 236.5,52.5 C 233.785,54.0719 230.785,55.0719 227.5,55.5C 230.084,53.5275 233.084,52.5275 236.5,52.5 Z"/></g>
<g><path style="opacity:1" fill="#683b24" d="M 366.5,53.5 C 370.537,54.0653 374.203,55.3987 377.5,57.5C 373.463,56.9347 369.797,55.6013 366.5,53.5 Z"/></g>
<g><path style="opacity:1" fill="#6e3e25" d="M 227.5,55.5 C 222.397,57.4984 217.397,59.9984 212.5,63C 211.207,63.49 209.873,63.6567 208.5,63.5C 214.2,59.4879 220.533,56.8213 227.5,55.5 Z"/></g>
<g><path style="opacity:1" fill="#673b24" d="M 208.5,63.5 C 205.992,65.9236 202.992,67.5903 199.5,68.5C 202.008,66.0764 205.008,64.4097 208.5,63.5 Z"/></g>
<g><path style="opacity:1" fill="#693c25" d="M 384.5,60.5 C 390.861,62.5131 396.861,65.3465 402.5,69C 405.42,70.9461 408.087,73.1128 410.5,75.5C 401.825,70.4966 393.159,65.4966 384.5,60.5 Z"/></g>
<g><path style="opacity:1" fill="#6a3c25" d="M 194.5,71.5 C 188.023,77.1357 181.356,82.6357 174.5,88C 168.595,94.3971 162.929,100.897 157.5,107.5C 166.565,92.1353 178.899,80.1353 194.5,71.5 Z"/></g>
<g><path style="opacity:1" fill="#6a3c25" d="M 410.5,75.5 C 414.704,77.0332 418.037,79.6998 420.5,83.5C 416.873,81.2065 413.539,78.5398 410.5,75.5 Z"/></g>
<g><path style="opacity:1" fill="#6c3d25" d="M 420.5,83.5 C 428.478,89.3121 435.311,96.3121 441,104.5C 447.489,113.811 452.656,123.811 456.5,134.5C 447.721,115.292 435.721,98.292 420.5,83.5 Z"/></g>
<g><path style="opacity:1" fill="#7d482d" d="M 454.5,106.5 C 466.405,112.903 475.905,121.903 483,133.5C 484.452,141.198 487.452,148.198 492,154.5C 502.697,164.863 513.03,175.529 523,186.5C 524.92,189.339 526.587,192.339 528,195.5C 528.964,201.585 530.298,207.585 532,213.5C 541.585,229.001 550.918,244.668 560,260.5C 562.388,270.813 564.722,281.146 567,291.5C 573.256,303.68 579.256,316.013 585,328.5C 586.045,332.632 586.878,336.798 587.5,341C 585.041,349.104 584.874,357.271 587,365.5C 590,376.167 593,386.833 596,397.5C 597.455,404.444 597.788,411.444 597,418.5C 594.248,423.838 592.582,429.505 592,435.5C 591.667,443.833 591.333,452.167 591,460.5C 590.787,466.639 589.787,472.639 588,478.5C 584.14,483.272 579.806,487.605 575,491.5C 569.079,501.673 563.413,512.006 558,522.5C 555.131,525.704 551.965,528.537 548.5,531C 528.936,536.188 509.602,542.188 490.5,549C 485.536,550.05 480.536,550.883 475.5,551.5C 454.69,544.545 433.69,538.045 412.5,532C 404.844,529.018 398.511,524.351 393.5,518C 403.294,512.53 409.794,504.364 413,493.5C 415.2,484.967 416.533,476.301 417,467.5C 417.333,446.5 417.667,425.5 418,404.5C 423.735,389.295 429.068,373.962 434,358.5C 446.857,328.592 458.523,298.259 469,267.5C 478.752,235.05 481.419,202.05 477,168.5C 472.954,146.525 465.454,125.859 454.5,106.5 Z"/></g>
<g><path style="opacity:1" fill="#7d482d" d="M 143.5,107.5 C 144.043,107.56 144.376,107.893 144.5,108.5C 122.441,147.515 115.275,189.182 123,233.5C 127.425,258.443 134.092,282.776 143,306.5C 156.582,339.832 169.749,373.332 182.5,407C 181.351,427.469 181.184,447.969 182,468.5C 182.64,482.059 185.64,495.059 191,507.5C 195.193,512.356 200.026,516.523 205.5,520C 199.978,525.262 193.644,529.262 186.5,532C 167.798,536.924 149.465,542.924 131.5,550C 124.776,550.774 118.11,550.441 111.5,549C 91.672,542.057 71.672,535.724 51.5,530C 49.04,528.542 46.8734,526.709 45,524.5C 39.0794,514.327 33.4127,503.994 28,493.5C 24.9513,488.784 20.9513,485.118 16,482.5C 12.0867,475.056 10.0867,467.056 10,458.5C 9.66667,449.167 9.33333,439.833 9,430.5C 8.12142,425.864 6.45475,421.531 4,417.5C 3.33333,412.5 3.33333,407.5 4,402.5C 7.02459,390.4 10.3579,378.4 14,366.5C 14.348,356.154 14.348,345.82 14,335.5C 14.7977,332.107 15.7977,328.774 17,325.5C 23.8791,312.409 30.2124,299.076 36,285.5C 36.7764,277.72 38.1097,270.053 40,262.5C 49.2674,245.574 58.9341,228.908 69,212.5C 70.7315,207.65 71.7315,202.65 72,197.5C 73.2277,193.941 74.8944,190.608 77,187.5C 88.3333,175.5 99.6667,163.5 111,151.5C 114.517,143.1 118.183,134.766 122,126.5C 128.77,119.561 135.936,113.228 143.5,107.5 Z"/></g>
<g><path style="opacity:1" fill="#683b24" d="M 155.5,110.5 C 151.751,118.332 147.751,125.999 143.5,133.5C 146.208,125.08 150.208,117.414 155.5,110.5 Z"/></g>
<g><path style="opacity:1" fill="#683c24" d="M 143.5,133.5 C 143.267,136.542 142.267,139.208 140.5,141.5C 140.733,138.458 141.733,135.792 143.5,133.5 Z"/></g>
<g><path style="opacity:1" fill="#673b24" d="M 456.5,134.5 C 459.473,140.085 461.473,146.085 462.5,152.5C 459.928,146.784 457.928,140.784 456.5,134.5 Z"/></g>
<g><path style="opacity:1" fill="#703f25" d="M 140.5,141.5 C 140.346,146.289 139.013,150.622 136.5,154.5C 137.057,149.835 138.39,145.502 140.5,141.5 Z"/></g>
<g><path style="opacity:1" fill="#7d4426" d="M 465.5,165.5 C 466.989,169.236 467.656,173.236 467.5,177.5C 465.75,173.817 465.083,169.817 465.5,165.5 Z"/></g>
<g><path style="opacity:1" fill="#040201" d="M 213.5,183.5 C 230.73,181.693 241.896,189.026 247,205.5C 248.854,221.98 242.02,233.147 226.5,239C 202.687,240.521 191.521,229.354 193,205.5C 196.259,194.744 203.092,187.411 213.5,183.5 Z"/></g>
<g><path style="opacity:1" fill="#030201" d="M 372.5,183.5 C 396.781,182.614 407.948,194.281 406,218.5C 400.725,234.748 389.559,241.581 372.5,239C 356.567,232.978 350.067,221.478 353,204.5C 355.914,194.089 362.414,187.089 372.5,183.5 Z"/></g>
<g><path style="opacity:1" fill="#221b18" d="M 228.5,196.5 C 221.946,196.927 219.946,200.26 222.5,206.5C 227.817,210.84 231.817,209.84 234.5,203.5C 238.827,212.643 236.827,220.476 228.5,227C 214.056,231.747 205.39,226.581 202.5,211.5C 204.238,199.826 210.904,193.992 222.5,194C 224.723,194.566 226.723,195.4 228.5,196.5 Z"/></g>
<g><path style="opacity:1" fill="#211b18" d="M 386.5,195.5 C 379.544,196.392 377.711,200.059 381,206.5C 386.223,210.823 390.723,210.156 394.5,204.5C 397.964,212.656 396.298,219.823 389.5,226C 380.679,231.454 372.846,230.287 366,222.5C 359.327,209.687 362.493,200.187 375.5,194C 379.448,193.255 383.115,193.755 386.5,195.5 Z"/></g>
<g><path style="opacity:1" fill="#efefef" d="M 386.5,195.5 C 390.625,197.287 393.292,200.287 394.5,204.5C 390.723,210.156 386.223,210.823 381,206.5C 377.711,200.059 379.544,196.392 386.5,195.5 Z"/></g>
<g><path style="opacity:1" fill="#f4f4f4" d="M 228.5,196.5 C 231.243,198.239 233.243,200.573 234.5,203.5C 231.817,209.84 227.817,210.84 222.5,206.5C 219.946,200.26 221.946,196.927 228.5,196.5 Z"/></g>
<g><path style="opacity:1" fill="#ac5627" d="M 433.5,330.5 C 429.174,341.138 424.841,351.804 420.5,362.5C 420.709,363.086 421.043,363.586 421.5,364C 415.771,377.855 410.437,391.855 405.5,406C 406.827,413.598 406.827,421.098 405.5,428.5C 405.784,420.956 405.45,413.456 404.5,406C 409.409,391.771 414.409,377.605 419.5,363.5C 412.958,364.458 406.458,365.458 400,366.5C 394.636,352.08 388.303,338.08 381,324.5C 366.499,300.827 351.499,277.494 336,254.5C 329.393,243.856 324.227,232.523 320.5,220.5C 321.002,219.479 321.668,219.312 322.5,220C 359.368,257.035 396.368,293.868 433.5,330.5 Z"/></g>
<g><path style="opacity:1" fill="#713f25" d="M 467.5,177.5 C 470.56,200.729 469.226,223.729 463.5,246.5C 467.119,223.658 468.452,200.658 467.5,177.5 Z"/></g>
<g><path style="opacity:1" fill="#683b24" d="M 131.5,217.5 C 133.253,227.688 134.92,238.021 136.5,248.5C 133.452,238.517 131.786,228.183 131.5,217.5 Z"/></g>
<g><path style="opacity:1" fill="#673b24" d="M 463.5,246.5 C 463.58,249.781 462.913,252.781 461.5,255.5C 461.42,252.219 462.087,249.219 463.5,246.5 Z"/></g>
<g><path style="opacity:1" fill="#6b3d25" d="M 137.5,253.5 C 139.83,258.114 141.164,263.114 141.5,268.5C 139.409,263.809 138.076,258.809 137.5,253.5 Z"/></g>
<g><path style="opacity:1" fill="#673b24" d="M 141.5,268.5 C 143.277,271.505 144.277,274.838 144.5,278.5C 142.723,275.495 141.723,272.162 141.5,268.5 Z"/></g>
<g><path style="opacity:1" fill="#693c25" d="M 144.5,278.5 C 151.952,298.848 159.618,319.181 167.5,339.5C 158.084,319.93 150.417,299.596 144.5,278.5 Z"/></g>
<g><path style="opacity:1" fill="#683b24" d="M 167.5,339.5 C 171.265,346.447 174.265,353.781 176.5,361.5C 172.735,354.553 169.735,347.219 167.5,339.5 Z"/></g>
<g><path style="opacity:1" fill="#673b24" d="M 461.5,255.5 C 450.774,290.834 437.94,325.501 423,359.5C 418.803,374.089 413.803,388.422 408,402.5C 407.667,424.167 407.333,445.833 407,467.5C 406.808,478.663 404.474,489.33 400,499.5C 396.541,503.8 392.374,507.134 387.5,509.5C 391.464,506.037 395.298,502.37 399,498.5C 400.333,495.167 401.667,491.833 403,488.5C 406.577,468.491 407.41,448.491 405.5,428.5C 406.827,421.098 406.827,413.598 405.5,406C 410.437,391.855 415.771,377.855 421.5,364C 421.043,363.586 420.709,363.086 420.5,362.5C 424.841,351.804 429.174,341.138 433.5,330.5C 437.318,320.859 441.151,311.192 445,301.5C 449.873,285.698 455.373,270.364 461.5,255.5 Z"/></g>
<g><path style="opacity:1" fill="#030101" d="M 284.5,367.5 C 298.932,366.927 313.265,367.761 327.5,370C 350.163,375.486 358.996,389.653 354,412.5C 344.111,432.04 328.277,443.54 306.5,447C 285.658,447.33 268.158,439.83 254,424.5C 241.63,407.578 242.797,391.745 257.5,377C 266.001,372.067 275.001,368.901 284.5,367.5 Z"/></g>
<g><path style="opacity:1" fill="#211a17" d="M 287.5,377.5 C 298.877,377.174 310.21,377.674 321.5,379C 344.115,383.545 350.282,396.045 340,416.5C 319.66,439.313 296.826,442.479 271.5,426C 257.795,417.44 253.628,405.607 259,390.5C 263.655,385.087 269.488,381.587 276.5,380C 280.312,379.205 283.979,378.371 287.5,377.5 Z"/></g>
<g><path style="opacity:1" fill="#683c25" d="M 176.5,361.5 C 181.964,373.447 186.631,385.78 190.5,398.5C 185.066,386.541 180.399,374.208 176.5,361.5 Z"/></g>
<g><path style="opacity:1" fill="#7a4327" d="M 190.5,398.5 C 191.793,399.842 192.626,401.509 193,403.5C 192.636,425.15 192.47,446.817 192.5,468.5C 191.184,447.98 191.184,427.313 192.5,406.5C 191.622,403.87 190.955,401.203 190.5,398.5 Z"/></g>
<g><path style="opacity:1" fill="#683b24" d="M 192.5,470.5 C 193.949,476.631 194.949,482.964 195.5,489.5C 193.331,483.48 192.331,477.147 192.5,470.5 Z"/></g>
<g><path style="opacity:1" fill="#643a23" d="M 276.5,490.5 C 276.548,493.292 275.215,495.125 272.5,496C 266.474,499.879 260.141,503.046 253.5,505.5C 261.716,501.233 269.382,496.233 276.5,490.5 Z"/></g>
<g><path style="opacity:1" fill="#613823" d="M 321.5,490.5 C 329.472,495.489 337.472,500.489 345.5,505.5C 337.79,502.478 330.457,498.644 323.5,494C 322.695,492.887 322.028,491.721 321.5,490.5 Z"/></g>
<g><path style="opacity:1" fill="#78462c" d="M 293.5,494.5 C 299.7,494.016 305.7,494.849 311.5,497C 316.991,501.246 322.658,505.246 328.5,509C 309.168,512.307 289.835,512.307 270.5,509C 276.033,506.066 281.033,502.4 285.5,498C 288.309,496.907 290.976,495.74 293.5,494.5 Z"/></g>
<g><path style="opacity:1" fill="#653a24" d="M 195.5,489.5 C 197.438,492.445 199.105,495.612 200.5,499C 200.167,499.333 199.833,499.667 199.5,500C 203.076,504.082 207.076,507.582 211.5,510.5C 211.565,510.938 211.399,511.272 211,511.5C 201.723,507.057 196.557,499.724 195.5,489.5 Z"/></g>
</svg>
