<?xml version="1.0" encoding="UTF-8"?>
<!DOCTYPE svg PUBLIC "-//W3C//DTD SVG 1.1//EN" "http://www.w3.org/Graphics/SVG/1.1/DTD/svg11.dtd">
<svg xmlns="http://www.w3.org/2000/svg" version="1.1" width="600px" height="600px" style="shape-rendering:geometricPrecision; text-rendering:geometricPrecision; image-rendering:optimizeQuality; fill-rule:evenodd; clip-rule:evenodd" xmlns:xlink="http://www.w3.org/1999/xlink">
<g><path style="opacity:0.945" fill="#000000" d="M 599.5,314.5 C 599.5,325.833 599.5,337.167 599.5,348.5C 594.953,351.721 589.953,352.887 584.5,352C 588.248,361.818 589.415,371.984 588,382.5C 586.202,388.895 584.202,395.228 582,401.5C 575.391,416.385 569.058,431.385 563,446.5C 559.811,450.508 555.645,452.508 550.5,452.5C 551.491,462.209 547.325,468.209 538,470.5C 537.333,473.167 537.333,475.833 538,478.5C 539.437,486.516 540.937,494.516 542.5,502.5C 541.074,517.201 533.407,522.368 519.5,518C 517.301,516.303 514.968,514.803 512.5,513.5C 506.386,520.029 499.053,521.862 490.5,519C 465.216,510.707 444.716,495.874 429,474.5C 422.857,462.404 418.524,449.738 416,436.5C 413.723,441.387 411.723,446.387 410,451.5C 409.227,469.68 409.394,487.847 410.5,506C 409.392,540.9 392.059,553.234 358.5,543C 349.642,540.325 340.975,537.159 332.5,533.5C 310.633,537.434 288.799,537.434 267,533.5C 252.571,540.365 237.405,544.698 221.5,546.5C 201.378,544.875 190.878,533.875 190,513.5C 189.449,501.161 189.616,488.827 190.5,476.5C 191.465,461.797 188.965,447.797 183,434.5C 181.287,451.391 175.62,466.725 166,480.5C 148.728,500.97 127.061,514.303 101,520.5C 94.6544,520.663 89.9878,517.997 87,512.5C 78.0963,522.183 69.0963,522.517 60,513.5C 58.1422,510.237 56.9755,506.737 56.5,503C 58.8863,492.735 60.8863,482.402 62.5,472C 58.7665,470.338 55.2665,468.171 52,465.5C 50.1891,461.024 49.1891,456.357 49,451.5C 44.3437,452.495 40.3437,451.162 37,447.5C 30.6089,431.718 23.9422,416.051 17,400.5C 9.47395,384.811 8.64062,368.811 14.5,352.5C 9.13045,352.906 4.13045,351.573 -0.5,348.5C -0.5,337.5 -0.5,326.5 -0.5,315.5C 6.94616,299.945 15.4462,284.945 25,270.5C 28.0029,260.828 32.3362,251.828 38,243.5C 51.5356,224.958 66.2023,207.291 82,190.5C 90.9155,172.321 101.582,155.321 114,139.5C 121.833,131.667 129.667,123.833 137.5,116C 146.63,108.602 156.963,103.602 168.5,101C 181.459,92.7908 195.459,87.1242 210.5,84C 214.443,81.1956 218.777,79.1956 223.5,78C 274.493,64.0218 325.493,64.0218 376.5,78C 389.043,83.1836 401.709,88.1836 414.5,93C 423.78,98.9728 433.78,103.306 444.5,106C 462.111,115.939 476.944,129.105 489,145.5C 500.184,160.363 510.184,176.03 519,192.5C 537.742,211.348 554.076,232.015 568,254.5C 573.508,269.186 580.842,282.852 590,295.5C 593.213,301.925 596.379,308.259 599.5,314.5 Z"/></g>
<g><path style="opacity:1" fill="#764328" d="M 333.5,523.5 C 323.198,517.105 312.032,512.772 300,510.5C 287.968,512.772 276.802,517.105 266.5,523.5C 256.849,526.55 247.182,529.717 237.5,533C 229.218,535.53 220.885,535.864 212.5,534C 207.6,532.098 204.433,528.598 203,523.5C 200.186,507.935 199.686,492.269 201.5,476.5C 201.098,467.162 200.598,457.828 200,448.5C 191.957,427.08 182.29,406.413 171,386.5C 172.409,402.086 172.742,417.753 172,433.5C 170.535,455.931 161.035,474.098 143.5,488C 130.922,498.206 116.755,505.373 101,509.5C 99.5643,509.441 98.231,509.108 97,508.5C 95.9194,504.203 94.9194,499.87 94,495.5C 87.6929,498.135 82.1929,501.968 77.5,507C 71.9632,511.155 68.6298,509.821 67.5,503C 72.3384,485.801 74.1717,468.301 73,450.5C 72.5814,449.328 71.9147,448.328 71,447.5C 67.9177,450.659 65.5843,454.325 64,458.5C 62.9887,459.337 61.8221,459.67 60.5,459.5C 60.8792,449.912 60.2126,440.412 58.5,431C 58.1501,429.743 57.4835,429.409 56.5,430C 53.4465,433.387 50.7798,437.053 48.5,441C 47.365,441.749 46.365,441.583 45.5,440.5C 37.7065,421.953 30.2065,403.286 23,384.5C 21.5288,378.569 21.1955,372.569 22,366.5C 23.9258,358.056 26.2591,349.722 29,341.5C 30.3138,337.819 29.1471,335.486 25.5,334.5C 20.4475,335.86 15.7808,338.027 11.5,341C 10.1667,341.667 8.83333,341.667 7.5,341C 6.07168,332.564 7.23835,324.397 11,316.5C 17.6557,302.514 25.3224,289.181 34,276.5C 36.7061,268.043 40.3728,260.043 45,252.5C 58.8218,232.67 74.1552,214.003 91,196.5C 103.48,169.015 120.98,145.181 143.5,125C 151.321,118.256 160.321,113.923 170.5,112C 184.51,103.33 199.51,96.9964 215.5,93C 219.443,90.1956 223.777,88.1956 228.5,87C 273.006,76.4767 317.673,75.81 362.5,85C 371.054,86.6277 379.054,89.6277 386.5,94C 401.711,98.4014 416.044,104.735 429.5,113C 440.186,115.009 449.519,119.676 457.5,127C 479.248,147.743 496.748,171.576 510,198.5C 526.513,215.671 541.513,234.005 555,253.5C 559.379,261.963 563.379,270.629 567,279.5C 574.464,290.313 581.131,301.646 587,313.5C 590.256,320.855 592.422,328.522 593.5,336.5C 593.298,338.923 592.131,340.589 590,341.5C 584.814,338.909 579.481,336.576 574,334.5C 573.127,334.735 572.293,335.069 571.5,335.5C 570.345,338.446 570.179,341.446 571,344.5C 579.188,362.055 579.522,379.722 572,397.5C 565.724,411.718 559.724,426.052 554,440.5C 552.817,441.731 551.651,441.731 550.5,440.5C 548.151,436.472 545.317,432.806 542,429.5C 541.667,429.833 541.333,430.167 541,430.5C 539.749,439.759 539.082,449.092 539,458.5C 538.282,459.451 537.449,459.617 536.5,459C 533.789,455.078 530.955,451.244 528,447.5C 525.54,454.621 524.874,461.955 526,469.5C 527.253,480.599 529.087,491.599 531.5,502.5C 531.58,508.605 528.914,510.439 523.5,508C 518.459,502.729 512.626,498.562 506,495.5C 504.868,500.138 503.368,504.638 501.5,509C 498.072,509.701 494.738,509.368 491.5,508C 473.072,501.372 457.239,490.872 444,476.5C 436.036,466.902 431.036,455.902 429,443.5C 427.261,434.584 426.427,425.584 426.5,416.5C 426.854,406.789 427.354,397.122 428,387.5C 417.256,407.654 407.59,428.321 399,449.5C 398.225,468.346 398.391,487.18 399.5,506C 399.98,532.276 387.647,541.276 362.5,533C 352.818,529.717 343.151,526.55 333.5,523.5 Z"/></g>
<g><path style="opacity:1" fill="#231815" d="M 200.5,220.5 C 216.362,220.593 225.695,228.426 228.5,244C 225.719,261.117 215.719,268.784 198.5,267C 183.495,260.825 178.328,249.991 183,234.5C 187.237,227.755 193.071,223.088 200.5,220.5 Z"/></g>
<g><path style="opacity:1" fill="#231815" d="M 390.5,220.5 C 408.975,220.808 418.142,230.141 418,248.5C 411.547,266.146 399.713,271.312 382.5,264C 370.977,255.315 368.477,244.481 375,231.5C 379.127,226.202 384.294,222.535 390.5,220.5 Z"/></g>
<g><path style="opacity:1" fill="#efefef" d="M 211.5,228.5 C 216.984,228.481 218.65,230.981 216.5,236C 209.369,237.211 207.702,234.711 211.5,228.5 Z"/></g>
<g><path style="opacity:1" fill="#e6e6e6" d="M 404.5,228.5 C 411.004,228.138 412.671,230.638 409.5,236C 402.745,236.756 401.078,234.256 404.5,228.5 Z"/></g>
<g><path style="opacity:1" fill="#221814" d="M 285.5,393.5 C 302.554,392.16 319.221,393.993 335.5,399C 353.96,409.393 357.46,423.559 346,441.5C 315.638,471.713 284.972,472.047 254,442.5C 242.783,427.45 244.283,413.95 258.5,402C 267.09,397.444 276.09,394.61 285.5,393.5 Z"/></g>
<g><path style="opacity:1" fill="#221714" d="M 333.5,523.5 C 311.164,526.143 288.831,526.143 266.5,523.5C 276.802,517.105 287.968,512.772 300,510.5C 312.032,512.772 323.198,517.105 333.5,523.5 Z"/></g>
</svg>
