<?xml version="1.0" encoding="UTF-8"?>
<!DOCTYPE svg PUBLIC "-//W3C//DTD SVG 1.1//EN" "http://www.w3.org/Graphics/SVG/1.1/DTD/svg11.dtd">
<svg xmlns="http://www.w3.org/2000/svg" version="1.1" width="600px" height="600px" style="shape-rendering:geometricPrecision; text-rendering:geometricPrecision; image-rendering:optimizeQuality; fill-rule:evenodd; clip-rule:evenodd" xmlns:xlink="http://www.w3.org/1999/xlink">
<g><path style="opacity:0.953" fill="#020000" d="M 599.5,253.5 C 599.5,275.833 599.5,298.167 599.5,320.5C 583.173,363.166 560.673,402.166 532,437.5C 525.158,445.043 517.991,452.209 510.5,459C 492.955,473.138 474.622,474.138 455.5,462C 450.077,458.581 445.244,454.415 441,449.5C 438.648,458.907 435.981,468.24 433,477.5C 423.771,497.735 409.271,513.235 389.5,524C 386.634,525.276 383.8,525.443 381,524.5C 372.758,535.71 361.591,541.876 347.5,543C 337.45,544.388 327.45,546.055 317.5,548C 315.051,548.725 312.717,549.725 310.5,551C 303.044,562.157 295.378,562.157 287.5,551C 285.5,550 283.5,549 281.5,548C 265.998,545.833 250.665,542.833 235.5,539C 227.735,536.293 221.735,531.46 217.5,524.5C 214.498,525.511 211.498,525.344 208.5,524C 179.894,507.631 163.061,483.131 158,450.5C 148.346,460.244 136.846,466.744 123.5,470C 112.168,471.223 101.835,468.556 92.5,462C 70.9092,443.269 52.7426,421.769 38,397.5C 22.7369,372.641 9.9036,346.641 -0.5,319.5C -0.5,293.833 -0.5,268.167 -0.5,242.5C 2.81374,228.398 7.64707,214.731 14,201.5C 20.3489,192.917 28.1823,186.084 37.5,181C 40.3333,178.167 43.1667,175.333 46,172.5C 53.0069,159.327 61.8402,147.494 72.5,137C 78.9041,133.265 84.7374,128.765 90,123.5C 95.5852,114.665 100.919,105.665 106,96.5C 108.5,92.6667 111.667,89.5 115.5,87C 123.617,83.2161 131.95,79.8828 140.5,77C 143.833,73 147.167,69 150.5,65C 159.341,59.5392 169.008,57.0392 179.5,57.5C 182.089,57.5272 184.589,57.8606 187,58.5C 196.483,54.5008 206.316,52.8342 216.5,53.5C 219.906,49.6319 224.24,47.6319 229.5,47.5C 235.872,48.0328 242.039,49.3661 248,51.5C 251.628,48.5103 255.795,46.6769 260.5,46C 268.244,45.6194 275.911,45.9527 283.5,47C 295.472,39.7226 307.472,39.7226 319.5,47C 327.099,45.9515 334.766,45.6182 342.5,46C 347.066,47.0211 351.399,48.5211 355.5,50.5C 362.752,48.6786 370.085,47.8453 377.5,48C 380.29,48.5609 382.623,49.8942 384.5,52C 401.337,55.7939 418.337,58.4606 435.5,60C 439.112,61.1395 442.446,62.8061 445.5,65C 448.595,69.1847 451.928,73.1847 455.5,77C 464.014,79.8787 472.348,83.212 480.5,87C 483.333,89.8333 486.167,92.6667 489,95.5C 494,104.167 499,112.833 504,121.5C 513,129.167 522,136.833 531,144.5C 538,154.833 545,165.167 552,175.5C 558.896,181.363 566.063,186.863 573.5,192C 579.179,198.021 583.679,204.854 587,212.5C 591.035,226.331 595.202,239.998 599.5,253.5 Z"/></g>
<g><path style="opacity:1" fill="#9b511c" d="M 381.5,65.5 C 382.29,66.7942 383.29,67.9609 384.5,69C 416.533,86.3967 435.366,113.23 441,149.5C 445.908,180.222 445.575,210.888 440,241.5C 432.302,272.046 425.802,302.713 420.5,333.5C 413.415,328.205 405.915,323.539 398,319.5C 397.833,319.167 397.667,318.833 397.5,318.5C 399.966,317.877 402.299,317.043 404.5,316C 397.269,310.215 389.269,305.715 380.5,302.5C 382.667,301.052 385,299.885 387.5,299C 384.24,298.216 381.073,298.383 378,299.5C 374.209,294.188 369.043,291.354 362.5,291C 355.084,283.557 346.084,280.223 335.5,281C 328.95,275.754 321.617,274.254 313.5,276.5C 308.833,275.5 304.167,274.5 299.5,273.5C 294.833,274.5 290.167,275.5 285.5,276.5C 277.383,274.254 270.05,275.754 263.5,281C 252.919,280.192 243.919,283.526 236.5,291C 229.873,291.479 224.54,294.313 220.5,299.5C 217.562,298.425 214.562,298.259 211.5,299C 213.764,300.258 216.098,301.425 218.5,302.5C 209.731,305.715 201.731,310.215 194.5,316C 196.701,317.043 199.034,317.877 201.5,318.5C 193.589,323.068 185.923,328.068 178.5,333.5C 177.142,326.007 175.975,318.34 175,310.5C 168.59,283.266 162.59,255.933 157,228.5C 155.055,205.161 155.055,181.827 157,158.5C 159.768,127.821 172.601,102.321 195.5,82C 203.271,76.4661 210.938,70.9661 218.5,65.5C 222.24,65.7592 225.906,65.4259 229.5,64.5C 229.833,64.1667 230.167,63.8333 230.5,63.5C 229.5,62.1667 228.5,60.8333 227.5,59.5C 235.042,58.5331 242.375,59.5331 249.5,62.5C 253.335,60.0815 257.335,57.9149 261.5,56C 264.5,55.3333 267.5,55.3333 270.5,56C 273.515,57.3788 276.681,58.2121 280,58.5C 287.124,56.0204 294.291,53.6871 301.5,51.5C 308.604,53.5538 315.604,55.8872 322.5,58.5C 325.656,58.257 328.656,57.4237 331.5,56C 339.581,54.7088 346.581,56.8754 352.5,62.5C 359.667,60.0668 367,58.4001 374.5,57.5C 375.831,60.0491 374.998,61.7158 372,62.5C 371.333,63.1667 371.333,63.8333 372,64.5C 375.057,65.4505 378.223,65.7839 381.5,65.5 Z"/></g>
<g><path style="opacity:1" fill="#8d491a" d="M 218.5,65.5 C 210.938,70.9661 203.271,76.4661 195.5,82C 172.601,102.321 159.768,127.821 157,158.5C 155.055,181.827 155.055,205.161 157,228.5C 162.59,255.933 168.59,283.266 175,310.5C 175.975,318.34 177.142,326.007 178.5,333.5C 174.291,337.248 171.624,341.914 170.5,347.5C 171.177,351.993 173.844,353.66 178.5,352.5C 178.665,355.518 178.498,358.518 178,361.5C 174.929,365.911 172.763,370.745 171.5,376C 172.068,377.872 172.735,379.705 173.5,381.5C 170.093,384.738 167.259,388.405 165,392.5C 163.423,397.092 164.923,400.092 169.5,401.5C 166.718,409.624 165.052,417.958 164.5,426.5C 154.957,441.549 141.957,452.382 125.5,459C 119.083,459.87 112.749,459.536 106.5,458C 99.7931,454.646 93.7931,450.313 88.5,445C 46.6135,400.743 18.1135,348.91 3,289.5C 2.33333,282.5 2.33333,275.5 3,268.5C 7.82214,252.212 12.4888,235.878 17,219.5C 18.8061,214.554 21.1394,209.888 24,205.5C 33.1471,197.263 42.4804,189.263 52,181.5C 59.3333,170.833 66.6667,160.167 74,149.5C 81.9533,143.882 89.62,137.882 97,131.5C 102.755,123.664 107.755,115.331 112,106.5C 114.234,102.542 117.067,99.0422 120.5,96C 128.664,92.2107 136.997,88.8774 145.5,86C 147.96,84.5422 150.127,82.7089 152,80.5C 154.167,75.6667 157.667,72.1667 162.5,70C 171.45,68.8201 180.45,68.1535 189.5,68C 196.27,65.4127 203.27,63.9127 210.5,63.5C 213.527,63.2865 216.193,63.9532 218.5,65.5 Z"/></g>
<g><path style="opacity:1" fill="#8d491a" d="M 434.5,425.5 C 433.316,417.093 431.649,408.759 429.5,400.5C 432.321,400.684 433.988,399.351 434.5,396.5C 433.292,390.415 430.292,385.415 425.5,381.5C 426.265,379.705 426.932,377.872 427.5,376C 425.745,370.989 423.578,366.156 421,361.5C 420.502,358.518 420.335,355.518 420.5,352.5C 428.524,352.671 430.69,349.004 427,341.5C 424.999,338.669 422.833,336.003 420.5,333.5C 425.802,302.713 432.302,272.046 440,241.5C 445.575,210.888 445.908,180.222 441,149.5C 435.366,113.23 416.533,86.3967 384.5,69C 383.29,67.9609 382.29,66.7942 381.5,65.5C 383.223,64.1999 385.39,63.5332 388,63.5C 395.749,63.7636 403.249,65.2636 410.5,68C 418.229,68.1431 425.895,68.8097 433.5,70C 438,71.8333 441.167,75 443,79.5C 450.201,87.0236 459.034,91.5236 469.5,93C 472.941,94.776 476.108,96.9426 479,99.5C 485,109.5 491,119.5 497,129.5C 506,137.167 515,144.833 524,152.5C 529.667,161.167 535.333,169.833 541,178.5C 547.779,186.301 555.612,192.801 564.5,198C 572.693,205.878 578.193,215.378 581,226.5C 586.004,244.843 591.004,263.176 596,281.5C 595.547,295.985 592.547,309.985 587,323.5C 570.73,364.7 548.397,402.034 520,435.5C 511.705,444.135 502.538,451.635 492.5,458C 481.925,461.462 471.925,460.128 462.5,454C 450.934,446.601 441.601,437.101 434.5,425.5 Z"/></g>
<g><path style="opacity:1" fill="#834418" d="M 243.5,193.5 C 237.715,194.536 232.382,196.536 227.5,199.5C 222.07,201.05 217.07,203.384 212.5,206.5C 208.043,207.936 204.043,210.27 200.5,213.5C 199.534,215.396 199.201,217.396 199.5,219.5C 198.71,218.391 198.21,217.058 198,215.5C 188.81,223.699 181.476,233.366 176,244.5C 173.842,236.656 173.009,228.656 173.5,220.5C 171.533,220.261 169.699,220.594 168,221.5C 167.833,220.833 167.667,220.167 167.5,219.5C 170.828,213.17 174.161,206.837 177.5,200.5C 175.365,199.355 173.199,199.355 171,200.5C 169.72,200.387 168.887,199.72 168.5,198.5C 174.966,191.201 182.466,185.201 191,180.5C 191.684,179.216 191.517,178.049 190.5,177C 187.489,176.257 184.822,174.924 182.5,173C 190.344,166.78 199.344,163.447 209.5,163C 212.394,162.131 213.561,160.298 213,157.5C 209.774,155.131 207.608,152.131 206.5,148.5C 221.351,147.271 235.351,150.104 248.5,157C 257.891,164.84 261.058,174.673 258,186.5C 257.167,187.333 256.333,188.167 255.5,189C 251.14,189.838 247.14,191.338 243.5,193.5 Z"/></g>
<g><path style="opacity:1" fill="#834418" d="M 404.5,218.5 C 400.071,214.112 395.071,210.446 389.5,207.5C 383.74,204.287 377.74,201.62 371.5,199.5C 366.759,197.135 361.759,195.135 356.5,193.5C 355.817,193.863 355.15,194.196 354.5,194.5C 354.53,193.503 354.03,192.836 353,192.5C 340.686,189.881 336.686,182.548 341,170.5C 343.753,164.754 347.586,159.921 352.5,156C 360.342,153.076 368.342,150.743 376.5,149C 382.157,148.501 387.824,148.334 393.5,148.5C 392.392,152.131 390.226,155.131 387,157.5C 386.333,158.833 386.333,160.167 387,161.5C 394.217,164.514 401.717,166.681 409.5,168C 411.167,169 412.833,170 414.5,171C 416.007,171.837 416.507,173.004 416,174.5C 413.825,175.255 411.659,176.088 409.5,177C 408.446,178.388 408.28,179.888 409,181.5C 416.853,185.683 423.853,191.016 430,197.5C 430.483,198.448 430.649,199.448 430.5,200.5C 427.833,200.5 425.167,200.5 422.5,200.5C 424.774,206.381 427.607,212.048 431,217.5C 431.49,218.793 431.657,220.127 431.5,221.5C 430.07,221.579 428.736,221.246 427.5,220.5C 426.397,227.464 425.564,234.464 425,241.5C 424.581,242.672 423.915,243.672 423,244.5C 418.523,234.54 412.356,225.873 404.5,218.5 Z"/></g>
<g><path style="opacity:1" fill="#492713" d="M 243.5,193.5 C 256.043,203.851 258.876,216.517 252,231.5C 243.668,243.167 232.501,247.334 218.5,244C 207.066,239.739 200.733,231.572 199.5,219.5C 199.201,217.396 199.534,215.396 200.5,213.5C 204.043,210.27 208.043,207.936 212.5,206.5C 206.604,219.102 209.937,228.269 222.5,234C 238.127,235.373 245.627,228.206 245,212.5C 242.147,204.146 236.313,199.812 227.5,199.5C 232.382,196.536 237.715,194.536 243.5,193.5 Z"/></g>
<g><path style="opacity:1" fill="#482713" d="M 371.5,199.5 C 354.661,204.854 350.161,215.52 358,231.5C 367.723,240.406 377.723,240.739 388,232.5C 393.356,224.425 393.856,216.091 389.5,207.5C 395.071,210.446 400.071,214.112 404.5,218.5C 400.712,243.429 386.379,253.262 361.5,248C 344.713,238.703 339.213,224.87 345,206.5C 347.68,202.001 350.847,198.001 354.5,194.5C 355.15,194.196 355.817,193.863 356.5,193.5C 361.759,195.135 366.759,197.135 371.5,199.5 Z"/></g>
<g><path style="opacity:1" fill="#020101" d="M 227.5,199.5 C 236.313,199.812 242.147,204.146 245,212.5C 245.627,228.206 238.127,235.373 222.5,234C 209.937,228.269 206.604,219.102 212.5,206.5C 217.07,203.384 222.07,201.05 227.5,199.5 Z"/></g>
<g><path style="opacity:1" fill="#020101" d="M 371.5,199.5 C 377.74,201.62 383.74,204.287 389.5,207.5C 393.856,216.091 393.356,224.425 388,232.5C 377.723,240.739 367.723,240.406 358,231.5C 350.161,215.52 354.661,204.854 371.5,199.5 Z"/></g>
<g><path style="opacity:1" fill="#e3e3e3" d="M 234.5,204.5 C 239.708,204.369 241.375,206.702 239.5,211.5C 235.799,214.435 233.133,213.602 231.5,209C 232.315,207.357 233.315,205.857 234.5,204.5 Z"/></g>
<g><path style="opacity:1" fill="#eaeaea" d="M 378.5,206.5 C 386.543,206.003 388.21,208.836 383.5,215C 379.801,215.823 377.467,214.323 376.5,210.5C 377.18,209.14 377.847,207.807 378.5,206.5 Z"/></g>
<g><path style="opacity:1" fill="#7e3e12" d="M 420.5,333.5 C 422.833,336.003 424.999,338.669 427,341.5C 430.69,349.004 428.524,352.671 420.5,352.5C 420.335,355.518 420.502,358.518 421,361.5C 423.578,366.156 425.745,370.989 427.5,376C 426.932,377.872 426.265,379.705 425.5,381.5C 430.292,385.415 433.292,390.415 434.5,396.5C 433.988,399.351 432.321,400.684 429.5,400.5C 431.649,408.759 433.316,417.093 434.5,425.5C 433.081,431.111 430.415,431.777 426.5,427.5C 426.167,428 425.833,428.5 425.5,429C 428.317,433.63 429.984,438.63 430.5,444C 429.514,453.443 427.348,462.609 424,471.5C 422.951,472.517 421.784,472.684 420.5,472C 413.476,461.701 412.31,462.201 417,473.5C 418.124,476.442 418.458,479.442 418,482.5C 409.849,496.654 398.516,507.321 384,514.5C 382.893,514.415 381.893,514.081 381,513.5C 379.844,509.877 378.844,506.211 378,502.5C 377.586,502.043 377.086,501.709 376.5,501.5C 375.79,519.042 366.79,529.208 349.5,532C 337.433,533.628 325.433,535.628 313.5,538C 307.487,539.865 302.82,543.365 299.5,548.5C 296.926,544.758 293.593,541.925 289.5,540C 274.661,536.26 259.661,533.26 244.5,531C 235.015,529.508 228.515,524.342 225,515.5C 224.022,510.777 222.856,506.11 221.5,501.5C 220.914,501.709 220.414,502.043 220,502.5C 220.61,514.275 216.11,517.108 206.5,511C 195.907,503.742 187.407,494.575 181,483.5C 180.333,480.833 180.333,478.167 181,475.5C 182.355,471.831 183.355,468.165 184,464.5C 182.188,467.28 180.021,469.78 177.5,472C 176.552,472.483 175.552,472.649 174.5,472.5C 171.569,463.539 169.569,454.372 168.5,445C 168.94,439.009 170.607,433.343 173.5,428C 173.333,427.5 173.167,427 173,426.5C 169.704,431.716 166.871,431.716 164.5,426.5C 165.052,417.958 166.718,409.624 169.5,401.5C 164.923,400.092 163.423,397.092 165,392.5C 167.259,388.405 170.093,384.738 173.5,381.5C 172.735,379.705 172.068,377.872 171.5,376C 172.763,370.745 174.929,365.911 178,361.5C 178.498,358.518 178.665,355.518 178.5,352.5C 173.844,353.66 171.177,351.993 170.5,347.5C 171.624,341.914 174.291,337.248 178.5,333.5C 185.923,328.068 193.589,323.068 201.5,318.5C 199.034,317.877 196.701,317.043 194.5,316C 201.731,310.215 209.731,305.715 218.5,302.5C 216.098,301.425 213.764,300.258 211.5,299C 214.562,298.259 217.562,298.425 220.5,299.5C 224.54,294.313 229.873,291.479 236.5,291C 243.919,283.526 252.919,280.192 263.5,281C 270.05,275.754 277.383,274.254 285.5,276.5C 290.167,275.5 294.833,274.5 299.5,273.5C 304.167,274.5 308.833,275.5 313.5,276.5C 321.617,274.254 328.95,275.754 335.5,281C 346.084,280.223 355.084,283.557 362.5,291C 369.043,291.354 374.209,294.188 378,299.5C 381.073,298.383 384.24,298.216 387.5,299C 385,299.885 382.667,301.052 380.5,302.5C 389.269,305.715 397.269,310.215 404.5,316C 402.299,317.043 399.966,317.877 397.5,318.5C 397.667,318.833 397.833,319.167 398,319.5C 405.915,323.539 413.415,328.205 420.5,333.5 Z"/></g>
<g><path style="opacity:1" fill="#010101" d="M 289.5,364.5 C 304.85,363.627 319.85,365.46 334.5,370C 354.814,380.276 359.981,395.776 350,416.5C 337.493,433.467 320.66,443.134 299.5,445.5C 281.624,443.645 266.458,436.311 254,423.5C 243.107,410.014 241.774,395.681 250,380.5C 254.037,375.898 258.871,372.398 264.5,370C 272.781,367.294 281.114,365.46 289.5,364.5 Z"/></g>
</svg>
