<?xml version="1.0" encoding="UTF-8"?>
<!DOCTYPE svg PUBLIC "-//W3C//DTD SVG 1.1//EN" "http://www.w3.org/Graphics/SVG/1.1/DTD/svg11.dtd">
<svg xmlns="http://www.w3.org/2000/svg" version="1.1" width="600px" height="600px" style="shape-rendering:geometricPrecision; text-rendering:geometricPrecision; image-rendering:optimizeQuality; fill-rule:evenodd; clip-rule:evenodd" xmlns:xlink="http://www.w3.org/1999/xlink">
<g><path style="opacity:0.971" fill="#050303" d="M 281.5,-0.5 C 287.167,-0.5 292.833,-0.5 298.5,-0.5C 299.458,0.961599 300.624,2.29493 302,3.5C 304.806,10.4455 308.139,17.1122 312,23.5C 313.794,15.7435 317.294,8.91014 322.5,3C 332.074,-1.53197 339.074,0.968029 343.5,10.5C 350.717,6.60946 358.05,6.10946 365.5,9C 369.947,12.3132 372.114,16.8132 372,22.5C 381.683,20.6607 387.517,24.6607 389.5,34.5C 397.199,35.3697 401.866,39.5364 403.5,47C 407.419,48.8618 411.419,50.5285 415.5,52C 423.58,53.2828 431.58,54.9494 439.5,57C 450.366,59.5292 456.7,66.1958 458.5,77C 469.364,82.5351 478.364,90.2018 485.5,100C 494.507,103.683 501.673,109.516 507,117.5C 509.004,123.486 507.838,128.82 503.5,133.5C 523.66,180.477 541.16,228.477 556,277.5C 571.372,326.322 584.872,375.655 596.5,425.5C 595.243,433.105 593.076,440.439 590,447.5C 569.307,488.986 544.474,527.653 515.5,563.5C 517.086,566.341 518.92,569.007 521,571.5C 524.532,580.178 522.365,587.345 514.5,593C 510.738,595.206 507.071,597.373 503.5,599.5C 497.5,599.5 491.5,599.5 485.5,599.5C 481.562,596.065 477.729,592.398 474,588.5C 455.778,564.397 441.445,538.064 431,509.5C 423.713,515.957 415.546,520.957 406.5,524.5C 403.236,524.026 400.402,522.693 398,520.5C 391.111,529.539 382.277,536.039 371.5,540C 363.908,542.864 356.242,545.531 348.5,548C 336.624,566.693 319.457,575.86 297,575.5C 275.131,575.985 258.298,567.152 246.5,549C 233.827,544.83 221.493,539.83 209.5,534C 204.397,530.734 199.73,526.9 195.5,522.5C 189.106,525.218 183.106,524.385 177.5,520C 168.36,514.007 159.86,507.174 152,499.5C 146.331,529.841 136.664,558.841 123,586.5C 120.156,590.862 117.323,595.195 114.5,599.5C 104.833,599.5 95.1667,599.5 85.5,599.5C 79.8588,596.024 75.3588,591.357 72,585.5C 70.6256,578.622 72.6256,572.956 78,568.5C 78.6667,567.5 78.6667,566.5 78,565.5C 54.3206,535.81 32.9872,504.477 14,471.5C 8.28912,461.089 3.45579,450.423 -0.5,439.5C -0.5,432.833 -0.5,426.167 -0.5,419.5C 19.4071,339.561 42.9071,260.561 70,182.5C 76.1494,165.551 82.9827,148.885 90.5,132.5C 86.434,126.038 86.6007,119.705 91,113.5C 95.6029,108.896 100.77,105.062 106.5,102C 113.984,90.5212 123.984,81.8545 136.5,76C 137.327,70.8486 139.661,66.5153 143.5,63C 155.129,57.0714 167.462,53.4047 180.5,52C 184.65,50.4239 188.65,48.5905 192.5,46.5C 187.185,32.4372 192.185,24.7705 207.5,23.5C 209.1,23.5507 210.6,23.8841 212,24.5C 211.093,13.4067 216.26,8.24003 227.5,9C 235.478,11.4043 242.645,15.2377 249,20.5C 251.59,16.8443 253.59,12.8443 255,8.5C 264.756,3.03849 272.089,5.37182 277,15.5C 276.96,9.64847 278.46,4.31513 281.5,-0.5 Z"/></g>
<g><path style="opacity:1" fill="#f3e7d8" d="M 335.5,114.5 C 334.057,118.615 333.057,122.948 332.5,127.5C 328.766,136.088 326.099,145.088 324.5,154.5C 322.425,158.474 321.425,162.808 321.5,167.5C 316.31,188.551 315.143,209.885 318,231.5C 319.193,238.412 321.193,245.079 324,251.5C 338.788,255.478 352.288,261.978 364.5,271C 372.655,278.135 378.155,286.968 381,297.5C 382.786,300.362 385.119,301.028 388,299.5C 388.333,295.5 388.667,291.5 389,287.5C 389.278,286.584 389.778,285.918 390.5,285.5C 391.833,287.5 393.5,289.167 395.5,290.5C 400.834,299.835 405.667,309.501 410,319.5C 412.345,322.177 415.012,324.51 418,326.5C 420.6,319.688 423.766,313.188 427.5,307C 428.5,306.333 429.5,306.333 430.5,307C 431.399,308.652 432.399,310.152 433.5,311.5C 433.369,312.239 433.536,312.906 434,313.5C 435.726,312.424 437.559,312.257 439.5,313C 441.886,314.193 444.22,315.36 446.5,316.5C 448.9,319.903 451.9,322.57 455.5,324.5C 467.118,336.631 476.618,350.298 484,365.5C 487.274,373.54 488.274,381.874 487,390.5C 483.061,407.354 480.228,424.354 478.5,441.5C 479.675,441.281 480.675,441.614 481.5,442.5C 477.237,449.626 472.07,450.292 466,444.5C 462.667,439.833 459.333,435.167 456,430.5C 454.904,432.459 454.404,434.625 454.5,437C 455.277,444.157 455.943,451.324 456.5,458.5C 456.7,463.036 455.867,467.369 454,471.5C 441.009,488.881 425.176,502.881 406.5,513.5C 405.353,513.182 404.519,512.516 404,511.5C 402.667,506.833 401.333,502.167 400,497.5C 398.276,494.27 396.276,493.936 394,496.5C 392.49,502.872 390.824,509.205 389,515.5C 387.859,517.609 386.359,519.442 384.5,521C 371.789,529.021 358.123,534.854 343.5,538.5C 342.957,538.44 342.624,538.107 342.5,537.5C 349.551,518.834 352.551,499.501 351.5,479.5C 343.263,479.953 335.263,478.786 327.5,476C 317.378,471.271 307.045,467.104 296.5,463.5C 285.284,468.274 273.951,472.774 262.5,477C 256.303,478.886 249.97,479.72 243.5,479.5C 243.175,486.687 243.509,493.687 244.5,500.5C 244.609,514.044 247.275,527.044 252.5,539.5C 236.275,535.718 221.275,529.218 207.5,520C 205.623,517.749 204.123,515.249 203,512.5C 201.88,507.118 200.547,501.784 199,496.5C 197.333,493.833 195.667,493.833 194,496.5C 191.113,501.561 190.113,506.894 191,512.5C 187.975,513.709 185.141,513.209 182.5,511C 166.358,499.523 152.191,486.023 140,470.5C 138.234,460.875 138.067,451.209 139.5,441.5C 140.638,438.696 140.805,435.696 140,432.5C 138.264,429.936 137.098,430.269 136.5,433.5C 134.355,436.433 132.188,439.433 130,442.5C 122.632,452.389 116.966,451.722 113,440.5C 115.466,443.24 116.633,442.907 116.5,439.5C 113.446,419.452 110.112,399.452 106.5,379.5C 107.011,372.799 108.844,366.466 112,360.5C 116.875,350.809 122.708,341.809 129.5,333.5C 135.167,328.5 140.5,323.167 145.5,317.5C 148.444,315.689 151.444,313.856 154.5,312C 156.701,311.175 158.534,311.675 160,313.5C 160.653,310.193 162.319,307.527 165,305.5C 166,306.167 167,306.833 168,307.5C 170.5,313.167 173,318.833 175.5,324.5C 176.365,325.583 177.365,325.749 178.5,325C 180.667,322.833 182.833,320.667 185,318.5C 189.127,306.234 195.294,295.234 203.5,285.5C 204.086,285.709 204.586,286.043 205,286.5C 205.498,289.817 205.665,293.15 205.5,296.5C 206.978,301.482 209.478,301.815 213,297.5C 214.009,295.975 214.509,294.308 214.5,292.5C 220.113,279.048 229.447,268.881 242.5,262C 250.199,257.981 258.199,254.814 266.5,252.5C 269.95,253.244 271.616,251.91 271.5,248.5C 275.564,240.059 278.064,231.059 279,221.5C 280.011,207.048 279.511,192.715 277.5,178.5C 277.502,173.5 276.502,168.833 274.5,164.5C 274.453,161.432 273.953,158.432 273,155.5C 268.864,143.424 264.53,131.424 260,119.5C 257.901,109.352 258.567,99.3517 262,89.5C 266.197,77.908 270.197,66.2413 274,54.5C 275.873,48.9699 277.039,43.3033 277.5,37.5C 280.068,38.4496 282.568,38.4496 285,37.5C 285.697,33.4649 285.53,29.4649 284.5,25.5C 284.719,24.062 285.219,22.7287 286,21.5C 286.667,20.1667 287.333,20.1667 288,21.5C 288.054,16.3211 288.721,11.3211 290,6.5C 291,7.5 292,8.5 293,9.5C 296.394,17.2882 300.061,24.9549 304,32.5C 307.442,36.9007 311.776,38.5673 317,37.5C 317.587,41.9279 318.587,46.2613 320,50.5C 325.266,63.9651 329.933,77.6317 334,91.5C 335.311,99.1052 335.811,106.772 335.5,114.5 Z"/></g>
<g><path style="opacity:1" fill="#7b6152" d="M 442.5,80.5 C 441.007,81.3121 440.34,82.6455 440.5,84.5C 440.57,85.7716 440.903,86.9383 441.5,88C 452.588,95.211 464.254,101.378 476.5,106.5C 483.912,110.292 490.745,114.958 497,120.5C 497.72,122.112 497.554,123.612 496.5,125C 493.854,125.497 491.187,125.664 488.5,125.5C 486.143,125.337 483.81,125.503 481.5,126C 480.978,126.561 480.645,127.228 480.5,128C 489.853,143.37 497.686,159.537 504,176.5C 504.667,180.167 504.667,183.833 504,187.5C 503.439,188.022 502.772,188.355 502,188.5C 488.301,180.847 482.968,184.847 486,200.5C 488.314,213.109 491.647,225.442 496,237.5C 496.667,241.5 496.667,245.5 496,249.5C 492.788,251.017 489.455,252.35 486,253.5C 477.688,249.114 474.355,251.781 476,261.5C 479.124,269.081 482.791,276.414 487,283.5C 487.704,285.278 488.204,287.112 488.5,289C 487.266,292.199 485.933,295.366 484.5,298.5C 485.302,301.449 485.636,304.449 485.5,307.5C 484.5,307.5 483.5,307.5 482.5,307.5C 482.514,313.57 483.18,319.57 484.5,325.5C 484.128,330.432 483.128,335.099 481.5,339.5C 469.414,321.241 453.747,307.075 434.5,297C 426.11,294.535 419.777,297.035 415.5,304.5C 411.305,295.275 405.972,286.775 399.5,279C 394.591,275.348 389.425,274.848 384,277.5C 382.404,274.631 380.57,271.964 378.5,269.5C 393.044,271.819 405.211,267.485 415,256.5C 416.777,253.28 418.277,249.947 419.5,246.5C 417.126,243.126 414.126,240.459 410.5,238.5C 399.214,230.021 386.88,223.355 373.5,218.5C 370.377,215.849 366.71,214.682 362.5,215C 353.44,226.981 352.107,239.815 358.5,253.5C 350.174,249.171 341.508,245.671 332.5,243C 326.115,223.534 324.949,203.7 329,183.5C 330.904,172.075 333.237,160.742 336,149.5C 341.917,135.583 345.417,121.083 346.5,106C 346.135,95.9012 344.302,86.0679 341,76.5C 334.803,61.9098 329.803,46.9098 326,31.5C 324.656,29.6584 323.156,27.9917 321.5,26.5C 323.236,22.1259 325.069,17.7925 327,13.5C 328.444,11.8446 330.278,11.178 332.5,11.5C 332.541,17.5033 331.541,23.3366 329.5,29C 329.833,29.5 330.167,30 330.5,30.5C 338.291,24.3663 346.957,20.033 356.5,17.5C 358.1,17.5507 359.6,17.8841 361,18.5C 361.257,21.0168 360.59,23.3502 359,25.5C 354.533,30.9681 349.7,36.1347 344.5,41C 346.833,41.6667 349.167,41.6667 351.5,41C 357.5,38.3333 363.5,35.6667 369.5,33C 372.482,32.502 375.482,32.3354 378.5,32.5C 378.279,37.7757 376.279,42.2757 372.5,46C 379.167,46.3333 385.833,46.6667 392.5,47C 391.122,48.7134 389.455,50.0467 387.5,51C 395.633,55.0473 403.966,58.7139 412.5,62C 421.668,63.3555 430.668,65.3555 439.5,68C 442.792,69.3084 445.459,71.3084 447.5,74C 446.015,76.317 444.348,78.4836 442.5,80.5 Z"/></g>
<g><path style="opacity:1" fill="#7b6152" d="M 238.5,251.5 C 243.171,242.1 243.671,232.433 240,222.5C 238.744,219.248 236.744,216.581 234,214.5C 230.519,215.821 227.352,217.488 224.5,219.5C 211.815,224.871 200.482,232.205 190.5,241.5C 188.068,242.75 185.734,244.25 183.5,246C 182.426,246.739 181.759,247.739 181.5,249C 189.163,263.333 201.163,269.499 217.5,267.5C 214.447,270.39 211.947,273.724 210,277.5C 204.522,274.594 199.356,275.094 194.5,279C 187.939,286.617 182.772,295.117 179,304.5C 174.158,296.661 167.324,294.161 158.5,297C 156.167,298 154.5,299.667 153.5,302C 147.162,303.67 141.495,306.67 136.5,311C 127.525,319.132 119.525,327.965 112.5,337.5C 111.558,327.426 111.558,317.426 112.5,307.5C 111.5,307.5 110.5,307.5 109.5,307.5C 109.505,304.468 109.838,301.468 110.5,298.5C 109.936,296.091 109.103,293.758 108,291.5C 107.333,289.167 107.333,286.833 108,284.5C 111.078,278.009 114.412,271.675 118,265.5C 119.434,261.594 119.767,257.594 119,253.5C 118.653,251.82 117.653,250.82 116,250.5C 113.667,251.5 111.333,252.5 109,253.5C 107.416,253.012 106.249,252.012 105.5,250.5C 101.554,252.412 98.8872,251.412 97.5,247.5C 103.409,227.451 107.576,207.118 110,186.5C 109.626,185.584 109.126,184.75 108.5,184C 106.167,183.333 103.833,183.333 101.5,184C 99.315,186.588 96.6483,188.421 93.5,189.5C 90.0629,188.526 88.7296,186.193 89.5,182.5C 89.7263,177.595 90.8929,172.928 93,168.5C 98.6522,155.855 105.319,143.855 113,132.5C 114.113,124.774 111.28,122.774 104.5,126.5C 99.9943,127.473 97.8276,125.806 98,121.5C 103.112,116.541 108.612,112.207 114.5,108.5C 127.54,102.813 140.207,96.3127 152.5,89C 156.502,85.1516 156.169,81.6516 151.5,78.5C 148.867,77.3397 148.034,75.3397 149,72.5C 151.251,70.6227 153.751,69.1227 156.5,68C 174.448,65.406 191.448,59.906 207.5,51.5C 206.24,50.6184 205.074,49.6184 204,48.5C 203.689,47.2575 204.189,46.2575 205.5,45.5C 203.005,43.3411 201.339,40.6745 200.5,37.5C 200.818,36.3527 201.484,35.5194 202.5,35C 212.528,33.3389 221.194,36.0056 228.5,43C 231.077,44.2504 233.743,44.5837 236.5,44C 229.09,37.0135 224.423,28.5135 222.5,18.5C 233.369,21.9333 243.036,27.4333 251.5,35C 253.769,35.7581 255.936,35.5914 258,34.5C 258.498,31.5184 258.665,28.5184 258.5,25.5C 259.833,25.5 261.167,25.5 262.5,25.5C 262.18,22.1016 262.513,18.7683 263.5,15.5C 267.227,19.273 270.227,23.6063 272.5,28.5C 271.52,29.9814 270.353,31.3147 269,32.5C 264.47,49.4241 259.136,66.0908 253,82.5C 247.942,96.9887 247.275,111.655 251,126.5C 258.36,143.244 263.693,160.577 267,178.5C 271.069,200.197 269.736,221.53 263,242.5C 254.645,245.007 246.479,248.007 238.5,251.5 Z"/></g>
<g><path style="opacity:1" fill="#47382e" d="M 151.5,78.5 C 156.169,81.6516 156.502,85.1516 152.5,89C 140.207,96.3127 127.54,102.813 114.5,108.5C 117.464,104.09 120.798,99.9234 124.5,96C 133.565,90.1426 142.565,84.3093 151.5,78.5 Z"/></g>
<g><path style="opacity:1" fill="#48392f" d="M 442.5,80.5 C 451.607,84.8886 460.274,90.0553 468.5,96C 471.54,99.2603 474.206,102.76 476.5,106.5C 464.254,101.378 452.588,95.211 441.5,88C 440.903,86.9383 440.57,85.7716 440.5,84.5C 440.34,82.6455 441.007,81.3121 442.5,80.5 Z"/></g>
<g><path style="opacity:1" fill="#594b42" d="M 335.5,114.5 C 335.575,119.192 334.575,123.526 332.5,127.5C 333.057,122.948 334.057,118.615 335.5,114.5 Z"/></g>
<g><path style="opacity:1" fill="#47382e" d="M 112.5,337.5 C 109.358,343.112 106.191,348.779 103,354.5C 97.4982,364.508 95.4982,375.174 97,386.5C 99.6402,401.534 102.474,416.534 105.5,431.5C 99.5782,442.844 102.245,451.677 113.5,458C 118.458,460.144 123.292,459.978 128,457.5C 127.308,470.939 132.142,481.772 142.5,490C 137.307,523.952 126.807,556.119 111,586.5C 107.361,593.574 101.861,595.407 94.5,592C 89.4861,589.914 85.3194,586.747 82,582.5C 84.3283,577.52 86.9949,572.52 90,567.5C 90.6667,565.833 90.6667,564.167 90,562.5C 61.0214,527.89 36.0214,490.556 15,450.5C 11.75,443.833 9.58333,436.833 8.5,429.5C 27.907,345.778 52.0736,263.445 81,182.5C 88.0208,163.462 95.8541,144.796 104.5,126.5C 111.28,122.774 114.113,124.774 113,132.5C 105.319,143.855 98.6522,155.855 93,168.5C 90.8929,172.928 89.7263,177.595 89.5,182.5C 88.7296,186.193 90.0629,188.526 93.5,189.5C 96.6483,188.421 99.315,186.588 101.5,184C 103.833,183.333 106.167,183.333 108.5,184C 109.126,184.75 109.626,185.584 110,186.5C 107.576,207.118 103.409,227.451 97.5,247.5C 98.8872,251.412 101.554,252.412 105.5,250.5C 106.249,252.012 107.416,253.012 109,253.5C 111.333,252.5 113.667,251.5 116,250.5C 117.653,250.82 118.653,251.82 119,253.5C 119.767,257.594 119.434,261.594 118,265.5C 114.412,271.675 111.078,278.009 108,284.5C 107.333,286.833 107.333,289.167 108,291.5C 109.103,293.758 109.936,296.091 110.5,298.5C 109.838,301.468 109.505,304.468 109.5,307.5C 110.5,307.5 111.5,307.5 112.5,307.5C 111.558,317.426 111.558,327.426 112.5,337.5 Z"/></g>
<g><path style="opacity:1" fill="#47382e" d="M 488.5,125.5 C 509.175,171.683 527.009,219.017 542,267.5C 552.132,299.696 561.799,332.029 571,364.5C 576.858,384.43 581.691,404.597 585.5,425C 584.684,431.781 582.851,438.281 580,444.5C 563.045,477.422 543.712,508.755 522,538.5C 516.374,545.794 510.374,552.794 504,559.5C 503.516,561.913 503.85,564.246 505,566.5C 507.381,570.766 509.881,574.932 512.5,579C 506.716,587.898 498.716,591.231 488.5,589C 466.945,563.403 450.945,534.569 440.5,502.5C 448.167,495.998 455,488.665 461,480.5C 464.993,473.735 466.826,466.401 466.5,458.5C 481.067,461.386 489.733,455.552 492.5,441C 491.184,437.882 490.184,434.715 489.5,431.5C 491.935,418.157 494.435,404.823 497,391.5C 498.322,381.239 497.322,371.239 494,361.5C 490.581,353.652 486.414,346.318 481.5,339.5C 483.128,335.099 484.128,330.432 484.5,325.5C 483.18,319.57 482.514,313.57 482.5,307.5C 483.5,307.5 484.5,307.5 485.5,307.5C 485.636,304.449 485.302,301.449 484.5,298.5C 485.933,295.366 487.266,292.199 488.5,289C 488.204,287.112 487.704,285.278 487,283.5C 482.791,276.414 479.124,269.081 476,261.5C 474.355,251.781 477.688,249.114 486,253.5C 489.455,252.35 492.788,251.017 496,249.5C 496.667,245.5 496.667,241.5 496,237.5C 491.647,225.442 488.314,213.109 486,200.5C 482.968,184.847 488.301,180.847 502,188.5C 502.772,188.355 503.439,188.022 504,187.5C 504.667,183.833 504.667,180.167 504,176.5C 497.686,159.537 489.853,143.37 480.5,128C 480.645,127.228 480.978,126.561 481.5,126C 483.81,125.503 486.143,125.337 488.5,125.5 Z"/></g>
<g><path style="opacity:1" fill="#5b4d44" d="M 324.5,154.5 C 323.943,159.052 322.943,163.385 321.5,167.5C 321.425,162.808 322.425,158.474 324.5,154.5 Z"/></g>
<g><path style="opacity:1" fill="#55463e" d="M 274.5,164.5 C 276.502,168.833 277.502,173.5 277.5,178.5C 276.01,174.058 275.01,169.391 274.5,164.5 Z"/></g>
<g><path style="opacity:1" fill="#f1e8e0" d="M 373.5,218.5 C 363.933,227.328 362.099,237.661 368,249.5C 377.991,260.626 389.491,262.459 402.5,255C 407.232,250.453 409.899,244.953 410.5,238.5C 414.126,240.459 417.126,243.126 419.5,246.5C 418.277,249.947 416.777,253.28 415,256.5C 405.211,267.485 393.044,271.819 378.5,269.5C 372.724,263.057 366.057,257.724 358.5,253.5C 352.107,239.815 353.44,226.981 362.5,215C 366.71,214.682 370.377,215.849 373.5,218.5 Z"/></g>
<g><path style="opacity:1" fill="#f2eae1" d="M 238.5,251.5 C 230.931,256.066 223.931,261.399 217.5,267.5C 201.163,269.499 189.163,263.333 181.5,249C 181.759,247.739 182.426,246.739 183.5,246C 185.734,244.25 188.068,242.75 190.5,241.5C 195.692,255.083 205.358,259.583 219.5,255C 228.827,249.509 232.66,241.342 231,230.5C 229.843,226.178 227.676,222.511 224.5,219.5C 227.352,217.488 230.519,215.821 234,214.5C 236.744,216.581 238.744,219.248 240,222.5C 243.671,232.433 243.171,242.1 238.5,251.5 Z"/></g>
<g><path style="opacity:1" fill="#010101" d="M 373.5,218.5 C 386.88,223.355 399.214,230.021 410.5,238.5C 409.899,244.953 407.232,250.453 402.5,255C 389.491,262.459 377.991,260.626 368,249.5C 362.099,237.661 363.933,227.328 373.5,218.5 Z"/></g>
<g><path style="opacity:1" fill="#010101" d="M 224.5,219.5 C 227.676,222.511 229.843,226.178 231,230.5C 232.66,241.342 228.827,249.509 219.5,255C 205.358,259.583 195.692,255.083 190.5,241.5C 200.482,232.205 211.815,224.871 224.5,219.5 Z"/></g>
<g><path style="opacity:1" fill="#594b42" d="M 271.5,248.5 C 271.616,251.91 269.95,253.244 266.5,252.5C 268.707,251.87 270.374,250.536 271.5,248.5 Z"/></g>
<g><path style="opacity:1" fill="#594b42" d="M 390.5,285.5 C 393.167,286.167 394.833,287.833 395.5,290.5C 393.5,289.167 391.833,287.5 390.5,285.5 Z"/></g>
<g><path style="opacity:1" fill="#67594f" d="M 214.5,292.5 C 214.509,294.308 214.009,295.975 213,297.5C 209.478,301.815 206.978,301.482 205.5,296.5C 206.265,297.66 207.265,298.66 208.5,299.5C 211.219,297.693 213.219,295.36 214.5,292.5 Z"/></g>
<g><path style="opacity:1" fill="#52443b" d="M 433.5,311.5 C 438.882,310.699 443.215,312.366 446.5,316.5C 444.22,315.36 441.886,314.193 439.5,313C 437.559,312.257 435.726,312.424 434,313.5C 433.536,312.906 433.369,312.239 433.5,311.5 Z"/></g>
<g><path style="opacity:1" fill="#5d4f46" d="M 446.5,316.5 C 450.1,318.43 453.1,321.097 455.5,324.5C 451.9,322.57 448.9,319.903 446.5,316.5 Z"/></g>
<g><path style="opacity:1" fill="#594c43" d="M 145.5,317.5 C 140.5,323.167 135.167,328.5 129.5,333.5C 133.833,327.167 139.167,321.833 145.5,317.5 Z"/></g>
<g><path style="opacity:1" fill="#010101" d="M 279.5,337.5 C 295.992,336.725 312.325,337.891 328.5,341C 357.838,350.329 366.338,369.163 354,397.5C 342.629,413.781 327.129,423.947 307.5,428C 283.45,430.426 262.95,422.926 246,405.5C 232.808,389.93 231.141,373.263 241,355.5C 247.308,348.259 255.141,343.426 264.5,341C 269.679,340.034 274.679,338.867 279.5,337.5 Z"/></g>
<g><path style="opacity:1" fill="#4c443f" d="M 139.5,441.5 C 139.664,438.813 139.497,436.146 139,433.5C 138.23,432.402 137.397,432.402 136.5,433.5C 137.098,430.269 138.264,429.936 140,432.5C 140.805,435.696 140.638,438.696 139.5,441.5 Z"/></g>
<g><path style="opacity:1" fill="#e59598" d="M 343.5,538.5 C 339.437,543.744 335.104,548.911 330.5,554C 327.309,556.426 323.975,558.593 320.5,560.5C 320.649,559.448 320.483,558.448 320,557.5C 295.305,532.472 270.305,507.805 245,483.5C 244.501,489.157 244.334,494.824 244.5,500.5C 243.509,493.687 243.175,486.687 243.5,479.5C 249.97,479.72 256.303,478.886 262.5,477C 273.951,472.774 285.284,468.274 296.5,463.5C 307.045,467.104 317.378,471.271 327.5,476C 335.263,478.786 343.263,479.953 351.5,479.5C 352.551,499.501 349.551,518.834 342.5,537.5C 342.624,538.107 342.957,538.44 343.5,538.5 Z"/></g>
<g><path style="opacity:1" fill="#f09c9f" d="M 320.5,560.5 C 306.358,565.219 292.025,565.719 277.5,562C 266.78,557.111 258.446,549.611 252.5,539.5C 247.275,527.044 244.609,514.044 244.5,500.5C 244.334,494.824 244.501,489.157 245,483.5C 270.305,507.805 295.305,532.472 320,557.5C 320.483,558.448 320.649,559.448 320.5,560.5 Z"/></g>
</svg>
