<?xml version="1.0" encoding="UTF-8"?>
<!DOCTYPE svg PUBLIC "-//W3C//DTD SVG 1.1//EN" "http://www.w3.org/Graphics/SVG/1.1/DTD/svg11.dtd">
<svg xmlns="http://www.w3.org/2000/svg" version="1.1" width="600px" height="600px" style="shape-rendering:geometricPrecision; text-rendering:geometricPrecision; image-rendering:optimizeQuality; fill-rule:evenodd; clip-rule:evenodd" xmlns:xlink="http://www.w3.org/1999/xlink">
<g><path style="opacity:0.967" fill="#030202" d="M 599.5,116.5 C 599.5,127.167 599.5,137.833 599.5,148.5C 596.125,161.452 591.625,174.119 586,186.5C 575.667,204.833 565.333,223.167 555,241.5C 551.448,251.59 548.781,261.923 547,272.5C 542.379,280.597 535.546,283.431 526.5,281C 519.865,278.37 514.365,274.203 510,268.5C 505.959,309.998 495.959,349.998 480,388.5C 469.356,409.794 456.356,429.461 441,447.5C 436.936,453.236 433.27,459.236 430,465.5C 423.78,486.262 418.447,507.262 414,528.5C 404.322,561.863 381.989,578.196 347,577.5C 341.133,577.384 335.3,576.884 329.5,576C 319.347,574.036 309.18,572.203 299,570.5C 288.126,572.308 277.293,574.308 266.5,576.5C 247.726,577.936 229.726,574.769 212.5,567C 198.612,557.748 189.778,544.915 186,528.5C 182.174,510.699 177.84,493.032 173,475.5C 167.932,466.367 162.599,457.367 157,448.5C 124.241,409.636 103.241,364.97 94,314.5C 90.8475,299.941 88.5142,285.274 87,270.5C 79.4279,280.136 69.9279,283.302 58.5,280C 56.6667,278.167 54.8333,276.333 53,274.5C 50.5063,263.366 47.5063,252.366 44,241.5C 36.424,226.675 28.0907,212.342 19,198.5C 15.3333,190.5 11.6667,182.5 8,174.5C 5.0273,165.751 2.19396,157.084 -0.5,148.5C -0.5,138.167 -0.5,127.833 -0.5,117.5C 4.25144,109.26 11.2514,103.76 20.5,101C 50.209,93.5731 79.5424,84.9065 108.5,75C 129.833,66.3333 151.167,57.6667 172.5,49C 181.093,45.8101 189.926,43.6434 199,42.5C 205.925,42.8561 212.425,44.6894 218.5,48C 229.265,55.5954 239.598,63.762 249.5,72.5C 266.11,68.7473 282.943,67.0806 300,67.5C 317.024,66.8578 333.857,68.1911 350.5,71.5C 361.46,63.3458 372.46,55.1791 383.5,47C 390.13,43.5911 397.13,42.2578 404.5,43C 413.051,44.5543 421.384,46.8877 429.5,50C 454.387,60.2768 479.387,70.2768 504.5,80C 530.032,87.7997 555.699,95.1331 581.5,102C 589.337,104.727 595.337,109.561 599.5,116.5 Z"/></g>
<g><path style="opacity:1" fill="#2f2725" d="M 270.5,179.5 C 270.5,176.167 270.5,172.833 270.5,169.5C 265.752,169.275 261.085,169.775 256.5,171C 247.815,173.842 239.481,177.509 231.5,182C 206.821,197.677 181.488,212.344 155.5,226C 121.696,252.146 107.529,286.646 113,329.5C 114.512,340.561 116.346,351.561 118.5,362.5C 106.47,330.339 99.8033,297.006 98.5,262.5C 98.6122,251.059 99.4455,239.726 101,228.5C 95.4365,245.494 85.6032,259.327 71.5,270C 68.3,272.068 65.3,271.902 62.5,269.5C 60.8653,257.76 57.6987,246.426 53,235.5C 45.5854,222.335 37.9187,209.335 30,196.5C 19.9011,178.637 12.9011,159.637 9,139.5C 4.75038,125.163 9.58372,115.663 23.5,111C 48.3519,104.621 73.0185,97.6206 97.5,90C 128.389,77.7226 159.389,65.7226 190.5,54C 197.686,52.9451 204.686,53.6118 211.5,56C 223.121,64.6195 234.455,73.6195 245.5,83C 251.092,82.2947 256.758,81.7947 262.5,81.5C 266.653,91.4603 269.486,101.794 271,112.5C 271.83,135.004 271.663,157.337 270.5,179.5 Z"/></g>
<g><path style="opacity:1" fill="#2f2725" d="M 471.5,379.5 C 479.468,355.486 482.968,330.82 482,305.5C 479.29,272.901 464.79,247.067 438.5,228C 410.336,209.75 382.002,191.75 353.5,174C 349.5,172.667 345.5,171.333 341.5,170C 336.177,169.501 330.844,169.334 325.5,169.5C 324.419,147.111 325.252,124.778 328,102.5C 329.731,96.2221 332.064,90.2221 335,84.5C 335.494,82.8659 335.66,81.1992 335.5,79.5C 341.809,80.7976 348.142,81.6309 354.5,82C 365.119,74.3824 375.452,66.3824 385.5,58C 391.616,53.9286 398.283,52.5952 405.5,54C 414.415,55.8605 423.082,58.5272 431.5,62C 453.673,71.3913 476.007,80.3913 498.5,89C 523.942,97.1107 549.609,104.444 575.5,111C 589.935,115.366 594.768,124.866 590,139.5C 586.17,159.655 579.17,178.655 569,196.5C 561.415,208.668 554.082,221.001 547,233.5C 542.285,244.028 539.285,255.028 538,266.5C 535.852,271.534 532.352,272.701 527.5,270C 518.529,263.366 511.362,255.199 506,245.5C 501.083,235.747 496.75,225.747 493,215.5C 495.123,229.717 496.789,244.05 498,258.5C 498.342,286.45 494.342,313.783 486,340.5C 482.409,354.123 477.575,367.123 471.5,379.5 Z"/></g>
<g><path style="opacity:1" fill="#f5f4f4" d="M 388.5,407.5 C 390.833,410.5 393.5,413.167 396.5,415.5C 408.591,431.427 415.591,449.427 417.5,469.5C 412.111,491.946 406.277,514.28 400,536.5C 391.492,554.985 376.992,564.819 356.5,566C 350.167,566.667 343.833,566.667 337.5,566C 324.616,564.09 311.782,561.923 299,559.5C 288.51,561.331 278.01,563.164 267.5,565C 250.115,567.256 233.449,564.922 217.5,558C 206.214,549.938 199.048,539.105 196,525.5C 192.08,509.904 188.414,494.238 185,478.5C 183.53,473.757 181.864,469.091 180,464.5C 181.222,441.057 190.722,421.724 208.5,406.5C 211.06,404.727 213.393,402.727 215.5,400.5C 223.038,396.3 229.704,390.966 235.5,384.5C 238.55,382.451 240.883,379.784 242.5,376.5C 251.853,359.613 258.353,341.613 262,322.5C 278.659,247.93 284.325,172.597 279,96.5C 277.521,90.8972 275.354,85.5638 272.5,80.5C 272.709,79.914 273.043,79.414 273.5,79C 290.879,76.9456 308.212,77.1123 325.5,79.5C 322.646,84.5638 320.479,89.8972 319,95.5C 317.01,105.742 315.677,116.075 315,126.5C 313.478,189.09 318.811,251.09 331,312.5C 334.818,334.621 341.818,355.621 352,375.5C 355.754,381.258 360.254,386.425 365.5,391C 373.196,396.509 380.863,402.009 388.5,407.5 Z"/></g>
<g><path style="opacity:1" fill="#221f1e" d="M 186.5,91.5 C 198.665,89.7561 209.332,92.9228 218.5,101C 212.573,103.935 206.906,107.268 201.5,111C 169.333,136.5 140.5,165.333 115,197.5C 126.365,167.103 140.698,138.103 158,110.5C 165.667,101.261 175.167,94.928 186.5,91.5 Z"/></g>
<g><path style="opacity:1" fill="#221f1e" d="M 396.5,91.5 C 418.411,90.0372 434.911,98.7039 446,117.5C 459.538,139.906 470.872,163.24 480,187.5C 456.692,160.188 430.858,135.688 402.5,114C 395.668,109.416 388.668,105.083 381.5,101C 385.922,96.7963 390.922,93.6296 396.5,91.5 Z"/></g>
<g><path style="opacity:1" fill="#a37139" d="M 270.5,179.5 C 269.218,238.189 260.051,295.522 243,351.5C 239.755,361.986 234.422,371.319 227,379.5C 217.744,386.212 208.577,393.045 199.5,400C 185.227,413.382 175.727,429.549 171,448.5C 147.839,423.951 130.339,395.284 118.5,362.5C 116.346,351.561 114.512,340.561 113,329.5C 107.529,286.646 121.696,252.146 155.5,226C 181.488,212.344 206.821,197.677 231.5,182C 239.481,177.509 247.815,173.842 256.5,171C 261.085,169.775 265.752,169.275 270.5,169.5C 270.5,172.833 270.5,176.167 270.5,179.5 Z"/></g>
<g><path style="opacity:1" fill="#a37139" d="M 325.5,169.5 C 330.844,169.334 336.177,169.501 341.5,170C 345.5,171.333 349.5,172.667 353.5,174C 382.002,191.75 410.336,209.75 438.5,228C 464.79,247.067 479.29,272.901 482,305.5C 482.968,330.82 479.468,355.486 471.5,379.5C 467.414,390.338 462.248,400.671 456,410.5C 445.641,424.026 435.474,437.692 425.5,451.5C 420.375,431.53 410.375,414.364 395.5,400C 386.678,393.089 377.678,386.423 368.5,380C 361.662,372.159 356.495,363.326 353,353.5C 334.379,293.658 325.213,232.325 325.5,169.5 Z"/></g>
<g><path style="opacity:1" fill="#56340f" d="M 230.5,198.5 C 245.453,198.284 255.286,205.284 260,219.5C 261.196,225.052 260.363,230.219 257.5,235C 256.127,235.875 254.627,236.375 253,236.5C 243.384,232.107 233.218,229.607 222.5,229C 216.444,228.211 211.277,225.711 207,221.5C 205.185,215.538 207.018,210.705 212.5,207C 217.968,202.763 223.968,199.93 230.5,198.5 Z"/></g>
<g><path style="opacity:1" fill="#56340f" d="M 357.5,198.5 C 370.975,197.327 381.808,201.994 390,212.5C 393.23,220.647 390.396,225.48 381.5,227C 373.536,228.519 365.536,229.852 357.5,231C 340.472,240.658 334.305,235.825 339,216.5C 342.441,207.557 348.608,201.557 357.5,198.5 Z"/></g>
<g><path style="opacity:1" fill="#56340f" d="M 201.5,240.5 C 223.802,238.728 239.302,248.061 248,268.5C 253.028,294.448 243.194,311.948 218.5,321C 193.369,324.02 176.869,313.52 169,289.5C 166.531,264.167 177.364,247.833 201.5,240.5 Z"/></g>
<g><path style="opacity:1" fill="#56340f" d="M 383.5,240.5 C 408.29,238.812 424.124,249.812 431,273.5C 433.134,298.344 422.301,314.177 398.5,321C 373.546,323.443 357.712,312.61 351,288.5C 348.98,263.702 359.813,247.702 383.5,240.5 Z"/></g>
<g><path style="opacity:1" fill="#221f1e" d="M 201.5,252.5 C 225.419,250.833 237.586,261.833 238,285.5C 233.334,302.494 222.167,310.66 204.5,310C 184.44,303.729 176.94,290.229 182,269.5C 186.577,261.409 193.077,255.743 201.5,252.5 Z"/></g>
<g><path style="opacity:1" fill="#221f1e" d="M 382.5,252.5 C 400.436,249.874 412.603,256.874 419,273.5C 421.841,292.671 414.008,304.838 395.5,310C 381.972,311.32 371.805,306.153 365,294.5C 358.018,275.028 363.851,261.028 382.5,252.5 Z"/></g>
<g><path style="opacity:1" fill="#ebebeb" d="M 198.5,263.5 C 204.614,262.549 208.28,265.049 209.5,271C 207.959,276.871 204.292,278.871 198.5,277C 193.209,272.55 193.209,268.05 198.5,263.5 Z"/></g>
<g><path style="opacity:1" fill="#ededed" d="M 380.5,263.5 C 388.885,262.716 392.051,266.383 390,274.5C 386.341,278.115 382.341,278.448 378,275.5C 375.511,270.757 376.345,266.757 380.5,263.5 Z"/></g>
<g><path style="opacity:1" fill="#57422f" d="M 242.5,376.5 C 240.883,379.784 238.55,382.451 235.5,384.5C 236.75,382.068 238.25,379.734 240,377.5C 240.671,376.748 241.504,376.414 242.5,376.5 Z"/></g>
<g><path style="opacity:1" fill="#57422f" d="M 215.5,400.5 C 213.393,402.727 211.06,404.727 208.5,406.5C 209.779,403.348 212.112,401.348 215.5,400.5 Z"/></g>
<g><path style="opacity:1" fill="#4b3722" d="M 388.5,407.5 C 392.167,409.167 394.833,411.833 396.5,415.5C 393.5,413.167 390.833,410.5 388.5,407.5 Z"/></g>
<g><path style="opacity:1" fill="#040404" d="M 285.5,432.5 C 301.366,432.187 317.033,433.687 332.5,437C 354.274,443.713 362.774,458.213 358,480.5C 349.732,500.093 335.232,512.593 314.5,518C 284.836,522.998 261.336,513.165 244,488.5C 233.847,463.935 241.014,446.768 265.5,437C 272.271,435.379 278.938,433.879 285.5,432.5 Z"/></g>
<g><path style="opacity:1" fill="#211e1d" d="M 280.5,443.5 C 292.838,443.333 305.171,443.5 317.5,444C 327.911,445.626 337.078,449.792 345,456.5C 349.229,462.159 350.562,468.493 349,475.5C 345.468,487.035 338.301,495.535 327.5,501C 317.341,507.278 306.341,510.278 294.5,510C 278.629,506.65 265.462,498.817 255,486.5C 244.837,469.356 248.67,456.523 266.5,448C 271.371,446.709 276.037,445.209 280.5,443.5 Z"/></g>
</svg>
