<?xml version="1.0" encoding="UTF-8"?>
<!DOCTYPE svg PUBLIC "-//W3C//DTD SVG 1.1//EN" "http://www.w3.org/Graphics/SVG/1.1/DTD/svg11.dtd">
<svg xmlns="http://www.w3.org/2000/svg" version="1.1" width="600px" height="600px" style="shape-rendering:geometricPrecision; text-rendering:geometricPrecision; image-rendering:optimizeQuality; fill-rule:evenodd; clip-rule:evenodd" xmlns:xlink="http://www.w3.org/1999/xlink">
<g><path style="opacity:0.969" fill="#020202" d="M 599.5,143.5 C 599.5,166.833 599.5,190.167 599.5,213.5C 583.053,245.656 570.22,279.323 561,314.5C 559.705,323.805 559.372,333.138 560,342.5C 563.168,347.834 565.501,353.501 567,359.5C 567.711,367.46 564.045,371.793 556,372.5C 550.942,372.279 546.442,370.613 542.5,367.5C 537.355,374.909 530.355,379.575 521.5,381.5C 515.039,380.873 510.873,377.539 509,371.5C 510.584,353.903 504.917,339.236 492,327.5C 484.851,350.302 475.018,371.802 462.5,392C 463.079,395.297 462.079,398.297 459.5,401C 464.516,408.367 468.183,416.367 470.5,425C 468.967,434.674 463.467,438.508 454,436.5C 454.981,448.238 452.648,459.238 447,469.5C 443.263,474.952 438.096,477.618 431.5,477.5C 431.119,482.237 430.286,486.904 429,491.5C 418.301,509.201 404.468,524.034 387.5,536C 383.862,537.505 380.195,537.838 376.5,537C 366.655,547.097 354.988,554.43 341.5,559C 334.167,561.667 326.833,564.333 319.5,567C 313.007,570.991 306.507,574.824 300,578.5C 293.322,574.573 286.489,570.74 279.5,567C 265.49,562.162 251.823,556.495 238.5,550C 232.089,546.421 226.422,541.921 221.5,536.5C 214.614,537.776 208.614,535.942 203.5,531C 189.827,519.435 178.661,505.935 170,490.5C 168.843,486.218 168.01,481.884 167.5,477.5C 157.192,476.368 150.692,470.701 148,460.5C 146.251,453.604 145.084,446.604 144.5,439.5C 133.943,436.693 130.443,430.027 134,419.5C 136.263,413.139 139.429,407.306 143.5,402C 141.12,398.9 140.454,395.566 141.5,392C 134.785,382.744 128.952,372.911 124,362.5C 118.87,350.276 114.037,337.942 109.5,325.5C 102.675,332.167 97.1752,339.834 93,348.5C 91.9058,356.479 90.9058,364.479 90,372.5C 88.3051,378.777 84.1385,381.777 77.5,381.5C 68.3533,380.181 61.5199,375.515 57,367.5C 52.9371,370.864 48.2705,372.864 43,373.5C 36.0664,373.066 32.2331,369.4 31.5,362.5C 32.8826,355.733 35.3826,349.4 39,343.5C 39.7443,333.797 39.411,324.13 38,314.5C 28.9646,279.538 16.1313,246.205 -0.5,214.5C -0.5,191.167 -0.5,167.833 -0.5,144.5C 5.13322,142.115 10.7999,139.615 16.5,137C 40.2806,119.221 64.6139,102.221 89.5,86C 87.9974,75.4764 92.6641,69.4764 103.5,68C 105.772,60.7402 110.772,56.7402 118.5,56C 112.603,47.9709 113.27,40.6375 120.5,34C 123.738,32.6323 127.072,32.2989 130.5,33C 135.141,35.5698 139.974,37.7365 145,39.5C 147.895,32.6316 153.062,30.1316 160.5,32C 169.135,36.9862 177.801,41.9862 186.5,47C 199.19,52.5071 212.19,53.5071 225.5,50C 227.792,48.7101 229.792,47.0435 231.5,45C 233.025,43.9914 234.692,43.4914 236.5,43.5C 236.159,29.6677 242.492,25.1677 255.5,30C 260.85,33.0076 265.85,36.5076 270.5,40.5C 274.399,34.9697 279.566,33.303 286,35.5C 295.157,25.9448 303.157,26.9448 310,38.5C 315.074,24.6925 323.241,22.3592 334.5,31.5C 340.107,27.5321 346.107,26.6988 352.5,29C 357.184,32.9456 358.851,37.779 357.5,43.5C 383.536,56.3548 407.869,53.5215 430.5,35C 436.408,30.9349 442.741,29.9349 449.5,32C 451.923,33.5707 453.256,35.7374 453.5,38.5C 459.915,36.462 466.249,34.1287 472.5,31.5C 480.199,32.6998 484.199,37.1998 484.5,45C 483.828,48.6519 482.995,52.1519 482,55.5C 489.09,56.7559 493.924,60.7559 496.5,67.5C 506.534,68.7611 510.534,74.2611 508.5,84C 509.167,84.6667 509.833,85.3333 510.5,86C 535.386,102.221 559.719,119.221 583.5,137C 588.87,139.171 594.203,141.337 599.5,143.5 Z"/></g>
<g><path style="opacity:1" fill="#f4f4f4" d="M 357.5,70.5 C 356.098,77.9224 356.598,85.2557 359,92.5C 367.428,116.703 380.428,138.037 398,156.5C 408.031,165.7 417.865,175.033 427.5,184.5C 405.205,178.546 382.538,175.713 359.5,176C 347.43,185.723 346.43,196.39 356.5,208C 358.473,208.495 360.473,208.662 362.5,208.5C 343.476,220.592 337.31,237.592 344,259.5C 353.167,278.504 368.333,286.671 389.5,284C 414.403,275.709 424.57,258.542 420,232.5C 418.374,228.714 416.541,225.047 414.5,221.5C 420.813,224.633 425.98,229.633 430,236.5C 435.929,247.627 440.263,259.294 443,271.5C 444.832,259.862 444.999,248.195 443.5,236.5C 444.5,236.5 445.5,236.5 446.5,236.5C 452.951,262.819 463.451,287.485 478,310.5C 479.571,312.923 481.737,314.256 484.5,314.5C 479.081,336.106 470.748,356.439 459.5,375.5C 457.208,375.756 455.041,375.423 453,374.5C 454.199,363.228 450.199,354.228 441,347.5C 440.647,346.328 440.813,345.162 441.5,344C 441.387,342.72 440.72,341.887 439.5,341.5C 433.646,343.135 427.646,343.968 421.5,344C 418.007,344.942 414.674,346.275 411.5,348C 407.833,348.667 404.167,348.667 400.5,348C 413.403,339.01 422.57,327.176 428,312.5C 428.82,310.272 428.487,308.272 427,306.5C 415.481,317.847 401.981,326.014 386.5,331C 384.833,331.667 383.167,331.667 381.5,331C 388.077,322.181 393.077,312.514 396.5,302C 395.62,300.644 395.286,299.144 395.5,297.5C 394.448,297.351 393.448,297.517 392.5,298C 384.257,307.763 374.59,315.596 363.5,321.5C 359.795,319.764 356.129,317.93 352.5,316C 361.56,309.087 364.727,300.253 362,289.5C 353.947,299.274 343.78,305.607 331.5,308.5C 310.293,303.177 288.793,303.177 267,308.5C 263.022,307.396 259.189,305.896 255.5,304C 252.921,302.924 251.254,301.091 250.5,298.5C 266.242,274.109 273.075,247.442 271,218.5C 268.095,205.982 260.928,196.982 249.5,191.5C 245.542,174.849 235.209,169.349 218.5,175C 200.749,176.458 183.415,179.958 166.5,185.5C 165.893,185.376 165.56,185.043 165.5,184.5C 169.152,148.051 184.152,117.218 210.5,92C 219.312,84.4232 228.978,78.0898 239.5,73C 247.106,66.6556 247.439,59.9889 240.5,53C 245.071,53.1941 249.237,54.6941 253,57.5C 254.5,57 256,56.5 257.5,56C 252.457,51.4125 248.79,45.9125 246.5,39.5C 247,39.1667 247.5,38.8333 248,38.5C 256.273,42.1024 263.44,47.269 269.5,54C 273.359,54.0927 277.026,53.2593 280.5,51.5C 280.274,42.8065 281.94,42.8065 285.5,51.5C 288.428,52.4841 291.428,52.8174 294.5,52.5C 295.563,48.2199 296.563,43.8866 297.5,39.5C 299.994,43.1555 301.994,47.1555 303.5,51.5C 307.783,52.4922 312.116,52.8256 316.5,52.5C 317.562,47.3137 319.229,42.3137 321.5,37.5C 322.325,36.6143 323.325,36.281 324.5,36.5C 324.754,41.9614 324.088,47.2948 322.5,52.5C 322.833,52.8333 323.167,53.1667 323.5,53.5C 328.5,49.3333 333.5,45.1667 338.5,41C 341.309,39.2589 344.309,38.0922 347.5,37.5C 345.498,44.3272 341.832,50.1605 336.5,55C 342.887,54.6312 349.22,53.9645 355.5,53C 355.833,53.3333 356.167,53.6667 356.5,54C 352.291,59.7837 352.624,65.2837 357.5,70.5 Z"/></g>
<g><path style="opacity:1" fill="#d2d0d0" d="M 487.5,303.5 C 475.986,285.131 467.153,265.464 461,244.5C 460.517,245.448 460.351,246.448 460.5,247.5C 459.232,245.095 458.565,242.428 458.5,239.5C 458.044,233.78 456.044,228.78 452.5,224.5C 452.611,223.883 452.944,223.383 453.5,223C 451.389,214.823 449.722,206.657 448.5,198.5C 448.26,193.88 447.26,189.547 445.5,185.5C 445.084,179.182 443.751,173.182 441.5,167.5C 440.691,159.427 438.691,151.76 435.5,144.5C 432.98,139.443 430.98,134.109 429.5,128.5C 428.54,123.914 426.54,119.914 423.5,116.5C 417.981,105.658 410.648,96.325 401.5,88.5C 398.437,84.4342 394.771,81.1009 390.5,78.5C 387.728,74.6129 384.061,71.9462 379.5,70.5C 375.334,68.2519 371,66.2519 366.5,64.5C 365.263,63.7193 364.263,62.7193 363.5,61.5C 364.025,60.8076 364.692,60.3076 365.5,60C 373.178,60.2705 380.845,61.1038 388.5,62.5C 407.731,61.0381 424.731,54.2047 439.5,42C 441.167,41.3333 442.833,41.3333 444.5,42C 443.178,46.3106 440.845,49.9773 437.5,53C 438,53.1667 438.5,53.3333 439,53.5C 451.056,50.3641 462.89,46.6975 474.5,42.5C 472.5,50.1611 468.666,56.8277 463,62.5C 462.333,63.1667 462.333,63.8333 463,64.5C 469.859,65.0575 476.692,65.8908 483.5,67C 484.167,67.6667 484.833,68.3333 485.5,69C 482.368,71.0816 479.368,73.2482 476.5,75.5C 477.313,76.8139 478.313,77.9805 479.5,79C 485.83,78.934 492.163,78.934 498.5,79C 498.833,79.3333 499.167,79.6667 499.5,80C 497.461,82.3745 495.128,84.3745 492.5,86C 521.516,105.507 550.183,125.507 578.5,146C 582.901,148.522 587.568,150.356 592.5,151.5C 593.731,152.651 593.731,153.817 592.5,155C 588.179,156.166 583.845,157.333 579.5,158.5C 584.362,162.093 589.362,165.427 594.5,168.5C 592.851,169.988 590.851,170.988 588.5,171.5C 593.614,181.365 594.781,191.699 592,202.5C 584.058,220.05 576.392,237.717 569,255.5C 561.79,274.463 555.79,293.796 551,313.5C 549.538,323.46 549.205,333.46 550,343.5C 552.2,349.574 554.7,355.574 557.5,361.5C 553.26,361.97 549.76,360.303 547,356.5C 543.892,351.611 541.892,346.278 541,340.5C 540.014,351.972 535.181,361.472 526.5,369C 524.305,370.373 521.971,370.706 519.5,370C 520.434,354.578 516.268,340.745 507,328.5C 500.48,320.098 493.98,311.764 487.5,303.5 Z"/></g>
<g><path style="opacity:1" fill="#d2d0d0" d="M 234.5,61.5 C 198.662,80.1832 174.496,108.85 162,147.5C 157.815,161.959 154.648,176.293 152.5,190.5C 151.699,192.042 151.366,193.708 151.5,195.5C 150.549,196.919 150.216,198.585 150.5,200.5C 149.087,203.219 148.42,206.219 148.5,209.5C 148.58,212.781 147.913,215.781 146.5,218.5C 144.409,223.191 143.076,228.191 142.5,233.5C 141.076,235.515 140.41,237.848 140.5,240.5C 135.912,253.925 130.912,267.258 125.5,280.5C 125.008,282.819 124.008,284.819 122.5,286.5C 119.096,292.3 115.429,297.967 111.5,303.5C 102.886,315.954 94.0522,328.288 85,340.5C 81.4992,350.398 79.6658,360.565 79.5,371C 76.5808,371.552 73.9141,370.885 71.5,369C 63.9071,361.315 59.4071,352.148 58,341.5C 57.3081,349.262 54.1414,355.762 48.5,361C 46.6547,362.128 44.6547,362.628 42.5,362.5C 45.8022,355.535 48.3022,348.202 50,340.5C 50.3838,332.15 50.0505,323.817 49,315.5C 44.0109,296.199 38.0109,277.199 31,258.5C 23.3895,239.669 15.3895,221.003 7,202.5C 4.40194,192.049 5.56861,182.049 10.5,172.5C 8.95467,171.548 7.28801,171.215 5.5,171.5C 5.28649,169.856 5.61983,168.356 6.5,167C 11.8464,164.997 16.5131,161.997 20.5,158C 16.5,157.667 12.5,157.333 8.5,157C 5.96126,155.901 5.29459,154.234 6.5,152C 10.4885,150.669 14.4885,149.335 18.5,148C 47.136,126.68 76.4694,106.347 106.5,87C 104.612,84.8104 102.445,82.9771 100,81.5C 99.3828,80.5509 99.5494,79.7175 100.5,79C 106.071,78.557 111.571,79.057 117,80.5C 119.741,80.0535 121.575,78.5535 122.5,76C 120.199,73.8442 117.533,72.1776 114.5,71C 113.167,70 113.167,69 114.5,68C 121.059,66.7446 127.726,66.0779 134.5,66C 135.167,65.3333 135.833,64.6667 136.5,64C 132.277,58.7761 128.444,53.2761 125,47.5C 124.116,45.3594 124.616,43.6927 126.5,42.5C 137.624,48.2641 149.291,52.0975 161.5,54C 158.396,50.46 156.063,46.46 154.5,42C 157.419,41.4484 160.086,42.1151 162.5,44C 182.324,60.6325 204.824,65.7992 230,59.5C 232.008,59.3068 233.508,59.9735 234.5,61.5 Z"/></g>
<g><path style="opacity:1" fill="#eeeeee" d="M 234.5,61.5 C 235.774,62.1894 235.774,63.0228 234.5,64C 199.398,82.0354 175.898,109.869 164,147.5C 160.362,160.384 157.196,173.384 154.5,186.5C 154.685,187.584 155.018,188.584 155.5,189.5C 154.609,190.11 153.609,190.443 152.5,190.5C 154.648,176.293 157.815,161.959 162,147.5C 174.496,108.85 198.662,80.1832 234.5,61.5 Z"/></g>
<g><path style="opacity:1" fill="#8d8c8c" d="M 357.5,70.5 C 388.771,85.9429 410.937,109.943 424,142.5C 428.603,156.58 432.103,170.913 434.5,185.5C 434.265,186.097 433.765,186.43 433,186.5C 430.97,186.046 429.137,185.38 427.5,184.5C 417.865,175.033 408.031,165.7 398,156.5C 380.428,138.037 367.428,116.703 359,92.5C 356.598,85.2557 356.098,77.9224 357.5,70.5 Z"/></g>
<g><path style="opacity:1" fill="#807f7f" d="M 379.5,70.5 C 384.061,71.9462 387.728,74.6129 390.5,78.5C 386.648,76.0753 382.981,73.4086 379.5,70.5 Z"/></g>
<g><path style="opacity:1" fill="#7b7a7a" d="M 390.5,78.5 C 394.771,81.1009 398.437,84.4342 401.5,88.5C 397.229,85.8991 393.563,82.5658 390.5,78.5 Z"/></g>
<g><path style="opacity:1" fill="#807f7f" d="M 401.5,88.5 C 410.648,96.325 417.981,105.658 423.5,116.5C 416.579,106.904 409.245,97.5706 401.5,88.5 Z"/></g>
<g><path style="opacity:1" fill="#7e7d7d" d="M 423.5,116.5 C 426.54,119.914 428.54,123.914 429.5,128.5C 426.992,124.818 424.992,120.818 423.5,116.5 Z"/></g>
<g><path style="opacity:1" fill="#818080" d="M 435.5,144.5 C 438.691,151.76 440.691,159.427 441.5,167.5C 439.054,160.054 437.054,152.387 435.5,144.5 Z"/></g>
<g><path style="opacity:1" fill="#807f7f" d="M 441.5,167.5 C 443.751,173.182 445.084,179.182 445.5,185.5C 443.566,179.751 442.233,173.751 441.5,167.5 Z"/></g>
<g><path style="opacity:1" fill="#706f6f" d="M 249.5,191.5 C 249.292,199.251 245.958,205.251 239.5,209.5C 223.4,206.47 207.733,208.303 192.5,215C 189.631,216.596 186.964,218.43 184.5,220.5C 175.067,226.988 168.234,235.655 164,246.5C 161.494,254.532 158.994,262.532 156.5,270.5C 155.749,269.624 155.249,268.624 155,267.5C 153.961,256.692 154.461,246.026 156.5,235.5C 155.167,235.5 153.833,235.5 152.5,235.5C 155.796,223.983 158.629,212.316 161,200.5C 164.417,195.474 165.917,190.141 165.5,184.5C 165.56,185.043 165.893,185.376 166.5,185.5C 183.415,179.958 200.749,176.458 218.5,175C 235.209,169.349 245.542,174.849 249.5,191.5 Z"/></g>
<g><path style="opacity:1" fill="#706f6f" d="M 427.5,184.5 C 429.137,185.38 430.97,186.046 433,186.5C 433.765,186.43 434.265,186.097 434.5,185.5C 438.408,198.82 441.242,212.487 443,226.5C 443.895,229.951 445.062,233.284 446.5,236.5C 445.5,236.5 444.5,236.5 443.5,236.5C 444.999,248.195 444.832,259.862 443,271.5C 440.263,259.294 435.929,247.627 430,236.5C 425.98,229.633 420.813,224.633 414.5,221.5C 408.364,216.432 401.364,212.932 393.5,211C 383.263,208.987 372.93,208.153 362.5,208.5C 360.473,208.662 358.473,208.495 356.5,208C 346.43,196.39 347.43,185.723 359.5,176C 382.538,175.713 405.205,178.546 427.5,184.5 Z"/></g>
<g><path style="opacity:1" fill="#706f6f" d="M 445.5,185.5 C 447.26,189.547 448.26,193.88 448.5,198.5C 446.74,194.453 445.74,190.12 445.5,185.5 Z"/></g>
<g><path style="opacity:1" fill="#585757" d="M 155.5,189.5 C 153.77,191.231 152.437,193.231 151.5,195.5C 151.366,193.708 151.699,192.042 152.5,190.5C 153.609,190.443 154.609,190.11 155.5,189.5 Z"/></g>
<g><path style="opacity:1" fill="#8e8c8c" d="M 249.5,191.5 C 260.928,196.982 268.095,205.982 271,218.5C 273.075,247.442 266.242,274.109 250.5,298.5C 249.883,298.611 249.383,298.944 249,299.5C 246.318,296.65 243.484,293.984 240.5,291.5C 239.023,297.564 239.69,303.398 242.5,309C 239.699,312.968 236.366,316.468 232.5,319.5C 224.089,313.594 216.423,306.761 209.5,299C 208.833,298.333 208.167,298.333 207.5,299C 206.424,300.726 206.257,302.559 207,304.5C 209.637,313.271 213.47,321.438 218.5,329C 217.391,330.861 215.725,331.695 213.5,331.5C 206.684,329.759 200.351,326.926 194.5,323C 188.309,317.975 181.976,313.142 175.5,308.5C 174.369,310.074 174.202,311.741 175,313.5C 178.86,323.392 184.36,332.226 191.5,340C 174.504,344.081 157.837,343.081 141.5,337C 131.908,330.577 124.241,322.41 118.5,312.5C 134.848,289.149 146.182,263.482 152.5,235.5C 153.833,235.5 155.167,235.5 156.5,235.5C 154.461,246.026 153.961,256.692 155,267.5C 155.249,268.624 155.749,269.624 156.5,270.5C 158.994,262.532 161.494,254.532 164,246.5C 168.234,235.655 175.067,226.988 184.5,220.5C 173.362,240.652 176.029,258.819 192.5,275C 207.998,285.597 223.998,286.263 240.5,277C 260.517,260.271 263.683,240.771 250,218.5C 246.922,214.915 243.422,211.915 239.5,209.5C 245.958,205.251 249.292,199.251 249.5,191.5 Z"/></g>
<g><path style="opacity:1" fill="#5d5c5c" d="M 150.5,200.5 C 150.58,203.781 149.913,206.781 148.5,209.5C 148.42,206.219 149.087,203.219 150.5,200.5 Z"/></g>
<g><path style="opacity:1" fill="#715d5d" d="M 239.5,209.5 C 243.422,211.915 246.922,214.915 250,218.5C 263.683,240.771 260.517,260.271 240.5,277C 223.998,286.263 207.998,285.597 192.5,275C 176.029,258.819 173.362,240.652 184.5,220.5C 186.964,218.43 189.631,216.596 192.5,215C 207.733,208.303 223.4,206.47 239.5,209.5 Z"/></g>
<g><path style="opacity:1" fill="#715e5e" d="M 362.5,208.5 C 372.93,208.153 383.263,208.987 393.5,211C 401.364,212.932 408.364,216.432 414.5,221.5C 416.541,225.047 418.374,228.714 420,232.5C 424.57,258.542 414.403,275.709 389.5,284C 368.333,286.671 353.167,278.504 344,259.5C 337.31,237.592 343.476,220.592 362.5,208.5 Z"/></g>
<g><path style="opacity:1" fill="#232121" d="M 211.5,214.5 C 235.643,213.809 247.143,225.476 246,249.5C 241.486,264.499 231.319,272.165 215.5,272.5C 195.866,268.008 187.366,255.675 190,235.5C 193.751,224.915 200.917,217.915 211.5,214.5 Z"/></g>
<g><path style="opacity:1" fill="#232121" d="M 374.5,215.5 C 399.183,215.014 410.683,227.014 409,251.5C 403.417,267.887 391.917,275.053 374.5,273C 353.711,263.959 347.878,249.125 357,228.5C 361.581,222.41 367.415,218.077 374.5,215.5 Z"/></g>
<g><path style="opacity:1" fill="#727272" d="M 146.5,218.5 C 145.924,223.809 144.591,228.809 142.5,233.5C 143.076,228.191 144.409,223.191 146.5,218.5 Z"/></g>
<g><path style="opacity:1" fill="#ecebeb" d="M 201.5,227.5 C 208.141,227.639 210.974,230.972 210,237.5C 205.763,242.808 201.429,242.808 197,237.5C 196.077,233.017 197.577,229.683 201.5,227.5 Z"/></g>
<g><path style="opacity:1" fill="#ebebeb" d="M 369.5,228.5 C 376.169,228.005 379.336,231.005 379,237.5C 377.287,242.038 374.12,243.538 369.5,242C 365.876,239.839 364.709,236.672 366,232.5C 366.69,230.65 367.856,229.316 369.5,228.5 Z"/></g>
<g><path style="opacity:1" fill="#595858" d="M 452.5,224.5 C 456.044,228.78 458.044,233.78 458.5,239.5C 456.52,234.576 454.52,229.576 452.5,224.5 Z"/></g>
<g><path style="opacity:1" fill="#5d5c5c" d="M 142.5,233.5 C 142.59,236.152 141.924,238.485 140.5,240.5C 140.41,237.848 141.076,235.515 142.5,233.5 Z"/></g>
<g><path style="opacity:1" fill="#eeeeee" d="M 487.5,303.5 C 487.631,304.239 487.464,304.906 487,305.5C 475.186,287.538 466.353,268.205 460.5,247.5C 460.351,246.448 460.517,245.448 461,244.5C 467.153,265.464 475.986,285.131 487.5,303.5 Z"/></g>
<g><path style="opacity:1" fill="#7e7d7d" d="M 140.5,240.5 C 137.452,254.655 132.452,267.988 125.5,280.5C 130.912,267.258 135.912,253.925 140.5,240.5 Z"/></g>
<g><path style="opacity:1" fill="#eeeeee" d="M 459.5,375.5 C 456.952,380.727 453.952,385.727 450.5,390.5C 453.001,393.842 452.168,394.842 448,393.5C 446.692,395.641 445.192,397.641 443.5,399.5C 451.659,406.816 456.992,415.816 459.5,426.5C 457.011,426.702 454.677,426.202 452.5,425C 448.533,421.026 444.033,417.859 439,415.5C 439.814,420.443 440.814,425.443 442,430.5C 442.881,439.562 442.548,448.562 441,457.5C 439.789,460.759 437.956,463.592 435.5,466C 433.833,466.667 432.167,466.667 430.5,466C 426.629,461.093 423.129,455.926 420,450.5C 419.598,451.872 419.098,453.205 418.5,454.5C 420.643,465.471 420.809,476.471 419,487.5C 409.63,502.539 397.797,515.373 383.5,526C 382.056,526.781 380.723,526.614 379.5,525.5C 378.351,519.559 376.518,513.892 374,508.5C 372.019,514.685 370.352,521.019 369,527.5C 367.6,530.902 365.433,533.736 362.5,536C 347.721,544.887 332.055,551.887 315.5,557C 309.653,559.754 304.32,563.254 299.5,567.5C 296.978,565.144 294.312,562.977 291.5,561C 279.327,555.609 266.994,550.609 254.5,546C 245.278,542.32 237.444,536.82 231,529.5C 229.118,522.397 227.118,515.397 225,508.5C 222.732,513.983 220.899,519.65 219.5,525.5C 218.277,526.614 216.944,526.781 215.5,526C 200.818,515.322 188.985,502.155 180,486.5C 179.116,482.887 178.616,479.22 178.5,475.5C 179.395,467.497 179.895,459.497 180,451.5C 179.333,450.167 178.667,450.167 178,451.5C 175.952,457.103 172.786,461.936 168.5,466C 163.537,466.733 160.37,464.567 159,459.5C 155.65,446.646 155.817,433.812 159.5,421C 159.167,420.5 158.833,420 158.5,419.5C 154.833,422.333 151.167,425.167 147.5,428C 146.207,428.49 144.873,428.657 143.5,428.5C 143.894,422.703 145.728,417.37 149,412.5C 152.314,408.352 155.814,404.352 159.5,400.5C 140.596,375.498 126.596,346.665 117.5,314C 117.57,313.235 117.903,312.735 118.5,312.5C 124.241,322.41 131.908,330.577 141.5,337C 157.837,343.081 174.504,344.081 191.5,340C 184.36,332.226 178.86,323.392 175,313.5C 174.202,311.741 174.369,310.074 175.5,308.5C 181.976,313.142 188.309,317.975 194.5,323C 200.351,326.926 206.684,329.759 213.5,331.5C 215.725,331.695 217.391,330.861 218.5,329C 213.47,321.438 209.637,313.271 207,304.5C 206.257,302.559 206.424,300.726 207.5,299C 208.167,298.333 208.833,298.333 209.5,299C 216.423,306.761 224.089,313.594 232.5,319.5C 236.366,316.468 239.699,312.968 242.5,309C 239.69,303.398 239.023,297.564 240.5,291.5C 243.484,293.984 246.318,296.65 249,299.5C 249.383,298.944 249.883,298.611 250.5,298.5C 251.254,301.091 252.921,302.924 255.5,304C 259.189,305.896 263.022,307.396 267,308.5C 288.793,303.177 310.293,303.177 331.5,308.5C 343.78,305.607 353.947,299.274 362,289.5C 364.727,300.253 361.56,309.087 352.5,316C 356.129,317.93 359.795,319.764 363.5,321.5C 374.59,315.596 384.257,307.763 392.5,298C 393.448,297.517 394.448,297.351 395.5,297.5C 395.286,299.144 395.62,300.644 396.5,302C 393.077,312.514 388.077,322.181 381.5,331C 383.167,331.667 384.833,331.667 386.5,331C 401.981,326.014 415.481,317.847 427,306.5C 428.487,308.272 428.82,310.272 428,312.5C 422.57,327.176 413.403,339.01 400.5,348C 404.167,348.667 407.833,348.667 411.5,348C 414.674,346.275 418.007,344.942 421.5,344C 427.646,343.968 433.646,343.135 439.5,341.5C 440.72,341.887 441.387,342.72 441.5,344C 440.813,345.162 440.647,346.328 441,347.5C 450.199,354.228 454.199,363.228 453,374.5C 455.041,375.423 457.208,375.756 459.5,375.5 Z"/></g>
<g><path style="opacity:1" fill="#7b7a7a" d="M 122.5,286.5 C 120.535,293.471 116.868,299.138 111.5,303.5C 115.429,297.967 119.096,292.3 122.5,286.5 Z"/></g>
<g><path style="opacity:1" fill="#232121" d="M 282.5,352.5 C 296.208,352.138 309.874,352.638 323.5,354C 356.61,361.054 366.11,379.888 352,410.5C 341.611,423.954 328.111,432.787 311.5,437C 287.163,440.085 266.663,432.585 250,414.5C 239.04,400.354 237.707,385.354 246,369.5C 249.642,364.854 254.142,361.354 259.5,359C 267.067,356.029 274.734,353.862 282.5,352.5 Z"/></g>
<g><path style="opacity:1" fill="#272525" d="M 277.5,470.5 C 292,473.153 306.5,473.153 321,470.5C 323.088,471.308 325.088,472.308 327,473.5C 327.497,475.81 327.663,478.143 327.5,480.5C 323.19,482.797 318.523,483.964 313.5,484C 300.383,485.068 287.383,484.401 274.5,482C 269.991,476.708 270.991,472.874 277.5,470.5 Z"/></g>
</svg>
