<?xml version="1.0" encoding="UTF-8"?>
<!DOCTYPE svg PUBLIC "-//W3C//DTD SVG 1.1//EN" "http://www.w3.org/Graphics/SVG/1.1/DTD/svg11.dtd">
<svg xmlns="http://www.w3.org/2000/svg" version="1.1" width="600px" height="600px" style="shape-rendering:geometricPrecision; text-rendering:geometricPrecision; image-rendering:optimizeQuality; fill-rule:evenodd; clip-rule:evenodd" xmlns:xlink="http://www.w3.org/1999/xlink">
<g><path style="opacity:0.982" fill="#000101" d="M 153.5,11.5 C 165.707,11.2908 176.54,14.9575 186,22.5C 202.467,16.3207 217.3,19.154 230.5,31C 235.667,35.5 240.833,40 246,44.5C 247.757,38.5744 251.591,34.9077 257.5,33.5C 254.516,23.6625 258.016,17.9959 268,16.5C 280.709,19.6051 291.542,25.9384 300.5,35.5C 307.589,27.9148 315.922,22.0815 325.5,18C 339.467,14.14 345.467,19.3067 343.5,33.5C 349.073,34.5717 352.573,37.905 354,43.5C 363.214,34.1482 373.714,26.6482 385.5,21C 394.36,17.833 403.194,17.9997 412,21.5C 418.282,18.2783 424.782,15.445 431.5,13C 436.095,11.6071 440.761,11.2738 445.5,12C 452.44,14.8112 454.773,19.8112 452.5,27C 456.162,30.3437 457.495,34.3437 456.5,39C 489.781,53.2045 524.115,64.2045 559.5,72C 569.227,74.4489 578.061,78.6156 586,84.5C 589.34,88.1827 591.34,92.5161 592,97.5C 592.73,104.548 592.397,111.548 591,118.5C 587.882,132.644 583.382,146.31 577.5,159.5C 580.999,167.662 583.333,176.162 584.5,185C 583.794,188.862 582.961,192.695 582,196.5C 577.212,202.615 571.546,203.615 565,199.5C 563.829,200.893 562.329,201.727 560.5,202C 557.532,202.17 554.699,202.336 552,202.5C 545.59,214.398 541.59,227.064 540,240.5C 535.655,250.045 528.488,253.212 518.5,250C 513.9,247.785 509.734,244.952 506,241.5C 505.493,286.558 496.827,329.892 480,371.5C 474.547,383.585 467.714,394.752 459.5,405C 457.5,405.833 455.5,406.667 453.5,407.5C 450.908,417.503 445.241,425.337 436.5,431C 439.331,436.482 441.164,442.315 442,448.5C 444.453,462.451 442.119,475.451 435,487.5C 431.3,491.266 426.8,493.266 421.5,493.5C 421.408,499.535 419.908,505.201 417,510.5C 406.876,525.624 394.376,538.458 379.5,549C 377.782,549.346 376.115,549.846 374.5,550.5C 372.568,549.48 370.568,549.313 368.5,550C 360.373,558.571 350.706,564.905 339.5,569C 329.275,572.446 319.275,576.446 309.5,581C 301.784,590.366 293.784,590.7 285.5,582C 282.661,580.08 279.661,578.413 276.5,577C 258.826,572.163 242.826,564.163 228.5,553C 226.879,548.749 224.046,547.582 220,549.5C 209.642,544.829 200.642,538.162 193,529.5C 189.375,523.94 185.042,518.94 180,514.5C 175.229,508.295 172.729,501.295 172.5,493.5C 163.682,493.175 157.848,488.842 155,480.5C 151.104,469.725 150.437,458.725 153,447.5C 154.847,439.788 156.514,432.121 158,424.5C 152.875,419.921 149.542,414.254 148,407.5C 144.564,406.905 141.731,405.239 139.5,402.5C 119.013,370.856 106.18,336.523 101,299.5C 98.1742,279.591 96.3409,259.591 95.5,239.5C 90.3965,244.776 84.3965,248.61 77.5,251C 68.5869,252.294 62.4202,248.794 59,240.5C 57.4691,227.04 53.4691,214.373 47,202.5C 42.6884,202.998 38.355,202.331 34,200.5C 27.171,203.869 21.5044,202.536 17,196.5C 15.5158,190.235 15.1824,183.902 16,177.5C 17.3319,171.338 19.1652,165.338 21.5,159.5C 13.6139,142.122 8.61393,123.955 6.5,105C 6.50688,90.3193 13.5069,80.6526 27.5,76C 45.7016,70.5328 64.035,65.5328 82.5,61C 102.936,54.5781 122.936,47.0781 142.5,38.5C 141.798,36.2244 141.965,33.8911 143,31.5C 146.216,29.0904 147.05,26.0904 145.5,22.5C 145.924,17.0918 148.591,13.4252 153.5,11.5 Z"/></g>
<g><path style="opacity:1" fill="#393634" d="M 375.5,76.5 C 379.511,76.5016 383.178,77.6683 386.5,80C 419.726,102.717 449.392,129.55 475.5,160.5C 481.866,174.576 487.866,188.909 493.5,203.5C 492.963,204.741 492.296,205.908 491.5,207C 496.449,244.798 494.615,282.298 486,319.5C 482.726,319.985 479.559,319.985 476.5,319.5C 479.833,322.504 481.833,326.17 482.5,330.5C 477.119,353.483 467.952,374.816 455,394.5C 454.196,395.804 453.029,396.471 451.5,396.5C 448.594,395.103 446.094,393.103 444,390.5C 443.667,390.833 443.333,391.167 443,391.5C 442.719,395.162 442.885,398.829 443.5,402.5C 443.705,405.795 442.872,408.795 441,411.5C 436.313,417.687 430.813,423.02 424.5,427.5C 432.253,444.102 433.42,461.102 428,478.5C 426.417,481.709 423.917,482.876 420.5,482C 416.796,477.428 413.463,472.594 410.5,467.5C 410.207,478.14 410.041,488.806 410,499.5C 401.578,515.761 389.745,529.095 374.5,539.5C 373.522,539.023 372.689,538.357 372,537.5C 370.874,533.535 369.874,529.535 369,525.5C 367.989,524.663 366.822,524.33 365.5,524.5C 365.585,534.431 361.919,542.598 354.5,549C 341.614,556.741 327.947,562.741 313.5,567C 307.221,569.383 301.721,572.883 297,577.5C 294.178,575.347 291.344,573.181 288.5,571C 278.725,566.446 268.725,562.446 258.5,559C 248.622,554.993 240.122,549.16 233,541.5C 231.133,535.966 229.799,530.299 229,524.5C 226.918,521.85 225.251,522.184 224,525.5C 223.683,529.939 222.516,534.105 220.5,538C 217.199,537.176 214.199,535.51 211.5,533C 200.822,522.996 191.655,511.83 184,499.5C 183.853,488.8 183.686,478.133 183.5,467.5C 180.764,471.296 178.264,475.296 176,479.5C 171.055,483.858 167.389,482.858 165,476.5C 162.552,468.344 161.886,460.01 163,451.5C 164.753,441.267 167.087,431.267 170,421.5C 166.297,418.133 162.964,414.466 160,410.5C 158.96,404.217 158.127,397.884 157.5,391.5C 155.684,392.815 154.017,394.315 152.5,396C 150.741,396.798 149.074,396.631 147.5,395.5C 133.295,374.763 123.795,352.096 119,327.5C 124.504,321.167 123.338,318.834 115.5,320.5C 107.574,282.152 105.074,243.485 108,204.5C 106.844,205.993 106.01,205.826 105.5,204C 109.704,192.53 114.371,181.363 119.5,170.5C 144.97,138.863 173.637,110.363 205.5,85C 210.455,81.3573 215.788,78.524 221.5,76.5C 233.568,75.6306 243.234,70.2973 250.5,60.5C 249.335,59.4164 248.002,58.5831 246.5,58C 250.863,57.6306 255.196,57.1306 259.5,56.5C 258.798,53.4222 257.798,50.4222 256.5,47.5C 256.653,44.7266 258.153,43.3933 261,43.5C 268.528,46.1943 276.028,48.6943 283.5,51C 279.108,43.2748 273.941,36.1081 268,29.5C 267.568,28.3999 268.068,27.7332 269.5,27.5C 275.053,28.943 280.053,31.443 284.5,35C 290.415,40.4098 295.748,46.2432 300.5,52.5C 307.833,41.9979 317.166,33.8312 328.5,28C 330.259,27.2025 331.926,27.3691 333.5,28.5C 327.314,35.0421 321.981,42.2088 317.5,50C 323.673,48.8311 329.673,46.8311 335.5,44C 338.146,43.5026 340.813,43.3359 343.5,43.5C 342.948,47.9408 341.281,51.9408 338.5,55.5C 343.01,57.0531 347.676,57.8864 352.5,58C 351.09,58.3678 350.09,59.2011 349.5,60.5C 356.026,69.4243 364.693,74.7576 375.5,76.5 Z"/></g>
<g><path style="opacity:1" fill="#302f2e" d="M 221.5,76.5 C 215.788,78.524 210.455,81.3573 205.5,85C 173.637,110.363 144.97,138.863 119.5,170.5C 130.606,141.955 144.106,114.622 160,88.5C 169.139,75.3499 181.639,68.0166 197.5,66.5C 206.96,66.5698 214.96,69.9032 221.5,76.5 Z"/></g>
<g><path style="opacity:1" fill="#302f2e" d="M 475.5,160.5 C 449.392,129.55 419.726,102.717 386.5,80C 383.178,77.6683 379.511,76.5016 375.5,76.5C 380.474,74.3985 385.141,71.5652 389.5,68C 402.996,64.2791 415.33,66.6124 426.5,75C 432.41,80.2392 437.577,86.0725 442,92.5C 454.521,114.542 465.688,137.209 475.5,160.5 Z"/></g>
<g><path style="opacity:1" fill="#010202" d="M 422.5,231.5 C 408.792,222.486 393.792,216.486 377.5,213.5C 364.577,211.846 351.577,210.012 338.5,208C 330.668,199.425 330.668,190.758 338.5,182C 341.789,179.522 345.456,177.856 349.5,177C 388.925,178.093 421.092,193.926 446,224.5C 450.159,229.293 451.159,234.626 449,240.5C 446.757,242.282 444.257,242.782 441.5,242C 435.26,238.243 428.926,234.743 422.5,231.5 Z"/></g>
<g><path style="opacity:1" fill="#010202" d="M 228.5,213.5 C 210.732,214.44 194.065,219.107 178.5,227.5C 171.243,230.462 164.243,233.962 157.5,238C 150.516,241.533 146.516,239.533 145.5,232C 146.611,228.676 148.111,225.51 150,222.5C 173.928,195.953 203.762,181.286 239.5,178.5C 249.088,178.074 256.921,181.407 263,188.5C 267.115,196.864 265.949,204.364 259.5,211C 249.163,212.116 238.829,212.95 228.5,213.5 Z"/></g>
<g><path style="opacity:1" fill="#7b7774" d="M 377.5,213.5 C 393.792,216.486 408.792,222.486 422.5,231.5C 430.888,251.452 426.888,268.619 410.5,283C 388.621,295.653 369.787,292.153 354,272.5C 341.324,247.359 347.157,227.859 371.5,214C 373.473,213.505 375.473,213.338 377.5,213.5 Z"/></g>
<g><path style="opacity:1" fill="#7b7775" d="M 228.5,213.5 C 253.414,229.417 258.247,250.084 243,275.5C 229.745,289.865 213.911,293.698 195.5,287C 175.906,275.972 168.739,259.472 174,237.5C 175.786,234.264 177.286,230.93 178.5,227.5C 194.065,219.107 210.732,214.44 228.5,213.5 Z"/></g>
<g><path style="opacity:1" fill="#020303" d="M 204.5,222.5 C 225.286,220.374 237.286,229.541 240.5,250C 238.944,267.722 229.277,277.222 211.5,278.5C 190.987,275.814 181.82,264.148 184,243.5C 187.685,233.316 194.519,226.316 204.5,222.5 Z"/></g>
<g><path style="opacity:1" fill="#020303" d="M 380.5,222.5 C 397.613,220.466 409.113,227.466 415,243.5C 417.583,261.182 410.416,272.682 393.5,278C 376.717,280.197 365.55,273.364 360,257.5C 357.123,239.927 363.956,228.26 380.5,222.5 Z"/></g>
<g><path style="opacity:1" fill="#e9e9e9" d="M 201.5,233.5 C 211.311,233.139 213.977,237.306 209.5,246C 203.162,249.224 199.162,247.391 197.5,240.5C 198.071,237.687 199.404,235.354 201.5,233.5 Z"/></g>
<g><path style="opacity:1" fill="#eaeaea" d="M 377.5,233.5 C 385.33,232.495 388.496,235.828 387,243.5C 382.667,248.833 378.333,248.833 374,243.5C 372.756,239.191 373.923,235.858 377.5,233.5 Z"/></g>
<g><path style="opacity:1" fill="#010202" d="M 284.5,397.5 C 299.667,396.743 314.667,397.91 329.5,401C 357.623,410.706 364.457,428.539 350,454.5C 320.89,487.323 289.39,489.823 255.5,462C 245.854,452.377 241.354,440.877 242,427.5C 244.918,414.578 252.751,406.078 265.5,402C 271.945,400.416 278.278,398.916 284.5,397.5 Z"/></g>
</svg>
