<?xml version="1.0" encoding="UTF-8"?>
<!DOCTYPE svg PUBLIC "-//W3C//DTD SVG 1.1//EN" "http://www.w3.org/Graphics/SVG/1.1/DTD/svg11.dtd">
<svg xmlns="http://www.w3.org/2000/svg" version="1.1" width="600px" height="600px" style="shape-rendering:geometricPrecision; text-rendering:geometricPrecision; image-rendering:optimizeQuality; fill-rule:evenodd; clip-rule:evenodd" xmlns:xlink="http://www.w3.org/1999/xlink">
<g><path style="opacity:0.964" fill="#070402" d="M 257.5,-0.5 C 286.167,-0.5 314.833,-0.5 343.5,-0.5C 364.707,4.62987 384.874,12.6299 404,23.5C 409.2,22.1691 414.367,22.3357 419.5,24C 429.868,28.7769 438.702,35.6102 446,44.5C 463.314,64.4502 475.98,87.1169 484,112.5C 498.169,130.338 511.169,149.005 523,168.5C 527.114,176.176 530.447,184.176 533,192.5C 541.388,206.609 548.721,221.276 555,236.5C 558.737,245.845 560.403,255.511 560,265.5C 557.995,272.102 553.495,275.769 546.5,276.5C 551.15,287.735 552.984,299.402 552,311.5C 547.809,333.932 543.142,356.266 538,378.5C 536.667,381.167 534.667,383.167 532,384.5C 532.59,401.536 530.423,418.202 525.5,434.5C 528.955,443.503 527.289,451.336 520.5,458C 518.392,458.36 516.392,459.027 514.5,460C 512.556,463.61 510.223,466.943 507.5,470C 505.655,471.128 503.655,471.628 501.5,471.5C 501.303,475.622 500.47,479.622 499,483.5C 486.084,501.084 470.584,515.917 452.5,528C 447.334,530.748 442.334,533.748 437.5,537C 432.88,538.663 428.213,538.997 423.5,538C 419.091,543.08 414.091,547.414 408.5,551C 379.804,563.514 351.471,576.847 323.5,591C 319.102,593.857 314.768,596.691 310.5,599.5C 303.833,599.5 297.167,599.5 290.5,599.5C 286.072,596.109 281.406,592.942 276.5,590C 248.529,575.847 220.196,562.514 191.5,550C 185.277,546.777 180.777,541.943 178,535.5C 174.405,537.456 170.572,537.956 166.5,537C 141.631,524.314 120.798,506.814 104,484.5C 102.687,480.58 101.687,476.58 101,472.5C 94.1572,470.495 89.3238,466.161 86.5,459.5C 79.2197,454.538 76.0531,447.538 77,438.5C 70.8805,419.997 68.2138,400.997 69,381.5C 66.7095,378.975 65.3762,375.975 65,372.5C 61.0012,353.171 57.0012,333.837 53,314.5C 51.3397,301.142 53.1731,288.308 58.5,276C 49.1903,275.357 44.1903,270.357 43.5,261C 45.3216,250.546 48.155,240.38 52,230.5C 58.3961,217.375 65.0627,204.375 72,191.5C 74.4137,183.925 77.4137,176.592 81,169.5C 92.8311,150.005 105.831,131.338 120,113.5C 130.218,81.8877 147.384,54.7211 171.5,32C 179.384,24.7033 188.551,21.87 199,23.5C 217.244,12.2901 236.744,4.29006 257.5,-0.5 Z"/></g>
<g><path style="opacity:1" fill="#a46422" d="M 519.5,363.5 C 519.44,362.957 519.107,362.624 518.5,362.5C 518.167,366.667 517.833,370.833 517.5,375C 518.025,381.557 518.025,388.057 517.5,394.5C 515.572,391.212 513.739,387.879 512,384.5C 510.989,383.663 509.822,383.33 508.5,383.5C 507.888,398.38 509.388,413.047 513,427.5C 513.099,429.653 513.933,431.319 515.5,432.5C 516.332,437.481 516.498,442.481 516,447.5C 513.586,448.856 511.419,448.522 509.5,446.5C 506.167,441.148 501.5,437.814 495.5,436.5C 495.818,441.032 495.485,445.366 494.5,449.5C 493.375,447.871 492.041,446.371 490.5,445C 464.139,434.3 447.306,415.133 440,387.5C 434.84,362.365 433.173,337.031 435,311.5C 432.441,308.651 429.274,307.817 425.5,309C 417.639,317.735 408.305,323.568 397.5,326.5C 408.157,293.954 402.324,264.62 380,238.5C 376.5,235 373,231.5 369.5,228C 359.34,220.753 349.006,213.753 338.5,207C 331.829,200.475 325.995,193.309 321,185.5C 319.508,180.589 319.174,175.589 320,170.5C 324.67,154.491 331.004,139.158 339,124.5C 349.843,109.476 356.843,92.8096 360,74.5C 362.197,56.5307 359.197,39.5307 351,23.5C 340.342,13.1617 327.508,7.66173 312.5,7C 344.207,8.26019 373.541,17.2602 400.5,34C 405.045,32.8518 409.712,32.5185 414.5,33C 426.154,39.3159 435.988,47.8159 444,58.5C 452.919,69.994 460.586,82.3273 467,95.5C 469.41,103.733 472.41,111.733 476,119.5C 492.316,139.453 506.649,160.787 519,183.5C 520.47,188.243 522.136,192.909 524,197.5C 530.333,209.5 536.667,221.5 543,233.5C 547.236,243.109 549.57,253.109 550,263.5C 549.275,264.059 548.442,264.392 547.5,264.5C 543.865,262.434 540.032,260.767 536,259.5C 532.797,260.754 531.797,263.087 533,266.5C 535.869,275.441 538.536,284.441 541,293.5C 541.667,300.5 541.667,307.5 541,314.5C 536.84,334.138 532.84,353.805 529,373.5C 528.107,374.711 527.274,374.711 526.5,373.5C 524.887,369.571 522.554,366.238 519.5,363.5 Z"/></g>
<g><path style="opacity:1" fill="#a46422" d="M 109.5,447.5 C 109.5,443.833 109.5,440.167 109.5,436.5C 107.345,436.372 105.345,436.872 103.5,438C 99.9378,441.732 96.2712,445.232 92.5,448.5C 90.2258,449.952 88.7258,449.285 88,446.5C 87.4436,444.115 87.6103,441.782 88.5,439.5C 93.9273,421.671 96.4273,403.338 96,384.5C 94.4126,383.273 93.0793,383.606 92,385.5C 90.5869,388.661 88.9203,391.661 87,394.5C 87.1845,384.173 87.1845,373.839 87,363.5C 86.2825,362.549 85.4491,362.383 84.5,363C 82.84,364.488 81.84,366.321 81.5,368.5C 79.8564,370.481 78.1897,372.481 76.5,374.5C 71.678,353.9 67.178,333.234 63,312.5C 62.3333,307.5 62.3333,302.5 63,297.5C 64.8554,287.934 67.5221,278.6 71,269.5C 71.6667,266.5 71.6667,263.5 71,260.5C 69.2739,259.424 67.4406,259.257 65.5,260C 62.5,261.833 59.5,263.667 56.5,265.5C 55.914,265.291 55.414,264.957 55,264.5C 54.8553,254.433 56.8553,244.766 61,235.5C 67.3961,222.375 74.0627,209.375 81,196.5C 86.4844,181.198 93.8177,166.864 103,153.5C 110.605,141.962 118.938,130.962 128,120.5C 137.509,90.9659 153.009,65.1326 174.5,43C 179.228,39.2744 184.228,35.9411 189.5,33C 193.853,32.755 198.187,32.755 202.5,33C 225.089,18.4704 249.756,10.137 276.5,8C 264.26,9.20556 253.76,14.0389 245,22.5C 235.213,40.0036 232.213,58.6703 236,78.5C 236.587,82.9279 237.587,87.2613 239,91.5C 250.102,112.038 260.435,133.038 270,154.5C 274.392,163.725 276.058,173.392 275,183.5C 270.708,192.462 264.874,200.295 257.5,207C 247.589,212.573 237.922,218.573 228.5,225C 197.285,250.477 185.619,282.977 193.5,322.5C 188.314,320.076 183.647,316.909 179.5,313C 176.833,312.333 174.167,312.333 171.5,313C 170.874,313.75 170.374,314.584 170,315.5C 169.861,334.858 169.194,354.192 168,373.5C 163.006,409.903 143.506,434.57 109.5,447.5 Z"/></g>
<g><path style="opacity:1" fill="#3c2613" d="M 286.5,11.5 C 289.984,10.8346 293.651,10.5013 297.5,10.5C 304.059,10.4107 310.392,11.0773 316.5,12.5C 306.516,11.7865 296.516,11.4532 286.5,11.5 Z"/></g>
<g><path style="opacity:1" fill="#f6f2ef" d="M 286.5,11.5 C 296.516,11.4532 306.516,11.7865 316.5,12.5C 328.472,13.9031 338.639,18.9031 347,27.5C 357.208,48.671 358.208,70.3377 350,92.5C 341.348,109.135 332.682,125.802 324,142.5C 320.94,149.68 318.273,157.014 316,164.5C 312.434,176.61 314.434,187.61 322,197.5C 328.167,203.667 334.333,209.833 340.5,216C 349.493,220.172 357.827,225.338 365.5,231.5C 368.833,235.5 372.5,239.167 376.5,242.5C 385.615,253.393 392.115,265.727 396,279.5C 399.474,294.444 398.64,309.111 393.5,323.5C 389.5,328.167 385.167,332.5 380.5,336.5C 378.883,337.038 377.216,337.371 375.5,337.5C 375.5,338.5 375.5,339.5 375.5,340.5C 383.087,339.249 390.42,337.083 397.5,334C 402.221,330.973 407.221,328.473 412.5,326.5C 415.255,323.732 418.255,321.399 421.5,319.5C 423.027,319.573 424.027,318.906 424.5,317.5C 425.833,316.833 426.833,315.833 427.5,314.5C 428.117,314.389 428.617,314.056 429,313.5C 429.169,327.673 429.669,341.673 430.5,355.5C 430.434,364.637 431.434,373.637 433.5,382.5C 433.721,385.067 434.388,387.401 435.5,389.5C 436.984,398.131 439.984,406.131 444.5,413.5C 444.427,415.027 445.094,416.027 446.5,416.5C 448.084,418.701 449.584,421.034 451,423.5C 461.064,435.558 473.398,444.558 488,450.5C 490.389,460.141 490.722,469.808 489,479.5C 473.172,500.179 453.672,516.179 430.5,527.5C 429.006,527.291 427.839,526.624 427,525.5C 425.602,519.216 424.435,512.883 423.5,506.5C 420.937,515.73 417.603,524.73 413.5,533.5C 411.016,535.483 408.683,537.65 406.5,540C 380.046,552.06 353.713,564.393 327.5,577C 318.247,581.874 309.413,587.374 301,593.5C 291.249,586.705 281.083,580.539 270.5,575C 246.002,563.279 221.336,551.946 196.5,541C 193,538.833 190.167,536 188,532.5C 184.207,523.819 181.041,514.986 178.5,506C 178.167,505.833 177.833,505.667 177.5,505.5C 176.657,512.253 175.491,518.92 174,525.5C 172.062,527.978 169.895,528.145 167.5,526C 151.13,516.555 136.297,505.055 123,491.5C 119.089,486.678 115.422,481.678 112,476.5C 111.119,468.046 111.786,459.713 114,451.5C 137.486,442.673 154.486,427.007 165,404.5C 172.262,382.84 175.762,360.507 175.5,337.5C 175.127,330.484 174.961,323.484 175,316.5C 184.246,324.706 194.746,330.706 206.5,334.5C 209.792,336.764 213.459,337.93 217.5,338C 213.968,336.072 210.634,333.905 207.5,331.5C 206.167,329.5 204.5,327.833 202.5,326.5C 193.07,302.337 194.903,279.003 208,256.5C 219.656,237.418 235.823,223.585 256.5,215C 261.667,209.833 266.833,204.667 272,199.5C 278.983,191.598 281.817,182.598 280.5,172.5C 279.883,165.323 277.883,158.656 274.5,152.5C 273.969,149.763 273.136,147.096 272,144.5C 262.907,125.979 253.574,107.646 244,89.5C 238.035,71.4955 238.035,53.4955 244,35.5C 249.423,23.6878 258.59,16.5211 271.5,14C 276.474,12.9487 281.474,12.1154 286.5,11.5 Z"/></g>
<g><path style="opacity:1" fill="#ebdccc" d="M 216.5,150.5 C 235.193,151.027 245.859,160.527 248.5,179C 246.738,196.596 237.071,206.429 219.5,208.5C 201.95,206.449 192.283,196.616 190.5,179C 192.464,163.209 201.131,153.709 216.5,150.5 Z"/></g>
<g><path style="opacity:1" fill="#ecdccd" d="M 372.5,150.5 C 395.409,152.314 405.576,164.647 403,187.5C 394.303,206.956 380.136,212.456 360.5,204C 345.31,192.074 342.81,177.907 353,161.5C 358.341,155.584 364.841,151.918 372.5,150.5 Z"/></g>
<g><path style="opacity:1" fill="#563e2c" d="M 274.5,152.5 C 277.883,158.656 279.883,165.323 280.5,172.5C 278.332,165.988 276.332,159.321 274.5,152.5 Z"/></g>
<g><path style="opacity:1" fill="#1d1a1a" d="M 214.5,158.5 C 227.296,157.141 235.796,162.474 240,174.5C 241.453,190.043 234.453,198.71 219,200.5C 203.607,198.092 196.94,189.092 199,173.5C 200.455,170.088 202.288,166.921 204.5,164C 207.767,161.87 211.1,160.037 214.5,158.5 Z"/></g>
<g><path style="opacity:1" fill="#1d1a1a" d="M 370.5,158.5 C 383.283,157.136 391.783,162.469 396,174.5C 397.854,187.296 392.687,195.796 380.5,200C 366.59,201.967 358.09,196.133 355,182.5C 353.92,170.422 359.087,162.422 370.5,158.5 Z"/></g>
<g><path style="opacity:1" fill="#ebebeb" d="M 223.5,166.5 C 232.561,167.377 234.561,171.544 229.5,179C 222.17,180.666 219.003,177.833 220,170.5C 220.69,168.65 221.856,167.316 223.5,166.5 Z"/></g>
<g><path style="opacity:1" fill="#ebebeb" d="M 379.5,166.5 C 386.141,166.639 388.974,169.972 388,176.5C 384,180.5 380,180.5 376,176.5C 374.756,172.191 375.923,168.858 379.5,166.5 Z"/></g>
<g><path style="opacity:1" fill="#0a0808" d="M 287.5,222.5 C 298.772,221.148 309.438,222.982 319.5,228C 327.98,237.554 327.313,246.554 317.5,255C 311.249,258.708 305.083,262.541 299,266.5C 298.233,270.594 298.566,274.594 300,278.5C 303.493,285.981 308.326,292.481 314.5,298C 335.646,315.377 359.979,323.044 387.5,321C 368.028,325.754 349.028,324.087 330.5,316C 322.469,311.984 314.469,307.984 306.5,304C 299.034,301.74 291.7,302.073 284.5,305C 260.976,320.131 235.309,326.631 207.5,324.5C 237.07,323.689 263.237,312.689 286,291.5C 289.755,286.997 292.755,281.997 295,276.5C 295.667,273.167 295.667,269.833 295,266.5C 288.917,262.541 282.751,258.708 276.5,255C 266.256,245.928 265.922,236.595 275.5,227C 279.503,225.151 283.503,223.651 287.5,222.5 Z"/></g>
<g><path style="opacity:1" fill="#221714" d="M 288.5,227.5 C 297.978,226.482 306.978,227.982 315.5,232C 322.513,238.962 321.846,245.296 313.5,251C 308.245,254.546 302.745,257.712 297,260.5C 288.8,256.736 281.466,251.736 275,245.5C 272.778,241.164 273.278,237.164 276.5,233.5C 280.324,230.921 284.324,228.921 288.5,227.5 Z"/></g>
<g><path style="opacity:1" fill="#47301d" d="M 365.5,231.5 C 370.167,234.167 373.833,237.833 376.5,242.5C 372.5,239.167 368.833,235.5 365.5,231.5 Z"/></g>
<g><path style="opacity:1" fill="#201613" d="M 296.5,285.5 C 299.589,289.768 302.923,293.934 306.5,298C 299.847,297.382 293.181,297.382 286.5,298C 290.807,294.535 294.141,290.369 296.5,285.5 Z"/></g>
<g><path style="opacity:1" fill="#816a57" d="M 424.5,317.5 C 424.027,318.906 423.027,319.573 421.5,319.5C 421.973,318.094 422.973,317.427 424.5,317.5 Z"/></g>
<g><path style="opacity:1" fill="#49321d" d="M 430.5,355.5 C 429.669,341.673 429.169,327.673 429,313.5C 428.617,314.056 428.117,314.389 427.5,314.5C 427.821,312.952 428.821,312.285 430.5,312.5C 430.5,326.833 430.5,341.167 430.5,355.5 Z"/></g>
<g><path style="opacity:1" fill="#59412a" d="M 202.5,326.5 C 204.5,327.833 206.167,329.5 207.5,331.5C 204.833,330.833 203.167,329.167 202.5,326.5 Z"/></g>
<g><path style="opacity:1" fill="#634d38" d="M 393.5,323.5 C 390.833,329.5 386.5,333.833 380.5,336.5C 385.167,332.5 389.5,328.167 393.5,323.5 Z"/></g>
<g><path style="opacity:1" fill="#58412c" d="M 207.5,331.5 C 210.634,333.905 213.968,336.072 217.5,338C 213.459,337.93 209.792,336.764 206.5,334.5C 207.239,334.631 207.906,334.464 208.5,334C 207.748,333.329 207.414,332.496 207.5,331.5 Z"/></g>
<g><path style="opacity:1" fill="#efe9e5" d="M 88.5,439.5 C 80.1621,416.454 77.8288,392.787 81.5,368.5C 81.84,366.321 82.84,364.488 84.5,363C 85.4491,362.383 86.2825,362.549 87,363.5C 87.1845,373.839 87.1845,384.173 87,394.5C 88.9203,391.661 90.5869,388.661 92,385.5C 93.0793,383.606 94.4126,383.273 96,384.5C 96.4273,403.338 93.9273,421.671 88.5,439.5 Z"/></g>
<g><path style="opacity:1" fill="#e8e1de" d="M 519.5,363.5 C 523.045,386.805 521.711,409.805 515.5,432.5C 513.933,431.319 513.099,429.653 513,427.5C 509.388,413.047 507.888,398.38 508.5,383.5C 509.822,383.33 510.989,383.663 512,384.5C 513.739,387.879 515.572,391.212 517.5,394.5C 518.025,388.057 518.025,381.557 517.5,375C 517.833,370.833 518.167,366.667 518.5,362.5C 519.107,362.624 519.44,362.957 519.5,363.5 Z"/></g>
<g><path style="opacity:1" fill="#58402a" d="M 433.5,382.5 C 435.163,384.438 435.829,386.772 435.5,389.5C 434.388,387.401 433.721,385.067 433.5,382.5 Z"/></g>
<g><path style="opacity:1" fill="#856c55" d="M 444.5,413.5 C 445.906,413.973 446.573,414.973 446.5,416.5C 445.094,416.027 444.427,415.027 444.5,413.5 Z"/></g>
<g><path style="opacity:1" fill="#f1ece9" d="M 109.5,447.5 C 108.006,450.76 106.506,454.093 105,457.5C 104.101,459.327 102.767,460.66 101,461.5C 97.6695,457.509 94.8362,453.176 92.5,448.5C 96.2712,445.232 99.9378,441.732 103.5,438C 105.345,436.872 107.345,436.372 109.5,436.5C 109.5,440.167 109.5,443.833 109.5,447.5 Z"/></g>
<g><path style="opacity:1" fill="#ebe6e3" d="M 509.5,446.5 C 507.263,451.978 504.263,456.978 500.5,461.5C 496.375,458.583 494.375,454.583 494.5,449.5C 495.485,445.366 495.818,441.032 495.5,436.5C 501.5,437.814 506.167,441.148 509.5,446.5 Z"/></g>
</svg>
