<?xml version="1.0" encoding="UTF-8"?>
<!DOCTYPE svg PUBLIC "-//W3C//DTD SVG 1.1//EN" "http://www.w3.org/Graphics/SVG/1.1/DTD/svg11.dtd">
<svg xmlns="http://www.w3.org/2000/svg" version="1.1" width="600px" height="600px" style="shape-rendering:geometricPrecision; text-rendering:geometricPrecision; image-rendering:optimizeQuality; fill-rule:evenodd; clip-rule:evenodd" xmlns:xlink="http://www.w3.org/1999/xlink">
<g><path style="opacity:0.95" fill="#020202" d="M 149.5,-0.5 C 156.167,-0.5 162.833,-0.5 169.5,-0.5C 177.698,5.18717 185.198,11.8538 192,19.5C 200.843,29.8735 209.677,40.2069 218.5,50.5C 275.157,27.8338 331.824,27.8338 388.5,50.5C 400.608,35.556 413.274,21.056 426.5,7C 430.233,4.47716 433.899,1.97716 437.5,-0.5C 443.833,-0.5 450.167,-0.5 456.5,-0.5C 460.762,1.9262 464.262,5.25954 467,9.5C 470.66,16.8131 473.327,24.4798 475,32.5C 480.134,64.9775 483.468,97.6441 485,130.5C 487.485,140.623 491.152,150.29 496,159.5C 506.667,175.5 517.333,191.5 528,207.5C 533.19,215.88 537.857,224.546 542,233.5C 545.573,241.716 544.406,249.216 538.5,256C 546.998,285.491 554.164,315.325 560,345.5C 562.021,361.125 555.354,370.125 540,372.5C 529.028,438.983 497.195,492.816 444.5,534C 438.794,537.508 432.794,538.174 426.5,536C 423.966,534.066 421.299,532.732 418.5,532C 388.524,563.647 352.857,586.147 311.5,599.5C 305.833,599.5 300.167,599.5 294.5,599.5C 253.056,584.857 217.223,561.523 187,529.5C 180.15,537.18 172.317,538.68 163.5,534C 109.457,492.796 77.2906,438.296 67,370.5C 56.6117,371.154 50.2783,366.488 48,356.5C 47.2105,345.021 48.2105,333.688 51,322.5C 55.917,300.25 61.7503,278.25 68.5,256.5C 62.7537,250.505 61.2537,243.505 64,235.5C 66.727,229.046 69.727,222.712 73,216.5C 83.9411,199.228 95.2744,182.228 107,165.5C 114.51,153.477 119.51,140.477 122,126.5C 123.173,94.265 126.506,62.265 132,30.5C 133.734,17.6838 139.567,7.35042 149.5,-0.5 Z"/></g>
<g><path style="opacity:1" fill="#fbf2e5" d="M 155.5,8.5 C 160.618,7.889 165.285,9.05566 169.5,12C 185.278,27.4387 199.944,43.772 213.5,61C 214.333,61.1667 215.167,61.3333 216,61.5C 272.831,37.7657 329.664,37.5991 386.5,61C 388.5,61.6667 390.5,61.6667 392.5,61C 406.463,44.7019 420.796,28.7019 435.5,13C 447.09,5.02757 455.59,7.52757 461,20.5C 463.427,26.6324 465.093,32.9658 466,39.5C 470.32,68.0072 472.987,96.6739 474,125.5C 476.104,140.041 480.77,153.708 488,166.5C 502.748,187.656 516.748,209.323 530,231.5C 530.725,233.949 531.725,236.283 533,238.5C 535.06,245.275 532.56,248.275 525.5,247.5C 532.155,270.309 538.322,293.309 544,316.5C 546.405,327.402 548.238,338.402 549.5,349.5C 549.318,352.226 548.818,354.893 548,357.5C 546.527,359.007 544.693,359.674 542.5,359.5C 538.795,358.537 535.128,358.537 531.5,359.5C 523.189,423.636 494.856,476.803 446.5,519C 443.833,521 441.167,523 438.5,525C 434.586,527.18 430.919,526.846 427.5,524C 425.415,519.539 422.081,517.205 417.5,517C 388.023,550.134 352.357,574.134 310.5,589C 302.224,590.171 294.224,589.171 286.5,586C 248.796,569.616 216.129,546.282 188.5,516C 187.5,515.333 186.5,515.333 185.5,516C 182.133,519.703 178.466,523.036 174.5,526C 172.365,526.635 170.365,526.301 168.5,525C 115,482.864 84.1669,427.697 76,359.5C 75.044,358.106 73.7106,357.439 72,357.5C 61.8584,362.598 57.0251,359.598 57.5,348.5C 62.0442,314.99 70.0442,282.323 81.5,250.5C 81.3918,249.558 81.0585,248.725 80.5,248C 74.5333,248.701 72.0333,246.201 73,240.5C 75.3935,234.713 78.0602,229.046 81,223.5C 92.4182,205.662 104.085,187.995 116,170.5C 124.088,157.572 129.421,143.572 132,128.5C 133.714,95.9814 137.047,63.648 142,31.5C 143.49,21.8235 147.99,14.1569 155.5,8.5 Z"/></g>
<g><path style="opacity:1" fill="#fefefe" d="M 162.5,35.5 C 164.308,35.4914 165.975,35.9914 167.5,37C 177.996,46.9867 186.33,58.4867 192.5,71.5C 185.721,85.1124 176.221,96.4457 164,105.5C 162.347,105.18 161.347,104.18 161,102.5C 157.203,84.309 156.536,65.9757 159,47.5C 159.267,43.2017 160.434,39.2017 162.5,35.5 Z"/></g>
<g><path style="opacity:1" fill="#fefefe" d="M 441.5,35.5 C 444.888,35.8739 446.722,37.8739 447,41.5C 448.562,58.7984 448.895,76.1317 448,93.5C 447.408,97.2765 446.408,100.943 445,104.5C 443.132,105.672 441.298,105.505 439.5,104C 429.338,94.4778 421.005,83.6445 414.5,71.5C 421.111,57.5677 430.111,45.5677 441.5,35.5 Z"/></g>
<g><path style="opacity:1" fill="#38302c" d="M 242.5,180.5 C 262.782,183.4 270.282,194.733 265,214.5C 256.408,227.804 244.908,230.971 230.5,224C 219.056,213.46 217.556,201.627 226,188.5C 230.623,183.804 236.123,181.138 242.5,180.5 Z"/></g>
<g><path style="opacity:1" fill="#38302c" d="M 359.5,180.5 C 372.715,180.182 381.548,186.182 386,198.5C 386.97,219.197 377.136,228.697 356.5,227C 343.647,221.799 338.147,212.299 340,198.5C 343.519,189.143 350.019,183.143 359.5,180.5 Z"/></g>
<g><path style="opacity:1" fill="#efeeee" d="M 248.5,192.5 C 253.835,192.005 256.335,194.338 256,199.5C 251.271,204.091 248.104,203.258 246.5,197C 246.519,195.167 247.185,193.667 248.5,192.5 Z"/></g>
<g><path style="opacity:1" fill="#ededed" d="M 369.5,192.5 C 374.835,192.005 377.335,194.338 377,199.5C 374.294,202.978 371.294,203.311 368,200.5C 367.109,197.502 367.609,194.836 369.5,192.5 Z"/></g>
<g><path style="opacity:1" fill="#38302c" d="M 281.5,303.5 C 279.5,300.833 277.167,298.5 274.5,296.5C 268.059,287.258 266.892,277.258 271,266.5C 274.287,260.933 279.121,257.433 285.5,256C 296.404,253.007 307.404,252.674 318.5,255C 339.128,262.87 343.962,276.703 333,296.5C 322.878,308.196 310.044,312.696 294.5,310C 289.547,308.857 285.214,306.69 281.5,303.5 Z"/></g>
<g><path style="opacity:1" fill="#3e3531" d="M 264.5,323.5 C 266.261,336.187 271.594,347.02 280.5,356C 282.86,357.18 285.193,358.347 287.5,359.5C 290.833,363.167 294.167,366.833 297.5,370.5C 282.088,370.544 269.588,364.544 260,352.5C 256.256,348.743 253.256,344.41 251,339.5C 247.354,336.184 244.021,332.518 241,328.5C 231.874,314.548 225.374,299.381 221.5,283C 221.725,281.379 222.558,280.212 224,279.5C 228.743,290.693 234.076,301.693 240,312.5C 246.407,320.348 254.573,324.015 264.5,323.5 Z"/></g>
<g><path style="opacity:1" fill="#372f2b" d="M 297.5,370.5 C 294.167,366.833 290.833,363.167 287.5,359.5C 319.099,367.392 337.099,355.392 341.5,323.5C 350.583,323.75 358.416,320.75 365,314.5C 371.94,303.953 377.273,292.62 381,280.5C 382.011,279.663 383.178,279.33 384.5,279.5C 383.049,296.359 377.549,311.692 368,325.5C 359.33,337.52 349.83,349.02 339.5,360C 330.842,367.001 320.842,370.667 309.5,371C 305.311,371.812 301.311,371.645 297.5,370.5 Z"/></g>
<g><path style="opacity:1" fill="#989088" d="M 274.5,296.5 C 277.167,298.5 279.5,300.833 281.5,303.5C 278.167,302.167 275.833,299.833 274.5,296.5 Z"/></g>
<g><path style="opacity:1" fill="#bd839f" d="M 341.5,323.5 C 337.099,355.392 319.099,367.392 287.5,359.5C 285.193,358.347 282.86,357.18 280.5,356C 271.594,347.02 266.261,336.187 264.5,323.5C 277.642,322.476 290.642,320.476 303.5,317.5C 316.039,320.368 328.706,322.368 341.5,323.5 Z"/></g>
</svg>
