<?xml version="1.0" encoding="UTF-8"?>
<!DOCTYPE svg PUBLIC "-//W3C//DTD SVG 1.1//EN" "http://www.w3.org/Graphics/SVG/1.1/DTD/svg11.dtd">
<svg xmlns="http://www.w3.org/2000/svg" version="1.1" width="600px" height="600px" style="shape-rendering:geometricPrecision; text-rendering:geometricPrecision; image-rendering:optimizeQuality; fill-rule:evenodd; clip-rule:evenodd" xmlns:xlink="http://www.w3.org/1999/xlink">
<g><path style="opacity:0.964" fill="#020202" d="M 343.5,599.5 C 318.167,599.5 292.833,599.5 267.5,599.5C 199.595,587.041 144.095,554.041 101,500.5C 60.7981,451.894 42.1314,395.894 45,332.5C 49.7626,304.354 55.4293,276.354 62,248.5C 63.0533,241.194 63.8867,233.861 64.5,226.5C 59.2756,179.429 53.4423,132.429 47,85.5C 44.8996,69.5549 44.2329,53.5549 45,37.5C 50.0146,5.56823 67.848,-4.93177 98.5,6C 110.605,12.1084 121.605,19.775 131.5,29C 146.471,42.9707 161.138,57.3041 175.5,72C 181.124,76.8444 187.624,78.6778 195,77.5C 198.5,77.3333 202,77.1667 205.5,77C 237.453,69.6496 269.786,65.1496 302.5,63.5C 335.554,65.0641 368.221,69.5641 400.5,77C 407.5,77.6667 414.5,77.6667 421.5,77C 426.723,74.4427 431.39,71.1094 435.5,67C 450.227,51.6041 465.561,36.9374 481.5,23C 493.153,12.8396 506.487,5.83955 521.5,2C 536.688,0.0503448 548.188,5.55034 556,18.5C 560.785,32.1131 562.452,46.1131 561,60.5C 554.547,115.84 548.047,171.173 541.5,226.5C 541.858,234.219 542.691,241.886 544,249.5C 551.778,280.837 557.611,312.503 561.5,344.5C 559.523,422.621 528.857,487.121 469.5,538C 432.673,568.913 390.673,589.413 343.5,599.5 Z"/></g>
<g><path style="opacity:1" fill="#7d7d7d" d="M 529.5,12.5 C 528.957,12.56 528.624,12.8933 528.5,13.5C 532.87,19.9069 535.87,26.9069 537.5,34.5C 528.429,29.58 518.763,28.2467 508.5,30.5C 506.494,27.1708 504.161,24.1708 501.5,21.5C 509.814,14.8379 519.148,11.8379 529.5,12.5 Z"/></g>
<g><path style="opacity:1" fill="#8f8f8f" d="M 501.5,21.5 C 504.161,24.1708 506.494,27.1708 508.5,30.5C 492.758,38.9069 479.092,49.9069 467.5,63.5C 464.573,62.2427 462.239,60.2427 460.5,57.5C 472.956,44.0395 486.622,32.0395 501.5,21.5 Z"/></g>
<g><path style="opacity:1" fill="#020202" d="M 169.5,98.5 C 171.14,102.441 173.306,106.108 176,109.5C 177.352,112.72 178.186,116.053 178.5,119.5C 180.141,126.096 179.474,132.429 176.5,138.5C 166.681,150.802 157.348,163.469 148.5,176.5C 139.481,187.525 130.814,198.858 122.5,210.5C 115.107,221.787 105.107,224.787 92.5,219.5C 88.504,215.516 85.504,210.85 83.5,205.5C 82.0351,192.38 80.0351,179.38 77.5,166.5C 77.1289,160.924 76.1289,155.591 74.5,150.5C 71.8661,130.698 68.3661,111.031 64,91.5C 61.425,74.8595 61.0916,58.1928 63,41.5C 69.207,29.4243 79.0403,24.591 92.5,27C 100.891,29.6949 108.558,33.6949 115.5,39C 119.131,42.8099 123.131,46.1432 127.5,49C 133.357,55.8552 139.524,62.3552 146,68.5C 153.316,78.9732 161.149,88.9732 169.5,98.5 Z"/></g>
<g><path style="opacity:1" fill="#020202" d="M 537.5,34.5 C 542.614,40.6682 545.281,47.8348 545.5,56C 542.808,87.8485 537.974,119.348 531,150.5C 528.79,162.759 527.123,175.093 526,187.5C 524.108,196.734 521.442,205.734 518,214.5C 514.983,219.026 510.816,221.693 505.5,222.5C 497.204,222.963 490.538,219.963 485.5,213.5C 477.534,201.877 468.868,190.877 459.5,180.5C 453.065,171.284 446.399,162.284 439.5,153.5C 436.343,149.196 433.176,144.863 430,140.5C 428.336,137.673 427.17,134.673 426.5,131.5C 426.46,128.119 426.793,124.786 427.5,121.5C 428.824,115.848 430.991,110.514 434,105.5C 437.843,99.8046 441.677,94.1379 445.5,88.5C 452.137,79.5632 459.47,71.2299 467.5,63.5C 479.092,49.9069 492.758,38.9069 508.5,30.5C 518.763,28.2467 528.429,29.58 537.5,34.5 Z"/></g>
<g><path style="opacity:1" fill="#3e3a39" d="M 81.5,36.5 C 87.037,36.0866 92.3703,36.9199 97.5,39C 104.72,42.888 111.386,47.5547 117.5,53C 135.694,70.9322 151.861,90.4322 166,111.5C 169.647,118.598 170.314,125.932 168,133.5C 148.519,159.974 128.686,186.141 108.5,212C 104.705,212.837 101.039,212.504 97.5,211C 95.5987,208.03 94.0987,204.864 93,201.5C 85.5368,157.185 78.2035,112.851 71,68.5C 70.3333,62.5 70.3333,56.5 71,50.5C 71.3934,43.3355 74.8934,38.6688 81.5,36.5 Z"/></g>
<g><path style="opacity:1" fill="#3e3a39" d="M 517.5,38.5 C 526.585,37.9464 532.418,41.9464 535,50.5C 535.667,57.8333 535.667,65.1667 535,72.5C 528,114.166 521,155.832 514,197.5C 513.066,201.637 511.732,205.637 510,209.5C 506.522,213.662 502.356,214.496 497.5,212C 476.568,186.404 456.401,160.237 437,133.5C 436.174,128.411 436.508,123.411 438,118.5C 449.452,98.2943 463.785,80.2943 481,64.5C 481.346,62.1523 482.513,60.3189 484.5,59C 491.966,51.878 500.299,45.878 509.5,41C 512.31,40.2177 514.977,39.3844 517.5,38.5 Z"/></g>
<g><path style="opacity:1" fill="#7e7e7e" d="M 460.5,57.5 C 462.239,60.2427 464.573,62.2427 467.5,63.5C 459.47,71.2299 452.137,79.5632 445.5,88.5C 444.261,85.4111 442.761,82.4111 441,79.5C 440.329,78.7476 439.496,78.4142 438.5,78.5C 445.201,70.798 452.534,63.798 460.5,57.5 Z"/></g>
<g><path style="opacity:1" fill="#8c8c8c" d="M 529.5,12.5 C 541.521,14.3549 548.354,21.3549 550,33.5C 551.097,57.2961 549.764,80.9628 546,104.5C 540.512,142.761 535.678,181.094 531.5,219.5C 530.523,222.287 530.19,225.287 530.5,228.5C 521.195,228.756 512.195,227.256 503.5,224C 504.416,223.722 505.082,223.222 505.5,222.5C 510.816,221.693 514.983,219.026 518,214.5C 521.442,205.734 524.108,196.734 526,187.5C 527.123,175.093 528.79,162.759 531,150.5C 537.974,119.348 542.808,87.8485 545.5,56C 545.281,47.8348 542.614,40.6682 537.5,34.5C 535.87,26.9069 532.87,19.9069 528.5,13.5C 528.624,12.8933 528.957,12.56 529.5,12.5 Z"/></g>
<g><path style="opacity:1" fill="#969696" d="M 351.5,78.5 C 355.924,86.3473 360.091,94.3473 364,102.5C 370.984,114.486 381.15,122.319 394.5,126C 405.02,128.717 415.686,130.55 426.5,131.5C 427.17,134.673 428.336,137.673 430,140.5C 433.176,144.863 436.343,149.196 439.5,153.5C 425.339,154.661 411.006,154.827 396.5,154C 387.91,152.204 380.243,148.538 373.5,143C 359.982,127.91 343.982,116.243 325.5,108C 313.886,100.053 302.552,91.7194 291.5,83C 286.475,80.3911 281.475,77.8911 276.5,75.5C 285.289,74.383 294.123,73.7163 303,73.5C 319.253,74.3697 335.42,76.0363 351.5,78.5 Z"/></g>
<g><path style="opacity:1" fill="#808080" d="M 276.5,75.5 C 281.475,77.8911 286.475,80.3911 291.5,83C 302.552,91.7194 313.886,100.053 325.5,108C 343.982,116.243 359.982,127.91 373.5,143C 380.243,148.538 387.91,152.204 396.5,154C 411.006,154.827 425.339,154.661 439.5,153.5C 446.399,162.284 453.065,171.284 459.5,180.5C 447.662,180.907 435.995,179.74 424.5,177C 410.036,172.102 396.036,166.102 382.5,159C 372.027,155.572 361.36,152.905 350.5,151C 347.833,149.667 345.167,148.333 342.5,147C 332.5,135.667 322.5,124.333 312.5,113C 299.423,101.963 284.423,94.9626 267.5,92C 256.172,89.1127 246.672,91.946 239,100.5C 234.42,112.832 227.92,123.999 219.5,134C 214.333,137.833 209.167,141.667 204,145.5C 199.082,153 194.416,160.667 190,168.5C 187.167,171.333 184.333,174.167 181.5,177C 172.335,182.081 163.335,187.415 154.5,193C 149.212,196.232 144.378,200.065 140,204.5C 135.748,212.922 132.082,221.588 129,230.5C 122.71,244.637 111.877,251.637 96.5,251.5C 99.7983,247.002 103.798,243.169 108.5,240C 111.704,237.131 114.537,233.965 117,230.5C 119.068,224.129 121.235,217.796 123.5,211.5C 123.376,210.893 123.043,210.56 122.5,210.5C 130.814,198.858 139.481,187.525 148.5,176.5C 148.435,176.938 148.601,177.272 149,177.5C 161.185,171.412 172.518,164.079 183,155.5C 188.002,147.86 191.502,139.86 193.5,131.5C 188.247,134.807 182.58,137.141 176.5,138.5C 179.474,132.429 180.141,126.096 178.5,119.5C 179.423,120.303 180.423,120.47 181.5,120C 186.793,114.687 192.793,110.354 199.5,107C 208.26,104.941 216.926,102.608 225.5,100C 232.538,93.2929 239.872,86.9596 247.5,81C 246.207,80.51 244.873,80.3433 243.5,80.5C 254.242,78.0118 265.242,76.3452 276.5,75.5 Z"/></g>
<g><path style="opacity:1" fill="#959595" d="M 438.5,78.5 C 439.496,78.4142 440.329,78.7476 441,79.5C 442.761,82.4111 444.261,85.4111 445.5,88.5C 441.677,94.1379 437.843,99.8046 434,105.5C 430.991,110.514 428.824,115.848 427.5,121.5C 413.514,116.34 400.181,109.84 387.5,102C 380.459,96.6264 374.459,90.293 369.5,83C 370.448,82.5172 371.448,82.3505 372.5,82.5C 385.172,85.4173 398.005,87.4173 411,88.5C 421.565,88.8134 430.732,85.4801 438.5,78.5 Z"/></g>
<g><path style="opacity:1" fill="#808080" d="M 351.5,78.5 C 358.706,79.3423 365.706,80.6756 372.5,82.5C 371.448,82.3505 370.448,82.5172 369.5,83C 374.459,90.293 380.459,96.6264 387.5,102C 400.181,109.84 413.514,116.34 427.5,121.5C 426.793,124.786 426.46,128.119 426.5,131.5C 415.686,130.55 405.02,128.717 394.5,126C 381.15,122.319 370.984,114.486 364,102.5C 360.091,94.3473 355.924,86.3473 351.5,78.5 Z"/></g>
<g><path style="opacity:1" fill="#959595" d="M 243.5,80.5 C 244.873,80.3433 246.207,80.51 247.5,81C 239.872,86.9596 232.538,93.2929 225.5,100C 216.926,102.608 208.26,104.941 199.5,107C 192.793,110.354 186.793,114.687 181.5,120C 180.423,120.47 179.423,120.303 178.5,119.5C 178.186,116.053 177.352,112.72 176,109.5C 173.306,106.108 171.14,102.441 169.5,98.5C 179.695,95.7684 189.695,92.4351 199.5,88.5C 214.157,85.8366 228.823,83.1699 243.5,80.5 Z"/></g>
<g><path style="opacity:1" fill="#969696" d="M 459.5,180.5 C 468.868,190.877 477.534,201.877 485.5,213.5C 485.265,214.097 484.765,214.43 484,214.5C 473.328,209.749 462.161,208.249 450.5,210C 439.32,212.593 428.32,215.76 417.5,219.5C 392.747,202.843 366.414,199.676 338.5,210C 328.841,214.828 319.508,220.161 310.5,226C 304.665,229.372 298.998,229.039 293.5,225C 285.263,219.382 276.596,214.549 267.5,210.5C 275.021,209.711 282.688,208.877 290.5,208C 312.771,202.106 335.438,199.106 358.5,199C 363.932,198.079 369.265,196.745 374.5,195C 380.833,194.333 387.167,194.333 393.5,195C 400.783,197.523 408.283,199.023 416,199.5C 419.258,199.507 422.425,199.007 425.5,198C 410.383,193.943 396.049,187.943 382.5,180C 373.171,175.516 363.505,174.516 353.5,177C 341.495,181.168 329.829,186.168 318.5,192C 301.163,198.181 283.496,199.181 265.5,195C 249.243,192.566 234.576,196.066 221.5,205.5C 213.54,207.375 205.873,210.042 198.5,213.5C 200.339,205.503 203.172,197.503 207,189.5C 215.464,179.505 225.964,172.339 238.5,168C 249.271,165.99 259.938,163.657 270.5,161C 276.672,158.814 281.672,155.147 285.5,150C 265.858,151.028 246.191,152.361 226.5,154C 220.622,155.525 215.789,158.692 212,163.5C 203.583,177.336 194.916,191.002 186,204.5C 170.592,218.738 157.092,234.404 145.5,251.5C 136.953,258.194 127.953,264.361 118.5,270C 104.323,277.589 89.9896,284.922 75.5,292C 70.7372,294.798 66.2372,297.964 62,301.5C 61.3333,299.5 61.3333,297.5 62,295.5C 66.8083,274.938 70.975,254.271 74.5,233.5C 80.1381,228.35 86.1381,223.683 92.5,219.5C 105.107,224.787 115.107,221.787 122.5,210.5C 123.043,210.56 123.376,210.893 123.5,211.5C 121.235,217.796 119.068,224.129 117,230.5C 114.537,233.965 111.704,237.131 108.5,240C 103.798,243.169 99.7983,247.002 96.5,251.5C 111.877,251.637 122.71,244.637 129,230.5C 132.082,221.588 135.748,212.922 140,204.5C 144.378,200.065 149.212,196.232 154.5,193C 163.335,187.415 172.335,182.081 181.5,177C 184.333,174.167 187.167,171.333 190,168.5C 194.416,160.667 199.082,153 204,145.5C 209.167,141.667 214.333,137.833 219.5,134C 227.92,123.999 234.42,112.832 239,100.5C 246.672,91.946 256.172,89.1127 267.5,92C 284.423,94.9626 299.423,101.963 312.5,113C 322.5,124.333 332.5,135.667 342.5,147C 345.167,148.333 347.833,149.667 350.5,151C 361.36,152.905 372.027,155.572 382.5,159C 396.036,166.102 410.036,172.102 424.5,177C 435.995,179.74 447.662,180.907 459.5,180.5 Z"/></g>
<g><path style="opacity:1" fill="#8d8d8d" d="M 199.5,88.5 C 189.695,92.4351 179.695,95.7684 169.5,98.5C 161.149,88.9732 153.316,78.9732 146,68.5C 139.524,62.3552 133.357,55.8552 127.5,49C 123.131,46.1432 119.131,42.8099 115.5,39C 108.558,33.6949 100.891,29.6949 92.5,27C 79.0403,24.591 69.207,29.4243 63,41.5C 61.0916,58.1928 61.425,74.8595 64,91.5C 68.3661,111.031 71.8661,130.698 74.5,150.5C 72.3993,154.61 70.566,158.944 69,163.5C 68.6174,162.944 68.1174,162.611 67.5,162.5C 64.2977,138.181 61.131,113.848 58,89.5C 55.754,70.5549 55.0873,51.5549 56,32.5C 59.2268,17.5976 68.3934,10.7643 83.5,12C 93.9388,14.5527 103.272,19.2194 111.5,26C 118.167,31.6667 124.833,37.3333 131.5,43C 144.529,56.3628 157.862,69.3628 171.5,82C 180.056,87.412 189.39,89.5786 199.5,88.5 Z"/></g>
<g><path style="opacity:1" fill="#949494" d="M 148.5,176.5 C 157.348,163.469 166.681,150.802 176.5,138.5C 182.58,137.141 188.247,134.807 193.5,131.5C 191.502,139.86 188.002,147.86 183,155.5C 172.518,164.079 161.185,171.412 149,177.5C 148.601,177.272 148.435,176.938 148.5,176.5 Z"/></g>
<g><path style="opacity:1" fill="#818181" d="M 198.5,213.5 C 189.224,218.811 180.224,224.644 171.5,231C 162.985,238.083 154.318,244.916 145.5,251.5C 157.092,234.404 170.592,218.738 186,204.5C 194.916,191.002 203.583,177.336 212,163.5C 215.789,158.692 220.622,155.525 226.5,154C 246.191,152.361 265.858,151.028 285.5,150C 281.672,155.147 276.672,158.814 270.5,161C 259.938,163.657 249.271,165.99 238.5,168C 225.964,172.339 215.464,179.505 207,189.5C 203.172,197.503 200.339,205.503 198.5,213.5 Z"/></g>
<g><path style="opacity:1" fill="#7b7b7b" d="M 74.5,150.5 C 76.1289,155.591 77.1289,160.924 77.5,166.5C 75.5555,171.999 73.2222,177.332 70.5,182.5C 69.2178,176.005 68.2178,169.339 67.5,162.5C 68.1174,162.611 68.6174,162.944 69,163.5C 70.566,158.944 72.3993,154.61 74.5,150.5 Z"/></g>
<g><path style="opacity:1" fill="#919191" d="M 77.5,166.5 C 80.0351,179.38 82.0351,192.38 83.5,205.5C 81.2343,209.436 78.2343,212.769 74.5,215.5C 72.8434,204.556 71.5101,193.556 70.5,182.5C 73.2222,177.332 75.5555,171.999 77.5,166.5 Z"/></g>
<g><path style="opacity:1" fill="#818181" d="M 267.5,210.5 C 252.653,204.227 237.32,202.561 221.5,205.5C 234.576,196.066 249.243,192.566 265.5,195C 283.496,199.181 301.163,198.181 318.5,192C 329.829,186.168 341.495,181.168 353.5,177C 363.505,174.516 373.171,175.516 382.5,180C 396.049,187.943 410.383,193.943 425.5,198C 422.425,199.007 419.258,199.507 416,199.5C 408.283,199.023 400.783,197.523 393.5,195C 387.167,194.333 380.833,194.333 374.5,195C 369.265,196.745 363.932,198.079 358.5,199C 335.438,199.106 312.771,202.106 290.5,208C 282.688,208.877 275.021,209.711 267.5,210.5 Z"/></g>
<g><path style="opacity:1" fill="#7f7f7f" d="M 83.5,205.5 C 85.504,210.85 88.504,215.516 92.5,219.5C 86.1381,223.683 80.1381,228.35 74.5,233.5C 74.5,227.5 74.5,221.5 74.5,215.5C 78.2343,212.769 81.2343,209.436 83.5,205.5 Z"/></g>
<g><path style="opacity:1" fill="#808080" d="M 485.5,213.5 C 490.538,219.963 497.204,222.963 505.5,222.5C 505.082,223.222 504.416,223.722 503.5,224C 512.195,227.256 521.195,228.756 530.5,228.5C 530.19,225.287 530.523,222.287 531.5,219.5C 531.5,223.833 531.5,228.167 531.5,232.5C 517.414,235.421 503.414,234.921 489.5,231C 482.281,227.813 474.948,224.813 467.5,222C 453.986,219.079 440.986,220.579 428.5,226.5C 424.561,224.554 420.894,222.221 417.5,219.5C 428.32,215.76 439.32,212.593 450.5,210C 462.161,208.249 473.328,209.749 484,214.5C 484.765,214.43 485.265,214.097 485.5,213.5 Z"/></g>
<g><path style="opacity:1" fill="#888888" d="M 239.5,214.5 C 232.387,214.845 225.387,215.845 218.5,217.5C 219.681,215.933 221.347,215.099 223.5,215C 227.676,214.573 231.842,214.073 236,213.5C 237.385,213.514 238.551,213.848 239.5,214.5 Z"/></g>
<g><path style="opacity:1" fill="#9a9a9a" d="M 382.5,215.5 C 371.09,214.44 359.757,215.107 348.5,217.5C 359.688,213.646 371.021,212.98 382.5,215.5 Z"/></g>
<g><path style="opacity:1" fill="#f5f5f5" d="M 239.5,214.5 C 244.434,214.229 249.1,214.896 253.5,216.5C 256.215,218.072 259.215,219.072 262.5,219.5C 264.849,221.341 267.515,222.674 270.5,223.5C 272.153,223.66 273.486,224.326 274.5,225.5C 276.629,227.95 279.296,229.617 282.5,230.5C 284.674,230.75 286.341,231.75 287.5,233.5C 288.911,235.539 290.911,236.539 293.5,236.5C 298.664,239.98 303.997,240.314 309.5,237.5C 316.794,233.518 324.127,229.518 331.5,225.5C 334.331,224.921 336.664,223.588 338.5,221.5C 341.479,220.683 344.479,219.849 347.5,219C 348.056,218.617 348.389,218.117 348.5,217.5C 359.757,215.107 371.09,214.44 382.5,215.5C 386.041,216.08 389.374,217.08 392.5,218.5C 394.426,220.293 396.759,221.293 399.5,221.5C 402.008,223.924 405.008,225.59 408.5,226.5C 412.516,230.338 417.183,233.171 422.5,235C 426.025,237.698 429.358,240.531 432.5,243.5C 433.585,245.587 435.251,246.92 437.5,247.5C 438.262,249.262 439.596,250.262 441.5,250.5C 442.585,252.587 444.251,253.92 446.5,254.5C 447.262,256.262 448.596,257.262 450.5,257.5C 452.443,260.471 455.109,262.471 458.5,263.5C 460.296,265.9 462.63,267.567 465.5,268.5C 467.027,268.427 468.027,269.094 468.5,270.5C 468.973,271.906 469.973,272.573 471.5,272.5C 474.511,273.669 477.178,275.336 479.5,277.5C 482.008,279.924 485.008,281.59 488.5,282.5C 495.477,285.322 502.143,288.655 508.5,292.5C 512.347,295.593 516.68,297.926 521.5,299.5C 526.855,301.506 531.521,304.506 535.5,308.5C 539.195,312.526 542.862,316.526 546.5,320.5C 547.756,323.767 548.923,327.101 550,330.5C 553.331,395.115 533.998,451.782 492,500.5C 446.858,552.223 390.025,582.39 321.5,591C 241.767,593.534 174.934,565.701 121,507.5C 98.8745,482.933 81.5412,455.267 69,424.5C 56.3789,390.953 52.8789,356.62 58.5,321.5C 60.8777,319.122 62.8777,316.455 64.5,313.5C 67.4474,312.219 69.7807,310.219 71.5,307.5C 73.8525,306.66 75.8525,305.326 77.5,303.5C 79.0269,303.573 80.0269,302.906 80.5,301.5C 83.3311,300.921 85.6644,299.588 87.5,297.5C 93.1511,295.341 98.4844,292.674 103.5,289.5C 110.315,286.927 116.649,283.594 122.5,279.5C 130.641,276.01 137.975,271.343 144.5,265.5C 147.37,264.567 149.704,262.9 151.5,260.5C 155.051,258.889 158.051,256.556 160.5,253.5C 164.051,251.889 167.051,249.556 169.5,246.5C 174.409,243.926 178.742,240.592 182.5,236.5C 185.37,235.567 187.704,233.9 189.5,231.5C 189.973,230.094 190.973,229.427 192.5,229.5C 196.173,228 199.506,226 202.5,223.5C 203.429,222.685 204.429,221.852 205.5,221C 209.943,220.128 214.276,218.962 218.5,217.5C 225.387,215.845 232.387,214.845 239.5,214.5 Z"/></g>
<g><path style="opacity:1" fill="#7a7a7a" d="M 253.5,216.5 C 256.916,216.528 259.916,217.528 262.5,219.5C 259.215,219.072 256.215,218.072 253.5,216.5 Z"/></g>
<g><path style="opacity:1" fill="#858585" d="M 348.5,217.5 C 348.389,218.117 348.056,218.617 347.5,219C 344.479,219.849 341.479,220.683 338.5,221.5C 341.37,219.206 344.703,217.872 348.5,217.5 Z"/></g>
<g><path style="opacity:1" fill="#7a7a7a" d="M 392.5,218.5 C 395.241,218.707 397.574,219.707 399.5,221.5C 396.759,221.293 394.426,220.293 392.5,218.5 Z"/></g>
<g><path style="opacity:1" fill="#969696" d="M 531.5,232.5 C 531.5,234.167 531.5,235.833 531.5,237.5C 531.756,239.792 531.423,241.959 530.5,244C 521.167,250.503 510.834,252.836 499.5,251C 483.586,248.036 467.586,245.869 451.5,244.5C 443.613,238.73 435.946,232.73 428.5,226.5C 440.986,220.579 453.986,219.079 467.5,222C 474.948,224.813 482.281,227.813 489.5,231C 503.414,234.921 517.414,235.421 531.5,232.5 Z"/></g>
<g><path style="opacity:1" fill="#777777" d="M 262.5,219.5 C 265.754,219.794 268.421,221.127 270.5,223.5C 267.515,222.674 264.849,221.341 262.5,219.5 Z"/></g>
<g><path style="opacity:1" fill="#7a7a7a" d="M 338.5,221.5 C 336.664,223.588 334.331,224.921 331.5,225.5C 333.336,223.412 335.669,222.079 338.5,221.5 Z"/></g>
<g><path style="opacity:1" fill="#747474" d="M 399.5,221.5 C 402.992,222.41 405.992,224.076 408.5,226.5C 405.008,225.59 402.008,223.924 399.5,221.5 Z"/></g>
<g><path style="opacity:1" fill="#7c7c7c" d="M 202.5,223.5 C 199.506,226 196.173,228 192.5,229.5C 195.161,226.498 198.495,224.498 202.5,223.5 Z"/></g>
<g><path style="opacity:1" fill="#7b7b7b" d="M 274.5,225.5 C 277.704,226.383 280.371,228.05 282.5,230.5C 279.296,229.617 276.629,227.95 274.5,225.5 Z"/></g>
<g><path style="opacity:1" fill="#7e7e7e" d="M 189.5,231.5 C 187.704,233.9 185.37,235.567 182.5,236.5C 184.296,234.1 186.63,232.433 189.5,231.5 Z"/></g>
<g><path style="opacity:1" fill="#7d7d7d" d="M 287.5,233.5 C 289.819,233.992 291.819,234.992 293.5,236.5C 290.911,236.539 288.911,235.539 287.5,233.5 Z"/></g>
<g><path style="opacity:1" fill="#9c9c9c" d="M 293.5,236.5 C 296.67,237.084 299.837,237.75 303,238.5C 305.137,237.923 307.304,237.59 309.5,237.5C 303.997,240.314 298.664,239.98 293.5,236.5 Z"/></g>
<g><path style="opacity:1" fill="#808080" d="M 531.5,237.5 C 532.601,243.018 533.601,248.685 534.5,254.5C 533.732,253.737 533.232,252.737 533,251.5C 516.714,261.885 499.548,263.385 481.5,256C 476.511,255.501 471.511,255.334 466.5,255.5C 461.214,252.212 456.214,248.546 451.5,244.5C 467.586,245.869 483.586,248.036 499.5,251C 510.834,252.836 521.167,250.503 530.5,244C 531.423,241.959 531.756,239.792 531.5,237.5 Z"/></g>
<g><path style="opacity:1" fill="#7a7a7a" d="M 182.5,236.5 C 178.742,240.592 174.409,243.926 169.5,246.5C 173.258,242.408 177.591,239.074 182.5,236.5 Z"/></g>
<g><path style="opacity:1" fill="#747474" d="M 432.5,243.5 C 434.749,244.08 436.415,245.413 437.5,247.5C 435.251,246.92 433.585,245.587 432.5,243.5 Z"/></g>
<g><path style="opacity:1" fill="#808080" d="M 169.5,246.5 C 167.051,249.556 164.051,251.889 160.5,253.5C 162.949,250.444 165.949,248.111 169.5,246.5 Z"/></g>
<g><path style="opacity:1" fill="#606060" d="M 441.5,250.5 C 443.749,251.08 445.415,252.413 446.5,254.5C 444.251,253.92 442.585,252.587 441.5,250.5 Z"/></g>
<g><path style="opacity:1" fill="#939393" d="M 534.5,254.5 C 538.531,269.13 541.865,283.963 544.5,299C 544.167,299.833 543.833,300.667 543.5,301.5C 538.179,297.172 532.512,293.338 526.5,290C 512.677,283.255 499.01,276.255 485.5,269C 478.748,264.969 472.415,260.469 466.5,255.5C 471.511,255.334 476.511,255.501 481.5,256C 499.548,263.385 516.714,261.885 533,251.5C 533.232,252.737 533.732,253.737 534.5,254.5 Z"/></g>
<g><path style="opacity:1" fill="#757575" d="M 160.5,253.5 C 158.051,256.556 155.051,258.889 151.5,260.5C 153.949,257.444 156.949,255.111 160.5,253.5 Z"/></g>
<g><path style="opacity:1" fill="#797979" d="M 450.5,257.5 C 453.533,259.016 456.2,261.016 458.5,263.5C 455.109,262.471 452.443,260.471 450.5,257.5 Z"/></g>
<g><path style="opacity:1" fill="#686868" d="M 151.5,260.5 C 149.704,262.9 147.37,264.567 144.5,265.5C 146.296,263.1 148.63,261.433 151.5,260.5 Z"/></g>
<g><path style="opacity:1" fill="#7a7a7a" d="M 458.5,263.5 C 461.37,264.433 463.704,266.1 465.5,268.5C 462.63,267.567 460.296,265.9 458.5,263.5 Z"/></g>
<g><path style="opacity:1" fill="#747474" d="M 468.5,270.5 C 470.027,270.427 471.027,271.094 471.5,272.5C 469.973,272.573 468.973,271.906 468.5,270.5 Z"/></g>
<g><path style="opacity:1" fill="#020202" d="M 213.5,274.5 C 232.306,273.155 245.472,281.155 253,298.5C 255.419,303.592 256.419,308.925 256,314.5C 245.471,317.67 234.638,320.003 223.5,321.5C 212.905,320.701 203.572,316.868 195.5,310C 191.333,305.833 187.167,301.667 183,297.5C 182.365,295.365 182.699,293.365 184,291.5C 192.337,283.086 202.17,277.42 213.5,274.5 Z"/></g>
<g><path style="opacity:1" fill="#030303" d="M 377.5,274.5 C 395.58,273.291 410.413,279.625 422,293.5C 422.667,294.833 422.667,296.167 422,297.5C 416.096,304.074 409.596,309.908 402.5,315C 393.826,320.169 384.492,322.169 374.5,321C 366.149,319.045 357.816,317.211 349.5,315.5C 349.176,300.314 355.176,288.148 367.5,279C 370.815,277.17 374.149,275.67 377.5,274.5 Z"/></g>
<g><path style="opacity:1" fill="#777777" d="M 479.5,277.5 C 482.992,278.41 485.992,280.076 488.5,282.5C 485.008,281.59 482.008,279.924 479.5,277.5 Z"/></g>
<g><path style="opacity:1" fill="#5f5f5f" d="M 122.5,279.5 C 116.649,283.594 110.315,286.927 103.5,289.5C 109.351,285.406 115.685,282.073 122.5,279.5 Z"/></g>
<g><path style="opacity:1" fill="#ebe1d6" d="M 229.5,292.5 C 237.543,292.003 239.21,294.836 234.5,301C 227.998,301 226.332,298.166 229.5,292.5 Z"/></g>
<g><path style="opacity:1" fill="#eee5d9" d="M 369.5,292.5 C 376.486,292.331 378.153,295.164 374.5,301C 367.416,301.475 365.749,298.642 369.5,292.5 Z"/></g>
<g><path style="opacity:1" fill="#7a7a7a" d="M 508.5,292.5 C 513.32,294.074 517.653,296.407 521.5,299.5C 516.68,297.926 512.347,295.593 508.5,292.5 Z"/></g>
<g><path style="opacity:1" fill="#5e5e5e" d="M 87.5,297.5 C 85.6644,299.588 83.3311,300.921 80.5,301.5C 82.3356,299.412 84.6689,298.079 87.5,297.5 Z"/></g>
<g><path style="opacity:1" fill="#666666" d="M 77.5,303.5 C 75.8525,305.326 73.8525,306.66 71.5,307.5C 72.8021,305.178 74.8021,303.845 77.5,303.5 Z"/></g>
<g><path style="opacity:1" fill="#6a6a6a" d="M 535.5,308.5 C 540.556,311.223 544.223,315.223 546.5,320.5C 542.862,316.526 539.195,312.526 535.5,308.5 Z"/></g>
<g><path style="opacity:1" fill="#8c8c8c" d="M 71.5,307.5 C 69.7807,310.219 67.4474,312.219 64.5,313.5C 66.1935,310.81 68.5268,308.81 71.5,307.5 Z"/></g>
<g><path style="opacity:1" fill="#7c7c7c" d="M 64.5,313.5 C 62.8777,316.455 60.8777,319.122 58.5,321.5C 59.3528,317.98 61.3528,315.313 64.5,313.5 Z"/></g>
<g><path style="opacity:1" fill="#000000" d="M 286.5,355.5 C 299.875,355.143 313.208,355.643 326.5,357C 355.533,363.566 364.699,380.732 354,408.5C 339.314,428.592 319.481,438.092 294.5,437C 279.026,433.514 265.859,426.014 255,414.5C 246.131,402.603 244.131,389.603 249,375.5C 254.881,366.628 263.048,360.794 273.5,358C 277.965,357.126 282.298,356.293 286.5,355.5 Z"/></g>
<g><path style="opacity:1" fill="#040202" d="M 244.5,467.5 C 264.291,463.594 284.124,459.927 304,456.5C 322.909,459.769 341.742,463.436 360.5,467.5C 381.771,469.801 399.605,463.135 414,447.5C 419.667,439.833 425.333,432.167 431,424.5C 437.675,415.124 445.342,414.124 454,421.5C 456.087,426.32 455.754,430.987 453,435.5C 434.773,466.398 410.939,492.232 381.5,513C 372.833,521.667 364.167,530.333 355.5,539C 330.599,559.317 302.932,563.984 272.5,553C 264.631,549.123 257.298,544.456 250.5,539C 241.833,530.333 233.167,521.667 224.5,513C 193.408,491.272 168.908,463.772 151,430.5C 150.49,419.684 155.656,415.184 166.5,417C 169.63,419.128 172.463,421.628 175,424.5C 181,432.5 187,440.5 193,448.5C 206.99,463.221 224.156,469.554 244.5,467.5 Z"/></g>
<g><path style="opacity:1" fill="#b5848e" d="M 360.5,467.5 C 341.742,463.436 322.909,459.769 304,456.5C 284.124,459.927 264.291,463.594 244.5,467.5C 257.705,464.367 271.038,461.2 284.5,458C 297.171,454.71 309.838,454.71 322.5,458C 335.365,460.999 348.032,464.166 360.5,467.5 Z"/></g>
<g><path style="opacity:1" fill="#da8b9c" d="M 297.5,466.5 C 305.574,466.568 313.574,467.401 321.5,469C 333.734,472.341 346.067,475.175 358.5,477.5C 358.182,498.611 352.349,517.945 341,535.5C 332.803,542.512 323.303,546.679 312.5,548C 294.448,550.926 278.281,546.759 264,535.5C 258.386,527.603 254.386,518.937 252,509.5C 249.673,499.038 247.84,488.538 246.5,478C 263.642,474.208 280.642,470.375 297.5,466.5 Z"/></g>
</svg>
