<?xml version="1.0" encoding="UTF-8"?>
<!DOCTYPE svg PUBLIC "-//W3C//DTD SVG 1.1//EN" "http://www.w3.org/Graphics/SVG/1.1/DTD/svg11.dtd">
<svg xmlns="http://www.w3.org/2000/svg" version="1.1" width="600px" height="600px" style="shape-rendering:geometricPrecision; text-rendering:geometricPrecision; image-rendering:optimizeQuality; fill-rule:evenodd; clip-rule:evenodd" xmlns:xlink="http://www.w3.org/1999/xlink">
<g><path style="opacity:0.945" fill="#020202" d="M 599.5,155.5 C 599.5,169.833 599.5,184.167 599.5,198.5C 593.81,202.358 588.144,202.191 582.5,198C 575.323,191.989 568.656,185.489 562.5,178.5C 550.498,180.89 538.831,184.39 527.5,189C 515.734,195.771 504.234,202.937 493,210.5C 492.163,225.195 490.996,239.862 489.5,254.5C 491.931,272.495 494.431,290.495 497,308.5C 499.336,344.817 493.669,379.817 480,413.5C 469.87,437.783 454.87,458.45 435,475.5C 435.818,481.61 436.652,487.777 437.5,494C 436.348,510.637 427.682,520.971 411.5,525C 395.43,528.566 381.097,525.066 368.5,514.5C 356.681,518.145 344.681,518.978 332.5,517C 320.595,514.365 309.095,510.532 298,505.5C 289.889,508.805 281.722,511.972 273.5,515C 266.921,516.656 260.254,517.823 253.5,518.5C 246.049,517.81 238.716,516.477 231.5,514.5C 220.082,523.47 207.082,527.304 192.5,526C 173.934,521.933 163.601,510.433 161.5,491.5C 162.394,486.185 163.728,481.018 165.5,476C 134.183,447.883 114.349,413.049 106,371.5C 100.741,348.723 99.4073,325.723 102,302.5C 104.502,286.823 107.002,271.156 109.5,255.5C 107.833,240.164 106.167,224.831 104.5,209.5C 93.898,202.073 82.898,195.239 71.5,189C 60.286,184.484 48.786,180.984 37,178.5C 30.1362,185.698 22.9695,192.532 15.5,199C 10.2508,202.147 4.91746,202.314 -0.5,199.5C -0.5,184.833 -0.5,170.167 -0.5,155.5C 4.83711,146.321 11.8371,138.488 20.5,132C 49.1723,110.823 80.1723,93.4892 113.5,80C 133.472,71.2988 153.805,69.9655 174.5,76C 184.972,80.6547 195.472,85.1547 206,89.5C 237.073,83.2146 268.24,82.8812 299.5,88.5C 323.737,84.5282 348.07,83.6949 372.5,86C 379.996,87.2072 387.329,89.0406 394.5,91.5C 409.002,81.4984 425.002,75.3317 442.5,73C 461.365,72.8817 479.365,76.8817 496.5,85C 530.053,99.6788 560.887,118.512 589,141.5C 592.363,146.35 595.863,151.017 599.5,155.5 Z"/></g>
<g><path style="opacity:1" fill="#985925" d="M 227.5,96.5 C 235.435,102.59 243.268,108.923 251,115.5C 259.13,124.651 264.13,135.317 266,147.5C 266.628,158.848 266.461,170.181 265.5,181.5C 264.291,185.618 263.624,189.951 263.5,194.5C 255.774,223.271 253.44,252.605 256.5,282.5C 245.151,287.666 235.318,294.999 227,304.5C 213.118,323.442 203.452,344.442 198,367.5C 192.487,393.732 187.487,420.066 183,446.5C 181.431,454.787 179.264,462.787 176.5,470.5C 153.79,452.929 137.29,430.596 127,403.5C 114.021,370.982 109.355,337.315 113,302.5C 115.502,286.823 118.002,271.156 120.5,255.5C 118.961,242.022 117.628,228.522 116.5,215C 116.808,210.824 117.142,206.658 117.5,202.5C 125.049,167.798 143.216,140.132 172,119.5C 175.225,112.684 173.392,107.851 166.5,105C 151.655,101.275 136.989,101.942 122.5,107C 87.6723,119.734 58.0056,139.901 33.5,167.5C 26.0351,174.464 18.7018,181.631 11.5,189C 4.97026,191.33 1.97026,188.83 2.5,181.5C 4.31532,167.525 10.3153,155.692 20.5,146C 54.4747,119.174 92.1414,98.8403 133.5,85C 145.831,82.1762 158.165,82.5096 170.5,86C 181.177,90.6724 191.843,95.339 202.5,100C 210.917,99.6491 219.25,98.4824 227.5,96.5 Z"/></g>
<g><path style="opacity:1" fill="#e9e7e4" d="M 565.5,167.5 C 536.638,135.56 501.304,114.06 459.5,103C 445.999,100.699 433.666,103.365 422.5,111C 420.671,112.113 419.837,113.613 420,115.5C 452.81,135.808 473.31,164.808 481.5,202.5C 482.628,209.42 482.795,216.42 482,223.5C 480.739,233.327 479.572,243.161 478.5,253C 480.738,268.861 483.238,284.694 486,300.5C 490.633,345.415 482.299,387.748 461,427.5C 451.207,444.628 438.54,459.295 423,471.5C 423.365,474.794 423.865,478.127 424.5,481.5C 418.707,459.031 414.207,436.031 411,412.5C 406.653,393.112 401.986,373.778 397,354.5C 392.471,343.914 388.138,333.247 384,322.5C 368.378,293.542 344.211,277.375 311.5,274C 296.251,272.593 281.251,273.927 266.5,278C 262.977,279.224 259.644,280.724 256.5,282.5C 253.44,252.605 255.774,223.271 263.5,194.5C 270.98,199.828 276.48,206.828 280,215.5C 281.802,220.375 283.135,225.375 284,230.5C 284.953,232.592 286.286,232.925 288,231.5C 287.518,213.376 280.185,198.709 266,187.5C 265.505,185.527 265.338,183.527 265.5,181.5C 266.461,170.181 266.628,158.848 266,147.5C 264.13,135.317 259.13,124.651 251,115.5C 243.268,108.923 235.435,102.59 227.5,96.5C 234.783,95.3647 242.116,94.6981 249.5,94.5C 266.514,95.6678 283.514,97.0011 300.5,98.5C 315.476,97.0253 330.476,95.692 345.5,94.5C 362.618,94.4689 379.285,97.1356 395.5,102.5C 405.906,95.9637 416.906,90.4637 428.5,86C 447.385,81.5943 465.718,83.2609 483.5,91C 515.175,104.331 544.841,120.998 572.5,141C 583.932,150.025 591.765,161.525 596,175.5C 596.667,179.167 596.667,182.833 596,186.5C 594.184,190.663 591.351,191.497 587.5,189C 580.298,181.631 572.965,174.464 565.5,167.5 Z"/></g>
<g><path style="opacity:1" fill="#e2d2d5" d="M 117.5,202.5 C 112.546,201.527 107.879,199.694 103.5,197C 82.9836,180.656 59.6503,170.823 33.5,167.5C 58.0056,139.901 87.6723,119.734 122.5,107C 136.989,101.942 151.655,101.275 166.5,105C 173.392,107.851 175.225,112.684 172,119.5C 143.216,140.132 125.049,167.798 117.5,202.5 Z"/></g>
<g><path style="opacity:1" fill="#e2d2d5" d="M 565.5,167.5 C 538.024,170.929 513.691,181.429 492.5,199C 488.991,200.759 485.325,201.926 481.5,202.5C 473.31,164.808 452.81,135.808 420,115.5C 419.837,113.613 420.671,112.113 422.5,111C 433.666,103.365 445.999,100.699 459.5,103C 501.304,114.06 536.638,135.56 565.5,167.5 Z"/></g>
<g><path style="opacity:1" fill="#c6c4c1" d="M 267.5,130.5 C 271.841,131.431 275.341,133.764 278,137.5C 287.47,151.694 292.803,167.36 294,184.5C 295.431,193.459 295.765,202.459 295,211.5C 294.29,212.973 293.124,213.64 291.5,213.5C 290.943,196.87 288.443,180.537 284,164.5C 280.612,154.138 274.612,145.804 266,139.5C 265.207,136.259 265.707,133.259 267.5,130.5 Z"/></g>
<g><path style="opacity:1" fill="#c6c4c1" d="M 328.5,130.5 C 329.822,130.33 330.989,130.663 332,131.5C 333.422,134.03 333.755,136.697 333,139.5C 323.727,146.673 317.394,156.006 314,167.5C 310.411,182.64 308.244,197.973 307.5,213.5C 306.5,213.5 305.5,213.5 304.5,213.5C 302.307,189.018 306.473,165.685 317,143.5C 319.984,138.353 323.818,134.02 328.5,130.5 Z"/></g>
<g><path style="opacity:1" fill="#c6c4c1" d="M 340.5,183.5 C 346.067,182.753 347.9,185.087 346,190.5C 332.573,193.923 323.573,202.256 319,215.5C 317.187,220.755 315.687,226.088 314.5,231.5C 311.594,232.946 310.261,231.946 310.5,228.5C 312.71,213.58 319.044,200.747 329.5,190C 333.23,187.807 336.897,185.64 340.5,183.5 Z"/></g>
<g><path style="opacity:1" fill="#c5c3c0" d="M 265.5,181.5 C 265.338,183.527 265.505,185.527 266,187.5C 280.185,198.709 287.518,213.376 288,231.5C 286.286,232.925 284.953,232.592 284,230.5C 283.135,225.375 281.802,220.375 280,215.5C 276.48,206.828 270.98,199.828 263.5,194.5C 263.624,189.951 264.291,185.618 265.5,181.5 Z"/></g>
<g><path style="opacity:1" fill="#070706" d="M 197.5,245.5 C 202.844,245.334 208.177,245.501 213.5,246C 218.754,247.086 221.754,250.253 222.5,255.5C 221.318,267.183 214.985,274.35 203.5,277C 193.871,278.968 185.371,276.801 178,270.5C 172.073,263.999 172.24,257.832 178.5,252C 184.595,248.764 190.928,246.597 197.5,245.5 Z"/></g>
<g><path style="opacity:1" fill="#070808" d="M 385.5,245.5 C 396.976,244.562 407.976,246.396 418.5,251C 426.388,255.397 427.555,261.23 422,268.5C 414.821,276.175 405.988,279.009 395.5,277C 381.914,273.763 375.747,265.263 377,251.5C 379.322,248.605 382.155,246.605 385.5,245.5 Z"/></g>
<g><path style="opacity:1" fill="#ededed" d="M 205.5,247.5 C 211.82,247.32 214.32,250.32 213,256.5C 208.837,260.747 205.171,260.414 202,255.5C 201.279,251.946 202.446,249.28 205.5,247.5 Z"/></g>
<g><path style="opacity:1" fill="#eeeeee" d="M 392.5,247.5 C 398.82,247.32 401.32,250.32 400,256.5C 395.927,260.619 392.26,260.285 389,255.5C 388.279,251.946 389.446,249.28 392.5,247.5 Z"/></g>
<g><path style="opacity:1" fill="#f0e8ec" d="M 424.5,481.5 C 427.254,489.105 427.087,496.772 424,504.5C 422.383,506.763 420.55,508.763 418.5,510.5C 418.53,509.503 418.03,508.836 417,508.5C 407.473,512.437 397.973,512.437 388.5,508.5C 385.516,505.015 382.349,501.682 379,498.5C 376.623,494.71 374.623,490.71 373,486.5C 368.708,466.29 362.042,446.957 353,428.5C 350.636,425.31 348.136,422.31 345.5,419.5C 344.415,417.413 342.749,416.08 340.5,415.5C 331.069,410.612 322.069,404.946 313.5,398.5C 307.59,392.845 303.923,386.012 302.5,378C 302.833,376.833 303.167,375.667 303.5,374.5C 311.141,378.107 319.141,379.94 327.5,380C 350.347,367.79 356.181,349.957 345,326.5C 336.849,315.503 326.015,308.67 312.5,306C 288.906,301.53 269.406,308.363 254,326.5C 243.826,345.963 247.326,362.463 264.5,376C 267.826,377.913 271.326,379.413 275,380.5C 282.104,378.186 289.271,376.186 296.5,374.5C 297.021,381.771 294.854,388.104 290,393.5C 280.955,401.944 270.788,408.777 259.5,414C 249.243,422.28 242.077,432.78 238,445.5C 233.845,459.121 229.845,472.788 226,486.5C 217.169,509.501 201.335,516.501 178.5,507.5C 174.264,502.707 172.264,497.04 172.5,490.5C 173.629,483.784 174.962,477.117 176.5,470.5C 179.264,462.787 181.431,454.787 183,446.5C 187.487,420.066 192.487,393.732 198,367.5C 203.452,344.442 213.118,323.442 227,304.5C 235.318,294.999 245.151,287.666 256.5,282.5C 259.644,280.724 262.977,279.224 266.5,278C 281.251,273.927 296.251,272.593 311.5,274C 344.211,277.375 368.378,293.542 384,322.5C 388.138,333.247 392.471,343.914 397,354.5C 401.986,373.778 406.653,393.112 411,412.5C 414.207,436.031 418.707,459.031 424.5,481.5 Z"/></g>
<g><path style="opacity:1" fill="#9f6f56" d="M 243.5,271.5 C 244.239,271.369 244.906,271.536 245.5,272C 231.7,287.468 217.533,302.635 203,317.5C 205.569,310.372 209.236,303.705 214,297.5C 223.433,288.224 233.267,279.557 243.5,271.5 Z"/></g>
<g><path style="opacity:1" fill="#302926" d="M 340.5,415.5 C 341.585,417.587 343.251,418.92 345.5,419.5C 348.136,422.31 350.636,425.31 353,428.5C 362.042,446.957 368.708,466.29 373,486.5C 374.623,490.71 376.623,494.71 379,498.5C 382.349,501.682 385.516,505.015 388.5,508.5C 397.973,512.437 407.473,512.437 417,508.5C 418.03,508.836 418.53,509.503 418.5,510.5C 415.806,512.514 412.806,514.014 409.5,515C 394.757,517.694 382.091,513.861 371.5,503.5C 368.184,498.88 365.351,493.88 363,488.5C 358.349,473.53 352.349,459.196 345,445.5C 332.357,433.448 317.19,427.781 299.5,428.5C 282.37,427.818 267.537,433.151 255,444.5C 252.752,447.328 250.752,450.328 249,453.5C 243.94,466.013 239.273,478.679 235,491.5C 233.03,494.968 230.864,498.301 228.5,501.5C 228.863,502.183 229.196,502.85 229.5,503.5C 228.448,503.351 227.448,503.517 226.5,504C 214.659,515.692 200.992,518.692 185.5,513C 182.405,512.065 180.071,510.231 178.5,507.5C 201.335,516.501 217.169,509.501 226,486.5C 229.845,472.788 233.845,459.121 238,445.5C 242.077,432.78 249.243,422.28 259.5,414C 270.788,408.777 280.955,401.944 290,393.5C 294.854,388.104 297.021,381.771 296.5,374.5C 289.271,376.186 282.104,378.186 275,380.5C 271.326,379.413 267.826,377.913 264.5,376C 247.326,362.463 243.826,345.963 254,326.5C 269.406,308.363 288.906,301.53 312.5,306C 326.015,308.67 336.849,315.503 345,326.5C 356.181,349.957 350.347,367.79 327.5,380C 319.141,379.94 311.141,378.107 303.5,374.5C 303.167,375.667 302.833,376.833 302.5,378C 303.923,386.012 307.59,392.845 313.5,398.5C 322.069,404.946 331.069,410.612 340.5,415.5 Z"/></g>
<g><path style="opacity:1" fill="#9f6e55" d="M 196.5,302.5 C 189.929,322.015 182.763,341.681 175,361.5C 176.327,339.685 183.493,320.019 196.5,302.5 Z"/></g>
<g><path style="opacity:1" fill="#060707" d="M 271.5,327.5 C 282.426,329.67 287.26,336.336 286,347.5C 283.629,352.191 279.796,355.024 274.5,356C 271.167,356.667 267.833,356.667 264.5,356C 261.606,355.131 260.439,353.298 261,350.5C 265.056,347.925 269.389,345.925 274,344.5C 274.667,342.167 274.667,339.833 274,337.5C 271.569,334.383 270.735,331.05 271.5,327.5 Z"/></g>
<g><path style="opacity:1" fill="#060707" d="M 324.5,327.5 C 326.635,327.147 327.968,327.98 328.5,330C 327.47,332.56 326.303,335.06 325,337.5C 323.877,340.956 324.71,343.79 327.5,346C 330.949,346.862 334.283,348.028 337.5,349.5C 338.992,352.767 337.992,354.934 334.5,356C 325.212,358.242 318.045,355.409 313,347.5C 312.076,337.959 315.909,331.293 324.5,327.5 Z"/></g>
<g><path style="opacity:1" fill="#8c8586" d="M 340.5,415.5 C 342.749,416.08 344.415,417.413 345.5,419.5C 343.251,418.92 341.585,417.587 340.5,415.5 Z"/></g>
<g><path style="opacity:1" fill="#c0b2b5" d="M 371.5,503.5 C 359.745,507.058 347.745,508.224 335.5,507C 322.735,503.449 310.068,499.615 297.5,495.5C 287.422,498.702 277.422,502.202 267.5,506C 254.595,508.435 241.928,507.602 229.5,503.5C 229.196,502.85 228.863,502.183 228.5,501.5C 230.864,498.301 233.03,494.968 235,491.5C 239.273,478.679 243.94,466.013 249,453.5C 250.752,450.328 252.752,447.328 255,444.5C 267.537,433.151 282.37,427.818 299.5,428.5C 317.19,427.781 332.357,433.448 345,445.5C 352.349,459.196 358.349,473.53 363,488.5C 365.351,493.88 368.184,498.88 371.5,503.5 Z"/></g>
</svg>
