<?xml version="1.0" encoding="UTF-8"?>
<!DOCTYPE svg PUBLIC "-//W3C//DTD SVG 1.1//EN" "http://www.w3.org/Graphics/SVG/1.1/DTD/svg11.dtd">
<svg xmlns="http://www.w3.org/2000/svg" version="1.1" width="600px" height="600px" style="shape-rendering:geometricPrecision; text-rendering:geometricPrecision; image-rendering:optimizeQuality; fill-rule:evenodd; clip-rule:evenodd" xmlns:xlink="http://www.w3.org/1999/xlink">
<g><path style="opacity:0.951" fill="#030202" d="M 164.5,-0.5 C 175.5,-0.5 186.5,-0.5 197.5,-0.5C 218.077,15.0052 237.41,32.1719 255.5,51C 257.833,51.1667 260.167,51.3333 262.5,51.5C 274.629,50.1587 286.796,49.492 299,49.5C 313.515,50.0629 328.015,50.5629 342.5,51C 361.084,32.9114 380.418,15.7447 400.5,-0.5C 411.833,-0.5 423.167,-0.5 434.5,-0.5C 437.95,4.80475 440.783,10.4714 443,16.5C 451.155,44.7153 453.489,73.3819 450,102.5C 487.902,133.128 511.902,172.461 522,220.5C 525.175,236.389 527.508,252.389 529,268.5C 534.31,275.452 538.31,283.119 541,291.5C 541.96,297.947 539.793,303.114 534.5,307C 537.041,317.804 538.374,328.804 538.5,340C 537.868,358.291 536.034,376.457 533,394.5C 531.11,404.394 528.444,414.06 525,423.5C 523.833,426 522,427.833 519.5,429C 516.101,430.39 512.767,430.89 509.5,430.5C 493.179,481.64 462.179,521.14 416.5,549C 410.397,551.625 405.23,550.459 401,545.5C 376.767,566.362 350.6,584.362 322.5,599.5C 306.833,599.5 291.167,599.5 275.5,599.5C 247.832,585.333 222.165,568.166 198.5,548C 195.46,548.913 192.293,549.747 189,550.5C 185.988,550.274 183.155,549.441 180.5,548C 136.47,519.621 106.303,480.455 90,430.5C 83.9144,431.467 78.9144,429.467 75,424.5C 68.4866,407.777 64.4866,390.444 63,372.5C 62.186,361.827 61.3527,351.161 60.5,340.5C 60.8988,329.367 62.2321,318.367 64.5,307.5C 57.6111,301.277 56.1111,293.943 60,285.5C 62.9347,279.573 66.268,273.906 70,268.5C 71.1861,217.934 86.8528,172.601 117,132.5C 125.036,122.796 134.036,114.13 144,106.5C 144.23,75.3298 148.23,44.6632 156,14.5C 157.819,8.85483 160.652,3.85483 164.5,-0.5 Z"/></g>
<g><path style="opacity:1" fill="#bebdbd" d="M 517.5,270.5 C 517.666,280.839 517.5,291.172 517,301.5C 516.751,302.624 516.251,303.624 515.5,304.5C 509.227,295.052 502.727,285.718 496,276.5C 493.5,274 491,271.5 488.5,269C 487.517,268.409 486.85,268.743 486.5,270C 497.131,299.768 498.298,329.934 490,360.5C 487.902,368.634 484.735,376.3 480.5,383.5C 478.629,371.273 475.796,359.273 472,347.5C 469.121,341.295 465.454,335.628 461,330.5C 459.453,353.676 452.786,375.343 441,395.5C 436.728,401.941 431.561,407.608 425.5,412.5C 421.071,404.431 414.404,398.931 405.5,396C 395.918,392.412 386.251,389.579 376.5,387.5C 400.769,363.658 417.935,335.325 428,302.5C 429.976,296.627 430.643,290.627 430,284.5C 405.37,283.799 381.203,279.965 357.5,273C 347.333,266.833 339.167,258.667 333,248.5C 324.155,236.912 312.488,230.578 298,229.5C 289.52,229.771 282.02,232.604 275.5,238C 267.079,246.363 259.246,255.197 252,264.5C 248.778,267.388 245.278,269.888 241.5,272C 233.543,274.542 225.543,276.875 217.5,279C 201.227,281.629 185.06,283.796 169,285.5C 168.54,292.675 169.54,299.675 172,306.5C 182.123,338.102 199.289,365.102 223.5,387.5C 210.26,389.413 197.593,393.247 185.5,399C 179.18,401.986 175.013,406.819 173,413.5C 157.677,398.822 147.343,381.156 142,360.5C 140.01,350.585 138.51,340.585 137.5,330.5C 129.092,340.318 123.592,351.652 121,364.5C 120.401,370.969 119.235,377.302 117.5,383.5C 99.8573,346.534 97.8573,308.701 111.5,270C 111.333,269.5 111.167,269 111,268.5C 108.372,270.126 106.039,272.126 104,274.5C 96.5805,284.089 89.7471,294.089 83.5,304.5C 82.8076,303.975 82.3076,303.308 82,302.5C 81.1675,292.514 80.6675,282.514 80.5,272.5C 80.3218,220.524 96.4885,174.524 129,134.5C 137.083,126.08 145.416,118.08 154,110.5C 154.494,82.3205 157.494,54.3205 163,26.5C 164.393,17.954 168.227,10.7874 174.5,5C 178.935,3.18223 183.268,3.51556 187.5,6C 209.941,21.7617 230.608,39.7617 249.5,60C 252.205,61.8715 255.205,62.7048 258.5,62.5C 284.504,59.8796 310.504,59.8796 336.5,62.5C 339.924,62.5183 343.257,62.0183 346.5,61C 365.276,42.5506 384.943,25.2173 405.5,9C 411.679,4.45067 418.345,3.45067 425.5,6C 429.604,10.4455 432.437,15.6122 434,21.5C 438.708,37.4977 440.875,53.831 440.5,70.5C 439.999,82.5046 439.833,94.5046 440,106.5C 452.279,117.446 463.946,129.113 475,141.5C 503.04,179.788 517.207,222.788 517.5,270.5 Z"/></g>
<g><path style="opacity:1" fill="#070707" d="M 194.5,28.5 C 196.833,31.5 199.5,34.1667 202.5,36.5C 211.7,48.2416 217.034,61.5749 218.5,76.5C 215.681,94.321 205.347,104.988 187.5,108.5C 184.037,105.886 180.037,104.886 175.5,105.5C 177.043,98.2047 178.376,90.8713 179.5,83.5C 175.794,84.2897 172.128,85.2897 168.5,86.5C 167.833,86.1667 167.167,85.8333 166.5,85.5C 169.096,81.9809 171.929,78.6475 175,75.5C 176.009,73.9751 176.509,72.3084 176.5,70.5C 173.134,70.7878 169.8,70.9545 166.5,71C 169.484,68.1742 172.817,65.8409 176.5,64C 178.378,62.4571 179.878,60.6238 181,58.5C 181.228,48.8174 182.895,39.4841 186,30.5C 188.254,27.3949 191.087,26.7283 194.5,28.5 Z"/></g>
<g><path style="opacity:1" fill="#090908" d="M 406.5,27.5 C 410.73,26.5628 413.23,28.2295 414,32.5C 416.762,41.6186 418.428,50.9519 419,60.5C 423.59,63.8792 428.09,67.3792 432.5,71C 429.2,70.9545 425.866,70.7878 422.5,70.5C 422.491,72.3084 422.991,73.9751 424,75.5C 427.396,78.3928 430.229,81.7261 432.5,85.5C 428.356,85.182 424.19,85.182 420,85.5C 420.763,92.2992 422.263,98.9658 424.5,105.5C 421.482,105.335 418.482,105.502 415.5,106C 412.489,108.502 409.155,109.002 405.5,107.5C 388.123,100.044 379.956,87.0439 381,68.5C 385.482,52.1759 393.982,38.5092 406.5,27.5 Z"/></g>
<g><path style="opacity:1" fill="#6a6a6a" d="M 194.5,28.5 C 198.167,30.1667 200.833,32.8333 202.5,36.5C 199.5,34.1667 196.833,31.5 194.5,28.5 Z"/></g>
<g><path style="opacity:1" fill="#3e3e3d" d="M 190.5,32.5 C 203.623,43.7372 211.29,58.0706 213.5,75.5C 211.66,90.0139 203.66,99.3473 189.5,103.5C 186.975,101.285 183.975,100.118 180.5,100C 183.548,94.5283 184.715,88.6949 184,82.5C 182.478,80.9782 180.978,79.4782 179.5,78C 180.5,75.6667 181.5,73.3333 182.5,71C 182.097,69.5272 181.43,68.1939 180.5,67C 183.467,64.8995 185.3,62.0662 186,58.5C 186.519,49.6098 188.019,40.9432 190.5,32.5 Z"/></g>
<g><path style="opacity:1" fill="#3e3e3d" d="M 407.5,32.5 C 409.694,34.2214 410.861,36.5547 411,39.5C 411.733,45.8264 412.399,52.1597 413,58.5C 413.7,62.0662 415.533,64.8995 418.5,67C 416.648,71.6917 417.648,75.6917 421.5,79C 415.26,79.9164 413.094,83.4164 415,89.5C 415.773,93.1532 416.94,96.6532 418.5,100C 415.025,100.118 412.025,101.285 409.5,103.5C 386.329,94.1455 380.162,78.1455 391,55.5C 395.168,46.8391 400.668,39.1724 407.5,32.5 Z"/></g>
<g><path style="opacity:1" fill="#3f3f3f" d="M 234.5,182.5 C 257.335,180.469 268.501,190.802 268,213.5C 261.927,230.55 250.094,236.716 232.5,232C 219.068,224.629 214.234,213.462 218,198.5C 221.413,190.919 226.913,185.586 234.5,182.5 Z"/></g>
<g><path style="opacity:1" fill="#3f3f3e" d="M 346.5,182.5 C 362.022,180.339 372.856,186.339 379,200.5C 380.833,224 370,234.833 346.5,233C 330.899,225.96 325.399,214.127 330,197.5C 333.822,190.504 339.322,185.504 346.5,182.5 Z"/></g>
<g><path style="opacity:1" fill="#020303" d="M 238.5,191.5 C 256.045,192.253 261.879,200.92 256,217.5C 249.529,224.327 242.029,225.827 233.5,222C 226.465,215.833 224.631,208.333 228,199.5C 230.855,195.789 234.355,193.123 238.5,191.5 Z"/></g>
<g><path style="opacity:1" fill="#030403" d="M 349.5,191.5 C 365.712,191.198 372.212,198.865 369,214.5C 364.867,222.316 358.367,225.482 349.5,224C 337.646,218.105 334.813,209.272 341,197.5C 343.637,195.109 346.47,193.109 349.5,191.5 Z"/></g>
<g><path style="opacity:1" fill="#efefef" d="M 246.5,197.5 C 254.993,196.471 257.327,199.637 253.5,207C 248.698,209.266 245.698,207.766 244.5,202.5C 244.902,200.7 245.569,199.033 246.5,197.5 Z"/></g>
<g><path style="opacity:1" fill="#eeeeee" d="M 357.5,197.5 C 365.993,196.471 368.327,199.637 364.5,207C 357.691,209.196 354.857,206.696 356,199.5C 356.717,198.956 357.217,198.289 357.5,197.5 Z"/></g>
<g><path style="opacity:1" fill="#3f3f3e" d="M 376.5,387.5 C 358.141,403.35 337.141,414.517 313.5,421C 297.491,424.198 282.158,422.198 267.5,415C 251.628,407.574 236.961,398.408 223.5,387.5C 199.289,365.102 182.123,338.102 172,306.5C 169.54,299.675 168.54,292.675 169,285.5C 185.06,283.796 201.227,281.629 217.5,279C 225.543,276.875 233.543,274.542 241.5,272C 245.278,269.888 248.778,267.388 252,264.5C 259.246,255.197 267.079,246.363 275.5,238C 282.02,232.604 289.52,229.771 298,229.5C 312.488,230.578 324.155,236.912 333,248.5C 339.167,258.667 347.333,266.833 357.5,273C 381.203,279.965 405.37,283.799 430,284.5C 430.643,290.627 429.976,296.627 428,302.5C 417.935,335.325 400.769,363.658 376.5,387.5 Z"/></g>
<g><path style="opacity:1" fill="#d7af8e" d="M 223.5,387.5 C 236.961,398.408 251.628,407.574 267.5,415C 282.158,422.198 297.491,424.198 313.5,421C 337.141,414.517 358.141,403.35 376.5,387.5C 386.251,389.579 395.918,392.412 405.5,396C 414.404,398.931 421.071,404.431 425.5,412.5C 431.561,407.608 436.728,401.941 441,395.5C 452.786,375.343 459.453,353.676 461,330.5C 465.454,335.628 469.121,341.295 472,347.5C 475.796,359.273 478.629,371.273 480.5,383.5C 484.735,376.3 487.902,368.634 490,360.5C 498.298,329.934 497.131,299.768 486.5,270C 486.85,268.743 487.517,268.409 488.5,269C 491,271.5 493.5,274 496,276.5C 502.727,285.718 509.227,295.052 515.5,304.5C 516.251,303.624 516.751,302.624 517,301.5C 517.5,291.172 517.666,280.839 517.5,270.5C 522.393,276.598 526.559,283.264 530,290.5C 530.497,292.81 530.663,295.143 530.5,297.5C 528.146,297.838 525.813,298.338 523.5,299C 522.978,299.561 522.645,300.228 522.5,301C 524.415,307.409 525.915,313.909 527,320.5C 528.2,346.362 526.534,372.029 522,397.5C 520.543,405.121 518.21,412.454 515,419.5C 514.333,420.833 513.667,420.833 513,419.5C 510.804,411.907 508.804,404.241 507,396.5C 496.402,459.212 464.235,507.212 410.5,540.5C 409.914,540.291 409.414,539.957 409,539.5C 408.501,535.179 408.334,530.846 408.5,526.5C 407.448,526.351 406.448,526.517 405.5,527C 378.495,553.008 348.162,574.341 314.5,591C 309.492,593.044 304.325,594.544 299,595.5C 291.848,594.338 285.015,592.172 278.5,589C 246.781,572.896 217.948,552.73 192,528.5C 191.667,531.5 191.333,534.5 191,537.5C 190.632,538.91 189.799,539.91 188.5,540.5C 135.183,506.918 103.016,458.918 92,396.5C 90.3788,404.276 88.3788,411.942 86,419.5C 85.6667,419.833 85.3333,420.167 85,420.5C 80.2011,411.098 77.2011,401.098 76,390.5C 72.348,368.311 71.0146,345.977 72,323.5C 72.4118,315.941 73.9118,308.607 76.5,301.5C 76.3918,300.558 76.0585,299.725 75.5,299C 73.444,298.689 71.444,298.189 69.5,297.5C 67.9644,292.764 68.7978,288.431 72,284.5C 74.6096,280.258 77.4429,276.258 80.5,272.5C 80.6675,282.514 81.1675,292.514 82,302.5C 82.3076,303.308 82.8076,303.975 83.5,304.5C 89.7471,294.089 96.5805,284.089 104,274.5C 106.039,272.126 108.372,270.126 111,268.5C 111.167,269 111.333,269.5 111.5,270C 97.8573,308.701 99.8573,346.534 117.5,383.5C 119.235,377.302 120.401,370.969 121,364.5C 123.592,351.652 129.092,340.318 137.5,330.5C 138.51,340.585 140.01,350.585 142,360.5C 147.343,381.156 157.677,398.822 173,413.5C 175.013,406.819 179.18,401.986 185.5,399C 197.593,393.247 210.26,389.413 223.5,387.5 Z"/></g>
<g><path style="opacity:1" fill="#010202" d="M 304.5,341.5 C 300.5,341.5 296.5,341.5 292.5,341.5C 278.61,338.097 268.443,330.097 262,317.5C 257.839,302.958 262.672,292.791 276.5,287C 292.594,283.411 308.594,283.744 324.5,288C 336.812,294.245 340.979,304.078 337,317.5C 330.14,330.699 319.307,338.699 304.5,341.5 Z"/></g>
<g><path style="opacity:1" fill="#020303" d="M 264.5,351.5 C 264.306,365.206 266.306,378.539 270.5,391.5C 265.187,382.88 260.353,373.88 256,364.5C 249.374,359.543 243.04,354.209 237,348.5C 232.393,343.295 230.727,337.295 232,330.5C 232.612,327.968 234.112,327.135 236.5,328C 239.078,335.827 243.412,342.494 249.5,348C 254.099,350.867 259.099,352.034 264.5,351.5 Z"/></g>
<g><path style="opacity:1" fill="#020303" d="M 327.5,390.5 C 331.501,377.825 333.168,364.825 332.5,351.5C 342.451,352.274 350.284,348.607 356,340.5C 358.527,336.779 360.527,332.779 362,328.5C 363.667,325.833 365.333,325.833 367,328.5C 368.273,335.295 366.607,341.295 362,346.5C 355.93,353.24 349.263,359.24 342,364.5C 337.806,371.554 334.139,378.888 331,386.5C 330.051,388.093 328.885,389.426 327.5,390.5 Z"/></g>
<g><path style="opacity:1" fill="#f09c9f" d="M 292.5,341.5 C 296.5,341.5 300.5,341.5 304.5,341.5C 313.356,346.229 322.689,349.563 332.5,351.5C 333.168,364.825 331.501,377.825 327.5,390.5C 317.478,408.011 302.812,413.178 283.5,406C 277.875,402.215 273.542,397.382 270.5,391.5C 266.306,378.539 264.306,365.206 264.5,351.5C 274.353,349.55 283.686,346.216 292.5,341.5 Z"/></g>
</svg>
