<?xml version="1.0" encoding="UTF-8"?>
<!DOCTYPE svg PUBLIC "-//W3C//DTD SVG 1.1//EN" "http://www.w3.org/Graphics/SVG/1.1/DTD/svg11.dtd">
<svg xmlns="http://www.w3.org/2000/svg" version="1.1" width="600px" height="600px" style="shape-rendering:geometricPrecision; text-rendering:geometricPrecision; image-rendering:optimizeQuality; fill-rule:evenodd; clip-rule:evenodd" xmlns:xlink="http://www.w3.org/1999/xlink">
<g><path style="opacity:0.951" fill="#020202" d="M 109.5,-0.5 C 120.833,-0.5 132.167,-0.5 143.5,-0.5C 158.215,11.382 171.048,25.0486 182,40.5C 199.654,65.1876 215.321,91.1876 229,118.5C 237.097,122.845 245.763,124.511 255,123.5C 269.832,122.814 284.666,122.147 299.5,121.5C 318.818,122.842 338.151,123.342 357.5,123C 362.957,122.741 367.457,120.574 371,116.5C 388.763,81.9504 409.763,49.6171 434,19.5C 440.762,12.2326 447.928,5.56592 455.5,-0.5C 467.167,-0.5 478.833,-0.5 490.5,-0.5C 498.068,8.6313 503.568,18.9646 507,30.5C 519.093,72.4854 525.593,115.319 526.5,159C 525.09,183.839 523.923,208.672 523,233.5C 523.672,241.542 524.672,249.542 526,257.5C 534.478,290.533 539.978,324.033 542.5,358C 540.91,406.786 524.744,449.952 494,487.5C 462.666,525.18 426.166,556.68 384.5,582C 371.197,588.993 357.53,594.826 343.5,599.5C 314.167,599.5 284.833,599.5 255.5,599.5C 232.76,591.964 211.427,581.464 191.5,568C 156.238,544.077 125.405,515.244 99,481.5C 67.0887,437.744 53.422,388.744 58,334.5C 64.1296,302.186 70.1296,269.852 76,237.5C 76.6667,228.833 76.6667,220.167 76,211.5C 69.3818,151.539 74.3818,92.5391 91,34.5C 94.0488,21.0637 100.215,9.39704 109.5,-0.5 Z"/></g>
<g><path style="opacity:1" fill="#fdf4e7" d="M 471.5,3.5 C 477.805,3.90296 482.972,6.56963 487,11.5C 490.527,17.2211 493.527,23.2211 496,29.5C 508.968,71.6781 515.468,114.845 515.5,159C 514.061,185.488 513.228,211.988 513,238.5C 519.317,271.104 525.317,303.77 531,336.5C 534.999,381.814 524.666,423.481 500,461.5C 469.239,504.931 431.406,540.764 386.5,569C 331.566,602.742 275.899,604.075 219.5,573C 165.859,542.026 122.692,500.193 90,447.5C 71.6497,412.732 64.3163,375.732 68,336.5C 73.8726,304.137 79.8726,271.804 86,239.5C 86.1639,213.46 85.3306,187.46 83.5,161.5C 83.2934,115.741 90.1268,71.0739 104,27.5C 106.973,18.0151 112.473,10.5151 120.5,5C 128.498,3.5553 135.498,5.5553 141.5,11C 165.088,34.0401 184.922,59.8734 201,88.5C 207.602,100.039 213.935,111.705 220,123.5C 223.979,128.574 229.146,131.741 235.5,133C 241.53,133.252 247.53,133.752 253.5,134.5C 284.163,131.932 314.83,131.932 345.5,134.5C 355.703,134.678 365.37,132.512 374.5,128C 376,126.5 377.5,125 379,123.5C 396.091,89.6259 416.424,57.9592 440,28.5C 445.833,22.6667 451.667,16.8333 457.5,11C 461.826,7.67329 466.492,5.17329 471.5,3.5 Z"/></g>
<g><path style="opacity:1" fill="#000000" d="M 123.5,26.5 C 129.675,25.6432 135.342,26.8099 140.5,30C 162.738,57.9559 180.238,88.7892 193,122.5C 196.152,131.598 197.152,140.931 196,150.5C 195.275,152.949 194.275,155.283 193,157.5C 179.855,174.647 163.689,188.147 144.5,198C 136.447,201.123 128.447,201.123 120.5,198C 117.567,195.736 115.4,192.902 114,189.5C 110.282,176.095 108.282,162.428 108,148.5C 106.764,116.09 107.764,83.7567 111,51.5C 111.5,41.1663 115.667,32.833 123.5,26.5 Z"/></g>
<g><path style="opacity:1" fill="#050505" d="M 464.5,26.5 C 474.885,24.4424 481.719,28.4424 485,38.5C 486.616,42.3466 487.616,46.3466 488,50.5C 493.916,93.5153 493.916,136.515 488,179.5C 485.567,197.273 475.734,203.773 458.5,199C 436.504,189.676 418.671,175.176 405,155.5C 401.524,143.666 402.191,131.999 407,120.5C 418.57,91.352 433.236,64.0186 451,38.5C 455.123,33.8656 459.623,29.8656 464.5,26.5 Z"/></g>
<g><path style="opacity:1" fill="#817c75" d="M 466.5,31.5 C 472.059,29.2765 476.059,30.9432 478.5,36.5C 475.451,32.6447 471.451,30.9781 466.5,31.5 Z"/></g>
<g><path style="opacity:1" fill="#f3d8b8" d="M 136.5,33.5 C 137.833,35.5 139.5,37.1667 141.5,38.5C 143.262,39.2623 144.262,40.5956 144.5,42.5C 146.673,46.8523 149.34,50.8523 152.5,54.5C 159.355,63.3819 165.022,73.0486 169.5,83.5C 172.992,91.8177 176.992,99.8177 181.5,107.5C 183.931,111.111 185.597,115.111 186.5,119.5C 186.928,122.785 187.928,125.785 189.5,128.5C 189.565,131.428 190.232,134.095 191.5,136.5C 192.25,143.622 190.917,150.288 187.5,156.5C 185.413,157.585 184.08,159.251 183.5,161.5C 178.5,165.833 173.833,170.5 169.5,175.5C 169.5,176.167 169.167,176.5 168.5,176.5C 166.251,177.08 164.585,178.413 163.5,180.5C 158.646,185.341 152.98,189.007 146.5,191.5C 143.557,191.98 140.89,192.98 138.5,194.5C 135.002,196.262 131.335,196.596 127.5,195.5C 124.574,193.916 121.908,191.916 119.5,189.5C 117.095,185.244 115.595,180.577 115,175.5C 110.526,137.143 110.359,98.81 114.5,60.5C 116.177,56.4552 116.844,52.1219 116.5,47.5C 118.072,44.7846 119.072,41.7846 119.5,38.5C 123.534,31.4351 129.201,29.7685 136.5,33.5 Z"/></g>
<g><path style="opacity:1" fill="#f3d8b8" d="M 466.5,31.5 C 471.451,30.9781 475.451,32.6447 478.5,36.5C 480.656,39.4374 482.156,42.7708 483,46.5C 487.43,82.0681 488.596,117.735 486.5,153.5C 485.19,159.288 484.523,165.288 484.5,171.5C 484.453,179.392 482.12,186.392 477.5,192.5C 475.181,192.992 473.181,193.992 471.5,195.5C 466.577,196.514 461.91,195.848 457.5,193.5C 454.485,191.326 451.151,189.659 447.5,188.5C 442.335,186.662 438.001,183.662 434.5,179.5C 432.761,176.757 430.427,174.757 427.5,173.5C 424.5,169.833 421.167,166.5 417.5,163.5C 416.833,163.5 416.5,163.167 416.5,162.5C 415.92,160.251 414.587,158.585 412.5,157.5C 408.675,153.552 406.675,148.719 406.5,143C 406.819,138.223 407.819,133.723 409.5,129.5C 411.072,126.785 412.072,123.785 412.5,120.5C 412.872,116.703 414.206,113.37 416.5,110.5C 418.293,108.574 419.293,106.241 419.5,103.5C 421.659,97.8489 424.326,92.5156 427.5,87.5C 429.924,84.9922 431.59,81.9922 432.5,78.5C 434.664,73.4997 437.331,68.833 440.5,64.5C 442.95,62.3709 444.617,59.7043 445.5,56.5C 445.75,54.326 446.75,52.6594 448.5,51.5C 451.521,48.6336 454.021,45.3003 456,41.5C 459.396,37.9349 462.896,34.6015 466.5,31.5 Z"/></g>
<g><path style="opacity:1" fill="#7c7872" d="M 136.5,33.5 C 129.201,29.7685 123.534,31.4351 119.5,38.5C 121.671,31.5786 126.337,29.0786 133.5,31C 134.942,31.3768 135.942,32.2101 136.5,33.5 Z"/></g>
<g><path style="opacity:1" fill="#76736c" d="M 136.5,33.5 C 139.167,34.1667 140.833,35.8333 141.5,38.5C 139.5,37.1667 137.833,35.5 136.5,33.5 Z"/></g>
<g><path style="opacity:1" fill="#7b7770" d="M 119.5,38.5 C 119.072,41.7846 118.072,44.7846 116.5,47.5C 116.528,44.0836 117.528,41.0836 119.5,38.5 Z"/></g>
<g><path style="opacity:1" fill="#7f7a74" d="M 144.5,42.5 C 148.156,45.8033 150.822,49.8033 152.5,54.5C 149.34,50.8523 146.673,46.8523 144.5,42.5 Z"/></g>
<g><path style="opacity:1" fill="#8f8981" d="M 466.5,31.5 C 462.896,34.6015 459.396,37.9349 456,41.5C 454.021,45.3003 451.521,48.6336 448.5,51.5C 452.088,42.5828 458.088,35.9161 466.5,31.5 Z"/></g>
<g><path style="opacity:1" fill="#a9a095" d="M 116.5,47.5 C 116.844,52.1219 116.177,56.4552 114.5,60.5C 114.438,55.9242 115.105,51.5909 116.5,47.5 Z"/></g>
<g><path style="opacity:1" fill="#7b7771" d="M 445.5,56.5 C 444.617,59.7043 442.95,62.3709 440.5,64.5C 441.383,61.2957 443.05,58.6291 445.5,56.5 Z"/></g>
<g><path style="opacity:1" fill="#7c7871" d="M 432.5,78.5 C 431.59,81.9922 429.924,84.9922 427.5,87.5C 428.41,84.0078 430.076,81.0078 432.5,78.5 Z"/></g>
<g><path style="opacity:1" fill="#7d7972" d="M 169.5,83.5 C 174.541,90.9143 178.541,98.9143 181.5,107.5C 176.992,99.8177 172.992,91.8177 169.5,83.5 Z"/></g>
<g><path style="opacity:1" fill="#7a766f" d="M 419.5,103.5 C 419.293,106.241 418.293,108.574 416.5,110.5C 416.707,107.759 417.707,105.426 419.5,103.5 Z"/></g>
<g><path style="opacity:1" fill="#7a7670" d="M 186.5,119.5 C 188.472,122.084 189.472,125.084 189.5,128.5C 187.928,125.785 186.928,122.785 186.5,119.5 Z"/></g>
<g><path style="opacity:1" fill="#7c7871" d="M 412.5,120.5 C 412.072,123.785 411.072,126.785 409.5,129.5C 409.528,126.084 410.528,123.084 412.5,120.5 Z"/></g>
<g><path style="opacity:1" fill="#79756f" d="M 189.5,128.5 C 191.04,130.838 191.706,133.505 191.5,136.5C 190.232,134.095 189.565,131.428 189.5,128.5 Z"/></g>
<g><path style="opacity:1" fill="#7d7972" d="M 191.5,136.5 C 192.645,140.311 192.812,144.311 192,148.5C 191.246,151.684 189.746,154.351 187.5,156.5C 190.917,150.288 192.25,143.622 191.5,136.5 Z"/></g>
<g><path style="opacity:1" fill="#7e7972" d="M 486.5,153.5 C 486.612,159.726 485.946,165.726 484.5,171.5C 484.523,165.288 485.19,159.288 486.5,153.5 Z"/></g>
<g><path style="opacity:1" fill="#7c7771" d="M 187.5,156.5 C 186.92,158.749 185.587,160.415 183.5,161.5C 184.08,159.251 185.413,157.585 187.5,156.5 Z"/></g>
<g><path style="opacity:1" fill="#7e7973" d="M 412.5,157.5 C 414.587,158.585 415.92,160.251 416.5,162.5C 414.413,161.415 413.08,159.749 412.5,157.5 Z"/></g>
<g><path style="opacity:1" fill="#76736c" d="M 417.5,163.5 C 421.167,166.5 424.5,169.833 427.5,173.5C 423.167,171.167 419.833,167.833 417.5,163.5 Z"/></g>
<g><path style="opacity:1" fill="#7a766f" d="M 183.5,161.5 C 179.833,167.167 175.167,171.833 169.5,175.5C 173.833,170.5 178.5,165.833 183.5,161.5 Z"/></g>
<g><path style="opacity:1" fill="#8b857e" d="M 427.5,173.5 C 430.427,174.757 432.761,176.757 434.5,179.5C 431.573,178.243 429.239,176.243 427.5,173.5 Z"/></g>
<g><path style="opacity:1" fill="#78746e" d="M 168.5,176.5 C 167.415,178.587 165.749,179.92 163.5,180.5C 164.585,178.413 166.251,177.08 168.5,176.5 Z"/></g>
<g><path style="opacity:1" fill="#7c7871" d="M 119.5,189.5 C 121.908,191.916 124.574,193.916 127.5,195.5C 123.373,195.365 120.706,193.365 119.5,189.5 Z"/></g>
<g><path style="opacity:1" fill="#7d7972" d="M 447.5,188.5 C 451.151,189.659 454.485,191.326 457.5,193.5C 453.58,192.873 450.247,191.207 447.5,188.5 Z"/></g>
<g><path style="opacity:1" fill="#79746e" d="M 146.5,191.5 C 144.316,193.585 141.649,194.585 138.5,194.5C 140.89,192.98 143.557,191.98 146.5,191.5 Z"/></g>
<g><path style="opacity:1" fill="#7e7a73" d="M 477.5,192.5 C 476.089,194.539 474.089,195.539 471.5,195.5C 473.181,193.992 475.181,192.992 477.5,192.5 Z"/></g>
<g><path style="opacity:1" fill="#020303" d="M 197.5,266.5 C 222.252,267.745 236.419,280.745 240,305.5C 241.526,316.48 236.693,322.147 225.5,322.5C 200.692,321.738 179.192,313.071 161,296.5C 156.187,290.168 156.353,284.001 161.5,278C 172.491,270.757 184.491,266.924 197.5,266.5 Z"/></g>
<g><path style="opacity:1" fill="#020303" d="M 398.5,266.5 C 410.807,266.728 422.474,269.561 433.5,275C 441.371,279.146 443.537,285.312 440,293.5C 427.11,307.367 411.277,316.201 392.5,320C 386.192,321.016 379.858,321.849 373.5,322.5C 364.444,322.774 359.444,318.441 358.5,309.5C 359.811,293.068 367.145,280.234 380.5,271C 386.449,268.783 392.449,267.283 398.5,266.5 Z"/></g>
<g><path style="opacity:1" fill="#f2f2f2" d="M 381.5,281.5 C 387.679,280.858 390.846,283.525 391,289.5C 387.819,295.252 383.819,295.919 379,291.5C 377.861,287.579 378.695,284.246 381.5,281.5 Z"/></g>
<g><path style="opacity:1" fill="#f3f3f3" d="M 211.5,281.5 C 217.966,280.475 221.132,283.142 221,289.5C 217.902,295.319 213.902,295.986 209,291.5C 207.861,287.579 208.695,284.246 211.5,281.5 Z"/></g>
<g><path style="opacity:1" fill="#020303" d="M 289.5,376.5 C 309.662,374.277 327.162,379.944 342,393.5C 347.999,406.565 347.666,419.565 341,432.5C 333.996,443.09 324.163,449.256 311.5,451C 296.344,453.39 282.011,451.057 268.5,444C 253.751,430.504 249.585,414.337 256,395.5C 264.74,384.88 275.907,378.547 289.5,376.5 Z"/></g>
<g><path style="opacity:1" fill="#050605" d="M 254.5,495.5 C 254.553,512.945 258.719,529.278 267,544.5C 275.188,555.004 286.021,559.671 299.5,558.5C 321.772,558.404 335.272,547.404 340,525.5C 342.761,515.342 344.261,505.009 344.5,494.5C 362.398,496.593 376.898,490.593 388,476.5C 395.418,466.411 403.585,456.911 412.5,448C 415.48,445.025 418.98,442.859 423,441.5C 424.622,441.954 425.788,442.954 426.5,444.5C 416.874,459.524 407.707,474.858 399,490.5C 388.038,505.129 375.371,518.129 361,529.5C 353.148,539.684 344.315,548.851 334.5,557C 316.622,565.83 297.955,567.83 278.5,563C 272.44,561.136 266.774,558.47 261.5,555C 253.957,548.125 247.124,540.625 241,532.5C 231.333,523.5 221.667,514.5 212,505.5C 200.253,491.02 190.253,475.353 182,458.5C 178.41,453.916 175.243,449.083 172.5,444C 173.399,442.764 174.566,441.93 176,441.5C 179.56,442.695 182.726,444.529 185.5,447C 197.167,460 208.833,473 220.5,486C 230.808,493.163 242.142,496.329 254.5,495.5 Z"/></g>
<g><path style="opacity:1" fill="#e96776" d="M 344.5,494.5 C 344.261,505.009 342.761,515.342 340,525.5C 335.272,547.404 321.772,558.404 299.5,558.5C 286.021,559.671 275.188,555.004 267,544.5C 258.719,529.278 254.553,512.945 254.5,495.5C 269.322,491.712 284.322,488.712 299.5,486.5C 314.588,488.689 329.588,491.356 344.5,494.5 Z"/></g>
</svg>
