<?xml version="1.0" encoding="UTF-8"?>
<!DOCTYPE svg PUBLIC "-//W3C//DTD SVG 1.1//EN" "http://www.w3.org/Graphics/SVG/1.1/DTD/svg11.dtd">
<svg xmlns="http://www.w3.org/2000/svg" version="1.1" width="600px" height="600px" style="shape-rendering:geometricPrecision; text-rendering:geometricPrecision; image-rendering:optimizeQuality; fill-rule:evenodd; clip-rule:evenodd" xmlns:xlink="http://www.w3.org/1999/xlink">
<g><path style="opacity:0.967" fill="#010101" d="M 599.5,272.5 C 599.5,288.167 599.5,303.833 599.5,319.5C 582.603,366.534 556.936,408.034 522.5,444C 505.109,460.903 486.109,462.903 465.5,450C 454.529,441.239 445.029,431.072 437,419.5C 436.107,418.289 435.274,418.289 434.5,419.5C 433.408,421.183 432.741,423.016 432.5,425C 437.643,438.737 440.976,452.904 442.5,467.5C 441.947,474.378 440.447,481.045 438,487.5C 434.923,494.975 429.59,498.641 422,498.5C 421.046,503.604 419.713,508.604 418,513.5C 408.296,528.874 396.129,542.041 381.5,553C 372.48,556.156 366.147,553.323 362.5,544.5C 342.758,556.138 321.591,564.138 299,568.5C 276.409,564.138 255.242,556.138 235.5,544.5C 233.007,552.499 227.674,555.666 219.5,554C 203.313,543.479 190.146,529.979 180,513.5C 178.386,508.593 177.219,503.593 176.5,498.5C 170.995,498.722 166.495,496.722 163,492.5C 156.899,481.221 154.899,469.221 157,456.5C 158.743,445.86 161.577,435.526 165.5,425.5C 164.594,423.253 163.261,421.253 161.5,419.5C 151.879,434.622 139.212,446.456 123.5,455C 105.132,461.742 89.1323,458.075 75.5,444C 47.7622,415.055 25.5956,382.221 9,345.5C 5.78057,337.744 2.6139,330.078 -0.5,322.5C -0.5,304.833 -0.5,287.167 -0.5,269.5C 16.6864,238.472 36.8531,209.472 60,182.5C 81.7334,156.431 105.233,131.931 130.5,109C 145.858,98.6569 162.525,90.9903 180.5,86C 182.721,84.3308 183.055,82.3308 181.5,80C 182.028,73.138 185.695,69.138 192.5,68C 198.432,66.3503 204.432,65.017 210.5,64C 213.278,60.8911 216.611,58.5577 220.5,57C 226.532,57.1733 232.532,57.0067 238.5,56.5C 240.541,52.0577 244.041,49.7243 249,49.5C 253.228,50.7969 257.562,51.4636 262,51.5C 285.495,47.5104 308.995,47.5104 332.5,51.5C 336.756,51.3581 340.923,50.6915 345,49.5C 350.732,49.4129 354.232,52.0796 355.5,57.5C 361.505,56.9983 367.505,56.8317 373.5,57C 375.246,57.4709 376.913,58.1376 378.5,59C 379.728,61.1399 381.395,62.8066 383.5,64C 393.064,64.7619 401.898,67.5952 410,72.5C 412.124,75.6666 412.624,79 411.5,82.5C 412.748,84.4586 414.415,85.9586 416.5,87C 437.269,91.3877 455.936,100.054 472.5,113C 514.865,153.359 552.365,197.526 585,245.5C 590.385,254.275 595.219,263.275 599.5,272.5 Z"/></g>
<g><path style="opacity:1" fill="#46392d" d="M 411.5,96.5 C 407.952,96.0949 404.619,96.5949 401.5,98C 408.324,103.245 415.324,108.245 422.5,113C 445.246,133.976 456.246,159.809 455.5,190.5C 429.173,175.698 400.84,169.032 370.5,170.5C 358.052,170.359 345.719,171.359 333.5,173.5C 329.797,157.028 325.297,140.695 320,124.5C 317.227,119.396 314.06,114.563 310.5,110C 303.687,104.546 296.687,104.213 289.5,109C 280.959,118.643 275.459,129.809 273,142.5C 270.511,152.778 268.344,163.112 266.5,173.5C 235.671,168.828 205.004,169.662 174.5,176C 168.714,177.817 163.047,179.817 157.5,182C 152.757,185.038 147.757,187.538 142.5,189.5C 142.054,159.209 153.054,133.709 175.5,113C 182.676,108.245 189.676,103.245 196.5,98C 192.497,96.9002 188.497,96.0669 184.5,95.5C 191.613,91.5597 198.613,87.393 205.5,83C 201.289,81.6251 196.956,80.4585 192.5,79.5C 196.824,77.0826 201.491,75.5826 206.5,75C 213.83,74.1446 221.163,73.3113 228.5,72.5C 226.717,70.7684 224.717,69.2684 222.5,68C 230.152,68.3091 237.819,68.3091 245.5,68C 247.861,67.8032 249.528,66.6365 250.5,64.5C 248.876,63.1311 248.376,61.4645 249,59.5C 252.728,61.5191 256.728,62.5191 261,62.5C 272.916,60.4352 284.916,59.1019 297,58.5C 308.928,59.0661 320.762,60.3994 332.5,62.5C 336.939,62.6314 341.106,61.6314 345,59.5C 345.5,59.6667 346,59.8333 346.5,60C 342.164,63.3102 342.497,65.9768 347.5,68C 355.508,68.1893 363.508,68.1893 371.5,68C 369.283,69.2684 367.283,70.7684 365.5,72.5C 372.837,73.3113 380.17,74.1446 387.5,75C 392.484,75.5781 397.151,77.0781 401.5,79.5C 396.581,79.9484 391.914,81.115 387.5,83C 396.048,86.7677 404.048,91.2677 411.5,96.5 Z"/></g>
<g><path style="opacity:1" fill="#322925" d="M 184.5,95.5 C 188.497,96.0669 192.497,96.9002 196.5,98C 189.676,103.245 182.676,108.245 175.5,113C 153.054,133.709 142.054,159.209 142.5,189.5C 133.504,194.267 125.671,200.6 119,208.5C 117.722,218.221 121.889,222.055 131.5,220C 134.484,218.729 137.484,217.562 140.5,216.5C 140.543,229.267 141.71,241.934 144,254.5C 150.564,281.656 156.231,308.989 161,336.5C 162.75,354.827 162.917,373.16 161.5,391.5C 155.978,411.224 144.978,427.391 128.5,440C 120.491,446.115 111.491,448.782 101.5,448C 95.0727,445.895 89.406,442.561 84.5,438C 53.0314,406.261 29.1981,369.427 13,327.5C 7.45946,314.682 4.7928,301.349 5,287.5C 6.82742,280.179 9.49409,273.179 13,266.5C 28.6698,239.499 46.6698,214.166 67,190.5C 89.1223,164.044 112.956,139.211 138.5,116C 152.808,106.736 168.142,99.9026 184.5,95.5 Z"/></g>
<g><path style="opacity:1" fill="#322925" d="M 411.5,96.5 C 431.147,99.9929 448.814,107.826 464.5,120C 500.622,154.443 533.455,191.61 563,231.5C 570.729,242.9 578.062,254.567 585,266.5C 591.382,276.974 594.048,288.307 593,300.5C 579.879,346.751 557.879,388.084 527,424.5C 521.136,430.699 514.969,436.532 508.5,442C 496.597,450.551 484.597,450.551 472.5,442C 459.5,431.999 449,419.833 441,405.5C 439.855,402.568 439.022,399.568 438.5,396.5C 435.888,375.163 436.055,353.83 439,332.5C 443.541,307.336 448.874,282.336 455,257.5C 457.268,244.584 458.768,231.584 459.5,218.5C 462.259,219.885 465.259,220.552 468.5,220.5C 472.363,221.15 475.196,219.817 477,216.5C 477.667,213.5 477.667,210.5 477,207.5C 470.582,200.73 463.415,195.063 455.5,190.5C 456.246,159.809 445.246,133.976 422.5,113C 415.324,108.245 408.324,103.245 401.5,98C 404.619,96.5949 407.952,96.0949 411.5,96.5 Z"/></g>
<g><path style="opacity:1" fill="#6d6664" d="M 320.5,145.5 C 322.707,151.191 324.041,157.191 324.5,163.5C 324.436,169.262 325.103,174.929 326.5,180.5C 329.187,180.664 331.854,180.497 334.5,180C 335.416,179.722 336.082,179.222 336.5,178.5C 359.502,177.194 382.502,177.194 405.5,178.5C 426.807,182.999 446.474,191.499 464.5,204C 468.348,206.647 470.681,210.147 471.5,214.5C 468.794,214.425 466.127,214.092 463.5,213.5C 463.5,212.833 463.167,212.5 462.5,212.5C 462.144,211.13 461.31,210.13 460,209.5C 446.227,202.931 431.727,199.598 416.5,199.5C 416.318,201.591 416.652,203.591 417.5,205.5C 427.325,212.494 434.325,221.66 438.5,233C 438.15,234.257 437.483,234.591 436.5,234C 431.946,228.796 426.446,226.296 420,226.5C 421.827,233.008 423.493,239.675 425,246.5C 425.752,250.837 426.086,255.171 426,259.5C 423.245,250.304 418.745,242.304 412.5,235.5C 407.822,229.823 402.489,224.823 396.5,220.5C 387.536,215.177 377.869,212.177 367.5,211.5C 355.139,208.728 342.806,209.395 330.5,213.5C 332.858,237.218 335.691,260.885 339,284.5C 342.911,305.068 350.077,324.402 360.5,342.5C 368.836,344.835 376.503,348.502 383.5,353.5C 387.826,358.827 392.159,364.16 396.5,369.5C 404.11,372.303 411.11,376.136 417.5,381C 415.167,381.333 412.833,381.667 410.5,382C 409.424,383.726 409.257,385.559 410,387.5C 413.856,393.891 418.189,399.891 423,405.5C 423.941,408.154 424.774,410.821 425.5,413.5C 424.44,417.241 422.107,418.408 418.5,417C 420.589,419.281 421.255,421.781 420.5,424.5C 429.585,441.158 432.751,458.825 430,477.5C 426.076,491.59 420.909,492.09 414.5,479C 413.552,478.517 412.552,478.351 411.5,478.5C 410.841,481.455 410.508,484.455 410.5,487.5C 389.477,465.476 367.81,444.143 345.5,423.5C 341.48,417.129 335.813,412.629 328.5,410C 308.491,404.001 288.491,404.001 268.5,410C 251.162,417.513 245.329,430.347 251,448.5C 254.211,455.87 259.044,461.87 265.5,466.5C 290.116,492.783 315.449,518.45 341.5,543.5C 328.018,550.162 313.851,555.162 299,558.5C 278.662,553.911 259.495,546.411 241.5,536C 238.315,533.116 235.482,529.949 233,526.5C 231.108,527.13 229.441,528.13 228,529.5C 226.832,534.513 225.665,539.513 224.5,544.5C 223.448,544.649 222.448,544.483 221.5,544C 207.838,533.338 196.671,520.505 188,505.5C 187.667,495.833 187.333,486.167 187,476.5C 183.374,480.28 179.874,484.113 176.5,488C 173.339,488.203 171.172,486.703 170,483.5C 165.465,470.176 165.465,456.843 170,443.5C 172.409,436.771 174.909,430.104 177.5,423.5C 179.378,420.755 181.045,417.755 182.5,414.5C 179.19,413.649 176.19,414.316 173.5,416.5C 171.744,415.448 171.077,413.781 171.5,411.5C 175.875,401.749 180.541,392.082 185.5,382.5C 183.585,382.216 181.919,382.549 180.5,383.5C 179.167,383.5 177.833,383.5 176.5,383.5C 176.393,381.097 177.393,379.264 179.5,378C 184.563,375.139 189.563,372.306 194.5,369.5C 196.308,369.509 197.975,369.009 199.5,368C 205.521,362.977 211.188,357.644 216.5,352C 222.564,347.638 228.898,343.805 235.5,340.5C 236.675,340.719 237.675,340.386 238.5,339.5C 241.734,333.703 244.401,327.703 246.5,321.5C 247.931,320.22 248.598,318.553 248.5,316.5C 253.189,306.759 256.189,296.425 257.5,285.5C 258.222,285.082 258.722,284.416 259,283.5C 261.281,271.599 262.448,259.599 262.5,247.5C 262.855,238.411 263.855,229.411 265.5,220.5C 266.451,219.081 266.784,217.415 266.5,215.5C 262.915,214.417 259.249,213.751 255.5,213.5C 241.473,210.751 227.473,210.918 213.5,214C 210.216,215.033 207.216,216.533 204.5,218.5C 200.559,220.14 196.892,222.306 193.5,225C 191.21,226.777 189.543,228.944 188.5,231.5C 186.45,233.237 184.617,235.237 183,237.5C 178.381,245.739 174.048,254.072 170,262.5C 169.596,254.826 169.762,247.159 170.5,239.5C 171.95,235.851 173.617,232.184 175.5,228.5C 175.192,227.692 174.692,227.025 174,226.5C 168.364,229.971 162.864,233.637 157.5,237.5C 156.526,235.257 156.192,232.924 156.5,230.5C 161.104,219.991 168.104,211.325 177.5,204.5C 178.429,203.311 178.762,201.978 178.5,200.5C 173.9,200.28 169.567,200.946 165.5,202.5C 155.555,203.817 146.221,206.817 137.5,211.5C 133.387,213.386 129.054,214.386 124.5,214.5C 124.738,210.862 126.404,208.029 129.5,206C 137.395,200.56 145.395,195.393 153.5,190.5C 156.088,188.375 159.088,187.042 162.5,186.5C 168.784,185.072 174.784,183.072 180.5,180.5C 186.233,178.656 192.233,177.656 198.5,177.5C 222.73,175.231 246.73,176.565 270.5,181.5C 271.386,180.675 271.719,179.675 271.5,178.5C 274.757,169.221 276.757,159.555 277.5,149.5C 280.369,143.204 282.369,136.537 283.5,129.5C 286.186,123.973 289.519,118.806 293.5,114C 301.686,110.827 307.519,113.327 311,121.5C 314.178,129.599 317.345,137.599 320.5,145.5 Z"/></g>
<g><path style="opacity:1" fill="#40352c" d="M 320.5,145.5 C 317.345,137.599 314.178,129.599 311,121.5C 307.519,113.327 301.686,110.827 293.5,114C 289.519,118.806 286.186,123.973 283.5,129.5C 285.058,123.217 288.058,117.717 292.5,113C 298.045,109.51 303.211,110.01 308,114.5C 314.413,123.899 318.579,134.233 320.5,145.5 Z"/></g>
<g><path style="opacity:1" fill="#40352c" d="M 283.5,129.5 C 282.369,136.537 280.369,143.204 277.5,149.5C 278.522,142.443 280.522,135.777 283.5,129.5 Z"/></g>
<g><path style="opacity:1" fill="#4d433c" d="M 277.5,149.5 C 276.757,159.555 274.757,169.221 271.5,178.5C 272.497,168.509 274.497,158.843 277.5,149.5 Z"/></g>
<g><path style="opacity:1" fill="#4c423b" d="M 324.5,163.5 C 326.246,168.572 327.246,173.905 327.5,179.5C 330.455,178.841 333.455,178.508 336.5,178.5C 336.082,179.222 335.416,179.722 334.5,180C 331.854,180.497 329.187,180.664 326.5,180.5C 325.103,174.929 324.436,169.262 324.5,163.5 Z"/></g>
<g><path style="opacity:1" fill="#40362c" d="M 271.5,178.5 C 271.719,179.675 271.386,180.675 270.5,181.5C 246.73,176.565 222.73,175.231 198.5,177.5C 221.781,174.53 245.115,175.197 268.5,179.5C 269.584,179.315 270.584,178.982 271.5,178.5 Z"/></g>
<g><path style="opacity:1" fill="#504640" d="M 405.5,178.5 C 382.502,177.194 359.502,177.194 336.5,178.5C 359.5,174.5 382.5,174.5 405.5,178.5 Z"/></g>
<g><path style="opacity:1" fill="#3e3329" d="M 180.5,180.5 C 174.784,183.072 168.784,185.072 162.5,186.5C 168.085,183.527 174.085,181.527 180.5,180.5 Z"/></g>
<g><path style="opacity:1" fill="#392f27" d="M 405.5,178.5 C 430.936,181.97 453.103,192.303 472,209.5C 472.495,211.473 472.662,213.473 472.5,215.5C 469.123,215.932 466.123,215.265 463.5,213.5C 466.127,214.092 468.794,214.425 471.5,214.5C 470.681,210.147 468.348,206.647 464.5,204C 446.474,191.499 426.807,182.999 405.5,178.5 Z"/></g>
<g><path style="opacity:1" fill="#312823" d="M 153.5,190.5 C 145.395,195.393 137.395,200.56 129.5,206C 126.404,208.029 124.738,210.862 124.5,214.5C 123.348,210.598 124.682,207.431 128.5,205C 136.221,199.113 144.554,194.28 153.5,190.5 Z"/></g>
<g><path style="opacity:1" fill="#3e332a" d="M 165.5,202.5 C 156.251,205.471 146.917,208.471 137.5,211.5C 146.221,206.817 155.555,203.817 165.5,202.5 Z"/></g>
<g><path style="opacity:1" fill="#3d3228" d="M 156.5,230.5 C 160.084,218.69 167.084,209.357 177.5,202.5C 173.554,201.816 169.554,201.816 165.5,202.5C 169.567,200.946 173.9,200.28 178.5,200.5C 178.762,201.978 178.429,203.311 177.5,204.5C 168.104,211.325 161.104,219.991 156.5,230.5 Z"/></g>
<g><path style="opacity:1" fill="#46392d" d="M 459.5,218.5 C 458.768,231.584 457.268,244.584 455,257.5C 448.874,282.336 443.541,307.336 439,332.5C 436.055,353.83 435.888,375.163 438.5,396.5C 437.883,396.389 437.383,396.056 437,395.5C 435.082,399.004 432.916,402.337 430.5,405.5C 425.639,400.284 421.639,394.451 418.5,388C 425.601,381.911 424.935,376.577 416.5,372C 411.579,369.371 406.579,367.038 401.5,365C 396.761,359.934 392.427,354.601 388.5,349C 380.858,344.014 372.858,339.847 364.5,336.5C 356.068,320.709 349.902,304.042 346,286.5C 341.95,263.719 339.45,240.886 338.5,218C 342.114,217.064 345.78,216.564 349.5,216.5C 340.977,233.375 343.31,248.542 356.5,262C 376.671,274.602 393.838,271.436 408,252.5C 409.478,249.842 410.645,247.175 411.5,244.5C 415.312,250.387 418.479,256.721 421,263.5C 423.968,265.991 427.135,266.157 430.5,264C 431.98,261.753 432.647,259.253 432.5,256.5C 431.82,249.726 430.987,243.059 430,236.5C 433.705,240.982 438.038,241.649 443,238.5C 445.215,232.548 444.548,226.882 441,221.5C 437.547,216.379 433.714,211.546 429.5,207C 440.547,208.4 450.547,212.233 459.5,218.5 Z"/></g>
<g><path style="opacity:1" fill="#46392d" d="M 187.5,243.5 C 193.734,263.63 207.4,272.13 228.5,269C 241.675,265.158 250.175,256.658 254,243.5C 255.436,234.733 254.27,226.399 250.5,218.5C 253.238,218.851 255.904,219.518 258.5,220.5C 258.157,252.898 252.99,284.565 243,315.5C 240.295,321.913 237.295,328.247 234,334.5C 226.456,338.022 219.289,342.189 212.5,347C 207.188,352.644 201.521,357.977 195.5,363C 186.337,366.164 178.17,370.998 171,377.5C 169.834,382.496 171,386.829 174.5,390.5C 172.374,393.919 170.374,397.419 168.5,401C 165.438,398.716 163.104,395.55 161.5,391.5C 162.917,373.16 162.75,354.827 161,336.5C 156.231,308.989 150.564,281.656 144,254.5C 141.71,241.934 140.543,229.267 140.5,216.5C 147.069,213.033 154.069,210.866 161.5,210C 155.372,216.919 151.706,224.919 150.5,234C 149.801,241.639 153.135,244.639 160.5,243C 161.931,242.535 163.097,241.701 164,240.5C 162.953,248.089 162.619,255.756 163,263.5C 167.084,269.84 171.75,270.173 177,264.5C 179.476,256.881 182.976,249.881 187.5,243.5 Z"/></g>
<g><path style="opacity:1" fill="#222120" d="M 241.5,216.5 C 239.143,216.337 236.81,216.503 234.5,217C 246.444,229.303 246.444,241.636 234.5,254C 220.702,261.841 209.202,259.341 200,246.5C 198.362,241.129 197.195,235.796 196.5,230.5C 209.901,220.404 224.901,215.738 241.5,216.5 Z"/></g>
<g><path style="opacity:1" fill="#966839" d="M 241.5,216.5 C 244.5,217.167 247.5,217.833 250.5,218.5C 254.27,226.399 255.436,234.733 254,243.5C 250.175,256.658 241.675,265.158 228.5,269C 207.4,272.13 193.734,263.63 187.5,243.5C 189.735,238.648 192.735,234.314 196.5,230.5C 197.195,235.796 198.362,241.129 200,246.5C 209.202,259.341 220.702,261.841 234.5,254C 246.444,241.636 246.444,229.303 234.5,217C 236.81,216.503 239.143,216.337 241.5,216.5 Z"/></g>
<g><path style="opacity:1" fill="#3c3127" d="M 255.5,213.5 C 259.249,213.751 262.915,214.417 266.5,215.5C 266.784,217.415 266.451,219.081 265.5,220.5C 265.5,219.167 265.5,217.833 265.5,216.5C 261.952,215.87 258.619,214.87 255.5,213.5 Z"/></g>
<g><path style="opacity:1" fill="#946739" d="M 353.5,215.5 C 356.977,216.323 360.644,216.823 364.5,217C 354.734,226.034 352.901,236.534 359,248.5C 368.573,259.478 379.739,261.312 392.5,254C 398.237,248.263 401.57,241.429 402.5,233.5C 405.167,237.495 408.167,241.161 411.5,244.5C 410.645,247.175 409.478,249.842 408,252.5C 393.838,271.436 376.671,274.602 356.5,262C 343.31,248.542 340.977,233.375 349.5,216.5C 350.708,215.766 352.041,215.433 353.5,215.5 Z"/></g>
<g><path style="opacity:1" fill="#222120" d="M 353.5,215.5 C 364.702,216.04 375.702,218.207 386.5,222C 387.942,222.377 388.942,223.21 389.5,224.5C 394.365,226.763 398.698,229.763 402.5,233.5C 401.57,241.429 398.237,248.263 392.5,254C 379.739,261.312 368.573,259.478 359,248.5C 352.901,236.534 354.734,226.034 364.5,217C 360.644,216.823 356.977,216.323 353.5,215.5 Z"/></g>
<g><path style="opacity:1" fill="#694a2c" d="M 204.5,218.5 C 199.191,222.803 193.858,227.137 188.5,231.5C 189.543,228.944 191.21,226.777 193.5,225C 196.892,222.306 200.559,220.14 204.5,218.5 Z"/></g>
<g><path style="opacity:1" fill="#f2f2f2" d="M 223.5,223.5 C 232.244,223.413 234.577,227.246 230.5,235C 225.044,237.441 221.378,235.774 219.5,230C 220.226,227.366 221.559,225.199 223.5,223.5 Z"/></g>
<g><path style="opacity:1" fill="#f0f0f0" d="M 389.5,224.5 C 393.194,231.976 390.861,235.809 382.5,236C 377.658,232.306 377.325,228.306 381.5,224C 384.221,223.398 386.887,223.565 389.5,224.5 Z"/></g>
<g><path style="opacity:1" fill="#68492b" d="M 396.5,220.5 C 402.489,224.823 407.822,229.823 412.5,235.5C 412.5,235.833 412.5,236.167 412.5,236.5C 406.833,231.5 401.5,226.167 396.5,220.5 Z"/></g>
<g><path style="opacity:1" fill="#3d3329" d="M 170.5,239.5 C 171.065,235.67 171.898,232.004 173,228.5C 168.412,231.544 163.912,234.71 159.5,238C 158.207,238.49 156.873,238.657 155.5,238.5C 155.194,235.615 155.527,232.948 156.5,230.5C 156.192,232.924 156.526,235.257 157.5,237.5C 162.864,233.637 168.364,229.971 174,226.5C 174.692,227.025 175.192,227.692 175.5,228.5C 173.617,232.184 171.95,235.851 170.5,239.5 Z"/></g>
<g><path style="opacity:1" fill="#4e433a" d="M 462.5,212.5 C 448.512,204.919 433.512,200.919 417.5,200.5C 417.421,201.93 417.754,203.264 418.5,204.5C 429.922,211.908 436.922,222.241 439.5,235.5C 438.127,235.657 436.793,235.49 435.5,235C 431.593,230.721 426.926,228.054 421.5,227C 421.043,227.414 420.709,227.914 420.5,228.5C 425.129,238.641 427.462,249.308 427.5,260.5C 426.5,260.5 425.5,260.5 424.5,260.5C 422.068,251.635 418.068,243.635 412.5,236.5C 412.5,236.167 412.5,235.833 412.5,235.5C 418.745,242.304 423.245,250.304 426,259.5C 426.086,255.171 425.752,250.837 425,246.5C 423.493,239.675 421.827,233.008 420,226.5C 426.446,226.296 431.946,228.796 436.5,234C 437.483,234.591 438.15,234.257 438.5,233C 434.325,221.66 427.325,212.494 417.5,205.5C 416.652,203.591 416.318,201.591 416.5,199.5C 431.727,199.598 446.227,202.931 460,209.5C 461.31,210.13 462.144,211.13 462.5,212.5 Z"/></g>
<g><path style="opacity:1" fill="#44382f" d="M 188.5,231.5 C 181.939,241.451 176.272,251.951 171.5,263C 170.216,263.684 169.049,263.517 168,262.5C 167.616,254.584 168.45,246.917 170.5,239.5C 169.762,247.159 169.596,254.826 170,262.5C 174.048,254.072 178.381,245.739 183,237.5C 184.617,235.237 186.45,233.237 188.5,231.5 Z"/></g>
<g><path style="opacity:1" fill="#4c423a" d="M 262.5,247.5 C 262.448,259.599 261.281,271.599 259,283.5C 258.722,284.416 258.222,285.082 257.5,285.5C 259.019,272.677 260.685,260.01 262.5,247.5 Z"/></g>
<g><path style="opacity:1" fill="#3d3228" d="M 257.5,285.5 C 256.189,296.425 253.189,306.759 248.5,316.5C 251.676,306.113 254.676,295.78 257.5,285.5 Z"/></g>
<g><path style="opacity:1" fill="#4f433a" d="M 367.5,211.5 C 355.293,209.862 343.293,210.862 331.5,214.5C 334.045,239.241 337.212,263.908 341,288.5C 345.03,306.758 351.53,324.091 360.5,340.5C 368.973,343.547 376.973,347.547 384.5,352.5C 388.826,357.827 393.159,363.16 397.5,368.5C 404.859,371.262 411.692,374.928 418,379.5C 418.483,380.448 418.649,381.448 418.5,382.5C 416.143,382.337 413.81,382.503 411.5,383C 410.978,383.561 410.645,384.228 410.5,385C 414.39,391.956 418.89,398.456 424,404.5C 424.833,407 425.667,409.5 426.5,412C 426.43,412.765 426.097,413.265 425.5,413.5C 424.774,410.821 423.941,408.154 423,405.5C 418.189,399.891 413.856,393.891 410,387.5C 409.257,385.559 409.424,383.726 410.5,382C 412.833,381.667 415.167,381.333 417.5,381C 411.11,376.136 404.11,372.303 396.5,369.5C 392.159,364.16 387.826,358.827 383.5,353.5C 376.503,348.502 368.836,344.835 360.5,342.5C 350.077,324.402 342.911,305.068 339,284.5C 335.691,260.885 332.858,237.218 330.5,213.5C 342.806,209.395 355.139,208.728 367.5,211.5 Z"/></g>
<g><path style="opacity:1" fill="#3d3228" d="M 246.5,321.5 C 244.401,327.703 241.734,333.703 238.5,339.5C 237.675,340.386 236.675,340.719 235.5,340.5C 239.419,334.33 243.086,327.997 246.5,321.5 Z"/></g>
<g><path style="opacity:1" fill="#3e332a" d="M 235.5,340.5 C 228.898,343.805 222.564,347.638 216.5,352C 211.188,357.644 205.521,362.977 199.5,368C 197.975,369.009 196.308,369.509 194.5,369.5C 199.647,365.197 204.98,361.03 210.5,357C 217.147,349.005 225.481,343.505 235.5,340.5 Z"/></g>
<g><path style="opacity:1" fill="#3d3228" d="M 194.5,369.5 C 189.563,372.306 184.563,375.139 179.5,378C 177.393,379.264 176.393,381.097 176.5,383.5C 177.833,383.5 179.167,383.5 180.5,383.5C 179.081,384.451 177.415,384.784 175.5,384.5C 174.959,381.348 175.959,378.848 178.5,377C 183.474,373.679 188.807,371.179 194.5,369.5 Z"/></g>
<g><path style="opacity:1" fill="#3d3229" d="M 180.5,383.5 C 181.919,382.549 183.585,382.216 185.5,382.5C 180.541,392.082 175.875,401.749 171.5,411.5C 171.421,408.729 171.921,406.063 173,403.5C 176.455,396.753 180.289,390.253 184.5,384C 183.207,383.51 181.873,383.343 180.5,383.5 Z"/></g>
<g><path style="opacity:1" fill="#010202" d="M 345.5,423.5 C 350.575,436.211 348.742,447.878 340,458.5C 317.197,481.223 292.364,483.889 265.5,466.5C 259.044,461.87 254.211,455.87 251,448.5C 245.329,430.347 251.162,417.513 268.5,410C 288.491,404.001 308.491,404.001 328.5,410C 335.813,412.629 341.48,417.129 345.5,423.5 Z"/></g>
<g><path style="opacity:1" fill="#3f342b" d="M 177.5,423.5 C 178.174,420.378 179.007,417.378 180,414.5C 178.069,416.725 175.903,417.392 173.5,416.5C 176.19,414.316 179.19,413.649 182.5,414.5C 181.045,417.755 179.378,420.755 177.5,423.5 Z"/></g>
<g><path style="opacity:1" fill="#716661" d="M 345.5,423.5 C 367.81,444.143 389.477,465.476 410.5,487.5C 410.666,493.176 410.499,498.843 410,504.5C 402.788,518.719 392.955,530.886 380.5,541C 378.667,542.167 376.833,543.333 375,544.5C 372.387,539.861 370.72,534.861 370,529.5C 368.559,528.13 366.892,527.13 365,526.5C 359.005,534.744 351.172,540.41 341.5,543.5C 315.449,518.45 290.116,492.783 265.5,466.5C 292.364,483.889 317.197,481.223 340,458.5C 348.742,447.878 350.575,436.211 345.5,423.5 Z"/></g>
</svg>
