<?xml version="1.0" encoding="UTF-8"?>
<!DOCTYPE svg PUBLIC "-//W3C//DTD SVG 1.1//EN" "http://www.w3.org/Graphics/SVG/1.1/DTD/svg11.dtd">
<svg xmlns="http://www.w3.org/2000/svg" version="1.1" width="600px" height="600px" style="shape-rendering:geometricPrecision; text-rendering:geometricPrecision; image-rendering:optimizeQuality; fill-rule:evenodd; clip-rule:evenodd" xmlns:xlink="http://www.w3.org/1999/xlink">
<g><path style="opacity:0.969" fill="#030201" d="M 599.5,374.5 C 599.5,385.5 599.5,396.5 599.5,407.5C 597.913,417.283 597.08,427.283 597,437.5C 596.989,448.866 592.322,457.533 583,463.5C 578.158,471.181 573.825,479.181 570,487.5C 567.203,491.299 564.036,494.799 560.5,498C 544.107,503.024 527.773,508.357 511.5,514C 498.045,519.41 485.211,518.243 473,510.5C 468.91,520.155 462.743,528.322 454.5,535C 451.148,537.216 447.648,538.049 444,537.5C 440.222,543.989 434.722,548.489 427.5,551C 419.056,556.107 411.056,555.607 403.5,549.5C 381.127,567.577 355.461,577.744 326.5,580C 299.14,582.784 272.14,580.784 245.5,574C 227.986,569.498 212.819,560.998 200,548.5C 196.851,552.49 192.685,554.49 187.5,554.5C 179.157,552.996 171.49,549.829 164.5,545C 162.242,542.415 160.409,539.582 159,536.5C 156.853,537.476 154.686,537.309 152.5,536C 147.748,533.252 143.581,529.752 140,525.5C 136.655,520.138 133.322,514.804 130,509.5C 124.332,511.251 118.832,513.418 113.5,516C 105.017,517.843 96.6834,517.176 88.5,514C 72.689,508.396 56.689,503.396 40.5,499C 36.3333,496.167 32.8333,492.667 30,488.5C 25.6667,480.5 21.3333,472.5 17,464.5C 6.71584,457.697 1.71584,448.031 2,435.5C 1.66667,427.833 1.33333,420.167 1,412.5C 0.801916,410.618 0.301916,408.952 -0.5,407.5C -0.5,396.5 -0.5,385.5 -0.5,374.5C 5.19708,362.65 6.86375,350.15 4.5,337C 4.93536,332.758 5.76869,328.591 7,324.5C 12.2981,313.186 17.6314,301.853 23,290.5C 23.4348,283.326 24.7681,276.326 27,269.5C 33.9105,256.006 41.5772,243.006 50,230.5C 51.0716,219.029 55.405,209.029 63,200.5C 70.3874,193.113 77.7208,185.779 85,178.5C 87.4268,174.46 89.0935,170.126 90,165.5C 93.6815,157.483 99.1815,150.983 106.5,146C 116.301,139.678 125.468,132.512 134,124.5C 135,122.5 136,120.5 137,118.5C 143.012,113.098 148.846,107.598 154.5,102C 164.686,96.0334 175.686,92.3667 187.5,91C 191.889,89.9715 195.889,88.1381 199.5,85.5C 193.824,81.1528 190.157,75.4862 188.5,68.5C 190.421,58.1766 196.755,53.01 207.5,53C 201.54,35.294 207.54,28.9607 225.5,34C 236.381,39.9403 246.381,47.107 255.5,55.5C 256.456,50.5984 258.79,46.4317 262.5,43C 270.824,40.1247 276.991,42.6247 281,50.5C 280.825,43.9929 282.992,38.4929 287.5,34C 294.102,31.5253 299.602,33.0253 304,38.5C 307.077,45.2443 310.244,51.911 313.5,58.5C 316.37,50.3906 319.537,42.3906 323,34.5C 329.497,26.6067 336.497,25.94 344,32.5C 345.6,35.3343 346.766,38.3343 347.5,41.5C 353.942,36.0604 361.275,32.3937 369.5,30.5C 381.788,33.5776 385.121,40.911 379.5,52.5C 385.577,53.4548 390.744,56.1215 395,60.5C 398.028,65.2443 398.195,70.0776 395.5,75C 398.439,78.1486 400.439,81.8153 401.5,86C 405.5,87.6667 409.5,89.3333 413.5,91C 421.948,92.5287 430.281,94.5287 438.5,97C 444.067,99.3576 448.233,103.191 451,108.5C 458.078,112.314 463.078,117.981 466,125.5C 475.716,133.939 485.882,141.772 496.5,149C 501.805,153.299 505.972,158.466 509,164.5C 510.027,169.921 512.027,174.921 515,179.5C 525.067,188.898 534.4,198.898 543,209.5C 545.911,215.145 547.578,221.145 548,227.5C 555.415,240.665 563.081,253.665 571,266.5C 574.021,274.942 576.021,283.608 577,292.5C 583.155,303.809 588.488,315.475 593,327.5C 593.918,330.598 594.418,333.765 594.5,337C 592.62,350.072 594.287,362.572 599.5,374.5 Z"/></g>
<g><path style="opacity:1" fill="#e9cc8f" d="M 441.5,114.5 C 439.901,116.604 438.068,118.604 436,120.5C 435.333,122.833 435.333,125.167 436,127.5C 449.752,136.629 463.919,145.129 478.5,153C 481.965,155.463 485.131,158.296 488,161.5C 488.743,163.441 488.576,165.274 487.5,167C 484.145,167.546 480.812,167.379 477.5,166.5C 475.275,166.305 473.609,167.139 472.5,169C 481.235,185.302 488.735,202.136 495,219.5C 495.796,223.755 495.629,227.921 494.5,232C 490.843,230.783 487.009,229.617 483,228.5C 480.849,228.643 479.182,229.643 478,231.5C 477.29,239.932 477.956,248.265 480,256.5C 483.659,268.142 486.492,279.975 488.5,292C 488.695,294.352 488.028,296.352 486.5,298C 483.411,298.148 480.578,298.981 478,300.5C 475.773,299.637 473.607,298.637 471.5,297.5C 468.576,301.315 467.742,305.649 469,310.5C 471.785,318.071 475.119,325.405 479,332.5C 480.101,337.998 479.268,343.165 476.5,348C 475.6,357.26 475.6,366.593 476.5,376C 476.011,383.454 474.345,390.621 471.5,397.5C 470.635,398.583 469.635,398.749 468.5,398C 465.387,394.887 462.221,391.721 459,388.5C 458.333,391.833 458.333,395.167 459,398.5C 461.17,413.517 463.337,428.517 465.5,443.5C 465.895,449.813 464.728,455.813 462,461.5C 457.127,419.113 441.793,381.113 416,347.5C 385.099,312.688 346.266,295.355 299.5,295.5C 242.932,297.285 200.098,322.285 171,370.5C 155.074,399.612 144.74,430.612 140,463.5C 136.74,457.221 135.24,450.554 135.5,443.5C 137.838,425.637 140.504,407.804 143.5,390C 143.333,389.167 143.167,388.333 143,387.5C 139.977,392.023 136.144,395.69 131.5,398.5C 129.803,397.636 128.637,396.303 128,394.5C 126.574,388.701 125.407,382.868 124.5,377C 126.186,370.262 126.686,363.428 126,356.5C 125.586,356.957 125.086,357.291 124.5,357.5C 123.397,354.361 123.397,351.194 124.5,348C 122.911,344.49 121.911,340.824 121.5,337C 121.667,335.5 121.833,334 122,332.5C 125.939,324.955 129.606,317.288 133,309.5C 134.407,304.633 133.24,300.633 129.5,297.5C 126.099,300.609 122.599,300.942 119,298.5C 114.507,300.687 112.34,299.353 112.5,294.5C 116.525,275.875 120.358,257.209 124,238.5C 125.098,234.495 124.265,230.995 121.5,228C 120.667,227.833 119.833,227.667 119,227.5C 115.08,229.098 111.414,231.098 108,233.5C 107.167,233.167 106.333,232.833 105.5,232.5C 104.2,227.479 104.367,222.479 106,217.5C 111.34,203.121 118.007,189.455 126,176.5C 127.564,173.538 127.731,170.538 126.5,167.5C 125.5,167.167 124.5,166.833 123.5,166.5C 120.188,167.379 116.855,167.546 113.5,167C 112.424,165.274 112.257,163.441 113,161.5C 116.251,157.578 120.084,154.412 124.5,152C 135.167,146 145.833,140 156.5,134C 159.423,131.955 162.257,129.788 165,127.5C 166.301,125.635 166.635,123.635 166,121.5C 163.969,118.645 161.803,115.978 159.5,113.5C 160.88,110.448 163.214,108.282 166.5,107C 176.374,103.909 186.374,101.242 196.5,99C 202.991,95.9215 209.325,92.5882 215.5,89C 211.538,87.7892 210.871,85.7892 213.5,83C 209.333,79.5 205.167,76 201,72.5C 198.42,66.7159 200.42,63.7159 207,63.5C 209.89,64.13 212.724,64.9633 215.5,66C 222.167,70.6667 228.833,75.3333 235.5,80C 237.695,81.373 240.029,81.7063 242.5,81C 233.917,72.4217 226.084,63.2551 219,53.5C 215.998,49.8697 215.165,45.8697 216.5,41.5C 225.504,45.6645 233.838,50.8312 241.5,57C 247.122,63.4643 253.455,68.9643 260.5,73.5C 261.647,73.1822 262.481,72.5156 263,71.5C 263.498,68.1832 263.665,64.8499 263.5,61.5C 264.822,61.33 265.989,61.6634 267,62.5C 267.176,59.1182 267.676,55.7848 268.5,52.5C 268.833,52.6667 269.167,52.8333 269.5,53C 273.878,59.5869 277.878,66.4203 281.5,73.5C 283.789,75.5923 286.289,75.9256 289,74.5C 288.646,69.0017 288.812,63.6684 289.5,58.5C 290.5,58.5 291.5,58.5 292.5,58.5C 292.5,53.8333 292.5,49.1667 292.5,44.5C 293.386,43.2241 294.386,43.2241 295.5,44.5C 299.43,53.1251 303.264,61.7917 307,70.5C 311.333,75.8333 315.667,75.8333 320,70.5C 323.763,62.4513 326.763,54.118 329,45.5C 329.883,42.8976 331.383,40.7309 333.5,39C 334.449,38.3828 335.282,38.5494 336,39.5C 336.157,47.5785 335.324,55.5785 333.5,63.5C 333.833,64.1667 334.167,64.8333 334.5,65.5C 344.124,56.7068 354.457,48.8734 365.5,42C 367.473,41.5045 369.473,41.3379 371.5,41.5C 371.598,45.2497 370.431,48.583 368,51.5C 360.977,60.8695 353.477,69.8695 345.5,78.5C 347.466,79.372 349.466,79.2053 351.5,78C 358.332,73.4161 365.332,69.0827 372.5,65C 377.395,62.6059 381.895,63.1059 386,66.5C 386.635,68.6354 386.301,70.6354 385,72.5C 380.5,76.3333 376,80.1667 371.5,84C 377.5,84 383.5,84 389.5,84C 389.833,84.3333 390.167,84.6667 390.5,85C 389.122,86.7134 387.455,88.0467 385.5,89C 399.14,98.1027 414.14,103.436 430.5,105C 433.167,106.333 435.833,107.667 438.5,109C 440.607,110.264 441.607,112.097 441.5,114.5 Z"/></g>
<g><path style="opacity:1" fill="#95835b" d="M 292.5,44.5 C 292.5,49.1667 292.5,53.8333 292.5,58.5C 291.5,58.5 290.5,58.5 289.5,58.5C 291.047,53.9457 292.047,49.279 292.5,44.5 Z"/></g>
<g><path style="opacity:1" fill="#d6b381" d="M 159.5,113.5 C 161.803,115.978 163.969,118.645 166,121.5C 166.635,123.635 166.301,125.635 165,127.5C 162.257,129.788 159.423,131.955 156.5,134C 145.833,140 135.167,146 124.5,152C 120.084,154.412 116.251,157.578 113,161.5C 112.257,163.441 112.424,165.274 113.5,167C 116.855,167.546 120.188,167.379 123.5,166.5C 124.5,166.833 125.5,167.167 126.5,167.5C 127.731,170.538 127.564,173.538 126,176.5C 118.007,189.455 111.34,203.121 106,217.5C 104.367,222.479 104.2,227.479 105.5,232.5C 106.333,232.833 107.167,233.167 108,233.5C 111.414,231.098 115.08,229.098 119,227.5C 119.833,227.667 120.667,227.833 121.5,228C 124.265,230.995 125.098,234.495 124,238.5C 120.358,257.209 116.525,275.875 112.5,294.5C 112.34,299.353 114.507,300.687 119,298.5C 122.599,300.942 126.099,300.609 129.5,297.5C 133.24,300.633 134.407,304.633 133,309.5C 129.606,317.288 125.939,324.955 122,332.5C 121.833,334 121.667,335.5 121.5,337C 121.911,340.824 122.911,344.49 124.5,348C 123.397,351.194 123.397,354.361 124.5,357.5C 125.086,357.291 125.586,356.957 126,356.5C 126.686,363.428 126.186,370.262 124.5,377C 125.407,382.868 126.574,388.701 128,394.5C 128.637,396.303 129.803,397.636 131.5,398.5C 136.144,395.69 139.977,392.023 143,387.5C 143.167,388.333 143.333,389.167 143.5,390C 140.504,407.804 137.838,425.637 135.5,443.5C 135.24,450.554 136.74,457.221 140,463.5C 144.74,430.612 155.074,399.612 171,370.5C 200.098,322.285 242.932,297.285 299.5,295.5C 346.266,295.355 385.099,312.688 416,347.5C 441.793,381.113 457.127,419.113 462,461.5C 464.728,455.813 465.895,449.813 465.5,443.5C 463.337,428.517 461.17,413.517 459,398.5C 458.333,395.167 458.333,391.833 459,388.5C 462.221,391.721 465.387,394.887 468.5,398C 469.635,398.749 470.635,398.583 471.5,397.5C 474.345,390.621 476.011,383.454 476.5,376C 475.6,366.593 475.6,357.26 476.5,348C 479.268,343.165 480.101,337.998 479,332.5C 475.119,325.405 471.785,318.071 469,310.5C 467.742,305.649 468.576,301.315 471.5,297.5C 473.607,298.637 475.773,299.637 478,300.5C 480.578,298.981 483.411,298.148 486.5,298C 488.028,296.352 488.695,294.352 488.5,292C 486.492,279.975 483.659,268.142 480,256.5C 477.956,248.265 477.29,239.932 478,231.5C 479.182,229.643 480.849,228.643 483,228.5C 487.009,229.617 490.843,230.783 494.5,232C 495.629,227.921 495.796,223.755 495,219.5C 488.735,202.136 481.235,185.302 472.5,169C 473.609,167.139 475.275,166.305 477.5,166.5C 480.812,167.379 484.145,167.546 487.5,167C 488.576,165.274 488.743,163.441 488,161.5C 485.131,158.296 481.965,155.463 478.5,153C 463.919,145.129 449.752,136.629 436,127.5C 435.333,125.167 435.333,122.833 436,120.5C 438.068,118.604 439.901,116.604 441.5,114.5C 449.202,118.373 454.702,124.373 458,132.5C 467.716,140.939 477.882,148.772 488.5,156C 491.333,158.833 494.167,161.667 497,164.5C 499.543,170.824 502.21,177.157 505,183.5C 513.303,192.804 521.969,201.804 531,210.5C 536.034,216.933 538.701,224.267 539,232.5C 545.935,245.095 553.269,257.428 561,269.5C 564.686,276.719 566.353,284.386 566,292.5C 571.94,304.714 577.607,317.047 583,329.5C 583.564,332.155 584.064,334.821 584.5,337.5C 583.452,344.144 583.286,350.81 584,357.5C 586.667,367.5 589.333,377.5 592,387.5C 592.667,391.167 592.667,394.833 592,398.5C 589.816,401.866 588.483,405.533 588,409.5C 588.468,423.455 586.801,437.121 583,450.5C 579.368,453.13 576.035,456.13 573,459.5C 568.254,468.661 563.254,477.661 558,486.5C 553.331,490.597 547.831,492.764 541.5,493C 531.759,496.136 522.092,499.469 512.5,503C 504.399,506.033 496.066,507.033 487.5,506C 480.205,502.569 472.705,499.736 465,497.5C 462.761,510.322 456.261,520.322 445.5,527.5C 444.066,525.78 443.233,523.78 443,521.5C 442.558,513.595 441.224,505.929 439,498.5C 437.149,508.669 435.816,519.002 435,529.5C 434.308,532.806 432.808,535.64 430.5,538C 425.618,540.46 420.618,542.627 415.5,544.5C 413.813,544.24 412.313,543.573 411,542.5C 408.667,538.833 406.333,535.167 404,531.5C 393.733,545.085 380.566,554.919 364.5,561C 337.478,569.706 309.812,572.706 281.5,570C 258.372,568.848 237.039,562.181 217.5,550C 210.62,544.621 204.62,538.454 199.5,531.5C 196.476,535.034 193.81,538.867 191.5,543C 189.635,544.301 187.635,544.635 185.5,544C 181.082,542.194 176.749,540.194 172.5,538C 170.959,536.421 169.792,534.587 169,532.5C 167.538,522.212 166.538,511.879 166,501.5C 165,500.5 164,499.5 163,498.5C 161.179,507.759 159.679,517.092 158.5,526.5C 147.192,520.31 140.692,510.644 139,497.5C 138.439,496.978 137.772,496.645 137,496.5C 127.889,498.87 119.056,502.037 110.5,506C 102.271,506.926 94.2715,505.926 86.5,503C 72.6115,497.708 58.6115,493.041 44.5,489C 41.9598,486.795 39.7932,484.295 38,481.5C 34.0936,472.682 29.4269,464.348 24,456.5C 20.0533,454.377 17.0533,451.377 15,447.5C 12.2185,434.331 10.8852,420.998 11,407.5C 8.41524,402.828 6.91524,397.828 6.5,392.5C 9.19283,379.395 12.3595,366.395 16,353.5C 15.8107,345.508 15.8107,337.508 16,329.5C 21.2981,318.186 26.6314,306.853 32,295.5C 33.7503,288.575 35.0837,281.575 36,274.5C 43.4146,261.335 51.0813,248.335 59,235.5C 60.8407,230.297 62.174,224.964 63,219.5C 64,217.5 65,215.5 66,213.5C 74.3027,204.196 82.9693,195.196 92,186.5C 95.6805,181.804 98.0139,176.471 99,170.5C 102.738,163.427 107.904,157.594 114.5,153C 124.301,146.678 133.468,139.512 142,131.5C 145.519,123.175 151.352,117.175 159.5,113.5 Z"/></g>
<g><path style="opacity:1" fill="#d6b381" d="M 397.5,241.5 C 396.751,240.469 396.085,239.302 395.5,238C 383.811,232.048 371.477,228.214 358.5,226.5C 348.38,224.434 338.047,222.934 327.5,222C 321.402,216.296 319.902,209.462 323,201.5C 328.335,194.249 335.502,190.916 344.5,191.5C 380.813,195.401 409.647,212.068 431,241.5C 434.089,251.745 430.589,255.245 420.5,252C 413.622,247.06 406.289,242.894 398.5,239.5C 397.702,239.957 397.369,240.624 397.5,241.5 Z"/></g>
<g><path style="opacity:1" fill="#d6b481" d="M 241.5,227.5 C 228.798,227.922 216.465,230.755 204.5,236C 203.934,236.995 203.267,237.828 202.5,238.5C 202.265,237.903 201.765,237.57 201,237.5C 199.5,238 198,238.5 196.5,239C 188.018,243.325 179.518,247.492 171,251.5C 168.849,251.357 167.182,250.357 166,248.5C 165.035,244.218 165.702,240.218 168,236.5C 191.73,208.72 221.896,194.553 258.5,194C 274.606,196.39 280.439,205.223 276,220.5C 274.833,221.667 273.667,222.833 272.5,224C 262.105,225.795 251.772,226.962 241.5,227.5 Z"/></g>
<g><path style="opacity:1" fill="#090706" d="M 241.5,227.5 C 252.584,236.268 255.417,247.268 250,260.5C 242.075,272.924 230.909,277.091 216.5,273C 202.716,265.141 198.05,253.641 202.5,238.5C 203.267,237.828 203.934,236.995 204.5,236C 216.465,230.755 228.798,227.922 241.5,227.5 Z"/></g>
<g><path style="opacity:1" fill="#060504" d="M 358.5,226.5 C 371.477,228.214 383.811,232.048 395.5,238C 396.085,239.302 396.751,240.469 397.5,241.5C 398.54,266.299 386.873,276.799 362.5,273C 348.53,265.886 343.697,254.719 348,239.5C 350.257,234.085 353.757,229.751 358.5,226.5 Z"/></g>
<g><path style="opacity:1" fill="#302826" d="M 369.5,239.5 C 369.155,246.657 372.488,249.824 379.5,249C 381.323,248.003 382.99,246.836 384.5,245.5C 385.5,245.5 386.5,245.5 387.5,245.5C 386.811,258.364 380.145,264.197 367.5,263C 359.129,259.091 355.963,252.591 358,243.5C 360.272,237.44 364.106,236.107 369.5,239.5 Z"/></g>
<g><path style="opacity:1" fill="#f5f5f5" d="M 239.5,242.5 C 237.208,249.456 232.875,251.123 226.5,247.5C 224.585,245.929 223.585,243.929 223.5,241.5C 227.836,239.335 232.502,238.501 237.5,239C 238.823,239.816 239.489,240.983 239.5,242.5 Z"/></g>
<g><path style="opacity:1" fill="#f4f4f4" d="M 369.5,239.5 C 374.895,240.738 379.895,242.738 384.5,245.5C 382.99,246.836 381.323,248.003 379.5,249C 372.488,249.824 369.155,246.657 369.5,239.5 Z"/></g>
<g><path style="opacity:1" fill="#302826" d="M 223.5,241.5 C 223.585,243.929 224.585,245.929 226.5,247.5C 232.875,251.123 237.208,249.456 239.5,242.5C 243.648,254.516 239.314,261.516 226.5,263.5C 217.454,262.944 212.454,258.11 211.5,249C 211.354,246.966 212.02,245.299 213.5,244C 216.618,242.273 219.951,241.439 223.5,241.5 Z"/></g>
<g><path style="opacity:1" fill="#070605" d="M 286.5,359.5 C 301.895,358.265 316.895,360.098 331.5,365C 345.635,371.437 351.135,382.27 348,397.5C 344.854,407.963 338.687,416.13 329.5,422C 325.835,423.497 322.502,425.497 319.5,428C 314.787,429.126 310.287,430.626 306,432.5C 301.241,438.941 301.408,445.107 306.5,451C 317.239,456.133 328.239,460.466 339.5,464C 352.831,466.333 364.331,462.833 374,453.5C 378.4,447.944 382.566,442.277 386.5,436.5C 387.54,431.366 389.54,426.699 392.5,422.5C 395.749,420.778 397.582,421.778 398,425.5C 398.893,431.672 398.227,437.672 396,443.5C 387.65,459.953 376.483,474.286 362.5,486.5C 358.271,501.693 352.771,516.36 346,530.5C 327.243,548.733 305.076,554.566 279.5,548C 263.508,543.596 252.342,533.763 246,518.5C 242.591,507.27 238.591,496.27 234,485.5C 221.381,474.899 211.048,462.565 203,448.5C 199.502,440.355 198.835,432.021 201,423.5C 202.466,421.675 204.299,421.175 206.5,422C 211.3,437.777 220.3,450.444 233.5,460C 240.294,464.166 247.627,465.499 255.5,464C 267.996,461.057 279.996,456.723 291.5,451C 296.232,445.965 296.732,440.465 293,434.5C 286.593,431.597 280.093,428.764 273.5,426C 264.262,421.305 257.095,414.472 252,405.5C 244.277,384.78 250.777,370.614 271.5,363C 276.705,362.149 281.705,360.982 286.5,359.5 Z"/></g>
<g><path style="opacity:1" fill="#2e2c2b" d="M 286.5,370.5 C 297.211,370.188 307.878,370.688 318.5,372C 336.808,375.457 342.308,385.624 335,402.5C 332.07,406.553 328.57,410.053 324.5,413C 316.286,417.525 307.786,421.358 299,424.5C 285.26,421.373 273.593,414.706 264,404.5C 257.212,394.438 258.045,385.271 266.5,377C 272.992,373.891 279.658,371.724 286.5,370.5 Z"/></g>
<g><path style="opacity:1" fill="#f09c9f" d="M 348.5,475.5 C 348.219,484.924 347.219,494.257 345.5,503.5C 339.364,527.347 323.864,539.68 299,540.5C 272.433,539.665 256.6,526.332 251.5,500.5C 250.723,491.843 250.056,483.177 249.5,474.5C 256.674,474.458 263.674,473.291 270.5,471C 280.406,467.615 290.073,463.781 299.5,459.5C 315.018,467.673 331.352,473.007 348.5,475.5 Z"/></g>
<g><path style="opacity:1" fill="#302d2c" d="M 249.5,474.5 C 250.056,483.177 250.723,491.843 251.5,500.5C 249.187,490.708 244.854,481.874 238.5,474C 242.079,474.337 245.746,474.504 249.5,474.5 Z"/></g>
<g><path style="opacity:1" fill="#302d2c" d="M 345.5,503.5 C 347.219,494.257 348.219,484.924 348.5,475.5C 351.92,475.483 355.254,475.317 358.5,475C 351.883,482.922 348.05,492.089 347,502.5C 346.617,503.056 346.117,503.389 345.5,503.5 Z"/></g>
</svg>
