<?xml version="1.0" encoding="UTF-8"?>
<!DOCTYPE svg PUBLIC "-//W3C//DTD SVG 1.1//EN" "http://www.w3.org/Graphics/SVG/1.1/DTD/svg11.dtd">
<svg xmlns="http://www.w3.org/2000/svg" version="1.1" width="600px" height="600px" style="shape-rendering:geometricPrecision; text-rendering:geometricPrecision; image-rendering:optimizeQuality; fill-rule:evenodd; clip-rule:evenodd" xmlns:xlink="http://www.w3.org/1999/xlink">
<g><path style="opacity:0.966" fill="#050505" d="M 251.5,49.5 C 268.395,50.6325 284.229,55.2992 299,63.5C 312.631,56.1231 327.131,51.4565 342.5,49.5C 350.632,48.9691 355.466,52.6358 357,60.5C 357.561,61.0219 358.228,61.3552 359,61.5C 371.386,58.6207 383.886,56.7873 396.5,56C 403.411,56.5809 407.411,60.2476 408.5,67C 453.913,76.1417 490.08,99.3084 517,136.5C 537.145,169.785 555.478,204.118 572,239.5C 581.698,265.711 583.865,292.545 578.5,320C 579.792,334.169 581.125,348.335 582.5,362.5C 581.955,375.68 578.455,388.013 572,399.5C 562.636,413.87 550.469,425.037 535.5,433C 520.097,439.113 504.097,441.947 487.5,441.5C 480.445,440.706 473.445,440.206 466.5,440C 470.776,462.854 467.609,484.687 457,505.5C 453.436,512.732 447.769,517.398 440,519.5C 439.127,519.265 438.293,518.931 437.5,518.5C 433.006,525.429 426.672,529.929 418.5,532C 406.649,535.505 400.149,531.005 399,518.5C 396.292,525.765 391.792,531.599 385.5,536C 376.927,538.047 371.26,534.88 368.5,526.5C 362.62,530.718 356.287,534.051 349.5,536.5C 348.914,536.291 348.414,535.957 348,535.5C 343.811,539.178 338.977,541.678 333.5,543C 316.163,549.282 298.496,550.616 280.5,547C 273.365,545.466 266.365,543.466 259.5,541C 256.241,539.789 253.408,537.956 251,535.5C 250.586,535.957 250.086,536.291 249.5,536.5C 242.1,533.633 235.1,529.966 228.5,525.5C 225.4,535.718 219.067,538.884 209.5,535C 204.898,530.963 201.398,526.129 199,520.5C 196.577,533.107 189.41,536.607 177.5,531C 170.253,529.25 164.92,525.083 161.5,518.5C 157.05,519.299 153.05,518.132 149.5,515C 138.251,501.271 132.085,485.438 131,467.5C 130.155,458.543 130.655,449.71 132.5,441C 109.614,444.383 87.281,442.05 65.5,434C 35.5938,420.194 19.2605,396.86 16.5,364C 18.1633,349.694 19.4967,335.361 20.5,321C 14.8026,290.015 18.3026,260.181 31,231.5C 46.6501,200.194 63.3168,169.527 81,139.5C 107.199,101.629 143.033,78.1291 188.5,69C 190.554,66.5393 192.054,63.7059 193,60.5C 196.717,57.3171 201.05,55.6505 206,55.5C 217.224,57.1781 228.391,59.1781 239.5,61.5C 240.167,61.1667 240.833,60.8333 241.5,60.5C 242.851,54.8235 246.185,51.1568 251.5,49.5 Z"/></g>
<g><path style="opacity:1" fill="#b9b9b9" d="M 392.5,79.5 C 395.797,81.6013 399.463,82.9347 403.5,83.5C 408.265,85.871 413.265,87.871 418.5,89.5C 421.944,91.736 425.277,94.236 428.5,97C 428.167,97.3333 427.833,97.6667 427.5,98C 416.992,98.1697 406.659,98.6697 396.5,99.5C 393.833,100.5 393.833,101.5 396.5,102.5C 398.233,106.565 401.233,109.232 405.5,110.5C 407.296,112.9 409.63,114.567 412.5,115.5C 414.296,117.9 416.63,119.567 419.5,120.5C 419.973,121.906 420.973,122.573 422.5,122.5C 424.296,124.9 426.63,126.567 429.5,127.5C 430.262,129.262 431.596,130.262 433.5,130.5C 435.296,132.9 437.63,134.567 440.5,135.5C 444.258,139.592 448.591,142.926 453.5,145.5C 454.585,147.587 456.251,148.92 458.5,149.5C 459.911,151.914 461.911,153.581 464.5,154.5C 464.5,155.167 464.833,155.5 465.5,155.5C 470.167,160.833 475.167,165.833 480.5,170.5C 483.144,174.67 485.644,179.003 488,183.5C 489.771,188.721 487.938,191.555 482.5,192C 477.103,192.227 471.769,192.894 466.5,194C 463.253,194.991 462.253,196.825 463.5,199.5C 464.514,205.192 466.848,210.192 470.5,214.5C 479.998,232.168 489.998,249.501 500.5,266.5C 501.742,270.655 503.742,274.322 506.5,277.5C 507.992,281.818 509.992,285.818 512.5,289.5C 513.738,295.211 513.738,300.878 512.5,306.5C 511.5,306.5 510.5,306.5 509.5,306.5C 507.45,304.453 505.117,302.786 502.5,301.5C 498.017,295.425 492.017,292.259 484.5,292C 483.748,292.671 483.414,293.504 483.5,294.5C 482.732,295.263 482.232,296.263 482,297.5C 480.494,312.883 478.66,328.216 476.5,343.5C 475.539,345.265 475.205,347.265 475.5,349.5C 474.087,352.219 473.42,355.219 473.5,358.5C 472.685,359.429 471.852,360.429 471,361.5C 469.45,377.497 463.616,391.663 453.5,404C 451.975,405.009 450.308,405.509 448.5,405.5C 438.796,376.931 423.13,352.098 401.5,331C 393.516,324.187 384.849,318.354 375.5,313.5C 375.167,312.833 374.833,312.167 374.5,311.5C 375.359,308.949 376.359,306.449 377.5,304C 374.175,296.157 368.175,291.99 359.5,291.5C 354.588,291.102 349.921,290.102 345.5,288.5C 342.241,286.868 341.741,284.535 344,281.5C 345.129,279.859 346.629,278.859 348.5,278.5C 361.566,293.233 376.566,295.4 393.5,285C 406.89,271.871 409.057,257.038 400,240.5C 388.658,228.118 375.158,224.951 359.5,231C 343.72,240.832 338.72,254.666 344.5,272.5C 340.623,274.685 336.623,276.685 332.5,278.5C 331.791,279.404 330.791,279.737 329.5,279.5C 326.894,280.136 324.394,280.136 322,279.5C 322.317,276.254 322.483,272.92 322.5,269.5C 323.043,269.44 323.376,269.107 323.5,268.5C 319.205,267.266 315.539,268.266 312.5,271.5C 311.738,273.262 310.404,274.262 308.5,274.5C 305.511,276.484 302.511,278.484 299.5,280.5C 295.431,277.094 291.097,274.094 286.5,271.5C 285.089,269.461 283.089,268.461 280.5,268.5C 278.965,267.212 277.299,267.212 275.5,268.5C 277.09,272.036 277.59,275.703 277,279.5C 275.989,280.337 274.822,280.67 273.5,280.5C 270.848,280.59 268.515,279.924 266.5,278.5C 262.377,276.685 258.377,274.685 254.5,272.5C 260.252,255.653 255.919,242.153 241.5,232C 219.092,222.688 203.259,229.188 194,251.5C 191.194,271.062 199.028,284.229 217.5,291C 231.009,293.054 242.009,288.888 250.5,278.5C 252.754,279.415 254.754,280.748 256.5,282.5C 257.613,283.946 257.78,285.613 257,287.5C 255.989,288.337 254.822,288.67 253.5,288.5C 248.556,288.754 243.889,289.754 239.5,291.5C 233.552,291.976 228.552,294.309 224.5,298.5C 223.632,300.402 222.632,302.235 221.5,304C 221.989,305.138 222.322,306.305 222.5,307.5C 223.434,309.239 223.434,310.905 222.5,312.5C 196.243,327.42 176.577,348.42 163.5,375.5C 163.672,376.492 163.338,377.158 162.5,377.5C 158.68,383.28 156.013,389.613 154.5,396.5C 154.737,397.791 154.404,398.791 153.5,399.5C 152.399,400.848 151.399,402.348 150.5,404C 149.667,404.167 148.833,404.333 148,404.5C 145.114,403.454 142.614,401.787 140.5,399.5C 139.226,396.24 137.56,393.24 135.5,390.5C 134.737,386.863 133.403,383.53 131.5,380.5C 130.87,376.952 129.87,373.619 128.5,370.5C 127.913,364.544 126.579,358.878 124.5,353.5C 122.586,341.02 120.586,328.687 118.5,316.5C 118.331,309.813 117.831,303.146 117,296.5C 116.722,295.584 116.222,294.918 115.5,294.5C 114.375,291.872 112.375,291.039 109.5,292C 103.87,294.305 99.2034,297.805 95.5,302.5C 93.1325,304.023 90.6325,305.356 88,306.5C 87.1268,306.265 86.2935,305.931 85.5,305.5C 84.1889,301.016 84.1889,296.683 85.5,292.5C 89.3412,286.151 92.6745,279.484 95.5,272.5C 98.2437,269.354 100.244,265.687 101.5,261.5C 103.588,259.664 104.921,257.331 105.5,254.5C 107.588,252.664 108.921,250.331 109.5,247.5C 111.588,245.664 112.921,243.331 113.5,240.5C 115.588,238.664 116.921,236.331 117.5,233.5C 119.25,232.341 120.25,230.674 120.5,228.5C 122.588,226.664 123.921,224.331 124.5,221.5C 126.25,220.341 127.25,218.674 127.5,216.5C 129.588,214.664 130.921,212.331 131.5,209.5C 133.293,207.574 134.293,205.241 134.5,202.5C 137.661,196.602 135.661,193.602 128.5,193.5C 123.289,192.778 117.956,191.945 112.5,191C 111.106,190.044 110.439,188.711 110.5,187C 111.071,184.456 111.738,181.956 112.5,179.5C 115.409,176.019 118.075,172.352 120.5,168.5C 128.826,161.507 136.826,154.174 144.5,146.5C 148.051,144.889 151.051,142.556 153.5,139.5C 156.533,137.984 159.2,135.984 161.5,133.5C 164.37,132.567 166.704,130.9 168.5,128.5C 171.37,127.567 173.704,125.9 175.5,123.5C 178.37,122.567 180.704,120.9 182.5,118.5C 186.392,116.938 189.725,114.605 192.5,111.5C 194.404,111.262 195.738,110.262 196.5,108.5C 201.012,106.653 203.679,103.32 204.5,98.5C 193.086,98.8106 181.752,98.4773 170.5,97.5C 172.004,95.1644 174.004,93.331 176.5,92C 183.975,88.9063 191.309,85.7396 198.5,82.5C 204.048,81.6555 209.048,79.6555 213.5,76.5C 212.643,75.5748 211.643,74.9081 210.5,74.5C 206.949,72.8892 203.949,70.5558 201.5,67.5C 203.167,67.1667 204.833,66.8333 206.5,66.5C 219.286,67.957 231.952,70.1237 244.5,73C 248.152,73.4986 251.818,73.6653 255.5,73.5C 255.386,68.9465 254.386,64.6131 252.5,60.5C 267.458,61.242 281.458,65.4087 294.5,73C 298.594,73.7673 302.594,73.434 306.5,72C 318.703,64.2098 332.036,60.3765 346.5,60.5C 345.43,64.0804 344.097,67.5804 342.5,71C 342.645,71.772 342.978,72.4387 343.5,73C 357.298,72.1374 370.965,70.1374 384.5,67C 388.871,66.1725 393.205,66.3391 397.5,67.5C 393.56,71.1435 389.226,74.3102 384.5,77C 387.022,78.3409 389.689,79.1743 392.5,79.5 Z"/></g>
<g><path style="opacity:1" fill="#474747" d="M 210.5,74.5 C 211.643,74.9081 212.643,75.5748 213.5,76.5C 209.048,79.6555 204.048,81.6555 198.5,82.5C 202.61,80.3993 206.944,78.566 211.5,77C 209.381,76.6582 209.047,75.8249 210.5,74.5 Z"/></g>
<g><path style="opacity:1" fill="#717171" d="M 454.5,428.5 C 453.355,422.911 452.021,417.245 450.5,411.5C 455.279,410.738 459.112,408.405 462,404.5C 472.687,383.689 479.687,361.689 483,338.5C 485.241,324.904 486.908,311.237 488,297.5C 493.456,301.287 498.623,305.454 503.5,310C 511.76,314.349 517.26,312.182 520,303.5C 520.667,300.5 520.667,297.5 520,294.5C 506.813,265.789 491.813,238.123 475,211.5C 472.893,207.619 471.059,203.619 469.5,199.5C 475.144,198.535 480.811,197.702 486.5,197C 493.836,194.832 496.336,189.999 494,182.5C 491.895,176.073 488.561,170.406 484,165.5C 477.436,158.6 470.603,152.1 463.5,146C 445.085,132.329 426.418,118.829 407.5,105.5C 415.554,104.904 423.554,104.07 431.5,103C 434.723,99.8877 435.223,96.3877 433,92.5C 430.857,89.7883 428.19,87.7883 425,86.5C 415.99,82.6074 406.823,79.1074 397.5,76C 448.597,83.4733 487.764,108.973 515,152.5C 532.05,182.6 548.05,213.266 563,244.5C 567.649,256.395 570.149,268.728 570.5,281.5C 567.942,303.54 568.108,325.54 571,347.5C 573.962,366.03 570.296,383.03 560,398.5C 541.892,421.889 517.892,432.555 488,430.5C 477.086,431.036 466.419,429.703 456,426.5C 454.97,426.836 454.47,427.503 454.5,428.5 Z"/></g>
<g><path style="opacity:1" fill="#4b4b4b" d="M 392.5,79.5 C 396.537,80.0653 400.203,81.3987 403.5,83.5C 399.463,82.9347 395.797,81.6013 392.5,79.5 Z"/></g>
<g><path style="opacity:1" fill="#717171" d="M 148.5,410.5 C 147.609,417.045 146.276,423.378 144.5,429.5C 143.726,428.853 142.726,428.52 141.5,428.5C 119.687,432.971 98.0208,432.471 76.5,427C 41.3162,414.133 25.1495,388.966 28,351.5C 31.0493,329.2 31.216,306.866 28.5,284.5C 28.8723,267.677 32.7057,251.677 40,236.5C 53.5545,209.056 67.8879,182.056 83,155.5C 108.348,113.497 145.181,87.9969 193.5,79C 183.81,81.4471 174.977,85.6138 167,91.5C 165.101,95.1361 165.101,98.8027 167,102.5C 167.75,103.126 168.584,103.626 169.5,104C 176.833,104.333 184.167,104.667 191.5,105C 172.219,118.614 153.219,132.614 134.5,147C 125.296,154.537 117.129,163.037 110,172.5C 108.059,176.048 106.393,179.714 105,183.5C 103.038,190.075 105.205,194.575 111.5,197C 116.799,197.93 122.133,198.597 127.5,199C 128.308,199.308 128.975,199.808 129.5,200.5C 116.601,223.963 103.434,247.297 90,270.5C 86.3938,277.379 83.0605,284.379 80,291.5C 79.1492,297.253 79.4826,302.92 81,308.5C 85.3882,313.203 90.2215,313.703 95.5,310C 100.355,305.468 105.522,301.301 111,297.5C 113.068,323.574 117.401,349.241 124,374.5C 127.243,384.984 131.576,394.984 137,404.5C 139.691,408.762 143.524,410.762 148.5,410.5 Z"/></g>
<g><path style="opacity:1" fill="#4d4d4d" d="M 418.5,89.5 C 422.581,90.4002 426.081,92.4002 429,95.5C 429.684,96.7839 429.517,97.9505 428.5,99C 417.839,99.4998 407.172,99.6665 396.5,99.5C 406.659,98.6697 416.992,98.1697 427.5,98C 427.833,97.6667 428.167,97.3333 428.5,97C 425.277,94.236 421.944,91.736 418.5,89.5 Z"/></g>
<g><path style="opacity:1" fill="#4d4d4d" d="M 170.5,97.5 C 181.752,98.4773 193.086,98.8106 204.5,98.5C 203.679,103.32 201.012,106.653 196.5,108.5C 198.999,105.831 201.332,102.998 203.5,100C 192.121,100.148 181.121,99.3151 170.5,97.5 Z"/></g>
<g><path style="opacity:1" fill="#585858" d="M 396.5,102.5 C 399.526,105.195 402.526,107.862 405.5,110.5C 401.233,109.232 398.233,106.565 396.5,102.5 Z"/></g>
<g><path style="opacity:1" fill="#4d4d4d" d="M 192.5,111.5 C 189.725,114.605 186.392,116.938 182.5,118.5C 185.275,115.395 188.608,113.062 192.5,111.5 Z"/></g>
<g><path style="opacity:1" fill="#494949" d="M 405.5,110.5 C 408.37,111.433 410.704,113.1 412.5,115.5C 409.63,114.567 407.296,112.9 405.5,110.5 Z"/></g>
<g><path style="opacity:1" fill="#4a4a4a" d="M 412.5,115.5 C 415.37,116.433 417.704,118.1 419.5,120.5C 416.63,119.567 414.296,117.9 412.5,115.5 Z"/></g>
<g><path style="opacity:1" fill="#4d4d4d" d="M 182.5,118.5 C 180.704,120.9 178.37,122.567 175.5,123.5C 177.296,121.1 179.63,119.433 182.5,118.5 Z"/></g>
<g><path style="opacity:1" fill="#494949" d="M 422.5,122.5 C 425.37,123.433 427.704,125.1 429.5,127.5C 426.63,126.567 424.296,124.9 422.5,122.5 Z"/></g>
<g><path style="opacity:1" fill="#4f4f4f" d="M 175.5,123.5 C 173.704,125.9 171.37,127.567 168.5,128.5C 170.296,126.1 172.63,124.433 175.5,123.5 Z"/></g>
<g><path style="opacity:1" fill="#4f4f4f" d="M 168.5,128.5 C 166.704,130.9 164.37,132.567 161.5,133.5C 163.296,131.1 165.63,129.433 168.5,128.5 Z"/></g>
<g><path style="opacity:1" fill="#4a4a4a" d="M 433.5,130.5 C 436.37,131.433 438.704,133.1 440.5,135.5C 437.63,134.567 435.296,132.9 433.5,130.5 Z"/></g>
<g><path style="opacity:1" fill="#4c4c4c" d="M 440.5,135.5 C 445.409,138.074 449.742,141.408 453.5,145.5C 448.591,142.926 444.258,139.592 440.5,135.5 Z"/></g>
<g><path style="opacity:1" fill="#4d4d4d" d="M 153.5,139.5 C 151.051,142.556 148.051,144.889 144.5,146.5C 146.949,143.444 149.949,141.111 153.5,139.5 Z"/></g>
<g><path style="opacity:1" fill="#4b4b4b" d="M 453.5,145.5 C 455.749,146.08 457.415,147.413 458.5,149.5C 456.251,148.92 454.585,147.587 453.5,145.5 Z"/></g>
<g><path style="opacity:1" fill="#4a4a4a" d="M 458.5,149.5 C 461.089,150.419 463.089,152.086 464.5,154.5C 461.911,153.581 459.911,151.914 458.5,149.5 Z"/></g>
<g><path style="opacity:1" fill="#494949" d="M 465.5,155.5 C 471.5,159.5 476.5,164.5 480.5,170.5C 475.167,165.833 470.167,160.833 465.5,155.5 Z"/></g>
<g><path style="opacity:1" fill="#494949" d="M 144.5,146.5 C 136.826,154.174 128.826,161.507 120.5,168.5C 122.893,164.598 125.893,161.098 129.5,158C 134.11,153.544 139.11,149.71 144.5,146.5 Z"/></g>
<g><path style="opacity:1" fill="#4d4d4d" d="M 120.5,168.5 C 118.075,172.352 115.409,176.019 112.5,179.5C 113.946,174.939 116.613,171.272 120.5,168.5 Z"/></g>
<g><path style="opacity:1" fill="#dfdfdf" d="M 217.5,179.5 C 234.261,179.315 250.928,180.482 267.5,183C 272.028,184.702 274.362,188.036 274.5,193C 272.965,202.203 267.632,207.869 258.5,210C 244.596,212.609 230.596,214.609 216.5,216C 197.028,224.419 183.528,238.586 176,258.5C 175.575,254.131 175.908,249.797 177,245.5C 178.225,240.062 179.725,234.729 181.5,229.5C 175.09,231.89 169.423,235.557 164.5,240.5C 164.167,239.167 163.833,237.833 163.5,236.5C 166.375,224.099 173.209,214.432 184,207.5C 184.49,206.207 184.657,204.873 184.5,203.5C 167.911,204.639 152.244,209.139 137.5,217C 135.866,217.494 134.199,217.66 132.5,217.5C 133.02,213.464 135.02,210.297 138.5,208C 161.925,190.249 188.258,180.749 217.5,179.5 Z"/></g>
<g><path style="opacity:1" fill="#dfdfdf" d="M 359.5,179.5 C 394.912,176.76 427.245,185.26 456.5,205C 459.965,207.463 463.131,210.296 466,213.5C 466.49,214.793 466.657,216.127 466.5,217.5C 459.276,215.814 452.276,213.314 445.5,210C 435.477,206.268 425.144,204.101 414.5,203.5C 414.343,204.873 414.51,206.207 415,207.5C 425.79,214.429 432.623,224.095 435.5,236.5C 435.333,237.833 435.167,239.167 435,240.5C 429.77,235.749 423.936,232.082 417.5,229.5C 421.322,238.443 423.155,247.776 423,257.5C 416.514,242.675 406.68,230.508 393.5,221C 388.466,218.211 383.132,216.211 377.5,215C 367.178,213.912 356.844,212.912 346.5,212C 337.485,210.591 330.652,206.091 326,198.5C 322.908,191.528 324.741,186.361 331.5,183C 340.994,181.929 350.328,180.762 359.5,179.5 Z"/></g>
<g><path style="opacity:1" fill="#464646" d="M 128.5,193.5 C 135.661,193.602 137.661,196.602 134.5,202.5C 134.815,200.774 134.981,199.107 135,197.5C 132.987,195.752 130.82,194.418 128.5,193.5 Z"/></g>
<g><path style="opacity:1" fill="#4a4a4a" d="M 463.5,199.5 C 466.07,204.311 468.403,209.311 470.5,214.5C 466.848,210.192 464.514,205.192 463.5,199.5 Z"/></g>
<g><path style="opacity:1" fill="#494949" d="M 131.5,209.5 C 130.921,212.331 129.588,214.664 127.5,216.5C 128.079,213.669 129.412,211.336 131.5,209.5 Z"/></g>
<g><path style="opacity:1" fill="#4b4b4b" d="M 124.5,221.5 C 123.921,224.331 122.588,226.664 120.5,228.5C 121.079,225.669 122.412,223.336 124.5,221.5 Z"/></g>
<g><path style="opacity:1" fill="#251916" d="M 254.5,272.5 C 252.833,272.5 251.167,272.5 249.5,272.5C 249.517,274.565 249.85,276.565 250.5,278.5C 242.009,288.888 231.009,293.054 217.5,291C 199.028,284.229 191.194,271.062 194,251.5C 203.259,229.188 219.092,222.688 241.5,232C 255.919,242.153 260.252,255.653 254.5,272.5 Z"/></g>
<g><path style="opacity:1" fill="#241916" d="M 348.5,278.5 C 349.15,276.565 349.483,274.565 349.5,272.5C 347.833,272.5 346.167,272.5 344.5,272.5C 338.72,254.666 343.72,240.832 359.5,231C 375.158,224.951 388.658,228.118 400,240.5C 409.057,257.038 406.89,271.871 393.5,285C 376.566,295.4 361.566,293.233 348.5,278.5 Z"/></g>
<g><path style="opacity:1" fill="#4b4b4b" d="M 117.5,233.5 C 116.921,236.331 115.588,238.664 113.5,240.5C 114.079,237.669 115.412,235.336 117.5,233.5 Z"/></g>
<g><path style="opacity:1" fill="#4c4c4c" d="M 113.5,240.5 C 112.921,243.331 111.588,245.664 109.5,247.5C 110.079,244.669 111.412,242.336 113.5,240.5 Z"/></g>
<g><path style="opacity:1" fill="#4c4c4c" d="M 109.5,247.5 C 108.921,250.331 107.588,252.664 105.5,254.5C 106.079,251.669 107.412,249.336 109.5,247.5 Z"/></g>
<g><path style="opacity:1" fill="#e9e9e9" d="M 236.5,248.5 C 243.88,248.043 246.713,251.376 245,258.5C 242.441,261.349 239.274,262.183 235.5,261C 231.309,256.46 231.642,252.293 236.5,248.5 Z"/></g>
<g><path style="opacity:1" fill="#eaeaea" d="M 383.5,248.5 C 391.543,249.02 393.876,252.854 390.5,260C 382.758,263.248 379.258,260.748 380,252.5C 380.69,250.65 381.856,249.316 383.5,248.5 Z"/></g>
<g><path style="opacity:1" fill="#4b4b4b" d="M 105.5,254.5 C 104.921,257.331 103.588,259.664 101.5,261.5C 102.079,258.669 103.412,256.336 105.5,254.5 Z"/></g>
<g><path style="opacity:1" fill="#696969" d="M 322.5,269.5 C 322.265,268.903 321.765,268.57 321,268.5C 318.105,269.409 315.272,270.409 312.5,271.5C 315.539,268.266 319.205,267.266 323.5,268.5C 323.376,269.107 323.043,269.44 322.5,269.5 Z"/></g>
<g><path style="opacity:1" fill="#696969" d="M 280.5,268.5 C 283.089,268.461 285.089,269.461 286.5,271.5C 284.181,271.008 282.181,270.008 280.5,268.5 Z"/></g>
<g><path style="opacity:1" fill="#4a4a4a" d="M 500.5,266.5 C 503.258,269.678 505.258,273.345 506.5,277.5C 503.742,274.322 501.742,270.655 500.5,266.5 Z"/></g>
<g><path style="opacity:1" fill="#686868" d="M 280.5,268.5 C 279.5,268.5 278.5,268.5 277.5,268.5C 278.331,272.476 278.497,276.476 278,280.5C 276.384,281.801 274.884,281.801 273.5,280.5C 274.822,280.67 275.989,280.337 277,279.5C 277.59,275.703 277.09,272.036 275.5,268.5C 277.299,267.212 278.965,267.212 280.5,268.5 Z"/></g>
<g><path style="opacity:1" fill="#6b6b6b" d="M 286.5,271.5 C 291.097,274.094 295.431,277.094 299.5,280.5C 302.511,278.484 305.511,276.484 308.5,274.5C 305.95,279.588 301.95,281.755 296.5,281C 293.271,277.601 289.938,274.435 286.5,271.5 Z"/></g>
<g><path style="opacity:1" fill="#626262" d="M 254.5,272.5 C 258.377,274.685 262.377,276.685 266.5,278.5C 261.407,277.525 256.573,275.858 252,273.5C 251.5,273.833 251,274.167 250.5,274.5C 252.902,276.897 254.902,279.564 256.5,282.5C 254.754,280.748 252.754,279.415 250.5,278.5C 249.85,276.565 249.517,274.565 249.5,272.5C 251.167,272.5 252.833,272.5 254.5,272.5 Z"/></g>
<g><path style="opacity:1" fill="#656565" d="M 344.5,272.5 C 346.167,272.5 347.833,272.5 349.5,272.5C 349.483,274.565 349.15,276.565 348.5,278.5C 346.629,278.859 345.129,279.859 344,281.5C 341.741,284.535 342.241,286.868 345.5,288.5C 341.775,288.22 340.608,286.22 342,282.5C 344.007,279.664 346.174,276.997 348.5,274.5C 348,274.167 347.5,273.833 347,273.5C 342.427,275.858 337.593,277.525 332.5,278.5C 336.623,276.685 340.623,274.685 344.5,272.5 Z"/></g>
<g><path style="opacity:1" fill="#838383" d="M 450.5,411.5 C 452.021,417.245 453.355,422.911 454.5,428.5C 461.195,452.514 459.362,475.847 449,498.5C 446.961,502.916 443.795,506.249 439.5,508.5C 438.808,507.975 438.308,507.308 438,506.5C 436.691,494.53 435.691,482.53 435,470.5C 434.867,467.586 433.7,465.253 431.5,463.5C 431.092,480.941 429.592,498.275 427,515.5C 422.252,519.624 416.752,522.29 410.5,523.5C 409.189,509.824 407.689,496.158 406,482.5C 398.552,495.062 391.885,508.062 386,521.5C 381.838,528.44 379.171,527.773 378,519.5C 377.727,514.771 377.061,510.104 376,505.5C 369.12,514.195 360.62,520.862 350.5,525.5C 349.969,522.901 349.802,520.235 350,517.5C 345.323,524.516 339.156,529.683 331.5,533C 317.403,537.409 303.069,539.076 288.5,538C 278.887,536.264 269.554,533.597 260.5,530C 256.298,526.133 252.465,521.967 249,517.5C 249.438,520.199 249.272,522.865 248.5,525.5C 238.035,520.533 229.202,513.533 222,504.5C 220.089,510.299 218.755,516.299 218,522.5C 216.306,527.689 214.306,527.689 212,522.5C 205.895,509.164 199.228,496.164 192,483.5C 190.198,496.755 189.031,510.088 188.5,523.5C 182.248,522.29 176.748,519.624 172,515.5C 171.055,511.886 170.388,508.219 170,504.5C 169.467,490.813 168.634,477.146 167.5,463.5C 166.201,464.09 165.368,465.09 165,466.5C 163.137,479.777 161.804,493.11 161,506.5C 160.275,508.158 159.108,508.658 157.5,508C 150.934,500.672 146.434,492.172 144,482.5C 139.408,464.79 139.574,447.123 144.5,429.5C 146.276,423.378 147.609,417.045 148.5,410.5C 151.374,410.377 153.874,409.377 156,407.5C 165.156,378.343 180.989,353.51 203.5,333C 211.121,326.717 219.287,321.217 228,316.5C 230.153,312.171 229.987,308.004 227.5,304C 229.954,301.267 232.954,299.267 236.5,298C 244.264,296.38 251.931,294.38 259.5,292C 261.585,289.581 262.585,286.747 262.5,283.5C 265.555,284.036 268.555,284.869 271.5,286C 279.345,287.832 283.512,284.666 284,276.5C 287.799,279.297 291.299,282.464 294.5,286C 297.833,286.667 301.167,286.667 304.5,286C 307.701,282.464 311.201,279.297 315,276.5C 315.658,285.161 320.158,288.328 328.5,286C 330.862,284.269 333.529,283.435 336.5,283.5C 336.415,286.747 337.415,289.581 339.5,292C 345.873,294.593 352.54,296.26 359.5,297C 364.249,298.032 367.916,300.532 370.5,304.5C 368.492,308.229 367.992,312.229 369,316.5C 405.479,337.335 429.812,368.001 442,408.5C 444.196,411.125 447.03,412.125 450.5,411.5 Z"/></g>
<g><path style="opacity:1" fill="#707070" d="M 322.5,269.5 C 322.483,272.92 322.317,276.254 322,279.5C 324.394,280.136 326.894,280.136 329.5,279.5C 326.898,281.451 324.064,281.784 321,280.5C 320.255,276.552 320.755,272.885 322.5,269.5 Z"/></g>
<g><path style="opacity:1" fill="#494949" d="M 95.5,272.5 C 92.6745,279.484 89.3412,286.151 85.5,292.5C 87.7929,285.248 91.1262,278.581 95.5,272.5 Z"/></g>
<g><path style="opacity:1" fill="#696969" d="M 253.5,288.5 C 249.111,290.246 244.444,291.246 239.5,291.5C 243.889,289.754 248.556,288.754 253.5,288.5 Z"/></g>
<g><path style="opacity:1" fill="#696969" d="M 239.5,291.5 C 234.418,293.54 229.418,295.873 224.5,298.5C 228.552,294.309 233.552,291.976 239.5,291.5 Z"/></g>
<g><path style="opacity:1" fill="#4a4a4a" d="M 115.5,294.5 C 114.193,293.847 112.86,293.18 111.5,292.5C 105.774,295.355 100.441,298.688 95.5,302.5C 99.2034,297.805 103.87,294.305 109.5,292C 112.375,291.039 114.375,291.872 115.5,294.5 Z"/></g>
<g><path style="opacity:1" fill="#1d1d1b" d="M 287.5,293.5 C 300.794,292.647 313.794,294.147 326.5,298C 340.254,303.673 345.421,313.84 342,328.5C 338.744,337.094 333.244,343.927 325.5,349C 318.578,351.706 312.411,355.54 307,360.5C 305.449,367.418 305.116,374.418 306,381.5C 321.694,382.505 337.194,385.005 352.5,389C 354.624,390.122 356.457,391.622 358,393.5C 359.023,411.764 354.356,428.43 344,443.5C 335.382,454.227 324.216,460.393 310.5,462C 287.364,466.362 268.531,459.528 254,441.5C 244.832,427.16 240.498,411.493 241,394.5C 242.167,392 244,390.167 246.5,389C 261.448,385.07 276.615,382.57 292,381.5C 292.884,374.418 292.551,367.418 291,360.5C 285.556,355.527 279.389,351.693 272.5,349C 258.698,340.563 253.198,328.397 256,312.5C 259.284,304.947 264.784,299.78 272.5,297C 277.528,295.426 282.528,294.259 287.5,293.5 Z"/></g>
<g><path style="opacity:1" fill="#676767" d="M 512.5,289.5 C 515.394,294.096 516.061,299.096 514.5,304.5C 514.253,305.713 513.586,306.38 512.5,306.5C 513.738,300.878 513.738,295.211 512.5,289.5 Z"/></g>
<g><path style="opacity:1" fill="#666666" d="M 359.5,291.5 C 368.175,291.99 374.175,296.157 377.5,304C 376.359,306.449 375.359,308.949 374.5,311.5C 374.833,312.167 375.167,312.833 375.5,313.5C 384.849,318.354 393.516,324.187 401.5,331C 423.13,352.098 438.796,376.931 448.5,405.5C 448.5,405.833 448.5,406.167 448.5,406.5C 447.504,406.586 446.671,406.252 446,405.5C 435.404,371.268 415.904,343.435 387.5,322C 383.167,319.5 378.833,317 374.5,314.5C 373.061,310.64 373.727,307.14 376.5,304C 372.626,297.396 366.96,293.23 359.5,291.5 Z"/></g>
<g><path style="opacity:1" fill="#4f4f4f" d="M 115.5,294.5 C 116.222,294.918 116.722,295.584 117,296.5C 117.831,303.146 118.331,309.813 118.5,316.5C 117.245,309.333 116.245,301.999 115.5,294.5 Z"/></g>
<g><path style="opacity:1" fill="#4e4e4e" d="M 502.5,301.5 C 505.117,302.786 507.45,304.453 509.5,306.5C 506.357,306.031 504.023,304.364 502.5,301.5 Z"/></g>
<g><path style="opacity:1" fill="#515151" d="M 483.5,294.5 C 482.217,311.117 479.884,327.45 476.5,343.5C 478.66,328.216 480.494,312.883 482,297.5C 482.232,296.263 482.732,295.263 483.5,294.5 Z"/></g>
<g><path style="opacity:1" fill="#686868" d="M 222.5,307.5 C 224.616,309.088 224.949,311.088 223.5,313.5C 197.683,328.649 177.683,349.315 163.5,375.5C 176.577,348.42 196.243,327.42 222.5,312.5C 223.434,310.905 223.434,309.239 222.5,307.5 Z"/></g>
<g><path style="opacity:1" fill="#4c4c4c" d="M 475.5,349.5 C 475.58,352.781 474.913,355.781 473.5,358.5C 473.42,355.219 474.087,352.219 475.5,349.5 Z"/></g>
<g><path style="opacity:1" fill="#4c4c4c" d="M 124.5,353.5 C 126.579,358.878 127.913,364.544 128.5,370.5C 126.408,365.126 125.075,359.46 124.5,353.5 Z"/></g>
<g><path style="opacity:1" fill="#4b4b4b" d="M 131.5,380.5 C 133.403,383.53 134.737,386.863 135.5,390.5C 133.206,387.63 131.872,384.297 131.5,380.5 Z"/></g>
<g><path style="opacity:1" fill="#696969" d="M 162.5,377.5 C 160.207,384.061 157.541,390.394 154.5,396.5C 156.013,389.613 158.68,383.28 162.5,377.5 Z"/></g>
<g><path style="opacity:1" fill="#f19c9f" d="M 310.5,394.5 C 311.263,395.268 312.263,395.768 313.5,396C 326.499,397.214 339.499,398.381 352.5,399.5C 352.5,402.167 352.5,404.833 352.5,407.5C 349.218,432.268 335.884,448.768 312.5,457C 281.401,462.705 260.235,450.872 249,421.5C 246.639,413.669 245.472,405.669 245.5,397.5C 267.139,395.96 288.806,394.96 310.5,394.5 Z"/></g>
<g><path style="opacity:1" fill="#ca8285" d="M 310.5,394.5 C 324.843,395.383 339.176,396.383 353.5,397.5C 353.813,401.042 353.479,404.375 352.5,407.5C 352.5,404.833 352.5,402.167 352.5,399.5C 339.499,398.381 326.499,397.214 313.5,396C 312.263,395.768 311.263,395.268 310.5,394.5 Z"/></g>
<g><path style="opacity:1" fill="#474747" d="M 473.5,358.5 C 471.326,372.521 466.826,385.855 460,398.5C 457.631,403.383 453.797,406.05 448.5,406.5C 448.5,406.167 448.5,405.833 448.5,405.5C 450.308,405.509 451.975,405.009 453.5,404C 463.616,391.663 469.45,377.497 471,361.5C 471.852,360.429 472.685,359.429 473.5,358.5 Z"/></g>
<g><path style="opacity:1" fill="#5b5b5b" d="M 140.5,399.5 C 142.614,401.787 145.114,403.454 148,404.5C 148.833,404.333 149.667,404.167 150.5,404C 151.399,402.348 152.399,400.848 153.5,399.5C 153.056,405.153 150.056,406.986 144.5,405C 142.536,403.549 141.203,401.716 140.5,399.5 Z"/></g>
</svg>
