<?xml version="1.0" encoding="UTF-8"?>
<!DOCTYPE svg PUBLIC "-//W3C//DTD SVG 1.1//EN" "http://www.w3.org/Graphics/SVG/1.1/DTD/svg11.dtd">
<svg xmlns="http://www.w3.org/2000/svg" version="1.1" width="600px" height="600px" style="shape-rendering:geometricPrecision; text-rendering:geometricPrecision; image-rendering:optimizeQuality; fill-rule:evenodd; clip-rule:evenodd" xmlns:xlink="http://www.w3.org/1999/xlink">
<g><path style="opacity:0.956" fill="#030201" d="M 31.5,-0.5 C 38.8333,-0.5 46.1667,-0.5 53.5,-0.5C 65.3328,2.90974 76.6662,7.74307 87.5,14C 109.309,28.4703 129.976,44.4703 149.5,62C 180.916,93.0816 211.916,124.415 242.5,156C 248.932,159.922 255.932,162.255 263.5,163C 287.5,165 311.5,165 335.5,163C 343.01,162.043 350.01,159.71 356.5,156C 383.167,128.667 409.833,101.333 436.5,74C 460.314,50.4459 486.314,29.7792 514.5,12C 524.247,6.92649 534.247,2.75983 544.5,-0.5C 551.833,-0.5 559.167,-0.5 566.5,-0.5C 583.132,4.79853 594.132,15.7985 599.5,32.5C 599.5,69.1667 599.5,105.833 599.5,142.5C 594.963,182.67 586.13,222.003 573,260.5C 568.678,270.485 563.345,279.818 557,288.5C 543.042,303.767 530.042,319.767 518,336.5C 509.084,350.913 504.418,366.58 504,383.5C 503.903,408.207 502.903,432.874 501,457.5C 499.099,481.548 491.099,503.214 477,522.5C 460.778,538.034 442.278,550.201 421.5,559C 414.865,566.636 407.865,573.97 400.5,581C 390.071,587.206 379.738,593.373 369.5,599.5C 352.167,599.5 334.833,599.5 317.5,599.5C 311.869,595.942 305.703,593.609 299,592.5C 292.297,593.609 286.131,595.942 280.5,599.5C 263.833,599.5 247.167,599.5 230.5,599.5C 220.06,593.108 209.393,586.941 198.5,581C 190.5,574.333 183.167,567 176.5,559C 155.209,550.111 136.376,537.611 120,521.5C 107.972,504.763 100.639,486.096 98,465.5C 95.1505,438.584 93.8171,411.584 94,384.5C 93.037,361.608 85.3703,341.274 71,323.5C 60.6256,312.128 50.6256,300.461 41,288.5C 34.6551,279.818 29.3218,270.485 25,260.5C 12.6862,224.587 4.18619,187.92 -0.5,150.5C -0.5,110.5 -0.5,70.5 -0.5,30.5C 4.06514,18.7658 11.7318,9.59911 22.5,3C 25.7177,2.09968 28.7177,0.933014 31.5,-0.5 Z"/></g>
<g><path style="opacity:1" fill="#cfa166" d="M 495.5,363.5 C 493.188,361.854 491.188,359.854 489.5,357.5C 478.163,415.01 459.33,470.01 433,522.5C 427.395,532.058 421.562,541.391 415.5,550.5C 406.996,560.17 397.662,569.003 387.5,577C 378.893,580.302 370.893,584.635 363.5,590C 352.396,594.911 341.063,595.578 329.5,592C 323.051,589.609 316.718,586.942 310.5,584C 302.833,580.667 295.167,580.667 287.5,584C 269.423,594.716 250.757,596.049 231.5,588C 228.833,586 226.167,584 223.5,582C 214.503,578.994 206.503,574.327 199.5,568C 193.591,562.596 188.258,556.763 183.5,550.5C 165.369,524.912 150.869,497.245 140,467.5C 126.128,430.435 115.795,392.435 109,353.5C 106.63,356.039 104.13,358.372 101.5,360.5C 96.8122,343.789 88.9788,328.789 78,315.5C 64.5281,301.034 52.1947,285.701 41,269.5C 32.0676,250.964 25.401,231.631 21,211.5C 11.3326,165.166 5.49923,118.333 3.5,71C 3.07606,55.3687 6.24273,40.5354 13,26.5C 24.1178,9.68491 39.2845,4.85158 58.5,12C 73.7192,17.6063 87.7192,25.273 100.5,35C 119.422,49.9174 137.755,65.5841 155.5,82C 172.062,97.8934 187.895,114.393 203,131.5C 214.529,143.363 226.362,154.863 238.5,166C 246.681,170.212 255.348,172.879 264.5,174C 289.221,176.332 313.888,175.999 338.5,173C 348.528,171.662 357.528,167.996 365.5,162C 393.833,133 422.167,104 450.5,75C 469.678,57.1481 490.011,40.8148 511.5,26C 522.28,18.7772 533.947,13.4439 546.5,10C 567.509,6.34999 581.676,14.5167 589,34.5C 594.087,50.7859 595.754,67.4526 594,84.5C 591.412,130.055 585.079,175.055 575,219.5C 571.59,233.142 567.257,246.475 562,259.5C 558.759,266.989 554.759,273.989 550,280.5C 535.574,296.922 521.908,313.922 509,331.5C 503.072,341.674 498.572,352.341 495.5,363.5 Z"/></g>
<g><path style="opacity:1" fill="#060403" d="M 35.5,19.5 C 45.2854,18.9258 54.6187,20.7591 63.5,25C 89.6996,36.9147 112.2,53.748 131,75.5C 152.404,99.2618 169.404,125.928 182,155.5C 190.669,174.816 189.002,193.149 177,210.5C 160.422,236.748 137.255,254.248 107.5,263C 84.8566,267.907 67.3566,260.741 55,241.5C 27.4104,181.814 13.4104,119.147 13,53.5C 13.7742,43.5062 17.1076,34.5062 23,26.5C 26.7386,23.2185 30.9053,20.8852 35.5,19.5 Z"/></g>
<g><path style="opacity:1" fill="#080503" d="M 550.5,19.5 C 565.598,17.6279 576.098,23.6279 582,37.5C 583.637,42.7141 584.637,48.0475 585,53.5C 585.058,119.603 571.058,182.603 543,242.5C 528.601,262.243 509.434,268.743 485.5,262C 452.72,249.884 428.886,228.051 414,196.5C 410.7,185.18 410.7,173.847 414,162.5C 434.624,110.395 467.79,68.2285 513.5,36C 525.096,28.643 537.43,23.143 550.5,19.5 Z"/></g>
<g><path style="opacity:1" fill="#755d3c" d="M 35.5,30.5 C 37.4726,29.8373 39.6392,29.5039 42,29.5C 45.4774,29.3275 48.644,29.9942 51.5,31.5C 46.2032,30.7255 40.8699,30.3921 35.5,30.5 Z"/></g>
<g><path style="opacity:1" fill="#f0d597" d="M 35.5,30.5 C 40.8699,30.3921 46.2032,30.7255 51.5,31.5C 52.209,32.404 53.209,32.7373 54.5,32.5C 61.3094,36.0699 68.3094,39.4032 75.5,42.5C 84.1614,48.8262 92.8281,55.1596 101.5,61.5C 108.785,69.4519 116.452,77.1186 124.5,84.5C 126.094,87.7642 128.427,90.4309 131.5,92.5C 132.08,94.7488 133.413,96.4154 135.5,97.5C 136.08,99.7488 137.413,101.415 139.5,102.5C 140.433,105.37 142.1,107.704 144.5,109.5C 147.092,115.024 150.425,120.024 154.5,124.5C 154.75,126.674 155.75,128.341 157.5,129.5C 158.079,132.331 159.412,134.664 161.5,136.5C 161.66,138.153 162.326,139.486 163.5,140.5C 164.326,143.485 165.659,146.151 167.5,148.5C 167.328,149.492 167.662,150.158 168.5,150.5C 168.707,153.241 169.707,155.574 171.5,157.5C 171.733,160.542 172.733,163.208 174.5,165.5C 174.41,168.152 175.076,170.485 176.5,172.5C 177.906,178.918 177.573,185.252 175.5,191.5C 173.326,194.515 171.659,197.849 170.5,201.5C 167.759,203.975 165.759,206.975 164.5,210.5C 159.8,215.199 155.466,220.199 151.5,225.5C 142.516,232.989 133.183,239.989 123.5,246.5C 122.508,246.328 121.842,246.662 121.5,247.5C 116.999,248.925 112.666,250.591 108.5,252.5C 106.901,252.232 105.568,252.566 104.5,253.5C 97.4648,253.674 90.4648,253.341 83.5,252.5C 81.1515,250.659 78.4848,249.326 75.5,248.5C 67.1623,240.48 60.829,231.147 56.5,220.5C 56.5979,218.447 55.9313,216.78 54.5,215.5C 50.8745,203.621 46.8745,191.955 42.5,180.5C 42.5905,177.848 41.9238,175.515 40.5,173.5C 39.102,165.899 37.102,158.566 34.5,151.5C 34.7678,149.901 34.4345,148.568 33.5,147.5C 33.5797,144.219 32.913,141.219 31.5,138.5C 31.1179,133.256 30.1179,128.256 28.5,123.5C 27.9114,117.301 26.9114,111.301 25.5,105.5C 23.8542,88.2124 23.1875,70.879 23.5,53.5C 24.8698,47.3906 26.8698,41.3906 29.5,35.5C 31.5398,33.823 33.5398,32.1563 35.5,30.5 Z"/></g>
<g><path style="opacity:1" fill="#f0d597" d="M 550.5,30.5 C 557.956,28.943 564.123,30.943 569,36.5C 570.546,39.5919 572.046,42.5919 573.5,45.5C 573.549,49.0781 574.215,52.4115 575.5,55.5C 575.964,73.5901 574.964,91.5901 572.5,109.5C 571.205,113.267 570.539,117.267 570.5,121.5C 569.215,124.589 568.549,127.922 568.5,131.5C 566.754,135.889 565.754,140.556 565.5,145.5C 563.565,150.573 562.232,155.906 561.5,161.5C 559.565,165.895 558.231,170.562 557.5,175.5C 556.076,177.515 555.41,179.848 555.5,182.5C 553.928,185.215 552.928,188.215 552.5,191.5C 550.928,194.215 549.928,197.215 549.5,200.5C 547.399,203.797 546.065,207.463 545.5,211.5C 543.733,213.792 542.733,216.458 542.5,219.5C 540.707,221.426 539.707,223.759 539.5,226.5C 536.755,231.658 533.755,236.658 530.5,241.5C 526.978,244.75 523.311,247.75 519.5,250.5C 511.416,253.174 503.082,254.174 494.5,253.5C 492.095,252.232 489.428,251.565 486.5,251.5C 479.872,248.186 473.205,244.853 466.5,241.5C 462.716,237.443 458.383,234.109 453.5,231.5C 449.167,226.5 444.5,221.833 439.5,217.5C 438.92,215.251 437.587,213.585 435.5,212.5C 433.656,208.808 431.323,205.475 428.5,202.5C 426.128,197.098 423.795,191.765 421.5,186.5C 421.214,178.98 422.214,171.647 424.5,164.5C 426.397,162.302 427.397,159.636 427.5,156.5C 429.293,154.574 430.293,152.241 430.5,149.5C 432.674,146.485 434.341,143.151 435.5,139.5C 437.924,136.992 439.59,133.992 440.5,130.5C 442.25,129.341 443.25,127.674 443.5,125.5C 448.992,118.522 453.992,111.188 458.5,103.5C 468.767,91.2281 479.433,79.2281 490.5,67.5C 494.1,65.5698 497.1,62.9031 499.5,59.5C 501.749,58.9202 503.415,57.5869 504.5,55.5C 506.749,54.9202 508.415,53.5869 509.5,51.5C 511.027,51.573 512.027,50.9063 512.5,49.5C 516.025,48.2411 519.025,46.2411 521.5,43.5C 524.331,42.9213 526.664,41.588 528.5,39.5C 531.485,38.6743 534.151,37.341 536.5,35.5C 541.382,34.2079 546.048,32.5412 550.5,30.5 Z"/></g>
<g><path style="opacity:1" fill="#654f32" d="M 35.5,30.5 C 33.5398,32.1563 31.5398,33.823 29.5,35.5C 30.2678,32.4384 32.2678,30.7717 35.5,30.5 Z"/></g>
<g><path style="opacity:1" fill="#685133" d="M 550.5,30.5 C 546.048,32.5412 541.382,34.2079 536.5,35.5C 540.664,32.6657 545.331,30.999 550.5,30.5 Z"/></g>
<g><path style="opacity:1" fill="#705839" d="M 550.5,30.5 C 563.571,26.8703 571.238,31.8703 573.5,45.5C 572.046,42.5919 570.546,39.5919 569,36.5C 564.123,30.943 557.956,28.943 550.5,30.5 Z"/></g>
<g><path style="opacity:1" fill="#6b5436" d="M 54.5,32.5 C 62.1965,34.5162 69.1965,37.8495 75.5,42.5C 68.3094,39.4032 61.3094,36.0699 54.5,32.5 Z"/></g>
<g><path style="opacity:1" fill="#634d31" d="M 536.5,35.5 C 534.151,37.341 531.485,38.6743 528.5,39.5C 530.579,37.127 533.246,35.7936 536.5,35.5 Z"/></g>
<g><path style="opacity:1" fill="#695234" d="M 528.5,39.5 C 526.664,41.588 524.331,42.9213 521.5,43.5C 523.336,41.412 525.669,40.0787 528.5,39.5 Z"/></g>
<g><path style="opacity:1" fill="#695234" d="M 521.5,43.5 C 519.025,46.2411 516.025,48.2411 512.5,49.5C 514.951,46.7232 517.951,44.7232 521.5,43.5 Z"/></g>
<g><path style="opacity:1" fill="#6b5436" d="M 29.5,35.5 C 26.8698,41.3906 24.8698,47.3906 23.5,53.5C 23.3661,46.6674 25.3661,40.6674 29.5,35.5 Z"/></g>
<g><path style="opacity:1" fill="#665033" d="M 573.5,45.5 C 575.011,48.5443 575.678,51.8776 575.5,55.5C 574.215,52.4115 573.549,49.0781 573.5,45.5 Z"/></g>
<g><path style="opacity:1" fill="#6a5335" d="M 509.5,51.5 C 508.415,53.5869 506.749,54.9202 504.5,55.5C 505.585,53.4131 507.251,52.0798 509.5,51.5 Z"/></g>
<g><path style="opacity:1" fill="#6c5536" d="M 75.5,42.5 C 85.294,47.2944 93.9606,53.6278 101.5,61.5C 92.8281,55.1596 84.1614,48.8262 75.5,42.5 Z"/></g>
<g><path style="opacity:1" fill="#6a5335" d="M 504.5,55.5 C 503.415,57.5869 501.749,58.9202 499.5,59.5C 500.585,57.4131 502.251,56.0798 504.5,55.5 Z"/></g>
<g><path style="opacity:1" fill="#6c5536" d="M 101.5,61.5 C 110.188,68.1877 117.854,75.8544 124.5,84.5C 116.452,77.1186 108.785,69.4519 101.5,61.5 Z"/></g>
<g><path style="opacity:1" fill="#6d5637" d="M 499.5,59.5 C 497.1,62.9031 494.1,65.5698 490.5,67.5C 492.9,64.0969 495.9,61.4302 499.5,59.5 Z"/></g>
<g><path style="opacity:1" fill="#6d5637" d="M 124.5,84.5 C 127.573,86.5691 129.906,89.2358 131.5,92.5C 128.427,90.4309 126.094,87.7642 124.5,84.5 Z"/></g>
<g><path style="opacity:1" fill="#775e3d" d="M 23.5,53.5 C 23.1875,70.879 23.8542,88.2124 25.5,105.5C 24.1485,100.051 23.3152,94.3844 23,88.5C 22.1739,76.6593 22.3405,64.9927 23.5,53.5 Z"/></g>
<g><path style="opacity:1" fill="#675033" d="M 131.5,92.5 C 133.587,93.5846 134.92,95.2512 135.5,97.5C 133.413,96.4154 132.08,94.7488 131.5,92.5 Z"/></g>
<g><path style="opacity:1" fill="#675133" d="M 135.5,97.5 C 137.587,98.5846 138.92,100.251 139.5,102.5C 137.413,101.415 136.08,99.7488 135.5,97.5 Z"/></g>
<g><path style="opacity:1" fill="#6e5637" d="M 490.5,67.5 C 479.433,79.2281 468.767,91.2281 458.5,103.5C 467.14,90.6792 477.14,78.8459 488.5,68C 489.094,67.5357 489.761,67.369 490.5,67.5 Z"/></g>
<g><path style="opacity:1" fill="#685134" d="M 139.5,102.5 C 141.9,104.296 143.567,106.63 144.5,109.5C 142.1,107.704 140.433,105.37 139.5,102.5 Z"/></g>
<g><path style="opacity:1" fill="#6a5335" d="M 572.5,109.5 C 572.656,113.764 571.989,117.764 570.5,121.5C 570.539,117.267 571.205,113.267 572.5,109.5 Z"/></g>
<g><path style="opacity:1" fill="#6a5335" d="M 144.5,109.5 C 148.61,113.951 151.944,118.951 154.5,124.5C 150.425,120.024 147.092,115.024 144.5,109.5 Z"/></g>
<g><path style="opacity:1" fill="#6b5436" d="M 458.5,103.5 C 453.992,111.188 448.992,118.522 443.5,125.5C 447.514,117.465 452.514,110.132 458.5,103.5 Z"/></g>
<g><path style="opacity:1" fill="#6b5335" d="M 28.5,123.5 C 30.1179,128.256 31.1179,133.256 31.5,138.5C 29.6253,133.794 28.6253,128.794 28.5,123.5 Z"/></g>
<g><path style="opacity:1" fill="#6b5335" d="M 157.5,129.5 C 159.588,131.336 160.921,133.669 161.5,136.5C 159.412,134.664 158.079,132.331 157.5,129.5 Z"/></g>
<g><path style="opacity:1" fill="#6d5537" d="M 440.5,130.5 C 439.59,133.992 437.924,136.992 435.5,139.5C 436.41,136.008 438.076,133.008 440.5,130.5 Z"/></g>
<g><path style="opacity:1" fill="#6a5335" d="M 568.5,131.5 C 568.246,136.444 567.246,141.111 565.5,145.5C 565.754,140.556 566.754,135.889 568.5,131.5 Z"/></g>
<g><path style="opacity:1" fill="#654f32" d="M 31.5,138.5 C 32.913,141.219 33.5797,144.219 33.5,147.5C 32.087,144.781 31.4203,141.781 31.5,138.5 Z"/></g>
<g><path style="opacity:1" fill="#664f32" d="M 163.5,140.5 C 165.873,142.579 167.206,145.246 167.5,148.5C 165.659,146.151 164.326,143.485 163.5,140.5 Z"/></g>
<g><path style="opacity:1" fill="#675133" d="M 430.5,149.5 C 430.293,152.241 429.293,154.574 427.5,156.5C 427.707,153.759 428.707,151.426 430.5,149.5 Z"/></g>
<g><path style="opacity:1" fill="#675133" d="M 168.5,150.5 C 170.293,152.426 171.293,154.759 171.5,157.5C 169.707,155.574 168.707,153.241 168.5,150.5 Z"/></g>
<g><path style="opacity:1" fill="#6b5436" d="M 34.5,151.5 C 37.102,158.566 39.102,165.899 40.5,173.5C 37.5866,166.522 35.5866,159.189 34.5,151.5 Z"/></g>
<g><path style="opacity:1" fill="#685134" d="M 171.5,157.5 C 173.267,159.792 174.267,162.458 174.5,165.5C 172.733,163.208 171.733,160.542 171.5,157.5 Z"/></g>
<g><path style="opacity:1" fill="#8f744d" d="M 427.5,156.5 C 427.397,159.636 426.397,162.302 424.5,164.5C 424.733,161.458 425.733,158.792 427.5,156.5 Z"/></g>
<g><path style="opacity:1" fill="#685134" d="M 561.5,161.5 C 561.08,166.529 559.746,171.195 557.5,175.5C 558.231,170.562 559.565,165.895 561.5,161.5 Z"/></g>
<g><path style="opacity:1" fill="#685134" d="M 174.5,165.5 C 175.924,167.515 176.59,169.848 176.5,172.5C 175.076,170.485 174.41,168.152 174.5,165.5 Z"/></g>
<g><path style="opacity:1" fill="#695234" d="M 40.5,173.5 C 41.9238,175.515 42.5905,177.848 42.5,180.5C 41.0762,178.485 40.4095,176.152 40.5,173.5 Z"/></g>
<g><path style="opacity:1" fill="#654f32" d="M 424.5,164.5 C 422.214,171.647 421.214,178.98 421.5,186.5C 419.752,178.832 420.752,171.499 424.5,164.5 Z"/></g>
<g><path style="opacity:1" fill="#695234" d="M 557.5,175.5 C 557.59,178.152 556.924,180.485 555.5,182.5C 555.41,179.848 556.076,177.515 557.5,175.5 Z"/></g>
<g><path style="opacity:1" fill="#695234" d="M 421.5,186.5 C 423.795,191.765 426.128,197.098 428.5,202.5C 424.558,197.943 422.225,192.609 421.5,186.5 Z"/></g>
<g><path style="opacity:1" fill="#654e32" d="M 552.5,191.5 C 552.472,194.916 551.472,197.916 549.5,200.5C 549.928,197.215 550.928,194.215 552.5,191.5 Z"/></g>
<g><path style="opacity:1" fill="#6a5335" d="M 42.5,180.5 C 46.8745,191.955 50.8745,203.621 54.5,215.5C 49.3304,204.327 45.3304,192.66 42.5,180.5 Z"/></g>
<g><path style="opacity:1" fill="#695234" d="M 175.5,191.5 C 174.873,195.42 173.207,198.753 170.5,201.5C 171.659,197.849 173.326,194.515 175.5,191.5 Z"/></g>
<g><path style="opacity:1" fill="#6b5436" d="M 170.5,201.5 C 169.277,205.049 167.277,208.049 164.5,210.5C 165.759,206.975 167.759,203.975 170.5,201.5 Z"/></g>
<g><path style="opacity:1" fill="#6b5435" d="M 549.5,200.5 C 548.935,204.537 547.601,208.203 545.5,211.5C 546.065,207.463 547.399,203.797 549.5,200.5 Z"/></g>
<g><path style="opacity:1" fill="#695235" d="M 428.5,202.5 C 431.323,205.475 433.656,208.808 435.5,212.5C 432.185,209.875 429.851,206.542 428.5,202.5 Z"/></g>
<g><path style="opacity:1" fill="#6b5436" d="M 435.5,212.5 C 437.587,213.585 438.92,215.251 439.5,217.5C 437.413,216.415 436.08,214.749 435.5,212.5 Z"/></g>
<g><path style="opacity:1" fill="#695235" d="M 164.5,210.5 C 161.281,216.391 156.948,221.391 151.5,225.5C 155.466,220.199 159.8,215.199 164.5,210.5 Z"/></g>
<g><path style="opacity:1" fill="#685134" d="M 545.5,211.5 C 545.267,214.542 544.267,217.208 542.5,219.5C 542.733,216.458 543.733,213.792 545.5,211.5 Z"/></g>
<g><path style="opacity:1" fill="#644e31" d="M 439.5,217.5 C 444.5,221.833 449.167,226.5 453.5,231.5C 447.833,227.833 443.167,223.167 439.5,217.5 Z"/></g>
<g><path style="opacity:1" fill="#675134" d="M 542.5,219.5 C 542.293,222.241 541.293,224.574 539.5,226.5C 539.707,223.759 540.707,221.426 542.5,219.5 Z"/></g>
<g><path style="opacity:1" fill="#685134" d="M 539.5,226.5 C 538.275,232.626 535.275,237.626 530.5,241.5C 533.755,236.658 536.755,231.658 539.5,226.5 Z"/></g>
<g><path style="opacity:1" fill="#6c5537" d="M 453.5,231.5 C 458.383,234.109 462.716,237.443 466.5,241.5C 463.222,240.191 460.222,238.358 457.5,236C 455.959,234.629 454.625,233.129 453.5,231.5 Z"/></g>
<g><path style="opacity:1" fill="#6c5536" d="M 56.5,220.5 C 60.829,231.147 67.1623,240.48 75.5,248.5C 65.7155,241.624 59.3821,232.291 56.5,220.5 Z"/></g>
<g><path style="opacity:1" fill="#6b5335" d="M 151.5,225.5 C 143.606,234.444 134.273,241.444 123.5,246.5C 133.183,239.989 142.516,232.989 151.5,225.5 Z"/></g>
<g><path style="opacity:1" fill="#685134" d="M 530.5,241.5 C 528.24,246.141 524.573,249.141 519.5,250.5C 523.311,247.75 526.978,244.75 530.5,241.5 Z"/></g>
<g><path style="opacity:1" fill="#685134" d="M 466.5,241.5 C 473.205,244.853 479.872,248.186 486.5,251.5C 478.968,249.734 472.301,246.401 466.5,241.5 Z"/></g>
<g><path style="opacity:1" fill="#6a5335" d="M 75.5,248.5 C 78.4848,249.326 81.1515,250.659 83.5,252.5C 80.2459,252.206 77.5792,250.873 75.5,248.5 Z"/></g>
<g><path style="opacity:1" fill="#685134" d="M 121.5,247.5 C 117.763,250.527 113.43,252.193 108.5,252.5C 112.666,250.591 116.999,248.925 121.5,247.5 Z"/></g>
<g><path style="opacity:1" fill="#6a5335" d="M 486.5,251.5 C 489.428,251.565 492.095,252.232 494.5,253.5C 491.505,253.706 488.838,253.04 486.5,251.5 Z"/></g>
<g><path style="opacity:1" fill="#644e31" d="M 83.5,252.5 C 90.4648,253.341 97.4648,253.674 104.5,253.5C 101.686,254.165 98.6862,254.498 95.5,254.5C 91.2032,254.722 87.2032,254.055 83.5,252.5 Z"/></g>
<g><path style="opacity:1" fill="#f0d597" d="M 228.5,284.5 C 239.433,282.549 247.266,286.549 252,296.5C 253.163,311.672 246.663,316.505 232.5,311C 226.057,308.223 221.223,303.723 218,297.5C 217.333,295.833 217.333,294.167 218,292.5C 220.94,288.963 224.44,286.297 228.5,284.5 Z"/></g>
<g><path style="opacity:1" fill="#f0d597" d="M 358.5,284.5 C 366.367,283.195 373.2,285.195 379,290.5C 381.374,298.266 378.874,304.1 371.5,308C 366.823,310.726 361.823,312.559 356.5,313.5C 349.692,312.185 346.358,308.019 346.5,301C 346.961,292.907 350.961,287.407 358.5,284.5 Z"/></g>
<g><path style="opacity:1" fill="#edd295" d="M 193.5,307.5 C 214.337,305.83 228.17,314.83 235,334.5C 236.953,359.7 225.453,373.367 200.5,375.5C 183.605,374.44 172.771,365.774 168,349.5C 165.216,328.486 173.716,314.486 193.5,307.5 Z"/></g>
<g><path style="opacity:1" fill="#edd295" d="M 390.5,307.5 C 418.174,306.717 431.674,320.05 431,347.5C 425.004,369.145 410.838,378.312 388.5,375C 369.162,367.831 360.995,353.997 364,333.5C 368.087,319.912 376.92,311.246 390.5,307.5 Z"/></g>
<g><path style="opacity:1" fill="#251a17" d="M 195.5,318.5 C 215.207,317.708 224.707,327.041 224,346.5C 220.706,357.997 213.04,364.33 201,365.5C 186.943,363.609 179.109,355.609 177.5,341.5C 179.001,330.102 185.001,322.435 195.5,318.5 Z"/></g>
<g><path style="opacity:1" fill="#251a16" d="M 391.5,318.5 C 405.619,316.636 415.119,322.302 420,335.5C 421.947,352.96 414.28,362.96 397,365.5C 377.825,361.833 370.825,350.5 376,331.5C 379.818,325.512 384.984,321.179 391.5,318.5 Z"/></g>
<g><path style="opacity:1" fill="#f9f8f8" d="M 207.5,327.5 C 216.171,327.178 218.504,330.845 214.5,338.5C 206.878,341.042 203.711,338.375 205,330.5C 205.698,329.309 206.531,328.309 207.5,327.5 Z"/></g>
<g><path style="opacity:1" fill="#f2f2f2" d="M 400.5,327.5 C 407.827,326.329 410.994,329.329 410,336.5C 406,340.5 402,340.5 398,336.5C 396.927,332.9 397.76,329.9 400.5,327.5 Z"/></g>
<g><path style="opacity:1" fill="#b08956" d="M 183.5,550.5 C 162.107,542.055 143.274,529.722 127,513.5C 118.63,501.738 112.963,488.738 110,474.5C 108.404,464.535 107.07,454.535 106,444.5C 105.667,425.833 105.333,407.167 105,388.5C 104.913,379.005 103.746,369.671 101.5,360.5C 104.13,358.372 106.63,356.039 109,353.5C 115.795,392.435 126.128,430.435 140,467.5C 150.869,497.245 165.369,524.912 183.5,550.5 Z"/></g>
<g><path style="opacity:1" fill="#b08956" d="M 495.5,363.5 C 494.422,370.457 493.589,377.457 493,384.5C 492.862,407.854 492.195,431.187 491,454.5C 489.347,474.123 483.68,492.456 474,509.5C 464,521.577 452.166,531.411 438.5,539C 431.086,543.374 423.419,547.207 415.5,550.5C 421.562,541.391 427.395,532.058 433,522.5C 459.33,470.01 478.163,415.01 489.5,357.5C 491.188,359.854 493.188,361.854 495.5,363.5 Z"/></g>
<g><path style="opacity:1" fill="#010000" d="M 280.5,468.5 C 294.541,468.134 308.541,468.634 322.5,470C 341.741,474.246 352.074,486.246 353.5,506C 349.219,533.283 333.553,549.95 306.5,556C 282.294,557.481 263.794,547.981 251,527.5C 243.12,512.049 243.787,497.049 253,482.5C 260.735,474.876 269.901,470.209 280.5,468.5 Z"/></g>
</svg>
