<?xml version="1.0" encoding="UTF-8"?>
<!DOCTYPE svg PUBLIC "-//W3C//DTD SVG 1.1//EN" "http://www.w3.org/Graphics/SVG/1.1/DTD/svg11.dtd">
<svg xmlns="http://www.w3.org/2000/svg" version="1.1" width="600px" height="600px" style="shape-rendering:geometricPrecision; text-rendering:geometricPrecision; image-rendering:optimizeQuality; fill-rule:evenodd; clip-rule:evenodd" xmlns:xlink="http://www.w3.org/1999/xlink">
<g><path style="opacity:0.963" fill="#010100" d="M 599.5,208.5 C 599.5,226.833 599.5,245.167 599.5,263.5C 574.973,308.893 555.807,356.559 542,406.5C 535.902,417.136 527.069,420.802 515.5,417.5C 508.337,457.029 488.671,488.529 456.5,512C 451.218,514.997 445.885,515.163 440.5,512.5C 434.246,522.254 427.413,531.588 420,540.5C 414.458,545.711 408.625,550.544 402.5,555C 396.38,559.59 389.88,560.423 383,557.5C 372.451,571.048 359.284,581.215 343.5,588C 333.964,591.61 324.63,595.443 315.5,599.5C 304.5,599.5 293.5,599.5 282.5,599.5C 267.083,593.795 252.083,586.962 237.5,579C 229.038,572.872 221.538,565.706 215,557.5C 208.996,560.145 203.163,559.645 197.5,556C 180.81,544.646 167.643,530.146 158,512.5C 151.954,515.307 146.121,514.807 140.5,511C 117.618,494.445 101.118,472.945 91,446.5C 88.0048,436.847 85.1714,427.18 82.5,417.5C 68.0649,420.52 58.5649,414.854 54,400.5C 40.9934,353.291 22.8268,308.291 -0.5,265.5C -0.5,245.5 -0.5,225.5 -0.5,205.5C 21.9972,164.868 49.1639,127.535 81,93.5C 75.9849,81.3573 79.8182,73.1906 92.5,69C 86.1118,61.9727 84.6118,54.1394 88,45.5C 91.5349,41.2106 96.0349,39.7106 101.5,41C 104.833,42.3333 108.167,43.6667 111.5,45C 123.055,46.898 134.555,49.0647 146,51.5C 151.351,49.4539 156.851,47.9539 162.5,47C 190.873,24.5299 223.206,11.1965 259.5,7C 308.852,0.0753128 356.519,6.07531 402.5,25C 413.509,31.5027 424.176,38.5027 434.5,46C 440.85,47.2948 447.017,49.1282 453,51.5C 464.054,48.9621 475.221,46.7955 486.5,45C 489.833,43.6667 493.167,42.3333 496.5,41C 506.547,39.1858 511.881,43.3525 512.5,53.5C 511.924,59.4841 509.59,64.6507 505.5,69C 513.713,70.3803 518.38,75.2136 519.5,83.5C 518.63,86.9799 517.797,90.3133 517,93.5C 543.908,122.672 567.908,154.006 589,187.5C 592.838,194.455 596.338,201.455 599.5,208.5 Z"/></g>
<g><path style="opacity:1" fill="#311f16" d="M 453.5,61.5 C 455.806,63.8241 457.806,66.4908 459.5,69.5C 457.897,72.2796 456.063,74.9462 454,77.5C 453.333,78.8333 453.333,80.1667 454,81.5C 457.163,85.1559 459.829,89.1559 462,93.5C 475.917,101.875 489.75,110.375 503.5,119C 518.457,131.138 516.457,136.138 497.5,134C 495.82,134.347 494.82,135.347 494.5,137C 504.032,155.931 512.199,175.431 519,195.5C 520.919,201.178 520.919,206.844 519,212.5C 518.586,212.957 518.086,213.291 517.5,213.5C 513.374,209.105 508.374,207.605 502.5,209C 501.299,209.903 500.465,211.069 500,212.5C 499.314,219.875 499.647,227.208 501,234.5C 503.237,247.015 506.237,259.349 510,271.5C 511.275,277.793 511.608,284.126 511,290.5C 509.135,292.673 506.969,293.007 504.5,291.5C 503.579,293.756 501.912,294.756 499.5,294.5C 498.883,294.389 498.383,294.056 498,293.5C 497.333,303.833 497.333,314.167 498,324.5C 503.716,333.595 503.883,342.761 498.5,352C 499.972,355.816 500.305,359.649 499.5,363.5C 498.914,363.291 498.414,362.957 498,362.5C 498,373.167 498,383.833 498,394.5C 497.383,399.253 496.383,403.92 495,408.5C 494.131,411.394 492.298,412.561 489.5,412C 485.65,408.451 482.15,404.617 479,400.5C 477.706,405.743 475.873,410.743 473.5,415.5C 477.651,432.565 475.818,448.899 468,464.5C 464.996,471.501 461.162,478.001 456.5,484C 454.097,484.63 452.263,483.797 451,481.5C 446.529,473.231 442.363,464.898 438.5,456.5C 449.199,443.44 457.032,428.773 462,412.5C 463.949,358.825 463.615,305.159 461,251.5C 458.44,213.256 448.106,177.256 430,143.5C 421.276,133.047 410.11,126.547 396.5,124C 383.567,121.142 370.567,120.808 357.5,123C 350.833,126.333 344.167,129.667 337.5,133C 324.504,145.484 314.337,159.984 307,176.5C 304.57,184.5 302.737,192.5 301.5,200.5C 299.5,200.5 297.5,200.5 295.5,200.5C 294.302,184.11 289.135,169.11 280,155.5C 253.177,118.344 219.344,110.844 178.5,133C 174,136.167 170.167,140 167,144.5C 147.278,181.388 137.278,220.722 137,262.5C 135.886,319.205 136.886,375.871 140,432.5C 140.592,436.276 141.592,439.943 143,443.5C 146.77,451.391 151.27,458.724 156.5,465.5C 154.16,470.031 151.994,474.697 150,479.5C 148.114,482.641 145.78,485.308 143,487.5C 139.301,483.775 136.301,479.442 134,474.5C 129.93,465.698 126.43,456.698 123.5,447.5C 122.998,446.479 122.332,446.312 121.5,447C 118.628,449.537 116.128,452.37 114,455.5C 116.366,438.566 118.866,421.899 121.5,405.5C 120.917,403.998 120.084,402.665 119,401.5C 116.688,404.646 114.188,407.646 111.5,410.5C 107.533,413.563 105.033,412.563 104,407.5C 103,403.167 102,398.833 101,394.5C 100.551,384.38 101.051,374.547 102.5,365C 100.673,364.101 99.34,362.767 98.5,361C 99.23,358.184 99.8966,355.35 100.5,352.5C 95.5253,344.213 95.3586,335.88 100,327.5C 100.667,316.5 100.667,305.5 100,294.5C 99.7216,295.416 99.2216,296.082 98.5,296.5C 97.5637,294.559 96.2303,292.892 94.5,291.5C 89.8211,294.886 87.1545,293.719 86.5,288C 92.2496,262.999 96.7496,237.832 100,212.5C 99.3089,209.142 97.3089,207.142 94,206.5C 89.4309,208.726 85.0976,211.393 81,214.5C 78.1284,212.918 76.9618,210.418 77.5,207C 77.8766,200.24 79.3766,193.74 82,187.5C 87.5915,172.984 94.2582,158.984 102,145.5C 103.64,141.874 103.806,138.207 102.5,134.5C 101.562,133.447 100.395,132.78 99,132.5C 95.6925,134.385 92.1925,135.219 88.5,135C 86.6041,133.192 86.1041,131.025 87,128.5C 89.8333,124.333 93.3333,120.833 97.5,118C 110.417,110.292 123.25,102.459 136,94.5C 139.251,88.9956 142.751,83.6622 146.5,78.5C 144.465,75.4757 142.465,72.4757 140.5,69.5C 141.802,66.5341 143.802,64.2008 146.5,62.5C 152.571,59.8974 158.905,58.064 165.5,57C 204.717,26.9322 249.217,13.0988 299,15.5C 334.516,14.2484 368.35,21.0818 400.5,36C 410.844,42.1705 420.844,48.8372 430.5,56C 438.202,57.773 445.869,59.6063 453.5,61.5 Z"/></g>
<g><path style="opacity:1" fill="#5e4a36" d="M 96.5,50.5 C 109.718,55.4573 123.385,58.7907 137.5,60.5C 132.34,66.5098 132.34,72.6765 137.5,79C 135.173,82.6501 132.84,86.3168 130.5,90C 118.668,96.7484 107.001,103.748 95.5,111C 89.2646,115.566 84.0979,121.066 80,127.5C 79.1778,133.029 81.0111,137.529 85.5,141C 89.4346,141.367 93.1013,141.533 96.5,141.5C 85.8792,159.077 77.7125,177.743 72,197.5C 71.3333,203.167 71.3333,208.833 72,214.5C 74.8151,220.169 79.3151,222.002 85.5,220C 88.2664,218.533 90.7664,216.7 93,214.5C 93.1667,215.5 93.3333,216.5 93.5,217.5C 89.4337,240.733 85.1004,263.9 80.5,287C 79.88,295.042 83.5467,299.375 91.5,300C 88.8185,316.005 87.3185,332.172 87,348.5C 86.7191,363.343 86.2191,378.176 85.5,393C 85.3327,396.37 85.9994,399.537 87.5,402.5C 77.876,411.53 70.0426,410.197 64,398.5C 50.9697,350.414 32.6364,304.414 9,260.5C 1.12251,238.05 3.45584,216.716 16,196.5C 33.1159,169.384 51.7826,143.384 72,118.5C 79.3333,109.833 87.3333,101.833 96,94.5C 97.3014,92.6354 97.6347,90.6354 97,88.5C 94.9777,87.2135 92.8111,86.2135 90.5,85.5C 89.3861,84.277 89.2195,82.9437 90,81.5C 95.8214,79.0009 101.821,77.0009 108,75.5C 108.667,74.1667 108.667,72.8333 108,71.5C 101.513,65.8528 97.6798,58.8528 96.5,50.5 Z"/></g>
<g><path style="opacity:1" fill="#5e4a36" d="M 499.5,50.5 C 501.252,50.4176 502.252,51.2509 502.5,53C 499.804,59.5534 495.97,65.3867 491,70.5C 489.813,72.0444 489.48,73.7111 490,75.5C 496.102,76.995 502.102,78.995 508,81.5C 508.781,82.9437 508.614,84.277 507.5,85.5C 505.189,86.2135 503.022,87.2135 501,88.5C 500.333,89.8333 500.333,91.1667 501,92.5C 528.456,120.459 552.789,150.792 574,183.5C 582.473,195.781 588.806,209.114 593,223.5C 595.69,237.362 594.024,250.695 588,263.5C 564.709,306.371 546.709,351.371 534,398.5C 529.729,408.89 522.896,411.057 513.5,405C 512.196,404.196 511.529,403.029 511.5,401.5C 512.616,367.087 511.282,332.754 507.5,298.5C 510.862,298.93 513.695,297.93 516,295.5C 517.62,292.021 518.453,288.354 518.5,284.5C 517.993,278.785 517.16,273.118 516,267.5C 510.616,250.857 507.283,233.857 506,216.5C 508.876,215.611 511.376,216.444 513.5,219C 519.479,220.928 523.646,219.095 526,213.5C 527.919,207.159 527.919,200.825 526,194.5C 520.056,175.998 512.556,158.165 503.5,141C 516.132,143.035 521.299,137.869 519,125.5C 515.5,120.667 511.333,116.5 506.5,113C 494.332,105.415 481.999,98.0815 469.5,91C 466.71,87.2539 464.043,83.4206 461.5,79.5C 468.077,73.0902 468.077,66.7568 461.5,60.5C 470.46,58.5104 479.46,56.677 488.5,55C 492.58,54.2446 496.246,52.7446 499.5,50.5 Z"/></g>
<g><path style="opacity:1" fill="#554331" d="M 453.5,61.5 C 463.707,66.6571 464.04,72.4904 454.5,79C 457.696,83.364 460.696,87.864 463.5,92.5C 476.701,100.865 490.035,109.032 503.5,117C 507.667,119.833 511.167,123.333 514,127.5C 514.769,130.099 514.602,132.599 513.5,135C 508.958,135.746 504.458,135.579 500,134.5C 498.118,134.688 496.952,135.688 496.5,137.5C 507.542,158.749 516.209,180.916 522.5,204C 521.993,207.213 521.326,210.38 520.5,213.5C 516.907,215.012 513.907,214.178 511.5,211C 503.85,208.624 500.184,211.624 500.5,220C 504.198,241.793 508.532,263.46 513.5,285C 513.238,287.547 512.738,290.047 512,292.5C 509.595,293.274 507.095,293.774 504.5,294C 502.785,294.777 501.785,296.11 501.5,298C 505.506,327.016 507.506,356.183 507.5,385.5C 507.499,390.013 507.166,394.347 506.5,398.5C 506.402,363.657 504.068,328.991 499.5,294.5C 501.912,294.756 503.579,293.756 504.5,291.5C 506.969,293.007 509.135,292.673 511,290.5C 511.608,284.126 511.275,277.793 510,271.5C 506.237,259.349 503.237,247.015 501,234.5C 499.647,227.208 499.314,219.875 500,212.5C 500.465,211.069 501.299,209.903 502.5,209C 508.374,207.605 513.374,209.105 517.5,213.5C 518.086,213.291 518.586,212.957 519,212.5C 520.919,206.844 520.919,201.178 519,195.5C 512.199,175.431 504.032,155.931 494.5,137C 494.82,135.347 495.82,134.347 497.5,134C 516.457,136.138 518.457,131.138 503.5,119C 489.75,110.375 475.917,101.875 462,93.5C 459.829,89.1559 457.163,85.1559 454,81.5C 453.333,80.1667 453.333,78.8333 454,77.5C 456.063,74.9462 457.897,72.2796 459.5,69.5C 457.806,66.4908 455.806,63.8241 453.5,61.5 Z"/></g>
<g><path style="opacity:1" fill="#131313" d="M 295.5,200.5 C 282.46,200.958 269.46,202.791 256.5,206C 248.66,208.254 241.327,211.587 234.5,216C 222.638,228.196 210.471,240.03 198,251.5C 183.665,267.169 174.331,285.502 170,306.5C 166.913,321.689 164.913,337.022 164,352.5C 162.552,393.588 163.719,434.588 167.5,475.5C 163.833,472.167 160.167,468.833 156.5,465.5C 151.27,458.724 146.77,451.391 143,443.5C 141.592,439.943 140.592,436.276 140,432.5C 136.886,375.871 135.886,319.205 137,262.5C 137.278,220.722 147.278,181.388 167,144.5C 170.167,140 174,136.167 178.5,133C 219.344,110.844 253.177,118.344 280,155.5C 289.135,169.11 294.302,184.11 295.5,200.5 Z"/></g>
<g><path style="opacity:1" fill="#131313" d="M 438.5,456.5 C 436.5,458.833 434.5,461.167 432.5,463.5C 434.595,425.691 434.928,388.024 433.5,350.5C 433.549,321.361 426.715,294.028 413,268.5C 409.333,263.5 405.667,258.5 402,253.5C 388.862,241.363 376.029,228.863 363.5,216C 353.885,210.238 343.552,206.238 332.5,204C 322.031,202.688 311.698,201.522 301.5,200.5C 302.737,192.5 304.57,184.5 307,176.5C 314.337,159.984 324.504,145.484 337.5,133C 344.167,129.667 350.833,126.333 357.5,123C 370.567,120.808 383.567,121.142 396.5,124C 410.11,126.547 421.276,133.047 430,143.5C 448.106,177.256 458.44,213.256 461,251.5C 463.615,305.159 463.949,358.825 462,412.5C 457.032,428.773 449.199,443.44 438.5,456.5 Z"/></g>
<g><path style="opacity:1" fill="#8e6734" d="M 184.5,204.5 C 192.728,211.549 201.728,212.382 211.5,207C 219.952,199.419 221.618,190.586 216.5,180.5C 219.521,177.56 223.021,176.56 227,177.5C 233.544,198.912 226.377,213.412 205.5,221C 193.928,223.032 184.261,219.699 176.5,211C 178.771,208.218 181.437,206.051 184.5,204.5 Z"/></g>
<g><path style="opacity:1" fill="#8f6734" d="M 380.5,181.5 C 375.827,194.646 379.827,204.146 392.5,210C 400.559,211.737 407.559,209.903 413.5,204.5C 416.563,206.051 419.229,208.218 421.5,211C 409.932,222.18 396.932,224.18 382.5,217C 368.468,206.563 364.801,193.23 371.5,177C 375.617,176.392 378.617,177.892 380.5,181.5 Z"/></g>
<g><path style="opacity:1" fill="#030100" d="M 216.5,180.5 C 221.618,190.586 219.952,199.419 211.5,207C 201.728,212.382 192.728,211.549 184.5,204.5C 194.055,195.052 204.722,187.052 216.5,180.5 Z"/></g>
<g><path style="opacity:1" fill="#020100" d="M 413.5,204.5 C 407.559,209.903 400.559,211.737 392.5,210C 379.827,204.146 375.827,194.646 380.5,181.5C 381.117,181.389 381.617,181.056 382,180.5C 393.557,187.186 404.057,195.186 413.5,204.5 Z"/></g>
<g><path style="opacity:1" fill="#393835" d="M 295.5,200.5 C 297.5,200.5 299.5,200.5 301.5,200.5C 311.698,201.522 322.031,202.688 332.5,204C 343.552,206.238 353.885,210.238 363.5,216C 376.029,228.863 388.862,241.363 402,253.5C 405.667,258.5 409.333,263.5 413,268.5C 426.715,294.028 433.549,321.361 433.5,350.5C 433.657,351.873 433.49,353.207 433,354.5C 424.487,345.321 415.32,336.821 405.5,329C 401.2,323.699 396.534,318.699 391.5,314C 383.68,306.683 375.68,299.516 367.5,292.5C 362.508,275.347 351.175,264.847 333.5,261C 315.318,257.661 296.984,256.661 278.5,258C 262.16,259.328 248.326,265.828 237,277.5C 225.628,300.686 229.795,320.686 249.5,337.5C 248.107,339.284 247.607,341.284 248,343.5C 264.216,362.981 279.883,382.981 295,403.5C 296.697,404.364 297.863,405.697 298.5,407.5C 305.656,408.033 311.989,410.533 317.5,415C 321,418.5 324.5,422 328,425.5C 329.879,427.527 331.046,429.86 331.5,432.5C 325.224,424.393 317.557,417.893 308.5,413C 297.156,409.67 287.156,412.003 278.5,420C 266.959,432.284 257.293,445.784 249.5,460.5C 246.395,463.275 244.062,466.608 242.5,470.5C 234.696,480.47 225.696,489.304 215.5,497C 206.501,503.416 196.501,506.083 185.5,505C 173.283,499.084 167.283,489.25 167.5,475.5C 163.719,434.588 162.552,393.588 164,352.5C 164.913,337.022 166.913,321.689 170,306.5C 174.331,285.502 183.665,267.169 198,251.5C 210.471,240.03 222.638,228.196 234.5,216C 241.327,211.587 248.66,208.254 256.5,206C 269.46,202.791 282.46,200.958 295.5,200.5 Z"/></g>
<g><path style="opacity:1" fill="#554331" d="M 146.5,62.5 C 143.802,64.2008 141.802,66.5341 140.5,69.5C 142.465,72.4757 144.465,75.4757 146.5,78.5C 142.751,83.6622 139.251,88.9956 136,94.5C 123.25,102.459 110.417,110.292 97.5,118C 93.3333,120.833 89.8333,124.333 87,128.5C 86.1041,131.025 86.6041,133.192 88.5,135C 92.1925,135.219 95.6925,134.385 99,132.5C 100.395,132.78 101.562,133.447 102.5,134.5C 103.806,138.207 103.64,141.874 102,145.5C 94.2582,158.984 87.5915,172.984 82,187.5C 79.3766,193.74 77.8766,200.24 77.5,207C 76.9618,210.418 78.1284,212.918 81,214.5C 85.0976,211.393 89.4309,208.726 94,206.5C 97.3089,207.142 99.3089,209.142 100,212.5C 96.7496,237.832 92.2496,262.999 86.5,288C 87.1545,293.719 89.8211,294.886 94.5,291.5C 96.2303,292.892 97.5637,294.559 98.5,296.5C 93.9514,330.383 91.6181,364.383 91.5,398.5C 90.7337,397.834 90.4004,396.334 90.5,394C 91.2544,372.833 92.0878,351.666 93,330.5C 93.5892,319.027 95.0892,307.693 97.5,296.5C 96.2402,295.618 95.0736,294.618 94,293.5C 87.9971,295.998 85.1638,293.998 85.5,287.5C 90.5336,264.132 94.8669,240.632 98.5,217C 99.253,212.675 97.753,209.509 94,207.5C 90.8333,210 87.6667,212.5 84.5,215C 77.6683,216.332 75.0016,213.499 76.5,206.5C 76.9193,197.407 79.0859,188.74 83,180.5C 88.9705,166.56 95.4705,152.893 102.5,139.5C 102.134,137.16 100.967,135.493 99,134.5C 95.3109,136.218 91.4775,136.718 87.5,136C 84.2527,133.261 83.7527,130.094 86,126.5C 88.5,124 91,121.5 93.5,119C 105.166,111.165 117.166,103.831 129.5,97C 131.96,95.5422 134.127,93.7089 136,91.5C 138.336,86.8249 141.169,82.4916 144.5,78.5C 142.476,76.3102 140.643,73.9768 139,71.5C 138.319,66.004 140.819,63.004 146.5,62.5 Z"/></g>
<g><path style="opacity:1" fill="#000000" d="M 367.5,292.5 C 368.839,312.988 361.172,329.154 344.5,341C 311.83,364.008 280.163,362.842 249.5,337.5C 229.795,320.686 225.628,300.686 237,277.5C 248.326,265.828 262.16,259.328 278.5,258C 296.984,256.661 315.318,257.661 333.5,261C 351.175,264.847 362.508,275.347 367.5,292.5 Z"/></g>
<g><path style="opacity:1" fill="#373632" d="M 367.5,292.5 C 375.68,299.516 383.68,306.683 391.5,314C 396.534,318.699 401.2,323.699 405.5,329C 415.32,336.821 424.487,345.321 433,354.5C 433.49,353.207 433.657,351.873 433.5,350.5C 434.928,388.024 434.595,425.691 432.5,463.5C 431.373,471.458 430.207,479.458 429,487.5C 424.335,501.158 414.835,506.991 400.5,505C 392.14,502.32 384.474,498.32 377.5,493C 369.9,485.905 362.9,478.405 356.5,470.5C 354.066,466.618 351.399,462.952 348.5,459.5C 343.229,450.233 337.562,441.233 331.5,432.5C 331.046,429.86 329.879,427.527 328,425.5C 324.5,422 321,418.5 317.5,415C 311.989,410.533 305.656,408.033 298.5,407.5C 297.863,405.697 296.697,404.364 295,403.5C 279.883,382.981 264.216,362.981 248,343.5C 247.607,341.284 248.107,339.284 249.5,337.5C 280.163,362.842 311.83,364.008 344.5,341C 361.172,329.154 368.839,312.988 367.5,292.5 Z"/></g>
<g><path style="opacity:1" fill="#2d1e10" d="M 499.5,294.5 C 504.068,328.991 506.402,363.657 506.5,398.5C 504.471,441.392 486.471,475.892 452.5,502C 450.409,503.675 448.242,504.175 446,503.5C 446.482,498.879 446.982,494.212 447.5,489.5C 444.041,490.436 441.207,492.436 439,495.5C 430.722,508.11 422.056,520.444 413,532.5C 407.076,538.428 400.576,543.594 393.5,548C 391.866,548.494 390.199,548.66 388.5,548.5C 388.505,544.466 388.838,540.466 389.5,536.5C 388.448,536.351 387.448,536.517 386.5,537C 378.202,547.566 369.202,557.566 359.5,567C 357.5,568.333 355.5,569.667 353.5,571C 335.4,579.365 317.233,587.531 299,595.5C 287.137,589.653 274.971,584.486 262.5,580C 242.055,571.887 226.222,558.387 215,539.5C 213.736,537.393 211.903,536.393 209.5,536.5C 209.833,540.5 210.167,544.5 210.5,548.5C 208.801,548.66 207.134,548.494 205.5,548C 196.5,543.009 188.667,536.509 182,528.5C 173.667,516.5 165.333,504.5 157,492.5C 155.266,490.549 153.099,489.549 150.5,489.5C 151.658,494.119 152.158,498.785 152,503.5C 150.493,504.535 148.993,504.368 147.5,503C 122.114,484.922 105.281,460.756 97,430.5C 94.8294,419.751 92.9961,409.084 91.5,398.5C 91.6181,364.383 93.9514,330.383 98.5,296.5C 99.2216,296.082 99.7216,295.416 100,294.5C 100.667,305.5 100.667,316.5 100,327.5C 95.3586,335.88 95.5253,344.213 100.5,352.5C 99.8966,355.35 99.23,358.184 98.5,361C 99.34,362.767 100.673,364.101 102.5,365C 101.051,374.547 100.551,384.38 101,394.5C 102,398.833 103,403.167 104,407.5C 105.033,412.563 107.533,413.563 111.5,410.5C 114.188,407.646 116.688,404.646 119,401.5C 120.084,402.665 120.917,403.998 121.5,405.5C 118.866,421.899 116.366,438.566 114,455.5C 116.128,452.37 118.628,449.537 121.5,447C 122.332,446.312 122.998,446.479 123.5,447.5C 126.43,456.698 129.93,465.698 134,474.5C 136.301,479.442 139.301,483.775 143,487.5C 145.78,485.308 148.114,482.641 150,479.5C 151.994,474.697 154.16,470.031 156.5,465.5C 160.167,468.833 163.833,472.167 167.5,475.5C 167.283,489.25 173.283,499.084 185.5,505C 196.501,506.083 206.501,503.416 215.5,497C 225.696,489.304 234.696,480.47 242.5,470.5C 245.152,472.295 247.819,472.961 250.5,472.5C 253.274,489.546 260.94,504.046 273.5,516C 294.995,529.001 314.495,526.501 332,508.5C 339.699,496.782 344.865,484.116 347.5,470.5C 347.351,471.552 347.517,472.552 348,473.5C 350.727,472.202 353.56,471.202 356.5,470.5C 362.9,478.405 369.9,485.905 377.5,493C 384.474,498.32 392.14,502.32 400.5,505C 414.835,506.991 424.335,501.158 429,487.5C 430.207,479.458 431.373,471.458 432.5,463.5C 434.5,461.167 436.5,458.833 438.5,456.5C 442.363,464.898 446.529,473.231 451,481.5C 452.263,483.797 454.097,484.63 456.5,484C 461.162,478.001 464.996,471.501 468,464.5C 475.818,448.899 477.651,432.565 473.5,415.5C 475.873,410.743 477.706,405.743 479,400.5C 482.15,404.617 485.65,408.451 489.5,412C 492.298,412.561 494.131,411.394 495,408.5C 496.383,403.92 497.383,399.253 498,394.5C 498,383.833 498,373.167 498,362.5C 498.414,362.957 498.914,363.291 499.5,363.5C 500.305,359.649 499.972,355.816 498.5,352C 503.883,342.761 503.716,333.595 498,324.5C 497.333,314.167 497.333,303.833 498,293.5C 498.383,294.056 498.883,294.389 499.5,294.5 Z"/></g>
<g><path style="opacity:1" fill="#f19c9f" d="M 331.5,432.5 C 337.562,441.233 343.229,450.233 348.5,459.5C 348.058,463.154 347.724,466.821 347.5,470.5C 344.865,484.116 339.699,496.782 332,508.5C 314.495,526.501 294.995,529.001 273.5,516C 260.94,504.046 253.274,489.546 250.5,472.5C 249.979,468.519 249.646,464.519 249.5,460.5C 257.293,445.784 266.959,432.284 278.5,420C 287.156,412.003 297.156,409.67 308.5,413C 317.557,417.893 325.224,424.393 331.5,432.5 Z"/></g>
<g><path style="opacity:1" fill="#020101" d="M 249.5,460.5 C 249.646,464.519 249.979,468.519 250.5,472.5C 247.819,472.961 245.152,472.295 242.5,470.5C 244.062,466.608 246.395,463.275 249.5,460.5 Z"/></g>
<g><path style="opacity:1" fill="#020201" d="M 348.5,459.5 C 351.399,462.952 354.066,466.618 356.5,470.5C 353.56,471.202 350.727,472.202 348,473.5C 347.517,472.552 347.351,471.552 347.5,470.5C 347.724,466.821 348.058,463.154 348.5,459.5 Z"/></g>
</svg>
