<?xml version="1.0" encoding="UTF-8"?>
<!DOCTYPE svg PUBLIC "-//W3C//DTD SVG 1.1//EN" "http://www.w3.org/Graphics/SVG/1.1/DTD/svg11.dtd">
<svg xmlns="http://www.w3.org/2000/svg" version="1.1" width="600px" height="600px" style="shape-rendering:geometricPrecision; text-rendering:geometricPrecision; image-rendering:optimizeQuality; fill-rule:evenodd; clip-rule:evenodd" xmlns:xlink="http://www.w3.org/1999/xlink">
<g><path style="opacity:0.957" fill="#060403" d="M 599.5,339.5 C 599.5,357.833 599.5,376.167 599.5,394.5C 589.349,414.135 573.682,427.635 552.5,435C 525.375,445.166 497.875,446.666 470,439.5C 466.918,445.584 462.251,449.917 456,452.5C 453.641,460.711 449.141,467.544 442.5,473C 426.966,485.607 409.966,495.94 391.5,504C 383.32,507.129 374.987,509.795 366.5,512C 363.24,512.784 360.073,512.617 357,511.5C 354.293,513.936 351.127,515.436 347.5,516C 317.167,520.667 286.833,520.667 256.5,516C 217.326,510.33 183.493,493.497 155,465.5C 151.662,461.816 149.662,457.482 149,452.5C 142.59,450.425 138.09,446.258 135.5,440C 103.346,447.487 72.0124,444.82 41.5,432C 21.4727,423.142 7.47267,408.642 -0.5,388.5C -0.5,374.5 -0.5,360.5 -0.5,346.5C 2.7368,338.018 6.57014,329.685 11,321.5C 15.7318,314.427 20.0651,307.094 24,299.5C 27.7375,286.621 32.0709,273.954 37,261.5C 45.2905,250.874 53.9572,240.541 63,230.5C 68.2564,220.32 73.2564,209.986 78,199.5C 84.4073,188.425 92.9073,179.258 103.5,172C 119.5,162 135.5,152 151.5,142C 145.64,133.527 146.974,126.194 155.5,120C 169.683,113.204 184.683,109.371 200.5,108.5C 198.737,101.196 201.403,96.0288 208.5,93C 212.833,92.3333 217.167,92.3333 221.5,93C 230.105,95.3215 238.772,96.9881 247.5,98C 247.156,89.009 251.656,84.509 261,84.5C 274.958,86.0417 287.958,90.375 300,97.5C 310.85,91.5498 322.35,87.3831 334.5,85C 341.2,83.4106 347.034,84.9106 352,89.5C 353.252,92.0135 353.752,94.6802 353.5,97.5C 360.882,96.3219 368.215,94.8219 375.5,93C 380.833,92.3333 386.167,92.3333 391.5,93C 398.4,95.2819 401.4,100.115 400.5,107.5C 416.227,108.61 431.227,112.444 445.5,119C 454.575,125.446 456.242,133.279 450.5,142.5C 450.709,143.086 451.043,143.586 451.5,144C 474.863,155.375 496.03,169.875 515,187.5C 523.559,199.949 530.559,213.283 536,227.5C 545.376,237.874 554.376,248.54 563,259.5C 568.73,274.025 574.064,288.691 579,303.5C 586.633,315.107 593.467,327.107 599.5,339.5 Z"/></g>
<g><path style="opacity:1" fill="#f0f0f0" d="M 340.5,298.5 C 340.611,299.117 340.944,299.617 341.5,300C 345.145,300.995 348.812,301.828 352.5,302.5C 368.02,307.093 382.353,314.093 395.5,323.5C 392.865,325.328 389.865,326.495 386.5,327C 381.5,327.167 376.5,327.333 371.5,327.5C 357.495,326.884 343.495,326.217 329.5,325.5C 325.511,318.704 319.511,314.871 311.5,314C 303.5,313.333 295.5,313.333 287.5,314C 281.062,315.048 275.729,317.882 271.5,322.5C 269.787,321.365 269.12,319.698 269.5,317.5C 262.162,316.444 254.828,315.277 247.5,314C 239.167,313.667 230.833,313.333 222.5,313C 223.056,312.617 223.389,312.117 223.5,311.5C 234.461,306.513 245.794,302.513 257.5,299.5C 262.868,295.298 267.368,290.298 271,284.5C 282.306,257.336 277.973,233.003 258,211.5C 256.453,204.29 251.953,200.124 244.5,199C 242.034,196.521 239.701,194.021 237.5,191.5C 232.633,183.045 231.299,174.045 233.5,164.5C 233.5,163.5 233.5,162.5 233.5,161.5C 237.012,154.317 241.346,147.65 246.5,141.5C 251.563,135.804 257.229,130.804 263.5,126.5C 268.804,123.188 273.804,119.521 278.5,115.5C 279.833,114.833 280.833,113.833 281.5,112.5C 283.152,109.375 282.152,107.208 278.5,106C 272.513,105.964 266.513,106.131 260.5,106.5C 258.904,102.643 257.904,98.6432 257.5,94.5C 261.534,94.6721 265.534,95.1721 269.5,96C 279.984,99.4951 290.15,103.662 300,108.5C 307.213,105.478 314.38,102.311 321.5,99C 327.807,96.6316 334.307,95.1316 341,94.5C 342.5,94.6667 343.333,95.5 343.5,97C 342.338,100.147 341.338,103.314 340.5,106.5C 333.492,106.334 326.492,106.5 319.5,107C 316.871,110.199 317.204,113.199 320.5,116C 334.163,123.998 346.33,133.831 357,145.5C 366.24,156.702 369.24,169.369 366,183.5C 363.73,188.098 361.063,192.431 358,196.5C 353.448,198.13 348.948,199.964 344.5,202C 339.737,204.844 338.07,208.844 339.5,214C 320.26,236.607 317.426,261.107 331,287.5C 334.002,291.334 337.169,295 340.5,298.5 Z"/></g>
<g><path style="opacity:1" fill="#86623f" d="M 237.5,196.5 C 212.554,197.263 188.888,203.43 166.5,215C 160.096,218.735 154.263,223.235 149,228.5C 147.99,233.166 149.823,235.499 154.5,235.5C 161.664,233.921 168.664,231.754 175.5,229C 176.833,228.333 178.167,228.333 179.5,229C 173.162,235.675 167.996,243.175 164,251.5C 163.416,254.257 163.75,256.923 165,259.5C 165.893,260.081 166.893,260.415 168,260.5C 171.296,259.87 174.13,258.37 176.5,256C 184.997,246.922 194.997,240.089 206.5,235.5C 201.141,252.614 206.808,264.114 223.5,270C 237.26,270.909 246.093,264.742 250,251.5C 251.255,239.508 246.422,231.008 235.5,226C 234.207,225.51 232.873,225.343 231.5,225.5C 232.507,224.172 233.84,223.172 235.5,222.5C 241.06,220.574 246.726,219.074 252.5,218C 253.71,216.961 254.71,215.794 255.5,214.5C 259.549,217.384 262.716,221.051 265,225.5C 268.255,231.6 270.921,237.934 273,244.5C 277.675,265.322 271.842,282.489 255.5,296C 246.873,299.741 237.873,302.741 228.5,305C 208.865,314.222 191.698,326.722 177,342.5C 169.132,352.896 162.798,364.229 158,376.5C 157.57,379.192 157.737,381.859 158.5,384.5C 164.898,385.947 169.731,383.947 173,378.5C 172.735,382.152 171.401,385.486 169,388.5C 164.149,404.129 160.149,420.129 157,436.5C 154.978,439.759 152.145,441.259 148.5,441C 145.113,436.39 142.113,431.557 139.5,426.5C 130.056,410.598 123.056,393.598 118.5,375.5C 119.886,371.947 121.886,368.78 124.5,366C 124.167,365.5 123.833,365 123.5,364.5C 120.061,367.45 117.227,367.117 115,363.5C 107.416,326.289 105.583,288.956 109.5,251.5C 107.958,252.747 106.458,252.747 105,251.5C 104.792,240.327 107.125,229.66 112,219.5C 116.501,208.332 121.668,197.499 127.5,187C 126.725,184.232 124.892,183.066 122,183.5C 118.803,184.244 115.636,184.744 112.5,185C 112.043,184.586 111.709,184.086 111.5,183.5C 112.467,181.21 113.8,179.21 115.5,177.5C 131.793,166.893 148.126,156.226 164.5,145.5C 165.631,143.926 165.798,142.259 165,140.5C 162.233,138.242 160.066,135.575 158.5,132.5C 158.529,130.971 159.196,129.804 160.5,129C 167.685,124.962 175.352,122.296 183.5,121C 195.125,119.301 206.791,117.968 218.5,117C 220.221,116.261 221.887,115.427 223.5,114.5C 219.206,111.011 214.873,107.511 210.5,104C 210.833,103.667 211.167,103.333 211.5,103C 215.869,102.575 220.203,102.908 224.5,104C 236.853,107.722 249.353,109.889 262,110.5C 267.146,109.529 272.313,109.363 277.5,110C 278.458,111.147 278.125,112.147 276.5,113C 262.886,120.937 250.72,130.771 240,142.5C 231.129,154.097 227.462,167.097 229,181.5C 230.816,187.138 233.649,192.138 237.5,196.5 Z"/></g>
<g><path style="opacity:1" fill="#805e3d" d="M 487.5,178.5 C 493.064,187.78 490.564,190.78 480,187.5C 478.027,187.309 476.527,187.976 475.5,189.5C 485.145,206.117 491.979,223.783 496,242.5C 496.81,247.214 496.31,251.714 494.5,256C 497.103,279.674 497.103,303.341 494.5,327C 494.473,340.339 492.64,353.506 489,366.5C 486.931,367.264 484.764,367.764 482.5,368C 486.13,371.05 487.297,374.883 486,379.5C 480.87,396.089 474.37,412.089 466.5,427.5C 465.504,427.414 464.671,427.748 464,428.5C 461.29,432.753 458.457,436.92 455.5,441C 451.328,441.868 448.162,440.368 446,436.5C 445.308,437.025 444.808,437.692 444.5,438.5C 447.691,448.565 445.191,456.898 437,463.5C 436.1,462.23 434.934,461.23 433.5,460.5C 440.534,453.221 443.034,444.555 441,434.5C 437.373,415.32 432.373,396.654 426,378.5C 428.848,381.356 432.181,383.356 436,384.5C 440.069,383.897 441.736,381.564 441,377.5C 428.043,344.209 405.209,320.376 372.5,306C 362.853,302.452 353.186,299.118 343.5,296C 329.5,282.876 324,266.709 327,247.5C 329.716,236.073 334.549,225.74 341.5,216.5C 346.716,218.808 352.216,220.141 358,220.5C 361.131,221.014 363.631,222.348 365.5,224.5C 350.849,231.139 346.015,242.139 351,257.5C 361.924,272.699 374.591,274.365 389,262.5C 394.867,254.147 396.033,245.147 392.5,235.5C 392.735,234.903 393.235,234.57 394,234.5C 397.189,236.677 400.689,238.177 404.5,239C 412.966,245.134 421.133,251.634 429,258.5C 432.072,257.553 433.072,255.553 432,252.5C 428.663,245.151 424.329,238.484 419,232.5C 418.506,230.866 418.34,229.199 418.5,227.5C 426.461,228.263 434.128,230.263 441.5,233.5C 444.082,233.253 444.915,231.92 444,229.5C 420.399,208.458 392.566,198.125 360.5,198.5C 371.281,186.71 373.781,173.377 368,158.5C 363.092,147.922 356.259,138.755 347.5,131C 338.424,124.803 329.757,118.137 321.5,111C 321.833,110.667 322.167,110.333 322.5,110C 341.848,110.272 360.848,107.938 379.5,103C 383.362,102.087 387.028,102.42 390.5,104C 389.874,104.75 389.374,105.584 389,106.5C 384.722,108.723 380.888,111.557 377.5,115C 394.201,117.338 410.868,120.005 427.5,123C 434.205,124.342 439.538,127.675 443.5,133C 441.385,136.118 438.885,138.952 436,141.5C 435.219,142.944 435.386,144.277 436.5,145.5C 447.164,154.172 458.83,161.338 471.5,167C 476.735,171.084 482.069,174.917 487.5,178.5 Z"/></g>
<g><path style="opacity:1" fill="#5e5045" d="M 281.5,112.5 C 281.548,109.708 280.215,107.875 277.5,107C 271.676,107.5 266.01,107.334 260.5,106.5C 266.513,106.131 272.513,105.964 278.5,106C 282.152,107.208 283.152,109.375 281.5,112.5 Z"/></g>
<g><path style="opacity:1" fill="#4a3b2e" d="M 278.5,115.5 C 273.804,119.521 268.804,123.188 263.5,126.5C 267.586,121.77 272.586,118.104 278.5,115.5 Z"/></g>
<g><path style="opacity:1" fill="#47382b" d="M 246.5,141.5 C 241.346,147.65 237.012,154.317 233.5,161.5C 235.262,155.309 238.096,149.642 242,144.5C 243.129,142.859 244.629,141.859 246.5,141.5 Z"/></g>
<g><path style="opacity:1" fill="#693a0e" d="M 487.5,178.5 C 498.434,184.933 507.267,193.6 514,204.5C 518.333,213.833 522.667,223.167 527,232.5C 536.333,243.833 545.667,255.167 555,266.5C 559.638,279.046 563.971,291.713 568,304.5C 575.507,316.845 582.507,329.512 589,342.5C 601.005,379.5 589.505,406.333 554.5,423C 530.664,432.584 505.997,435.584 480.5,432C 475.524,431.097 470.858,429.597 466.5,427.5C 474.37,412.089 480.87,396.089 486,379.5C 487.297,374.883 486.13,371.05 482.5,368C 484.764,367.764 486.931,367.264 489,366.5C 492.64,353.506 494.473,340.339 494.5,327C 497.103,303.341 497.103,279.674 494.5,256C 496.31,251.714 496.81,247.214 496,242.5C 491.979,223.783 485.145,206.117 475.5,189.5C 476.527,187.976 478.027,187.309 480,187.5C 490.564,190.78 493.064,187.78 487.5,178.5 Z"/></g>
<g><path style="opacity:1" fill="#693a0f" d="M 115.5,177.5 C 113.8,179.21 112.467,181.21 111.5,183.5C 111.709,184.086 112.043,184.586 112.5,185C 115.636,184.744 118.803,184.244 122,183.5C 124.892,183.066 126.725,184.232 127.5,187C 121.668,197.499 116.501,208.332 112,219.5C 107.125,229.66 104.792,240.327 105,251.5C 106.458,252.747 107.958,252.747 109.5,251.5C 105.583,288.956 107.416,326.289 115,363.5C 117.227,367.117 120.061,367.45 123.5,364.5C 123.833,365 124.167,365.5 124.5,366C 121.886,368.78 119.886,371.947 118.5,375.5C 123.056,393.598 130.056,410.598 139.5,426.5C 108.108,436.751 77.1078,435.585 46.5,423C 13.1185,407.069 1.28516,381.235 11,345.5C 17.5554,331.388 24.8887,317.721 33,304.5C 37.2129,290.526 42.2129,276.86 48,263.5C 56.3333,253.833 64.6667,244.167 73,234.5C 77.5267,225.252 81.8601,215.918 86,206.5C 93.0681,193.931 102.901,184.264 115.5,177.5 Z"/></g>
<g><path style="opacity:1" fill="#5c4e43" d="M 233.5,164.5 C 231.299,174.045 232.633,183.045 237.5,191.5C 234.919,188.68 233.086,185.346 232,181.5C 231.333,176.167 231.333,170.833 232,165.5C 232.383,164.944 232.883,164.611 233.5,164.5 Z"/></g>
<g><path style="opacity:1" fill="#693b0f" d="M 237.5,196.5 C 238.249,197.531 238.915,198.698 239.5,200C 244.532,201.598 249.032,204.098 253,207.5C 254.136,209.743 254.97,212.076 255.5,214.5C 254.71,215.794 253.71,216.961 252.5,218C 246.726,219.074 241.06,220.574 235.5,222.5C 233.84,223.172 232.507,224.172 231.5,225.5C 222.696,227.657 214.362,230.99 206.5,235.5C 194.997,240.089 184.997,246.922 176.5,256C 174.13,258.37 171.296,259.87 168,260.5C 166.893,260.415 165.893,260.081 165,259.5C 163.75,256.923 163.416,254.257 164,251.5C 167.996,243.175 173.162,235.675 179.5,229C 178.167,228.333 176.833,228.333 175.5,229C 168.664,231.754 161.664,233.921 154.5,235.5C 149.823,235.499 147.99,233.166 149,228.5C 154.263,223.235 160.096,218.735 166.5,215C 188.888,203.43 212.554,197.263 237.5,196.5 Z"/></g>
<g><path style="opacity:1" fill="#693a0f" d="M 360.5,198.5 C 392.566,198.125 420.399,208.458 444,229.5C 444.915,231.92 444.082,233.253 441.5,233.5C 434.128,230.263 426.461,228.263 418.5,227.5C 418.34,229.199 418.506,230.866 419,232.5C 424.329,238.484 428.663,245.151 432,252.5C 433.072,255.553 432.072,257.553 429,258.5C 421.133,251.634 412.966,245.134 404.5,239C 400.689,238.177 397.189,236.677 394,234.5C 393.235,234.57 392.735,234.903 392.5,235.5C 383.871,231.022 374.871,227.355 365.5,224.5C 363.631,222.348 361.131,221.014 358,220.5C 352.216,220.141 346.716,218.808 341.5,216.5C 342.241,213.587 342.741,210.587 343,207.5C 343.833,206.667 344.667,205.833 345.5,205C 350.639,202.977 355.639,200.81 360.5,198.5 Z"/></g>
<g><path style="opacity:1" fill="#302826" d="M 231.5,225.5 C 232.873,225.343 234.207,225.51 235.5,226C 246.422,231.008 251.255,239.508 250,251.5C 246.093,264.742 237.26,270.909 223.5,270C 206.808,264.114 201.141,252.614 206.5,235.5C 214.362,230.99 222.696,227.657 231.5,225.5 Z"/></g>
<g><path style="opacity:1" fill="#302826" d="M 365.5,224.5 C 374.871,227.355 383.871,231.022 392.5,235.5C 396.033,245.147 394.867,254.147 389,262.5C 374.591,274.365 361.924,272.699 351,257.5C 346.015,242.139 350.849,231.139 365.5,224.5 Z"/></g>
<g><path style="opacity:1" fill="#eae9e9" d="M 230.5,232.5 C 237.632,232.802 240.465,236.469 239,243.5C 234.286,248.823 229.62,248.823 225,243.5C 223.697,238.105 225.53,234.438 230.5,232.5 Z"/></g>
<g><path style="opacity:1" fill="#ecebeb" d="M 374.5,232.5 C 382.179,233.018 385.012,237.018 383,244.5C 373.277,250.435 368.944,247.768 370,236.5C 371.397,234.93 372.897,233.596 374.5,232.5 Z"/></g>
<g><path style="opacity:1" fill="#5e4f40" d="M 340.5,298.5 C 344.805,299.235 348.805,300.568 352.5,302.5C 348.812,301.828 345.145,300.995 341.5,300C 340.944,299.617 340.611,299.117 340.5,298.5 Z"/></g>
<g><path style="opacity:1" fill="#f1f0eb" d="M 223.5,311.5 C 223.389,312.117 223.056,312.617 222.5,313C 230.833,313.333 239.167,313.667 247.5,314C 254.828,315.277 262.162,316.444 269.5,317.5C 269.12,319.698 269.787,321.365 271.5,322.5C 266.681,334.536 270.015,344.036 281.5,351C 286.37,354.272 291.703,356.106 297.5,356.5C 297.559,360.548 295.892,363.715 292.5,366C 284.434,366.686 276.434,366.186 268.5,364.5C 265.362,364.868 262.362,365.701 259.5,367C 255.586,371.994 252.586,377.494 250.5,383.5C 246.52,389.449 243.02,395.783 240,402.5C 236.818,411.562 233.485,420.562 230,429.5C 228.534,431.325 226.701,431.825 224.5,431C 222.108,428.272 220.108,425.272 218.5,422C 216.888,421.28 215.388,421.446 214,422.5C 209.818,434.086 206.651,445.919 204.5,458C 203.004,458.507 201.837,458.007 201,456.5C 197.587,446.107 196.087,435.44 196.5,424.5C 194.408,424.561 192.908,425.561 192,427.5C 189.757,432.985 187.257,438.318 184.5,443.5C 182.257,439.863 181.257,435.863 181.5,431.5C 182.363,420.999 183.863,410.666 186,400.5C 184.667,399.167 183.333,399.167 182,400.5C 178.293,407.414 174.46,414.248 170.5,421C 169.216,421.684 168.049,421.517 167,420.5C 167.24,416.992 167.073,413.659 166.5,410.5C 169.783,396.65 174.45,383.316 180.5,370.5C 178.217,370.608 176.217,371.441 174.5,373C 171.043,375.387 168.043,378.22 165.5,381.5C 164.167,381.5 162.833,381.5 161.5,381.5C 161.5,380.5 161.5,379.5 161.5,378.5C 173.173,347.828 193.84,325.494 223.5,311.5 Z"/></g>
<g><path style="opacity:1" fill="#0f0e0d" d="M 329.5,325.5 C 331.423,332.906 329.923,339.572 325,345.5C 318.91,351.15 311.743,354.816 303.5,356.5C 302.453,360.583 303.787,363.75 307.5,366C 315.009,366.019 322.509,365.519 330,364.5C 336.312,364.322 340.979,366.989 344,372.5C 346.072,375.971 347.572,379.638 348.5,383.5C 347.577,384.303 346.577,384.47 345.5,384C 342.978,379.966 339.978,376.299 336.5,373C 334.801,372.042 332.967,371.542 331,371.5C 319.981,374.098 308.814,375.431 297.5,375.5C 286.37,375.035 275.37,373.869 264.5,372C 259.996,374.996 256.663,378.996 254.5,384C 253.072,384.579 251.738,384.412 250.5,383.5C 252.586,377.494 255.586,371.994 259.5,367C 262.362,365.701 265.362,364.868 268.5,364.5C 276.434,366.186 284.434,366.686 292.5,366C 295.892,363.715 297.559,360.548 297.5,356.5C 291.703,356.106 286.37,354.272 281.5,351C 270.015,344.036 266.681,334.536 271.5,322.5C 275.729,317.882 281.062,315.048 287.5,314C 295.5,313.333 303.5,313.333 311.5,314C 319.511,314.871 325.511,318.704 329.5,325.5 Z"/></g>
<g><path style="opacity:1" fill="#2f2725" d="M 290.5,316.5 C 300.864,315.728 310.864,317.228 320.5,321C 327.037,326.475 328.204,332.975 324,340.5C 306.503,358.347 289.836,357.68 274,338.5C 270.696,330.87 272.53,324.87 279.5,320.5C 283.326,319.304 286.993,317.971 290.5,316.5 Z"/></g>
<g><path style="opacity:1" fill="#f0efea" d="M 395.5,323.5 C 416.377,337.945 430.377,357.278 437.5,381.5C 435.692,381.509 434.025,381.009 432.5,380C 428.944,375.978 424.778,372.812 420,370.5C 419.5,370.833 419,371.167 418.5,371.5C 425.907,386.054 430.907,401.388 433.5,417.5C 432.566,418.568 432.232,419.901 432.5,421.5C 430.097,421.607 428.264,420.607 427,418.5C 424.255,412.675 421.255,407.008 418,401.5C 416.89,399.963 415.39,399.297 413.5,399.5C 414.468,407.179 415.635,414.845 417,422.5C 417.877,429.249 417.544,435.916 416,442.5C 415.333,443.833 414.667,443.833 414,442.5C 411.596,436.022 408.429,430.022 404.5,424.5C 403.808,425.025 403.308,425.692 403,426.5C 403.076,436.047 401.742,445.38 399,454.5C 397.929,458.041 396.263,458.708 394,456.5C 392.559,444.736 389.559,433.402 385,422.5C 383.506,421.253 382.006,421.253 380.5,422.5C 378.869,425.596 376.869,428.43 374.5,431C 372.299,431.825 370.466,431.325 369,429.5C 364.581,413.004 357.748,397.671 348.5,383.5C 347.572,379.638 346.072,375.971 344,372.5C 340.979,366.989 336.312,364.322 330,364.5C 322.509,365.519 315.009,366.019 307.5,366C 303.787,363.75 302.453,360.583 303.5,356.5C 311.743,354.816 318.91,351.15 325,345.5C 329.923,339.572 331.423,332.906 329.5,325.5C 343.495,326.217 357.495,326.884 371.5,327.5C 376.5,327.333 381.5,327.167 386.5,327C 389.865,326.495 392.865,325.328 395.5,323.5 Z"/></g>
<g><path style="opacity:1" fill="#2a2321" d="M 299.5,363.5 C 300.931,365.437 302.598,367.27 304.5,369C 311.857,369.414 319.19,369.414 326.5,369C 308.5,373.667 290.5,373.667 272.5,369C 273.5,368.833 274.5,368.667 275.5,368.5C 281.81,369.54 288.143,369.707 294.5,369C 297.056,367.945 298.723,366.112 299.5,363.5 Z"/></g>
<g><path style="opacity:1" fill="#f1f1f1" d="M 348.5,383.5 C 357.748,397.671 364.581,413.004 369,429.5C 370.466,431.325 372.299,431.825 374.5,431C 376.869,428.43 378.869,425.596 380.5,422.5C 382.006,421.253 383.506,421.253 385,422.5C 389.559,433.402 392.559,444.736 394,456.5C 396.263,458.708 397.929,458.041 399,454.5C 401.742,445.38 403.076,436.047 403,426.5C 403.308,425.692 403.808,425.025 404.5,424.5C 408.429,430.022 411.596,436.022 414,442.5C 414.667,443.833 415.333,443.833 416,442.5C 417.544,435.916 417.877,429.249 417,422.5C 415.635,414.845 414.468,407.179 413.5,399.5C 415.39,399.297 416.89,399.963 418,401.5C 421.255,407.008 424.255,412.675 427,418.5C 428.264,420.607 430.097,421.607 432.5,421.5C 432.232,419.901 432.566,418.568 433.5,417.5C 434.11,418.391 434.443,419.391 434.5,420.5C 434.627,425.151 435.627,429.485 437.5,433.5C 440.265,445.152 436.931,454.486 427.5,461.5C 425.355,462.989 423.022,463.989 420.5,464.5C 420.101,460.989 419.434,457.656 418.5,454.5C 418.984,451.202 417.984,448.536 415.5,446.5C 414.702,446.957 414.369,447.624 414.5,448.5C 413.99,455.492 412.823,462.492 411,469.5C 406.438,472.468 401.438,474.468 396,475.5C 392.081,473.583 388.748,470.916 386,467.5C 371.638,480.078 354.805,487.244 335.5,489C 308.395,492.447 281.395,492.114 254.5,488C 261.036,494.369 267.369,500.869 273.5,507.5C 266.517,507.948 259.85,506.781 253.5,504C 251.49,501.122 250.157,497.956 249.5,494.5C 248.081,496.336 246.914,498.336 246,500.5C 245.044,501.894 243.711,502.561 242,502.5C 213.999,496.085 189.499,483.252 168.5,464C 169.328,463.085 170.328,462.419 171.5,462C 161.685,454.564 158.185,444.731 161,432.5C 162.215,424.973 164.048,417.64 166.5,410.5C 167.073,413.659 167.24,416.992 167,420.5C 168.049,421.517 169.216,421.684 170.5,421C 174.46,414.248 178.293,407.414 182,400.5C 183.333,399.167 184.667,399.167 186,400.5C 183.863,410.666 182.363,420.999 181.5,431.5C 181.257,435.863 182.257,439.863 184.5,443.5C 187.257,438.318 189.757,432.985 192,427.5C 192.908,425.561 194.408,424.561 196.5,424.5C 196.087,435.44 197.587,446.107 201,456.5C 201.837,458.007 203.004,458.507 204.5,458C 206.651,445.919 209.818,434.086 214,422.5C 215.388,421.446 216.888,421.28 218.5,422C 220.108,425.272 222.108,428.272 224.5,431C 226.701,431.825 228.534,431.325 230,429.5C 233.485,420.562 236.818,411.562 240,402.5C 243.02,395.783 246.52,389.449 250.5,383.5C 251.738,384.412 253.072,384.579 254.5,384C 256.663,378.996 259.996,374.996 264.5,372C 275.37,373.869 286.37,375.035 297.5,375.5C 308.814,375.431 319.981,374.098 331,371.5C 332.967,371.542 334.801,372.042 336.5,373C 339.978,376.299 342.978,379.966 345.5,384C 346.577,384.47 347.577,384.303 348.5,383.5 Z"/></g>
<g><path style="opacity:1" fill="#594a3d" d="M 161.5,378.5 C 161.5,379.5 161.5,380.5 161.5,381.5C 162.833,381.5 164.167,381.5 165.5,381.5C 164.081,382.451 162.415,382.784 160.5,382.5C 160.232,380.901 160.566,379.568 161.5,378.5 Z"/></g>
<g><path style="opacity:1" fill="#93877d" d="M 434.5,420.5 C 436.118,424.575 437.118,428.908 437.5,433.5C 435.627,429.485 434.627,425.151 434.5,420.5 Z"/></g>
<g><path style="opacity:1" fill="#18130e" d="M 183.5,447.5 C 184.036,450.665 183.203,453.331 181,455.5C 180.536,454.906 180.369,454.239 180.5,453.5C 180.162,450.843 180.829,448.51 182.5,446.5C 183.107,446.624 183.44,446.957 183.5,447.5 Z"/></g>
<g><path style="opacity:1" fill="#261e18" d="M 418.5,454.5 C 418.631,455.239 418.464,455.906 418,456.5C 415.056,454.628 413.889,451.961 414.5,448.5C 414.369,447.624 414.702,446.957 415.5,446.5C 417.984,448.536 418.984,451.202 418.5,454.5 Z"/></g>
<g><path style="opacity:1" fill="#4f4033" d="M 183.5,447.5 C 185.426,451.629 184.426,454.962 180.5,457.5C 179.218,456.042 179.218,454.708 180.5,453.5C 180.369,454.239 180.536,454.906 181,455.5C 183.203,453.331 184.036,450.665 183.5,447.5 Z"/></g>
<g><path style="opacity:1" fill="#e4e4e4" d="M 414.5,448.5 C 413.889,451.961 415.056,454.628 418,456.5C 418.464,455.906 418.631,455.239 418.5,454.5C 419.434,457.656 420.101,460.989 420.5,464.5C 423.022,463.989 425.355,462.989 427.5,461.5C 429.667,462.641 432,463.641 434.5,464.5C 413.289,484.439 388.289,496.939 359.5,502C 357.709,499.586 356.043,497.086 354.5,494.5C 353.766,497.666 352.6,500.666 351,503.5C 349.352,504.717 347.519,505.55 345.5,506C 321.532,509.782 297.532,510.282 273.5,507.5C 267.369,500.869 261.036,494.369 254.5,488C 281.395,492.114 308.395,492.447 335.5,489C 354.805,487.244 371.638,480.078 386,467.5C 388.748,470.916 392.081,473.583 396,475.5C 401.438,474.468 406.438,472.468 411,469.5C 412.823,462.492 413.99,455.492 414.5,448.5 Z"/></g>
</svg>
