<?xml version="1.0" encoding="UTF-8"?>
<!DOCTYPE svg PUBLIC "-//W3C//DTD SVG 1.1//EN" "http://www.w3.org/Graphics/SVG/1.1/DTD/svg11.dtd">
<svg xmlns="http://www.w3.org/2000/svg" version="1.1" width="600px" height="600px" style="shape-rendering:geometricPrecision; text-rendering:geometricPrecision; image-rendering:optimizeQuality; fill-rule:evenodd; clip-rule:evenodd" xmlns:xlink="http://www.w3.org/1999/xlink">
<g><path style="opacity:0.961" fill="#040302" d="M 599.5,171.5 C 599.5,175.833 599.5,180.167 599.5,184.5C 597.063,187.719 593.73,189.385 589.5,189.5C 586.044,189.182 582.711,188.348 579.5,187C 568.554,179.721 557.888,172.054 547.5,164C 545.167,163.333 542.833,163.333 540.5,164C 534.116,169.385 527.45,174.385 520.5,179C 513.726,181.488 506.726,182.821 499.5,183C 485.156,199.02 469.323,213.187 452,225.5C 443.723,265.835 432.89,305.502 419.5,344.5C 422.423,350.012 422.923,355.678 421,361.5C 418.62,364.016 416.12,366.183 413.5,368C 417.541,379.865 419.375,392.032 419,404.5C 417.833,411 414,414.833 407.5,416C 412.116,445.156 403.116,469.156 380.5,488C 376.46,490.427 372.126,492.094 367.5,493C 361.781,503.052 353.781,510.719 343.5,516C 340.191,517.456 336.857,517.789 333.5,517C 323.593,527.6 312.093,535.766 299,541.5C 295.447,541.316 292.281,540.15 289.5,538C 282.989,533.577 276.655,528.911 270.5,524C 268.316,521.984 266.316,519.817 264.5,517.5C 259.303,517.786 254.303,516.62 249.5,514C 241.579,508.081 235.079,500.914 230,492.5C 224.625,493.254 219.792,491.754 215.5,488C 194.247,468.556 185.414,444.389 189,415.5C 183.454,414.954 180.121,411.954 179,406.5C 177.793,393.077 179.626,380.077 184.5,367.5C 178.615,365.616 175.282,361.616 174.5,355.5C 175.714,350.192 177.714,345.192 180.5,340.5C 168.817,306.433 159.317,271.766 152,236.5C 148.053,233.041 145.553,228.708 144.5,223.5C 128.106,211.609 113.106,198.109 99.5,183C 92.3262,182.565 85.3262,181.232 78.5,179C 71.5918,174.762 65.2585,169.762 59.5,164C 56.366,163.21 53.366,163.543 50.5,165C 40.0523,173.446 29.0523,181.113 17.5,188C 10.739,191.315 4.73899,190.148 -0.5,184.5C -0.5,180.5 -0.5,176.5 -0.5,172.5C 32.2145,136.28 69.5478,105.78 111.5,81C 130.368,70.5998 150.534,64.4331 172,62.5C 185.928,63.252 198.428,67.752 209.5,76C 216.032,82.1975 222.199,88.6975 228,95.5C 230.049,90.9448 233.549,88.6115 238.5,88.5C 243.619,89.6904 248.786,90.6904 254,91.5C 284.197,86.2049 314.364,86.2049 344.5,91.5C 349.487,90.6702 354.32,89.3369 359,87.5C 364.884,88.384 368.551,91.7174 370,97.5C 377.542,86.9572 386.709,78.1239 397.5,71C 416.964,60.7234 436.964,59.7234 457.5,68C 481.959,77.2262 504.626,89.5595 525.5,105C 552.228,124.896 576.895,147.063 599.5,171.5 Z"/></g>
<g><path style="opacity:1" fill="#f5f4f4" d="M 283.5,98.5 C 287.702,98.1832 291.702,98.5166 295.5,99.5C 291.91,102.581 290.243,106.581 290.5,111.5C 290.528,119.386 293.195,126.219 298.5,132C 312.01,132.005 322.177,137.838 329,149.5C 336.198,164.021 338.865,179.355 337,195.5C 333.257,214.314 328.924,232.981 324,251.5C 321.672,272.558 323.672,293.225 330,313.5C 339.615,341.729 350.615,369.395 363,396.5C 367.47,407.911 371.137,419.578 374,431.5C 375.355,437.785 375.689,444.118 375,450.5C 373.29,457.682 371.123,464.682 368.5,471.5C 362.802,479.056 357.636,487.056 353,495.5C 348.387,500.633 342.887,504.3 336.5,506.5C 337.329,503.531 337.495,500.531 337,497.5C 335.175,498.103 333.341,498.77 331.5,499.5C 323.781,513.553 312.781,524.219 298.5,531.5C 289.905,525.74 281.738,519.407 274,512.5C 270.691,508.213 268.191,503.547 266.5,498.5C 264.181,497.833 261.847,497.666 259.5,498C 260.444,500.719 260.777,503.552 260.5,506.5C 253.466,503.99 247.632,499.657 243,493.5C 238.061,483.955 233.394,474.289 229,464.5C 229.163,470.473 229.33,476.473 229.5,482.5C 227.692,482.509 226.025,482.009 224.5,481C 211.683,471.217 203.517,458.384 200,442.5C 199.671,425.805 200.005,409.138 201,392.5C 197.388,396.734 193.555,400.734 189.5,404.5C 188.224,397.803 188.391,391.136 190,384.5C 192.267,375.6 194.767,366.766 197.5,358C 197.005,354.983 195.671,352.483 193.5,350.5C 191.731,352.557 189.731,354.39 187.5,356C 186.517,356.591 185.85,356.257 185.5,355C 187.365,350.104 189.365,345.271 191.5,340.5C 177.888,302.718 167.721,264.051 161,224.5C 159.89,226.037 158.39,226.703 156.5,226.5C 156.5,225.5 156.5,224.5 156.5,223.5C 157.552,223.649 158.552,223.483 159.5,223C 165.095,217.644 168.428,211.144 169.5,203.5C 169.712,200.989 169.045,198.822 167.5,197C 164.5,196.667 161.5,196.333 158.5,196C 162,192.5 165.5,189 169,185.5C 173.574,174.994 170.407,168.494 159.5,166C 165.848,165.082 172.181,164.082 178.5,163C 181.343,159.381 181.01,156.048 177.5,153C 174.44,152.152 171.44,151.152 168.5,150C 172.833,149.667 177.167,149.333 181.5,149C 186.218,147.551 187.718,144.385 186,139.5C 185.215,137.714 184.049,136.214 182.5,135C 186.981,135.225 191.481,135.725 196,136.5C 201.257,136.911 203.257,134.578 202,129.5C 196.704,123.267 189.871,119.767 181.5,119C 190.998,117.392 200.498,116.225 210,115.5C 208.827,90.0463 195.994,81.5463 171.5,90C 146.631,96.2672 122.964,105.6 100.5,118C 82.6378,127.874 65.3044,138.54 48.5,150C 47.8971,151.825 47.2304,153.659 46.5,155.5C 36.3606,162.473 26.3606,169.639 16.5,177C 14.5405,177.931 12.5405,178.764 10.5,179.5C 9.38615,178.277 9.21948,176.944 10,175.5C 43.9625,138.95 82.7958,108.784 126.5,85C 140.362,78.0346 155.029,74.2012 170.5,73.5C 179.859,72.9381 188.526,75.1047 196.5,80C 206.816,87.5808 215.816,96.5808 223.5,107C 228.921,107.839 234.254,107.506 239.5,106C 240.245,103.595 239.578,101.428 237.5,99.5C 238,99.1667 238.5,98.8333 239,98.5C 243.535,100.879 248.368,101.879 253.5,101.5C 263.427,99.974 273.427,98.974 283.5,98.5 Z"/></g>
<g><path style="opacity:1" fill="#af5427" d="M 368.5,471.5 C 371.123,464.682 373.29,457.682 375,450.5C 375.689,444.118 375.355,437.785 374,431.5C 371.137,419.578 367.47,407.911 363,396.5C 350.615,369.395 339.615,341.729 330,313.5C 323.672,293.225 321.672,272.558 324,251.5C 328.924,232.981 333.257,214.314 337,195.5C 338.865,179.355 336.198,164.021 329,149.5C 322.177,137.838 312.01,132.005 298.5,132C 293.195,126.219 290.528,119.386 290.5,111.5C 290.243,106.581 291.91,102.581 295.5,99.5C 296.71,99.0679 297.71,98.4013 298.5,97.5C 314.404,97.9574 330.237,99.2908 346,101.5C 350.202,101.283 354.202,100.283 358,98.5C 358.5,98.8333 359,99.1667 359.5,99.5C 357.979,101.286 357.646,103.119 358.5,105C 364.307,107.318 370.307,107.984 376.5,107C 384.597,94.2357 395.264,84.2357 408.5,77C 423.92,72.1522 439.254,72.4855 454.5,78C 477.127,86.4778 498.127,97.8111 517.5,112C 542.479,130.635 565.979,151.135 588,173.5C 589.559,175.217 590.392,177.217 590.5,179.5C 583.806,177.653 577.806,174.486 572.5,170C 566.448,164.947 560.115,160.281 553.5,156C 552.833,154 552.167,152 551.5,150C 517.693,125.761 481.026,106.761 441.5,93C 428.804,88.8279 415.804,87.1612 402.5,88C 399.898,88.8834 397.731,90.3834 396,92.5C 391.232,99.4664 388.899,107.133 389,115.5C 397.088,116.882 405.255,118.048 413.5,119C 408.617,120.072 403.95,121.739 399.5,124C 398.424,125.726 398.257,127.559 399,129.5C 402.384,134.778 407.217,136.944 413.5,136C 411.012,138.627 410.845,141.46 413,144.5C 415.739,148.619 419.573,150.786 424.5,151C 422.354,151.479 421.354,152.812 421.5,155C 422.245,157.992 423.412,160.826 425,163.5C 428.312,164.976 431.812,165.81 435.5,166C 431.274,166.252 429.274,168.419 429.5,172.5C 430.507,178.195 431.674,183.862 433,189.5C 434.458,191.96 436.291,194.127 438.5,196C 437.234,196.309 436.067,196.809 435,197.5C 434.333,205.167 434.333,212.833 435,220.5C 436.145,223.477 438.312,225.144 441.5,225.5C 433.046,265.047 422.212,304.047 409,342.5C 408.942,347.083 410.108,351.417 412.5,355.5C 409.876,356.116 407.709,355.116 406,352.5C 404.361,356.278 402.861,360.111 401.5,364C 404.991,374.457 407.324,385.123 408.5,396C 408.167,398.833 407.833,401.667 407.5,404.5C 403.833,400.5 400.167,396.5 396.5,392.5C 396.167,394.167 395.833,395.833 395.5,397.5C 396.896,407.46 397.896,417.46 398.5,427.5C 399.002,447.853 391.668,464.686 376.5,478C 374.182,479.993 371.516,481.159 368.5,481.5C 368.5,478.167 368.5,474.833 368.5,471.5 Z"/></g>
<g><path style="opacity:1" fill="#7c482d" d="M 403.5,92.5 C 409.555,92.3379 415.555,92.8379 421.5,94C 430.169,96.0007 438.836,98.0007 447.5,100C 481.044,113.237 512.71,129.904 542.5,150C 538.533,150.483 534.866,151.816 531.5,154C 526.457,158.712 521.123,163.045 515.5,167C 509.349,169.013 503.016,170.013 496.5,170C 485.616,178.877 475.283,188.544 465.5,199C 457.09,205.621 448.59,212.121 440,218.5C 439.501,212.843 439.334,207.176 439.5,201.5C 441.527,201.662 443.527,201.495 445.5,201C 446.081,200.107 446.415,199.107 446.5,198C 444.078,194.571 441.244,191.405 438,188.5C 437.535,183.145 436.369,177.978 434.5,173C 435.623,171.956 436.956,171.29 438.5,171C 442.833,170.667 447.167,170.333 451.5,170C 452.876,167.46 452.21,165.46 449.5,164C 442.643,162.032 435.81,160.199 429,158.5C 428.626,157.584 428.126,156.75 427.5,156C 433.415,154.298 439.415,152.964 445.5,152C 446.809,150.249 446.475,148.749 444.5,147.5C 442.922,146.702 441.256,146.202 439.5,146C 433.167,145.667 426.833,145.333 420.5,145C 418.876,143.883 417.876,142.383 417.5,140.5C 418.995,137.642 421.162,135.308 424,133.5C 424.494,131.866 424.66,130.199 424.5,128.5C 419.63,128.84 414.797,129.507 410,130.5C 407.383,130.873 405.55,129.873 404.5,127.5C 412.928,124.557 421.595,122.723 430.5,122C 431.6,119.522 430.767,117.689 428,116.5C 416.615,113.964 405.115,112.13 393.5,111C 395.195,106.915 396.695,102.748 398,98.5C 399.36,95.9774 401.193,93.9774 403.5,92.5 Z"/></g>
<g><path style="opacity:1" fill="#7c482d" d="M 180.5,93.5 C 186.29,93.0962 191.956,93.5962 197.5,95C 201.112,100.223 203.779,105.556 205.5,111C 192.524,111.205 179.857,113.205 167.5,117C 164.674,119.522 165.007,121.522 168.5,123C 178.771,122.702 188.105,125.369 196.5,131C 188.782,130.143 181.116,129.143 173.5,128C 171.675,129.466 171.175,131.299 172,133.5C 175.647,135.979 178.813,138.979 181.5,142.5C 180.624,143.251 179.624,143.751 178.5,144C 170.829,144.612 163.162,145.278 155.5,146C 152.958,146.546 150.958,147.879 149.5,150C 150.022,150.95 150.689,151.784 151.5,152.5C 159.345,153.635 167.011,155.469 174.5,158C 164.979,159.142 155.646,161.142 146.5,164C 143.782,165.415 143.115,167.415 144.5,170C 149.882,170.307 155.215,170.974 160.5,172C 165.115,173.077 166.615,175.91 165,180.5C 164.333,181.833 163.667,183.167 163,184.5C 157.429,188.402 152.929,193.235 149.5,199C 150.167,200 150.833,201 151.5,202C 155.819,202.076 160.152,201.909 164.5,201.5C 163.583,207.106 161.25,212.106 157.5,216.5C 139.815,204.32 123.815,190.153 109.5,174C 107.112,172.139 104.446,170.806 101.5,170C 96.1028,169.773 90.7695,169.106 85.5,168C 79.7999,164.146 74.4666,159.812 69.5,155C 66.1847,152.586 62.5181,150.919 58.5,150C 87.6028,130.28 118.603,113.946 151.5,101C 161.095,97.6856 170.762,95.1856 180.5,93.5 Z"/></g>
<g><path style="opacity:1" fill="#747170" d="M 283.5,98.5 C 288.305,97.5128 293.305,97.1795 298.5,97.5C 297.71,98.4013 296.71,99.0679 295.5,99.5C 291.702,98.5166 287.702,98.1832 283.5,98.5 Z"/></g>
<g><path style="opacity:1" fill="#030304" d="M 222.5,243.5 C 245.99,242.156 256.823,253.156 255,276.5C 249.554,291.812 238.72,298.312 222.5,296C 207.176,290.526 200.676,279.692 203,263.5C 206.351,253.65 212.851,246.983 222.5,243.5 Z"/></g>
<g><path style="opacity:1" fill="#030203" d="M 363.5,243.5 C 383.03,241.586 394.363,250.253 397.5,269.5C 394.911,288.796 383.911,297.629 364.5,296C 348.748,290.894 341.914,280.061 344,263.5C 347.351,253.65 353.851,246.983 363.5,243.5 Z"/></g>
<g><path style="opacity:1" fill="#eaeaea" d="M 235.5,255.5 C 244.049,255.521 246.716,259.354 243.5,267C 234.924,270.424 231.424,267.59 233,258.5C 234.045,257.627 234.878,256.627 235.5,255.5 Z"/></g>
<g><path style="opacity:1" fill="#e9e9e9" d="M 377.5,255.5 C 384.771,255.036 387.604,258.369 386,265.5C 382,269.5 378,269.5 374,265.5C 372.756,261.191 373.923,257.858 377.5,255.5 Z"/></g>
<g><path style="opacity:1" fill="#38302d" d="M 290.5,419.5 C 305.226,418.41 318.892,421.576 331.5,429C 344.631,441.364 348.131,456.198 342,473.5C 334.358,486.403 322.858,493.903 307.5,496C 288.453,498.652 272.286,493.152 259,479.5C 250.007,463.75 250.674,448.416 261,433.5C 269.556,425.97 279.39,421.303 290.5,419.5 Z"/></g>
</svg>
