<?xml version="1.0" encoding="UTF-8"?>
<!DOCTYPE svg PUBLIC "-//W3C//DTD SVG 1.1//EN" "http://www.w3.org/Graphics/SVG/1.1/DTD/svg11.dtd">
<svg xmlns="http://www.w3.org/2000/svg" version="1.1" width="600px" height="600px" style="shape-rendering:geometricPrecision; text-rendering:geometricPrecision; image-rendering:optimizeQuality; fill-rule:evenodd; clip-rule:evenodd" xmlns:xlink="http://www.w3.org/1999/xlink">
<g><path style="opacity:0.945" fill="#030303" d="M 144.5,30.5 C 151.361,33.8322 158.361,36.9989 165.5,40C 186.212,42.1773 206.879,43.8439 227.5,45C 235.65,45.3496 243.317,47.1829 250.5,50.5C 252.623,50.7801 253.956,49.9468 254.5,48C 252.465,44.3942 251.132,40.5609 250.5,36.5C 254.182,36.3347 257.848,36.5014 261.5,37C 270.974,39.9359 280.308,43.2692 289.5,47C 295.833,49 302.167,49 308.5,47C 317.167,44 325.833,41 334.5,38C 339.102,36.8776 343.768,36.3776 348.5,36.5C 347.178,41.1514 345.845,45.8181 344.5,50.5C 353.159,47.8675 362.159,46.0341 371.5,45C 392.218,43.9135 412.885,42.2469 433.5,40C 440.058,38.0544 446.058,35.0544 451.5,31C 452.5,30.3333 453.5,30.3333 454.5,31C 455.576,32.7261 455.743,34.5594 455,36.5C 452.229,42.5413 449.062,48.3746 445.5,54C 451.662,55.292 457.996,55.9586 464.5,56C 466.211,57.1332 466.711,58.6332 466,60.5C 463.056,61.7226 460.556,63.5559 458.5,66C 493.509,87.3214 525.342,112.821 554,142.5C 563.142,152.116 569.142,163.449 572,176.5C 572.667,182.167 572.667,187.833 572,193.5C 560.648,225.56 551.315,258.227 544,291.5C 540.828,306.035 538.495,320.702 537,335.5C 535.146,341.857 530.979,345.524 524.5,346.5C 516.313,345.324 509.48,341.657 504,335.5C 504.422,338.098 504.422,340.764 504,343.5C 503.261,344.574 502.261,345.241 501,345.5C 497.597,343.881 494.43,341.881 491.5,339.5C 491.613,352.567 491.113,365.567 490,378.5C 489.282,379.451 488.449,379.617 487.5,379C 486,377.5 484.5,376 483,374.5C 477.701,388.444 470.367,401.11 461,412.5C 460.667,407.833 460.333,403.167 460,398.5C 456.462,407.242 452.129,415.576 447,423.5C 449.965,433.068 452.965,442.735 456,452.5C 460.218,465.609 459.218,478.276 453,490.5C 449.075,494.41 445.075,494.41 441,490.5C 439.634,488.63 438.467,486.63 437.5,484.5C 435.433,483.866 433.6,482.866 432,481.5C 431.934,489.013 432.434,496.513 433.5,504C 433.345,508.78 432.178,513.28 430,517.5C 419.233,532.935 405.9,545.602 390,555.5C 389.228,555.355 388.561,555.022 388,554.5C 386.511,549.543 385.178,544.543 384,539.5C 382.883,537.876 381.383,536.876 379.5,536.5C 375.521,539.274 371.854,542.441 368.5,546C 354.368,554.228 339.368,560.562 323.5,565C 315.258,566.347 307.258,568.514 299.5,571.5C 291.846,568.086 283.846,565.92 275.5,565C 259.662,560.579 244.662,554.246 230.5,546C 227.509,543.043 224.509,540.043 221.5,537C 218.692,536.08 216.525,536.913 215,539.5C 214.046,544.604 212.713,549.604 211,554.5C 210.439,555.022 209.772,555.355 209,555.5C 191.679,544.846 177.679,530.846 167,513.5C 166.663,510.139 166.163,506.806 165.5,503.5C 166.72,495.867 167.22,488.2 167,480.5C 162.37,483.919 158.537,488.086 155.5,493C 151.857,494.685 148.691,493.852 146,490.5C 142.447,483.951 140.947,476.951 141.5,469.5C 142.303,450.592 147.637,433.092 157.5,417C 150.251,416.458 144.084,413.625 139,408.5C 138.667,409.833 138.333,411.167 138,412.5C 128.633,401.11 121.299,388.444 116,374.5C 114,376.5 112,378.5 110,380.5C 107.974,376.097 107.14,371.43 107.5,366.5C 108.275,357.504 108.441,348.504 108,339.5C 104.816,341.758 101.483,343.758 98,345.5C 96.7387,345.241 95.7387,344.574 95,343.5C 94.8425,341.005 94.6759,338.672 94.5,336.5C 89.0335,341.817 82.5335,345.15 75,346.5C 67.8169,345.652 63.4836,341.652 62,334.5C 55.8455,287.549 44.5122,241.882 28,197.5C 24.7996,183.37 26.7996,170.037 34,157.5C 40.0805,148.748 46.9139,140.582 54.5,133C 80.9942,107.768 109.661,85.4344 140.5,66C 138.444,63.5559 135.944,61.7226 133,60.5C 132.289,58.6332 132.789,57.1332 134.5,56C 141.004,55.9586 147.338,55.292 153.5,54C 149.235,47.6371 145.902,40.8038 143.5,33.5C 143.685,32.4163 144.018,31.4163 144.5,30.5 Z"/></g>
<g><path style="opacity:1" fill="#f2f2f2" d="M 357.5,59.5 C 365.459,62.9545 372.792,67.4545 379.5,73C 405.674,95.5031 422.507,123.67 430,157.5C 435.446,181.449 441.279,205.282 447.5,229C 447.167,229.5 446.833,230 446.5,230.5C 414.187,209.091 378.854,201.591 340.5,208C 333.472,209.922 328.306,214.089 325,220.5C 325.289,231.28 330.789,235.613 341.5,233.5C 349.5,235.333 357.5,237.167 365.5,239C 366.056,239.383 366.389,239.883 366.5,240.5C 348.265,250.345 343.765,264.678 353,283.5C 360.679,293.619 370.846,297.453 383.5,295C 401.585,288.337 408.251,275.503 403.5,256.5C 403.369,255.761 403.536,255.094 404,254.5C 411.255,259.544 418.422,264.711 425.5,270C 433.989,273.828 438.156,270.995 438,261.5C 433.708,252.538 427.874,244.705 420.5,238C 427.415,239.238 434.415,240.404 441.5,241.5C 445.363,242.15 448.196,240.817 450,237.5C 458.51,270.52 473.343,300.187 494.5,326.5C 491.452,328.288 488.118,329.788 484.5,331C 483.299,331.903 482.465,333.069 482,334.5C 480.937,344.46 480.103,354.46 479.5,364.5C 477.192,365.641 475.359,367.308 474,369.5C 471.227,374.713 468.727,380.046 466.5,385.5C 464.716,386.606 462.882,386.606 461,385.5C 458.755,386.137 456.588,386.97 454.5,388C 451.501,392.165 449.167,396.665 447.5,401.5C 442.92,394.403 438.087,387.403 433,380.5C 432.517,379.552 432.351,378.552 432.5,377.5C 436.555,377.824 440.555,377.491 444.5,376.5C 442.731,374.443 440.731,372.61 438.5,371C 431.335,367.279 424.002,363.946 416.5,361C 409.867,353.034 402.7,345.867 395,339.5C 396.066,336.034 397.733,332.701 400,329.5C 400.72,327.888 400.554,326.388 399.5,325C 390.546,325.886 381.546,326.72 372.5,327.5C 367.765,327.531 363.099,327.031 358.5,326C 364.544,320.85 367.711,314.35 368,306.5C 367.196,305.196 366.029,304.529 364.5,304.5C 356.316,308.514 347.816,311.514 339,313.5C 340.61,308.72 341.777,303.72 342.5,298.5C 342.519,295.794 341.852,293.294 340.5,291C 339.5,290.333 338.5,290.333 337.5,291C 330.364,300.798 321.364,308.465 310.5,314C 297.343,316.906 285.677,314.239 275.5,306C 270.628,300.299 265.628,294.799 260.5,289.5C 258.156,291.194 257.156,293.528 257.5,296.5C 258.624,301.677 259.624,306.843 260.5,312C 250.785,310.38 241.118,308.214 231.5,305.5C 231.301,308.941 231.801,312.274 233,315.5C 235.38,318.534 237.546,321.701 239.5,325C 236.436,326.244 233.269,327.077 230,327.5C 219.771,326.394 209.604,325.227 199.5,324C 198.983,329.818 201.15,334.652 206,338.5C 206.667,339.167 206.667,339.833 206,340.5C 197.67,347.659 189.17,354.659 180.5,361.5C 172.335,363.942 164.668,367.442 157.5,372C 155.981,373.351 154.648,374.851 153.5,376.5C 157.272,377.075 160.939,377.408 164.5,377.5C 164.649,378.552 164.483,379.552 164,380.5C 159.035,388.142 153.868,395.475 148.5,402.5C 145.425,399.545 141.925,397.211 138,395.5C 133.682,386.864 129.349,378.198 125,369.5C 123.594,367.129 121.594,365.462 119,364.5C 118.424,358.486 118.59,352.486 119.5,346.5C 119.41,341.545 118.243,336.879 116,332.5C 112.794,329.837 109.294,328.67 105.5,329C 104.748,328.329 104.414,327.496 104.5,326.5C 117.598,309.989 128.432,291.989 137,272.5C 141.271,261.185 145.438,249.851 149.5,238.5C 151.586,240.919 154.253,241.919 157.5,241.5C 165.203,239.869 172.87,238.369 180.5,237C 173.007,243.835 166.841,251.668 162,260.5C 159.943,268.775 163.11,272.275 171.5,271C 179.104,265.951 186.604,260.784 194,255.5C 195.03,255.836 195.53,256.503 195.5,257.5C 191.651,283.816 202.984,296.316 229.5,295C 249.973,286.216 255.473,271.716 246,251.5C 241.31,244.573 234.81,240.906 226.5,240.5C 225.448,240.649 224.448,240.483 223.5,240C 224.833,239.333 226.167,238.667 227.5,238C 233.216,237.718 238.883,237.052 244.5,236C 253.111,232.264 262.111,230.264 271.5,230C 275.323,225.705 275.489,221.205 272,216.5C 267.26,211.379 261.427,208.212 254.5,207C 217.523,202.246 183.523,210.079 152.5,230.5C 158.483,202.891 164.983,175.224 172,147.5C 181.467,114.378 199.967,87.5449 227.5,67C 232.285,63.9406 237.285,61.4406 242.5,59.5C 247.886,60.9946 253.22,60.828 258.5,59C 262.816,56.8744 264.983,53.3744 265,48.5C 275.333,54.0556 286.333,57.3889 298,58.5C 310.659,57.5021 322.659,54.1687 334,48.5C 335.109,56.6072 339.775,60.9405 348,61.5C 351.2,60.9317 354.367,60.2651 357.5,59.5 Z"/></g>
<g><path style="opacity:1" fill="#e6e6e5" d="M 242.5,59.5 C 237.285,61.4406 232.285,63.9406 227.5,67C 199.967,87.5449 181.467,114.378 172,147.5C 164.983,175.224 158.483,202.891 152.5,230.5C 183.523,210.079 217.523,202.246 254.5,207C 261.427,208.212 267.26,211.379 272,216.5C 275.489,221.205 275.323,225.705 271.5,230C 262.111,230.264 253.111,232.264 244.5,236C 238.883,237.052 233.216,237.718 227.5,238C 226.167,238.667 224.833,239.333 223.5,240C 224.448,240.483 225.448,240.649 226.5,240.5C 217.255,243.426 208.255,247.259 199.5,252C 197.531,253.5 196.198,255.333 195.5,257.5C 195.53,256.503 195.03,255.836 194,255.5C 186.604,260.784 179.104,265.951 171.5,271C 163.11,272.275 159.943,268.775 162,260.5C 166.841,251.668 173.007,243.835 180.5,237C 172.87,238.369 165.203,239.869 157.5,241.5C 154.253,241.919 151.586,240.919 149.5,238.5C 145.438,249.851 141.271,261.185 137,272.5C 128.432,291.989 117.598,309.989 104.5,326.5C 99.9412,322.922 95.2745,322.755 90.5,326C 85.9542,331.436 80.2875,334.436 73.5,335C 66.9513,288.64 55.4513,243.473 39,199.5C 35.3188,185.149 37.3188,171.815 45,159.5C 73.6928,126.462 106.859,98.9621 144.5,77C 148.227,74.0455 150.227,70.2121 150.5,65.5C 160.114,65.213 164.447,60.213 163.5,50.5C 186.808,52.5548 210.142,54.3881 233.5,56C 237.122,55.9128 240.122,57.0795 242.5,59.5 Z"/></g>
<g><path style="opacity:1" fill="#e6e6e5" d="M 494.5,326.5 C 473.343,300.187 458.51,270.52 450,237.5C 448.196,240.817 445.363,242.15 441.5,241.5C 434.415,240.404 427.415,239.238 420.5,238C 427.874,244.705 433.708,252.538 438,261.5C 438.156,270.995 433.989,273.828 425.5,270C 418.422,264.711 411.255,259.544 404,254.5C 403.536,255.094 403.369,255.761 403.5,256.5C 399.126,251.795 393.792,248.295 387.5,246C 380.823,242.828 373.823,240.995 366.5,240.5C 366.389,239.883 366.056,239.383 365.5,239C 357.5,237.167 349.5,235.333 341.5,233.5C 330.789,235.613 325.289,231.28 325,220.5C 328.306,214.089 333.472,209.922 340.5,208C 378.854,201.591 414.187,209.091 446.5,230.5C 446.833,230 447.167,229.5 447.5,229C 441.279,205.282 435.446,181.449 430,157.5C 422.507,123.67 405.674,95.5031 379.5,73C 372.792,67.4545 365.459,62.9545 357.5,59.5C 359.075,57.0594 361.408,55.8928 364.5,56C 384.132,54.2123 403.799,52.879 423.5,52C 427.934,51.5819 432.267,50.7485 436.5,49.5C 434.305,59.4244 438.305,65.0911 448.5,66.5C 448.985,70.3045 450.652,73.4712 453.5,76C 490.178,97.9498 523.011,124.783 552,156.5C 561.503,168.347 564.503,181.681 561,196.5C 544.691,241.57 532.858,287.737 525.5,335C 523.833,335.667 522.167,335.667 520.5,335C 515.882,332.05 511.548,328.716 507.5,325C 502.751,322.588 498.418,323.088 494.5,326.5 Z"/></g>
<g><path style="opacity:1" fill="#251917" d="M 226.5,240.5 C 234.81,240.906 241.31,244.573 246,251.5C 255.473,271.716 249.973,286.216 229.5,295C 202.984,296.316 191.651,283.816 195.5,257.5C 196.198,255.333 197.531,253.5 199.5,252C 208.255,247.259 217.255,243.426 226.5,240.5 Z"/></g>
<g><path style="opacity:1" fill="#241916" d="M 366.5,240.5 C 373.823,240.995 380.823,242.828 387.5,246C 393.792,248.295 399.126,251.795 403.5,256.5C 408.251,275.503 401.585,288.337 383.5,295C 370.846,297.453 360.679,293.619 353,283.5C 343.765,264.678 348.265,250.345 366.5,240.5 Z"/></g>
<g><path style="opacity:1" fill="#f3f3f3" d="M 229.5,253.5 C 235.295,252.137 238.961,254.304 240.5,260C 237.548,267.915 233.048,269.081 227,263.5C 225.861,259.579 226.695,256.246 229.5,253.5 Z"/></g>
<g><path style="opacity:1" fill="#efefef" d="M 383.5,253.5 C 390.669,252.513 394.169,255.513 394,262.5C 390.171,268.703 385.838,269.036 381,263.5C 380.024,259.673 380.857,256.34 383.5,253.5 Z"/></g>
<g><path style="opacity:1" fill="#e6e6e5" d="M 447.5,401.5 C 443.107,409.119 439.107,416.953 435.5,425C 439.197,434.423 442.697,443.923 446,453.5C 447.622,461.807 447.788,470.14 446.5,478.5C 442.94,472.803 437.773,470.136 431,470.5C 423.935,471.957 420.768,476.291 421.5,483.5C 422.421,492.157 422.587,500.823 422,509.5C 414.811,520.861 405.978,530.861 395.5,539.5C 391.065,527.91 383.065,524.077 371.5,528C 365.571,535.917 357.904,541.584 348.5,545C 332.586,551.86 316.086,556.694 299,559.5C 275.868,556.012 254.368,548.178 234.5,536C 228.612,525.865 220.612,523.532 210.5,529C 207.295,531.907 204.962,535.407 203.5,539.5C 193.022,530.861 184.189,520.861 177,509.5C 176.43,500.658 176.597,491.824 177.5,483C 178.081,471.909 173.081,467.909 162.5,471C 159.061,473.139 155.894,475.639 153,478.5C 151.093,470.515 151.093,462.515 153,454.5C 154.601,448.363 156.601,442.363 159,436.5C 163.249,428.504 167.082,420.337 170.5,412C 167.344,401.112 160.844,398.612 151,404.5C 149.699,404.361 148.866,403.695 148.5,402.5C 153.868,395.475 159.035,388.142 164,380.5C 164.483,379.552 164.649,378.552 164.5,377.5C 160.939,377.408 157.272,377.075 153.5,376.5C 154.648,374.851 155.981,373.351 157.5,372C 164.668,367.442 172.335,363.942 180.5,361.5C 189.17,354.659 197.67,347.659 206,340.5C 206.667,339.833 206.667,339.167 206,338.5C 201.15,334.652 198.983,329.818 199.5,324C 209.604,325.227 219.771,326.394 230,327.5C 233.269,327.077 236.436,326.244 239.5,325C 237.546,321.701 235.38,318.534 233,315.5C 231.801,312.274 231.301,308.941 231.5,305.5C 241.118,308.214 250.785,310.38 260.5,312C 259.624,306.843 258.624,301.677 257.5,296.5C 257.156,293.528 258.156,291.194 260.5,289.5C 265.628,294.799 270.628,300.299 275.5,306C 285.677,314.239 297.343,316.906 310.5,314C 321.364,308.465 330.364,300.798 337.5,291C 338.5,290.333 339.5,290.333 340.5,291C 341.852,293.294 342.519,295.794 342.5,298.5C 341.777,303.72 340.61,308.72 339,313.5C 347.816,311.514 356.316,308.514 364.5,304.5C 366.029,304.529 367.196,305.196 368,306.5C 367.711,314.35 364.544,320.85 358.5,326C 363.099,327.031 367.765,327.531 372.5,327.5C 381.546,326.72 390.546,325.886 399.5,325C 400.554,326.388 400.72,327.888 400,329.5C 397.733,332.701 396.066,336.034 395,339.5C 402.7,345.867 409.867,353.034 416.5,361C 424.002,363.946 431.335,367.279 438.5,371C 440.731,372.61 442.731,374.443 444.5,376.5C 440.555,377.491 436.555,377.824 432.5,377.5C 432.351,378.552 432.517,379.552 433,380.5C 438.087,387.403 442.92,394.403 447.5,401.5 Z"/></g>
<g><path style="opacity:1" fill="#231815" d="M 295.5,364.5 C 306.51,364.471 317.177,366.304 327.5,370C 337.989,375.822 341.822,384.655 339,396.5C 333.56,413.606 322.06,424.106 304.5,428C 282.522,428.691 267.356,418.858 259,398.5C 254.967,382.072 261.133,371.572 277.5,367C 283.634,366.088 289.634,365.255 295.5,364.5 Z"/></g>
</svg>
