<?xml version="1.0" encoding="UTF-8"?>
<!DOCTYPE svg PUBLIC "-//W3C//DTD SVG 1.1//EN" "http://www.w3.org/Graphics/SVG/1.1/DTD/svg11.dtd">
<svg xmlns="http://www.w3.org/2000/svg" version="1.1" width="600px" height="600px" style="shape-rendering:geometricPrecision; text-rendering:geometricPrecision; image-rendering:optimizeQuality; fill-rule:evenodd; clip-rule:evenodd" xmlns:xlink="http://www.w3.org/1999/xlink">
<g><path style="opacity:0.948" fill="#020101" d="M 232.5,6.5 C 242.299,12.2411 251.632,18.7411 260.5,26C 253.833,33.3333 247.167,40.6667 240.5,48C 243.753,50.8737 247.253,53.3737 251,55.5C 274.626,47.5645 298.793,45.3979 323.5,49C 332.252,51.023 340.919,53.023 349.5,55C 352.557,52.2774 355.89,49.944 359.5,48C 352.135,40.9696 345.135,33.6363 338.5,26C 347.5,19.5 356.5,13 365.5,6.5C 370.236,17.2087 375.07,27.8753 380,38.5C 415.686,25.7317 449.186,29.8983 480.5,51C 502.639,69.4202 516.472,92.9202 522,121.5C 525.786,139.333 528.452,157.333 530,175.5C 532.612,242.145 534.612,308.811 536,375.5C 538.26,451.065 551.094,524.732 574.5,596.5C 566.245,595.377 558.578,592.544 551.5,588C 526.388,573.565 503.555,556.065 483,535.5C 476.35,528.202 470.684,520.202 466,511.5C 463.688,538.97 465.522,566.137 471.5,593C 466.444,593.234 461.777,591.901 457.5,589C 423.684,564.841 400.184,533.007 387,493.5C 383.826,503.53 381.826,513.863 381,524.5C 379.251,543.815 377.751,563.149 376.5,582.5C 355.944,573.117 339.111,559.117 326,540.5C 319.128,554.048 309.961,565.881 298.5,576C 295.834,578.335 292.834,580.169 289.5,581.5C 287.233,568.532 283.066,556.198 277,544.5C 275.959,542.415 274.459,540.748 272.5,539.5C 260.167,558.669 243.667,573.002 223,582.5C 221.43,562.526 219.763,542.526 218,522.5C 217.172,512.518 215.172,502.851 212,493.5C 199.807,529.683 178.974,559.85 149.5,584C 143.225,588.805 136.225,591.971 128.5,593.5C 131.128,578.271 132.961,562.938 134,547.5C 134.865,535.457 134.532,523.457 133,511.5C 128.989,519.527 123.989,526.86 118,533.5C 93.8698,558.302 66.3698,578.469 35.5,594C 31.9855,595.562 28.3189,596.395 24.5,596.5C 47.7922,525.751 60.6256,453.084 63,378.5C 64.5709,311.817 66.5709,245.151 69,178.5C 70.5156,154.406 74.5156,130.74 81,107.5C 98.9235,54.1092 136.09,28.9425 192.5,32C 201.772,33.068 210.772,35.2347 219.5,38.5C 224.228,27.9795 228.562,17.3128 232.5,6.5 Z"/></g>
<g><path style="opacity:1" fill="#be9c6e" d="M 211.5,46.5 C 205.854,51.8117 200.187,57.145 194.5,62.5C 205.373,70.1929 216.54,77.5262 228,84.5C 230.488,75.5554 232.655,66.5554 234.5,57.5C 238.147,58.6672 241.147,60.8338 243.5,64C 245.588,65.0296 247.755,65.8629 250,66.5C 282.977,54.5019 315.977,54.5019 349,66.5C 351.245,65.8629 353.412,65.0296 355.5,64C 358.206,61.3244 361.206,59.1577 364.5,57.5C 366.452,66.5941 368.786,75.5941 371.5,84.5C 382.709,77.4016 393.709,70.0683 404.5,62.5C 398.813,57.145 393.146,51.8117 387.5,46.5C 413.201,38.4023 438.201,40.2356 462.5,52C 486.226,65.7398 501.726,85.9065 509,112.5C 516.076,139.029 520.076,166.029 521,193.5C 522.744,247.155 524.078,300.822 525,354.5C 526.33,431.115 537.163,506.115 557.5,579.5C 532.228,565.099 509.395,547.432 489,526.5C 482.756,519.687 477.756,512.02 474,503.5C 463.269,496.696 456.936,499.696 455,512.5C 454.333,524.5 454.333,536.5 455,548.5C 456.112,557.829 456.778,567.163 457,576.5C 427.284,552.43 406.617,522.097 395,485.5C 386.184,479.215 379.851,481.215 376,491.5C 370.932,515.903 367.932,540.57 367,565.5C 353.539,555.706 341.705,544.206 331.5,531C 325.847,528.788 321.014,529.955 317,534.5C 311.714,545.405 304.714,555.071 296,563.5C 293.186,550.704 287.353,539.537 278.5,530C 274.548,528.207 270.548,528.207 266.5,530C 257.713,544.454 246.213,556.287 232,565.5C 231.487,539.124 228.154,513.124 222,487.5C 216.678,480.568 210.678,479.901 204,485.5C 192.383,522.097 171.716,552.43 142,576.5C 143.432,561.746 144.266,546.913 144.5,532C 144.494,523.135 143.994,514.302 143,505.5C 141.041,501.328 137.708,499.328 133,499.5C 129.575,499.919 126.909,501.586 125,504.5C 117.205,518.223 107.372,530.389 95.5,541C 78.541,555.953 60.2077,568.62 40.5,579C 55.2223,530.173 65.0557,480.34 70,429.5C 74.8223,359.926 77.1556,290.259 77,220.5C 77.1994,185.372 81.1994,150.705 89,116.5C 103.137,66.0067 136.304,41.1733 188.5,42C 196.359,42.6424 204.025,44.1424 211.5,46.5 Z"/></g>
<g><path style="opacity:1" fill="#a73c1c" d="M 234.5,57.5 C 232.655,66.5554 230.488,75.5554 228,84.5C 216.54,77.5262 205.373,70.1929 194.5,62.5C 200.187,57.145 205.854,51.8117 211.5,46.5C 218.115,49.8178 223.948,48.8178 229,43.5C 231.742,36.3536 234.742,29.3536 238,22.5C 240.333,24.0062 242.5,25.6729 244.5,27.5C 239.815,32.3508 235.315,37.3508 231,42.5C 228.866,48.2942 230.032,53.2942 234.5,57.5 Z"/></g>
<g><path style="opacity:1" fill="#a83c1c" d="M 387.5,46.5 C 393.146,51.8117 398.813,57.145 404.5,62.5C 393.709,70.0683 382.709,77.4016 371.5,84.5C 368.786,75.5941 366.452,66.5941 364.5,57.5C 368.478,54.067 369.978,49.7337 369,44.5C 364.729,38.3923 359.896,32.7256 354.5,27.5C 356.524,25.6419 358.691,23.9752 361,22.5C 364.381,29.3017 367.381,36.3017 370,43.5C 374.87,49.1758 380.704,50.1758 387.5,46.5 Z"/></g>
<g><path style="opacity:1" fill="#040301" d="M 219.5,131.5 C 229.557,131.485 239.223,133.318 248.5,137C 259.631,145.247 260.298,154.247 250.5,164C 242.689,164.71 235.022,164.044 227.5,162C 203.757,159.392 180.757,162.392 158.5,171C 149.069,172.9 146.236,169.4 150,160.5C 169.902,142.924 193.069,133.257 219.5,131.5 Z"/></g>
<g><path style="opacity:1" fill="#060402" d="M 367.5,131.5 C 394.828,131 419.494,138.833 441.5,155C 444.04,157.205 446.207,159.705 448,162.5C 449.655,170.508 446.488,173.341 438.5,171C 415.808,162.986 392.474,159.986 368.5,162C 361.271,163.984 353.938,164.65 346.5,164C 338.848,157.453 337.682,149.953 343,141.5C 350.175,135.286 358.341,131.953 367.5,131.5 Z"/></g>
<g><path style="opacity:1" fill="#784c1a" d="M 212.5,141.5 C 220.875,141.316 229.208,141.816 237.5,143C 241.207,143.936 244.374,145.769 247,148.5C 247.743,150.441 247.576,152.274 246.5,154C 234.051,152.883 221.551,152.05 209,151.5C 204.167,151.667 199.333,151.833 194.5,152C 186.822,153.668 179.155,155.001 171.5,156C 184.343,148.444 198.01,143.61 212.5,141.5 Z"/></g>
<g><path style="opacity:1" fill="#794d1a" d="M 364.5,141.5 C 386.29,140.197 406.623,145.031 425.5,156C 416.895,154.682 408.229,153.349 399.5,152C 394.333,151.833 389.167,151.667 384,151.5C 372.754,151.776 361.587,152.61 350.5,154C 348.876,150.794 349.542,148.128 352.5,146C 356.263,143.583 360.263,142.083 364.5,141.5 Z"/></g>
<g><path style="opacity:1" fill="#251916" d="M 212.5,165.5 C 233.511,164.678 243.677,174.678 243,195.5C 238.481,210.683 228.314,217.183 212.5,215C 198.073,209.998 191.906,199.831 194,184.5C 197.017,174.984 203.184,168.651 212.5,165.5 Z"/></g>
<g><path style="opacity:1" fill="#241916" d="M 376.5,165.5 C 397.009,165.839 406.509,176.172 405,196.5C 399.936,210.953 389.77,217.12 374.5,215C 362.014,210.489 355.68,201.489 355.5,188C 357.876,176.015 364.876,168.515 376.5,165.5 Z"/></g>
<g><path style="opacity:1" fill="#ededed" d="M 229.5,178.5 C 237.877,178.274 239.544,181.441 234.5,188C 226.408,188.09 224.741,184.923 229.5,178.5 Z"/></g>
<g><path style="opacity:1" fill="#f3f3f3" d="M 389.5,178.5 C 397.219,177.87 399.219,180.87 395.5,187.5C 387.415,188.86 385.415,185.86 389.5,178.5 Z"/></g>
<g><path style="opacity:1" fill="#030201" d="M 417.5,279.5 C 420.867,284.523 424.2,289.523 427.5,294.5C 443.34,324.866 450.507,357.199 449,391.5C 447.94,404.229 446.44,416.896 444.5,429.5C 442.521,438.772 439.521,447.772 435.5,456.5C 434.518,457.141 433.518,457.807 432.5,458.5C 430.985,456.453 430.151,454.119 430,451.5C 429.764,429.087 428.598,406.753 426.5,384.5C 426.785,382.712 426.452,381.045 425.5,379.5C 424.511,383.107 424.177,386.774 424.5,390.5C 424.5,391.5 424.5,392.5 424.5,393.5C 423.449,398.646 422.782,403.979 422.5,409.5C 421.207,412.679 420.54,416.012 420.5,419.5C 417.717,427.17 414.717,434.837 411.5,442.5C 409.559,445.459 407.559,448.459 405.5,451.5C 405.167,450.5 404.833,449.5 404.5,448.5C 403.334,431.836 402.167,415.17 401,398.5C 400.586,398.043 400.086,397.709 399.5,397.5C 397.515,399.457 396.015,401.79 395,404.5C 390.282,419.989 384.782,435.156 378.5,450C 377.551,450.617 376.718,450.451 376,449.5C 374.302,438.852 372.802,428.186 371.5,417.5C 370.522,417.977 369.689,418.643 369,419.5C 365.644,425.664 362.144,431.664 358.5,437.5C 355.732,440.771 352.732,443.938 349.5,447C 348.552,447.483 347.552,447.649 346.5,447.5C 347.477,440.819 347.477,434.152 346.5,427.5C 331.855,437.07 316.022,444.07 299,448.5C 289.458,446.143 280.291,442.81 271.5,438.5C 267.818,435.992 263.818,433.992 259.5,432.5C 257.342,430.007 254.676,428.34 251.5,427.5C 251.183,431.702 251.517,435.702 252.5,439.5C 252.5,440.5 252.5,441.5 252.5,442.5C 252.785,444.288 252.452,445.955 251.5,447.5C 248.87,446.196 246.537,444.53 244.5,442.5C 239.522,434.556 234.522,426.556 229.5,418.5C 228.311,417.571 226.978,417.238 225.5,417.5C 224.17,426.778 223.337,436.111 223,445.5C 222.607,448.633 221.774,451.633 220.5,454.5C 218.803,453.636 217.637,452.303 217,450.5C 213.815,441.059 210.649,431.725 207.5,422.5C 206.943,417.835 205.61,413.502 203.5,409.5C 203.105,406.314 202.105,403.314 200.5,400.5C 199.675,399.614 198.675,399.281 197.5,399.5C 196.262,416.841 194.928,434.175 193.5,451.5C 184.616,437.386 178.783,422.053 176,405.5C 175.333,396.833 174.667,388.167 174,379.5C 172.883,380.949 172.216,382.616 172,384.5C 171.547,394.507 171.047,404.507 170.5,414.5C 169.762,428.018 169.095,441.685 168.5,455.5C 168.585,456.995 167.919,457.995 166.5,458.5C 162.136,454.447 159.303,449.447 158,443.5C 143.298,393.677 146.965,345.344 169,298.5C 172.776,292.609 176.276,286.609 179.5,280.5C 181.823,277.874 184.157,275.207 186.5,272.5C 186.833,271.833 187.167,271.167 187.5,270.5C 192.833,265.833 197.833,260.833 202.5,255.5C 209.856,250.467 217.19,245.467 224.5,240.5C 227.912,239.958 230.912,238.625 233.5,236.5C 276.753,219.378 320.087,219.211 363.5,236C 385.546,245.553 403.546,260.053 417.5,279.5 Z"/></g>
<g><path style="opacity:1" fill="#80511b" d="M 281.5,233.5 C 371.953,230.117 424.453,273.117 439,362.5C 439.894,374.882 439.561,387.215 438,399.5C 437.926,391.375 436.926,383.375 435,375.5C 431.349,368.061 425.849,366.227 418.5,370C 416.932,372.304 415.765,374.804 415,377.5C 414.667,385.5 414.333,393.5 414,401.5C 413.654,404.576 412.988,407.576 412,410.5C 412.54,402.338 410.707,394.838 406.5,388C 401.299,384.617 396.466,385.117 392,389.5C 387.552,396.869 383.886,404.536 381,412.5C 375.256,406.39 369.256,406.056 363,411.5C 361.056,415.11 358.723,418.443 356,421.5C 352.155,418.08 347.655,416.913 342.5,418C 329.018,427.239 314.351,434.073 298.5,438.5C 283.124,433.811 268.79,426.978 255.5,418C 250.563,416.631 246.396,417.797 243,421.5C 240.333,417.5 237.667,413.5 235,409.5C 227.31,404.614 220.976,405.947 216,413.5C 213.653,405.114 210.153,397.28 205.5,390C 199.128,386.559 193.628,387.726 189,393.5C 187.761,399.056 187.094,404.722 187,410.5C 185.19,399.916 184.19,389.249 184,378.5C 182.057,368.635 176.557,365.802 167.5,370C 165.437,372.511 163.937,375.344 163,378.5C 161.941,388.805 161.274,399.139 161,409.5C 154.138,364.135 163.472,322.468 189,284.5C 212.698,254.567 243.532,237.567 281.5,233.5 Z"/></g>
<g><path style="opacity:1" fill="#66533a" d="M 233.5,236.5 C 230.912,238.625 227.912,239.958 224.5,240.5C 226.898,238.026 229.898,236.692 233.5,236.5 Z"/></g>
<g><path style="opacity:1" fill="#241916" d="M 286.5,245.5 C 296.217,245.176 305.884,245.676 315.5,247C 327.743,249.659 332.91,257.159 331,269.5C 325.159,287.002 312.992,295.502 294.5,295C 279.184,290.85 269.85,281.017 266.5,265.5C 268.174,253.826 274.841,247.159 286.5,245.5 Z"/></g>
<g><path style="opacity:1" fill="#756043" d="M 202.5,255.5 C 197.833,260.833 192.833,265.833 187.5,270.5C 190.173,265.313 193.84,260.813 198.5,257C 199.745,256.209 201.078,255.709 202.5,255.5 Z"/></g>
<g><path style="opacity:1" fill="#725d41" d="M 186.5,272.5 C 184.157,275.207 181.823,277.874 179.5,280.5C 180.431,276.571 182.764,273.905 186.5,272.5 Z"/></g>
<g><path style="opacity:1" fill="#8d7451" d="M 417.5,279.5 C 419.17,279.751 420.67,280.418 422,281.5C 423.94,285.829 425.773,290.162 427.5,294.5C 424.2,289.523 420.867,284.523 417.5,279.5 Z"/></g>
<g><path style="opacity:1" fill="#281b16" d="M 288.5,310.5 C 295.001,311.767 301.501,311.767 308,310.5C 311.677,311.653 312.177,313.486 309.5,316C 302.41,318.122 295.41,317.955 288.5,315.5C 287.334,313.833 287.334,312.166 288.5,310.5 Z"/></g>
<g><path style="opacity:1" fill="#7b6446" d="M 426.5,384.5 C 425.833,386.5 425.167,388.5 424.5,390.5C 424.177,386.774 424.511,383.107 425.5,379.5C 426.452,381.045 426.785,382.712 426.5,384.5 Z"/></g>
<g><path style="opacity:1" fill="#7e6748" d="M 424.5,393.5 C 425.113,399.271 424.446,404.604 422.5,409.5C 422.782,403.979 423.449,398.646 424.5,393.5 Z"/></g>
<g><path style="opacity:1" fill="#7f6849" d="M 203.5,409.5 C 205.61,413.502 206.943,417.835 207.5,422.5C 204.797,418.699 203.464,414.366 203.5,409.5 Z"/></g>
<g><path style="opacity:1" fill="#7b6546" d="M 259.5,432.5 C 256.805,432.067 254.638,430.734 253,428.5C 252.501,432.152 252.335,435.818 252.5,439.5C 251.517,435.702 251.183,431.702 251.5,427.5C 254.676,428.34 257.342,430.007 259.5,432.5 Z"/></g>
<g><path style="opacity:1" fill="#8d7451" d="M 420.5,419.5 C 419.832,425.803 417.998,431.803 415,437.5C 414.506,439.134 414.34,440.801 414.5,442.5C 413.5,442.5 412.5,442.5 411.5,442.5C 414.717,434.837 417.717,427.17 420.5,419.5 Z"/></g>
<g><path style="opacity:1" fill="#715c40" d="M 259.5,432.5 C 263.818,433.992 267.818,435.992 271.5,438.5C 268.092,437.633 264.758,436.467 261.5,435C 260.619,434.292 259.953,433.458 259.5,432.5 Z"/></g>
<g><path style="opacity:1" fill="#89714f" d="M 358.5,437.5 C 358.657,438.873 358.49,440.207 358,441.5C 355.357,442.976 353.19,444.976 351.5,447.5C 349.701,448.788 348.035,448.788 346.5,447.5C 347.552,447.649 348.552,447.483 349.5,447C 352.732,443.938 355.732,440.771 358.5,437.5 Z"/></g>
<g><path style="opacity:1" fill="#907653" d="M 444.5,429.5 C 444.82,432.898 444.487,436.232 443.5,439.5C 441.82,445.204 440.153,450.87 438.5,456.5C 437.5,456.5 436.5,456.5 435.5,456.5C 439.521,447.772 442.521,438.772 444.5,429.5 Z"/></g>
<g><path style="opacity:1" fill="#786245" d="M 244.5,442.5 C 246.537,444.53 248.87,446.196 251.5,447.5C 252.452,445.955 252.785,444.288 252.5,442.5C 253.461,444.265 253.795,446.265 253.5,448.5C 248.931,448.723 245.931,446.723 244.5,442.5 Z"/></g>
<g><path style="opacity:1" fill="#836b4b" d="M 170.5,414.5 C 171.149,428.541 170.482,442.208 168.5,455.5C 169.095,441.685 169.762,428.018 170.5,414.5 Z"/></g>
</svg>
