<?xml version="1.0" encoding="UTF-8"?>
<!DOCTYPE svg PUBLIC "-//W3C//DTD SVG 1.1//EN" "http://www.w3.org/Graphics/SVG/1.1/DTD/svg11.dtd">
<svg xmlns="http://www.w3.org/2000/svg" version="1.1" width="600px" height="600px" style="shape-rendering:geometricPrecision; text-rendering:geometricPrecision; image-rendering:optimizeQuality; fill-rule:evenodd; clip-rule:evenodd" xmlns:xlink="http://www.w3.org/1999/xlink">
<g><path style="opacity:0.95" fill="#030303" d="M 239.5,30.5 C 248.367,30.8113 257.034,32.3113 265.5,35C 275.562,38.7853 285.395,42.952 295,47.5C 305.865,42.4296 317.032,37.9296 328.5,34C 335.684,31.6907 343.017,30.6907 350.5,31C 351.022,31.5613 351.355,32.228 351.5,33C 349.696,36.7749 348.029,40.6083 346.5,44.5C 347.025,45.1924 347.692,45.6924 348.5,46C 353.53,46.414 358.53,46.0807 363.5,45C 374.48,42.8922 385.48,40.8922 396.5,39C 401.5,38.3333 406.5,38.3333 411.5,39C 412.061,40.5655 411.394,41.8989 409.5,43C 404.328,46.0852 399.328,49.4186 394.5,53C 394.833,53.3333 395.167,53.6667 395.5,54C 408.97,56.0636 422.47,57.897 436,59.5C 443.151,54.2695 450.985,52.7695 459.5,55C 494.802,66.5447 529.802,78.878 564.5,92C 575.078,96.2749 584.244,102.442 592,110.5C 597.633,120.944 597.966,131.611 593,142.5C 590.667,147.167 588.333,151.833 586,156.5C 574.061,171.104 562.895,186.271 552.5,202C 555.207,207.536 556.374,213.37 556,219.5C 553.711,222.062 550.877,223.729 547.5,224.5C 552.09,269.155 549.59,313.489 540,357.5C 540.185,361.163 538.518,363.163 535,363.5C 531.707,362.747 528.54,361.913 525.5,361C 530.078,364.838 533.411,369.505 535.5,375C 527.578,403.474 515.078,429.64 498,453.5C 496.693,454.772 495.193,455.772 493.5,456.5C 497.39,481.162 492.89,504.162 480,525.5C 477.603,528.4 474.77,530.733 471.5,532.5C 470.914,532.291 470.414,531.957 470,531.5C 467.978,516.882 466.311,502.215 465,487.5C 463.981,488.687 462.814,489.687 461.5,490.5C 460.576,502.493 459.743,514.493 459,526.5C 458.732,531.65 457.732,536.65 456,541.5C 450.282,545.107 444.115,547.773 437.5,549.5C 436.353,549.182 435.519,548.516 435,547.5C 433.396,535.115 431.73,522.782 430,510.5C 427,512.167 424,513.833 421,515.5C 416.606,525.289 411.939,534.955 407,544.5C 405.014,548.165 402.347,551.165 399,553.5C 397.118,552.907 396.118,551.573 396,549.5C 394.666,542.824 393.333,536.157 392,529.5C 383.007,539.245 372.507,546.911 360.5,552.5C 359.692,552.192 359.025,551.692 358.5,551C 359.724,548.61 360.224,546.11 360,543.5C 355.833,549 351,553.833 345.5,558C 322.791,566.955 299.457,569.455 275.5,565.5C 265.237,564.023 255.571,560.857 246.5,556C 242.55,551.928 238.717,547.762 235,543.5C 235.316,546.454 235.816,549.454 236.5,552.5C 222.582,547.277 210.748,538.944 201,527.5C 199.673,535.961 197.84,544.295 195.5,552.5C 194.635,553.583 193.635,553.749 192.5,553C 191,551.5 189.5,550 188,548.5C 182.394,537.622 177.061,526.622 172,515.5C 169.502,513.583 166.835,511.916 164,510.5C 162.23,523.378 160.73,536.378 159.5,549.5C 152.157,548.108 145.323,545.442 139,541.5C 137.358,536.292 136.358,530.959 136,525.5C 135.134,514.179 134.467,502.845 134,491.5C 130.314,486.862 128.647,487.528 129,493.5C 128.333,502.167 127.667,510.833 127,519.5C 128.122,533.793 124.122,535.793 115,525.5C 102.11,504.165 97.6102,481.165 101.5,456.5C 100.009,455.756 98.5095,455.09 97,454.5C 80.6999,431.565 68.3665,406.565 60,379.5C 59.3333,376.833 59.3333,374.167 60,371.5C 62.1808,368.656 64.3475,365.822 66.5,363C 66.1667,362.5 65.8333,362 65.5,361.5C 62.4562,363.538 59.2896,363.872 56,362.5C 43.9458,316.807 41.4458,270.641 48.5,224C 43.0605,225.907 40.3939,223.907 40.5,218C 41.3893,211.109 43.056,204.443 45.5,198C 35.3657,183.566 24.8657,169.399 14,155.5C 7.9692,146.772 4.80254,137.105 4.5,126.5C 4.1524,117.362 7.48574,109.862 14.5,104C 25.8688,96.8684 37.8688,90.8684 50.5,86C 83.1664,74.5555 116,63.7222 149,53.5C 154.053,54.1836 158.72,55.8503 163,58.5C 173.548,57.3649 184.048,55.8649 194.5,54C 195.458,52.8525 195.125,51.8525 193.5,51C 189.334,48.0825 185.001,45.4159 180.5,43C 178.963,41.8904 178.297,40.3904 178.5,38.5C 183.511,38.3341 188.511,38.5007 193.5,39C 208.269,41.8782 223.102,44.3782 238,46.5C 240.145,46.604 241.979,45.9373 243.5,44.5C 241.971,40.6083 240.304,36.7749 238.5,33C 238.743,32.0979 239.077,31.2646 239.5,30.5 Z"/></g>
<g><path style="opacity:1" fill="#f5f5f5" d="M 427.5,68.5 C 426.361,71.4248 425.861,74.4248 426,77.5C 449.434,88.9313 467.767,105.931 481,128.5C 486.861,138.888 492.194,149.554 497,160.5C 504.763,184.028 513.096,207.362 522,230.5C 524.228,235.766 528.062,237.933 533.5,237C 534.566,234.988 535.9,234.488 537.5,235.5C 539.443,254.106 539.943,272.773 539,291.5C 537.477,311.637 534.977,331.637 531.5,351.5C 519.322,349.51 514.488,354.51 517,366.5C 520.276,369.103 522.776,372.27 524.5,376C 517.535,400.126 506.868,422.293 492.5,442.5C 491.414,442.38 490.747,441.713 490.5,440.5C 484.748,414.409 475.914,389.409 464,365.5C 430.04,310.575 380.54,280.742 315.5,276C 274.207,272.659 235.207,280.326 198.5,299C 159.5,322.016 132,354.85 116,397.5C 110.843,412.826 106.343,428.159 102.5,443.5C 88.0822,422.631 77.0822,399.964 69.5,375.5C 71.856,372.978 74.0227,370.312 76,367.5C 77.8744,363.48 77.8744,359.48 76,355.5C 73.1161,351.483 69.2828,350.15 64.5,351.5C 63.2096,349.343 62.3763,347.01 62,344.5C 56.026,313.763 53.6926,282.763 55,251.5C 55.8382,242.439 57.0048,233.439 58.5,224.5C 59.1174,224.389 59.6174,224.056 60,223.5C 61.7918,228.225 63.9585,232.725 66.5,237C 70.1799,238.027 73.3466,237.194 76,234.5C 78.8606,230.112 81.1939,225.446 83,220.5C 91.053,190.67 102.053,162.003 116,134.5C 129.743,109.756 149.077,90.7562 174,77.5C 174.434,74.0317 173.934,70.6984 172.5,67.5C 181.642,66.8652 190.642,65.3652 199.5,63C 201.286,62.2155 202.786,61.0488 204,59.5C 204.526,56.7284 205.359,54.0618 206.5,51.5C 218.898,55.2887 231.565,56.7887 244.5,56C 250.66,53.6633 253.994,49.1633 254.5,42.5C 265.743,45.6212 276.41,50.1212 286.5,56C 296.667,58.0993 306.001,56.0993 314.5,50C 321.608,46.7975 328.941,44.2975 336.5,42.5C 336.121,49.2827 339.121,53.7827 345.5,56C 349.833,56.6667 354.167,56.6667 358.5,56C 367.234,54.8156 375.9,53.3156 384.5,51.5C 384.368,56.5408 386.368,60.3741 390.5,63C 402.634,66.1333 414.967,67.9667 427.5,68.5 Z"/></g>
<g><path style="opacity:1" fill="#ece7dc" d="M 172.5,67.5 C 173.934,70.6984 174.434,74.0317 174,77.5C 149.077,90.7562 129.743,109.756 116,134.5C 102.053,162.003 91.053,190.67 83,220.5C 81.1939,225.446 78.8606,230.112 76,234.5C 73.3466,237.194 70.1799,238.027 66.5,237C 63.9585,232.725 61.7918,228.225 60,223.5C 59.6174,224.056 59.1174,224.389 58.5,224.5C 59.3913,218.588 57.058,214.921 51.5,213.5C 52.6778,208.305 54.0111,203.139 55.5,198C 53.1871,190.875 49.6871,184.375 45,178.5C 33.6969,166.566 24.3636,153.233 17,138.5C 10.7957,124.87 14.2957,114.704 27.5,108C 32.8333,105.333 38.1667,102.667 43.5,100C 76.6074,87.7417 109.941,76.075 143.5,65C 146.5,64.3333 149.5,64.3333 152.5,65C 158.845,68.4271 165.511,69.2605 172.5,67.5 Z"/></g>
<g><path style="opacity:1" fill="#ece7dc" d="M 537.5,235.5 C 535.9,234.488 534.566,234.988 533.5,237C 528.062,237.933 524.228,235.766 522,230.5C 513.096,207.362 504.763,184.028 497,160.5C 492.194,149.554 486.861,138.888 481,128.5C 467.767,105.931 449.434,88.9313 426,77.5C 425.861,74.4248 426.361,71.4248 427.5,68.5C 434.719,70.4208 441.385,69.2541 447.5,65C 450.5,64.3333 453.5,64.3333 456.5,65C 485.822,74.9964 515.156,84.9964 544.5,95C 558.519,99.7707 571.352,106.604 583,115.5C 586.19,123.433 586.19,131.433 583,139.5C 576.279,153.218 567.612,165.551 557,176.5C 553,182.5 549,188.5 545,194.5C 543.767,196.866 542.934,199.366 542.5,202C 543.431,206.221 544.431,210.388 545.5,214.5C 541.828,214.658 538.995,216.325 537,219.5C 536.391,224.861 536.558,230.195 537.5,235.5 Z"/></g>
<g><path style="opacity:1" fill="#ede8dd" d="M 223.5,156.5 C 236.376,155.743 248.709,157.91 260.5,163C 270.78,171.479 272.113,181.146 264.5,192C 261.626,193.899 258.459,194.733 255,194.5C 221.019,187.051 187.852,189.551 155.5,202C 146.843,204.339 143.343,201.173 145,192.5C 146,190.833 147,189.167 148,187.5C 170.119,169.63 195.285,159.297 223.5,156.5 Z"/></g>
<g><path style="opacity:1" fill="#ede8dd" d="M 358.5,156.5 C 390.656,155.924 419.656,165.09 445.5,184C 450.827,187.489 453.327,192.323 453,198.5C 452.06,201.442 450.06,202.775 447,202.5C 437.938,200.813 429.105,198.313 420.5,195C 394.057,189.197 367.557,189.031 341,194.5C 335.024,194.197 331.024,191.197 329,185.5C 326.581,172.911 331.414,164.411 343.5,160C 348.545,158.425 353.545,157.259 358.5,156.5 Z"/></g>
<g><path style="opacity:1" fill="#38302c" d="M 210.5,203.5 C 229.631,202.646 242.131,211.313 248,229.5C 248.667,233.167 248.667,236.833 248,240.5C 231.521,247.068 216.854,256.401 204,268.5C 184.893,259.613 178.226,244.946 184,224.5C 189.481,213.177 198.315,206.177 210.5,203.5 Z"/></g>
<g><path style="opacity:1" fill="#38302c" d="M 377.5,203.5 C 406.931,203.092 420.098,217.426 417,246.5C 413.794,257.206 406.961,264.54 396.5,268.5C 383.371,256.516 368.538,247.182 352,240.5C 351.092,221.641 359.592,209.308 377.5,203.5 Z"/></g>
<g><path style="opacity:1" fill="#f6f5f5" d="M 218.5,218.5 C 227.658,216.835 231.825,220.501 231,229.5C 225.667,236.167 220.333,236.167 215,229.5C 213.882,225.077 215.049,221.41 218.5,218.5 Z"/></g>
<g><path style="opacity:1" fill="#f9f9f9" d="M 388.5,218.5 C 397.158,217.327 400.992,220.994 400,229.5C 397.459,234.069 393.625,235.569 388.5,234C 383.208,228.835 383.208,223.668 388.5,218.5 Z"/></g>
<g><path style="opacity:1" fill="#ece7dc" d="M 492.5,442.5 C 491.972,443.721 491.305,444.887 490.5,446C 486.547,446.953 484.381,449.453 484,453.5C 485.088,467.563 484.421,481.563 482,495.5C 480.973,499.608 479.64,503.608 478,507.5C 477.538,498.665 476.205,489.999 474,481.5C 468.859,476.92 463.359,476.42 457.5,480C 454.09,482.394 451.923,485.561 451,489.5C 449.972,502.496 448.972,515.496 448,528.5C 448.316,532.137 446.982,534.804 444,536.5C 443.258,526.072 441.924,515.739 440,505.5C 438.058,502.022 435.058,500.022 431,499.5C 424.814,501.093 419.148,503.76 414,507.5C 410.078,514.342 406.412,521.342 403,528.5C 401.263,520.71 396.429,517.543 388.5,519C 384.5,521.667 381.167,525 378.5,529C 375.42,531.29 372.253,533.457 369,535.5C 365.044,531.719 360.544,530.886 355.5,533C 350.833,538 346.167,543 341.5,548C 336.049,550.595 330.382,552.595 324.5,554C 315.468,555.306 306.468,556.806 297.5,558.5C 284.626,556.975 271.959,554.475 259.5,551C 257.5,550 255.5,549 253.5,548C 249.2,542.699 244.534,537.699 239.5,533C 234.3,530.374 229.8,531.207 226,535.5C 219.239,531.371 213.406,526.205 208.5,520C 198.497,514.692 192.33,517.525 190,528.5C 186.682,521.864 183.349,515.198 180,508.5C 173.747,501.768 166.247,499.268 157.5,501C 155.19,502.637 153.69,504.804 153,507.5C 151.886,516.813 151.053,526.146 150.5,535.5C 149.5,535.5 148.5,535.5 147.5,535.5C 146.243,519.134 144.743,502.801 143,486.5C 138.322,479.072 131.822,476.572 123.5,479C 120.819,481.194 119.319,484.027 119,487.5C 118.333,494.167 117.667,500.833 117,507.5C 110.955,489.28 108.955,470.613 111,451.5C 108.697,448.105 105.863,445.438 102.5,443.5C 106.343,428.159 110.843,412.826 116,397.5C 132,354.85 159.5,322.016 198.5,299C 235.207,280.326 274.207,272.659 315.5,276C 380.54,280.742 430.04,310.575 464,365.5C 475.914,389.409 484.748,414.409 490.5,440.5C 490.747,441.713 491.414,442.38 492.5,442.5 Z"/></g>
<g><path style="opacity:1" fill="#241916" d="M 288.5,303.5 C 302.386,303.061 316.052,304.561 329.5,308C 345.567,313.409 352.734,324.576 351,341.5C 345.544,362.958 332.377,377.458 311.5,385C 285.382,390.194 264.882,381.694 250,359.5C 242.346,346.399 241.68,333.066 248,319.5C 252.365,314.065 257.865,310.232 264.5,308C 272.505,305.885 280.505,304.385 288.5,303.5 Z"/></g>
<g><path style="opacity:1" fill="#251a17" d="M 279.5,412.5 C 290.175,413.723 300.841,413.723 311.5,412.5C 317.316,413.439 318.649,416.272 315.5,421C 303.49,424.332 291.49,424.332 279.5,421C 276.899,418.17 276.899,415.337 279.5,412.5 Z"/></g>
</svg>
