<?xml version="1.0" encoding="UTF-8"?>
<!DOCTYPE svg PUBLIC "-//W3C//DTD SVG 1.1//EN" "http://www.w3.org/Graphics/SVG/1.1/DTD/svg11.dtd">
<svg xmlns="http://www.w3.org/2000/svg" version="1.1" width="600px" height="600px" style="shape-rendering:geometricPrecision; text-rendering:geometricPrecision; image-rendering:optimizeQuality; fill-rule:evenodd; clip-rule:evenodd" xmlns:xlink="http://www.w3.org/1999/xlink">
<g><path style="opacity:0.964" fill="#030303" d="M 254.5,69.5 C 260.631,69.3593 266.631,70.1926 272.5,72C 281.539,75.5239 290.539,79.0239 299.5,82.5C 308.461,79.0239 317.461,75.5239 326.5,72C 332.369,70.1926 338.369,69.3593 344.5,69.5C 343.204,73.7603 342.204,78.0937 341.5,82.5C 355.283,81.1775 368.949,79.0109 382.5,76C 385.833,75.3333 389.167,75.3333 392.5,76C 393.727,77.5874 393.394,78.9207 391.5,80C 386.935,82.1086 382.935,84.942 379.5,88.5C 395.09,91.2417 410.757,93.7417 426.5,96C 433.273,97.1464 439.606,99.4798 445.5,103C 448.722,104.99 449.222,107.49 447,110.5C 438.182,116.263 438.348,121.763 447.5,127C 458.66,132.746 469.66,138.746 480.5,145C 487.068,149.733 492.401,155.566 496.5,162.5C 495.176,163.935 493.51,164.935 491.5,165.5C 494.533,171.7 498.533,177.2 503.5,182C 512.297,189.128 520.797,196.628 529,204.5C 531.457,211.893 534.124,219.226 537,226.5C 545.826,238.151 554.16,250.151 562,262.5C 563.567,270.613 565.567,278.613 568,286.5C 574.443,296.384 580.11,306.717 585,317.5C 586.779,323.353 586.613,329.186 584.5,335C 586.979,348.105 590.479,360.939 595,373.5C 595.667,377.167 595.667,380.833 595,384.5C 593.107,387.618 591.774,390.951 591,394.5C 589.891,403.796 589.224,413.13 589,422.5C 588.674,427.146 587.34,431.479 585,435.5C 580.08,438.416 575.747,442.082 572,446.5C 566.942,456.12 560.775,464.953 553.5,473C 538.017,476.705 522.683,481.038 507.5,486C 497.714,489.159 487.714,490.492 477.5,490C 467.119,485.904 456.452,482.738 445.5,480.5C 443.563,481.26 441.73,482.26 440,483.5C 438.98,482.109 438.147,480.609 437.5,479C 435.238,478.358 433.071,477.525 431,476.5C 430.094,481.716 428.594,486.716 426.5,491.5C 421.509,494.333 416.175,495.999 410.5,496.5C 410.081,490.394 409.081,484.394 407.5,478.5C 402.289,481.352 396.956,484.019 391.5,486.5C 389.208,490.921 386.541,495.088 383.5,499C 382.056,499.781 380.723,499.614 379.5,498.5C 378.949,495.944 377.949,493.611 376.5,491.5C 370.05,493.946 363.383,495.446 356.5,496C 354.336,496.914 352.336,498.081 350.5,499.5C 348.902,498.515 347.235,498.349 345.5,499C 340.756,502.705 335.423,505.372 329.5,507C 319.719,509.102 309.886,510.936 300,512.5C 290.044,511.316 280.21,509.483 270.5,507C 263.452,504.725 256.952,501.558 251,497.5C 250.692,498.308 250.192,498.975 249.5,499.5C 239.716,495.886 229.716,492.886 219.5,490.5C 219.579,493.271 219.079,495.937 218,498.5C 216.951,499.517 215.784,499.684 214.5,499C 210.671,494.344 207.337,489.344 204.5,484C 200.167,481.833 195.833,479.667 191.5,477.5C 190.141,483.081 189.308,488.748 189,494.5C 188.481,495.516 187.647,496.182 186.5,496.5C 181.291,495.376 176.458,493.376 172,490.5C 170.77,485.847 169.603,481.18 168.5,476.5C 166.271,477.577 163.937,478.244 161.5,478.5C 161.617,480.484 160.95,482.15 159.5,483.5C 157.774,481.97 155.774,480.97 153.5,480.5C 142.548,482.738 131.881,485.904 121.5,490C 114.047,490.768 106.714,490.101 99.5,488C 82.3778,482.514 65.0445,477.848 47.5,474C 44.7047,472.207 42.2047,470.04 40,467.5C 34.9162,458.997 29.5829,450.664 24,442.5C 21.272,440.108 18.272,438.108 15,436.5C 12.8543,433.874 11.521,430.874 11,427.5C 9.89052,418.204 9.22385,408.87 9,399.5C 7.30169,392.612 5.46836,385.778 3.5,379C 6.58746,365.735 10.0875,352.569 14,339.5C 14.6128,334.567 14.1128,329.733 12.5,325C 13.1608,322.536 13.6608,320.036 14,317.5C 19.5651,306.267 25.5651,295.267 32,284.5C 33.8398,278.283 35.1732,271.95 36,265.5C 43.0954,252.303 51.4287,239.969 61,228.5C 64.8676,221.56 67.5343,214.227 69,206.5C 72.1311,202.367 75.6311,198.534 79.5,195C 87.2954,188.873 94.7954,182.373 102,175.5C 104.609,172.617 106.442,169.283 107.5,165.5C 105.955,164.548 104.288,164.215 102.5,164.5C 102.372,162.345 102.872,160.345 104,158.5C 107.167,154 111,150.167 115.5,147C 129.251,138.707 143.084,130.541 157,122.5C 158.301,120.635 158.635,118.635 158,116.5C 155.104,113.809 152.604,110.809 150.5,107.5C 151.606,104.559 153.606,102.392 156.5,101C 161.64,98.7314 166.973,97.0647 172.5,96C 187.938,93.7509 203.271,91.2509 218.5,88.5C 215.286,85.1238 211.619,82.2905 207.5,80C 205.963,78.8904 205.297,77.3904 205.5,75.5C 211.21,75.471 216.877,75.971 222.5,77C 233.704,79.8431 245.038,81.5098 256.5,82C 257.022,81.4387 257.355,80.772 257.5,80C 256.303,77.1063 254.97,74.273 253.5,71.5C 253.863,70.8165 254.196,70.1499 254.5,69.5 Z"/></g>
<g><path style="opacity:1" fill="#f4f4f4" d="M 458.5,417.5 C 457.034,416.653 456.2,415.32 456,413.5C 450.693,375.722 434.86,343.222 408.5,316C 377.508,288.65 341.174,275.483 299.5,276.5C 228.454,276.439 179.621,309.106 153,374.5C 148.815,387.935 144.982,401.268 141.5,414.5C 131.573,398.918 124.24,382.085 119.5,364C 125.102,358.221 126.269,351.721 123,344.5C 120.217,343.072 117.383,341.738 114.5,340.5C 106.581,305.046 105.248,269.38 110.5,233.5C 109.24,229.597 107.573,225.93 105.5,222.5C 110.989,204.184 118.156,186.517 127,169.5C 128.257,164.175 127.09,159.508 123.5,155.5C 125.944,153.105 128.61,150.938 131.5,149C 143.483,143.795 154.65,137.295 165,129.5C 166.993,125.688 168.493,121.688 169.5,117.5C 169.026,114.236 167.693,111.402 165.5,109C 167.957,107.438 170.624,106.438 173.5,106C 189.906,104.051 206.239,101.717 222.5,99C 226.367,97.1398 228.7,94.1398 229.5,90C 236.692,90.4366 243.859,91.27 251,92.5C 260.341,94.2286 266.174,90.5619 268.5,81.5C 276.485,84.3272 284.151,87.8272 291.5,92C 294.343,92.4461 297.176,92.9461 300,93.5C 309.518,89.9951 319.018,86.3285 328.5,82.5C 329.167,82.6667 329.833,82.8333 330.5,83C 331.778,87.2135 334.444,90.2135 338.5,92C 348.147,92.8901 357.647,92.0568 367,89.5C 367.833,89.8333 368.667,90.1667 369.5,90.5C 371.037,95.5361 374.37,98.7027 379.5,100C 396.982,101.803 414.316,104.469 431.5,108C 432.167,108.333 432.833,108.667 433.5,109C 427.392,119.707 429.725,128.374 440.5,135C 453.156,140.991 465.156,147.991 476.5,156C 471.466,159.231 469.632,163.731 471,169.5C 476.317,180.803 481.65,192.136 487,203.5C 490.12,211.318 492.62,219.318 494.5,227.5C 492.23,235.75 492.064,244.084 494,252.5C 495.386,282.767 493.219,312.767 487.5,342.5C 477.955,343.97 474.788,349.303 478,358.5C 479.892,360.054 481.392,361.888 482.5,364C 476.895,383.012 468.895,400.846 458.5,417.5 Z"/></g>
<g><path style="opacity:1" fill="#dadada" d="M 218.5,171.5 C 226.84,171.334 235.173,171.5 243.5,172C 250.885,173.101 256.718,176.601 261,182.5C 264.268,190.283 262.435,196.45 255.5,201C 243.675,200.122 231.842,198.955 220,197.5C 211.832,198.306 203.665,199.139 195.5,200C 185.99,202.504 176.49,205.004 167,207.5C 161.91,207.151 160.243,204.485 162,199.5C 165.23,194.637 169.396,190.804 174.5,188C 188.208,179.602 202.874,174.102 218.5,171.5 Z"/></g>
<g><path style="opacity:1" fill="#dadada" d="M 355.5,171.5 C 382.999,169.457 407.999,176.29 430.5,192C 432.667,194.167 434.833,196.333 437,198.5C 439.253,207.073 436.086,209.907 427.5,207C 408.743,200.248 389.41,197.248 369.5,198C 363.795,198.855 358.129,199.855 352.5,201C 340.258,201.737 335.425,195.903 338,183.5C 342.117,176.868 347.95,172.868 355.5,171.5 Z"/></g>
<g><path style="opacity:1" fill="#878787" d="M 488.5,181.5 C 499.411,191.238 510.245,201.238 521,211.5C 522.474,219.254 525.141,226.588 529,233.5C 535,241.5 541,249.5 547,257.5C 549.588,261.674 551.921,266.007 554,270.5C 554.225,277.067 555.558,283.4 558,289.5C 563.667,299.5 569.333,309.5 575,319.5C 575.06,326.503 575.06,333.503 575,340.5C 578.096,353.121 581.596,365.621 585.5,378C 583.25,383.676 581.417,389.509 580,395.5C 579.681,405.857 579.015,416.191 578,426.5C 566.727,435.345 558.06,446.345 552,459.5C 550.127,461.709 547.96,463.542 545.5,465C 529.235,468.31 513.235,472.643 497.5,478C 490.89,479.441 484.224,479.774 477.5,479C 468.725,476.464 460.058,473.631 451.5,470.5C 456.534,458.333 459.534,445.666 460.5,432.5C 476.249,411.79 486.915,388.623 492.5,363C 492.573,359.397 491.24,356.397 488.5,354C 489.672,353.647 490.838,353.813 492,354.5C 493.892,354.223 495.225,353.223 496,351.5C 504.238,314.168 506.405,276.502 502.5,238.5C 505.182,229.45 504.682,220.45 501,211.5C 497.097,201.364 492.93,191.364 488.5,181.5 Z"/></g>
<g><path style="opacity:1" fill="#878787" d="M 107.5,184.5 C 108.043,184.56 108.376,184.893 108.5,185.5C 102.512,197.297 98.0124,209.63 95,222.5C 94.3333,226.5 94.3333,230.5 95,234.5C 96.3561,235.38 97.8561,235.714 99.5,235.5C 95.2242,273.429 97.0575,311.096 105,348.5C 105.543,353.998 108.376,355.832 113.5,354C 107.753,359.422 106.919,365.588 111,372.5C 117.396,393.623 126.73,413.29 139,431.5C 139.346,445.064 142.179,458.064 147.5,470.5C 138.753,473.022 130.087,475.855 121.5,479C 116.167,479.667 110.833,479.667 105.5,479C 87.5304,473.786 69.5304,468.786 51.5,464C 44.2969,454.428 37.4636,444.595 31,434.5C 27.9612,432.155 24.9612,429.822 22,427.5C 20.816,416.527 19.816,405.527 19,394.5C 18.1657,390.321 16.8324,386.321 15,382.5C 14.3333,378.833 14.3333,375.167 15,371.5C 18.9335,361.763 21.9335,351.763 24,341.5C 24.1653,334.492 24.1653,327.492 24,320.5C 30.2396,309.692 36.2396,298.692 42,287.5C 44.4416,281.4 45.7749,275.067 46,268.5C 53.8852,255.284 62.5519,242.618 72,230.5C 74.6504,223.873 76.9838,217.206 79,210.5C 88.3962,201.599 97.8962,192.932 107.5,184.5 Z"/></g>
<g><path style="opacity:1" fill="#251a17" d="M 205.5,207.5 C 224.637,206.643 235.637,215.643 238.5,234.5C 235.82,255.007 224.153,264.174 203.5,262C 187.89,256.295 181.39,245.128 184,228.5C 187.127,217.204 194.294,210.204 205.5,207.5 Z"/></g>
<g><path style="opacity:1" fill="#251a17" d="M 383.5,207.5 C 404.705,207.209 415.539,217.542 416,238.5C 411.865,256.836 400.365,264.669 381.5,262C 365.89,256.295 359.39,245.128 362,228.5C 365.127,217.204 372.294,210.204 383.5,207.5 Z"/></g>
<g><path style="opacity:1" fill="#f1f1f1" d="M 222.5,221.5 C 228.83,220.666 231.663,223.333 231,229.5C 227.333,233.5 223.667,233.5 220,229.5C 219.018,226.225 219.851,223.559 222.5,221.5 Z"/></g>
<g><path style="opacity:1" fill="#f1f1f1" d="M 398.5,221.5 C 404.83,220.666 407.663,223.333 407,229.5C 403.333,233.5 399.667,233.5 396,229.5C 395.018,226.225 395.851,223.559 398.5,221.5 Z"/></g>
<g><path style="opacity:1" fill="#d9d9d9" d="M 458.5,417.5 C 455.468,421.364 452.635,425.364 450,429.5C 449.626,442.754 446.793,455.42 441.5,467.5C 440.042,468.782 438.708,468.782 437.5,467.5C 437.38,456.473 434.713,456.139 429.5,466.5C 423.558,467.612 420.058,471.278 419,477.5C 418.319,471.486 414.986,468.153 409,467.5C 401.337,470.247 393.837,473.414 386.5,477C 384.833,478 383.5,479.333 382.5,481C 367.848,482.629 353.515,485.629 339.5,490C 331.484,495.835 322.484,499.168 312.5,500C 297.879,502.038 283.546,500.705 269.5,496C 266.638,495.07 264.305,493.403 262.5,491C 260.655,489.872 258.655,489.372 256.5,489.5C 256.035,484.489 253.201,481.823 248,481.5C 244.738,482.801 241.404,483.801 238,484.5C 232.066,482.683 226.066,481.016 220,479.5C 219,479.833 218,480.167 217,480.5C 210.6,475.712 203.766,471.546 196.5,468C 188.252,464.741 182.752,467.241 180,475.5C 178.787,469.784 175.287,466.784 169.5,466.5C 164.63,453.211 162.297,453.544 162.5,467.5C 160.883,468.038 159.216,468.371 157.5,468.5C 152.477,455.727 149.643,442.394 149,428.5C 146.757,423.679 144.257,419.012 141.5,414.5C 144.982,401.268 148.815,387.935 153,374.5C 179.621,309.106 228.454,276.439 299.5,276.5C 341.174,275.483 377.508,288.65 408.5,316C 434.86,343.222 450.693,375.722 456,413.5C 456.2,415.32 457.034,416.653 458.5,417.5 Z"/></g>
<g><path style="opacity:1" fill="#040404" d="M 285.5,295.5 C 302.556,293.251 318.556,296.085 333.5,304C 344.627,315.715 346.46,328.882 339,343.5C 325.873,363.664 307.706,370.831 284.5,365C 259.452,353.752 251.286,335.252 260,309.5C 267.064,302.055 275.564,297.388 285.5,295.5 Z"/></g>
<g><path style="opacity:1" fill="#221815" d="M 294.5,304.5 C 303.668,304.483 312.668,305.65 321.5,308C 333.898,314.442 337.065,324.609 331,338.5C 317.751,359.185 300.251,363.352 278.5,351C 267.438,342.725 263.271,331.891 266,318.5C 269.163,312.656 273.996,308.823 280.5,307C 285.315,306.197 289.981,305.363 294.5,304.5 Z"/></g>
<g><path style="opacity:1" fill="#251a17" d="M 288.5,374.5 C 295.843,375.663 303.176,375.83 310.5,375C 311.833,376.667 311.833,378.333 310.5,380C 303.158,381.87 295.824,381.87 288.5,380C 285.982,378.19 285.982,376.357 288.5,374.5 Z"/></g>
<g><path style="opacity:1" fill="#8a8a8a" d="M 169.5,466.5 C 167.097,466.448 164.764,466.781 162.5,467.5C 162.297,453.544 164.63,453.211 169.5,466.5 Z"/></g>
<g><path style="opacity:1" fill="#8e8e8e" d="M 437.5,467.5 C 434.873,466.908 432.206,466.575 429.5,466.5C 434.713,456.139 437.38,456.473 437.5,467.5 Z"/></g>
</svg>
