<?xml version="1.0" encoding="UTF-8"?>
<!DOCTYPE svg PUBLIC "-//W3C//DTD SVG 1.1//EN" "http://www.w3.org/Graphics/SVG/1.1/DTD/svg11.dtd">
<svg xmlns="http://www.w3.org/2000/svg" version="1.1" width="600px" height="600px" style="shape-rendering:geometricPrecision; text-rendering:geometricPrecision; image-rendering:optimizeQuality; fill-rule:evenodd; clip-rule:evenodd" xmlns:xlink="http://www.w3.org/1999/xlink">
<g><path style="opacity:0.951" fill="#030303" d="M 278.5,10.5 C 315.875,7.87988 352.209,12.7132 387.5,25C 403.628,32.2259 418.628,41.2259 432.5,52C 439.646,52.6954 446.48,54.5288 453,57.5C 470.032,54.5248 486.865,50.8582 503.5,46.5C 503.498,50.5115 502.332,54.1781 500,57.5C 496.344,61.4785 493.178,65.8119 490.5,70.5C 496.614,72.5519 502.78,74.5519 509,76.5C 509.638,77.6086 510.138,78.7753 510.5,80C 507.719,81.8282 504.886,83.6615 502,85.5C 501.685,86.9078 502.018,88.2411 503,89.5C 518.086,103.251 531.753,118.251 544,134.5C 558.655,153.806 572.322,173.806 585,194.5C 597.352,216.195 598.686,238.528 589,261.5C 565.07,305.695 546.404,352.029 533,400.5C 527.059,406.634 520.559,407.134 513.5,402C 508.585,397.756 504.419,392.923 501,387.5C 498.692,396.635 497.025,405.968 496,415.5C 489.277,449.485 472.11,476.652 444.5,497C 442.888,497.72 441.388,497.554 440,496.5C 439.967,492.647 440.467,488.814 441.5,485C 441.167,484.167 440.833,483.333 440.5,482.5C 437.478,484.688 434.978,487.355 433,490.5C 424.78,504.051 415.78,517.051 406,529.5C 401.454,533.714 396.621,537.547 391.5,541C 389.26,541.977 386.927,542.477 384.5,542.5C 384.756,538.138 384.923,533.805 385,529.5C 379.277,535.288 374.277,541.621 370,548.5C 364.802,554.033 359.302,559.2 353.5,564C 335.942,573.075 318.108,581.575 300,589.5C 281.927,581.582 264.093,573.082 246.5,564C 241.032,559.533 235.865,554.7 231,549.5C 226.147,542.468 220.814,535.802 215,529.5C 215.077,533.805 215.244,538.138 215.5,542.5C 211.895,542.201 208.561,541.035 205.5,539C 199.365,533.866 193.531,528.366 188,522.5C 180.085,511.004 172.418,499.338 165,487.5C 163.5,486 162,484.5 160.5,483C 159.4,482.568 158.733,483.068 158.5,484.5C 159.726,488.448 160.226,492.448 160,496.5C 158.612,497.554 157.112,497.72 155.5,497C 138.384,484.881 125.217,469.381 116,450.5C 115.311,451.357 114.478,452.023 113.5,452.5C 113.29,449.614 113.123,446.614 113,443.5C 109.536,435.773 106.869,427.773 105,419.5C 103.248,408.479 101.414,397.479 99.5,386.5C 94.2902,394.209 87.6236,400.375 79.5,405C 73.123,406.227 68.2897,404.061 65,398.5C 50.9409,348.05 31.6075,299.716 7,253.5C 1.9303,237.277 2.59696,221.277 9,205.5C 24.7673,176.952 42.7673,149.952 63,124.5C 73.6574,111.843 84.9908,99.8431 97,88.5C 97.7805,87.0563 97.6139,85.723 96.5,84.5C 93.8114,83.4435 91.3114,82.1101 89,80.5C 88.9088,77.5724 90.4088,75.7391 93.5,75C 97.8333,74 102.167,73 106.5,72C 107.428,71.6121 108.095,70.9454 108.5,70C 105.015,65.1774 101.515,60.344 98,55.5C 96.177,52.7583 95.677,49.9249 96.5,47C 112.95,51.0239 129.617,54.5239 146.5,57.5C 152.984,55.0454 159.651,53.2121 166.5,52C 199.308,26.1017 236.642,12.2684 278.5,10.5 Z"/></g>
<g><path style="opacity:1" fill="#f2ece3" d="M 459.5,66.5 C 459.938,66.4346 460.272,66.6012 460.5,67C 457.794,69.3706 455.461,72.0372 453.5,75C 456.791,79.7478 459.958,84.5812 463,89.5C 476.917,97.8746 490.75,106.375 504.5,115C 509.294,117.793 512.628,121.793 514.5,127C 514.265,127.873 513.931,128.707 513.5,129.5C 509.346,130.669 505.179,130.669 501,129.5C 498.374,129.556 496.54,130.723 495.5,133C 507.049,154.644 516.049,177.311 522.5,201C 522.488,204.385 521.321,207.218 519,209.5C 514.92,205.542 510.087,204.042 504.5,205C 502.513,206.319 501.346,208.152 501,210.5C 500.427,216.539 500.761,222.539 502,228.5C 506.546,245.85 510.379,263.35 513.5,281C 513.974,284.292 512.974,286.959 510.5,289C 506.683,289.492 502.683,289.992 498.5,290.5C 498.334,300.839 498.5,311.172 499,321.5C 501.659,325.821 503.492,330.488 504.5,335.5C 503.167,339.833 501.833,344.167 500.5,348.5C 501.246,352.132 501.579,355.798 501.5,359.5C 500.5,359.5 499.5,359.5 498.5,359.5C 499.167,365.5 499.833,371.5 500.5,377.5C 496.467,378.016 493.3,380.016 491,383.5C 489.32,390.758 488.154,398.091 487.5,405.5C 485.967,403.645 484.3,401.812 482.5,400C 481.207,399.51 479.873,399.343 478.5,399.5C 478.018,404.122 476.684,408.455 474.5,412.5C 476.873,422.091 477.54,431.758 476.5,441.5C 470.978,455.229 462.978,467.229 452.5,477.5C 451.115,476.426 449.949,475.093 449,473.5C 444.688,464.378 440.521,455.211 436.5,446C 434.406,445.555 432.906,446.388 432,448.5C 430.77,455.091 428.77,461.424 426,467.5C 423.79,470.29 420.956,471.123 417.5,470C 405.858,458.691 394.525,447.024 383.5,435C 382.552,434.517 381.552,434.351 380.5,434.5C 381.463,433.637 381.463,432.97 380.5,432.5C 370.869,436.327 360.869,437.994 350.5,437.5C 333.655,435.975 316.822,434.308 300,432.5C 290.451,433.079 280.951,434.079 271.5,435.5C 263.299,435.517 255.299,436.183 247.5,437.5C 237.301,437.968 227.635,435.968 218.5,431.5C 217.702,431.957 217.369,432.624 217.5,433.5C 203.266,445.896 191.433,460.229 182,476.5C 180.281,479.288 178.115,481.621 175.5,483.5C 173.177,480.874 170.843,478.207 168.5,475.5C 167.003,464.219 165.836,452.885 165,441.5C 160.43,452.971 155.596,464.304 150.5,475.5C 150.539,476.756 150.039,477.756 149,478.5C 133.324,463.151 122.824,444.817 117.5,423.5C 119.503,415.638 120.336,407.638 120,399.5C 119.667,399.167 119.333,398.833 119,398.5C 116.932,400.396 115.099,402.396 113.5,404.5C 112.14,396.15 110.64,387.817 109,379.5C 107.458,376.108 104.958,374.108 101.5,373.5C 102.762,368.848 102.762,364.181 101.5,359.5C 100.5,359.5 99.5,359.5 98.5,359.5C 98.668,355.99 99.0013,352.49 99.5,349C 98.2023,344.402 97.2023,339.735 96.5,335C 96.357,330.781 97.5237,326.948 100,323.5C 100.5,312.505 100.667,301.505 100.5,290.5C 97.979,290.56 95.6457,289.894 93.5,288.5C 87.8065,290.974 85.4731,289.141 86.5,283C 91.0396,261.934 95.2062,240.767 99,219.5C 99.6667,215.167 99.6667,210.833 99,206.5C 97.8652,204.197 96.0318,202.864 93.5,202.5C 89.1841,204.992 85.0174,207.659 81,210.5C 77.7237,208.958 76.2237,206.291 76.5,202.5C 81.4509,181.138 89.6176,161.138 101,142.5C 105.894,130.061 102.228,126.394 90,131.5C 87.2975,131.297 85.7975,129.797 85.5,127C 87.7191,122.111 91.0524,118.111 95.5,115C 109.084,106.625 122.584,98.125 136,89.5C 139.129,84.0739 142.629,78.9072 146.5,74C 143.882,71.8943 141.882,69.3943 140.5,66.5C 144.413,67.5958 148.413,67.7625 152.5,67C 158.6,64.412 164.933,62.412 171.5,61C 208.959,31.7884 251.626,18.2884 299.5,20.5C 347.247,18.6968 389.914,32.1968 427.5,61C 434.774,62.1197 441.774,64.1197 448.5,67C 452.188,67.4501 455.854,67.2834 459.5,66.5 Z"/></g>
<g><path style="opacity:1" fill="#e8ddc4" d="M 140.5,66.5 C 141.882,69.3943 143.882,71.8943 146.5,74C 142.629,78.9072 139.129,84.0739 136,89.5C 122.584,98.125 109.084,106.625 95.5,115C 91.0524,118.111 87.7191,122.111 85.5,127C 85.7975,129.797 87.2975,131.297 90,131.5C 102.228,126.394 105.894,130.061 101,142.5C 89.6176,161.138 81.4509,181.138 76.5,202.5C 76.2237,206.291 77.7237,208.958 81,210.5C 85.0174,207.659 89.1841,204.992 93.5,202.5C 96.0318,202.864 97.8652,204.197 99,206.5C 99.6667,210.833 99.6667,215.167 99,219.5C 95.2062,240.767 91.0396,261.934 86.5,283C 85.4731,289.141 87.8065,290.974 93.5,288.5C 95.6457,289.894 97.979,290.56 100.5,290.5C 100.667,301.505 100.5,312.505 100,323.5C 97.5237,326.948 96.357,330.781 96.5,335C 97.2023,339.735 98.2023,344.402 99.5,349C 99.0013,352.49 98.668,355.99 98.5,359.5C 99.5,359.5 100.5,359.5 101.5,359.5C 102.762,364.181 102.762,368.848 101.5,373.5C 99.0108,373.298 96.6775,373.798 94.5,375C 89.7562,383.079 83.5896,389.912 76,395.5C 61.9057,346.895 42.9057,300.228 19,255.5C 11.6317,235.714 13.2984,216.714 24,198.5C 41.1159,171.384 59.7826,145.384 80,120.5C 87.3333,111.833 95.3333,103.833 104,96.5C 107.404,92.3035 108.737,87.6368 108,82.5C 118.529,79.3664 121.363,72.8664 116.5,63C 124.571,63.3999 132.571,64.5666 140.5,66.5 Z"/></g>
<g><path style="opacity:1" fill="#e8ddc4" d="M 500.5,377.5 C 499.833,371.5 499.167,365.5 498.5,359.5C 499.5,359.5 500.5,359.5 501.5,359.5C 501.579,355.798 501.246,352.132 500.5,348.5C 501.833,344.167 503.167,339.833 504.5,335.5C 503.492,330.488 501.659,325.821 499,321.5C 498.5,311.172 498.334,300.839 498.5,290.5C 502.683,289.992 506.683,289.492 510.5,289C 512.974,286.959 513.974,284.292 513.5,281C 510.379,263.35 506.546,245.85 502,228.5C 500.761,222.539 500.427,216.539 501,210.5C 501.346,208.152 502.513,206.319 504.5,205C 510.087,204.042 514.92,205.542 519,209.5C 521.321,207.218 522.488,204.385 522.5,201C 516.049,177.311 507.049,154.644 495.5,133C 496.54,130.723 498.374,129.556 501,129.5C 505.179,130.669 509.346,130.669 513.5,129.5C 513.931,128.707 514.265,127.873 514.5,127C 512.628,121.793 509.294,117.793 504.5,115C 490.75,106.375 476.917,97.8746 463,89.5C 459.958,84.5812 456.791,79.7478 453.5,75C 455.461,72.0372 457.794,69.3706 460.5,67C 460.272,66.6012 459.938,66.4346 459.5,66.5C 466.91,64.2663 474.576,63.0997 482.5,63C 478.423,72.2698 481.09,78.7698 490.5,82.5C 490.969,88.0729 492.803,93.0729 496,97.5C 504.667,104.833 512.667,112.833 520,121.5C 539.214,144.714 556.881,169.047 573,194.5C 578.682,203.858 582.682,213.858 585,224.5C 586.165,234.51 584.832,244.177 581,253.5C 556.955,298.983 537.622,346.316 523,395.5C 517.122,391.29 512.289,386.123 508.5,380C 505.978,378.659 503.311,377.826 500.5,377.5 Z"/></g>
<g><path style="opacity:1" fill="#020202" d="M 211.5,196.5 C 227.489,198.317 239.322,206.317 247,220.5C 249.229,224.261 250.229,228.261 250,232.5C 241.726,236.382 233.226,239.882 224.5,243C 214.598,245.412 204.932,244.745 195.5,241C 188.06,236.558 180.894,231.725 174,226.5C 173.333,224.833 173.333,223.167 174,221.5C 183.186,208.004 195.686,199.67 211.5,196.5 Z"/></g>
<g><path style="opacity:1" fill="#020202" d="M 384.5,196.5 C 402.962,198.895 416.962,208.061 426.5,224C 417.648,233.939 406.648,240.605 393.5,244C 388.833,244.667 384.167,244.667 379.5,244C 369.737,240.952 360.071,237.619 350.5,234C 349.39,231.263 349.223,228.429 350,225.5C 356.879,210.105 368.379,200.438 384.5,196.5 Z"/></g>
<g><path style="opacity:1" fill="#f1f1f1" d="M 214.5,207.5 C 223.33,206.162 226.83,209.829 225,218.5C 218.28,224.401 213.446,223.067 210.5,214.5C 211.071,211.687 212.404,209.354 214.5,207.5 Z"/></g>
<g><path style="opacity:1" fill="#f1f1f1" d="M 390.5,207.5 C 399.33,206.162 402.83,209.829 401,218.5C 394.28,224.401 389.446,223.067 386.5,214.5C 387.071,211.687 388.404,209.354 390.5,207.5 Z"/></g>
<g><path style="opacity:1" fill="#010000" d="M 295.5,322.5 C 311.995,321.803 327.662,324.97 342.5,332C 358.109,344.822 360.609,359.989 350,377.5C 325.593,406.983 297.093,411.817 264.5,392C 247.935,381.04 241.769,365.874 246,346.5C 250.464,336.658 257.964,330.158 268.5,327C 277.527,324.785 286.527,323.285 295.5,322.5 Z"/></g>
<g><path style="opacity:1" fill="#e1d6bf" d="M 117.5,423.5 C 116.883,423.389 116.383,423.056 116,422.5C 114.451,416.591 113.618,410.591 113.5,404.5C 115.099,402.396 116.932,400.396 119,398.5C 119.333,398.833 119.667,399.167 120,399.5C 120.336,407.638 119.503,415.638 117.5,423.5 Z"/></g>
<g><path style="opacity:1" fill="#e4d9c1" d="M 487.5,405.5 C 485.813,418.219 482.146,430.219 476.5,441.5C 477.54,431.758 476.873,422.091 474.5,412.5C 476.684,408.455 478.018,404.122 478.5,399.5C 479.873,399.343 481.207,399.51 482.5,400C 484.3,401.812 485.967,403.645 487.5,405.5 Z"/></g>
<g><path style="opacity:1" fill="#030302" d="M 247.5,437.5 C 248.343,448.085 249.676,458.751 251.5,469.5C 237.041,460.376 225.708,448.376 217.5,433.5C 217.369,432.624 217.702,431.957 218.5,431.5C 227.635,435.968 237.301,437.968 247.5,437.5 Z"/></g>
<g><path style="opacity:1" fill="#f1b5b4" d="M 350.5,437.5 C 350.5,437.833 350.5,438.167 350.5,438.5C 333.637,437.163 316.804,435.496 300,433.5C 291.442,433.984 282.942,434.984 274.5,436.5C 273.274,436.48 272.274,436.147 271.5,435.5C 280.951,434.079 290.451,433.079 300,432.5C 316.822,434.308 333.655,435.975 350.5,437.5 Z"/></g>
<g><path style="opacity:1" fill="#f19d9f" d="M 350.5,438.5 C 349.83,448.537 348.83,458.537 347.5,468.5C 347.5,468.833 347.5,469.167 347.5,469.5C 346.25,469.577 345.417,470.244 345,471.5C 342.148,487.375 334.981,500.875 323.5,512C 314.07,517.974 303.737,520.808 292.5,520.5C 276.6,516.949 265.433,507.616 259,492.5C 256.329,484.79 253.829,477.124 251.5,469.5C 249.676,458.751 248.343,448.085 247.5,437.5C 255.299,436.183 263.299,435.517 271.5,435.5C 272.274,436.147 273.274,436.48 274.5,436.5C 282.942,434.984 291.442,433.984 300,433.5C 316.804,435.496 333.637,437.163 350.5,438.5 Z"/></g>
<g><path style="opacity:1" fill="#080706" d="M 380.5,434.5 C 374.748,444.783 367.415,453.95 358.5,462C 355.108,464.694 351.441,466.86 347.5,468.5C 348.83,458.537 349.83,448.537 350.5,438.5C 350.5,438.167 350.5,437.833 350.5,437.5C 360.869,437.994 370.869,436.327 380.5,432.5C 381.463,432.97 381.463,433.637 380.5,434.5 Z"/></g>
<g><path style="opacity:1" fill="#e7dcc4" d="M 217.5,433.5 C 225.708,448.376 237.041,460.376 251.5,469.5C 253.829,477.124 256.329,484.79 259,492.5C 265.433,507.616 276.6,516.949 292.5,520.5C 316.171,522.392 332.337,512.059 341,489.5C 343.175,482.787 345.342,476.12 347.5,469.5C 347.5,469.167 347.5,468.833 347.5,468.5C 351.441,466.86 355.108,464.694 358.5,462C 367.415,453.95 374.748,444.783 380.5,434.5C 381.552,434.351 382.552,434.517 383.5,435C 394.525,447.024 405.858,458.691 417.5,470C 420.956,471.123 423.79,470.29 426,467.5C 428.77,461.424 430.77,455.091 432,448.5C 432.906,446.388 434.406,445.555 436.5,446C 440.521,455.211 444.688,464.378 449,473.5C 449.949,475.093 451.115,476.426 452.5,477.5C 452.217,478.289 451.717,478.956 451,479.5C 447.091,473.143 441.591,471.31 434.5,474C 430.631,477.534 427.131,481.367 424,485.5C 417.583,496.003 410.916,506.337 404,516.5C 400.985,519.683 397.818,522.683 394.5,525.5C 390.691,520.13 385.691,518.63 379.5,521C 371.582,528.914 364.415,537.414 358,546.5C 350.281,553.948 341.448,559.781 331.5,564C 320.811,568.096 310.311,572.596 300,577.5C 290.355,572.929 280.522,568.762 270.5,565C 257.71,559.877 246.877,552.044 238,541.5C 233.259,534.088 227.759,527.255 221.5,521C 215.024,518.744 209.357,519.744 204.5,524C 192.974,511.763 183.308,498.263 175.5,483.5C 178.115,481.621 180.281,479.288 182,476.5C 191.433,460.229 203.266,445.896 217.5,433.5 Z"/></g>
<g><path style="opacity:1" fill="#e6dbc3" d="M 168.5,475.5 C 162.403,471.644 156.403,471.644 150.5,475.5C 155.596,464.304 160.43,452.971 165,441.5C 165.836,452.885 167.003,464.219 168.5,475.5 Z"/></g>
<g><path style="opacity:1" fill="#eeb0ab" d="M 347.5,469.5 C 345.342,476.12 343.175,482.787 341,489.5C 332.337,512.059 316.171,522.392 292.5,520.5C 303.737,520.808 314.07,517.974 323.5,512C 334.981,500.875 342.148,487.375 345,471.5C 345.417,470.244 346.25,469.577 347.5,469.5 Z"/></g>
</svg>
