<?xml version="1.0" encoding="UTF-8"?>
<!DOCTYPE svg PUBLIC "-//W3C//DTD SVG 1.1//EN" "http://www.w3.org/Graphics/SVG/1.1/DTD/svg11.dtd">
<svg xmlns="http://www.w3.org/2000/svg" version="1.1" width="600px" height="600px" style="shape-rendering:geometricPrecision; text-rendering:geometricPrecision; image-rendering:optimizeQuality; fill-rule:evenodd; clip-rule:evenodd" xmlns:xlink="http://www.w3.org/1999/xlink">
<g><path style="opacity:0.955" fill="#000000" d="M 599.5,135.5 C 599.5,160.167 599.5,184.833 599.5,209.5C 596.353,222.464 592.853,235.464 589,248.5C 581.531,268.908 574.864,289.575 569,310.5C 564.566,335.104 560.566,359.77 557,384.5C 550.961,394.386 542.794,396.552 532.5,391C 529.628,388.463 527.128,385.63 525,382.5C 520.946,432.273 500.612,473.939 464,507.5C 463.626,516.922 459.626,524.256 452,529.5C 445.245,553.382 430.912,559.716 409,548.5C 375.654,569.615 339.321,581.949 300,585.5C 279.067,584.559 258.9,580.059 239.5,572C 222.737,565.368 206.57,557.535 191,548.5C 169.852,559.664 155.852,553.664 149,530.5C 140.959,524.088 136.293,515.755 135,505.5C 99.257,472.344 79.257,431.344 75,382.5C 68.758,393.581 59.9247,396.414 48.5,391C 46.6217,389.457 45.1217,387.624 44,385.5C 40.1105,361.163 36.1105,336.83 32,312.5C 25.2719,289.315 17.9386,266.315 10,243.5C 5.996,229.154 2.496,214.82 -0.5,200.5C -0.5,181.167 -0.5,161.833 -0.5,142.5C 3.47225,117.044 16.1389,97.2107 37.5,83C 78.1034,59.2041 121.77,44.2041 168.5,38C 197.296,24.2168 227.629,15.8834 259.5,13C 310.57,7.42233 360.57,12.4223 409.5,28C 417.283,31.0582 424.95,34.3916 432.5,38C 475.669,43.7229 516.335,57.0562 554.5,78C 578.237,90.2965 593.237,109.463 599.5,135.5 Z"/></g>
<g><path style="opacity:1" fill="#413f3c" d="M 432.5,49.5 C 445.025,58.1847 456.191,68.518 466,80.5C 480.79,99.98 493.123,120.98 503,143.5C 508.71,162.089 512.376,181.089 514,200.5C 516.154,230.193 515.987,259.859 513.5,289.5C 510.595,330.528 501.762,370.195 487,408.5C 484.242,415.028 480.742,421.028 476.5,426.5C 475.818,425.757 475.151,425.091 474.5,424.5C 475.041,366.477 474.208,308.477 472,250.5C 469.011,214.543 460.677,179.877 447,146.5C 442.629,132.556 434.129,122.056 421.5,115C 402.738,105.715 383.071,103.048 362.5,107C 329.399,123.021 309.732,149.188 303.5,185.5C 302.596,186.209 302.263,187.209 302.5,188.5C 299.467,188.868 296.8,188.202 294.5,186.5C 288.384,150.897 269.384,124.731 237.5,108C 215.457,102.577 194.457,105.244 174.5,116C 169.077,119.419 164.244,123.585 160,128.5C 138.51,169.457 127.177,213.123 126,259.5C 125.185,314.515 125.685,369.515 127.5,424.5C 127.5,425.5 127.5,426.5 127.5,427.5C 124.737,427.256 122.571,425.923 121,423.5C 107.416,397.668 98.4161,370.335 94,341.5C 91.0347,322.407 88.5347,303.407 86.5,284.5C 82.2897,239.367 85.1231,194.7 95,150.5C 107.2,118.336 125.034,89.8362 148.5,65C 155.055,59.5716 161.721,54.4049 168.5,49.5C 195.809,35.455 224.809,26.955 255.5,24C 297.144,19.5869 338.478,21.5869 379.5,30C 397.935,34.5213 415.602,41.0213 432.5,49.5 Z"/></g>
<g><path style="opacity:1" fill="#393836" d="M 261.5,44.5 C 274.056,49.5712 282.556,58.5712 287,71.5C 291.947,85.0774 294.28,99.0774 294,113.5C 292.921,115.394 291.587,115.727 290,114.5C 289.143,101.097 286.477,88.0975 282,75.5C 277.701,64.8686 270.367,57.2019 260,52.5C 259.109,49.5024 259.609,46.8357 261.5,44.5 Z"/></g>
<g><path style="opacity:1" fill="#393836" d="M 334.5,44.5 C 339.151,45.1742 340.651,47.8408 339,52.5C 325.134,59.718 316.467,71.0514 313,86.5C 311.188,95.7585 309.855,105.092 309,114.5C 307.413,115.727 306.079,115.394 305,113.5C 303.52,92.2028 308.854,72.8694 321,55.5C 325.112,51.2157 329.612,47.5491 334.5,44.5 Z"/></g>
<g><path style="opacity:1" fill="#272626" d="M 168.5,49.5 C 161.721,54.4049 155.055,59.5716 148.5,65C 125.034,89.8362 107.2,118.336 95,150.5C 85.1231,194.7 82.2897,239.367 86.5,284.5C 85.9527,293.379 84.9527,302.212 83.5,311C 84.3936,317.131 84.7269,323.298 84.5,329.5C 83.6739,324.684 83.1739,319.684 83,314.5C 81.0856,333.741 76.7523,352.407 70,370.5C 68.3333,373.5 66.6667,376.5 65,379.5C 61.2189,384.201 57.2189,384.534 53,380.5C 49.9878,356.403 46.3212,332.403 42,308.5C 35.2399,285.647 27.9066,262.98 20,240.5C 10.2741,211.241 6.60739,181.241 9,150.5C 11.8636,121.564 26.0303,100.397 51.5,87C 81.1455,70.785 112.479,59.1184 145.5,52C 153.096,50.4623 160.763,49.629 168.5,49.5 Z"/></g>
<g><path style="opacity:1" fill="#272626" d="M 432.5,49.5 C 479.702,55.1776 523.369,70.6776 563.5,96C 575.532,105.877 583.699,118.377 588,133.5C 593.185,155.35 593.852,177.35 590,199.5C 587.828,212.685 584.828,225.685 581,238.5C 573.267,261.032 565.934,283.699 559,306.5C 554.242,331.379 550.242,356.379 547,381.5C 544.757,383.282 542.257,383.782 539.5,383C 535.813,379.79 532.979,375.956 531,371.5C 524.436,353.139 519.602,334.472 516.5,315.5C 516.468,306.584 515.468,297.918 513.5,289.5C 515.987,259.859 516.154,230.193 514,200.5C 512.376,181.089 508.71,162.089 503,143.5C 493.123,120.98 480.79,99.98 466,80.5C 456.191,68.518 445.025,58.1847 432.5,49.5 Z"/></g>
<g><path style="opacity:1" fill="#282727" d="M 294.5,186.5 C 272.793,188.548 251.46,193.381 230.5,201C 183.6,222.252 156.1,258.418 148,309.5C 146.962,321.473 146.462,333.473 146.5,345.5C 146.669,363.689 147.336,381.856 148.5,400C 146.9,431.461 146.067,462.961 146,494.5C 130.365,473.709 124.198,450.376 127.5,424.5C 125.685,369.515 125.185,314.515 126,259.5C 127.177,213.123 138.51,169.457 160,128.5C 164.244,123.585 169.077,119.419 174.5,116C 194.457,105.244 215.457,102.577 237.5,108C 269.384,124.731 288.384,150.897 294.5,186.5 Z"/></g>
<g><path style="opacity:1" fill="#282727" d="M 474.5,424.5 C 474.5,425.5 474.5,426.5 474.5,427.5C 473.005,445.823 466.505,462.156 455,476.5C 454.831,461.328 454.331,446.328 453.5,431.5C 452.296,401.824 452.63,372.157 454.5,342.5C 456.221,302.667 444.721,267.334 420,236.5C 388.167,204.042 349.334,188.042 303.5,188.5C 303.5,187.5 303.5,186.5 303.5,185.5C 309.732,149.188 329.399,123.021 362.5,107C 383.071,103.048 402.738,105.715 421.5,115C 434.129,122.056 442.629,132.556 447,146.5C 460.677,179.877 469.011,214.543 472,250.5C 474.208,308.477 475.041,366.477 474.5,424.5 Z"/></g>
<g><path style="opacity:1" fill="#896c6c" d="M 183.5,174.5 C 190.155,181.483 198.155,183.316 207.5,180C 219.513,173.047 222.846,163.214 217.5,150.5C 220.499,147.143 224.166,144.476 228.5,142.5C 237.302,159.668 234.636,174.834 220.5,188C 203.146,199.241 187.146,197.574 172.5,183C 176.061,179.927 179.728,177.094 183.5,174.5 Z"/></g>
<g><path style="opacity:1" fill="#896c6c" d="M 384.5,150.5 C 380.047,160.406 381.714,169.239 389.5,177C 399.465,183.039 408.798,182.205 417.5,174.5C 421.108,176.77 424.442,179.437 427.5,182.5C 414.58,195.749 399.914,197.915 383.5,189C 367.983,176.479 364.65,161.312 373.5,143.5C 377.475,145.499 381.141,147.832 384.5,150.5 Z"/></g>
<g><path style="opacity:1" fill="#010101" d="M 217.5,150.5 C 222.846,163.214 219.513,173.047 207.5,180C 198.155,183.316 190.155,181.483 183.5,174.5C 193.773,165.027 205.106,157.027 217.5,150.5 Z"/></g>
<g><path style="opacity:1" fill="#010101" d="M 384.5,150.5 C 396.084,157.758 407.084,165.758 417.5,174.5C 408.798,182.205 399.465,183.039 389.5,177C 381.714,169.239 380.047,160.406 384.5,150.5 Z"/></g>
<g><path style="opacity:1" fill="#323231" d="M 303.5,185.5 C 303.5,186.5 303.5,187.5 303.5,188.5C 349.334,188.042 388.167,204.042 420,236.5C 444.721,267.334 456.221,302.667 454.5,342.5C 452.63,372.157 452.296,401.824 453.5,431.5C 453.5,455.167 453.5,478.833 453.5,502.5C 454.49,511.862 450.823,518.529 442.5,522.5C 435.186,524.95 427.853,524.784 420.5,522C 397.755,513.632 382.088,498.132 373.5,475.5C 373.043,474.702 372.376,474.369 371.5,474.5C 365.414,452.664 355.247,432.664 341,414.5C 327.251,397.702 309.751,391.202 288.5,395C 276.044,399.655 265.544,407.155 257,417.5C 244.581,434.671 235.081,453.338 228.5,473.5C 219.415,496.419 203.415,512.586 180.5,522C 173.286,524.471 166.12,524.637 159,522.5C 158.536,523.094 158.369,523.761 158.5,524.5C 155.589,522.094 152.755,519.427 150,516.5C 148.109,512.389 147.109,508.056 147,503.5C 126.256,484.012 109.923,461.345 98,435.5C 92.1712,420.69 88.5045,405.357 87,389.5C 84.9776,369.551 84.1443,349.551 84.5,329.5C 84.7269,323.298 84.3936,317.131 83.5,311C 84.9527,302.212 85.9527,293.379 86.5,284.5C 88.5347,303.407 91.0347,322.407 94,341.5C 98.4161,370.335 107.416,397.668 121,423.5C 122.571,425.923 124.737,427.256 127.5,427.5C 127.5,426.5 127.5,425.5 127.5,424.5C 124.198,450.376 130.365,473.709 146,494.5C 146.067,462.961 146.9,431.461 148.5,400C 147.336,381.856 146.669,363.689 146.5,345.5C 146.462,333.473 146.962,321.473 148,309.5C 156.1,258.418 183.6,222.252 230.5,201C 251.46,193.381 272.793,188.548 294.5,186.5C 296.8,188.202 299.467,188.868 302.5,188.5C 302.263,187.209 302.596,186.209 303.5,185.5 Z"/></g>
<g><path style="opacity:1" fill="#1b1b1b" d="M 288.5,227.5 C 313.819,224.929 335.985,231.929 355,248.5C 371.705,267.732 374.038,288.732 362,311.5C 355.287,321.436 346.12,327.769 334.5,330.5C 325.299,328.783 316.299,326.283 307.5,323C 296.136,321.231 285.469,323.231 275.5,329C 260.22,330.783 248.053,325.283 239,312.5C 223.461,282.524 229.628,258.024 257.5,239C 267.195,233.051 277.529,229.217 288.5,227.5 Z"/></g>
<g><path style="opacity:1" fill="#000000" d="M 264.5,247.5 C 278.927,249.756 285.093,258.089 283,272.5C 279.774,277.205 275.274,280.038 269.5,281C 264.5,281.667 259.5,281.667 254.5,281C 249.198,279.137 248.531,276.47 252.5,273C 256.683,271.204 261.016,269.871 265.5,269C 268.349,266.441 269.183,263.274 268,259.5C 266.258,256.6 264.758,253.6 263.5,250.5C 263.685,249.416 264.018,248.416 264.5,247.5 Z"/></g>
<g><path style="opacity:1" fill="#000000" d="M 333.5,247.5 C 336.261,246.915 337.927,247.915 338.5,250.5C 337.242,253.6 335.742,256.6 334,259.5C 332.817,263.274 333.651,266.441 336.5,269C 341.806,269.72 346.639,271.553 351,274.5C 352.042,277.804 350.875,279.971 347.5,281C 338.598,282.598 330.265,281.265 322.5,277C 315.403,267.879 316.403,259.546 325.5,252C 328.099,250.205 330.766,248.705 333.5,247.5 Z"/></g>
<g><path style="opacity:1" fill="#323231" d="M 513.5,289.5 C 515.468,297.918 516.468,306.584 516.5,315.5C 516.782,345.975 514.949,376.308 511,406.5C 506.963,427.121 499.13,446.121 487.5,463.5C 486.883,463.389 486.383,463.056 486,462.5C 483,451.5 480,440.5 477,429.5C 476.583,428.244 475.75,427.577 474.5,427.5C 474.5,426.5 474.5,425.5 474.5,424.5C 475.151,425.091 475.818,425.757 476.5,426.5C 480.742,421.028 484.242,415.028 487,408.5C 501.762,370.195 510.595,330.528 513.5,289.5 Z"/></g>
<g><path style="opacity:1" fill="#040202" d="M 371.5,474.5 C 369.992,476.181 368.992,478.181 368.5,480.5C 364.349,487.27 359.349,493.436 353.5,499C 348.449,518.033 337.449,532.367 320.5,542C 295.393,551.099 274.893,544.932 259,523.5C 254.124,514.725 249.79,506.392 246,498.5C 240.875,493.222 236.375,487.555 232.5,481.5C 231.674,478.515 230.341,475.849 228.5,473.5C 235.081,453.338 244.581,434.671 257,417.5C 265.544,407.155 276.044,399.655 288.5,395C 309.751,391.202 327.251,397.702 341,414.5C 355.247,432.664 365.414,452.664 371.5,474.5 Z"/></g>
<g><path style="opacity:1" fill="#f09c9f" d="M 297.5,402.5 C 309.866,402.847 320.533,407.347 329.5,416C 339.484,426.996 347.484,439.33 353.5,453C 351.347,468.423 348.18,483.59 344,498.5C 339.345,512.167 331.178,523.333 319.5,532C 297.541,541.279 279.707,536.112 266,516.5C 255.502,497.185 249.335,476.518 247.5,454.5C 253.041,438.451 262.041,424.617 274.5,413C 281.273,407.276 288.94,403.776 297.5,402.5 Z"/></g>
<g><path style="opacity:1" fill="#2d2d2c" d="M 474.5,427.5 C 475.75,427.577 476.583,428.244 477,429.5C 480,440.5 483,451.5 486,462.5C 486.383,463.056 486.883,463.389 487.5,463.5C 477.808,477.85 466.475,490.85 453.5,502.5C 453.5,478.833 453.5,455.167 453.5,431.5C 454.331,446.328 454.831,461.328 455,476.5C 466.505,462.156 473.005,445.823 474.5,427.5 Z"/></g>
<g><path style="opacity:1" fill="#393835" d="M 228.5,473.5 C 230.341,475.849 231.674,478.515 232.5,481.5C 221.505,502.157 207.505,520.491 190.5,536.5C 173.726,549.459 163.06,545.459 158.5,524.5C 158.369,523.761 158.536,523.094 159,522.5C 166.12,524.637 173.286,524.471 180.5,522C 203.415,512.586 219.415,496.419 228.5,473.5 Z"/></g>
<g><path style="opacity:1" fill="#393835" d="M 371.5,474.5 C 372.376,474.369 373.043,474.702 373.5,475.5C 382.088,498.132 397.755,513.632 420.5,522C 427.853,524.784 435.186,524.95 442.5,522.5C 439.008,545.082 428.008,549.749 409.5,536.5C 392.412,520.318 378.745,501.652 368.5,480.5C 368.992,478.181 369.992,476.181 371.5,474.5 Z"/></g>
<g><path style="opacity:1" fill="#2c2c2c" d="M 368.5,480.5 C 378.745,501.652 392.412,520.318 409.5,536.5C 383.399,552.704 355.399,564.538 325.5,572C 309.898,576.063 294.232,576.396 278.5,573C 247.184,565.401 217.85,553.234 190.5,536.5C 207.505,520.491 221.505,502.157 232.5,481.5C 236.375,487.555 240.875,493.222 246,498.5C 249.79,506.392 254.124,514.725 259,523.5C 274.893,544.932 295.393,551.099 320.5,542C 337.449,532.367 348.449,518.033 353.5,499C 359.349,493.436 364.349,487.27 368.5,480.5 Z"/></g>
</svg>
