<?xml version="1.0" encoding="UTF-8"?>
<!DOCTYPE svg PUBLIC "-//W3C//DTD SVG 1.1//EN" "http://www.w3.org/Graphics/SVG/1.1/DTD/svg11.dtd">
<svg xmlns="http://www.w3.org/2000/svg" version="1.1" width="600px" height="600px" style="shape-rendering:geometricPrecision; text-rendering:geometricPrecision; image-rendering:optimizeQuality; fill-rule:evenodd; clip-rule:evenodd" xmlns:xlink="http://www.w3.org/1999/xlink">
<g><path style="opacity:0.956" fill="#040302" d="M 121.5,-0.5 C 133.833,-0.5 146.167,-0.5 158.5,-0.5C 169.435,8.60107 179.602,18.6011 189,29.5C 224.318,77.8652 250.818,130.865 268.5,188.5C 271.553,188.089 274.553,187.423 277.5,186.5C 281.255,180.622 286.255,176.122 292.5,173C 297.372,172.891 302.205,172.058 307,170.5C 314.164,171.809 317.831,176.142 318,183.5C 321.344,186.991 325.511,188.658 330.5,188.5C 347.93,131.308 374.097,78.641 409,30.5C 418.699,19.6345 428.866,9.30112 439.5,-0.5C 451.833,-0.5 464.167,-0.5 476.5,-0.5C 480.054,4.64568 482.554,10.3123 484,16.5C 496.492,65.7832 504.325,115.783 507.5,166.5C 506.235,194.171 505.069,221.838 504,249.5C 502.051,261.395 497.384,272.061 490,281.5C 478.696,293.804 467.03,305.804 455,317.5C 453.414,319.67 452.08,322.004 451,324.5C 445.307,367.273 434.307,408.606 418,448.5C 408.667,468.5 399.333,488.5 390,508.5C 384.356,530.409 379.023,552.409 374,574.5C 371.816,583.925 367.649,592.258 361.5,599.5C 320.5,599.5 279.5,599.5 238.5,599.5C 232.516,592.535 228.349,584.535 226,575.5C 221.094,552.209 215.094,529.209 208,506.5C 191.663,474.818 177.663,442.151 166,408.5C 157.751,380.256 151.418,351.589 147,322.5C 145.333,320.167 143.667,317.833 142,315.5C 130.304,304.138 118.97,292.471 108,280.5C 101.488,271.474 97.1551,261.474 95,250.5C 93.8933,222.34 92.7266,194.173 91.5,166C 94.501,116.493 102.001,67.6596 114,19.5C 115.692,12.4632 118.192,5.7965 121.5,-0.5 Z"/></g>
<g><path style="opacity:1" fill="#d3b198" d="M 135.5,1.5 C 143.475,2.48717 150.475,5.65383 156.5,11C 177.494,30.5311 194.994,52.6978 209,77.5C 230.4,115.36 247.734,155.027 261,196.5C 262.255,198.594 264.088,199.594 266.5,199.5C 270.097,198.411 273.763,197.745 277.5,197.5C 276.805,199.978 275.305,201.978 273,203.5C 269.457,210.495 266.124,217.495 263,224.5C 262.692,230.248 261.859,235.915 260.5,241.5C 260.779,243.343 261.113,245.177 261.5,247C 258.792,255.94 258.958,264.773 262,273.5C 263.298,274.56 264.465,275.726 265.5,277C 267.255,281.382 269.421,285.549 272,289.5C 273.214,291.049 274.714,292.215 276.5,293C 283.597,293.387 289.931,295.721 295.5,300C 300.717,301.259 305.051,299.926 308.5,296C 313.744,294.299 319.077,292.965 324.5,292C 329.517,287.151 332.517,281.318 333.5,274.5C 334.822,274.67 335.989,274.337 337,273.5C 338.913,269.741 339.747,265.741 339.5,261.5C 338.471,251.119 337.138,240.785 335.5,230.5C 335.833,229.167 336.167,227.833 336.5,226.5C 333.845,219.066 330.679,211.733 327,204.5C 325.315,202.983 323.815,201.316 322.5,199.5C 326.798,198.896 331.131,198.73 335.5,199C 336.333,198.167 337.167,197.333 338,196.5C 355.534,139.434 381.534,86.7678 416,38.5C 425.167,26.6667 435.667,16.1667 447.5,7C 451.255,4.2051 455.422,2.37176 460,1.5C 463.855,1.59497 466.855,3.26164 469,6.5C 472.128,12.5526 474.462,18.8859 476,25.5C 485.12,64.0968 491.786,103.097 496,142.5C 495.262,177.813 494.596,213.146 494,248.5C 491.726,259.379 487.06,269.046 480,277.5C 469.667,287.833 459.333,298.167 449,308.5C 445.581,312.331 442.914,316.665 441,321.5C 435.877,364.408 424.877,405.741 408,445.5C 398.667,465.5 389.333,485.5 380,505.5C 374.198,527.041 368.865,548.708 364,570.5C 362.277,580.08 357.777,587.913 350.5,594C 343.144,597.217 335.478,598.217 327.5,597C 318.227,594.185 308.893,591.685 299.5,589.5C 289.982,591.283 280.649,593.783 271.5,597C 254.781,600.56 243.614,594.394 238,578.5C 231.866,553.367 225.199,528.367 218,503.5C 211.212,487.924 203.879,472.59 196,457.5C 176.464,413.356 163.464,367.356 157,319.5C 149.459,307.622 140.126,297.289 129,288.5C 124.333,283.167 119.667,277.833 115,272.5C 110.111,265.172 106.778,257.172 105,248.5C 103.97,221.168 102.804,193.834 101.5,166.5C 104.499,113.173 113.332,60.8397 128,9.5C 130.028,6.30777 132.528,3.64111 135.5,1.5 Z"/></g>
<g><path style="opacity:1" fill="#e3a499" d="M 141.5,26.5 C 147.325,26.0793 152.325,27.9126 156.5,32C 167.909,43.6627 177.742,56.496 186,70.5C 205.363,104.551 219.697,140.551 229,178.5C 230.636,190.652 228.303,201.986 222,212.5C 208.667,227.167 195.333,241.833 182,256.5C 176.17,264.156 170.837,272.156 166,280.5C 162.297,281.912 158.797,281.412 155.5,279C 130.292,259.767 119.792,234.267 124,202.5C 122.742,192.098 121.075,181.765 119,171.5C 117.533,128.969 121.533,86.9692 131,45.5C 132.717,40.3973 134.717,35.3973 137,30.5C 138.397,28.9297 139.897,27.5964 141.5,26.5 Z"/></g>
<g><path style="opacity:1" fill="#e3a499" d="M 450.5,26.5 C 456.204,25.4361 460.371,27.4361 463,32.5C 466.672,41.1857 469.339,50.1857 471,59.5C 477.703,94.5321 480.703,129.865 480,165.5C 478.209,176.795 476.542,188.128 475,199.5C 479.3,231.596 469.133,257.762 444.5,278C 442.194,279.986 439.528,281.153 436.5,281.5C 434.626,281.61 433.126,280.944 432,279.5C 427.451,270.956 422.118,262.956 416,255.5C 404.034,241.866 391.701,228.533 379,215.5C 370.381,204.576 367.381,192.243 370,178.5C 381.38,130.655 401.046,86.6549 429,46.5C 435.108,38.554 442.274,31.8873 450.5,26.5 Z"/></g>
<g><path style="opacity:1" fill="#6f5947" d="M 314.5,196.5 C 315.03,198.924 315.864,201.257 317,203.5C 323.285,209.07 326.618,216.07 327,224.5C 329.449,225.725 329.949,227.392 328.5,229.5C 329.656,233.123 330.656,236.789 331.5,240.5C 331.148,241.786 330.482,242.619 329.5,243C 332.136,250.644 333.302,258.477 333,266.5C 332.751,267.624 332.251,268.624 331.5,269.5C 330.719,268.263 329.719,267.263 328.5,266.5C 329.018,274.622 326.352,281.456 320.5,287C 318.924,286.848 317.591,286.015 316.5,284.5C 315.713,285.242 315.047,286.075 314.5,287C 309.221,288.973 304.221,291.473 299.5,294.5C 294.779,291.473 289.779,288.973 284.5,287C 282.795,283.75 281.295,283.916 280,287.5C 273.375,282.048 270.208,275.048 270.5,266.5C 269.719,267.737 268.719,268.737 267.5,269.5C 265.457,260.578 266.124,251.745 269.5,243C 267.395,238.152 267.729,233.319 270.5,228.5C 268.252,226.775 268.752,225.442 272,224.5C 273.018,215.797 276.685,208.463 283,202.5C 283.813,200.564 284.313,198.564 284.5,196.5C 286.019,192.801 288.186,189.468 291,186.5C 292.512,188.957 293.846,188.957 295,186.5C 295.414,186.957 295.914,187.291 296.5,187.5C 297.298,185.922 297.798,184.256 298,182.5C 299.34,185.202 300.673,187.869 302,190.5C 303.413,187.339 305.08,184.339 307,181.5C 306.562,184.199 306.728,186.865 307.5,189.5C 308.086,189.291 308.586,188.957 309,188.5C 311.054,191.047 312.887,193.714 314.5,196.5 Z"/></g>
<g><path style="opacity:1" fill="#8a7362" d="M 284.5,196.5 C 284.313,198.564 283.813,200.564 283,202.5C 276.685,208.463 273.018,215.797 272,224.5C 268.752,225.442 268.252,226.775 270.5,228.5C 267.729,233.319 267.395,238.152 269.5,243C 266.124,251.745 265.457,260.578 267.5,269.5C 268.719,268.737 269.719,267.737 270.5,266.5C 270.208,275.048 273.375,282.048 280,287.5C 281.295,283.916 282.795,283.75 284.5,287C 289.779,288.973 294.779,291.473 299.5,294.5C 304.221,291.473 309.221,288.973 314.5,287C 315.047,286.075 315.713,285.242 316.5,284.5C 317.591,286.015 318.924,286.848 320.5,287C 326.352,281.456 329.018,274.622 328.5,266.5C 329.719,267.263 330.719,268.263 331.5,269.5C 332.251,268.624 332.751,267.624 333,266.5C 333.302,258.477 332.136,250.644 329.5,243C 330.482,242.619 331.148,241.786 331.5,240.5C 330.656,236.789 329.656,233.123 328.5,229.5C 329.949,227.392 329.449,225.725 327,224.5C 326.618,216.07 323.285,209.07 317,203.5C 315.864,201.257 315.03,198.924 314.5,196.5C 319.197,202.387 323.363,208.72 327,215.5C 327.333,218.167 327.667,220.833 328,223.5C 331.728,224.834 332.228,226.834 329.5,229.5C 332.041,234.475 332.708,239.642 331.5,245C 334.114,252.648 334.947,260.482 334,268.5C 332.688,270.658 331.022,270.991 329,269.5C 329.802,277.024 327.302,283.19 321.5,288C 319.567,288.783 318.067,288.283 317,286.5C 316.167,287.333 315.333,288.167 314.5,289C 309.202,290.702 304.202,292.869 299.5,295.5C 294.798,292.869 289.798,290.702 284.5,289C 283.667,288.167 282.833,287.333 282,286.5C 280.933,288.283 279.433,288.783 277.5,288C 272.102,283.033 269.602,276.866 270,269.5C 267.301,272.264 265.634,271.597 265,267.5C 264.249,259.835 265.082,252.335 267.5,245C 266.704,243.908 266.037,242.741 265.5,241.5C 266.422,237.645 267.422,233.812 268.5,230C 266.849,227.119 267.516,224.952 270.5,223.5C 271.58,217.426 273.747,211.76 277,206.5C 280.251,203.635 282.751,200.301 284.5,196.5 Z"/></g>
<g><path style="opacity:1" fill="#c0a08a" d="M 222.5,333.5 C 249.621,332.788 260.787,345.788 256,372.5C 249.364,386.068 238.531,391.568 223.5,389C 206.938,383.424 199.772,371.924 202,354.5C 205.685,344.316 212.519,337.316 222.5,333.5 Z"/></g>
<g><path style="opacity:1" fill="#c0a08a" d="M 362.5,333.5 C 386.137,332.637 397.637,343.97 397,367.5C 388.433,389.024 373.599,394.858 352.5,385C 336.919,370.018 336.586,354.685 351.5,339C 354.99,336.588 358.657,334.755 362.5,333.5 Z"/></g>
<g><path style="opacity:1" fill="#302826" d="M 224.5,342.5 C 242.151,341.65 249.985,349.984 248,367.5C 242.634,379.073 233.801,382.906 221.5,379C 210.856,371.626 208.356,362.126 214,350.5C 216.94,346.963 220.44,344.297 224.5,342.5 Z"/></g>
<g><path style="opacity:1" fill="#302826" d="M 363.5,342.5 C 383.064,342.225 390.564,351.559 386,370.5C 378.483,381.045 368.983,383.211 357.5,377C 345.294,363.013 347.294,351.513 363.5,342.5 Z"/></g>
<g><path style="opacity:1" fill="#f3f3f3" d="M 233.5,351.5 C 240.574,352.482 242.24,355.982 238.5,362C 232,363.5 229.5,361 231,354.5C 232.045,353.627 232.878,352.627 233.5,351.5 Z"/></g>
<g><path style="opacity:1" fill="#f0f0f0" d="M 373.5,351.5 C 380.985,352.805 382.319,356.305 377.5,362C 372.16,362.989 369.66,360.822 370,355.5C 370.69,353.65 371.856,352.316 373.5,351.5 Z"/></g>
<g><path style="opacity:1" fill="#705a48" d="M 298.5,514.5 C 311.379,513.916 322.546,517.916 332,526.5C 342.474,547.077 336.974,561.911 315.5,571C 294.519,577.591 277.019,572.425 263,555.5C 257.928,543.372 260.095,532.872 269.5,524C 278.208,517.635 287.875,514.468 298.5,514.5 Z"/></g>
</svg>
