<?xml version="1.0" encoding="UTF-8"?>
<!DOCTYPE svg PUBLIC "-//W3C//DTD SVG 1.1//EN" "http://www.w3.org/Graphics/SVG/1.1/DTD/svg11.dtd">
<svg xmlns="http://www.w3.org/2000/svg" version="1.1" width="600px" height="600px" style="shape-rendering:geometricPrecision; text-rendering:geometricPrecision; image-rendering:optimizeQuality; fill-rule:evenodd; clip-rule:evenodd" xmlns:xlink="http://www.w3.org/1999/xlink">
<g><path style="opacity:0.963" fill="#020202" d="M 123.5,8.5 C 128.6,9.25517 133.267,11.0885 137.5,14C 151.47,28.9642 164.303,44.7975 176,61.5C 194.188,88.037 211.188,115.37 227,143.5C 229.167,145.667 231.333,147.833 233.5,150C 236.375,151.065 239.375,151.565 242.5,151.5C 259.899,148.804 277.399,147.138 295,146.5C 312.616,146.973 330.116,148.64 347.5,151.5C 355.067,151.631 360.567,148.298 364,141.5C 386.873,97.728 414.207,57.0614 446,19.5C 451.003,13.9137 457.17,10.247 464.5,8.5C 473.079,9.70917 478.912,14.3758 482,22.5C 496.875,75.2898 505.042,129.123 506.5,184C 508.239,204.222 503.072,222.389 491,238.5C 484.797,245.032 479.797,252.365 476,260.5C 477.599,274.843 479.599,289.176 482,303.5C 483.764,329.865 481.43,355.865 475,381.5C 462.801,439.473 440.135,492.807 407,541.5C 385.266,569.454 356.766,585.621 321.5,590C 295.503,593.14 269.836,591.474 244.5,585C 221.764,577.545 202.597,564.712 187,546.5C 157.1,505.693 135.433,460.693 122,411.5C 113.608,381.876 108.442,351.71 106.5,321C 106.987,304.604 109.154,288.437 113,272.5C 113.667,268.167 113.667,263.833 113,259.5C 102.316,246.808 93.6491,232.808 87,217.5C 85.0307,211.987 83.6973,206.321 83,200.5C 82.4492,143.573 89.4492,87.5734 104,32.5C 106.067,20.6018 112.567,12.6018 123.5,8.5 Z"/></g>
<g><path style="opacity:1" fill="#eaeaea" d="M 219.5,151.5 C 222.946,160.584 223.446,169.918 221,179.5C 216.059,192.757 209.059,204.757 200,215.5C 186.436,230.839 170.936,243.672 153.5,254C 145.765,258.682 137.431,261.016 128.5,261C 127.016,260.338 125.683,259.504 124.5,258.5C 113.213,244.357 103.713,229.023 96,212.5C 93.6049,202.325 92.4382,191.992 92.5,181.5C 94.2711,129.542 102.104,78.542 116,28.5C 117.476,23.8079 120.476,20.8079 125,19.5C 126.627,19.6251 128.127,20.1251 129.5,21C 137.921,29.3634 145.754,38.1967 153,47.5C 177.423,80.6691 199.59,115.336 219.5,151.5 Z"/></g>
<g><path style="opacity:1" fill="#f1f1f1" d="M 480.5,56.5 C 480.737,57.791 480.404,58.791 479.5,59.5C 475.509,39.1697 464.509,34.003 446.5,44C 421.267,73.2793 401.767,106.113 388,142.5C 381.468,164.247 383.802,184.914 395,204.5C 402.319,216.494 411.153,227.327 421.5,237C 428.081,243.198 435.914,246.698 445,247.5C 452.634,247.181 458.967,244.181 464,238.5C 471.722,228.444 479.055,218.111 486,207.5C 488.296,201.695 489.962,195.695 491,189.5C 491.379,147.502 487.879,105.836 480.5,64.5C 480.232,62.901 480.566,61.5676 481.5,60.5C 492.172,108.22 496.672,156.554 495,205.5C 493.993,211.522 491.993,217.189 489,222.5C 483.769,231.066 477.769,239.066 471,246.5C 465.821,254.058 464.154,262.391 466,271.5C 473.414,300.261 474.414,329.261 469,358.5C 458.713,419.383 437.047,475.716 404,527.5C 384.235,556.97 356.735,574.137 321.5,579C 258.238,590.1 210.071,568.6 177,514.5C 168.513,499.694 160.68,484.527 153.5,469C 156.502,466.497 159.835,464.497 163.5,463C 185.298,456.179 206.632,448.179 227.5,439C 242.322,431.339 255.156,421.173 266,408.5C 269.464,400.773 272.131,392.773 274,384.5C 279.775,352.428 282.275,320.094 281.5,287.5C 281.417,272.488 281.083,257.488 280.5,242.5C 280.332,236.966 279.665,231.633 278.5,226.5C 277.575,210.373 274.408,194.707 269,179.5C 265.013,170.173 258.846,164.006 250.5,161C 282.868,156.223 315.201,156.39 347.5,161.5C 359.063,161.782 367.563,156.782 373,146.5C 396.348,101.949 424.515,60.7821 457.5,23C 462.308,18.2858 466.808,18.4524 471,23.5C 475.88,34.0204 479.046,45.0204 480.5,56.5 Z"/></g>
<g><path style="opacity:1" fill="#080808" d="M 121.5,39.5 C 131.616,37.3852 140.116,40.0518 147,47.5C 165.771,71.3068 181.771,96.9734 195,124.5C 202.308,140.06 205.642,156.394 205,173.5C 203.677,182.118 201.343,190.451 198,198.5C 189.781,213.396 179.281,226.563 166.5,238C 155.131,246.518 143.131,247.518 130.5,241C 101.473,217.608 90.9734,187.441 99,150.5C 101.049,123.726 104.049,97.0595 108,70.5C 108.903,63.3157 110.57,56.3157 113,49.5C 115.15,45.4973 117.984,42.1639 121.5,39.5 Z"/></g>
<g><path style="opacity:1" fill="#080808" d="M 479.5,59.5 C 479.216,61.4147 479.549,63.0813 480.5,64.5C 487.879,105.836 491.379,147.502 491,189.5C 489.962,195.695 488.296,201.695 486,207.5C 479.055,218.111 471.722,228.444 464,238.5C 458.967,244.181 452.634,247.181 445,247.5C 435.914,246.698 428.081,243.198 421.5,237C 411.153,227.327 402.319,216.494 395,204.5C 383.802,184.914 381.468,164.247 388,142.5C 401.767,106.113 421.267,73.2793 446.5,44C 464.509,34.003 475.509,39.1697 479.5,59.5 Z"/></g>
<g><path style="opacity:1" fill="#8c8b8b" d="M 136.5,52.5 C 134.208,51.1086 131.708,50.1086 129,49.5C 126.808,49.8627 124.974,50.8627 123.5,52.5C 124.033,49.4752 125.867,48.1419 129,48.5C 132.329,48.4128 134.829,49.7461 136.5,52.5 Z"/></g>
<g><path style="opacity:1" fill="#8c8b8b" d="M 470.5,67.5 C 469.359,63.6227 468.192,59.6227 467,55.5C 464.365,49.1315 460.198,47.9649 454.5,52C 452.297,54.3722 449.963,56.5389 447.5,58.5C 450.553,51.4741 455.886,48.3075 463.5,49C 465.815,50.1094 467.315,51.9427 468,54.5C 469.631,58.6879 470.464,63.0212 470.5,67.5 Z"/></g>
<g><path style="opacity:1" fill="#f0cbd2" d="M 136.5,52.5 C 137.239,52.369 137.906,52.5357 138.5,53C 144.129,59.4491 149.129,66.2824 153.5,73.5C 154.759,77.0246 156.759,80.0246 159.5,82.5C 162.579,85.6505 164.913,89.3171 166.5,93.5C 175.32,109.473 183.32,125.806 190.5,142.5C 196.524,157.072 196.857,171.739 191.5,186.5C 189.175,191.123 186.842,195.789 184.5,200.5C 184.155,203.198 182.822,205.198 180.5,206.5C 177.355,209.46 174.688,212.793 172.5,216.5C 167.003,221.829 161.336,226.996 155.5,232C 151.741,233.985 147.741,235.152 143.5,235.5C 141.447,235.598 139.78,234.931 138.5,233.5C 133.193,228.528 127.86,223.528 122.5,218.5C 117.088,210.342 112.754,201.675 109.5,192.5C 108.178,178.598 108.178,164.598 109.5,150.5C 110.815,143.371 111.482,136.037 111.5,128.5C 111.454,121.95 112.121,115.617 113.5,109.5C 115.947,95.0293 117.947,80.3626 119.5,65.5C 120.969,61.3129 122.302,56.9796 123.5,52.5C 124.974,50.8627 126.808,49.8627 129,49.5C 131.708,50.1086 134.208,51.1086 136.5,52.5 Z"/></g>
<g><path style="opacity:1" fill="#f0cbd2" d="M 470.5,67.5 C 470.438,72.0758 471.105,76.4091 472.5,80.5C 472.444,85.7312 473.111,90.7312 474.5,95.5C 475.473,97.9479 475.806,100.615 475.5,103.5C 475.45,109.389 476.116,115.056 477.5,120.5C 479.889,137.77 481.222,155.27 481.5,173C 481.714,180.734 481.047,188.234 479.5,195.5C 477.519,199.461 475.519,203.461 473.5,207.5C 473.573,209.027 472.906,210.027 471.5,210.5C 467.103,214.959 463.436,219.959 460.5,225.5C 460.262,227.404 459.262,228.738 457.5,229.5C 453.398,234.538 448.065,236.871 441.5,236.5C 440.209,236.737 439.209,236.404 438.5,235.5C 431.606,230.948 425.272,225.615 419.5,219.5C 412.128,213.088 406.462,205.422 402.5,196.5C 396.276,184.209 394.109,171.209 396,157.5C 397.347,151.111 398.847,144.778 400.5,138.5C 400.872,134.703 402.206,131.37 404.5,128.5C 409.418,119.665 414.085,110.665 418.5,101.5C 420,97.827 422,94.4937 424.5,91.5C 427.579,88.3495 429.913,84.6829 431.5,80.5C 431.427,78.9731 432.094,77.9731 433.5,77.5C 436.605,74.7251 438.938,71.3918 440.5,67.5C 442.111,63.9485 444.444,60.9485 447.5,58.5C 449.963,56.5389 452.297,54.3722 454.5,52C 460.198,47.9649 464.365,49.1315 467,55.5C 468.192,59.6227 469.359,63.6227 470.5,67.5 Z"/></g>
<g><path style="opacity:1" fill="#8d8c8c" d="M 123.5,52.5 C 122.302,56.9796 120.969,61.3129 119.5,65.5C 119.466,60.6049 120.8,56.2716 123.5,52.5 Z"/></g>
<g><path style="opacity:1" fill="#949494" d="M 480.5,56.5 C 481.434,57.5676 481.768,58.901 481.5,60.5C 480.566,61.5676 480.232,62.901 480.5,64.5C 479.549,63.0813 479.216,61.4147 479.5,59.5C 480.404,58.791 480.737,57.791 480.5,56.5 Z"/></g>
<g><path style="opacity:1" fill="#908f8f" d="M 440.5,67.5 C 438.938,71.3918 436.605,74.7251 433.5,77.5C 435.062,73.6082 437.395,70.2749 440.5,67.5 Z"/></g>
<g><path style="opacity:1" fill="#8b8a8a" d="M 153.5,73.5 C 156.277,75.9505 158.277,78.9505 159.5,82.5C 156.759,80.0246 154.759,77.0246 153.5,73.5 Z"/></g>
<g><path style="opacity:1" fill="#8c8c8c" d="M 470.5,67.5 C 471.895,71.5909 472.562,75.9242 472.5,80.5C 471.105,76.4091 470.438,72.0758 470.5,67.5 Z"/></g>
<g><path style="opacity:1" fill="#8e8e8e" d="M 431.5,80.5 C 429.913,84.6829 427.579,88.3495 424.5,91.5C 426.087,87.3171 428.421,83.6505 431.5,80.5 Z"/></g>
<g><path style="opacity:1" fill="#8e8e8e" d="M 119.5,65.5 C 117.947,80.3626 115.947,95.0293 113.5,109.5C 114.492,94.5637 116.492,79.8971 119.5,65.5 Z"/></g>
<g><path style="opacity:1" fill="#8c8c8c" d="M 472.5,80.5 C 473.889,85.2688 474.556,90.2688 474.5,95.5C 473.111,90.7312 472.444,85.7312 472.5,80.5 Z"/></g>
<g><path style="opacity:1" fill="#8c8c8c" d="M 166.5,93.5 C 176.871,108.576 184.871,124.909 190.5,142.5C 183.32,125.806 175.32,109.473 166.5,93.5 Z"/></g>
<g><path style="opacity:1" fill="#8b8b8b" d="M 418.5,101.5 C 414.085,110.665 409.418,119.665 404.5,128.5C 407.874,118.749 412.541,109.749 418.5,101.5 Z"/></g>
<g><path style="opacity:1" fill="#8d8c8c" d="M 475.5,103.5 C 476.884,108.944 477.55,114.611 477.5,120.5C 476.116,115.056 475.45,109.389 475.5,103.5 Z"/></g>
<g><path style="opacity:1" fill="#8b8b8b" d="M 111.5,128.5 C 111.482,136.037 110.815,143.371 109.5,150.5C 109.406,142.953 110.072,135.62 111.5,128.5 Z"/></g>
<g><path style="opacity:1" fill="#372f2c" d="M 219.5,151.5 C 222.622,154.446 225.956,157.279 229.5,160C 232.987,161.622 236.654,162.455 240.5,162.5C 240.881,168.717 244.215,172.217 250.5,173C 256.408,177.901 260.241,184.068 262,191.5C 267.408,213.832 270.408,236.498 271,259.5C 273.091,299.391 271.091,339.058 265,378.5C 263.181,393.002 256.681,404.835 245.5,414C 230.302,425.601 213.635,434.601 195.5,441C 179.334,446.105 163.668,451.605 148.5,457.5C 134.449,421.628 124.615,384.628 119,346.5C 115.804,321.149 117.471,296.149 124,271.5C 124.499,267.179 124.666,262.846 124.5,258.5C 125.683,259.504 127.016,260.338 128.5,261C 137.431,261.016 145.765,258.682 153.5,254C 170.936,243.672 186.436,230.839 200,215.5C 209.059,204.757 216.059,192.757 221,179.5C 223.446,169.918 222.946,160.584 219.5,151.5 Z"/></g>
<g><path style="opacity:1" fill="#8d8c8c" d="M 400.5,138.5 C 398.847,144.778 397.347,151.111 396,157.5C 394.109,171.209 396.276,184.209 402.5,196.5C 396.521,187.707 393.854,177.874 394.5,167C 394.284,156.908 396.284,147.408 400.5,138.5 Z"/></g>
<g><path style="opacity:1" fill="#908f8f" d="M 191.5,186.5 C 190.675,192.006 188.342,196.673 184.5,200.5C 186.842,195.789 189.175,191.123 191.5,186.5 Z"/></g>
<g><path style="opacity:1" fill="#8c8c8c" d="M 109.5,192.5 C 112.754,201.675 117.088,210.342 122.5,218.5C 115.528,211.222 111.194,202.555 109.5,192.5 Z"/></g>
<g><path style="opacity:1" fill="#8c8c8c" d="M 479.5,195.5 C 479.075,200.35 477.075,204.35 473.5,207.5C 475.519,203.461 477.519,199.461 479.5,195.5 Z"/></g>
<g><path style="opacity:1" fill="#8f8e8e" d="M 180.5,206.5 C 178.792,210.572 176.126,213.905 172.5,216.5C 174.688,212.793 177.355,209.46 180.5,206.5 Z"/></g>
<g><path style="opacity:1" fill="#8e8e8e" d="M 471.5,210.5 C 468.564,216.041 464.897,221.041 460.5,225.5C 463.436,219.959 467.103,214.959 471.5,210.5 Z"/></g>
<g><path style="opacity:1" fill="#8b8b8b" d="M 172.5,216.5 C 168.063,222.772 162.73,228.272 156.5,233C 152.265,235.483 147.932,236.316 143.5,235.5C 147.741,235.152 151.741,233.985 155.5,232C 161.336,226.996 167.003,221.829 172.5,216.5 Z"/></g>
<g><path style="opacity:1" fill="#8d8d8d" d="M 122.5,218.5 C 127.86,223.528 133.193,228.528 138.5,233.5C 137.078,233.291 135.745,232.791 134.5,232C 129.898,227.906 125.898,223.406 122.5,218.5 Z"/></g>
<g><path style="opacity:1" fill="#8c8c8c" d="M 419.5,219.5 C 425.272,225.615 431.606,230.948 438.5,235.5C 430.365,232.37 424.032,227.037 419.5,219.5 Z"/></g>
<g><path style="opacity:1" fill="#434140" d="M 278.5,226.5 C 279.665,231.633 280.332,236.966 280.5,242.5C 278.922,237.417 278.255,232.084 278.5,226.5 Z"/></g>
<g><path style="opacity:1" fill="#8b8b8b" d="M 457.5,229.5 C 453.972,236.116 448.639,238.449 441.5,236.5C 448.065,236.871 453.398,234.538 457.5,229.5 Z"/></g>
<g><path style="opacity:1" fill="#96622f" d="M 208.5,280.5 C 227.161,278.403 239.661,286.069 246,303.5C 248.278,321.789 240.778,333.956 223.5,340C 196.863,341.696 184.697,329.196 187,302.5C 190.685,291.65 197.851,284.316 208.5,280.5 Z"/></g>
<g><path style="opacity:1" fill="#996533" d="M 359.5,280.5 C 384.517,279.684 396.683,291.684 396,316.5C 390.403,334.415 378.237,342.249 359.5,340C 342.227,333.968 334.727,321.801 337,303.5C 340.649,292.018 348.149,284.351 359.5,280.5 Z"/></g>
<g><path style="opacity:1" fill="#010100" d="M 210.5,287.5 C 225.148,285.564 234.648,291.564 239,305.5C 239.833,324.667 230.667,333.833 211.5,333C 194.178,326.382 189.345,314.549 197,297.5C 200.56,292.756 205.06,289.423 210.5,287.5 Z"/></g>
<g><path style="opacity:1" fill="#010100" d="M 360.5,287.5 C 375.148,285.564 384.648,291.564 389,305.5C 389.833,324.667 380.667,333.833 361.5,333C 344.182,326.396 339.349,314.563 347,297.5C 350.56,292.756 355.06,289.423 360.5,287.5 Z"/></g>
<g><path style="opacity:1" fill="#e4e4e4" d="M 221.5,300.5 C 227.83,299.666 230.663,302.333 230,308.5C 226.333,312.5 222.667,312.5 219,308.5C 218.023,305.183 218.856,302.516 221.5,300.5 Z"/></g>
<g><path style="opacity:1" fill="#e3e3e3" d="M 371.5,300.5 C 377.83,299.666 380.663,302.333 380,308.5C 376.333,312.5 372.667,312.5 369,308.5C 368.018,305.225 368.851,302.559 371.5,300.5 Z"/></g>
<g><path style="opacity:1" fill="#010101" d="M 259.5,485.5 C 269.094,486.398 278.428,488.565 287.5,492C 292.5,492.667 297.5,492.667 302.5,492C 308.121,490.178 313.788,488.511 319.5,487C 335.252,484.263 343.086,490.763 343,506.5C 339.296,521.724 330.13,532.224 315.5,538C 292.534,546.619 272.367,542.452 255,525.5C 245.976,515.148 244.309,503.815 250,491.5C 252.848,488.848 256.015,486.848 259.5,485.5 Z"/></g>
</svg>
