<?xml version="1.0" encoding="UTF-8"?>
<!DOCTYPE svg PUBLIC "-//W3C//DTD SVG 1.1//EN" "http://www.w3.org/Graphics/SVG/1.1/DTD/svg11.dtd">
<svg xmlns="http://www.w3.org/2000/svg" version="1.1" width="600px" height="600px" style="shape-rendering:geometricPrecision; text-rendering:geometricPrecision; image-rendering:optimizeQuality; fill-rule:evenodd; clip-rule:evenodd" xmlns:xlink="http://www.w3.org/1999/xlink">
<g><path style="opacity:0.959" fill="#030202" d="M 103.5,-0.5 C 110.833,-0.5 118.167,-0.5 125.5,-0.5C 138.174,5.98076 149.34,14.6474 159,25.5C 186.446,58.3608 207.779,95.0275 223,135.5C 230.766,157.236 237.599,179.236 243.5,201.5C 283.167,188.167 322.833,188.167 362.5,201.5C 373.346,156.462 390.179,113.795 413,73.5C 426.471,49.692 443.304,28.5253 463.5,10C 469.171,5.80615 475.171,2.30615 481.5,-0.5C 488.5,-0.5 495.5,-0.5 502.5,-0.5C 509.64,3.41568 514.14,9.41568 516,17.5C 524.598,54.1555 531.264,91.1555 536,128.5C 540.286,169.727 537.286,210.393 527,250.5C 521.284,272.207 508.784,288.707 489.5,300C 475.439,312.218 470.106,327.552 473.5,346C 472.107,375.632 466.607,404.465 457,432.5C 452.939,441.622 448.606,450.622 444,459.5C 435,473.833 426,488.167 417,502.5C 410.432,520.304 402.766,537.637 394,554.5C 379.581,577.946 359.081,592.946 332.5,599.5C 311.5,599.5 290.5,599.5 269.5,599.5C 243.491,590.657 223.658,574.324 210,550.5C 201.784,533.402 194.117,516.069 187,498.5C 178.084,485.002 169.417,471.336 161,457.5C 147.079,431.156 138.412,403.156 135,373.5C 133.858,358.526 133.191,343.526 133,328.5C 131.156,316.315 125.323,306.481 115.5,299C 106.728,293.227 98.8949,286.394 92,278.5C 85.7743,269.713 81.4409,260.046 79,249.5C 66.1066,195.755 65.1066,141.755 76,87.5C 80.7443,63.1117 85.7443,38.7783 91,14.5C 93.3123,7.82923 97.4789,2.82923 103.5,-0.5 Z"/></g>
<g><path style="opacity:1" fill="#6f6e6e" d="M 510.5,43.5 C 510.672,44.4916 510.338,45.1583 509.5,45.5C 508.462,35.5313 504.129,27.3646 496.5,21C 487.266,16.3201 478.266,16.6534 469.5,22C 464.3,26.8653 459.467,32.0319 455,37.5C 427.666,80.3984 407.999,126.732 396,176.5C 393.127,200.803 397.46,223.803 409,245.5C 422.629,269.503 443.129,281.003 470.5,280C 487.152,276.018 498.986,266.185 506,250.5C 517.539,218.204 523.372,184.871 523.5,150.5C 522.851,134.804 521.851,119.137 520.5,103.5C 520.205,101.265 520.539,99.2646 521.5,97.5C 529.887,143.579 529.387,189.579 520,235.5C 517.494,248.69 512.827,261.023 506,272.5C 496.333,280.833 486.667,289.167 477,297.5C 469.399,305.704 464.732,315.371 463,326.5C 462.644,341.848 461.977,357.181 461,372.5C 460.184,377.546 459.184,382.546 458,387.5C 451.161,377.662 442.328,375.162 431.5,380C 429.288,382.921 427.455,386.088 426,389.5C 422.535,401.56 418.869,413.56 415,425.5C 410.819,438.682 401.819,445.348 388,445.5C 376.323,444.243 365.823,440.076 356.5,433C 348.872,427.04 341.538,420.707 334.5,414C 325.207,411.291 321.707,414.791 324,424.5C 331.865,455.095 341.532,485.095 353,514.5C 357.94,531.498 358.273,548.498 354,565.5C 351.973,570.215 348.973,574.215 345,577.5C 344.313,579.568 344.48,581.568 345.5,583.5C 343.446,585.194 341.112,586.361 338.5,587C 332.633,588.841 326.633,590.174 320.5,591C 304.741,592.102 289.074,591.436 273.5,589C 269.056,587.611 264.723,585.944 260.5,584C 261.591,581.936 261.758,579.769 261,577.5C 255.857,572.877 252.523,567.21 251,560.5C 248.819,542.492 250.486,524.826 256,507.5C 264.464,484.773 272.131,461.773 279,438.5C 281.309,430.613 282.642,422.613 283,414.5C 279.888,411.277 276.388,410.777 272.5,413C 260.61,426.565 246.277,436.565 229.5,443C 212.234,448.921 199.734,443.754 192,427.5C 188.023,415.593 184.357,403.593 181,391.5C 179.333,388.167 177.667,384.833 176,381.5C 165.043,374.674 155.877,376.674 148.5,387.5C 144.206,366.736 142.372,345.736 143,324.5C 141.399,314.967 137.399,306.634 131,299.5C 123.75,292.246 115.917,285.746 107.5,280C 99.8459,272.529 94.3459,263.695 91,253.5C 80.2266,214.198 76.5599,174.198 80,133.5C 84.4667,92.8351 92.1334,52.8351 103,13.5C 104.543,11.6217 106.376,10.1217 108.5,9C 113.257,8.19024 117.924,8.52357 122.5,10C 136.446,17.6054 148.279,27.7721 158,40.5C 195.442,90.4028 220.776,146.069 234,207.5C 235.32,210.901 237.82,212.235 241.5,211.5C 252.165,209.067 262.831,206.567 273.5,204C 302.387,199.655 330.72,201.989 358.5,211C 367.114,213.971 372.281,211.138 374,202.5C 387.655,139.2 414.655,82.5331 455,32.5C 463.828,22.3272 474.328,14.4938 486.5,9C 494.802,6.46309 500.968,8.96309 505,16.5C 507.54,25.3653 509.373,34.3653 510.5,43.5 Z"/></g>
<g><path style="opacity:1" fill="#080707" d="M 119.5,17.5 C 127.418,17.5274 134.418,20.0274 140.5,25C 150.22,35.3885 158.387,46.8885 165,59.5C 182.667,92.5628 196.667,127.229 207,163.5C 215.314,195.611 210.314,225.611 192,253.5C 175.615,275.281 154.115,283.448 127.5,278C 113.879,271.712 104.379,261.545 99,247.5C 86.1265,208.512 81.1265,168.512 84,127.5C 85.9903,95.5609 91.3237,64.2275 100,33.5C 103.801,24.5031 110.301,19.1698 119.5,17.5 Z"/></g>
<g><path style="opacity:1" fill="#080707" d="M 509.5,45.5 C 514.219,64.7541 517.885,84.0874 520.5,103.5C 521.851,119.137 522.851,134.804 523.5,150.5C 523.372,184.871 517.539,218.204 506,250.5C 498.986,266.185 487.152,276.018 470.5,280C 443.129,281.003 422.629,269.503 409,245.5C 397.46,223.803 393.127,200.803 396,176.5C 407.999,126.732 427.666,80.3984 455,37.5C 459.467,32.0319 464.3,26.8653 469.5,22C 478.266,16.6534 487.266,16.3201 496.5,21C 504.129,27.3646 508.462,35.5313 509.5,45.5 Z"/></g>
<g><path style="opacity:1" fill="#d0a267" d="M 119.5,27.5 C 126.753,27.7098 132.586,30.7098 137,36.5C 151.895,56.9467 164.229,78.9467 174,102.5C 186.107,131.154 195.607,160.654 202.5,191C 200.466,209.648 194.966,227.148 186,243.5C 173.218,263.81 155.051,271.977 131.5,268C 118.394,261.318 109.894,250.818 106,236.5C 92.8778,190.861 89.8778,144.528 97,97.5C 99.3085,80.6243 102.642,63.9576 107,47.5C 108.413,42.2609 110.413,37.2609 113,32.5C 114.965,30.4497 117.132,28.783 119.5,27.5 Z"/></g>
<g><path style="opacity:1" fill="#d0a267" d="M 512.5,139.5 C 512.782,156.877 512.115,174.21 510.5,191.5C 508.554,203.476 506.054,215.476 503,227.5C 500.645,236.232 497.312,244.565 493,252.5C 478.354,271.232 460.52,274.732 439.5,263C 424.011,251.555 413.844,236.389 409,217.5C 405.613,206.741 404.28,195.741 405,184.5C 416.799,135.919 435.466,90.2522 461,47.5C 466.213,39.1812 473.047,32.6812 481.5,28C 486.63,27.4785 490.797,29.3119 494,33.5C 501.508,53.5336 506.508,74.2003 509,95.5C 511.11,110.094 512.276,124.761 512.5,139.5 Z"/></g>
<g><path style="opacity:1" fill="#535252" d="M 510.5,43.5 C 515.084,61.192 518.751,79.192 521.5,97.5C 520.539,99.2646 520.205,101.265 520.5,103.5C 517.885,84.0874 514.219,64.7541 509.5,45.5C 510.338,45.1583 510.672,44.4916 510.5,43.5 Z"/></g>
<g><path style="opacity:1" fill="#463f38" d="M 512.5,139.5 C 513.659,150.659 513.826,161.992 513,173.5C 512.729,179.721 511.896,185.721 510.5,191.5C 512.115,174.21 512.782,156.877 512.5,139.5 Z"/></g>
<g><path style="opacity:1" fill="#cfa268" d="M 237.5,320.5 C 246.409,320.574 252.909,324.574 257,332.5C 259.371,337.939 260.037,343.606 259,349.5C 257.666,353.104 255.166,354.271 251.5,353C 245.673,348.25 239.34,344.25 232.5,341C 223.424,331.639 225.091,324.805 237.5,320.5 Z"/></g>
<g><path style="opacity:1" fill="#cfa268" d="M 361.5,320.5 C 368.273,320.371 374.107,322.705 379,327.5C 380.368,333.269 378.534,337.769 373.5,341C 366.812,344.008 360.812,348.008 355.5,353C 350.957,354.615 348.124,353.115 347,348.5C 345.754,335.991 350.587,326.658 361.5,320.5 Z"/></g>
<g><path style="opacity:1" fill="#cb9f66" d="M 213.5,348.5 C 239.831,346.331 251.997,358.331 250,384.5C 243.746,399.377 232.579,406.21 216.5,405C 197.297,397.76 190.463,384.26 196,364.5C 200.153,357.174 205.986,351.84 213.5,348.5 Z"/></g>
<g><path style="opacity:1" fill="#cb9e65" d="M 381.5,347.5 C 396.885,347.733 407.052,355.066 412,369.5C 414.478,387.72 406.978,399.553 389.5,405C 372.375,406.355 361.209,398.855 356,382.5C 354.395,363.294 362.895,351.627 381.5,347.5 Z"/></g>
<g><path style="opacity:1" fill="#030201" d="M 219.5,356.5 C 239.211,358.596 245.711,368.929 239,387.5C 228.901,398.46 218.234,399.127 207,389.5C 199.615,377.595 201.449,367.428 212.5,359C 214.927,358.098 217.26,357.264 219.5,356.5 Z"/></g>
<g><path style="opacity:1" fill="#020201" d="M 381.5,356.5 C 394.94,356.612 402.274,363.279 403.5,376.5C 401.378,392.568 392.378,398.735 376.5,395C 364.127,387.543 361.294,377.376 368,364.5C 371.617,360.116 376.117,357.45 381.5,356.5 Z"/></g>
<g><path style="opacity:1" fill="#e7e7e7" d="M 225.5,362.5 C 236.1,363.254 238.1,367.754 231.5,376C 224,377.167 220.833,374 222,366.5C 222.69,364.65 223.856,363.316 225.5,362.5 Z"/></g>
<g><path style="opacity:1" fill="#e8e8e8" d="M 387.5,362.5 C 395.33,361.495 398.496,364.828 397,372.5C 392.205,378.089 387.872,377.756 384,371.5C 383.481,367.868 384.647,364.868 387.5,362.5 Z"/></g>
<g><path style="opacity:1" fill="#595553" d="M 167.5,382.5 C 170.367,382.369 172.033,383.703 172.5,386.5C 170.809,385.136 169.142,383.803 167.5,382.5 Z"/></g>
<g><path style="opacity:1" fill="#cfa267" d="M 167.5,382.5 C 169.142,383.803 170.809,385.136 172.5,386.5C 172.66,388.153 173.326,389.486 174.5,390.5C 174.926,394.902 176.26,398.902 178.5,402.5C 178.171,405.228 178.837,407.562 180.5,409.5C 182.244,415.863 184.077,422.197 186,428.5C 187.346,432.771 189.513,436.438 192.5,439.5C 195.643,445.424 200.643,448.924 207.5,450C 213.72,452.05 219.72,451.884 225.5,449.5C 229.57,449.568 233.237,448.568 236.5,446.5C 245.297,443.605 252.964,438.939 259.5,432.5C 263.1,430.57 266.1,427.903 268.5,424.5C 271.731,422.78 274.564,420.447 277,417.5C 277.483,418.448 277.649,419.448 277.5,420.5C 274.878,429.653 272.545,438.986 270.5,448.5C 266.595,458.216 263.261,468.216 260.5,478.5C 258.733,480.792 257.733,483.458 257.5,486.5C 256.262,488.214 255.595,490.214 255.5,492.5C 252.86,497.085 251.194,502.085 250.5,507.5C 247.936,512.422 246.603,517.755 246.5,523.5C 245.71,524.609 245.21,525.942 245,527.5C 244.501,531.821 244.334,536.154 244.5,540.5C 241.73,555.354 245.063,568.687 254.5,580.5C 239.235,572.403 227.402,560.736 219,545.5C 211,527.5 203,509.5 195,491.5C 183.872,475.027 173.539,458.027 164,440.5C 157.487,426.776 152.987,412.443 150.5,397.5C 151.736,395.351 152.736,393.018 153.5,390.5C 155.833,388.833 157.833,386.833 159.5,384.5C 162.006,383.25 164.673,382.584 167.5,382.5 Z"/></g>
<g><path style="opacity:1" fill="#cfa267" d="M 436.5,383.5 C 439.187,383.336 441.854,383.503 444.5,384C 447.665,386.335 450.665,388.835 453.5,391.5C 455.349,395.267 455.849,399.267 455,403.5C 451.034,420.727 444.701,437.061 436,452.5C 427,466.833 418,481.167 409,495.5C 401.916,513.083 394.249,530.416 386,547.5C 378.208,562.461 366.708,573.461 351.5,580.5C 359.85,570.641 363.85,559.141 363.5,546C 363.354,527.74 359.354,510.573 351.5,494.5C 351.737,493.209 351.404,492.209 350.5,491.5C 349.935,487.463 348.601,483.797 346.5,480.5C 345.935,476.463 344.601,472.797 342.5,469.5C 341.744,465.233 340.411,461.233 338.5,457.5C 336.495,449.149 334.329,440.816 332,432.5C 330.802,427.856 330.135,423.19 330,418.5C 335.059,423.067 340.226,427.401 345.5,431.5C 347.443,434.471 350.109,436.471 353.5,437.5C 359.985,442.742 367.318,446.409 375.5,448.5C 384.167,452.5 392.833,452.5 401.5,448.5C 407.588,447.408 411.921,444.075 414.5,438.5C 417.54,435.086 419.54,431.086 420.5,426.5C 422.42,422.74 423.753,418.74 424.5,414.5C 426.163,412.562 426.829,410.228 426.5,407.5C 427.434,406.432 427.768,405.099 427.5,403.5C 429.065,401.491 430.065,399.157 430.5,396.5C 430.5,395.5 430.5,394.5 430.5,393.5C 432.341,391.151 433.674,388.485 434.5,385.5C 435.5,385.167 436.167,384.5 436.5,383.5 Z"/></g>
<g><path style="opacity:1" fill="#635c55" d="M 436.5,383.5 C 444.458,380.976 450.125,383.643 453.5,391.5C 450.665,388.835 447.665,386.335 444.5,384C 441.854,383.503 439.187,383.336 436.5,383.5 Z"/></g>
<g><path style="opacity:1" fill="#5a5653" d="M 159.5,384.5 C 157.833,386.833 155.833,388.833 153.5,390.5C 154.5,387.5 156.5,385.5 159.5,384.5 Z"/></g>
<g><path style="opacity:1" fill="#5d5854" d="M 434.5,385.5 C 433.674,388.485 432.341,391.151 430.5,393.5C 430.794,390.246 432.127,387.579 434.5,385.5 Z"/></g>
<g><path style="opacity:1" fill="#595652" d="M 153.5,390.5 C 152.736,393.018 151.736,395.351 150.5,397.5C 150.166,394.509 151.166,392.176 153.5,390.5 Z"/></g>
<g><path style="opacity:1" fill="#726559" d="M 174.5,390.5 C 176.74,394.098 178.074,398.098 178.5,402.5C 176.26,398.902 174.926,394.902 174.5,390.5 Z"/></g>
<g><path style="opacity:1" fill="#7e6e5c" d="M 430.5,396.5 C 430.065,399.157 429.065,401.491 427.5,403.5C 427.179,400.423 428.179,398.09 430.5,396.5 Z"/></g>
<g><path style="opacity:1" fill="#716559" d="M 178.5,402.5 C 179.612,404.599 180.279,406.933 180.5,409.5C 178.837,407.562 178.171,405.228 178.5,402.5 Z"/></g>
<g><path style="opacity:1" fill="#7b6b5b" d="M 426.5,407.5 C 426.829,410.228 426.163,412.562 424.5,414.5C 424.41,411.848 425.076,409.515 426.5,407.5 Z"/></g>
<g><path style="opacity:1" fill="#73665a" d="M 277.5,420.5 C 277.649,419.448 277.483,418.448 277,417.5C 274.564,420.447 271.731,422.78 268.5,424.5C 270.994,420.662 274.327,417.995 278.5,416.5C 278.768,418.099 278.434,419.432 277.5,420.5 Z"/></g>
<g><path style="opacity:1" fill="#5b5753" d="M 268.5,424.5 C 266.1,427.903 263.1,430.57 259.5,432.5C 261.9,429.097 264.9,426.43 268.5,424.5 Z"/></g>
<g><path style="opacity:1" fill="#645c55" d="M 345.5,431.5 C 340.226,427.401 335.059,423.067 330,418.5C 330.135,423.19 330.802,427.856 332,432.5C 334.329,440.816 336.495,449.149 338.5,457.5C 333.358,444.717 330.024,431.384 328.5,417.5C 335.305,420.625 340.972,425.291 345.5,431.5 Z"/></g>
<g><path style="opacity:1" fill="#635c55" d="M 277.5,420.5 C 276.396,430.249 274.063,439.582 270.5,448.5C 272.545,438.986 274.878,429.653 277.5,420.5 Z"/></g>
<g><path style="opacity:1" fill="#585552" d="M 420.5,426.5 C 419.54,431.086 417.54,435.086 414.5,438.5C 415.992,434.182 417.992,430.182 420.5,426.5 Z"/></g>
<g><path style="opacity:1" fill="#5e5954" d="M 259.5,432.5 C 252.964,438.939 245.297,443.605 236.5,446.5C 244.325,442.088 251.992,437.421 259.5,432.5 Z"/></g>
<g><path style="opacity:1" fill="#595552" d="M 345.5,431.5 C 348.533,433.016 351.2,435.016 353.5,437.5C 350.109,436.471 347.443,434.471 345.5,431.5 Z"/></g>
<g><path style="opacity:1" fill="#595552" d="M 414.5,438.5 C 411.921,444.075 407.588,447.408 401.5,448.5C 406.379,445.964 410.713,442.63 414.5,438.5 Z"/></g>
<g><path style="opacity:1" fill="#696057" d="M 192.5,439.5 C 201.719,448.46 212.719,451.793 225.5,449.5C 219.72,451.884 213.72,452.05 207.5,450C 200.643,448.924 195.643,445.424 192.5,439.5 Z"/></g>
<g><path style="opacity:1" fill="#5f5954" d="M 270.5,448.5 C 268.14,458.914 264.806,468.914 260.5,478.5C 263.261,468.216 266.595,458.216 270.5,448.5 Z"/></g>
<g><path style="opacity:1" fill="#7a6b5c" d="M 375.5,448.5 C 379.84,449.056 384.173,449.723 388.5,450.5C 392.827,449.723 397.16,449.056 401.5,448.5C 392.833,452.5 384.167,452.5 375.5,448.5 Z"/></g>
<g><path style="opacity:1" fill="#615a54" d="M 342.5,469.5 C 344.601,472.797 345.935,476.463 346.5,480.5C 344.399,477.203 343.065,473.537 342.5,469.5 Z"/></g>
<g><path style="opacity:1" fill="#605954" d="M 260.5,478.5 C 260.267,481.542 259.267,484.208 257.5,486.5C 257.733,483.458 258.733,480.792 260.5,478.5 Z"/></g>
<g><path style="opacity:1" fill="#5f5954" d="M 346.5,480.5 C 348.601,483.797 349.935,487.463 350.5,491.5C 348.399,488.203 347.065,484.537 346.5,480.5 Z"/></g>
<g><path style="opacity:1" fill="#5f5954" d="M 255.5,492.5 C 254.405,497.784 252.739,502.784 250.5,507.5C 251.194,502.085 252.86,497.085 255.5,492.5 Z"/></g>
<g><path style="opacity:1" fill="#000000" d="M 292.5,506.5 C 304.487,505.646 316.154,507.146 327.5,511C 333.373,513.908 337.54,518.408 340,524.5C 345.719,545.218 339.219,560.718 320.5,571C 300.134,578.265 282.634,574.098 268,558.5C 264.275,551.324 261.775,543.824 260.5,536C 260.838,526.321 264.838,518.655 272.5,513C 278.979,509.888 285.645,507.722 292.5,506.5 Z"/></g>
<g><path style="opacity:1" fill="#615b55" d="M 250.5,507.5 C 249.455,513.014 248.122,518.347 246.5,523.5C 246.603,517.755 247.936,512.422 250.5,507.5 Z"/></g>
<g><path style="opacity:1" fill="#675e56" d="M 246.5,523.5 C 246.184,529.349 245.518,535.016 244.5,540.5C 244.334,536.154 244.501,531.821 245,527.5C 245.21,525.942 245.71,524.609 246.5,523.5 Z"/></g>
<g><path style="opacity:1" fill="#6b6257" d="M 244.5,540.5 C 242.639,555.752 246.639,569.085 256.5,580.5C 255.743,581.773 255.077,581.773 254.5,580.5C 245.063,568.687 241.73,555.354 244.5,540.5 Z"/></g>
<g><path style="opacity:1" fill="#696056" d="M 351.5,494.5 C 359.354,510.573 363.354,527.74 363.5,546C 363.85,559.141 359.85,570.641 351.5,580.5C 351.44,581.043 351.107,581.376 350.5,581.5C 349.479,580.998 349.312,580.332 350,579.5C 358.65,570.109 362.816,558.943 362.5,546C 361.893,536.76 360.726,527.593 359,518.5C 355.89,510.736 353.39,502.736 351.5,494.5 Z"/></g>
</svg>
