<?xml version="1.0" encoding="UTF-8"?>
<!DOCTYPE svg PUBLIC "-//W3C//DTD SVG 1.1//EN" "http://www.w3.org/Graphics/SVG/1.1/DTD/svg11.dtd">
<svg xmlns="http://www.w3.org/2000/svg" version="1.1" width="600px" height="600px" style="shape-rendering:geometricPrecision; text-rendering:geometricPrecision; image-rendering:optimizeQuality; fill-rule:evenodd; clip-rule:evenodd" xmlns:xlink="http://www.w3.org/1999/xlink">
<g><path style="opacity:0.979" fill="#030302" d="M 599.5,127.5 C 599.5,148.167 599.5,168.833 599.5,189.5C 590.666,227.178 575.166,261.844 553,293.5C 540.51,310.657 523.676,317.824 502.5,315C 486.418,311.705 471.585,305.538 458,296.5C 453.62,306.967 449.62,317.634 446,328.5C 444.367,338.488 443.867,348.488 444.5,358.5C 450.472,361.306 454.972,365.639 458,371.5C 459.166,376.496 458,380.829 454.5,384.5C 458.906,390.54 462.073,397.206 464,404.5C 465.661,411.35 463.827,417.017 458.5,421.5C 470.012,444.263 473.846,468.263 470,493.5C 468.697,503.799 463.03,509.799 453,511.5C 449.769,511.111 446.769,510.111 444,508.5C 434.754,532.171 421.587,553.338 404.5,572C 400.387,574.391 396.054,576.224 391.5,577.5C 387.695,577.015 384.529,575.348 382,572.5C 379.679,564.237 377.679,555.904 376,547.5C 367.976,552.595 359.476,556.762 350.5,560C 333.901,564.904 316.901,569.404 299.5,573.5C 277.895,569.014 256.895,562.514 236.5,554C 231.256,551.797 226.422,548.964 222,545.5C 220.882,552.875 219.549,560.209 218,567.5C 216.832,573.165 213.332,576.165 207.5,576.5C 197.51,573.347 189.677,567.347 184,558.5C 174.994,545.83 166.994,532.496 160,518.5C 158.36,514.608 157.027,510.608 156,506.5C 146.698,512.739 139.031,511.072 133,501.5C 128.235,487.121 127.235,472.454 130,457.5C 132.26,445.126 135.76,433.126 140.5,421.5C 133.984,414.729 132.818,407.062 137,398.5C 139.246,393.674 141.746,389.008 144.5,384.5C 139.48,378.595 139.314,372.595 144,366.5C 147.23,363.469 150.73,360.803 154.5,358.5C 155.285,350.18 155.118,341.847 154,333.5C 149.985,321.103 145.818,308.769 141.5,296.5C 122.82,309.45 102.153,315.617 79.5,315C 63.7673,311.6 51.6006,303.1 43,289.5C 22.4672,258.434 7.96718,224.767 -0.5,188.5C -0.5,168.5 -0.5,148.5 -0.5,128.5C 8.97686,111.524 22.3102,98.357 39.5,89C 67.2911,75.271 94.9578,61.271 122.5,47C 143.152,37.1737 164.152,28.1737 185.5,20C 201.358,14.161 217.692,11.161 234.5,11C 247.805,12.8044 255.805,20.3044 258.5,33.5C 285.834,30.8334 313.167,30.8334 340.5,33.5C 343.168,20.3325 351.168,12.8325 364.5,11C 383.154,11.1976 401.154,14.8643 418.5,22C 436.746,29.0821 454.746,36.7488 472.5,45C 501.376,59.9377 530.376,74.6044 559.5,89C 576.307,98.3089 589.641,111.142 599.5,127.5 Z"/></g>
<g><path style="opacity:1" fill="#7b7b7b" d="M 241.5,42.5 C 236.254,45.4108 231.587,49.0775 227.5,53.5C 220.396,57.9363 215.063,63.9363 211.5,71.5C 204.348,80.8011 199.015,91.1344 195.5,102.5C 191.924,110.459 189.424,118.793 188,127.5C 186.646,136.309 185.48,145.142 184.5,154C 184.508,155.707 184.842,157.207 185.5,158.5C 168.005,161.053 151.339,166.553 135.5,175C 132.032,177.289 130.032,180.456 129.5,184.5C 130.328,189.155 133.162,191.488 138,191.5C 146.805,189.539 155.638,187.706 164.5,186C 167.5,185.333 170.5,185.333 173.5,186C 164.917,192.164 159.917,200.497 158.5,211C 159.038,214.205 160.872,216.039 164,216.5C 166.903,216.089 169.569,215.089 172,213.5C 171.488,217.207 170.488,220.874 169,224.5C 168.333,228.5 168.333,232.5 169,236.5C 170.076,239.079 171.909,240.746 174.5,241.5C 170.678,249.144 166.845,256.811 163,264.5C 158.851,268.804 155.184,273.47 152,278.5C 151.147,276.397 149.98,276.397 148.5,278.5C 132.531,292.003 114.198,300.836 93.5,305C 79.9059,306.692 68.5726,302.525 59.5,292.5C 63.8958,276.849 59.8958,263.683 47.5,253C 42.6972,249.192 37.6972,248.692 32.5,251.5C 17.2804,219.674 8.28042,186.174 5.5,151C 5.43126,146.415 5.93126,141.915 7,137.5C 12.6672,125.336 20.8339,115.169 31.5,107C 39.8322,101.165 48.4988,95.8318 57.5,91C 77.6495,81.4251 97.6495,71.5918 117.5,61.5C 121.111,63.6437 124.778,65.8104 128.5,68C 133.589,68.8257 138.589,68.4924 143.5,67C 149.17,64.1672 154.503,60.8339 159.5,57C 173.956,50.2721 188.289,43.2721 202.5,36C 205.939,33.8614 209.106,31.3614 212,28.5C 213.009,26.9751 213.509,25.3084 213.5,23.5C 214.791,23.7373 215.791,23.404 216.5,22.5C 223.45,21.4069 230.45,21.2402 237.5,22C 247.813,27.0406 249.146,33.8739 241.5,42.5 Z"/></g>
<g><path style="opacity:1" fill="#7b7b7b" d="M 434.5,39.5 C 428.435,41.1359 422.435,43.3026 416.5,46C 413.278,47.9904 412.778,50.4904 415,53.5C 419.237,57.0357 423.737,60.2024 428.5,63C 444.715,69.4398 460.049,77.4398 474.5,87C 479.734,87.9771 484.734,87.3104 489.5,85C 494.362,81.3028 498.696,77.1361 502.5,72.5C 524.852,81.8414 546.185,93.0081 566.5,106C 578,114.157 586.5,124.657 592,137.5C 593.94,151.178 593.606,164.844 591,178.5C 585.788,201.97 578.288,224.637 568.5,246.5C 567.781,244.909 566.781,243.409 565.5,242C 562.833,241.333 560.167,241.333 557.5,242C 542.352,252.741 539.019,266.241 547.5,282.5C 536.803,301.346 520.803,308.513 499.5,304C 482.049,298.944 466.383,290.777 452.5,279.5C 445.541,271.371 438.374,263.371 431,255.5C 428.018,251.202 425.851,246.536 424.5,241.5C 425.609,240.71 426.942,240.21 428.5,240C 430.913,231.989 430.58,223.989 427.5,216C 427.833,215.5 428.167,215 428.5,214.5C 435.009,218.224 439.009,216.558 440.5,209.5C 438.907,199.081 433.574,191.248 424.5,186C 427.833,185.333 431.167,185.333 434.5,186C 443.684,187.754 452.851,189.588 462,191.5C 468.354,190.467 470.688,186.8 469,180.5C 466.833,178.333 464.667,176.167 462.5,174C 447.224,166.174 431.224,161.007 414.5,158.5C 414.131,148.085 412.965,137.752 411,127.5C 410.617,126.944 410.117,126.611 409.5,126.5C 409.982,125.584 410.315,124.584 410.5,123.5C 408.612,116.669 406.612,110.002 404.5,103.5C 399.592,88.3465 392.092,74.6798 382,62.5C 378.239,58.23 374.072,54.5633 369.5,51.5C 367.2,49.016 364.533,47.016 361.5,45.5C 358.471,42.141 355.471,38.8076 352.5,35.5C 353.431,24.6697 359.431,20.003 370.5,21.5C 392.779,24.0703 414.112,30.0703 434.5,39.5 Z"/></g>
<g><path style="opacity:1" fill="#5a5a5a" d="M 216.5,22.5 C 215.791,23.404 214.791,23.7373 213.5,23.5C 213.509,25.3084 213.009,26.9751 212,28.5C 209.106,31.3614 205.939,33.8614 202.5,36C 188.289,43.2721 173.956,50.2721 159.5,57C 154.503,60.8339 149.17,64.1672 143.5,67C 138.589,68.4924 133.589,68.8257 128.5,68C 124.778,65.8104 121.111,63.6437 117.5,61.5C 143.119,47.7859 169.786,36.2859 197.5,27C 203.735,25.0244 210.068,23.5244 216.5,22.5 Z"/></g>
<g><path style="opacity:1" fill="#3b3b3b" d="M 352.5,35.5 C 355.471,38.8076 358.471,42.141 361.5,45.5C 357.069,43.4047 354.069,40.0714 352.5,35.5 Z"/></g>
<g><path style="opacity:1" fill="#5c5c5c" d="M 434.5,39.5 C 457.794,49.3663 480.461,60.3663 502.5,72.5C 498.696,77.1361 494.362,81.3028 489.5,85C 484.734,87.3104 479.734,87.9771 474.5,87C 460.049,77.4398 444.715,69.4398 428.5,63C 423.737,60.2024 419.237,57.0357 415,53.5C 412.778,50.4904 413.278,47.9904 416.5,46C 422.435,43.3026 428.435,41.1359 434.5,39.5 Z"/></g>
<g><path style="opacity:1" fill="#bebebe" d="M 308.5,42.5 C 317.289,51.747 322.623,62.747 324.5,75.5C 321.534,93.9602 311.201,100.127 293.5,94C 291,91.5 288.5,89 286,86.5C 277.371,72.0592 268.204,58.0592 258.5,44.5C 275.11,42.7872 291.776,42.1205 308.5,42.5 Z"/></g>
<g><path style="opacity:1" fill="#585858" d="M 308.5,42.5 C 321.273,42.672 333.939,43.8387 346.5,46C 351.761,51.9532 357.761,56.9532 364.5,61C 367.777,63.7663 370.443,66.933 372.5,70.5C 370.203,68.7059 368.037,66.7059 366,64.5C 357.646,74.751 357.479,85.251 365.5,96C 373.51,101.675 382.177,103.508 391.5,101.5C 394.096,107.86 396.096,114.526 397.5,121.5C 394.158,130.702 392.158,140.202 391.5,150C 391.565,152.225 391.898,154.392 392.5,156.5C 389.232,157.487 385.898,157.82 382.5,157.5C 383.749,151.924 381.583,149.257 376,149.5C 367.365,150.4 359.532,153.4 352.5,158.5C 351.189,152.357 347.523,150.191 341.5,152C 333.881,156.564 327.381,162.397 322,169.5C 318.394,178.383 318.727,187.049 323,195.5C 324.371,197.041 325.871,198.375 327.5,199.5C 326.149,231.104 333.982,260.104 351,286.5C 361.268,300.045 371.768,313.379 382.5,326.5C 357.453,327.755 339.953,339.755 330,362.5C 328.985,366.44 328.485,370.44 328.5,374.5C 309.82,369.232 291.153,369.232 272.5,374.5C 271.299,362.938 266.965,352.771 259.5,344C 247.241,334.039 233.241,328.205 217.5,326.5C 219.14,323.851 220.807,321.184 222.5,318.5C 238.57,301.242 251.737,281.909 262,260.5C 269.279,240.824 272.446,220.491 271.5,199.5C 279.355,193.773 282.189,186.107 280,176.5C 275.304,165.802 267.804,157.635 257.5,152C 251.416,150.094 247.916,152.26 247,158.5C 239.967,153.885 232.467,150.885 224.5,149.5C 226.167,149.5 227.833,149.5 229.5,149.5C 233.973,136.96 234.473,124.294 231,111.5C 226.382,103.039 219.549,97.3728 210.5,94.5C 215.326,84.847 221.16,75.847 228,67.5C 236.5,60.3333 245,53.1667 253.5,46C 255.247,45.6481 256.914,45.1481 258.5,44.5C 268.204,58.0592 277.371,72.0592 286,86.5C 288.5,89 291,91.5 293.5,94C 311.201,100.127 321.534,93.9602 324.5,75.5C 322.623,62.747 317.289,51.747 308.5,42.5 Z"/></g>
<g><path style="opacity:1" fill="#383838" d="M 241.5,42.5 C 237.413,46.9225 232.746,50.5892 227.5,53.5C 231.587,49.0775 236.254,45.4108 241.5,42.5 Z"/></g>
<g><path style="opacity:1" fill="#706f6f" d="M 372.5,70.5 C 380.606,79.7044 386.939,90.0377 391.5,101.5C 382.177,103.508 373.51,101.675 365.5,96C 357.479,85.251 357.646,74.751 366,64.5C 368.037,66.7059 370.203,68.7059 372.5,70.5 Z"/></g>
<g><path style="opacity:1" fill="#383838" d="M 227.5,53.5 C 221.767,59.2282 216.433,65.2282 211.5,71.5C 215.063,63.9363 220.396,57.9363 227.5,53.5 Z"/></g>
<g><path style="opacity:1" fill="#3a3a3a" d="M 369.5,51.5 C 374.072,54.5633 378.239,58.23 382,62.5C 392.092,74.6798 399.592,88.3465 404.5,103.5C 404.167,103.5 403.833,103.5 403.5,103.5C 396.554,83.2356 385.221,65.9023 369.5,51.5 Z"/></g>
<g><path style="opacity:1" fill="#5c5c5c" d="M 134.5,90.5 C 139.989,90.504 141.822,93.1707 140,98.5C 135.252,101.791 130.419,104.958 125.5,108C 121.639,110.633 119.306,109.8 118.5,105.5C 118.622,103.209 119.455,101.209 121,99.5C 124.882,95.4293 129.382,92.4293 134.5,90.5 Z"/></g>
<g><path style="opacity:1" fill="#383838" d="M 211.5,71.5 C 205.715,81.4049 200.715,91.7382 196.5,102.5C 196.167,102.5 195.833,102.5 195.5,102.5C 199.015,91.1344 204.348,80.8011 211.5,71.5 Z"/></g>
<g><path style="opacity:1" fill="#c6c6c6" d="M 210.5,94.5 C 219.549,97.3728 226.382,103.039 231,111.5C 234.473,124.294 233.973,136.96 229.5,149.5C 227.833,149.5 226.167,149.5 224.5,149.5C 218.167,148.5 215.5,151.167 216.5,157.5C 209.5,157.5 202.5,157.5 195.5,157.5C 196.31,135.439 201.31,114.439 210.5,94.5 Z"/></g>
<g><path style="opacity:1" fill="#5c5c5c" d="M 61.5,101.5 C 64.1873,101.336 66.854,101.503 69.5,102C 71.3602,106.151 70.3602,109.484 66.5,112C 61.5076,114.161 56.8409,116.828 52.5,120C 49.5218,120.86 48.1884,119.693 48.5,116.5C 49.0689,112.762 50.7355,109.595 53.5,107C 56.4068,105.391 59.0734,103.558 61.5,101.5 Z"/></g>
<g><path style="opacity:1" fill="#5a5a5a" d="M 403.5,103.5 C 403.833,103.5 404.167,103.5 404.5,103.5C 406.612,110.002 408.612,116.669 410.5,123.5C 410.315,124.584 409.982,125.584 409.5,126.5C 403.413,136.365 402.079,146.698 405.5,157.5C 404.5,157.5 403.5,157.5 402.5,157.5C 400.874,145.555 402.874,134.221 408.5,123.5C 406.826,116.815 405.159,110.148 403.5,103.5 Z"/></g>
<g><path style="opacity:1" fill="#5d5d5d" d="M 476.5,106.5 C 484.211,106.604 490.044,109.937 494,116.5C 494.667,118.167 494.667,119.833 494,121.5C 492.951,122.517 491.784,122.684 490.5,122C 485.239,119.455 480.406,116.288 476,112.5C 475.322,110.402 475.489,108.402 476.5,106.5 Z"/></g>
<g><path style="opacity:1" fill="#5e5e5e" d="M 535.5,115.5 C 546.982,114.993 552.982,120.327 553.5,131.5C 547.619,129.226 541.952,126.393 536.5,123C 534.453,120.67 534.12,118.17 535.5,115.5 Z"/></g>
<g><path style="opacity:1" fill="#979797" d="M 409.5,126.5 C 410.117,126.611 410.617,126.944 411,127.5C 412.965,137.752 414.131,148.085 414.5,158.5C 411.43,158.632 408.43,158.299 405.5,157.5C 402.079,146.698 403.413,136.365 409.5,126.5 Z"/></g>
<g><path style="opacity:1" fill="#6f6e6e" d="M 355.5,128.5 C 359.683,128.35 362.016,130.35 362.5,134.5C 362.156,139.323 359.989,142.99 356,145.5C 353.09,143.738 351.924,141.071 352.5,137.5C 352.667,135.833 352.833,134.167 353,132.5C 354.095,131.307 354.928,129.973 355.5,128.5 Z"/></g>
<g><path style="opacity:1" fill="#a1a1a1" d="M 195.5,102.5 C 195.833,102.5 196.167,102.5 196.5,102.5C 190.062,120.535 186.395,139.202 185.5,158.5C 184.842,157.207 184.508,155.707 184.5,154C 185.48,145.142 186.646,136.309 188,127.5C 189.424,118.793 191.924,110.459 195.5,102.5 Z"/></g>
<g><path style="opacity:1" fill="#ab8757" d="M 247.5,164.5 C 253.07,167.604 254.737,165.938 252.5,159.5C 252.556,158.263 253.056,157.263 254,156.5C 261.606,160.942 268.106,166.609 273.5,173.5C 277.392,186.222 273.059,194.389 260.5,198C 254.843,198.499 249.176,198.666 243.5,198.5C 236.345,197.345 229.012,197.178 221.5,198C 216.757,198.635 212.424,200.135 208.5,202.5C 200.127,205.696 192.96,210.696 187,217.5C 182.605,223.566 178.605,229.9 175,236.5C 173.843,224.799 176.677,214.132 183.5,204.5C 183.167,204.167 182.833,203.833 182.5,203.5C 179.984,204.33 177.65,205.33 175.5,206.5C 171.973,207.26 168.64,208.594 165.5,210.5C 164.548,208.955 164.215,207.288 164.5,205.5C 166.528,201.297 169.195,197.464 172.5,194C 177.422,190.622 182.255,187.122 187,183.5C 187.49,182.207 187.657,180.873 187.5,179.5C 186.5,179.5 185.5,179.5 184.5,179.5C 176.929,179.157 169.596,179.823 162.5,181.5C 160.379,181.325 158.379,181.659 156.5,182.5C 150.484,182.833 144.817,184.166 139.5,186.5C 135.5,187.167 133.833,185.5 134.5,181.5C 137.733,180.271 140.733,178.604 143.5,176.5C 147.582,175.624 151.249,173.957 154.5,171.5C 177.169,163.568 200.502,160.568 224.5,162.5C 223.5,159.833 222.5,157.167 221.5,154.5C 224.166,154.933 226.832,155.433 229.5,156C 235.37,159.102 241.37,161.935 247.5,164.5 Z"/></g>
<g><path style="opacity:1" fill="#ab8657" d="M 372.5,154.5 C 374.167,154.5 375.833,154.5 377.5,154.5C 376.5,157.167 375.5,159.833 374.5,162.5C 406.117,159.464 435.617,165.798 463,181.5C 465.352,184.116 464.852,185.783 461.5,186.5C 445.291,181.284 428.791,179.284 412,180.5C 412.893,183.436 414.726,185.936 417.5,188C 427.17,192.336 433.17,199.67 435.5,210C 435.167,210.5 434.833,211 434.5,211.5C 429.092,207.253 423.092,205.253 416.5,205.5C 422.547,214.971 425.547,225.304 425.5,236.5C 424.5,236.5 423.5,236.5 422.5,236.5C 414.827,215.341 399.827,202.508 377.5,198C 364.162,197.826 350.829,197.826 337.5,198C 326.772,194.716 322.605,187.549 325,176.5C 329.667,167.833 336.333,161.167 345,156.5C 345.944,157.263 346.444,158.263 346.5,159.5C 345.669,161.473 345.502,163.473 346,165.5C 346.561,166.022 347.228,166.355 348,166.5C 356.351,162.574 364.517,158.574 372.5,154.5 Z"/></g>
<g><path style="opacity:1" fill="#2a2928" d="M 273.5,173.5 C 268.106,166.609 261.606,160.942 254,156.5C 253.056,157.263 252.556,158.263 252.5,159.5C 254.737,165.938 253.07,167.604 247.5,164.5C 249.201,164.966 250.701,164.966 252,164.5C 251.578,161.902 251.578,159.236 252,156.5C 253.049,155.483 254.216,155.316 255.5,156C 261.459,159.902 266.959,164.402 272,169.5C 272.791,170.745 273.291,172.078 273.5,173.5 Z"/></g>
<g><path style="opacity:1" fill="#5c5c5c" d="M 122.5,166.5 C 127.173,165.98 129.507,167.98 129.5,172.5C 129.485,174.634 128.985,176.634 128,178.5C 122.987,186.788 119.82,186.454 118.5,177.5C 117.891,173.065 119.224,169.398 122.5,166.5 Z"/></g>
<g><path style="opacity:1" fill="#5e5e5e" d="M 487.5,170.5 C 490.808,169.974 492.974,171.307 494,174.5C 494.789,178.091 494.622,181.591 493.5,185C 492.167,185.667 490.833,185.667 489.5,185C 486.131,181.443 484.631,177.276 485,172.5C 485.995,171.934 486.828,171.267 487.5,170.5 Z"/></g>
<g><path style="opacity:1" fill="#3c3a38" d="M 154.5,171.5 C 151.249,173.957 147.582,175.624 143.5,176.5C 146.751,174.043 150.418,172.376 154.5,171.5 Z"/></g>
<g><path style="opacity:1" fill="#5c5c5c" d="M 61.5,176.5 C 76.5963,174.266 83.0963,180.599 81,195.5C 79.4703,200.892 77.137,205.892 74,210.5C 67.715,217.573 61.5484,224.74 55.5,232C 51.7399,233.176 48.9066,232.01 47,228.5C 41.4745,217.831 39.4745,206.497 41,194.5C 45.2317,185.429 52.065,179.429 61.5,176.5 Z"/></g>
<g><path style="opacity:1" fill="#5d5d5d" d="M 532.5,178.5 C 557.531,180.544 566.031,193.544 558,217.5C 556.789,220.759 554.956,223.592 552.5,226C 548.74,227.176 545.907,226.01 544,222.5C 538.177,215.521 532.844,208.188 528,200.5C 523.342,191.623 524.842,184.29 532.5,178.5 Z"/></g>
<g><path style="opacity:1" fill="#4c4741" d="M 184.5,179.5 C 177.347,180.538 170.014,181.204 162.5,181.5C 169.596,179.823 176.929,179.157 184.5,179.5 Z"/></g>
<g><path style="opacity:1" fill="#413e3b" d="M 156.5,182.5 C 151.064,184.324 145.397,185.658 139.5,186.5C 144.817,184.166 150.484,182.833 156.5,182.5 Z"/></g>
<g><path style="opacity:1" fill="#3e3124" d="M 243.5,198.5 C 231.54,197.622 219.873,198.956 208.5,202.5C 212.424,200.135 216.757,198.635 221.5,198C 229.012,197.178 236.345,197.345 243.5,198.5 Z"/></g>
<g><path style="opacity:1" fill="#4c4b4b" d="M 327.5,199.5 C 334.707,203.046 342.373,204.379 350.5,203.5C 341.165,215.957 339.998,229.291 347,243.5C 355.415,255.695 366.915,260.362 381.5,257.5C 380.697,258.423 380.53,259.423 381,260.5C 399.326,283.169 417.159,306.169 434.5,329.5C 434.328,333.534 433.828,337.534 433,341.5C 426.931,335.714 419.764,331.881 411.5,330C 401.996,327.476 392.329,326.309 382.5,326.5C 371.768,313.379 361.268,300.045 351,286.5C 333.982,260.104 326.149,231.104 327.5,199.5 Z"/></g>
<g><path style="opacity:1" fill="#484646" d="M 271.5,199.5 C 272.446,220.491 269.279,240.824 262,260.5C 251.737,281.909 238.57,301.242 222.5,318.5C 212.19,302.562 202.356,286.229 193,269.5C 187.967,276.742 182.134,283.242 175.5,289C 169.722,293.01 163.388,294.344 156.5,293C 155.069,292.535 153.903,291.701 153,290.5C 152.536,291.094 152.369,291.761 152.5,292.5C 151.596,291.791 151.263,290.791 151.5,289.5C 153.854,289.162 156.187,288.662 158.5,288C 164,281.167 169.5,274.333 175,267.5C 180.955,258.251 185.289,248.251 188,237.5C 188.186,233.484 188.186,229.484 188,225.5C 189.517,223.76 191.017,222.094 192.5,220.5C 192.334,224.846 192.501,229.179 193,233.5C 196.497,239.159 199.997,244.826 203.5,250.5C 216.713,260.653 230.379,261.153 244.5,252C 260.22,236.973 261.553,220.807 248.5,203.5C 256.663,204.38 264.329,203.047 271.5,199.5 Z"/></g>
<g><path style="opacity:1" fill="#634e39" d="M 248.5,203.5 C 261.553,220.807 260.22,236.973 244.5,252C 230.379,261.153 216.713,260.653 203.5,250.5C 199.997,244.826 196.497,239.159 193,233.5C 192.501,229.179 192.334,224.846 192.5,220.5C 195.197,216.803 198.531,213.803 202.5,211.5C 207.665,207.942 213.332,205.442 219.5,204C 229.161,203.5 238.828,203.334 248.5,203.5 Z"/></g>
<g><path style="opacity:1" fill="#634e39" d="M 350.5,203.5 C 360.172,203.334 369.839,203.5 379.5,204C 390.459,206.492 399.459,211.992 406.5,220.5C 407.952,239.676 399.619,252.009 381.5,257.5C 366.915,260.362 355.415,255.695 347,243.5C 339.998,229.291 341.165,215.957 350.5,203.5 Z"/></g>
<g><path style="opacity:1" fill="#010100" d="M 219.5,205.5 C 238.013,205.178 246.18,214.178 244,232.5C 238.435,245.284 228.935,249.45 215.5,245C 203.839,237.387 201.006,227.22 207,214.5C 210.299,210.118 214.466,207.118 219.5,205.5 Z"/></g>
<g><path style="opacity:1" fill="#010100" d="M 369.5,205.5 C 387.48,204.979 395.647,213.646 394,231.5C 389.647,243.431 381.147,248.264 368.5,246C 355.504,240.637 351.004,231.137 355,217.5C 358.399,211.724 363.232,207.724 369.5,205.5 Z"/></g>
<g><path style="opacity:1" fill="#413e3b" d="M 164.5,205.5 C 164.215,207.288 164.548,208.955 165.5,210.5C 168.64,208.594 171.973,207.26 175.5,206.5C 172.001,209.246 168.001,210.913 163.5,211.5C 163.205,209.265 163.539,207.265 164.5,205.5 Z"/></g>
<g><path style="opacity:1" fill="#e4e4e4" d="M 216.5,211.5 C 222.82,211.32 225.32,214.32 224,220.5C 220.667,224.5 217.333,224.5 214,220.5C 212.927,216.9 213.76,213.9 216.5,211.5 Z"/></g>
<g><path style="opacity:1" fill="#e0e0e0" d="M 366.5,211.5 C 372.326,211.157 374.826,213.824 374,219.5C 370.383,224.815 366.717,224.815 363,219.5C 362.52,216.137 363.687,213.47 366.5,211.5 Z"/></g>
<g><path style="opacity:1" fill="#5d5d5d" d="M 520.5,220.5 C 523.48,220.241 525.313,221.574 526,224.5C 525.002,238.451 524.502,252.451 524.5,266.5C 518.226,265.056 514.392,261.056 513,254.5C 512.111,242.355 514.611,231.021 520.5,220.5 Z"/></g>
<g><path style="opacity:1" fill="#474646" d="M 406.5,220.5 C 408.796,222.401 410.629,224.734 412,227.5C 411.755,231.813 411.755,236.147 412,240.5C 414.055,247.365 416.722,254.031 420,260.5C 428.825,271.158 438.325,281.158 448.5,290.5C 443.977,303.618 439.31,316.618 434.5,329.5C 417.159,306.169 399.326,283.169 381,260.5C 380.53,259.423 380.697,258.423 381.5,257.5C 399.619,252.009 407.952,239.676 406.5,220.5 Z"/></g>
<g><path style="opacity:1" fill="#5c5c5c" d="M 83.5,225.5 C 85.7224,225.178 87.5557,225.845 89,227.5C 97.1119,242.357 98.4452,257.691 93,273.5C 90.6178,276.219 87.9512,278.553 85,280.5C 83.2655,279.534 82.4322,278.034 82.5,276C 83.0728,272.192 83.4061,268.359 83.5,264.5C 82.9215,255.284 81.9215,246.118 80.5,237C 80.1139,232.762 81.1139,228.929 83.5,225.5 Z"/></g>
<g><path style="opacity:1" fill="#5d5d5d" d="M 475.5,233.5 C 478.808,232.974 480.974,234.307 482,237.5C 482.789,241.091 482.622,244.591 481.5,248C 478.482,248.573 476.315,247.406 475,244.5C 472.962,240.58 473.129,236.913 475.5,233.5 Z"/></g>
<g><path style="opacity:1" fill="#5c5c5c" d="M 136.5,240.5 C 140.865,239.993 143.198,241.826 143.5,246C 143.449,251.954 140.783,256.121 135.5,258.5C 134.558,258.392 133.725,258.059 133,257.5C 131.487,251.13 132.653,245.464 136.5,240.5 Z"/></g>
<g><path style="opacity:1" fill="#5c5c5c" d="M 568.5,246.5 C 563.011,259.493 556.011,271.493 547.5,282.5C 539.019,266.241 542.352,252.741 557.5,242C 560.167,241.333 562.833,241.333 565.5,242C 566.781,243.409 567.781,244.909 568.5,246.5 Z"/></g>
<g><path style="opacity:1" fill="#5b5b5b" d="M 59.5,292.5 C 48.7738,280.069 39.7738,266.403 32.5,251.5C 37.6972,248.692 42.6972,249.192 47.5,253C 59.8958,263.683 63.8958,276.849 59.5,292.5 Z"/></g>
<g><path style="opacity:1" fill="#474646" d="M 424.5,241.5 C 425.851,246.536 428.018,251.202 431,255.5C 438.374,263.371 445.541,271.371 452.5,279.5C 448.933,277.443 445.766,274.777 443,271.5C 438.333,266.167 433.667,260.833 429,255.5C 426.754,251.509 424.921,247.343 423.5,243C 423.57,242.235 423.903,241.735 424.5,241.5 Z"/></g>
<g><path style="opacity:1" fill="#484747" d="M 174.5,241.5 C 175.239,241.369 175.906,241.536 176.5,242C 170.758,255.418 163.091,267.584 153.5,278.5C 152.349,279.731 151.183,279.731 150,278.5C 149.221,281.097 148.721,281.097 148.5,278.5C 149.98,276.397 151.147,276.397 152,278.5C 155.184,273.47 158.851,268.804 163,264.5C 166.845,256.811 170.678,249.144 174.5,241.5 Z"/></g>
<g><path style="opacity:1" fill="#4c4b4b" d="M 222.5,318.5 C 220.807,321.184 219.14,323.851 217.5,326.5C 200.744,325.216 185.078,328.716 170.5,337C 169,338.5 167.5,340 166,341.5C 161.801,325.073 157.301,308.739 152.5,292.5C 152.369,291.761 152.536,291.094 153,290.5C 153.903,291.701 155.069,292.535 156.5,293C 163.388,294.344 169.722,293.01 175.5,289C 182.134,283.242 187.967,276.742 193,269.5C 202.356,286.229 212.19,302.562 222.5,318.5 Z"/></g>
<g><path style="opacity:1" fill="#6e6d6d" d="M 217.5,271.5 C 222.07,271.238 224.07,273.404 223.5,278C 223.201,282.428 221.201,285.928 217.5,288.5C 212.254,282.918 212.254,277.251 217.5,271.5 Z"/></g>
<g><path style="opacity:1" fill="#ac8756" d="M 202.5,337.5 C 218.034,336.005 232.368,339.338 245.5,347.5C 247.257,350.423 249.757,352.423 253,353.5C 259.299,361.493 261.466,370.493 259.5,380.5C 248.523,393.595 245.523,408.428 250.5,425C 252.221,429.618 254.554,433.784 257.5,437.5C 260.5,442.5 264.5,446.5 269.5,449.5C 275.364,453.6 281.697,456.933 288.5,459.5C 288.611,460.117 288.944,460.617 289.5,461C 296.167,463 302.833,463 309.5,461C 311.32,460.8 312.653,459.966 313.5,458.5C 314.93,457.463 316.597,456.796 318.5,456.5C 324.424,454.427 329.757,451.26 334.5,447C 338.95,443.242 342.283,438.742 344.5,433.5C 350.587,422.129 352.421,410.129 350,397.5C 346.196,390.888 342.696,384.221 339.5,377.5C 340.085,372.485 340.752,367.485 341.5,362.5C 342.674,361.486 343.34,360.153 343.5,358.5C 346.805,354.859 350.138,351.192 353.5,347.5C 357.399,345.614 361.066,343.281 364.5,340.5C 366.795,339.568 369.129,338.735 371.5,338C 385.754,336.628 399.754,337.795 413.5,341.5C 417.807,343.657 421.807,346.324 425.5,349.5C 420.155,351.099 414.488,352.265 408.5,353C 411.605,354.868 414.938,356.035 418.5,356.5C 425.898,360.035 433.231,363.868 440.5,368C 451.573,375.045 450.24,377.545 436.5,375.5C 441.04,383.237 445.874,390.904 451,398.5C 453.09,402.599 454.256,406.933 454.5,411.5C 450.286,410.242 445.953,409.242 441.5,408.5C 449.394,423.676 455.227,439.676 459,456.5C 460.918,468.847 460.918,481.18 459,493.5C 456.131,501.943 452.131,502.609 447,495.5C 444.667,490.167 442.333,484.833 440,479.5C 439,478.833 438,478.167 437,477.5C 437.448,492.259 434.448,506.259 428,519.5C 419.732,535.094 409.898,549.594 398.5,563C 396.167,564.167 393.833,565.333 391.5,566.5C 389.344,554.718 386.677,543.052 383.5,531.5C 382.264,530.643 380.931,529.977 379.5,529.5C 373.321,536.937 365.654,542.437 356.5,546C 337.786,553.128 318.619,558.628 299,562.5C 276.935,558.479 255.769,551.645 235.5,542C 230.008,538.927 225.341,534.927 221.5,530C 217.834,528.729 215.334,529.896 214,533.5C 211.625,544.082 209.792,554.748 208.5,565.5C 204.419,564.6 200.919,562.6 198,559.5C 188.672,547.518 180.339,534.852 173,521.5C 165.696,507.293 162.363,492.293 163,476.5C 161.488,477.257 160.154,478.257 159,479.5C 148.163,508.009 141.33,507.009 138.5,476.5C 139.086,461.402 141.92,446.735 147,432.5C 150.26,424.32 153.76,416.32 157.5,408.5C 153.094,409.204 148.76,410.204 144.5,411.5C 144.421,408.729 144.921,406.063 146,403.5C 150.585,394.658 155.918,386.325 162,378.5C 162.483,377.552 162.649,376.552 162.5,375.5C 158.486,375.666 154.486,375.499 150.5,375C 152.167,373.333 153.833,371.667 155.5,370C 165.153,364.008 175.153,358.841 185.5,354.5C 187.308,354.509 188.975,354.009 190.5,353C 190.167,352.667 189.833,352.333 189.5,352C 184.511,351.501 179.511,351.334 174.5,351.5C 174.351,350.448 174.517,349.448 175,348.5C 177.478,346.361 179.978,344.361 182.5,342.5C 189.057,340.426 195.724,338.759 202.5,337.5 Z"/></g>
<g><path style="opacity:1" fill="#534e49" d="M 202.5,337.5 C 216.996,334.63 230.663,337.13 243.5,345C 244.381,345.708 245.047,346.542 245.5,347.5C 232.368,339.338 218.034,336.005 202.5,337.5 Z"/></g>
<g><path style="opacity:1" fill="#45403c" d="M 413.5,341.5 C 418.947,342.209 422.947,344.875 425.5,349.5C 421.807,346.324 417.807,343.657 413.5,341.5 Z"/></g>
<g><path style="opacity:1" fill="#504c49" d="M 353.5,347.5 C 350.138,351.192 346.805,354.859 343.5,358.5C 345.442,353.559 348.775,349.892 353.5,347.5 Z"/></g>
<g><path style="opacity:1" fill="#403d3b" d="M 182.5,342.5 C 179.978,344.361 177.478,346.361 175,348.5C 174.517,349.448 174.351,350.448 174.5,351.5C 179.511,351.334 184.511,351.501 189.5,352C 189.833,352.333 190.167,352.667 190.5,353C 188.975,354.009 187.308,354.509 185.5,354.5C 185.918,353.778 186.584,353.278 187.5,353C 182.845,352.501 178.179,352.334 173.5,352.5C 173.613,346.714 176.613,343.381 182.5,342.5 Z"/></g>
<g><path style="opacity:1" fill="#474646" d="M 245.5,347.5 C 255.99,352.72 261.323,361.387 261.5,373.5C 261.684,376.205 261.017,378.538 259.5,380.5C 261.466,370.493 259.299,361.493 253,353.5C 249.757,352.423 247.257,350.423 245.5,347.5 Z"/></g>
<g><path style="opacity:1" fill="#3d3b39" d="M 425.5,349.5 C 426.404,350.209 426.737,351.209 426.5,352.5C 421.489,352.334 416.489,352.501 411.5,353C 414.069,353.898 416.402,355.065 418.5,356.5C 414.938,356.035 411.605,354.868 408.5,353C 414.488,352.265 420.155,351.099 425.5,349.5 Z"/></g>
<g><path style="opacity:1" fill="#665a4d" d="M 341.5,362.5 C 340.752,367.485 340.085,372.485 339.5,377.5C 338.366,375.034 338.199,372.367 339,369.5C 339.156,366.809 339.989,364.476 341.5,362.5 Z"/></g>
<g><path style="opacity:1" fill="#151414" d="M 292.5,380.5 C 304.534,380.173 316.201,382.006 327.5,386C 334.991,389.491 339.158,395.324 340,403.5C 341.836,415.318 338.836,425.651 331,434.5C 322.494,443.834 311.994,449.501 299.5,451.5C 284.061,448.575 271.894,440.575 263,427.5C 255.943,413.39 257.443,400.39 267.5,388.5C 275.292,383.819 283.626,381.152 292.5,380.5 Z"/></g>
<g><path style="opacity:1" fill="#604b30" d="M 257.5,437.5 C 261.833,441.167 265.833,445.167 269.5,449.5C 264.5,446.5 260.5,442.5 257.5,437.5 Z"/></g>
<g><path style="opacity:1" fill="#6f5738" d="M 344.5,433.5 C 342.283,438.742 338.95,443.242 334.5,447C 329.757,451.26 324.424,454.427 318.5,456.5C 328.792,450.685 337.458,443.018 344.5,433.5 Z"/></g>
<g><path style="opacity:1" fill="#795f3d" d="M 313.5,458.5 C 312.653,459.966 311.32,460.8 309.5,461C 302.833,463 296.167,463 289.5,461C 288.944,460.617 288.611,460.117 288.5,459.5C 296.94,462.238 305.274,461.905 313.5,458.5 Z"/></g>
</svg>
