<?xml version="1.0" encoding="UTF-8"?>
<!DOCTYPE svg PUBLIC "-//W3C//DTD SVG 1.1//EN" "http://www.w3.org/Graphics/SVG/1.1/DTD/svg11.dtd">
<svg xmlns="http://www.w3.org/2000/svg" version="1.1" width="600px" height="600px" style="shape-rendering:geometricPrecision; text-rendering:geometricPrecision; image-rendering:optimizeQuality; fill-rule:evenodd; clip-rule:evenodd" xmlns:xlink="http://www.w3.org/1999/xlink">
<g><path style="opacity:0.969" fill="#030302" d="M 39.5,15.5 C 47.0768,15.7475 54.0768,17.9141 60.5,22C 86.2166,38.3742 110.217,57.0408 132.5,78C 149.167,93.3333 165.167,109.333 180.5,126C 184.42,129.377 188.92,131.543 194,132.5C 244.534,110.734 296.868,105.068 351,115.5C 368.57,118.801 385.404,124.301 401.5,132C 403.5,132.667 405.5,132.667 407.5,132C 411.4,130.435 415.066,128.435 418.5,126C 448.382,93.4421 480.716,63.7755 515.5,37C 525.711,29.1416 536.711,22.4749 548.5,17C 561.96,13.479 571.794,17.979 578,30.5C 586.957,52.0687 591.123,74.5687 590.5,98C 590.779,138.06 583.279,176.56 568,213.5C 556.203,238.453 540.703,260.786 521.5,280.5C 523.336,281.919 525.336,283.086 527.5,284C 531.58,284.687 535.58,285.687 539.5,287C 546.128,293.796 546.128,300.63 539.5,307.5C 544.711,313.385 544.711,319.218 539.5,325C 536.833,326.667 534.167,328.333 531.5,330C 538.011,336.64 538.011,343.306 531.5,350C 522.935,356.197 513.435,360.363 503,362.5C 499.422,380.572 493.089,397.572 484,413.5C 477.469,422.028 469.636,429.195 460.5,435C 456.964,438.201 453.797,441.701 451,445.5C 437.865,470.77 425.532,496.437 414,522.5C 400.102,545.715 379.935,560.549 353.5,567C 303.474,580.1 255.808,574.433 210.5,550C 200.867,542.704 193.033,533.87 187,523.5C 175.138,500.442 163.805,477.109 153,453.5C 150.333,449.5 147.667,445.5 145,441.5C 138.109,435.308 130.942,429.474 123.5,424C 115.745,414.886 109.578,404.719 105,393.5C 101.676,383.202 98.5094,372.868 95.5,362.5C 82.355,361.008 71.1883,355.675 62,346.5C 58.2077,339.891 59.3744,334.391 65.5,330C 53.5955,325.728 50.5955,318.228 56.5,307.5C 47.6089,293.394 51.6089,285.561 68.5,284C 71.3286,282.753 73.9952,281.253 76.5,279.5C 31.9415,232.327 9.4415,175.994 9,110.5C 7.32726,85.5717 10.3273,61.2383 18,37.5C 21.4116,26.2571 28.5783,18.9237 39.5,15.5 Z"/></g>
<g><path style="opacity:1" fill="#989488" d="M 38.5,26.5 C 43.9007,25.9664 48.9007,27.133 53.5,30C 78.21,45.3686 101.21,63.0353 122.5,83C 139.5,98.6667 155.833,115 171.5,132C 176.301,136.125 181.635,139.458 187.5,142C 191.428,143.325 195.428,143.658 199.5,143C 221.595,131.977 244.929,125.644 269.5,124C 274.194,135.292 277.027,147.126 278,159.5C 282.047,196.677 279.38,233.344 270,269.5C 267.447,277.824 264.114,285.824 260,293.5C 256.836,273.646 246.003,259.479 227.5,251C 217.871,246.838 207.871,245.171 197.5,246C 183.824,250.34 177.158,259.674 177.5,274C 177.612,279.277 178.112,284.444 179,289.5C 147.686,301.775 133.353,324.775 136,358.5C 138.292,372.418 144.292,384.418 154,394.5C 155.834,408.177 155.834,421.843 154,435.5C 146.631,428.24 138.798,421.574 130.5,415.5C 123.908,407.728 118.742,399.062 115,389.5C 110.698,376.625 106.865,363.625 103.5,350.5C 92.1024,352.65 81.769,350.15 72.5,343C 70.9632,341.89 70.2965,340.39 70.5,338.5C 81.2944,340.181 89.9611,336.681 96.5,328C 85.1433,326.828 74.4767,323.495 64.5,318C 63.5494,317.282 63.3828,316.449 64,315.5C 76.5605,314.316 87.7272,309.816 97.5,302C 89.3062,303.448 80.9729,303.781 72.5,303C 68.6371,301.819 65.1371,299.986 62,297.5C 61.4092,296.517 61.7425,295.85 63,295.5C 74.7372,294.382 84.2372,289.216 91.5,280C 46.6829,236.511 22.8496,183.344 20,120.5C 18.6172,99.031 19.6172,77.6976 23,56.5C 24.796,44.5695 29.9627,34.5695 38.5,26.5 Z"/></g>
<g><path style="opacity:1" fill="#989488" d="M 553.5,25.5 C 559.402,25.0347 563.902,27.3681 567,32.5C 574.579,46.4769 578.579,61.4769 579,77.5C 581.836,120.816 575.836,162.816 561,203.5C 547.905,232.923 529.739,258.757 506.5,281C 509.205,285.371 512.872,288.705 517.5,291C 522.94,293.522 528.606,295.355 534.5,296.5C 533.687,297.814 532.687,298.981 531.5,300C 521.374,303.395 511.04,304.395 500.5,303C 509.583,310.621 520.083,314.788 532,315.5C 532.617,316.449 532.451,317.282 531.5,318C 521.333,322.945 510.666,326.278 499.5,328C 505.867,337.069 514.534,340.569 525.5,338.5C 525.703,340.39 525.037,341.89 523.5,343C 514.797,349.093 505.131,351.926 494.5,351.5C 491.03,370.743 484.863,389.077 476,406.5C 473.688,409.646 471.188,412.646 468.5,415.5C 461.908,420.714 455.408,426.047 449,431.5C 447.249,429.51 446.249,427.177 446,424.5C 444.668,415.19 444.002,405.857 444,396.5C 467.776,370.781 470.776,342.781 453,312.5C 445.31,302.313 435.477,294.98 423.5,290.5C 422.644,287.861 422.81,285.194 424,282.5C 427.582,264.826 421.082,252.659 404.5,246C 376.753,244.794 356.586,256.627 344,281.5C 343.007,285.442 342.34,289.442 342,293.5C 334.29,283.051 329.29,271.385 327,258.5C 318.978,213.087 320.811,168.087 332.5,123.5C 355.196,126.09 376.863,132.257 397.5,142C 402.904,142.772 408.238,142.439 413.5,141C 418.506,138.499 423.173,135.499 427.5,132C 457.049,99.7748 489.049,70.4415 523.5,44C 533.143,37.1773 543.143,31.0106 553.5,25.5 Z"/></g>
<g><path style="opacity:1" fill="#0a0909" d="M 37.5,39.5 C 42.2675,39.1908 46.9342,39.6908 51.5,41C 84.3689,68.202 114.202,98.3687 141,131.5C 144.933,137.702 148.6,144.035 152,150.5C 154.346,159.72 153.679,168.72 150,177.5C 143.955,184.094 137.955,184.094 132,177.5C 130.279,184.587 125.946,187.587 119,186.5C 119.151,190.373 117.984,193.706 115.5,196.5C 112.692,197.709 110.025,199.043 107.5,200.5C 113.901,208.47 118.567,217.304 121.5,227C 116.859,243.482 106.525,249.149 90.5,244C 54.9934,212.225 35.4934,172.391 32,124.5C 29.6739,108.073 28.1739,91.5729 27.5,75C 27.3818,66.3985 28.2151,57.8985 30,49.5C 31.9474,45.7238 34.4474,42.3904 37.5,39.5 Z"/></g>
<g><path style="opacity:1" fill="#0b0a0a" d="M 546.5,39.5 C 556.125,37.4161 562.958,40.7494 567,49.5C 570.086,69.1349 570.086,88.8016 567,108.5C 564.986,139.222 557.653,168.555 545,196.5C 534.82,214.361 521.986,230.194 506.5,244C 495.871,249.007 487.037,246.841 480,237.5C 474.916,231.582 473.583,224.916 476,217.5C 479.638,211.697 483.471,206.03 487.5,200.5C 479.78,198.952 475.946,194.286 476,186.5C 469.054,187.587 464.721,184.587 463,177.5C 457.406,181.604 452.073,181.271 447,176.5C 443.251,168.088 442.584,159.421 445,150.5C 448.382,144.078 452.049,137.745 456,131.5C 483.329,98.0043 513.496,67.3376 546.5,39.5 Z"/></g>
<g><path style="opacity:1" fill="#eff0f0" d="M 57.5,58.5 C 60.2311,62.2343 63.5644,65.2343 67.5,67.5C 67.8333,68.5 68.5,69.1667 69.5,69.5C 79.1667,79.8333 89.1667,89.8333 99.5,99.5C 101.167,101.5 102.833,103.5 104.5,105.5C 107.167,108.833 110.167,111.833 113.5,114.5C 119.787,122.626 126.287,130.626 133,138.5C 137.113,144.391 140.446,150.724 143,157.5C 143.867,162.697 143.2,167.697 141,172.5C 136.342,166.013 131.176,160.013 125.5,154.5C 121.227,148.558 116.227,143.224 110.5,138.5C 101.957,129.728 91.6233,124.395 79.5,122.5C 76.4355,121.182 73.2688,121.182 70,122.5C 70.6026,125.93 72.7693,127.93 76.5,128.5C 82.6564,132.747 88.9898,136.747 95.5,140.5C 99.8333,145.5 104.5,150.167 109.5,154.5C 113.998,161.491 117.998,168.824 121.5,176.5C 121.167,176.833 120.833,177.167 120.5,177.5C 105.583,162.371 87.583,154.371 66.5,153.5C 74.8417,157.335 82.8417,161.669 90.5,166.5C 94.5,171.167 98.8333,175.5 103.5,179.5C 105.346,182.793 106.846,186.127 108,189.5C 96.9036,183.677 85.0702,180.677 72.5,180.5C 70.3945,179.181 68.3945,179.514 66.5,181.5C 67.8322,183.833 69.8322,185.166 72.5,185.5C 82.2645,191.156 91.0979,198.156 99,206.5C 103.169,212.166 106.835,218.166 110,224.5C 110.667,226.167 110.667,227.833 110,229.5C 107.112,234.242 102.945,236.575 97.5,236.5C 91.8333,230.167 85.8333,224.167 79.5,218.5C 67.634,203.629 58.3006,187.296 51.5,169.5C 50.4565,164.645 49.1231,159.978 47.5,155.5C 41.123,124.819 37.9563,93.8187 38,62.5C 38.3457,59.4245 39.0124,56.4245 40,53.5C 40.6797,51.487 42.013,50.1536 44,49.5C 48.7699,52.1321 53.2699,55.1321 57.5,58.5 Z"/></g>
<g><path style="opacity:1" fill="#eff0f0" d="M 549.5,155.5 C 547.877,159.978 546.544,164.645 545.5,169.5C 538.672,187.313 529.338,203.646 517.5,218.5C 511.702,223.797 506.035,229.297 500.5,235C 498.655,236.128 496.655,236.628 494.5,236.5C 490.507,233.504 487.174,229.837 484.5,225.5C 489.476,215.691 495.809,206.858 503.5,199C 511.408,193.128 519.574,187.628 528,182.5C 528.188,180.939 527.355,180.272 525.5,180.5C 521.446,179.504 517.446,179.838 513.5,181.5C 504.151,182.45 495.317,185.116 487,189.5C 486.833,189.167 486.667,188.833 486.5,188.5C 495.4,173.597 507.733,162.597 523.5,155.5C 525.842,155.496 527.842,154.663 529.5,153C 525.219,152.202 521.219,152.702 517.5,154.5C 501.078,157.543 487.078,165.043 475.5,177C 474.668,177.688 474.002,177.521 473.5,176.5C 479.694,161.26 489.361,148.76 502.5,139C 508.009,135.637 513.342,132.137 518.5,128.5C 522.231,127.93 524.397,125.93 525,122.5C 521.399,121.18 517.899,121.18 514.5,122.5C 502.551,124.795 492.551,130.461 484.5,139.5C 478.833,143.167 474.167,147.833 470.5,153.5C 465.507,158.801 460.507,164.134 455.5,169.5C 453.015,164.614 452.849,159.614 455,154.5C 458.999,145.827 463.999,137.827 470,130.5C 479.003,119.998 488.17,109.665 497.5,99.5C 508.167,89.5 518.5,79.1667 528.5,68.5C 535.714,61.7876 543.381,55.6209 551.5,50C 555.485,50.0168 557.652,52.1835 558,56.5C 559.748,70.1479 559.748,83.8146 558,97.5C 556.051,116.976 553.218,136.309 549.5,155.5 Z"/></g>
<g><path style="opacity:1" fill="#4b4945" d="M 57.5,58.5 C 61.4356,60.7657 64.7689,63.7657 67.5,67.5C 63.5644,65.2343 60.2311,62.2343 57.5,58.5 Z"/></g>
<g><path style="opacity:1" fill="#3d3b37" d="M 69.5,69.5 C 79.7461,78.2422 89.5795,87.5755 99,97.5C 99.4643,98.0944 99.631,98.7611 99.5,99.5C 89.1667,89.8333 79.1667,79.8333 69.5,69.5 Z"/></g>
<g><path style="opacity:1" fill="#464440" d="M 528.5,68.5 C 518.5,79.1667 508.167,89.5 497.5,99.5C 506.576,88.9204 516.242,78.7537 526.5,69C 527.094,68.5357 527.761,68.369 528.5,68.5 Z"/></g>
<g><path style="opacity:1" fill="#44423e" d="M 104.5,105.5 C 108.5,107.5 111.5,110.5 113.5,114.5C 110.167,111.833 107.167,108.833 104.5,105.5 Z"/></g>
<g><path style="opacity:1" fill="#eff0f0" d="M 285.5,121.5 C 297.55,121.207 309.55,121.541 321.5,122.5C 320.518,125.763 319.851,129.097 319.5,132.5C 319.5,132.833 319.5,133.167 319.5,133.5C 313.897,154.323 311.23,175.656 311.5,197.5C 311.5,203.833 311.5,210.167 311.5,216.5C 311.334,223.175 311.5,229.842 312,236.5C 312.189,240.767 313.023,244.767 314.5,248.5C 314.5,248.833 314.5,249.167 314.5,249.5C 314.425,253.897 314.925,258.23 316,262.5C 316.383,263.056 316.883,263.389 317.5,263.5C 319.494,269.816 321.494,276.15 323.5,282.5C 324.46,287.086 326.46,291.086 329.5,294.5C 329.427,296.027 330.094,297.027 331.5,297.5C 331.738,299.404 332.738,300.738 334.5,301.5C 336.562,305.895 339.896,308.895 344.5,310.5C 345.911,312.539 347.911,313.539 350.5,313.5C 357.888,318.538 363.888,317.205 368.5,309.5C 383.146,306.172 397.813,302.839 412.5,299.5C 415.877,299.959 419.211,300.626 422.5,301.5C 424.181,303.008 426.181,304.008 428.5,304.5C 430.55,306.547 432.883,308.214 435.5,309.5C 437.167,311.833 439.167,313.833 441.5,315.5C 442.08,317.749 443.413,319.415 445.5,320.5C 446.338,320.842 446.672,321.508 446.5,322.5C 447.326,325.485 448.659,328.151 450.5,330.5C 452.692,334.098 453.692,338.098 453.5,342.5C 453.524,348.857 453.19,355.19 452.5,361.5C 451.388,363.599 450.721,365.933 450.5,368.5C 448.659,370.849 447.326,373.515 446.5,376.5C 444.453,378.55 442.786,380.883 441.5,383.5C 439.167,385.167 437.167,387.167 435.5,389.5C 434.504,389.414 433.671,389.748 433,390.5C 432.44,403.224 433.107,415.891 435,428.5C 435.383,429.056 435.883,429.389 436.5,429.5C 437.371,432.564 438.538,435.564 440,438.5C 440.75,439.126 441.584,439.626 442.5,440C 437.017,448.464 432.184,457.298 428,466.5C 420.881,483.406 413.214,500.073 405,516.5C 392.473,538.006 373.973,551.506 349.5,557C 321.692,563.087 293.692,564.087 265.5,560C 248.585,556.363 232.585,550.363 217.5,542C 208.915,535.417 201.748,527.584 196,518.5C 184.071,494.215 172.238,469.882 160.5,445.5C 162.5,445.5 163.5,444.5 163.5,442.5C 163.232,440.901 163.566,439.568 164.5,438.5C 165.892,432.053 166.559,425.386 166.5,418.5C 166.499,414.651 166.165,410.984 165.5,407.5C 165.666,401.491 165.499,395.491 165,389.5C 162.297,386.629 159.464,383.962 156.5,381.5C 155.66,379.147 154.326,377.147 152.5,375.5C 151.447,372.392 150.114,369.392 148.5,366.5C 148.59,363.848 147.924,361.515 146.5,359.5C 143.798,346.602 145.798,334.602 152.5,323.5C 157.406,316.923 163.073,310.923 169.5,305.5C 169.973,304.094 170.973,303.427 172.5,303.5C 175.481,303.818 177.815,302.818 179.5,300.5C 182.519,298.663 185.852,298.163 189.5,299C 203.398,302.775 217.398,306.275 231.5,309.5C 233.167,311.833 235.167,313.833 237.5,315.5C 238.786,318.117 240.453,320.45 242.5,322.5C 242.668,325.051 243.668,325.718 245.5,324.5C 248.198,324.155 250.198,322.822 251.5,320.5C 255.833,318.167 259.167,314.833 261.5,310.5C 264.277,308.049 266.277,305.049 267.5,301.5C 270.874,297.419 273.207,292.753 274.5,287.5C 275.931,286.22 276.598,284.553 276.5,282.5C 279.688,277.778 281.355,272.444 281.5,266.5C 282.434,265.432 282.768,264.099 282.5,262.5C 284.04,260.162 284.706,257.495 284.5,254.5C 285.341,252.621 285.675,250.621 285.5,248.5C 287.25,244.817 287.917,240.817 287.5,236.5C 287.5,236.167 287.5,235.833 287.5,235.5C 289.228,229.762 289.895,223.762 289.5,217.5C 289.915,195.404 289.249,173.404 287.5,151.5C 287.451,146.184 286.451,141.184 284.5,136.5C 284.784,134.585 284.451,132.919 283.5,131.5C 283.59,128.848 282.924,126.515 281.5,124.5C 282.448,123.022 283.781,122.022 285.5,121.5 Z"/></g>
<g><path style="opacity:1" fill="#44433f" d="M 79.5,122.5 C 76.7531,122.187 74.0865,122.52 71.5,123.5C 73.0063,125.401 74.6729,127.068 76.5,128.5C 72.7693,127.93 70.6026,125.93 70,122.5C 73.2688,121.182 76.4355,121.182 79.5,122.5 Z"/></g>
<g><path style="opacity:1" fill="#6b6965" d="M 285.5,121.5 C 283.781,122.022 282.448,123.022 281.5,124.5C 279.767,123.992 279.434,123.159 280.5,122C 282.134,121.506 283.801,121.34 285.5,121.5 Z"/></g>
<g><path style="opacity:1" fill="#42403c" d="M 514.5,122.5 C 517.899,121.18 521.399,121.18 525,122.5C 524.397,125.93 522.231,127.93 518.5,128.5C 520.327,127.068 521.994,125.401 523.5,123.5C 520.572,122.516 517.572,122.183 514.5,122.5 Z"/></g>
<g><path style="opacity:1" fill="#77756d" d="M 321.5,122.5 C 322.239,122.369 322.906,122.536 323.5,123C 322.083,126.222 320.749,129.388 319.5,132.5C 319.851,129.097 320.518,125.763 321.5,122.5 Z"/></g>
<g><path style="opacity:1" fill="#78756e" d="M 281.5,124.5 C 282.924,126.515 283.59,128.848 283.5,131.5C 282.076,129.485 281.41,127.152 281.5,124.5 Z"/></g>
<g><path style="opacity:1" fill="#504e4a" d="M 95.5,140.5 C 101.167,144.167 105.833,148.833 109.5,154.5C 104.5,150.167 99.8333,145.5 95.5,140.5 Z"/></g>
<g><path style="opacity:1" fill="#7c7972" d="M 284.5,136.5 C 286.451,141.184 287.451,146.184 287.5,151.5C 285.978,146.727 284.978,141.727 284.5,136.5 Z"/></g>
<g><path style="opacity:1" fill="#4a4945" d="M 110.5,138.5 C 116.227,143.224 121.227,148.558 125.5,154.5C 119.773,149.776 114.773,144.442 110.5,138.5 Z"/></g>
<g><path style="opacity:1" fill="#45433f" d="M 484.5,139.5 C 480.167,144.5 475.5,149.167 470.5,153.5C 474.167,147.833 478.833,143.167 484.5,139.5 Z"/></g>
<g><path style="opacity:1" fill="#53514d" d="M 523.5,155.5 C 523.918,154.778 524.584,154.278 525.5,154C 522.881,154.083 520.214,154.25 517.5,154.5C 521.219,152.702 525.219,152.202 529.5,153C 527.842,154.663 525.842,155.496 523.5,155.5 Z"/></g>
<g><path style="opacity:1" fill="#7d7b73" d="M 319.5,133.5 C 315.339,154.79 312.672,176.123 311.5,197.5C 311.23,175.656 313.897,154.323 319.5,133.5 Z"/></g>
<g><path style="opacity:1" fill="#474541" d="M 47.5,155.5 C 49.1231,159.978 50.4565,164.645 51.5,169.5C 48.9436,165.288 47.6102,160.622 47.5,155.5 Z"/></g>
<g><path style="opacity:1" fill="#474541" d="M 549.5,155.5 C 549.39,160.622 548.056,165.288 545.5,169.5C 546.544,164.645 547.877,159.978 549.5,155.5 Z"/></g>
<g><path style="opacity:1" fill="#4e4d48" d="M 90.5,166.5 C 95.8333,169.833 100.167,174.167 103.5,179.5C 98.8333,175.5 94.5,171.167 90.5,166.5 Z"/></g>
<g><path style="opacity:1" fill="#4d4b47" d="M 72.5,180.5 C 70.8967,180.312 69.5634,180.812 68.5,182C 70.0931,182.949 71.4264,184.115 72.5,185.5C 69.8322,185.166 67.8322,183.833 66.5,181.5C 68.3945,179.514 70.3945,179.181 72.5,180.5 Z"/></g>
<g><path style="opacity:1" fill="#595853" d="M 525.5,180.5 C 521.519,181.021 517.519,181.354 513.5,181.5C 517.446,179.838 521.446,179.504 525.5,180.5 Z"/></g>
<g><path style="opacity:1" fill="#484642" d="M 79.5,218.5 C 85.8333,224.167 91.8333,230.167 97.5,236.5C 90.5,231.5 84.5,225.5 79.5,218.5 Z"/></g>
<g><path style="opacity:1" fill="#92908a" d="M 289.5,217.5 C 289.895,223.762 289.228,229.762 287.5,235.5C 287.844,229.322 288.511,223.322 289.5,217.5 Z"/></g>
<g><path style="opacity:1" fill="#403e3a" d="M 517.5,218.5 C 512.764,224.742 507.431,230.576 501.5,236C 499.105,237.598 496.772,237.764 494.5,236.5C 496.655,236.628 498.655,236.128 500.5,235C 506.035,229.297 511.702,223.797 517.5,218.5 Z"/></g>
<g><path style="opacity:1" fill="#9b9a94" d="M 311.5,216.5 C 312.418,227.027 313.418,237.694 314.5,248.5C 313.023,244.767 312.189,240.767 312,236.5C 311.5,229.842 311.334,223.175 311.5,216.5 Z"/></g>
<g><path style="opacity:1" fill="#94928c" d="M 287.5,236.5 C 287.917,240.817 287.25,244.817 285.5,248.5C 285.717,244.295 286.383,240.295 287.5,236.5 Z"/></g>
<g><path style="opacity:1" fill="#eff0ef" d="M 197.5,256.5 C 202.167,256.5 206.833,256.5 211.5,256.5C 217.571,258.417 223.571,260.75 229.5,263.5C 234.141,267.805 238.807,272.139 243.5,276.5C 246.751,281.51 248.751,287.01 249.5,293C 250.192,296.532 248.859,298.865 245.5,300C 241.131,300.425 236.797,300.092 232.5,299C 219.819,296.163 207.153,293.329 194.5,290.5C 191.325,287.675 188.992,284.341 187.5,280.5C 187.5,276.5 187.5,272.5 187.5,268.5C 189.733,263.599 193.066,259.599 197.5,256.5 Z"/></g>
<g><path style="opacity:1" fill="#eff0f0" d="M 394.5,256.5 C 404.315,255.402 410.982,259.402 414.5,268.5C 414.5,272.5 414.5,276.5 414.5,280.5C 413.008,284.341 410.675,287.675 407.5,290.5C 392.834,293.6 378.167,296.767 363.5,300C 354.106,301.605 350.606,297.771 353,288.5C 355.143,281.886 358.643,276.219 363.5,271.5C 366.526,268.805 369.526,266.138 372.5,263.5C 377.699,261.07 383.032,258.903 388.5,257C 390.473,256.505 392.473,256.338 394.5,256.5 Z"/></g>
<g><path style="opacity:1" fill="#484742" d="M 394.5,256.5 C 405.063,253.788 411.729,257.788 414.5,268.5C 410.982,259.402 404.315,255.402 394.5,256.5 Z"/></g>
<g><path style="opacity:1" fill="#88867f" d="M 284.5,254.5 C 284.706,257.495 284.04,260.162 282.5,262.5C 282.565,259.572 283.232,256.905 284.5,254.5 Z"/></g>
<g><path style="opacity:1" fill="#43413d" d="M 211.5,256.5 C 218.349,256.89 224.349,259.223 229.5,263.5C 223.571,260.75 217.571,258.417 211.5,256.5 Z"/></g>
<g><path style="opacity:1" fill="#44423e" d="M 197.5,256.5 C 193.066,259.599 189.733,263.599 187.5,268.5C 188.31,262.36 191.643,258.36 197.5,256.5 Z"/></g>
<g><path style="opacity:1" fill="#acaba6" d="M 314.5,249.5 C 315.99,253.942 316.99,258.609 317.5,263.5C 316.883,263.389 316.383,263.056 316,262.5C 314.925,258.23 314.425,253.897 314.5,249.5 Z"/></g>
<g><path style="opacity:1" fill="#4a4944" d="M 229.5,263.5 C 235.448,266.448 240.115,270.781 243.5,276.5C 238.807,272.139 234.141,267.805 229.5,263.5 Z"/></g>
<g><path style="opacity:1" fill="#4b4944" d="M 372.5,263.5 C 369.526,266.138 366.526,268.805 363.5,271.5C 365.233,267.435 368.233,264.768 372.5,263.5 Z"/></g>
<g><path style="opacity:1" fill="#a5a49e" d="M 281.5,266.5 C 281.355,272.444 279.688,277.778 276.5,282.5C 277.796,276.95 279.463,271.617 281.5,266.5 Z"/></g>
<g><path style="opacity:1" fill="#464540" d="M 414.5,280.5 C 414.488,285.505 412.155,288.838 407.5,290.5C 410.675,287.675 413.008,284.341 414.5,280.5 Z"/></g>
<g><path style="opacity:1" fill="#494843" d="M 187.5,280.5 C 188.992,284.341 191.325,287.675 194.5,290.5C 189.845,288.838 187.512,285.505 187.5,280.5 Z"/></g>
<g><path style="opacity:1" fill="#727068" d="M 276.5,282.5 C 276.598,284.553 275.931,286.22 274.5,287.5C 274.402,285.447 275.069,283.78 276.5,282.5 Z"/></g>
<g><path style="opacity:1" fill="#75726a" d="M 323.5,282.5 C 326.008,286.182 328.008,290.182 329.5,294.5C 326.46,291.086 324.46,287.086 323.5,282.5 Z"/></g>
<g><path style="opacity:1" fill="#74716a" d="M 274.5,287.5 C 273.207,292.753 270.874,297.419 267.5,301.5C 269.326,296.516 271.659,291.849 274.5,287.5 Z"/></g>
<g><path style="opacity:1" fill="#737068" d="M 331.5,297.5 C 333.262,298.262 334.262,299.596 334.5,301.5C 332.738,300.738 331.738,299.404 331.5,297.5 Z"/></g>
<g><path style="opacity:1" fill="#78756e" d="M 412.5,299.5 C 416.111,298.247 419.444,298.914 422.5,301.5C 419.211,300.626 415.877,299.959 412.5,299.5 Z"/></g>
<g><path style="opacity:1" fill="#989691" d="M 179.5,300.5 C 177.815,302.818 175.481,303.818 172.5,303.5C 174.426,301.707 176.759,300.707 179.5,300.5 Z"/></g>
<g><path style="opacity:1" fill="#716e66" d="M 422.5,301.5 C 425.089,301.461 427.089,302.461 428.5,304.5C 426.181,304.008 424.181,303.008 422.5,301.5 Z"/></g>
<g><path style="opacity:1" fill="#828079" d="M 334.5,301.5 C 337.859,304.529 341.192,307.529 344.5,310.5C 339.896,308.895 336.562,305.895 334.5,301.5 Z"/></g>
<g><path style="opacity:1" fill="#75736b" d="M 267.5,301.5 C 266.277,305.049 264.277,308.049 261.5,310.5C 262.759,306.975 264.759,303.975 267.5,301.5 Z"/></g>
<g><path style="opacity:1" fill="#77746c" d="M 428.5,304.5 C 431.674,305.01 434.008,306.677 435.5,309.5C 432.883,308.214 430.55,306.547 428.5,304.5 Z"/></g>
<g><path style="opacity:1" fill="#817e77" d="M 169.5,305.5 C 163.073,310.923 157.406,316.923 152.5,323.5C 156.111,315.556 161.778,309.556 169.5,305.5 Z"/></g>
<g><path style="opacity:1" fill="#6d6a62" d="M 231.5,309.5 C 234.5,310.5 236.5,312.5 237.5,315.5C 235.167,313.833 233.167,311.833 231.5,309.5 Z"/></g>
<g><path style="opacity:1" fill="#6e6b63" d="M 435.5,309.5 C 438.5,310.5 440.5,312.5 441.5,315.5C 439.167,313.833 437.167,311.833 435.5,309.5 Z"/></g>
<g><path style="opacity:1" fill="#76736b" d="M 344.5,310.5 C 346.819,310.992 348.819,311.992 350.5,313.5C 347.911,313.539 345.911,312.539 344.5,310.5 Z"/></g>
<g><path style="opacity:1" fill="#060505" d="M 193.5,312.5 C 222.271,313.77 235.771,328.77 234,357.5C 226.229,379.638 210.729,388.805 187.5,385C 164.382,375.265 156.549,358.432 164,334.5C 170.039,321.947 179.872,314.614 193.5,312.5 Z"/></g>
<g><path style="opacity:1" fill="#7c7a72" d="M 368.5,309.5 C 363.888,317.205 357.888,318.538 350.5,313.5C 354.087,314.756 357.754,315.256 361.5,315C 363.441,312.546 365.775,310.713 368.5,309.5 Z"/></g>
<g><path style="opacity:1" fill="#050404" d="M 397.5,312.5 C 417.846,312.079 431.346,321.413 438,340.5C 440.909,364.568 430.743,379.735 407.5,386C 386.252,387.293 372.419,377.793 366,357.5C 363.236,332.983 373.736,317.983 397.5,312.5 Z"/></g>
<g><path style="opacity:1" fill="#7f7d76" d="M 261.5,310.5 C 259.167,314.833 255.833,318.167 251.5,320.5C 254.5,316.833 257.833,313.5 261.5,310.5 Z"/></g>
<g><path style="opacity:1" fill="#79776f" d="M 237.5,315.5 C 240.323,316.992 241.99,319.326 242.5,322.5C 240.453,320.45 238.786,318.117 237.5,315.5 Z"/></g>
<g><path style="opacity:1" fill="#78756e" d="M 441.5,315.5 C 443.587,316.585 444.92,318.251 445.5,320.5C 443.413,319.415 442.08,317.749 441.5,315.5 Z"/></g>
<g><path style="opacity:1" fill="#7a7770" d="M 251.5,320.5 C 250.198,322.822 248.198,324.155 245.5,324.5C 247.147,322.674 249.147,321.34 251.5,320.5 Z"/></g>
<g><path style="opacity:1" fill="#362e2b" d="M 182.5,329.5 C 183.219,327.112 184.885,325.612 187.5,325C 205.087,320.377 217.253,326.543 224,343.5C 224.827,364.673 214.66,375.506 193.5,376C 177.65,371.475 170.483,360.975 172,344.5C 173.176,338.988 175.676,334.155 179.5,330C 180.448,329.517 181.448,329.351 182.5,329.5 Z"/></g>
<g><path style="opacity:1" fill="#737068" d="M 242.5,322.5 C 243.5,323.167 244.5,323.833 245.5,324.5C 243.668,325.718 242.668,325.051 242.5,322.5 Z"/></g>
<g><path style="opacity:1" fill="#362e2b" d="M 386.5,329.5 C 381.225,337.752 383.392,343.086 393,345.5C 400.978,343.208 403.311,338.208 400,330.5C 396.673,327.846 392.839,326.846 388.5,327.5C 401.818,320.321 413.651,322.654 424,334.5C 432.903,355.057 426.736,368.89 405.5,376C 384.891,375.055 375.058,364.221 376,343.5C 377.341,337.127 380.841,332.461 386.5,329.5 Z"/></g>
<g><path style="opacity:1" fill="#ededed" d="M 182.5,329.5 C 192.761,325.044 197.594,328.377 197,339.5C 193.162,346.134 188.162,347.134 182,342.5C 178.632,338.036 178.799,333.702 182.5,329.5 Z"/></g>
<g><path style="opacity:1" fill="#ededed" d="M 388.5,327.5 C 392.839,326.846 396.673,327.846 400,330.5C 403.311,338.208 400.978,343.208 393,345.5C 383.392,343.086 381.225,337.752 386.5,329.5C 387.5,329.167 388.167,328.5 388.5,327.5 Z"/></g>
<g><path style="opacity:1" fill="#747169" d="M 446.5,322.5 C 448.873,324.579 450.206,327.246 450.5,330.5C 448.659,328.151 447.326,325.485 446.5,322.5 Z"/></g>
<g><path style="opacity:1" fill="#716e66" d="M 453.5,342.5 C 454.163,344.641 454.497,346.975 454.5,349.5C 454.589,353.761 453.922,357.761 452.5,361.5C 453.19,355.19 453.524,348.857 453.5,342.5 Z"/></g>
<g><path style="opacity:1" fill="#78766e" d="M 146.5,359.5 C 147.924,361.515 148.59,363.848 148.5,366.5C 147.076,364.485 146.41,362.152 146.5,359.5 Z"/></g>
<g><path style="opacity:1" fill="#727068" d="M 450.5,368.5 C 450.206,371.754 448.873,374.421 446.5,376.5C 447.326,373.515 448.659,370.849 450.5,368.5 Z"/></g>
<g><path style="opacity:1" fill="#76736b" d="M 152.5,375.5 C 154.326,377.147 155.66,379.147 156.5,381.5C 154.178,380.198 152.845,378.198 152.5,375.5 Z"/></g>
<g><path style="opacity:1" fill="#737069" d="M 446.5,376.5 C 445.99,379.674 444.323,382.008 441.5,383.5C 442.786,380.883 444.453,378.55 446.5,376.5 Z"/></g>
<g><path style="opacity:1" fill="#6f6c64" d="M 156.5,381.5 C 159.464,383.962 162.297,386.629 165,389.5C 165.499,395.491 165.666,401.491 165.5,407.5C 164.673,402.015 164.173,396.348 164,390.5C 160.888,387.899 158.388,384.899 156.5,381.5 Z"/></g>
<g><path style="opacity:1" fill="#adaca7" d="M 165.5,407.5 C 166.165,410.984 166.499,414.651 166.5,418.5C 166.559,425.386 165.892,432.053 164.5,438.5C 165.182,428.181 165.515,417.847 165.5,407.5 Z"/></g>
<g><path style="opacity:1" fill="#a9a8a3" d="M 435.5,389.5 C 433.935,392.19 433.269,395.19 433.5,398.5C 434.115,408.881 435.115,419.215 436.5,429.5C 435.883,429.389 435.383,429.056 435,428.5C 433.107,415.891 432.44,403.224 433,390.5C 433.671,389.748 434.504,389.414 435.5,389.5 Z"/></g>
<g><path style="opacity:1" fill="#75736b" d="M 163.5,442.5 C 163.5,444.5 162.5,445.5 160.5,445.5C 161.167,444.167 162.167,443.167 163.5,442.5 Z"/></g>
<g><path style="opacity:1" fill="#040303" d="M 287.5,452.5 C 300.998,451.886 314.332,453.053 327.5,456C 345.5,461.166 353,472.999 350,491.5C 348.088,499.16 344.255,505.66 338.5,511C 309.358,534.254 281.858,532.421 256,505.5C 244.943,489.904 246.11,475.404 259.5,462C 268.197,456.667 277.53,453.5 287.5,452.5 Z"/></g>
<g><path style="opacity:1" fill="#320f13" d="M 291.5,462.5 C 306.209,461.335 320.209,463.835 333.5,470C 340.085,475.357 342.251,482.191 340,490.5C 333.863,502.498 324.363,510.665 311.5,515C 303.504,518.239 295.504,518.239 287.5,515C 275.211,510.703 266.044,502.87 260,491.5C 256.917,482.081 259.417,474.581 267.5,469C 275.234,465.362 283.234,463.195 291.5,462.5 Z"/></g>
</svg>
