<?xml version="1.0" encoding="UTF-8"?>
<!DOCTYPE svg PUBLIC "-//W3C//DTD SVG 1.1//EN" "http://www.w3.org/Graphics/SVG/1.1/DTD/svg11.dtd">
<svg xmlns="http://www.w3.org/2000/svg" version="1.1" width="600px" height="600px" style="shape-rendering:geometricPrecision; text-rendering:geometricPrecision; image-rendering:optimizeQuality; fill-rule:evenodd; clip-rule:evenodd" xmlns:xlink="http://www.w3.org/1999/xlink">
<g><path style="opacity:0.974" fill="#030202" d="M 146.5,-0.5 C 150.5,-0.5 154.5,-0.5 158.5,-0.5C 161.371,4.44689 164.038,4.44689 166.5,-0.5C 171.833,-0.5 177.167,-0.5 182.5,-0.5C 175.16,5.67535 168.66,12.6754 163,20.5C 159.726,16.2721 156.226,12.2721 152.5,8.5C 152.167,8.83333 151.833,9.16667 151.5,9.5C 154.394,15.3557 156.56,21.3557 158,27.5C 156.039,24.5372 153.706,21.8706 151,19.5C 152.396,25.3421 152.729,31.3421 152,37.5C 151.917,32.9443 149.751,30.2776 145.5,29.5C 147.298,34.6886 148.131,40.022 148,45.5C 126.944,83.4979 112.11,123.831 103.5,166.5C 99.4463,165.816 95.4463,165.816 91.5,166.5C 95.4558,168.788 98.7891,171.788 101.5,175.5C 99.6565,175.755 97.6565,175.922 95.5,176C 94.9781,176.561 94.6448,177.228 94.5,178C 96.5,179.667 98.5,181.333 100.5,183C 99.3338,188.164 98.1671,193.331 97,198.5C 89.4208,203.409 82.4208,209.075 76,215.5C 73.0956,218.642 71.2622,222.309 70.5,226.5C 76.4898,225.758 82.4898,225.591 88.5,226C 89.0585,226.725 89.3918,227.558 89.5,228.5C 79.3897,253.936 73.5563,280.269 72,307.5C 77.0437,301.847 81.0437,302.514 84,309.5C 84.2504,321.584 83.2504,333.584 81,345.5C 77.5086,359.132 74.1752,372.799 71,386.5C 70.3333,390.167 70.3333,393.833 71,397.5C 71.5613,398.022 72.228,398.355 73,398.5C 77.2477,396.125 81.7477,394.458 86.5,393.5C 90.6121,393.474 93.1121,395.474 94,399.5C 94.6667,405.833 94.6667,412.167 94,418.5C 90.0425,436.453 86.5425,454.453 83.5,472.5C 84.552,472.649 85.552,472.483 86.5,472C 91.1667,466 96.5,460.667 102.5,456C 107.683,454.181 110.516,456.014 111,461.5C 111.577,473.891 110.91,486.224 109,498.5C 108.333,505.833 108.333,513.167 109,520.5C 109.333,520.833 109.667,521.167 110,521.5C 114.752,518.752 118.919,515.252 122.5,511C 125.787,509.626 128.287,507.46 130,504.5C 133.897,477.912 141.063,452.246 151.5,427.5C 142.368,405.54 135.201,382.874 130,359.5C 126.097,331.867 126.764,304.534 132,277.5C 133.333,273.5 134.667,269.5 136,265.5C 142.514,252.636 151.014,241.136 161.5,231C 172.742,223.354 184.742,217.021 197.5,212C 217.967,208.343 238.633,207.676 259.5,210C 276.544,212.229 289.877,220.396 299.5,234.5C 304.771,224.062 312.771,216.562 323.5,212C 372.854,197.537 414.354,209.37 448,247.5C 456.032,259.225 462.365,271.892 467,285.5C 471.493,310.742 471.493,336.075 467,361.5C 461.906,383.658 456.572,405.658 451,427.5C 463.324,453.478 470.99,480.812 474,509.5C 478.5,513.333 483,517.167 487.5,521C 488.635,521.749 489.635,521.583 490.5,520.5C 491.107,518.225 491.441,515.891 491.5,513.5C 489.577,496.19 488.411,478.857 488,461.5C 488.484,456.014 491.317,454.181 496.5,456C 502.5,460.667 507.833,466 512.5,472C 513.448,472.483 514.448,472.649 515.5,472.5C 512.123,453.851 508.623,435.184 505,416.5C 504.333,410.833 504.333,405.167 505,399.5C 506.19,395.805 508.69,393.805 512.5,393.5C 516.62,393.928 520.287,395.428 523.5,398C 525.112,398.72 526.612,398.554 528,397.5C 528.667,394.167 528.667,390.833 528,387.5C 524.334,371.503 520.667,355.503 517,339.5C 515.301,329.552 514.635,319.552 515,309.5C 517.956,302.514 521.956,301.847 527,307.5C 528.064,306.056 528.564,304.389 528.5,302.5C 524.898,277.59 518.564,253.423 509.5,230C 510.101,228.395 511.101,227.062 512.5,226C 517.838,225.685 523.172,225.852 528.5,226.5C 527.85,222.86 526.35,219.527 524,216.5C 517.248,209.744 509.914,203.744 502,198.5C 500.347,192.922 499.68,187.255 500,181.5C 501.803,180.687 503.303,179.52 504.5,178C 504.355,177.228 504.022,176.561 503.5,176C 501.343,175.922 499.343,175.755 497.5,175.5C 500.456,172.032 503.789,169.032 507.5,166.5C 503.535,165.633 499.535,165.633 495.5,166.5C 487.242,124.225 472.742,84.225 452,46.5C 451.18,41.368 451.68,36.368 453.5,31.5C 453.167,30.8333 452.833,30.1667 452.5,29.5C 448.952,30.9124 447.119,33.5791 447,37.5C 446.346,31.3711 446.679,25.3711 448,19.5C 445.303,22.3918 442.803,24.7251 440.5,26.5C 443.029,20.914 445.362,15.2473 447.5,9.5C 446.998,8.47899 446.332,8.31232 445.5,9C 442.309,12.69 439.309,16.5233 436.5,20.5C 433.104,16.721 429.937,12.721 427,8.5C 423.897,4.88599 420.397,1.88599 416.5,-0.5C 422.167,-0.5 427.833,-0.5 433.5,-0.5C 433.685,1.19578 434.519,2.52912 436,3.5C 437.667,2.26683 439.167,0.933498 440.5,-0.5C 444.5,-0.5 448.5,-0.5 452.5,-0.5C 457.256,3.29865 458.589,8.13199 456.5,14C 458.597,19.027 461.097,23.8603 464,28.5C 464.367,32.8708 463.534,37.0375 461.5,41C 480.75,77.2506 494.75,115.417 503.5,155.5C 512.266,154.539 517.266,158.372 518.5,167C 517.924,170.07 516.591,172.737 514.5,175C 515.803,179.769 514.637,183.935 511,187.5C 510.333,188.833 510.333,190.167 511,191.5C 521.667,198.167 530.333,206.833 537,217.5C 541.578,228.42 538.078,235.086 526.5,237.5C 525.558,237.392 524.725,237.059 524,236.5C 527.311,249.743 530.644,263.076 534,276.5C 536.21,285.047 537.71,293.714 538.5,302.5C 539.441,312.219 535.108,317.219 525.5,317.5C 525.393,323.88 525.893,330.213 527,336.5C 530.842,354.2 534.842,371.866 539,389.5C 540.871,400.268 536.538,406.602 526,408.5C 522.292,408.198 518.792,407.198 515.5,405.5C 514.902,412.18 515.402,418.847 517,425.5C 520.168,440.672 523.334,455.838 526.5,471C 522.997,483.947 515.664,486.613 504.5,479C 502.548,476.926 500.715,474.759 499,472.5C 499.532,485.328 500.365,498.162 501.5,511C 502.57,518.409 500.57,524.742 495.5,530C 487.592,532.754 480.925,530.92 475.5,524.5C 472.558,538.385 467.391,551.385 460,563.5C 454.786,566.993 448.953,568.493 442.5,568C 440.854,571.31 438.52,573.977 435.5,576C 426.032,580.71 416.199,584.21 406,586.5C 402.566,586.064 399.566,584.73 397,582.5C 387.807,589.345 377.973,595.011 367.5,599.5C 322.167,599.5 276.833,599.5 231.5,599.5C 222.232,593.19 212.899,586.856 203.5,580.5C 200.867,583.955 197.367,585.955 193,586.5C 185.15,583.496 177.317,580.329 169.5,577C 165.974,574.974 163.307,572.141 161.5,568.5C 157.391,566.671 153.224,566.338 149,567.5C 146.7,567.506 144.534,567.006 142.5,566C 136.028,559.962 132.194,552.462 131,543.5C 129.851,536.122 128.518,528.789 127,521.5C 123.033,525.474 118.533,528.641 113.5,531C 108.035,532.289 103.535,530.789 100,526.5C 98.0645,521.709 97.2312,516.709 97.5,511.5C 98.7415,498.503 99.5749,485.503 100,472.5C 95.0795,481.049 87.9129,484.216 78.5,482C 74.935,479.204 72.935,475.538 72.5,471C 77.215,450.64 81.215,430.14 84.5,409.5C 84.1667,408.167 83.8333,406.833 83.5,405.5C 76.3651,409.832 69.5318,409.499 63,404.5C 59.9668,399.894 58.9668,394.894 60,389.5C 63.8243,373.87 67.491,358.203 71,342.5C 72.7261,334.252 73.5594,325.918 73.5,317.5C 64.3186,316.845 59.9852,311.845 60.5,302.5C 63.5888,280.389 68.5888,258.722 75.5,237.5C 65.0823,237.572 60.249,232.239 61,221.5C 66.5016,208.83 75.3349,199.163 87.5,192.5C 88.8226,188.96 87.9893,185.96 85,183.5C 83.8049,180.813 83.6382,178.146 84.5,175.5C 77.7865,163.905 81.1198,157.072 94.5,155C 104.048,116.071 118.215,78.9039 137,43.5C 136.126,38.5386 135.459,33.5386 135,28.5C 135.894,25.6076 137.56,23.2743 140,21.5C 140.631,18.6074 141.464,15.7741 142.5,13C 140.905,7.62045 142.238,3.12045 146.5,-0.5 Z"/></g>
<g><path style="opacity:1" fill="#4b4848" d="M 182.5,-0.5 C 183.5,-0.5 184.5,-0.5 185.5,-0.5C 195.489,7.99411 204.322,17.6608 212,28.5C 231.579,56.6532 250.413,85.3199 268.5,114.5C 278.782,118.642 288.782,123.309 298.5,128.5C 305.323,126.865 311.656,124.031 317.5,120C 321.958,118.019 326.458,116.186 331,114.5C 353.021,77.7816 377.021,42.4483 403,8.5C 406.103,4.88599 409.603,1.88599 413.5,-0.5C 414.5,-0.5 415.5,-0.5 416.5,-0.5C 420.397,1.88599 423.897,4.88599 427,8.5C 429.937,12.721 433.104,16.721 436.5,20.5C 439.309,16.5233 442.309,12.69 445.5,9C 446.332,8.31232 446.998,8.47899 447.5,9.5C 445.362,15.2473 443.029,20.914 440.5,26.5C 442.803,24.7251 445.303,22.3918 448,19.5C 446.679,25.3711 446.346,31.3711 447,37.5C 447.119,33.5791 448.952,30.9124 452.5,29.5C 452.833,30.1667 453.167,30.8333 453.5,31.5C 451.68,36.368 451.18,41.368 452,46.5C 472.742,84.225 487.242,124.225 495.5,166.5C 499.535,165.633 503.535,165.633 507.5,166.5C 503.789,169.032 500.456,172.032 497.5,175.5C 499.343,175.755 501.343,175.922 503.5,176C 504.022,176.561 504.355,177.228 504.5,178C 503.303,179.52 501.803,180.687 500,181.5C 499.68,187.255 500.347,192.922 502,198.5C 509.914,203.744 517.248,209.744 524,216.5C 526.35,219.527 527.85,222.86 528.5,226.5C 523.172,225.852 517.838,225.685 512.5,226C 511.101,227.062 510.101,228.395 509.5,230C 518.564,253.423 524.898,277.59 528.5,302.5C 528.564,304.389 528.064,306.056 527,307.5C 521.956,301.847 517.956,302.514 515,309.5C 514.635,319.552 515.301,329.552 517,339.5C 520.667,355.503 524.334,371.503 528,387.5C 528.667,390.833 528.667,394.167 528,397.5C 526.612,398.554 525.112,398.72 523.5,398C 520.287,395.428 516.62,393.928 512.5,393.5C 508.69,393.805 506.19,395.805 505,399.5C 504.333,405.167 504.333,410.833 505,416.5C 508.623,435.184 512.123,453.851 515.5,472.5C 514.448,472.649 513.448,472.483 512.5,472C 507.833,466 502.5,460.667 496.5,456C 491.317,454.181 488.484,456.014 488,461.5C 488.411,478.857 489.577,496.19 491.5,513.5C 491.441,515.891 491.107,518.225 490.5,520.5C 489.635,521.583 488.635,521.749 487.5,521C 483,517.167 478.5,513.333 474,509.5C 470.99,480.812 463.324,453.478 451,427.5C 456.572,405.658 461.906,383.658 467,361.5C 471.493,336.075 471.493,310.742 467,285.5C 462.365,271.892 456.032,259.225 448,247.5C 414.354,209.37 372.854,197.537 323.5,212C 312.771,216.562 304.771,224.062 299.5,234.5C 289.877,220.396 276.544,212.229 259.5,210C 238.633,207.676 217.967,208.343 197.5,212C 184.742,217.021 172.742,223.354 161.5,231C 151.014,241.136 142.514,252.636 136,265.5C 134.667,269.5 133.333,273.5 132,277.5C 126.764,304.534 126.097,331.867 130,359.5C 135.201,382.874 142.368,405.54 151.5,427.5C 141.063,452.246 133.897,477.912 130,504.5C 128.287,507.46 125.787,509.626 122.5,511C 118.919,515.252 114.752,518.752 110,521.5C 109.667,521.167 109.333,520.833 109,520.5C 108.333,513.167 108.333,505.833 109,498.5C 110.91,486.224 111.577,473.891 111,461.5C 110.516,456.014 107.683,454.181 102.5,456C 96.5,460.667 91.1667,466 86.5,472C 85.552,472.483 84.552,472.649 83.5,472.5C 86.5425,454.453 90.0425,436.453 94,418.5C 94.6667,412.167 94.6667,405.833 94,399.5C 93.1121,395.474 90.6121,393.474 86.5,393.5C 81.7477,394.458 77.2477,396.125 73,398.5C 72.228,398.355 71.5613,398.022 71,397.5C 70.3333,393.833 70.3333,390.167 71,386.5C 74.1752,372.799 77.5086,359.132 81,345.5C 83.2504,333.584 84.2504,321.584 84,309.5C 81.0437,302.514 77.0437,301.847 72,307.5C 73.5563,280.269 79.3897,253.936 89.5,228.5C 89.3918,227.558 89.0585,226.725 88.5,226C 82.4898,225.591 76.4898,225.758 70.5,226.5C 71.2622,222.309 73.0956,218.642 76,215.5C 82.4208,209.075 89.4208,203.409 97,198.5C 98.1671,193.331 99.3338,188.164 100.5,183C 98.5,181.333 96.5,179.667 94.5,178C 94.6448,177.228 94.9781,176.561 95.5,176C 97.6565,175.922 99.6565,175.755 101.5,175.5C 98.7891,171.788 95.4558,168.788 91.5,166.5C 95.4463,165.816 99.4463,165.816 103.5,166.5C 112.11,123.831 126.944,83.4979 148,45.5C 148.131,40.022 147.298,34.6886 145.5,29.5C 149.751,30.2776 151.917,32.9443 152,37.5C 152.729,31.3421 152.396,25.3421 151,19.5C 153.706,21.8706 156.039,24.5372 158,27.5C 156.56,21.3557 154.394,15.3557 151.5,9.5C 151.833,9.16667 152.167,8.83333 152.5,8.5C 156.226,12.2721 159.726,16.2721 163,20.5C 168.66,12.6754 175.16,5.67535 182.5,-0.5 Z"/></g>
<g><path style="opacity:0.954" fill="#010101" d="M 185.5,-0.5 C 191.167,-0.5 196.833,-0.5 202.5,-0.5C 228.881,33.2426 253.048,68.576 275,105.5C 283.249,109.375 291.415,113.375 299.5,117.5C 306.893,113.472 314.559,109.972 322.5,107C 342.886,74.3891 364.386,42.5558 387,11.5C 390.336,7.33222 393.836,3.33222 397.5,-0.5C 402.833,-0.5 408.167,-0.5 413.5,-0.5C 409.603,1.88599 406.103,4.88599 403,8.5C 377.021,42.4483 353.021,77.7816 331,114.5C 326.458,116.186 321.958,118.019 317.5,120C 311.656,124.031 305.323,126.865 298.5,128.5C 288.782,123.309 278.782,118.642 268.5,114.5C 250.413,85.3199 231.579,56.6532 212,28.5C 204.322,17.6608 195.489,7.99411 185.5,-0.5 Z"/></g>
<g><path style="opacity:1" fill="#0a0808" d="M 175.5,27.5 C 180.121,26.9927 184.454,27.826 188.5,30C 192.702,33.8666 196.535,38.0332 200,42.5C 216.718,69.1003 231.218,96.9336 243.5,126C 242.768,129.901 240.434,131.735 236.5,131.5C 226.853,129.535 217.186,128.035 207.5,127C 211.277,129.955 212.443,133.788 211,138.5C 210.097,139.701 208.931,140.535 207.5,141C 191.168,143.333 174.835,145.667 158.5,148C 150.123,150.246 141.79,152.246 133.5,154C 131.848,152.53 130.848,150.697 130.5,148.5C 139.85,109.617 152.683,71.9508 169,35.5C 171.001,32.6693 173.167,30.0026 175.5,27.5 Z"/></g>
<g><path style="opacity:1" fill="#0a0807" d="M 414.5,27.5 C 417.518,27.3354 420.518,27.502 423.5,28C 424.931,28.4652 426.097,29.2986 427,30.5C 432.135,39.1033 436.468,48.1033 440,57.5C 451.313,87.1047 460.813,117.271 468.5,148C 468.775,151.06 467.442,153.06 464.5,154C 456.593,152.039 448.593,150.039 440.5,148C 424.165,145.667 407.832,143.333 391.5,141C 388.317,139.982 386.984,137.815 387.5,134.5C 387.279,131.209 388.613,128.709 391.5,127C 383.446,127.676 375.446,129.009 367.5,131C 363.909,131.789 360.409,131.622 357,130.5C 355.85,128.246 355.516,125.913 356,123.5C 366.218,101.397 377.218,79.7303 389,58.5C 393.274,51.228 397.941,44.228 403,37.5C 406.435,33.5549 410.268,30.2216 414.5,27.5 Z"/></g>
<g><path style="opacity:1" fill="#ca924f" d="M 177.5,32.5 C 179.989,32.2978 182.323,32.7978 184.5,34C 190.738,39.3343 195.904,45.5009 200,52.5C 213.552,76.2698 226.052,100.603 237.5,125.5C 236.667,125.833 235.833,126.167 235,126.5C 224.517,124.254 214.017,122.088 203.5,120C 199.129,119.172 194.795,119.339 190.5,120.5C 195.357,124.852 200.523,128.852 206,132.5C 206.684,133.784 206.517,134.951 205.5,136C 188.825,138.273 172.158,140.607 155.5,143C 148.71,144.374 142.21,146.541 136,149.5C 144.034,115.729 154.701,82.7288 168,50.5C 170.925,44.315 174.091,38.315 177.5,32.5 Z"/></g>
<g><path style="opacity:1" fill="#ca924f" d="M 416.5,32.5 C 419.044,32.1043 421.211,32.771 423,34.5C 435.515,60.2172 445.848,86.8839 454,114.5C 457.803,126.048 460.803,137.715 463,149.5C 456.466,146.49 449.632,144.323 442.5,143C 426.131,140.852 409.797,138.519 393.5,136C 392.549,135.282 392.383,134.449 393,133.5C 398.114,129.037 403.281,124.704 408.5,120.5C 404.205,119.339 399.871,119.172 395.5,120C 384.616,121.91 373.783,124.077 363,126.5C 362.5,126.167 362,125.833 361.5,125.5C 374.283,96.5924 389.116,68.9258 406,42.5C 409.396,38.9349 412.896,35.6015 416.5,32.5 Z"/></g>
<g><path style="opacity:1" fill="#b88025" d="M 352.5,216.5 C 396.789,216.221 429.289,235.554 450,274.5C 461.7,302.087 463.7,330.421 456,359.5C 452.915,376.507 448.582,393.174 443,409.5C 405.231,351.704 351.731,326.204 282.5,333C 227.926,339.017 186.76,365.517 159,412.5C 141.249,375.91 134.749,337.41 139.5,297C 146.254,258.579 168.254,233.579 205.5,222C 229.919,215.82 253.585,217.82 276.5,228C 285.085,233.249 290.585,240.749 293,250.5C 293.205,260.034 293.705,269.534 294.5,279C 296.158,282.297 298.825,283.297 302.5,282C 303.893,280.829 304.727,279.329 305,277.5C 300.584,241.109 316.417,220.776 352.5,216.5 Z"/></g>
<g><path style="opacity:1" fill="#241916" d="M 222.5,267.5 C 238.464,266.393 248.964,273.393 254,288.5C 256.243,305.873 249.076,317.04 232.5,322C 210.215,323.28 199.382,312.78 200,290.5C 203.002,278.332 210.502,270.665 222.5,267.5 Z"/></g>
<g><path style="opacity:1" fill="#241916" d="M 369.5,267.5 C 385.118,266.888 395.618,273.888 401,288.5C 403.193,305.292 396.36,316.459 380.5,322C 357.156,323.655 345.989,312.822 347,289.5C 350.459,277.872 357.959,270.539 369.5,267.5 Z"/></g>
<g><path style="opacity:1" fill="#f3f3f3" d="M 238.5,281.5 C 244.83,280.666 247.663,283.333 247,289.5C 241.943,294.075 238.109,293.242 235.5,287C 236.124,284.915 237.124,283.082 238.5,281.5 Z"/></g>
<g><path style="opacity:1" fill="#efeeee" d="M 383.5,281.5 C 389.83,280.666 392.663,283.333 392,289.5C 388.333,293.5 384.667,293.5 381,289.5C 380.018,286.225 380.851,283.559 383.5,281.5 Z"/></g>
<g><path style="opacity:1" fill="#cb924f" d="M 438.5,424.5 C 453.09,454.857 461.757,486.857 464.5,520.5C 464.354,536.464 457.687,548.798 444.5,557.5C 444.167,557.167 443.833,556.833 443.5,556.5C 442.368,551.909 441.701,547.242 441.5,542.5C 441.451,538.922 440.785,535.589 439.5,532.5C 439.315,530.804 438.481,529.471 437,528.5C 435.96,536.131 435.294,543.798 435,551.5C 434.254,555.896 433.254,560.23 432,564.5C 426.512,569.662 420.012,572.496 412.5,573C 409.059,569.301 405.725,565.467 402.5,561.5C 392.44,574.71 379.44,583.877 363.5,589C 330.61,597.905 297.276,599.905 263.5,595C 237.864,592.187 216.864,581.02 200.5,561.5C 197.632,565.385 194.632,569.218 191.5,573C 189.833,573.667 188.167,573.667 186.5,573C 182.5,571.333 178.5,569.667 174.5,568C 172.19,566.363 170.69,564.196 170,561.5C 168.461,552.56 167.627,543.56 167.5,534.5C 167.819,532.25 167.319,530.25 166,528.5C 164.097,530.441 163.264,532.774 163.5,535.5C 162.044,540.934 161.21,546.6 161,552.5C 160.598,553.872 160.098,555.205 159.5,556.5C 158.998,557.521 158.332,557.688 157.5,557C 145.094,547.853 139.094,535.52 139.5,520C 141.977,486.589 150.311,454.756 164.5,424.5C 198.199,366.475 248.865,339.642 316.5,344C 371.232,349.959 411.899,376.793 438.5,424.5 Z"/></g>
<g><path style="opacity:1" fill="#b17b25" d="M 438.5,424.5 C 411.899,376.793 371.232,349.959 316.5,344C 248.865,339.642 198.199,366.475 164.5,424.5C 193.459,369.983 239.126,342.65 301.5,342.5C 360.484,342.729 405.318,367.729 436,417.5C 437.411,419.65 438.245,421.984 438.5,424.5 Z"/></g>
<g><path style="opacity:1" fill="#040302" d="M 287.5,371.5 C 297.605,371.182 307.605,372.016 317.5,374C 331.622,379.082 335.789,388.582 330,402.5C 321.747,418.711 308.58,425.544 290.5,423C 275.635,417.806 266.968,407.473 264.5,392C 264.718,385.668 267.385,380.668 272.5,377C 277.34,374.386 282.34,372.553 287.5,371.5 Z"/></g>
<g><path style="opacity:1" fill="#231815" d="M 288.5,382.5 C 298.782,381.678 308.782,382.844 318.5,386C 322.222,390.603 322.389,395.436 319,400.5C 304.144,418.379 290.144,417.712 277,398.5C 274.856,394.518 275.022,390.685 277.5,387C 280.86,384.463 284.527,382.963 288.5,382.5 Z"/></g>
<g><path style="opacity:1" fill="#0d0905" d="M 287.5,439.5 C 294.834,440.613 302.167,440.78 309.5,440C 311.469,444.047 310.136,446.047 305.5,446C 299.144,446.594 292.811,446.427 286.5,445.5C 286.325,443.379 286.659,441.379 287.5,439.5 Z"/></g>
<g><path style="opacity:1" fill="#3b322d" d="M 167.5,534.5 C 166.71,533.391 166.21,532.058 166,530.5C 165.243,532.315 164.41,533.981 163.5,535.5C 163.264,532.774 164.097,530.441 166,528.5C 167.319,530.25 167.819,532.25 167.5,534.5 Z"/></g>
<g><path style="opacity:1" fill="#5a4635" d="M 439.5,532.5 C 440.785,535.589 441.451,538.922 441.5,542.5C 439.989,539.456 439.322,536.122 439.5,532.5 Z"/></g>
</svg>
