<?xml version="1.0" encoding="UTF-8"?>
<!DOCTYPE svg PUBLIC "-//W3C//DTD SVG 1.1//EN" "http://www.w3.org/Graphics/SVG/1.1/DTD/svg11.dtd">
<svg xmlns="http://www.w3.org/2000/svg" version="1.1" width="600px" height="600px" style="shape-rendering:geometricPrecision; text-rendering:geometricPrecision; image-rendering:optimizeQuality; fill-rule:evenodd; clip-rule:evenodd" xmlns:xlink="http://www.w3.org/1999/xlink">
<g><path style="opacity:0.955" fill="#010101" d="M 176.5,-0.5 C 259.167,-0.5 341.833,-0.5 424.5,-0.5C 432.058,1.43345 439.391,4.26679 446.5,8C 488.025,16.6029 526.358,32.6029 561.5,56C 580.31,74.0552 590.477,96.2218 592,122.5C 593.852,150.683 590.852,178.35 583,205.5C 575.131,230.773 567.464,256.107 560,281.5C 555.867,306.098 552.2,330.765 549,355.5C 546.69,360.124 544.023,364.457 541,368.5C 540.962,393.07 538.629,417.403 534,441.5C 530.589,455.318 525.256,468.318 518,480.5C 511,491.833 504,503.167 497,514.5C 488.667,524.167 479.667,533.167 470,541.5C 465.339,552.823 460.673,564.157 456,575.5C 442.664,594.723 424.83,600.556 402.5,593C 396.775,590.431 391.442,587.264 386.5,583.5C 371.683,589.659 356.683,594.992 341.5,599.5C 313.833,599.5 286.167,599.5 258.5,599.5C 243.428,595.085 228.594,589.752 214,583.5C 197.389,597.531 179.222,600.031 159.5,591C 153.29,586.458 148.124,580.958 144,574.5C 138.273,565.043 133.606,555.043 130,544.5C 105.596,527.75 88.2626,505.417 78,477.5C 68.2351,453.774 62.5684,429.107 61,403.5C 60.2067,390.84 59.54,378.173 59,365.5C 54.2807,362.444 51.6141,358.111 51,352.5C 48.2097,329.424 44.8763,306.424 41,283.5C 34.2735,258.987 26.9402,234.654 19,210.5C 12.3527,187.283 8.51935,163.616 7.5,139.5C 7.45561,117.346 12.2889,96.3465 22,76.5C 30.2096,63.6264 41.0429,53.4597 54.5,46C 85.4351,28.0205 118.435,15.3539 153.5,8C 161.057,4.54111 168.723,1.70778 176.5,-0.5 Z"/></g>
<g><path style="opacity:1" fill="#565655" d="M 444.5,18.5 C 465.716,35.2182 483.216,55.2182 497,78.5C 508.356,96.8802 516.69,116.547 522,137.5C 525.653,157.001 527.82,176.668 528.5,196.5C 523.297,160.11 513.131,124.443 498,89.5C 478.298,47.2956 444.965,26.629 398,27.5C 365.111,30.6759 332.278,34.3426 299.5,38.5C 277.402,36.4623 255.402,33.6289 233.5,30C 207.752,25.7016 182.419,27.3683 157.5,35C 136.689,43.4828 120.522,57.3161 109,76.5C 97.7775,97.833 89.1108,120.166 83,143.5C 78.6772,160.038 75.1772,176.038 72.5,191.5C 71.7435,154.003 80.5768,119.003 99,86.5C 113.297,59.7038 132.464,37.0372 156.5,18.5C 164.633,14.0648 173.3,10.8981 182.5,9C 197.233,6.62616 212.067,5.45949 227,5.5C 251.481,6.83759 275.981,7.50426 300.5,7.5C 331.167,6.66639 361.834,6.16639 392.5,6C 410.843,6.1742 428.176,10.3409 444.5,18.5 Z"/></g>
<g><path style="opacity:1" fill="#343433" d="M 156.5,18.5 C 132.464,37.0372 113.297,59.7038 99,86.5C 80.5768,119.003 71.7435,154.003 72.5,191.5C 71.5184,194.962 71.185,198.629 71.5,202.5C 68.4976,239.97 67.8309,277.637 69.5,315.5C 69.2894,331.134 69.6227,346.801 70.5,362.5C 69.5386,360.735 69.2053,358.735 69.5,356.5C 67.4727,356.662 65.4727,356.495 63.5,356C 59.2121,332.329 55.3788,308.496 52,284.5C 45.3406,258.856 37.6739,233.522 29,208.5C 20.818,180.045 17.4847,151.045 19,121.5C 20.8724,96.0371 31.7057,75.5371 51.5,60C 83.8573,39.4883 118.857,25.655 156.5,18.5 Z"/></g>
<g><path style="opacity:1" fill="#343433" d="M 444.5,18.5 C 481.238,25.8682 515.571,39.3682 547.5,59C 562.954,69.7225 573.12,84.2225 578,102.5C 582.171,119.604 583.504,136.938 582,154.5C 580.066,169.642 577.4,184.642 574,199.5C 565.266,227.036 556.933,254.703 549,282.5C 544.826,306.048 541.493,329.715 539,353.5C 536.804,356.125 533.97,357.125 530.5,356.5C 530.5,344.5 530.5,332.5 530.5,320.5C 531.611,290.181 531.778,259.848 531,229.5C 530.821,225.975 530.321,222.641 529.5,219.5C 529.825,211.648 529.492,203.982 528.5,196.5C 527.82,176.668 525.653,157.001 522,137.5C 516.69,116.547 508.356,96.8802 497,78.5C 483.216,55.2182 465.716,35.2182 444.5,18.5 Z"/></g>
<g><path style="opacity:1" fill="#4e4e4d" d="M 528.5,196.5 C 529.492,203.982 529.825,211.648 529.5,219.5C 529.547,236.543 528.713,253.543 527,270.5C 524.791,261.873 521.791,253.54 518,245.5C 512.793,198.665 500.126,153.998 480,111.5C 460.034,78.426 430.534,62.426 391.5,63.5C 366.95,64.9357 342.616,68.1023 318.5,73C 304.5,75 290.5,75 276.5,73C 252.223,68.0555 227.723,64.8889 203,63.5C 155.793,63.7159 123.46,85.7159 106,129.5C 88.4508,174.577 77.7841,221.244 74,269.5C 72.8394,264.584 72.1728,259.584 72,254.5C 71.5001,237.17 71.3334,219.837 71.5,202.5C 71.185,198.629 71.5184,194.962 72.5,191.5C 75.1772,176.038 78.6772,160.038 83,143.5C 89.1108,120.166 97.7775,97.833 109,76.5C 120.522,57.3161 136.689,43.4828 157.5,35C 182.419,27.3683 207.752,25.7016 233.5,30C 255.402,33.6289 277.402,36.4623 299.5,38.5C 332.278,34.3426 365.111,30.6759 398,27.5C 444.965,26.629 478.298,47.2956 498,89.5C 513.131,124.443 523.297,160.11 528.5,196.5 Z"/></g>
<g><path style="opacity:1" fill="#454544" d="M 529.5,219.5 C 530.321,222.641 530.821,225.975 531,229.5C 531.778,259.848 531.611,290.181 530.5,320.5C 527.078,309.426 522.911,298.426 518,287.5C 512.519,244.394 500.186,203.394 481,164.5C 477.061,157.733 472.228,151.733 466.5,146.5C 461.753,132.106 455.92,118.106 449,104.5C 441.801,93.6456 431.968,86.1456 419.5,82C 403.283,75.7782 386.616,74.1115 369.5,77C 344.963,87.0352 326.63,103.868 314.5,127.5C 304.218,128.452 293.885,128.786 283.5,128.5C 272.66,106.16 255.993,89.6603 233.5,79C 207.406,72.3034 183.072,76.3034 160.5,91C 156.298,94.8666 152.465,99.0332 149,103.5C 142.321,116.518 136.488,129.851 131.5,143.5C 123.006,150.83 116.173,159.497 111,169.5C 97.3521,197.11 87.6855,226.11 82,256.5C 78.5347,277.164 75.2014,297.83 72,318.5C 71.6667,319.167 71.3333,319.833 71,320.5C 70.8019,318.618 70.3019,316.952 69.5,315.5C 67.8309,277.637 68.4976,239.97 71.5,202.5C 71.3334,219.837 71.5001,237.17 72,254.5C 72.1728,259.584 72.8394,264.584 74,269.5C 77.7841,221.244 88.4508,174.577 106,129.5C 123.46,85.7159 155.793,63.7159 203,63.5C 227.723,64.8889 252.223,68.0555 276.5,73C 290.5,75 304.5,75 318.5,73C 342.616,68.1023 366.95,64.9357 391.5,63.5C 430.534,62.426 460.034,78.426 480,111.5C 500.126,153.998 512.793,198.665 518,245.5C 521.791,253.54 524.791,261.873 527,270.5C 528.713,253.543 529.547,236.543 529.5,219.5 Z"/></g>
<g><path style="opacity:1" fill="#353534" d="M 283.5,128.5 C 289.175,139.86 292.842,151.86 294.5,164.5C 246.598,164.381 206.098,181.381 173,215.5C 151.026,241.732 139.026,272.066 137,306.5C 136.366,334.684 136.866,362.851 138.5,391C 136.922,424.143 136.088,457.31 136,490.5C 127.354,479.874 121.354,467.874 118,454.5C 113.98,372.172 113.647,289.838 117,207.5C 120.256,185.81 125.089,164.477 131.5,143.5C 136.488,129.851 142.321,116.518 149,103.5C 152.465,99.0332 156.298,94.8666 160.5,91C 183.072,76.3034 207.406,72.3034 233.5,79C 255.993,89.6603 272.66,106.16 283.5,128.5 Z"/></g>
<g><path style="opacity:1" fill="#353534" d="M 466.5,146.5 C 479.535,187.439 485.702,229.439 485,272.5C 487.241,325.858 486.908,379.191 484,432.5C 482.257,438.487 480.09,444.321 477.5,450C 482.481,466.751 487.814,483.251 493.5,499.5C 485.955,513.713 475.289,525.046 461.5,533.5C 461.892,531.821 462.392,530.154 463,528.5C 463.167,510.167 463.333,491.833 463.5,473.5C 463.664,445.803 462.997,418.137 461.5,390.5C 462.62,369.679 463.62,348.846 464.5,328C 466.062,287.71 454.896,251.543 431,219.5C 405.601,190.709 373.768,173.209 335.5,167C 324.384,165.729 313.384,164.396 302.5,163C 304.804,150.589 308.804,138.755 314.5,127.5C 326.63,103.868 344.963,87.0352 369.5,77C 386.616,74.1115 403.283,75.7782 419.5,82C 431.968,86.1456 441.801,93.6456 449,104.5C 455.92,118.106 461.753,132.106 466.5,146.5 Z"/></g>
<g><path style="opacity:1" fill="#3b3b3a" d="M 314.5,127.5 C 308.804,138.755 304.804,150.589 302.5,163C 313.384,164.396 324.384,165.729 335.5,167C 373.768,173.209 405.601,190.709 431,219.5C 454.896,251.543 466.062,287.71 464.5,328C 463.62,348.846 462.62,369.679 461.5,390.5C 462.997,418.137 463.664,445.803 463.5,473.5C 463.333,491.833 463.167,510.167 463,528.5C 462.392,530.154 461.892,531.821 461.5,533.5C 459.065,541.705 456.065,549.705 452.5,557.5C 449.775,558.713 447.441,560.546 445.5,563C 433.055,569.09 420.722,568.756 408.5,562C 402.814,556.124 397.98,549.624 394,542.5C 384.55,525.263 375.383,507.93 366.5,490.5C 364.828,487.978 363.328,485.312 362,482.5C 353.2,457.768 344.2,433.101 335,408.5C 328.995,392.977 320.828,378.81 310.5,366C 301.69,359.64 293.356,360.307 285.5,368C 274.539,382.416 266.039,398.249 260,415.5C 252.996,437.178 245.996,458.844 239,480.5C 237.408,484.021 235.575,487.354 233.5,490.5C 223.951,509.263 214.117,527.93 204,546.5C 200.213,551.956 196.046,557.123 191.5,562C 177.224,569.343 163.224,569.176 149.5,561.5C 144.399,554.626 140.899,546.96 139,538.5C 116.78,523.73 100.447,504.063 90,479.5C 83.9646,463.098 78.7979,446.431 74.5,429.5C 71.6308,407.26 70.2975,384.927 70.5,362.5C 69.6227,346.801 69.2894,331.134 69.5,315.5C 70.3019,316.952 70.8019,318.618 71,320.5C 71.3333,319.833 71.6667,319.167 72,318.5C 75.2014,297.83 78.5347,277.164 82,256.5C 87.6855,226.11 97.3521,197.11 111,169.5C 116.173,159.497 123.006,150.83 131.5,143.5C 125.089,164.477 120.256,185.81 117,207.5C 113.647,289.838 113.98,372.172 118,454.5C 121.354,467.874 127.354,479.874 136,490.5C 136.088,457.31 136.922,424.143 138.5,391C 136.866,362.851 136.366,334.684 137,306.5C 139.026,272.066 151.026,241.732 173,215.5C 206.098,181.381 246.598,164.381 294.5,164.5C 292.842,151.86 289.175,139.86 283.5,128.5C 293.885,128.786 304.218,128.452 314.5,127.5 Z"/></g>
<g><path style="opacity:1" fill="#896c6c" d="M 179.5,170.5 C 187.076,177.433 195.409,178.267 204.5,173C 212.035,165.825 213.702,157.658 209.5,148.5C 212.417,145.697 215.75,143.363 219.5,141.5C 227.875,156.794 225.541,170.294 212.5,182C 202.222,188.95 191.222,190.284 179.5,186C 175.569,183.868 172.236,181.035 169.5,177.5C 172.317,174.337 175.65,172.004 179.5,170.5 Z"/></g>
<g><path style="opacity:1" fill="#8a6d6c" d="M 391.5,148.5 C 386.84,161.023 390.507,170.189 402.5,176C 410.143,177.505 416.81,175.672 422.5,170.5C 425.773,172.434 428.773,174.768 431.5,177.5C 427.323,182.756 421.99,186.256 415.5,188C 396.633,190.157 384.133,182.324 378,164.5C 377.333,159.5 377.333,154.5 378,149.5C 378.806,146.554 380.139,143.888 382,141.5C 385.631,143.311 388.798,145.644 391.5,148.5 Z"/></g>
<g><path style="opacity:1" fill="#3b3b3a" d="M 466.5,146.5 C 472.228,151.733 477.061,157.733 481,164.5C 500.186,203.394 512.519,244.394 518,287.5C 522.911,298.426 527.078,309.426 530.5,320.5C 530.5,332.5 530.5,344.5 530.5,356.5C 530.508,374.537 529.674,392.537 528,410.5C 526.819,432.894 520.819,453.894 510,473.5C 504.226,482.062 498.726,490.729 493.5,499.5C 487.814,483.251 482.481,466.751 477.5,450C 480.09,444.321 482.257,438.487 484,432.5C 486.908,379.191 487.241,325.858 485,272.5C 485.702,229.439 479.535,187.439 466.5,146.5 Z"/></g>
<g><path style="opacity:1" fill="#020101" d="M 209.5,148.5 C 213.702,157.658 212.035,165.825 204.5,173C 195.409,178.267 187.076,177.433 179.5,170.5C 188.634,162.04 198.634,154.706 209.5,148.5 Z"/></g>
<g><path style="opacity:1" fill="#020101" d="M 391.5,148.5 C 402.72,154.608 413.054,161.941 422.5,170.5C 416.81,175.672 410.143,177.505 402.5,176C 390.507,170.189 386.84,161.023 391.5,148.5 Z"/></g>
<g><path style="opacity:1" fill="#131413" d="M 286.5,204.5 C 311.558,201.597 334.224,207.43 354.5,222C 377.077,242.459 381.911,266.626 369,294.5C 359.841,310.021 346.341,317.187 328.5,316C 319.178,312.559 309.678,309.726 300,307.5C 290.614,309.609 281.447,312.442 272.5,316C 255.907,317.288 242.74,311.122 233,297.5C 215.589,257.4 226.756,228.234 266.5,210C 273.208,207.826 279.875,205.993 286.5,204.5 Z"/></g>
<g><path style="opacity:1" fill="#000000" d="M 287.5,205.5 C 317.276,202.144 342.443,211.144 363,232.5C 374.762,247.852 377.762,264.852 372,283.5C 365.313,304.399 351.146,314.899 329.5,315C 319.898,311.355 310.065,308.521 300,306.5C 290.198,308.323 280.698,311.156 271.5,315C 249.267,314.776 234.767,303.943 228,282.5C 221.387,253.999 230.553,232.166 255.5,217C 265.61,211.244 276.276,207.411 287.5,205.5 Z"/></g>
<g><path style="opacity:1" fill="#1a1a1a" d="M 289.5,209.5 C 310.551,207.763 329.885,212.596 347.5,224C 373.374,244.757 377.541,269.257 360,297.5C 353.4,304.938 345.234,309.605 335.5,311.5C 327.015,309.595 318.681,307.095 310.5,304C 302.409,301.898 294.409,302.232 286.5,305C 278.249,309.09 269.582,311.09 260.5,311C 240.306,302.987 229.973,287.987 229.5,266C 231.228,246.2 240.561,231.2 257.5,221C 267.61,215.244 278.276,211.411 289.5,209.5 Z"/></g>
<g><path style="opacity:1" fill="#000000" d="M 262.5,227.5 C 277.243,230.068 283.743,238.734 282,253.5C 278.9,259.213 274.066,262.38 267.5,263C 261.833,263.667 256.167,263.667 250.5,263C 248.773,261.611 247.439,259.944 246.5,258C 246.759,256.739 247.426,255.739 248.5,255C 254.489,253.213 260.323,251.046 266,248.5C 266.667,245.833 266.667,243.167 266,240.5C 264.027,237.536 262.527,234.369 261.5,231C 261.648,229.744 261.982,228.577 262.5,227.5 Z"/></g>
<g><path style="opacity:1" fill="#000000" d="M 335.5,227.5 C 338.59,226.83 340.257,227.997 340.5,231C 339.473,234.369 337.973,237.536 336,240.5C 335.333,243.167 335.333,245.833 336,248.5C 341.662,251.055 347.496,253.222 353.5,255C 356.215,258.72 355.215,261.387 350.5,263C 341.796,264.336 333.463,263.336 325.5,260C 319.333,254.306 317.833,247.473 321,239.5C 324.541,233.78 329.374,229.78 335.5,227.5 Z"/></g>
<g><path style="opacity:1" fill="#040202" d="M 366.5,490.5 C 362.118,499.262 356.284,506.929 349,513.5C 334.185,540.89 311.685,550.39 281.5,542C 268.085,536.085 258.085,526.585 251.5,513.5C 243.98,506.985 237.98,499.319 233.5,490.5C 235.575,487.354 237.408,484.021 239,480.5C 245.996,458.844 252.996,437.178 260,415.5C 266.039,398.249 274.539,382.416 285.5,368C 293.356,360.307 301.69,359.64 310.5,366C 320.828,378.81 328.995,392.977 335,408.5C 344.2,433.101 353.2,457.768 362,482.5C 363.328,485.312 364.828,487.978 366.5,490.5 Z"/></g>
<g><path style="opacity:1" fill="#ef8b92" d="M 296.5,371.5 C 301.542,371.015 305.376,373.015 308,377.5C 312.837,384.504 317.171,391.837 321,399.5C 331.98,426.256 341.813,453.422 350.5,481C 346.95,495.26 341.116,508.426 333,520.5C 318.527,536.028 301.361,539.861 281.5,532C 267.873,523.268 258.706,511.101 254,495.5C 252.091,490.441 250.591,485.274 249.5,480C 256.722,454.754 264.889,429.92 274,405.5C 277.563,397.604 281.563,389.938 286,382.5C 289.03,378.305 292.53,374.639 296.5,371.5 Z"/></g>
<g><path style="opacity:1" fill="#363534" d="M 233.5,490.5 C 237.98,499.319 243.98,506.985 251.5,513.5C 258.085,526.585 268.085,536.085 281.5,542C 311.685,550.39 334.185,540.89 349,513.5C 356.284,506.929 362.118,499.262 366.5,490.5C 375.383,507.93 384.55,525.263 394,542.5C 397.98,549.624 402.814,556.124 408.5,562C 420.722,568.756 433.055,569.09 445.5,563C 447.441,560.546 449.775,558.713 452.5,557.5C 443.692,583.239 426.692,591.072 401.5,581C 397.026,578.027 392.693,574.86 388.5,571.5C 360.057,584.735 330.224,592.402 299,594.5C 268.608,592.152 239.608,584.485 212,571.5C 201.615,581.775 189.115,586.608 174.5,586C 162.37,581.703 154.036,573.536 149.5,561.5C 163.224,569.176 177.224,569.343 191.5,562C 196.046,557.123 200.213,551.956 204,546.5C 214.117,527.93 223.951,509.263 233.5,490.5 Z"/></g>
</svg>
