<?xml version="1.0" encoding="UTF-8"?>
<!DOCTYPE svg PUBLIC "-//W3C//DTD SVG 1.1//EN" "http://www.w3.org/Graphics/SVG/1.1/DTD/svg11.dtd">
<svg xmlns="http://www.w3.org/2000/svg" version="1.1" width="600px" height="600px" style="shape-rendering:geometricPrecision; text-rendering:geometricPrecision; image-rendering:optimizeQuality; fill-rule:evenodd; clip-rule:evenodd" xmlns:xlink="http://www.w3.org/1999/xlink">
<g><path style="opacity:0.973" fill="#010101" d="M 599.5,302.5 C 599.5,310.167 599.5,317.833 599.5,325.5C 589.844,350.814 578.01,375.147 564,398.5C 549.2,423.943 533.033,448.443 515.5,472C 517.276,475.441 519.443,478.608 522,481.5C 525.662,489.691 524.162,496.857 517.5,503C 510.198,509.878 501.531,513.212 491.5,513C 481.321,509.167 473.154,502.667 467,493.5C 453.77,528.063 430.27,552.896 396.5,568C 391.186,569.021 386.186,568.188 381.5,565.5C 358.002,581.883 332.336,593.216 304.5,599.5C 301.167,599.5 297.833,599.5 294.5,599.5C 266.818,592.828 241.151,581.494 217.5,565.5C 213.191,568.257 208.525,569.091 203.5,568C 168.697,553.197 144.863,528.031 132,492.5C 115.96,519.814 97.6271,521.147 77,496.5C 74.4745,492.289 74.1412,487.955 76,483.5C 78.5,479.833 81,476.167 83.5,472.5C 55.293,434.075 30.4597,393.408 9,350.5C 5.51228,342.519 2.34561,334.519 -0.5,326.5C -0.5,319.167 -0.5,311.833 -0.5,304.5C 14.5119,237.3 37.0119,172.634 67,110.5C 73.2174,99.6197 80.2174,89.2863 88,79.5C 115.448,57.0156 145.948,39.5156 179.5,27C 198.043,19.6131 217.043,13.6131 236.5,9C 290.319,-1.70216 342.986,2.29784 394.5,21C 397.833,23 401.167,25 404.5,27C 436.106,38.6287 465.106,54.6287 491.5,75C 500.135,83.2952 507.635,92.4618 514,102.5C 551.351,165.389 579.851,232.056 599.5,302.5 Z"/></g>
<g><path style="opacity:1" fill="#2c2c2b" d="M 446.5,58.5 C 447.412,59.7382 447.579,61.0715 447,62.5C 444.167,64 442,66.1667 440.5,69C 443.699,72.5662 446.533,76.3996 449,80.5C 462.419,88.1268 475.919,95.6268 489.5,103C 493.567,105.399 496.567,108.732 498.5,113C 498.241,114.261 497.574,115.261 496.5,116C 493.161,116.39 489.827,116.224 486.5,115.5C 483.958,115.218 481.958,116.051 480.5,118C 486.12,128.74 491.62,139.573 497,150.5C 500.538,158.616 503.372,166.949 505.5,175.5C 505.66,178.696 504.66,181.363 502.5,183.5C 488.635,175.512 483.135,179.512 486,195.5C 489.703,211.726 493.537,227.893 497.5,244C 497.721,249.289 495.388,251.456 490.5,250.5C 486.642,253.202 482.976,252.869 479.5,249.5C 478.007,255.432 477.507,261.432 478,267.5C 482.59,274.68 486.09,282.347 488.5,290.5C 487.961,294.45 486.628,298.117 484.5,301.5C 485.802,304.708 486.469,308.041 486.5,311.5C 485.5,311.5 484.5,311.5 483.5,311.5C 485.627,324.374 484.794,337.041 481,349.5C 480.131,352.394 478.298,353.561 475.5,353C 472,349.5 468.5,346 465,342.5C 464.477,347.367 462.977,351.867 460.5,356C 462.24,364.096 462.74,372.262 462,380.5C 457.559,394.055 451.059,406.388 442.5,417.5C 443.245,385.572 440.745,353.905 435,322.5C 430.972,304.279 422.139,288.779 408.5,276C 394.459,267.312 381.126,257.646 368.5,247C 346.039,225.194 331.205,199.027 324,168.5C 317.851,146.57 315.851,124.237 318,101.5C 319.673,83.8061 325.673,67.8061 336,53.5C 340.023,44.5769 337.523,38.0769 328.5,34C 309.609,28.3726 290.609,28.0393 271.5,33C 262.994,35.4755 259.494,40.9755 261,49.5C 264.986,56.8016 268.986,64.135 273,71.5C 282.69,101.073 284.023,131.073 277,161.5C 270.571,186.793 259.905,210.126 245,231.5C 229.866,248.639 212.366,262.805 192.5,274C 176.568,287.701 166.734,304.868 163,325.5C 158.106,352.618 155.94,379.951 156.5,407.5C 155.669,418.659 155.169,429.993 155,441.5C 151.428,428.42 145.761,416.42 138,405.5C 133.888,398.612 130.888,391.278 129,383.5C 127.951,382.483 126.784,382.316 125.5,383C 123.548,385.074 121.715,387.241 120,389.5C 122.112,374.553 124.278,359.553 126.5,344.5C 126.333,343.833 126.167,343.167 126,342.5C 122.5,346 119,349.5 115.5,353C 113.633,353.711 112.133,353.211 111,351.5C 108.733,344.832 107.233,337.999 106.5,331C 108.186,324.262 108.686,317.428 108,310.5C 107.586,310.957 107.086,311.291 106.5,311.5C 105.33,308.182 105.33,304.849 106.5,301.5C 104.878,297.926 103.545,294.26 102.5,290.5C 105.09,283.314 108.257,276.314 112,269.5C 112.769,263.066 112.269,256.733 110.5,250.5C 106.945,253.12 103.445,253.12 100,250.5C 95.5068,252.687 93.3401,251.353 93.5,246.5C 97.8237,227.538 101.99,208.538 106,189.5C 106.804,185.796 106.304,182.296 104.5,179C 103.271,178.219 101.938,177.719 100.5,177.5C 96.5,179.833 92.5,182.167 88.5,184.5C 85.4058,183.326 84.0725,180.993 84.5,177.5C 85.42,170.906 87.2534,164.573 90,158.5C 95.7339,145.364 102.234,132.697 109.5,120.5C 108.907,118.618 108.24,116.785 107.5,115C 103.294,116.072 98.9609,116.406 94.5,116C 93.4238,114.274 93.2571,112.441 94,110.5C 97.5813,106.248 101.748,102.748 106.5,100C 118.405,94.133 129.905,87.633 141,80.5C 143.783,76.0493 146.95,71.8826 150.5,68C 147.983,65.6506 145.65,63.1506 143.5,60.5C 146.804,56.1759 151.137,53.3425 156.5,52C 161.139,50.8723 165.805,49.8723 170.5,49C 178.054,43.0615 186.054,37.8948 194.5,33.5C 235.075,16.3026 277.408,10.1359 321.5,15C 351.253,17.1027 379.253,25.1027 405.5,39C 410.519,41.8425 415.186,45.1759 419.5,49C 429.538,49.6223 438.538,52.789 446.5,58.5 Z"/></g>
<g><path style="opacity:1" fill="#131313" d="M 194.5,33.5 C 186.054,37.8948 178.054,43.0615 170.5,49C 165.805,49.8723 161.139,50.8723 156.5,52C 151.137,53.3425 146.804,56.1759 143.5,60.5C 145.65,63.1506 147.983,65.6506 150.5,68C 146.95,71.8826 143.783,76.0493 141,80.5C 129.905,87.633 118.405,94.133 106.5,100C 101.748,102.748 97.5813,106.248 94,110.5C 93.2571,112.441 93.4238,114.274 94.5,116C 98.9609,116.406 103.294,116.072 107.5,115C 108.24,116.785 108.907,118.618 109.5,120.5C 102.234,132.697 95.7339,145.364 90,158.5C 87.2534,164.573 85.42,170.906 84.5,177.5C 84.0725,180.993 85.4058,183.326 88.5,184.5C 92.5,182.167 96.5,179.833 100.5,177.5C 101.938,177.719 103.271,178.219 104.5,179C 106.304,182.296 106.804,185.796 106,189.5C 101.99,208.538 97.8237,227.538 93.5,246.5C 93.3401,251.353 95.5068,252.687 100,250.5C 103.445,253.12 106.945,253.12 110.5,250.5C 112.269,256.733 112.769,263.066 112,269.5C 108.257,276.314 105.09,283.314 102.5,290.5C 103.545,294.26 104.878,297.926 106.5,301.5C 105.33,304.849 105.33,308.182 106.5,311.5C 107.086,311.291 107.586,310.957 108,310.5C 108.686,317.428 108.186,324.262 106.5,331C 107.233,337.999 108.733,344.832 111,351.5C 112.133,353.211 113.633,353.711 115.5,353C 119,349.5 122.5,346 126,342.5C 126.167,343.167 126.333,343.833 126.5,344.5C 124.278,359.553 122.112,374.553 120,389.5C 121.715,387.241 123.548,385.074 125.5,383C 126.784,382.316 127.951,382.483 129,383.5C 130.888,391.278 133.888,398.612 138,405.5C 145.761,416.42 151.428,428.42 155,441.5C 155.169,429.993 155.669,418.659 156.5,407.5C 155.521,446.723 157.354,485.723 162,524.5C 150.214,510.927 142.714,495.26 139.5,477.5C 135.445,477.176 131.445,477.509 127.5,478.5C 123.441,488.462 117.108,496.629 108.5,503C 99.3779,502.522 91.8779,498.688 86,491.5C 85.3333,490.167 85.3333,488.833 86,487.5C 91.4728,481.897 94.1395,475.23 94,467.5C 84.6139,456.407 75.9472,444.74 68,432.5C 46.7512,400.009 28.0845,366.009 12,330.5C 9.43406,324.386 8.43406,318.053 9,311.5C 22.4605,249.452 42.1272,189.452 68,131.5C 75.4948,115.831 84.4948,101.164 95,87.5C 118.999,67.7394 145.499,51.906 174.5,40C 181.03,37.3231 187.697,35.1564 194.5,33.5 Z"/></g>
<g><path style="opacity:1" fill="#fefefe" d="M 344.5,487.5 C 339.003,476.679 332.336,466.679 324.5,457.5C 315.533,442.4 302.866,438.066 286.5,444.5C 285.448,444.351 284.448,444.517 283.5,445C 270.637,457.255 260.637,471.421 253.5,487.5C 243.679,505.627 230.679,521.127 214.5,534C 190.685,548.006 176.185,541.506 171,514.5C 165.91,460.55 165.244,406.55 169,352.5C 170.198,331.58 176.198,312.247 187,294.5C 189.128,291.37 191.628,288.537 194.5,286C 203.56,279.275 212.893,272.942 222.5,267C 254.694,242.824 275.527,210.991 285,171.5C 293.85,138.007 293.517,104.673 284,71.5C 280.532,62.5603 276.032,54.227 270.5,46.5C 270.977,45.5224 271.643,44.6891 272.5,44C 290.163,38.0337 307.83,38.0337 325.5,44C 326.516,44.5194 327.182,45.3527 327.5,46.5C 313.025,69.2764 306.025,94.2764 306.5,121.5C 307.656,167.149 322.156,207.816 350,243.5C 365.4,258.575 382.234,271.742 400.5,283C 415.526,296.884 424.36,314.051 427,334.5C 429.684,351.397 431.351,368.397 432,385.5C 433.437,428.589 432.104,471.589 428,514.5C 423.195,540.66 409.029,547.493 385.5,535C 377.349,528.848 369.849,522.015 363,514.5C 356.58,505.596 350.413,496.596 344.5,487.5 Z"/></g>
<g><path style="opacity:1" fill="#121212" d="M 446.5,58.5 C 463.611,67.1468 479.111,78.1468 493,91.5C 514.56,121.265 532.56,153.265 547,187.5C 561.443,220.495 574.11,254.162 585,288.5C 587.073,296.958 588.907,305.458 590.5,314C 588.877,323.537 586.043,332.704 582,341.5C 560.73,386.382 535.064,428.382 505,467.5C 504.599,471.316 505.266,474.983 507,478.5C 509.248,481.328 511.248,484.328 513,487.5C 513.635,489.635 513.301,491.635 512,493.5C 502.413,504.376 492.413,505.043 482,495.5C 477.445,489.945 473.279,484.112 469.5,478C 466.183,477.502 462.85,477.335 459.5,477.5C 456.455,494.821 449.288,510.154 438,523.5C 439.508,500.873 440.842,478.206 442,455.5C 442.5,442.838 442.667,430.171 442.5,417.5C 451.059,406.388 457.559,394.055 462,380.5C 462.74,372.262 462.24,364.096 460.5,356C 462.977,351.867 464.477,347.367 465,342.5C 468.5,346 472,349.5 475.5,353C 478.298,353.561 480.131,352.394 481,349.5C 484.794,337.041 485.627,324.374 483.5,311.5C 484.5,311.5 485.5,311.5 486.5,311.5C 486.469,308.041 485.802,304.708 484.5,301.5C 486.628,298.117 487.961,294.45 488.5,290.5C 486.09,282.347 482.59,274.68 478,267.5C 477.507,261.432 478.007,255.432 479.5,249.5C 482.976,252.869 486.642,253.202 490.5,250.5C 495.388,251.456 497.721,249.289 497.5,244C 493.537,227.893 489.703,211.726 486,195.5C 483.135,179.512 488.635,175.512 502.5,183.5C 504.66,181.363 505.66,178.696 505.5,175.5C 503.372,166.949 500.538,158.616 497,150.5C 491.62,139.573 486.12,128.74 480.5,118C 481.958,116.051 483.958,115.218 486.5,115.5C 489.827,116.224 493.161,116.39 496.5,116C 497.574,115.261 498.241,114.261 498.5,113C 496.567,108.732 493.567,105.399 489.5,103C 475.919,95.6268 462.419,88.1268 449,80.5C 446.533,76.3996 443.699,72.5662 440.5,69C 442,66.1667 444.167,64 447,62.5C 447.579,61.0715 447.412,59.7382 446.5,58.5 Z"/></g>
<g><path style="opacity:1" fill="#979796" d="M 177.5,219.5 C 181.029,223.932 185.696,226.265 191.5,226.5C 208.625,222.911 214.292,212.911 208.5,196.5C 211.372,193.719 214.705,192.719 218.5,193.5C 224.535,207.643 221.868,219.81 210.5,230C 195.83,239.583 182.163,238.417 169.5,226.5C 171.589,223.405 174.256,221.071 177.5,219.5 Z"/></g>
<g><path style="opacity:1" fill="#979796" d="M 384.5,198.5 C 380.415,216.833 387.748,226.333 406.5,227C 411.804,226.02 416.137,223.52 419.5,219.5C 422.63,220.572 425.296,222.406 427.5,225C 410.751,240.808 394.584,240.308 379,223.5C 374.338,214.569 373.338,205.236 376,195.5C 376.414,195.043 376.914,194.709 377.5,194.5C 380.349,195.1 382.682,196.433 384.5,198.5 Z"/></g>
<g><path style="opacity:1" fill="#010101" d="M 208.5,196.5 C 214.292,212.911 208.625,222.911 191.5,226.5C 185.696,226.265 181.029,223.932 177.5,219.5C 186.904,210.626 197.237,202.96 208.5,196.5 Z"/></g>
<g><path style="opacity:1" fill="#010101" d="M 384.5,198.5 C 395.871,203.019 406.537,208.852 416.5,216C 417.71,217.039 418.71,218.206 419.5,219.5C 416.137,223.52 411.804,226.02 406.5,227C 387.748,226.333 380.415,216.833 384.5,198.5 Z"/></g>
<g><path style="opacity:1" fill="#010101" d="M 295.5,396.5 C 280.782,395.04 267.448,390.04 255.5,381.5C 235.537,368.779 227.704,350.779 232,327.5C 238.602,313.091 249.769,304.258 265.5,301C 290.074,296.06 314.408,297.06 338.5,304C 361.858,313.891 369.691,331.058 362,355.5C 347.459,381.15 325.293,394.817 295.5,396.5 Z"/></g>
<g><path style="opacity:1" fill="#f0f0f0" d="M 255.5,381.5 C 267.448,390.04 280.782,395.04 295.5,396.5C 291.408,404.352 287.574,412.352 284,420.5C 274.257,407.604 264.757,394.604 255.5,381.5 Z"/></g>
<g><path style="opacity:1" fill="#a7a8a7" d="M 395.5,385.5 C 398.99,385.151 401.323,386.651 402.5,390C 400.019,395.248 396.852,395.748 393,391.5C 392.458,388.918 393.292,386.918 395.5,385.5 Z"/></g>
<g><path style="opacity:1" fill="#000000" d="M 396.5,386.5 C 401.289,388.2 401.622,390.533 397.5,393.5C 392.75,391.507 392.416,389.174 396.5,386.5 Z"/></g>
<g><path style="opacity:1" fill="#bcbcbc" d="M 197.5,384.5 C 204.163,383.333 206.997,385.999 206,392.5C 203.162,396.035 199.995,396.368 196.5,393.5C 195.137,390.313 195.471,387.313 197.5,384.5 Z"/></g>
<g><path style="opacity:1" fill="#000000" d="M 198.5,385.5 C 205.492,385.976 206.825,388.809 202.5,394C 196.528,393.554 195.195,390.72 198.5,385.5 Z"/></g>
<g><path style="opacity:1" fill="#a7a8a7" d="M 371.5,407.5 C 378.866,410.212 379.199,413.545 372.5,417.5C 366.478,414.504 366.145,411.171 371.5,407.5 Z"/></g>
<g><path style="opacity:1" fill="#000000" d="M 370.5,409.5 C 375.159,409.015 376.492,410.848 374.5,415C 371.469,416.075 369.469,415.075 368.5,412C 369.381,411.292 370.047,410.458 370.5,409.5 Z"/></g>
<g><path style="opacity:1" fill="#c0c0c0" d="M 223.5,406.5 C 231.972,407.352 233.639,411.185 228.5,418C 222.171,418.668 219.671,415.834 221,409.5C 222.045,408.627 222.878,407.627 223.5,406.5 Z"/></g>
<g><path style="opacity:1" fill="#000000" d="M 225.5,407.5 C 231.934,410.41 232.101,413.743 226,417.5C 220.202,414.344 220.035,411.01 225.5,407.5 Z"/></g>
<g><path style="opacity:1" fill="#a7a8a7" d="M 401.5,430.5 C 404.99,430.151 407.323,431.651 408.5,435C 405.968,440.263 402.802,440.763 399,436.5C 398.458,433.918 399.292,431.918 401.5,430.5 Z"/></g>
<g><path style="opacity:1" fill="#bbbbbb" d="M 192.5,429.5 C 200.168,429.507 202.168,432.84 198.5,439.5C 191.874,441.705 189.041,439.372 190,432.5C 190.698,431.309 191.531,430.309 192.5,429.5 Z"/></g>
<g><path style="opacity:1" fill="#000000" d="M 193.5,430.5 C 198.365,430.684 200.032,433.018 198.5,437.5C 194.751,440.418 192.085,439.585 190.5,435C 190.957,433.06 191.957,431.56 193.5,430.5 Z"/></g>
<g><path style="opacity:1" fill="#000000" d="M 402.5,431.5 C 407.289,433.2 407.622,435.533 403.5,438.5C 398.802,436.546 398.469,434.213 402.5,431.5 Z"/></g>
<g><path style="opacity:1" fill="#ab6f71" d="M 324.5,457.5 C 321.036,454.538 317.703,451.371 314.5,448C 305.677,441.685 296.343,440.851 286.5,445.5C 286.5,445.167 286.5,444.833 286.5,444.5C 302.866,438.066 315.533,442.4 324.5,457.5 Z"/></g>
<g><path style="opacity:1" fill="#a7a8a7" d="M 365.5,443.5 C 371.53,443.815 373.197,446.481 370.5,451.5C 366.58,453.347 363.914,452.181 362.5,448C 363.386,446.385 364.386,444.885 365.5,443.5 Z"/></g>
<g><path style="opacity:1" fill="#bcbcbc" d="M 235.5,449.5 C 234.172,453.254 231.506,454.421 227.5,453C 224.833,449.667 224.833,446.333 227.5,443C 230.956,441.877 233.79,442.71 236,445.5C 236.765,447.066 236.598,448.399 235.5,449.5 Z"/></g>
<g><path style="opacity:1" fill="#000000" d="M 235.5,449.5 C 236.598,448.399 236.765,447.066 236,445.5C 233.79,442.71 230.956,441.877 227.5,443C 224.833,446.333 224.833,449.667 227.5,453C 231.506,454.421 234.172,453.254 235.5,449.5 Z"/></g>
<g><path style="opacity:1" fill="#000000" d="M 366.5,444.5 C 372.406,446.338 372.74,448.672 367.5,451.5C 363.967,449.58 363.633,447.246 366.5,444.5 Z"/></g>
<g><path style="opacity:1" fill="#f09c9e" d="M 323.5,514.5 C 307.5,521.167 291.5,521.167 275.5,514.5C 268.836,510.167 263.503,504.5 259.5,497.5C 267.656,482.018 277.656,467.851 289.5,455C 294.732,452.343 300.066,452.01 305.5,454C 309.299,456.797 312.799,459.964 316,463.5C 323.833,475.167 331.667,486.833 339.5,498.5C 335.118,504.882 329.785,510.215 323.5,514.5 Z"/></g>
<g><path style="opacity:1" fill="#ab6e71" d="M 324.5,457.5 C 332.336,466.679 339.003,476.679 344.5,487.5C 337.892,478.082 331.225,468.082 324.5,457.5 Z"/></g>
<g><path style="opacity:1" fill="#ca9899" d="M 286.5,444.5 C 286.5,444.833 286.5,445.167 286.5,445.5C 281.594,448.898 277.094,452.898 273,457.5C 266.227,467.394 259.727,477.394 253.5,487.5C 260.637,471.421 270.637,457.255 283.5,445C 284.448,444.517 285.448,444.351 286.5,444.5 Z"/></g>
<g><path style="opacity:1" fill="#a7a8a7" d="M 394.5,470.5 C 401.516,472.564 402.183,475.897 396.5,480.5C 390.738,478.125 390.071,474.792 394.5,470.5 Z"/></g>
<g><path style="opacity:1" fill="#000000" d="M 395.5,471.5 C 400.352,473.785 400.518,476.118 396,478.5C 394.378,478.046 393.212,477.046 392.5,475.5C 393.524,474.148 394.524,472.815 395.5,471.5 Z"/></g>
<g><path style="opacity:1" fill="#bcbcbc" d="M 199.5,469.5 C 207.365,469.838 209.365,473.338 205.5,480C 200.308,481.872 197.308,480.205 196.5,475C 196.863,472.808 197.863,470.974 199.5,469.5 Z"/></g>
<g><path style="opacity:1" fill="#000000" d="M 201.5,470.5 C 206.587,472.04 207.587,474.874 204.5,479C 199.545,480.376 197.379,478.542 198,473.5C 199.145,472.364 200.312,471.364 201.5,470.5 Z"/></g>
<g><path style="opacity:1" fill="#121212" d="M 275.5,514.5 C 291.5,521.167 307.5,521.167 323.5,514.5C 331.563,513.384 339.563,512.218 347.5,511C 357.972,526.474 371.306,538.807 387.5,548C 392.982,550.121 398.649,551.454 404.5,552C 400.44,554.696 396.107,556.863 391.5,558.5C 388.473,557.639 385.806,556.139 383.5,554C 382.167,553.333 380.833,553.333 379.5,554C 355.582,571.79 328.915,583.29 299.5,588.5C 270.115,583.308 243.449,571.808 219.5,554C 218.167,553.333 216.833,553.333 215.5,554C 213.194,556.139 210.527,557.639 207.5,558.5C 203.067,556.576 198.734,554.409 194.5,552C 204.325,550.837 213.325,547.503 221.5,542C 232.759,532.075 243.259,521.575 253,510.5C 260.409,512.415 267.909,513.749 275.5,514.5 Z"/></g>
</svg>
