<?xml version="1.0" encoding="UTF-8"?>
<!DOCTYPE svg PUBLIC "-//W3C//DTD SVG 1.1//EN" "http://www.w3.org/Graphics/SVG/1.1/DTD/svg11.dtd">
<svg xmlns="http://www.w3.org/2000/svg" version="1.1" width="600px" height="600px" style="shape-rendering:geometricPrecision; text-rendering:geometricPrecision; image-rendering:optimizeQuality; fill-rule:evenodd; clip-rule:evenodd" xmlns:xlink="http://www.w3.org/1999/xlink">
<g><path style="opacity:0.968" fill="#020202" d="M 226.5,58.5 C 231.355,58.9202 236.022,60.0868 240.5,62C 247.679,70.5123 255.512,78.3457 264,85.5C 287.668,82.8481 311.335,82.8481 335,85.5C 343.488,78.3457 351.321,70.5123 358.5,62C 362.552,60.4556 366.718,59.289 371,58.5C 413.385,64.441 453.218,77.941 490.5,99C 524.028,117.51 555.195,139.343 584,164.5C 590.036,173.634 592.036,183.634 590,194.5C 584.352,226.443 573.352,256.443 557,284.5C 546.605,299.899 536.605,315.565 527,331.5C 520.593,337.311 513.093,339.478 504.5,338C 490.358,334.514 477.858,328.014 467,318.5C 456.622,344.591 444.622,369.924 431,394.5C 423.79,411.965 418.29,429.965 414.5,448.5C 412.667,461.834 410.833,475.167 409,488.5C 407.233,507.173 399.733,523.006 386.5,536C 369.361,545.756 352.195,545.59 335,535.5C 330.895,537.989 326.395,539.489 321.5,540C 301.39,544.043 281.723,542.543 262.5,535.5C 229.221,550.364 206.721,540.697 195,506.5C 192.952,499.258 191.285,491.925 190,484.5C 188.327,459.466 183.327,435.133 175,411.5C 164.195,387.891 152.862,364.558 141,341.5C 137.991,333.8 134.991,326.133 132,318.5C 118.574,330.966 102.74,337.466 84.5,338C 79.15,336.572 74.65,333.739 71,329.5C 63.1207,315.627 54.454,302.294 45,289.5C 30.127,264.422 19.127,237.755 12,209.5C 10.3788,201.896 9.21211,194.229 8.5,186.5C 8.19203,174.283 12.8587,164.45 22.5,157C 56.8932,128.988 94.2265,105.322 134.5,86C 163.977,72.4482 194.644,63.2815 226.5,58.5 Z"/></g>
<g><path style="opacity:1" fill="#252323" d="M 235.5,72.5 C 234.847,77.0029 233.013,81.0029 230,84.5C 222.175,92.145 215.342,100.478 209.5,109.5C 201.115,122.269 194.282,135.936 189,150.5C 180.424,177.472 173.424,204.806 168,232.5C 161.946,256.537 151.78,278.537 137.5,298.5C 124.966,314.192 108.799,323.859 89,327.5C 84.5776,328.091 81.2443,326.424 79,322.5C 70.3943,308.231 61.3943,294.231 52,280.5C 39.3986,258.357 29.732,235.024 23,210.5C 19.9714,199.676 18.9714,188.676 20,177.5C 22.3535,172.142 25.8535,167.642 30.5,164C 70.327,131.901 113.994,105.901 161.5,86C 184.604,76.3746 208.604,71.0412 233.5,70C 234.381,70.7083 235.047,71.5416 235.5,72.5 Z"/></g>
<g><path style="opacity:1" fill="#252323" d="M 461.5,298.5 C 446.434,277.357 435.934,254.023 430,228.5C 424.774,201.036 417.774,174.036 409,147.5C 403.949,134.664 397.949,122.33 391,110.5C 389.698,109.915 388.531,109.249 387.5,108.5C 388.239,108.631 388.906,108.464 389.5,108C 382.75,98.5793 375.25,89.746 367,81.5C 365.544,78.9244 364.377,76.2577 363.5,73.5C 363.511,71.9826 364.177,70.8159 365.5,70C 386.36,71.0385 406.693,75.0385 426.5,82C 465.792,96.6428 502.459,115.976 536.5,140C 546.833,147.667 557.167,155.333 567.5,163C 572.083,166.912 575.917,171.412 579,176.5C 580.764,183.464 580.764,190.464 579,197.5C 572.726,227.707 561.726,256.04 546,282.5C 536.668,295.826 527.835,309.493 519.5,323.5C 517.03,326.883 513.697,328.216 509.5,327.5C 497.784,325.475 487.117,320.975 477.5,314C 471.637,309.302 466.303,304.135 461.5,298.5 Z"/></g>
<g><path style="opacity:1" fill="#161515" d="M 235.5,72.5 C 242.603,80.1048 249.937,87.6048 257.5,95C 259.134,95.4935 260.801,95.6602 262.5,95.5C 244.811,99.7235 227.145,104.39 209.5,109.5C 215.342,100.478 222.175,92.145 230,84.5C 233.013,81.0029 234.847,77.0029 235.5,72.5 Z"/></g>
<g><path style="opacity:1" fill="#161515" d="M 363.5,73.5 C 364.377,76.2577 365.544,78.9244 367,81.5C 375.25,89.746 382.75,98.5793 389.5,108C 388.906,108.464 388.239,108.631 387.5,108.5C 370.57,104.769 353.903,100.435 337.5,95.5C 338.873,95.6567 340.207,95.49 341.5,95C 348.702,87.6308 356.035,80.4641 363.5,73.5 Z"/></g>
<g><path style="opacity:1" fill="#322f2f" d="M 337.5,95.5 C 353.903,100.435 370.57,104.769 387.5,108.5C 388.531,109.249 389.698,109.915 391,110.5C 397.949,122.33 403.949,134.664 409,147.5C 417.774,174.036 424.774,201.036 430,228.5C 435.934,254.023 446.434,277.357 461.5,298.5C 456.436,319.29 448.603,338.957 438,357.5C 434.676,356.094 431.176,355.428 427.5,355.5C 413.51,357.758 399.51,357.924 385.5,356C 376.304,352.475 368.471,346.975 362,339.5C 353.141,327.622 345.475,314.955 339,301.5C 337.079,299.037 334.746,297.037 332,295.5C 331.147,283.419 331.813,271.419 334,259.5C 337.393,243.596 341.227,227.93 345.5,212.5C 346.607,214.931 348.607,215.931 351.5,215.5C 358.818,213.671 366.151,211.837 373.5,210C 382.644,205.888 384.977,199.555 380.5,191C 368.646,184.146 357.979,185.646 348.5,195.5C 349.555,183.855 349.721,172.189 349,160.5C 344.511,140.346 332.011,128.846 311.5,126C 298.954,124.702 286.621,125.702 274.5,129C 259.531,136.095 251.364,147.928 250,164.5C 249.37,174.516 249.537,184.516 250.5,194.5C 240.657,185.593 229.99,184.427 218.5,191C 215.903,193.317 215.07,196.15 216,199.5C 217.686,204.394 220.853,207.894 225.5,210C 232.764,212.149 240.098,213.983 247.5,215.5C 250.078,215.558 252.411,214.891 254.5,213.5C 257.995,228.148 261.495,242.815 265,257.5C 267.406,269.429 267.906,281.429 266.5,293.5C 264.192,294.641 262.359,296.308 261,298.5C 253.366,317.778 242.199,334.611 227.5,349C 222.33,352.618 216.663,355.284 210.5,357C 197.287,357.778 184.12,357.278 171,355.5C 167.491,355.452 164.157,356.119 161,357.5C 150.692,338.728 142.859,319.061 137.5,298.5C 151.78,278.537 161.946,256.537 168,232.5C 173.424,204.806 180.424,177.472 189,150.5C 194.282,135.936 201.115,122.269 209.5,109.5C 227.145,104.39 244.811,99.7235 262.5,95.5C 287.497,94.2023 312.497,94.2023 337.5,95.5 Z"/></g>
<g><path style="opacity:1" fill="#eeeeee" d="M 327.5,302.5 C 330.683,314.521 333.516,326.521 336,338.5C 345.454,360.074 355.454,381.408 366,402.5C 377.565,426.559 382.232,451.893 380,478.5C 375.771,504.894 360.604,520.561 334.5,525.5C 324.615,524.816 315.615,521.65 307.5,516C 301.903,507.347 301.07,498.181 305,488.5C 305.833,487.667 306.667,486.833 307.5,486C 318.067,483.3 327.234,478.133 335,470.5C 343.971,458.869 344.638,446.869 337,434.5C 330.108,428.14 321.941,424.64 312.5,424C 303.833,423.333 295.167,423.333 286.5,424C 257.528,428.446 249.695,443.612 263,469.5C 271.335,477.829 281.168,483.663 292.5,487C 294.317,488.8 295.484,490.966 296,493.5C 297.035,500.355 296.368,507.022 294,513.5C 285.917,520.699 276.417,524.699 265.5,525.5C 237.352,522.519 221.518,506.853 218,478.5C 217.5,468.172 217.334,457.839 217.5,447.5C 219.678,436.794 222.512,426.127 226,415.5C 236.786,390.594 248.119,365.928 260,341.5C 265.154,328.872 268.988,315.872 271.5,302.5C 272.599,291.534 272.765,280.534 272,269.5C 267.475,246.4 262.475,223.4 257,200.5C 253.355,184.381 253.688,168.381 258,152.5C 262.502,141.335 270.669,134.501 282.5,132C 293.833,130 305.167,130 316.5,132C 331.866,136.033 341.032,145.866 344,161.5C 344.92,175.576 344.253,189.576 342,203.5C 335.892,226.265 330.892,249.265 327,272.5C 326.37,282.516 326.537,292.516 327.5,302.5 Z"/></g>
<g><path style="opacity:1" fill="#dfd5c4" d="M 250.5,194.5 C 251.983,200.771 253.317,207.105 254.5,213.5C 252.411,214.891 250.078,215.558 247.5,215.5C 240.098,213.983 232.764,212.149 225.5,210C 220.853,207.894 217.686,204.394 216,199.5C 215.07,196.15 215.903,193.317 218.5,191C 229.99,184.427 240.657,185.593 250.5,194.5 Z"/></g>
<g><path style="opacity:1" fill="#dfd6c5" d="M 345.5,212.5 C 346.35,206.776 347.35,201.109 348.5,195.5C 357.979,185.646 368.646,184.146 380.5,191C 384.977,199.555 382.644,205.888 373.5,210C 366.151,211.837 358.818,213.671 351.5,215.5C 348.607,215.931 346.607,214.931 345.5,212.5 Z"/></g>
<g><path style="opacity:1" fill="#73533e" d="M 219.5,232.5 C 247.332,230.834 260.832,243.834 260,271.5C 251.725,293.553 236.225,301.053 213.5,294C 195.469,282.436 190.969,266.936 200,247.5C 204.695,239.95 211.195,234.95 219.5,232.5 Z"/></g>
<g><path style="opacity:1" fill="#72533e" d="M 367.5,231.5 C 383.329,231.493 394.829,238.493 402,252.5C 407.282,278.272 396.949,293.272 371,297.5C 350.814,295.147 339.981,283.813 338.5,263.5C 340.554,245.785 350.221,235.118 367.5,231.5 Z"/></g>
<g><path style="opacity:1" fill="#1e1d1b" d="M 220.5,244.5 C 241.078,243.234 249.244,252.567 245,272.5C 239.563,281.989 231.397,285.489 220.5,283C 209.664,277.816 205.498,269.316 208,257.5C 210.387,251.343 214.554,247.01 220.5,244.5 Z"/></g>
<g><path style="opacity:1" fill="#1e1d1b" d="M 366.5,244.5 C 384.67,243.169 392.837,251.502 391,269.5C 386.493,281.174 377.993,285.674 365.5,283C 352.894,276.521 349.394,266.687 355,253.5C 358.045,249.406 361.878,246.406 366.5,244.5 Z"/></g>
<g><path style="opacity:1" fill="#efefef" d="M 233.5,252.5 C 242.302,251.772 244.969,255.272 241.5,263C 235.995,265.871 232.328,264.371 230.5,258.5C 230.984,256.199 231.984,254.199 233.5,252.5 Z"/></g>
<g><path style="opacity:1" fill="#f3f3f3" d="M 378.5,252.5 C 387.818,252.655 389.818,256.488 384.5,264C 377.667,265.167 374.833,262.333 376,255.5C 376.698,254.309 377.531,253.309 378.5,252.5 Z"/></g>
<g><path style="opacity:1" fill="#e2d8c7" d="M 355.5,347.5 C 357.167,351.167 359.833,353.833 363.5,355.5C 369.76,361.881 377.427,365.715 386.5,367C 399.885,367.844 413.218,367.344 426.5,365.5C 428.167,365.667 429.833,365.833 431.5,366C 432.022,366.561 432.355,367.228 432.5,368C 419.441,392.51 409.941,418.343 404,445.5C 401.83,461.526 399.497,477.526 397,493.5C 395.077,506.511 389.577,517.678 380.5,527C 369.592,533.505 358.258,534.171 346.5,529C 369.055,521.101 382.222,505.267 386,481.5C 388.892,452.854 384.226,425.52 372,399.5C 360.401,376.972 349.901,353.972 340.5,330.5C 340.482,328.627 340.982,328.294 342,329.5C 345.788,336.095 350.288,342.095 355.5,347.5 Z"/></g>
<g><path style="opacity:1" fill="#e1d7c6" d="M 256.5,329.5 C 257.573,330.251 257.74,331.251 257,332.5C 244.136,358.896 231.803,385.563 220,412.5C 210.035,440.062 208.369,468.062 215,496.5C 221.223,512.389 232.389,523.222 248.5,529C 228.371,535.852 214.538,529.352 207,509.5C 204.702,502.574 202.702,495.574 201,488.5C 198.939,445.247 187.105,404.914 165.5,367.5C 167.364,366.007 169.53,365.34 172,365.5C 210.338,376.25 238.505,364.25 256.5,329.5 Z"/></g>
<g><path style="opacity:1" fill="#56524d" d="M 355.5,347.5 C 358.5,349.833 361.167,352.5 363.5,355.5C 359.833,353.833 357.167,351.167 355.5,347.5 Z"/></g>
<g><path style="opacity:1" fill="#dbd1c1" d="M 271.5,302.5 C 268.988,315.872 265.154,328.872 260,341.5C 248.119,365.928 236.786,390.594 226,415.5C 222.512,426.127 219.678,436.794 217.5,447.5C 218.576,436.195 221.076,425.195 225,414.5C 235.786,389.594 247.119,364.928 259,340.5C 263.709,327.876 267.875,315.209 271.5,302.5 Z"/></g>
<g><path style="opacity:1" fill="#151514" d="M 288.5,428.5 C 300.385,427.736 312.052,428.903 323.5,432C 337.941,439.335 341.107,450.169 333,464.5C 325.289,473.204 315.789,479.037 304.5,482C 302.983,483.685 301.316,485.185 299.5,486.5C 298.155,485.653 297.155,484.487 296.5,483C 283.822,479.916 273.322,473.416 265,463.5C 257.937,449.701 261.103,439.201 274.5,432C 279.172,430.347 283.839,429.181 288.5,428.5 Z"/></g>
<g><path style="opacity:1" fill="#dad1c1" d="M 327.5,302.5 C 330.441,309.893 332.941,317.56 335,325.5C 335.231,329.584 335.898,333.584 337,337.5C 346.454,359.074 356.454,380.408 367,401.5C 381.099,430.621 384.765,460.955 378,492.5C 370.549,512.784 356.049,523.784 334.5,525.5C 360.604,520.561 375.771,504.894 380,478.5C 382.232,451.893 377.565,426.559 366,402.5C 355.454,381.408 345.454,360.074 336,338.5C 333.516,326.521 330.683,314.521 327.5,302.5 Z"/></g>
<g><path style="opacity:1" fill="#dad1c3" d="M 217.5,447.5 C 217.334,457.839 217.5,468.172 218,478.5C 221.518,506.853 237.352,522.519 265.5,525.5C 237.669,524.51 221.502,510.177 217,482.5C 214.997,470.657 215.163,458.991 217.5,447.5 Z"/></g>
<g><path style="opacity:1" fill="#151514" d="M 299.5,514.5 C 305.22,521.543 312.553,526.377 321.5,529C 306.149,532.308 290.816,532.308 275.5,529C 285.325,526.932 293.325,522.099 299.5,514.5 Z"/></g>
</svg>
