<?xml version="1.0" encoding="UTF-8"?>
<!DOCTYPE svg PUBLIC "-//W3C//DTD SVG 1.1//EN" "http://www.w3.org/Graphics/SVG/1.1/DTD/svg11.dtd">
<svg xmlns="http://www.w3.org/2000/svg" version="1.1" width="600px" height="600px" style="shape-rendering:geometricPrecision; text-rendering:geometricPrecision; image-rendering:optimizeQuality; fill-rule:evenodd; clip-rule:evenodd" xmlns:xlink="http://www.w3.org/1999/xlink">
<g><path style="opacity:0.964" fill="#030201" d="M 158.5,8.5 C 162.301,9.20107 165.968,10.3677 169.5,12C 175.969,17.4677 182.136,23.301 188,29.5C 207.973,54.1177 226.973,79.4511 245,105.5C 246.14,98.6927 250.14,95.0261 257,94.5C 260.513,94.8326 263.679,95.9992 266.5,98C 270,101.5 273.5,105 277,108.5C 277.046,102.638 278.046,96.9709 280,91.5C 286.023,85.5002 292.523,85.0002 299.5,90C 306.76,97.3599 312.927,105.527 318,114.5C 321.935,106.906 326.268,99.5727 331,92.5C 334.573,87.7185 339.239,84.7185 345,83.5C 354.421,85.6408 358.421,91.6408 357,101.5C 374.565,76.6001 392.898,52.2668 412,28.5C 417.904,21.9257 424.404,16.0924 431.5,11C 435.801,8.82387 440.134,8.49053 444.5,10C 452.152,13.6446 458.652,18.8112 464,25.5C 484.695,51.8738 501.028,80.8738 513,112.5C 518.336,114.549 523.836,116.383 529.5,118C 537.497,123.975 538.164,130.641 531.5,138C 529.283,139.275 526.949,140.275 524.5,141C 523.978,141.561 523.645,142.228 523.5,143C 530.218,165.923 534.885,189.256 537.5,213C 537.885,222.929 533.552,229.596 524.5,233C 531.908,237.073 538.075,242.573 543,249.5C 545.554,255.931 547.22,262.598 548,269.5C 549.387,280.476 550.054,291.476 550,302.5C 549.471,310.022 545.637,314.856 538.5,317C 547.866,326.293 550.366,337.126 546,349.5C 544.518,351.98 542.685,354.147 540.5,356C 543.722,363.328 544.222,370.828 542,378.5C 540.743,386.293 537.577,393.126 532.5,399C 528.332,401.708 524.165,401.874 520,399.5C 521.857,406.558 524.857,413.225 529,419.5C 531.335,429.174 529.669,438.174 524,446.5C 512.2,463.302 497.533,476.969 480,487.5C 481.191,497.102 481.525,506.769 481,516.5C 477.889,534.758 467.722,547.092 450.5,553.5C 449.833,553.167 449.167,552.833 448.5,552.5C 445.508,558.321 440.842,562.154 434.5,564C 429.449,565.906 424.282,567.406 419,568.5C 413.893,568.112 409.56,566.112 406,562.5C 389.947,575.105 371.78,583.272 351.5,587C 320.608,592.178 289.608,592.845 258.5,589C 239.388,586.185 221.388,580.185 204.5,571C 200.472,568.651 196.806,565.817 193.5,562.5C 187.72,568.04 181.054,569.54 173.5,567C 166.306,565.163 159.806,561.996 154,557.5C 153.293,555.919 152.46,554.419 151.5,553C 148.129,553.332 144.796,552.665 141.5,551C 119.29,534.877 112.29,513.544 120.5,487C 101.098,476.265 85.598,461.432 74,442.5C 70.4399,436.262 69.1065,429.596 70,422.5C 74.4897,415.02 78.323,407.187 81.5,399C 69.8469,402.075 62.6802,397.575 60,385.5C 58.4359,380.078 57.2692,374.578 56.5,369C 56.6705,364.151 58.0038,359.651 60.5,355.5C 52.4175,348.969 49.9175,340.636 53,330.5C 55.4583,325.747 58.2916,321.247 61.5,317C 57.2908,315.813 54.1241,313.313 52,309.5C 50.107,303.657 49.2737,297.657 49.5,291.5C 49.8145,279.021 51.3145,266.688 54,254.5C 58.4452,245.055 65.2785,237.888 74.5,233C 65.5869,229.701 61.2535,223.201 61.5,213.5C 64.2442,189.779 68.9109,166.446 75.5,143.5C 75.3918,142.558 75.0585,141.725 74.5,141C 65.8274,138.826 62.3274,133.326 64,124.5C 65.4578,122.04 67.2911,119.873 69.5,118C 75.1636,116.383 80.6636,114.549 86,112.5C 99.2053,76.896 118.372,45.0627 143.5,17C 147.989,13.0937 152.989,10.2604 158.5,8.5 Z"/></g>
<g><path style="opacity:1" fill="#cc9861" d="M 157.5,19.5 C 160.564,19.1437 163.231,19.9771 165.5,22C 180.948,37.3946 195.115,53.8946 208,71.5C 222.133,91.5995 236.633,111.433 251.5,131C 253.567,131.536 255.401,131.036 257,129.5C 257.482,121.433 256.982,113.433 255.5,105.5C 259.746,106.044 263.246,108.044 266,111.5C 271.5,119 277,126.5 282.5,134C 284.167,134.667 285.833,134.667 287.5,134C 288.339,122.23 288.506,110.397 288,98.5C 291.093,97.1062 293.759,97.7728 296,100.5C 304.094,111.012 310.927,122.346 316.5,134.5C 318.895,132.056 321.062,129.39 323,126.5C 328.5,115.492 335,105.159 342.5,95.5C 343.736,94.7542 345.07,94.4208 346.5,94.5C 344.709,104.126 343.042,113.792 341.5,123.5C 341.542,126.259 342.042,128.925 343,131.5C 344.388,132.554 345.888,132.72 347.5,132C 368.948,102.218 390.781,72.7183 413,43.5C 419.468,36.0305 426.302,28.8638 433.5,22C 438.099,18.5633 442.432,18.8967 446.5,23C 466.758,44.3244 482.924,68.4911 495,95.5C 498.943,104.386 502.61,113.386 506,122.5C 512.425,123.799 518.758,125.466 525,127.5C 525.617,128.449 525.451,129.282 524.5,130C 519.965,131.74 515.298,132.906 510.5,133.5C 517.392,156.07 522.558,179.07 526,202.5C 526.667,208.167 526.667,213.833 526,219.5C 525.5,221.333 524.333,222.5 522.5,223C 514.84,222.847 507.173,222.847 499.5,223C 495.682,223.613 494.682,225.613 496.5,229C 506.5,235 516.5,241 526.5,247C 534.547,253.122 538.381,261.289 538,271.5C 538.378,279.841 538.878,288.174 539.5,296.5C 539.493,299.592 538.993,302.592 538,305.5C 536.274,306.576 534.441,306.743 532.5,306C 524.611,303.209 516.945,300.209 509.5,297C 518.767,307.598 527.267,318.765 535,330.5C 537.72,335.261 538.22,340.261 536.5,345.5C 534.801,345.62 533.135,345.954 531.5,346.5C 526.585,344.85 521.585,344.017 516.5,344C 523.616,349.438 528.783,356.271 532,364.5C 532.724,373.545 530.891,382.045 526.5,390C 524.08,389.975 521.747,389.309 519.5,388C 514.262,383.797 508.762,379.964 503,376.5C 502.13,377.108 501.63,377.941 501.5,379C 505.261,394.683 511.094,409.516 519,423.5C 519.84,430.983 517.84,437.649 513,443.5C 503.227,456.775 491.394,467.775 477.5,476.5C 476.066,474.78 475.233,472.78 475,470.5C 474.202,457.973 471.202,445.973 466,434.5C 457.162,417.479 446.829,401.479 435,386.5C 401.966,350.237 360.799,331.071 311.5,329C 292.675,328.089 274.008,329.422 255.5,333C 241.013,336.941 226.68,341.274 212.5,346C 174.714,366.791 147.881,397.291 132,437.5C 127.319,449.877 123.652,462.544 121,475.5C 107.363,466.528 95.6967,455.528 86,442.5C 82.2317,436.992 80.2317,430.992 80,424.5C 86.6143,413.933 91.6143,402.599 95,390.5C 96.4749,385.937 97.3083,381.27 97.5,376.5C 95.6916,376.491 94.0249,376.991 92.5,378C 87.4415,382.057 82.1082,385.724 76.5,389C 74.8876,389.72 73.3876,389.554 72,388.5C 69.8553,381.921 68.022,375.255 66.5,368.5C 69.2894,358.449 74.9561,350.282 83.5,344C 78.2868,343.758 73.1201,344.258 68,345.5C 66.5,345.167 65,344.833 63.5,344.5C 62.4068,340.892 62.2401,337.225 63,333.5C 71.8731,319.791 81.7064,306.791 92.5,294.5C 85.8499,297.474 78.8499,300.641 71.5,304C 67.9847,305.456 64.4847,305.622 61,304.5C 60.2309,291.471 60.5642,278.471 62,265.5C 62.7755,257.782 66.2755,251.615 72.5,247C 82.0023,241.081 91.669,235.414 101.5,230C 105.652,226.594 104.986,224.261 99.5,223C 91.1468,222.832 82.8134,222.332 74.5,221.5C 72.5683,216.323 72.0683,210.989 73,205.5C 75.829,181.017 81.329,157.183 89.5,134C 85.1307,133.158 80.7974,132.158 76.5,131C 75.09,130.632 74.09,129.799 73.5,128.5C 75.4161,126.683 77.7494,125.516 80.5,125C 84.8321,124.417 89.1654,123.917 93.5,123.5C 104.801,90.2236 121.301,59.8902 143,32.5C 147.432,27.5599 152.265,23.2265 157.5,19.5 Z"/></g>
<g><path style="opacity:1" fill="#0a0705" d="M 158.5,135.5 C 154.7,134.221 150.7,133.721 146.5,134C 149.852,134.838 153.185,135.671 156.5,136.5C 171.475,140.661 185.809,146.494 199.5,154C 207.5,160.667 207.5,167.333 199.5,174C 192.854,178.773 185.521,180.439 177.5,179C 173.556,175.672 169.223,173.339 164.5,172C 167.986,176.376 168.486,181.209 166,186.5C 164.786,188.049 163.286,189.215 161.5,190C 156.653,191.729 151.819,193.229 147,194.5C 139.631,193.59 132.297,192.59 125,191.5C 118.539,192.657 112.039,193.157 105.5,193C 101.226,188.606 99.226,183.272 99.5,177C 100.535,162.691 103.702,148.858 109,135.5C 111.033,131.966 113.866,129.3 117.5,127.5C 115.562,121.488 116.062,115.488 119,109.5C 126.379,92.4059 135.045,76.0726 145,60.5C 151.366,54.2482 158.866,52.7482 167.5,56C 172.287,58.712 176.787,61.8786 181,65.5C 199.173,87.1873 214.839,110.521 228,135.5C 231.536,151.071 225.703,157.571 210.5,155C 195.14,143.488 177.807,136.988 158.5,135.5 Z"/></g>
<g><path style="opacity:1" fill="#090604" d="M 443.5,136.5 C 446.454,135.572 449.454,134.739 452.5,134C 448.3,133.721 444.3,134.221 440.5,135.5C 421.168,136.999 403.501,143.166 387.5,154C 376.201,156.677 370.534,152.177 370.5,140.5C 370.766,135.436 372.266,130.769 375,126.5C 386.842,108.815 399.176,91.4816 412,74.5C 418.667,66.4914 426.5,59.9914 435.5,55C 443.736,53.0049 450.902,54.8382 457,60.5C 468.208,77.5766 477.874,95.5766 486,114.5C 486.772,118.89 486.606,123.223 485.5,127.5C 488.77,129.267 491.603,131.6 494,134.5C 499.53,147.768 503.03,161.601 504.5,176C 504.739,183.632 502.072,189.965 496.5,195C 490.253,197.837 484.92,196.837 480.5,192C 471.761,191.327 463.094,191.827 454.5,193.5C 445.875,193.689 438.708,190.689 433,184.5C 432.333,180.833 432.333,177.167 433,173.5C 434.338,172.776 434.505,172.11 433.5,171.5C 429.996,173.418 426.663,175.584 423.5,178C 418.924,179.476 414.257,179.81 409.5,179C 404.747,176.542 400.247,173.708 396,170.5C 393.278,164.604 394.111,159.438 398.5,155C 412.595,146.619 427.595,140.452 443.5,136.5 Z"/></g>
<g><path style="opacity:1" fill="#644a2f" d="M 161.5,64.5 C 159.801,64.3398 158.134,64.5065 156.5,65C 154.034,67.4786 151.701,69.9786 149.5,72.5C 151.335,65.9227 155.335,63.256 161.5,64.5 Z"/></g>
<g><path style="opacity:1" fill="#60482d" d="M 445.5,64.5 C 442.794,64.5751 440.127,64.9084 437.5,65.5C 439.993,63.4162 442.66,63.0829 445.5,64.5 Z"/></g>
<g><path style="opacity:1" fill="#654b30" d="M 161.5,64.5 C 165.141,64.6516 167.807,66.3182 169.5,69.5C 166.825,67.8302 164.159,66.1635 161.5,64.5 Z"/></g>
<g><path style="opacity:1" fill="#644a2f" d="M 445.5,64.5 C 449.217,65.9198 451.55,68.5865 452.5,72.5C 450.177,69.8739 447.843,67.2072 445.5,64.5 Z"/></g>
<g><path style="opacity:1" fill="#f2988e" d="M 161.5,64.5 C 164.159,66.1635 166.825,67.8302 169.5,69.5C 170.833,71.5 172.5,73.1667 174.5,74.5C 178.357,80.2089 182.69,85.5422 187.5,90.5C 188.433,93.3702 190.1,95.7036 192.5,97.5C 194.062,101.392 196.395,104.725 199.5,107.5C 200.759,111.025 202.759,114.025 205.5,116.5C 207.087,120.683 209.421,124.35 212.5,127.5C 212.427,129.027 213.094,130.027 214.5,130.5C 215.597,133.686 216.93,136.686 218.5,139.5C 218.552,141.903 218.219,144.236 217.5,146.5C 217.167,146.5 216.833,146.5 216.5,146.5C 215.415,144.413 213.749,143.08 211.5,142.5C 209.516,139.836 206.849,138.169 203.5,137.5C 198.895,134.704 193.895,132.704 188.5,131.5C 182.25,128.604 175.583,126.937 168.5,126.5C 164.081,125.028 159.414,124.362 154.5,124.5C 145.05,122.86 135.384,122.193 125.5,122.5C 126.73,120.703 127.396,118.703 127.5,116.5C 129.625,113.912 130.958,110.912 131.5,107.5C 134.29,103.584 136.29,99.251 137.5,94.5C 140.927,89.9843 143.593,84.9843 145.5,79.5C 147.559,77.7396 148.892,75.4062 149.5,72.5C 151.701,69.9786 154.034,67.4786 156.5,65C 158.134,64.5065 159.801,64.3398 161.5,64.5 Z"/></g>
<g><path style="opacity:1" fill="#f2988e" d="M 445.5,64.5 C 447.843,67.2072 450.177,69.8739 452.5,72.5C 452.427,74.0269 453.094,75.0269 454.5,75.5C 455.079,78.3311 456.412,80.6644 458.5,82.5C 460.074,87.3195 462.407,91.6528 465.5,95.5C 465.66,97.153 466.326,98.4863 467.5,99.5C 469.044,104.919 471.378,109.919 474.5,114.5C 474.328,115.492 474.662,116.158 475.5,116.5C 475.833,118.5 476.167,120.5 476.5,122.5C 465.617,122.144 454.951,122.81 444.5,124.5C 441.941,124.198 439.607,124.532 437.5,125.5C 431.858,125.496 426.525,126.496 421.5,128.5C 419.901,128.232 418.568,128.566 417.5,129.5C 414.848,129.41 412.515,130.076 410.5,131.5C 407.458,131.733 404.792,132.733 402.5,134.5C 397.914,135.46 393.914,137.46 390.5,140.5C 388.973,140.427 387.973,141.094 387.5,142.5C 385.742,142.877 384.075,143.544 382.5,144.5C 381.447,141.185 381.447,137.852 382.5,134.5C 388.327,126.852 393.66,118.852 398.5,110.5C 399.906,110.027 400.573,109.027 400.5,107.5C 402.262,106.738 403.262,105.404 403.5,103.5C 405.9,101.704 407.567,99.3702 408.5,96.5C 410.262,95.7377 411.262,94.4044 411.5,92.5C 419.466,82.8663 428.133,73.8663 437.5,65.5C 440.127,64.9084 442.794,64.5751 445.5,64.5 Z"/></g>
<g><path style="opacity:1" fill="#5e472c" d="M 169.5,69.5 C 172.167,70.1667 173.833,71.8333 174.5,74.5C 172.5,73.1667 170.833,71.5 169.5,69.5 Z"/></g>
<g><path style="opacity:1" fill="#6a4f33" d="M 174.5,74.5 C 179.789,79.0912 184.123,84.4245 187.5,90.5C 182.69,85.5422 178.357,80.2089 174.5,74.5 Z"/></g>
<g><path style="opacity:1" fill="#8c6348" d="M 149.5,72.5 C 148.892,75.4062 147.559,77.7396 145.5,79.5C 146.079,76.6689 147.412,74.3356 149.5,72.5 Z"/></g>
<g><path style="opacity:1" fill="#6b4b37" d="M 454.5,75.5 C 456.588,77.3356 457.921,79.6689 458.5,82.5C 456.412,80.6644 455.079,78.3311 454.5,75.5 Z"/></g>
<g><path style="opacity:1" fill="#684d31" d="M 145.5,79.5 C 143.593,84.9843 140.927,89.9843 137.5,94.5C 139.407,89.0157 142.073,84.0157 145.5,79.5 Z"/></g>
<g><path style="opacity:1" fill="#6f5136" d="M 437.5,65.5 C 428.133,73.8663 419.466,82.8663 411.5,92.5C 418.12,81.5459 426.787,72.5459 437.5,65.5 Z"/></g>
<g><path style="opacity:1" fill="#704c3c" d="M 458.5,82.5 C 461.593,86.3472 463.926,90.6805 465.5,95.5C 462.407,91.6528 460.074,87.3195 458.5,82.5 Z"/></g>
<g><path style="opacity:1" fill="#644a2f" d="M 187.5,90.5 C 189.9,92.2964 191.567,94.6298 192.5,97.5C 190.1,95.7036 188.433,93.3702 187.5,90.5 Z"/></g>
<g><path style="opacity:1" fill="#644a2f" d="M 137.5,94.5 C 136.29,99.251 134.29,103.584 131.5,107.5C 132.71,102.749 134.71,98.4156 137.5,94.5 Z"/></g>
<g><path style="opacity:1" fill="#6a4939" d="M 408.5,96.5 C 407.567,99.3702 405.9,101.704 403.5,103.5C 404.433,100.63 406.1,98.2964 408.5,96.5 Z"/></g>
<g><path style="opacity:1" fill="#634a2f" d="M 192.5,97.5 C 195.605,100.275 197.938,103.608 199.5,107.5C 196.395,104.725 194.062,101.392 192.5,97.5 Z"/></g>
<g><path style="opacity:1" fill="#6d4a3a" d="M 403.5,103.5 C 403.262,105.404 402.262,106.738 400.5,107.5C 400.738,105.596 401.738,104.262 403.5,103.5 Z"/></g>
<g><path style="opacity:1" fill="#6c4a3a" d="M 467.5,99.5 C 470.622,104.081 472.956,109.081 474.5,114.5C 471.378,109.919 469.044,104.919 467.5,99.5 Z"/></g>
<g><path style="opacity:1" fill="#61482e" d="M 131.5,107.5 C 130.958,110.912 129.625,113.912 127.5,116.5C 128.042,113.088 129.375,110.088 131.5,107.5 Z"/></g>
<g><path style="opacity:1" fill="#6e4b3b" d="M 205.5,116.5 C 208.579,119.65 210.913,123.317 212.5,127.5C 209.421,124.35 207.087,120.683 205.5,116.5 Z"/></g>
<g><path style="opacity:1" fill="#6f4b3b" d="M 398.5,110.5 C 393.66,118.852 388.327,126.852 382.5,134.5C 386.844,125.804 392.177,117.804 398.5,110.5 Z"/></g>
<g><path style="opacity:1" fill="#654734" d="M 125.5,122.5 C 135.384,122.193 145.05,122.86 154.5,124.5C 144.655,124.233 134.988,123.566 125.5,122.5 Z"/></g>
<g><path style="opacity:1" fill="#6a4838" d="M 475.5,116.5 C 477.163,118.438 477.829,120.772 477.5,123.5C 466.487,123.501 455.487,123.834 444.5,124.5C 454.951,122.81 465.617,122.144 476.5,122.5C 476.167,120.5 475.833,118.5 475.5,116.5 Z"/></g>
<g><path style="opacity:1" fill="#6b4939" d="M 154.5,124.5 C 159.414,124.362 164.081,125.028 168.5,126.5C 163.609,126.468 158.943,125.801 154.5,124.5 Z"/></g>
<g><path style="opacity:1" fill="#694838" d="M 437.5,125.5 C 432.383,126.989 427.049,127.989 421.5,128.5C 426.525,126.496 431.858,125.496 437.5,125.5 Z"/></g>
<g><path style="opacity:1" fill="#6b4939" d="M 168.5,126.5 C 175.583,126.937 182.25,128.604 188.5,131.5C 181.653,130.122 174.986,128.455 168.5,126.5 Z"/></g>
<g><path style="opacity:1" fill="#664736" d="M 214.5,130.5 C 217.165,132.835 218.498,135.835 218.5,139.5C 216.93,136.686 215.597,133.686 214.5,130.5 Z"/></g>
<g><path style="opacity:1" fill="#684737" d="M 417.5,129.5 C 415.485,130.924 413.152,131.59 410.5,131.5C 412.515,130.076 414.848,129.41 417.5,129.5 Z"/></g>
<g><path style="opacity:1" fill="#6e5234" d="M 158.5,135.5 C 157.508,135.328 156.842,135.662 156.5,136.5C 153.185,135.671 149.852,134.838 146.5,134C 150.7,133.721 154.7,134.221 158.5,135.5 Z"/></g>
<g><path style="opacity:1" fill="#705335" d="M 443.5,136.5 C 442.791,135.596 441.791,135.263 440.5,135.5C 444.3,134.221 448.3,133.721 452.5,134C 449.454,134.739 446.454,135.572 443.5,136.5 Z"/></g>
<g><path style="opacity:1" fill="#6b4939" d="M 402.5,134.5 C 398.818,137.008 394.818,139.008 390.5,140.5C 393.914,137.46 397.914,135.46 402.5,134.5 Z"/></g>
<g><path style="opacity:1" fill="#6b4939" d="M 203.5,137.5 C 206.849,138.169 209.516,139.836 211.5,142.5C 208.489,141.331 205.822,139.664 203.5,137.5 Z"/></g>
<g><path style="opacity:1" fill="#f0978d" d="M 477.5,138.5 C 480.986,137.829 483.653,138.829 485.5,141.5C 485.263,142.791 485.596,143.791 486.5,144.5C 487.261,148.784 488.595,152.784 490.5,156.5C 492.067,162.938 493.401,169.438 494.5,176C 494.083,178.498 493.749,180.998 493.5,183.5C 492.206,184.29 491.039,185.29 490,186.5C 489.617,185.944 489.117,185.611 488.5,185.5C 487.878,183.665 486.544,182.498 484.5,182C 473.428,181.385 462.428,181.718 451.5,183C 448.372,182.125 445.372,180.958 442.5,179.5C 443.521,177.812 444.855,176.479 446.5,175.5C 448.5,174.167 450.167,172.5 451.5,170.5C 453.404,170.262 454.738,169.262 455.5,167.5C 459.025,166.241 462.025,164.241 464.5,161.5C 468.836,159.668 472.836,157.335 476.5,154.5C 480.205,154.129 482.205,152.129 482.5,148.5C 481.167,148.5 479.833,148.5 478.5,148.5C 465.347,147.875 453.013,150.542 441.5,156.5C 438.759,156.707 436.426,157.707 434.5,159.5C 432.5,160.167 430.5,160.833 428.5,161.5C 422.123,163.011 415.79,164.677 409.5,166.5C 408.078,166.291 406.745,165.791 405.5,165C 404.402,164.23 404.402,163.397 405.5,162.5C 408.331,161.921 410.664,160.588 412.5,158.5C 433.422,149.415 455.089,142.748 477.5,138.5 Z"/></g>
<g><path style="opacity:1" fill="#764e40" d="M 477.5,138.5 C 479.628,137.371 481.961,137.204 484.5,138C 485.337,139.011 485.67,140.178 485.5,141.5C 483.653,138.829 480.986,137.829 477.5,138.5 Z"/></g>
<g><path style="opacity:1" fill="#694838" d="M 218.5,139.5 C 219.147,140.274 219.48,141.274 219.5,142.5C 219.66,144.355 218.993,145.688 217.5,146.5C 218.219,144.236 218.552,141.903 218.5,139.5 Z"/></g>
<g><path style="opacity:1" fill="#694838" d="M 211.5,142.5 C 213.749,143.08 215.415,144.413 216.5,146.5C 214.251,145.92 212.585,144.587 211.5,142.5 Z"/></g>
<g><path style="opacity:1" fill="#785141" d="M 382.5,134.5 C 381.447,137.852 381.447,141.185 382.5,144.5C 384.075,143.544 385.742,142.877 387.5,142.5C 385.824,144.834 383.491,145.834 380.5,145.5C 380.335,142.482 380.502,139.482 381,136.5C 381.278,135.584 381.778,134.918 382.5,134.5 Z"/></g>
<g><path style="opacity:1" fill="#f0978d" d="M 186.5,158.5 C 188.428,160.474 190.761,161.974 193.5,163C 194.252,163.671 194.586,164.504 194.5,165.5C 191.738,166.38 189.071,167.546 186.5,169C 184.833,169.667 183.167,169.667 181.5,169C 162.473,154.911 141.14,148.244 117.5,149C 116.167,150 116.167,151 117.5,152C 127.333,157.689 136.999,163.522 146.5,169.5C 147.585,171.587 149.251,172.92 151.5,173.5C 151.5,174.167 151.833,174.5 152.5,174.5C 153.96,176.463 155.627,178.296 157.5,180C 156.944,180.383 156.611,180.883 156.5,181.5C 152.657,182.391 148.824,183.391 145,184.5C 133.867,181.04 122.701,180.707 111.5,183.5C 109.987,181.465 109.321,179.131 109.5,176.5C 111.195,163.554 114.528,151.054 119.5,139C 142.707,142.345 165.04,148.845 186.5,158.5 Z"/></g>
<g><path style="opacity:1" fill="#5e4031" d="M 478.5,148.5 C 479.833,148.5 481.167,148.5 482.5,148.5C 482.205,152.129 480.205,154.129 476.5,154.5C 478.094,153.017 479.76,151.517 481.5,150C 480.263,149.768 479.263,149.268 478.5,148.5 Z"/></g>
<g><path style="opacity:1" fill="#5c3f31" d="M 486.5,144.5 C 488.806,148.085 490.139,152.085 490.5,156.5C 488.595,152.784 487.261,148.784 486.5,144.5 Z"/></g>
<g><path style="opacity:1" fill="#583c2e" d="M 441.5,156.5 C 439.574,158.293 437.241,159.293 434.5,159.5C 436.426,157.707 438.759,156.707 441.5,156.5 Z"/></g>
<g><path style="opacity:1" fill="#5a3e2f" d="M 412.5,158.5 C 410.664,160.588 408.331,161.921 405.5,162.5C 407.336,160.412 409.669,159.079 412.5,158.5 Z"/></g>
<g><path style="opacity:1" fill="#5b3e30" d="M 186.5,158.5 C 189.262,159.38 191.929,160.546 194.5,162C 195.791,163.292 195.791,164.458 194.5,165.5C 194.586,164.504 194.252,163.671 193.5,163C 190.761,161.974 188.428,160.474 186.5,158.5 Z"/></g>
<g><path style="opacity:1" fill="#5b3e30" d="M 464.5,161.5 C 462.025,164.241 459.025,166.241 455.5,167.5C 457.951,164.723 460.951,162.723 464.5,161.5 Z"/></g>
<g><path style="opacity:1" fill="#e87461" d="M 428.5,161.5 C 426.5,163.167 424.5,164.833 422.5,166.5C 420.145,167.094 417.978,168.094 416,169.5C 413.953,168.391 411.787,167.724 409.5,167.5C 409.5,167.167 409.5,166.833 409.5,166.5C 415.79,164.677 422.123,163.011 428.5,161.5 Z"/></g>
<g><path style="opacity:1" fill="#5a3e2f" d="M 146.5,169.5 C 148.749,170.08 150.415,171.413 151.5,173.5C 149.251,172.92 147.585,171.587 146.5,169.5 Z"/></g>
<g><path style="opacity:1" fill="#513b26" d="M 422.5,166.5 C 418.541,171.424 414.207,171.757 409.5,167.5C 411.787,167.724 413.953,168.391 416,169.5C 417.978,168.094 420.145,167.094 422.5,166.5 Z"/></g>
<g><path style="opacity:1" fill="#644335" d="M 451.5,170.5 C 450.167,172.5 448.5,174.167 446.5,175.5C 447.167,172.833 448.833,171.167 451.5,170.5 Z"/></g>
<g><path style="opacity:1" fill="#543a2c" d="M 152.5,174.5 C 155.272,175.436 157.272,177.27 158.5,180C 158.164,181.03 157.497,181.53 156.5,181.5C 156.611,180.883 156.944,180.383 157.5,180C 155.627,178.296 153.96,176.463 152.5,174.5 Z"/></g>
<g><path style="opacity:1" fill="#5a3e2f" d="M 493.5,183.5 C 492.588,187.469 490.921,188.136 488.5,185.5C 489.117,185.611 489.617,185.944 490,186.5C 491.039,185.29 492.206,184.29 493.5,183.5 Z"/></g>
<g><path style="opacity:1" fill="#a57e5f" d="M 251.5,279.5 C 240.984,282.758 231.65,288.092 223.5,295.5C 222.448,295.351 221.448,295.517 220.5,296C 214.167,302.333 207.833,308.667 201.5,315C 197.579,315.765 195.245,314.098 194.5,310C 196.89,301.718 200.724,294.218 206,287.5C 206.49,286.207 206.657,284.873 206.5,283.5C 204.801,283.34 203.134,283.506 201.5,284C 195.954,286.94 190.287,289.606 184.5,292C 177.674,292.124 176.674,289.457 181.5,284C 181.167,283.667 180.833,283.333 180.5,283C 204.888,260.089 233.888,248.756 267.5,249C 276.107,250.906 279.94,256.072 279,264.5C 276.664,268.492 273.164,270.325 268.5,270C 262.701,273.047 256.701,275.714 250.5,278C 251.056,278.383 251.389,278.883 251.5,279.5 Z"/></g>
<g><path style="opacity:1" fill="#a57f5f" d="M 375.5,293.5 C 371.306,290.571 366.973,287.905 362.5,285.5C 358.653,282.407 354.32,280.074 349.5,278.5C 341.416,273.968 332.749,270.801 323.5,269C 315.779,260.371 317.445,254.038 328.5,250C 358.558,248.24 385.558,256.574 409.5,275C 413.833,278 417.5,281.667 420.5,286C 419.788,287.425 419.621,288.925 420,290.5C 419.044,291.894 417.711,292.561 416,292.5C 411.67,291.086 407.503,289.253 403.5,287C 400.964,286.661 398.464,286.161 396,285.5C 395.5,285.833 395,286.167 394.5,286.5C 398.174,291.844 401.34,297.51 404,303.5C 405.368,306.738 405.701,310.072 405,313.5C 402.716,315.984 400.216,316.151 397.5,314C 391.532,307.031 385.199,300.364 378.5,294C 377.552,293.517 376.552,293.351 375.5,293.5 Z"/></g>
<g><path style="opacity:1" fill="#342926" d="M 349.5,278.5 C 354.32,280.074 358.653,282.407 362.5,285.5C 366.973,287.905 371.306,290.571 375.5,293.5C 375.178,309.992 366.845,317.492 350.5,316C 335.206,307.936 332.539,296.77 342.5,282.5C 344.698,280.902 347.031,279.569 349.5,278.5 Z"/></g>
<g><path style="opacity:1" fill="#342926" d="M 251.5,279.5 C 266.125,291.335 266.125,303.168 251.5,315C 235.143,318.651 225.81,312.151 223.5,295.5C 231.65,288.092 240.984,282.758 251.5,279.5 Z"/></g>
<g><path style="opacity:1" fill="#e7e6e6" d="M 244.5,285.5 C 251.329,284.828 254.163,287.828 253,294.5C 247.307,300.217 243.141,299.217 240.5,291.5C 241.073,288.938 242.407,286.938 244.5,285.5 Z"/></g>
<g><path style="opacity:1" fill="#e6e6e5" d="M 362.5,285.5 C 368.415,291.094 367.581,295.427 360,298.5C 353.423,296.582 351.923,292.749 355.5,287C 357.677,285.798 360.011,285.298 362.5,285.5 Z"/></g>
<g><path style="opacity:1" fill="#c4925e" d="M 468.5,482.5 C 467.504,482.586 466.671,482.252 466,481.5C 464.529,466.296 460.529,451.63 454,437.5C 422.956,373.197 371.456,340.53 299.5,339.5C 265.254,339.978 233.254,348.478 203.5,365C 174.777,385.066 154.277,411.566 142,444.5C 137.851,456.449 134.351,468.449 131.5,480.5C 139.187,426.295 166.52,385.128 213.5,357C 262.18,335.896 311.847,333.23 362.5,349C 404.252,364.583 434.252,392.75 452.5,433.5C 453.242,434.287 454.075,434.953 455,435.5C 459.264,444.458 462.43,453.791 464.5,463.5C 464.43,464.772 464.097,465.938 463.5,467C 464.947,472.307 466.614,477.473 468.5,482.5 Z"/></g>
<g><path style="opacity:1" fill="#a47e5f" d="M 468.5,482.5 C 469.786,490.955 470.786,499.455 471.5,508C 471.144,524.146 463.811,535.646 449.5,542.5C 448.703,533.633 447.036,524.966 444.5,516.5C 443.675,515.614 442.675,515.281 441.5,515.5C 441.779,525.922 440.946,536.256 439,546.5C 438.208,548.587 437.041,550.421 435.5,552C 429.242,555.535 422.576,557.201 415.5,557C 412.608,553.367 409.608,549.867 406.5,546.5C 397.687,557.254 386.687,565.088 373.5,570C 331.07,582.921 288.07,584.921 244.5,576C 223.917,571.552 206.584,561.718 192.5,546.5C 189.392,549.867 186.392,553.367 183.5,557C 175.639,557.27 168.473,555.103 162,550.5C 161.138,548.913 160.471,547.246 160,545.5C 159.208,535.44 158.041,525.44 156.5,515.5C 155.522,515.977 154.689,516.643 154,517.5C 152.368,525.834 150.868,534.167 149.5,542.5C 135.681,535.564 128.347,524.231 127.5,508.5C 128.401,499.094 129.735,489.761 131.5,480.5C 134.351,468.449 137.851,456.449 142,444.5C 154.277,411.566 174.777,385.066 203.5,365C 233.254,348.478 265.254,339.978 299.5,339.5C 371.456,340.53 422.956,373.197 454,437.5C 460.529,451.63 464.529,466.296 466,481.5C 466.671,482.252 467.504,482.586 468.5,482.5 Z"/></g>
<g><path style="opacity:1" fill="#060404" d="M 297.5,373.5 C 309.673,372.543 321.006,375.043 331.5,381C 339.977,389.105 341.81,398.605 337,409.5C 330.55,419.268 321.717,426.102 310.5,430C 305.796,434.883 304.296,440.717 306,447.5C 307.122,449.624 308.622,451.457 310.5,453C 321.261,455.717 331.261,460.05 340.5,466C 344.796,469.584 344.129,471.917 338.5,473C 312.5,473.667 286.5,473.667 260.5,473C 259.128,472.598 257.795,472.098 256.5,471.5C 255.417,470.635 255.251,469.635 256,468.5C 265.657,461.049 276.49,455.882 288.5,453C 290.378,451.457 291.878,449.624 293,447.5C 293.879,442.713 293.545,438.047 292,433.5C 290.833,432.333 289.667,431.167 288.5,430C 282.178,427.174 276.178,423.841 270.5,420C 259.022,409.643 256.855,397.809 264,384.5C 265.451,382.536 267.284,381.203 269.5,380.5C 278.499,376.372 287.832,374.039 297.5,373.5 Z"/></g>
<g><path style="opacity:1" fill="#2c231e" d="M 297.5,373.5 C 287.832,374.039 278.499,376.372 269.5,380.5C 272.546,377.643 276.213,375.81 280.5,375C 286.101,373.783 291.768,373.283 297.5,373.5 Z"/></g>
<g><path style="opacity:1" fill="#2f2725" d="M 298.5,383.5 C 305.591,384.04 312.591,385.206 319.5,387C 328.746,391.102 330.913,397.602 326,406.5C 324.167,408.333 322.333,410.167 320.5,412C 313.5,416.167 306.5,420.333 299.5,424.5C 292.831,419.83 285.831,415.663 278.5,412C 271.505,407.014 269.338,400.514 272,392.5C 274.778,389.193 278.278,387.026 282.5,386C 287.972,385.133 293.306,384.3 298.5,383.5 Z"/></g>
<g><path style="opacity:1" fill="#2e2624" d="M 298.5,458.5 C 301.004,460.144 303.671,461.644 306.5,463C 301.833,463.667 297.167,463.667 292.5,463C 295.106,462.208 297.106,460.708 298.5,458.5 Z"/></g>
</svg>
