<?xml version="1.0" encoding="UTF-8"?>
<!DOCTYPE svg PUBLIC "-//W3C//DTD SVG 1.1//EN" "http://www.w3.org/Graphics/SVG/1.1/DTD/svg11.dtd">
<svg xmlns="http://www.w3.org/2000/svg" version="1.1" width="600px" height="600px" style="shape-rendering:geometricPrecision; text-rendering:geometricPrecision; image-rendering:optimizeQuality; fill-rule:evenodd; clip-rule:evenodd" xmlns:xlink="http://www.w3.org/1999/xlink">
<g><path style="opacity:0.951" fill="#030302" d="M 99.5,-0.5 C 112.833,-0.5 126.167,-0.5 139.5,-0.5C 150.105,7.09037 159.939,15.757 169,25.5C 182.5,41 196,56.5 209.5,72C 221.604,80.0916 234.938,84.9249 249.5,86.5C 275.055,82.9527 300.722,81.7861 326.5,83C 340.545,84.8422 354.545,87.0088 368.5,89.5C 372.973,89.8413 376.973,88.6746 380.5,86C 396.291,66.5402 412.458,47.3735 429,28.5C 438.837,17.4838 449.67,7.81716 461.5,-0.5C 474.5,-0.5 487.5,-0.5 500.5,-0.5C 508.371,5.89155 514.204,13.8916 518,23.5C 524.906,43.9346 528.906,64.9346 530,86.5C 531.571,136.697 529.071,186.697 522.5,236.5C 529.191,284.986 531.358,333.653 529,382.5C 527.603,413.096 518.936,441.429 503,467.5C 470.66,520.51 426.826,561.01 371.5,589C 362.412,592.555 353.412,596.055 344.5,599.5C 314.833,599.5 285.167,599.5 255.5,599.5C 216.487,586.309 182.154,565.476 152.5,537C 126.398,512.246 104.898,484.08 88,452.5C 74.9248,426.391 69.2581,398.724 71,369.5C 68.7421,326.87 71.2421,284.537 78.5,242.5C 73.7403,200.458 70.7403,158.291 69.5,116C 69.0416,85.1641 73.2083,54.9975 82,25.5C 85.6749,15.335 91.5082,6.66838 99.5,-0.5 Z"/></g>
<g><path style="opacity:1" fill="#f6e2d1" d="M 478.5,3.5 C 488.458,3.28198 496.292,7.28198 502,15.5C 509.235,27.537 513.902,40.537 516,54.5C 520.194,83.358 521.527,112.358 520,141.5C 517.981,172.37 515.481,203.204 512.5,234C 515.087,259.463 517.254,284.963 519,310.5C 519.667,332.833 519.667,355.167 519,377.5C 517.863,411.422 507.863,442.422 489,470.5C 462.087,510.412 428.254,543.246 387.5,569C 353.919,589.479 317.585,597.813 278.5,594C 246.217,587.523 216.884,574.523 190.5,555C 148.134,524.311 115.634,485.478 93,438.5C 88.2653,427.227 84.9319,415.56 83,403.5C 80.5335,367.846 80.2002,332.179 82,296.5C 83.844,277.109 86.0107,257.776 88.5,238.5C 86.6645,214.142 84.4978,189.809 82,165.5C 80.0545,134.83 80.0545,104.163 82,73.5C 83.4529,53.3482 88.7862,34.3482 98,16.5C 106.91,3.79597 118.41,0.962639 132.5,8C 144.184,15.6751 154.684,24.8418 164,35.5C 176.715,50.4267 189.549,65.26 202.5,80C 224.125,95.3247 247.791,99.9914 273.5,94C 293.833,93.3333 314.167,93.3333 334.5,94C 342.633,95.0446 350.633,96.7112 358.5,99C 370.986,101.897 381.82,99.064 391,90.5C 410.734,64.5941 432.234,40.0941 455.5,17C 462.344,10.9663 470.01,6.4663 478.5,3.5 Z"/></g>
<g><path style="opacity:1" fill="#0c0b0a" d="M 117.5,23.5 C 128.665,22.3869 137.498,26.3869 144,35.5C 164.026,64.2188 180.359,94.8855 193,127.5C 195.414,137.126 195.748,146.792 194,156.5C 179.673,178.841 160.507,195.341 136.5,206C 129.16,207.907 121.827,207.907 114.5,206C 103.825,198.36 98.6585,187.86 99,174.5C 95.0558,131.691 95.7225,89.0243 101,46.5C 102.941,36.0904 108.441,28.4237 117.5,23.5 Z"/></g>
<g><path style="opacity:1" fill="#090808" d="M 471.5,23.5 C 480.752,22.3026 488.252,25.3026 494,32.5C 495.08,34.9962 496.414,37.3295 498,39.5C 502.562,57.8684 504.562,76.5351 504,95.5C 505.73,127.369 504.063,159.036 499,190.5C 495.217,201.785 487.384,207.451 475.5,207.5C 469.662,207.119 463.995,205.952 458.5,204C 437.322,192.986 420.155,177.486 407,157.5C 404.571,143.826 405.904,130.493 411,117.5C 423.44,89.0643 438.44,62.0643 456,36.5C 460.503,31.1459 465.669,26.8125 471.5,23.5 Z"/></g>
<g><path style="opacity:1" fill="#f1bd8e" d="M 129.5,35.5 C 131.5,38.1667 133.833,40.5 136.5,42.5C 146.23,57.5699 155.564,72.9033 164.5,88.5C 165.742,92.6553 167.742,96.322 170.5,99.5C 170.707,102.241 171.707,104.574 173.5,106.5C 176.485,113.809 179.485,121.142 182.5,128.5C 182.41,131.152 183.076,133.485 184.5,135.5C 185.785,141.113 185.785,146.78 184.5,152.5C 182.311,154.887 180.644,157.553 179.5,160.5C 177.086,161.911 175.419,163.911 174.5,166.5C 171.167,169.167 168.167,172.167 165.5,175.5C 162.911,176.419 160.911,178.086 159.5,180.5C 154.129,184.179 148.796,187.846 143.5,191.5C 141.181,191.992 139.181,192.992 137.5,194.5C 131.335,197.002 125.002,197.669 118.5,196.5C 115.333,193.68 112.999,190.347 111.5,186.5C 111.435,183.572 110.768,180.905 109.5,178.5C 106.315,143.9 105.648,109.233 107.5,74.5C 109.15,68.75 109.816,62.75 109.5,56.5C 109.5,56.1667 109.5,55.8333 109.5,55.5C 110.913,52.7814 111.58,49.7814 111.5,46.5C 111.263,45.209 111.596,44.209 112.5,43.5C 114.008,41.8185 115.008,39.8185 115.5,37.5C 117.149,36.3515 118.649,35.0182 120,33.5C 121.144,33.0889 122.311,32.7556 123.5,32.5C 125.289,33.9634 127.289,34.9634 129.5,35.5 Z"/></g>
<g><path style="opacity:1" fill="#f0bd8e" d="M 489.5,47.5 C 489.294,50.4951 489.96,53.1617 491.5,55.5C 492.709,63.6805 493.542,72.0138 494,80.5C 494.83,107.336 494.664,134.003 493.5,160.5C 492.335,165.633 491.668,170.966 491.5,176.5C 491.5,176.833 491.5,177.167 491.5,177.5C 490.055,180.937 489.055,184.603 488.5,188.5C 486.413,192.922 483.08,195.922 478.5,197.5C 475.102,197.82 471.768,197.487 468.5,196.5C 461.953,193.06 455.286,189.893 448.5,187C 446.237,185.383 444.237,183.55 442.5,181.5C 441.089,179.086 439.089,177.419 436.5,176.5C 433.167,172.5 429.5,168.833 425.5,165.5C 425.5,164.833 425.167,164.5 424.5,164.5C 423.92,162.251 422.587,160.585 420.5,159.5C 420.573,157.973 419.906,156.973 418.5,156.5C 416.193,148.309 415.86,139.976 417.5,131.5C 423.043,116.552 429.376,101.886 436.5,87.5C 438.588,85.6644 439.921,83.3311 440.5,80.5C 445.783,72.2566 450.783,63.9233 455.5,55.5C 458.241,53.0246 460.241,50.0246 461.5,46.5C 462.906,46.0269 463.573,45.0269 463.5,43.5C 466.5,41.1667 469.167,38.5 471.5,35.5C 471.611,34.8826 471.944,34.3826 472.5,34C 476.782,33.0349 480.782,33.7016 484.5,36C 486.273,39.8304 487.94,43.6638 489.5,47.5 Z"/></g>
<g><path style="opacity:1" fill="#675f57" d="M 129.5,35.5 C 132.833,36.8333 135.167,39.1667 136.5,42.5C 133.833,40.5 131.5,38.1667 129.5,35.5 Z"/></g>
<g><path style="opacity:1" fill="#6d645b" d="M 115.5,37.5 C 115.008,39.8185 114.008,41.8185 112.5,43.5C 112.461,40.911 113.461,38.911 115.5,37.5 Z"/></g>
<g><path style="opacity:1" fill="#7b7065" d="M 471.5,35.5 C 469.167,38.5 466.5,41.1667 463.5,43.5C 465.167,39.8333 467.833,37.1667 471.5,35.5 Z"/></g>
<g><path style="opacity:1" fill="#756a60" d="M 489.5,47.5 C 490.768,49.9052 491.435,52.5718 491.5,55.5C 489.96,53.1617 489.294,50.4951 489.5,47.5 Z"/></g>
<g><path style="opacity:1" fill="#8d7d70" d="M 111.5,46.5 C 111.58,49.7814 110.913,52.7814 109.5,55.5C 109.42,52.2186 110.087,49.2186 111.5,46.5 Z"/></g>
<g><path style="opacity:1" fill="#6e655c" d="M 461.5,46.5 C 460.241,50.0246 458.241,53.0246 455.5,55.5C 456.723,51.9505 458.723,48.9505 461.5,46.5 Z"/></g>
<g><path style="opacity:1" fill="#9f8b79" d="M 109.5,56.5 C 109.816,62.75 109.15,68.75 107.5,74.5C 107.388,68.2737 108.054,62.2737 109.5,56.5 Z"/></g>
<g><path style="opacity:1" fill="#6a6159" d="M 440.5,80.5 C 439.921,83.3311 438.588,85.6644 436.5,87.5C 437.079,84.6689 438.412,82.3356 440.5,80.5 Z"/></g>
<g><path style="opacity:1" fill="#6b625a" d="M 164.5,88.5 C 167.258,91.678 169.258,95.3447 170.5,99.5C 167.742,96.322 165.742,92.6553 164.5,88.5 Z"/></g>
<g><path style="opacity:1" fill="#6a6159" d="M 170.5,99.5 C 172.293,101.426 173.293,103.759 173.5,106.5C 171.707,104.574 170.707,102.241 170.5,99.5 Z"/></g>
<g><path style="opacity:1" fill="#665e56" d="M 182.5,128.5 C 183.924,130.515 184.59,132.848 184.5,135.5C 183.076,133.485 182.41,131.152 182.5,128.5 Z"/></g>
<g><path style="opacity:1" fill="#a58e7a" d="M 417.5,131.5 C 415.86,139.976 416.193,148.309 418.5,156.5C 417.21,155.942 416.377,154.942 416,153.5C 413.906,145.887 414.406,138.553 417.5,131.5 Z"/></g>
<g><path style="opacity:1" fill="#6e645c" d="M 420.5,159.5 C 422.587,160.585 423.92,162.251 424.5,164.5C 422.413,163.415 421.08,161.749 420.5,159.5 Z"/></g>
<g><path style="opacity:1" fill="#6c635b" d="M 179.5,160.5 C 178.581,163.089 176.914,165.089 174.5,166.5C 175.419,163.911 177.086,161.911 179.5,160.5 Z"/></g>
<g><path style="opacity:1" fill="#645d55" d="M 425.5,165.5 C 429.5,168.833 433.167,172.5 436.5,176.5C 431.833,173.833 428.167,170.167 425.5,165.5 Z"/></g>
<g><path style="opacity:1" fill="#766b62" d="M 493.5,160.5 C 493.745,166.084 493.078,171.417 491.5,176.5C 491.668,170.966 492.335,165.633 493.5,160.5 Z"/></g>
<g><path style="opacity:1" fill="#665e56" d="M 165.5,175.5 C 164.089,177.914 162.089,179.581 159.5,180.5C 160.911,178.086 162.911,176.419 165.5,175.5 Z"/></g>
<g><path style="opacity:1" fill="#746a60" d="M 436.5,176.5 C 439.089,177.419 441.089,179.086 442.5,181.5C 439.911,180.581 437.911,178.914 436.5,176.5 Z"/></g>
<g><path style="opacity:1" fill="#6d635b" d="M 491.5,177.5 C 491.568,181.57 490.568,185.237 488.5,188.5C 489.055,184.603 490.055,180.937 491.5,177.5 Z"/></g>
<g><path style="opacity:1" fill="#6f665d" d="M 109.5,178.5 C 110.768,180.905 111.435,183.572 111.5,186.5C 109.96,184.162 109.294,181.495 109.5,178.5 Z"/></g>
<g><path style="opacity:1" fill="#696159" d="M 143.5,191.5 C 142.089,193.539 140.089,194.539 137.5,194.5C 139.181,192.992 141.181,191.992 143.5,191.5 Z"/></g>
<g><path style="opacity:1" fill="#6f665d" d="M 488.5,188.5 C 487.699,194.3 484.366,197.3 478.5,197.5C 483.08,195.922 486.413,192.922 488.5,188.5 Z"/></g>
<g><path style="opacity:1" fill="#f2be8e" d="M 235.5,213.5 C 248.704,213.522 258.204,219.522 264,231.5C 268.017,238.694 269.35,246.361 268,254.5C 266.011,260.851 261.844,263.351 255.5,262C 252.797,258.962 249.797,256.295 246.5,254C 236.287,250.097 227.454,244.263 220,236.5C 215.416,227.82 217.583,221.32 226.5,217C 229.571,215.704 232.571,214.538 235.5,213.5 Z"/></g>
<g><path style="opacity:1" fill="#f2be8e" d="M 355.5,213.5 C 363.49,212.659 370.823,214.492 377.5,219C 383.142,224.432 383.976,230.599 380,237.5C 377.463,240.372 374.63,242.872 371.5,245C 361.979,248.587 353.646,253.92 346.5,261C 337.753,264.195 333.253,261.028 333,251.5C 332.85,234.181 340.35,221.515 355.5,213.5 Z"/></g>
<g><path style="opacity:1" fill="#020201" d="M 213.5,265.5 C 231.759,262.54 244.259,269.54 251,286.5C 254.147,294.228 255.48,302.228 255,310.5C 254.167,311.333 253.333,312.167 252.5,313C 229.11,313.983 208.943,306.483 192,290.5C 184.372,280.898 186.205,274.064 197.5,270C 202.956,268.473 208.289,266.973 213.5,265.5 Z"/></g>
<g><path style="opacity:1" fill="#010101" d="M 372.5,265.5 C 384.695,264.866 396.361,267.032 407.5,272C 414.161,275.759 415.327,280.926 411,287.5C 393.401,306.141 371.901,314.308 346.5,312C 344.485,295.723 349.485,281.723 361.5,270C 365.157,268.178 368.824,266.678 372.5,265.5 Z"/></g>
<g><path style="opacity:1" fill="#ededed" d="M 233.5,278.5 C 241.294,279.252 242.961,282.752 238.5,289C 232,290.5 229.5,288 231,281.5C 231.698,280.309 232.531,279.309 233.5,278.5 Z"/></g>
<g><path style="opacity:1" fill="#eeeeee" d="M 362.5,278.5 C 370.241,278.738 372.241,282.238 368.5,289C 359.412,289.426 357.412,285.926 362.5,278.5 Z"/></g>
<g><path style="opacity:1" fill="#040303" d="M 291.5,336.5 C 328.843,337.013 361.51,349.513 389.5,374C 398.364,382.53 406.864,391.363 415,400.5C 422.44,409.88 427.607,420.38 430.5,432C 428.017,447.797 421.85,461.963 412,474.5C 407.051,479.571 402.217,484.738 397.5,490C 386.108,498.391 374.441,506.391 362.5,514C 353.131,523.037 343.465,531.704 333.5,540C 311.154,551.331 288.821,551.331 266.5,540C 256.535,531.704 246.869,523.037 237.5,514C 225.821,506.828 214.488,499.162 203.5,491C 186.287,475.907 174.953,457.24 169.5,435C 172.165,421.837 177.665,410.004 186,399.5C 208.44,371.077 236.94,351.243 271.5,340C 278.289,338.703 284.956,337.536 291.5,336.5 Z"/></g>
<g><path style="opacity:1" fill="#dbc1aa" d="M 319.5,349.5 C 307.852,348.698 296.185,348.365 284.5,348.5C 296.228,345.868 307.895,346.201 319.5,349.5 Z"/></g>
<g><path style="opacity:1" fill="#f1bd8d" d="M 284.5,348.5 C 296.185,348.365 307.852,348.698 319.5,349.5C 333.691,353.758 347.358,359.425 360.5,366.5C 367.65,372.137 374.983,377.637 382.5,383C 389.368,390.036 396.368,396.869 403.5,403.5C 412.106,411.535 417.773,421.368 420.5,433C 414.796,457.086 401.13,475.086 379.5,487C 371.687,491.989 363.187,495.155 354,496.5C 352.408,496.395 350.908,496.061 349.5,495.5C 340.13,492.315 331.13,488.315 322.5,483.5C 318.952,481.101 314.952,479.601 310.5,479C 299.115,477.45 288.115,478.784 277.5,483C 269.468,488.516 260.801,492.683 251.5,495.5C 245.738,495.851 240.072,495.351 234.5,494C 219.675,487.174 206.508,478.008 195,466.5C 188.624,458.081 184.124,448.747 181.5,438.5C 181.234,434.395 181.734,430.395 183,426.5C 191.946,408.789 204.113,393.622 219.5,381C 227.017,375.637 234.35,370.137 241.5,364.5C 249.358,361.07 257.024,357.403 264.5,353.5C 270.684,350.325 277.351,348.658 284.5,348.5 Z"/></g>
<g><path style="opacity:1" fill="#cbb9a9" d="M 264.5,353.5 C 257.024,357.403 249.358,361.07 241.5,364.5C 248.469,359.517 256.136,355.85 264.5,353.5 Z"/></g>
<g><path style="opacity:1" fill="#cbb9a9" d="M 319.5,349.5 C 328.142,350.911 336.476,353.411 344.5,357C 350.392,359.437 355.726,362.604 360.5,366.5C 347.358,359.425 333.691,353.758 319.5,349.5 Z"/></g>
<g><path style="opacity:1" fill="#cebaa9" d="M 360.5,366.5 C 377.561,375.554 391.895,387.887 403.5,403.5C 396.368,396.869 389.368,390.036 382.5,383C 374.983,377.637 367.65,372.137 360.5,366.5 Z"/></g>
<g><path style="opacity:1" fill="#010000" d="M 293.5,387.5 C 310.673,386.354 326.34,390.521 340.5,400C 346.214,405.43 348.88,412.097 348.5,420C 347.188,450.813 331.188,466.646 300.5,467.5C 269.357,466.551 253.023,450.385 251.5,419C 253.258,405.565 260.591,396.565 273.5,392C 280.163,389.831 286.829,388.331 293.5,387.5 Z"/></g>
<g><path style="opacity:1" fill="#cdb9a9" d="M 241.5,364.5 C 234.35,370.137 227.017,375.637 219.5,381C 204.113,393.622 191.946,408.789 183,426.5C 181.734,430.395 181.234,434.395 181.5,438.5C 180.475,437.626 179.808,436.459 179.5,435C 183.075,422.096 189.242,410.596 198,400.5C 210.303,385.683 224.803,373.683 241.5,364.5 Z"/></g>
<g><path style="opacity:1" fill="#af6073" d="M 322.5,483.5 C 307.774,478.003 293.108,478.17 278.5,484C 270.494,489.503 261.828,493.669 252.5,496.5C 251.893,496.376 251.56,496.043 251.5,495.5C 260.801,492.683 269.468,488.516 277.5,483C 288.115,478.784 299.115,477.45 310.5,479C 314.952,479.601 318.952,481.101 322.5,483.5 Z"/></g>
<g><path style="opacity:1" fill="#e26a9a" d="M 291.5,489.5 C 298.906,489.152 306.239,489.652 313.5,491C 323.885,497.359 334.885,502.359 346.5,506C 334.859,537.485 312.859,548.152 280.5,538C 267.706,531.028 259.04,520.528 254.5,506.5C 267.335,501.577 279.668,495.91 291.5,489.5 Z"/></g>
<g><path style="opacity:1" fill="#b16274" d="M 322.5,483.5 C 331.13,488.315 340.13,492.315 349.5,495.5C 349.44,496.043 349.107,496.376 348.5,496.5C 338.946,493.723 330.279,489.39 322.5,483.5 Z"/></g>
</svg>
