<?xml version="1.0" encoding="UTF-8"?>
<!DOCTYPE svg PUBLIC "-//W3C//DTD SVG 1.1//EN" "http://www.w3.org/Graphics/SVG/1.1/DTD/svg11.dtd">
<svg xmlns="http://www.w3.org/2000/svg" version="1.1" width="600px" height="600px" style="shape-rendering:geometricPrecision; text-rendering:geometricPrecision; image-rendering:optimizeQuality; fill-rule:evenodd; clip-rule:evenodd" xmlns:xlink="http://www.w3.org/1999/xlink">
<g><path style="opacity:0.955" fill="#020202" d="M 98.5,-0.5 C 111.833,-0.5 125.167,-0.5 138.5,-0.5C 149.995,7.48253 160.495,16.8159 170,27.5C 182.833,42.3333 195.667,57.1667 208.5,72C 227.042,85.0516 247.375,89.0516 269.5,84C 292.171,82.0852 314.838,82.0852 337.5,84C 347.698,86.6334 358.032,88.4667 368.5,89.5C 372.725,90.0136 376.391,88.8469 379.5,86C 396.311,65.5545 413.478,45.3879 431,25.5C 440.061,15.757 449.895,7.09037 460.5,-0.5C 473.833,-0.5 487.167,-0.5 500.5,-0.5C 508.492,6.66838 514.325,15.335 518,25.5C 526.875,55.3301 531.042,85.8301 530.5,117C 529.386,157.145 526.386,197.145 521.5,237C 528.479,285.97 530.645,335.136 528,384.5C 526.479,416.063 517.145,445.063 500,471.5C 466.843,523.989 422.343,563.823 366.5,591C 359.107,593.959 351.773,596.793 344.5,599.5C 314.167,599.5 283.833,599.5 253.5,599.5C 203.591,581.445 161.424,552.111 127,511.5C 104.257,486.038 87.2567,457.038 76,424.5C 74.1537,417.935 72.8204,411.269 72,404.5C 67.2734,349.92 69.1067,295.586 77.5,241.5C 74.4712,211.212 71.9712,180.878 70,150.5C 69.3333,129.167 69.3333,107.833 70,86.5C 70.8972,69.2192 73.5639,52.2192 78,35.5C 81.5014,21.4852 88.3348,9.48519 98.5,-0.5 Z"/></g>
<g><path style="opacity:1" fill="#bbbbba" d="M 111.5,4.5 C 116.913,4.22877 122.246,4.72877 127.5,6C 133.677,8.91928 139.344,12.5859 144.5,17C 162.817,34.6419 179.65,53.4753 195,73.5C 210.011,87.5683 227.844,95.5683 248.5,97.5C 267.172,94.1626 286.005,92.8293 305,93.5C 322.513,92.2734 339.679,94.1067 356.5,99C 362.833,99.6667 369.167,99.6667 375.5,99C 380.058,98.0543 384.058,96.0543 387.5,93C 403.291,73.5402 419.458,54.3735 436,35.5C 444.939,25.5555 454.772,16.7222 465.5,9C 484.055,-0.259513 497.555,4.57382 506,23.5C 513.984,44.0677 518.318,65.4011 519,87.5C 519.698,113.179 519.365,138.846 518,164.5C 515.866,187.342 513.699,210.176 511.5,233C 515.906,270.378 518.573,307.878 519.5,345.5C 519.427,369.71 517.26,393.71 513,417.5C 504.603,443.298 492.269,466.964 476,488.5C 445.68,528.161 408.18,558.995 363.5,581C 326.278,597.934 288.278,599.934 249.5,587C 207.413,570.371 171.247,545.204 141,511.5C 120.949,489.753 104.616,465.42 92,438.5C 88.0752,429.469 85.0752,420.135 83,410.5C 76.9032,353.89 78.7366,297.557 88.5,241.5C 85.004,209.222 82.1707,176.889 80,144.5C 78.4265,114.356 79.7598,84.3555 84,54.5C 86.0964,40.5419 90.763,27.5419 98,15.5C 101.842,10.8053 106.342,7.13862 111.5,4.5 Z"/></g>
<g><path style="opacity:1" fill="#020202" d="M 118.5,23.5 C 128.185,23.2596 136.018,26.9263 142,34.5C 162.495,62.817 178.829,93.4836 191,126.5C 196.83,141.689 194.83,155.689 185,168.5C 172.514,182.665 158.014,194.165 141.5,203C 116.036,213.025 101.87,204.525 99,177.5C 94.1473,135.132 94.4806,92.7982 100,50.5C 101.326,41.3488 105.16,33.5155 111.5,27C 114.069,26.1016 116.402,24.935 118.5,23.5 Z"/></g>
<g><path style="opacity:1" fill="#040404" d="M 475.5,23.5 C 487.474,24.9667 494.974,31.6334 498,43.5C 502.766,68.8972 504.6,94.5639 503.5,120.5C 504.749,143.21 502.916,165.543 498,187.5C 495.599,200.235 487.932,206.902 475,207.5C 469.405,206.953 463.905,205.787 458.5,204C 439.102,194.035 422.935,180.202 410,162.5C 403.797,151.662 402.797,140.329 407,128.5C 419.049,96.068 435.049,65.7347 455,37.5C 458.5,34 462,30.5 465.5,27C 468.681,25.156 472.014,23.9894 475.5,23.5 Z"/></g>
<g><path style="opacity:1" fill="#464545" d="M 416.5,131.5 C 417.097,131.735 417.43,132.235 417.5,133C 413.88,142.543 415.047,151.376 421,159.5C 433.277,175.119 448.444,186.952 466.5,195C 477.684,199.324 484.851,195.824 488,184.5C 491.73,164.186 493.563,143.686 493.5,123C 493.052,102.124 491.885,81.2906 490,60.5C 489.734,51.3651 486.9,43.1985 481.5,36C 478.97,34.5783 476.303,34.245 473.5,35C 470.035,37.4626 466.869,40.2959 464,43.5C 445.387,71.0964 429.887,99.7631 417.5,129.5C 422.331,113.833 428.831,98.8327 437,84.5C 444.269,71.5705 451.936,58.9038 460,46.5C 463.131,42.3672 466.631,38.5338 470.5,35C 478.38,31.3435 483.88,33.5101 487,41.5C 488.202,44.7735 489.202,48.1069 490,51.5C 495.279,93.1383 495.612,134.805 491,176.5C 490.21,183.207 488.043,189.374 484.5,195C 479.43,197.424 474.097,198.091 468.5,197C 450.871,189.718 435.704,178.884 423,164.5C 414.257,154.851 412.091,143.851 416.5,131.5 Z"/></g>
<g><path style="opacity:1" fill="#282625" d="M 126.5,34.5 C 134.236,42.1666 141.07,51.1666 147,61.5C 158.184,80.2449 168.351,98.9116 177.5,117.5C 183.518,128.552 185.518,140.219 183.5,152.5C 169.413,171.597 151.746,186.263 130.5,196.5C 119.819,200.075 112.985,196.409 110,185.5C 107.93,175.937 106.596,166.271 106,156.5C 105.333,132.833 105.333,109.167 106,85.5C 106.538,74.4578 107.538,63.4578 109,52.5C 109.895,46.7178 111.895,41.3844 115,36.5C 118.53,33.5 122.364,32.8334 126.5,34.5 Z"/></g>
<g><path style="opacity:1" fill="#282625" d="M 416.5,131.5 C 416.328,130.508 416.662,129.842 417.5,129.5C 429.887,99.7631 445.387,71.0964 464,43.5C 466.869,40.2959 470.035,37.4626 473.5,35C 476.303,34.245 478.97,34.5783 481.5,36C 486.9,43.1985 489.734,51.3651 490,60.5C 491.885,81.2906 493.052,102.124 493.5,123C 493.563,143.686 491.73,164.186 488,184.5C 484.851,195.824 477.684,199.324 466.5,195C 448.444,186.952 433.277,175.119 421,159.5C 415.047,151.376 413.88,142.543 417.5,133C 417.43,132.235 417.097,131.735 416.5,131.5 Z"/></g>
<g><path style="opacity:1" fill="#3e3d3d" d="M 126.5,34.5 C 129.372,35.5256 131.872,37.1923 134,39.5C 151.341,63.8429 165.841,89.8429 177.5,117.5C 168.351,98.9116 158.184,80.2449 147,61.5C 141.07,51.1666 134.236,42.1666 126.5,34.5 Z"/></g>
<g><path style="opacity:1" fill="#3b3b3b" d="M 183.5,152.5 C 181.86,156.441 179.694,160.108 177,163.5C 167.373,174.21 156.539,183.377 144.5,191C 140.137,193.684 135.47,195.518 130.5,196.5C 151.746,186.263 169.413,171.597 183.5,152.5 Z"/></g>
<g><path style="opacity:1" fill="#292726" d="M 235.5,213.5 C 248.338,213.839 257.505,219.839 263,231.5C 266.999,239.491 267.999,247.825 266,256.5C 263.427,262.455 259.261,263.955 253.5,261C 246.354,253.92 238.021,248.587 228.5,245C 219.078,240.003 215.911,232.503 219,222.5C 223.788,218.026 229.288,215.026 235.5,213.5 Z"/></g>
<g><path style="opacity:1" fill="#282625" d="M 356.5,213.5 C 363.674,213.46 370.341,215.294 376.5,219C 382.142,224.432 382.976,230.599 379,237.5C 371.932,244.291 363.765,249.457 354.5,253C 351.203,255.295 348.203,257.962 345.5,261C 339.132,264.188 334.965,262.354 333,255.5C 330.837,239.667 336.004,226.833 348.5,217C 351.158,215.522 353.825,214.355 356.5,213.5 Z"/></g>
<g><path style="opacity:1" fill="#020202" d="M 211.5,265.5 C 228.567,262.446 241.067,268.446 249,283.5C 252.239,290.857 254.405,298.524 255.5,306.5C 255.125,308.459 254.459,310.293 253.5,312C 229.432,314.806 208.765,307.639 191.5,290.5C 183.469,281.178 185.135,274.344 196.5,270C 201.664,268.631 206.664,267.131 211.5,265.5 Z"/></g>
<g><path style="opacity:1" fill="#010101" d="M 371.5,265.5 C 386.135,264.534 399.635,267.867 412,275.5C 412.667,278.5 412.667,281.5 412,284.5C 398.705,301.403 381.205,310.903 359.5,313C 347.692,316.515 342.859,312.348 345,300.5C 346.775,289.116 351.609,279.283 359.5,271C 363.284,268.471 367.284,266.638 371.5,265.5 Z"/></g>
<g><path style="opacity:1" fill="#ececec" d="M 232.5,278.5 C 240.818,278.987 242.485,282.487 237.5,289C 231,290.5 228.5,288 230,281.5C 231.045,280.627 231.878,279.627 232.5,278.5 Z"/></g>
<g><path style="opacity:1" fill="#ededed" d="M 361.5,278.5 C 369.302,278.787 371.302,282.287 367.5,289C 358.473,289.477 356.473,285.977 361.5,278.5 Z"/></g>
<g><path style="opacity:1" fill="#282625" d="M 420.5,435.5 C 415.981,455.85 404.981,471.683 387.5,483C 385.833,483.333 384.167,483.667 382.5,484C 372.576,492.135 361.243,495.968 348.5,495.5C 338.027,491.267 327.693,486.434 317.5,481C 305.5,476.333 293.5,476.333 281.5,481C 271.498,486.499 261.498,491.665 251.5,496.5C 242.38,497.924 233.713,496.424 225.5,492C 215.115,484.958 205.281,477.124 196,468.5C 189.204,459.244 183.704,449.244 179.5,438.5C 180.986,429.17 184.486,420.504 190,412.5C 210.55,383.947 237.384,363.78 270.5,352C 297.659,344.993 323.659,347.993 348.5,361C 374.669,374.83 396.169,393.997 413,418.5C 415.65,424.351 418.15,430.018 420.5,435.5 Z"/></g>
<g><path style="opacity:1" fill="#000000" d="M 287.5,387.5 C 303.965,386.181 319.631,389.014 334.5,396C 337.645,397.978 340.312,400.478 342.5,403.5C 342.291,404.086 341.957,404.586 341.5,405C 345.596,409.364 347.262,414.53 346.5,420.5C 343.162,454.985 324.162,470.152 289.5,466C 273.329,463.496 262.163,454.663 256,439.5C 252.984,430.385 251.65,421.052 252,411.5C 254.331,404.838 258.497,399.671 264.5,396C 272.018,392.442 279.685,389.609 287.5,387.5 Z"/></g>
<g><path style="opacity:1" fill="#020202" d="M 179.5,438.5 C 183.704,449.244 189.204,459.244 196,468.5C 205.281,477.124 215.115,484.958 225.5,492C 233.713,496.424 242.38,497.924 251.5,496.5C 258.01,531.176 278.676,545.676 313.5,540C 328.547,535.287 338.714,525.454 344,510.5C 345.81,505.572 347.31,500.572 348.5,495.5C 361.243,495.968 372.576,492.135 382.5,484C 384.167,483.667 385.833,483.333 387.5,483C 404.981,471.683 415.981,455.85 420.5,435.5C 424.569,434.04 427.236,435.54 428.5,440C 422.366,460.137 411.366,477.137 395.5,491C 384.108,499.391 372.441,507.391 360.5,515C 351.833,523 343.167,531 334.5,539C 311.666,551.264 288.666,551.598 265.5,540C 256.514,533.013 248.181,525.347 240.5,517C 226.817,508.159 213.484,498.826 200.5,489C 190.071,478.908 181.571,467.408 175,454.5C 172.237,449.119 170.904,443.452 171,437.5C 174.547,433.271 177.38,433.604 179.5,438.5 Z"/></g>
<g><path style="opacity:1" fill="#e36b9b" d="M 348.5,495.5 C 347.31,500.572 345.81,505.572 344,510.5C 338.714,525.454 328.547,535.287 313.5,540C 278.676,545.676 258.01,531.176 251.5,496.5C 261.498,491.665 271.498,486.499 281.5,481C 293.5,476.333 305.5,476.333 317.5,481C 327.693,486.434 338.027,491.267 348.5,495.5 Z"/></g>
</svg>
