<?xml version="1.0" encoding="UTF-8"?>
<!DOCTYPE svg PUBLIC "-//W3C//DTD SVG 1.1//EN" "http://www.w3.org/Graphics/SVG/1.1/DTD/svg11.dtd">
<svg xmlns="http://www.w3.org/2000/svg" version="1.1" width="600px" height="600px" style="shape-rendering:geometricPrecision; text-rendering:geometricPrecision; image-rendering:optimizeQuality; fill-rule:evenodd; clip-rule:evenodd" xmlns:xlink="http://www.w3.org/1999/xlink">
<g><path style="opacity:0.97" fill="#030303" d="M 289.5,-0.5 C 293.833,-0.5 298.167,-0.5 302.5,-0.5C 308.932,3.28562 312.599,8.95229 313.5,16.5C 316.518,16.6646 319.518,16.498 322.5,16C 336.497,6.33308 351.83,2.66641 368.5,5C 375.296,9.67709 376.629,15.5104 372.5,22.5C 383.444,22.5181 394.444,22.6847 405.5,23C 414.915,23.8152 423.915,26.1485 432.5,30C 436.395,34.027 438.062,38.6937 437.5,44C 449.577,45.0145 461.244,47.6812 472.5,52C 480.393,58.4969 481.06,65.4969 474.5,73C 484.469,77.6503 494.469,82.3169 504.5,87C 512.917,91.9499 515.417,98.7833 512,107.5C 510.833,108.667 509.667,109.833 508.5,111C 519.995,117.838 530.495,126.004 540,135.5C 544.975,143.101 543.808,149.601 536.5,155C 545.552,163.373 553.052,172.873 559,183.5C 560.974,192.1 557.807,197.767 549.5,200.5C 554.827,207.152 559.66,214.152 564,221.5C 566.533,226.599 568.366,231.932 569.5,237.5C 568.985,240.743 567.652,243.576 565.5,246C 569.476,256.088 571.643,266.588 572,277.5C 577.468,291.238 582.135,305.238 586,319.5C 586.618,325.683 586.451,331.849 585.5,338C 588.102,354.51 590.769,371.01 593.5,387.5C 592.97,393.62 591.804,399.62 590,405.5C 590.078,420.645 588.745,435.645 586,450.5C 584.59,455.914 581.59,460.247 577,463.5C 573.39,471.721 570.057,480.054 567,488.5C 564.785,493.1 561.952,497.266 558.5,501C 545.226,505.875 532.226,511.542 519.5,518C 512.416,520.94 505.083,522.274 497.5,522C 495.112,521.697 492.945,520.863 491,519.5C 487.703,520.079 484.703,519.079 482,516.5C 479.128,523.91 475.461,530.91 471,537.5C 465.093,544.824 458.426,545.824 451,540.5C 447.812,550.073 442.312,557.907 434.5,564C 425.234,567.36 418.734,564.526 415,555.5C 410.97,564.749 405.137,572.582 397.5,579C 387.063,582.641 380.563,579.141 378,568.5C 373.831,574.166 370.165,580.166 367,586.5C 360.158,595.309 352.491,596.309 344,589.5C 342.346,585.216 340.846,580.882 339.5,576.5C 337.189,577.214 335.022,578.214 333,579.5C 330.526,586.796 327.026,593.462 322.5,599.5C 317.167,599.5 311.833,599.5 306.5,599.5C 305.164,597.99 303.997,596.323 303,594.5C 301.896,589.479 300.729,584.479 299.5,579.5C 296.917,578.062 294.583,578.396 292.5,580.5C 292.14,587.64 289.806,593.973 285.5,599.5C 280.5,599.5 275.5,599.5 270.5,599.5C 265.478,594.132 261.978,587.798 260,580.5C 257.866,578.516 255.366,577.182 252.5,576.5C 252.594,586.35 247.928,592.35 238.5,594.5C 234.539,593.769 231.039,592.103 228,589.5C 223.416,582.668 219.083,575.668 215,568.5C 211.443,579.694 204.276,582.86 193.5,578C 186.901,571.299 181.401,563.799 177,555.5C 175.445,561.718 171.445,565.051 165,565.5C 158.515,565.022 153.515,562.022 150,556.5C 147.24,551.305 144.24,546.305 141,541.5C 134.664,545.267 128.664,544.6 123,539.5C 117.695,532.558 113.695,524.891 111,516.5C 108.958,518.604 106.458,519.771 103.5,520C 97.9419,521.81 92.2752,522.476 86.5,522C 82.1062,520.869 77.7728,519.535 73.5,518C 61.0537,512.109 48.387,506.776 35.5,502C 32.0673,498.958 29.234,495.458 27,491.5C 23.3333,482.5 19.6667,473.5 16,464.5C 7.96037,457.409 3.96037,448.409 4,437.5C 3.7682,425.805 3.10153,414.138 2,402.5C 1.30239,399.996 0.46906,397.663 -0.5,395.5C -0.5,389.833 -0.5,384.167 -0.5,378.5C 1.96198,368.701 4.12864,358.701 6,348.5C 6.70946,340.98 6.54279,333.48 5.5,326C 8.5202,309.939 13.3535,294.439 20,279.5C 20.6901,268.216 22.8567,257.216 26.5,246.5C 24.1143,242.838 23.281,238.838 24,234.5C 28.3013,221.728 34.8013,210.228 43.5,200C 33.2145,196.415 30.3812,189.581 35,179.5C 41.0494,170.444 48.216,162.278 56.5,155C 50.2742,150.989 48.4408,145.489 51,138.5C 53.0751,134.421 55.9084,130.921 59.5,128C 67.0565,122.111 74.8898,116.611 83,111.5C 76.4623,103.44 77.2956,95.9401 85.5,89C 95.8292,83.1663 106.496,77.9996 117.5,73.5C 110.385,58.9097 115.051,50.4097 131.5,48C 139.405,46.1326 147.405,44.9659 155.5,44.5C 154.009,35.2976 157.676,29.4643 166.5,27C 173.065,25.1537 179.731,23.8204 186.5,23C 197.852,22.5399 209.185,22.5399 220.5,23C 215.959,16.0441 216.959,10.0441 223.5,5C 240.216,2.67854 255.549,6.3452 269.5,16C 272.554,16.8214 275.554,16.6548 278.5,15.5C 280.205,8.73853 283.871,3.40519 289.5,-0.5 Z"/></g>
<g><path style="opacity:1" fill="#f5f5f5" d="M 548.5,232.5 C 547.816,230.815 546.483,229.815 544.5,229.5C 543.119,230 542.453,231 542.5,232.5C 543.637,242.627 545.471,252.627 548,262.5C 552.398,271.703 556.398,281.037 560,290.5C 560.497,293.146 560.664,295.813 560.5,298.5C 556.528,297.051 553.194,294.551 550.5,291C 549.552,290.517 548.552,290.351 547.5,290.5C 547.334,299.506 547.5,308.506 548,317.5C 549.871,329.188 551.871,340.855 554,352.5C 554.667,358.5 554.667,364.5 554,370.5C 553.282,371.451 552.449,371.617 551.5,371C 548.943,368.108 546.776,364.941 545,361.5C 544,360.167 543,360.167 542,361.5C 537.502,381.459 537.335,401.459 541.5,421.5C 541.204,425.238 540.538,428.905 539.5,432.5C 535.824,427.337 532.99,421.67 531,415.5C 530.282,414.549 529.449,414.383 528.5,415C 525.865,420.906 524.032,427.073 523,433.5C 522.746,445.633 521.412,457.633 519,469.5C 518.424,472.124 517.09,472.791 515,471.5C 513.838,465.878 513.005,460.211 512.5,454.5C 511.178,454.33 510.011,454.663 509,455.5C 506.651,460.198 504.318,464.864 502,469.5C 499.796,480.187 497.462,490.854 495,501.5C 494.041,503.953 492.874,506.286 491.5,508.5C 491.44,509.043 491.107,509.376 490.5,509.5C 486.819,505.32 482.152,502.653 476.5,501.5C 473.018,509.803 469.518,518.136 466,526.5C 464.669,528.996 462.836,530.996 460.5,532.5C 459.957,532.44 459.624,532.107 459.5,531.5C 467.2,519.434 472.7,506.434 476,492.5C 476.667,486.5 476.667,480.5 476,474.5C 474.397,466.217 473.23,457.884 472.5,449.5C 473.5,449.5 474.5,449.5 475.5,449.5C 475.231,445.069 475.564,440.735 476.5,436.5C 487.376,432.634 496.209,425.968 503,416.5C 529.714,355.89 532.38,294.223 511,231.5C 492.526,173.026 454.026,134.526 395.5,116C 328.212,96.678 290.046,121.511 281,190.5C 278.562,222.627 281.229,254.293 289,285.5C 290.731,287.617 292.898,289.117 295.5,290C 368.878,288.323 417.878,321.823 442.5,390.5C 440.142,392.024 438.309,394.024 437,396.5C 435.912,405.817 435.579,415.15 436,424.5C 436.697,430.36 439.863,433.694 445.5,434.5C 448.712,445.198 450.045,456.198 449.5,467.5C 447.278,467.822 445.444,467.155 444,465.5C 439.886,454.488 435.386,443.654 430.5,433C 429.551,432.383 428.718,432.549 428,433.5C 429.214,445.801 430.547,458.134 432,470.5C 432.859,480.219 432.526,489.885 431,499.5C 430.558,501.679 429.558,502.345 428,501.5C 424.937,491.228 421.271,481.228 417,471.5C 416.667,471.833 416.333,472.167 416,472.5C 416.192,489.443 414.192,506.109 410,522.5C 407.115,526.403 405.115,525.736 404,520.5C 402.544,503.219 399.544,486.219 395,469.5C 394,468.5 393,467.5 392,466.5C 388.814,470.873 386.147,475.54 384,480.5C 382.737,482.797 380.903,483.63 378.5,483C 377.206,480.913 376.039,478.746 375,476.5C 373.023,467.445 370.856,458.445 368.5,449.5C 358.297,443.898 347.963,438.565 337.5,433.5C 336.29,433.068 335.29,432.401 334.5,431.5C 322.442,423.803 309.776,417.136 296.5,411.5C 283.456,416.855 270.789,423.022 258.5,430C 257.748,430.671 257.414,431.504 257.5,432.5C 256.508,432.328 255.842,432.662 255.5,433.5C 244.664,438.168 234.164,443.502 224,449.5C 221.621,457.723 219.621,466.056 218,474.5C 217.063,477.656 215.563,480.489 213.5,483C 211.633,483.711 210.133,483.211 209,481.5C 206.503,476.684 204.003,471.851 201.5,467C 200.004,466.493 198.837,466.993 198,468.5C 193.16,486.208 189.826,504.208 188,522.5C 185.699,526.395 183.699,526.062 182,521.5C 178.346,505.045 176.346,488.379 176,471.5C 174.615,472.551 173.615,473.884 173,475.5C 170.132,483.772 167.465,492.105 165,500.5C 162.443,501.646 161.11,500.646 161,497.5C 159.444,476.92 160.944,456.586 165.5,436.5C 165.023,435.069 164.357,433.736 163.5,432.5C 161.282,433.924 159.782,435.924 159,438.5C 155.667,447.167 152.333,455.833 149,464.5C 147.585,467.218 145.585,467.885 143,466.5C 142.946,454.041 144.279,441.708 147,429.5C 150.402,414.881 154.569,400.548 159.5,386.5C 157.217,386.608 155.217,387.441 153.5,389C 150.882,391.739 148.382,394.573 146,397.5C 146.195,404.651 146.695,411.818 147.5,419C 147.695,421.793 147.029,424.293 145.5,426.5C 141.304,419.951 136.971,413.451 132.5,407C 126.671,405.094 122.838,407.26 121,413.5C 119.43,423.757 117.597,433.924 115.5,444C 117.752,448.01 118.752,452.344 118.5,457C 117.948,463.866 117.114,470.699 116,477.5C 115.617,489.648 117.951,501.315 123,512.5C 126.527,519.553 130.027,526.553 133.5,533.5C 130.572,532.409 128.406,530.409 127,527.5C 122.805,517.914 118.805,508.248 115,498.5C 112.688,495.021 109.854,492.021 106.5,489.5C 105.873,495.884 105.04,502.217 104,508.5C 102.413,509.727 101.079,509.394 100,507.5C 95.8598,496.526 93.1931,485.192 92,473.5C 89.5134,466.52 86.0134,460.186 81.5,454.5C 80.914,454.709 80.414,455.043 80,455.5C 79.9181,461.281 78.7514,466.781 76.5,472C 75.6683,472.688 75.0016,472.521 74.5,471.5C 72.4111,467.066 71.2445,462.4 71,457.5C 71.8742,443.001 69.7076,429.001 64.5,415.5C 63.5,414.167 62.5,414.167 61.5,415.5C 59.5986,421.543 56.9319,427.21 53.5,432.5C 52.8076,431.975 52.3076,431.308 52,430.5C 51.5995,416.802 52.0995,403.135 53.5,389.5C 53.9774,379.561 52.6441,369.894 49.5,360.5C 46.9391,362.607 45.1058,365.274 44,368.5C 42.1936,371.684 40.1936,372.017 38,369.5C 37.8333,367.167 37.6667,364.833 37.5,362.5C 39.4575,345.754 41.9575,329.088 45,312.5C 45.4997,305.174 45.6663,297.841 45.5,290.5C 41.8689,291.608 38.8689,293.774 36.5,297C 34.9751,298.009 33.3084,298.509 31.5,298.5C 31.267,293.966 32.1003,289.632 34,285.5C 43.2683,269.27 48.435,251.77 49.5,233C 49.1667,231.833 48.8333,230.667 48.5,229.5C 44.1197,231.377 40.4531,234.21 37.5,238C 36.2068,238.49 34.8734,238.657 33.5,238.5C 36.9984,226.838 42.8318,216.505 51,207.5C 55.4642,199.6 58.6308,191.267 60.5,182.5C 54.9776,185.092 49.3109,187.425 43.5,189.5C 43.1437,186.436 43.9771,183.769 46,181.5C 53.6357,172.863 61.6357,164.53 70,156.5C 73.9356,151.63 77.1023,146.296 79.5,140.5C 78.8333,140.167 78.1667,139.833 77.5,139.5C 72.5891,141.457 67.5891,143.123 62.5,144.5C 59.0724,144.86 58.5724,143.86 61,141.5C 71.027,132.239 81.8603,124.073 93.5,117C 98.4282,112.296 102.762,107.129 106.5,101.5C 105.667,101.167 104.833,100.833 104,100.5C 100.176,101.221 96.343,101.887 92.5,102.5C 90.9334,102.523 89.6001,102.023 88.5,101C 90.8706,98.294 93.5372,95.9606 96.5,94C 112.184,88.5593 126.85,81.2259 140.5,72C 142.607,70.7365 143.607,68.9032 143.5,66.5C 137.491,66.6662 131.491,66.4995 125.5,66C 123.993,65.1627 123.493,63.9961 124,62.5C 125.579,60.9588 127.413,59.7922 129.5,59C 143.102,56.295 156.768,53.9616 170.5,52C 176.523,50.4392 182.19,48.1059 187.5,45C 180.647,43.2493 173.647,41.916 166.5,41C 165.209,38.9098 165.876,37.5764 168.5,37C 184.912,32.5123 201.579,31.3456 218.5,33.5C 226.631,33.4335 234.631,32.4335 242.5,30.5C 243.583,29.635 243.749,28.635 243,27.5C 238.763,23.9643 234.263,20.7976 229.5,18C 228.62,16.6439 228.286,15.1439 228.5,13.5C 233.248,13.2748 237.915,13.7748 242.5,15C 252.703,18.1063 262.37,22.273 271.5,27.5C 275.817,26.8683 280.15,26.3683 284.5,26C 285.333,25.1667 286.167,24.3333 287,23.5C 287.869,18.5973 289.702,14.0973 292.5,10C 296.274,8.8175 299.441,9.65083 302,12.5C 303.579,16.6591 305.079,20.8258 306.5,25C 313.057,27.7228 319.723,28.0561 326.5,26C 337.49,17.7809 349.823,13.7809 363.5,14C 364.5,16.0907 363.833,17.7574 361.5,19C 357.026,21.9734 352.693,25.1401 348.5,28.5C 348.977,29.4776 349.643,30.3109 350.5,31C 357.719,32.8042 365.052,33.6376 372.5,33.5C 389.735,31.4203 406.735,32.587 423.5,37C 426.124,37.5764 426.791,38.9098 425.5,41C 399.877,41.7339 399.211,45.7339 423.5,53C 437.691,54.3126 451.691,56.6459 465.5,60C 468.894,61.5652 469.228,63.5652 466.5,66C 460.509,66.4995 454.509,66.6662 448.5,66.5C 448.297,68.3904 448.963,69.8904 450.5,71C 455.672,74.0852 460.672,77.4186 465.5,81C 477.454,85.7599 489.121,91.0933 500.5,97C 502.833,98.2426 503.5,99.9093 502.5,102C 497.109,102.269 491.776,101.769 486.5,100.5C 486.608,102.783 487.441,104.783 489,106.5C 499.088,116.636 510.255,125.469 522.5,133C 526.552,135.85 529.885,139.35 532.5,143.5C 531.5,143.833 530.5,144.167 529.5,144.5C 524.155,142.825 518.822,141.159 513.5,139.5C 514.929,145.025 517.429,150.025 521,154.5C 531.443,163.937 540.776,174.271 549,185.5C 549.854,187.607 549.188,188.941 547,189.5C 542.92,187.75 539.087,185.583 535.5,183C 534.207,182.51 532.873,182.343 531.5,182.5C 533.891,189.503 536.391,196.503 539,203.5C 544.58,210.992 549.913,218.659 555,226.5C 557.056,230.268 558.222,234.268 558.5,238.5C 556.692,238.509 555.025,238.009 553.5,237C 551.963,235.293 550.296,233.793 548.5,232.5 Z"/></g>
<g><path style="opacity:1" fill="#020202" d="M 476.5,436.5 C 472.599,437.143 469.266,436.143 466.5,433.5C 464.396,429.082 463.229,424.416 463,419.5C 460.694,424.613 457.528,429.113 453.5,433C 450.937,434.079 448.271,434.579 445.5,434.5C 439.863,433.694 436.697,430.36 436,424.5C 435.579,415.15 435.912,405.817 437,396.5C 438.309,394.024 440.142,392.024 442.5,390.5C 417.878,321.823 368.878,288.323 295.5,290C 292.898,289.117 290.731,287.617 289,285.5C 281.229,254.293 278.562,222.627 281,190.5C 290.046,121.511 328.212,96.678 395.5,116C 454.026,134.526 492.526,173.026 511,231.5C 532.38,294.223 529.714,355.89 503,416.5C 496.209,425.968 487.376,432.634 476.5,436.5 Z"/></g>
<g><path style="opacity:1" fill="#4c4949" d="M 344.5,119.5 C 402.455,119.393 448.288,142.726 482,189.5C 507.653,235.12 518.653,284.12 515,336.5C 512.116,363.81 504.783,389.81 493,414.5C 487.659,420.692 481.159,425.025 473.5,427.5C 469.48,401.197 461.647,399.864 450,423.5C 448.89,425.037 447.39,425.703 445.5,425.5C 444.481,417.178 444.648,408.844 446,400.5C 446.561,399.978 447.228,399.645 448,399.5C 450.019,401.243 452.186,402.41 454.5,403C 447.87,371.744 433.537,344.411 411.5,321C 388.049,299.446 360.383,286.78 328.5,283C 317.859,281.784 307.193,280.951 296.5,280.5C 290.544,250.75 288.711,220.75 291,190.5C 292.491,169.675 299.658,151.175 312.5,135C 321.795,126.851 332.462,121.685 344.5,119.5 Z"/></g>
<g><path style="opacity:1" fill="#cbc9ca" d="M 228.5,227.5 C 230.39,227.297 231.89,227.963 233,229.5C 235.009,247.186 243.009,261.52 257,272.5C 257.667,273.833 257.667,275.167 257,276.5C 246.36,278.486 235.86,281.319 225.5,285C 219.45,285.721 213.45,286.721 207.5,288C 202.228,290.941 197.228,294.274 192.5,298C 187.769,300.812 185.602,299.645 186,294.5C 201.51,284.33 215.176,271.996 227,257.5C 228.701,255.1 229.534,252.433 229.5,249.5C 228.876,243.922 227.876,238.422 226.5,233C 226.395,230.822 227.061,228.988 228.5,227.5 Z"/></g>
<g><path style="opacity:1" fill="#372f2c" d="M 360.5,227.5 C 362.39,227.297 363.89,227.963 365,229.5C 365.368,235.733 364.868,241.9 363.5,248C 363.443,250.96 363.943,253.793 365,256.5C 377.104,271.271 391.104,283.938 407,294.5C 407.339,298.487 405.506,299.987 401.5,299C 396.344,294.586 390.677,290.919 384.5,288C 375.775,286.722 367.109,285.055 358.5,283C 350.873,279.456 343.04,276.956 335,275.5C 334.333,274.5 334.333,273.5 335,272.5C 349.72,261.063 358.22,246.063 360.5,227.5 Z"/></g>
<g><path style="opacity:1" fill="#e7e7e7" d="M 548.5,232.5 C 552.482,240.606 555.982,248.939 559,257.5C 560.152,263.77 560.818,270.103 561,276.5C 566.201,291.103 571.201,305.77 576,320.5C 575.766,329.825 575.766,339.158 576,348.5C 579.265,360.655 581.431,372.988 582.5,385.5C 581.656,393.537 580.49,401.537 579,409.5C 578.667,419.833 578.333,430.167 578,440.5C 577.202,443.893 576.202,447.226 575,450.5C 567.063,459.038 561.729,469.038 559,480.5C 557.129,485.081 554.629,489.248 551.5,493C 537.79,498.348 524.123,504.015 510.5,510C 503.835,512.398 497.501,511.898 491.5,508.5C 492.874,506.286 494.041,503.953 495,501.5C 497.462,490.854 499.796,480.187 502,469.5C 504.318,464.864 506.651,460.198 509,455.5C 510.011,454.663 511.178,454.33 512.5,454.5C 513.005,460.211 513.838,465.878 515,471.5C 517.09,472.791 518.424,472.124 519,469.5C 521.412,457.633 522.746,445.633 523,433.5C 524.032,427.073 525.865,420.906 528.5,415C 529.449,414.383 530.282,414.549 531,415.5C 532.99,421.67 535.824,427.337 539.5,432.5C 540.538,428.905 541.204,425.238 541.5,421.5C 537.335,401.459 537.502,381.459 542,361.5C 543,360.167 544,360.167 545,361.5C 546.776,364.941 548.943,368.108 551.5,371C 552.449,371.617 553.282,371.451 554,370.5C 554.667,364.5 554.667,358.5 554,352.5C 551.871,340.855 549.871,329.188 548,317.5C 547.5,308.506 547.334,299.506 547.5,290.5C 548.552,290.351 549.552,290.517 550.5,291C 553.194,294.551 556.528,297.051 560.5,298.5C 560.664,295.813 560.497,293.146 560,290.5C 556.398,281.037 552.398,271.703 548,262.5C 545.471,252.627 543.637,242.627 542.5,232.5C 542.453,231 543.119,230 544.5,229.5C 546.483,229.815 547.816,230.815 548.5,232.5 Z"/></g>
<g><path style="opacity:1" fill="#4b4848" d="M 21.5,303.5 C 24.9289,307.217 29.2623,309.217 34.5,309.5C 32.7943,323.536 30.6277,337.536 28,351.5C 27.3333,358.167 27.3333,364.833 28,371.5C 30.114,379.478 35.2806,382.811 43.5,381.5C 43.6488,394.563 42.9821,407.563 41.5,420.5C 41.412,425.914 41.912,431.248 43,436.5C 43.7739,438.939 45.2739,440.773 47.5,442C 51.2255,442.76 54.8922,442.593 58.5,441.5C 59.3522,452.675 61.1855,463.675 64,474.5C 67.641,482.434 73.4744,484.767 81.5,481.5C 84.3632,491.427 87.0299,501.427 89.5,511.5C 85.6811,511.395 82.0145,510.562 78.5,509C 66.9386,502.884 54.9386,497.884 42.5,494C 41,492.5 39.5,491 38,489.5C 33.3333,478.833 28.6667,468.167 24,457.5C 21.294,455.129 18.9606,452.463 17,449.5C 14.2098,433.974 12.8764,418.307 13,402.5C 12.5621,399.624 11.5621,396.957 10,394.5C 9.83333,392.167 9.66667,389.833 9.5,387.5C 11.8049,372.474 14.3049,357.474 17,342.5C 17,334.5 17,326.5 17,318.5C 18.4053,313.452 19.9053,308.452 21.5,303.5 Z"/></g>
<g><path style="opacity:1" fill="#050505" d="M 284.5,314.5 C 298.429,313.647 312.096,315.147 325.5,319C 341.857,325.547 347.69,337.381 343,354.5C 340.083,362.754 334.917,369.254 327.5,374C 300.085,391.865 275.585,388.365 254,363.5C 242.275,342.338 247.441,327.172 269.5,318C 274.705,317.149 279.705,315.982 284.5,314.5 Z"/></g>
<g><path style="opacity:1" fill="#362e2b" d="M 280.5,325.5 C 290.839,325.334 301.172,325.5 311.5,326C 318.71,327.358 325.21,330.192 331,334.5C 336.164,346.079 333.664,355.912 323.5,364C 300.691,379.991 280.191,377.491 262,356.5C 258.838,351.223 257.838,345.557 259,339.5C 260.061,336.438 261.894,333.938 264.5,332C 269.607,328.935 274.94,326.769 280.5,325.5 Z"/></g>
<g><path style="opacity:1" fill="#e8e8e8" d="M 255.5,433.5 C 262.437,451.745 275.77,461.078 295.5,461.5C 315.963,461.617 329.963,452.284 337.5,433.5C 347.963,438.565 358.297,443.898 368.5,449.5C 370.856,458.445 373.023,467.445 375,476.5C 376.039,478.746 377.206,480.913 378.5,483C 380.903,483.63 382.737,482.797 384,480.5C 386.147,475.54 388.814,470.873 392,466.5C 393,467.5 394,468.5 395,469.5C 399.544,486.219 402.544,503.219 404,520.5C 405.115,525.736 407.115,526.403 410,522.5C 414.192,506.109 416.192,489.443 416,472.5C 416.333,472.167 416.667,471.833 417,471.5C 421.271,481.228 424.937,491.228 428,501.5C 429.558,502.345 430.558,501.679 431,499.5C 432.526,489.885 432.859,480.219 432,470.5C 430.547,458.134 429.214,445.801 428,433.5C 428.718,432.549 429.551,432.383 430.5,433C 435.386,443.654 439.886,454.488 444,465.5C 445.444,467.155 447.278,467.822 449.5,467.5C 450.045,456.198 448.712,445.198 445.5,434.5C 448.271,434.579 450.937,434.079 453.5,433C 457.528,429.113 460.694,424.613 463,419.5C 463.229,424.416 464.396,429.082 466.5,433.5C 469.266,436.143 472.599,437.143 476.5,436.5C 475.564,440.735 475.231,445.069 475.5,449.5C 474.5,449.5 473.5,449.5 472.5,449.5C 473.23,457.884 474.397,466.217 476,474.5C 476.667,480.5 476.667,486.5 476,492.5C 472.7,506.434 467.2,519.434 459.5,531.5C 459.624,532.107 459.957,532.44 460.5,532.5C 459.811,533.774 458.977,533.774 458,532.5C 458.175,527.131 458.008,521.798 457.5,516.5C 453.223,519.273 449.39,522.607 446,526.5C 442,534.5 438,542.5 434,550.5C 432.281,552.557 430.281,554.224 428,555.5C 426.413,554.663 425.58,553.33 425.5,551.5C 426.504,546.819 427.504,542.153 428.5,537.5C 414.267,540.561 404.434,548.894 399,562.5C 397.188,565.28 395.021,567.78 392.5,570C 389.882,570.521 388.549,569.354 388.5,566.5C 389.384,562.527 390.051,558.527 390.5,554.5C 379.965,553.851 371.798,557.851 366,566.5C 363.124,572.423 359.624,577.923 355.5,583C 354.552,583.483 353.552,583.649 352.5,583.5C 352.339,577.307 352.005,571.141 351.5,565C 343.136,564.756 335.136,566.423 327.5,570C 322.879,575.833 319.379,582.333 317,589.5C 315.921,591.394 314.587,591.727 313,590.5C 312.107,585.477 311.107,580.477 310,575.5C 309.208,573.413 308.041,571.579 306.5,570C 300.612,568.424 294.612,568.091 288.5,569C 286.061,569.774 284.227,571.274 283,573.5C 281.323,579.408 280.156,585.408 279.5,591.5C 278.178,591.67 277.011,591.337 276,590.5C 273.472,585.249 271.139,579.916 269,574.5C 267.5,573 266,571.5 264.5,570C 256.845,566.614 248.845,564.781 240.5,564.5C 240.666,570.509 240.499,576.509 240,582.5C 239.439,583.022 238.772,583.355 238,583.5C 235.679,582.513 234.013,580.846 233,578.5C 229.857,571.041 225.357,564.541 219.5,559C 214.125,556.406 208.458,554.906 202.5,554.5C 202.462,558.363 202.795,562.196 203.5,566C 203.691,567.973 203.024,569.473 201.5,570.5C 199.183,568.684 197.016,566.684 195,564.5C 191.452,557.901 187.286,551.735 182.5,546C 176.861,542.346 170.861,539.513 164.5,537.5C 164.763,542.053 165.429,546.553 166.5,551C 166.691,552.973 166.024,554.473 164.5,555.5C 161.857,554.024 159.69,552.024 158,549.5C 153.984,541.469 149.984,533.469 146,525.5C 142.701,522.022 139.034,519.022 135,516.5C 134.667,516.833 134.333,517.167 134,517.5C 134.56,522.985 134.393,528.319 133.5,533.5C 130.027,526.553 126.527,519.553 123,512.5C 117.951,501.315 115.617,489.648 116,477.5C 117.114,470.699 117.948,463.866 118.5,457C 118.752,452.344 117.752,448.01 115.5,444C 117.597,433.924 119.43,423.757 121,413.5C 122.838,407.26 126.671,405.094 132.5,407C 136.971,413.451 141.304,419.951 145.5,426.5C 147.029,424.293 147.695,421.793 147.5,419C 146.695,411.818 146.195,404.651 146,397.5C 148.382,394.573 150.882,391.739 153.5,389C 155.217,387.441 157.217,386.608 159.5,386.5C 154.569,400.548 150.402,414.881 147,429.5C 144.279,441.708 142.946,454.041 143,466.5C 145.585,467.885 147.585,467.218 149,464.5C 152.333,455.833 155.667,447.167 159,438.5C 159.782,435.924 161.282,433.924 163.5,432.5C 164.357,433.736 165.023,435.069 165.5,436.5C 160.944,456.586 159.444,476.92 161,497.5C 161.11,500.646 162.443,501.646 165,500.5C 167.465,492.105 170.132,483.772 173,475.5C 173.615,473.884 174.615,472.551 176,471.5C 176.346,488.379 178.346,505.045 182,521.5C 183.699,526.062 185.699,526.395 188,522.5C 189.826,504.208 193.16,486.208 198,468.5C 198.837,466.993 200.004,466.493 201.5,467C 204.003,471.851 206.503,476.684 209,481.5C 210.133,483.211 211.633,483.711 213.5,483C 215.563,480.489 217.063,477.656 218,474.5C 219.621,466.056 221.621,457.723 224,449.5C 234.164,443.502 244.664,438.168 255.5,433.5 Z"/></g>
<g><path style="opacity:1" fill="#050404" d="M 334.5,431.5 C 335.29,432.401 336.29,433.068 337.5,433.5C 329.963,452.284 315.963,461.617 295.5,461.5C 275.77,461.078 262.437,451.745 255.5,433.5C 255.842,432.662 256.508,432.328 257.5,432.5C 270.04,425.062 283.04,418.396 296.5,412.5C 309.184,418.842 321.85,425.175 334.5,431.5 Z"/></g>
<g><path style="opacity:1" fill="#d19b9d" d="M 334.5,431.5 C 321.85,425.175 309.184,418.842 296.5,412.5C 283.04,418.396 270.04,425.062 257.5,432.5C 257.414,431.504 257.748,430.671 258.5,430C 270.789,423.022 283.456,416.855 296.5,411.5C 309.776,417.136 322.442,423.803 334.5,431.5 Z"/></g>
<g><path style="opacity:1" fill="#ea989b" d="M 294.5,423.5 C 304.197,427.182 313.531,431.682 322.5,437C 323.451,437.718 323.617,438.551 323,439.5C 309.17,452.91 293.67,455.076 276.5,446C 273.167,444 270.5,441.333 268.5,438C 277.068,432.885 285.734,428.052 294.5,423.5 Z"/></g>
</svg>
