<?xml version="1.0" encoding="UTF-8"?>
<!DOCTYPE svg PUBLIC "-//W3C//DTD SVG 1.1//EN" "http://www.w3.org/Graphics/SVG/1.1/DTD/svg11.dtd">
<svg xmlns="http://www.w3.org/2000/svg" version="1.1" width="600px" height="600px" style="shape-rendering:geometricPrecision; text-rendering:geometricPrecision; image-rendering:optimizeQuality; fill-rule:evenodd; clip-rule:evenodd" xmlns:xlink="http://www.w3.org/1999/xlink">
<g><path style="opacity:0.969" fill="#020201" d="M 89.5,-0.5 C 111.833,-0.5 134.167,-0.5 156.5,-0.5C 189.829,15.9776 217.995,38.9776 241,68.5C 241.804,69.8045 242.971,70.4712 244.5,70.5C 270.982,59.7876 298.316,56.6209 326.5,61C 338.676,63.7108 350.676,66.7108 362.5,70C 385.976,40.0104 414.643,16.5104 448.5,-0.5C 470.833,-0.5 493.167,-0.5 515.5,-0.5C 535.286,10.4503 549.62,26.2836 558.5,47C 557.745,54.9232 553.412,58.7565 545.5,58.5C 545.643,60.2624 545.309,61.9291 544.5,63.5C 554.732,78.8534 562.066,95.52 566.5,113.5C 566.297,120.702 562.63,124.702 555.5,125.5C 553.051,125.02 550.885,124.02 549,122.5C 552.632,138.884 554.798,155.55 555.5,172.5C 555.732,178.008 554.899,183.341 553,188.5C 546.435,196.447 539.768,196.447 533,188.5C 530.09,173.556 527.423,158.556 525,143.5C 523.335,152.872 523.669,162.205 526,171.5C 529.673,188.028 534.506,204.195 540.5,220C 539.995,227.003 536.328,230.836 529.5,231.5C 535.812,258.811 538.646,286.477 538,314.5C 535.489,323.167 529.989,326.001 521.5,323C 519.667,321.833 518.167,320.333 517,318.5C 512.465,298.828 507.798,279.161 503,259.5C 501.923,266.218 500.59,272.885 499,279.5C 496.659,282.671 494.159,285.671 491.5,288.5C 493.297,301.17 495.13,313.836 497,326.5C 502.119,343.974 506.452,361.641 510,379.5C 511.312,391.964 511.812,404.131 511.5,416C 511.483,440.24 505.316,462.74 493,483.5C 490.564,487.45 487.064,489.45 482.5,489.5C 483.31,495.208 481.81,500.208 478,504.5C 462.782,522.061 444.949,536.228 424.5,547C 420.513,548.341 416.513,548.841 412.5,548.5C 410.358,552.475 407.358,555.642 403.5,558C 377.258,569.787 351.258,582.121 325.5,595C 323.253,596.277 321.253,597.777 319.5,599.5C 308.833,599.5 298.167,599.5 287.5,599.5C 279.724,594.774 271.724,590.274 263.5,586C 243.833,577 224.167,568 204.5,559C 199.618,555.786 195.785,551.619 193,546.5C 189.304,548.96 185.471,549.127 181.5,547C 159.317,535.485 140.817,519.652 126,499.5C 124.69,495.93 123.857,492.263 123.5,488.5C 119.975,488.654 117.141,487.321 115,484.5C 99.5381,458.547 92.7048,430.381 94.5,400C 95.7911,376.544 100.291,353.711 108,331.5C 110.698,317.416 112.865,303.249 114.5,289C 111.657,285.811 109.157,282.311 107,278.5C 105.793,272.799 104.46,267.132 103,261.5C 98.0292,280.021 93.6958,298.688 90,317.5C 83.9852,325.517 77.3186,326.184 70,319.5C 68.0785,314.877 67.2452,310.044 67.5,305C 68.409,280.228 71.409,255.728 76.5,231.5C 69.6718,230.836 66.0051,227.003 65.5,220C 74.0602,198.926 79.7269,177.093 82.5,154.5C 81.9181,150.845 81.4181,147.178 81,143.5C 78.4211,157.799 76.0878,172.133 74,186.5C 67.6796,196.074 60.6796,196.74 53,188.5C 51.1175,183.509 50.2842,178.342 50.5,173C 51.4859,155.944 53.6526,139.11 57,122.5C 47.3275,127.25 41.1608,124.25 38.5,113.5C 43.0608,95.2144 50.7275,78.3811 61.5,63C 60.7069,61.9148 60.0402,60.7481 59.5,59.5C 49.2165,56.9339 45.7165,50.6006 49,40.5C 58.6906,22.9766 72.1906,9.30994 89.5,-0.5 Z"/></g>
<g><path style="opacity:1" fill="#362e2b" d="M 498.5,395.5 C 497.513,390.704 496.013,386.037 494,381.5C 483.746,363.327 473.746,344.993 464,326.5C 458.696,314.942 459.363,303.942 466,293.5C 467.183,286.19 465.183,279.857 460,274.5C 446.376,260.768 430.209,251.268 411.5,246C 401.995,245.25 392.661,246.25 383.5,249C 373.413,251.529 363.413,254.363 353.5,257.5C 352.287,257.747 351.62,258.414 351.5,259.5C 343.378,243.926 335.211,228.259 327,212.5C 325.259,207.946 323.926,203.279 323,198.5C 322.667,174.167 322.333,149.833 322,125.5C 321.782,111.315 320.115,97.3149 317,83.5C 310.93,70.8872 301.763,68.0539 289.5,75C 287.273,77.5641 285.439,80.3974 284,83.5C 282.662,90.8427 281.329,98.176 280,105.5C 278.056,137.134 277.056,168.8 277,200.5C 275.667,204.5 274.333,208.5 273,212.5C 265.154,227.527 257.321,242.527 249.5,257.5C 231.493,250.499 212.826,246.665 193.5,246C 177.268,250.28 162.935,257.947 150.5,269C 145.896,273.603 142.062,278.77 139,284.5C 138.333,287.5 138.333,290.5 139,293.5C 140.667,296.167 142.333,298.833 144,301.5C 145.204,310.107 144.204,318.441 141,326.5C 131.269,344.962 121.269,363.295 111,381.5C 109.667,384.833 108.333,388.167 107,391.5C 106.235,393.066 106.402,394.399 107.5,395.5C 107.217,396.289 106.717,396.956 106,397.5C 105.413,390.465 105.746,383.465 107,376.5C 111.399,358.471 115.899,340.471 120.5,322.5C 122.526,306.15 124.693,289.817 127,273.5C 128.298,264.532 127.298,255.865 124,247.5C 123.363,245.697 122.197,244.364 120.5,243.5C 119.833,254.5 119.167,265.5 118.5,276.5C 117.914,276.291 117.414,275.957 117,275.5C 113.626,259.349 111.626,243.015 111,226.5C 110.121,223.654 108.454,222.987 106,224.5C 100.497,235.002 96.1639,246.002 93,257.5C 88.1844,273.911 84.5177,290.578 82,307.5C 81.7674,309.78 80.934,311.78 79.5,313.5C 77.469,272.156 84.6357,232.49 101,194.5C 101.667,190.833 101.667,187.167 101,183.5C 100,182.167 99,182.167 98,183.5C 92.939,194.622 87.6056,205.622 82,216.5C 80.5527,218.403 78.886,220.07 77,221.5C 79.0228,212.42 81.6895,203.42 85,194.5C 87.5905,184.213 89.9239,173.879 92,163.5C 92.6667,157.167 92.6667,150.833 92,144.5C 89.677,134.229 87.677,123.895 86,113.5C 83.3341,109.478 81.0008,109.811 79,114.5C 71.332,135.507 66.6653,157.174 65,179.5C 64.6667,180.5 64.3333,181.5 64,182.5C 63.3333,183.833 62.6667,183.833 62,182.5C 60.3481,148.703 67.0147,116.703 82,86.5C 82.6667,82.5 82.6667,78.5 82,74.5C 80,71.8333 78,71.8333 76,74.5C 67.081,85.994 59.4144,98.3273 53,111.5C 52,112.5 51,113.5 50,114.5C 51.5091,104.309 54.8424,94.6425 60,85.5C 67.8362,72.4909 76.1695,59.8242 85,47.5C 85.1667,46.8333 85.3333,46.1667 85.5,45.5C 85.2668,44.0683 84.6001,43.5683 83.5,44C 79.0427,48.4461 74.7093,52.9461 70.5,57.5C 70.1667,57.1667 69.8333,56.8333 69.5,56.5C 76.2302,43.1029 84.8969,31.1029 95.5,20.5C 95.1667,20.1667 94.8333,19.8333 94.5,19.5C 91.3015,21.8635 87.9681,24.0302 84.5,26C 76.3159,33.6851 67.9825,41.1851 59.5,48.5C 58.3691,46.9255 58.2025,45.2588 59,43.5C 72.2678,21.4533 91.4345,7.61997 116.5,2C 128.632,1.75981 140.299,4.09314 151.5,9C 185.512,25.3366 213.845,48.6699 236.5,79C 238.209,80.5446 240.209,81.3779 242.5,81.5C 253.272,77.6327 264.272,74.4661 275.5,72C 304.017,67.1213 331.683,70.1213 358.5,81C 360.833,81.6667 363.167,81.6667 365.5,81C 375.111,70.719 384.777,60.3857 394.5,50C 411.562,33.9426 430.562,20.6093 451.5,10C 478.162,-2.60074 502.829,0.399258 525.5,19C 533.121,25.6141 539.621,33.1141 545,41.5C 546.411,43.6504 547.245,45.9837 547.5,48.5C 546.448,48.6495 545.448,48.4828 544.5,48C 534.215,37.3749 523.048,27.8749 511,19.5C 510.833,20 510.667,20.5 510.5,21C 513.905,26.4115 518.072,31.2449 523,35.5C 527.976,41.8163 532.143,48.6496 535.5,56C 535.15,57.2575 534.483,57.5908 533.5,57C 529.701,52.1994 525.534,47.6994 521,43.5C 520.416,46.2567 520.75,48.9234 522,51.5C 537.744,69.4741 549.244,89.9741 556.5,113C 556.026,114.608 555.359,114.774 554.5,113.5C 547.608,98.7918 538.941,85.2918 528.5,73C 527.216,72.3162 526.049,72.4829 525,73.5C 523.543,77.7411 523.209,82.0745 524,86.5C 539.853,117.093 546.186,149.427 543,183.5C 541.956,182.377 541.29,181.044 541,179.5C 539.69,156.318 534.69,133.984 526,112.5C 523.478,109.674 521.478,110.007 520,113.5C 515.649,129.913 513.649,146.579 514,163.5C 517.438,182.646 522.604,201.313 529.5,219.5C 529.333,220.167 529.167,220.833 529,221.5C 527.114,220.07 525.447,218.403 524,216.5C 518.453,206.074 513.453,195.408 509,184.5C 507.488,182.043 506.154,182.043 505,184.5C 504.333,187.833 504.333,191.167 505,194.5C 521.896,232.457 529.23,272.124 527,313.5C 525.473,311.779 524.473,309.779 524,307.5C 520.184,279.057 512.518,251.724 501,225.5C 497.868,222.544 495.868,223.21 495,227.5C 494.654,243.723 492.654,259.723 489,275.5C 488.586,275.957 488.086,276.291 487.5,276.5C 486.833,265.5 486.167,254.5 485.5,243.5C 479.266,251.777 477.099,261.11 479,271.5C 481.415,289.152 483.748,306.818 486,324.5C 490.491,341.462 494.824,358.462 499,375.5C 500.424,382.491 500.59,389.491 499.5,396.5C 498.893,396.376 498.56,396.043 498.5,395.5 Z"/></g>
<g><path style="opacity:1" fill="#f8f0e7" d="M 348.5,281.5 C 348.808,285.36 349.475,289.026 350.5,292.5C 350.5,294.833 350.5,297.167 350.5,299.5C 349.85,303.455 348.517,307.288 346.5,311C 348.441,312.903 350.774,313.736 353.5,313.5C 359.09,314.646 364.756,315.979 370.5,317.5C 376.643,320.737 382.976,323.737 389.5,326.5C 393.323,329.916 397.657,332.582 402.5,334.5C 406.148,337.66 410.148,340.327 414.5,342.5C 417.601,345.933 421.268,348.6 425.5,350.5C 429.587,354.922 434.254,358.589 439.5,361.5C 440.585,363.587 442.251,364.92 444.5,365.5C 445.585,367.587 447.251,368.92 449.5,369.5C 450.585,371.587 452.251,372.92 454.5,373.5C 455.911,375.914 457.911,377.581 460.5,378.5C 461.911,380.914 463.911,382.581 466.5,383.5C 467.911,385.914 469.911,387.581 472.5,388.5C 473.911,390.914 475.911,392.581 478.5,393.5C 479.585,395.587 481.251,396.92 483.5,397.5C 484.585,399.587 486.251,400.92 488.5,401.5C 491.589,405.712 495.589,407.712 500.5,407.5C 502.541,432.668 497.041,456.001 484,477.5C 482.333,480.167 480.667,480.167 479,477.5C 477.088,473.34 474.921,469.34 472.5,465.5C 472.163,474.805 471.996,484.138 472,493.5C 457.695,511.971 440.195,526.637 419.5,537.5C 417.575,537.41 416.408,536.41 416,534.5C 415.232,529.154 414.399,523.821 413.5,518.5C 413.167,518.667 412.833,518.833 412.5,519C 409.985,524.541 408.152,530.375 407,536.5C 405.371,540.931 402.871,544.764 399.5,548C 373.076,560.378 346.742,573.045 320.5,586C 314.733,589.632 308.9,593.132 303,596.5C 294.932,591.547 286.765,586.714 278.5,582C 255.136,570.984 231.803,559.984 208.5,549C 204.509,546.011 201.676,542.178 200,537.5C 198.219,531.305 196.386,525.139 194.5,519C 194.167,518.833 193.833,518.667 193.5,518.5C 192.422,523.455 191.589,528.455 191,533.5C 190.519,535.478 189.353,536.811 187.5,537.5C 166.22,527.39 148.72,512.724 135,493.5C 134.855,483.796 134.689,474.13 134.5,464.5C 131.597,468.63 128.93,472.963 126.5,477.5C 125.349,478.731 124.183,478.731 123,477.5C 109.545,456.392 104.045,433.392 106.5,408.5C 108.541,407.764 110.541,406.931 112.5,406C 126.665,394.666 140.665,383.166 154.5,371.5C 156.5,370.167 158.167,368.5 159.5,366.5C 170.815,358.191 182.148,349.858 193.5,341.5C 195.909,340.299 197.909,338.633 199.5,336.5C 210.777,329.753 222.444,323.586 234.5,318C 241.127,315.845 247.793,314.012 254.5,312.5C 251.117,307.013 249.783,301.013 250.5,294.5C 250.274,288.348 251.107,282.348 253,276.5C 262.157,256.03 272.157,236.03 283,216.5C 284.741,211.946 286.074,207.279 287,202.5C 287.224,168.452 288.557,134.452 291,100.5C 291.17,93.3081 293.67,87.1414 298.5,82C 301.917,81.1244 304.417,82.291 306,85.5C 308.222,90.9417 309.556,96.6083 310,102.5C 312.009,136.132 313.009,169.798 313,203.5C 315.103,211.04 317.77,218.373 321,225.5C 332.042,243.25 341.208,261.917 348.5,281.5 Z"/></g>
<g><path style="opacity:1" fill="#b47e25" d="M 253.5,166.5 C 260.816,165.486 265.483,168.486 267.5,175.5C 267.06,178.214 265.726,180.38 263.5,182C 258.525,183.226 254.025,182.393 250,179.5C 247.348,174.039 248.514,169.706 253.5,166.5 Z"/></g>
<g><path style="opacity:1" fill="#b57e25" d="M 344.5,166.5 C 353.259,165.261 357.426,168.928 357,177.5C 352.126,182.858 346.46,183.858 340,180.5C 337.214,174.414 338.714,169.747 344.5,166.5 Z"/></g>
<g><path style="opacity:1" fill="#b17c25" d="M 230.5,181.5 C 252.489,180.323 262.989,190.656 262,212.5C 254.875,230.425 242.375,235.925 224.5,229C 211.492,219.813 208.325,207.98 215,193.5C 219.184,188.14 224.351,184.14 230.5,181.5 Z"/></g>
<g><path style="opacity:1" fill="#b27c25" d="M 361.5,181.5 C 383.539,180.374 394.039,190.707 393,212.5C 388.425,226.875 378.592,233.375 363.5,232C 348.567,227.307 341.734,217.14 343,201.5C 346.291,192.047 352.458,185.38 361.5,181.5 Z"/></g>
<g><path style="opacity:1" fill="#38302c" d="M 232.5,187.5 C 253.198,189.016 259.698,199.349 252,218.5C 244.083,226.306 235.25,227.473 225.5,222C 218.06,214.62 216.56,206.12 221,196.5C 224.134,192.524 227.967,189.524 232.5,187.5 Z"/></g>
<g><path style="opacity:1" fill="#39302c" d="M 367.5,187.5 C 383.601,189.703 389.768,198.703 386,214.5C 380.144,224.565 371.644,227.732 360.5,224C 349.421,216.762 346.921,207.262 353,195.5C 356.864,190.823 361.698,188.156 367.5,187.5 Z"/></g>
<g><path style="opacity:1" fill="#eaeaea" d="M 237.5,195.5 C 247.216,195.946 248.882,199.779 242.5,207C 236.219,207.635 233.719,204.801 235,198.5C 235.698,197.309 236.531,196.309 237.5,195.5 Z"/></g>
<g><path style="opacity:1" fill="#eeeeee" d="M 368.5,195.5 C 376.841,194.873 379.175,198.207 375.5,205.5C 368.708,207.862 365.541,205.528 366,198.5C 367.045,197.627 367.878,196.627 368.5,195.5 Z"/></g>
<g><path style="opacity:1" fill="#b77f24" d="M 249.5,257.5 C 242.275,272.53 238.942,288.53 239.5,305.5C 221.637,311.599 204.97,320.099 189.5,331C 161.955,352.267 134.621,373.767 107.5,395.5C 106.402,394.399 106.235,393.066 107,391.5C 108.333,388.167 109.667,384.833 111,381.5C 121.269,363.295 131.269,344.962 141,326.5C 144.204,318.441 145.204,310.107 144,301.5C 142.333,298.833 140.667,296.167 139,293.5C 138.333,290.5 138.333,287.5 139,284.5C 142.062,278.77 145.896,273.603 150.5,269C 162.935,257.947 177.268,250.28 193.5,246C 212.826,246.665 231.493,250.499 249.5,257.5 Z"/></g>
<g><path style="opacity:1" fill="#b77f24" d="M 498.5,395.5 C 493.398,392.245 488.398,388.745 483.5,385C 460.363,364.858 436.363,345.858 411.5,328C 401.825,321.827 391.825,316.16 381.5,311C 374.426,307.92 367.093,305.753 359.5,304.5C 361.596,288.614 358.93,273.614 351.5,259.5C 351.62,258.414 352.287,257.747 353.5,257.5C 363.413,254.363 373.413,251.529 383.5,249C 392.661,246.25 401.995,245.25 411.5,246C 430.209,251.268 446.376,260.768 460,274.5C 465.183,279.857 467.183,286.19 466,293.5C 459.363,303.942 458.696,314.942 464,326.5C 473.746,344.993 483.746,363.327 494,381.5C 496.013,386.037 497.513,390.704 498.5,395.5 Z"/></g>
<g><path style="opacity:1" fill="#060505" d="M 291.5,261.5 C 299.983,260.989 308.316,261.822 316.5,264C 328.734,269.705 331.568,278.538 325,290.5C 308.273,307.739 291.606,307.739 275,290.5C 269.623,281.897 270.456,274.064 277.5,267C 282.017,264.445 286.684,262.612 291.5,261.5 Z"/></g>
<g><path style="opacity:1" fill="#362e2b" d="M 289.5,272.5 C 296.508,272.334 303.508,272.5 310.5,273C 319.361,276.963 319.694,281.963 311.5,288C 299.707,294.962 289.874,292.795 282,281.5C 281.333,280.167 281.333,278.833 282,277.5C 284.426,275.548 286.926,273.881 289.5,272.5 Z"/></g>
<g><path style="opacity:1" fill="#483311" d="M 348.5,281.5 C 350.217,284.845 350.884,288.511 350.5,292.5C 349.475,289.026 348.808,285.36 348.5,281.5 Z"/></g>
<g><path style="opacity:1" fill="#46310f" d="M 350.5,299.5 C 350.761,303.342 350.094,307.009 348.5,310.5C 350.145,311.696 351.811,312.696 353.5,313.5C 350.774,313.736 348.441,312.903 346.5,311C 348.517,307.288 349.85,303.455 350.5,299.5 Z"/></g>
<g><path style="opacity:1" fill="#483311" d="M 370.5,317.5 C 377.529,319.182 383.862,322.182 389.5,326.5C 382.976,323.737 376.643,320.737 370.5,317.5 Z"/></g>
<g><path style="opacity:1" fill="#4b3614" d="M 402.5,334.5 C 407.197,336.178 411.197,338.844 414.5,342.5C 410.148,340.327 406.148,337.66 402.5,334.5 Z"/></g>
<g><path style="opacity:1" fill="#604829" d="M 199.5,336.5 C 197.909,338.633 195.909,340.299 193.5,341.5C 194.638,338.914 196.638,337.247 199.5,336.5 Z"/></g>
<g><path style="opacity:1" fill="#4d3716" d="M 414.5,342.5 C 418.732,344.4 422.399,347.067 425.5,350.5C 421.268,348.6 417.601,345.933 414.5,342.5 Z"/></g>
<g><path style="opacity:1" fill="#4d3817" d="M 425.5,350.5 C 430.746,353.411 435.413,357.078 439.5,361.5C 434.254,358.589 429.587,354.922 425.5,350.5 Z"/></g>
<g><path style="opacity:1" fill="#4d3716" d="M 439.5,361.5 C 441.749,362.08 443.415,363.413 444.5,365.5C 442.251,364.92 440.585,363.587 439.5,361.5 Z"/></g>
<g><path style="opacity:1" fill="#4d3716" d="M 444.5,365.5 C 446.749,366.08 448.415,367.413 449.5,369.5C 447.251,368.92 445.585,367.587 444.5,365.5 Z"/></g>
<g><path style="opacity:1" fill="#614a2a" d="M 159.5,366.5 C 158.167,368.5 156.5,370.167 154.5,371.5C 155.167,368.833 156.833,367.167 159.5,366.5 Z"/></g>
<g><path style="opacity:1" fill="#4a3513" d="M 449.5,369.5 C 451.749,370.08 453.415,371.413 454.5,373.5C 452.251,372.92 450.585,371.587 449.5,369.5 Z"/></g>
<g><path style="opacity:1" fill="#503a19" d="M 454.5,373.5 C 457.089,374.419 459.089,376.086 460.5,378.5C 457.911,377.581 455.911,375.914 454.5,373.5 Z"/></g>
<g><path style="opacity:1" fill="#503a19" d="M 460.5,378.5 C 463.089,379.419 465.089,381.086 466.5,383.5C 463.911,382.581 461.911,380.914 460.5,378.5 Z"/></g>
<g><path style="opacity:1" fill="#503a19" d="M 466.5,383.5 C 469.089,384.419 471.089,386.086 472.5,388.5C 469.911,387.581 467.911,385.914 466.5,383.5 Z"/></g>
<g><path style="opacity:1" fill="#503a19" d="M 472.5,388.5 C 475.089,389.419 477.089,391.086 478.5,393.5C 475.911,392.581 473.911,390.914 472.5,388.5 Z"/></g>
<g><path style="opacity:1" fill="#4d3716" d="M 478.5,393.5 C 480.749,394.08 482.415,395.413 483.5,397.5C 481.251,396.92 479.585,395.587 478.5,393.5 Z"/></g>
<g><path style="opacity:1" fill="#4d3716" d="M 483.5,397.5 C 485.749,398.08 487.415,399.413 488.5,401.5C 486.251,400.92 484.585,399.587 483.5,397.5 Z"/></g>
<g><path style="opacity:1" fill="#4b3615" d="M 488.5,401.5 C 492.306,403.993 496.306,405.993 500.5,407.5C 495.589,407.712 491.589,405.712 488.5,401.5 Z"/></g>
</svg>
