<?xml version="1.0" encoding="UTF-8"?>
<!DOCTYPE svg PUBLIC "-//W3C//DTD SVG 1.1//EN" "http://www.w3.org/Graphics/SVG/1.1/DTD/svg11.dtd">
<svg xmlns="http://www.w3.org/2000/svg" version="1.1" width="600px" height="600px" style="shape-rendering:geometricPrecision; text-rendering:geometricPrecision; image-rendering:optimizeQuality; fill-rule:evenodd; clip-rule:evenodd" xmlns:xlink="http://www.w3.org/1999/xlink">
<g><path style="opacity:0.953" fill="#020100" d="M 599.5,275.5 C 599.5,292.833 599.5,310.167 599.5,327.5C 598.284,338.062 592.617,345.229 582.5,349C 576.143,356.356 569.476,363.356 562.5,370C 559.382,371.893 556.049,373.226 552.5,374C 537.399,376.387 522.399,379.22 507.5,382.5C 501.519,405.457 492.019,426.79 479,446.5C 478.599,464.843 474.266,482.177 466,498.5C 461.158,506.832 453.991,511.499 444.5,512.5C 443.028,515.805 440.695,518.305 437.5,520C 431.398,522.367 425.231,524.534 419,526.5C 414.652,526.145 411.319,524.145 409,520.5C 408.284,517.28 407.117,514.28 405.5,511.5C 402.667,515.833 399.833,520.167 397,524.5C 388.99,531.432 381.657,530.766 375,522.5C 361.369,525.818 348.202,530.318 335.5,536C 323.837,539.083 312.004,541.249 300,542.5C 277.495,540.376 256.161,534.376 236,524.5C 231.927,525.624 227.927,525.291 224,523.5C 216.276,531.386 208.609,531.386 201,523.5C 199.03,520.032 196.864,516.699 194.5,513.5C 193.424,517.167 191.757,520.5 189.5,523.5C 186.547,525.873 183.214,526.707 179.5,526C 170.806,524.404 163.306,520.57 157,514.5C 156.517,513.552 156.351,512.552 156.5,511.5C 155.07,511.421 153.736,511.754 152.5,512.5C 148.512,511.354 144.845,509.521 141.5,507C 134.41,499.093 129.576,489.926 127,479.5C 124.75,471.247 122.917,462.913 121.5,454.5C 106.335,433.166 95.1679,409.833 88,384.5C 73.6062,379.528 58.7729,376.028 43.5,374C 37.4471,372.226 32.2804,369.059 28,364.5C 24.2127,359.044 20.046,353.877 15.5,349C 6.14812,345.165 0.814782,338.331 -0.5,328.5C -0.5,310.833 -0.5,293.167 -0.5,275.5C 3.47374,269.745 4.14041,263.579 1.5,257C 2.4363,253.086 3.60297,249.253 5,245.5C 9.7546,238.324 14.7546,231.324 20,224.5C 21.3836,218.301 23.3836,212.301 26,206.5C 33.295,197.536 40.9617,188.87 49,180.5C 50.6795,172.153 54.8461,165.32 61.5,160C 70.7778,154.11 79.6112,147.61 88,140.5C 89.5809,134.914 92.7475,130.414 97.5,127C 107.516,120.991 117.849,115.491 128.5,110.5C 128.443,102.985 131.776,97.1514 138.5,93C 154.046,85.9234 170.379,82.09 187.5,81.5C 185.106,72.8302 188.106,66.9969 196.5,64C 200.5,63.3333 204.5,63.3333 208.5,64C 218.501,65.9005 228.501,67.7338 238.5,69.5C 239.165,61.3364 243.665,57.0031 252,56.5C 267.703,58.5889 282.37,63.5889 296,71.5C 309.471,63.6204 323.971,58.6204 339.5,56.5C 348.088,56.7581 352.755,61.0914 353.5,69.5C 363.499,67.7338 373.499,65.9005 383.5,64C 398.004,60.6982 405.338,66.1982 405.5,80.5C 420.907,82.2684 435.907,85.7684 450.5,91C 459.054,94.9997 463.387,101.5 463.5,110.5C 475.272,115.552 486.605,121.386 497.5,128C 502.189,133.422 506.522,139.089 510.5,145C 521.456,151.06 531.622,158.227 541,166.5C 543.599,170.878 545.599,175.545 547,180.5C 557.492,189.65 566.492,199.984 574,211.5C 574.874,215.535 575.874,219.535 577,223.5C 583.399,230.632 589.065,238.299 594,246.5C 596.592,253.669 597.259,261.002 596,268.5C 596.67,271.174 597.837,273.507 599.5,275.5 Z"/></g>
<g><path style="opacity:1" fill="#8b6338" d="M 447.5,113.5 C 443.864,116.524 443.531,120.024 446.5,124C 462.162,132.496 477.496,141.496 492.5,151C 496.036,154.201 499.203,157.701 502,161.5C 502.494,163.134 502.66,164.801 502.5,166.5C 497.851,165.705 493.184,165.539 488.5,166C 487.422,166.674 486.755,167.674 486.5,169C 493.405,183.31 499.905,197.81 506,212.5C 509.857,220.783 511.523,229.449 511,238.5C 510.167,239.333 509.333,240.167 508.5,241C 510.566,252.858 511.566,264.858 511.5,277C 511.273,306.546 507.939,335.713 501.5,364.5C 497.883,365.714 494.549,365.048 491.5,362.5C 491.167,362.833 490.833,363.167 490.5,363.5C 493.57,366.564 496.237,369.897 498.5,373.5C 493.245,398.765 483.412,422.098 469,443.5C 468.819,446.695 468.319,449.695 467.5,452.5C 466.045,405.926 450.045,365.26 419.5,330.5C 386.334,298.988 346.668,283.322 300.5,283.5C 211.029,286.805 156.529,332.138 137,419.5C 134.852,428.72 133.685,438.053 133.5,447.5C 132.167,447.5 130.833,447.5 129.5,447.5C 113.7,425.475 102.7,401.141 96.5,374.5C 97.8962,370.94 99.8962,367.774 102.5,365C 102.167,364.5 101.833,364 101.5,363.5C 98.4961,365.713 95.6628,365.713 93,363.5C 83.6308,323.549 81.4642,283.216 86.5,242.5C 86.1667,241.5 85.8333,240.5 85.5,239.5C 83.9579,240.747 82.4579,240.747 81,239.5C 80.1652,233.017 80.8319,226.684 83,220.5C 84.8637,215.909 86.5304,211.243 88,206.5C 93.853,193.464 99.6864,180.464 105.5,167.5C 104.652,165.239 102.985,164.239 100.5,164.5C 96.604,165.799 92.604,166.466 88.5,166.5C 90.3272,160.15 93.9938,154.984 99.5,151C 104.328,147.419 109.328,144.085 114.5,141C 124.661,135.754 134.661,130.254 144.5,124.5C 148.658,119.79 148.324,115.456 143.5,111.5C 138.21,108.476 138.21,105.309 143.5,102C 151.28,97.6376 159.613,94.971 168.5,94C 182.854,92.256 197.187,90.4227 211.5,88.5C 211.703,86.6096 211.037,85.1096 209.5,84C 205.411,81.8733 201.577,79.3733 198,76.5C 197.517,75.552 197.351,74.552 197.5,73.5C 214.258,75.5218 230.925,78.1884 247.5,81.5C 248.833,81.3333 250.167,81.1667 251.5,81C 252.059,80.2753 252.392,79.4419 252.5,78.5C 250.871,74.9149 249.538,71.2482 248.5,67.5C 263.933,68.4426 278.266,72.9426 291.5,81C 294.5,81.6667 297.5,81.6667 300.5,81C 313.542,72.3748 327.876,67.8748 343.5,67.5C 342.462,71.2482 341.129,74.9149 339.5,78.5C 339.608,79.4419 339.941,80.2753 340.5,81C 353.617,80.0304 366.617,78.0304 379.5,75C 384.143,74.0017 388.81,73.6683 393.5,74C 394.833,75 394.833,76 393.5,77C 389.247,79.7097 385.08,82.543 381,85.5C 380.251,86.635 380.417,87.635 381.5,88.5C 393.454,90.1959 405.454,91.6959 417.5,93C 426.023,94.2531 434.356,96.2531 442.5,99C 446.274,100.302 449.441,102.469 452,105.5C 452.667,106.5 452.667,107.5 452,108.5C 450.242,110.083 448.742,111.75 447.5,113.5 Z"/></g>
<g><path style="opacity:1" fill="#80511b" d="M 143.5,111.5 C 148.324,115.456 148.658,119.79 144.5,124.5C 134.661,130.254 124.661,135.754 114.5,141C 109.328,144.085 104.328,147.419 99.5,151C 93.9938,154.984 90.3272,160.15 88.5,166.5C 92.604,166.466 96.604,165.799 100.5,164.5C 102.985,164.239 104.652,165.239 105.5,167.5C 99.6864,180.464 93.853,193.464 88,206.5C 86.5304,211.243 84.8637,215.909 83,220.5C 80.8319,226.684 80.1652,233.017 81,239.5C 82.4579,240.747 83.9579,240.747 85.5,239.5C 85.8333,240.5 86.1667,241.5 86.5,242.5C 81.4642,283.216 83.6308,323.549 93,363.5C 95.6628,365.713 98.4961,365.713 101.5,363.5C 101.833,364 102.167,364.5 102.5,365C 99.8962,367.774 97.8962,370.94 96.5,374.5C 79.6064,370.527 62.6064,367.027 45.5,364C 37.6667,360.167 31.8333,354.333 28,346.5C 22.9566,341.788 17.6233,337.455 12,333.5C 11.0266,331.608 10.3599,329.608 10,327.5C 9.66667,321.5 9.33333,315.5 9,309.5C 7.04516,305.085 5.21182,300.585 3.5,296C 6.66252,287.18 9.82919,278.347 13,269.5C 13.2632,264.149 13.2632,258.816 13,253.5C 17.011,245.473 22.011,238.14 28,231.5C 31.4388,225.957 33.4388,219.957 34,213.5C 40.9612,204.87 48.2945,196.537 56,188.5C 59.0984,184.303 61.0984,179.637 62,174.5C 71.2039,166.151 81.0372,158.651 91.5,152C 93,150.5 94.5,149 96,147.5C 97.9219,140.472 102.089,135.306 108.5,132C 118.5,127 128.5,122 138.5,117C 141.079,115.924 142.746,114.091 143.5,111.5 Z"/></g>
<g><path style="opacity:1" fill="#80511b" d="M 447.5,113.5 C 461.317,120.909 475.317,128.076 489.5,135C 493.928,138.092 496.761,142.259 498,147.5C 507.223,155.196 517.056,162.029 527.5,168C 529.333,169.833 531.167,171.667 533,173.5C 534.602,178.795 536.936,183.795 540,188.5C 548.736,196.566 556.736,205.233 564,214.5C 564.822,220.103 566.489,225.436 569,230.5C 574.717,237.216 580.05,244.216 585,251.5C 585.704,253.278 586.204,255.112 586.5,257C 584.785,260.675 584.285,264.508 585,268.5C 588.646,277.624 592.146,286.79 595.5,296C 594.069,300.361 592.235,304.528 590,308.5C 589.667,314.5 589.333,320.5 589,326.5C 587.642,334.193 583.142,339.027 575.5,341C 569.5,347.667 563.5,354.333 557.5,361C 555.283,362.275 552.949,363.275 550.5,364C 533.129,367.062 515.795,370.228 498.5,373.5C 496.237,369.897 493.57,366.564 490.5,363.5C 490.833,363.167 491.167,362.833 491.5,362.5C 494.549,365.048 497.883,365.714 501.5,364.5C 507.939,335.713 511.273,306.546 511.5,277C 511.566,264.858 510.566,252.858 508.5,241C 509.333,240.167 510.167,239.333 511,238.5C 511.523,229.449 509.857,220.783 506,212.5C 499.905,197.81 493.405,183.31 486.5,169C 486.755,167.674 487.422,166.674 488.5,166C 493.184,165.539 497.851,165.705 502.5,166.5C 502.66,164.801 502.494,163.134 502,161.5C 499.203,157.701 496.036,154.201 492.5,151C 477.496,141.496 462.162,132.496 446.5,124C 443.531,120.024 443.864,116.524 447.5,113.5 Z"/></g>
<g><path style="opacity:1" fill="#80511c" d="M 403.5,218.5 C 393.321,215.731 382.987,213.731 372.5,212.5C 363.009,211.67 353.342,211.17 343.5,211C 335.061,203.027 334.394,194.361 341.5,185C 352.395,178.528 364.062,176.861 376.5,180C 405.248,185.953 429.414,199.787 449,221.5C 451.805,225.091 452.805,229.091 452,233.5C 450.667,235.833 448.667,236.833 446,236.5C 432.015,230.091 417.848,224.091 403.5,218.5 Z"/></g>
<g><path style="opacity:1" fill="#80521c" d="M 224.5,214.5 C 209.503,215.164 195.17,218.497 181.5,224.5C 169.959,228.935 158.626,233.935 147.5,239.5C 143.408,238.991 141.408,236.658 141.5,232.5C 142.099,229.298 143.266,226.298 145,223.5C 170.659,194.503 202.826,180.67 241.5,182C 257.675,187.53 261.341,197.53 252.5,212C 250.285,213.044 247.952,213.71 245.5,214C 238.508,214.5 231.508,214.666 224.5,214.5 Z"/></g>
<g><path style="opacity:1" fill="#241916" d="M 372.5,212.5 C 382.987,213.731 393.321,215.731 403.5,218.5C 416.828,230.137 420.661,244.47 415,261.5C 407.007,277.917 393.841,285.084 375.5,283C 357.052,278.116 347.385,266.116 346.5,247C 347.812,229.867 356.478,218.367 372.5,212.5 Z"/></g>
<g><path style="opacity:1" fill="#241916" d="M 224.5,214.5 C 245.802,227.908 250.635,245.908 239,268.5C 224.39,284.756 207.557,287.589 188.5,277C 171.687,261.433 169.353,243.933 181.5,224.5C 195.17,218.497 209.503,215.164 224.5,214.5 Z"/></g>
<g><path style="opacity:1" fill="#f6f6f6" d="M 219.5,225.5 C 229.317,225.149 233.817,229.815 233,239.5C 230.24,245.297 225.74,247.463 219.5,246C 210.214,239.169 210.214,232.336 219.5,225.5 Z"/></g>
<g><path style="opacity:1" fill="#f6f6f6" d="M 391.5,225.5 C 401.317,225.149 405.817,229.815 405,239.5C 402.24,245.297 397.74,247.463 391.5,246C 382.214,239.169 382.214,232.336 391.5,225.5 Z"/></g>
<g><path style="opacity:1" fill="#80511c" d="M 467.5,452.5 C 467.626,467.618 463.792,481.618 456,494.5C 453.833,496.667 451.667,498.833 449.5,501C 448.517,501.591 447.85,501.257 447.5,500C 446.232,490.85 445.065,481.683 444,472.5C 442.333,474.167 440.667,475.833 439,477.5C 438.161,487.916 436.827,498.249 435,508.5C 429.848,512.496 424.015,514.829 417.5,515.5C 416.767,508.507 416.101,501.507 415.5,494.5C 415.09,488.062 414.09,481.728 412.5,475.5C 406.473,484.216 401.473,493.55 397.5,503.5C 395.012,507.806 392.512,512.139 390,516.5C 388.981,517.687 387.814,518.687 386.5,519.5C 384.554,516.312 383.221,512.979 382.5,509.5C 382.915,505.625 382.415,501.958 381,498.5C 375.257,504.928 368.757,510.262 361.5,514.5C 358.948,515.693 356.448,517.027 354,518.5C 353.747,515.8 353.747,513.133 354,510.5C 353.117,513.102 351.617,515.269 349.5,517C 341.232,523.317 331.899,527.317 321.5,529C 304.349,532.546 287.349,531.879 270.5,527C 265.275,525.721 260.609,523.388 256.5,520C 249.068,519.447 242.402,516.947 236.5,512.5C 229.96,508.306 223.96,503.306 218.5,497.5C 216.362,501.513 215.362,505.847 215.5,510.5C 215.216,513.852 214.05,516.852 212,519.5C 208.081,515.324 204.914,510.657 202.5,505.5C 198.125,495.083 192.958,485.083 187,475.5C 185.704,482.743 184.871,490.076 184.5,497.5C 184.565,503.98 183.732,510.313 182,516.5C 177.074,514.8 172.24,512.8 167.5,510.5C 166.416,509.335 165.583,508.002 165,506.5C 163.704,498.544 162.871,490.544 162.5,482.5C 162.544,473.447 161.877,464.447 160.5,455.5C 158.17,457.575 157.003,460.242 157,463.5C 156.501,468.155 156.334,472.821 156.5,477.5C 155.831,484.903 154.831,492.403 153.5,500C 153.167,500.5 152.833,501 152.5,501.5C 149.906,500.408 147.739,498.741 146,496.5C 136.94,481.847 132.44,465.847 132.5,448.5C 131.209,448.737 130.209,448.404 129.5,447.5C 130.833,447.5 132.167,447.5 133.5,447.5C 133.685,438.053 134.852,428.72 137,419.5C 156.529,332.138 211.029,286.805 300.5,283.5C 346.668,283.322 386.334,298.988 419.5,330.5C 450.045,365.26 466.045,405.926 467.5,452.5 Z"/></g>
<g><path style="opacity:1" fill="#241916" d="M 290.5,301.5 C 301.968,301.455 313.301,302.622 324.5,305C 335.497,308.15 341.497,315.317 342.5,326.5C 338.93,351.566 324.43,365.232 299,367.5C 275.264,364.097 261.431,350.597 257.5,327C 258.268,315.897 263.935,308.563 274.5,305C 279.965,303.796 285.299,302.63 290.5,301.5 Z"/></g>
<g><path style="opacity:1" fill="#251916" d="M 288.5,387.5 C 295.669,388.715 302.835,388.715 310,387.5C 312.259,387.261 313.426,388.261 313.5,390.5C 313.41,392.425 312.41,393.592 310.5,394C 303.5,394.667 296.5,394.667 289.5,394C 287.316,392.102 286.983,389.936 288.5,387.5 Z"/></g>
<g><path style="opacity:1" fill="#896136" d="M 162.5,482.5 C 160.5,480.833 158.5,479.167 156.5,477.5C 156.334,472.821 156.501,468.155 157,463.5C 157.003,460.242 158.17,457.575 160.5,455.5C 161.877,464.447 162.544,473.447 162.5,482.5 Z"/></g>
<g><path style="opacity:1" fill="#845e34" d="M 415.5,494.5 C 409.527,497.487 403.527,500.487 397.5,503.5C 401.473,493.55 406.473,484.216 412.5,475.5C 414.09,481.728 415.09,488.062 415.5,494.5 Z"/></g>
<g><path style="opacity:1" fill="#896237" d="M 202.5,505.5 C 196.504,502.836 190.504,500.169 184.5,497.5C 184.871,490.076 185.704,482.743 187,475.5C 192.958,485.083 198.125,495.083 202.5,505.5 Z"/></g>
<g><path style="opacity:1" fill="#896137" d="M 236.5,512.5 C 236.389,513.117 236.056,513.617 235.5,514C 228.571,514.436 221.904,513.269 215.5,510.5C 215.362,505.847 216.362,501.513 218.5,497.5C 223.96,503.306 229.96,508.306 236.5,512.5 Z"/></g>
<g><path style="opacity:1" fill="#845e34" d="M 382.5,509.5 C 375.647,511.785 368.647,513.451 361.5,514.5C 368.757,510.262 375.257,504.928 381,498.5C 382.415,501.958 382.915,505.625 382.5,509.5 Z"/></g>
</svg>
