<?xml version="1.0" encoding="UTF-8"?>
<!DOCTYPE svg PUBLIC "-//W3C//DTD SVG 1.1//EN" "http://www.w3.org/Graphics/SVG/1.1/DTD/svg11.dtd">
<svg xmlns="http://www.w3.org/2000/svg" version="1.1" width="600px" height="600px" style="shape-rendering:geometricPrecision; text-rendering:geometricPrecision; image-rendering:optimizeQuality; fill-rule:evenodd; clip-rule:evenodd" xmlns:xlink="http://www.w3.org/1999/xlink">
<g><path style="opacity:0.95" fill="#010000" d="M 468.5,599.5 C 459.833,599.5 451.167,599.5 442.5,599.5C 439.342,597.196 436.009,595.03 432.5,593C 419.603,588.218 406.936,582.885 394.5,577C 389.412,573.917 384.912,570.083 381,565.5C 371.603,547.04 361.936,528.707 352,510.5C 351.586,510.043 351.086,509.709 350.5,509.5C 345.088,513.649 339.921,513.316 335,508.5C 333.162,505.963 332.329,503.129 332.5,500C 333.595,494.478 334.428,488.978 335,483.5C 324.942,491.71 313.775,498.044 301.5,502.5C 288.219,497.684 276.052,491.017 265,482.5C 265.822,488.475 266.989,494.475 268.5,500.5C 267.953,507.38 264.286,511.38 257.5,512.5C 253.619,511.893 250.286,510.226 247.5,507.5C 247.167,507.833 246.833,508.167 246.5,508.5C 234.956,526.92 224.456,545.92 215,565.5C 211.296,569.595 207.129,573.095 202.5,576C 189.412,582.251 176.079,587.918 162.5,593C 158.991,595.03 155.658,597.196 152.5,599.5C 145.5,599.5 138.5,599.5 131.5,599.5C 117.898,594.203 104.564,588.036 91.5,581C 83.7074,579.743 76.8741,576.577 71,571.5C 63.1286,557.901 56.7953,543.567 52,528.5C 49.7565,524.252 46.7565,520.586 43,517.5C 40.5452,513.469 38.8786,509.136 38,504.5C 36.1261,485.212 34.7928,465.879 34,446.5C 30.7174,437.433 29.7174,428.1 31,418.5C 33.5383,404.142 36.205,389.809 39,375.5C 39.3468,364.155 39.3468,352.822 39,341.5C 43.5914,322.059 49.5914,303.059 57,284.5C 57.7716,273.363 59.4383,262.363 62,251.5C 68.7494,234.253 76.0827,217.253 84,200.5C 86.3987,190.189 88.732,179.856 91,169.5C 92.6667,166.167 94.3333,162.833 96,159.5C 104,148.167 112,136.833 120,125.5C 123.744,117.527 126.411,109.194 128,100.5C 131.25,93.6602 135.25,87.3269 140,81.5C 155.354,65.1857 172.02,50.519 190,37.5C 188.892,29.9012 192.058,24.7345 199.5,22C 205.801,20.5079 212.135,19.1746 218.5,18C 220.623,15.2015 223.29,13.2015 226.5,12C 231.362,11.3079 236.195,11.4745 241,12.5C 243.785,10.7185 246.285,8.5518 248.5,6C 250.355,5.57786 252.189,5.07786 254,4.5C 257.811,5.60407 261.645,6.60407 265.5,7.5C 288.162,2.21049 310.829,2.21049 333.5,7.5C 337.355,6.60407 341.189,5.60407 345,4.5C 349.566,5.0243 352.733,7.35763 354.5,11.5C 355.5,11.8333 356.5,12.1667 357.5,12.5C 364.066,10.7418 370.4,11.2418 376.5,14C 377.743,15.1545 378.743,16.4878 379.5,18C 388.834,18.864 397.668,21.364 406,25.5C 407.851,29.493 409.017,33.6597 409.5,38C 415.869,42.5235 421.869,47.5235 427.5,53C 432.15,54.3314 436.817,55.6647 441.5,57C 448.247,60.5776 450.747,66.0776 449,73.5C 463.746,86.9881 472.746,103.655 476,123.5C 485.914,137.661 495.581,151.994 505,166.5C 508.188,177.702 510.855,189.035 513,200.5C 521.159,217.151 528.493,234.151 535,251.5C 537.506,263.414 539.506,275.414 541,287.5C 547.875,304.79 553.541,322.457 558,340.5C 558.595,346.847 558.428,353.181 557.5,359.5C 558,364.5 558.5,369.5 559,374.5C 562.618,392.089 565.785,409.756 568.5,427.5C 567.947,434.378 566.447,441.045 564,447.5C 563.02,464.836 562.02,482.169 561,499.5C 560.135,504.625 558.802,509.625 557,514.5C 554,518.167 551,521.833 548,525.5C 542.883,536.183 538.55,547.183 535,558.5C 531.714,566.924 526.214,573.424 518.5,578C 513.363,579.268 508.363,580.934 503.5,583C 491.984,589.094 480.317,594.594 468.5,599.5 Z"/></g>
<g><path style="opacity:1" fill="#413632" d="M 432.5,71.5 C 431.624,71.3691 430.957,71.7025 430.5,72.5C 433.25,76.3318 435.75,80.3318 438,84.5C 439.667,85.5 441.333,86.5 443,87.5C 443.743,89.4406 443.576,91.2739 442.5,93C 447.193,103.078 450.693,113.578 453,124.5C 455.635,129.298 458.468,133.965 461.5,138.5C 459.994,139.747 458.494,139.747 457,138.5C 456.868,144.507 456.868,150.507 457,156.5C 429.917,138.06 399.917,129.727 367,131.5C 357.423,131.348 347.923,132.015 338.5,133.5C 335.592,112.052 330.759,91.0521 324,70.5C 321.366,64.7279 317.866,59.5612 313.5,55C 305.167,50.3333 296.833,50.3333 288.5,55C 279.417,65.8844 273.584,78.3844 271,92.5C 268.041,107.273 265.208,121.94 262.5,136.5C 262.5,135.5 262.5,134.5 262.5,133.5C 237.412,130.354 212.412,130.854 187.5,135C 171.723,139.057 157.056,145.557 143.5,154.5C 142.894,118.656 154.561,87.323 178.5,60.5C 188.7,50.3861 200.367,42.2194 213.5,36C 209.204,35.036 204.87,34.2026 200.5,33.5C 204.824,31.0826 209.491,29.5826 214.5,29C 221.484,28.168 228.484,27.5013 235.5,27C 233.5,25.6667 231.5,24.3333 229.5,23C 237.5,22.6667 245.5,22.3333 253.5,22C 255.917,20.3268 255.917,18.4935 253.5,16.5C 254,16.1667 254.5,15.8333 255,15.5C 258.318,16.9898 261.818,17.6565 265.5,17.5C 287.831,13.524 310.164,13.524 332.5,17.5C 336.478,17.6097 340.312,16.943 344,15.5C 344.5,15.6667 345,15.8333 345.5,16C 342.405,19.3673 343.072,21.7007 347.5,23C 354.064,23.5273 360.564,23.0273 367,21.5C 367.833,21.8333 368.667,22.1667 369.5,22.5C 369.333,22.8333 369.167,23.1667 369,23.5C 366.821,24.1161 364.988,25.2828 363.5,27C 375.434,27.4928 387.101,29.4928 398.5,33C 394.236,34.0665 389.903,35.0665 385.5,36C 399.945,42.8924 412.612,52.2257 423.5,64C 428.799,63.9753 433.799,65.142 438.5,67.5C 439.833,68.1667 439.833,68.8333 438.5,69.5C 436.55,70.3721 434.55,71.0388 432.5,71.5 Z"/></g>
<g><path style="opacity:1" fill="#050404" d="M 338.5,133.5 C 341.252,148.527 343.252,163.527 344.5,178.5C 344.915,187.904 345.915,197.237 347.5,206.5C 350.923,230.987 359.09,253.653 372,274.5C 381.012,287.867 390.012,301.2 399,314.5C 405.951,327.197 410.785,340.531 413.5,354.5C 413.5,355.167 413.5,355.833 413.5,356.5C 415.236,369.424 415.902,382.424 415.5,395.5C 414.867,404.371 412.534,412.704 408.5,420.5C 401.681,434.315 391.014,443.982 376.5,449.5C 373.748,450.512 371.081,451.512 368.5,452.5C 353.992,454.393 339.658,453.56 325.5,450C 318.814,446.632 312.147,443.299 305.5,440C 301.406,439.233 297.406,439.566 293.5,441C 274.27,452.75 253.604,456.25 231.5,451.5C 229.579,450.637 227.579,449.971 225.5,449.5C 209.078,443.078 197.745,431.745 191.5,415.5C 188.73,408.087 187.064,400.42 186.5,392.5C 184.513,364.072 190.347,337.405 204,312.5C 217.584,293.675 229.918,274.009 241,253.5C 247.634,238.433 252.134,222.766 254.5,206.5C 255.993,197.223 256.993,187.889 257.5,178.5C 258.83,164.597 260.497,150.597 262.5,136.5C 265.208,121.94 268.041,107.273 271,92.5C 273.584,78.3844 279.417,65.8844 288.5,55C 296.833,50.3333 305.167,50.3333 313.5,55C 317.866,59.5612 321.366,64.7279 324,70.5C 330.759,91.0521 335.592,112.052 338.5,133.5 Z"/></g>
<g><path style="opacity:1" fill="#dfcab0" d="M 298.5,61.5 C 303.476,61.2384 307.309,63.2384 310,67.5C 313.779,74.1718 316.779,81.1718 319,88.5C 322.768,102.672 325.768,117.005 328,131.5C 331.826,158.773 335.159,186.106 338,213.5C 341.233,234.867 348.233,254.867 359,273.5C 369.333,289.167 379.667,304.833 390,320.5C 402.689,343.946 407.689,368.946 405,395.5C 396.847,432.284 374.014,447.784 336.5,442C 327.992,439.412 319.992,435.745 312.5,431C 299.498,427.293 287.498,429.627 276.5,438C 250.877,448.483 228.377,443.983 209,424.5C 197.498,406.847 193.498,387.514 197,366.5C 198.996,350.179 203.996,334.846 212,320.5C 222.333,304.833 232.667,289.167 243,273.5C 252.846,255.961 259.513,237.295 263,217.5C 266.772,180.992 271.772,144.659 278,108.5C 280.486,94.0399 285.153,80.3732 292,67.5C 294.063,65.2659 296.229,63.2659 298.5,61.5 Z"/></g>
<g><path style="opacity:1" fill="#5a443a" d="M 178.5,60.5 C 154.561,87.323 142.894,118.656 143.5,154.5C 157.056,145.557 171.723,139.057 187.5,135C 212.412,130.854 237.412,130.354 262.5,133.5C 262.5,134.5 262.5,135.5 262.5,136.5C 260.497,150.597 258.83,164.597 257.5,178.5C 255.474,167.135 248.808,162.468 237.5,164.5C 221.214,163.587 207.547,168.92 196.5,180.5C 192.311,183.866 188.811,187.866 186,192.5C 181.86,199.628 178.193,206.961 175,214.5C 173.42,211.028 173.087,207.362 174,203.5C 175.138,195.423 177.138,187.757 180,180.5C 179.586,180.043 179.086,179.709 178.5,179.5C 173.314,181.924 168.647,185.091 164.5,189C 163.552,189.483 162.552,189.649 161.5,189.5C 164.401,176.05 171.567,165.384 183,157.5C 183.483,156.552 183.649,155.552 183.5,154.5C 168.623,155.351 154.457,159.017 141,165.5C 138.296,172.198 136.963,179.198 137,186.5C 136.333,195.167 136.333,203.833 137,212.5C 137.388,213.428 138.055,214.095 139,214.5C 141.047,213.391 143.213,212.724 145.5,212.5C 145.32,216.215 145.654,219.882 146.5,223.5C 143.685,229.13 140.851,234.797 138,240.5C 137.333,243.167 137.333,245.833 138,248.5C 138.839,249.624 140.006,250.291 141.5,250.5C 144.512,249.828 147.512,249.161 150.5,248.5C 150.657,249.873 150.49,251.207 150,252.5C 140.239,264.263 138.739,277.096 145.5,291C 146.167,291.667 146.833,291.667 147.5,291C 151.633,287.869 155.466,284.369 159,280.5C 160.233,282.866 161.066,285.366 161.5,288C 159.397,300.032 155.73,311.532 150.5,322.5C 158.428,323.707 166.261,323.373 174,321.5C 177.076,327.053 179.576,332.886 181.5,339C 179.462,341.57 177.795,344.404 176.5,347.5C 179.434,348.799 181.934,348.132 184,345.5C 185.363,348.59 186.53,351.756 187.5,355C 182.457,365.622 179.791,376.788 179.5,388.5C 181.722,388.822 183.556,388.155 185,386.5C 185.191,388.708 185.691,390.708 186.5,392.5C 187.064,400.42 188.73,408.087 191.5,415.5C 193.336,430.512 197.503,444.846 204,458.5C 208.371,467.042 215.204,472.376 224.5,474.5C 224.227,466.112 224.56,457.779 225.5,449.5C 227.579,449.971 229.579,450.637 231.5,451.5C 233.306,458.059 234.806,464.726 236,471.5C 238.085,477.264 240.252,482.93 242.5,488.5C 241.978,491.568 241.145,494.568 240,497.5C 233.426,510.986 226.093,523.986 218,536.5C 214.696,550.117 207.196,560.617 195.5,568C 184.328,573.057 172.995,577.724 161.5,582C 156.833,584.667 152.167,587.333 147.5,590C 142.761,590.726 138.095,590.393 133.5,589C 115.91,581.035 98.2429,573.368 80.5,566C 77.2131,562.707 74.7131,558.873 73,554.5C 68.9206,542.594 64.2539,530.928 59,519.5C 56,515.833 53,512.167 50,508.5C 49.0797,505.899 48.413,503.232 48,500.5C 46.8611,487.195 46.1944,473.862 46,460.5C 45.8392,451.534 44.1726,442.867 41,434.5C 40.3333,429.5 40.3333,424.5 41,419.5C 44.2158,403.538 47.2158,387.538 50,371.5C 49.9262,360.169 49.9262,348.836 50,337.5C 55.6011,319.363 61.6011,301.363 68,283.5C 67.6766,268.462 70.6766,254.128 77,240.5C 82.3333,229.167 87.6667,217.833 93,206.5C 96.0997,195.26 98.7664,183.927 101,172.5C 103.667,167.833 106.333,163.167 109,158.5C 119.092,146.655 127.425,133.655 134,119.5C 135.073,112.54 137.073,105.874 140,99.5C 150.354,83.9795 163.188,70.9795 178.5,60.5 Z"/></g>
<g><path style="opacity:1" fill="#5a443a" d="M 432.5,71.5 C 441.518,80.0224 449.684,89.3557 457,99.5C 460.417,109.911 464.084,120.244 468,130.5C 477.724,143.892 487.058,157.559 496,171.5C 498.234,182.932 500.9,194.265 504,205.5C 512.177,222.181 519.51,239.181 526,256.5C 527.8,266.439 529.134,276.439 530,286.5C 535.333,301.833 540.667,317.167 546,332.5C 547.221,346.46 547.888,360.46 548,374.5C 551.618,392.089 554.785,409.756 557.5,427.5C 556.931,434.374 555.431,441.04 553,447.5C 552.02,464.836 551.02,482.169 550,499.5C 549.408,503.276 548.408,506.943 547,510.5C 543.962,513.203 541.295,516.203 539,519.5C 533.503,530.829 528.836,542.495 525,554.5C 522.785,559.1 519.952,563.266 516.5,567C 500.71,572.561 485.376,579.227 470.5,587C 463.469,590.182 456.135,591.182 448.5,590C 436.604,582.721 423.937,577.054 410.5,573C 400.925,569.414 393.092,563.581 387,555.5C 376.681,533.528 365.847,511.861 354.5,490.5C 362.502,479.171 367.168,466.505 368.5,452.5C 371.081,451.512 373.748,450.512 376.5,449.5C 376.5,456.833 376.5,464.167 376.5,471.5C 379.978,471.816 383.312,471.316 386.5,470C 398.754,455.756 406.087,439.256 408.5,420.5C 412.534,412.704 414.867,404.371 415.5,395.5C 416.319,392.695 416.819,389.695 417,386.5C 419.41,388.892 420.91,388.226 421.5,384.5C 420.911,379.455 420.078,374.455 419,369.5C 416.735,365.212 414.902,360.879 413.5,356.5C 413.5,355.833 413.5,355.167 413.5,354.5C 414.202,351.56 415.202,348.727 416.5,346C 418.958,347.038 421.625,347.871 424.5,348.5C 423.26,344.851 421.593,341.351 419.5,338C 420.185,335.205 420.685,332.372 421,329.5C 423.393,326.115 426.06,323.115 429,320.5C 437.137,321.788 445.304,322.788 453.5,323.5C 450.771,316.312 448.438,308.979 446.5,301.5C 443.868,294.992 443.201,288.326 444.5,281.5C 445.002,280.479 445.668,280.312 446.5,281C 450.056,285.059 454.056,288.559 458.5,291.5C 460.813,286.459 462.313,281.126 463,275.5C 463.738,271.739 463.405,268.072 462,264.5C 459.333,259.162 456.166,254.162 452.5,249.5C 456.955,250.025 461.455,250.025 466,249.5C 466.667,246.167 466.667,242.833 466,239.5C 462.247,232.667 459.08,225.667 456.5,218.5C 456.442,215.943 457.109,213.61 458.5,211.5C 460.607,212.637 462.773,213.637 465,214.5C 466.261,214.241 467.261,213.574 468,212.5C 468.92,198.425 468.254,184.425 466,170.5C 450.273,160.871 433.106,155.537 414.5,154.5C 414.351,155.552 414.517,156.552 415,157.5C 424.294,163.787 430.96,172.121 435,182.5C 435.814,184.902 435.647,187.235 434.5,189.5C 429.47,185.653 424.137,182.32 418.5,179.5C 418.167,180 417.833,180.5 417.5,181C 422.728,191.776 424.561,202.943 423,214.5C 419.525,207.079 415.859,199.746 412,192.5C 409.969,189.645 407.803,186.978 405.5,184.5C 399.566,176.808 392.232,171.808 383.5,169.5C 380.516,168.183 377.516,167.183 374.5,166.5C 375.239,166.631 375.906,166.464 376.5,166C 368.542,164.61 360.542,164.277 352.5,165C 348.133,168.578 345.466,173.078 344.5,178.5C 343.252,163.527 341.252,148.527 338.5,133.5C 347.923,132.015 357.423,131.348 367,131.5C 399.917,129.727 429.917,138.06 457,156.5C 456.868,150.507 456.868,144.507 457,138.5C 458.494,139.747 459.994,139.747 461.5,138.5C 458.468,133.965 455.635,129.298 453,124.5C 450.693,113.578 447.193,103.078 442.5,93C 443.576,91.2739 443.743,89.4406 443,87.5C 441.333,86.5 439.667,85.5 438,84.5C 435.75,80.3318 433.25,76.3318 430.5,72.5C 430.957,71.7025 431.624,71.3691 432.5,71.5 Z"/></g>
<g><path style="opacity:1" fill="#423732" d="M 196.5,180.5 C 194.49,199.657 202.49,212.491 220.5,219C 234.154,221.061 245.488,216.894 254.5,206.5C 252.134,222.766 247.634,238.433 241,253.5C 229.918,274.009 217.584,293.675 204,312.5C 190.347,337.405 184.513,364.072 186.5,392.5C 185.691,390.708 185.191,388.708 185,386.5C 183.556,388.155 181.722,388.822 179.5,388.5C 179.791,376.788 182.457,365.622 187.5,355C 186.53,351.756 185.363,348.59 184,345.5C 181.934,348.132 179.434,348.799 176.5,347.5C 177.795,344.404 179.462,341.57 181.5,339C 179.576,332.886 177.076,327.053 174,321.5C 166.261,323.373 158.428,323.707 150.5,322.5C 155.73,311.532 159.397,300.032 161.5,288C 161.066,285.366 160.233,282.866 159,280.5C 155.466,284.369 151.633,287.869 147.5,291C 146.833,291.667 146.167,291.667 145.5,291C 138.739,277.096 140.239,264.263 150,252.5C 150.49,251.207 150.657,249.873 150.5,248.5C 147.512,249.161 144.512,249.828 141.5,250.5C 140.006,250.291 138.839,249.624 138,248.5C 137.333,245.833 137.333,243.167 138,240.5C 140.851,234.797 143.685,229.13 146.5,223.5C 145.654,219.882 145.32,216.215 145.5,212.5C 143.213,212.724 141.047,213.391 139,214.5C 138.055,214.095 137.388,213.428 137,212.5C 136.333,203.833 136.333,195.167 137,186.5C 136.963,179.198 138.296,172.198 141,165.5C 154.457,159.017 168.623,155.351 183.5,154.5C 183.649,155.552 183.483,156.552 183,157.5C 171.567,165.384 164.401,176.05 161.5,189.5C 162.552,189.649 163.552,189.483 164.5,189C 168.647,185.091 173.314,181.924 178.5,179.5C 179.086,179.709 179.586,180.043 180,180.5C 177.138,187.757 175.138,195.423 174,203.5C 173.087,207.362 173.42,211.028 175,214.5C 178.193,206.961 181.86,199.628 186,192.5C 188.811,187.866 192.311,183.866 196.5,180.5 Z"/></g>
<g><path style="opacity:1" fill="#423733" d="M 446.5,301.5 C 418.5,274.167 390.833,246.5 363.5,218.5C 389.783,222.209 403.783,210.876 405.5,184.5C 407.803,186.978 409.969,189.645 412,192.5C 415.859,199.746 419.525,207.079 423,214.5C 424.561,202.943 422.728,191.776 417.5,181C 417.833,180.5 418.167,180 418.5,179.5C 424.137,182.32 429.47,185.653 434.5,189.5C 435.647,187.235 435.814,184.902 435,182.5C 430.96,172.121 424.294,163.787 415,157.5C 414.517,156.552 414.351,155.552 414.5,154.5C 433.106,155.537 450.273,160.871 466,170.5C 468.254,184.425 468.92,198.425 468,212.5C 467.261,213.574 466.261,214.241 465,214.5C 462.773,213.637 460.607,212.637 458.5,211.5C 457.109,213.61 456.442,215.943 456.5,218.5C 459.08,225.667 462.247,232.667 466,239.5C 466.667,242.833 466.667,246.167 466,249.5C 461.455,250.025 456.955,250.025 452.5,249.5C 456.166,254.162 459.333,259.162 462,264.5C 463.405,268.072 463.738,271.739 463,275.5C 462.313,281.126 460.813,286.459 458.5,291.5C 454.056,288.559 450.056,285.059 446.5,281C 445.668,280.312 445.002,280.479 444.5,281.5C 443.201,288.326 443.868,294.992 446.5,301.5 Z"/></g>
<g><path style="opacity:1" fill="#936638" d="M 257.5,178.5 C 256.993,187.889 255.993,197.223 254.5,206.5C 245.488,216.894 234.154,221.061 220.5,219C 202.49,212.491 194.49,199.657 196.5,180.5C 207.547,168.92 221.214,163.587 237.5,164.5C 248.808,162.468 255.474,167.135 257.5,178.5 Z"/></g>
<g><path style="opacity:1" fill="#936638" d="M 374.5,166.5 C 355.339,170.151 349.173,181.151 356,199.5C 363.141,208.95 372.308,211.45 383.5,207C 394.23,200.145 397.396,190.645 393,178.5C 390.621,174.62 387.454,171.62 383.5,169.5C 392.232,171.808 399.566,176.808 405.5,184.5C 403.783,210.876 389.783,222.209 363.5,218.5C 357.364,215.715 352.031,211.715 347.5,206.5C 345.915,197.237 344.915,187.904 344.5,178.5C 345.466,173.078 348.133,168.578 352.5,165C 360.542,164.277 368.542,164.61 376.5,166C 375.906,166.464 375.239,166.631 374.5,166.5 Z"/></g>
<g><path style="opacity:1" fill="#030302" d="M 227.5,166.5 C 245.708,169.598 252.208,179.931 247,197.5C 240.473,207.679 231.307,211.179 219.5,208C 208.067,201.035 204.567,191.202 209,178.5C 213.037,171.073 219.204,167.073 227.5,166.5 Z"/></g>
<g><path style="opacity:1" fill="#030303" d="M 374.5,166.5 C 377.516,167.183 380.516,168.183 383.5,169.5C 387.454,171.62 390.621,174.62 393,178.5C 397.396,190.645 394.23,200.145 383.5,207C 372.308,211.45 363.141,208.95 356,199.5C 349.173,181.151 355.339,170.151 374.5,166.5 Z"/></g>
<g><path style="opacity:1" fill="#efefef" d="M 231.5,177.5 C 237.806,176.707 240.639,179.374 240,185.5C 236.645,190.31 232.979,190.644 229,186.5C 227.927,182.9 228.76,179.9 231.5,177.5 Z"/></g>
<g><path style="opacity:1" fill="#f3f3f3" d="M 378.5,177.5 C 385.162,176.997 387.662,179.997 386,186.5C 382.667,190.5 379.333,190.5 376,186.5C 374.93,182.858 375.764,179.858 378.5,177.5 Z"/></g>
<g><path style="opacity:1" fill="#3e332f" d="M 347.5,206.5 C 352.031,211.715 357.364,215.715 363.5,218.5C 390.833,246.5 418.5,274.167 446.5,301.5C 448.438,308.979 450.771,316.312 453.5,323.5C 445.304,322.788 437.137,321.788 429,320.5C 426.06,323.115 423.393,326.115 421,329.5C 420.685,332.372 420.185,335.205 419.5,338C 421.593,341.351 423.26,344.851 424.5,348.5C 421.625,347.871 418.958,347.038 416.5,346C 415.202,348.727 414.202,351.56 413.5,354.5C 410.785,340.531 405.951,327.197 399,314.5C 390.012,301.2 381.012,287.867 372,274.5C 359.09,253.653 350.923,230.987 347.5,206.5 Z"/></g>
<g><path style="opacity:1" fill="#020202" d="M 288.5,332.5 C 304.581,330.772 319.914,333.272 334.5,340C 345.396,347.991 348.563,358.491 344,371.5C 335.893,387.149 323.06,396.316 305.5,399C 288.392,399.697 273.892,393.864 262,381.5C 254.162,371.447 252.495,360.447 257,348.5C 261.256,342.778 266.756,338.612 273.5,336C 278.545,334.425 283.545,333.259 288.5,332.5 Z"/></g>
<g><path style="opacity:1" fill="#1a1513" d="M 327.5,349.5 C 330.642,349.799 332.809,351.466 334,354.5C 336.537,361.406 335.537,367.739 331,373.5C 314.209,391.689 295.875,393.689 276,379.5C 275.383,378.551 275.549,377.718 276.5,377C 293.912,368.299 310.912,359.132 327.5,349.5 Z"/></g>
<g><path style="opacity:1" fill="#392f2b" d="M 413.5,356.5 C 414.902,360.879 416.735,365.212 419,369.5C 420.078,374.455 420.911,379.455 421.5,384.5C 420.91,388.226 419.41,388.892 417,386.5C 416.819,389.695 416.319,392.695 415.5,395.5C 415.902,382.424 415.236,369.424 413.5,356.5 Z"/></g>
<g><path style="opacity:1" fill="#423732" d="M 191.5,415.5 C 197.745,431.745 209.078,443.078 225.5,449.5C 224.56,457.779 224.227,466.112 224.5,474.5C 215.204,472.376 208.371,467.042 204,458.5C 197.503,444.846 193.336,430.512 191.5,415.5 Z"/></g>
<g><path style="opacity:1" fill="#413631" d="M 408.5,420.5 C 406.087,439.256 398.754,455.756 386.5,470C 383.312,471.316 379.978,471.816 376.5,471.5C 376.5,464.167 376.5,456.833 376.5,449.5C 391.014,443.982 401.681,434.315 408.5,420.5 Z"/></g>
<g><path style="opacity:1" fill="#413632" d="M 368.5,452.5 C 367.168,466.505 362.502,479.171 354.5,490.5C 351.215,494.452 347.548,498.119 343.5,501.5C 343.167,500.833 342.833,500.167 342.5,499.5C 345.307,489.62 347.141,479.62 348,469.5C 346.644,470.38 345.144,470.714 343.5,470.5C 343.681,467.447 343.848,464.447 344,461.5C 336.795,468.373 329.295,474.873 321.5,481C 314.886,484.891 308.052,488.391 301,491.5C 292.843,487.35 284.677,483.184 276.5,479C 270.667,473.833 264.833,468.667 259,463.5C 258.503,465.81 258.337,468.143 258.5,470.5C 256.323,470.414 254.323,469.747 252.5,468.5C 253.269,478.446 254.935,488.446 257.5,498.5C 257.167,499.5 256.833,500.5 256.5,501.5C 252.177,497.008 248.01,492.341 244,487.5C 243.617,488.056 243.117,488.389 242.5,488.5C 240.252,482.93 238.085,477.264 236,471.5C 234.806,464.726 233.306,458.059 231.5,451.5C 253.604,456.25 274.27,452.75 293.5,441C 297.406,439.566 301.406,439.233 305.5,440C 312.147,443.299 318.814,446.632 325.5,450C 339.658,453.56 353.992,454.393 368.5,452.5 Z"/></g>
</svg>
