<?xml version="1.0" encoding="UTF-8"?>
<!DOCTYPE svg PUBLIC "-//W3C//DTD SVG 1.1//EN" "http://www.w3.org/Graphics/SVG/1.1/DTD/svg11.dtd">
<svg xmlns="http://www.w3.org/2000/svg" version="1.1" width="600px" height="600px" style="shape-rendering:geometricPrecision; text-rendering:geometricPrecision; image-rendering:optimizeQuality; fill-rule:evenodd; clip-rule:evenodd" xmlns:xlink="http://www.w3.org/1999/xlink">
<g><path style="opacity:0.952" fill="#010000" d="M 121.5,-0.5 C 133.833,-0.5 146.167,-0.5 158.5,-0.5C 169.435,8.60107 179.602,18.6011 189,29.5C 224.318,77.8652 250.818,130.865 268.5,188.5C 278.708,186.312 289.042,184.979 299.5,184.5C 309.94,185.104 320.273,186.438 330.5,188.5C 347.93,131.308 374.097,78.641 409,30.5C 418.699,19.6345 428.866,9.30112 439.5,-0.5C 451.833,-0.5 464.167,-0.5 476.5,-0.5C 480.054,4.64568 482.554,10.3123 484,16.5C 496.492,65.7832 504.325,115.783 507.5,166.5C 506.235,194.171 505.069,221.838 504,249.5C 502.051,261.395 497.384,272.061 490,281.5C 478.696,293.804 467.03,305.804 455,317.5C 453.414,319.67 452.08,322.004 451,324.5C 445.307,367.273 434.307,408.606 418,448.5C 409.554,468.727 400.554,488.727 391,508.5C 384.396,530.248 378.73,552.248 374,574.5C 371.816,583.925 367.649,592.258 361.5,599.5C 320.167,599.5 278.833,599.5 237.5,599.5C 231.516,592.535 227.349,584.535 225,575.5C 220.094,552.209 214.094,529.209 207,506.5C 198.946,488.058 190.613,469.724 182,451.5C 164.637,410.074 152.971,367.074 147,322.5C 145.333,320.167 143.667,317.833 142,315.5C 130.304,304.138 118.97,292.471 108,280.5C 101.488,271.474 97.1551,261.474 95,250.5C 93.8933,222.34 92.7266,194.173 91.5,166C 94.501,116.493 102.001,67.6596 114,19.5C 115.692,12.4632 118.192,5.7965 121.5,-0.5 Z"/></g>
<g><path style="opacity:1" fill="#984e22" d="M 477.5,34.5 C 477.768,36.099 477.434,37.4324 476.5,38.5C 470.469,16.1079 457.469,10.6079 437.5,22C 422.652,35.8383 410.486,51.6716 401,69.5C 382.327,102.503 368.661,137.503 360,174.5C 356.853,191.576 360.187,207.242 370,221.5C 380.667,232.833 391.333,244.167 402,255.5C 411.218,267.051 420.052,278.884 428.5,291C 438.373,293.41 447.04,291.077 454.5,284C 464.973,274.866 473.14,264.033 479,251.5C 480.802,246.625 482.135,241.625 483,236.5C 483.757,214.329 486.09,192.329 490,170.5C 490.711,152.815 490.378,135.148 489,117.5C 487.499,103.493 485.999,89.493 484.5,75.5C 484.263,74.209 484.596,73.209 485.5,72.5C 497.64,132.038 500.14,192.038 493,252.5C 490.497,261.84 486.164,270.174 480,277.5C 469.667,287.833 459.333,298.167 449,308.5C 445.581,312.331 442.914,316.665 441,321.5C 435.877,364.408 424.877,405.741 408,445.5C 399.279,465.276 390.279,484.943 381,504.5C 373.865,529.375 367.198,554.375 361,579.5C 354.942,594.552 343.775,600.386 327.5,597C 318.227,594.185 308.893,591.685 299.5,589.5C 289.982,591.283 280.649,593.783 271.5,597C 255.79,600.232 244.623,594.732 238,580.5C 232.572,562.03 227.906,543.363 224,524.5C 221.868,517.105 219.535,509.772 217,502.5C 207.006,480.51 197.006,458.51 187,436.5C 172.418,398.677 162.418,359.677 157,319.5C 149.459,307.622 140.126,297.289 129,288.5C 124.333,283.167 119.667,277.833 115,272.5C 110.111,265.172 106.778,257.172 105,248.5C 98.1839,192.756 100.351,137.423 111.5,82.5C 112.461,84.2646 112.795,86.2646 112.5,88.5C 108.971,115.728 107.804,143.062 109,170.5C 110.074,179.205 111.408,187.871 113,196.5C 113.439,210.541 114.439,224.541 116,238.5C 121.878,261.052 134.711,278.552 154.5,291C 160.711,292.957 166.711,292.291 172.5,289C 188.364,264.788 206.864,242.621 228,222.5C 237.881,209.438 241.548,194.772 239,178.5C 236.898,164.861 233.565,151.528 229,138.5C 217.559,106.616 202.559,76.2826 184,47.5C 177.206,39.0369 170.039,30.8703 162.5,23C 141.922,9.69873 128.589,14.8654 122.5,38.5C 121.549,37.0813 121.216,35.4147 121.5,33.5C 122.276,21.9952 126.276,11.8285 133.5,3C 134.873,2.12515 136.373,1.62515 138,1.5C 144.937,3.21819 151.104,6.38486 156.5,11C 179.913,33.021 199.079,58.1877 214,86.5C 232.646,121.121 247.979,157.121 260,194.5C 261.182,197.523 263.349,199.189 266.5,199.5C 277.669,196.908 289.003,195.575 300.5,195.5C 312.251,196.252 323.918,197.419 335.5,199C 336.333,198.167 337.167,197.333 338,196.5C 352.931,149.309 373.265,104.642 399,62.5C 412.023,41.3102 428.19,22.8102 447.5,7C 451.255,4.2051 455.422,2.37176 460,1.5C 463.855,1.59497 466.855,3.26164 469,6.5C 473.281,15.4131 476.114,24.7464 477.5,34.5 Z"/></g>
<g><path style="opacity:1" fill="#090401" d="M 112.5,88.5 C 114.744,71.7253 118.077,55.0587 122.5,38.5C 128.589,14.8654 141.922,9.69873 162.5,23C 170.039,30.8703 177.206,39.0369 184,47.5C 202.559,76.2826 217.559,106.616 229,138.5C 233.565,151.528 236.898,164.861 239,178.5C 241.548,194.772 237.881,209.438 228,222.5C 206.864,242.621 188.364,264.788 172.5,289C 166.711,292.291 160.711,292.957 154.5,291C 134.711,278.552 121.878,261.052 116,238.5C 114.439,224.541 113.439,210.541 113,196.5C 111.408,187.871 110.074,179.205 109,170.5C 107.804,143.062 108.971,115.728 112.5,88.5 Z"/></g>
<g><path style="opacity:1" fill="#0a0402" d="M 476.5,38.5 C 479.501,50.8738 482.168,63.2071 484.5,75.5C 485.999,89.493 487.499,103.493 489,117.5C 490.378,135.148 490.711,152.815 490,170.5C 486.09,192.329 483.757,214.329 483,236.5C 482.135,241.625 480.802,246.625 479,251.5C 473.14,264.033 464.973,274.866 454.5,284C 447.04,291.077 438.373,293.41 428.5,291C 420.052,278.884 411.218,267.051 402,255.5C 391.333,244.167 380.667,232.833 370,221.5C 360.187,207.242 356.853,191.576 360,174.5C 368.661,137.503 382.327,102.503 401,69.5C 410.486,51.6716 422.652,35.8383 437.5,22C 457.469,10.6079 470.469,16.1079 476.5,38.5 Z"/></g>
<g><path style="opacity:1" fill="#e3a399" d="M 140.5,26.5 C 141.167,26.5 141.833,26.5 142.5,26.5C 144.527,26.3379 146.527,26.5045 148.5,27C 150.886,28.1932 153.22,29.3599 155.5,30.5C 158.167,33.8333 161.167,36.8333 164.5,39.5C 188.985,71.462 207.485,106.795 220,145.5C 224.835,159.328 228.002,173.494 229.5,188C 229.333,191.167 229.167,194.333 229,197.5C 226.947,203.936 224.114,209.936 220.5,215.5C 216.434,218.563 213.101,222.229 210.5,226.5C 207.833,228.5 205.5,230.833 203.5,233.5C 199.434,236.563 196.101,240.229 193.5,244.5C 182.662,255.675 173.328,268.008 165.5,281.5C 160.901,281.862 156.901,280.529 153.5,277.5C 153.167,277.5 152.833,277.5 152.5,277.5C 149.167,273.5 145.5,269.833 141.5,266.5C 138.01,261.529 134.51,256.529 131,251.5C 128.584,246.754 126.917,241.754 126,236.5C 124.771,214.375 122.438,192.375 119,170.5C 117.212,125.091 122.046,80.4239 133.5,36.5C 135.328,32.8544 137.662,29.5211 140.5,26.5 Z"/></g>
<g><path style="opacity:1" fill="#e3a399" d="M 455.5,268.5 C 452.5,270.833 449.833,273.5 447.5,276.5C 445.596,276.738 444.262,277.738 443.5,279.5C 439.395,281.977 435.395,281.977 431.5,279.5C 424.127,265.122 414.461,252.455 402.5,241.5C 398.227,235.558 393.227,230.224 387.5,225.5C 376.54,215.413 370.206,202.913 368.5,188C 378.838,134.176 400.172,85.3425 432.5,41.5C 436.833,37.8333 440.833,33.8333 444.5,29.5C 454.251,22.7787 461.085,25.112 465,36.5C 476.656,80.4014 481.656,125.068 480,170.5C 475.795,192.291 473.462,214.291 473,236.5C 471.61,242.06 469.61,247.394 467,252.5C 463.402,258.039 459.569,263.372 455.5,268.5 Z"/></g>
<g><path style="opacity:1" fill="#4a291b" d="M 142.5,26.5 C 147.718,24.593 152.051,25.9263 155.5,30.5C 153.22,29.3599 150.886,28.1932 148.5,27C 146.527,26.5045 144.527,26.3379 142.5,26.5 Z"/></g>
<g><path style="opacity:1" fill="#391d0f" d="M 155.5,30.5 C 159.5,32.5 162.5,35.5 164.5,39.5C 161.167,36.8333 158.167,33.8333 155.5,30.5 Z"/></g>
<g><path style="opacity:1" fill="#442516" d="M 140.5,26.5 C 137.662,29.5211 135.328,32.8544 133.5,36.5C 133.889,31.6955 136.223,28.3622 140.5,26.5 Z"/></g>
<g><path style="opacity:1" fill="#4d2b1c" d="M 444.5,29.5 C 440.833,33.8333 436.833,37.8333 432.5,41.5C 435.5,36.5 439.5,32.5 444.5,29.5 Z"/></g>
<g><path style="opacity:1" fill="#763d1b" d="M 121.5,33.5 C 121.216,35.4147 121.549,37.0813 122.5,38.5C 118.077,55.0587 114.744,71.7253 112.5,88.5C 112.795,86.2646 112.461,84.2646 111.5,82.5C 114.088,65.8927 117.421,49.5594 121.5,33.5 Z"/></g>
<g><path style="opacity:1" fill="#723a1a" d="M 477.5,34.5 C 480.784,46.9155 483.451,59.5821 485.5,72.5C 484.596,73.209 484.263,74.209 484.5,75.5C 482.168,63.2071 479.501,50.8738 476.5,38.5C 477.434,37.4324 477.768,36.099 477.5,34.5 Z"/></g>
<g><path style="opacity:1" fill="#4a2a1b" d="M 220.5,215.5 C 217.899,219.771 214.566,223.437 210.5,226.5C 213.101,222.229 216.434,218.563 220.5,215.5 Z"/></g>
<g><path style="opacity:1" fill="#3f2113" d="M 387.5,225.5 C 393.227,230.224 398.227,235.558 402.5,241.5C 396.773,236.776 391.773,231.442 387.5,225.5 Z"/></g>
<g><path style="opacity:1" fill="#412315" d="M 203.5,233.5 C 200.899,237.771 197.566,241.437 193.5,244.5C 196.101,240.229 199.434,236.563 203.5,233.5 Z"/></g>
<g><path style="opacity:1" fill="#402213" d="M 141.5,266.5 C 145.5,269.833 149.167,273.5 152.5,277.5C 147.833,274.833 144.167,271.167 141.5,266.5 Z"/></g>
<g><path style="opacity:1" fill="#371c0d" d="M 455.5,268.5 C 453.833,272.167 451.167,274.833 447.5,276.5C 449.833,273.5 452.5,270.833 455.5,268.5 Z"/></g>
<g><path style="opacity:1" fill="#884820" d="M 266.5,274.5 C 272.505,275.984 277.338,279.318 281,284.5C 291.994,302.302 295.827,321.302 292.5,341.5C 290.977,329.029 288.477,316.696 285,304.5C 281.827,294.334 275.493,287.001 266,282.5C 265.398,279.779 265.565,277.113 266.5,274.5 Z"/></g>
<g><path style="opacity:1" fill="#884820" d="M 328.5,274.5 C 332.976,274.822 334.476,277.156 333,281.5C 319.527,290.091 311.861,302.424 310,318.5C 309.002,325.467 308.336,332.467 308,339.5C 307.395,341.481 306.395,341.815 305,340.5C 303.008,320.82 307.008,302.487 317,285.5C 320.729,281.602 324.562,277.935 328.5,274.5 Z"/></g>
<g><path style="opacity:1" fill="#48281a" d="M 153.5,277.5 C 156.901,280.529 160.901,281.862 165.5,281.5C 161.735,282.94 158.068,282.44 154.5,280C 153.748,279.329 153.414,278.496 153.5,277.5 Z"/></g>
<g><path style="opacity:1" fill="#442517" d="M 431.5,279.5 C 435.395,281.977 439.395,281.977 443.5,279.5C 441.834,281.828 439.501,282.828 436.5,282.5C 435.167,282.333 433.833,282.167 432.5,282C 431.748,281.329 431.414,280.496 431.5,279.5 Z"/></g>
<g><path style="opacity:1" fill="#8b4a25" d="M 222.5,333.5 C 247.761,332.262 259.261,344.262 257,369.5C 247.968,389.513 233.468,394.68 213.5,385C 201.246,374.652 198.413,362.152 205,347.5C 209.311,340.782 215.144,336.115 222.5,333.5 Z"/></g>
<g><path style="opacity:1" fill="#8c4a25" d="M 361.5,333.5 C 382.809,331.314 394.809,340.814 397.5,362C 394.384,382.777 382.384,391.777 361.5,389C 346.118,383.069 339.284,371.903 341,355.5C 344.285,344.719 351.119,337.386 361.5,333.5 Z"/></g>
<g><path style="opacity:1" fill="#302725" d="M 224.5,342.5 C 242.214,341.711 250.048,350.044 248,367.5C 242.634,379.073 233.801,382.906 221.5,379C 210.763,371.645 208.263,362.145 214,350.5C 216.94,346.963 220.44,344.297 224.5,342.5 Z"/></g>
<g><path style="opacity:1" fill="#302725" d="M 363.5,342.5 C 381.214,341.711 389.048,350.044 387,367.5C 381.661,379.066 372.828,382.899 360.5,379C 349.572,371.662 347.072,362.162 353,350.5C 355.94,346.963 359.44,344.297 363.5,342.5 Z"/></g>
<g><path style="opacity:1" fill="#f3f3f3" d="M 233.5,351.5 C 240.574,352.482 242.24,355.982 238.5,362C 232,363.5 229.5,361 231,354.5C 232.045,353.627 232.878,352.627 233.5,351.5 Z"/></g>
<g><path style="opacity:1" fill="#f0f0f0" d="M 373.5,351.5 C 380.985,352.805 382.319,356.305 377.5,362C 372.16,362.989 369.66,360.822 370,355.5C 370.69,353.65 371.856,352.316 373.5,351.5 Z"/></g>
<g><path style="opacity:1" fill="#612a06" d="M 296.5,515.5 C 311.758,514.741 324.258,520.075 334,531.5C 340.25,549.182 334.75,562.016 317.5,570C 301.01,577.047 285.677,575.047 271.5,564C 258.656,551.26 258.323,538.26 270.5,525C 278.322,519.244 286.988,516.078 296.5,515.5 Z"/></g>
</svg>
