<?xml version="1.0" encoding="UTF-8"?>
<!DOCTYPE svg PUBLIC "-//W3C//DTD SVG 1.1//EN" "http://www.w3.org/Graphics/SVG/1.1/DTD/svg11.dtd">
<svg xmlns="http://www.w3.org/2000/svg" version="1.1" width="600px" height="600px" style="shape-rendering:geometricPrecision; text-rendering:geometricPrecision; image-rendering:optimizeQuality; fill-rule:evenodd; clip-rule:evenodd" xmlns:xlink="http://www.w3.org/1999/xlink">
<g><path style="opacity:0.956" fill="#020100" d="M 193.5,-0.5 C 201.167,-0.5 208.833,-0.5 216.5,-0.5C 233.705,26.5662 248.871,54.8995 262,84.5C 268.611,79.0193 274.944,79.3526 281,85.5C 282.66,74.4198 288.827,70.5865 299.5,74C 305.263,79.0947 309.429,85.2613 312,92.5C 314.246,84.1683 318.413,77.0016 324.5,71C 331.443,68.6087 336.943,70.442 341,76.5C 352.797,49.5629 366.63,23.8963 382.5,-0.5C 390.5,-0.5 398.5,-0.5 406.5,-0.5C 420.857,22.2243 432.024,46.5576 440,72.5C 442.667,81.8333 445.333,91.1667 448,100.5C 456.471,101.632 461.637,106.299 463.5,114.5C 462.807,120.025 459.974,124.025 455,126.5C 458.954,151.348 462.12,176.348 464.5,201.5C 464.544,210.26 460.877,216.76 453.5,221C 464.979,229.122 470.813,240.289 471,254.5C 471.781,262.817 472.281,271.15 472.5,279.5C 472.773,286.321 471.939,292.987 470,299.5C 467.957,301.712 465.791,303.712 463.5,305.5C 467.296,312.425 469.963,319.758 471.5,327.5C 471.123,334.051 468.789,339.718 464.5,344.5C 468.701,358.406 467.867,372.072 462,385.5C 459.471,388.348 456.305,390.015 452.5,390.5C 452.167,391.167 451.833,391.833 451.5,392.5C 453.887,400.936 456.553,409.269 459.5,417.5C 456.658,432.21 450.825,445.543 442,457.5C 441.667,462.833 441.333,468.167 441,473.5C 440.529,476.471 439.362,479.138 437.5,481.5C 438.728,495.619 436.561,509.285 431,522.5C 421.889,543.289 407.389,559.456 387.5,571C 385.567,571.251 383.734,571.751 382,572.5C 381.439,571.978 380.772,571.645 380,571.5C 375.695,578.135 369.861,582.969 362.5,586C 347.042,590.299 331.376,593.632 315.5,596C 313.416,596.697 311.749,597.864 310.5,599.5C 303.167,599.5 295.833,599.5 288.5,599.5C 286.351,597.254 283.684,595.754 280.5,595C 265.576,593.202 250.909,590.202 236.5,586C 229.171,582.926 223.338,578.093 219,571.5C 213.78,571.875 208.946,570.375 204.5,567C 179.907,549.315 165.407,525.482 161,495.5C 160.247,490.625 160.414,485.792 161.5,481C 159.655,478.472 158.488,475.639 158,472.5C 157.667,467.5 157.333,462.5 157,457.5C 146.288,444.361 140.955,429.361 141,412.5C 143.8,405.267 146.3,397.934 148.5,390.5C 143.228,390.741 139.061,388.408 136,383.5C 133.728,375.473 132.228,367.306 131.5,359C 131.786,354.023 132.786,349.19 134.5,344.5C 128.905,337.896 127.072,330.229 129,321.5C 130.89,316.053 133.057,310.72 135.5,305.5C 132.839,303.67 130.672,301.337 129,298.5C 127.156,292.479 126.323,286.313 126.5,280C 126.701,266.338 128.201,252.838 131,239.5C 134.338,232.162 139.171,225.995 145.5,221C 137.165,215.945 133.831,208.445 135.5,198.5C 136.831,174.348 140.165,150.514 145.5,127C 135.682,122.048 133.682,115.048 139.5,106C 143.058,103.592 146.891,101.758 151,100.5C 158.373,71.3782 168.706,43.3782 182,16.5C 185.348,10.4588 189.182,4.7921 193.5,-0.5 Z"/></g>
<g><path style="opacity:1" fill="#ab7743" d="M 455.5,371.5 C 452.902,369.696 450.735,367.362 449,364.5C 435.167,345.333 421.333,326.167 407.5,307C 408.416,306.722 409.082,306.222 409.5,305.5C 414.74,303.533 417.073,299.7 416.5,294C 416.638,289.109 414.971,284.942 411.5,281.5C 414.341,280.025 417.341,278.859 420.5,278C 421.333,277.167 422.167,276.333 423,275.5C 425.304,267.85 423.138,262.017 416.5,258C 385.687,244.156 354.021,241.822 321.5,251C 316.381,253.785 312.214,257.618 309,262.5C 307.487,268.87 308.653,274.536 312.5,279.5C 312.657,280.873 312.49,282.207 312,283.5C 309.781,288.667 307.281,293.667 304.5,298.5C 301.829,292.814 299.163,287.147 296.5,281.5C 295.434,280.308 294.601,280.641 294,282.5C 291.517,279.861 289.684,276.861 288.5,273.5C 288.023,260.503 281.356,252.336 268.5,249C 237.799,242.041 208.132,245.041 179.5,258C 177.333,260.167 175.167,262.333 173,264.5C 170.53,276.02 175.03,281.187 186.5,280C 179.513,285.815 177.679,292.982 181,301.5C 183.065,304.876 186.065,306.209 190,305.5C 194.184,305.601 198.017,304.601 201.5,302.5C 202.552,302.351 203.552,302.517 204.5,303C 216.456,319.078 228.289,335.245 240,351.5C 241.903,353.441 242.736,355.774 242.5,358.5C 242.777,361.448 242.444,364.281 241.5,367C 238.476,368.513 235.809,370.513 233.5,373C 207.512,382.32 189.346,399.82 179,425.5C 175.238,434.453 172.071,443.62 169.5,453C 169.164,454.03 168.497,454.53 167.5,454.5C 159.026,443.716 153.36,431.549 150.5,418C 155.908,402.367 159.908,386.367 162.5,370C 162.167,368.833 161.833,367.667 161.5,366.5C 157.015,370.485 152.682,374.651 148.5,379C 147.552,379.483 146.552,379.649 145.5,379.5C 143.137,371.658 141.97,363.658 142,355.5C 143.999,347.168 147.832,339.835 153.5,333.5C 152.667,333.167 151.833,332.833 151,332.5C 147.622,334.121 144.122,334.955 140.5,335C 138.544,331.405 138.044,327.572 139,323.5C 145.179,309.642 152.012,296.142 159.5,283C 154.192,286.846 148.526,290.512 142.5,294C 140.888,294.72 139.388,294.554 138,293.5C 136.936,277.082 137.602,260.748 140,244.5C 144.397,235.436 150.897,228.269 159.5,223C 162.551,220.286 165.218,217.286 167.5,214C 166.907,212.118 165.573,211.118 163.5,211C 158.167,210.667 152.833,210.333 147.5,210C 146.874,209.25 146.374,208.416 146,207.5C 145.472,195.445 146.138,183.445 148,171.5C 150.296,154.055 153.13,136.722 156.5,119.5C 152.357,119.348 149.024,117.681 146.5,114.5C 147.09,113.201 148.09,112.368 149.5,112C 152.876,110.93 156.21,109.764 159.5,108.5C 167.63,72.5939 181.13,38.9273 200,7.5C 201.117,5.8757 202.617,4.8757 204.5,4.5C 207.068,5.55891 209.235,7.22557 211,9.5C 216.252,17.6676 221.252,26.0009 226,34.5C 239.916,61.8311 253.416,89.3311 266.5,117C 268.888,117.865 270.388,117.032 271,114.5C 271.099,107.814 270.599,101.148 269.5,94.5C 269.477,92.9334 269.977,91.6001 271,90.5C 278.032,99.223 283.532,108.89 287.5,119.5C 289.006,120.747 290.506,120.747 292,119.5C 292.645,109.655 292.478,99.8221 291.5,90C 290.494,82.2697 292.327,81.103 297,86.5C 302.839,97.3493 307.505,108.683 311,120.5C 311.667,119.833 312.333,119.167 313,118.5C 317.39,106.721 322.057,95.054 327,83.5C 327.908,81.5614 329.408,80.5614 331.5,80.5C 330.026,89.9324 329.026,99.4324 328.5,109C 328.667,111.833 328.833,114.667 329,117.5C 330.183,118.731 331.349,118.731 332.5,117.5C 346.846,87.3172 361.68,57.3172 377,27.5C 381.056,19.2171 386.223,11.7171 392.5,5C 393.833,4.33333 395.167,4.33333 396.5,5C 405.576,16.309 412.743,28.809 418,42.5C 427.176,64.2082 434.342,86.5415 439.5,109.5C 442.843,110.224 446.176,111.057 449.5,112C 451.18,112.347 452.18,113.347 452.5,115C 449.909,117.152 446.909,118.652 443.5,119.5C 443.167,120.167 442.833,120.833 442.5,121.5C 449.286,149.79 452.786,178.457 453,207.5C 452.626,208.416 452.126,209.25 451.5,210C 445.833,210.333 440.167,210.667 434.5,211C 432.637,212.418 432.137,214.251 433,216.5C 440,222.833 447,229.167 454,235.5C 458.828,241.597 461.161,248.597 461,256.5C 461.667,268.833 461.667,281.167 461,293.5C 457.975,294.709 455.141,294.209 452.5,292C 447.871,289.095 443.704,285.595 440,281.5C 439.833,281.833 439.667,282.167 439.5,282.5C 447.115,295.395 453.948,308.729 460,322.5C 460.667,326.167 460.667,329.833 460,333.5C 459.5,334 459,334.5 458.5,335C 454.499,334.52 450.499,333.687 446.5,332.5C 449.876,338.245 453.043,344.245 456,350.5C 457.91,357.551 457.744,364.551 455.5,371.5 Z"/></g>
<g><path style="opacity:1" fill="#080503" d="M 207.5,122.5 C 203.761,120.734 199.761,119.901 195.5,120C 198.894,121.075 202.228,122.242 205.5,123.5C 217.948,128.472 228.781,135.805 238,145.5C 239.689,155.827 235.523,162.66 225.5,166C 222.167,166.667 218.833,166.667 215.5,166C 215,165.5 214.5,165 214,164.5C 213.944,172.897 209.777,178.064 201.5,180C 194.515,182.077 187.681,181.577 181,178.5C 166.806,183.822 159.972,178.822 160.5,163.5C 161.657,148.894 164.157,134.56 168,120.5C 169.873,118.291 172.04,116.458 174.5,115C 172.889,112.231 171.889,109.231 171.5,106C 176.16,87.3558 181.994,69.1892 189,51.5C 192.042,44.611 197.208,40.611 204.5,39.5C 206.867,39.8417 209.2,40.3417 211.5,41C 214.667,44.1667 217.833,47.3333 221,50.5C 234.396,72.866 245.396,96.1993 254,120.5C 254.667,125.833 254.667,131.167 254,136.5C 249.464,141.675 243.964,143.175 237.5,141C 229.465,131.49 219.465,125.324 207.5,122.5 Z"/></g>
<g><path style="opacity:1" fill="#070402" d="M 393.5,39.5 C 400.094,38.7674 405.26,41.1007 409,46.5C 417.207,63.7715 423.873,81.7715 429,100.5C 429.667,104.833 429.667,109.167 429,113.5C 428.5,114 428,114.5 427.5,115C 430.196,115.69 432.363,117.19 434,119.5C 438.31,133.831 440.81,148.498 441.5,163.5C 441.049,182.215 432.716,187.215 416.5,178.5C 406.033,182.526 396.699,180.859 388.5,173.5C 387.03,170.692 386.197,167.692 386,164.5C 382.033,166.386 377.866,166.886 373.5,166C 367.185,162.857 362.852,158.023 360.5,151.5C 361.064,149.181 361.564,146.847 362,144.5C 373.191,133.987 386.024,126.154 400.5,121C 385.25,121.958 372.583,128.292 362.5,140C 355.294,143.82 349.461,142.32 345,135.5C 344.196,129.431 344.529,123.431 346,117.5C 355.34,94.8191 366.34,72.8191 379,51.5C 382.571,45.7429 387.405,41.7429 393.5,39.5 Z"/></g>
<g><path style="opacity:1" fill="#90675e" d="M 208.5,51.5 C 210.925,55.3523 213.591,59.019 216.5,62.5C 220.659,72.151 225.325,81.4843 230.5,90.5C 234.324,100.501 238.49,110.501 243,120.5C 244.499,124.473 244.666,128.473 243.5,132.5C 238.604,128.558 233.937,124.392 229.5,120C 222.914,117.916 216.581,115.25 210.5,112C 204.591,110.451 198.591,109.618 192.5,109.5C 189.375,108.521 186.042,108.187 182.5,108.5C 182.5,106.833 182.5,105.167 182.5,103.5C 187.427,87.6066 192.594,71.6066 198,55.5C 199.961,49.3935 203.461,48.0602 208.5,51.5 Z"/></g>
<g><path style="opacity:1" fill="#91685f" d="M 393.5,50.5 C 395.199,50.3398 396.866,50.5065 398.5,51C 400.65,54.1467 402.65,57.3133 404.5,60.5C 404.595,63.3576 405.762,65.6909 408,67.5C 412.259,79.8061 416.093,92.1395 419.5,104.5C 419.5,105.833 419.5,107.167 419.5,108.5C 414.968,108.182 410.634,108.515 406.5,109.5C 406.167,109.5 405.833,109.5 405.5,109.5C 398.438,109.446 391.771,110.779 385.5,113.5C 377.696,114.755 371.029,118.089 365.5,123.5C 361.5,125.5 358.5,128.5 356.5,132.5C 355.504,132.586 354.671,132.252 354,131.5C 353.393,128.798 353.56,126.132 354.5,123.5C 358.037,113.429 362.371,103.762 367.5,94.5C 372.341,86.151 376.675,77.4843 380.5,68.5C 383.248,61.4092 387.581,55.4092 393.5,50.5 Z"/></g>
<g><path style="opacity:1" fill="#523a25" d="M 208.5,51.5 C 212.387,54.2724 215.054,57.9391 216.5,62.5C 213.591,59.019 210.925,55.3523 208.5,51.5 Z"/></g>
<g><path style="opacity:1" fill="#4a3426" d="M 393.5,50.5 C 395.288,49.3775 397.288,49.2109 399.5,50C 402.115,53.0619 403.781,56.5619 404.5,60.5C 402.65,57.3133 400.65,54.1467 398.5,51C 396.866,50.5065 395.199,50.3398 393.5,50.5 Z"/></g>
<g><path style="opacity:1" fill="#4a3426" d="M 216.5,62.5 C 222.207,71.2477 226.874,80.5811 230.5,90.5C 225.325,81.4843 220.659,72.151 216.5,62.5 Z"/></g>
<g><path style="opacity:1" fill="#4a3426" d="M 380.5,68.5 C 376.675,77.4843 372.341,86.151 367.5,94.5C 370.793,85.2477 375.126,76.581 380.5,68.5 Z"/></g>
<g><path style="opacity:1" fill="#493325" d="M 182.5,103.5 C 182.5,105.167 182.5,106.833 182.5,108.5C 186.042,108.187 189.375,108.521 192.5,109.5C 188.833,109.5 185.167,109.5 181.5,109.5C 181.205,107.265 181.539,105.265 182.5,103.5 Z"/></g>
<g><path style="opacity:1" fill="#453123" d="M 419.5,104.5 C 420.451,105.919 420.784,107.585 420.5,109.5C 415.833,109.5 411.167,109.5 406.5,109.5C 410.634,108.515 414.968,108.182 419.5,108.5C 419.5,107.167 419.5,105.833 419.5,104.5 Z"/></g>
<g><path style="opacity:1" fill="#4a3426" d="M 405.5,109.5 C 398.979,110.938 392.312,112.271 385.5,113.5C 391.771,110.779 398.438,109.446 405.5,109.5 Z"/></g>
<g><path style="opacity:1" fill="#614426" d="M 207.5,122.5 C 206.508,122.328 205.842,122.662 205.5,123.5C 202.228,122.242 198.894,121.075 195.5,120C 199.761,119.901 203.761,120.734 207.5,122.5 Z"/></g>
<g><path style="opacity:1" fill="#8f665d" d="M 401.5,158.5 C 406.5,154.167 411.167,149.5 415.5,144.5C 418.394,143.118 420.894,141.118 423,138.5C 423.74,137.251 423.573,136.251 422.5,135.5C 409.866,134.635 398.866,138.635 389.5,147.5C 385.5,150.5 381.5,153.5 377.5,156.5C 374.933,155.255 372.599,153.588 370.5,151.5C 374.404,145.239 379.737,140.906 386.5,138.5C 390.818,137.008 394.818,135.008 398.5,132.5C 406.545,129.541 414.711,126.874 423,124.5C 423.5,124.833 424,125.167 424.5,125.5C 430.572,140.601 432.738,156.267 431,172.5C 429.989,173.337 428.822,173.67 427.5,173.5C 427.863,171.089 426.863,169.589 424.5,169C 417.858,167.829 411.524,168.662 405.5,171.5C 402.371,170.101 399.371,168.435 396.5,166.5C 398.22,163.798 399.887,161.132 401.5,158.5 Z"/></g>
<g><path style="opacity:1" fill="#92695f" d="M 177.5,124.5 C 196.517,129.091 213.35,137.757 228,150.5C 227.007,152.829 225.173,154.663 222.5,156C 221.5,156.667 220.5,156.667 219.5,156C 210.442,145.308 199.109,138.475 185.5,135.5C 182.435,134.182 179.269,134.182 176,135.5C 176.319,131.864 176.819,128.197 177.5,124.5 Z"/></g>
<g><path style="opacity:1" fill="#473224" d="M 365.5,123.5 C 362.833,126.833 359.833,129.833 356.5,132.5C 358.5,128.5 361.5,125.5 365.5,123.5 Z"/></g>
<g><path style="opacity:1" fill="#4e382a" d="M 177.5,124.5 C 176.819,128.197 176.319,131.864 176,135.5C 179.269,134.182 182.435,134.182 185.5,135.5C 182.813,135.336 180.146,135.503 177.5,136C 176.944,136.383 176.611,136.883 176.5,137.5C 175.833,137.167 175.167,136.833 174.5,136.5C 174.584,132.163 175.584,128.163 177.5,124.5 Z"/></g>
<g><path style="opacity:1" fill="#463123" d="M 398.5,132.5 C 394.818,135.008 390.818,137.008 386.5,138.5C 389.914,135.46 393.914,133.46 398.5,132.5 Z"/></g>
<g><path style="opacity:1" fill="#8f675d" d="M 174.5,136.5 C 175.167,136.833 175.833,137.167 176.5,137.5C 178.861,139.194 180.861,141.194 182.5,143.5C 187.5,149.167 192.833,154.5 198.5,159.5C 199.919,162.1 201.585,164.6 203.5,167C 202.944,167.383 202.611,167.883 202.5,168.5C 199.965,169.349 197.465,170.349 195,171.5C 186.647,167.652 178.48,167.652 170.5,171.5C 170.334,165.158 170.5,158.825 171,152.5C 172.487,147.246 173.654,141.913 174.5,136.5 Z"/></g>
<g><path style="opacity:1" fill="#4d3729" d="M 422.5,135.5 C 423.573,136.251 423.74,137.251 423,138.5C 420.894,141.118 418.394,143.118 415.5,144.5C 418.239,141.767 420.573,138.767 422.5,135.5 Z"/></g>
<g><path style="opacity:1" fill="#493426" d="M 182.5,143.5 C 188.833,147.833 194.167,153.167 198.5,159.5C 192.833,154.5 187.5,149.167 182.5,143.5 Z"/></g>
<g><path style="opacity:1" fill="#493425" d="M 415.5,144.5 C 411.167,149.5 406.5,154.167 401.5,158.5C 405.167,152.833 409.833,148.167 415.5,144.5 Z"/></g>
<g><path style="opacity:1" fill="#3f2d1f" d="M 389.5,147.5 C 386.704,150.797 383.704,153.964 380.5,157C 379.251,157.74 378.251,157.573 377.5,156.5C 381.5,153.5 385.5,150.5 389.5,147.5 Z"/></g>
<g><path style="opacity:1" fill="#453123" d="M 198.5,159.5 C 201.326,161.309 203.326,163.809 204.5,167C 204.164,168.03 203.497,168.53 202.5,168.5C 202.611,167.883 202.944,167.383 203.5,167C 201.585,164.6 199.919,162.1 198.5,159.5 Z"/></g>
<g><path style="opacity:1" fill="#030201" d="M 288.5,273.5 C 287.014,278.483 283.681,281.65 278.5,283C 266.459,283.369 254.459,284.202 242.5,285.5C 238.603,286.055 234.937,287.055 231.5,288.5C 220.68,291.579 210.68,296.245 201.5,302.5C 198.017,304.601 194.184,305.601 190,305.5C 186.065,306.209 183.065,304.876 181,301.5C 177.679,292.982 179.513,285.815 186.5,280C 175.03,281.187 170.53,276.02 173,264.5C 175.167,262.333 177.333,260.167 179.5,258C 208.132,245.041 237.799,242.041 268.5,249C 281.356,252.336 288.023,260.503 288.5,273.5 Z"/></g>
<g><path style="opacity:1" fill="#040201" d="M 409.5,305.5 C 405.818,305.665 402.152,305.499 398.5,305C 389.867,298.85 380.534,294.017 370.5,290.5C 364.857,288.942 359.19,287.275 353.5,285.5C 340.821,284.36 328.155,283.36 315.5,282.5C 314.833,281.167 313.833,280.167 312.5,279.5C 308.653,274.536 307.487,268.87 309,262.5C 312.214,257.618 316.381,253.785 321.5,251C 354.021,241.822 385.687,244.156 416.5,258C 423.138,262.017 425.304,267.85 423,275.5C 422.167,276.333 421.333,277.167 420.5,278C 417.341,278.859 414.341,280.025 411.5,281.5C 414.971,284.942 416.638,289.109 416.5,294C 417.073,299.7 414.74,303.533 409.5,305.5 Z"/></g>
<g><path style="opacity:1" fill="#4c361d" d="M 346.5,250.5 C 350.486,249.834 354.653,249.501 359,249.5C 366.058,249.381 372.891,250.047 379.5,251.5C 368.516,250.751 357.516,250.417 346.5,250.5 Z"/></g>
<g><path style="opacity:1" fill="#4d361e" d="M 225.5,250.5 C 221.036,251.644 216.37,252.31 211.5,252.5C 215.9,250.896 220.566,250.229 225.5,250.5 Z"/></g>
<g><path style="opacity:1" fill="#814f23" d="M 279.5,260.5 C 281.182,263.044 282.182,265.877 282.5,269C 282.592,271.814 281.592,274.147 279.5,276C 268.847,276.609 258.18,277.776 247.5,279.5C 229.056,282.487 212.056,289.321 196.5,300C 186.8,303.959 182.633,300.793 184,290.5C 186.984,285.353 190.818,281.02 195.5,277.5C 197.886,276.627 199.886,275.127 201.5,273C 198.363,272.995 195.363,273.495 192.5,274.5C 187.566,275.908 182.566,275.741 177.5,274C 175.378,268.9 176.711,264.9 181.5,262C 191.041,257.319 201.041,254.153 211.5,252.5C 216.37,252.31 221.036,251.644 225.5,250.5C 241.37,248.322 257.036,249.822 272.5,255C 275.595,255.935 277.929,257.769 279.5,260.5 Z"/></g>
<g><path style="opacity:1" fill="#825023" d="M 346.5,250.5 C 357.516,250.417 368.516,250.751 379.5,251.5C 393.168,253.056 405.835,257.389 417.5,264.5C 419.436,267.208 419.936,270.208 419,273.5C 418.25,274.126 417.416,274.626 416.5,275C 410.472,275.406 404.472,275.406 398.5,275C 403.806,279.431 408.306,284.597 412,290.5C 413.367,300.793 409.2,303.959 399.5,300C 391.891,294.698 383.891,290.198 375.5,286.5C 369.25,283.429 362.583,281.263 355.5,280C 343.233,278.237 330.9,277.237 318.5,277C 317.756,275.961 316.756,275.461 315.5,275.5C 314.094,275.027 313.427,274.027 313.5,272.5C 313.211,269.351 313.711,266.351 315,263.5C 318.161,259.491 321.994,256.491 326.5,254.5C 332.789,251.892 339.456,250.559 346.5,250.5 Z"/></g>
<g><path style="opacity:1" fill="#51391f" d="M 326.5,254.5 C 321.994,256.491 318.161,259.491 315,263.5C 313.711,266.351 313.211,269.351 313.5,272.5C 312.118,262.821 316.452,256.821 326.5,254.5 Z"/></g>
<g><path style="opacity:1" fill="#6c4b2a" d="M 279.5,260.5 C 282.552,262.44 283.885,265.273 283.5,269C 283.853,272.2 282.853,274.867 280.5,277C 269.599,278.463 258.599,279.296 247.5,279.5C 258.18,277.776 268.847,276.609 279.5,276C 281.592,274.147 282.592,271.814 282.5,269C 282.182,265.877 281.182,263.044 279.5,260.5 Z"/></g>
<g><path style="opacity:1" fill="#52391f" d="M 195.5,277.5 C 195.953,276.542 196.619,275.708 197.5,275C 195.866,274.506 194.199,274.34 192.5,274.5C 195.363,273.495 198.363,272.995 201.5,273C 199.886,275.127 197.886,276.627 195.5,277.5 Z"/></g>
<g><path style="opacity:1" fill="#a57340" d="M 288.5,273.5 C 289.684,276.861 291.517,279.861 294,282.5C 294.601,280.641 295.434,280.308 296.5,281.5C 295.518,284.962 295.185,288.629 295.5,292.5C 293.071,292.415 291.071,291.415 289.5,289.5C 288.833,291.167 288.167,292.833 287.5,294.5C 285.517,293.018 283.684,291.351 282,289.5C 281.808,291.577 281.308,293.577 280.5,295.5C 279.232,294.572 277.899,294.405 276.5,295C 276.833,295.333 277.167,295.667 277.5,296C 276,297.5 274.5,299 273,300.5C 269.667,308.5 266.333,316.5 263,324.5C 252.808,333.896 245.975,345.23 242.5,358.5C 242.736,355.774 241.903,353.441 240,351.5C 228.289,335.245 216.456,319.078 204.5,303C 203.552,302.517 202.552,302.351 201.5,302.5C 210.68,296.245 220.68,291.579 231.5,288.5C 228.152,291.471 225.318,295.471 223,300.5C 220.955,319.588 229.455,328.088 248.5,326C 259.658,321.189 264.158,312.689 262,300.5C 258.47,291.5 251.97,286.5 242.5,285.5C 254.459,284.202 266.459,283.369 278.5,283C 283.681,281.65 287.014,278.483 288.5,273.5 Z"/></g>
<g><path style="opacity:1" fill="#6f4d2b" d="M 315.5,275.5 C 316.756,275.461 317.756,275.961 318.5,277C 330.9,277.237 343.233,278.237 355.5,280C 362.583,281.263 369.25,283.429 375.5,286.5C 356.668,280.468 337.335,277.635 317.5,278C 316.619,277.292 315.953,276.458 315.5,275.5 Z"/></g>
<g><path style="opacity:1" fill="#834f22" d="M 312.5,279.5 C 313.833,280.167 314.833,281.167 315.5,282.5C 314.603,287.14 314.436,291.806 315,296.5C 317.437,292.494 319.27,292.661 320.5,297C 322.587,297.792 324.421,298.959 326,300.5C 329.865,307.565 333.198,314.898 336,322.5C 338.667,326.5 342,329.833 346,332.5C 351.925,341.18 355.759,350.68 357.5,361C 357.42,362.894 357.087,364.727 356.5,366.5C 359.938,368.435 362.938,370.935 365.5,374C 385.935,379.442 401.435,391.276 412,409.5C 420.178,424.166 426.345,439.5 430.5,455.5C 431.362,460.813 431.529,466.146 431,471.5C 430.612,472.428 429.945,473.095 429,473.5C 427.374,472.711 425.874,471.711 424.5,470.5C 424.167,471 423.833,471.5 423.5,472C 428.561,480.669 429.728,489.836 427,499.5C 425.394,505.764 423.56,511.93 421.5,518C 420.833,518.667 420.167,518.667 419.5,518C 417.667,515.5 415.833,513 414,510.5C 413.282,509.549 412.449,509.383 411.5,510C 418.605,519.982 418.105,529.482 410,538.5C 402.39,547.116 393.89,554.616 384.5,561C 382.888,561.72 381.388,561.554 380,560.5C 378.684,556.05 377.184,551.716 375.5,547.5C 374.776,566.387 365.109,577.221 346.5,580C 336.436,581.279 326.436,582.946 316.5,585C 309.928,586.618 304.261,589.784 299.5,594.5C 295.633,590.398 290.967,587.564 285.5,586C 274.589,583.536 263.589,581.536 252.5,580C 233.913,577.241 224.247,566.408 223.5,547.5C 221.922,551.312 220.756,555.312 220,559.5C 219.196,560.804 218.029,561.471 216.5,561.5C 203.265,553.767 192.432,543.434 184,530.5C 182.674,523.207 183.841,516.374 187.5,510C 186.833,509.333 186.167,509.333 185.5,510C 183.753,513.333 181.42,516.167 178.5,518.5C 173.912,508.892 171.245,498.726 170.5,488C 171.299,482.4 172.966,477.067 175.5,472C 175.333,471.5 175.167,471 175,470.5C 172.892,473.79 170.559,474.123 168,471.5C 167.986,465.746 167.819,460.08 167.5,454.5C 168.497,454.53 169.164,454.03 169.5,453C 172.071,443.62 175.238,434.453 179,425.5C 189.346,399.82 207.512,382.32 233.5,373C 235.809,370.513 238.476,368.513 241.5,367C 242.444,364.281 242.777,361.448 242.5,358.5C 245.975,345.23 252.808,333.896 263,324.5C 266.333,316.5 269.667,308.5 273,300.5C 274.5,299 276,297.5 277.5,296C 277.167,295.667 276.833,295.333 276.5,295C 277.899,294.405 279.232,294.572 280.5,295.5C 281.308,293.577 281.808,291.577 282,289.5C 283.684,291.351 285.517,293.018 287.5,294.5C 288.167,292.833 288.833,291.167 289.5,289.5C 291.071,291.415 293.071,292.415 295.5,292.5C 295.185,288.629 295.518,284.962 296.5,281.5C 299.163,287.147 301.829,292.814 304.5,298.5C 307.281,293.667 309.781,288.667 312,283.5C 312.49,282.207 312.657,280.873 312.5,279.5 Z"/></g>
<g><path style="opacity:1" fill="#312725" d="M 242.5,285.5 C 251.97,286.5 258.47,291.5 262,300.5C 264.158,312.689 259.658,321.189 248.5,326C 229.455,328.088 220.955,319.588 223,300.5C 225.318,295.471 228.152,291.471 231.5,288.5C 234.937,287.055 238.603,286.055 242.5,285.5 Z"/></g>
<g><path style="opacity:1" fill="#312825" d="M 353.5,285.5 C 359.19,287.275 364.857,288.942 370.5,290.5C 370.062,290.435 369.728,290.601 369.5,291C 377.074,298.662 378.574,307.495 374,317.5C 367.843,325.665 359.676,328.499 349.5,326C 338.103,320.036 334.27,310.869 338,298.5C 341.542,292.157 346.709,287.824 353.5,285.5 Z"/></g>
<g><path style="opacity:1" fill="#a87541" d="M 315.5,282.5 C 328.155,283.36 340.821,284.36 353.5,285.5C 346.709,287.824 341.542,292.157 338,298.5C 334.27,310.869 338.103,320.036 349.5,326C 359.676,328.499 367.843,325.665 374,317.5C 378.574,307.495 377.074,298.662 369.5,291C 369.728,290.601 370.062,290.435 370.5,290.5C 380.534,294.017 389.867,298.85 398.5,305C 402.152,305.499 405.818,305.665 409.5,305.5C 409.082,306.222 408.416,306.722 407.5,307C 421.333,326.167 435.167,345.333 449,364.5C 450.735,367.362 452.902,369.696 455.5,371.5C 455.387,374.686 454.22,377.353 452,379.5C 447.029,375.365 442.196,371.032 437.5,366.5C 437.167,367.5 436.833,368.5 436.5,369.5C 439.332,385.994 443.332,402.161 448.5,418C 445.548,432.067 439.548,444.567 430.5,455.5C 426.345,439.5 420.178,424.166 412,409.5C 401.435,391.276 385.935,379.442 365.5,374C 362.938,370.935 359.938,368.435 356.5,366.5C 357.087,364.727 357.42,362.894 357.5,361C 355.759,350.68 351.925,341.18 346,332.5C 342,329.833 338.667,326.5 336,322.5C 333.198,314.898 329.865,307.565 326,300.5C 324.421,298.959 322.587,297.792 320.5,297C 319.27,292.661 317.437,292.494 315,296.5C 314.436,291.806 314.603,287.14 315.5,282.5 Z"/></g>
<g><path style="opacity:1" fill="#ebeaea" d="M 243.5,294.5 C 250.327,293.825 253.16,296.825 252,303.5C 247.528,309.073 243.528,308.74 240,302.5C 239.333,301.167 239.333,299.833 240,298.5C 241.376,297.295 242.542,295.962 243.5,294.5 Z"/></g>
<g><path style="opacity:1" fill="#eaeaea" d="M 357.5,294.5 C 364.497,293.666 367.664,296.666 367,303.5C 363,308.833 359,308.833 355,303.5C 354.131,300.007 354.964,297.007 357.5,294.5 Z"/></g>
<g><path style="opacity:1" fill="#302825" d="M 287.5,402.5 C 302.242,401.263 316.576,403.096 330.5,408C 342.624,413.753 347.124,423.253 344,436.5C 340.362,445.807 334.195,452.974 325.5,458C 304.72,469.254 285.053,467.587 266.5,453C 254.361,442.932 251.528,430.765 258,416.5C 260.537,413.628 263.37,411.128 266.5,409C 273.295,405.785 280.295,403.619 287.5,402.5 Z"/></g>
<g><path style="opacity:1" fill="#f19c9f" d="M 293.5,499.5 C 308.558,499.735 323.558,500.735 338.5,502.5C 338.724,518.274 334.89,532.94 327,546.5C 316.335,561.946 302.502,565.779 285.5,558C 281,554.833 277.167,551 274,546.5C 266.726,532.739 263.226,518.072 263.5,502.5C 273.683,501.899 283.683,500.899 293.5,499.5 Z"/></g>
</svg>
