<?xml version="1.0" encoding="UTF-8"?>
<!DOCTYPE svg PUBLIC "-//W3C//DTD SVG 1.1//EN" "http://www.w3.org/Graphics/SVG/1.1/DTD/svg11.dtd">
<svg xmlns="http://www.w3.org/2000/svg" version="1.1" width="600px" height="600px" style="shape-rendering:geometricPrecision; text-rendering:geometricPrecision; image-rendering:optimizeQuality; fill-rule:evenodd; clip-rule:evenodd" xmlns:xlink="http://www.w3.org/1999/xlink">
<g><path style="opacity:0.973" fill="#040201" d="M 470.5,-0.5 C 476.167,-0.5 481.833,-0.5 487.5,-0.5C 492.271,3.46584 495.771,8.46584 498,14.5C 515.523,77.352 523.19,141.352 521,206.5C 518.762,217.973 514.095,228.307 507,237.5C 500.893,244.273 495.56,251.607 491,259.5C 490.333,264.167 490.333,268.833 491,273.5C 504.141,331.702 496.475,387.035 468,439.5C 450.081,469.669 432.414,500.003 415,530.5C 407.322,543.861 398.655,556.528 389,568.5C 384.19,582.804 375.024,593.137 361.5,599.5C 320.5,599.5 279.5,599.5 238.5,599.5C 225.706,593.536 216.873,583.87 212,570.5C 207.279,564.779 202.946,558.779 199,552.5C 181.987,524.467 164.987,496.467 148,468.5C 130.378,440.917 117.378,411.25 109,379.5C 100.423,344.484 100.423,309.484 109,274.5C 109.667,269.167 109.667,263.833 109,258.5C 102,248.833 95,239.167 88,229.5C 79.9736,214.539 76.4736,198.539 77.5,181.5C 79.2255,126.588 87.0588,72.5881 101,19.5C 109.773,0.766135 122.607,-2.73386 139.5,9C 173.736,48.281 202.903,91.1143 227,137.5C 230.972,144.902 237.139,148.236 245.5,147.5C 263.568,144.804 281.734,143.138 300,142.5C 318.434,143.141 336.767,144.808 355,147.5C 361.892,148.721 367.225,146.387 371,140.5C 396.695,93.1593 426.695,48.8259 461,7.5C 464.358,4.96876 467.524,2.30209 470.5,-0.5 Z"/></g>
<g><path style="opacity:1" fill="#c08c44" d="M 476.5,8.5 C 478.527,8.33788 480.527,8.50454 482.5,9C 485.293,12.0808 487.46,15.5808 489,19.5C 500.577,62.7782 507.91,106.778 511,151.5C 511.667,168.833 511.667,186.167 511,203.5C 509.798,209.773 507.798,215.773 505,221.5C 498.439,232.062 491.106,242.062 483,251.5C 479.662,258.034 478.829,264.868 480.5,272C 494.391,334.055 484.891,392.222 452,446.5C 454.747,421.608 455.081,396.608 453,371.5C 451.246,359.895 448.412,348.562 444.5,337.5C 451.56,330.328 454.893,321.662 454.5,311.5C 454.139,305.749 453.306,300.082 452,294.5C 444.865,277.695 433.698,264.195 418.5,254C 410.152,248.825 401.485,244.158 392.5,240C 382.433,230.602 373.1,220.602 364.5,210C 349.827,202.71 335.16,202.71 320.5,210C 314.385,215.719 309.885,222.553 307,230.5C 304.494,237.697 302.494,245.03 301,252.5C 298.594,240.616 294.594,229.283 289,218.5C 277.716,203.408 263.216,199.241 245.5,206C 242.382,207.059 239.382,208.392 236.5,210C 229.167,218.667 221.833,227.333 214.5,236C 203.496,243.171 192.162,249.838 180.5,256C 173,263.5 165.5,271 158,278.5C 153.841,285.816 150.508,293.483 148,301.5C 147.333,308.833 147.333,316.167 148,323.5C 149.958,329.257 152.791,334.424 156.5,339C 147.987,367.224 145.154,396.057 148,425.5C 149.156,434.53 150.156,443.53 151,452.5C 122.293,407.307 109.959,357.974 114,304.5C 114.913,295.355 116.58,286.355 119,277.5C 122.348,266.278 120.682,255.945 114,246.5C 104.084,236.341 96.4172,224.674 91,211.5C 90.0881,207.205 89.4215,202.872 89,198.5C 88.3831,145.907 93.7164,93.9073 105,42.5C 106.564,32.8055 109.897,23.8055 115,15.5C 120.49,11.5578 125.99,11.7244 131.5,16C 134.667,19.1667 137.833,22.3333 141,25.5C 170.87,63.0626 197.203,103.063 220,145.5C 225.549,154.276 233.549,158.609 244,158.5C 281.007,151.866 318.007,151.866 355,158.5C 364.36,158.985 372.027,155.652 378,148.5C 401.856,104.765 429.189,63.4317 460,24.5C 464.734,18.2642 470.234,12.9308 476.5,8.5 Z"/></g>
<g><path style="opacity:1" fill="#0c0804" d="M 121.5,29.5 C 127.424,28.9655 132.757,30.4655 137.5,34C 163.8,63.622 184.3,96.7887 199,133.5C 209.334,166.821 202.667,196.155 179,221.5C 173.167,227.333 167.333,233.167 161.5,239C 144.494,249.515 129.661,247.015 117,231.5C 100.576,214.968 92.7429,194.968 93.5,171.5C 95.6943,129.585 100.194,87.9182 107,46.5C 109.234,38.4452 114.068,32.7785 121.5,29.5 Z"/></g>
<g><path style="opacity:1" fill="#0b0703" d="M 472.5,29.5 C 478.238,29.47 483.071,31.47 487,35.5C 488.08,37.9962 489.414,40.3295 491,42.5C 499.624,88.7826 504.291,135.449 505,182.5C 504.691,189.377 503.358,196.043 501,202.5C 492.877,217.6 482.71,231.1 470.5,243C 458.646,248.559 447.646,247.226 437.5,239C 423.727,226.572 412.227,212.405 403,196.5C 395.15,178.756 393.483,160.422 398,141.5C 410.95,104.93 429.617,71.5966 454,41.5C 459.143,35.4509 465.31,31.4509 472.5,29.5 Z"/></g>
<g><path style="opacity:1" fill="#ddcab8" d="M 130.5,41.5 C 132.833,44.5 135.5,47.1667 138.5,49.5C 156.168,72.8079 171.334,97.8079 184,124.5C 191.639,140.041 194.639,156.374 193,173.5C 188.981,188.873 181.815,202.54 171.5,214.5C 168.427,216.569 166.094,219.236 164.5,222.5C 161.012,225.088 157.679,227.922 154.5,231C 149.062,235.443 143.062,236.443 136.5,234C 131.378,230.71 126.711,226.877 122.5,222.5C 121.581,219.911 119.914,217.911 117.5,216.5C 111.452,208.065 107.285,198.732 105,188.5C 103.976,142.072 107.976,96.0724 117,50.5C 117.82,45.366 120.487,41.6993 125,39.5C 126.8,40.3195 128.634,40.9862 130.5,41.5 Z"/></g>
<g><path style="opacity:1" fill="#ddcab8" d="M 444.5,231.5 C 439.5,225.833 434.167,220.5 428.5,215.5C 419.709,204.921 412.709,193.254 407.5,180.5C 407.451,176.922 406.785,173.589 405.5,170.5C 405.203,153.687 408.703,137.687 416,122.5C 425.417,103.991 435.584,85.991 446.5,68.5C 448.9,66.7036 450.567,64.3702 451.5,61.5C 456.929,54.8971 462.595,48.3971 468.5,42C 474.443,38.2121 478.609,39.7121 481,46.5C 490.722,93.6665 495.389,141.333 495,189.5C 493.54,193.536 491.873,197.536 490,201.5C 482.937,212.565 475.103,223.065 466.5,233C 464.067,235.133 461.233,236.3 458,236.5C 453.096,235.793 448.596,234.126 444.5,231.5 Z"/></g>
<g><path style="opacity:1" fill="#4c381e" d="M 130.5,41.5 C 134.167,43.1667 136.833,45.8333 138.5,49.5C 135.5,47.1667 132.833,44.5 130.5,41.5 Z"/></g>
<g><path style="opacity:1" fill="#594428" d="M 451.5,61.5 C 450.567,64.3702 448.9,66.7036 446.5,68.5C 447.433,65.6298 449.1,63.2964 451.5,61.5 Z"/></g>
<g><path style="opacity:1" fill="#5c472b" d="M 405.5,170.5 C 406.785,173.589 407.451,176.922 407.5,180.5C 405.989,177.456 405.322,174.122 405.5,170.5 Z"/></g>
<g><path style="opacity:1" fill="#685135" d="M 257.5,214.5 C 260.64,213.359 263.973,213.192 267.5,214C 268.056,214.383 268.389,214.883 268.5,215.5C 264.881,214.756 261.215,214.423 257.5,214.5 Z"/></g>
<g><path style="opacity:1" fill="#543f24" d="M 338.5,214.5 C 339.793,213.842 341.293,213.508 343,213.5C 345.821,213.408 348.321,214.074 350.5,215.5C 346.534,214.838 342.534,214.505 338.5,214.5 Z"/></g>
<g><path style="opacity:1" fill="#f5f5f5" d="M 257.5,214.5 C 261.215,214.423 264.881,214.756 268.5,215.5C 268.842,216.338 269.508,216.672 270.5,216.5C 273.167,219.833 276.167,222.833 279.5,225.5C 280.659,229.151 282.326,232.485 284.5,235.5C 290.133,250.288 293.299,265.622 294,281.5C 294.878,285.052 296.044,288.386 297.5,291.5C 299.833,296.833 302.167,296.833 304.5,291.5C 305.93,288.039 307.096,284.372 308,280.5C 308.445,261.388 312.945,243.388 321.5,226.5C 323.543,225.421 324.876,223.754 325.5,221.5C 329.382,218.391 333.716,216.058 338.5,214.5C 342.534,214.505 346.534,214.838 350.5,215.5C 353.81,217.801 357.143,220.134 360.5,222.5C 363.152,226.482 366.152,230.149 369.5,233.5C 369.833,234.167 370.167,234.833 370.5,235.5C 373.895,239.898 377.895,243.564 382.5,246.5C 384.629,248.95 387.296,250.617 390.5,251.5C 392.336,253.588 394.669,254.921 397.5,255.5C 399.663,257.083 401.996,258.416 404.5,259.5C 406.822,261.664 409.489,263.331 412.5,264.5C 413.262,266.262 414.596,267.262 416.5,267.5C 419.167,270.833 422.167,273.833 425.5,276.5C 429.874,280.872 433.874,285.539 437.5,290.5C 438.992,294.818 440.992,298.818 443.5,302.5C 446.727,316.38 442.061,326.713 429.5,333.5C 437.103,346.813 441.603,361.146 443,376.5C 444.951,396.855 444.784,417.188 442.5,437.5C 441.043,442.598 440.376,447.931 440.5,453.5C 438.42,458.855 437.42,464.522 437.5,470.5C 423.093,494.308 408.926,518.308 395,542.5C 386.403,553.357 379.07,565.024 373,577.5C 361.945,589.63 348.445,594.13 332.5,591C 335.78,590.944 338.78,590.111 341.5,588.5C 340.352,586.851 339.019,585.351 337.5,584C 328.983,579.076 319.983,575.243 310.5,572.5C 304.169,565.66 303.836,558.493 309.5,551C 324.039,546.655 335.873,538.489 345,526.5C 354.897,503.834 348.064,489.001 324.5,482C 307.819,478.71 291.153,478.71 274.5,482C 251.513,489.482 245.013,504.315 255,526.5C 264.347,538.765 276.514,546.931 291.5,551C 296.677,558.048 296.677,565.048 291.5,572C 281.458,575.521 271.791,579.855 262.5,585C 260.671,586.113 259.837,587.613 260,589.5C 261.945,590.863 264.112,591.697 266.5,592C 244.128,594.41 228.961,585.243 221,564.5C 216.279,558.779 211.946,552.779 208,546.5C 195.333,525.833 182.667,505.167 170,484.5C 166.986,475.628 164.486,466.628 162.5,457.5C 162.461,453.267 161.795,449.267 160.5,445.5C 160.495,441.466 160.162,437.466 159.5,433.5C 159.159,425.325 158.492,417.325 157.5,409.5C 157.307,399.806 157.64,390.139 158.5,380.5C 159.824,365.535 163.491,351.202 169.5,337.5C 171.099,336.201 171.599,334.535 171,332.5C 168.6,330.585 166.1,328.919 163.5,327.5C 162.551,325.223 161.218,323.223 159.5,321.5C 157.57,316.348 157.07,311.014 158,305.5C 159.235,301.369 160.735,297.369 162.5,293.5C 165.58,289.025 168.913,284.692 172.5,280.5C 176.527,275.806 180.86,271.473 185.5,267.5C 189.192,265.656 192.525,263.323 195.5,260.5C 197.674,260.25 199.341,259.25 200.5,257.5C 203.331,256.921 205.664,255.588 207.5,253.5C 208.492,253.672 209.158,253.338 209.5,252.5C 215.885,250.312 221.218,246.645 225.5,241.5C 228.243,239.761 230.243,237.427 231.5,234.5C 236.833,227.167 243.167,220.833 250.5,215.5C 252.806,215.007 255.139,214.674 257.5,214.5 Z"/></g>
<g><path style="opacity:1" fill="#574126" d="M 428.5,215.5 C 434.167,220.5 439.5,225.833 444.5,231.5C 438.167,227.167 432.833,221.833 428.5,215.5 Z"/></g>
<g><path style="opacity:1" fill="#574227" d="M 117.5,216.5 C 119.914,217.911 121.581,219.911 122.5,222.5C 120.086,221.089 118.419,219.089 117.5,216.5 Z"/></g>
<g><path style="opacity:1" fill="#654f35" d="M 270.5,216.5 C 274.5,218.5 277.5,221.5 279.5,225.5C 276.167,222.833 273.167,219.833 270.5,216.5 Z"/></g>
<g><path style="opacity:1" fill="#4f3c21" d="M 171.5,214.5 C 169.906,217.764 167.573,220.431 164.5,222.5C 166.094,219.236 168.427,216.569 171.5,214.5 Z"/></g>
<g><path style="opacity:1" fill="#634d34" d="M 325.5,221.5 C 324.876,223.754 323.543,225.421 321.5,226.5C 322.136,224.205 323.469,222.539 325.5,221.5 Z"/></g>
<g><path style="opacity:1" fill="#503d24" d="M 360.5,222.5 C 363.095,223.426 365.095,225.093 366.5,227.5C 367.549,229.528 368.549,231.528 369.5,233.5C 366.152,230.149 363.152,226.482 360.5,222.5 Z"/></g>
<g><path style="opacity:1" fill="#5f4a30" d="M 279.5,225.5 C 282.659,227.91 284.325,231.243 284.5,235.5C 282.326,232.485 280.659,229.151 279.5,225.5 Z"/></g>
<g><path style="opacity:1" fill="#564228" d="M 250.5,215.5 C 243.167,220.833 236.833,227.167 231.5,234.5C 233.972,228.134 237.972,222.8 243.5,218.5C 245.656,216.991 247.99,215.991 250.5,215.5 Z"/></g>
<g><path style="opacity:1" fill="#594225" d="M 370.5,235.5 C 375.105,238.436 379.105,242.102 382.5,246.5C 377.895,243.564 373.895,239.898 370.5,235.5 Z"/></g>
<g><path style="opacity:1" fill="#584329" d="M 225.5,241.5 C 221.218,246.645 215.885,250.312 209.5,252.5C 214.3,248.03 219.633,244.363 225.5,241.5 Z"/></g>
<g><path style="opacity:1" fill="#634d30" d="M 390.5,251.5 C 391.552,251.351 392.552,251.517 393.5,252C 395.319,252.74 396.652,253.907 397.5,255.5C 394.669,254.921 392.336,253.588 390.5,251.5 Z"/></g>
<g><path style="opacity:1" fill="#5c472c" d="M 207.5,253.5 C 205.664,255.588 203.331,256.921 200.5,257.5C 202.336,255.412 204.669,254.079 207.5,253.5 Z"/></g>
<g><path style="opacity:1" fill="#544025" d="M 404.5,259.5 C 407.902,260.069 410.569,261.736 412.5,264.5C 409.489,263.331 406.822,261.664 404.5,259.5 Z"/></g>
<g><path style="opacity:1" fill="#523f25" d="M 195.5,260.5 C 192.525,263.323 189.192,265.656 185.5,267.5C 187.983,264.094 191.316,261.76 195.5,260.5 Z"/></g>
<g><path style="opacity:1" fill="#68533a" d="M 416.5,267.5 C 420.456,269.456 423.456,272.456 425.5,276.5C 422.167,273.833 419.167,270.833 416.5,267.5 Z"/></g>
<g><path style="opacity:1" fill="#533f27" d="M 172.5,280.5 C 168.913,284.692 165.58,289.025 162.5,293.5C 163.715,287.481 167.048,283.148 172.5,280.5 Z"/></g>
<g><path style="opacity:1" fill="#5f482a" d="M 297.5,291.5 C 299.833,294.167 302.167,294.167 304.5,291.5C 302.167,296.833 299.833,296.833 297.5,291.5 Z"/></g>
<g><path style="opacity:1" fill="#584329" d="M 437.5,290.5 C 440.54,293.914 442.54,297.914 443.5,302.5C 440.992,298.818 438.992,294.818 437.5,290.5 Z"/></g>
<g><path style="opacity:1" fill="#dac7b7" d="M 222.5,313.5 C 244.216,311.727 256.55,321.561 259.5,343C 256.375,364.398 244.042,374.064 222.5,372C 203.318,364.802 196.485,351.302 202,331.5C 206.264,322.392 213.097,316.392 222.5,313.5 Z"/></g>
<g><path style="opacity:1" fill="#dac7b7" d="M 362.5,313.5 C 380.712,311.684 392.878,319.351 399,336.5C 400.986,354.364 393.486,366.197 376.5,372C 350.353,373.184 338.519,360.684 341,334.5C 344.785,323.88 351.952,316.88 362.5,313.5 Z"/></g>
<g><path style="opacity:1" fill="#030403" d="M 223.5,322.5 C 238.803,320.816 247.803,327.483 250.5,342.5C 248.43,357.739 239.764,364.573 224.5,363C 210.562,357.53 206.062,347.697 211,333.5C 214.124,328.536 218.291,324.87 223.5,322.5 Z"/></g>
<g><path style="opacity:1" fill="#030404" d="M 364.5,322.5 C 376.7,321.184 385.2,326.184 390,337.5C 391.854,350.296 386.687,358.796 374.5,363C 354.156,363.311 346.323,353.477 351,333.5C 354.213,328.107 358.713,324.441 364.5,322.5 Z"/></g>
<g><path style="opacity:1" fill="#554128" d="M 159.5,321.5 C 161.218,323.223 162.551,325.223 163.5,327.5C 160.675,326.522 159.342,324.522 159.5,321.5 Z"/></g>
<g><path style="opacity:1" fill="#eaeaea" d="M 233.5,332.5 C 241.618,332.382 243.618,335.882 239.5,343C 233.166,344.329 230.332,341.829 231,335.5C 231.698,334.309 232.531,333.309 233.5,332.5 Z"/></g>
<g><path style="opacity:1" fill="#eaeaea" d="M 373.5,332.5 C 380.163,331.333 382.997,333.999 382,340.5C 378.952,344.01 375.619,344.343 372,341.5C 371.068,338.177 371.568,335.177 373.5,332.5 Z"/></g>
<g><path style="opacity:1" fill="#5d4629" d="M 163.5,327.5 C 166.1,328.919 168.6,330.585 171,332.5C 171.599,334.535 171.099,336.201 169.5,337.5C 169.66,335.801 169.494,334.134 169,332.5C 166.354,331.635 164.52,329.968 163.5,327.5 Z"/></g>
<g><path style="opacity:1" fill="#2f2211" d="M 158.5,380.5 C 157.64,390.139 157.307,399.806 157.5,409.5C 157.5,412.833 157.5,416.167 157.5,419.5C 156.34,407.674 156.174,395.674 157,383.5C 157.232,382.263 157.732,381.263 158.5,380.5 Z"/></g>
<g><path style="opacity:1" fill="#8b745c" d="M 157.5,409.5 C 158.492,417.325 159.159,425.325 159.5,433.5C 158.199,429.057 157.532,424.391 157.5,419.5C 157.5,416.167 157.5,412.833 157.5,409.5 Z"/></g>
<g><path style="opacity:1" fill="#5b4a34" d="M 442.5,437.5 C 442.927,443.114 442.26,448.447 440.5,453.5C 440.376,447.931 441.043,442.598 442.5,437.5 Z"/></g>
<g><path style="opacity:1" fill="#3e3020" d="M 160.5,445.5 C 161.795,449.267 162.461,453.267 162.5,457.5C 161.778,457.082 161.278,456.416 161,455.5C 160.502,452.183 160.335,448.85 160.5,445.5 Z"/></g>
<g><path style="opacity:1" fill="#4a3b28" d="M 440.5,453.5 C 439.941,459.369 438.941,465.036 437.5,470.5C 437.42,464.522 438.42,458.855 440.5,453.5 Z"/></g>
</svg>
