<?xml version="1.0" encoding="UTF-8"?>
<!DOCTYPE svg PUBLIC "-//W3C//DTD SVG 1.1//EN" "http://www.w3.org/Graphics/SVG/1.1/DTD/svg11.dtd">
<svg xmlns="http://www.w3.org/2000/svg" version="1.1" width="600px" height="600px" style="shape-rendering:geometricPrecision; text-rendering:geometricPrecision; image-rendering:optimizeQuality; fill-rule:evenodd; clip-rule:evenodd" xmlns:xlink="http://www.w3.org/1999/xlink">
<g><path style="opacity:0.949" fill="#000000" d="M 113.5,-0.5 C 120.167,-0.5 126.833,-0.5 133.5,-0.5C 144.762,5.90538 155.096,13.7387 164.5,23C 186.58,44.4006 206.414,67.5673 224,92.5C 226.869,95.2679 230.202,97.2679 234,98.5C 278.047,82.7076 322.214,82.541 366.5,98C 375.72,99.7045 383.22,96.8712 389,89.5C 407.97,64.1864 428.803,40.353 451.5,18C 459.189,10.8366 467.522,4.66994 476.5,-0.5C 483.5,-0.5 490.5,-0.5 497.5,-0.5C 506.067,4.5767 511.901,11.91 515,21.5C 522.659,53.728 525.325,86.3947 523,119.5C 520.584,156.586 508.751,190.253 487.5,220.5C 495,232.167 502.5,243.833 510,255.5C 514.113,262.34 516.947,269.673 518.5,277.5C 517.928,281.974 516.262,285.974 513.5,289.5C 521.547,313.689 527.714,338.355 532,363.5C 533.336,372.168 532.336,380.502 529,388.5C 525.18,392.836 520.346,394.836 514.5,394.5C 505.1,455.501 476.1,504.667 427.5,542C 424.387,543.779 421.054,544.945 417.5,545.5C 412.341,544.402 407.675,542.569 403.5,540C 378.321,566.081 348.987,585.915 315.5,599.5C 304.833,599.5 294.167,599.5 283.5,599.5C 249.566,586.032 220.233,565.866 195.5,539C 191.444,541.429 186.944,543.263 182,544.5C 179.044,544.053 176.211,543.22 173.5,542C 124.353,504.582 95.0192,455.082 85.5,393.5C 71.8526,393.257 65.8526,386.257 67.5,372.5C 71.0704,344.384 77.4038,316.884 86.5,290C 83.2664,286.487 81.2664,282.321 80.5,277.5C 81.8155,271.2 83.9822,265.2 87,259.5C 96.6686,243.492 106.835,227.826 117.5,212.5C 91.7399,168.202 81.9065,120.535 88,69.5C 88.5862,52.06 91.5862,35.06 97,18.5C 100.209,10.0203 105.709,3.68701 113.5,-0.5 Z"/></g>
<g><path style="opacity:1" fill="#5a443a" d="M 118.5,8.5 C 121.85,8.33499 125.183,8.50166 128.5,9C 134.677,11.9193 140.344,15.5859 145.5,20C 171.241,43.0648 194.075,68.5648 214,96.5C 218.865,103.181 225.365,107.181 233.5,108.5C 276.137,94.0003 318.803,93.8336 361.5,108C 375.182,111.211 386.682,107.711 396,97.5C 414.692,71.3663 435.859,47.1996 459.5,25C 465.5,20.3333 471.5,15.6667 477.5,11C 486.966,6.35215 494.799,8.18548 501,16.5C 506.814,27.7506 510.148,39.7506 511,52.5C 515.415,86.7584 514.081,120.758 507,154.5C 500.634,178.803 489.801,200.803 474.5,220.5C 486.753,237.263 497.587,254.929 507,273.5C 508.564,278.695 506.731,281.528 501.5,282C 500.978,282.561 500.645,283.228 500.5,284C 509.291,309.999 516.125,336.499 521,363.5C 521.667,369.167 521.667,374.833 521,380.5C 520.521,382.646 519.188,383.646 517,383.5C 513.969,382.961 510.969,382.294 508,381.5C 507.228,381.645 506.561,381.978 506,382.5C 499.191,437.693 475.691,484.193 435.5,522C 429.889,526.786 423.889,530.953 417.5,534.5C 413.116,532.952 409.782,530.119 407.5,526C 406.241,525.018 404.908,524.685 403.5,525C 377.078,554.374 345.412,576.041 308.5,590C 301.393,592.123 294.393,591.79 287.5,589C 251.921,575.081 221.587,553.748 196.5,525C 195.167,524.333 193.833,524.333 192.5,525C 189.487,528.866 185.82,531.7 181.5,533.5C 180.5,533.333 179.5,533.167 178.5,533C 136.161,500.532 109.328,458.032 98,405.5C 96.5847,397.842 95.2513,390.175 94,382.5C 89.2317,381.776 84.3984,381.61 79.5,382C 78.8742,381.25 78.3742,380.416 78,379.5C 77.5494,367.65 78.8827,355.984 82,344.5C 86.6703,323.984 92.5036,303.817 99.5,284C 97.6095,282.096 95.2762,280.93 92.5,280.5C 91.359,278.579 91.1923,276.579 92,274.5C 94.7905,267.586 98.1238,260.919 102,254.5C 111.399,240.611 120.566,226.611 129.5,212.5C 103.179,170.625 92.6788,124.959 98,75.5C 98.6012,62.7557 99.9345,50.0891 102,37.5C 103.34,30.4788 105.674,23.8122 109,17.5C 111.406,13.5915 114.572,10.5915 118.5,8.5 Z"/></g>
<g><path style="opacity:1" fill="#060403" d="M 124.5,28.5 C 128.182,28.3347 131.848,28.5014 135.5,29C 159.376,52.8614 180.209,79.0281 198,107.5C 202.267,116.447 203.267,125.78 201,135.5C 194.25,146.669 187.25,157.669 180,168.5C 174.833,175 169,180.833 162.5,186C 157.833,186.667 153.167,186.667 148.5,186C 125.277,162.369 113.444,133.869 113,100.5C 112.333,86.1667 112.333,71.8333 113,57.5C 113.628,51.1038 114.628,44.7704 116,38.5C 117.978,34.3619 120.811,31.0286 124.5,28.5 Z"/></g>
<g><path style="opacity:1" fill="#050302" d="M 475.5,28.5 C 486.693,27.5253 493.527,32.5253 496,43.5C 499.543,70.5484 499.209,97.5484 495,124.5C 490.562,148.216 479.728,168.383 462.5,185C 455.17,187.763 448.503,186.763 442.5,182C 428.433,166.695 417.267,149.528 409,130.5C 408.07,123.996 408.736,117.662 411,111.5C 428.955,81.0488 450.455,53.3822 475.5,28.5 Z"/></g>
<g><path style="opacity:1" fill="#c28d44" d="M 124.5,114.5 C 124.048,109.002 123.381,103.669 122.5,98.5C 122.333,84.8293 122.5,71.1626 123,57.5C 123.524,52.4057 124.524,47.4057 126,42.5C 126.637,40.6969 127.803,39.3636 129.5,38.5C 133.106,40.6028 136.273,43.2694 139,46.5C 155.303,65.7794 170.636,85.7794 185,106.5C 188.475,112.282 190.975,118.449 192.5,125C 191.733,128.634 190.566,132.134 189,135.5C 180.675,149.82 170.842,162.987 159.5,175C 156.165,177.291 153.332,176.791 151,173.5C 136.203,156.569 127.37,136.902 124.5,114.5 Z"/></g>
<g><path style="opacity:1" fill="#c28c44" d="M 480.5,38.5 C 483.542,40.224 485.375,42.8907 486,46.5C 489.525,71.8796 489.192,97.2129 485,122.5C 480.966,143.071 471.799,160.904 457.5,176C 452.303,176.15 448.136,173.983 445,169.5C 435.672,157.518 427.339,144.852 420,131.5C 418.632,128.262 418.299,124.928 419,121.5C 423.036,111.093 428.369,101.427 435,92.5C 444.333,80.5 453.667,68.5 463,56.5C 468.365,49.9695 474.198,43.9695 480.5,38.5 Z"/></g>
<g><path style="opacity:1" fill="#38291e" d="M 122.5,98.5 C 123.381,103.669 124.048,109.002 124.5,114.5C 123.732,113.737 123.232,112.737 123,111.5C 122.501,107.179 122.334,102.846 122.5,98.5 Z"/></g>
<g><path style="opacity:1" fill="#c18c44" d="M 236.5,193.5 C 249.362,193.529 258.862,199.195 265,210.5C 265.667,212.833 265.667,215.167 265,217.5C 254.3,218.212 243.8,216.712 233.5,213C 232.299,212.097 231.465,210.931 231,209.5C 228.904,202.569 230.737,197.236 236.5,193.5 Z"/></g>
<g><path style="opacity:1" fill="#c18c44" d="M 355.5,193.5 C 368.389,192.553 372.889,198.22 369,210.5C 368.167,211.333 367.333,212.167 366.5,213C 356.789,216.597 346.789,218.264 336.5,218C 335.226,209.214 338.559,202.547 346.5,198C 349.592,196.454 352.592,194.954 355.5,193.5 Z"/></g>
<g><path style="opacity:1" fill="#bf8a44" d="M 234.5,221.5 C 256.334,219.842 267.501,229.842 268,251.5C 264.021,267.488 253.854,274.988 237.5,274C 218.241,268.317 211.408,255.817 217,236.5C 220.889,229.103 226.722,224.103 234.5,221.5 Z"/></g>
<g><path style="opacity:1" fill="#be8a44" d="M 350.5,221.5 C 367.053,219.353 378.22,226.02 384,241.5C 385.361,263.806 374.861,274.639 352.5,274C 334.877,267.927 328.377,255.76 333,237.5C 337.126,230.203 342.96,224.87 350.5,221.5 Z"/></g>
<g><path style="opacity:1" fill="#38302c" d="M 238.5,228.5 C 257.679,230.53 263.846,240.53 257,258.5C 246.593,269.106 236.26,269.106 226,258.5C 219.459,243.925 223.626,233.925 238.5,228.5 Z"/></g>
<g><path style="opacity:1" fill="#382f2c" d="M 350.5,229.5 C 365.573,226.677 374.24,232.677 376.5,247.5C 374.455,263.029 365.789,268.863 350.5,265C 341.188,259.869 337.688,252.036 340,241.5C 342.36,236.409 345.86,232.409 350.5,229.5 Z"/></g>
<g><path style="opacity:1" fill="#eaeae9" d="M 234.5,236.5 C 241.486,236.331 243.153,239.164 239.5,245C 232.416,245.475 230.749,242.642 234.5,236.5 Z"/></g>
<g><path style="opacity:1" fill="#ebebeb" d="M 350.5,236.5 C 357.486,236.331 359.153,239.164 355.5,245C 348.416,245.475 346.749,242.642 350.5,236.5 Z"/></g>
<g><path style="opacity:1" fill="#331014" d="M 292.5,294.5 C 300.267,294.429 307.934,295.263 315.5,297C 326.628,301.42 330.795,309.586 328,321.5C 321.924,337.132 310.424,343.965 293.5,342C 273.513,335.858 267.013,323.025 274,303.5C 279.276,298.444 285.442,295.444 292.5,294.5 Z"/></g>
<g><path style="opacity:1" fill="#030202" d="M 259.5,361.5 C 261.625,371.67 265.125,381.337 270,390.5C 277.731,399.97 287.731,403.97 300,402.5C 316.623,403.864 327.956,396.864 334,381.5C 336.149,374.903 337.982,368.236 339.5,361.5C 350.799,362.572 359.299,358.239 365,348.5C 370.237,339.286 374.404,329.619 377.5,319.5C 378.651,318.269 379.817,318.269 381,319.5C 379.449,335.817 374.116,350.817 365,364.5C 358.667,372.833 352.333,381.167 346,389.5C 331.237,407.202 312.404,414.035 289.5,410C 274.759,408.213 262.926,401.379 254,389.5C 243.431,376.701 234.097,363.034 226,348.5C 221.947,338.849 219.447,328.849 218.5,318.5C 219.822,318.33 220.989,318.663 222,319.5C 225.637,331.772 231.137,343.106 238.5,353.5C 244.109,359.804 251.109,362.471 259.5,361.5 Z"/></g>
<g><path style="opacity:1" fill="#e098b1" d="M 339.5,361.5 C 337.982,368.236 336.149,374.903 334,381.5C 327.956,396.864 316.623,403.864 300,402.5C 287.731,403.97 277.731,399.97 270,390.5C 265.125,381.337 261.625,371.67 259.5,361.5C 272.732,359.405 286.065,357.071 299.5,354.5C 312.935,357.071 326.268,359.405 339.5,361.5 Z"/></g>
</svg>
