<?xml version="1.0" encoding="UTF-8"?>
<!DOCTYPE svg PUBLIC "-//W3C//DTD SVG 1.1//EN" "http://www.w3.org/Graphics/SVG/1.1/DTD/svg11.dtd">
<svg xmlns="http://www.w3.org/2000/svg" version="1.1" width="600px" height="600px" style="shape-rendering:geometricPrecision; text-rendering:geometricPrecision; image-rendering:optimizeQuality; fill-rule:evenodd; clip-rule:evenodd" xmlns:xlink="http://www.w3.org/1999/xlink">
<g><path style="opacity:0.95" fill="#020101" d="M 144.5,-0.5 C 154.167,-0.5 163.833,-0.5 173.5,-0.5C 194.406,18.9029 212.573,40.5696 228,64.5C 228.725,65.0585 229.558,65.3918 230.5,65.5C 265.897,55.0431 301.897,52.2097 338.5,57C 348.589,59.5223 358.589,62.3556 368.5,65.5C 374.707,58.7801 380.207,51.4468 385,43.5C 397.362,27.7692 410.862,13.1025 425.5,-0.5C 435.167,-0.5 444.833,-0.5 454.5,-0.5C 462.188,8.7043 466.688,19.371 468,31.5C 472.931,65.0038 476.264,98.6705 478,132.5C 479.503,148.512 483.503,163.846 490,178.5C 501.248,194.661 512.248,210.994 523,227.5C 528.81,236.453 532.976,246.12 535.5,256.5C 535.084,261.841 532.75,266.008 528.5,269C 538.548,295.357 545.715,322.523 550,350.5C 550.667,356.5 550.667,362.5 550,368.5C 549.349,372.637 547.515,376.137 544.5,379C 540.331,380.959 535.997,382.459 531.5,383.5C 521.781,449.108 490.781,502.275 438.5,543C 435.149,544.928 431.649,546.428 428,547.5C 422.346,545.587 417.18,543.087 412.5,540C 387.907,564.777 359.907,584.611 328.5,599.5C 309.5,599.5 290.5,599.5 271.5,599.5C 239.751,584.278 211.417,564.111 186.5,539C 181.896,541.624 176.896,543.791 171.5,545.5C 168.839,544.668 166.172,543.834 163.5,543C 120.659,510.856 91.4919,469.023 76,417.5C 72.8595,405.938 70.1928,394.271 68,382.5C 57.5125,382.672 51.1792,377.672 49,367.5C 48.5863,356.722 49.5863,346.055 52,335.5C 56.7417,313.533 62.575,291.866 69.5,270.5C 67.0702,267.551 65.2369,264.218 64,260.5C 63.7327,252.292 65.7327,244.625 70,237.5C 81.8802,217.626 94.5468,198.293 108,179.5C 115.12,163.238 119.454,146.238 121,128.5C 122.567,97.0264 125.567,65.6931 130,34.5C 131.256,21.2014 136.09,9.53469 144.5,-0.5 Z"/></g>
<g><path style="opacity:1" fill="#cb9864" d="M 261.5,69.5 C 262.5,69.5 263.5,69.5 264.5,69.5C 286.481,124.94 291.315,181.94 279,240.5C 262.876,249.966 251.876,263.633 246,281.5C 243.88,284.43 241.047,286.263 237.5,287C 230.964,287.29 224.631,287.456 218.5,287.5C 217.833,287.5 217.5,287.167 217.5,286.5C 208.365,284.591 199.198,282.257 190,279.5C 175.255,289.578 163.255,302.244 154,317.5C 144.865,332.105 138.198,347.772 134,364.5C 105.873,350.208 85.04,328.874 71.5,300.5C 74.4559,288.131 78.1226,275.964 82.5,264C 82.3552,263.228 82.0219,262.561 81.5,262C 74.3241,261.504 72.1574,258.004 75,251.5C 78.4117,244.342 82.0784,237.342 86,230.5C 98.1648,212.841 109.832,194.841 121,176.5C 126.178,159.441 130.011,142.108 132.5,124.5C 135.237,107.429 136.737,90.0959 137,72.5C 139.014,58.597 140.514,44.597 141.5,30.5C 142.312,20.3713 146.646,12.2047 154.5,6C 160.204,4.68504 165.204,6.01838 169.5,10C 189.978,30.3374 208.311,52.3374 224.5,76C 225.729,76.7811 227.062,77.2811 228.5,77.5C 239.018,72.8033 250.018,70.1366 261.5,69.5 Z"/></g>
<g><path style="opacity:1" fill="#cb9864" d="M 457.5,32.5 C 459.332,54.8204 461.165,77.1538 463,99.5C 463.889,107.682 465.056,115.682 466.5,123.5C 467.969,142.011 471.802,160.011 478,177.5C 488.836,195.175 500.169,212.508 512,229.5C 516.068,235.913 519.735,242.579 523,249.5C 524.368,252.738 524.701,256.072 524,259.5C 522.174,261.074 520.007,261.907 517.5,262C 516.941,262.725 516.608,263.558 516.5,264.5C 520.916,277.412 524.916,290.412 528.5,303.5C 519.018,320.171 507.018,335.005 492.5,348C 484.527,353.961 476.027,359.128 467,363.5C 458.495,331.983 441.995,305.483 417.5,284C 414.844,282.09 412.011,280.59 409,279.5C 398.128,282.306 387.295,284.639 376.5,286.5C 375.833,286.833 375.167,287.167 374.5,287.5C 369.661,286.566 364.661,285.732 359.5,285C 356.898,284.117 354.731,282.617 353,280.5C 347.415,264.259 337.415,251.592 323,242.5C 309.825,182.92 314.659,124.92 337.5,68.5C 338.167,68.5 338.833,68.5 339.5,68.5C 350.104,70.4782 360.438,73.4782 370.5,77.5C 371.938,77.2811 373.271,76.7811 374.5,76C 390.157,53.3831 407.49,32.0498 426.5,12C 440.021,1.06499 449.521,3.89833 455,20.5C 456.156,24.4398 456.99,28.4398 457.5,32.5 Z"/></g>
<g><path style="opacity:1" fill="#030201" d="M 159.5,31.5 C 162.187,31.3359 164.854,31.5026 167.5,32C 171.299,34.7969 174.799,37.9636 178,41.5C 185.057,50.8915 191.724,60.5582 198,70.5C 200.358,74.2098 201.858,78.2098 202.5,82.5C 202.485,84.6341 201.985,86.6341 201,88.5C 189.867,101.966 177.701,114.466 164.5,126C 156.962,129.696 152.462,127.529 151,119.5C 147.707,91.1355 149.373,63.1355 156,35.5C 157.376,34.2949 158.542,32.9616 159.5,31.5 Z"/></g>
<g><path style="opacity:1" fill="#030201" d="M 433.5,33.5 C 438.28,32.6409 441.78,34.3075 444,38.5C 451.527,66.3914 453.527,94.7248 450,123.5C 449.535,124.931 448.701,126.097 447.5,127C 444.833,127.667 442.167,127.667 439.5,127C 423.375,115.875 409.541,102.375 398,86.5C 397.333,83.5 397.333,80.5 398,77.5C 407.133,60.5457 418.967,45.8791 433.5,33.5 Z"/></g>
<g><path style="opacity:1" fill="#4a3931" d="M 161.5,35.5 C 166.775,36.2472 170.942,38.9139 174,43.5C 183.682,55.5275 191.849,68.5275 198.5,82.5C 196.766,86.9661 194.266,90.9661 191,94.5C 183.167,102.333 175.333,110.167 167.5,118C 164.872,120.466 161.872,122.299 158.5,123.5C 156.173,122.275 155.006,120.275 155,117.5C 152.802,91.6616 154.136,65.9949 159,40.5C 159.366,38.5483 160.199,36.8816 161.5,35.5 Z"/></g>
<g><path style="opacity:1" fill="#493931" d="M 443.5,58.5 C 446.046,72.5727 447.38,86.9061 447.5,101.5C 447.692,108.404 447.025,115.07 445.5,121.5C 445.631,120.761 445.464,120.094 445,119.5C 444.581,120.672 443.915,121.672 443,122.5C 427.686,111.019 414.186,97.686 402.5,82.5C 410.702,66.4664 421.369,52.2997 434.5,40C 435.793,39.51 437.127,39.3433 438.5,39.5C 440.385,46.4571 442.051,52.7905 443.5,58.5 Z"/></g>
<g><path style="opacity:1" fill="#57422d" d="M 443.5,58.5 C 442.051,52.7905 440.385,46.4571 438.5,39.5C 437.127,39.3433 435.793,39.51 434.5,40C 421.369,52.2997 410.702,66.4664 402.5,82.5C 414.186,97.686 427.686,111.019 443,122.5C 443.915,121.672 444.581,120.672 445,119.5C 445.464,120.094 445.631,120.761 445.5,121.5C 443.97,123.847 441.97,124.014 439.5,122C 426.74,112.575 415.24,101.742 405,89.5C 400.852,85.0974 400.519,80.4308 404,75.5C 411.837,62.6727 421.003,50.8394 431.5,40C 434.094,38.3994 436.761,38.2327 439.5,39.5C 441.857,45.6202 443.191,51.9536 443.5,58.5 Z"/></g>
<g><path style="opacity:1" fill="#d7d7d7" d="M 339.5,68.5 C 338.833,68.5 338.167,68.5 337.5,68.5C 312.986,66.9312 288.653,67.2646 264.5,69.5C 263.5,69.5 262.5,69.5 261.5,69.5C 264.488,67.8598 267.821,67.0265 271.5,67C 292.831,65.0332 314.164,65.0332 335.5,67C 337.058,67.21 338.391,67.71 339.5,68.5 Z"/></g>
<g><path style="opacity:1" fill="#f4f4f3" d="M 337.5,68.5 C 314.659,124.92 309.825,182.92 323,242.5C 337.415,251.592 347.415,264.259 353,280.5C 354.731,282.617 356.898,284.117 359.5,285C 364.661,285.732 369.661,286.566 374.5,287.5C 372.067,294.818 369.067,301.818 365.5,308.5C 353.702,297.202 342.035,285.702 330.5,274C 329.906,273.536 329.239,273.369 328.5,273.5C 325.551,269.055 321.551,265.889 316.5,264C 300.83,259.272 285.497,260.272 270.5,267C 263.018,273.067 260.184,280.9 262,290.5C 263.713,300.619 268.879,308.286 277.5,313.5C 281.127,317.139 284.461,321.139 287.5,325.5C 275.321,328.15 262.987,329.483 250.5,329.5C 243.72,328.895 238.22,325.895 234,320.5C 230.828,316.159 228.161,311.492 226,306.5C 223.767,299.948 221.267,293.615 218.5,287.5C 224.631,287.456 230.964,287.29 237.5,287C 241.047,286.263 243.88,284.43 246,281.5C 251.876,263.633 262.876,249.966 279,240.5C 291.315,181.94 286.481,124.94 264.5,69.5C 288.653,67.2646 312.986,66.9312 337.5,68.5 Z"/></g>
<g><path style="opacity:1" fill="#ae8356" d="M 457.5,32.5 C 462.482,62.4874 465.482,92.8207 466.5,123.5C 465.056,115.682 463.889,107.682 463,99.5C 461.165,77.1538 459.332,54.8204 457.5,32.5 Z"/></g>
<g><path style="opacity:1" fill="#ad8155" d="M 141.5,30.5 C 140.514,44.597 139.014,58.597 137,72.5C 136.737,90.0959 135.237,107.429 132.5,124.5C 132.872,102.093 134.372,79.7599 137,57.5C 138.08,48.2909 139.58,39.2909 141.5,30.5 Z"/></g>
<g><path style="opacity:1" fill="#5f564c" d="M 234.5,189.5 C 261.026,189.516 272.192,202.516 268,228.5C 262.441,241.624 252.441,247.957 238,247.5C 219.143,242.954 210.809,230.954 213,211.5C 216.35,200.318 223.517,192.984 234.5,189.5 Z"/></g>
<g><path style="opacity:1" fill="#5f564c" d="M 350.5,190.5 C 368.001,188.159 379.834,195.159 386,211.5C 388.897,229.554 381.73,241.388 364.5,247C 346.856,249.599 335.356,242.432 330,225.5C 327.59,208.309 334.423,196.642 350.5,190.5 Z"/></g>
<g><path style="opacity:1" fill="#020101" d="M 234.5,196.5 C 248.944,194.302 258.778,199.969 264,213.5C 264.436,233.731 254.603,242.898 234.5,241C 221.39,235.954 216.223,226.454 219,212.5C 221.685,204.65 226.852,199.316 234.5,196.5 Z"/></g>
<g><path style="opacity:1" fill="#020202" d="M 350.5,196.5 C 365.367,194.012 375.534,199.678 381,213.5C 382.949,225.669 378.449,234.502 367.5,240C 354.02,244.668 343.853,240.835 337,228.5C 332.494,213.862 336.994,203.195 350.5,196.5 Z"/></g>
<g><path style="opacity:1" fill="#dadada" d="M 246.5,207.5 C 252,206.831 254.167,209.165 253,214.5C 250.048,218.482 247.048,218.482 244,214.5C 243.333,213.167 243.333,211.833 244,210.5C 245.045,209.627 245.878,208.627 246.5,207.5 Z"/></g>
<g><path style="opacity:1" fill="#dfdfdf" d="M 364.5,207.5 C 371.628,207.706 373.294,210.873 369.5,217C 364.967,218.471 362.633,216.804 362.5,212C 362.519,210.167 363.185,208.667 364.5,207.5 Z"/></g>
<g><path style="opacity:1" fill="#010101" d="M 328.5,273.5 C 334.914,300.277 324.247,315.277 296.5,318.5C 289.842,317.919 283.508,316.253 277.5,313.5C 268.879,308.286 263.713,300.619 262,290.5C 260.184,280.9 263.018,273.067 270.5,267C 285.497,260.272 300.83,259.272 316.5,264C 321.551,265.889 325.551,269.055 328.5,273.5 Z"/></g>
<g><path style="opacity:1" fill="#dfdfdf" d="M 328.5,273.5 C 329.239,273.369 329.906,273.536 330.5,274C 342.035,285.702 353.702,297.202 365.5,308.5C 361.917,320.088 354.25,327.088 342.5,329.5C 326.921,329.459 311.588,327.459 296.5,323.5C 293.404,323.918 290.404,324.585 287.5,325.5C 284.461,321.139 281.127,317.139 277.5,313.5C 283.508,316.253 289.842,317.919 296.5,318.5C 324.247,315.277 334.914,300.277 328.5,273.5 Z"/></g>
<g><path style="opacity:1" fill="#f4f4f4" d="M 217.5,286.5 C 215.707,286.884 214.707,288.05 214.5,290C 215.737,293.451 216.737,296.951 217.5,300.5C 213.598,302.893 210.098,305.893 207,309.5C 169.087,355.741 159.42,407.408 178,464.5C 189.047,493.761 207.214,517.594 232.5,536C 239.559,541.391 246.893,546.391 254.5,551C 268.959,568.724 286.293,582.89 306.5,593.5C 309.421,592.593 312.421,592.26 315.5,592.5C 308.614,595.739 301.281,596.905 293.5,596C 252.143,581.322 216.809,557.655 187.5,525C 185.365,524.365 183.365,524.699 181.5,526C 179.5,529.333 176.833,532 173.5,534C 171.365,534.635 169.365,534.301 167.5,533C 115.188,491.904 85.0213,438.071 77,371.5C 76.5,371 76,370.5 75.5,370C 72.1608,369.61 68.8275,369.776 65.5,370.5C 63.3066,370.674 61.4733,370.007 60,368.5C 59.2024,359.787 59.5357,351.12 61,342.5C 63.587,328.152 67.087,314.152 71.5,300.5C 85.04,328.874 105.873,350.208 134,364.5C 138.198,347.772 144.865,332.105 154,317.5C 163.255,302.244 175.255,289.578 190,279.5C 199.198,282.257 208.365,284.591 217.5,286.5 Z"/></g>
<g><path style="opacity:1" fill="#fefefe" d="M 528.5,303.5 C 535.553,324.598 539.053,346.265 539,368.5C 537.972,370.516 536.305,371.516 534,371.5C 531.149,370.912 528.315,370.245 525.5,369.5C 523.971,369.529 522.804,370.196 522,371.5C 514.875,438.264 485.041,492.43 432.5,534C 430.919,534.707 429.419,535.54 428,536.5C 422.935,533.443 418.435,529.61 414.5,525C 413.5,524.333 412.5,524.333 411.5,525C 384.592,554.742 352.592,577.242 315.5,592.5C 312.421,592.26 309.421,592.593 306.5,593.5C 286.293,582.89 268.959,568.724 254.5,551C 246.893,546.391 239.559,541.391 232.5,536C 207.214,517.594 189.047,493.761 178,464.5C 159.42,407.408 169.087,355.741 207,309.5C 210.098,305.893 213.598,302.893 217.5,300.5C 219.814,308.801 222.981,316.801 227,324.5C 237.176,340.001 248.676,354.501 261.5,368C 274.818,376.891 289.485,380.224 305.5,378C 320.674,376.497 332.841,369.663 342,357.5C 350.387,346.78 358.387,335.78 366,324.5C 372.512,312.492 376.012,299.826 376.5,286.5C 387.295,284.639 398.128,282.306 409,279.5C 412.011,280.59 414.844,282.09 417.5,284C 441.995,305.483 458.495,331.983 467,363.5C 476.027,359.128 484.527,353.961 492.5,348C 507.018,335.005 519.018,320.171 528.5,303.5 Z"/></g>
<g><path style="opacity:1" fill="#090909" d="M 217.5,286.5 C 217.5,287.167 217.833,287.5 218.5,287.5C 221.267,293.615 223.767,299.948 226,306.5C 228.161,311.492 230.828,316.159 234,320.5C 238.22,325.895 243.72,328.895 250.5,329.5C 253.053,330.255 255.72,330.922 258.5,331.5C 259.609,343.884 264.609,354.384 273.5,363C 277.474,365.659 281.808,367.159 286.5,367.5C 297.426,369.633 308.092,368.466 318.5,364C 325.303,359.18 329.803,352.68 332,344.5C 333.272,340.185 334.439,335.852 335.5,331.5C 337.969,330.832 340.302,330.165 342.5,329.5C 354.25,327.088 361.917,320.088 365.5,308.5C 369.067,301.818 372.067,294.818 374.5,287.5C 375.167,287.167 375.833,286.833 376.5,286.5C 376.012,299.826 372.512,312.492 366,324.5C 358.387,335.78 350.387,346.78 342,357.5C 332.841,369.663 320.674,376.497 305.5,378C 289.485,380.224 274.818,376.891 261.5,368C 248.676,354.501 237.176,340.001 227,324.5C 222.981,316.801 219.814,308.801 217.5,300.5C 216.737,296.951 215.737,293.451 214.5,290C 214.707,288.05 215.707,286.884 217.5,286.5 Z"/></g>
<g><path style="opacity:1" fill="#c0849c" d="M 342.5,329.5 C 340.302,330.165 337.969,330.832 335.5,331.5C 334.439,335.852 333.272,340.185 332,344.5C 329.803,352.68 325.303,359.18 318.5,364C 308.092,368.466 297.426,369.633 286.5,367.5C 290.182,367.665 293.848,367.499 297.5,367C 286.196,354.696 274.53,342.696 262.5,331C 260.934,330.235 259.601,330.402 258.5,331.5C 255.72,330.922 253.053,330.255 250.5,329.5C 262.987,329.483 275.321,328.15 287.5,325.5C 290.404,324.585 293.404,323.918 296.5,323.5C 311.588,327.459 326.921,329.459 342.5,329.5 Z"/></g>
<g><path style="opacity:1" fill="#df97b0" d="M 286.5,367.5 C 281.808,367.159 277.474,365.659 273.5,363C 264.609,354.384 259.609,343.884 258.5,331.5C 259.601,330.402 260.934,330.235 262.5,331C 274.53,342.696 286.196,354.696 297.5,367C 293.848,367.499 290.182,367.665 286.5,367.5 Z"/></g>
</svg>
