<?xml version="1.0" encoding="UTF-8"?>
<!DOCTYPE svg PUBLIC "-//W3C//DTD SVG 1.1//EN" "http://www.w3.org/Graphics/SVG/1.1/DTD/svg11.dtd">
<svg xmlns="http://www.w3.org/2000/svg" version="1.1" width="600px" height="600px" style="shape-rendering:geometricPrecision; text-rendering:geometricPrecision; image-rendering:optimizeQuality; fill-rule:evenodd; clip-rule:evenodd" xmlns:xlink="http://www.w3.org/1999/xlink">
<g><path style="opacity:0.969" fill="#030302" d="M 180.5,-0.5 C 189.833,-0.5 199.167,-0.5 208.5,-0.5C 223.452,4.9111 235.952,13.9111 246,26.5C 257.586,41.6665 266.586,58.3331 273,76.5C 274.231,77.1078 275.564,77.4411 277,77.5C 284.482,76.6404 291.982,75.9738 299.5,75.5C 308.181,76.2838 316.848,76.7838 325.5,77C 332.801,58.5609 342.301,41.3942 354,25.5C 363.91,13.3868 376.077,4.7201 390.5,-0.5C 399.833,-0.5 409.167,-0.5 418.5,-0.5C 440.005,8.19184 457.838,21.8585 472,40.5C 498.02,76.1781 515.354,115.845 524,159.5C 525.441,166.48 526.774,173.48 528,180.5C 532.18,221.177 536.514,261.844 541,302.5C 549.139,403.021 513.972,484.521 435.5,547C 405.545,572.978 371.212,590.478 332.5,599.5C 310.5,599.5 288.5,599.5 266.5,599.5C 241.615,594.033 218.281,584.533 196.5,571C 170.58,553.093 146.413,532.926 124,510.5C 79.7848,460.053 57.2848,401.053 56.5,333.5C 56.5888,323.479 57.0888,313.479 58,303.5C 62.2858,269.928 65.6191,236.261 68,202.5C 72.8446,154.78 86.5113,109.78 109,67.5C 122.969,41.5294 142.469,20.6961 167.5,5C 171.923,3.11473 176.256,1.2814 180.5,-0.5 Z"/></g>
<g><path style="opacity:1" fill="#3b3b3a" d="M 245.5,348.5 C 254.357,330.952 251.69,315.452 237.5,302C 218.502,290.959 202.002,293.793 188,310.5C 178.136,329.038 181.303,344.872 197.5,358C 205.844,362.926 214.844,364.76 224.5,363.5C 202.39,368.89 182.724,364.056 165.5,349C 161.667,345.167 157.833,341.333 154,337.5C 146.833,328.333 139.667,319.167 132.5,310C 122.065,301.88 112.898,303.047 105,313.5C 102.327,318.519 100.66,323.852 100,329.5C 99.1675,353.037 99.6675,376.537 101.5,400C 98.5183,416.391 96.3516,432.891 95,449.5C 73.0529,405.428 64.0529,358.761 68,309.5C 72.2776,272.556 75.9443,235.556 79,198.5C 84.0136,154.795 96.6802,113.461 117,74.5C 128.501,53.9899 143.334,36.1566 161.5,21C 181.807,5.21449 202.473,4.54782 223.5,19C 237.008,30.5137 247.508,44.347 255,60.5C 258.606,69.6767 262.772,78.5101 267.5,87C 269.366,87.9847 271.366,88.4847 273.5,88.5C 290.498,85.857 307.498,85.857 324.5,88.5C 328.433,88.9491 331.6,87.6157 334,84.5C 342.424,59.1312 356.258,37.2979 375.5,19C 389.459,7.83363 404.793,5.50029 421.5,12C 440.33,21.6667 455.83,35.1667 468,52.5C 491.328,87.18 506.995,125.18 515,166.5C 517.28,178.794 519.28,191.128 521,203.5C 524.394,245.379 528.227,287.213 532.5,329C 532.463,370.191 523.63,409.357 506,446.5C 504.109,433.043 501.442,419.71 498,406.5C 499.017,380.851 499.35,355.185 499,329.5C 498.199,321.765 495.366,314.932 490.5,309C 482.307,302.914 474.307,303.247 466.5,310C 459.333,319.167 452.167,328.333 445,337.5C 424.901,361.977 399.401,370.477 368.5,363C 351.145,345.649 330.145,335.982 305.5,334C 283.996,332.783 263.996,337.616 245.5,348.5 Z"/></g>
<g><path style="opacity:1" fill="#040303" d="M 177.5,35.5 C 183.441,35.0554 188.275,37.0554 192,41.5C 203.534,59.7764 209.201,79.7764 209,101.5C 196.01,114.581 181.177,125.081 164.5,133C 150.174,137.99 143.174,132.99 143.5,118C 145.854,92.2847 153.02,68.118 165,45.5C 167.952,40.3538 172.119,37.0205 177.5,35.5 Z"/></g>
<g><path style="opacity:1" fill="#040303" d="M 411.5,35.5 C 417.596,35.2517 422.763,37.2517 427,41.5C 442.409,68.7468 449.409,98.0801 448,129.5C 444.18,133.997 439.347,135.83 433.5,135C 418.949,129.057 405.616,121.057 393.5,111C 384.408,103.804 381.574,94.6371 385,83.5C 388.407,68.8418 394.074,55.1751 402,42.5C 404.558,39.0759 407.725,36.7425 411.5,35.5 Z"/></g>
<g><path style="opacity:1" fill="#c99765" d="M 178.5,45.5 C 180.903,45.393 182.736,46.393 184,48.5C 191.128,60.9915 196.128,74.3248 199,88.5C 200.369,93.4374 199.203,97.604 195.5,101C 183.359,110.49 170.192,118.323 156,124.5C 155.228,124.355 154.561,124.022 154,123.5C 155.381,97.3186 162.381,72.652 175,49.5C 176.376,48.2949 177.542,46.9616 178.5,45.5 Z"/></g>
<g><path style="opacity:1" fill="#c99764" d="M 413.5,45.5 C 415.903,45.393 417.736,46.393 419,48.5C 431.638,72.7191 438.138,98.3857 438.5,125.5C 424.955,120.395 412.621,113.228 401.5,104C 398.628,101.463 396.128,98.6301 394,95.5C 396.037,80.387 400.704,66.0537 408,52.5C 409.666,50.0043 411.5,47.671 413.5,45.5 Z"/></g>
<g><path style="opacity:1" fill="#030302" d="M 225.5,221.5 C 240.28,220.975 252.447,226.309 262,237.5C 274.308,252.399 278.642,269.399 275,288.5C 270.059,302.928 260.226,308.094 245.5,304C 236.545,294.514 225.878,287.514 213.5,283C 205,278.5 198.5,272 194,263.5C 188.74,249.835 191.907,238.669 203.5,230C 210.299,225.462 217.632,222.628 225.5,221.5 Z"/></g>
<g><path style="opacity:1" fill="#030302" d="M 368.5,221.5 C 385.852,221.094 399.685,227.761 410,241.5C 413.396,257.205 408.562,269.705 395.5,279C 387.819,283.842 379.819,288.175 371.5,292C 366.58,294.916 362.247,298.582 358.5,303C 343.165,308.992 332.998,304.159 328,288.5C 323.53,265.577 330.03,246.41 347.5,231C 353.869,226.053 360.869,222.887 368.5,221.5 Z"/></g>
<g><path style="opacity:1" fill="#c99765" d="M 225.5,231.5 C 240.392,231.865 251.558,238.532 259,251.5C 266.329,263.127 267.996,275.46 264,288.5C 261.254,293.456 257.087,295.623 251.5,295C 247.534,292.036 243.867,288.703 240.5,285C 230.673,279.92 221.006,274.587 211.5,269C 205.966,264.433 202.633,258.599 201.5,251.5C 202.386,245.553 205.386,241.053 210.5,238C 215.367,235.226 220.367,233.059 225.5,231.5 Z"/></g>
<g><path style="opacity:1" fill="#c99765" d="M 368.5,231.5 C 378.905,231.579 388.238,234.746 396.5,241C 403.074,248.824 402.907,256.657 396,264.5C 393.78,267.021 391.28,269.188 388.5,271C 379.833,275.667 371.167,280.333 362.5,285C 359.084,289.087 355.084,292.42 350.5,295C 342.176,294.677 337.676,290.177 337,281.5C 336.055,264.554 341.889,250.388 354.5,239C 358.815,235.678 363.482,233.178 368.5,231.5 Z"/></g>
<g><path style="opacity:1" fill="#83c7d1" d="M 245.5,348.5 C 238.734,353.949 231.734,358.949 224.5,363.5C 214.844,364.76 205.844,362.926 197.5,358C 181.303,344.872 178.136,329.038 188,310.5C 202.002,293.793 218.502,290.959 237.5,302C 251.69,315.452 254.357,330.952 245.5,348.5 Z"/></g>
<g><path style="opacity:1" fill="#83c7d1" d="M 379.5,295.5 C 400.477,293.007 414.31,301.674 421,321.5C 424.018,342.47 415.518,356.303 395.5,363C 374.207,365.615 360.374,356.781 354,336.5C 351.889,316.027 360.389,302.36 379.5,295.5 Z"/></g>
<g><path style="opacity:1" fill="#020304" d="M 214.5,303.5 C 230.631,304.363 239.631,312.696 241.5,328.5C 239.792,347.367 229.458,355.867 210.5,354C 195.427,348.364 189.26,337.53 192,321.5C 195.932,310.812 203.432,304.812 214.5,303.5 Z"/></g>
<g><path style="opacity:1" fill="#020404" d="M 385.5,303.5 C 401.631,304.363 410.631,312.696 412.5,328.5C 410.792,347.367 400.458,355.867 381.5,354C 366.427,348.364 360.26,337.53 363,321.5C 367.317,311.288 374.817,305.288 385.5,303.5 Z"/></g>
<g><path style="opacity:1" fill="#eeeeee" d="M 224.5,312.5 C 229.948,311.886 233.282,314.219 234.5,319.5C 231.834,327.094 227.334,328.427 221,323.5C 219.053,318.842 220.219,315.176 224.5,312.5 Z"/></g>
<g><path style="opacity:1" fill="#f1f1f1" d="M 397.5,312.5 C 402.948,311.886 406.282,314.219 407.5,319.5C 404.834,327.094 400.334,328.427 394,323.5C 392.663,318.872 393.83,315.205 397.5,312.5 Z"/></g>
<g><path style="opacity:1" fill="#cb9865" d="M 186.5,372.5 C 195.587,376.133 204.921,377.133 214.5,375.5C 220.493,375.001 226.493,374.501 232.5,374C 260.447,345.098 293.447,337.432 331.5,351C 343.816,355.991 354.483,363.324 363.5,373C 396.91,381.511 425.41,373.678 449,349.5C 457.714,338.575 466.547,327.742 475.5,317C 481.736,315.167 485.569,317.667 487,324.5C 488.654,331.735 489.488,339.068 489.5,346.5C 487.96,367.814 487.46,389.147 488,410.5C 492.725,425.844 494.725,441.51 494,457.5C 493.632,462.304 492.632,466.97 491,471.5C 485.663,479.538 480.33,487.538 475,495.5C 469.28,502.226 463.113,508.726 456.5,515C 455.5,515.333 454.5,515.667 453.5,516C 432.982,536.866 409.815,554.699 384,569.5C 316.036,602.472 251.203,597.139 189.5,553.5C 183.159,548.423 176.826,543.256 170.5,538C 169.5,537.667 168.5,537.333 167.5,537C 163.308,534.001 159.641,530.334 156.5,526C 155.5,525.667 154.5,525.333 153.5,525C 144.333,515.833 135.167,506.667 126,497.5C 119.599,490.581 114.099,482.914 109.5,474.5C 105.274,453.088 105.774,431.754 111,410.5C 110.952,385.825 110.618,361.159 110,336.5C 109.749,328.581 112.249,321.747 117.5,316C 119.635,315.365 121.635,315.699 123.5,317C 134.025,330.371 145.025,343.371 156.5,356C 165.184,363.842 175.184,369.342 186.5,372.5 Z"/></g>
<g><path style="opacity:1" fill="#010101" d="M 286.5,367.5 C 299.168,366.521 311.502,368.021 323.5,372C 333.462,377.083 338.462,385.25 338.5,396.5C 335.789,420.875 322.122,433.542 297.5,434.5C 272.816,433.477 259.15,420.81 256.5,396.5C 256.042,386.917 259.709,379.417 267.5,374C 273.59,370.738 279.924,368.571 286.5,367.5 Z"/></g>
<g><path style="opacity:1" fill="#463a2e" d="M 186.5,372.5 C 195.702,374.624 205.035,375.624 214.5,375.5C 204.921,377.133 195.587,376.133 186.5,372.5 Z"/></g>
<g><path style="opacity:1" fill="#050302" d="M 175.5,430.5 C 175.56,429.957 175.893,429.624 176.5,429.5C 207.961,446.075 241.461,455.742 277,458.5C 284.407,458.92 291.073,456.92 297,452.5C 300.894,454.197 304.727,456.03 308.5,458C 341.801,457.272 373.801,450.272 404.5,437C 408.919,434.373 413.419,431.873 418,429.5C 418.167,429.833 418.333,430.167 418.5,430.5C 400.817,449.016 383.317,467.683 366,486.5C 356.826,498.169 349.159,510.836 343,524.5C 327.184,547.429 305.684,554.929 278.5,547C 266.263,542.764 257.097,534.93 251,523.5C 245.342,511.508 238.675,500.175 231,489.5C 212.634,469.636 194.134,449.969 175.5,430.5 Z"/></g>
<g><path style="opacity:1" fill="#d19bb8" d="M 296.5,463.5 C 299.93,464.714 303.264,466.214 306.5,468C 319.602,468.748 332.602,467.915 345.5,465.5C 346.022,483.059 342.522,499.726 335,515.5C 325.473,527.926 312.806,533.592 297,532.5C 282.985,533.499 271.319,528.833 262,518.5C 255.971,509.748 252.304,500.081 251,489.5C 249.763,481.536 248.93,473.536 248.5,465.5C 260.713,468.029 273.046,468.862 285.5,468C 289.619,467.356 293.285,465.856 296.5,463.5 Z"/></g>
</svg>
