<?xml version="1.0" encoding="UTF-8"?>
<!DOCTYPE svg PUBLIC "-//W3C//DTD SVG 1.1//EN" "http://www.w3.org/Graphics/SVG/1.1/DTD/svg11.dtd">
<svg xmlns="http://www.w3.org/2000/svg" version="1.1" width="600px" height="600px" style="shape-rendering:geometricPrecision; text-rendering:geometricPrecision; image-rendering:optimizeQuality; fill-rule:evenodd; clip-rule:evenodd" xmlns:xlink="http://www.w3.org/1999/xlink">
<g><path style="opacity:0.979" fill="#020100" d="M 599.5,252.5 C 599.5,270.833 599.5,289.167 599.5,307.5C 584.902,346.376 564.402,381.709 538,413.5C 530.1,422.069 521.6,429.903 512.5,437C 494.575,445.766 477.908,443.766 462.5,431C 454.673,423.671 447.339,415.838 440.5,407.5C 435.961,414.253 432.461,421.586 430,429.5C 429.404,459.077 424.071,487.744 414,515.5C 408.997,528.68 401.164,539.846 390.5,549C 370.228,561.143 353.061,557.643 339,538.5C 336.333,534.5 333.667,530.5 331,526.5C 310.798,532.747 290.465,533.081 270,527.5C 263.266,535.238 256.099,542.738 248.5,550C 236.047,557.409 223.713,557.076 211.5,549C 199.102,538.73 190.268,525.897 185,510.5C 176.23,483.879 171.563,456.545 171,428.5C 168.32,420.961 165.153,413.628 161.5,406.5C 160.998,405.479 160.332,405.312 159.5,406C 150.354,420.147 138.354,431.147 123.5,439C 105.672,445.625 90.005,442.292 76.5,429C 53.3016,405.763 34.1349,379.596 19,350.5C 11.9023,336.314 5.40229,321.981 -0.5,307.5C -0.5,289.167 -0.5,270.833 -0.5,252.5C 6.94518,237.882 15.4452,223.882 25,210.5C 56.1415,167.676 91.3081,128.176 130.5,92C 147.074,80.2155 165.407,72.5488 185.5,69C 207.105,57.4656 230.105,50.1323 254.5,47C 302.745,39.6148 349.745,44.2815 395.5,61C 400.446,62.8061 405.112,65.1394 409.5,68C 433.32,71.9159 454.653,81.2492 473.5,96C 511.89,132.411 546.39,171.911 577,214.5C 585.296,226.767 592.796,239.434 599.5,252.5 Z"/></g>
<g><path style="opacity:1" fill="#e1a250" d="M 282.5,54.5 C 312.274,53.1928 341.607,56.0262 370.5,63C 378.625,65.6967 386.625,68.6967 394.5,72C 389.348,81.0855 391.015,88.7522 399.5,95C 421.368,106.865 435.868,124.699 443,148.5C 449.43,176.692 450.097,205.025 445,233.5C 440.491,254.535 435.825,275.535 431,296.5C 426.585,320.311 424.918,344.311 426,368.5C 426.301,378.559 429.134,387.726 434.5,396C 431.602,399.905 429.102,404.071 427,408.5C 424.53,390.424 418.864,373.424 410,357.5C 397.064,338.631 383.397,320.298 369,302.5C 355.673,282.858 347.673,261.191 345,237.5C 342.609,207.808 339.942,178.142 337,148.5C 334.972,126.362 330.639,104.695 324,83.5C 321.674,76.346 317.507,70.5126 311.5,66C 298.263,60.4305 287.763,63.5972 280,75.5C 277.449,79.9346 275.449,84.6012 274,89.5C 269.507,108.965 266.174,128.632 264,148.5C 260.945,180.164 257.945,211.831 255,243.5C 250.711,266.069 242.044,286.736 229,305.5C 215.513,322.476 202.513,339.809 190,357.5C 182.004,372.476 176.004,388.143 172,404.5C 170.167,400.833 168.333,397.167 166.5,393.5C 171.249,386.645 173.749,378.978 174,370.5C 175.076,349.07 174.076,327.737 171,306.5C 165.019,281.91 159.353,257.243 154,232.5C 148.134,200.631 150.134,169.298 160,138.5C 164.791,126.432 171.957,115.932 181.5,107C 189.945,101.555 198.112,95.7214 206,89.5C 208.246,83.2261 207.746,77.2261 204.5,71.5C 214.09,66.9139 224.09,63.4139 234.5,61C 250.497,57.6686 266.497,55.5019 282.5,54.5 Z"/></g>
<g><path style="opacity:1" fill="#de9f4f" d="M 381.5,336.5 C 379.097,336.607 377.264,335.607 376,333.5C 359.83,314.838 347.497,293.838 339,270.5C 337.164,258.82 335.164,247.153 333,235.5C 330.508,192.913 325.841,150.579 319,108.5C 317.072,96.8206 312.572,86.3206 305.5,77C 300.354,74.4961 295.854,75.3294 292,79.5C 288.835,84.3303 286.335,89.4969 284.5,95C 286.619,96.5525 286.619,98.3858 284.5,100.5C 283.817,100.137 283.15,99.8039 282.5,99.5C 283.085,92.9153 285.252,86.5819 289,80.5C 293.128,73.5114 298.961,71.6781 306.5,75C 313.696,83.9035 318.196,94.0701 320,105.5C 322.053,114.765 323.72,124.098 325,133.5C 329.05,168.43 332.383,203.43 335,238.5C 337.071,260.379 343.737,280.712 355,299.5C 363.301,312.288 372.135,324.621 381.5,336.5 Z"/></g>
<g><path style="opacity:1" fill="#cb813e" d="M 381.5,336.5 C 406.666,363.136 419,394.969 418.5,432C 418.168,457.492 414.001,482.325 406,506.5C 401.714,519.587 394.547,530.753 384.5,540C 375.807,546.057 366.807,546.723 357.5,542C 348.837,533.843 341.503,524.677 335.5,514.5C 328.505,501.173 321.005,488.173 313,475.5C 309.879,470.377 305.545,466.71 300,464.5C 294.455,466.71 290.121,470.377 287,475.5C 278.995,488.173 271.495,501.173 264.5,514.5C 258.406,523.43 251.739,531.93 244.5,540C 235.232,545.958 225.899,545.958 216.5,540C 203.755,527.686 195.255,512.853 191,495.5C 185.636,473.787 182.47,451.787 181.5,429.5C 182.32,416.078 184.487,402.744 188,389.5C 188.333,390.5 188.667,391.5 189,392.5C 192.393,381.048 197.393,370.382 204,360.5C 204.765,358.934 204.598,357.601 203.5,356.5C 216.08,339.018 228.914,321.685 242,304.5C 254.948,283.994 262.948,261.66 266,237.5C 268.562,202.758 271.895,168.091 276,133.5C 277.593,122.038 279.759,110.704 282.5,99.5C 283.15,99.8039 283.817,100.137 284.5,100.5C 286.619,98.3858 286.619,96.5525 284.5,95C 286.335,89.4969 288.835,84.3303 292,79.5C 295.854,75.3294 300.354,74.4961 305.5,77C 312.572,86.3206 317.072,96.8206 319,108.5C 325.841,150.579 330.508,192.913 333,235.5C 335.164,247.153 337.164,258.82 339,270.5C 347.497,293.838 359.83,314.838 376,333.5C 377.264,335.607 379.097,336.607 381.5,336.5 Z"/></g>
<g><path style="opacity:1" fill="#dfa04f" d="M 160.5,383.5 C 163.24,359.161 163.074,334.828 160,310.5C 152.579,283.813 146.246,256.813 141,229.5C 136,197.832 138.333,166.832 148,136.5C 156.951,112.216 172.951,94.2164 196,82.5C 196.617,81.5509 196.451,80.7175 195.5,80C 193.292,79.8091 191.292,79.3091 189.5,78.5C 192.104,77.4696 194.771,77.4696 197.5,78.5C 197.799,80.604 197.466,82.604 196.5,84.5C 172.319,96.8472 156.319,116.014 148.5,142C 140.343,170.043 138.509,198.543 143,227.5C 148.371,254.316 154.371,280.982 161,307.5C 164.018,327.737 165.018,348.07 164,368.5C 163.765,374.418 162.598,379.418 160.5,383.5 Z"/></g>
<g><path style="opacity:1" fill="#dfa14f" d="M 405.5,77.5 C 405.063,79.0744 404.063,80.2411 402.5,81C 409.833,86.3333 417.167,91.6667 424.5,97C 444.391,116.007 455.891,139.174 459,166.5C 462.093,195.118 460.426,223.451 454,251.5C 444.333,284.668 438.833,318.501 437.5,353C 437.702,364.652 439.035,376.152 441.5,387.5C 440.883,387.389 440.383,387.056 440,386.5C 435.836,371.104 434.502,355.437 436,339.5C 438.241,308.96 443.574,278.96 452,249.5C 460.6,214.135 460.6,178.802 452,143.5C 446.064,125.792 436.231,110.626 422.5,98C 415.667,93.1667 408.833,88.3333 402,83.5C 401.506,81.8659 401.34,80.1992 401.5,78.5C 402.959,78.5674 404.292,78.2341 405.5,77.5 Z"/></g>
<g><path style="opacity:1" fill="#cb813e" d="M 189.5,78.5 C 191.292,79.3091 193.292,79.8091 195.5,80C 196.451,80.7175 196.617,81.5509 196,82.5C 172.951,94.2164 156.951,112.216 148,136.5C 138.333,166.832 136,197.832 141,229.5C 146.246,256.813 152.579,283.813 160,310.5C 163.074,334.828 163.24,359.161 160.5,383.5C 153.369,397.489 144.036,409.989 132.5,421C 125.181,427.825 116.514,431.659 106.5,432.5C 100.514,432.505 95.1807,430.672 90.5,427C 66.4848,405.658 46.9848,380.825 32,352.5C 20.2182,331.608 11.2182,309.608 5,286.5C 3.68105,277.213 4.68105,268.213 8,259.5C 17.0806,241.109 27.7473,223.775 40,207.5C 68.6291,170.53 99.7958,135.696 133.5,103C 150.126,90.1873 168.793,82.0207 189.5,78.5 Z"/></g>
<g><path style="opacity:1" fill="#cb813e" d="M 405.5,77.5 C 427.071,81.0793 446.738,89.246 464.5,102C 501.287,137.108 534.787,174.942 565,215.5C 572.729,226.9 580.062,238.567 587,250.5C 590.506,257.179 593.173,264.179 595,271.5C 595.873,280.809 594.539,289.809 591,298.5C 574.807,346.75 548.641,388.583 512.5,424C 501.447,433.611 489.447,434.945 476.5,428C 463.621,419.455 453.121,408.621 445,395.5C 443.546,392.929 442.38,390.262 441.5,387.5C 439.035,376.152 437.702,364.652 437.5,353C 438.833,318.501 444.333,284.668 454,251.5C 460.426,223.451 462.093,195.118 459,166.5C 455.891,139.174 444.391,116.007 424.5,97C 417.167,91.6667 409.833,86.3333 402.5,81C 404.063,80.2411 405.063,79.0744 405.5,77.5 Z"/></g>
<g><path style="opacity:1" fill="#c87f3e" d="M 211.5,213.5 C 228.357,215.356 238.023,224.689 240.5,241.5C 236.998,262.196 224.998,271.03 204.5,268C 188.292,260.752 182.459,248.585 187,231.5C 192.252,221.4 200.418,215.4 211.5,213.5 Z"/></g>
<g><path style="opacity:1" fill="#c9803e" d="M 385.5,213.5 C 407.2,216.682 416.367,229.015 413,250.5C 405.545,266.478 393.378,271.978 376.5,267C 359.653,257.456 355.486,243.956 364,226.5C 369.645,219.437 376.811,215.103 385.5,213.5 Z"/></g>
<g><path style="opacity:1" fill="#302725" d="M 206.5,222.5 C 218.693,220.541 227.193,225.208 232,236.5C 232.514,254.99 223.68,262.823 205.5,260C 194.15,253.962 190.65,244.796 195,232.5C 197.818,227.839 201.651,224.505 206.5,222.5 Z"/></g>
<g><path style="opacity:1" fill="#302825" d="M 380.5,222.5 C 400.181,221.241 408.347,230.241 405,249.5C 399.448,260.018 390.948,263.518 379.5,260C 368.756,254.111 365.256,245.278 369,233.5C 371.495,228.353 375.329,224.686 380.5,222.5 Z"/></g>
<g><path style="opacity:1" fill="#f4f4f4" d="M 214.5,230.5 C 222.022,230.67 224.022,234.003 220.5,240.5C 213.874,242.705 211.041,240.372 212,233.5C 213.045,232.627 213.878,231.627 214.5,230.5 Z"/></g>
<g><path style="opacity:1" fill="#f4f4f4" d="M 392.5,230.5 C 400.168,230.507 402.168,233.84 398.5,240.5C 392.197,242.363 389.364,240.03 390,233.5C 391.045,232.627 391.878,231.627 392.5,230.5 Z"/></g>
<g><path style="opacity:1" fill="#dea04f" d="M 203.5,356.5 C 204.598,357.601 204.765,358.934 204,360.5C 197.393,370.382 192.393,381.048 189,392.5C 188.667,391.5 188.333,390.5 188,389.5C 184.487,402.744 182.32,416.078 181.5,429.5C 180.799,416.243 182.299,403.243 186,390.5C 190.548,378.402 196.381,367.069 203.5,356.5 Z"/></g>
<g><path style="opacity:1" fill="#060402" d="M 259.5,427.5 C 258.581,424.911 256.914,422.911 254.5,421.5C 249.432,412.382 248.265,402.715 251,392.5C 254.381,388.241 257.881,384.074 261.5,380C 277.675,372.94 294.675,370.606 312.5,373C 323.585,374.529 333.585,378.696 342.5,385.5C 348.403,392.44 350.569,400.44 349,409.5C 344.259,422.411 335.759,432.078 323.5,438.5C 313.449,443.511 302.782,445.678 291.5,445C 284.992,442.956 278.659,440.456 272.5,437.5C 268.243,433.894 263.91,430.561 259.5,427.5 Z"/></g>
<g><path style="opacity:1" fill="#47382e" d="M 293.5,382.5 C 304.721,382.474 315.721,383.974 326.5,387C 338.091,392.029 341.591,400.529 337,412.5C 313.524,441.803 288.858,442.803 263,415.5C 255.82,401.361 259.653,391.528 274.5,386C 280.899,384.438 287.232,383.271 293.5,382.5 Z"/></g>
<g><path style="opacity:1" fill="#6f4927" d="M 254.5,421.5 C 256.914,422.911 258.581,424.911 259.5,427.5C 257.086,426.089 255.419,424.089 254.5,421.5 Z"/></g>
<g><path style="opacity:1" fill="#55381b" d="M 299.5,475.5 C 303.798,480.071 307.631,485.071 311,490.5C 315.633,499.294 320.466,507.961 325.5,516.5C 323.78,517.934 321.78,518.767 319.5,519C 304.458,522.341 289.458,522.174 274.5,518.5C 281.541,503.419 289.874,489.085 299.5,475.5 Z"/></g>
</svg>
