<?xml version="1.0" encoding="UTF-8"?>
<!DOCTYPE svg PUBLIC "-//W3C//DTD SVG 1.1//EN" "http://www.w3.org/Graphics/SVG/1.1/DTD/svg11.dtd">
<svg xmlns="http://www.w3.org/2000/svg" version="1.1" width="600px" height="600px" style="shape-rendering:geometricPrecision; text-rendering:geometricPrecision; image-rendering:optimizeQuality; fill-rule:evenodd; clip-rule:evenodd" xmlns:xlink="http://www.w3.org/1999/xlink">
<g><path style="opacity:0.971" fill="#040303" d="M 599.5,285.5 C 599.5,306.833 599.5,328.167 599.5,349.5C 597.958,350.301 596.292,350.634 594.5,350.5C 594.023,360.074 591.523,369.074 587,377.5C 582.85,380.498 578.35,381.165 573.5,379.5C 565.112,409.732 549.112,435.232 525.5,456C 518.772,461.059 511.772,465.726 504.5,470C 496.401,473.275 488.068,475.775 479.5,477.5C 478.035,485.71 475.201,493.376 471,500.5C 463.58,505.745 456.58,505.078 450,498.5C 442.829,509.504 436.162,520.838 430,532.5C 421.723,542.458 411.557,549.625 399.5,554C 387.599,554.763 382.765,549.263 385,537.5C 369.898,551.809 354.065,565.309 337.5,578C 329.424,582.776 322.591,581.276 317,573.5C 315.876,567.897 315.21,562.231 315,556.5C 312.876,563.443 310.876,570.443 309,577.5C 304.036,583.485 297.869,584.985 290.5,582C 281.416,576.252 273.583,569.085 267,560.5C 265.874,575.132 258.707,579.632 245.5,574C 237.311,565.112 229.478,555.946 222,546.5C 217.985,542.318 213.818,538.318 209.5,534.5C 208.946,548.463 201.946,552.963 188.5,548C 176.165,542.664 166.665,534.164 160,522.5C 155.884,513.102 151.384,503.936 146.5,495C 141.6,496.769 136.6,498.602 131.5,500.5C 124.125,499.291 119.958,494.957 119,487.5C 118.281,483.855 117.781,480.188 117.5,476.5C 106.766,475.089 96.7664,471.589 87.5,466C 56.1773,444.873 35.5107,416.04 25.5,379.5C 18.9516,381.88 13.7849,380.213 10,374.5C 6.90592,366.79 5.07259,358.79 4.5,350.5C 2.70848,350.634 1.04181,350.301 -0.5,349.5C -0.5,328.167 -0.5,306.833 -0.5,285.5C 2.26097,271.382 6.76097,257.716 13,244.5C 22.6105,229.89 32.6105,215.557 43,201.5C 46.3333,195.5 49.6667,189.5 53,183.5C 63.3333,171.833 74.3333,160.833 86,150.5C 92.7381,140.425 100.238,130.925 108.5,122C 117.993,115.087 127.659,108.42 137.5,102C 156.031,81.1211 177.697,64.4544 202.5,52C 232.18,40.0385 263.013,33.5385 295,32.5C 307.909,32.8716 320.742,34.0383 333.5,36C 350.03,40.2993 366.697,43.966 383.5,47C 402.698,53.9271 420.031,63.9271 435.5,77C 444.47,84.9692 453.137,93.3025 461.5,102C 471.777,108.611 481.777,115.611 491.5,123C 499.029,131.895 506.195,141.061 513,150.5C 523.304,159.803 533.304,169.47 543,179.5C 553.18,197.869 564.847,215.202 578,231.5C 589.005,248.025 596.172,266.025 599.5,285.5 Z"/></g>
<g><path style="opacity:1" fill="#ece3d8" d="M 417.5,431.5 C 428.217,369.712 415.051,313.712 378,263.5C 360.901,241.745 338.734,228.245 311.5,223C 284.807,219.899 261.141,226.899 240.5,244C 219.585,262.27 204.085,284.437 194,310.5C 179.789,346.219 174.956,383.219 179.5,421.5C 170.805,430.697 161.805,439.864 152.5,449C 144.766,455.621 136.266,461.121 127,465.5C 121.642,465.522 116.142,465.356 110.5,465C 94.4611,459.226 80.6278,450.059 69,437.5C 54.9248,422.419 44.5914,405.085 38,385.5C 36.8362,378.19 35.8362,370.856 35,363.5C 33.9825,359.446 31.9825,356.113 29,353.5C 27.7387,353.759 26.7387,354.426 26,355.5C 24.6686,360.15 23.3353,364.817 22,369.5C 21.1072,370.711 20.2739,370.711 19.5,369.5C 15.7714,361.213 14.6047,352.546 16,343.5C 18.129,337.579 19.9624,331.579 21.5,325.5C 20.448,325.351 19.448,325.517 18.5,326C 14.534,330.967 10.2007,335.634 5.5,340C 4.55198,340.483 3.55198,340.649 2.5,340.5C 4.02392,320.685 6.85726,301.018 11,281.5C 13.2851,270.31 16.9518,259.643 22,249.5C 31.6105,234.89 41.6105,220.557 52,206.5C 55.4141,200.003 59.0808,193.67 63,187.5C 72.3097,177.858 81.9764,168.525 92,159.5C 99.5664,148.876 107.733,138.71 116.5,129C 126.777,122.389 136.777,115.389 146.5,108C 166.305,85.5141 189.972,68.5141 217.5,57C 226.93,54.7465 236.263,52.0798 245.5,49C 270.586,43.3648 295.92,42.0314 321.5,45C 339.216,48.1289 356.882,51.4622 374.5,55C 396.762,61.96 416.428,73.2934 433.5,89C 447.801,104.982 464.135,118.316 482.5,129C 491.267,138.71 499.434,148.876 507,159.5C 517.024,168.525 526.69,177.858 536,187.5C 544.76,203.36 554.76,218.36 566,232.5C 577.375,246.937 584.709,263.27 588,281.5C 591.12,298.63 593.953,315.797 596.5,333C 596.333,335.167 596.167,337.333 596,339.5C 595.586,339.957 595.086,340.291 594.5,340.5C 589.315,336.149 584.649,331.316 580.5,326C 579.552,325.517 578.552,325.351 577.5,325.5C 579.027,331.583 580.861,337.583 583,343.5C 584.395,352.546 583.229,361.213 579.5,369.5C 578.726,370.711 577.893,370.711 577,369.5C 575.665,364.817 574.331,360.15 573,355.5C 571.604,353.473 569.938,353.14 568,354.5C 566.392,357.382 565.059,360.382 564,363.5C 563.426,381.22 558.426,397.554 549,412.5C 537.645,430.065 523.478,444.898 506.5,457C 500.736,460.216 494.736,462.883 488.5,465C 482.109,465.758 475.776,465.424 469.5,464C 450.438,453.611 434.438,439.611 421.5,422C 421.167,421.833 420.833,421.667 420.5,421.5C 419.707,425.016 418.707,428.35 417.5,431.5 Z"/></g>
<g><path style="opacity:1" fill="#d3c9b6" d="M 205.5,192.5 C 208.259,207.883 217.259,213.716 232.5,210C 242.846,204.987 246.679,196.82 244,185.5C 242.607,181.612 240.107,178.946 236.5,177.5C 240.139,175.955 243.973,174.621 248,173.5C 252.916,178.24 255.082,184.074 254.5,191C 252.542,213.508 240.209,223.508 217.5,221C 206.82,217.654 199.82,210.654 196.5,200C 198.694,196.565 201.694,194.065 205.5,192.5 Z"/></g>
<g><path style="opacity:1" fill="#d3c9b7" d="M 362.5,177.5 C 359.287,178.164 357.121,180.164 356,183.5C 351.468,199.446 357.301,208.779 373.5,211.5C 385.372,210.627 392.039,204.294 393.5,192.5C 397.576,194.025 400.576,196.692 402.5,200.5C 394.511,219.112 380.844,225.278 361.5,219C 347.464,211.255 341.964,199.422 345,183.5C 346.201,179.644 348.201,176.311 351,173.5C 354.917,174.927 358.751,176.261 362.5,177.5 Z"/></g>
<g><path style="opacity:1" fill="#3c1d02" d="M 236.5,177.5 C 240.107,178.946 242.607,181.612 244,185.5C 246.679,196.82 242.846,204.987 232.5,210C 217.259,213.716 208.259,207.883 205.5,192.5C 215.156,186.172 225.489,181.172 236.5,177.5 Z"/></g>
<g><path style="opacity:1" fill="#3c1d03" d="M 362.5,177.5 C 373.506,181.17 383.839,186.17 393.5,192.5C 392.039,204.294 385.372,210.627 373.5,211.5C 357.301,208.779 351.468,199.446 356,183.5C 357.121,180.164 359.287,178.164 362.5,177.5 Z"/></g>
<g><path style="opacity:1" fill="#eae8e8" d="M 228.5,186.5 C 236.818,186.987 238.485,190.487 233.5,197C 225.088,196.812 223.421,193.312 228.5,186.5 Z"/></g>
<g><path style="opacity:1" fill="#ecebea" d="M 377.5,186.5 C 385.294,187.252 386.961,190.752 382.5,197C 374.088,196.812 372.421,193.312 377.5,186.5 Z"/></g>
<g><path style="opacity:1" fill="#f9f5f2" d="M 417.5,431.5 C 414.017,444.132 407.684,455.132 398.5,464.5C 394.262,468.69 389.262,470.024 383.5,468.5C 376.388,465.402 370.055,461.069 364.5,455.5C 352.407,440.571 339.073,426.738 324.5,414C 305.745,401.857 287.745,402.857 270.5,417C 257.228,429.433 244.895,442.6 233.5,456.5C 230.474,459.195 227.474,461.862 224.5,464.5C 220.914,467.77 216.581,469.437 211.5,469.5C 207.136,469.148 203.469,467.481 200.5,464.5C 191.316,455.132 184.983,444.132 181.5,431.5C 179.989,428.456 179.322,425.122 179.5,421.5C 174.956,383.219 179.789,346.219 194,310.5C 204.085,284.437 219.585,262.27 240.5,244C 261.141,226.899 284.807,219.899 311.5,223C 338.734,228.245 360.901,241.745 378,263.5C 415.051,313.712 428.217,369.712 417.5,431.5 Z"/></g>
<g><path style="opacity:1" fill="#050404" d="M 287.5,305.5 C 303.842,304.113 319.509,306.613 334.5,313C 345.442,320.908 348.942,331.408 345,344.5C 342.083,352.754 336.917,359.254 329.5,364C 300.769,380.872 276.269,376.039 256,349.5C 248.085,330.5 253.585,317 272.5,309C 277.705,308.149 282.705,306.982 287.5,305.5 Z"/></g>
<g><path style="opacity:1" fill="#221714" d="M 295.5,315.5 C 308.731,315.084 320.731,318.584 331.5,326C 335.203,329.396 336.369,333.563 335,338.5C 326.131,354.51 312.631,362.677 294.5,363C 280.841,359.357 270.675,351.19 264,338.5C 262.419,332.938 263.919,328.438 268.5,325C 271.023,324.482 273.023,323.148 274.5,321C 281.453,318.519 288.453,316.685 295.5,315.5 Z"/></g>
<g><path style="opacity:1" fill="#f5bcbc" d="M 355.5,464.5 C 343.576,499.8 319.242,513.967 282.5,507C 262.791,499.146 249.791,484.979 243.5,464.5C 255.563,449.933 268.563,436.099 282.5,423C 293.804,414.402 305.137,414.402 316.5,423C 330.437,436.099 343.437,449.933 355.5,464.5 Z"/></g>
<g><path style="opacity:1" fill="#c3baa9" d="M 417.5,431.5 C 415.78,441.94 411.613,451.273 405,459.5C 403.223,461.79 401.056,463.457 398.5,464.5C 407.684,455.132 414.017,444.132 417.5,431.5 Z"/></g>
<g><path style="opacity:1" fill="#d4cab7" d="M 243.5,464.5 C 249.791,484.979 262.791,499.146 282.5,507C 319.242,513.967 343.576,499.8 355.5,464.5C 365.644,474.905 377.977,479.738 392.5,479C 401.719,476.809 409.219,471.975 415,464.5C 418.601,457.842 422.101,451.176 425.5,444.5C 437.866,457.376 452.033,467.709 468,475.5C 467.839,481.645 466.339,487.478 463.5,493C 462.167,493.667 460.833,493.667 459.5,493C 456.52,490.025 453.02,487.859 449,486.5C 443.679,489.154 439.679,493.154 437,498.5C 431.84,509.495 425.673,519.828 418.5,529.5C 412.012,537.002 404.012,542.002 394.5,544.5C 397.677,536.641 401.01,528.808 404.5,521C 404.355,520.228 404.022,519.561 403.5,519C 397.439,519.017 391.772,520.684 386.5,524C 382.5,526.667 378.5,529.333 374.5,532C 360.521,546.382 345.354,559.215 329,570.5C 327.739,570.241 326.739,569.574 326,568.5C 325.574,563.66 325.74,558.827 326.5,554C 327.344,547.519 324.51,544.019 318,543.5C 310.101,545.066 305.101,549.733 303,557.5C 302.088,561.795 301.421,566.128 301,570.5C 300.592,572.41 299.425,573.41 297.5,573.5C 292.365,571.705 288.032,568.705 284.5,564.5C 278.382,557.76 272.382,550.927 266.5,544C 263.662,541.242 260.329,540.242 256.5,541C 255.874,541.75 255.374,542.584 255,543.5C 254.898,550.872 255.231,558.206 256,565.5C 254.951,566.517 253.784,566.684 252.5,566C 241.167,553.333 229.833,540.667 218.5,528C 212.716,523.624 206.216,520.791 199,519.5C 197.893,519.585 196.893,519.919 196,520.5C 196.02,526.922 196.853,533.255 198.5,539.5C 188.101,537.374 179.601,532.041 173,523.5C 167.139,513.112 161.806,502.446 157,491.5C 154.354,485.496 149.854,482.996 143.5,484C 139.388,486.568 135.055,488.235 130.5,489C 128.686,484.674 128.186,480.174 129,475.5C 146.159,468.508 160.992,458.175 173.5,444.5C 176.899,451.176 180.399,457.842 184,464.5C 195.494,478.511 209.661,482.344 226.5,476C 232.541,472.652 238.208,468.818 243.5,464.5 Z"/></g>
<g><path style="opacity:1" fill="#c3baaa" d="M 181.5,431.5 C 184.983,444.132 191.316,455.132 200.5,464.5C 193.373,459.517 188.206,452.851 185,444.5C 183.316,440.284 182.149,435.951 181.5,431.5 Z"/></g>
<g><path style="opacity:1" fill="#beb5a5" d="M 233.5,456.5 C 232.055,460.252 229.055,462.918 224.5,464.5C 227.474,461.862 230.474,459.195 233.5,456.5 Z"/></g>
<g><path style="opacity:1" fill="#bfb6a6" d="M 364.5,455.5 C 370.055,461.069 376.388,465.402 383.5,468.5C 375.991,467.17 369.824,463.504 365,457.5C 364.536,456.906 364.369,456.239 364.5,455.5 Z"/></g>
</svg>
