<?xml version="1.0" encoding="UTF-8"?>
<!DOCTYPE svg PUBLIC "-//W3C//DTD SVG 1.1//EN" "http://www.w3.org/Graphics/SVG/1.1/DTD/svg11.dtd">
<svg xmlns="http://www.w3.org/2000/svg" version="1.1" width="600px" height="600px" style="shape-rendering:geometricPrecision; text-rendering:geometricPrecision; image-rendering:optimizeQuality; fill-rule:evenodd; clip-rule:evenodd" xmlns:xlink="http://www.w3.org/1999/xlink">
<g><path style="opacity:0.966" fill="#030303" d="M 599.5,302.5 C 599.5,327.167 599.5,351.833 599.5,376.5C 596.867,384 594.367,391.667 592,399.5C 590.533,402.266 588.7,404.766 586.5,407C 575.093,411.87 564.093,417.537 553.5,424C 546.005,428.208 538.005,429.875 529.5,429C 520.39,426.701 511.224,424.867 502,423.5C 490.159,447.674 472.493,466.341 449,479.5C 446.83,490.512 440.664,498.512 430.5,503.5C 426.16,513.839 418.493,520.172 407.5,522.5C 400.643,532.096 391.31,537.263 379.5,538C 370.482,546.229 359.815,549.896 347.5,549C 338.437,554.284 328.77,555.784 318.5,553.5C 313.231,554.817 307.898,555.817 302.5,556.5C 295.979,555.929 289.646,554.596 283.5,552.5C 273.23,554.784 263.563,553.284 254.5,548C 242.185,548.896 231.518,545.229 222.5,537C 210.805,537.321 201.805,532.654 195.5,523C 184.01,520.839 176.177,514.339 172,503.5C 161.002,498.678 154.835,490.344 153.5,478.5C 150.309,477.908 147.309,476.741 144.5,475C 124.389,462.058 109.056,444.892 98.5,423.5C 89.3878,424.731 80.3878,426.564 71.5,429C 64.5602,429.933 57.8936,428.933 51.5,426C 39.2606,419.381 26.9273,413.048 14.5,407C 11.1291,403.764 8.62911,399.931 7,395.5C 5.33333,389.5 3.66667,383.5 2,377.5C 1.3918,375.934 0.558465,374.6 -0.5,373.5C -0.5,351.167 -0.5,328.833 -0.5,306.5C 3.28739,298.925 7.12073,291.259 11,283.5C 12.0795,274.007 14.7462,265.007 19,256.5C 24.6667,248.5 30.3333,240.5 36,232.5C 38.8434,221.996 43.8434,212.662 51,204.5C 60.3814,196.468 67.3814,186.801 72,175.5C 74.186,171.802 76.8527,168.468 80,165.5C 80.4828,164.552 80.6495,163.552 80.5,162.5C 73.6555,160.98 69.9888,156.647 69.5,149.5C 70.3201,145.026 72.3201,141.192 75.5,138C 82.0114,133.241 89.0114,129.241 96.5,126C 107.327,121.45 117.994,116.616 128.5,111.5C 123.203,104.483 123.869,97.9832 130.5,92C 143.454,85.807 157.121,82.1403 171.5,81C 175.243,79.8635 178.91,78.5302 182.5,77C 173.434,72.3734 170.268,65.2067 173,55.5C 178.131,49.7434 184.631,46.7434 192.5,46.5C 187.939,35.9587 191.106,29.292 202,26.5C 219.227,31.4451 234.56,39.7784 248,51.5C 250.936,48.3696 252.936,44.7029 254,40.5C 258.546,36.2512 263.713,35.4179 269.5,38C 272.666,40.802 275.499,43.9687 278,47.5C 279.752,42.0753 281.752,36.742 284,31.5C 290.813,26.2723 297.147,26.939 303,33.5C 307.587,41.0045 311.92,48.6712 316,56.5C 320,47.8333 324,39.1667 328,30.5C 334.523,22.8616 341.856,21.8616 350,27.5C 351.503,30.8756 353.003,34.209 354.5,37.5C 363.71,30.556 374.043,27.056 385.5,27C 394.514,30.7175 396.848,37.0509 392.5,46C 398.503,47.0355 404.003,49.2021 409,52.5C 412.239,57.2088 412.739,62.0421 410.5,67C 413.008,69.6896 415.008,72.6896 416.5,76C 428.313,81.0236 440.647,84.0236 453.5,85C 461.528,86.2635 468.361,89.7635 474,95.5C 477.542,101.429 477.042,106.929 472.5,112C 488.739,118.786 504.739,126.119 520.5,134C 526.813,137.64 530.813,142.973 532.5,150C 531.5,157.667 527.167,162 519.5,163C 522.211,166.922 525.045,170.756 528,174.5C 531.94,185.119 538.273,194.119 547,201.5C 555.254,210.004 560.92,220.004 564,231.5C 570.333,240.5 576.667,249.5 583,258.5C 586.139,266.955 588.473,275.622 590,284.5C 592.941,290.72 596.108,296.72 599.5,302.5 Z"/></g>
<g><path style="opacity:1" fill="#3d3938" d="M 522.5,189.5 C 524.048,193.598 525.881,197.598 528,201.5C 530.743,211.628 527.577,214.461 518.5,210C 510.401,207.281 506.401,210.115 506.5,218.5C 509.14,233.256 513.307,247.589 519,261.5C 519.667,264.833 519.667,268.167 519,271.5C 515.289,273.037 511.455,274.37 507.5,275.5C 505.056,274.778 502.722,273.778 500.5,272.5C 497.459,274.081 495.793,276.581 495.5,280C 496.466,283.23 497.633,286.397 499,289.5C 503.169,295.166 506.835,301.166 510,307.5C 511.001,311.154 510.001,314.154 507,316.5C 506.55,320.188 506.717,323.854 507.5,327.5C 505.821,327.285 504.821,327.952 504.5,329.5C 504.52,334.914 505.187,340.247 506.5,345.5C 505.767,352.447 503.767,358.947 500.5,365C 498.833,365.667 497.167,365.667 495.5,365C 491.701,362.203 488.201,359.036 485,355.5C 484.833,356 484.667,356.5 484.5,357C 487.135,375.337 490.468,393.503 494.5,411.5C 487.932,430.267 476.766,445.934 461,458.5C 460.333,456.167 460.333,453.833 461,451.5C 468.157,443.199 469.991,433.866 466.5,423.5C 471.708,413.543 471.708,403.543 466.5,393.5C 469.19,383.262 467.023,374.262 460,366.5C 460.715,357.662 458.215,349.995 452.5,343.5C 457.312,326.919 461.812,310.252 466,293.5C 470.857,272.47 468.857,252.137 460,232.5C 442.105,192.986 412.605,166.486 371.5,153C 339.561,147.877 318.061,160.377 307,190.5C 305.934,196.269 305.434,202.102 305.5,208C 306.193,218.832 306.36,229.666 306,240.5C 304.971,244.889 303.138,248.889 300.5,252.5C 297.421,249.107 295.588,245.107 295,240.5C 294.821,225.496 294.821,210.496 295,195.5C 288.342,167.66 270.676,152.993 242,151.5C 232.049,151.696 222.549,153.863 213.5,158C 171.543,178.955 144.71,212.121 133,257.5C 131.793,271.664 132.793,285.664 136,299.5C 140.327,314.475 144.493,329.475 148.5,344.5C 143.623,350.971 141.456,358.305 142,366.5C 135.281,374.376 133.114,383.376 135.5,393.5C 133.311,398.423 131.977,403.59 131.5,409C 132.221,414.163 133.554,419.163 135.5,424C 132.801,434.131 134.634,443.297 141,451.5C 141.667,454.167 141.667,456.833 141,459.5C 124.319,447.105 112.819,431.105 106.5,411.5C 106.335,407.818 106.501,404.152 107,400.5C 111.406,385.719 114.406,370.719 116,355.5C 112.167,358.667 108.333,361.833 104.5,365C 102.299,365.825 100.466,365.325 99,363.5C 93.8192,353.694 93.3192,343.694 97.5,333.5C 96.8444,331.547 96.5111,329.547 96.5,327.5C 95.5,327.5 94.5,327.5 93.5,327.5C 93.3975,324.781 93.7308,322.115 94.5,319.5C 93.3515,317.203 92.1848,314.87 91,312.5C 90.3333,310.5 90.3333,308.5 91,306.5C 93.8328,300.83 97.1661,295.497 101,290.5C 103.877,286.211 104.877,281.544 104,276.5C 103,274.833 101.667,273.5 100,272.5C 96.0317,275.304 92.0317,275.638 88,273.5C 80.8444,275.611 78.5111,272.944 81,265.5C 86.2277,248.991 90.7277,232.324 94.5,215.5C 94.7079,210.877 92.5413,208.21 88,207.5C 84.2885,208.866 80.7885,210.699 77.5,213C 70.9986,213.812 68.8319,210.979 71,204.5C 72.5127,200.812 74.0127,197.145 75.5,193.5C 77.8547,189.449 79.688,185.116 81,180.5C 86,174.167 91,167.833 96,161.5C 97.7104,158.577 97.877,155.577 96.5,152.5C 95.3333,152.167 94.1667,151.833 93,151.5C 89.5123,152.45 86.0123,152.95 82.5,153C 79.7348,150.034 80.0682,147.367 83.5,145C 87.8409,141.828 92.5076,139.161 97.5,137C 111.738,131.215 125.738,124.882 139.5,118C 143.552,115.624 144.385,112.457 142,108.5C 139.357,107.024 137.19,105.024 135.5,102.5C 138.729,99.0499 142.729,96.8832 147.5,96C 166.278,93.8054 184.278,88.8054 201.5,81C 199.695,80.028 198.028,78.8613 196.5,77.5C 199.797,76.8576 200.131,75.6909 197.5,74C 190.803,71.458 185.47,67.2913 181.5,61.5C 185.466,57.9109 190.133,56.7442 195.5,58C 206.058,61.9455 216.058,66.9455 225.5,73C 227.83,74.3454 230.163,74.5121 232.5,73.5C 224.21,66.3804 216.043,59.0471 208,51.5C 204.183,47.5315 201.683,42.8649 200.5,37.5C 208.29,39.0431 215.624,41.8764 222.5,46C 232.341,52.4199 242.007,59.0865 251.5,66C 253.701,66.8249 255.534,66.3249 257,64.5C 257.497,61.854 257.664,59.1873 257.5,56.5C 259.167,56.5 260.833,56.5 262.5,56.5C 262.18,53.1016 262.513,49.7683 263.5,46.5C 269.056,52.5979 273.889,59.2645 278,66.5C 280.837,68.5854 283.837,68.9187 287,67.5C 287.499,62.5111 287.666,57.5111 287.5,52.5C 288.5,52.5 289.5,52.5 290.5,52.5C 290.334,48.1539 290.501,43.8206 291,39.5C 293.091,38.5004 294.757,39.1671 296,41.5C 300,48.8333 304,56.1667 308,63.5C 314.457,69.2914 320.124,68.6247 325,61.5C 328.86,53.5844 332.527,45.5844 336,37.5C 337.509,35.0807 339.675,34.0807 342.5,34.5C 342.21,43.3618 341.043,52.0284 339,60.5C 351.628,50.1836 365.628,42.1836 381,36.5C 382.662,36.3875 383.829,37.0542 384.5,38.5C 375.388,50.4462 365.055,61.2795 353.5,71C 356.257,71.5837 358.923,71.2504 361.5,70C 369.927,65.4527 378.594,61.4527 387.5,58C 391.905,57.3041 396.239,57.6374 400.5,59C 401.554,60.3876 401.72,61.8876 401,63.5C 395.431,68.0348 389.597,72.2014 383.5,76C 390.854,75.7194 398.187,75.8861 405.5,76.5C 404.252,78.4586 402.585,79.9586 400.5,81C 416.252,88.9169 432.918,93.5836 450.5,95C 455.136,95.8786 459.469,97.5452 463.5,100C 465.211,101.133 465.711,102.633 465,104.5C 463.316,106.351 461.483,108.018 459.5,109.5C 457.96,112.291 458.294,114.791 460.5,117C 479.167,126 497.833,135 516.5,144C 518,145.5 519.5,147 521,148.5C 521.684,149.784 521.517,150.951 520.5,152C 515.149,152.263 509.816,152.263 504.5,152C 503.426,152.739 502.759,153.739 502.5,155C 507.623,163.409 513.123,171.575 519,179.5C 520.47,182.744 521.637,186.077 522.5,189.5 Z"/></g>
<g><path style="opacity:1" fill="#686363" d="M 452.5,343.5 C 450.871,342.375 449.371,341.041 448,339.5C 446.973,334.079 444.973,329.079 442,324.5C 437.952,320.784 433.618,317.45 429,314.5C 425.257,304.428 418.09,298.261 407.5,296C 400.892,286.026 391.559,280.693 379.5,280C 370.516,271.782 359.85,268.115 347.5,269C 338.123,262.411 327.956,260.911 317,264.5C 306.147,259.191 295.314,259.191 284.5,264.5C 273.74,260.943 263.74,262.443 254.5,269C 242.197,268.1 231.53,271.767 222.5,280C 210.902,280.788 201.902,285.955 195.5,295.5C 184.506,297.74 177.006,304.074 173,314.5C 162.293,319.892 155.96,328.559 154,340.5C 152.008,341.665 150.175,342.998 148.5,344.5C 144.493,329.475 140.327,314.475 136,299.5C 132.793,285.664 131.793,271.664 133,257.5C 144.71,212.121 171.543,178.955 213.5,158C 222.549,153.863 232.049,151.696 242,151.5C 270.676,152.993 288.342,167.66 295,195.5C 294.821,210.496 294.821,225.496 295,240.5C 295.588,245.107 297.421,249.107 300.5,252.5C 303.138,248.889 304.971,244.889 306,240.5C 306.36,229.666 306.193,218.832 305.5,208C 305.434,202.102 305.934,196.269 307,190.5C 318.061,160.377 339.561,147.877 371.5,153C 412.605,166.486 442.105,192.986 460,232.5C 468.857,252.137 470.857,272.47 466,293.5C 461.812,310.252 457.312,326.919 452.5,343.5 Z"/></g>
<g><path style="opacity:1" fill="#686363" d="M 75.5,193.5 C 74.0127,197.145 72.5127,200.812 71,204.5C 68.8319,210.979 70.9986,213.812 77.5,213C 80.7885,210.699 84.2885,208.866 88,207.5C 92.5413,208.21 94.7079,210.877 94.5,215.5C 90.7277,232.324 86.2277,248.991 81,265.5C 78.5111,272.944 80.8444,275.611 88,273.5C 92.0317,275.638 96.0317,275.304 100,272.5C 101.667,273.5 103,274.833 104,276.5C 104.877,281.544 103.877,286.211 101,290.5C 97.1661,295.497 93.8328,300.83 91,306.5C 90.3333,308.5 90.3333,310.5 91,312.5C 92.1848,314.87 93.3515,317.203 94.5,319.5C 93.7308,322.115 93.3975,324.781 93.5,327.5C 94.5,327.5 95.5,327.5 96.5,327.5C 96.5111,329.547 96.8444,331.547 97.5,333.5C 93.3192,343.694 93.8192,353.694 99,363.5C 100.466,365.325 102.299,365.825 104.5,365C 108.333,361.833 112.167,358.667 116,355.5C 114.406,370.719 111.406,385.719 107,400.5C 106.501,404.152 106.335,407.818 106.5,411.5C 92.8242,413.261 79.3242,415.927 66,419.5C 61.9855,418.94 58.1521,417.773 54.5,416C 44.2775,409.777 33.6108,404.444 22.5,400C 21.3333,398.833 20.1667,397.667 19,396.5C 15.8641,389.091 13.5307,381.425 12,373.5C 9.91637,369.664 7.58304,365.997 5,362.5C 4.33333,357.833 4.33333,353.167 5,348.5C 8.2498,337.338 9.2498,326.005 8,314.5C 13.5495,303.402 18.5495,292.068 23,280.5C 23.2077,276.082 23.8744,271.749 25,267.5C 30.8385,257.821 37.1718,248.487 44,239.5C 46.2483,231.67 49.5817,224.337 54,217.5C 60.9493,209.239 68.116,201.239 75.5,193.5 Z"/></g>
<g><path style="opacity:1" fill="#686363" d="M 522.5,189.5 C 530.76,199.602 539.26,209.602 548,219.5C 551.255,225.6 553.921,231.934 556,238.5C 562.579,247.325 568.913,256.325 575,265.5C 575.754,273.046 577.421,280.38 580,287.5C 584.775,296.615 589.109,305.948 593,315.5C 592.015,327.625 593.015,339.625 596,351.5C 597.802,359.092 595.802,365.425 590,370.5C 587.699,376.705 585.866,383.038 584.5,389.5C 557.833,369.5 531.167,349.5 504.5,329.5C 504.821,327.952 505.821,327.285 507.5,327.5C 506.717,323.854 506.55,320.188 507,316.5C 510.001,314.154 511.001,311.154 510,307.5C 506.835,301.166 503.169,295.166 499,289.5C 497.633,286.397 496.466,283.23 495.5,280C 495.793,276.581 497.459,274.081 500.5,272.5C 502.722,273.778 505.056,274.778 507.5,275.5C 511.455,274.37 515.289,273.037 519,271.5C 519.667,268.167 519.667,264.833 519,261.5C 513.307,247.589 509.14,233.256 506.5,218.5C 506.401,210.115 510.401,207.281 518.5,210C 527.577,214.461 530.743,211.628 528,201.5C 525.881,197.598 524.048,193.598 522.5,189.5 Z"/></g>
<g><path style="opacity:1" fill="#302826" d="M 221.5,205.5 C 243.35,205.182 253.85,215.849 253,237.5C 245.335,256.841 231.835,262.341 212.5,254C 197.714,241.012 196.714,227.012 209.5,212C 213.434,209.536 217.434,207.369 221.5,205.5 Z"/></g>
<g><path style="opacity:1" fill="#302826" d="M 367.5,205.5 C 393.014,206.167 402.848,218.834 397,243.5C 388.875,256.545 377.375,260.712 362.5,256C 350.371,248.978 345.538,238.478 348,224.5C 351.748,215.251 358.248,208.917 367.5,205.5 Z"/></g>
<g><path style="opacity:1" fill="#f4f4f4" d="M 228.5,216.5 C 236.665,215.175 240.498,218.509 240,226.5C 235.876,233.613 230.876,234.28 225,228.5C 223.213,223.69 224.379,219.69 228.5,216.5 Z"/></g>
<g><path style="opacity:1" fill="#f6f6f5" d="M 374.5,216.5 C 383.158,215.327 386.992,218.994 386,227.5C 381.049,234.154 376.049,234.154 371,227.5C 369.882,223.077 371.049,219.41 374.5,216.5 Z"/></g>
<g><path style="opacity:1" fill="#f6f3f0" d="M 438.5,344.5 C 441.463,348.798 444.797,352.798 448.5,356.5C 449.219,361.118 449.719,365.785 450,370.5C 452.765,374.261 455.098,378.261 457,382.5C 457.158,386.381 456.658,390.215 455.5,394C 456.872,398.895 458.538,403.728 460.5,408.5C 459.945,412.054 458.779,415.387 457,418.5C 457.12,425.161 457.12,431.827 457,438.5C 455.248,441.672 453.248,444.672 451,447.5C 450.667,451.833 450.333,456.167 450,460.5C 447.42,465.084 444.087,469.084 440,472.5C 438.793,476.867 437.459,481.2 436,485.5C 431.289,489.88 426.289,493.88 421,497.5C 419.974,501.722 417.807,505.222 414.5,508C 409.954,510.302 405.287,512.302 400.5,514C 394.681,523.078 386.347,527.745 375.5,528C 372.268,529.23 369.601,531.23 367.5,534C 365.283,535.275 362.949,536.275 360.5,537C 355.5,537.333 350.5,537.667 345.5,538C 336.838,543.447 327.505,544.947 317.5,542.5C 312.264,543.909 306.931,544.909 301.5,545.5C 295.618,544.982 289.952,543.648 284.5,541.5C 279.27,543.137 273.936,543.637 268.5,543C 264.221,541.527 260.221,539.527 256.5,537C 250.833,536.667 245.167,536.333 239.5,536C 235.553,533.72 231.887,531.053 228.5,528C 221.866,527.382 215.533,525.716 209.5,523C 206.734,519.478 203.734,516.145 200.5,513C 190.6,511.982 184.1,506.815 181,497.5C 176.515,493.592 171.848,489.926 167,486.5C 165.209,481.887 163.543,477.22 162,472.5C 158.63,469.465 155.63,466.132 153,462.5C 151.839,457.584 151.173,452.584 151,447.5C 144.313,440.491 142.813,432.491 146.5,423.5C 144.567,418.977 143.233,414.311 142.5,409.5C 143.391,404.55 144.724,399.717 146.5,395C 143.063,385.916 144.896,378.082 152,371.5C 152.173,366.416 152.839,361.416 154,356.5C 156.964,352.534 160.297,348.867 164,345.5C 164.877,341.025 166.211,336.692 168,332.5C 172.485,328.592 177.152,324.926 182,321.5C 185.417,311.756 192.25,305.922 202.5,304C 208.05,295.222 216.05,290.555 226.5,290C 231.167,287 235.833,284 240.5,281C 245.833,280.667 251.167,280.333 256.5,280C 260.5,278 264.5,276 268.5,274C 271.817,273.502 275.15,273.335 278.5,273.5C 281.373,275.482 284.373,275.815 287.5,274.5C 291.538,273.421 295.538,272.421 299.5,271.5C 305.357,272.423 311.19,273.423 317,274.5C 322.158,273.7 327.325,273.533 332.5,274C 336.953,275.726 341.286,277.726 345.5,280C 351.581,280.138 357.581,280.804 363.5,282C 367.5,284.667 371.5,287.333 375.5,290C 385.965,290.47 393.965,295.137 399.5,304C 404.978,305.933 410.145,308.433 415,311.5C 417.254,315.007 419.254,318.673 421,322.5C 425.694,325.349 430.027,328.682 434,332.5C 435.82,336.496 437.32,340.496 438.5,344.5 Z"/></g>
<g><path style="opacity:1" fill="#7a7776" d="M 278.5,273.5 C 281.482,273.963 284.482,274.296 287.5,274.5C 284.373,275.815 281.373,275.482 278.5,273.5 Z"/></g>
<g><path style="opacity:1" fill="#646060" d="M 504.5,329.5 C 531.167,349.5 557.833,369.5 584.5,389.5C 583.496,393.008 581.829,396.174 579.5,399C 565.68,405.41 552.013,412.077 538.5,419C 535.833,419.667 533.167,419.667 530.5,419C 518.535,416.174 506.535,413.674 494.5,411.5C 490.468,393.503 487.135,375.337 484.5,357C 484.667,356.5 484.833,356 485,355.5C 488.201,359.036 491.701,362.203 495.5,365C 497.167,365.667 498.833,365.667 500.5,365C 503.767,358.947 505.767,352.447 506.5,345.5C 505.187,340.247 504.52,334.914 504.5,329.5 Z"/></g>
<g><path style="opacity:1" fill="#524f4e" d="M 438.5,344.5 C 442.994,347.65 446.328,351.65 448.5,356.5C 444.797,352.798 441.463,348.798 438.5,344.5 Z"/></g>
<g><path style="opacity:1" fill="#090808" d="M 286.5,362.5 C 298.21,362.168 309.876,362.668 321.5,364C 345.298,369.429 352.131,383.262 342,405.5C 316.551,431.937 289.885,433.271 262,409.5C 253.285,398.489 252.285,386.822 259,374.5C 266.933,367.474 276.1,363.474 286.5,362.5 Z"/></g>
<g><path style="opacity:1" fill="#443c3b" d="M 292.5,372.5 C 305.369,371.14 317.703,372.973 329.5,378C 337.399,384.016 338.566,391.183 333,399.5C 311.246,422.018 289.579,422.018 268,399.5C 262.34,391.056 263.506,383.889 271.5,378C 278.19,374.488 285.19,372.654 292.5,372.5 Z"/></g>
</svg>
