<?xml version="1.0" encoding="UTF-8"?>
<!DOCTYPE svg PUBLIC "-//W3C//DTD SVG 1.1//EN" "http://www.w3.org/Graphics/SVG/1.1/DTD/svg11.dtd">
<svg xmlns="http://www.w3.org/2000/svg" version="1.1" width="600px" height="600px" style="shape-rendering:geometricPrecision; text-rendering:geometricPrecision; image-rendering:optimizeQuality; fill-rule:evenodd; clip-rule:evenodd" xmlns:xlink="http://www.w3.org/1999/xlink">
<g><path style="opacity:0.978" fill="#020202" d="M 599.5,159.5 C 599.5,176.5 599.5,193.5 599.5,210.5C 584.513,237.091 565.68,260.757 543,281.5C 542.402,331.491 532.735,379.491 514,425.5C 507.712,439.925 499.546,453.092 489.5,465C 486.978,466.341 484.311,467.174 481.5,467.5C 481.076,472.192 479.576,476.525 477,480.5C 464.903,493.942 451.069,505.109 435.5,514C 431.806,520.55 427.973,527.05 424,533.5C 404.03,552.37 380.53,558.87 353.5,553C 345.312,551.27 337.312,548.937 329.5,546C 312.669,546.729 295.836,546.563 279,545.5C 276.167,545.667 273.333,545.833 270.5,546C 256.764,551.143 242.598,554.309 228,555.5C 207.661,554.99 190.328,547.657 176,533.5C 171.446,527.058 167.946,520.058 165.5,512.5C 151.689,503.865 139.189,493.532 128,481.5C 125.295,477.557 123.462,473.224 122.5,468.5C 118.503,467.338 115.003,465.338 112,462.5C 91.8788,433.1 78.2121,401.1 71,366.5C 65.4525,340.453 62.1191,314.12 61,287.5C 35.7431,265.096 15.2431,239.096 -0.5,209.5C -0.5,193.167 -0.5,176.833 -0.5,160.5C 8.05586,148.017 18.7225,137.517 31.5,129C 62.232,106.467 95.8987,89.4668 132.5,78C 149.757,74.9149 167.09,72.4149 184.5,70.5C 182.428,55.4135 189.095,49.2469 204.5,52C 215.906,53.8481 227.24,56.0147 238.5,58.5C 238.64,49.5295 243.474,44.8628 253,44.5C 269.611,46.7042 285.277,51.7042 300,59.5C 314.76,51.7253 330.427,46.7253 347,44.5C 356.493,44.3253 361.493,48.9919 362,58.5C 376.25,54.6528 390.75,52.4861 405.5,52C 410.573,52.4406 414.073,54.9406 416,59.5C 416.13,63.1112 416.297,66.6112 416.5,70C 435.954,72.6977 455.288,76.0311 474.5,80C 518.668,95.1501 557.835,118.317 592,149.5C 594.277,153.08 596.777,156.414 599.5,159.5 Z"/></g>
<g><path style="opacity:1" fill="#272626" d="M 452.5,87.5 C 446.467,86.9652 440.801,88.1319 435.5,91C 432.78,94.8176 433.447,98.151 437.5,101C 444.002,104.75 450.335,108.75 456.5,113C 468.444,128.468 475.944,145.968 479,165.5C 482.861,182.778 484.361,200.278 483.5,218C 484.211,238.728 482.377,259.228 478,279.5C 477.333,285.5 477.333,291.5 478,297.5C 482.426,304.626 488.592,306.459 496.5,303C 500.993,300.921 505.326,298.588 509.5,296C 516.727,289.929 524.06,284.096 531.5,278.5C 531.75,308.915 528.417,338.915 521.5,368.5C 517.52,369.891 513.853,369.225 510.5,366.5C 510.167,366.833 509.833,367.167 509.5,367.5C 513.888,371.118 516.888,375.618 518.5,381C 514.797,394.11 510.297,406.944 505,419.5C 488.333,404.167 471.667,388.833 455,373.5C 443.262,352.597 428.096,334.597 409.5,319.5C 436.631,318.036 451.298,303.703 453.5,276.5C 451.308,254.142 439.308,240.309 417.5,235C 392.873,233.229 376.707,244.062 369,267.5C 367.241,278.089 368.741,288.089 373.5,297.5C 366.354,295.285 359.188,292.952 352,290.5C 348.484,284.964 345.15,279.297 342,273.5C 338.276,264.996 335.776,256.162 334.5,247C 335.656,238.538 337.822,230.372 341,222.5C 350.821,204.201 359.488,185.534 367,166.5C 380.04,120.62 363.54,92.4538 317.5,82C 296.434,78.0253 276.434,81.0253 257.5,91C 237.935,101.624 228.935,118.124 230.5,140.5C 230.464,155.647 233.63,169.98 240,183.5C 250.595,201.686 259.262,220.686 266,240.5C 267.182,248.147 266.182,255.48 263,262.5C 259.187,272.5 254.353,281.833 248.5,290.5C 241.402,292.644 234.402,294.977 227.5,297.5C 238.637,270.067 230.97,249.9 204.5,237C 184.317,230.729 167.817,235.896 155,252.5C 142.054,275.879 145.887,296.046 166.5,313C 174.132,317.934 182.465,320.101 191.5,319.5C 163.172,341.332 143.672,369.332 133,403.5C 129.523,419.985 127.856,436.652 128,453.5C 126.136,456.207 123.636,457.041 120.5,456C 103.58,432.571 92.08,406.738 86,378.5C 87.8019,375.056 89.9685,371.889 92.5,369C 92.1667,368.5 91.8333,368 91.5,367.5C 88.4102,369.359 85.2435,369.692 82,368.5C 75.8714,340.843 72.7048,312.843 72.5,284.5C 81.7963,292.285 91.7963,299.118 102.5,305C 110.297,308.279 116.464,306.446 121,299.5C 121.667,292.5 121.667,285.5 121,278.5C 113.667,239.152 113.667,199.819 121,160.5C 123.919,145.337 129.586,131.337 138,118.5C 144.705,111.126 152.538,105.292 161.5,101C 167.285,95.9252 166.618,91.9252 159.5,89C 155.534,88.1721 151.534,87.6721 147.5,87.5C 155.195,84.9315 163.195,83.0982 171.5,82C 184.178,80.5359 196.844,79.0359 209.5,77.5C 209.703,75.6096 209.037,74.1096 207.5,73C 202.774,70.3102 198.44,67.1435 194.5,63.5C 198.795,62.3391 203.129,62.1725 207.5,63C 222.623,66.7826 237.956,68.9492 253.5,69.5C 252.752,64.67 251.419,60.0033 249.5,55.5C 266.138,56.2129 281.472,61.0463 295.5,70C 298.5,70.6667 301.5,70.6667 304.5,70C 318.547,61.0396 333.881,56.2063 350.5,55.5C 349.895,59.5517 348.562,63.3851 346.5,67C 346.645,67.772 346.978,68.4387 347.5,69C 362.401,68.962 377.068,66.962 391.5,63C 396.533,62.1711 401.533,62.3377 406.5,63.5C 401.887,67.4799 396.887,70.9799 391.5,74C 390.663,75.0113 390.33,76.1779 390.5,77.5C 404.773,79.6603 419.107,81.4936 433.5,83C 440.065,84.0751 446.398,85.5751 452.5,87.5 Z"/></g>
<g><path style="opacity:1" fill="#3b3b3a" d="M 147.5,87.5 C 151.534,87.6721 155.534,88.1721 159.5,89C 166.618,91.9252 167.285,95.9252 161.5,101C 152.538,105.292 144.705,111.126 138,118.5C 129.586,131.337 123.919,145.337 121,160.5C 113.667,199.819 113.667,239.152 121,278.5C 121.667,285.5 121.667,292.5 121,299.5C 116.464,306.446 110.297,308.279 102.5,305C 91.7963,299.118 81.7963,292.285 72.5,284.5C 48.445,262.952 28.2783,238.285 12,210.5C 1.01262,191.624 2.01262,173.624 15,156.5C 49.681,125.064 89.5143,102.231 134.5,88C 138.821,87.501 143.154,87.3343 147.5,87.5 Z"/></g>
<g><path style="opacity:1" fill="#3b3b3a" d="M 452.5,87.5 C 461.446,87.3799 470.112,88.8799 478.5,92C 518.334,107.149 553.834,128.982 585,157.5C 596.518,171.17 598.518,186.17 591,202.5C 575.721,231.387 555.888,256.72 531.5,278.5C 524.06,284.096 516.727,289.929 509.5,296C 505.326,298.588 500.993,300.921 496.5,303C 488.592,306.459 482.426,304.626 478,297.5C 477.333,291.5 477.333,285.5 478,279.5C 482.377,259.228 484.211,238.728 483.5,218C 484.361,200.278 482.861,182.778 479,165.5C 475.944,145.968 468.444,128.468 456.5,113C 450.335,108.75 444.002,104.75 437.5,101C 433.447,98.151 432.78,94.8176 435.5,91C 440.801,88.1319 446.467,86.9652 452.5,87.5 Z"/></g>
<g><path style="opacity:1" fill="#f6f4f4" d="M 344.5,298.5 C 344.265,299.097 343.765,299.43 343,299.5C 313.845,292.879 284.679,292.879 255.5,299.5C 265.307,285.548 272.14,270.215 276,253.5C 277.17,240.841 274.836,228.841 269,217.5C 258.077,197.99 249.077,177.657 242,156.5C 234.556,124.542 246.389,103.709 277.5,94C 300.479,87.3292 322.146,90.3292 342.5,103C 355.282,111.731 361.282,123.897 360.5,139.5C 360.202,152.431 357.368,164.764 352,176.5C 345.256,190.987 338.256,205.32 331,219.5C 322.163,238.622 322.496,257.622 332,276.5C 335.926,284.023 340.092,291.356 344.5,298.5 Z"/></g>
<g><path style="opacity:1" fill="#3b3b3a" d="M 227.5,297.5 C 214.869,303.815 202.869,311.148 191.5,319.5C 182.465,320.101 174.132,317.934 166.5,313C 145.887,296.046 142.054,275.879 155,252.5C 167.817,235.896 184.317,230.729 204.5,237C 230.97,249.9 238.637,270.067 227.5,297.5 Z"/></g>
<g><path style="opacity:1" fill="#3b3b3a" d="M 409.5,319.5 C 397.798,311.65 385.798,304.317 373.5,297.5C 368.741,288.089 367.241,278.089 369,267.5C 376.707,244.062 392.873,233.229 417.5,235C 439.308,240.309 451.308,254.142 453.5,276.5C 451.298,303.703 436.631,318.036 409.5,319.5 Z"/></g>
<g><path style="opacity:1" fill="#010101" d="M 184.5,250.5 C 206.33,250.162 216.83,260.829 216,282.5C 211.081,298.55 200.248,305.383 183.5,303C 168.181,297.538 161.681,286.705 164,270.5C 167.444,260.221 174.278,253.554 184.5,250.5 Z"/></g>
<g><path style="opacity:1" fill="#010101" d="M 405.5,250.5 C 427.34,250.172 437.84,260.839 437,282.5C 432.362,298.241 421.862,305.074 405.5,303C 389.455,298.094 382.622,287.26 385,270.5C 388.453,260.212 395.286,253.545 405.5,250.5 Z"/></g>
<g><path style="opacity:1" fill="#eeeeee" d="M 196.5,258.5 C 203.888,259.627 206.388,263.627 204,270.5C 197.438,275.384 192.938,273.884 190.5,266C 191.274,262.405 193.274,259.905 196.5,258.5 Z"/></g>
<g><path style="opacity:1" fill="#efefef" d="M 415.5,259.5 C 422.669,258.513 426.169,261.513 426,268.5C 422.549,274.353 418.215,275.019 413,270.5C 410.826,266.193 411.659,262.526 415.5,259.5 Z"/></g>
<g><path style="opacity:1" fill="#f6ede1" d="M 344.5,298.5 C 388.543,311.765 422.376,338.098 446,377.5C 462.572,407.736 466.238,439.402 457,472.5C 455.753,475.329 454.253,477.995 452.5,480.5C 400.289,484.822 355.789,468.489 319,431.5C 314.605,425.434 310.605,419.1 307,412.5C 304.791,405.988 304.124,399.321 305,392.5C 305.273,390.671 306.107,389.171 307.5,388C 322.03,382.331 334.53,373.831 345,362.5C 354.025,343.699 348.858,330.199 329.5,322C 307.881,314.664 286.881,315.997 266.5,326C 253.463,335.948 250.963,348.114 259,362.5C 269.47,373.831 281.97,382.331 296.5,388C 300.228,395.993 300.394,404.159 297,412.5C 288.319,429.515 275.819,443.015 259.5,453C 226.67,475.081 190.504,485.914 151,485.5C 140.372,468.369 136.372,449.703 139,429.5C 140.596,409.379 146.596,390.712 157,373.5C 180.361,336.385 213.194,311.718 255.5,299.5C 284.679,292.879 313.845,292.879 343,299.5C 343.765,299.43 344.265,299.097 344.5,298.5 Z"/></g>
<g><path style="opacity:1" fill="#f5ece0" d="M 292.5,451.5 C 302.412,450.817 312.079,451.984 321.5,455C 333.687,462.506 346.354,469.173 359.5,475C 389.447,487.463 420.114,490.13 451.5,483C 444.962,492.343 436.462,499.176 426,503.5C 420.872,526.958 406.372,540.458 382.5,544C 374.833,544.667 367.167,544.667 359.5,544C 342.266,539.775 325.266,534.775 308.5,529C 300.022,527.989 291.689,528.655 283.5,531C 270.571,535.198 257.571,539.198 244.5,543C 224.961,547.412 206.961,544.079 190.5,533C 181.452,524.744 175.619,514.578 173,502.5C 166.006,499.167 159.673,494.834 154,489.5C 178.76,490.009 203.927,486.843 229.5,480C 245.625,475.297 260.625,468.297 274.5,459C 280.328,455.788 286.328,453.288 292.5,451.5 Z"/></g>
</svg>
