<?xml version="1.0" encoding="UTF-8"?>
<!DOCTYPE svg PUBLIC "-//W3C//DTD SVG 1.1//EN" "http://www.w3.org/Graphics/SVG/1.1/DTD/svg11.dtd">
<svg xmlns="http://www.w3.org/2000/svg" version="1.1" width="600px" height="600px" style="shape-rendering:geometricPrecision; text-rendering:geometricPrecision; image-rendering:optimizeQuality; fill-rule:evenodd; clip-rule:evenodd" xmlns:xlink="http://www.w3.org/1999/xlink">
<g><path style="opacity:0.977" fill="#020101" d="M 599.5,179.5 C 599.5,185.5 599.5,191.5 599.5,197.5C 583.687,263.462 553.853,322.129 510,373.5C 501.07,384.597 489.57,391.263 475.5,393.5C 468.609,393.041 462.776,390.374 458,385.5C 455.385,389.783 452.385,393.783 449,397.5C 445.732,405.903 443.399,414.57 442,423.5C 439.744,443.294 436.744,462.961 433,482.5C 423.64,511.176 403.807,526.343 373.5,528C 348.858,527.087 324.192,526.587 299.5,526.5C 276.974,526.369 254.474,527.036 232,528.5C 196.817,528.768 174.484,512.101 165,478.5C 161.534,459.24 158.534,439.907 156,420.5C 154.824,414.797 153.491,409.13 152,403.5C 147.592,398.348 143.425,393.015 139.5,387.5C 128.678,395.261 117.678,395.428 106.5,388C 100.709,383.878 95.2095,379.378 90,374.5C 45.2794,322.728 15.1127,263.394 -0.5,196.5C -0.5,191.167 -0.5,185.833 -0.5,180.5C 2.21013,162.587 10.5435,147.753 24.5,136C 54.846,116.206 87.5127,101.206 122.5,91C 141.384,85.8623 160.384,81.1957 179.5,77C 204.138,71.5301 227.471,74.8634 249.5,87C 252.538,89.7026 255.205,92.7026 257.5,96C 284.626,102.156 311.959,103.156 339.5,99C 342.25,96.6945 344.416,93.8612 346,90.5C 348.383,87.7272 351.217,85.5605 354.5,84C 373.674,75.0981 393.674,72.4314 414.5,76C 463.567,84.6889 510.234,100.356 554.5,123C 572.667,131.833 586.167,145.333 595,163.5C 596.527,168.956 598.027,174.289 599.5,179.5 Z"/></g>
<g><path style="opacity:1" fill="#413836" d="M 248.5,107.5 C 248.217,106.711 247.717,106.044 247,105.5C 239.797,112.184 231.297,116.351 221.5,118C 210.928,122.237 202.428,129.07 196,138.5C 192,144.5 188,150.5 184,156.5C 183.472,157.816 183.972,158.483 185.5,158.5C 185.5,159.167 185.167,159.5 184.5,159.5C 182.197,161.978 180.031,164.645 178,167.5C 157.562,211.251 145.562,257.251 142,305.5C 141.127,326.194 139.96,346.861 138.5,367.5C 134.7,382.722 125.7,386.556 111.5,379C 103.372,373.206 96.2053,366.373 90,358.5C 67.5457,330.61 48.8791,300.277 34,267.5C 26.2098,248.797 19.2098,229.797 13,210.5C 4.94878,184.188 11.1154,162.021 31.5,144C 68.2042,120.535 107.871,103.869 150.5,94C 162.759,90.9484 175.092,88.2817 187.5,86C 206.875,82.9606 225.208,85.9606 242.5,95C 246.537,98.5466 248.537,102.713 248.5,107.5 Z"/></g>
<g><path style="opacity:1" fill="#413836" d="M 460.5,365.5 C 459.061,344.858 457.894,324.192 457,303.5C 453.256,259.857 442.922,217.857 426,177.5C 423.316,171.456 420.149,165.789 416.5,160.5C 408.984,143.816 397.651,130.316 382.5,120C 373.52,117.452 364.853,114.118 356.5,110C 354.21,108.223 352.543,106.056 351.5,103.5C 351.738,99.862 353.404,97.0287 356.5,95C 373.792,85.9606 392.125,82.9606 411.5,86C 461.82,94.773 509.487,111.106 554.5,135C 587.886,155.157 597.386,183.657 583,220.5C 565.16,278.716 535.66,329.883 494.5,374C 490.207,377.952 485.207,380.619 479.5,382C 472.989,383.874 467.822,382.041 464,376.5C 462.726,372.846 461.56,369.18 460.5,365.5 Z"/></g>
<g><path style="opacity:1" fill="#232020" d="M 248.5,107.5 C 240.525,113.669 231.525,117.835 221.5,120C 211.529,124.634 203.363,131.467 197,140.5C 192.906,146.359 189.073,152.359 185.5,158.5C 183.972,158.483 183.472,157.816 184,156.5C 188,150.5 192,144.5 196,138.5C 202.428,129.07 210.928,122.237 221.5,118C 231.297,116.351 239.797,112.184 247,105.5C 247.717,106.044 248.217,106.711 248.5,107.5 Z"/></g>
<g><path style="opacity:1" fill="#222020" d="M 351.5,103.5 C 352.543,106.056 354.21,108.223 356.5,110C 364.853,114.118 373.52,117.452 382.5,120C 397.651,130.316 408.984,143.816 416.5,160.5C 416.167,160.5 415.833,160.5 415.5,160.5C 408.33,147.71 399.33,136.21 388.5,126C 384.993,123.746 381.327,121.746 377.5,120C 369.518,117.784 361.851,114.784 354.5,111C 353.333,109.833 352.167,108.667 351,107.5C 350.235,105.934 350.402,104.601 351.5,103.5 Z"/></g>
<g><path style="opacity:1" fill="#bd9b68" d="M 382.5,326.5 C 405.388,323.61 417.721,310.61 419.5,287.5C 417.073,265.407 404.74,253.407 382.5,251.5C 365.568,252.6 353.734,260.933 347,276.5C 344.335,286.545 345.169,296.212 349.5,305.5C 341.688,302.508 333.688,300.008 325.5,298C 308.168,296.027 290.835,296.027 273.5,298C 265.082,299.75 257.082,302.583 249.5,306.5C 257.624,288.171 254.291,272.338 239.5,259C 220.842,247.574 203.675,249.407 188,264.5C 177.035,279.887 176.702,295.554 187,311.5C 194.973,320.402 204.806,325.402 216.5,326.5C 212.202,330.296 208.036,334.296 204,338.5C 186.432,360.967 173.599,385.967 165.5,413.5C 164.154,408.449 162.654,403.449 161,398.5C 155.215,391.758 150.049,384.591 145.5,377C 148.875,369.949 150.708,362.449 151,354.5C 149.901,296.753 159.901,241.086 181,187.5C 189.865,168.269 201.365,150.769 215.5,135C 218.833,133 222.167,131 225.5,129C 233.75,126.607 241.75,123.607 249.5,120C 253.643,116.878 256.81,113.044 259,108.5C 259.893,107.919 260.893,107.585 262,107.5C 287.329,113.48 312.829,114.147 338.5,109.5C 342.215,112.709 345.881,116.209 349.5,120C 356.851,123.784 364.518,126.784 372.5,129C 381.456,132.622 388.623,138.455 394,146.5C 399.667,155.167 405.333,163.833 411,172.5C 431.251,214.5 442.918,258.834 446,305.5C 447.078,321.147 447.745,336.814 448,352.5C 448.668,360.005 450.168,367.338 452.5,374.5C 449.332,380.844 445.166,386.511 440,391.5C 437.77,397.827 435.603,404.161 433.5,410.5C 424.739,385.308 412.572,361.975 397,340.5C 392.298,335.63 387.465,330.963 382.5,326.5 Z"/></g>
<g><path style="opacity:1" fill="#ad8d5f" d="M 297.5,186.5 C 300.292,186.452 302.125,187.785 303,190.5C 303.667,211.167 303.667,231.833 303,252.5C 302.923,255.665 301.59,257.999 299,259.5C 298.228,259.355 297.561,259.022 297,258.5C 296.178,256.212 295.511,253.878 295,251.5C 294.333,231.167 294.333,210.833 295,190.5C 295.662,189.016 296.496,187.683 297.5,186.5 Z"/></g>
<g><path style="opacity:1" fill="#ac8d5f" d="M 249.5,203.5 C 276.082,207.973 287.582,223.639 284,250.5C 282.875,253.89 281.375,257.057 279.5,260C 277.633,260.711 276.133,260.211 275,258.5C 273.79,249.894 273.123,241.227 273,232.5C 271.198,227.071 268.031,222.571 263.5,219C 258.083,216.21 252.916,213.043 248,209.5C 247.252,207.16 247.752,205.16 249.5,203.5 Z"/></g>
<g><path style="opacity:1" fill="#ac8d5f" d="M 343.5,203.5 C 348.993,202.178 351.493,204.178 351,209.5C 347.248,212.629 343.081,215.129 338.5,217C 332.469,220.694 328.303,225.861 326,232.5C 325.667,240.167 325.333,247.833 325,255.5C 324.88,259.293 323.046,260.793 319.5,260C 310.393,241.386 313.393,225.053 328.5,211C 333.35,208.007 338.35,205.507 343.5,203.5 Z"/></g>
<g><path style="opacity:1" fill="#6c5a45" d="M 215.5,214.5 C 230.916,214.619 242.416,221.285 250,234.5C 251.293,238.582 250.126,241.749 246.5,244C 243.09,245.028 239.59,245.528 236,245.5C 228.823,244.798 221.656,243.965 214.5,243C 199.571,238.368 197.571,230.368 208.5,219C 210.898,217.476 213.231,215.976 215.5,214.5 Z"/></g>
<g><path style="opacity:1" fill="#6c5a45" d="M 374.5,214.5 C 385.407,213.703 392.907,218.37 397,228.5C 397.157,237.353 392.657,242.186 383.5,243C 376.022,244.039 368.522,244.872 361,245.5C 349.281,245.187 346.281,239.854 352,229.5C 358.064,222.256 365.564,217.256 374.5,214.5 Z"/></g>
<g><path style="opacity:1" fill="#533c32" d="M 249.5,306.5 C 247.518,306.995 245.518,307.495 243.5,308C 240.039,311.264 236.039,313.597 231.5,315C 226.291,318.728 221.291,322.561 216.5,326.5C 204.806,325.402 194.973,320.402 187,311.5C 176.702,295.554 177.035,279.887 188,264.5C 203.675,249.407 220.842,247.574 239.5,259C 254.291,272.338 257.624,288.171 249.5,306.5 Z"/></g>
<g><path style="opacity:1" fill="#533b32" d="M 382.5,326.5 C 372.643,317.86 361.643,310.86 349.5,305.5C 345.169,296.212 344.335,286.545 347,276.5C 353.734,260.933 365.568,252.6 382.5,251.5C 404.74,253.407 417.073,265.407 419.5,287.5C 417.721,310.61 405.388,323.61 382.5,326.5 Z"/></g>
<g><path style="opacity:1" fill="#766143" d="M 184.5,159.5 C 177.256,171.015 171.422,183.348 167,196.5C 148.845,247.583 140.178,300.249 141,354.5C 140.698,359.646 139.865,363.979 138.5,367.5C 139.96,346.861 141.127,326.194 142,305.5C 145.562,257.251 157.562,211.251 178,167.5C 180.031,164.645 182.197,161.978 184.5,159.5 Z"/></g>
<g><path style="opacity:1" fill="#111111" d="M 210.5,263.5 C 233.542,262.706 244.042,273.706 242,296.5C 237.489,308.986 228.489,315.32 215,315.5C 197.235,311.659 189.568,300.659 192,282.5C 195.017,272.984 201.184,266.651 210.5,263.5 Z"/></g>
<g><path style="opacity:1" fill="#111111" d="M 377.5,263.5 C 399.487,262.986 409.654,273.652 408,295.5C 401.706,312.397 389.872,318.23 372.5,313C 359.758,306.34 354.925,295.84 358,281.5C 361.545,272.116 368.045,266.116 377.5,263.5 Z"/></g>
<g><path style="opacity:1" fill="#f0f0f0" d="M 224.5,273.5 C 233.95,273.946 235.95,278.112 230.5,286C 223.22,287.719 220.053,284.885 221,277.5C 221.69,275.65 222.856,274.316 224.5,273.5 Z"/></g>
<g><path style="opacity:1" fill="#f2f2f2" d="M 390.5,273.5 C 399.307,273.465 401.64,277.298 397.5,285C 389.3,288.14 385.8,285.306 387,276.5C 388.145,275.364 389.312,274.364 390.5,273.5 Z"/></g>
<g><path style="opacity:1" fill="#766143" d="M 415.5,160.5 C 415.833,160.5 416.167,160.5 416.5,160.5C 420.149,165.789 423.316,171.456 426,177.5C 442.922,217.857 453.256,259.857 457,303.5C 457.894,324.192 459.061,344.858 460.5,365.5C 459.105,361.409 458.272,357.076 458,352.5C 459.056,292.165 448.056,234.165 425,178.5C 422.043,172.245 418.876,166.245 415.5,160.5 Z"/></g>
<g><path style="opacity:1" fill="#38312f" d="M 427.5,456.5 C 426.766,475.224 420.099,491.391 407.5,505C 394.55,514.782 379.883,518.949 363.5,517.5C 319.833,516.173 276.166,516.173 232.5,517.5C 203.666,518.687 184.833,505.687 176,478.5C 174.283,471.528 172.783,464.528 171.5,457.5C 172.885,411.562 189.552,372.062 221.5,339C 269.066,298.394 318.4,296.061 369.5,332C 406.516,365.201 425.849,406.701 427.5,456.5 Z"/></g>
<g><path style="opacity:1" fill="#51432f" d="M 427.5,456.5 C 425.849,406.701 406.516,365.201 369.5,332C 318.4,296.061 269.066,298.394 221.5,339C 189.552,372.062 172.885,411.562 171.5,457.5C 172.032,408.224 190.032,366.558 225.5,332.5C 274.753,296.701 324.086,296.534 373.5,332C 399.859,357.207 417.026,387.707 425,423.5C 427.004,434.409 427.837,445.409 427.5,456.5 Z"/></g>
<g><path style="opacity:1" fill="#000000" d="M 288.5,330.5 C 303.57,329.056 317.903,331.556 331.5,338C 341.42,346.473 344.254,356.973 340,369.5C 336.624,378.41 330.791,385.244 322.5,390C 316.784,393.183 310.784,395.683 304.5,397.5C 303.667,398.5 302.833,399.5 302,400.5C 300.965,407.355 301.632,414.022 304,420.5C 313.447,438.947 327.28,453.114 345.5,463C 367.777,476.069 391.777,481.235 417.5,478.5C 417.023,479.478 416.357,480.311 415.5,481C 392.148,487.033 369.481,485.033 347.5,475C 335.345,469.092 323.678,462.425 312.5,455C 303.833,451.667 295.167,451.667 286.5,455C 279.9,458.605 273.566,462.605 267.5,467C 240.708,481.825 212.208,487.658 182,484.5C 220.838,482.95 254.505,467.95 283,439.5C 288.962,431.911 293.629,423.578 297,414.5C 297.667,409.833 297.667,405.167 297,400.5C 291.649,396.924 285.816,394.09 279.5,392C 265.311,384.622 257.644,372.956 256.5,357C 258.123,345.411 264.456,337.744 275.5,334C 280.012,333.038 284.345,331.871 288.5,330.5 Z"/></g>
</svg>
