<?xml version="1.0" encoding="UTF-8"?>
<!DOCTYPE svg PUBLIC "-//W3C//DTD SVG 1.1//EN" "http://www.w3.org/Graphics/SVG/1.1/DTD/svg11.dtd">
<svg xmlns="http://www.w3.org/2000/svg" version="1.1" width="600px" height="600px" style="shape-rendering:geometricPrecision; text-rendering:geometricPrecision; image-rendering:optimizeQuality; fill-rule:evenodd; clip-rule:evenodd" xmlns:xlink="http://www.w3.org/1999/xlink">
<g><path style="opacity:0.972" fill="#020202" d="M 529.5,22.5 C 539.063,22.2294 543.896,26.896 544,36.5C 552.136,44.1032 557.136,53.4365 559,64.5C 559.692,72.517 560.525,80.517 561.5,88.5C 571.188,94.5437 576.855,103.21 578.5,114.5C 578.249,122.142 574.249,125.975 566.5,126C 565.426,126.739 564.759,127.739 564.5,129C 570.879,140.122 575.712,151.955 579,164.5C 582.737,169.561 585.57,175.061 587.5,181C 586.555,186.941 583.222,190.607 577.5,192C 576.919,192.893 576.585,193.893 576.5,195C 578.214,201.095 580.214,207.095 582.5,213C 580.995,216.973 580.662,220.973 581.5,225C 580.725,233.438 576.225,238.271 568,239.5C 563.103,238.218 558.77,235.885 555,232.5C 556.347,239.72 556.68,247.054 556,254.5C 550.86,263.99 543.527,265.99 534,260.5C 533.905,268.604 534.905,276.604 537,284.5C 540.991,299.462 544.824,314.462 548.5,329.5C 547.96,338.372 543.294,343.372 534.5,344.5C 530.405,343.853 526.571,342.52 523,340.5C 522.404,345.88 522.738,351.213 524,356.5C 527.501,371.836 531.001,387.169 534.5,402.5C 531.296,414.406 524.296,417.239 513.5,411C 511,408.5 508.5,406 506,403.5C 506.535,415.662 507.369,427.828 508.5,440C 510.728,451.046 506.561,457.879 496,460.5C 490.532,459.683 486.032,457.183 482.5,453C 480.765,452.349 479.098,452.515 477.5,453.5C 476.215,458.61 475.215,463.777 474.5,469C 478.285,482.676 479.452,496.509 478,510.5C 474.158,517.673 468.324,520.34 460.5,518.5C 461.252,529.32 459.419,539.654 455,549.5C 450.455,554.098 445.288,555.098 439.5,552.5C 437.488,558.878 435.321,565.211 433,571.5C 427.37,577.533 420.87,578.699 413.5,575C 410.894,573.062 409.061,570.562 408,567.5C 405.972,555.47 403.805,543.47 401.5,531.5C 392.059,537.515 384.225,535.849 378,526.5C 346.631,546.575 312.465,553.741 275.5,548C 255.75,544.949 237.75,537.782 221.5,526.5C 215.191,535.704 207.357,537.371 198,531.5C 195.427,543.712 193.094,556.045 191,568.5C 188.087,575.374 182.92,578.208 175.5,577C 172.027,576.681 169.194,575.181 167,572.5C 164.19,565.906 161.69,559.239 159.5,552.5C 152.918,555.139 147.418,553.472 143,547.5C 139.795,538.133 138.295,528.466 138.5,518.5C 126.838,519.858 120.505,514.524 119.5,502.5C 120.38,491.834 122.047,481.334 124.5,471C 124.124,465.251 123.124,459.417 121.5,453.5C 119.902,452.515 118.235,452.349 116.5,453C 108.189,462.391 100.023,462.557 92,453.5C 90.9767,449.068 90.4767,444.568 90.5,440C 91.6312,427.828 92.4646,415.662 93,403.5C 89.3357,408.175 84.8357,411.675 79.5,414C 70.8354,414.997 65.8354,411.163 64.5,402.5C 67.9993,387.169 71.4993,371.836 75,356.5C 76.2625,351.213 76.5958,345.88 76,340.5C 68.3451,346.092 61.0118,345.759 54,339.5C 52.2212,336.387 51.0546,333.054 50.5,329.5C 54.1761,314.462 58.0095,299.462 62,284.5C 64.0952,276.604 65.0952,268.604 65,260.5C 55.4729,265.99 48.1396,263.99 43,254.5C 42.5755,248.138 42.5755,241.805 43,235.5C 37.2455,241.234 30.7455,242.401 23.5,239C 18.8738,234.461 17.5405,229.127 19.5,223C 18.1147,220.848 17.1147,218.515 16.5,216C 19.4232,209.163 21.7566,202.163 23.5,195C 14.8269,193.328 11.3269,188.162 13,179.5C 19.5668,169.36 24.2334,158.36 27,146.5C 29.5181,141.464 32.0181,136.464 34.5,131.5C 34.2811,130.062 33.7811,128.729 33,127.5C 23.5199,127.984 19.5199,123.317 21,113.5C 23.9851,103.868 29.6518,96.2014 38,90.5C 38.5692,78.9942 40.2359,67.6608 43,56.5C 45.7833,49.9184 49.7833,44.2517 55,39.5C 54.9364,31.2318 58.9364,26.2318 67,24.5C 75.7752,27.3034 84.2752,30.8034 92.5,35C 129.737,40.8672 167.071,46.0339 204.5,50.5C 208.673,49.6536 212.673,48.3203 216.5,46.5C 217.293,46.9312 218.127,47.2645 219,47.5C 225.24,43.0304 231.406,42.8638 237.5,47C 239.683,49.3504 242.016,51.517 244.5,53.5C 246.776,52.7868 249.109,52.2868 251.5,52C 257.112,47.9526 263.112,47.4526 269.5,50.5C 274.671,43.0414 281.338,41.2081 289.5,45C 293.084,47.0414 296.584,49.208 300,51.5C 307.057,44.1324 315.224,41.9657 324.5,45C 326.351,46.6837 328.018,48.5171 329.5,50.5C 332.389,49.3611 335.389,48.6945 338.5,48.5C 343.773,49.9645 348.939,51.6312 354,53.5C 357.709,46.9465 363.209,42.9465 370.5,41.5C 373.862,42.0634 376.862,43.3967 379.5,45.5C 380.446,45.0133 381.446,44.6799 382.5,44.5C 386.203,45.4401 389.703,46.7735 393,48.5C 430.254,43.9876 467.42,38.8209 504.5,33C 512.963,29.5751 521.297,26.0751 529.5,22.5 Z"/></g>
<g><path style="opacity:1" fill="#c3b094" d="M 539.5,223.5 C 537.067,219.232 533.734,215.732 529.5,213C 516.325,204.499 502.658,196.833 488.5,190C 478.369,182.203 469.203,173.37 461,163.5C 448.007,144.501 432.84,127.334 415.5,112C 405.939,104.553 395.272,99.2193 383.5,96C 374.803,94.8528 366.136,93.5195 357.5,92C 352.864,91.1214 348.531,89.4548 344.5,87C 342.789,85.8668 342.289,84.3668 343,82.5C 345.272,78.2757 347.772,74.2757 350.5,70.5C 351.078,68.5565 352.078,68.2232 353.5,69.5C 357.513,66.6474 360.68,62.9808 363,58.5C 365.094,55.8974 367.594,53.8974 370.5,52.5C 374.11,54.8133 374.444,57.6466 371.5,61C 374.813,59.5023 378.147,57.669 381.5,55.5C 382.282,57.3293 381.616,58.8293 379.5,60C 422.915,55.3229 466.248,49.6562 509.5,43C 516.517,39.159 523.85,35.9923 531.5,33.5C 532.167,33.8333 532.833,34.1667 533.5,34.5C 532.408,37.0942 530.741,39.2609 528.5,41C 538.711,44.2129 545.211,51.0462 548,61.5C 549.237,72.1086 549.903,82.7753 550,93.5C 558.968,97.8014 565.135,104.635 568.5,114C 568.15,115.257 567.483,115.591 566.5,115C 561.766,110.881 556.599,107.381 551,104.5C 550.333,105.5 550.333,106.5 551,107.5C 555.087,111.675 556.921,116.675 556.5,122.5C 555.07,122.579 553.736,122.246 552.5,121.5C 550.959,128.25 552.793,133.916 558,138.5C 562.984,148.452 566.984,158.785 570,169.5C 571.663,173.496 573.829,177.163 576.5,180.5C 571.702,182.218 567.535,181.218 564,177.5C 564.993,185.095 565.993,192.762 567,200.5C 568.812,205.111 570.312,209.777 571.5,214.5C 569.801,214.34 568.134,214.506 566.5,215C 569.593,218.67 570.759,222.836 570,227.5C 568.132,228.672 566.298,228.505 564.5,227C 557.765,219.595 550.432,212.928 542.5,207C 540.444,206.689 538.444,206.189 536.5,205.5C 536.167,205.833 535.833,206.167 535.5,206.5C 540.285,211.48 541.618,217.147 539.5,223.5 Z"/></g>
<g><path style="opacity:1" fill="#c3b094" d="M 249.5,73.5 C 251.644,77.1114 253.81,80.7781 256,84.5C 256.72,86.1124 256.554,87.6124 255.5,89C 251.323,91.0591 246.99,92.7258 242.5,94C 229.2,95.2801 216.2,97.9467 203.5,102C 190.592,108.571 179.092,117.071 169,127.5C 157.76,140.984 146.76,154.65 136,168.5C 129.833,176 123,182.833 115.5,189C 101.833,196.667 88.1667,204.333 74.5,212C 68.9859,216.023 63.6525,220.19 58.5,224.5C 57.8243,218.02 59.8243,212.52 64.5,208C 62.1546,207.83 59.8212,208.163 57.5,209C 49.2038,215.627 41.2038,222.627 33.5,230C 30.4333,231.164 28.7666,230.164 28.5,227C 29.4125,223.673 30.7458,220.506 32.5,217.5C 30.9547,216.548 29.288,216.215 27.5,216.5C 28.7019,212.422 30.2019,208.422 32,204.5C 32.9737,195.676 34.307,187.01 36,178.5C 32.4706,183.063 27.9706,184.729 22.5,183.5C 29.1673,173.013 34.0006,161.68 37,149.5C 39.3323,143.494 42.6656,138.16 47,133.5C 47.6667,130.167 47.6667,126.833 47,123.5C 45.6439,124.38 44.1439,124.714 42.5,124.5C 42.3379,122.473 42.5045,120.473 43,118.5C 44.8495,115.323 46.6828,112.157 48.5,109C 48.1667,108.5 47.8333,108 47.5,107.5C 41.8303,110.333 36.497,113.666 31.5,117.5C 31.1667,117.167 30.8333,116.833 30.5,116.5C 34.337,107.493 40.5037,100.493 49,95.5C 49.0833,84.0716 50.0833,72.7383 52,61.5C 54.8866,52.0048 61.0533,46.0048 70.5,43.5C 68.0955,41.3577 66.7622,38.691 66.5,35.5C 75.7162,39.2731 85.0495,42.7731 94.5,46C 134.769,52.0146 175.102,57.5146 215.5,62.5C 216.5,62.1667 217.5,61.8333 218.5,61.5C 217.833,60.5 217.167,59.5 216.5,58.5C 216.833,58.1667 217.167,57.8333 217.5,57.5C 220.5,59.5 223.5,61.5 226.5,63.5C 225.809,52.7839 228.976,51.7839 236,60.5C 238.874,65.9497 242.874,70.2831 248,73.5C 248.779,70.9028 249.279,70.9028 249.5,73.5 Z"/></g>
<g><path style="opacity:1" fill="#e3d9c8" d="M 470.5,190.5 C 470.265,191.097 469.765,191.43 469,191.5C 429.567,178.956 389.4,176.122 348.5,183C 336.217,192.525 333.384,204.358 340,218.5C 343.155,222.503 346.988,225.503 351.5,227.5C 343.039,236.539 339.373,247.372 340.5,260C 340.676,264.853 341.01,269.686 341.5,274.5C 339.114,275.298 336.78,276.298 334.5,277.5C 332.567,270.744 328.067,267.744 321,268.5C 313.049,269.309 306.049,272.309 300,277.5C 296.51,275.349 293.01,273.182 289.5,271C 282.956,268.193 276.29,267.86 269.5,270C 266.817,271.845 265.15,274.345 264.5,277.5C 261.573,276.199 258.573,275.199 255.5,274.5C 258.14,263.995 258.973,253.328 258,242.5C 256.701,236.562 253.867,231.562 249.5,227.5C 264.35,216.445 266.517,203.112 256,187.5C 254.457,185.622 252.624,184.122 250.5,183C 211.504,176.697 173.004,178.863 135,189.5C 134.235,189.43 133.735,189.097 133.5,188.5C 146.877,173.288 159.711,157.622 172,141.5C 182.778,129.379 195.278,119.546 209.5,112C 221.729,109.128 234.063,106.795 246.5,105C 251.213,103.326 255.88,101.66 260.5,100C 268.895,91.656 269.728,82.4894 263,72.5C 260.46,70.2953 258.293,67.7953 256.5,65C 258.167,64.6667 259.833,64.3333 261.5,64C 256.882,59.8552 257.548,58.1885 263.5,59C 269.262,61.7202 275.262,63.5535 281.5,64.5C 281.276,60.8212 280.942,57.1545 280.5,53.5C 283.311,53.8257 285.978,54.6591 288.5,56C 292.049,59.0574 295.716,61.8907 299.5,64.5C 303.284,61.8907 306.951,59.0574 310.5,56C 313.206,54.0924 316.206,53.259 319.5,53.5C 318.083,57.0025 317.416,60.6691 317.5,64.5C 325.072,62.2187 332.739,60.2187 340.5,58.5C 340.607,60.9032 339.607,62.7365 337.5,64C 338.833,64.3333 340.167,64.6667 341.5,65C 331.631,72.6 329.131,82.1 334,93.5C 339.597,98.3742 346.097,101.541 353.5,103C 365.671,104.521 377.671,106.854 389.5,110C 401.731,115.897 412.564,123.731 422,133.5C 432.667,146.833 443.333,160.167 454,173.5C 459.703,179.035 465.203,184.702 470.5,190.5 Z"/></g>
<g><path style="opacity:1" fill="#d2c8b7" d="M 249.5,73.5 C 261.681,84.114 260.015,91.2807 244.5,95C 233.134,96.8142 221.801,98.8142 210.5,101C 191.864,108.955 176.03,120.788 163,136.5C 150.572,153.498 137.072,169.665 122.5,185C 118.452,188.716 114.118,192.05 109.5,195C 91.8177,202.497 75.8177,212.497 61.5,225C 59.4857,225.779 58.4857,225.612 58.5,224.5C 63.6525,220.19 68.9859,216.023 74.5,212C 88.1667,204.333 101.833,196.667 115.5,189C 123,182.833 129.833,176 136,168.5C 146.76,154.65 157.76,140.984 169,127.5C 179.092,117.071 190.592,108.571 203.5,102C 216.2,97.9467 229.2,95.2801 242.5,94C 246.99,92.7258 251.323,91.0591 255.5,89C 256.554,87.6124 256.72,86.1124 256,84.5C 253.81,80.7781 251.644,77.1114 249.5,73.5 Z"/></g>
<g><path style="opacity:1" fill="#d2c8b7" d="M 350.5,70.5 C 347.772,74.2757 345.272,78.2757 343,82.5C 342.289,84.3668 342.789,85.8668 344.5,87C 348.531,89.4548 352.864,91.1214 357.5,92C 366.136,93.5195 374.803,94.8528 383.5,96C 395.272,99.2193 405.939,104.553 415.5,112C 432.84,127.334 448.007,144.501 461,163.5C 469.203,173.37 478.369,182.203 488.5,190C 502.658,196.833 516.325,204.499 529.5,213C 533.734,215.732 537.067,219.232 539.5,223.5C 524.624,211.151 508.291,200.984 490.5,193C 480.441,185.947 471.274,177.78 463,168.5C 452.333,155.167 441.667,141.833 431,128.5C 418.404,114.455 403.237,104.289 385.5,98C 375.5,96.3333 365.5,94.6667 355.5,93C 338.698,89.0385 337.031,81.5385 350.5,70.5 Z"/></g>
<g><path style="opacity:1" fill="#d2c0ae" d="M 249.5,227.5 C 228.476,222.168 207.476,222.168 186.5,227.5C 169.323,233.676 156.156,244.676 147,260.5C 141.841,271.143 137.007,281.809 132.5,292.5C 130.264,276.997 131.764,261.997 137,247.5C 135.132,246.328 133.298,246.495 131.5,248C 126.245,251.251 121.578,255.251 117.5,260C 116.552,260.483 115.552,260.649 114.5,260.5C 114.137,252.62 115.97,245.286 120,238.5C 124.911,230.253 131.245,223.253 139,217.5C 139.577,213.502 137.743,211.836 133.5,212.5C 128.102,213.349 122.769,214.516 117.5,216C 103.048,221.143 88.8814,226.976 75,233.5C 73.2294,232.653 72.0627,231.32 71.5,229.5C 84.7795,219.515 99.1128,211.015 114.5,204C 120.998,198.999 127.331,193.833 133.5,188.5C 133.735,189.097 134.235,189.43 135,189.5C 173.004,178.863 211.504,176.697 250.5,183C 252.624,184.122 254.457,185.622 256,187.5C 266.517,203.112 264.35,216.445 249.5,227.5 Z"/></g>
<g><path style="opacity:1" fill="#d2c1ae" d="M 470.5,190.5 C 475.339,194.501 480.339,198.334 485.5,202C 497.614,207.556 509.281,213.89 520.5,221C 523.288,222.719 525.621,224.885 527.5,227.5C 526.698,228.952 526.198,230.618 526,232.5C 525.275,233.059 524.442,233.392 523.5,233.5C 507.376,225.604 490.709,219.104 473.5,214C 469.221,212.756 464.888,212.423 460.5,213C 459.328,214.868 459.495,216.702 461,218.5C 475.625,228.752 483.791,242.752 485.5,260.5C 483.692,260.509 482.025,260.009 480.5,259C 475.616,253.071 469.616,248.905 462.5,246.5C 464.292,253.056 465.792,259.723 467,266.5C 467.832,275.186 467.665,283.853 466.5,292.5C 460.849,276.864 453.349,262.198 444,248.5C 437.12,240.947 429.12,234.947 420,230.5C 419.235,230.57 418.735,230.903 418.5,231.5C 412.09,226.584 404.756,224.084 396.5,224C 385.833,223.333 375.167,223.333 364.5,224C 360.048,224.855 355.715,226.021 351.5,227.5C 346.988,225.503 343.155,222.503 340,218.5C 333.384,204.358 336.217,192.525 348.5,183C 389.4,176.122 429.567,178.956 469,191.5C 469.765,191.43 470.265,191.097 470.5,190.5 Z"/></g>
<g><path style="opacity:1" fill="#e2d8c8" d="M 186.5,227.5 C 181.219,232.387 177.719,238.387 176,245.5C 175.333,254.167 175.333,262.833 176,271.5C 178.263,281.655 183.763,289.488 192.5,295C 200.723,298.9 209.39,300.4 218.5,299.5C 215.835,302.335 213.335,305.335 211,308.5C 210.021,312.673 209.188,316.839 208.5,321C 169.3,338.534 141.133,367.034 124,406.5C 118.908,418.107 115.241,430.107 113,442.5C 109.841,446.155 106.008,448.322 101.5,449C 100.31,438.826 100.81,428.659 103,418.5C 109.487,383.887 100.987,379.053 77.5,404C 77.1667,404.167 76.8333,404.333 76.5,404.5C 76.1667,403.167 75.8333,401.833 75.5,400.5C 79.4924,382.864 83.3258,365.197 87,347.5C 88.5894,340.8 87.0894,334.966 82.5,330C 81.3333,329.833 80.1667,329.667 79,329.5C 74.2522,330.54 69.5855,331.873 65,333.5C 63.8926,333.415 62.8926,333.081 62,332.5C 61.3333,329.5 61.3333,326.5 62,323.5C 66.3169,308.232 70.3169,292.898 74,277.5C 75.5189,269.211 76.1855,260.878 76,252.5C 75.476,248.43 73.3093,245.764 69.5,244.5C 65.1084,246.716 61.1084,249.549 57.5,253C 53.3397,253.423 51.673,251.423 52.5,247C 52.9757,242.791 53.6423,238.624 54.5,234.5C 61.2712,236.393 66.9378,234.726 71.5,229.5C 72.0627,231.32 73.2294,232.653 75,233.5C 88.8814,226.976 103.048,221.143 117.5,216C 122.769,214.516 128.102,213.349 133.5,212.5C 137.743,211.836 139.577,213.502 139,217.5C 131.245,223.253 124.911,230.253 120,238.5C 115.97,245.286 114.137,252.62 114.5,260.5C 115.552,260.649 116.552,260.483 117.5,260C 121.578,255.251 126.245,251.251 131.5,248C 133.298,246.495 135.132,246.328 137,247.5C 131.764,261.997 130.264,276.997 132.5,292.5C 137.007,281.809 141.841,271.143 147,260.5C 156.156,244.676 169.323,233.676 186.5,227.5 Z"/></g>
<g><path style="opacity:1" fill="#e2d8c7" d="M 527.5,227.5 C 531.879,232.237 537.212,234.07 543.5,233C 546.075,238.907 546.908,245.074 546,251.5C 545.481,252.516 544.647,253.182 543.5,253.5C 538.813,250.323 533.98,247.323 529,244.5C 526.119,245.576 524.119,247.576 523,250.5C 522.626,259.559 523.293,268.559 525,277.5C 528.686,292.91 532.686,308.243 537,323.5C 537.667,326.5 537.667,329.5 537,332.5C 534.936,333.591 532.769,333.758 530.5,333C 515.85,326.285 509.684,331.119 512,347.5C 515.674,365.197 519.508,382.864 523.5,400.5C 523.167,401.833 522.833,403.167 522.5,404.5C 517.316,399.482 511.983,394.649 506.5,390C 502.696,386.647 499.196,386.813 496,390.5C 495.333,399.833 495.333,409.167 496,418.5C 498.19,428.659 498.69,438.826 497.5,449C 488.658,447.809 484.492,442.642 485,433.5C 471.261,382.441 440.761,345.275 393.5,322C 392.207,321.51 390.873,321.343 389.5,321.5C 389.79,317.064 389.29,312.73 388,308.5C 385.665,305.335 383.165,302.335 380.5,299.5C 409.671,297.528 424.005,281.862 423.5,252.5C 424.23,244.791 422.563,237.791 418.5,231.5C 418.735,230.903 419.235,230.57 420,230.5C 429.12,234.947 437.12,240.947 444,248.5C 453.349,262.198 460.849,276.864 466.5,292.5C 467.665,283.853 467.832,275.186 467,266.5C 465.792,259.723 464.292,253.056 462.5,246.5C 469.616,248.905 475.616,253.071 480.5,259C 482.025,260.009 483.692,260.509 485.5,260.5C 483.791,242.752 475.625,228.752 461,218.5C 459.495,216.702 459.328,214.868 460.5,213C 464.888,212.423 469.221,212.756 473.5,214C 490.709,219.104 507.376,225.604 523.5,233.5C 524.442,233.392 525.275,233.059 526,232.5C 526.198,230.618 526.698,228.952 527.5,227.5 Z"/></g>
<g><path style="opacity:1" fill="#867e75" d="M 249.5,227.5 C 253.867,231.562 256.701,236.562 258,242.5C 258.973,253.328 258.14,263.995 255.5,274.5C 242.987,273.012 237.654,278.345 239.5,290.5C 232.171,292.936 225.171,295.936 218.5,299.5C 209.39,300.4 200.723,298.9 192.5,295C 183.763,289.488 178.263,281.655 176,271.5C 175.333,262.833 175.333,254.167 176,245.5C 177.719,238.387 181.219,232.387 186.5,227.5C 207.476,222.168 228.476,222.168 249.5,227.5 Z"/></g>
<g><path style="opacity:1" fill="#867e75" d="M 418.5,231.5 C 422.563,237.791 424.23,244.791 423.5,252.5C 424.005,281.862 409.671,297.528 380.5,299.5C 374.698,295.952 368.365,293.452 361.5,292C 360.559,288.189 360.059,284.355 360,280.5C 374.573,291.388 388.906,291.055 403,279.5C 412.555,266.393 412.889,253.06 404,239.5C 390.762,227.55 376.595,226.384 361.5,236C 350.235,248.094 348.568,261.428 356.5,276C 353.225,274.939 349.725,274.105 346,273.5C 344.467,273.773 342.967,274.106 341.5,274.5C 341.01,269.686 340.676,264.853 340.5,260C 339.373,247.372 343.039,236.539 351.5,227.5C 355.715,226.021 360.048,224.855 364.5,224C 375.167,223.333 385.833,223.333 396.5,224C 404.756,224.084 412.09,226.584 418.5,231.5 Z"/></g>
<g><path style="opacity:1" fill="#010100" d="M 208.5,229.5 C 226.603,227.291 238.77,234.624 245,251.5C 247.288,269.765 239.788,281.932 222.5,288C 200.791,290.291 188.458,280.624 185.5,259C 186.677,244.001 194.344,234.168 208.5,229.5 Z"/></g>
<g><path style="opacity:1" fill="#eeeeee" d="M 222.5,244.5 C 231.192,243.762 233.858,247.262 230.5,255C 224.648,257.905 220.981,256.239 219.5,250C 219.863,247.808 220.863,245.974 222.5,244.5 Z"/></g>
<g><path style="opacity:1" fill="#f1f1f1" d="M 388.5,244.5 C 396.744,244.228 399.078,247.728 395.5,255C 390.047,257.876 386.381,256.376 384.5,250.5C 384.937,247.775 386.27,245.775 388.5,244.5 Z"/></g>
<g><path style="opacity:1" fill="#b1a086" d="M 274.5,278.5 C 278.747,278.178 282.747,279.011 286.5,281C 291.199,284.02 295.533,287.52 299.5,291.5C 304.81,286.359 310.81,282.192 317.5,279C 319.81,278.503 322.143,278.337 324.5,278.5C 324.531,282.484 323.864,286.317 322.5,290C 323,290.5 323.5,291 324,291.5C 331.725,289.036 339.392,286.369 347,283.5C 349.981,284.443 350.981,286.443 350,289.5C 348.023,292.312 345.856,294.978 343.5,297.5C 353.737,299.85 363.737,303.016 373.5,307C 380.707,312.59 381.374,318.923 375.5,326C 417.152,340.652 446.986,368.152 465,408.5C 468.648,417.626 472.148,426.793 475.5,436C 475.182,438.042 475.015,440.209 475,442.5C 472.907,443.246 470.907,443.579 469,443.5C 464,437.167 458.333,431.5 452,426.5C 451.833,427 451.667,427.5 451.5,428C 462.779,452.954 468.279,479.121 468,506.5C 465.368,509.192 463.034,508.859 461,505.5C 456.883,494.599 452.217,483.933 447,473.5C 444.945,472.505 443.779,473.338 443.5,476C 448.611,496.605 450.111,517.438 448,538.5C 447.598,539.872 447.098,541.205 446.5,542.5C 445.726,543.711 444.893,543.711 444,542.5C 440.777,532.159 436.777,522.159 432,512.5C 431.393,529.687 429.059,546.687 425,563.5C 422.667,567.5 420.333,567.5 418,563.5C 415.958,545.911 412.624,528.578 408,511.5C 407.363,509.697 406.197,508.364 404.5,507.5C 401.219,513.221 397.552,518.721 393.5,524C 391.888,524.72 390.388,524.554 389,523.5C 386.211,518.466 384.211,513.132 383,507.5C 374.985,515.757 365.818,522.424 355.5,527.5C 353.482,525.303 352.315,522.636 352,519.5C 351.373,523.552 349.873,527.218 347.5,530.5C 315.5,542.5 283.5,542.5 251.5,530.5C 249.52,527.068 248.02,523.402 247,519.5C 246.433,522.168 245.933,524.834 245.5,527.5C 234.227,523.078 224.393,516.411 216,507.5C 211.109,529.621 204.609,529.954 196.5,508.5C 195.635,507.417 194.635,507.251 193.5,508C 190.345,514.1 188.178,520.6 187,527.5C 184.754,539.8 182.754,552.134 181,564.5C 179.507,566.56 177.674,566.893 175.5,565.5C 172.73,558.42 170.897,551.086 170,543.5C 169.151,533.168 168.318,522.835 167.5,512.5C 162.599,521.696 158.765,531.363 156,541.5C 155.333,542.167 154.667,542.833 154,543.5C 152.26,542.284 151.26,540.618 151,538.5C 150.401,533.009 149.901,527.509 149.5,522C 150.806,505.722 152.639,489.556 155,473.5C 154,472.167 153,472.167 152,473.5C 147.333,484.167 142.667,494.833 138,505.5C 135.461,509.376 133.128,509.376 131,505.5C 131.244,478.166 137.077,451.833 148.5,426.5C 148.333,426.167 148.167,425.833 148,425.5C 141.333,430.833 135.333,436.833 130,443.5C 128.27,443.491 126.437,443.158 124.5,442.5C 124.273,440.329 123.94,438.162 123.5,436C 132.606,405.606 148.272,379.273 170.5,357C 186.282,343.438 203.948,332.938 223.5,325.5C 217.851,319.258 218.184,313.424 224.5,308C 226.956,306.289 229.623,304.956 232.5,304C 240.247,302.019 247.914,299.853 255.5,297.5C 251.807,293.83 249.473,289.497 248.5,284.5C 251.187,284.336 253.854,284.503 256.5,285C 262.619,287.373 268.786,289.539 275,291.5C 275.692,290.975 276.192,290.308 276.5,289.5C 275.319,285.928 274.652,282.262 274.5,278.5 Z"/></g>
<g><path style="opacity:1" fill="#050403" d="M 234.5,452.5 C 231.167,447.167 226.833,442.833 221.5,439.5C 212.686,430.853 205.186,421.186 199,410.5C 191.148,394.964 183.981,379.13 177.5,363C 178.109,360.197 179.775,359.197 182.5,360C 192.24,370.289 201.407,381.123 210,392.5C 217.538,401.888 227.038,408.221 238.5,411.5C 252.096,407.202 264.763,401.035 276.5,393C 282.333,388.5 287.5,383.333 292,377.5C 293.202,375.323 293.702,372.989 293.5,370.5C 273.062,367.217 258.562,356.217 250,337.5C 246.671,324.819 250.171,314.319 260.5,306C 272.841,299.476 286.008,296.642 300,297.5C 313.642,296.786 326.475,299.62 338.5,306C 350.522,316.265 353.356,328.765 347,343.5C 336.946,358.945 322.779,367.945 304.5,370.5C 305.176,374.187 306.676,377.52 309,380.5C 313.205,385.706 318.039,390.206 323.5,394C 335.312,401.239 347.645,407.406 360.5,412.5C 373.17,410.25 383.67,404.25 392,394.5C 400.808,383.057 409.975,371.891 419.5,361C 425.825,359 427.659,361.166 425,367.5C 418.387,382.67 411.387,397.67 404,412.5C 395.202,426.309 384.535,438.642 372,449.5C 364.806,463.706 355.306,476.206 343.5,487C 330.879,495.114 317.045,498.614 302,497.5C 280.037,498.962 262.037,491.295 248,474.5C 242.736,467.64 238.236,460.307 234.5,452.5 Z"/></g>
<g><path style="opacity:1" fill="#0f0c0a" d="M 296.5,307.5 C 306.305,307.716 315.971,308.882 325.5,311C 340.11,317.146 343.61,327.313 336,341.5C 326.188,352.493 314.021,359.493 299.5,362.5C 285.319,359.934 273.653,353.268 264.5,342.5C 269.097,331.874 273.597,321.207 278,310.5C 284.221,309.198 290.387,308.198 296.5,307.5 Z"/></g>
<g><path style="opacity:1" fill="#e994a6" d="M 291.5,398.5 C 299.656,398.009 307.656,398.842 315.5,401C 329.141,408.65 342.807,415.983 356.5,423C 353.922,441.644 347.088,458.477 336,473.5C 323.689,484.815 309.189,488.982 292.5,486C 278.015,483.177 267.182,475.343 260,462.5C 253.323,448.841 249.323,434.508 248,419.5C 260.479,414.511 272.312,408.344 283.5,401C 286.31,400.218 288.977,399.384 291.5,398.5 Z"/></g>
<g><path style="opacity:1" fill="#3f3930" d="M 221.5,439.5 C 226.833,442.833 231.167,447.167 234.5,452.5C 229.833,448.5 225.5,444.167 221.5,439.5 Z"/></g>
</svg>
