<?xml version="1.0" encoding="UTF-8"?>
<!DOCTYPE svg PUBLIC "-//W3C//DTD SVG 1.1//EN" "http://www.w3.org/Graphics/SVG/1.1/DTD/svg11.dtd">
<svg xmlns="http://www.w3.org/2000/svg" version="1.1" width="600px" height="600px" style="shape-rendering:geometricPrecision; text-rendering:geometricPrecision; image-rendering:optimizeQuality; fill-rule:evenodd; clip-rule:evenodd" xmlns:xlink="http://www.w3.org/1999/xlink">
<g><path style="opacity:0.971" fill="#020202" d="M 599.5,201.5 C 599.5,221.833 599.5,242.167 599.5,262.5C 575.126,307.602 555.959,354.935 542,404.5C 532.351,417.041 521.018,418.707 508,409.5C 501.903,443.198 486.736,472.031 462.5,496C 458.783,499.385 454.783,502.385 450.5,505C 445.556,507.894 440.556,508.061 435.5,505.5C 431.196,512.303 426.696,518.97 422,525.5C 421.643,533.195 420.976,540.862 420,548.5C 416.55,561.281 408.217,568.281 395,569.5C 386.356,568.844 378.689,565.844 372,560.5C 367.041,566.465 361.208,571.298 354.5,575C 336.518,583.496 318.518,591.662 300.5,599.5C 300.167,599.5 299.833,599.5 299.5,599.5C 282.154,591.983 264.821,584.15 247.5,576C 240.291,571.559 233.624,566.392 227.5,560.5C 216.973,567.707 205.64,569.541 193.5,566C 185.956,562.088 181.456,555.921 180,547.5C 179.13,540.185 178.463,532.852 178,525.5C 173.667,518.833 169.333,512.167 165,505.5C 159.792,508.132 154.625,507.965 149.5,505C 133.854,493.519 121.187,479.353 111.5,462.5C 104.43,459.781 101.763,454.781 103.5,447.5C 98.5966,434.887 95.0966,421.887 93,408.5C 77.2686,419.873 64.6019,417.206 55,400.5C 42.2718,352.063 23.7718,306.063 -0.5,262.5C -0.5,242.167 -0.5,221.833 -0.5,201.5C 22.2793,160.202 49.946,122.368 82.5,88C 77.1,79.902 78.4333,72.902 86.5,67C 88.6314,66.4569 90.6314,65.6236 92.5,64.5C 86.3542,57.6081 84.8542,49.9414 88,41.5C 90.581,38.211 93.9143,36.211 98,35.5C 102.753,37.4565 107.587,39.2899 112.5,41C 123.945,42.6581 135.278,44.8248 146.5,47.5C 151.345,45.5379 156.345,44.0379 161.5,43C 189.665,20.9305 221.665,7.59716 257.5,3C 299.179,-2.77939 340.179,0.220605 380.5,12C 400.526,19.0555 418.859,29.0555 435.5,42C 441.85,43.2948 448.017,45.1282 454,47.5C 464.697,44.8548 475.53,42.6882 486.5,41C 491.413,39.2899 496.247,37.4565 501,35.5C 511.884,38.0765 515.551,44.7431 512,55.5C 510.545,58.9121 508.712,62.0788 506.5,65C 514.713,66.3803 519.38,71.2136 520.5,79.5C 519.63,82.9799 518.797,86.3133 518,89.5C 549.847,123.569 577.014,160.903 599.5,201.5 Z"/></g>
<g><path style="opacity:1" fill="#343434" d="M 452.5,57.5 C 455.386,58.8792 457.886,60.8792 460,63.5C 460.667,64.8333 460.667,66.1667 460,67.5C 457.46,69.7047 455.293,72.2047 453.5,75C 457.06,79.563 460.227,84.3963 463,89.5C 476.917,97.8746 490.75,106.375 504.5,115C 509.333,117.826 512.667,121.826 514.5,127C 514.415,128.107 514.081,129.107 513.5,130C 508.475,130.328 503.475,130.328 498.5,130C 497.376,130.839 496.709,132.006 496.5,133.5C 501.988,145.813 507.488,158.146 513,170.5C 517.078,180.566 520.244,190.899 522.5,201.5C 522.359,209.672 519.359,211.172 513.5,206C 508.044,203.093 503.877,204.259 501,209.5C 502.08,229.574 505.747,249.24 512,268.5C 513.33,274.452 513.663,280.452 513,286.5C 512.167,287.333 511.333,288.167 510.5,289C 506.683,289.492 502.683,289.992 498.5,290.5C 498.334,300.839 498.5,311.172 499,321.5C 501.908,325.721 503.741,330.387 504.5,335.5C 503.447,339.934 502.114,344.268 500.5,348.5C 501.246,352.132 501.579,355.798 501.5,359.5C 500.5,359.5 499.5,359.5 498.5,359.5C 498.738,368.171 499.072,376.838 499.5,385.5C 499.428,392.999 498.428,400.332 496.5,407.5C 489.727,409.968 484.227,408.302 480,402.5C 478.863,409.138 477.697,415.805 476.5,422.5C 479.153,435.924 476.653,448.258 469,459.5C 468.095,465.256 466.928,470.923 465.5,476.5C 464.599,477.29 463.932,478.29 463.5,479.5C 456.44,484.229 450.273,483.229 445,476.5C 441.785,467.017 438.285,457.684 434.5,448.5C 432.803,449.364 431.637,450.697 431,452.5C 430.23,459.166 427.73,464.999 423.5,470C 422.207,470.49 420.873,470.657 419.5,470.5C 420.155,445.168 420.322,419.834 420,394.5C 418.803,359.36 408.803,327.026 390,297.5C 386,292.833 382,288.167 378,283.5C 357.944,250.587 344.278,215.253 337,177.5C 336.833,170.833 336.667,164.167 336.5,157.5C 338.111,131.854 338.611,106.187 338,80.5C 336.581,58.5627 327.414,40.7293 310.5,27C 297.328,22.1681 286.494,25.3347 278,36.5C 268.05,50.1633 262.383,65.4967 261,82.5C 261.583,114.494 261.916,146.494 262,178.5C 255.541,211.027 244.208,241.693 228,270.5C 223.162,279.671 217.162,288.004 210,295.5C 190.456,324.278 180.123,356.278 179,391.5C 178.51,418.352 179.01,445.186 180.5,472C 180.202,474.848 179.869,477.681 179.5,480.5C 175.81,484.783 172.643,484.45 170,479.5C 166.777,466.723 165.11,453.723 165,440.5C 160.498,453.173 155.165,465.506 149,477.5C 147.264,480.739 144.764,483.073 141.5,484.5C 141.5,483.833 141.167,483.5 140.5,483.5C 132.962,470.568 126.962,456.902 122.5,442.5C 119.734,444.259 117.734,446.593 116.5,449.5C 113.956,452.307 112.956,451.64 113.5,447.5C 116.842,431.764 119.008,415.764 120,399.5C 119.667,399.167 119.333,398.833 119,398.5C 116.158,402.043 112.991,405.21 109.5,408C 106.66,408.966 104.66,408.133 103.5,405.5C 102.127,398.223 101.127,390.889 100.5,383.5C 100.436,377.746 101.102,372.08 102.5,366.5C 102.247,364.142 101.914,361.808 101.5,359.5C 100.5,359.5 99.5,359.5 98.5,359.5C 98.5037,355.973 98.8371,352.473 99.5,349C 98.3716,344.614 97.0383,340.281 95.5,336C 96.2864,331.261 97.7864,326.761 100,322.5C 100.667,311.833 100.667,301.167 100,290.5C 99.4387,291.022 98.772,291.355 98,291.5C 96.503,290.523 95.003,289.523 93.5,288.5C 87.8065,290.974 85.4731,289.141 86.5,283C 91.0392,261.936 95.2059,240.77 99,219.5C 99.6667,215.5 99.6667,211.5 99,207.5C 97.9377,204.936 96.1044,203.269 93.5,202.5C 89.1841,204.992 85.0174,207.659 81,210.5C 77.7237,208.958 76.2237,206.291 76.5,202.5C 80.7704,182.519 88.2704,163.853 99,146.5C 100.753,143 101.92,139.333 102.5,135.5C 103.129,132.072 101.796,130.072 98.5,129.5C 94.9759,131.088 91.3092,131.588 87.5,131C 86.5697,129.806 85.9031,128.473 85.5,127C 87.6582,122.015 90.9915,118.015 95.5,115C 109.084,106.625 122.584,98.125 136,89.5C 139.129,84.0739 142.629,78.9072 146.5,74C 144.667,72.1667 142.833,70.3333 141,68.5C 139.813,66.9556 139.48,65.2889 140,63.5C 142.671,61.0976 145.505,59.0976 148.5,57.5C 153.95,55.3079 159.617,53.8079 165.5,53C 204.846,22.8164 249.512,8.64971 299.5,10.5C 335.202,9.9526 369.202,17.1193 401.5,32C 411.844,38.1705 421.844,44.8372 431.5,52C 438.601,53.5191 445.601,55.3525 452.5,57.5 Z"/></g>
<g><path style="opacity:1" fill="#f3eae3" d="M 407.5,370.5 C 407.239,377.072 407.906,383.406 409.5,389.5C 409.682,411.175 409.349,432.842 408.5,454.5C 409.338,476.328 410.005,498.161 410.5,520C 410.536,529.534 410.036,539.034 409,548.5C 404.401,557.592 397.235,560.425 387.5,557C 384.853,555.701 382.186,554.368 379.5,553C 366.911,542.332 357.911,529.166 352.5,513.5C 349.991,507.808 346.991,502.474 343.5,497.5C 340.197,493.349 337.03,489.015 334,484.5C 312.249,462.635 289.916,461.969 267,482.5C 255.805,498.217 246.138,514.883 238,532.5C 232.297,541.414 225.13,548.914 216.5,555C 210.705,557.317 204.705,557.984 198.5,557C 193.744,554.578 190.91,550.745 190,545.5C 190.444,502.331 190.278,459.165 189.5,416C 186.365,375.377 195.531,337.877 217,303.5C 228.301,290.516 237.634,276.182 245,260.5C 257.064,237.036 265.731,212.369 271,186.5C 271.916,177.834 272.75,169.167 273.5,160.5C 271.373,134.547 270.54,108.547 271,82.5C 272.861,65.2827 279.695,50.4494 291.5,38C 295.218,35.7016 299.218,35.0349 303.5,36C 307.579,38.0751 311.079,40.9084 314,44.5C 321.015,55.537 325.681,67.537 328,80.5C 327.401,112.827 327.067,145.16 327,177.5C 332.154,209.631 342.488,239.964 358,268.5C 364.271,281.383 372.271,293.049 382,303.5C 395.316,323.942 403.816,346.275 407.5,370.5 Z"/></g>
<g><path style="opacity:1" fill="#191919" d="M 148.5,57.5 C 145.505,59.0976 142.671,61.0976 140,63.5C 139.48,65.2889 139.813,66.9556 141,68.5C 142.833,70.3333 144.667,72.1667 146.5,74C 142.629,78.9072 139.129,84.0739 136,89.5C 122.584,98.125 109.084,106.625 95.5,115C 90.9915,118.015 87.6582,122.015 85.5,127C 85.9031,128.473 86.5697,129.806 87.5,131C 91.3092,131.588 94.9759,131.088 98.5,129.5C 101.796,130.072 103.129,132.072 102.5,135.5C 101.92,139.333 100.753,143 99,146.5C 88.2704,163.853 80.7704,182.519 76.5,202.5C 76.2237,206.291 77.7237,208.958 81,210.5C 85.0174,207.659 89.1841,204.992 93.5,202.5C 96.1044,203.269 97.9377,204.936 99,207.5C 99.6667,211.5 99.6667,215.5 99,219.5C 95.2059,240.77 91.0392,261.936 86.5,283C 85.4731,289.141 87.8065,290.974 93.5,288.5C 95.003,289.523 96.503,290.523 98,291.5C 98.772,291.355 99.4387,291.022 100,290.5C 100.667,301.167 100.667,311.833 100,322.5C 97.7864,326.761 96.2864,331.261 95.5,336C 97.0383,340.281 98.3716,344.614 99.5,349C 98.8371,352.473 98.5037,355.973 98.5,359.5C 99.5,359.5 100.5,359.5 101.5,359.5C 101.914,361.808 102.247,364.142 102.5,366.5C 101.102,372.08 100.436,377.746 100.5,383.5C 95.7819,391.057 89.7819,397.557 82.5,403C 76.7129,405.582 71.5463,404.749 67,400.5C 52.7487,350.404 33.4154,302.404 9,256.5C 3.37375,240.965 3.04042,225.298 8,209.5C 11.553,200.726 15.8863,192.393 21,184.5C 39.815,155.217 60.815,127.55 84,101.5C 88.8569,97.399 93.5236,93.0657 98,88.5C 98.7805,87.0563 98.6139,85.723 97.5,84.5C 94.9206,83.2939 92.4206,81.9606 90,80.5C 89.9088,77.5724 91.4088,75.7391 94.5,75C 99.432,74.0971 104.265,72.9305 109,71.5C 109.667,70.5 109.667,69.5 109,68.5C 104.262,63.3595 100.262,57.6929 97,51.5C 96.5065,49.8659 96.3398,48.1992 96.5,46.5C 113.344,52.1959 130.677,55.8626 148.5,57.5 Z"/></g>
<g><path style="opacity:1" fill="#191919" d="M 499.5,385.5 C 499.072,376.838 498.738,368.171 498.5,359.5C 499.5,359.5 500.5,359.5 501.5,359.5C 501.579,355.798 501.246,352.132 500.5,348.5C 502.114,344.268 503.447,339.934 504.5,335.5C 503.741,330.387 501.908,325.721 499,321.5C 498.5,311.172 498.334,300.839 498.5,290.5C 502.683,289.992 506.683,289.492 510.5,289C 511.333,288.167 512.167,287.333 513,286.5C 513.663,280.452 513.33,274.452 512,268.5C 505.747,249.24 502.08,229.574 501,209.5C 503.877,204.259 508.044,203.093 513.5,206C 519.359,211.172 522.359,209.672 522.5,201.5C 520.244,190.899 517.078,180.566 513,170.5C 507.488,158.146 501.988,145.813 496.5,133.5C 496.709,132.006 497.376,130.839 498.5,130C 503.475,130.328 508.475,130.328 513.5,130C 514.081,129.107 514.415,128.107 514.5,127C 512.667,121.826 509.333,117.826 504.5,115C 490.75,106.375 476.917,97.8746 463,89.5C 460.227,84.3963 457.06,79.563 453.5,75C 455.293,72.2047 457.46,69.7047 460,67.5C 460.667,66.1667 460.667,64.8333 460,63.5C 457.886,60.8792 455.386,58.8792 452.5,57.5C 465.095,55.0119 477.761,52.8453 490.5,51C 494.379,49.9507 498.046,48.4507 501.5,46.5C 502.641,48.4213 502.808,50.4213 502,52.5C 499.066,58.0328 495.4,63.0328 491,67.5C 490.333,68.8333 490.333,70.1667 491,71.5C 497.02,73.2451 503.02,75.2451 509,77.5C 509.667,78.5 509.667,79.5 509,80.5C 506.538,81.6498 504.204,82.9831 502,84.5C 501.365,86.6354 501.699,88.6354 503,90.5C 511.667,97.8333 519.667,105.833 527,114.5C 547.217,139.384 565.884,165.384 583,192.5C 595.496,213.075 597.829,234.742 590,257.5C 565.412,303.012 546.079,350.679 532,400.5C 526.038,405.66 519.871,405.826 513.5,401C 508.214,396.159 503.548,390.993 499.5,385.5 Z"/></g>
<g><path style="opacity:1" fill="#deccbb" d="M 187.5,202.5 C 187.75,215.749 194.416,223.416 207.5,225.5C 223.979,222.506 230.145,212.839 226,196.5C 223.621,192.62 220.454,189.62 216.5,187.5C 221.993,181.169 227.493,181.169 233,187.5C 242.011,205.291 238.511,220.124 222.5,232C 200.244,240.365 185.244,233.365 177.5,211C 180.35,207.654 183.684,204.82 187.5,202.5 Z"/></g>
<g><path style="opacity:1" fill="#deccbc" d="M 382.5,187.5 C 371.199,194.017 368.366,203.35 374,215.5C 381.667,225.302 391.167,227.469 402.5,222C 408.581,217.338 411.581,211.171 411.5,203.5C 411.435,203.062 411.601,202.728 412,202.5C 415.528,205.033 418.694,207.866 421.5,211C 415.647,229.601 402.98,237.601 383.5,235C 364.121,226.938 357.288,212.772 363,192.5C 364.738,188.759 367.238,185.592 370.5,183C 375.315,182.656 379.315,184.156 382.5,187.5 Z"/></g>
<g><path style="opacity:1" fill="#010100" d="M 216.5,187.5 C 220.454,189.62 223.621,192.62 226,196.5C 230.145,212.839 223.979,222.506 207.5,225.5C 194.416,223.416 187.75,215.749 187.5,202.5C 196.393,196.8 205.56,191.466 215,186.5C 215.383,187.056 215.883,187.389 216.5,187.5 Z"/></g>
<g><path style="opacity:1" fill="#020101" d="M 382.5,187.5 C 393.209,191.019 402.875,196.353 411.5,203.5C 411.581,211.171 408.581,217.338 402.5,222C 391.167,227.469 381.667,225.302 374,215.5C 368.366,203.35 371.199,194.017 382.5,187.5 Z"/></g>
<g><path style="opacity:1" fill="#000000" d="M 287.5,284.5 C 301.669,283.793 315.669,284.96 329.5,288C 351.806,294.621 359.973,309.121 354,331.5C 345.486,347.859 332.319,358.693 314.5,364C 290.312,368.501 269.812,361.668 253,343.5C 243.809,331.104 242.142,317.771 248,303.5C 251.998,297.169 257.498,292.669 264.5,290C 272.147,287.513 279.813,285.679 287.5,284.5 Z"/></g>
<g><path style="opacity:1" fill="#716d6a" d="M 407.5,370.5 C 408.636,376.641 409.303,382.974 409.5,389.5C 407.906,383.406 407.239,377.072 407.5,370.5 Z"/></g>
<g><path style="opacity:1" fill="#191919" d="M 113.5,447.5 C 111.52,438.389 109.02,429.389 106,420.5C 104.842,415.543 104.008,410.543 103.5,405.5C 104.66,408.133 106.66,408.966 109.5,408C 112.991,405.21 116.158,402.043 119,398.5C 119.333,398.833 119.667,399.167 120,399.5C 119.008,415.764 116.842,431.764 113.5,447.5 Z"/></g>
<g><path style="opacity:1" fill="#161616" d="M 496.5,407.5 C 493.832,427.159 487.332,445.493 477,462.5C 473.68,467.647 469.847,472.314 465.5,476.5C 466.928,470.923 468.095,465.256 469,459.5C 476.653,448.258 479.153,435.924 476.5,422.5C 477.697,415.805 478.863,409.138 480,402.5C 484.227,408.302 489.727,409.968 496.5,407.5 Z"/></g>
<g><path style="opacity:1" fill="#191919" d="M 140.5,483.5 C 130.563,473.559 122.563,462.225 116.5,449.5C 117.734,446.593 119.734,444.259 122.5,442.5C 126.962,456.902 132.962,470.568 140.5,483.5 Z"/></g>
<g><path style="opacity:1" fill="#191919" d="M 179.5,480.5 C 179.666,489.506 179.5,498.506 179,507.5C 173.78,498.893 167.947,490.726 161.5,483C 160.552,482.517 159.552,482.351 158.5,482.5C 158.833,487.167 159.167,491.833 159.5,496.5C 157.345,496.628 155.345,496.128 153.5,495C 149.307,491.635 145.307,488.135 141.5,484.5C 144.764,483.073 147.264,480.739 149,477.5C 155.165,465.506 160.498,453.173 165,440.5C 165.11,453.723 166.777,466.723 170,479.5C 172.643,484.45 175.81,484.783 179.5,480.5 Z"/></g>
<g><path style="opacity:1" fill="#161616" d="M 463.5,479.5 C 459.336,484.497 454.669,488.997 449.5,493C 446.928,495.287 443.928,496.453 440.5,496.5C 441.037,491.814 441.704,487.147 442.5,482.5C 439.675,482.081 437.509,483.081 436,485.5C 430.751,492.996 425.751,500.663 421,508.5C 419.679,495.872 419.179,483.205 419.5,470.5C 420.873,470.657 422.207,470.49 423.5,470C 427.73,464.999 430.23,459.166 431,452.5C 431.637,450.697 432.803,449.364 434.5,448.5C 438.285,457.684 441.785,467.017 445,476.5C 450.273,483.229 456.44,484.229 463.5,479.5 Z"/></g>
<g><path style="opacity:1" fill="#f09c9f" d="M 346.5,525.5 C 338.74,548.234 322.74,560.568 298.5,562.5C 275.532,561.189 259.866,549.856 251.5,528.5C 257.543,514.075 265.377,500.742 275,488.5C 292.619,473.306 309.619,473.973 326,490.5C 333.854,501.537 340.687,513.204 346.5,525.5 Z"/></g>
<g><path style="opacity:1" fill="#bca9a5" d="M 343.5,497.5 C 346.991,502.474 349.991,507.808 352.5,513.5C 348.518,508.886 345.518,503.552 343.5,497.5 Z"/></g>
<g><path style="opacity:1" fill="#191818" d="M 346.5,525.5 C 350.287,535.72 356.121,544.72 364,552.5C 364.667,553.167 364.667,553.833 364,554.5C 358.949,559.274 353.449,563.44 347.5,567C 331.672,573.884 316.006,581.05 300.5,588.5C 285.125,581.764 269.792,574.93 254.5,568C 247.517,564.253 241.351,559.419 236,553.5C 235.333,552.833 235.333,552.167 236,551.5C 242.627,544.727 247.793,537.06 251.5,528.5C 259.866,549.856 275.532,561.189 298.5,562.5C 322.74,560.568 338.74,548.234 346.5,525.5 Z"/></g>
</svg>
