<?xml version="1.0" encoding="UTF-8"?>
<!DOCTYPE svg PUBLIC "-//W3C//DTD SVG 1.1//EN" "http://www.w3.org/Graphics/SVG/1.1/DTD/svg11.dtd">
<svg xmlns="http://www.w3.org/2000/svg" version="1.1" width="600px" height="600px" style="shape-rendering:geometricPrecision; text-rendering:geometricPrecision; image-rendering:optimizeQuality; fill-rule:evenodd; clip-rule:evenodd" xmlns:xlink="http://www.w3.org/1999/xlink">
<g><path style="opacity:0.952" fill="#010101" d="M 599.5,74.5 C 599.5,85.5 599.5,96.5 599.5,107.5C 596.793,108.551 593.96,109.218 591,109.5C 573.356,105.131 555.523,101.797 537.5,99.5C 535.833,99.8333 534.167,100.167 532.5,100.5C 540.389,108.731 545.723,118.398 548.5,129.5C 548.134,137.424 544.134,142.258 536.5,144C 526.209,145.172 515.876,145.839 505.5,146C 508.98,159.457 513.147,172.957 518,186.5C 525.808,212.54 532.475,238.873 538,265.5C 540.257,283.3 543.257,300.967 547,318.5C 551.011,327.977 555.178,337.31 559.5,346.5C 556.467,359.176 548.8,363.176 536.5,358.5C 533.574,373.463 530.907,388.463 528.5,403.5C 529.136,410.857 529.969,418.19 531,425.5C 533.934,434.136 536.767,442.802 539.5,451.5C 539.032,458.133 535.699,462.633 529.5,465C 535.401,479.535 541.401,494.035 547.5,508.5C 545.264,518.451 539.264,521.951 529.5,519C 517.551,513.448 506.718,506.281 497,497.5C 496.296,499.278 495.796,501.112 495.5,503C 497.666,511.498 499.832,519.998 502,528.5C 503.296,539.45 498.463,543.95 487.5,542C 481.742,538.246 476.575,533.746 472,528.5C 473.494,534.829 475.328,541.162 477.5,547.5C 474.568,557.76 468.234,560.593 458.5,556C 454.333,551.833 450.167,547.667 446,543.5C 436.262,555.954 423.762,564.287 408.5,568.5C 397.04,565.559 394.04,558.725 399.5,548C 396.701,548.732 394.034,550.066 391.5,552C 374.938,568.911 356.938,583.911 337.5,597C 327.54,598.716 321.706,594.549 320,584.5C 319.369,580.143 319.535,575.809 320.5,571.5C 320.167,570.5 319.833,569.5 319.5,568.5C 317.282,569.924 315.782,571.924 315,574.5C 313.944,580.89 312.611,587.223 311,593.5C 309.64,596.023 307.807,598.023 305.5,599.5C 300.833,599.5 296.167,599.5 291.5,599.5C 279.945,592.115 270.111,582.782 262,571.5C 263.256,577.855 262.256,583.855 259,589.5C 253.836,593.834 248.336,594.334 242.5,591C 232.255,580.759 222.755,569.926 214,558.5C 209.259,553.088 203.926,548.421 198,544.5C 199.232,550.738 197.732,556.238 193.5,561C 191.084,562.063 188.584,562.896 186,563.5C 173.343,560.506 162.677,554.172 154,544.5C 150.833,549 147,552.833 142.5,556C 132.49,560.783 126.49,557.783 124.5,547C 126.036,541.079 127.536,535.246 129,529.5C 124.474,534.506 119.307,538.673 113.5,542C 104.765,543.758 99.7652,540.258 98.5,531.5C 100.835,522.828 103.168,514.161 105.5,505.5C 104.167,503.833 102.833,502.167 101.5,500.5C 90.759,509.12 78.9256,515.787 66,520.5C 57.2179,519.274 53.5513,514.274 55,505.5C 60.7762,492.281 66.2762,478.948 71.5,465.5C 65.7075,462.868 62.3742,458.368 61.5,452C 63.8918,443.709 66.7251,435.542 70,427.5C 72.1065,416.582 72.7732,405.582 72,394.5C 69.1766,382.549 66.6766,370.549 64.5,358.5C 47.4934,362.933 40.6601,356.6 44,339.5C 48.9979,332.503 52.6645,324.836 55,316.5C 62.6316,258.807 76.4649,202.64 96.5,148C 96.3552,147.228 96.0219,146.561 95.5,146C 85.1298,145.804 74.7965,145.138 64.5,144C 57.3455,141.896 53.3455,137.062 52.5,129.5C 55.4492,118.102 61.1159,108.268 69.5,100C 63.1348,99.4873 56.8014,99.8206 50.5,101C 37.154,103.769 23.8206,106.603 10.5,109.5C 6.67806,108.962 3.01139,107.962 -0.5,106.5C -0.5,97.1667 -0.5,87.8333 -0.5,78.5C 12.7311,54.0965 31.0644,34.2631 54.5,19C 89.064,0.0124351 125.064,-3.3209 162.5,9C 180.779,17.4727 198.779,26.4727 216.5,36C 223.205,38.9265 230.205,40.7598 237.5,41.5C 279.502,32.1668 321.502,32.1668 363.5,41.5C 372.611,40.5183 381.278,38.0183 389.5,34C 403.5,26.6667 417.5,19.3333 431.5,12C 478.575,-6.15827 522.241,-0.158273 562.5,30C 576.96,43.2724 589.293,58.1057 599.5,74.5 Z"/></g>
<g><path style="opacity:1" fill="#3c3232" d="M 237.5,51.5 C 203.343,58.7466 172.676,73.2466 145.5,95C 129.809,109.163 117.476,125.663 108.5,144.5C 105.517,138.332 100.517,135.166 93.5,135C 84.5,134.667 75.5,134.333 66.5,134C 63.7972,132.18 62.9639,129.68 64,126.5C 65.3333,123.833 66.6667,121.167 68,118.5C 73.7169,111.784 79.0503,104.784 84,97.5C 84.9606,93.7744 83.4606,91.6078 79.5,91C 70.5764,89.42 61.5764,89.0867 52.5,90C 40.1281,92.4565 27.7947,95.1232 15.5,98C 12.2397,98.7835 9.07307,98.6168 6,97.5C 5.53064,92.5609 6.53064,87.8942 9,83.5C 23.5526,56.614 44.3859,36.114 71.5,22C 100.46,10.4896 129.793,9.48955 159.5,19C 175.958,27.0626 192.292,35.3959 208.5,44C 217.647,48.5367 227.314,51.0367 237.5,51.5 Z"/></g>
<g><path style="opacity:1" fill="#3c3232" d="M 493.5,146.5 C 475.451,108.955 447.118,82.1212 408.5,66C 393.609,60.4239 378.609,55.5906 363.5,51.5C 372.836,50.7494 381.836,48.5827 390.5,45C 405.833,37 421.167,29 436.5,21C 499.214,0.904356 549.047,18.071 586,72.5C 588.921,77.3413 591.588,82.3413 594,87.5C 598.237,97.5976 595.071,101.098 584.5,98C 571.964,94.6993 559.298,92.0327 546.5,90C 538.089,89.0946 529.755,89.4279 521.5,91C 519.919,91.7065 518.419,92.5399 517,93.5C 516.333,94.5 516.333,95.5 517,96.5C 522.755,105.01 528.755,113.343 535,121.5C 537.245,124.881 537.912,128.548 537,132.5C 535.933,133.191 534.766,133.691 533.5,134C 523.118,134.13 512.784,134.796 502.5,136C 496.769,137.227 493.769,140.727 493.5,146.5 Z"/></g>
<g><path style="opacity:1" fill="#baafad" d="M 363.5,51.5 C 378.609,55.5906 393.609,60.4239 408.5,66C 447.118,82.1212 475.451,108.955 493.5,146.5C 514.416,201.831 528.583,258.831 536,317.5C 538.971,327.601 543.138,337.101 548.5,346C 548.445,348.89 546.945,350.056 544,349.5C 539.985,348.94 536.152,347.773 532.5,346C 530.231,345.242 528.064,345.409 526,346.5C 525.253,362.06 522.92,377.394 519,392.5C 517.351,411.607 520.351,429.941 528,447.5C 528.497,449.81 528.663,452.143 528.5,454.5C 522.888,453.574 517.888,451.241 513.5,447.5C 509.363,433.952 505.696,420.285 502.5,406.5C 498.362,383.671 495.529,360.671 494,337.5C 492.999,295.47 491.332,253.47 489,211.5C 486.547,168.404 469.38,132.57 437.5,104C 411.368,84.8389 382.701,75.6722 351.5,76.5C 355.309,86.6946 355.476,97.0279 352,107.5C 346.869,120.435 340.202,132.435 332,143.5C 328.168,150.162 325.168,157.162 323,164.5C 322.228,169.904 322.561,175.238 324,180.5C 326.803,188.11 330.636,195.11 335.5,201.5C 335.137,202.183 334.804,202.85 334.5,203.5C 327.837,204.833 321.504,207.167 315.5,210.5C 309.936,207.703 304.269,205.203 298.5,203C 293.833,202.333 289.167,202.333 284.5,203C 282.996,204.491 282.163,206.324 282,208.5C 281.5,208 281,207.5 280.5,207C 275.5,206.667 270.5,206.333 265.5,206C 264.956,205.283 264.289,204.783 263.5,204.5C 271.016,195.804 276.183,185.804 279,174.5C 279.667,171.167 279.667,167.833 279,164.5C 274.142,151.113 267.476,138.78 259,127.5C 251.854,116.71 247.687,104.876 246.5,92C 246.594,86.9217 247.594,82.0884 249.5,77.5C 189.224,76.3719 147.058,104.372 123,161.5C 115.987,182.594 111.987,204.261 111,226.5C 109.855,272.55 107.855,318.55 105,364.5C 101.914,389.501 97.2478,414.167 91,438.5C 90.0952,442.153 88.5952,445.486 86.5,448.5C 83.1981,451.402 79.3648,453.402 75,454.5C 73.1147,454.138 72.2814,452.971 72.5,451C 81.0348,431.69 84.2014,411.523 82,390.5C 77.9367,376.119 75.6033,361.453 75,346.5C 72.5991,345.398 70.0991,345.231 67.5,346C 63.2111,348.877 58.5445,349.877 53.5,349C 52.9415,348.275 52.6082,347.442 52.5,346.5C 57.7306,338.036 61.8973,329.036 65,319.5C 72.5887,259.373 87.0887,201.039 108.5,144.5C 117.476,125.663 129.809,109.163 145.5,95C 172.676,73.2466 203.343,58.7466 237.5,51.5C 279.49,43.5508 321.49,43.5508 363.5,51.5 Z"/></g>
<g><path style="opacity:1" fill="#7e7d7d" d="M 249.5,77.5 C 203.262,87.1862 167.428,112.186 142,152.5C 131.333,172.172 125.333,193.172 124,215.5C 120.3,271.504 116.8,327.504 113.5,383.5C 112.833,389.833 112.167,396.167 111.5,402.5C 109.931,411.625 107.931,420.791 105.5,430C 105.667,430.833 105.833,431.667 106,432.5C 108.188,429.433 110.355,426.433 112.5,423.5C 112.137,428.769 112.971,433.769 115,438.5C 117.283,445.103 121.95,448.103 129,447.5C 132.175,447.054 135.342,446.554 138.5,446C 139.126,445.25 139.626,444.416 140,443.5C 140.333,452.5 140.667,461.5 141,470.5C 147.559,484.925 156.392,497.925 167.5,509.5C 163.75,516.002 159.75,522.335 155.5,528.5C 148.854,534.561 142.52,541.061 136.5,548C 135.517,548.591 134.85,548.257 134.5,547C 140.062,533.684 143.396,519.851 144.5,505.5C 145.117,505.389 145.617,505.056 146,504.5C 146.667,499.833 146.667,495.167 146,490.5C 145,489.167 144,489.167 143,490.5C 141.589,492.65 140.755,494.984 140.5,497.5C 134.687,505.098 128.854,512.765 123,520.5C 118.967,524.868 114.634,528.868 110,532.5C 112.024,520.064 114.857,507.73 118.5,495.5C 118.376,494.893 118.043,494.56 117.5,494.5C 120.112,486.439 121.112,478.106 120.5,469.5C 119.127,469.343 117.793,469.51 116.5,470C 113.246,472.747 110.58,475.914 108.5,479.5C 96.7977,491.521 83.4644,501.354 68.5,509C 67.0563,509.781 65.723,509.614 64.5,508.5C 73.4311,489.548 81.0978,470.048 87.5,450C 87.4301,449.235 87.0967,448.735 86.5,448.5C 88.5952,445.486 90.0952,442.153 91,438.5C 97.2478,414.167 101.914,389.501 105,364.5C 107.855,318.55 109.855,272.55 111,226.5C 111.987,204.261 115.987,182.594 123,161.5C 147.058,104.372 189.224,76.3719 249.5,77.5 Z"/></g>
<g><path style="opacity:1" fill="#5b5750" d="M 351.5,76.5 C 403.273,86.4663 441.106,114.8 465,161.5C 471.682,177.896 476.016,194.896 478,212.5C 481.254,269.499 484.421,326.499 487.5,383.5C 486.416,378.604 485.25,373.604 484,368.5C 480.619,359.938 477.452,351.271 474.5,342.5C 476.722,342.822 478.556,342.155 480,340.5C 481.957,332.255 481.29,324.255 478,316.5C 474.393,308.672 470.227,301.172 465.5,294C 467.878,293.489 470.212,292.822 472.5,292C 475.317,284.373 473.317,278.039 466.5,273C 458.833,269.333 451.167,265.667 443.5,262C 435.167,252.333 426.833,242.667 418.5,233C 397.037,222.231 374.037,216.231 349.5,215C 347.35,212.841 347.017,210.341 348.5,207.5C 347.912,203.324 345.412,201.324 341,201.5C 338.774,202.033 336.607,202.7 334.5,203.5C 334.804,202.85 335.137,202.183 335.5,201.5C 330.636,195.11 326.803,188.11 324,180.5C 322.561,175.238 322.228,169.904 323,164.5C 325.168,157.162 328.168,150.162 332,143.5C 340.202,132.435 346.869,120.435 352,107.5C 355.476,97.0279 355.309,86.6946 351.5,76.5 Z"/></g>
<g><path style="opacity:1" fill="#7f7e7e" d="M 502.5,406.5 C 497.833,400.167 493.167,393.833 488.5,387.5C 488.567,386.041 488.234,384.708 487.5,383.5C 484.421,326.499 481.254,269.499 478,212.5C 476.016,194.896 471.682,177.896 465,161.5C 441.106,114.8 403.273,86.4663 351.5,76.5C 382.701,75.6722 411.368,84.8389 437.5,104C 469.38,132.57 486.547,168.404 489,211.5C 491.332,253.47 492.999,295.47 494,337.5C 495.529,360.671 498.362,383.671 502.5,406.5 Z"/></g>
<g><path style="opacity:1" fill="#5b5750" d="M 249.5,77.5 C 247.594,82.0884 246.594,86.9217 246.5,92C 247.687,104.876 251.854,116.71 259,127.5C 267.476,138.78 274.142,151.113 279,164.5C 279.667,167.833 279.667,171.167 279,174.5C 276.183,185.804 271.016,195.804 263.5,204.5C 259.154,204.334 254.821,204.501 250.5,205C 248.523,208.704 246.189,212.204 243.5,215.5C 235.272,217.366 226.939,218.533 218.5,219C 210.862,220.923 203.529,223.589 196.5,227C 191.833,230.333 187.167,233.667 182.5,237C 173.412,246.76 163.745,255.76 153.5,264C 143.729,267.101 134.896,271.934 127,278.5C 126.784,280.384 126.117,282.051 125,283.5C 123.313,290.491 126.146,293.991 133.5,294C 126.936,303.364 122.103,313.531 119,324.5C 118.333,329.833 118.333,335.167 119,340.5C 121.135,342.278 123.635,342.945 126.5,342.5C 126.559,346.27 125.392,349.604 123,352.5C 119.888,362.932 116.722,373.266 113.5,383.5C 116.8,327.504 120.3,271.504 124,215.5C 125.333,193.172 131.333,172.172 142,152.5C 167.428,112.186 203.262,87.1862 249.5,77.5 Z"/></g>
<g><path style="opacity:1" fill="#7d7c7c" d="M 217.5,151.5 C 233.739,149.691 244.573,156.357 250,171.5C 252.329,187.68 245.829,198.513 230.5,204C 207.687,205.187 196.854,194.354 198,171.5C 201.351,161.65 207.851,154.983 217.5,151.5 Z"/></g>
<g><path style="opacity:1" fill="#7d7c7c" d="M 370.5,151.5 C 386.167,149.745 397,156.078 403,170.5C 405.637,187.067 399.137,198.233 383.5,204C 361.184,205.351 350.351,194.851 351,172.5C 353.914,162.089 360.414,155.089 370.5,151.5 Z"/></g>
<g><path style="opacity:1" fill="#040505" d="M 229.5,164.5 C 227.983,164.511 226.816,165.177 226,166.5C 224.125,173.282 226.625,176.448 233.5,176C 235.041,174.629 236.375,173.129 237.5,171.5C 240.845,178.461 239.512,184.628 233.5,190C 222.497,195.657 214.331,192.824 209,181.5C 207.987,170.506 212.987,164.172 224,162.5C 226.111,162.701 227.945,163.367 229.5,164.5 Z"/></g>
<g><path style="opacity:1" fill="#030404" d="M 382.5,164.5 C 378.746,165.828 377.579,168.494 379,172.5C 383.248,177.987 387.082,177.653 390.5,171.5C 394.495,183.823 389.995,191.156 377,193.5C 365.141,190.941 360.475,183.608 363,171.5C 367.69,163.55 374.19,161.216 382.5,164.5 Z"/></g>
<g><path style="opacity:1" fill="#f2f2f2" d="M 229.5,164.5 C 234.682,164.018 237.349,166.351 237.5,171.5C 236.375,173.129 235.041,174.629 233.5,176C 226.625,176.448 224.125,173.282 226,166.5C 226.816,165.177 227.983,164.511 229.5,164.5 Z"/></g>
<g><path style="opacity:1" fill="#f2f2f2" d="M 382.5,164.5 C 387.682,164.018 390.349,166.351 390.5,171.5C 387.082,177.653 383.248,177.987 379,172.5C 377.579,168.494 378.746,165.828 382.5,164.5 Z"/></g>
<g><path style="opacity:1" fill="#070706" d="M 487.5,383.5 C 488.234,384.708 488.567,386.041 488.5,387.5C 489.166,394.827 489.832,402.161 490.5,409.5C 489.685,419.361 488.185,429.027 486,438.5C 482.677,446.147 476.844,448.98 468.5,447C 465.724,446.934 463.558,445.768 462,443.5C 461.681,453.857 461.015,464.191 460,474.5C 457.706,479.388 455.039,484.055 452,488.5C 445.953,495.708 440.12,503.042 434.5,510.5C 431.5,512.833 428.833,515.5 426.5,518.5C 422.64,519.689 419.64,522.023 417.5,525.5C 416.317,526.504 414.984,527.338 413.5,528C 400.646,531.473 394.813,526.64 396,513.5C 394.983,511.624 394.149,509.624 393.5,507.5C 389.626,513.542 384.626,518.375 378.5,522C 368.956,526.289 359.623,530.956 350.5,536C 342.785,537.74 335.452,540.406 328.5,544C 319.129,545.601 309.795,547.434 300.5,549.5C 276.453,545.818 253.786,538.151 232.5,526.5C 226.79,524.531 221.79,521.364 217.5,517C 213.046,515.047 209.713,511.88 207.5,507.5C 205.285,512.878 204.118,518.544 204,524.5C 202.833,525.667 201.667,526.833 200.5,528C 195.833,528.667 191.167,528.667 186.5,528C 185.627,526.955 184.627,526.122 183.5,525.5C 180.833,522.167 177.833,519.167 174.5,516.5C 172.5,513.833 170.167,511.5 167.5,509.5C 156.392,497.925 147.559,484.925 141,470.5C 140.667,461.5 140.333,452.5 140,443.5C 139.626,444.416 139.126,445.25 138.5,446C 135.342,446.554 132.175,447.054 129,447.5C 121.95,448.103 117.283,445.103 115,438.5C 112.971,433.769 112.137,428.769 112.5,423.5C 111.538,416.588 111.205,409.588 111.5,402.5C 112.167,396.167 112.833,389.833 113.5,383.5C 116.722,373.266 119.888,362.932 123,352.5C 125.392,349.604 126.559,346.27 126.5,342.5C 123.635,342.945 121.135,342.278 119,340.5C 118.333,335.167 118.333,329.833 119,324.5C 122.103,313.531 126.936,303.364 133.5,294C 126.146,293.991 123.313,290.491 125,283.5C 126.117,282.051 126.784,280.384 127,278.5C 134.896,271.934 143.729,267.101 153.5,264C 163.745,255.76 173.412,246.76 182.5,237C 187.167,233.667 191.833,230.333 196.5,227C 203.529,223.589 210.862,220.923 218.5,219C 226.939,218.533 235.272,217.366 243.5,215.5C 246.189,212.204 248.523,208.704 250.5,205C 254.821,204.501 259.154,204.334 263.5,204.5C 264.289,204.783 264.956,205.283 265.5,206C 270.5,206.333 275.5,206.667 280.5,207C 281,207.5 281.5,208 282,208.5C 282.163,206.324 282.996,204.491 284.5,203C 289.167,202.333 293.833,202.333 298.5,203C 304.269,205.203 309.936,207.703 315.5,210.5C 321.504,207.167 327.837,204.833 334.5,203.5C 336.607,202.7 338.774,202.033 341,201.5C 345.412,201.324 347.912,203.324 348.5,207.5C 347.017,210.341 347.35,212.841 349.5,215C 374.037,216.231 397.037,222.231 418.5,233C 426.833,242.667 435.167,252.333 443.5,262C 451.167,265.667 458.833,269.333 466.5,273C 473.317,278.039 475.317,284.373 472.5,292C 470.212,292.822 467.878,293.489 465.5,294C 470.227,301.172 474.393,308.672 478,316.5C 481.29,324.255 481.957,332.255 480,340.5C 478.556,342.155 476.722,342.822 474.5,342.5C 477.452,351.271 480.619,359.938 484,368.5C 485.25,373.604 486.416,378.604 487.5,383.5 Z"/></g>
<g><path style="opacity:1" fill="#3d3333" d="M 287.5,207.5 C 287.5,210.833 287.5,214.167 287.5,217.5C 283.828,218.045 284.162,218.378 288.5,218.5C 288.5,215.167 288.5,211.833 288.5,208.5C 289.791,208.737 290.791,208.404 291.5,207.5C 294.721,208.505 298.054,209.339 301.5,210C 305.576,212.705 309.909,214.871 314.5,216.5C 319.8,215.012 324.8,212.845 329.5,210C 334.266,209.11 338.933,207.943 343.5,206.5C 343.058,209.343 342.058,212.009 340.5,214.5C 341.415,216.98 342.915,217.647 345,216.5C 344.852,217.825 345.018,218.992 345.5,220C 373.302,220.155 398.802,227.988 422,243.5C 422.333,244.833 422.667,246.167 423,247.5C 428.596,253.093 433.43,259.26 437.5,266C 449.498,269.744 459.998,275.911 469,284.5C 469.49,285.793 469.657,287.127 469.5,288.5C 465.486,288.334 461.486,288.501 457.5,289C 457.043,289.414 456.709,289.914 456.5,290.5C 464.582,302.663 471.082,315.663 476,329.5C 478.244,336.091 476.077,338.591 469.5,337C 467.86,334.661 465.86,333.828 463.5,334.5C 477.734,360.026 484.901,387.36 485,416.5C 484.807,425.135 482.474,433.135 478,440.5C 475.225,443.654 472.058,444.154 468.5,442C 465.428,439.191 463.095,435.858 461.5,432C 459.831,430.331 457.831,429.498 455.5,429.5C 455.612,437.84 455.945,446.173 456.5,454.5C 456.726,460.657 455.893,466.657 454,472.5C 443.453,491.054 429.953,507.221 413.5,521C 407.371,526.511 403.204,525.344 401,517.5C 400.579,513.128 399.912,508.795 399,504.5C 393.977,498.704 389.977,499.37 387,506.5C 383.61,510.393 379.777,513.727 375.5,516.5C 352.094,529.572 327.26,539.239 301,545.5C 274.313,539.388 249.146,529.721 225.5,516.5C 219.31,512.477 214.31,507.31 210.5,501C 207.86,500.161 205.527,500.661 203.5,502.5C 201.573,508.726 200.073,515.059 199,521.5C 196.134,524.96 192.968,525.293 189.5,522.5C 172.244,507.634 158.078,490.3 147,470.5C 145.14,455.843 145.306,441.177 147.5,426.5C 145.217,426.608 143.217,427.441 141.5,429C 139.445,435.717 135.279,440.55 129,443.5C 125.069,441.903 122.069,439.236 120,435.5C 115.673,418.964 115.34,402.297 119,385.5C 123.295,367.444 129.462,350.111 137.5,333.5C 134.341,333.481 131.674,334.648 129.5,337C 127.527,337.495 125.527,337.662 123.5,337.5C 122.965,330.843 124.132,324.51 127,318.5C 132.099,308.411 137.599,298.578 143.5,289C 142.391,288.362 141.225,287.862 140,287.5C 136.559,288.382 133.059,288.716 129.5,288.5C 129.738,284.862 131.404,282.029 134.5,280C 143.06,274.553 152.06,269.886 161.5,266C 166.666,259.747 172.666,254.414 179.5,250C 189.123,237.995 201.456,229.662 216.5,225C 227.545,223.625 238.545,221.958 249.5,220C 248.663,218.989 248.33,217.822 248.5,216.5C 250.527,216.662 252.527,216.495 254.5,216C 252.984,214.103 252.317,211.936 252.5,209.5C 259.507,209.834 266.507,210.334 273.5,211C 277.855,212.846 282.189,214.679 286.5,216.5C 286.19,213.287 286.523,210.287 287.5,207.5 Z"/></g>
<g><path style="opacity:1" fill="#7f7776" d="M 287.5,207.5 C 288.833,207.5 290.167,207.5 291.5,207.5C 290.791,208.404 289.791,208.737 288.5,208.5C 288.5,211.833 288.5,215.167 288.5,218.5C 284.162,218.378 283.828,218.045 287.5,217.5C 287.5,214.167 287.5,210.833 287.5,207.5 Z"/></g>
<g><path style="opacity:1" fill="#222120" d="M 290.5,257.5 C 305.787,256.49 320.453,258.99 334.5,265C 344.058,271.326 347.558,280.159 345,291.5C 342.552,301.227 337.052,308.727 328.5,314C 312.971,323.958 296.637,325.291 279.5,318C 267.757,312.593 259.924,303.76 256,291.5C 254.173,279.646 258.34,270.48 268.5,264C 275.747,261.128 283.081,258.961 290.5,257.5 Z"/></g>
<g><path style="opacity:1" fill="#222120" d="M 259.5,359.5 C 258.525,379.072 261.191,398.072 267.5,416.5C 264.856,413.227 262.689,409.56 261,405.5C 256.941,395.715 252.608,386.048 248,376.5C 241.667,370.833 235.333,365.167 229,359.5C 221.386,351.616 218.386,342.283 220,331.5C 220.869,328.606 222.702,327.439 225.5,328C 228.106,334.576 230.939,341.076 234,347.5C 240.029,356.684 248.529,360.684 259.5,359.5 Z"/></g>
<g><path style="opacity:1" fill="#222120" d="M 333.5,412.5 C 338.681,395.228 340.681,377.561 339.5,359.5C 352.857,360.573 362.69,355.24 369,343.5C 370.528,340.583 371.861,337.583 373,334.5C 375.35,332.317 377.517,329.984 379.5,327.5C 380.086,327.709 380.586,328.043 381,328.5C 381.667,332.833 381.667,337.167 381,341.5C 379.027,347.449 376.027,352.783 372,357.5C 365.303,364.532 358.303,371.198 351,377.5C 345.607,389.953 339.94,402.286 334,414.5C 333.536,413.906 333.369,413.239 333.5,412.5 Z"/></g>
<g><path style="opacity:1" fill="#f19c9f" d="M 339.5,359.5 C 340.681,377.561 338.681,395.228 333.5,412.5C 322.49,435.495 305.156,441.995 281.5,432C 275.544,427.884 270.878,422.717 267.5,416.5C 261.191,398.072 258.525,379.072 259.5,359.5C 273.1,356.523 286.434,352.523 299.5,347.5C 312.542,352.514 325.876,356.514 339.5,359.5 Z"/></g>
<g><path style="opacity:1" fill="#787676" d="M 488.5,387.5 C 493.167,393.833 497.833,400.167 502.5,406.5C 505.696,420.285 509.363,433.952 513.5,447.5C 516.16,457.315 519.327,466.981 523,476.5C 527.607,487.496 532.107,498.496 536.5,509.5C 531.052,508.444 526.052,506.278 521.5,503C 510.791,495.964 500.958,487.798 492,478.5C 491.617,479.056 491.117,479.389 490.5,479.5C 489.452,474.767 486.785,471.1 482.5,468.5C 481.808,469.025 481.308,469.692 481,470.5C 480.348,478.596 481.015,486.596 483,494.5C 483.2,496.32 484.034,497.653 485.5,498.5C 486.598,509.416 488.931,520.249 492.5,531C 492.167,531.5 491.833,532 491.5,532.5C 480.032,523.199 470.532,512.199 463,499.5C 462.329,498.748 461.496,498.414 460.5,498.5C 461.166,494.814 459.833,491.814 456.5,489.5C 455.186,494.652 455.186,499.652 456.5,504.5C 456.577,508.877 457.077,513.21 458,517.5C 461.157,527.796 463.823,538.129 466,548.5C 458.603,541.271 451.437,533.938 444.5,526.5C 440.771,521.433 437.438,516.099 434.5,510.5C 440.12,503.042 445.953,495.708 452,488.5C 455.039,484.055 457.706,479.388 460,474.5C 461.015,464.191 461.681,453.857 462,443.5C 463.558,445.768 465.724,446.934 468.5,447C 476.844,448.98 482.677,446.147 486,438.5C 488.185,429.027 489.685,419.361 490.5,409.5C 489.832,402.161 489.166,394.827 488.5,387.5 Z"/></g>
<g><path style="opacity:1" fill="#5c5952" d="M 111.5,402.5 C 111.205,409.588 111.538,416.588 112.5,423.5C 110.355,426.433 108.188,429.433 106,432.5C 105.833,431.667 105.667,430.833 105.5,430C 107.931,420.791 109.931,411.625 111.5,402.5 Z"/></g>
<g><path style="opacity:1" fill="#b7acaa" d="M 117.5,494.5 C 115.466,496.246 113.299,496.58 111,495.5C 109.515,490.293 108.682,484.959 108.5,479.5C 110.58,475.914 113.246,472.747 116.5,470C 117.793,469.51 119.127,469.343 120.5,469.5C 121.112,478.106 120.112,486.439 117.5,494.5 Z"/></g>
<g><path style="opacity:1" fill="#afa4a3" d="M 490.5,479.5 C 489.707,486.079 488.04,492.413 485.5,498.5C 484.034,497.653 483.2,496.32 483,494.5C 481.015,486.596 480.348,478.596 481,470.5C 481.308,469.692 481.808,469.025 482.5,468.5C 486.785,471.1 489.452,474.767 490.5,479.5 Z"/></g>
<g><path style="opacity:1" fill="#b3a9a7" d="M 144.5,505.5 C 143.167,502.833 141.833,500.167 140.5,497.5C 140.755,494.984 141.589,492.65 143,490.5C 144,489.167 145,489.167 146,490.5C 146.667,495.167 146.667,499.833 146,504.5C 145.617,505.056 145.117,505.389 144.5,505.5 Z"/></g>
<g><path style="opacity:1" fill="#aea3a2" d="M 460.5,498.5 C 458.774,500.228 457.441,502.228 456.5,504.5C 455.186,499.652 455.186,494.652 456.5,489.5C 459.833,491.814 461.166,494.814 460.5,498.5 Z"/></g>
<g><path style="opacity:1" fill="#b9aeac" d="M 232.5,526.5 C 239.769,535.774 247.436,544.774 255.5,553.5C 253.089,553.137 251.589,554.137 251,556.5C 250.3,563.907 250.8,571.24 252.5,578.5C 251.003,583.487 248.503,583.82 245,579.5C 233.873,566.037 222.373,552.871 210.5,540C 204.012,534.924 196.679,531.757 188.5,530.5C 186.626,530.39 185.126,531.056 184,532.5C 184.828,539.183 185.995,545.85 187.5,552.5C 173.31,549.385 162.643,541.385 155.5,528.5C 159.75,522.335 163.75,516.002 167.5,509.5C 170.167,511.5 172.5,513.833 174.5,516.5C 174.17,522.868 174.504,529.202 175.5,535.5C 178.653,532.51 181.32,529.177 183.5,525.5C 184.627,526.122 185.627,526.955 186.5,528C 191.167,528.667 195.833,528.667 200.5,528C 201.667,526.833 202.833,525.667 204,524.5C 204.118,518.544 205.285,512.878 207.5,507.5C 209.713,511.88 213.046,515.047 217.5,517C 221.79,521.364 226.79,524.531 232.5,526.5 Z"/></g>
<g><path style="opacity:1" fill="#b1a7a5" d="M 417.5,525.5 C 419.748,529.254 422.581,532.588 426,535.5C 426.499,529.843 426.666,524.176 426.5,518.5C 428.833,515.5 431.5,512.833 434.5,510.5C 437.438,516.099 440.771,521.433 444.5,526.5C 436.62,541.708 424.62,552.375 408.5,558.5C 407.369,556.926 407.202,555.259 408,553.5C 412.592,545.995 415.758,537.995 417.5,529.5C 412.92,529.113 408.586,529.947 404.5,532C 390.016,539.59 377.349,549.59 366.5,562C 355.903,571.107 344.903,579.607 333.5,587.5C 332.353,587.182 331.519,586.516 331,585.5C 330.667,577.5 330.333,569.5 330,561.5C 322.551,555.844 315.551,556.511 309,563.5C 306.953,566.964 305.287,570.63 304,574.5C 303.732,579.65 302.732,584.65 301,589.5C 300.275,590.059 299.442,590.392 298.5,590.5C 295.226,589.53 292.226,588.03 289.5,586C 280.167,576 270.833,566 261.5,556C 259.593,554.878 257.593,554.045 255.5,553.5C 247.436,544.774 239.769,535.774 232.5,526.5C 253.786,538.151 276.453,545.818 300.5,549.5C 309.795,547.434 319.129,545.601 328.5,544C 335.452,540.406 342.785,537.74 350.5,536C 359.623,530.956 368.956,526.289 378.5,522C 384.626,518.375 389.626,513.542 393.5,507.5C 394.149,509.624 394.983,511.624 396,513.5C 394.813,526.64 400.646,531.473 413.5,528C 414.984,527.338 416.317,526.504 417.5,525.5 Z"/></g>
<g><path style="opacity:1" fill="#828181" d="M 174.5,516.5 C 177.833,519.167 180.833,522.167 183.5,525.5C 181.32,529.177 178.653,532.51 175.5,535.5C 174.504,529.202 174.17,522.868 174.5,516.5 Z"/></g>
<g><path style="opacity:1" fill="#7a7878" d="M 426.5,518.5 C 426.666,524.176 426.499,529.843 426,535.5C 422.581,532.588 419.748,529.254 417.5,525.5C 419.64,522.023 422.64,519.689 426.5,518.5 Z"/></g>
</svg>
