<?xml version="1.0" encoding="UTF-8"?>
<!DOCTYPE svg PUBLIC "-//W3C//DTD SVG 1.1//EN" "http://www.w3.org/Graphics/SVG/1.1/DTD/svg11.dtd">
<svg xmlns="http://www.w3.org/2000/svg" version="1.1" width="600px" height="600px" style="shape-rendering:geometricPrecision; text-rendering:geometricPrecision; image-rendering:optimizeQuality; fill-rule:evenodd; clip-rule:evenodd" xmlns:xlink="http://www.w3.org/1999/xlink">
<g><path style="opacity:0.954" fill="#020100" d="M 599.5,253.5 C 599.5,279.833 599.5,306.167 599.5,332.5C 583.131,391.425 559.631,447.425 529,500.5C 519.506,515.983 508.672,530.483 496.5,544C 473.845,563.779 453.678,561.612 436,537.5C 423.453,514.532 414.453,490.199 409,464.5C 406.539,476.323 402.539,487.656 397,498.5C 386.698,514.713 372.198,520.546 353.5,516C 346.29,514.061 339.29,511.561 332.5,508.5C 321.566,510.021 310.566,510.688 299.5,510.5C 288.593,510.695 277.76,510.028 267,508.5C 256.972,513.132 246.472,516.132 235.5,517.5C 216.652,515.49 204.152,505.49 198,487.5C 194.885,478.705 192.551,469.705 191,460.5C 185.511,486.303 176.844,510.969 165,534.5C 147.801,561.338 126.967,564.505 102.5,544C 84.4022,522.984 68.9022,500.151 56,475.5C 32.1316,429.71 13.2982,382.043 -0.5,332.5C -0.5,306.5 -0.5,280.5 -0.5,254.5C 22.2487,202.848 53.5821,157.015 93.5,117C 119.358,92.5676 149.691,76.2343 184.5,68C 208.132,54.7901 233.465,46.7901 260.5,44C 307.442,37.7343 353.108,42.7343 397.5,59C 406.014,64.0978 415.014,67.7644 424.5,70C 462.446,81.9532 494.613,102.786 521,132.5C 553.691,168.534 579.857,208.867 599.5,253.5 Z"/></g>
<g><path style="opacity:1" fill="#a76521" d="M 415.5,80.5 C 413.494,84.1985 412.994,88.1985 414,92.5C 421.822,102.145 429.155,112.145 436,122.5C 454.949,157.19 461.282,194.19 455,233.5C 452.048,258.263 446.048,282.263 437,305.5C 426.384,330.516 417.884,356.182 411.5,382.5C 408.812,392.435 406.312,402.435 404,412.5C 401.332,431.842 398.666,451.175 396,470.5C 388.377,506.727 368.21,516.06 335.5,498.5C 327.339,493.196 319.006,488.03 310.5,483C 301.485,479.214 292.818,479.88 284.5,485C 277.435,489.524 270.435,494.024 263.5,498.5C 254.566,503.088 245.066,505.755 235,506.5C 225.482,506.409 218.149,502.409 213,494.5C 208.491,486.31 205.158,477.643 203,468.5C 200.624,440.362 195.791,412.696 188.5,385.5C 186.112,375.83 183.612,366.163 181,356.5C 170.204,328.112 160.204,299.445 151,270.5C 142.493,237.896 140.493,204.896 145,171.5C 148.285,154.977 153.952,139.311 162,124.5C 169.279,113.554 176.946,102.888 185,92.5C 187.138,88.3562 186.971,84.3562 184.5,80.5C 200.889,69.4825 218.889,61.9825 238.5,58C 281.985,50.1098 325.318,50.7765 368.5,60C 385.275,64.4203 400.942,71.2537 415.5,80.5 Z"/></g>
<g><path style="opacity:1" fill="#89501c" d="M 184.5,80.5 C 186.971,84.3562 187.138,88.3562 185,92.5C 176.946,102.888 169.279,113.554 162,124.5C 153.952,139.311 148.285,154.977 145,171.5C 140.493,204.896 142.493,237.896 151,270.5C 160.204,299.445 170.204,328.112 181,356.5C 183.612,366.163 186.112,375.83 188.5,385.5C 189.47,437.293 177.97,486.293 154,532.5C 145.127,546.573 133.294,550.073 118.5,543C 113.077,539.581 108.244,535.415 104,530.5C 81.5392,501.272 62.8725,469.605 48,435.5C 30.5538,397.495 16.8872,358.162 7,317.5C 4.21556,301.207 3.88222,284.873 6,268.5C 27.3858,212.794 59.5525,164.294 102.5,123C 123.899,103.317 148.565,88.9833 176.5,80C 179.261,79.2782 181.927,79.4448 184.5,80.5 Z"/></g>
<g><path style="opacity:1" fill="#89501c" d="M 411.5,382.5 C 417.884,356.182 426.384,330.516 437,305.5C 446.048,282.263 452.048,258.263 455,233.5C 461.282,194.19 454.949,157.19 436,122.5C 429.155,112.145 421.822,102.145 414,92.5C 412.994,88.1985 413.494,84.1985 415.5,80.5C 417.402,79.4891 419.402,79.3224 421.5,80C 449.009,88.2482 473.342,101.915 494.5,121C 535.601,160.359 567.434,206.193 590,258.5C 596.618,277.592 597.285,296.925 592,316.5C 575.5,385.358 548.5,449.691 511,509.5C 505.909,516.68 500.576,523.68 495,530.5C 470.773,555.535 451.773,551.868 438,519.5C 418.521,475.615 409.688,429.948 411.5,382.5 Z"/></g>
<g><path style="opacity:1" fill="#8a511d" d="M 229.5,179.5 C 250.766,178.267 261.599,188.267 262,209.5C 258.688,214.702 254.188,215.869 248.5,213C 241.383,208.217 234.55,203.051 228,197.5C 222.867,190.764 223.367,184.764 229.5,179.5 Z"/></g>
<g><path style="opacity:1" fill="#8a511d" d="M 356.5,179.5 C 374.67,177.682 379.004,184.515 369.5,200C 362.3,205.433 354.634,210.1 346.5,214C 342.654,215.157 339.821,213.991 338,210.5C 336.52,195.441 342.687,185.108 356.5,179.5 Z"/></g>
<g><path style="opacity:1" fill="#010100" d="M 218.5,217.5 C 236.603,216.713 247.27,225.213 250.5,243C 247.833,263 236.5,271.667 216.5,269C 202.873,263.925 196.707,254.091 198,239.5C 200.582,228.088 207.416,220.755 218.5,217.5 Z"/></g>
<g><path style="opacity:1" fill="#010100" d="M 369.5,217.5 C 388.538,216.38 399.204,225.213 401.5,244C 398.862,263.169 387.862,271.502 368.5,269C 353.427,263.364 347.26,252.53 350,236.5C 353.086,226.579 359.586,220.246 369.5,217.5 Z"/></g>
<g><path style="opacity:1" fill="#f3f3f3" d="M 227.5,227.5 C 235.494,226.329 238.994,229.663 238,237.5C 234.011,242.356 229.678,242.689 225,238.5C 222.826,234.193 223.659,230.526 227.5,227.5 Z"/></g>
<g><path style="opacity:1" fill="#f4f4f4" d="M 377.5,227.5 C 383.766,226.117 387.433,228.45 388.5,234.5C 387.383,240.732 383.717,242.898 377.5,241C 372.248,236.506 372.248,232.006 377.5,227.5 Z"/></g>
<g><path style="opacity:1" fill="#010000" d="M 298.5,398.5 C 310.9,398.344 322.567,401.177 333.5,407C 342.008,415.754 343.841,425.921 339,437.5C 319.315,462.504 296.149,466.337 269.5,449C 257.962,439.389 254.796,427.556 260,413.5C 264.636,406.549 271.136,402.382 279.5,401C 285.977,400.138 292.311,399.305 298.5,398.5 Z"/></g>
<g><path style="opacity:1" fill="#874f1c" d="M 335.5,498.5 C 311.501,501.167 287.501,501.167 263.5,498.5C 270.435,494.024 277.435,489.524 284.5,485C 292.818,479.88 301.485,479.214 310.5,483C 319.006,488.03 327.339,493.196 335.5,498.5 Z"/></g>
</svg>
