<?xml version="1.0" encoding="UTF-8"?>
<!DOCTYPE svg PUBLIC "-//W3C//DTD SVG 1.1//EN" "http://www.w3.org/Graphics/SVG/1.1/DTD/svg11.dtd">
<svg xmlns="http://www.w3.org/2000/svg" version="1.1" width="600px" height="600px" style="shape-rendering:geometricPrecision; text-rendering:geometricPrecision; image-rendering:optimizeQuality; fill-rule:evenodd; clip-rule:evenodd" xmlns:xlink="http://www.w3.org/1999/xlink">
<g><path style="opacity:0.967" fill="#030202" d="M 31.5,-0.5 C 48.1667,-0.5 64.8333,-0.5 81.5,-0.5C 107.723,13.4553 131.723,30.6219 153.5,51C 185.167,82.6667 216.833,114.333 248.5,146C 265.133,150.89 282.133,152.723 299.5,151.5C 311.532,151.571 323.532,151.071 335.5,150C 341.938,149.187 347.938,147.187 353.5,144C 385.887,110.279 418.887,77.2792 452.5,45C 472.484,27.3488 494.151,12.1821 517.5,-0.5C 534.167,-0.5 550.833,-0.5 567.5,-0.5C 581.937,12.0446 589.771,28.0446 591,47.5C 591.643,104.026 584.976,159.693 571,214.5C 566.723,232.675 559.723,249.675 550,265.5C 540.085,278.753 529.418,291.419 518,303.5C 504.847,319.477 497.514,337.81 496,358.5C 495.787,385.199 494.787,411.866 493,438.5C 491.083,458.173 485.749,476.839 477,494.5C 474.667,497.833 472.333,501.167 470,504.5C 454.131,519.37 437.965,533.87 421.5,548C 413.346,554.576 405.013,560.909 396.5,567C 386.255,584.466 370.921,593.799 350.5,595C 347.609,596.274 344.942,597.774 342.5,599.5C 314.167,599.5 285.833,599.5 257.5,599.5C 248.609,594.555 238.943,591.389 228.5,590C 217.8,585.134 209.467,577.634 203.5,567.5C 177.306,547.48 152.139,526.147 128,503.5C 113.917,483.883 106.25,461.883 105,437.5C 103.794,410.519 103.128,383.519 103,356.5C 101.931,341.293 97.2645,327.293 89,314.5C 77.3835,298.948 65.0501,283.948 52,269.5C 40.2026,252.56 32.2026,233.893 28,213.5C 14.4364,159.658 7.76972,104.992 8,49.5C 9.03595,33.9873 14.0359,19.9873 23,7.5C 25.7291,4.60066 28.5624,1.93399 31.5,-0.5 Z"/></g>
<g><path style="opacity:1" fill="#59483e" d="M 45.5,4.5 C 60.9007,3.43326 75.2341,6.93326 88.5,15C 114.178,30.9994 137.845,49.666 159.5,71C 185.167,97.3333 210.833,123.667 236.5,150C 240.769,153.969 245.769,156.635 251.5,158C 259.343,160.294 267.343,161.628 275.5,162C 296.915,163.162 318.248,162.495 339.5,160C 345.716,158.614 351.716,156.614 357.5,154C 369.304,143.197 380.804,132.03 392,120.5C 413.833,96 437,72.8333 461.5,51C 479.511,34.9948 499.178,21.3281 520.5,10C 554.275,-3.69429 574.108,7.47238 580,43.5C 581.404,56.4735 581.737,69.4735 581,82.5C 577.823,128.533 570.49,173.866 559,218.5C 555.555,231.508 550.555,243.842 544,255.5C 531.379,271.79 518.379,287.79 505,303.5C 492.965,320.579 486.299,339.579 485,360.5C 484.827,384.85 484.161,409.184 483,433.5C 481.517,454.441 475.851,474.107 466,492.5C 463.167,496 460.333,499.5 457.5,503C 439.313,518.688 420.98,534.188 402.5,549.5C 404.445,514.931 398.278,481.931 384,450.5C 370.058,420.66 356.725,390.66 344,360.5C 339.609,347.323 335.609,333.989 332,320.5C 330.569,311.541 330.235,302.541 331,293.5C 334.053,270.462 337.386,247.462 341,224.5C 341.667,215.167 341.667,205.833 341,196.5C 337.955,178.445 327.455,170.945 309.5,174C 306.073,175.086 302.74,176.252 299.5,177.5C 290.181,173.312 280.514,172.479 270.5,175C 262.758,180.987 258.591,188.821 258,198.5C 257.333,206.167 257.333,213.833 258,221.5C 261.008,243.881 264.341,266.214 268,288.5C 268.85,299.544 268.517,310.544 267,321.5C 262.417,337.916 257.084,353.916 251,369.5C 240.885,392.398 230.218,415.065 219,437.5C 208.296,460.277 200.963,484.277 197,509.5C 196.43,522.866 196.43,536.199 197,549.5C 179.5,534.667 162,519.833 144.5,505C 128.566,489.964 119.399,471.464 117,449.5C 116.097,441.854 115.43,434.188 115,426.5C 114.667,404.833 114.333,383.167 114,361.5C 113.141,338.792 105.808,318.458 92,300.5C 78.196,285.702 65.5293,270.035 54,253.5C 49.0236,244.238 45.0236,234.571 42,224.5C 26.7269,168.527 18.7269,111.527 18,53.5C 17.9267,36.4991 23.76,21.9991 35.5,10C 38.7667,7.8703 42.1,6.03697 45.5,4.5 Z"/></g>
<g><path style="opacity:1" fill="#070605" d="M 44.5,16.5 C 55.2943,15.4375 65.6276,16.9375 75.5,21C 98.7798,32.7341 119.28,48.2341 137,67.5C 159.738,92.3119 177.405,120.312 190,151.5C 195.395,167.001 193.729,181.668 185,195.5C 169.43,220.415 147.93,237.915 120.5,248C 110.496,249.956 100.496,249.956 90.5,248C 76.2426,241.074 66.0759,230.241 60,215.5C 37.9375,162.418 26.6042,107.085 26,49.5C 26.8323,40.8161 29.499,32.8161 34,25.5C 37.1263,21.8592 40.6263,18.8592 44.5,16.5 Z"/></g>
<g><path style="opacity:1" fill="#070505" d="M 539.5,15.5 C 553.278,14.3063 563.112,19.973 569,32.5C 570.732,37.3504 571.732,42.3504 572,47.5C 572.137,106.594 560.803,163.26 538,217.5C 521.993,249.644 497.493,258.144 464.5,243C 440.951,229.117 422.451,210.284 409,186.5C 405.524,177.359 404.857,168.025 407,158.5C 427.737,100.872 464.237,56.0388 516.5,24C 523.973,20.4555 531.64,17.6222 539.5,15.5 Z"/></g>
<g><path style="opacity:1" fill="#ccbabb" d="M 37.5,90.5 C 36.8339,79.5126 36.5006,68.5126 36.5,57.5C 35.9635,48.6458 37.7969,40.3124 42,32.5C 46.1756,26.888 51.6756,25.0547 58.5,27C 74.8056,31.6644 89.4722,39.3311 102.5,50C 137.477,78.4543 163.31,113.621 180,155.5C 182.838,163.397 183.172,171.397 181,179.5C 169.167,204.667 150.667,223.167 125.5,235C 104.655,244.709 87.8212,240.209 75,221.5C 56.4374,179.585 43.9374,135.918 37.5,90.5 Z"/></g>
<g><path style="opacity:1" fill="#ccbabb" d="M 539.5,26.5 C 548.847,24.4227 555.347,27.756 559,36.5C 560.408,40.0569 561.408,43.7235 562,47.5C 561.822,107.383 549.489,164.717 525,219.5C 514.259,237.53 498.759,243.363 478.5,237C 449.702,225.202 429.202,205.035 417,176.5C 414.966,170.392 415.299,164.392 418,158.5C 437.586,106.586 470.752,65.7528 517.5,36C 524.658,32.1248 531.991,28.9582 539.5,26.5 Z"/></g>
<g><path style="opacity:1" fill="#312a26" d="M 36.5,57.5 C 36.5006,68.5126 36.8339,79.5126 37.5,90.5C 35.4581,79.5393 35.1247,68.5393 36.5,57.5 Z"/></g>
<g><path style="opacity:1" fill="#f7f5f2" d="M 276.5,183.5 C 279.85,183.335 283.183,183.502 286.5,184C 290.66,186.084 294.993,187.584 299.5,188.5C 304.007,187.584 308.34,186.084 312.5,184C 322.701,182.026 328.868,186.193 331,196.5C 331.667,205.833 331.667,215.167 331,224.5C 327.774,245.52 324.441,266.52 321,287.5C 320.135,299.543 320.468,311.543 322,323.5C 325.659,338.81 330.326,353.81 336,368.5C 350.333,401.167 364.667,433.833 379,466.5C 385.213,482.685 389.546,499.351 392,516.5C 394.48,533.593 392.147,549.926 385,565.5C 373.515,580.556 358.348,586.389 339.5,583C 328.232,580.133 317.232,576.466 306.5,572C 300.431,571.196 294.431,571.529 288.5,573C 275.679,579.164 262.179,582.664 248,583.5C 226.316,581.488 212.982,569.821 208,548.5C 204.638,525.374 206.638,502.707 214,480.5C 216.469,472.758 219.136,465.092 222,457.5C 236.721,426.001 251.054,394.335 265,362.5C 270.212,349.532 274.212,336.198 277,322.5C 278.492,311.206 278.826,299.872 278,288.5C 275.875,271.415 273.208,254.415 270,237.5C 268.77,227.866 267.937,218.2 267.5,208.5C 266.39,198.562 269.39,190.229 276.5,183.5 Z"/></g>
<g><path style="opacity:1" fill="#f2ede9" d="M 223.5,253.5 C 238.636,254.471 246.636,262.637 247.5,278C 248.791,285.489 245.791,288.823 238.5,288C 233.685,283.088 228.018,279.421 221.5,277C 216.538,274.384 213.538,270.384 212.5,265C 212.542,263.033 213.042,261.199 214,259.5C 216.848,256.848 220.015,254.848 223.5,253.5 Z"/></g>
<g><path style="opacity:1" fill="#f2ede9" d="M 369.5,253.5 C 376.698,253.176 382.864,255.509 388,260.5C 389.672,266.658 387.838,271.491 382.5,275C 377.659,277.921 372.659,280.588 367.5,283C 365.833,284.667 364.167,286.333 362.5,288C 358.199,289.266 355.366,287.766 354,283.5C 352.46,269.912 357.626,259.912 369.5,253.5 Z"/></g>
<g><path style="opacity:1" fill="#f8f8f8" d="M 199.5,290.5 C 218.892,288.935 231.725,297.268 238,315.5C 240.452,339.383 229.786,353.05 206,356.5C 182.261,353.09 171.595,339.423 174,315.5C 178.443,302.889 186.943,294.555 199.5,290.5 Z"/></g>
<g><path style="opacity:1" fill="#f8f8f8" d="M 386.5,290.5 C 414.321,290.163 427.155,303.83 425,331.5C 417.067,351.778 402.567,359.278 381.5,354C 365.395,346.628 358.562,334.128 361,316.5C 365.017,303.318 373.517,294.651 386.5,290.5 Z"/></g>
<g><path style="opacity:1" fill="#241a17" d="M 198.5,301.5 C 211.767,298.884 221.267,303.551 227,315.5C 230.377,328.384 226.211,337.884 214.5,344C 202.238,347.803 192.738,344.303 186,333.5C 180.996,319.183 185.163,308.517 198.5,301.5 Z"/></g>
<g><path style="opacity:1" fill="#241916" d="M 385.5,301.5 C 407.649,299.81 417.149,309.81 414,331.5C 407.692,343.732 397.859,347.899 384.5,344C 373.089,337.678 368.922,328.178 372,315.5C 373.271,312.567 374.938,309.901 377,307.5C 379.988,305.601 382.821,303.601 385.5,301.5 Z"/></g>
<g><path style="opacity:1" fill="#f3f3f3" d="M 210.5,309.5 C 218.52,309.392 220.854,312.892 217.5,320C 210.243,322.746 207.077,320.246 208,312.5C 209.045,311.627 209.878,310.627 210.5,309.5 Z"/></g>
<g><path style="opacity:1" fill="#efefef" d="M 397.5,309.5 C 403.502,309.005 406.335,311.672 406,317.5C 402,322.833 398,322.833 394,317.5C 393.52,314.137 394.687,311.47 397.5,309.5 Z"/></g>
<g><path style="opacity:1" fill="#050505" d="M 286.5,443.5 C 300.358,442.685 314.025,443.852 327.5,447C 343.989,453.455 351.822,465.621 351,483.5C 346.875,504.588 334.709,518.755 314.5,526C 285.681,531.841 264.515,521.675 251,495.5C 243.787,475.805 248.954,460.305 266.5,449C 273.209,446.781 279.875,444.948 286.5,443.5 Z"/></g>
<g><path style="opacity:1" fill="#221714" d="M 282.5,454.5 C 293.838,454.333 305.172,454.5 316.5,455C 335.248,458.426 343.081,469.593 340,488.5C 332.25,506.583 318.583,516.583 299,518.5C 278.389,516.209 265.055,505.209 259,485.5C 256.819,473.367 260.985,464.2 271.5,458C 275.254,456.691 278.921,455.525 282.5,454.5 Z"/></g>
<g><path style="opacity:1" fill="#57463d" d="M 295.5,581.5 C 300.675,581.272 305.675,582.105 310.5,584C 316.309,586.775 322.309,589.275 328.5,591.5C 310.31,596.244 291.977,596.744 273.5,593C 271.956,592.71 270.623,592.044 269.5,591C 278.388,588.123 287.055,584.956 295.5,581.5 Z"/></g>
</svg>
