<?xml version="1.0" encoding="UTF-8"?>
<!DOCTYPE svg PUBLIC "-//W3C//DTD SVG 1.1//EN" "http://www.w3.org/Graphics/SVG/1.1/DTD/svg11.dtd">
<svg xmlns="http://www.w3.org/2000/svg" version="1.1" width="600px" height="600px" style="shape-rendering:geometricPrecision; text-rendering:geometricPrecision; image-rendering:optimizeQuality; fill-rule:evenodd; clip-rule:evenodd" xmlns:xlink="http://www.w3.org/1999/xlink">
<g><path style="opacity:0.957" fill="#040200" d="M 599.5,230.5 C 599.5,251.833 599.5,273.167 599.5,294.5C 582.872,324.778 570.372,356.778 562,390.5C 559.235,403.758 556.902,417.091 555,430.5C 551.089,447.37 540.922,453.203 524.5,448C 518.407,443.911 512.907,439.078 508,433.5C 490.593,412.361 477.593,388.694 469,362.5C 466.277,370.278 463.277,377.945 460,385.5C 450.806,402.555 442.139,419.888 434,437.5C 432.356,442.077 431.022,446.744 430,451.5C 428.371,473.945 424.371,495.945 418,517.5C 413.337,529.162 405.504,537.995 394.5,544C 385.227,546.202 376.227,549.202 367.5,553C 354.255,555.522 342.255,552.689 331.5,544.5C 310.175,551.138 288.842,551.138 267.5,544.5C 253.253,553.876 238.253,555.376 222.5,549C 216.725,546.075 210.725,543.742 204.5,542C 194.459,536.089 187.626,527.589 184,516.5C 178.2,496.906 174.534,476.906 173,456.5C 172.177,450.383 170.843,444.383 169,438.5C 161.152,419.804 152.486,401.47 143,383.5C 139.47,374.577 136.137,365.577 133,356.5C 124.308,384.887 110.642,410.554 92,433.5C 87.0929,439.078 81.5929,443.911 75.5,448C 61.2575,453.129 51.4241,448.629 46,434.5C 42.1633,405.82 35.4966,377.82 26,350.5C 17.9392,330.718 9.10585,311.385 -0.5,292.5C -0.5,271.5 -0.5,250.5 -0.5,229.5C 33.629,178.87 76.9623,138.037 129.5,107C 144.148,98.6729 159.815,93.3396 176.5,91C 191.619,80.1095 208.285,72.4428 226.5,68C 283.715,53.2845 340.048,55.9512 395.5,76C 404.318,79.9064 412.652,84.5731 420.5,90C 440.182,93.0101 458.516,99.6768 475.5,110C 526.219,140.553 567.552,180.719 599.5,230.5 Z"/></g>
<g><path style="opacity:1" fill="#cb7a28" d="M 418.5,101.5 C 423.794,108.295 429.627,114.629 436,120.5C 449.178,137.686 457.511,157.019 461,178.5C 463.446,192.405 465.113,206.405 466,220.5C 467.458,249.49 468.624,278.49 469.5,307.5C 466.979,333.227 460.479,357.894 450,381.5C 439.593,400.314 430.26,419.648 422,439.5C 418.354,455.998 415.687,472.665 414,489.5C 412.58,502.095 408.58,513.762 402,524.5C 398.584,528.587 394.584,531.92 390,534.5C 393.197,529.322 395.864,523.655 398,517.5C 398.945,513.886 399.612,510.219 400,506.5C 403.893,499.383 405.893,491.717 406,483.5C 416.404,402.583 381.071,358.916 300,352.5C 266.756,351.351 238.423,362.351 215,385.5C 198.566,406.526 190.733,430.526 191.5,457.5C 192.004,470.896 193.17,484.229 195,497.5C 197.704,508.484 201.037,519.15 205,529.5C 199.238,524.316 195.238,517.982 193,510.5C 187.923,490.82 184.59,470.82 183,450.5C 181.788,446.573 180.788,442.573 180,438.5C 168.667,413.167 157.333,387.833 146,362.5C 139.278,342.944 134.444,322.944 131.5,302.5C 130.914,299.05 130.58,295.55 130.5,292C 131.933,267.846 133.099,243.679 134,219.5C 135.089,196.63 139.089,174.297 146,152.5C 153.046,132.799 164.713,116.466 181,103.5C 181.47,102.423 181.303,101.423 180.5,100.5C 206.405,83.0306 235.071,73.1972 266.5,71C 309.82,65.6625 351.82,70.6625 392.5,86C 401.691,90.4229 410.357,95.5896 418.5,101.5 Z"/></g>
<g><path style="opacity:1" fill="#9f5d1f" d="M 180.5,100.5 C 181.303,101.423 181.47,102.423 181,103.5C 164.713,116.466 153.046,132.799 146,152.5C 139.089,174.297 135.089,196.63 134,219.5C 133.099,243.679 131.933,267.846 130.5,292C 130.58,295.55 130.914,299.05 131.5,302.5C 130.883,302.389 130.383,302.056 130,301.5C 129.103,354.425 110.269,399.592 73.5,437C 64.0813,442.234 57.9146,439.734 55,429.5C 51.7561,401.439 45.4228,374.105 36,347.5C 26.9413,326.382 17.6079,305.382 8,284.5C 3.85562,272.482 2.52229,260.148 4,247.5C 5.57968,241.008 8.24635,235.008 12,229.5C 45.6134,181.55 87.7801,143.05 138.5,114C 151.67,106.776 165.67,102.276 180.5,100.5 Z"/></g>
<g><path style="opacity:1" fill="#9f5d1f" d="M 418.5,101.5 C 436.481,102.882 453.147,108.382 468.5,118C 518.147,147.646 558.647,186.813 590,235.5C 596.571,247.833 598.238,260.833 595,274.5C 592.867,281.231 590.534,287.898 588,294.5C 564.7,337.4 550.033,383.067 544,431.5C 541.832,438.836 536.999,441.336 529.5,439C 524.366,434.867 519.532,430.367 515,425.5C 487.299,391.082 472.132,351.749 469.5,307.5C 468.624,278.49 467.458,249.49 466,220.5C 465.113,206.405 463.446,192.405 461,178.5C 457.511,157.019 449.178,137.686 436,120.5C 429.627,114.629 423.794,108.295 418.5,101.5 Z"/></g>
<g><path style="opacity:1" fill="#bc712a" d="M 298.5,116.5 C 300.124,116.36 301.29,117.027 302,118.5C 302.667,145.167 302.667,171.833 302,198.5C 300.451,201.003 298.784,201.003 297,198.5C 296.333,171.833 296.333,145.167 297,118.5C 297.717,117.956 298.217,117.289 298.5,116.5 Z"/></g>
<g><path style="opacity:1" fill="#bc712a" d="M 239.5,156.5 C 265.009,160.509 280.175,175.176 285,200.5C 283.333,203.167 281.667,203.167 280,200.5C 274.441,179.27 260.941,166.77 239.5,163C 238.232,160.837 238.232,158.67 239.5,156.5 Z"/></g>
<g><path style="opacity:1" fill="#bc712a" d="M 355.5,156.5 C 360.068,156.083 361.568,158.083 360,162.5C 338.044,166.616 324.211,179.616 318.5,201.5C 315.594,202.946 314.261,201.946 314.5,198.5C 319.507,175.829 333.173,161.829 355.5,156.5 Z"/></g>
<g><path style="opacity:1" fill="#7d482d" d="M 212.5,193.5 C 233.405,191.857 247.238,200.857 254,220.5C 256.648,243.379 246.815,257.546 224.5,263C 197.05,262.212 184.217,248.046 186,220.5C 190.342,206.992 199.175,197.992 212.5,193.5 Z"/></g>
<g><path style="opacity:1" fill="#7d482d" d="M 373.5,193.5 C 403.187,192.685 417.02,207.018 415,236.5C 407.732,257.221 393.232,265.721 371.5,262C 352.69,254.559 344.524,240.725 347,220.5C 351.351,206.984 360.184,197.984 373.5,193.5 Z"/></g>
<g><path style="opacity:1" fill="#010000" d="M 219.5,204.5 C 241.647,209.127 248.147,221.794 239,242.5C 228.977,252.623 217.811,254.123 205.5,247C 193.445,234.073 193.778,221.406 206.5,209C 210.715,206.763 215.048,205.263 219.5,204.5 Z"/></g>
<g><path style="opacity:1" fill="#010000" d="M 380.5,204.5 C 402.632,209.097 409.132,221.764 400,242.5C 389.505,253.03 378.005,254.197 365.5,246C 354.903,233.187 355.57,220.853 367.5,209C 371.715,206.763 376.048,205.263 380.5,204.5 Z"/></g>
<g><path style="opacity:1" fill="#f0f0f0" d="M 224.5,216.5 C 232.845,216.691 235.178,220.524 231.5,228C 223.758,231.248 220.258,228.748 221,220.5C 221.69,218.65 222.856,217.316 224.5,216.5 Z"/></g>
<g><path style="opacity:1" fill="#f0f0f0" d="M 386.5,216.5 C 393.771,216.036 396.604,219.369 395,226.5C 390.601,230.654 386.601,230.321 383,225.5C 381.98,221.553 383.147,218.553 386.5,216.5 Z"/></g>
<g><path style="opacity:1" fill="#84532c" d="M 400.5,458.5 C 386.062,443.562 371.396,428.728 356.5,414C 355.906,413.536 355.239,413.369 354.5,413.5C 351.525,401.022 343.858,392.856 331.5,389C 309.363,382.673 287.363,383.007 265.5,390C 249.525,396.44 242.691,408.273 245,425.5C 250.688,442.856 262.188,454.689 279.5,461C 283.447,462.484 287.447,463.65 291.5,464.5C 294.228,468.737 297.561,472.571 301.5,476C 325.097,497.284 348.43,518.784 371.5,540.5C 357.618,546.287 345.285,543.954 334.5,533.5C 326.728,526.23 319.062,518.73 311.5,511C 303.262,504.861 295.262,505.194 287.5,512C 280.934,520.067 273.601,527.234 265.5,533.5C 250.575,544.495 235.242,545.161 219.5,535.5C 214.733,531.231 210.9,526.231 208,520.5C 198.801,492.84 196.134,464.507 200,435.5C 208.357,393.144 233.857,368.311 276.5,361C 312.057,354.558 344.057,362.224 372.5,384C 394.527,403.915 403.86,428.748 400.5,458.5 Z"/></g>
<g><path style="opacity:1" fill="#905720" d="M 378.5,537.5 C 378.972,534.185 380.805,531.851 384,530.5C 386.583,527.003 388.916,523.336 391,519.5C 392.382,511.534 394.715,503.867 398,496.5C 400.107,483.926 400.941,471.259 400.5,458.5C 403.86,428.748 394.527,403.915 372.5,384C 344.057,362.224 312.057,354.558 276.5,361C 233.857,368.311 208.357,393.144 200,435.5C 196.134,464.507 198.801,492.84 208,520.5C 210.9,526.231 214.733,531.231 219.5,535.5C 216.805,535.067 214.638,533.734 213,531.5C 210.162,527.828 207.829,523.828 206,519.5C 204.241,509.995 201.907,500.661 199,491.5C 186.586,394.917 228.752,351.084 325.5,360C 355.982,366.18 378.815,382.68 394,409.5C 397.574,417.128 399.907,425.128 401,433.5C 401.879,453.195 401.546,472.861 400,492.5C 396.528,501.585 393.861,510.918 392,520.5C 388.421,527.044 383.921,532.71 378.5,537.5 Z"/></g>
<g><path style="opacity:1" fill="#000000" d="M 354.5,413.5 C 355.207,433.583 346.541,448.083 328.5,457C 316.991,463.796 304.657,466.296 291.5,464.5C 287.447,463.65 283.447,462.484 279.5,461C 262.188,454.689 250.688,442.856 245,425.5C 242.691,408.273 249.525,396.44 265.5,390C 287.363,383.007 309.363,382.673 331.5,389C 343.858,392.856 351.525,401.022 354.5,413.5 Z"/></g>
<g><path style="opacity:1" fill="#82512c" d="M 354.5,413.5 C 355.239,413.369 355.906,413.536 356.5,414C 371.396,428.728 386.062,443.562 400.5,458.5C 400.941,471.259 400.107,483.926 398,496.5C 394.715,503.867 392.382,511.534 391,519.5C 388.916,523.336 386.583,527.003 384,530.5C 380.805,531.851 378.972,534.185 378.5,537.5C 376.02,538.242 373.687,539.242 371.5,540.5C 348.43,518.784 325.097,497.284 301.5,476C 297.561,472.571 294.228,468.737 291.5,464.5C 304.657,466.296 316.991,463.796 328.5,457C 346.541,448.083 355.207,433.583 354.5,413.5 Z"/></g>
<g><path style="opacity:1" fill="#5d3511" d="M 298.5,512.5 C 303.388,513.947 307.721,516.447 311.5,520C 316.5,525 321.5,530 326.5,535C 309.223,540.734 291.889,540.901 274.5,535.5C 281.914,527.083 289.914,519.416 298.5,512.5 Z"/></g>
<g><path style="opacity:1" fill="#5f3713" d="M 334.5,533.5 C 333.448,533.649 332.448,533.483 331.5,533C 324.136,525.302 316.47,517.969 308.5,511C 305.826,509.412 302.992,508.245 300,507.5C 296.512,508.327 293.346,509.827 290.5,512C 283.833,518.667 277.167,525.333 270.5,532C 268.975,533.009 267.308,533.509 265.5,533.5C 273.601,527.234 280.934,520.067 287.5,512C 295.262,505.194 303.262,504.861 311.5,511C 319.062,518.73 326.728,526.23 334.5,533.5 Z"/></g>
</svg>
