<?xml version="1.0" encoding="UTF-8"?>
<!DOCTYPE svg PUBLIC "-//W3C//DTD SVG 1.1//EN" "http://www.w3.org/Graphics/SVG/1.1/DTD/svg11.dtd">
<svg xmlns="http://www.w3.org/2000/svg" version="1.1" width="600px" height="600px" style="shape-rendering:geometricPrecision; text-rendering:geometricPrecision; image-rendering:optimizeQuality; fill-rule:evenodd; clip-rule:evenodd" xmlns:xlink="http://www.w3.org/1999/xlink">
<g><path style="opacity:0.968" fill="#020101" d="M 599.5,145.5 C 599.5,160.167 599.5,174.833 599.5,189.5C 591.247,217.505 583.747,245.838 577,274.5C 573.568,295.237 572.734,316.07 574.5,337C 574.107,349.059 567.94,355.559 556,356.5C 551.721,355.932 547.721,354.599 544,352.5C 542.785,384.358 535.452,414.691 522,443.5C 514.714,456.786 505.881,468.953 495.5,480C 486.703,487.128 478.203,494.628 470,502.5C 459.167,517.333 446.333,530.167 431.5,541C 352.754,593.77 271.087,598.436 186.5,555C 161.293,540.464 139.793,521.63 122,498.5C 92.6045,476.43 72.6045,447.763 62,412.5C 56.8051,392.801 53.4718,372.801 52,352.5C 40.7816,358.86 31.4483,356.86 24,346.5C 25.1945,311.585 21.1945,277.251 12,243.5C 7.80931,229.382 3.64265,215.382 -0.5,201.5C -0.5,180.5 -0.5,159.5 -0.5,138.5C 4.59834,131.567 10.5983,125.4 17.5,120C 25.9941,113.583 34.9941,107.917 44.5,103C 73.6085,90.7795 102.942,79.1128 132.5,68C 146.269,61.8678 159.269,54.5345 171.5,46C 178.171,43.099 185.171,41.7657 192.5,42C 227.378,31.6455 262.712,29.8122 298.5,36.5C 333.958,29.7867 368.958,31.6201 403.5,42C 409.231,42.2096 414.897,42.8763 420.5,44C 433.681,52.4268 447.348,60.0935 461.5,67C 486.343,77.059 511.343,86.7257 536.5,96C 558.341,104.992 577.508,117.825 594,134.5C 595.879,138.259 597.713,141.925 599.5,145.5 Z"/></g>
<g><path style="opacity:1" fill="#372e2b" d="M 235.5,43.5 C 256.143,42.7854 276.643,44.1187 297,47.5C 328.275,41.7485 359.442,42.2485 390.5,49C 395.948,50.5279 401.282,52.3613 406.5,54.5C 408.957,52.7751 411.623,52.2751 414.5,53C 429.162,62.3353 444.496,70.6687 460.5,78C 485.389,87.9441 510.389,97.6108 535.5,107C 554.924,114.942 571.757,126.442 586,141.5C 591.604,153.673 592.938,166.34 590,179.5C 582.003,211.493 574.003,243.493 566,275.5C 562.641,297.397 561.641,319.397 563,341.5C 562.5,343.333 561.333,344.5 559.5,345C 551.334,345.554 544.834,342.387 540,335.5C 537.417,332.003 535.084,328.336 533,324.5C 534.171,353.627 531.171,382.294 524,410.5C 518.053,430.066 508.719,447.733 496,463.5C 500.655,449.535 505.322,435.535 510,421.5C 518.056,394 521.056,366 519,337.5C 517.974,328.42 514.974,320.087 510,312.5C 502.342,304.882 493.842,303.715 484.5,309C 480.964,313.237 477.798,317.737 475,322.5C 472.027,329.779 468.527,336.779 464.5,343.5C 459.779,340.473 454.779,337.973 449.5,336C 438.699,332.511 428.032,328.845 417.5,325C 412.367,322.346 407.867,318.846 404,314.5C 395.089,297.672 385.423,281.339 375,265.5C 365.133,252.489 353.299,241.656 339.5,233C 294.461,213.969 256.294,223.136 225,260.5C 213.077,277.336 202.41,295.003 193,313.5C 188.635,319.203 183.135,323.37 176.5,326C 164.027,329.935 151.694,334.269 139.5,339C 137.5,340.333 135.5,341.667 133.5,343C 132.365,343.749 131.365,343.583 130.5,342.5C 126.272,333.045 121.772,323.711 117,314.5C 110.1,304.567 101.267,302.4 90.5,308C 83.3221,314.187 79.1554,322.02 78,331.5C 74.3198,377.594 82.1531,421.594 101.5,463.5C 100.645,464.293 99.8113,463.96 99,462.5C 76.8136,432.279 65.1469,398.279 64,360.5C 63.6667,348.833 63.3333,337.167 63,325.5C 59.2684,332.233 54.4351,338.066 48.5,343C 42.7066,346.818 37.5399,346.318 33,341.5C 35.0346,313.872 33.0346,286.538 27,259.5C 20.662,236.488 14.3287,213.488 8,190.5C 6.60264,182.053 5.7693,173.553 5.5,165C 4.2322,150.871 9.2322,139.538 20.5,131C 32.8387,121.491 46.1721,113.491 60.5,107C 84.9116,97.8629 109.245,88.5296 133.5,79C 150.139,71.3502 166.139,62.6835 181.5,53C 184.466,52.1048 187.133,52.6048 189.5,54.5C 204.52,49.0336 219.853,45.3669 235.5,43.5 Z"/></g>
<g><path style="opacity:1" fill="#c17f28" d="M 209.5,170.5 C 219.935,168.468 227.435,172.135 232,181.5C 232.588,190.14 228.755,195.973 220.5,199C 200.807,202.001 194.64,194.501 202,176.5C 204.478,174.361 206.978,172.361 209.5,170.5 Z"/></g>
<g><path style="opacity:1" fill="#c17f28" d="M 374.5,170.5 C 389.742,168.929 397.575,175.595 398,190.5C 396.5,194.667 393.667,197.5 389.5,199C 378.731,202.017 370.565,198.851 365,189.5C 364.333,186.167 364.333,182.833 365,179.5C 367.406,175.592 370.572,172.592 374.5,170.5 Z"/></g>
<g><path style="opacity:1" fill="#bf7e28" d="M 173.5,199.5 C 204.492,197.997 220.658,212.664 222,243.5C 216.05,268.433 200.217,279.933 174.5,278C 150.196,270.228 140.03,253.728 144,228.5C 149.084,213.915 158.918,204.248 173.5,199.5 Z"/></g>
<g><path style="opacity:1" fill="#c07e28" d="M 405.5,199.5 C 430.314,197.139 446.147,207.805 453,231.5C 454.782,255.375 444.282,270.875 421.5,278C 397.933,279.975 382.433,269.809 375,247.5C 372.331,223.141 382.498,207.141 405.5,199.5 Z"/></g>
<g><path style="opacity:1" fill="#292727" d="M 176.5,211.5 C 203.315,212.129 213.482,225.462 207,251.5C 196.89,266.218 183.723,269.718 167.5,262C 155.782,253.171 152.282,241.671 157,227.5C 161.32,219.332 167.82,213.999 176.5,211.5 Z"/></g>
<g><path style="opacity:1" fill="#292727" d="M 407.5,211.5 C 424.224,209.773 435.39,216.773 441,232.5C 442.798,252.372 433.798,263.705 414,266.5C 394.715,263.884 385.715,252.884 387,233.5C 389.573,222.096 396.407,214.763 407.5,211.5 Z"/></g>
<g><path style="opacity:1" fill="#f2f2f2" d="M 173.5,224.5 C 182.049,223.867 185.215,227.533 183,235.5C 178.23,240.798 173.896,240.465 170,234.5C 169.333,232.5 169.333,230.5 170,228.5C 171.376,227.295 172.542,225.962 173.5,224.5 Z"/></g>
<g><path style="opacity:1" fill="#f4f4f4" d="M 404.5,224.5 C 410.614,223.549 414.28,226.049 415.5,232C 412.857,238.769 408.357,240.269 402,236.5C 399.511,231.757 400.345,227.757 404.5,224.5 Z"/></g>
<g><path style="opacity:1" fill="#c28027" d="M 394.5,319.5 C 395.08,321.749 396.413,323.415 398.5,324.5C 402.459,327.601 406.626,330.601 411,333.5C 424.113,339.316 437.613,344.15 451.5,348C 455.777,351.241 460.444,353.741 465.5,355.5C 468.214,355.06 470.38,353.726 472,351.5C 477.427,340.975 483.094,330.641 489,320.5C 491.72,316.356 495.22,315.523 499.5,318C 502.106,319.938 503.939,322.438 505,325.5C 509.314,339.823 510.647,354.489 509,369.5C 505.105,409.411 493.105,446.745 473,481.5C 437.161,532.861 387.994,563.027 325.5,572C 260.196,578.896 202.863,560.896 153.5,518C 137.992,503.222 125.158,487.056 115,469.5C 103.503,444.167 95.3366,417.833 90.5,390.5C 90.0662,385.332 89.3996,380.332 88.5,375.5C 87.8999,365.5 87.2333,355.5 86.5,345.5C 86.5127,334.917 89.5127,325.417 95.5,317C 100.413,314.413 104.58,315.247 108,319.5C 113.255,331.009 118.755,342.342 124.5,353.5C 127.001,354.826 129.668,355.326 132.5,355C 146.294,347.063 160.961,341.063 176.5,337C 186.985,333.507 195.485,327.34 202,318.5C 211.622,298.741 223.122,280.241 236.5,263C 243.982,256.428 251.649,250.095 259.5,244C 290.608,227.801 319.942,230.467 347.5,252C 354.726,258.89 361.559,266.057 368,273.5C 377.615,288.398 386.448,303.732 394.5,319.5 Z"/></g>
<g><path style="opacity:1" fill="#080503" d="M 287.5,242.5 C 302.674,240.767 316.674,243.933 329.5,252C 341.112,261.922 345.278,274.422 342,289.5C 339.398,303.283 331.565,312.783 318.5,318C 304.833,322.667 291.167,322.667 277.5,318C 260.882,311.181 252.882,298.681 253.5,280.5C 254.209,262.941 262.875,251.108 279.5,245C 282.379,244.454 285.046,243.621 287.5,242.5 Z"/></g>
<g><path style="opacity:1" fill="#272626" d="M 295.5,252.5 C 310.689,252.011 322.522,258.011 331,270.5C 334.935,296.227 323.935,309.561 298,310.5C 273.06,309.896 262.06,297.229 265,272.5C 271.379,259.938 281.546,253.271 295.5,252.5 Z"/></g>
<g><path style="opacity:1" fill="#765123" d="M 394.5,319.5 C 396.587,320.585 397.92,322.251 398.5,324.5C 396.413,323.415 395.08,321.749 394.5,319.5 Z"/></g>
<g><path style="opacity:1" fill="#080604" d="M 308.5,358.5 C 308.738,360.478 310.071,362.145 312.5,363.5C 315.797,366.736 318.63,370.403 321,374.5C 329.16,391.32 339.66,406.487 352.5,420C 356.261,422.765 360.261,425.098 364.5,427C 377.808,428.357 390.475,426.024 402.5,420C 417.57,411.932 431.236,401.932 443.5,390C 447.192,387.841 450.692,388.007 454,390.5C 450.353,423.098 439.686,453.431 422,481.5C 413.451,494.729 401.951,504.229 387.5,510C 382.375,510.925 377.375,511.759 372.5,512.5C 369.833,513.167 368.167,514.833 367.5,517.5C 362.041,523.63 356.374,529.796 350.5,536C 344.401,539.04 338.401,542.373 332.5,546C 304.631,554.993 277.631,552.993 251.5,540C 241.098,532.6 232.432,523.6 225.5,513C 211.138,512.947 199.138,507.78 189.5,497.5C 187.431,494.427 184.764,492.094 181.5,490.5C 170.477,476.155 161.643,460.489 155,443.5C 149.653,429.126 145.319,414.459 142,399.5C 141.071,395.756 141.571,392.256 143.5,389C 148,387.238 151.667,388.404 154.5,392.5C 155.585,394.587 157.251,395.92 159.5,396.5C 160.5,396.833 161.167,397.5 161.5,398.5C 162.585,400.587 164.251,401.92 166.5,402.5C 180.492,413.83 196.158,421.996 213.5,427C 224.516,428.966 234.516,426.8 243.5,420.5C 247.167,418.833 249.833,416.167 251.5,412.5C 260.656,400.202 268.823,387.202 276,373.5C 278.65,369.025 281.817,365.025 285.5,361.5C 287.587,360.415 288.92,358.749 289.5,356.5C 296.407,350.876 302.741,351.542 308.5,358.5 Z"/></g>
<g><path style="opacity:1" fill="#60431f" d="M 289.5,356.5 C 288.92,358.749 287.587,360.415 285.5,361.5C 286.08,359.251 287.413,357.585 289.5,356.5 Z"/></g>
<g><path style="opacity:1" fill="#5a401e" d="M 308.5,358.5 C 310.587,359.585 311.92,361.251 312.5,363.5C 310.071,362.145 308.738,360.478 308.5,358.5 Z"/></g>
<g><path style="opacity:1" fill="#ed8a90" d="M 291.5,378.5 C 299.513,378.562 306.847,380.729 313.5,385C 320.209,395.585 327.042,406.085 334,416.5C 340.699,424.869 348.866,431.369 358.5,436C 363.104,437.061 367.771,437.727 372.5,438C 367.207,455.331 361.374,472.498 355,489.5C 344.078,514.551 324.911,526.217 297.5,524.5C 270.259,525.474 251.425,513.474 241,488.5C 234.792,471.709 229.292,454.709 224.5,437.5C 234.513,437.218 243.513,434.051 251.5,428C 262.937,416.23 272.437,403.063 280,388.5C 283.41,384.584 287.243,381.251 291.5,378.5 Z"/></g>
<g><path style="opacity:1" fill="#3a2a1b" d="M 88.5,375.5 C 89.3996,380.332 90.0662,385.332 90.5,390.5C 89.7321,389.737 89.2321,388.737 89,387.5C 88.5012,383.514 88.3345,379.514 88.5,375.5 Z"/></g>
<g><path style="opacity:1" fill="#593f1e" d="M 154.5,392.5 C 156.749,393.08 158.415,394.413 159.5,396.5C 157.251,395.92 155.585,394.587 154.5,392.5 Z"/></g>
<g><path style="opacity:1" fill="#5e421e" d="M 161.5,398.5 C 163.749,399.08 165.415,400.413 166.5,402.5C 164.251,401.92 162.585,400.587 161.5,398.5 Z"/></g>
<g><path style="opacity:1" fill="#272626" d="M 154.5,406.5 C 166.266,416.744 179.266,425.244 193.5,432C 200.308,434.619 207.308,436.452 214.5,437.5C 218.682,455.881 224.182,473.881 231,491.5C 237.396,510.561 249.896,523.727 268.5,531C 290.38,536.164 312.047,535.498 333.5,529C 344.558,523.942 353.058,516.108 359,505.5C 362.881,498.405 366.215,491.071 369,483.5C 373.914,468.006 378.747,452.506 383.5,437C 405.308,432.43 424.308,422.597 440.5,407.5C 434.792,433.757 424.292,458.09 409,480.5C 402.602,488.573 394.769,494.74 385.5,499C 374.32,498.94 365.153,503.107 358,511.5C 343.592,531.933 323.759,541.6 298.5,540.5C 281.92,541.773 266.92,537.607 253.5,528C 245.15,519.581 236.816,511.248 228.5,503C 223.322,501.202 217.989,500.202 212.5,500C 196.667,492.167 184.833,480.333 177,464.5C 167.428,445.946 159.928,426.613 154.5,406.5 Z"/></g>
<g><path style="opacity:1" fill="#583f1d" d="M 251.5,412.5 C 249.833,416.167 247.167,418.833 243.5,420.5C 245.833,417.5 248.5,414.833 251.5,412.5 Z"/></g>
<g><path style="opacity:1" fill="#5d411e" d="M 181.5,490.5 C 184.764,492.094 187.431,494.427 189.5,497.5C 186.236,495.906 183.569,493.573 181.5,490.5 Z"/></g>
<g><path style="opacity:1" fill="#5b401e" d="M 372.5,512.5 C 371.167,514.5 369.5,516.167 367.5,517.5C 368.167,514.833 369.833,513.167 372.5,512.5 Z"/></g>
</svg>
