<?xml version="1.0" encoding="UTF-8"?>
<!DOCTYPE svg PUBLIC "-//W3C//DTD SVG 1.1//EN" "http://www.w3.org/Graphics/SVG/1.1/DTD/svg11.dtd">
<svg xmlns="http://www.w3.org/2000/svg" version="1.1" width="600px" height="600px" style="shape-rendering:geometricPrecision; text-rendering:geometricPrecision; image-rendering:optimizeQuality; fill-rule:evenodd; clip-rule:evenodd" xmlns:xlink="http://www.w3.org/1999/xlink">
<g><path style="opacity:0.958" fill="#030201" d="M 12.5,-0.5 C 29.8333,-0.5 47.1667,-0.5 64.5,-0.5C 125.955,26.4904 177.788,66.157 220,118.5C 234.862,137.587 242.029,159.253 241.5,183.5C 281.5,174.167 321.5,174.167 361.5,183.5C 360.823,159.195 367.99,137.528 383,118.5C 415.842,76.9791 455.342,43.4791 501.5,18C 513.646,11.2601 525.98,5.09345 538.5,-0.5C 555.833,-0.5 573.167,-0.5 590.5,-0.5C 593.157,4.80981 594.823,10.4765 595.5,16.5C 589.925,51.4337 584.758,86.4337 580,121.5C 574.041,163.679 562.041,204.013 544,242.5C 535.718,258.115 524.551,271.282 510.5,282C 501.472,286.12 492.639,290.62 484,295.5C 483.333,296.833 482.667,298.167 482,299.5C 486.386,345.417 480.053,389.75 463,432.5C 456.447,447.948 448.114,462.282 438,475.5C 435.714,482.07 432.381,488.07 428,493.5C 420.466,509.906 413.466,526.573 407,543.5C 396.538,568.457 379.372,587.123 355.5,599.5C 319.5,599.5 283.5,599.5 247.5,599.5C 223.628,587.123 206.462,568.457 196,543.5C 189.159,525.483 181.492,507.817 173,490.5C 165.47,477.283 157.47,464.283 149,451.5C 126.635,408.675 117.468,363.175 121.5,315C 121.623,309.061 121.123,303.228 120,297.5C 118.833,295.667 117.333,294.167 115.5,293C 89.7504,283.918 70.917,267.084 59,242.5C 40.9594,204.013 28.9594,163.679 23,121.5C 18.159,86.4464 12.9924,51.4464 7.5,16.5C 8.17681,10.4765 9.84348,4.80981 12.5,-0.5 Z"/></g>
<g><path style="opacity:1" fill="#d0a267" d="M 25.5,2.5 C 34.4232,1.83864 43.0899,3.00531 51.5,6C 107.514,28.7461 156.014,62.2461 197,106.5C 208.4,119.624 218.067,133.958 226,149.5C 230.387,162.486 232.72,175.819 233,189.5C 234.529,192.934 237.196,194.6 241,194.5C 260.751,188.76 280.918,186.427 301.5,187.5C 321.905,186.569 341.905,188.902 361.5,194.5C 366.937,194.565 370.103,191.899 371,186.5C 370.135,168.961 374.135,152.627 383,137.5C 397.571,114.919 415.071,94.7526 435.5,77C 464.762,52.0217 496.762,31.0217 531.5,14C 541.127,9.3462 551.127,5.67954 561.5,3C 578.81,-1.34242 586.31,5.15758 584,22.5C 578.503,58.4713 573.17,94.4713 568,130.5C 562.345,165.471 552.345,199.138 538,231.5C 530.167,248.664 518.667,262.83 503.5,274C 495.681,277.41 488.014,281.077 480.5,285C 472.892,291.388 469.558,299.554 470.5,309.5C 476.6,363.679 465.267,413.845 436.5,460C 432.245,458.654 427.745,457.82 423,457.5C 420.075,457.523 417.241,458.023 414.5,459C 405.5,465.333 396.5,471.667 387.5,478C 373.332,486.262 358.332,488.262 342.5,484C 329.163,479.611 315.496,476.777 301.5,475.5C 286.827,476.585 272.494,479.418 258.5,484C 243.33,488.195 228.996,486.195 215.5,478C 206.5,471.667 197.5,465.333 188.5,459C 181.383,456.618 174.549,457.118 168,460.5C 167.228,460.355 166.561,460.022 166,459.5C 137.104,412.649 125.937,361.816 132.5,307C 132.692,298.051 129.358,290.718 122.5,285C 114.081,281.193 105.747,277.193 97.5,273C 83.431,261.693 72.5977,247.859 65,231.5C 50.6484,199.129 40.6484,165.462 35,130.5C 29.8304,94.4763 24.497,58.4763 19,22.5C 16.7079,14.1393 18.8746,7.47262 25.5,2.5 Z"/></g>
<g><path style="opacity:1" fill="#050402" d="M 37.5,16.5 C 47.4288,16.6544 56.7621,19.1544 65.5,24C 103.501,45.4317 138.001,71.5984 169,102.5C 183.938,118.699 195.604,137.032 204,157.5C 211.5,185.003 208.5,211.336 195,236.5C 172.534,271.496 144.034,277.329 109.5,254C 92.98,238.458 80.8134,219.958 73,198.5C 68.3886,186.943 64.0553,175.276 60,163.5C 48.8246,121.799 37.4913,80.1326 26,38.5C 24.3607,28.1055 28.194,20.7721 37.5,16.5 Z"/></g>
<g><path style="opacity:1" fill="#050402" d="M 555.5,16.5 C 571.264,15.4306 578.431,22.764 577,38.5C 566.201,76.696 555.867,115.029 546,153.5C 537.873,182.081 526.207,209.081 511,234.5C 497.9,254.634 479.4,265.967 455.5,268.5C 435.162,265.995 419.662,255.995 409,238.5C 389.078,202.709 389.744,167.375 411,132.5C 424.621,112.799 440.455,94.9654 458.5,79C 483.262,58.4487 509.595,40.1154 537.5,24C 543.485,21.1656 549.485,18.6656 555.5,16.5 Z"/></g>
<g><path style="opacity:1" fill="#d7b98d" d="M 46.5,27.5 C 56.9198,32.544 67.2531,37.8774 77.5,43.5C 79.6291,45.9501 82.2957,47.6167 85.5,48.5C 87.8525,49.3403 89.8525,50.6736 91.5,52.5C 93.1475,54.3264 95.1475,55.6597 97.5,56.5C 113.89,68.7099 129.89,81.5432 145.5,95C 156.431,105.765 166.765,116.932 176.5,128.5C 182.946,138.392 188.613,148.725 193.5,159.5C 197.072,172.98 198.072,186.647 196.5,200.5C 194.702,206.687 193.035,213.021 191.5,219.5C 189.375,222.088 188.042,225.088 187.5,228.5C 187.25,230.674 186.25,232.341 184.5,233.5C 182.016,235.8 180.016,238.467 178.5,241.5C 161.674,259.094 142.674,261.761 121.5,249.5C 115.86,244.195 110.193,238.861 104.5,233.5C 102.738,232.738 101.738,231.404 101.5,229.5C 95.5759,219.319 89.9092,208.986 84.5,198.5C 84.2927,195.759 83.2927,193.426 81.5,191.5C 80.0687,190.22 79.4021,188.553 79.5,186.5C 79.2671,183.458 78.2671,180.792 76.5,178.5C 76.2671,175.458 75.2671,172.792 73.5,170.5C 60.4696,125.214 48.1363,79.7137 36.5,34C 37.3022,28.1213 40.6355,25.9547 46.5,27.5 Z"/></g>
<g><path style="opacity:1" fill="#d7b98d" d="M 556.5,27.5 C 562.364,25.9547 565.698,28.1213 566.5,34C 555.573,75.5447 544.573,117.045 533.5,158.5C 531.928,161.215 530.928,164.215 530.5,167.5C 526.126,177.613 522.126,187.946 518.5,198.5C 510.656,216.676 499.656,232.676 485.5,246.5C 484.738,248.262 483.404,249.262 481.5,249.5C 473.419,253.971 464.752,256.637 455.5,257.5C 448.385,256.905 441.718,254.905 435.5,251.5C 433.596,251.262 432.262,250.262 431.5,248.5C 427.805,244.474 424.138,240.474 420.5,236.5C 419.331,233.489 417.664,230.822 415.5,228.5C 414.326,227.486 413.66,226.153 413.5,224.5C 412.208,219.618 410.541,214.952 408.5,210.5C 407.172,202.386 406.172,194.219 405.5,186C 405.997,177.024 407.33,168.19 409.5,159.5C 414.387,148.725 420.054,138.392 426.5,128.5C 436.235,116.932 446.569,105.765 457.5,95C 473.11,81.5432 489.11,68.7099 505.5,56.5C 507.853,55.6597 509.853,54.3264 511.5,52.5C 513.147,50.6736 515.147,49.3403 517.5,48.5C 520.704,47.6167 523.371,45.9501 525.5,43.5C 535.747,37.8774 546.08,32.544 556.5,27.5 Z"/></g>
<g><path style="opacity:1" fill="#795e3c" d="M 46.5,27.5 C 51.7926,28.4319 56.7926,30.2653 61.5,33C 67.0696,36.2751 72.4029,39.7751 77.5,43.5C 67.2531,37.8774 56.9198,32.544 46.5,27.5 Z"/></g>
<g><path style="opacity:1" fill="#795e3c" d="M 556.5,27.5 C 546.08,32.544 535.747,37.8774 525.5,43.5C 530.597,39.7751 535.93,36.2751 541.5,33C 546.207,30.2653 551.207,28.4319 556.5,27.5 Z"/></g>
<g><path style="opacity:1" fill="#7a5f3d" d="M 77.5,43.5 C 80.7043,44.3833 83.3709,46.0499 85.5,48.5C 82.2957,47.6167 79.6291,45.9501 77.5,43.5 Z"/></g>
<g><path style="opacity:1" fill="#7a5f3d" d="M 525.5,43.5 C 523.371,45.9501 520.704,47.6167 517.5,48.5C 519.629,46.0499 522.296,44.3833 525.5,43.5 Z"/></g>
<g><path style="opacity:1" fill="#775d3b" d="M 91.5,52.5 C 94.1979,52.8449 96.1979,54.1782 97.5,56.5C 95.1475,55.6597 93.1475,54.3264 91.5,52.5 Z"/></g>
<g><path style="opacity:1" fill="#775d3b" d="M 511.5,52.5 C 509.853,54.3264 507.853,55.6597 505.5,56.5C 506.802,54.1782 508.802,52.8449 511.5,52.5 Z"/></g>
<g><path style="opacity:1" fill="#795e3c" d="M 97.5,56.5 C 123.844,73.6606 147.677,93.9939 169,117.5C 172.015,120.878 174.515,124.544 176.5,128.5C 166.765,116.932 156.431,105.765 145.5,95C 129.89,81.5432 113.89,68.7099 97.5,56.5 Z"/></g>
<g><path style="opacity:1" fill="#795d3c" d="M 556.5,27.5 C 565.127,24.9525 568.627,28.2859 567,37.5C 558.022,70.0799 549.355,102.747 541,135.5C 538.943,143.429 536.443,151.096 533.5,158.5C 544.573,117.045 555.573,75.5447 566.5,34C 565.698,28.1213 562.364,25.9547 556.5,27.5 Z"/></g>
<g><path style="opacity:1" fill="#795d3c" d="M 46.5,27.5 C 40.6355,25.9547 37.3022,28.1213 36.5,34C 48.1363,79.7137 60.4696,125.214 73.5,170.5C 68.1355,156.902 63.6355,142.902 60,128.5C 52.4676,98.0369 44.4676,67.7036 36,37.5C 34.373,28.2859 37.873,24.9525 46.5,27.5 Z"/></g>
<g><path style="opacity:1" fill="#795e3c" d="M 505.5,56.5 C 489.11,68.7099 473.11,81.5432 457.5,95C 446.569,105.765 436.235,116.932 426.5,128.5C 435.186,116.035 445.186,104.535 456.5,94C 471.874,80.1103 488.208,67.6103 505.5,56.5 Z"/></g>
<g><path style="opacity:1" fill="#785d3c" d="M 176.5,128.5 C 184.482,137.456 190.149,147.789 193.5,159.5C 188.613,148.725 182.946,138.392 176.5,128.5 Z"/></g>
<g><path style="opacity:1" fill="#785d3c" d="M 426.5,128.5 C 420.054,138.392 414.387,148.725 409.5,159.5C 412.851,147.789 418.518,137.456 426.5,128.5 Z"/></g>
<g><path style="opacity:1" fill="#775d3b" d="M 533.5,158.5 C 533.472,161.916 532.472,164.916 530.5,167.5C 530.928,164.215 531.928,161.215 533.5,158.5 Z"/></g>
<g><path style="opacity:1" fill="#785d3c" d="M 73.5,170.5 C 75.2671,172.792 76.2671,175.458 76.5,178.5C 74.7329,176.208 73.7329,173.542 73.5,170.5 Z"/></g>
<g><path style="opacity:1" fill="#785d3c" d="M 193.5,159.5 C 195.417,162.804 196.584,166.471 197,170.5C 199.144,180.691 198.977,190.691 196.5,200.5C 198.072,186.647 197.072,172.98 193.5,159.5 Z"/></g>
<g><path style="opacity:1" fill="#785d3c" d="M 409.5,159.5 C 407.33,168.19 405.997,177.024 405.5,186C 406.172,194.219 407.172,202.386 408.5,210.5C 404.489,197.499 403.656,184.166 406,170.5C 406.416,166.471 407.583,162.804 409.5,159.5 Z"/></g>
<g><path style="opacity:1" fill="#785d3c" d="M 76.5,178.5 C 78.2671,180.792 79.2671,183.458 79.5,186.5C 77.7329,184.208 76.7329,181.542 76.5,178.5 Z"/></g>
<g><path style="opacity:1" fill="#785d3c" d="M 530.5,167.5 C 527.659,178.369 523.659,188.702 518.5,198.5C 522.126,187.946 526.126,177.613 530.5,167.5 Z"/></g>
<g><path style="opacity:1" fill="#785d3c" d="M 81.5,191.5 C 83.2927,193.426 84.2927,195.759 84.5,198.5C 82.7073,196.574 81.7073,194.241 81.5,191.5 Z"/></g>
<g><path style="opacity:1" fill="#785d3c" d="M 84.5,198.5 C 89.9092,208.986 95.5759,219.319 101.5,229.5C 94.0402,220.255 88.3735,209.921 84.5,198.5 Z"/></g>
<g><path style="opacity:1" fill="#785d3c" d="M 196.5,200.5 C 196.216,207.307 194.55,213.641 191.5,219.5C 193.035,213.021 194.702,206.687 196.5,200.5 Z"/></g>
<g><path style="opacity:1" fill="#795e3c" d="M 518.5,198.5 C 513.74,212.024 506.906,224.357 498,235.5C 494.239,239.77 490.072,243.437 485.5,246.5C 499.656,232.676 510.656,216.676 518.5,198.5 Z"/></g>
<g><path style="opacity:1" fill="#795e3d" d="M 408.5,210.5 C 410.541,214.952 412.208,219.618 413.5,224.5C 410.666,220.336 408.999,215.669 408.5,210.5 Z"/></g>
<g><path style="opacity:1" fill="#795e3c" d="M 191.5,219.5 C 190.958,222.912 189.625,225.912 187.5,228.5C 188.042,225.088 189.375,222.088 191.5,219.5 Z"/></g>
<g><path style="opacity:1" fill="#785d3c" d="M 415.5,228.5 C 417.664,230.822 419.331,233.489 420.5,236.5C 417.836,234.516 416.169,231.849 415.5,228.5 Z"/></g>
<g><path style="opacity:1" fill="#7a5f3d" d="M 184.5,233.5 C 183.471,236.891 181.471,239.557 178.5,241.5C 180.016,238.467 182.016,235.8 184.5,233.5 Z"/></g>
<g><path style="opacity:1" fill="#785d3c" d="M 104.5,233.5 C 110.193,238.861 115.86,244.195 121.5,249.5C 114.547,245.548 108.88,240.214 104.5,233.5 Z"/></g>
<g><path style="opacity:1" fill="#785d3c" d="M 420.5,236.5 C 424.138,240.474 427.805,244.474 431.5,248.5C 426.444,245.777 422.777,241.777 420.5,236.5 Z"/></g>
<g><path style="opacity:1" fill="#795e3c" d="M 481.5,249.5 C 473.915,255.241 465.248,258.241 455.5,258.5C 447.883,258.518 441.216,256.185 435.5,251.5C 441.718,254.905 448.385,256.905 455.5,257.5C 464.752,256.637 473.419,253.971 481.5,249.5 Z"/></g>
<g><path style="opacity:1" fill="#795e3c" d="M 178.5,241.5 C 166.039,257.756 150.039,262.256 130.5,255C 127.102,253.643 124.102,251.81 121.5,249.5C 142.674,261.761 161.674,259.094 178.5,241.5 Z"/></g>
<g><path style="opacity:1" fill="#d7b98d" d="M 229.5,314.5 C 244.074,313.893 252.574,320.893 255,335.5C 256.076,340.072 255.243,344.239 252.5,348C 250.635,349.301 248.635,349.635 246.5,349C 240.516,343.671 233.849,339.337 226.5,336C 216.488,327.241 217.488,320.075 229.5,314.5 Z"/></g>
<g><path style="opacity:1" fill="#d7b98d" d="M 362.5,314.5 C 368.563,313.838 374.23,315.004 379.5,318C 383.035,320.707 384.202,324.207 383,328.5C 381.207,331.295 379.04,333.795 376.5,336C 369.151,339.337 362.484,343.671 356.5,349C 352.006,349.832 349.172,347.998 348,343.5C 347,330.832 351.834,321.166 362.5,314.5 Z"/></g>
<g><path style="opacity:1" fill="#d5b78b" d="M 209.5,338.5 C 239.063,342.3 250.23,358.633 243,387.5C 232.938,405.752 217.771,411.919 197.5,406C 178.978,395.436 172.811,379.936 179,359.5C 185.563,347.08 195.73,340.08 209.5,338.5 Z"/></g>
<g><path style="opacity:1" fill="#d4b68b" d="M 385.5,338.5 C 405.663,337.656 419.163,346.656 426,365.5C 428.463,386.746 419.629,400.913 399.5,408C 369.333,409.165 355.5,394.665 358,364.5C 362.891,351.104 372.057,342.438 385.5,338.5 Z"/></g>
<g><path style="opacity:1" fill="#312926" d="M 205.5,349.5 C 219.817,348.238 229.65,354.238 235,367.5C 236.321,389.179 226.154,399.012 204.5,397C 190.518,391.543 185.018,381.376 188,366.5C 191.118,357.88 196.951,352.213 205.5,349.5 Z"/></g>
<g><path style="opacity:1" fill="#312826" d="M 386.5,349.5 C 409.512,349.676 418.679,361.009 414,383.5C 406.997,396.219 396.497,400.386 382.5,396C 368.878,388.477 364.711,377.31 370,362.5C 373.962,356.019 379.462,351.686 386.5,349.5 Z"/></g>
<g><path style="opacity:1" fill="#ecebeb" d="M 221.5,361.5 C 225.193,361.186 227.527,362.852 228.5,366.5C 226.244,372.192 223.077,372.859 219,368.5C 218.333,367.167 218.333,365.833 219,364.5C 220.045,363.627 220.878,362.627 221.5,361.5 Z"/></g>
<g><path style="opacity:1" fill="#eeeded" d="M 402.5,361.5 C 407.989,361.504 409.822,364.171 408,369.5C 404.988,372.25 402.321,371.917 400,368.5C 399.162,365.519 399.995,363.186 402.5,361.5 Z"/></g>
<g><path style="opacity:1" fill="#4f473e" d="M 217.5,490.5 C 225.368,493.621 233.535,495.621 242,496.5C 247.829,495.723 253.662,495.056 259.5,494.5C 273.321,490.878 287.321,488.211 301.5,486.5C 317.069,488.391 332.402,491.558 347.5,496C 351.5,496.5 355.5,497 359.5,497.5C 361.045,497.489 362.378,497.156 363.5,496.5C 375.689,494.405 387.022,490.072 397.5,483.5C 404.4,480.789 410.4,476.623 415.5,471C 419.208,468.868 423.208,468.035 427.5,468.5C 427.263,469.791 427.596,470.791 428.5,471.5C 423.28,481.602 417.78,491.602 412,501.5C 405.001,523.494 395.334,544.161 383,563.5C 361.867,588.726 334.701,600.059 301.5,597.5C 261.093,600.22 230.927,584.22 211,549.5C 203.025,533.24 196.025,516.573 190,499.5C 184.567,490.3 179.401,480.967 174.5,471.5C 175.404,470.791 175.737,469.791 175.5,468.5C 178.941,468.301 182.274,468.801 185.5,470C 190.789,473.62 195.789,477.62 200.5,482C 205.952,485.393 211.619,488.226 217.5,490.5 Z"/></g>
<g><path style="opacity:1" fill="#7f6442" d="M 428.5,471.5 C 427.596,470.791 427.263,469.791 427.5,468.5C 423.208,468.035 419.208,468.868 415.5,471C 410.4,476.623 404.4,480.789 397.5,483.5C 404.317,478.197 411.317,473.03 418.5,468C 421.882,467.176 425.216,467.343 428.5,468.5C 429.791,469.527 429.791,470.527 428.5,471.5 Z"/></g>
<g><path style="opacity:1" fill="#7f6442" d="M 217.5,490.5 C 211.619,488.226 205.952,485.393 200.5,482C 195.789,477.62 190.789,473.62 185.5,470C 182.274,468.801 178.941,468.301 175.5,468.5C 175.737,469.791 175.404,470.791 174.5,471.5C 173.209,470.527 173.209,469.527 174.5,468.5C 177.784,467.343 181.118,467.176 184.5,468C 190.707,471.606 196.373,475.939 201.5,481C 207.062,483.941 212.395,487.108 217.5,490.5 Z"/></g>
<g><path style="opacity:1" fill="#7e6443" d="M 363.5,496.5 C 362.378,497.156 361.045,497.489 359.5,497.5C 355.5,497 351.5,496.5 347.5,496C 332.402,491.558 317.069,488.391 301.5,486.5C 287.321,488.211 273.321,490.878 259.5,494.5C 279.166,486.545 299.5,484.378 320.5,488C 334.503,492.585 348.836,495.418 363.5,496.5 Z"/></g>
<g><path style="opacity:1" fill="#000000" d="M 289.5,508.5 C 303.789,506.994 317.456,509.16 330.5,515C 342.692,524.911 346.192,537.411 341,552.5C 335.09,567.883 323.923,576.717 307.5,579C 289.911,581.363 275.411,575.863 264,562.5C 249.755,533.333 258.255,515.333 289.5,508.5 Z"/></g>
<g><path style="opacity:1" fill="#202020" d="M 291.5,518.5 C 303.37,517.285 314.704,519.118 325.5,524C 332.728,530.409 334.894,538.242 332,547.5C 327.831,559.685 319.331,566.851 306.5,569C 293.311,570.937 282.144,567.104 273,557.5C 261.531,535.777 267.698,522.777 291.5,518.5 Z"/></g>
</svg>
