<?xml version="1.0" encoding="UTF-8"?>
<!DOCTYPE svg PUBLIC "-//W3C//DTD SVG 1.1//EN" "http://www.w3.org/Graphics/SVG/1.1/DTD/svg11.dtd">
<svg xmlns="http://www.w3.org/2000/svg" version="1.1" width="600px" height="600px" style="shape-rendering:geometricPrecision; text-rendering:geometricPrecision; image-rendering:optimizeQuality; fill-rule:evenodd; clip-rule:evenodd" xmlns:xlink="http://www.w3.org/1999/xlink">
<g><path style="opacity:0.96" fill="#030302" d="M 599.5,263.5 C 599.5,272.5 599.5,281.5 599.5,290.5C 595.913,292.809 591.913,293.975 587.5,294C 591.905,300.65 595.905,307.483 599.5,314.5C 599.5,331.833 599.5,349.167 599.5,366.5C 595.267,378.699 591.1,391.032 587,403.5C 586.055,409.852 585.055,416.185 584,422.5C 581.612,425.634 578.446,427.467 574.5,428C 578.336,434.85 579.169,442.017 577,449.5C 574.879,452.119 572.379,454.119 569.5,455.5C 575.409,469.648 581.576,483.648 588,497.5C 592.281,509.815 588.114,517.148 575.5,519.5C 571.518,518.925 567.851,517.592 564.5,515.5C 562.977,524.856 557.477,529.856 548,530.5C 529.357,528.18 514.023,519.846 502,505.5C 486.591,486.07 473.591,465.07 463,442.5C 459.444,431.721 456.777,420.721 455,409.5C 453.375,392.539 452.375,375.539 452,358.5C 441.715,387.404 430.048,415.737 417,443.5C 410.667,464.5 404.333,485.5 398,506.5C 391.39,522.053 385.057,537.72 379,553.5C 369.247,569.643 355.08,579.81 336.5,584C 310.833,590 285.167,590 259.5,584C 240.467,579.616 225.967,569.116 216,552.5C 210.941,540.714 205.607,529.047 200,517.5C 192.195,494.752 185.195,471.752 179,448.5C 167.113,420.058 155.779,391.391 145,362.5C 145.487,385.473 143.154,408.14 138,430.5C 127.211,460.936 111.044,488.102 89.5,512C 78.4733,522.595 65.3067,528.762 50,530.5C 40.2754,530.109 34.6088,525.109 33,515.5C 20.1722,522.839 11.6722,519.506 7.5,505.5C 8.1892,503.556 8.6892,501.556 9,499.5C 15.8929,484.815 22.3929,469.982 28.5,455C 22.0534,453.381 18.7201,449.215 18.5,442.5C 19.8407,437.482 21.174,432.482 22.5,427.5C 17.9774,427.655 14.8107,425.655 13,421.5C 11.0228,404.081 6.52275,387.414 -0.5,371.5C -0.5,351.5 -0.5,331.5 -0.5,311.5C 3.01682,305.647 6.68348,299.813 10.5,294C 6.6098,293.894 2.94313,293.061 -0.5,291.5C -0.5,281.5 -0.5,271.5 -0.5,261.5C 10.4995,236.819 20.9995,211.819 31,186.5C 42.9772,163.206 57.3105,141.539 74,121.5C 92.0276,108.138 107.361,92.1379 120,73.5C 125.708,68.1233 131.708,63.1233 138,58.5C 135.018,47.1669 139.184,40.3336 150.5,38C 155.243,37.4571 159.91,37.4571 164.5,38C 160.234,31.1377 160.9,24.8043 166.5,19C 171.699,15.9888 176.866,16.1554 182,19.5C 184.922,11.7882 190.422,8.95487 198.5,11C 204.032,15.5354 209.199,20.3687 214,25.5C 270.825,6.56645 327.492,6.89978 384,26.5C 388.554,20.6123 393.721,15.4457 399.5,11C 407.565,8.8641 412.898,11.6974 415.5,19.5C 426.422,14.1409 433.422,17.3076 436.5,29C 435.58,31.8349 434.58,34.6682 433.5,37.5C 433.833,37.8333 434.167,38.1667 434.5,38.5C 441.787,36.8445 448.787,37.6779 455.5,41C 460.182,45.7141 461.182,51.0474 458.5,57C 473.737,68.5713 486.57,82.4046 497,98.5C 502.851,104.831 509.351,110.331 516.5,115C 538.075,137.633 555.575,163.133 569,191.5C 578.392,215.936 588.558,239.936 599.5,263.5 Z"/></g>
<g><path style="opacity:1" fill="#3d3938" d="M 213.5,37.5 C 201.838,45.1394 191.005,54.1394 181,64.5C 171.157,76.684 162.49,89.684 155,103.5C 148.084,122.564 143.75,142.231 142,162.5C 139.938,200.146 138.438,237.812 137.5,275.5C 136.095,286.658 134.928,297.991 134,309.5C 133.667,338.5 133.333,367.5 133,396.5C 131.455,422.691 123.455,446.691 109,468.5C 100.048,484.119 88.8817,497.952 75.5,510C 66.4322,517.138 56.2655,519.972 45,518.5C 44.2123,513.21 44.7123,508.043 46.5,503C 46.4148,501.893 46.0814,500.893 45.5,500C 43.0871,499.516 40.7538,499.85 38.5,501C 34.0074,503.079 29.674,505.412 25.5,508C 23.2305,508.758 21.0639,508.591 19,507.5C 18.3482,504.406 18.6815,501.406 20,498.5C 30.4946,479.511 38.328,459.511 43.5,438.5C 43.3333,437.167 43.1667,435.833 43,434.5C 42.586,434.043 42.086,433.709 41.5,433.5C 37.6054,436.973 33.9387,440.64 30.5,444.5C 29.3691,442.926 29.2025,441.259 30,439.5C 32.7478,431.26 35.0812,422.927 37,414.5C 37.8184,411.773 37.6517,409.106 36.5,406.5C 31.8733,409.791 27.54,413.458 23.5,417.5C 22.6735,413.541 22.1735,409.541 22,405.5C 15.189,385.734 9.189,365.734 4,345.5C 2.98854,338 3.65521,330.667 6,323.5C 12.0646,311.705 18.398,300.039 25,288.5C 26.8323,283.18 24.999,280.513 19.5,280.5C 15.2671,281.188 11.1004,282.188 7,283.5C 5.00775,282.771 4.17442,281.271 4.5,279C 15.5202,252.28 26.3535,225.446 37,198.5C 48.5363,173.985 62.8696,151.318 80,130.5C 98.4159,116.752 114.083,100.418 127,81.5C 134.084,74.4118 141.751,68.0785 150,62.5C 149.63,57.8619 149.13,53.1953 148.5,48.5C 158.273,48.9475 167.939,48.4475 177.5,47C 178.576,45.2739 178.743,43.4406 178,41.5C 175.306,37.1211 173.473,32.4544 172.5,27.5C 179.806,30.8184 187.139,34.1517 194.5,37.5C 196.312,37.0485 197.312,35.8818 197.5,34C 195.557,30.1147 193.891,26.1147 192.5,22C 192.833,21.5 193.167,21 193.5,20.5C 198.685,24.8511 203.351,29.6844 207.5,35C 209.217,36.5588 211.217,37.3921 213.5,37.5 Z"/></g>
<g><path style="opacity:1" fill="#3d3938" d="M 459.5,267.5 C 459.099,226.067 456.932,184.734 453,143.5C 450.867,125.769 445.534,109.102 437,93.5C 430.824,83.8145 424.157,74.4812 417,65.5C 410.621,57.6206 403.455,50.6206 395.5,44.5C 391.009,43.3207 387.343,40.9874 384.5,37.5C 385.922,37.2914 387.255,36.7914 388.5,36C 393.709,30.9587 398.709,25.792 403.5,20.5C 404.631,22.0745 404.798,23.7412 404,25.5C 401.451,29.1026 400.618,32.9359 401.5,37C 402.833,37.6667 404.167,37.6667 405.5,37C 411.089,34.4005 416.423,31.4005 421.5,28C 422.793,27.51 424.127,27.3433 425.5,27.5C 424.518,32.4701 422.684,37.1368 420,41.5C 418.86,44.5282 419.694,46.6949 422.5,48C 431.167,48.3333 439.833,48.6667 448.5,49C 449.059,49.7247 449.392,50.5581 449.5,51.5C 447.909,55.0421 447.409,58.7087 448,62.5C 455.885,67.7824 463.218,73.7824 470,80.5C 476.667,89.1667 483.333,97.8333 490,106.5C 500.966,115.797 511.632,125.464 522,135.5C 536.085,153.988 548.418,173.655 559,194.5C 570.408,222.896 581.908,251.23 593.5,279.5C 593.43,280.772 593.097,281.938 592.5,283C 587.686,282.405 582.852,281.571 578,280.5C 574.451,279.773 572.284,281.106 571.5,284.5C 574.951,293.403 579.451,301.736 585,309.5C 590.032,318.056 593.199,327.222 594.5,337C 594.055,342.226 593.222,347.393 592,352.5C 586.869,369.561 581.535,386.561 576,403.5C 575.828,408.202 575.328,412.868 574.5,417.5C 571.015,414.516 567.682,411.349 564.5,408C 562.975,406.991 561.308,406.491 559.5,406.5C 561.259,418.783 564.259,430.783 568.5,442.5C 568.267,443.932 567.6,444.432 566.5,444C 563.266,440.855 560.266,437.522 557.5,434C 554.77,433.058 553.437,434.058 553.5,437C 559.008,458.853 567.174,479.686 578,499.5C 578.498,502.482 578.665,505.482 578.5,508.5C 576.473,508.662 574.473,508.495 572.5,508C 566.144,503.486 559.144,500.652 551.5,499.5C 551.601,504.407 552.268,509.24 553.5,514C 553.646,516.034 552.98,517.701 551.5,519C 540.727,519.631 531.06,516.631 522.5,510C 513.251,502.753 505.417,494.253 499,484.5C 489.836,470.665 481.503,456.331 474,441.5C 469.34,429.195 466.34,416.528 465,403.5C 463.764,369.518 463.098,335.518 463,301.5C 461.5,290.046 460.333,278.713 459.5,267.5 Z"/></g>
<g><path style="opacity:1" fill="#4c4848" d="M 384.5,37.5 C 387.343,40.9874 391.009,43.3207 395.5,44.5C 403.455,50.6206 410.621,57.6206 417,65.5C 424.157,74.4812 430.824,83.8145 437,93.5C 445.534,109.102 450.867,125.769 453,143.5C 456.932,184.734 459.099,226.067 459.5,267.5C 458.04,275.762 457.04,284.095 456.5,292.5C 453.728,292.22 451.228,292.887 449,294.5C 437.242,315.024 424.242,334.691 410,353.5C 393.707,370.309 377.207,370.475 360.5,354C 351.736,350.445 347.903,353.278 349,362.5C 362.564,409.884 370.731,458.217 373.5,507.5C 367.531,500.69 361.698,493.69 356,486.5C 355.329,485.748 354.496,485.414 353.5,485.5C 350.142,475.307 343.475,468.14 333.5,464C 327.661,461.72 321.661,460.053 315.5,459C 297.461,455.845 279.795,457.178 262.5,463C 243.229,472.037 235.396,487.203 239,508.5C 241.561,529.658 252.728,543.991 272.5,551.5C 279.73,559.617 286.73,567.95 293.5,576.5C 298.792,577.495 304.125,577.828 309.5,577.5C 290.15,579.776 271.15,577.609 252.5,571C 238.487,564.987 228.487,554.987 222.5,541C 224.187,538.442 225.187,535.609 225.5,532.5C 223.137,523.485 222.137,514.318 222.5,505C 224.731,459.052 231.897,413.885 244,369.5C 245.471,365.419 247.138,361.419 249,357.5C 250.167,350.667 247.333,347.833 240.5,349C 233.373,354.787 225.707,359.787 217.5,364C 209.251,367.437 201.251,366.937 193.5,362.5C 187.124,357.291 181.624,351.291 177,344.5C 166.831,328.832 157.164,312.832 148,296.5C 145.772,293.922 142.939,292.589 139.5,292.5C 138.573,286.866 137.907,281.199 137.5,275.5C 138.438,237.812 139.938,200.146 142,162.5C 143.75,142.231 148.084,122.564 155,103.5C 162.49,89.684 171.157,76.684 181,64.5C 191.005,54.1394 201.838,45.1394 213.5,37.5C 229.97,30.2146 247.303,25.7146 265.5,24C 306.294,19.225 345.96,23.725 384.5,37.5 Z"/></g>
<g><path style="opacity:1" fill="#ddac57" d="M 368.5,129.5 C 379.925,128.629 388.758,132.963 395,142.5C 396.236,150.276 393.402,156.109 386.5,160C 378.955,163.271 371.288,166.271 363.5,169C 360.228,170.608 357.228,172.608 354.5,175C 349.438,176.291 345.938,174.458 344,169.5C 342.915,150.433 351.082,137.1 368.5,129.5 Z"/></g>
<g><path style="opacity:1" fill="#ddac57" d="M 216.5,129.5 C 233.628,131.11 245.128,140.11 251,156.5C 252.196,162.052 251.363,167.219 248.5,172C 243.983,174.358 239.983,173.692 236.5,170C 228.591,167.356 220.591,165.023 212.5,163C 208.127,161.287 204.293,158.787 201,155.5C 197.667,150.167 197.667,144.833 201,139.5C 205.533,134.995 210.7,131.662 216.5,129.5 Z"/></g>
<g><path style="opacity:1" fill="#dbaa57" d="M 199.5,176.5 C 225.557,173.601 242.391,184.601 250,209.5C 251.994,234.696 240.827,250.529 216.5,257C 193.566,258.947 178.066,249.113 170,227.5C 166.435,202.619 176.268,185.619 199.5,176.5 Z"/></g>
<g><path style="opacity:1" fill="#dbaa57" d="M 382.5,175.5 C 405.607,175.46 420.44,186.46 427,208.5C 429.691,233.294 419.191,249.461 395.5,257C 371.211,259.612 355.044,249.445 347,226.5C 344.036,199.069 355.87,182.069 382.5,175.5 Z"/></g>
<g><path style="opacity:1" fill="#312826" d="M 203.5,188.5 C 219.738,186.863 230.905,193.529 237,208.5C 239.999,230.514 230.499,242.848 208.5,245.5C 189.287,241.778 180.454,230.111 182,210.5C 185.35,199.318 192.517,191.984 203.5,188.5 Z"/></g>
<g><path style="opacity:1" fill="#312926" d="M 380.5,188.5 C 396.7,186.846 407.867,193.513 414,208.5C 416.999,230.514 407.499,242.848 385.5,245.5C 366.287,241.778 357.454,230.111 359,210.5C 362.35,199.318 369.517,191.984 380.5,188.5 Z"/></g>
<g><path style="opacity:1" fill="#ebeaea" d="M 200.5,198.5 C 209.549,198.701 212.215,202.868 208.5,211C 200.398,213.895 196.565,211.062 197,202.5C 198.376,201.295 199.542,199.962 200.5,198.5 Z"/></g>
<g><path style="opacity:1" fill="#eeeded" d="M 371.5,198.5 C 378.978,198.485 381.811,202.152 380,209.5C 376,213.5 372,213.5 368,209.5C 366.663,204.916 367.829,201.249 371.5,198.5 Z"/></g>
<g><path style="opacity:1" fill="#deac57" d="M 365.5,405.5 C 365.246,400.556 364.246,395.889 362.5,391.5C 362.58,388.219 361.913,385.219 360.5,382.5C 360.26,377.88 359.26,373.547 357.5,369.5C 356.568,365.704 355.234,362.037 353.5,358.5C 353.833,358.167 354.167,357.833 354.5,357.5C 380.249,378.751 402.749,375.751 422,348.5C 433,331.5 444,314.5 455,297.5C 451.623,321.316 445.956,344.65 438,367.5C 427.333,392.833 416.667,418.167 406,443.5C 401.026,459.393 396.359,475.393 392,491.5C 388.121,503.804 383.454,515.804 378,527.5C 379.809,512.549 379.809,497.549 378,482.5C 375.124,456.577 370.957,430.911 365.5,405.5 Z"/></g>
<g><path style="opacity:1" fill="#deac57" d="M 238.5,369.5 C 235.917,375.83 234.251,382.497 233.5,389.5C 231.74,393.547 230.74,397.88 230.5,402.5C 226.116,419.802 223.116,437.469 221.5,455.5C 220.116,460.944 219.45,466.611 219.5,472.5C 218.054,478.274 217.388,484.274 217.5,490.5C 216.862,494.753 216.529,499.086 216.5,503.5C 216.847,513.59 217.68,523.59 219,533.5C 215.727,527.288 212.727,520.954 210,514.5C 201.537,488.98 193.537,463.313 186,437.5C 173.294,409.052 161.961,380.052 152,350.5C 149.667,341.833 147.333,333.167 145,324.5C 142.749,315.591 141.416,306.591 141,297.5C 151.165,315.168 161.832,332.501 173,349.5C 177.856,355.354 183.023,360.854 188.5,366C 202.23,373.429 215.897,373.096 229.5,365C 234.621,361.547 239.454,357.714 244,353.5C 241.94,358.65 240.106,363.983 238.5,369.5 Z"/></g>
<g><path style="opacity:1" fill="#463c31" d="M 238.5,369.5 C 237.435,376.427 235.768,383.094 233.5,389.5C 234.251,382.497 235.917,375.83 238.5,369.5 Z"/></g>
<g><path style="opacity:1" fill="#463c31" d="M 357.5,369.5 C 359.26,373.547 360.26,377.88 360.5,382.5C 358.74,378.453 357.74,374.12 357.5,369.5 Z"/></g>
<g><path style="opacity:1" fill="#41392f" d="M 233.5,389.5 C 233.26,394.12 232.26,398.453 230.5,402.5C 230.74,397.88 231.74,393.547 233.5,389.5 Z"/></g>
<g><path style="opacity:1" fill="#41392f" d="M 362.5,391.5 C 364.246,395.889 365.246,400.556 365.5,405.5C 363.754,401.111 362.754,396.444 362.5,391.5 Z"/></g>
<g><path style="opacity:1" fill="#302826" d="M 353.5,485.5 C 358.718,507.133 353.718,525.966 338.5,542C 321.377,554.321 302.377,558.321 281.5,554C 278.348,553.605 275.348,552.772 272.5,551.5C 252.728,543.991 241.561,529.658 239,508.5C 235.396,487.203 243.229,472.037 262.5,463C 279.795,457.178 297.461,455.845 315.5,459C 321.661,460.053 327.661,461.72 333.5,464C 343.475,468.14 350.142,475.307 353.5,485.5 Z"/></g>
<g><path style="opacity:1" fill="#443b30" d="M 221.5,455.5 C 221.55,461.389 220.884,467.056 219.5,472.5C 219.45,466.611 220.116,460.944 221.5,455.5 Z"/></g>
<g><path style="opacity:1" fill="#41392f" d="M 219.5,472.5 C 219.477,478.712 218.81,484.712 217.5,490.5C 217.388,484.274 218.054,478.274 219.5,472.5 Z"/></g>
<g><path style="opacity:1" fill="#474343" d="M 353.5,485.5 C 354.496,485.414 355.329,485.748 356,486.5C 361.698,493.69 367.531,500.69 373.5,507.5C 373.559,513.906 372.893,520.239 371.5,526.5C 371.599,529.985 372.932,532.818 375.5,535C 370.89,551.278 360.89,562.944 345.5,570C 333.912,574.474 321.912,576.974 309.5,577.5C 304.125,577.828 298.792,577.495 293.5,576.5C 286.73,567.95 279.73,559.617 272.5,551.5C 275.348,552.772 278.348,553.605 281.5,554C 302.377,558.321 321.377,554.321 338.5,542C 353.718,525.966 358.718,507.133 353.5,485.5 Z"/></g>
</svg>
