<?xml version="1.0" encoding="UTF-8"?>
<!DOCTYPE svg PUBLIC "-//W3C//DTD SVG 1.1//EN" "http://www.w3.org/Graphics/SVG/1.1/DTD/svg11.dtd">
<svg xmlns="http://www.w3.org/2000/svg" version="1.1" width="600px" height="600px" style="shape-rendering:geometricPrecision; text-rendering:geometricPrecision; image-rendering:optimizeQuality; fill-rule:evenodd; clip-rule:evenodd" xmlns:xlink="http://www.w3.org/1999/xlink">
<g><path style="opacity:0.952" fill="#020202" d="M 149.5,-0.5 C 156.167,-0.5 162.833,-0.5 169.5,-0.5C 177.698,5.18717 185.198,11.8538 192,19.5C 200.905,29.6482 209.571,39.9816 218,50.5C 258.757,33.342 300.924,28.842 344.5,37C 359.709,39.7923 374.376,44.2923 388.5,50.5C 400.608,35.556 413.274,21.056 426.5,7C 430.233,4.47716 433.899,1.97716 437.5,-0.5C 443.833,-0.5 450.167,-0.5 456.5,-0.5C 460.762,1.9262 464.262,5.25954 467,9.5C 470.66,16.8131 473.327,24.4798 475,32.5C 480.014,64.3212 483.347,96.3212 485,128.5C 488.104,141.152 492.771,153.152 499,164.5C 514.948,186.458 529.282,209.458 542,233.5C 545.81,242.088 544.31,249.588 537.5,256C 545.843,282.541 553.01,309.374 559,336.5C 561.55,345.758 560.883,354.758 557,363.5C 555.5,365 554,366.5 552.5,368C 548.13,369.237 543.963,370.737 540,372.5C 529.028,438.983 497.195,492.816 444.5,534C 438.794,537.508 432.794,538.174 426.5,536C 423.966,534.066 421.299,532.732 418.5,532C 394.697,556.569 367.363,576.235 336.5,591C 328.166,594.153 319.833,596.986 311.5,599.5C 305.833,599.5 300.167,599.5 294.5,599.5C 253.424,584.709 217.591,561.709 187,530.5C 178.16,538.74 168.993,539.24 159.5,532C 107.233,490.659 76.2329,436.825 66.5,370.5C 51.917,370.577 45.2504,363.244 46.5,348.5C 46.9282,338.669 48.4282,329.003 51,319.5C 56.506,298.472 62.3393,277.472 68.5,256.5C 63.7504,251.853 61.9171,246.187 63,239.5C 65.5023,231.493 68.8356,223.826 73,216.5C 83.9411,199.228 95.2744,182.228 107,165.5C 114.219,153.726 119.219,141.059 122,127.5C 123.113,94.9278 126.446,62.5945 132,30.5C 133.734,17.6838 139.567,7.35042 149.5,-0.5 Z"/></g>
<g><path style="opacity:1" fill="#fae7ce" d="M 221.5,60.5 C 223.383,87.2264 212.05,106.06 187.5,117C 169.711,123.298 151.377,126.131 132.5,125.5C 133.948,97.4033 136.448,69.4033 140,41.5C 141.089,30.2259 144.922,20.0592 151.5,11C 157.676,7.51987 163.676,7.85321 169.5,12C 185.278,27.4387 199.944,43.772 213.5,61C 216.192,61.4298 218.859,61.2631 221.5,60.5 Z"/></g>
<g><path style="opacity:1" fill="#fae7ce" d="M 473.5,125.5 C 453.014,126.584 433.014,124.084 413.5,118C 397.451,111.089 388.285,98.922 386,81.5C 384.913,74.5402 384.413,67.5402 384.5,60.5C 387.113,61.4349 389.779,61.6015 392.5,61C 406.463,44.7019 420.796,28.7019 435.5,13C 447.09,5.02757 455.59,7.52757 461,20.5C 463.427,26.6324 465.093,32.9658 466,39.5C 470.153,68.0264 472.653,96.6931 473.5,125.5 Z"/></g>
<g><path style="opacity:1" fill="#f5f5f5" d="M 288.5,43.5 C 318.347,41.9305 347.347,46.0972 375.5,56C 377.33,64.5811 378.497,73.4144 379,82.5C 383.309,107.475 397.809,122.641 422.5,128C 429.422,129.543 436.422,130.543 443.5,131C 454.182,131.168 464.849,131.668 475.5,132.5C 478.106,142.817 481.606,152.817 486,162.5C 501.061,185.232 515.728,208.232 530,231.5C 530.725,233.949 531.725,236.283 533,238.5C 535.06,245.275 532.56,248.275 525.5,247.5C 525.338,249.527 525.505,251.527 526,253.5C 536.977,284.742 544.811,316.742 549.5,349.5C 549.318,352.226 548.818,354.893 548,357.5C 546.527,359.007 544.693,359.674 542.5,359.5C 538.795,358.537 535.128,358.537 531.5,359.5C 523.52,420.63 497.187,472.13 452.5,514C 447.833,517.667 443.167,521.333 438.5,525C 435.97,526.422 433.303,526.755 430.5,526C 427.517,523.086 424.517,520.086 421.5,517C 420.167,516.333 418.833,516.333 417.5,517C 391.622,545.873 360.956,568.206 325.5,584C 318.04,586.766 310.374,588.599 302.5,589.5C 296.965,589.283 291.631,588.116 286.5,586C 249.144,569.641 216.477,546.641 188.5,517C 187.5,516.333 186.5,516.333 185.5,517C 182.1,521.583 177.767,524.75 172.5,526.5C 170.39,525.946 168.39,525.112 166.5,524C 122.524,489.581 94.0244,445.081 81,390.5C 78.8707,380.187 76.8707,369.853 75,359.5C 69.9189,359.164 64.7522,358.998 59.5,359C 58.8742,358.25 58.3742,357.416 58,356.5C 57.1176,345.339 58.1176,334.339 61,323.5C 66.5173,298.783 73.3506,274.45 81.5,250.5C 81.3918,249.558 81.0585,248.725 80.5,248C 74.5333,248.701 72.0333,246.201 73,240.5C 76.8861,231.06 81.5528,222.06 87,213.5C 97.6667,197.5 108.333,181.5 119,165.5C 124.648,155.057 128.814,144.057 131.5,132.5C 150.174,132.367 168.508,129.867 186.5,125C 216.858,112.489 231.192,89.6555 229.5,56.5C 248.712,49.4602 268.379,45.1269 288.5,43.5 Z"/></g>
<g><path style="opacity:1" fill="#eceae8" d="M 221.5,60.5 C 225.462,86.6765 214.796,105.843 189.5,118C 170.934,124.985 151.934,127.485 132.5,125.5C 151.377,126.131 169.711,123.298 187.5,117C 212.05,106.06 223.383,87.2264 221.5,60.5 Z"/></g>
<g><path style="opacity:1" fill="#f0eeed" d="M 440.5,35.5 C 442.144,35.2865 443.644,35.6198 445,36.5C 446.743,39.9567 447.743,43.6233 448,47.5C 448.856,64.5293 448.523,81.5293 447,98.5C 446.333,100.5 445.667,102.5 445,104.5C 443.132,105.672 441.298,105.505 439.5,104C 429.027,94.7089 420.694,83.8755 414.5,71.5C 420.738,57.6673 429.405,45.6673 440.5,35.5 Z"/></g>
<g><path style="opacity:1" fill="#050505" d="M 440.5,37.5 C 442.911,37.1367 444.411,38.1367 445,40.5C 447.417,56.4115 448.083,72.4115 447,88.5C 446.909,94.197 445.576,99.5303 443,104.5C 431.598,95.1049 422.432,83.9382 415.5,71C 422.503,58.8212 430.836,47.6545 440.5,37.5 Z"/></g>
<g><path style="opacity:1" fill="#f9f9f9" d="M 439.5,45.5 C 441.14,48.4878 441.974,51.8211 442,55.5C 442.971,68.9052 442.471,82.2385 440.5,95.5C 433.085,88.168 426.751,80.0014 421.5,71C 426.643,61.874 432.643,53.374 439.5,45.5 Z"/></g>
<g><path style="opacity:1" fill="#f0eeec" d="M 162.5,35.5 C 164.308,35.4914 165.975,35.9914 167.5,37C 177.996,46.9867 186.33,58.4867 192.5,71.5C 185.938,84.5694 176.938,95.736 165.5,105C 164.207,105.49 162.873,105.657 161.5,105.5C 157.264,85.6999 156.431,65.6999 159,45.5C 159.679,41.9609 160.846,38.6276 162.5,35.5 Z"/></g>
<g><path style="opacity:1" fill="#040404" d="M 162.5,37.5 C 167.576,39.0528 171.743,42.0528 175,46.5C 181.184,54.2008 186.351,62.5341 190.5,71.5C 187.689,78.1459 183.856,84.1459 179,89.5C 174,94.5 169,99.5 164,104.5C 161.433,100.24 160.1,95.5729 160,90.5C 158.742,72.6936 159.575,55.0269 162.5,37.5 Z"/></g>
<g><path style="opacity:1" fill="#f9f9f9" d="M 165.5,45.5 C 167.716,46.2026 169.549,47.5359 171,49.5C 176.423,56.4269 181.256,63.7603 185.5,71.5C 179.947,80.2248 173.447,88.2248 166,95.5C 164.185,78.855 164.018,62.1884 165.5,45.5 Z"/></g>
<g><path style="opacity:1" fill="#eceae8" d="M 384.5,60.5 C 384.413,67.5402 384.913,74.5402 386,81.5C 388.285,98.922 397.451,111.089 413.5,118C 433.014,124.084 453.014,126.584 473.5,125.5C 454.375,127.591 435.375,126.091 416.5,121C 400.569,116.069 390.402,105.569 386,89.5C 383.291,79.6232 382.457,69.6232 383.5,59.5C 384.107,59.6236 384.44,59.9569 384.5,60.5 Z"/></g>
<g><path style="opacity:1" fill="#38302c" d="M 242.5,180.5 C 262.782,183.4 270.282,194.733 265,214.5C 256.408,227.804 244.908,230.971 230.5,224C 219.056,213.46 217.556,201.627 226,188.5C 230.623,183.804 236.123,181.138 242.5,180.5 Z"/></g>
<g><path style="opacity:1" fill="#38302c" d="M 359.5,180.5 C 372.715,180.182 381.548,186.182 386,198.5C 386.97,219.197 377.136,228.697 356.5,227C 343.647,221.799 338.147,212.299 340,198.5C 343.519,189.143 350.019,183.143 359.5,180.5 Z"/></g>
<g><path style="opacity:1" fill="#efeeee" d="M 248.5,192.5 C 253.835,192.005 256.335,194.338 256,199.5C 251.271,204.091 248.104,203.258 246.5,197C 246.519,195.167 247.185,193.667 248.5,192.5 Z"/></g>
<g><path style="opacity:1" fill="#ededed" d="M 369.5,192.5 C 374.835,192.005 377.335,194.338 377,199.5C 374.294,202.978 371.294,203.311 368,200.5C 367.109,197.502 367.609,194.836 369.5,192.5 Z"/></g>
<g><path style="opacity:1" fill="#38302c" d="M 281.5,303.5 C 280.167,301.5 278.5,299.833 276.5,298.5C 268.685,289.89 266.519,279.89 270,268.5C 273.065,261.773 278.231,257.606 285.5,256C 296.404,253.007 307.404,252.674 318.5,255C 333.312,258.812 339.812,268.312 338,283.5C 333.431,301.225 321.931,310.225 303.5,310.5C 295.166,310.924 287.833,308.591 281.5,303.5 Z"/></g>
<g><path style="opacity:1" fill="#3d3531" d="M 264.5,323.5 C 266.261,336.187 271.594,347.02 280.5,356C 282.86,357.18 285.193,358.347 287.5,359.5C 290.833,363.167 294.167,366.833 297.5,370.5C 282.088,370.544 269.588,364.544 260,352.5C 254.265,344.069 247.932,336.069 241,328.5C 231.792,314.363 225.292,299.03 221.5,282.5C 223.162,278.536 224.995,278.536 227,282.5C 229.694,293.22 234.027,303.22 240,312.5C 246.407,320.348 254.573,324.015 264.5,323.5 Z"/></g>
<g><path style="opacity:1" fill="#372f2b" d="M 297.5,370.5 C 294.167,366.833 290.833,363.167 287.5,359.5C 319.099,367.392 337.099,355.392 341.5,323.5C 350.583,323.75 358.416,320.75 365,314.5C 371.94,303.953 377.273,292.62 381,280.5C 382.011,279.663 383.178,279.33 384.5,279.5C 382.972,296.293 377.472,311.626 368,325.5C 359.33,337.52 349.83,349.02 339.5,360C 330.842,367.001 320.842,370.667 309.5,371C 305.311,371.812 301.311,371.645 297.5,370.5 Z"/></g>
<g><path style="opacity:1" fill="#908d8c" d="M 276.5,298.5 C 278.5,299.833 280.167,301.5 281.5,303.5C 278.833,302.833 277.167,301.167 276.5,298.5 Z"/></g>
<g><path style="opacity:1" fill="#bd839f" d="M 341.5,323.5 C 337.099,355.392 319.099,367.392 287.5,359.5C 285.193,358.347 282.86,357.18 280.5,356C 271.594,347.02 266.261,336.187 264.5,323.5C 277.642,322.476 290.642,320.476 303.5,317.5C 316.039,320.368 328.706,322.368 341.5,323.5 Z"/></g>
</svg>
