<?xml version="1.0" encoding="UTF-8"?>
<!DOCTYPE svg PUBLIC "-//W3C//DTD SVG 1.1//EN" "http://www.w3.org/Graphics/SVG/1.1/DTD/svg11.dtd">
<svg xmlns="http://www.w3.org/2000/svg" version="1.1" width="600px" height="600px" style="shape-rendering:geometricPrecision; text-rendering:geometricPrecision; image-rendering:optimizeQuality; fill-rule:evenodd; clip-rule:evenodd" xmlns:xlink="http://www.w3.org/1999/xlink">
<g><path style="opacity:0.948" fill="#000000" d="M 173.5,-0.5 C 182.167,-0.5 190.833,-0.5 199.5,-0.5C 205.889,7.06123 211.722,15.0612 217,23.5C 231.425,48.0247 247.092,71.6913 264,94.5C 287.667,91.8333 311.333,91.8333 335,94.5C 354.572,68.25 372.572,40.9167 389,12.5C 392.508,8.13612 396.008,3.80278 399.5,-0.5C 408.167,-0.5 416.833,-0.5 425.5,-0.5C 432.238,7.29273 437.738,15.9594 442,25.5C 446.556,35.9474 450.556,46.6141 454,57.5C 475.256,129.521 492.256,202.521 505,276.5C 511.057,318.682 515.724,361.016 519,403.5C 523.791,443.442 513.791,479.109 489,510.5C 452.865,553.824 407.698,583.491 353.5,599.5C 318.833,599.5 284.167,599.5 249.5,599.5C 195.259,584.07 149.759,555.07 113,512.5C 84.2209,476.72 73.8876,436.053 82,390.5C 90.1718,300.791 103.172,211.791 121,123.5C 125.621,100.013 131.955,77.0135 140,54.5C 148.152,34.1711 159.319,15.8377 173.5,-0.5 Z"/></g>
<g><path style="opacity:1" fill="#46464b" d="M 184.5,4.5 C 186.199,4.33982 187.866,4.50649 189.5,5C 192,7.5 194.5,10 197,12.5C 209.25,31.3312 221.25,50.3312 233,69.5C 240.432,81.3631 248.598,92.6964 257.5,103.5C 285.492,103.549 313.492,103.549 341.5,103.5C 362.434,75.7203 381.601,46.7203 399,16.5C 402.131,12.3672 405.631,8.53382 409.5,5C 415.563,4.4523 420.063,6.9523 423,12.5C 431.887,27.2786 438.887,42.9453 444,59.5C 460.702,117.977 475.369,176.977 488,236.5C 496.884,291.904 503.55,347.57 508,403.5C 512.296,431.011 507.962,457.011 495,481.5C 479.065,509.104 457.899,531.938 431.5,550C 348.203,608.475 263.537,610.475 177.5,556C 144.365,535.533 118.865,508.033 101,473.5C 93.5836,457.837 90.0836,441.337 90.5,424C 96.382,337.209 107.215,251.042 123,165.5C 128.817,132.386 136.484,99.7197 146,67.5C 153.079,48.003 162.745,30.003 175,13.5C 178.062,10.2678 181.229,7.26781 184.5,4.5 Z"/></g>
<g><path style="opacity:1" fill="#5d5d5f" d="M 183.5,33.5 C 186.325,33.0807 188.491,34.0807 190,36.5C 204.361,59.3887 216.194,83.5554 225.5,109C 224.666,111.848 223,114.182 220.5,116C 201.728,126.775 184.061,139.109 167.5,153C 165.655,154.128 163.655,154.628 161.5,154.5C 159.943,116.17 165.443,78.8371 178,42.5C 179.662,39.3507 181.495,36.3507 183.5,33.5 Z"/></g>
<g><path style="opacity:1" fill="#5d5d5f" d="M 411.5,33.5 C 413.722,33.178 415.556,33.8446 417,35.5C 419.254,39.0066 421.254,42.6733 423,46.5C 433.975,81.3234 438.975,116.99 438,153.5C 435.79,154.749 433.624,154.582 431.5,153C 424.833,147.667 418.167,142.333 411.5,137C 398.902,129.453 386.736,121.286 375,112.5C 374.333,109.833 374.333,107.167 375,104.5C 384.566,79.3657 396.732,55.699 411.5,33.5 Z"/></g>
<g><path style="opacity:1" fill="#5e5d5f" d="M 346.5,470.5 C 333.109,475.437 319.276,478.104 305,478.5C 293.455,478.279 281.955,477.445 270.5,476C 264.194,475.064 258.194,473.23 252.5,470.5C 245.534,464.917 241.367,457.584 240,448.5C 232.281,410.237 224.947,371.904 218,333.5C 215.602,320.104 208.769,309.604 197.5,302C 184.014,296.966 170.681,291.633 157.5,286C 148.519,279.086 146.019,270.252 150,259.5C 156.636,246.195 166.136,235.361 178.5,227C 205.479,208.217 234.812,202.884 266.5,211C 274.737,213.531 281.237,218.365 286,225.5C 290.121,233.864 293.455,242.531 296,251.5C 299.539,254.488 302.205,253.821 304,249.5C 306.456,239.453 310.456,230.12 316,221.5C 325.24,213.301 336.073,208.467 348.5,207C 386.861,205.435 418.361,219.268 443,248.5C 457.695,273.611 450.528,288.111 421.5,292C 414.536,295.661 407.536,299.327 400.5,303C 394.622,307.21 389.789,312.377 386,318.5C 382.07,327.291 378.737,336.291 376,345.5C 374.949,354.469 374.282,363.469 374,372.5C 369.056,396.768 364.39,421.101 360,445.5C 357.951,451.932 355.618,458.266 353,464.5C 350.963,466.706 348.797,468.706 346.5,470.5 Z"/></g>
<g><path style="opacity:1" fill="#bb9d8a" d="M 220.5,232.5 C 244.34,232.172 255.84,243.839 255,267.5C 249.222,284.603 237.389,291.77 219.5,289C 200.809,281.271 194.642,267.771 201,248.5C 205.518,240.67 212.018,235.336 220.5,232.5 Z"/></g>
<g><path style="opacity:1" fill="#bc9e8a" d="M 366.5,232.5 C 390.668,232.499 401.835,244.499 400,268.5C 393.902,284.973 382.069,291.806 364.5,289C 349.148,283.143 342.315,271.976 344,255.5C 347.684,243.984 355.184,236.317 366.5,232.5 Z"/></g>
<g><path style="opacity:1" fill="#020303" d="M 222.5,241.5 C 241.296,241.794 248.796,251.127 245,269.5C 241.17,276.649 235.17,280.649 227,281.5C 209.635,277.78 203.968,267.446 210,250.5C 213.299,246.118 217.466,243.118 222.5,241.5 Z"/></g>
<g><path style="opacity:1" fill="#040404" d="M 368.5,241.5 C 382.187,241.159 390.187,247.659 392.5,261C 391.06,272.939 384.394,279.773 372.5,281.5C 360.191,279.885 353.524,272.885 352.5,260.5C 353.568,250.442 358.902,244.108 368.5,241.5 Z"/></g>
<g><path style="opacity:1" fill="#ededed" d="M 230.5,249.5 C 237.12,248.954 240.286,251.954 240,258.5C 236.178,264.746 231.845,265.079 227,259.5C 225.755,255.235 226.922,251.902 230.5,249.5 Z"/></g>
<g><path style="opacity:1" fill="#efefef" d="M 376.5,249.5 C 384.546,249.363 387.38,253.029 385,260.5C 380.568,264.743 376.568,264.41 373,259.5C 371.756,255.191 372.923,251.858 376.5,249.5 Z"/></g>
<g><path style="opacity:1" fill="#010202" d="M 286.5,386.5 C 297.216,386.156 307.882,386.656 318.5,388C 342.711,394.637 348.544,408.804 336,430.5C 313.855,453.091 290.688,454.257 266.5,434C 264.212,431.257 262.045,428.423 260,425.5C 259.667,425.833 259.333,426.167 259,426.5C 253.227,414.803 254.561,404.136 263,394.5C 263.333,394.833 263.667,395.167 264,395.5C 270.85,390.611 278.35,387.611 286.5,386.5 Z"/></g>
<g><path style="opacity:1" fill="#f09aac" d="M 252.5,470.5 C 258.194,473.23 264.194,475.064 270.5,476C 281.955,477.445 293.455,478.279 305,478.5C 319.276,478.104 333.109,475.437 346.5,470.5C 345.25,485.412 341.083,499.412 334,512.5C 325.213,524.275 313.38,529.608 298.5,528.5C 276.255,528.122 262.421,517.122 257,495.5C 254.852,487.276 253.352,478.943 252.5,470.5 Z"/></g>
</svg>
