<?xml version="1.0" encoding="UTF-8"?>
<!DOCTYPE svg PUBLIC "-//W3C//DTD SVG 1.1//EN" "http://www.w3.org/Graphics/SVG/1.1/DTD/svg11.dtd">
<svg xmlns="http://www.w3.org/2000/svg" version="1.1" width="600px" height="600px" style="shape-rendering:geometricPrecision; text-rendering:geometricPrecision; image-rendering:optimizeQuality; fill-rule:evenodd; clip-rule:evenodd" xmlns:xlink="http://www.w3.org/1999/xlink">
<g><path style="opacity:0.964" fill="#020101" d="M 341.5,22.5 C 351.709,25.2294 355.543,31.8961 353,42.5C 352.38,46.8884 351.547,51.2217 350.5,55.5C 351,55.8333 351.5,56.1667 352,56.5C 361.413,54.5147 370.913,53.0147 380.5,52C 386.216,45.9745 393.216,42.3078 401.5,41C 407.527,40.5733 413.527,39.9066 419.5,39C 426.299,35.1906 433.299,31.8573 440.5,29C 451.3,27.149 456.3,31.4823 455.5,42C 459.297,44.7039 461.63,48.3706 462.5,53C 486.418,58.1448 509.751,65.1448 532.5,74C 565.558,88.2742 582.558,113.441 583.5,149.5C 582.208,172.338 582.208,195.171 583.5,218C 584.473,248.316 575.973,275.482 558,299.5C 549.904,308.631 539.738,313.631 527.5,314.5C 527.119,319.237 526.286,323.904 525,328.5C 522.819,331.344 520.653,334.178 518.5,337C 521.012,342.214 522.345,347.714 522.5,353.5C 521.628,362.692 519.795,371.692 517,380.5C 515.437,383.728 512.937,385.895 509.5,387C 506.05,387.175 502.717,387.342 499.5,387.5C 503.251,398.653 507.251,409.653 511.5,420.5C 502.189,454.319 482.189,479.819 451.5,497C 450.167,497.333 448.833,497.667 447.5,498C 443.203,507.252 437.203,515.252 429.5,522C 416.667,532.581 403,541.914 388.5,550C 383.419,552.023 378.585,551.523 374,548.5C 371.006,556.303 366.172,562.803 359.5,568C 346.211,576.477 331.878,582.477 316.5,586C 310.711,587.017 305.378,585.85 300.5,582.5C 294.295,586.648 287.628,587.481 280.5,585C 266.26,580.924 252.926,574.924 240.5,567C 234.84,561.674 230.34,555.508 227,548.5C 222.415,551.523 217.581,552.023 212.5,550C 190.544,538.953 172.044,523.787 157,504.5C 156.069,502.541 155.236,500.541 154.5,498.5C 124.053,484.219 103.22,461.219 92,429.5C 90.6071,424.905 90.2738,420.239 91,415.5C 95.5835,406.251 99.0835,396.585 101.5,386.5C 93.6707,388.949 87.8373,386.616 84,379.5C 81.5259,370.796 79.6926,361.963 78.5,353C 78.9585,346.96 80.6252,341.293 83.5,336C 81.04,334.542 78.8734,332.709 77,330.5C 75.0382,325.344 74.2049,320.011 74.5,314.5C 60.7749,314.43 49.6083,309.096 41,298.5C 23.3172,273.628 15.1505,245.794 16.5,215C 17.5445,189.832 17.7111,164.665 17,139.5C 21.4632,107.088 38.9632,84.9213 69.5,73C 91.6709,64.7216 114.338,58.0549 137.5,53C 138.589,48.6539 140.589,44.8205 143.5,41.5C 142.54,35.2474 145.207,31.0808 151.5,29C 156.363,28.1915 161.03,28.8582 165.5,31C 170.341,33.9212 175.341,36.5879 180.5,39C 195.294,38.2743 208.294,42.6077 219.5,52C 229.913,53.0693 240.247,54.5693 250.5,56.5C 248.747,49.678 250.08,43.5113 254.5,38C 258.976,35.123 263.643,34.7896 268.5,37C 272.331,40.4666 275.831,44.2999 279,48.5C 279.046,42.6375 280.046,36.9709 282,31.5C 290.178,24.5194 297.844,25.186 305,33.5C 309.508,40.5132 313.508,47.8465 317,55.5C 321.517,45.632 326.684,36.132 332.5,27C 335.324,24.9212 338.324,23.4212 341.5,22.5 Z"/></g>
<g><path style="opacity:1" fill="#7b6152" d="M 505.5,324.5 C 483.823,299.126 462.157,273.793 440.5,248.5C 440.579,245.729 440.079,243.063 439,240.5C 416.46,209.725 386.127,192.391 348,188.5C 334.102,188.085 325.935,194.585 323.5,208C 323.74,213.482 326.074,217.815 330.5,221C 342.603,221.866 354.603,223.366 366.5,225.5C 349.231,236.254 345.731,250.587 356,268.5C 362.493,275.833 370.66,279.167 380.5,278.5C 395.833,297.167 411.167,315.833 426.5,334.5C 404.235,322.969 380.901,314.635 356.5,309.5C 330.512,278.181 304.179,247.181 277.5,216.5C 280.355,205.184 276.355,197.35 265.5,193C 260.877,191.079 256.044,190.245 251,190.5C 213.468,193.762 183.134,210.095 160,239.5C 157.348,247.656 160.181,251.656 168.5,251.5C 185.455,272.293 202.622,292.96 220,313.5C 220.671,314.252 221.504,314.586 222.5,314.5C 201.681,320.906 182.014,330.073 163.5,342C 134.662,362.798 123.162,390.965 129,426.5C 131.949,446.133 138.783,464.3 149.5,481C 151.167,481.667 152.833,481.667 154.5,481C 156.976,477.855 159.31,474.688 161.5,471.5C 160.302,476.238 158.802,480.905 157,485.5C 156.311,486.357 155.478,487.023 154.5,487.5C 128.43,473.011 110.596,451.678 101,423.5C 100.333,421.5 100.333,419.5 101,417.5C 108.692,400.753 114.192,383.253 117.5,365C 117.713,362.544 116.713,361.544 114.5,362C 108.602,367.734 102.269,372.901 95.5,377.5C 94.914,377.291 94.414,376.957 94,376.5C 90.8409,366.714 89.5076,356.714 90,346.5C 93.226,337.945 98.0594,330.445 104.5,324C 103.737,323.056 102.737,322.556 101.5,322.5C 96.9114,324.314 92.2448,325.481 87.5,326C 84.9123,322.239 84.079,318.073 85,313.5C 93.5733,296.995 102.573,280.995 112,265.5C 106.382,270.219 100.215,273.719 93.5,276C 94.4803,263.905 97.3136,252.071 102,240.5C 110.81,230.869 119.143,220.869 127,210.5C 150.016,175.798 174.016,141.798 199,108.5C 202.201,104.964 205.701,101.797 209.5,99C 220.609,99.6015 230.443,96.4348 239,89.5C 239.667,86.5 239.667,83.5 239,80.5C 236.555,79.0229 234.388,77.1896 232.5,75C 234.313,75.0464 235.979,74.8797 237.5,74.5C 231.929,71.5542 226.929,67.8875 222.5,63.5C 223.333,63.1667 224.167,62.8333 225,62.5C 231.749,64.1526 238.582,65.3192 245.5,66C 250.116,68.2823 253.783,71.6156 256.5,76C 257.833,76.6667 259.167,76.6667 260.5,76C 262.027,73.2426 262.693,70.2426 262.5,67C 262.094,61.6347 261.427,56.3013 260.5,51C 260.69,44.3921 262.856,43.8921 267,49.5C 273.544,59.4171 279.71,69.5838 285.5,80C 286.833,80.6667 288.167,80.6667 289.5,80C 290.49,65.5785 290.824,51.0785 290.5,36.5C 291.552,36.3505 292.552,36.5172 293.5,37C 296.361,39.894 298.861,43.0607 301,46.5C 306.271,57.4921 311.437,68.4921 316.5,79.5C 323.828,66.1775 330.661,52.5109 337,38.5C 338.191,35.4659 340.358,33.7993 343.5,33.5C 341.943,45.1775 340.276,56.8442 338.5,68.5C 338.453,71.2948 338.953,73.9615 340,76.5C 340.837,78.0074 342.004,78.5074 343.5,78C 346.167,72.6667 350.167,68.6667 355.5,66C 362.222,65.0871 368.888,63.9205 375.5,62.5C 376.5,62.8333 377.5,63.1667 378.5,63.5C 374.565,67.9302 369.898,71.4302 364.5,74C 365.167,74.3333 365.833,74.6667 366.5,75C 356.393,83.2514 357.393,89.9181 369.5,95C 376.396,96.749 383.396,97.9157 390.5,98.5C 393.791,101.289 396.958,104.289 400,107.5C 408.667,118.833 417.333,130.167 426,141.5C 442.276,166.108 458.943,190.441 476,214.5C 482.858,223.538 490.192,232.204 498,240.5C 502.453,252.3 505.286,264.3 506.5,276.5C 500.653,273.746 495.32,270.246 490.5,266C 489.833,265.333 489.167,265.333 488.5,266C 498.801,280.758 507.967,296.258 516,312.5C 516.867,316.956 516.534,321.289 515,325.5C 511.726,326.683 508.559,326.35 505.5,324.5 Z"/></g>
<g><path style="opacity:1" fill="#5a443a" d="M 160.5,44.5 C 160.56,43.9569 160.893,43.6236 161.5,43.5C 172.527,51.564 184.86,55.064 198.5,54C 200.087,54.8624 201.754,55.5291 203.5,56C 213.95,65.7913 224.283,75.458 234.5,85C 231.677,88.5827 228.01,90.9161 223.5,92C 217.804,92.1701 212.138,92.6701 206.5,93.5C 200.51,98.6571 195.01,104.324 190,110.5C 167.174,142.151 144.841,174.151 123,206.5C 115.143,216.869 106.81,226.869 98,236.5C 93.035,250.375 88.7016,264.375 85,278.5C 84.1095,285.198 83.1095,291.865 82,298.5C 70.5653,303.488 60.5653,301.154 52,291.5C 35.5314,268.985 28.0314,243.652 29.5,215.5C 30.6238,189.496 30.7904,163.496 30,137.5C 33.7786,117.057 44.6119,101.557 62.5,91C 76.2214,83.7601 90.5548,78.0934 105.5,74C 121.505,69.9988 137.505,65.9988 153.5,62C 154.574,61.2613 155.241,60.2613 155.5,59C 154.561,57.0561 153.227,55.3894 151.5,54C 155.578,54.3528 159.578,55.3528 163.5,57C 169.12,58.3855 170.62,56.5522 168,51.5C 165.63,48.9614 163.13,46.6281 160.5,44.5 Z"/></g>
<g><path style="opacity:1" fill="#5a443a" d="M 437.5,43.5 C 438.239,43.369 438.906,43.5357 439.5,44C 425.209,57.3147 427.376,60.4813 446,53.5C 446.5,53.8333 447,54.1667 447.5,54.5C 446.289,55.8745 445.289,57.3745 444.5,59C 444.759,60.2613 445.426,61.2613 446.5,62C 473.385,67.907 499.718,75.5737 525.5,85C 553.651,96.5029 568.651,117.336 570.5,147.5C 569.733,177.159 569.233,206.826 569,236.5C 567.635,258.386 559.801,277.553 545.5,294C 538.262,300.117 529.929,302.45 520.5,301C 519.667,300.167 518.833,299.333 518,298.5C 516.012,291.647 515.179,284.647 515.5,277.5C 514.5,277.5 513.5,277.5 512.5,277.5C 510.725,263.402 507.225,249.735 502,236.5C 494.192,228.204 486.858,219.538 480,210.5C 457.159,176.817 433.826,143.484 410,110.5C 404.99,104.324 399.49,98.6571 393.5,93.5C 387.862,92.6701 382.196,92.1701 376.5,92C 371.876,90.6895 367.876,88.3562 364.5,85C 375.105,76.398 385.105,67.0646 394.5,57C 396.717,55.7246 399.051,54.7246 401.5,54C 414.875,54.8153 426.875,51.3153 437.5,43.5 Z"/></g>
<g><path style="opacity:1" fill="#947b66" d="M 440.5,248.5 C 439.438,253.369 436.438,255.202 431.5,254C 421.436,247.636 411.103,241.803 400.5,236.5C 389.57,231.635 378.237,227.968 366.5,225.5C 354.603,223.366 342.603,221.866 330.5,221C 326.074,217.815 323.74,213.482 323.5,208C 325.935,194.585 334.102,188.085 348,188.5C 386.127,192.391 416.46,209.725 439,240.5C 440.079,243.063 440.579,245.729 440.5,248.5 Z"/></g>
<g><path style="opacity:1" fill="#947b66" d="M 277.5,216.5 C 276.079,219.758 273.746,222.258 270.5,224C 257.642,224.273 244.975,225.106 232.5,226.5C 221.745,228.376 211.412,231.376 201.5,235.5C 189.799,239.518 178.799,244.851 168.5,251.5C 160.181,251.656 157.348,247.656 160,239.5C 183.134,210.095 213.468,193.762 251,190.5C 256.044,190.245 260.877,191.079 265.5,193C 276.355,197.35 280.355,205.184 277.5,216.5 Z"/></g>
<g><path style="opacity:1" fill="#786051" d="M 277.5,216.5 C 304.179,247.181 330.512,278.181 356.5,309.5C 311.417,301.457 266.751,303.123 222.5,314.5C 221.504,314.586 220.671,314.252 220,313.5C 202.622,292.96 185.455,272.293 168.5,251.5C 178.799,244.851 189.799,239.518 201.5,235.5C 195.253,245.587 195.086,255.92 201,266.5C 211.76,279.469 224.593,281.969 239.5,274C 250.011,265.448 253.511,254.615 250,241.5C 246.711,233.367 240.878,228.367 232.5,226.5C 244.975,225.106 257.642,224.273 270.5,224C 273.746,222.258 276.079,219.758 277.5,216.5 Z"/></g>
<g><path style="opacity:1" fill="#302725" d="M 366.5,225.5 C 378.237,227.968 389.57,231.635 400.5,236.5C 406.991,249.401 405.324,261.235 395.5,272C 390.951,275.237 385.951,277.404 380.5,278.5C 370.66,279.167 362.493,275.833 356,268.5C 345.731,250.587 349.231,236.254 366.5,225.5 Z"/></g>
<g><path style="opacity:1" fill="#312725" d="M 232.5,226.5 C 240.878,228.367 246.711,233.367 250,241.5C 253.511,254.615 250.011,265.448 239.5,274C 224.593,281.969 211.76,279.469 201,266.5C 195.086,255.92 195.253,245.587 201.5,235.5C 211.412,231.376 221.745,228.376 232.5,226.5 Z"/></g>
<g><path style="opacity:1" fill="#efefef" d="M 226.5,234.5 C 234.812,234.311 238.312,238.311 237,246.5C 234.459,251.069 230.625,252.569 225.5,251C 218.55,244.914 218.883,239.414 226.5,234.5 Z"/></g>
<g><path style="opacity:1" fill="#eeeeee" d="M 379.5,234.5 C 387.935,234.101 391.768,238.101 391,246.5C 388.413,251.068 384.579,252.568 379.5,251C 374.931,248.459 373.431,244.625 375,239.5C 376.366,237.638 377.866,235.972 379.5,234.5 Z"/></g>
<g><path style="opacity:1" fill="#795f51" d="M 400.5,236.5 C 411.103,241.803 421.436,247.636 431.5,254C 436.438,255.202 439.438,253.369 440.5,248.5C 462.157,273.793 483.823,299.126 505.5,324.5C 502.888,323.629 500.221,322.963 497.5,322.5C 499.798,327.073 502.632,331.406 506,335.5C 509.301,340.763 511.468,346.43 512.5,352.5C 511.537,359.948 510.037,367.282 508,374.5C 507.632,375.91 506.799,376.91 505.5,377.5C 499.098,373.604 493.432,368.771 488.5,363C 485.623,360.714 484.289,361.547 484.5,365.5C 487.162,383.315 492.329,400.315 500,416.5C 500.667,419.5 500.667,422.5 500,425.5C 489.818,452.843 471.984,473.51 446.5,487.5C 445.914,487.291 445.414,486.957 445,486.5C 442.859,481.244 441.026,475.91 439.5,470.5C 441.782,474.201 444.449,477.701 447.5,481C 448.833,481.667 450.167,481.667 451.5,481C 472.127,450.211 477.96,416.711 469,380.5C 463.907,367.732 456.073,356.898 445.5,348C 439.451,342.987 433.118,338.487 426.5,334.5C 411.167,315.833 395.833,297.167 380.5,278.5C 385.951,277.404 390.951,275.237 395.5,272C 405.324,261.235 406.991,249.401 400.5,236.5 Z"/></g>
<g><path style="opacity:1" fill="#947b66" d="M 356.5,309.5 C 380.901,314.635 404.235,322.969 426.5,334.5C 433.118,338.487 439.451,342.987 445.5,348C 456.073,356.898 463.907,367.732 469,380.5C 477.96,416.711 472.127,450.211 451.5,481C 450.167,481.667 448.833,481.667 447.5,481C 444.449,477.701 441.782,474.201 439.5,470.5C 438.518,469.859 437.518,469.193 436.5,468.5C 436.167,469 435.833,469.5 435.5,470C 437.384,478.409 437.884,486.909 437,495.5C 435.587,498.661 433.92,501.661 432,504.5C 418.389,518.88 402.889,530.713 385.5,540C 383.231,540.758 381.064,540.591 379,539.5C 376.4,533.751 374.733,527.751 374,521.5C 372.333,522.833 370.667,524.167 369,525.5C 368.344,540.989 361.844,553.156 349.5,562C 337.339,569.258 324.339,573.925 310.5,576C 309.584,575.626 308.75,575.126 308,574.5C 305.658,564.615 303.825,554.615 302.5,544.5C 301.178,544.33 300.011,544.663 299,545.5C 297.673,552.112 296.673,558.778 296,565.5C 295.152,568.56 294.152,571.56 293,574.5C 292.25,575.126 291.416,575.626 290.5,576C 284.652,575.724 278.986,574.39 273.5,572C 265.045,568.273 256.712,564.273 248.5,560C 238.61,550.716 233.11,539.216 232,525.5C 230.649,523.981 229.149,522.648 227.5,521.5C 226.064,527.176 224.564,532.843 223,538.5C 220.847,540.444 218.347,540.944 215.5,540C 199.251,530.756 184.417,519.589 171,506.5C 167.889,502.613 165.556,498.28 164,493.5C 163.422,485.939 163.922,478.439 165.5,471C 165.167,470.167 164.833,469.333 164.5,468.5C 163.265,469.34 162.265,470.34 161.5,471.5C 159.31,474.688 156.976,477.855 154.5,481C 152.833,481.667 151.167,481.667 149.5,481C 138.783,464.3 131.949,446.133 129,426.5C 123.162,390.965 134.662,362.798 163.5,342C 182.014,330.073 201.681,320.906 222.5,314.5C 266.751,303.123 311.417,301.457 356.5,309.5 Z"/></g>
<g><path style="opacity:1" fill="#302826" d="M 285.5,336.5 C 297.869,336.216 310.202,336.716 322.5,338C 335.601,339.463 345.101,345.963 351,357.5C 354.482,374.379 348.982,387.546 334.5,397C 308.602,413.477 283.935,411.81 260.5,392C 247.334,379.804 245.167,365.971 254,350.5C 256.894,347.639 260.061,345.139 263.5,343C 270.735,340.129 278.069,337.963 285.5,336.5 Z"/></g>
</svg>
