<?xml version="1.0" encoding="UTF-8"?>
<!DOCTYPE svg PUBLIC "-//W3C//DTD SVG 1.1//EN" "http://www.w3.org/Graphics/SVG/1.1/DTD/svg11.dtd">
<svg xmlns="http://www.w3.org/2000/svg" version="1.1" width="600px" height="600px" style="shape-rendering:geometricPrecision; text-rendering:geometricPrecision; image-rendering:optimizeQuality; fill-rule:evenodd; clip-rule:evenodd" xmlns:xlink="http://www.w3.org/1999/xlink">
<g><path style="opacity:0.963" fill="#040303" d="M 152.5,-0.5 C 168.167,-0.5 183.833,-0.5 199.5,-0.5C 207.209,4.71054 213.376,11.3772 218,19.5C 272.842,10.1744 327.675,10.1744 382.5,19.5C 387.44,11.8925 393.44,5.22579 400.5,-0.5C 416.167,-0.5 431.833,-0.5 447.5,-0.5C 475.97,10.2215 504.637,20.7215 533.5,31C 552.615,37.8911 570.615,46.8911 587.5,58C 591.731,62.0621 595.731,66.2288 599.5,70.5C 599.5,88.8333 599.5,107.167 599.5,125.5C 590.156,143.352 578.99,160.019 566,175.5C 551.645,197.208 539.645,220.208 530,244.5C 519.44,253.133 509.773,252.133 501,241.5C 499,238.167 497,234.833 495,231.5C 493.776,266.878 491.943,302.212 489.5,337.5C 506.004,387.136 501.504,434.803 476,480.5C 472.74,486.119 468.073,488.785 462,488.5C 460.47,498.094 456.804,506.761 451,514.5C 435.513,532.997 417.346,548.163 396.5,560C 394.351,560.579 392.185,561.079 390,561.5C 386.612,560.864 383.446,560.03 380.5,559C 376.806,568.367 371.139,576.367 363.5,583C 354.096,589.033 344.429,594.533 334.5,599.5C 312.167,599.5 289.833,599.5 267.5,599.5C 257.112,594.804 247.112,589.304 237.5,583C 229.861,576.367 224.194,568.367 220.5,559C 217.554,560.03 214.388,560.864 211,561.5C 208.815,561.079 206.649,560.579 204.5,560C 182.62,547.459 163.787,531.292 148,511.5C 143.489,504.474 140.656,496.807 139.5,488.5C 133.198,488.925 128.364,486.259 125,480.5C 99.8389,434.88 95.0055,387.214 110.5,337.5C 108.745,302.771 106.578,268.104 104,233.5C 100.875,239.952 96.3752,245.119 90.5,249C 81.7995,251.867 74.6328,249.7 69,242.5C 55.6423,207.528 36.9757,175.862 13,147.5C 7.94829,139.392 3.44829,131.059 -0.5,122.5C -0.5,105.833 -0.5,89.1667 -0.5,72.5C 3.59698,66.5679 8.59698,61.4012 14.5,57C 25.0198,50.2379 36.0198,44.2379 47.5,39C 82.4048,25.3133 117.405,12.1466 152.5,-0.5 Z"/></g>
<g><path style="opacity:1" fill="#f5f5f5" d="M 488.5,174.5 C 479.684,145.896 467.851,118.562 453,92.5C 438.181,67.347 417.847,48.0137 392,34.5C 391.503,32.1902 391.337,29.8568 391.5,27.5C 398.343,10.2455 411.009,2.41214 429.5,4C 468.935,18.3601 508.268,33.0268 547.5,48C 557.593,52.2478 567.26,57.2478 576.5,63C 593.313,73.8134 599.146,88.9801 594,108.5C 590.693,119.447 586.026,129.78 580,139.5C 559.749,164.308 542.749,191.308 529,220.5C 527.136,225.091 525.47,229.757 524,234.5C 520.937,239.869 516.771,240.869 511.5,237.5C 508.236,233.972 505.736,229.972 504,225.5C 498.056,208.723 492.89,191.723 488.5,174.5 Z"/></g>
<g><path style="opacity:1" fill="#684f3d" d="M 192.5,43.5 C 174.742,55.7575 160.242,71.0908 149,89.5C 133.905,115.029 122.071,142.029 113.5,170.5C 111.278,170.178 109.444,170.845 108,172.5C 103.488,187.547 98.8216,202.547 94,217.5C 91.82,223.361 88.9867,228.861 85.5,234C 84.0563,234.781 82.723,234.614 81.5,233.5C 75.3499,216.866 67.8499,200.866 59,185.5C 48.4438,168.945 37.1105,152.945 25,137.5C 16.2641,124.625 11.0974,110.458 9.5,95C 9.55508,88.6145 11.3884,82.7812 15,77.5C 25.7217,67.5477 37.8884,59.7144 51.5,54C 91.2674,38.4104 131.267,23.4104 171.5,9C 186.657,7.47624 197.49,13.6429 204,27.5C 204.667,28.8333 204.667,30.1667 204,31.5C 200.296,33.8372 196.629,36.1705 193,38.5C 192.506,40.1341 192.34,41.8008 192.5,43.5 Z"/></g>
<g><path style="opacity:1" fill="#e7e7e7" d="M 391.5,27.5 C 391.337,29.8568 391.503,32.1902 392,34.5C 417.847,48.0137 438.181,67.347 453,92.5C 467.851,118.562 479.684,145.896 488.5,174.5C 487.851,188.719 486.685,203.053 485,217.5C 483.402,258.516 481.568,299.516 479.5,340.5C 465.65,317.655 446.65,300.322 422.5,288.5C 419.996,279.822 416.996,271.322 413.5,263C 413.645,262.228 413.978,261.561 414.5,261C 416.899,260.289 419.232,260.456 421.5,261.5C 422.5,261.167 423.167,260.5 423.5,259.5C 419.585,253.368 414.252,248.868 407.5,246C 410.003,236.331 409.337,226.831 405.5,217.5C 425.407,210.721 433.907,196.721 431,175.5C 422.556,153.194 406.723,145.027 383.5,151C 378.405,153.606 373.738,156.772 369.5,160.5C 363.926,148.31 358.426,135.977 353,123.5C 349.587,116.418 344.087,111.918 336.5,110C 340.621,104.554 339.954,102.887 334.5,105C 332.667,106.833 330.833,108.667 329,110.5C 328.876,99.9434 329.709,89.4434 331.5,79C 331.491,77.5962 330.991,76.4296 330,75.5C 327.513,77.8089 325.513,80.4756 324,83.5C 319.256,93.9864 314.256,104.32 309,114.5C 304.291,103.412 299.291,92.4116 294,81.5C 293.311,80.6433 292.478,79.9767 291.5,79.5C 292.148,86.767 292.148,94.1003 291.5,101.5C 289.926,102.631 288.259,102.798 286.5,102C 283.763,100.386 281.597,98.2192 280,95.5C 278.738,99.3125 278.071,103.313 278,107.5C 274.278,103.275 270.112,99.6084 265.5,96.5C 264.747,100.812 264.581,105.145 265,109.5C 264.005,108.934 263.172,108.267 262.5,107.5C 262.784,105.585 262.451,103.919 261.5,102.5C 260.933,95.124 259.933,87.7907 258.5,80.5C 255.561,74.1725 252.728,67.8391 250,61.5C 248.855,60.3636 247.688,59.3636 246.5,58.5C 245.833,55.8333 244.167,54.1667 241.5,53.5C 239.77,52.9744 238.436,51.9744 237.5,50.5C 235.421,48.127 232.754,46.7936 229.5,46.5C 222.606,44.4539 215.606,42.7872 208.5,41.5C 206.167,40.8333 203.833,40.1667 201.5,39.5C 205.18,37.7024 208.18,35.0357 210.5,31.5C 230.933,27.285 251.6,24.785 272.5,24C 312.164,21.833 351.498,24.333 390.5,31.5C 390.232,29.901 390.566,28.5676 391.5,27.5 Z"/></g>
<g><path style="opacity:1" fill="#595959" d="M 201.5,39.5 C 203.833,40.1667 206.167,40.8333 208.5,41.5C 204.818,41.6653 201.152,41.4986 197.5,41C 198.563,39.8118 199.897,39.3118 201.5,39.5 Z"/></g>
<g><path style="opacity:1" fill="#4b321f" d="M 192.5,43.5 C 193.683,44.5045 195.016,45.3378 196.5,46C 233.058,44.756 253.058,62.256 256.5,98.5C 251.721,107.178 246.554,115.845 241,124.5C 237.723,134.165 234.556,143.832 231.5,153.5C 225.988,149.914 219.988,147.08 213.5,145C 189.621,141.519 173.454,151.019 165,173.5C 162.537,186.254 164.871,197.921 172,208.5C 177.286,214.194 183.119,219.028 189.5,223C 187.319,229.659 185.986,236.492 185.5,243.5C 179.572,246.594 174.739,250.927 171,256.5C 168.879,262.702 171.046,265.868 177.5,266C 158.7,273.082 140.534,271.915 123,262.5C 121.112,233.529 119.112,204.529 117,175.5C 116.777,173.119 115.61,171.453 113.5,170.5C 122.071,142.029 133.905,115.029 149,89.5C 160.242,71.0908 174.742,55.7575 192.5,43.5 Z"/></g>
<g><path style="opacity:1" fill="#6f6f6f" d="M 229.5,46.5 C 232.754,46.7936 235.421,48.127 237.5,50.5C 234.515,49.6743 231.849,48.341 229.5,46.5 Z"/></g>
<g><path style="opacity:1" fill="#797979" d="M 241.5,53.5 C 244.167,54.1667 245.833,55.8333 246.5,58.5C 244.5,57.1667 242.833,55.5 241.5,53.5 Z"/></g>
<g><path style="opacity:1" fill="#f5f5f5" d="M 369.5,160.5 C 374.1,168.268 380.267,174.601 388,179.5C 393.22,188.937 398.22,198.603 403,208.5C 404.145,211.432 404.978,214.432 405.5,217.5C 409.337,226.831 410.003,236.331 407.5,246C 414.252,248.868 419.585,253.368 423.5,259.5C 423.167,260.5 422.5,261.167 421.5,261.5C 419.232,260.456 416.899,260.289 414.5,261C 413.978,261.561 413.645,262.228 413.5,263C 416.996,271.322 419.996,279.822 422.5,288.5C 446.65,300.322 465.65,317.655 479.5,340.5C 495.002,387.238 490.836,432.238 467,475.5C 465.737,477.797 463.903,478.63 461.5,478C 457.029,471.549 452.696,465.049 448.5,458.5C 448.167,459 447.833,459.5 447.5,460C 450.884,473.173 451.051,486.34 448,499.5C 438.249,513.919 426.416,526.419 412.5,537C 405.772,542.576 398.439,547.076 390.5,550.5C 387.699,550.536 385.865,549.203 385,546.5C 382.805,539.33 381.472,531.996 381,524.5C 380.632,523.09 379.799,522.09 378.5,521.5C 377.194,522.912 376.36,524.579 376,526.5C 375.735,542.627 371.068,557.294 362,570.5C 347.669,582.082 331.503,590.082 313.5,594.5C 310.699,594.536 308.865,593.203 308,590.5C 305.696,578.652 303.53,566.818 301.5,555C 300.551,554.383 299.718,554.549 299,555.5C 297.54,567.258 295.54,578.925 293,590.5C 290.947,594.292 287.781,595.458 283.5,594C 267.634,588.985 253.134,581.485 240,571.5C 236.245,566.997 233.245,561.997 231,556.5C 228.14,546.676 226.14,536.676 225,526.5C 224.64,524.579 223.806,522.912 222.5,521.5C 221.201,522.09 220.368,523.09 220,524.5C 219.32,532.295 217.987,539.961 216,547.5C 213.79,550.29 210.956,551.123 207.5,550C 188.888,538.395 172.388,524.228 158,507.5C 151.428,498.206 149.095,487.873 151,476.5C 151.725,471.15 152.558,465.816 153.5,460.5C 153.167,459.5 152.833,458.5 152.5,457.5C 149.041,464.925 144.708,471.758 139.5,478C 138.5,478.667 137.5,478.667 136.5,478C 116.631,445.985 108.797,411.152 113,373.5C 114.093,362.796 116.593,352.463 120.5,342.5C 133.58,319.922 151.747,302.588 175,290.5C 176.816,283.217 179.316,276.217 182.5,269.5C 182.402,267.447 183.069,265.78 184.5,264.5C 185.451,263.081 185.784,261.415 185.5,259.5C 182.941,259.198 180.607,259.532 178.5,260.5C 177.5,260.5 176.5,260.5 175.5,260.5C 176.779,256.698 179.112,253.531 182.5,251C 185.418,249.291 188.252,247.458 191,245.5C 190.803,236.728 192.303,228.395 195.5,220.5C 196.596,215.048 198.429,209.715 201,204.5C 205.348,196.468 209.681,188.468 214,180.5C 220.708,175.293 226.541,169.293 231.5,162.5C 237.087,150.407 242.087,138.074 246.5,125.5C 248.008,123.819 249.008,121.819 249.5,119.5C 251.408,115.92 254.074,112.92 257.5,110.5C 255.853,108.512 256.186,107.179 258.5,106.5C 259.568,107.434 260.901,107.768 262.5,107.5C 263.172,108.267 264.005,108.934 265,109.5C 264.581,105.145 264.747,100.812 265.5,96.5C 270.112,99.6084 274.278,103.275 278,107.5C 278.071,103.313 278.738,99.3125 280,95.5C 281.597,98.2192 283.763,100.386 286.5,102C 288.259,102.798 289.926,102.631 291.5,101.5C 292.148,94.1003 292.148,86.767 291.5,79.5C 292.478,79.9767 293.311,80.6433 294,81.5C 299.291,92.4116 304.291,103.412 309,114.5C 314.256,104.32 319.256,93.9864 324,83.5C 325.513,80.4756 327.513,77.8089 330,75.5C 330.991,76.4296 331.491,77.5962 331.5,79C 329.709,89.4434 328.876,99.9434 329,110.5C 330.833,108.667 332.667,106.833 334.5,105C 339.954,102.887 340.621,104.554 336.5,110C 344.087,111.918 349.587,116.418 353,123.5C 358.426,135.977 363.926,148.31 369.5,160.5 Z"/></g>
<g><path style="opacity:1" fill="#797978" d="M 261.5,102.5 C 262.451,103.919 262.784,105.585 262.5,107.5C 260.901,107.768 259.568,107.434 258.5,106.5C 259.5,106.5 260.5,106.5 261.5,106.5C 261.5,105.167 261.5,103.833 261.5,102.5 Z"/></g>
<g><path style="opacity:1" fill="#818080" d="M 249.5,119.5 C 249.008,121.819 248.008,123.819 246.5,125.5C 246.461,122.911 247.461,120.911 249.5,119.5 Z"/></g>
<g><path style="opacity:1" fill="#241916" d="M 231.5,162.5 C 226.541,169.293 220.708,175.293 214,180.5C 209.681,188.468 205.348,196.468 201,204.5C 198.429,209.715 196.596,215.048 195.5,220.5C 195.67,219.178 195.337,218.011 194.5,217C 175.981,209.799 167.814,196.299 170,176.5C 175.165,159.662 186.498,150.662 204,149.5C 214.984,150.244 224.151,154.578 231.5,162.5 Z"/></g>
<g><path style="opacity:1" fill="#251a17" d="M 405.5,217.5 C 404.978,214.432 404.145,211.432 403,208.5C 398.22,198.603 393.22,188.937 388,179.5C 380.267,174.601 374.1,168.268 369.5,160.5C 373.738,156.772 378.405,153.606 383.5,151C 406.723,145.027 422.556,153.194 431,175.5C 433.907,196.721 425.407,210.721 405.5,217.5 Z"/></g>
<g><path style="opacity:1" fill="#eeeeee" d="M 202.5,160.5 C 209.369,160.538 211.869,163.871 210,170.5C 206.254,174.393 202.588,174.393 199,170.5C 197.581,166.082 198.748,162.749 202.5,160.5 Z"/></g>
<g><path style="opacity:1" fill="#ececec" d="M 393.5,160.5 C 399.131,160.299 401.964,162.966 402,168.5C 398.421,174.753 394.421,175.086 390,169.5C 388.959,165.59 390.125,162.59 393.5,160.5 Z"/></g>
<g><path style="opacity:1" fill="#666665" d="M 178.5,260.5 C 180.607,259.532 182.941,259.198 185.5,259.5C 185.784,261.415 185.451,263.081 184.5,264.5C 184.5,263.167 184.5,261.833 184.5,260.5C 182.5,260.5 180.5,260.5 178.5,260.5 Z"/></g>
<g><path style="opacity:1" fill="#e3e3e3" d="M 182.5,269.5 C 179.316,276.217 176.816,283.217 175,290.5C 151.747,302.588 133.58,319.922 120.5,342.5C 119.101,317.183 118.101,291.85 117.5,266.5C 123.09,268.618 128.756,270.785 134.5,273C 150.873,276.977 166.873,275.81 182.5,269.5 Z"/></g>
<g><path style="opacity:1" fill="#372f2b" d="M 321.5,297.5 C 342.584,301.921 352.918,314.921 352.5,336.5C 351.341,348.319 346.341,358.152 337.5,366C 314.631,386.768 290.965,387.768 266.5,369C 257.287,361.065 251.287,351.232 248.5,339.5C 245.812,323.718 251.145,311.552 264.5,303C 268.904,301.041 273.238,299.208 277.5,297.5C 285.216,297.163 292.883,296.497 300.5,295.5C 307.452,296.471 314.452,297.138 321.5,297.5 Z"/></g>
<g><path style="opacity:1" fill="#e8e7e7" d="M 277.5,297.5 C 273.238,299.208 268.904,301.041 264.5,303C 251.145,311.552 245.812,323.718 248.5,339.5C 247.834,336.642 247.167,333.642 246.5,330.5C 238.648,334.186 233.481,340.186 231,348.5C 230.202,357.213 230.536,365.88 232,374.5C 233.95,386.316 237.117,397.65 241.5,408.5C 239.104,411.407 238.438,414.573 239.5,418C 240.928,418.579 242.262,418.412 243.5,417.5C 249.151,433.912 253.984,450.579 258,467.5C 261.686,487.611 262.186,507.778 259.5,528C 259.167,528.833 258.833,529.667 258.5,530.5C 252.499,525.997 246.999,520.997 242,515.5C 240.568,521.001 239.568,526.668 239,532.5C 238.577,533.956 237.744,534.456 236.5,534C 230.637,522.752 226.137,510.919 223,498.5C 222.313,496.445 221.146,494.779 219.5,493.5C 217.876,506.113 216.876,518.78 216.5,531.5C 210.004,530.686 205.504,527.353 203,521.5C 201.819,506.182 200.819,490.849 200,475.5C 199.667,475.167 199.333,474.833 199,474.5C 197.263,485.742 196.263,497.075 196,508.5C 195.794,511.623 195.127,514.623 194,517.5C 186.806,508.097 182.64,497.43 181.5,485.5C 180.43,478.706 179.764,471.873 179.5,465C 180.156,433.121 181.656,401.288 184,369.5C 193.126,323.211 221.293,298.878 268.5,296.5C 271.517,296.768 274.517,297.102 277.5,297.5 Z"/></g>
<g><path style="opacity:1" fill="#e8e7e7" d="M 356.5,416.5 C 360.89,419.297 362.39,417.964 361,412.5C 360.153,410.807 359.32,409.14 358.5,407.5C 359.458,407.047 360.292,406.381 361,405.5C 364.784,392.698 367.784,379.698 370,366.5C 373.335,350.513 368.002,338.513 354,330.5C 353.809,332.708 353.309,334.708 352.5,336.5C 352.918,314.921 342.584,301.921 321.5,297.5C 372.157,293.885 403.657,316.552 416,365.5C 417.468,373.442 418.468,381.442 419,389.5C 420.47,416.487 421.637,443.487 422.5,470.5C 422.414,484.433 419.58,497.766 414,510.5C 412.691,512.976 410.858,514.976 408.5,516.5C 406.708,500.842 404.875,485.175 403,469.5C 402.204,487.885 400.87,506.218 399,524.5C 395.805,527.858 391.972,530.191 387.5,531.5C 387.167,531 386.833,530.5 386.5,530C 385.143,516.845 383.81,503.679 382.5,490.5C 377.522,502.262 373.022,514.262 369,526.5C 367.833,528.833 366.667,531.167 365.5,533.5C 364.675,534.386 363.675,534.719 362.5,534.5C 361.817,527.674 360.65,521.008 359,514.5C 354.716,522.45 348.716,528.784 341,533.5C 337.302,507.49 338.635,481.49 345,455.5C 349.352,442.615 353.185,429.615 356.5,416.5 Z"/></g>
<g><path style="opacity:1" fill="#f3f3f3" d="M 248.5,339.5 C 251.287,351.232 257.287,361.065 266.5,369C 290.965,387.768 314.631,386.768 337.5,366C 346.341,358.152 351.341,348.319 352.5,336.5C 353.309,334.708 353.809,332.708 354,330.5C 368.002,338.513 373.335,350.513 370,366.5C 367.784,379.698 364.784,392.698 361,405.5C 360.292,406.381 359.458,407.047 358.5,407.5C 355.538,398.198 349.204,393.532 339.5,393.5C 329.552,395.154 319.552,395.654 309.5,395C 306.155,391.977 303.822,388.311 302.5,384C 300.866,383.506 299.199,383.34 297.5,383.5C 297.332,388.673 294.998,392.506 290.5,395C 278.153,394.914 265.82,394.581 253.5,394C 247.838,397.492 243.838,402.325 241.5,408.5C 237.117,397.65 233.95,386.316 232,374.5C 230.536,365.88 230.202,357.213 231,348.5C 233.481,340.186 238.648,334.186 246.5,330.5C 247.167,333.642 247.834,336.642 248.5,339.5 Z"/></g>
<g><path style="opacity:1" fill="#39312d" d="M 358.5,407.5 C 359.32,409.14 360.153,410.807 361,412.5C 362.39,417.964 360.89,419.297 356.5,416.5C 354.377,410.759 350.71,406.259 345.5,403C 341.5,402.333 337.5,402.333 333.5,403C 322.664,405.704 311.664,407.204 300.5,407.5C 286.995,407.122 273.661,405.456 260.5,402.5C 258.5,402.667 256.5,402.833 254.5,403C 249.488,406.876 245.822,411.71 243.5,417.5C 242.262,418.412 240.928,418.579 239.5,418C 238.438,414.573 239.104,411.407 241.5,408.5C 243.838,402.325 247.838,397.492 253.5,394C 265.82,394.581 278.153,394.914 290.5,395C 294.998,392.506 297.332,388.673 297.5,383.5C 299.199,383.34 300.866,383.506 302.5,384C 303.822,388.311 306.155,391.977 309.5,395C 319.552,395.654 329.552,395.154 339.5,393.5C 349.204,393.532 355.538,398.198 358.5,407.5 Z"/></g>
</svg>
