<?xml version="1.0" encoding="UTF-8"?>
<!DOCTYPE svg PUBLIC "-//W3C//DTD SVG 1.1//EN" "http://www.w3.org/Graphics/SVG/1.1/DTD/svg11.dtd">
<svg xmlns="http://www.w3.org/2000/svg" version="1.1" width="600px" height="600px" style="shape-rendering:geometricPrecision; text-rendering:geometricPrecision; image-rendering:optimizeQuality; fill-rule:evenodd; clip-rule:evenodd" xmlns:xlink="http://www.w3.org/1999/xlink">
<g><path style="opacity:0.985" fill="#030202" d="M 222.5,-0.5 C 236.833,-0.5 251.167,-0.5 265.5,-0.5C 270.051,3.59983 275.385,5.09983 281.5,4C 282.267,2.52951 282.933,1.02951 283.5,-0.5C 287.5,-0.5 291.5,-0.5 295.5,-0.5C 293.356,2.12197 292.023,5.12197 291.5,8.5C 296.5,8.5 301.5,8.5 306.5,8.5C 306.1,4.69092 304.433,1.69092 301.5,-0.5C 305.833,-0.5 310.167,-0.5 314.5,-0.5C 314.759,3.58807 316.925,5.25473 321,4.5C 325.549,4.30504 329.382,2.63838 332.5,-0.5C 346.833,-0.5 361.167,-0.5 375.5,-0.5C 376.675,3.14997 376.675,6.81664 375.5,10.5C 390.236,8.87443 404.902,9.37443 419.5,12C 424.535,12.7548 429.202,14.4215 433.5,17C 435.219,18.8705 436.219,21.0372 436.5,23.5C 450.165,25.0844 463.832,25.9178 477.5,26C 484.326,27.0398 490.992,28.7065 497.5,31C 502.223,34.2657 503.89,38.599 502.5,44C 513.566,45.1756 524.232,47.8422 534.5,52C 539.7,57.4542 540.867,63.6209 538,70.5C 545.359,74.4305 552.859,78.2638 560.5,82C 565.908,84.9908 569.242,89.4908 570.5,95.5C 569.949,98.0561 568.949,100.389 567.5,102.5C 568,103.5 568.5,104.5 569,105.5C 574.167,109.333 579.333,113.167 584.5,117C 590.432,121.079 594.098,126.579 595.5,133.5C 594.912,138.355 592.579,142.022 588.5,144.5C 589.775,147.873 589.608,151.207 588,154.5C 581.539,166.298 573.539,176.965 564,186.5C 565.292,191.024 565.959,195.691 566,200.5C 564.932,205.235 562.099,208.402 557.5,210C 566.722,216.565 569.055,224.898 564.5,235C 566.698,239.957 568.198,245.124 569,250.5C 573.283,255.567 575.783,261.4 576.5,268C 576.218,276.282 571.885,280.615 563.5,281C 567.872,290.244 572.372,299.41 577,308.5C 580.855,316.235 579.689,323.068 573.5,329C 570.937,330.079 568.271,330.579 565.5,330.5C 568.486,345.598 571.153,360.765 573.5,376C 573.677,385.478 569.177,390.978 560,392.5C 558.893,392.415 557.893,392.081 557,391.5C 556.333,396.833 556.333,402.167 557,407.5C 560.097,417.866 560.097,428.2 557,438.5C 552.647,443.713 547.481,445.046 541.5,442.5C 539.977,452.299 537.811,461.966 535,471.5C 531.282,476.552 526.449,480.052 520.5,482C 518.667,484.5 516.833,487 515,489.5C 512.111,501.267 508.111,512.6 503,523.5C 493.353,542.147 478.52,554.647 458.5,561C 451.256,563.049 443.922,564.716 436.5,566C 433.027,574.48 426.86,579.647 418,581.5C 412.936,580.772 409.27,578.105 407,573.5C 403.5,578.333 400,583.167 396.5,588C 390.239,593.912 383.572,594.579 376.5,590C 374.898,588.065 373.731,585.899 373,583.5C 369.241,588.691 365.741,594.024 362.5,599.5C 355.833,599.5 349.167,599.5 342.5,599.5C 340.871,596.355 339.538,593.022 338.5,589.5C 333.212,590.723 330.212,594.057 329.5,599.5C 325.5,599.5 321.5,599.5 317.5,599.5C 320.03,592.936 323.697,587.103 328.5,582C 335.051,579.799 341.718,578.465 348.5,578C 349.658,579.009 350.325,580.342 350.5,582C 349.667,585.484 349.501,588.984 350,592.5C 352.54,593.876 354.54,593.21 356,590.5C 359.192,583.596 363.692,577.763 369.5,573C 374.386,571.362 379.386,570.195 384.5,569.5C 384.261,573.842 383.927,578.176 383.5,582.5C 386.099,582.451 388.266,581.451 390,579.5C 392.833,575.333 395.667,571.167 398.5,567C 382.703,565.089 367.036,562.423 351.5,559C 333.981,554.326 316.648,549.159 299.5,543.5C 267.105,555.098 233.771,562.931 199.5,567C 203.019,572.365 207.019,577.365 211.5,582C 212.793,582.49 214.127,582.657 215.5,582.5C 215.152,578.443 214.486,574.443 213.5,570.5C 227.031,569.848 236.197,575.848 241,588.5C 242.405,590.651 244.239,592.318 246.5,593.5C 247.086,593.291 247.586,592.957 248,592.5C 248.195,587.582 248.695,582.749 249.5,578C 256.36,578.057 263.027,579.39 269.5,582C 272.333,583.5 274.5,585.667 276,588.5C 277.513,592.188 279.013,595.855 280.5,599.5C 276.5,599.5 272.5,599.5 268.5,599.5C 268.216,593.902 265.383,590.569 260,589.5C 258.83,592.857 257.663,596.191 256.5,599.5C 249.833,599.5 243.167,599.5 236.5,599.5C 232.885,594.045 229.052,588.712 225,583.5C 223.541,589.453 219.708,592.786 213.5,593.5C 207.485,592.409 202.652,589.409 199,584.5C 196.667,580.833 194.333,577.167 192,573.5C 186.409,581.276 179.576,582.776 171.5,578C 167.413,574.584 164.08,570.584 161.5,566C 137.827,562.918 118.327,552.418 103,534.5C 98.1294,527.898 94.7961,520.564 93,512.5C 87.997,506.835 85.3303,500.169 85,492.5C 83.3333,489.167 81.6667,485.833 80,482.5C 73.0713,480.662 67.738,476.662 64,470.5C 61.287,461.344 59.4536,452.01 58.5,442.5C 51.1307,445.617 45.6307,443.617 42,436.5C 40.9938,432.402 40.4938,428.236 40.5,424C 42.1268,413.218 42.6268,402.384 42,391.5C 34.3053,393.148 29.3053,390.148 27,382.5C 26.3333,377.833 26.3333,373.167 27,368.5C 29.4884,355.882 31.6551,343.215 33.5,330.5C 25.0234,330.359 20.3567,326.026 19.5,317.5C 20.3628,313.411 21.5295,309.411 23,305.5C 27.5652,297.536 31.7318,289.37 35.5,281C 23.6803,278.521 19.8469,271.687 24,260.5C 25.497,256.835 27.497,253.502 30,250.5C 31.9888,244.554 33.3222,238.554 34,232.5C 31.297,228.714 30.9636,224.714 33,220.5C 35.0751,216.421 37.9084,212.921 41.5,210C 32.505,204.695 30.505,197.361 35.5,188C 31.0574,181.886 26.2241,176.053 21,170.5C 15.8121,163.788 11.9787,156.454 9.5,148.5C 9.55074,146.9 9.88407,145.4 10.5,144C 3.88547,140.157 2.05214,134.657 5,127.5C 8.13108,123.367 11.6311,119.534 15.5,116C 20.6667,112.167 25.8333,108.333 31,104.5C 30.3107,101.58 29.4773,98.58 28.5,95.5C 28.9116,92.1698 30.0783,89.1698 32,86.5C 34.5,84.6667 37,82.8333 39.5,81C 47.1433,77.845 54.4767,74.1783 61.5,70C 57.4089,62.679 58.7422,56.3457 65.5,51C 75.3513,47.9295 85.3513,45.4295 95.5,43.5C 94.8146,35.1259 98.8146,30.2925 107.5,29C 112.448,27.7437 117.448,26.7437 122.5,26C 135.571,25.935 148.571,25.1016 161.5,23.5C 161.549,20.9009 162.549,18.7342 164.5,17C 172.993,12.9594 181.993,10.6261 191.5,10C 202.193,9.48919 212.859,9.48919 223.5,10C 221.398,6.64534 221.064,3.14534 222.5,-0.5 Z"/></g>
<g><path style="opacity:1" fill="#efdebb" d="M 295.5,-0.5 C 297.5,-0.5 299.5,-0.5 301.5,-0.5C 304.433,1.69092 306.1,4.69092 306.5,8.5C 301.5,8.5 296.5,8.5 291.5,8.5C 292.023,5.12197 293.356,2.12197 295.5,-0.5 Z"/></g>
<g><path style="opacity:1" fill="#f5e4c0" d="M 232.5,3.5 C 245.849,3.42051 258.182,6.92051 269.5,14C 255.299,22.543 248.632,35.2097 249.5,52C 250.2,57.8393 250.867,63.6726 251.5,69.5C 245.86,68.6745 240.194,68.0078 234.5,67.5C 223.008,67.3259 217.675,72.9925 218.5,84.5C 201.719,82.8657 185.052,83.699 168.5,87C 166.238,87.6419 164.071,88.4752 162,89.5C 164.394,77.7144 169.727,67.3811 178,58.5C 184.083,50.2651 184.916,41.5984 180.5,32.5C 182.253,30.3001 184.586,29.1334 187.5,29C 182.47,28.5523 177.47,27.8856 172.5,27C 171.354,24.4428 172.354,23.1095 175.5,23C 179.114,22.0551 182.781,21.3884 186.5,21C 201.833,20.6667 217.167,20.3333 232.5,20C 236.872,19.5785 241.205,18.9119 245.5,18C 246.956,17.5774 247.456,16.7441 247,15.5C 242.586,12.376 238.086,9.37596 233.5,6.5C 232.614,5.67504 232.281,4.67504 232.5,3.5 Z"/></g>
<g><path style="opacity:1" fill="#f5e4c0" d="M 352.5,3.5 C 356.833,3.5 361.167,3.5 365.5,3.5C 365.67,4.82207 365.337,5.98873 364.5,7C 359.747,9.45825 355.247,12.2916 351,15.5C 350.383,16.4491 350.549,17.2825 351.5,18C 359.249,19.6144 367.082,20.4477 375,20.5C 390.965,18.779 406.798,19.6124 422.5,23C 424.002,23.5831 425.335,24.4164 426.5,25.5C 426.291,26.086 425.957,26.586 425.5,27C 420.453,27.3379 415.453,28.0046 410.5,29C 413.62,29.5853 416.287,30.9186 418.5,33C 415.232,42.3598 416.398,51.1932 422,59.5C 430.273,68.3811 435.606,78.7144 438,90.5C 431.434,87.8161 424.6,85.9827 417.5,85C 404.833,84.6667 392.167,84.3333 379.5,84C 381.085,72.5753 375.918,67.0753 364,67.5C 358.458,67.8962 352.958,68.5629 347.5,69.5C 348.499,59.519 348.666,49.519 348,39.5C 345.304,28.1318 338.804,19.6318 328.5,14C 336.218,9.63573 344.218,6.13573 352.5,3.5 Z"/></g>
<g><path style="opacity:1" fill="#e0c99c" d="M 445.5,112.5 C 449.44,128.156 453.773,143.823 458.5,159.5C 449.029,156.866 439.362,155.199 429.5,154.5C 429.357,146.52 425.357,141.686 417.5,140C 402.629,136.627 387.629,135.794 372.5,137.5C 373.673,129.813 370.673,124.646 363.5,122C 356.776,121.226 350.11,121.559 343.5,123C 334.249,125.634 325.249,128.8 316.5,132.5C 314.218,123.386 308.385,118.386 299,117.5C 290.01,118.158 284.344,122.825 282,131.5C 281.439,132.022 280.772,132.355 280,132.5C 270.925,127.856 261.425,124.356 251.5,122C 245.833,121.333 240.167,121.333 234.5,122C 227.792,124.894 225.125,130.061 226.5,137.5C 209.202,135.663 192.202,137.163 175.5,142C 171.107,145.009 169.107,149.175 169.5,154.5C 159.638,155.199 149.971,156.866 140.5,159.5C 145.494,144.229 149.827,128.896 153.5,113.5C 165.065,112.61 176.398,110.443 187.5,107C 188.902,105.658 188.569,104.824 186.5,104.5C 180.087,103.997 173.753,103.164 167.5,102C 166.167,101.333 166.167,100.667 167.5,100C 177.946,97.1506 188.613,95.6506 199.5,95.5C 214.244,97.1808 228.911,96.6808 243.5,94C 245.158,93.2747 245.658,92.108 245,90.5C 240.582,87.7074 236.082,85.0407 231.5,82.5C 230.614,81.675 230.281,80.675 230.5,79.5C 241.708,79.3017 252.375,81.6351 262.5,86.5C 263.986,83.7166 264.653,80.7166 264.5,77.5C 263.5,68.8333 262.5,60.1667 261.5,51.5C 261.016,36.2906 268.016,26.4573 282.5,22C 291.447,20.4873 300.447,20.154 309.5,21C 328.06,22.7262 337.394,32.8929 337.5,51.5C 336.446,59.6562 335.446,67.8229 334.5,76C 334.383,79.6703 335.049,83.1703 336.5,86.5C 346.554,80.9838 357.221,78.9838 368.5,80.5C 364.267,84.2204 359.6,87.3871 354.5,90C 352.043,91.5123 352.043,92.8456 354.5,94C 362.427,95.5521 370.427,96.3854 378.5,96.5C 396.375,94.7341 414.042,95.9008 431.5,100C 432.833,100.667 432.833,101.333 431.5,102C 425.23,103.152 418.897,103.818 412.5,104C 411.376,104.249 410.376,104.749 409.5,105.5C 409.833,105.833 410.167,106.167 410.5,106.5C 421.15,110.579 432.15,113.246 443.5,114.5C 444.713,114.253 445.38,113.586 445.5,112.5 Z"/></g>
<g><path style="opacity:1" fill="#cba879" d="M 170.5,37.5 C 172.927,40.7016 173.094,44.035 171,47.5C 162.884,57.3888 156.551,68.3888 152,80.5C 143.306,109.278 134.306,137.945 125,166.5C 116.805,187.236 105.805,206.236 92,223.5C 87.9856,228.417 83.1523,232.25 77.5,235C 72.6153,236.718 69.4486,235.218 68,230.5C 66.3218,219.746 62.8218,209.746 57.5,200.5C 55.6163,196.114 52.7829,192.448 49,189.5C 48.6667,188.167 48.3333,186.833 48,185.5C 41.3726,177.204 34.3726,169.204 27,161.5C 25.0254,157.524 22.6921,153.858 20,150.5C 19.9382,147.839 20.9382,145.505 23,143.5C 24.9016,138.787 26.5683,134.12 28,129.5C 23.8934,131.719 19.5601,133.385 15,134.5C 14.5,134.167 14,133.833 13.5,133.5C 14.8034,131.063 16.4701,128.896 18.5,127C 24.7179,121.781 31.2179,116.948 38,112.5C 41.5595,106.551 45.7262,101.051 50.5,96C 46.8913,96.2384 43.2246,96.4051 39.5,96.5C 39.2965,94.6096 39.9632,93.1096 41.5,92C 49.2121,87.76 57.2121,84.0934 65.5,81C 71.2079,75.6233 77.2079,70.6233 83.5,66C 78.8024,65.6489 74.1358,65.1489 69.5,64.5C 69.3234,62.0194 70.3234,60.1861 72.5,59C 82.3277,56.3545 92.3277,54.6878 102.5,54C 108.008,50.7453 113.675,47.7453 119.5,45C 115.227,43.9695 110.894,43.3028 106.5,43C 105.167,42 105.167,41 106.5,40C 119.385,35.7192 132.551,34.5525 146,36.5C 152.423,34.8553 158.923,34.3553 165.5,35C 167.193,35.8466 168.86,36.6799 170.5,37.5 Z"/></g>
<g><path style="opacity:1" fill="#cba879" d="M 541.5,201.5 C 536.178,210.746 532.678,220.746 531,231.5C 529.309,235.213 526.475,236.379 522.5,235C 513.045,229.212 505.212,221.712 499,212.5C 484.869,191.901 474.202,169.568 467,145.5C 461.466,125.03 455.466,104.697 449,84.5C 444.058,70.6099 437.058,57.9432 428,46.5C 427.366,43.4453 427.532,40.4453 428.5,37.5C 431.68,35.0429 435.347,34.0429 439.5,34.5C 450.825,35.1602 462.159,35.6602 473.5,36C 479.617,36.8232 485.617,38.1566 491.5,40C 492.451,40.7175 492.617,41.5509 492,42.5C 487.735,43.0352 483.568,43.8685 479.5,45C 485.779,47.4728 491.779,50.4728 497.5,54C 507.711,55.0538 517.711,57.0538 527.5,60C 529.394,61.0793 529.727,62.4126 528.5,64C 524.284,65.2036 519.951,65.8702 515.5,66C 522.532,70.8527 529.198,76.1861 535.5,82C 542.404,84.4514 549.07,87.4514 555.5,91C 557.019,92.3513 558.352,93.8513 559.5,95.5C 555.855,96.2875 552.188,96.4541 548.5,96C 553.765,101.263 558.265,107.096 562,113.5C 569.914,118.744 577.248,124.744 584,131.5C 584.483,132.448 584.649,133.448 584.5,134.5C 580.184,134.172 576.184,132.839 572.5,130.5C 572.167,131 571.833,131.5 571.5,132C 573.507,137.873 576.173,143.373 579.5,148.5C 573.041,160.392 564.874,171.058 555,180.5C 550.979,187.892 546.479,194.892 541.5,201.5 Z"/></g>
<g><path style="opacity:1" fill="#ecdbb7" d="M 445.5,112.5 C 445.38,113.586 444.713,114.253 443.5,114.5C 432.15,113.246 421.15,110.579 410.5,106.5C 410.167,106.167 409.833,105.833 409.5,105.5C 410.376,104.749 411.376,104.249 412.5,104C 418.897,103.818 425.23,103.152 431.5,102C 432.833,101.333 432.833,100.667 431.5,100C 414.042,95.9008 396.375,94.7341 378.5,96.5C 370.427,96.3854 362.427,95.5521 354.5,94C 352.043,92.8456 352.043,91.5123 354.5,90C 359.6,87.3871 364.267,84.2204 368.5,80.5C 357.221,78.9838 346.554,80.9838 336.5,86.5C 335.049,83.1703 334.383,79.6703 334.5,76C 335.446,67.8229 336.446,59.6562 337.5,51.5C 337.394,32.8929 328.06,22.7262 309.5,21C 300.447,20.154 291.447,20.4873 282.5,22C 268.016,26.4573 261.016,36.2906 261.5,51.5C 262.5,60.1667 263.5,68.8333 264.5,77.5C 264.653,80.7166 263.986,83.7166 262.5,86.5C 252.375,81.6351 241.708,79.3017 230.5,79.5C 230.281,80.675 230.614,81.675 231.5,82.5C 236.082,85.0407 240.582,87.7074 245,90.5C 245.658,92.108 245.158,93.2747 243.5,94C 228.911,96.6808 214.244,97.1808 199.5,95.5C 188.613,95.6506 177.946,97.1506 167.5,100C 166.167,100.667 166.167,101.333 167.5,102C 173.753,103.164 180.087,103.997 186.5,104.5C 188.569,104.824 188.902,105.658 187.5,107C 176.398,110.443 165.065,112.61 153.5,113.5C 163.669,111.488 174.002,108.988 184.5,106C 178.104,105.164 171.771,104.164 165.5,103C 164.483,101.951 164.316,100.784 165,99.5C 166.648,98.283 168.481,97.4497 170.5,97C 186.879,93.6857 203.379,92.8524 220,94.5C 227.934,94.6046 235.767,93.7713 243.5,92C 238.581,88.9577 233.748,85.791 229,82.5C 228.28,80.8876 228.446,79.3876 229.5,78C 232.833,77.3333 236.167,77.3333 239.5,78C 247.357,79.121 255.024,80.9543 262.5,83.5C 262.429,72.9072 261.429,62.4072 259.5,52C 259.305,34.5411 267.639,23.8744 284.5,20C 299.421,16.9925 313.754,18.6592 327.5,25C 335.983,31.8035 339.65,40.6369 338.5,51.5C 337.1,62.4656 336.6,73.4656 337,84.5C 346.941,79.6451 357.441,77.4784 368.5,78C 370.82,79.4876 370.987,81.3209 369,83.5C 364.249,86.4594 359.416,89.2928 354.5,92C 358.5,92.6667 362.5,93.3333 366.5,94C 382.833,94.3333 399.167,94.6667 415.5,95C 421.639,95.4915 427.472,96.9915 433,99.5C 433.781,100.944 433.614,102.277 432.5,103.5C 426.181,104.278 419.847,105.111 413.5,106C 423.922,109.439 434.589,111.606 445.5,112.5 Z"/></g>
<g><path style="opacity:1" fill="#dac49a" d="M 57.5,200.5 C 62.8218,209.746 66.3218,219.746 68,230.5C 69.4486,235.218 72.6153,236.718 77.5,235C 83.1523,232.25 87.9856,228.417 92,223.5C 105.805,206.236 116.805,187.236 125,166.5C 134.306,137.945 143.306,109.278 152,80.5C 156.551,68.3888 162.884,57.3888 171,47.5C 173.094,44.035 172.927,40.7016 170.5,37.5C 170.81,36.2617 171.31,36.2617 172,37.5C 174,41.1667 174,44.8333 172,48.5C 163.276,59.2741 156.609,71.2741 152,84.5C 144.8,110.299 137.133,135.966 129,161.5C 119.589,188.846 104.755,212.68 84.5,233C 80.0911,236.581 75.0911,237.915 69.5,237C 68.2986,236.097 67.4652,234.931 67,233.5C 64.5251,222.248 61.3584,211.248 57.5,200.5 Z"/></g>
<g><path style="opacity:1" fill="#dac49a" d="M 428.5,37.5 C 427.532,40.4453 427.366,43.4453 428,46.5C 437.058,57.9432 444.058,70.6099 449,84.5C 455.466,104.697 461.466,125.03 467,145.5C 474.202,169.568 484.869,191.901 499,212.5C 505.212,221.712 513.045,229.212 522.5,235C 526.475,236.379 529.309,235.213 531,231.5C 532.678,220.746 536.178,210.746 541.5,201.5C 537.875,212.328 534.708,223.328 532,234.5C 529.683,237.097 526.85,237.93 523.5,237C 516.733,234.194 510.899,230.028 506,224.5C 491.805,206.601 480.472,186.935 472,165.5C 463.046,138.35 454.713,111.017 447,83.5C 444.549,76.5964 441.549,69.9297 438,63.5C 433.943,58.4415 430.276,53.1082 427,47.5C 426.333,44.5 426.333,41.5 427,38.5C 427.383,37.944 427.883,37.6107 428.5,37.5 Z"/></g>
<g><path style="opacity:1" fill="#cba879" d="M 473.5,194.5 C 482.197,210.546 492.864,225.212 505.5,238.5C 504.624,238.369 503.957,238.702 503.5,239.5C 504.896,245.561 508.23,250.228 513.5,253.5C 515.722,258.56 519.222,262.56 524,265.5C 526.571,267.976 528.071,270.976 528.5,274.5C 523.782,272.823 519.115,271.99 514.5,272C 517.365,277.229 519.532,282.729 521,288.5C 525.24,293.317 529.24,298.317 533,303.5C 535.072,306.971 536.572,310.638 537.5,314.5C 535.692,314.509 534.025,314.009 532.5,313C 530.627,310.791 528.46,308.958 526,307.5C 524.916,321.156 528.249,333.823 536,345.5C 538.428,350.45 540.261,355.617 541.5,361C 539.791,364.872 537.124,365.539 533.5,363C 532,361.5 530.5,360 529,358.5C 528.744,361.557 528.244,364.557 527.5,367.5C 530.585,384.897 533.252,402.23 535.5,419.5C 534.387,423.945 531.721,425.278 527.5,423.5C 525.771,432.311 524.105,441.144 522.5,450C 523.068,455.184 523.735,460.351 524.5,465.5C 524.176,467.569 523.342,467.902 522,466.5C 521.667,467.833 521.333,469.167 521,470.5C 520.439,471.022 519.772,471.355 519,471.5C 517.435,470.048 516.102,468.381 515,466.5C 513.589,469.579 512.089,472.579 510.5,475.5C 504.962,441.054 494.129,408.387 478,377.5C 458.927,345.428 431.76,323.261 396.5,311C 373.482,303.333 349.815,298.999 325.5,298C 302.146,297.152 278.813,297.486 255.5,299C 214.912,301.645 179.578,316.312 149.5,343C 134.93,356.969 123.43,373.135 115,391.5C 102.831,418.342 94.4976,446.342 90,475.5C 89.3333,476.833 88.6667,476.833 88,475.5C 86.7831,472.006 85.2831,468.673 83.5,465.5C 82.2433,467.679 80.7433,469.679 79,471.5C 78.0617,469.512 77.2283,467.512 76.5,465.5C 77.5171,460.022 78.1837,454.356 78.5,448.5C 76.9048,437.378 75.0715,426.378 73,415.5C 71.4875,418.857 68.9875,420.857 65.5,421.5C 64.8333,421.5 64.5,421.167 64.5,420.5C 65.8346,405.449 68.3346,390.449 72,375.5C 72.6667,369.5 72.6667,363.5 72,357.5C 70.9505,356.483 69.7839,356.316 68.5,357C 66.3257,360.37 63.3257,362.203 59.5,362.5C 59.3398,360.801 59.5065,359.134 60,357.5C 64.6077,347.952 68.9411,338.285 73,328.5C 74.5723,321.588 75.4056,314.588 75.5,307.5C 71.4178,308.383 68.0844,310.549 65.5,314C 64.2068,314.49 62.8734,314.657 61.5,314.5C 62.0922,311.309 63.2589,308.309 65,305.5C 69.6667,299.5 74.3333,293.5 79,287.5C 82.347,281.812 84.847,275.812 86.5,269.5C 81.1667,271.167 75.8333,272.833 70.5,274.5C 70.4914,272.692 70.9914,271.025 72,269.5C 79.0304,262.135 86.3637,255.135 94,248.5C 95.7045,244.259 97.5378,240.093 99.5,236C 98.1807,235.805 96.8474,235.972 95.5,236.5C 107.712,224.392 117.712,210.726 125.5,195.5C 134.637,187.216 144.97,180.716 156.5,176C 152.833,175.667 149.167,175.333 145.5,175C 142.751,172.81 143.085,171.143 146.5,170C 157.377,167.558 168.377,165.891 179.5,165C 186.655,163.628 193.655,161.795 200.5,159.5C 200.5,158.5 200.5,157.5 200.5,156.5C 194.639,156.043 188.806,155.376 183,154.5C 182.5,154.167 182,153.833 181.5,153.5C 182.912,152.194 184.579,151.36 186.5,151C 194.054,149.143 201.72,148.31 209.5,148.5C 223.718,150.518 237.718,149.685 251.5,146C 251.833,145.667 252.167,145.333 252.5,145C 248.844,141.837 244.844,139.171 240.5,137C 238.606,135.899 237.939,134.566 238.5,133C 250.756,133.084 262.09,136.418 272.5,143C 278.612,143.909 284.612,143.576 290.5,142C 291.801,138.435 293.301,134.935 295,131.5C 297.795,128.887 300.629,128.887 303.5,131.5C 305.223,135.52 307.223,139.354 309.5,143C 314.833,143.667 320.167,143.667 325.5,143C 334.439,137.526 344.106,134.359 354.5,133.5C 356.5,133.833 358.5,134.167 360.5,134.5C 356.378,137.734 352.045,140.734 347.5,143.5C 346.289,144.274 346.289,145.107 347.5,146C 360.45,149.663 373.616,150.497 387,148.5C 397.021,148.565 406.855,149.898 416.5,152.5C 417.774,153.359 417.608,154.026 416,154.5C 410.172,155.243 404.339,155.91 398.5,156.5C 398.281,157.675 398.614,158.675 399.5,159.5C 402.796,160.765 406.129,161.932 409.5,163C 424.633,165.078 439.633,167.745 454.5,171C 455.925,172.714 455.592,174.047 453.5,175C 450.167,175.333 446.833,175.667 443.5,176C 454.667,180.41 464.667,186.577 473.5,194.5 Z"/></g>
<g><path style="opacity:1" fill="#d5be93" d="M 473.5,194.5 C 464.667,186.577 454.667,180.41 443.5,176C 446.833,175.667 450.167,175.333 453.5,175C 455.592,174.047 455.925,172.714 454.5,171C 439.633,167.745 424.633,165.078 409.5,163C 406.129,161.932 402.796,160.765 399.5,159.5C 398.614,158.675 398.281,157.675 398.5,156.5C 404.339,155.91 410.172,155.243 416,154.5C 417.608,154.026 417.774,153.359 416.5,152.5C 406.855,149.898 397.021,148.565 387,148.5C 373.616,150.497 360.45,149.663 347.5,146C 346.289,145.107 346.289,144.274 347.5,143.5C 352.045,140.734 356.378,137.734 360.5,134.5C 358.5,134.167 356.5,133.833 354.5,133.5C 344.106,134.359 334.439,137.526 325.5,143C 320.167,143.667 314.833,143.667 309.5,143C 307.223,139.354 305.223,135.52 303.5,131.5C 300.629,128.887 297.795,128.887 295,131.5C 293.301,134.935 291.801,138.435 290.5,142C 284.612,143.576 278.612,143.909 272.5,143C 262.09,136.418 250.756,133.084 238.5,133C 237.939,134.566 238.606,135.899 240.5,137C 244.844,139.171 248.844,141.837 252.5,145C 252.167,145.333 251.833,145.667 251.5,146C 237.718,149.685 223.718,150.518 209.5,148.5C 201.72,148.31 194.054,149.143 186.5,151C 184.579,151.36 182.912,152.194 181.5,153.5C 182,153.833 182.5,154.167 183,154.5C 188.806,155.376 194.639,156.043 200.5,156.5C 200.5,157.5 200.5,158.5 200.5,159.5C 193.655,161.795 186.655,163.628 179.5,165C 168.377,165.891 157.377,167.558 146.5,170C 143.085,171.143 142.751,172.81 145.5,175C 149.167,175.333 152.833,175.667 156.5,176C 144.97,180.716 134.637,187.216 125.5,195.5C 125.84,193.321 126.84,191.488 128.5,190C 134.997,184.915 141.997,180.582 149.5,177C 146.666,176.955 144.166,176.121 142,174.5C 141.37,172.097 142.203,170.263 144.5,169C 158.036,165.94 171.702,163.607 185.5,162C 189.894,160.869 194.227,159.535 198.5,158C 192.825,157.406 187.158,156.74 181.5,156C 179.342,154.688 179.009,153.022 180.5,151C 196.286,146.974 212.286,145.807 228.5,147.5C 235.575,147.321 242.575,146.488 249.5,145C 245.333,142.167 241.167,139.333 237,136.5C 236.506,134.866 236.34,133.199 236.5,131.5C 250.532,131.092 263.532,134.592 275.5,142C 279.905,142.696 284.239,142.363 288.5,141C 290.572,137.798 292.072,134.298 293,130.5C 297,126.5 301,126.5 305,130.5C 306.461,134.232 308.294,137.732 310.5,141C 313.107,141.818 315.774,142.318 318.5,142.5C 327.472,139.352 336.472,136.185 345.5,133C 350.775,131.641 356.109,131.308 361.5,132C 362.554,133.388 362.72,134.888 362,136.5C 357.574,138.962 353.407,141.796 349.5,145C 356.073,146.596 362.74,147.429 369.5,147.5C 386.074,145.495 402.407,146.661 418.5,151C 419.991,153.022 419.658,154.688 417.5,156C 412.167,156.667 406.833,157.333 401.5,158C 405.363,159.732 409.363,161.066 413.5,162C 427.298,163.607 440.964,165.94 454.5,169C 458.016,174.079 456.683,176.746 450.5,177C 456.331,180.081 461.998,183.415 467.5,187C 470.118,189.106 472.118,191.606 473.5,194.5 Z"/></g>
<g><path style="opacity:1" fill="#d4af7d" d="M 218.5,272.5 C 209.939,270.461 201.273,269.628 192.5,270C 185.031,273.636 179.364,279.136 175.5,286.5C 169.938,291.568 165.271,297.402 161.5,304C 156.187,305.014 151.52,303.681 147.5,300C 140.564,291.116 137.231,280.949 137.5,269.5C 138.884,237.281 155.551,218.781 187.5,214C 202.677,212.672 217.677,213.672 232.5,217C 259.531,228.576 263.864,245.91 245.5,269C 244.167,269.667 242.833,270.333 241.5,271C 236.534,271.146 231.7,271.979 227,273.5C 224.23,272.652 221.397,272.319 218.5,272.5 Z"/></g>
<g><path style="opacity:1" fill="#d4af7d" d="M 421.5,284.5 C 415.925,272.545 406.592,267.712 393.5,270C 388.84,270.943 384.173,271.777 379.5,272.5C 357.022,276.707 344.355,267.374 341.5,244.5C 342.326,234.018 347.326,226.185 356.5,221C 383.304,209.438 409.971,209.771 436.5,222C 445.925,227.423 452.425,235.256 456,245.5C 456.845,255.218 458.011,264.885 459.5,274.5C 460.136,282.396 457.136,288.562 450.5,293C 445.644,295.26 441.311,298.26 437.5,302C 435.888,302.72 434.388,302.554 433,301.5C 430.591,294.624 426.758,288.958 421.5,284.5 Z"/></g>
<g><path style="opacity:1" fill="#ccb890" d="M 49.5,215.5 C 52.9203,217.464 54.4203,220.464 54,224.5C 52.806,226.525 51.306,226.859 49.5,225.5C 47.3821,226.946 45.0488,227.613 42.5,227.5C 43.7725,222.965 46.1058,218.965 49.5,215.5 Z"/></g>
<g><path style="opacity:1" fill="#d9c398" d="M 547.5,215.5 C 552.116,218.428 555.116,222.428 556.5,227.5C 553.843,227.838 551.51,227.171 549.5,225.5C 548.808,226.025 548.308,226.692 548,227.5C 546.926,226.382 545.76,225.382 544.5,224.5C 546.105,221.686 547.105,218.686 547.5,215.5 Z"/></g>
<g><path style="opacity:1" fill="#dac499" d="M 54.5,230.5 C 56.1206,236.528 59.454,241.695 64.5,246C 68.4423,246.993 72.4423,247.66 76.5,248C 70.258,253.571 64.758,259.738 60,266.5C 57.0505,273.941 58.5505,280.274 64.5,285.5C 61.3333,289.833 58.1667,294.167 55,298.5C 50.4058,305.706 49.4058,313.372 52,321.5C 54.5018,324.202 57.3351,326.369 60.5,328C 55.3802,337.409 51.2136,347.242 48,357.5C 46.1256,367.113 49.959,372.78 59.5,374.5C 56.8031,387.878 54.8031,401.378 53.5,415C 53.7944,419.344 54.7944,423.511 56.5,427.5C 56.1592,430.187 54.8258,432.187 52.5,433.5C 51.8076,432.975 51.3076,432.308 51,431.5C 50.8333,429.333 50.6667,427.167 50.5,425C 51.7813,415.697 52.7813,406.364 53.5,397C 53.1667,388.499 51.5,380.332 48.5,372.5C 46.0077,375.163 43.6744,377.996 41.5,381C 39.8876,381.72 38.3876,381.554 37,380.5C 37.1287,366.266 39.1287,352.266 43,338.5C 43.4997,330.173 43.6664,321.84 43.5,313.5C 38.9147,315.431 34.5814,317.765 30.5,320.5C 30.3011,317.059 30.8011,313.726 32,310.5C 36.255,302.991 40.255,295.324 44,287.5C 46.1046,278.933 47.6046,270.267 48.5,261.5C 43.1667,264.167 37.8333,266.833 32.5,269.5C 33.7699,263.381 36.6032,258.048 41,253.5C 43.4254,247.392 47.092,242.058 52,237.5C 53.4114,235.35 54.2447,233.016 54.5,230.5 Z"/></g>
<g><path style="opacity:1" fill="#dbc599" d="M 546.5,392.5 C 545.833,395.833 545.167,399.167 544.5,402.5C 543.535,393.51 541.868,384.677 539.5,376C 548.094,374.737 552.427,369.737 552.5,361C 550.264,349.027 545.931,337.861 539.5,327.5C 547.631,323.317 550.464,316.651 548,307.5C 544.951,299.283 540.451,291.95 534.5,285.5C 540.515,279.928 542.015,273.261 539,265.5C 535.034,260.533 530.701,255.866 526,251.5C 525.691,250.234 525.191,249.067 524.5,248C 536.314,246.853 542.814,240.353 544,228.5C 546.028,236.883 550.362,243.883 557,249.5C 557.617,250.449 557.451,251.282 556.5,252C 561.541,256.923 564.875,262.756 566.5,269.5C 565.127,269.657 563.793,269.49 562.5,269C 559.18,266.006 555.513,263.506 551.5,261.5C 551.45,270.222 552.617,278.889 555,287.5C 559.333,296.167 563.667,304.833 568,313.5C 568.497,315.81 568.663,318.143 568.5,320.5C 565.213,319.736 562.546,317.903 560.5,315C 558.975,313.991 557.308,313.491 555.5,313.5C 555.334,320.841 555.5,328.174 556,335.5C 557.998,346.155 559.998,356.822 562,367.5C 562.499,372.155 562.666,376.821 562.5,381.5C 557.733,380.912 554.566,378.245 553,373.5C 552.282,372.549 551.449,372.383 550.5,373C 548.211,379.278 546.878,385.778 546.5,392.5 Z"/></g>
<g><path style="opacity:1" fill="#010100" d="M 218.5,272.5 C 214.399,288.409 204.066,295.576 187.5,294C 183.951,293.226 180.618,291.893 177.5,290C 176.177,289.184 175.511,288.017 175.5,286.5C 179.364,279.136 185.031,273.636 192.5,270C 201.273,269.628 209.939,270.461 218.5,272.5 Z"/></g>
<g><path style="opacity:1" fill="#010100" d="M 421.5,284.5 C 422.8,285.601 423.3,286.934 423,288.5C 408.594,297.76 395.594,296.093 384,283.5C 381.934,280.039 380.434,276.373 379.5,272.5C 384.173,271.777 388.84,270.943 393.5,270C 406.592,267.712 415.925,272.545 421.5,284.5 Z"/></g>
<g><path style="opacity:1" fill="#d4be93" d="M 505.5,238.5 C 508.125,239.466 508.125,240.466 505.5,241.5C 507.754,246.587 511.254,250.587 516,253.5C 516.333,254.5 516.667,255.5 517,256.5C 521.701,260.866 526.034,265.533 530,270.5C 530.743,272.441 530.576,274.274 529.5,276C 525.777,276.158 522.11,275.658 518.5,274.5C 518.167,274.833 517.833,275.167 517.5,275.5C 519.891,279.613 521.724,283.946 523,288.5C 528.431,293.928 533.098,299.928 537,306.5C 538.199,309.726 538.699,313.059 538.5,316.5C 533.887,316.067 530.054,314.067 527,310.5C 526.709,318.417 528.042,326.084 531,333.5C 536.197,342.089 540.03,351.256 542.5,361C 542.67,364.155 541.17,365.655 538,365.5C 534.667,365.5 532,364.167 530,361.5C 529.333,367.167 529.333,372.833 530,378.5C 533.564,391.946 535.397,405.613 535.5,419.5C 533.252,402.23 530.585,384.897 527.5,367.5C 528.244,364.557 528.744,361.557 529,358.5C 530.5,360 532,361.5 533.5,363C 537.124,365.539 539.791,364.872 541.5,361C 540.261,355.617 538.428,350.45 536,345.5C 528.249,333.823 524.916,321.156 526,307.5C 528.46,308.958 530.627,310.791 532.5,313C 534.025,314.009 535.692,314.509 537.5,314.5C 536.572,310.638 535.072,306.971 533,303.5C 529.24,298.317 525.24,293.317 521,288.5C 519.532,282.729 517.365,277.229 514.5,272C 519.115,271.99 523.782,272.823 528.5,274.5C 528.071,270.976 526.571,267.976 524,265.5C 519.222,262.56 515.722,258.56 513.5,253.5C 508.23,250.228 504.896,245.561 503.5,239.5C 503.957,238.702 504.624,238.369 505.5,238.5 Z"/></g>
<g><path style="opacity:1" fill="#d5be93" d="M 64.5,420.5 C 63.925,418.924 63.5916,417.258 63.5,415.5C 64.8669,402.366 67.0336,389.366 70,376.5C 70.6667,370.5 70.6667,364.5 70,358.5C 67.3154,362.927 63.4821,364.76 58.5,364C 57.7453,360.128 58.2453,356.295 60,352.5C 68.0105,339.803 72.8439,325.969 74.5,311C 74.3333,310.5 74.1667,310 74,309.5C 71.1667,311.667 68.3333,313.833 65.5,316C 63.8659,316.494 62.1992,316.66 60.5,316.5C 59.9699,311.713 61.1366,307.38 64,303.5C 68.6667,297.5 73.3333,291.5 78,285.5C 80.3109,281.046 82.4776,276.546 84.5,272C 80.3768,273.297 76.2101,274.797 72,276.5C 68.8358,276.233 67.8358,274.567 69,271.5C 75.3333,262.5 83,254.833 92,248.5C 93.6395,245.258 94.6395,241.924 95,238.5C 92.0115,239.183 92.1782,238.516 95.5,236.5C 96.8474,235.972 98.1807,235.805 99.5,236C 97.5378,240.093 95.7045,244.259 94,248.5C 86.3637,255.135 79.0304,262.135 72,269.5C 70.9914,271.025 70.4914,272.692 70.5,274.5C 75.8333,272.833 81.1667,271.167 86.5,269.5C 84.847,275.812 82.347,281.812 79,287.5C 74.3333,293.5 69.6667,299.5 65,305.5C 63.2589,308.309 62.0922,311.309 61.5,314.5C 62.8734,314.657 64.2068,314.49 65.5,314C 68.0844,310.549 71.4178,308.383 75.5,307.5C 75.4056,314.588 74.5723,321.588 73,328.5C 68.9411,338.285 64.6077,347.952 60,357.5C 59.5065,359.134 59.3398,360.801 59.5,362.5C 63.3257,362.203 66.3257,360.37 68.5,357C 69.7839,356.316 70.9505,356.483 72,357.5C 72.6667,363.5 72.6667,369.5 72,375.5C 68.3346,390.449 65.8346,405.449 64.5,420.5 Z"/></g>
<g><path style="opacity:1" fill="#80715a" d="M 315.5,307.5 C 326.378,307.796 337.044,308.796 347.5,310.5C 346.448,310.351 345.448,310.517 344.5,311C 418.243,318.415 465.743,357.582 487,428.5C 493.408,448.042 497.575,468.042 499.5,488.5C 499.208,493.509 498.874,498.509 498.5,503.5C 491.79,529.708 475.124,546.208 448.5,553C 438.508,554.693 428.674,556.527 419,558.5C 417.916,556.218 416.416,555.884 414.5,557.5C 394.505,555.237 374.505,552.07 354.5,548C 336.14,543.102 317.973,537.602 300,531.5C 280.763,538.134 261.263,543.967 241.5,549C 222.139,552.646 202.805,555.48 183.5,557.5C 160.913,558.075 140.246,551.908 121.5,539C 110.77,529.374 103.77,517.541 100.5,503.5C 99.3347,494.518 99.168,485.518 100,476.5C 103.339,455.138 108.839,434.471 116.5,414.5C 116.369,415.239 116.536,415.906 117,416.5C 137.356,357.814 178.189,323.314 239.5,313C 264.862,309.44 290.195,307.606 315.5,307.5 Z"/></g>
<g><path style="opacity:1" fill="#010100" d="M 292.5,362.5 C 302.534,362.907 312.534,363.741 322.5,365C 349.875,370.919 360.042,387.419 353,414.5C 346.439,429.394 335.606,439.894 320.5,446C 309.465,451.178 298.132,452.178 286.5,449C 271.925,444.298 260.092,435.798 251,423.5C 243.237,409.782 242.571,395.782 249,381.5C 254.631,373.756 262.131,368.59 271.5,366C 278.602,364.584 285.602,363.417 292.5,362.5 Z"/></g>
<g><path style="opacity:1" fill="#917959" d="M 315.5,307.5 C 290.195,307.606 264.862,309.44 239.5,313C 178.189,323.314 137.356,357.814 117,416.5C 116.536,415.906 116.369,415.239 116.5,414.5C 136.619,357.225 176.619,323.058 236.5,312C 262.679,308.007 289.013,306.507 315.5,307.5 Z"/></g>
<g><path style="opacity:1" fill="#997e5c" d="M 347.5,310.5 C 409.599,315.436 453.432,346.103 479,402.5C 492.975,433.726 499.975,466.393 500,500.5C 499.768,501.737 499.268,502.737 498.5,503.5C 498.874,498.509 499.208,493.509 499.5,488.5C 497.575,468.042 493.408,448.042 487,428.5C 465.743,357.582 418.243,318.415 344.5,311C 345.448,310.517 346.448,310.351 347.5,310.5 Z"/></g>
<g><path style="opacity:1" fill="#807259" d="M 546.5,392.5 C 546.5,396.833 546.5,401.167 546.5,405.5C 546.167,405.5 545.833,405.5 545.5,405.5C 544.89,404.609 544.557,403.609 544.5,402.5C 545.167,399.167 545.833,395.833 546.5,392.5 Z"/></g>
<g><path style="opacity:1" fill="#cfba90" d="M 545.5,405.5 C 545.833,405.5 546.167,405.5 546.5,405.5C 548.329,414.413 548.829,423.413 548,432.5C 547.586,432.957 547.086,433.291 546.5,433.5C 544.774,431.772 543.441,429.772 542.5,427.5C 545.236,420.459 546.236,413.126 545.5,405.5 Z"/></g>
<g><path style="opacity:1" fill="#d6be93" d="M 76.5,465.5 C 75.8623,460.047 76.1956,454.547 77.5,449C 75.6081,439.477 73.7748,429.977 72,420.5C 69.8954,423.76 67.7287,424.094 65.5,421.5C 68.9875,420.857 71.4875,418.857 73,415.5C 75.0715,426.378 76.9048,437.378 78.5,448.5C 78.1837,454.356 77.5171,460.022 76.5,465.5 Z"/></g>
<g><path style="opacity:1" fill="#0a0705" d="M 219.5,444.5 C 227.33,443.495 230.496,446.828 229,454.5C 224.162,460.036 219.829,459.703 216,453.5C 215.043,449.639 216.21,446.639 219.5,444.5 Z"/></g>
<g><path style="opacity:1" fill="#070504" d="M 373.5,444.5 C 383.027,444.018 385.693,448.018 381.5,456.5C 373.143,459.545 369.643,456.545 371,447.5C 372.045,446.627 372.878,445.627 373.5,444.5 Z"/></g>
<g><path style="opacity:1" fill="#0a0806" d="M 180.5,446.5 C 187.978,446.485 190.811,450.152 189,457.5C 181.079,462.918 176.746,460.918 176,451.5C 177.025,449.313 178.525,447.646 180.5,446.5 Z"/></g>
<g><path style="opacity:1" fill="#080504" d="M 413.5,446.5 C 422.633,446.77 425.299,450.937 421.5,459C 413.398,461.895 409.565,459.062 410,450.5C 411.376,449.295 412.542,447.962 413.5,446.5 Z"/></g>
<g><path style="opacity:1" fill="#080604" d="M 155.5,475.5 C 165.027,475.018 167.693,479.018 163.5,487.5C 159.807,490.407 156.474,490.073 153.5,486.5C 151.762,482.31 152.429,478.643 155.5,475.5 Z"/></g>
<g><path style="opacity:1" fill="#070504" d="M 437.5,475.5 C 443.093,474.451 446.426,476.617 447.5,482C 446.306,488.149 442.639,490.149 436.5,488C 432.334,483.368 432.667,479.202 437.5,475.5 Z"/></g>
<g><path style="opacity:1" fill="#080605" d="M 196.5,478.5 C 204.33,477.495 207.496,480.828 206,488.5C 201.069,494.172 196.735,493.839 193,487.5C 192.043,483.639 193.21,480.639 196.5,478.5 Z"/></g>
<g><path style="opacity:1" fill="#090605" d="M 396.5,478.5 C 405.702,478.248 408.369,482.248 404.5,490.5C 397.932,494.349 393.932,492.516 392.5,485C 393.25,482.429 394.583,480.262 396.5,478.5 Z"/></g>
<g><path style="opacity:1" fill="#090605" d="M 235.5,484.5 C 244.89,485.781 246.89,490.281 241.5,498C 234.369,499.529 230.869,496.696 231,489.5C 232.366,487.638 233.866,485.972 235.5,484.5 Z"/></g>
<g><path style="opacity:1" fill="#090705" d="M 360.5,484.5 C 369.017,486.402 370.683,490.902 365.5,498C 361.102,499.378 357.602,498.212 355,494.5C 354.001,489.491 355.834,486.158 360.5,484.5 Z"/></g>
<g><path style="opacity:1" fill="#090605" d="M 181.5,511.5 C 188.187,511.023 191.354,514.023 191,520.5C 189.287,525.038 186.12,526.538 181.5,525C 177.876,522.839 176.709,519.672 178,515.5C 179.102,514.051 180.269,512.718 181.5,511.5 Z"/></g>
<g><path style="opacity:1" fill="#090605" d="M 412.5,511.5 C 419.187,511.023 422.354,514.023 422,520.5C 420.287,525.038 417.12,526.538 412.5,525C 408.876,522.839 407.709,519.672 409,515.5C 410.102,514.051 411.269,512.718 412.5,511.5 Z"/></g>
<g><path style="opacity:1" fill="#8d7656" d="M 414.5,557.5 C 377.877,556.01 342.544,548.51 308.5,535C 305.567,534.107 302.567,533.607 299.5,533.5C 281.064,539.611 262.398,545.111 243.5,550C 223.718,554.306 203.718,556.806 183.5,557.5C 202.805,555.48 222.139,552.646 241.5,549C 261.263,543.967 280.763,538.134 300,531.5C 317.973,537.602 336.14,543.102 354.5,548C 374.505,552.07 394.505,555.237 414.5,557.5 Z"/></g>
<g><path style="opacity:1" fill="#c9a678" d="M 317.5,599.5 C 316.5,599.5 315.5,599.5 314.5,599.5C 313.912,594.305 312.578,589.305 310.5,584.5C 309.335,583.416 308.002,582.583 306.5,582C 301.167,581.333 295.833,581.333 290.5,582C 289.333,583.167 288.167,584.333 287,585.5C 285.844,590.122 285.01,594.789 284.5,599.5C 283.167,599.5 281.833,599.5 280.5,599.5C 279.013,595.855 277.513,592.188 276,588.5C 274.5,585.667 272.333,583.5 269.5,582C 263.027,579.39 256.36,578.057 249.5,578C 248.695,582.749 248.195,587.582 248,592.5C 247.586,592.957 247.086,593.291 246.5,593.5C 244.239,592.318 242.405,590.651 241,588.5C 236.197,575.848 227.031,569.848 213.5,570.5C 214.486,574.443 215.152,578.443 215.5,582.5C 214.127,582.657 212.793,582.49 211.5,582C 207.019,577.365 203.019,572.365 199.5,567C 233.771,562.931 267.105,555.098 299.5,543.5C 316.648,549.159 333.981,554.326 351.5,559C 367.036,562.423 382.703,565.089 398.5,567C 395.667,571.167 392.833,575.333 390,579.5C 388.266,581.451 386.099,582.451 383.5,582.5C 383.927,578.176 384.261,573.842 384.5,569.5C 379.386,570.195 374.386,571.362 369.5,573C 363.692,577.763 359.192,583.596 356,590.5C 354.54,593.21 352.54,593.876 350,592.5C 349.501,588.984 349.667,585.484 350.5,582C 350.325,580.342 349.658,579.009 348.5,578C 341.718,578.465 335.051,579.799 328.5,582C 323.697,587.103 320.03,592.936 317.5,599.5 Z"/></g>
<g><path style="opacity:1" fill="#b9996e" d="M 175.5,568.5 C 177.265,567.539 179.265,567.205 181.5,567.5C 181.5,568.5 181.5,569.5 181.5,570.5C 179.297,570.396 177.297,569.73 175.5,568.5 Z"/></g>
<g><path style="opacity:1" fill="#ab8e66" d="M 416.5,567.5 C 418.527,567.338 420.527,567.505 422.5,568C 421.022,570.039 419.022,570.872 416.5,570.5C 416.5,569.5 416.5,568.5 416.5,567.5 Z"/></g>
<g><path style="opacity:0.976" fill="#050402" d="M 314.5,599.5 C 310.833,599.5 307.167,599.5 303.5,599.5C 303.167,596.833 302.833,594.167 302.5,591.5C 300.473,591.338 298.473,591.505 296.5,592C 295.645,594.436 294.979,596.936 294.5,599.5C 291.167,599.5 287.833,599.5 284.5,599.5C 285.01,594.789 285.844,590.122 287,585.5C 288.167,584.333 289.333,583.167 290.5,582C 295.833,581.333 301.167,581.333 306.5,582C 308.002,582.583 309.335,583.416 310.5,584.5C 312.578,589.305 313.912,594.305 314.5,599.5 Z"/></g>
</svg>
