<?xml version="1.0" encoding="UTF-8"?>
<!DOCTYPE svg PUBLIC "-//W3C//DTD SVG 1.1//EN" "http://www.w3.org/Graphics/SVG/1.1/DTD/svg11.dtd">
<svg xmlns="http://www.w3.org/2000/svg" version="1.1" width="600px" height="600px" style="shape-rendering:geometricPrecision; text-rendering:geometricPrecision; image-rendering:optimizeQuality; fill-rule:evenodd; clip-rule:evenodd" xmlns:xlink="http://www.w3.org/1999/xlink">
<g><path style="opacity:0.955" fill="#020202" d="M 599.5,367.5 C 599.5,399.5 599.5,431.5 599.5,463.5C 597.794,469.886 594.294,475.219 589,479.5C 584.472,489.418 580.139,499.418 576,509.5C 571.553,517.611 564.72,522.111 555.5,523C 541.453,530.182 526.787,535.682 511.5,539.5C 503.82,538.326 496.82,535.492 490.5,531C 485.273,528.869 479.94,527.035 474.5,525.5C 469.703,531.129 464.369,536.296 458.5,541C 455.563,542.661 452.563,543.161 449.5,542.5C 445.085,550.397 438.419,555.564 429.5,558C 421.318,561.914 413.984,560.747 407.5,554.5C 386.518,572.314 362.185,582.48 334.5,585C 300.912,589.149 267.912,586.482 235.5,577C 221.566,572.038 209.233,564.538 198.5,554.5C 192.787,560.094 186.12,561.594 178.5,559C 173.38,556.94 168.38,554.607 163.5,552C 160.269,549.433 157.769,546.266 156,542.5C 151.759,543.202 147.925,542.035 144.5,539C 139.231,534.07 134.398,528.904 130,523.5C 115.92,528.357 102.087,533.69 88.5,539.5C 83.4639,538.491 78.4639,537.324 73.5,536C 60.4742,529.881 47.1409,524.547 33.5,520C 29.6667,517.5 26.5,514.333 24,510.5C 19.1394,500.251 14.4728,489.917 10,479.5C 4.42469,474.997 0.924692,469.331 -0.5,462.5C -0.5,431.167 -0.5,399.833 -0.5,368.5C 1.74157,359.886 2.0749,351.052 0.5,342C 3.31636,326.217 8.1497,311.05 15,296.5C 15.8432,285.951 17.8432,275.617 21,265.5C 26.1206,253.258 31.7872,241.258 38,229.5C 39.6069,220.318 41.9402,211.318 45,202.5C 52.6132,191.22 60.6132,180.22 69,169.5C 71.1312,163.976 72.7979,158.309 74,152.5C 75.4131,149.339 77.0797,146.339 79,143.5C 88.3333,132.833 98.3333,122.833 109,113.5C 111.845,104.989 116.679,97.8222 123.5,92C 130.666,87.2491 138,82.7491 145.5,78.5C 143.642,71.246 145.975,65.746 152.5,62C 162.046,59.1576 171.712,56.8243 181.5,55C 179.84,46.2853 183.506,40.9519 192.5,39C 206.632,35.1321 220.965,33.6321 235.5,34.5C 232.403,23.7345 236.57,17.7345 248,16.5C 260.246,17.9137 271.413,22.0804 281.5,29C 283.134,29.4935 284.801,29.6602 286.5,29.5C 289.181,14.8281 297.514,9.99472 311.5,15C 315.831,18.4918 318.497,22.9918 319.5,28.5C 320.333,28.8333 321.167,29.1667 322,29.5C 327.882,26.8092 333.715,23.9759 339.5,21C 345.42,19.1866 351.42,17.6866 357.5,16.5C 369.101,17.7145 373.434,23.7145 370.5,34.5C 386.089,33.8066 401.423,35.6399 416.5,40C 423.419,42.8425 426.086,47.8425 424.5,55C 433.143,56.9959 441.809,58.9959 450.5,61C 459.953,65.0673 462.953,71.9006 459.5,81.5C 468.804,87.6383 477.971,93.9716 487,100.5C 490.235,104.794 491.569,109.461 491,114.5C 500.304,122.803 509.304,131.469 518,140.5C 523.659,147.463 526.992,155.463 528,164.5C 533.103,174.376 539.437,183.376 547,191.5C 550.252,196.334 553.252,201.334 556,206.5C 557.505,213.883 559.172,221.216 561,228.5C 567.274,241.38 573.274,254.38 579,267.5C 581.442,276.703 583.109,286.036 584,295.5C 589.795,308.427 594.462,321.76 598,335.5C 598.595,341.847 598.428,348.181 597.5,354.5C 597.771,359.036 598.438,363.369 599.5,367.5 Z"/></g>
<g><path style="opacity:1" fill="#f5f5f5" d="M 441.5,85.5 C 448.961,92.2244 457.628,96.8911 467.5,99.5C 471.864,102.111 476.031,105.111 480,108.5C 480.725,110.157 480.225,111.157 478.5,111.5C 474.168,110.903 469.835,110.737 465.5,111C 473.535,122.366 483.535,131.7 495.5,139C 498.333,141.833 501.167,144.667 504,147.5C 505.009,149.025 505.509,150.692 505.5,152.5C 500.217,151.293 495.217,149.293 490.5,146.5C 490.167,147.167 489.833,147.833 489.5,148.5C 491.728,153.289 494.228,157.955 497,162.5C 506.55,171.21 514.384,181.21 520.5,192.5C 519.652,194.283 518.319,194.783 516.5,194C 513.337,191.584 510.004,189.418 506.5,187.5C 506.167,188.333 505.833,189.167 505.5,190C 506.899,195.635 508.733,201.135 511,206.5C 516.853,215.54 522.186,224.873 527,234.5C 527.814,236.902 527.647,239.235 526.5,241.5C 523.349,238.85 520.349,236.016 517.5,233C 516.552,232.517 515.552,232.351 514.5,232.5C 514.722,250.171 518.888,266.838 527,282.5C 529.371,287.339 529.871,292.339 528.5,297.5C 525.5,294.833 522.5,292.167 519.5,289.5C 519.167,293.333 518.833,297.167 518.5,301C 519.396,316.605 521.229,332.105 524,347.5C 524.667,353.5 524.667,359.5 524,365.5C 523.282,366.451 522.449,366.617 521.5,366C 519.455,363.414 517.789,360.58 516.5,357.5C 515.675,356.614 514.675,356.281 513.5,356.5C 512.446,365.993 511.446,375.493 510.5,385C 512.279,396.781 513.113,408.615 513,420.5C 512.667,421.5 512.333,422.5 512,423.5C 511.333,424.833 510.667,424.833 510,423.5C 508,418.167 506,412.833 504,407.5C 503.23,406.402 502.397,406.402 501.5,407.5C 501.5,406.833 501.5,406.167 501.5,405.5C 518.57,340.58 513.737,277.247 487,215.5C 463.832,168.995 427.332,138.495 377.5,124C 361.939,120.512 346.439,120.678 331,124.5C 310.794,133.047 298.127,148.047 293,169.5C 290.403,179.68 288.736,190.013 288,200.5C 287.223,217.855 287.556,235.189 289,252.5C 291.183,269.263 293.683,285.929 296.5,302.5C 237.2,305.005 193.033,332.005 164,383.5C 146.898,417.817 136.898,454.15 134,492.5C 130.811,482.041 128.478,471.374 127,460.5C 124.94,455.38 122.607,450.38 120,445.5C 119.333,444.167 118.667,444.167 118,445.5C 117.162,450.875 116.162,456.208 115,461.5C 113.442,462.345 112.442,461.679 112,459.5C 110.151,447.568 108.818,435.568 108,423.5C 107.072,418.053 105.739,412.72 104,407.5C 103.333,406.167 102.667,406.167 102,407.5C 99.8043,412.42 97.8043,417.42 96,422.5C 95.586,422.957 95.086,423.291 94.5,423.5C 93.4039,420.257 92.7372,416.924 92.5,413.5C 93.6831,404.019 94.6831,394.519 95.5,385C 95.0867,374.916 93.5867,365.083 91,355.5C 90.3333,356.167 89.6667,356.833 89,357.5C 87.6541,360.87 85.8208,363.87 83.5,366.5C 82.914,366.291 82.414,365.957 82,365.5C 81.8333,362.833 81.6667,360.167 81.5,357.5C 82.6798,343.087 84.5131,328.754 87,314.5C 87.4997,306.173 87.6664,297.84 87.5,289.5C 86.448,289.351 85.448,289.517 84.5,290C 76.9165,300.195 74.7498,298.695 78,285.5C 86.0915,269.468 90.5915,252.468 91.5,234.5C 91.1667,233.5 90.8333,232.5 90.5,231.5C 86.7261,233.771 83.3928,236.604 80.5,240C 79.552,240.483 78.552,240.649 77.5,240.5C 78.4372,235.19 80.2705,230.19 83,225.5C 87.25,219.335 91.25,213.002 95,206.5C 97.7535,200.409 99.5868,194.076 100.5,187.5C 96.6189,188.774 92.9522,190.607 89.5,193C 88.2068,193.49 86.8734,193.657 85.5,193.5C 86.6209,189.526 88.4543,185.86 91,182.5C 100.479,172.693 108.812,162.026 116,150.5C 116.49,149.207 116.657,147.873 116.5,146.5C 112.422,147.702 108.422,149.202 104.5,151C 103.056,151.781 101.723,151.614 100.5,150.5C 103.608,145.888 107.275,141.722 111.5,138C 122.963,131.201 132.463,122.368 140,111.5C 140.432,110.4 139.932,109.733 138.5,109.5C 134.209,110.493 129.876,111.16 125.5,111.5C 126.091,108.386 127.758,105.886 130.5,104C 139.167,100 147.833,96 156.5,92C 160.975,89.3501 164.975,86.1834 168.5,82.5C 170.145,81.5213 171.479,80.188 172.5,78.5C 167.533,77.671 162.533,77.171 157.5,77C 153.675,75.2317 153.675,73.2317 157.5,71C 169.313,67.7512 181.313,65.4179 193.5,64C 199.282,62.6306 204.615,60.2973 209.5,57C 208.377,55.9563 207.044,55.2896 205.5,55C 200.718,54.8814 196.051,54.2148 191.5,53C 191.043,52.586 190.709,52.086 190.5,51.5C 196.918,47.6449 203.918,45.8116 211.5,46C 220.344,45.3838 229.178,45.5504 238,46.5C 244.485,45.4544 250.985,44.4544 257.5,43.5C 257.649,42.448 257.483,41.448 257,40.5C 253.185,36.9284 249.185,33.5951 245,30.5C 244.517,29.552 244.351,28.552 244.5,27.5C 256.906,27.3727 267.906,31.206 277.5,39C 282.5,39.6667 287.5,39.6667 292.5,39C 294.887,34.3282 297.053,29.4949 299,24.5C 302.525,22.8097 305.525,23.4764 308,26.5C 309.276,30.7823 310.776,34.949 312.5,39C 317.882,40.5716 323.216,40.5716 328.5,39C 338.125,31.1859 349.125,27.3526 361.5,27.5C 361.649,28.552 361.483,29.552 361,30.5C 357,33.8333 353,37.1667 349,40.5C 348.251,41.635 348.417,42.635 349.5,43.5C 361.315,46.7185 373.315,47.3851 385.5,45.5C 395.067,45.6227 404.401,47.1227 413.5,50C 416.096,51.7972 415.763,53.1305 412.5,54C 392.26,54.4444 391.593,57.7777 410.5,64C 422.179,65.9067 433.846,67.9067 445.5,70C 448.093,70.6063 449.76,72.1063 450.5,74.5C 450.182,75.6473 449.516,76.4806 448.5,77C 443.511,77.4993 438.511,77.6659 433.5,77.5C 433.351,78.552 433.517,79.552 434,80.5C 436.4,82.4146 438.9,84.0812 441.5,85.5 Z"/></g>
<g><path style="opacity:1" fill="#e8e8e8" d="M 168.5,82.5 C 164.975,86.1834 160.975,89.3501 156.5,92C 147.833,96 139.167,100 130.5,104C 127.758,105.886 126.091,108.386 125.5,111.5C 129.876,111.16 134.209,110.493 138.5,109.5C 139.932,109.733 140.432,110.4 140,111.5C 132.463,122.368 122.963,131.201 111.5,138C 107.275,141.722 103.608,145.888 100.5,150.5C 101.723,151.614 103.056,151.781 104.5,151C 108.422,149.202 112.422,147.702 116.5,146.5C 116.657,147.873 116.49,149.207 116,150.5C 108.812,162.026 100.479,172.693 91,182.5C 88.4543,185.86 86.6209,189.526 85.5,193.5C 86.8734,193.657 88.2068,193.49 89.5,193C 92.9522,190.607 96.6189,188.774 100.5,187.5C 99.5868,194.076 97.7535,200.409 95,206.5C 91.25,213.002 87.25,219.335 83,225.5C 80.2705,230.19 78.4372,235.19 77.5,240.5C 78.552,240.649 79.552,240.483 80.5,240C 83.3928,236.604 86.7261,233.771 90.5,231.5C 90.8333,232.5 91.1667,233.5 91.5,234.5C 90.5915,252.468 86.0915,269.468 78,285.5C 74.7498,298.695 76.9165,300.195 84.5,290C 85.448,289.517 86.448,289.351 87.5,289.5C 87.6664,297.84 87.4997,306.173 87,314.5C 84.5131,328.754 82.6798,343.087 81.5,357.5C 81.6667,360.167 81.8333,362.833 82,365.5C 82.414,365.957 82.914,366.291 83.5,366.5C 85.8208,363.87 87.6541,360.87 89,357.5C 89.6667,356.833 90.3333,356.167 91,355.5C 93.5867,365.083 95.0867,374.916 95.5,385C 94.6831,394.519 93.6831,404.019 92.5,413.5C 92.7372,416.924 93.4039,420.257 94.5,423.5C 95.086,423.291 95.586,422.957 96,422.5C 97.8043,417.42 99.8043,412.42 102,407.5C 102.667,406.167 103.333,406.167 104,407.5C 105.739,412.72 107.072,418.053 108,423.5C 108.818,435.568 110.151,447.568 112,459.5C 112.442,461.679 113.442,462.345 115,461.5C 116.162,456.208 117.162,450.875 118,445.5C 118.667,444.167 119.333,444.167 120,445.5C 122.607,450.38 124.94,455.38 127,460.5C 128.478,471.374 130.811,482.041 134,492.5C 136.898,454.15 146.898,417.817 164,383.5C 193.033,332.005 237.2,305.005 296.5,302.5C 297.578,306.747 300.245,309.581 304.5,311C 369.423,314.693 414.923,346.193 441,405.5C 446.661,418.816 451.328,432.483 455,446.5C 458.792,450.128 463.292,451.294 468.5,450C 481.679,444.653 491.013,435.487 496.5,422.5C 497.338,422.842 497.672,423.508 497.5,424.5C 496.804,435.169 495.97,445.836 495,456.5C 494.529,458.246 493.862,459.913 493,461.5C 492.333,462.833 491.667,462.833 491,461.5C 489.343,455.831 488.01,450.165 487,444.5C 484.412,448.674 482.079,453.007 480,457.5C 476.475,475.963 472.641,494.296 468.5,512.5C 465.019,520.984 459.352,527.651 451.5,532.5C 449.112,526.779 447.946,520.779 448,514.5C 446.691,516.976 444.858,518.976 442.5,520.5C 442.041,527.741 440.541,534.741 438,541.5C 436.269,543.617 434.102,545.117 431.5,546C 427.26,547.971 422.927,549.305 418.5,550C 414.837,546.867 412.004,543.034 410,538.5C 409.439,537.978 408.772,537.645 408,537.5C 399.399,549.554 388.232,558.387 374.5,564C 356.913,571.313 338.579,575.313 319.5,576C 292.68,577.904 266.347,575.238 240.5,568C 222.921,562.228 208.587,552.061 197.5,537.5C 194.387,541.787 191.054,545.953 187.5,550C 180.497,549.092 173.997,546.592 168,542.5C 165.542,535.378 164.042,528.045 163.5,520.5C 161.142,518.976 159.309,516.976 158,514.5C 157.165,520.514 156.332,526.514 155.5,532.5C 151.996,531.188 148.83,529.188 146,526.5C 141.221,521.279 137.721,515.279 135.5,508.5C 120.982,514.55 106.648,521.05 92.5,528C 86.6612,528.849 80.9946,528.183 75.5,526C 63.6363,519.824 51.3029,514.824 38.5,511C 36.6667,509.167 34.8333,507.333 33,505.5C 28.6667,495.5 24.3333,485.5 20,475.5C 17.6758,472.177 15.0092,469.177 12,466.5C 11.5291,464.754 10.8624,463.087 10,461.5C 8.78524,448.207 8.11857,434.874 8,421.5C 7.57814,417.991 6.57814,414.657 5,411.5C 4.83333,408.667 4.66667,405.833 4.5,403C 5.50523,390.306 7.6719,377.806 11,365.5C 11.3333,354.833 11.6667,344.167 12,333.5C 15.607,322.678 19.607,312.012 24,301.5C 26.3528,291.209 28.3528,280.876 30,270.5C 37.2745,254.951 44.2745,239.285 51,223.5C 50.9869,217.945 51.9869,212.612 54,207.5C 62.2447,196.677 70.2447,185.677 78,174.5C 80.4215,169.062 82.0882,163.395 83,157.5C 85,154.167 87,150.833 89,147.5C 97.6964,138.469 106.696,129.803 116,121.5C 120.962,108.204 129.795,98.3705 142.5,92C 150.682,87.4049 159.348,84.2382 168.5,82.5 Z"/></g>
<g><path style="opacity:1" fill="#51392f" d="M 441.5,85.5 C 451.099,88.6298 459.766,93.2965 467.5,99.5C 457.628,96.8911 448.961,92.2244 441.5,85.5 Z"/></g>
<g><path style="opacity:1" fill="#4f3428" d="M 478.5,111.5 C 479.268,115.702 481.101,119.369 484,122.5C 493.304,130.803 502.304,139.469 511,148.5C 512.92,151.339 514.587,154.339 516,157.5C 516.892,163.4 518.558,169.067 521,174.5C 529.579,185.991 537.912,197.657 546,209.5C 546.964,218.064 548.964,226.397 552,234.5C 558.517,246.699 564.35,259.199 569.5,272C 570.727,281.924 572.561,291.757 575,301.5C 581.104,314.48 585.604,327.98 588.5,342C 587.457,349.48 587.291,356.98 588,364.5C 590.932,377.424 593.432,390.424 595.5,403.5C 594.315,409.894 592.815,416.227 591,422.5C 590.667,433.167 590.333,443.833 590,454.5C 589.461,457.529 588.794,460.529 588,463.5C 584.696,468.145 581.363,472.812 578,477.5C 574.1,488.465 569.266,498.965 563.5,509C 551.318,513.399 539.318,518.399 527.5,524C 522.402,526.385 517.069,527.885 511.5,528.5C 505.245,526.88 499.245,524.38 493.5,521C 485.243,517.859 476.91,515.026 468.5,512.5C 472.641,494.296 476.475,475.963 480,457.5C 482.079,453.007 484.412,448.674 487,444.5C 488.01,450.165 489.343,455.831 491,461.5C 491.667,462.833 492.333,462.833 493,461.5C 493.862,459.913 494.529,458.246 495,456.5C 495.97,445.836 496.804,435.169 497.5,424.5C 498.962,418.978 500.296,413.311 501.5,407.5C 502.397,406.402 503.23,406.402 504,407.5C 506,412.833 508,418.167 510,423.5C 510.667,424.833 511.333,424.833 512,423.5C 512.333,422.5 512.667,421.5 513,420.5C 513.113,408.615 512.279,396.781 510.5,385C 511.446,375.493 512.446,365.993 513.5,356.5C 514.675,356.281 515.675,356.614 516.5,357.5C 517.789,360.58 519.455,363.414 521.5,366C 522.449,366.617 523.282,366.451 524,365.5C 524.667,359.5 524.667,353.5 524,347.5C 521.229,332.105 519.396,316.605 518.5,301C 518.833,297.167 519.167,293.333 519.5,289.5C 522.5,292.167 525.5,294.833 528.5,297.5C 529.871,292.339 529.371,287.339 527,282.5C 518.888,266.838 514.722,250.171 514.5,232.5C 515.552,232.351 516.552,232.517 517.5,233C 520.349,236.016 523.349,238.85 526.5,241.5C 527.647,239.235 527.814,236.902 527,234.5C 522.186,224.873 516.853,215.54 511,206.5C 508.733,201.135 506.899,195.635 505.5,190C 505.833,189.167 506.167,188.333 506.5,187.5C 510.004,189.418 513.337,191.584 516.5,194C 518.319,194.783 519.652,194.283 520.5,192.5C 514.384,181.21 506.55,171.21 497,162.5C 494.228,157.955 491.728,153.289 489.5,148.5C 489.833,147.833 490.167,147.167 490.5,146.5C 495.217,149.293 500.217,151.293 505.5,152.5C 505.509,150.692 505.009,149.025 504,147.5C 501.167,144.667 498.333,141.833 495.5,139C 483.535,131.7 473.535,122.366 465.5,111C 469.835,110.737 474.168,110.903 478.5,111.5 Z"/></g>
<g><path style="opacity:1" fill="#030303" d="M 501.5,405.5 C 499.261,410.894 497.594,416.561 496.5,422.5C 491.013,435.487 481.679,444.653 468.5,450C 463.292,451.294 458.792,450.128 455,446.5C 451.328,432.483 446.661,418.816 441,405.5C 414.923,346.193 369.423,314.693 304.5,311C 300.245,309.581 297.578,306.747 296.5,302.5C 293.683,285.929 291.183,269.263 289,252.5C 287.556,235.189 287.223,217.855 288,200.5C 288.736,190.013 290.403,179.68 293,169.5C 298.127,148.047 310.794,133.047 331,124.5C 346.439,120.678 361.939,120.512 377.5,124C 427.332,138.495 463.832,168.995 487,215.5C 513.737,277.247 518.57,340.58 501.5,405.5 Z"/></g>
<g><path style="opacity:1" fill="#4e3428" d="M 372.5,132.5 C 373.492,132.328 374.158,132.662 374.5,133.5C 426.112,149.58 462.279,183.247 483,234.5C 496.173,271.175 502.673,308.842 502.5,347.5C 501.72,358.765 500.054,369.765 497.5,380.5C 493.931,394.758 489.431,409.425 484,424.5C 478.537,431.292 471.87,436.626 464,440.5C 454.956,401.563 436.456,368.063 408.5,340C 379.66,314.929 345.993,302.096 307.5,301.5C 307.754,299.599 307.42,298.933 306.5,299.5C 305.662,299.158 305.328,298.492 305.5,297.5C 306.124,297.083 306.457,296.416 306.5,295.5C 304.417,285.473 302.417,276.14 300.5,267.5C 299.662,267.158 299.328,266.492 299.5,265.5C 300.152,264.551 300.486,263.385 300.5,262C 297.274,239.225 296.774,216.391 299,193.5C 300.654,176.7 306.154,161.366 315.5,147.5C 316.5,144.5 318.5,142.5 321.5,141.5C 336.605,131.816 352.938,129.149 370.5,133.5C 371.416,133.457 372.083,133.124 372.5,132.5 Z"/></g>
<g><path style="opacity:1" fill="#4c4948" d="M 372.5,132.5 C 372.083,133.124 371.416,133.457 370.5,133.5C 352.938,129.149 336.605,131.816 321.5,141.5C 326.372,136.56 332.372,133.393 339.5,132C 350.542,129.947 361.542,130.114 372.5,132.5 Z"/></g>
<g><path style="opacity:1" fill="#4e4c4b" d="M 315.5,147.5 C 306.154,161.366 300.654,176.7 299,193.5C 296.774,216.391 297.274,239.225 300.5,262C 300.486,263.385 300.152,264.551 299.5,265.5C 296.306,241.224 295.806,216.891 298,192.5C 299.523,177.933 303.856,164.266 311,151.5C 312.307,149.808 313.807,148.475 315.5,147.5 Z"/></g>
<g><path style="opacity:1" fill="#4c4948" d="M 374.5,133.5 C 395.108,138.305 413.775,147.138 430.5,160C 454.43,178.686 471.93,202.186 483,230.5C 497.181,268.235 503.681,307.235 502.5,347.5C 502.673,308.842 496.173,271.175 483,234.5C 462.279,183.247 426.112,149.58 374.5,133.5 Z"/></g>
<g><path style="opacity:1" fill="#020202" d="M 229.5,245.5 C 249.104,249.051 256.271,260.384 251,279.5C 244.231,290.961 234.398,294.795 221.5,291C 209.97,285.442 205.136,276.275 207,263.5C 210.866,252.786 218.366,246.786 229.5,245.5 Z"/></g>
<g><path style="opacity:1" fill="#010000" d="M 372.5,245.5 C 390.614,247.447 398.447,257.447 396,275.5C 391.186,288.83 381.686,294.33 367.5,292C 353.844,286.865 348.344,277.031 351,262.5C 354.754,252.388 361.921,246.722 372.5,245.5 Z"/></g>
<g><path style="opacity:1" fill="#ececec" d="M 236.5,256.5 C 244.818,256.987 246.485,260.487 241.5,267C 235.019,268.357 232.519,265.857 234,259.5C 234.698,258.309 235.531,257.309 236.5,256.5 Z"/></g>
<g><path style="opacity:1" fill="#eeeeee" d="M 378.5,256.5 C 386.168,256.507 388.168,259.84 384.5,266.5C 378.197,268.363 375.364,266.03 376,259.5C 377.045,258.627 377.878,257.627 378.5,256.5 Z"/></g>
<g><path style="opacity:1" fill="#514e4d" d="M 305.5,297.5 C 303.185,287.613 301.519,277.613 300.5,267.5C 302.417,276.14 304.417,285.473 306.5,295.5C 306.457,296.416 306.124,297.083 305.5,297.5 Z"/></g>
<g><path style="opacity:1" fill="#000000" d="M 298.5,317.5 C 314.101,316.887 328.434,320.72 341.5,329C 353.209,346.184 351.209,361.85 335.5,376C 306.506,397.072 280.006,394.239 256,367.5C 243.718,342.232 251.218,326.399 278.5,320C 285.308,319.117 291.975,318.283 298.5,317.5 Z"/></g>
<g><path style="opacity:1" fill="#4d4b4a" d="M 497.5,380.5 C 494.858,395.925 490.691,410.925 485,425.5C 479.288,433.383 471.788,438.716 462.5,441.5C 453.916,402.487 435.583,368.987 407.5,341C 378.66,315.929 344.993,303.096 306.5,302.5C 306.5,301.5 306.5,300.5 306.5,299.5C 307.42,298.933 307.754,299.599 307.5,301.5C 345.993,302.096 379.66,314.929 408.5,340C 436.456,368.063 454.956,401.563 464,440.5C 471.87,436.626 478.537,431.292 484,424.5C 489.431,409.425 493.931,394.758 497.5,380.5 Z"/></g>
<g><path style="opacity:1" fill="#9e9c9b" d="M 501.5,405.5 C 501.5,406.167 501.5,406.833 501.5,407.5C 500.296,413.311 498.962,418.978 497.5,424.5C 497.672,423.508 497.338,422.842 496.5,422.5C 497.594,416.561 499.261,410.894 501.5,405.5 Z"/></g>
<g><path style="opacity:1" fill="#040303" d="M 287.5,414.5 C 305.772,413.761 323.772,415.594 341.5,420C 345.476,421.603 347.476,424.603 347.5,429C 340.805,473.174 316.472,487.841 274.5,473C 258.75,460.323 251.583,443.823 253,423.5C 254.214,421.951 255.714,420.785 257.5,420C 267.468,417.174 277.468,415.341 287.5,414.5 Z"/></g>
<g><path style="opacity:1" fill="#ed9a9d" d="M 286.5,424.5 C 305.197,424.412 323.864,425.079 342.5,426.5C 342.509,455.318 328.342,471.985 300,476.5C 277.646,475.479 263.646,464.145 258,442.5C 256.809,437.233 256.309,431.899 256.5,426.5C 266.689,426.406 276.689,425.739 286.5,424.5 Z"/></g>
</svg>
