<?xml version="1.0" encoding="UTF-8"?>
<!DOCTYPE svg PUBLIC "-//W3C//DTD SVG 1.1//EN" "http://www.w3.org/Graphics/SVG/1.1/DTD/svg11.dtd">
<svg xmlns="http://www.w3.org/2000/svg" version="1.1" width="600px" height="600px" style="shape-rendering:geometricPrecision; text-rendering:geometricPrecision; image-rendering:optimizeQuality; fill-rule:evenodd; clip-rule:evenodd" xmlns:xlink="http://www.w3.org/1999/xlink">
<g><path style="opacity:0.973" fill="#040404" d="M 159.5,-0.5 C 170.5,-0.5 181.5,-0.5 192.5,-0.5C 214.537,17.7 235.204,37.5333 254.5,59C 256.667,59.1667 258.833,59.3333 261,59.5C 274.461,58.0877 287.961,57.4211 301.5,57.5C 316.535,57.6527 331.535,58.1527 346.5,59C 365.833,37.1608 386.833,17.3274 409.5,-0.5C 420.5,-0.5 431.5,-0.5 442.5,-0.5C 451.17,13.15 456.003,28.15 457,44.5C 458.283,66.4681 457.117,88.3015 453.5,110C 495.259,146.301 522.092,191.801 534,246.5C 540.707,276.025 542.874,305.858 540.5,336C 544.042,344.054 542.708,351.054 536.5,357C 541.075,384.111 539.575,410.944 532,437.5C 530.736,445.528 527.236,452.361 521.5,458C 517.822,459.453 514.156,459.953 510.5,459.5C 491.756,503.412 461.09,536.245 418.5,558C 412.2,560.54 406.7,559.373 402,554.5C 395.154,559.257 388.488,564.257 382,569.5C 381,573.5 380,577.5 379,581.5C 372.378,590.829 365.045,591.496 357,583.5C 353.419,585.374 349.919,587.374 346.5,589.5C 344.909,592.675 343.909,596.009 343.5,599.5C 315.5,599.5 287.5,599.5 259.5,599.5C 259.067,596.834 258.567,594.168 258,591.5C 253.579,589.039 249.079,586.706 244.5,584.5C 239.22,589.087 233.553,589.587 227.5,586C 224.976,581.427 222.976,576.593 221.5,571.5C 214.362,566.862 207.362,562.028 200.5,557C 197.329,557.879 193.996,558.712 190.5,559.5C 152.242,543.593 122.742,517.593 102,481.5C 98.1186,474.405 94.7852,467.071 92,459.5C 83.1559,460.736 77.1559,457.069 74,448.5C 63.8958,418.794 61.0624,388.461 65.5,357.5C 64.2331,355.056 62.7331,352.723 61,350.5C 54.5401,286.8 66.5401,226.8 97,170.5C 110.044,148.117 126.711,128.783 147,112.5C 145.837,95.5279 144.67,78.5279 143.5,61.5C 143.684,44.3756 146.518,27.709 152,11.5C 153.933,7.08344 156.433,3.08344 159.5,-0.5 Z"/></g>
<g><path style="opacity:1" fill="#939394" d="M 530.5,340.5 C 530.579,341.93 530.246,343.264 529.5,344.5C 528.833,345.833 528.167,345.833 527.5,344.5C 521.083,332.66 513.916,321.327 506,310.5C 503.984,308.316 501.817,306.316 499.5,304.5C 499.167,305 498.833,305.5 498.5,306C 511.482,347.567 510.315,388.734 495,429.5C 494.333,430.833 493.667,432.167 493,433.5C 492.333,434.833 491.667,434.833 491,433.5C 489.875,415.209 485.209,397.875 477,381.5C 475.374,378.872 473.374,376.539 471,374.5C 470.467,398.967 464.467,421.967 453,443.5C 452.31,444.738 451.81,444.738 451.5,443.5C 455.334,415.502 451.668,388.502 440.5,362.5C 440.435,362.062 440.601,361.728 441,361.5C 445.367,365.772 450.534,367.939 456.5,368C 461.609,359.363 461.776,350.53 457,341.5C 449.245,332.202 439.412,328.368 427.5,330C 425.798,331.592 424.132,333.092 422.5,334.5C 412.444,321.615 400.111,311.448 385.5,304C 384.056,302.874 383.39,301.374 383.5,299.5C 386.791,281.631 390.958,263.964 396,246.5C 399.276,240.892 402.943,235.558 407,230.5C 412.105,226.04 417.272,221.706 422.5,217.5C 423.931,217.881 424.764,218.881 425,220.5C 426.129,228.943 427.796,237.276 430,245.5C 433.837,252.32 439.671,256.487 447.5,258C 457.745,259.269 467.745,258.269 477.5,255C 479.609,253.859 481.442,252.359 483,250.5C 490.672,233.526 488.672,217.86 477,203.5C 465.898,190.395 454.065,177.895 441.5,166C 436.949,162.566 432.282,159.399 427.5,156.5C 418.512,141.34 406.845,128.507 392.5,118C 376.478,108.3 359.811,106.966 342.5,114C 339,117.5 335.5,121 332,124.5C 325.099,138.964 318.765,153.631 313,168.5C 305.61,164.705 298.11,164.539 290.5,168C 288.951,169.214 287.785,170.714 287,172.5C 280.333,156.5 273.667,140.5 267,124.5C 252.271,108.814 234.771,104.981 214.5,113C 210.241,114.934 206.241,117.268 202.5,120C 195.667,126.833 188.833,133.667 182,140.5C 177.333,147.167 172.667,153.833 168,160.5C 161.162,173.93 159.662,187.93 163.5,202.5C 163.343,203.873 163.51,205.207 164,206.5C 170.621,216.195 174.788,226.861 176.5,238.5C 178.144,238.714 179.644,238.38 181,237.5C 183.285,233.813 184.452,229.813 184.5,225.5C 197.763,236.012 205.93,249.678 209,266.5C 210.659,278.432 212.825,290.266 215.5,302C 215.167,303.167 214.833,304.333 214.5,305.5C 178.347,327.752 157.181,360.086 151,402.5C 148.926,416.872 149.093,431.206 151.5,445.5C 151.607,447.379 151.107,447.712 150,446.5C 137.617,424.027 130.95,400.027 130,374.5C 124.478,380.204 120.478,386.871 118,394.5C 113.873,407.211 111.206,420.211 110,433.5C 109.333,434.833 108.667,434.833 108,433.5C 94.8884,402.383 90.5551,370.05 95,336.5C 97.6791,325.51 100.012,314.51 102,303.5C 91.0764,315.596 81.9098,328.93 74.5,343.5C 73.675,344.386 72.675,344.719 71.5,344.5C 71.8168,340.298 71.4834,336.298 70.5,332.5C 66.6716,269.134 82.1716,211.134 117,158.5C 127.461,144.372 139.628,131.872 153.5,121C 155.617,119.269 157.117,117.102 158,114.5C 157.115,101.203 156.115,87.8701 155,74.5C 153.192,55.8252 154.859,37.4919 160,19.5C 161.538,13.5884 164.705,8.75504 169.5,5C 177.896,3.85818 185.229,6.19151 191.5,12C 211.827,30.3277 231.494,49.3277 250.5,69C 253.241,69.9771 256.075,70.4771 259,70.5C 286.678,66.5255 314.344,66.5255 342,70.5C 345.786,70.7761 349.286,69.9427 352.5,68C 372.304,45.5241 393.971,25.1907 417.5,7C 429.338,1.33299 437.171,4.83299 441,17.5C 445.529,31.4431 447.696,45.7765 447.5,60.5C 446.411,78.865 445.244,97.1983 444,115.5C 481.091,146.637 506.425,185.637 520,232.5C 529.56,267.875 533.06,303.875 530.5,340.5 Z"/></g>
<g><path style="opacity:1" fill="#986c34" d="M 180.5,36.5 C 184.642,38.1195 188.142,40.7862 191,44.5C 199.426,55.7779 203.426,68.4446 203,82.5C 199.159,93.5099 191.659,100.51 180.5,103.5C 177.399,101.981 174.066,101.315 170.5,101.5C 171.183,95.4382 172.183,89.4382 173.5,83.5C 170.127,84.135 166.794,84.635 163.5,85C 166.786,81.5559 169.453,77.7225 171.5,73.5C 171.167,72.8333 170.833,72.1667 170.5,71.5C 168.189,72.4974 165.856,72.9974 163.5,73C 167,70.1667 170.5,67.3333 174,64.5C 175,57.1667 176,49.8333 177,42.5C 177.926,40.3083 179.093,38.3083 180.5,36.5 Z"/></g>
<g><path style="opacity:1" fill="#986c34" d="M 416.5,36.5 C 420.043,36.872 422.21,38.872 423,42.5C 424.364,49.7758 425.364,57.1091 426,64.5C 429.5,67.3333 433,70.1667 436.5,73C 433.826,72.8471 431.16,72.3471 428.5,71.5C 429.625,76.8187 432.291,81.3187 436.5,85C 433.16,84.8452 429.826,84.3452 426.5,83.5C 427.817,89.4382 428.817,95.4382 429.5,101.5C 425.781,101.368 422.281,102.035 419,103.5C 398.589,95.949 392.255,81.949 400,61.5C 403.511,51.7996 409.011,43.4663 416.5,36.5 Z"/></g>
<g><path style="opacity:1" fill="#737273" d="M 325.5,75.5 C 332.231,74.4476 336.731,77.1142 339,83.5C 339.824,86.7848 340.324,90.1182 340.5,93.5C 339.442,101.514 338.275,109.514 337,117.5C 335.192,119.396 333.025,119.896 330.5,119C 317.35,112.203 312.183,101.703 315,87.5C 317.649,82.6887 321.149,78.6887 325.5,75.5 Z"/></g>
<g><path style="opacity:1" fill="#737273" d="M 274.5,113.5 C 278.643,114.238 282.31,116.071 285.5,119C 290.711,124.542 295.544,130.375 300,136.5C 301.886,142.125 301.886,147.792 300,153.5C 298.333,156.167 296.667,156.167 295,153.5C 290.749,143.329 284.749,134.329 277,126.5C 273.785,122.53 272.951,118.197 274.5,113.5 Z"/></g>
<g><path style="opacity:1" fill="#ca965a" d="M 285.5,193.5 C 286.08,195.749 287.413,197.415 289.5,198.5C 290.619,227.556 287.453,256.222 280,284.5C 277.313,294.229 273.647,303.562 269,312.5C 261.667,323.833 254.333,335.167 247,346.5C 244.051,352.18 242.217,358.18 241.5,364.5C 239.405,360.837 237.905,356.837 237,352.5C 234.001,337.663 230.835,322.996 227.5,308.5C 225.538,295.766 223.205,283.099 220.5,270.5C 219.913,264.544 218.579,258.878 216.5,253.5C 214.392,244.134 210.392,235.8 204.5,228.5C 201.167,221.833 196.167,216.833 189.5,213.5C 183.13,208.131 177.463,202.131 172.5,195.5C 171.226,189.492 171.226,183.492 172.5,177.5C 175.65,171.202 179.317,165.202 183.5,159.5C 189.701,151.091 196.367,143.091 203.5,135.5C 209.539,129.824 216.205,125.158 223.5,121.5C 236.336,117.279 247.17,120.279 256,130.5C 264.022,145.56 270.689,161.226 276,177.5C 278.437,183.392 281.604,188.726 285.5,193.5 Z"/></g>
<g><path style="opacity:1" fill="#ca965a" d="M 383.5,249.5 C 380.5,257.478 378.5,265.812 377.5,274.5C 374.857,285.714 372.857,297.047 371.5,308.5C 370.351,308.791 369.684,309.624 369.5,311C 366.723,327.059 363.389,342.893 359.5,358.5C 358.255,353.332 356.422,348.332 354,343.5C 340.253,325.007 329.919,304.673 323,282.5C 314.864,253.121 311.698,223.455 313.5,193.5C 317.207,188.753 319.874,183.419 321.5,177.5C 325.933,168.547 329.6,159.213 332.5,149.5C 334.685,145.787 336.352,141.787 337.5,137.5C 350.94,117.116 367.607,114.283 387.5,129C 402.987,142.485 415.487,158.319 425,176.5C 428.639,184.041 428.306,191.374 424,198.5C 413.808,207.937 403.808,217.603 394,227.5C 389.151,234.197 385.651,241.53 383.5,249.5 Z"/></g>
<g><path style="opacity:1" fill="#363433" d="M 223.5,121.5 C 216.205,125.158 209.539,129.824 203.5,135.5C 205.553,132.464 207.553,129.464 209.5,126.5C 213.981,124.45 218.648,122.783 223.5,121.5 Z"/></g>
<g><path style="opacity:1" fill="#797a7d" d="M 436.5,135.5 C 442.549,136.035 446.382,139.368 448,145.5C 448.667,148.833 448.667,152.167 448,155.5C 445.724,158.064 443.724,157.73 442,154.5C 440.254,150.673 438.254,147.007 436,143.5C 435.278,140.739 435.445,138.073 436.5,135.5 Z"/></g>
<g><path style="opacity:1" fill="#3e3b38" d="M 337.5,137.5 C 336.352,141.787 334.685,145.787 332.5,149.5C 333.097,144.983 334.763,140.983 337.5,137.5 Z"/></g>
<g><path style="opacity:1" fill="#737273" d="M 143.5,146.5 C 154.971,146.306 160.304,151.973 159.5,163.5C 159.333,165.833 159.167,168.167 159,170.5C 155.543,179.55 151.71,188.383 147.5,197C 145.5,197.667 143.5,197.667 141.5,197C 131.066,188.634 126.233,177.801 127,164.5C 130.298,156.373 135.798,150.373 143.5,146.5 Z"/></g>
<g><path style="opacity:1" fill="#727172" d="M 427.5,156.5 C 432.282,159.399 436.949,162.566 441.5,166C 454.065,177.895 465.898,190.395 477,203.5C 488.672,217.86 490.672,233.526 483,250.5C 481.442,252.359 479.609,253.859 477.5,255C 467.745,258.269 457.745,259.269 447.5,258C 439.671,256.487 433.837,252.32 430,245.5C 427.796,237.276 426.129,228.943 425,220.5C 424.764,218.881 423.931,217.881 422.5,217.5C 427.143,215.021 430.643,211.355 433,206.5C 440.406,188.709 438.572,172.042 427.5,156.5 Z"/></g>
<g><path style="opacity:1" fill="#3d3938" d="M 183.5,159.5 C 179.317,165.202 175.65,171.202 172.5,177.5C 173.937,171.7 176.437,166.367 180,161.5C 180.816,160.177 181.983,159.511 183.5,159.5 Z"/></g>
<g><path style="opacity:1" fill="#eeeded" d="M 310.5,191.5 C 310.821,193.048 311.821,193.715 313.5,193.5C 311.698,223.455 314.864,253.121 323,282.5C 329.919,304.673 340.253,325.007 354,343.5C 356.422,348.332 358.255,353.332 359.5,358.5C 358.853,359.274 358.52,360.274 358.5,361.5C 361,374.497 361,387.497 358.5,400.5C 357.833,397.5 357.167,394.5 356.5,391.5C 355.816,385.977 352.816,383.143 347.5,383C 346.177,383.816 345.511,384.983 345.5,386.5C 341.5,382.833 337.5,379.167 333.5,375.5C 330.657,366.879 324.657,361.713 315.5,360C 302.868,357.45 290.535,358.45 278.5,363C 270.283,367.947 267.45,375.114 270,384.5C 272.886,391.882 277.72,397.549 284.5,401.5C 284.369,402.239 284.536,402.906 285,403.5C 296.035,414.368 306.869,425.368 317.5,436.5C 295.469,439.88 274.803,436.713 255.5,427C 248.236,419.64 243.736,410.807 242,400.5C 240.261,388.498 240.095,376.498 241.5,364.5C 242.217,358.18 244.051,352.18 247,346.5C 254.333,335.167 261.667,323.833 269,312.5C 273.647,303.562 277.313,294.229 280,284.5C 287.453,256.222 290.619,227.556 289.5,198.5C 290.117,198.389 290.617,198.056 291,197.5C 291.495,195.527 291.662,193.527 291.5,191.5C 298.044,170.247 304.377,170.247 310.5,191.5 Z"/></g>
<g><path style="opacity:1" fill="#986b33" d="M 233.5,180.5 C 256.157,178.984 265.657,189.318 262,211.5C 253.466,225.508 241.966,228.675 227.5,221C 216.32,209.861 215.654,198.195 225.5,186C 228.407,184.391 231.073,182.558 233.5,180.5 Z"/></g>
<g><path style="opacity:1" fill="#986b33" d="M 351.5,180.5 C 366.021,178.336 375.854,184.003 381,197.5C 381.833,216.667 372.667,225.833 353.5,225C 336.996,217.831 332.496,205.997 340,189.5C 343.161,185.491 346.994,182.491 351.5,180.5 Z"/></g>
<g><path style="opacity:1" fill="#3f3c3a" d="M 321.5,177.5 C 319.874,183.419 317.207,188.753 313.5,193.5C 311.821,193.715 310.821,193.048 310.5,191.5C 312.716,190.797 314.549,189.464 316,187.5C 317.608,183.944 319.441,180.611 321.5,177.5 Z"/></g>
<g><path style="opacity:1" fill="#332a27" d="M 236.5,188.5 C 252.28,188.422 257.78,195.755 253,210.5C 248.47,216.171 242.637,218.004 235.5,216C 226.503,210.851 224.336,203.684 229,194.5C 231.114,191.879 233.614,189.879 236.5,188.5 Z"/></g>
<g><path style="opacity:1" fill="#322927" d="M 354.5,188.5 C 370.618,188.729 375.785,196.396 370,211.5C 363.803,217.104 356.969,217.937 349.5,214C 341.495,203.492 343.162,194.992 354.5,188.5 Z"/></g>
<g><path style="opacity:1" fill="#f5f5f5" d="M 245.5,193.5 C 252.486,193.331 254.153,196.164 250.5,202C 243.416,202.475 241.749,199.642 245.5,193.5 Z"/></g>
<g><path style="opacity:1" fill="#f7f7f7" d="M 362.5,193.5 C 369.486,193.331 371.153,196.164 367.5,202C 360.416,202.475 358.749,199.642 362.5,193.5 Z"/></g>
<g><path style="opacity:1" fill="#454342" d="M 291.5,191.5 C 291.662,193.527 291.495,195.527 291,197.5C 290.617,198.056 290.117,198.389 289.5,198.5C 287.413,197.415 286.08,195.749 285.5,193.5C 287.024,194.174 288.358,195.174 289.5,196.5C 290.17,194.709 290.837,193.042 291.5,191.5 Z"/></g>
<g><path style="opacity:1" fill="#363332" d="M 172.5,195.5 C 177.463,202.131 183.13,208.131 189.5,213.5C 187.072,211.957 184.406,210.957 181.5,210.5C 178.939,206.405 176.106,202.405 173,198.5C 172.517,197.552 172.351,196.552 172.5,195.5 Z"/></g>
<g><path style="opacity:1" fill="#727172" d="M 163.5,202.5 C 165.103,204.98 166.603,207.646 168,210.5C 173.668,215.4 179.168,220.4 184.5,225.5C 184.452,229.813 183.285,233.813 181,237.5C 179.644,238.38 178.144,238.714 176.5,238.5C 174.788,226.861 170.621,216.195 164,206.5C 163.51,205.207 163.343,203.873 163.5,202.5 Z"/></g>
<g><path style="opacity:1" fill="#423f3e" d="M 189.5,213.5 C 196.167,216.833 201.167,221.833 204.5,228.5C 199.076,223.89 194.076,218.89 189.5,213.5 Z"/></g>
<g><path style="opacity:1" fill="#737273" d="M 133.5,225.5 C 146.41,226.896 155.576,233.563 161,245.5C 161.634,250.974 160.968,256.307 159,261.5C 155.204,271.441 149.871,272.108 143,263.5C 135.768,254.368 131.268,244.034 129.5,232.5C 129.833,230.833 130.167,229.167 130.5,227.5C 131.739,227.058 132.739,226.391 133.5,225.5 Z"/></g>
<g><path style="opacity:1" fill="#423e3a" d="M 383.5,249.5 C 381.991,258.07 379.991,266.403 377.5,274.5C 378.5,265.812 380.5,257.478 383.5,249.5 Z"/></g>
<g><path style="opacity:1" fill="#48423d" d="M 216.5,253.5 C 218.579,258.878 219.913,264.544 220.5,270.5C 218.408,265.126 217.075,259.46 216.5,253.5 Z"/></g>
<g><path style="opacity:1" fill="#737273" d="M 419.5,260.5 C 429.21,260.704 434.71,265.704 436,275.5C 436.667,279.167 436.667,282.833 436,286.5C 434.203,294.075 432.87,301.742 432,309.5C 430.883,311.124 429.383,312.124 427.5,312.5C 416.807,307.973 409.307,300.307 405,289.5C 403.451,276.597 408.285,266.93 419.5,260.5 Z"/></g>
<g><path style="opacity:1" fill="#7b7c7f" d="M 498.5,264.5 C 502.73,263.563 505.23,265.229 506,269.5C 506.929,273.244 506.429,276.744 504.5,280C 501.339,280.203 499.172,278.703 498,275.5C 495.888,271.617 496.055,267.95 498.5,264.5 Z"/></g>
<g><path style="opacity:1" fill="#737273" d="M 192.5,266.5 C 194.467,266.261 196.301,266.594 198,267.5C 198.667,271.5 198.667,275.5 198,279.5C 193.732,293.637 189.066,307.637 184,321.5C 182.333,324.167 180.667,324.167 179,321.5C 171.5,307.574 171.833,293.908 180,280.5C 183.319,275.017 187.486,270.351 192.5,266.5 Z"/></g>
<g><path style="opacity:1" fill="#c2c3c3" d="M 312.5,280.5 C 314.017,280.511 315.184,281.177 316,282.5C 317.899,286.197 317.899,289.864 316,293.5C 311.68,294.365 309.514,292.365 309.5,287.5C 309.695,284.782 310.695,282.449 312.5,280.5 Z"/></g>
<g><path style="opacity:1" fill="#737273" d="M 450.5,291.5 C 453.425,291.46 456.091,292.293 458.5,294C 465.789,300.283 471.956,307.449 477,315.5C 477.627,336.761 473.627,337.761 465,318.5C 460.667,313.167 456.333,307.833 452,302.5C 449.725,298.986 449.225,295.319 450.5,291.5 Z"/></g>
<g><path style="opacity:1" fill="#3e3a39" d="M 530.5,340.5 C 532.423,342.201 532.757,344.201 531.5,346.5C 529.224,347.213 526.891,347.713 524.5,348C 523.978,348.561 523.645,349.228 523.5,350C 526.008,354.863 527.508,360.029 528,365.5C 530.261,393.227 526.928,420.227 518,446.5C 516.921,448.394 515.587,448.727 514,447.5C 512.454,440.968 510.454,434.635 508,428.5C 498.803,472.424 475.97,507.257 439.5,533C 430.863,538.804 421.863,543.971 412.5,548.5C 411.833,548.167 411.167,547.833 410.5,547.5C 409.906,544.17 409.24,540.836 408.5,537.5C 401.324,542.255 394.324,547.255 387.5,552.5C 386.417,551.635 386.251,550.635 387,549.5C 390.892,540.714 395.559,532.38 401,524.5C 410.267,513.23 420.267,502.564 431,492.5C 442.821,478.198 449.655,461.865 451.5,443.5C 451.81,444.738 452.31,444.738 453,443.5C 464.467,421.967 470.467,398.967 471,374.5C 473.374,376.539 475.374,378.872 477,381.5C 485.209,397.875 489.875,415.209 491,433.5C 491.667,434.833 492.333,434.833 493,433.5C 493.667,432.167 494.333,430.833 495,429.5C 510.315,388.734 511.482,347.567 498.5,306C 498.833,305.5 499.167,305 499.5,304.5C 501.817,306.316 503.984,308.316 506,310.5C 513.916,321.327 521.083,332.66 527.5,344.5C 528.167,345.833 528.833,345.833 529.5,344.5C 530.246,343.264 530.579,341.93 530.5,340.5 Z"/></g>
<g><path style="opacity:1" fill="#3d3a39" d="M 151.5,445.5 C 153.403,462.689 159.903,478.022 171,491.5C 187.644,506.463 201.644,523.463 213,542.5C 214.078,546.491 215.578,550.324 217.5,554C 217.167,554.5 216.833,555 216.5,555.5C 208.833,550.167 201.167,544.833 193.5,539.5C 192.679,542.447 192.179,545.447 192,548.5C 191.586,548.957 191.086,549.291 190.5,549.5C 153.248,531.082 125.082,503.415 106,466.5C 100.791,454.207 96.7911,441.54 94,428.5C 92.4267,435.81 90.0934,442.81 87,449.5C 86.3333,448.833 85.6667,448.167 85,447.5C 76.0172,421.933 72.3506,395.599 74,368.5C 74.6354,362.125 76.1354,355.958 78.5,350C 78.3552,349.228 78.0219,348.561 77.5,348C 75.236,347.764 73.0693,347.264 71,346.5C 70.5008,341.845 70.3342,337.179 70.5,332.5C 71.4834,336.298 71.8168,340.298 71.5,344.5C 72.675,344.719 73.675,344.386 74.5,343.5C 81.9098,328.93 91.0764,315.596 102,303.5C 100.012,314.51 97.6791,325.51 95,336.5C 90.5551,370.05 94.8884,402.383 108,433.5C 108.667,434.833 109.333,434.833 110,433.5C 111.206,420.211 113.873,407.211 118,394.5C 120.478,386.871 124.478,380.204 130,374.5C 130.95,400.027 137.617,424.027 150,446.5C 151.107,447.712 151.607,447.379 151.5,445.5 Z"/></g>
<g><path style="opacity:1" fill="#efe4cd" d="M 227.5,308.5 C 230.835,322.996 234.001,337.663 237,352.5C 237.905,356.837 239.405,360.837 241.5,364.5C 240.095,376.498 240.261,388.498 242,400.5C 243.736,410.807 248.236,419.64 255.5,427C 274.803,436.713 295.469,439.88 317.5,436.5C 339.941,434.387 353.608,422.387 358.5,400.5C 361,387.497 361,374.497 358.5,361.5C 358.52,360.274 358.853,359.274 359.5,358.5C 363.389,342.893 366.723,327.059 369.5,311C 369.684,309.624 370.351,308.791 371.5,308.5C 380.869,311.688 389.203,316.688 396.5,323.5C 397.585,325.587 399.251,326.92 401.5,327.5C 405.719,329.93 409.053,333.263 411.5,337.5C 412.08,339.749 413.413,341.415 415.5,342.5C 416.08,344.749 417.413,346.415 419.5,347.5C 431.976,364.739 439.476,384.072 442,405.5C 444.306,425.165 442.639,444.498 437,463.5C 426.988,481.193 414.321,496.859 399,510.5C 383.059,530.296 372.892,552.796 368.5,578C 367.004,578.507 365.837,578.007 365,576.5C 360.417,569.257 356.75,561.59 354,553.5C 353.667,548.833 353.333,544.167 353,539.5C 342.562,556.481 335.896,574.815 333,594.5C 328.799,588.97 325.465,582.97 323,576.5C 320.924,565.56 319.258,554.56 318,543.5C 314.057,552.386 310.39,561.386 307,570.5C 305.101,578.499 303.267,586.499 301.5,594.5C 298.505,577.014 293.005,560.347 285,544.5C 283.653,555.916 281.653,567.25 279,578.5C 277.027,584.449 274.027,589.783 270,594.5C 267.1,574.801 260.434,556.468 250,539.5C 249.878,546.305 248.878,552.972 247,559.5C 243.915,566.009 240.082,572.009 235.5,577.5C 231.215,560.482 225.049,544.149 217,528.5C 213.389,522.556 209.389,516.889 205,511.5C 195.969,502.804 187.303,493.804 179,484.5C 173.787,478.065 169.62,471.065 166.5,463.5C 165.456,458.645 164.123,453.978 162.5,449.5C 162.802,446.941 162.468,444.607 161.5,442.5C 161.2,436.002 160.867,429.502 160.5,423C 161.044,414.485 161.71,405.985 162.5,397.5C 164.437,392.418 165.77,387.085 166.5,381.5C 167.756,377.075 169.422,372.741 171.5,368.5C 173.341,366.151 174.674,363.485 175.5,360.5C 177.083,358.337 178.416,356.004 179.5,353.5C 182.323,350.525 184.656,347.192 186.5,343.5C 191.472,338.193 196.472,332.86 201.5,327.5C 204.089,326.581 206.089,324.914 207.5,322.5C 209.404,322.262 210.738,321.262 211.5,319.5C 213.853,318.66 215.853,317.326 217.5,315.5C 221.505,314.161 224.838,311.828 227.5,308.5 Z"/></g>
<g><path style="opacity:1" fill="#aaaaab" d="M 137.5,311.5 C 142.989,311.504 144.822,314.171 143,319.5C 140.412,323.674 138.079,328.007 136,332.5C 133.978,333.991 132.312,333.658 131,331.5C 129.455,323.599 131.621,316.932 137.5,311.5 Z"/></g>
<g><path style="opacity:1" fill="#636362" d="M 217.5,315.5 C 215.853,317.326 213.853,318.66 211.5,319.5C 212.802,317.178 214.802,315.845 217.5,315.5 Z"/></g>
<g><path style="opacity:1" fill="#8a867c" d="M 396.5,323.5 C 398.749,324.08 400.415,325.413 401.5,327.5C 399.251,326.92 397.585,325.587 396.5,323.5 Z"/></g>
<g><path style="opacity:1" fill="#777572" d="M 207.5,322.5 C 206.089,324.914 204.089,326.581 201.5,327.5C 202.911,325.086 204.911,323.419 207.5,322.5 Z"/></g>
<g><path style="opacity:1" fill="#727172" d="M 440.5,362.5 C 435.511,352.524 429.511,343.19 422.5,334.5C 424.132,333.092 425.798,331.592 427.5,330C 439.412,328.368 449.245,332.202 457,341.5C 461.776,350.53 461.609,359.363 456.5,368C 450.534,367.939 445.367,365.772 441,361.5C 440.601,361.728 440.435,362.062 440.5,362.5 Z"/></g>
<g><path style="opacity:1" fill="#616160" d="M 201.5,327.5 C 196.472,332.86 191.472,338.193 186.5,343.5C 190.118,336.882 195.118,331.548 201.5,327.5 Z"/></g>
<g><path style="opacity:1" fill="#908b80" d="M 411.5,337.5 C 413.587,338.585 414.92,340.251 415.5,342.5C 413.413,341.415 412.08,339.749 411.5,337.5 Z"/></g>
<g><path style="opacity:1" fill="#8b867c" d="M 415.5,342.5 C 417.587,343.585 418.92,345.251 419.5,347.5C 417.413,346.415 416.08,344.749 415.5,342.5 Z"/></g>
<g><path style="opacity:1" fill="#c0c1c1" d="M 254.5,349.5 C 259.989,349.504 261.822,352.171 260,357.5C 257.731,361.038 255.731,364.705 254,368.5C 252.54,371.21 250.54,371.876 248,370.5C 246.153,362.208 248.32,355.208 254.5,349.5 Z"/></g>
<g><path style="opacity:1" fill="#676665" d="M 186.5,343.5 C 184.656,347.192 182.323,350.525 179.5,353.5C 180.851,349.458 183.185,346.125 186.5,343.5 Z"/></g>
<g><path style="opacity:1" fill="#c0c2c2" d="M 345.5,352.5 C 350.056,353.885 353.222,356.885 355,361.5C 356.825,366.986 354.992,369.486 349.5,369C 345.844,363.919 344.51,358.419 345.5,352.5 Z"/></g>
<g><path style="opacity:1" fill="#010101" d="M 333.5,375.5 C 333.329,387.842 327.662,396.675 316.5,402C 305.758,406.716 295.092,406.549 284.5,401.5C 277.72,397.549 272.886,391.882 270,384.5C 267.45,375.114 270.283,367.947 278.5,363C 290.535,358.45 302.868,357.45 315.5,360C 324.657,361.713 330.657,366.879 333.5,375.5 Z"/></g>
<g><path style="opacity:1" fill="#646362" d="M 175.5,360.5 C 174.674,363.485 173.341,366.151 171.5,368.5C 171.794,365.246 173.127,362.579 175.5,360.5 Z"/></g>
<g><path style="opacity:1" fill="#d7d7d7" d="M 333.5,375.5 C 337.5,379.167 341.5,382.833 345.5,386.5C 345.091,392.436 346.424,397.936 349.5,403C 351.441,403.743 353.274,403.576 355,402.5C 356.337,398.974 356.837,395.308 356.5,391.5C 357.167,394.5 357.833,397.5 358.5,400.5C 353.608,422.387 339.941,434.387 317.5,436.5C 306.869,425.368 296.035,414.368 285,403.5C 284.536,402.906 284.369,402.239 284.5,401.5C 295.092,406.549 305.758,406.716 316.5,402C 327.662,396.675 333.329,387.842 333.5,375.5 Z"/></g>
<g><path style="opacity:1" fill="#949189" d="M 166.5,381.5 C 165.77,387.085 164.437,392.418 162.5,397.5C 162.917,391.83 164.251,386.497 166.5,381.5 Z"/></g>
<g><path style="opacity:1" fill="#abacac" d="M 356.5,391.5 C 356.837,395.308 356.337,398.974 355,402.5C 353.274,403.576 351.441,403.743 349.5,403C 346.424,397.936 345.091,392.436 345.5,386.5C 345.511,384.983 346.177,383.816 347.5,383C 352.816,383.143 355.816,385.977 356.5,391.5 Z"/></g>
<g><path style="opacity:1" fill="#a6a7a7" d="M 331.5,403.5 C 340.394,404.558 341.727,408.391 335.5,415C 330.141,416.143 327.974,413.976 329,408.5C 329.847,406.807 330.68,405.14 331.5,403.5 Z"/></g>
<g><path style="opacity:1" fill="#bfc1c1" d="M 265.5,409.5 C 268.325,409.081 270.491,410.081 272,412.5C 272.667,416.167 272.667,419.833 272,423.5C 270.225,426.044 268.392,426.044 266.5,423.5C 263.129,418.947 262.796,414.28 265.5,409.5 Z"/></g>
<g><path style="opacity:1" fill="#6d6c6a" d="M 162.5,397.5 C 161.71,405.985 161.044,414.485 160.5,423C 160.867,429.502 161.2,436.002 161.5,442.5C 158.693,427.44 159.026,412.44 162.5,397.5 Z"/></g>
<g><path style="opacity:1" fill="#666564" d="M 162.5,449.5 C 164.123,453.978 165.456,458.645 166.5,463.5C 163.944,459.288 162.61,454.622 162.5,449.5 Z"/></g>
</svg>
