<?xml version="1.0" encoding="UTF-8"?>
<!DOCTYPE svg PUBLIC "-//W3C//DTD SVG 1.1//EN" "http://www.w3.org/Graphics/SVG/1.1/DTD/svg11.dtd">
<svg xmlns="http://www.w3.org/2000/svg" version="1.1" width="600px" height="600px" style="shape-rendering:geometricPrecision; text-rendering:geometricPrecision; image-rendering:optimizeQuality; fill-rule:evenodd; clip-rule:evenodd" xmlns:xlink="http://www.w3.org/1999/xlink">
<g><path style="opacity:0.951" fill="#000000" d="M 174.5,-0.5 C 185.5,-0.5 196.5,-0.5 207.5,-0.5C 213.016,4.86739 217.182,11.2007 220,18.5C 233.596,56.5197 248.429,94.0197 264.5,131C 265.833,131.167 267.167,131.333 268.5,131.5C 288.074,130.57 307.574,130.237 327,130.5C 343.887,90.0591 360.22,49.3924 376,8.5C 378.335,5.33466 380.835,2.33466 383.5,-0.5C 394.5,-0.5 405.5,-0.5 416.5,-0.5C 423.973,5.82075 429.806,13.4874 434,22.5C 460.05,88.8952 469.05,157.562 461,228.5C 490.003,274.517 506.003,324.851 509,379.5C 509.667,396.5 509.667,413.5 509,430.5C 509.036,437.218 506.869,443.051 502.5,448C 498.57,449.751 494.57,449.918 490.5,448.5C 490.334,479.84 484.834,510.173 474,539.5C 466.012,546.261 459.012,545.261 453,536.5C 452.206,533.529 451.539,530.529 451,527.5C 448.957,529.208 447.29,531.208 446,533.5C 439.992,550.362 430.825,565.195 418.5,578C 411.6,580.399 406.1,578.566 402,572.5C 385.671,583.246 368.505,592.246 350.5,599.5C 315.167,599.5 279.833,599.5 244.5,599.5C 224.677,593.339 206.177,584.339 189,572.5C 184.476,579.089 178.642,580.589 171.5,577C 160.653,564.485 152.486,550.318 147,534.5C 144.333,531.167 141.667,527.833 139,524.5C 138.697,528.894 138.03,533.227 137,537.5C 131.5,544.501 125.334,545.168 118.5,539.5C 112.638,525.728 108.471,511.395 106,496.5C 103.343,479.942 102.01,463.275 102,446.5C 91.1591,451.236 84.8258,447.57 83,435.5C 77.9287,369.192 89.9287,306.192 119,246.5C 122.27,240.236 125.936,234.236 130,228.5C 123.695,169.854 128.695,112.188 145,55.5C 149.843,37.9403 157.176,21.6069 167,6.5C 169.396,3.93337 171.896,1.60004 174.5,-0.5 Z"/></g>
<g><path style="opacity:1" fill="#3d3938" d="M 186.5,4.5 C 195.804,3.56876 202.638,7.23543 207,15.5C 223.113,57.7246 239.779,99.7246 257,141.5C 258.231,142.108 259.564,142.441 261,142.5C 285.166,141.42 309.333,141.253 333.5,142C 350.504,102.325 366.338,62.1586 381,21.5C 389.796,1.6782 401.796,-0.655135 417,14.5C 427.393,32.3348 435.06,51.3348 440,71.5C 452.723,123.891 456.056,176.891 450,230.5C 479.076,275.752 495.076,325.419 498,379.5C 498.667,398.167 498.667,416.833 498,435.5C 497.667,436.5 497.333,437.5 497,438.5C 496.333,439.833 495.667,439.833 495,438.5C 488.517,423.523 480.517,409.523 471,396.5C 482.305,441.94 480.638,486.94 466,531.5C 465.395,533.481 464.395,533.815 463,532.5C 462.187,520.621 460.187,508.954 457,497.5C 451.237,508.698 444.237,519.032 436,528.5C 431.228,543.58 423.561,556.913 413,568.5C 411.708,563.919 409.375,559.919 406,556.5C 344.095,603.505 278.595,609.005 209.5,573C 200.902,568.119 192.735,562.619 185,556.5C 181.625,559.919 179.292,563.919 178,568.5C 168.025,556.225 160.358,542.559 155,527.5C 146.821,517.645 139.821,506.978 134,495.5C 130.364,507.915 128.031,520.582 127,533.5C 113.099,495.141 109.765,455.807 117,415.5C 118.187,409.42 119.687,403.42 121.5,397.5C 121.267,396.068 120.6,395.568 119.5,396C 110.26,408.973 102.427,422.806 96,437.5C 88.1968,375.618 97.8635,315.618 125,257.5C 129.935,248.239 135.268,239.239 141,230.5C 136.878,188.058 137.878,145.725 144,103.5C 148.85,74.6167 157.517,46.95 170,20.5C 174.073,13.5918 179.573,8.25849 186.5,4.5 Z"/></g>
<g><path style="opacity:1" fill="#050403" d="M 187.5,11.5 C 195.883,10.6103 202.383,13.6103 207,20.5C 214.072,39.3867 219.739,58.72 224,78.5C 232.252,109.668 236.252,141.335 236,173.5C 235.174,180.318 232.341,186.151 227.5,191C 211.902,203.262 197.569,216.929 184.5,232C 175.37,238.905 166.037,239.239 156.5,233C 152.87,229.238 150.703,224.738 150,219.5C 140.107,158.214 145.107,98.2135 165,39.5C 168.16,30.0181 173.327,21.8514 180.5,15C 182.713,13.3838 185.047,12.2172 187.5,11.5 Z"/></g>
<g><path style="opacity:1" fill="#040403" d="M 395.5,11.5 C 400.901,10.9664 405.901,12.133 410.5,15C 414.422,18.2508 417.588,22.0841 420,26.5C 437.728,67.8091 446.228,110.976 445.5,156C 445.471,178.981 443.638,201.814 440,224.5C 434.113,235.854 424.946,239.687 412.5,236C 400.249,224.751 388.249,213.085 376.5,201C 370.908,196.62 365.408,192.12 360,187.5C 357.192,183.222 355.526,178.556 355,173.5C 353.771,154.327 355.105,135.327 359,116.5C 364.809,86.1216 372.142,56.1216 381,26.5C 383.412,18.9239 388.246,13.9239 395.5,11.5 Z"/></g>
<g><path style="opacity:1" fill="#bb843d" d="M 188.5,22.5 C 192.594,21.7046 195.761,23.038 198,26.5C 209.977,62.7435 218.977,99.7435 225,137.5C 226.468,149.132 226.801,160.798 226,172.5C 224.881,177.239 222.381,181.072 218.5,184C 202.902,196.262 188.569,209.929 175.5,225C 167.301,228.806 162.134,226.306 160,217.5C 149.962,157.38 155.296,98.7133 176,41.5C 178.713,34.0356 182.88,27.7022 188.5,22.5 Z"/></g>
<g><path style="opacity:1" fill="#bb843d" d="M 435.5,177.5 C 434.269,186.001 433.269,194.668 432.5,203.5C 432.253,210.407 430.92,217.074 428.5,223.5C 424.571,226.866 420.238,227.366 415.5,225C 400.932,208.431 385.099,193.264 368,179.5C 366.725,177.283 365.725,174.949 365,172.5C 364.333,163.833 364.333,155.167 365,146.5C 370.77,105.645 380.104,65.6447 393,26.5C 399.392,20.6781 404.725,21.6781 409,29.5C 417.182,45.7128 423.182,62.7128 427,80.5C 434.418,112.426 437.251,144.759 435.5,177.5 Z"/></g>
<g><path style="opacity:1" fill="#2d241c" d="M 435.5,177.5 C 435.387,185.189 434.887,192.855 434,200.5C 433.768,201.737 433.268,202.737 432.5,203.5C 433.269,194.668 434.269,186.001 435.5,177.5 Z"/></g>
<g><path style="opacity:1" fill="#060504" d="M 327.5,502.5 C 316.373,503.402 305.373,502.402 294.5,499.5C 287.091,501.282 279.591,502.615 272,503.5C 270.122,503.304 268.288,502.971 266.5,502.5C 249.903,499.573 238.07,490.24 231,474.5C 224.24,433.031 216.573,391.697 208,350.5C 205.982,343.954 202.148,338.787 196.5,335C 184.5,330.333 172.5,325.667 160.5,321C 142.88,308.203 139.714,292.37 151,273.5C 182.989,231.948 224.156,218.448 274.5,233C 283.309,237.975 290.309,244.809 295.5,253.5C 302.024,241.811 311.691,233.978 324.5,230C 368.008,220.837 404.508,232.671 434,265.5C 438.943,271.047 442.61,277.381 445,284.5C 448.387,301.561 442.22,314.061 426.5,322C 415.283,324.962 404.616,329.295 394.5,335C 386.256,340.64 381.423,348.474 380,358.5C 374.703,386.946 369.536,415.446 364.5,444C 367.901,473.74 355.568,493.24 327.5,502.5 Z"/></g>
<g><path style="opacity:1" fill="#bb843d" d="M 354.5,450.5 C 346.786,443.118 339.12,435.784 331.5,428.5C 328.616,424.451 324.949,421.284 320.5,419C 302.17,412.401 284.17,413.068 266.5,421C 255.798,431.039 254.631,442.205 263,454.5C 271.285,463.393 281.452,468.726 293.5,470.5C 300.146,477.812 307.146,484.812 314.5,491.5C 308.15,490.63 301.817,489.63 295.5,488.5C 287.677,489.898 279.844,491.231 272,492.5C 269.667,491.833 267.333,491.167 265,490.5C 264.235,490.57 263.735,490.903 263.5,491.5C 252.221,487.388 244.387,479.721 240,468.5C 234.227,432.097 227.894,395.764 221,359.5C 219.896,344.443 213.063,332.943 200.5,325C 189.293,320.364 177.96,316.03 166.5,312C 157.147,306.793 153.647,298.96 156,288.5C 161.5,275.657 170,265.157 181.5,257C 201.775,242.242 224.441,235.576 249.5,237C 262.232,238.347 273.065,243.513 282,252.5C 286.452,261.19 290.118,270.19 293,279.5C 296.915,281.289 299.248,279.956 300,275.5C 302.156,264.018 307.323,254.184 315.5,246C 337.295,234.475 359.629,233.475 382.5,243C 400.061,249.234 414.894,259.4 427,273.5C 441.157,291.344 437.99,304.844 417.5,314C 405.616,317.11 394.616,322.11 384.5,329C 380.871,333.114 377.371,337.281 374,341.5C 366.568,374.66 359.901,407.994 354,441.5C 353.366,444.555 353.532,447.555 354.5,450.5 Z"/></g>
<g><path style="opacity:1" fill="#050403" d="M 220.5,261.5 C 242.155,259.989 252.322,269.989 251,291.5C 244.707,307.896 233.207,313.396 216.5,308C 206.968,302.948 202.302,294.948 202.5,284C 204.305,273.04 210.305,265.54 220.5,261.5 Z"/></g>
<g><path style="opacity:1" fill="#060403" d="M 357.5,261.5 C 373.032,259.344 383.199,265.678 388,280.5C 389.418,298.916 380.918,308.916 362.5,310.5C 345.235,307.315 337.735,296.981 340,279.5C 342.683,270.318 348.517,264.318 357.5,261.5 Z"/></g>
<g><path style="opacity:1" fill="#241916" d="M 224.5,271.5 C 237.867,272.691 242.701,279.691 239,292.5C 229.236,302.654 220.902,301.654 214,289.5C 212.347,283.622 213.847,278.788 218.5,275C 220.727,274.059 222.727,272.892 224.5,271.5 Z"/></g>
<g><path style="opacity:1" fill="#241916" d="M 360.5,271.5 C 372.517,271.679 378.017,277.679 377,289.5C 372.62,298.947 365.787,301.447 356.5,297C 347.496,286.872 348.829,278.372 360.5,271.5 Z"/></g>
<g><path style="opacity:1" fill="#ececec" d="M 230.5,276.5 C 235.665,276.162 237.831,278.495 237,283.5C 234.679,286.917 232.012,287.25 229,284.5C 228.109,281.502 228.609,278.836 230.5,276.5 Z"/></g>
<g><path style="opacity:1" fill="#eaeaea" d="M 367.5,276.5 C 372.325,276.488 374.491,278.821 374,283.5C 369.923,287.859 366.756,287.192 364.5,281.5C 365.26,279.64 366.26,277.973 367.5,276.5 Z"/></g>
<g><path style="opacity:1" fill="#040201" d="M 331.5,428.5 C 336.047,443.255 331.713,454.755 318.5,463C 310.844,467.83 302.511,470.33 293.5,470.5C 281.452,468.726 271.285,463.393 263,454.5C 254.631,442.205 255.798,431.039 266.5,421C 284.17,413.068 302.17,412.401 320.5,419C 324.949,421.284 328.616,424.451 331.5,428.5 Z"/></g>
<g><path style="opacity:1" fill="#231815" d="M 282.5,425.5 C 293.321,424.858 303.988,425.691 314.5,428C 322.577,430.987 325.077,436.487 322,444.5C 306.126,464.386 289.126,465.386 271,447.5C 265.871,441.127 266.371,435.293 272.5,430C 275.815,428.17 279.149,426.67 282.5,425.5 Z"/></g>
<g><path style="opacity:1" fill="#b37e3a" d="M 331.5,428.5 C 339.12,435.784 346.786,443.118 354.5,450.5C 354.774,470.287 345.774,483.954 327.5,491.5C 323.094,492.092 318.761,492.092 314.5,491.5C 307.146,484.812 300.146,477.812 293.5,470.5C 302.511,470.33 310.844,467.83 318.5,463C 331.713,454.755 336.047,443.255 331.5,428.5 Z"/></g>
<g><path style="opacity:1" fill="#a7715f" d="M 314.5,491.5 C 318.761,492.092 323.094,492.092 327.5,491.5C 324.86,492.421 322.027,493.088 319,493.5C 311.109,492.488 303.276,491.155 295.5,489.5C 287.724,491.155 279.891,492.488 272,493.5C 268.74,492.804 265.907,492.138 263.5,491.5C 263.735,490.903 264.235,490.57 265,490.5C 267.333,491.167 269.667,491.833 272,492.5C 279.844,491.231 287.677,489.898 295.5,488.5C 301.817,489.63 308.15,490.63 314.5,491.5 Z"/></g>
<g><path style="opacity:1" fill="#f2a394" d="M 327.5,502.5 C 329.916,519.585 327.749,536.252 321,552.5C 310.748,570.582 296.582,574.415 278.5,564C 274.555,560.054 271.389,555.554 269,550.5C 263.253,535.011 261.086,519.011 262.5,502.5C 263.833,502.5 265.167,502.5 266.5,502.5C 268.288,502.971 270.122,503.304 272,503.5C 279.591,502.615 287.091,501.282 294.5,499.5C 305.373,502.402 316.373,503.402 327.5,502.5 Z"/></g>
</svg>
