<?xml version="1.0" encoding="UTF-8"?>
<!DOCTYPE svg PUBLIC "-//W3C//DTD SVG 1.1//EN" "http://www.w3.org/Graphics/SVG/1.1/DTD/svg11.dtd">
<svg xmlns="http://www.w3.org/2000/svg" version="1.1" width="600px" height="600px" style="shape-rendering:geometricPrecision; text-rendering:geometricPrecision; image-rendering:optimizeQuality; fill-rule:evenodd; clip-rule:evenodd" xmlns:xlink="http://www.w3.org/1999/xlink">
<g><path style="opacity:0.976" fill="#040303" d="M 445.5,45.5 C 454.719,43.7675 460.052,47.4342 461.5,56.5C 459.366,63.5683 457.033,70.5683 454.5,77.5C 458.125,79.2213 461.792,81.0547 465.5,83C 470.26,88.1942 471.427,94.0275 469,100.5C 508.805,128.635 543.805,161.968 574,200.5C 581.576,213.467 585.743,227.467 586.5,242.5C 582.863,263.521 579.029,284.521 575,305.5C 575.554,342.279 573.888,378.946 570,415.5C 569.751,418.177 568.751,420.51 567,422.5C 566.537,429.852 565.87,437.185 565,444.5C 564.83,451.692 562.33,457.859 557.5,463C 553.562,465.018 549.728,464.851 546,462.5C 544.262,469.382 541.928,476.048 539,482.5C 535.009,487.914 530.009,489.247 524,486.5C 521.596,494.478 517.762,501.645 512.5,508C 505.173,510.671 499.839,508.504 496.5,501.5C 485.807,506.985 479.473,503.651 477.5,491.5C 478.515,487.869 478.681,484.202 478,480.5C 474.915,485.672 471.581,490.672 468,495.5C 462.516,500.091 456.516,500.758 450,497.5C 442.918,505.304 434.085,510.47 423.5,513C 420.24,513.784 417.073,513.617 414,512.5C 394.887,531.64 372.054,543.806 345.5,549C 297.91,559.885 252.577,554.218 209.5,532C 200.973,527.145 193.307,521.145 186.5,514C 176.483,513.773 167.15,511.106 158.5,506C 155.48,503.977 153.146,501.31 151.5,498C 147.796,498.774 143.963,499.608 140,500.5C 137.268,500.385 134.768,499.552 132.5,498C 128.277,492.776 124.444,487.276 121,481.5C 120.233,485.558 120.4,489.558 121.5,493.5C 118.947,504.946 112.614,507.946 102.5,502.5C 97.158,511.454 90.658,512.454 83,505.5C 79.945,499.667 77.2783,493.667 75,487.5C 68.9911,490.247 63.9911,488.914 60,483.5C 57.3624,476.955 55.0291,470.288 53,463.5C 44.4447,467.104 38.778,464.438 36,455.5C 33.6438,444.294 32.3104,432.961 32,421.5C 30.2494,419.51 29.2494,417.177 29,414.5C 25.1368,378.278 23.4702,341.944 24,305.5C 21.051,288.422 17.7177,271.422 14,254.5C 11.8187,236.407 15.152,219.407 24,203.5C 28.844,195.812 34.1774,188.479 40,181.5C 67.6208,151.863 97.6208,125.196 130,101.5C 126.956,89.7763 131.456,82.6097 143.5,80C 144.022,79.4387 144.355,78.772 144.5,78C 141.768,71.1366 139.434,64.1366 137.5,57C 139.591,47.9433 145.257,44.6099 154.5,47C 166.091,52.2986 177.758,57.2986 189.5,62C 208.162,64.0823 226.828,65.9157 245.5,67.5C 248.989,64.2475 253.156,62.5808 258,62.5C 271.358,64.9533 284.358,68.62 297,73.5C 310.037,68.822 323.37,65.1553 337,62.5C 341.959,63.0707 346.626,64.404 351,66.5C 370.538,65.0175 390.038,63.1842 409.5,61C 412.893,60.2023 416.226,59.2023 419.5,58C 427.872,52.9789 436.539,48.8122 445.5,45.5 Z"/></g>
<g><path style="opacity:1" fill="#39312e" d="M 451.5,347.5 C 452.651,342.35 452.817,337.016 452,331.5C 448.356,299.54 445.189,267.54 442.5,235.5C 443.143,229.112 442.143,223.112 439.5,217.5C 429.359,170.028 406.026,130.528 369.5,99C 365.779,96.4728 361.779,94.4728 357.5,93C 348.429,90.1505 339.429,87.1505 330.5,84C 333.02,82.2075 335.686,80.7075 338.5,79.5C 344.733,77.9052 351.066,76.7386 357.5,76C 374.551,75.2403 391.551,73.907 408.5,72C 419.648,69.5919 429.982,65.2586 439.5,59C 443.009,57.2406 446.675,56.074 450.5,55.5C 447.531,66.5747 443.864,77.408 439.5,88C 445.769,89.043 452.103,90.043 458.5,91C 459.335,94.5725 457.835,97.0725 454,98.5C 453.333,99.8333 453.333,101.167 454,102.5C 495.039,130.532 531.373,163.866 563,202.5C 574.186,218.947 577.853,236.947 574,256.5C 570.237,273.074 566.904,289.741 564,306.5C 565.208,334.209 564.542,361.876 562,389.5C 559.429,381.858 555.929,374.691 551.5,368C 540.037,363.319 533.203,367.152 531,379.5C 528.594,395.052 523.594,409.719 516,423.5C 513.927,413.876 510.927,404.543 507,395.5C 500.974,390.322 494.974,390.322 489,395.5C 483.338,413.144 474.338,428.81 462,442.5C 461.562,434.996 461.062,427.496 460.5,420C 462.828,404.57 463.995,389.07 464,373.5C 460.621,364.41 456.455,355.744 451.5,347.5 Z"/></g>
<g><path style="opacity:1" fill="#39312e" d="M 256.5,79.5 C 260.771,80.2693 264.771,81.7693 268.5,84C 269.833,84.6667 269.833,85.3333 268.5,86C 254.141,88.4506 240.807,93.4506 228.5,101C 200.622,124.243 180.788,153.076 169,187.5C 165.52,197.437 162.354,207.437 159.5,217.5C 158.226,219.993 157.56,222.659 157.5,225.5C 155.302,261.472 151.802,297.472 147,333.5C 146.184,338.684 146.35,343.684 147.5,348.5C 141.525,357.783 137.192,367.783 134.5,378.5C 135.54,392.862 136.874,407.196 138.5,421.5C 138.047,428.837 137.547,436.17 137,443.5C 125.178,429.532 116.178,413.865 110,396.5C 103.974,391.322 97.9738,391.322 92,396.5C 88.1176,405.481 85.451,414.814 84,424.5C 75.6952,410.587 70.3619,395.587 68,379.5C 65.2295,367.865 58.3962,364.365 47.5,369C 43.0714,375.691 39.5714,382.858 37,390.5C 35.8617,362.514 35.1951,334.514 35,306.5C 32.204,290.057 28.8706,273.724 25,257.5C 22.3566,242.67 24.0233,228.336 30,214.5C 34.8845,205.619 40.5512,197.286 47,189.5C 76.7032,157.109 109.37,128.443 145,103.5C 145.667,102.167 145.667,100.833 145,99.5C 143.333,98.1667 141.667,96.8333 140,95.5C 139.316,94.2161 139.483,93.0495 140.5,92C 146.64,90.8982 152.807,90.0649 159,89.5C 155.629,78.5498 152.129,67.5498 148.5,56.5C 151.568,57.0218 154.568,57.8551 157.5,59C 167.681,65.5903 178.681,70.2569 190.5,73C 212.55,74.8358 234.55,77.0025 256.5,79.5 Z"/></g>
<g><path style="opacity:1" fill="#50443f" d="M 242.5,176.5 C 209.593,179.787 181.926,193.454 159.5,217.5C 162.354,207.437 165.52,197.437 169,187.5C 180.788,153.076 200.622,124.243 228.5,101C 240.807,93.4506 254.141,88.4506 268.5,86C 269.833,85.3333 269.833,84.6667 268.5,84C 264.771,81.7693 260.771,80.2693 256.5,79.5C 255.27,77.7028 254.604,75.7028 254.5,73.5C 261.47,73.4273 268.137,74.7607 274.5,77.5C 273.257,81.7686 272.257,86.102 271.5,90.5C 251.91,106.52 240.577,127.02 237.5,152C 238.14,160.39 239.806,168.556 242.5,176.5 Z"/></g>
<g><path style="opacity:1" fill="#50443f" d="M 338.5,79.5 C 335.686,80.7075 333.02,82.2075 330.5,84C 339.429,87.1505 348.429,90.1505 357.5,93C 361.779,94.4728 365.779,96.4728 369.5,99C 406.026,130.528 429.359,170.028 439.5,217.5C 416.049,192.277 387.049,178.61 352.5,176.5C 360.656,151.769 356.823,129.103 341,108.5C 335.032,101.531 328.699,94.8641 322,88.5C 321.663,85.1392 321.163,81.8058 320.5,78.5C 321.423,76.3643 323.089,75.1976 325.5,75C 330.42,73.7497 335.42,73.2497 340.5,73.5C 340.296,75.6854 339.63,77.6854 338.5,79.5 Z"/></g>
<g><path style="opacity:1" fill="#f4ece5" d="M 327.5,188.5 C 326.778,188.918 326.278,189.584 326,190.5C 325.503,193.146 325.336,195.813 325.5,198.5C 317.576,210.348 313.91,223.514 314.5,238C 313.666,251.827 316.666,264.66 323.5,276.5C 306.123,274.896 288.79,275.229 271.5,277.5C 278.119,265.584 281.119,252.751 280.5,239C 280.816,226.583 278.316,214.749 273,203.5C 273.363,199.199 273.363,194.866 273,190.5C 272.392,188.934 271.558,187.6 270.5,186.5C 269.833,183.833 268.167,182.167 265.5,181.5C 262.3,179.369 258.8,177.702 255,176.5C 247.545,162.651 246.545,148.318 252,133.5C 258.851,118.156 268.851,105.156 282,94.5C 283.095,90.2295 283.928,85.8962 284.5,81.5C 285,81.1667 285.5,80.8333 286,80.5C 289.479,82.409 293.146,83.7423 297,84.5C 301.178,84.0523 305.011,82.7189 308.5,80.5C 309.647,80.8178 310.481,81.4844 311,82.5C 311.231,86.5841 311.898,90.5841 313,94.5C 320.032,101.197 326.698,108.197 333,115.5C 342.889,128.501 347.556,143.168 347,159.5C 345.372,165.888 342.872,171.888 339.5,177.5C 334.13,179.822 330.13,183.489 327.5,188.5 Z"/></g>
<g><path style="opacity:1" fill="#ce9b5d" d="M 352.5,176.5 C 387.049,178.61 416.049,192.277 439.5,217.5C 442.143,223.112 443.143,229.112 442.5,235.5C 440.545,236.323 438.545,236.49 436.5,236C 423.317,228.741 409.65,222.575 395.5,217.5C 383.213,213.263 370.546,210.93 357.5,210.5C 351.158,210.666 344.825,210.5 338.5,210C 335.949,209.998 333.949,209.164 332.5,207.5C 334.65,202.377 336.317,197.044 337.5,191.5C 339.83,189.333 342.497,187.666 345.5,186.5C 348.348,183.45 350.682,180.116 352.5,176.5 Z"/></g>
<g><path style="opacity:1" fill="#ce9b5d" d="M 242.5,176.5 C 244.601,179.179 246.601,182.012 248.5,185C 253.428,187.03 258.094,189.53 262.5,192.5C 262.4,197.812 262.733,203.145 263.5,208.5C 262.737,209.268 261.737,209.768 260.5,210C 254.175,210.5 247.842,210.666 241.5,210.5C 228.347,210.799 215.68,213.132 203.5,217.5C 198.332,218.834 193.332,220.668 188.5,223C 179.284,227.709 169.951,232.209 160.5,236.5C 159.558,236.392 158.725,236.059 158,235.5C 157.502,232.183 157.335,228.85 157.5,225.5C 157.56,222.659 158.226,219.993 159.5,217.5C 181.926,193.454 209.593,179.787 242.5,176.5 Z"/></g>
<g><path style="opacity:1" fill="#886e53" d="M 265.5,181.5 C 268.167,182.167 269.833,183.833 270.5,186.5C 268.5,185.167 266.833,183.5 265.5,181.5 Z"/></g>
<g><path style="opacity:1" fill="#72583c" d="M 327.5,188.5 C 327.101,192.011 326.434,195.344 325.5,198.5C 325.336,195.813 325.503,193.146 326,190.5C 326.278,189.584 326.778,188.918 327.5,188.5 Z"/></g>
<g><path style="opacity:1" fill="#806c53" d="M 241.5,210.5 C 261.511,223.056 265.677,239.723 254,260.5C 239.7,275.628 223.867,277.462 206.5,266C 191.708,250.667 190.708,234.501 203.5,217.5C 215.68,213.132 228.347,210.799 241.5,210.5 Z"/></g>
<g><path style="opacity:1" fill="#806c53" d="M 357.5,210.5 C 370.546,210.93 383.213,213.263 395.5,217.5C 408.518,235.092 407.185,251.592 391.5,267C 374.23,277.398 358.73,275.231 345,260.5C 333.647,239.728 337.813,223.062 357.5,210.5 Z"/></g>
<g><path style="opacity:1" fill="#4e423d" d="M 332.5,207.5 C 333.949,209.164 335.949,209.998 338.5,210C 344.825,210.5 351.158,210.666 357.5,210.5C 337.813,223.062 333.647,239.728 345,260.5C 358.73,275.231 374.23,277.398 391.5,267C 407.185,251.592 408.518,235.092 395.5,217.5C 409.65,222.575 423.317,228.741 436.5,236C 438.545,236.49 440.545,236.323 442.5,235.5C 445.189,267.54 448.356,299.54 452,331.5C 452.817,337.016 452.651,342.35 451.5,347.5C 432.38,314.554 405.047,291.054 369.5,277C 356.184,272.84 342.851,269.007 329.5,265.5C 323.033,248.248 322.867,230.915 329,213.5C 329.941,211.273 331.108,209.273 332.5,207.5 Z"/></g>
<g><path style="opacity:1" fill="#2f2725" d="M 364.5,219.5 C 383.858,217.044 393.691,225.378 394,244.5C 390.548,258.927 381.381,265.094 366.5,263C 352.114,257.054 347.28,246.554 352,231.5C 355.018,226.252 359.185,222.252 364.5,219.5 Z"/></g>
<g><path style="opacity:1" fill="#f0efef" d="M 377.5,228.5 C 386.931,230.19 388.598,234.69 382.5,242C 375,243.167 371.833,240 373,232.5C 374.397,230.93 375.897,229.596 377.5,228.5 Z"/></g>
<g><path style="opacity:1" fill="#50433e" d="M 263.5,208.5 C 268.747,218.051 271.08,228.385 270.5,239.5C 271.162,249.025 269.328,258.025 265,266.5C 212.971,275.739 173.804,303.072 147.5,348.5C 146.35,343.684 146.184,338.684 147,333.5C 151.802,297.472 155.302,261.472 157.5,225.5C 157.335,228.85 157.502,232.183 158,235.5C 158.725,236.059 159.558,236.392 160.5,236.5C 169.951,232.209 179.284,227.709 188.5,223C 193.332,220.668 198.332,218.834 203.5,217.5C 190.708,234.501 191.708,250.667 206.5,266C 223.867,277.462 239.7,275.628 254,260.5C 265.677,239.723 261.511,223.056 241.5,210.5C 247.842,210.666 254.175,210.5 260.5,210C 261.737,209.768 262.737,209.268 263.5,208.5 Z"/></g>
<g><path style="opacity:1" fill="#302825" d="M 220.5,219.5 C 240.346,217.193 250.18,225.859 250,245.5C 244.313,261.398 233.479,266.565 217.5,261C 206.945,253.665 203.778,243.832 208,231.5C 211.018,226.252 215.185,222.252 220.5,219.5 Z"/></g>
<g><path style="opacity:1" fill="#f3f3f3" d="M 231.5,229.5 C 237.318,227.969 240.984,229.969 242.5,235.5C 239.562,243.518 235.062,244.518 229,238.5C 228.131,235.007 228.964,232.007 231.5,229.5 Z"/></g>
<g><path style="opacity:1" fill="#c28c45" d="M 323.5,276.5 C 324.833,276.5 326.167,276.5 327.5,276.5C 333.186,278.707 339.186,280.04 345.5,280.5C 352.615,283.204 359.949,285.537 367.5,287.5C 407.514,305.015 436.014,334.015 453,374.5C 453.269,388.603 452.103,402.603 449.5,416.5C 450.447,430.144 450.78,443.81 450.5,457.5C 449.35,462.316 449.184,467.316 450,472.5C 453.369,468.963 456.869,465.629 460.5,462.5C 460.111,469.339 459.444,476.006 458.5,482.5C 455.711,484.641 452.711,486.307 449.5,487.5C 448.498,479.487 447.332,471.487 446,463.5C 445.252,461.668 444.252,460.001 443,458.5C 441.15,469.337 439.816,480.337 439,491.5C 437.412,496.052 434.245,498.885 429.5,500C 425.864,501.268 422.197,502.434 418.5,503.5C 416.129,502.653 414.129,501.32 412.5,499.5C 416.49,494.196 419.99,488.53 423,482.5C 423.973,476.386 423.14,470.553 420.5,465C 423.142,466.739 426.142,467.906 429.5,468.5C 442.563,405.136 421.563,356.636 366.5,323C 358.375,318.936 350.042,315.436 341.5,312.5C 340.391,305.893 337.058,300.726 331.5,297C 320.949,291.872 309.782,289.705 298,290.5C 287.15,289.603 276.983,291.77 267.5,297C 261.711,301.089 258.378,306.589 257.5,313.5C 224.477,323.296 198.977,343.296 181,373.5C 164.632,403.375 160.966,434.708 170,467.5C 170.561,468.022 171.228,468.355 172,468.5C 174.019,466.757 176.186,465.59 178.5,465C 175.991,470.58 175.157,476.414 176,482.5C 179.01,488.53 182.51,494.196 186.5,499.5C 185.09,501.96 182.924,503.293 180,503.5C 173.462,501.99 167.462,499.323 162,495.5C 160.375,491.668 159.375,487.668 159,483.5C 158.357,475.505 157.857,467.505 157.5,459.5C 154.654,459.809 153.154,461.475 153,464.5C 152.406,470.175 151.74,475.842 151,481.5C 150.457,483.631 149.624,485.631 148.5,487.5C 145.864,486.029 143.364,484.363 141,482.5C 140.601,482.728 140.435,483.062 140.5,483.5C 139.784,476.255 138.784,468.921 137.5,461.5C 140.805,465.637 144.638,469.303 149,472.5C 149.167,470.833 149.333,469.167 149.5,467.5C 148.191,451.33 148.191,435.163 149.5,419C 147.206,404.591 145.873,390.091 145.5,375.5C 147.957,372.249 149.624,368.582 150.5,364.5C 154.003,359.498 157.003,354.165 159.5,348.5C 162.185,345.81 164.518,342.81 166.5,339.5C 192.45,303.957 227.45,283.291 271.5,277.5C 288.79,275.229 306.123,274.896 323.5,276.5 Z"/></g>
<g><path style="opacity:1" fill="#4e3d30" d="M 327.5,276.5 C 333.755,277.215 339.755,278.549 345.5,280.5C 339.186,280.04 333.186,278.707 327.5,276.5 Z"/></g>
<g><path style="opacity:1" fill="#483a2f" d="M 345.5,280.5 C 353.302,281.658 360.636,283.991 367.5,287.5C 359.949,285.537 352.615,283.204 345.5,280.5 Z"/></g>
<g><path style="opacity:1" fill="#040302" d="M 341.5,312.5 C 340.57,332.174 330.903,345.674 312.5,353C 288.456,358.061 270.956,349.561 260,327.5C 258.208,323 257.375,318.333 257.5,313.5C 258.378,306.589 261.711,301.089 267.5,297C 276.983,291.77 287.15,289.603 298,290.5C 309.782,289.705 320.949,291.872 331.5,297C 337.058,300.726 340.391,305.893 341.5,312.5 Z"/></g>
<g><path style="opacity:1" fill="#221714" d="M 296.5,300.5 C 304.959,300.799 313.293,301.966 321.5,304C 329.901,307.302 332.401,313.135 329,321.5C 324.372,332.126 316.539,339.293 305.5,343C 298.784,344.742 292.45,343.742 286.5,340C 280.258,334.429 274.758,328.262 270,321.5C 266.627,312.08 269.794,305.914 279.5,303C 285.331,302.29 290.998,301.457 296.5,300.5 Z"/></g>
<g><path style="opacity:1" fill="#f5ede6" d="M 257.5,313.5 C 257.375,318.333 258.208,323 260,327.5C 270.956,349.561 288.456,358.061 312.5,353C 330.903,345.674 340.57,332.174 341.5,312.5C 350.042,315.436 358.375,318.936 366.5,323C 421.563,356.636 442.563,405.136 429.5,468.5C 426.142,467.906 423.142,466.739 420.5,465C 423.14,470.553 423.973,476.386 423,482.5C 419.99,488.53 416.49,494.196 412.5,499.5C 400.569,512.984 386.235,523.318 369.5,530.5C 368.044,527.714 367.044,524.714 366.5,521.5C 365.201,522.09 364.368,523.09 364,524.5C 363.626,531.206 360.126,535.04 353.5,536C 315.744,546.281 278.077,545.948 240.5,535C 239.667,534.167 238.833,533.333 238,532.5C 236.595,528.783 235.095,525.117 233.5,521.5C 232.058,524.368 230.725,527.368 229.5,530.5C 212.841,523.342 198.508,513.009 186.5,499.5C 182.51,494.196 179.01,488.53 176,482.5C 175.157,476.414 175.991,470.58 178.5,465C 176.186,465.59 174.019,466.757 172,468.5C 171.228,468.355 170.561,468.022 170,467.5C 160.966,434.708 164.632,403.375 181,373.5C 198.977,343.296 224.477,323.296 257.5,313.5 Z"/></g>
<g><path style="opacity:1" fill="#4c3c30" d="M 166.5,339.5 C 164.518,342.81 162.185,345.81 159.5,348.5C 160.781,344.567 163.114,341.567 166.5,339.5 Z"/></g>
<g><path style="opacity:1" fill="#3f342d" d="M 150.5,364.5 C 149.624,368.582 147.957,372.249 145.5,375.5C 146.376,371.418 148.043,367.751 150.5,364.5 Z"/></g>
<g><path style="opacity:1" fill="#cd9a5c" d="M 458.5,482.5 C 459.444,476.006 460.111,469.339 460.5,462.5C 460.833,461.833 461.167,461.167 461.5,460.5C 474.42,446.39 485.254,430.723 494,413.5C 495.333,409.5 496.667,405.5 498,401.5C 503.708,416.999 507.208,432.999 508.5,449.5C 519.034,440.12 526.867,428.787 532,415.5C 537.031,402.745 541.031,389.745 544,376.5C 548.474,384.451 552.141,392.784 555,401.5C 555.837,416.863 555.504,432.197 554,447.5C 553.767,449.78 552.934,451.78 551.5,453.5C 548.162,447.488 544.328,441.821 540,436.5C 538.632,450.76 535.132,464.427 529.5,477.5C 528.103,472.228 526.937,466.895 526,461.5C 525.527,459.221 524.527,457.221 523,455.5C 519.817,464.717 516.817,474.05 514,483.5C 512.046,488.705 509.713,493.705 507,498.5C 507.384,486.179 507.384,473.846 507,461.5C 506.844,457.866 505.844,454.533 504,451.5C 500.616,466.315 495.616,480.648 489,494.5C 488.667,481.167 488.333,467.833 488,454.5C 487.969,450.196 486.969,446.196 485,442.5C 478.702,459.268 470.202,474.768 459.5,489C 459.167,489.167 458.833,489.333 458.5,489.5C 457.425,487.189 457.425,484.856 458.5,482.5 Z"/></g>
<g><path style="opacity:1" fill="#cd9a5c" d="M 137.5,461.5 C 138.784,468.921 139.784,476.255 140.5,483.5C 141.575,485.856 141.575,488.189 140.5,490.5C 135.786,485.279 131.619,479.612 128,473.5C 123.12,463.819 118.454,454.152 114,444.5C 113.055,444.905 112.388,445.572 112,446.5C 110.817,462.805 110.151,479.139 110,495.5C 103.401,481.704 98.4015,467.37 95,452.5C 93.9563,453.623 93.2896,454.956 93,456.5C 91.4102,470.827 91.0768,485.16 92,499.5C 85.4766,486.091 80.4766,472.091 77,457.5C 75.4419,456.655 74.4419,457.321 74,459.5C 72.2859,465.786 70.7859,472.119 69.5,478.5C 64.007,465.35 60.3403,451.683 58.5,437.5C 54.5842,442.996 50.9175,448.663 47.5,454.5C 46.066,452.78 45.2326,450.78 45,448.5C 43.4963,433.197 43.163,417.863 44,402.5C 46.8593,393.784 50.526,385.451 55,377.5C 59.4122,397.062 66.4122,415.729 76,433.5C 79.8435,440.187 84.8435,445.853 91,450.5C 92.1205,434.021 95.4538,418.021 101,402.5C 109.247,424.582 121.413,444.249 137.5,461.5 Z"/></g>
<g><path style="opacity:1" fill="#241916" d="M 270.5,383.5 C 287.502,384.688 304.502,384.688 321.5,383.5C 324.592,383.507 327.592,384.007 330.5,385C 333.167,387.333 333.167,389.667 330.5,392C 309.836,396.666 289.169,396.666 268.5,392C 267.707,390.915 267.04,389.748 266.5,388.5C 267.508,386.501 268.841,384.834 270.5,383.5 Z"/></g>
<g><path style="opacity:1" fill="#3a2d22" d="M 450.5,457.5 C 450.334,461.514 450.501,465.514 451,469.5C 454.098,465.893 457.598,462.893 461.5,460.5C 461.167,461.167 460.833,461.833 460.5,462.5C 456.869,465.629 453.369,468.963 450,472.5C 449.184,467.316 449.35,462.316 450.5,457.5 Z"/></g>
</svg>
