<?xml version="1.0" encoding="UTF-8"?>
<!DOCTYPE svg PUBLIC "-//W3C//DTD SVG 1.1//EN" "http://www.w3.org/Graphics/SVG/1.1/DTD/svg11.dtd">
<svg xmlns="http://www.w3.org/2000/svg" version="1.1" width="600px" height="600px" style="shape-rendering:geometricPrecision; text-rendering:geometricPrecision; image-rendering:optimizeQuality; fill-rule:evenodd; clip-rule:evenodd" xmlns:xlink="http://www.w3.org/1999/xlink">
<g><path style="opacity:0.951" fill="#010101" d="M 182.5,-0.5 C 189.167,-0.5 195.833,-0.5 202.5,-0.5C 211.659,4.1715 217.826,11.5048 221,21.5C 234.745,58.4034 249.079,95.0701 264,131.5C 265.009,132.658 266.342,133.325 268,133.5C 287.541,132.551 307.041,132.218 326.5,132.5C 342.078,95.9345 356.578,58.9345 370,21.5C 373.895,12.117 380.062,4.78363 388.5,-0.5C 395.167,-0.5 401.833,-0.5 408.5,-0.5C 421.458,6.98057 430.291,17.9806 435,32.5C 458.899,96.923 466.566,163.256 458,231.5C 457.333,239.5 457.333,247.5 458,255.5C 464.134,298.772 469.801,342.105 475,385.5C 488.085,443.501 475.085,494.501 436,538.5C 406.942,568.723 372.109,589.057 331.5,599.5C 307.833,599.5 284.167,599.5 260.5,599.5C 205.413,585.88 162.579,555.213 132,507.5C 113.099,472.98 107.432,436.313 115,397.5C 120.345,350.417 126.345,303.417 133,256.5C 133.667,247.833 133.667,239.167 133,230.5C 124.484,161.807 132.484,95.1405 157,30.5C 161.8,16.8899 170.3,6.55652 182.5,-0.5 Z"/></g>
<g><path style="opacity:1" fill="#4b4848" d="M 187.5,8.5 C 196.666,7.1667 203.499,10.5 208,18.5C 224.412,60.5752 240.912,102.575 257.5,144.5C 282.832,141.833 308.165,141.833 333.5,144.5C 349.676,104.811 365.176,64.8108 380,24.5C 388.475,5.93108 400.142,3.59775 415,17.5C 423.833,31.8382 430.5,47.1715 435,63.5C 445.934,100.366 451.1,138.033 450.5,176.5C 449.707,202.214 448.541,227.88 447,253.5C 454.977,306.008 461.644,358.674 467,411.5C 472.875,453.185 462.542,490.185 436,522.5C 395.673,570.242 344.173,593.409 281.5,592C 223.592,584.143 178.092,556.31 145,508.5C 126.332,479.526 119.332,447.86 124,413.5C 129.204,359.994 135.871,306.661 144,253.5C 142.596,227.371 141.429,201.204 140.5,175C 140.161,126.861 148.661,80.3611 166,35.5C 170.143,23.8815 177.31,14.8815 187.5,8.5 Z"/></g>
<g><path style="opacity:1" fill="#070606" d="M 190.5,20.5 C 198.541,20.0321 203.708,23.6987 206,31.5C 216.754,66.9351 225.087,102.935 231,139.5C 232.499,151.128 232.832,162.794 232,174.5C 231.75,177.754 230.75,180.754 229,183.5C 221.463,190.706 213.629,197.54 205.5,204C 197.43,211.4 190.096,219.4 183.5,228C 178.221,232.187 172.221,233.52 165.5,232C 162.333,230.167 159.833,227.667 158,224.5C 147.311,165.146 151.311,106.812 170,49.5C 173.084,38.8231 178.584,29.6564 186.5,22C 188.058,21.79 189.391,21.29 190.5,20.5 Z"/></g>
<g><path style="opacity:1" fill="#070707" d="M 394.5,20.5 C 397.91,20.4571 401.243,20.9571 404.5,22C 410.56,27.3977 415.06,33.8977 418,41.5C 439.529,101.092 444.529,162.092 433,224.5C 427.803,232.575 420.637,234.742 411.5,231C 402.864,221.363 393.864,212.03 384.5,203C 376.705,196.873 369.205,190.373 362,183.5C 360.25,180.754 359.25,177.754 359,174.5C 358.333,165.5 358.333,156.5 359,147.5C 364.78,109.267 373.113,71.6008 384,34.5C 385.844,28.4294 389.344,23.7627 394.5,20.5 Z"/></g>
<g><path style="opacity:1" fill="#f8d0d0" d="M 191.5,25.5 C 196.305,26.1323 199.472,28.799 201,33.5C 212.345,70.5481 221.012,108.215 227,146.5C 227.667,155.5 227.667,164.5 227,173.5C 226.349,177.637 224.515,181.137 221.5,184C 205.876,196.29 191.543,209.957 178.5,225C 169.519,230.188 164.019,227.688 162,217.5C 153.242,164.372 156.576,112.039 172,60.5C 175.325,49.5102 179.992,39.1768 186,29.5C 187.812,28.0229 189.645,26.6896 191.5,25.5 Z"/></g>
<g><path style="opacity:1" fill="#f8d0d0" d="M 396.5,25.5 C 399.841,25.6559 402.674,26.9892 405,29.5C 409.113,35.3908 412.446,41.7242 415,48.5C 434.701,105.325 439.035,163.325 428,222.5C 423.783,228.153 418.617,228.986 412.5,225C 405.833,217.667 399.167,210.333 392.5,203C 383.573,195.284 374.739,187.451 366,179.5C 365.027,177.608 364.36,175.608 364,173.5C 363.194,149.47 365.861,125.804 372,102.5C 376.373,82.3408 381.373,62.3408 387,42.5C 388.662,35.8284 391.828,30.1617 396.5,25.5 Z"/></g>
<g><path style="opacity:1" fill="#0a0909" d="M 251.5,204.5 C 264.924,203.692 275.091,209.026 282,220.5C 284.274,224.714 286.274,229.047 288,233.5C 290.831,246.171 293.497,258.838 296,271.5C 298.054,259.462 300.387,247.462 303,235.5C 305.732,224.515 311.565,215.681 320.5,209C 337.234,201.569 351.4,205.069 363,219.5C 365.106,223.604 367.939,227.104 371.5,230C 375.183,231.841 378.516,234.174 381.5,237C 404.744,245.255 422.911,259.755 436,280.5C 442.294,294.388 439.461,305.888 427.5,315C 433.243,326.135 436.743,337.968 438,350.5C 441.566,389.102 436.233,426.435 422,462.5C 403.723,503.778 373.89,533.278 332.5,551C 289.849,563.603 251.516,555.603 217.5,527C 177.122,490.732 155.622,445.232 153,390.5C 151.155,369.529 152.822,348.862 158,328.5C 159.541,324.044 161.374,319.711 163.5,315.5C 159.009,311.518 155.509,306.852 153,301.5C 152.196,295.431 152.529,289.431 154,283.5C 162.065,268.101 173.565,255.934 188.5,247C 195.379,243.394 202.379,240.061 209.5,237C 213.311,233.26 217.644,230.26 222.5,228C 228.841,215.804 238.508,207.97 251.5,204.5 Z"/></g>
<g><path style="opacity:1" fill="#f4f5f5" d="M 248.5,210.5 C 261.546,208.608 271.379,213.275 278,224.5C 280.551,228.935 282.551,233.601 284,238.5C 286.57,249.398 288.57,260.398 290,271.5C 290.562,274.872 292.062,277.705 294.5,280C 297.298,280.561 299.131,279.394 300,276.5C 300.848,273.44 301.848,270.44 303,267.5C 303.219,251.955 306.886,237.289 314,223.5C 326.465,207.639 340.465,206.306 356,219.5C 359.232,224.788 363.065,229.622 367.5,234C 372.356,236.26 376.689,239.26 380.5,243C 398.084,249.267 412.918,259.434 425,273.5C 428.172,277.841 430.839,282.508 433,287.5C 435.481,299.688 430.981,308.188 419.5,313C 426.944,324.322 431.444,336.822 433,350.5C 436.179,388.401 430.846,425.068 417,460.5C 399.948,498.219 372.781,526.052 335.5,544C 303.896,556.837 273.229,554.837 243.5,538C 202.019,512.597 175.519,476.097 164,428.5C 156.327,396.955 155.66,365.288 162,333.5C 164.313,326.378 167.479,319.711 171.5,313.5C 168.282,311.301 165.116,308.967 162,306.5C 157.293,300.082 156.293,293.082 159,285.5C 164.333,275.168 171.499,266.335 180.5,259C 194.702,250.401 209.035,242.067 223.5,234C 228.212,228.957 232.545,223.623 236.5,218C 240.428,215.21 244.428,212.71 248.5,210.5 Z"/></g>
<g><path style="opacity:1" fill="#294455" d="M 233.5,262.5 C 228.03,262.246 222.696,262.913 217.5,264.5C 218.842,263.207 220.509,262.374 222.5,262C 226.358,261.19 230.024,261.357 233.5,262.5 Z"/></g>
<g><path style="opacity:1" fill="#080e12" d="M 233.5,262.5 C 248.657,267.473 254.49,277.806 251,293.5C 243.014,309.385 230.847,313.552 214.5,306C 205.747,298.844 202.58,289.677 205,278.5C 207.122,271.867 211.289,267.2 217.5,264.5C 222.696,262.913 228.03,262.246 233.5,262.5 Z"/></g>
<g><path style="opacity:1" fill="#0b1115" d="M 357.5,261.5 C 380.512,261.676 389.679,273.009 385,295.5C 376.425,309.606 364.592,313.106 349.5,306C 335.275,293.06 334.942,279.727 348.5,266C 351.592,264.454 354.592,262.954 357.5,261.5 Z"/></g>
<g><path style="opacity:1" fill="#3191c1" d="M 359.5,266.5 C 377.995,268.165 384.495,277.831 379,295.5C 372.345,304.603 363.845,306.77 353.5,302C 340.567,291.777 340.233,281.111 352.5,270C 354.925,268.787 357.259,267.621 359.5,266.5 Z"/></g>
<g><path style="opacity:1" fill="#241a17" d="M 356.5,269.5 C 374.145,268.305 381.311,276.305 378,293.5C 372.408,301.586 364.908,304.086 355.5,301C 346.808,295.254 344.308,287.421 348,277.5C 350.157,274.024 352.99,271.357 356.5,269.5 Z"/></g>
<g><path style="opacity:1" fill="#e3e3e3" d="M 366.5,276.5 C 371.325,276.488 373.491,278.821 373,283.5C 368.923,287.859 365.756,287.192 363.5,281.5C 364.26,279.64 365.26,277.973 366.5,276.5 Z"/></g>
<g><path style="opacity:1" fill="#3192c3" d="M 225.5,266.5 C 239.996,266.828 247.163,274.161 247,288.5C 242.828,301.836 233.995,306.669 220.5,303C 209.039,295.94 206.539,286.44 213,274.5C 216.579,270.724 220.746,268.057 225.5,266.5 Z"/></g>
<g><path style="opacity:1" fill="#241917" d="M 222.5,269.5 C 241.754,268.589 248.254,277.255 242,295.5C 234.819,303.193 226.652,304.359 217.5,299C 208.283,287.216 209.949,277.383 222.5,269.5 Z"/></g>
<g><path style="opacity:1" fill="#e1e1e1" d="M 231.5,276.5 C 236.325,276.488 238.491,278.821 238,283.5C 235.048,287.482 232.048,287.482 229,283.5C 228.333,282.167 228.333,280.833 229,279.5C 230.045,278.627 230.878,277.627 231.5,276.5 Z"/></g>
<g><path style="opacity:1" fill="#080707" d="M 332.5,420.5 C 334.77,433.796 330.104,443.962 318.5,451C 306.877,458.93 294.543,460.43 281.5,455.5C 269.796,451.296 261.963,443.296 258,431.5C 256.64,418.532 262.14,410.032 274.5,406C 289.596,402.438 304.596,402.772 319.5,407C 326.056,409.389 330.389,413.889 332.5,420.5 Z"/></g>
<g><path style="opacity:1" fill="#231815" d="M 286.5,408.5 C 294.88,408.262 303.213,408.762 311.5,410C 327.293,414.418 331.459,423.918 324,438.5C 305.633,458.072 286.967,458.406 268,439.5C 263.324,433.424 262.324,426.757 265,419.5C 270.759,413.037 277.926,409.371 286.5,408.5 Z"/></g>
<g><path style="opacity:1" fill="#e9e9e9" d="M 332.5,420.5 C 342.484,430.485 352.15,440.819 361.5,451.5C 358.909,462.851 353.575,472.685 345.5,481C 338.363,483.816 331.029,484.316 323.5,482.5C 321.485,481.076 319.152,480.41 316.5,480.5C 315.791,479.596 314.791,479.263 313.5,479.5C 311.485,478.076 309.152,477.41 306.5,477.5C 305.329,476.655 303.995,475.989 302.5,475.5C 296.323,469.159 289.656,463.326 282.5,458C 281.748,457.329 281.414,456.496 281.5,455.5C 294.543,460.43 306.877,458.93 318.5,451C 330.104,443.962 334.77,433.796 332.5,420.5 Z"/></g>
<g><path style="opacity:1" fill="#0b0808" d="M 267.5,482.5 C 270.152,482.59 272.485,481.924 274.5,480.5C 279.226,479.652 283.892,478.485 288.5,477C 294.528,476.359 300.528,476.526 306.5,477.5C 308.515,478.924 310.848,479.59 313.5,479.5C 314.791,479.263 315.791,479.596 316.5,480.5C 318.515,481.924 320.848,482.59 323.5,482.5C 331.029,484.316 338.363,483.816 345.5,481C 353.575,472.685 358.909,462.851 361.5,451.5C 362.685,446.096 364.185,440.763 366,435.5C 368.476,433.937 369.976,434.604 370.5,437.5C 368.388,453.301 363.222,467.967 355,481.5C 344.95,491.715 335.45,502.381 326.5,513.5C 325.504,513.414 324.671,513.748 324,514.5C 322.829,519.186 321.662,523.852 320.5,528.5C 318.992,530.181 317.992,532.181 317.5,534.5C 317.573,536.027 316.906,537.027 315.5,537.5C 312.808,539.862 310.141,542.196 307.5,544.5C 305.597,544.796 303.93,545.463 302.5,546.5C 294.238,547.78 286.571,546.114 279.5,541.5C 279.167,540.5 278.5,539.833 277.5,539.5C 277.262,537.596 276.262,536.262 274.5,535.5C 274.573,533.973 273.906,532.973 272.5,532.5C 272.293,529.759 271.293,527.426 269.5,525.5C 269.279,522.933 268.612,520.599 267.5,518.5C 267.5,518.167 267.5,517.833 267.5,517.5C 267.649,516.448 267.483,515.448 267,514.5C 266.31,513.262 265.81,513.262 265.5,514.5C 254.904,502.064 244.071,489.73 233,477.5C 226.188,464.246 222.188,450.246 221,435.5C 222.938,434.14 224.604,434.473 226,436.5C 228.5,452.655 234.666,467.155 244.5,480C 246.275,481.439 248.275,482.439 250.5,483C 256.188,483.554 261.855,483.387 267.5,482.5 Z"/></g>
<g><path style="opacity:1" fill="#7a564f" d="M 306.5,477.5 C 309.152,477.41 311.485,478.076 313.5,479.5C 310.848,479.59 308.515,478.924 306.5,477.5 Z"/></g>
<g><path style="opacity:1" fill="#7e5953" d="M 302.5,475.5 C 303.995,475.989 305.329,476.655 306.5,477.5C 300.528,476.526 294.528,476.359 288.5,477C 283.892,478.485 279.226,479.652 274.5,480.5C 283.326,476.048 292.66,474.382 302.5,475.5 Z"/></g>
<g><path style="opacity:1" fill="#73524c" d="M 316.5,480.5 C 319.152,480.41 321.485,481.076 323.5,482.5C 320.848,482.59 318.515,481.924 316.5,480.5 Z"/></g>
<g><path style="opacity:1" fill="#74504a" d="M 274.5,480.5 C 272.485,481.924 270.152,482.59 267.5,482.5C 269.515,481.076 271.848,480.41 274.5,480.5 Z"/></g>
<g><path style="opacity:1" fill="#cd897c" d="M 327.5,488.5 C 328.278,489.156 328.944,489.989 329.5,491C 328.786,494.506 328.119,498.006 327.5,501.5C 325.678,505.513 323.178,509.18 320,512.5C 318.978,517.256 317.644,521.923 316,526.5C 314.884,529.756 313.051,532.422 310.5,534.5C 296.421,518.919 281.755,503.752 266.5,489C 265.906,488.536 265.239,488.369 264.5,488.5C 274.645,485.008 285.145,482.675 296,481.5C 306.761,482.699 317.261,485.032 327.5,488.5 Z"/></g>
<g><path style="opacity:1" fill="#f1a293" d="M 262.5,488.5 C 263.167,488.5 263.833,488.5 264.5,488.5C 265.239,488.369 265.906,488.536 266.5,489C 281.755,503.752 296.421,518.919 310.5,534.5C 308.24,537.635 305.24,539.802 301.5,541C 294.25,542.441 287.583,541.274 281.5,537.5C 279.381,533.262 277.214,528.929 275,524.5C 273.819,520.109 272.486,515.776 271,511.5C 267.816,509.456 265.316,506.79 263.5,503.5C 263.078,499.121 262.411,494.788 261.5,490.5C 261.863,489.817 262.196,489.15 262.5,488.5 Z"/></g>
<g><path style="opacity:1" fill="#352d2a" d="M 262.5,488.5 C 262.196,489.15 261.863,489.817 261.5,490.5C 262.411,494.788 263.078,499.121 263.5,503.5C 259.067,498.834 254.733,494 250.5,489C 254.51,489.696 258.51,489.529 262.5,488.5 Z"/></g>
<g><path style="opacity:1" fill="#372e2b" d="M 327.5,488.5 C 331.869,489.418 336.203,489.584 340.5,489C 336.224,493.447 331.891,497.613 327.5,501.5C 328.119,498.006 328.786,494.506 329.5,491C 328.944,489.989 328.278,489.156 327.5,488.5 Z"/></g>
<g><path style="opacity:1" fill="#97675e" d="M 267.5,517.5 C 266.599,516.71 265.932,515.71 265.5,514.5C 265.81,513.262 266.31,513.262 267,514.5C 267.483,515.448 267.649,516.448 267.5,517.5 Z"/></g>
<g><path style="opacity:1" fill="#c1928a" d="M 267.5,518.5 C 268.612,520.599 269.279,522.933 269.5,525.5C 267.837,523.562 267.171,521.228 267.5,518.5 Z"/></g>
<g><path style="opacity:1" fill="#7b5750" d="M 326.5,513.5 C 324.648,518.592 322.648,523.592 320.5,528.5C 321.662,523.852 322.829,519.186 324,514.5C 324.671,513.748 325.504,513.414 326.5,513.5 Z"/></g>
<g><path style="opacity:1" fill="#ab776d" d="M 269.5,525.5 C 271.293,527.426 272.293,529.759 272.5,532.5C 270.707,530.574 269.707,528.241 269.5,525.5 Z"/></g>
<g><path style="opacity:1" fill="#7c564f" d="M 320.5,528.5 C 320.539,531.089 319.539,533.089 317.5,534.5C 317.992,532.181 318.992,530.181 320.5,528.5 Z"/></g>
<g><path style="opacity:1" fill="#ab766c" d="M 272.5,532.5 C 273.906,532.973 274.573,533.973 274.5,535.5C 273.094,535.027 272.427,534.027 272.5,532.5 Z"/></g>
<g><path style="opacity:1" fill="#a9746a" d="M 274.5,535.5 C 276.262,536.262 277.262,537.596 277.5,539.5C 275.738,538.738 274.738,537.404 274.5,535.5 Z"/></g>
<g><path style="opacity:1" fill="#b7857d" d="M 315.5,537.5 C 314.095,541.236 311.429,543.569 307.5,544.5C 310.141,542.196 312.808,539.862 315.5,537.5 Z"/></g>
<g><path style="opacity:1" fill="#b6847b" d="M 279.5,541.5 C 286.571,546.114 294.238,547.78 302.5,546.5C 295.334,548.917 288.334,548.083 281.5,544C 280.619,543.292 279.953,542.458 279.5,541.5 Z"/></g>
</svg>
