<?xml version="1.0" encoding="UTF-8"?>
<!DOCTYPE svg PUBLIC "-//W3C//DTD SVG 1.1//EN" "http://www.w3.org/Graphics/SVG/1.1/DTD/svg11.dtd">
<svg xmlns="http://www.w3.org/2000/svg" version="1.1" width="600px" height="600px" style="shape-rendering:geometricPrecision; text-rendering:geometricPrecision; image-rendering:optimizeQuality; fill-rule:evenodd; clip-rule:evenodd" xmlns:xlink="http://www.w3.org/1999/xlink">
<g><path style="opacity:0.977" fill="#030303" d="M 599.5,264.5 C 599.5,283.167 599.5,301.833 599.5,320.5C 585.49,357.196 566.323,390.863 542,421.5C 534.5,430.333 526.333,438.5 517.5,446C 501.695,457.877 485.361,458.544 468.5,448C 458,440.167 448.833,431 441,420.5C 441.224,424.306 441.724,428.139 442.5,432C 441.941,436.905 440.608,441.572 438.5,446C 439.455,449.471 439.622,452.971 439,456.5C 434.752,488.496 419.586,513.996 393.5,533C 389.312,536.004 384.812,537.171 380,536.5C 375.674,543.16 369.841,547.993 362.5,551C 347.046,555.298 331.38,558.632 315.5,561C 311.984,562.256 308.984,564.256 306.5,567C 299.837,571.003 294.17,570.003 289.5,564C 286.167,562.667 282.833,561.333 279.5,560C 264.576,558.202 249.909,555.202 235.5,551C 228.225,548.032 222.558,543.199 218.5,536.5C 213.052,536.966 208.052,535.466 203.5,532C 193,524.167 183.833,515 176,504.5C 167.129,488.213 161.629,470.713 159.5,452C 159.861,449.551 160.528,447.218 161.5,445C 158.56,441.018 156.894,436.518 156.5,431.5C 157.332,428.518 157.499,425.518 157,422.5C 149.13,432.037 140.297,440.537 130.5,448C 113.649,458.496 97.3159,457.829 81.5,446C 62.3758,428.883 46.2091,409.383 33,387.5C 19.9311,365.696 8.76441,343.03 -0.5,319.5C -0.5,301.5 -0.5,283.5 -0.5,265.5C 12.4158,241.071 27.5825,218.071 45,196.5C 70.7162,165.113 98.2162,135.28 127.5,107C 145.97,93.2821 166.637,84.6154 189.5,81C 207.099,71.4117 225.765,64.9117 245.5,61.5C 244.648,53.015 248.315,47.8483 256.5,46C 252.993,34.4955 257.327,29.1621 269.5,30C 281.126,33.1435 290.793,39.3102 298.5,48.5C 306.539,39.8122 316.205,33.6455 327.5,30C 339.017,29.0161 343.684,34.1828 341.5,45.5C 349.307,47.9748 352.64,53.1415 351.5,61C 370.631,65.4879 388.964,72.1546 406.5,81C 434.481,84.1609 458.814,95.1609 479.5,114C 513.652,147.468 544.819,183.301 573,221.5C 582.862,235.228 591.695,249.561 599.5,264.5 Z"/></g>
<g><path style="opacity:1" fill="#dcc8b9" d="M 265.5,39.5 C 275.856,42.7631 284.689,48.4298 292,56.5C 294.333,59.5 296.667,62.5 299,65.5C 306.703,53.1247 317.37,44.458 331,39.5C 332.543,40.5772 332.543,41.9106 331,43.5C 323.815,49.8892 318.648,57.5559 315.5,66.5C 316.873,66.6567 318.207,66.49 319.5,66C 325.557,59.803 332.891,56.6363 341.5,56.5C 341.01,61.1333 339.676,65.4666 337.5,69.5C 356.271,72.2011 374.271,77.5344 391.5,85.5C 391.13,90.5079 391.63,95.5079 393,100.5C 397.841,106.331 403.674,110.831 410.5,114C 424.928,124.686 435.095,138.519 441,155.5C 449.048,188.21 449.548,221.043 442.5,254C 438.588,270.482 434.755,286.982 431,303.5C 428.893,314.083 427.393,324.75 426.5,335.5C 426.558,351.463 426.725,367.463 427,383.5C 427.388,387.219 428.055,390.886 429,394.5C 430.525,399.656 432.358,404.656 434.5,409.5C 433.726,410.711 432.893,410.711 432,409.5C 427.462,388.915 417.629,371.415 402.5,357C 394.091,350.047 385.591,343.213 377,336.5C 361.158,317.704 349.824,296.371 343,272.5C 338.853,238.592 335.52,204.592 333,170.5C 331.204,145.586 326.538,121.253 319,97.5C 316.611,90.8821 312.444,85.7154 306.5,82C 301.382,81.112 296.382,81.4453 291.5,83C 283.938,90.2873 279.104,99.1206 277,109.5C 272.792,126.621 269.792,143.955 268,161.5C 265.079,191.144 262.412,220.81 260,250.5C 255.399,280.359 243.732,307.026 225,330.5C 209.776,342.051 195.443,354.718 182,368.5C 178.806,373.554 176.139,378.888 174,384.5C 175.069,362.767 174.069,341.101 171,319.5C 165.984,294.769 160.651,270.102 155,245.5C 148.917,212.289 150.917,179.622 161,147.5C 165.253,139.321 170.253,131.654 176,124.5C 185.715,116.45 195.715,108.784 206,101.5C 208.061,96.0962 207.895,90.7629 205.5,85.5C 212.357,81.4832 219.69,78.3165 227.5,76C 238.345,72.7978 249.345,70.2978 260.5,68.5C 258.8,65.9613 257.3,63.2947 256,60.5C 255.316,59.2161 255.483,58.0495 256.5,57C 265.144,56.6622 272.477,59.6622 278.5,66C 279.944,66.7805 281.277,66.6139 282.5,65.5C 277.981,57.128 272.481,49.4613 266,42.5C 265.517,41.552 265.351,40.552 265.5,39.5 Z"/></g>
<g><path style="opacity:1" fill="#d5c3b5" d="M 323.5,141.5 C 321.05,127.718 317.55,114.051 313,100.5C 304.333,83.1667 295.667,83.1667 287,100.5C 282.45,114.051 278.95,127.718 276.5,141.5C 277.817,127.083 280.984,113.083 286,99.5C 287.713,95.1266 290.213,91.2933 293.5,88C 297.833,86 302.167,86 306.5,88C 313.572,97.3206 318.072,107.821 320,119.5C 321.751,126.753 322.918,134.087 323.5,141.5 Z"/></g>
<g><path style="opacity:1" fill="#f6ebe3" d="M 323.5,141.5 C 328.623,174.843 331.957,208.51 333.5,242.5C 332.957,251.05 333.957,259.383 336.5,267.5C 336.379,268.894 336.046,270.228 335.5,271.5C 342.888,296.615 354.722,319.281 371,339.5C 379.891,347.359 389.058,354.859 398.5,362C 408.446,370.955 415.612,381.788 420,394.5C 422.716,402.843 425.883,410.843 429.5,418.5C 430.878,424.099 431.378,429.766 431,435.5C 428.872,439.376 426.539,439.376 424,435.5C 425.096,439.795 426.429,444.128 428,448.5C 428.084,459.84 426.084,470.84 422,481.5C 420.951,482.517 419.784,482.684 418.5,482C 416.641,480.442 415.141,478.609 414,476.5C 414.685,480.934 415.519,485.434 416.5,490C 412.293,500.715 405.627,509.715 396.5,517C 391.927,520.575 387.093,523.742 382,526.5C 380.739,526.241 379.739,525.574 379,524.5C 377.667,520.5 376.333,516.5 375,512.5C 374.604,522.373 371.104,530.873 364.5,538C 362.5,539 360.5,540 358.5,541C 342.942,544.795 327.276,548.128 311.5,551C 306.554,552.72 302.387,555.554 299,559.5C 294.793,554.97 289.626,551.803 283.5,550C 272.208,547.785 260.875,545.785 249.5,544C 232.396,540.698 223.562,530.198 223,512.5C 222.13,517.081 220.63,521.415 218.5,525.5C 215.2,526.24 212.2,525.407 209.5,523C 200,516.167 191.833,508 185,498.5C 183.101,495.626 182.267,492.459 182.5,489C 182.77,484.758 183.437,480.591 184.5,476.5C 182.681,479.655 180.015,481.655 176.5,482.5C 173.417,472.92 171.417,463.086 170.5,453C 170.641,446.743 172.307,440.91 175.5,435.5C 175.167,435.167 174.833,434.833 174.5,434.5C 173.126,435.711 171.626,436.711 170,437.5C 169.228,437.355 168.561,437.022 168,436.5C 167.324,431.129 167.491,425.796 168.5,420.5C 171.735,404.331 177.569,388.998 186,374.5C 190.467,369.032 195.3,363.865 200.5,359C 210,351.5 219.5,344 229,336.5C 247.5,313.161 259.834,286.827 266,257.5C 266.499,252.511 266.666,247.511 266.5,242.5C 268.043,208.51 271.377,174.843 276.5,141.5C 278.95,127.718 282.45,114.051 287,100.5C 295.667,83.1667 304.333,83.1667 313,100.5C 317.55,114.051 321.05,127.718 323.5,141.5 Z"/></g>
<g><path style="opacity:1" fill="#f6ebe3" d="M 192.5,91.5 C 194.8,91.5216 195.967,92.5216 196,94.5C 188.833,99.6667 181.667,104.833 174.5,110C 157.477,125.548 147.477,144.714 144.5,167.5C 142.982,170.534 142.149,173.867 142,177.5C 139.904,196.349 140.071,215.016 142.5,233.5C 143.695,250.689 147.028,267.356 152.5,283.5C 157.057,298.417 160.057,313.75 161.5,329.5C 162.368,347.827 162.535,366.161 162,384.5C 160.941,391.072 159.107,397.406 156.5,403.5C 148.124,418.042 137.124,430.209 123.5,440C 111.929,446.272 100.596,445.938 89.5,439C 71.6257,423.384 56.4591,405.55 44,385.5C 27.825,360.15 15.1583,333.15 6,304.5C 2.77519,290.839 4.44186,277.839 11,265.5C 26.7847,238.258 44.7847,212.592 65,188.5C 84.7305,165.098 105.564,142.598 127.5,121C 145.911,104.13 167.577,94.297 192.5,91.5 Z"/></g>
<g><path style="opacity:1" fill="#f6ebe3" d="M 413.5,92.5 C 434.63,96.2325 453.296,105.066 469.5,119C 513.037,161.02 551.204,207.187 584,257.5C 588.843,266.029 592.509,275.029 595,284.5C 595.667,288.5 595.667,292.5 595,296.5C 581.877,342.755 559.877,384.088 529,420.5C 521.341,429.501 512.508,437.001 502.5,443C 490.184,446.719 479.184,444.386 469.5,436C 460.22,427.726 452.053,418.559 445,408.5C 443.878,406.593 443.045,404.593 442.5,402.5C 440.699,395.255 439.199,387.922 438,380.5C 437.833,375.5 437.667,370.5 437.5,365.5C 438.124,356.133 438.124,346.8 437.5,337.5C 438.98,328.887 439.98,320.221 440.5,311.5C 441.292,303.532 442.958,295.866 445.5,288.5C 457.583,251.914 461.416,214.247 457,175.5C 454.45,148.899 443.283,126.732 423.5,109C 416.579,104.29 409.746,99.4562 403,94.5C 402.833,94.1667 402.667,93.8333 402.5,93.5C 406.107,92.5108 409.774,92.1774 413.5,92.5 Z"/></g>
<g><path style="opacity:1" fill="#d6c3b5" d="M 192.5,91.5 C 193.672,90.2947 195.005,90.2947 196.5,91.5C 197.631,93.0745 197.798,94.7412 197,96.5C 168.303,111.895 150.803,135.562 144.5,167.5C 147.477,144.714 157.477,125.548 174.5,110C 181.667,104.833 188.833,99.6667 196,94.5C 195.967,92.5216 194.8,91.5216 192.5,91.5 Z"/></g>
<g><path style="opacity:1" fill="#d4c2b5" d="M 413.5,92.5 C 409.774,92.1774 406.107,92.5108 402.5,93.5C 402.667,93.8333 402.833,94.1667 403,94.5C 409.746,99.4562 416.579,104.29 423.5,109C 443.283,126.732 454.45,148.899 457,175.5C 461.416,214.247 457.583,251.914 445.5,288.5C 448.328,275.186 451.161,261.853 454,248.5C 458.667,221.166 458.667,193.832 454,166.5C 448.459,136.21 432.292,113.71 405.5,99C 402.603,97.2845 401.269,94.7845 401.5,91.5C 405.702,91.1832 409.702,91.5166 413.5,92.5 Z"/></g>
<g><path style="opacity:1" fill="#d5c2b4" d="M 144.5,167.5 C 141.48,189.425 140.814,211.425 142.5,233.5C 140.071,215.016 139.904,196.349 142,177.5C 142.149,173.867 142.982,170.534 144.5,167.5 Z"/></g>
<g><path style="opacity:1" fill="#8d705d" d="M 205.5,225.5 C 230.186,224.354 242.02,236.02 241,260.5C 238.052,273.115 230.219,280.615 217.5,283C 200.4,284.365 189.234,276.865 184,260.5C 182.033,243.083 189.2,231.416 205.5,225.5 Z"/></g>
<g><path style="opacity:1" fill="#8d705d" d="M 379.5,225.5 C 397.001,223.159 408.834,230.159 415,246.5C 417.866,269.299 407.866,281.632 385,283.5C 382.409,283.435 379.909,282.935 377.5,282C 373.025,278.92 368.692,275.587 364.5,272C 353.663,256.211 355.663,242.211 370.5,230C 373.592,228.454 376.592,226.954 379.5,225.5 Z"/></g>
<g><path style="opacity:1" fill="#302725" d="M 207.5,234.5 C 224.5,233.715 232.666,241.715 232,258.5C 226.949,272.191 217.449,276.691 203.5,272C 193.202,264.682 190.702,255.182 196,243.5C 199.183,239.462 203.016,236.462 207.5,234.5 Z"/></g>
<g><path style="opacity:1" fill="#302725" d="M 382.5,234.5 C 401.307,234.803 408.807,244.136 405,262.5C 398.09,273.578 388.59,276.412 376.5,271C 366.806,263.135 364.973,253.635 371,242.5C 374.15,238.689 377.983,236.023 382.5,234.5 Z"/></g>
<g><path style="opacity:1" fill="#f1f0f0" d="M 213.5,243.5 C 218.706,242.12 221.706,243.953 222.5,249C 220.314,255.171 216.814,256.005 212,251.5C 211.109,248.502 211.609,245.836 213.5,243.5 Z"/></g>
<g><path style="opacity:1" fill="#f0f0f0" d="M 392.5,243.5 C 399,242.499 401.5,245.165 400,251.5C 396.667,255.5 393.333,255.5 390,251.5C 389.023,248.183 389.856,245.516 392.5,243.5 Z"/></g>
<g><path style="opacity:1" fill="#d9c7b9" d="M 142.5,233.5 C 145.424,250.122 148.758,266.789 152.5,283.5C 147.028,267.356 143.695,250.689 142.5,233.5 Z"/></g>
<g><path style="opacity:1" fill="#d6c4b5" d="M 333.5,242.5 C 335.495,254.341 337.329,266.341 339,278.5C 346.389,300.621 357.389,320.621 372,338.5C 380.891,346.359 390.058,353.859 399.5,361C 409.446,369.955 416.612,380.788 421,393.5C 424.164,401.827 426.997,410.16 429.5,418.5C 425.883,410.843 422.716,402.843 420,394.5C 415.612,381.788 408.446,370.955 398.5,362C 389.058,354.859 379.891,347.359 371,339.5C 354.722,319.281 342.888,296.615 335.5,271.5C 336.046,270.228 336.379,268.894 336.5,267.5C 333.957,259.383 332.957,251.05 333.5,242.5 Z"/></g>
<g><path style="opacity:1" fill="#d5c2b4" d="M 266.5,242.5 C 266.666,247.511 266.499,252.511 266,257.5C 259.834,286.827 247.5,313.161 229,336.5C 219.5,344 210,351.5 200.5,359C 195.3,363.865 190.467,369.032 186,374.5C 177.569,388.998 171.735,404.331 168.5,420.5C 168.67,419.178 168.337,418.011 167.5,417C 171.928,400.643 178.428,385.143 187,370.5C 199.158,357.666 212.492,346.333 227,336.5C 249.821,309.194 262.988,277.861 266.5,242.5 Z"/></g>
<g><path style="opacity:1" fill="#d8c6b7" d="M 440.5,311.5 C 439.98,320.221 438.98,328.887 437.5,337.5C 438.124,346.8 438.124,356.133 437.5,365.5C 437.667,370.5 437.833,375.5 438,380.5C 439.199,387.922 440.699,395.255 442.5,402.5C 437.724,390.753 435.724,378.419 436.5,365.5C 437.127,355.475 437.127,345.475 436.5,335.5C 437.198,327.256 438.532,319.256 440.5,311.5 Z"/></g>
<g><path style="opacity:1" fill="#0d0c0b" d="M 297.5,384.5 C 311.499,384.331 324.833,387.165 337.5,393C 349.144,402.398 352.31,414.231 347,428.5C 341.833,439 334,446.833 323.5,452C 296.007,463.502 272.84,457.668 254,434.5C 242.75,409.833 250.25,393.999 276.5,387C 283.649,386.163 290.649,385.33 297.5,384.5 Z"/></g>
<g><path style="opacity:1" fill="#47382e" d="M 283.5,390.5 C 293.839,390.334 304.172,390.5 314.5,391C 322.434,392.088 329.767,394.755 336.5,399C 346.232,409.395 347.065,420.561 339,432.5C 313.056,460.068 286.722,460.402 260,433.5C 254.821,425.942 253.154,417.609 255,408.5C 256.777,404.096 259.61,400.596 263.5,398C 269.878,394.379 276.545,391.879 283.5,390.5 Z"/></g>
<g><path style="opacity:1" fill="#dac8bb" d="M 161.5,329.5 C 165.53,351.745 165.363,374.078 161,396.5C 160,399.167 159,401.833 158,404.5C 157.617,403.944 157.117,403.611 156.5,403.5C 159.107,397.406 160.941,391.072 162,384.5C 162.535,366.161 162.368,347.827 161.5,329.5 Z"/></g>
<g><path style="opacity:1" fill="#514e4c" d="M 184.5,476.5 C 184.461,475.244 184.961,474.244 186,473.5C 186.585,474.998 186.085,475.998 184.5,476.5 Z"/></g>
</svg>
