<?xml version="1.0" encoding="UTF-8"?>
<!DOCTYPE svg PUBLIC "-//W3C//DTD SVG 1.1//EN" "http://www.w3.org/Graphics/SVG/1.1/DTD/svg11.dtd">
<svg xmlns="http://www.w3.org/2000/svg" version="1.1" width="600px" height="600px" style="shape-rendering:geometricPrecision; text-rendering:geometricPrecision; image-rendering:optimizeQuality; fill-rule:evenodd; clip-rule:evenodd" xmlns:xlink="http://www.w3.org/1999/xlink">
<g><path style="opacity:0.975" fill="#030100" d="M 159.5,-0.5 C 170.5,-0.5 181.5,-0.5 192.5,-0.5C 202.084,7.26794 209.251,16.9346 214,28.5C 230.455,71.8623 246.121,115.529 261,159.5C 261.388,160.428 262.055,161.095 263,161.5C 287.697,151.078 312.697,150.078 338,158.5C 353.606,114.347 369.606,70.347 386,26.5C 390.809,15.871 397.643,6.87101 406.5,-0.5C 417.5,-0.5 428.5,-0.5 439.5,-0.5C 444.291,5.41309 447.791,12.0798 450,19.5C 464.238,80.7812 469.571,142.781 466,205.5C 462.09,227.14 456.923,248.473 450.5,269.5C 464.634,317.792 460.468,364.459 438,409.5C 426.701,433.435 414.367,456.768 401,479.5C 393.2,493.93 386.367,508.763 380.5,524C 381.211,539.905 378.711,555.405 373,570.5C 367.369,583.628 358.202,593.295 345.5,599.5C 318.833,599.5 292.167,599.5 265.5,599.5C 247.124,589.253 236.291,573.586 233,552.5C 231.294,542.908 230.294,533.241 230,523.5C 225.822,512.143 220.822,501.143 215,490.5C 198.401,464.312 183.068,437.312 169,409.5C 148.87,369.421 143.37,327.421 152.5,283.5C 145.395,259.748 139.229,235.748 134,211.5C 131.942,198.583 130.776,185.583 130.5,172.5C 131.763,130.539 135.929,88.8728 143,47.5C 145.038,36.0168 147.704,24.6834 151,13.5C 153.091,8.3058 155.924,3.63914 159.5,-0.5 Z"/></g>
<g><path style="opacity:1" fill="#794212" d="M 170.5,4.5 C 176.275,3.77453 181.608,4.9412 186.5,8C 191.717,12.5498 196.217,17.7165 200,23.5C 205.586,35.2567 210.586,47.2567 215,59.5C 228.204,97.6137 241.704,135.614 255.5,173.5C 256,173.833 256.5,174.167 257,174.5C 278.221,164.546 300.388,161.379 323.5,165C 330.774,167.152 338.108,168.985 345.5,170.5C 361.513,121.629 379.013,73.2958 398,25.5C 402.833,16.6667 409.667,9.83333 418.5,5C 425.324,3.0547 430.824,4.88803 435,10.5C 440.032,20.9574 443.366,31.9574 445,43.5C 455.683,98.0923 459.016,153.092 455,208.5C 451.071,229.218 445.737,249.551 439,269.5C 429.123,255.29 416.957,243.456 402.5,234C 379.386,221.108 359.219,224.608 342,244.5C 336.117,256.264 330.784,268.264 326,280.5C 325.039,272.345 322.705,264.678 319,257.5C 310.256,248.257 301.59,248.257 293,257.5C 287.842,267.126 285.009,277.46 284.5,288.5C 279.615,275.728 274.448,263.062 269,250.5C 255.979,229.047 237.479,222.213 213.5,230C 207.086,232.62 201.253,236.12 196,240.5C 207.904,222.932 222.904,208.265 241,196.5C 243.505,191.159 244.172,185.492 243,179.5C 235.04,146.92 223.707,115.587 209,85.5C 205.523,80.0262 201.356,75.1929 196.5,71C 186.136,66.9357 177.97,69.4357 172,78.5C 160.348,117.38 156.015,157.047 159,197.5C 163.378,213.717 167.378,230.051 171,246.5C 173.958,250.832 178.125,252.665 183.5,252C 175.734,260.375 168.568,269.208 162,278.5C 155.054,255.382 149.054,232.049 144,208.5C 140.241,151.403 143.908,94.7366 155,38.5C 156.55,28.1825 159.883,18.5158 165,9.5C 166.73,7.59809 168.563,5.93142 170.5,4.5 Z"/></g>
<g><path style="opacity:1" fill="#060200" d="M 407.5,68.5 C 416.957,67.9798 423.791,71.9798 428,80.5C 438.182,116.8 442.515,153.8 441,191.5C 438.268,206.426 434.602,221.093 430,235.5C 424.486,241.807 418.319,242.64 411.5,238C 397.99,219.154 381.323,203.82 361.5,192C 358.19,188.911 356.524,185.078 356.5,180.5C 363.108,151.509 372.608,123.509 385,96.5C 388.325,88.5072 392.659,81.1738 398,74.5C 401.18,72.3377 404.346,70.3377 407.5,68.5 Z"/></g>
<g><path style="opacity:1" fill="#4b2b0d" d="M 195.5,84.5 C 193.66,82.832 191.66,81.332 189.5,80C 186.211,79.2536 183.711,80.4203 182,83.5C 181.495,86.865 180.328,89.865 178.5,92.5C 178.671,87.1407 180.671,82.6407 184.5,79C 189.85,77.6749 193.517,79.5082 195.5,84.5 Z"/></g>
<g><path style="opacity:1" fill="#986b32" d="M 195.5,84.5 C 197.11,88.1004 199.11,91.4338 201.5,94.5C 203.739,101.567 206.739,108.234 210.5,114.5C 212.597,121.47 215.263,128.136 218.5,134.5C 220.261,141.784 222.595,148.784 225.5,155.5C 226.231,160.438 227.565,165.105 229.5,169.5C 230.516,175.565 231.85,181.565 233.5,187.5C 230.802,189.841 228.135,192.174 225.5,194.5C 221.428,196.208 218.095,198.874 215.5,202.5C 204.748,210.583 195.748,220.25 188.5,231.5C 185.723,233.951 183.723,236.951 182.5,240.5C 181.883,240.611 181.383,240.944 181,241.5C 180.768,240.263 180.268,239.263 179.5,238.5C 179.735,233.454 178.735,228.787 176.5,224.5C 175.769,219.562 174.435,214.895 172.5,210.5C 171.943,205.948 170.943,201.615 169.5,197.5C 169.46,177.825 169.793,158.159 170.5,138.5C 172.238,133.783 172.904,128.783 172.5,123.5C 173.222,123.082 173.722,122.416 174,121.5C 174.611,116.504 175.111,111.504 175.5,106.5C 177.246,102.111 178.246,97.4439 178.5,92.5C 180.328,89.865 181.495,86.865 182,83.5C 183.711,80.4203 186.211,79.2536 189.5,80C 191.66,81.332 193.66,82.832 195.5,84.5 Z"/></g>
<g><path style="opacity:1" fill="#47280b" d="M 407.5,80.5 C 406.2,83.4323 404.2,85.7656 401.5,87.5C 402.412,85.4048 403.579,83.4048 405,81.5C 405.671,80.7476 406.504,80.4142 407.5,80.5 Z"/></g>
<g><path style="opacity:1" fill="#986b32" d="M 415.5,80.5 C 418.108,85.6648 420.108,90.9981 421.5,96.5C 422.665,104.489 423.832,112.489 425,120.5C 425.278,121.416 425.778,122.082 426.5,122.5C 426.608,127.71 427.275,132.71 428.5,137.5C 428.334,143.509 428.501,149.509 429,155.5C 429.232,156.737 429.732,157.737 430.5,158.5C 430.5,158.833 430.5,159.167 430.5,159.5C 430.661,172.518 430.327,185.518 429.5,198.5C 429.58,201.781 428.913,204.781 427.5,207.5C 425.565,211.895 424.231,216.562 423.5,221.5C 422.194,224.338 421.027,227.338 420,230.5C 415.951,225.05 411.451,220.05 406.5,215.5C 402.833,209.833 398.167,205.167 392.5,201.5C 387.692,196.024 382.026,191.69 375.5,188.5C 375.027,187.094 374.027,186.427 372.5,186.5C 370.132,185.128 368.465,183.128 367.5,180.5C 368.82,175.887 369.82,171.221 370.5,166.5C 372.435,162.105 373.769,157.438 374.5,152.5C 377.989,146.371 380.323,139.704 381.5,132.5C 384.266,127.883 386.266,122.883 387.5,117.5C 390.068,113.144 392.068,108.478 393.5,103.5C 395.957,100.249 397.624,96.5821 398.5,92.5C 400.25,91.3406 401.25,89.674 401.5,87.5C 404.2,85.7656 406.2,83.4323 407.5,80.5C 410.167,79.1667 412.833,79.1667 415.5,80.5 Z"/></g>
<g><path style="opacity:1" fill="#47270b" d="M 415.5,80.5 C 417.173,81.343 418.34,82.6763 419,84.5C 420.47,88.3776 421.303,92.3776 421.5,96.5C 420.108,90.9981 418.108,85.6648 415.5,80.5 Z"/></g>
<g><path style="opacity:1" fill="#44250a" d="M 195.5,84.5 C 198.728,87.069 200.728,90.4023 201.5,94.5C 199.11,91.4338 197.11,88.1004 195.5,84.5 Z"/></g>
<g><path style="opacity:1" fill="#43250a" d="M 398.5,92.5 C 397.624,96.5821 395.957,100.249 393.5,103.5C 394.376,99.4179 396.043,95.7512 398.5,92.5 Z"/></g>
<g><path style="opacity:1" fill="#45260a" d="M 178.5,92.5 C 178.246,97.4439 177.246,102.111 175.5,106.5C 175.754,101.556 176.754,96.8894 178.5,92.5 Z"/></g>
<g><path style="opacity:1" fill="#45260b" d="M 201.5,94.5 C 205.261,100.766 208.261,107.433 210.5,114.5C 206.739,108.234 203.739,101.567 201.5,94.5 Z"/></g>
<g><path style="opacity:1" fill="#5f3915" d="M 421.5,96.5 C 424.17,104.853 425.836,113.519 426.5,122.5C 425.778,122.082 425.278,121.416 425,120.5C 423.832,112.489 422.665,104.489 421.5,96.5 Z"/></g>
<g><path style="opacity:1" fill="#5d3814" d="M 175.5,106.5 C 175.111,111.504 174.611,116.504 174,121.5C 173.722,122.416 173.222,123.082 172.5,123.5C 172.764,117.578 173.764,111.911 175.5,106.5 Z"/></g>
<g><path style="opacity:1" fill="#44250a" d="M 387.5,117.5 C 386.266,122.883 384.266,127.883 381.5,132.5C 382.704,127.105 384.704,122.105 387.5,117.5 Z"/></g>
<g><path style="opacity:1" fill="#45260a" d="M 426.5,122.5 C 428.031,127.25 428.698,132.25 428.5,137.5C 427.275,132.71 426.608,127.71 426.5,122.5 Z"/></g>
<g><path style="opacity:1" fill="#5e3814" d="M 172.5,123.5 C 172.904,128.783 172.238,133.783 170.5,138.5C 170.444,133.269 171.111,128.269 172.5,123.5 Z"/></g>
<g><path style="opacity:1" fill="#5f3915" d="M 381.5,132.5 C 380.323,139.704 377.989,146.371 374.5,152.5C 376.064,145.469 378.398,138.802 381.5,132.5 Z"/></g>
<g><path style="opacity:1" fill="#44250a" d="M 218.5,134.5 C 221.806,141.085 224.14,148.085 225.5,155.5C 222.595,148.784 220.261,141.784 218.5,134.5 Z"/></g>
<g><path style="opacity:1" fill="#643e17" d="M 428.5,137.5 C 429.983,144.279 430.65,151.279 430.5,158.5C 429.732,157.737 429.232,156.737 429,155.5C 428.501,149.509 428.334,143.509 428.5,137.5 Z"/></g>
<g><path style="opacity:1" fill="#43250a" d="M 430.5,159.5 C 431.166,164.656 431.499,169.989 431.5,175.5C 431.689,183.394 431.022,191.061 429.5,198.5C 430.327,185.518 430.661,172.518 430.5,159.5 Z"/></g>
<g><path style="opacity:1" fill="#44260a" d="M 370.5,166.5 C 369.82,171.221 368.82,175.887 367.5,180.5C 368.465,183.128 370.132,185.128 372.5,186.5C 368.806,186.139 366.806,184.139 366.5,180.5C 367.235,175.542 368.569,170.875 370.5,166.5 Z"/></g>
<g><path style="opacity:1" fill="#683f18" d="M 170.5,138.5 C 169.793,158.159 169.46,177.825 169.5,197.5C 168.024,190.39 167.357,183.057 167.5,175.5C 167.644,162.948 168.644,150.614 170.5,138.5 Z"/></g>
<g><path style="opacity:1" fill="#44260a" d="M 229.5,169.5 C 231.764,175.21 233.431,181.21 234.5,187.5C 232.421,190.901 229.421,193.234 225.5,194.5C 228.135,192.174 230.802,189.841 233.5,187.5C 231.85,181.565 230.516,175.565 229.5,169.5 Z"/></g>
<g><path style="opacity:1" fill="#45260a" d="M 375.5,188.5 C 382.026,191.69 387.692,196.024 392.5,201.5C 386.543,197.543 380.877,193.21 375.5,188.5 Z"/></g>
<g><path style="opacity:1" fill="#422509" d="M 169.5,197.5 C 170.943,201.615 171.943,205.948 172.5,210.5C 170.425,206.526 169.425,202.192 169.5,197.5 Z"/></g>
<g><path style="opacity:1" fill="#45260b" d="M 225.5,194.5 C 222.54,197.645 219.207,200.312 215.5,202.5C 218.095,198.874 221.428,196.208 225.5,194.5 Z"/></g>
<g><path style="opacity:1" fill="#44260a" d="M 215.5,202.5 C 206.105,211.892 197.105,221.558 188.5,231.5C 195.748,220.25 204.748,210.583 215.5,202.5 Z"/></g>
<g><path style="opacity:1" fill="#47270b" d="M 392.5,201.5 C 398.167,205.167 402.833,209.833 406.5,215.5C 401.5,211.167 396.833,206.5 392.5,201.5 Z"/></g>
<g><path style="opacity:1" fill="#45260b" d="M 427.5,207.5 C 427.08,212.529 425.746,217.195 423.5,221.5C 424.231,216.562 425.565,211.895 427.5,207.5 Z"/></g>
<g><path style="opacity:1" fill="#46260b" d="M 406.5,215.5 C 411.451,220.05 415.951,225.05 420,230.5C 421.027,227.338 422.194,224.338 423.5,221.5C 423.308,224.601 422.642,227.601 421.5,230.5C 420.635,231.583 419.635,231.749 418.5,231C 414.362,225.864 410.362,220.697 406.5,215.5 Z"/></g>
<g><path style="opacity:1" fill="#45260a" d="M 176.5,224.5 C 178.735,228.787 179.735,233.454 179.5,238.5C 178.216,234.015 177.216,229.349 176.5,224.5 Z"/></g>
<g><path style="opacity:1" fill="#47270b" d="M 188.5,231.5 C 187.241,235.025 185.241,238.025 182.5,240.5C 183.723,236.951 185.723,233.951 188.5,231.5 Z"/></g>
<g><path style="opacity:1" fill="#562e0d" d="M 224.5,237.5 C 226.473,236.837 228.639,236.504 231,236.5C 234.477,236.328 237.644,236.994 240.5,238.5C 235.203,237.725 229.87,237.392 224.5,237.5 Z"/></g>
<g><path style="opacity:1" fill="#c56b1e" d="M 224.5,237.5 C 229.87,237.392 235.203,237.725 240.5,238.5C 246.51,241.515 251.844,245.515 256.5,250.5C 260.49,257.134 263.824,264.134 266.5,271.5C 266.603,274.636 267.603,277.302 269.5,279.5C 272.071,284.537 274.071,289.871 275.5,295.5C 275.182,298.481 276.182,300.815 278.5,302.5C 279.351,306.535 281.017,310.202 283.5,313.5C 282.709,350.735 276.542,387.069 265,422.5C 257.55,438.622 249.217,454.289 240,469.5C 236.431,477.429 233.931,485.762 232.5,494.5C 231.349,492.221 230.349,489.888 229.5,487.5C 229.784,485.585 229.451,483.919 228.5,482.5C 227.913,475.235 226.579,468.235 224.5,461.5C 223.913,454.235 222.579,447.235 220.5,440.5C 220.451,436.922 219.785,433.589 218.5,430.5C 218.678,426.878 218.011,423.544 216.5,420.5C 216.57,416.575 215.903,412.909 214.5,409.5C 214.451,404.184 213.451,399.184 211.5,394.5C 211.079,387.573 209.079,381.24 205.5,375.5C 205.206,372.246 203.873,369.579 201.5,367.5C 196.985,357.984 190.319,350.317 181.5,344.5C 179.051,341.444 176.051,339.111 172.5,337.5C 170.167,334.5 167.5,331.833 164.5,329.5C 163.416,326.996 162.083,324.663 160.5,322.5C 159.183,316.322 159.183,309.988 160.5,303.5C 161.994,301.058 162.994,298.391 163.5,295.5C 166.212,292.872 168.212,289.872 169.5,286.5C 171.9,284.704 173.567,282.37 174.5,279.5C 184.463,266.537 195.796,254.87 208.5,244.5C 211.331,243.921 213.664,242.588 215.5,240.5C 218.507,239.486 221.507,238.486 224.5,237.5 Z"/></g>
<g><path style="opacity:1" fill="#c56b1e" d="M 389.5,239.5 C 391.849,241.341 394.515,242.674 397.5,243.5C 399.147,245.326 401.147,246.66 403.5,247.5C 404.911,249.914 406.911,251.581 409.5,252.5C 412.167,255.833 415.167,258.833 418.5,261.5C 419.757,264.427 421.757,266.761 424.5,268.5C 427.109,273.383 430.443,277.716 434.5,281.5C 435.433,284.37 437.1,286.704 439.5,288.5C 440.487,291.146 441.487,293.812 442.5,296.5C 442.957,297.298 443.624,297.631 444.5,297.5C 446.342,301.159 447.342,305.159 447.5,309.5C 448.051,315.8 447.051,321.8 444.5,327.5C 440.167,331.167 436.167,335.167 432.5,339.5C 430.596,339.738 429.262,340.738 428.5,342.5C 426.251,343.08 424.585,344.413 423.5,346.5C 419.5,348.5 416.5,351.5 414.5,355.5C 412.413,356.585 411.08,358.251 410.5,360.5C 408.178,361.802 406.845,363.802 406.5,366.5C 403.793,369.247 402.127,372.58 401.5,376.5C 399.733,378.792 398.733,381.458 398.5,384.5C 396.04,389.441 394.707,394.775 394.5,400.5C 394.5,400.833 394.5,401.167 394.5,401.5C 392.989,404.544 392.322,407.878 392.5,411.5C 391.539,413.265 391.205,415.265 391.5,417.5C 389.989,420.544 389.322,423.878 389.5,427.5C 387.421,434.235 386.087,441.235 385.5,448.5C 384.549,449.919 384.216,451.585 384.5,453.5C 382.656,458.551 381.656,463.884 381.5,469.5C 380.549,470.919 380.216,472.585 380.5,474.5C 378.989,477.544 378.322,480.878 378.5,484.5C 378.217,485.289 377.717,485.956 377,486.5C 375.535,481.106 373.869,475.772 372,470.5C 349.407,433.724 335.74,393.724 331,350.5C 329.502,335.854 328.335,321.187 327.5,306.5C 330.268,301.874 332.268,296.874 333.5,291.5C 335.267,289.208 336.267,286.542 336.5,283.5C 338.036,277.231 340.369,271.231 343.5,265.5C 345.293,263.574 346.293,261.241 346.5,258.5C 347.674,257.486 348.34,256.153 348.5,254.5C 353.204,248.795 358.537,243.795 364.5,239.5C 372.851,236.978 381.185,236.978 389.5,239.5 Z"/></g>
<g><path style="opacity:1" fill="#64360f" d="M 389.5,239.5 C 381.185,236.978 372.851,236.978 364.5,239.5C 368.227,237.194 372.394,236.194 377,236.5C 381.606,236.194 385.773,237.194 389.5,239.5 Z"/></g>
<g><path style="opacity:1" fill="#5b310e" d="M 215.5,240.5 C 213.664,242.588 211.331,243.921 208.5,244.5C 210.336,242.412 212.669,241.079 215.5,240.5 Z"/></g>
<g><path style="opacity:1" fill="#552f0d" d="M 389.5,239.5 C 392.754,239.794 395.421,241.127 397.5,243.5C 394.515,242.674 391.849,241.341 389.5,239.5 Z"/></g>
<g><path style="opacity:1" fill="#562e0d" d="M 240.5,238.5 C 247.692,240.089 253.025,244.089 256.5,250.5C 251.844,245.515 246.51,241.515 240.5,238.5 Z"/></g>
<g><path style="opacity:1" fill="#59300e" d="M 403.5,247.5 C 406.089,248.419 408.089,250.086 409.5,252.5C 406.911,251.581 404.911,249.914 403.5,247.5 Z"/></g>
<g><path style="opacity:1" fill="#61350f" d="M 364.5,239.5 C 358.537,243.795 353.204,248.795 348.5,254.5C 350.836,249.651 354.169,245.484 358.5,242C 360.217,240.441 362.217,239.608 364.5,239.5 Z"/></g>
<g><path style="opacity:1" fill="#512d0c" d="M 409.5,252.5 C 413.5,254.5 416.5,257.5 418.5,261.5C 415.167,258.833 412.167,255.833 409.5,252.5 Z"/></g>
<g><path style="opacity:1" fill="#5d320e" d="M 208.5,244.5 C 195.796,254.87 184.463,266.537 174.5,279.5C 183.12,265.213 194.453,253.546 208.5,244.5 Z"/></g>
<g><path style="opacity:1" fill="#5b320e" d="M 346.5,258.5 C 346.293,261.241 345.293,263.574 343.5,265.5C 343.707,262.759 344.707,260.426 346.5,258.5 Z"/></g>
<g><path style="opacity:1" fill="#eee3cc" d="M 327.5,388.5 C 328.098,395.23 329.764,401.564 332.5,407.5C 334.428,416.45 337.261,425.117 341,433.5C 349.468,450.101 357.635,466.768 365.5,483.5C 365.259,485.898 365.926,487.898 367.5,489.5C 372.433,515.4 370.933,541.066 363,566.5C 354.151,584.305 339.651,593.805 319.5,595C 306.397,596.068 293.397,595.401 280.5,593C 257.472,586.164 244.972,570.664 243,546.5C 241.693,535.537 240.86,524.537 240.5,513.5C 240.38,507.267 241.047,501.267 242.5,495.5C 243.768,493.095 244.435,490.428 244.5,487.5C 245.738,485.786 246.405,483.786 246.5,481.5C 247.931,480.22 248.598,478.553 248.5,476.5C 250.674,473.485 252.341,470.151 253.5,466.5C 253.328,465.508 253.662,464.842 254.5,464.5C 256.588,462.664 257.921,460.331 258.5,457.5C 260.25,456.341 261.25,454.674 261.5,452.5C 261.328,451.508 261.662,450.842 262.5,450.5C 267.816,442.865 271.816,434.532 274.5,425.5C 278.009,418.636 280.342,411.302 281.5,403.5C 283.04,401.162 283.706,398.495 283.5,395.5C 285.375,390.794 286.375,385.794 286.5,380.5C 287.989,376.764 288.656,372.764 288.5,368.5C 289.469,361.703 290.469,355.036 291.5,348.5C 292.81,342.712 293.477,336.712 293.5,330.5C 293.559,311.751 294.725,293.084 297,274.5C 298.077,269.177 300.577,264.677 304.5,261C 307.518,260.427 309.685,261.594 311,264.5C 312.947,268.284 314.28,272.284 315,276.5C 316.834,301.181 318.834,325.848 321,350.5C 322.632,363.295 324.799,375.962 327.5,388.5 Z"/></g>
<g><path style="opacity:1" fill="#62350f" d="M 418.5,261.5 C 421.243,263.239 423.243,265.573 424.5,268.5C 421.757,266.761 419.757,264.427 418.5,261.5 Z"/></g>
<g><path style="opacity:1" fill="#5a310e" d="M 424.5,268.5 C 426.129,269.625 427.629,270.959 429,272.5C 431.358,275.222 433.191,278.222 434.5,281.5C 430.443,277.716 427.109,273.383 424.5,268.5 Z"/></g>
<g><path style="opacity:1" fill="#743e11" d="M 266.5,271.5 C 268.267,273.792 269.267,276.458 269.5,279.5C 267.603,277.302 266.603,274.636 266.5,271.5 Z"/></g>
<g><path style="opacity:1" fill="#59300e" d="M 434.5,281.5 C 436.9,283.296 438.567,285.63 439.5,288.5C 437.1,286.704 435.433,284.37 434.5,281.5 Z"/></g>
<g><path style="opacity:1" fill="#5c320e" d="M 174.5,279.5 C 173.567,282.37 171.9,284.704 169.5,286.5C 170.433,283.63 172.1,281.296 174.5,279.5 Z"/></g>
<g><path style="opacity:1" fill="#58300e" d="M 336.5,283.5 C 336.267,286.542 335.267,289.208 333.5,291.5C 333.733,288.458 334.733,285.792 336.5,283.5 Z"/></g>
<g><path style="opacity:1" fill="#7f4513" d="M 439.5,288.5 C 441.924,291.008 443.59,294.008 444.5,297.5C 443.624,297.631 442.957,297.298 442.5,296.5C 441.487,293.812 440.487,291.146 439.5,288.5 Z"/></g>
<g><path style="opacity:1" fill="#63350f" d="M 275.5,295.5 C 277.293,297.426 278.293,299.759 278.5,302.5C 276.182,300.815 275.182,298.481 275.5,295.5 Z"/></g>
<g><path style="opacity:1" fill="#ebdec7" d="M 231.5,305.5 C 257.715,305.542 267.549,318.208 261,343.5C 252.128,356.677 240.294,360.177 225.5,354C 212.124,344.533 208.958,332.366 216,317.5C 220.184,312.14 225.351,308.14 231.5,305.5 Z"/></g>
<g><path style="opacity:1" fill="#ecdfc8" d="M 364.5,305.5 C 386.978,304.477 397.478,315.144 396,337.5C 390.377,352.567 379.543,358.734 363.5,356C 347.646,349.143 342.146,337.31 347,320.5C 350.92,313.066 356.754,308.066 364.5,305.5 Z"/></g>
<g><path style="opacity:1" fill="#63350f" d="M 278.5,302.5 C 280.957,305.751 282.624,309.418 283.5,313.5C 281.017,310.202 279.351,306.535 278.5,302.5 Z"/></g>
<g><path style="opacity:1" fill="#322a28" d="M 232.5,315.5 C 242.51,313.754 249.677,317.421 254,326.5C 254.455,342.386 246.955,348.886 231.5,346C 222.286,339.772 220.119,331.606 225,321.5C 227.114,318.879 229.614,316.879 232.5,315.5 Z"/></g>
<g><path style="opacity:1" fill="#332b28" d="M 364.5,315.5 C 383.276,314.431 389.776,322.764 384,340.5C 372.185,351.066 362.519,349.399 355,335.5C 353.615,326.605 356.782,319.939 364.5,315.5 Z"/></g>
<g><path style="opacity:1" fill="#eeeded" d="M 243.5,320.5 C 250.745,320.555 252.745,323.722 249.5,330C 243.24,332.412 240.407,330.245 241,323.5C 242.045,322.627 242.878,321.627 243.5,320.5 Z"/></g>
<g><path style="opacity:1" fill="#eeeeee" d="M 375.5,320.5 C 382.745,320.555 384.745,323.722 381.5,330C 375.24,332.412 372.407,330.245 373,323.5C 373.698,322.309 374.531,321.309 375.5,320.5 Z"/></g>
<g><path style="opacity:1" fill="#552e0d" d="M 447.5,309.5 C 448.645,313.311 448.812,317.311 448,321.5C 447.576,324.025 446.41,326.025 444.5,327.5C 447.051,321.8 448.051,315.8 447.5,309.5 Z"/></g>
<g><path style="opacity:1" fill="#582f0d" d="M 160.5,322.5 C 162.083,324.663 163.416,326.996 164.5,329.5C 161.888,327.948 160.555,325.614 160.5,322.5 Z"/></g>
<g><path style="opacity:1" fill="#552e0d" d="M 164.5,329.5 C 167.5,331.833 170.167,334.5 172.5,337.5C 168.833,335.833 166.167,333.167 164.5,329.5 Z"/></g>
<g><path style="opacity:1" fill="#5d320e" d="M 444.5,327.5 C 441.5,332.5 437.5,336.5 432.5,339.5C 436.167,335.167 440.167,331.167 444.5,327.5 Z"/></g>
<g><path style="opacity:1" fill="#5a310e" d="M 172.5,337.5 C 176.051,339.111 179.051,341.444 181.5,344.5C 177.949,342.889 174.949,340.556 172.5,337.5 Z"/></g>
<g><path style="opacity:1" fill="#794112" d="M 159.5,340.5 C 169.103,347.903 178.27,355.903 187,364.5C 194.507,374.673 199.507,386.006 202,398.5C 206.606,422.188 210.939,445.855 215,469.5C 193.255,438.01 176.255,404.01 164,367.5C 161.917,358.585 160.417,349.585 159.5,340.5 Z"/></g>
<g><path style="opacity:1" fill="#794212" d="M 446.5,340.5 C 447.147,341.274 447.48,342.274 447.5,343.5C 445.001,361.163 440.168,378.163 433,394.5C 420.896,422.043 407.229,448.709 392,474.5C 395.892,449.815 400.226,425.149 405,400.5C 407.509,385.819 413.509,372.819 423,361.5C 430.812,354.366 438.645,347.366 446.5,340.5 Z"/></g>
<g><path style="opacity:1" fill="#562f0d" d="M 428.5,342.5 C 427.415,344.587 425.749,345.92 423.5,346.5C 424.585,344.413 426.251,343.08 428.5,342.5 Z"/></g>
<g><path style="opacity:1" fill="#572f0d" d="M 181.5,344.5 C 190.319,350.317 196.985,357.984 201.5,367.5C 195.609,359.267 188.942,351.601 181.5,344.5 Z"/></g>
<g><path style="opacity:1" fill="#a88163" d="M 293.5,330.5 C 293.477,336.712 292.81,342.712 291.5,348.5C 291.276,342.261 291.943,336.261 293.5,330.5 Z"/></g>
<g><path style="opacity:1" fill="#5a310e" d="M 423.5,346.5 C 420.833,349.833 417.833,352.833 414.5,355.5C 416.5,351.5 419.5,348.5 423.5,346.5 Z"/></g>
<g><path style="opacity:1" fill="#542e0d" d="M 414.5,355.5 C 413.92,357.749 412.587,359.415 410.5,360.5C 411.08,358.251 412.413,356.585 414.5,355.5 Z"/></g>
<g><path style="opacity:1" fill="#58300d" d="M 410.5,360.5 C 409.66,362.853 408.326,364.853 406.5,366.5C 406.845,363.802 408.178,361.802 410.5,360.5 Z"/></g>
<g><path style="opacity:1" fill="#5a310e" d="M 406.5,366.5 C 405.341,370.151 403.674,373.485 401.5,376.5C 402.127,372.58 403.793,369.247 406.5,366.5 Z"/></g>
<g><path style="opacity:1" fill="#59300e" d="M 201.5,367.5 C 203.873,369.579 205.206,372.246 205.5,375.5C 203.659,373.151 202.326,370.485 201.5,367.5 Z"/></g>
<g><path style="opacity:1" fill="#845b36" d="M 288.5,368.5 C 288.656,372.764 287.989,376.764 286.5,380.5C 286.539,376.267 287.205,372.267 288.5,368.5 Z"/></g>
<g><path style="opacity:1" fill="#5b310e" d="M 205.5,375.5 C 209.079,381.24 211.079,387.573 211.5,394.5C 209.529,388.251 207.529,381.917 205.5,375.5 Z"/></g>
<g><path style="opacity:1" fill="#815833" d="M 286.5,380.5 C 286.375,385.794 285.375,390.794 283.5,395.5C 283.882,390.256 284.882,385.256 286.5,380.5 Z"/></g>
<g><path style="opacity:1" fill="#825839" d="M 327.5,388.5 C 329.611,394.606 331.278,400.939 332.5,407.5C 329.764,401.564 328.098,395.23 327.5,388.5 Z"/></g>
<g><path style="opacity:1" fill="#5a310e" d="M 398.5,384.5 C 397.532,390.032 396.199,395.366 394.5,400.5C 394.707,394.775 396.04,389.441 398.5,384.5 Z"/></g>
<g><path style="opacity:1" fill="#885f3a" d="M 283.5,395.5 C 283.706,398.495 283.04,401.162 281.5,403.5C 281.565,400.572 282.232,397.905 283.5,395.5 Z"/></g>
<g><path style="opacity:1" fill="#5a300e" d="M 211.5,394.5 C 213.451,399.184 214.451,404.184 214.5,409.5C 212.978,404.727 211.978,399.727 211.5,394.5 Z"/></g>
<g><path style="opacity:1" fill="#562f0d" d="M 394.5,401.5 C 394.451,405.078 393.785,408.411 392.5,411.5C 392.322,407.878 392.989,404.544 394.5,401.5 Z"/></g>
<g><path style="opacity:1" fill="#8b623d" d="M 281.5,403.5 C 280.342,411.302 278.009,418.636 274.5,425.5C 276.463,417.949 278.796,410.615 281.5,403.5 Z"/></g>
<g><path style="opacity:1" fill="#552e0d" d="M 391.5,417.5 C 391.451,421.078 390.785,424.411 389.5,427.5C 389.322,423.878 389.989,420.544 391.5,417.5 Z"/></g>
<g><path style="opacity:1" fill="#552e0d" d="M 216.5,420.5 C 218.011,423.544 218.678,426.878 218.5,430.5C 217.215,427.411 216.549,424.078 216.5,420.5 Z"/></g>
<g><path style="opacity:1" fill="#5a310e" d="M 389.5,427.5 C 388.903,434.763 387.57,441.763 385.5,448.5C 386.087,441.235 387.421,434.235 389.5,427.5 Z"/></g>
<g><path style="opacity:1" fill="#8c623d" d="M 274.5,425.5 C 271.816,434.532 267.816,442.865 262.5,450.5C 266.263,441.976 270.263,433.642 274.5,425.5 Z"/></g>
<g><path style="opacity:1" fill="#5b310e" d="M 220.5,440.5 C 222.579,447.235 223.913,454.235 224.5,461.5C 222.43,454.763 221.097,447.763 220.5,440.5 Z"/></g>
<g><path style="opacity:1" fill="#926843" d="M 261.5,452.5 C 261.25,454.674 260.25,456.341 258.5,457.5C 258.75,455.326 259.75,453.659 261.5,452.5 Z"/></g>
<g><path style="opacity:1" fill="#8c633d" d="M 258.5,457.5 C 257.921,460.331 256.588,462.664 254.5,464.5C 255.079,461.669 256.412,459.336 258.5,457.5 Z"/></g>
<g><path style="opacity:1" fill="#5b320e" d="M 384.5,453.5 C 384.129,459.076 383.129,464.409 381.5,469.5C 381.656,463.884 382.656,458.551 384.5,453.5 Z"/></g>
<g><path style="opacity:1" fill="#5b310e" d="M 224.5,461.5 C 226.579,468.235 227.913,475.235 228.5,482.5C 226.43,475.763 225.097,468.763 224.5,461.5 Z"/></g>
<g><path style="opacity:1" fill="#8e653f" d="M 253.5,466.5 C 252.341,470.151 250.674,473.485 248.5,476.5C 249.127,472.58 250.793,469.247 253.5,466.5 Z"/></g>
<g><path style="opacity:1" fill="#906741" d="M 248.5,476.5 C 248.598,478.553 247.931,480.22 246.5,481.5C 246.402,479.447 247.069,477.78 248.5,476.5 Z"/></g>
<g><path style="opacity:1" fill="#59310e" d="M 380.5,474.5 C 380.451,478.078 379.785,481.411 378.5,484.5C 378.322,480.878 378.989,477.544 380.5,474.5 Z"/></g>
<g><path style="opacity:1" fill="#754c28" d="M 246.5,481.5 C 246.405,483.786 245.738,485.786 244.5,487.5C 244.259,485.102 244.926,483.102 246.5,481.5 Z"/></g>
<g><path style="opacity:1" fill="#895f40" d="M 365.5,483.5 C 366.738,485.214 367.405,487.214 367.5,489.5C 365.926,487.898 365.259,485.898 365.5,483.5 Z"/></g>
<g><path style="opacity:1" fill="#8a613c" d="M 244.5,487.5 C 244.435,490.428 243.768,493.095 242.5,495.5C 242.294,492.505 242.96,489.838 244.5,487.5 Z"/></g>
<g><path style="opacity:1" fill="#5a300e" d="M 229.5,487.5 C 230.349,489.888 231.349,492.221 232.5,494.5C 231.908,497.083 231.242,497.083 230.5,494.5C 229.777,492.218 229.443,489.884 229.5,487.5 Z"/></g>
<g><path style="opacity:1" fill="#090807" d="M 294.5,507.5 C 304.217,507.176 313.884,507.676 323.5,509C 342.998,515.487 347.498,527.654 337,545.5C 318.459,564.005 298.959,565.171 278.5,549C 266.951,537.548 266.618,525.881 277.5,514C 282.888,510.752 288.554,508.585 294.5,507.5 Z"/></g>
<g><path style="opacity:1" fill="#2f2725" d="M 297.5,517.5 C 305.202,517.431 312.869,517.931 320.5,519C 331.207,521.897 334.04,528.064 329,537.5C 312.408,554.148 296.741,553.481 282,535.5C 279.387,530.01 280.553,525.51 285.5,522C 289.503,520.151 293.503,518.651 297.5,517.5 Z"/></g>
</svg>
