<?xml version="1.0" encoding="UTF-8"?>
<!DOCTYPE svg PUBLIC "-//W3C//DTD SVG 1.1//EN" "http://www.w3.org/Graphics/SVG/1.1/DTD/svg11.dtd">
<svg xmlns="http://www.w3.org/2000/svg" version="1.1" width="600px" height="600px" style="shape-rendering:geometricPrecision; text-rendering:geometricPrecision; image-rendering:optimizeQuality; fill-rule:evenodd; clip-rule:evenodd" xmlns:xlink="http://www.w3.org/1999/xlink">
<g><path style="opacity:0.976" fill="#030302" d="M 160.5,18.5 C 163.568,18.5467 166.568,19.0467 169.5,20C 177.456,24.9855 186.123,27.3188 195.5,27C 198.393,27.6309 201.226,28.4642 204,29.5C 207.595,27.5792 211.429,26.5792 215.5,26.5C 226.236,28.1846 236.903,30.1846 247.5,32.5C 247.897,23.9367 252.397,19.6033 261,19.5C 275.517,21.4288 288.851,26.4288 301,34.5C 313.179,26.5497 326.512,21.5497 341,19.5C 349.953,19.4631 354.453,23.6298 354.5,32C 355.167,32.1667 355.833,32.3333 356.5,32.5C 366.43,30.114 376.43,28.114 386.5,26.5C 390.744,26.561 394.744,27.561 398.5,29.5C 405.288,27.1827 412.288,26.016 419.5,26C 425.053,23.3904 430.719,21.0571 436.5,19C 441.239,18.1354 445.406,19.3021 449,22.5C 450.357,26.7457 452.19,30.7457 454.5,34.5C 472.459,38.2398 490.125,43.0732 507.5,49C 531.462,57.4577 544.796,74.291 547.5,99.5C 546.678,119.79 546.178,140.123 546,160.5C 544.305,178.055 537.138,192.888 524.5,205C 519.821,208.839 514.488,211.339 508.5,212.5C 504.762,221.532 498.429,224.865 489.5,222.5C 492.983,243.582 496.983,264.582 501.5,285.5C 501.299,290.272 499.633,294.439 496.5,298C 504.499,313.493 508.999,329.993 510,347.5C 512.987,388.05 503.82,425.55 482.5,460C 478.768,462.104 474.768,463.604 470.5,464.5C 466.923,481.654 458.257,495.654 444.5,506.5C 441.882,513.571 437.882,519.737 432.5,525C 430.222,525.986 427.889,526.82 425.5,527.5C 424.14,531.363 421.807,534.53 418.5,537C 412.978,540.511 407.144,543.345 401,545.5C 396.038,543.852 391.705,541.186 388,537.5C 382.101,546.122 375.601,554.289 368.5,562C 352.138,573.679 334.138,581.846 314.5,586.5C 309.136,585.986 304.802,583.653 301.5,579.5C 297.976,583.625 293.476,585.959 288,586.5C 265.875,581.604 246.209,571.937 229,557.5C 226.608,554.772 224.608,551.772 223,548.5C 218.978,545.811 215.645,542.478 213,538.5C 210.735,540.167 208.569,542 206.5,544C 204.782,544.346 203.115,544.846 201.5,545.5C 194.117,543.309 187.451,539.809 181.5,535C 179.734,532.904 178.401,530.571 177.5,528C 171.69,526.68 167.19,523.513 164,518.5C 160.309,508.803 154.309,500.803 146,494.5C 137.533,485.56 132.867,474.894 132,462.5C 126.375,463.845 121.708,462.179 118,457.5C 90.4745,409.964 84.8078,359.964 101,307.5C 102.636,304.394 104.136,301.227 105.5,298C 102.872,294.463 101.206,290.463 100.5,286C 105.141,265.794 109.141,245.461 112.5,225C 112.333,223.833 112.167,222.667 112,221.5C 102.895,224.696 96.7279,221.53 93.5,212C 82.8528,209.693 74.6861,203.859 69,194.5C 61.2924,183.045 56.9591,170.379 56,156.5C 56.0411,138.987 55.8745,121.487 55.5,104C 54.4512,85.1069 61.4512,70.1069 76.5,59C 83.0583,54.5536 90.0583,50.8869 97.5,48C 113.919,42.7286 130.585,38.3953 147.5,35C 149.922,30.9902 151.922,26.8236 153.5,22.5C 155.525,20.4356 157.858,19.1023 160.5,18.5 Z"/></g>
<g><path style="opacity:1" fill="#eed496" d="M 217.5,53.5 C 219.004,55.8356 221.004,57.669 223.5,59C 219.531,62.5478 214.865,64.5478 209.5,65C 203.652,65.1728 197.985,65.6728 192.5,66.5C 187.772,67.1917 183.439,69.0251 179.5,72C 174.313,76.189 169.48,80.689 165,85.5C 153.667,102.833 142.333,120.167 131,137.5C 127.274,143.619 124.107,149.952 121.5,156.5C 114.421,169.138 110.587,182.804 110,197.5C 108.945,200.056 107.112,201.723 104.5,202.5C 98.4371,203.162 92.7704,201.996 87.5,199C 75.5184,188.538 68.6851,175.371 67,159.5C 66.3333,136.167 66.3333,112.833 67,89.5C 73.3469,72.8254 85.1802,61.9921 102.5,57C 121.657,51.105 140.99,46.105 160.5,42C 159.257,40.8455 158.257,39.5122 157.5,38C 162.257,37.7086 166.924,38.0419 171.5,39C 168.035,36.5374 164.869,33.7041 162,30.5C 161.409,29.5165 161.743,28.8499 163,28.5C 168.441,31.137 173.941,33.637 179.5,36C 189.971,34.9488 199.305,37.6155 207.5,44C 210.703,47.3709 214.036,50.5375 217.5,53.5 Z"/></g>
<g><path style="opacity:1" fill="#eed496" d="M 497.5,202.5 C 495.248,202.084 493.748,200.751 493,198.5C 492.1,183.884 488.266,170.218 481.5,157.5C 478.872,150.91 475.705,144.577 472,138.5C 460.667,121.167 449.333,103.833 438,86.5C 432.096,79.9257 425.596,74.0924 418.5,69C 413.003,65.7835 407.337,64.9502 401.5,66.5C 392.751,67.6883 384.918,65.6883 378,60.5C 377.333,59.5 377.333,58.5 378,57.5C 386.531,50.6428 395.364,44.1428 404.5,38C 410.103,36.8763 415.769,36.2096 421.5,36C 427.068,33.9644 432.568,31.7978 438,29.5C 438.833,29.6667 439.667,29.8333 440.5,30C 437.5,33 434.5,36 431.5,39C 434.395,38.4394 437.395,37.9394 440.5,37.5C 445.121,37.3105 445.788,38.8105 442.5,42C 461.484,46.7352 480.484,51.7352 499.5,57C 511.482,61.2332 521.649,68.0666 530,77.5C 534.503,84.514 536.67,92.1807 536.5,100.5C 535.262,113.831 535.262,127.164 536.5,140.5C 537.752,156.5 534.585,171.5 527,185.5C 520.824,197.505 510.99,203.172 497.5,202.5 Z"/></g>
<g><path style="opacity:1" fill="#f7e6c1" d="M 414.5,232.5 C 414.657,231.127 414.49,229.793 414,228.5C 406.59,222.546 399.09,216.713 391.5,211C 383.928,204.099 377.095,196.599 371,188.5C 369.978,186.298 369.478,183.965 369.5,181.5C 370.338,175.812 371.338,170.145 372.5,164.5C 372.694,161.864 371.528,160.197 369,159.5C 367.347,159.82 366.347,160.82 366,162.5C 364.778,171.282 362.111,179.616 358,187.5C 352.657,194.339 347.157,201.005 341.5,207.5C 341.608,208.442 341.941,209.275 342.5,210C 349.926,210.31 356.926,212.144 363.5,215.5C 363.158,216.338 362.492,216.672 361.5,216.5C 307.963,206.181 255.296,209.515 203.5,226.5C 205.065,224.121 207.732,222.287 211.5,221C 225.007,219.566 238.007,216.233 250.5,211C 254.089,210.793 257.589,210.293 261,209.5C 261.667,208.167 261.667,206.833 261,205.5C 246.48,194.472 238.147,179.805 236,161.5C 235.275,159.842 234.108,159.342 232.5,160C 230.993,161.473 230.326,163.307 230.5,165.5C 231.307,171.033 232.307,176.533 233.5,182C 233.066,184.634 232.233,187.134 231,189.5C 218.564,204.603 204.231,217.603 188,228.5C 187.421,229.928 187.588,231.262 188.5,232.5C 160.905,242.541 137.071,258.207 117,279.5C 116.35,282.965 114.85,285.965 112.5,288.5C 111.353,286.235 111.186,283.902 112,281.5C 116.695,261.358 120.362,241.025 123,220.5C 124.109,214.521 123.276,208.854 120.5,203.5C 121.365,190.334 124.199,177.667 129,165.5C 142.915,141.33 157.582,117.664 173,94.5C 178.951,87.5423 185.785,81.7089 193.5,77C 203.306,77.0743 212.973,76.0743 222.5,74C 233.167,70.3345 236.667,63.1679 233,52.5C 227.397,47.3165 221.564,42.4832 215.5,38C 226.977,38.9132 238.31,40.9132 249.5,44C 253.167,44.6667 256.833,44.6667 260.5,44C 261.308,39.5528 260.308,35.3862 257.5,31.5C 258.171,30.0542 259.338,29.3875 261,29.5C 273.975,31.6011 285.808,36.4344 296.5,44C 298.278,44.704 300.112,45.204 302,45.5C 310.939,40.6142 320.105,36.1142 329.5,32C 334.42,30.7497 339.42,30.2497 344.5,30.5C 342.677,34.9737 341.677,39.6404 341.5,44.5C 353.723,43.7401 365.723,41.5735 377.5,38C 380.554,37.1786 383.554,37.3452 386.5,38.5C 380.256,42.5691 374.423,47.2357 369,52.5C 367,56.8333 367,61.1667 369,65.5C 373.712,71.5422 379.879,75.0422 387.5,76C 394.167,76.3333 400.833,76.6667 407.5,77C 417.11,81.2695 424.943,87.7695 431,96.5C 445.793,118.637 459.793,141.304 473,164.5C 477.88,177.062 481.047,190.062 482.5,203.5C 481.909,205.266 481.076,206.933 480,208.5C 479.333,214.833 479.333,221.167 480,227.5C 482.563,244.316 485.896,260.982 490,277.5C 491.755,291.095 490.088,291.762 485,279.5C 465.033,258.337 441.533,242.67 414.5,232.5 Z"/></g>
<g><path style="opacity:1" fill="#ead9b4" d="M 217.5,53.5 C 224.253,54.9588 225.586,58.1255 221.5,63C 218.754,64.7497 215.754,65.7497 212.5,66C 205.842,66.4996 199.175,66.6663 192.5,66.5C 197.985,65.6728 203.652,65.1728 209.5,65C 214.865,64.5478 219.531,62.5478 223.5,59C 221.004,57.669 219.004,55.8356 217.5,53.5 Z"/></g>
<g><path style="opacity:1" fill="#bdaf91" d="M 401.5,66.5 C 407.337,64.9502 413.003,65.7835 418.5,69C 425.596,74.0924 432.096,79.9257 438,86.5C 449.333,103.833 460.667,121.167 472,138.5C 475.705,144.577 478.872,150.91 481.5,157.5C 481.167,157.5 480.833,157.5 480.5,157.5C 466.682,133.185 451.849,109.519 436,86.5C 430.049,79.5423 423.215,73.7089 415.5,69C 411.037,67.0255 406.371,66.1922 401.5,66.5 Z"/></g>
<g><path style="opacity:1" fill="#beb091" d="M 192.5,66.5 C 181.426,72.0593 171.926,79.726 164,89.5C 149.546,111.453 135.712,133.787 122.5,156.5C 122.167,156.5 121.833,156.5 121.5,156.5C 124.107,149.952 127.274,143.619 131,137.5C 142.333,120.167 153.667,102.833 165,85.5C 169.48,80.689 174.313,76.189 179.5,72C 183.439,69.0251 187.772,67.1917 192.5,66.5 Z"/></g>
<g><path style="opacity:1" fill="#3c3b39" d="M 203.5,226.5 C 198.639,228.643 193.639,230.643 188.5,232.5C 187.588,231.262 187.421,229.928 188,228.5C 204.231,217.603 218.564,204.603 231,189.5C 232.233,187.134 233.066,184.634 233.5,182C 232.307,176.533 231.307,171.033 230.5,165.5C 230.326,163.307 230.993,161.473 232.5,160C 234.108,159.342 235.275,159.842 236,161.5C 238.147,179.805 246.48,194.472 261,205.5C 261.667,206.833 261.667,208.167 261,209.5C 257.589,210.293 254.089,210.793 250.5,211C 238.007,216.233 225.007,219.566 211.5,221C 207.732,222.287 205.065,224.121 203.5,226.5 Z"/></g>
<g><path style="opacity:1" fill="#3c3a39" d="M 414.5,232.5 C 410.007,231.006 405.673,229.34 401.5,227.5C 399.073,225.442 396.407,223.609 393.5,222C 383.468,219.939 373.468,217.773 363.5,215.5C 356.926,212.144 349.926,210.31 342.5,210C 341.941,209.275 341.608,208.442 341.5,207.5C 347.157,201.005 352.657,194.339 358,187.5C 362.111,179.616 364.778,171.282 366,162.5C 366.347,160.82 367.347,159.82 369,159.5C 371.528,160.197 372.694,161.864 372.5,164.5C 371.338,170.145 370.338,175.812 369.5,181.5C 369.478,183.965 369.978,186.298 371,188.5C 377.095,196.599 383.928,204.099 391.5,211C 399.09,216.713 406.59,222.546 414,228.5C 414.49,229.793 414.657,231.127 414.5,232.5 Z"/></g>
<g><path style="opacity:1" fill="#eedcb7" d="M 480.5,157.5 C 480.833,157.5 481.167,157.5 481.5,157.5C 488.266,170.218 492.1,183.884 493,198.5C 493.748,200.751 495.248,202.084 497.5,202.5C 495.243,203.803 493.41,203.136 492,200.5C 490.503,185.508 486.669,171.175 480.5,157.5 Z"/></g>
<g><path style="opacity:1" fill="#eedcb6" d="M 121.5,156.5 C 121.833,156.5 122.167,156.5 122.5,156.5C 116.023,170.073 112.189,184.407 111,199.5C 109.557,202.647 107.391,203.647 104.5,202.5C 107.112,201.723 108.945,200.056 110,197.5C 110.587,182.804 114.421,169.138 121.5,156.5 Z"/></g>
<g><path style="opacity:1" fill="#cdbfa1" d="M 363.5,215.5 C 373.468,217.773 383.468,219.939 393.5,222C 396.407,223.609 399.073,225.442 401.5,227.5C 388.231,223.174 374.898,219.508 361.5,216.5C 362.492,216.672 363.158,216.338 363.5,215.5 Z"/></g>
<g><path style="opacity:1" fill="#efd496" d="M 475.5,286.5 C 486.317,298.129 493.483,311.795 497,327.5C 505.081,371.425 498.081,412.758 476,451.5C 473.408,452.982 471.075,452.648 469,450.5C 465.152,444.131 461.319,437.798 457.5,431.5C 457.167,432.167 456.833,432.833 456.5,433.5C 465.676,459.952 459.342,481.618 437.5,498.5C 436.903,498.265 436.57,497.765 436.5,497C 440.074,485.441 442.074,473.608 442.5,461.5C 440.863,429.852 439.697,398.185 439,366.5C 437.885,349.241 435.218,332.241 431,315.5C 411.203,267.002 375.036,245.168 322.5,250C 319.243,251.043 315.91,251.543 312.5,251.5C 304.5,251.5 296.5,251.5 288.5,251.5C 265.621,246.506 243.288,248.339 221.5,257C 193.145,270.7 174.978,292.866 167,323.5C 164.163,337.696 162.497,352.029 162,366.5C 161.049,401.831 160.715,437.164 161,472.5C 162.515,481.576 164.349,490.576 166.5,499.5C 156.222,492.047 148.722,482.381 144,470.5C 143.044,467.07 142.544,463.57 142.5,460C 143.39,451.99 144.39,443.99 145.5,436C 145.167,434.5 144.833,433 144.5,431.5C 141.133,437.039 137.966,442.706 135,448.5C 133.26,450.954 131.093,452.454 128.5,453C 110.406,425.276 101.74,394.776 102.5,361.5C 100.479,332.566 108.812,307.232 127.5,285.5C 150.669,263.236 177.669,247.069 208.5,237C 291.571,210.773 370.904,219.107 446.5,262C 457.263,268.934 466.929,277.101 475.5,286.5 Z"/></g>
<g><path style="opacity:1" fill="#ebdab5" d="M 475.5,286.5 C 466.929,277.101 457.263,268.934 446.5,262C 370.904,219.107 291.571,210.773 208.5,237C 177.669,247.069 150.669,263.236 127.5,285.5C 126.761,285.631 126.094,285.464 125.5,285C 152.455,259.345 184.121,241.678 220.5,232C 294.536,211.819 365.869,218.819 434.5,253C 450.206,261.365 464.206,272.032 476.5,285C 475.944,285.383 475.611,285.883 475.5,286.5 Z"/></g>
<g><path style="opacity:1" fill="#d6ac6e" d="M 288.5,251.5 C 279.999,252.613 271.999,255.447 264.5,260C 257.478,266.225 254.478,274.059 255.5,283.5C 227.655,288.832 215.488,305.498 219,333.5C 220.432,339.426 221.432,345.426 222,351.5C 229.705,381.031 238.038,410.364 247,439.5C 254.981,470.53 256.481,501.863 251.5,533.5C 244.806,527.473 238.473,521.14 232.5,514.5C 231.808,515.025 231.308,515.692 231,516.5C 230.383,523.535 229.549,530.535 228.5,537.5C 227.883,537.611 227.383,537.944 227,538.5C 225.171,536.844 223.837,534.844 223,532.5C 218.151,517.937 212.818,504.27 207,491.5C 205.716,506.527 204.216,520.86 202.5,534.5C 197.44,533.279 192.94,530.946 189,527.5C 187.594,523.969 186.76,520.302 186.5,516.5C 185.739,499.834 184.906,483.168 184,466.5C 183.311,465.643 182.478,464.977 181.5,464.5C 179.422,479.755 178.422,495.088 178.5,510.5C 177.835,512.369 177.169,514.369 176.5,516.5C 171.896,511.632 168.563,505.966 166.5,499.5C 164.349,490.576 162.515,481.576 161,472.5C 160.715,437.164 161.049,401.831 162,366.5C 162.497,352.029 164.163,337.696 167,323.5C 174.978,292.866 193.145,270.7 221.5,257C 243.288,248.339 265.621,246.506 288.5,251.5 Z"/></g>
<g><path style="opacity:1" fill="#d6ac6e" d="M 437.5,498.5 C 434.829,504.644 431.496,510.477 427.5,516C 426.517,516.591 425.85,516.257 425.5,515C 424.852,513.56 424.519,512.06 424.5,510.5C 423.999,496.151 423.166,481.817 422,467.5C 421.904,464.549 421.071,461.882 419.5,459.5C 417.963,478.47 416.963,497.47 416.5,516.5C 416.143,520.263 415.31,523.93 414,527.5C 410.076,530.213 405.909,532.547 401.5,534.5C 399.84,531.353 398.673,528.02 398,524.5C 397.441,512.785 396.441,501.118 395,489.5C 392.469,496.091 390.136,502.758 388,509.5C 387.333,506.833 386.667,506.833 386,509.5C 383.257,518.731 379.923,527.731 376,536.5C 374.961,537.71 373.794,538.71 372.5,539.5C 372.21,530.628 371.043,521.962 369,513.5C 363.4,522.601 356.233,530.268 347.5,536.5C 342.846,506.832 344.012,477.165 351,447.5C 357.603,423.693 364.603,400.026 372,376.5C 375.767,362.997 378.767,349.33 381,335.5C 385.569,306.911 373.735,289.577 345.5,283.5C 346.964,269.257 340.964,259.757 327.5,255C 322.404,253.64 317.404,252.474 312.5,251.5C 315.91,251.543 319.243,251.043 322.5,250C 375.036,245.168 411.203,267.002 431,315.5C 435.218,332.241 437.885,349.241 439,366.5C 439.697,398.185 440.863,429.852 442.5,461.5C 442.074,473.608 440.074,485.441 436.5,497C 436.57,497.765 436.903,498.265 437.5,498.5 Z"/></g>
<g><path style="opacity:1" fill="#050403" d="M 288.5,251.5 C 296.5,251.5 304.5,251.5 312.5,251.5C 317.404,252.474 322.404,253.64 327.5,255C 340.964,259.757 346.964,269.257 345.5,283.5C 343.966,291.729 339.966,298.563 333.5,304C 326.288,309.107 318.621,313.44 310.5,317C 308.641,318.558 307.141,320.391 306,322.5C 304.487,331.447 304.154,340.447 305,349.5C 305.516,352.034 306.683,354.2 308.5,356C 319.416,358.208 330.416,359.875 341.5,361C 344.244,361.803 346.911,362.803 349.5,364C 350.517,365.049 350.684,366.216 350,367.5C 347.373,368.916 344.54,369.583 341.5,369.5C 327.782,366.656 313.948,364.656 300,363.5C 296.5,363.667 293,363.833 289.5,364C 279.564,366.484 269.564,368.651 259.5,370.5C 256.486,370.742 253.986,369.742 252,367.5C 251.333,366.5 251.333,365.5 252,364.5C 253.419,363.54 254.919,362.707 256.5,362C 268.86,359.863 281.193,357.696 293.5,355.5C 296.605,350.317 297.939,344.65 297.5,338.5C 297.813,331.355 296.313,324.689 293,318.5C 286.707,314.604 280.207,311.104 273.5,308C 264.152,302.171 258.152,294.005 255.5,283.5C 254.478,274.059 257.478,266.225 264.5,260C 271.999,255.447 279.999,252.613 288.5,251.5 Z"/></g>
<g><path style="opacity:1" fill="#2f2725" d="M 290.5,261.5 C 300.95,261.039 311.283,261.872 321.5,264C 335.665,268.508 339.165,277.341 332,290.5C 329.131,293.704 325.965,296.537 322.5,299C 314.711,302.394 307.378,306.56 300.5,311.5C 291.999,306.082 283.332,300.915 274.5,296C 265.436,288.127 263.769,279.127 269.5,269C 275.903,264.493 282.903,261.993 290.5,261.5 Z"/></g>
<g><path style="opacity:1" fill="#efd496" d="M 255.5,283.5 C 258.152,294.005 264.152,302.171 273.5,308C 280.207,311.104 286.707,314.604 293,318.5C 296.313,324.689 297.813,331.355 297.5,338.5C 297.939,344.65 296.605,350.317 293.5,355.5C 281.193,357.696 268.86,359.863 256.5,362C 254.919,362.707 253.419,363.54 252,364.5C 251.333,365.5 251.333,366.5 252,367.5C 253.986,369.742 256.486,370.742 259.5,370.5C 269.564,368.651 279.564,366.484 289.5,364C 293,363.833 296.5,363.667 300,363.5C 313.948,364.656 327.782,366.656 341.5,369.5C 344.54,369.583 347.373,368.916 350,367.5C 350.684,366.216 350.517,365.049 349.5,364C 346.911,362.803 344.244,361.803 341.5,361C 330.416,359.875 319.416,358.208 308.5,356C 306.683,354.2 305.516,352.034 305,349.5C 304.154,340.447 304.487,331.447 306,322.5C 307.141,320.391 308.641,318.558 310.5,317C 318.621,313.44 326.288,309.107 333.5,304C 339.966,298.563 343.966,291.729 345.5,283.5C 373.735,289.577 385.569,306.911 381,335.5C 378.767,349.33 375.767,362.997 372,376.5C 364.603,400.026 357.603,423.693 351,447.5C 344.012,477.165 342.846,506.832 347.5,536.5C 356.233,530.268 363.4,522.601 369,513.5C 371.043,521.962 372.21,530.628 372.5,539.5C 369.173,546.669 364.173,552.502 357.5,557C 344.431,565.69 330.264,571.856 315,575.5C 311.498,575.667 309.498,574 309,570.5C 306.273,558.629 304.273,546.629 303,534.5C 300.91,533.209 299.576,533.876 299,536.5C 297.653,548.61 295.653,560.61 293,572.5C 291.704,574.815 289.704,575.815 287,575.5C 268.048,570.524 251.048,561.858 236,549.5C 233.239,545.64 230.739,541.64 228.5,537.5C 229.549,530.535 230.383,523.535 231,516.5C 231.308,515.692 231.808,515.025 232.5,514.5C 238.473,521.14 244.806,527.473 251.5,533.5C 256.481,501.863 254.981,470.53 247,439.5C 238.038,410.364 229.705,381.031 222,351.5C 221.432,345.426 220.432,339.426 219,333.5C 215.488,305.498 227.655,288.832 255.5,283.5 Z"/></g>
<g><path style="opacity:1" fill="#d7bc84" d="M 424.5,510.5 C 423.778,510.082 423.278,509.416 423,508.5C 422.332,494.14 421.332,479.806 420,465.5C 419.6,481.511 418.933,497.511 418,513.5C 417.768,514.737 417.268,515.737 416.5,516.5C 416.963,497.47 417.963,478.47 419.5,459.5C 421.071,461.882 421.904,464.549 422,467.5C 423.166,481.817 423.999,496.151 424.5,510.5 Z"/></g>
<g><path style="opacity:1" fill="#d6bb83" d="M 186.5,516.5 C 185.195,514.603 184.529,512.269 184.5,509.5C 183.979,496.493 183.312,483.493 182.5,470.5C 181.477,484.587 180.144,497.921 178.5,510.5C 178.422,495.088 179.422,479.755 181.5,464.5C 182.478,464.977 183.311,465.643 184,466.5C 184.906,483.168 185.739,499.834 186.5,516.5 Z"/></g>
</svg>
