<?xml version="1.0" encoding="UTF-8"?>
<!DOCTYPE svg PUBLIC "-//W3C//DTD SVG 1.1//EN" "http://www.w3.org/Graphics/SVG/1.1/DTD/svg11.dtd">
<svg xmlns="http://www.w3.org/2000/svg" version="1.1" width="600px" height="600px" style="shape-rendering:geometricPrecision; text-rendering:geometricPrecision; image-rendering:optimizeQuality; fill-rule:evenodd; clip-rule:evenodd" xmlns:xlink="http://www.w3.org/1999/xlink">
<g><path style="opacity:0.981" fill="#040201" d="M 211.5,29.5 C 218.782,30.2371 225.782,32.0705 232.5,35C 240.763,39.3803 248.93,43.8803 257,48.5C 261.643,45.9887 266.309,45.9887 271,48.5C 276.461,42.1751 282.961,40.6751 290.5,44C 293.834,45.3314 296.834,47.1647 299.5,49.5C 306.682,42.9153 314.682,41.082 323.5,44C 325.022,45.5218 326.522,47.0218 328,48.5C 332.691,45.9887 337.357,45.9887 342,48.5C 351.612,42.9435 361.446,37.7769 371.5,33C 376.464,31.6757 381.464,30.509 386.5,29.5C 394.353,31.229 402.02,33.5623 409.5,36.5C 415.745,34.3628 422.078,32.5294 428.5,31C 434.237,30.2106 439.903,30.5439 445.5,32C 452.516,36.395 453.849,42.0617 449.5,49C 452.883,52.6396 453.883,56.8063 452.5,61.5C 452.977,62.4776 453.643,63.3109 454.5,64C 468.837,73.1707 483.504,81.8373 498.5,90C 521.748,101.193 545.081,112.193 568.5,123C 576.333,126.833 582.167,132.667 586,140.5C 588.328,152.212 586.995,163.545 582,174.5C 576.279,187.613 569.279,199.947 561,211.5C 561.738,218.638 562.571,225.805 563.5,233C 563.37,239.356 562.203,245.523 560,251.5C 554.236,258.615 547.736,259.282 540.5,253.5C 535.715,256.372 531.215,256.038 527,252.5C 517.144,263.873 510.144,276.873 506,291.5C 500.085,301.144 492.085,303.477 482,298.5C 480.202,300.972 477.868,302.639 475,303.5C 475.39,311.48 475.39,319.48 475,327.5C 474.066,331.637 472.732,335.637 471,339.5C 469.269,341.617 467.102,343.117 464.5,344C 465.215,348.531 466.215,353.031 467.5,357.5C 466.919,361.245 465.253,364.412 462.5,367C 468.917,374.503 472.917,383.17 474.5,393C 474.263,398.474 471.93,402.808 467.5,406C 478.447,431.219 481.947,457.386 478,484.5C 473.684,498.823 464.684,503.489 451,498.5C 441.336,523.342 427.502,545.509 409.5,565C 405.484,567.26 401.317,569.093 397,570.5C 392.914,569.789 389.581,567.789 387,564.5C 384.938,555.788 382.772,547.121 380.5,538.5C 355.306,552.398 328.473,561.398 300,565.5C 278.253,561.363 257.087,555.196 236.5,547C 229.927,544.133 223.761,540.633 218,536.5C 216.122,544.431 214.455,552.431 213,560.5C 211.52,565.571 208.187,568.571 203,569.5C 194.393,567.355 187.393,562.688 182,555.5C 171.08,540.67 161.413,525.004 153,508.5C 151.321,504.122 149.654,499.789 148,495.5C 136.196,502.453 127.863,499.453 123,486.5C 118.417,468.457 118.751,450.457 124,432.5C 126.232,423.471 129.065,414.637 132.5,406C 130.327,403.815 128.493,401.315 127,398.5C 125.845,388.632 128.345,379.799 134.5,372C 130.378,362.998 128.378,353.498 128.5,343.5C 125.867,342.699 124.033,341.033 123,338.5C 121.193,333.58 119.693,328.58 118.5,323.5C 119.796,316.859 119.796,310.193 118.5,303.5C 115.437,300.526 111.937,299.859 108,301.5C 102.744,300.917 98.4106,298.584 95,294.5C 91.8134,287.281 88.8134,279.948 86,272.5C 82.112,265.28 77.4453,258.614 72,252.5C 67.7849,256.038 63.2849,256.372 58.5,253.5C 49.6514,259.898 42.818,258.231 38,248.5C 34.488,236.484 34.988,224.65 39.5,213C 26.3499,196.161 17.1832,177.327 12,156.5C 10.2491,147.503 12.2491,139.503 18,132.5C 21.8826,128.95 26.0493,125.783 30.5,123C 70.5916,106.289 108.925,86.4561 145.5,63.5C 145.782,60.9433 145.949,58.2766 146,55.5C 146.516,52.9664 147.683,50.7998 149.5,49C 145.412,43.2052 146.078,37.8719 151.5,33C 157.631,30.6559 163.964,29.9892 170.5,31C 176.975,32.3685 183.308,34.2018 189.5,36.5C 196.818,33.7257 204.151,31.3924 211.5,29.5 Z"/></g>
<g><path style="opacity:1" fill="#7d472c" d="M 266.5,63.5 C 262.595,72.2542 256.595,79.4208 248.5,85C 243.187,87.949 237.854,88.1156 232.5,85.5C 230.142,83.8714 227.476,82.7048 224.5,82C 205.258,79.4591 190.591,86.2924 180.5,102.5C 174.401,110.099 170.401,118.766 168.5,128.5C 165.469,135.245 162.802,142.245 160.5,149.5C 160.624,150.107 160.957,150.44 161.5,150.5C 157.434,159.078 154.434,168.078 152.5,177.5C 146.831,180.364 144.998,184.698 147,190.5C 147.671,191.252 148.504,191.586 149.5,191.5C 149.5,191.833 149.5,192.167 149.5,192.5C 148.883,192.611 148.383,192.944 148,193.5C 143.127,214.868 138.127,236.201 133,257.5C 129.186,267.132 124.353,276.132 118.5,284.5C 116.329,286.5 113.996,288.334 111.5,290C 108.044,291.123 105.21,290.29 103,287.5C 96.8989,267.286 86.2322,249.953 71,235.5C 69.6422,238.381 68.1422,241.214 66.5,244C 64.6332,244.711 63.1332,244.211 62,242.5C 60.1222,235.972 59.1222,229.305 59,222.5C 54.3975,229.304 51.5642,236.804 50.5,245C 49.9896,246.826 49.1562,246.993 48,245.5C 45.4784,234.073 46.3117,222.907 50.5,212C 41.8715,199.922 34.3715,187.088 28,173.5C 25.0176,165.887 22.8509,158.054 21.5,150C 21.7261,146.988 22.5594,144.155 24,141.5C 28.2139,137.618 32.7139,134.118 37.5,131C 81.5783,112.966 123.245,90.7995 162.5,64.5C 160.613,62.9596 158.78,61.2929 157,59.5C 156.316,58.2161 156.483,57.0495 157.5,56C 159.702,54.9777 162.035,54.4777 164.5,54.5C 168.887,55.0826 173.22,55.5826 177.5,56C 177.833,55.6667 178.167,55.3333 178.5,55C 172.618,49.8893 165.951,46.056 158.5,43.5C 157.289,42.7261 157.289,41.8928 158.5,41C 169.552,40.5255 179.885,43.0255 189.5,48.5C 195.38,45.7269 201.38,43.2269 207.5,41C 216.687,40.4622 225.354,42.4622 233.5,47C 243.629,53.4816 254.129,59.315 265,64.5C 265.333,63.8333 265.667,63.1667 266,62.5C 266.399,62.7284 266.565,63.0618 266.5,63.5 Z"/></g>
<g><path style="opacity:1" fill="#7d472c" d="M 476.5,280.5 C 471.542,270.906 467.375,260.906 464,250.5C 460.025,232.123 455.858,213.79 451.5,195.5C 451.253,194.287 450.586,193.62 449.5,193.5C 453.465,190.972 454.299,187.638 452,183.5C 449.665,181.6 447.498,179.6 445.5,177.5C 446.097,177.265 446.43,176.765 446.5,176C 444.313,167.275 441.646,158.775 438.5,150.5C 436.132,140.724 432.799,131.39 428.5,122.5C 422.464,97.9571 406.964,84.2905 382,81.5C 376.254,81.0605 371.087,82.3938 366.5,85.5C 360.586,88.3553 354.92,87.8553 349.5,84C 341.734,78.7497 336.068,71.9164 332.5,63.5C 332.435,63.0618 332.601,62.7284 333,62.5C 333.333,63.1667 333.667,63.8333 334,64.5C 345.537,58.9821 356.704,52.8154 367.5,46C 374.916,41.4788 382.916,39.8121 391.5,41C 397.62,43.2269 403.62,45.7269 409.5,48.5C 415.823,45.1758 422.489,42.6758 429.5,41C 433.167,40.3333 436.833,40.3333 440.5,41C 441.711,41.8928 441.711,42.7261 440.5,43.5C 433.049,46.056 426.382,49.8893 420.5,55C 421.5,55.5 422.5,56 423.5,56.5C 429.894,54.1165 436.228,54.1165 442.5,56.5C 443.521,57.0016 443.688,57.6683 443,58.5C 440.957,60.7122 438.791,62.7122 436.5,64.5C 476.423,91.1332 518.756,113.633 563.5,132C 569.333,135.167 573.833,139.667 577,145.5C 577.572,154.554 575.905,163.221 572,171.5C 565.38,185.767 557.547,199.267 548.5,212C 552.32,222.155 553.487,232.655 552,243.5C 551.333,244.833 550.667,246.167 550,247.5C 548.085,240.423 545.752,233.423 543,226.5C 542,225.167 541,223.833 540,222.5C 540.037,229.348 539.037,236.014 537,242.5C 535.867,244.211 534.367,244.711 532.5,244C 530.858,241.214 529.358,238.381 528,235.5C 520.612,243.286 513.946,251.619 508,260.5C 502.948,269.936 498.448,279.603 494.5,289.5C 492.232,290.544 489.899,290.711 487.5,290C 483.596,286.917 479.929,283.75 476.5,280.5 Z"/></g>
<g><path style="opacity:1" fill="#b05725" d="M 377.5,92.5 C 384.643,98.8021 391.976,104.969 399.5,111C 406.368,118.036 413.368,124.869 420.5,131.5C 423.756,139.267 426.422,147.267 428.5,155.5C 428.167,156.167 427.833,156.833 427.5,157.5C 399.015,146.465 369.682,143.298 339.5,148C 329.613,149.508 321.113,153.674 314,160.5C 307.719,169.827 307.053,179.494 312,189.5C 314.483,192.823 317.649,195.157 321.5,196.5C 323.431,212.547 325.931,228.547 329,244.5C 331.275,251.326 333.942,257.993 337,264.5C 344.336,279.176 352.169,293.509 360.5,307.5C 337.853,312.809 324.52,326.809 320.5,349.5C 306.5,346.833 292.5,346.833 278.5,349.5C 274.615,327.274 261.615,313.274 239.5,307.5C 239.389,306.883 239.056,306.383 238.5,306C 251.487,286.861 261.987,266.361 270,244.5C 274.623,229.514 277.123,214.181 277.5,198.5C 292.229,190.431 295.729,178.764 288,163.5C 280.359,154.262 270.526,149.095 258.5,148C 239.477,145.143 220.477,145.476 201.5,149C 191.395,151.193 181.395,153.693 171.5,156.5C 172.761,147.384 175.428,138.717 179.5,130.5C 193.163,117.356 207.163,104.69 221.5,92.5C 232.828,99.8701 244.495,100.37 256.5,94C 263.739,87.4313 270.239,80.2646 276,72.5C 277.199,69.2744 277.699,65.941 277.5,62.5C 279.167,62.5 280.833,62.5 282.5,62.5C 282.384,59.1401 282.051,55.8067 281.5,52.5C 284.425,52.4598 287.091,53.2932 289.5,55C 292.717,57.7256 296.05,60.2256 299.5,62.5C 302.95,60.2256 306.283,57.7256 309.5,55C 311.909,53.2932 314.575,52.4598 317.5,52.5C 316.949,55.8067 316.616,59.1401 316.5,62.5C 318.599,61.7691 320.599,61.7691 322.5,62.5C 321.465,67.1576 322.298,71.491 325,75.5C 331.205,83.3727 338.372,90.2061 346.5,96C 357.538,100.141 367.872,98.9748 377.5,92.5 Z"/></g>
<g><path style="opacity:1" fill="#9d4e23" d="M 332.5,63.5 C 336.068,71.9164 341.734,78.7497 349.5,84C 354.92,87.8553 360.586,88.3553 366.5,85.5C 367.738,85.81 367.738,86.31 366.5,87C 360.686,89.1687 355.019,88.8354 349.5,86C 342.625,80.7927 336.792,74.626 332,67.5C 331.235,65.9343 331.402,64.6009 332.5,63.5 Z"/></g>
<g><path style="opacity:1" fill="#9e4f23" d="M 266.5,63.5 C 267.598,64.6009 267.765,65.9343 267,67.5C 262.577,73.9275 257.41,79.7608 251.5,85C 244.972,89.0984 238.305,89.4317 231.5,86C 231.728,85.6012 232.062,85.4346 232.5,85.5C 237.854,88.1156 243.187,87.949 248.5,85C 256.595,79.4208 262.595,72.2542 266.5,63.5 Z"/></g>
<g><path style="opacity:1" fill="#3a3838" d="M 221.5,92.5 C 207.163,104.69 193.163,117.356 179.5,130.5C 183.107,112.741 193.107,100.241 209.5,93C 213.531,91.8023 217.531,91.6357 221.5,92.5 Z"/></g>
<g><path style="opacity:1" fill="#3b3938" d="M 420.5,131.5 C 413.368,124.869 406.368,118.036 399.5,111C 391.976,104.969 384.643,98.8021 377.5,92.5C 387.312,91.6239 395.979,94.4573 403.5,101C 411.642,109.784 417.309,119.951 420.5,131.5 Z"/></g>
<g><path style="opacity:1" fill="#35312f" d="M 180.5,102.5 C 175.932,110.965 171.932,119.632 168.5,128.5C 170.401,118.766 174.401,110.099 180.5,102.5 Z"/></g>
<g><path style="opacity:1" fill="#3b3330" d="M 428.5,122.5 C 432.799,131.39 436.132,140.724 438.5,150.5C 438.167,150.5 437.833,150.5 437.5,150.5C 434.496,141.155 431.496,131.822 428.5,122.5 Z"/></g>
<g><path style="opacity:1" fill="#9d4f24" d="M 153.5,177.5 C 153.167,177.5 152.833,177.5 152.5,177.5C 154.434,168.078 157.434,159.078 161.5,150.5C 161.969,149.255 162.303,149.421 162.5,151C 158.964,159.641 155.964,168.474 153.5,177.5 Z"/></g>
<g><path style="opacity:1" fill="#492f26" d="M 219.5,156.5 C 223.82,155.834 228.32,155.501 233,155.5C 240.718,155.389 248.218,156.056 255.5,157.5C 243.515,156.757 231.515,156.424 219.5,156.5 Z"/></g>
<g><path style="opacity:1" fill="#f3f2f2" d="M 219.5,156.5 C 231.515,156.424 243.515,156.757 255.5,157.5C 264.657,158.409 272.49,162.075 279,168.5C 282.754,175.114 282.254,181.28 277.5,187C 238.534,187.655 203.534,199.655 172.5,223C 161.621,229.124 156.787,225.957 158,213.5C 163.327,204.164 170.161,195.997 178.5,189C 172.302,188.939 166.302,190.106 160.5,192.5C 157.376,187.994 158.209,184.327 163,181.5C 163.844,177.789 164.844,174.123 166,170.5C 182.983,162.674 200.817,158.007 219.5,156.5 Z"/></g>
<g><path style="opacity:1" fill="#f2f1f1" d="M 356.5,155.5 C 382.92,155.087 408.253,160.087 432.5,170.5C 434.43,173.872 435.596,177.539 436,181.5C 437.447,183.403 439.114,185.07 441,186.5C 441.628,189.581 440.461,191.581 437.5,192.5C 432.111,191.124 426.778,189.957 421.5,189C 429.654,196.495 436.487,204.995 442,214.5C 444.371,223.111 441.204,227.278 432.5,227C 408.671,207.922 381.671,195.589 351.5,190C 343.854,189.097 336.188,188.43 328.5,188C 318.131,183.89 315.964,177.057 322,167.5C 325.721,163.449 330.221,160.616 335.5,159C 342.564,157.34 349.564,156.173 356.5,155.5 Z"/></g>
<g><path style="opacity:1" fill="#9d4f24" d="M 437.5,150.5 C 437.833,150.5 438.167,150.5 438.5,150.5C 441.646,158.775 444.313,167.275 446.5,176C 446.43,176.765 446.097,177.265 445.5,177.5C 442.835,168.504 440.168,159.504 437.5,150.5 Z"/></g>
<g><path style="opacity:1" fill="#675e5c" d="M 152.5,177.5 C 152.833,177.5 153.167,177.5 153.5,177.5C 150.583,180.248 148.25,183.415 146.5,187C 147.386,188.615 148.386,190.115 149.5,191.5C 148.504,191.586 147.671,191.252 147,190.5C 144.998,184.698 146.831,180.364 152.5,177.5 Z"/></g>
<g><path style="opacity:1" fill="#a75324" d="M 321.5,196.5 C 333.654,197.884 345.654,199.551 357.5,201.5C 340.513,217.899 340.179,234.733 356.5,252C 373.527,262.513 388.361,260.013 401,244.5C 405.508,237.823 407.341,230.49 406.5,222.5C 412.541,225.695 418.208,229.528 423.5,234C 432.067,238.816 440.233,238.316 448,232.5C 450.977,249.432 456.311,265.432 464,280.5C 464.543,295.845 464.877,311.178 465,326.5C 464.145,329.601 462.645,332.268 460.5,334.5C 457.833,332.833 455.167,331.167 452.5,329.5C 452.167,330 451.833,330.5 451.5,331C 453.042,334.035 453.542,337.202 453,340.5C 449.912,338.706 446.746,337.039 443.5,335.5C 442.863,328.402 439.863,322.569 434.5,318C 423.886,312.24 412.553,308.907 400.5,308C 387.134,307.098 373.801,306.931 360.5,307.5C 352.169,293.509 344.336,279.176 337,264.5C 333.942,257.993 331.275,251.326 329,244.5C 325.931,228.547 323.431,212.547 321.5,196.5 Z"/></g>
<g><path style="opacity:1" fill="#a75324" d="M 277.5,198.5 C 277.123,214.181 274.623,229.514 270,244.5C 261.987,266.361 251.487,286.861 238.5,306C 239.056,306.383 239.389,306.883 239.5,307.5C 236.517,307.102 233.517,306.768 230.5,306.5C 219.845,307.209 209.179,307.709 198.5,308C 187.212,308.822 176.546,311.822 166.5,317C 159.798,321.091 156.464,327.091 156.5,335C 151.175,337.327 146.175,340.16 141.5,343.5C 140.691,339.034 141.358,334.701 143.5,330.5C 142.635,329.417 141.635,329.251 140.5,330C 135.191,336.738 131.691,335.905 130,327.5C 129.974,314.171 130.307,300.837 131,287.5C 141.782,270.432 148.616,251.765 151.5,231.5C 157.524,236.171 164.19,237.337 171.5,235C 178.996,230.753 186.329,226.253 193.5,221.5C 192.374,242.936 202.374,255.269 223.5,258.5C 247.895,254.705 257.729,240.705 253,216.5C 250.452,210.704 246.952,205.704 242.5,201.5C 254.109,199.976 265.776,198.976 277.5,198.5 Z"/></g>
<g><path style="opacity:1" fill="#5d3d2d" d="M 357.5,201.5 C 365.257,202.437 372.59,204.603 379.5,208C 360.627,207.872 353.127,217.039 357,235.5C 362.552,246.02 371.052,249.52 382.5,246C 393.244,240.111 396.744,231.278 393,219.5C 391.623,217.246 390.123,215.08 388.5,213C 395.173,214.837 401.173,218.004 406.5,222.5C 407.341,230.49 405.508,237.823 401,244.5C 388.361,260.013 373.527,262.513 356.5,252C 340.179,234.733 340.513,217.899 357.5,201.5 Z"/></g>
<g><path style="opacity:1" fill="#5d3d2d" d="M 242.5,201.5 C 246.952,205.704 250.452,210.704 253,216.5C 257.729,240.705 247.895,254.705 223.5,258.5C 202.374,255.269 192.374,242.936 193.5,221.5C 199.007,218.08 204.674,215.246 210.5,213C 202.66,220.565 201.493,229.065 207,238.5C 218.046,250.487 229.046,250.487 240,238.5C 246.529,222.391 241.363,211.891 224.5,207C 230.298,204.55 236.298,202.717 242.5,201.5 Z"/></g>
<g><path style="opacity:1" fill="#e4e4e4" d="M 216.5,213.5 C 223.57,214.407 225.237,217.907 221.5,224C 215.662,225.48 212.829,223.313 213,217.5C 213.69,215.65 214.856,214.316 216.5,213.5 Z"/></g>
<g><path style="opacity:1" fill="#e5e5e5" d="M 367.5,213.5 C 373.33,213.161 375.83,215.827 375,221.5C 371.952,225.01 368.619,225.343 365,222.5C 363.927,218.9 364.76,215.9 367.5,213.5 Z"/></g>
<g><path style="opacity:1" fill="#9b4e24" d="M 449.5,193.5 C 450.586,193.62 451.253,194.287 451.5,195.5C 455.858,213.79 460.025,232.123 464,250.5C 467.375,260.906 471.542,270.906 476.5,280.5C 470.397,272.074 465.897,262.74 463,252.5C 458.561,232.8 454.061,213.134 449.5,193.5 Z"/></g>
<g><path style="opacity:1" fill="#9a4d23" d="M 149.5,192.5 C 144.985,213.894 140.152,235.227 135,256.5C 131.223,267.39 125.89,277.39 119,286.5C 118.536,285.906 118.369,285.239 118.5,284.5C 124.353,276.132 129.186,267.132 133,257.5C 138.127,236.201 143.127,214.868 148,193.5C 148.383,192.944 148.883,192.611 149.5,192.5 Z"/></g>
<g><path style="opacity:1" fill="#90471f" d="M 469.5,288.5 C 472.752,289.046 473.752,290.712 472.5,293.5C 470.738,292.312 469.738,290.645 469.5,288.5 Z"/></g>
<g><path style="opacity:1" fill="#f4f4f4" d="M 225.5,316.5 C 248.87,316.7 263.203,328.2 268.5,351C 249.31,364.943 245.476,382.443 257,403.5C 281.923,435.018 308.923,437.018 338,409.5C 350.142,394.315 351.475,378.315 342,361.5C 338.179,358.029 334.346,354.696 330.5,351.5C 335.011,330.32 348.011,318.653 369.5,316.5C 379.824,317.173 390.157,317.673 400.5,318C 411.332,318.944 421.332,322.277 430.5,328C 431.293,329.085 431.96,330.252 432.5,331.5C 426.421,332.085 420.421,332.918 414.5,334C 426.962,338.709 438.962,344.375 450.5,351C 452.684,353.016 454.684,355.183 456.5,357.5C 452.535,358.367 448.535,358.367 444.5,357.5C 444.491,359.308 444.991,360.975 446,362.5C 454.289,371.243 460.122,381.409 463.5,393C 463.739,395.259 462.739,396.426 460.5,396.5C 457.893,395.863 455.56,394.696 453.5,393C 452.056,392.219 450.723,392.386 449.5,393.5C 465.325,420.458 471.491,449.458 468,480.5C 467.519,486.66 464.353,489.494 458.5,489C 454.18,482.193 450.513,475.026 447.5,467.5C 446.24,466.618 445.074,465.618 444,464.5C 445.217,485.531 439.884,504.865 428,522.5C 420.689,534.288 412.522,545.454 403.5,556C 401.254,557.039 399.087,558.206 397,559.5C 394.425,548.63 392.092,537.63 390,526.5C 389.688,521.509 387.188,519.675 382.5,521C 379.833,525 376.5,528.333 372.5,531C 349.316,542.673 324.982,550.839 299.5,555.5C 289.746,552.049 279.746,549.549 269.5,548C 253.172,543.5 237.838,536.833 223.5,528C 220.94,525.029 218.273,522.196 215.5,519.5C 211.902,519.931 209.735,521.931 209,525.5C 206.619,536.455 204.452,547.455 202.5,558.5C 200.833,557.667 199.167,556.833 197.5,556C 193.355,552.185 189.522,548.019 186,543.5C 178.165,531.834 170.831,519.834 164,507.5C 157.865,494.494 155.199,480.827 156,466.5C 156.374,465.584 156.874,464.75 157.5,464C 155.544,464.222 153.71,465.055 152,466.5C 149,472.833 146,479.167 143,485.5C 138.57,491.143 135.236,490.476 133,483.5C 127.694,451.382 133.527,421.382 150.5,393.5C 149.5,393.167 148.5,392.833 147.5,392.5C 144.108,394.354 140.441,395.354 136.5,395.5C 136.479,390.062 137.979,385.062 141,380.5C 145.34,373.152 150.173,366.152 155.5,359.5C 154.652,358.009 153.319,357.342 151.5,357.5C 148.459,358.513 145.459,358.513 142.5,357.5C 145.404,353.428 149.071,350.261 153.5,348C 163.715,343.059 174.048,338.392 184.5,334C 179.019,332.551 173.352,332.051 167.5,332.5C 167.744,329.737 169.077,327.571 171.5,326C 179.381,321.929 187.714,319.262 196.5,318C 206.342,317.83 216.009,317.33 225.5,316.5 Z"/></g>
<g><path style="opacity:1" fill="#151414" d="M 320.5,349.5 C 319.952,357.127 323.285,362.294 330.5,365C 337.388,370.997 339.888,378.497 338,387.5C 331.336,406.086 318.169,416.419 298.5,418.5C 286.108,416.886 275.941,411.219 268,401.5C 260.705,391.035 259.705,380.035 265,368.5C 269.185,365.405 273.185,362.072 277,358.5C 278.149,355.607 278.649,352.607 278.5,349.5C 292.5,346.833 306.5,346.833 320.5,349.5 Z"/></g>
</svg>
