<?xml version="1.0" encoding="UTF-8"?>
<!DOCTYPE svg PUBLIC "-//W3C//DTD SVG 1.1//EN" "http://www.w3.org/Graphics/SVG/1.1/DTD/svg11.dtd">
<svg xmlns="http://www.w3.org/2000/svg" version="1.1" width="600px" height="600px" style="shape-rendering:geometricPrecision; text-rendering:geometricPrecision; image-rendering:optimizeQuality; fill-rule:evenodd; clip-rule:evenodd" xmlns:xlink="http://www.w3.org/1999/xlink">
<g><path style="opacity:0.966" fill="#020202" d="M 599.5,409.5 C 599.5,445.5 599.5,481.5 599.5,517.5C 582.247,560.221 550.58,584.388 504.5,590C 477.81,591.795 452.477,586.795 428.5,575C 401.248,556.984 390.582,531.817 396.5,499.5C 379.725,507.572 363.058,507.238 346.5,498.5C 315.187,506.45 283.854,506.45 252.5,498.5C 243.825,501.919 234.825,503.919 225.5,504.5C 216.653,504.495 208.487,502.162 201,497.5C 208.329,541.354 190.829,569.854 148.5,583C 107.895,595.962 70.2285,590.295 35.5,566C 17.7236,552.402 5.72363,534.902 -0.5,513.5C -0.5,480.5 -0.5,447.5 -0.5,414.5C 8.27043,386.692 17.7704,359.025 28,331.5C 32.5675,306.662 37.9009,281.995 44,257.5C 54.4743,235.884 65.4743,214.551 77,193.5C 85.1526,168.559 93.1526,143.559 101,118.5C 111.842,93.3124 127.675,71.8124 148.5,54C 162.873,42.6506 179.206,35.9839 197.5,34C 229.414,17.514 263.414,9.3473 299.5,9.5C 328.428,9.71919 356.428,14.8859 383.5,25C 389.779,27.4728 395.779,30.4728 401.5,34C 419.794,35.9839 436.127,42.6506 450.5,54C 475.936,75.6848 493.77,102.518 504,134.5C 509.049,153.363 514.715,172.029 521,190.5C 532.015,211.865 543.015,233.198 554,254.5C 560.608,278.207 565.942,302.207 570,326.5C 580.357,354.075 590.19,381.742 599.5,409.5 Z"/></g>
<g><path style="opacity:1" fill="#4b4848" d="M 401.5,44.5 C 443.077,72.6177 465.91,111.951 470,162.5C 471.219,189.639 468.219,216.305 461,242.5C 451.235,273.801 439.902,304.467 427,334.5C 424.723,340.332 423.056,346.332 422,352.5C 420.568,356.377 418.402,359.711 415.5,362.5C 413.7,353.482 411.533,344.482 409,335.5C 403.724,320.953 397.391,306.953 390,293.5C 383.333,282.833 376.667,272.167 370,261.5C 368.333,259.833 366.667,258.167 365,256.5C 361.815,249.977 357.815,243.977 353,238.5C 350,232.833 347,227.167 344,221.5C 332.56,206.846 327.893,190.18 330,171.5C 332.137,145.378 335.137,119.378 339,93.5C 340.106,79.9671 339.44,66.6338 337,53.5C 333.812,45.2935 328.645,38.4602 321.5,33C 305.798,27.0307 290.465,27.6974 275.5,35C 268.13,41.7824 262.963,49.949 260,59.5C 259.333,70.1667 259.333,80.8333 260,91.5C 262.999,116.498 265.999,141.498 269,166.5C 270.104,177.382 269.438,188.049 267,198.5C 263.083,207.405 258.749,216.072 254,224.5C 231.124,255.72 211.124,288.72 194,323.5C 192.605,329.096 190.605,334.429 188,339.5C 186.391,346.825 184.891,354.159 183.5,361.5C 166.494,323.461 151.661,284.461 139,244.5C 126.509,205.409 125.509,166.075 136,126.5C 146.944,91.7584 167.444,64.4251 197.5,44.5C 236.112,24.8395 277.112,17.0062 320.5,21C 349.072,23.7231 376.072,31.5564 401.5,44.5 Z"/></g>
<g><path style="opacity:1" fill="#f5f5f5" d="M 320.5,162.5 C 319.341,173.659 319.174,184.992 320,196.5C 320.156,199.191 320.989,201.524 322.5,203.5C 325.751,215.671 330.918,227.004 338,237.5C 338.759,239.063 339.926,240.063 341.5,240.5C 342.044,242.58 342.878,244.58 344,246.5C 356.48,265.17 368.646,283.837 380.5,302.5C 381.742,306.655 383.742,310.322 386.5,313.5C 386.328,314.492 386.662,315.158 387.5,315.5C 388.042,318.912 389.375,321.912 391.5,324.5C 395.188,333.909 398.854,343.242 402.5,352.5C 403.646,356.754 404.313,361.087 404.5,365.5C 404.646,369.387 405.313,373.054 406.5,376.5C 408.427,401.742 408.927,427.076 408,452.5C 408.438,466.87 403.605,479.036 393.5,489C 385.448,493.846 376.781,495.513 367.5,494C 360.496,492.654 353.83,490.487 347.5,487.5C 340.166,482.875 332.499,478.708 324.5,475C 323.934,474.005 323.267,473.172 322.5,472.5C 306.839,464.501 291.172,464.501 275.5,472.5C 267.297,477.766 258.963,482.766 250.5,487.5C 245.485,489.228 240.485,491.061 235.5,493C 212.111,497.066 197.944,487.566 193,464.5C 190.053,436.208 189.72,407.875 192,379.5C 194.366,355.403 201.366,332.736 213,311.5C 229.667,282.825 247.333,254.825 266,227.5C 277.968,206.7 282.301,184.367 279,160.5C 275.247,132.725 272.081,104.892 269.5,77C 269.348,64.4456 273.681,53.7789 282.5,45C 301.126,34.7268 315.626,38.8934 326,57.5C 329.276,68.2728 330.276,79.2728 329,90.5C 325.402,114.417 322.569,138.417 320.5,162.5 Z"/></g>
<g><path style="opacity:1" fill="#3d3938" d="M 197.5,44.5 C 167.444,64.4251 146.944,91.7584 136,126.5C 125.509,166.075 126.509,205.409 139,244.5C 151.661,284.461 166.494,323.461 183.5,361.5C 181.238,385.744 179.905,410.078 179.5,434.5C 181.927,458.063 185.76,481.396 191,504.5C 195.493,540.348 180.327,563.181 145.5,573C 98.5055,587.659 58.3388,577.159 25,541.5C 7.04592,512.411 0.0459237,480.745 4,446.5C 5.89825,433.676 8.56491,421.009 12,408.5C 20.0545,384.727 28.3878,361.06 37,337.5C 41.7432,313.784 46.7432,290.118 52,266.5C 53.1365,262.757 54.4698,259.09 56,255.5C 66.3333,235.833 76.6667,216.167 87,196.5C 94.7966,171.443 102.797,146.443 111,121.5C 123.898,89.8445 145.398,66.0112 175.5,50C 182.557,47.036 189.891,45.2027 197.5,44.5 Z"/></g>
<g><path style="opacity:1" fill="#3d3938" d="M 401.5,44.5 C 418.931,46.7173 434.264,53.5507 447.5,65C 472.016,87.1822 488.516,114.349 497,146.5C 500.893,162.407 505.56,178.073 511,193.5C 522.938,216.375 534.604,239.375 546,262.5C 551.184,285.443 556.184,308.443 561,331.5C 569.466,356.564 578.133,381.564 587,406.5C 598.748,442 599.414,477.667 589,513.5C 574.011,552.138 545.844,573.971 504.5,579C 475.905,581.552 449.572,575.219 425.5,560C 410.239,546.224 404.072,529.058 407,508.5C 409.999,495.172 412.999,481.838 416,468.5C 419.159,446.939 420.159,425.272 419,403.5C 418.045,389.811 416.878,376.145 415.5,362.5C 418.402,359.711 420.568,356.377 422,352.5C 423.056,346.332 424.723,340.332 427,334.5C 439.902,304.467 451.235,273.801 461,242.5C 468.219,216.305 471.219,189.639 470,162.5C 465.91,111.951 443.077,72.6177 401.5,44.5 Z"/></g>
<g><path style="opacity:1" fill="#010101" d="M 212.5,139.5 C 235.106,138.94 246.273,149.94 246,172.5C 240.234,193.135 227.067,200.301 206.5,194C 190.621,183.009 187.121,168.842 196,151.5C 200.256,145.737 205.756,141.737 212.5,139.5 Z"/></g>
<g><path style="opacity:1" fill="#010101" d="M 374.5,139.5 C 395.766,138.599 407.099,148.766 408.5,170C 405.225,189.281 393.892,197.948 374.5,196C 359.825,191.156 352.658,180.99 353,165.5C 354.778,152.229 361.945,143.562 374.5,139.5 Z"/></g>
<g><path style="opacity:1" fill="#f1f1f1" d="M 386.5,150.5 C 393.685,150.848 396.519,154.515 395,161.5C 392.487,165.212 388.987,166.378 384.5,165C 378.962,159.319 379.628,154.485 386.5,150.5 Z"/></g>
<g><path style="opacity:1" fill="#f1f1f1" d="M 223.5,152.5 C 230.799,151.371 233.965,154.371 233,161.5C 228.155,167.079 223.822,166.746 220,160.5C 219.796,157.24 220.963,154.573 223.5,152.5 Z"/></g>
<g><path style="opacity:1" fill="#414040" d="M 320.5,162.5 C 320.161,176.237 320.828,189.904 322.5,203.5C 320.989,201.524 320.156,199.191 320,196.5C 319.174,184.992 319.341,173.659 320.5,162.5 Z"/></g>
<g><path style="opacity:1" fill="#373636" d="M 322.5,203.5 C 326.352,211.534 330.519,219.534 335,227.5C 335.49,228.793 335.657,230.127 335.5,231.5C 336.5,231.5 337.5,231.5 338.5,231.5C 338.34,233.199 338.506,234.866 339,236.5C 340.706,237.308 341.539,238.641 341.5,240.5C 339.926,240.063 338.759,239.063 338,237.5C 330.918,227.004 325.751,215.671 322.5,203.5 Z"/></g>
<g><path style="opacity:1" fill="#c0c1c1" d="M 312.5,243.5 C 316.224,243.05 318.391,244.717 319,248.5C 319.667,252.833 319.667,257.167 319,261.5C 315.4,264.354 312.4,263.687 310,259.5C 308.833,253.789 309.667,248.456 312.5,243.5 Z"/></g>
<g><path style="opacity:1" fill="#464545" d="M 380.5,302.5 C 381.15,302.804 381.817,303.137 382.5,303.5C 383.803,306.616 385.47,309.449 387.5,312C 386.944,312.383 386.611,312.883 386.5,313.5C 383.742,310.322 381.742,306.655 380.5,302.5 Z"/></g>
<g><path style="opacity:1" fill="#484747" d="M 387.5,315.5 C 390.133,317.777 391.466,320.777 391.5,324.5C 389.375,321.912 388.042,318.912 387.5,315.5 Z"/></g>
<g><path style="opacity:1" fill="#373636" d="M 391.5,324.5 C 392.15,324.804 392.817,325.137 393.5,325.5C 397.95,334.056 400.95,343.056 402.5,352.5C 398.854,343.242 395.188,333.909 391.5,324.5 Z"/></g>
<g><path style="opacity:1" fill="#c0c1c1" d="M 219.5,344.5 C 225.356,344.854 227.523,347.854 226,353.5C 223.079,358.341 220.412,363.341 218,368.5C 215.333,373.833 212.667,373.833 210,368.5C 208.992,358.848 212.159,350.848 219.5,344.5 Z"/></g>
<g><path style="opacity:1" fill="#010101" d="M 285.5,347.5 C 300.647,346.872 315.647,348.039 330.5,351C 353.972,359.114 361.472,374.948 353,398.5C 343.007,414.131 328.841,423.964 310.5,428C 288.142,430.322 269.308,423.155 254,406.5C 244.322,393.315 242.988,379.315 250,364.5C 259.828,354.509 271.662,348.842 285.5,347.5 Z"/></g>
<g><path style="opacity:1" fill="#bec0bf" d="M 362.5,350.5 C 369.784,353.519 374.117,359.019 375.5,367C 374.458,372.126 371.958,373.292 368,370.5C 365.089,365.178 362.589,359.678 360.5,354C 360.978,352.697 361.645,351.531 362.5,350.5 Z"/></g>
<g><path style="opacity:1" fill="#757575" d="M 404.5,365.5 C 406.082,368.876 406.749,372.542 406.5,376.5C 405.313,373.054 404.646,369.387 404.5,365.5 Z"/></g>
<g><path style="opacity:1" fill="#b4b6b5" d="M 373.5,405.5 C 377.273,404.822 380.106,406.156 382,409.5C 386.218,415.699 387.218,422.366 385,429.5C 382.645,434.557 379.645,435.224 376,431.5C 371.403,423.094 370.569,414.427 373.5,405.5 Z"/></g>
<g><path style="opacity:1" fill="#c0c1c1" d="M 232.5,420.5 C 235.972,419.963 238.805,420.963 241,423.5C 243,428.5 243,433.5 241,438.5C 238.368,441.192 236.034,440.859 234,437.5C 230.149,432.029 229.649,426.362 232.5,420.5 Z"/></g>
<g><path style="opacity:1" fill="#b4b6b5" d="M 343.5,424.5 C 351.332,424.858 353.499,428.525 350,435.5C 348.182,438 345.848,439.666 343,440.5C 339.693,439.752 338.193,437.585 338.5,434C 338.744,430.01 340.41,426.843 343.5,424.5 Z"/></g>
<g><path style="opacity:1" fill="#322b29" d="M 322.5,472.5 C 321.048,473.302 319.382,473.802 317.5,474C 311.667,474.167 305.833,474.333 300,474.5C 291.608,474.702 283.441,474.035 275.5,472.5C 291.172,464.501 306.839,464.501 322.5,472.5 Z"/></g>
<g><path style="opacity:1" fill="#bbbcbc" d="M 275.5,472.5 C 283.441,474.035 291.608,474.702 300,474.5C 305.833,474.333 311.667,474.167 317.5,474C 319.382,473.802 321.048,473.302 322.5,472.5C 323.267,473.172 323.934,474.005 324.5,475C 332.499,478.708 340.166,482.875 347.5,487.5C 315.294,495.472 282.96,495.472 250.5,487.5C 258.963,482.766 267.297,477.766 275.5,472.5 Z"/></g>
</svg>
