<?xml version="1.0" encoding="UTF-8"?>
<!DOCTYPE svg PUBLIC "-//W3C//DTD SVG 1.1//EN" "http://www.w3.org/Graphics/SVG/1.1/DTD/svg11.dtd">
<svg xmlns="http://www.w3.org/2000/svg" version="1.1" width="600px" height="600px" style="shape-rendering:geometricPrecision; text-rendering:geometricPrecision; image-rendering:optimizeQuality; fill-rule:evenodd; clip-rule:evenodd" xmlns:xlink="http://www.w3.org/1999/xlink">
<g><path style="opacity:0.969" fill="#020100" d="M 599.5,187.5 C 599.5,217.833 599.5,248.167 599.5,278.5C 594.673,302.117 587.506,325.117 578,347.5C 570.262,363.149 560.429,377.316 548.5,390C 538.854,398.829 527.854,401.162 515.5,397C 493.903,389.071 478.403,374.571 469,353.5C 460.201,378.898 451.201,404.231 442,429.5C 437.026,448.01 432.692,466.677 429,485.5C 425.684,498.309 419.184,509.142 409.5,518C 396.823,525.814 383.656,526.981 370,521.5C 366.823,531.869 363.49,542.203 360,552.5C 353.018,568.149 341.518,578.982 325.5,585C 299.4,593.915 275.4,589.915 253.5,573C 247.305,566.783 242.471,559.617 239,551.5C 236.051,541.319 232.718,531.319 229,521.5C 202.338,528.669 184.005,519.336 174,493.5C 168.799,473.959 164.132,454.292 160,434.5C 150.996,407.498 141.162,380.832 130.5,354.5C 118.687,378.98 99.5202,393.98 73,399.5C 68.3604,398.882 63.8604,397.715 59.5,396C 46.4744,386.978 36.3077,375.478 29,361.5C 20.1371,346.438 13.4704,330.438 9,313.5C 5.64658,301.083 2.47991,288.75 -0.5,276.5C -0.5,247.167 -0.5,217.833 -0.5,188.5C 6.8595,178.631 15.1928,169.465 24.5,161C 46.0359,139.787 69.0359,120.453 93.5,103C 115.63,88.599 138.964,76.2656 163.5,66C 189.765,46.879 219.099,34.879 251.5,30C 294.34,23.5287 336.673,25.862 378.5,37C 400.673,43.9194 421.007,54.2527 439.5,68C 474.706,81.9231 506.706,100.923 535.5,125C 558.332,144.332 579.665,165.165 599.5,187.5 Z"/></g>
<g><path style="opacity:1" fill="#b88124" d="M 426.5,72.5 C 426.369,73.2389 426.536,73.9056 427,74.5C 440.176,84.1937 450.009,96.5271 456.5,111.5C 458.267,113.792 459.267,116.458 459.5,119.5C 460.387,124.722 461.721,129.722 463.5,134.5C 465.935,142.527 467.268,150.86 467.5,159.5C 468.222,182.159 468.555,204.826 468.5,227.5C 465.562,255.316 465.062,283.316 467,311.5C 467.278,312.416 467.778,313.082 468.5,313.5C 469.629,315.628 469.796,317.961 469,320.5C 455.871,358.886 442.538,397.22 429,435.5C 425.411,450.777 422.078,466.11 419,481.5C 411.044,511.894 392.544,521.061 363.5,509C 365.351,507.316 367.018,505.483 368.5,503.5C 351.75,501.291 336.75,494.958 323.5,484.5C 320.753,481.793 317.42,480.127 313.5,479.5C 305.553,477.158 297.553,476.992 289.5,479C 279.472,483.216 269.805,488.05 260.5,493.5C 257.008,494.41 254.008,496.076 251.5,498.5C 244.766,501.099 237.766,502.599 230.5,503C 232,504.5 233.5,506 235,507.5C 235.617,508.449 235.451,509.282 234.5,510C 224.034,513.675 213.367,514.342 202.5,512C 196.774,509.608 192.274,505.774 189,500.5C 185.02,493.558 182.02,486.224 180,478.5C 177.457,462.662 174.124,446.995 170,431.5C 156.522,394.892 143.356,358.225 130.5,321.5C 129.207,319.364 129.207,317.364 130.5,315.5C 131.117,315.389 131.617,315.056 132,314.5C 135.143,290.343 134.976,266.343 131.5,242.5C 131.5,241.833 131.5,241.167 131.5,240.5C 131.333,217.164 131.5,193.831 132,170.5C 133.004,159.135 134.171,147.802 135.5,136.5C 136.318,129.058 138.318,122.058 141.5,115.5C 145.115,107.607 149.282,99.9406 154,92.5C 159.698,85.6359 165.865,79.3026 172.5,73.5C 196.359,55.2523 223.359,44.0857 253.5,40C 292.476,35.3384 331.143,37.0051 369.5,45C 390.411,50.4571 409.411,59.6237 426.5,72.5 Z"/></g>
<g><path style="opacity:1" fill="#784d1b" d="M 172.5,73.5 C 165.865,79.3026 159.698,85.6359 154,92.5C 149.282,99.9406 145.115,107.607 141.5,115.5C 146.524,97.4905 156.857,83.4905 172.5,73.5 Z"/></g>
<g><path style="opacity:1" fill="#80521d" d="M 142.5,86.5 C 143.043,86.56 143.376,86.8933 143.5,87.5C 129.87,110.566 122.37,135.566 121,162.5C 119.34,203.203 120.173,243.87 123.5,284.5C 122.99,295.768 121.657,306.934 119.5,318C 120.336,323.85 122.169,329.35 125,334.5C 125.667,336.167 125.667,337.833 125,339.5C 120.064,355.088 111.23,367.922 98.5,378C 89.4605,385.507 79.1272,388.84 67.5,388C 58.4361,383.603 51.2694,377.103 46,368.5C 37.1071,355.383 29.7738,341.383 24,326.5C 10.4936,287.286 3.49358,246.953 3,205.5C 5.39033,198.381 9.057,192.047 14,186.5C 41.0942,158.391 70.2609,132.891 101.5,110C 114.903,101.634 128.57,93.8006 142.5,86.5 Z"/></g>
<g><path style="opacity:1" fill="#784e1b" d="M 426.5,72.5 C 441.002,82.0058 451.002,95.0058 456.5,111.5C 450.009,96.5271 440.176,84.1937 427,74.5C 426.536,73.9056 426.369,73.2389 426.5,72.5 Z"/></g>
<g><path style="opacity:1" fill="#80521d" d="M 455.5,86.5 C 481.301,98.8958 505.301,114.062 527.5,132C 549.656,150.823 570.489,170.989 590,192.5C 592.254,196.007 594.254,199.673 596,203.5C 596.045,245.233 589.378,285.9 576,325.5C 567.989,347.708 555.823,367.208 539.5,384C 532.706,388.65 525.372,389.65 517.5,387C 496.386,377.884 482.219,362.384 475,340.5C 474.333,337.833 474.333,335.167 475,332.5C 477.217,327.016 478.717,321.349 479.5,315.5C 477.372,304.938 476.372,294.271 476.5,283.5C 479.045,245.536 479.878,207.536 479,169.5C 478.127,146.678 473.46,124.678 465,103.5C 462.316,97.4557 459.149,91.7891 455.5,86.5 Z"/></g>
<g><path style="opacity:1" fill="#764c1b" d="M 459.5,119.5 C 461.905,124.112 463.238,129.112 463.5,134.5C 461.721,129.722 460.387,124.722 459.5,119.5 Z"/></g>
<g><path style="opacity:1" fill="#7a4f1b" d="M 467.5,159.5 C 469.025,172.632 469.692,185.965 469.5,199.5C 469.5,209.006 469.166,218.339 468.5,227.5C 468.555,204.826 468.222,182.159 467.5,159.5 Z"/></g>
<g><path style="opacity:1" fill="#87591d" d="M 135.5,136.5 C 134.171,147.802 133.004,159.135 132,170.5C 131.5,193.831 131.333,217.164 131.5,240.5C 128.701,211.971 128.867,183.305 132,154.5C 132.647,148.264 133.813,142.264 135.5,136.5 Z"/></g>
<g><path style="opacity:1" fill="#070605" d="M 206.5,193.5 C 215.274,192.952 223.274,195.119 230.5,200C 237.916,205.742 243.416,212.909 247,221.5C 247.995,224.126 248.328,226.793 248,229.5C 240.592,231.617 233.426,234.45 226.5,238C 217.225,240.747 207.892,241.08 198.5,239C 188.911,234.627 180.077,229.127 172,222.5C 171.333,221.167 171.333,219.833 172,218.5C 180.336,205.645 191.836,197.312 206.5,193.5 Z"/></g>
<g><path style="opacity:1" fill="#070605" d="M 383.5,193.5 C 402.5,193.919 417,202.252 427,218.5C 427.667,219.833 427.667,221.167 427,222.5C 418.123,230.523 407.957,236.357 396.5,240C 390.833,240.667 385.167,240.667 379.5,240C 370.377,236.936 361.377,233.602 352.5,230C 351.398,227.599 351.231,225.099 352,222.5C 357.978,207.68 368.478,198.014 383.5,193.5 Z"/></g>
<g><path style="opacity:1" fill="#2e2d2c" d="M 212.5,204.5 C 208.255,209.297 208.588,213.797 213.5,218C 220.216,219.142 223.549,216.309 223.5,209.5C 228.046,212.51 231.712,216.51 234.5,221.5C 224.336,229.353 213.003,231.52 200.5,228C 195.334,225.252 190.334,222.252 185.5,219C 192.605,210.45 201.605,205.617 212.5,204.5 Z"/></g>
<g><path style="opacity:1" fill="#f3f3f3" d="M 212.5,204.5 C 216.794,204.795 220.461,206.462 223.5,209.5C 223.549,216.309 220.216,219.142 213.5,218C 208.588,213.797 208.255,209.297 212.5,204.5 Z"/></g>
<g><path style="opacity:1" fill="#2f2d2c" d="M 394.5,205.5 C 386.878,208.652 386.545,212.818 393.5,218C 399.548,219.118 402.882,216.618 403.5,210.5C 407.254,212.748 410.588,215.581 413.5,219C 397.936,231.86 381.603,232.86 364.5,222C 368.967,214.197 375.3,208.53 383.5,205C 387.358,204.19 391.024,204.357 394.5,205.5 Z"/></g>
<g><path style="opacity:1" fill="#f4f4f4" d="M 394.5,205.5 C 397.992,206.41 400.992,208.076 403.5,210.5C 402.882,216.618 399.548,219.118 393.5,218C 386.545,212.818 386.878,208.652 394.5,205.5 Z"/></g>
<g><path style="opacity:1" fill="#7c501c" d="M 468.5,227.5 C 468.088,246.34 467.421,265.174 466.5,284C 466.431,293.894 467.097,303.727 468.5,313.5C 467.778,313.082 467.278,312.416 467,311.5C 465.062,283.316 465.562,255.316 468.5,227.5 Z"/></g>
<g><path style="opacity:1" fill="#80541c" d="M 131.5,242.5 C 134.976,266.343 135.143,290.343 132,314.5C 131.617,315.056 131.117,315.389 130.5,315.5C 132.06,305.398 133.06,295.231 133.5,285C 132.522,270.845 131.855,256.678 131.5,242.5 Z"/></g>
<g><path style="opacity:1" fill="#080604" d="M 261.5,430.5 C 260.089,428.086 258.089,426.419 255.5,425.5C 241.453,411.03 239.953,395.364 251,378.5C 264.859,367.617 280.692,362.95 298.5,364.5C 314.938,363.486 330.272,366.986 344.5,375C 356.912,388.071 358.745,402.571 350,418.5C 332.204,441.655 309.037,449.488 280.5,442C 273.47,439.159 267.137,435.326 261.5,430.5 Z"/></g>
<g><path style="opacity:1" fill="#2e2c2b" d="M 297.5,374.5 C 309.898,374.58 321.898,376.747 333.5,381C 344.368,387.422 347.535,396.588 343,408.5C 336.904,418.646 328.404,426.146 317.5,431C 306.633,436.402 295.633,436.735 284.5,432C 273.692,427.684 264.859,420.85 258,411.5C 250.962,393.153 257.128,381.653 276.5,377C 283.649,376.163 290.649,375.33 297.5,374.5 Z"/></g>
<g><path style="opacity:1" fill="#4f3a18" d="M 255.5,425.5 C 258.089,426.419 260.089,428.086 261.5,430.5C 258.911,429.581 256.911,427.914 255.5,425.5 Z"/></g>
<g><path style="opacity:1" fill="#9b6657" d="M 313.5,479.5 C 317.42,480.127 320.753,481.793 323.5,484.5C 319.849,483.341 316.515,481.674 313.5,479.5 Z"/></g>
<g><path style="opacity:1" fill="#f09c9f" d="M 346.5,508.5 C 347.517,527.616 342.184,544.783 330.5,560C 316.593,571.691 300.926,574.691 283.5,569C 277.171,566.335 271.671,562.502 267,557.5C 256.907,543.139 252.074,527.139 252.5,509.5C 264.395,503.549 276.062,497.049 287.5,490C 295.5,486.667 303.5,486.667 311.5,490C 321.5,495.667 331.5,501.333 341.5,507C 343.025,508.009 344.692,508.509 346.5,508.5 Z"/></g>
<g><path style="opacity:1" fill="#a06964" d="M 260.5,493.5 C 257.992,495.924 254.992,497.59 251.5,498.5C 254.008,496.076 257.008,494.41 260.5,493.5 Z"/></g>
<g><path style="opacity:1" fill="#2f2d2c" d="M 346.5,508.5 C 348.372,509.511 350.372,510.345 352.5,511C 353.396,515.128 355.729,518.128 359.5,520C 356.134,532.097 351.967,543.93 347,555.5C 332.779,573.246 314.279,581.079 291.5,579C 275.666,576.472 262.833,568.972 253,556.5C 247.839,544.684 243.673,532.518 240.5,520C 242.907,517.262 244.907,514.262 246.5,511C 248.518,510.495 250.518,509.995 252.5,509.5C 252.074,527.139 256.907,543.139 267,557.5C 271.671,562.502 277.171,566.335 283.5,569C 300.926,574.691 316.593,571.691 330.5,560C 342.184,544.783 347.517,527.616 346.5,508.5 Z"/></g>
</svg>
