<?xml version="1.0" encoding="UTF-8"?>
<!DOCTYPE svg PUBLIC "-//W3C//DTD SVG 1.1//EN" "http://www.w3.org/Graphics/SVG/1.1/DTD/svg11.dtd">
<svg xmlns="http://www.w3.org/2000/svg" version="1.1" width="600px" height="600px" style="shape-rendering:geometricPrecision; text-rendering:geometricPrecision; image-rendering:optimizeQuality; fill-rule:evenodd; clip-rule:evenodd" xmlns:xlink="http://www.w3.org/1999/xlink">
<g><path style="opacity:0.964" fill="#020202" d="M 599.5,409.5 C 599.5,444.5 599.5,479.5 599.5,514.5C 595.994,526.184 590.827,537.184 584,547.5C 553.278,582.815 514.778,596.315 468.5,588C 450.694,585.256 434.361,578.923 419.5,569C 398.984,550.119 391.484,526.952 397,499.5C 379.91,508.497 362.91,508.163 346,498.5C 314.882,506.469 283.715,506.469 252.5,498.5C 243.669,501.999 234.503,503.999 225,504.5C 215.74,504.604 207.406,501.937 200,496.5C 205.739,518.81 202.072,539.476 189,558.5C 179.568,569.135 168.068,576.635 154.5,581C 119.893,593.509 85.8929,592.176 52.5,577C 35.5252,568.028 21.6918,555.528 11,539.5C 6.46311,531.023 2.62978,522.356 -0.5,513.5C -0.5,480.5 -0.5,447.5 -0.5,414.5C 8.27043,386.692 17.7704,359.025 28,331.5C 32.6468,305.598 38.3135,279.932 45,254.5C 56.3181,232.531 67.6515,210.531 79,188.5C 86.0236,165.073 93.357,141.74 101,118.5C 113.64,88.3629 133.473,64.1963 160.5,46C 171.987,39.3932 184.32,35.3932 197.5,34C 237.802,13.6208 280.469,5.95409 325.5,11C 352.63,13.8646 378.297,21.5313 402.5,34C 420.381,36.2773 436.381,42.944 450.5,54C 475.936,75.6848 493.77,102.518 504,134.5C 509.049,153.363 514.715,172.029 521,190.5C 531.412,210.991 542.078,231.324 553,251.5C 555.31,258.075 557.31,264.742 559,271.5C 563.921,294.93 569.255,318.263 575,341.5C 584.09,363.944 592.257,386.611 599.5,409.5 Z"/></g>
<g><path style="opacity:1" fill="#3d3a39" d="M 400.5,44.5 C 436.501,67.1151 458.668,99.4484 467,141.5C 471.171,164.101 471.505,186.768 468,209.5C 464.281,232.644 458.114,254.977 449.5,276.5C 441.732,275.152 434.898,277.152 429,282.5C 425.788,287.087 422.955,291.92 420.5,297C 416.337,298.958 412.004,300.458 407.5,301.5C 398.899,299.366 390.899,295.866 383.5,291C 378.543,289.336 373.543,289.003 368.5,290C 357.023,283.443 344.69,278.776 331.5,276C 302.135,270.666 273.468,272.666 245.5,282C 238.243,285.6 231.243,289.6 224.5,294C 220.805,293.162 217.138,293.495 213.5,295C 206.049,299.761 198.049,303.261 189.5,305.5C 185.456,304.968 182.289,302.968 180,299.5C 176.221,293.388 172.055,287.555 167.5,282C 162.097,277.827 156.097,276.327 149.5,277.5C 137.129,245.341 130.129,212.008 128.5,177.5C 128.075,132.236 143.742,93.7363 175.5,62C 182.876,55.661 190.542,49.8276 198.5,44.5C 236.523,25.2305 276.856,17.3972 319.5,21C 348.14,23.4077 375.14,31.241 400.5,44.5 Z"/></g>
<g><path style="opacity:1" fill="#322e2d" d="M 198.5,44.5 C 190.542,49.8276 182.876,55.661 175.5,62C 143.742,93.7363 128.075,132.236 128.5,177.5C 130.129,212.008 137.129,245.341 149.5,277.5C 146.888,278.277 145.055,279.944 144,282.5C 143.333,285.833 143.333,289.167 144,292.5C 156.888,323.609 169.221,354.943 181,386.5C 181.425,401.856 180.925,417.189 179.5,432.5C 181.697,456.74 185.531,480.74 191,504.5C 195.335,540.827 179.835,563.661 144.5,573C 108.428,584.459 74.7618,579.792 43.5,559C 24.7412,544.994 12.9079,526.494 8,503.5C 2.03817,477.168 2.03817,450.835 8,424.5C 10.3915,413.659 13.3915,402.993 17,392.5C 24.2606,374.385 30.9272,356.052 37,337.5C 41.4737,317.937 45.4737,298.271 49,278.5C 50.5336,271.365 52.5336,264.365 55,257.5C 66.3485,235.469 77.6819,213.469 89,191.5C 94.7382,173.619 100.072,155.619 105,137.5C 114.498,107.312 131.331,82.1451 155.5,62C 168.014,51.7712 182.348,45.9378 198.5,44.5 Z"/></g>
<g><path style="opacity:1" fill="#322e2d" d="M 400.5,44.5 C 415.956,46.3726 429.956,51.8726 442.5,61C 465.531,79.8874 482.031,103.387 492,131.5C 498.026,152.271 504.359,172.937 511,193.5C 518.569,209.642 526.903,225.309 536,240.5C 539.721,247.665 543.054,254.998 546,262.5C 551.574,287.855 557.241,313.188 563,338.5C 568.715,354.932 574.715,371.265 581,387.5C 592.46,416.794 597.46,447.128 596,478.5C 594.064,501.265 587.064,522.265 575,541.5C 546.396,573.537 510.896,585.37 468.5,577C 455.869,574.844 443.869,570.844 432.5,565C 410.425,549.796 402.258,528.963 408,502.5C 411.13,489.846 414.13,477.179 417,464.5C 418.321,438.833 418.655,413.166 418,387.5C 429.823,355.872 442.156,324.539 455,293.5C 458.221,286.04 456.388,280.374 449.5,276.5C 458.114,254.977 464.281,232.644 468,209.5C 471.505,186.768 471.171,164.101 467,141.5C 458.668,99.4484 436.501,67.1151 400.5,44.5 Z"/></g>
<g><path style="opacity:1" fill="#b58c64" d="M 210.5,133.5 C 226.344,131.245 240.677,134.745 253.5,144C 262.143,157.054 259.476,167.387 245.5,175C 242.167,175.667 238.833,175.667 235.5,175C 221.672,167.587 208.005,159.92 194.5,152C 192.092,148.957 191.926,145.791 194,142.5C 198.813,138.077 204.313,135.077 210.5,133.5 Z"/></g>
<g><path style="opacity:1" fill="#b58c64" d="M 368.5,133.5 C 376.893,133.17 385.227,133.67 393.5,135C 411.833,142.315 412.166,150.315 394.5,159C 383.076,165.379 371.409,171.212 359.5,176.5C 346.74,172.97 340.906,164.637 342,151.5C 343.738,147.759 346.238,144.592 349.5,142C 355.453,138.081 361.786,135.248 368.5,133.5 Z"/></g>
<g><path style="opacity:1" fill="#010101" d="M 211.5,183.5 C 235.74,182.02 247.24,193.353 246,217.5C 239.834,236.503 227.001,243.336 207.5,238C 192.882,229.407 188.049,216.907 193,200.5C 196.833,192.162 203,186.495 211.5,183.5 Z"/></g>
<g><path style="opacity:1" fill="#000000" d="M 373.5,183.5 C 397.488,182.322 408.988,193.655 408,217.5C 405.693,227.352 399.86,233.852 390.5,237C 369.493,241.475 357.16,232.975 353.5,211.5C 353.602,197.408 360.269,188.075 373.5,183.5 Z"/></g>
<g><path style="opacity:1" fill="#f0f0f0" d="M 384.5,194.5 C 393.33,193.162 396.83,196.829 395,205.5C 388.28,211.401 383.446,210.067 380.5,201.5C 381.071,198.687 382.404,196.354 384.5,194.5 Z"/></g>
<g><path style="opacity:1" fill="#f1f1f1" d="M 223.5,195.5 C 230.164,195 233.331,198 233,204.5C 230.947,208.292 227.781,209.458 223.5,208C 219.536,203.88 219.536,199.714 223.5,195.5 Z"/></g>
<g><path style="opacity:1" fill="#fceadb" d="M 386.5,321.5 C 392.317,330.135 396.817,339.468 400,349.5C 402.819,362.054 404.986,374.721 406.5,387.5C 407.339,397.81 407.672,408.143 407.5,418.5C 402.626,416.632 398.96,413.299 396.5,408.5C 392.565,406.069 389.065,403.069 386,399.5C 383.044,395.372 379.877,391.372 376.5,387.5C 368.408,380.066 360.408,372.733 352.5,365.5C 348.921,360.428 344.254,356.595 338.5,354C 318.97,347.385 298.97,345.719 278.5,349C 246.941,356.283 238.107,374.45 252,403.5C 255.364,408.029 259.197,412.029 263.5,415.5C 278.746,432.248 294.579,448.581 311,464.5C 311.188,466.061 310.355,466.728 308.5,466.5C 296.462,464.262 285.462,466.595 275.5,473.5C 272.669,474.079 270.336,475.412 268.5,477.5C 260.107,483.021 251.107,487.521 241.5,491C 209.187,499.054 192.687,486.221 192,452.5C 191.272,430.488 191.439,408.488 192.5,386.5C 194.303,373.045 196.803,359.712 200,346.5C 203.55,337.805 207.716,329.471 212.5,321.5C 234.93,296.127 263.263,283.46 297.5,283.5C 324.717,282.966 349.384,290.466 371.5,306C 376.731,311.062 381.731,316.229 386.5,321.5 Z"/></g>
<g><path style="opacity:1" fill="#b58c64" d="M 212.5,321.5 C 207.716,329.471 203.55,337.805 200,346.5C 196.803,359.712 194.303,373.045 192.5,386.5C 179.919,353.774 166.919,321.107 153.5,288.5C 155.187,287.432 156.854,287.599 158.5,289C 164.1,294.369 168.6,300.535 172,307.5C 179.288,315.539 188.121,317.705 198.5,314C 206.426,310.861 214.092,307.528 221.5,304C 217.836,309.495 214.836,315.329 212.5,321.5 Z"/></g>
<g><path style="opacity:1" fill="#a5825c" d="M 406.5,387.5 C 404.986,374.721 402.819,362.054 400,349.5C 396.817,339.468 392.317,330.135 386.5,321.5C 383.429,313.993 380.263,306.659 377,299.5C 392.583,311.961 409.416,314.127 427.5,306C 431.167,300.333 434.833,294.667 438.5,289C 440.914,287.115 443.581,286.448 446.5,287C 439.176,300.828 433.342,315.328 429,330.5C 421.446,349.589 413.946,368.589 406.5,387.5 Z"/></g>
<g><path style="opacity:1" fill="#c4b6aa" d="M 219.5,345.5 C 225.178,345.157 227.344,347.824 226,353.5C 223.807,360.212 220.307,366.212 215.5,371.5C 213.955,372.452 212.288,372.785 210.5,372.5C 209.632,368.192 209.466,363.859 210,359.5C 211.387,355.725 213.054,352.058 215,348.5C 216.409,347.219 217.909,346.219 219.5,345.5 Z"/></g>
<g><path style="opacity:1" fill="#010101" d="M 352.5,365.5 C 358.833,379.982 357.333,393.649 348,406.5C 322.245,433.491 294.079,436.491 263.5,415.5C 259.197,412.029 255.364,408.029 252,403.5C 238.107,374.45 246.941,356.283 278.5,349C 298.97,345.719 318.97,347.385 338.5,354C 344.254,356.595 348.921,360.428 352.5,365.5 Z"/></g>
<g><path style="opacity:1" fill="#c4b5aa" d="M 360.5,349.5 C 365.347,348.84 369.181,350.507 372,354.5C 376.21,359.719 377.377,365.552 375.5,372C 373.635,373.301 371.635,373.635 369.5,373C 363.561,366.29 360.561,358.456 360.5,349.5 Z"/></g>
<g><path style="opacity:1" fill="#f0ded0" d="M 352.5,365.5 C 360.408,372.733 368.408,380.066 376.5,387.5C 379.877,391.372 383.044,395.372 386,399.5C 389.065,403.069 392.565,406.069 396.5,408.5C 398.96,413.299 402.626,416.632 407.5,418.5C 407.79,433.862 407.29,449.196 406,464.5C 402.269,485.572 389.769,495.405 368.5,494C 361.42,492.917 354.753,490.751 348.5,487.5C 346.819,485.992 344.819,484.992 342.5,484.5C 331.98,476.907 320.647,470.907 308.5,466.5C 310.355,466.728 311.188,466.061 311,464.5C 294.579,448.581 278.746,432.248 263.5,415.5C 294.079,436.491 322.245,433.491 348,406.5C 357.333,393.649 358.833,379.982 352.5,365.5 Z"/></g>
<g><path style="opacity:1" fill="#b9aba1" d="M 372.5,405.5 C 378.859,404.932 383.359,407.599 386,413.5C 388.14,420.29 387.807,426.956 385,433.5C 382.36,435.524 379.527,435.857 376.5,434.5C 371.821,425.418 370.488,415.751 372.5,405.5 Z"/></g>
<g><path style="opacity:1" fill="#c6b7ac" d="M 231.5,420.5 C 235.219,419.772 238.219,420.772 240.5,423.5C 242.654,428.729 242.987,434.062 241.5,439.5C 236.867,440.542 233.701,438.875 232,434.5C 229.05,429.853 228.883,425.187 231.5,420.5 Z"/></g>
<g><path style="opacity:1" fill="#b8aa9f" d="M 341.5,425.5 C 344.518,425.335 347.518,425.502 350.5,426C 352.65,428.555 352.983,431.388 351.5,434.5C 348.949,440.176 344.782,441.842 339,439.5C 337.806,434.369 338.639,429.702 341.5,425.5 Z"/></g>
<g><path style="opacity:1" fill="#65503d" d="M 275.5,473.5 C 273.664,475.588 271.331,476.921 268.5,477.5C 270.336,475.412 272.669,474.079 275.5,473.5 Z"/></g>
<g><path style="opacity:1" fill="#a17e59" d="M 298.5,475.5 C 310.344,478.255 321.01,483.422 330.5,491C 326.954,492.174 323.287,492.84 319.5,493C 302.419,494.079 285.419,493.412 268.5,491C 278.004,484.611 288.004,479.444 298.5,475.5 Z"/></g>
<g><path style="opacity:1" fill="#6b5744" d="M 342.5,484.5 C 344.819,484.992 346.819,485.992 348.5,487.5C 345.911,487.539 343.911,486.539 342.5,484.5 Z"/></g>
</svg>
