<?xml version="1.0" encoding="UTF-8"?>
<!DOCTYPE svg PUBLIC "-//W3C//DTD SVG 1.1//EN" "http://www.w3.org/Graphics/SVG/1.1/DTD/svg11.dtd">
<svg xmlns="http://www.w3.org/2000/svg" version="1.1" width="600px" height="600px" style="shape-rendering:geometricPrecision; text-rendering:geometricPrecision; image-rendering:optimizeQuality; fill-rule:evenodd; clip-rule:evenodd" xmlns:xlink="http://www.w3.org/1999/xlink">
<g><path style="opacity:0.966" fill="#020202" d="M 599.5,261.5 C 599.5,271.833 599.5,282.167 599.5,292.5C 595.493,295.086 591.16,295.919 586.5,295C 590.98,303.441 593.646,312.441 594.5,322C 592.888,331.947 590.722,341.781 588,351.5C 583.721,364.002 580.054,376.669 577,389.5C 574.587,394.974 570.587,397.308 565,396.5C 567.418,407.003 563.584,414.003 553.5,417.5C 556.028,427.25 558.861,436.917 562,446.5C 563.491,461.347 556.991,467.513 542.5,465C 539.751,463.877 537.251,462.377 535,460.5C 531.995,466.42 527.162,469.42 520.5,469.5C 497.735,465.616 477.735,456.116 460.5,441C 451.277,432.054 444.444,421.554 440,409.5C 429.769,435.528 419.935,461.695 410.5,488C 410.089,514.487 399.089,535.487 377.5,551C 366.169,557.375 354.002,560.875 341,561.5C 326.696,560.006 312.529,557.673 298.5,554.5C 286.671,555.968 274.671,557.802 262.5,560C 230.663,561.456 207.829,547.956 194,519.5C 189.413,506.898 186.746,493.898 186,480.5C 177.383,456.644 168.383,432.977 159,409.5C 152.975,425.859 142.808,439.026 128.5,449C 113.359,459.439 96.6924,466.272 78.5,469.5C 71.8379,469.42 67.0045,466.42 64,460.5C 57.4926,466.258 50.326,467.425 42.5,464C 38.4111,460.667 36.4111,456.334 36.5,451C 39.5779,439.855 42.5779,428.689 45.5,417.5C 38.2691,415.602 34.2691,410.936 33.5,403.5C 34.3958,401.199 34.5625,398.866 34,396.5C 29.2691,397.545 25.6024,395.879 23,391.5C 16.7225,371.001 11.0558,350.334 6,329.5C 4.43149,317.278 6.59816,305.778 12.5,295C 7.84036,295.919 3.50702,295.086 -0.5,292.5C -0.5,282.5 -0.5,272.5 -0.5,262.5C 7.54198,247.604 17.042,233.604 28,220.5C 35.7829,204.594 45.7829,190.261 58,177.5C 69.3957,165.435 81.3957,154.102 94,143.5C 101.079,134.346 107.413,124.68 113,114.5C 117.133,109.366 121.633,104.532 126.5,100C 123.302,92.9255 124.969,87.2588 131.5,83C 136.238,81.6627 140.905,80.3294 145.5,79C 142.037,65.2935 147.37,59.7935 161.5,62.5C 163.002,56.4989 166.835,53.1656 173,52.5C 180.459,54.7896 187.625,57.7896 194.5,61.5C 264.664,30.8443 334.83,30.8443 405,61.5C 411.766,57.9504 418.766,54.9504 426,52.5C 432.165,53.1656 435.998,56.4989 437.5,62.5C 449.808,59.3205 455.642,63.9872 455,76.5C 454.626,77.4162 454.126,78.2496 453.5,79C 458.15,80.3314 462.817,81.6647 467.5,83C 472.273,85.1074 474.606,88.7741 474.5,94C 473.907,96.5095 473.741,99.0095 474,101.5C 477.333,104.833 480.667,108.167 484,111.5C 490,120.833 496,130.167 502,139.5C 520.699,156.532 538.365,174.532 555,193.5C 560.355,200.206 564.688,207.54 568,215.5C 579.535,230.188 590.035,245.521 599.5,261.5 Z"/></g>
<g><path style="opacity:1" fill="#4b4848" d="M 402.5,72.5 C 405.417,75.3034 408.75,77.6367 412.5,79.5C 438.845,106.655 452.678,139.322 454,177.5C 454.798,224.124 451.465,270.457 444,316.5C 442.305,330.451 441.471,344.451 441.5,358.5C 408.167,325.5 374.833,292.5 341.5,259.5C 337.34,228.223 333.507,196.889 330,165.5C 327.983,152.698 325.316,140.031 322,127.5C 316.691,110.433 305.525,104.267 288.5,109C 281.935,113.617 277.435,119.784 275,127.5C 273.667,132.833 272.333,138.167 271,143.5C 265.089,185.786 259.423,228.119 254,270.5C 249.784,297.58 242.784,323.913 233,349.5C 221.667,374.833 210.333,400.167 199,425.5C 194.893,436.258 191.56,447.258 189,458.5C 179.042,430.592 168.542,402.925 157.5,375.5C 157.831,337.309 154.664,299.309 148,261.5C 143.971,227.177 143.638,192.843 147,158.5C 152.169,127.661 165.669,101.161 187.5,79C 190.961,77.3572 193.961,75.1905 196.5,72.5C 238.605,52.1736 282.939,45.007 329.5,51C 355.122,53.9865 379.455,61.1532 402.5,72.5 Z"/></g>
<g><path style="opacity:1" fill="#3d3938" d="M 196.5,72.5 C 193.961,75.1905 190.961,77.3572 187.5,79C 165.669,101.161 152.169,127.661 147,158.5C 143.638,192.843 143.971,227.177 148,261.5C 154.664,299.309 157.831,337.309 157.5,375.5C 155.097,386.898 151.93,398.232 148,409.5C 141.022,424.814 130.188,436.647 115.5,445C 105.418,450.696 94.7509,455.029 83.5,458C 80.5706,458.777 77.7372,458.61 75,457.5C 74.6667,453.5 74.3333,449.5 74,445.5C 70.245,444.591 66.745,445.425 63.5,448C 60.4432,450.723 57.1099,453.056 53.5,455C 51.5594,455.743 49.7261,455.576 48,454.5C 47.3333,451.5 47.3333,448.5 48,445.5C 54.13,429.718 57.13,413.385 57,396.5C 56.4387,395.978 55.772,395.645 55,395.5C 52.0082,398 49.5082,401 47.5,404.5C 46.675,405.386 45.675,405.719 44.5,405.5C 45.4994,396.179 45.9994,386.846 46,377.5C 44.9505,376.483 43.7839,376.316 42.5,377C 39.462,379.703 36.7954,382.703 34.5,386C 33.5509,386.617 32.7175,386.451 32,385.5C 27.7388,369.383 23.0722,353.383 18,337.5C 16.2016,330.251 15.5349,322.918 16,315.5C 18.8779,305.533 22.5446,295.866 27,286.5C 28.4156,282.492 27.0823,280.159 23,279.5C 17.2822,281.685 11.4489,283.352 5.5,284.5C 6.14839,274.054 9.31506,264.387 15,255.5C 20.5134,247.142 26.5134,239.142 33,231.5C 38.5852,222.665 43.9186,213.665 49,204.5C 66.2667,183.898 84.9334,164.565 105,146.5C 111.499,137.506 117.499,128.173 123,118.5C 128.333,113.167 133.667,107.833 139,102.5C 139.115,100.062 138.115,98.0625 136,96.5C 135.219,95.0563 135.386,93.723 136.5,92.5C 144.096,90.7573 151.763,89.2573 159.5,88C 163.341,86.8351 164.175,84.6685 162,81.5C 158.449,78.8057 155.949,75.4724 154.5,71.5C 159.522,72.5053 164.522,73.6719 169.5,75C 172.5,75.6667 175.5,75.6667 178.5,75C 179.451,74.2825 179.617,73.4491 179,72.5C 177.023,69.6884 174.856,67.0217 172.5,64.5C 173,64.1667 173.5,63.8333 174,63.5C 179.719,65.9428 185.219,68.7762 190.5,72C 192.473,72.4955 194.473,72.6621 196.5,72.5 Z"/></g>
<g><path style="opacity:1" fill="#3d3938" d="M 441.5,375.5 C 441.882,369.934 441.882,364.268 441.5,358.5C 441.471,344.451 442.305,330.451 444,316.5C 451.465,270.457 454.798,224.124 454,177.5C 452.678,139.322 438.845,106.655 412.5,79.5C 408.75,77.6367 405.417,75.3034 402.5,72.5C 405.271,72.5793 407.937,72.0793 410.5,71C 415.114,68.1096 419.947,65.6096 425,63.5C 425.5,63.8333 426,64.1667 426.5,64.5C 424.902,67.6014 422.735,70.2681 420,72.5C 419.383,73.4491 419.549,74.2825 420.5,75C 428.6,74.6393 436.6,73.6393 444.5,72C 445.28,73.073 445.113,74.2396 444,75.5C 441.984,77.684 439.817,79.684 437.5,81.5C 436.167,82.6199 435.667,83.9532 436,85.5C 437.935,87.1022 440.101,88.2689 442.5,89C 447.833,89.6667 453.167,90.3333 458.5,91C 460.779,91.4728 462.779,92.4728 464.5,94C 462.002,96.4479 460.502,99.2813 460,102.5C 465.667,108.167 471.333,113.833 477,119.5C 481.416,127.333 486.082,135 491,142.5C 506.279,157.779 521.613,173.113 537,188.5C 546.624,198.466 554.29,209.8 560,222.5C 570.112,235.28 579.445,248.614 588,262.5C 591.789,269.364 593.623,276.697 593.5,284.5C 587.689,283.453 582.022,281.786 576.5,279.5C 574.813,279.76 573.313,280.427 572,281.5C 571.808,284.947 572.475,288.28 574,291.5C 579.276,300.495 582.443,310.161 583.5,320.5C 583.12,325.901 582.287,331.234 581,336.5C 576.869,351.226 572.536,365.893 568,380.5C 567.505,382.473 567.338,384.473 567.5,386.5C 563.82,384.662 560.82,381.828 558.5,378C 556.975,376.991 555.308,376.491 553.5,376.5C 553.911,386.203 553.911,395.87 553.5,405.5C 550.476,401.977 547.309,398.644 544,395.5C 543.228,395.645 542.561,395.978 542,396.5C 541.972,414.435 545.306,431.769 552,448.5C 553.502,454.327 551.336,456.494 545.5,455C 542.167,452.667 538.833,450.333 535.5,448C 532.439,445.965 529.105,444.799 525.5,444.5C 525.772,448.902 525.439,453.235 524.5,457.5C 521.216,458.657 517.882,458.824 514.5,458C 491.977,451.833 473.143,440 458,422.5C 455.746,418.993 453.746,415.327 452,411.5C 447.823,399.414 444.323,387.414 441.5,375.5 Z"/></g>
<g><path style="opacity:1" fill="#f4f4f4" d="M 294.5,117.5 C 299.447,116.628 303.613,117.961 307,121.5C 313.628,134.334 317.628,148.001 319,162.5C 323.415,196.156 327.749,229.823 332,263.5C 335.989,295.12 343.656,325.787 355,355.5C 366,379.833 377,404.167 388,428.5C 396.459,448.331 400.459,468.997 400,490.5C 394.607,533.43 370.44,552.93 327.5,549C 317.865,547.008 308.198,545.175 298.5,543.5C 288.056,544.763 277.723,546.597 267.5,549C 236.116,552.898 214.283,540.398 202,511.5C 196.092,490.886 196.092,470.22 202,449.5C 211.532,421.231 223.199,393.898 237,367.5C 251.473,334.612 260.806,300.279 265,264.5C 269.678,225.074 275.012,185.741 281,146.5C 282.414,137.59 285.414,129.257 290,121.5C 291.397,119.93 292.897,118.596 294.5,117.5 Z"/></g>
<g><path style="opacity:1" fill="#e8e6e9" d="M 214.5,205.5 C 234.149,205.988 246.649,215.655 252,234.5C 253.587,254.898 244.754,268.398 225.5,275C 203.952,277.977 189.786,269.144 183,248.5C 181.121,224.904 191.621,210.57 214.5,205.5 Z"/></g>
<g><path style="opacity:1" fill="#e8e6e9" d="M 376.5,205.5 C 402.296,207.13 414.796,220.796 414,246.5C 408.363,268.577 394.196,278.077 371.5,275C 352.726,268.551 343.893,255.384 345,235.5C 349.242,218.754 359.742,208.754 376.5,205.5 Z"/></g>
<g><path style="opacity:1" fill="#322b28" d="M 210.5,219.5 C 224.409,217.2 233.909,222.533 239,235.5C 239.139,256.345 228.972,264.845 208.5,261C 197.337,254.502 193.504,245.002 197,232.5C 200.076,226.589 204.576,222.255 210.5,219.5 Z"/></g>
<g><path style="opacity:1" fill="#322b28" d="M 373.5,219.5 C 387.059,217.523 396.225,222.856 401,235.5C 401.488,256.675 391.321,265.175 370.5,261C 361.686,256.219 357.353,248.719 357.5,238.5C 359.294,229.05 364.627,222.717 373.5,219.5 Z"/></g>
<g><path style="opacity:1" fill="#f7f7f7" d="M 224.5,226.5 C 232.885,225.716 236.051,229.383 234,237.5C 230.341,241.115 226.341,241.448 222,238.5C 219.511,233.757 220.345,229.757 224.5,226.5 Z"/></g>
<g><path style="opacity:1" fill="#f4f4f4" d="M 385.5,226.5 C 395.052,226.197 398.052,230.364 394.5,239C 387.864,242.33 383.531,240.497 381.5,233.5C 382.071,230.687 383.404,228.354 385.5,226.5 Z"/></g>
<g><path style="opacity:1" fill="#484545" d="M 341.5,259.5 C 374.833,292.5 408.167,325.5 441.5,358.5C 441.882,364.268 441.882,369.934 441.5,375.5C 430.382,404.014 419.549,432.681 409,461.5C 405.536,446.443 400.87,431.776 395,417.5C 383.118,392.403 371.784,367.07 361,341.5C 351.977,314.742 345.477,287.409 341.5,259.5 Z"/></g>
<g><path style="opacity:1" fill="#050504" d="M 285.5,442.5 C 297.882,442.593 310.215,443.427 322.5,445C 336.896,447.262 346.729,455.095 352,468.5C 354.006,486.323 347.506,500.156 332.5,510C 302.601,528.09 275.768,524.256 252,498.5C 237.802,475.788 242.635,458.622 266.5,447C 272.929,445.308 279.263,443.808 285.5,442.5 Z"/></g>
<g><path style="opacity:1" fill="#302825" d="M 281.5,453.5 C 292.505,453.333 303.505,453.5 314.5,454C 323.117,455.423 330.95,458.59 338,463.5C 342.135,468.474 343.468,474.14 342,480.5C 339.492,489.003 334.659,495.836 327.5,501C 300.669,517.301 277.503,513.134 258,488.5C 251.94,477.253 253.773,467.753 263.5,460C 269.576,457.7 275.576,455.533 281.5,453.5 Z"/></g>
</svg>
