<?xml version="1.0" encoding="UTF-8"?>
<!DOCTYPE svg PUBLIC "-//W3C//DTD SVG 1.1//EN" "http://www.w3.org/Graphics/SVG/1.1/DTD/svg11.dtd">
<svg xmlns="http://www.w3.org/2000/svg" version="1.1" width="600px" height="600px" style="shape-rendering:geometricPrecision; text-rendering:geometricPrecision; image-rendering:optimizeQuality; fill-rule:evenodd; clip-rule:evenodd" xmlns:xlink="http://www.w3.org/1999/xlink">
<g><path style="opacity:0.964" fill="#010101" d="M 599.5,199.5 C 599.5,213.833 599.5,228.167 599.5,242.5C 593.747,253.244 589.247,264.578 586,276.5C 584.018,289.862 584.185,303.196 586.5,316.5C 585.534,324.632 581.034,329.299 573,330.5C 569.968,329.908 567.302,328.574 565,326.5C 563.956,327.623 563.29,328.956 563,330.5C 560.07,355.135 557.403,379.802 555,404.5C 553.205,423.962 542.705,435.462 523.5,439C 501.758,442.198 482.092,437.198 464.5,424C 455.962,417.129 448.462,409.296 442,400.5C 433.809,412.549 427.476,425.549 423,439.5C 420.541,450.583 419.707,461.75 420.5,473C 420.298,489.314 416.131,504.481 408,518.5C 395.041,532.04 379.208,537.207 360.5,534C 357.081,533.479 353.748,532.645 350.5,531.5C 326.067,542.921 300.734,545.754 274.5,540C 265.71,537.959 257.21,535.126 249,531.5C 211.616,541.315 189.283,527.315 182,489.5C 180.62,481.669 180.453,473.836 181.5,466C 180.681,441.372 173.014,419.206 158.5,399.5C 147.766,414.393 134.1,425.893 117.5,434C 100.395,441.675 83.0613,442.341 65.5,436C 54.2045,430.695 47.3711,421.862 45,409.5C 42.1356,384.523 39.4689,359.523 37,334.5C 36.3333,331.833 35.6667,329.167 35,326.5C 29.2241,331.332 23.3908,331.498 17.5,327C 15.0295,324.059 13.3628,320.726 12.5,317C 14.9061,303.246 15.0727,289.412 13,275.5C 9.2828,263.751 4.7828,252.418 -0.5,241.5C -0.5,227.5 -0.5,213.5 -0.5,199.5C 6.44751,186.378 16.1142,175.544 28.5,167C 61.5248,146.148 95.5248,126.815 130.5,109C 143.43,101.731 156.096,94.064 168.5,86C 170.527,84.6043 170.86,82.9376 169.5,81C 170.667,75.1667 174.167,71.6667 180,70.5C 180.7,62.0607 185.2,57.394 193.5,56.5C 202.407,57.6186 210.74,60.452 218.5,65C 228.777,65.8185 238.444,68.6519 247.5,73.5C 282.339,66.9994 317.173,66.9994 352,73.5C 361.215,68.7359 371.048,65.9025 381.5,65C 390.079,59.4709 399.413,56.8042 409.5,57C 415.481,59.4445 418.648,63.9445 419,70.5C 426.132,72.1397 429.299,76.473 428.5,83.5C 436.957,89.568 445.624,95.4014 454.5,101C 492.481,120.987 529.814,141.987 566.5,164C 580.53,173.19 591.53,185.024 599.5,199.5 Z"/></g>
<g><path style="opacity:1" fill="#252424" d="M 243.5,84.5 C 245.333,86.4957 245.833,88.829 245,91.5C 243,95.5 241,99.5 239,103.5C 226.385,121.116 213.385,138.45 200,155.5C 194.649,163.882 190.649,172.882 188,182.5C 184.895,195.36 182.561,208.36 181,221.5C 178.798,253.821 176.798,286.154 175,318.5C 172.703,339.319 167.537,359.319 159.5,378.5C 150.535,394.636 138.535,408.136 123.5,419C 109.008,427.873 93.341,431.207 76.5,429C 65.605,426.657 58.7716,420.157 56,409.5C 52.8403,385.556 50.1736,361.556 48,337.5C 46.2766,326.33 42.9432,315.663 38,305.5C 35.3459,310.633 31.8459,315.133 27.5,319C 26.2161,319.684 25.0495,319.517 24,318.5C 24.5748,304.532 24.5748,290.532 24,276.5C 23.6156,272.347 22.6156,268.347 21,264.5C 14.952,252.689 10.2853,240.356 7,227.5C 4.68974,214.437 7.68974,202.77 16,192.5C 22.2362,185.593 29.0695,179.427 36.5,174C 72.5187,152.32 109.185,131.654 146.5,112C 160.167,103.5 173.833,95 187.5,86.5C 185.321,85.2433 183.321,83.7433 181.5,82C 186.833,81.6667 192.167,81.3333 197.5,81C 193.041,77.9132 190.875,73.7466 191,68.5C 191.5,68 192,67.5 192.5,67C 201.037,68.256 209.037,71.256 216.5,76C 226.509,75.9488 235.509,78.7822 243.5,84.5 Z"/></g>
<g><path style="opacity:1" fill="#252424" d="M 440.5,382.5 C 440.804,381.85 441.137,381.183 441.5,380.5C 435.508,369.883 431.341,358.55 429,346.5C 427.332,336.827 425.665,327.16 424,317.5C 422.333,288.5 420.667,259.5 419,230.5C 417.728,213.928 415.061,197.595 411,181.5C 408.492,173.483 405.159,165.816 401,158.5C 390.766,143.597 379.766,129.263 368,115.5C 362.893,108.288 358.56,100.621 355,92.5C 354.278,89.7395 354.445,87.0728 355.5,84.5C 363.393,78.4382 372.393,75.6049 382.5,76C 389.963,71.256 397.963,68.256 406.5,67C 408.787,69.2429 408.953,71.7429 407,74.5C 405.542,76.96 403.709,79.1266 401.5,81C 407.167,81.3333 412.833,81.6667 418.5,82C 416.295,83.706 413.962,85.206 411.5,86.5C 442.856,106.517 475.189,125.017 508.5,142C 526.83,152.163 544.83,162.83 562.5,174C 569.956,179.455 576.79,185.622 583,192.5C 592.415,204.418 595.082,217.751 591,232.5C 587.554,242.725 583.554,252.725 579,262.5C 577.198,267.375 575.865,272.375 575,277.5C 574.472,291.189 574.472,304.856 575,318.5C 573.951,319.517 572.784,319.684 571.5,319C 567.806,315.107 564.473,310.94 561.5,306.5C 556.33,316.14 552.83,326.474 551,337.5C 548.749,360.507 546.416,383.507 544,406.5C 541.748,419.751 533.915,427.251 520.5,429C 500.55,431.127 482.883,425.794 467.5,413C 458.022,404.182 449.855,394.348 443,383.5C 442.329,382.748 441.496,382.414 440.5,382.5 Z"/></g>
<g><path style="opacity:1" fill="#353534" d="M 355.5,84.5 C 354.445,87.0728 354.278,89.7395 355,92.5C 358.56,100.621 362.893,108.288 368,115.5C 379.766,129.263 390.766,143.597 401,158.5C 405.159,165.816 408.492,173.483 411,181.5C 415.061,197.595 417.728,213.928 419,230.5C 420.667,259.5 422.333,288.5 424,317.5C 425.665,327.16 427.332,336.827 429,346.5C 431.341,358.55 435.508,369.883 441.5,380.5C 441.137,381.183 440.804,381.85 440.5,382.5C 431.616,397.69 422.949,412.357 414.5,426.5C 410.705,416.258 405.871,406.591 400,397.5C 386.333,381.167 372.667,364.833 359,348.5C 354.626,341.384 350.626,334.051 347,326.5C 343.958,317.107 340.958,307.774 338,298.5C 336.367,279.823 335.201,261.157 334.5,242.5C 334.238,241.022 334.571,239.689 335.5,238.5C 341.882,241.865 348.548,242.365 355.5,240C 360.51,236.493 365.843,233.493 371.5,231C 377.029,227.257 377.695,222.924 373.5,218C 361.085,211.627 349.085,212.294 337.5,220C 336.487,223.339 335.153,223.839 333.5,221.5C 332.273,201.138 328.773,181.138 323,161.5C 316.44,146.385 305.274,141.551 289.5,147C 284.497,150.993 280.663,155.826 278,161.5C 275.942,169.574 273.942,177.574 272,185.5C 270.39,198.161 268.89,210.828 267.5,223.5C 266.71,224.609 266.21,225.942 266,227.5C 263.681,220.521 258.848,216.354 251.5,215C 244.095,213.12 236.761,213.453 229.5,216C 221.098,219.947 220.431,224.947 227.5,231C 233.991,234.078 240.325,237.412 246.5,241C 253.999,242.668 260.666,241.168 266.5,236.5C 265.666,256.513 264.499,276.513 263,296.5C 259.318,315.22 252.318,332.554 242,348.5C 238.359,354.008 234.025,359.008 229,363.5C 225.105,369.402 220.439,374.736 215,379.5C 209.357,387.743 203.357,395.743 197,403.5C 192.569,411.444 188.903,419.777 186,428.5C 177.948,411.394 169.114,394.728 159.5,378.5C 167.537,359.319 172.703,339.319 175,318.5C 176.798,286.154 178.798,253.821 181,221.5C 182.561,208.36 184.895,195.36 188,182.5C 190.649,172.882 194.649,163.882 200,155.5C 213.385,138.45 226.385,121.116 239,103.5C 241,99.5 243,95.5 245,91.5C 245.833,88.829 245.333,86.4957 243.5,84.5C 280.838,77.8621 318.171,77.8621 355.5,84.5 Z"/></g>
<g><path style="opacity:1" fill="#e7e4e1" d="M 326.5,284.5 C 326.573,288.112 325.573,291.278 323.5,294C 323.833,294.833 324.167,295.667 324.5,296.5C 325.518,295.807 326.518,295.141 327.5,294.5C 328.525,303.623 330.191,312.623 332.5,321.5C 331.735,324.096 331.401,326.763 331.5,329.5C 332.959,329.567 334.292,329.234 335.5,328.5C 335.833,329.833 336.167,331.167 336.5,332.5C 335.463,334.738 335.297,337.071 336,339.5C 337.356,340.38 338.856,340.714 340.5,340.5C 344.738,347.973 349.238,355.306 354,362.5C 362.516,372.895 371.016,383.228 379.5,393.5C 381.167,394.5 382.5,395.833 383.5,397.5C 378.445,400.781 378.445,403.947 383.5,407C 385.81,407.497 388.143,407.663 390.5,407.5C 403.867,427.111 410.201,448.944 409.5,473C 409.659,487.199 406.159,500.366 399,512.5C 391.341,520.778 381.841,524.444 370.5,523.5C 363.616,523.789 356.95,522.789 350.5,520.5C 343.939,517.55 337.606,514.05 331.5,510C 329.866,509.506 328.199,509.34 326.5,509.5C 318.93,503.385 310.263,499.385 300.5,497.5C 290.34,500.249 281.006,504.583 272.5,510.5C 272.167,510.5 271.833,510.5 271.5,510.5C 263.744,513.701 256.077,517.201 248.5,521C 239.307,523.393 229.974,524.06 220.5,523C 208.305,520.474 200.138,513.307 196,501.5C 191.068,484.326 190.234,466.992 193.5,449.5C 194.756,449.539 195.756,449.039 196.5,448C 195.177,447.184 194.511,446.017 194.5,444.5C 198.838,424.822 207.672,407.489 221,392.5C 230.739,381.603 240.239,370.603 249.5,359.5C 252.084,358.952 253.084,357.285 252.5,354.5C 263.568,337.469 270.402,318.802 273,298.5C 274.343,265.055 277.009,231.722 281,198.5C 282.468,185.96 285.801,173.96 291,162.5C 298.423,152.836 305.089,153.503 311,164.5C 317.023,180.632 320.69,197.299 322,214.5C 324.126,237.6 325.626,260.933 326.5,284.5 Z"/></g>
<g><path style="opacity:1" fill="#b1afac" d="M 308.5,188.5 C 311.086,191.709 310.919,195.042 308,198.5C 306.471,195.198 306.638,191.865 308.5,188.5 Z"/></g>
<g><path style="opacity:1" fill="#2d2d2d" d="M 267.5,223.5 C 267.818,228.032 267.485,232.366 266.5,236.5C 260.666,241.168 253.999,242.668 246.5,241C 240.325,237.412 233.991,234.078 227.5,231C 220.431,224.947 221.098,219.947 229.5,216C 236.761,213.453 244.095,213.12 251.5,215C 258.848,216.354 263.681,220.521 266,227.5C 266.21,225.942 266.71,224.609 267.5,223.5 Z"/></g>
<g><path style="opacity:1" fill="#2d2d2d" d="M 334.5,242.5 C 333.509,235.687 333.175,228.687 333.5,221.5C 335.153,223.839 336.487,223.339 337.5,220C 349.085,212.294 361.085,211.627 373.5,218C 377.695,222.924 377.029,227.257 371.5,231C 365.843,233.493 360.51,236.493 355.5,240C 348.548,242.365 341.882,241.865 335.5,238.5C 334.571,239.689 334.238,241.022 334.5,242.5 Z"/></g>
<g><path style="opacity:1" fill="#865733" d="M 216.5,244.5 C 234.236,242.778 246.402,250.111 253,266.5C 255.167,293.667 242.667,306.167 215.5,304C 198.956,297.419 191.79,285.253 194,267.5C 197.684,255.984 205.184,248.317 216.5,244.5 Z"/></g>
<g><path style="opacity:1" fill="#865733" d="M 368.5,244.5 C 386.784,242.714 398.951,250.38 405,267.5C 407.359,285.797 399.859,297.963 382.5,304C 363.935,306.804 351.769,299.304 346,281.5C 343.808,263.209 351.308,250.875 368.5,244.5 Z"/></g>
<g><path style="opacity:1" fill="#b2b0ad" d="M 284.5,245.5 C 290.382,245.049 292.716,247.716 291.5,253.5C 286.46,252.816 284.126,250.149 284.5,245.5 Z"/></g>
<g><path style="opacity:1" fill="#1e1d1b" d="M 218.5,254.5 C 239.718,254.946 247.218,265.279 241,285.5C 234.086,294.384 225.253,296.884 214.5,293C 203.796,285.886 200.963,276.386 206,264.5C 209.191,259.837 213.358,256.503 218.5,254.5 Z"/></g>
<g><path style="opacity:1" fill="#1e1d1b" d="M 370.5,254.5 C 391.701,254.903 399.201,265.237 393,285.5C 385.186,294.825 375.686,296.992 364.5,292C 352.928,280.962 352.594,269.629 363.5,258C 365.925,256.787 368.259,255.621 370.5,254.5 Z"/></g>
<g><path style="opacity:1" fill="#f4f4f4" d="M 225.5,264.5 C 234.865,263.936 236.865,267.436 231.5,275C 223.505,275.145 221.505,271.645 225.5,264.5 Z"/></g>
<g><path style="opacity:1" fill="#f5f5f5" d="M 379.5,264.5 C 386.163,263.333 388.997,265.999 388,272.5C 384.667,276.5 381.333,276.5 378,272.5C 377.109,269.502 377.609,266.836 379.5,264.5 Z"/></g>
<g><path style="opacity:1" fill="#a4a2a0" d="M 326.5,284.5 C 327.479,287.625 327.813,290.958 327.5,294.5C 326.518,295.141 325.518,295.807 324.5,296.5C 324.167,295.667 323.833,294.833 323.5,294C 325.573,291.278 326.573,288.112 326.5,284.5 Z"/></g>
<g><path style="opacity:1" fill="#b5b3b0" d="M 277.5,318.5 C 279.252,318.418 280.252,319.251 280.5,321C 279.715,324.029 278.549,326.862 277,329.5C 275.977,328.4 275.477,327.067 275.5,325.5C 275.886,323.068 276.553,320.734 277.5,318.5 Z"/></g>
<g><path style="opacity:1" fill="#9d9b98" d="M 332.5,321.5 C 333.945,323.571 334.945,325.904 335.5,328.5C 334.292,329.234 332.959,329.567 331.5,329.5C 331.401,326.763 331.735,324.096 332.5,321.5 Z"/></g>
<g><path style="opacity:1" fill="#979593" d="M 336.5,332.5 C 338.341,334.849 339.674,337.515 340.5,340.5C 338.856,340.714 337.356,340.38 336,339.5C 335.297,337.071 335.463,334.738 336.5,332.5 Z"/></g>
<g><path style="opacity:1" fill="#8a8987" d="M 252.5,354.5 C 253.084,357.285 252.084,358.952 249.5,359.5C 249.953,357.435 250.953,355.768 252.5,354.5 Z"/></g>
<g><path style="opacity:1" fill="#b1afac" d="M 303.5,357.5 C 309.382,357.049 311.716,359.716 310.5,365.5C 306.841,364.685 304.174,362.519 302.5,359C 303.056,358.617 303.389,358.117 303.5,357.5 Z"/></g>
<g><path style="opacity:1" fill="#b1afac" d="M 281.5,364.5 C 284.261,363.915 285.927,364.915 286.5,367.5C 285.964,369.942 285.131,372.275 284,374.5C 282.89,376.037 281.39,376.703 279.5,376.5C 279.079,372.258 279.746,368.258 281.5,364.5 Z"/></g>
<g><path style="opacity:1" fill="#b1afac" d="M 291.5,365.5 C 302.327,365.479 306.66,370.645 304.5,381C 296.934,380.454 291.934,376.454 289.5,369C 289.978,367.697 290.645,366.531 291.5,365.5 Z"/></g>
<g><path style="opacity:1" fill="#b5b3b0" d="M 272.5,375.5 C 273.5,375.5 274.5,375.5 275.5,375.5C 274.898,379.364 273.732,383.031 272,386.5C 270.977,385.4 270.477,384.067 270.5,382.5C 270.886,380.068 271.553,377.734 272.5,375.5 Z"/></g>
<g><path style="opacity:1" fill="#1d1d1b" d="M 287.5,385.5 C 304.356,383.772 320.356,386.605 335.5,394C 345.795,402.872 349.628,414.039 347,427.5C 341.029,448.802 327.196,461.969 305.5,467C 292.86,468.12 281.527,464.787 271.5,457C 254.16,444.154 248.327,427.321 254,406.5C 257.561,398.606 263.395,393.106 271.5,390C 276.975,388.548 282.308,387.048 287.5,385.5 Z"/></g>
<g><path style="opacity:1" fill="#b2b0ad" d="M 379.5,393.5 C 374.384,395.448 370.717,393.781 368.5,388.5C 371.263,387.216 372.93,388.216 373.5,391.5C 375.495,392.295 377.495,392.961 379.5,393.5 Z"/></g>
<g><path style="opacity:1" fill="#b6b4b1" d="M 225.5,389.5 C 230.097,390.815 232.43,393.981 232.5,399C 232.167,399.833 231.833,400.667 231.5,401.5C 228.94,397.847 226.94,393.847 225.5,389.5 Z"/></g>
<g><path style="opacity:1" fill="#a8a6a3" d="M 383.5,397.5 C 386.605,400.275 388.938,403.608 390.5,407.5C 388.143,407.663 385.81,407.497 383.5,407C 378.445,403.947 378.445,400.781 383.5,397.5 Z"/></g>
<g><path style="opacity:1" fill="#aeada9" d="M 226.5,407.5 C 231.577,409.334 232.744,412.667 230,417.5C 227.743,414.562 226.576,411.229 226.5,407.5 Z"/></g>
<g><path style="opacity:1" fill="#aeada9" d="M 363.5,424.5 C 365.717,426.619 367.05,429.286 367.5,432.5C 367.192,433.308 366.692,433.975 366,434.5C 362.44,431.872 361.607,428.539 363.5,424.5 Z"/></g>
<g><path style="opacity:1" fill="#aeada9" d="M 204.5,436.5 C 208.122,435.924 211.122,436.924 213.5,439.5C 213.023,440.478 212.357,441.311 211.5,442C 207.191,443.198 203.524,442.198 200.5,439C 201.858,438.066 203.192,437.232 204.5,436.5 Z"/></g>
<g><path style="opacity:1" fill="#8a8886" d="M 194.5,444.5 C 194.511,446.017 195.177,447.184 196.5,448C 195.756,449.039 194.756,449.539 193.5,449.5C 193.216,447.585 193.549,445.919 194.5,444.5 Z"/></g>
<g><path style="opacity:1" fill="#9f9e9a" d="M 335.5,483.5 C 341.751,485.498 342.918,489.165 339,494.5C 336.533,491.266 335.367,487.599 335.5,483.5 Z"/></g>
<g><path style="opacity:1" fill="#ec999c" d="M 326.5,509.5 C 325.5,510.833 324.5,512.167 323.5,513.5C 323.167,513.5 322.833,513.5 322.5,513.5C 319.178,514.877 316.178,516.543 313.5,518.5C 311.641,519.594 309.641,520.427 307.5,521C 301.651,521.818 295.985,521.652 290.5,520.5C 287.69,517.765 284.19,516.098 280,515.5C 278.133,512.786 275.633,511.119 272.5,510.5C 281.006,504.583 290.34,500.249 300.5,497.5C 310.263,499.385 318.93,503.385 326.5,509.5 Z"/></g>
<g><path style="opacity:1" fill="#1f1d1d" d="M 326.5,509.5 C 328.199,509.34 329.866,509.506 331.5,510C 337.606,514.05 343.939,517.55 350.5,520.5C 343.997,519.153 337.997,516.653 332.5,513C 329.493,512.699 326.493,512.865 323.5,513.5C 324.5,512.167 325.5,510.833 326.5,509.5 Z"/></g>
<g><path style="opacity:1" fill="#986366" d="M 322.5,513.5 C 320.244,516.405 317.244,518.072 313.5,518.5C 316.178,516.543 319.178,514.877 322.5,513.5 Z"/></g>
<g><path style="opacity:1" fill="#b8787a" d="M 271.5,510.5 C 271.833,510.5 272.167,510.5 272.5,510.5C 275.633,511.119 278.133,512.786 280,515.5C 284.19,516.098 287.69,517.765 290.5,520.5C 282.857,519.513 276.524,516.18 271.5,510.5 Z"/></g>
<g><path style="opacity:1" fill="#4b4b4b" d="M 329.5,523.5 C 331.312,523.771 332.978,524.438 334.5,525.5C 329.026,527.94 323.359,529.44 317.5,530C 320.986,528.966 324.319,527.633 327.5,526C 328.381,525.292 329.047,524.458 329.5,523.5 Z"/></g>
<g><path style="opacity:1" fill="#4b4b4b" d="M 268.5,524.5 C 271.851,525.898 275.184,527.398 278.5,529C 274.672,529.118 271.006,528.285 267.5,526.5C 267.863,525.817 268.196,525.15 268.5,524.5 Z"/></g>
</svg>
