<?xml version="1.0" encoding="UTF-8"?>
<!DOCTYPE svg PUBLIC "-//W3C//DTD SVG 1.1//EN" "http://www.w3.org/Graphics/SVG/1.1/DTD/svg11.dtd">
<svg xmlns="http://www.w3.org/2000/svg" version="1.1" width="600px" height="600px" style="shape-rendering:geometricPrecision; text-rendering:geometricPrecision; image-rendering:optimizeQuality; fill-rule:evenodd; clip-rule:evenodd" xmlns:xlink="http://www.w3.org/1999/xlink">
<g><path style="opacity:0.952" fill="#030303" d="M 599.5,102.5 C 599.5,122.5 599.5,142.5 599.5,162.5C 595.324,172.528 590.824,182.528 586,192.5C 576.934,207.242 568.267,222.242 560,237.5C 556.494,248.366 553.494,259.366 551,270.5C 545.515,278.165 538.348,280.165 529.5,276.5C 522.902,299.215 516.735,322.215 511,345.5C 504.548,370.53 495.548,394.53 484,417.5C 478.053,426.447 471.72,435.114 465,443.5C 454.349,458.792 449.349,475.792 450,494.5C 447.351,515.786 440.351,535.453 429,553.5C 417.26,567.863 402.093,576.363 383.5,579C 375.472,579.228 367.472,579.728 359.5,580.5C 358.014,580.103 356.514,579.77 355,579.5C 317.814,587.48 280.647,587.48 243.5,579.5C 219.027,582.716 197.027,576.883 177.5,562C 164.654,547.475 156.154,530.641 152,511.5C 147.596,494.761 145.263,477.761 145,460.5C 142.667,455.833 140.333,451.167 138,446.5C 113.718,417.267 97.385,383.934 89,346.5C 82.9432,322.926 76.6099,299.593 70,276.5C 62.0444,279.889 55.0444,278.556 49,272.5C 45.8384,260.032 42.1717,247.699 38,235.5C 31.0895,222.006 23.4228,209.006 15,196.5C 9.23868,185.65 4.07201,174.65 -0.5,163.5C -0.5,143.167 -0.5,122.833 -0.5,102.5C 4.36217,98.9007 9.6955,96.0673 15.5,94C 49.8962,85.9852 83.5628,75.6519 116.5,63C 134.5,55.6667 152.5,48.3333 170.5,41C 179.087,37.8116 187.92,35.645 197,34.5C 204.275,35.2584 211.109,37.4251 217.5,41C 224.532,45.8527 231.198,51.1861 237.5,57C 267.716,53.7514 298.049,52.7514 328.5,54C 338.727,54.6549 348.894,55.8215 359,57.5C 368.002,50.4044 377.502,43.9044 387.5,38C 393.577,35.2286 399.911,34.2286 406.5,35C 415.674,37.0577 424.674,39.7243 433.5,43C 456.674,52.7248 480.007,62.0581 503.5,71C 531.697,79.7992 560.03,88.1326 588.5,96C 592.194,98.1782 595.861,100.345 599.5,102.5 Z"/></g>
<g><path style="opacity:1" fill="#ece7db" d="M 236.5,68.5 C 239.313,72.4673 242.979,75.6339 247.5,78C 242.426,84.0706 236.426,89.0706 229.5,93C 225.747,94.9889 221.747,95.8222 217.5,95.5C 216.545,92.5452 214.545,90.5452 211.5,89.5C 209.66,87.3311 207.326,85.9977 204.5,85.5C 201.155,83.783 197.489,83.1164 193.5,83.5C 193.265,82.9033 192.765,82.5699 192,82.5C 187.578,82.9762 183.411,83.9762 179.5,85.5C 168.316,88.4218 159.65,94.7551 153.5,104.5C 151.674,106.147 150.34,108.147 149.5,110.5C 147.412,112.336 146.079,114.669 145.5,117.5C 143.412,119.336 142.079,121.669 141.5,124.5C 138.407,128.347 136.074,132.68 134.5,137.5C 133.662,137.842 133.328,138.508 133.5,139.5C 131.127,141.579 129.794,144.246 129.5,147.5C 127.326,150.515 125.659,153.849 124.5,157.5C 122.043,160.751 120.376,164.418 119.5,168.5C 118.662,168.842 118.328,169.508 118.5,170.5C 116.375,173.088 115.042,176.088 114.5,179.5C 112.539,181.32 112.206,183.32 113.5,185.5C 106.528,200.566 100.028,215.899 94,231.5C 89.9094,240.026 85.0761,248.026 79.5,255.5C 74.9262,260.566 69.5928,264.733 63.5,268C 60.6917,268.92 58.5251,268.087 57,265.5C 55.2626,254.142 52.2626,243.142 48,232.5C 40.424,217.675 32.0907,203.342 23,189.5C 11.4216,169.268 4.58827,147.601 2.5,124.5C 1.12863,116.409 4.12863,110.576 11.5,107C 14.4167,105.472 17.4167,104.139 20.5,103C 46.3747,96.4475 72.0413,89.1142 97.5,81C 122.613,71.2768 147.613,61.2768 172.5,51C 177.772,49.1314 183.106,47.4647 188.5,46C 194.585,45.1392 200.585,45.4725 206.5,47C 216.954,53.6348 226.954,60.8015 236.5,68.5 Z"/></g>
<g><path style="opacity:1" fill="#ece7db" d="M 519.5,260.5 C 519.662,258.473 519.495,256.473 519,254.5C 514.169,248.174 509.835,241.508 506,234.5C 499.686,217.881 492.852,201.548 485.5,185.5C 486.167,185.5 486.5,185.167 486.5,184.5C 486.293,181.759 485.293,179.426 483.5,177.5C 482.624,173.418 480.957,169.751 478.5,166.5C 473.207,153.248 466.874,140.581 459.5,128.5C 459.672,127.508 459.338,126.842 458.5,126.5C 457.921,123.669 456.588,121.336 454.5,119.5C 453.921,116.669 452.588,114.336 450.5,112.5C 449.277,108.951 447.277,105.951 444.5,103.5C 442.167,99.1667 438.833,95.8333 434.5,93.5C 433.198,91.1782 431.198,89.8449 428.5,89.5C 425.912,87.3754 422.912,86.0421 419.5,85.5C 412.236,82.5047 404.902,82.1714 397.5,84.5C 396.209,84.2627 395.209,84.596 394.5,85.5C 388.917,86.7842 384.583,89.7842 381.5,94.5C 381.5,94.8333 381.5,95.1667 381.5,95.5C 369.684,94.0059 359.851,88.6725 352,79.5C 351.493,78.0039 351.993,76.8373 353.5,76C 357.3,74.0211 360.634,71.5211 363.5,68.5C 371.136,62.3417 378.803,56.175 386.5,50C 393.294,45.8341 400.627,44.5007 408.5,46C 416.982,48.2037 425.315,50.8704 433.5,54C 458.272,64.5902 483.272,74.5902 508.5,84C 532.395,90.9743 556.395,97.641 580.5,104C 586.103,106.048 590.936,109.214 595,113.5C 597.29,127.451 595.957,141.118 591,154.5C 586.431,167.639 580.764,180.306 574,192.5C 566.415,204.668 559.082,217.001 552,229.5C 546.896,241.025 543.563,253.025 542,265.5C 540.136,268.207 537.636,269.041 534.5,268C 529.269,264.976 524.769,261.143 521,256.5C 520.79,258.058 520.29,259.391 519.5,260.5 Z"/></g>
<g><path style="opacity:1" fill="#f3f3f3" d="M 363.5,68.5 C 360.634,71.5211 357.3,74.0211 353.5,76C 351.993,76.8373 351.493,78.0039 352,79.5C 359.851,88.6725 369.684,94.0059 381.5,95.5C 384.515,97.6744 387.849,99.3411 391.5,100.5C 405.362,108.939 418.362,118.606 430.5,129.5C 432.167,133.167 434.833,135.833 438.5,137.5C 439.167,137.833 439.833,138.167 440.5,138.5C 449.446,149.114 459.112,159.114 469.5,168.5C 470.167,168.5 470.5,168.833 470.5,169.5C 472.43,173.1 475.097,176.1 478.5,178.5C 481.194,180.527 483.527,182.861 485.5,185.5C 492.852,201.548 499.686,217.881 506,234.5C 509.835,241.508 514.169,248.174 519,254.5C 519.495,256.473 519.662,258.473 519.5,260.5C 512.3,302.3 501.8,343.3 488,383.5C 484.75,393.334 480.416,402.667 475,411.5C 467.721,422.446 460.054,433.112 452,443.5C 447.81,451.578 444.31,459.911 441.5,468.5C 438.919,465.68 437.086,462.346 436,458.5C 434.535,448.515 433.202,438.515 432,428.5C 429.454,419.228 427.121,409.895 425,400.5C 421.459,392.97 417.126,385.97 412,379.5C 407.503,371.509 403.836,363.175 401,354.5C 374.564,323.378 340.73,308.712 299.5,310.5C 238.638,309.335 197.138,337.001 175,393.5C 166.938,415.757 160.771,438.424 156.5,461.5C 154.493,455.655 151.993,449.988 149,444.5C 139.944,432.444 131.278,420.11 123,407.5C 118.453,399.073 114.453,390.406 111,381.5C 96.6184,340.425 86.1184,298.425 79.5,255.5C 85.0761,248.026 89.9094,240.026 94,231.5C 100.028,215.899 106.528,200.566 113.5,185.5C 115.139,183.194 117.139,181.194 119.5,179.5C 122.903,177.1 125.57,174.1 127.5,170.5C 139.167,159.5 150.5,148.167 161.5,136.5C 165.1,134.57 168.1,131.903 170.5,128.5C 184.061,115.051 199.395,104.051 216.5,95.5C 216.833,95.5 217.167,95.5 217.5,95.5C 221.747,95.8222 225.747,94.9889 229.5,93C 236.426,89.0706 242.426,84.0706 247.5,78C 242.979,75.6339 239.313,72.4673 236.5,68.5C 278.824,61.8338 321.158,61.8338 363.5,68.5 Z"/></g>
<g><path style="opacity:1" fill="#585652" d="M 193.5,83.5 C 188.869,84.3291 184.202,84.9958 179.5,85.5C 183.411,83.9762 187.578,82.9762 192,82.5C 192.765,82.5699 193.265,82.9033 193.5,83.5 Z"/></g>
<g><path style="opacity:1" fill="#050505" d="M 193.5,83.5 C 196.974,84.5249 200.64,85.1916 204.5,85.5C 207.326,85.9977 209.66,87.3311 211.5,89.5C 213.219,91.5441 214.886,93.5441 216.5,95.5C 199.395,104.051 184.061,115.051 170.5,128.5C 166.9,130.43 163.9,133.097 161.5,136.5C 149.92,146.577 138.753,157.243 128,168.5C 127.536,169.094 127.369,169.761 127.5,170.5C 124.097,172.9 121.43,175.9 119.5,179.5C 117.139,181.194 115.139,183.194 113.5,185.5C 112.206,183.32 112.539,181.32 114.5,179.5C 116.625,176.912 117.958,173.912 118.5,170.5C 118.328,169.508 118.662,168.842 119.5,168.5C 121.957,165.249 123.624,161.582 124.5,157.5C 125.659,153.849 127.326,150.515 129.5,147.5C 131.341,145.151 132.674,142.485 133.5,139.5C 133.328,138.508 133.662,137.842 134.5,137.5C 137.593,133.653 139.926,129.32 141.5,124.5C 143.588,122.664 144.921,120.331 145.5,117.5C 147.588,115.664 148.921,113.331 149.5,110.5C 150.34,108.147 151.674,106.147 153.5,104.5C 160.821,96.1877 169.487,89.8543 179.5,85.5C 184.202,84.9958 188.869,84.3291 193.5,83.5 Z"/></g>
<g><path style="opacity:1" fill="#595753" d="M 193.5,83.5 C 197.489,83.1164 201.155,83.783 204.5,85.5C 200.64,85.1916 196.974,84.5249 193.5,83.5 Z"/></g>
<g><path style="opacity:1" fill="#040404" d="M 419.5,85.5 C 422.912,86.0421 425.912,87.3754 428.5,89.5C 430.147,91.3264 432.147,92.6597 434.5,93.5C 437.5,97.1667 440.833,100.5 444.5,103.5C 447.277,105.951 449.277,108.951 450.5,112.5C 451.079,115.331 452.412,117.664 454.5,119.5C 455.079,122.331 456.412,124.664 458.5,126.5C 459.338,126.842 459.672,127.508 459.5,128.5C 465.325,141.484 471.659,154.151 478.5,166.5C 479.376,170.582 481.043,174.249 483.5,177.5C 483.707,180.241 484.707,182.574 486.5,184.5C 486.5,185.167 486.167,185.5 485.5,185.5C 483.527,182.861 481.194,180.527 478.5,178.5C 476.57,174.9 473.903,171.9 470.5,169.5C 470.5,168.833 470.167,168.5 469.5,168.5C 460.554,157.886 450.888,147.886 440.5,138.5C 439.833,138.167 439.167,137.833 438.5,137.5C 436.167,134.5 433.5,131.833 430.5,129.5C 418.362,118.606 405.362,108.939 391.5,100.5C 388.672,98.2519 385.672,96.2519 382.5,94.5C 386.142,91.0134 390.142,88.0134 394.5,85.5C 395.209,84.596 396.209,84.2627 397.5,84.5C 404.807,83.6571 412.14,83.9904 419.5,85.5 Z"/></g>
<g><path style="opacity:1" fill="#5a5854" d="M 419.5,85.5 C 412.14,83.9904 404.807,83.6571 397.5,84.5C 404.902,82.1714 412.236,82.5047 419.5,85.5 Z"/></g>
<g><path style="opacity:1" fill="#575551" d="M 179.5,85.5 C 169.487,89.8543 160.821,96.1877 153.5,104.5C 159.65,94.7551 168.316,88.4218 179.5,85.5 Z"/></g>
<g><path style="opacity:1" fill="#575551" d="M 394.5,85.5 C 390.142,88.0134 386.142,91.0134 382.5,94.5C 382.167,94.5 381.833,94.5 381.5,94.5C 384.583,89.7842 388.917,86.7842 394.5,85.5 Z"/></g>
<g><path style="opacity:1" fill="#575551" d="M 428.5,89.5 C 431.198,89.8449 433.198,91.1782 434.5,93.5C 432.147,92.6597 430.147,91.3264 428.5,89.5 Z"/></g>
<g><path style="opacity:1" fill="#5e5c59" d="M 211.5,89.5 C 214.545,90.5452 216.545,92.5452 217.5,95.5C 217.167,95.5 216.833,95.5 216.5,95.5C 214.886,93.5441 213.219,91.5441 211.5,89.5 Z"/></g>
<g><path style="opacity:1" fill="#b9b9b9" d="M 185.5,93.5 C 189.846,93.3343 194.179,93.501 198.5,94C 180.847,105.646 164.347,118.813 149,133.5C 152.826,124.863 157.493,116.53 163,108.5C 169.355,101.587 176.855,96.5871 185.5,93.5 Z"/></g>
<g><path style="opacity:1" fill="#5a5954" d="M 434.5,93.5 C 438.833,95.8333 442.167,99.1667 444.5,103.5C 440.833,100.5 437.5,97.1667 434.5,93.5 Z"/></g>
<g><path style="opacity:1" fill="#b9b9b9" d="M 400.5,94.5 C 417.541,92.9378 430.708,99.6045 440,114.5C 443.373,120.748 446.873,126.915 450.5,133C 449.833,133.667 449.167,133.667 448.5,133C 433.748,118.477 417.748,105.644 400.5,94.5 Z"/></g>
<g><path style="opacity:1" fill="#a1a1a1" d="M 381.5,94.5 C 381.833,94.5 382.167,94.5 382.5,94.5C 385.672,96.2519 388.672,98.2519 391.5,100.5C 387.849,99.3411 384.515,97.6744 381.5,95.5C 381.5,95.1667 381.5,94.8333 381.5,94.5 Z"/></g>
<g><path style="opacity:1" fill="#575551" d="M 149.5,110.5 C 148.921,113.331 147.588,115.664 145.5,117.5C 146.079,114.669 147.412,112.336 149.5,110.5 Z"/></g>
<g><path style="opacity:1" fill="#575551" d="M 450.5,112.5 C 452.588,114.336 453.921,116.669 454.5,119.5C 452.412,117.664 451.079,115.331 450.5,112.5 Z"/></g>
<g><path style="opacity:1" fill="#575551" d="M 145.5,117.5 C 144.921,120.331 143.588,122.664 141.5,124.5C 142.079,121.669 143.412,119.336 145.5,117.5 Z"/></g>
<g><path style="opacity:1" fill="#575551" d="M 454.5,119.5 C 456.588,121.336 457.921,123.669 458.5,126.5C 456.412,124.664 455.079,122.331 454.5,119.5 Z"/></g>
<g><path style="opacity:1" fill="#575551" d="M 141.5,124.5 C 139.926,129.32 137.593,133.653 134.5,137.5C 136.074,132.68 138.407,128.347 141.5,124.5 Z"/></g>
<g><path style="opacity:1" fill="#a5a5a5" d="M 170.5,128.5 C 168.1,131.903 165.1,134.57 161.5,136.5C 163.9,133.097 166.9,130.43 170.5,128.5 Z"/></g>
<g><path style="opacity:1" fill="#9f9f9f" d="M 430.5,129.5 C 433.5,131.833 436.167,134.5 438.5,137.5C 434.833,135.833 432.167,133.167 430.5,129.5 Z"/></g>
<g><path style="opacity:1" fill="#5a5954" d="M 133.5,139.5 C 132.674,142.485 131.341,145.151 129.5,147.5C 129.794,144.246 131.127,141.579 133.5,139.5 Z"/></g>
<g><path style="opacity:1" fill="#a1a1a1" d="M 161.5,136.5 C 150.5,148.167 139.167,159.5 127.5,170.5C 127.369,169.761 127.536,169.094 128,168.5C 138.753,157.243 149.92,146.577 161.5,136.5 Z"/></g>
<g><path style="opacity:1" fill="#55534f" d="M 459.5,128.5 C 466.874,140.581 473.207,153.248 478.5,166.5C 471.659,154.151 465.325,141.484 459.5,128.5 Z"/></g>
<g><path style="opacity:1" fill="#969696" d="M 440.5,138.5 C 450.888,147.886 460.554,157.886 469.5,168.5C 459.112,159.114 449.446,149.114 440.5,138.5 Z"/></g>
<g><path style="opacity:1" fill="#585652" d="M 124.5,157.5 C 123.624,161.582 121.957,165.249 119.5,168.5C 120.376,164.418 122.043,160.751 124.5,157.5 Z"/></g>
<g><path style="opacity:1" fill="#9d9d9d" d="M 470.5,169.5 C 473.903,171.9 476.57,174.9 478.5,178.5C 475.097,176.1 472.43,173.1 470.5,169.5 Z"/></g>
<g><path style="opacity:1" fill="#a1a1a1" d="M 127.5,170.5 C 125.57,174.1 122.903,177.1 119.5,179.5C 121.43,175.9 124.097,172.9 127.5,170.5 Z"/></g>
<g><path style="opacity:1" fill="#575551" d="M 478.5,166.5 C 480.957,169.751 482.624,173.418 483.5,177.5C 481.043,174.249 479.376,170.582 478.5,166.5 Z"/></g>
<g><path style="opacity:1" fill="#585652" d="M 118.5,170.5 C 117.958,173.912 116.625,176.912 114.5,179.5C 115.042,176.088 116.375,173.088 118.5,170.5 Z"/></g>
<g><path style="opacity:1" fill="#5b5854" d="M 483.5,177.5 C 485.293,179.426 486.293,181.759 486.5,184.5C 484.707,182.574 483.707,180.241 483.5,177.5 Z"/></g>
<g><path style="opacity:1" fill="#241916" d="M 195.5,214.5 C 211.837,211.918 223.67,217.918 231,232.5C 237.674,248.067 236.674,263.067 228,277.5C 219.947,285.689 210.114,289.689 198.5,289.5C 183.959,289.976 171.459,285.309 161,275.5C 149.428,257.258 151.928,241.092 168.5,227C 176.575,220.626 185.575,216.459 195.5,214.5 Z"/></g>
<g><path style="opacity:1" fill="#241916" d="M 386.5,214.5 C 408.664,213.334 426.164,221.668 439,239.5C 447.678,265.636 438.511,281.802 411.5,288C 398.504,291 386.171,289.333 374.5,283C 365.541,275.473 361.207,265.806 361.5,254C 361.072,239.935 366.072,228.268 376.5,219C 379.815,217.17 383.149,215.67 386.5,214.5 Z"/></g>
<g><path style="opacity:1" fill="#f7f6f6" d="M 202.5,230.5 C 212.428,230.024 216.595,234.69 215,244.5C 208.951,252.485 202.951,252.485 197,244.5C 195.268,238.314 197.101,233.647 202.5,230.5 Z"/></g>
<g><path style="opacity:1" fill="#f2f2f2" d="M 405.5,232.5 C 413.32,232.152 416.82,235.819 416,243.5C 410.535,250.385 405.535,250.052 401,242.5C 400.333,240.833 400.333,239.167 401,237.5C 402.366,235.638 403.866,233.972 405.5,232.5 Z"/></g>
<g><path style="opacity:1" fill="#ece7db" d="M 441.5,468.5 C 441.216,490.54 437.049,511.873 429,532.5C 420.875,551.49 406.708,563.324 386.5,568C 376.55,569.331 366.55,569.831 356.5,569.5C 356.611,568.883 356.944,568.383 357.5,568C 341.731,563.95 326.731,557.95 312.5,550C 308.358,547.928 304.025,546.428 299.5,545.5C 296.419,546.027 293.419,546.86 290.5,548C 274.711,556.896 258.044,563.563 240.5,568C 241.416,568.278 242.082,568.778 242.5,569.5C 197.445,573.284 170.612,552.951 162,508.5C 157.572,493.145 155.738,477.478 156.5,461.5C 160.771,438.424 166.938,415.757 175,393.5C 197.138,337.001 238.638,309.335 299.5,310.5C 340.73,308.712 374.564,323.378 401,354.5C 403.836,363.175 407.503,371.509 412,379.5C 417.126,385.97 421.459,392.97 425,400.5C 427.121,409.895 429.454,419.228 432,428.5C 433.202,438.515 434.535,448.515 436,458.5C 437.086,462.346 438.919,465.68 441.5,468.5 Z"/></g>
<g><path style="opacity:1" fill="#080707" d="M 283.5,349.5 C 301.044,347.853 318.044,350.019 334.5,356C 353.444,366.727 360.944,382.893 357,404.5C 350.473,436.695 330.806,453.362 298,454.5C 267.472,453.408 248.472,438.074 241,408.5C 238.091,395.345 239.425,382.679 245,370.5C 250.055,363.551 256.555,358.384 264.5,355C 271.02,353.292 277.353,351.459 283.5,349.5 Z"/></g>
<g><path style="opacity:1" fill="#524f4b" d="M 283.5,354.5 C 293.172,354.334 302.839,354.5 312.5,355C 342.794,357.951 355.961,374.451 352,404.5C 346.358,433.917 328.525,449.25 298.5,450.5C 263.601,447.599 245.267,428.599 243.5,393.5C 243.45,376.738 251.117,365.238 266.5,359C 272.253,357.314 277.919,355.814 283.5,354.5 Z"/></g>
<g><path style="opacity:1" fill="#241916" d="M 285.5,355.5 C 301.243,354.193 316.576,356.026 331.5,361C 348.362,370.232 354.862,384.399 351,403.5C 345.173,432.275 327.506,447.609 298,449.5C 264.368,446.033 246.534,427.366 244.5,393.5C 244.659,380.132 250.325,369.965 261.5,363C 269.277,359.349 277.277,356.849 285.5,355.5 Z"/></g>
<g><path style="opacity:1" fill="#666564" d="M 356.5,569.5 C 318.498,576.15 280.498,576.15 242.5,569.5C 242.082,568.778 241.416,568.278 240.5,568C 258.044,563.563 274.711,556.896 290.5,548C 293.419,546.86 296.419,546.027 299.5,545.5C 304.025,546.428 308.358,547.928 312.5,550C 326.731,557.95 341.731,563.95 357.5,568C 356.944,568.383 356.611,568.883 356.5,569.5 Z"/></g>
</svg>
