<?xml version="1.0" encoding="UTF-8"?>
<!DOCTYPE svg PUBLIC "-//W3C//DTD SVG 1.1//EN" "http://www.w3.org/Graphics/SVG/1.1/DTD/svg11.dtd">
<svg xmlns="http://www.w3.org/2000/svg" version="1.1" width="600px" height="600px" style="shape-rendering:geometricPrecision; text-rendering:geometricPrecision; image-rendering:optimizeQuality; fill-rule:evenodd; clip-rule:evenodd" xmlns:xlink="http://www.w3.org/1999/xlink">
<g><path style="opacity:0.974" fill="#040303" d="M 599.5,182.5 C 599.5,197.833 599.5,213.167 599.5,228.5C 593.967,230.142 588.633,229.642 583.5,227C 577.636,220.746 572.136,214.246 567,207.5C 555.09,210.137 543.59,213.97 532.5,219C 521.582,225.708 510.749,232.542 500,239.5C 501.103,258.799 499.103,277.799 494,296.5C 485.914,309.006 477.581,321.339 469,333.5C 461.698,345.437 456.031,358.104 452,371.5C 449.272,398.078 442.939,423.745 433,448.5C 430.255,454.325 427.255,459.992 424,465.5C 421.006,479.824 415.673,493.157 408,505.5C 391.827,523.378 371.827,530.378 348,526.5C 315.319,534.34 282.653,534.34 250,526.5C 219.873,530.936 197.539,519.936 183,493.5C 178.13,482.222 174.463,470.555 172,458.5C 162.476,442.937 155.476,426.27 151,408.5C 148.481,395.533 146.148,382.533 144,369.5C 136.123,345.736 124.123,324.402 108,305.5C 101.337,295.176 97.67,283.842 97,271.5C 96.1809,260.923 96.3476,250.423 97.5,240C 86.1873,232.697 74.854,225.364 63.5,218C 53.7885,212.985 43.6218,209.151 33,206.5C 31.7387,206.759 30.7387,207.426 30,208.5C 26.1113,215.11 21.6113,221.277 16.5,227C 11.0212,230.632 5.35457,231.132 -0.5,228.5C -0.5,212.833 -0.5,197.167 -0.5,181.5C 4.18236,174.306 9.84903,167.806 16.5,162C 41.4505,140.845 68.7838,123.178 98.5,109C 123.661,96.0881 149.327,94.7548 175.5,105C 183.555,109.784 192.055,113.284 201,115.5C 222.595,110.852 244.429,109.352 266.5,111C 276.966,112.288 287.466,113.121 298,113.5C 314.968,111.97 331.968,110.97 349,110.5C 365.456,109.756 381.456,112.089 397,117.5C 414.225,106.369 433.058,99.7023 453.5,97.5C 469.939,98.6934 485.606,102.86 500.5,110C 532.712,125.573 562.212,145.073 589,168.5C 592.764,173.056 596.264,177.723 599.5,182.5 Z"/></g>
<g><path style="opacity:1" fill="#f1f1f1" d="M 416.5,457.5 C 416.464,448.358 416.297,439.024 416,429.5C 413.757,417.617 411.257,405.784 408.5,394C 408.743,393.098 409.077,392.265 409.5,391.5C 416.854,389.402 423.021,385.402 428,379.5C 445.051,356.019 454.385,329.685 456,300.5C 463.551,235.35 435.384,196.516 371.5,184C 313.02,176.146 287.186,201.646 294,260.5C 295.795,274.64 298.295,288.64 301.5,302.5C 285.035,301.727 269.035,304.06 253.5,309.5C 252.702,309.043 252.369,308.376 252.5,307.5C 260.849,282.768 266.683,257.434 270,231.5C 272.582,206.246 267.582,182.579 255,160.5C 246.835,147.012 237.335,134.512 226.5,123C 225.5,122.667 224.5,122.333 223.5,122C 236.805,120.557 250.138,120.223 263.5,121C 274.647,122.359 285.813,123.526 297,124.5C 309.842,123.454 322.676,122.287 335.5,121C 357.393,118.949 378.56,121.783 399,129.5C 413.122,118.79 428.956,111.956 446.5,109C 461.866,107.842 476.533,110.508 490.5,117C 521.967,131.559 550.967,149.893 577.5,172C 585.655,179.823 591.822,188.99 596,199.5C 597.942,205.515 597.942,211.515 596,217.5C 593.413,220.034 590.747,220.034 588,217.5C 575.635,200.128 562.135,183.628 547.5,168C 526.172,152.335 502.839,140.335 477.5,132C 464.561,127.961 451.561,127.628 438.5,131C 433.167,133.004 428.334,135.837 424,139.5C 423.383,140.449 423.549,141.282 424.5,142C 480.587,177.695 500.421,227.861 484,292.5C 476.725,304.107 469.058,315.44 461,326.5C 452.138,340.889 445.472,356.222 441,372.5C 438.571,402.56 430.404,430.894 416.5,457.5 Z"/></g>
<g><path style="opacity:1" fill="#43312b" d="M 247.5,285.5 C 246.242,290.942 244.575,296.276 242.5,301.5C 215.766,315.741 196.932,337.075 186,365.5C 180.987,378.871 176.987,392.538 174,406.5C 170.317,409.187 166.983,412.187 164,415.5C 162.468,411.238 161.135,406.905 160,402.5C 158.457,378.767 152.123,356.434 141,335.5C 132.495,321.821 123.495,308.488 114,295.5C 112.392,292.618 111.059,289.618 110,286.5C 105.989,268.264 105.489,249.93 108.5,231.5C 116.36,196.137 135.193,168.137 165,147.5C 168.965,141.789 168.132,136.955 162.5,133C 149.751,127.855 136.751,127.188 123.5,131C 95.9067,139.796 70.5734,152.796 47.5,170C 40.1186,177.446 33.4519,185.446 27.5,194C 28.056,194.383 28.3893,194.883 28.5,195.5C 26.9826,195.511 25.8159,196.177 25,197.5C 20.2009,204.932 15.0342,212.098 9.5,219C 6.16582,220.212 3.66582,219.379 2,216.5C 0.817852,208.865 1.81785,201.531 5,194.5C 9.62965,185.2 15.7963,177.033 23.5,170C 51.4244,146.194 82.4244,127.194 116.5,113C 134.604,106.82 152.604,107.153 170.5,114C 178.712,118.273 187.045,122.273 195.5,126C 200.918,126.484 206.251,125.984 211.5,124.5C 212.315,130.146 215.649,133.313 221.5,134C 240.087,152.998 252.587,175.498 259,201.5C 261.561,230.454 257.728,258.454 247.5,285.5 Z"/></g>
<g><path style="opacity:1" fill="#5a4439" d="M 108.5,231.5 C 103.113,230.81 98.113,228.977 93.5,226C 74.6773,209.924 53.0106,199.757 28.5,195.5C 28.3893,194.883 28.056,194.383 27.5,194C 33.4519,185.446 40.1186,177.446 47.5,170C 70.5734,152.796 95.9067,139.796 123.5,131C 136.751,127.188 149.751,127.855 162.5,133C 168.132,136.955 168.965,141.789 165,147.5C 135.193,168.137 116.36,196.137 108.5,231.5 Z"/></g>
<g><path style="opacity:1" fill="#5a4439" d="M 444.5,139.5 C 452.174,139.334 459.841,139.5 467.5,140C 492.954,148.227 516.621,159.894 538.5,175C 546.238,182.068 553.238,189.734 559.5,198C 537.448,203.86 517.448,213.694 499.5,227.5C 490.862,191.695 471.862,162.861 442.5,141C 443.416,140.722 444.082,140.222 444.5,139.5 Z"/></g>
<g><path style="opacity:1" fill="#060504" d="M 409.5,391.5 C 405.499,382.464 401.666,373.13 398,363.5C 379.047,322.59 346.88,302.257 301.5,302.5C 298.295,288.64 295.795,274.64 294,260.5C 287.186,201.646 313.02,176.146 371.5,184C 435.384,196.516 463.551,235.35 456,300.5C 454.385,329.685 445.051,356.019 428,379.5C 423.021,385.402 416.854,389.402 409.5,391.5 Z"/></g>
<g><path style="opacity:1" fill="#42302a" d="M 344.5,192.5 C 378.673,191.382 407.506,203.048 431,227.5C 436.003,234.507 439.67,242.174 442,250.5C 450.723,288.14 446.389,324.14 429,358.5C 425.218,365.075 420.718,371.075 415.5,376.5C 409.024,359.215 400.19,343.215 389,328.5C 367.807,304.99 341.307,292.99 309.5,292.5C 308.451,284.42 306.951,276.42 305,268.5C 302.845,253.415 303.178,238.415 306,223.5C 308.799,212.05 315.299,203.55 325.5,198C 331.736,195.362 338.069,193.529 344.5,192.5 Z"/></g>
<g><path style="opacity:1" fill="#241916" d="M 247.5,285.5 C 243.642,294.181 236.975,299.347 227.5,301C 213.165,303.733 200.665,300.233 190,290.5C 181.043,276.143 183.209,263.643 196.5,253C 206.765,244.517 218.431,241.517 231.5,244C 243.319,249.96 248.985,259.626 248.5,273C 248.342,277.192 248.009,281.359 247.5,285.5 Z"/></g>
<g><path style="opacity:1" fill="#241916" d="M 368.5,242.5 C 385.874,242.269 399.374,249.269 409,263.5C 415.185,283.628 408.019,296.128 387.5,301C 355.329,304.792 342.829,290.959 350,259.5C 353.839,251.156 360.005,245.489 368.5,242.5 Z"/></g>
<g><path style="opacity:1" fill="#f2f2f2" d="M 222.5,255.5 C 231.218,255.367 234.385,259.367 232,267.5C 225.159,273.111 220.326,271.611 217.5,263C 218.589,260.084 220.256,257.584 222.5,255.5 Z"/></g>
<g><path style="opacity:1" fill="#f6f6f6" d="M 381.5,257.5 C 388.665,256.497 391.498,259.497 390,266.5C 386.333,270.5 382.667,270.5 379,266.5C 377.927,262.9 378.76,259.9 381.5,257.5 Z"/></g>
<g><path style="opacity:1" fill="#ece7db" d="M 301.5,302.5 C 346.88,302.257 379.047,322.59 398,363.5C 401.666,373.13 405.499,382.464 409.5,391.5C 409.077,392.265 408.743,393.098 408.5,394C 411.257,405.784 413.757,417.617 416,429.5C 416.297,439.024 416.464,448.358 416.5,457.5C 413.553,464.931 411.053,472.598 409,480.5C 399.28,507.96 379.78,520.127 350.5,517C 342.586,515.473 334.92,513.14 327.5,510C 318.061,505.28 308.394,501.113 298.5,497.5C 285.286,503.273 271.953,508.773 258.5,514C 237.023,521.336 217.856,517.503 201,502.5C 196.502,496.664 192.836,490.331 190,483.5C 186.665,473.143 183.498,462.809 180.5,452.5C 180.589,443.687 180.756,434.687 181,425.5C 181.784,421.95 182.617,418.45 183.5,415C 182.906,414.536 182.239,414.369 181.5,414.5C 186.004,399.485 190.838,384.485 196,369.5C 203.17,351.981 213.67,336.814 227.5,324C 234.509,318.491 242.175,313.991 250.5,310.5C 251.176,309.398 251.842,308.398 252.5,307.5C 252.369,308.376 252.702,309.043 253.5,309.5C 269.035,304.06 285.035,301.727 301.5,302.5 Z"/></g>
<g><path style="opacity:1" fill="#040303" d="M 286.5,349.5 C 299.49,348.498 312.157,349.998 324.5,354C 338.125,361.495 343.292,372.995 340,388.5C 332.435,414.882 314.935,426.049 287.5,422C 263.963,413.45 253.796,396.616 257,371.5C 259.678,362.822 265.178,356.655 273.5,353C 277.929,351.682 282.262,350.516 286.5,349.5 Z"/></g>
<g><path style="opacity:1" fill="#231815" d="M 287.5,359.5 C 296.219,359.203 304.886,359.703 313.5,361C 329.147,365.99 333.98,376.157 328,391.5C 317.703,411.906 302.203,417.406 281.5,408C 270.47,399.594 265.637,388.428 267,374.5C 268.755,370.173 271.588,366.673 275.5,364C 279.723,362.79 283.723,361.29 287.5,359.5 Z"/></g>
<g><path style="opacity:1" fill="#efefef" d="M 181.5,414.5 C 182.239,414.369 182.906,414.536 183.5,415C 182.617,418.45 181.784,421.95 181,425.5C 180.756,434.687 180.589,443.687 180.5,452.5C 175.653,444.139 171.319,435.472 167.5,426.5C 171.867,422.132 176.533,418.132 181.5,414.5 Z"/></g>
<g><path style="opacity:1" fill="#402f29" d="M 297.5,508.5 C 306.282,512.058 314.949,515.891 323.5,520C 306.829,521.926 290.162,521.926 273.5,520C 281.956,516.937 289.956,513.104 297.5,508.5 Z"/></g>
</svg>
