<?xml version="1.0" encoding="UTF-8"?>
<!DOCTYPE svg PUBLIC "-//W3C//DTD SVG 1.1//EN" "http://www.w3.org/Graphics/SVG/1.1/DTD/svg11.dtd">
<svg xmlns="http://www.w3.org/2000/svg" version="1.1" width="600px" height="600px" style="shape-rendering:geometricPrecision; text-rendering:geometricPrecision; image-rendering:optimizeQuality; fill-rule:evenodd; clip-rule:evenodd" xmlns:xlink="http://www.w3.org/1999/xlink">
<g><path style="opacity:0.967" fill="#030202" d="M 599.5,218.5 C 599.5,234.833 599.5,251.167 599.5,267.5C 587.443,283.924 575.61,300.591 564,317.5C 559.22,324.726 555.22,332.392 552,340.5C 550.154,346.052 549.488,351.719 550,357.5C 554.849,364.013 558.349,371.18 560.5,379C 557.89,390.931 550.39,397.098 538,397.5C 531.792,396.824 525.958,394.99 520.5,392C 504.958,380.792 491.791,367.292 481,351.5C 477.942,358.007 475.275,364.674 473,371.5C 469.993,389.554 466.66,407.554 463,425.5C 456.227,453.378 443.894,478.378 426,500.5C 413.808,537.198 388.308,553.698 349.5,550C 316.165,555.985 282.831,555.985 249.5,550C 226.076,552.526 205.909,545.692 189,529.5C 179.708,516.573 173.374,502.239 170,486.5C 146.912,453.578 133.912,416.912 131,376.5C 128.43,366.699 124.763,357.366 120,348.5C 107.874,365.626 93.3739,380.46 76.5,393C 65.5632,399.295 54.8966,398.961 44.5,392C 39.1359,386.378 37.6359,379.878 40,372.5C 42.6667,367.833 45.3333,363.167 48,358.5C 48.9615,351.664 48.2948,344.997 46,338.5C 42.9215,332.009 39.5882,325.675 36,319.5C 23.9703,301.987 11.8036,284.654 -0.5,267.5C -0.5,250.833 -0.5,234.167 -0.5,217.5C 23.4333,192.717 48.7667,169.551 75.5,148C 94.4769,133.506 114.477,120.506 135.5,109C 152.252,100.638 169.919,95.3048 188.5,93C 261.565,70.8503 334.565,71.0169 407.5,93.5C 423.693,94.2971 439.36,98.1305 454.5,105C 479.432,117.294 502.766,131.961 524.5,149C 550.925,170.591 575.925,193.757 599.5,218.5 Z"/></g>
<g><path style="opacity:1" fill="#5a443a" d="M 405.5,103.5 C 416.023,110.843 425.856,119.176 435,128.5C 449.1,147.788 457.1,169.455 459,193.5C 460.559,223.236 462.893,252.903 466,282.5C 467,288.5 468,294.5 469,300.5C 472.214,311.307 475.714,321.973 479.5,332.5C 472.226,344.808 466.393,357.808 462,371.5C 459.589,386.532 457.089,401.532 454.5,416.5C 453.761,416.631 453.094,416.464 452.5,416C 440.251,403.583 427.917,391.416 415.5,379.5C 410.127,366.637 403.294,354.637 395,343.5C 383.192,331.604 371.192,319.937 359,308.5C 337.348,284.527 323.681,256.527 318,224.5C 316.791,207.113 315.124,189.78 313,172.5C 308.286,160.264 300.119,157.097 288.5,163C 286.57,165.258 285.07,167.758 284,170.5C 282.524,175.406 281.524,180.406 281,185.5C 282.534,226.389 271.534,263.389 248,296.5C 242,303.833 236,311.167 230,318.5C 204.523,337.766 187.19,362.766 178,393.5C 171.1,414.666 166.767,436.333 165,458.5C 151.792,433.156 144.125,406.156 142,377.5C 137.638,359.567 130.472,342.9 120.5,327.5C 126.192,314.737 130.025,301.403 132,287.5C 134.953,262.58 136.953,237.58 138,212.5C 138.59,188.814 143.59,166.147 153,144.5C 161.707,128.082 174.207,115.416 190.5,106.5C 191.429,105.311 191.762,103.978 191.5,102.5C 242.199,87.3615 293.866,83.1948 346.5,90C 366.597,92.7916 386.263,97.2916 405.5,103.5 Z"/></g>
<g><path style="opacity:1" fill="#43312a" d="M 405.5,103.5 C 426.875,105.125 446.875,111.291 465.5,122C 511.496,149.968 552.996,183.802 590,223.5C 599.523,235.429 599.856,247.762 591,260.5C 579.723,277.443 568.056,294.11 556,310.5C 549.055,321.057 543.722,332.391 540,344.5C 539.333,349.833 539.333,355.167 540,360.5C 542.748,365.666 545.748,370.666 549,375.5C 550.507,381.324 548.341,384.824 542.5,386C 534.073,387.121 526.74,384.787 520.5,379C 514.365,373.866 508.531,368.366 503,362.5C 494.867,352.557 487.034,342.557 479.5,332.5C 475.714,321.973 472.214,311.307 469,300.5C 468,294.5 467,288.5 466,282.5C 462.893,252.903 460.559,223.236 459,193.5C 457.1,169.455 449.1,147.788 435,128.5C 425.856,119.176 416.023,110.843 405.5,103.5 Z"/></g>
<g><path style="opacity:1" fill="#43312a" d="M 191.5,102.5 C 191.762,103.978 191.429,105.311 190.5,106.5C 174.207,115.416 161.707,128.082 153,144.5C 143.59,166.147 138.59,188.814 138,212.5C 136.953,237.58 134.953,262.58 132,287.5C 130.025,301.403 126.192,314.737 120.5,327.5C 109.668,346.512 96.0013,363.346 79.5,378C 75.4311,381.063 71.0978,383.73 66.5,386C 60.2853,387.54 54.7853,386.373 50,382.5C 49.3333,380.167 49.3333,377.833 50,375.5C 53.4333,370.403 56.4333,365.069 59,359.5C 60.1223,348.568 58.1223,338.234 53,328.5C 50,323.167 47,317.833 44,312.5C 30.9432,294.442 18.2765,276.109 6,257.5C -0.671048,245.915 -0.00438143,234.915 8,224.5C 44.0789,185.4 84.5789,151.9 129.5,124C 148.74,112.538 169.407,105.371 191.5,102.5 Z"/></g>
<g><path style="opacity:1" fill="#f1f1f1" d="M 360.5,326.5 C 360.44,327.043 360.107,327.376 359.5,327.5C 340.147,317.162 319.48,312.496 297.5,313.5C 276.092,313.185 256.092,318.185 237.5,328.5C 236.893,328.376 236.56,328.043 236.5,327.5C 254.998,307.856 269.498,285.523 280,260.5C 283.766,249.77 286.433,238.77 288,227.5C 289.226,210.784 290.893,194.118 293,177.5C 293.584,172.209 296.25,170.209 301,171.5C 302.399,174.363 303.399,177.363 304,180.5C 305.554,195.478 306.887,210.478 308,225.5C 311.204,249.783 319.538,272.116 333,292.5C 341.621,304.287 350.788,315.62 360.5,326.5 Z"/></g>
<g><path style="opacity:1" fill="#010000" d="M 208.5,222.5 C 230.718,222.538 245.218,233.205 252,254.5C 252.798,256.259 252.631,257.926 251.5,259.5C 243.177,262.66 234.843,265.827 226.5,269C 215.442,271.727 204.775,270.727 194.5,266C 188.833,262.333 183.167,258.667 177.5,255C 175.773,253.611 174.439,251.944 173.5,250C 181.474,236.027 193.141,226.86 208.5,222.5 Z"/></g>
<g><path style="opacity:1" fill="#010000" d="M 378.5,222.5 C 397.374,222.354 412.207,230.02 423,245.5C 424.373,247.695 424.706,250.029 424,252.5C 416.256,258.291 408.089,263.458 399.5,268C 391.986,270.301 384.319,270.968 376.5,270C 366.723,266.943 357.057,263.61 347.5,260C 346.398,257.599 346.231,255.099 347,252.5C 353.175,237.822 363.675,227.822 378.5,222.5 Z"/></g>
<g><path style="opacity:1" fill="#f2f2f2" d="M 217.5,232.5 C 225.149,232.314 228.315,235.981 227,243.5C 222.286,248.823 217.62,248.823 213,243.5C 211.393,238.438 212.893,234.772 217.5,232.5 Z"/></g>
<g><path style="opacity:1" fill="#f3f3f3" d="M 389.5,232.5 C 399.11,232.936 401.776,237.436 397.5,246C 388.961,249.451 384.794,246.618 385,237.5C 386.366,235.638 387.866,233.972 389.5,232.5 Z"/></g>
<g><path style="opacity:1" fill="#ece7db" d="M 360.5,326.5 C 382.593,342.645 398.427,363.645 408,389.5C 417.83,415.311 422.497,441.978 422,469.5C 419.809,485.599 415.142,500.932 408,515.5C 399.57,528.975 387.403,536.808 371.5,539C 354.309,541.083 338.309,537.917 323.5,529.5C 316.063,524.784 308.063,521.118 299.5,518.5C 284.749,524.882 270.082,531.215 255.5,537.5C 237.081,542.452 219.747,539.619 203.5,529C 196.154,522.48 190.654,514.647 187,505.5C 177.5,483.336 174.5,460.336 178,436.5C 182.729,405.069 194.063,376.402 212,350.5C 219.735,342.262 227.901,334.595 236.5,327.5C 236.56,328.043 236.893,328.376 237.5,328.5C 256.092,318.185 276.092,313.185 297.5,313.5C 319.48,312.496 340.147,317.162 359.5,327.5C 360.107,327.376 360.44,327.043 360.5,326.5 Z"/></g>
<g><path style="opacity:1" fill="#010100" d="M 282.5,353.5 C 297.264,352.919 311.931,353.753 326.5,356C 352.463,363.763 360.297,380.263 350,405.5C 335.04,425.832 314.873,434.998 289.5,433C 274.903,428.953 262.403,421.453 252,410.5C 243.752,398.183 242.419,385.183 248,371.5C 252.401,365.208 258.235,360.708 265.5,358C 271.214,356.142 276.881,354.642 282.5,353.5 Z"/></g>
<g><path style="opacity:1" fill="#523f35" d="M 415.5,379.5 C 427.917,391.416 440.251,403.583 452.5,416C 453.094,416.464 453.761,416.631 454.5,416.5C 450.393,436.317 443.227,454.984 433,472.5C 433.364,440.298 427.531,409.298 415.5,379.5 Z"/></g>
<g><path style="opacity:1" fill="#b8b2b2" d="M 298.5,530.5 C 307.404,533.952 316.071,537.952 324.5,542.5C 307.204,544.98 289.871,545.147 272.5,543C 281.449,539.429 290.116,535.262 298.5,530.5 Z"/></g>
<g><path style="opacity:1" fill="#b4afaf" d="M 323.5,529.5 C 315.532,526.186 307.532,522.852 299.5,519.5C 290.5,523.667 281.5,527.833 272.5,532C 266.993,534.425 261.326,536.259 255.5,537.5C 270.082,531.215 284.749,524.882 299.5,518.5C 308.063,521.118 316.063,524.784 323.5,529.5 Z"/></g>
</svg>
