<?xml version="1.0" encoding="UTF-8"?>
<!DOCTYPE svg PUBLIC "-//W3C//DTD SVG 1.1//EN" "http://www.w3.org/Graphics/SVG/1.1/DTD/svg11.dtd">
<svg xmlns="http://www.w3.org/2000/svg" version="1.1" width="600px" height="600px" style="shape-rendering:geometricPrecision; text-rendering:geometricPrecision; image-rendering:optimizeQuality; fill-rule:evenodd; clip-rule:evenodd" xmlns:xlink="http://www.w3.org/1999/xlink">
<g><path style="opacity:0.971" fill="#030202" d="M 599.5,299.5 C 599.5,313.5 599.5,327.5 599.5,341.5C 577.717,376.15 551.55,407.483 521,435.5C 522.155,439.466 524.155,443.132 527,446.5C 530.711,456.153 528.544,464.319 520.5,471C 512.682,475.832 504.349,477.165 495.5,475C 481.76,471.721 470.593,464.554 462,453.5C 458.737,445.782 456.403,437.782 455,429.5C 454.333,431.5 453.667,433.5 453,435.5C 451.431,461.567 449.097,487.567 446,513.5C 444.068,536.716 433.235,554.216 413.5,566C 400.461,572.414 388.461,570.748 377.5,561C 369.986,553.319 362.319,545.819 354.5,538.5C 317.843,550.499 281.176,550.499 244.5,538.5C 236.348,546.152 228.348,553.985 220.5,562C 209.652,571.041 197.985,572.374 185.5,566C 165.765,554.216 154.932,536.716 153,513.5C 149.852,487.238 147.518,460.905 146,434.5C 145.138,432.913 144.471,431.246 144,429.5C 141.99,453.176 129.49,468.01 106.5,474C 92.4245,478.751 80.9245,475.251 72,463.5C 68.541,455.329 69.8744,447.995 76,441.5C 77.3011,439.598 77.9678,437.598 78,435.5C 55.1491,413.659 34.1491,390.325 15,365.5C 9.29419,357.405 4.12753,349.072 -0.5,340.5C -0.5,326.833 -0.5,313.167 -0.5,299.5C 19.2723,239.623 46.7723,183.623 82,131.5C 89.1537,122.347 96.987,113.847 105.5,106C 179.757,52.4393 262.424,32.7726 353.5,47C 407.541,55.2231 455.875,76.2231 498.5,110C 506.418,117.914 513.585,126.414 520,135.5C 553.73,186.627 580.23,241.293 599.5,299.5 Z"/></g>
<g><path style="opacity:1" fill="#fefdfd" d="M 296.5,53.5 C 316.966,54.2919 337.299,56.4586 357.5,60C 361.99,61.2742 366.323,62.9409 370.5,65C 376.802,69.8437 377.969,75.6771 374,82.5C 353.436,107.636 340.436,136.302 335,168.5C 332.878,191.661 336.878,213.661 347,234.5C 351.944,242.443 357.277,250.109 363,257.5C 374,269.167 385,280.833 396,292.5C 411.025,310.556 420.692,331.222 425,354.5C 427.322,367.751 428.988,381.085 430,394.5C 430.995,428.202 430.328,461.868 428,495.5C 427.321,504.932 425.988,514.265 424,523.5C 417.17,539.755 405.67,544.255 389.5,537C 376.805,529.974 366.305,520.474 358,508.5C 347.333,491.833 336.667,475.167 326,458.5C 320.235,451.056 313.069,445.556 304.5,442C 293.358,440.985 284.191,444.818 277,453.5C 264.17,471.824 251.837,490.49 240,509.5C 232.463,518.704 223.963,526.871 214.5,534C 192.837,546.232 179.004,540.399 173,516.5C 167.952,469.553 167.285,422.553 171,375.5C 173.17,348.656 181.503,323.989 196,301.5C 207.632,288.2 219.632,275.2 232,262.5C 262.773,228.323 271.773,188.99 259,144.5C 250.713,120.92 239.046,99.2535 224,79.5C 222.347,73.6218 223.847,68.7885 228.5,65C 240.301,59.9716 252.634,56.9716 265.5,56C 275.987,55.1486 286.32,54.3152 296.5,53.5 Z"/></g>
<g><path style="opacity:1" fill="#2d190f" d="M 213.5,69.5 C 213.265,68.9033 212.765,68.5699 212,68.5C 163.686,89.387 134.019,125.72 123,177.5C 110.232,249.105 116.065,319.105 140.5,387.5C 136.944,404.48 133.778,421.814 131,439.5C 128.82,448.349 123.653,454.849 115.5,459C 109.109,462.575 102.275,464.742 95,465.5C 87.3342,465.763 82.5009,462.263 80.5,455C 82.8687,449.618 85.702,444.451 89,439.5C 90.8503,436.463 90.8503,433.463 89,430.5C 63.4709,407.312 40.4709,381.979 20,354.5C 13.7465,345.993 9.07984,336.66 6,326.5C 5.33333,323.5 5.33333,320.5 6,317.5C 24.1152,254.943 51.1152,196.61 87,142.5C 94.7795,131.72 103.613,121.887 113.5,113C 144.063,90.8024 177.563,74.3024 214,63.5C 214.5,63.8333 215,64.1667 215.5,64.5C 214.972,66.3361 214.306,68.0028 213.5,69.5 Z"/></g>
<g><path style="opacity:1" fill="#2e190f" d="M 459.5,385.5 C 483.227,317.328 488.727,247.661 476,176.5C 465.589,128.786 438.756,93.9522 395.5,72C 392.242,70.5335 388.908,69.3668 385.5,68.5C 385.703,66.6096 385.037,65.1096 383.5,64C 422.767,74.467 458.434,92.1336 490.5,117C 504.734,131.644 516.9,147.811 527,165.5C 555.273,213.05 577.273,263.383 593,316.5C 593.952,322.362 593.285,328.028 591,333.5C 585.46,344.361 579.127,354.695 572,364.5C 553.419,388.415 532.753,410.415 510,430.5C 509.333,433.167 509.333,435.833 510,438.5C 512.898,444.038 515.731,449.538 518.5,455C 516.374,462.411 511.374,465.911 503.5,465.5C 491.023,464.012 480.523,458.678 472,449.5C 469.89,446.508 468.557,443.175 468,439.5C 464.6,421.441 461.767,403.441 459.5,385.5 Z"/></g>
<g><path style="opacity:1" fill="#7e5037" d="M 213.5,69.5 C 213.175,74.5988 213.675,79.5988 215,84.5C 221.333,94.1667 227.667,103.833 234,113.5C 236.811,118.774 239.311,124.107 241.5,129.5C 208.612,137.531 182.112,155.198 162,182.5C 146.15,205.588 141.15,230.921 147,258.5C 150.351,273.888 155.685,288.554 163,302.5C 166.853,308.224 170.687,313.891 174.5,319.5C 168.777,331.846 164.944,344.846 163,358.5C 159.137,385.016 157.471,411.683 158,438.5C 152.064,421.525 146.231,404.525 140.5,387.5C 116.065,319.105 110.232,249.105 123,177.5C 134.019,125.72 163.686,89.387 212,68.5C 212.765,68.5699 213.265,68.9033 213.5,69.5 Z"/></g>
<g><path style="opacity:1" fill="#7e5037" d="M 385.5,68.5 C 388.908,69.3668 392.242,70.5335 395.5,72C 438.756,93.9522 465.589,128.786 476,176.5C 488.727,247.661 483.227,317.328 459.5,385.5C 453.834,402.162 448.167,418.829 442.5,435.5C 441.833,425.833 441.167,416.167 440.5,406.5C 439.83,377.809 435.164,349.809 426.5,322.5C 427.949,318.528 430.449,315.194 434,312.5C 454.761,281.787 462.094,248.12 456,211.5C 448.648,190.978 436.481,173.811 419.5,160C 401.382,144.775 380.716,134.608 357.5,129.5C 364.219,114.39 372.719,100.39 383,87.5C 385.951,81.3869 386.785,75.0536 385.5,68.5 Z"/></g>
<g><path style="opacity:1" fill="#3e2927" d="M 241.5,129.5 C 253.064,151.767 256.898,175.434 253,200.5C 249.699,218.099 242.366,233.766 231,247.5C 217,262.833 203,278.167 189,293.5C 183.345,301.819 178.512,310.486 174.5,319.5C 170.687,313.891 166.853,308.224 163,302.5C 155.685,288.554 150.351,273.888 147,258.5C 141.15,230.921 146.15,205.588 162,182.5C 182.112,155.198 208.612,137.531 241.5,129.5 Z"/></g>
<g><path style="opacity:1" fill="#3e2927" d="M 357.5,129.5 C 380.716,134.608 401.382,144.775 419.5,160C 436.481,173.811 448.648,190.978 456,211.5C 462.094,248.12 454.761,281.787 434,312.5C 430.449,315.194 427.949,318.528 426.5,322.5C 422.137,312.778 416.97,303.445 411,294.5C 398.701,280.533 386.034,266.866 373,253.5C 347.428,225.008 339.095,192.008 348,154.5C 350.092,145.72 353.258,137.387 357.5,129.5 Z"/></g>
<g><path style="opacity:1" fill="#f6f6f6" d="M 180.5,244.5 C 191.162,252.953 201.329,252.286 211,242.5C 215.362,235.488 215.528,228.488 211.5,221.5C 214.188,219.734 217.021,218.067 220,216.5C 227.977,231.92 225.144,245.087 211.5,256C 200.515,261.954 189.515,261.954 178.5,256C 171.813,251.147 172.479,247.314 180.5,244.5 Z"/></g>
<g><path style="opacity:1" fill="#f4f4f4" d="M 385.5,223.5 C 381.881,233.835 384.548,242.335 393.5,249C 401.895,252.733 409.895,252.067 417.5,247C 418.823,246.184 419.489,245.017 419.5,243.5C 422.283,245.067 424.949,246.9 427.5,249C 417.821,260.711 405.821,263.711 391.5,258C 377.177,248.874 372.177,236.041 376.5,219.5C 380.102,219.692 383.102,221.026 385.5,223.5 Z"/></g>
<g><path style="opacity:1" fill="#040303" d="M 211.5,221.5 C 215.528,228.488 215.362,235.488 211,242.5C 201.329,252.286 191.162,252.953 180.5,244.5C 189.904,235.626 200.237,227.96 211.5,221.5 Z"/></g>
<g><path style="opacity:1" fill="#030303" d="M 385.5,223.5 C 398.112,228.138 409.446,234.805 419.5,243.5C 419.489,245.017 418.823,246.184 417.5,247C 409.895,252.067 401.895,252.733 393.5,249C 384.548,242.335 381.881,233.835 385.5,223.5 Z"/></g>
<g><path style="opacity:1" fill="#000000" d="M 282.5,321.5 C 298.992,320.692 315.325,321.858 331.5,325C 364.412,334.706 373.579,355.206 359,386.5C 337.733,413.477 310.567,422.644 277.5,414C 259.938,407.65 246.438,396.483 237,380.5C 227.536,353.264 236.369,335.097 263.5,326C 269.95,324.415 276.283,322.915 282.5,321.5 Z"/></g>
<g><path style="opacity:1" fill="#090808" d="M 392.5,392.5 C 400.021,392.39 402.021,395.557 398.5,402C 392.24,404.412 389.407,402.245 390,395.5C 391.045,394.627 391.878,393.627 392.5,392.5 Z"/></g>
<g><path style="opacity:1" fill="#100f0f" d="M 202.5,392.5 C 208.908,392.81 210.908,395.976 208.5,402C 203.438,404.859 200.104,403.526 198.5,398C 199.007,395.455 200.341,393.621 202.5,392.5 Z"/></g>
<g><path style="opacity:1" fill="#0b0a0a" d="M 368.5,414.5 C 375.745,414.555 377.745,417.722 374.5,424C 367.922,426.757 365.089,424.59 366,417.5C 366.698,416.309 367.531,415.309 368.5,414.5 Z"/></g>
<g><path style="opacity:1" fill="#0f0d0d" d="M 225.5,414.5 C 230.406,413.306 233.406,415.139 234.5,420C 232.516,425.747 229.016,426.913 224,423.5C 223.068,420.177 223.568,417.177 225.5,414.5 Z"/></g>
<g><path style="opacity:1" fill="#3d271b" d="M 440.5,406.5 C 441.167,416.167 441.833,425.833 442.5,435.5C 442.013,436.473 441.513,437.473 441,438.5C 440.5,427.839 440.333,417.172 440.5,406.5 Z"/></g>
<g><path style="opacity:1" fill="#0b0a0a" d="M 397.5,436.5 C 405.244,436.048 407.577,439.215 404.5,446C 401.281,448.045 398.448,447.545 396,444.5C 395.282,441.593 395.782,438.926 397.5,436.5 Z"/></g>
<g><path style="opacity:1" fill="#0e0c0c" d="M 195.5,436.5 C 203.244,436.048 205.577,439.215 202.5,446C 193.411,448.174 191.078,445.007 195.5,436.5 Z"/></g>
<g><path style="opacity:1" fill="#141313" d="M 230.5,448.5 C 238.957,449.437 240.624,453.27 235.5,460C 229.667,460.833 227.167,458.333 228,452.5C 228.662,451.016 229.496,449.683 230.5,448.5 Z"/></g>
<g><path style="opacity:1" fill="#0c0b0b" d="M 362.5,449.5 C 370.993,448.471 373.327,451.637 369.5,459C 361.219,460.278 358.886,457.112 362.5,449.5 Z"/></g>
<g><path style="opacity:1" fill="#2d180f" d="M 355.5,522.5 C 344.339,511.506 333.005,500.672 321.5,490C 315.07,484.618 307.736,481.118 299.5,479.5C 290.79,481.189 283.123,485.022 276.5,491C 264.661,502.006 252.995,513.173 241.5,524.5C 255.87,504.277 269.703,483.611 283,462.5C 287.182,457.082 292.515,453.415 299,451.5C 305.931,453.137 311.598,456.804 316,462.5C 328.939,482.728 342.105,502.728 355.5,522.5 Z"/></g>
<g><path style="opacity:1" fill="#0b0a0a" d="M 391.5,475.5 C 398.733,475.545 400.733,478.711 397.5,485C 390.922,487.757 388.089,485.59 389,478.5C 389.698,477.309 390.531,476.309 391.5,475.5 Z"/></g>
<g><path style="opacity:1" fill="#090707" d="M 202.5,475.5 C 210.619,475.469 212.619,478.969 208.5,486C 203.584,487.69 200.584,486.023 199.5,481C 200.223,478.982 201.223,477.148 202.5,475.5 Z"/></g>
<g><path style="opacity:1" fill="#7e5036" d="M 355.5,522.5 C 355.833,523.5 356.5,524.167 357.5,524.5C 357.5,525.167 357.5,525.833 357.5,526.5C 329.27,536.408 300.27,539.241 270.5,535C 260.548,533.071 250.881,530.237 241.5,526.5C 241.5,525.833 241.5,525.167 241.5,524.5C 252.995,513.173 264.661,502.006 276.5,491C 283.123,485.022 290.79,481.189 299.5,479.5C 307.736,481.118 315.07,484.618 321.5,490C 333.005,500.672 344.339,511.506 355.5,522.5 Z"/></g>
<g><path style="opacity:1" fill="#2c170e" d="M 241.5,524.5 C 241.5,525.167 241.5,525.833 241.5,526.5C 232.035,535.464 222.702,544.631 213.5,554C 203.633,561.5 193.966,561.167 184.5,553C 181.355,551.022 178.688,548.522 176.5,545.5C 176.667,545.167 176.833,544.833 177,544.5C 185.456,550.257 194.623,551.757 204.5,549C 211.671,547.08 218.338,544.08 224.5,540C 230.336,534.996 236.003,529.829 241.5,524.5 Z"/></g>
<g><path style="opacity:1" fill="#2c170e" d="M 357.5,524.5 C 367.095,535.591 378.762,543.757 392.5,549C 402.846,551.609 412.513,550.109 421.5,544.5C 421.833,544.833 422.167,545.167 422.5,545.5C 415.326,554.588 405.993,559.088 394.5,559C 391.339,557.587 388.339,555.92 385.5,554C 376.298,544.631 366.965,535.464 357.5,526.5C 357.5,525.833 357.5,525.167 357.5,524.5 Z"/></g>
</svg>
