<?xml version="1.0" encoding="UTF-8"?>
<!DOCTYPE svg PUBLIC "-//W3C//DTD SVG 1.1//EN" "http://www.w3.org/Graphics/SVG/1.1/DTD/svg11.dtd">
<svg xmlns="http://www.w3.org/2000/svg" version="1.1" width="600px" height="600px" style="shape-rendering:geometricPrecision; text-rendering:geometricPrecision; image-rendering:optimizeQuality; fill-rule:evenodd; clip-rule:evenodd" xmlns:xlink="http://www.w3.org/1999/xlink">
<g><path style="opacity:0.966" fill="#010100" d="M 224.5,-0.5 C 276.5,-0.5 328.5,-0.5 380.5,-0.5C 397.288,5.89452 412.954,14.3945 427.5,25C 430.704,27.8688 433.537,31.0354 436,34.5C 438.107,39.8414 440.774,44.8414 444,49.5C 453.908,59.4123 464.408,68.579 475.5,77C 481.043,82.8741 486.21,89.0408 491,95.5C 494.304,104.046 497.304,112.712 500,121.5C 512,136.833 524,152.167 536,167.5C 536.725,169.949 537.725,172.283 539,174.5C 540.422,183.323 542.422,191.99 545,200.5C 553.937,217.375 562.604,234.375 571,251.5C 574.93,262.15 576.93,273.15 577,284.5C 581.747,297.742 587.08,310.742 593,323.5C 595.512,330.527 597.679,337.527 599.5,344.5C 599.5,370.833 599.5,397.167 599.5,423.5C 595.403,408.433 591.903,393.099 589,377.5C 588.422,369.656 588.589,361.823 589.5,354C 589.185,348.425 588.352,342.925 587,337.5C 581,322.833 575,308.167 569,293.5C 566.371,283.663 564.705,273.663 564,263.5C 562.534,258.768 560.867,254.102 559,249.5C 550.966,234.147 542.966,218.814 535,203.5C 532.311,196.057 530.645,188.391 530,180.5C 528.607,176.714 526.941,173.048 525,169.5C 514,155.833 503,142.167 492,128.5C 488.434,121.573 486.101,114.24 485,106.5C 483.587,103.339 481.92,100.339 480,97.5C 473.333,89.5 466,82.1667 458,75.5C 473.355,107.295 479.355,140.961 476,176.5C 474.865,188.645 472.865,200.645 470,212.5C 465.198,229.904 460.198,247.237 455,264.5C 442.696,294.504 431.029,324.504 420,354.5C 419.333,356.833 419.333,359.167 420,361.5C 426.901,387.186 427.901,413.186 423,439.5C 418.939,448.622 414.606,457.622 410,466.5C 401.553,474.389 391.553,478.723 380,479.5C 371.801,478.36 363.634,477.027 355.5,475.5C 354.767,486.771 356.934,497.437 362,507.5C 368.839,518.514 376.173,529.181 384,539.5C 389.171,547.172 393.838,555.172 398,563.5C 402.841,569.331 408.674,573.831 415.5,577C 429.058,582.278 442.725,587.278 456.5,592C 461.387,594.274 466.054,596.774 470.5,599.5C 461.833,599.5 453.167,599.5 444.5,599.5C 431.226,594.124 417.893,588.624 404.5,583C 399.077,579.581 394.244,575.415 390,570.5C 377.728,550.565 365.061,530.898 352,511.5C 346.387,500.156 343.887,488.156 344.5,475.5C 324.664,479.186 304.664,480.353 284.5,479C 276.14,478.331 267.974,476.831 260,474.5C 260.227,487.477 257.56,499.811 252,511.5C 244.409,524.352 236.076,536.685 227,548.5C 221.871,562.948 213.038,574.448 200.5,583C 186.745,589.412 172.745,594.912 158.5,599.5C 150.167,599.5 141.833,599.5 133.5,599.5C 138.327,595.917 143.661,593.084 149.5,591C 162.844,586.33 176.178,581.663 189.5,577C 196.813,573.693 202.98,568.86 208,562.5C 212.333,554.5 216.667,546.5 221,538.5C 229.91,527.689 237.576,516.023 244,503.5C 247.661,494.536 249.494,485.203 249.5,475.5C 215.12,486.894 192.953,475.228 183,440.5C 179.182,420.62 178.515,400.62 181,380.5C 182.736,371.503 184.069,362.503 185,353.5C 173.277,323.055 161.277,292.721 149,262.5C 135.422,228.44 127.922,193.107 126.5,156.5C 127.015,129.123 132.849,103.123 144,78.5C 135.249,85.2489 127.916,93.2489 122,102.5C 119.81,114.078 115.476,124.745 109,134.5C 99.0948,145.982 89.4281,157.649 80,169.5C 75.4092,177.529 73.0758,186.196 73,195.5C 71.3333,199.833 69.6667,204.167 68,208.5C 59.4749,223.55 51.4749,238.883 44,254.5C 42.4646,258.773 41.1312,263.106 40,267.5C 39.7835,276.35 38.4501,285.017 36,293.5C 29.1066,309.286 22.7732,325.286 17,341.5C 16.2414,344.626 15.7414,347.793 15.5,351C 17.2396,359.094 17.7396,367.26 17,375.5C 14.1402,390.606 10.8069,405.606 7,420.5C 5.62243,427.118 5.2891,433.785 6,440.5C 7.95287,445.405 9.61953,450.405 11,455.5C 12.0746,469.812 12.7413,484.145 13,498.5C 13.2979,506.031 15.2979,513.031 19,519.5C 23,522.167 26.3333,525.5 29,529.5C 34.1094,538.832 38.4428,548.499 42,558.5C 45.0316,565.524 49.5316,571.357 55.5,576C 61.6636,577.082 67.6636,578.749 73.5,581C 89.0115,587.886 104.678,594.053 120.5,599.5C 110.167,599.5 99.8333,599.5 89.5,599.5C 76.4826,592.879 62.8159,587.713 48.5,584C 43.6373,580.77 39.804,576.604 37,571.5C 31.473,559.918 26.1397,548.251 21,536.5C 18.3333,532.5 15,529.167 11,526.5C 6.50529,519.869 3.83862,512.536 3,504.5C 2.21309,487.65 1.04643,470.983 -0.5,454.5C -0.5,438.167 -0.5,421.833 -0.5,405.5C 6.0008,388.291 8.0008,370.458 5.5,352C 5.78634,345.352 6.95301,338.852 9,332.5C 15.3333,316.5 21.6667,300.5 28,284.5C 28.3701,274.279 30.0368,264.279 33,254.5C 41.8061,235.555 51.1394,216.888 61,198.5C 62.1576,186.538 65.4909,175.205 71,164.5C 80.9549,151.543 91.2883,138.876 102,126.5C 103.667,123.5 105.333,120.5 107,117.5C 108.478,106.718 112.478,97.0515 119,88.5C 122.05,84.9055 125.216,81.4055 128.5,78C 141.981,67.8515 154.147,56.3515 165,43.5C 166.834,38.3384 169.501,33.6717 173,29.5C 188.277,16.2775 205.443,6.27755 224.5,-0.5 Z"/></g>
<g><path style="opacity:1" fill="#7c6253" d="M 356.5,8.5 C 385.047,15.434 409.713,29.1007 430.5,49.5C 433.762,54.1017 437.428,58.435 441.5,62.5C 463.317,95.4287 472.817,131.762 470,171.5C 466.833,201.839 459.667,231.172 448.5,259.5C 448.833,260.167 449.167,260.833 449.5,261.5C 436.868,292.565 424.535,323.731 412.5,355C 413.436,363.342 415.269,371.508 418,379.5C 421.26,398.879 420.927,418.212 417,437.5C 413.773,444.955 410.273,452.288 406.5,459.5C 399.545,466.949 391.045,471.616 381,473.5C 372.774,472.064 364.607,470.397 356.5,468.5C 354.469,466.478 352.135,464.811 349.5,463.5C 344.102,460.963 338.769,458.13 333.5,455C 330.228,453.233 327.895,450.733 326.5,447.5C 321.576,443.763 316.242,440.597 310.5,438C 301.576,435.328 293.242,436.662 285.5,442C 278.466,449.028 270.799,455.362 262.5,461C 259.861,462.946 256.861,463.946 253.5,464C 251.767,465.189 250.1,466.356 248.5,467.5C 221.633,479.492 202.466,471.826 191,444.5C 183.574,416.446 183.908,388.446 192,360.5C 192.667,357.833 192.667,355.167 192,352.5C 179.925,321.358 167.592,290.358 155,259.5C 148.302,240.412 142.635,221.079 138,201.5C 129.725,163.983 132.392,127.316 146,91.5C 149.519,82.5219 154.019,74.1886 159.5,66.5C 164.833,59.8333 170.167,53.1667 175.5,46.5C 192.645,30.9192 212.311,19.4192 234.5,12C 239.094,10.5357 243.761,9.36901 248.5,8.5C 284.477,0.593641 320.477,0.593641 356.5,8.5 Z"/></g>
<g><path style="opacity:1" fill="#59443a" d="M 356.5,8.5 C 384.717,13.528 409.217,26.1946 430,46.5C 430.483,47.448 430.649,48.448 430.5,49.5C 409.713,29.1007 385.047,15.434 356.5,8.5 Z"/></g>
<g><path style="opacity:1" fill="#59433a" d="M 248.5,8.5 C 243.761,9.36901 239.094,10.5357 234.5,12C 212.311,19.4192 192.645,30.9192 175.5,46.5C 175.369,45.7611 175.536,45.0944 176,44.5C 196.527,24.7398 220.693,12.7398 248.5,8.5 Z"/></g>
<g><path style="opacity:1" fill="#5a443a" d="M 599.5,423.5 C 599.5,429.833 599.5,436.167 599.5,442.5C 597.485,446.557 595.985,450.891 595,455.5C 593.908,471.823 592.908,488.156 592,504.5C 591.246,514.016 586.913,521.349 579,526.5C 577.667,528.5 576.333,530.5 575,532.5C 569.53,545.44 563.53,558.106 557,570.5C 554.736,573.433 551.902,575.6 548.5,577C 534.694,579.49 521.694,584.157 509.5,591C 501.5,594.183 493.5,597.016 485.5,599.5C 480.5,599.5 475.5,599.5 470.5,599.5C 466.054,596.774 461.387,594.274 456.5,592C 442.725,587.278 429.058,582.278 415.5,577C 408.674,573.831 402.841,569.331 398,563.5C 393.838,555.172 389.171,547.172 384,539.5C 376.173,529.181 368.839,518.514 362,507.5C 356.934,497.437 354.767,486.771 355.5,475.5C 363.634,477.027 371.801,478.36 380,479.5C 391.553,478.723 401.553,474.389 410,466.5C 414.606,457.622 418.939,448.622 423,439.5C 427.901,413.186 426.901,387.186 420,361.5C 419.333,359.167 419.333,356.833 420,354.5C 431.029,324.504 442.696,294.504 455,264.5C 460.198,247.237 465.198,229.904 470,212.5C 472.865,200.645 474.865,188.645 476,176.5C 479.355,140.961 473.355,107.295 458,75.5C 466,82.1667 473.333,89.5 480,97.5C 481.92,100.339 483.587,103.339 485,106.5C 486.101,114.24 488.434,121.573 492,128.5C 503,142.167 514,155.833 525,169.5C 526.941,173.048 528.607,176.714 530,180.5C 530.645,188.391 532.311,196.057 535,203.5C 542.966,218.814 550.966,234.147 559,249.5C 560.867,254.102 562.534,258.768 564,263.5C 564.705,273.663 566.371,283.663 569,293.5C 575,308.167 581,322.833 587,337.5C 588.352,342.925 589.185,348.425 589.5,354C 588.589,361.823 588.422,369.656 589,377.5C 591.903,393.099 595.403,408.433 599.5,423.5 Z"/></g>
<g><path style="opacity:1" fill="#5a443a" d="M 133.5,599.5 C 129.167,599.5 124.833,599.5 120.5,599.5C 104.678,594.053 89.0115,587.886 73.5,581C 67.6636,578.749 61.6636,577.082 55.5,576C 49.5316,571.357 45.0316,565.524 42,558.5C 38.4428,548.499 34.1094,538.832 29,529.5C 26.3333,525.5 23,522.167 19,519.5C 15.2979,513.031 13.2979,506.031 13,498.5C 12.7413,484.145 12.0746,469.812 11,455.5C 9.61953,450.405 7.95287,445.405 6,440.5C 5.2891,433.785 5.62243,427.118 7,420.5C 10.8069,405.606 14.1402,390.606 17,375.5C 17.7396,367.26 17.2396,359.094 15.5,351C 15.7414,347.793 16.2414,344.626 17,341.5C 22.7732,325.286 29.1066,309.286 36,293.5C 38.4501,285.017 39.7835,276.35 40,267.5C 41.1312,263.106 42.4646,258.773 44,254.5C 51.4749,238.883 59.4749,223.55 68,208.5C 69.6667,204.167 71.3333,199.833 73,195.5C 73.0758,186.196 75.4092,177.529 80,169.5C 89.4281,157.649 99.0948,145.982 109,134.5C 115.476,124.745 119.81,114.078 122,102.5C 127.916,93.2489 135.249,85.2489 144,78.5C 132.849,103.123 127.015,129.123 126.5,156.5C 127.922,193.107 135.422,228.44 149,262.5C 161.277,292.721 173.277,323.055 185,353.5C 184.069,362.503 182.736,371.503 181,380.5C 178.515,400.62 179.182,420.62 183,440.5C 192.953,475.228 215.12,486.894 249.5,475.5C 249.494,485.203 247.661,494.536 244,503.5C 237.576,516.023 229.91,527.689 221,538.5C 216.667,546.5 212.333,554.5 208,562.5C 202.98,568.86 196.813,573.693 189.5,577C 176.178,581.663 162.844,586.33 149.5,591C 143.661,593.084 138.327,595.917 133.5,599.5 Z"/></g>
<g><path style="opacity:1" fill="#59443a" d="M 159.5,66.5 C 154.019,74.1886 149.519,82.5219 146,91.5C 132.392,127.316 129.725,163.983 138,201.5C 142.635,221.079 148.302,240.412 155,259.5C 167.592,290.358 179.925,321.358 192,352.5C 192.667,355.167 192.667,357.833 192,360.5C 183.908,388.446 183.574,416.446 191,444.5C 202.466,471.826 221.633,479.492 248.5,467.5C 248.586,468.496 248.252,469.329 247.5,470C 216.808,480.904 196.974,470.738 188,439.5C 182.621,411.559 183.788,383.893 191.5,356.5C 180.554,327.275 169.054,298.275 157,269.5C 145.088,240.183 137.088,209.85 133,178.5C 128.791,139.71 136.291,103.376 155.5,69.5C 156.852,68.4756 158.185,67.4756 159.5,66.5 Z"/></g>
<g><path style="opacity:1" fill="#59443a" d="M 204.5,195.5 C 198.959,212.429 204.792,222.762 222,226.5C 231.775,225.787 238.109,220.787 241,211.5C 243.412,196.639 237.245,187.973 222.5,185.5C 226.237,183.469 230.237,181.802 234.5,180.5C 250.349,190.931 253.849,204.598 245,221.5C 237.346,231.612 227.179,235.445 214.5,233C 201.701,228.18 195.034,218.847 194.5,205C 196.339,200.329 199.673,197.162 204.5,195.5 Z"/></g>
<g><path style="opacity:1" fill="#59433a" d="M 380.5,185.5 C 370.976,186.347 364.809,191.347 362,200.5C 360.146,213.296 365.313,221.796 377.5,226C 391.762,226.575 399.762,219.742 401.5,205.5C 401.497,201.5 400.497,197.833 398.5,194.5C 402.032,195.854 405.198,197.854 408,200.5C 410.597,217.835 403.431,228.335 386.5,232C 365.238,232.338 355.071,221.838 356,200.5C 356.598,197.692 357.765,195.192 359.5,193C 358.483,191.951 358.316,190.784 359,189.5C 360.833,186.333 363.333,183.833 366.5,182C 371.543,181.927 376.209,183.094 380.5,185.5 Z"/></g>
<g><path style="opacity:1" fill="#302826" d="M 222.5,185.5 C 237.245,187.973 243.412,196.639 241,211.5C 238.109,220.787 231.775,225.787 222,226.5C 204.792,222.762 198.959,212.429 204.5,195.5C 209.882,191.14 215.882,187.807 222.5,185.5 Z"/></g>
<g><path style="opacity:1" fill="#342b26" d="M 380.5,185.5 C 382.812,186.32 385.146,187.153 387.5,188C 386.944,188.383 386.611,188.883 386.5,189.5C 379.925,193.961 379.925,198.461 386.5,203C 393.514,203.821 396.847,200.655 396.5,193.5C 397.492,193.328 398.158,193.662 398.5,194.5C 400.497,197.833 401.497,201.5 401.5,205.5C 399.762,219.742 391.762,226.575 377.5,226C 365.313,221.796 360.146,213.296 362,200.5C 364.809,191.347 370.976,186.347 380.5,185.5 Z"/></g>
<g><path style="opacity:1" fill="#f6f5f5" d="M 386.5,189.5 C 388.527,189.338 390.527,189.505 392.5,190C 393.705,191.376 395.038,192.542 396.5,193.5C 396.847,200.655 393.514,203.821 386.5,203C 379.925,198.461 379.925,193.961 386.5,189.5 Z"/></g>
<g><path style="opacity:1" fill="#f1f1f1" d="M 229.5,189.5 C 235.129,190.623 237.296,193.956 236,199.5C 230.123,205.425 225.956,204.425 223.5,196.5C 224.1,192.904 226.1,190.571 229.5,189.5 Z"/></g>
<g><path style="opacity:1" fill="#584239" d="M 288.5,326.5 C 299.549,326.15 310.549,326.65 321.5,328C 334.234,329.934 343.067,336.767 348,348.5C 349.633,356.664 348.133,364.164 343.5,371C 344.167,371.333 344.833,371.667 345.5,372C 343.539,374.963 341.206,377.629 338.5,380C 337.551,380.617 336.718,380.451 336,379.5C 308.242,400.889 282.909,398.222 260,371.5C 258.086,367.066 256.086,363.399 254,360.5C 252.027,345.285 258.194,334.785 272.5,329C 278.064,328.751 283.398,327.918 288.5,326.5 Z"/></g>
<g><path style="opacity:1" fill="#020101" d="M 289.5,327.5 C 301.286,326.937 312.953,327.771 324.5,330C 347.522,337.525 353.022,351.692 341,372.5C 313.584,400.809 286.918,400.143 261,370.5C 250.462,353.153 254.295,339.986 272.5,331C 278.176,330.335 283.842,329.168 289.5,327.5 Z"/></g>
<g><path style="opacity:1" fill="#5a443a" d="M 290.5,332.5 C 306.485,330.607 321.485,333.44 335.5,341C 342.223,346.505 344.057,353.339 341,361.5C 337.611,369.555 332.111,375.722 324.5,380C 301.955,392.327 282.455,388.494 266,368.5C 263.631,363.716 261.465,358.883 259.5,354C 260.409,347.103 263.742,341.77 269.5,338C 276.53,335.934 283.53,334.101 290.5,332.5 Z"/></g>
<g><path style="opacity:1" fill="#564138" d="M 441.5,62.5 C 445.219,65.0541 448.052,68.3875 450,72.5C 472.851,116.826 477.851,163.159 465,211.5C 460.198,228.904 455.198,246.237 450,263.5C 438.056,293.055 426.39,322.721 415,352.5C 414.333,356.167 414.333,359.833 415,363.5C 421.784,388.192 422.784,413.192 418,438.5C 414.273,446.955 410.273,455.288 406,463.5C 398.736,469.979 390.236,473.645 380.5,474.5C 373.83,473.399 367.163,472.233 360.5,471C 358.081,470.71 356.747,469.876 356.5,468.5C 364.607,470.397 372.774,472.064 381,473.5C 391.045,471.616 399.545,466.949 406.5,459.5C 410.273,452.288 413.773,444.955 417,437.5C 420.927,418.212 421.26,398.879 418,379.5C 415.269,371.508 413.436,363.342 412.5,355C 424.535,323.731 436.868,292.565 449.5,261.5C 449.167,260.833 448.833,260.167 448.5,259.5C 459.667,231.172 466.833,201.839 470,171.5C 472.817,131.762 463.317,95.4287 441.5,62.5 Z"/></g>
<g><path style="opacity:1" fill="#312826" d="M 319.5,450.5 C 307.833,450.5 296.167,450.5 284.5,450.5C 289.5,446.082 295.334,443.082 302,441.5C 308.666,443.082 314.5,446.082 319.5,450.5 Z"/></g>
<g><path style="opacity:0.961" fill="#000000" d="M 599.5,442.5 C 599.5,468.167 599.5,493.833 599.5,519.5C 596.962,524.878 593.129,529.211 588,532.5C 581.093,545.982 574.426,559.649 568,573.5C 560.766,584.446 550.766,589.779 538,589.5C 531.06,592.72 524.227,596.054 517.5,599.5C 506.833,599.5 496.167,599.5 485.5,599.5C 493.5,597.016 501.5,594.183 509.5,591C 521.694,584.157 534.694,579.49 548.5,577C 551.902,575.6 554.736,573.433 557,570.5C 563.53,558.106 569.53,545.44 575,532.5C 576.333,530.5 577.667,528.5 579,526.5C 586.913,521.349 591.246,514.016 592,504.5C 592.908,488.156 593.908,471.823 595,455.5C 595.985,450.891 597.485,446.557 599.5,442.5 Z"/></g>
<g><path style="opacity:1" fill="#564138" d="M 326.5,447.5 C 327.895,450.733 330.228,453.233 333.5,455C 338.769,458.13 344.102,460.963 349.5,463.5C 340.982,461.499 333.482,457.499 327,451.5C 326.51,450.207 326.343,448.873 326.5,447.5 Z"/></g>
<g><path style="opacity:1" fill="#594339" d="M 284.5,450.5 C 296.167,450.5 307.833,450.5 319.5,450.5C 324.579,456.405 330.579,461.405 337.5,465.5C 313.368,470.954 289.368,470.787 265.5,465C 271.893,460.149 278.227,455.316 284.5,450.5 Z"/></g>
</svg>
