<?xml version="1.0" encoding="UTF-8"?>
<!DOCTYPE svg PUBLIC "-//W3C//DTD SVG 1.1//EN" "http://www.w3.org/Graphics/SVG/1.1/DTD/svg11.dtd">
<svg xmlns="http://www.w3.org/2000/svg" version="1.1" width="600px" height="600px" style="shape-rendering:geometricPrecision; text-rendering:geometricPrecision; image-rendering:optimizeQuality; fill-rule:evenodd; clip-rule:evenodd" xmlns:xlink="http://www.w3.org/1999/xlink">
<g><path style="opacity:0.969" fill="#020101" d="M 51.5,-0.5 C 64.8333,-0.5 78.1667,-0.5 91.5,-0.5C 109.024,12.4624 125.691,26.6291 141.5,42C 171.861,72.0278 201.861,102.361 231.5,133C 236.5,137.333 241.5,141.667 246.5,146C 252.235,148.601 258.235,150.267 264.5,151C 287.833,153 311.167,153 334.5,151C 342.068,150.255 349.068,147.922 355.5,144C 379.016,119.118 402.183,93.9514 425,68.5C 438.5,55 452,41.5 465.5,28C 477.112,17.8747 489.112,8.37466 501.5,-0.5C 517.833,-0.5 534.167,-0.5 550.5,-0.5C 555.136,7.90506 558.303,16.9051 560,26.5C 565.797,61.4144 568.63,96.5811 568.5,132C 568.109,158.566 566.609,185.066 564,211.5C 562.44,235.181 555.106,256.848 542,276.5C 533,289.167 524,301.833 515,314.5C 505.636,329.593 499.636,345.926 497,363.5C 496.983,389.834 496.983,416.167 497,442.5C 496.64,465.273 490.974,486.607 480,506.5C 476.246,512.258 471.746,517.425 466.5,522C 453.506,532.17 439.506,540.837 424.5,548C 410.908,563.282 395.908,576.949 379.5,589C 374.36,591.269 369.027,592.935 363.5,594C 360.379,595.306 357.713,597.14 355.5,599.5C 319.5,599.5 283.5,599.5 247.5,599.5C 245.287,597.14 242.621,595.306 239.5,594C 233.227,592.798 227.227,590.798 221.5,588C 213.833,581.667 206.167,575.333 198.5,569C 193.133,563.968 188.133,558.635 183.5,553C 164.684,544.433 147.017,534.099 130.5,522C 114.514,505.854 105.681,486.354 104,463.5C 103.224,455.851 102.724,448.185 102.5,440.5C 103.667,417.657 105.001,394.824 106.5,372C 105.99,351.815 100.157,333.315 89,316.5C 77.2795,301.113 65.9462,285.446 55,269.5C 45.3206,253.128 39.6539,235.462 38,216.5C 32.3878,155.343 33.7212,94.3434 42,33.5C 43.9288,21.7803 47.0955,10.447 51.5,-0.5 Z"/></g>
<g><path style="opacity:1" fill="#2e2624" d="M 64.5,0.5 C 71.4822,0.771854 77.8156,2.93852 83.5,7C 95.1976,15.5187 106.531,24.5187 117.5,34C 152.833,68 187.5,102.667 221.5,138C 227.5,143.333 233.5,148.667 239.5,154C 247.646,158.206 256.313,160.872 265.5,162C 289.881,164.266 314.214,163.932 338.5,161C 345.357,159.619 352.023,157.619 358.5,155C 363.968,150.533 369.135,145.7 374,140.5C 408.065,101.432 443.898,63.9321 481.5,28C 492.74,18.1008 505.074,9.76749 518.5,3C 533.479,-3.92646 542.979,0.57354 547,16.5C 551.061,32.5934 553.728,48.9268 555,65.5C 558.672,115.231 558.005,164.898 553,214.5C 551.042,234.374 544.709,252.707 534,269.5C 525,282.167 516,294.833 507,307.5C 499.365,320.102 493.365,333.435 489,347.5C 487.319,354.405 486.485,361.405 486.5,368.5C 481.732,366.941 477.399,367.774 473.5,371C 462.875,386.625 449.875,399.958 434.5,411C 424.535,416.143 414.202,416.81 403.5,413C 388.14,405.818 372.14,403.151 355.5,405C 349.872,409.678 348.372,415.511 351,422.5C 363.916,447.653 374.582,473.653 383,500.5C 386.634,516.725 387.301,533.059 385,549.5C 382.455,554.421 380.622,559.587 379.5,565C 379.817,568.118 380.817,570.951 382.5,573.5C 373.733,581.284 363.399,584.951 351.5,584.5C 348.167,584.333 344.833,584.167 341.5,584C 330.363,580.732 319.363,577.066 308.5,573C 303.5,572.333 298.5,572.333 293.5,573C 285.059,575.721 276.726,578.721 268.5,582C 252.182,586.861 236.849,584.861 222.5,576C 221.643,575.311 220.977,574.478 220.5,573.5C 222.183,570.951 223.183,568.118 223.5,565C 222.101,559.365 220.267,553.865 218,548.5C 214.659,518.537 219.326,489.871 232,462.5C 237.454,449.591 243.454,436.924 250,424.5C 252.771,417.15 250.938,411.316 244.5,407C 240.54,405.975 236.54,405.141 232.5,404.5C 217.65,407.616 202.983,411.45 188.5,416C 185.294,416.296 182.128,416.796 179,417.5C 168.918,415.542 160.084,411.042 152.5,404C 144.414,396.25 136.747,388.25 129.5,380C 125.008,377.945 120.841,378.445 117,381.5C 117.897,364.55 115.23,348.217 109,332.5C 106.439,326.275 103.439,320.275 100,314.5C 88.3333,298.167 76.6667,281.833 65,265.5C 54.7176,248.985 49.051,230.985 48,211.5C 43.5789,152.686 44.9122,94.0194 52,35.5C 53.3251,22.6829 57.4917,11.0162 64.5,0.5 Z"/></g>
<g><path style="opacity:1" fill="#040201" d="M 519.5,16.5 C 526.094,15.7674 531.26,18.1007 535,23.5C 540.926,43.388 544.593,63.7214 546,84.5C 548.963,120.004 547.629,155.337 542,190.5C 539.264,209.403 532.264,226.403 521,241.5C 504.588,257.998 485.422,261.831 463.5,253C 433.185,237.023 411.685,213.19 399,181.5C 396.803,170.876 397.803,160.542 402,150.5C 428.286,102.516 462.453,60.6828 504.5,25C 508.989,21.0937 513.989,18.2604 519.5,16.5 Z"/></g>
<g><path style="opacity:1" fill="#040302" d="M 74.5,19.5 C 78.247,19.3924 81.9137,19.8924 85.5,21C 91.6775,23.9193 97.3441,27.5859 102.5,32C 141.898,66.7113 173.732,107.211 198,153.5C 205.305,171.763 203.638,189.097 193,205.5C 179.567,228.6 160.734,245.767 136.5,257C 101.463,268.231 77.963,256.398 66,221.5C 58.8213,199.757 54.488,177.424 53,154.5C 49.7513,113.688 52.7513,73.3549 62,33.5C 63.6917,26.3421 67.8583,21.6754 74.5,19.5 Z"/></g>
<g><path style="opacity:1" fill="#c38027" d="M 519.5,27.5 C 521.199,27.3398 522.866,27.5065 524.5,28C 526.068,30.3041 527.235,32.8041 528,35.5C 538.584,83.5114 540.25,131.845 533,180.5C 530.48,199.605 524.147,217.272 514,233.5C 502.598,246.142 488.765,249.975 472.5,245C 446.017,233.23 426.184,214.397 413,188.5C 408.935,180.261 407.601,171.594 409,162.5C 415.945,145.269 424.945,129.269 436,114.5C 454.938,88.8827 476.105,65.0494 499.5,43C 506.067,37.5874 512.733,32.4207 519.5,27.5 Z"/></g>
<g><path style="opacity:1" fill="#c38027" d="M 75.5,30.5 C 79.1309,30.1604 82.4642,30.9937 85.5,33C 121.81,63.5193 152.644,98.686 178,138.5C 184.026,148.22 188.693,158.553 192,169.5C 192.623,180.311 189.956,190.311 184,199.5C 172.12,218.38 156.62,233.547 137.5,245C 108.787,258.063 88.6199,249.896 77,220.5C 68.2534,195.949 63.5868,170.616 63,144.5C 60.4929,109.415 63.1595,74.7483 71,40.5C 71.8358,36.8091 73.3358,33.4757 75.5,30.5 Z"/></g>
<g><path style="opacity:1" fill="#be7d27" d="M 196.5,290.5 C 217.468,287.996 231.302,296.662 238,316.5C 240.692,336.622 232.525,350.122 213.5,357C 192.907,360.041 179.074,351.875 172,332.5C 169.08,312.005 177.246,298.005 196.5,290.5 Z"/></g>
<g><path style="opacity:1" fill="#be7d27" d="M 390.5,290.5 C 415.09,288.606 429.09,299.773 432.5,324C 430.461,345.04 418.961,356.207 398,357.5C 377.294,355.627 366.127,344.293 364.5,323.5C 365.767,306.618 374.434,295.618 390.5,290.5 Z"/></g>
<g><path style="opacity:1" fill="#010100" d="M 198.5,301.5 C 219.313,300.146 228.813,309.813 227,330.5C 223.481,341.011 216.148,346.677 205,347.5C 191.167,345.667 183.333,337.833 181.5,324C 182.506,312.845 188.172,305.345 198.5,301.5 Z"/></g>
<g><path style="opacity:1" fill="#020100" d="M 392.5,301.5 C 409.378,299.892 419.045,307.392 421.5,324C 417.751,344.377 406.085,351.044 386.5,344C 374.977,335.315 372.477,324.481 379,311.5C 382.56,306.756 387.06,303.423 392.5,301.5 Z"/></g>
<g><path style="opacity:1" fill="#eeeeee" d="M 209.5,309.5 C 215.991,309.156 218.825,312.156 218,318.5C 213.528,324.073 209.528,323.74 206,317.5C 205.777,314.275 206.943,311.609 209.5,309.5 Z"/></g>
<g><path style="opacity:1" fill="#eeeeee" d="M 402.5,309.5 C 411.307,309.465 413.64,313.298 409.5,321C 401.735,323.575 398.568,320.742 400,312.5C 401.045,311.627 401.878,310.627 402.5,309.5 Z"/></g>
<g><path style="opacity:1" fill="#c38027" d="M 481.5,377.5 C 471.674,425.129 455.507,470.796 433,514.5C 422.443,534.941 408.11,552.275 390,566.5C 396.951,551.704 399.284,536.037 397,519.5C 394.135,498.706 388.468,478.706 380,459.5C 373.44,444.713 366.607,430.046 359.5,415.5C 360.025,414.808 360.692,414.308 361.5,414C 364.5,413.333 367.5,413.333 370.5,414C 383.108,417.869 395.775,421.536 408.5,425C 420.62,427.167 431.953,425.167 442.5,419C 458.49,407.848 471.49,394.014 481.5,377.5 Z"/></g>
<g><path style="opacity:1" fill="#c38027" d="M 123.5,389.5 C 131.267,399.102 139.934,407.935 149.5,416C 156.041,420.54 163.041,424.207 170.5,427C 178.548,427.775 186.548,427.442 194.5,426C 205.445,422.463 216.445,419.129 227.5,416C 231.167,415.333 234.833,415.333 238.5,416C 239.428,416.388 240.095,417.055 240.5,418C 229.816,439.201 220.649,461.034 213,483.5C 206.807,502.711 204.474,522.378 206,542.5C 207.365,550.915 209.699,558.915 213,566.5C 202.667,558.833 193.667,549.833 186,539.5C 167.367,511.9 152.701,482.234 142,450.5C 135.054,430.379 128.888,410.045 123.5,389.5 Z"/></g>
<g><path style="opacity:1" fill="#2b2220" d="M 114.5,403.5 C 115.497,403.47 116.164,403.97 116.5,405C 128.025,450.469 145.025,493.302 167.5,533.5C 152.37,526.026 139.203,516.026 128,503.5C 119.726,490.01 115.059,475.344 114,459.5C 113.411,440.826 113.577,422.159 114.5,403.5 Z"/></g>
<g><path style="opacity:1" fill="#2b2220" d="M 485.5,408.5 C 488.385,434.132 486.218,459.465 479,484.5C 471.168,504.993 457.334,519.493 437.5,528C 458.88,490.368 474.88,450.535 485.5,408.5 Z"/></g>
<g><path style="opacity:1" fill="#000000" d="M 286.5,448.5 C 301.342,447.759 316.009,448.925 330.5,452C 345.811,457.829 354.144,468.995 355.5,485.5C 350.475,516.354 332.308,533.354 301,536.5C 278.558,534.454 262.225,523.454 252,503.5C 242.764,471.948 254.264,453.614 286.5,448.5 Z"/></g>
</svg>
