<?xml version="1.0" encoding="UTF-8"?>
<!DOCTYPE svg PUBLIC "-//W3C//DTD SVG 1.1//EN" "http://www.w3.org/Graphics/SVG/1.1/DTD/svg11.dtd">
<svg xmlns="http://www.w3.org/2000/svg" version="1.1" width="600px" height="600px" style="shape-rendering:geometricPrecision; text-rendering:geometricPrecision; image-rendering:optimizeQuality; fill-rule:evenodd; clip-rule:evenodd" xmlns:xlink="http://www.w3.org/1999/xlink">
<g><path style="opacity:0.951" fill="#000000" d="M 179.5,-0.5 C 187.5,-0.5 195.5,-0.5 203.5,-0.5C 209.141,2.97614 213.641,7.6428 217,13.5C 232.672,53.1783 249.172,92.5117 266.5,131.5C 268.667,131.833 270.833,132.167 273,132.5C 293.07,131.622 313.07,131.288 333,131.5C 349.115,94.489 364.448,57.1557 379,19.5C 382.88,11.353 388.38,4.68637 395.5,-0.5C 403.833,-0.5 412.167,-0.5 420.5,-0.5C 432.332,7.78468 440.832,18.7847 446,32.5C 470.658,96.0995 478.658,161.766 470,229.5C 469.333,238.5 469.333,247.5 470,256.5C 477.081,303.398 483.414,350.398 489,397.5C 498.321,446.218 487.321,489.551 456,527.5C 423.04,564.736 382.207,588.736 333.5,599.5C 310.833,599.5 288.167,599.5 265.5,599.5C 204.161,585.939 156.995,552.606 124,499.5C 114.218,480.873 108.718,461.039 107.5,440C 108.204,423.136 109.371,406.303 111,389.5C 116.533,345.771 122.533,302.104 129,258.5C 128.501,231.169 127.668,203.836 126.5,176.5C 125.842,125.96 135.008,77.2936 154,30.5C 159.228,17.3191 167.728,6.98578 179.5,-0.5 Z"/></g>
<g><path style="opacity:1" fill="#32312f" d="M 186.5,7.5 C 195.938,6.80202 203.105,10.4687 208,18.5C 224.529,60.4245 242.029,101.925 260.5,143C 286.843,142.562 313.177,142.396 339.5,142.5C 356.879,102.863 373.379,62.8633 389,22.5C 397.16,5.82367 408.493,3.15701 423,14.5C 430.473,23.7738 436.139,34.1071 440,45.5C 461.693,106.185 468.026,168.518 459,232.5C 458.333,239.5 458.333,246.5 459,253.5C 466.507,303.05 473.174,352.717 479,402.5C 486.958,446.341 476.958,485.341 449,519.5C 394.632,580.733 327.465,602.233 247.5,584C 201.556,569.302 165.056,542.136 138,502.5C 122.222,477.386 115.889,450.053 119,420.5C 120.423,400.113 122.423,379.779 125,359.5C 130.218,324.19 135.218,288.857 140,253.5C 139.167,226.503 138.001,199.503 136.5,172.5C 136.76,124.365 145.927,78.0316 164,33.5C 168.524,22.1508 176.024,13.4841 186.5,7.5 Z"/></g>
<g><path style="opacity:1" fill="#030302" d="M 190.5,14.5 C 196.622,14.8144 201.788,17.1477 206,21.5C 209.816,26.9307 212.482,32.9307 214,39.5C 224.467,75.3029 232.467,111.636 238,148.5C 238.667,156.5 238.667,164.5 238,172.5C 237.416,181.17 233.582,188.003 226.5,193C 210.303,205.19 195.303,218.857 181.5,234C 174.723,237.426 167.723,238.093 160.5,236C 154.636,232.438 151.136,227.272 150,220.5C 138.651,156.999 144.651,95.3323 168,35.5C 171.739,27.5284 177.239,21.0284 184.5,16C 186.708,15.8091 188.708,15.3091 190.5,14.5 Z"/></g>
<g><path style="opacity:1" fill="#030202" d="M 403.5,14.5 C 412.636,14.318 419.803,17.9846 425,25.5C 434.563,43.8511 441.563,63.1844 446,83.5C 456.177,129.286 457.177,175.286 449,221.5C 446.655,231.508 440.322,236.841 430,237.5C 425.229,236.799 420.729,235.299 416.5,233C 402.697,217.857 387.697,204.19 371.5,192C 364.781,186.862 361.281,180.029 361,171.5C 360.016,157.366 361.016,143.366 364,129.5C 368.386,105.955 373.72,82.6213 380,59.5C 383.08,47.1764 387.08,35.1764 392,23.5C 395.183,19.4622 399.016,16.4622 403.5,14.5 Z"/></g>
<g><path style="opacity:1" fill="#f7cfcf" d="M 188.5,25.5 C 192.287,24.8144 195.454,25.8144 198,28.5C 203.526,41.0792 207.86,54.0792 211,67.5C 217.483,91.5834 222.817,115.917 227,140.5C 229.287,153.29 228.953,165.956 226,178.5C 208.876,192.623 192.709,207.79 177.5,224C 165.721,229.948 159.554,226.114 159,212.5C 149.676,155.736 155.01,100.403 175,46.5C 178.015,38.4518 182.515,31.4518 188.5,25.5 Z"/></g>
<g><path style="opacity:1" fill="#f7cfcf" d="M 403.5,25.5 C 407.219,25.0025 410.553,25.8358 413.5,28C 420.716,38.6014 426.216,50.1014 430,62.5C 445.763,114.08 448.763,166.413 439,219.5C 436.792,226.11 432.292,228.276 425.5,226C 416.916,218.42 408.583,210.42 400.5,202C 391.667,194.5 382.833,187 374,179.5C 372.154,176.431 371.154,173.098 371,169.5C 370.283,160.464 370.616,151.464 372,142.5C 378.152,105.893 386.818,69.8932 398,34.5C 399.343,31.1381 401.176,28.1381 403.5,25.5 Z"/></g>
<g><path style="opacity:1" fill="#dad3c7" d="M 245.5,231.5 C 250.742,231.023 255.742,231.856 260.5,234C 270.584,240.849 276.918,250.183 279.5,262C 279.421,272.076 274.421,277.743 264.5,279C 279.941,298.793 277.274,315.793 256.5,330C 242.629,338.55 227.629,341.55 211.5,339C 192.018,330.874 184.518,316.374 189,295.5C 194.91,280.256 205.077,268.756 219.5,261C 225.288,258.023 231.121,255.189 237,252.5C 235.044,243.531 237.877,236.531 245.5,231.5 Z"/></g>
<g><path style="opacity:1" fill="#dad3c7" d="M 342.5,231.5 C 358.076,230.747 364.409,238.081 361.5,253.5C 381.739,259.371 397.239,271.371 408,289.5C 414.775,305.955 411.942,320.455 399.5,333C 395.557,335.804 391.223,337.804 386.5,339C 362.451,342.103 342.951,334.269 328,315.5C 324.294,308.443 323.628,301.11 326,293.5C 328.203,288.256 331.036,283.422 334.5,279C 322.043,276.088 317.543,268.255 321,255.5C 325.582,245.089 332.749,237.089 342.5,231.5 Z"/></g>
<g><path style="opacity:1" fill="#786559" d="M 255.5,288.5 C 258.871,302.746 253.538,312.413 239.5,317.5C 231.335,317.567 224.668,314.567 219.5,308.5C 213.693,295.448 217.026,285.448 229.5,278.5C 240.287,276.224 248.953,279.557 255.5,288.5 Z"/></g>
<g><path style="opacity:1" fill="#786559" d="M 370.5,278.5 C 370.062,278.435 369.728,278.601 369.5,279C 382.085,285.255 385.418,294.755 379.5,307.5C 379.624,308.107 379.957,308.44 380.5,308.5C 374.853,314.391 367.853,317.391 359.5,317.5C 345.257,312.683 340.257,303.016 344.5,288.5C 350.822,279.06 359.489,275.726 370.5,278.5 Z"/></g>
<g><path style="opacity:1" fill="#21201e" d="M 229.5,278.5 C 217.026,285.448 213.693,295.448 219.5,308.5C 213.799,303.128 208.799,297.128 204.5,290.5C 211.379,283.561 219.713,279.561 229.5,278.5 Z"/></g>
<g><path style="opacity:1" fill="#1f1f1d" d="M 370.5,278.5 C 379.886,279.86 387.886,283.86 394.5,290.5C 390.308,296.892 385.641,302.892 380.5,308.5C 379.957,308.44 379.624,308.107 379.5,307.5C 385.418,294.755 382.085,285.255 369.5,279C 369.728,278.601 370.062,278.435 370.5,278.5 Z"/></g>
<g><path style="opacity:1" fill="#1e1e1c" d="M 232.5,285.5 C 244.044,284.208 248.877,289.208 247,300.5C 244.037,306.561 239.203,308.728 232.5,307C 226.439,304.037 224.272,299.203 226,292.5C 227.694,289.642 229.861,287.309 232.5,285.5 Z"/></g>
<g><path style="opacity:1" fill="#1f1f1d" d="M 358.5,285.5 C 370.462,284.439 375.295,289.773 373,301.5C 369.723,307.109 364.89,308.942 358.5,307C 352.439,304.037 350.272,299.203 352,292.5C 353.694,289.642 355.861,287.309 358.5,285.5 Z"/></g>
<g><path style="opacity:1" fill="#1f1f1c" d="M 255.5,288.5 C 261.69,296.533 264.023,305.533 262.5,315.5C 254.854,316.457 247.188,317.124 239.5,317.5C 253.538,312.413 258.871,302.746 255.5,288.5 Z"/></g>
<g><path style="opacity:1" fill="#22211f" d="M 344.5,288.5 C 340.257,303.016 345.257,312.683 359.5,317.5C 351.594,317.101 343.76,316.434 336,315.5C 334.965,308.848 335.965,302.515 339,296.5C 340.306,293.379 342.14,290.713 344.5,288.5 Z"/></g>
<g><path style="opacity:1" fill="#e5e5e5" d="M 239.5,290.5 C 244.942,290.886 246.275,293.386 243.5,298C 237.403,298.147 236.07,295.647 239.5,290.5 Z"/></g>
<g><path style="opacity:1" fill="#f1f1f1" d="M 365.5,290.5 C 368.352,290.352 370.019,291.686 370.5,294.5C 368.43,299.586 366.096,299.753 363.5,295C 363.519,293.167 364.185,291.667 365.5,290.5 Z"/></g>
<g><path style="opacity:1" fill="#040403" d="M 276.5,386.5 C 274.657,394.517 272.49,402.517 270,410.5C 269.333,412.5 269.333,414.5 270,416.5C 276.711,428.726 286.545,437.059 299.5,441.5C 312.503,437.004 322.336,428.671 329,416.5C 329.667,412.5 329.667,408.5 329,404.5C 326.755,398.227 324.921,391.894 323.5,385.5C 321.119,376.138 319.452,366.638 318.5,357C 319.209,351.122 322.542,347.622 328.5,346.5C 333.531,347.152 338.531,347.985 343.5,349C 344.5,350 345.5,351 346.5,352C 357.833,358 369.167,364 380.5,370C 384.894,372.469 389.561,373.469 394.5,373C 412.041,363.798 424.208,349.965 431,331.5C 437.17,320.872 444.504,319.872 453,328.5C 455.597,352.93 458.264,377.264 461,401.5C 464.731,436.961 458.397,470.294 442,501.5C 413.663,540.711 376.163,566.545 329.5,579C 305.971,583.83 282.637,583.163 259.5,577C 223.707,564.25 192.873,543.75 167,515.5C 148.112,489.95 138.445,460.95 138,428.5C 137.333,420.5 137.333,412.5 138,404.5C 141.555,377.679 144.222,350.679 146,323.5C 152.163,314.113 159.33,313.28 167.5,321C 170.596,324.182 172.429,328.016 173,332.5C 179.086,345.942 187.586,357.776 198.5,368C 202.385,369.853 206.385,371.52 210.5,373C 214.438,372.349 218.438,371.349 222.5,370C 236.398,363.102 250.065,355.769 263.5,348C 270.558,346.382 276.392,348.216 281,353.5C 281.167,355.833 281.333,358.167 281.5,360.5C 280.47,369.288 278.803,377.955 276.5,386.5 Z"/></g>
<g><path style="opacity:1" fill="#dcd4c9" d="M 315.5,570.5 C 307.868,571.358 300.201,571.691 292.5,571.5C 248.514,564.592 211.348,544.925 181,512.5C 154.841,480.562 144.174,443.896 149,402.5C 151.487,376.803 154.154,351.136 157,325.5C 161.852,335.045 166.519,344.712 171,354.5C 177.7,367.535 187.867,376.702 201.5,382C 211.825,384.434 221.825,383.434 231.5,379C 244.667,371.833 257.833,364.667 271,357.5C 267.982,373.577 264.315,389.577 260,405.5C 257.612,421.213 262.779,433.713 275.5,443C 292.354,455.877 309.021,455.544 325.5,442C 338.207,430.878 342.707,417.044 339,400.5C 335.725,386.235 332.225,372.068 328.5,358C 330.167,357.333 331.833,357.333 333.5,358C 348.761,366.797 364.427,374.797 380.5,382C 397.247,385.528 411.414,381.028 423,368.5C 431.217,357.403 437.883,345.403 443,332.5C 445.222,353.154 447.555,373.821 450,394.5C 458.202,454.625 438.035,502.459 389.5,538C 366.936,553.445 342.27,564.278 315.5,570.5 Z"/></g>
<g><path style="opacity:1" fill="#221714" d="M 323.5,385.5 C 324.921,391.894 326.755,398.227 329,404.5C 329.667,408.5 329.667,412.5 329,416.5C 322.336,428.671 312.503,437.004 299.5,441.5C 286.545,437.059 276.711,428.726 270,416.5C 269.333,414.5 269.333,412.5 270,410.5C 272.49,402.517 274.657,394.517 276.5,386.5C 276.56,387.043 276.893,387.376 277.5,387.5C 284.443,385.08 291.61,384.08 299,384.5C 306.863,384.12 314.529,385.12 322,387.5C 323.03,387.164 323.53,386.497 323.5,385.5 Z"/></g>
<g><path style="opacity:1" fill="#39312e" d="M 267.5,469.5 C 267.833,469.5 268.167,469.5 268.5,469.5C 269.174,476.202 270.174,482.869 271.5,489.5C 271.457,490.416 271.124,491.083 270.5,491.5C 260.868,482.369 251.368,473.036 242,463.5C 236.18,453.208 232.68,442.208 231.5,430.5C 232.978,430.238 234.311,430.571 235.5,431.5C 238.011,442.201 242.177,452.201 248,461.5C 253.076,467.582 259.576,470.249 267.5,469.5 Z"/></g>
<g><path style="opacity:1" fill="#39312e" d="M 327.5,492.5 C 328.727,484.806 330.06,477.14 331.5,469.5C 343.465,470.042 351.632,464.709 356,453.5C 359.133,446.768 361.466,439.768 363,432.5C 364.931,429.895 366.764,429.895 368.5,432.5C 366.338,443.49 362.505,453.823 357,463.5C 347.298,473.369 337.465,483.036 327.5,492.5 Z"/></g>
<g><path style="opacity:1" fill="#cf8683" d="M 302.5,462.5 C 300.572,464.474 298.239,465.974 295.5,467C 288.513,469.106 281.68,471.606 275,474.5C 272.683,473.015 270.516,471.348 268.5,469.5C 268.167,469.5 267.833,469.5 267.5,469.5C 278.724,465.449 290.39,463.115 302.5,462.5 Z"/></g>
<g><path style="opacity:1" fill="#f29b98" d="M 302.5,462.5 C 312.462,464.075 322.128,466.408 331.5,469.5C 330.06,477.14 328.727,484.806 327.5,492.5C 325.517,502.995 320.183,511.161 311.5,517C 297.7,522.595 286.533,519.429 278,507.5C 275.792,501.931 273.292,496.598 270.5,491.5C 271.124,491.083 271.457,490.416 271.5,489.5C 270.174,482.869 269.174,476.202 268.5,469.5C 270.516,471.348 272.683,473.015 275,474.5C 281.68,471.606 288.513,469.106 295.5,467C 298.239,465.974 300.572,464.474 302.5,462.5 Z"/></g>
<g><path style="opacity:1" fill="#3d3b38" d="M 315.5,570.5 C 314.737,571.268 313.737,571.768 312.5,572C 305.654,572.821 298.987,572.654 292.5,571.5C 300.201,571.691 307.868,571.358 315.5,570.5 Z"/></g>
</svg>
