<?xml version="1.0" encoding="UTF-8"?>
<!DOCTYPE svg PUBLIC "-//W3C//DTD SVG 1.1//EN" "http://www.w3.org/Graphics/SVG/1.1/DTD/svg11.dtd">
<svg xmlns="http://www.w3.org/2000/svg" version="1.1" width="600px" height="600px" style="shape-rendering:geometricPrecision; text-rendering:geometricPrecision; image-rendering:optimizeQuality; fill-rule:evenodd; clip-rule:evenodd" xmlns:xlink="http://www.w3.org/1999/xlink">
<g><path style="opacity:0.958" fill="#000000" d="M 224.5,-0.5 C 231.833,-0.5 239.167,-0.5 246.5,-0.5C 256.376,2.51911 265.876,6.51911 275,11.5C 277.449,11.1387 279.782,10.472 282,9.5C 282.836,5.80906 284.336,2.47572 286.5,-0.5C 295.167,-0.5 303.833,-0.5 312.5,-0.5C 314.681,2.52769 316.347,5.86103 317.5,9.5C 319.542,10.5524 321.708,11.2191 324,11.5C 333.154,6.50142 342.654,2.50142 352.5,-0.5C 360.167,-0.5 367.833,-0.5 375.5,-0.5C 380.725,4.56814 381.725,10.4015 378.5,17C 398.125,15.2085 417.458,16.8752 436.5,22C 443.559,24.9532 446.226,30.1199 444.5,37.5C 453.17,38.953 461.836,40.453 470.5,42C 477.608,42.5727 483.108,45.7393 487,51.5C 489.357,57.1909 488.524,62.3575 484.5,67C 493.051,70.8531 501.718,74.5198 510.5,78C 514.615,80.4476 518.448,83.2809 522,86.5C 525.828,93.0392 524.994,98.8725 519.5,104C 527.5,109.333 535.5,114.667 543.5,120C 547.036,123.201 550.203,126.701 553,130.5C 556.069,137.461 554.569,143.128 548.5,147.5C 555.184,154.35 561.684,161.35 568,168.5C 575.153,179.233 572.986,187.233 561.5,192.5C 567.582,199.748 573.082,207.415 578,215.5C 581.471,221.925 582.137,228.592 580,235.5C 576.949,238.912 573.115,240.912 568.5,241.5C 575.024,256.073 580.358,271.073 584.5,286.5C 583.68,294.987 579.014,299.32 570.5,299.5C 572.781,316.522 575.281,333.522 578,350.5C 580.717,361.747 576.717,369.08 566,372.5C 564.989,371.663 563.822,371.33 562.5,371.5C 563.245,387.877 564.579,404.21 566.5,420.5C 567.397,435.625 560.731,441.625 546.5,438.5C 545.324,441.636 545.324,444.803 546.5,448C 546.082,450.763 545.416,453.43 544.5,456C 545.236,463.349 542.902,469.682 537.5,475C 532.901,477.93 528.234,478.097 523.5,475.5C 520.702,483.344 518.202,491.344 516,499.5C 512.198,510.487 505.032,513.987 494.5,510C 493.667,509.167 492.833,508.333 492,507.5C 488.916,518.177 483.416,527.344 475.5,535C 469.308,538.491 463.475,537.991 458,533.5C 454.922,539.991 451.588,546.325 448,552.5C 444.299,557.882 439.299,561.215 433,562.5C 427.027,561.859 422.693,558.859 420,553.5C 415.944,561.783 410.777,569.283 404.5,576C 396.874,581.444 389.708,580.611 383,573.5C 382.138,571.913 381.471,570.246 381,568.5C 377.586,574.997 373.919,581.33 370,587.5C 362.128,596.743 353.795,597.41 345,589.5C 342.529,582.984 341.862,576.317 343,569.5C 339.513,579.797 335.347,589.797 330.5,599.5C 322.5,599.5 314.5,599.5 306.5,599.5C 303.723,591.054 301.889,582.388 301,573.5C 300.581,572.328 299.915,571.328 299,570.5C 297.687,580.392 295.52,590.059 292.5,599.5C 284.5,599.5 276.5,599.5 268.5,599.5C 264.647,590.777 261.481,581.777 259,572.5C 257.92,570.004 256.586,567.67 255,565.5C 254.926,569.476 255.093,573.476 255.5,577.5C 254.285,594.43 246.452,598.43 232,589.5C 226.936,582.097 222.27,574.43 218,566.5C 214.424,577.586 207.258,580.753 196.5,576C 189.503,568.669 183.669,560.502 179,551.5C 174.567,560.648 167.734,563.148 158.5,559C 155.628,556.463 153.128,553.63 151,550.5C 148.174,544.178 144.841,538.178 141,532.5C 132.802,538.475 125.468,537.475 119,529.5C 114.624,522.081 110.791,514.414 107.5,506.5C 101.084,512.973 94.5837,512.973 88,506.5C 85.3975,502.7 83.5641,498.533 82.5,494C 80.7446,487.145 78.9112,480.312 77,473.5C 70.1466,477.788 64.1466,476.788 59,470.5C 57.0531,466.716 55.7198,462.716 55,458.5C 54.1296,451.185 53.463,443.852 53,436.5C 42.5653,441.95 35.8986,438.95 33,427.5C 33.5019,411.475 34.6686,395.475 36.5,379.5C 36.1667,376.833 35.8333,374.167 35.5,371.5C 30.4142,372.505 26.2475,370.838 23,366.5C 21.6932,362.939 20.8598,359.273 20.5,355.5C 23.3856,336.855 26.0523,318.188 28.5,299.5C 20.079,299.279 15.4123,294.946 14.5,286.5C 18.9778,271.208 24.3111,256.208 30.5,241.5C 17.8603,238.213 14.3603,230.546 20,218.5C 24.5947,208.97 30.4281,200.304 37.5,192.5C 25.7074,186.331 23.874,177.998 32,167.5C 37.9828,160.683 44.1495,154.016 50.5,147.5C 44.5544,143.108 43.0544,137.442 46,130.5C 48.4626,127.035 51.2959,123.869 54.5,121C 62.6601,115.086 70.9935,109.419 79.5,104C 72.6864,96.7095 73.0198,89.7095 80.5,83C 91.6758,76.7136 103.342,71.3802 115.5,67C 108.866,60.4327 108.866,53.7661 115.5,47C 127.907,41.5973 140.907,38.7639 154.5,38.5C 152.529,31.0286 155.029,25.6952 162,22.5C 170.957,19.6459 180.123,17.8126 189.5,17C 199.863,16.9246 210.196,16.7579 220.5,16.5C 217.335,9.68036 218.669,4.01369 224.5,-0.5 Z"/></g>
<g><path style="opacity:1" fill="#201d1c" d="M 296.5,4.5 C 299.119,4.23166 301.619,4.565 304,5.5C 306.39,10.0025 308.39,14.6692 310,19.5C 310.75,20.1258 311.584,20.6258 312.5,21C 318.167,21.6667 323.833,21.6667 329.5,21C 336.105,16.8644 343.105,13.531 350.5,11C 375.124,5.60139 376.624,9.10139 355,21.5C 354.51,22.7932 354.343,24.1266 354.5,25.5C 361.926,26.9873 369.426,27.9873 377,28.5C 396.122,26.2837 414.955,27.6171 433.5,32.5C 434.711,33.2739 434.711,34.1072 433.5,35C 426.557,36.2108 419.557,37.0441 412.5,37.5C 412.281,38.675 412.614,39.675 413.5,40.5C 418.971,43.1574 424.638,45.3241 430.5,47C 442.875,48.3401 455.208,50.0068 467.5,52C 471.959,52.42 475.625,54.2533 478.5,57.5C 477.91,58.7989 476.91,59.6322 475.5,60C 469.509,60.4995 463.509,60.6662 457.5,60.5C 457.297,62.3904 457.963,63.8904 459.5,65C 463.5,67.6667 467.5,70.3333 471.5,73C 484.5,78.6667 497.5,84.3333 510.5,90C 512.607,91.2635 513.607,93.0968 513.5,95.5C 507.792,95.1596 502.125,94.493 496.5,93.5C 496.491,95.3084 496.991,96.9751 498,98.5C 508.251,108.885 519.751,117.718 532.5,125C 536.981,128.314 540.981,132.148 544.5,136.5C 542.926,137.631 541.259,137.798 539.5,137C 522.582,127.977 520.082,131.143 532,146.5C 540.667,155.167 549.333,163.833 558,172.5C 560.287,175.072 561.453,178.072 561.5,181.5C 555.53,179.185 549.53,176.852 543.5,174.5C 544.425,180.442 546.258,186.109 549,191.5C 555,200.167 561,208.833 567,217.5C 569.602,221.474 571.102,225.807 571.5,230.5C 570.448,230.649 569.448,230.483 568.5,230C 564.644,226.643 560.644,223.476 556.5,220.5C 555.119,221 554.453,222 554.5,223.5C 556.706,239.996 561.54,255.663 569,270.5C 571.434,276.295 572.934,282.295 573.5,288.5C 568.941,287.462 565.274,284.962 562.5,281C 561.552,280.517 560.552,280.351 559.5,280.5C 559.334,287.175 559.5,293.842 560,300.5C 562.501,318.173 565.001,335.84 567.5,353.5C 568.71,361.844 566.543,363.177 561,357.5C 559.877,354.751 558.377,352.251 556.5,350C 555.551,349.383 554.718,349.549 554,350.5C 552.325,357.227 551.491,364.061 551.5,371C 552.143,384.213 553.309,397.38 555,410.5C 555.667,416.5 555.667,422.5 555,428.5C 554.667,428.833 554.333,429.167 554,429.5C 552.426,428.016 551.093,426.349 550,424.5C 547.847,416.869 545.014,409.536 541.5,402.5C 540.522,402.977 539.689,403.643 539,404.5C 538.333,407.167 537.667,409.833 537,412.5C 536.138,428.179 535.138,443.846 534,459.5C 533.64,461.608 532.973,463.608 532,465.5C 529.006,466.89 527.006,465.89 526,462.5C 525.097,455.99 523.597,449.656 521.5,443.5C 518.862,447.111 517.029,451.111 516,455.5C 513.243,470.531 509.243,485.197 504,499.5C 502.333,502.167 500.667,502.167 499,499.5C 497.127,492.992 495.96,486.326 495.5,479.5C 490.892,482.691 487.725,487.025 486,492.5C 482.61,501.614 478.943,510.614 475,519.5C 473.043,523.643 469.876,525.976 465.5,526.5C 464.628,520.821 464.961,515.155 466.5,509.5C 466.167,508.167 465.833,506.833 465.5,505.5C 461.19,507.976 457.69,511.31 455,515.5C 449.922,525.99 444.589,536.323 439,546.5C 437.281,548.557 435.281,550.224 433,551.5C 432.228,551.355 431.561,551.022 431,550.5C 430.727,548.899 430.227,547.399 429.5,546C 430.657,539.931 431.324,533.764 431.5,527.5C 429.345,527.372 427.345,527.872 425.5,529C 423,531.5 420.5,534 418,536.5C 411.749,545.999 405.749,555.666 400,565.5C 395.418,570.149 392.585,569.482 391.5,563.5C 392.622,556.734 393.789,550.067 395,543.5C 394.333,542.833 393.667,542.167 393,541.5C 385.137,544.694 379.137,550.027 375,557.5C 370.333,565.5 365.667,573.5 361,581.5C 355.663,586.278 353.163,585.112 353.5,578C 354.665,569.854 355.165,561.687 355,553.5C 348.351,551.588 342.351,553.255 337,558.5C 331.31,567.9 326.977,577.9 324,588.5C 323.089,591.576 321.256,593.909 318.5,595.5C 316.803,594.636 315.637,593.303 315,591.5C 313.481,584.202 312.148,576.869 311,569.5C 309.042,564.41 306.208,559.91 302.5,556C 298.726,554.817 295.559,555.651 293,558.5C 288.1,568.214 285.433,578.547 285,589.5C 282.864,597.098 279.864,597.431 276,590.5C 272.974,579.751 268.974,569.418 264,559.5C 258.832,554.33 252.665,551.497 245.5,551C 245,551.5 244.5,552 244,552.5C 243.456,561.548 243.956,570.548 245.5,579.5C 244.658,583.923 242.492,584.59 239,581.5C 233.415,572.665 228.081,563.665 223,554.5C 219.079,548.07 213.579,543.737 206.5,541.5C 204.5,541.5 203.5,542.5 203.5,544.5C 205.874,551.981 206.874,559.648 206.5,567.5C 204.173,567.753 202.173,567.086 200.5,565.5C 194.333,555.833 188.167,546.167 182,536.5C 178.799,532.964 175.299,529.797 171.5,527C 169.888,526.28 168.388,526.446 167,527.5C 167.988,534.769 168.321,542.103 168,549.5C 166.951,550.517 165.784,550.684 164.5,550C 163.333,548.833 162.167,547.667 161,546.5C 155,535.167 149,523.833 143,512.5C 140.255,508.233 136.422,505.899 131.5,505.5C 132.244,510.314 132.911,515.148 133.5,520C 133.333,521.833 133.167,523.667 133,525.5C 132.282,526.451 131.449,526.617 130.5,526C 127.567,523.736 125.4,520.902 124,517.5C 119.609,506.384 114.942,495.384 110,484.5C 108.434,482.007 106.434,480.007 104,478.5C 103.228,478.645 102.561,478.978 102,479.5C 101.871,485.914 101.204,492.247 100,498.5C 98.3333,501.167 96.6667,501.167 95,498.5C 90.4922,483.292 86.4922,467.959 83,452.5C 81.8824,449.145 80.3824,445.978 78.5,443C 77.6683,442.312 77.0016,442.479 76.5,443.5C 74.8624,450.122 73.3624,456.789 72,463.5C 70.7592,465.421 69.2592,465.754 67.5,464.5C 66.0176,460.65 65.1843,456.65 65,452.5C 64.1658,439.153 63.1658,425.82 62,412.5C 61.8298,408.647 60.4964,405.314 58,402.5C 57.3333,403.167 56.6667,403.833 56,404.5C 53.727,411.986 51.0604,419.32 48,426.5C 46.8989,428.394 45.5655,429.061 44,428.5C 43.3333,422.5 43.3333,416.5 44,410.5C 47.4638,391.575 48.1305,372.575 46,353.5C 45.9736,350.895 44.807,349.729 42.5,350C 40.3221,354.546 37.3221,358.38 33.5,361.5C 32.914,361.291 32.414,360.957 32,360.5C 31.8333,358.5 31.6667,356.5 31.5,354.5C 33.8596,337.15 36.3596,319.816 39,302.5C 39.4997,295.174 39.6663,287.841 39.5,280.5C 35.5276,281.949 32.1943,284.449 29.5,288C 28.2068,288.49 26.8734,288.657 25.5,288.5C 25.8839,284.414 26.7173,280.414 28,276.5C 36.1121,259.83 41.6121,242.33 44.5,224C 44.6125,222.338 43.9458,221.171 42.5,220.5C 38.3562,223.476 34.3562,226.643 30.5,230C 28.7627,230.612 27.7627,229.946 27.5,228C 32.1097,216.611 38.6097,206.445 47,197.5C 50.9876,190.204 53.8209,182.538 55.5,174.5C 54.1266,174.343 52.7932,174.51 51.5,175C 47.404,177.715 43.0706,179.881 38.5,181.5C 37.4173,180.635 37.2506,179.635 38,178.5C 44.919,168.246 53.2523,159.246 63,151.5C 67.7514,145.914 71.918,139.914 75.5,133.5C 75.1667,132.5 74.5,131.833 73.5,131.5C 67.5182,135.059 61.1848,136.726 54.5,136.5C 58.0187,132.148 62.0187,128.314 66.5,125C 75.1667,119.333 83.8333,113.667 92.5,108C 96.1667,103.667 99.8333,99.3333 103.5,95C 102.57,94.0093 101.404,93.5093 100,93.5C 95.2407,94.7523 90.4073,95.4189 85.5,95.5C 85.7993,92.3579 87.4659,90.1912 90.5,89C 102.751,83.4721 115.084,78.1387 127.5,73C 132.678,69.5776 137.678,65.911 142.5,62C 136.338,60.708 130.004,60.0414 123.5,60C 121.342,58.6883 121.009,57.0217 122.5,55C 127.317,53.0356 132.317,51.7023 137.5,51C 154.035,50.0685 170.035,46.7352 185.5,41C 186.337,39.9887 186.67,38.8221 186.5,37.5C 157.18,35.3386 157.18,32.1719 186.5,28C 200.503,27.8843 214.503,27.8843 228.5,28C 249.302,27.7823 250.635,23.1156 232.5,14C 230.393,12.7365 229.393,10.9032 229.5,8.5C 244.005,8.94616 257.338,13.1128 269.5,21C 275.167,21.6667 280.833,21.6667 286.5,21C 287.931,20.5348 289.097,19.7014 290,18.5C 291.133,13.228 293.3,8.56132 296.5,4.5 Z"/></g>
<g><path style="opacity:1" fill="#c2762a" d="M 243.5,158.5 C 254.581,157.147 264.748,159.48 274,165.5C 278.596,175.859 276.429,184.692 267.5,192C 263.666,194.037 259.999,193.704 256.5,191C 249.054,183.554 241.554,176.054 234,168.5C 233.333,166.833 233.333,165.167 234,163.5C 236.995,161.347 240.162,159.681 243.5,158.5 Z"/></g>
<g><path style="opacity:1" fill="#c2762a" d="M 340.5,158.5 C 348.503,157.708 356.169,158.875 363.5,162C 364.899,163.062 365.899,164.395 366.5,166C 359.513,173.655 352.513,181.322 345.5,189C 338.719,195.44 332.552,194.94 327,187.5C 318.006,171.489 322.506,161.822 340.5,158.5 Z"/></g>
<g><path style="opacity:1" fill="#6c6459" d="M 221.5,223.5 C 227.419,229.074 234.086,229.907 241.5,226C 248.601,220.37 250.267,213.537 246.5,205.5C 248.424,202.434 251.257,200.434 255,199.5C 262.256,212.578 260.09,224.078 248.5,234C 235.503,242.058 223.503,240.725 212.5,230C 214.839,226.814 217.839,224.648 221.5,223.5 Z"/></g>
<g><path style="opacity:1" fill="#6c655a" d="M 352.5,205.5 C 347.874,218.915 352.541,226.915 366.5,229.5C 371.204,229.381 375.204,227.714 378.5,224.5C 381.412,226.066 384.079,228.066 386.5,230.5C 379.281,238.627 370.281,241.46 359.5,239C 347.176,234.548 340.509,225.715 339.5,212.5C 339.932,207.76 341.432,203.426 344,199.5C 346.988,201.399 349.821,203.399 352.5,205.5 Z"/></g>
<g><path style="opacity:1" fill="#000000" d="M 246.5,205.5 C 250.267,213.537 248.601,220.37 241.5,226C 234.086,229.907 227.419,229.074 221.5,223.5C 228.942,216.277 237.275,210.277 246.5,205.5 Z"/></g>
<g><path style="opacity:1" fill="#010101" d="M 352.5,205.5 C 361.751,211.092 370.418,217.425 378.5,224.5C 375.204,227.714 371.204,229.381 366.5,229.5C 352.541,226.915 347.874,218.915 352.5,205.5 Z"/></g>
<g><path style="opacity:1" fill="#040202" d="M 339.5,491.5 C 335.942,489.746 332.775,487.413 330,484.5C 327.083,480.334 324.416,476.001 322,471.5C 316.64,450.438 310.973,429.438 305,408.5C 303.691,406.024 301.858,404.024 299.5,402.5C 296.366,404.754 294.2,407.754 293,411.5C 288.749,427.418 284.749,443.418 281,459.5C 278.16,468.681 274.16,477.348 269,485.5C 266.17,488.188 263.004,490.188 259.5,491.5C 239.874,493.35 222.208,488.184 206.5,476C 196.06,466.21 188.894,454.377 185,440.5C 178.457,408.644 177.79,376.644 183,344.5C 196.068,281.126 235.068,251.126 300,254.5C 366.785,252.048 405.785,283.715 417,349.5C 421.062,379.687 420.062,409.687 414,439.5C 402.076,475.531 377.243,492.864 339.5,491.5 Z"/></g>
<g><path style="opacity:1" fill="#c4782a" d="M 342.5,481.5 C 341.135,479.14 339.135,477.473 336.5,476.5C 336.5,476.167 336.5,475.833 336.5,475.5C 332.802,468.918 329.969,461.918 328,454.5C 325.717,443.542 322.884,432.875 319.5,422.5C 317.385,414.664 314.552,406.997 311,399.5C 301.854,389.659 293.687,390.493 286.5,402C 285.786,404.648 284.786,407.148 283.5,409.5C 281.138,411.919 280.138,414.919 280.5,418.5C 280.5,418.833 280.5,419.167 280.5,419.5C 278.432,422.763 277.432,426.43 277.5,430.5C 276.85,432.435 276.517,434.435 276.5,436.5C 274.837,438.438 274.171,440.772 274.5,443.5C 273.518,446.763 272.851,450.097 272.5,453.5C 271.883,453.611 271.383,453.944 271,454.5C 268.788,461.638 266.288,468.638 263.5,475.5C 262.833,475.5 262.5,475.833 262.5,476.5C 259.874,479.816 256.54,481.816 252.5,482.5C 219.819,479.992 199.986,462.659 193,430.5C 188.116,400.769 188.45,371.102 194,341.5C 207.218,287.608 241.718,261.941 297.5,264.5C 367.595,263.094 404.429,297.427 408,367.5C 408.863,385.196 408.53,402.862 407,420.5C 404.12,456.71 384.787,477.376 349,482.5C 346.784,482.347 344.617,482.014 342.5,481.5 Z"/></g>
<g><path style="opacity:1" fill="#010000" d="M 288.5,274.5 C 305.132,273.217 321.132,275.717 336.5,282C 352.101,294.1 354.601,308.6 344,325.5C 318.205,353.593 290.372,355.759 260.5,332C 248.924,320.63 246.091,307.463 252,292.5C 256.983,285.088 263.816,280.255 272.5,278C 277.954,276.745 283.287,275.578 288.5,274.5 Z"/></g>
<g><path style="opacity:1" fill="#a0622a" d="M 223.5,339.5 C 229.643,340.026 230.976,342.86 227.5,348C 222.504,348.664 220.67,346.498 222,341.5C 222.717,340.956 223.217,340.289 223.5,339.5 Z"/></g>
<g><path style="opacity:1" fill="#000000" d="M 371.5,341.5 C 375.023,341.188 376.356,342.521 375.5,345.5C 371.467,346.747 370.134,345.414 371.5,341.5 Z"/></g>
<g><path style="opacity:1" fill="#a06229" d="M 242.5,356.5 C 248.643,357.026 249.976,359.86 246.5,365C 241.504,365.664 239.67,363.498 241,358.5C 241.717,357.956 242.217,357.289 242.5,356.5 Z"/></g>
<g><path style="opacity:1" fill="#000000" d="M 352.5,358.5 C 356.138,357.737 357.638,359.07 357,362.5C 354.761,363.869 352.927,363.369 351.5,361C 352.252,360.329 352.586,359.496 352.5,358.5 Z"/></g>
<g><path style="opacity:1" fill="#a1632a" d="M 219.5,373.5 C 224.764,373.417 226.431,375.75 224.5,380.5C 220.751,383.418 218.085,382.585 216.5,378C 216.957,376.06 217.957,374.56 219.5,373.5 Z"/></g>
<g><path style="opacity:1" fill="#000000" d="M 376.5,375.5 C 380.161,375.35 381.161,376.85 379.5,380C 375.707,380.487 374.707,378.987 376.5,375.5 Z"/></g>
<g><path style="opacity:1" fill="#a1632a" d="M 245.5,383.5 C 250.501,382.671 252.668,384.671 252,389.5C 249.287,393.432 246.621,393.432 244,389.5C 243.252,387.16 243.752,385.16 245.5,383.5 Z"/></g>
<g><path style="opacity:1" fill="#000000" d="M 350.5,384.5 C 354.267,386.326 354.433,388.326 351,390.5C 347.897,388.888 347.73,386.888 350.5,384.5 Z"/></g>
<g><path style="opacity:1" fill="#f09b9e" d="M 339.5,491.5 C 334.015,512.323 320.682,524.323 299.5,527.5C 285.408,526.705 274.575,520.372 267,508.5C 263.938,503.047 261.438,497.38 259.5,491.5C 263.004,490.188 266.17,488.188 269,485.5C 274.16,477.348 278.16,468.681 281,459.5C 284.749,443.418 288.749,427.418 293,411.5C 294.2,407.754 296.366,404.754 299.5,402.5C 301.858,404.024 303.691,406.024 305,408.5C 310.973,429.438 316.64,450.438 322,471.5C 324.416,476.001 327.083,480.334 330,484.5C 332.775,487.413 335.942,489.746 339.5,491.5 Z"/></g>
<g><path style="opacity:1" fill="#a0622a" d="M 223.5,404.5 C 230.536,403.603 232.203,406.103 228.5,412C 222.785,412.401 221.119,409.901 223.5,404.5 Z"/></g>
<g><path style="opacity:1" fill="#000000" d="M 371.5,405.5 C 376.197,406.874 376.531,408.874 372.5,411.5C 369.025,409.916 368.692,407.916 371.5,405.5 Z"/></g>
<g><path style="opacity:1" fill="#98604a" d="M 283.5,409.5 C 282.669,412.659 281.669,415.659 280.5,418.5C 280.138,414.919 281.138,411.919 283.5,409.5 Z"/></g>
<g><path style="opacity:1" fill="#965e4b" d="M 280.5,419.5 C 279.945,423.397 278.945,427.063 277.5,430.5C 277.432,426.43 278.432,422.763 280.5,419.5 Z"/></g>
<g><path style="opacity:1" fill="#985f47" d="M 319.5,422.5 C 322.884,432.875 325.717,443.542 328,454.5C 329.969,461.918 332.802,468.918 336.5,475.5C 333.949,473.422 332.116,470.756 331,467.5C 326.067,452.77 322.234,437.77 319.5,422.5 Z"/></g>
<g><path style="opacity:1" fill="#98604c" d="M 276.5,436.5 C 276.279,439.067 275.612,441.401 274.5,443.5C 274.171,440.772 274.837,438.438 276.5,436.5 Z"/></g>
<g><path style="opacity:1" fill="#a6684d" d="M 272.5,453.5 C 270.656,461.381 267.656,468.715 263.5,475.5C 266.288,468.638 268.788,461.638 271,454.5C 271.383,453.944 271.883,453.611 272.5,453.5 Z"/></g>
<g><path style="opacity:1" fill="#965f4c" d="M 336.5,476.5 C 339.135,477.473 341.135,479.14 342.5,481.5C 340.221,480.921 338.221,479.254 336.5,476.5 Z"/></g>
<g><path style="opacity:1" fill="#5f3d39" d="M 262.5,476.5 C 260.978,481.332 257.645,483.332 252.5,482.5C 256.54,481.816 259.874,479.816 262.5,476.5 Z"/></g>
</svg>
