<?xml version="1.0" encoding="UTF-8"?>
<!DOCTYPE svg PUBLIC "-//W3C//DTD SVG 1.1//EN" "http://www.w3.org/Graphics/SVG/1.1/DTD/svg11.dtd">
<svg xmlns="http://www.w3.org/2000/svg" version="1.1" width="600px" height="600px" style="shape-rendering:geometricPrecision; text-rendering:geometricPrecision; image-rendering:optimizeQuality; fill-rule:evenodd; clip-rule:evenodd" xmlns:xlink="http://www.w3.org/1999/xlink">
<g><path style="opacity:0.968" fill="#020101" d="M 103.5,-0.5 C 110.833,-0.5 118.167,-0.5 125.5,-0.5C 138.174,5.98076 149.34,14.6474 159,25.5C 186.446,58.3608 207.779,95.0275 223,135.5C 230.766,157.236 237.599,179.236 243.5,201.5C 283.167,188.167 322.833,188.167 362.5,201.5C 373.346,156.462 390.179,113.795 413,73.5C 426.471,49.692 443.304,28.5253 463.5,10C 469.171,5.80615 475.171,2.30615 481.5,-0.5C 488.5,-0.5 495.5,-0.5 502.5,-0.5C 509.64,3.41568 514.14,9.41568 516,17.5C 524.598,54.1555 531.264,91.1555 536,128.5C 540.286,169.727 537.286,210.393 527,250.5C 521.284,272.207 508.784,288.707 489.5,300C 475.439,312.218 470.106,327.552 473.5,346C 472.107,375.632 466.607,404.465 457,432.5C 452.939,441.622 448.606,450.622 444,459.5C 435,473.833 426,488.167 417,502.5C 410.432,520.304 402.766,537.637 394,554.5C 380.091,576.926 360.591,591.926 335.5,599.5C 314.5,599.5 293.5,599.5 272.5,599.5C 244.828,592.006 223.994,575.672 210,550.5C 201.784,533.402 194.117,516.069 187,498.5C 178.084,485.002 169.417,471.336 161,457.5C 147.079,431.156 138.412,403.156 135,373.5C 133.858,358.526 133.191,343.526 133,328.5C 131.156,316.315 125.323,306.481 115.5,299C 106.728,293.227 98.8949,286.394 92,278.5C 85.7743,269.713 81.4409,260.046 79,249.5C 66.1066,195.755 65.1066,141.755 76,87.5C 80.7443,63.1117 85.7443,38.7783 91,14.5C 93.3123,7.82923 97.4789,2.82923 103.5,-0.5 Z"/></g>
<g><path style="opacity:1" fill="#2f2725" d="M 359.5,537.5 C 351.78,529.776 343.78,522.443 335.5,515.5C 325.323,508.467 313.99,505.467 301.5,506.5C 289.886,506.04 279.22,508.874 269.5,515C 261.945,522.286 259.111,531.12 261,541.5C 262.637,554.119 268.804,563.786 279.5,570.5C 286.167,577.5 292.833,584.5 299.5,591.5C 284.829,591.831 270.829,588.998 257.5,583C 258.883,580.306 259.383,577.473 259,574.5C 256.032,569.52 253.032,564.52 250,559.5C 245.365,543.506 246.365,527.84 253,512.5C 262.079,495.34 271.413,478.34 281,461.5C 288.818,446.045 294.652,429.878 298.5,413C 297.936,405.603 293.936,401.77 286.5,401.5C 279.576,402.463 273.576,405.296 268.5,410C 257.032,422.805 243.365,432.472 227.5,439C 212.274,444.022 201.774,439.189 196,424.5C 191.693,411.939 187.693,399.272 184,386.5C 177.719,372.375 167.552,368.875 153.5,376C 151.359,377.308 149.359,378.808 147.5,380.5C 145.68,372.609 144.513,364.609 144,356.5C 143.667,345.5 143.333,334.5 143,323.5C 141.121,314.409 137.121,306.409 131,299.5C 121.706,290.694 112.04,282.36 102,274.5C 94.1355,262.582 88.8022,249.582 86,235.5C 78.149,191.28 77.4823,146.947 84,102.5C 88.5634,75.0162 93.8968,47.6829 100,20.5C 102.587,10.9547 108.754,7.12136 118.5,9C 131.587,14.403 142.754,22.5697 152,33.5C 179.745,67.3002 201.078,104.967 216,146.5C 223.012,166.537 229.012,186.87 234,207.5C 235.266,210.635 237.599,212.302 241,212.5C 282.161,199.192 323.327,199.192 364.5,212.5C 367.63,212.352 370.13,211.018 372,208.5C 384.12,153.28 405.787,102.28 437,55.5C 445.375,43.4519 454.875,32.2852 465.5,22C 471.695,16.4008 478.695,12.0675 486.5,9C 496.311,6.48458 502.811,9.98458 506,19.5C 514.604,56.8497 521.271,94.5163 526,132.5C 528.923,168.834 526.59,204.834 519,240.5C 516.143,256.385 508.976,269.885 497.5,281C 485.279,289.221 475.112,299.388 467,311.5C 464.779,316.271 463.446,321.271 463,326.5C 463.108,344.954 461.774,363.288 459,381.5C 450.141,371.72 439.974,370.054 428.5,376.5C 424.976,380.212 422.476,384.545 421,389.5C 417.53,403.91 412.863,417.91 407,431.5C 399.213,439.932 389.713,442.432 378.5,439C 362.294,432.134 348.294,422.134 336.5,409C 329.77,403.085 322.103,401.085 313.5,403C 311.667,404.167 310.167,405.667 309,407.5C 309.015,418.903 311.348,429.903 316,440.5C 320.12,450.741 324.787,460.741 330,470.5C 339.713,485.925 348.379,501.925 356,518.5C 357.575,524.78 358.742,531.113 359.5,537.5 Z"/></g>
<g><path style="opacity:1" fill="#030202" d="M 117.5,17.5 C 124.218,17.4099 130.551,18.9099 136.5,22C 148.643,33.4719 158.477,46.6386 166,61.5C 183.89,95.1446 197.89,130.478 208,167.5C 214.776,198.295 209.443,226.962 192,253.5C 176.787,273.688 156.62,282.188 131.5,279C 114.625,273.124 103.459,261.624 98,244.5C 82.8821,196.066 79.2155,146.732 87,96.5C 89.751,74.4111 94.4176,52.7444 101,31.5C 104.593,24.3939 110.093,19.7272 117.5,17.5 Z"/></g>
<g><path style="opacity:1" fill="#040302" d="M 480.5,17.5 C 495.393,17.5508 504.56,24.8841 508,39.5C 521.175,88.0881 525.508,137.421 521,187.5C 518.59,211.474 512.59,234.474 503,256.5C 487.663,278.8 467.163,285.3 441.5,276C 417.607,262.759 403.107,242.592 398,215.5C 396.268,207.544 394.768,199.544 393.5,191.5C 403.467,143.868 419.967,98.8681 443,56.5C 449.965,44.1966 458.465,33.03 468.5,23C 470.5,21.6667 472.5,20.3333 474.5,19C 476.708,18.8091 478.708,18.3091 480.5,17.5 Z"/></g>
<g><path style="opacity:1" fill="#dfad57" d="M 119.5,27.5 C 126.753,27.7098 132.586,30.7098 137,36.5C 145.33,47.1523 152.663,58.4856 159,70.5C 178.654,108.795 193.154,148.961 202.5,191C 200.469,209.637 194.969,227.137 186,243.5C 173.194,263.823 155.028,271.99 131.5,268C 117.471,260.621 108.638,249.121 105,233.5C 89.0118,169.952 90.0118,106.619 108,43.5C 109.666,36.463 113.499,31.1297 119.5,27.5 Z"/></g>
<g><path style="opacity:1" fill="#dfad57" d="M 481.5,27.5 C 486.62,27.4765 490.787,29.4765 494,33.5C 499.71,47.3374 503.71,61.6708 506,76.5C 512.556,112.601 514.222,148.934 511,185.5C 509.03,205.045 504.697,224.045 498,242.5C 485.722,269.815 466.222,276.649 439.5,263C 427.362,254.52 418.529,243.353 413,229.5C 407.169,215.024 404.502,200.024 405,184.5C 416.94,134.657 436.273,87.9902 463,44.5C 465.833,41 468.667,37.5 471.5,34C 474.728,31.5603 478.061,29.3936 481.5,27.5 Z"/></g>
<g><path style="opacity:1" fill="#dcaa56" d="M 236.5,320.5 C 251.065,321.065 258.732,328.732 259.5,343.5C 258.164,355.673 253.497,357.173 245.5,348C 238.725,345.534 232.892,341.7 228,336.5C 226.543,333.634 226.21,330.634 227,327.5C 229.79,324.535 232.957,322.202 236.5,320.5 Z"/></g>
<g><path style="opacity:1" fill="#dbaa56" d="M 361.5,320.5 C 367.394,319.943 372.727,321.443 377.5,325C 381.603,329.943 381.269,334.609 376.5,339C 367.99,343.419 359.99,348.586 352.5,354.5C 349.867,353.699 348.033,352.033 347,349.5C 345.072,336.308 349.905,326.641 361.5,320.5 Z"/></g>
<g><path style="opacity:1" fill="#edecec" d="M 216.5,347.5 C 241.263,347.755 252.429,360.088 250,384.5C 244.106,399.867 232.939,406.7 216.5,405C 194.94,396.666 188.773,381.833 198,360.5C 202.952,354.288 209.119,349.954 216.5,347.5 Z"/></g>
<g><path style="opacity:1" fill="#ededed" d="M 378.5,347.5 C 402.669,347.5 413.835,359.5 412,383.5C 403.469,404.013 388.969,409.846 368.5,401C 354.569,389.917 351.735,376.417 360,360.5C 364.682,353.974 370.849,349.641 378.5,347.5 Z"/></g>
<g><path style="opacity:1" fill="#312927" d="M 219.5,356.5 C 239.211,358.596 245.711,368.929 239,387.5C 228.29,398.981 217.29,399.314 206,388.5C 198.788,372.611 203.288,361.945 219.5,356.5 Z"/></g>
<g><path style="opacity:1" fill="#312927" d="M 381.5,356.5 C 399.64,358.102 406.474,367.769 402,385.5C 395.943,395.116 387.443,398.283 376.5,395C 364.108,387.606 361.274,377.439 368,364.5C 371.617,360.116 376.117,357.45 381.5,356.5 Z"/></g>
<g><path style="opacity:1" fill="#eaeaea" d="M 225.5,362.5 C 233.501,362.323 236.334,365.99 234,373.5C 229.615,377.756 225.615,377.423 222,372.5C 220.755,368.235 221.922,364.902 225.5,362.5 Z"/></g>
<g><path style="opacity:1" fill="#eaeaea" d="M 387.5,362.5 C 394.992,361.824 398.159,365.157 397,372.5C 392.155,378.079 387.822,377.746 384,371.5C 383.481,367.868 384.647,364.868 387.5,362.5 Z"/></g>
<g><path style="opacity:1" fill="#ddac57" d="M 163.5,382.5 C 169.59,383.081 173.423,386.414 175,392.5C 178.745,408.401 184.078,423.734 191,438.5C 195.008,444.425 200.508,448.258 207.5,450C 217.419,451.246 227.085,450.246 236.5,447C 252.47,439.368 266.47,429.034 278.5,416C 280.332,415.252 281.999,414.252 283.5,413C 284.944,412.219 286.277,412.386 287.5,413.5C 279.443,440.945 267.61,466.612 252,490.5C 244.01,503.474 239.01,517.474 237,532.5C 234.609,546.382 236.943,559.382 244,571.5C 245.833,573.333 247.667,575.167 249.5,577C 238.188,570.694 229.021,561.86 222,550.5C 212.528,531.888 203.861,512.888 196,493.5C 182.471,473.784 170.471,453.117 160,431.5C 156.227,421.18 153.06,410.68 150.5,400C 151.995,392.012 156.328,386.178 163.5,382.5 Z"/></g>
<g><path style="opacity:1" fill="#ddac57" d="M 438.5,382.5 C 446.523,383.599 452.023,387.932 455,395.5C 455.476,401.275 454.81,406.942 453,412.5C 448.7,426.394 443.034,439.728 436,452.5C 427,466.833 418,481.167 409,495.5C 403.414,507.257 398.414,519.257 394,531.5C 386.804,549.938 375.304,564.938 359.5,576.5C 359.167,576.333 358.833,576.167 358.5,576C 363.99,569.852 367.49,562.685 369,554.5C 371.829,532.647 367.496,512.314 356,493.5C 339.325,468.648 326.825,441.815 318.5,413C 320.635,412.365 322.635,412.699 324.5,414C 333.5,421.667 342.5,429.333 351.5,437C 362.165,445.17 374.165,449.67 387.5,450.5C 405.191,451.647 416.357,443.647 421,426.5C 424.667,414.5 428.333,402.5 432,390.5C 433.479,387.172 435.645,384.506 438.5,382.5 Z"/></g>
<g><path style="opacity:1" fill="#000000" d="M 335.5,515.5 C 341.112,521.662 343.779,528.995 343.5,537.5C 340.511,562.815 326.178,575.481 300.5,575.5C 293.132,575.228 286.132,573.561 279.5,570.5C 268.804,563.786 262.637,554.119 261,541.5C 259.111,531.12 261.945,522.286 269.5,515C 279.22,508.874 289.886,506.04 301.5,506.5C 313.99,505.467 325.323,508.467 335.5,515.5 Z"/></g>
<g><path style="opacity:1" fill="#211a17" d="M 335.5,515.5 C 343.78,522.443 351.78,529.776 359.5,537.5C 359.849,545.404 358.683,553.071 356,560.5C 352.575,564.919 349.575,569.585 347,574.5C 346.34,577.534 346.84,580.367 348.5,583C 332.881,589.715 316.548,592.548 299.5,591.5C 292.833,584.5 286.167,577.5 279.5,570.5C 286.132,573.561 293.132,575.228 300.5,575.5C 326.178,575.481 340.511,562.815 343.5,537.5C 343.779,528.995 341.112,521.662 335.5,515.5 Z"/></g>
</svg>
