<?xml version="1.0" encoding="UTF-8"?>
<!DOCTYPE svg PUBLIC "-//W3C//DTD SVG 1.1//EN" "http://www.w3.org/Graphics/SVG/1.1/DTD/svg11.dtd">
<svg xmlns="http://www.w3.org/2000/svg" version="1.1" width="600px" height="600px" style="shape-rendering:geometricPrecision; text-rendering:geometricPrecision; image-rendering:optimizeQuality; fill-rule:evenodd; clip-rule:evenodd" xmlns:xlink="http://www.w3.org/1999/xlink">
<g><path style="opacity:0.953" fill="#040302" d="M 284.5,56.5 C 359.204,52.8975 424.537,75.3975 480.5,124C 503.909,146.729 525.076,171.229 544,197.5C 557.411,215.984 570.078,234.984 582,254.5C 591.67,269.845 595.67,286.512 594,304.5C 581.962,357.977 560.629,407.31 530,452.5C 520.583,466.585 509.083,478.752 495.5,489C 487.313,493.122 478.98,493.456 470.5,490C 463.832,487.337 457.832,483.671 452.5,479C 438.216,466.061 427.05,450.894 419,433.5C 413.97,417.231 411.636,400.564 412,383.5C 404.333,407.5 396.667,431.5 389,455.5C 389.092,466.163 389.592,476.83 390.5,487.5C 392.443,512.627 382.776,531.46 361.5,544C 345.728,550.325 330.228,549.825 315,542.5C 303.361,547.463 291.527,547.796 279.5,543.5C 253.851,553.544 231.684,548.544 213,528.5C 206.633,517.864 203.133,506.364 202.5,494C 203.933,481.566 204.767,469.066 205,456.5C 198.691,437.928 192.691,419.261 187,400.5C 185.309,422.863 177.309,442.53 163,459.5C 155.421,469.082 146.587,477.248 136.5,484C 124.64,490.859 112.64,491.192 100.5,485C 84.8001,470.637 71.3001,454.47 60,436.5C 33.6522,394.799 15.3189,349.799 5,301.5C 3.4654,284.637 7.13207,268.971 16,254.5C 37.121,219.921 60.4543,186.921 86,155.5C 104.724,133.433 125.891,114.266 149.5,98C 157.5,93 165.5,88 173.5,83C 208.698,66.1158 245.698,57.2824 284.5,56.5 Z"/></g>
<g><path style="opacity:1" fill="#2d211e" d="M 413.5,369.5 C 413.701,363.807 413.868,358.14 414,352.5C 411.961,369.279 402.794,375.112 386.5,370C 377.909,366.416 370.742,360.916 365,353.5C 357.625,341.25 350.125,329.083 342.5,317C 336.66,312.31 330.993,312.476 325.5,317.5C 320.132,304.574 318.132,291.074 319.5,277C 321.741,230.135 324.241,183.301 327,136.5C 326.226,127.386 321.393,121.553 312.5,119C 299.484,114.496 286.818,115.496 274.5,122C 270.619,124.928 268.119,128.761 267,133.5C 266.333,140.167 266.333,146.833 267,153.5C 270.259,195.124 272.759,236.79 274.5,278.5C 275.552,291.821 273.552,304.487 268.5,316.5C 267.508,314.974 266.008,314.307 264,314.5C 261.456,314.384 259.289,315.217 257.5,317C 249.291,329.248 241.458,341.748 234,354.5C 224.236,367.302 211.403,372.802 195.5,371C 193.413,370.208 191.579,369.041 190,367.5C 188.209,364.007 186.876,360.341 186,356.5C 186.165,366.483 186.332,376.483 186.5,386.5C 182.336,386.143 179.169,387.81 177,391.5C 176.626,417.98 167.292,440.646 149,459.5C 141.572,467.93 132.739,474.43 122.5,479C 116.732,480.225 111.399,479.225 106.5,476C 95.9478,466.448 86.4478,455.948 78,444.5C 49.9634,403.088 29.63,358.088 17,309.5C 15.0981,299.148 15.0981,288.815 17,278.5C 20.5318,269.103 24.8652,260.103 30,251.5C 51.3483,217.483 75.015,185.149 101,154.5C 125.843,126.972 154.676,104.805 187.5,88C 199.727,83.3878 212.06,79.0545 224.5,75C 271.409,65.3488 318.409,65.0155 365.5,74C 417.7,88.6791 461.867,116.179 498,156.5C 525.114,188.73 549.781,222.73 572,258.5C 577.676,267.848 581.676,277.848 584,288.5C 583.839,305.31 580.839,321.644 575,337.5C 560.61,380.953 539.943,420.953 513,457.5C 505.753,466.749 497.253,474.583 487.5,481C 481.114,482.209 475.114,481.209 469.5,478C 457,469.5 446.5,459 438,446.5C 432.266,438.308 428.266,429.308 426,419.5C 423.675,404.93 422.341,390.264 422,375.5C 420.403,371.735 417.57,369.735 413.5,369.5 Z"/></g>
<g><path style="opacity:1" fill="#f5f2f3" d="M 324.5,331.5 C 324.794,334.754 326.127,337.421 328.5,339.5C 337.493,357.495 347.493,374.828 358.5,391.5C 359.41,394.992 361.076,397.992 363.5,400.5C 368.056,410.279 372.056,420.279 375.5,430.5C 375.59,434.214 376.59,437.548 378.5,440.5C 383.819,464.31 384.652,488.31 381,512.5C 371.119,535.695 353.619,545.195 328.5,541C 318.043,538.025 309.043,532.692 301.5,525C 298.5,523 295.5,523 292.5,525C 283.473,533.68 272.806,539.347 260.5,542C 233.593,543.808 217.093,531.641 211,505.5C 207.874,473.288 212.541,442.288 225,412.5C 236.288,390.751 248.121,369.417 260.5,348.5C 262.588,346.664 263.921,344.331 264.5,341.5C 272.731,328.012 277.898,313.346 280,297.5C 280.667,281.833 280.667,266.167 280,250.5C 277.043,212.187 274.71,173.854 273,135.5C 276.16,128.351 281.66,124.184 289.5,123C 316.383,120.226 326.55,132.059 320,158.5C 317.251,198.489 314.751,238.489 312.5,278.5C 312.184,297.271 316.184,314.938 324.5,331.5 Z"/></g>
<g><path style="opacity:1" fill="#bc8b4a" d="M 234.5,194.5 C 244.12,192.895 251.953,195.895 258,203.5C 264.019,211.555 266.352,220.555 265,230.5C 263.422,235.869 259.922,238.035 254.5,237C 247.687,230.756 240.02,225.756 231.5,222C 217.381,211.012 218.381,201.846 234.5,194.5 Z"/></g>
<g><path style="opacity:1" fill="#bc8b4a" d="M 346.5,194.5 C 353.549,193.718 360.216,194.885 366.5,198C 374.32,204.844 374.32,211.844 366.5,219C 360.154,223.174 353.488,226.841 346.5,230C 344.5,232 342.5,234 340.5,236C 335.053,238.836 331.22,237.336 329,231.5C 326.781,215.274 332.615,202.941 346.5,194.5 Z"/></g>
<g><path style="opacity:1" fill="#845a22" d="M 206.5,229.5 C 227.508,226.912 241.341,235.579 248,255.5C 249.941,275.46 241.441,288.626 222.5,295C 195.849,296.682 182.349,284.182 182,257.5C 185.076,243.598 193.243,234.264 206.5,229.5 Z"/></g>
<g><path style="opacity:1" fill="#845a22" d="M 370.5,229.5 C 398.799,227.967 412.299,241.3 411,269.5C 403.779,290.529 389.279,298.695 367.5,294C 345.98,283.103 340.147,266.603 350,244.5C 355.329,237.323 362.162,232.323 370.5,229.5 Z"/></g>
<g><path style="opacity:1" fill="#241815" d="M 210.5,241.5 C 228.373,241.867 236.54,250.867 235,268.5C 227.733,283.009 216.9,286.509 202.5,279C 191.833,268 191.833,257 202.5,246C 205.191,244.395 207.858,242.895 210.5,241.5 Z"/></g>
<g><path style="opacity:1" fill="#241815" d="M 377.5,241.5 C 396.302,244.764 402.469,255.43 396,273.5C 388.186,282.825 378.686,284.992 367.5,280C 355.173,269.378 354.507,258.044 365.5,246C 369.301,243.584 373.301,242.084 377.5,241.5 Z"/></g>
<g><path style="opacity:1" fill="#f1f1f1" d="M 219.5,251.5 C 225.17,251.339 228.003,254.006 228,259.5C 225.314,263.977 221.814,264.644 217.5,261.5C 215.81,257.631 216.476,254.298 219.5,251.5 Z"/></g>
<g><path style="opacity:1" fill="#f2f2f2" d="M 384.5,251.5 C 392.957,252.437 394.624,256.27 389.5,263C 383.212,264.378 380.379,261.878 381,255.5C 381.69,253.65 382.856,252.316 384.5,251.5 Z"/></g>
<g><path style="opacity:1" fill="#bc8b4a" d="M 268.5,316.5 C 266.02,324.097 262.854,331.431 259,338.5C 246.267,359.575 233.934,380.908 222,402.5C 216.802,414.095 212.802,426.095 210,438.5C 205.335,423.845 200.669,409.178 196,394.5C 194.472,389.799 191.305,387.132 186.5,386.5C 186.332,376.483 186.165,366.483 186,356.5C 186.876,360.341 188.209,364.007 190,367.5C 191.579,369.041 193.413,370.208 195.5,371C 211.403,372.802 224.236,367.302 234,354.5C 241.458,341.748 249.291,329.248 257.5,317C 259.289,315.217 261.456,314.384 264,314.5C 266.008,314.307 267.508,314.974 268.5,316.5 Z"/></g>
<g><path style="opacity:1" fill="#bd8b4a" d="M 413.5,369.5 C 408.135,369.696 404.635,372.362 403,377.5C 396.465,397.439 390.132,417.439 384,437.5C 378.805,418.113 371.138,399.779 361,382.5C 347.076,361.986 335.242,340.319 325.5,317.5C 330.993,312.476 336.66,312.31 342.5,317C 350.125,329.083 357.625,341.25 365,353.5C 370.742,360.916 377.909,366.416 386.5,370C 402.794,375.112 411.961,369.279 414,352.5C 413.868,358.14 413.701,363.807 413.5,369.5 Z"/></g>
<g><path style="opacity:1" fill="#675034" d="M 324.5,331.5 C 326.341,333.849 327.674,336.515 328.5,339.5C 326.127,337.421 324.794,334.754 324.5,331.5 Z"/></g>
<g><path style="opacity:1" fill="#685135" d="M 264.5,341.5 C 263.921,344.331 262.588,346.664 260.5,348.5C 261.079,345.669 262.412,343.336 264.5,341.5 Z"/></g>
<g><path style="opacity:1" fill="#675034" d="M 358.5,391.5 C 360.924,394.008 362.59,397.008 363.5,400.5C 361.076,397.992 359.41,394.992 358.5,391.5 Z"/></g>
<g><path style="opacity:1" fill="#060505" d="M 283.5,432.5 C 297.124,431.558 310.457,433.058 323.5,437C 340.783,446.739 345.616,460.906 338,479.5C 322.168,505.521 300.335,512.687 272.5,501C 254.976,490.785 247.476,475.619 250,455.5C 253.141,445.693 259.641,439.193 269.5,436C 274.317,434.929 278.984,433.763 283.5,432.5 Z"/></g>
<g><path style="opacity:1" fill="#7e674e" d="M 375.5,430.5 C 377.101,433.55 378.101,436.884 378.5,440.5C 376.59,437.548 375.59,434.214 375.5,430.5 Z"/></g>
<g><path style="opacity:1" fill="#221714" d="M 284.5,438.5 C 299.008,436.695 312.674,439.195 325.5,446C 334.13,452.841 336.964,461.674 334,472.5C 327.547,486.95 316.714,496.45 301.5,501C 279.954,501.136 264.787,491.303 256,471.5C 253.422,457.551 258.589,447.718 271.5,442C 275.929,440.682 280.262,439.516 284.5,438.5 Z"/></g>
<g><path style="opacity:1" fill="#4e4c4c" d="M 296.5,529.5 C 298.803,531.325 301.136,533.158 303.5,535C 299.583,536.691 295.583,536.857 291.5,535.5C 293.19,533.481 294.856,531.481 296.5,529.5 Z"/></g>
</svg>
