<?xml version="1.0" encoding="UTF-8"?>
<!DOCTYPE svg PUBLIC "-//W3C//DTD SVG 1.1//EN" "http://www.w3.org/Graphics/SVG/1.1/DTD/svg11.dtd">
<svg xmlns="http://www.w3.org/2000/svg" version="1.1" width="600px" height="600px" style="shape-rendering:geometricPrecision; text-rendering:geometricPrecision; image-rendering:optimizeQuality; fill-rule:evenodd; clip-rule:evenodd" xmlns:xlink="http://www.w3.org/1999/xlink">
<g><path style="opacity:0.966" fill="#020202" d="M 274.5,61.5 C 307.635,59.2882 340.301,62.1216 372.5,70C 389.107,74.3053 404.441,81.3053 418.5,91C 452.273,100.161 481.606,116.828 506.5,141C 541.353,175.185 569.186,214.352 590,258.5C 596.496,274.293 598.496,290.626 596,307.5C 590.024,337.762 581.024,367.095 569,395.5C 551.377,439.769 528.377,480.769 500,518.5C 493.993,525.848 486.827,531.681 478.5,536C 469.561,539.898 461.228,538.898 453.5,533C 445.217,524.949 439.05,515.449 435,504.5C 421.492,472.133 413.158,438.466 410,403.5C 408.079,410.436 406.413,417.436 405,424.5C 402.761,445.281 399.761,465.948 396,486.5C 393.559,497.553 388.392,507.053 380.5,515C 371.286,519.794 361.619,520.794 351.5,518C 344.859,516.123 338.692,513.29 333,509.5C 311.938,512.96 290.771,513.293 269.5,510.5C 262.119,512.682 254.785,515.182 247.5,518C 226.566,523.451 212.732,515.951 206,495.5C 200.181,475.587 196.848,455.254 196,434.5C 194.299,423.696 191.966,413.029 189,402.5C 186.34,437.14 178.34,470.473 165,502.5C 160.544,514.588 153.71,525.088 144.5,534C 133.797,540.055 123.463,539.388 113.5,532C 104.305,524.105 96.1386,515.272 89,505.5C 48.9825,446.451 20.6492,382.118 4,312.5C 0.15502,292.373 2.48835,273.04 11,254.5C 36.4468,202.379 71.6134,157.879 116.5,121C 136.002,107.251 157.335,97.2511 180.5,91C 199.723,78.3663 220.723,70.033 243.5,66C 253.944,64.2391 264.277,62.7391 274.5,61.5 Z"/></g>
<g><path style="opacity:1" fill="#a25c2a" d="M 413.5,100.5 C 413.989,103.467 415.155,106.133 417,108.5C 444.617,136.756 458.117,170.756 457.5,210.5C 457.717,232.246 454.884,253.579 449,274.5C 439.457,303.129 429.124,331.462 418,359.5C 415.209,368.66 413.376,377.994 412.5,387.5C 409.421,387.804 406.587,388.804 404,390.5C 401.527,396.394 399.36,402.394 397.5,408.5C 392.856,392.408 386.356,377.074 378,362.5C 363.798,336.314 348.798,310.648 333,285.5C 323.564,269.632 317.23,252.632 314,234.5C 312.902,218.372 313.902,202.372 317,186.5C 318.96,175.35 316.96,165.016 311,155.5C 304.531,147.189 297.531,146.522 290,153.5C 282.333,162.513 279.667,172.846 282,184.5C 284.821,199.727 286.154,215.06 286,230.5C 284.017,244.447 280.017,257.781 274,270.5C 255.161,302.174 236.828,334.174 219,366.5C 211.784,379.932 205.95,393.932 201.5,408.5C 200.13,402.685 198.296,397.019 196,391.5C 193.421,388.89 190.254,387.557 186.5,387.5C 185.608,376.594 183.441,365.928 180,355.5C 167.94,326.317 157.273,296.651 148,266.5C 141.597,240.132 139.93,213.465 143,186.5C 148.12,155.926 161.453,129.593 183,107.5C 184.411,105.35 185.245,103.016 185.5,100.5C 209.96,84.2903 236.96,75.1237 266.5,73C 299.098,69.8562 331.431,71.5228 363.5,78C 381.649,82.5354 398.315,90.0354 413.5,100.5 Z"/></g>
<g><path style="opacity:1" fill="#1e1d1d" d="M 185.5,100.5 C 185.245,103.016 184.411,105.35 183,107.5C 161.453,129.593 148.12,155.926 143,186.5C 139.93,213.465 141.597,240.132 148,266.5C 157.273,296.651 167.94,326.317 180,355.5C 183.441,365.928 185.608,376.594 186.5,387.5C 182.98,388.183 180.48,390.183 179,393.5C 176.942,431.731 168.275,468.398 153,503.5C 149.529,511.617 144.695,518.783 138.5,525C 133.167,528.333 127.833,528.333 122.5,525C 115.374,520.208 109.207,514.375 104,507.5C 68.222,456.608 40.8886,401.275 22,341.5C 16.7789,325.394 13.6122,308.894 12.5,292C 12.8546,283.612 14.3546,275.445 17,267.5C 42.4329,210.465 79.9329,162.965 129.5,125C 146.864,113.817 165.531,105.65 185.5,100.5 Z"/></g>
<g><path style="opacity:1" fill="#1e1d1d" d="M 413.5,100.5 C 441.821,108.159 467.155,121.325 489.5,140C 529.85,176.533 561.017,219.7 583,269.5C 586.952,282.296 587.618,295.296 585,308.5C 577.322,344.52 565.655,379.187 550,412.5C 534.393,448.405 514.726,481.738 491,512.5C 485.98,518.86 479.813,523.693 472.5,527C 465.655,528.33 460.155,526.164 456,520.5C 441.682,495.557 431.682,468.891 426,440.5C 423.53,424.876 421.53,409.21 420,393.5C 418.52,390.183 416.02,388.183 412.5,387.5C 413.376,377.994 415.209,368.66 418,359.5C 429.124,331.462 439.457,303.129 449,274.5C 454.884,253.579 457.717,232.246 457.5,210.5C 458.117,170.756 444.617,136.756 417,108.5C 415.155,106.133 413.989,103.467 413.5,100.5 Z"/></g>
<g><path style="opacity:1" fill="#f3f3f3" d="M 297.5,159.5 C 299.722,159.178 301.556,159.845 303,161.5C 304.861,163.888 306.194,166.554 307,169.5C 307.667,175.167 307.667,180.833 307,186.5C 301.722,210.032 302.388,233.366 309,256.5C 319.395,281.959 332.395,305.959 348,328.5C 360.462,350.424 372.128,372.757 383,395.5C 390.879,414.779 393.546,434.779 391,455.5C 390.292,471.711 386.292,487.045 379,501.5C 373.67,508.901 366.503,511.401 357.5,509C 354.768,508.587 352.101,507.92 349.5,507C 336.131,499.342 322.465,492.009 308.5,485C 325.591,481.208 338.758,472.042 348,457.5C 355.309,441.576 352.809,427.409 340.5,415C 332.367,409.509 323.367,406.176 313.5,405C 298.196,402.921 283.196,404.254 268.5,409C 252.118,416.59 245.285,429.423 248,447.5C 251.343,460.509 258.843,470.342 270.5,477C 276.589,480.252 282.922,482.918 289.5,485C 277.5,491.667 265.5,498.333 253.5,505C 245.597,509.018 237.264,510.352 228.5,509C 223.256,505.752 219.422,501.252 217,495.5C 209.331,473.146 206.331,450.146 208,426.5C 211.604,405.955 218.604,386.621 229,368.5C 243.991,340.51 259.991,313.176 277,286.5C 288.051,266.183 294.551,244.517 296.5,221.5C 295.328,209.128 293.828,196.795 292,184.5C 290.076,175.224 291.909,166.891 297.5,159.5 Z"/></g>
<g><path style="opacity:1" fill="#c9a36d" d="M 216.5,222.5 C 233.276,220.966 244.776,227.966 251,243.5C 253.836,261.002 247.003,272.835 230.5,279C 205.853,280.686 194.019,269.186 195,244.5C 198.384,233.346 205.55,226.012 216.5,222.5 Z"/></g>
<g><path style="opacity:1" fill="#caa36e" d="M 371.5,223.5 C 387.691,223.006 398.524,230.34 404,245.5C 406.559,264.215 398.726,276.049 380.5,281C 357.015,280.908 346.181,269.075 348,245.5C 351.971,233.949 359.805,226.615 371.5,223.5 Z"/></g>
<g><path style="opacity:1" fill="#030403" d="M 217.5,230.5 C 232.999,228.837 241.999,235.671 244.5,251C 243.404,263.93 236.404,271.096 223.5,272.5C 207.787,270.283 200.954,261.283 203,245.5C 205.351,237.984 210.184,232.984 217.5,230.5 Z"/></g>
<g><path style="opacity:1" fill="#050504" d="M 370.5,231.5 C 389.525,230.689 398.025,239.689 396,258.5C 391.377,269.901 382.877,274.734 370.5,273C 358.849,268.544 353.682,260.044 355,247.5C 357.711,239.624 362.878,234.291 370.5,231.5 Z"/></g>
<g><path style="opacity:1" fill="#f5f5f5" d="M 228.5,238.5 C 237.85,238.365 240.517,242.532 236.5,251C 227.249,254.416 223.415,251.25 225,241.5C 226.145,240.364 227.312,239.364 228.5,238.5 Z"/></g>
<g><path style="opacity:1" fill="#f3f3f3" d="M 380.5,238.5 C 390.052,238.197 393.052,242.364 389.5,251C 382.864,254.33 378.531,252.497 376.5,245.5C 377.071,242.687 378.404,240.354 380.5,238.5 Z"/></g>
<g><path style="opacity:1" fill="#2f2725" d="M 288.5,413.5 C 302.615,412.319 316.281,414.153 329.5,419C 340.002,425.177 344.169,434.344 342,446.5C 336.193,461.636 325.359,471.136 309.5,475C 290.699,477.52 275.199,472.02 263,458.5C 253.382,444.854 254.548,432.354 266.5,421C 273.54,417.251 280.873,414.751 288.5,413.5 Z"/></g>
<g><path style="opacity:1" fill="#322b29" d="M 296.5,492.5 C 304.984,493.074 312.651,495.907 319.5,501C 306.167,501.667 292.833,501.667 279.5,501C 284.98,497.593 290.647,494.76 296.5,492.5 Z"/></g>
</svg>
