<?xml version="1.0" encoding="UTF-8"?>
<!DOCTYPE svg PUBLIC "-//W3C//DTD SVG 1.1//EN" "http://www.w3.org/Graphics/SVG/1.1/DTD/svg11.dtd">
<svg xmlns="http://www.w3.org/2000/svg" version="1.1" width="600px" height="600px" style="shape-rendering:geometricPrecision; text-rendering:geometricPrecision; image-rendering:optimizeQuality; fill-rule:evenodd; clip-rule:evenodd" xmlns:xlink="http://www.w3.org/1999/xlink">
<g><path style="opacity:0.973" fill="#020202" d="M 599.5,201.5 C 599.5,222.5 599.5,243.5 599.5,264.5C 586.766,289.624 571.266,312.958 553,334.5C 546.577,343.674 540.91,353.34 536,363.5C 533.57,370.316 531.903,377.316 531,384.5C 529.732,396.182 528.399,407.848 527,419.5C 523.867,432.151 516.034,436.651 503.5,433C 492.223,426.62 484.057,417.453 479,405.5C 472.541,392.455 467.874,378.789 465,364.5C 461.418,372.003 457.085,379.003 452,385.5C 449,391.833 446,398.167 443,404.5C 442.08,422.822 441.413,441.155 441,459.5C 439.429,471.577 434.429,481.91 426,490.5C 423.506,507.143 418.84,523.143 412,538.5C 400.048,558.316 382.381,568.316 359,568.5C 351.67,568.368 344.504,567.201 337.5,565C 324.816,560.24 312.316,555.074 300,549.5C 288.57,554.464 277.07,559.297 265.5,564C 242.205,572.359 220.538,569.359 200.5,555C 186.533,539.557 178.033,521.39 175,500.5C 174.24,496.181 173.573,491.848 173,487.5C 166.38,475.366 162.38,462.366 161,448.5C 160.001,436.52 159.334,424.52 159,412.5C 158.461,409.471 157.794,406.471 157,403.5C 149.836,390.501 142.169,377.834 134,365.5C 129.861,387.772 120.861,407.772 107,425.5C 102.609,429.778 97.4427,432.611 91.5,434C 80.8157,434.899 74.3157,430.066 72,419.5C 70.7896,401.268 68.123,383.268 64,365.5C 59.7608,356.016 54.7608,347.016 49,338.5C 35.5603,321.728 22.8937,304.394 11,286.5C 6.86736,279.231 3.03402,271.898 -0.5,264.5C -0.5,243.5 -0.5,222.5 -0.5,201.5C 3.88533,192.401 9.052,183.734 15,175.5C 50.5831,128.574 93.0831,89.4071 142.5,58C 162.402,45.4214 184.069,37.9214 207.5,35.5C 214.506,36.1006 221.506,36.7673 228.5,37.5C 275.489,28.2161 322.489,28.2161 369.5,37.5C 388.704,33.7556 407.371,35.5889 425.5,43C 447.06,51.7743 467.06,63.1076 485.5,77C 525.784,108.282 560.95,144.449 591,185.5C 594.132,190.768 596.965,196.101 599.5,201.5 Z"/></g>
<g><path style="opacity:1" fill="#b6b6b6" d="M 409.5,69.5 C 411.833,72.5 414.5,75.1667 417.5,77.5C 434.897,99.2701 450.064,122.603 463,147.5C 468.379,163.064 471.713,179.064 473,195.5C 476.438,238.552 476.105,281.552 472,324.5C 464.53,345.778 454.197,365.444 441,383.5C 436.286,391.264 432.953,399.597 431,408.5C 430.351,420.842 430.518,433.176 431.5,445.5C 431.514,458.285 428.014,469.951 421,480.5C 419.074,482.539 416.907,484.206 414.5,485.5C 414.657,478.374 413.99,471.374 412.5,464.5C 408.829,435.983 399.329,409.649 384,385.5C 359.305,355.412 327.472,342.245 288.5,346C 242.226,349.603 211.726,373.437 197,417.5C 189.6,439.083 184.767,461.083 182.5,483.5C 175.214,470.892 171.38,457.225 171,442.5C 170.667,433.5 170.333,424.5 170,415.5C 169.211,404.928 165.877,395.262 160,386.5C 147.943,369.726 137.943,351.726 130,332.5C 128.075,327.989 126.742,323.323 126,318.5C 124.461,283.182 124.128,247.848 125,212.5C 125.442,188.731 129.775,165.731 138,143.5C 149.506,122.477 162.506,102.477 177,83.5C 186.043,72.456 196.876,63.6227 209.5,57C 217.304,54.239 225.304,52.239 233.5,51C 234.939,50.0094 235.939,48.676 236.5,47C 247.338,44.314 258.338,42.6473 269.5,42C 301.426,39.9675 333.093,41.8008 364.5,47.5C 364.33,48.8221 364.663,49.9887 365.5,51C 382.196,52.6127 396.863,58.7794 409.5,69.5 Z"/></g>
<g><path style="opacity:1" fill="#362e2b" d="M 180.5,61.5 C 181.239,61.369 181.906,61.5357 182.5,62C 156.154,89.5209 135.987,121.021 122,156.5C 118.191,174.303 115.858,192.303 115,210.5C 114.706,258.836 114.706,307.169 115,355.5C 112.201,376.245 104.535,394.911 92,411.5C 91.0387,392.398 87.7054,373.732 82,355.5C 76.3418,343.508 69.6751,332.175 62,321.5C 51.5134,308.524 41.5134,295.191 32,281.5C 23.869,269.572 18.2023,256.572 15,242.5C 14.1614,233.78 14.4947,225.113 16,216.5C 20.9403,203.284 27.9403,191.284 37,180.5C 64.6104,146.555 95.7771,116.388 130.5,90C 146.326,79.0038 162.992,69.5038 180.5,61.5 Z"/></g>
<g><path style="opacity:1" fill="#362e2b" d="M 416.5,62.5 C 416.56,61.9569 416.893,61.6236 417.5,61.5C 450.065,76.2726 479.399,95.7726 505.5,120C 531.981,144.464 555.481,171.297 576,200.5C 586.889,218.835 588.222,237.835 580,257.5C 567.351,281.47 552.351,303.803 535,324.5C 528.577,333.674 522.91,343.34 518,353.5C 514.732,361.903 512.399,370.57 511,379.5C 509.996,389.879 508.662,400.212 507,410.5C 495.807,395.607 488.474,378.941 485,360.5C 484.714,316.498 484.714,272.498 485,228.5C 484.773,203.892 482.106,179.559 477,155.5C 470.521,138.209 462.188,121.876 452,106.5C 442.199,90.1985 430.366,75.5318 416.5,62.5 Z"/></g>
<g><path style="opacity:1" fill="#363535" d="M 409.5,69.5 C 413.167,71.1667 415.833,73.8333 417.5,77.5C 414.5,75.1667 411.833,72.5 409.5,69.5 Z"/></g>
<g><path style="opacity:1" fill="#372f2c" d="M 217.5,180.5 C 257.382,175.882 275.215,193.548 271,233.5C 267.959,258.293 259.959,281.293 247,302.5C 231.488,323.115 211.321,329.948 186.5,323C 181,320.167 176.833,316 174,310.5C 157.859,281.762 154.192,251.429 163,219.5C 169.893,204.274 181.06,193.44 196.5,187C 203.472,184.347 210.472,182.18 217.5,180.5 Z"/></g>
<g><path style="opacity:1" fill="#372f2c" d="M 358.5,180.5 C 383.781,178.022 405.947,185.022 425,201.5C 433.53,211.571 438.53,223.237 440,236.5C 443.816,266.234 437.149,293.234 420,317.5C 411.179,324.819 401.012,327.652 389.5,326C 370.507,322.006 356.34,311.506 347,294.5C 332.816,268.247 326.816,240.247 329,210.5C 331.694,193.307 341.527,183.307 358.5,180.5 Z"/></g>
<g><path style="opacity:1" fill="#6c5248" d="M 213.5,212.5 C 233.897,211.409 245.23,220.909 247.5,241C 246.096,258.61 236.596,267.776 219,268.5C 205.339,268.166 196.339,261.499 192,248.5C 189.2,230.421 196.366,218.421 213.5,212.5 Z"/></g>
<g><path style="opacity:1" fill="#6b5248" d="M 375.5,212.5 C 399.156,211.656 410.656,222.99 410,246.5C 403.502,265.001 390.669,271.835 371.5,267C 359.876,261.601 353.876,252.434 353.5,239.5C 355.779,226.235 363.112,217.235 375.5,212.5 Z"/></g>
<g><path style="opacity:1" fill="#2f2725" d="M 377.5,221.5 C 394.704,221.291 402.204,229.625 400,246.5C 395.56,256.806 387.726,260.973 376.5,259C 363.896,252.945 360.396,243.445 366,230.5C 369.134,226.524 372.967,223.524 377.5,221.5 Z"/></g>
<g><path style="opacity:1" fill="#2f2725" d="M 214.5,221.5 C 230.047,220.886 237.88,228.219 238,243.5C 232.654,259.175 222.487,263.342 207.5,256C 200.155,248.543 198.655,240.043 203,230.5C 206.161,226.491 209.994,223.491 214.5,221.5 Z"/></g>
<g><path style="opacity:1" fill="#eeeeed" d="M 221.5,230.5 C 229.818,230.987 231.485,234.487 226.5,241C 220.714,241.881 218.214,239.381 219,233.5C 220.045,232.627 220.878,231.627 221.5,230.5 Z"/></g>
<g><path style="opacity:1" fill="#ededed" d="M 384.5,230.5 C 392.774,230.929 394.44,234.429 389.5,241C 381.088,240.812 379.421,237.312 384.5,230.5 Z"/></g>
<g><path style="opacity:1" fill="#362f2c" d="M 412.5,464.5 C 393.833,446.167 375.167,427.833 356.5,409.5C 354.999,402.336 351.332,396.502 345.5,392C 331.008,383.69 315.341,379.857 298.5,380.5C 281.621,379.69 265.955,383.523 251.5,392C 237.576,406.28 235.743,422.114 246,439.5C 259.073,455.457 275.906,464.79 296.5,467.5C 324.132,495.632 351.965,523.632 380,551.5C 380.464,552.094 380.631,552.761 380.5,553.5C 364.038,560.353 347.705,559.853 331.5,552C 321.159,546.661 310.492,542.161 299.5,538.5C 289.621,542.104 279.955,546.271 270.5,551C 258.694,556.273 246.361,558.606 233.5,558C 209.918,553.753 195.418,539.92 190,516.5C 186.714,505.642 184.214,494.642 182.5,483.5C 184.767,461.083 189.6,439.083 197,417.5C 211.726,373.437 242.226,349.603 288.5,346C 327.472,342.245 359.305,355.412 384,385.5C 399.329,409.649 408.829,435.983 412.5,464.5 Z"/></g>
<g><path style="opacity:1" fill="#1c1413" d="M 356.5,409.5 C 358.912,430.838 350.579,446.671 331.5,457C 320.716,463.446 309.049,466.946 296.5,467.5C 275.906,464.79 259.073,455.457 246,439.5C 235.743,422.114 237.576,406.28 251.5,392C 265.955,383.523 281.621,379.69 298.5,380.5C 315.341,379.857 331.008,383.69 345.5,392C 351.332,396.502 354.999,402.336 356.5,409.5 Z"/></g>
<g><path style="opacity:1" fill="#322a27" d="M 356.5,409.5 C 375.167,427.833 393.833,446.167 412.5,464.5C 413.99,471.374 414.657,478.374 414.5,485.5C 414.077,507.269 407.577,526.936 395,544.5C 390.698,548.399 385.864,551.399 380.5,553.5C 380.631,552.761 380.464,552.094 380,551.5C 351.965,523.632 324.132,495.632 296.5,467.5C 309.049,466.946 320.716,463.446 331.5,457C 350.579,446.671 358.912,430.838 356.5,409.5 Z"/></g>
</svg>
