<?xml version="1.0" encoding="UTF-8"?>
<!DOCTYPE svg PUBLIC "-//W3C//DTD SVG 1.1//EN" "http://www.w3.org/Graphics/SVG/1.1/DTD/svg11.dtd">
<svg xmlns="http://www.w3.org/2000/svg" version="1.1" width="600px" height="600px" style="shape-rendering:geometricPrecision; text-rendering:geometricPrecision; image-rendering:optimizeQuality; fill-rule:evenodd; clip-rule:evenodd" xmlns:xlink="http://www.w3.org/1999/xlink">
<g><path style="opacity:0.967" fill="#020202" d="M 599.5,409.5 C 599.5,445.5 599.5,481.5 599.5,517.5C 582.215,560.261 550.548,584.427 504.5,590C 481.053,591.138 458.387,587.471 436.5,579C 404.082,562.831 391.082,536.831 397.5,501C 397.167,500.5 396.833,500 396.5,499.5C 379.43,507.566 362.43,507.233 345.5,498.5C 314.525,506.474 283.525,506.474 252.5,498.5C 243.669,501.999 234.503,503.999 225,504.5C 216.303,504.493 208.303,502.16 201,497.5C 208.58,541.556 191.08,570.056 148.5,583C 105.277,596.685 65.9438,589.685 30.5,562C 15.7244,548.602 5.39105,532.435 -0.5,513.5C -0.5,480.5 -0.5,447.5 -0.5,414.5C 8.27043,386.692 17.7704,359.025 28,331.5C 32.5675,306.662 37.9009,281.995 44,257.5C 54.4743,235.884 65.4743,214.551 77,193.5C 85.1526,168.559 93.1526,143.559 101,118.5C 111.842,93.3124 127.675,71.8124 148.5,54C 162.873,42.6506 179.206,35.9839 197.5,34C 229.414,17.514 263.414,9.3473 299.5,9.5C 328.428,9.71919 356.428,14.8859 383.5,25C 389.779,27.4728 395.779,30.4728 401.5,34C 419.794,35.9839 436.127,42.6506 450.5,54C 475.936,75.6848 493.77,102.518 504,134.5C 509.049,153.363 514.715,172.029 521,190.5C 532.015,211.865 543.015,233.198 554,254.5C 561.304,283.353 567.971,312.353 574,341.5C 582.847,364.165 591.347,386.832 599.5,409.5 Z"/></g>
<g><path style="opacity:1" fill="#4b4848" d="M 400.5,44.5 C 442.85,72.1547 466.017,111.488 470,162.5C 471.259,189.657 468.259,216.324 461,242.5C 448.184,283.172 433.018,322.506 415.5,360.5C 413.067,343.427 407.567,327.427 399,312.5C 398.152,309.44 397.152,306.44 396,303.5C 392.333,297.833 388.667,292.167 385,286.5C 383.333,282.833 381.667,279.167 380,275.5C 361.958,251.121 345.958,225.454 332,198.5C 331.911,194.972 331.244,191.638 330,188.5C 329.333,182.833 329.333,177.167 330,171.5C 332.137,145.378 335.137,119.378 339,93.5C 339.667,82.1667 339.667,70.8333 339,59.5C 330.359,33.789 312.526,23.9557 285.5,30C 282.254,31.8586 278.921,33.5252 275.5,35C 268.13,41.7824 262.963,49.949 260,59.5C 259.543,88.7698 261.876,117.77 267,146.5C 267.806,158.336 268.639,170.169 269.5,182C 269.68,187.735 268.846,193.235 267,198.5C 263.231,207.488 258.898,216.155 254,224.5C 238.851,245.645 224.518,267.312 211,289.5C 202.916,305.265 195.249,321.265 188,337.5C 186.391,344.825 184.891,352.159 183.5,359.5C 166.002,322.453 151.168,284.12 139,244.5C 126.478,205.42 125.478,166.087 136,126.5C 146.944,91.7584 167.444,64.4251 197.5,44.5C 236.112,24.8395 277.112,17.0062 320.5,21C 348.792,23.5699 375.459,31.4032 400.5,44.5 Z"/></g>
<g><path style="opacity:1" fill="#f5f5f5" d="M 404.5,359.5 C 407.105,376.216 408.772,392.883 409.5,409.5C 409.316,426.532 408.483,443.532 407,460.5C 404.605,485.237 391.105,496.403 366.5,494C 359.774,492.256 353.107,490.423 346.5,488.5C 338.119,483.65 330.119,478.316 322.5,472.5C 307.161,464.501 291.828,464.501 276.5,472.5C 272.794,476.204 268.46,479.204 263.5,481.5C 262.914,481.291 262.414,480.957 262,480.5C 258.186,482.984 254.353,485.318 250.5,487.5C 212.118,502.368 192.284,489.035 191,447.5C 190.176,423.482 190.509,399.482 192,375.5C 194.879,354.408 201.213,334.408 211,315.5C 228.146,285.369 246.479,256.036 266,227.5C 277.826,207.348 282.16,185.682 279,162.5C 275.569,134.192 272.403,105.859 269.5,77.5C 269.244,64.755 273.578,53.9216 282.5,45C 297.162,36.2013 310.328,38.0346 322,50.5C 329.03,62.924 331.364,76.2573 329,90.5C 324.147,120.489 320.981,150.655 319.5,181C 319.642,199.092 324.809,215.592 335,230.5C 351.415,254.323 367.081,278.657 382,303.5C 391.958,321.215 399.458,339.882 404.5,359.5 Z"/></g>
<g><path style="opacity:1" fill="#3d3938" d="M 197.5,44.5 C 167.444,64.4251 146.944,91.7584 136,126.5C 125.478,166.087 126.478,205.42 139,244.5C 151.168,284.12 166.002,322.453 183.5,359.5C 183.628,361.655 183.128,363.655 182,365.5C 181.167,388.502 180.333,411.502 179.5,434.5C 181.923,458.039 185.756,481.372 191,504.5C 195.474,540.387 180.307,563.22 145.5,573C 98.5399,587.72 58.3732,577.22 25,541.5C 7.04592,512.411 0.0459237,480.745 4,446.5C 5.89825,433.676 8.56491,421.009 12,408.5C 20.0545,384.727 28.3878,361.06 37,337.5C 41.7432,313.784 46.7432,290.118 52,266.5C 53.1365,262.757 54.4698,259.09 56,255.5C 66.3333,235.833 76.6667,216.167 87,196.5C 94.7966,171.443 102.797,146.443 111,121.5C 123.898,89.8445 145.398,66.0112 175.5,50C 182.557,47.036 189.891,45.2027 197.5,44.5 Z"/></g>
<g><path style="opacity:1" fill="#3d3938" d="M 400.5,44.5 C 418.357,46.431 434.023,53.2643 447.5,65C 472.016,87.1822 488.516,114.349 497,146.5C 500.893,162.407 505.56,178.073 511,193.5C 522.938,216.375 534.604,239.375 546,262.5C 551.368,286.071 556.368,309.738 561,333.5C 569.408,357.97 578.074,382.304 587,406.5C 599.96,445.014 599.627,483.348 586,521.5C 571.08,552.719 546.58,571.552 512.5,578C 489.582,581.177 467.249,578.843 445.5,571C 416.775,560.065 403.942,539.231 407,508.5C 412.762,485.792 416.762,462.792 419,439.5C 419.667,420.167 419.667,400.833 419,381.5C 418.085,374.471 416.919,367.471 415.5,360.5C 433.018,322.506 448.184,283.172 461,242.5C 468.259,216.324 471.259,189.657 470,162.5C 466.017,111.488 442.85,72.1547 400.5,44.5 Z"/></g>
<g><path style="opacity:1" fill="#1d1d1b" d="M 211.5,139.5 C 232.172,137.857 243.839,147.191 246.5,167.5C 242.709,189.759 229.709,198.259 207.5,193C 190.631,182.358 186.798,168.192 196,150.5C 200.478,145.694 205.644,142.027 211.5,139.5 Z"/></g>
<g><path style="opacity:1" fill="#1d1d1b" d="M 374.5,139.5 C 395.079,138.417 406.413,148.084 408.5,168.5C 404.746,188.397 392.746,196.897 372.5,194C 358.176,187.981 351.676,177.148 353,161.5C 356.35,150.318 363.517,142.984 374.5,139.5 Z"/></g>
<g><path style="opacity:1" fill="#f2f2f2" d="M 386.5,150.5 C 393.685,150.848 396.519,154.515 395,161.5C 392.487,165.212 388.987,166.378 384.5,165C 378.962,159.319 379.628,154.485 386.5,150.5 Z"/></g>
<g><path style="opacity:1" fill="#f2f2f2" d="M 223.5,152.5 C 230.497,151.666 233.664,154.666 233,161.5C 228.155,167.079 223.822,166.746 220,160.5C 219.777,157.275 220.943,154.609 223.5,152.5 Z"/></g>
<g><path style="opacity:1" fill="#c0c1c1" d="M 312.5,243.5 C 316.224,243.05 318.391,244.717 319,248.5C 319.667,252.833 319.667,257.167 319,261.5C 314.82,264.532 311.82,263.532 310,258.5C 308.868,253.116 309.702,248.116 312.5,243.5 Z"/></g>
<g><path style="opacity:1" fill="#bec0bf" d="M 221.5,345.5 C 224.698,346.854 225.864,349.187 225,352.5C 221.586,358.997 217.919,365.33 214,371.5C 210.885,368.818 209.885,365.484 211,361.5C 212.764,354.926 216.264,349.592 221.5,345.5 Z"/></g>
<g><path style="opacity:1" fill="#040404" d="M 289.5,347.5 C 303.314,346.975 316.981,348.142 330.5,351C 351.392,357.281 359.559,371.114 355,392.5C 350.009,406.16 340.843,415.993 327.5,422C 317.739,427.024 307.406,429.358 296.5,429C 285.325,427.164 274.992,423.164 265.5,417C 249.889,406.61 243.389,392.11 246,373.5C 249.015,364.484 254.849,357.984 263.5,354C 272.047,350.863 280.714,348.696 289.5,347.5 Z"/></g>
<g><path style="opacity:1" fill="#bec0bf" d="M 362.5,350.5 C 369.784,353.519 374.117,359.019 375.5,367C 374.458,372.126 371.958,373.292 368,370.5C 365.089,365.178 362.589,359.678 360.5,354C 360.978,352.697 361.645,351.531 362.5,350.5 Z"/></g>
<g><path style="opacity:1" fill="#1c1c1a" d="M 298.5,357.5 C 316.336,356.347 331.503,362.013 344,374.5C 346.116,380.335 345.782,386.001 343,391.5C 339.917,396.588 336.083,401.088 331.5,405C 321.767,411.542 311.267,416.042 300,418.5C 295.077,416.421 289.91,414.921 284.5,414C 272.764,407.266 263.264,398.099 256,386.5C 255.833,385.167 255.667,383.833 255.5,382.5C 255.824,378.856 256.991,375.522 259,372.5C 262.043,369.823 265.21,367.323 268.5,365C 273.411,363.871 278.078,362.204 282.5,360C 287.5,359.667 292.5,359.333 297.5,359C 298.056,358.617 298.389,358.117 298.5,357.5 Z"/></g>
<g><path style="opacity:1" fill="#262524" d="M 404.5,359.5 C 406.19,363.207 407.356,367.207 408,371.5C 409.11,384.143 409.61,396.81 409.5,409.5C 408.772,392.883 407.105,376.216 404.5,359.5 Z"/></g>
<g><path style="opacity:1" fill="#b4b6b5" d="M 375.5,404.5 C 384.85,410.372 388.017,418.706 385,429.5C 382.645,434.557 379.645,435.224 376,431.5C 372.22,424.265 370.886,416.598 372,408.5C 372.69,406.65 373.856,405.316 375.5,404.5 Z"/></g>
<g><path style="opacity:1" fill="#bec0bf" d="M 233.5,421.5 C 236.833,421.027 239,422.36 240,425.5C 242,429.5 242,433.5 240,437.5C 238.062,438.86 236.396,438.527 235,436.5C 231.238,431.701 230.738,426.701 233.5,421.5 Z"/></g>
<g><path style="opacity:1" fill="#b4b6b5" d="M 343.5,424.5 C 351.332,424.876 353.499,428.543 350,435.5C 348.182,438 345.848,439.666 343,440.5C 339.693,439.752 338.193,437.585 338.5,434C 338.726,430.046 340.393,426.879 343.5,424.5 Z"/></g>
<g><path style="opacity:1" fill="#332b29" d="M 322.5,472.5 C 315.234,474.047 307.734,474.714 300,474.5C 291.94,474.693 284.107,474.027 276.5,472.5C 291.828,464.501 307.161,464.501 322.5,472.5 Z"/></g>
<g><path style="opacity:1" fill="#bbbcbc" d="M 276.5,472.5 C 284.107,474.027 291.94,474.693 300,474.5C 307.734,474.714 315.234,474.047 322.5,472.5C 330.119,478.316 338.119,483.65 346.5,488.5C 314.403,495.462 282.403,495.129 250.5,487.5C 254.353,485.318 258.186,482.984 262,480.5C 262.414,480.957 262.914,481.291 263.5,481.5C 268.46,479.204 272.794,476.204 276.5,472.5 Z"/></g>
</svg>
