<?xml version="1.0" encoding="UTF-8"?>
<!DOCTYPE svg PUBLIC "-//W3C//DTD SVG 1.1//EN" "http://www.w3.org/Graphics/SVG/1.1/DTD/svg11.dtd">
<svg xmlns="http://www.w3.org/2000/svg" version="1.1" width="600px" height="600px" style="shape-rendering:geometricPrecision; text-rendering:geometricPrecision; image-rendering:optimizeQuality; fill-rule:evenodd; clip-rule:evenodd" xmlns:xlink="http://www.w3.org/1999/xlink">
<g><path style="opacity:0.97" fill="#010000" d="M 230.5,-0.5 C 238.5,-0.5 246.5,-0.5 254.5,-0.5C 269.029,6.83543 276.862,18.8354 278,35.5C 278.957,43.8091 279.624,52.1425 280,60.5C 293.341,59.1674 306.674,59.1674 320,60.5C 320.398,46.9081 322.398,33.5748 326,20.5C 330.381,10.9544 337.214,3.95439 346.5,-0.5C 354.167,-0.5 361.833,-0.5 369.5,-0.5C 420.258,8.80918 468.258,25.9759 513.5,51C 521.782,57.0634 526.282,65.23 527,75.5C 527.265,91.518 524.932,107.185 520,122.5C 508.094,156.311 496.761,190.311 486,224.5C 480.707,282.886 471.874,340.719 459.5,398C 462.459,407.209 465.626,416.376 469,425.5C 472.627,439.705 473.294,454.038 471,468.5C 469.495,478.039 464.661,485.205 456.5,490C 453.518,490.498 450.518,490.665 447.5,490.5C 447.606,498.338 445.773,505.671 442,512.5C 430.211,530.623 415.377,545.79 397.5,558C 393.955,558.717 390.455,558.55 387,557.5C 381.343,564.494 374.509,569.994 366.5,574C 352.288,581.106 337.622,587.106 322.5,592C 318.106,593.582 314.439,596.082 311.5,599.5C 303.833,599.5 296.167,599.5 288.5,599.5C 285.561,596.082 281.894,593.582 277.5,592C 262.154,586.494 247.154,580.161 232.5,573C 225.056,568.719 218.723,563.219 213.5,556.5C 210.656,558.103 207.656,558.603 204.5,558C 183.258,545.424 166.758,528.258 155,506.5C 154.014,500.792 152.848,495.126 151.5,489.5C 141.819,490.371 135.319,486.038 132,476.5C 126.249,459.218 126.249,441.885 132,424.5C 134.325,415.518 137.492,406.851 141.5,398.5C 135.913,376.399 131.413,354.065 128,331.5C 123.041,295.532 118.374,259.532 114,223.5C 111.333,214.167 108.667,204.833 106,195.5C 94.0054,166.183 84.0054,136.183 76,105.5C 72.6908,92.8254 72.3575,80.1587 75,67.5C 78.352,58.147 84.5187,51.3137 93.5,47C 136.887,24.2611 182.554,8.42781 230.5,-0.5 Z"/></g>
<g><path style="opacity:1" fill="#a9762c" d="M 254.5,12.5 C 230.959,36.5666 215.459,65.2332 208,98.5C 204.597,116.053 201.931,133.72 200,151.5C 197.26,163.33 190.094,167.164 178.5,163C 162.703,158.438 148.703,150.771 136.5,140C 122.226,126.899 109.726,112.399 99,96.5C 91.9391,86.1638 89.1058,74.8305 90.5,62.5C 93.3664,59.4789 96.6997,56.9789 100.5,55C 142.242,33.4192 186.242,18.4192 232.5,10C 238.833,9.33333 245.167,9.33333 251.5,10C 252.942,10.3768 253.942,11.2101 254.5,12.5 Z"/></g>
<g><path style="opacity:1" fill="#a9762c" d="M 512.5,65.5 C 511.732,76.6365 508.232,86.9699 502,96.5C 485.308,122.527 463.475,143.027 436.5,158C 427.967,162.293 418.967,164.293 409.5,164C 405.23,162.73 402.73,159.896 402,155.5C 399.188,138.196 396.522,120.863 394,103.5C 387.185,67.8546 371.019,37.5212 345.5,12.5C 346.058,11.2101 347.058,10.3768 348.5,10C 360.657,9.02189 372.657,10.0219 384.5,13C 426.006,22.7239 465.673,37.3905 503.5,57C 507,59.3342 510,62.1675 512.5,65.5 Z"/></g>
<g><path style="opacity:1" fill="#c6994c" d="M 254.5,12.5 C 254.938,12.4346 255.272,12.6012 255.5,13C 232.052,37.386 216.552,66.2193 209,99.5C 205.597,117.053 202.931,134.72 201,152.5C 199.873,160.462 195.373,164.796 187.5,165.5C 167.705,162.435 150.372,154.268 135.5,141C 119.021,126.203 105.188,109.369 94,90.5C 90.1052,82.9266 88.4385,74.9266 89,66.5C 89.21,64.9419 89.71,63.6085 90.5,62.5C 89.1058,74.8305 91.9391,86.1638 99,96.5C 109.726,112.399 122.226,126.899 136.5,140C 148.703,150.771 162.703,158.438 178.5,163C 190.094,167.164 197.26,163.33 200,151.5C 201.931,133.72 204.597,116.053 208,98.5C 215.459,65.2332 230.959,36.5666 254.5,12.5 Z"/></g>
<g><path style="opacity:1" fill="#dfad57" d="M 337.5,20.5 C 360.726,43.9397 375.893,71.9397 383,104.5C 385.657,119.411 387.657,134.411 389,149.5C 392.31,172.744 405.143,180.577 427.5,173C 440.116,169.191 451.783,163.525 462.5,156C 483.259,139.916 500.425,120.749 514,98.5C 508.308,125.914 499.974,152.581 489,178.5C 484.061,192.318 479.727,206.318 476,220.5C 471.521,254.14 467.188,287.807 463,321.5C 459.968,342.692 455.968,363.692 451,384.5C 430.617,346.784 401.117,318.617 362.5,300C 299.638,275.508 242.972,285.508 192.5,330C 175.339,346.148 160.839,364.315 149,384.5C 144.579,364.975 140.913,345.309 138,325.5C 133.405,289.812 128.739,254.146 124,218.5C 121.178,209.546 118.511,200.546 116,191.5C 107.409,169.395 99.409,147.061 92,124.5C 89.0334,115.309 87.0334,105.976 86,96.5C 101.985,123.153 122.818,145.32 148.5,163C 162.116,171.098 176.783,175.098 192.5,175C 199.737,173.432 204.904,169.266 208,162.5C 209.644,157.923 210.978,153.256 212,148.5C 213.284,120.41 219.284,93.4095 230,67.5C 238.142,50.1989 248.975,34.8656 262.5,21.5C 264.347,24.2016 265.513,27.2016 266,30.5C 267.941,43.0821 268.941,55.7488 269,68.5C 269.374,69.4162 269.874,70.2496 270.5,71C 288.496,70.2526 306.496,70.4193 324.5,71.5C 327.011,71.712 329.178,71.0454 331,69.5C 331.492,58.4893 332.158,47.4893 333,36.5C 333.883,30.9637 335.383,25.6304 337.5,20.5 Z"/></g>
<g><path style="opacity:1" fill="#c69a4c" d="M 345.5,12.5 C 371.019,37.5212 387.185,67.8546 394,103.5C 396.522,120.863 399.188,138.196 402,155.5C 402.73,159.896 405.23,162.73 409.5,164C 418.967,164.293 427.967,162.293 436.5,158C 463.475,143.027 485.308,122.527 502,96.5C 508.232,86.9699 511.732,76.6365 512.5,65.5C 512.869,77.2255 509.702,87.8922 503,97.5C 486.308,123.527 464.475,144.027 437.5,159C 428.361,163.689 418.694,165.689 408.5,165C 404.23,163.73 401.73,160.896 401,156.5C 398.188,139.196 395.522,121.863 393,104.5C 388.264,82.0338 379.93,61.0338 368,41.5C 360.975,31.4416 353.475,21.7749 345.5,12.5 Z"/></g>
<g><path style="opacity:1" fill="#39302c" d="M 245.5,247.5 C 242.833,249.5 240.5,251.833 238.5,254.5C 228.154,262.275 217.488,262.441 206.5,255C 191.836,240.345 191.836,225.678 206.5,211C 223.996,201.698 237.83,205.531 248,222.5C 250.553,231.258 249.72,239.592 245.5,247.5 Z"/></g>
<g><path style="opacity:1" fill="#39302c" d="M 374.5,205.5 C 389.461,205.54 399.295,212.54 404,226.5C 406.033,243.193 399.2,254.026 383.5,259C 366.699,261.361 355.866,254.528 351,238.5C 349.416,220.609 357.249,209.609 374.5,205.5 Z"/></g>
<g><path style="opacity:1" fill="#f2f2f2" d="M 230.5,219.5 C 236.293,220.421 237.626,223.255 234.5,228C 229,229.167 226.833,227 228,221.5C 228.995,220.934 229.828,220.267 230.5,219.5 Z"/></g>
<g><path style="opacity:1" fill="#ededed" d="M 386.5,219.5 C 392.263,219.783 393.93,222.616 391.5,228C 383.208,228.89 381.542,226.057 386.5,219.5 Z"/></g>
<g><path style="opacity:1" fill="#907142" d="M 245.5,247.5 C 244.167,250.833 241.833,253.167 238.5,254.5C 240.5,251.833 242.833,249.5 245.5,247.5 Z"/></g>
<g><path style="opacity:1" fill="#a9762d" d="M 448.5,399.5 C 453.964,412.06 458.131,425.06 461,438.5C 463.368,450.016 462.701,461.35 459,472.5C 456.149,481.21 451.482,482.543 445,476.5C 442.167,471.5 439.333,466.5 436.5,461.5C 435.554,470.985 435.554,480.485 436.5,490C 436.569,494.585 436.069,499.085 435,503.5C 424.34,520.831 410.84,535.664 394.5,548C 393.216,548.684 392.049,548.517 391,547.5C 388.957,541.622 387.29,535.622 386,529.5C 385.282,528.549 384.449,528.383 383.5,529C 381.672,536.128 379.839,543.294 378,550.5C 371.583,558.909 363.416,565.076 353.5,569C 338.672,574.609 324.006,580.609 309.5,587C 306.035,589.463 302.869,592.296 300,595.5C 297.131,592.296 293.965,589.463 290.5,587C 277.157,580.552 263.49,574.886 249.5,570C 242.011,566.759 235.011,562.759 228.5,558C 225.727,555.617 223.561,552.783 222,549.5C 220.634,541.934 218.634,534.601 216,527.5C 214.615,528.551 213.615,529.884 213,531.5C 212.021,536.895 210.855,542.228 209.5,547.5C 207.801,547.66 206.134,547.494 204.5,547C 187.359,534.535 173.859,519.035 164,500.5C 163.833,496.667 163.667,492.833 163.5,489C 164.007,480.138 164.507,471.305 165,462.5C 164,461.167 163,461.167 162,462.5C 159.623,468.762 156.123,474.262 151.5,479C 149.432,479.687 147.432,479.52 145.5,478.5C 141.994,474.485 139.827,469.819 139,464.5C 137.005,441.48 141.505,419.813 152.5,399.5C 153.496,399.586 154.329,399.252 155,398.5C 177.204,352.96 212.037,321.46 259.5,304C 303.647,291.525 344.647,298.191 382.5,324C 409.804,343.635 430.971,368.468 446,398.5C 446.671,399.252 447.504,399.586 448.5,399.5 Z"/></g>
<g><path style="opacity:1" fill="#bf9449" d="M 448.5,399.5 C 447.504,399.586 446.671,399.252 446,398.5C 430.971,368.468 409.804,343.635 382.5,324C 344.647,298.191 303.647,291.525 259.5,304C 212.037,321.46 177.204,352.96 155,398.5C 154.329,399.252 153.496,399.586 152.5,399.5C 169.589,364.24 194.923,336.407 228.5,316C 292.709,284.037 351.376,292.037 404.5,340C 422.225,357.637 436.892,377.47 448.5,399.5 Z"/></g>
<g><path style="opacity:1" fill="#080503" d="M 284.5,385.5 C 299.593,384.94 314.593,385.773 329.5,388C 355.173,393.841 365.34,409.675 360,435.5C 348.159,459.024 328.992,472.024 302.5,474.5C 282.663,472.665 266.163,464.332 253,449.5C 242.863,436.292 240.863,421.958 247,406.5C 250.5,401.667 254.667,397.5 259.5,394C 267.576,390.031 275.909,387.198 284.5,385.5 Z"/></g>
<g><path style="opacity:1" fill="#362e2a" d="M 299.5,395.5 C 312.618,395.183 325.285,397.35 337.5,402C 349.218,408.605 353.384,418.438 350,431.5C 341.651,447.831 328.484,458.331 310.5,463C 289.173,464.253 272.006,456.419 259,439.5C 249.23,420.131 254.397,406.631 274.5,399C 282.913,397.361 291.246,396.195 299.5,395.5 Z"/></g>
</svg>
