<?xml version="1.0" encoding="UTF-8"?>
<!DOCTYPE svg PUBLIC "-//W3C//DTD SVG 1.1//EN" "http://www.w3.org/Graphics/SVG/1.1/DTD/svg11.dtd">
<svg xmlns="http://www.w3.org/2000/svg" version="1.1" width="600px" height="600px" style="shape-rendering:geometricPrecision; text-rendering:geometricPrecision; image-rendering:optimizeQuality; fill-rule:evenodd; clip-rule:evenodd" xmlns:xlink="http://www.w3.org/1999/xlink">
<g><path style="opacity:0.956" fill="#030303" d="M 143.5,-0.5 C 149.833,-0.5 156.167,-0.5 162.5,-0.5C 167.066,2.55685 171.233,6.22352 175,10.5C 199.267,39.7657 221.6,70.4324 242,102.5C 245.392,91.0301 252.559,87.8634 263.5,93C 268.006,97.1733 272.173,101.673 276,106.5C 276.068,100.006 277.068,93.6728 279,87.5C 287.696,79.5534 296.03,80.2201 304,89.5C 309.249,96.996 314.249,104.663 319,112.5C 323.495,103.507 328.495,94.8399 334,86.5C 340.842,77.6906 348.509,76.6906 357,83.5C 359.498,88.6416 360.164,93.975 359,99.5C 377.838,70.9948 397.838,43.3281 419,16.5C 424.755,10.5755 430.589,4.90887 436.5,-0.5C 443.167,-0.5 449.833,-0.5 456.5,-0.5C 470.313,11.4909 481.813,25.4909 491,41.5C 502.935,62.0381 513.269,83.3714 522,105.5C 528.534,107.093 535.034,108.926 541.5,111C 549.5,118 549.5,125 541.5,132C 538.226,133.202 534.893,134.202 531.5,135C 541.507,164.701 547.007,195.201 548,226.5C 546.5,234.667 541.667,239.5 533.5,241C 541.266,245.768 548.099,251.601 554,258.5C 558.114,268.401 560.448,278.735 561,289.5C 561.909,300.892 561.576,312.225 560,323.5C 557.995,328.756 554.161,331.422 548.5,331.5C 548.351,332.552 548.517,333.552 549,334.5C 552.394,338.898 555.394,343.565 558,348.5C 560.083,355.592 559.75,362.592 557,369.5C 555.062,372.106 552.562,373.939 549.5,375C 552.469,379.741 554.136,384.907 554.5,390.5C 553.583,401.347 550.583,411.514 545.5,421C 540.607,424.33 535.607,424.83 530.5,422.5C 532.231,431.33 535.731,439.663 541,447.5C 542.956,454.374 542.289,461.04 539,467.5C 527.503,488.498 511.67,505.498 491.5,518.5C 490.274,538.476 481.274,553.642 464.5,564C 461.247,565.036 457.914,565.703 454.5,566C 451.628,571.287 447.294,574.953 441.5,577C 435.859,578.936 430.192,580.769 424.5,582.5C 419.366,581.35 414.866,579.017 411,575.5C 397.031,587.211 381.197,595.211 363.5,599.5C 320.833,599.5 278.167,599.5 235.5,599.5C 217.651,595.242 201.651,587.242 187.5,575.5C 183.89,579.139 179.556,581.472 174.5,582.5C 165.838,580.223 157.505,577.057 149.5,573C 147.47,571.104 145.803,568.937 144.5,566.5C 129.681,563.161 119.181,554.494 113,540.5C 110.226,533.071 108.559,525.404 108,517.5C 86.3204,504.49 70.3204,486.49 60,463.5C 59.2886,460.266 58.4553,457.099 57.5,454C 62.4354,443.722 67.1021,433.222 71.5,422.5C 71.3333,422.167 71.1667,421.833 71,421.5C 59.4151,426.708 52.0818,423.041 49,410.5C 47.1841,403.903 45.6841,397.236 44.5,390.5C 45.1674,385.164 46.8341,380.164 49.5,375.5C 42.5183,371.446 39.1849,365.28 39.5,357C 41.1072,347.786 45.1072,339.786 51.5,333C 46.7312,331.87 42.8979,329.37 40,325.5C 36.6529,304.664 37.6529,283.997 43,263.5C 48.5,254 56,246.5 65.5,241C 58.706,239.854 54.206,236.021 52,229.5C 51.141,226.052 50.641,222.552 50.5,219C 53.4144,190.595 59.081,162.761 67.5,135.5C 62.3607,134.347 57.8607,132.014 54,128.5C 49.7449,118.508 52.9116,112.008 63.5,109C 68.0959,107.714 72.7626,106.881 77.5,106.5C 89.8244,71.8406 107.324,40.174 130,11.5C 134.099,6.89181 138.599,2.89181 143.5,-0.5 Z"/></g>
<g><path style="opacity:1" fill="#faf5e9" d="M 519.5,309.5 C 518.828,308.733 517.995,308.066 517,307.5C 516.415,308.998 516.915,309.998 518.5,310.5C 529.64,324.101 539.806,338.435 549,353.5C 549.815,357.734 548.982,361.568 546.5,365C 544.167,365.667 541.833,365.667 539.5,365C 535.317,362.758 530.984,362.258 526.5,363.5C 534.425,369.932 540.258,377.932 544,387.5C 543.608,396.031 541.941,404.364 539,412.5C 538.275,413.059 537.442,413.392 536.5,413.5C 532.528,412.181 528.862,410.348 525.5,408C 521.916,404.584 517.916,401.751 513.5,399.5C 512.353,401.765 512.186,404.098 513,406.5C 516.859,422.422 522.859,437.422 531,451.5C 531.186,457.952 529.519,463.952 526,469.5C 514.196,487.473 499.029,501.806 480.5,512.5C 477.016,498.61 473.85,484.61 471,470.5C 470.693,465.118 470.026,459.785 469,454.5C 463.667,441.833 458.333,429.167 453,416.5C 442.167,405.667 431.333,394.833 420.5,384C 385.612,354.913 345.279,340.413 299.5,340.5C 212.903,342.638 156.069,384.638 129,466.5C 124.846,481.418 121.679,496.418 119.5,511.5C 96.7137,499.546 79.8804,481.879 69,458.5C 67.7765,453.387 69.1098,449.053 73,445.5C 79.9509,430.815 84.7843,415.481 87.5,399.5C 85.3453,399.372 83.3453,399.872 81.5,401C 75.5822,407.105 68.5822,411.272 60.5,413.5C 58.6974,407.589 57.1974,401.589 56,395.5C 54.5942,388.896 55.9276,382.896 60,377.5C 63.9812,372.684 68.1479,368.018 72.5,363.5C 71.3333,363.167 70.1667,362.833 69,362.5C 65.8048,363.178 62.6381,364.012 59.5,365C 57.1667,365.667 54.8333,365.667 52.5,365C 50.5223,361.067 50.0223,356.9 51,352.5C 60.584,337.75 70.7506,323.417 81.5,309.5C 75.065,312.208 68.3984,315.375 61.5,319C 57.5948,320.359 53.5948,321.192 49.5,321.5C 47.9262,305.12 48.4262,288.786 51,272.5C 52.8152,265.67 56.6485,260.17 62.5,256C 71.5004,249.831 80.8338,244.164 90.5,239C 92.2273,237.611 93.5606,235.944 94.5,234C 94.1802,232.347 93.1802,231.347 91.5,231C 82.5,230.667 73.5,230.333 64.5,230C 63.2986,229.097 62.4652,227.931 62,226.5C 62.8213,192.557 68.988,159.557 80.5,127.5C 75.4687,126.492 70.4687,125.326 65.5,124C 64.09,123.632 63.09,122.799 62.5,121.5C 64.0031,119.578 66.0031,118.412 68.5,118C 74.1415,117.278 79.6415,116.111 85,114.5C 97.3379,80.4807 114.338,49.1473 136,20.5C 140.199,15.9657 144.699,11.799 149.5,8C 153.809,6.80162 157.476,7.80162 160.5,11C 172.085,23.247 182.918,36.0803 193,49.5C 211.5,76 230,102.5 248.5,129C 251.025,129.896 253.192,129.396 255,127.5C 255.096,118.476 254.596,109.476 253.5,100.5C 257.324,101.335 260.49,103.335 263,106.5C 268.723,113.891 274.056,121.557 279,129.5C 280.852,133.077 283.518,134.077 287,132.5C 287.333,131.5 287.667,130.5 288,129.5C 288.067,117.172 287.901,104.839 287.5,92.5C 289.199,92.3398 290.866,92.5065 292.5,93C 295.372,95.5366 297.872,98.3699 300,101.5C 306.34,111.509 312.173,121.842 317.5,132.5C 319.858,130.976 321.691,128.976 323,126.5C 328.914,113.275 336.414,101.108 345.5,90C 346.448,89.5172 347.448,89.3505 348.5,89.5C 346.965,100.509 345.299,111.509 343.5,122.5C 343.304,126.268 344.637,129.268 347.5,131.5C 348.5,131 349.5,130.5 350.5,130C 371.278,99.5566 392.444,69.3899 414,39.5C 422.448,28.052 431.948,17.552 442.5,8C 445.167,6 447.833,6 450.5,8C 462.831,19.3313 473.331,32.1647 482,46.5C 495.279,68.7239 506.113,92.0573 514.5,116.5C 522.7,116.006 530.367,117.672 537.5,121.5C 531.956,124.678 525.956,126.345 519.5,126.5C 527.898,154.322 534.065,182.655 538,211.5C 538.667,216.167 538.667,220.833 538,225.5C 537.215,227.286 536.049,228.786 534.5,230C 525.5,230.333 516.5,230.667 507.5,231C 504.833,233.333 504.833,235.667 507.5,238C 518.334,243.581 528.668,249.914 538.5,257C 544.558,261.722 548.058,267.889 549,275.5C 550.567,284.936 551.4,294.436 551.5,304C 551.711,309.828 551.045,315.495 549.5,321C 547.5,321.667 545.5,321.667 543.5,321C 535.078,317.955 527.078,314.121 519.5,309.5 Z"/></g>
<g><path style="opacity:1" fill="#090908" d="M 476.5,123.5 C 470.069,124.682 463.736,125.682 457.5,126.5C 437.737,127.274 419.07,132.107 401.5,141C 388.323,143.147 383.49,137.647 387,124.5C 398.322,100.521 411.322,77.521 426,55.5C 441.087,39.3658 453.42,41.3658 463,61.5C 469.448,76.9303 475.448,92.5969 481,108.5C 481.667,111.5 481.667,114.5 481,117.5C 480.434,120.229 478.934,122.229 476.5,123.5 Z"/></g>
<g><path style="opacity:1" fill="#f1998f" d="M 449.5,58.5 C 450.659,62.1513 452.326,65.4846 454.5,68.5C 460.764,84.0336 466.764,99.7003 472.5,115.5C 470.5,115.5 468.5,115.5 466.5,115.5C 459.604,115.294 452.937,115.961 446.5,117.5C 440.666,117.711 434.999,118.711 429.5,120.5C 424.45,120.855 419.783,122.188 415.5,124.5C 410.777,125.37 406.444,127.036 402.5,129.5C 400.742,129.877 399.075,130.544 397.5,131.5C 396.614,130.675 396.281,129.675 396.5,128.5C 397.338,128.158 397.672,127.492 397.5,126.5C 400.341,122.151 402.674,117.484 404.5,112.5C 406.461,109.348 408.128,106.015 409.5,102.5C 411.924,99.9922 413.59,96.9922 414.5,93.5C 418.024,89.106 420.524,84.106 422,78.5C 423,77.8333 424,77.1667 425,76.5C 425.139,73.5547 426.306,71.2214 428.5,69.5C 430.9,67.7036 432.567,65.3702 433.5,62.5C 436.167,60.5 438.5,58.1667 440.5,55.5C 442.288,54.3775 444.288,54.2109 446.5,55C 447.163,56.5185 448.163,57.6851 449.5,58.5 Z"/></g>
<g><path style="opacity:1" fill="#615d59" d="M 440.5,55.5 C 438.5,58.1667 436.167,60.5 433.5,62.5C 434.833,59.1667 437.167,56.8333 440.5,55.5 Z"/></g>
<g><path style="opacity:1" fill="#66615c" d="M 449.5,58.5 C 452.207,61.2466 453.873,64.5799 454.5,68.5C 452.326,65.4846 450.659,62.1513 449.5,58.5 Z"/></g>
<g><path style="opacity:1" fill="#6a645f" d="M 433.5,62.5 C 432.567,65.3702 430.9,67.7036 428.5,69.5C 429.433,66.6298 431.1,64.2964 433.5,62.5 Z"/></g>
<g><path style="opacity:1" fill="#6d6661" d="M 414.5,93.5 C 413.59,96.9922 411.924,99.9922 409.5,102.5C 410.41,99.0078 412.076,96.0078 414.5,93.5 Z"/></g>
<g><path style="opacity:1" fill="#6d6661" d="M 466.5,115.5 C 460.03,116.696 453.363,117.362 446.5,117.5C 452.937,115.961 459.604,115.294 466.5,115.5 Z"/></g>
<g><path style="opacity:1" fill="#66605c" d="M 404.5,112.5 C 402.674,117.484 400.341,122.151 397.5,126.5C 398.793,121.247 401.126,116.581 404.5,112.5 Z"/></g>
<g><path style="opacity:1" fill="#6d6560" d="M 429.5,120.5 C 425.103,122.405 420.437,123.739 415.5,124.5C 419.783,122.188 424.45,120.855 429.5,120.5 Z"/></g>
<g><path style="opacity:1" fill="#090908" d="M 142.5,126.5 C 136.999,125.402 131.333,124.902 125.5,125C 129.171,125.9 132.837,126.734 136.5,127.5C 154.533,131.683 171.867,137.849 188.5,146C 197.59,151.442 198.923,158.442 192.5,167C 187.746,171.094 182.246,173.261 176,173.5C 174.167,173.333 172.333,173.167 170.5,173C 164.295,168.236 157.628,164.569 150.5,162C 153.965,164.463 157.131,167.296 160,170.5C 160.667,174.167 160.667,177.833 160,181.5C 159.215,183.286 158.049,184.786 156.5,186C 145.658,191.598 134.658,191.931 123.5,187C 106.706,187.852 100.54,180.019 105,163.5C 105.667,158.833 106.333,154.167 107,149.5C 107.615,147.884 108.615,146.551 110,145.5C 110.227,140.103 110.894,134.769 112,129.5C 114.653,125.257 118.486,123.424 123.5,124C 118.07,119.184 116.57,113.35 119,106.5C 124.813,87.3662 132.48,69.0329 142,51.5C 148.683,43.4944 156.516,42.3277 165.5,48C 175.5,57.8358 183.666,69.0025 190,81.5C 197.333,95.5 204.667,109.5 212,123.5C 213.985,128.718 213.651,133.718 211,138.5C 208.698,140.574 206.032,141.908 203,142.5C 191.558,137.667 179.725,133.5 167.5,130C 159.244,128.225 150.911,127.059 142.5,126.5 Z"/></g>
<g><path style="opacity:1" fill="#94817a" d="M 128.5,110.5 C 128.5,111.833 128.5,113.167 128.5,114.5C 134.009,114.875 139.342,115.542 144.5,116.5C 138.804,116.553 133.138,116.22 127.5,115.5C 127.216,113.585 127.549,111.919 128.5,110.5 Z"/></g>
<g><path style="opacity:1" fill="#645f5a" d="M 187.5,98.5 C 189.588,100.336 190.921,102.669 191.5,105.5C 189.412,103.664 188.079,101.331 187.5,98.5 Z"/></g>
<g><path style="opacity:1" fill="#6e6762" d="M 158.5,55.5 C 162.167,57.1667 164.833,59.8333 166.5,63.5C 163.5,61.1667 160.833,58.5 158.5,55.5 Z"/></g>
<g><path style="opacity:1" fill="#f1998f" d="M 158.5,55.5 C 160.833,58.5 163.5,61.1667 166.5,63.5C 173.721,74.9252 180.721,86.5918 187.5,98.5C 188.079,101.331 189.412,103.664 191.5,105.5C 194.325,112.484 197.659,119.151 201.5,125.5C 201.519,127.06 201.852,128.56 202.5,130C 202.164,131.03 201.497,131.53 200.5,131.5C 193.378,127.285 185.712,124.119 177.5,122C 166.739,119.217 155.739,117.384 144.5,116.5C 139.342,115.542 134.009,114.875 128.5,114.5C 128.5,113.167 128.5,111.833 128.5,110.5C 133.144,99.0737 137.31,87.407 141,75.5C 143.758,68.9877 146.758,62.6543 150,56.5C 152.542,54.1618 155.375,53.8285 158.5,55.5 Z"/></g>
<g><path style="opacity:1" fill="#080807" d="M 476.5,124.5 C 486.578,126.719 490.578,132.886 488.5,143C 493.731,154.895 495.564,167.395 494,180.5C 491.658,183.754 488.491,185.588 484.5,186C 477.379,186.691 470.379,188.024 463.5,190C 456.443,191.194 449.777,190.194 443.5,187C 438.912,182.811 437.412,177.645 439,171.5C 441.833,168.667 444.667,165.833 447.5,163C 441.222,164.641 435.555,167.641 430.5,172C 425.167,175.333 419.833,175.333 414.5,172C 408.515,169.186 404.515,164.686 402.5,158.5C 402.754,154.293 404.421,150.793 407.5,148C 424.99,138.892 443.323,132.059 462.5,127.5C 467.234,126.712 471.9,125.712 476.5,124.5 Z"/></g>
<g><path style="opacity:1" fill="#82807a" d="M 142.5,126.5 C 140.265,126.205 138.265,126.539 136.5,127.5C 132.837,126.734 129.171,125.9 125.5,125C 131.333,124.902 136.999,125.402 142.5,126.5 Z"/></g>
<g><path style="opacity:1" fill="#87847e" d="M 476.5,123.5 C 476.5,123.833 476.5,124.167 476.5,124.5C 471.9,125.712 467.234,126.712 462.5,127.5C 461.081,126.549 459.415,126.216 457.5,126.5C 463.736,125.682 470.069,124.682 476.5,123.5 Z"/></g>
<g><path style="opacity:1" fill="#897973" d="M 201.5,125.5 C 203.163,127.438 203.829,129.772 203.5,132.5C 202.209,132.737 201.209,132.404 200.5,131.5C 201.497,131.53 202.164,131.03 202.5,130C 201.852,128.56 201.519,127.06 201.5,125.5 Z"/></g>
<g><path style="opacity:1" fill="#796f69" d="M 396.5,128.5 C 396.281,129.675 396.614,130.675 397.5,131.5C 399.075,130.544 400.742,129.877 402.5,129.5C 400.824,131.834 398.491,132.834 395.5,132.5C 395.232,130.901 395.566,129.568 396.5,128.5 Z"/></g>
<g><path style="opacity:1" fill="#74635d" d="M 150.5,141.5 C 140.93,139.399 131.43,137.066 122,134.5C 121.768,135.737 121.268,136.737 120.5,137.5C 120.5,136.167 120.5,134.833 120.5,133.5C 130.854,135.253 140.854,137.92 150.5,141.5 Z"/></g>
<g><path style="opacity:1" fill="#ed7060" d="M 150.5,141.5 C 153.215,143.072 156.215,144.072 159.5,144.5C 164.277,146.874 169.277,148.874 174.5,150.5C 177.515,152.674 180.849,154.341 184.5,155.5C 185.739,156.212 186.239,157.212 186,158.5C 182.935,160.407 179.768,162.074 176.5,163.5C 173.156,161.815 169.823,160.148 166.5,158.5C 164.664,156.412 162.331,155.079 159.5,154.5C 154.445,150.812 148.779,148.478 142.5,147.5C 137.822,145.392 132.822,144.059 127.5,143.5C 125.657,142.717 123.657,142.05 121.5,141.5C 120.571,140.311 120.238,138.978 120.5,137.5C 121.268,136.737 121.768,135.737 122,134.5C 131.43,137.066 140.93,139.399 150.5,141.5 Z"/></g>
<g><path style="opacity:1" fill="#816963" d="M 475.5,134.5 C 469.098,136.767 462.432,138.434 455.5,139.5C 461.827,136.918 468.493,135.252 475.5,134.5 Z"/></g>
<g><path style="opacity:1" fill="#ed7161" d="M 475.5,134.5 C 476.9,135.1 477.9,136.1 478.5,137.5C 478.762,138.978 478.429,140.311 477.5,141.5C 473.634,142.189 469.968,143.189 466.5,144.5C 463.848,144.41 461.515,145.076 459.5,146.5C 455.467,147.025 451.8,148.358 448.5,150.5C 443.247,151.793 438.581,154.126 434.5,157.5C 431.296,158.383 428.629,160.05 426.5,162.5C 423.833,163.833 421.167,163.833 418.5,162.5C 416.747,160.777 414.747,159.277 412.5,158C 415.728,155.56 419.061,153.394 422.5,151.5C 425.912,150.958 428.912,149.625 431.5,147.5C 439.647,145.006 447.647,142.34 455.5,139.5C 462.432,138.434 469.098,136.767 475.5,134.5 Z"/></g>
<g><path style="opacity:1" fill="#695e59" d="M 150.5,141.5 C 153.916,141.528 156.916,142.528 159.5,144.5C 156.215,144.072 153.215,143.072 150.5,141.5 Z"/></g>
<g><path style="opacity:1" fill="#7e6a64" d="M 120.5,137.5 C 120.238,138.978 120.571,140.311 121.5,141.5C 123.657,142.05 125.657,142.717 127.5,143.5C 125.08,143.708 122.747,143.374 120.5,142.5C 119.212,140.701 119.212,139.035 120.5,137.5 Z"/></g>
<g><path style="opacity:1" fill="#7d6861" d="M 478.5,137.5 C 479.788,139.035 479.788,140.701 478.5,142.5C 474.577,143.598 470.577,144.265 466.5,144.5C 469.968,143.189 473.634,142.189 477.5,141.5C 478.429,140.311 478.762,138.978 478.5,137.5 Z"/></g>
<g><path style="opacity:1" fill="#5b5450" d="M 466.5,144.5 C 464.485,145.924 462.152,146.59 459.5,146.5C 461.515,145.076 463.848,144.41 466.5,144.5 Z"/></g>
<g><path style="opacity:1" fill="#73635d" d="M 159.5,144.5 C 165.043,145.343 170.043,147.343 174.5,150.5C 169.277,148.874 164.277,146.874 159.5,144.5 Z"/></g>
<g><path style="opacity:1" fill="#6d5f59" d="M 431.5,147.5 C 428.912,149.625 425.912,150.958 422.5,151.5C 425.088,149.375 428.088,148.042 431.5,147.5 Z"/></g>
<g><path style="opacity:1" fill="#ed7060" d="M 124.5,155.5 C 129.825,159.164 135.158,162.83 140.5,166.5C 141.911,168.914 143.911,170.581 146.5,171.5C 146.5,172.167 146.833,172.5 147.5,172.5C 148.476,173.815 149.476,175.148 150.5,176.5C 149.757,177.182 149.091,177.849 148.5,178.5C 144.915,179.583 141.249,180.249 137.5,180.5C 133.837,178.584 129.837,177.584 125.5,177.5C 121.936,176.577 118.269,176.244 114.5,176.5C 114.5,172.5 114.5,168.5 114.5,164.5C 115.903,161.091 116.57,157.425 116.5,153.5C 117.117,153.389 117.617,153.056 118,152.5C 119.993,153.914 122.16,154.914 124.5,155.5 Z"/></g>
<g><path style="opacity:1" fill="#655b56" d="M 142.5,147.5 C 148.779,148.478 154.445,150.812 159.5,154.5C 153.662,152.409 147.995,150.076 142.5,147.5 Z"/></g>
<g><path style="opacity:1" fill="#ec7060" d="M 482.5,153.5 C 483.451,154.919 483.784,156.585 483.5,158.5C 484.074,164.484 484.407,170.484 484.5,176.5C 483.5,176.5 482.5,176.5 481.5,176.5C 474.438,176.446 467.771,177.779 461.5,180.5C 456.866,180.52 452.533,179.354 448.5,177C 449.066,176.005 449.733,175.172 450.5,174.5C 453.167,172.5 455.5,170.167 457.5,167.5C 462.45,164.547 467.117,161.214 471.5,157.5C 473.027,157.573 474.027,156.906 474.5,155.5C 476.84,154.914 479.007,153.914 481,152.5C 481.383,153.056 481.883,153.389 482.5,153.5 Z"/></g>
<g><path style="opacity:1" fill="#71635d" d="M 124.5,155.5 C 122.16,154.914 119.993,153.914 118,152.5C 117.617,153.056 117.117,153.389 116.5,153.5C 116.47,152.503 116.97,151.836 118,151.5C 120.634,152.226 122.801,153.559 124.5,155.5 Z"/></g>
<g><path style="opacity:1" fill="#625a55" d="M 174.5,150.5 C 178.42,151.127 181.753,152.793 184.5,155.5C 180.849,154.341 177.515,152.674 174.5,150.5 Z"/></g>
<g><path style="opacity:1" fill="#6a5f5a" d="M 482.5,153.5 C 481.883,153.389 481.383,153.056 481,152.5C 479.007,153.914 476.84,154.914 474.5,155.5C 476.199,153.559 478.366,152.226 481,151.5C 482.03,151.836 482.53,152.503 482.5,153.5 Z"/></g>
<g><path style="opacity:1" fill="#635954" d="M 448.5,150.5 C 444.151,153.341 439.484,155.674 434.5,157.5C 438.581,154.126 443.247,151.793 448.5,150.5 Z"/></g>
<g><path style="opacity:1" fill="#685e59" d="M 159.5,154.5 C 162.331,155.079 164.664,156.412 166.5,158.5C 163.669,157.921 161.336,156.588 159.5,154.5 Z"/></g>
<g><path style="opacity:1" fill="#7b6862" d="M 116.5,153.5 C 116.57,157.425 115.903,161.091 114.5,164.5C 114.43,160.575 115.097,156.909 116.5,153.5 Z"/></g>
<g><path style="opacity:1" fill="#72635d" d="M 471.5,157.5 C 467.117,161.214 462.45,164.547 457.5,167.5C 461.326,163.01 465.993,159.677 471.5,157.5 Z"/></g>
<g><path style="opacity:1" fill="#5b5450" d="M 418.5,162.5 C 421.167,163.833 423.833,163.833 426.5,162.5C 425.688,163.993 424.355,164.66 422.5,164.5C 420.645,164.66 419.312,163.993 418.5,162.5 Z"/></g>
<g><path style="opacity:1" fill="#6b5f59" d="M 140.5,166.5 C 143.089,167.419 145.089,169.086 146.5,171.5C 143.911,170.581 141.911,168.914 140.5,166.5 Z"/></g>
<g><path style="opacity:1" fill="#746560" d="M 483.5,158.5 C 485.495,164.434 485.829,170.434 484.5,176.5C 484.407,170.484 484.074,164.484 483.5,158.5 Z"/></g>
<g><path style="opacity:1" fill="#826b65" d="M 457.5,167.5 C 455.5,170.167 453.167,172.5 450.5,174.5C 451.833,171.167 454.167,168.833 457.5,167.5 Z"/></g>
<g><path style="opacity:1" fill="#605954" d="M 147.5,172.5 C 150.776,173.122 152.109,175.122 151.5,178.5C 150.5,178.5 149.5,178.5 148.5,178.5C 149.091,177.849 149.757,177.182 150.5,176.5C 149.476,175.148 148.476,173.815 147.5,172.5 Z"/></g>
<g><path style="opacity:1" fill="#76655f" d="M 125.5,177.5 C 129.837,177.584 133.837,178.584 137.5,180.5C 133.239,180.102 129.239,179.102 125.5,177.5 Z"/></g>
<g><path style="opacity:1" fill="#6b5f59" d="M 481.5,176.5 C 474.979,177.938 468.312,179.271 461.5,180.5C 467.771,177.779 474.438,176.446 481.5,176.5 Z"/></g>
<g><path style="opacity:1" fill="#695e59" d="M 148.5,178.5 C 145.122,181.229 141.455,181.895 137.5,180.5C 141.249,180.249 144.915,179.583 148.5,178.5 Z"/></g>
<g><path style="opacity:1" fill="#312a27" d="M 233.5,278.5 C 249.78,276.465 259.113,283.465 261.5,299.5C 259.973,312.86 252.473,319.86 239,320.5C 222.776,316.729 216.776,306.729 221,290.5C 223.744,284.921 227.911,280.921 233.5,278.5 Z"/></g>
<g><path style="opacity:1" fill="#312927" d="M 352.5,278.5 C 373.334,277.494 381.834,287.161 378,307.5C 371.927,318.529 362.761,322.362 350.5,319C 339.648,312.793 335.815,303.627 339,291.5C 342.076,285.589 346.576,281.255 352.5,278.5 Z"/></g>
<g><path style="opacity:1" fill="#f4f4f4" d="M 241.5,286.5 C 248.88,286.043 251.713,289.376 250,296.5C 245.648,300.665 241.648,300.331 238,295.5C 237.333,293.833 237.333,292.167 238,290.5C 239.376,289.295 240.542,287.962 241.5,286.5 Z"/></g>
<g><path style="opacity:1" fill="#f3f3f3" d="M 360.5,286.5 C 367.771,286.036 370.604,289.369 369,296.5C 366.441,299.349 363.274,300.183 359.5,299C 355.334,294.368 355.667,290.202 360.5,286.5 Z"/></g>
<g><path style="opacity:1" fill="#76736e" d="M 519.5,309.5 C 518.833,309.5 518.5,309.833 518.5,310.5C 516.915,309.998 516.415,308.998 517,307.5C 517.995,308.066 518.828,308.733 519.5,309.5 Z"/></g>
<g><path style="opacity:1" fill="#efe1cb" d="M 480.5,512.5 C 481.866,531.438 474.532,545.771 458.5,555.5C 457.201,554.91 456.368,553.91 456,552.5C 455.131,545.145 454.131,537.812 453,530.5C 452.363,528.697 451.197,527.364 449.5,526.5C 448.275,538.207 446.775,549.874 445,561.5C 443.749,564.381 441.583,566.214 438.5,567C 433.284,569.191 427.951,570.524 422.5,571C 418.618,567.454 415.118,563.621 412,559.5C 396.156,576.346 376.656,586.846 353.5,591C 318.878,596.578 284.211,596.911 249.5,592C 224.631,588.448 203.631,577.615 186.5,559.5C 183.856,562.109 181.689,565.109 180,568.5C 177.347,571.194 174.18,572.027 170.5,571C 165.669,569.39 161.003,567.39 156.5,565C 154.959,563.421 153.792,561.587 153,559.5C 151.259,548.909 150.259,538.242 150,527.5C 149.586,527.043 149.086,526.709 148.5,526.5C 147.416,527.665 146.583,528.998 146,530.5C 144.911,538.21 143.578,545.877 142,553.5C 141.577,554.956 140.744,555.456 139.5,555C 123.715,544.855 117.048,530.355 119.5,511.5C 121.679,496.418 124.846,481.418 129,466.5C 156.069,384.638 212.903,342.638 299.5,340.5C 345.279,340.413 385.612,354.913 420.5,384C 431.333,394.833 442.167,405.667 453,416.5C 458.333,429.167 463.667,441.833 469,454.5C 470.026,459.785 470.693,465.118 471,470.5C 473.85,484.61 477.016,498.61 480.5,512.5 Z"/></g>
<g><path style="opacity:1" fill="#302826" d="M 290.5,378.5 C 301.632,378.511 312.632,379.677 323.5,382C 337.923,386.672 343.756,396.505 341,411.5C 338.43,419.071 333.93,425.237 327.5,430C 321.992,433.255 316.325,436.255 310.5,439C 303.536,447.315 303.869,455.315 311.5,463C 324.406,465.704 335.906,471.204 346,479.5C 346.617,480.449 346.451,481.282 345.5,482C 341.886,482.945 338.219,483.612 334.5,484C 310.5,484.667 286.5,484.667 262.5,484C 259.429,483.853 256.596,483.02 254,481.5C 253.333,480.833 253.333,480.167 254,479.5C 264.534,471.15 276.367,465.317 289.5,462C 295.149,455.833 295.982,449 292,441.5C 285.25,437.208 278.417,433.041 271.5,429C 259.877,420.464 256.044,409.297 260,395.5C 263.29,388.879 268.457,384.379 275.5,382C 280.6,380.676 285.6,379.509 290.5,378.5 Z"/></g>
</svg>
