<?xml version="1.0" encoding="UTF-8"?>
<!DOCTYPE svg PUBLIC "-//W3C//DTD SVG 1.1//EN" "http://www.w3.org/Graphics/SVG/1.1/DTD/svg11.dtd">
<svg xmlns="http://www.w3.org/2000/svg" version="1.1" width="600px" height="600px" style="shape-rendering:geometricPrecision; text-rendering:geometricPrecision; image-rendering:optimizeQuality; fill-rule:evenodd; clip-rule:evenodd" xmlns:xlink="http://www.w3.org/1999/xlink">
<g><path style="opacity:0.964" fill="#050201" d="M 599.5,184.5 C 599.5,189.5 599.5,194.5 599.5,199.5C 594.336,204.382 588.669,205.215 582.5,202C 570.948,195.113 559.948,187.446 549.5,179C 546.298,177.517 542.964,177.183 539.5,178C 533.741,183.762 527.408,188.762 520.5,193C 513.547,194.716 506.547,196.049 499.5,197C 484.447,214.066 467.613,228.899 449,241.5C 443.93,267.78 437.597,293.78 430,319.5C 417.66,356.843 405.327,394.176 393,431.5C 387.465,453.288 382.465,474.954 378,496.5C 365.113,524.182 343.28,537.849 312.5,537.5C 300.172,536.881 287.838,536.381 275.5,536C 247.187,533.003 228.354,518.17 219,491.5C 213.588,468.44 207.921,445.44 202,422.5C 189.934,387.637 178.268,352.637 167,317.5C 159.572,292.456 153.406,267.123 148.5,241.5C 130.146,228.651 113.479,213.817 98.5,197C 91.4534,196.049 84.4534,194.716 77.5,193C 70.5505,188.385 63.8838,183.385 57.5,178C 55.1667,177.333 52.8333,177.333 50.5,178C 39.108,186.391 27.4413,194.391 15.5,202C 9.91478,205.115 4.58145,204.615 -0.5,200.5C -0.5,194.833 -0.5,189.167 -0.5,183.5C 35.156,144.35 76.4893,112.517 123.5,88C 140.944,79.7207 159.277,76.0541 178.5,77C 199.315,81.489 215.482,92.6556 227,110.5C 227.804,111.804 228.971,112.471 230.5,112.5C 276.167,99.1667 321.833,99.1667 367.5,112.5C 368.442,112.392 369.275,112.059 370,111.5C 393.815,76.9954 425.315,67.8288 464.5,84C 487.227,93.1904 508.227,105.19 527.5,120C 553.508,139.171 577.508,160.671 599.5,184.5 Z"/></g>
<g><path style="opacity:1" fill="#af5427" d="M 548.5,166.5 C 513.388,140.443 474.721,120.943 432.5,108C 425.252,106.25 417.919,105.084 410.5,104.5C 402.885,103.936 397.718,107.269 395,114.5C 391.06,127.71 386.56,140.71 381.5,153.5C 409.836,176.19 428.502,205.19 437.5,240.5C 436.902,247.188 436.069,253.854 435,260.5C 431.687,272.42 428.687,284.42 426,296.5C 410.865,344.239 395.531,391.906 380,439.5C 377.253,428.926 373.919,418.593 370,408.5C 360.133,386.761 350.8,364.761 342,342.5C 335.296,323.688 331.129,304.354 329.5,284.5C 329.868,278.822 330.368,273.155 331,267.5C 336.278,249.054 340.611,230.388 344,211.5C 346.396,190.543 342.062,171.21 331,153.5C 315.245,136.014 297.078,132.847 276.5,144C 263.012,155.81 255.512,170.643 254,188.5C 253.188,199.206 253.522,209.873 255,220.5C 259.001,237.169 263.001,253.836 267,270.5C 268.294,285.667 267.294,300.667 264,315.5C 253.787,346.984 241.787,377.651 228,407.5C 224.213,417.694 220.713,428.028 217.5,438.5C 201.708,390.624 186.208,342.624 171,294.5C 168.156,282.125 165.156,269.792 162,257.5C 160.839,250.53 160.005,243.53 159.5,236.5C 167.381,214.429 178.548,194.096 193,175.5C 200.381,167.617 208.214,160.283 216.5,153.5C 211.643,141.763 207.476,129.763 204,117.5C 200.33,106.416 192.83,102.249 181.5,105C 163.802,107.565 146.802,112.565 130.5,120C 101.838,132.985 74.8381,148.485 49.5,166.5C 37.7131,174.447 26.0464,182.613 14.5,191C 12.0257,193.099 9.35903,193.599 6.5,192.5C 7,191.5 7.5,190.5 8,189.5C 39.0011,156.439 73.8344,128.273 112.5,105C 130.411,94.3073 149.744,88.1407 170.5,86.5C 183.944,87.1454 195.611,91.9787 205.5,101C 213.004,108.524 219.671,116.691 225.5,125.5C 236.047,120.818 247.047,117.652 258.5,116C 292.864,110.364 326.864,112.031 360.5,121C 364.35,122.505 368.183,124.005 372,125.5C 376.667,119.5 381.333,113.5 386,107.5C 400.224,90.1443 418.391,83.6443 440.5,88C 460.127,92.6491 478.461,100.316 495.5,111C 529.968,133.456 561.468,159.623 590,189.5C 590.49,190.793 590.657,192.127 590.5,193.5C 587.984,193.245 585.65,192.411 583.5,191C 571.954,182.613 560.287,174.447 548.5,166.5 Z"/></g>
<g><path style="opacity:1" fill="#7d482d" d="M 159.5,236.5 C 139.103,222.447 120.436,206.281 103.5,188C 101.913,187.138 100.246,186.471 98.5,186C 89.4498,187.034 81.4498,184.701 74.5,179C 71.1325,175.297 67.4658,171.964 63.5,169C 59.0492,167.026 54.3825,166.193 49.5,166.5C 74.8381,148.485 101.838,132.985 130.5,120C 146.802,112.565 163.802,107.565 181.5,105C 192.83,102.249 200.33,106.416 204,117.5C 207.476,129.763 211.643,141.763 216.5,153.5C 208.214,160.283 200.381,167.617 193,175.5C 178.548,194.096 167.381,214.429 159.5,236.5 Z"/></g>
<g><path style="opacity:1" fill="#7d482d" d="M 548.5,166.5 C 543.551,165.959 538.884,166.792 534.5,169C 527.841,175.323 520.507,180.656 512.5,185C 507.833,185.333 503.167,185.667 498.5,186C 496.004,187.08 493.67,188.414 491.5,190C 476.142,207.531 458.809,222.698 439.5,235.5C 438.83,237.291 438.163,238.958 437.5,240.5C 428.502,205.19 409.836,176.19 381.5,153.5C 386.56,140.71 391.06,127.71 395,114.5C 397.718,107.269 402.885,103.936 410.5,104.5C 417.919,105.084 425.252,106.25 432.5,108C 474.721,120.943 513.388,140.443 548.5,166.5 Z"/></g>
<g><path style="opacity:1" fill="#f4f4f4" d="M 315.5,152.5 C 317.833,155.5 320.5,158.167 323.5,160.5C 335.156,181.347 337.656,203.347 331,226.5C 327.459,239.454 324.126,252.454 321,265.5C 318.33,290.821 321.33,315.488 330,339.5C 339.171,364.175 349.171,388.509 360,412.5C 364.268,423.637 367.934,434.97 371,446.5C 375.542,467.585 372.208,487.252 361,505.5C 348.098,520.253 331.764,527.253 312,526.5C 298.172,525.865 284.339,525.365 270.5,525C 244.121,518.951 229.287,502.451 226,475.5C 225.333,466.833 225.333,458.167 226,449.5C 227.926,441.056 230.259,432.722 233,424.5C 242.471,401.086 252.138,377.752 262,354.5C 273.869,327.361 278.869,299.027 277,269.5C 276.814,266.964 276.314,264.631 275.5,262.5C 275.083,256.83 273.749,251.497 271.5,246.5C 268.211,235.01 265.711,223.343 264,211.5C 261.051,192.168 265.051,174.501 276,158.5C 287.604,146.269 300.771,144.269 315.5,152.5 Z"/></g>
<g><path style="opacity:1" fill="#563529" d="M 315.5,152.5 C 319.167,154.167 321.833,156.833 323.5,160.5C 320.5,158.167 317.833,155.5 315.5,152.5 Z"/></g>
<g><path style="opacity:1" fill="#5a3a2e" d="M 271.5,246.5 C 273.749,251.497 275.083,256.83 275.5,262.5C 273.565,257.427 272.232,252.094 271.5,246.5 Z"/></g>
<g><path style="opacity:1" fill="#030203" d="M 221.5,257.5 C 237.69,255.67 248.524,262.337 254,277.5C 255.415,302.086 243.915,312.919 219.5,310C 203.041,302.853 197.541,290.686 203,273.5C 207.164,265.835 213.331,260.501 221.5,257.5 Z"/></g>
<g><path style="opacity:1" fill="#030203" d="M 363.5,257.5 C 386.331,256.83 397.164,267.83 396,290.5C 390.246,306.965 378.746,313.465 361.5,310C 349.563,305.469 343.229,296.802 342.5,284C 344.185,270.729 351.185,261.895 363.5,257.5 Z"/></g>
<g><path style="opacity:1" fill="#e5e5e5" d="M 233.5,270.5 C 239.183,269.169 242.849,271.169 244.5,276.5C 242.205,284.014 238.039,285.348 232,280.5C 229.925,276.794 230.425,273.461 233.5,270.5 Z"/></g>
<g><path style="opacity:1" fill="#e7e7e7" d="M 375.5,270.5 C 381.375,269.099 385.041,271.266 386.5,277C 383.889,284.069 379.722,285.236 374,280.5C 371.925,276.794 372.425,273.461 375.5,270.5 Z"/></g>
<g><path style="opacity:1" fill="#050504" d="M 290.5,434.5 C 306.816,432.487 321.482,436.32 334.5,446C 344.051,456.366 347.217,468.533 344,482.5C 340.69,494.478 333.19,502.645 321.5,507C 300.288,515.033 280.621,512.366 262.5,499C 250.178,483.137 249.345,466.637 260,449.5C 268.479,440.843 278.645,435.843 290.5,434.5 Z"/></g>
<g><path style="opacity:1" fill="#362e2b" d="M 291.5,444.5 C 306.162,442.928 318.995,446.928 330,456.5C 340.08,481.213 331.913,496.046 305.5,501C 294.46,502.657 284.126,500.657 274.5,495C 261.59,484.637 259.09,472.137 267,457.5C 273.719,450.294 281.886,445.961 291.5,444.5 Z"/></g>
</svg>
