<?xml version="1.0" encoding="UTF-8"?>
<!DOCTYPE svg PUBLIC "-//W3C//DTD SVG 1.1//EN" "http://www.w3.org/Graphics/SVG/1.1/DTD/svg11.dtd">
<svg xmlns="http://www.w3.org/2000/svg" version="1.1" width="600px" height="600px" style="shape-rendering:geometricPrecision; text-rendering:geometricPrecision; image-rendering:optimizeQuality; fill-rule:evenodd; clip-rule:evenodd" xmlns:xlink="http://www.w3.org/1999/xlink">
<g><path style="opacity:0.945" fill="#030303" d="M 180.5,-0.5 C 192.833,-0.5 205.167,-0.5 217.5,-0.5C 220.82,3.46305 223.654,7.79638 226,12.5C 229.068,21.205 232.235,29.8717 235.5,38.5C 239.657,39.4068 243.157,41.4068 246,44.5C 248.612,50.6157 250.445,56.949 251.5,63.5C 258.146,64.1462 261.813,67.8128 262.5,74.5C 261.6,76.9316 260.934,79.4316 260.5,82C 262.086,91.107 263.252,100.274 264,109.5C 265.037,112.405 266.204,115.239 267.5,118C 286.524,117.518 305.524,117.351 324.5,117.5C 329.39,104.72 334.557,92.053 340,79.5C 341.944,65.2238 344.444,51.0571 347.5,37C 343.996,27.3009 347.329,21.1343 357.5,18.5C 359.019,11.8089 361.352,5.47558 364.5,-0.5C 379.833,-0.5 395.167,-0.5 410.5,-0.5C 420.511,11.1806 427.677,24.5139 432,39.5C 442.424,72.0428 448.757,105.376 451,139.5C 453.84,152.372 456.674,165.205 459.5,178C 458.757,182.735 460.257,186.902 464,190.5C 467.521,200.138 464.355,205.805 454.5,207.5C 454.873,214.522 455.539,221.522 456.5,228.5C 456.086,233.491 455.086,238.324 453.5,243C 469.391,266.964 480.224,293.131 486,321.5C 490.415,343.058 492.582,364.725 492.5,386.5C 490.198,400.7 489.032,415.034 489,429.5C 487.875,443.794 485.208,457.794 481,471.5C 479.545,474.912 477.712,478.079 475.5,481C 472.166,482.746 468.666,483.913 465,484.5C 450.29,520.878 425.457,548.045 390.5,566C 385.848,567.193 381.681,566.36 378,563.5C 359.69,577.406 340.19,589.406 319.5,599.5C 304.833,599.5 290.167,599.5 275.5,599.5C 254.62,590.116 235.12,578.449 217,564.5C 213.286,567.07 209.452,567.57 205.5,566C 170.543,548.045 145.71,520.878 131,484.5C 123.469,484.239 118.469,480.572 116,473.5C 109.146,452.995 106.312,431.995 107.5,410.5C 105.213,405.428 104.046,400.095 104,394.5C 101.897,351.018 109.563,309.352 127,269.5C 130.865,260.932 135.365,252.765 140.5,245C 138.396,242.958 137.229,240.458 137,237.5C 136.553,227.492 136.72,217.492 137.5,207.5C 130.864,206.864 127.197,203.197 126.5,196.5C 128.092,191.075 130.759,186.241 134.5,182C 133.39,179.263 133.223,176.429 134,173.5C 135.745,164.111 137.745,154.777 140,145.5C 142.148,103.09 150.815,62.0898 166,22.5C 169.477,13.8817 174.31,6.21507 180.5,-0.5 Z"/></g>
<g><path style="opacity:1" fill="#dcdcdc" d="M 217.5,20.5 C 211.971,9.5773 203.305,6.0773 191.5,10C 186.618,13.2144 182.785,17.3811 180,22.5C 176.182,30.8118 172.682,39.1451 169.5,47.5C 169.5,46.8333 169.167,46.5 168.5,46.5C 171.949,31.1 178.949,17.6 189.5,6C 200.334,0.163885 208.834,2.66388 215,13.5C 216.411,15.6504 217.245,17.9837 217.5,20.5 Z"/></g>
<g><path style="opacity:1" fill="#f4f4f4" d="M 481.5,402.5 C 475.175,390.735 467.842,379.569 459.5,369C 458.517,368.409 457.85,368.743 457.5,370C 466.763,398.135 467.929,426.635 461,455.5C 459.076,463.203 456.243,470.536 452.5,477.5C 451.004,462.171 447.17,447.504 441,433.5C 439.71,431.208 438.043,429.208 436,427.5C 435.527,457.429 425.694,483.762 406.5,506.5C 403.619,499.45 398.786,494.117 392,490.5C 372.405,516.209 346.905,532.709 315.5,540C 282.169,543.673 252.836,534.673 227.5,513C 219.969,505.803 212.802,498.303 206,490.5C 199.214,494.117 194.381,499.45 191.5,506.5C 172.306,483.762 162.473,457.429 162,427.5C 157.374,432.419 154.041,438.086 152,444.5C 150.866,449.567 149.532,454.567 148,459.5C 147.627,465.57 146.793,471.57 145.5,477.5C 134.241,453.798 130.074,428.798 133,402.5C 134.1,391.33 136.6,380.497 140.5,370C 140.15,368.743 139.483,368.409 138.5,369C 130.119,379.045 123.119,389.878 117.5,401.5C 109.783,347.978 120.616,297.311 150,249.5C 151.359,244.534 152.526,239.534 153.5,234.5C 154.629,232.372 154.796,230.039 154,227.5C 153.487,228.527 152.987,229.527 152.5,230.5C 151.933,233.303 150.6,235.636 148.5,237.5C 147.749,236.624 147.249,235.624 147,234.5C 146.924,223.49 147.424,212.49 148.5,201.5C 148.167,198.5 147.833,195.5 147.5,192.5C 144.596,195.081 141.263,196.748 137.5,197.5C 137.351,196.448 137.517,195.448 138,194.5C 142.713,189.498 146.046,183.831 148,177.5C 145.803,179.949 144.303,179.783 143.5,177C 146.16,165.206 148.66,153.373 151,141.5C 152.325,108.87 158.158,77.2033 168.5,46.5C 169.167,46.5 169.5,46.8333 169.5,47.5C 164.373,68.3021 160.206,89.3021 157,110.5C 154.436,140.617 155.436,170.617 160,200.5C 163.325,215.461 172.492,220.961 187.5,217C 189.996,215.92 192.33,214.586 194.5,213C 207.403,198.095 221.569,184.595 237,172.5C 239.837,167.828 241.837,162.828 243,157.5C 243.749,146.468 243.415,135.468 242,124.5C 236.45,94.9647 229.95,65.6314 222.5,36.5C 222.5,35.8333 222.833,35.5 223.5,35.5C 226.699,44.5943 230.199,53.5943 234,62.5C 234.333,59.1667 234.667,55.8333 235,52.5C 235.605,50.5188 236.605,50.1854 238,51.5C 240.347,60.5555 242.847,69.5555 245.5,78.5C 247.333,76.8333 249.167,75.1667 251,73.5C 250.676,77.3601 249.842,81.1934 248.5,85C 249.6,86.0927 250.6,87.5927 251.5,89.5C 252.215,96.1466 252.715,102.813 253,109.5C 255.5,115.833 258,122.167 260.5,128.5C 261.833,128.833 263.167,129.167 264.5,129.5C 286.828,128.876 309.161,128.209 331.5,127.5C 337.423,112.839 343.423,98.339 349.5,84C 347.869,80.6102 347.036,77.1102 347,73.5C 348.667,74.5 350,75.8333 351,77.5C 352.633,65.6804 354.633,54.0137 357,42.5C 357.915,43.3279 358.581,44.3279 359,45.5C 359.453,40.6358 358.619,35.9691 356.5,31.5C 356.833,31.1667 357.167,30.8333 357.5,30.5C 359.149,31.6477 360.649,32.981 362,34.5C 362.333,34.1667 362.667,33.8333 363,33.5C 365.963,24.3191 369.296,15.3191 373,6.5C 374.405,9.61881 374.905,12.9521 374.5,16.5C 374.5,17.5 374.5,18.5 374.5,19.5C 361.669,60.6513 352.669,102.651 347.5,145.5C 347.002,154.851 349.168,163.518 354,171.5C 361.927,178.215 369.76,185.049 377.5,192C 384.524,200.023 391.857,207.689 399.5,215C 418.186,222.411 429.019,216.244 432,196.5C 440.717,140.38 435.384,85.7135 416,32.5C 413.049,25.4233 409.215,18.9233 404.5,13C 397.669,8.3485 390.335,7.3485 382.5,10C 380.907,10.9487 379.574,12.1154 378.5,13.5C 378.167,13.5 377.833,13.5 377.5,13.5C 382.588,2.96952 390.921,-0.530482 402.5,3C 406.956,4.97945 410.79,7.81278 414,11.5C 422.269,25.6276 428.602,40.6276 433,56.5C 441.019,84.2782 445.685,112.612 447,141.5C 449.34,153.373 451.84,165.206 454.5,177C 453.697,179.783 452.197,179.949 450,177.5C 451.954,183.831 455.287,189.498 460,194.5C 460.483,195.448 460.649,196.448 460.5,197.5C 457.191,197.142 453.857,196.809 450.5,196.5C 450.167,198.833 449.833,201.167 449.5,203.5C 450.696,213.815 451.196,224.148 451,234.5C 450.751,235.624 450.251,236.624 449.5,237.5C 447.854,236.221 446.687,234.555 446,232.5C 445.276,238.318 445.943,243.985 448,249.5C 477.022,296.794 488.189,347.794 481.5,402.5 Z"/></g>
<g><path style="opacity:1" fill="#070707" d="M 217.5,20.5 C 218.796,26.0501 220.463,31.3834 222.5,36.5C 229.95,65.6314 236.45,94.9647 242,124.5C 243.415,135.468 243.749,146.468 243,157.5C 241.837,162.828 239.837,167.828 237,172.5C 221.569,184.595 207.403,198.095 194.5,213C 192.33,214.586 189.996,215.92 187.5,217C 172.492,220.961 163.325,215.461 160,200.5C 155.436,170.617 154.436,140.617 157,110.5C 160.206,89.3021 164.373,68.3021 169.5,47.5C 172.682,39.1451 176.182,30.8118 180,22.5C 182.785,17.3811 186.618,13.2144 191.5,10C 203.305,6.0773 211.971,9.5773 217.5,20.5 Z"/></g>
<g><path style="opacity:1" fill="#070707" d="M 374.5,19.5 C 375.82,17.5368 377.154,15.5368 378.5,13.5C 379.574,12.1154 380.907,10.9487 382.5,10C 390.335,7.3485 397.669,8.3485 404.5,13C 409.215,18.9233 413.049,25.4233 416,32.5C 435.384,85.7135 440.717,140.38 432,196.5C 429.019,216.244 418.186,222.411 399.5,215C 391.857,207.689 384.524,200.023 377.5,192C 369.76,185.049 361.927,178.215 354,171.5C 349.168,163.518 347.002,154.851 347.5,145.5C 352.669,102.651 361.669,60.6513 374.5,19.5 Z"/></g>
<g><path style="opacity:1" fill="#959595" d="M 377.5,13.5 C 377.833,13.5 378.167,13.5 378.5,13.5C 377.154,15.5368 375.82,17.5368 374.5,19.5C 374.5,18.5 374.5,17.5 374.5,16.5C 375.272,15.3065 376.272,14.3065 377.5,13.5 Z"/></g>
<g><path style="opacity:1" fill="#8b8b8b" d="M 209.5,29.5 C 208.105,26.8582 206.605,24.1915 205,21.5C 203.649,19.9903 201.982,18.9903 200,18.5C 196.779,19.716 194.112,21.716 192,24.5C 189.807,28.2299 187.64,31.8965 185.5,35.5C 187.326,28.1743 191.326,22.341 197.5,18C 202.423,17.0454 205.923,18.8788 208,23.5C 208.813,25.4357 209.313,27.4357 209.5,29.5 Z"/></g>
<g><path style="opacity:1" fill="#f9d2d2" d="M 209.5,29.5 C 210.231,34.4385 211.565,39.1051 213.5,43.5C 215.565,54.4268 218.232,65.0935 221.5,75.5C 221.74,80.1201 222.74,84.4535 224.5,88.5C 225.451,89.9187 225.784,91.5853 225.5,93.5C 226.678,102.384 228.344,111.05 230.5,119.5C 230.608,124.71 231.275,129.71 232.5,134.5C 232.876,143.235 232.376,151.902 231,160.5C 230.333,161.833 229.667,163.167 229,164.5C 223.972,168.699 219.139,173.032 214.5,177.5C 203.854,186.146 194.188,195.812 185.5,206.5C 180.894,208.295 176.727,207.628 173,204.5C 170.987,198.174 169.487,191.841 168.5,185.5C 166.922,164.868 166.255,144.201 166.5,123.5C 166.45,114.245 167.45,105.245 169.5,96.5C 172.352,82.9198 175.352,69.2531 178.5,55.5C 180.739,50.7841 182.405,45.7841 183.5,40.5C 183.402,38.4471 184.069,36.7804 185.5,35.5C 187.64,31.8965 189.807,28.2299 192,24.5C 194.112,21.716 196.779,19.716 200,18.5C 201.982,18.9903 203.649,19.9903 205,21.5C 206.605,24.1915 208.105,26.8582 209.5,29.5 Z"/></g>
<g><path style="opacity:1" fill="#f9d2d2" d="M 398.5,22.5 C 404.149,32.7955 408.816,43.4622 412.5,54.5C 413.409,61.1412 415.076,67.4745 417.5,73.5C 418.451,74.9187 418.784,76.5853 418.5,78.5C 420.705,92.2721 422.705,105.939 424.5,119.5C 424.63,139.511 424.297,159.511 423.5,179.5C 422.116,184.944 421.45,190.611 421.5,196.5C 420.556,204.283 416.222,207.783 408.5,207C 405.062,205.389 402.062,203.223 399.5,200.5C 397.241,197.062 394.741,193.729 392,190.5C 389.894,187.882 387.394,185.882 384.5,184.5C 381.437,180.434 377.771,177.101 373.5,174.5C 372.415,172.413 370.749,171.08 368.5,170.5C 366.539,168.037 364.372,165.703 362,163.5C 360.308,160.224 359.141,156.891 358.5,153.5C 358.612,145.156 358.945,136.822 359.5,128.5C 359.438,123.924 360.105,119.591 361.5,115.5C 364.118,105.744 366.118,95.7438 367.5,85.5C 369.26,81.4535 370.26,77.1201 370.5,72.5C 373.102,64.7602 375.102,56.7602 376.5,48.5C 378.258,45.1456 379.258,41.479 379.5,37.5C 381.404,32.9723 383.237,28.3056 385,23.5C 386.059,21.3408 387.559,19.6741 389.5,18.5C 392.253,17.3414 394.919,17.8414 397.5,20C 398.252,20.6708 398.586,21.5041 398.5,22.5 Z"/></g>
<g><path style="opacity:1" fill="#8b8b8b" d="M 389.5,18.5 C 387.559,19.6741 386.059,21.3408 385,23.5C 383.237,28.3056 381.404,32.9723 379.5,37.5C 380.36,30.7521 382.693,24.5854 386.5,19C 387.448,18.5172 388.448,18.3505 389.5,18.5 Z"/></g>
<g><path style="opacity:1" fill="#7e7e7e" d="M 217.5,20.5 C 219.872,25.2696 221.872,30.2696 223.5,35.5C 222.833,35.5 222.5,35.8333 222.5,36.5C 220.463,31.3834 218.796,26.0501 217.5,20.5 Z"/></g>
<g><path style="opacity:1" fill="#8b8b8b" d="M 209.5,29.5 C 211.746,33.8047 213.08,38.4713 213.5,43.5C 211.565,39.1051 210.231,34.4385 209.5,29.5 Z"/></g>
<g><path style="opacity:1" fill="#8a8a8a" d="M 379.5,37.5 C 379.258,41.479 378.258,45.1456 376.5,48.5C 376.742,44.521 377.742,40.8544 379.5,37.5 Z"/></g>
<g><path style="opacity:1" fill="#8b8b8b" d="M 398.5,22.5 C 405.666,31.9737 410.333,42.6404 412.5,54.5C 408.816,43.4622 404.149,32.7955 398.5,22.5 Z"/></g>
<g><path style="opacity:1" fill="#898888" d="M 183.5,40.5 C 182.405,45.7841 180.739,50.7841 178.5,55.5C 179.194,50.085 180.86,45.085 183.5,40.5 Z"/></g>
<g><path style="opacity:1" fill="#898888" d="M 376.5,48.5 C 375.102,56.7602 373.102,64.7602 370.5,72.5C 371.584,64.1639 373.584,56.1639 376.5,48.5 Z"/></g>
<g><path style="opacity:1" fill="#8c8c8c" d="M 213.5,43.5 C 217.083,53.8308 219.749,64.4974 221.5,75.5C 218.232,65.0935 215.565,54.4268 213.5,43.5 Z"/></g>
<g><path style="opacity:1" fill="#8a8a8a" d="M 412.5,54.5 C 414.924,60.5255 416.591,66.8588 417.5,73.5C 415.076,67.4745 413.409,61.1412 412.5,54.5 Z"/></g>
<g><path style="opacity:1" fill="#8a8989" d="M 370.5,72.5 C 370.26,77.1201 369.26,81.4535 367.5,85.5C 367.74,80.8799 368.74,76.5465 370.5,72.5 Z"/></g>
<g><path style="opacity:1" fill="#8b8b8b" d="M 418.5,78.5 C 422.161,91.7923 424.161,105.459 424.5,119.5C 422.705,105.939 420.705,92.2721 418.5,78.5 Z"/></g>
<g><path style="opacity:1" fill="#8a8989" d="M 221.5,75.5 C 223.26,79.5465 224.26,83.8799 224.5,88.5C 222.74,84.4535 221.74,80.1201 221.5,75.5 Z"/></g>
<g><path style="opacity:1" fill="#8b8b8b" d="M 178.5,55.5 C 175.352,69.2531 172.352,82.9198 169.5,96.5C 170.859,82.3621 173.859,68.6955 178.5,55.5 Z"/></g>
<g><path style="opacity:1" fill="#898989" d="M 225.5,93.5 C 228.17,101.853 229.836,110.519 230.5,119.5C 228.344,111.05 226.678,102.384 225.5,93.5 Z"/></g>
<g><path style="opacity:1" fill="#8a8a8a" d="M 367.5,85.5 C 366.118,95.7438 364.118,105.744 361.5,115.5C 362.625,105.207 364.625,95.2069 367.5,85.5 Z"/></g>
<g><path style="opacity:1" fill="#8a8a8a" d="M 424.5,119.5 C 425.166,127.159 425.5,134.993 425.5,143C 425.65,155.368 424.983,167.535 423.5,179.5C 424.297,159.511 424.63,139.511 424.5,119.5 Z"/></g>
<g><path style="opacity:1" fill="#8b8a8a" d="M 166.5,123.5 C 166.255,144.201 166.922,164.868 168.5,185.5C 165.562,164.897 164.895,144.23 166.5,123.5 Z"/></g>
<g><path style="opacity:1" fill="#8a8989" d="M 230.5,119.5 C 232.031,124.25 232.698,129.25 232.5,134.5C 231.275,129.71 230.608,124.71 230.5,119.5 Z"/></g>
<g><path style="opacity:1" fill="#8a8a8a" d="M 359.5,128.5 C 358.945,136.822 358.612,145.156 358.5,153.5C 357.211,145.122 357.544,136.788 359.5,128.5 Z"/></g>
<g><path style="opacity:1" fill="#8a8a8a" d="M 358.5,153.5 C 359.141,156.891 360.308,160.224 362,163.5C 364.372,165.703 366.539,168.037 368.5,170.5C 361.328,167.163 357.994,161.496 358.5,153.5 Z"/></g>
<g><path style="opacity:1" fill="#8a8a8a" d="M 232.5,134.5 C 233.893,143.387 233.726,152.387 232,161.5C 231.117,164.102 229.617,166.269 227.5,168C 223.108,171.185 218.774,174.352 214.5,177.5C 219.139,173.032 223.972,168.699 229,164.5C 229.667,163.167 230.333,161.833 231,160.5C 232.376,151.902 232.876,143.235 232.5,134.5 Z"/></g>
<g><path style="opacity:1" fill="#898888" d="M 368.5,170.5 C 370.749,171.08 372.415,172.413 373.5,174.5C 371.251,173.92 369.585,172.587 368.5,170.5 Z"/></g>
<g><path style="opacity:1" fill="#8a8a8a" d="M 373.5,174.5 C 377.771,177.101 381.437,180.434 384.5,184.5C 380.229,181.899 376.563,178.566 373.5,174.5 Z"/></g>
<g><path style="opacity:1" fill="#8a8a8a" d="M 214.5,177.5 C 205.092,187.575 195.425,197.242 185.5,206.5C 194.188,195.812 203.854,186.146 214.5,177.5 Z"/></g>
<g><path style="opacity:1" fill="#8a8a8a" d="M 423.5,179.5 C 423.55,185.389 422.884,191.056 421.5,196.5C 421.45,190.611 422.116,184.944 423.5,179.5 Z"/></g>
<g><path style="opacity:1" fill="#939292" d="M 384.5,184.5 C 387.394,185.882 389.894,187.882 392,190.5C 394.741,193.729 397.241,197.062 399.5,200.5C 394.046,195.59 389.046,190.256 384.5,184.5 Z"/></g>
<g><path style="opacity:1" fill="#898989" d="M 421.5,196.5 C 420.543,208.738 414.543,211.905 403.5,206C 401.536,204.549 400.203,202.716 399.5,200.5C 402.062,203.223 405.062,205.389 408.5,207C 416.222,207.783 420.556,204.283 421.5,196.5 Z"/></g>
<g><path style="opacity:1" fill="#8b8b8b" d="M 168.5,185.5 C 169.487,191.841 170.987,198.174 173,204.5C 176.727,207.628 180.894,208.295 185.5,206.5C 185.389,207.117 185.056,207.617 184.5,208C 177.001,210.336 172.168,207.836 170,200.5C 169.088,195.536 168.588,190.536 168.5,185.5 Z"/></g>
<g><path style="opacity:1" fill="#ebebeb" d="M 331.5,450.5 C 330.549,449.081 330.216,447.415 330.5,445.5C 312.242,447.535 293.908,448.035 275.5,447C 273.109,446.713 270.776,446.213 268.5,445.5C 267.83,447.291 267.163,448.958 266.5,450.5C 264.279,445.787 260.612,442.62 255.5,441C 252.628,438.463 250.128,435.63 248,432.5C 239.5,397.509 232.5,362.175 227,326.5C 225.204,315.053 219.704,305.886 210.5,299C 201.463,293.764 191.797,290.097 181.5,288C 167.243,281.895 163.41,271.729 170,257.5C 192.449,227.524 222.282,214.358 259.5,218C 273.141,220.312 282.641,227.812 288,240.5C 288.719,245.824 290.386,250.824 293,255.5C 295.522,258.326 297.522,257.993 299,254.5C 300.478,257.993 302.478,258.326 305,255.5C 307.354,248.402 310.02,241.402 313,234.5C 315.5,229.333 319.333,225.5 324.5,223C 363.03,211.314 395.863,220.48 423,250.5C 425.765,254.261 428.098,258.261 430,262.5C 432.395,271.205 430.228,278.372 423.5,284C 411.284,288.407 399.284,293.407 387.5,299C 378.296,305.886 372.796,315.053 371,326.5C 365.5,362.175 358.5,397.509 350,432.5C 346.726,437.774 342.226,441.608 336.5,444C 334.21,445.777 332.543,447.944 331.5,450.5 Z"/></g>
<g><path style="opacity:1" fill="#8b8b8b" d="M 153.5,234.5 C 153.768,232.901 153.434,231.568 152.5,230.5C 152.987,229.527 153.487,228.527 154,227.5C 154.796,230.039 154.629,232.372 153.5,234.5 Z"/></g>
<g><path style="opacity:1" fill="#f8f8f8" d="M 227.5,238.5 C 247.172,238.337 256.339,248.003 255,267.5C 248.562,282.304 237.729,287.137 222.5,282C 209.957,273.346 207.123,262.179 214,248.5C 217.767,244.048 222.267,240.714 227.5,238.5 Z"/></g>
<g><path style="opacity:1" fill="#f8f8f8" d="M 361.5,238.5 C 384.513,240.865 392.013,252.865 384,274.5C 372.039,287.461 359.706,287.795 347,275.5C 339.851,263.452 341.351,252.618 351.5,243C 354.815,241.17 358.149,239.67 361.5,238.5 Z"/></g>
<g><path style="opacity:1" fill="#251a17" d="M 231.5,245.5 C 246.64,247.774 251.473,256.107 246,270.5C 237.333,279.833 228.667,279.833 220,270.5C 214.154,257.532 217.987,249.199 231.5,245.5 Z"/></g>
<g><path style="opacity:1" fill="#251a17" d="M 363.5,245.5 C 379.118,247.612 383.951,255.945 378,270.5C 369.333,279.833 360.667,279.833 352,270.5C 346.737,257.742 350.57,249.409 363.5,245.5 Z"/></g>
<g><path style="opacity:1" fill="#efeeee" d="M 235.5,252.5 C 241.326,252.157 243.826,254.824 243,260.5C 237.995,264.888 234.495,263.888 232.5,257.5C 233.092,255.577 234.092,253.911 235.5,252.5 Z"/></g>
<g><path style="opacity:1" fill="#eeeeee" d="M 357.5,252.5 C 364.241,252.39 366.408,255.39 364,261.5C 360.729,264.197 357.729,263.864 355,260.5C 354.018,257.225 354.851,254.559 357.5,252.5 Z"/></g>
<g><path style="opacity:1" fill="#ebebeb" d="M 481.5,402.5 C 481.695,425.498 478.528,448.165 472,470.5C 471.581,471.672 470.915,472.672 470,473.5C 468.434,474.061 467.101,473.394 466,471.5C 465.466,467.695 464.466,464.029 463,460.5C 452.507,504.318 427.174,536.318 387,556.5C 386.167,556.167 385.333,555.833 384.5,555.5C 383.985,553.775 383.318,552.108 382.5,550.5C 361.918,567.299 339.251,580.799 314.5,591C 304.932,595.084 295.266,595.417 285.5,592C 258.995,581.174 234.828,566.674 213,548.5C 212.667,550.833 212.333,553.167 212,555.5C 210.132,556.672 208.298,556.505 206.5,555C 167.597,533.034 143.431,500.2 134,456.5C 132.451,462.385 130.451,468.051 128,473.5C 127.085,472.672 126.419,471.672 126,470.5C 119.068,447.808 116.235,424.808 117.5,401.5C 123.119,389.878 130.119,379.045 138.5,369C 139.483,368.409 140.15,368.743 140.5,370C 136.6,380.497 134.1,391.33 133,402.5C 130.074,428.798 134.241,453.798 145.5,477.5C 146.793,471.57 147.627,465.57 148,459.5C 149.532,454.567 150.866,449.567 152,444.5C 154.041,438.086 157.374,432.419 162,427.5C 162.473,457.429 172.306,483.762 191.5,506.5C 194.381,499.45 199.214,494.117 206,490.5C 212.802,498.303 219.969,505.803 227.5,513C 252.836,534.673 282.169,543.673 315.5,540C 346.905,532.709 372.405,516.209 392,490.5C 398.786,494.117 403.619,499.45 406.5,506.5C 425.694,483.762 435.527,457.429 436,427.5C 438.043,429.208 439.71,431.208 441,433.5C 447.17,447.504 451.004,462.171 452.5,477.5C 456.243,470.536 459.076,463.203 461,455.5C 467.929,426.635 466.763,398.135 457.5,370C 457.85,368.743 458.517,368.409 459.5,369C 467.842,379.569 475.175,390.735 481.5,402.5 Z"/></g>
<g><path style="opacity:1" fill="#241916" d="M 285.5,371.5 C 294.173,371.334 302.84,371.5 311.5,372C 334.199,374.296 341.366,385.796 333,406.5C 321.798,419.569 307.632,424.736 290.5,422C 274.423,418.754 264.423,409.254 260.5,393.5C 260.6,386.325 263.6,380.825 269.5,377C 274.586,374.028 279.919,372.195 285.5,371.5 Z"/></g>
<g><path style="opacity:1" fill="#f3a495" d="M 331.5,450.5 C 333.848,468.52 332.348,486.187 327,503.5C 319.848,520.159 307.348,526.326 289.5,522C 280.692,518.526 274.526,512.359 271,503.5C 265.652,486.187 264.152,468.52 266.5,450.5C 267.163,448.958 267.83,447.291 268.5,445.5C 270.776,446.213 273.109,446.713 275.5,447C 293.908,448.035 312.242,447.535 330.5,445.5C 330.216,447.415 330.549,449.081 331.5,450.5 Z"/></g>
</svg>
