<?xml version="1.0" encoding="UTF-8"?>
<!DOCTYPE svg PUBLIC "-//W3C//DTD SVG 1.1//EN" "http://www.w3.org/Graphics/SVG/1.1/DTD/svg11.dtd">
<svg xmlns="http://www.w3.org/2000/svg" version="1.1" width="600px" height="600px" style="shape-rendering:geometricPrecision; text-rendering:geometricPrecision; image-rendering:optimizeQuality; fill-rule:evenodd; clip-rule:evenodd" xmlns:xlink="http://www.w3.org/1999/xlink">
<g><path style="opacity:0.966" fill="#020202" d="M 157.5,-0.5 C 165.833,-0.5 174.167,-0.5 182.5,-0.5C 190.556,9.39524 198.056,19.7286 205,30.5C 218.172,52.1735 230.839,74.1735 243,96.5C 247.252,90.4124 253.085,88.2457 260.5,90C 274.573,92.4677 287.74,97.301 300,104.5C 312.26,97.301 325.427,92.4677 339.5,90C 346.217,88.5463 351.717,90.3796 356,95.5C 373.589,61.9628 393.423,29.9628 415.5,-0.5C 423.833,-0.5 432.167,-0.5 440.5,-0.5C 442.127,1.62976 443.96,3.62976 446,5.5C 452.637,0.152062 458.637,0.818728 464,7.5C 464.516,12.4872 465.182,17.4872 466,22.5C 468.464,25.5932 469.964,29.0932 470.5,33C 469.133,37.0872 468.633,41.2539 469,45.5C 483.793,77.5453 494.793,110.879 502,145.5C 505.065,147.573 508.231,149.573 511.5,151.5C 513.026,153.751 514.026,156.251 514.5,159C 513.455,166.474 511.455,173.807 508.5,181C 508.667,182.167 508.833,183.333 509,184.5C 516.511,190.881 518.511,198.548 515,207.5C 511.785,209.671 508.952,212.171 506.5,215C 511.057,224.67 515.223,234.503 519,244.5C 524.822,257.248 526.322,270.415 523.5,284C 529.474,344.179 521.307,402.013 499,457.5C 492.759,471.712 484.926,484.879 475.5,497C 472.898,497.977 470.398,499.144 468,500.5C 465.188,507.495 464.688,514.662 466.5,522C 466.129,539.409 459.129,553.409 445.5,564C 442.431,565.846 439.098,566.846 435.5,567C 432.628,572.287 428.294,575.953 422.5,578C 417.857,580.103 413.024,581.603 408,582.5C 403.74,581.786 399.906,580.119 396.5,577.5C 384.131,588.017 370.131,595.35 354.5,599.5C 317.833,599.5 281.167,599.5 244.5,599.5C 228.669,595.516 214.835,587.85 203,576.5C 199.954,580.356 195.954,582.356 191,582.5C 183.349,580.84 176.182,578.006 169.5,574C 167.259,572.261 165.592,570.094 164.5,567.5C 151.46,563.636 142.294,555.302 137,542.5C 132.233,530.768 131.4,518.768 134.5,506.5C 134.158,504.133 133.658,501.8 133,499.5C 129.216,498.24 125.883,496.24 123,493.5C 105.046,466.291 92.713,436.958 86,405.5C 76.8379,365.896 74.3379,325.896 78.5,285.5C 75.0724,280.975 73.4057,275.808 73.5,270C 76.8925,250.822 82.8925,232.489 91.5,215C 90.0714,211.237 87.5714,208.404 84,206.5C 82.9371,204.084 82.1037,201.584 81.5,199C 84.1033,192.295 87.1033,185.795 90.5,179.5C 89.1368,177.292 87.9701,174.959 87,172.5C 85.9691,166.816 85.3024,161.15 85,155.5C 86.986,150.251 90.8193,147.585 96.5,147.5C 103.421,111.071 114.754,76.0709 130.5,42.5C 129.346,39.5482 128.346,36.5482 127.5,33.5C 130.074,28.0958 132.407,22.5958 134.5,17C 132.414,8.67963 135.58,3.51296 144,1.5C 147.434,1.93633 150.434,3.26966 153,5.5C 154.332,3.34004 155.832,1.34004 157.5,-0.5 Z"/></g>
<g><path style="opacity:1" fill="#393634" d="M 167.5,4.5 C 169.199,4.33982 170.866,4.50649 172.5,5C 178.262,10.7041 183.428,16.8708 188,23.5C 206.01,52.1787 223.01,81.512 239,111.5C 241.166,113.121 243.666,113.955 246.5,114C 249.5,114.667 252.5,114.667 255.5,114C 256.059,113.275 256.392,112.442 256.5,111.5C 254.871,107.915 253.538,104.248 252.5,100.5C 258.678,100.107 264.678,100.94 270.5,103C 280.336,106.504 289.836,110.67 299,115.5C 306.479,113.01 313.645,109.843 320.5,106C 327.419,103.137 334.586,101.304 342,100.5C 343.833,100.833 345.667,101.167 347.5,101.5C 345.28,105.595 343.947,109.928 343.5,114.5C 347.535,114.607 351.535,114.274 355.5,113.5C 357.58,113.314 359.08,112.314 360,110.5C 376.487,78.8468 394.487,48.1801 414,18.5C 417.381,14.2407 420.881,10.0741 424.5,6C 427.758,3.8964 430.758,4.22974 433.5,7C 437.788,12.4103 441.955,17.9103 446,23.5C 447.933,19.302 450.599,15.6353 454,12.5C 453.339,17.8252 451.839,22.9918 449.5,28C 449.667,28.5 449.833,29 450,29.5C 451.421,26.9906 453.088,24.6572 455,22.5C 454.524,27.1168 454.524,31.7834 455,36.5C 455.329,32.9603 457.162,31.7936 460.5,33C 457.998,37.1798 457.164,41.6798 458,46.5C 475.21,82.13 487.21,119.463 494,158.5C 496.969,158.519 500.135,158.686 503.5,159C 500.167,161 497.5,163.667 495.5,167C 497.473,167.495 499.473,167.662 501.5,167.5C 501.719,168.675 501.386,169.675 500.5,170.5C 498.947,171.439 497.613,172.606 496.5,174C 496.36,182.484 499.194,189.651 505,195.5C 506.128,197.345 506.628,199.345 506.5,201.5C 504.5,201.5 502.5,201.5 500.5,201.5C 499.322,206.191 497.322,210.524 494.5,214.5C 502.472,230.248 508.972,246.582 514,263.5C 514.972,269.219 514.472,274.719 512.5,280C 517.098,321.867 514.764,363.367 505.5,404.5C 501.78,404.704 498.447,403.704 495.5,401.5C 495.167,401.833 494.833,402.167 494.5,402.5C 497.817,406.304 500.484,410.471 502.5,415C 495.929,440.636 485.429,464.469 471,486.5C 467.801,489.129 464.801,488.796 462,485.5C 455.499,450.949 441.499,419.949 420,392.5C 387.744,357.235 347.578,339.902 299.5,340.5C 223.633,342.513 172.799,379.179 147,450.5C 143.355,462.411 140.022,474.411 137,486.5C 135.663,487.765 134.163,488.265 132.5,488C 116.783,465.706 105.783,441.206 99.5,414.5C 100.821,410.336 102.821,406.503 105.5,403C 105.167,402.5 104.833,402 104.5,401.5C 101.79,403.48 98.9566,403.814 96,402.5C 89.0245,368.84 86.0245,334.84 87,300.5C 88.0084,291.771 89.0084,283.104 90,274.5C 86.1331,277.485 83.9664,276.485 83.5,271.5C 84.6341,263.662 86.4674,255.995 89,248.5C 93.6383,236.919 98.4716,225.419 103.5,214C 102.017,211.177 100.517,208.343 99,205.5C 98.5065,203.866 98.3398,202.199 98.5,200.5C 96.5,200.5 94.5,200.5 92.5,200.5C 93.0913,195.995 95.2579,192.329 99,189.5C 99.9412,184.853 100.775,180.186 101.5,175.5C 100.148,172.831 98.8144,170.164 97.5,167.5C 99.288,167.785 100.955,167.452 102.5,166.5C 100.312,163.478 97.6452,160.978 94.5,159C 97.8678,158.457 101.201,158.624 104.5,159.5C 111.081,120.51 122.915,83.1765 140,47.5C 140.884,42.6725 140.384,38.0058 138.5,33.5C 139.365,32.4173 140.365,32.2506 141.5,33C 142.717,34.6477 143.55,36.481 144,38.5C 144.91,33.3415 144.41,28.3415 142.5,23.5C 144.827,23.9558 146.661,25.6225 148,28.5C 147.437,23.3029 145.937,18.3029 143.5,13.5C 144.868,12.4063 146.035,12.7397 147,14.5C 148.752,17.672 150.752,20.672 153,23.5C 157.282,16.7214 162.116,10.3881 167.5,4.5 Z"/></g>
<g><path style="opacity:1" fill="#484544" d="M 164.5,34.5 C 166.655,34.372 168.655,34.872 170.5,36C 174.382,40.2139 177.882,44.7139 181,49.5C 190.652,67.8036 199.486,86.4702 207.5,105.5C 205.034,106.123 202.701,106.957 200.5,108C 203.654,110.743 206.988,113.243 210.5,115.5C 211.752,117.001 212.752,118.668 213.5,120.5C 212.975,121.192 212.308,121.692 211.5,122C 195.062,123.604 178.728,125.938 162.5,129C 157.272,130.41 152.272,132.41 147.5,135C 145.552,136.439 144.219,138.272 143.5,140.5C 145.403,143.911 147.903,146.911 151,149.5C 151.706,151.971 151.373,154.305 150,156.5C 142.911,162.299 135.077,166.966 126.5,170.5C 126.167,169.667 125.833,168.833 125.5,168C 132.601,129.028 142.768,90.861 156,53.5C 158.362,46.8989 161.195,40.5656 164.5,34.5 Z"/></g>
<g><path style="opacity:1" fill="#484544" d="M 429.5,34.5 C 431.722,34.178 433.556,34.8446 435,36.5C 452.339,79.5195 465.172,123.853 473.5,169.5C 473.167,170.167 472.833,170.833 472.5,171.5C 463.904,167.623 456.071,162.623 449,156.5C 447.699,154.635 447.365,152.635 448,150.5C 451.396,147.607 454.229,144.274 456.5,140.5C 455.352,138.851 454.019,137.351 452.5,136C 446.188,132.674 439.521,130.34 432.5,129C 417.916,126.417 403.249,124.417 388.5,123C 386.956,122.71 385.623,122.044 384.5,121C 385.453,119.045 386.787,117.378 388.5,116C 392.282,114.046 395.615,111.546 398.5,108.5C 395.833,107.833 393.167,107.167 390.5,106.5C 399.688,84.4583 410.188,63.125 422,42.5C 424.028,39.3078 426.528,36.6411 429.5,34.5 Z"/></g>
<g><path style="opacity:1" fill="#ebd2b5" d="M 423.5,288.5 C 409.397,280.685 394.397,275.018 378.5,271.5C 367.914,269.741 357.247,268.575 346.5,268C 335.638,265.467 331.471,258.633 334,247.5C 336.808,240.339 341.974,235.839 349.5,234C 372.059,232.96 393.059,238.293 412.5,250C 428.862,259.36 442.362,271.86 453,287.5C 456.33,299.842 452.163,303.676 440.5,299C 435.14,294.988 429.474,291.488 423.5,288.5 Z"/></g>
<g><path style="opacity:1" fill="#ebd3b5" d="M 221.5,271.5 C 206.275,273.245 191.942,277.578 178.5,284.5C 168.569,288.718 158.736,293.051 149,297.5C 146.333,297.833 144.333,296.833 143,294.5C 142.262,290.739 142.595,287.072 144,283.5C 171.102,250.7 205.936,234.866 248.5,236C 265.597,241.968 269.597,252.635 260.5,268C 259.167,268.667 257.833,269.333 256.5,270C 244.83,270.515 233.164,271.015 221.5,271.5 Z"/></g>
<g><path style="opacity:1" fill="#7c7875" d="M 221.5,271.5 C 249.876,284.453 257.376,305.12 244,333.5C 231.5,349.888 215.333,355.055 195.5,349C 173.406,337.973 165.573,320.473 172,296.5C 174.023,292.34 176.189,288.34 178.5,284.5C 191.942,277.578 206.275,273.245 221.5,271.5 Z"/></g>
<g><path style="opacity:1" fill="#7c7875" d="M 378.5,271.5 C 394.397,275.018 409.397,280.685 423.5,288.5C 435.021,310.255 431.354,329.088 412.5,345C 390.65,356.694 371.816,353.194 356,334.5C 343.945,313.766 346.779,295.266 364.5,279C 369.101,276.202 373.768,273.702 378.5,271.5 Z"/></g>
<g><path style="opacity:1" fill="#020202" d="M 203.5,282.5 C 228.519,281.684 240.019,293.684 238,318.5C 232.127,334.69 220.627,341.523 203.5,339C 187.108,333.404 179.942,321.904 182,304.5C 185.359,293.309 192.526,285.976 203.5,282.5 Z"/></g>
<g><path style="opacity:1" fill="#020303" d="M 382.5,282.5 C 403.234,281.074 415.234,290.574 418.5,311C 415.906,331.593 404.239,341.26 383.5,340C 368.913,335.578 361.247,325.745 360.5,310.5C 362.33,296.687 369.663,287.354 382.5,282.5 Z"/></g>
<g><path style="opacity:1" fill="#e7e7e7" d="M 199.5,293.5 C 205.34,292.579 209.007,294.913 210.5,300.5C 209.189,306.643 205.523,308.809 199.5,307C 194.467,302.561 194.467,298.061 199.5,293.5 Z"/></g>
<g><path style="opacity:1" fill="#e8e8e8" d="M 380.5,293.5 C 388.339,294.18 390.839,298.18 388,305.5C 381.61,310.052 377.443,308.552 375.5,301C 375.782,297.556 377.448,295.056 380.5,293.5 Z"/></g>
<g><path style="opacity:1" fill="#edd4b6" d="M 283.5,350.5 C 366.992,347.644 421.159,385.977 446,465.5C 453.351,487.603 456.351,510.269 455,533.5C 452.054,543.405 446.221,551.071 437.5,556.5C 435.174,548.702 433.674,540.702 433,532.5C 432.019,529.311 430.686,528.978 429,531.5C 428.667,538.5 428.333,545.5 428,552.5C 427.489,557.395 425.989,561.895 423.5,566C 417.815,569.122 411.815,570.789 405.5,571C 402.458,567.731 399.791,564.231 397.5,560.5C 382.449,578.531 363.116,589.031 339.5,592C 305.759,597.904 272.426,596.238 239.5,587C 224.469,581.783 212.136,572.95 202.5,560.5C 199.289,563.549 196.623,567.049 194.5,571C 188.437,571.539 182.771,570.205 177.5,567C 175.274,565.773 173.774,563.939 173,561.5C 171.937,550.364 170.604,539.364 169,528.5C 168.085,529.328 167.419,530.328 167,531.5C 165.404,539.463 164.071,547.463 163,555.5C 162.282,556.451 161.449,556.617 160.5,556C 146.531,544.436 141.031,529.603 144,511.5C 148.094,470.347 162.427,433.347 187,400.5C 212.975,371.763 245.141,355.097 283.5,350.5 Z"/></g>
<g><path style="opacity:1" fill="#020202" d="M 287.5,362.5 C 299.698,361.766 311.698,362.933 323.5,366C 341.118,372.478 346.618,384.645 340,402.5C 328.515,418.991 312.682,426.491 292.5,425C 279.486,422.417 268.986,415.917 261,405.5C 251.5,387.365 256,374.199 274.5,366C 278.974,364.88 283.307,363.714 287.5,362.5 Z"/></g>
<g><path style="opacity:1" fill="#040303" d="M 286.5,449.5 C 293.84,450.612 301.173,450.612 308.5,449.5C 314.632,450.91 314.965,453.077 309.5,456C 303.167,456.667 296.833,456.667 290.5,456C 285.765,455.864 284.432,453.697 286.5,449.5 Z"/></g>
</svg>
