<?xml version="1.0" encoding="UTF-8"?>
<!DOCTYPE svg PUBLIC "-//W3C//DTD SVG 1.1//EN" "http://www.w3.org/Graphics/SVG/1.1/DTD/svg11.dtd">
<svg xmlns="http://www.w3.org/2000/svg" version="1.1" width="600px" height="600px" style="shape-rendering:geometricPrecision; text-rendering:geometricPrecision; image-rendering:optimizeQuality; fill-rule:evenodd; clip-rule:evenodd" xmlns:xlink="http://www.w3.org/1999/xlink">
<g><path style="opacity:0.955" fill="#020202" d="M 599.5,74.5 C 599.5,83.5 599.5,92.5 599.5,101.5C 596.697,102.885 593.697,103.551 590.5,103.5C 579.598,101.186 568.598,99.5195 557.5,98.5C 549.524,98.4956 541.857,99.9956 534.5,103C 549.186,110.685 561.02,121.518 570,135.5C 574.113,149.259 568.946,156.259 554.5,156.5C 560.274,168.381 565.774,180.381 571,192.5C 574.451,195.956 577.118,199.956 579,204.5C 579.169,215.203 580.336,225.87 582.5,236.5C 582.641,250.53 575.974,255.697 562.5,252C 560.667,250.833 558.833,249.667 557,248.5C 557.297,259.587 558.631,270.587 561,281.5C 565.403,299.279 569.57,317.112 573.5,335C 573.598,344.678 568.931,350.178 559.5,351.5C 554.653,350.718 550.153,349.052 546,346.5C 545.125,347.873 544.625,349.373 544.5,351C 548.076,375.715 552.743,400.215 558.5,424.5C 555.719,435.817 549.052,438.984 538.5,434C 534.667,430.167 530.833,426.333 527,422.5C 527.069,438.36 527.902,454.193 529.5,470C 530.895,477.8 528.895,484.466 523.5,490C 521.5,490.833 519.5,491.667 517.5,492.5C 514.248,505.627 506.581,509.294 494.5,503.5C 493.669,510.811 493.169,518.144 493,525.5C 492.288,531.481 490.121,536.814 486.5,541.5C 480.101,545.412 474.101,544.745 468.5,539.5C 466.616,547.704 464.116,555.704 461,563.5C 451.538,572.893 443.205,571.893 436,560.5C 435.314,556.679 434.314,553.012 433,549.5C 430.537,551.797 427.703,553.463 424.5,554.5C 422.335,561.827 420.168,569.161 418,576.5C 415.711,582.251 412.545,587.418 408.5,592C 400.109,596.948 392.943,595.448 387,587.5C 384.231,593.105 380.064,597.105 374.5,599.5C 371.167,599.5 367.833,599.5 364.5,599.5C 358.474,595.457 354.974,589.791 354,582.5C 350.388,588.607 346.221,594.273 341.5,599.5C 330.833,599.5 320.167,599.5 309.5,599.5C 306.272,594.66 304.105,589.327 303,583.5C 301.333,582.833 299.667,582.167 298,581.5C 296.365,587.917 293.865,593.917 290.5,599.5C 279.833,599.5 269.167,599.5 258.5,599.5C 253.447,593.943 248.947,587.943 245,581.5C 244.791,589.607 241.291,595.607 234.5,599.5C 231.5,599.5 228.5,599.5 225.5,599.5C 219.978,596.821 215.478,592.821 212,587.5C 206.596,595.56 199.762,597.06 191.5,592C 187.455,587.418 184.289,582.251 182,576.5C 179.522,569.252 177.355,561.919 175.5,554.5C 172.528,552.694 169.695,550.694 167,548.5C 166.068,554.57 164.068,560.237 161,565.5C 153.035,571.337 145.702,570.67 139,563.5C 135.884,555.704 133.384,547.704 131.5,539.5C 121.922,546.896 114.422,545.23 109,534.5C 108.206,531.529 107.539,528.529 107,525.5C 106.831,518.144 106.331,510.811 105.5,503.5C 93.4186,509.294 85.7519,505.627 82.5,492.5C 78.2644,491.097 75.0977,488.431 73,484.5C 71.9629,479.734 71.4629,474.901 71.5,470C 73.146,454.194 73.9793,438.361 74,422.5C 70.7959,425.369 67.9626,428.535 65.5,432C 58.4516,438.157 51.6183,437.99 45,431.5C 43.5236,426.924 43.1902,422.257 44,417.5C 49.5172,395.414 53.6839,373.081 56.5,350.5C 56.1667,349.167 55.8333,347.833 55.5,346.5C 49.3253,350.882 42.6587,352.048 35.5,350C 30.3842,346.608 27.7175,341.775 27.5,335.5C 30.8601,319.059 34.6935,302.726 39,286.5C 42.0748,273.979 43.7415,261.313 44,248.5C 37.689,253.893 30.8557,254.726 23.5,251C 21.1064,249.048 19.6064,246.548 19,243.5C 18.3333,238.5 18.3333,233.5 19,228.5C 20.9847,220.562 22.6513,212.562 24,204.5C 30.7822,188.15 37.9489,171.983 45.5,156C 32.0408,155.889 26.8741,149.389 30,136.5C 38.9908,121.175 51.4908,109.675 67.5,102C 56.1625,94.9956 43.8292,92.3289 30.5,94C 20.1498,96.7831 9.81645,96.9497 -0.5,94.5C -0.5,86.1667 -0.5,77.8333 -0.5,69.5C 37.2114,25.145 84.2114,11.3117 140.5,28C 148.806,30.3263 157.139,32.493 165.5,34.5C 166.833,34.1667 168.167,33.8333 169.5,33.5C 164.652,27.5568 164.318,21.3902 168.5,15C 174.79,11.7189 181.457,10.7189 188.5,12C 202.458,14.8252 216.458,17.3252 230.5,19.5C 228.641,10.858 231.974,5.35805 240.5,3C 262.124,3.88798 281.957,10.388 300,22.5C 317.003,11.7515 335.503,5.08486 355.5,2.5C 367.178,3.0098 372.012,9.0098 370,20.5C 383.715,17.2901 397.548,14.4568 411.5,12C 417.237,11.2106 422.903,11.5439 428.5,13C 436.497,18.9746 437.164,25.6413 430.5,33C 431.333,33.1667 432.167,33.3333 433,33.5C 462.589,24.3602 492.756,21.5269 523.5,25C 555.094,32.1301 580.427,48.6301 599.5,74.5 Z"/></g>
<g><path style="opacity:1" fill="#d0b69d" d="M 435.5,43.5 C 435.791,44.6491 436.624,45.3158 438,45.5C 453.786,47.2572 469.286,50.4238 484.5,55C 489.214,57.0512 493.381,59.8845 497,63.5C 497.49,64.7932 497.657,66.1266 497.5,67.5C 498.5,67.5 499.5,67.5 500.5,67.5C 493.975,69.6868 489.308,74.0202 486.5,80.5C 486.988,84.3099 488.655,87.4766 491.5,90C 498.694,94.762 506.027,99.262 513.5,103.5C 528.46,110.291 541.96,119.291 554,130.5C 556.723,133.557 559.056,136.89 561,140.5C 561.72,142.112 561.554,143.612 560.5,145C 554.942,143.813 549.275,143.48 543.5,144C 541.09,144.758 540.09,146.425 540.5,149C 547.379,164.389 554.046,179.889 560.5,195.5C 540.644,179.059 518.644,165.892 494.5,156C 442.725,140.097 390.725,139.43 338.5,154C 328.452,157.726 319.119,162.726 310.5,169C 307.296,171.869 304.463,175.035 302,178.5C 291.937,166.8 279.437,158.633 264.5,154C 213.394,139.693 162.394,140.026 111.5,155C 83.7349,165.708 59.0683,181.208 37.5,201.5C 44.1891,182.951 51.8557,164.785 60.5,147C 60.2409,145.739 59.5742,144.739 58.5,144C 51.8253,143.611 45.1586,143.778 38.5,144.5C 38.7553,141.984 39.5886,139.65 41,137.5C 45.1329,132.366 49.6329,127.532 54.5,123C 64.8567,115.154 75.8567,108.32 87.5,102.5C 94.3024,98.9312 100.969,95.0979 107.5,91C 112.682,87.1739 114.182,82.3406 112,76.5C 108.458,72.0969 104.291,68.7635 99.5,66.5C 100.675,66.719 101.675,66.3857 102.5,65.5C 106.556,59.9645 111.889,56.1312 118.5,54C 132.548,50.4709 146.548,47.3042 160.5,44.5C 161.577,45.0184 162.744,45.3517 164,45.5C 173.784,44.2673 183.45,42.6006 193,40.5C 193.63,38.0966 192.797,36.2633 190.5,35C 185.224,32.1121 180.391,28.6121 176,24.5C 175.383,23.5509 175.549,22.7175 176.5,22C 181.868,21.5216 187.201,21.8549 192.5,23C 206.154,25.7975 219.821,28.4642 233.5,31C 237.167,31.6667 240.833,31.6667 244.5,31C 245.022,30.4387 245.355,29.772 245.5,29C 243.678,23.8633 242.012,18.6966 240.5,13.5C 259.171,13.916 276.171,19.416 291.5,30C 294.564,31.244 297.731,32.0773 301,32.5C 312.999,26.0891 325.499,20.5891 338.5,16C 345.345,13.9219 352.345,13.0886 359.5,13.5C 358.346,18.7966 356.679,23.9632 354.5,29C 354.905,29.9454 355.572,30.6121 356.5,31C 362.529,31.4644 368.529,31.131 374.5,30C 390.542,25.3908 406.875,22.7241 423.5,22C 424.731,23.1827 424.731,24.3493 423.5,25.5C 418.5,29 413.5,32.5 408.5,36C 406.789,37.1332 406.289,38.6332 407,40.5C 416.303,43.5152 425.803,44.5152 435.5,43.5 Z"/></g>
<g><path style="opacity:1" fill="#d7c2ae" d="M 160.5,44.5 C 146.548,47.3042 132.548,50.4709 118.5,54C 111.889,56.1312 106.556,59.9645 102.5,65.5C 101.675,66.3857 100.675,66.719 99.5,66.5C 78.1973,62.735 56.864,62.5683 35.5,66C 22.915,68.5935 13.2484,75.0935 6.5,85.5C 5.35089,85.2089 4.68423,84.3756 4.5,83C 20.5413,58.3229 42.8747,41.9896 71.5,34C 101.964,31.0166 131.631,34.5166 160.5,44.5 Z"/></g>
<g><path style="opacity:1" fill="#d7c2ae" d="M 593.5,92.5 C 587.605,81.8541 578.605,75.0208 566.5,72C 544.78,66.6998 522.78,65.1998 500.5,67.5C 499.5,67.5 498.5,67.5 497.5,67.5C 497.657,66.1266 497.49,64.7932 497,63.5C 493.381,59.8845 489.214,57.0512 484.5,55C 469.286,50.4238 453.786,47.2572 438,45.5C 436.624,45.3158 435.791,44.6491 435.5,43.5C 466.984,33.8519 498.984,31.6852 531.5,37C 557.728,46.3473 578.562,62.514 594,85.5C 596.041,88.2654 595.874,90.5987 593.5,92.5 Z"/></g>
<g><path style="opacity:1" fill="#8b7054" d="M 99.5,66.5 C 104.291,68.7635 108.458,72.0969 112,76.5C 114.182,82.3406 112.682,87.1739 107.5,91C 100.969,95.0979 94.3024,98.9312 87.5,102.5C 64.9979,83.9642 39.4979,78.6309 11,86.5C 9.29328,86.4915 7.79328,86.1582 6.5,85.5C 13.2484,75.0935 22.915,68.5935 35.5,66C 56.864,62.5683 78.1973,62.735 99.5,66.5 Z"/></g>
<g><path style="opacity:1" fill="#8b7054" d="M 593.5,92.5 C 592.726,93.1471 591.726,93.4805 590.5,93.5C 583.467,92.1583 576.467,90.6583 569.5,89C 548.49,85.9529 529.823,90.7863 513.5,103.5C 506.027,99.262 498.694,94.762 491.5,90C 488.655,87.4766 486.988,84.3099 486.5,80.5C 489.308,74.0202 493.975,69.6868 500.5,67.5C 522.78,65.1998 544.78,66.6998 566.5,72C 578.605,75.0208 587.605,81.8541 593.5,92.5 Z"/></g>
<g><path style="opacity:1" fill="#d9c4b0" d="M 560.5,195.5 C 563.503,199.343 566.336,203.343 569,207.5C 569.789,209.712 569.622,211.712 568.5,213.5C 566.473,213.662 564.473,213.495 562.5,213C 542.217,201.127 520.55,192.794 497.5,188C 494.106,187.248 490.773,187.415 487.5,188.5C 486.276,190.898 486.442,193.231 488,195.5C 504.534,209.215 515.534,226.548 521,247.5C 521.728,250.23 521.562,252.897 520.5,255.5C 519.998,256.521 519.332,256.688 518.5,256C 515.297,252.629 511.964,249.462 508.5,246.5C 504.325,243.165 499.992,239.998 495.5,237C 493.08,236.085 491.747,236.918 491.5,239.5C 498.332,255.949 501.665,273.116 501.5,291C 501.167,295.167 500.833,299.333 500.5,303.5C 495.52,291.94 490.687,280.274 486,268.5C 462.87,219.011 424.037,198.511 369.5,207C 348.554,210.236 330.554,219.069 315.5,233.5C 308.682,241.467 303.682,250.467 300.5,260.5C 297.979,246.294 290.979,234.794 279.5,226C 259.274,211.927 236.774,205.093 212,205.5C 182.355,204.929 157.355,215.262 137,236.5C 136.487,237.527 135.987,238.527 135.5,239.5C 131.443,244.59 127.61,249.923 124,255.5C 116.409,271.286 109.409,287.286 103,303.5C 100.651,282.627 103.318,262.294 111,242.5C 111.946,240.044 111.446,238.044 109.5,236.5C 106.671,237.747 104.005,239.247 101.5,241C 95.6474,246.354 89.6474,251.52 83.5,256.5C 82.3414,252.878 82.1747,249.211 83,245.5C 88.7946,224.586 100.128,207.253 117,193.5C 117.667,192.167 117.667,190.833 117,189.5C 115.006,188.336 112.839,187.669 110.5,187.5C 84.9567,192.103 60.9567,200.937 38.5,214C 36.735,214.64 35.0683,214.473 33.5,213.5C 33.1376,208.901 34.471,204.901 37.5,201.5C 59.0683,181.208 83.7349,165.708 111.5,155C 162.394,140.026 213.394,139.693 264.5,154C 279.437,158.633 291.937,166.8 302,178.5C 304.463,175.035 307.296,171.869 310.5,169C 319.119,162.726 328.452,157.726 338.5,154C 390.725,139.43 442.725,140.097 494.5,156C 518.644,165.892 540.644,179.059 560.5,195.5 Z"/></g>
<g><path style="opacity:1" fill="#d0b69d" d="M 135.5,239.5 C 157.054,260.931 178.387,282.598 199.5,304.5C 143.434,324.899 105.434,363.232 85.5,419.5C 85.8222,415.253 84.9889,411.253 83,407.5C 80.5991,406.398 78.0991,406.231 75.5,407C 68.5,412.667 62.1667,419 56.5,426C 55.552,426.483 54.552,426.649 53.5,426.5C 53.3359,423.813 53.5026,421.146 54,418.5C 58.1588,399.532 62.1588,380.532 66,361.5C 66.6667,355.5 66.6667,349.5 66,343.5C 64.4105,336.786 60.2438,334.286 53.5,336C 50.0403,338.065 46.3736,339.565 42.5,340.5C 41.2284,340.43 40.0617,340.097 39,339.5C 38.3333,335.833 38.3333,332.167 39,328.5C 46.3861,302.953 51.5528,276.953 54.5,250.5C 54.3333,246.833 54.1667,243.167 54,239.5C 52.7895,234.29 49.6228,232.456 44.5,234C 40.8333,237 37.1667,240 33.5,243C 31.6332,243.711 30.1332,243.211 29,241.5C 28.1336,231.684 29.6336,222.35 33.5,213.5C 35.0683,214.473 36.735,214.64 38.5,214C 60.9567,200.937 84.9567,192.103 110.5,187.5C 112.839,187.669 115.006,188.336 117,189.5C 117.667,190.833 117.667,192.167 117,193.5C 100.128,207.253 88.7946,224.586 83,245.5C 82.1747,249.211 82.3414,252.878 83.5,256.5C 89.6474,251.52 95.6474,246.354 101.5,241C 104.005,239.247 106.671,237.747 109.5,236.5C 111.446,238.044 111.946,240.044 111,242.5C 103.318,262.294 100.651,282.627 103,303.5C 109.409,287.286 116.409,271.286 124,255.5C 127.61,249.923 131.443,244.59 135.5,239.5 Z"/></g>
<g><path style="opacity:1" fill="#cfb69d" d="M 568.5,213.5 C 568.914,219.062 570.08,224.729 572,230.5C 573.702,245.489 569.535,247.323 559.5,236C 553.721,231.817 549.554,232.984 547,239.5C 546.333,245.5 546.333,251.5 547,257.5C 548.179,267.56 549.679,277.56 551.5,287.5C 551.649,288.552 551.483,289.552 551,290.5C 536.245,276.248 522.078,261.581 508.5,246.5C 511.964,249.462 515.297,252.629 518.5,256C 519.332,256.688 519.998,256.521 520.5,255.5C 521.562,252.897 521.728,250.23 521,247.5C 515.534,226.548 504.534,209.215 488,195.5C 486.442,193.231 486.276,190.898 487.5,188.5C 490.773,187.415 494.106,187.248 497.5,188C 520.55,192.794 542.217,201.127 562.5,213C 564.473,213.495 566.473,213.662 568.5,213.5 Z"/></g>
<g><path style="opacity:1" fill="#c9b097" d="M 300.5,260.5 C 310.458,270.132 319.791,280.465 328.5,291.5C 284.648,287.852 241.648,292.185 199.5,304.5C 178.387,282.598 157.054,260.931 135.5,239.5C 135.987,238.527 136.487,237.527 137,236.5C 157.355,215.262 182.355,204.929 212,205.5C 236.774,205.093 259.274,211.927 279.5,226C 290.979,234.794 297.979,246.294 300.5,260.5 Z"/></g>
<g><path style="opacity:1" fill="#c9b097" d="M 508.5,246.5 C 522.078,261.581 536.245,276.248 551,290.5C 551.483,289.552 551.649,288.552 551.5,287.5C 555.441,300.927 558.941,314.594 562,328.5C 562.667,332.167 562.667,335.833 562,339.5C 560.938,340.097 559.772,340.43 558.5,340.5C 554.626,339.565 550.96,338.065 547.5,336C 542.375,334.431 538.541,335.931 536,340.5C 534.28,349.126 534.28,357.792 536,366.5C 539.507,383.527 543.173,400.527 547,417.5C 547.821,420.554 547.655,423.554 546.5,426.5C 545.5,426 544.5,425.5 543.5,425C 538.867,419.365 533.867,414.032 528.5,409C 524.375,405.618 520.542,405.784 517,409.5C 515.942,413.58 515.442,417.747 515.5,422C 516.303,434.865 517.47,447.698 519,460.5C 519.667,466.833 519.667,473.167 519,479.5C 517.933,481.283 516.433,481.783 514.5,481C 511,478.331 507.667,475.498 504.5,472.5C 501.255,452.264 495.088,432.931 486,414.5C 484.921,411.937 484.421,409.271 484.5,406.5C 487.516,406.841 490.182,408.007 492.5,410C 498.521,415.023 504.188,420.356 509.5,426C 514.083,426.934 515.583,425.1 514,420.5C 490.684,355.018 445.184,314.351 377.5,298.5C 378.239,298.631 378.906,298.464 379.5,298C 357.965,276.632 336.632,255.132 315.5,233.5C 330.554,219.069 348.554,210.236 369.5,207C 424.037,198.511 462.87,219.011 486,268.5C 490.687,280.274 495.52,291.94 500.5,303.5C 500.833,299.333 501.167,295.167 501.5,291C 501.665,273.116 498.332,255.949 491.5,239.5C 491.747,236.918 493.08,236.085 495.5,237C 499.992,239.998 504.325,243.165 508.5,246.5 Z"/></g>
<g><path style="opacity:1" fill="#29201e" d="M 201.5,209.5 C 225.63,207.639 239.297,218.639 242.5,242.5C 238.786,266.532 224.786,277.365 200.5,275C 182.889,268.6 174.722,256.1 176,237.5C 178.793,222.879 187.293,213.546 201.5,209.5 Z"/></g>
<g><path style="opacity:1" fill="#29201e" d="M 386.5,209.5 C 407.026,207.003 420.859,215.336 428,234.5C 430.751,255.177 422.251,268.677 402.5,275C 382.71,277.361 369.544,269.195 363,250.5C 360.018,230.449 367.851,216.782 386.5,209.5 Z"/></g>
<g><path style="opacity:1" fill="#eeeeee" d="M 210.5,222.5 C 220.826,221.661 225.659,226.328 225,236.5C 217.81,246.06 211.143,245.727 205,235.5C 204.333,233.5 204.333,231.5 205,229.5C 206.666,227.004 208.5,224.671 210.5,222.5 Z"/></g>
<g><path style="opacity:1" fill="#eeeeee" d="M 398.5,222.5 C 408.317,222.149 412.817,226.815 412,236.5C 404.856,246.072 398.189,245.739 392,235.5C 391.483,229.868 393.649,225.535 398.5,222.5 Z"/></g>
<g><path style="opacity:1" fill="#d0b69d" d="M 315.5,233.5 C 336.632,255.132 357.965,276.632 379.5,298C 378.906,298.464 378.239,298.631 377.5,298.5C 361.29,295.365 344.956,293.032 328.5,291.5C 319.791,280.465 310.458,270.132 300.5,260.5C 303.682,250.467 308.682,241.467 315.5,233.5 Z"/></g>
<g><path style="opacity:1" fill="#8b7054" d="M 328.5,291.5 C 344.956,293.032 361.29,295.365 377.5,298.5C 445.184,314.351 490.684,355.018 514,420.5C 515.583,425.1 514.083,426.934 509.5,426C 504.188,420.356 498.521,415.023 492.5,410C 490.182,408.007 487.516,406.841 484.5,406.5C 484.421,409.271 484.921,411.937 486,414.5C 495.088,432.931 501.255,452.264 504.5,472.5C 505.729,479.79 506.229,487.123 506,494.5C 505.261,495.574 504.261,496.241 503,496.5C 501.056,495.561 499.389,494.227 498,492.5C 494.576,485.352 491.076,478.352 487.5,471.5C 485.893,466.952 483.726,462.619 481,458.5C 479.667,457.167 478.333,457.167 477,458.5C 476.333,461.5 476.333,464.5 477,467.5C 479.181,476.407 480.848,485.407 482,494.5C 482.383,493.944 482.883,493.611 483.5,493.5C 483.412,502.098 483.246,510.765 483,519.5C 482.769,523.584 482.102,527.584 481,531.5C 480.275,533.158 479.108,533.658 477.5,533C 475.947,530.345 474.78,527.512 474,524.5C 473.005,523.934 472.172,523.267 471.5,522.5C 472.239,522.631 472.906,522.464 473.5,522C 470.735,514.971 467.569,508.138 464,501.5C 462.989,500.663 461.822,500.33 460.5,500.5C 460.433,501.959 460.766,503.292 461.5,504.5C 461.088,522.094 458.255,539.427 453,556.5C 448.615,560.925 445.948,559.925 445,553.5C 443.849,542.911 442.016,532.578 439.5,522.5C 438.727,516.011 437.227,509.678 435,503.5C 433.877,500.751 432.377,498.251 430.5,496C 428.888,495.28 427.388,495.446 426,496.5C 424.257,499.91 422.423,503.243 420.5,506.5C 422.134,471.451 416.634,437.451 404,404.5C 395.079,383.475 381.913,365.642 364.5,351C 359.14,346.988 353.474,343.488 347.5,340.5C 354.392,320.123 347.392,306.956 326.5,301C 310.496,297.693 294.496,297.693 278.5,301C 259.355,306.795 252.355,319.295 257.5,338.5C 250.141,340.68 243.474,344.18 237.5,349C 207.283,374.914 189.117,407.747 183,447.5C 180.269,466.737 179.102,486.07 179.5,505.5C 177.417,502.473 175.417,499.307 173.5,496C 172.167,495.333 170.833,495.333 169.5,496C 164.073,503.774 161.406,512.274 161.5,521.5C 160.883,521.611 160.383,521.944 160,522.5C 157.867,533.097 156.2,543.764 155,554.5C 153.425,560.141 150.759,560.808 147,556.5C 141.737,540.105 138.903,523.439 138.5,506.5C 139.341,504.621 139.675,502.621 139.5,500.5C 138.325,500.281 137.325,500.614 136.5,501.5C 132.13,507.907 129.13,514.907 127.5,522.5C 125.737,525.864 124.07,529.364 122.5,533C 121.365,533.749 120.365,533.583 119.5,532.5C 117.29,525.695 116.29,518.695 116.5,511.5C 116.894,504.499 117.227,497.499 117.5,490.5C 119.627,483.064 121.46,475.397 123,467.5C 123.667,464.5 123.667,461.5 123,458.5C 121.667,457.167 120.333,457.167 119,458.5C 116.833,462 114.667,465.5 112.5,469C 113.056,469.383 113.389,469.883 113.5,470.5C 108.95,477.26 105.116,484.593 102,492.5C 100.611,494.227 98.9439,495.561 97,496.5C 95.7387,496.241 94.7387,495.574 94,494.5C 93.4536,487.816 93.6203,481.149 94.5,474.5C 97.9294,453.542 104.429,433.542 114,414.5C 115.079,411.937 115.579,409.271 115.5,406.5C 111.976,406.929 108.976,408.429 106.5,411C 102.167,415.333 97.8333,419.667 93.5,424C 91.0912,425.707 88.4245,426.54 85.5,426.5C 85.5,424.167 85.5,421.833 85.5,419.5C 105.434,363.232 143.434,324.899 199.5,304.5C 241.648,292.185 284.648,287.852 328.5,291.5 Z"/></g>
<g><path style="opacity:1" fill="#29211f" d="M 347.5,340.5 C 340.621,352.862 330.288,361.029 316.5,365C 294.674,369.847 276.508,363.68 262,346.5C 260.235,343.968 258.735,341.301 257.5,338.5C 252.355,319.295 259.355,306.795 278.5,301C 294.496,297.693 310.496,297.693 326.5,301C 347.392,306.956 354.392,320.123 347.5,340.5 Z"/></g>
<g><path style="opacity:1" fill="#947b66" d="M 257.5,338.5 C 258.735,341.301 260.235,343.968 262,346.5C 276.508,363.68 294.674,369.847 316.5,365C 330.288,361.029 340.621,352.862 347.5,340.5C 353.474,343.488 359.14,346.988 364.5,351C 381.913,365.642 395.079,383.475 404,404.5C 416.634,437.451 422.134,471.451 420.5,506.5C 419.065,513.715 418.398,521.049 418.5,528.5C 416.191,543.634 412.691,558.634 408,573.5C 401.051,588.683 396.051,588.016 393,571.5C 390.451,567.745 387.784,567.745 385,571.5C 381.692,577.95 377.526,583.783 372.5,589C 368.585,590.064 366.418,588.564 366,584.5C 365.738,577.305 365.571,570.305 365.5,563.5C 367.624,555.116 368.957,546.449 369.5,537.5C 369.46,535.571 369.127,533.738 368.5,532C 367.365,531.251 366.365,531.417 365.5,532.5C 361.965,540.443 358.632,548.443 355.5,556.5C 351.268,565.297 346.768,573.964 342,582.5C 339.167,586.667 335.667,590.167 331.5,593C 325.583,595.787 320.416,594.953 316,590.5C 313.844,583.875 312.011,577.208 310.5,570.5C 303.5,543.833 296.5,543.833 289.5,570.5C 288.3,577.296 286.467,583.963 284,590.5C 278.136,595.534 271.969,595.7 265.5,591C 263.667,589.167 261.833,587.333 260,585.5C 254.312,576.124 249.145,566.457 244.5,556.5C 241.368,548.443 238.035,540.443 234.5,532.5C 233.635,531.417 232.635,531.251 231.5,532C 230.96,542.201 231.627,552.367 233.5,562.5C 234.525,570.139 234.691,577.805 234,585.5C 232.971,588.875 230.804,590.042 227.5,589C 222.474,583.783 218.308,577.95 215,571.5C 212.216,567.745 209.549,567.745 207,571.5C 205.82,575.217 204.487,578.884 203,582.5C 201.867,584.211 200.367,584.711 198.5,584C 194.004,578.194 190.837,571.694 189,564.5C 185.625,552.882 183.125,541.215 181.5,529.5C 181.684,521.407 181.017,513.407 179.5,505.5C 179.102,486.07 180.269,466.737 183,447.5C 189.117,407.747 207.283,374.914 237.5,349C 243.474,344.18 250.141,340.68 257.5,338.5 Z"/></g>
<g><path style="opacity:1" fill="#2a211f" d="M 291.5,386.5 C 317.616,386.676 343.616,388.509 369.5,392C 373.424,392.26 377.091,393.26 380.5,395C 366.863,396.454 353.196,397.62 339.5,398.5C 338.727,405.547 337.561,412.547 336,419.5C 332.79,431.025 325.29,437.858 313.5,440C 306.5,440.667 299.5,440.667 292.5,440C 280.729,437.863 273.229,431.03 270,419.5C 268.439,412.547 267.273,405.547 266.5,398.5C 252.769,397.756 239.102,396.589 225.5,395C 230.615,393.054 235.949,391.721 241.5,391C 258.32,389.488 274.986,387.988 291.5,386.5 Z"/></g>
<g><path style="opacity:1" fill="#e86675" d="M 290.5,388.5 C 299.173,388.334 307.84,388.5 316.5,389C 321.206,389.123 325.372,390.623 329,393.5C 330.531,406.123 328.531,418.123 323,429.5C 315.665,437.943 306.498,440.777 295.5,438C 291.103,436.383 287.269,433.883 284,430.5C 278.008,419.215 275.675,407.215 277,394.5C 280.759,390.643 285.259,388.643 290.5,388.5 Z"/></g>
<g><path style="opacity:1" fill="#cdb39a" d="M 94.5,474.5 C 91.5058,477.329 88.1725,479.663 84.5,481.5C 83.3527,481.182 82.5194,480.516 82,479.5C 81.3333,473.5 81.3333,467.5 82,461.5C 83.6627,449.88 84.8294,438.213 85.5,426.5C 88.4245,426.54 91.0912,425.707 93.5,424C 97.8333,419.667 102.167,415.333 106.5,411C 108.976,408.429 111.976,406.929 115.5,406.5C 115.579,409.271 115.079,411.937 114,414.5C 104.429,433.542 97.9294,453.542 94.5,474.5 Z"/></g>
<g><path style="opacity:1" fill="#c9af97" d="M 117.5,490.5 C 116.551,483.753 115.217,477.086 113.5,470.5C 113.389,469.883 113.056,469.383 112.5,469C 114.667,465.5 116.833,462 119,458.5C 120.333,457.167 121.667,457.167 123,458.5C 123.667,461.5 123.667,464.5 123,467.5C 121.46,475.397 119.627,483.064 117.5,490.5 Z"/></g>
<g><path style="opacity:1" fill="#cab097" d="M 487.5,471.5 C 485.016,478.592 483.682,485.925 483.5,493.5C 482.883,493.611 482.383,493.944 482,494.5C 480.848,485.407 479.181,476.407 477,467.5C 476.333,464.5 476.333,461.5 477,458.5C 478.333,457.167 479.667,457.167 481,458.5C 483.726,462.619 485.893,466.952 487.5,471.5 Z"/></g>
<g><path style="opacity:1" fill="#ceb49b" d="M 179.5,505.5 C 181.017,513.407 181.684,521.407 181.5,529.5C 180.996,534.597 180.163,539.597 179,544.5C 171.07,538.407 165.237,530.74 161.5,521.5C 161.406,512.274 164.073,503.774 169.5,496C 170.833,495.333 172.167,495.333 173.5,496C 175.417,499.307 177.417,502.473 179.5,505.5 Z"/></g>
<g><path style="opacity:1" fill="#c8af96" d="M 439.5,522.5 C 435.819,531.521 429.985,538.854 422,544.5C 420.726,540.015 420.059,535.348 420,530.5C 419.722,529.584 419.222,528.918 418.5,528.5C 418.398,521.049 419.065,513.715 420.5,506.5C 422.423,503.243 424.257,499.91 426,496.5C 427.388,495.446 428.888,495.28 430.5,496C 432.377,498.251 433.877,500.751 435,503.5C 437.227,509.678 438.727,516.011 439.5,522.5 Z"/></g>
<g><path style="opacity:1" fill="#c9b097" d="M 138.5,506.5 C 136.679,510.812 134.846,515.145 133,519.5C 131.736,521.607 129.903,522.607 127.5,522.5C 129.13,514.907 132.13,507.907 136.5,501.5C 137.325,500.614 138.325,500.281 139.5,500.5C 139.675,502.621 139.341,504.621 138.5,506.5 Z"/></g>
<g><path style="opacity:1" fill="#c7ae95" d="M 471.5,522.5 C 467.154,517.148 463.821,511.148 461.5,504.5C 460.766,503.292 460.433,501.959 460.5,500.5C 461.822,500.33 462.989,500.663 464,501.5C 467.569,508.138 470.735,514.971 473.5,522C 472.906,522.464 472.239,522.631 471.5,522.5 Z"/></g>
<g><path style="opacity:1" fill="#cdb39b" d="M 244.5,556.5 C 243.504,556.414 242.671,556.748 242,557.5C 241.503,559.81 241.337,562.143 241.5,564.5C 238.579,564.717 235.913,564.051 233.5,562.5C 231.627,552.367 230.96,542.201 231.5,532C 232.635,531.251 233.635,531.417 234.5,532.5C 238.035,540.443 241.368,548.443 244.5,556.5 Z"/></g>
<g><path style="opacity:1" fill="#ceb49b" d="M 365.5,563.5 C 360.222,565.348 358.056,563.348 359,557.5C 357.989,556.663 356.822,556.33 355.5,556.5C 358.632,548.443 361.965,540.443 365.5,532.5C 366.365,531.417 367.365,531.251 368.5,532C 369.127,533.738 369.46,535.571 369.5,537.5C 368.957,546.449 367.624,555.116 365.5,563.5 Z"/></g>
<g><path style="opacity:1" fill="#ccb29a" d="M 310.5,570.5 C 303.47,571.8 296.47,571.8 289.5,570.5C 296.5,543.833 303.5,543.833 310.5,570.5 Z"/></g>
</svg>
