<?xml version="1.0" encoding="UTF-8"?>
<!DOCTYPE svg PUBLIC "-//W3C//DTD SVG 1.1//EN" "http://www.w3.org/Graphics/SVG/1.1/DTD/svg11.dtd">
<svg xmlns="http://www.w3.org/2000/svg" version="1.1" width="600px" height="600px" style="shape-rendering:geometricPrecision; text-rendering:geometricPrecision; image-rendering:optimizeQuality; fill-rule:evenodd; clip-rule:evenodd" xmlns:xlink="http://www.w3.org/1999/xlink">
<g><path style="opacity:0.962" fill="#020100" d="M 211.5,-0.5 C 232.5,-0.5 253.5,-0.5 274.5,-0.5C 283.865,3.59293 293.365,7.59293 303,11.5C 311.971,7.59431 320.804,3.59431 329.5,-0.5C 352.167,-0.5 374.833,-0.5 397.5,-0.5C 454.174,25.3449 494.007,67.3449 517,125.5C 537.818,181.925 548.484,240.259 549,300.5C 555.681,315.553 560.347,331.22 563,347.5C 563.818,353.902 563.484,360.235 562,366.5C 558.568,371.627 553.734,373.627 547.5,372.5C 550.4,384.338 552.4,396.338 553.5,408.5C 552.794,417.229 551.627,425.896 550,434.5C 544.743,457.45 539.743,480.45 535,503.5C 532.588,507.413 529.088,509.413 524.5,509.5C 526.491,517.439 525.491,524.939 521.5,532C 519.559,533.903 517.226,534.736 514.5,534.5C 516.141,551.794 518.474,568.961 521.5,586C 520.667,590.85 519,595.35 516.5,599.5C 501.833,599.5 487.167,599.5 472.5,599.5C 459.806,588.635 448.639,576.302 439,562.5C 426.274,544.389 415.608,525.056 407,504.5C 400.221,483.383 396.888,461.716 397,439.5C 395.78,448.774 395.113,458.107 395,467.5C 393.348,490.956 384.515,511.123 368.5,528C 356.623,537.765 342.957,543.432 327.5,545C 315.144,544.931 302.811,545.098 290.5,545.5C 248.834,544.338 223.667,523.338 215,482.5C 213.439,474.908 212.439,467.241 212,459.5C 210.547,485.317 203.213,509.317 190,531.5C 178.948,551.547 165.948,570.214 151,587.5C 146.306,591.365 141.806,595.365 137.5,599.5C 128.5,599.5 119.5,599.5 110.5,599.5C 110.167,598.167 109.833,598.167 109.5,599.5C 103.167,599.5 96.8333,599.5 90.5,599.5C 88.2468,595.162 86.9134,590.496 86.5,585.5C 89.5687,568.618 91.5687,551.618 92.5,534.5C 88.4384,534.276 85.605,532.276 84,528.5C 82.6827,522.243 82.1827,515.909 82.5,509.5C 77.1226,509.288 73.6226,506.622 72,501.5C 66.5086,475.868 61.1753,450.201 56,424.5C 53.5931,406.843 55.0931,389.509 60.5,372.5C 49.2136,373.323 43.5469,367.99 43.5,356.5C 45.9907,337.536 50.8241,319.203 58,301.5C 58.6752,248.44 66.3418,196.44 81,145.5C 94.637,98.9265 119.804,60.0932 156.5,29C 173.431,16.5349 191.764,6.70154 211.5,-0.5 Z"/></g>
<g><path style="opacity:1" fill="#b38648" d="M 436.5,242.5 C 441.73,221.513 445.897,200.179 449,178.5C 450.242,158.62 447.575,139.286 441,120.5C 432.511,110.012 423.345,100.179 413.5,91C 405.422,84.1285 396.089,80.2951 385.5,79.5C 375.932,80.5373 368.099,84.8706 362,92.5C 352.552,109.063 343.885,126.063 336,143.5C 331.313,151.858 325.48,159.358 318.5,166C 310.185,171.152 301.518,171.819 292.5,168C 282.749,160.658 275.249,151.491 270,140.5C 262.831,122.943 254.164,106.277 244,90.5C 234.478,79.6599 222.978,76.8265 209.5,82C 191.854,91.643 177.354,104.81 166,121.5C 159.073,142.363 157.073,163.697 160,185.5C 162.771,204.854 166.604,223.854 171.5,242.5C 174.769,257.103 177.936,271.769 181,286.5C 186.627,326.557 192.627,366.557 199,406.5C 203.354,436.473 202.021,466.14 195,495.5C 181.402,529.885 161.902,560.385 136.5,587C 132.295,590.602 127.628,593.436 122.5,595.5C 121.558,595.392 120.725,595.059 120,594.5C 119.501,588.509 119.334,582.509 119.5,576.5C 117.692,576.491 116.025,576.991 114.5,578C 109.934,582.476 105.601,587.143 101.5,592C 99.892,592.658 98.7253,592.158 98,590.5C 97.3333,585.833 97.3333,581.167 98,576.5C 102.32,555.035 103.987,533.368 103,511.5C 102,510.167 101,510.167 100,511.5C 98.0668,515.802 96.2334,520.136 94.5,524.5C 93.6673,511.513 93.1673,498.513 93,485.5C 92,484.167 91,484.167 90,485.5C 87.7236,490.392 85.2236,495.059 82.5,499.5C 77.3347,475.505 72.168,451.505 67,427.5C 65.5481,416.536 65.2148,405.536 66,394.5C 67.8422,385.465 69.8422,376.465 72,367.5C 73.3994,353.475 68.8994,351.641 58.5,362C 57.2161,362.684 56.0495,362.517 55,361.5C 55.3185,340.862 59.9852,321.195 69,302.5C 68.8245,249.738 76.1578,198.072 91,147.5C 103.081,107.809 123.914,73.6419 153.5,45C 174.101,26.8624 197.768,14.1958 224.5,7C 242.647,3.76909 260.314,5.43576 277.5,12C 285.744,16.2082 294.244,19.7082 303,22.5C 314.195,17.8212 325.362,12.9879 336.5,8C 354.168,2.14311 371.835,2.14311 389.5,8C 430.61,24.9573 463.11,52.124 487,89.5C 511.713,132.641 527.047,178.974 533,228.5C 536.353,252.717 538.02,277.05 538,301.5C 547.51,320.028 552.51,339.695 553,360.5C 552.612,361.428 551.945,362.095 551,362.5C 547.177,360.015 543.344,357.515 539.5,355C 537.633,354.289 536.133,354.789 535,356.5C 534.333,359.5 534.333,362.5 535,365.5C 537.962,376.716 540.296,388.049 542,399.5C 542.701,410.574 542.035,421.574 540,432.5C 534.689,454.366 530.022,476.366 526,498.5C 525.333,499.833 524.667,499.833 524,498.5C 521.923,494.088 519.756,489.754 517.5,485.5C 516.675,484.614 515.675,484.281 514.5,484.5C 514.833,497.85 514.499,511.183 513.5,524.5C 511.48,519.281 508.98,514.281 506,509.5C 504.956,510.623 504.29,511.956 504,513.5C 503.911,535.341 505.911,557.007 510,578.5C 510.667,582.5 510.667,586.5 510,590.5C 508.412,592.968 506.578,593.134 504.5,591C 501.308,586.296 497.642,581.962 493.5,578C 491.975,576.991 490.308,576.491 488.5,576.5C 488.869,582.513 489.036,588.513 489,594.5C 488.439,595.022 487.772,595.355 487,595.5C 477.573,591.085 469.573,584.752 463,576.5C 445.332,555.189 430.665,531.856 419,506.5C 412.901,492.491 409.568,477.824 409,462.5C 408.146,443.807 408.479,425.14 410,406.5C 414.576,372.135 419.243,337.802 424,303.5C 427.463,283.016 431.63,262.683 436.5,242.5 Z"/></g>
<g><path style="opacity:1" fill="#56462e" d="M 436.5,242.5 C 436.565,242.062 436.399,241.728 436,241.5C 424.88,256.415 417.547,273.082 414,291.5C 404.76,341.175 395.427,390.842 386,440.5C 385.631,452.54 384.798,464.54 383.5,476.5C 374.616,467.095 365.949,457.428 357.5,447.5C 350.218,426.988 335.552,415.822 313.5,414C 298.432,412.02 284.098,414.353 270.5,421C 253.132,432.917 245.965,449.417 249,470.5C 250.381,482.604 255.881,492.271 265.5,499.5C 273.839,511.686 283.173,523.186 293.5,534C 290.854,534.497 288.187,534.664 285.5,534.5C 259.02,533.525 240.52,520.858 230,496.5C 223.631,477.024 220.631,457.024 221,436.5C 211.427,385.823 201.76,335.157 192,284.5C 188.588,268.678 181.754,254.678 171.5,242.5C 166.604,223.854 162.771,204.854 160,185.5C 157.073,163.697 159.073,142.363 166,121.5C 177.354,104.81 191.854,91.643 209.5,82C 222.978,76.8265 234.478,79.6599 244,90.5C 254.164,106.277 262.831,122.943 270,140.5C 275.249,151.491 282.749,160.658 292.5,168C 301.518,171.819 310.185,171.152 318.5,166C 325.48,159.358 331.313,151.858 336,143.5C 343.885,126.063 352.552,109.063 362,92.5C 368.099,84.8706 375.932,80.5373 385.5,79.5C 396.089,80.2951 405.422,84.1285 413.5,91C 423.345,100.179 432.511,110.012 441,120.5C 447.575,139.286 450.242,158.62 449,178.5C 445.897,200.179 441.73,221.513 436.5,242.5 Z"/></g>
<g><path style="opacity:1" fill="#282727" d="M 212.5,128.5 C 240.732,128.561 253.899,142.561 252,170.5C 245.424,190.548 231.591,199.048 210.5,196C 190.874,188.594 182.707,174.428 186,153.5C 190.514,140.483 199.347,132.15 212.5,128.5 Z"/></g>
<g><path style="opacity:1" fill="#282727" d="M 382.5,128.5 C 410.732,128.561 423.899,142.561 422,170.5C 415.424,190.548 401.591,199.048 380.5,196C 361.761,189.034 353.261,175.534 355,155.5C 359.48,141.518 368.647,132.518 382.5,128.5 Z"/></g>
<g><path style="opacity:1" fill="#ececec" d="M 226.5,144.5 C 234.955,143.461 239.122,147.128 239,155.5C 236.549,161.089 232.383,162.922 226.5,161C 219.87,155.55 219.87,150.05 226.5,144.5 Z"/></g>
<g><path style="opacity:1" fill="#ececec" d="M 396.5,144.5 C 405.825,143.327 409.992,147.327 409,156.5C 406.058,161.153 401.891,162.653 396.5,161C 389.899,155.504 389.899,150.004 396.5,144.5 Z"/></g>
<g><path style="opacity:1" fill="#282727" d="M 357.5,447.5 C 363.968,479.071 351.968,499.905 321.5,510C 301.214,514.758 282.547,511.258 265.5,499.5C 255.881,492.271 250.381,482.604 249,470.5C 245.965,449.417 253.132,432.917 270.5,421C 284.098,414.353 298.432,412.02 313.5,414C 335.552,415.822 350.218,426.988 357.5,447.5 Z"/></g>
<g><path style="opacity:1" fill="#473924" d="M 357.5,447.5 C 365.949,457.428 374.616,467.095 383.5,476.5C 377.219,513.783 355.219,533.449 317.5,535.5C 306.668,534.722 296.002,534.389 285.5,534.5C 288.187,534.664 290.854,534.497 293.5,534C 283.173,523.186 273.839,511.686 265.5,499.5C 282.547,511.258 301.214,514.758 321.5,510C 351.968,499.905 363.968,479.071 357.5,447.5 Z"/></g>
</svg>
