<?xml version="1.0" encoding="UTF-8"?>
<!DOCTYPE svg PUBLIC "-//W3C//DTD SVG 1.1//EN" "http://www.w3.org/Graphics/SVG/1.1/DTD/svg11.dtd">
<svg xmlns="http://www.w3.org/2000/svg" version="1.1" width="600px" height="600px" style="shape-rendering:geometricPrecision; text-rendering:geometricPrecision; image-rendering:optimizeQuality; fill-rule:evenodd; clip-rule:evenodd" xmlns:xlink="http://www.w3.org/1999/xlink">
<g><path style="opacity:0.977" fill="#020100" d="M 230.5,-0.5 C 238.5,-0.5 246.5,-0.5 254.5,-0.5C 267.979,7.08038 275.479,18.747 277,34.5C 278.081,43.1346 278.581,51.8013 278.5,60.5C 292.833,60.5 307.167,60.5 321.5,60.5C 320.508,43.6277 323.675,27.6277 331,12.5C 335.503,7.14586 340.669,2.81252 346.5,-0.5C 354.167,-0.5 361.833,-0.5 369.5,-0.5C 418.193,8.56598 464.526,24.7326 508.5,48C 518.948,53.7166 524.782,62.55 526,74.5C 526.239,93.6469 523.239,112.314 517,130.5C 510.257,151.062 502.924,171.395 495,191.5C 491.356,202.742 488.023,214.076 485,225.5C 481.105,259.886 476.772,294.219 472,328.5C 468.629,351.561 464.129,374.395 458.5,397C 465.442,412.491 469.942,428.658 472,445.5C 473.433,458.572 471.1,470.905 465,482.5C 460.686,488.861 454.853,491.194 447.5,489.5C 447.29,498.057 445.124,506.057 441,513.5C 431.259,527.243 420.093,539.743 407.5,551C 403.796,553.852 399.796,556.185 395.5,558C 392.344,558.603 389.344,558.103 386.5,556.5C 381.277,563.219 374.944,568.719 367.5,573C 352.624,580.438 337.29,586.771 321.5,592C 317.106,593.582 313.439,596.082 310.5,599.5C 303.5,599.5 296.5,599.5 289.5,599.5C 286.561,596.082 282.894,593.582 278.5,592C 262.71,586.771 247.376,580.438 232.5,573C 225.056,568.719 218.723,563.219 213.5,556.5C 210.656,558.103 207.656,558.603 204.5,558C 194.209,552.388 185.043,545.222 177,536.5C 169.939,528.706 163.605,520.372 158,511.5C 154.096,504.685 152.596,497.352 153.5,489.5C 145.806,491.363 139.64,489.029 135,482.5C 127.959,468.543 125.959,453.876 129,438.5C 131.558,424.162 135.724,410.328 141.5,397C 136.192,373.321 131.692,349.487 128,325.5C 123.447,291.521 119.114,257.521 115,223.5C 103.732,188.363 92.0656,153.363 80,118.5C 75.0432,102.782 73.3766,86.7816 75,70.5C 76.7399,63.8508 79.9066,58.0174 84.5,53C 130.19,26.9376 178.857,9.10431 230.5,-0.5 Z"/></g>
<g><path style="opacity:1" fill="#935d33" d="M 254.5,13.5 C 228.537,41.0952 212.37,73.7618 206,111.5C 204.329,125.881 202.329,140.214 200,154.5C 199.177,158.664 197.01,161.831 193.5,164C 183.32,165.372 173.653,163.706 164.5,159C 136.2,144.034 113.7,122.867 97,95.5C 90.6549,85.9907 88.1549,75.6573 89.5,64.5C 90.5914,61.5722 92.5914,59.4055 95.5,58C 138.546,34.6505 184.213,18.6505 232.5,10C 238.833,9.33333 245.167,9.33333 251.5,10C 253.426,10.4224 254.426,11.5891 254.5,13.5 Z"/></g>
<g><path style="opacity:1" fill="#935d34" d="M 512.5,65.5 C 512.203,77.236 508.703,88.236 502,98.5C 485.199,125.303 462.699,145.803 434.5,160C 427.735,162.755 420.735,164.589 413.5,165.5C 406.824,165.326 402.657,161.992 401,155.5C 398.294,139.894 395.961,124.227 394,108.5C 387.291,71.7433 371.124,40.0766 345.5,13.5C 345.574,11.5891 346.574,10.4224 348.5,10C 354.5,9.33333 360.5,9.33333 366.5,10C 414.637,18.4899 460.303,34.1566 503.5,57C 507,59.3342 510,62.1675 512.5,65.5 Z"/></g>
<g><path style="opacity:1" fill="#bc925c" d="M 319.5,71.5 C 317.801,71.3398 316.134,71.5065 314.5,72C 338.333,95.8333 362.167,119.667 386,143.5C 386.483,142.552 386.649,141.552 386.5,140.5C 387.861,148.793 389.695,157.126 392,165.5C 396.91,173.424 404.077,177.091 413.5,176.5C 436.112,174.193 455.779,165.36 472.5,150C 487.907,136.606 501.074,121.439 512,104.5C 512.654,103.304 513.154,103.304 513.5,104.5C 501.103,142.859 488.603,181.192 476,219.5C 471.47,253.127 467.137,286.794 463,320.5C 460.127,340.697 456.294,360.697 451.5,380.5C 436.299,356.121 417.299,334.955 394.5,317C 360.333,292.79 322.333,282.624 280.5,286.5C 268.833,274.167 256.833,262.167 244.5,250.5C 250.908,239.287 251.075,227.954 245,216.5C 233.136,203.917 219.97,202.25 205.5,211.5C 192.833,198.5 180.167,185.5 167.5,172.5C 178.819,177.336 190.152,177.502 201.5,173C 203.667,170.833 205.833,168.667 208,166.5C 209.975,160.6 211.642,154.6 213,148.5C 213.659,99.8045 230.325,57.8045 263,22.5C 264.954,26.9809 266.287,31.6475 267,36.5C 267.944,47.8525 268.778,59.1858 269.5,70.5C 286.305,70.3676 302.972,70.7009 319.5,71.5 Z"/></g>
<g><path style="opacity:1" fill="#cda065" d="M 386.5,140.5 C 386.649,141.552 386.483,142.552 386,143.5C 362.167,119.667 338.333,95.8333 314.5,72C 316.134,71.5065 317.801,71.3398 319.5,71.5C 323.437,71.7935 327.27,71.4601 331,70.5C 331.492,59.4893 332.158,48.4893 333,37.5C 333.699,33.035 334.866,28.7016 336.5,24.5C 337.002,23.479 337.668,23.3123 338.5,24C 360.324,45.4699 374.491,71.3033 381,101.5C 383.815,114.369 385.648,127.369 386.5,140.5 Z"/></g>
<g><path style="opacity:1" fill="#cfa166" d="M 167.5,172.5 C 180.167,185.5 192.833,198.5 205.5,211.5C 194.398,222.271 192.565,234.604 200,248.5C 214.189,263.59 229.023,264.256 244.5,250.5C 256.833,262.167 268.833,274.167 280.5,286.5C 247.85,291.313 219.183,304.48 194.5,326C 176.309,342.175 161.142,360.675 149,381.5C 144.778,362.619 141.112,343.619 138,324.5C 133.748,290.151 129.415,255.818 125,221.5C 122.155,211.121 119.155,200.788 116,190.5C 104.273,161.82 94.4399,132.487 86.5,102.5C 98.2097,118.719 112.21,134.552 128.5,150C 139.985,160.077 152.985,167.577 167.5,172.5 Z"/></g>
<g><path style="opacity:1" fill="#aa8251" d="M 345.5,13.5 C 371.124,40.0766 387.291,71.7433 394,108.5C 395.961,124.227 398.294,139.894 401,155.5C 402.657,161.992 406.824,165.326 413.5,165.5C 420.735,164.589 427.735,162.755 434.5,160C 462.699,145.803 485.199,125.303 502,98.5C 508.703,88.236 512.203,77.236 512.5,65.5C 513.861,71.9064 513.361,78.2398 511,84.5C 494.659,117.174 470.492,142.341 438.5,160C 428.979,164.548 418.979,166.548 408.5,166C 403.667,165.167 400.833,162.333 400,157.5C 397.164,138.813 394.164,120.147 391,101.5C 384.435,69.3616 369.768,41.695 347,18.5C 346.293,16.9194 345.46,15.4194 344.5,14C 344.728,13.6012 345.062,13.4346 345.5,13.5 Z"/></g>
<g><path style="opacity:1" fill="#a88150" d="M 254.5,13.5 C 256.646,13.6964 256.812,14.6964 255,16.5C 231.276,41.2748 215.943,70.6081 209,104.5C 206.187,121.817 203.521,139.15 201,156.5C 198.053,164.721 192.22,167.888 183.5,166C 164.883,162.524 148.549,154.524 134.5,142C 119.756,129.269 107.256,114.769 97,98.5C 91.42,90.172 88.2534,81.0054 87.5,71C 87.6667,69.1667 87.8333,67.3333 88,65.5C 88.3826,64.944 88.8826,64.6107 89.5,64.5C 88.1549,75.6573 90.6549,85.9907 97,95.5C 113.7,122.867 136.2,144.034 164.5,159C 173.653,163.706 183.32,165.372 193.5,164C 197.01,161.831 199.177,158.664 200,154.5C 202.329,140.214 204.329,125.881 206,111.5C 212.37,73.7618 228.537,41.0952 254.5,13.5 Z"/></g>
<g><path style="opacity:1" fill="#342b28" d="M 371.5,205.5 C 394.889,205.052 405.722,216.385 404,239.5C 397.967,256.271 386.134,262.771 368.5,259C 354.709,252.592 348.876,241.758 351,226.5C 354.016,215.652 360.849,208.652 371.5,205.5 Z"/></g>
<g><path style="opacity:1" fill="#372e2b" d="M 244.5,250.5 C 229.023,264.256 214.189,263.59 200,248.5C 192.565,234.604 194.398,222.271 205.5,211.5C 219.97,202.25 233.136,203.917 245,216.5C 251.075,227.954 250.908,239.287 244.5,250.5 Z"/></g>
<g><path style="opacity:1" fill="#f2f2f2" d="M 230.5,219.5 C 236.293,220.421 237.626,223.255 234.5,228C 229,229.167 226.833,227 228,221.5C 228.995,220.934 229.828,220.267 230.5,219.5 Z"/></g>
<g><path style="opacity:1" fill="#ededed" d="M 386.5,219.5 C 392.263,219.783 393.93,222.616 391.5,228C 383.208,228.89 381.542,226.057 386.5,219.5 Z"/></g>
<g><path style="opacity:1" fill="#aa8554" d="M 312.5,296.5 C 301.152,296.445 289.819,296.778 278.5,297.5C 285.448,296.074 292.614,295.408 300,295.5C 304.347,295.501 308.514,295.834 312.5,296.5 Z"/></g>
<g><path style="opacity:1" fill="#a68353" d="M 313.5,296.5 C 319.791,296.495 325.791,297.495 331.5,299.5C 325.291,298.987 319.291,297.987 313.5,296.5 Z"/></g>
<g><path style="opacity:1" fill="#f0d597" d="M 312.5,296.5 C 312.833,296.5 313.167,296.5 313.5,296.5C 319.291,297.987 325.291,298.987 331.5,299.5C 341.051,301.128 350.051,304.128 358.5,308.5C 362.182,311.008 366.182,313.008 370.5,314.5C 374.323,317.916 378.657,320.582 383.5,322.5C 387.795,326.647 392.462,330.313 397.5,333.5C 400.427,334.757 402.761,336.757 404.5,339.5C 406.167,341.833 408.167,343.833 410.5,345.5C 413.436,350.105 417.102,354.105 421.5,357.5C 426.179,362.018 430.346,367.018 434,372.5C 436.446,376.394 438.612,380.394 440.5,384.5C 441.742,388.655 443.742,392.322 446.5,395.5C 452.254,407.587 456.754,420.253 460,433.5C 463.628,446.297 463.295,458.964 459,471.5C 457.421,475.36 454.921,478.36 451.5,480.5C 448.906,479.408 446.739,477.741 445,475.5C 442.412,471.326 440.079,466.993 438,462.5C 437.282,461.549 436.449,461.383 435.5,462C 434.852,467.752 434.852,473.585 435.5,479.5C 435.665,482.85 435.498,486.183 435,489.5C 410.916,464.914 386.416,440.914 361.5,417.5C 359.487,404.315 352.154,395.482 339.5,391C 332.057,388.311 324.391,386.645 316.5,386C 302.393,384.878 288.393,385.545 274.5,388C 249.503,394.504 239.67,410.337 245,435.5C 250.504,447.835 259.004,457.501 270.5,464.5C 301.75,496.251 333.25,527.917 365,559.5C 365.464,560.094 365.631,560.761 365.5,561.5C 360.887,564.812 355.887,567.646 350.5,570C 337.007,574.942 323.674,580.275 310.5,586C 306.542,588.234 303.042,591.067 300,594.5C 296.958,591.067 293.458,588.234 289.5,586C 276.326,580.275 262.993,574.942 249.5,570C 242.011,566.759 235.011,562.759 228.5,558C 225.727,555.617 223.561,552.783 222,549.5C 220.385,541.998 218.385,534.665 216,527.5C 214.615,528.551 213.615,529.884 213,531.5C 212.021,536.895 210.855,542.228 209.5,547.5C 207.801,547.66 206.134,547.494 204.5,547C 189.539,535.708 177.039,522.208 167,506.5C 164.069,501.053 162.903,495.22 163.5,489C 164.129,480.147 164.629,471.314 165,462.5C 164,461.167 163,461.167 162,462.5C 159.623,468.762 156.123,474.262 151.5,479C 149.432,479.687 147.432,479.52 145.5,478.5C 141.994,474.485 139.827,469.819 139,464.5C 137.687,451.63 138.687,438.964 142,426.5C 144.819,416.872 148.319,407.538 152.5,398.5C 170.863,362.802 197.196,334.469 231.5,313.5C 233.579,311.127 236.246,309.794 239.5,309.5C 246.667,307.075 253.667,304.409 260.5,301.5C 266.191,299.293 272.191,297.959 278.5,297.5C 289.819,296.778 301.152,296.445 312.5,296.5 Z"/></g>
<g><path style="opacity:1" fill="#c19660" d="M 260.5,301.5 C 253.667,304.409 246.667,307.075 239.5,309.5C 245.906,305.471 252.906,302.804 260.5,301.5 Z"/></g>
<g><path style="opacity:1" fill="#a58152" d="M 358.5,308.5 C 363.086,309.46 367.086,311.46 370.5,314.5C 366.182,313.008 362.182,311.008 358.5,308.5 Z"/></g>
<g><path style="opacity:1" fill="#a88455" d="M 370.5,314.5 C 375.368,316.382 379.701,319.048 383.5,322.5C 378.657,320.582 374.323,317.916 370.5,314.5 Z"/></g>
<g><path style="opacity:1" fill="#a98556" d="M 383.5,322.5 C 388.901,325.204 393.568,328.871 397.5,333.5C 392.462,330.313 387.795,326.647 383.5,322.5 Z"/></g>
<g><path style="opacity:1" fill="#a17e4f" d="M 404.5,339.5 C 407.5,340.5 409.5,342.5 410.5,345.5C 408.167,343.833 406.167,341.833 404.5,339.5 Z"/></g>
<g><path style="opacity:1" fill="#b08d5c" d="M 410.5,345.5 C 414.898,348.895 418.564,352.895 421.5,357.5C 417.102,354.105 413.436,350.105 410.5,345.5 Z"/></g>
<g><path style="opacity:1" fill="#c29861" d="M 231.5,313.5 C 197.196,334.469 170.863,362.802 152.5,398.5C 168.04,364.447 191.706,337.28 223.5,317C 226.071,315.546 228.738,314.38 231.5,313.5 Z"/></g>
<g><path style="opacity:1" fill="#050403" d="M 361.5,417.5 C 362.7,431.42 358.533,443.42 349,453.5C 332.557,469.311 313.057,475.811 290.5,473C 283.518,470.842 276.851,468.008 270.5,464.5C 259.004,457.501 250.504,447.835 245,435.5C 239.67,410.337 249.503,394.504 274.5,388C 288.393,385.545 302.393,384.878 316.5,386C 324.391,386.645 332.057,388.311 339.5,391C 352.154,395.482 359.487,404.315 361.5,417.5 Z"/></g>
<g><path style="opacity:1" fill="#a88555" d="M 440.5,384.5 C 443.258,387.678 445.258,391.345 446.5,395.5C 443.742,392.322 441.742,388.655 440.5,384.5 Z"/></g>
<g><path style="opacity:1" fill="#362e2a" d="M 288.5,395.5 C 300.21,395.168 311.876,395.668 323.5,397C 333.228,398.778 341.394,403.278 348,410.5C 353.252,421.394 352.252,431.727 345,441.5C 321.289,468.58 295.455,471.08 267.5,449C 256.361,439.909 252.194,428.409 255,414.5C 260.195,405.974 267.695,400.474 277.5,398C 281.312,397.205 284.979,396.371 288.5,395.5 Z"/></g>
<g><path style="opacity:1" fill="#dac189" d="M 361.5,417.5 C 386.416,440.914 410.916,464.914 435,489.5C 435.498,486.183 435.665,482.85 435.5,479.5C 436.654,485.987 436.821,492.654 436,499.5C 428.048,514.864 417.548,528.364 404.5,540C 400.916,543.416 396.916,546.249 392.5,548.5C 391.201,547.91 390.368,546.91 390,545.5C 388.872,540.861 387.872,536.195 387,531.5C 386.385,529.884 385.385,528.551 384,527.5C 381.669,535.448 379.336,543.448 377,551.5C 374.232,556.104 370.399,559.438 365.5,561.5C 365.631,560.761 365.464,560.094 365,559.5C 333.25,527.917 301.75,496.251 270.5,464.5C 276.851,468.008 283.518,470.842 290.5,473C 313.057,475.811 332.557,469.311 349,453.5C 358.533,443.42 362.7,431.42 361.5,417.5 Z"/></g>
</svg>
