<?xml version="1.0" encoding="UTF-8"?>
<!DOCTYPE svg PUBLIC "-//W3C//DTD SVG 1.1//EN" "http://www.w3.org/Graphics/SVG/1.1/DTD/svg11.dtd">
<svg xmlns="http://www.w3.org/2000/svg" version="1.1" width="600px" height="600px" style="shape-rendering:geometricPrecision; text-rendering:geometricPrecision; image-rendering:optimizeQuality; fill-rule:evenodd; clip-rule:evenodd" xmlns:xlink="http://www.w3.org/1999/xlink">
<g><path style="opacity:0.947" fill="#030303" d="M 112.5,8.5 C 124.991,9.58116 136.324,13.7478 146.5,21C 168.829,38.7034 189.829,58.0368 209.5,79C 212.954,81.8973 216.954,83.0639 221.5,82.5C 238.856,79.8624 256.19,77.0291 273.5,74C 293.167,72 312.833,72 332.5,74C 347.566,76.2798 362.566,78.9464 377.5,82C 384.318,83.4024 390.652,82.4024 396.5,79C 412.56,62.2714 429.227,46.2714 446.5,31C 455.719,23.4504 465.719,17.1171 476.5,12C 497.089,5.53007 513.256,11.3634 525,29.5C 534.768,49.33 540.102,70.33 541,92.5C 541.667,108.833 541.667,125.167 541,141.5C 538.753,171.058 535.919,200.558 532.5,230C 532.649,235.532 533.149,241.032 534,246.5C 540.567,275.003 546.234,303.67 551,332.5C 550.536,421.264 514.703,491.764 443.5,544C 353.923,604.049 263.257,605.716 171.5,549C 95.1116,497.738 56.2783,425.905 55,333.5C 59.1757,306.288 64.509,279.288 71,252.5C 72.3677,245.059 73.201,237.559 73.5,230C 70.9272,205.177 68.4272,180.344 66,155.5C 63.2455,124.691 64.2455,94.024 69,63.5C 71.5576,48.4812 77.2242,34.8145 86,22.5C 93.3025,14.7672 102.136,10.1006 112.5,8.5 Z"/></g>
<g><path style="opacity:1" fill="#ebebeb" d="M 537.5,321.5 C 533.403,315.568 528.403,310.401 522.5,306C 513.995,300.913 505.328,296.08 496.5,291.5C 496.167,291 495.833,290.5 495.5,290C 499.233,283.306 499.399,276.472 496,269.5C 490.02,258.182 481.853,248.682 471.5,241C 456.396,230.615 440.063,222.615 422.5,217C 415.97,211.902 408.97,207.569 401.5,204C 396.833,198.667 392.167,193.333 387.5,188C 367.442,172.873 347.608,173.04 328,188.5C 318.912,199.792 313.912,212.792 313,227.5C 309.815,236.849 304.148,238.849 296,233.5C 294.47,229.91 293.136,226.243 292,222.5C 291.065,193.9 276.399,178.9 248,177.5C 238.313,177.729 229.48,180.563 221.5,186C 214.833,192.667 208.167,199.333 201.5,206C 195.166,209.165 189.166,212.831 183.5,217C 157.959,224.18 136.125,237.347 118,256.5C 113.897,261.705 110.563,267.372 108,273.5C 106.964,279.338 107.798,284.838 110.5,290C 110.167,290.5 109.833,291 109.5,291.5C 100.672,296.08 92.0053,300.913 83.5,306C 78.3039,310.031 73.6373,314.531 69.5,319.5C 71.4112,295.776 75.5778,272.443 82,249.5C 82.9154,242.531 83.4154,235.531 83.5,228.5C 81.3299,202.472 78.8299,176.472 76,150.5C 75.1294,125.812 75.4627,101.145 77,76.5C 78.6653,59.812 83.9986,44.4787 93,30.5C 101.036,20.488 111.203,17.3213 123.5,21C 135.652,26.2396 146.652,33.2396 156.5,42C 171.471,55.9707 186.138,70.3041 200.5,85C 208.127,92.1584 217.127,94.825 227.5,93C 260.612,83.8535 294.279,80.8535 328.5,84C 347.205,86.9744 365.871,90.1411 384.5,93.5C 392.126,93.5189 398.793,91.0189 404.5,86C 422.962,66.1986 442.629,47.8652 463.5,31C 491.297,11.3079 511.13,17.4746 523,49.5C 530.35,77.3626 533.017,105.696 531,134.5C 529.782,160.99 527.116,187.323 523,213.5C 522.333,222.833 522.333,232.167 523,241.5C 529.317,267.915 534.15,294.581 537.5,321.5 Z"/></g>
<g><path style="opacity:1" fill="#f5f5f5" d="M 116.5,46.5 C 122.037,46.0866 127.37,46.9199 132.5,49C 147.173,58.3336 160.006,69.8336 171,83.5C 180.823,94.3207 189.489,105.987 197,118.5C 202.692,127.801 201.525,135.967 193.5,143C 168.199,165.966 143.199,189.3 118.5,213C 113.318,218.075 108.818,217.575 105,211.5C 102.044,204.114 100.044,196.447 99,188.5C 94.0428,152.892 93.3762,117.226 97,81.5C 98.1055,71.3051 101.439,61.9718 107,53.5C 109.529,50.1151 112.696,47.7818 116.5,46.5 Z"/></g>
<g><path style="opacity:1" fill="#f5f5f5" d="M 479.5,46.5 C 489.021,44.9443 496.187,48.2776 501,56.5C 506.838,69.1842 510.171,82.5176 511,96.5C 511.667,112.833 511.667,129.167 511,145.5C 509.626,162.531 507.96,179.531 506,196.5C 505,202.499 503,208.166 500,213.5C 495.774,217.417 491.607,217.25 487.5,213C 461.302,187.8 434.802,162.967 408,138.5C 405.095,133.349 404.762,128.015 407,122.5C 422.17,97.6538 440.67,75.4871 462.5,56C 467.647,51.7631 473.314,48.5965 479.5,46.5 Z"/></g>
<g><path style="opacity:1" fill="#f5f5f5" d="M 537.5,321.5 C 538.32,323.812 539.153,326.146 540,328.5C 542.694,379.893 529.861,426.893 501.5,469.5C 501.649,468.448 501.483,467.448 501,466.5C 484.167,449.667 467.333,432.833 450.5,416C 449.552,415.517 448.552,415.351 447.5,415.5C 443.007,411.635 438.007,410.801 432.5,413C 426.89,418.439 421.89,424.273 417.5,430.5C 396.731,411.232 376.397,391.399 356.5,371C 355.552,370.517 354.552,370.351 353.5,370.5C 344.531,360.518 333.198,355.018 319.5,354C 301.446,351.742 283.779,353.408 266.5,359C 249.199,368.772 244.366,382.938 252,401.5C 255.236,407.568 259.403,412.902 264.5,417.5C 264.351,418.552 264.517,419.552 265,420.5C 274.167,429.667 283.333,438.833 292.5,448C 291.748,448.671 291.414,449.504 291.5,450.5C 277.057,453.881 262.724,457.215 248.5,460.5C 226.816,463.067 208.982,456.067 195,439.5C 188.912,429.842 181.745,421.009 173.5,413C 164.364,409.97 158.698,413.137 156.5,422.5C 167.982,446.85 183.982,468.017 204.5,486C 220.697,498.19 235.697,511.857 249.5,527C 267.733,544.15 289.399,551.317 314.5,548.5C 324.416,556.747 333.75,565.747 342.5,575.5C 298.762,584.217 256.428,579.384 215.5,561C 153.164,532.665 108.331,487.165 81,424.5C 68.9627,393.943 63.9627,362.276 66,329.5C 66.8981,326.045 68.0647,322.711 69.5,319.5C 73.6373,314.531 78.3039,310.031 83.5,306C 92.0053,300.913 100.672,296.08 109.5,291.5C 109.833,291 110.167,290.5 110.5,290C 107.798,284.838 106.964,279.338 108,273.5C 110.563,267.372 113.897,261.705 118,256.5C 136.125,237.347 157.959,224.18 183.5,217C 189.166,212.831 195.166,209.165 201.5,206C 208.167,199.333 214.833,192.667 221.5,186C 229.48,180.563 238.313,177.729 248,177.5C 276.399,178.9 291.065,193.9 292,222.5C 293.136,226.243 294.47,229.91 296,233.5C 304.148,238.849 309.815,236.849 313,227.5C 313.912,212.792 318.912,199.792 328,188.5C 347.608,173.04 367.442,172.873 387.5,188C 392.167,193.333 396.833,198.667 401.5,204C 408.97,207.569 415.97,211.902 422.5,217C 440.063,222.615 456.396,230.615 471.5,241C 481.853,248.682 490.02,258.182 496,269.5C 499.399,276.472 499.233,283.306 495.5,290C 495.833,290.5 496.167,291 496.5,291.5C 505.328,296.08 513.995,300.913 522.5,306C 528.403,310.401 533.403,315.568 537.5,321.5 Z"/></g>
<g><path style="opacity:1" fill="#372f2c" d="M 218.5,270.5 C 234.324,268.718 247.824,273.385 259,284.5C 253.551,293.669 246.718,302.169 238.5,310C 231.219,315.315 223.052,317.815 214,317.5C 207.108,317.19 200.275,316.523 193.5,315.5C 191.62,300.001 196.62,286.835 208.5,276C 211.767,273.87 215.1,272.037 218.5,270.5 Z"/></g>
<g><path style="opacity:1" fill="#372f2d" d="M 371.5,270.5 C 384.754,268.181 395.587,272.181 404,282.5C 411.002,292.361 414.168,303.195 413.5,315C 398.781,319.219 384.448,318.219 370.5,312C 366.367,308.869 362.534,305.369 359,301.5C 355.816,296.47 352.149,291.804 348,287.5C 347.333,286.167 347.333,284.833 348,283.5C 354.682,276.913 362.516,272.579 371.5,270.5 Z"/></g>
<g><path style="opacity:1" fill="#ede3d8" d="M 228.5,281.5 C 235.225,281.204 236.891,283.871 233.5,289.5C 230.755,290.975 228.588,290.309 227,287.5C 226.252,285.16 226.752,283.16 228.5,281.5 Z"/></g>
<g><path style="opacity:1" fill="#ede4d9" d="M 388.5,281.5 C 395.896,281.615 397.23,284.448 392.5,290C 386.499,289.495 385.165,286.662 388.5,281.5 Z"/></g>
<g><path style="opacity:1" fill="#282727" d="M 353.5,370.5 C 360.397,387.614 357.064,402.447 343.5,415C 317.8,436.051 291.466,436.884 264.5,417.5C 259.403,412.902 255.236,407.568 252,401.5C 244.366,382.938 249.199,368.772 266.5,359C 283.779,353.408 301.446,351.742 319.5,354C 333.198,355.018 344.531,360.518 353.5,370.5 Z"/></g>
<g><path style="opacity:1" fill="#fefdfd" d="M 353.5,370.5 C 354.552,370.351 355.552,370.517 356.5,371C 376.397,391.399 396.731,411.232 417.5,430.5C 403.99,453.255 383.99,463.255 357.5,460.5C 343.324,458.624 329.324,455.79 315.5,452C 307.358,450.542 299.358,450.042 291.5,450.5C 291.414,449.504 291.748,448.671 292.5,448C 283.333,438.833 274.167,429.667 265,420.5C 264.517,419.552 264.351,418.552 264.5,417.5C 291.466,436.884 317.8,436.051 343.5,415C 357.064,402.447 360.397,387.614 353.5,370.5 Z"/></g>
<g><path style="opacity:1" fill="#292828" d="M 248.5,460.5 C 248.198,463.059 248.532,465.393 249.5,467.5C 249.736,486.111 253.903,503.778 262,520.5C 274.671,537.781 291.504,544.114 312.5,539.5C 330.007,537.482 341.84,528.149 348,511.5C 353.624,494.969 356.791,477.969 357.5,460.5C 383.99,463.255 403.99,453.255 417.5,430.5C 421.89,424.273 426.89,418.439 432.5,413C 438.007,410.801 443.007,411.635 447.5,415.5C 450.281,421.076 449.781,426.41 446,431.5C 434.948,450.062 421.448,466.729 405.5,481.5C 402.833,482.167 401.167,483.833 400.5,486.5C 393.282,492.469 385.948,498.469 378.5,504.5C 372.833,508.167 368.167,512.833 364.5,518.5C 351.137,534.174 334.471,544.174 314.5,548.5C 289.399,551.317 267.733,544.15 249.5,527C 235.697,511.857 220.697,498.19 204.5,486C 183.982,468.017 167.982,446.85 156.5,422.5C 158.698,413.137 164.364,409.97 173.5,413C 181.745,421.009 188.912,429.842 195,439.5C 208.982,456.067 226.816,463.067 248.5,460.5 Z"/></g>
<g><path style="opacity:1" fill="#fefefe" d="M 447.5,415.5 C 448.552,415.351 449.552,415.517 450.5,416C 467.333,432.833 484.167,449.667 501,466.5C 501.483,467.448 501.649,468.448 501.5,469.5C 462.652,524.871 410.152,560.538 344,576.5C 343.617,575.944 343.117,575.611 342.5,575.5C 333.75,565.747 324.416,556.747 314.5,548.5C 334.471,544.174 351.137,534.174 364.5,518.5C 369.5,514.167 374.167,509.5 378.5,504.5C 385.948,498.469 393.282,492.469 400.5,486.5C 402.5,485.167 404.167,483.5 405.5,481.5C 421.448,466.729 434.948,450.062 446,431.5C 449.781,426.41 450.281,421.076 447.5,415.5 Z"/></g>
<g><path style="opacity:1" fill="#cb8492" d="M 291.5,450.5 C 299.358,450.042 307.358,450.542 315.5,452C 329.324,455.79 343.324,458.624 357.5,460.5C 356.791,477.969 353.624,494.969 348,511.5C 341.84,528.149 330.007,537.482 312.5,539.5C 291.878,514.373 271.045,489.373 250,464.5C 249.517,465.448 249.351,466.448 249.5,467.5C 248.532,465.393 248.198,463.059 248.5,460.5C 262.724,457.215 277.057,453.881 291.5,450.5 Z"/></g>
<g><path style="opacity:1" fill="#ef99ab" d="M 312.5,539.5 C 291.504,544.114 274.671,537.781 262,520.5C 253.903,503.778 249.736,486.111 249.5,467.5C 249.351,466.448 249.517,465.448 250,464.5C 271.045,489.373 291.878,514.373 312.5,539.5 Z"/></g>
<g><path style="opacity:1" fill="#878787" d="M 405.5,481.5 C 404.167,483.5 402.5,485.167 400.5,486.5C 401.167,483.833 402.833,482.167 405.5,481.5 Z"/></g>
<g><path style="opacity:1" fill="#767676" d="M 378.5,504.5 C 374.167,509.5 369.5,514.167 364.5,518.5C 368.167,512.833 372.833,508.167 378.5,504.5 Z"/></g>
</svg>
