<?xml version="1.0" encoding="UTF-8"?>
<!DOCTYPE svg PUBLIC "-//W3C//DTD SVG 1.1//EN" "http://www.w3.org/Graphics/SVG/1.1/DTD/svg11.dtd">
<svg xmlns="http://www.w3.org/2000/svg" version="1.1" width="600px" height="600px" style="shape-rendering:geometricPrecision; text-rendering:geometricPrecision; image-rendering:optimizeQuality; fill-rule:evenodd; clip-rule:evenodd" xmlns:xlink="http://www.w3.org/1999/xlink">
<g><path style="opacity:0.955" fill="#020000" d="M 128.5,-0.5 C 138.833,-0.5 149.167,-0.5 159.5,-0.5C 174.344,9.83554 187.844,21.8355 200,35.5C 217.37,57.5631 232.37,81.2298 245,106.5C 259.279,126.162 278.613,134.162 303,130.5C 326.559,134.324 345.559,126.99 360,108.5C 376.887,73.5528 399.053,42.3862 426.5,15C 433.212,9.32423 440.212,4.15757 447.5,-0.5C 457.5,-0.5 467.5,-0.5 477.5,-0.5C 482.286,4.46514 486.119,10.1318 489,16.5C 495.22,30.2735 500.887,44.2735 506,58.5C 520.816,114.689 525.483,171.689 520,229.5C 516.619,251.025 512.286,272.358 507,293.5C 505.421,302.618 504.254,311.785 503.5,321C 517.136,398.063 498.302,465.896 447,524.5C 425.364,549.483 400.197,569.983 371.5,586C 360.629,591.112 349.629,595.612 338.5,599.5C 314.5,599.5 290.5,599.5 266.5,599.5C 239.52,590.679 215.187,577.179 193.5,559C 159.436,530.274 132.936,495.774 114,455.5C 106.544,435.101 101.544,414.101 99,392.5C 98.8333,386.167 98.6667,379.833 98.5,373.5C 100.4,345.841 101.9,318.174 103,290.5C 101.563,272.047 99.2299,253.714 96,235.5C 88.9806,213.442 82.9806,191.108 78,168.5C 75.1324,150.193 76.4658,132.193 82,114.5C 92.2407,78.4412 105.241,43.4412 121,9.5C 123.266,5.95799 125.766,2.62466 128.5,-0.5 Z"/></g>
<g><path style="opacity:1" fill="#784129" d="M 496.5,361.5 C 489.202,354.703 482.035,347.703 475,340.5C 474.503,337.854 474.336,335.187 474.5,332.5C 475.05,324.332 474.217,316.332 472,308.5C 467.251,303.104 461.251,301.104 454,302.5C 443.091,300.999 434.091,304.333 427,312.5C 419.765,333.401 405.599,347.234 384.5,354C 373.977,357.317 363.31,357.983 352.5,356C 345.405,353.953 338.405,351.62 331.5,349C 325.098,345.807 320.931,347.64 319,354.5C 318.171,363.586 318.671,372.586 320.5,381.5C 306.839,378.863 293.172,378.863 279.5,381.5C 281.749,371.522 281.916,361.522 280,351.5C 278.257,349.129 275.923,347.795 273,347.5C 264.502,350.333 256.002,353.166 247.5,356C 221.942,359.259 200.442,351.425 183,332.5C 178.576,325.893 174.909,318.893 172,311.5C 164.972,304.146 156.305,301.146 146,302.5C 141.099,302.463 136.266,302.963 131.5,304C 129.106,305.952 127.606,308.452 127,311.5C 125.184,377.695 141.85,438.695 177,494.5C 208.649,534.583 249.816,558.583 300.5,566.5C 309.982,565.42 319.316,563.586 328.5,561C 340.87,556.647 352.87,551.48 364.5,545.5C 370.6,552.689 376.933,559.689 383.5,566.5C 327.66,603.21 272.327,602.377 217.5,564C 180.16,537.332 150.66,503.832 129,463.5C 119.901,444.438 113.901,424.438 111,403.5C 109.159,393.418 108.325,383.251 108.5,373C 110.568,345.83 112.401,318.663 114,291.5C 112.209,276.519 110.543,261.519 109,246.5C 102.8,221.368 96.1338,196.368 89,171.5C 86.3351,158.542 86.0018,145.542 88,132.5C 98.4309,91.8726 112.431,52.5393 130,14.5C 133.614,7.77712 139.114,4.94379 146.5,6C 151.213,7.19011 155.547,9.19011 159.5,12C 184.011,30.8397 203.845,53.673 219,80.5C 225.254,91.3399 231.254,102.34 237,113.5C 253.671,135.349 275.838,144.683 303.5,141.5C 331.4,144.494 353.566,134.827 370,112.5C 386.403,78.0994 408.236,47.5994 435.5,21C 442.723,14.7815 450.723,9.78152 459.5,6C 466.193,4.42725 471.359,6.59392 475,12.5C 490.103,40.0515 500.103,69.3848 505,100.5C 510.379,132.284 512.712,164.284 512,196.5C 511.257,213.259 509.591,229.925 507,246.5C 501.916,266.673 497.582,287.006 494,307.5C 494.367,325.51 495.2,343.51 496.5,361.5 Z"/></g>
<g><path style="opacity:1" fill="#0e0704" d="M 140.5,22.5 C 148.072,21.284 154.739,23.1174 160.5,28C 169.673,37.5178 177.506,48.0178 184,59.5C 190,71.5 196,83.5 202,95.5C 208.423,104.678 215.089,113.678 222,122.5C 228.347,133.126 228.68,143.792 223,154.5C 216.605,159.948 209.772,164.781 202.5,169C 198.333,173.167 194.167,177.333 190,181.5C 178,198.833 166,216.167 154,233.5C 146.949,242.639 138.115,245.139 127.5,241C 126,239.5 124.5,238 123,236.5C 115.671,206.526 110.504,176.192 107.5,145.5C 110.247,107.262 118.414,70.2616 132,34.5C 133.64,29.5154 136.474,25.5154 140.5,22.5 Z"/></g>
<g><path style="opacity:1" fill="#0e0705" d="M 447.5,22.5 C 454.016,21.237 459.516,22.9036 464,27.5C 481.548,68.3583 490.548,111.025 491,155.5C 487.622,181.725 482.955,207.725 477,233.5C 475.044,240.489 470.377,243.822 463,243.5C 455.413,243.039 449.413,239.706 445,233.5C 433,216.167 421,198.833 409,181.5C 404.5,177 400,172.5 395.5,168C 388.901,164.452 382.735,160.286 377,155.5C 370.923,144.104 371.256,132.771 378,121.5C 384.72,113.114 391.053,104.447 397,95.5C 405.879,75.3994 416.546,56.3994 429,38.5C 434.474,32.1804 440.641,26.8471 447.5,22.5 Z"/></g>
<g><path style="opacity:1" fill="#c0a79c" d="M 126.5,230.5 C 125.04,219.191 122.706,208.191 119.5,197.5C 117.777,186.16 115.943,174.827 114,163.5C 112.919,122.235 119.585,82.2354 134,43.5C 135.847,38.3056 138.347,33.4722 141.5,29C 145.667,26.9142 149.667,27.2475 153.5,30C 158.667,33.8333 163.167,38.3333 167,43.5C 178.856,61.2009 189.189,79.8676 198,99.5C 204,107.5 210,115.5 216,123.5C 221.904,132.03 222.904,141.03 219,150.5C 212.605,155.948 205.772,160.781 198.5,165C 194.667,168.833 190.833,172.667 187,176.5C 174.667,194.167 162.333,211.833 150,229.5C 146.666,234.347 142.166,237.347 136.5,238.5C 131.324,237.979 127.991,235.312 126.5,230.5 Z"/></g>
<g><path style="opacity:1" fill="#cdb7ad" d="M 478.5,203.5 C 475.627,212.524 473.627,221.857 472.5,231.5C 468.633,238.904 462.966,240.404 455.5,236C 453.333,233.833 451.167,231.667 449,229.5C 437,212.167 425,194.833 413,177.5C 403.493,167.318 392.826,158.652 381,151.5C 377.776,146.638 376.776,141.304 378,135.5C 379.427,130.878 381.427,126.545 384,122.5C 397.946,106.081 408.946,87.7472 417,67.5C 422.084,58.9971 427.417,50.6637 433,42.5C 437.659,34.9963 444.159,29.9963 452.5,27.5C 455.63,27.6482 458.13,28.9816 460,31.5C 476.859,71.1272 485.525,112.461 486,155.5C 483.818,171.558 481.318,187.558 478.5,203.5 Z"/></g>
<g><path style="opacity:1" fill="#3c271f" d="M 478.5,203.5 C 477.118,213.086 475.118,222.419 472.5,231.5C 473.627,221.857 475.627,212.524 478.5,203.5 Z"/></g>
<g><path style="opacity:1" fill="#39241c" d="M 119.5,197.5 C 122.706,208.191 125.04,219.191 126.5,230.5C 123.549,219.752 121.216,208.752 119.5,197.5 Z"/></g>
<g><path style="opacity:1" fill="#0b0705" d="M 211.5,218.5 C 228.391,216.854 243.391,221.354 256.5,232C 272.489,245.321 282.656,262.155 287,282.5C 287.667,288.833 287.667,295.167 287,301.5C 283.131,317.411 273.464,323.078 258,318.5C 249.814,337.259 235.814,343.926 216,338.5C 201.072,331.652 194.739,319.986 197,303.5C 197.392,300.373 198.225,297.373 199.5,294.5C 190.415,290.584 182.581,284.917 176,277.5C 167.76,265.691 167.427,253.691 175,241.5C 184.811,229.858 196.977,222.191 211.5,218.5 Z"/></g>
<g><path style="opacity:1" fill="#0c0706" d="M 370.5,218.5 C 393.906,216.787 412.406,225.454 426,244.5C 432.859,261.224 429.026,275.057 414.5,286C 409.666,289.252 404.666,292.252 399.5,295C 405.941,311.489 402.274,325.156 388.5,336C 367.186,345.064 351.519,339.231 341.5,318.5C 329.004,323.087 319.837,319.42 314,307.5C 309.441,289.942 311.774,273.275 321,257.5C 332.29,237.637 348.79,224.637 370.5,218.5 Z"/></g>
<g><path style="opacity:1" fill="#f3f3f3" d="M 254.5,309.5 C 248.817,286.158 234.817,278.992 212.5,288C 211.295,289.376 209.962,290.542 208.5,291.5C 197.193,288.426 187.693,282.426 180,273.5C 171.477,260.164 173.311,248.331 185.5,238C 206.734,219.829 228.734,218.829 251.5,235C 273.193,251.886 283.36,274.052 282,301.5C 276.09,316.31 266.924,318.976 254.5,309.5 Z"/></g>
<g><path style="opacity:1" fill="#f3f3f3" d="M 391.5,291.5 C 377.365,280.248 363.865,280.915 351,293.5C 347.926,298.577 345.759,303.91 344.5,309.5C 335.688,318.009 327.521,317.342 320,307.5C 315.689,297.028 315.355,286.361 319,275.5C 325.591,256.798 337.091,241.964 353.5,231C 366.074,223.144 379.407,221.477 393.5,226C 406.11,230.954 415.944,239.12 423,250.5C 425.432,258.273 424.432,265.606 420,272.5C 412.462,281.692 402.962,288.025 391.5,291.5 Z"/></g>
<g><path style="opacity:1" fill="#81c3de" d="M 254.5,309.5 C 249.886,330.271 237.22,338.104 216.5,333C 199.699,321.895 197.033,308.062 208.5,291.5C 209.962,290.542 211.295,289.376 212.5,288C 234.817,278.992 248.817,286.158 254.5,309.5 Z"/></g>
<g><path style="opacity:1" fill="#81c4df" d="M 391.5,291.5 C 400.527,305.371 399.193,318.204 387.5,330C 365.076,339.786 350.743,332.953 344.5,309.5C 345.759,303.91 347.926,298.577 351,293.5C 363.865,280.915 377.365,280.248 391.5,291.5 Z"/></g>
<g><path style="opacity:1" fill="#241a17" d="M 222.5,291.5 C 240.028,291.182 247.195,299.516 244,316.5C 239.691,324.726 232.857,328.226 223.5,327C 213.263,323.037 208.763,315.537 210,304.5C 212.353,298.315 216.52,293.982 222.5,291.5 Z"/></g>
<g><path style="opacity:1" fill="#241a17" d="M 367.5,291.5 C 385.585,291.348 392.419,300.014 388,317.5C 381.047,327.291 372.214,329.458 361.5,324C 351.864,313.655 352.198,303.655 362.5,294C 364.315,293.243 365.981,292.41 367.5,291.5 Z"/></g>
<g><path style="opacity:1" fill="#e7e6e6" d="M 231.5,299.5 C 237,298.831 239.167,301.165 238,306.5C 234.592,310.483 231.592,310.15 229,305.5C 228.458,302.918 229.292,300.918 231.5,299.5 Z"/></g>
<g><path style="opacity:1" fill="#e5e4e4" d="M 376.5,298.5 C 383.848,299.451 385.181,302.618 380.5,308C 375,309.167 372.833,307 374,301.5C 375.045,300.627 375.878,299.627 376.5,298.5 Z"/></g>
<g><path style="opacity:1" fill="#0e0907" d="M 474.5,332.5 C 471.588,382.419 458.755,429.752 436,474.5C 418.26,504.407 394.427,528.073 364.5,545.5C 352.87,551.48 340.87,556.647 328.5,561C 319.316,563.586 309.982,565.42 300.5,566.5C 249.816,558.583 208.649,534.583 177,494.5C 141.85,438.695 125.184,377.695 127,311.5C 127.606,308.452 129.106,305.952 131.5,304C 136.266,302.963 141.099,302.463 146,302.5C 156.305,301.146 164.972,304.146 172,311.5C 174.909,318.893 178.576,325.893 183,332.5C 200.442,351.425 221.942,359.259 247.5,356C 256.002,353.166 264.502,350.333 273,347.5C 275.923,347.795 278.257,349.129 280,351.5C 281.916,361.522 281.749,371.522 279.5,381.5C 293.172,378.863 306.839,378.863 320.5,381.5C 318.671,372.586 318.171,363.586 319,354.5C 320.931,347.64 325.098,345.807 331.5,349C 338.405,351.62 345.405,353.953 352.5,356C 363.31,357.983 373.977,357.317 384.5,354C 405.599,347.234 419.765,333.401 427,312.5C 434.091,304.333 443.091,300.999 454,302.5C 461.251,301.104 467.251,303.104 472,308.5C 474.217,316.332 475.05,324.332 474.5,332.5 Z"/></g>
<g><path style="opacity:1" fill="#f4f3f3" d="M 136.5,307.5 C 143.175,307.334 149.842,307.5 156.5,308C 161.277,309.133 165.11,311.633 168,315.5C 178.581,342.068 198.081,357.568 226.5,362C 232.5,362.667 238.5,362.667 244.5,362C 254.664,359.164 264.664,356.164 274.5,353C 276.014,355.587 276.68,358.42 276.5,361.5C 275.436,371.636 273.936,381.636 272,391.5C 280.357,386.132 289.524,383.799 299.5,384.5C 309.408,384.008 318.741,386.008 327.5,390.5C 327.833,390.333 328.167,390.167 328.5,390C 324.852,378.797 323.352,367.297 324,355.5C 324.419,354.328 325.085,353.328 326,352.5C 357.637,368.453 387.137,365.286 414.5,343C 422.707,334.457 428.874,324.624 433,313.5C 438.909,308.588 445.743,306.588 453.5,307.5C 457.616,307.403 461.616,307.903 465.5,309C 466.701,309.903 467.535,311.069 468,312.5C 469.25,368.169 457.25,420.836 432,470.5C 404.398,516.92 364.232,546.753 311.5,560C 297.454,561.899 283.787,560.233 270.5,555C 218.159,536.325 180.992,501.491 159,450.5C 139.717,406.518 130.717,360.518 132,312.5C 133.025,310.313 134.525,308.646 136.5,307.5 Z"/></g>
<g><path style="opacity:1" fill="#6f3c25" d="M 474.5,332.5 C 474.336,335.187 474.503,337.854 475,340.5C 482.035,347.703 489.202,354.703 496.5,361.5C 498.457,411.679 484.623,457.012 455,497.5C 435.208,524.794 411.375,547.794 383.5,566.5C 376.933,559.689 370.6,552.689 364.5,545.5C 394.427,528.073 418.26,504.407 436,474.5C 458.755,429.752 471.588,382.419 474.5,332.5 Z"/></g>
<g><path style="opacity:1" fill="#070706" d="M 314.5,451.5 C 313.226,452.189 313.226,453.023 314.5,454C 321.29,457.67 328.29,459.504 335.5,459.5C 351.209,452.141 360.709,439.807 364,422.5C 365.826,421.159 366.993,421.659 367.5,424C 365.122,435.683 361.289,446.85 356,457.5C 349.055,468.111 341.722,478.444 334,488.5C 324.212,498.655 312.212,503.322 298,502.5C 282.889,502.611 270.889,496.611 262,484.5C 254.943,475.108 248.276,465.442 242,455.5C 237.348,445.396 233.848,434.896 231.5,424C 232.593,420.88 234.093,420.713 236,423.5C 238.111,435.866 243.945,446.033 253.5,454C 256.54,456.22 259.873,457.72 263.5,458.5C 264.601,459.598 265.934,459.765 267.5,459C 271.468,457.962 275.135,456.462 278.5,454.5C 279.5,454.5 280.5,454.5 281.5,454.5C 281.046,451.86 279.879,449.527 278,447.5C 262.02,436.56 257.02,421.893 263,403.5C 269.418,395.202 277.918,390.369 288.5,389C 302.988,386.966 316.655,389.3 329.5,396C 336.184,401.203 339.184,408.036 338.5,416.5C 338.432,428.801 333.432,438.635 323.5,446C 320.436,447.859 317.436,449.692 314.5,451.5 Z"/></g>
<g><path style="opacity:1" fill="#221714" d="M 308.5,453.5 C 301.16,455.622 293.827,455.289 286.5,452.5C 286.046,449.86 284.879,447.527 283,445.5C 274.689,440.191 269.022,432.858 266,423.5C 263.426,407.82 269.926,398.32 285.5,395C 299.406,392.359 312.739,394.026 325.5,400C 334.431,408.899 335.931,419.066 330,430.5C 324.578,437.924 317.912,443.924 310,448.5C 308.991,450.025 308.491,451.692 308.5,453.5 Z"/></g>
<g><path style="opacity:1" fill="#a06f87" d="M 314.5,451.5 C 320.788,455.712 327.788,458.379 335.5,459.5C 328.29,459.504 321.29,457.67 314.5,454C 313.226,453.023 313.226,452.189 314.5,451.5 Z"/></g>
<g><path style="opacity:1" fill="#d996b7" d="M 286.5,452.5 C 293.827,455.289 301.16,455.622 308.5,453.5C 309.219,455.091 310.219,456.591 311.5,458C 317.395,460.685 323.395,462.852 329.5,464.5C 330.568,465.434 331.901,465.768 333.5,465.5C 331.907,478.075 325.24,486.408 313.5,490.5C 304.544,479.21 294.877,468.543 284.5,458.5C 285.363,456.579 286.029,454.579 286.5,452.5 Z"/></g>
<g><path style="opacity:1" fill="#bd87a2" d="M 278.5,454.5 C 275.135,456.462 271.468,457.962 267.5,459C 265.934,459.765 264.601,459.598 263.5,458.5C 268.5,457.167 273.5,455.833 278.5,454.5 Z"/></g>
<g><path style="opacity:1" fill="#e8a1c5" d="M 284.5,458.5 C 294.877,468.543 304.544,479.21 313.5,490.5C 301.558,493.725 289.892,492.892 278.5,488C 270.901,481.968 266.568,474.135 265.5,464.5C 271.845,462.496 278.178,460.496 284.5,458.5 Z"/></g>
<g><path style="opacity:1" fill="#372d2b" d="M 265.5,464.5 C 266.568,474.135 270.901,481.968 278.5,488C 289.892,492.892 301.558,493.725 313.5,490.5C 325.24,486.408 331.907,478.075 333.5,465.5C 331.901,465.768 330.568,465.434 329.5,464.5C 335.758,465.532 341.425,463.866 346.5,459.5C 341.131,470.599 333.798,480.766 324.5,490C 307.833,500 291.167,500 274.5,490C 265.202,480.766 257.869,470.599 252.5,459.5C 256.301,462.534 260.634,464.201 265.5,464.5 Z"/></g>
</svg>
