<?xml version="1.0" encoding="UTF-8"?>
<!DOCTYPE svg PUBLIC "-//W3C//DTD SVG 1.1//EN" "http://www.w3.org/Graphics/SVG/1.1/DTD/svg11.dtd">
<svg xmlns="http://www.w3.org/2000/svg" version="1.1" width="600px" height="600px" style="shape-rendering:geometricPrecision; text-rendering:geometricPrecision; image-rendering:optimizeQuality; fill-rule:evenodd; clip-rule:evenodd" xmlns:xlink="http://www.w3.org/1999/xlink">
<g><path style="opacity:0.966" fill="#060503" d="M 599.5,163.5 C 599.5,178.167 599.5,192.833 599.5,207.5C 593.788,210.22 588.122,210.053 582.5,207C 575.957,200.122 569.124,193.622 562,187.5C 549.038,189.865 536.538,193.698 524.5,199C 514.065,205.105 503.899,211.605 494,218.5C 492.747,233.527 491.247,248.527 489.5,263.5C 491.933,279.5 494.433,295.5 497,311.5C 502.014,369.132 487.014,420.798 452,466.5C 446.136,472.699 439.969,478.532 433.5,484C 441.451,504.876 435.785,520.876 416.5,532C 407.156,535.817 397.656,536.317 388,533.5C 377.449,535.43 366.949,537.596 356.5,540C 345.708,541.067 335.041,540.401 324.5,538C 315.601,534.965 306.768,531.798 298,528.5C 286.923,533.526 275.423,537.359 263.5,540C 257.167,540.667 250.833,540.667 244.5,540C 233.352,536.88 222.019,534.713 210.5,533.5C 198.078,536.647 186.411,534.813 175.5,528C 162.314,515.756 158.98,501.256 165.5,484.5C 134.598,456.385 114.765,421.719 106,380.5C 100.741,357.723 99.4073,334.723 102,311.5C 104.567,295.5 107.067,279.5 109.5,263.5C 107.753,248.527 106.253,233.527 105,218.5C 95.1014,211.605 84.9347,205.105 74.5,199C 62.4619,193.698 49.9619,189.865 37,187.5C 29.876,193.622 23.0427,200.122 16.5,207C 13.7937,208.548 10.9603,209.714 8,210.5C 5.14048,209.577 2.30714,208.577 -0.5,207.5C -0.5,192.833 -0.5,178.167 -0.5,163.5C 5.89029,154.272 13.557,146.105 22.5,139C 50.6616,119.247 80.6616,102.581 112.5,89C 143.266,75.8712 172.599,78.5379 200.5,97C 202.5,97.1667 204.5,97.3333 206.5,97.5C 216.129,95.8078 225.796,94.3078 235.5,93C 245.5,92.3333 255.5,92.3333 265.5,93C 276.784,94.6605 288.117,95.8271 299.5,96.5C 315.995,94.9817 332.495,93.6484 349,92.5C 364.6,92.0955 379.767,94.4289 394.5,99.5C 411.083,88.1941 429.417,81.8608 449.5,80.5C 464.044,81.8026 478.044,85.3026 491.5,91C 523.725,104.769 553.725,122.103 581.5,143C 588.483,149.138 594.483,155.971 599.5,163.5 Z"/></g>
<g><path style="opacity:1" fill="#c38c44" d="M 115.5,210.5 C 116.496,210.586 117.329,210.252 118,209.5C 122.175,186.484 132.175,166.484 148,149.5C 155.954,141.368 164.287,133.701 173,126.5C 174.443,121.788 173.277,117.955 169.5,115C 157.091,109.873 144.425,109.206 131.5,113C 92.543,125.169 59.543,146.336 32.5,176.5C 25.0351,183.464 17.7018,190.631 10.5,198C 7.83514,200.1 5.66847,199.6 4,196.5C 2.16141,189.327 2.82808,182.327 6,175.5C 10.2924,166.538 16.1258,158.705 23.5,152C 55.6071,127.945 90.6071,108.945 128.5,95C 145.857,89.7873 162.857,90.7873 179.5,98C 185.325,100.745 190.992,103.745 196.5,107C 199.575,108.007 202.742,108.507 206,108.5C 215.805,106.873 225.638,105.373 235.5,104C 244.494,103.5 253.494,103.334 262.5,103.5C 263.093,109.871 264.927,115.871 268,121.5C 274.435,144.957 278.102,168.957 279,193.5C 280.681,220.719 279.181,247.719 274.5,274.5C 245.002,280.14 222.836,296.14 208,322.5C 199.338,337.138 193.004,352.805 189,369.5C 183.133,397.696 177.8,426.029 173,454.5C 171.025,460.4 169.358,466.4 168,472.5C 142.191,446.897 125.191,416.23 117,380.5C 111.741,357.723 110.407,334.723 113,311.5C 115.567,295.5 118.067,279.5 120.5,263.5C 119.043,250.347 117.71,237.18 116.5,224C 116.655,220.813 116.989,217.646 117.5,214.5C 117.197,212.886 116.53,211.552 115.5,210.5 Z"/></g>
<g><path style="opacity:1" fill="#c38c44" d="M 566.5,176.5 C 538.124,145.131 503.457,123.631 462.5,112C 445.853,108.225 431.186,111.891 418.5,123C 451.868,143.228 472.868,172.394 481.5,210.5C 481.785,214.998 482.118,219.498 482.5,224C 481.29,237.18 479.957,250.347 478.5,263.5C 480.933,279.5 483.433,295.5 486,311.5C 490.08,351.018 483.58,388.685 466.5,424.5C 464.629,424.141 463.129,423.141 462,421.5C 443.957,399.634 425.457,378.3 406.5,357.5C 398.287,327.782 381.621,303.949 356.5,286C 346.781,280.431 336.447,276.598 325.5,274.5C 319.989,248.483 318.155,222.15 320,195.5C 320.889,170.382 324.555,145.716 331,121.5C 332.517,117.766 334.184,114.099 336,110.5C 336.497,108.19 336.663,105.857 336.5,103.5C 356.953,101.869 376.786,104.535 396,111.5C 411.848,99.6653 429.681,92.9986 449.5,91.5C 465.255,92.9179 480.255,97.0846 494.5,104C 523.283,117.216 550.283,133.216 575.5,152C 587.456,161.911 594.456,174.577 596.5,190C 596.435,192.591 595.935,195.091 595,197.5C 593.062,199.978 590.895,200.145 588.5,198C 581.298,190.631 573.965,183.464 566.5,176.5 Z"/></g>
<g><path style="opacity:1" fill="#e8e5e2" d="M 319.5,125.5 C 317.96,127.838 317.294,130.505 317.5,133.5C 316.699,135.042 316.366,136.708 316.5,138.5C 314.946,142.567 314.28,146.9 314.5,151.5C 307.576,194.163 307.909,236.83 315.5,279.5C 315.5,280.5 315.5,281.5 315.5,282.5C 304.448,283.143 293.781,282.476 283.5,280.5C 291.605,232.763 291.271,185.096 282.5,137.5C 282.58,134.219 281.913,131.219 280.5,128.5C 280.59,125.848 279.924,123.515 278.5,121.5C 277.1,115.97 275.1,110.636 272.5,105.5C 272.833,105.167 273.167,104.833 273.5,104.5C 290.833,108.5 308.167,108.5 325.5,104.5C 325.833,104.833 326.167,105.167 326.5,105.5C 323.02,111.788 320.687,118.454 319.5,125.5 Z"/></g>
<g><path style="opacity:1" fill="#ee9ba0" d="M 115.5,210.5 C 106.946,207.555 99.2792,203.055 92.5,197C 74.0397,185.68 54.0397,178.847 32.5,176.5C 59.543,146.336 92.543,125.169 131.5,113C 144.425,109.206 157.091,109.873 169.5,115C 173.277,117.955 174.443,121.788 173,126.5C 164.287,133.701 155.954,141.368 148,149.5C 132.175,166.484 122.175,186.484 118,209.5C 117.329,210.252 116.496,210.586 115.5,210.5 Z"/></g>
<g><path style="opacity:1" fill="#ee9ba0" d="M 566.5,176.5 C 539.394,179.028 515.394,188.862 494.5,206C 490.526,208.602 486.193,210.102 481.5,210.5C 472.868,172.394 451.868,143.228 418.5,123C 431.186,111.891 445.853,108.225 462.5,112C 503.457,123.631 538.124,145.131 566.5,176.5 Z"/></g>
<g><path style="opacity:1" fill="#644c2e" d="M 278.5,121.5 C 279.924,123.515 280.59,125.848 280.5,128.5C 279.076,126.485 278.41,124.152 278.5,121.5 Z"/></g>
<g><path style="opacity:1" fill="#654d2f" d="M 319.5,125.5 C 319.435,128.428 318.768,131.095 317.5,133.5C 317.294,130.505 317.96,127.838 319.5,125.5 Z"/></g>
<g><path style="opacity:1" fill="#6a5134" d="M 280.5,128.5 C 281.913,131.219 282.58,134.219 282.5,137.5C 281.087,134.781 280.42,131.781 280.5,128.5 Z"/></g>
<g><path style="opacity:1" fill="#72593c" d="M 316.5,138.5 C 316.376,143.049 315.709,147.382 314.5,151.5C 314.28,146.9 314.946,142.567 316.5,138.5 Z"/></g>
<g><path style="opacity:1" fill="#946c3d" d="M 200.5,180.5 C 217.687,178.638 234.021,181.472 249.5,189C 260.012,196.522 263.845,206.689 261,219.5C 255.906,246.216 242.406,267.383 220.5,283C 208.882,289.13 196.549,291.13 183.5,289C 172.771,286.923 164.937,281.089 160,271.5C 150.245,246.881 151.578,222.881 164,199.5C 173.811,188.512 185.978,182.179 200.5,180.5 Z"/></g>
<g><path style="opacity:1" fill="#946c3d" d="M 374.5,181.5 C 389.266,180.21 403.6,182.043 417.5,187C 428.333,191.167 435.833,198.667 440,209.5C 449.602,233.137 448.269,256.137 436,278.5C 430.228,284.937 423.062,288.771 414.5,290C 399.044,292.595 385.044,289.262 372.5,280C 352.654,262.307 340.987,240.307 337.5,214C 338.471,199.028 346.138,189.361 360.5,185C 365.295,183.801 369.962,182.634 374.5,181.5 Z"/></g>
<g><path style="opacity:1" fill="#4a342d" d="M 199.5,204.5 C 225.039,203.871 237.205,216.204 236,241.5C 227.378,265.041 211.544,271.874 188.5,262C 172.988,249.388 170.488,234.554 181,217.5C 186.261,211.717 192.428,207.384 199.5,204.5 Z"/></g>
<g><path style="opacity:1" fill="#49332c" d="M 386.5,206.5 C 407.79,204.957 420.123,214.624 423.5,235.5C 420.168,260.343 406.168,270.177 381.5,265C 362.264,253.84 357.764,238.34 368,218.5C 373.033,212.578 379.199,208.578 386.5,206.5 Z"/></g>
<g><path style="opacity:1" fill="#1d1d1b" d="M 201.5,213.5 C 217.083,212.604 226.083,219.77 228.5,235C 225.837,251.51 216.17,258.51 199.5,256C 184.274,248.052 180.774,236.552 189,221.5C 192.378,217.406 196.545,214.739 201.5,213.5 Z"/></g>
<g><path style="opacity:1" fill="#1d1d1b" d="M 387.5,214.5 C 406.363,213.862 415.196,222.862 414,241.5C 409.787,254.199 400.954,259.699 387.5,258C 371.666,250.836 367.499,239.336 375,223.5C 378.651,219.609 382.818,216.609 387.5,214.5 Z"/></g>
<g><path style="opacity:1" fill="#efefef" d="M 199.5,221.5 C 204.757,221.688 206.924,224.355 206,229.5C 202.667,233.5 199.333,233.5 196,229.5C 194.78,225.707 195.947,223.04 199.5,221.5 Z"/></g>
<g><path style="opacity:1" fill="#f2f2f2" d="M 384.5,223.5 C 391,222.499 393.5,225.165 392,231.5C 388.952,235.482 385.952,235.482 383,231.5C 382.109,228.502 382.609,225.836 384.5,223.5 Z"/></g>
<g><path style="opacity:1" fill="#d6d5d5" d="M 315.5,279.5 C 316.434,280.568 316.768,281.901 316.5,283.5C 332.354,285.449 346.687,291.115 359.5,300.5C 361.239,303.243 363.573,305.243 366.5,306.5C 368.094,309.764 370.427,312.431 373.5,314.5C 376.588,319.68 379.922,324.68 383.5,329.5C 383.992,331.819 384.992,333.819 386.5,335.5C 395.933,355.895 402.266,377.228 405.5,399.5C 405.657,400.873 405.49,402.207 405,403.5C 391.374,386.872 377.374,370.539 363,354.5C 362.027,351.421 361.194,348.421 360.5,345.5C 360.346,340.711 359.013,336.378 356.5,332.5C 356.771,330.62 356.104,329.287 354.5,328.5C 352.278,322.736 348.612,318.069 343.5,314.5C 327.315,302.035 308.981,297.202 288.5,300C 270.235,302.873 255.735,311.706 245,326.5C 236.393,341.69 236.559,356.69 245.5,371.5C 247.442,376.441 250.775,380.108 255.5,382.5C 255.973,383.906 256.973,384.573 258.5,384.5C 262.721,389.129 267.721,390.462 273.5,388.5C 281.167,386.5 288.833,384.5 296.5,382.5C 296.983,389.217 295.15,395.217 291,400.5C 287.466,404.369 283.633,407.869 279.5,411C 272.167,415.333 264.833,419.667 257.5,424C 246.68,434.837 239.18,447.67 235,462.5C 231.797,474.982 228.13,487.315 224,499.5C 213.421,520.56 197.754,525.56 177,514.5C 174.086,510.093 172.586,505.26 172.5,500C 174.531,489.412 176.865,478.912 179.5,468.5C 180.946,465.746 181.946,462.746 182.5,459.5C 187.154,429.234 192.988,399.234 200,369.5C 205.394,349.052 214.227,330.386 226.5,313.5C 230.833,309.833 234.833,305.833 238.5,301.5C 251.429,291.409 266.096,285.409 282.5,283.5C 282.263,282.209 282.596,281.209 283.5,280.5C 293.781,282.476 304.448,283.143 315.5,282.5C 315.5,281.5 315.5,280.5 315.5,279.5 Z"/></g>
<g><path style="opacity:1" fill="#61482b" d="M 359.5,300.5 C 362.427,301.757 364.761,303.757 366.5,306.5C 363.573,305.243 361.239,303.243 359.5,300.5 Z"/></g>
<g><path style="opacity:1" fill="#654c2f" d="M 366.5,306.5 C 369.573,308.569 371.906,311.236 373.5,314.5C 370.427,312.431 368.094,309.764 366.5,306.5 Z"/></g>
<g><path style="opacity:1" fill="#5d4527" d="M 238.5,301.5 C 234.833,305.833 230.833,309.833 226.5,313.5C 229.5,308.5 233.5,304.5 238.5,301.5 Z"/></g>
<g><path style="opacity:1" fill="#646160" d="M 250.5,356.5 C 253.554,359.866 257.388,361.199 262,360.5C 276.857,360.984 283.19,353.984 281,339.5C 277.69,332.161 272.19,327.994 264.5,327C 263.919,327.893 263.585,328.893 263.5,330C 264.507,332.517 265.674,335.017 267,337.5C 267.667,340.5 267.667,343.5 267,346.5C 264.07,348.255 260.903,349.422 257.5,350C 254.898,350.883 252.731,352.383 251,354.5C 250.722,353.584 250.222,352.918 249.5,352.5C 249.554,338.229 255.554,327.062 267.5,319C 288.799,307.695 310.132,307.695 331.5,319C 349.8,331.56 353.966,347.727 344,367.5C 340.048,373.109 334.715,376.776 328,378.5C 320.075,375.869 312.075,373.535 304,371.5C 299.866,372.096 295.699,372.263 291.5,372C 284.022,375.054 276.355,377.054 268.5,378C 259.029,373.699 253.029,366.532 250.5,356.5 Z"/></g>
<g><path style="opacity:1" fill="#474545" d="M 343.5,314.5 C 348.612,318.069 352.278,322.736 354.5,328.5C 350.836,323.842 347.169,319.175 343.5,314.5 Z"/></g>
<g><path style="opacity:1" fill="#2e2c2a" d="M 250.5,356.5 C 249.766,355.292 249.433,353.959 249.5,352.5C 250.222,352.918 250.722,353.584 251,354.5C 252.731,352.383 254.898,350.883 257.5,350C 260.903,349.422 264.07,348.255 267,346.5C 267.667,343.5 267.667,340.5 267,337.5C 265.674,335.017 264.507,332.517 263.5,330C 263.585,328.893 263.919,327.893 264.5,327C 272.19,327.994 277.69,332.161 281,339.5C 283.19,353.984 276.857,360.984 262,360.5C 257.388,361.199 253.554,359.866 250.5,356.5 Z"/></g>
<g><path style="opacity:1" fill="#2e2c2a" d="M 326.5,326.5 C 329.261,325.915 330.927,326.915 331.5,329.5C 330.26,332.977 328.76,336.311 327,339.5C 325.877,342.956 326.71,345.79 329.5,348C 333.5,349.333 337.5,350.667 341.5,352C 344.167,354.333 344.167,356.667 341.5,359C 329.754,363.192 320.254,360.359 313,350.5C 312.049,339.4 316.549,331.4 326.5,326.5 Z"/></g>
<g><path style="opacity:1" fill="#584126" d="M 383.5,329.5 C 385.539,330.911 386.539,332.911 386.5,335.5C 384.992,333.819 383.992,331.819 383.5,329.5 Z"/></g>
<g><path style="opacity:1" fill="#464544" d="M 356.5,332.5 C 359.013,336.378 360.346,340.711 360.5,345.5C 360.81,348.713 360.477,351.713 359.5,354.5C 360.022,346.93 359.022,339.597 356.5,332.5 Z"/></g>
<g><path style="opacity:1" fill="#cccccc" d="M 360.5,345.5 C 361.194,348.421 362.027,351.421 363,354.5C 377.374,370.539 391.374,386.872 405,403.5C 405.49,402.207 405.657,400.873 405.5,399.5C 408.991,419.426 412.824,439.426 417,459.5C 420.569,472.94 423.736,486.44 426.5,500C 426.862,506.25 424.862,511.583 420.5,516C 401.088,524.943 386.255,520.11 376,501.5C 370.695,485.616 365.695,469.616 361,453.5C 354.322,434.155 341.488,420.655 322.5,413C 314.201,408.037 308.035,401.204 304,392.5C 302.801,389.274 302.301,385.941 302.5,382.5C 306.874,383.344 311.207,384.344 315.5,385.5C 320.443,389.048 325.776,390.048 331.5,388.5C 331.833,388.5 332.167,388.5 332.5,388.5C 338.626,387.275 343.626,384.275 347.5,379.5C 354.925,372.931 358.925,364.598 359.5,354.5C 360.477,351.713 360.81,348.713 360.5,345.5 Z"/></g>
<g><path style="opacity:1" fill="#b98440" d="M 406.5,357.5 C 425.457,378.3 443.957,399.634 462,421.5C 463.129,423.141 464.629,424.141 466.5,424.5C 457.847,442.785 446.014,458.785 431,472.5C 423.727,443.87 418.06,414.87 414,385.5C 412.007,376.023 409.507,366.689 406.5,357.5 Z"/></g>
<g><path style="opacity:1" fill="#424140" d="M 245.5,371.5 C 248.805,375.141 252.138,378.808 255.5,382.5C 250.775,380.108 247.442,376.441 245.5,371.5 Z"/></g>
<g><path style="opacity:1" fill="#484646" d="M 258.5,384.5 C 261.262,385.38 263.929,386.546 266.5,388C 268.81,388.497 271.143,388.663 273.5,388.5C 267.721,390.462 262.721,389.129 258.5,384.5 Z"/></g>
<g><path style="opacity:1" fill="#4a4848" d="M 315.5,385.5 C 320.672,387.335 326.005,388.335 331.5,388.5C 325.776,390.048 320.443,389.048 315.5,385.5 Z"/></g>
<g><path style="opacity:1" fill="#424040" d="M 347.5,379.5 C 343.626,384.275 338.626,387.275 332.5,388.5C 337.658,385.755 342.658,382.755 347.5,379.5 Z"/></g>
<g><path style="opacity:1" fill="#2e2624" d="M 358.5,482.5 C 355.326,474.473 351.826,466.473 348,458.5C 341.375,449.214 332.541,443.047 321.5,440C 306.833,436.667 292.167,436.667 277.5,440C 265.481,443.084 256.314,449.918 250,460.5C 246.71,468.226 243.543,475.893 240.5,483.5C 243.096,467.209 248.929,452.209 258,438.5C 260.167,436.333 262.333,434.167 264.5,432C 273.501,427.168 282.168,421.835 290.5,416C 293.683,412.985 296.683,409.818 299.5,406.5C 308.971,417.12 320.304,425.287 333.5,431C 342.005,438.486 348.172,447.653 352,458.5C 354.799,466.367 356.966,474.367 358.5,482.5 Z"/></g>
<g><path style="opacity:1" fill="#bfbdbb" d="M 358.5,482.5 C 361.359,499.057 369.026,512.89 381.5,524C 369.243,527.585 356.743,529.751 344,530.5C 338.037,530.574 332.204,529.741 326.5,528C 318.5,525 310.5,522 302.5,519C 299.167,518.333 295.833,518.333 292.5,519C 280.217,525.373 267.217,529.207 253.5,530.5C 241.369,528.966 229.369,526.8 217.5,524C 223.373,519.425 228.206,513.925 232,507.5C 235.333,499.666 238.167,491.666 240.5,483.5C 243.543,475.893 246.71,468.226 250,460.5C 256.314,449.918 265.481,443.084 277.5,440C 292.167,436.667 306.833,436.667 321.5,440C 332.541,443.047 341.375,449.214 348,458.5C 351.826,466.473 355.326,474.473 358.5,482.5 Z"/></g>
<g><path style="opacity:1" fill="#7f664b" d="M 182.5,459.5 C 181.946,462.746 180.946,465.746 179.5,468.5C 179.446,465.008 180.446,462.008 182.5,459.5 Z"/></g>
</svg>
