<?xml version="1.0" encoding="UTF-8"?>
<!DOCTYPE svg PUBLIC "-//W3C//DTD SVG 1.1//EN" "http://www.w3.org/Graphics/SVG/1.1/DTD/svg11.dtd">
<svg xmlns="http://www.w3.org/2000/svg" version="1.1" width="600px" height="600px" style="shape-rendering:geometricPrecision; text-rendering:geometricPrecision; image-rendering:optimizeQuality; fill-rule:evenodd; clip-rule:evenodd" xmlns:xlink="http://www.w3.org/1999/xlink">
<g><path style="opacity:0.952" fill="#030303" d="M 145.5,-0.5 C 151.5,-0.5 157.5,-0.5 163.5,-0.5C 172.111,3.5906 180.111,8.75727 187.5,15C 200.8,26.6321 213.8,38.6321 226.5,51C 236.186,58.8409 246.52,65.6743 257.5,71.5C 270.5,68.5625 283.667,66.8958 297,66.5C 312.974,67.0608 328.808,68.5608 344.5,71C 354.777,64.3893 364.777,57.3893 374.5,50C 390.313,33.5123 407.313,18.5123 425.5,5C 429.259,3.12073 432.925,1.28739 436.5,-0.5C 442.5,-0.5 448.5,-0.5 454.5,-0.5C 464.238,4.59686 470.405,12.5969 473,23.5C 477.85,46.5696 479.683,69.9029 478.5,93.5C 478.333,111.506 478,129.506 477.5,147.5C 485.969,147.633 490.636,151.967 491.5,160.5C 491.032,163.547 490.032,166.381 488.5,169C 502.29,167.121 507.79,172.955 505,186.5C 503.439,189.783 501.273,192.617 498.5,195C 507.766,201.059 509.432,208.725 503.5,218C 510.12,229.403 516.62,240.903 523,252.5C 528.09,261.621 527.256,270.121 520.5,278C 529.847,306.052 536.513,334.719 540.5,364C 540.868,377.624 534.368,384.791 521,385.5C 512.279,442.787 486.446,490.621 443.5,529C 438.111,533.389 432.444,537.389 426.5,541C 419.349,542.393 413.183,540.56 408,535.5C 380.133,564.009 347.633,585.342 310.5,599.5C 302.833,599.5 295.167,599.5 287.5,599.5C 250.588,585.439 218.255,564.272 190.5,536C 187.312,537.594 183.979,539.261 180.5,541C 175.928,541.887 171.595,541.22 167.5,539C 117.021,500.105 86.8546,448.938 77,385.5C 63.1551,384.811 56.9884,377.478 58.5,363.5C 62.3278,334.188 68.9945,305.521 78.5,277.5C 73.9068,273.132 72.0735,267.799 73,261.5C 78.3546,245.622 86.1879,231.122 96.5,218C 90.3293,209.034 91.6626,201.367 100.5,195C 93.2012,188.622 91.7012,181.122 96,172.5C 100.254,168.753 105.088,167.586 110.5,169C 107.707,163.092 107.874,157.258 111,151.5C 114.04,148.034 117.874,146.7 122.5,147.5C 119.848,112.15 120.015,76.8165 123,41.5C 123.663,26.4867 129.163,13.6534 139.5,3C 141.727,2.05898 143.727,0.892318 145.5,-0.5 Z"/></g>
<g><path style="opacity:1" fill="#f5f5f5" d="M 500.5,423.5 C 459.167,382.5 417.833,341.5 376.5,300.5C 375.745,298.534 374.579,298.2 373,299.5C 370.434,306.39 367.601,313.057 364.5,319.5C 353.702,309.202 343.035,298.702 332.5,288C 331.906,287.536 331.239,287.369 330.5,287.5C 326.397,280.935 320.397,277.101 312.5,276C 299.681,273.113 287.348,274.447 275.5,280C 265.288,289.855 263.788,301.022 271,313.5C 273.711,317.712 277.211,321.046 281.5,323.5C 284.434,327.773 287.767,331.773 291.5,335.5C 282.232,337.267 272.899,338.6 263.5,339.5C 252.214,340.607 243.714,336.274 238,326.5C 233.748,318.078 230.082,309.412 227,300.5C 225.989,299.663 224.822,299.33 223.5,299.5C 225.074,311.724 228.574,323.391 234,334.5C 242.281,346.449 250.948,358.115 260,369.5C 263.078,373.085 266.578,376.085 270.5,378.5C 319.916,429.417 369.916,479.917 420.5,530C 420.272,530.399 419.938,530.565 419.5,530.5C 415.713,528.548 412.713,525.714 410.5,522C 409.167,521.333 407.833,521.333 406.5,522C 378.35,552.905 344.683,575.572 305.5,590C 299.763,590.789 294.097,590.456 288.5,589C 251.219,573.857 218.886,551.524 191.5,522C 190.167,521.333 188.833,521.333 187.5,522C 185.126,524.039 183.126,526.372 181.5,529C 179.933,530.076 178.266,530.909 176.5,531.5C 173.205,530.184 170.205,528.351 167.5,526C 120.62,486.425 93.4536,435.925 86,374.5C 85.044,373.106 83.7106,372.439 82,372.5C 78.5881,373.866 75.0881,374.366 71.5,374C 70.2986,373.097 69.4652,371.931 69,370.5C 68.4546,358.313 69.7879,346.313 73,334.5C 78.5418,312.715 84.3751,291.048 90.5,269.5C 87.9556,269.896 85.7889,269.229 84,267.5C 83.2153,261.381 84.5487,255.714 88,250.5C 95.6359,238.033 103.469,225.7 111.5,213.5C 108.659,211.476 105.659,209.809 102.5,208.5C 103.04,207.252 103.707,206.085 104.5,205C 109.503,202.958 114.17,200.458 118.5,197.5C 113.875,193.376 109.375,189.043 105,184.5C 103.813,182.956 103.48,181.289 104,179.5C 112.344,180.482 120.844,180.482 129.5,179.5C 125.254,174.68 121.754,169.347 119,163.5C 118.054,161.044 118.554,159.044 120.5,157.5C 124.533,160.019 128.866,161.686 133.5,162.5C 131.174,122.509 131.008,82.5087 133,42.5C 133.436,30.1716 137.936,19.6716 146.5,11C 151.314,8.1074 156.314,7.77406 161.5,10C 173.397,17.119 184.397,25.4523 194.5,35C 212.235,54.095 232.401,69.9283 255,82.5C 269.273,78.9559 283.773,77.2892 298.5,77.5C 314.65,78.0177 330.65,79.5177 346.5,82C 369.481,68.3682 390.147,51.7015 408.5,32C 415.317,26.0936 422.317,20.427 429.5,15C 443.523,4.26579 454.357,6.76579 462,22.5C 464.562,30.308 466.228,38.308 467,46.5C 468.879,80.8359 468.712,115.169 466.5,149.5C 466.833,153.833 467.167,158.167 467.5,162.5C 471.996,161.079 476.329,159.412 480.5,157.5C 480.662,159.527 480.495,161.527 480,163.5C 477.124,169.423 473.624,174.923 469.5,180C 478.288,180.961 486.954,180.461 495.5,178.5C 495.66,180.199 495.494,181.866 495,183.5C 490.434,188.066 485.934,192.566 481.5,197C 481.759,198.261 482.426,199.261 483.5,200C 486.717,201.637 490.05,202.97 493.5,204C 496.21,205.46 496.876,207.46 495.5,210C 493.236,210.236 491.069,210.736 489,211.5C 488.333,212.833 488.333,214.167 489,215.5C 498.594,229.926 507.26,244.926 515,260.5C 515.667,262.833 515.667,265.167 515,267.5C 512.876,268.227 510.709,268.894 508.5,269.5C 508.167,270.167 507.833,270.833 507.5,271.5C 518.362,300.781 525.695,330.947 529.5,362C 530.992,373.673 526.325,377.173 515.5,372.5C 513.971,372.529 512.804,373.196 512,374.5C 510.077,391.426 506.244,407.759 500.5,423.5 Z"/></g>
<g><path style="opacity:1" fill="#020202" d="M 160.5,39.5 C 167.795,38.2286 174.128,40.0619 179.5,45C 191.486,55.6444 201.986,67.4777 211,80.5C 212.976,85.0749 211.81,88.7416 207.5,91.5C 215.57,96.5702 216.57,102.737 210.5,110C 207.901,110.769 205.401,110.602 203,109.5C 202.774,112.095 202.274,114.595 201.5,117C 198.833,117.667 196.167,117.667 193.5,117C 191.315,114.256 188.649,112.59 185.5,112C 190.158,117.124 192.658,122.957 193,129.5C 190.831,133.19 187.664,134.857 183.5,134.5C 182.929,138.886 180.595,140.552 176.5,139.5C 175.646,146.193 171.812,149.859 165,150.5C 162.186,150.592 159.853,149.592 158,147.5C 155.555,143.503 153.888,139.169 153,134.5C 147.92,105.022 148.587,75.6885 155,46.5C 155.967,43.3794 157.8,41.046 160.5,39.5 Z"/></g>
<g><path style="opacity:1" fill="#020202" d="M 426.5,143.5 C 426.5,142.167 426.5,140.833 426.5,139.5C 424.833,139.5 423.167,139.5 421.5,139.5C 419.273,138.599 418.273,136.933 418.5,134.5C 413.013,134.195 409.346,131.362 407.5,126C 409.617,121.716 411.95,117.549 414.5,113.5C 414.167,113.167 413.833,112.833 413.5,112.5C 410.952,115.561 407.785,117.561 404,118.5C 399.444,117.315 397.278,114.315 397.5,109.5C 390.032,110.536 386.532,107.202 387,99.5C 389.312,96.354 391.812,93.354 394.5,90.5C 390.352,88.8716 388.852,85.8716 390,81.5C 399.741,67.7575 410.907,55.2575 423.5,44C 438.65,34.4767 447.15,38.6433 449,56.5C 452.317,81.504 452.317,106.504 449,131.5C 448.622,138.319 446.122,144.152 441.5,149C 434.776,151.631 429.776,149.798 426.5,143.5 Z"/></g>
<g><path style="opacity:1" fill="#706f6f" d="M 432.5,44.5 C 438.47,41.8547 441.803,43.8547 442.5,50.5C 441.31,48.6455 439.977,46.8121 438.5,45C 436.527,44.5045 434.527,44.3379 432.5,44.5 Z"/></g>
<g><path style="opacity:1" fill="#e1b8c5" d="M 162.5,44.5 C 164.527,44.3379 166.527,44.5045 168.5,45C 170.886,46.1932 173.22,47.3599 175.5,48.5C 176.585,50.5869 178.251,51.9202 180.5,52.5C 182.167,53.5 183.5,54.8333 184.5,56.5C 187.101,60.7706 190.434,64.4372 194.5,67.5C 195.419,70.0892 197.086,72.0892 199.5,73.5C 201.984,75.8003 203.984,78.4669 205.5,81.5C 206.087,82.7666 206.087,83.7666 205.5,84.5C 203.677,83.2528 201.677,82.5861 199.5,82.5C 194.989,81.0689 190.655,79.4022 186.5,77.5C 184.485,76.0762 182.152,75.4095 179.5,75.5C 177.585,75.7845 175.919,75.4511 174.5,74.5C 172.372,73.3709 170.039,73.2042 167.5,74C 168.91,75.3717 170.577,76.205 172.5,76.5C 175.485,77.3257 178.151,78.659 180.5,80.5C 182.336,82.588 184.669,83.9213 187.5,84.5C 194.321,87.3308 200.321,91.3308 205.5,96.5C 207.705,98.3634 209.039,100.697 209.5,103.5C 207.973,107.442 206.306,107.442 204.5,103.5C 202.833,99.8333 200.167,97.1667 196.5,95.5C 195.198,93.1782 193.198,91.8449 190.5,91.5C 188.742,91.1231 187.075,90.4565 185.5,89.5C 184.893,89.6236 184.56,89.9569 184.5,90.5C 185.419,93.0892 187.086,95.0892 189.5,96.5C 193.01,99.3577 195.343,103.024 196.5,107.5C 196.815,109.226 196.981,110.893 197,112.5C 195.871,110.859 194.371,109.859 192.5,109.5C 191.198,107.178 189.198,105.845 186.5,105.5C 185.089,103.461 183.089,102.461 180.5,102.5C 178.735,101.539 176.735,101.205 174.5,101.5C 174.263,102.791 174.596,103.791 175.5,104.5C 179.665,110.158 183.332,116.158 186.5,122.5C 186.511,124.017 187.177,125.184 188.5,126C 187.315,127.353 185.981,128.52 184.5,129.5C 182.741,126.734 180.407,124.734 177.5,123.5C 175.973,123.573 174.973,122.906 174.5,121.5C 173.264,119.957 171.598,118.957 169.5,118.5C 169.167,118.833 168.833,119.167 168.5,119.5C 170.188,121.854 172.188,123.854 174.5,125.5C 176.777,127.874 178.444,130.707 179.5,134C 179.164,135.03 178.497,135.53 177.5,135.5C 176.415,133.413 174.749,132.08 172.5,131.5C 170.973,131.573 169.973,130.906 169.5,129.5C 167.474,127.498 165.141,127.164 162.5,128.5C 163.361,130.911 164.694,132.911 166.5,134.5C 169.806,136.767 171.14,139.767 170.5,143.5C 166.634,146.484 163.134,146.151 160,142.5C 157.151,134.409 155.485,126.076 155,117.5C 154.333,102.167 154.333,86.8333 155,71.5C 155.324,64.8769 156.49,58.5435 158.5,52.5C 159.801,49.8987 161.134,47.232 162.5,44.5 Z"/></g>
<g><path style="opacity:1" fill="#e1b8c4" d="M 432.5,44.5 C 434.527,44.3379 436.527,44.5045 438.5,45C 439.977,46.8121 441.31,48.6455 442.5,50.5C 444.474,55.1825 445.641,60.1825 446,65.5C 447.981,84.8347 447.981,104.168 446,123.5C 445.386,128.758 444.219,133.758 442.5,138.5C 440.992,140.181 439.992,142.181 439.5,144.5C 437.011,144.702 434.677,144.202 432.5,143C 431.587,141.586 431.587,140.086 432.5,138.5C 434.95,136.371 436.617,133.704 437.5,130.5C 437.53,129.503 437.03,128.836 436,128.5C 432.106,129.912 428.606,131.912 425.5,134.5C 424.624,134.631 423.957,134.298 423.5,133.5C 424.788,131.261 425.788,128.928 426.5,126.5C 429.165,124.36 431.498,121.86 433.5,119C 430.24,118.796 427.573,119.963 425.5,122.5C 422.269,124.22 419.436,126.553 417,129.5C 414.278,127.275 413.778,124.608 415.5,121.5C 417.087,117.317 419.421,113.65 422.5,110.5C 425.165,108.165 426.498,105.165 426.5,101.5C 424.265,101.205 422.265,101.539 420.5,102.5C 415.452,105.367 410.785,108.867 406.5,113C 405.207,113.49 403.873,113.657 402.5,113.5C 403.793,108.247 406.126,103.581 409.5,99.5C 411.587,98.4154 412.92,96.7488 413.5,94.5C 415.479,93.1879 417.145,91.5212 418.5,89.5C 416.201,88.2433 414.201,88.5767 412.5,90.5C 407.858,94.136 403.191,97.8027 398.5,101.5C 397.185,102.476 395.852,103.476 394.5,104.5C 393.28,104.113 392.613,103.28 392.5,102C 395.016,98.3184 398.016,95.1518 401.5,92.5C 403.975,89.7589 406.975,87.7589 410.5,86.5C 413.331,85.9213 415.664,84.588 417.5,82.5C 419.849,80.659 422.515,79.3257 425.5,78.5C 428.598,77.7841 431.264,76.2841 433.5,74C 431.288,73.2109 429.288,73.3775 427.5,74.5C 416.712,77.2631 406.212,80.9298 396,85.5C 394.97,85.1639 394.47,84.4972 394.5,83.5C 397.556,81.0515 399.889,78.0515 401.5,74.5C 402.08,72.2512 403.413,70.5846 405.5,69.5C 408.243,67.7607 410.243,65.4274 411.5,62.5C 415.5,59.1667 419.167,55.5 422.5,51.5C 425.125,48.1848 428.458,45.8514 432.5,44.5 Z"/></g>
<g><path style="opacity:1" fill="#6e6e6e" d="M 162.5,44.5 C 167.718,42.593 172.051,43.9263 175.5,48.5C 173.22,47.3599 170.886,46.1932 168.5,45C 166.527,44.5045 164.527,44.3379 162.5,44.5 Z"/></g>
<g><path style="opacity:1" fill="#6f6e6e" d="M 162.5,44.5 C 161.134,47.232 159.801,49.8987 158.5,52.5C 158.292,48.9152 159.625,46.2485 162.5,44.5 Z"/></g>
<g><path style="opacity:1" fill="#6f6e6e" d="M 175.5,48.5 C 177.749,49.0798 179.415,50.4131 180.5,52.5C 178.251,51.9202 176.585,50.5869 175.5,48.5 Z"/></g>
<g><path style="opacity:1" fill="#686968" d="M 422.5,51.5 C 419.167,55.5 415.5,59.1667 411.5,62.5C 414.167,57.8333 417.833,54.1667 422.5,51.5 Z"/></g>
<g><path style="opacity:1" fill="#797878" d="M 184.5,56.5 C 188.566,59.5628 191.899,63.2294 194.5,67.5C 190.434,64.4372 187.101,60.7706 184.5,56.5 Z"/></g>
<g><path style="opacity:1" fill="#757474" d="M 411.5,62.5 C 410.243,65.4274 408.243,67.7607 405.5,69.5C 406.757,66.5726 408.757,64.2393 411.5,62.5 Z"/></g>
<g><path style="opacity:1" fill="#707070" d="M 194.5,67.5 C 196.914,68.9108 198.581,70.9108 199.5,73.5C 197.086,72.0892 195.419,70.0892 194.5,67.5 Z"/></g>
<g><path style="opacity:1" fill="#6e6d6d" d="M 174.5,74.5 C 172.007,74.1307 171.34,74.7973 172.5,76.5C 170.577,76.205 168.91,75.3717 167.5,74C 170.039,73.2042 172.372,73.3709 174.5,74.5 Z"/></g>
<g><path style="opacity:1" fill="#6d6d6d" d="M 427.5,74.5 C 429.288,73.3775 431.288,73.2109 433.5,74C 431.264,76.2841 428.598,77.7841 425.5,78.5C 426.749,76.8639 428.416,75.6972 430.5,75C 429.552,74.5172 428.552,74.3505 427.5,74.5 Z"/></g>
<g><path style="opacity:1" fill="#706f70" d="M 179.5,75.5 C 182.152,75.4095 184.485,76.0762 186.5,77.5C 183.848,77.5905 181.515,76.9238 179.5,75.5 Z"/></g>
<g><path style="opacity:1" fill="#707070" d="M 401.5,74.5 C 399.889,78.0515 397.556,81.0515 394.5,83.5C 396.111,79.9485 398.444,76.9485 401.5,74.5 Z"/></g>
<g><path style="opacity:1" fill="#6d6c6d" d="M 180.5,80.5 C 183.331,81.0787 185.664,82.412 187.5,84.5C 184.669,83.9213 182.336,82.588 180.5,80.5 Z"/></g>
<g><path style="opacity:1" fill="#6f6e6e" d="M 417.5,82.5 C 415.664,84.588 413.331,85.9213 410.5,86.5C 412.336,84.412 414.669,83.0787 417.5,82.5 Z"/></g>
<g><path style="opacity:1" fill="#777676" d="M 205.5,81.5 C 207.104,82.287 207.771,83.6203 207.5,85.5C 204.351,85.5848 201.684,84.5848 199.5,82.5C 201.677,82.5861 203.677,83.2528 205.5,84.5C 206.087,83.7666 206.087,82.7666 205.5,81.5 Z"/></g>
<g><path style="opacity:1" fill="#6a6969" d="M 413.5,94.5 C 413.511,92.9826 414.177,91.8159 415.5,91C 414.552,90.5172 413.552,90.3505 412.5,90.5C 414.201,88.5767 416.201,88.2433 418.5,89.5C 417.145,91.5212 415.479,93.1879 413.5,94.5 Z"/></g>
<g><path style="opacity:1" fill="#706f70" d="M 190.5,91.5 C 193.198,91.8449 195.198,93.1782 196.5,95.5C 194.147,94.6597 192.147,93.3264 190.5,91.5 Z"/></g>
<g><path style="opacity:1" fill="#757474" d="M 184.5,90.5 C 186.914,91.9108 188.581,93.9108 189.5,96.5C 187.086,95.0892 185.419,93.0892 184.5,90.5 Z"/></g>
<g><path style="opacity:1" fill="#737273" d="M 196.5,95.5 C 200.167,97.1667 202.833,99.8333 204.5,103.5C 201.5,101.167 198.833,98.5 196.5,95.5 Z"/></g>
<g><path style="opacity:1" fill="#6e6e6e" d="M 205.5,96.5 C 209.606,97.5444 210.939,99.8777 209.5,103.5C 209.039,100.697 207.705,98.3634 205.5,96.5 Z"/></g>
<g><path style="opacity:1" fill="#767575" d="M 413.5,94.5 C 412.92,96.7488 411.587,98.4154 409.5,99.5C 410.08,97.2512 411.413,95.5846 413.5,94.5 Z"/></g>
<g><path style="opacity:1" fill="#858283" d="M 401.5,92.5 C 398.016,95.1518 395.016,98.3184 392.5,102C 392.613,103.28 393.28,104.113 394.5,104.5C 395.852,103.476 397.185,102.476 398.5,101.5C 397.872,104.955 395.872,106.122 392.5,105C 391.424,103.274 391.257,101.441 392,99.5C 394.501,96.1517 397.668,93.8184 401.5,92.5 Z"/></g>
<g><path style="opacity:1" fill="#727171" d="M 180.5,102.5 C 178.219,102.077 176.552,102.744 175.5,104.5C 174.596,103.791 174.263,102.791 174.5,101.5C 176.735,101.205 178.735,101.539 180.5,102.5 Z"/></g>
<g><path style="opacity:1" fill="#707070" d="M 420.5,102.5 C 422.265,101.539 424.265,101.205 426.5,101.5C 426.498,105.165 425.165,108.165 422.5,110.5C 423.212,108.072 424.212,105.739 425.5,103.5C 423.955,102.548 422.288,102.215 420.5,102.5 Z"/></g>
<g><path style="opacity:1" fill="#6e6d6d" d="M 180.5,102.5 C 183.089,102.461 185.089,103.461 186.5,105.5C 184.181,105.008 182.181,104.008 180.5,102.5 Z"/></g>
<g><path style="opacity:1" fill="#6f6f6f" d="M 186.5,105.5 C 189.198,105.845 191.198,107.178 192.5,109.5C 190.147,108.66 188.147,107.326 186.5,105.5 Z"/></g>
<g><path style="opacity:1" fill="#878485" d="M 196.5,107.5 C 198.074,109.102 198.741,111.102 198.5,113.5C 195.708,113.378 193.708,112.044 192.5,109.5C 194.371,109.859 195.871,110.859 197,112.5C 196.981,110.893 196.815,109.226 196.5,107.5 Z"/></g>
<g><path style="opacity:1" fill="#6c6c6c" d="M 426.5,126.5 C 426.859,124.629 427.859,123.129 429.5,122C 428.181,121.805 426.847,121.972 425.5,122.5C 427.573,119.963 430.24,118.796 433.5,119C 431.498,121.86 429.165,124.36 426.5,126.5 Z"/></g>
<g><path style="opacity:1" fill="#6b6b6b" d="M 174.5,121.5 C 173.761,121.369 173.094,121.536 172.5,122C 173.823,122.816 174.489,123.983 174.5,125.5C 172.188,123.854 170.188,121.854 168.5,119.5C 168.833,119.167 169.167,118.833 169.5,118.5C 171.598,118.957 173.264,119.957 174.5,121.5 Z"/></g>
<g><path style="opacity:1" fill="#958d8f" d="M 415.5,121.5 C 413.778,124.608 414.278,127.275 417,129.5C 419.436,126.553 422.269,124.22 425.5,122.5C 423.154,125.679 420.321,128.346 417,130.5C 411.713,128.167 411.213,125.167 415.5,121.5 Z"/></g>
<g><path style="opacity:1" fill="#737272" d="M 169.5,129.5 C 167.669,128.948 166.003,128.948 164.5,129.5C 165.456,131.075 166.123,132.742 166.5,134.5C 164.694,132.911 163.361,130.911 162.5,128.5C 165.141,127.164 167.474,127.498 169.5,129.5 Z"/></g>
<g><path style="opacity:1" fill="#777676" d="M 186.5,122.5 C 190.662,126.052 189.995,128.719 184.5,130.5C 181.839,128.506 179.506,126.173 177.5,123.5C 180.407,124.734 182.741,126.734 184.5,129.5C 185.981,128.52 187.315,127.353 188.5,126C 187.177,125.184 186.511,124.017 186.5,122.5 Z"/></g>
<g><path style="opacity:1" fill="#737272" d="M 426.5,126.5 C 425.788,128.928 424.788,131.261 423.5,133.5C 423.957,134.298 424.624,134.631 425.5,134.5C 424.791,135.404 423.791,135.737 422.5,135.5C 422.502,131.835 423.835,128.835 426.5,126.5 Z"/></g>
<g><path style="opacity:1" fill="#6d6c6c" d="M 172.5,131.5 C 174.749,132.08 176.415,133.413 177.5,135.5C 175.251,134.92 173.585,133.587 172.5,131.5 Z"/></g>
<g><path style="opacity:1" fill="#757475" d="M 437.5,130.5 C 436.617,133.704 434.95,136.371 432.5,138.5C 433.383,135.296 435.05,132.629 437.5,130.5 Z"/></g>
<g><path style="opacity:1" fill="#838383" d="M 421.5,139.5 C 423.167,139.5 424.833,139.5 426.5,139.5C 426.5,140.833 426.5,142.167 426.5,143.5C 425.596,142.791 425.263,141.791 425.5,140.5C 423.901,140.768 422.568,140.434 421.5,139.5 Z"/></g>
<g><path style="opacity:1" fill="#6c6b6b" d="M 442.5,138.5 C 442.539,141.089 441.539,143.089 439.5,144.5C 439.992,142.181 440.992,140.181 442.5,138.5 Z"/></g>
<g><path style="opacity:1" fill="#767576" d="M 432.5,138.5 C 431.587,140.086 431.587,141.586 432.5,143C 434.677,144.202 437.011,144.702 439.5,144.5C 436.893,145.802 434.227,145.636 431.5,144C 430.02,141.765 430.353,139.932 432.5,138.5 Z"/></g>
<g><path style="opacity:1" fill="#38302c" d="M 238.5,206.5 C 257.353,205.852 266.186,214.852 265,233.5C 260.746,246.216 251.913,251.716 238.5,250C 222.513,243.52 218.013,232.353 225,216.5C 228.531,211.795 233.031,208.462 238.5,206.5 Z"/></g>
<g><path style="opacity:1" fill="#38302c" d="M 350.5,206.5 C 371.677,206.504 380.177,216.838 376,237.5C 369.72,249.119 360.22,252.953 347.5,249C 334.249,241.345 330.749,230.512 337,216.5C 340.555,211.763 345.055,208.43 350.5,206.5 Z"/></g>
<g><path style="opacity:1" fill="#f0f0ef" d="M 248.5,217.5 C 255.486,217.331 257.153,220.164 253.5,226C 246.416,226.475 244.749,223.642 248.5,217.5 Z"/></g>
<g><path style="opacity:1" fill="#f0efef" d="M 362.5,217.5 C 369.492,217.976 370.825,220.809 366.5,226C 359.4,225.752 358.067,222.919 362.5,217.5 Z"/></g>
<g><path style="opacity:1" fill="#372f2b" d="M 330.5,287.5 C 335.575,305.117 329.908,317.951 313.5,326C 302.426,329.826 291.759,328.993 281.5,323.5C 277.211,321.046 273.711,317.712 271,313.5C 263.788,301.022 265.288,289.855 275.5,280C 287.348,274.447 299.681,273.113 312.5,276C 320.397,277.101 326.397,280.935 330.5,287.5 Z"/></g>
<g><path style="opacity:1" fill="#e7e7e7" d="M 330.5,287.5 C 331.239,287.369 331.906,287.536 332.5,288C 343.035,298.702 353.702,309.202 364.5,319.5C 360.388,333.55 351.054,340.217 336.5,339.5C 326.394,338.76 316.394,337.26 306.5,335C 301.448,334.274 296.448,334.441 291.5,335.5C 287.767,331.773 284.434,327.773 281.5,323.5C 291.759,328.993 302.426,329.826 313.5,326C 329.908,317.951 335.575,305.117 330.5,287.5 Z"/></g>
<g><path style="opacity:1" fill="#372e2a" d="M 376.5,300.5 C 374.636,313.593 370.469,325.926 364,337.5C 354.363,352.278 343.197,365.778 330.5,378C 315.926,385.437 300.592,387.437 284.5,384C 279.482,382.988 274.815,381.155 270.5,378.5C 266.578,376.085 263.078,373.085 260,369.5C 250.948,358.115 242.281,346.449 234,334.5C 228.574,323.391 225.074,311.724 223.5,299.5C 224.822,299.33 225.989,299.663 227,300.5C 230.082,309.412 233.748,318.078 238,326.5C 243.714,336.274 252.214,340.607 263.5,339.5C 263.263,340.791 263.596,341.791 264.5,342.5C 265.639,353.761 270.306,363.261 278.5,371C 284.611,374.906 291.278,376.406 298.5,375.5C 314.768,377.124 325.935,370.458 332,355.5C 333.815,350.237 335.315,344.904 336.5,339.5C 351.054,340.217 360.388,333.55 364.5,319.5C 367.601,313.057 370.434,306.39 373,299.5C 374.579,298.2 375.745,298.534 376.5,300.5 Z"/></g>
<g><path style="opacity:1" fill="#e9e9e9" d="M 376.5,300.5 C 417.833,341.5 459.167,382.5 500.5,423.5C 486.791,466.441 462.124,501.607 426.5,529C 424.726,529.97 422.893,530.804 421,531.5C 420.235,531.43 419.735,531.097 419.5,530.5C 419.938,530.565 420.272,530.399 420.5,530C 369.916,479.917 319.916,429.417 270.5,378.5C 274.815,381.155 279.482,382.988 284.5,384C 300.592,387.437 315.926,385.437 330.5,378C 343.197,365.778 354.363,352.278 364,337.5C 370.469,325.926 374.636,313.593 376.5,300.5 Z"/></g>
<g><path style="opacity:1" fill="#d696b5" d="M 336.5,339.5 C 335.315,344.904 333.815,350.237 332,355.5C 325.935,370.458 314.768,377.124 298.5,375.5C 287.5,363.49 276.166,352.49 264.5,342.5C 263.596,341.791 263.263,340.791 263.5,339.5C 272.899,338.6 282.232,337.267 291.5,335.5C 296.448,334.441 301.448,334.274 306.5,335C 316.394,337.26 326.394,338.76 336.5,339.5 Z"/></g>
<g><path style="opacity:1" fill="#e9a2c6" d="M 298.5,375.5 C 291.278,376.406 284.611,374.906 278.5,371C 270.306,363.261 265.639,353.761 264.5,342.5C 276.166,352.49 287.5,363.49 298.5,375.5 Z"/></g>
</svg>
