<?xml version="1.0" encoding="UTF-8"?>
<!DOCTYPE svg PUBLIC "-//W3C//DTD SVG 1.1//EN" "http://www.w3.org/Graphics/SVG/1.1/DTD/svg11.dtd">
<svg xmlns="http://www.w3.org/2000/svg" version="1.1" width="600px" height="600px" style="shape-rendering:geometricPrecision; text-rendering:geometricPrecision; image-rendering:optimizeQuality; fill-rule:evenodd; clip-rule:evenodd" xmlns:xlink="http://www.w3.org/1999/xlink">
<g><path style="opacity:0.952" fill="#010000" d="M 121.5,-0.5 C 134.167,-0.5 146.833,-0.5 159.5,-0.5C 182.562,20.0573 201.729,43.7239 217,70.5C 238.078,108.232 255.578,147.565 269.5,188.5C 289.361,183.19 309.195,183.19 329,188.5C 345.792,138.254 368.458,90.9202 397,46.5C 409.269,29.0668 423.436,13.4002 439.5,-0.5C 451.833,-0.5 464.167,-0.5 476.5,-0.5C 479.457,3.74926 481.623,8.41593 483,13.5C 496.147,63.7146 504.314,114.715 507.5,166.5C 506.17,193.829 505.003,221.162 504,248.5C 502.132,259.899 497.798,270.232 491,279.5C 487,284.167 483,288.833 479,293.5C 468.255,302.243 458.922,312.243 451,323.5C 445.335,365.494 434.668,406.161 419,445.5C 409.333,466.167 399.667,486.833 390,507.5C 383.572,528.212 378.239,549.212 374,570.5C 371.789,581.589 366.956,591.256 359.5,599.5C 319.5,599.5 279.5,599.5 239.5,599.5C 235.077,594.884 231.577,589.551 229,583.5C 222.489,558.457 215.822,533.457 209,508.5C 199.667,488.5 190.333,468.5 181,448.5C 164.693,408.606 153.693,367.273 148,324.5C 147,322.5 146,320.5 145,318.5C 131.603,305.772 118.936,292.438 107,278.5C 100.53,269.889 96.5301,260.222 95,249.5C 93.8999,221.506 92.7333,193.506 91.5,165.5C 94.4577,114.753 102.291,64.7527 115,15.5C 116.498,9.82791 118.664,4.49457 121.5,-0.5 Z"/></g>
<g><path style="opacity:1" fill="#794a29" d="M 478.5,39.5 C 478.672,40.4916 478.338,41.1583 477.5,41.5C 475.938,31.2051 470.938,23.0385 462.5,17C 453.865,14.8039 445.865,16.1373 438.5,21C 425.778,32.7118 414.944,45.8785 406,60.5C 385.419,96 370.086,133.667 360,173.5C 356.242,191.107 359.575,207.107 370,221.5C 387.651,238.523 403.651,256.857 418,276.5C 424.597,292.586 435.43,296.086 450.5,287C 461.875,277.302 471.375,266.135 479,253.5C 480.202,250.226 481.202,246.893 482,243.5C 483.892,227.551 485.226,211.551 486,195.5C 489.221,181.009 490.721,166.342 490.5,151.5C 490.024,128.077 488.358,104.744 485.5,81.5C 485.232,79.901 485.566,78.5676 486.5,77.5C 492.214,105.543 495.547,133.876 496.5,162.5C 495.112,189.146 494.278,215.813 494,242.5C 493.19,254.939 488.856,265.939 481,275.5C 469.642,287.858 457.975,299.858 446,311.5C 444.08,314.339 442.413,317.339 441,320.5C 435.331,362.513 424.664,403.18 409,442.5C 399.333,463.167 389.667,483.833 380,504.5C 374.688,522.75 369.855,541.084 365.5,559.5C 360.5,554.833 355.5,550.167 350.5,545.5C 349.499,526.973 340.166,514.473 322.5,508C 306.51,503.393 290.51,503.393 274.5,508C 248.759,521.465 242.926,540.965 257,566.5C 261.532,571.367 266.366,575.867 271.5,580C 278.169,583.279 285.169,585.446 292.5,586.5C 293.11,587.391 293.443,588.391 293.5,589.5C 283.931,593.078 274.097,595.744 264,597.5C 254.836,597.252 247.503,593.585 242,586.5C 238.741,579.723 236.074,572.723 234,565.5C 230.031,545.255 225.031,525.255 219,505.5C 209.667,485.5 200.333,465.5 191,445.5C 174.129,405.749 163.129,364.416 158,321.5C 156.171,317.172 153.838,313.172 151,309.5C 138.97,297.804 127.304,285.804 116,273.5C 108.832,263.333 104.832,252 104,239.5C 103.927,215.461 103.094,191.461 101.5,167.5C 104.484,114.597 112.984,62.5968 127,11.5C 130.776,1.86056 137.276,-0.639437 146.5,4C 160.585,13.4168 172.752,24.9168 183,38.5C 207.1,72.0167 227.1,108.017 243,146.5C 249.557,162.951 255.557,179.618 261,196.5C 262.822,198.045 264.989,198.712 267.5,198.5C 288.833,194.5 310.167,194.5 331.5,198.5C 333.429,198.46 335.262,198.127 337,197.5C 355.067,140.702 381.067,88.0351 415,39.5C 426.341,24.1551 440.174,11.6551 456.5,2C 464.533,1.00266 469.699,4.50266 472,12.5C 474.956,21.3225 477.122,30.3225 478.5,39.5 Z"/></g>
<g><path style="opacity:1" fill="#080402" d="M 477.5,41.5 C 480.61,54.843 483.276,68.1764 485.5,81.5C 488.358,104.744 490.024,128.077 490.5,151.5C 490.721,166.342 489.221,181.009 486,195.5C 485.226,211.551 483.892,227.551 482,243.5C 481.202,246.893 480.202,250.226 479,253.5C 471.375,266.135 461.875,277.302 450.5,287C 435.43,296.086 424.597,292.586 418,276.5C 403.651,256.857 387.651,238.523 370,221.5C 359.575,207.107 356.242,191.107 360,173.5C 370.086,133.667 385.419,96 406,60.5C 414.944,45.8785 425.778,32.7118 438.5,21C 445.865,16.1373 453.865,14.8039 462.5,17C 470.938,23.0385 475.938,31.2051 477.5,41.5 Z"/></g>
<g><path style="opacity:1" fill="#090502" d="M 142.5,15.5 C 146.163,15.9518 149.83,16.4518 153.5,17C 164.625,24.4578 174.125,33.6244 182,44.5C 209.119,84.951 228.119,128.951 239,176.5C 241.515,191.594 238.848,205.594 231,218.5C 218.632,231.2 206.632,244.2 195,257.5C 187.593,266.645 180.926,276.311 175,286.5C 173.442,288.359 171.609,289.859 169.5,291C 164.5,291.667 159.5,291.667 154.5,291C 135.998,278.84 123.165,262.34 116,241.5C 114.305,227.215 113.305,212.882 113,198.5C 108.196,170.659 107.196,142.659 110,114.5C 111.973,86.3542 116.639,58.6875 124,31.5C 127.721,22.9191 133.888,17.5858 142.5,15.5 Z"/></g>
<g><path style="opacity:1" fill="#b88072" d="M 229.5,179.5 C 229.999,188.365 228.999,197.031 226.5,205.5C 224.196,208.658 222.03,211.991 220,215.5C 199.195,235.29 181.029,257.123 165.5,281C 161.88,281.841 158.546,281.174 155.5,279C 129.175,258.352 118.342,231.185 123,197.5C 117.406,163.915 117.073,130.248 122,96.5C 123.989,74.2179 128.656,52.5512 136,31.5C 138.166,28.4931 140.999,26.4931 144.5,25.5C 153.192,28.6803 160.359,34.0136 166,41.5C 196.616,83.0703 217.783,129.07 229.5,179.5 Z"/></g>
<g><path style="opacity:1" fill="#b88072" d="M 402.5,241.5 C 396.557,233.889 389.891,226.889 382.5,220.5C 371.343,208.196 367.176,193.863 370,177.5C 380.864,134.045 398.031,93.3782 421.5,55.5C 429.461,44.5386 438.794,34.8719 449.5,26.5C 457.529,24.9804 462.696,28.3138 465,36.5C 476.583,80.0766 481.583,124.41 480,169.5C 478.883,177.536 477.55,185.536 476,193.5C 475.299,208.9 473.966,224.234 472,239.5C 468.648,250.538 462.982,260.205 455,268.5C 449.745,274.275 443.578,278.608 436.5,281.5C 434.626,281.61 433.126,280.944 432,279.5C 423.839,265.498 414.005,252.832 402.5,241.5 Z"/></g>
<g><path style="opacity:1" fill="#3e2718" d="M 449.5,26.5 C 438.794,34.8719 429.461,44.5386 421.5,55.5C 427.09,45.3929 434.423,36.5596 443.5,29C 445.217,27.4412 447.217,26.6079 449.5,26.5 Z"/></g>
<g><path style="opacity:1" fill="#59371e" d="M 478.5,39.5 C 481.785,51.9165 484.451,64.5832 486.5,77.5C 485.566,78.5676 485.232,79.901 485.5,81.5C 483.276,68.1764 480.61,54.843 477.5,41.5C 478.338,41.1583 478.672,40.4916 478.5,39.5 Z"/></g>
<g><path style="opacity:1" fill="#342013" d="M 229.5,179.5 C 230.651,184.65 230.817,189.984 230,195.5C 229.698,199.245 228.531,202.578 226.5,205.5C 228.999,197.031 229.999,188.365 229.5,179.5 Z"/></g>
<g><path style="opacity:1" fill="#362114" d="M 382.5,220.5 C 389.891,226.889 396.557,233.889 402.5,241.5C 395.109,235.111 388.443,228.111 382.5,220.5 Z"/></g>
<g><path style="opacity:1" fill="#61422d" d="M 222.5,333.5 C 243.523,331.823 255.523,341.323 258.5,362C 253.339,386.414 239.006,394.414 215.5,386C 201.896,375.95 198.396,363.116 205,347.5C 209.311,340.782 215.144,336.115 222.5,333.5 Z"/></g>
<g><path style="opacity:1" fill="#61422d" d="M 361.5,333.5 C 382.226,331.841 394.226,341.175 397.5,361.5C 394.184,381.995 382.184,391.162 361.5,389C 346.133,383.106 339.3,371.939 341,355.5C 344.259,344.744 351.092,337.411 361.5,333.5 Z"/></g>
<g><path style="opacity:1" fill="#020201" d="M 225.5,342.5 C 242.137,341.97 249.637,349.97 248,366.5C 241.979,380.287 232.146,383.787 218.5,377C 211.963,371.245 209.797,364.078 212,355.5C 214.417,348.915 218.917,344.582 225.5,342.5 Z"/></g>
<g><path style="opacity:1" fill="#010100" d="M 363.5,342.5 C 380.602,341.606 388.435,349.606 387,366.5C 383.338,377.252 375.838,381.752 364.5,380C 351.501,375.043 347.334,365.876 352,352.5C 354.794,347.866 358.627,344.533 363.5,342.5 Z"/></g>
<g><path style="opacity:1" fill="#f4f4f4" d="M 232.5,352.5 C 240.486,351.998 242.486,355.165 238.5,362C 230.424,362.805 228.424,359.638 232.5,352.5 Z"/></g>
<g><path style="opacity:1" fill="#ebebeb" d="M 373.5,351.5 C 380.985,352.805 382.319,356.305 377.5,362C 372.16,362.989 369.66,360.822 370,355.5C 370.69,353.65 371.856,352.316 373.5,351.5 Z"/></g>
<g><path style="opacity:1" fill="#050201" d="M 350.5,545.5 C 349.28,552.346 347.113,559.012 344,565.5C 330.53,581.337 313.364,588.337 292.5,586.5C 285.169,585.446 278.169,583.279 271.5,580C 266.366,575.867 261.532,571.367 257,566.5C 242.926,540.965 248.759,521.465 274.5,508C 290.51,503.393 306.51,503.393 322.5,508C 340.166,514.473 349.499,526.973 350.5,545.5 Z"/></g>
<g><path style="opacity:1" fill="#502e13" d="M 289.5,514.5 C 309.178,511.447 325.344,517.447 338,532.5C 343.048,554.545 334.548,568.712 312.5,575C 292.657,580.053 276.491,574.553 264,558.5C 256.92,544.988 258.753,532.821 269.5,522C 276.125,519.179 282.792,516.679 289.5,514.5 Z"/></g>
<g><path style="opacity:1" fill="#6e4226" d="M 350.5,545.5 C 355.5,550.167 360.5,554.833 365.5,559.5C 364.411,572.505 359.411,583.672 350.5,593C 342.222,597.438 333.556,598.438 324.5,596C 317.228,593.465 309.895,591.132 302.5,589C 299.445,588.366 296.445,588.532 293.5,589.5C 293.443,588.391 293.11,587.391 292.5,586.5C 313.364,588.337 330.53,581.337 344,565.5C 347.113,559.012 349.28,552.346 350.5,545.5 Z"/></g>
</svg>
