<?xml version="1.0" encoding="UTF-8"?>
<!DOCTYPE svg PUBLIC "-//W3C//DTD SVG 1.1//EN" "http://www.w3.org/Graphics/SVG/1.1/DTD/svg11.dtd">
<svg xmlns="http://www.w3.org/2000/svg" version="1.1" width="600px" height="600px" style="shape-rendering:geometricPrecision; text-rendering:geometricPrecision; image-rendering:optimizeQuality; fill-rule:evenodd; clip-rule:evenodd" xmlns:xlink="http://www.w3.org/1999/xlink">
<g><path style="opacity:0.954" fill="#010100" d="M 599.5,217.5 C 599.5,227.5 599.5,237.5 599.5,247.5C 596.304,258.895 591.804,269.895 586,280.5C 574.441,298.06 562.107,315.06 549,331.5C 542.243,341.342 536.243,351.675 531,362.5C 528.477,369.634 526.811,376.967 526,384.5C 524.501,396.149 523.168,407.816 522,419.5C 517.583,430.058 510.416,432.225 500.5,426C 487.088,412.354 477.921,396.187 473,377.5C 470.431,368.324 468.765,358.991 468,349.5C 459.413,366.606 450.079,383.273 440,399.5C 435.454,413.539 434.288,427.873 436.5,442.5C 437.739,456.408 434.905,469.408 428,481.5C 425.667,483.833 423.333,486.167 421,488.5C 419.031,507.72 413.365,525.72 404,542.5C 389.8,559.351 371.633,566.185 349.5,563C 345.131,562.158 340.797,561.158 336.5,560C 324.146,554.821 311.813,549.655 299.5,544.5C 287.312,549.953 274.978,555.12 262.5,560C 222.2,570.606 196.033,556.106 184,516.5C 181.104,507.022 179.104,497.356 178,487.5C 173.091,478.775 169.757,469.441 168,459.5C 166.028,446.248 165.028,432.915 165,419.5C 164.515,413.742 163.515,408.075 162,402.5C 151.413,384.329 141.08,365.995 131,347.5C 129.423,371.229 122.423,393.229 110,413.5C 105.79,419.378 100.623,424.211 94.5,428C 85.2957,430.982 79.4624,427.815 77,418.5C 75.7383,402.74 73.7383,387.073 71,371.5C 66.6025,358.705 60.6025,346.705 53,335.5C 35.7141,314.54 20.3808,292.207 7,268.5C 4.16326,261.154 1.66326,253.821 -0.5,246.5C -0.5,237.167 -0.5,227.833 -0.5,218.5C 2.63904,206.876 7.47237,195.876 14,185.5C 49.7943,136.701 92.9609,95.8678 143.5,63C 163.02,50.8216 184.187,43.3216 207,40.5C 213.824,41.2657 220.657,41.9324 227.5,42.5C 274.168,33.1856 320.835,33.1856 367.5,42.5C 390.061,38.461 411.728,41.2944 432.5,51C 459.226,64.3535 483.893,80.6868 506.5,100C 536.969,126.456 563.803,155.956 587,188.5C 592.313,197.781 596.48,207.448 599.5,217.5 Z"/></g>
<g><path style="opacity:1" fill="#9f836f" d="M 391.5,51.5 C 400.217,54.9575 407.717,60.2909 414,67.5C 430.081,90.6557 445.414,114.322 460,138.5C 466.326,151.466 470.326,165.133 472,179.5C 473.33,189.132 474.33,198.798 475,208.5C 475.649,243.838 475.482,279.172 474.5,314.5C 472.61,314.297 471.11,314.963 470,316.5C 465.77,329.627 460.437,342.294 454,354.5C 446,367.833 438,381.167 430,394.5C 425.477,410.05 424.31,425.883 426.5,442C 427.157,454.362 424.324,465.862 418,476.5C 417.292,477.381 416.458,478.047 415.5,478.5C 412.174,450.231 404.007,423.231 391,397.5C 380.421,378.587 365.588,364.087 346.5,354C 314.805,342.697 283.138,342.697 251.5,354C 230.779,363.388 215.279,378.221 205,398.5C 193.958,422.459 186.458,447.459 182.5,473.5C 176.871,454.262 174.371,434.595 175,414.5C 174.298,408.361 172.965,402.361 171,396.5C 163.503,382.835 155.503,369.502 147,356.5C 139.831,342.992 133.831,328.992 129,314.5C 127.89,312.963 126.39,312.297 124.5,312.5C 123.442,279.175 123.275,245.841 124,212.5C 124.536,190.285 128.202,168.619 135,147.5C 149.838,116.667 169.338,89.167 193.5,65C 200.869,59.4833 208.869,55.3166 217.5,52.5C 244.213,49.1412 271.046,46.8079 298,45.5C 319.05,45.6862 339.883,47.8529 360.5,52C 370.843,52.5154 381.177,52.3488 391.5,51.5 Z"/></g>
<g><path style="opacity:1" fill="#362e2b" d="M 217.5,52.5 C 208.869,55.3166 200.869,59.4833 193.5,65C 169.338,89.167 149.838,116.667 135,147.5C 128.202,168.619 124.536,190.285 124,212.5C 123.275,245.841 123.442,279.175 124.5,312.5C 122.983,312.511 121.816,313.177 121,314.5C 124.807,348.698 117.807,380.364 100,409.5C 97.7193,412.903 94.886,415.737 91.5,418C 90.0563,418.781 88.723,418.614 87.5,417.5C 86.6151,397.473 83.4484,377.807 78,358.5C 66.1446,335.442 51.8113,314.108 35,294.5C 23.4983,279.497 15.1649,262.83 10,244.5C 8.61971,232.915 9.61971,221.582 13,210.5C 16.302,201.893 20.6353,193.893 26,186.5C 60.8715,140.62 102.371,102.12 150.5,71C 165.397,61.8853 181.397,55.5519 198.5,52C 204.87,51.2944 211.203,51.4611 217.5,52.5 Z"/></g>
<g><path style="opacity:1" fill="#362e2b" d="M 391.5,51.5 C 408.595,52.6085 424.595,57.4418 439.5,66C 472.498,84.9363 502.332,108.103 529,135.5C 547.174,154.332 563.84,174.332 579,195.5C 591.909,215.469 593.909,236.469 585,258.5C 581.78,266.608 577.78,274.274 573,281.5C 562.155,297.189 550.821,312.523 539,327.5C 532.577,336.674 526.91,346.34 522,356.5C 519.217,363.964 517.217,371.63 516,379.5C 514.133,392.344 512.633,405.177 511.5,418C 510.167,418.667 508.833,418.667 507.5,418C 497.081,407.342 489.581,394.842 485,380.5C 482.529,372.95 480.529,365.283 479,357.5C 478.667,343.833 478.333,330.167 478,316.5C 477.184,315.177 476.017,314.511 474.5,314.5C 475.482,279.172 475.649,243.838 475,208.5C 474.33,198.798 473.33,189.132 472,179.5C 470.326,165.133 466.326,151.466 460,138.5C 445.414,114.322 430.081,90.6557 414,67.5C 407.717,60.2909 400.217,54.9575 391.5,51.5 Z"/></g>
<g><path style="opacity:1" fill="#372f2c" d="M 219.5,180.5 C 232.865,178.9 245.532,181.067 257.5,187C 265.828,194.635 270.328,204.135 271,215.5C 271.953,248.367 263.286,278.367 245,305.5C 228.502,324.997 208.335,330.497 184.5,322C 175.383,313.621 168.883,303.455 165,291.5C 156.727,266.938 156.393,242.272 164,217.5C 170.951,203.216 181.784,193.05 196.5,187C 203.992,183.714 211.659,181.548 219.5,180.5 Z"/></g>
<g><path style="opacity:1" fill="#372f2c" d="M 358.5,180.5 C 383.561,178.3 405.561,185.3 424.5,201.5C 434.291,211.425 439.458,223.425 440,237.5C 442.861,263.007 438.194,287.007 426,309.5C 417.782,323.516 405.615,328.683 389.5,325C 373.696,323.014 361.196,315.514 352,302.5C 334.455,273.987 326.788,242.987 329,209.5C 332.176,192.822 342.009,183.155 358.5,180.5 Z"/></g>
<g><path style="opacity:1" fill="#6c5249" d="M 213.5,212.5 C 237.159,212.324 248.326,223.991 247,247.5C 238.697,267.228 224.53,273.061 204.5,265C 190.567,253.957 187.734,240.457 196,224.5C 200.84,218.847 206.673,214.847 213.5,212.5 Z"/></g>
<g><path style="opacity:1" fill="#6b5248" d="M 375.5,212.5 C 399.156,211.656 410.656,222.99 410,246.5C 401.419,268.03 386.585,273.863 365.5,264C 349.188,247.911 349.521,232.244 366.5,217C 369.592,215.454 372.592,213.954 375.5,212.5 Z"/></g>
<g><path style="opacity:1" fill="#302725" d="M 214.5,221.5 C 230.998,221.164 238.832,229.164 238,245.5C 231.497,259.557 221.331,263.057 207.5,256C 197.872,245.303 198.205,234.969 208.5,225C 210.879,224.284 212.879,223.117 214.5,221.5 Z"/></g>
<g><path style="opacity:1" fill="#2f2725" d="M 377.5,221.5 C 395.975,222.109 403.142,231.443 399,249.5C 391.51,260.041 382.01,262.208 370.5,256C 363.06,248.581 361.56,240.081 366,230.5C 369.158,226.493 372.992,223.493 377.5,221.5 Z"/></g>
<g><path style="opacity:1" fill="#ededed" d="M 221.5,230.5 C 229.818,230.987 231.485,234.487 226.5,241C 220.714,241.881 218.214,239.381 219,233.5C 220.045,232.627 220.878,231.627 221.5,230.5 Z"/></g>
<g><path style="opacity:1" fill="#ededed" d="M 384.5,230.5 C 392.818,230.987 394.485,234.487 389.5,241C 381.088,240.812 379.421,237.312 384.5,230.5 Z"/></g>
<g><path style="opacity:1" fill="#362e2b" d="M 415.5,478.5 C 413.897,479.596 412.397,480.93 411,482.5C 404.398,552.719 370.231,570.553 308.5,536C 305.331,535.166 302.164,534.332 299,533.5C 287.34,537.912 275.84,542.746 264.5,548C 242.112,558.21 222.278,554.71 205,537.5C 195.33,520.839 189.663,502.839 188,483.5C 186.423,480.011 184.589,476.677 182.5,473.5C 186.458,447.459 193.958,422.459 205,398.5C 215.279,378.221 230.779,363.388 251.5,354C 283.138,342.697 314.805,342.697 346.5,354C 365.588,364.087 380.421,378.587 391,397.5C 404.007,423.231 412.174,450.231 415.5,478.5 Z"/></g>
<g><path style="opacity:1" fill="#1c1413" d="M 288.5,380.5 C 304.933,379.64 320.933,381.807 336.5,387C 356.726,397.351 362.559,413.184 354,434.5C 347.396,445.771 338.229,454.271 326.5,460C 296.063,472.684 269.896,466.518 248,441.5C 237.558,427.309 236.892,412.643 246,397.5C 251.26,391.45 257.76,387.284 265.5,385C 273.178,382.835 280.845,381.335 288.5,380.5 Z"/></g>
</svg>
