<?xml version="1.0" encoding="UTF-8"?>
<!DOCTYPE svg PUBLIC "-//W3C//DTD SVG 1.1//EN" "http://www.w3.org/Graphics/SVG/1.1/DTD/svg11.dtd">
<svg xmlns="http://www.w3.org/2000/svg" version="1.1" width="600px" height="600px" style="shape-rendering:geometricPrecision; text-rendering:geometricPrecision; image-rendering:optimizeQuality; fill-rule:evenodd; clip-rule:evenodd" xmlns:xlink="http://www.w3.org/1999/xlink">
<g><path style="opacity:0.902" fill="#040200" d="M 144.5,-0.5 C 150.5,-0.5 156.5,-0.5 162.5,-0.5C 170.472,5.30603 177.305,12.306 183,20.5C 193.228,35.7327 203.062,51.2327 212.5,67C 217.31,66.0909 221.977,66.7575 226.5,69C 236.051,75.6151 245.051,82.9485 253.5,91C 256.729,93.6161 260.396,95.1161 264.5,95.5C 265.227,88.7454 264.394,82.0787 262,75.5C 259.914,68.3227 262.414,63.9894 269.5,62.5C 273.62,62.928 277.287,64.428 280.5,67C 286.788,75.077 292.955,83.2437 299,91.5C 304.955,83.7559 310.788,75.9226 316.5,68C 319.339,66.0797 322.339,64.4131 325.5,63C 332.579,61.1988 336.579,63.8655 337.5,71C 334.643,78.9265 333.309,87.0932 333.5,95.5C 337.331,95.7509 340.664,94.5843 343.5,92C 351.648,84.7622 359.981,77.7622 368.5,71C 372.066,68.7995 375.9,67.2995 380,66.5C 382.151,66.7725 384.151,67.4392 386,68.5C 397.174,48.1407 409.841,28.8074 424,10.5C 427.767,6.22352 431.934,2.55685 436.5,-0.5C 442.833,-0.5 449.167,-0.5 455.5,-0.5C 465.298,8.74099 471.798,20.0743 475,33.5C 483.668,63.6722 489.834,94.3389 493.5,125.5C 497.769,125.734 501.769,126.901 505.5,129C 508.058,132.171 508.058,135.338 505.5,138.5C 502.6,141.199 499.433,143.533 496,145.5C 496.123,153.816 496.29,162.149 496.5,170.5C 510.387,171.277 524.053,173.444 537.5,177C 544.177,179.246 549.677,183.079 554,188.5C 554.893,191.916 554.393,195.083 552.5,198C 542.029,201.629 531.362,204.629 520.5,207C 516.673,208.746 513.007,210.746 509.5,213C 506.836,217.22 507.003,221.387 510,225.5C 522.973,237.478 536.807,248.311 551.5,258C 557.796,263.289 562.962,269.456 567,276.5C 569.254,281.403 568.087,285.237 563.5,288C 559.833,288.667 556.167,288.667 552.5,288C 544.492,285.456 536.325,283.623 528,282.5C 519.535,282.973 516.535,287.307 519,295.5C 521.826,301.822 525.159,307.822 529,313.5C 540.294,327.129 551.961,340.463 564,353.5C 566.484,357.732 566.818,362.065 565,366.5C 563.681,368.487 561.848,369.654 559.5,370C 555.5,370.667 551.5,370.667 547.5,370C 537.27,367.026 526.936,364.526 516.5,362.5C 507.666,364.456 506.166,369.122 512,376.5C 518.749,383.238 526.582,388.405 535.5,392C 544.845,395.002 554.178,398.002 563.5,401C 571.726,406.87 571.393,412.203 562.5,417C 541.789,422.048 520.789,425.381 499.5,427C 494.329,427.663 489.496,429.163 485,431.5C 484.333,434.833 484.333,438.167 485,441.5C 490.629,460.314 494.463,479.481 496.5,499C 496.524,505.237 494.858,510.903 491.5,516C 487.667,518.729 483.667,519.062 479.5,517C 471.833,510 464.167,503 456.5,496C 446.753,489.734 439.253,491.568 434,501.5C 430.946,511.6 429.446,521.933 429.5,532.5C 429.95,543.383 430.95,554.216 432.5,565C 432.668,573.268 428.668,576.268 420.5,574C 415.999,571.584 411.666,568.917 407.5,566C 398.946,557.446 390.446,548.946 382,540.5C 377.806,552.749 373.806,565.083 370,577.5C 367.737,583.861 364.571,589.694 360.5,595C 352.993,600.555 346.826,599.389 342,591.5C 339.316,581.782 335.65,572.449 331,563.5C 324.516,555.078 319.183,555.744 315,565.5C 312.869,574.747 311.203,584.08 310,593.5C 309.427,595.641 308.594,597.641 307.5,599.5C 300.833,599.5 294.167,599.5 287.5,599.5C 279.767,586.484 274.267,572.484 271,557.5C 269.522,554.007 267.522,553.674 265,556.5C 264,558.5 263,560.5 262,562.5C 258.996,571.856 255.996,581.19 253,590.5C 244.972,595.206 237.972,593.873 232,586.5C 229.746,582.993 227.746,579.327 226,575.5C 222.465,564.006 218.631,552.673 214.5,541.5C 205.037,550.794 195.371,559.96 185.5,569C 181.336,571.832 176.836,573.999 172,575.5C 166.767,574.563 163.934,571.396 163.5,566C 168.88,544.76 168.713,523.594 163,502.5C 158.204,491.723 150.704,489.556 140.5,496C 132.833,503 125.167,510 117.5,517C 107.924,520.11 102.424,516.61 101,506.5C 100.357,493.642 101.69,480.976 105,468.5C 107.489,459.543 109.823,450.543 112,441.5C 112.667,438.167 112.667,434.833 112,431.5C 108.785,429.539 105.285,428.373 101.5,428C 84.1367,425.886 66.8034,423.552 49.5,421C 44.3964,420.046 39.3964,418.713 34.5,417C 28.2974,413.402 27.2974,408.735 31.5,403C 40.8873,398.902 50.5539,395.569 60.5,393C 70.7575,389.29 79.5909,383.457 87,375.5C 91.4913,368.498 89.8247,364.165 82,362.5C 71.4822,364.754 60.9822,367.254 50.5,370C 46.5,370.667 42.5,370.667 38.5,370C 34.6654,368.166 32.3321,365.166 31.5,361C 32.7584,356.891 34.5917,353.058 37,349.5C 47.7023,338.466 58.0357,327.133 68,315.5C 89.7269,284.541 82.5602,275.374 46.5,288C 41.4423,289.01 36.6089,288.51 32,286.5C 29.6128,283.224 29.2794,279.891 31,276.5C 34.3652,270.129 38.8652,264.629 44.5,260C 59.1167,249.773 73.2833,238.939 87,227.5C 93.9681,218.226 91.8014,211.726 80.5,208C 69.5489,204.745 58.5489,201.745 47.5,199C 44.208,196.588 43.0413,193.421 44,189.5C 47.8568,183.305 53.3568,179.139 60.5,177C 74.2668,173.362 88.2668,171.196 102.5,170.5C 103.391,162.151 103.391,153.818 102.5,145.5C 98.7303,143.197 95.2303,140.531 92,137.5C 90.8175,133.726 91.6508,130.559 94.5,128C 97.9869,126.378 101.654,125.545 105.5,125.5C 109.216,95.7513 115.05,66.418 123,37.5C 125.717,26.7393 130.05,16.7393 136,7.5C 138.729,4.60066 141.562,1.93399 144.5,-0.5 Z"/></g>
<g><path style="opacity:1" fill="#925c24" d="M 521.5,277.5 C 515.369,271.87 509.369,266.036 503.5,260C 486.766,251.565 469.099,246.065 450.5,243.5C 448.269,243.853 446.269,244.686 444.5,246C 451.946,252.112 458.779,258.946 465,266.5C 468.673,272.185 471.173,278.352 472.5,285C 472.546,286.728 472.046,288.228 471,289.5C 466.786,285.618 462.286,282.118 457.5,279C 455.091,277.293 452.425,276.46 449.5,276.5C 455.313,290.237 457.646,304.571 456.5,319.5C 452.11,311.723 447.943,303.723 444,295.5C 435.852,281.184 424.352,270.517 409.5,263.5C 400.57,259.676 391.236,257.343 381.5,256.5C 360.648,260.534 355.148,271.867 365,290.5C 367.037,292.706 369.203,294.706 371.5,296.5C 411.749,338.25 452.582,379.583 494,420.5C 494.464,421.094 494.631,421.761 494.5,422.5C 488.945,422.849 484.112,424.849 480,428.5C 479.042,430.199 478.542,432.033 478.5,434C 481.648,449.577 484.982,465.077 488.5,480.5C 488.565,480.938 488.399,481.272 488,481.5C 453.632,446.965 419.132,412.632 384.5,378.5C 383.651,376.112 382.651,373.779 381.5,371.5C 371.947,342.724 360.447,314.724 347,287.5C 342.558,280.06 337.725,272.894 332.5,266C 330.721,266.044 329.055,266.711 327.5,268C 319.227,277.112 310.227,285.279 300.5,292.5C 297.774,292.736 295.441,291.903 293.5,290C 286.5,284.333 280.167,278 274.5,271C 271.55,268.361 268.217,266.527 264.5,265.5C 263.942,264.21 262.942,263.377 261.5,263C 246.916,258.027 231.916,255.861 216.5,256.5C 206.316,257.462 196.649,260.128 187.5,264.5C 171.571,271.928 159.738,283.595 152,299.5C 149.362,305.275 146.862,311.109 144.5,317C 166.328,339.994 188.661,362.494 211.5,384.5C 211.5,385.167 211.5,385.833 211.5,386.5C 205.658,402.338 205.158,418.338 210,434.5C 216.968,442.331 225.801,445.998 236.5,445.5C 240.19,445.308 243.857,444.975 247.5,444.5C 246.737,445.268 245.737,445.768 244.5,446C 256.494,450.166 268.827,453 281.5,454.5C 311.833,485.5 342.5,516.167 373.5,546.5C 370.508,557.978 367.008,569.311 363,580.5C 361.287,584.873 358.787,588.707 355.5,592C 352.901,592.769 350.401,592.602 348,591.5C 345.046,578.428 339.546,566.594 331.5,556C 323.861,550.524 317.361,551.69 312,559.5C 309.584,564.246 307.917,569.246 307,574.5C 307.223,582.391 305.723,589.891 302.5,597C 297.38,599.506 293.214,598.339 290,593.5C 283.627,580.345 278.627,566.678 275,552.5C 270.333,547.167 265.667,547.167 261,552.5C 255.47,563.28 251.47,574.614 249,586.5C 246.373,588.988 243.54,589.155 240.5,587C 236.509,584.011 233.676,580.178 232,575.5C 228.267,564.966 224.933,554.299 222,543.5C 219.425,534.718 214.591,533.218 207.5,539C 198.697,551.472 187.697,561.472 174.5,569C 170.518,570.187 168.851,568.687 169.5,564.5C 173.624,543.747 173.458,523.08 169,502.5C 166.69,495.352 162.19,490.185 155.5,487C 146.793,486.513 139.126,489.18 132.5,495C 126.226,501.948 119.393,508.115 112,513.5C 110.108,513.223 108.775,512.223 108,510.5C 106.428,502.245 106.095,493.911 107,485.5C 110.037,470.018 113.704,454.685 118,439.5C 118.837,435.705 118.504,432.039 117,428.5C 111.654,425.161 105.82,422.994 99.5,422C 80.3405,420.397 61.3405,417.73 42.5,414C 32.3885,411.37 32.0552,408.037 41.5,404C 55.4142,401.276 68.4142,396.276 80.5,389C 88.4426,384.237 93.4426,377.404 95.5,368.5C 94.1703,360.402 89.337,356.735 81,357.5C 70.0314,359.361 59.1981,361.861 48.5,365C 37.0276,366.871 34.5276,363.037 41,353.5C 53.7846,341.055 65.4513,327.722 76,313.5C 81.126,306.252 84.2927,298.252 85.5,289.5C 85.0789,283.169 81.7456,279.336 75.5,278C 70.8333,277.333 66.1667,277.333 61.5,278C 54.552,280.023 47.552,281.856 40.5,283.5C 36.3126,284.149 34.8126,282.482 36,278.5C 39.7538,272.742 44.2538,267.575 49.5,263C 62.5,253.333 75.5,243.667 88.5,234C 94.2439,228.689 96.7439,222.189 96,214.5C 95.1166,211.898 93.6166,209.731 91.5,208C 79.6708,201.539 67.0041,197.539 53.5,196C 50.1966,194.993 49.0299,192.827 50,189.5C 55.7587,184.871 62.2587,181.704 69.5,180C 82.4323,177.84 95.4323,176.34 108.5,175.5C 108.667,164.495 108.5,153.495 108,142.5C 103.493,140.334 99.6597,137.334 96.5,133.5C 97.0253,132.808 97.6919,132.308 98.5,132C 102.491,131.358 106.491,130.858 110.5,130.5C 113.858,97.2117 120.358,64.545 130,32.5C 133.05,23.2343 137.55,14.7343 143.5,7C 149.592,2.75888 155.925,2.42555 162.5,6C 176.722,20.606 188.889,36.7726 199,54.5C 205.509,65.5167 211.509,76.8501 217,88.5C 216.176,83.5332 215.51,78.5332 215,73.5C 217.064,72.4086 219.231,72.2419 221.5,73C 232.69,79.8527 243.024,87.8527 252.5,97C 257.06,100.174 262.06,101.174 267.5,100C 269.961,97.173 270.961,93.8396 270.5,90C 269.681,83.9076 268.348,77.9076 266.5,72C 266.333,69.5 267.5,68.3333 270,68.5C 276.107,70.2674 280.774,73.934 284,79.5C 287,84.1667 290,88.8333 293,93.5C 297.656,98.9771 301.99,98.6438 306,92.5C 310.086,85.9931 314.42,79.6598 319,73.5C 322.368,69.8012 326.368,68.1345 331,68.5C 330.867,74.2594 329.867,79.9261 328,85.5C 326.945,90.6869 327.778,95.5202 330.5,100C 336.86,101.468 342.526,100.135 347.5,96C 356.465,87.8554 365.799,80.1887 375.5,73C 378.167,72.3333 380.833,72.3333 383.5,73C 384.022,73.5613 384.355,74.228 384.5,75C 382.556,80.0642 381.389,85.2309 381,90.5C 392.008,67.1968 405.008,45.1968 420,24.5C 424.758,17.738 430.258,11.5714 436.5,6C 444.681,0.724477 451.848,1.89114 458,9.5C 461.779,14.7231 464.779,20.3898 467,26.5C 477.965,60.3642 485.132,95.0309 488.5,130.5C 492.56,130.485 496.56,130.985 500.5,132C 501.022,132.561 501.355,133.228 501.5,134C 498.372,137.166 494.872,140 491,142.5C 490.5,153.495 490.333,164.495 490.5,175.5C 507.615,175.888 524.282,178.721 540.5,184C 544.456,185.624 547.456,188.29 549.5,192C 549.18,193.653 548.18,194.653 546.5,195C 534.539,197.241 522.873,200.574 511.5,205C 499.92,211.645 498.42,220.145 507,230.5C 509.5,233 512,235.5 514.5,238C 528.035,246.936 541.035,256.602 553.5,267C 556.333,270.5 559.167,274 562,277.5C 563.393,281.202 562.226,283.202 558.5,283.5C 550.432,281.983 542.432,280.15 534.5,278C 530.179,277.501 525.846,277.334 521.5,277.5 Z"/></g>
<g><path style="opacity:1" fill="#c38d44" d="M 151.5,20.5 C 155.599,20.3666 159.266,21.5333 162.5,24C 166.702,27.8666 170.535,32.0332 174,36.5C 189.656,59.1443 202.156,83.4776 211.5,109.5C 206.629,109.808 201.963,108.975 197.5,107C 179.156,95.3284 159.156,89.3284 137.5,89C 135.717,90.0665 135.217,91.5665 136,93.5C 145.251,99.4156 153.251,106.749 160,115.5C 163.302,120.306 163.135,124.806 159.5,129C 147.896,130.412 136.229,130.912 124.5,130.5C 127.42,97.9793 133.254,65.9793 142,34.5C 143.967,28.8631 147.133,24.1964 151.5,20.5 Z"/></g>
<g><path style="opacity:1" fill="#c38d44" d="M 442.5,20.5 C 448.631,20.6584 452.798,23.6584 455,29.5C 461.568,47.9997 466.235,66.9997 469,86.5C 471.523,101.094 473.357,115.761 474.5,130.5C 463.495,130.667 452.495,130.5 441.5,130C 439.919,129.293 438.419,128.46 437,127.5C 435.993,122.889 436.66,118.555 439,114.5C 445.969,106.02 453.969,98.6866 463,92.5C 463.448,90.5911 462.615,89.4244 460.5,89C 447.313,88.5311 434.647,90.8644 422.5,96C 412.595,101.623 402.261,106.123 391.5,109.5C 390.167,109.167 388.833,108.833 387.5,108.5C 398.155,81.5154 411.655,56.1821 428,32.5C 432.172,27.4758 437.005,23.4758 442.5,20.5 Z"/></g>
<g><path style="opacity:1" fill="#bd8740" d="M 475.5,155.5 C 476.488,160.64 476.821,165.974 476.5,171.5C 472.938,171.436 471.271,169.603 471.5,166C 472.137,162.228 473.47,158.728 475.5,155.5 Z"/></g>
<g><path style="opacity:1" fill="#c08a42" d="M 123.5,158.5 C 128.385,162.722 128.551,167.055 124,171.5C 123.501,167.179 123.334,162.846 123.5,158.5 Z"/></g>
<g><path style="opacity:1" fill="#8d5923" d="M 521.5,277.5 C 518.242,278.921 515.742,281.254 514,284.5C 513.174,289.589 513.508,294.589 515,299.5C 518.913,307.667 523.58,315.333 529,322.5C 538,332.167 547,341.833 556,351.5C 564.001,362.141 561.501,366.641 548.5,365C 539.217,362.461 529.884,360.128 520.5,358C 508.643,355.865 503.143,360.698 504,372.5C 505.173,376.337 507.173,379.671 510,382.5C 524.277,393.886 540.443,401.386 558.5,405C 560.813,405.641 562.48,406.974 563.5,409C 563.18,410.653 562.18,411.653 560.5,412C 556.916,413.292 553.249,414.292 549.5,415C 531.171,417.898 512.838,420.398 494.5,422.5C 494.631,421.761 494.464,421.094 494,420.5C 452.582,379.583 411.749,338.25 371.5,296.5C 382.351,302.983 393.018,302.483 403.5,295C 412.598,285.787 414.598,275.287 409.5,263.5C 424.352,270.517 435.852,281.184 444,295.5C 447.943,303.723 452.11,311.723 456.5,319.5C 457.646,304.571 455.313,290.237 449.5,276.5C 452.425,276.46 455.091,277.293 457.5,279C 462.286,282.118 466.786,285.618 471,289.5C 472.046,288.228 472.546,286.728 472.5,285C 471.173,278.352 468.673,272.185 465,266.5C 458.779,258.946 451.946,252.112 444.5,246C 446.269,244.686 448.269,243.853 450.5,243.5C 469.099,246.065 486.766,251.565 503.5,260C 509.369,266.036 515.369,271.87 521.5,277.5 Z"/></g>
<g><path style="opacity:1" fill="#8d5923" d="M 216.5,256.5 C 231.916,255.861 246.916,258.027 261.5,263C 262.942,263.377 263.942,264.21 264.5,265.5C 256.013,277.791 248.513,290.791 242,304.5C 230.546,330.699 220.379,357.366 211.5,384.5C 188.661,362.494 166.328,339.994 144.5,317C 146.862,311.109 149.362,305.275 152,299.5C 159.738,283.595 171.571,271.928 187.5,264.5C 182.155,285.475 190.155,297.808 211.5,301.5C 227.22,299.78 235.887,291.113 237.5,275.5C 237.426,269.852 235.092,265.352 230.5,262C 225.983,259.445 221.316,257.612 216.5,256.5 Z"/></g>
<g><path style="opacity:1" fill="#080405" d="M 409.5,263.5 C 414.598,275.287 412.598,285.787 403.5,295C 393.018,302.483 382.351,302.983 371.5,296.5C 369.203,294.706 367.037,292.706 365,290.5C 355.148,271.867 360.648,260.534 381.5,256.5C 391.236,257.343 400.57,259.676 409.5,263.5 Z"/></g>
<g><path style="opacity:1" fill="#080405" d="M 216.5,256.5 C 221.316,257.612 225.983,259.445 230.5,262C 235.092,265.352 237.426,269.852 237.5,275.5C 235.887,291.113 227.22,299.78 211.5,301.5C 190.155,297.808 182.155,285.475 187.5,264.5C 196.649,260.128 206.316,257.462 216.5,256.5 Z"/></g>
<g><path style="opacity:1" fill="#bc8842" d="M 264.5,265.5 C 268.217,266.527 271.55,268.361 274.5,271C 280.167,278 286.5,284.333 293.5,290C 295.441,291.903 297.774,292.736 300.5,292.5C 326.748,320.249 353.581,347.583 381,374.5C 381.483,373.552 381.649,372.552 381.5,371.5C 382.651,373.779 383.651,376.112 384.5,378.5C 386.437,386.445 388.271,394.445 390,402.5C 390.667,410.833 390.667,419.167 390,427.5C 389.014,430.806 387.514,433.806 385.5,436.5C 368.035,419.535 350.701,402.368 333.5,385C 332.906,384.536 332.239,384.369 331.5,384.5C 327.008,377.076 320.342,372.91 311.5,372C 297.912,369.435 284.912,371.102 272.5,377C 264.927,383.864 263.094,392.031 267,401.5C 268.439,404.603 270.273,407.436 272.5,410C 279.324,415.245 286.324,420.245 293.5,425C 297.729,428.843 297.395,432.177 292.5,435C 283.56,437.487 274.56,439.654 265.5,441.5C 265.611,440.883 265.944,440.383 266.5,440C 248.582,421.58 230.248,403.746 211.5,386.5C 211.5,385.833 211.5,385.167 211.5,384.5C 220.379,357.366 230.546,330.699 242,304.5C 248.513,290.791 256.013,277.791 264.5,265.5 Z"/></g>
<g><path style="opacity:1" fill="#c38d44" d="M 381.5,371.5 C 381.649,372.552 381.483,373.552 381,374.5C 353.581,347.583 326.748,320.249 300.5,292.5C 310.227,285.279 319.227,277.112 327.5,268C 329.055,266.711 330.721,266.044 332.5,266C 337.725,272.894 342.558,280.06 347,287.5C 360.447,314.724 371.947,342.724 381.5,371.5 Z"/></g>
<g><path style="opacity:1" fill="#c6ad8b" d="M 221.5,268.5 C 227.704,268.314 229.037,270.814 225.5,276C 219.812,275.79 218.479,273.29 221.5,268.5 Z"/></g>
<g><path style="opacity:1" fill="#c6ad8b" d="M 397.5,268.5 C 403.704,268.314 405.037,270.814 401.5,276C 395.812,275.79 394.479,273.29 397.5,268.5 Z"/></g>
<g><path style="opacity:1" fill="#2f2725" d="M 331.5,384.5 C 334.216,395.518 331.216,404.685 322.5,412C 315.333,417.167 308.167,422.333 301,427.5C 300.333,429.167 300.333,430.833 301,432.5C 304.049,434.964 307.549,436.464 311.5,437C 325.42,440.284 339.42,443.117 353.5,445.5C 348.202,448.083 342.535,449.916 336.5,451C 318.355,455.292 300.021,456.459 281.5,454.5C 268.827,453 256.494,450.166 244.5,446C 245.737,445.768 246.737,445.268 247.5,444.5C 253.545,443.758 259.545,442.758 265.5,441.5C 274.56,439.654 283.56,437.487 292.5,435C 297.395,432.177 297.729,428.843 293.5,425C 286.324,420.245 279.324,415.245 272.5,410C 270.273,407.436 268.439,404.603 267,401.5C 263.094,392.031 264.927,383.864 272.5,377C 284.912,371.102 297.912,369.435 311.5,372C 320.342,372.91 327.008,377.076 331.5,384.5 Z"/></g>
<g><path style="opacity:1" fill="#8d5923" d="M 384.5,378.5 C 419.132,412.632 453.632,446.965 488,481.5C 488.399,481.272 488.565,480.938 488.5,480.5C 490.423,489.272 490.923,498.272 490,507.5C 488.923,512.115 486.09,513.615 481.5,512C 475.833,506.333 470.167,500.667 464.5,495C 457.517,489.117 449.517,486.45 440.5,487C 432.972,490.864 428.472,497.031 427,505.5C 423.714,525.169 423.88,544.836 427.5,564.5C 428.149,568.687 426.482,570.187 422.5,569C 409.303,561.472 398.303,551.472 389.5,539C 386.662,536.242 383.329,535.242 379.5,536C 376.589,538.99 374.589,542.49 373.5,546.5C 342.5,516.167 311.833,485.5 281.5,454.5C 300.021,456.459 318.355,455.292 336.5,451C 342.535,449.916 348.202,448.083 353.5,445.5C 363.692,446.368 373.359,444.534 382.5,440C 383.71,438.961 384.71,437.794 385.5,436.5C 387.514,433.806 389.014,430.806 390,427.5C 390.667,419.167 390.667,410.833 390,402.5C 388.271,394.445 386.437,386.445 384.5,378.5 Z"/></g>
<g><path style="opacity:1" fill="#b3813f" d="M 331.5,384.5 C 332.239,384.369 332.906,384.536 333.5,385C 350.701,402.368 368.035,419.535 385.5,436.5C 384.71,437.794 383.71,438.961 382.5,440C 373.359,444.534 363.692,446.368 353.5,445.5C 339.42,443.117 325.42,440.284 311.5,437C 307.549,436.464 304.049,434.964 301,432.5C 300.333,430.833 300.333,429.167 301,427.5C 308.167,422.333 315.333,417.167 322.5,412C 331.216,404.685 334.216,395.518 331.5,384.5 Z"/></g>
<g><path style="opacity:1" fill="#c38d44" d="M 211.5,386.5 C 230.248,403.746 248.582,421.58 266.5,440C 265.944,440.383 265.611,440.883 265.5,441.5C 259.545,442.758 253.545,443.758 247.5,444.5C 243.857,444.975 240.19,445.308 236.5,445.5C 225.801,445.998 216.968,442.331 210,434.5C 205.158,418.338 205.658,402.338 211.5,386.5 Z"/></g>
</svg>
