<?xml version="1.0" encoding="UTF-8"?>
<!DOCTYPE svg PUBLIC "-//W3C//DTD SVG 1.1//EN" "http://www.w3.org/Graphics/SVG/1.1/DTD/svg11.dtd">
<svg xmlns="http://www.w3.org/2000/svg" version="1.1" width="600px" height="600px" style="shape-rendering:geometricPrecision; text-rendering:geometricPrecision; image-rendering:optimizeQuality; fill-rule:evenodd; clip-rule:evenodd" xmlns:xlink="http://www.w3.org/1999/xlink">
<g><path style="opacity:0.952" fill="#010000" d="M 140.5,-0.5 C 148.5,-0.5 156.5,-0.5 164.5,-0.5C 181.805,11.9724 196.639,26.9724 209,44.5C 221.597,63.35 232.93,83.0167 243,103.5C 258.724,120.275 269.224,139.942 274.5,162.5C 291.207,161.504 307.873,161.17 324.5,161.5C 330.593,139.639 341.093,120.305 356,103.5C 371.701,68.2428 393.201,37.0762 420.5,10C 425.35,6.63662 430.017,3.13662 434.5,-0.5C 442.5,-0.5 450.5,-0.5 458.5,-0.5C 464.68,5.52292 468.513,12.8562 470,21.5C 481.594,66.8233 488.76,112.823 491.5,159.5C 490.64,173.991 489.973,188.491 489.5,203C 490.723,218.828 491.556,234.661 492,250.5C 491.108,256.4 489.442,262.067 487,267.5C 480.834,278.503 474.167,289.17 467,299.5C 456.462,321.357 451.629,344.357 452.5,368.5C 451.588,381.48 449.088,394.147 445,406.5C 425.628,442.578 407.294,479.245 390,516.5C 394.255,539.726 390.255,561.392 378,581.5C 371.754,589.265 364.254,595.265 355.5,599.5C 318.167,599.5 280.833,599.5 243.5,599.5C 219.732,585.998 207.732,565.332 207.5,537.5C 208.172,531.103 209.172,524.769 210.5,518.5C 193.178,482.523 175.345,446.857 157,411.5C 149.664,391.151 146.331,370.151 147,348.5C 144.289,330.65 138.956,313.65 131,297.5C 123.58,286.999 116.913,275.999 111,264.5C 109.198,259.625 107.865,254.625 107,249.5C 107.883,233.689 108.716,217.856 109.5,202C 106.262,171.393 107.096,140.893 112,110.5C 116.461,79.53 122.461,48.8633 130,18.5C 131.962,11.2372 135.462,4.9039 140.5,-0.5 Z"/></g>
<g><path style="opacity:1" fill="#653f2c" d="M 408.5,453.5 C 408.565,453.062 408.399,452.728 408,452.5C 401.476,460.022 394.643,467.189 387.5,474C 378.518,479.649 369.518,479.816 360.5,474.5C 353.395,460.623 346.561,446.623 340,432.5C 339.333,446.5 339.333,460.5 340,474.5C 342.651,486.767 344.818,499.1 346.5,511.5C 346.167,514.167 345.833,516.833 345.5,519.5C 344.824,520.602 344.158,521.602 343.5,522.5C 345.575,502.798 337.241,489.965 318.5,484C 300.637,479.363 283.637,481.363 267.5,490C 258.312,498.055 254.312,508.221 255.5,520.5C 254.849,519.909 254.182,519.243 253.5,518.5C 253.167,516.333 252.833,514.167 252.5,512C 254.265,499.772 256.431,487.605 259,475.5C 259.667,461.167 259.667,446.833 259,432.5C 252.272,446.956 245.272,461.289 238,475.5C 225.626,479.822 214.959,477.156 206,467.5C 201.268,460.271 195.435,454.271 188.5,449.5C 181.346,435.86 174.179,422.193 167,408.5C 160.276,389.434 157.276,369.767 158,349.5C 155.293,334.93 151.626,320.597 147,306.5C 140.893,293.403 133.56,281.07 125,269.5C 117.859,257.061 115.525,243.728 118,229.5C 119.901,219.761 120.735,209.928 120.5,200C 118.14,176.197 117.973,152.364 120,128.5C 124.44,92.0749 131.107,56.0749 140,20.5C 141.263,13.6006 145.096,8.93392 151.5,6.5C 158.191,8.34558 164.191,11.5122 169.5,16C 197.036,42.5534 218.536,73.3867 234,108.5C 239.717,115.216 245.05,122.216 250,129.5C 256.864,143.726 263.031,158.226 268.5,173C 287.662,172.235 306.829,172.402 326,173.5C 327.764,173.456 329.431,173.122 331,172.5C 336.415,157.923 342.415,143.59 349,129.5C 353.277,122.621 358.277,116.288 364,110.5C 376.893,83.312 392.559,57.9787 411,34.5C 419.606,24.8878 429.106,16.3878 439.5,9C 445.894,5.47066 451.394,6.63733 456,12.5C 469.902,60.0165 478.402,108.517 481.5,158C 480.145,172.133 479.478,186.299 479.5,200.5C 479.79,216.556 480.623,232.556 482,248.5C 480.401,256.701 477.401,264.367 473,271.5C 451.408,299.778 440.908,331.778 441.5,367.5C 440.855,378.373 439.021,389.04 436,399.5C 428.112,418.279 418.945,436.279 408.5,453.5 Z"/></g>
<g><path style="opacity:1" fill="#030101" d="M 162.5,57.5 C 168.421,56.8774 173.254,58.8774 177,63.5C 188.361,79.8868 197.361,97.5535 204,116.5C 212.606,139.149 218.439,162.483 221.5,186.5C 221.232,194.24 219.398,201.573 216,208.5C 203.093,224.753 191.76,242.086 182,260.5C 178.692,262.993 175.192,263.159 171.5,261C 159.805,250.778 152.972,237.944 151,222.5C 150.519,206.426 149.185,190.426 147,174.5C 145.863,138.48 148.863,102.813 156,67.5C 156.949,63.2425 159.115,59.9092 162.5,57.5 Z"/></g>
<g><path style="opacity:1" fill="#030101" d="M 429.5,57.5 C 433.603,56.7691 437.103,57.7691 440,60.5C 443.209,66.7955 445.209,73.4622 446,80.5C 450.966,111.985 452.966,143.652 452,175.5C 449.925,191.767 448.592,208.101 448,224.5C 445.45,239.102 438.617,251.268 427.5,261C 423.808,263.159 420.308,262.993 417,260.5C 407.657,241.8 396.324,224.466 383,208.5C 379.316,201.615 377.816,194.282 378.5,186.5C 383.237,145.121 396.071,106.455 417,70.5C 420.697,65.6377 424.864,61.3043 429.5,57.5 Z"/></g>
<g><path style="opacity:1" fill="#43291e" d="M 165.5,62.5 C 167.89,63.446 170.056,64.7794 172,66.5C 180.871,78.9016 188.204,92.2349 194,106.5C 204.446,132.338 211.946,159.005 216.5,186.5C 215.752,193.159 213.919,199.493 211,205.5C 198.093,221.753 186.76,239.086 177,257.5C 167.975,250.469 161.642,241.469 158,230.5C 156.035,210.848 154.035,191.182 152,171.5C 151.036,136.405 154.369,101.738 162,67.5C 162.697,65.4156 163.864,63.7489 165.5,62.5 Z"/></g>
<g><path style="opacity:1" fill="#43291e" d="M 432.5,62.5 C 433.496,62.4142 434.329,62.7476 435,63.5C 439.444,74.3833 442.111,85.7167 443,97.5C 446.327,122.401 447.66,147.401 447,172.5C 445.021,190.808 443.355,209.141 442,227.5C 438.464,239.682 431.798,249.682 422,257.5C 412.657,238.8 401.324,221.466 388,205.5C 382.686,193.138 382.02,180.471 386,167.5C 392.433,138.199 402.433,110.199 416,83.5C 420.251,75.4277 425.751,68.4277 432.5,62.5 Z"/></g>
<g><path style="opacity:1" fill="#44291f" d="M 345.5,296.5 C 353.317,295.646 359.483,298.312 364,304.5C 365.378,308.898 364.212,312.398 360.5,315C 354.013,316.94 347.679,319.273 341.5,322C 336.639,323.319 333.806,321.486 333,316.5C 332.868,307.089 337.035,300.422 345.5,296.5 Z"/></g>
<g><path style="opacity:1" fill="#44291f" d="M 243.5,297.5 C 259.822,295.99 267.322,303.323 266,319.5C 265.167,320.333 264.333,321.167 263.5,322C 256.812,321.113 250.146,319.78 243.5,318C 236.593,316.45 233.76,312.283 235,305.5C 237.157,302.024 239.99,299.357 243.5,297.5 Z"/></g>
<g><path style="opacity:1" fill="#855d30" d="M 230.5,324.5 C 245.715,322.904 255.882,329.237 261,343.5C 260.195,365.978 248.695,375.811 226.5,373C 212.469,364.735 208.302,352.902 214,337.5C 217.969,331.01 223.469,326.676 230.5,324.5 Z"/></g>
<g><path style="opacity:1" fill="#855d30" d="M 356.5,324.5 C 364.173,323.446 371.173,324.946 377.5,329C 381.073,333.273 383.906,338.44 386,344.5C 387.535,358.918 381.368,368.418 367.5,373C 351.174,373.516 341.507,365.683 338.5,349.5C 339.879,338.637 345.546,331.137 355.5,327C 355.167,326.667 354.833,326.333 354.5,326C 355.416,325.722 356.082,325.222 356.5,324.5 Z"/></g>
<g><path style="opacity:1" fill="#1b120c" d="M 230.5,333.5 C 248.351,333.509 254.185,341.842 248,358.5C 241.459,364.126 234.292,364.96 226.5,361C 220.834,355.499 219.334,348.999 222,341.5C 224.157,338.024 226.99,335.357 230.5,333.5 Z"/></g>
<g><path style="opacity:1" fill="#1b120d" d="M 357.5,333.5 C 373.349,332.911 379.515,340.244 376,355.5C 371.523,362.886 365.023,365.386 356.5,363C 348.443,358.53 345.61,351.697 348,342.5C 350.406,338.592 353.572,335.592 357.5,333.5 Z"/></g>
<g><path style="opacity:1" fill="#e9e9e9" d="M 238.5,339.5 C 243.835,339.005 246.335,341.338 246,346.5C 241.447,350.903 238.28,350.07 236.5,344C 236.519,342.167 237.185,340.667 238.5,339.5 Z"/></g>
<g><path style="opacity:1" fill="#eeeeee" d="M 365.5,339.5 C 371,338.831 373.167,341.165 372,346.5C 369.679,349.917 367.012,350.25 364,347.5C 363.109,344.502 363.609,341.836 365.5,339.5 Z"/></g>
<g><path style="opacity:1" fill="#c7b7a6" d="M 255.5,520.5 C 258.199,530.684 263.199,539.517 270.5,547C 275.175,550.006 279.842,553.006 284.5,556C 293.647,560.087 302.98,560.42 312.5,557C 320.247,552.579 327.413,547.412 334,541.5C 337.689,535.455 340.856,529.121 343.5,522.5C 344.158,521.602 344.824,520.602 345.5,519.5C 345.833,516.833 346.167,514.167 346.5,511.5C 344.818,499.1 342.651,486.767 340,474.5C 339.333,460.5 339.333,446.5 340,432.5C 346.561,446.623 353.395,460.623 360.5,474.5C 369.518,479.816 378.518,479.649 387.5,474C 394.643,467.189 401.476,460.022 408,452.5C 408.399,452.728 408.565,453.062 408.5,453.5C 398.579,475.176 388.246,496.676 377.5,518C 382.615,536.201 380.782,553.701 372,570.5C 360.254,588.642 343.754,595.475 322.5,591C 314.853,588.396 307.187,585.896 299.5,583.5C 291.802,585.899 284.136,588.399 276.5,591C 247.812,595.233 229.312,583.4 221,555.5C 217.754,542.97 217.921,530.47 221.5,518C 210.08,495.328 199.08,472.494 188.5,449.5C 195.435,454.271 201.268,460.271 206,467.5C 214.959,477.156 225.626,479.822 238,475.5C 245.272,461.289 252.272,446.956 259,432.5C 259.667,446.833 259.667,461.167 259,475.5C 256.431,487.605 254.265,499.772 252.5,512C 252.833,514.167 253.167,516.333 253.5,518.5C 254.182,519.243 254.849,519.909 255.5,520.5 Z"/></g>
<g><path style="opacity:1" fill="#1b110c" d="M 343.5,522.5 C 340.856,529.121 337.689,535.455 334,541.5C 327.413,547.412 320.247,552.579 312.5,557C 302.98,560.42 293.647,560.087 284.5,556C 279.842,553.006 275.175,550.006 270.5,547C 263.199,539.517 258.199,530.684 255.5,520.5C 254.312,508.221 258.312,498.055 267.5,490C 283.637,481.363 300.637,479.363 318.5,484C 337.241,489.965 345.575,502.798 343.5,522.5 Z"/></g>
</svg>
