<?xml version="1.0" encoding="UTF-8"?>
<!DOCTYPE svg PUBLIC "-//W3C//DTD SVG 1.1//EN" "http://www.w3.org/Graphics/SVG/1.1/DTD/svg11.dtd">
<svg xmlns="http://www.w3.org/2000/svg" version="1.1" width="600px" height="600px" style="shape-rendering:geometricPrecision; text-rendering:geometricPrecision; image-rendering:optimizeQuality; fill-rule:evenodd; clip-rule:evenodd" xmlns:xlink="http://www.w3.org/1999/xlink">
<g><path style="opacity:0.953" fill="#010000" d="M 599.5,361.5 C 599.5,377.5 599.5,393.5 599.5,409.5C 596.447,419.571 593.947,429.904 592,440.5C 589.637,448.722 585.137,455.556 578.5,461C 575.061,463.139 571.894,465.639 569,468.5C 555.221,489.573 535.721,501.739 510.5,505C 497.339,506.715 484.172,506.882 471,505.5C 466.905,510.271 462.738,515.105 458.5,520C 454.795,523.102 450.628,525.269 446,526.5C 445.228,526.355 444.561,526.022 444,525.5C 443.036,529.468 440.869,532.635 437.5,535C 430.512,539.331 423.012,542.497 415,544.5C 410.233,543.7 406.067,541.7 402.5,538.5C 382.205,556.112 358.539,566.278 331.5,569C 298.253,573.391 265.587,570.724 233.5,561C 219.566,556.038 207.233,548.538 196.5,538.5C 190.227,544.322 183.227,545.488 175.5,542C 168.275,539.807 162.108,535.974 157,530.5C 156.529,528.754 155.862,527.087 155,525.5C 151.213,526.346 147.713,525.513 144.5,523C 138.621,517.457 133.121,511.623 128,505.5C 103.433,508.909 79.9332,505.409 57.5,495C 46.717,489.217 38.217,481.051 32,470.5C 26,465.167 20,459.833 14,454.5C 11.746,450.993 9.74595,447.327 8,443.5C 5.71888,431.897 2.88555,420.563 -0.5,409.5C -0.5,393.833 -0.5,378.167 -0.5,362.5C 4.8919,352.047 10.0586,341.38 15,330.5C 17.4433,314.064 20.4433,297.73 24,281.5C 29.5906,269.983 34.9239,258.317 40,246.5C 41.2835,235.865 42.2835,225.199 43,214.5C 44.3698,205.054 47.7031,196.387 53,188.5C 59,181.167 65,173.833 71,166.5C 73.8341,159.005 76.1675,151.339 78,143.5C 79.944,139.89 82.2774,136.557 85,133.5C 96.6667,123.167 108.333,112.833 120,102.5C 121.774,96.4471 124.941,91.2804 129.5,87C 138.371,79.8118 148.037,73.8118 158.5,69C 160.833,65.3333 163.833,62.3333 167.5,60C 174.038,56.7095 180.871,54.2095 188,52.5C 190.168,49.6583 192.668,47.1583 195.5,45C 202.042,43.2006 208.709,42.0339 215.5,41.5C 217.924,36.9198 221.757,34.5864 227,34.5C 233.566,35.5132 240.066,36.8466 246.5,38.5C 257.13,31.9433 268.297,30.9433 280,35.5C 286.699,31.8786 293.865,29.5452 301.5,28.5C 309.135,29.5452 316.301,31.8786 323,35.5C 334.703,30.9433 345.87,31.9433 356.5,38.5C 363.34,36.965 370.174,35.6317 377,34.5C 381.816,35.158 385.316,37.658 387.5,42C 395.856,41.803 403.689,43.6363 411,47.5C 412.375,49.3761 413.542,51.3761 414.5,53.5C 425.319,55.5738 434.319,60.7405 441.5,69C 451.006,73.9165 460.006,79.5832 468.5,86C 473.61,90.4497 477.11,95.9497 479,102.5C 491,113.167 503,123.833 515,134.5C 517.583,137.997 519.916,141.664 522,145.5C 523.259,152.734 525.259,159.734 528,166.5C 534,173.833 540,181.167 546,188.5C 551.253,196.014 554.586,204.347 556,213.5C 556.868,224.182 557.868,234.849 559,245.5C 564.924,258.353 570.591,271.353 576,284.5C 578.838,300.539 581.838,316.539 585,332.5C 589.864,342.227 594.697,351.894 599.5,361.5 Z"/></g>
<g><path style="opacity:1" fill="#83461e" d="M 438.5,79.5 C 438.657,80.8734 438.49,82.2068 438,83.5C 432.631,87.0732 431.298,91.7399 434,97.5C 448.247,107.042 462.747,116.208 477.5,125C 489.761,136.137 487.428,140.47 470.5,138C 469.941,138.725 469.608,139.558 469.5,140.5C 476.214,154.596 482.381,168.929 488,183.5C 491.182,190.531 492.182,197.865 491,205.5C 490.586,205.957 490.086,206.291 489.5,206.5C 485.792,202.995 481.459,201.828 476.5,203C 475.299,203.903 474.465,205.069 474,206.5C 473.333,210.833 473.333,215.167 474,219.5C 476.696,233.982 480.03,248.315 484,262.5C 484.667,266.167 484.667,269.833 484,273.5C 480.948,274.912 477.782,276.246 474.5,277.5C 467.957,272.829 464.624,274.662 464.5,283C 464.667,284.5 464.833,286 465,287.5C 468.512,295.855 472.012,304.188 475.5,312.5C 470.82,305.83 465.654,299.497 460,293.5C 458.047,290.745 456.88,287.745 456.5,284.5C 457.365,276.534 457.698,268.534 457.5,260.5C 459.937,260.756 462.271,261.423 464.5,262.5C 465.641,260.579 465.808,258.579 465,256.5C 459.957,248.412 455.457,240.078 451.5,231.5C 455.446,230.816 459.446,230.816 463.5,231.5C 463.575,226.055 461.242,221.888 456.5,219C 448.879,212.717 440.713,207.217 432,202.5C 431.333,200.5 431.333,198.5 432,196.5C 435.055,195.086 438.222,193.919 441.5,193C 443.394,191.921 443.727,190.587 442.5,189C 432.235,182.243 420.902,178.243 408.5,177C 404.986,176.169 401.819,174.669 399,172.5C 398.333,170.833 398.333,169.167 399,167.5C 401.371,164.794 404.037,162.461 407,160.5C 408.559,158.783 409.392,156.783 409.5,154.5C 396.726,153.942 384.06,154.775 371.5,157C 363.542,160.124 355.542,163.124 347.5,166C 332.966,176.622 327.466,190.789 331,208.5C 331.785,210.286 332.951,211.786 334.5,213C 341.045,215.638 347.712,217.971 354.5,220C 355.252,220.671 355.586,221.504 355.5,222.5C 343.267,236.946 343.6,251.113 356.5,265C 360.133,267.65 364.133,269.483 368.5,270.5C 372.312,271.324 376.312,271.824 380.5,272C 385.537,277.251 389.703,283.085 393,289.5C 403.444,302.612 413.111,316.278 422,330.5C 431.468,342.788 440.302,355.455 448.5,368.5C 447.577,372.064 447.244,375.731 447.5,379.5C 446.698,380.952 446.198,382.618 446,384.5C 431.151,345.661 405.651,316.161 369.5,296C 350.865,286.925 331.198,281.758 310.5,280.5C 302.767,264.814 294.934,249.148 287,233.5C 284.667,229.833 282.333,226.167 280,222.5C 275.628,214.767 272.128,206.767 269.5,198.5C 269.105,184.542 263.105,173.709 251.5,166C 242.028,162.508 232.361,159.175 222.5,156C 211.882,154.656 201.216,154.156 190.5,154.5C 190.343,155.873 190.51,157.207 191,158.5C 194,161.5 197,164.5 200,167.5C 200.808,169.579 200.641,171.579 199.5,173.5C 189.329,176.834 178.995,179.667 168.5,182C 163.483,183.838 159.15,186.672 155.5,190.5C 155.977,191.478 156.643,192.311 157.5,193C 160.709,194.092 163.876,195.259 167,196.5C 167.667,198.5 167.667,200.5 167,202.5C 159.91,206.627 153.076,211.127 146.5,216C 142.818,219.403 139.318,222.903 136,226.5C 135.28,228.112 135.446,229.612 136.5,231C 139.944,231.469 143.278,230.969 146.5,229.5C 147.167,229.833 147.833,230.167 148.5,230.5C 143.681,239.468 138.848,248.468 134,257.5C 133.51,258.793 133.343,260.127 133.5,261.5C 136.167,261.167 138.833,260.833 141.5,260.5C 140.547,272.859 142.047,284.859 146,296.5C 147.189,294.767 148.356,293.1 149.5,291.5C 152.597,295.224 155.43,299.224 158,303.5C 164.603,315.832 171.103,328.166 177.5,340.5C 167.724,353.708 159.724,368.041 153.5,383.5C 153.043,384.298 152.376,384.631 151.5,384.5C 151.201,376.898 148.034,370.898 142,366.5C 138.278,369.943 136.112,374.276 135.5,379.5C 134.178,379.67 133.011,379.337 132,378.5C 129.485,371.222 127.985,363.722 127.5,356C 129.075,349.598 129.742,343.098 129.5,336.5C 128.5,336.5 127.5,336.5 126.5,336.5C 128.251,330.937 127.751,325.604 125,320.5C 124.333,317.167 124.333,313.833 125,310.5C 128.721,303.335 132.054,296.002 135,288.5C 135.667,284.833 135.667,281.167 135,277.5C 134.653,275.82 133.653,274.82 132,274.5C 130.155,275.756 128.155,276.756 126,277.5C 124.416,277.012 123.249,276.012 122.5,274.5C 118.573,276.546 116.24,275.546 115.5,271.5C 120.748,249.673 124.582,227.673 127,205.5C 126.641,202.475 124.975,200.808 122,200.5C 118.362,202.79 114.696,205.123 111,207.5C 108.072,206.391 106.905,204.224 107.5,201C 111.517,181.62 118.684,163.453 129,146.5C 129.784,143.24 129.617,140.073 128.5,137C 125.436,136.851 122.436,137.351 119.5,138.5C 116.745,138.91 115.412,137.744 115.5,135C 117.333,129.826 120.667,125.826 125.5,123C 139.926,115.04 153.76,106.207 167,96.5C 167.923,94.9656 168.423,93.299 168.5,91.5C 167.767,87.5342 166.1,84.0342 163.5,81C 163.743,80.0979 164.077,79.2646 164.5,78.5C 167.696,72.8102 172.363,68.6435 178.5,66C 187.046,63.3173 195.713,61.1506 204.5,59.5C 205.521,58.9984 205.688,58.3317 205,57.5C 203.601,56.7734 202.101,56.2734 200.5,56C 199.167,55.3333 199.167,54.6667 200.5,54C 210.109,52.6411 219.776,52.1411 229.5,52.5C 229.649,51.448 229.483,50.448 229,49.5C 224.986,47.9294 224.819,46.5961 228.5,45.5C 235.146,46.1397 241.646,47.473 248,49.5C 251.816,47.6983 255.649,45.865 259.5,44C 267.848,44.172 276.181,44.5054 284.5,45C 295.462,37.673 306.462,37.673 317.5,45C 326.099,44.035 334.766,43.7016 343.5,44C 347.292,45.6368 350.959,47.4701 354.5,49.5C 362.019,46.791 369.686,45.791 377.5,46.5C 376.167,48.1667 374.833,49.8333 373.5,51.5C 383.608,51.9558 393.608,53.1225 403.5,55C 402,56.1145 400.333,56.9479 398.5,57.5C 397.289,58.2739 397.289,59.1072 398.5,60C 406.484,62.3299 414.484,64.6633 422.5,67C 427.995,70.9996 433.329,75.1663 438.5,79.5 Z"/></g>
<g><path style="opacity:1" fill="#713c21" d="M 164.5,78.5 C 164.077,79.2646 163.743,80.0979 163.5,81C 166.1,84.0342 167.767,87.5342 168.5,91.5C 168.423,93.299 167.923,94.9656 167,96.5C 153.76,106.207 139.926,115.04 125.5,123C 120.667,125.826 117.333,129.826 115.5,135C 115.412,137.744 116.745,138.91 119.5,138.5C 122.436,137.351 125.436,136.851 128.5,137C 129.617,140.073 129.784,143.24 129,146.5C 118.684,163.453 111.517,181.62 107.5,201C 106.905,204.224 108.072,206.391 111,207.5C 114.696,205.123 118.362,202.79 122,200.5C 124.975,200.808 126.641,202.475 127,205.5C 124.582,227.673 120.748,249.673 115.5,271.5C 116.24,275.546 118.573,276.546 122.5,274.5C 123.249,276.012 124.416,277.012 126,277.5C 128.155,276.756 130.155,275.756 132,274.5C 133.653,274.82 134.653,275.82 135,277.5C 135.667,281.167 135.667,284.833 135,288.5C 132.054,296.002 128.721,303.335 125,310.5C 124.333,313.833 124.333,317.167 125,320.5C 127.751,325.604 128.251,330.937 126.5,336.5C 127.5,336.5 128.5,336.5 129.5,336.5C 129.742,343.098 129.075,349.598 127.5,356C 127.985,363.722 129.485,371.222 132,378.5C 133.011,379.337 134.178,379.67 135.5,379.5C 136.112,374.276 138.278,369.943 142,366.5C 148.034,370.898 151.201,376.898 151.5,384.5C 151.662,386.527 151.495,388.527 151,390.5C 140.757,417.547 134.924,445.547 133.5,474.5C 133.364,480.942 134.031,487.275 135.5,493.5C 112.75,498.405 90.417,496.905 68.5,489C 55.492,482.992 45.3253,473.826 38,461.5C 32.3333,456.5 26.6667,451.5 21,446.5C 20,444.5 19,442.5 18,440.5C 14.8026,424.711 11.136,409.045 7,393.5C 5.43998,382.757 6.77331,372.424 11,362.5C 15.6058,353.622 19.9392,344.622 24,335.5C 27.2616,319.559 30.2616,303.559 33,287.5C 37.1199,277.259 41.7866,267.259 47,257.5C 51.5342,244.231 53.5342,230.564 53,216.5C 53.9408,209.344 56.2742,202.677 60,196.5C 66.3333,188.833 72.6667,181.167 79,173.5C 83.1399,166.747 85.4732,159.413 86,151.5C 87.4131,148.339 89.0797,145.339 91,142.5C 103.333,131.5 115.667,120.5 128,109.5C 132.016,98.1496 139.516,89.983 150.5,85C 155.099,82.5317 159.766,80.365 164.5,78.5 Z"/></g>
<g><path style="opacity:1" fill="#713c21" d="M 438.5,79.5 C 448.77,84.2196 457.936,90.553 466,98.5C 467.623,102.71 469.623,106.71 472,110.5C 484.188,120.932 496.188,131.599 508,142.5C 512.616,147.945 514.949,154.278 515,161.5C 515.942,164.993 517.275,168.326 519,171.5C 527.05,181.215 534.716,191.215 542,201.5C 543.954,205.981 545.287,210.648 546,215.5C 546.254,227.633 547.588,239.633 550,251.5C 554.47,262.439 559.47,273.105 565,283.5C 568.651,299.366 571.651,315.366 574,331.5C 580.017,345.53 586.017,359.53 592,373.5C 592.667,380.5 592.667,387.5 592,394.5C 588.063,411.637 583.729,428.637 579,445.5C 566.799,456.034 555.632,467.534 545.5,480C 542.108,482.694 538.441,484.86 534.5,486.5C 506.933,447.712 479.6,408.712 452.5,369.5C 453.496,369.586 454.329,369.252 455,368.5C 458.655,372.321 462.489,375.988 466.5,379.5C 468.197,378.636 469.363,377.303 470,375.5C 472.704,364.448 473.204,353.281 471.5,342C 471.667,340.167 471.833,338.333 472,336.5C 472.414,336.957 472.914,337.291 473.5,337.5C 474.459,334.378 474.459,331.212 473.5,328C 474.699,324.066 475.699,320.066 476.5,316C 476.486,314.615 476.152,313.449 475.5,312.5C 472.012,304.188 468.512,295.855 465,287.5C 464.833,286 464.667,284.5 464.5,283C 464.624,274.662 467.957,272.829 474.5,277.5C 477.782,276.246 480.948,274.912 484,273.5C 484.667,269.833 484.667,266.167 484,262.5C 480.03,248.315 476.696,233.982 474,219.5C 473.333,215.167 473.333,210.833 474,206.5C 474.465,205.069 475.299,203.903 476.5,203C 481.459,201.828 485.792,202.995 489.5,206.5C 490.086,206.291 490.586,205.957 491,205.5C 492.182,197.865 491.182,190.531 488,183.5C 482.381,168.929 476.214,154.596 469.5,140.5C 469.608,139.558 469.941,138.725 470.5,138C 487.428,140.47 489.761,136.137 477.5,125C 462.747,116.208 448.247,107.042 434,97.5C 431.298,91.7399 432.631,87.0732 438,83.5C 438.49,82.2068 438.657,80.8734 438.5,79.5 Z"/></g>
<g><path style="opacity:1" fill="#713c21" d="M 269.5,198.5 C 270.147,204.731 268.147,209.898 263.5,214C 257.105,215.798 250.772,217.798 244.5,220C 243.619,220.708 242.953,221.542 242.5,222.5C 227.192,225.794 212.525,231.46 198.5,239.5C 197.534,241.396 197.201,243.396 197.5,245.5C 196.698,244.048 196.198,242.382 196,240.5C 174.997,252.525 159.497,269.525 149.5,291.5C 148.356,293.1 147.189,294.767 146,296.5C 142.047,284.859 140.547,272.859 141.5,260.5C 138.833,260.833 136.167,261.167 133.5,261.5C 133.343,260.127 133.51,258.793 134,257.5C 138.848,248.468 143.681,239.468 148.5,230.5C 147.833,230.167 147.167,229.833 146.5,229.5C 143.278,230.969 139.944,231.469 136.5,231C 135.446,229.612 135.28,228.112 136,226.5C 139.318,222.903 142.818,219.403 146.5,216C 153.076,211.127 159.91,206.627 167,202.5C 167.667,200.5 167.667,198.5 167,196.5C 163.876,195.259 160.709,194.092 157.5,193C 156.643,192.311 155.977,191.478 155.5,190.5C 159.15,186.672 163.483,183.838 168.5,182C 178.995,179.667 189.329,176.834 199.5,173.5C 200.641,171.579 200.808,169.579 200,167.5C 197,164.5 194,161.5 191,158.5C 190.51,157.207 190.343,155.873 190.5,154.5C 201.216,154.156 211.882,154.656 222.5,156C 232.361,159.175 242.028,162.508 251.5,166C 263.105,173.709 269.105,184.542 269.5,198.5 Z"/></g>
<g><path style="opacity:1" fill="#723d21" d="M 456.5,284.5 C 455.657,288.469 454.491,292.469 453,296.5C 441.949,272.784 425.282,254.118 403,240.5C 402.814,243.036 402.314,245.369 401.5,247.5C 401.813,244.753 401.48,242.086 400.5,239.5C 397.188,237.01 393.522,235.343 389.5,234.5C 386.232,231.293 382.232,229.627 377.5,229.5C 371.285,226.367 364.785,223.7 358,221.5C 357.329,222.252 356.496,222.586 355.5,222.5C 355.586,221.504 355.252,220.671 354.5,220C 347.712,217.971 341.045,215.638 334.5,213C 332.951,211.786 331.785,210.286 331,208.5C 327.466,190.789 332.966,176.622 347.5,166C 355.542,163.124 363.542,160.124 371.5,157C 384.06,154.775 396.726,153.942 409.5,154.5C 409.392,156.783 408.559,158.783 407,160.5C 404.037,162.461 401.371,164.794 399,167.5C 398.333,169.167 398.333,170.833 399,172.5C 401.819,174.669 404.986,176.169 408.5,177C 420.902,178.243 432.235,182.243 442.5,189C 443.727,190.587 443.394,191.921 441.5,193C 438.222,193.919 435.055,195.086 432,196.5C 431.333,198.5 431.333,200.5 432,202.5C 440.713,207.217 448.879,212.717 456.5,219C 461.242,221.888 463.575,226.055 463.5,231.5C 459.446,230.816 455.446,230.816 451.5,231.5C 455.457,240.078 459.957,248.412 465,256.5C 465.808,258.579 465.641,260.579 464.5,262.5C 462.271,261.423 459.937,260.756 457.5,260.5C 457.698,268.534 457.365,276.534 456.5,284.5 Z"/></g>
<g><path style="opacity:1" fill="#7d431f" d="M 269.5,198.5 C 272.128,206.767 275.628,214.767 280,222.5C 282.333,226.167 284.667,229.833 287,233.5C 294.934,249.148 302.767,264.814 310.5,280.5C 255.414,277.557 211.08,297.557 177.5,340.5C 171.103,328.166 164.603,315.832 158,303.5C 155.43,299.224 152.597,295.224 149.5,291.5C 159.497,269.525 174.997,252.525 196,240.5C 196.198,242.382 196.698,244.048 197.5,245.5C 201.478,264.499 213.145,272.666 232.5,270C 248.551,263.4 254.718,251.566 251,234.5C 249.08,229.764 246.247,225.764 242.5,222.5C 242.953,221.542 243.619,220.708 244.5,220C 250.772,217.798 257.105,215.798 263.5,214C 268.147,209.898 270.147,204.731 269.5,198.5 Z"/></g>
<g><path style="opacity:1" fill="#010000" d="M 242.5,222.5 C 246.247,225.764 249.08,229.764 251,234.5C 254.718,251.566 248.551,263.4 232.5,270C 213.145,272.666 201.478,264.499 197.5,245.5C 197.201,243.396 197.534,241.396 198.5,239.5C 212.525,231.46 227.192,225.794 242.5,222.5 Z"/></g>
<g><path style="opacity:1" fill="#010000" d="M 377.5,229.5 C 370.545,235.461 370.879,240.961 378.5,246C 387.215,246.788 390.882,242.954 389.5,234.5C 393.522,235.343 397.188,237.01 400.5,239.5C 401.48,242.086 401.813,244.753 401.5,247.5C 396.978,264.274 385.978,271.941 368.5,270.5C 364.133,269.483 360.133,267.65 356.5,265C 343.6,251.113 343.267,236.946 355.5,222.5C 356.496,222.586 357.329,222.252 358,221.5C 364.785,223.7 371.285,226.367 377.5,229.5 Z"/></g>
<g><path style="opacity:1" fill="#f2f2f2" d="M 228.5,229.5 C 235.391,228.063 239.724,230.73 241.5,237.5C 240.387,244.45 236.387,247.283 229.5,246C 221.86,240.96 221.527,235.46 228.5,229.5 Z"/></g>
<g><path style="opacity:1" fill="#f3f3f3" d="M 377.5,229.5 C 382.232,229.627 386.232,231.293 389.5,234.5C 390.882,242.954 387.215,246.788 378.5,246C 370.879,240.961 370.545,235.461 377.5,229.5 Z"/></g>
<g><path style="opacity:1" fill="#7d431f" d="M 456.5,284.5 C 456.88,287.745 458.047,290.745 460,293.5C 465.654,299.497 470.82,305.83 475.5,312.5C 476.152,313.449 476.486,314.615 476.5,316C 475.699,320.066 474.699,324.066 473.5,328C 474.459,331.212 474.459,334.378 473.5,337.5C 472.914,337.291 472.414,336.957 472,336.5C 471.833,338.333 471.667,340.167 471.5,342C 473.204,353.281 472.704,364.448 470,375.5C 469.363,377.303 468.197,378.636 466.5,379.5C 462.489,375.988 458.655,372.321 455,368.5C 454.329,369.252 453.496,369.586 452.5,369.5C 451.432,368.566 450.099,368.232 448.5,368.5C 440.302,355.455 431.468,342.788 422,330.5C 413.111,316.278 403.444,302.612 393,289.5C 389.703,283.085 385.537,277.251 380.5,272C 376.312,271.824 372.312,271.324 368.5,270.5C 385.978,271.941 396.978,264.274 401.5,247.5C 402.314,245.369 402.814,243.036 403,240.5C 425.282,254.118 441.949,272.784 453,296.5C 454.491,292.469 455.657,288.469 456.5,284.5 Z"/></g>
<g><path style="opacity:1" fill="#793f17" d="M 310.5,280.5 C 331.198,281.758 350.865,286.925 369.5,296C 405.651,316.161 431.151,345.661 446,384.5C 446.198,382.618 446.698,380.952 447.5,379.5C 447.335,382.85 447.502,386.183 448,389.5C 457.229,416.978 463.396,445.145 466.5,474C 466.186,480.663 465.186,487.163 463.5,493.5C 460.238,502.69 454.571,510.023 446.5,515.5C 444.931,514.286 444.098,512.619 444,510.5C 443.573,502.752 442.573,495.085 441,487.5C 440.632,486.09 439.799,485.09 438.5,484.5C 437.11,497.181 435.61,509.848 434,522.5C 432.135,526.028 429.301,528.528 425.5,530C 421.404,532.259 417.071,533.259 412.5,533C 409.12,529.06 406.12,524.894 403.5,520.5C 393.153,534.999 379.486,545.166 362.5,551C 330.064,560.789 297.064,563.122 263.5,558C 244.065,555.303 226.398,548.303 210.5,537C 204.918,531.923 199.918,526.423 195.5,520.5C 192.88,524.894 189.88,529.06 186.5,533C 179.638,532.578 173.305,530.412 167.5,526.5C 166.194,525.088 165.36,523.421 165,521.5C 163.5,509.139 162,496.805 160.5,484.5C 159.201,485.09 158.368,486.09 158,487.5C 156.89,494.81 155.89,502.143 155,509.5C 154.964,511.941 154.131,513.941 152.5,515.5C 144.579,509.912 138.912,502.578 135.5,493.5C 134.031,487.275 133.364,480.942 133.5,474.5C 134.924,445.547 140.757,417.547 151,390.5C 151.495,388.527 151.662,386.527 151.5,384.5C 152.376,384.631 153.043,384.298 153.5,383.5C 159.724,368.041 167.724,353.708 177.5,340.5C 211.08,297.557 255.414,277.557 310.5,280.5 Z"/></g>
<g><path style="opacity:1" fill="#000000" d="M 286.5,356.5 C 300.012,355.785 313.346,356.951 326.5,360C 344.073,365.646 350.906,377.48 347,395.5C 342.255,407.913 333.755,416.746 321.5,422C 294.447,432.093 272.28,425.593 255,402.5C 246.307,383.911 251.141,370.077 269.5,361C 275.276,359.419 280.942,357.919 286.5,356.5 Z"/></g>
<g><path style="opacity:1" fill="#6c3a20" d="M 448.5,368.5 C 450.099,368.232 451.432,368.566 452.5,369.5C 479.6,408.712 506.933,447.712 534.5,486.5C 523.577,491.983 511.91,495.15 499.5,496C 487.317,497.16 475.317,496.327 463.5,493.5C 465.186,487.163 466.186,480.663 466.5,474C 463.396,445.145 457.229,416.978 448,389.5C 447.502,386.183 447.335,382.85 447.5,379.5C 447.244,375.731 447.577,372.064 448.5,368.5 Z"/></g>
<g><path style="opacity:1" fill="#000000" d="M 280.5,455.5 C 292.667,456.802 304.834,456.802 317,455.5C 320.124,455.745 322.291,457.245 323.5,460C 322.556,461.477 321.223,462.477 319.5,463C 306.167,465 292.833,465 279.5,463C 274.265,459.933 274.598,457.433 280.5,455.5 Z"/></g>
</svg>
