<?xml version="1.0" encoding="UTF-8"?>
<!DOCTYPE svg PUBLIC "-//W3C//DTD SVG 1.1//EN" "http://www.w3.org/Graphics/SVG/1.1/DTD/svg11.dtd">
<svg xmlns="http://www.w3.org/2000/svg" version="1.1" width="600px" height="600px" style="shape-rendering:geometricPrecision; text-rendering:geometricPrecision; image-rendering:optimizeQuality; fill-rule:evenodd; clip-rule:evenodd" xmlns:xlink="http://www.w3.org/1999/xlink">
<g><path style="opacity:0.967" fill="#060402" d="M 599.5,227.5 C 599.5,237.833 599.5,248.167 599.5,258.5C 597.335,265.825 594.835,273.159 592,280.5C 567.308,326.244 551.641,374.911 545,426.5C 541.214,438.623 533.048,443.789 520.5,442C 511.018,438.536 503.185,432.703 497,424.5C 473.996,397.153 458.996,365.819 452,330.5C 440.337,364.822 428.67,399.156 417,433.5C 409.211,462.324 402.211,491.324 396,520.5C 386.483,549.684 366.649,567.184 336.5,573C 328.683,573.986 320.85,574.819 313,575.5C 298.7,575.144 284.534,574.644 270.5,574C 237.13,570.279 214.63,552.779 203,521.5C 196.667,495.503 190.334,469.503 184,443.5C 171.535,405.77 158.868,368.104 146,330.5C 137.491,371.36 118.658,406.526 89.5,436C 79.8749,443.698 69.8749,444.365 59.5,438C 56.6939,434.886 54.5272,431.386 53,427.5C 48.9878,397.119 41.9878,367.452 32,338.5C 20.5595,313.633 9.72613,288.633 -0.5,263.5C -0.5,250.167 -0.5,236.833 -0.5,223.5C 3.52225,213.616 8.68892,204.283 15,195.5C 47.8895,150.27 88.0562,113.103 135.5,84C 153.263,73.1904 172.43,66.3571 193,63.5C 193.873,63.7355 194.707,64.0688 195.5,64.5C 216.818,54.7532 239.151,48.5865 262.5,46C 305.077,40.6911 346.744,44.6911 387.5,58C 392.602,59.5885 397.435,61.7552 402,64.5C 410.241,64.2073 418.407,65.3739 426.5,68C 438.303,71.9009 449.637,76.9009 460.5,83C 514.482,115.648 558.649,158.481 593,211.5C 595.503,216.819 597.669,222.152 599.5,227.5 Z"/></g>
<g><path style="opacity:1" fill="#c38d43" d="M 401.5,75.5 C 422.742,93.2625 436.909,115.596 444,142.5C 447.964,159.619 450.631,176.952 452,194.5C 453.888,223.14 455.054,251.806 455.5,280.5C 441.516,328.62 426.016,376.287 409,423.5C 405.078,437.118 401.411,450.785 398,464.5C 394.71,448.97 390.043,433.97 384,419.5C 366.368,381.744 351.368,342.744 339,302.5C 334.742,284.329 333.742,265.996 336,247.5C 340.119,230.805 344.452,214.138 349,197.5C 356.363,170.149 354.696,143.483 344,117.5C 331.258,93.0446 311.425,83.5446 284.5,89C 271.16,95.004 260.993,104.504 254,117.5C 243.304,143.483 241.637,170.149 249,197.5C 253.559,214.164 257.892,230.831 262,247.5C 262.873,262.203 262.54,276.87 261,291.5C 257.823,306.368 253.823,321.035 249,335.5C 236.12,368.017 222.787,400.35 209,432.5C 205.534,442.698 202.534,453.031 200,463.5C 195.956,447.029 191.289,430.696 186,414.5C 169.787,370.695 155.287,326.362 142.5,281.5C 142.229,241.734 144.562,202.068 149.5,162.5C 153.975,127.202 169.642,98.2016 196.5,75.5C 210.324,68.2788 224.991,63.1122 240.5,60C 290.34,50.173 339.34,53.173 387.5,69C 392.313,70.9072 396.98,73.0739 401.5,75.5 Z"/></g>
<g><path style="opacity:1" fill="#996c32" d="M 196.5,75.5 C 169.642,98.2016 153.975,127.202 149.5,162.5C 144.562,202.068 142.229,241.734 142.5,281.5C 140.051,301.461 136.884,321.461 133,341.5C 123.396,375.221 106.229,404.388 81.5,429C 73.4187,434.798 67.2521,433.298 63,424.5C 58.6747,394.199 51.6747,364.532 42,335.5C 32.5495,312.598 22.5495,289.932 12,267.5C 3.71682,245.634 6.38348,225.301 20,206.5C 56.6316,153.62 103.465,112.454 160.5,83C 171.948,77.2245 183.948,74.7245 196.5,75.5 Z"/></g>
<g><path style="opacity:1" fill="#996c32" d="M 455.5,280.5 C 455.054,251.806 453.888,223.14 452,194.5C 450.631,176.952 447.964,159.619 444,142.5C 436.909,115.596 422.742,93.2625 401.5,75.5C 406.452,74.5555 411.452,74.7222 416.5,76C 434.445,80.9736 451.111,88.6403 466.5,99C 510.872,128.371 548.372,164.871 579,208.5C 582.861,214.888 586.194,221.554 589,228.5C 590.956,237.829 590.956,247.162 589,256.5C 586.929,264.381 584.262,272.048 581,279.5C 556.618,324.98 541.284,373.313 535,424.5C 532.092,432.037 526.925,434.204 519.5,431C 500.662,413.843 485.829,393.677 475,370.5C 463.816,341.403 457.316,311.403 455.5,280.5 Z"/></g>
<g><path style="opacity:1" fill="#f5f5f4" d="M 319.5,103.5 C 322.5,107.167 325.833,110.5 329.5,113.5C 341.099,133.593 345.266,155.259 342,178.5C 340.379,187.564 338.546,196.564 336.5,205.5C 335.076,207.515 334.41,209.848 334.5,212.5C 333.076,214.515 332.41,216.848 332.5,219.5C 323.808,245.612 322.308,272.279 328,299.5C 330.711,311.677 334.044,323.677 338,335.5C 351.39,369.28 365.057,402.947 379,436.5C 387.899,457.326 391.233,478.993 389,501.5C 382.54,543.924 357.54,564.924 314,564.5C 300.855,564.077 287.689,563.911 274.5,564C 236.711,559.878 214.878,539.044 209,501.5C 207.9,488.388 208.567,475.388 211,462.5C 214.066,450.97 217.732,439.637 222,428.5C 237.901,392.8 252.234,356.467 265,319.5C 267.418,310.907 269.251,302.241 270.5,293.5C 271.657,290.727 272.324,287.727 272.5,284.5C 274.152,269.256 273.485,254.256 270.5,239.5C 270.58,236.219 269.913,233.219 268.5,230.5C 268.768,228.901 268.434,227.568 267.5,226.5C 267.59,223.848 266.924,221.515 265.5,219.5C 265.59,216.848 264.924,214.515 263.5,212.5C 263.59,209.848 262.924,207.515 261.5,205.5C 255.397,183.512 253.897,161.179 257,138.5C 260.169,129.812 264.002,121.478 268.5,113.5C 270.5,112.167 272.167,110.5 273.5,108.5C 275.5,107.167 277.167,105.5 278.5,103.5C 292.125,95.5837 305.791,95.5837 319.5,103.5 Z"/></g>
<g><path style="opacity:1" fill="#6c5437" d="M 319.5,103.5 C 323.833,105.833 327.167,109.167 329.5,113.5C 325.833,110.5 322.5,107.167 319.5,103.5 Z"/></g>
<g><path style="opacity:1" fill="#7f674c" d="M 278.5,103.5 C 277.167,105.5 275.5,107.167 273.5,108.5C 274.167,105.833 275.833,104.167 278.5,103.5 Z"/></g>
<g><path style="opacity:1" fill="#684f32" d="M 273.5,108.5 C 272.167,110.5 270.5,112.167 268.5,113.5C 269.167,110.833 270.833,109.167 273.5,108.5 Z"/></g>
<g><path style="opacity:1" fill="#695134" d="M 261.5,205.5 C 262.924,207.515 263.59,209.848 263.5,212.5C 262.076,210.485 261.41,208.152 261.5,205.5 Z"/></g>
<g><path style="opacity:1" fill="#695134" d="M 336.5,205.5 C 336.59,208.152 335.924,210.485 334.5,212.5C 334.41,209.848 335.076,207.515 336.5,205.5 Z"/></g>
<g><path style="opacity:1" fill="#695134" d="M 263.5,212.5 C 264.924,214.515 265.59,216.848 265.5,219.5C 264.076,217.485 263.41,215.152 263.5,212.5 Z"/></g>
<g><path style="opacity:1" fill="#695134" d="M 334.5,212.5 C 334.59,215.152 333.924,217.485 332.5,219.5C 332.41,216.848 333.076,214.515 334.5,212.5 Z"/></g>
<g><path style="opacity:1" fill="#6c5437" d="M 265.5,219.5 C 266.924,221.515 267.59,223.848 267.5,226.5C 266.076,224.485 265.41,222.152 265.5,219.5 Z"/></g>
<g><path style="opacity:1" fill="#030303" d="M 210.5,232.5 C 234.925,235.357 246.092,249.024 244,273.5C 239.233,289.769 228.4,298.435 211.5,299.5C 194.6,298.435 183.767,289.769 179,273.5C 177.03,250.062 187.53,236.395 210.5,232.5 Z"/></g>
<g><path style="opacity:1" fill="#6e563a" d="M 268.5,230.5 C 269.913,233.219 270.58,236.219 270.5,239.5C 269.087,236.781 268.42,233.781 268.5,230.5 Z"/></g>
<g><path style="opacity:1" fill="#030303" d="M 385.5,232.5 C 409.925,235.357 421.092,249.024 419,273.5C 414.233,289.769 403.4,298.435 386.5,299.5C 369.6,298.435 358.767,289.769 354,273.5C 352.03,250.062 362.53,236.395 385.5,232.5 Z"/></g>
<g><path style="opacity:1" fill="#ececec" d="M 219.5,248.5 C 228.658,247.491 232.492,251.491 231,260.5C 226,265.833 221,265.833 216,260.5C 214.593,255.643 215.76,251.643 219.5,248.5 Z"/></g>
<g><path style="opacity:1" fill="#ececec" d="M 394.5,248.5 C 403.658,247.491 407.492,251.491 406,260.5C 401,265.833 396,265.833 391,260.5C 389.593,255.643 390.76,251.643 394.5,248.5 Z"/></g>
<g><path style="opacity:1" fill="#97816a" d="M 272.5,284.5 C 272.324,287.727 271.657,290.727 270.5,293.5C 270.215,290.171 270.882,287.171 272.5,284.5 Z"/></g>
<g><path style="opacity:1" fill="#060605" d="M 289.5,451.5 C 304.802,450.439 319.468,452.939 333.5,459C 354.105,473.143 360.605,492.31 353,516.5C 346.56,529.606 336.393,538.439 322.5,543C 299.401,550.031 277.734,547.031 257.5,534C 244.823,522.641 239.656,508.474 242,491.5C 245.677,473.487 256.177,461.32 273.5,455C 278.989,453.925 284.322,452.759 289.5,451.5 Z"/></g>
<g><path style="opacity:1" fill="#362e2b" d="M 290.5,461.5 C 305.027,460.254 318.694,463.087 331.5,470C 335.333,472.5 338.5,475.667 341,479.5C 351.636,507.062 342.803,525.229 314.5,534C 298.237,537.699 282.571,535.699 267.5,528C 255.046,518.988 250.212,506.821 253,491.5C 255.575,479.212 262.742,470.712 274.5,466C 279.928,464.351 285.262,462.851 290.5,461.5 Z"/></g>
</svg>
