<?xml version="1.0" encoding="UTF-8"?>
<!DOCTYPE svg PUBLIC "-//W3C//DTD SVG 1.1//EN" "http://www.w3.org/Graphics/SVG/1.1/DTD/svg11.dtd">
<svg xmlns="http://www.w3.org/2000/svg" version="1.1" width="600px" height="600px" style="shape-rendering:geometricPrecision; text-rendering:geometricPrecision; image-rendering:optimizeQuality; fill-rule:evenodd; clip-rule:evenodd" xmlns:xlink="http://www.w3.org/1999/xlink">
<g><path style="opacity:0.991" fill="#000101" d="M 599.5,216.5 C 599.5,236.167 599.5,255.833 599.5,275.5C 590.809,310.076 579.976,344.076 567,377.5C 552.396,412.426 530.562,441.926 501.5,466C 493.436,472.198 484.436,476.531 474.5,479C 465.731,479.646 457.398,477.98 449.5,474C 426.475,461.642 410.641,443.142 402,418.5C 395.079,444.416 392.579,470.916 394.5,498C 393.592,510.102 392.759,522.269 392,534.5C 392.18,556.485 381.347,567.818 359.5,568.5C 350.019,568.849 342.186,565.516 336,558.5C 330.432,547.194 323.265,537.027 314.5,528C 304.153,519.22 293.986,519.387 284,528.5C 276.341,537.812 269.674,547.812 264,558.5C 250.288,568.911 235.788,570.078 220.5,562C 214.23,556.628 210.73,549.795 210,541.5C 207.337,513.571 206.003,485.571 206,457.5C 203.821,444.754 201.321,432.088 198.5,419.5C 189.031,443.466 173.031,461.633 150.5,474C 135.796,481.764 121.463,481.097 107.5,472C 77.8188,450.647 54.9855,423.48 39,390.5C 22.2996,351.567 9.13292,311.567 -0.5,270.5C -0.5,253.167 -0.5,235.833 -0.5,218.5C 5.02697,209.458 11.1936,200.791 18,192.5C 39.694,166.133 62.8607,140.966 87.5,117C 114.023,93.4879 143.023,73.4879 174.5,57C 193.841,40.8758 216.174,31.5424 241.5,29C 260.984,27.2337 280.484,27.067 300,28.5C 333.012,24.2847 365.179,27.7847 396.5,39C 423.835,54.3296 450.501,70.6629 476.5,88C 488.455,96.9534 500.122,106.287 511.5,116C 536.472,140.299 559.972,165.799 582,192.5C 588.099,200.39 593.933,208.39 599.5,216.5 Z"/></g>
<g><path style="opacity:1" fill="#261a12" d="M 384.5,451.5 C 383.778,451.082 383.278,450.416 383,449.5C 383.591,431.392 381.258,413.725 376,396.5C 373.996,390.489 371.996,384.489 370,378.5C 354.903,346.209 341.57,313.209 330,279.5C 322.52,250.417 322.853,221.417 331,192.5C 334.048,182.737 337.381,173.071 341,163.5C 344.615,151.566 340.449,143.732 328.5,140C 308.958,136.534 289.458,136.701 270,140.5C 260.347,143.81 256.347,150.476 258,160.5C 264.947,178.008 270.28,196.008 274,214.5C 278.228,242.008 275.228,268.675 265,294.5C 251.138,328.42 237.471,362.42 224,396.5C 219.001,415.15 216.501,434.15 216.5,453.5C 210.855,422.783 204.355,392.116 197,361.5C 194.061,352.015 190.727,342.681 187,333.5C 178.729,317.958 170.729,302.292 163,286.5C 156.085,269.871 152.085,252.537 151,234.5C 147.508,200.211 146.842,165.877 149,131.5C 157.805,75.3685 190.638,44.5352 247.5,39C 255.165,38.4779 262.832,37.9779 270.5,37.5C 293.163,38.3138 315.83,38.4805 338.5,38C 364.044,38.3003 387.711,44.9669 409.5,58C 433.757,75.9926 447.59,100.159 451,130.5C 453.9,174.061 451.9,217.395 445,260.5C 437.238,286.122 426.572,310.455 413,333.5C 405.629,351.984 399.962,370.984 396,390.5C 391.734,410.766 387.9,431.1 384.5,451.5 Z"/></g>
<g><path style="opacity:1" fill="#39271b" d="M 384.5,451.5 C 383.398,479.213 382.232,506.88 381,534.5C 380.881,540.98 379.215,546.98 376,552.5C 367.859,557.699 359.026,558.866 349.5,556C 347.667,554.5 345.833,553 344,551.5C 339.822,544.472 335.655,537.472 331.5,530.5C 329.676,520.01 330.176,509.677 333,499.5C 333.333,488.5 333.667,477.5 334,466.5C 335.094,464.922 335.928,463.255 336.5,461.5C 339.453,457.375 342.619,453.375 346,449.5C 356.658,424.986 348.825,409.82 322.5,404C 306.094,401.715 289.761,402.049 273.5,405C 251.509,412.148 244.343,426.648 252,448.5C 254.955,453.621 258.789,457.955 263.5,461.5C 266.514,470.579 268.347,479.913 269,489.5C 269.76,503.192 269.594,516.859 268.5,530.5C 264.231,538.196 259.564,545.696 254.5,553C 244.54,557.822 234.706,557.655 225,552.5C 222.144,547.931 220.477,542.931 220,537.5C 218.283,509.514 217.117,481.514 216.5,453.5C 216.501,434.15 219.001,415.15 224,396.5C 237.471,362.42 251.138,328.42 265,294.5C 275.228,268.675 278.228,242.008 274,214.5C 270.28,196.008 264.947,178.008 258,160.5C 256.347,150.476 260.347,143.81 270,140.5C 289.458,136.701 308.958,136.534 328.5,140C 340.449,143.732 344.615,151.566 341,163.5C 337.381,173.071 334.048,182.737 331,192.5C 322.853,221.417 322.52,250.417 330,279.5C 341.57,313.209 354.903,346.209 370,378.5C 371.996,384.489 373.996,390.489 376,396.5C 381.258,413.725 383.591,431.392 383,449.5C 383.278,450.416 383.778,451.082 384.5,451.5 Z"/></g>
<g><path style="opacity:1" fill="#cd9e61" d="M 210.5,192.5 C 239.615,190.783 253.782,204.449 253,233.5C 246.258,254.126 232.091,262.959 210.5,260C 191.267,253.386 182.767,239.886 185,219.5C 188.613,205.725 197.113,196.725 210.5,192.5 Z"/></g>
<g><path style="opacity:1" fill="#cd9f62" d="M 372.5,192.5 C 401.605,190.773 415.772,204.439 415,233.5C 408.27,254.121 394.104,262.954 372.5,260C 354.079,253.341 345.579,240.174 347,220.5C 350.169,206.171 358.669,196.837 372.5,192.5 Z"/></g>
<g><path style="opacity:1" fill="#231815" d="M 213.5,202.5 C 230.919,201.254 240.919,209.254 243.5,226.5C 240.81,244.352 230.476,252.185 212.5,250C 195.497,241.989 190.997,229.489 199,212.5C 203.023,207.758 207.857,204.425 213.5,202.5 Z"/></g>
<g><path style="opacity:1" fill="#241915" d="M 375.5,202.5 C 396.688,202.185 406.188,212.518 404,233.5C 399.135,246.021 389.969,251.521 376.5,250C 366.778,247.945 360.611,242.112 358,232.5C 355.875,217.738 361.709,207.738 375.5,202.5 Z"/></g>
<g><path style="opacity:1" fill="#f3f3f3" d="M 212.5,210.5 C 219.685,210.848 222.519,214.515 221,221.5C 216.667,226.833 212.333,226.833 208,221.5C 206.393,216.438 207.893,212.772 212.5,210.5 Z"/></g>
<g><path style="opacity:1" fill="#f4f4f3" d="M 373.5,210.5 C 380.685,210.848 383.519,214.515 382,221.5C 377.667,226.833 373.333,226.833 369,221.5C 367.393,216.438 368.893,212.772 373.5,210.5 Z"/></g>
<g><path style="opacity:1" fill="#010202" d="M 336.5,461.5 C 325.295,468.179 313.128,472.179 300,473.5C 294.468,473.393 289.134,472.393 284,470.5C 283.439,471.022 282.772,471.355 282,471.5C 275.423,468.797 269.257,465.464 263.5,461.5C 258.789,457.955 254.955,453.621 252,448.5C 244.343,426.648 251.509,412.148 273.5,405C 289.761,402.049 306.094,401.715 322.5,404C 348.825,409.82 356.658,424.986 346,449.5C 342.619,453.375 339.453,457.375 336.5,461.5 Z"/></g>
<g><path style="opacity:1" fill="#261a12" d="M 263.5,461.5 C 269.257,465.464 275.423,468.797 282,471.5C 282.772,471.355 283.439,471.022 284,470.5C 289.134,472.393 294.468,473.393 300,473.5C 313.128,472.179 325.295,468.179 336.5,461.5C 335.928,463.255 335.094,464.922 334,466.5C 333.667,477.5 333.333,488.5 333,499.5C 330.176,509.677 329.676,520.01 331.5,530.5C 310.373,503.872 289.373,503.872 268.5,530.5C 269.594,516.859 269.76,503.192 269,489.5C 268.347,479.913 266.514,470.579 263.5,461.5 Z"/></g>
</svg>
