<?xml version="1.0" encoding="UTF-8"?>
<!DOCTYPE svg PUBLIC "-//W3C//DTD SVG 1.1//EN" "http://www.w3.org/Graphics/SVG/1.1/DTD/svg11.dtd">
<svg xmlns="http://www.w3.org/2000/svg" version="1.1" width="600px" height="600px" style="shape-rendering:geometricPrecision; text-rendering:geometricPrecision; image-rendering:optimizeQuality; fill-rule:evenodd; clip-rule:evenodd" xmlns:xlink="http://www.w3.org/1999/xlink">
<g><path style="opacity:0.96" fill="#030302" d="M 599.5,339.5 C 599.5,342.167 599.5,344.833 599.5,347.5C 594.874,367.189 587.374,385.856 577,403.5C 553.151,446.002 522.984,483.502 486.5,516C 456.163,542.95 428.997,540.117 405,507.5C 399.582,498.999 394.415,490.332 389.5,481.5C 374.545,491.907 357.879,496.407 339.5,495C 311.83,504.967 284.163,504.967 256.5,495C 239.152,496.206 223.319,492.039 209,482.5C 202.064,496.095 193.564,508.595 183.5,520C 169.723,533.444 153.723,537.111 135.5,531C 113.31,517.821 93.8099,501.321 77,481.5C 48.0683,447.995 24.4016,410.995 6,370.5C 3.33838,362.837 1.17171,355.171 -0.5,347.5C -0.5,344.5 -0.5,341.5 -0.5,338.5C 4.32676,312.852 12.4934,288.186 24,264.5C 52.7982,203.523 87.1315,146.189 127,92.5C 143.151,76.5018 161.985,64.6684 183.5,57C 196.567,53.3042 209.567,49.3042 222.5,45C 264.516,35.7125 306.849,34.0459 349.5,40C 367.864,42.8403 385.531,48.007 402.5,55.5C 406.838,54.9917 411.171,55.4917 415.5,57C 447.536,68.7134 472.702,88.88 491,117.5C 528.056,171.924 559.723,229.59 586,290.5C 592.244,306.491 596.744,322.824 599.5,339.5 Z"/></g>
<g><path style="opacity:1" fill="#3d332f" d="M 401.5,66.5 C 430.625,81.3585 448.125,105.025 454,137.5C 455.878,157.154 455.878,176.821 454,196.5C 450.832,215.338 446.832,234.005 442,252.5C 430.005,292.547 416.505,331.881 401.5,370.5C 398.16,357.812 393.826,345.478 388.5,333.5C 390.595,329.154 392.095,324.487 393,319.5C 395.129,309.187 397.129,298.853 399,288.5C 421.083,265.934 431.583,238.767 430.5,207C 430.724,176.988 420.39,151.322 399.5,130C 378.1,112.162 355.1,109.829 330.5,123C 327.98,124.697 325.647,126.53 323.5,128.5C 327.012,111.94 330.012,95.2731 332.5,78.5C 331.749,64.9194 324.749,56.7527 311.5,54C 298.689,51.142 286.356,52.4753 274.5,58C 265.581,65.4826 262.415,74.9826 265,86.5C 267.438,100.19 269.938,113.857 272.5,127.5C 240.702,107.665 212.535,111.998 188,140.5C 167.849,169.253 161.516,200.919 169,235.5C 173.805,256.448 183.805,274.448 199,289.5C 201.845,303.568 205.012,317.568 208.5,331.5C 202.642,344.741 197.975,358.408 194.5,372.5C 177.824,328.637 162.99,283.97 150,238.5C 141.646,207.298 138.646,175.631 141,143.5C 145.851,107.526 164.351,81.5261 196.5,65.5C 220.596,54.6458 245.93,48.8125 272.5,48C 308.072,45.1701 343.072,48.1701 377.5,57C 385.862,59.3513 393.862,62.518 401.5,66.5 Z"/></g>
<g><path style="opacity:1" fill="#f6f3f3" d="M 314.5,152.5 C 313.215,155.589 312.549,158.922 312.5,162.5C 306.183,193.407 311.016,222.407 327,249.5C 341.943,272.108 357.276,294.441 373,316.5C 394.737,352.779 404.57,392.113 402.5,434.5C 401.691,436.292 401.191,438.292 401,440.5C 380.584,419.917 360.084,399.583 339.5,379.5C 331.511,371.014 321.511,366.514 309.5,366C 293.9,363.992 278.9,365.992 264.5,372C 254.726,378.64 251.226,387.807 254,399.5C 257.012,410.345 263.512,418.345 273.5,423.5C 273.351,424.552 273.517,425.552 274,426.5C 291.377,443.366 307.877,460.366 323.5,477.5C 314.884,472.612 306.384,467.612 298,462.5C 291.271,466.213 284.771,470.38 278.5,475C 264.522,483.1 249.522,485.766 233.5,483C 212.44,477.274 199.607,463.774 195,442.5C 190.701,399.033 199.368,358.366 221,320.5C 234.943,299.558 249.277,278.891 264,258.5C 274.889,242.723 281.889,225.39 285,206.5C 285.826,195.326 285.659,184.326 284.5,173.5C 284.55,165.56 283.55,157.894 281.5,150.5C 281.599,147.763 281.265,145.096 280.5,142.5C 280.57,138.575 279.903,134.909 278.5,131.5C 274.537,113.85 271.537,96.0164 269.5,78C 270.87,65.6337 277.87,58.967 290.5,58C 300.768,56.3265 310.434,57.9932 319.5,63C 324.994,67.1548 327.327,72.6548 326.5,79.5C 322.755,103.89 318.755,128.223 314.5,152.5 Z"/></g>
<g><path style="opacity:1" fill="#302826" d="M 401.5,370.5 C 416.505,331.881 430.005,292.547 442,252.5C 446.832,234.005 450.832,215.338 454,196.5C 455.878,176.821 455.878,157.154 454,137.5C 448.125,105.025 430.625,81.3585 401.5,66.5C 407.317,65.5263 412.983,66.3596 418.5,69C 444.83,80.0005 465.664,97.5005 481,121.5C 512.218,167.245 539.885,215.245 564,265.5C 571.647,282.105 578.313,299.105 584,316.5C 587.814,327.896 589.147,339.563 588,351.5C 581.771,371.624 573.104,390.624 562,408.5C 542.937,439.911 520.437,468.744 494.5,495C 488.127,501.042 481.46,506.708 474.5,512C 468.444,516.696 461.777,520.363 454.5,523C 442.983,524.955 432.983,521.955 424.5,514C 412.978,501.796 403.811,487.962 397,472.5C 396.333,471.167 396.333,469.833 397,468.5C 407.147,450.178 410.813,430.511 408,409.5C 406.436,396.385 404.27,383.385 401.5,370.5 Z"/></g>
<g><path style="opacity:1" fill="#302826" d="M 196.5,65.5 C 164.351,81.5261 145.851,107.526 141,143.5C 138.646,175.631 141.646,207.298 150,238.5C 162.99,283.97 177.824,328.637 194.5,372.5C 187.794,398.984 186.961,425.65 192,452.5C 194.347,459.366 197.847,465.532 202.5,471C 195.668,487.007 186.335,501.34 174.5,514C 159.447,526.26 144.114,526.593 128.5,515C 101.566,493.4 78.0663,468.567 58,440.5C 43.0079,419.803 30.0079,397.803 19,374.5C 14.4197,364.265 11.5863,353.598 10.5,342.5C 10.7747,333.626 12.2747,324.959 15,316.5C 20.6867,299.105 27.3534,282.105 35,265.5C 62.8598,207.713 95.5264,153.047 133,101.5C 147.835,86.0085 165.335,74.5085 185.5,67C 189.114,66.0642 192.78,65.5642 196.5,65.5 Z"/></g>
<g><path style="opacity:1" fill="#a27739" d="M 388.5,333.5 C 384.679,326.527 380.846,319.527 377,312.5C 363.421,293.675 350.087,274.675 337,255.5C 326.408,239.983 319.408,222.983 316,204.5C 315.467,178.868 317.967,153.534 323.5,128.5C 325.647,126.53 327.98,124.697 330.5,123C 355.1,109.829 378.1,112.162 399.5,130C 420.39,151.322 430.724,176.988 430.5,207C 431.583,238.767 421.083,265.934 399,288.5C 397.129,298.853 395.129,309.187 393,319.5C 392.095,324.487 390.595,329.154 388.5,333.5 Z"/></g>
<g><path style="opacity:1" fill="#a27739" d="M 272.5,127.5 C 278.698,153.45 281.198,179.783 280,206.5C 276.452,223.815 269.785,239.815 260,254.5C 248.667,270.5 237.333,286.5 226,302.5C 219.638,311.898 213.805,321.565 208.5,331.5C 205.012,317.568 201.845,303.568 199,289.5C 183.805,274.448 173.805,256.448 169,235.5C 161.516,200.919 167.849,169.253 188,140.5C 212.535,111.998 240.702,107.665 272.5,127.5 Z"/></g>
<g><path style="opacity:1" fill="#594937" d="M 278.5,131.5 C 279.903,134.909 280.57,138.575 280.5,142.5C 279.097,139.091 278.43,135.425 278.5,131.5 Z"/></g>
<g><path style="opacity:1" fill="#64533f" d="M 281.5,150.5 C 283.55,157.894 284.55,165.56 284.5,173.5C 283.106,166.023 282.106,158.356 281.5,150.5 Z"/></g>
<g><path style="opacity:1" fill="#3d342f" d="M 213.5,160.5 C 233.888,158.934 247.721,167.6 255,186.5C 257.04,215.46 243.54,229.96 214.5,230C 193.63,223.431 184.464,209.264 187,187.5C 191.342,173.992 200.175,164.992 213.5,160.5 Z"/></g>
<g><path style="opacity:1" fill="#786755" d="M 314.5,152.5 C 314.678,156.122 314.011,159.456 312.5,162.5C 312.549,158.922 313.215,155.589 314.5,152.5 Z"/></g>
<g><path style="opacity:1" fill="#3d342f" d="M 371.5,160.5 C 398.871,162.363 411.205,176.863 408.5,204C 400.114,226.027 384.447,234.027 361.5,228C 343.168,218.026 336.668,202.859 342,182.5C 348.05,169.932 357.884,162.599 371.5,160.5 Z"/></g>
<g><path style="opacity:1" fill="#241916" d="M 215.5,173.5 C 236.699,173.524 245.199,183.857 241,204.5C 232.12,218.767 220.62,221.267 206.5,212C 199.613,204.665 197.78,196.165 201,186.5C 204.162,180.164 208.996,175.831 215.5,173.5 Z"/></g>
<g><path style="opacity:1" fill="#241916" d="M 369.5,173.5 C 387.977,173.143 396.811,182.143 396,200.5C 388.829,216.778 377.329,220.945 361.5,213C 347.463,196.384 350.129,183.217 369.5,173.5 Z"/></g>
<g><path style="opacity:1" fill="#f5f4f4" d="M 225.5,184.5 C 234.818,184.655 236.818,188.488 231.5,196C 224.333,197.5 221.5,194.667 223,187.5C 223.698,186.309 224.531,185.309 225.5,184.5 Z"/></g>
<g><path style="opacity:1" fill="#f7f6f6" d="M 380.5,184.5 C 389.818,184.655 391.818,188.488 386.5,196C 379.667,197.167 376.833,194.333 378,187.5C 378.698,186.309 379.531,185.309 380.5,184.5 Z"/></g>
<g><path style="opacity:1" fill="#080707" d="M 339.5,379.5 C 346.074,396.694 341.741,410.528 326.5,421C 313.95,429.892 300.284,432.559 285.5,429C 281.354,427.426 277.354,425.593 273.5,423.5C 263.512,418.345 257.012,410.345 254,399.5C 251.226,387.807 254.726,378.64 264.5,372C 278.9,365.992 293.9,363.992 309.5,366C 321.511,366.514 331.511,371.014 339.5,379.5 Z"/></g>
<g><path style="opacity:1" fill="#362e2a" d="M 286.5,370.5 C 301.975,368.636 316.642,371.136 330.5,378C 338.856,387.102 339.689,396.936 333,407.5C 310.299,431.094 287.299,431.427 264,408.5C 257.125,399.355 256.792,390.022 263,380.5C 269.967,374.907 277.8,371.574 286.5,370.5 Z"/></g>
<g><path style="opacity:1" fill="#ebe8e8" d="M 339.5,379.5 C 360.084,399.583 380.584,419.917 401,440.5C 401.191,438.292 401.691,436.292 402.5,434.5C 399.298,465.7 381.965,482.367 350.5,484.5C 340.777,484.487 331.777,482.154 323.5,477.5C 307.877,460.366 291.377,443.366 274,426.5C 273.517,425.552 273.351,424.552 273.5,423.5C 277.354,425.593 281.354,427.426 285.5,429C 300.284,432.559 313.95,429.892 326.5,421C 341.741,410.528 346.074,396.694 339.5,379.5 Z"/></g>
<g><path style="opacity:1" fill="#3b322e" d="M 296.5,468.5 C 298.308,468.491 299.975,468.991 301.5,470C 310.41,476.955 320.076,482.622 330.5,487C 308.81,492.956 287.143,492.956 265.5,487C 277.189,482.834 287.522,476.667 296.5,468.5 Z"/></g>
</svg>
