<?xml version="1.0" encoding="UTF-8"?>
<!DOCTYPE svg PUBLIC "-//W3C//DTD SVG 1.1//EN" "http://www.w3.org/Graphics/SVG/1.1/DTD/svg11.dtd">
<svg xmlns="http://www.w3.org/2000/svg" version="1.1" width="600px" height="600px" style="shape-rendering:geometricPrecision; text-rendering:geometricPrecision; image-rendering:optimizeQuality; fill-rule:evenodd; clip-rule:evenodd" xmlns:xlink="http://www.w3.org/1999/xlink">
<g><path style="opacity:0.968" fill="#000000" d="M 599.5,283.5 C 599.5,305.5 599.5,327.5 599.5,349.5C 584.02,380.468 565.52,409.468 544,436.5C 530.825,450.341 516.992,463.508 502.5,476C 473.805,501.62 450.971,497.12 434,462.5C 431.641,479.719 424.141,494.219 411.5,506C 404.843,510.42 397.509,512.92 389.5,513.5C 384.306,511.98 378.973,511.147 373.5,511C 369.765,510.044 366.099,508.878 362.5,507.5C 352.788,532.394 334.455,546.227 307.5,549C 284.585,550.919 265.085,543.753 249,527.5C 244.752,521.004 241.586,514.004 239.5,506.5C 230.453,508.719 221.287,510.385 212,511.5C 194.388,510.548 182.388,501.882 176,485.5C 172.319,476.122 169.652,466.456 168,456.5C 163.39,468.584 156.223,478.75 146.5,487C 134.862,494.272 123.195,494.272 111.5,487C 75.3534,461.192 45.8534,429.359 23,391.5C 15.1385,377.105 7.30513,362.771 -0.5,348.5C -0.5,326.833 -0.5,305.167 -0.5,283.5C 4.11413,273.609 9.2808,263.942 15,254.5C 34.2181,224.618 54.2181,195.285 75,166.5C 87.6213,150.21 100.621,134.21 114,118.5C 127.084,103.889 142.251,92.0558 159.5,83C 164.342,81.0524 169.342,79.719 174.5,79C 201.176,63.828 229.843,54.828 260.5,52C 302.735,47.3288 344.402,50.3288 385.5,61C 399.783,65.6428 413.45,71.6428 426.5,79C 440.378,82.4386 452.712,88.7719 463.5,98C 485.209,117.962 504.709,139.796 522,163.5C 547.489,198.468 571.489,234.468 594,271.5C 595.609,275.71 597.442,279.71 599.5,283.5 Z"/></g>
<g><path style="opacity:1" fill="#322f30" d="M 440.5,95.5 C 468.071,122.633 483.904,155.633 488,194.5C 492.504,246.803 485.504,297.469 467,346.5C 458.119,368.983 448.952,391.316 439.5,413.5C 435.173,411.5 432.173,408.166 430.5,403.5C 425.449,397.788 420.449,392.121 415.5,386.5C 415.334,382.486 415.501,378.486 416,374.5C 427.78,331.156 436.113,287.156 441,242.5C 444.771,215.668 438.771,191.335 423,169.5C 408.693,150.105 390.526,135.605 368.5,126C 358.785,122.786 349.118,122.786 339.5,126C 335.281,128.552 332.114,132.052 330,136.5C 326.906,143.875 324.906,151.542 324,159.5C 322.91,175.473 322.41,191.473 322.5,207.5C 322.795,225.51 322.962,243.51 323,261.5C 319.006,253.186 316.006,244.519 314,235.5C 311.226,215.549 308.893,195.549 307,175.5C 305.542,169.941 302.042,168.108 296.5,170C 294.513,171.319 293.346,173.152 293,175.5C 291.107,195.549 288.774,215.549 286,235.5C 283.66,245.519 280.327,255.186 276,264.5C 277.222,236.193 277.555,207.86 277,179.5C 276.879,166.193 274.879,153.193 271,140.5C 264.977,125.904 254.143,120.404 238.5,124C 203.493,135.67 178.66,158.503 164,192.5C 159.522,203.559 157.355,215.059 157.5,227C 164.017,301.257 179.851,373.424 205,443.5C 207.699,448.256 210.866,452.589 214.5,456.5C 220.761,464.265 227.594,471.598 235,478.5C 237.332,483.332 239.166,488.332 240.5,493.5C 228.194,499.791 215.194,501.624 201.5,499C 192.793,494.282 186.96,487.115 184,477.5C 180.46,462.798 176.793,448.131 173,433.5C 171.556,431.845 169.722,431.178 167.5,431.5C 157.853,404.533 147.353,377.866 136,351.5C 113.185,295.019 106.518,236.686 116,176.5C 122.468,143.263 138.302,115.596 163.5,93.5C 168.012,90.8189 173.012,89.3189 178.5,89C 204.71,73.5979 233.043,64.5979 263.5,62C 297.007,59.1297 330.341,60.463 363.5,66C 384.412,70.5252 404.079,78.1919 422.5,89C 428.96,90.0959 434.96,92.2626 440.5,95.5 Z"/></g>
<g><path style="opacity:1" fill="#1d191a" d="M 163.5,93.5 C 138.302,115.596 122.468,143.263 116,176.5C 106.518,236.686 113.185,295.019 136,351.5C 147.353,377.866 157.853,404.533 167.5,431.5C 166.542,431.953 165.708,432.619 165,433.5C 161.035,449.932 153.535,464.432 142.5,477C 132.121,483.414 122.121,482.748 112.5,475C 78.609,449.781 51.109,418.947 30,382.5C 22.7456,369.659 15.7456,356.659 9,343.5C 0.94226,318.362 3.60893,294.362 17,271.5C 47.842,220.993 82.1753,172.993 120,127.5C 131.661,115.164 144.494,104.331 158.5,95C 160.025,93.9914 161.692,93.4914 163.5,93.5 Z"/></g>
<g><path style="opacity:1" fill="#1d191a" d="M 440.5,95.5 C 455.176,104.459 468.342,115.459 480,128.5C 516.855,173.209 550.522,220.209 581,269.5C 585.779,278.505 589.779,287.838 593,297.5C 594.486,308.461 594.819,319.461 594,330.5C 572.448,387.784 537.615,435.284 489.5,473C 473.131,486.211 459.297,484.044 448,466.5C 442.668,455.979 437.834,445.313 433.5,434.5C 435.092,427.39 437.092,420.39 439.5,413.5C 448.952,391.316 458.119,368.983 467,346.5C 485.504,297.469 492.504,246.803 488,194.5C 483.904,155.633 468.071,122.633 440.5,95.5 Z"/></g>
<g><path style="opacity:1" fill="#080807" d="M 415.5,386.5 C 409.149,402.385 403.649,418.718 399,435.5C 395.761,442.872 391.595,449.539 386.5,455.5C 375.824,463.307 363.824,466.307 350.5,464.5C 336.922,460.515 323.255,456.348 309.5,452C 308.627,450.955 307.627,450.122 306.5,449.5C 301.477,443.921 300.143,437.421 302.5,430C 304.172,426.995 306.505,424.661 309.5,423C 326.767,419.049 339.267,409.216 347,393.5C 350.368,373.491 341.868,361.657 321.5,358C 314.49,357.072 307.49,356.238 300.5,355.5C 287.522,355.552 275.189,358.385 263.5,364C 252.912,372.429 250.078,382.929 255,395.5C 262.94,410.076 275.107,419.242 291.5,423C 299.056,427.848 301.556,434.682 299,443.5C 297.668,445.66 296.168,447.66 294.5,449.5C 280.641,455.384 266.308,459.884 251.5,463C 250.944,463.383 250.611,463.883 250.5,464.5C 237.377,466.278 225.377,463.612 214.5,456.5C 210.866,452.589 207.699,448.256 205,443.5C 179.851,373.424 164.017,301.257 157.5,227C 157.355,215.059 159.522,203.559 164,192.5C 178.66,158.503 203.493,135.67 238.5,124C 254.143,120.404 264.977,125.904 271,140.5C 274.879,153.193 276.879,166.193 277,179.5C 277.555,207.86 277.222,236.193 276,264.5C 280.327,255.186 283.66,245.519 286,235.5C 288.774,215.549 291.107,195.549 293,175.5C 293.346,173.152 294.513,171.319 296.5,170C 302.042,168.108 305.542,169.941 307,175.5C 308.893,195.549 311.226,215.549 314,235.5C 316.006,244.519 319.006,253.186 323,261.5C 322.962,243.51 322.795,225.51 322.5,207.5C 322.41,191.473 322.91,175.473 324,159.5C 324.906,151.542 326.906,143.875 330,136.5C 332.114,132.052 335.281,128.552 339.5,126C 349.118,122.786 358.785,122.786 368.5,126C 390.526,135.605 408.693,150.105 423,169.5C 438.771,191.335 444.771,215.668 441,242.5C 436.113,287.156 427.78,331.156 416,374.5C 415.501,378.486 415.334,382.486 415.5,386.5 Z"/></g>
<g><path style="opacity:1" fill="#845d2f" d="M 240.5,128.5 C 250.567,126.788 258.4,130.121 264,138.5C 268.911,149.794 271.411,161.628 271.5,174C 273.119,207.567 272.286,241.067 269,274.5C 263.831,283.508 258.164,292.175 252,300.5C 236.915,316.914 222.582,333.914 209,351.5C 201.657,363.519 196.657,376.519 194,390.5C 178.506,339.535 168.172,287.535 163,234.5C 162.019,210.775 168.686,189.442 183,170.5C 197.888,150.489 217.054,136.489 240.5,128.5 Z"/></g>
<g><path style="opacity:1" fill="#845d2f" d="M 347.5,128.5 C 361.353,128.919 374.019,133.086 385.5,141C 431.517,173.701 447.017,217.535 432,272.5C 426.585,307.241 419.252,341.574 410,375.5C 409.289,377.899 409.456,380.232 410.5,382.5C 408.883,385.28 407.716,388.28 407,391.5C 405.248,377.908 400.914,365.242 394,353.5C 390.054,347.221 385.721,341.221 381,335.5C 361.726,316.238 344.726,295.238 330,272.5C 327.171,235.517 326.838,198.517 329,161.5C 329.945,150.992 333.445,141.492 339.5,133C 342.099,131.205 344.766,129.705 347.5,128.5 Z"/></g>
<g><path style="opacity:1" fill="#090604" d="M 215.5,161.5 C 230.878,161.052 239.044,168.386 240,183.5C 237.668,189.164 233.501,192.664 227.5,194C 220.051,195.756 212.551,197.256 205,198.5C 195.276,196.729 191.942,191.062 195,181.5C 199.106,171.893 205.939,165.226 215.5,161.5 Z"/></g>
<g><path style="opacity:1" fill="#080503" d="M 375.5,161.5 C 386.206,161.436 394.706,165.77 401,174.5C 405.364,180.348 406.364,186.681 404,193.5C 401.724,196.888 398.558,198.554 394.5,198.5C 384.851,197.629 375.518,195.462 366.5,192C 359.041,186.521 357.541,179.688 362,171.5C 365.609,166.692 370.109,163.358 375.5,161.5 Z"/></g>
<g><path style="opacity:1" fill="#1d1a1a" d="M 219.5,166.5 C 227.443,167.794 232.443,172.294 234.5,180C 234.375,181.627 233.875,183.127 233,184.5C 229.639,187.263 225.805,189.097 221.5,190C 214.947,191.979 208.28,192.646 201.5,192C 199.718,189.757 199.218,187.257 200,184.5C 203.58,175.16 210.08,169.16 219.5,166.5 Z"/></g>
<g><path style="opacity:1" fill="#1d1a1a" d="M 377.5,166.5 C 389.07,168.901 396.737,175.734 400.5,187C 399.87,188.892 398.87,190.559 397.5,192C 387.842,192.269 378.509,190.602 369.5,187C 364.211,183.626 363.378,179.459 367,174.5C 369.855,170.789 373.355,168.123 377.5,166.5 Z"/></g>
<g><path style="opacity:1" fill="#f3f3f3" d="M 299.5,174.5 C 301.61,175.453 302.777,177.119 303,179.5C 304.085,198.952 306.085,218.285 309,237.5C 314.811,260.789 325.145,281.789 340,300.5C 354,316.5 368,332.5 382,348.5C 400.643,374.727 404.643,403.06 394,433.5C 382.764,458.854 364.264,466.02 338.5,455C 329.555,452.129 320.555,449.462 311.5,447C 305.285,441.292 304.952,435.292 310.5,429C 326.524,424.743 339.358,415.909 349,402.5C 359.477,375.619 350.643,359.119 322.5,353C 304.605,349.068 286.938,349.735 269.5,355C 247.676,364.796 241.843,380.629 252,402.5C 261.577,415.887 274.411,424.72 290.5,429C 295.833,434.667 295.833,440.333 290.5,446C 276.585,450.478 262.585,454.645 248.5,458.5C 235.383,461.515 224.217,458.182 215,448.5C 203.419,431.608 199.086,412.942 202,392.5C 204.554,374.489 211.554,358.489 223,344.5C 238.085,328.086 252.418,311.086 266,293.5C 277.989,276.558 286.322,257.892 291,237.5C 293.915,218.285 295.915,198.952 297,179.5C 297.366,177.548 298.199,175.882 299.5,174.5 Z"/></g>
<g><path style="opacity:1" fill="#090806" d="M 208.5,200.5 C 228.825,198.908 242.658,207.575 250,226.5C 251.822,256.678 237.656,270.844 207.5,269C 187.955,262.096 179.455,248.262 182,227.5C 186.351,213.984 195.184,204.984 208.5,200.5 Z"/></g>
<g><path style="opacity:1" fill="#090805" d="M 376.5,200.5 C 405.171,200.003 418.671,214.003 417,242.5C 410.627,262.781 396.793,271.614 375.5,269C 354.783,261.741 346.283,247.241 350,225.5C 354.514,212.483 363.347,204.15 376.5,200.5 Z"/></g>
<g><path style="opacity:1" fill="#f3f3f3" d="M 217.5,217.5 C 226.998,216.173 231.498,220.173 231,229.5C 226.128,237.69 220.462,238.356 214,231.5C 211.432,225.909 212.599,221.243 217.5,217.5 Z"/></g>
<g><path style="opacity:1" fill="#f4f4f4" d="M 385.5,217.5 C 394.986,216.818 399.153,221.152 398,230.5C 392.716,237.821 387.049,238.155 381,231.5C 378.773,225.623 380.273,220.956 385.5,217.5 Z"/></g>
<g><path style="opacity:1" fill="#171616" d="M 306.5,449.5 C 302.5,448.167 298.5,448.167 294.5,449.5C 296.168,447.66 297.668,445.66 299,443.5C 301.556,434.682 299.056,427.848 291.5,423C 275.107,419.242 262.94,410.076 255,395.5C 250.078,382.929 252.912,372.429 263.5,364C 275.189,358.385 287.522,355.552 300.5,355.5C 307.49,356.238 314.49,357.072 321.5,358C 341.868,361.657 350.368,373.491 347,393.5C 339.267,409.216 326.767,419.049 309.5,423C 306.505,424.661 304.172,426.995 302.5,430C 300.143,437.421 301.477,443.921 306.5,449.5 Z"/></g>
<g><path style="opacity:1" fill="#2b2829" d="M 415.5,386.5 C 420.449,392.121 425.449,397.788 430.5,403.5C 432.173,408.166 435.173,411.5 439.5,413.5C 437.092,420.39 435.092,427.39 433.5,434.5C 430.956,434.104 428.789,434.771 427,436.5C 424.302,450.326 420.968,463.992 417,477.5C 410.983,496.431 398.15,503.931 378.5,500C 372.441,498.257 366.441,496.424 360.5,494.5C 361.231,488.808 363.064,483.475 366,478.5C 373.806,471.537 380.639,463.871 386.5,455.5C 391.595,449.539 395.761,442.872 399,435.5C 403.649,418.718 409.149,402.385 415.5,386.5 Z"/></g>
<g><path style="opacity:1" fill="#ed999c" d="M 306.5,449.5 C 307.627,450.122 308.627,450.955 309.5,452C 323.255,456.348 336.922,460.515 350.5,464.5C 351.643,484.64 347.143,503.306 337,520.5C 327.429,531.701 315.263,537.034 300.5,536.5C 279.226,536.949 264.726,527.283 257,507.5C 252.365,493.553 250.198,479.219 250.5,464.5C 250.611,463.883 250.944,463.383 251.5,463C 266.308,459.884 280.641,455.384 294.5,449.5C 298.5,448.167 302.5,448.167 306.5,449.5 Z"/></g>
<g><path style="opacity:1" fill="#1d1413" d="M 386.5,455.5 C 380.639,463.871 373.806,471.537 366,478.5C 363.064,483.475 361.231,488.808 360.5,494.5C 357.956,494.104 355.789,494.771 354,496.5C 347.303,524.185 329.636,538.185 301,538.5C 271.396,538.536 253.063,524.203 246,495.5C 244.416,494.139 242.582,493.472 240.5,493.5C 239.166,488.332 237.332,483.332 235,478.5C 227.594,471.598 220.761,464.265 214.5,456.5C 225.377,463.612 237.377,466.278 250.5,464.5C 250.198,479.219 252.365,493.553 257,507.5C 264.726,527.283 279.226,536.949 300.5,536.5C 315.263,537.034 327.429,531.701 337,520.5C 347.143,503.306 351.643,484.64 350.5,464.5C 363.824,466.307 375.824,463.307 386.5,455.5 Z"/></g>
</svg>
