<?xml version="1.0" encoding="UTF-8"?>
<!DOCTYPE svg PUBLIC "-//W3C//DTD SVG 1.1//EN" "http://www.w3.org/Graphics/SVG/1.1/DTD/svg11.dtd">
<svg xmlns="http://www.w3.org/2000/svg" version="1.1" width="600px" height="600px" style="shape-rendering:geometricPrecision; text-rendering:geometricPrecision; image-rendering:optimizeQuality; fill-rule:evenodd; clip-rule:evenodd" xmlns:xlink="http://www.w3.org/1999/xlink">
<g><path style="opacity:0.951" fill="#020201" d="M 599.5,181.5 C 599.5,191.167 599.5,200.833 599.5,210.5C 590.718,230.744 581.884,251.077 573,271.5C 572.226,275.147 571.559,278.814 571,282.5C 570.667,295.167 570.333,307.833 570,320.5C 566.502,330.663 560.002,333.163 550.5,328C 546.866,325.575 544.032,322.408 542,318.5C 530.241,295.892 521.241,272.225 515,247.5C 513.939,244.438 512.106,241.938 509.5,240C 508.216,239.316 507.049,239.483 506,240.5C 503.895,244.583 502.562,248.917 502,253.5C 499.189,281.947 495.522,310.281 491,338.5C 487.175,359.309 480.175,378.976 470,397.5C 452.41,423.669 436.077,450.669 421,478.5C 415.381,496.07 408.381,513.07 400,529.5C 387.455,550.349 369.289,557.849 345.5,552C 341.154,551.373 336.988,550.206 333,548.5C 311,555.167 289,555.167 267,548.5C 251.209,554.798 235.376,554.965 219.5,549C 213.377,545.211 208.21,540.378 204,534.5C 192.817,515.299 184.151,494.966 178,473.5C 165.642,449.498 151.309,426.832 135,405.5C 122.171,384.832 113.504,362.498 109,338.5C 104.478,310.281 100.811,281.947 98,253.5C 97.4382,248.917 96.1048,244.583 94,240.5C 89.4638,240.32 86.4638,242.654 85,247.5C 79.003,273.164 69.6697,297.498 57,320.5C 52.1312,329.233 44.9646,332.066 35.5,329C 32.3663,326.612 30.533,323.446 30,319.5C 29.6667,306.833 29.3333,294.167 29,281.5C 28.5483,278.123 27.8816,274.789 27,271.5C 17.23,249.975 8.06332,228.308 -0.5,206.5C -0.5,199.167 -0.5,191.833 -0.5,184.5C 21.4843,148.352 51.151,120.185 88.5,100C 99.5295,96.0606 110.863,93.394 122.5,92C 149.508,90.1048 176.508,88.1048 203.5,86C 267.833,62.6667 332.167,62.6667 396.5,86C 423.492,88.1048 450.492,90.1048 477.5,92C 497.704,93.7326 516.037,100.399 532.5,112C 559.156,131.153 581.489,154.32 599.5,181.5 Z"/></g>
<g><path style="opacity:1" fill="#535151" d="M 311.5,79.5 C 305.833,79.5 300.167,79.5 294.5,79.5C 294.117,84.8174 292.617,89.8174 290,94.5C 279.08,109.33 269.413,124.996 261,141.5C 256.981,146.843 251.648,149.176 245,148.5C 216.217,145.267 209.884,131.6 226,107.5C 240.904,96.8 256.737,87.8 273.5,80.5C 286.14,78.6024 298.806,78.269 311.5,79.5 Z"/></g>
<g><path style="opacity:1" fill="#646363" d="M 311.5,79.5 C 325.272,79.9057 338.939,81.4057 352.5,84C 366.64,87.6999 380.64,91.6999 394.5,96C 425.86,98.4573 457.193,101.124 488.5,104C 498.267,106.144 507.6,109.478 516.5,114C 546.667,133.5 571.5,158.333 591,188.5C 592.088,196.113 591.088,203.446 588,210.5C 579.667,229.833 571.333,249.167 563,268.5C 561.372,274.388 560.372,280.388 560,286.5C 559.832,297.848 559.332,309.181 558.5,320.5C 555.53,319.363 553.364,317.363 552,314.5C 547.139,306.112 542.806,297.446 539,288.5C 533.486,271.44 527.819,254.44 522,237.5C 508.313,223.534 498.813,225.867 493.5,244.5C 480.631,224.116 464.965,205.949 446.5,190C 440.464,184.981 433.797,180.981 426.5,178C 422.834,176.729 420.334,177.896 419,181.5C 418.287,189.274 418.953,196.941 421,204.5C 424.131,216.225 427.464,227.892 431,239.5C 432.574,248.853 434.241,258.186 436,267.5C 438.14,274.974 442.974,279.807 450.5,282C 463.845,285.156 476.511,283.656 488.5,277.5C 486.643,300.354 483.477,323.021 479,345.5C 474.679,364.663 467.179,382.329 456.5,398.5C 456.246,391.401 452.913,386.235 446.5,383C 439.405,379.119 432.071,375.785 424.5,373C 408.685,368.797 393.018,364.13 377.5,359C 369.321,354.747 361.654,349.747 354.5,344C 351.386,342.069 348.053,341.402 344.5,342C 343.439,343.849 342.773,345.849 342.5,348C 346.71,364.342 350.21,380.842 353,397.5C 354.865,409.766 355.698,422.099 355.5,434.5C 352.667,422.49 345.333,414.323 333.5,410C 311.926,404.423 290.259,404.089 268.5,409C 256.624,413.044 248.624,420.877 244.5,432.5C 245.202,405.619 249.369,379.286 257,353.5C 259.349,341.186 255.182,338.353 244.5,345C 239.211,348.62 234.211,352.62 229.5,357C 227.5,358 225.5,359 223.5,360C 209.656,364.591 195.656,368.591 181.5,372C 172.146,375.176 163.146,379.176 154.5,384C 148.499,387.516 145.165,392.682 144.5,399.5C 133.182,383.181 125.349,365.181 121,345.5C 115.786,316.004 111.786,286.338 109,256.5C 108.747,246.269 105.247,237.435 98.5,230C 86.878,228.244 79.0446,233.078 75,244.5C 69.2933,268.621 60.6266,291.621 49,313.5C 47.3333,316.5 45,318.833 42,320.5C 40.6869,308.656 40.0203,296.656 40,284.5C 39,278.833 38,273.167 37,267.5C 28.725,249.284 20.725,230.95 13,212.5C 9.58069,205.165 8.24735,197.498 9,189.5C 19.1805,171.639 32.0138,155.806 47.5,142C 60.7497,129.376 75.4163,118.709 91.5,110C 102.089,105.682 113.089,103.015 124.5,102C 153.897,100.4 183.23,98.067 212.5,95C 231.963,86.551 252.296,81.7177 273.5,80.5C 256.737,87.8 240.904,96.8 226,107.5C 209.884,131.6 216.217,145.267 245,148.5C 251.648,149.176 256.981,146.843 261,141.5C 269.413,124.996 279.08,109.33 290,94.5C 292.617,89.8174 294.117,84.8174 294.5,79.5C 300.167,79.5 305.833,79.5 311.5,79.5 Z"/></g>
<g><path style="opacity:1" fill="#545252" d="M 400.5,110.5 C 407.573,110.292 412.073,113.626 414,120.5C 414.521,130.901 413.854,141.235 412,151.5C 410.883,153.124 409.383,154.124 407.5,154.5C 398.203,151.036 391.703,144.703 388,135.5C 386.879,124.407 391.046,116.074 400.5,110.5 Z"/></g>
<g><path style="opacity:1" fill="#989797" d="M 282.5,142.5 C 287.494,142.329 289.328,144.662 288,149.5C 285.378,155.107 282.045,160.107 278,164.5C 274.664,161.601 273.664,157.934 275,153.5C 276.549,149.13 279.049,145.463 282.5,142.5 Z"/></g>
<g><path style="opacity:1" fill="#545252" d="M 366.5,183.5 C 365.989,180.978 364.989,178.645 363.5,176.5C 358.833,170.996 354.333,165.33 350,159.5C 345.984,149.109 348.484,146.609 357.5,152C 364.458,157.951 370.291,164.785 375,172.5C 377.091,178.37 376.591,184.037 373.5,189.5C 372.5,190.833 371.5,190.833 370.5,189.5C 369.143,187.435 367.81,185.435 366.5,183.5 Z"/></g>
<g><path style="opacity:1" fill="#545252" d="M 191.5,151.5 C 194.959,152.436 197.793,154.436 200,157.5C 204.54,164.041 208.207,171.041 211,178.5C 212.682,185.946 210.848,192.279 205.5,197.5C 204.201,196.91 203.368,195.91 203,194.5C 202.446,189.284 201.113,184.284 199,179.5C 195.561,173.725 192.561,167.725 190,161.5C 189.153,157.928 189.653,154.594 191.5,151.5 Z"/></g>
<g><path style="opacity:1" fill="#c9965a" d="M 240.5,174.5 C 254.213,173.39 262.213,179.557 264.5,193C 264.46,199.044 261.46,202.71 255.5,204C 242.171,204.515 234.838,198.015 233.5,184.5C 233.877,179.731 236.21,176.398 240.5,174.5 Z"/></g>
<g><path style="opacity:1" fill="#c9965a" d="M 363.5,176.5 C 364.989,178.645 365.989,180.978 366.5,183.5C 366.104,192.784 361.771,199.618 353.5,204C 339.247,206.086 333.747,200.252 337,186.5C 342.796,175.179 351.629,171.845 363.5,176.5 Z"/></g>
<g><path style="opacity:1" fill="#545252" d="M 493.5,244.5 C 491.058,255.337 489.391,266.337 488.5,277.5C 476.511,283.656 463.845,285.156 450.5,282C 442.974,279.807 438.14,274.974 436,267.5C 434.241,258.186 432.574,248.853 431,239.5C 427.464,227.892 424.131,216.225 421,204.5C 418.953,196.941 418.287,189.274 419,181.5C 420.334,177.896 422.834,176.729 426.5,178C 433.797,180.981 440.464,184.981 446.5,190C 464.965,205.949 480.631,224.116 493.5,244.5 Z"/></g>
<g><path style="opacity:1" fill="#545252" d="M 145.5,184.5 C 156.885,183.385 162.219,188.552 161.5,200C 161.485,203.903 160.985,207.736 160,211.5C 157.056,218.39 154.389,225.39 152,232.5C 149.668,235.791 146.835,236.291 143.5,234C 133.327,225.491 128.827,214.658 130,201.5C 132.962,193.709 138.129,188.043 145.5,184.5 Z"/></g>
<g><path style="opacity:1" fill="#c79459" d="M 207.5,208.5 C 233.34,206.161 249.507,217.495 256,242.5C 256.708,266.141 245.541,280.974 222.5,287C 199.225,288.444 184.391,277.944 178,255.5C 175.426,231.931 185.259,216.264 207.5,208.5 Z"/></g>
<g><path style="opacity:1" fill="#c79459" d="M 373.5,208.5 C 397.375,205.513 413.542,215.18 422,237.5C 425.572,263.535 414.739,280.035 389.5,287C 365.316,288.156 350.149,276.99 344,253.5C 342.827,231.158 352.66,216.158 373.5,208.5 Z"/></g>
<g><path style="opacity:1" fill="#372f2c" d="M 212.5,218.5 C 235.646,218.818 246.48,230.484 245,253.5C 239.594,270.961 227.761,278.461 209.5,276C 192.786,270.089 185.619,258.256 188,240.5C 191.862,228.184 200.028,220.851 212.5,218.5 Z"/></g>
<g><path style="opacity:1" fill="#372f2c" d="M 379.5,218.5 C 402.163,218.661 412.997,229.995 412,252.5C 406.888,270.987 394.722,278.82 375.5,276C 355.274,266.703 349.774,251.87 359,231.5C 364.042,224.235 370.875,219.902 379.5,218.5 Z"/></g>
<g><path style="opacity:1" fill="#999898" d="M 263.5,220.5 C 266.325,220.081 268.491,221.081 270,223.5C 270.667,227.167 270.667,230.833 270,234.5C 268.084,237.033 266.084,237.033 264,234.5C 261.099,229.788 260.932,225.121 263.5,220.5 Z"/></g>
<g><path style="opacity:1" fill="#f4f4f4" d="M 223.5,230.5 C 228.713,229.762 231.713,231.928 232.5,237C 231.089,242.141 227.755,243.808 222.5,242C 219.681,237.899 220.014,234.065 223.5,230.5 Z"/></g>
<g><path style="opacity:1" fill="#f6f6f6" d="M 391.5,230.5 C 397.82,230.32 400.32,233.32 399,239.5C 395.38,243.487 391.713,243.487 388,239.5C 386.98,235.553 388.147,232.553 391.5,230.5 Z"/></g>
<g><path style="opacity:1" fill="#989797" d="M 307.5,238.5 C 312.494,238.329 314.328,240.662 313,245.5C 310.378,251.107 307.045,256.107 303,260.5C 301.347,260.18 300.347,259.18 300,257.5C 299.149,249.865 301.649,243.532 307.5,238.5 Z"/></g>
<g><path style="opacity:1" fill="#545252" d="M 133.5,263.5 C 149.815,262.985 159.815,270.652 163.5,286.5C 163.23,293.814 160.897,300.314 156.5,306C 154.365,306.635 152.365,306.301 150.5,305C 139.045,294.26 132.879,281.093 132,265.5C 132.717,264.956 133.217,264.289 133.5,263.5 Z"/></g>
<g><path style="opacity:1" fill="#989797" d="M 318.5,297.5 C 321.808,296.974 323.974,298.307 325,301.5C 325.667,304.833 325.667,308.167 325,311.5C 322.368,314.192 320.034,313.859 318,310.5C 314.672,305.856 314.839,301.523 318.5,297.5 Z"/></g>
<g><path style="opacity:1" fill="#545252" d="M 394.5,297.5 C 403.032,298.197 407.866,302.864 409,311.5C 409.667,315.833 409.667,320.167 409,324.5C 407.866,332.457 406.366,340.291 404.5,348C 402.167,348.667 399.833,348.667 397.5,348C 384.099,340.69 377.933,329.523 379,314.5C 381.989,306.685 387.156,301.018 394.5,297.5 Z"/></g>
<g><path style="opacity:1" fill="#545252" d="M 194.5,303.5 C 196.467,303.261 198.301,303.594 200,304.5C 200.667,308.5 200.667,312.5 200,316.5C 195.333,330.5 190.667,344.5 186,358.5C 183.415,359.885 181.415,359.218 180,356.5C 173.385,343.066 174.051,330.066 182,317.5C 185.319,312.017 189.486,307.351 194.5,303.5 Z"/></g>
<g><path style="opacity:1" fill="#545252" d="M 429.5,309.5 C 432.928,309.547 435.928,310.713 438.5,313C 445.127,318.62 450.627,325.12 455,332.5C 457.243,338.568 456.743,344.401 453.5,350C 451.613,350.163 450.113,349.329 449,347.5C 444.928,338.092 439.261,329.759 432,322.5C 428.785,318.53 427.951,314.197 429.5,309.5 Z"/></g>
<g><path style="opacity:1" fill="#999898" d="M 256.5,310.5 C 270.58,311.109 280.413,317.776 286,330.5C 287.115,336.981 286.282,343.147 283.5,349C 279.666,351.037 275.999,350.704 272.5,348C 261.98,339.981 254.314,329.814 249.5,317.5C 250.764,314.046 253.098,311.713 256.5,310.5 Z"/></g>
<g><path style="opacity:1" fill="#c99659" d="M 244.5,432.5 C 244.437,454.872 254.437,471.038 274.5,481C 287.924,488.889 301.924,490.223 316.5,485C 332.343,479.49 344.176,469.323 352,454.5C 354.354,448.043 355.521,441.376 355.5,434.5C 355.698,422.099 354.865,409.766 353,397.5C 350.21,380.842 346.71,364.342 342.5,348C 342.773,345.849 343.439,343.849 344.5,342C 348.053,341.402 351.386,342.069 354.5,344C 361.654,349.747 369.321,354.747 377.5,359C 393.018,364.13 408.685,368.797 424.5,373C 432.071,375.785 439.405,379.119 446.5,383C 452.913,386.235 456.246,391.401 456.5,398.5C 439.837,422.474 424.671,447.474 411,473.5C 404.983,493.563 396.65,512.563 386,530.5C 378.836,538.582 369.836,542.915 359,543.5C 351.696,542.639 344.53,541.139 337.5,539C 334.112,538.341 330.779,538.508 327.5,539.5C 325.692,539.509 324.025,539.009 322.5,538C 316.226,532.363 308.893,529.196 300.5,528.5C 297.408,528.507 294.408,529.007 291.5,530C 285.381,533.726 279.048,536.893 272.5,539.5C 268.888,538.489 265.221,538.322 261.5,539C 249.559,543.999 237.559,544.333 225.5,540C 218.864,535.908 213.698,530.408 210,523.5C 201.103,506.142 193.769,488.142 188,469.5C 174.73,445.271 160.23,421.938 144.5,399.5C 145.165,392.682 148.499,387.516 154.5,384C 163.146,379.176 172.146,375.176 181.5,372C 195.656,368.591 209.656,364.591 223.5,360C 225.5,359 227.5,358 229.5,357C 234.211,352.62 239.211,348.62 244.5,345C 255.182,338.353 259.349,341.186 257,353.5C 249.369,379.286 245.202,405.619 244.5,432.5 Z"/></g>
<g><path style="opacity:1" fill="#1b1a19" d="M 355.5,434.5 C 355.521,441.376 354.354,448.043 352,454.5C 344.176,469.323 332.343,479.49 316.5,485C 301.924,490.223 287.924,488.889 274.5,481C 254.437,471.038 244.437,454.872 244.5,432.5C 248.624,420.877 256.624,413.044 268.5,409C 290.259,404.089 311.926,404.423 333.5,410C 345.333,414.323 352.667,422.49 355.5,434.5 Z"/></g>
<g><path style="opacity:1" fill="#2e2624" d="M 327.5,539.5 C 309.155,543.394 290.821,543.394 272.5,539.5C 279.048,536.893 285.381,533.726 291.5,530C 294.408,529.007 297.408,528.507 300.5,528.5C 308.893,529.196 316.226,532.363 322.5,538C 324.025,539.009 325.692,539.509 327.5,539.5 Z"/></g>
</svg>
