<?xml version="1.0" encoding="UTF-8"?>
<!DOCTYPE svg PUBLIC "-//W3C//DTD SVG 1.1//EN" "http://www.w3.org/Graphics/SVG/1.1/DTD/svg11.dtd">
<svg xmlns="http://www.w3.org/2000/svg" version="1.1" width="600px" height="600px" style="shape-rendering:geometricPrecision; text-rendering:geometricPrecision; image-rendering:optimizeQuality; fill-rule:evenodd; clip-rule:evenodd" xmlns:xlink="http://www.w3.org/1999/xlink">
<g><path style="opacity:0.97" fill="#010101" d="M 599.5,442.5 C 599.5,447.5 599.5,452.5 599.5,457.5C 598.167,460.167 598.167,462.833 599.5,465.5C 599.5,467.5 599.5,469.5 599.5,471.5C 598.503,474.964 597.003,478.297 595,481.5C 595.28,489.665 592.613,496.665 587,502.5C 585.826,511.005 581.493,517.339 574,521.5C 571.86,528.974 567.026,533.807 559.5,536C 554.992,542.832 548.659,546.832 540.5,548C 534.796,553.851 527.796,556.518 519.5,556C 513.733,560.181 507.4,561.348 500.5,559.5C 496.645,560.396 492.811,561.396 489,562.5C 484.967,561.627 480.967,560.627 477,559.5C 470.262,561.273 464.095,560.106 458.5,556C 450.204,556.518 443.204,553.851 437.5,548C 429.348,546.843 423.015,542.843 418.5,536C 415.006,534.421 411.673,532.587 408.5,530.5C 407.069,530.977 405.736,531.643 404.5,532.5C 399.884,544.62 391.217,551.787 378.5,554C 374.141,559.022 369.141,563.355 363.5,567C 357.66,568.895 351.66,569.895 345.5,570C 336.621,578.575 326.455,580.742 315,576.5C 309.687,579.493 304.02,581.493 298,582.5C 291.98,581.493 286.313,579.493 281,576.5C 269.558,580.744 259.391,578.577 250.5,570C 237.157,570.662 226.823,565.495 219.5,554.5C 212.713,553.808 206.713,551.308 201.5,547C 197.698,541.884 194.031,536.717 190.5,531.5C 187.652,533.424 184.652,535.091 181.5,536.5C 177.367,543.077 171.367,546.91 163.5,548C 157.796,553.851 150.796,556.518 142.5,556C 136.669,559.874 130.335,561.041 123.5,559.5C 119.506,560.498 115.506,561.498 111.5,562.5C 107.643,561.577 103.809,560.577 100,559.5C 92.9906,561.122 86.4906,559.955 80.5,556C 72.3443,556.217 65.3443,553.55 59.5,548C 51.4724,546.99 45.4724,542.99 41.5,536C 34.0344,533.701 29.0344,528.867 26.5,521.5C 19.3349,517.177 15.1682,510.844 14,502.5C 8.13351,496.995 5.63351,490.329 6.5,482.5C 2.14601,476.083 0.812676,469.083 2.5,461.5C -0.478302,453.656 -0.144968,445.99 3.5,438.5C 1.58769,431.281 2.75435,424.614 7,418.5C 6.482,410.204 9.14866,403.204 15,397.5C 16.2376,389.345 20.2376,383.011 27,378.5C 29.6412,370.692 34.8079,365.359 42.5,362.5C 43.624,361.086 44.624,359.586 45.5,358C 37.9339,329.295 30.7673,300.462 24,271.5C 22.9056,259.877 25.5723,249.211 32,239.5C 41.7676,227.73 52.2676,216.563 63.5,206C 80.7084,191.123 98.2084,176.623 116,162.5C 117,160.833 118,159.167 119,157.5C 117.67,143.788 122.337,132.788 133,124.5C 134.287,110.249 141.287,99.916 154,93.5C 157.474,80.6931 165.64,72.5264 178.5,69C 182.155,63.6794 186.488,59.0127 191.5,55C 197.581,52.2293 203.914,50.2293 210.5,49C 219.848,38.4134 231.514,34.0801 245.5,36C 255.563,28.1932 266.729,26.0265 279,29.5C 285.591,27.6384 292.258,25.9717 299,24.5C 305.742,25.9717 312.409,27.6384 319,29.5C 331.259,26.023 342.426,28.1896 352.5,36C 366.368,34.4004 378.034,38.7337 387.5,49C 401.359,50.417 411.693,57.0836 418.5,69C 431.863,72.1971 440.53,80.3637 444.5,93.5C 449.978,96.6647 454.812,100.665 459,105.5C 462.198,111.095 464.198,117.095 465,123.5C 475.543,131.478 480.043,141.978 478.5,155C 479.278,157.39 480.445,159.557 482,161.5C 508.494,181.277 533.494,202.944 557,226.5C 563.107,233.273 568.44,240.607 573,248.5C 574.676,254.4 575.843,260.4 576.5,266.5C 575.749,272.179 574.915,277.845 574,283.5C 566.873,307.874 560.373,332.374 554.5,357C 555.956,358.745 557.289,360.578 558.5,362.5C 566.566,365.567 571.9,371.234 574.5,379.5C 581.077,383.633 584.91,389.633 586,397.5C 591.55,403.344 594.217,410.344 594,418.5C 597.958,424.498 599.125,430.998 597.5,438C 597.899,439.728 598.566,441.228 599.5,442.5 Z"/></g>
<g><path style="opacity:1" fill="#595450" d="M 454.5,356.5 C 454.4,362.103 455.067,367.603 456.5,373C 455.007,379.639 453.673,386.306 452.5,393C 453.058,398.346 453.724,403.68 454.5,409C 454.119,412.6 453.285,416.1 452,419.5C 449.894,422.608 448.228,425.941 447,429.5C 446.667,435.833 446.333,442.167 446,448.5C 445.333,450.5 444.667,452.5 444,454.5C 440.753,458.659 437.753,462.992 435,467.5C 435.526,480.117 430.526,489.784 420,496.5C 417.68,500.879 415.513,505.212 413.5,509.5C 409.322,510.145 405.989,512.312 403.5,516C 401.051,516.725 398.717,517.725 396.5,519C 391.592,524.819 386.925,530.819 382.5,537C 378.918,538.251 375.251,539.251 371.5,540C 365.859,543.645 360.859,547.978 356.5,553C 351.833,553.333 347.167,553.667 342.5,554C 337.644,556.26 333.311,559.26 329.5,563C 322.907,562.037 316.241,561.703 309.5,562C 305.947,564.193 302.113,565.693 298,566.5C 294.105,565.943 290.605,564.443 287.5,562C 280.752,561.555 274.086,561.888 267.5,563C 263.553,560.72 259.887,558.053 256.5,555C 250.897,553.876 245.231,553.21 239.5,553C 235.554,549.054 231.554,545.054 227.5,541C 222.335,539.648 217.335,537.982 212.5,536C 209.08,530.493 205.414,525.159 201.5,520C 197.204,518.185 193.204,515.852 189.5,513C 187.402,512.322 185.402,512.489 183.5,513.5C 181.518,508.586 179.685,503.586 178,498.5C 173.721,494.711 169.721,490.711 166,486.5C 163.525,480.038 161.859,473.371 161,466.5C 156.875,461.699 153.542,456.365 151,450.5C 149.854,442.885 149.188,435.218 149,427.5C 142.227,416.929 140.727,405.595 144.5,393.5C 142.942,386.841 141.609,380.174 140.5,373.5C 140.875,367.713 141.875,362.046 143.5,356.5C 144.458,356.047 145.292,355.381 146,354.5C 145.167,331.511 144.167,308.511 143,285.5C 133.66,278.492 129.993,269.158 132,257.5C 128.897,252.731 126.231,247.731 124,242.5C 125.277,235.263 125.611,227.93 125,220.5C 120.212,212.655 120.546,204.988 126,197.5C 126.797,191.228 126.297,185.062 124.5,179C 127.218,173.272 130.385,167.772 134,162.5C 135.139,156.564 135.805,150.564 136,144.5C 138.916,139.58 142.582,135.247 147,131.5C 147.913,125.593 149.58,119.927 152,114.5C 156.848,111.074 161.515,107.408 166,103.5C 168.054,97.3157 171.22,91.8157 175.5,87C 179.419,85.1382 183.419,83.4715 187.5,82C 191.856,76.6464 196.523,71.6464 201.5,67C 206.833,65.6667 212.167,64.3333 217.5,63C 221.88,58.952 226.546,55.2853 231.5,52C 242.69,53.4374 252.69,50.7707 261.5,44C 267.606,43.2672 273.606,43.7672 279.5,45.5C 286.047,43.9743 292.547,42.3076 299,40.5C 305.333,42.1667 311.667,43.8333 318,45.5C 323.7,43.7395 329.534,43.2395 335.5,44C 339.853,46.3667 344.187,48.7001 348.5,51C 360.813,48.6235 370.813,52.2901 378.5,62C 385.541,64.2525 392.541,66.5858 399.5,69C 404.534,78.3676 412.201,84.3676 422.5,87C 426.482,91.1257 429.315,95.9591 431,101.5C 434.806,106.311 439.473,109.978 445,112.5C 448.222,118.039 450.222,124.039 451,130.5C 455.38,135.211 459.38,140.211 463,145.5C 461.247,156.465 464.247,165.798 472,173.5C 472.923,175.034 473.423,176.701 473.5,178.5C 472.574,182.795 471.908,187.128 471.5,191.5C 473.262,197.622 474.929,203.789 476.5,210C 475.026,215.789 473.692,221.622 472.5,227.5C 473.294,231.882 474.294,236.215 475.5,240.5C 473.46,246.246 470.627,251.579 467,256.5C 469.182,268.457 465.515,278.124 456,285.5C 454.7,308.504 453.7,331.504 453,354.5C 453.717,355.044 454.217,355.711 454.5,356.5 Z"/></g>
<g><path style="opacity:1" fill="#7b7673" d="M 483.5,176.5 C 507.56,194.155 530.06,213.822 551,235.5C 555.721,241.221 560.054,247.221 564,253.5C 565.859,262.485 565.859,271.485 564,280.5C 556.846,305.456 550.012,330.456 543.5,355.5C 541.885,354.846 540.218,354.346 538.5,354C 533.439,348.421 527.105,345.754 519.5,346C 513.072,341.601 506.072,340.434 498.5,342.5C 491.93,338.624 485.43,338.624 479,342.5C 474.154,341.192 469.32,341.192 464.5,342.5C 464.167,340.333 463.833,338.167 463.5,336C 464.416,320.838 465.25,305.672 466,290.5C 475.268,282.618 478.934,272.618 477,260.5C 485.629,250.491 487.796,239.158 483.5,226.5C 485.594,221.031 486.928,215.364 487.5,209.5C 486.415,202.671 484.748,196.004 482.5,189.5C 483.201,185.192 483.534,180.859 483.5,176.5 Z"/></g>
<g><path style="opacity:1" fill="#7b7673" d="M 113.5,177.5 C 114.49,182.029 115.49,186.696 116.5,191.5C 110.204,203.104 109.87,214.938 115.5,227C 111.196,239.77 113.362,251.27 122,261.5C 120.284,273.194 123.784,282.86 132.5,290.5C 133.799,307.484 134.799,324.484 135.5,341.5C 130.767,341.223 126.1,341.557 121.5,342.5C 114.75,338.647 108.084,338.647 101.5,342.5C 94.1791,340.381 87.5124,341.548 81.5,346C 74.2894,345.4 68.2894,347.734 63.5,353C 60.6249,354.302 57.6249,355.135 54.5,355.5C 54.5153,351.44 54.0153,347.44 53,343.5C 46.8393,321.189 40.8393,298.856 35,276.5C 34.1439,268.768 34.4772,261.102 36,253.5C 39.2762,247.892 42.9429,242.558 47,237.5C 67.8687,215.784 90.0354,195.784 113.5,177.5 Z"/></g>
<g><path style="opacity:1" fill="#020202" d="M 197.5,234.5 C 225.731,231.885 233.564,243.219 221,268.5C 212.279,279.274 201.112,285.44 187.5,287C 177.621,278.697 174.121,268.197 177,255.5C 180.685,245.316 187.519,238.316 197.5,234.5 Z"/></g>
<g><path style="opacity:1" fill="#010202" d="M 384.5,234.5 C 400.766,231.883 412.6,237.883 420,252.5C 424.525,266.23 421.358,277.73 410.5,287C 395.73,284.857 383.896,277.691 375,265.5C 372.565,257.679 371.898,249.679 373,241.5C 376.263,238.037 380.097,235.704 384.5,234.5 Z"/></g>
<g><path style="opacity:1" fill="#f2f2f2" d="M 207.5,248.5 C 215.586,248.384 217.753,252.051 214,259.5C 208.571,263.971 205.071,262.638 203.5,255.5C 203.621,254.106 203.954,252.772 204.5,251.5C 205.77,250.712 206.77,249.712 207.5,248.5 Z"/></g>
<g><path style="opacity:1" fill="#ededed" d="M 385.5,248.5 C 390.948,247.886 394.282,250.219 395.5,255.5C 389.969,265.2 385.636,264.7 382.5,254C 382.863,251.808 383.863,249.974 385.5,248.5 Z"/></g>
<g><path style="opacity:1" fill="#3b3834" d="M 143.5,356.5 C 141.875,362.046 140.875,367.713 140.5,373.5C 141.609,380.174 142.942,386.841 144.5,393.5C 140.727,405.595 142.227,416.929 149,427.5C 149.188,435.218 149.854,442.885 151,450.5C 153.542,456.365 156.875,461.699 161,466.5C 161.859,473.371 163.525,480.038 166,486.5C 169.721,490.711 173.721,494.711 178,498.5C 179.685,503.586 181.518,508.586 183.5,513.5C 182.841,515.138 182.174,516.805 181.5,518.5C 174.898,520.793 169.898,524.96 166.5,531C 163.956,532.092 161.289,532.759 158.5,533C 154.89,534.944 151.557,537.277 148.5,540C 142.667,539.67 137.334,541.003 132.5,544C 127.821,544.164 123.155,544.164 118.5,544C 116.361,545.404 114.028,546.237 111.5,546.5C 108.044,545.404 104.544,544.404 101,543.5C 95.3388,545.398 90.1721,544.565 85.5,541C 78.0576,542.132 72.0576,539.799 67.5,534C 64.5285,533.206 61.5285,532.539 58.5,532C 54.9691,526.133 49.9691,522.133 43.5,520C 40.7977,513.96 36.631,509.127 31,505.5C 29.908,502.956 29.2414,500.289 29,497.5C 27.056,493.89 24.7226,490.557 22,487.5C 22.3302,481.667 20.9969,476.334 18,471.5C 17.3546,467.638 17.5213,463.804 18.5,460C 17.6983,456.596 16.6983,453.263 15.5,450C 16.9049,446.451 17.9049,442.784 18.5,439C 17.7219,435.845 17.5552,432.678 18,429.5C 21.807,424.512 23.4737,418.846 23,412.5C 25,409.833 27,407.167 29,404.5C 30,401.167 31,397.833 32,394.5C 37.54,391.295 41.2067,386.628 43,380.5C 49.7367,377.098 55.2367,372.265 59.5,366C 62.5597,365.152 65.5597,364.152 68.5,363C 73.2894,357.734 79.2894,355.4 86.5,356C 88.8622,353.644 91.6955,352.144 95,351.5C 106.27,350.257 117.603,350.257 129,351.5C 132.055,352.611 134.888,354.111 137.5,356C 139.473,356.495 141.473,356.662 143.5,356.5 Z"/></g>
<g><path style="opacity:1" fill="#3b3834" d="M 413.5,509.5 C 415.513,505.212 417.68,500.879 420,496.5C 430.526,489.784 435.526,480.117 435,467.5C 437.753,462.992 440.753,458.659 444,454.5C 444.667,452.5 445.333,450.5 446,448.5C 446.333,442.167 446.667,435.833 447,429.5C 448.228,425.941 449.894,422.608 452,419.5C 453.285,416.1 454.119,412.6 454.5,409C 453.724,403.68 453.058,398.346 452.5,393C 453.673,386.306 455.007,379.639 456.5,373C 455.067,367.603 454.4,362.103 454.5,356.5C 457.518,356.665 460.518,356.498 463.5,356C 465.862,353.644 468.695,352.144 472,351.5C 483.333,350.167 494.667,350.167 506,351.5C 509.305,352.144 512.138,353.644 514.5,356C 522.282,355.368 528.615,358.034 533.5,364C 540.474,364.986 545.474,368.653 548.5,375C 551.912,376.455 555.079,378.288 558,380.5C 559.765,386.605 563.431,391.272 569,394.5C 569.546,400.924 572.212,406.258 577,410.5C 576.808,417.07 578.474,423.07 582,428.5C 582.15,435.931 582.983,443.265 584.5,450.5C 583.833,453.833 583.167,457.167 582.5,460.5C 584.5,466.338 583.667,471.671 580,476.5C 580.891,483.31 578.891,488.977 574,493.5C 572.154,496.569 571.154,499.902 571,503.5C 568.323,506.509 565.323,509.176 562,511.5C 560.473,517.693 556.64,521.527 550.5,523C 547.794,525.371 545.461,528.037 543.5,531C 540.956,532.092 538.289,532.759 535.5,533C 531.89,534.944 528.557,537.277 525.5,540C 521.833,540.333 518.167,540.667 514.5,541C 509.904,544.664 504.737,545.497 499,543.5C 495.596,544.302 492.263,545.302 489,546.5C 485.432,545.191 481.766,544.191 478,543.5C 472.339,545.398 467.172,544.565 462.5,541C 455.058,542.132 449.058,539.799 444.5,534C 441.529,533.206 438.529,532.539 435.5,532C 431.969,526.133 426.969,522.133 420.5,520C 418.762,516.001 416.429,512.501 413.5,509.5 Z"/></g>
<g><path style="opacity:1" fill="#010101" d="M 291.5,451.5 C 304.395,451.241 317.062,452.741 329.5,456C 345.439,462.035 351.939,473.535 349,490.5C 344.345,503.824 335.512,513.324 322.5,519C 300.329,528.373 279.996,525.373 261.5,510C 247.213,497.109 244.713,482.276 254,465.5C 258.097,461.202 262.931,458.035 268.5,456C 276.144,453.637 283.811,452.137 291.5,451.5 Z"/></g>
</svg>
