<?xml version="1.0" encoding="UTF-8"?>
<!DOCTYPE svg PUBLIC "-//W3C//DTD SVG 1.1//EN" "http://www.w3.org/Graphics/SVG/1.1/DTD/svg11.dtd">
<svg xmlns="http://www.w3.org/2000/svg" version="1.1" width="600px" height="600px" style="shape-rendering:geometricPrecision; text-rendering:geometricPrecision; image-rendering:optimizeQuality; fill-rule:evenodd; clip-rule:evenodd" xmlns:xlink="http://www.w3.org/1999/xlink">
<g><path style="opacity:0.966" fill="#010101" d="M 599.5,234.5 C 599.5,241.167 599.5,247.833 599.5,254.5C 597.254,254.936 595.087,255.603 593,256.5C 589.875,255.231 586.708,254.398 583.5,254C 589.618,268.215 591.785,283.048 590,298.5C 588.499,305.837 586.999,313.17 585.5,320.5C 586.858,326.113 587.358,331.78 587,337.5C 586.446,341.283 584.446,343.95 581,345.5C 580.182,358.285 578.516,370.952 576,383.5C 570.107,391.806 563.44,392.472 556,385.5C 555.667,385.833 555.333,386.167 555,386.5C 554.586,396.229 553.586,405.896 552,415.5C 551.488,420.038 549.988,424.204 547.5,428C 541.611,431.634 536.111,431.134 531,426.5C 529.046,422.019 527.713,417.352 527,412.5C 523.393,415.885 521.893,420.052 522.5,425C 522.957,431.856 523.623,438.689 524.5,445.5C 523.492,456.904 517.659,460.904 507,457.5C 504.338,475.119 502.005,492.785 500,510.5C 495.808,520.846 488.308,524.679 477.5,522C 470.112,518.723 463.945,513.89 459,507.5C 455.239,500.969 451.239,494.635 447,488.5C 436.569,493.681 430.402,490.515 428.5,479C 430.006,470.974 431.673,462.974 433.5,455C 433.054,452.249 431.387,450.582 428.5,450C 426.959,448.421 425.792,446.587 425,444.5C 423.064,470.217 411.898,490.717 391.5,506C 388.95,507.442 386.284,508.608 383.5,509.5C 371.975,526.766 355.975,537.266 335.5,541C 325.61,551.843 314.11,560.343 301,566.5C 287.395,560.601 275.562,552.101 265.5,541C 245.313,537.414 229.646,527.08 218.5,510C 194.314,498.104 180.481,478.604 177,451.5C 176.667,451.167 176.333,450.833 176,450.5C 173.313,451.713 170.48,452.38 167.5,452.5C 167.648,460.374 168.315,468.207 169.5,476C 169.166,486.499 163.832,490.833 153.5,489C 149.393,496.104 144.893,502.938 140,509.5C 133.738,517.475 125.572,520.975 115.5,520C 106.446,516.756 101.613,510.256 101,500.5C 99.9503,483.386 97.9503,466.386 95,449.5C 93.5713,442.708 91.0713,436.375 87.5,430.5C 80.654,434.622 74.654,433.622 69.5,427.5C 57.6873,433.177 50.854,429.51 49,416.5C 47.7299,406.053 46.3966,395.719 45,385.5C 37.4615,392.654 30.7948,391.987 25,383.5C 22.5327,370.924 20.6994,358.257 19.5,345.5C 15.142,342.943 13.142,339.11 13.5,334C 14.4993,327.669 15.4993,321.336 16.5,315C 11.4786,299.349 10.6452,283.516 14,267.5C 14.9654,262.464 16.4654,257.63 18.5,253C 14.3522,253.914 10.1855,255.081 6,256.5C 3.91293,255.603 1.74627,254.936 -0.5,254.5C -0.5,247.833 -0.5,241.167 -0.5,234.5C 8.77139,227.855 18.4381,221.689 28.5,216C 27.7939,212.982 28.4606,210.148 30.5,207.5C 33.3832,204.891 36.7166,203.058 40.5,202C 37.8124,197.447 37.979,192.947 41,188.5C 50.5462,179.974 61.0462,172.807 72.5,167C 71.7647,163.296 72.7647,159.963 75.5,157C 83.2339,153.42 91.2339,150.42 99.5,148C 104.015,143.652 108.349,139.152 112.5,134.5C 105.326,130.835 103.16,125.169 106,117.5C 108.029,114.404 110.862,112.738 114.5,112.5C 109.158,102.051 112.158,95.2173 123.5,92C 129.219,91.0472 134.885,89.8805 140.5,88.5C 139.225,85.6272 138.392,82.6272 138,79.5C 129.46,73.9078 128.626,67.4078 135.5,60C 149.076,55.1847 163.076,52.3514 177.5,51.5C 177.744,48.7374 179.077,46.5707 181.5,45C 184.365,44.1632 187.198,43.3298 190,42.5C 198.716,44.0558 207.549,44.7225 216.5,44.5C 216.755,39.8291 219.089,36.6625 223.5,35C 230.982,35.5723 238.482,36.4056 246,37.5C 282.498,32.1742 318.998,32.1742 355.5,37.5C 361.943,37.3468 368.11,36.0135 374,33.5C 380.441,34.4392 383.941,38.1059 384.5,44.5C 393.586,44.7032 402.586,44.0365 411.5,42.5C 417.484,42.8752 421.818,45.7085 424.5,51C 432.866,52.1148 441.199,53.4482 449.5,55C 455.468,56.0716 461.134,57.9049 466.5,60.5C 472.479,68.1058 471.313,74.4392 463,79.5C 462.803,82.6919 461.97,85.6919 460.5,88.5C 467.522,89.8608 474.522,91.3608 481.5,93C 489.178,97.2186 490.844,103.052 486.5,110.5C 489.57,112.464 492.403,114.798 495,117.5C 498.123,125.808 495.623,131.641 487.5,135C 492.167,139.667 496.833,144.333 501.5,149C 507.895,151.182 514.229,153.515 520.5,156C 523.64,159.416 525.64,163.416 526.5,168C 537.806,173.568 547.973,180.735 557,189.5C 559.475,193.428 559.642,197.261 557.5,201C 561.196,202.455 564.696,204.288 568,206.5C 570.353,209.416 571.186,212.583 570.5,216C 580.586,221.601 590.253,227.768 599.5,234.5 Z M 429.5,365.5 C 430.649,365.791 431.316,366.624 431.5,368C 431.333,368.833 431.167,369.667 431,370.5C 430.392,368.846 429.892,367.179 429.5,365.5 Z M 172.5,420.5 C 174.042,421.301 175.708,421.634 177.5,421.5C 177.11,424.839 176.61,428.173 176,431.5C 174.667,429.5 173.333,427.5 172,425.5C 171.36,423.735 171.527,422.068 172.5,420.5 Z M 428.5,420.5 C 429.725,421.152 430.392,422.319 430.5,424C 429.601,428.363 428.101,432.529 426,436.5C 424.921,431.532 424.088,426.532 423.5,421.5C 425.415,421.784 427.081,421.451 428.5,420.5 Z"/></g>
<g><path style="opacity:1" fill="#343333" d="M 463.5,127.5 C 459.76,130.599 458.593,134.599 460,139.5C 465.333,146.167 471.333,152.167 478,157.5C 478.483,158.448 478.649,159.448 478.5,160.5C 473.195,159.558 467.861,159.391 462.5,160C 460.556,162.153 460.056,164.653 461,167.5C 464.418,173.337 468.084,179.004 472,184.5C 473.128,186.345 473.628,188.345 473.5,190.5C 471.692,190.509 470.025,190.009 468.5,189C 466.007,186.92 463.341,185.086 460.5,183.5C 458.741,216.297 452.741,248.297 442.5,279.5C 436.778,299.335 430.444,319.002 423.5,338.5C 426.429,343.961 428.762,349.627 430.5,355.5C 426.604,354.548 423.271,352.548 420.5,349.5C 417.951,353.509 417.118,357.842 418,362.5C 422.606,375.478 425.44,388.812 426.5,402.5C 426.167,405.5 425.833,408.5 425.5,411.5C 421.167,406.833 416.833,402.167 412.5,397.5C 412.167,398.833 411.833,400.167 411.5,401.5C 412.977,413.63 413.977,425.797 414.5,438C 414.892,463.048 405.059,482.882 385,497.5C 386.312,488.894 387.645,480.228 389,471.5C 390.285,451.575 387.285,432.242 380,413.5C 368,384.167 356,354.833 344,325.5C 334.8,302.536 329.967,278.703 329.5,254C 329.835,248.153 330.335,242.319 331,236.5C 336.616,215.984 341.616,195.318 346,174.5C 346.667,165.833 346.667,157.167 346,148.5C 343.913,135.119 339.246,122.786 332,111.5C 316.28,93.4033 298.113,90.5699 277.5,103C 264.817,115.533 257.317,130.7 255,148.5C 254.333,156.833 254.333,165.167 255,173.5C 259.371,194.316 264.371,214.983 270,235.5C 273.37,263.641 270.037,290.974 260,317.5C 247.943,347.947 235.61,378.28 223,408.5C 213.763,430.337 210.097,453.004 212,476.5C 213.643,482.409 214.977,488.409 216,494.5C 219.2,499.164 218.367,499.664 213.5,496C 192.101,477.826 183.268,454.659 187,426.5C 188.502,416.832 189.002,407.165 188.5,397.5C 184.167,402.167 179.833,406.833 175.5,411.5C 174.065,402.401 174.565,393.401 177,384.5C 180.603,374.764 182.603,364.764 183,354.5C 182.261,352.779 181.427,351.113 180.5,349.5C 178.684,350.815 177.017,352.315 175.5,354C 173.975,355.009 172.308,355.509 170.5,355.5C 172.401,349.859 174.735,344.359 177.5,339C 171.323,321.302 165.656,303.469 160.5,285.5C 152.783,261.298 146.95,236.631 143,211.5C 142.075,201.852 141.408,192.185 141,182.5C 137.143,186.342 132.643,189.008 127.5,190.5C 127.372,188.345 127.872,186.345 129,184.5C 134.058,178.217 138.225,171.384 141.5,164C 140.939,162.324 139.939,160.991 138.5,160C 133.146,159.471 127.813,159.638 122.5,160.5C 122.351,159.448 122.517,158.448 123,157.5C 129.667,152.167 135.667,146.167 141,139.5C 142.619,133.968 141.119,129.634 136.5,126.5C 129.61,125.103 122.61,124.103 115.5,123.5C 115.709,122.914 116.043,122.414 116.5,122C 126.966,118.973 137.633,116.973 148.5,116C 154.135,115.481 155.135,113.481 151.5,110C 142.107,106.617 132.441,104.451 122.5,103.5C 124.657,102.21 126.99,101.376 129.5,101C 137.5,100.667 145.5,100.333 153.5,100C 155.952,99.7105 158.285,99.0438 160.5,98C 161.554,96.6124 161.72,95.1124 161,93.5C 157.633,89.7974 153.966,86.464 150,83.5C 149.251,82.365 149.417,81.365 150.5,80.5C 159.991,82.951 169.658,84.2844 179.5,84.5C 179.323,80.4743 177.323,77.641 173.5,76C 163.538,72.1725 153.204,70.1725 142.5,70C 141.167,69.3333 141.167,68.6667 142.5,68C 160.192,63.4302 178.192,61.0969 196.5,61C 197.833,60.3333 197.833,59.6667 196.5,59C 193.221,58.0272 190.221,56.5272 187.5,54.5C 188.5,54.1667 189.5,53.8333 190.5,53.5C 202.501,55.6854 214.501,55.852 226.5,54C 228.18,53.6532 229.18,52.6532 229.5,51C 228.888,48.9423 227.888,47.109 226.5,45.5C 226.833,45.1667 227.167,44.8333 227.5,44.5C 233.446,46.8616 239.613,48.195 246,48.5C 264.019,45.3436 282.186,43.677 300.5,43.5C 319.097,44.0763 337.597,45.743 356,48.5C 361.959,47.7414 367.792,46.408 373.5,44.5C 374.288,46.3289 373.788,47.9956 372,49.5C 371.333,50.5 371.333,51.5 372,52.5C 373.648,53.717 375.481,54.5503 377.5,55C 388.717,55.7142 399.883,55.2142 411,53.5C 412.167,53.8333 413.333,54.1667 414.5,54.5C 410.705,56.2315 407.038,58.2315 403.5,60.5C 422.085,61.2977 440.418,63.7977 458.5,68C 460.878,68.9745 460.544,69.6411 457.5,70C 447.864,69.9939 438.531,71.6606 429.5,75C 424.755,76.5664 422.088,79.7331 421.5,84.5C 431.265,83.7575 440.931,82.4241 450.5,80.5C 451.308,80.8076 451.975,81.3076 452.5,82C 448.383,85.15 444.549,88.65 441,92.5C 439.495,94.2983 439.328,96.1316 440.5,98C 443.101,98.9203 445.768,99.587 448.5,100C 457.203,100.247 465.87,100.914 474.5,102C 475.624,102.249 476.624,102.749 477.5,103.5C 467.816,104.203 458.483,106.37 449.5,110C 445.262,112.844 445.596,114.844 450.5,116C 462.456,116.691 474.122,118.858 485.5,122.5C 485.833,122.833 486.167,123.167 486.5,123.5C 480.528,124.33 474.528,124.83 468.5,125C 466.509,125.374 464.842,126.207 463.5,127.5 Z"/></g>
<g><path style="opacity:1" fill="#e3e3e3" d="M 294.5,100.5 C 310.501,99.5831 322.668,105.916 331,119.5C 337.878,132.133 341.045,145.633 340.5,160C 340.436,168.195 339.936,176.361 339,184.5C 333.387,202.951 328.72,221.618 325,240.5C 323.334,270.507 328.001,299.507 339,327.5C 350.667,355.833 362.333,384.167 374,412.5C 382.373,432.03 385.707,452.363 384,473.5C 377.406,513.41 353.739,533.076 313,532.5C 298.809,532.253 284.642,531.753 270.5,531C 241.049,525.549 223.549,508.049 218,478.5C 215.328,462.263 216.328,446.263 221,430.5C 233.214,396.736 246.547,363.403 261,330.5C 272.845,301.615 277.845,271.615 276,240.5C 273.234,224.199 269.234,208.199 264,192.5C 258.676,170.92 259.342,149.587 266,128.5C 271.474,114.857 280.974,105.524 294.5,100.5 Z"/></g>
<g><path style="opacity:1" fill="#2c2c2c" d="M 136.5,126.5 C 141.119,129.634 142.619,133.968 141,139.5C 135.667,146.167 129.667,152.167 123,157.5C 122.517,158.448 122.351,159.448 122.5,160.5C 127.813,159.638 133.146,159.471 138.5,160C 139.939,160.991 140.939,162.324 141.5,164C 138.225,171.384 134.058,178.217 129,184.5C 127.872,186.345 127.372,188.345 127.5,190.5C 132.643,189.008 137.143,186.342 141,182.5C 141.408,192.185 142.075,201.852 143,211.5C 146.95,236.631 152.783,261.298 160.5,285.5C 159.834,294.994 159.5,304.661 159.5,314.5C 160.283,352.834 161.117,391.168 162,429.5C 164.5,433.167 167,436.833 169.5,440.5C 166.912,440.543 164.579,439.377 162.5,437C 161.552,436.517 160.552,436.351 159.5,436.5C 158.824,442.703 157.824,448.87 156.5,455C 157.547,462.871 158.381,470.704 159,478.5C 156.913,475.327 155.079,471.994 153.5,468.5C 152.998,467.479 152.332,467.312 151.5,468C 146.504,479.827 140.337,490.993 133,501.5C 128.706,507.733 122.873,510.233 115.5,509C 113.396,506.958 112.229,504.458 112,501.5C 111.041,480.199 108.041,459.199 103,438.5C 98.2847,426.731 92.2847,415.731 85,405.5C 83.4886,411.212 81.822,416.879 80,422.5C 78.6698,413.252 77.6698,403.918 77,394.5C 76.1628,392.156 74.8294,390.156 73,388.5C 66.2418,398.105 62.2418,408.772 61,420.5C 59.5947,414.937 58.5947,409.27 58,403.5C 57.8326,391.486 57.3326,379.486 56.5,367.5C 54.5,370.5 52.5,373.5 50.5,376.5C 50.2227,371.174 50.8894,365.84 52.5,360.5C 50.349,356.871 48.1824,353.204 46,349.5C 40.0523,358.614 36.5523,368.614 35.5,379.5C 34.8076,378.975 34.3076,378.308 34,377.5C 31.9461,360.574 30.9461,343.574 31,326.5C 29,329.833 27,333.167 25,336.5C 24.1301,335.892 23.6301,335.059 23.5,334C 24.8868,327.513 26.2201,321.013 27.5,314.5C 18.6186,288.495 21.2853,263.829 35.5,240.5C 26.0859,239.251 17.0859,240.751 8.5,245C 7.16667,245.667 5.83333,245.667 4.5,245C 17.8297,233.993 32.4964,224.993 48.5,218C 48.9574,217.586 49.2907,217.086 49.5,216.5C 45.8333,215.833 42.1667,215.167 38.5,214.5C 45.682,211.382 53.0153,208.549 60.5,206C 64.8333,201 69.1667,196 73.5,191C 69.7887,190.561 66.1221,190.894 62.5,192C 57.921,193.975 53.2544,195.308 48.5,196C 61.6527,184.581 76.3193,175.414 92.5,168.5C 92.8333,168.167 93.1667,167.833 93.5,167.5C 89.8333,166.833 86.1667,166.167 82.5,165.5C 82.8333,165.167 83.1667,164.833 83.5,164.5C 90.5269,162.102 97.5269,159.602 104.5,157C 115.438,146.89 126.105,136.723 136.5,126.5 Z"/></g>
<g><path style="opacity:1" fill="#2c2c2c" d="M 463.5,127.5 C 474.937,137.766 486.271,148.266 497.5,159C 503.477,160.709 509.144,162.876 514.5,165.5C 511.553,166.321 508.553,166.821 505.5,167C 506.833,168.333 508.167,169.667 509.5,171C 523.848,177.166 536.848,185.332 548.5,195.5C 548,195.833 547.5,196.167 547,196.5C 541.865,194.679 536.698,193.013 531.5,191.5C 530.5,191.833 529.5,192.167 528.5,192.5C 533.05,197.761 537.716,202.928 542.5,208C 548.659,209.885 554.659,212.052 560.5,214.5C 556.833,215.167 553.167,215.833 549.5,216.5C 558.637,221.905 567.971,227.071 577.5,232C 583.707,235.606 589.373,239.939 594.5,245C 587.307,243.168 579.974,241.502 572.5,240C 570.098,239.186 567.765,239.353 565.5,240.5C 581.298,265.363 584.298,291.696 574.5,319.5C 575.772,324.789 576.272,330.122 576,335.5C 573.833,333.17 572.166,330.503 571,327.5C 570.667,327.833 570.333,328.167 570,328.5C 569.944,344.896 568.944,361.229 567,377.5C 566.692,378.308 566.192,378.975 565.5,379.5C 564.179,370.035 561.345,361.035 557,352.5C 554.667,355.833 552.333,359.167 550,362.5C 549.774,366.552 550.274,370.552 551.5,374.5C 551.167,375.167 550.833,375.833 550.5,376.5C 549.079,373.991 547.412,371.657 545.5,369.5C 544.808,370.025 544.308,370.692 544,371.5C 543.667,382.5 543.333,393.5 543,404.5C 542.324,409.925 541.324,415.259 540,420.5C 538.514,409.894 535.181,399.894 530,390.5C 523.551,398.286 517.884,406.619 513,415.5C 512.718,426.548 512.551,437.548 512.5,448.5C 509.263,443.701 506.263,438.701 503.5,433.5C 498.97,442.611 496.137,452.277 495,462.5C 493.061,476.106 491.727,489.772 491,503.5C 490.377,510.139 486.877,512.973 480.5,512C 476.56,510.114 473.06,507.614 470,504.5C 461.325,492.468 454.325,479.468 449,465.5C 445.833,470.5 442.667,475.5 439.5,480.5C 439.167,479.667 438.833,478.833 438.5,478C 441.132,469.138 443.132,460.138 444.5,451C 444.259,447.793 443.759,444.626 443,441.5C 440.731,440.405 438.564,440.739 436.5,442.5C 436.167,442 435.833,441.5 435.5,441C 437.933,436.034 439.766,430.867 441,425.5C 441.694,387.163 442.527,348.83 443.5,310.5C 443.5,299.995 443.167,289.661 442.5,279.5C 452.741,248.297 458.741,216.297 460.5,183.5C 463.341,185.086 466.007,186.92 468.5,189C 470.025,190.009 471.692,190.509 473.5,190.5C 473.628,188.345 473.128,186.345 472,184.5C 468.084,179.004 464.418,173.337 461,167.5C 460.056,164.653 460.556,162.153 462.5,160C 467.861,159.391 473.195,159.558 478.5,160.5C 478.649,159.448 478.483,158.448 478,157.5C 471.333,152.167 465.333,146.167 460,139.5C 458.593,134.599 459.76,130.599 463.5,127.5 Z"/></g>
<g><path style="opacity:1" fill="#000000" d="M 212.5,225.5 C 231.454,223.871 243.954,231.871 250,249.5C 251.634,275.532 239.467,288.032 213.5,287C 195.76,281.373 187.593,269.206 189,250.5C 192.616,238.054 200.45,229.721 212.5,225.5 Z"/></g>
<g><path style="opacity:1" fill="#010101" d="M 374.5,225.5 C 400.36,225.192 412.86,237.859 412,263.5C 405.861,281.327 393.361,289.16 374.5,287C 356.692,280.904 348.858,268.404 351,249.5C 354.992,237.676 362.825,229.676 374.5,225.5 Z"/></g>
<g><path style="opacity:1" fill="#e6e7e7" d="M 227.5,240.5 C 233.629,239.555 237.296,242.055 238.5,248C 237.296,254.106 233.629,256.439 227.5,255C 222.235,250.076 222.235,245.242 227.5,240.5 Z"/></g>
<g><path style="opacity:1" fill="#e6e7e7" d="M 388.5,240.5 C 397.33,239.162 400.83,242.829 399,251.5C 393.919,256.986 389.252,256.653 385,250.5C 384.182,246.469 385.349,243.136 388.5,240.5 Z"/></g>
<g><path style="opacity:1" fill="#010101" d="M 291.5,430.5 C 305.684,429.208 318.684,432.375 330.5,440C 339.185,448.705 342.352,459.205 340,471.5C 335.582,486.656 325.415,495.156 309.5,497C 297.236,499.005 285.569,497.005 274.5,491C 262.354,482.247 257.854,470.413 261,455.5C 263.435,447.784 267.935,441.617 274.5,437C 280.02,434.11 285.686,431.943 291.5,430.5 Z"/></g>
<g><path style="opacity:1" fill="#343333" d="M 275.5,537.5 C 292.032,536.482 308.699,536.316 325.5,537C 317.943,544.022 309.777,550.189 301,555.5C 291.799,550.462 283.299,544.462 275.5,537.5 Z"/></g>
</svg>
