<?xml version="1.0" encoding="UTF-8"?>
<!DOCTYPE svg PUBLIC "-//W3C//DTD SVG 1.1//EN" "http://www.w3.org/Graphics/SVG/1.1/DTD/svg11.dtd">
<svg xmlns="http://www.w3.org/2000/svg" version="1.1" width="600px" height="600px" style="shape-rendering:geometricPrecision; text-rendering:geometricPrecision; image-rendering:optimizeQuality; fill-rule:evenodd; clip-rule:evenodd" xmlns:xlink="http://www.w3.org/1999/xlink">
<g><path style="opacity:0.95" fill="#000000" d="M 147.5,-0.5 C 161.833,-0.5 176.167,-0.5 190.5,-0.5C 210.246,17.7435 227.246,38.2435 241.5,61C 248.091,61.7618 252.424,65.2618 254.5,71.5C 262.833,69.9746 267.833,73.4746 269.5,82C 267.853,88.0662 266.52,94.2328 265.5,100.5C 265.795,104.217 266.795,107.717 268.5,111C 291.84,111.833 315.174,111.666 338.5,110.5C 340.118,107.361 341.118,104.028 341.5,100.5C 340.483,94.4307 339.149,88.4307 337.5,82.5C 339.06,73.2658 344.393,69.5992 353.5,71.5C 354.904,65.0987 358.904,61.432 365.5,60.5C 379.226,37.7727 395.892,17.4393 415.5,-0.5C 430.167,-0.5 444.833,-0.5 459.5,-0.5C 461.563,2.61843 463.396,5.95176 465,9.5C 477.389,56.3937 482.723,104.06 481,152.5C 487.667,157.833 494.333,163.167 501,168.5C 505.918,177.569 503.751,184.069 494.5,188C 497.572,190.951 500.739,193.784 504,196.5C 511.467,203.898 511.3,211.064 503.5,218C 500.828,218.834 498.161,219.668 495.5,220.5C 492.833,219.833 490.167,219.167 487.5,218.5C 487.167,218.833 486.833,219.167 486.5,219.5C 492.765,229.029 497.098,239.362 499.5,250.5C 499.158,252.867 498.658,255.2 498,257.5C 494.858,260.476 491.358,262.809 487.5,264.5C 502.196,308.483 512.363,353.483 518,399.5C 521.848,432.434 514.848,462.767 497,490.5C 461.023,540.995 414.19,577.328 356.5,599.5C 320.833,599.5 285.167,599.5 249.5,599.5C 214.528,584.849 182.528,565.349 153.5,541C 135.751,524.598 120.251,506.431 107,486.5C 94.1764,464.039 88.0097,439.872 88.5,414C 89.4833,387.749 93.3167,361.915 100,336.5C 105.488,312.381 111.988,288.548 119.5,265C 119.355,264.228 119.022,263.561 118.5,263C 111.626,261.626 107.626,257.459 106.5,250.5C 109.396,239.208 114.063,228.708 120.5,219C 113.089,221.61 106.256,220.444 100,215.5C 96.5543,209.617 96.8876,203.95 101,198.5C 104.375,194.956 107.875,191.623 111.5,188.5C 103.046,184.361 100.88,178.028 105,169.5C 111.484,163.926 118.151,158.593 125,153.5C 123.875,105.418 129.208,58.0843 141,11.5C 142.402,7.02524 144.569,3.02524 147.5,-0.5 Z"/></g>
<g><path style="opacity:1" fill="#3d3938" d="M 162.5,1.5 C 171.135,1.10085 178.802,3.60085 185.5,9C 205.672,28.2201 222.838,49.7201 237,73.5C 239.449,73.9369 241.783,73.9369 244,73.5C 244.728,77.5357 245.561,81.5357 246.5,85.5C 250.023,86.2439 253.023,85.0772 255.5,82C 256.448,81.5172 257.448,81.3505 258.5,81.5C 256.162,89.687 255.329,98.0203 256,106.5C 258.18,119.856 266.013,125.189 279.5,122.5C 295.334,121.181 311.167,121.181 327,122.5C 339.975,124.995 347.975,119.995 351,107.5C 352.01,99.3102 351.177,91.3102 348.5,83.5C 348.833,82.8333 349.167,82.1667 349.5,81.5C 351.968,82.8029 354.301,84.3029 356.5,86C 357.784,86.6838 358.951,86.5171 360,85.5C 361.378,81.6121 362.378,77.6121 363,73.5C 365.104,73.7078 367.27,73.7078 369.5,73.5C 382.972,50.5157 399.305,29.6824 418.5,11C 422.156,7.83718 426.156,5.17051 430.5,3C 441.604,-1.1921 449.771,1.97457 455,12.5C 463.839,44.2068 468.839,76.5401 470,109.5C 470.333,125.167 470.667,140.833 471,156.5C 476.239,162.736 482.406,167.903 489.5,172C 491.019,173.351 492.352,174.851 493.5,176.5C 492.652,177.991 491.319,178.658 489.5,178.5C 484.211,177.228 478.878,176.728 473.5,177C 472.536,179.647 473.036,182.147 475,184.5C 479.907,190.078 485.407,194.911 491.5,199C 494.4,201.397 496.733,204.23 498.5,207.5C 497.473,209.024 495.973,209.691 494,209.5C 488.737,208.178 483.403,207.178 478,206.5C 474.762,206.027 472.928,207.36 472.5,210.5C 473.027,213.581 473.86,216.581 475,219.5C 480.058,228.947 484.558,238.614 488.5,248.5C 488.43,249.772 488.097,250.938 487.5,252C 483.5,252.333 479.5,252.667 475.5,253C 474.903,254.062 474.57,255.228 474.5,256.5C 485.048,289.689 493.881,323.356 501,357.5C 507.249,384.899 508.915,412.565 506,440.5C 501.921,458.652 494.588,475.319 484,490.5C 447.534,538.653 400.7,572.486 343.5,592C 309.038,601.204 275.371,598.871 242.5,585C 200.434,566.607 164.267,540.107 134,505.5C 99.9228,464.72 89.9228,418.386 104,366.5C 111.623,329.342 121.123,292.675 132.5,256.5C 132.392,255.558 132.059,254.725 131.5,254C 127.251,252.874 122.918,252.208 118.5,252C 117.941,251.275 117.608,250.442 117.5,249.5C 121.45,239.598 125.95,229.931 131,220.5C 133.242,216.317 133.742,211.984 132.5,207.5C 131.061,206.937 129.561,206.603 128,206.5C 122.64,207.372 117.307,208.372 112,209.5C 110.027,209.691 108.527,209.024 107.5,207.5C 114.823,200.345 122.323,193.345 130,186.5C 131.696,184.44 132.863,182.107 133.5,179.5C 133.392,178.558 133.059,177.725 132.5,177C 131,176.833 129.5,176.667 128,176.5C 123.243,177.696 118.41,178.363 113.5,178.5C 113.343,177.127 113.51,175.793 114,174.5C 119.253,171.124 124.42,167.624 129.5,164C 132.433,161.736 134.6,158.902 136,155.5C 134.967,119.604 137.301,83.9372 143,48.5C 145.533,36.0352 148.533,23.7019 152,11.5C 154.738,7.25954 158.238,3.9262 162.5,1.5 Z"/></g>
<g><path style="opacity:1" fill="#2f2725" d="M 171.5,20.5 C 175.604,20.8839 179.271,22.3839 182.5,25C 211.159,54.3065 225.326,89.4732 225,130.5C 216.531,157.97 198.531,175.636 171,183.5C 165.774,183.606 162.107,181.273 160,176.5C 152.131,127.927 153.465,79.5937 164,31.5C 165.582,27.106 168.082,23.4393 171.5,20.5 Z"/></g>
<g><path style="opacity:1" fill="#2f2725" d="M 428.5,21.5 C 432.007,20.9935 435.174,21.6602 438,23.5C 440.773,27.8155 442.773,32.4821 444,37.5C 452.622,83.3415 453.622,129.342 447,175.5C 442.73,183.603 436.23,185.77 427.5,182C 407.418,173.586 392.918,159.419 384,139.5C 379.276,123.446 379.609,107.446 385,91.5C 392.73,63.6552 407.23,40.3218 428.5,21.5 Z"/></g>
<g><path style="opacity:1" fill="#2f2725" d="M 232.5,218.5 C 252.291,216.794 261.791,225.794 261,245.5C 255.088,261.025 244.255,266.191 228.5,261C 215.957,252.346 213.123,241.179 220,227.5C 223.299,223.118 227.466,220.118 232.5,218.5 Z"/></g>
<g><path style="opacity:1" fill="#2f2725" d="M 360.5,218.5 C 380.667,216.467 390.5,225.467 390,245.5C 385.613,258.78 376.447,264.613 362.5,263C 345.983,255.786 341.483,243.953 349,227.5C 352.161,223.491 355.994,220.491 360.5,218.5 Z"/></g>
<g><path style="opacity:1" fill="#241916" d="M 234.5,224.5 C 251.569,225.059 257.402,233.392 252,249.5C 245.69,256.811 238.19,258.311 229.5,254C 220.618,245.626 220.285,236.96 228.5,228C 230.432,226.541 232.432,225.375 234.5,224.5 Z"/></g>
<g><path style="opacity:1" fill="#241916" d="M 363.5,224.5 C 380.592,225.079 386.425,233.412 381,249.5C 374.69,256.811 367.19,258.311 358.5,254C 347.977,241.991 349.644,232.158 363.5,224.5 Z"/></g>
<g><path style="opacity:1" fill="#ececec" d="M 241.5,231.5 C 247.665,230.829 250.165,233.496 249,239.5C 245.751,243.367 242.418,243.367 239,239.5C 238.018,236.225 238.851,233.559 241.5,231.5 Z"/></g>
<g><path style="opacity:1" fill="#ededed" d="M 370.5,231.5 C 376.665,230.829 379.165,233.496 378,239.5C 374.751,243.367 371.418,243.367 368,239.5C 367.018,236.225 367.851,233.559 370.5,231.5 Z"/></g>
<g><path style="opacity:1" fill="#2f2725" d="M 279.5,434.5 C 277.962,444.191 276.295,453.857 274.5,463.5C 273.85,463.804 273.183,464.137 272.5,464.5C 234.2,439.607 212.366,404.274 207,358.5C 206.667,333.5 206.333,308.5 206,283.5C 205.188,277.796 204.521,272.129 204,266.5C 209.64,273.473 215.973,279.806 223,285.5C 231.588,296.012 236.921,308.012 239,321.5C 243.451,347.539 248.118,373.539 253,399.5C 254.589,411.844 259.756,422.344 268.5,431C 271.734,433.467 275.401,434.633 279.5,434.5 Z"/></g>
<g><path style="opacity:1" fill="#2d2422" d="M 332.5,464.5 C 330.325,455.287 328.658,445.954 327.5,436.5C 337.703,432.461 344.869,425.128 349,414.5C 351.715,405.26 354.048,395.926 356,386.5C 359.999,363.169 363.999,339.836 368,316.5C 370.518,305.465 375.185,295.465 382,286.5C 388.369,280.961 394.535,275.294 400.5,269.5C 400.833,270.667 401.167,271.833 401.5,273C 400.88,277.82 400.38,282.653 400,287.5C 399.667,311.5 399.333,335.5 399,359.5C 394.156,396.071 378.322,426.905 351.5,452C 345.452,456.685 339.119,460.851 332.5,464.5 Z"/></g>
<g><path style="opacity:1" fill="#241916" d="M 288.5,373.5 C 297.506,373.334 306.506,373.5 315.5,374C 332.339,376.557 339.172,386.057 336,402.5C 326.596,419.95 312.096,426.784 292.5,423C 282.786,419.285 275.619,412.785 271,403.5C 267.945,394.858 269.445,387.192 275.5,380.5C 279.66,377.632 283.994,375.299 288.5,373.5 Z"/></g>
<g><path style="opacity:1" fill="#f3a394" d="M 327.5,436.5 C 328.658,445.954 330.325,455.287 332.5,464.5C 332.5,466.5 332.5,468.5 332.5,470.5C 333.331,484.541 332.665,498.541 330.5,512.5C 328.89,523.553 324.223,533.053 316.5,541C 300.512,549.224 288.679,545.058 281,528.5C 272.45,507.521 270.283,485.854 274.5,463.5C 276.295,453.857 277.962,444.191 279.5,434.5C 287.298,433.34 295.131,432.34 303,431.5C 311.442,432.491 319.608,434.158 327.5,436.5 Z"/></g>
<g><path style="opacity:1" fill="#87645e" d="M 332.5,470.5 C 333.413,474.484 334.079,478.651 334.5,483C 333.814,489.483 333.314,495.983 333,502.5C 332.851,506.133 332.018,509.466 330.5,512.5C 332.665,498.541 333.331,484.541 332.5,470.5 Z"/></g>
</svg>
