<?xml version="1.0" encoding="UTF-8"?>
<!DOCTYPE svg PUBLIC "-//W3C//DTD SVG 1.1//EN" "http://www.w3.org/Graphics/SVG/1.1/DTD/svg11.dtd">
<svg xmlns="http://www.w3.org/2000/svg" version="1.1" width="600px" height="600px" style="shape-rendering:geometricPrecision; text-rendering:geometricPrecision; image-rendering:optimizeQuality; fill-rule:evenodd; clip-rule:evenodd" xmlns:xlink="http://www.w3.org/1999/xlink">
<g><path style="opacity:0.95" fill="#000000" d="M 147.5,-0.5 C 161.833,-0.5 176.167,-0.5 190.5,-0.5C 210.246,17.7435 227.246,38.2435 241.5,61C 248.091,61.7618 252.424,65.2618 254.5,71.5C 262.833,69.9746 267.833,73.4746 269.5,82C 267.853,88.0662 266.52,94.2328 265.5,100.5C 265.795,104.217 266.795,107.717 268.5,111C 291.84,111.833 315.174,111.666 338.5,110.5C 340.118,107.361 341.118,104.028 341.5,100.5C 340.483,94.4307 339.149,88.4307 337.5,82.5C 339.06,73.2658 344.393,69.5992 353.5,71.5C 354.904,65.0987 358.904,61.432 365.5,60.5C 379.226,37.7727 395.892,17.4393 415.5,-0.5C 430.167,-0.5 444.833,-0.5 459.5,-0.5C 461.563,2.61843 463.396,5.95176 465,9.5C 477.389,56.3937 482.723,104.06 481,152.5C 487.667,157.833 494.333,163.167 501,168.5C 505.918,177.569 503.751,184.069 494.5,188C 497.572,190.951 500.739,193.784 504,196.5C 511.467,203.898 511.3,211.064 503.5,218C 500.828,218.834 498.161,219.668 495.5,220.5C 492.833,219.833 490.167,219.167 487.5,218.5C 487.167,218.833 486.833,219.167 486.5,219.5C 492.765,229.029 497.098,239.362 499.5,250.5C 498.808,257.859 494.808,261.859 487.5,262.5C 500.478,303.747 510.312,345.747 517,388.5C 523.78,427.949 515.78,463.949 493,496.5C 457.152,543.818 411.652,578.151 356.5,599.5C 321.833,599.5 287.167,599.5 252.5,599.5C 193.848,577.356 146.348,540.689 110,489.5C 94.938,466.64 87.7713,441.473 88.5,414C 89.4833,387.749 93.3167,361.915 100,336.5C 105.488,312.381 111.988,288.548 119.5,265C 119.355,264.228 119.022,263.561 118.5,263C 111.626,261.626 107.626,257.459 106.5,250.5C 109.396,239.208 114.063,228.708 120.5,219C 113.089,221.61 106.256,220.444 100,215.5C 96.5543,209.617 96.8876,203.95 101,198.5C 104.375,194.956 107.875,191.623 111.5,188.5C 103.046,184.361 100.88,178.028 105,169.5C 111.484,163.926 118.151,158.593 125,153.5C 123.875,105.418 129.208,58.0843 141,11.5C 142.402,7.02524 144.569,3.02524 147.5,-0.5 Z"/></g>
<g><path style="opacity:1" fill="#3d3938" d="M 162.5,1.5 C 171.135,1.10085 178.802,3.60085 185.5,9C 205.672,28.2201 222.838,49.7201 237,73.5C 239.449,73.9369 241.783,73.9369 244,73.5C 244.728,77.5357 245.561,81.5357 246.5,85.5C 250.023,86.2439 253.023,85.0772 255.5,82C 256.448,81.5172 257.448,81.3505 258.5,81.5C 256.162,89.687 255.329,98.0203 256,106.5C 258.18,119.856 266.013,125.189 279.5,122.5C 295.334,121.181 311.167,121.181 327,122.5C 339.975,124.995 347.975,119.995 351,107.5C 352.01,99.3102 351.177,91.3102 348.5,83.5C 348.833,82.8333 349.167,82.1667 349.5,81.5C 351.968,82.8029 354.301,84.3029 356.5,86C 357.784,86.6838 358.951,86.5171 360,85.5C 361.378,81.6121 362.378,77.6121 363,73.5C 365.104,73.7078 367.27,73.7078 369.5,73.5C 384.287,48.7795 402.287,26.6128 423.5,7C 439.786,-3.57139 450.952,0.261947 457,18.5C 467.422,63.8796 472.088,109.88 471,156.5C 476.239,162.736 482.406,167.903 489.5,172C 491.019,173.351 492.352,174.851 493.5,176.5C 492.652,177.991 491.319,178.658 489.5,178.5C 484.211,177.228 478.878,176.728 473.5,177C 472.536,179.647 473.036,182.147 475,184.5C 479.907,190.078 485.407,194.911 491.5,199C 494.4,201.397 496.733,204.23 498.5,207.5C 497.473,209.024 495.973,209.691 494,209.5C 488.737,208.178 483.403,207.178 478,206.5C 474.762,206.027 472.928,207.36 472.5,210.5C 476.556,222.617 481.723,234.283 488,245.5C 488.497,247.81 488.663,250.143 488.5,252.5C 484.154,252.334 479.821,252.501 475.5,253C 474.919,253.893 474.585,254.893 474.5,256C 488.382,299.363 498.882,343.53 506,388.5C 512.255,422.968 506.255,454.968 488,484.5C 455.614,530.556 413.447,564.389 361.5,586C 318.475,602.654 276.142,600.988 234.5,581C 186.851,558.592 148.017,525.759 118,482.5C 107.198,466.094 101.198,448.094 100,428.5C 99.1774,414.136 99.5107,399.803 101,385.5C 108.514,341.776 119.014,298.776 132.5,256.5C 132.392,255.558 132.059,254.725 131.5,254C 127.251,252.874 122.918,252.208 118.5,252C 117.941,251.275 117.608,250.442 117.5,249.5C 121.45,239.598 125.95,229.931 131,220.5C 133.242,216.317 133.742,211.984 132.5,207.5C 131.061,206.937 129.561,206.603 128,206.5C 122.64,207.372 117.307,208.372 112,209.5C 110.027,209.691 108.527,209.024 107.5,207.5C 114.823,200.345 122.323,193.345 130,186.5C 131.696,184.44 132.863,182.107 133.5,179.5C 133.392,178.558 133.059,177.725 132.5,177C 131,176.833 129.5,176.667 128,176.5C 123.243,177.696 118.41,178.363 113.5,178.5C 113.343,177.127 113.51,175.793 114,174.5C 119.253,171.124 124.42,167.624 129.5,164C 132.433,161.736 134.6,158.902 136,155.5C 134.967,119.604 137.301,83.9372 143,48.5C 145.533,36.0352 148.533,23.7019 152,11.5C 154.738,7.25954 158.238,3.9262 162.5,1.5 Z"/></g>
<g><path style="opacity:1" fill="#2f2725" d="M 171.5,20.5 C 175.604,20.8839 179.271,22.3839 182.5,25C 211.159,54.3065 225.326,89.4732 225,130.5C 216.531,157.97 198.531,175.636 171,183.5C 165.774,183.606 162.107,181.273 160,176.5C 152.131,127.927 153.465,79.5937 164,31.5C 165.582,27.106 168.082,23.4393 171.5,20.5 Z"/></g>
<g><path style="opacity:1" fill="#2f2725" d="M 428.5,21.5 C 432.007,20.9935 435.174,21.6602 438,23.5C 440.773,27.8155 442.773,32.4821 444,37.5C 452.622,83.3415 453.622,129.342 447,175.5C 442.73,183.603 436.23,185.77 427.5,182C 407.418,173.586 392.918,159.419 384,139.5C 379.276,123.446 379.609,107.446 385,91.5C 392.73,63.6552 407.23,40.3218 428.5,21.5 Z"/></g>
<g><path style="opacity:1" fill="#0e0b08" d="M 400.5,280.5 C 394.372,283.113 389.205,287.113 385,292.5C 380.887,298.391 377.554,304.724 375,311.5C 369.792,339.408 364.792,367.408 360,395.5C 358.031,408.078 353.697,419.744 347,430.5C 340.883,437.807 333.05,441.14 323.5,440.5C 315.914,440.217 308.414,439.217 301,437.5C 294.609,439.282 288.109,440.282 281.5,440.5C 268.319,440.658 259.153,434.658 254,422.5C 251.601,416.637 249.601,410.637 248,404.5C 243.327,376.796 238.327,349.129 233,321.5C 230.201,306.732 223.368,294.232 212.5,284C 210.423,282.295 208.09,281.128 205.5,280.5C 199.395,276.941 193.395,273.107 187.5,269C 178.608,260.473 176.108,250.306 180,238.5C 194.964,211.685 217.63,196.018 248,191.5C 265.51,192.329 276.51,201.329 281,218.5C 285.025,233.21 290.692,247.21 298,260.5C 299.389,262.227 301.056,263.561 303,264.5C 305.987,262.846 308.321,260.513 310,257.5C 316.648,243.226 322.314,228.559 327,213.5C 334.427,196.033 347.594,188.866 366.5,192C 391.766,199.267 411.266,214.1 425,236.5C 428.503,245.081 428.17,253.414 424,261.5C 416.92,268.932 409.087,275.265 400.5,280.5 Z"/></g>
<g><path style="opacity:1" fill="#bb843d" d="M 326.5,435.5 C 322.936,434.577 319.269,434.244 315.5,434.5C 307.167,430.5 298.833,430.5 290.5,434.5C 286.731,434.244 283.064,434.577 279.5,435.5C 273.44,434.554 268.274,431.887 264,427.5C 259.946,422.058 256.946,416.058 255,409.5C 249.078,379.222 243.411,348.889 238,318.5C 235.019,302.7 227.519,289.533 215.5,279C 204.872,274.106 195.372,267.606 187,259.5C 182.402,252.196 182.402,244.862 187,237.5C 199.136,219.028 215.636,206.195 236.5,199C 254.38,193.693 266.88,199.527 274,216.5C 278.824,232.307 284.824,247.64 292,262.5C 294.86,266.371 298.526,269.038 303,270.5C 304.5,270 306,269.5 307.5,269C 313.588,263.355 318.088,256.522 321,248.5C 325.41,234.934 330.41,221.601 336,208.5C 343.436,198.685 353.269,195.185 365.5,198C 389.534,204.707 407.701,218.874 420,240.5C 422.218,247.036 421.885,253.37 419,259.5C 410.628,267.606 401.128,274.106 390.5,279C 376.361,292.111 368.194,308.277 366,327.5C 362.066,356.108 356.732,384.441 350,412.5C 346.881,425.12 339.048,432.787 326.5,435.5 Z"/></g>
<g><path style="opacity:1" fill="#0c0805" d="M 232.5,218.5 C 249.089,216.759 258.755,224.093 261.5,240.5C 258.782,257.052 249.116,264.219 232.5,262C 220.534,257.244 215.367,248.411 217,235.5C 219.247,227.09 224.414,221.423 232.5,218.5 Z"/></g>
<g><path style="opacity:1" fill="#0b0805" d="M 361.5,218.5 C 378.089,216.759 387.755,224.093 390.5,240.5C 386.465,259.685 375.132,266.185 356.5,260C 345.756,252.096 342.923,241.929 348,229.5C 351.336,224.269 355.836,220.602 361.5,218.5 Z"/></g>
<g><path style="opacity:1" fill="#241917" d="M 235.5,223.5 C 252.113,225.082 257.946,233.749 253,249.5C 244.044,259.778 234.71,260.111 225,250.5C 219.028,237.782 222.528,228.782 235.5,223.5 Z"/></g>
<g><path style="opacity:1" fill="#241917" d="M 364.5,223.5 C 381.113,225.082 386.946,233.749 382,249.5C 375.153,258.145 366.986,259.645 357.5,254C 349.391,246.527 348.558,238.36 355,229.5C 357.843,226.837 361.009,224.837 364.5,223.5 Z"/></g>
<g><path style="opacity:1" fill="#ececec" d="M 241.5,231.5 C 247.665,230.829 250.165,233.496 249,239.5C 245.751,243.367 242.418,243.367 239,239.5C 238.018,236.225 238.851,233.559 241.5,231.5 Z"/></g>
<g><path style="opacity:1" fill="#ededed" d="M 370.5,231.5 C 376.665,230.829 379.165,233.496 378,239.5C 374.751,243.367 371.418,243.367 368,239.5C 367.018,236.225 367.851,233.559 370.5,231.5 Z"/></g>
<g><path style="opacity:1" fill="#2c2321" d="M 400.5,280.5 C 399.732,306.819 399.232,333.152 399,359.5C 394.37,396.263 378.537,427.096 351.5,452C 345.452,456.685 339.119,460.851 332.5,464.5C 330.944,457.223 329.444,449.889 328,442.5C 326.378,441.901 324.878,441.234 323.5,440.5C 333.05,441.14 340.883,437.807 347,430.5C 353.697,419.744 358.031,408.078 360,395.5C 364.792,367.408 369.792,339.408 375,311.5C 377.554,304.724 380.887,298.391 385,292.5C 389.205,287.113 394.372,283.113 400.5,280.5 Z"/></g>
<g><path style="opacity:1" fill="#2e2624" d="M 205.5,280.5 C 208.09,281.128 210.423,282.295 212.5,284C 223.368,294.232 230.201,306.732 233,321.5C 238.327,349.129 243.327,376.796 248,404.5C 249.601,410.637 251.601,416.637 254,422.5C 259.153,434.658 268.319,440.658 281.5,440.5C 280.791,441.404 279.791,441.737 278.5,441.5C 276.909,449.12 275.576,456.786 274.5,464.5C 262.166,458.36 251.333,450.026 242,439.5C 221.888,416.264 210.221,389.264 207,358.5C 206.806,332.47 206.306,306.47 205.5,280.5 Z"/></g>
<g><path style="opacity:1" fill="#060302" d="M 292.5,373.5 C 301.552,373.193 310.552,373.693 319.5,375C 336.933,381.63 341.1,393.13 332,409.5C 311.61,430.04 291.944,429.374 273,407.5C 265.768,388.297 272.268,376.963 292.5,373.5 Z"/></g>
<g><path style="opacity:1" fill="#231815" d="M 294.5,378.5 C 304.903,377.531 314.903,379.031 324.5,383C 332.327,389.447 333.494,396.947 328,405.5C 314.747,421.498 299.913,423.331 283.5,411C 274.176,402.747 273.176,393.747 280.5,384C 285.017,381.445 289.684,379.612 294.5,378.5 Z"/></g>
<g><path style="opacity:1" fill="#926359" d="M 315.5,434.5 C 311.291,434.159 307.125,433.492 303,432.5C 298.875,433.492 294.709,434.159 290.5,434.5C 298.833,430.5 307.167,430.5 315.5,434.5 Z"/></g>
<g><path style="opacity:1" fill="#93635a" d="M 290.5,434.5 C 287.305,435.236 283.971,435.903 280.5,436.5C 279.893,436.376 279.56,436.043 279.5,435.5C 283.064,434.577 286.731,434.244 290.5,434.5 Z"/></g>
<g><path style="opacity:1" fill="#926359" d="M 315.5,434.5 C 319.269,434.244 322.936,434.577 326.5,435.5C 326.44,436.043 326.107,436.376 325.5,436.5C 322.029,435.903 318.695,435.236 315.5,434.5 Z"/></g>
<g><path style="opacity:1" fill="#f2a394" d="M 323.5,440.5 C 324.878,441.234 326.378,441.901 328,442.5C 329.444,449.889 330.944,457.223 332.5,464.5C 334.126,479.236 333.626,493.902 331,508.5C 325.98,521.434 316.48,527.434 302.5,526.5C 290.964,527.153 282.464,522.486 277,512.5C 272.129,496.709 271.296,480.709 274.5,464.5C 275.576,456.786 276.909,449.12 278.5,441.5C 279.791,441.737 280.791,441.404 281.5,440.5C 288.109,440.282 294.609,439.282 301,437.5C 308.414,439.217 315.914,440.217 323.5,440.5 Z"/></g>
</svg>
