<?xml version="1.0" encoding="UTF-8"?>
<!DOCTYPE svg PUBLIC "-//W3C//DTD SVG 1.1//EN" "http://www.w3.org/Graphics/SVG/1.1/DTD/svg11.dtd">
<svg xmlns="http://www.w3.org/2000/svg" version="1.1" width="600px" height="600px" style="shape-rendering:geometricPrecision; text-rendering:geometricPrecision; image-rendering:optimizeQuality; fill-rule:evenodd; clip-rule:evenodd" xmlns:xlink="http://www.w3.org/1999/xlink">
<g><path style="opacity:0.955" fill="#020100" d="M 154.5,-0.5 C 163.5,-0.5 172.5,-0.5 181.5,-0.5C 196.138,10.6381 208.971,23.6381 220,38.5C 227.057,47.8915 233.724,57.5582 240,67.5C 242.21,66.2512 244.376,66.4178 246.5,68C 248.447,71.3289 250.114,74.8289 251.5,78.5C 261.109,73.5889 264.942,76.5889 263,87.5C 259.827,95.5271 259.827,103.527 263,111.5C 263.833,113.667 265.333,115.167 267.5,116C 271.445,116.925 275.445,117.425 279.5,117.5C 295.5,116.167 311.5,116.167 327.5,117.5C 332.357,117.628 337.023,116.795 341.5,115C 344.6,110.678 346.267,105.845 346.5,100.5C 345.483,94.4307 344.149,88.4307 342.5,82.5C 344.965,75.1229 349.298,73.7895 355.5,78.5C 356.817,75.5678 357.984,72.5678 359,69.5C 361.506,66.9444 364.339,65.9444 367.5,66.5C 380.355,45.1341 395.688,25.6341 413.5,8C 417.067,4.92047 420.733,2.08713 424.5,-0.5C 433.5,-0.5 442.5,-0.5 451.5,-0.5C 455.973,3.16428 459.14,7.83095 461,13.5C 472.721,59.7607 477.721,106.761 476,154.5C 481.202,159.847 487.035,164.347 493.5,168C 499.605,172.865 499.938,177.865 494.5,183C 490.118,183.457 485.784,183.457 481.5,183C 489.651,189.152 497.151,195.985 504,203.5C 505.227,207.591 504.394,211.091 501.5,214C 494.382,214.892 487.382,214.392 480.5,212.5C 480.167,212.833 479.833,213.167 479.5,213.5C 482.806,221.446 486.639,229.112 491,236.5C 494.151,242.488 495.151,248.821 494,255.5C 493.5,256 493,256.5 492.5,257C 488.619,258.19 484.619,258.857 480.5,259C 493.385,297.706 503.218,337.206 510,377.5C 512.865,399.46 513.199,421.46 511,443.5C 506.921,461.652 499.588,478.319 489,493.5C 450.463,545.504 400.296,580.837 338.5,599.5C 314.833,599.5 291.167,599.5 267.5,599.5C 213.385,581.847 167.551,551.514 130,508.5C 113.67,489.51 102.337,467.843 96,443.5C 92.7163,420.795 93.0496,398.128 97,375.5C 104.329,336.184 114.162,297.517 126.5,259.5C 122.808,258.748 119.142,257.914 115.5,257C 113.338,255.355 112.005,253.188 111.5,250.5C 115.953,237.429 121.619,224.929 128.5,213C 122.615,213.175 116.782,214.008 111,215.5C 102.426,213.683 100.426,209.016 105,201.5C 111.833,195.333 118.667,189.167 125.5,183C 120.883,183.476 116.217,183.476 111.5,183C 106.31,177.475 106.977,172.475 113.5,168C 119.568,164.601 125.068,160.435 130,155.5C 128.82,108.148 133.82,61.4812 145,15.5C 146.737,9.2756 149.903,3.94227 154.5,-0.5 Z"/></g>
<g><path style="opacity:1" fill="#ba843d" d="M 163.5,6.5 C 170.771,5.97901 177.104,8.14567 182.5,13C 202.327,32.4812 219.494,53.9812 234,77.5C 235.789,79.229 237.956,79.8957 240.5,79.5C 239.748,87.6943 243.414,92.0276 251.5,92.5C 248.952,104.352 251.619,114.852 259.5,124C 261.957,125.562 264.624,126.562 267.5,127C 287.004,126.542 306.504,126.708 326,127.5C 346.356,129.977 356.522,120.977 356.5,100.5C 356.232,97.4825 355.898,94.4825 355.5,91.5C 363.247,91.4153 366.913,87.4153 366.5,79.5C 370.147,79.3784 372.981,77.7118 375,74.5C 388.164,52.3249 403.997,32.1582 422.5,14C 425.997,11.417 429.664,9.08363 433.5,7C 441.744,4.91795 447.577,7.75129 451,15.5C 459.019,44.9679 463.686,74.9679 465,105.5C 465.333,122.167 465.667,138.833 466,155.5C 468.265,162.109 472.432,167.275 478.5,171C 466.548,172.921 464.382,178.754 472,188.5C 477.5,193.333 483,198.167 488.5,203C 468.946,198.553 463.446,205.386 472,223.5C 476.929,231.357 480.763,239.69 483.5,248.5C 478.151,247.461 473.651,248.795 470,252.5C 469.833,253.667 469.667,254.833 469.5,256C 480.956,293.326 490.456,331.159 498,369.5C 502.507,392.351 503.507,415.351 501,438.5C 497.754,454.321 491.754,468.987 483,482.5C 447.319,532.77 400.152,567.603 341.5,587C 311.075,595.353 281.075,594.02 251.5,583C 195.913,560.743 151.746,524.577 119,474.5C 107.44,455.278 102.607,434.444 104.5,412C 104.869,394.68 106.702,377.513 110,360.5C 117.681,325.276 126.848,290.443 137.5,256C 137.205,253.077 135.871,250.743 133.5,249C 130.182,248.121 126.848,247.287 123.5,246.5C 128.88,236.408 133.713,226.074 138,215.5C 140.868,206.371 137.534,201.704 128,201.5C 124.803,202.244 121.636,202.744 118.5,203C 123.333,198.833 128.167,194.667 133,190.5C 137.072,186.284 138.739,181.284 138,175.5C 135.424,172.858 132.257,171.358 128.5,171C 134.531,167.306 138.697,162.139 141,155.5C 139.195,109.887 143.528,64.8873 154,20.5C 155.448,14.5845 158.615,9.9178 163.5,6.5 Z"/></g>
<g><path style="opacity:1" fill="#030201" d="M 169.5,15.5 C 174.618,14.889 179.285,16.0557 183.5,19C 215.673,49.5235 231.173,87.0235 230,131.5C 227.734,142.364 223.067,152.031 216,160.5C 209.099,168.072 201.599,174.905 193.5,181C 183.095,187.533 172.095,189.2 160.5,186C 157.894,184.062 156.061,181.562 155,178.5C 147.105,131.696 147.772,85.0295 157,38.5C 158.082,28.9929 162.248,21.3263 169.5,15.5 Z"/></g>
<g><path style="opacity:1" fill="#010100" d="M 426.5,16.5 C 430.514,16.3345 434.514,16.5012 438.5,17C 441.762,19.592 444.262,22.7587 446,26.5C 457.389,76.0997 459.389,126.1 452,176.5C 449.048,183.806 443.715,187.473 436,187.5C 423.52,186.343 412.687,181.51 403.5,173C 392.658,164.502 384.492,154.002 379,141.5C 374.726,127.304 374.393,112.971 378,98.5C 384.757,65.2776 400.924,37.9443 426.5,16.5 Z"/></g>
<g><path style="opacity:1" fill="#2e2624" d="M 172.5,25.5 C 177.918,27.3942 182.418,30.7276 186,35.5C 206.742,59.8273 218.242,87.9939 220.5,120C 220.82,126.022 219.987,131.856 218,137.5C 208.477,158.366 192.81,172.033 171,178.5C 167.583,178.425 165.25,176.759 164,173.5C 156.998,127.226 158.332,81.2263 168,35.5C 169.24,32.0221 170.74,28.6887 172.5,25.5 Z"/></g>
<g><path style="opacity:1" fill="#2e2624" d="M 431.5,25.5 C 433.017,25.5106 434.184,26.1772 435,27.5C 438.5,35.4848 440.833,43.8181 442,52.5C 447.06,89.4262 447.726,126.426 444,163.5C 443.498,168.415 441.998,172.915 439.5,177C 438.391,177.638 437.225,178.138 436,178.5C 413.758,171.589 397.758,157.589 388,136.5C 384.755,124.195 384.755,111.861 388,99.5C 394.627,69.8698 409.127,45.2032 431.5,25.5 Z"/></g>
<g><path style="opacity:1" fill="#7c582a" d="M 373.5,200.5 C 367.448,199.516 361.448,198.683 355.5,198C 351.79,198.895 348.123,199.895 344.5,201C 342.598,204.405 339.931,206.905 336.5,208.5C 339.191,205.805 341.525,202.805 343.5,199.5C 348.406,198.024 353.406,197.024 358.5,196.5C 364.02,196.792 369.02,198.126 373.5,200.5 Z"/></g>
<g><path style="opacity:1" fill="#080503" d="M 292.5,263.5 C 296.281,269.259 301.615,271.092 308.5,269C 309.056,268.617 309.389,268.117 309.5,267.5C 314.219,263.088 317.719,257.755 320,251.5C 325.018,236.942 330.518,222.609 336.5,208.5C 339.931,206.905 342.598,204.405 344.5,201C 348.123,199.895 351.79,198.895 355.5,198C 361.448,198.683 367.448,199.516 373.5,200.5C 388.344,207.011 401.177,216.345 412,228.5C 416.027,233.217 419.027,238.551 421,244.5C 421.667,247.833 421.667,251.167 421,254.5C 419.562,255.9 418.729,257.567 418.5,259.5C 414.402,263.122 410.069,266.455 405.5,269.5C 402.821,269.525 401.488,270.858 401.5,273.5C 401.492,276.545 401.159,279.545 400.5,282.5C 399.799,309.353 399.132,336.353 398.5,363.5C 393.635,393.223 381.301,419.223 361.5,441.5C 357.5,443.5 354.5,446.5 352.5,450.5C 346.183,455.659 339.516,460.326 332.5,464.5C 332.5,463.833 332.167,463.5 331.5,463.5C 330.076,453.769 328.41,444.103 326.5,434.5C 318.26,434.099 310.093,433.099 302,431.5C 294.69,433.269 287.19,434.269 279.5,434.5C 278.656,445.188 276.656,455.521 273.5,465.5C 249.166,450.17 230.832,429.504 218.5,403.5C 214.399,392.201 210.733,380.868 207.5,369.5C 207.877,364.547 207.211,359.881 205.5,355.5C 205.667,328.831 205.5,302.165 205,275.5C 204.691,274.234 204.191,273.067 203.5,272C 200.014,270.004 196.681,267.837 193.5,265.5C 185.42,259.759 182.587,252.093 185,242.5C 187.593,237.639 190.427,232.972 193.5,228.5C 197.597,223.947 201.93,219.614 206.5,215.5C 209.5,213.5 212.5,211.5 215.5,209.5C 218.523,207.467 221.523,205.467 224.5,203.5C 231.675,200.388 239.175,198.388 247,197.5C 260.795,197.621 269.795,204.288 274,217.5C 278.961,233.374 285.128,248.707 292.5,263.5 Z"/></g>
<g><path style="opacity:1" fill="#3d3938" d="M 395.5,276.5 C 390.258,278.717 385.758,282.05 382,286.5C 374.592,296.152 369.758,306.986 367.5,319C 362.482,348.94 356.982,378.774 351,408.5C 348.574,417.859 343.741,425.692 336.5,432C 334.655,433.128 332.655,433.628 330.5,433.5C 329.657,431.827 328.324,430.66 326.5,430C 318.584,429.107 310.75,427.941 303,426.5C 294.916,427.949 286.75,429.115 278.5,430C 276.65,430.69 275.316,431.856 274.5,433.5C 269.768,432.29 265.934,429.623 263,425.5C 259.252,420.002 256.585,414.002 255,407.5C 248.795,377.272 243.129,346.938 238,316.5C 234.922,302.172 228.088,290.005 217.5,280C 215.423,278.295 213.09,277.128 210.5,276.5C 209.577,274.233 208.744,271.9 208,269.5C 201.074,265.571 195.074,260.571 190,254.5C 188.101,250.864 188.101,247.197 190,243.5C 201.455,223.386 218.289,209.886 240.5,203C 250.95,200.261 259.45,203.094 266,211.5C 272.608,229.325 279.608,246.992 287,264.5C 293.201,274.734 301.701,277.234 312.5,272C 319.594,263.985 324.761,254.818 328,244.5C 331.272,234.015 334.939,223.682 339,213.5C 348.93,201.507 360.763,199.34 374.5,207C 392.558,215.395 406.391,228.228 416,245.5C 416.912,249.452 416.245,253.119 414,256.5C 408.693,261.318 403.027,265.652 397,269.5C 396.71,271.92 396.21,274.254 395.5,276.5 Z"/></g>
<g><path style="opacity:1" fill="#7f5a2a" d="M 224.5,203.5 C 221.523,205.467 218.523,207.467 215.5,209.5C 216.877,205.297 219.877,203.297 224.5,203.5 Z"/></g>
<g><path style="opacity:1" fill="#2f2725" d="M 235.5,217.5 C 253.404,218.324 261.904,227.657 261,245.5C 255.088,261.025 244.255,266.191 228.5,261C 215.957,252.346 213.123,241.179 220,227.5C 224.194,222.496 229.361,219.163 235.5,217.5 Z"/></g>
<g><path style="opacity:1" fill="#2f2725" d="M 364.5,217.5 C 382.64,218.137 391.14,227.47 390,245.5C 385.613,258.78 376.447,264.613 362.5,263C 345.983,255.786 341.483,243.953 349,227.5C 353.205,222.492 358.372,219.159 364.5,217.5 Z"/></g>
<g><path style="opacity:1" fill="#775428" d="M 206.5,215.5 C 201.93,219.614 197.597,223.947 193.5,228.5C 195.459,224.019 198.459,220.185 202.5,217C 203.745,216.209 205.078,215.709 206.5,215.5 Z"/></g>
<g><path style="opacity:1" fill="#241916" d="M 234.5,224.5 C 251.569,225.059 257.402,233.392 252,249.5C 245.69,256.811 238.19,258.311 229.5,254C 220.618,245.626 220.285,236.96 228.5,228C 230.432,226.541 232.432,225.375 234.5,224.5 Z"/></g>
<g><path style="opacity:1" fill="#241916" d="M 363.5,224.5 C 380.592,225.079 386.425,233.412 381,249.5C 374.69,256.811 367.19,258.311 358.5,254C 347.977,241.991 349.644,232.158 363.5,224.5 Z"/></g>
<g><path style="opacity:1" fill="#ececec" d="M 241.5,231.5 C 247.665,230.829 250.165,233.496 249,239.5C 245.751,243.367 242.418,243.367 239,239.5C 238.018,236.225 238.851,233.559 241.5,231.5 Z"/></g>
<g><path style="opacity:1" fill="#ededed" d="M 370.5,231.5 C 376.665,230.829 379.165,233.496 378,239.5C 374.751,243.367 371.418,243.367 368,239.5C 367.018,236.225 367.851,233.559 370.5,231.5 Z"/></g>
<g><path style="opacity:1" fill="#7f5b2c" d="M 418.5,259.5 C 416.14,261.865 414.14,264.532 412.5,267.5C 410.223,268.421 407.89,269.087 405.5,269.5C 410.069,266.455 414.402,263.122 418.5,259.5 Z"/></g>
<g><path style="opacity:1" fill="#765427" d="M 292.5,263.5 C 294.886,264.373 296.886,265.873 298.5,268C 302.221,268.678 305.888,268.511 309.5,267.5C 309.389,268.117 309.056,268.617 308.5,269C 301.615,271.092 296.281,269.259 292.5,263.5 Z"/></g>
<g><path style="opacity:1" fill="#553d1e" d="M 405.5,269.5 C 405.167,271.833 403.833,273.167 401.5,273.5C 401.488,270.858 402.821,269.525 405.5,269.5 Z"/></g>
<g><path style="opacity:1" fill="#2e2624" d="M 210.5,276.5 C 213.09,277.128 215.423,278.295 217.5,280C 228.088,290.005 234.922,302.172 238,316.5C 243.129,346.938 248.795,377.272 255,407.5C 256.585,414.002 259.252,420.002 263,425.5C 265.934,429.623 269.768,432.29 274.5,433.5C 273.475,439.797 272.641,446.13 272,452.5C 271.261,456.293 269.428,457.126 266.5,455C 234.129,429.774 215.629,396.607 211,355.5C 210.5,329.169 210.333,302.835 210.5,276.5 Z"/></g>
<g><path style="opacity:1" fill="#2c2321" d="M 395.5,276.5 C 394.683,304.125 394.183,331.791 394,359.5C 388.214,400.094 368.881,432.427 336,456.5C 335.667,456.167 335.333,455.833 335,455.5C 333.68,448.085 332.18,440.752 330.5,433.5C 332.655,433.628 334.655,433.128 336.5,432C 343.741,425.692 348.574,417.859 351,408.5C 356.982,378.774 362.482,348.94 367.5,319C 369.758,306.986 374.592,296.152 382,286.5C 385.758,282.05 390.258,278.717 395.5,276.5 Z"/></g>
<g><path style="opacity:1" fill="#8b622d" d="M 193.5,265.5 C 196.681,267.837 200.014,270.004 203.5,272C 204.191,273.067 204.691,274.234 205,275.5C 205.5,302.165 205.667,328.831 205.5,355.5C 204.668,329.337 204.168,303.003 204,276.5C 201.86,273.023 198.86,270.689 195,269.5C 194.209,268.255 193.709,266.922 193.5,265.5 Z"/></g>
<g><path style="opacity:1" fill="#8a622d" d="M 400.5,282.5 C 401.158,309.854 400.491,336.854 398.5,363.5C 399.132,336.353 399.799,309.353 400.5,282.5 Z"/></g>
<g><path style="opacity:1" fill="#241916" d="M 288.5,373.5 C 297.506,373.334 306.506,373.5 315.5,374C 332.339,376.557 339.172,386.057 336,402.5C 326.596,419.95 312.096,426.784 292.5,423C 282.786,419.285 275.619,412.785 271,403.5C 267.945,394.858 269.445,387.192 275.5,380.5C 279.66,377.632 283.994,375.299 288.5,373.5 Z"/></g>
<g><path style="opacity:1" fill="#8b622e" d="M 207.5,369.5 C 210.733,380.868 214.399,392.201 218.5,403.5C 217.057,402.665 216.057,401.332 215.5,399.5C 211.445,389.899 208.778,379.899 207.5,369.5 Z"/></g>
<g><path style="opacity:1" fill="#f2a293" d="M 331.5,463.5 C 332.918,476.529 332.752,489.529 331,502.5C 326.92,520.304 315.753,527.804 297.5,525C 294.768,524.587 292.101,523.92 289.5,523C 284.645,519.961 280.312,516.461 276.5,512.5C 274.665,509.158 273.498,505.491 273,501.5C 270.879,489.449 271.046,477.449 273.5,465.5C 276.656,455.521 278.656,445.188 279.5,434.5C 287.19,434.269 294.69,433.269 302,431.5C 310.093,433.099 318.26,434.099 326.5,434.5C 328.41,444.103 330.076,453.769 331.5,463.5 Z"/></g>
<g><path style="opacity:1" fill="#392915" d="M 361.5,441.5 C 358.833,444.833 355.833,447.833 352.5,450.5C 354.5,446.5 357.5,443.5 361.5,441.5 Z"/></g>
<g><path style="opacity:1" fill="#e29a7a" d="M 331.5,463.5 C 332.167,463.5 332.5,463.833 332.5,464.5C 333.976,477.527 333.809,490.527 332,503.5C 329.806,516.361 322.306,523.861 309.5,526C 295.304,528.78 284.304,524.28 276.5,512.5C 280.312,516.461 284.645,519.961 289.5,523C 292.101,523.92 294.768,524.587 297.5,525C 315.753,527.804 326.92,520.304 331,502.5C 332.752,489.529 332.918,476.529 331.5,463.5 Z"/></g>
</svg>
