<?xml version="1.0" encoding="UTF-8"?>
<!DOCTYPE svg PUBLIC "-//W3C//DTD SVG 1.1//EN" "http://www.w3.org/Graphics/SVG/1.1/DTD/svg11.dtd">
<svg xmlns="http://www.w3.org/2000/svg" version="1.1" width="600px" height="600px" style="shape-rendering:geometricPrecision; text-rendering:geometricPrecision; image-rendering:optimizeQuality; fill-rule:evenodd; clip-rule:evenodd" xmlns:xlink="http://www.w3.org/1999/xlink">
<g><path style="opacity:0.951" fill="#010101" d="M 189.5,-0.5 C 197.5,-0.5 205.5,-0.5 213.5,-0.5C 223.451,7.68069 231.285,17.6807 237,29.5C 252,67.8333 267,106.167 282,144.5C 293.667,145.833 305.333,145.833 317,144.5C 332.059,107.325 346.725,69.9915 361,32.5C 366.762,19.61 374.929,8.60998 385.5,-0.5C 393.833,-0.5 402.167,-0.5 410.5,-0.5C 417.336,5.87289 422.503,13.5396 426,22.5C 448.42,80.6805 461.92,140.847 466.5,203C 466.298,209.523 465.798,216.023 465,222.5C 461.617,242.698 457.284,262.698 452,282.5C 449.208,293.544 449.208,304.544 452,315.5C 452.667,325.167 452.667,334.833 452,344.5C 449.315,356.572 446.315,368.572 443,380.5C 438.193,393.257 433.193,405.924 428,418.5C 414.747,441.338 401.747,464.338 389,487.5C 377.959,512.287 368.292,537.62 360,563.5C 353.348,580.316 341.848,592.316 325.5,599.5C 308.5,599.5 291.5,599.5 274.5,599.5C 261.048,593.887 250.881,584.553 244,571.5C 240.945,565.667 238.278,559.667 236,553.5C 223.802,511.446 205.469,472.446 181,436.5C 167.61,413.165 157.444,388.499 150.5,362.5C 150.833,361.833 151.167,361.167 151.5,360.5C 149.021,350.666 147.687,340.666 147.5,330.5C 149.033,318.204 149.533,305.871 149,293.5C 143.843,269.203 138.843,244.87 134,220.5C 132.804,187.062 136.138,154.062 144,121.5C 152.036,85.6854 162.703,50.6854 176,16.5C 179.087,9.63124 183.587,3.96457 189.5,-0.5 Z"/></g>
<g><path style="opacity:1" fill="#3d3938" d="M 276.5,156.5 C 267.884,157.404 259.55,159.404 251.5,162.5C 248.691,158.959 246.524,154.959 245,150.5C 238.47,133.911 232.137,117.245 226,100.5C 223.024,92.0375 218.19,84.8709 211.5,79C 204.157,75.9112 197.99,77.4112 193,83.5C 175.444,122.375 167.777,163.042 170,205.5C 172.969,218.019 175.803,230.519 178.5,243C 180.058,243.21 181.391,243.71 182.5,244.5C 181.504,244.414 180.671,244.748 180,245.5C 172.006,263.65 165.506,282.316 160.5,301.5C 160.026,293.072 158.86,284.739 157,276.5C 150.757,255.532 146.424,234.199 144,212.5C 144.67,172.477 150.336,133.144 161,94.5C 167.948,66.9896 177.281,40.3229 189,14.5C 195.293,5.31557 202.793,4.1489 211.5,11C 219.973,19.8259 226.473,29.9926 231,41.5C 241.53,68.7555 251.863,96.0889 262,123.5C 266.298,134.761 271.132,145.761 276.5,156.5 Z"/></g>
<g><path style="opacity:1" fill="#3d3938" d="M 439.5,303.5 C 436.364,284.427 430.03,266.427 420.5,249.5C 420.043,248.702 419.376,248.369 418.5,248.5C 419.688,247.636 420.855,246.636 422,245.5C 422.333,240.833 422.667,236.167 423,231.5C 429.477,211.974 431.81,191.974 430,171.5C 425.924,141.526 418.257,112.526 407,84.5C 398.742,75.2271 390.409,75.2271 382,84.5C 378.828,88.8409 376.161,93.5076 374,98.5C 367.278,116.944 360.278,135.277 353,153.5C 351.311,157.56 349.144,161.227 346.5,164.5C 346.586,163.504 346.252,162.671 345.5,162C 338.4,159.225 331.067,157.392 323.5,156.5C 340.425,114.23 357.258,71.8969 374,29.5C 378.732,20.1004 385.566,12.6004 394.5,7C 400.424,5.8761 405.258,7.70944 409,12.5C 414.49,21.6303 418.823,31.297 422,41.5C 437.858,85.2663 448.525,130.266 454,176.5C 456.962,200.417 455.629,224.084 450,247.5C 443.944,265.716 440.444,284.383 439.5,303.5 Z"/></g>
<g><path style="opacity:1" fill="#050404" d="M 251.5,162.5 C 252.435,165.113 252.602,167.779 252,170.5C 233.917,183.915 218.583,199.915 206,218.5C 204.468,220.562 202.468,221.896 200,222.5C 196,229.167 192,235.833 188,242.5C 186.556,244.155 184.722,244.822 182.5,244.5C 181.391,243.71 180.058,243.21 178.5,243C 175.803,230.519 172.969,218.019 170,205.5C 167.777,163.042 175.444,122.375 193,83.5C 197.99,77.4112 204.157,75.9112 211.5,79C 218.19,84.8709 223.024,92.0375 226,100.5C 232.137,117.245 238.47,133.911 245,150.5C 246.524,154.959 248.691,158.959 251.5,162.5 Z"/></g>
<g><path style="opacity:1" fill="#050404" d="M 418.5,248.5 C 415.635,248.945 413.135,248.278 411,246.5C 395.503,216.33 374.17,190.996 347,170.5C 346.505,168.527 346.338,166.527 346.5,164.5C 349.144,161.227 351.311,157.56 353,153.5C 360.278,135.277 367.278,116.944 374,98.5C 376.161,93.5076 378.828,88.8409 382,84.5C 390.409,75.2271 398.742,75.2271 407,84.5C 418.257,112.526 425.924,141.526 430,171.5C 431.81,191.974 429.477,211.974 423,231.5C 422.667,236.167 422.333,240.833 422,245.5C 420.855,246.636 419.688,247.636 418.5,248.5 Z"/></g>
<g><path style="opacity:1" fill="#c89a90" d="M 245.5,166.5 C 228.517,179.447 214.017,194.78 202,212.5C 199.667,214.5 197.333,216.5 195,218.5C 190.607,225.387 186.44,232.387 182.5,239.5C 180.184,225.876 177.35,212.21 174,198.5C 173.89,159.932 181.557,122.932 197,87.5C 199.162,83.6316 202.328,82.1316 206.5,83C 210.333,85.5 213.5,88.6667 216,92.5C 226.137,117.083 235.97,141.75 245.5,166.5 Z"/></g>
<g><path style="opacity:1" fill="#c79a90" d="M 417.5,242.5 C 401.345,212.891 380.012,187.557 353.5,166.5C 362.896,142.484 372.396,118.484 382,94.5C 384.45,89.7163 387.95,85.883 392.5,83C 396.672,82.1316 399.838,83.6316 402,87.5C 417.758,122.858 425.424,159.858 425,198.5C 422.984,209.23 420.651,219.897 418,230.5C 417.501,234.486 417.334,238.486 417.5,242.5 Z"/></g>
<g><path style="opacity:1" fill="#d1bca2" d="M 276.5,156.5 C 292.167,156.5 307.833,156.5 323.5,156.5C 331.067,157.392 338.4,159.225 345.5,162C 346.252,162.671 346.586,163.504 346.5,164.5C 346.338,166.527 346.505,168.527 347,170.5C 374.17,190.996 395.503,216.33 411,246.5C 413.135,248.278 415.635,248.945 418.5,248.5C 419.376,248.369 420.043,248.702 420.5,249.5C 430.03,266.427 436.364,284.427 439.5,303.5C 443.048,325.434 441.882,347.101 436,368.5C 427.794,394.326 416.627,418.659 402.5,441.5C 399.386,442.091 396.886,443.758 395,446.5C 386.741,459.581 377.574,471.914 367.5,483.5C 372.428,464.538 378.595,445.538 386,426.5C 395.376,413.446 404.043,399.779 412,385.5C 417.778,374.613 422.444,363.28 426,351.5C 427.07,341.296 426.07,331.296 423,321.5C 419.136,312.099 414.969,302.765 410.5,293.5C 405.736,287.255 401.236,280.922 397,274.5C 389.43,267.604 381.264,261.438 372.5,256C 367.19,254.396 361.856,252.896 356.5,251.5C 351.733,252.468 347.233,254.135 343,256.5C 332.807,267.79 326.474,281.123 324,296.5C 323.657,305.967 321.49,314.967 317.5,323.5C 308.165,333.749 297.498,335.249 285.5,328C 283.93,325.138 282.263,322.305 280.5,319.5C 277.572,307.936 275.072,296.27 273,284.5C 269.856,274.709 265.023,265.876 258.5,258C 253.779,255.014 248.613,252.847 243,251.5C 218.975,257.187 200.975,270.854 189,292.5C 179.496,307.678 173.996,324.178 172.5,342C 173.518,351.573 176.018,360.74 180,369.5C 190.547,388.92 201.88,407.92 214,426.5C 220.342,444.838 226.675,463.171 233,481.5C 233.78,483.387 233.613,485.054 232.5,486.5C 223.106,473.929 214.272,460.929 206,447.5C 203.469,444.112 200.302,441.779 196.5,440.5C 182.516,419.078 171.682,396.078 164,371.5C 158.189,348.403 157.023,325.07 160.5,301.5C 165.506,282.316 172.006,263.65 180,245.5C 180.671,244.748 181.504,244.414 182.5,244.5C 184.722,244.822 186.556,244.155 188,242.5C 192,235.833 196,229.167 200,222.5C 202.468,221.896 204.468,220.562 206,218.5C 218.583,199.915 233.917,183.915 252,170.5C 252.602,167.779 252.435,165.113 251.5,162.5C 259.55,159.404 267.884,157.404 276.5,156.5 Z"/></g>
<g><path style="opacity:1" fill="#cdb69e" d="M 353.5,166.5 C 380.012,187.557 401.345,212.891 417.5,242.5C 416.614,243.776 415.614,243.776 414.5,242.5C 399.33,213.321 378.663,188.654 352.5,168.5C 351.127,166.192 351.46,165.525 353.5,166.5 Z"/></g>
<g><path style="opacity:1" fill="#cdb69e" d="M 245.5,166.5 C 247.028,166.517 247.528,167.184 247,168.5C 229.25,181.583 214.25,197.249 202,215.5C 199.532,216.104 197.532,217.438 196,219.5C 192.415,225.002 189.081,230.669 186,236.5C 185.241,238.063 184.074,239.063 182.5,239.5C 186.44,232.387 190.607,225.387 195,218.5C 197.333,216.5 199.667,214.5 202,212.5C 214.017,194.78 228.517,179.447 245.5,166.5 Z"/></g>
<g><path style="opacity:1" fill="#3e3a39" d="M 367.5,483.5 C 366.833,485.167 366.167,486.833 365.5,488.5C 355.781,478.778 345.781,469.445 335.5,460.5C 333.332,457.5 330.666,455 327.5,453C 308.315,445.444 289.315,445.777 270.5,454C 260.213,463.412 258.713,474.245 266,486.5C 269.036,489.704 272.203,492.704 275.5,495.5C 281.109,502.778 287.442,509.444 294.5,515.5C 283.239,519.542 271.572,520.542 259.5,518.5C 252.444,515.962 246.611,511.629 242,505.5C 238.804,499.109 235.638,492.776 232.5,486.5C 233.613,485.054 233.78,483.387 233,481.5C 226.675,463.171 220.342,444.838 214,426.5C 201.88,407.92 190.547,388.92 180,369.5C 176.018,360.74 173.518,351.573 172.5,342C 173.996,324.178 179.496,307.678 189,292.5C 200.975,270.854 218.975,257.187 243,251.5C 248.613,252.847 253.779,255.014 258.5,258C 265.023,265.876 269.856,274.709 273,284.5C 275.072,296.27 277.572,307.936 280.5,319.5C 282.263,322.305 283.93,325.138 285.5,328C 297.498,335.249 308.165,333.749 317.5,323.5C 321.49,314.967 323.657,305.967 324,296.5C 326.474,281.123 332.807,267.79 343,256.5C 347.233,254.135 351.733,252.468 356.5,251.5C 361.856,252.896 367.19,254.396 372.5,256C 381.264,261.438 389.43,267.604 397,274.5C 401.236,280.922 405.736,287.255 410.5,293.5C 414.969,302.765 419.136,312.099 423,321.5C 426.07,331.296 427.07,341.296 426,351.5C 422.444,363.28 417.778,374.613 412,385.5C 404.043,399.779 395.376,413.446 386,426.5C 378.595,445.538 372.428,464.538 367.5,483.5 Z"/></g>
<g><path style="opacity:1" fill="#cab59d" d="M 228.5,274.5 C 248.142,272.98 257.975,281.98 258,301.5C 252.431,317.202 241.598,322.702 225.5,318C 213.803,310.92 209.97,300.754 214,287.5C 217.367,281.42 222.2,277.087 228.5,274.5 Z"/></g>
<g><path style="opacity:1" fill="#cab69d" d="M 357.5,274.5 C 377.142,272.98 386.975,281.98 387,301.5C 381.431,317.202 370.598,322.702 354.5,318C 342.791,310.879 338.957,300.712 343,287.5C 346.367,281.42 351.2,277.087 357.5,274.5 Z"/></g>
<g><path style="opacity:1" fill="#331c02" d="M 230.5,281.5 C 248.184,281.534 254.017,289.867 248,306.5C 240.574,313.709 232.574,314.376 224,308.5C 216.387,296.977 218.554,287.977 230.5,281.5 Z"/></g>
<g><path style="opacity:1" fill="#321b02" d="M 359.5,281.5 C 377.184,281.534 383.017,289.867 377,306.5C 369.574,313.709 361.574,314.376 353,308.5C 345.638,297.102 347.805,288.102 359.5,281.5 Z"/></g>
<g><path style="opacity:1" fill="#efefee" d="M 238.5,287.5 C 246.294,288.252 247.961,291.752 243.5,298C 237.333,299.167 234.833,296.667 236,290.5C 237.045,289.627 237.878,288.627 238.5,287.5 Z"/></g>
<g><path style="opacity:1" fill="#edecec" d="M 367.5,287.5 C 375.828,288.069 377.495,291.569 372.5,298C 366.333,299.167 363.833,296.667 365,290.5C 366.045,289.627 366.878,288.627 367.5,287.5 Z"/></g>
<g><path style="opacity:1" fill="#302c2c" d="M 196.5,440.5 C 200.302,441.779 203.469,444.112 206,447.5C 214.272,460.929 223.106,473.929 232.5,486.5C 235.638,492.776 238.804,499.109 242,505.5C 246.611,511.629 252.444,515.962 259.5,518.5C 260.447,530.63 262.28,542.63 265,554.5C 267.642,566.967 274.142,576.8 284.5,584C 296.075,588.963 307.409,588.463 318.5,582.5C 320.167,584.5 321.833,586.5 323.5,588.5C 305.816,594.555 288.483,593.721 271.5,586C 261.076,578.898 253.576,569.398 249,557.5C 236.888,515.954 219.388,476.954 196.5,440.5 Z"/></g>
<g><path style="opacity:1" fill="#2b2525" d="M 402.5,441.5 C 382.084,474.674 366.251,510.007 355,547.5C 350.837,560.67 344.004,572.17 334.5,582C 331.135,584.682 327.469,586.849 323.5,588.5C 321.833,586.5 320.167,584.5 318.5,582.5C 328.912,571.669 335.079,558.669 337,543.5C 338.628,534.886 339.794,526.219 340.5,517.5C 347.43,516.085 352.93,512.418 357,506.5C 360.648,500.872 363.481,494.872 365.5,488.5C 366.167,486.833 366.833,485.167 367.5,483.5C 377.574,471.914 386.741,459.581 395,446.5C 396.886,443.758 399.386,442.091 402.5,441.5 Z"/></g>
<g><path style="opacity:1" fill="#1b110d" d="M 335.5,460.5 C 340.722,473.774 337.722,484.941 326.5,494C 309.785,506.025 292.785,506.525 275.5,495.5C 272.203,492.704 269.036,489.704 266,486.5C 258.713,474.245 260.213,463.412 270.5,454C 289.315,445.777 308.315,445.444 327.5,453C 330.666,455 333.332,457.5 335.5,460.5 Z"/></g>
<g><path style="opacity:1" fill="#393433" d="M 335.5,460.5 C 345.781,469.445 355.781,478.778 365.5,488.5C 363.481,494.872 360.648,500.872 357,506.5C 352.93,512.418 347.43,516.085 340.5,517.5C 326.559,520.704 312.892,519.704 299.5,514.5C 297.793,514.728 296.126,515.062 294.5,515.5C 287.442,509.444 281.109,502.778 275.5,495.5C 292.785,506.525 309.785,506.025 326.5,494C 337.722,484.941 340.722,473.774 335.5,460.5 Z"/></g>
<g><path style="opacity:1" fill="#f2a394" d="M 340.5,517.5 C 339.794,526.219 338.628,534.886 337,543.5C 335.079,558.669 328.912,571.669 318.5,582.5C 307.409,588.463 296.075,588.963 284.5,584C 274.142,576.8 267.642,566.967 265,554.5C 262.28,542.63 260.447,530.63 259.5,518.5C 271.572,520.542 283.239,519.542 294.5,515.5C 296.126,515.062 297.793,514.728 299.5,514.5C 312.892,519.704 326.559,520.704 340.5,517.5 Z"/></g>
</svg>
