<?xml version="1.0" encoding="UTF-8"?>
<!DOCTYPE svg PUBLIC "-//W3C//DTD SVG 1.1//EN" "http://www.w3.org/Graphics/SVG/1.1/DTD/svg11.dtd">
<svg xmlns="http://www.w3.org/2000/svg" version="1.1" width="600px" height="600px" style="shape-rendering:geometricPrecision; text-rendering:geometricPrecision; image-rendering:optimizeQuality; fill-rule:evenodd; clip-rule:evenodd" xmlns:xlink="http://www.w3.org/1999/xlink">
<g><path style="opacity:0.956" fill="#030303" d="M 283.5,-0.5 C 290.5,-0.5 297.5,-0.5 304.5,-0.5C 307.321,5.81176 310.155,12.1451 313,18.5C 314.472,10.8748 317.972,4.5415 323.5,-0.5C 328.167,-0.5 332.833,-0.5 337.5,-0.5C 339.334,1.83446 341.167,4.16779 343,6.5C 350.297,2.36819 357.464,2.53486 364.5,7C 367.11,9.99488 368.443,13.4949 368.5,17.5C 377.145,17.0666 382.311,21.0666 384,29.5C 386.886,30.7599 389.719,32.0932 392.5,33.5C 394.629,36.0445 396.296,38.8778 397.5,42C 408.155,46.1674 419.155,49.1674 430.5,51C 438.763,53.7617 444.097,59.2617 446.5,67.5C 446.291,68.086 445.957,68.586 445.5,69C 483.295,92.793 512.795,124.293 534,163.5C 555.509,203.358 570.675,245.525 579.5,290C 578.734,294.526 577.401,298.859 575.5,303C 576.991,308.965 578.325,314.965 579.5,321C 578.129,333.426 571.629,338.259 560,335.5C 561.331,348.497 562.998,361.497 565,374.5C 566.522,387.301 567.688,400.135 568.5,413C 568.469,416.818 567.802,420.485 566.5,424C 568.412,434.125 568.579,444.291 567,454.5C 560.715,468.032 552.049,469.699 541,459.5C 539.023,463.017 538.189,466.851 538.5,471C 540.226,490.11 538.726,508.943 534,527.5C 529.721,535.369 523.554,537.202 515.5,533C 513.131,530.43 511.131,527.596 509.5,524.5C 506.771,540.198 503.604,555.865 500,571.5C 495.767,581.685 488.6,584.519 478.5,580C 474.855,576.547 472.355,572.38 471,567.5C 466.711,566.023 463.378,563.356 461,559.5C 458.616,551.958 456.949,544.291 456,536.5C 455.194,545.337 453.527,554.004 451,562.5C 444.641,569.886 437.975,570.219 431,563.5C 428.806,560.446 427.139,557.112 426,553.5C 422.299,564.943 417.633,575.943 412,586.5C 402.754,593.039 395.421,591.372 390,581.5C 387.611,586.554 384.445,591.054 380.5,595C 373.327,599.752 366.827,598.919 361,592.5C 358.456,587.452 356.789,582.119 356,576.5C 355.586,576.043 355.086,575.709 354.5,575.5C 351.353,584.471 346.686,592.471 340.5,599.5C 330.167,599.5 319.833,599.5 309.5,599.5C 307.519,596.064 306.019,592.397 305,588.5C 302.892,578.187 300.892,567.854 299,557.5C 297.667,565.5 296.333,573.5 295,581.5C 293.904,587.96 291.737,593.96 288.5,599.5C 278.5,599.5 268.5,599.5 258.5,599.5C 251.327,591.84 246.16,582.84 243,572.5C 242.207,580.342 239.874,587.675 236,594.5C 226.896,600.144 219.23,598.478 213,589.5C 211.667,586.833 210.333,584.167 209,581.5C 199.364,594.707 190.364,594.04 182,579.5C 178.803,570.908 175.803,562.242 173,553.5C 171.3,559.4 167.8,563.9 162.5,567C 152.148,569.079 146.315,564.912 145,554.5C 143.744,547.879 142.911,541.212 142.5,534.5C 141.5,534.5 140.5,534.5 139.5,534.5C 139.468,543.426 137.968,552.093 135,560.5C 132.977,563.52 130.31,565.854 127,567.5C 124.194,580.33 116.694,584.497 104.5,580C 101.193,577.222 99.0262,573.722 98,569.5C 94.2725,554.697 91.7725,539.697 90.5,524.5C 89.5,524.5 88.5,524.5 87.5,524.5C 84.6457,534.739 78.3124,537.572 68.5,533C 66.3834,531.269 64.8834,529.102 64,526.5C 61.8921,518.627 60.5587,510.627 60,502.5C 59.5001,488.504 59.3334,474.504 59.5,460.5C 56.4007,460.092 54.0674,461.259 52.5,464C 42.6883,468.339 35.8549,465.506 32,455.5C 28.9586,416.196 31.4586,377.196 39.5,338.5C 38.0336,336.343 36.2003,336.01 34,337.5C 24.9399,335.77 20.1066,330.27 19.5,321C 20.8604,314.557 22.5271,308.224 24.5,302C 20.118,296.424 18.9514,290.258 21,283.5C 31.0836,236.235 48.417,191.901 73,150.5C 93.3097,117.024 120.143,90.0236 153.5,69.5C 154.713,60.4515 159.713,54.6182 168.5,52C 177.048,49.4904 185.715,47.4904 194.5,46C 198.112,44.8605 201.446,43.1939 204.5,41C 200.405,33.6936 201.738,27.3603 208.5,22C 213.092,20.5187 217.759,19.352 222.5,18.5C 221.53,10.4459 225.197,5.77924 233.5,4.5C 241.826,6.83009 249.493,10.4968 256.5,15.5C 258.163,12.2569 259.829,8.92359 261.5,5.5C 269.209,0.0466418 275.709,1.37998 281,9.5C 281.838,6.1484 282.671,2.81507 283.5,-0.5 Z"/></g>
<g><path style="opacity:1" fill="#c9b7a1" d="M 563.5,295.5 C 561.645,293.967 559.812,292.3 558,290.5C 551.623,278.565 543.456,268.065 533.5,259C 532.216,258.316 531.049,258.483 530,259.5C 529.333,261.167 529.333,262.833 530,264.5C 537.338,287.989 543.505,311.656 548.5,335.5C 554.841,364.225 557.508,393.225 556.5,422.5C 554.713,424.887 552.713,425.053 550.5,423C 549.206,420.913 548.039,418.746 547,416.5C 542.389,402.169 537.889,387.835 533.5,373.5C 530.771,366.822 527.938,360.155 525,353.5C 523.667,352.167 522.333,352.167 521,353.5C 520.333,358.833 520.333,364.167 521,369.5C 525.219,395.159 527.719,420.826 528.5,446.5C 528.5,452.167 528.5,457.833 528.5,463.5C 527.778,471.363 526.945,479.363 526,487.5C 525.885,490.008 524.885,492.008 523,493.5C 522.228,493.355 521.561,493.022 521,492.5C 518.798,484.121 516.632,475.788 514.5,467.5C 511.748,455.495 507.914,443.828 503,432.5C 502.333,431.167 501.667,431.167 501,432.5C 500.524,450.197 499.69,467.864 498.5,485.5C 497.464,500.987 495.298,516.321 492,531.5C 491.058,534.443 489.892,537.276 488.5,540C 485.706,540.972 483.706,540.139 482.5,537.5C 479.112,510.85 475.612,484.184 472,457.5C 470.118,446.304 467.451,435.304 464,424.5C 460.53,420.531 457.863,421.198 456,426.5C 452.11,446.013 449.276,465.68 447.5,485.5C 446.527,497.893 445.027,510.226 443,522.5C 442.804,524.286 441.971,525.619 440.5,526.5C 438.167,525.168 436.834,523.168 436.5,520.5C 434.387,515.386 432.887,510.053 432,504.5C 428.924,486.894 426.258,469.228 424,451.5C 424.516,472.104 422.683,492.437 418.5,512.5C 414.243,524.26 409.576,535.927 404.5,547.5C 402.994,548.747 401.494,548.747 400,547.5C 397.701,541.008 396.034,534.342 395,527.5C 392.872,523.624 390.539,523.624 388,527.5C 384.514,534.822 381.348,542.155 378.5,549.5C 372.907,559.459 369.073,558.792 367,547.5C 367.603,525.32 368.77,503.153 370.5,481C 370.612,476.056 370.112,471.223 369,466.5C 361.287,491.972 352.954,517.305 344,542.5C 341.588,547.659 338.921,552.659 336,557.5C 324.894,568.546 317.56,566.546 314,551.5C 311.753,535.686 308.753,520.019 305,504.5C 304,502.5 303,500.5 302,498.5C 300.186,497.24 298.353,497.24 296.5,498.5C 295.058,501.05 293.892,503.716 293,506.5C 289.332,524.181 285.666,541.848 282,559.5C 278.128,565.206 273.295,566.039 267.5,562C 259.323,554.158 253.823,544.658 251,533.5C 244.061,513.738 238.061,493.738 233,473.5C 232.361,470.888 231.194,468.554 229.5,466.5C 228.808,467.025 228.308,467.692 228,468.5C 227.833,472 227.667,475.5 227.5,479C 229.054,498.651 230.388,518.318 231.5,538C 231.577,542.917 231.077,547.75 230,552.5C 227.675,557.546 225.009,557.546 222,552.5C 217.703,543.994 213.703,535.328 210,526.5C 207.916,523.967 205.916,523.967 204,526.5C 202.333,533.167 200.667,539.833 199,546.5C 198.167,547.5 197.333,548.5 196.5,549.5C 195.148,548.476 193.815,547.476 192.5,546.5C 187.754,533.927 183.42,521.26 179.5,508.5C 175.928,489.369 174.095,470.035 174,450.5C 171.483,471.968 168.15,493.302 164,514.5C 162.951,518.374 161.451,522.041 159.5,525.5C 158.425,526.562 157.425,526.562 156.5,525.5C 154.016,514.301 152.35,502.967 151.5,491.5C 149.329,472.129 146.829,452.795 144,433.5C 143.572,429.001 141.739,425.335 138.5,422.5C 136.971,422.529 135.804,423.196 135,424.5C 130.859,436.199 127.859,448.199 126,460.5C 122.674,483.089 120.008,505.755 118,528.5C 117.886,532.574 116.72,536.24 114.5,539.5C 113.399,540.598 112.066,540.765 110.5,540C 108.765,537.808 107.598,535.308 107,532.5C 103.263,515.656 100.763,498.656 99.5,481.5C 98.8706,465.842 98.3706,450.175 98,434.5C 97.7508,433.376 97.2508,432.376 96.5,431.5C 93.6639,435.835 91.4973,440.501 90,445.5C 85.5232,461.443 81.3565,477.443 77.5,493.5C 75.0885,493.863 73.5885,492.863 73,490.5C 72.3196,485.664 71.4862,480.997 70.5,476.5C 70.5,462.167 70.5,447.833 70.5,433.5C 71.4682,431.393 71.8016,429.059 71.5,426.5C 72.5971,406.722 74.7638,387.056 78,367.5C 78.6667,363.167 78.6667,358.833 78,354.5C 77.2747,352.842 76.108,352.342 74.5,353C 72.6227,355.251 71.1227,357.751 70,360.5C 66.0562,372.164 62.2229,383.831 58.5,395.5C 55.9757,403.906 53.1423,412.239 50,420.5C 48.2325,423.844 45.7325,424.844 42.5,423.5C 41.2043,393.492 43.871,363.825 50.5,334.5C 54.8923,311.937 60.7256,289.604 68,267.5C 68.498,264.518 68.6646,261.518 68.5,258.5C 64.1141,259.366 60.6141,261.699 58,265.5C 51.5067,273.818 45.5067,282.485 40,291.5C 38.8549,292.636 37.6883,293.636 36.5,294.5C 34.3891,295.968 32.5557,295.635 31,293.5C 40.8077,231.04 65.141,175.04 104,125.5C 122.687,104.303 144.187,86.6368 168.5,72.5C 167.167,70.8333 165.833,69.1667 164.5,67.5C 167.655,63.7504 171.655,61.2504 176.5,60C 191.596,58.5236 205.596,53.8569 218.5,46C 217.167,44.6667 215.833,43.3333 214.5,42C 215.5,41.6667 216.5,41.3333 217.5,41C 209.453,31.3402 211.787,28.0069 224.5,31C 230.207,32.3811 235.207,35.0478 239.5,39C 241.259,39.7975 242.926,39.6309 244.5,38.5C 238.129,32.0918 234.129,24.4252 232.5,15.5C 236.105,15.7986 239.439,16.9653 242.5,19C 248.872,23.1808 255.206,27.3475 261.5,31.5C 262.442,31.3918 263.275,31.0585 264,30.5C 264.498,27.5184 264.665,24.5184 264.5,21.5C 265.833,21.5 267.167,21.5 268.5,21.5C 268.183,18.4281 268.516,15.4281 269.5,12.5C 269.833,12.6667 270.167,12.8333 270.5,13C 274.377,18.5847 277.877,24.4181 281,30.5C 283.076,33.5545 285.742,34.5545 289,33.5C 289.499,28.1771 289.666,22.8437 289.5,17.5C 290.5,17.5 291.5,17.5 292.5,17.5C 292.174,13.1161 292.508,8.7828 293.5,4.5C 293.833,4.66667 294.167,4.83333 294.5,5C 298.849,13.0253 303.015,21.192 307,29.5C 310.112,33.699 313.779,34.3656 318,31.5C 321.39,24.6641 324.39,17.6641 327,10.5C 328.444,8.84464 330.278,8.17798 332.5,8.5C 331.65,14.5456 330.817,20.5456 330,26.5C 337.963,19.4251 347.13,15.5917 357.5,15C 357.957,15.414 358.291,15.914 358.5,16.5C 354.457,23.7128 349.457,30.2128 343.5,36C 345.833,36.6667 348.167,36.6667 350.5,36C 357.181,31.3306 364.514,28.6639 372.5,28C 373.63,33.2627 371.963,37.596 367.5,41C 373.833,41.3333 380.167,41.6667 386.5,42C 385.016,43.5737 383.349,44.907 381.5,46C 393.661,52.9173 406.661,57.2506 420.5,59C 424.341,59.876 428.007,61.2094 431.5,63C 436.786,66.0667 436.786,69.2333 431.5,72.5C 472.009,96.5083 503.509,129.175 526,170.5C 545.141,206.588 559.141,244.588 568,284.5C 568.667,287.5 568.667,290.5 568,293.5C 566.89,295.037 565.39,295.703 563.5,295.5 Z"/></g>
<g><path style="opacity:1" fill="#b5a395" d="M 232.5,188.5 C 234.592,188.561 236.092,189.561 237,191.5C 238.378,207.93 245.712,220.93 259,230.5C 259.667,231.833 259.667,233.167 259,234.5C 248.35,236.49 237.85,239.323 227.5,243C 216.6,242.787 207.267,246.453 199.5,254C 197.323,255.202 194.989,255.702 192.5,255.5C 192.34,253.801 192.506,252.134 193,250.5C 207.17,241.669 219.504,230.669 230,217.5C 231.588,214.826 232.755,211.992 233.5,209C 232.392,203.687 231.392,198.353 230.5,193C 230.519,191.167 231.185,189.667 232.5,188.5 Z"/></g>
<g><path style="opacity:1" fill="#b5a395" d="M 355.5,188.5 C 356.822,188.33 357.989,188.663 359,189.5C 359.733,195.606 359.233,201.606 357.5,207.5C 357.622,210.698 358.455,213.698 360,216.5C 371.062,229.894 383.728,241.561 398,251.5C 398.684,252.784 398.517,253.951 397.5,255C 395.833,255.667 394.167,255.667 392.5,255C 384.151,247.101 374.151,243.101 362.5,243C 352.328,239.939 342.161,237.106 332,234.5C 331.333,233.167 331.333,231.833 332,230.5C 345.183,219.486 353.017,205.486 355.5,188.5 Z"/></g>
<g><path style="opacity:1" fill="#b5a395" d="M 50.5,334.5 C 49.7934,332.866 48.6268,331.532 47,330.5C 46.8333,328.833 46.6667,327.167 46.5,325.5C 47.3761,319.349 48.5427,313.349 50,307.5C 46.2014,313.597 42.0348,319.431 37.5,325C 35.1047,327.145 32.938,326.978 31,324.5C 30.3333,321.5 30.3333,318.5 31,315.5C 33.3029,308.622 35.1363,301.622 36.5,294.5C 37.6883,293.636 38.8549,292.636 40,291.5C 45.5067,282.485 51.5067,273.818 58,265.5C 60.6141,261.699 64.1141,259.366 68.5,258.5C 68.6646,261.518 68.498,264.518 68,267.5C 60.7256,289.604 54.8923,311.937 50.5,334.5 Z"/></g>
<g><path style="opacity:1" fill="#b4a293" d="M 563.5,295.5 C 564.68,302.222 566.18,308.889 568,315.5C 568.667,318.5 568.667,321.5 568,324.5C 566.062,326.978 563.895,327.145 561.5,325C 556.301,318.768 551.468,312.268 547,305.5C 548.316,312.445 549.816,319.445 551.5,326.5C 550.752,329.645 549.752,332.645 548.5,335.5C 543.505,311.656 537.338,287.989 530,264.5C 529.333,262.833 529.333,261.167 530,259.5C 531.049,258.483 532.216,258.316 533.5,259C 543.456,268.065 551.623,278.565 558,290.5C 559.812,292.3 561.645,293.967 563.5,295.5 Z"/></g>
<g><path style="opacity:1" fill="#1e0e09" d="M 280.5,263.5 C 297.821,261.95 314.488,264.45 330.5,271C 340.442,277.478 344.609,286.645 343,298.5C 341.473,308.055 336.973,315.889 329.5,322C 300.846,343.243 274.346,340.743 250,314.5C 239.951,298.962 241.451,284.795 254.5,272C 262.88,267.913 271.547,265.08 280.5,263.5 Z"/></g>
<g><path style="opacity:1" fill="#bcaa99" d="M 71.5,426.5 C 70.4625,427.93 69.7959,429.597 69.5,431.5C 68.0272,437.416 65.8605,443.083 63,448.5C 59.1637,451.493 56.997,450.493 56.5,445.5C 56.4776,430.269 57.4776,415.102 59.5,400C 59.4915,398.293 59.1582,396.793 58.5,395.5C 62.2229,383.831 66.0562,372.164 70,360.5C 71.1227,357.751 72.6227,355.251 74.5,353C 76.108,352.342 77.2747,352.842 78,354.5C 78.6667,358.833 78.6667,363.167 78,367.5C 74.7638,387.056 72.5971,406.722 71.5,426.5 Z"/></g>
<g><path style="opacity:1" fill="#bba998" d="M 533.5,373.5 C 532.903,373.735 532.57,374.235 532.5,375C 535.627,391.869 537.961,408.702 539.5,425.5C 539.667,430.174 540.001,434.841 540.5,439.5C 540.599,442.999 539.932,446.332 538.5,449.5C 537.635,450.583 536.635,450.749 535.5,450C 532.193,447.222 530.026,443.722 529,439.5C 528.503,441.81 528.337,444.143 528.5,446.5C 527.719,420.826 525.219,395.159 521,369.5C 520.333,364.167 520.333,358.833 521,353.5C 522.333,352.167 523.667,352.167 525,353.5C 527.938,360.155 530.771,366.822 533.5,373.5 Z"/></g>
<g><path style="opacity:1" fill="#1e0e09" d="M 336.5,387.5 C 336.5,382.833 336.5,378.167 336.5,373.5C 322.34,372.475 308.173,371.475 294,370.5C 279.494,371.584 264.994,372.75 250.5,374C 250.113,379.066 250.113,384.232 250.5,389.5C 246.062,380.707 245.062,371.541 247.5,362C 254.431,358.766 261.765,356.766 269.5,356C 285.169,354.024 300.835,354.024 316.5,356C 324.145,356.662 331.479,358.495 338.5,361.5C 340.042,363.879 340.709,366.546 340.5,369.5C 340.295,375.873 338.961,381.873 336.5,387.5 Z"/></g>
<g><path style="opacity:1" fill="#f19c9f" d="M 336.5,387.5 C 335.663,400.448 331.83,412.782 325,424.5C 320.206,428.292 315.706,432.458 311.5,437C 298.258,444.6 285.258,444.267 272.5,436C 263.125,427.979 256.625,418.145 253,406.5C 251.11,400.985 250.276,395.319 250.5,389.5C 250.113,384.232 250.113,379.066 250.5,374C 264.994,372.75 279.494,371.584 294,370.5C 308.173,371.475 322.34,372.475 336.5,373.5C 336.5,378.167 336.5,382.833 336.5,387.5 Z"/></g>
<g><path style="opacity:1" fill="#b3a193" d="M 533.5,373.5 C 537.889,387.835 542.389,402.169 547,416.5C 548.039,418.746 549.206,420.913 550.5,423C 552.713,425.053 554.713,424.887 556.5,422.5C 557.532,432.478 557.699,442.478 557,452.5C 555.174,456.037 552.84,456.371 550,453.5C 545.877,444.296 542.377,434.962 539.5,425.5C 537.961,408.702 535.627,391.869 532.5,375C 532.57,374.235 532.903,373.735 533.5,373.5 Z"/></g>
<g><path style="opacity:1" fill="#b2a092" d="M 58.5,395.5 C 59.1582,396.793 59.4915,398.293 59.5,400C 57.4776,415.102 56.4776,430.269 56.5,445.5C 55.6862,443.369 55.1862,441.036 55,438.5C 53.3115,443.74 51.1449,448.74 48.5,453.5C 46.287,456.08 44.1203,456.08 42,453.5C 41.3011,443.478 41.4677,433.478 42.5,423.5C 45.7325,424.844 48.2325,423.844 50,420.5C 53.1423,412.239 55.9757,403.906 58.5,395.5 Z"/></g>
<g><path style="opacity:1" fill="#bba998" d="M 151.5,491.5 C 149.034,495.018 148.034,499.018 148.5,503.5C 148.506,510.642 147.173,517.475 144.5,524C 143.5,524.667 142.5,524.667 141.5,524C 139.383,520.453 137.883,516.62 137,512.5C 136.325,506.432 135.325,500.432 134,494.5C 131.59,512.116 129.59,529.782 128,547.5C 127.422,550.903 126.255,554.07 124.5,557C 121.632,557.64 119.965,556.473 119.5,553.5C 118.061,549.815 117.061,545.982 116.5,542C 116.316,540.624 115.649,539.791 114.5,539.5C 116.72,536.24 117.886,532.574 118,528.5C 120.008,505.755 122.674,483.089 126,460.5C 127.859,448.199 130.859,436.199 135,424.5C 135.804,423.196 136.971,422.529 138.5,422.5C 141.739,425.335 143.572,429.001 144,433.5C 146.829,452.795 149.329,472.129 151.5,491.5 Z"/></g>
<g><path style="opacity:1" fill="#bbaa99" d="M 482.5,537.5 C 480.206,540.37 478.872,543.703 478.5,547.5C 478.235,551.13 476.902,554.297 474.5,557C 472.613,557.163 471.113,556.329 470,554.5C 467.762,537.887 465.762,521.22 464,504.5C 463.173,511.308 461.34,517.808 458.5,524C 455.26,524.442 453.427,522.942 453,519.5C 451.743,511.537 450.91,503.537 450.5,495.5C 450.68,491.714 449.68,488.381 447.5,485.5C 449.276,465.68 452.11,446.013 456,426.5C 457.863,421.198 460.53,420.531 464,424.5C 467.451,435.304 470.118,446.304 472,457.5C 475.612,484.184 479.112,510.85 482.5,537.5 Z"/></g>
<g><path style="opacity:1" fill="#665d52" d="M 71.5,426.5 C 71.8016,429.059 71.4682,431.393 70.5,433.5C 70.6716,432.508 70.3382,431.842 69.5,431.5C 69.7959,429.597 70.4625,427.93 71.5,426.5 Z"/></g>
<g><path style="opacity:1" fill="#b9a797" d="M 99.5,481.5 C 98.5084,481.328 97.8417,481.662 97.5,482.5C 95.9284,493.12 93.2618,503.453 89.5,513.5C 88.7261,514.711 87.8928,514.711 87,513.5C 85.1886,509.012 84.1886,504.346 84,499.5C 81.8441,507.124 79.8441,514.79 78,522.5C 77.6322,523.91 76.7989,524.91 75.5,525.5C 72.9186,520.178 71.4186,514.511 71,508.5C 70.5002,497.839 70.3335,487.172 70.5,476.5C 71.4862,480.997 72.3196,485.664 73,490.5C 73.5885,492.863 75.0885,493.863 77.5,493.5C 81.3565,477.443 85.5232,461.443 90,445.5C 91.4973,440.501 93.6639,435.835 96.5,431.5C 97.2508,432.376 97.7508,433.376 98,434.5C 98.3706,450.175 98.8706,465.842 99.5,481.5 Z"/></g>
<g><path style="opacity:1" fill="#bbaa99" d="M 514.5,467.5 C 513.776,475.703 513.11,484.036 512.5,492.5C 512.412,497.536 511.912,502.536 511,507.5C 510.484,510.251 509.317,512.584 507.5,514.5C 504.086,506.515 501.752,498.181 500.5,489.5C 500.011,488.005 499.345,486.671 498.5,485.5C 499.69,467.864 500.524,450.197 501,432.5C 501.667,431.167 502.333,431.167 503,432.5C 507.914,443.828 511.748,455.495 514.5,467.5 Z"/></g>
<g><path style="opacity:1" fill="#bbaa99" d="M 179.5,508.5 C 178.073,506.852 177.24,504.852 177,502.5C 175.53,506.378 174.697,510.378 174.5,514.5C 173.413,523.772 171.246,532.772 168,541.5C 167.184,542.823 166.017,543.489 164.5,543.5C 162.832,537.404 161.165,531.404 159.5,525.5C 161.451,522.041 162.951,518.374 164,514.5C 168.15,493.302 171.483,471.968 174,450.5C 174.095,470.035 175.928,489.369 179.5,508.5 Z"/></g>
<g><path style="opacity:1" fill="#bcaa99" d="M 436.5,520.5 C 435.821,527.192 434.487,533.859 432.5,540.5C 432.5,541.5 432.5,542.5 432.5,543.5C 429.405,543.374 427.572,541.707 427,538.5C 425.087,534.022 423.92,529.355 423.5,524.5C 422.671,521.185 421.838,517.852 421,514.5C 420.583,513.244 419.75,512.577 418.5,512.5C 422.683,492.437 424.516,472.104 424,451.5C 426.258,469.228 428.924,486.894 432,504.5C 432.887,510.053 434.387,515.386 436.5,520.5 Z"/></g>
<g><path style="opacity:1" fill="#bcaa99" d="M 378.5,549.5 C 376.706,555.696 374.206,561.696 371,567.5C 369.804,569.286 368.304,570.619 366.5,571.5C 365.504,571.586 364.671,571.252 364,570.5C 362.956,568.285 362.29,565.952 362,563.5C 361.448,554.487 361.615,545.487 362.5,536.5C 360.027,536.912 358.694,535.912 358.5,533.5C 358.539,532.244 358.039,531.244 357,530.5C 356.545,523.47 356.545,516.47 357,509.5C 353.131,521.804 349.131,534.137 345,546.5C 342.23,554.921 338.563,562.921 334,570.5C 322.314,582.917 314.814,580.917 311.5,564.5C 309.851,557.234 308.517,549.9 307.5,542.5C 307.112,535.278 305.612,528.278 303,521.5C 301.949,519.373 300.449,517.707 298.5,516.5C 296.971,516.529 295.804,517.196 295,518.5C 289.797,531.314 286.797,544.648 286,558.5C 284.794,563.531 283.46,568.531 282,573.5C 279.149,578.48 274.982,579.813 269.5,577.5C 266.146,574.979 263.312,571.979 261,568.5C 253.241,552.898 247.241,536.565 243,519.5C 242.667,524.167 242.333,528.833 242,533.5C 241.283,534.044 240.783,534.711 240.5,535.5C 237.375,537.152 235.208,536.152 234,532.5C 234.175,543.495 234.175,554.495 234,565.5C 233.427,567.641 232.594,569.641 231.5,571.5C 228.737,571.256 226.571,569.923 225,567.5C 221.967,560.043 218.634,552.71 215,545.5C 213.54,542.79 211.54,542.124 209,543.5C 207.717,547.414 206.884,551.414 206.5,555.5C 205.396,558.81 203.729,561.81 201.5,564.5C 200.504,564.586 199.671,564.252 199,563.5C 195.753,558.262 193.587,552.595 192.5,546.5C 193.815,547.476 195.148,548.476 196.5,549.5C 197.333,548.5 198.167,547.5 199,546.5C 200.667,539.833 202.333,533.167 204,526.5C 205.916,523.967 207.916,523.967 210,526.5C 213.703,535.328 217.703,543.994 222,552.5C 225.009,557.546 227.675,557.546 230,552.5C 231.077,547.75 231.577,542.917 231.5,538C 230.388,518.318 229.054,498.651 227.5,479C 227.667,475.5 227.833,472 228,468.5C 228.308,467.692 228.808,467.025 229.5,466.5C 231.194,468.554 232.361,470.888 233,473.5C 238.061,493.738 244.061,513.738 251,533.5C 253.823,544.658 259.323,554.158 267.5,562C 273.295,566.039 278.128,565.206 282,559.5C 285.666,541.848 289.332,524.181 293,506.5C 293.892,503.716 295.058,501.05 296.5,498.5C 298.353,497.24 300.186,497.24 302,498.5C 303,500.5 304,502.5 305,504.5C 308.753,520.019 311.753,535.686 314,551.5C 317.56,566.546 324.894,568.546 336,557.5C 338.921,552.659 341.588,547.659 344,542.5C 352.954,517.305 361.287,491.972 369,466.5C 370.112,471.223 370.612,476.056 370.5,481C 368.77,503.153 367.603,525.32 367,547.5C 369.073,558.792 372.907,559.459 378.5,549.5 Z"/></g>
<g><path style="opacity:1" fill="#b19f91" d="M 528.5,463.5 C 528.794,480.526 528.294,497.526 527,514.5C 526.119,518.376 524.786,522.042 523,525.5C 522.333,524.833 521.667,524.167 521,523.5C 518.297,513.009 515.463,502.676 512.5,492.5C 513.11,484.036 513.776,475.703 514.5,467.5C 516.632,475.788 518.798,484.121 521,492.5C 521.561,493.022 522.228,493.355 523,493.5C 524.885,492.008 525.885,490.008 526,487.5C 526.945,479.363 527.778,471.363 528.5,463.5 Z"/></g>
<g><path style="opacity:1" fill="#af9e90" d="M 447.5,485.5 C 449.68,488.381 450.68,491.714 450.5,495.5C 448.123,515.044 445.623,534.711 443,554.5C 441.857,557.915 440.19,558.249 438,555.5C 436.035,550.429 434.202,545.429 432.5,540.5C 434.487,533.859 435.821,527.192 436.5,520.5C 436.834,523.168 438.167,525.168 440.5,526.5C 441.971,525.619 442.804,524.286 443,522.5C 445.027,510.226 446.527,497.893 447.5,485.5 Z"/></g>
<g><path style="opacity:1" fill="#b19f91" d="M 498.5,485.5 C 499.345,486.671 500.011,488.005 500.5,489.5C 499.638,516.033 496.138,542.367 490,568.5C 488.676,572.597 486.51,573.264 483.5,570.5C 481.54,562.76 479.873,555.093 478.5,547.5C 478.872,543.703 480.206,540.37 482.5,537.5C 483.706,540.139 485.706,540.972 488.5,540C 489.892,537.276 491.058,534.443 492,531.5C 495.298,516.321 497.464,500.987 498.5,485.5 Z"/></g>
<g><path style="opacity:1" fill="#af9d90" d="M 97.5,482.5 C 97.8417,481.662 98.5084,481.328 99.5,481.5C 100.763,498.656 103.263,515.656 107,532.5C 107.598,535.308 108.765,537.808 110.5,540C 112.066,540.765 113.399,540.598 114.5,539.5C 115.649,539.791 116.316,540.624 116.5,542C 117.061,545.982 118.061,549.815 119.5,553.5C 118.839,559.27 117.339,564.936 115,570.5C 114.163,572.007 112.996,572.507 111.5,572C 109.513,570.681 108.346,568.848 108,566.5C 102.185,538.643 98.6846,510.643 97.5,482.5 Z"/></g>
<g><path style="opacity:1" fill="#ae9d8f" d="M 151.5,491.5 C 152.35,502.967 154.016,514.301 156.5,525.5C 157.425,526.562 158.425,526.562 159.5,525.5C 161.165,531.404 162.832,537.404 164.5,543.5C 163.185,547.084 162.018,550.751 161,554.5C 159.981,555.687 158.814,556.687 157.5,557.5C 156.808,556.975 156.308,556.308 156,555.5C 153.046,538.091 150.546,520.758 148.5,503.5C 148.034,499.018 149.034,495.018 151.5,491.5 Z"/></g>
<g><path style="opacity:1" fill="#b19f92" d="M 179.5,508.5 C 183.42,521.26 187.754,533.927 192.5,546.5C 193.587,552.595 195.753,558.262 199,563.5C 199.671,564.252 200.504,564.586 201.5,564.5C 201.287,569.969 199.954,575.136 197.5,580C 196.216,580.684 195.049,580.517 194,579.5C 184.522,558.581 178.022,536.914 174.5,514.5C 174.697,510.378 175.53,506.378 177,502.5C 177.24,504.852 178.073,506.852 179.5,508.5 Z"/></g>
<g><path style="opacity:1" fill="#b2a092" d="M 358.5,533.5 C 352.748,549.039 346.915,564.706 341,580.5C 337.777,588.397 332.11,593.397 324,595.5C 320.967,595.481 318.633,594.148 317,591.5C 313.827,582.794 311.993,573.794 311.5,564.5C 314.814,580.917 322.314,582.917 334,570.5C 338.563,562.921 342.23,554.921 345,546.5C 349.131,534.137 353.131,521.804 357,509.5C 356.545,516.47 356.545,523.47 357,530.5C 358.039,531.244 358.539,532.244 358.5,533.5 Z"/></g>
<g><path style="opacity:1" fill="#b2a092" d="M 307.5,542.5 C 305.904,538.076 303.904,533.743 301.5,529.5C 299.389,528.152 297.555,528.485 296,530.5C 293.201,536.232 291.201,542.232 290,548.5C 287.747,561.527 285.414,574.527 283,587.5C 279.227,596.336 273.394,597.836 265.5,592C 263.212,589.257 261.045,586.423 259,583.5C 252.485,568.138 246.818,552.471 242,536.5C 241.617,535.944 241.117,535.611 240.5,535.5C 240.783,534.711 241.283,534.044 242,533.5C 242.333,528.833 242.667,524.167 243,519.5C 247.241,536.565 253.241,552.898 261,568.5C 263.312,571.979 266.146,574.979 269.5,577.5C 274.982,579.813 279.149,578.48 282,573.5C 283.46,568.531 284.794,563.531 286,558.5C 286.797,544.648 289.797,531.314 295,518.5C 295.804,517.196 296.971,516.529 298.5,516.5C 300.449,517.707 301.949,519.373 303,521.5C 305.612,528.278 307.112,535.278 307.5,542.5 Z"/></g>
<g><path style="opacity:1" fill="#b19f91" d="M 231.5,571.5 C 232.102,577.024 231.102,582.19 228.5,587C 227.167,587.667 225.833,587.667 224.5,587C 221.707,583.919 219.54,580.419 218,576.5C 216.057,570.672 213.724,565.005 211,559.5C 209.629,557.959 208.129,556.625 206.5,555.5C 206.884,551.414 207.717,547.414 209,543.5C 211.54,542.124 213.54,542.79 215,545.5C 218.634,552.71 221.967,560.043 225,567.5C 226.571,569.923 228.737,571.256 231.5,571.5 Z"/></g>
<g><path style="opacity:1" fill="#b4a294" d="M 418.5,512.5 C 419.75,512.577 420.583,513.244 421,514.5C 421.838,517.852 422.671,521.185 423.5,524.5C 418.709,542.7 412.542,560.7 405,578.5C 403.333,581.167 401.667,581.167 400,578.5C 398.205,573.988 397.039,569.321 396.5,564.5C 395.178,564.67 394.011,564.337 393,563.5C 392.381,560.968 391.381,558.635 390,556.5C 385.05,564.333 381.05,572.666 378,581.5C 376.654,584.179 374.654,586.179 372,587.5C 370.013,586.846 368.68,585.513 368,583.5C 367.824,579.312 367.324,575.312 366.5,571.5C 368.304,570.619 369.804,569.286 371,567.5C 374.206,561.696 376.706,555.696 378.5,549.5C 381.348,542.155 384.514,534.822 388,527.5C 390.539,523.624 392.872,523.624 395,527.5C 396.034,534.342 397.701,541.008 400,547.5C 401.494,548.747 402.994,548.747 404.5,547.5C 409.576,535.927 414.243,524.26 418.5,512.5 Z"/></g>
</svg>
