<?xml version="1.0" encoding="UTF-8"?>
<!DOCTYPE svg PUBLIC "-//W3C//DTD SVG 1.1//EN" "http://www.w3.org/Graphics/SVG/1.1/DTD/svg11.dtd">
<svg xmlns="http://www.w3.org/2000/svg" version="1.1" width="600px" height="600px" style="shape-rendering:geometricPrecision; text-rendering:geometricPrecision; image-rendering:optimizeQuality; fill-rule:evenodd; clip-rule:evenodd" xmlns:xlink="http://www.w3.org/1999/xlink">
<g><path style="opacity:0.948" fill="#020202" d="M 599.5,335.5 C 599.5,336.5 599.5,337.5 599.5,338.5C 597.933,342.698 596.433,347.031 595,351.5C 595.961,362.651 593.627,372.985 588,382.5C 580.477,387.519 574.81,394.186 571,402.5C 565.727,409.054 558.894,412.888 550.5,414C 535.688,418.453 520.688,422.12 505.5,425C 503.793,428.248 501.96,431.415 500,434.5C 494.554,440.215 488.554,445.215 482,449.5C 476.892,465.774 466.059,476.107 449.5,480.5C 443.84,490.33 435.84,497.496 425.5,502C 420.552,503.256 415.552,504.256 410.5,505C 406.868,507.63 403.535,510.63 400.5,514C 389.911,519.719 378.577,522.385 366.5,522C 357.831,528.9 348.498,532.4 338.5,532.5C 333.375,531.26 328.208,530.26 323,529.5C 315.091,532.411 306.924,534.411 298.5,535.5C 290.076,534.411 281.909,532.411 274,529.5C 258.057,534.224 243.557,531.391 230.5,521C 212.661,523.389 197.994,517.723 186.5,504C 176.133,503.434 166.8,500.101 158.5,494C 154.955,489.077 151.288,484.244 147.5,479.5C 130.967,475.134 120.134,464.8 115,448.5C 107.255,443.447 100.255,437.447 94,430.5C 93.1628,428.649 92.3295,426.816 91.5,425C 74.8333,420.667 58.1667,416.333 41.5,412C 31.6324,407.795 24.7991,400.628 21,390.5C 18.2141,387.112 14.8807,384.446 11,382.5C 9.41378,380.33 8.08044,377.996 7,375.5C 5.02626,366.958 4.02626,358.292 4,349.5C 1.66141,345.313 0.494743,340.813 0.5,336C 1.49465,327.856 3.66132,320.023 7,312.5C 7.14305,304.771 7.80972,297.105 9,289.5C 13.0801,281.671 17.4135,274.004 22,266.5C 22.9218,259.808 24.9218,253.475 28,247.5C 33.2841,239.881 38.9508,232.548 45,225.5C 46.4376,216.456 50.6043,208.956 57.5,203C 63.9592,198.21 70.1259,193.043 76,187.5C 79.3437,176.823 86.177,169.323 96.5,165C 102.088,157.41 108.921,151.244 117,146.5C 121.193,130.307 131.36,120.14 147.5,116C 150.719,112.448 153.552,108.615 156,104.5C 164.678,94.912 175.511,89.7453 188.5,89C 199.163,75.3293 213.163,69.6626 230.5,72C 243.788,61.1369 258.622,58.3035 275,63.5C 279.299,62.4368 283.466,60.9368 287.5,59C 293.097,57.5439 298.763,57.2106 304.5,58C 310.427,59.6428 316.26,61.4761 322,63.5C 338.147,58.1641 352.647,60.9975 365.5,72C 383.131,69.644 397.465,75.3107 408.5,89C 421.508,89.7553 432.341,94.9219 441,104.5C 443.448,108.615 446.281,112.448 449.5,116C 466.408,120.575 476.908,131.408 481,148.5C 487.876,151.856 493.71,156.523 498.5,162.5C 506.927,166.623 514.094,172.29 520,179.5C 520.803,182.244 521.803,184.911 523,187.5C 528.542,192.711 534.375,197.544 540.5,202C 544.036,205.201 547.203,208.701 550,212.5C 551.363,217.289 553.029,221.956 555,226.5C 563.266,235.433 569.933,245.433 575,256.5C 575.882,259.789 576.548,263.123 577,266.5C 584.177,276.355 589.344,287.188 592.5,299C 591.428,303.124 591.262,307.29 592,311.5C 594.845,319.527 597.345,327.527 599.5,335.5 Z"/></g>
<g><path style="opacity:1" fill="#f5f5f5" d="M 491.5,170.5 C 493.566,176.674 495.066,183.008 496,189.5C 499.251,194.755 503.251,199.422 508,203.5C 509,205.5 510,207.5 511,209.5C 512.225,216.755 512.892,224.089 513,231.5C 516.333,237.5 519.667,243.5 523,249.5C 523.564,252.155 524.064,254.821 524.5,257.5C 523.661,263.033 522.661,268.533 521.5,274C 524.555,281.612 526.888,289.446 528.5,297.5C 527.205,305.544 525.205,313.377 522.5,321C 523.122,325.202 523.955,329.368 525,333.5C 526.098,339.847 525.098,345.847 522,351.5C 518.918,354.659 516.584,358.325 515,362.5C 514.667,369.5 514.333,376.5 514,383.5C 513.027,386.779 511.527,389.779 509.5,392.5C 518.457,394.823 527.457,396.989 536.5,399C 540.264,399.852 543.597,401.352 546.5,403.5C 533.442,408.139 519.942,411.473 506,413.5C 503.363,413.343 500.863,412.677 498.5,411.5C 496.881,417.513 494.381,423.179 491,428.5C 486.203,433.23 480.87,437.23 475,440.5C 472,446.5 469,452.5 466,458.5C 463.795,461.04 461.295,463.207 458.5,465C 453.084,467.139 447.751,469.472 442.5,472C 438.789,478.403 434.122,484.07 428.5,489C 421.455,492.01 414.122,494.01 406.5,495C 401.58,497.916 397.247,501.582 393.5,506C 390.583,507.528 387.583,508.861 384.5,510C 378.167,510.333 371.833,510.667 365.5,511C 358.833,514.333 352.167,517.667 345.5,521C 341.167,521.667 336.833,521.667 332.5,521C 329.1,519.715 325.6,518.881 322,518.5C 314.362,521.322 306.529,523.655 298.5,525.5C 290.414,523.865 282.581,521.532 275,518.5C 271.048,518.78 267.215,519.613 263.5,521C 257.638,521.952 251.972,521.285 246.5,519C 242.431,515.937 238.098,513.27 233.5,511C 226.5,510.667 219.5,510.333 212.5,510C 208.888,508.861 205.554,507.194 202.5,505C 199.133,501.297 195.466,497.964 191.5,495C 183.992,493.549 176.659,491.549 169.5,489C 167.04,487.542 164.873,485.709 163,483.5C 160.44,478.884 157.273,474.718 153.5,471C 146.025,468.68 139.192,465.18 133,460.5C 129.054,455.008 126.054,449.008 124,442.5C 116.628,436.974 109.628,430.974 103,424.5C 101.394,420.969 100.228,417.302 99.5,413.5C 88.7622,413.727 78.4288,411.727 68.5,407.5C 69.6534,405.193 70.8201,402.86 72,400.5C 76.2334,396.593 80.7334,393.093 85.5,390C 81.4501,381.536 80.2834,372.703 82,363.5C 78.3969,357.293 75.0636,350.96 72,344.5C 71.3333,340.5 71.3333,336.5 72,332.5C 73.0711,328.716 73.9045,324.882 74.5,321C 71.9008,313.475 69.9008,305.808 68.5,298C 68.5818,294.765 69.0818,291.598 70,288.5C 75.8283,280.367 76.8283,271.7 73,262.5C 72.3333,259.167 72.3333,255.833 73,252.5C 76.2163,244.948 79.8829,237.615 84,230.5C 84.6814,226.798 84.5148,223.131 83.5,219.5C 83.9476,212.318 86.4476,205.985 91,200.5C 94.6667,198.167 97.6667,195.167 100,191.5C 101.639,185.178 103.139,178.844 104.5,172.5C 106.28,169.546 108.28,166.713 110.5,164C 115.776,161.112 120.609,157.612 125,153.5C 128.833,137.667 138.667,127.833 154.5,124C 159.368,117.256 164.702,110.923 170.5,105C 176.366,101.617 182.699,99.95 189.5,100C 195.458,95.711 201.124,91.0443 206.5,86C 208.717,84.7246 211.051,83.7246 213.5,83C 220.167,82.6667 226.833,82.3333 233.5,82C 239.5,78.6667 245.5,75.3333 251.5,72C 261.51,72.2028 271.51,72.5362 281.5,73C 292.789,65.7918 304.122,65.7918 315.5,73C 324.843,72.7971 334.177,72.4638 343.5,72C 347.049,72.7736 350.382,74.107 353.5,76C 356.228,78.3922 359.228,80.3922 362.5,82C 379.222,79.6822 392.889,85.0155 403.5,98C 411.231,100.081 418.897,102.414 426.5,105C 427.729,106.529 429.229,107.696 431,108.5C 434.468,113.934 438.301,119.101 442.5,124C 458.027,127.527 467.527,137.027 471,152.5C 474.358,156.759 478.525,159.926 483.5,162C 486.371,164.703 489.038,167.536 491.5,170.5 Z"/></g>
<g><path style="opacity:1" fill="#f1f1f1" d="M 491.5,170.5 C 498.25,173.962 504.417,178.296 510,183.5C 511.623,187.71 513.623,191.71 516,195.5C 524.296,202.127 532.296,209.127 540,216.5C 541.594,222.445 543.927,228.112 547,233.5C 554.162,240.996 560.162,249.329 565,258.5C 565.26,262.25 565.927,265.916 567,269.5C 571.92,277.672 576.587,286.005 581,294.5C 581.622,298.029 581.455,301.529 580.5,305C 581.054,307.824 581.554,310.657 582,313.5C 584.782,320.844 586.949,328.344 588.5,336C 588.344,339.817 587.178,343.317 585,346.5C 584.776,354.543 584.109,362.543 583,370.5C 582.333,371.833 581.667,373.167 581,374.5C 578,376.833 575,379.167 572,381.5C 568.111,388.11 563.611,394.277 558.5,400C 554.715,401.908 550.715,403.075 546.5,403.5C 543.597,401.352 540.264,399.852 536.5,399C 527.457,396.989 518.457,394.823 509.5,392.5C 511.527,389.779 513.027,386.779 514,383.5C 514.333,376.5 514.667,369.5 515,362.5C 516.584,358.325 518.918,354.659 522,351.5C 525.098,345.847 526.098,339.847 525,333.5C 523.955,329.368 523.122,325.202 522.5,321C 525.205,313.377 527.205,305.544 528.5,297.5C 526.888,289.446 524.555,281.612 521.5,274C 522.661,268.533 523.661,263.033 524.5,257.5C 524.064,254.821 523.564,252.155 523,249.5C 519.667,243.5 516.333,237.5 513,231.5C 512.892,224.089 512.225,216.755 511,209.5C 510,207.5 509,205.5 508,203.5C 503.251,199.422 499.251,194.755 496,189.5C 495.066,183.008 493.566,176.674 491.5,170.5 Z"/></g>
<g><path style="opacity:1" fill="#f0f0f0" d="M 104.5,172.5 C 103.139,178.844 101.639,185.178 100,191.5C 97.6667,195.167 94.6667,198.167 91,200.5C 86.4476,205.985 83.9476,212.318 83.5,219.5C 84.5148,223.131 84.6814,226.798 84,230.5C 79.8829,237.615 76.2163,244.948 73,252.5C 72.3333,255.833 72.3333,259.167 73,262.5C 76.8283,271.7 75.8283,280.367 70,288.5C 69.0818,291.598 68.5818,294.765 68.5,298C 69.9008,305.808 71.9008,313.475 74.5,321C 73.9045,324.882 73.0711,328.716 72,332.5C 71.3333,336.5 71.3333,340.5 72,344.5C 75.0636,350.96 78.3969,357.293 82,363.5C 80.2834,372.703 81.4501,381.536 85.5,390C 80.7334,393.093 76.2334,396.593 72,400.5C 70.8201,402.86 69.6534,405.193 68.5,407.5C 60.2108,405.511 51.8774,403.678 43.5,402C 36.8727,396.701 31.7061,390.201 28,382.5C 24.8492,379.593 21.5159,376.926 18,374.5C 15.2205,365.057 13.8872,355.39 14,345.5C 10.8141,341.702 9.81413,337.368 11,332.5C 14.5196,323.608 17.0196,314.442 18.5,305C 17.6674,301.516 17.5007,298.016 18,294.5C 22.4132,286.005 27.0799,277.672 32,269.5C 32.7687,264.324 34.102,259.324 36,254.5C 42,246.5 48,238.5 54,230.5C 55.5427,225.78 57.2094,221.113 59,216.5C 67.0367,208.795 75.37,201.461 84,194.5C 87.229,183.772 94.0623,176.439 104.5,172.5 Z"/></g>
<g><path style="opacity:1" fill="#38302c" d="M 230.5,270.5 C 243.935,268.213 253.268,273.213 258.5,285.5C 257.323,287.975 255.323,288.975 252.5,288.5C 253.501,282 250.835,279.5 244.5,281C 241.657,284.619 241.99,287.952 245.5,291C 235.743,294.418 226.076,297.918 216.5,301.5C 212.351,286.881 217.017,276.547 230.5,270.5 Z"/></g>
<g><path style="opacity:1" fill="#3b332f" d="M 352.5,270.5 C 371.657,268.8 381.157,277.467 381,296.5C 380.138,298.087 379.471,299.754 379,301.5C 365.904,294.602 352.071,289.936 337.5,287.5C 339.354,278.983 344.354,273.316 352.5,270.5 Z"/></g>
<g><path style="opacity:1" fill="#edecec" d="M 366.5,280.5 C 373.524,280.489 375.524,283.489 372.5,289.5C 364.415,290.86 362.415,287.86 366.5,280.5 Z"/></g>
<g><path style="opacity:1" fill="#322a28" d="M 300.5,393.5 C 298.833,394.833 297.167,394.833 295.5,393.5C 286.514,392.841 278.514,389.675 271.5,384C 262.697,376.558 260.197,367.391 264,356.5C 268.21,350.305 274.043,346.471 281.5,345C 296.329,342.054 310.662,343.387 324.5,349C 334.312,356.793 336.145,366.293 330,377.5C 322.225,386.637 312.392,391.97 300.5,393.5 Z"/></g>
<g><path style="opacity:1" fill="#3d3531" d="M 295.5,393.5 C 297.167,394.833 298.833,394.833 300.5,393.5C 300.759,400.039 303.926,404.372 310,406.5C 318.024,405.698 326.024,404.698 334,403.5C 340.873,403.435 345.873,406.435 349,412.5C 351.568,416.612 353.235,420.945 354,425.5C 352.951,426.517 351.784,426.684 350.5,426C 348.451,423.404 346.785,420.571 345.5,417.5C 343.5,415.833 341.5,414.167 339.5,412.5C 338.908,439.745 325.074,453.412 298,453.5C 270.53,453.029 256.863,439.029 257,411.5C 251.388,415.11 247.222,419.943 244.5,426C 243.552,426.483 242.552,426.649 241.5,426.5C 242.726,419.212 245.726,412.712 250.5,407C 253.449,405.239 256.616,404.072 260,403.5C 269.14,404.964 278.307,405.798 287.5,406C 292.785,403.542 295.451,399.375 295.5,393.5 Z"/></g>
<g><path style="opacity:1" fill="#d93e8c" d="M 330.5,412.5 C 331.479,415.625 331.813,418.958 331.5,422.5C 329.556,436.613 321.556,445.113 307.5,448C 296.74,449.56 286.407,448.227 276.5,444C 266.244,436.091 261.911,425.591 263.5,412.5C 274.725,414.653 286.059,415.986 297.5,416.5C 308.62,416.068 319.62,414.735 330.5,412.5 Z"/></g>
<g><path style="opacity:1" fill="#823455" d="M 330.5,412.5 C 330.56,411.957 330.893,411.624 331.5,411.5C 332.808,415.315 332.808,418.981 331.5,422.5C 331.813,418.958 331.479,415.625 330.5,412.5 Z"/></g>
</svg>
