<?xml version="1.0" encoding="UTF-8"?>
<!DOCTYPE svg PUBLIC "-//W3C//DTD SVG 1.1//EN" "http://www.w3.org/Graphics/SVG/1.1/DTD/svg11.dtd">
<svg xmlns="http://www.w3.org/2000/svg" version="1.1" width="600px" height="600px" style="shape-rendering:geometricPrecision; text-rendering:geometricPrecision; image-rendering:optimizeQuality; fill-rule:evenodd; clip-rule:evenodd" xmlns:xlink="http://www.w3.org/1999/xlink">
<g><path style="opacity:0.961" fill="#020202" d="M 335.5,64.5 C 338.898,64.1796 342.232,64.513 345.5,65.5C 343.684,66.8149 342.017,68.3149 340.5,70C 344.078,71.7167 347.911,72.55 352,72.5C 363.835,71.2888 375.668,71.2888 387.5,72.5C 386.019,73.4803 384.685,74.647 383.5,76C 387.281,80.1552 391.948,82.8219 397.5,84C 433.421,85.731 467.087,95.3977 498.5,113C 512.336,121.417 526.002,130.084 539.5,139C 543.633,142.131 547.466,145.631 551,149.5C 555.456,155.625 560.289,161.458 565.5,167C 575.558,173.058 584.391,180.558 592,189.5C 594.643,194.986 593.643,199.653 589,203.5C 587.448,205.768 586.615,208.268 586.5,211C 591.649,225.73 593.816,240.897 593,256.5C 589.47,259.414 586.47,262.748 584,266.5C 583.401,271.02 583.568,275.52 584.5,280C 584.369,282.253 583.869,284.419 583,286.5C 579.333,290.833 575.667,295.167 572,299.5C 568.763,304.368 567.596,309.535 568.5,315C 567.021,328.488 559.688,337.155 546.5,341C 535.934,344.247 526.267,342.58 517.5,336C 512.3,331.135 507.467,325.968 503,320.5C 501.234,328.83 499.4,337.164 497.5,345.5C 494.518,346.332 491.518,346.499 488.5,346C 492.989,349.471 494.822,353.971 494,359.5C 489.21,376.709 482.376,393.042 473.5,408.5C 477.192,420.799 477.358,433.132 474,445.5C 472.466,452.387 468.299,455.22 461.5,454C 458.112,451.214 455.446,447.881 453.5,444C 451.899,443.727 450.399,443.227 449,442.5C 448.667,442.833 448.333,443.167 448,443.5C 448.195,450.651 448.695,457.818 449.5,465C 449.381,469.308 448.548,473.475 447,477.5C 434.856,494.647 419.856,508.647 402,519.5C 400.739,519.241 399.739,518.574 399,517.5C 397.641,512.062 395.974,506.728 394,501.5C 392.687,500.427 391.187,499.76 389.5,499.5C 385.406,502.808 381.406,506.308 377.5,510C 353.518,522.383 328.185,530.883 301.5,535.5C 274.825,530.886 249.492,522.386 225.5,510C 221.274,506.598 217.274,503.098 213.5,499.5C 211.303,499.848 209.47,500.848 208,502.5C 206.794,507.531 205.46,512.531 204,517.5C 203.261,518.574 202.261,519.241 201,519.5C 194.636,516.468 188.802,512.635 183.5,508C 172.51,498.352 163.01,487.518 155,475.5C 154.044,472.07 153.544,468.57 153.5,465C 154.305,458.841 154.472,452.674 154,446.5C 152.981,445.313 151.814,444.313 150.5,443.5C 139.814,459.302 131.981,457.969 127,439.5C 126.558,430.146 126.558,420.812 127,411.5C 117.473,395.11 110.139,377.777 105,359.5C 103.999,353.494 105.833,348.494 110.5,344.5C 107.802,345.404 104.802,345.404 101.5,344.5C 99.4748,335.874 97.6415,327.208 96,318.5C 89.9434,327.231 82.11,333.731 72.5,338C 55.4216,341.707 42.2549,336.207 33,321.5C 31.8613,315.564 31.1946,309.564 31,303.5C 30.5291,301.754 29.8624,300.087 29,298.5C 24.2879,293.457 19.9546,288.123 16,282.5C 15.8199,276.157 15.8199,269.824 16,263.5C 13.313,259.817 10.313,256.483 7,253.5C 5.77704,237.668 7.9437,222.335 13.5,207.5C 11.637,202.803 9.13702,198.469 6,194.5C 5.91862,188.161 8.41862,182.994 13.5,179C 19.5521,173.947 25.8854,169.281 32.5,165C 38.8312,159.149 44.3312,152.649 49,145.5C 83.8019,115.68 123.635,95.1797 168.5,84C 181.807,82.8897 195.141,82.223 208.5,82C 210.286,81.2155 211.786,80.0488 213,78.5C 213.507,77.0039 213.007,75.8373 211.5,75C 211.833,74.6667 212.167,74.3333 212.5,74C 223.167,73.6667 233.833,73.3333 244.5,73C 245.308,72.6924 245.975,72.1924 246.5,71.5C 244.585,69.9288 243.585,67.9288 243.5,65.5C 260.484,67.0625 277.318,69.7292 294,73.5C 308.078,71.0179 321.912,68.0179 335.5,64.5 Z"/></g>
<g><path style="opacity:1" fill="#d8c6b2" d="M 451.5,104.5 C 452.29,105.794 453.29,106.961 454.5,108C 450.514,108.499 446.514,108.666 442.5,108.5C 442.081,111.325 443.081,113.491 445.5,115C 460.325,122.576 474.658,130.909 488.5,140C 493.682,143.662 497.016,148.495 498.5,154.5C 494.785,154.68 491.118,154.346 487.5,153.5C 484.796,153.67 483.129,155.003 482.5,157.5C 487.331,167.828 492.164,178.162 497,188.5C 500.798,197.227 503.798,206.227 506,215.5C 506.667,218.5 506.667,221.5 506,224.5C 505.5,225.667 504.667,226.5 503.5,227C 507.126,252.394 507.459,277.894 504.5,303.5C 504.444,305.64 503.777,307.306 502.5,308.5C 499.108,308.717 496.275,310.051 494,312.5C 491.928,318.994 490.595,325.66 490,332.5C 478.031,333.141 474.031,339.141 478,350.5C 480.438,352.429 482.272,354.762 483.5,357.5C 480.349,369.286 476.016,380.619 470.5,391.5C 469.5,392.833 468.5,392.833 467.5,391.5C 466.123,384.518 462.956,378.518 458,373.5C 457.202,371.741 457.369,370.074 458.5,368.5C 460.336,369.028 462.003,369.694 463.5,370.5C 464.919,371.451 466.585,371.784 468.5,371.5C 468.884,367.511 468.217,363.845 466.5,360.5C 462.227,350.269 456.227,341.269 448.5,333.5C 448.709,332.914 449.043,332.414 449.5,332C 451.473,331.505 453.473,331.338 455.5,331.5C 457.607,332.468 459.941,332.802 462.5,332.5C 462.737,331.209 462.404,330.209 461.5,329.5C 452.456,322.864 442.456,318.031 431.5,315C 414.934,293.882 393.267,281.882 366.5,279C 356.321,278.378 346.988,277.211 338.5,275.5C 338.12,273.302 338.787,271.635 340.5,270.5C 342.104,269.713 342.771,268.38 342.5,266.5C 340.585,266.216 338.919,266.549 337.5,267.5C 330.042,270.542 322.376,273.209 314.5,275.5C 309.459,272.979 304.459,270.479 299.5,268C 295.278,266.792 292.611,268.292 291.5,272.5C 290.126,273.711 288.626,274.711 287,275.5C 279.993,273.112 273.16,270.445 266.5,267.5C 264.712,266.378 262.712,266.211 260.5,267C 259.748,267.671 259.414,268.504 259.5,269.5C 258.566,270.568 258.232,271.901 258.5,273.5C 255.833,273.5 253.167,273.5 250.5,273.5C 250.285,275.179 250.952,276.179 252.5,276.5C 242.762,278.766 232.762,280.266 222.5,281C 213.602,284.115 204.936,287.782 196.5,292C 194.874,294.628 192.874,296.961 190.5,299C 182.199,302.648 175.199,307.981 169.5,315C 160.447,317.402 151.78,320.735 143.5,325C 142.364,326.145 141.364,327.312 140.5,328.5C 138.896,329.287 138.229,330.62 138.5,332.5C 141.709,332.589 144.875,332.256 148,331.5C 149.699,331.387 150.866,332.053 151.5,333.5C 144.586,341.649 138.92,350.649 134.5,360.5C 132.783,363.845 132.116,367.511 132.5,371.5C 134.099,371.768 135.432,371.434 136.5,370.5C 139.329,368.022 142.662,367.022 146.5,367.5C 146.657,368.873 146.49,370.207 146,371.5C 140.827,379.843 136.16,388.509 132,397.5C 124.525,384.549 118.692,370.882 114.5,356.5C 119.65,351.549 121.483,345.549 120,338.5C 117.487,334.827 113.987,333.161 109.5,333.5C 108.649,326.011 107.149,318.678 105,311.5C 103.054,308.45 100.221,306.783 96.5,306.5C 94.78,304.342 93.9467,301.675 94,298.5C 91.6335,274.595 92.1335,250.762 95.5,227C 95.3304,224.473 94.3304,223.973 92.5,225.5C 90.0816,224.271 89.0816,222.271 89.5,219.5C 90.3916,211.934 92.2249,204.6 95,197.5C 100.762,183.477 106.928,169.644 113.5,156C 113.588,153.256 112.255,152.09 109.5,152.5C 105.535,153.274 101.535,153.607 97.5,153.5C 97.6079,151.217 98.4412,149.217 100,147.5C 104.199,142.966 108.699,138.799 113.5,135C 126.662,127.92 139.662,120.587 152.5,113C 155.476,107.807 153.809,105.641 147.5,106.5C 147.351,105.448 147.517,104.448 148,103.5C 149.667,102.267 151.167,100.933 152.5,99.5C 158.045,97.3741 163.712,95.5408 169.5,94C 182.167,93.6667 194.833,93.3333 207.5,93C 213.304,91.936 217.971,89.1027 221.5,84.5C 229.479,83.6684 237.479,83.1684 245.5,83C 250.439,82.6953 254.273,80.5287 257,76.5C 269.551,79.4768 282.217,81.8102 295,83.5C 306.864,81.3605 318.697,79.0272 330.5,76.5C 333.851,78.8423 337.518,80.6757 341.5,82C 352.864,82.1332 364.197,82.2998 375.5,82.5C 380.531,88.3547 386.865,92.1881 394.5,94C 414.257,93.8358 433.257,97.3358 451.5,104.5 Z"/></g>
<g><path style="opacity:1" fill="#2b2b2b" d="M 152.5,99.5 C 151.167,100.933 149.667,102.267 148,103.5C 147.517,104.448 147.351,105.448 147.5,106.5C 153.809,105.641 155.476,107.807 152.5,113C 139.662,120.587 126.662,127.92 113.5,135C 108.699,138.799 104.199,142.966 100,147.5C 98.4412,149.217 97.6079,151.217 97.5,153.5C 101.535,153.607 105.535,153.274 109.5,152.5C 112.255,152.09 113.588,153.256 113.5,156C 106.928,169.644 100.762,183.477 95,197.5C 92.2249,204.6 90.3916,211.934 89.5,219.5C 89.0816,222.271 90.0816,224.271 92.5,225.5C 94.3304,223.973 95.3304,224.473 95.5,227C 92.1335,250.762 91.6335,274.595 94,298.5C 93.9467,301.675 94.78,304.342 96.5,306.5C 95.0484,307.302 93.3817,307.802 91.5,308C 86.8665,313.635 81.8665,318.968 76.5,324C 63.8191,331.462 52.6524,329.629 43,318.5C 44.0643,307.419 41.3976,297.419 35,288.5C 31.6298,285.465 28.6298,282.132 26,278.5C 25.7595,274.61 26.2595,270.777 27.5,267C 27.0788,264.815 26.5788,262.649 26,260.5C 23.3871,255.4 20.2204,250.733 16.5,246.5C 17.1554,239.146 17.9888,231.812 19,224.5C 23.3634,216.525 24.3634,208.191 22,199.5C 20.9392,196.438 19.1059,193.938 16.5,192C 23.1658,184.494 30.8325,178.161 39.5,173C 46.4,167.004 52.2333,160.17 57,152.5C 85.1629,128.496 116.996,110.829 152.5,99.5 Z"/></g>
<g><path style="opacity:1" fill="#2b2b2b" d="M 451.5,104.5 C 466.426,109.201 480.759,115.367 494.5,123C 507.167,131 519.833,139 532.5,147C 536.633,150.131 540.466,153.631 544,157.5C 547.998,163.979 552.832,169.812 558.5,175C 567.319,180.735 575.319,187.401 582.5,195C 578.263,199.477 575.929,204.81 575.5,211C 577.098,217.556 578.931,224.056 581,230.5C 581.998,236.814 582.832,243.147 583.5,249.5C 580.206,253.644 577.039,257.978 574,262.5C 573.342,264.8 572.842,267.133 572.5,269.5C 573.465,273.809 573.631,278.143 573,282.5C 566.233,289.038 561.233,296.705 558,305.5C 559.052,325.438 549.552,333.938 529.5,331C 521.205,325.039 513.872,318.039 507.5,310C 505.618,309.802 503.952,309.302 502.5,308.5C 503.777,307.306 504.444,305.64 504.5,303.5C 507.459,277.894 507.126,252.394 503.5,227C 504.667,226.5 505.5,225.667 506,224.5C 506.667,221.5 506.667,218.5 506,215.5C 503.798,206.227 500.798,197.227 497,188.5C 492.164,178.162 487.331,167.828 482.5,157.5C 483.129,155.003 484.796,153.67 487.5,153.5C 491.118,154.346 494.785,154.68 498.5,154.5C 497.016,148.495 493.682,143.662 488.5,140C 474.658,130.909 460.325,122.576 445.5,115C 443.081,113.491 442.081,111.325 442.5,108.5C 446.514,108.666 450.514,108.499 454.5,108C 453.29,106.961 452.29,105.794 451.5,104.5 Z"/></g>
<g><path style="opacity:1" fill="#2c2b2b" d="M 211.5,219.5 C 207.091,222.367 203.091,225.701 199.5,229.5C 199.103,228.475 198.437,228.308 197.5,229C 190.135,236.03 183.135,243.364 176.5,251C 169.839,254.455 166.172,252.622 165.5,245.5C 167.634,234.732 172.301,225.232 179.5,217C 171.595,219.444 163.928,222.778 156.5,227C 153.833,227.667 151.167,227.667 148.5,227C 146.813,225.087 146.313,222.92 147,220.5C 158.533,206.803 172.7,196.636 189.5,190C 204.898,183.65 220.898,179.817 237.5,178.5C 244.948,178.37 251.448,180.704 257,185.5C 259,189.5 259,193.5 257,197.5C 246.73,202.381 236.23,206.881 225.5,211C 220.603,213.608 215.937,216.441 211.5,219.5 Z"/></g>
<g><path style="opacity:1" fill="#2c2b2b" d="M 402.5,230.5 C 398.102,225.771 393.102,221.771 387.5,218.5C 374.526,210.23 360.526,204.397 345.5,201C 339.975,198.081 338.142,193.581 340,187.5C 342.087,183.698 345.254,181.198 349.5,180C 383.929,178.365 414.596,188.365 441.5,210C 445.036,213.201 448.203,216.701 451,220.5C 451.687,222.92 451.187,225.087 449.5,227C 446.5,227.667 443.5,227.667 440.5,227C 434.623,223.721 428.623,221.055 422.5,219C 428.973,226.946 433.306,235.946 435.5,246C 435.511,250.325 433.345,252.825 429,253.5C 427.775,253.138 426.609,252.638 425.5,252C 418.667,243.833 411.167,236.333 403,229.5C 402.601,229.728 402.435,230.062 402.5,230.5 Z"/></g>
<g><path style="opacity:1" fill="#010101" d="M 199.5,229.5 C 203.091,225.701 207.091,222.367 211.5,219.5C 227.492,215.247 238.992,220.58 246,235.5C 249.524,255.634 241.19,266.967 221,269.5C 207.716,269.024 199.383,262.358 196,249.5C 194.648,242.34 195.814,235.673 199.5,229.5 Z"/></g>
<g><path style="opacity:1" fill="#010101" d="M 387.5,218.5 C 393.102,221.771 398.102,225.771 402.5,230.5C 410.152,248.707 404.819,261.54 386.5,269C 364.011,270.511 353.511,260.011 355,237.5C 360.461,222.018 371.295,215.685 387.5,218.5 Z"/></g>
<g><path style="opacity:1" fill="#e7e7e7" d="M 231.5,229.5 C 237.873,229.368 240.373,232.368 239,238.5C 233.585,243.884 229.752,242.884 227.5,235.5C 227.67,232.674 229.003,230.674 231.5,229.5 Z"/></g>
<g><path style="opacity:1" fill="#e8e8e8" d="M 390.5,229.5 C 396.873,229.368 399.373,232.368 398,238.5C 392.585,243.884 388.752,242.884 386.5,235.5C 386.67,232.674 388.003,230.674 390.5,229.5 Z"/></g>
<g><path style="opacity:1" fill="#655d54" d="M 266.5,267.5 C 263.812,267.166 261.479,267.832 259.5,269.5C 259.414,268.504 259.748,267.671 260.5,267C 262.712,266.211 264.712,266.378 266.5,267.5 Z"/></g>
<g><path style="opacity:1" fill="#70675d" d="M 337.5,267.5 C 338.919,266.549 340.585,266.216 342.5,266.5C 342.771,268.38 342.104,269.713 340.5,270.5C 340.414,269.504 340.748,268.671 341.5,268C 340.207,267.51 338.873,267.343 337.5,267.5 Z"/></g>
<g><path style="opacity:1" fill="#71675d" d="M 259.5,269.5 C 259.5,271.167 259.5,272.833 259.5,274.5C 256.813,274.336 254.146,274.503 251.5,275C 252.056,275.383 252.389,275.883 252.5,276.5C 250.952,276.179 250.285,275.179 250.5,273.5C 253.167,273.5 255.833,273.5 258.5,273.5C 258.232,271.901 258.566,270.568 259.5,269.5 Z"/></g>
<g><path style="opacity:1" fill="#2a2a2a" d="M 266.5,279.5 C 273.777,281.703 281.11,283.703 288.5,285.5C 290.167,285.333 291.833,285.167 293.5,285C 295.703,283.124 297.87,281.29 300,279.5C 309.648,287.088 319.648,287.422 330,280.5C 333.297,283.567 337.131,285.733 341.5,287C 364.145,287.328 385.478,292.661 405.5,303C 412.833,309 419.5,315.667 425.5,323C 430.531,324.777 435.198,327.11 439.5,330C 438.257,332.884 438.424,335.718 440,338.5C 444.748,344.994 449.248,351.661 453.5,358.5C 449.261,361.139 446.928,364.972 446.5,370C 451.781,381.4 456.948,392.9 462,404.5C 465.404,414.587 466.737,424.92 466,435.5C 465.529,437.246 464.862,438.913 464,440.5C 457.7,430.227 449.7,428.894 440,436.5C 438.04,439.884 437.207,443.55 437.5,447.5C 438.392,455.491 438.558,463.491 438,471.5C 429.059,483.942 418.559,494.942 406.5,504.5C 402.926,491.048 394.593,486.548 381.5,491C 375.97,498.189 368.97,503.522 360.5,507C 341.463,514.957 321.797,520.79 301.5,524.5C 276.092,520.42 252.092,512.253 229.5,500C 220.691,486.082 210.525,484.915 199,496.5C 198,499.167 197,501.833 196,504.5C 184.257,494.759 173.924,483.759 165,471.5C 164.922,460.831 164.922,450.164 165,439.5C 159.953,431.259 153.12,429.425 144.5,434C 142.318,436.578 140.151,438.412 138,439.5C 135.468,421.827 138.468,405.161 147,389.5C 151.285,382.935 154.452,375.935 156.5,368.5C 155.981,362.805 152.981,358.972 147.5,357C 151.633,350.567 156.133,344.401 161,338.5C 161.422,336.645 161.922,334.811 162.5,333C 161.767,331.234 161.433,329.401 161.5,327.5C 169.54,326.653 176.207,323.153 181.5,317C 189.353,312.817 196.353,307.484 202.5,301C 209.497,296.892 216.83,293.558 224.5,291C 235.576,290.204 246.576,288.871 257.5,287C 261.012,284.939 264.012,282.439 266.5,279.5 Z"/></g>
<g><path style="opacity:1" fill="#000000" d="M 289.5,318.5 C 306.26,316.794 322.26,319.294 337.5,326C 351.729,336.365 355.562,349.865 349,366.5C 343.448,376.386 335.614,383.886 325.5,389C 334.079,387.692 342.746,387.359 351.5,388C 358.046,390.018 363.213,393.852 367,399.5C 369.667,404.833 372.333,410.167 375,415.5C 376.313,427.852 370.813,433.019 358.5,431C 357.069,430.535 355.903,429.701 355,428.5C 348.187,447.815 334.687,458.981 314.5,462C 300.825,463.589 287.492,462.256 274.5,458C 261.358,451.528 252.525,441.361 248,427.5C 241.38,433.062 235.047,432.728 229,426.5C 226.4,419.303 227.4,412.636 232,406.5C 235.591,397.241 242.091,391.075 251.5,388C 253.833,387.833 256.167,387.667 258.5,387.5C 265.192,388.172 271.859,388.672 278.5,389C 266.524,383.025 258.024,373.858 253,361.5C 249.309,342.379 256.476,329.213 274.5,322C 279.596,320.64 284.596,319.474 289.5,318.5 Z"/></g>
<g><path style="opacity:1" fill="#4b453e" d="M 140.5,328.5 C 140.586,329.496 140.252,330.329 139.5,331C 143.484,330.814 147.484,330.814 151.5,331C 152.774,331.977 152.774,332.811 151.5,333.5C 150.866,332.053 149.699,331.387 148,331.5C 144.875,332.256 141.709,332.589 138.5,332.5C 138.229,330.62 138.896,329.287 140.5,328.5 Z"/></g>
<g><path style="opacity:1" fill="#6b6258" d="M 461.5,329.5 C 462.404,330.209 462.737,331.209 462.5,332.5C 459.941,332.802 457.607,332.468 455.5,331.5C 458.082,331.975 460.082,331.308 461.5,329.5 Z"/></g>
<g><path style="opacity:1" fill="#514a42" d="M 134.5,360.5 C 133.949,363.807 133.616,367.14 133.5,370.5C 134.5,370.5 135.5,370.5 136.5,370.5C 135.432,371.434 134.099,371.768 132.5,371.5C 132.116,367.511 132.783,363.845 134.5,360.5 Z"/></g>
<g><path style="opacity:1" fill="#534c45" d="M 466.5,360.5 C 468.217,363.845 468.884,367.511 468.5,371.5C 466.585,371.784 464.919,371.451 463.5,370.5C 464.833,370.5 466.167,370.5 467.5,370.5C 467.384,367.14 467.051,363.807 466.5,360.5 Z"/></g>
<g><path style="opacity:1" fill="#a55d7b" d="M 338.5,405.5 C 343.096,420.212 339.096,432.378 326.5,442C 313.101,447.863 299.267,449.03 285,445.5C 267.748,438.35 260.248,425.35 262.5,406.5C 269.873,407.341 277.206,408.507 284.5,410C 302.929,411.738 320.929,410.238 338.5,405.5 Z"/></g>
</svg>
