<?xml version="1.0" encoding="UTF-8"?>
<!DOCTYPE svg PUBLIC "-//W3C//DTD SVG 1.1//EN" "http://www.w3.org/Graphics/SVG/1.1/DTD/svg11.dtd">
<svg xmlns="http://www.w3.org/2000/svg" version="1.1" width="600px" height="600px" style="shape-rendering:geometricPrecision; text-rendering:geometricPrecision; image-rendering:optimizeQuality; fill-rule:evenodd; clip-rule:evenodd" xmlns:xlink="http://www.w3.org/1999/xlink">
<g><path style="opacity:0.969" fill="#030201" d="M 294.5,16.5 C 298.846,16.3343 303.179,16.501 307.5,17C 313.571,18.9561 319.738,20.4561 326,21.5C 334.1,19.8381 342.266,19.3381 350.5,20C 357.018,22.1729 363.351,24.8396 369.5,28C 376.5,28.3333 383.5,28.6667 390.5,29C 392.878,29.5112 395.212,30.1779 397.5,31C 402.328,34.5814 407.328,37.9148 412.5,41C 419.157,42.3325 425.824,43.6659 432.5,45C 438.395,47.561 443.061,51.561 446.5,57C 458.795,60.2267 469.295,66.3933 478,75.5C 479.787,79.5766 481.954,83.41 484.5,87C 491.739,89.5706 497.905,93.7373 503,99.5C 506.287,106.14 509.621,112.807 513,119.5C 516.613,122.623 519.946,125.956 523,129.5C 524.546,134.114 525.879,138.781 527,143.5C 536.953,153.071 542.953,164.738 545,178.5C 550.937,189.375 556.604,200.375 562,211.5C 564.242,220.195 566.575,228.862 569,237.5C 573.39,246.669 577.39,256.003 581,265.5C 582.088,273.813 583.088,282.146 584,290.5C 588.036,303.475 591.202,316.642 593.5,330C 592.923,347.49 592.757,364.99 593,382.5C 590.565,385.934 588.565,389.6 587,393.5C 585.254,401.565 583.254,409.565 581,417.5C 578.993,422.838 575.159,426.004 569.5,427C 560.626,434.187 550.793,439.687 540,443.5C 529.872,438.679 519.372,434.846 508.5,432C 503.551,430.026 499.551,426.86 496.5,422.5C 494.527,425.64 492.36,428.64 490,431.5C 489.799,438.77 487.966,445.603 484.5,452C 486.544,456.663 487.377,461.497 487,466.5C 485.166,471.662 482.499,476.328 479,480.5C 479.555,488.109 477.888,495.109 474,501.5C 470.703,503.795 467.703,506.462 465,509.5C 463.684,521.15 457.517,528.983 446.5,533C 442.743,538.512 438.743,543.846 434.5,549C 428.833,551.333 423.167,553.667 417.5,556C 414.508,559.992 411.174,563.658 407.5,567C 400.999,569.301 394.332,570.967 387.5,572C 378.02,581.048 366.687,584.715 353.5,583C 349.317,585.257 344.984,587.257 340.5,589C 333.565,589.85 326.732,589.35 320,587.5C 313.497,589.778 306.83,591.445 300,592.5C 293.427,591.143 286.927,589.476 280.5,587.5C 268.75,591.303 257.75,589.803 247.5,583C 240.437,582.84 233.437,582.173 226.5,581C 221.167,577.667 215.833,574.333 210.5,571C 203.742,570.85 197.409,569.183 191.5,566C 187.797,562.633 184.464,558.966 181.5,555C 168.79,553.248 160.29,546.415 156,534.5C 152.41,531.954 148.577,529.787 144.5,528C 139.384,523.341 136.551,517.508 136,510.5C 132.419,506.85 128.752,503.184 125,499.5C 124.333,498.167 123.667,496.833 123,495.5C 122.667,490.833 122.333,486.167 122,481.5C 118.905,477.411 116.239,473.077 114,468.5C 113.703,461.759 114.037,455.093 115,448.5C 111.112,442.291 109.779,435.624 111,428.5C 109.333,426.167 107.667,423.833 106,421.5C 103.26,425.958 99.4267,429.125 94.5,431C 84.5328,433.878 74.8662,437.545 65.5,442C 63.1667,442.667 60.8333,442.667 58.5,442C 56.2827,440.725 53.9494,439.725 51.5,439C 42.2557,432.46 32.7557,426.293 23,420.5C 19.7495,410.253 16.7495,399.92 14,389.5C 9.62003,384.158 7.7867,377.991 8.5,371C 9.08381,361.828 9.75048,352.661 10.5,343.5C 9.64471,336.175 9.47804,328.842 10,321.5C 12.3557,312.077 15.0224,302.744 18,293.5C 19.6635,283.87 20.9968,274.203 22,264.5C 26.3333,254.5 30.6667,244.5 35,234.5C 36.7021,225.653 39.0354,216.986 42,208.5C 47.3333,198.5 52.6667,188.5 58,178.5C 60.0437,164.745 66.0437,153.078 76,143.5C 76.9672,138.738 78.3006,134.071 80,129.5C 82.6667,125.5 86,122.167 90,119.5C 93.3333,112.833 96.6667,106.167 100,99.5C 105.043,93.7243 111.21,89.5576 118.5,87C 121.629,83.2478 124.129,79.0812 126,74.5C 134.206,66.8122 143.706,61.3122 154.5,58C 158.964,52.5302 164.297,48.1969 170.5,45C 177.146,43.5034 183.813,42.1701 190.5,41C 194.447,38.7202 198.113,36.0535 201.5,33C 204.948,31.0728 208.615,29.7394 212.5,29C 219.5,28.6667 226.5,28.3333 233.5,28C 239.467,24.5177 245.801,21.8511 252.5,20C 260.57,19.3145 268.57,19.8145 276.5,21.5C 282.818,20.6109 288.818,18.9443 294.5,16.5 Z"/></g>
<g><path style="opacity:1" fill="#e9cc8f" d="M 541.5,195.5 C 542.523,203.032 540.857,210.032 536.5,216.5C 536.082,220.372 536.749,224.205 538.5,228C 538.462,232.009 538.295,236.176 538,240.5C 535.059,245.772 531.726,250.772 528,255.5C 527.667,260.833 527.333,266.167 527,271.5C 526,273.5 525,275.5 524,277.5C 519.667,281.167 515.333,284.833 511,288.5C 508.78,292.595 508.113,296.928 509,301.5C 510.872,306.156 512.039,310.989 512.5,316C 511.083,325.155 509.083,334.155 506.5,343C 507.77,349.454 508.77,355.954 509.5,362.5C 509.244,366.947 508.411,371.28 507,375.5C 500.487,386.629 497.321,398.629 497.5,411.5C 494.689,411.826 492.022,412.659 489.5,414C 488,416.167 486.5,418.333 485,420.5C 486.347,414.296 486.681,407.963 486,401.5C 483.333,397.5 480.667,393.5 478,389.5C 477.667,384.833 477.333,380.167 477,375.5C 475.92,373.004 474.586,370.67 473,368.5C 465.434,364.044 461.434,357.378 461,348.5C 459.542,346.04 457.709,343.873 455.5,342C 447.974,339.807 443.14,334.974 441,327.5C 439.207,324.705 437.04,322.205 434.5,320C 429.553,317.848 424.553,315.848 419.5,314C 418.29,312.961 417.29,311.794 416.5,310.5C 438.458,299.289 444.792,282.289 435.5,259.5C 436.251,258.427 437.251,258.26 438.5,259C 452.112,266.387 465.612,273.887 479,281.5C 482.909,279.758 485.075,276.758 485.5,272.5C 484.556,268.611 483.056,264.944 481,261.5C 453.745,227.451 418.578,206.617 375.5,199C 364.887,197.209 354.887,198.876 345.5,204C 336.332,211.519 334.165,220.685 339,231.5C 340.5,233.667 342.333,235.5 344.5,237C 358.783,238.902 373.116,240.569 387.5,242C 389.119,242.236 390.119,243.069 390.5,244.5C 374.574,253.015 367.574,266.348 369.5,284.5C 365.137,286.511 360.471,287.011 355.5,286C 350.421,283.128 345.088,280.795 339.5,279C 333.259,278.407 327.092,278.907 321,280.5C 316.728,279.743 312.561,278.576 308.5,277C 298.532,275.727 288.865,276.893 279.5,280.5C 273.249,278.825 266.915,278.325 260.5,279C 254.912,280.795 249.579,283.128 244.5,286C 239.78,286.717 235.114,286.55 230.5,285.5C 233.506,271.023 229.506,258.856 218.5,249C 215.757,246.962 212.757,245.462 209.5,244.5C 209.791,243.351 210.624,242.684 212,242.5C 214.824,241.946 217.657,241.446 220.5,241C 232.586,240.233 244.586,238.9 256.5,237C 263.901,231.67 266.401,224.503 264,215.5C 260.041,205.88 252.874,200.38 242.5,199C 216.733,198.442 192.733,204.776 170.5,218C 150.263,229.563 133.096,244.73 119,263.5C 113.729,270.868 114.729,276.868 122,281.5C 135.388,273.887 148.888,266.387 162.5,259C 163.749,258.26 164.749,258.427 165.5,259.5C 156.387,281.827 162.387,298.827 183.5,310.5C 182.71,311.794 181.71,312.961 180.5,314C 174.451,315.858 168.784,318.525 163.5,322C 160.11,326.498 157.277,331.332 155,336.5C 150.402,338.77 146.069,341.437 142,344.5C 138.802,350.137 136.468,356.137 135,362.5C 130.667,365.5 127,369.167 124,373.5C 122.814,379.085 122.148,384.751 122,390.5C 118.837,394.156 116.171,398.156 114,402.5C 113.667,405.833 113.333,409.167 113,412.5C 110.313,411.287 107.48,410.62 104.5,410.5C 104.666,403.825 104.5,397.158 104,390.5C 100.168,383.838 97.1679,376.838 95,369.5C 94.3925,360.278 94.8925,351.112 96.5,342C 95.8352,335.996 94.3352,330.163 92,324.5C 91.8333,321.833 91.6667,319.167 91.5,316.5C 92.3765,309.065 93.5432,301.732 95,294.5C 91.5308,289.369 87.0308,285.203 81.5,282C 78.5095,279.01 76.3428,275.51 75,271.5C 74.6667,266.167 74.3333,260.833 74,255.5C 72.0394,252.537 69.706,249.871 67,247.5C 65.2392,244.551 64.0725,241.384 63.5,238C 65.071,232.549 66.4044,227.049 67.5,221.5C 65.3665,215.394 63.3665,209.227 61.5,203C 62.7287,196.876 65.062,191.21 68.5,186C 68.2568,185.098 67.9234,184.265 67.5,183.5C 69.4644,177.977 70.9644,172.31 72,166.5C 75.8434,160.147 80.1768,154.147 85,148.5C 86.7368,144.351 87.7368,140.017 88,135.5C 91.1446,132.266 94.4779,129.266 98,126.5C 102.117,119.385 105.784,112.052 109,104.5C 114.626,100.628 120.46,97.1277 126.5,94C 129.629,90.2478 132.129,86.0812 134,81.5C 142.015,74.406 151.182,69.2394 161.5,66C 164.887,62.6126 168.221,59.2792 171.5,56C 180.621,54.3785 189.621,52.0451 198.5,49C 208.433,39.2008 220.433,35.5341 234.5,38C 241.199,36.1489 247.533,33.4823 253.5,30C 263.809,30.7095 274.143,31.0428 284.5,31C 289.723,28.4812 295.223,26.9812 301,26.5C 309.138,28.9864 317.471,30.653 326,31.5C 333.761,29.8774 341.594,29.3774 349.5,30C 355.087,32.9615 360.754,35.6282 366.5,38C 374.167,38.3333 381.833,38.6667 389.5,39C 396.1,42.6048 402.434,46.6048 408.5,51C 416.213,52.5222 423.879,54.1888 431.5,56C 434.86,59.3604 438.194,62.6937 441.5,66C 449.34,68.2539 456.673,71.5872 463.5,76C 468.815,83.2491 474.482,90.2491 480.5,97C 486.103,99.0477 490.936,102.214 495,106.5C 498.333,113.167 501.667,119.833 505,126.5C 507.371,129.206 510.037,131.539 513,133.5C 513.789,142.884 517.789,150.55 525,156.5C 530.296,163.985 533.629,172.318 535,181.5C 537.452,186.068 539.618,190.735 541.5,195.5 Z"/></g>
<g><path style="opacity:1" fill="#d0a267" d="M 67.5,183.5 C 67.9234,184.265 68.2568,185.098 68.5,186C 65.062,191.21 62.7287,196.876 61.5,203C 63.3665,209.227 65.3665,215.394 67.5,221.5C 66.4044,227.049 65.071,232.549 63.5,238C 64.0725,241.384 65.2392,244.551 67,247.5C 69.706,249.871 72.0394,252.537 74,255.5C 74.3333,260.833 74.6667,266.167 75,271.5C 76.3428,275.51 78.5095,279.01 81.5,282C 87.0308,285.203 91.5308,289.369 95,294.5C 93.5432,301.732 92.3765,309.065 91.5,316.5C 91.6667,319.167 91.8333,321.833 92,324.5C 94.3352,330.163 95.8352,335.996 96.5,342C 94.8925,351.112 94.3925,360.278 95,369.5C 97.1679,376.838 100.168,383.838 104,390.5C 104.5,397.158 104.666,403.825 104.5,410.5C 103.078,410.709 101.745,411.209 100.5,412C 98.1667,415.667 95.1667,418.667 91.5,421C 82.0258,423.936 72.6925,427.269 63.5,431C 62.1667,431.667 60.8333,431.667 59.5,431C 50.5751,425.07 41.4084,419.57 32,414.5C 29.243,405.972 26.9097,397.306 25,388.5C 24.08,385.062 22.4133,382.062 20,379.5C 20.107,360.484 20.107,341.484 20,322.5C 26.1988,305.704 29.8655,288.371 31,270.5C 34.4666,260.904 38.4666,251.571 43,242.5C 45.7127,233.937 48.046,225.271 50,216.5C 55.3529,205.122 61.1863,194.122 67.5,183.5 Z"/></g>
<g><path style="opacity:1" fill="#d0a267" d="M 209.5,244.5 C 194.307,247.898 179.64,252.898 165.5,259.5C 164.749,258.427 163.749,258.26 162.5,259C 148.888,266.387 135.388,273.887 122,281.5C 114.729,276.868 113.729,270.868 119,263.5C 133.096,244.73 150.263,229.563 170.5,218C 192.733,204.776 216.733,198.442 242.5,199C 252.874,200.38 260.041,205.88 264,215.5C 266.401,224.503 263.901,231.67 256.5,237C 244.586,238.9 232.586,240.233 220.5,241C 217.657,241.446 214.824,241.946 212,242.5C 210.624,242.684 209.791,243.351 209.5,244.5 Z"/></g>
<g><path style="opacity:1" fill="#d0a267" d="M 435.5,259.5 C 421.115,252.705 406.115,247.705 390.5,244.5C 390.119,243.069 389.119,242.236 387.5,242C 373.116,240.569 358.783,238.902 344.5,237C 342.333,235.5 340.5,233.667 339,231.5C 334.165,220.685 336.332,211.519 345.5,204C 354.887,198.876 364.887,197.209 375.5,199C 418.578,206.617 453.745,227.451 481,261.5C 483.056,264.944 484.556,268.611 485.5,272.5C 485.075,276.758 482.909,279.758 479,281.5C 465.612,273.887 452.112,266.387 438.5,259C 437.251,258.26 436.251,258.427 435.5,259.5 Z"/></g>
<g><path style="opacity:1" fill="#d0a267" d="M 541.5,195.5 C 545.559,201.941 549.392,208.607 553,215.5C 554.598,224.682 556.932,233.682 560,242.5C 564.604,251.592 568.604,260.926 572,270.5C 572.269,277.542 572.936,284.542 574,291.5C 577.876,304.17 581.043,317.003 583.5,330C 582.791,346.491 582.624,362.991 583,379.5C 580.587,382.062 578.92,385.062 578,388.5C 576.044,397.287 573.71,405.954 571,414.5C 561.616,420.446 552.116,426.279 542.5,432C 541.167,432.667 539.833,432.667 538.5,432C 531.059,428.742 523.392,426.075 515.5,424C 509.209,420.246 503.209,416.08 497.5,411.5C 497.321,398.629 500.487,386.629 507,375.5C 508.411,371.28 509.244,366.947 509.5,362.5C 508.77,355.954 507.77,349.454 506.5,343C 509.083,334.155 511.083,325.155 512.5,316C 512.039,310.989 510.872,306.156 509,301.5C 508.113,296.928 508.78,292.595 511,288.5C 515.333,284.833 519.667,281.167 524,277.5C 525,275.5 526,273.5 527,271.5C 527.333,266.167 527.667,260.833 528,255.5C 531.726,250.772 535.059,245.772 538,240.5C 538.295,236.176 538.462,232.009 538.5,228C 536.749,224.205 536.082,220.372 536.5,216.5C 540.857,210.032 542.523,203.032 541.5,195.5 Z"/></g>
<g><path style="opacity:1" fill="#241916" d="M 209.5,244.5 C 212.757,245.462 215.757,246.962 218.5,249C 229.506,258.856 233.506,271.023 230.5,285.5C 229.21,286.058 228.377,287.058 228,288.5C 225.81,287.416 224.144,288.083 223,290.5C 222.667,290.167 222.333,289.833 222,289.5C 217.975,292.863 213.975,296.196 210,299.5C 203.602,298.8 197.435,299.967 191.5,303C 188.964,305.705 186.297,308.205 183.5,310.5C 162.387,298.827 156.387,281.827 165.5,259.5C 179.64,252.898 194.307,247.898 209.5,244.5 Z"/></g>
<g><path style="opacity:1" fill="#241916" d="M 390.5,244.5 C 406.115,247.705 421.115,252.705 435.5,259.5C 444.792,282.289 438.458,299.289 416.5,310.5C 412.95,306.786 408.95,303.619 404.5,301C 401.813,299.805 399.146,299.638 396.5,300.5C 394.436,298.739 392.269,298.405 390,299.5C 386.386,296.554 382.386,293.22 378,289.5C 377.667,289.833 377.333,290.167 377,290.5C 375.937,289.562 374.77,288.562 373.5,287.5C 372.914,287.709 372.414,288.043 372,288.5C 371.667,287.167 371.333,285.833 371,284.5C 370.31,285.738 369.81,285.738 369.5,284.5C 367.574,266.348 374.574,253.015 390.5,244.5 Z"/></g>
<g><path style="opacity:1" fill="#efeeee" d="M 203.5,258.5 C 210.609,257.112 214.943,259.945 216.5,267C 213.076,276.318 207.576,277.818 200,271.5C 197.348,266.039 198.514,261.706 203.5,258.5 Z"/></g>
<g><path style="opacity:1" fill="#f0f0f0" d="M 411.5,258.5 C 421.158,256.993 425.325,260.993 424,270.5C 419.583,276.183 414.583,276.849 409,272.5C 406.418,267.12 407.251,262.453 411.5,258.5 Z"/></g>
<g><path style="opacity:1" fill="#d0a267" d="M 294.5,286.5 C 298.514,286.334 302.514,286.501 306.5,287C 315.459,291.056 324.626,291.556 334,288.5C 340.503,290.829 347.003,293.329 353.5,296C 364.703,294.457 374.036,297.79 381.5,306C 386.907,308.292 392.574,309.626 398.5,310C 403.781,313.281 408.447,317.281 412.5,322C 417.272,324.59 422.272,326.59 427.5,328C 431.208,331.91 434.042,336.41 436,341.5C 440.645,345.655 445.645,349.322 451,352.5C 452.695,357.947 454.695,363.28 457,368.5C 460.36,371.86 463.694,375.194 467,378.5C 465.837,388.682 468.837,397.348 476,404.5C 476.612,409.439 476.112,414.273 474.5,419C 475.566,424.53 477.232,429.863 479.5,435C 476.829,440.181 475.162,445.681 474.5,451.5C 475.663,456.467 476.163,461.467 476,466.5C 468.837,473.652 465.837,482.318 467,492.5C 463.721,495.779 460.387,499.113 457,502.5C 454.642,507.761 452.642,513.094 451,518.5C 447.086,520.54 443.252,522.707 439.5,525C 435.257,530.154 431.257,535.488 427.5,541C 416.774,542.416 408.774,547.749 403.5,557C 397.127,559.731 390.46,561.398 383.5,562C 379.167,565 374.833,568 370.5,571C 358.525,569.744 347.525,572.411 337.5,579C 331.415,579.625 325.415,579.125 319.5,577.5C 312.952,578.697 306.452,580.03 300,581.5C 293.48,580.271 286.98,578.938 280.5,577.5C 274.537,578.729 268.537,579.229 262.5,579C 252.491,572.445 241.491,569.779 229.5,571C 225.656,568.578 221.99,565.911 218.5,563C 211.958,560.706 205.291,559.039 198.5,558C 194.711,553.721 190.711,549.721 186.5,546C 181.833,544.333 177.167,542.667 172.5,541C 169.209,536.252 166.042,531.419 163,526.5C 158.163,523.749 153.497,520.749 149,517.5C 147.639,512.722 145.972,508.056 144,503.5C 140.419,499.85 136.752,496.184 133,492.5C 132.667,487.833 132.333,483.167 132,478.5C 129.535,473.064 126.701,467.897 123.5,463C 124.567,459.234 125.233,455.401 125.5,451.5C 125.024,445.764 123.691,440.264 121.5,435C 122.981,429.871 124.314,424.705 125.5,419.5C 125.027,415.634 124.36,411.801 123.5,408C 126.121,403.361 128.788,398.695 131.5,394C 132.254,389.205 132.754,384.372 133,379.5C 135.667,375.5 139,372.167 143,369.5C 145.478,363.89 147.645,358.223 149.5,352.5C 153.742,349.128 158.242,346.128 163,343.5C 165.602,339.294 167.936,334.961 170,330.5C 175.608,327.292 181.441,324.459 187.5,322C 191.5,318.667 195.167,315 198.5,311C 210.197,310.332 220.197,305.999 228.5,298C 234.436,296.861 240.436,296.195 246.5,296C 252.098,294.199 257.431,291.866 262.5,289C 268.191,288.902 273.857,289.402 279.5,290.5C 284.814,289.944 289.814,288.611 294.5,286.5 Z"/></g>
<g><path style="opacity:1" fill="#040302" d="M 292.5,360.5 C 307.494,359.899 322.16,361.732 336.5,366C 356.142,373.441 364.309,387.608 361,408.5C 356.284,424.892 346.118,436.725 330.5,444C 301.404,456.769 275.571,451.936 253,429.5C 240.191,413.834 238.524,397.167 248,379.5C 260.127,366.683 274.96,360.35 292.5,360.5 Z"/></g>
<g><path style="opacity:1" fill="#231815" d="M 300.5,369.5 C 305.795,371.165 311.129,371.498 316.5,370.5C 318.452,372.533 320.618,372.866 323,371.5C 325.096,372.65 327.096,373.65 329,374.5C 330.646,372.859 331.646,373.193 332,375.5C 344.195,379.738 351.028,388.238 352.5,401C 352.346,403.379 351.68,405.546 350.5,407.5C 350.709,408.086 351.043,408.586 351.5,409C 351.311,411.295 349.977,413.295 347.5,415C 348.634,416.016 348.301,416.683 346.5,417C 347.654,417.914 347.487,418.747 346,419.5C 345.667,419.167 345.333,418.833 345,418.5C 341.145,423.353 336.978,427.853 332.5,432C 331.24,433.113 330.073,433.28 329,432.5C 328.683,434.301 328.016,434.634 327,433.5C 324.929,434.364 323.262,435.697 322,437.5C 319.81,436.416 318.144,437.083 317,439.5C 316.586,439.043 316.086,438.709 315.5,438.5C 314.107,439.863 312.441,440.696 310.5,441C 304.896,441.229 299.396,441.396 294,441.5C 291.087,441.121 288.253,439.787 285.5,437.5C 284.914,437.709 284.414,438.043 284,438.5C 282.856,436.083 281.19,435.416 279,436.5C 277.997,433.844 276.33,432.844 274,433.5C 271.973,430.481 269.139,428.648 265.5,428C 259.98,423.561 255.98,418.561 253.5,413C 253.957,412.586 254.291,412.086 254.5,411.5C 252.315,405.921 251.315,400.254 251.5,394.5C 253.335,393.572 253.668,392.406 252.5,391C 256.286,386.188 260.786,381.354 266,376.5C 268.885,377.235 271.218,376.235 273,373.5C 273.561,374.022 274.228,374.355 275,374.5C 276.765,373.554 278.598,372.554 280.5,371.5C 283.083,372.938 285.417,372.604 287.5,370.5C 292.02,371.574 296.353,371.24 300.5,369.5 Z"/></g>
</svg>
