<?xml version="1.0" encoding="UTF-8"?>
<!DOCTYPE svg PUBLIC "-//W3C//DTD SVG 1.1//EN" "http://www.w3.org/Graphics/SVG/1.1/DTD/svg11.dtd">
<svg xmlns="http://www.w3.org/2000/svg" version="1.1" width="600px" height="600px" style="shape-rendering:geometricPrecision; text-rendering:geometricPrecision; image-rendering:optimizeQuality; fill-rule:evenodd; clip-rule:evenodd" xmlns:xlink="http://www.w3.org/1999/xlink">
<g><path style="opacity:0.954" fill="#030303" d="M 599.5,263.5 C 599.5,269.167 599.5,274.833 599.5,280.5C 596.759,283.99 595.093,287.99 594.5,292.5C 595.943,302.032 597.61,311.365 599.5,320.5C 599.5,332.833 599.5,345.167 599.5,357.5C 596.436,361.081 593.936,365.081 592,369.5C 592.39,377.48 592.39,385.48 592,393.5C 588.036,402.147 584.036,410.814 580,419.5C 579.593,422.682 579.093,425.849 578.5,429C 582.944,439.855 580.611,448.855 571.5,456C 558.851,463.655 545.184,468.489 530.5,470.5C 517.483,469.549 505.316,465.882 494,459.5C 492.593,465.061 489.093,466.895 483.5,465C 478.044,461.213 472.877,457.046 468,452.5C 466.417,454.911 465.417,457.578 465,460.5C 464.429,473.959 461.096,486.626 455,498.5C 450.454,502.714 445.621,506.547 440.5,510C 437.653,510.944 435.153,510.444 433,508.5C 431.882,511.855 430.382,515.022 428.5,518C 421.582,522.968 413.915,525.301 405.5,525C 402.104,523.677 399.437,521.511 397.5,518.5C 385.375,531.066 370.708,539.233 353.5,543C 320.9,549.898 288.233,550.232 255.5,544C 236.606,540.221 220.272,531.721 206.5,518.5C 200.965,526.077 193.965,527.577 185.5,523C 178.183,521.187 173.85,516.687 172.5,509.5C 164.941,511.233 158.941,508.733 154.5,502C 149.836,502.325 146.336,500.492 144,496.5C 138.883,484.367 135.883,471.7 135,458.5C 134.527,456.221 133.527,454.221 132,452.5C 127.167,456.667 122.333,460.833 117.5,465C 111.665,466.956 107.665,465.123 105.5,459.5C 85.5322,471.523 64.8656,473.023 43.5,464C 34.4796,460.917 26.9796,455.75 21,448.5C 19.9371,446.084 19.1037,443.584 18.5,441C 20.8583,433.54 21.0249,426.04 19,418.5C 14.4692,410.104 10.4692,401.437 7,392.5C 7.05097,384.169 7.05097,375.835 7,367.5C 4.63698,363.655 2.13698,359.989 -0.5,356.5C -0.5,345.833 -0.5,335.167 -0.5,324.5C 1.00536,314.28 2.67203,303.947 4.5,293.5C 4.4978,288.177 2.83113,283.51 -0.5,279.5C -0.5,274.5 -0.5,269.5 -0.5,264.5C 1.7021,259.768 4.2021,255.101 7,250.5C 14.0466,242.455 20.7133,234.122 27,225.5C 32.1541,213.179 38.8208,201.846 47,191.5C 54,184.5 61,177.5 68,170.5C 68.9941,164.847 71.3274,159.847 75,155.5C 78.8666,151.298 83.0332,147.465 87.5,144C 99.8395,136.162 112.506,128.828 125.5,122C 128.488,120.01 131.155,117.677 133.5,115C 132.874,114.25 132.374,113.416 132,112.5C 123.533,107.251 122.367,100.751 128.5,93C 134.662,88.9197 141.329,85.9197 148.5,84C 164.409,80.7749 180.409,78.1083 196.5,76C 192.06,73.2322 188.727,69.5655 186.5,65C 187.069,62.0971 188.735,60.0971 191.5,59C 196.167,58.3333 200.833,58.3333 205.5,59C 218.783,61.8215 232.117,64.3215 245.5,66.5C 243.771,62.3302 243.271,57.9969 244,53.5C 244.903,52.2986 246.069,51.4652 247.5,51C 260.856,50.8923 273.523,53.8923 285.5,60C 290.158,62.9116 294.991,65.4116 300,67.5C 308.063,63.553 316.23,59.7197 324.5,56C 333.528,52.4071 342.861,50.7405 352.5,51C 355.477,52.1455 357.144,54.3121 357.5,57.5C 356.895,60.3162 355.895,62.9828 354.5,65.5C 355.167,65.8333 355.833,66.1667 356.5,66.5C 369.178,64.0645 381.844,61.5645 394.5,59C 399.5,58.3333 404.5,58.3333 409.5,59C 413.441,61.8134 414.275,65.3134 412,69.5C 409.257,71.7879 406.423,73.9545 403.5,76C 416.849,77.8355 430.183,79.8355 443.5,82C 455.681,83.3842 466.181,88.2176 475,96.5C 477,99.8333 477,103.167 475,106.5C 472.667,108.833 470.333,111.167 468,113.5C 467.333,114.5 467.333,115.5 468,116.5C 470.743,118.788 473.577,120.955 476.5,123C 488.424,129.267 500.091,135.933 511.5,143C 518.707,148.54 524.874,155.04 530,162.5C 530.92,165.101 531.587,167.768 532,170.5C 550.065,185.972 563.732,204.638 573,226.5C 579,233.833 585,241.167 591,248.5C 594.381,253.27 597.214,258.27 599.5,263.5 Z"/></g>
<g><path style="opacity:1" fill="#f5f5f5" d="M 518.5,168.5 C 515.813,168.336 513.146,168.503 510.5,169C 508.777,169.775 507.777,171.108 507.5,173C 514.536,188.451 521.369,203.951 528,219.5C 532.885,230.362 534.885,241.695 534,253.5C 533.275,254.059 532.442,254.392 531.5,254.5C 527.422,250.932 522.922,247.932 518,245.5C 515.407,246.661 513.741,248.661 513,251.5C 512.333,257.833 512.333,264.167 513,270.5C 516.712,291.679 521.212,312.679 526.5,333.5C 526.918,336.271 525.918,338.271 523.5,339.5C 519.152,337.408 514.652,335.742 510,334.5C 506.139,334.693 503.805,336.693 503,340.5C 502.277,348.542 502.61,356.542 504,364.5C 507.484,380.448 510.651,396.448 513.5,412.5C 512.448,412.649 511.448,412.483 510.5,412C 505.5,407 500.5,402 495.5,397C 493.231,395.442 490.898,395.276 488.5,396.5C 486.623,401.463 485.623,406.63 485.5,412C 486.864,422.805 487.864,433.638 488.5,444.5C 486.983,444.511 485.816,445.177 485,446.5C 484.667,448.5 484.333,450.5 484,452.5C 479.633,447.796 474.466,444.296 468.5,442C 464.447,441.441 461.28,442.941 459,446.5C 457.373,449.357 456.207,452.357 455.5,455.5C 450.923,425.937 441.423,397.937 427,371.5C 398.1,326.289 356.6,303.289 302.5,302.5C 246.896,303.373 204.729,327.373 176,374.5C 159.877,404.989 150.377,437.322 147.5,471.5C 146.807,464.772 145.64,458.105 144,451.5C 141.504,443.505 136.337,440.672 128.5,443C 124.084,445.412 120.251,448.578 117,452.5C 116.489,450.122 115.822,447.788 115,445.5C 114.184,444.177 113.017,443.511 111.5,443.5C 113.461,429.56 114.294,415.56 114,401.5C 112.394,394.973 108.894,393.806 103.5,398C 98.5987,403.07 93.5987,407.904 88.5,412.5C 88.1667,411 87.8333,409.5 87.5,408C 91.8805,388.309 95.5471,368.476 98.5,348.5C 98.415,334.56 92.415,331.06 80.5,338C 78.5,338.667 76.5,338.667 74.5,338C 73.8922,336.769 73.5589,335.436 73.5,334C 77.9053,315.213 82.072,296.38 86,277.5C 87.3841,268.536 87.7174,259.536 87,250.5C 85.9872,248.154 84.3206,246.487 82,245.5C 77.8959,247.933 74.0626,250.767 70.5,254C 69.1667,254.667 67.8333,254.667 66.5,254C 65.3676,249.587 65.2009,245.087 66,240.5C 68.0489,231.636 70.7156,222.97 74,214.5C 79.9836,200.203 86.1503,186.036 92.5,172C 92.4148,170.893 92.0814,169.893 91.5,169C 87.8484,168.501 84.1817,168.335 80.5,168.5C 80.3893,167.883 80.056,167.383 79.5,167C 85.9688,158.195 93.9688,151.195 103.5,146C 113.327,140.92 122.994,135.587 132.5,130C 145.666,122.16 146.833,112.994 136,102.5C 135.383,101.551 135.549,100.718 136.5,100C 143.401,96.1441 150.734,93.4774 158.5,92C 175.922,89.7627 193.256,87.096 210.5,84C 214.84,77.9545 213.506,73.2879 206.5,70C 217.512,71.6013 228.512,73.6013 239.5,76C 244.167,76.6667 248.833,76.6667 253.5,76C 254.931,75.5348 256.097,74.7014 257,73.5C 257.85,69.4645 257.35,65.6312 255.5,62C 262.361,62.6149 269.028,64.2816 275.5,67C 281.991,70.0785 288.325,73.4118 294.5,77C 298.167,77.6667 301.833,77.6667 305.5,77C 316.802,69.7649 328.968,64.5983 342,61.5C 342.833,61.8333 343.667,62.1667 344.5,62.5C 341.357,67.6093 342.023,72.1093 346.5,76C 351.5,76.6667 356.5,76.6667 361.5,76C 372.441,73.344 383.441,71.344 394.5,70C 388.828,72.3399 386.661,76.5066 388,82.5C 388.903,83.7014 390.069,84.5348 391.5,85C 408.158,87.3316 424.825,89.665 441.5,92C 449.304,93.4891 456.637,96.1557 463.5,100C 463.957,100.414 464.291,100.914 464.5,101.5C 453.228,113.288 454.895,123.121 469.5,131C 482.494,137.828 495.161,145.162 507.5,153C 512,156.167 515.833,160 519,164.5C 519.579,165.928 519.412,167.262 518.5,168.5 Z"/></g>
<g><path style="opacity:1" fill="#f1e9e1" d="M 80.5,168.5 C 84.1817,168.335 87.8484,168.501 91.5,169C 92.0814,169.893 92.4148,170.893 92.5,172C 86.1503,186.036 79.9836,200.203 74,214.5C 70.7156,222.97 68.0489,231.636 66,240.5C 65.2009,245.087 65.3676,249.587 66.5,254C 67.8333,254.667 69.1667,254.667 70.5,254C 74.0626,250.767 77.8959,247.933 82,245.5C 84.3206,246.487 85.9872,248.154 87,250.5C 87.7174,259.536 87.3841,268.536 86,277.5C 82.072,296.38 77.9053,315.213 73.5,334C 73.5589,335.436 73.8922,336.769 74.5,338C 76.5,338.667 78.5,338.667 80.5,338C 92.415,331.06 98.415,334.56 98.5,348.5C 95.5471,368.476 91.8805,388.309 87.5,408C 87.8333,409.5 88.1667,411 88.5,412.5C 93.5987,407.904 98.5987,403.07 103.5,398C 108.894,393.806 112.394,394.973 114,401.5C 114.294,415.56 113.461,429.56 111.5,443.5C 110.448,443.351 109.448,443.517 108.5,444C 82.7966,464.372 56.9633,464.538 31,444.5C 30.0419,442.801 29.5419,440.967 29.5,439C 30.887,430.804 30.7203,422.637 29,414.5C 25.3333,407.167 21.6667,399.833 18,392.5C 17.8958,382.441 17.2291,372.441 16,362.5C 14.3922,359.228 12.3922,356.228 10,353.5C 8.60827,332.7 10.4416,312.2 15.5,292C 14.9525,286.399 13.1192,281.233 10,276.5C 9.33333,273.167 9.33333,269.833 10,266.5C 11.9343,262.241 14.2677,258.241 17,254.5C 23,247.167 29,239.833 35,232.5C 44.0623,210.697 57.729,192.364 76,177.5C 76.9533,175.545 78.2866,173.878 80,172.5C 80.49,171.207 80.6567,169.873 80.5,168.5 Z"/></g>
<g><path style="opacity:1" fill="#f1e9e1" d="M 518.5,168.5 C 518.343,169.873 518.51,171.207 519,172.5C 529.03,182.196 538.697,192.196 548,202.5C 554.443,212.384 560.11,222.717 565,233.5C 569.957,240.126 575.291,246.46 581,252.5C 583.917,256.666 586.584,260.999 589,265.5C 590.368,268.738 590.701,272.072 590,275.5C 586.064,280.476 584.23,286.143 584.5,292.5C 585.839,302.189 587.339,311.856 589,321.5C 589.755,331.835 590.088,342.168 590,352.5C 587.277,355.557 584.944,358.89 583,362.5C 582.082,365.598 581.582,368.765 581.5,372C 582.404,378.488 582.571,384.988 582,391.5C 577.559,399.612 573.559,407.945 570,416.5C 569.028,420.097 568.528,423.764 568.5,427.5C 569.15,432.834 569.316,438.168 569,443.5C 552.492,457.667 533.658,462.167 512.5,457C 504.278,453.057 496.278,448.891 488.5,444.5C 487.864,433.638 486.864,422.805 485.5,412C 485.623,406.63 486.623,401.463 488.5,396.5C 490.898,395.276 493.231,395.442 495.5,397C 500.5,402 505.5,407 510.5,412C 511.448,412.483 512.448,412.649 513.5,412.5C 510.651,396.448 507.484,380.448 504,364.5C 502.61,356.542 502.277,348.542 503,340.5C 503.805,336.693 506.139,334.693 510,334.5C 514.652,335.742 519.152,337.408 523.5,339.5C 525.918,338.271 526.918,336.271 526.5,333.5C 521.212,312.679 516.712,291.679 513,270.5C 512.333,264.167 512.333,257.833 513,251.5C 513.741,248.661 515.407,246.661 518,245.5C 522.922,247.932 527.422,250.932 531.5,254.5C 532.442,254.392 533.275,254.059 534,253.5C 534.885,241.695 532.885,230.362 528,219.5C 521.369,203.951 514.536,188.451 507.5,173C 507.777,171.108 508.777,169.775 510.5,169C 513.146,168.503 515.813,168.336 518.5,168.5 Z"/></g>
<g><path style="opacity:1" fill="#38302c" d="M 218.5,247.5 C 240.274,245.291 251.941,254.958 253.5,276.5C 249.405,276.808 245.405,277.641 241.5,279C 229.045,283.372 216.711,287.705 204.5,292C 196.367,280.077 196.534,268.244 205,256.5C 208.882,252.429 213.382,249.429 218.5,247.5 Z"/></g>
<g><path style="opacity:1" fill="#39312d" d="M 369.5,247.5 C 393.302,245.804 404.802,256.804 404,280.5C 403.286,284.933 401.286,288.6 398,291.5C 382.292,284.7 366.126,279.367 349.5,275.5C 349.605,261.406 356.272,252.073 369.5,247.5 Z"/></g>
<g><path style="opacity:1" fill="#ededed" d="M 231.5,258.5 C 238.827,257.329 241.994,260.329 241,267.5C 237.61,271.032 233.943,271.366 230,268.5C 227.729,264.697 228.229,261.363 231.5,258.5 Z"/></g>
<g><path style="opacity:1" fill="#f0f0f0" d="M 384.5,260.5 C 393.555,259.814 395.888,263.481 391.5,271.5C 383.878,274.042 380.711,271.375 382,263.5C 382.698,262.309 383.531,261.309 384.5,260.5 Z"/></g>
<g><path style="opacity:1" fill="#f1e9e1" d="M 455.5,455.5 C 453.64,463.015 452.474,470.682 452,478.5C 450.92,486.341 447.087,492.341 440.5,496.5C 439.944,489.611 438.444,482.944 436,476.5C 432.952,472.99 429.619,472.657 426,475.5C 424.752,484.09 423.752,492.757 423,501.5C 422.75,504.85 421.917,508.017 420.5,511C 416.833,512.5 413.167,514 409.5,515.5C 407.056,511.882 404.39,508.382 401.5,505C 399.167,504.333 396.833,504.333 394.5,505C 387.235,515.589 377.568,523.255 365.5,528C 338.617,537.395 310.95,540.728 282.5,538C 262.018,537.132 243.018,531.465 225.5,521C 219.5,516.333 214.167,511 209.5,505C 207.167,504.333 204.833,504.333 202.5,505C 199.943,508.628 197.277,512.128 194.5,515.5C 191.125,514.097 187.791,512.597 184.5,511C 183.299,510.097 182.465,508.931 182,507.5C 180.904,499.876 180.238,492.209 180,484.5C 179.064,480.793 177.231,477.626 174.5,475C 170.834,473.729 168.334,474.896 167,478.5C 166.108,484.85 165.108,491.184 164,497.5C 162.188,494.72 160.021,492.22 157.5,490C 154.993,489.907 152.826,489.074 151,487.5C 149.141,482.324 147.974,476.991 147.5,471.5C 150.377,437.322 159.877,404.989 176,374.5C 204.729,327.373 246.896,303.373 302.5,302.5C 356.6,303.289 398.1,326.289 427,371.5C 441.423,397.937 450.923,425.937 455.5,455.5 Z"/></g>
<g><path style="opacity:1" fill="#372f2c" d="M 285.5,345.5 C 295.839,345.334 306.172,345.5 316.5,346C 325.722,346.716 334.056,349.716 341.5,355C 351.933,367.224 352.099,379.724 342,392.5C 331.664,402.917 319.164,408.917 304.5,410.5C 303.891,416.233 305.224,421.4 308.5,426C 320.507,426.456 332.507,426.29 344.5,425.5C 344.703,427.39 344.037,428.89 342.5,430C 335.477,432.949 328.144,434.616 320.5,435C 303.794,435.908 287.127,435.575 270.5,434C 265.208,433.223 261.874,430.39 260.5,425.5C 271.489,426.376 282.489,426.543 293.5,426C 295.538,424.764 296.705,422.931 297,420.5C 297.826,417.207 298.326,413.874 298.5,410.5C 283.2,408.098 270.366,401.098 260,389.5C 250.18,370.957 254.68,357.457 273.5,349C 277.543,347.509 281.543,346.342 285.5,345.5 Z"/></g>
</svg>
