<?xml version="1.0" encoding="UTF-8"?>
<!DOCTYPE svg PUBLIC "-//W3C//DTD SVG 1.1//EN" "http://www.w3.org/Graphics/SVG/1.1/DTD/svg11.dtd">
<svg xmlns="http://www.w3.org/2000/svg" version="1.1" width="600px" height="600px" style="shape-rendering:geometricPrecision; text-rendering:geometricPrecision; image-rendering:optimizeQuality; fill-rule:evenodd; clip-rule:evenodd" xmlns:xlink="http://www.w3.org/1999/xlink">
<g><path style="opacity:0.963" fill="#030201" d="M 599.5,157.5 C 599.5,173.167 599.5,188.833 599.5,204.5C 591.579,217.984 582.413,230.65 572,242.5C 572.352,254.407 570.019,265.74 565,276.5C 559.179,282.825 553.012,283.159 546.5,277.5C 542.92,279.322 539.253,279.822 535.5,279C 529.413,284.696 523.913,290.863 519,297.5C 514.268,306.629 509.268,315.629 504,324.5C 501.913,325.794 499.746,326.961 497.5,328C 493.527,328.277 489.694,328.444 486,328.5C 482.087,342.007 477.754,355.341 473,368.5C 462.119,390.928 451.785,413.595 442,436.5C 440.333,441.5 438.667,446.5 437,451.5C 434.432,466.342 431.098,481.009 427,495.5C 415.572,526.632 393.739,537.799 361.5,529C 355.93,542.973 349.43,556.473 342,569.5C 336.136,575.699 329.969,581.532 323.5,587C 292.544,600.015 268.378,592.181 251,563.5C 245.559,552.286 240.393,540.952 235.5,529.5C 235,529.167 234.5,528.833 234,528.5C 223.887,530.98 213.721,531.147 203.5,529C 194.723,526.53 187.556,521.697 182,514.5C 176.591,506.349 172.258,497.683 169,488.5C 165.554,470.935 161.221,453.602 156,436.5C 147.105,413.373 137.105,390.707 126,368.5C 120.541,355.457 115.874,342.124 112,328.5C 102.478,330.207 95.1442,326.873 90,318.5C 85.0344,304.726 77.2011,292.893 66.5,283C 63.58,283.689 60.58,284.523 57.5,285.5C 55.5269,284.669 53.5269,284.502 51.5,285C 41.5692,292.521 34.4025,290.355 30,278.5C 26.6581,267.011 25.6581,255.344 27,243.5C 16.5875,231.65 7.42081,218.984 -0.5,205.5C -0.5,189.167 -0.5,172.833 -0.5,156.5C 3.95194,152.436 8.61861,148.603 13.5,145C 48.5197,124.314 80.853,99.9808 110.5,72C 107.906,67.3807 107.906,62.7141 110.5,58C 104.766,49.6029 106.432,42.9362 115.5,38C 126.623,35.4773 137.456,36.3106 148,40.5C 155.602,34.3673 164.268,30.7006 174,29.5C 181.386,30.4715 188.552,32.3048 195.5,35C 205.49,39.912 215.657,44.412 226,48.5C 250.116,42.3929 274.616,39.7262 299.5,40.5C 324.37,39.8381 348.87,42.5048 373,48.5C 383.774,43.5294 394.608,38.6961 405.5,34C 421.445,26.9245 436.112,28.9245 449.5,40C 458.76,39.2648 467.76,40.5981 476.5,44C 479.231,46.6259 481.064,49.7926 482,53.5C 489.464,57.8735 491.631,64.0401 488.5,72C 517.53,100.188 549.53,124.521 584.5,145C 589.9,148.698 594.9,152.865 599.5,157.5 Z"/></g>
<g><path style="opacity:1" fill="#cea166" d="M 169.5,42.5 C 176.157,41.9649 182.49,43.1316 188.5,46C 200.825,51.3735 212.825,57.2069 224.5,63.5C 220.536,74.123 213.536,81.7897 203.5,86.5C 184.606,78.1121 168.106,81.4454 154,96.5C 149.181,104.278 145.514,112.611 143,121.5C 139.351,139.391 136.351,157.391 134,175.5C 130.489,211.499 127.156,247.499 124,283.5C 122.602,290.028 120.602,296.361 118,302.5C 114.978,305.863 112.312,309.53 110,313.5C 107.253,316.034 104.587,316.034 102,313.5C 93.4144,293.164 80.5811,275.997 63.5,262C 62.2161,261.316 61.0495,261.483 60,262.5C 59,265.833 58,269.167 57,272.5C 53.581,265.574 51.7477,258.241 51.5,250.5C 49.6471,249.24 47.8138,249.24 46,250.5C 43.1606,257.192 41.4939,264.192 41,271.5C 39.334,260.854 39.0006,250.187 40,239.5C 29.1722,227.006 19.5056,213.673 11,199.5C 8.72318,194.613 6.72318,189.613 5,184.5C 2.25188,177.796 3.25188,171.796 8,166.5C 11.2609,163.784 14.4276,160.951 17.5,158C 38.5126,144.495 59.1793,130.495 79.5,116C 95.7942,102.708 111.794,89.0413 127.5,75C 128.76,73.1862 128.76,71.3529 127.5,69.5C 125.37,68.5328 123.37,67.3662 121.5,66C 124.297,64.0051 127.463,63.1717 131,63.5C 133.557,63.5546 136.057,63.8879 138.5,64.5C 141.744,63.1548 142.744,60.9882 141.5,58C 136.725,54.2789 131.391,51.6123 125.5,50C 133.969,48.9501 141.969,50.4501 149.5,54.5C 155.921,50.0772 162.587,46.0772 169.5,42.5 Z"/></g>
<g><path style="opacity:1" fill="#cea166" d="M 419.5,42.5 C 430.126,42.4789 439.126,46.3123 446.5,54C 452.13,53.5441 457.796,53.5441 463.5,54C 461.246,55.3767 459.08,56.8767 457,58.5C 456.175,60.7008 456.675,62.5341 458.5,64C 464.167,64.3333 469.833,64.6667 475.5,65C 471.807,65.1723 469.141,66.839 467.5,70C 484.271,87.3851 502.271,103.385 521.5,118C 540.893,131.725 560.56,145.058 580.5,158C 586.045,161.878 590.545,166.711 594,172.5C 593.873,183.561 590.873,193.895 585,203.5C 577.154,216.349 568.154,228.349 558,239.5C 557.986,243.299 558.152,247.133 558.5,251C 558.572,254.29 558.072,257.456 557,260.5C 555.794,257.052 554.294,253.719 552.5,250.5C 550.926,249.369 549.259,249.202 547.5,250C 547.095,254.648 545.428,258.814 542.5,262.5C 539.423,261.123 536.423,261.29 533.5,263C 517.059,276.428 504.892,292.928 497,312.5C 495.475,315.087 493.308,315.92 490.5,315C 478.694,301.949 472.528,286.449 472,268.5C 470.385,217.297 464.385,166.631 454,116.5C 450.566,105.147 444.399,95.6471 435.5,88C 431.317,86.0807 426.984,84.414 422.5,83C 412.868,80.3913 403.701,81.558 395,86.5C 385.705,82.5383 379.038,75.8717 375,66.5C 374.202,64.7412 374.369,63.0745 375.5,61.5C 390.034,54.5592 404.7,48.2258 419.5,42.5 Z"/></g>
<g><path style="opacity:1" fill="#f0c86c" d="M 357.5,515.5 C 359.739,512.306 362.406,509.639 365.5,507.5C 394.846,482.942 403.679,452.276 392,415.5C 378.744,389.989 365.744,364.322 353,338.5C 351.842,334.203 350.842,329.869 350,325.5C 347.595,324.755 345.428,325.422 343.5,327.5C 344.999,332.828 346.499,338.161 348,343.5C 362.411,370.322 375.745,397.656 388,425.5C 389.532,437.457 389.865,449.457 389,461.5C 384.108,481.056 372.608,495.223 354.5,504C 350.5,504.667 346.5,504.667 342.5,504C 323.021,498.907 303.355,497.574 283.5,500C 271.307,501.705 259.141,503.539 247,505.5C 240.826,505.664 235.326,503.831 230.5,500C 205.787,481.217 195.954,456.384 201,425.5C 201.617,420.747 202.617,416.08 204,411.5C 217.349,384.802 230.682,358.136 244,331.5C 244.287,329.109 244.787,326.776 245.5,324.5C 243.257,323.526 240.924,323.192 238.5,323.5C 237.984,326.899 237.15,330.232 236,333.5C 223.078,358.344 210.411,383.344 198,408.5C 190.012,434.542 192.345,459.542 205,483.5C 212.802,494.806 222.635,503.806 234.5,510.5C 236.883,511.885 238.55,513.885 239.5,516.5C 229.712,519.52 219.712,520.687 209.5,520C 199.73,517.559 192.23,512.059 187,503.5C 179.209,487.01 174.209,469.676 172,451.5C 170.202,445.105 168.202,438.772 166,432.5C 154.941,406.716 143.608,381.049 132,355.5C 126.595,341.452 122.095,327.119 118.5,312.5C 124.472,303.085 127.972,292.752 129,281.5C 131.357,249.813 134.024,218.146 137,186.5C 139.586,164.317 143.253,142.317 148,120.5C 151.772,108.787 158.605,99.2869 168.5,92C 177.819,85.5649 187.485,84.8982 197.5,90C 205.11,91.8202 211.777,90.1535 217.5,85C 225.211,77.4162 228.878,68.2496 228.5,57.5C 275.527,48.018 322.527,48.1847 369.5,58C 369.911,70.1563 374.911,80.1563 384.5,88C 387.922,89.8697 391.589,90.703 395.5,90.5C 401.418,89.276 407.251,87.9426 413,86.5C 423.92,87.7983 432.92,92.7983 440,101.5C 443.855,107.21 447.188,113.21 450,119.5C 454.746,140.643 458.413,161.977 461,183.5C 464.286,215.451 466.952,247.451 469,279.5C 470.389,291.159 473.889,302.159 479.5,312.5C 476.298,324.936 472.798,337.27 469,349.5C 456.941,377.285 444.608,404.951 432,432.5C 426.065,450.842 421.398,469.509 418,488.5C 407.956,519.37 387.789,528.37 357.5,515.5 Z"/></g>
<g><path style="opacity:1" fill="#010100" d="M 200.5,192.5 C 212.838,191.113 223.504,194.613 232.5,203C 241.225,210.617 246.058,220.117 247,231.5C 237.813,234.839 228.646,238.339 219.5,242C 207.322,244.928 195.655,243.594 184.5,238C 178,233.5 171.5,229 165,224.5C 164.333,222.5 164.333,220.5 165,218.5C 173.626,205.364 185.459,196.697 200.5,192.5 Z"/></g>
<g><path style="opacity:1" fill="#010100" d="M 382.5,192.5 C 404.213,191.94 420.713,200.94 432,219.5C 432.667,221.167 432.667,222.833 432,224.5C 421.917,233.236 410.417,239.403 397.5,243C 392.167,243.667 386.833,243.667 381.5,243C 371.069,239.619 360.736,235.952 350.5,232C 349.39,229.263 349.223,226.429 350,223.5C 356.534,208.461 367.368,198.128 382.5,192.5 Z"/></g>
<g><path style="opacity:1" fill="#e4e4e4" d="M 213.5,207.5 C 219.733,207.889 221.566,210.889 219,216.5C 214.126,219.647 211.292,218.314 210.5,212.5C 210.323,210.032 211.323,208.365 213.5,207.5 Z"/></g>
<g><path style="opacity:1" fill="#e9e9e9" d="M 386.5,207.5 C 391.813,207.644 393.979,210.31 393,215.5C 388.616,219.565 385.449,218.732 383.5,213C 383.863,210.808 384.863,208.974 386.5,207.5 Z"/></g>
<g><path style="opacity:1" fill="#0b0804" d="M 365.5,507.5 C 361.832,508.556 358.165,509.722 354.5,511C 350.413,511.762 346.413,511.596 342.5,510.5C 341.833,510.5 341.167,510.5 340.5,510.5C 332.462,508.156 324.128,506.823 315.5,506.5C 296.881,504.864 278.548,506.197 260.5,510.5C 257.772,510.171 255.438,510.837 253.5,512.5C 247.013,512.848 240.68,512.182 234.5,510.5C 222.635,503.806 212.802,494.806 205,483.5C 192.345,459.542 190.012,434.542 198,408.5C 210.411,383.344 223.078,358.344 236,333.5C 237.15,330.232 237.984,326.899 238.5,323.5C 240.924,323.192 243.257,323.526 245.5,324.5C 244.787,326.776 244.287,329.109 244,331.5C 230.682,358.136 217.349,384.802 204,411.5C 202.617,416.08 201.617,420.747 201,425.5C 195.954,456.384 205.787,481.217 230.5,500C 235.326,503.831 240.826,505.664 247,505.5C 259.141,503.539 271.307,501.705 283.5,500C 303.355,497.574 323.021,498.907 342.5,504C 346.5,504.667 350.5,504.667 354.5,504C 372.608,495.223 384.108,481.056 389,461.5C 389.865,449.457 389.532,437.457 388,425.5C 375.745,397.656 362.411,370.322 348,343.5C 346.499,338.161 344.999,332.828 343.5,327.5C 345.428,325.422 347.595,324.755 350,325.5C 350.842,329.869 351.842,334.203 353,338.5C 365.744,364.322 378.744,389.989 392,415.5C 403.679,452.276 394.846,482.942 365.5,507.5 Z"/></g>
<g><path style="opacity:1" fill="#241915" d="M 286.5,407.5 C 298.936,406.99 311.269,407.824 323.5,410C 342.908,413.995 351.741,425.828 350,445.5C 346.645,456.044 340.479,464.544 331.5,471C 303.936,488.431 278.769,485.265 256,461.5C 247.522,450.489 245.856,438.489 251,425.5C 253.833,421.333 257.333,417.833 261.5,415C 269.63,411.39 277.963,408.89 286.5,407.5 Z"/></g>
<g><path style="opacity:1" fill="#e59497" d="M 315.5,506.5 C 323.565,508.699 331.898,510.032 340.5,510.5C 341.167,510.5 341.833,510.5 342.5,510.5C 343.065,529.899 339.065,548.233 330.5,565.5C 328.727,568.06 326.727,570.393 324.5,572.5C 304.085,550.749 282.751,530.083 260.5,510.5C 278.548,506.197 296.881,504.864 315.5,506.5 Z"/></g>
<g><path style="opacity:1" fill="#251916" d="M 365.5,507.5 C 362.406,509.639 359.739,512.306 357.5,515.5C 355.777,517.253 354.277,519.253 353,521.5C 348.055,533.667 342.722,545.667 337,557.5C 335.513,560.859 333.346,563.525 330.5,565.5C 339.065,548.233 343.065,529.899 342.5,510.5C 346.413,511.596 350.413,511.762 354.5,511C 358.165,509.722 361.832,508.556 365.5,507.5 Z"/></g>
<g><path style="opacity:1" fill="#d1a766" d="M 315.5,506.5 C 324.128,506.823 332.462,508.156 340.5,510.5C 331.898,510.032 323.565,508.699 315.5,506.5 Z"/></g>
<g><path style="opacity:1" fill="#f09b9e" d="M 260.5,510.5 C 282.751,530.083 304.085,550.749 324.5,572.5C 320.698,576.576 316.031,579.409 310.5,581C 289.871,586.763 274.204,580.597 263.5,562.5C 257.117,546.511 253.784,529.845 253.5,512.5C 255.438,510.837 257.772,510.171 260.5,510.5 Z"/></g>
<g><path style="opacity:1" fill="#261a17" d="M 234.5,510.5 C 240.68,512.182 247.013,512.848 253.5,512.5C 253.784,529.845 257.117,546.511 263.5,562.5C 259.854,557.219 256.687,551.552 254,545.5C 250.275,536.382 246.275,527.382 242,518.5C 241.292,517.619 240.458,516.953 239.5,516.5C 238.55,513.885 236.883,511.885 234.5,510.5 Z"/></g>
</svg>
