<?xml version="1.0" encoding="UTF-8"?>
<!DOCTYPE svg PUBLIC "-//W3C//DTD SVG 1.1//EN" "http://www.w3.org/Graphics/SVG/1.1/DTD/svg11.dtd">
<svg xmlns="http://www.w3.org/2000/svg" version="1.1" width="600px" height="600px" style="shape-rendering:geometricPrecision; text-rendering:geometricPrecision; image-rendering:optimizeQuality; fill-rule:evenodd; clip-rule:evenodd" xmlns:xlink="http://www.w3.org/1999/xlink">
<g><path style="opacity:0.954" fill="#030303" d="M 276.5,53.5 C 284.838,54.1686 292.505,56.8352 299.5,61.5C 305.973,57.4294 312.973,54.7627 320.5,53.5C 321.737,53.5565 322.737,54.0565 323.5,55C 322.139,56.5843 321.472,58.4176 321.5,60.5C 328.703,59.8266 335.87,58.8266 343,57.5C 348.585,57.9115 348.751,59.4115 343.5,62C 353.271,62.9845 362.771,65.1511 372,68.5C 388.997,65.2459 405.497,67.0793 421.5,74C 442.608,84.0515 462.942,95.3848 482.5,108C 508.324,121.078 533.991,134.412 559.5,148C 566.45,152.615 573.116,157.615 579.5,163C 585.4,169.064 590.734,175.564 595.5,182.5C 595,183.881 594,184.547 592.5,184.5C 587.393,182.072 582.06,181.238 576.5,182C 575.469,185.293 575.969,188.46 578,191.5C 584.531,200.23 589.198,209.896 592,220.5C 592.667,228.167 592.667,235.833 592,243.5C 589.7,258.765 588.2,274.098 587.5,289.5C 582.595,288.118 578.595,285.285 575.5,281C 573.763,280.388 572.763,281.054 572.5,283C 574.591,291.852 576.424,300.686 578,309.5C 577.282,310.451 576.449,310.617 575.5,310C 573.402,307.146 571.069,304.479 568.5,302C 567.552,301.517 566.552,301.351 565.5,301.5C 567.891,318.841 573.391,335.174 582,350.5C 583.318,353.406 583.652,356.406 583,359.5C 580.936,360.591 578.769,360.758 576.5,360C 571.5,356.831 566.166,354.331 560.5,352.5C 559.492,360.568 558.159,368.568 556.5,376.5C 555.635,377.583 554.635,377.749 553.5,377C 550.931,374.521 548.598,371.854 546.5,369C 545.552,368.517 544.552,368.351 543.5,368.5C 543.602,377.546 544.269,386.546 545.5,395.5C 544.448,395.649 543.448,395.483 542.5,395C 540.355,391.688 537.688,388.854 534.5,386.5C 533.34,388.146 532.673,389.979 532.5,392C 534.705,406.615 538.539,420.782 544,434.5C 545.421,438.43 544.254,441.097 540.5,442.5C 533.792,438.632 526.959,434.966 520,431.5C 518.891,435.689 518.058,440.023 517.5,444.5C 491.388,442.026 469.888,430.693 453,410.5C 448.864,403.895 445.531,396.895 443,389.5C 433.128,403.408 423.628,417.575 414.5,432C 416.769,439.993 417.603,448.159 417,456.5C 415.29,457.945 413.456,458.778 411.5,459C 414.668,467.162 416.001,475.662 415.5,484.5C 413.234,484.141 411.401,484.808 410,486.5C 409.747,493.876 409.081,501.209 408,508.5C 407.275,510.949 406.275,513.283 405,515.5C 398.947,521.764 392.781,527.93 386.5,534C 375.765,542.228 363.598,546.061 350,545.5C 332.841,543.102 315.675,540.768 298.5,538.5C 286.009,539.248 273.676,541.082 261.5,544C 242.496,548.003 225.496,544.003 210.5,532C 204.977,525.478 199.143,519.312 193,513.5C 191.058,504.273 189.725,494.939 189,485.5C 185.048,485.111 183.215,482.944 183.5,479C 183.9,472.288 185.233,465.788 187.5,459.5C 187.333,458.833 187.167,458.167 187,457.5C 185.644,458.38 184.144,458.714 182.5,458.5C 182.227,449.049 182.727,439.716 184,430.5C 175.058,416.559 165.724,402.892 156,389.5C 150.314,408.366 138.814,422.532 121.5,432C 110.068,438.477 97.9018,442.977 85,445.5C 83.2894,445.561 81.956,444.894 81,443.5C 80.9288,439.313 80.2622,435.313 79,431.5C 72.0409,434.966 65.2076,438.632 58.5,442.5C 56.3121,441.556 54.9788,439.889 54.5,437.5C 57.9679,427.263 61.1346,416.929 64,406.5C 65.5461,400.567 66.2128,394.567 66,388.5C 65.6924,387.692 65.1924,387.025 64.5,386.5C 61.5801,388.833 59.2468,391.667 57.5,395C 56.2161,395.684 55.0495,395.517 54,394.5C 54.4904,388.38 54.9904,382.213 55.5,376C 55.1667,373.5 54.8333,371 54.5,368.5C 51.3753,371.123 48.3753,373.956 45.5,377C 44.552,377.483 43.552,377.649 42.5,377.5C 41.331,369.129 39.9977,360.796 38.5,352.5C 33.2211,354.473 28.2211,356.973 23.5,360C 21.1667,360.667 18.8333,360.667 16.5,360C 15.9186,359.107 15.5852,358.107 15.5,357C 21.075,344.013 26.2416,330.846 31,317.5C 32.9618,312.344 33.7951,307.011 33.5,301.5C 32.448,301.351 31.448,301.517 30.5,302C 28.4023,304.854 26.069,307.521 23.5,310C 22.5509,310.617 21.7175,310.451 21,309.5C 23.291,299.987 25.1243,290.321 26.5,280.5C 22.188,282.289 18.5214,285.123 15.5,289C 14.2161,289.684 13.0495,289.517 12,288.5C 10.026,269.182 8.19267,249.848 6.5,230.5C 6.41169,222.852 7.91169,215.518 11,208.5C 15.2529,201.663 19.2529,194.663 23,187.5C 24.4844,183.451 23.1511,181.451 19,181.5C 14.7402,182.107 10.5735,183.107 6.5,184.5C 4.99962,184.547 3.99962,183.881 3.5,182.5C 13.7762,168.055 26.4429,156.222 41.5,147C 80.9556,127.778 119.289,106.778 156.5,84C 176.615,72.1801 198.282,66.5134 221.5,67C 223.355,67.4221 225.189,67.9221 227,68.5C 236.262,65.3142 245.762,63.1475 255.5,62C 250.249,59.4115 250.415,57.9115 256,57.5C 263.13,58.8266 270.297,59.8266 277.5,60.5C 277.007,58.1944 276.674,55.861 276.5,53.5 Z"/></g>
<g><path style="opacity:1" fill="#2c2b2b" d="M 369.5,78.5 C 399.893,112.28 420.06,151.613 430,196.5C 434.868,217.908 437.868,239.575 439,261.5C 439.783,289.863 439.283,318.196 437.5,346.5C 437.955,355.285 438.955,363.952 440.5,372.5C 405.894,376.989 377.061,366.322 354,340.5C 353.536,341.094 353.369,341.761 353.5,342.5C 349.023,337.568 345.523,331.901 343,325.5C 334.532,303.959 329.698,281.626 328.5,258.5C 331.899,233.439 335.732,208.439 340,183.5C 345.271,167.211 347.271,150.544 346,133.5C 343.804,126.107 340.304,119.44 335.5,113.5C 335.12,115.021 334.954,116.687 335,118.5C 334.667,118.167 334.333,117.833 334,117.5C 331.047,109.964 327.713,102.631 324,95.5C 323.311,94.6433 322.478,93.9767 321.5,93.5C 320.758,95.1082 320.591,96.7749 321,98.5C 317.084,87.3101 309.917,78.9768 299.5,73.5C 289.602,78.8971 282.768,86.8971 279,97.5C 278.781,96.062 278.281,94.7287 277.5,93.5C 273.046,98.737 269.88,104.737 268,111.5C 267,112.5 266,113.5 265,114.5C 264.683,112.699 264.016,112.366 263,113.5C 254.43,125.796 251.096,139.796 253,155.5C 256.741,183.798 262.074,211.798 269,239.5C 271.397,271.449 266.397,301.782 254,330.5C 252.694,333.621 250.86,336.287 248.5,338.5C 248.103,337.475 247.437,337.308 246.5,338C 223.81,365.338 194.81,376.505 159.5,371.5C 160.744,362.737 161.411,353.903 161.5,345C 159.343,313.838 159.176,282.671 161,251.5C 163.758,207.464 175.092,165.797 195,126.5C 204.737,108.933 216.57,92.9328 230.5,78.5C 240.462,74.8373 250.795,72.6707 261.5,72C 263.01,71.1502 264.51,70.3169 266,69.5C 273.573,72.8233 280.407,71.8233 286.5,66.5C 295.148,73.0761 303.815,73.0761 312.5,66.5C 318.593,71.8233 325.427,72.8233 333,69.5C 335.528,71.3452 338.361,72.5119 341.5,73C 351.144,73.4396 360.477,75.2729 369.5,78.5 Z"/></g>
<g><path style="opacity:1" fill="#252525" d="M 230.5,78.5 C 216.57,92.9328 204.737,108.933 195,126.5C 175.092,165.797 163.758,207.464 161,251.5C 159.176,282.671 159.343,313.838 161.5,345C 161.411,353.903 160.744,362.737 159.5,371.5C 158.527,373.948 158.194,376.615 158.5,379.5C 153.829,378.113 149.996,379.447 147,383.5C 142.422,401.409 131.922,414.576 115.5,423C 107.851,427.325 99.8512,430.825 91.5,433.5C 88.7849,422.475 82.1182,419.142 71.5,423.5C 71.1667,423 70.8333,422.5 70.5,422C 75.1874,409.901 77.0208,397.401 76,384.5C 74.4966,379.828 71.3299,377.161 66.5,376.5C 67.5724,369.549 65.5724,363.715 60.5,359C 57.3122,357.617 54.1455,357.451 51,358.5C 51.3073,352.156 49.1406,346.989 44.5,343C 40.3299,342.675 36.3299,342.509 32.5,342.5C 38.4131,330.261 42.4131,317.428 44.5,304C 44.362,297.549 41.362,293.049 35.5,290.5C 39.3602,279.552 35.8602,272.552 25,269.5C 22.6932,271.094 21.3598,270.428 21,267.5C 18.0142,251.617 17.0142,235.617 18,219.5C 22.1433,210.546 26.81,201.88 32,193.5C 36.4765,184.612 34.6432,177.446 26.5,172C 32.2585,166.238 38.5918,161.238 45.5,157C 66.5198,145.489 87.8532,134.489 109.5,124C 132.013,110.24 155.013,97.2404 178.5,85C 195.182,77.1635 212.515,74.9969 230.5,78.5 Z"/></g>
<g><path style="opacity:1" fill="#252525" d="M 441.5,378.5 C 441.167,376.5 440.833,374.5 440.5,372.5C 438.955,363.952 437.955,355.285 437.5,346.5C 439.283,318.196 439.783,289.863 439,261.5C 437.868,239.575 434.868,217.908 430,196.5C 420.06,151.613 399.893,112.28 369.5,78.5C 377.066,76.7692 384.733,76.2692 392.5,77C 409.538,80.1838 425.538,86.1838 440.5,95C 456.668,104.919 473.002,114.585 489.5,124C 511.147,134.489 532.48,145.489 553.5,157C 560.524,161.513 567.191,166.513 573.5,172C 567.425,173.983 564.758,178.15 565.5,184.5C 565.667,186.5 565.833,188.5 566,190.5C 571.805,200.625 577.138,210.958 582,221.5C 582.667,227.167 582.667,232.833 582,238.5C 580.635,249.156 579.468,259.822 578.5,270.5C 568.256,268.636 562.923,272.969 562.5,283.5C 562.703,286.197 563.036,288.864 563.5,291.5C 557.345,293.431 554.345,297.764 554.5,304.5C 557.087,317.596 561.087,330.263 566.5,342.5C 554.524,340.133 548.524,345.133 548.5,357.5C 536.1,357.582 530.767,363.916 532.5,376.5C 527.304,377.192 524.137,380.192 523,385.5C 522.817,397.761 524.65,409.761 528.5,421.5C 528.167,422.167 527.833,422.833 527.5,423.5C 516.72,418.956 510.387,422.289 508.5,433.5C 489.637,428.16 473.804,418.16 461,403.5C 457.221,396.828 454.221,389.828 452,382.5C 449.176,379.502 445.676,378.168 441.5,378.5 Z"/></g>
<g><path style="opacity:1" fill="#f3f3f3" d="M 387.5,525.5 C 375.198,508.923 363.865,491.59 353.5,473.5C 355.287,447.774 343.287,433.274 317.5,430C 297.697,426.277 278.697,428.61 260.5,437C 248.087,445.669 243.253,457.502 246,472.5C 248.806,485.318 255.639,495.484 266.5,503C 273.639,507.568 281.305,511.068 289.5,513.5C 290.98,517.86 290.647,522.026 288.5,526C 277.388,527.797 266.388,530.13 255.5,533C 252.872,534.626 250.539,536.626 248.5,539C 244.167,539.667 239.833,539.667 235.5,539C 228.286,536.726 221.619,533.393 215.5,529C 209.71,523.221 204.043,517.387 198.5,511.5C 197.366,508.93 196.532,506.264 196,503.5C 195.667,497.5 195.333,491.5 195,485.5C 193.11,482.298 191.277,479.132 189.5,476C 189.866,469.927 191.199,464.094 193.5,458.5C 193.56,454.244 191.56,451.91 187.5,451.5C 187.63,444.421 188.464,437.421 190,430.5C 192.953,425.214 196.953,420.88 202,417.5C 202.986,414.258 202.152,411.592 199.5,409.5C 203.321,400.844 209.154,393.844 217,388.5C 217.374,386.102 217.374,383.769 217,381.5C 230.753,368.083 243.42,353.75 255,338.5C 261.116,327.154 265.449,315.154 268,302.5C 271.86,287.369 274.36,272.036 275.5,256.5C 273.277,236.216 269.443,216.216 264,196.5C 259.768,176.355 257.768,156.022 258,135.5C 260.199,129.782 262.366,124.115 264.5,118.5C 267.614,117.909 270.114,116.242 272,113.5C 273.309,109.901 274.809,106.401 276.5,103C 279.007,102.907 281.174,102.074 283,100.5C 293.411,72.9678 304.411,72.6345 316,99.5C 317.836,101.708 320.169,103.042 323,103.5C 325.333,109.167 327.667,114.833 330,120.5C 331.916,121.928 334.083,122.928 336.5,123.5C 342.534,134.151 344.034,145.484 341,157.5C 335.56,187.142 330.226,216.809 325,246.5C 323.697,277.954 329.697,307.954 343,336.5C 347.281,343.115 351.947,349.448 357,355.5C 365.697,363.863 374.031,372.53 382,381.5C 381.626,383.769 381.626,386.102 382,388.5C 390.059,393.889 395.892,401.055 399.5,410C 397.656,412.561 397.156,415.394 398,418.5C 409.534,426.589 413.7,437.589 410.5,451.5C 407.463,452.868 406.13,455.202 406.5,458.5C 408.701,464.571 410.034,470.905 410.5,477.5C 408.084,479.752 406.251,482.419 405,485.5C 404,493.5 403,501.5 402,509.5C 397.358,514.977 392.524,520.31 387.5,525.5 Z"/></g>
<g><path style="opacity:1" fill="#8f7045" d="M 223.5,249.5 C 212.431,250.305 202.098,253.305 192.5,258.5C 186.577,260.795 180.91,263.628 175.5,267C 170.749,267.92 168.416,265.92 168.5,261C 170.726,253.08 175.06,246.413 181.5,241C 192.845,230.825 205.845,223.492 220.5,219C 228.779,217.503 237.112,217.169 245.5,218C 259.083,223.395 262.916,232.895 257,246.5C 255.833,247.667 254.667,248.833 253.5,250C 243.511,249.946 233.511,249.779 223.5,249.5 Z"/></g>
<g><path style="opacity:1" fill="#8f6f45" d="M 406.5,258.5 C 396.493,253.502 385.826,250.502 374.5,249.5C 364.826,249.876 355.159,250.043 345.5,250C 337.924,241.31 337.59,232.31 344.5,223C 347.048,220.558 350.048,218.892 353.5,218C 371.549,216.238 388.215,220.238 403.5,230C 414.333,236.833 423.167,245.667 430,256.5C 430.929,260.244 430.429,263.744 428.5,267C 426.833,267.667 425.167,267.667 423.5,267C 418.09,263.628 412.423,260.795 406.5,258.5 Z"/></g>
<g><path style="opacity:1" fill="#6d5a4e" d="M 223.5,249.5 C 243.865,259.249 248.698,274.249 238,294.5C 225.99,306.939 212.49,308.772 197.5,300C 184.831,287.443 183.164,273.61 192.5,258.5C 202.098,253.305 212.431,250.305 223.5,249.5 Z"/></g>
<g><path style="opacity:1" fill="#6d5a4e" d="M 374.5,249.5 C 385.826,250.502 396.493,253.502 406.5,258.5C 413.486,268.967 414.319,279.967 409,291.5C 398.731,305.586 385.565,309.086 369.5,302C 354.796,291.22 351.63,277.72 360,261.5C 363.811,256.189 368.644,252.189 374.5,249.5 Z"/></g>
<g><path style="opacity:1" fill="#121111" d="M 211.5,256.5 C 232.256,258.358 239.09,269.025 232,288.5C 220.667,300.5 209.333,300.5 198,288.5C 191.278,272.956 195.778,262.289 211.5,256.5 Z"/></g>
<g><path style="opacity:1" fill="#121111" d="M 379.5,256.5 C 400.957,257.772 408.123,268.439 401,288.5C 390.298,300.062 379.298,300.395 368,289.5C 360.566,274.398 364.399,263.398 379.5,256.5 Z"/></g>
<g><path style="opacity:1" fill="#eaeaea" d="M 207.5,264.5 C 211.925,263.757 214.592,265.59 215.5,270C 212.639,275.227 209.139,275.727 205,271.5C 204.683,268.793 205.516,266.46 207.5,264.5 Z"/></g>
<g><path style="opacity:1" fill="#eaeaea" d="M 376.5,264.5 C 380.925,263.757 383.592,265.59 384.5,270C 381.744,275.283 378.244,275.783 374,271.5C 373.683,268.793 374.516,266.46 376.5,264.5 Z"/></g>
<g><path style="opacity:1" fill="#8e6f45" d="M 248.5,338.5 C 244.914,342.688 241.581,347.022 238.5,351.5C 234.766,354.231 231.766,357.564 229.5,361.5C 222.815,368.685 215.981,375.685 209,382.5C 208.51,383.793 208.343,385.127 208.5,386.5C 205.833,390.167 203.167,393.833 200.5,397.5C 198.777,399.253 197.277,401.253 196,403.5C 193.412,408.344 191.079,413.344 189,418.5C 180.221,405.388 171.055,392.555 161.5,380C 160.552,379.517 159.552,379.351 158.5,379.5C 158.194,376.615 158.527,373.948 159.5,371.5C 194.81,376.505 223.81,365.338 246.5,338C 247.437,337.308 248.103,337.475 248.5,338.5 Z"/></g>
<g><path style="opacity:1" fill="#8d6e44" d="M 440.5,372.5 C 440.833,374.5 441.167,376.5 441.5,378.5C 438.958,379.039 436.792,380.372 435,382.5C 427.404,394.036 419.57,405.37 411.5,416.5C 410.833,416.5 410.167,416.5 409.5,416.5C 406.004,409.951 402.504,403.284 399,396.5C 395.167,393.333 391.333,390.167 387.5,387C 388.448,386.517 389.448,386.351 390.5,386.5C 389.934,381.699 387.6,378.032 383.5,375.5C 377.224,367.555 370.224,360.222 362.5,353.5C 359.906,349.565 356.906,345.899 353.5,342.5C 353.369,341.761 353.536,341.094 354,340.5C 377.061,366.322 405.894,376.989 440.5,372.5 Z"/></g>
<g><path style="opacity:1" fill="#493a29" d="M 238.5,351.5 C 236.234,355.436 233.234,358.769 229.5,361.5C 231.766,357.564 234.766,354.231 238.5,351.5 Z"/></g>
<g><path style="opacity:1" fill="#493a28" d="M 362.5,353.5 C 370.224,360.222 377.224,367.555 383.5,375.5C 375.776,368.778 368.776,361.445 362.5,353.5 Z"/></g>
<g><path style="opacity:1" fill="#e2e1e1" d="M 243.5,384.5 C 249.997,384.18 252.164,387.18 250,393.5C 246.527,399.294 243.527,405.294 241,411.5C 237.348,412.995 235.348,411.661 235,407.5C 234.181,398.453 237.015,390.787 243.5,384.5 Z"/></g>
<g><path style="opacity:1" fill="#403426" d="M 208.5,386.5 C 209.552,386.351 210.552,386.517 211.5,387C 207.964,390.704 204.298,394.204 200.5,397.5C 203.167,393.833 205.833,390.167 208.5,386.5 Z"/></g>
<g><path style="opacity:1" fill="#413526" d="M 409.5,416.5 C 410.167,416.5 410.833,416.5 411.5,416.5C 410.836,418.487 409.669,420.154 408,421.5C 406.5,420 405,418.5 403.5,417C 405.107,416.885 406.607,417.385 408,418.5C 409.03,418.164 409.53,417.497 409.5,416.5 Z"/></g>
<g><path style="opacity:1" fill="#111010" d="M 297.5,432.5 C 311.179,432.334 324.179,435.168 336.5,441C 345.032,447.061 349.365,455.395 349.5,466C 347.81,482.331 339.81,494.331 325.5,502C 318.655,506.115 311.321,508.948 303.5,510.5C 302.613,516.201 302.946,521.867 304.5,527.5C 300.774,527.823 297.107,527.489 293.5,526.5C 295.465,521.042 295.798,515.542 294.5,510C 275.554,506.549 261.387,496.049 252,478.5C 245.63,454.74 254.464,440.24 278.5,435C 284.977,434.138 291.311,433.305 297.5,432.5 Z"/></g>
<g><path style="opacity:1" fill="#e2e1e1" d="M 368.5,465.5 C 371.099,465.549 373.266,466.549 375,468.5C 378.205,473.771 379.539,479.437 379,485.5C 378.382,490.803 375.548,492.97 370.5,492C 366.696,484.979 365.196,477.479 366,469.5C 366.662,468.016 367.496,466.683 368.5,465.5 Z"/></g>
<g><path style="opacity:1" fill="#e2e2e2" d="M 353.5,473.5 C 363.865,491.59 375.198,508.923 387.5,525.5C 377.431,534.86 365.431,539.86 351.5,540.5C 348.926,536.758 345.593,533.925 341.5,532C 330.53,529.933 319.53,528.1 308.5,526.5C 307.46,522.151 307.46,517.818 308.5,513.5C 325.702,509.485 339.202,500.152 349,485.5C 350.849,481.497 352.349,477.497 353.5,473.5 Z"/></g>
</svg>
