<?xml version="1.0" encoding="UTF-8"?>
<!DOCTYPE svg PUBLIC "-//W3C//DTD SVG 1.1//EN" "http://www.w3.org/Graphics/SVG/1.1/DTD/svg11.dtd">
<svg xmlns="http://www.w3.org/2000/svg" version="1.1" width="600px" height="600px" style="shape-rendering:geometricPrecision; text-rendering:geometricPrecision; image-rendering:optimizeQuality; fill-rule:evenodd; clip-rule:evenodd" xmlns:xlink="http://www.w3.org/1999/xlink">
<g><path style="opacity:0.974" fill="#020202" d="M 59.5,19.5 C 64.2868,18.9699 68.6202,20.1366 72.5,23C 86.1991,36.3674 100.199,49.3674 114.5,62C 141.12,94.7418 167.62,127.575 194,160.5C 201.197,168.031 208.697,175.198 216.5,182C 219.063,184.281 222.063,185.448 225.5,185.5C 238.881,182.989 252.214,180.156 265.5,177C 286.206,173.813 306.873,174.146 327.5,178C 336.33,179.5 344.83,182 353,185.5C 355.587,183.986 358.42,183.32 361.5,183.5C 365.903,183.746 370.237,184.413 374.5,185.5C 377.433,185.534 380.1,184.701 382.5,183C 394.333,172.5 405.5,161.333 416,149.5C 436.908,123.348 457.575,97.0148 478,70.5C 493.833,55.3333 509.667,40.1667 525.5,25C 529.944,20.4429 535.277,18.7762 541.5,20C 543.936,22.7066 545.436,25.8733 546,29.5C 548.402,47.086 549.068,64.7527 548,82.5C 546.088,113.708 542.421,144.708 537,175.5C 532.461,199.194 527.795,222.86 523,246.5C 521.789,252.132 519.789,257.466 517,262.5C 508.249,276.338 499.249,290.005 490,303.5C 487,307.833 483.333,311.5 479,314.5C 477.743,316.513 476.909,318.679 476.5,321C 486.507,364.403 487.007,407.903 478,451.5C 470.943,481.325 454.776,504.659 429.5,521.5C 429.911,542.506 421.911,559.339 405.5,572C 392.348,579.454 378.681,580.787 364.5,576C 356.296,571.403 348.296,566.569 340.5,561.5C 326.366,564.845 312.033,566.178 297.5,565.5C 283.295,566.193 269.295,564.86 255.5,561.5C 247.704,566.569 239.704,571.403 231.5,576C 208.75,582.639 190.25,576.472 176,557.5C 169.566,545.665 166.566,532.999 167,519.5C 143.471,501.804 128.471,478.471 122,449.5C 113.248,408.108 113.581,366.774 123,325.5C 123.667,322.833 123.667,320.167 123,317.5C 104.499,297.169 89.499,274.502 78,249.5C 67.0803,201.649 59.0803,153.315 54,104.5C 51.7936,82.5104 51.4602,60.5104 53,38.5C 52.8784,31.2903 55.0451,24.957 59.5,19.5 Z"/></g>
<g><path style="opacity:1" fill="#59443a" d="M 64.5,30.5 C 79.163,44.3288 93.9964,57.9955 109,71.5C 129.762,96.2585 149.762,121.592 169,147.5C 182.5,165 198,180.5 215.5,194C 218.362,195.299 221.362,196.132 224.5,196.5C 233.237,194.712 241.903,192.712 250.5,190.5C 251.442,190.608 252.275,190.941 253,191.5C 261.279,208.269 266.946,225.936 270,244.5C 277.419,283.582 279.419,322.915 276,362.5C 274.877,365.249 273.377,367.749 271.5,370C 238.228,377.215 213.395,395.715 197,425.5C 183.457,451.309 173.624,478.309 167.5,506.5C 148.365,489.24 136.198,467.906 131,442.5C 124.043,401.749 125.209,361.249 134.5,321C 133.874,316.996 132.708,313.163 131,309.5C 124.592,303.762 118.925,297.429 114,290.5C 104.9,277.301 96.567,263.634 89,249.5C 74.1075,188.359 65.2742,126.359 62.5,63.5C 62.3579,52.4206 63.0246,41.4206 64.5,30.5 Z"/></g>
<g><path style="opacity:1" fill="#59443a" d="M 533.5,31.5 C 534.5,31.5 535.5,31.5 536.5,31.5C 538.131,58.5362 537.631,85.5362 535,112.5C 529.95,156.911 522.617,200.911 513,244.5C 511.551,249.399 509.551,254.065 507,258.5C 498.076,273.351 488.41,287.685 478,301.5C 468.615,307.274 464.948,315.608 467,326.5C 471.971,347.374 474.137,368.541 473.5,390C 474.502,413.65 471.669,436.817 465,459.5C 457.768,480.336 445.435,497.336 428,510.5C 422.137,469.463 406.471,432.796 381,400.5C 366.799,385.645 349.632,375.811 329.5,371C 327.288,368.079 325.455,364.912 324,361.5C 320.268,312.423 324.602,264.09 337,216.5C 339.078,209.266 341.744,202.266 345,195.5C 350.685,196.04 356.352,195.373 362,193.5C 370.291,197.547 378.458,197.381 386.5,193C 399.633,182.201 411.8,170.368 423,157.5C 444,130.833 465,104.167 486,77.5C 502.033,62.2996 517.866,46.9662 533.5,31.5 Z"/></g>
<g><path style="opacity:1" fill="#070707" d="M 512.5,73.5 C 515.247,73.1866 517.914,73.52 520.5,74.5C 522.362,76.8624 523.529,79.5291 524,82.5C 524.582,113.185 519.248,142.852 508,171.5C 502,185.5 496,199.5 490,213.5C 486.943,229.908 483.609,246.242 480,262.5C 476.993,267.055 472.826,268.888 467.5,268C 464.595,266.714 461.595,265.714 458.5,265C 444.709,251.522 435.543,235.355 431,216.5C 429.974,202.291 432.308,188.624 438,175.5C 455.35,135.703 480.183,101.703 512.5,73.5 Z"/></g>
<g><path style="opacity:1" fill="#070706" d="M 81.5,76.5 C 83.5273,76.3379 85.5273,76.5045 87.5,77C 97.9216,84.0861 107.088,92.5861 115,102.5C 133.16,124.028 148.16,147.695 160,173.5C 163.938,183.648 167.272,193.981 170,204.5C 170.584,229.837 161.418,251.003 142.5,268C 137.469,272.174 131.802,273.674 125.5,272.5C 123.476,270.31 121.643,267.977 120,265.5C 117.074,248.426 113.74,231.426 110,214.5C 105.55,202.932 100.55,191.598 95,180.5C 84.0994,152.83 77.5994,124.164 75.5,94.5C 75.5753,90.4447 76.0753,86.4447 77,82.5C 77.8041,79.8541 79.3041,77.8541 81.5,76.5 Z"/></g>
<g><path style="opacity:1" fill="#9d9895" d="M 515.5,78.5 C 518.168,79.4567 519.668,81.4567 520,84.5C 519.22,114.4 513.554,143.4 503,171.5C 496.449,185.268 490.449,199.268 485,213.5C 481.777,228.064 479.11,242.731 477,257.5C 473.043,264.621 467.877,265.455 461.5,260C 437.664,239.161 430.497,213.661 440,183.5C 455.368,145.471 477.868,112.304 507.5,84C 510.07,81.9131 512.737,80.0798 515.5,78.5 Z"/></g>
<g><path style="opacity:1" fill="#9d9794" d="M 82.5,81.5 C 85.9278,81.5465 88.9278,82.7132 91.5,85C 123.668,115.495 147.168,151.661 162,193.5C 166.972,207.015 166.638,220.348 161,233.5C 156.683,242.803 151.349,251.47 145,259.5C 141.36,263.146 137.193,265.979 132.5,268C 128.006,268.832 125.172,266.998 124,262.5C 121.436,247.445 118.769,232.445 116,217.5C 111.436,203.704 105.769,190.371 99,177.5C 87.0739,148.264 81.0739,117.93 81,86.5C 81.3519,84.7525 81.8519,83.0858 82.5,81.5 Z"/></g>
<g><path style="opacity:1" fill="#f3f3f3" d="M 276.5,185.5 C 296.33,184.989 315.997,186.489 335.5,190C 335.957,190.414 336.291,190.914 336.5,191.5C 332.26,199.382 329.093,207.715 327,216.5C 315.19,263.465 310.856,311.131 314,359.5C 315.512,366.187 318.345,372.187 322.5,377.5C 353.48,385.982 376.646,404.315 392,432.5C 404.966,456.366 413.633,481.7 418,508.5C 420.088,524.388 417.422,539.388 410,553.5C 397.828,568.007 382.995,571.84 365.5,565C 360.074,561.871 354.907,558.371 350,554.5C 349.926,546.375 348.926,538.375 347,530.5C 337.238,518.397 329.571,505.063 324,490.5C 320.496,479.64 322.496,469.974 330,461.5C 335.946,455.554 341.946,449.554 348,443.5C 353.309,432.9 352.309,422.9 345,413.5C 334.457,401.812 321.291,395.312 305.5,394C 284.794,391.46 266.96,397.293 252,411.5C 242.232,422.173 241.232,433.506 249,445.5C 257.751,452.249 265.084,460.249 271,469.5C 273.457,479.075 272.79,488.408 269,497.5C 263.334,508.839 256.668,519.506 249,529.5C 248.178,531.788 247.511,534.122 247,536.5C 246.83,542.528 246.33,548.528 245.5,554.5C 238.755,560.54 231.089,565.04 222.5,568C 201.11,570.052 186.944,560.886 180,540.5C 176.698,525.839 176.698,511.173 180,496.5C 186.245,467.079 197.912,440.079 215,415.5C 231.361,394.819 252.527,381.985 278.5,377C 282.214,372.071 284.714,366.571 286,360.5C 289.333,311.495 284.999,263.161 273,215.5C 270.559,205.665 267.059,196.331 262.5,187.5C 267.37,187.31 272.036,186.644 276.5,185.5 Z"/></g>
<g><path style="opacity:1" fill="#9c9693" d="M 176.5,320.5 C 198.804,319.731 212.971,330.064 219,351.5C 220.514,373.994 210.347,388.161 188.5,394C 166.438,395.612 152.271,385.779 146,364.5C 144.247,341.44 154.414,326.773 176.5,320.5 Z"/></g>
<g><path style="opacity:1" fill="#9c9693" d="M 411.5,320.5 C 441.332,320.83 455.499,335.83 454,365.5C 447.937,384.054 435.103,393.72 415.5,394.5C 388.887,388.708 378.053,372.375 383,345.5C 388.638,332.622 398.138,324.288 411.5,320.5 Z"/></g>
<g><path style="opacity:1" fill="#241917" d="M 417.5,334.5 C 434.087,336.583 441.587,345.916 440,362.5C 436.912,373.581 429.578,379.581 418,380.5C 397.454,376.076 391.121,364.076 399,344.5C 403.937,338.619 410.104,335.285 417.5,334.5 Z"/></g>
<g><path style="opacity:1" fill="#251a17" d="M 181.5,334.5 C 195.711,335.43 203.711,342.93 205.5,357C 204.176,371.92 196.009,379.753 181,380.5C 163.005,376.175 156.672,365.175 162,347.5C 166.273,339.712 172.773,335.378 181.5,334.5 Z"/></g>
<g><path style="opacity:1" fill="#e8e8e8" d="M 186.5,345.5 C 191.406,344.306 194.406,346.139 195.5,351C 192.891,357.242 189.057,358.075 184,353.5C 183.023,350.183 183.856,347.516 186.5,345.5 Z"/></g>
<g><path style="opacity:1" fill="#e9e9e9" d="M 422.5,345.5 C 428.83,344.666 431.663,347.333 431,353.5C 427.333,357.5 423.667,357.5 420,353.5C 419.018,350.225 419.851,347.559 422.5,345.5 Z"/></g>
<g><path style="opacity:1" fill="#271c1a" d="M 243.5,473.5 C 251.302,473.787 253.302,477.287 249.5,484C 244.308,485.872 241.308,484.205 240.5,479C 240.863,476.808 241.863,474.974 243.5,473.5 Z"/></g>
<g><path style="opacity:1" fill="#271d1a" d="M 347.5,473.5 C 354.03,473.243 356.197,476.243 354,482.5C 347.095,486.382 343.761,484.382 344,476.5C 345.145,475.364 346.312,474.364 347.5,473.5 Z"/></g>
<g><path style="opacity:1" fill="#2b211e" d="M 220.5,482.5 C 226.75,482.882 228.417,485.715 225.5,491C 217.208,491.89 215.542,489.057 220.5,482.5 Z"/></g>
<g><path style="opacity:1" fill="#271c19" d="M 371.5,482.5 C 377.651,483.103 378.984,485.936 375.5,491C 370,492.167 367.833,490 369,484.5C 369.995,483.934 370.828,483.267 371.5,482.5 Z"/></g>
<g><path style="opacity:1" fill="#2b201e" d="M 198.5,484.5 C 204.016,484.473 205.349,486.64 202.5,491C 196.738,491.418 195.404,489.251 198.5,484.5 Z"/></g>
<g><path style="opacity:1" fill="#2a1f1c" d="M 392.5,484.5 C 398.158,483.679 399.825,485.846 397.5,491C 392.262,491.594 390.595,489.427 392.5,484.5 Z"/></g>
<g><path style="opacity:1" fill="#261c19" d="M 246.5,506.5 C 254.619,506.469 256.619,509.969 252.5,517C 247.345,518.677 244.345,516.844 243.5,511.5C 244.092,509.577 245.092,507.911 246.5,506.5 Z"/></g>
<g><path style="opacity:1" fill="#271c19" d="M 343.5,506.5 C 351.346,506.694 353.346,510.194 349.5,517C 340.352,517.536 338.352,514.036 343.5,506.5 Z"/></g>
<g><path style="opacity:1" fill="#261c19" d="M 203.5,514.5 C 207.976,514.8 209.31,516.967 207.5,521C 201.339,521.878 200.006,519.711 203.5,514.5 Z"/></g>
<g><path style="opacity:1" fill="#281d1a" d="M 388.5,514.5 C 393.214,514.201 394.88,516.201 393.5,520.5C 387.74,522.213 386.074,520.213 388.5,514.5 Z"/></g>
<g><path style="opacity:1" fill="#2b201d" d="M 226.5,514.5 C 232.023,514.562 233.856,517.229 232,522.5C 227.742,525.581 224.909,524.581 223.5,519.5C 224.092,517.577 225.092,515.911 226.5,514.5 Z"/></g>
<g><path style="opacity:1" fill="#2b211e" d="M 364.5,515.5 C 371.439,514.578 373.439,517.078 370.5,523C 367.49,525.222 364.99,524.722 363,521.5C 362.252,519.16 362.752,517.16 364.5,515.5 Z"/></g>
<g><path style="opacity:1" fill="#59443a" d="M 292.5,533.5 C 296.936,533.21 301.27,533.71 305.5,535C 315.36,539.76 324.36,545.76 332.5,553C 314.572,555.384 296.572,556.051 278.5,555C 273.373,554.822 268.373,553.988 263.5,552.5C 272.069,544.389 281.735,538.056 292.5,533.5 Z"/></g>
</svg>
