<?xml version="1.0" encoding="UTF-8"?>
<!DOCTYPE svg PUBLIC "-//W3C//DTD SVG 1.1//EN" "http://www.w3.org/Graphics/SVG/1.1/DTD/svg11.dtd">
<svg xmlns="http://www.w3.org/2000/svg" version="1.1" width="600px" height="600px" style="shape-rendering:geometricPrecision; text-rendering:geometricPrecision; image-rendering:optimizeQuality; fill-rule:evenodd; clip-rule:evenodd" xmlns:xlink="http://www.w3.org/1999/xlink">
<g><path style="opacity:0.979" fill="#010000" d="M 181.5,46.5 C 192.703,46.1851 201.536,50.5184 208,59.5C 237.815,50.7098 268.315,46.3764 299.5,46.5C 330.685,46.3764 361.185,50.7098 391,59.5C 397.486,50.3404 406.319,46.1737 417.5,47C 447.489,59.6638 477.489,72.3305 507.5,85C 529.418,94.2876 550.085,105.621 569.5,119C 585.252,132.25 591.085,149.084 587,169.5C 584.045,185.031 578.712,199.698 571,213.5C 546.441,248.951 527.441,287.285 514,328.5C 511.321,331.835 508.155,332.335 504.5,330C 499.218,323.602 495.385,316.435 493,308.5C 489.608,322.344 485.608,336.011 481,349.5C 471.058,375.326 460.725,400.993 450,426.5C 438.99,453.889 432.99,482.223 432,511.5C 426.285,549.855 405.952,560.855 371,544.5C 354.372,547.464 337.872,546.63 321.5,542C 315.5,538.749 309.334,535.916 303,533.5C 297.558,534.97 292.391,537.136 287.5,540C 275.793,543.785 263.793,545.951 251.5,546.5C 243.537,545.225 235.537,544.725 227.5,545C 197.613,558.976 177.78,550.143 168,518.5C 167.106,485.702 160.439,454.035 148,423.5C 138.39,400.613 129.057,377.613 120,354.5C 114.321,339.131 109.655,323.465 106,307.5C 103.787,316.429 99.6203,324.262 93.5,331C 90.0437,332.123 87.2103,331.29 85,328.5C 76.8189,302.468 66.1522,277.468 53,253.5C 43.1644,238.5 33.8311,223.167 25,207.5C 18.6681,195.171 14.3348,182.171 12,168.5C 8.24668,146.407 15.4133,128.907 33.5,116C 50.5766,104.792 68.5766,95.1256 87.5,87C 119.069,73.7648 150.402,60.2648 181.5,46.5 Z"/></g>
<g><path style="opacity:1" fill="#2f2a2b" d="M 183.5,57.5 C 185.927,57.523 188.26,58.023 190.5,59C 196.499,64.1326 201.166,70.2993 204.5,77.5C 204.023,78.4776 203.357,79.3109 202.5,80C 197.734,81.5841 193.4,83.9175 189.5,87C 180.572,95.2561 172.405,104.089 165,113.5C 161.815,120.023 157.815,126.023 153,131.5C 147.106,144.392 140.772,157.059 134,169.5C 129.639,182.279 124.972,194.946 120,207.5C 110.498,243.196 100.998,278.862 91.5,314.5C 80.9539,280.529 65.4539,249.196 45,220.5C 40.3333,211.833 35.6667,203.167 31,194.5C 27.3459,186.536 24.6792,178.203 23,169.5C 22.3333,162.167 22.3333,154.833 23,147.5C 26.8658,138.615 32.6991,131.115 40.5,125C 48.9393,119.298 57.6059,113.965 66.5,109C 105.337,91.3372 144.337,74.1705 183.5,57.5 Z"/></g>
<g><path style="opacity:1" fill="#734b27" d="M 284.5,57.5 C 304.218,57.0616 323.885,57.7283 343.5,59.5C 340.135,61.4623 336.468,62.9623 332.5,64C 321.76,66.4141 311.094,69.0808 300.5,72C 285.377,79.0613 270.377,86.3946 255.5,94C 236.833,100.667 218.167,107.333 199.5,114C 191.224,118.054 183.057,122.221 175,126.5C 174.517,125.552 174.351,124.552 174.5,123.5C 182.381,114.278 190.715,105.278 199.5,96.5C 203.408,93.1059 207.742,90.2725 212.5,88C 214.765,86.2419 216.432,84.0752 217.5,81.5C 218.165,79.3021 218.832,76.9688 219.5,74.5C 229.001,70.5843 238.001,65.9177 246.5,60.5C 250.81,59.9198 255.143,59.5865 259.5,59.5C 261.857,59.3367 264.19,59.5034 266.5,60C 255.517,69.164 243.517,76.8307 230.5,83C 251.475,80.6778 269.475,72.1778 284.5,57.5 Z"/></g>
<g><path style="opacity:1" fill="#2f2a2b" d="M 409.5,57.5 C 412.518,57.3354 415.518,57.502 418.5,58C 425.689,61.4267 432.689,65.0934 439.5,69C 472.478,81.68 504.812,95.68 536.5,111C 550.358,118.889 562.858,128.722 574,140.5C 577.291,147.836 578.291,155.502 577,163.5C 575.557,172.723 573.224,181.723 570,190.5C 566.289,196.956 562.956,203.623 560,210.5C 537.679,242.241 520.179,276.574 507.5,313.5C 506.036,310.997 504.869,308.33 504,305.5C 496.924,274.683 489.257,244.016 481,213.5C 472.359,184.639 460.692,157.306 446,131.5C 440,122.833 434,114.167 428,105.5C 421.833,99.3333 415.667,93.1667 409.5,87C 405.6,83.9175 401.266,81.5841 396.5,80C 395.643,79.3109 394.977,78.4776 394.5,77.5C 396.467,73.703 398.634,70.0364 401,66.5C 404.038,63.6306 406.871,60.6306 409.5,57.5 Z"/></g>
<g><path style="opacity:1" fill="#624022" d="M 284.5,57.5 C 269.475,72.1778 251.475,80.6778 230.5,83C 243.517,76.8307 255.517,69.164 266.5,60C 264.19,59.5034 261.857,59.3367 259.5,59.5C 267.623,58.0375 275.956,57.3709 284.5,57.5 Z"/></g>
<g><path style="opacity:1" fill="#624022" d="M 343.5,59.5 C 352.431,60.4204 361.098,62.0871 369.5,64.5C 358.548,65.1904 347.881,67.3571 337.5,71C 327.715,75.0589 318.048,79.3923 308.5,84C 281.021,91.7086 255.021,102.709 230.5,117C 213.83,122.601 196.83,126.934 179.5,130C 174.88,131.315 170.546,133.148 166.5,135.5C 168.673,131.148 171.34,127.148 174.5,123.5C 174.351,124.552 174.517,125.552 175,126.5C 183.057,122.221 191.224,118.054 199.5,114C 218.167,107.333 236.833,100.667 255.5,94C 270.377,86.3946 285.377,79.0613 300.5,72C 311.094,69.0808 321.76,66.4141 332.5,64C 336.468,62.9623 340.135,61.4623 343.5,59.5 Z"/></g>
<g><path style="opacity:1" fill="#5d3d21" d="M 246.5,60.5 C 238.001,65.9177 229.001,70.5843 219.5,74.5C 218.832,76.9688 218.165,79.3021 217.5,81.5C 217.251,76.8392 215.918,72.5059 213.5,68.5C 224.241,64.8179 235.241,62.1512 246.5,60.5 Z"/></g>
<g><path style="opacity:1" fill="#724b27" d="M 369.5,64.5 C 375.079,64.8948 380.412,66.2281 385.5,68.5C 383.485,71.7066 382.152,75.2066 381.5,79C 381.796,80.8882 382.296,82.7216 383,84.5C 406.221,98.5512 424.055,117.551 436.5,141.5C 436.631,142.239 436.464,142.906 436,143.5C 420.957,138.563 407.124,131.396 394.5,122C 387.609,113.433 379.276,106.767 369.5,102C 363.316,99.8319 356.983,99.1652 350.5,100C 356.79,102.812 362.79,106.145 368.5,110C 373.79,117.413 378.957,124.913 384,132.5C 391.058,141.449 400.225,146.949 411.5,149C 420.457,150.613 429.457,151.946 438.5,153C 440.661,153.585 442.661,154.418 444.5,155.5C 446.488,160.814 448.488,166.147 450.5,171.5C 438.829,171.667 427.162,171.5 415.5,171C 410.284,170.446 405.284,169.113 400.5,167C 390.974,161.405 381.974,155.071 373.5,148C 353.412,139.46 334.412,129.127 316.5,117C 310.411,113.748 304.078,111.082 297.5,109C 286.093,106.769 275.76,109.103 266.5,116C 260.779,120.721 254.779,125.054 248.5,129C 240.565,130.944 232.565,132.61 224.5,134C 218.573,136.935 212.906,140.268 207.5,144C 202.739,146.587 197.739,148.587 192.5,150C 180.448,151.244 168.615,153.41 157,156.5C 156.82,154.512 156.986,152.512 157.5,150.5C 159.283,144.729 162.283,139.729 166.5,135.5C 170.546,133.148 174.88,131.315 179.5,130C 196.83,126.934 213.83,122.601 230.5,117C 255.021,102.709 281.021,91.7086 308.5,84C 318.048,79.3923 327.715,75.0589 337.5,71C 347.881,67.3571 358.548,65.1904 369.5,64.5 Z"/></g>
<g><path style="opacity:1" fill="#624022" d="M 436.5,141.5 C 439.669,145.833 442.336,150.5 444.5,155.5C 442.661,154.418 440.661,153.585 438.5,153C 429.457,151.946 420.457,150.613 411.5,149C 400.225,146.949 391.058,141.449 384,132.5C 378.957,124.913 373.79,117.413 368.5,110C 362.79,106.145 356.79,102.812 350.5,100C 356.983,99.1652 363.316,99.8319 369.5,102C 379.276,106.767 387.609,113.433 394.5,122C 407.124,131.396 420.957,138.563 436,143.5C 436.464,142.906 436.631,142.239 436.5,141.5 Z"/></g>
<g><path style="opacity:1" fill="#54371d" d="M 199.5,96.5 C 190.715,105.278 182.381,114.278 174.5,123.5C 181.079,112.919 189.413,103.919 199.5,96.5 Z"/></g>
<g><path style="opacity:1" fill="#624022" d="M 444.5,155.5 C 451.977,169.573 458.31,184.24 463.5,199.5C 462.542,199.047 461.708,198.381 461,197.5C 459.882,195.235 459.049,192.901 458.5,190.5C 449.719,189.711 441.053,188.211 432.5,186C 420.724,181.945 409.057,177.611 397.5,173C 387.583,170.565 377.583,168.565 367.5,167C 364.833,165.667 362.167,164.333 359.5,163C 352.517,156.086 345.517,149.086 338.5,142C 318.852,126.227 296.519,119.561 271.5,122C 269.074,123.145 266.741,124.478 264.5,126C 259.542,133.415 254.709,140.915 250,148.5C 241.667,154.833 233.333,161.167 225,167.5C 222.112,172.776 218.612,177.609 214.5,182C 216.382,182.198 218.048,182.698 219.5,183.5C 192.307,182.681 171.807,194.014 158,217.5C 153.278,225.532 149.445,233.865 146.5,242.5C 139.979,245.136 133.312,246.469 126.5,246.5C 132.02,241.484 137.854,236.817 144,232.5C 148.615,221.994 153.615,211.661 159,201.5C 162.581,197.248 166.748,193.748 171.5,191C 183.605,185.781 195.272,179.781 206.5,173C 213.069,167.321 217.069,160.488 218.5,152.5C 213.742,155.03 208.742,156.863 203.5,158C 190.344,158.652 177.344,160.318 164.5,163C 157.328,165.838 151.662,170.505 147.5,177C 146.552,177.483 145.552,177.649 144.5,177.5C 147.897,167.933 152.231,158.933 157.5,150.5C 156.986,152.512 156.82,154.512 157,156.5C 168.615,153.41 180.448,151.244 192.5,150C 197.739,148.587 202.739,146.587 207.5,144C 212.906,140.268 218.573,136.935 224.5,134C 232.565,132.61 240.565,130.944 248.5,129C 254.779,125.054 260.779,120.721 266.5,116C 275.76,109.103 286.093,106.769 297.5,109C 304.078,111.082 310.411,113.748 316.5,117C 334.412,129.127 353.412,139.46 373.5,148C 381.974,155.071 390.974,161.405 400.5,167C 405.284,169.113 410.284,170.446 415.5,171C 427.162,171.5 438.829,171.667 450.5,171.5C 448.488,166.147 446.488,160.814 444.5,155.5 Z"/></g>
<g><path style="opacity:1" fill="#734b27" d="M 463.5,199.5 C 465.025,202.583 466.025,205.916 466.5,209.5C 466.5,211.5 466.5,213.5 466.5,215.5C 458.452,216.619 450.452,217.952 442.5,219.5C 417.853,181.754 385.519,173.588 345.5,195C 342.264,197.868 338.764,200.368 335,202.5C 334.768,201.263 334.268,200.263 333.5,199.5C 330.569,186.143 323.902,174.976 313.5,166C 301.866,159.063 291.199,160.229 281.5,169.5C 270.47,169.335 259.47,169.835 248.5,171C 241.718,173.771 236.051,178.104 231.5,184C 230.552,184.483 229.552,184.649 228.5,184.5C 225.57,183.701 222.57,183.368 219.5,183.5C 218.048,182.698 216.382,182.198 214.5,182C 218.612,177.609 222.112,172.776 225,167.5C 233.333,161.167 241.667,154.833 250,148.5C 254.709,140.915 259.542,133.415 264.5,126C 266.741,124.478 269.074,123.145 271.5,122C 296.519,119.561 318.852,126.227 338.5,142C 345.517,149.086 352.517,156.086 359.5,163C 362.167,164.333 364.833,165.667 367.5,167C 377.583,168.565 387.583,170.565 397.5,173C 409.057,177.611 420.724,181.945 432.5,186C 441.053,188.211 449.719,189.711 458.5,190.5C 459.049,192.901 459.882,195.235 461,197.5C 461.708,198.381 462.542,199.047 463.5,199.5 Z"/></g>
<g><path style="opacity:1" fill="#724a27" d="M 146.5,242.5 C 144.027,252.203 142.027,261.87 140.5,271.5C 133.334,274.609 125.834,276.609 118,277.5C 116.319,277.392 115.152,276.725 114.5,275.5C 121.121,241.654 131.121,208.987 144.5,177.5C 145.552,177.649 146.552,177.483 147.5,177C 151.662,170.505 157.328,165.838 164.5,163C 177.344,160.318 190.344,158.652 203.5,158C 208.742,156.863 213.742,155.03 218.5,152.5C 217.069,160.488 213.069,167.321 206.5,173C 195.272,179.781 183.605,185.781 171.5,191C 166.748,193.748 162.581,197.248 159,201.5C 153.615,211.661 148.615,221.994 144,232.5C 137.854,236.817 132.02,241.484 126.5,246.5C 133.312,246.469 139.979,245.136 146.5,242.5 Z"/></g>
<g><path style="opacity:1" fill="#624123" d="M 281.5,169.5 C 278.25,173.022 275.25,176.689 272.5,180.5C 262.901,181.15 253.901,183.816 245.5,188.5C 244.702,188.957 244.369,189.624 244.5,190.5C 239.302,187.882 233.968,185.882 228.5,184.5C 229.552,184.649 230.552,184.483 231.5,184C 236.051,178.104 241.718,173.771 248.5,171C 259.47,169.835 270.47,169.335 281.5,169.5 Z"/></g>
<g><path style="opacity:1" fill="#724b28" d="M 272.5,180.5 C 269.369,186.892 267.036,193.559 265.5,200.5C 264.778,200.918 264.278,201.584 264,202.5C 257.89,197.862 251.39,193.862 244.5,190.5C 244.369,189.624 244.702,188.957 245.5,188.5C 253.901,183.816 262.901,181.15 272.5,180.5 Z"/></g>
<g><path style="opacity:1" fill="#3d3732" d="M 219.5,183.5 C 222.57,183.368 225.57,183.701 228.5,184.5C 233.968,185.882 239.302,187.882 244.5,190.5C 251.39,193.862 257.89,197.862 264,202.5C 264.278,201.584 264.778,200.918 265.5,200.5C 264.222,206.514 264.388,212.514 266,218.5C 270.942,231.993 276.275,245.326 282,258.5C 289.118,275.158 291.451,292.491 289,310.5C 288.568,320.029 287.068,329.362 284.5,338.5C 235.449,336.19 201.116,357.524 181.5,402.5C 179.605,401.027 177.939,399.36 176.5,397.5C 173.5,392.833 170.5,388.167 167.5,383.5C 164.804,378.766 162.138,374.099 159.5,369.5C 156.97,363.909 154.637,358.242 152.5,352.5C 151.141,348.747 149.807,345.081 148.5,341.5C 147.371,336.112 146.037,330.779 144.5,325.5C 143.899,319.638 142.899,313.971 141.5,308.5C 141.065,300.505 140.731,292.505 140.5,284.5C 140.5,280.167 140.5,275.833 140.5,271.5C 142.027,261.87 144.027,252.203 146.5,242.5C 149.445,233.865 153.278,225.532 158,217.5C 171.807,194.014 192.307,182.681 219.5,183.5 Z"/></g>
<g><path style="opacity:1" fill="#3c3732" d="M 442.5,219.5 C 443.596,222.032 444.929,224.365 446.5,226.5C 448.305,231.916 450.305,237.249 452.5,242.5C 453.503,246.521 454.503,250.521 455.5,254.5C 458.01,267.032 459.01,279.698 458.5,292.5C 457.947,297.482 457.613,302.482 457.5,307.5C 455.473,320.304 452.806,332.971 449.5,345.5C 447.519,350.429 445.519,355.429 443.5,360.5C 442.108,363.007 441.108,365.673 440.5,368.5C 437.17,374.492 433.837,380.492 430.5,386.5C 426.167,391.833 421.833,397.167 417.5,402.5C 398.212,358.071 364.046,336.404 315,337.5C 307.168,311.283 307.835,285.283 317,259.5C 322,247.167 327,234.833 332,222.5C 334.49,214.943 334.99,207.276 333.5,199.5C 334.268,200.263 334.768,201.263 335,202.5C 338.764,200.368 342.264,197.868 345.5,195C 385.519,173.588 417.853,181.754 442.5,219.5 Z"/></g>
<g><path style="opacity:1" fill="#603f22" d="M 466.5,209.5 C 470.079,217.795 472.745,226.462 474.5,235.5C 471.4,231.937 470.067,227.603 470.5,222.5C 462.435,223.446 454.435,224.78 446.5,226.5C 444.929,224.365 443.596,222.032 442.5,219.5C 450.452,217.952 458.452,216.619 466.5,215.5C 466.5,213.5 466.5,211.5 466.5,209.5 Z"/></g>
<g><path style="opacity:1" fill="#734b27" d="M 474.5,235.5 C 474.5,237.5 474.5,239.5 474.5,241.5C 467.11,241.236 459.777,241.57 452.5,242.5C 450.305,237.249 448.305,231.916 446.5,226.5C 454.435,224.78 462.435,223.446 470.5,222.5C 470.067,227.603 471.4,231.937 474.5,235.5 Z"/></g>
<g><path style="opacity:1" fill="#312b2c" d="M 214.5,229.5 C 225.583,227.804 234.417,231.471 241,240.5C 247.617,249.348 250.784,259.182 250.5,270C 242.746,272.708 235.079,275.708 227.5,279C 216.133,281.86 205.467,280.194 195.5,274C 189.053,269.887 182.886,265.387 177,260.5C 175.699,258.635 175.365,256.635 176,254.5C 186.361,242.244 199.195,233.91 214.5,229.5 Z"/></g>
<g><path style="opacity:1" fill="#312b2c" d="M 371.5,229.5 C 391.719,229.692 408.552,237.359 422,252.5C 423.373,254.695 423.706,257.029 423,259.5C 412.868,269.303 401.034,276.136 387.5,280C 382.096,280.772 376.762,280.439 371.5,279C 363.935,275.717 356.268,272.717 348.5,270C 348.764,252.306 356.431,238.806 371.5,229.5 Z"/></g>
<g><path style="opacity:1" fill="#6d4f34" d="M 213.5,232.5 C 225.139,232.067 233.973,236.734 240,246.5C 243.329,265.144 235.496,275.477 216.5,277.5C 195.886,273.601 189.386,261.935 197,242.5C 201.759,237.714 207.259,234.381 213.5,232.5 Z"/></g>
<g><path style="opacity:1" fill="#6d4f34" d="M 377.5,232.5 C 395.604,232.115 405.104,240.782 406,258.5C 403.093,268.406 396.593,274.573 386.5,277C 372.541,278.437 363.041,272.603 358,259.5C 357.15,245.201 363.65,236.201 377.5,232.5 Z"/></g>
<g><path style="opacity:1" fill="#020201" d="M 225.5,244.5 C 222.045,245.128 220.878,247.128 222,250.5C 224.83,253.101 227.663,253.101 230.5,250.5C 232.489,264.009 226.489,269.842 212.5,268C 204.263,265.032 201.096,259.198 203,250.5C 208.755,241.408 216.255,239.408 225.5,244.5 Z"/></g>
<g><path style="opacity:1" fill="#030202" d="M 390.5,244.5 C 386.854,245.462 385.687,247.795 387,251.5C 389.064,252.591 391.231,252.758 393.5,252C 394.252,251.329 394.586,250.496 394.5,249.5C 398.182,256.655 396.515,262.488 389.5,267C 382.23,269.752 375.73,268.585 370,263.5C 364.587,250.991 368.587,243.658 382,241.5C 385.241,241.634 388.075,242.634 390.5,244.5 Z"/></g>
<g><path style="opacity:1" fill="#614022" d="M 474.5,235.5 C 476.706,240.503 478.039,245.836 478.5,251.5C 477.244,251.096 476.077,250.429 475,249.5C 468.119,250.011 461.619,251.678 455.5,254.5C 454.503,250.521 453.503,246.521 452.5,242.5C 459.777,241.57 467.11,241.236 474.5,241.5C 474.5,239.5 474.5,237.5 474.5,235.5 Z"/></g>
<g><path style="opacity:1" fill="#eaeaea" d="M 225.5,244.5 C 229.357,244.69 231.024,246.69 230.5,250.5C 227.663,253.101 224.83,253.101 222,250.5C 220.878,247.128 222.045,245.128 225.5,244.5 Z"/></g>
<g><path style="opacity:1" fill="#eeeeee" d="M 390.5,244.5 C 393.297,244.967 394.631,246.633 394.5,249.5C 394.586,250.496 394.252,251.329 393.5,252C 391.231,252.758 389.064,252.591 387,251.5C 385.687,247.795 386.854,245.462 390.5,244.5 Z"/></g>
<g><path style="opacity:1" fill="#724b27" d="M 478.5,251.5 C 481.102,259.24 483.102,267.24 484.5,275.5C 484.5,277.833 484.5,280.167 484.5,282.5C 475.627,285.269 466.961,288.602 458.5,292.5C 459.01,279.698 458.01,267.032 455.5,254.5C 461.619,251.678 468.119,250.011 475,249.5C 476.077,250.429 477.244,251.096 478.5,251.5 Z"/></g>
<g><path style="opacity:1" fill="#624022" d="M 140.5,271.5 C 140.5,275.833 140.5,280.167 140.5,284.5C 132.708,290.453 125.041,296.62 117.5,303C 116.748,303.671 116.414,304.504 116.5,305.5C 115.26,302.976 114.093,300.309 113,297.5C 110.952,296.902 109.785,295.569 109.5,293.5C 110.882,287.294 112.548,281.294 114.5,275.5C 115.152,276.725 116.319,277.392 118,277.5C 125.834,276.609 133.334,274.609 140.5,271.5 Z"/></g>
<g><path style="opacity:1" fill="#614022" d="M 484.5,275.5 C 486.795,281.185 488.462,287.185 489.5,293.5C 489.457,294.416 489.124,295.083 488.5,295.5C 488.44,294.957 488.107,294.624 487.5,294.5C 477.474,298.848 467.474,303.181 457.5,307.5C 457.613,302.482 457.947,297.482 458.5,292.5C 466.961,288.602 475.627,285.269 484.5,282.5C 484.5,280.167 484.5,277.833 484.5,275.5 Z"/></g>
<g><path style="opacity:1" fill="#724b27" d="M 140.5,284.5 C 140.731,292.505 141.065,300.505 141.5,308.5C 141.719,309.675 141.386,310.675 140.5,311.5C 133.966,315.345 126.966,318.012 119.5,319.5C 117.874,314.992 116.874,310.325 116.5,305.5C 116.414,304.504 116.748,303.671 117.5,303C 125.041,296.62 132.708,290.453 140.5,284.5 Z"/></g>
<g><path style="opacity:1" fill="#724a27" d="M 488.5,295.5 C 486.856,296.316 485.69,297.65 485,299.5C 481.402,315.124 476.902,330.457 471.5,345.5C 464.932,345.473 458.432,346.14 452,347.5C 450.624,347.316 449.791,346.649 449.5,345.5C 452.806,332.971 455.473,320.304 457.5,307.5C 467.474,303.181 477.474,298.848 487.5,294.5C 488.107,294.624 488.44,294.957 488.5,295.5 Z"/></g>
<g><path style="opacity:1" fill="#624023" d="M 141.5,308.5 C 142.899,313.971 143.899,319.638 144.5,325.5C 136.944,325.31 129.611,325.977 122.5,327.5C 121.129,325.064 120.129,322.397 119.5,319.5C 126.966,318.012 133.966,315.345 140.5,311.5C 141.386,310.675 141.719,309.675 141.5,308.5 Z"/></g>
<g><path style="opacity:1" fill="#724b27" d="M 144.5,325.5 C 146.037,330.779 147.371,336.112 148.5,341.5C 142.364,344.984 136.03,347.984 129.5,350.5C 126.562,343.018 124.228,335.351 122.5,327.5C 129.611,325.977 136.944,325.31 144.5,325.5 Z"/></g>
<g><path style="opacity:1" fill="#2f2a2b" d="M 333.5,199.5 C 334.99,207.276 334.49,214.943 332,222.5C 327,234.833 322,247.167 317,259.5C 307.835,285.283 307.168,311.283 315,337.5C 364.046,336.404 398.212,358.071 417.5,402.5C 417.557,403.609 417.89,404.609 418.5,405.5C 421.4,411.484 423.233,417.818 424,424.5C 425.506,436.646 427.006,448.646 428.5,460.5C 426.445,469.816 424.278,479.15 422,488.5C 421.87,498.882 421.204,509.216 420,519.5C 418.112,529.137 412.946,536.304 404.5,541C 399.5,541.667 394.5,541.667 389.5,541C 384.157,538.994 378.823,536.994 373.5,535C 368.833,535 364.167,535 359.5,535C 353.687,529.925 347.354,525.592 340.5,522C 332.167,512.665 325,502.498 319,491.5C 311.398,468.935 313.398,447.268 325,426.5C 329.745,422.878 334.578,419.378 339.5,416C 354.328,402.83 357.495,387.33 349,369.5C 342.002,361.416 333.169,356.582 322.5,355C 302.43,350.796 282.764,352.13 263.5,359C 246.322,368.189 241.155,382.022 248,400.5C 253.167,411 261,418.833 271.5,424C 283.907,441.704 287.741,461.204 283,482.5C 277.657,500.4 267.157,514.234 251.5,524C 248.167,527.333 244.833,530.667 241.5,534C 232.17,532.134 223.504,533.801 215.5,539C 204.022,543.964 194.188,541.797 186,532.5C 182.53,527.226 179.864,521.56 178,515.5C 178.536,495.321 175.703,475.655 169.5,456.5C 171.502,441.83 174.169,427.164 177.5,412.5C 179.028,409.251 180.361,405.918 181.5,402.5C 201.116,357.524 235.449,336.19 284.5,338.5C 287.068,329.362 288.568,320.029 289,310.5C 291.451,292.491 289.118,275.158 282,258.5C 276.275,245.326 270.942,231.993 266,218.5C 264.388,212.514 264.222,206.514 265.5,200.5C 267.036,193.559 269.369,186.892 272.5,180.5C 275.25,176.689 278.25,173.022 281.5,169.5C 291.199,160.229 301.866,159.063 313.5,166C 323.902,174.976 330.569,186.143 333.5,199.5 Z"/></g>
<g><path style="opacity:1" fill="#624023" d="M 148.5,341.5 C 149.807,345.081 151.141,348.747 152.5,352.5C 151.85,352.196 151.183,351.863 150.5,351.5C 144.802,354.344 139.469,357.677 134.5,361.5C 132.594,358.017 130.928,354.35 129.5,350.5C 136.03,347.984 142.364,344.984 148.5,341.5 Z"/></g>
<g><path style="opacity:1" fill="#624023" d="M 449.5,345.5 C 449.791,346.649 450.624,347.316 452,347.5C 458.432,346.14 464.932,345.473 471.5,345.5C 469.815,349.571 468.148,353.571 466.5,357.5C 458.953,359.34 451.287,360.34 443.5,360.5C 445.519,355.429 447.519,350.429 449.5,345.5 Z"/></g>
<g><path style="opacity:1" fill="#734b27" d="M 152.5,352.5 C 154.637,358.242 156.97,363.909 159.5,369.5C 153.7,373.23 147.366,376.23 140.5,378.5C 138.214,372.93 136.214,367.263 134.5,361.5C 139.469,357.677 144.802,354.344 150.5,351.5C 151.183,351.863 151.85,352.196 152.5,352.5 Z"/></g>
<g><path style="opacity:1" fill="#724b27" d="M 466.5,357.5 C 465.442,361.279 464.109,364.946 462.5,368.5C 454.965,368.72 447.632,368.72 440.5,368.5C 441.108,365.673 442.108,363.007 443.5,360.5C 451.287,360.34 458.953,359.34 466.5,357.5 Z"/></g>
<g><path style="opacity:1" fill="#624023" d="M 440.5,368.5 C 447.632,368.72 454.965,368.72 462.5,368.5C 460.072,375.012 457.405,381.345 454.5,387.5C 452.257,386.188 449.59,385.522 446.5,385.5C 441.162,385.834 435.828,386.168 430.5,386.5C 433.837,380.492 437.17,374.492 440.5,368.5 Z"/></g>
<g><path style="opacity:1" fill="#624023" d="M 159.5,369.5 C 162.138,374.099 164.804,378.766 167.5,383.5C 161.304,385.599 154.971,387.099 148.5,388C 147.027,388.71 146.36,389.876 146.5,391.5C 144.261,387.351 142.261,383.018 140.5,378.5C 147.366,376.23 153.7,373.23 159.5,369.5 Z"/></g>
<g><path style="opacity:1" fill="#734b27" d="M 167.5,383.5 C 170.5,388.167 173.5,392.833 176.5,397.5C 167.476,397.93 158.476,398.597 149.5,399.5C 148.108,396.993 147.108,394.327 146.5,391.5C 146.36,389.876 147.027,388.71 148.5,388C 154.971,387.099 161.304,385.599 167.5,383.5 Z"/></g>
<g><path style="opacity:1" fill="#6d4725" d="M 454.5,387.5 C 453.028,391.917 451.362,396.25 449.5,400.5C 438.969,401.007 428.635,402.673 418.5,405.5C 417.89,404.609 417.557,403.609 417.5,402.5C 421.833,397.167 426.167,391.833 430.5,386.5C 435.828,386.168 441.162,385.834 446.5,385.5C 449.59,385.522 452.257,386.188 454.5,387.5 Z"/></g>
<g><path style="opacity:1" fill="#624022" d="M 176.5,397.5 C 177.939,399.36 179.605,401.027 181.5,402.5C 180.361,405.918 179.028,409.251 177.5,412.5C 170.264,412.765 163.264,413.765 156.5,415.5C 153.796,410.409 151.463,405.076 149.5,399.5C 158.476,398.597 167.476,397.93 176.5,397.5 Z"/></g>
<g><path style="opacity:1" fill="#6f4927" d="M 177.5,412.5 C 174.169,427.164 171.502,441.83 169.5,456.5C 165.764,442.627 161.431,428.96 156.5,415.5C 163.264,413.765 170.264,412.765 177.5,412.5 Z"/></g>
<g><path style="opacity:1" fill="#624022" d="M 449.5,400.5 C 440.91,419.938 433.91,439.938 428.5,460.5C 427.006,448.646 425.506,436.646 424,424.5C 423.233,417.818 421.4,411.484 418.5,405.5C 428.635,402.673 438.969,401.007 449.5,400.5 Z"/></g>
<g><path style="opacity:1" fill="#040404" d="M 209.5,416.5 C 216.733,416.545 218.733,419.711 215.5,426C 210.327,427.871 207.327,426.204 206.5,421C 207.315,419.357 208.315,417.857 209.5,416.5 Z"/></g>
<g><path style="opacity:1" fill="#040303" d="M 374.5,416.5 C 380.337,415.518 383.17,417.851 383,423.5C 379.667,427.5 376.333,427.5 373,423.5C 372.391,420.935 372.891,418.601 374.5,416.5 Z"/></g>
<g><path style="opacity:1" fill="#020101" d="M 358.5,437.5 C 365.341,438.016 367.007,441.182 363.5,447C 357,448.5 354.5,446 356,439.5C 356.995,438.934 357.828,438.267 358.5,437.5 Z"/></g>
<g><path style="opacity:1" fill="#020101" d="M 226.5,438.5 C 233.488,437.648 235.822,440.481 233.5,447C 228.634,449.706 225.634,448.373 224.5,443C 224.519,441.167 225.185,439.667 226.5,438.5 Z"/></g>
<g><path style="opacity:1" fill="#020102" d="M 199.5,439.5 C 207.021,439.39 209.021,442.557 205.5,449C 197.421,449.892 195.421,446.725 199.5,439.5 Z"/></g>
<g><path style="opacity:1" fill="#010101" d="M 384.5,439.5 C 392.219,438.87 394.219,441.87 390.5,448.5C 385.929,450.381 383.263,448.881 382.5,444C 382.519,442.167 383.185,440.667 384.5,439.5 Z"/></g>
<g><path style="opacity:1" fill="#020101" d="M 341.5,455.5 C 349.219,454.87 351.219,457.87 347.5,464.5C 342.929,466.381 340.263,464.881 339.5,460C 339.519,458.167 340.185,456.667 341.5,455.5 Z"/></g>
<g><path style="opacity:1" fill="#010101" d="M 243.5,455.5 C 250.341,456.016 252.007,459.182 248.5,465C 240.03,465.531 238.364,462.364 243.5,455.5 Z"/></g>
<g><path style="opacity:1" fill="#030202" d="M 367.5,460.5 C 372.835,460.005 375.335,462.338 375,467.5C 370.451,471.89 366.951,471.223 364.5,465.5C 365.092,463.577 366.092,461.911 367.5,460.5 Z"/></g>
<g><path style="opacity:1" fill="#040303" d="M 216.5,461.5 C 219.119,461.232 221.619,461.565 224,462.5C 226.412,468.76 224.245,471.593 217.5,471C 213.846,468.209 213.513,465.043 216.5,461.5 Z"/></g>
<g><path style="opacity:1" fill="#020101" d="M 190.5,462.5 C 197.628,462.706 199.294,465.873 195.5,472C 190.932,473.65 188.266,472.15 187.5,467.5C 188.092,465.577 189.092,463.911 190.5,462.5 Z"/></g>
<g><path style="opacity:1" fill="#060505" d="M 394.5,461.5 C 402.774,461.929 404.44,465.429 399.5,472C 394.188,472.942 391.688,470.775 392,465.5C 392.662,464.016 393.496,462.683 394.5,461.5 Z"/></g>
</svg>
