<?xml version="1.0" encoding="UTF-8"?>
<!DOCTYPE svg PUBLIC "-//W3C//DTD SVG 1.1//EN" "http://www.w3.org/Graphics/SVG/1.1/DTD/svg11.dtd">
<svg xmlns="http://www.w3.org/2000/svg" version="1.1" width="600px" height="600px" style="shape-rendering:geometricPrecision; text-rendering:geometricPrecision; image-rendering:optimizeQuality; fill-rule:evenodd; clip-rule:evenodd" xmlns:xlink="http://www.w3.org/1999/xlink">
<g><path style="opacity:0.947" fill="#030303" d="M 175.5,67.5 C 188.114,66.0916 198.614,70.0916 207,79.5C 209.671,83.6622 212.505,87.6622 215.5,91.5C 270.321,74.1763 325.155,74.1763 380,91.5C 386.007,80.4933 394.841,72.6599 406.5,68C 410.833,67.3333 415.167,67.3333 419.5,68C 461.131,82.5435 502.464,97.8768 543.5,114C 557.772,120.044 570.606,128.211 582,138.5C 589.018,149.264 591.018,160.93 588,173.5C 584.972,184.889 580.305,195.556 574,205.5C 562.175,221.149 550.842,237.149 540,253.5C 530.454,268.927 522.787,285.261 517,302.5C 511.519,310.423 505.852,310.423 500,302.5C 499,300.5 498,298.5 497,296.5C 494.699,355.074 476.699,408.074 443,455.5C 437.354,465.416 434.521,476.083 434.5,487.5C 435.633,501.807 435.8,516.141 435,530.5C 434.364,534.226 433.197,537.726 431.5,541C 434.004,554.993 428.67,564.659 415.5,570C 394.392,575.98 375.725,571.646 359.5,557C 352.539,548.37 345.205,540.037 337.5,532C 332.133,531.597 326.799,530.93 321.5,530C 313.726,527.297 305.893,524.797 298,522.5C 291.377,524.263 284.877,526.43 278.5,529C 272.87,530.185 267.203,531.185 261.5,532C 253.823,540.011 246.49,548.345 239.5,557C 223.275,571.646 204.608,575.98 183.5,570C 169.076,563.817 164.076,553.15 168.5,538C 166.302,533.043 164.802,527.876 164,522.5C 162.664,506.129 160.997,489.796 159,473.5C 157.973,469.392 156.64,465.392 155,461.5C 147.251,448.333 139.251,435.333 131,422.5C 110.94,382.929 99.9401,340.929 98,296.5C 95.9505,302.55 91.9505,306.55 86,308.5C 83.5941,308.297 81.5941,307.297 80,305.5C 73.6831,288.533 66.0164,272.199 57,256.5C 42.9425,236.774 29.2759,216.774 16,196.5C 10.0719,185.383 6.57193,173.549 5.5,161C 5.96053,147.741 11.6272,137.408 22.5,130C 40.1129,118.902 58.7796,109.902 78.5,103C 111.2,91.8257 143.534,79.9924 175.5,67.5 Z"/></g>
<g><path style="opacity:1" fill="#ececec" d="M 209.5,101.5 C 192.861,109.591 178.695,120.924 167,135.5C 150.638,156.553 137.638,179.553 128,204.5C 118.423,231.605 109.923,258.938 102.5,286.5C 94.3949,284.059 89.2283,287.059 87,295.5C 73.8389,262.159 55.8389,231.826 33,204.5C 26.9455,195.058 21.9455,185.058 18,174.5C 12.621,158.636 16.7877,146.136 30.5,137C 48.3848,126.725 67.0515,118.059 86.5,111C 116.986,100.394 147.32,89.3938 177.5,78C 184.295,76.7268 190.295,78.3935 195.5,83C 200.552,88.9659 205.218,95.1325 209.5,101.5 Z"/></g>
<g><path style="opacity:1" fill="#ececec" d="M 491.5,283.5 C 484.502,258.673 477.002,234.007 469,209.5C 457.76,180.313 442.427,153.646 423,129.5C 412.307,117.588 399.807,108.255 385.5,101.5C 389.77,95.171 394.437,89.0043 399.5,83C 404.982,78.0923 411.315,76.4256 418.5,78C 460.054,93.1112 501.387,108.778 542.5,125C 551.089,129.266 559.422,133.933 567.5,139C 578.051,147.049 581.551,157.549 578,170.5C 574.474,183.55 568.808,195.55 561,206.5C 538.51,233.123 520.843,262.789 508,295.5C 506.294,291.921 504.461,288.421 502.5,285C 499.021,282.663 495.354,282.163 491.5,283.5 Z"/></g>
<g><path style="opacity:1" fill="#f5f5f5" d="M 385.5,101.5 C 399.807,108.255 412.307,117.588 423,129.5C 442.427,153.646 457.76,180.313 469,209.5C 477.002,234.007 484.502,258.673 491.5,283.5C 489.03,285.082 487.53,287.415 487,290.5C 485.715,334.941 475.048,376.941 455,416.5C 447.251,429.667 439.251,442.667 431,455.5C 426.474,464.631 424.307,474.298 424.5,484.5C 425.458,498.493 425.625,512.493 425,526.5C 424.605,530.019 423.605,533.352 422,536.5C 424.836,550.705 419.336,559.205 405.5,562C 391.517,563.84 379.184,560.173 368.5,551C 360.538,541.369 352.204,532.036 343.5,523C 339.687,521.228 335.687,520.395 331.5,520.5C 327.733,514.62 323.733,508.954 319.5,503.5C 312.289,490.041 301.622,486.207 287.5,492C 283.559,495.438 280.225,499.271 277.5,503.5C 274.108,509.267 270.442,514.934 266.5,520.5C 262.537,520.089 258.87,520.922 255.5,523C 247.129,531.703 239.129,540.703 231.5,550C 219.164,561.334 204.831,565.001 188.5,561C 177.818,556.283 174.485,548.283 178.5,537C 177.772,533.372 176.606,529.872 175,526.5C 173.087,511.89 171.753,497.223 171,482.5C 170.08,471.073 166.746,460.406 161,450.5C 127.596,403.289 109.929,350.623 108,292.5C 106.669,290.004 104.836,288.004 102.5,286.5C 109.923,258.938 118.423,231.605 128,204.5C 137.638,179.553 150.638,156.553 167,135.5C 178.695,120.924 192.861,109.591 209.5,101.5C 212.518,101.665 215.518,101.498 218.5,101C 272.819,84.0299 326.985,84.5299 381,102.5C 382.356,101.62 383.856,101.286 385.5,101.5 Z"/></g>
<g><path style="opacity:1" fill="#edecec" d="M 200.5,177.5 C 221.431,175.646 239.765,181.479 255.5,195C 268.284,206.431 278.784,219.598 287,234.5C 290.478,254.216 290.145,273.882 286,293.5C 283.189,303.259 277.356,310.759 268.5,316C 254.567,321.965 241.233,328.965 228.5,337C 223.3,341.865 218.467,347.032 214,352.5C 207.126,367.247 199.46,381.58 191,395.5C 186.798,407.771 182.798,420.105 179,432.5C 162.468,410.104 150.802,385.438 144,358.5C 134.469,320.586 134.136,282.586 143,244.5C 148.602,223.115 159.436,204.948 175.5,190C 183.1,184.2 191.433,180.033 200.5,177.5 Z"/></g>
<g><path style="opacity:1" fill="#ededec" d="M 372.5,177.5 C 393.583,175.582 411.416,182.249 426,197.5C 442.251,217.547 451.918,240.547 455,266.5C 461.071,318.089 452.071,366.755 428,412.5C 424.697,417.969 421.197,423.302 417.5,428.5C 416.914,428.291 416.414,427.957 416,427.5C 413.406,417.717 410.406,408.05 407,398.5C 400.918,387.667 395.918,376.334 392,364.5C 385.707,350.873 376.207,340.04 363.5,332C 351.01,325.922 338.677,319.589 326.5,313C 318.459,306.755 313.626,298.588 312,288.5C 306.719,263.054 309.052,238.388 319,214.5C 333.007,196.277 350.84,183.944 372.5,177.5 Z"/></g>
<g><path style="opacity:1" fill="#d7beba" d="M 205.5,243.5 C 234.526,244.021 248.026,258.688 246,287.5C 239.239,308.643 224.739,317.809 202.5,315C 182.381,307.939 173.548,293.772 176,272.5C 180.067,256.898 189.9,247.231 205.5,243.5 Z"/></g>
<g><path style="opacity:1" fill="#d7beba" d="M 377.5,243.5 C 406.25,243.417 420.417,257.75 420,286.5C 409.841,313.996 391.341,321.829 364.5,310C 348.047,296.899 344.214,280.733 353,261.5C 356.131,257.367 359.631,253.534 363.5,250C 368.227,247.715 372.893,245.548 377.5,243.5 Z"/></g>
<g><path style="opacity:1" fill="#020201" d="M 203.5,253.5 C 220.066,251.359 231.233,258.025 237,273.5C 237.64,297.415 226.14,307.915 202.5,305C 185.239,295.885 180.739,282.385 189,264.5C 192.915,259.477 197.749,255.81 203.5,253.5 Z"/></g>
<g><path style="opacity:1" fill="#010101" d="M 377.5,253.5 C 400.206,252.374 411.039,263.04 410,285.5C 403.611,302.945 391.444,309.112 373.5,304C 359.492,295.811 354.992,283.978 360,268.5C 363.889,261.103 369.722,256.103 377.5,253.5 Z"/></g>
<g><path style="opacity:1" fill="#f4f4f4" d="M 217.5,264.5 C 227.311,264.139 229.977,268.306 225.5,277C 216.956,280.322 213.123,277.489 214,268.5C 214.69,266.65 215.856,265.316 217.5,264.5 Z"/></g>
<g><path style="opacity:1" fill="#f3f3f3" d="M 390.5,264.5 C 400.525,263.731 403.525,267.898 399.5,277C 390.319,280.325 386.485,277.158 388,267.5C 389.045,266.627 389.878,265.627 390.5,264.5 Z"/></g>
<g><path style="opacity:1" fill="#000000" d="M 280.5,349.5 C 295.264,348.919 309.931,349.753 324.5,352C 346.739,357.58 356.239,371.746 353,394.5C 349.07,409.443 340.236,420.609 326.5,428C 297.697,442.573 272.53,437.74 251,413.5C 240.82,399.976 238.82,385.31 245,369.5C 248.878,363.955 253.711,359.455 259.5,356C 266.472,353.347 273.472,351.18 280.5,349.5 Z"/></g>
<g><path style="opacity:1" fill="#e07fa2" d="M 319.5,503.5 C 307.014,506.583 294.347,507.25 281.5,505.5C 279.667,505.415 278.334,504.748 277.5,503.5C 280.225,499.271 283.559,495.438 287.5,492C 301.622,486.207 312.289,490.041 319.5,503.5 Z"/></g>
<g><path style="opacity:1" fill="#f0e0e0" d="M 277.5,503.5 C 278.334,504.748 279.667,505.415 281.5,505.5C 294.347,507.25 307.014,506.583 319.5,503.5C 323.733,508.954 327.733,514.62 331.5,520.5C 322.969,520.408 314.969,518.241 307.5,514C 304.402,513.082 301.235,512.582 298,512.5C 287.45,515.074 276.95,517.741 266.5,520.5C 270.442,514.934 274.108,509.267 277.5,503.5 Z"/></g>
</svg>
