<?xml version="1.0" encoding="UTF-8"?>
<!DOCTYPE svg PUBLIC "-//W3C//DTD SVG 1.1//EN" "http://www.w3.org/Graphics/SVG/1.1/DTD/svg11.dtd">
<svg xmlns="http://www.w3.org/2000/svg" version="1.1" width="600px" height="600px" style="shape-rendering:geometricPrecision; text-rendering:geometricPrecision; image-rendering:optimizeQuality; fill-rule:evenodd; clip-rule:evenodd" xmlns:xlink="http://www.w3.org/1999/xlink">
<g><path style="opacity:0.957" fill="#010000" d="M 599.5,315.5 C 599.5,362.5 599.5,409.5 599.5,456.5C 594.377,487.64 585.21,517.64 572,546.5C 564.9,560.189 555.733,572.356 544.5,583C 531.345,593.156 517.012,595.156 501.5,589C 487.554,581.395 475.721,571.228 466,558.5C 454.441,540.94 442.107,523.94 429,507.5C 423.893,500.288 419.56,492.621 416,484.5C 415.026,510.217 413.359,535.883 411,561.5C 408.449,581.965 396.782,592.298 376,592.5C 365.477,592.327 356.144,588.994 348,582.5C 343.997,575.678 339.83,569.011 335.5,562.5C 311.576,566.626 287.743,566.292 264,561.5C 260.828,565.841 258.161,570.508 256,575.5C 248.386,587.475 237.386,593.142 223,592.5C 208.787,593.566 198.454,587.899 192,575.5C 189.182,567.742 187.515,559.742 187,551.5C 185.697,528.434 184.364,505.434 183,482.5C 179.855,489.456 176.189,496.123 172,502.5C 159.225,518.608 147.225,535.275 136,552.5C 126.417,565.418 114.917,576.252 101.5,585C 85.3042,593.2 69.9709,591.866 55.5,581C 42.1844,568.534 31.6844,554.034 24,537.5C 12.3884,509.706 4.22172,481.04 -0.5,451.5C -0.5,405.833 -0.5,360.167 -0.5,314.5C 14.6844,268.445 33.5177,223.778 56,180.5C 69.2397,155.015 83.2397,130.015 98,105.5C 106.278,92.8898 114.944,80.5564 124,68.5C 146.491,47.5047 172.991,34.338 203.5,29C 258.853,2.79286 315.519,-0.540473 373.5,19C 383.293,22.3738 392.626,26.7072 401.5,32C 428.786,38.474 452.786,50.974 473.5,69.5C 483.401,81.6361 492.568,94.3028 501,107.5C 541.657,173.146 574.49,242.48 599.5,315.5 Z"/></g>
<g><path style="opacity:1" fill="#67462f" d="M 322.5,18.5 C 337.908,22.0729 348.075,31.4063 353,46.5C 353.667,51.1667 353.667,55.8333 353,60.5C 335.396,110.581 333.729,161.247 348,212.5C 353.877,232.7 360.044,252.7 366.5,272.5C 379.521,311.397 391.021,350.73 401,390.5C 403.158,403.41 404.325,416.41 404.5,429.5C 404.665,433.182 404.499,436.848 404,440.5C 389.863,425.362 375.363,410.529 360.5,396C 359.906,395.536 359.239,395.369 358.5,395.5C 353.172,388.02 346.172,382.52 337.5,379C 312.167,371.667 286.833,371.667 261.5,379C 243.885,385.961 234.885,398.961 234.5,418C 235.045,434.583 241.378,448.417 253.5,459.5C 261.594,488.694 263.594,518.36 259.5,548.5C 259.167,549.167 258.833,549.833 258.5,550.5C 253.522,557.775 249.022,565.441 245,573.5C 235.772,582.405 224.938,584.905 212.5,581C 205.492,578.656 201.326,573.823 200,566.5C 199.147,562.531 198.481,558.531 198,554.5C 195.995,523.864 194.829,493.198 194.5,462.5C 193.527,437.335 195.027,412.335 199,387.5C 202.539,374.142 206.206,360.808 210,347.5C 224.6,306.033 238.6,264.367 252,222.5C 267.503,168.61 265.836,115.277 247,62.5C 244.168,40.8094 253.001,26.476 273.5,19.5C 289.756,15.9643 306.089,15.631 322.5,18.5 Z"/></g>
<g><path style="opacity:1" fill="#4b3123" d="M 273.5,19.5 C 253.001,26.476 244.168,40.8094 247,62.5C 265.836,115.277 267.503,168.61 252,222.5C 238.6,264.367 224.6,306.033 210,347.5C 206.206,360.808 202.539,374.142 199,387.5C 195.027,412.335 193.527,437.335 194.5,462.5C 187.084,433.242 178.418,404.242 168.5,375.5C 147.302,320.371 133.468,263.371 127,204.5C 121.809,157.727 132.809,115.393 160,77.5C 172.381,62.927 186.548,50.5936 202.5,40.5C 224.681,28.5816 248.348,21.5816 273.5,19.5 Z"/></g>
<g><path style="opacity:1" fill="#4b3123" d="M 322.5,18.5 C 350.61,21.4266 376.943,29.7599 401.5,43.5C 442.542,71.2092 466.042,109.876 472,159.5C 473.404,172.474 473.737,185.474 473,198.5C 468.468,246.328 458.635,292.995 443.5,338.5C 417.814,316.477 392.147,294.477 366.5,272.5C 360.044,252.7 353.877,232.7 348,212.5C 333.729,161.247 335.396,110.581 353,60.5C 353.667,55.8333 353.667,51.1667 353,46.5C 348.075,31.4063 337.908,22.0729 322.5,18.5 Z"/></g>
<g><path style="opacity:1" fill="#371f16" d="M 202.5,40.5 C 186.548,50.5936 172.381,62.927 160,77.5C 132.809,115.393 121.809,157.727 127,204.5C 133.468,263.371 147.302,320.371 168.5,375.5C 167.903,375.735 167.57,376.235 167.5,377C 174.828,407.068 177.661,437.568 176,468.5C 173.484,479.53 168.818,489.53 162,498.5C 147.845,516.812 134.178,535.478 121,554.5C 114.431,561.739 107.265,568.239 99.5,574C 86.8761,581.642 74.5428,581.309 62.5,573C 42.7116,553.274 29.2116,529.774 22,502.5C 7.49465,448.781 1.82798,394.114 5,338.5C 7.92973,322.448 12.2631,306.781 18,291.5C 43.4691,226.229 74.4691,163.896 111,104.5C 128.893,72.9641 155.393,52.1307 190.5,42C 194.44,40.9847 198.44,40.4847 202.5,40.5 Z"/></g>
<g><path style="opacity:1" fill="#371f16" d="M 401.5,43.5 C 423.042,48.1052 442.375,57.2719 459.5,71C 464.219,74.5968 468.386,78.7635 472,83.5C 519.784,154.07 558.117,229.737 587,310.5C 595.005,336.935 597.672,363.935 595,391.5C 593.656,415.303 591.156,438.97 587.5,462.5C 586.061,463.509 584.728,463.176 583.5,461.5C 537.135,420.467 490.468,379.8 443.5,339.5C 443.5,339.167 443.5,338.833 443.5,338.5C 458.635,292.995 468.468,246.328 473,198.5C 473.737,185.474 473.404,172.474 472,159.5C 466.042,109.876 442.542,71.2092 401.5,43.5 Z"/></g>
<g><path style="opacity:1" fill="#2d170e" d="M 427.5,179.5 C 415.028,169.933 401.028,163.6 385.5,160.5C 380.781,159.757 376.281,158.09 372,155.5C 366.792,141.264 371.792,133.264 387,131.5C 411.458,135.057 429.458,147.723 441,169.5C 445.803,177.937 449.637,186.771 452.5,196C 452.491,197.404 451.991,198.57 451,199.5C 443.588,192.248 435.755,185.581 427.5,179.5 Z"/></g>
<g><path style="opacity:1" fill="#2d170e" d="M 223.5,160.5 C 216.718,161.869 210.385,164.202 204.5,167.5C 199.15,169.504 194.484,172.504 190.5,176.5C 190.565,176.062 190.399,175.728 190,175.5C 185.021,178.652 180.521,182.319 176.5,186.5C 170.374,190.792 165.041,195.958 160.5,202C 159.207,202.49 157.873,202.657 156.5,202.5C 160.21,177.567 172.21,157.734 192.5,143C 199.442,139.02 206.776,136.02 214.5,134C 223.203,131.786 230.037,134.286 235,141.5C 237.177,146.606 236.677,151.439 233.5,156C 229.958,157.275 226.625,158.775 223.5,160.5 Z"/></g>
<g><path style="opacity:1" fill="#95662f" d="M 385.5,160.5 C 401.028,163.6 415.028,169.933 427.5,179.5C 429.798,198.091 422.132,210.257 404.5,216C 388,218.667 376.167,212.501 369,197.5C 364.272,182.563 368.106,170.396 380.5,161C 382.134,160.506 383.801,160.34 385.5,160.5 Z"/></g>
<g><path style="opacity:1" fill="#96662f" d="M 223.5,160.5 C 237.5,172.527 240.334,186.86 232,203.5C 222.137,215.563 209.637,219.397 194.5,215C 182.621,209.274 176.621,199.774 176.5,186.5C 180.521,182.319 185.021,178.652 190,175.5C 190.399,175.728 190.565,176.062 190.5,176.5C 184.576,192.315 189.909,201.982 206.5,205.5C 222.077,202.671 227.744,193.671 223.5,178.5C 223.5,173.167 220.833,170.5 215.5,170.5C 212.191,168.63 208.525,167.63 204.5,167.5C 210.385,164.202 216.718,161.869 223.5,160.5 Z"/></g>
<g><path style="opacity:1" fill="#040404" d="M 204.5,167.5 C 208.525,167.63 212.191,168.63 215.5,170.5C 210.63,172.267 209.297,175.6 211.5,180.5C 216.239,184.652 220.239,183.985 223.5,178.5C 227.744,193.671 222.077,202.671 206.5,205.5C 189.909,201.982 184.576,192.315 190.5,176.5C 194.484,172.504 199.15,169.504 204.5,167.5 Z"/></g>
<g><path style="opacity:1" fill="#040304" d="M 406.5,170.5 C 402.256,173.267 401.422,176.934 404,181.5C 407.759,184.189 411.259,183.855 414.5,180.5C 417.9,192.995 413.234,201.162 400.5,205C 387.101,205.438 379.768,198.938 378.5,185.5C 380.272,174.729 386.605,168.729 397.5,167.5C 400.831,167.885 403.831,168.885 406.5,170.5 Z"/></g>
<g><path style="opacity:1" fill="#f1f0f0" d="M 215.5,170.5 C 220.833,170.5 223.5,173.167 223.5,178.5C 220.239,183.985 216.239,184.652 211.5,180.5C 209.297,175.6 210.63,172.267 215.5,170.5 Z"/></g>
<g><path style="opacity:1" fill="#f1f0f0" d="M 406.5,170.5 C 413.301,170.627 415.968,173.961 414.5,180.5C 411.259,183.855 407.759,184.189 404,181.5C 401.422,176.934 402.256,173.267 406.5,170.5 Z"/></g>
<g><path style="opacity:1" fill="#452d21" d="M 366.5,272.5 C 392.147,294.477 417.814,316.477 443.5,338.5C 443.5,338.833 443.5,339.167 443.5,339.5C 439.991,348.688 436.658,358.021 433.5,367.5C 422.517,398.106 413.184,429.106 405.5,460.5C 405.828,449.986 405.494,439.653 404.5,429.5C 404.325,416.41 403.158,403.41 401,390.5C 391.021,350.73 379.521,311.397 366.5,272.5 Z"/></g>
<g><path style="opacity:1" fill="#331d16" d="M 443.5,339.5 C 490.468,379.8 537.135,420.467 583.5,461.5C 584.728,463.176 586.061,463.509 587.5,462.5C 582.889,492.832 573.389,521.498 559,548.5C 551.932,561.569 542.098,572.069 529.5,580C 522.941,582.767 516.275,583.1 509.5,581C 505.29,579.377 501.29,577.377 497.5,575C 480.131,560.399 465.964,543.233 455,523.5C 442.755,510.015 432.755,495.015 425,478.5C 420.929,441.377 424.096,404.877 434.5,369C 434.43,368.235 434.097,367.735 433.5,367.5C 436.658,358.021 439.991,348.688 443.5,339.5 Z"/></g>
<g><path style="opacity:1" fill="#030304" d="M 358.5,395.5 C 368.903,419.157 364.903,440.157 346.5,458.5C 329.966,474.511 310.299,481.011 287.5,478C 282.607,476.649 277.94,474.815 273.5,472.5C 266.294,468.954 259.627,464.621 253.5,459.5C 241.378,448.417 235.045,434.583 234.5,418C 234.885,398.961 243.885,385.961 261.5,379C 286.833,371.667 312.167,371.667 337.5,379C 346.172,382.52 353.172,388.02 358.5,395.5 Z"/></g>
<g><path style="opacity:1" fill="#593c29" d="M 358.5,395.5 C 359.239,395.369 359.906,395.536 360.5,396C 375.363,410.529 389.863,425.362 404,440.5C 404.499,436.848 404.665,433.182 404.5,429.5C 405.494,439.653 405.828,449.986 405.5,460.5C 404.916,489.846 403.75,519.179 402,548.5C 401.88,556.251 400.38,563.585 397.5,570.5C 377.568,555.908 357.901,540.908 338.5,525.5C 338.5,519.167 338.5,512.833 338.5,506.5C 338.587,489.98 341.253,473.98 346.5,458.5C 364.903,440.157 368.903,419.157 358.5,395.5 Z"/></g>
<g><path style="opacity:1" fill="#422b20" d="M 346.5,458.5 C 341.253,473.98 338.587,489.98 338.5,506.5C 337.833,512.014 337.167,517.681 336.5,523.5C 316.643,507.809 296.643,492.309 276.5,477C 274.859,475.871 273.859,474.371 273.5,472.5C 277.94,474.815 282.607,476.649 287.5,478C 310.299,481.011 329.966,474.511 346.5,458.5 Z"/></g>
<g><path style="opacity:1" fill="#4b3123" d="M 253.5,459.5 C 259.627,464.621 266.294,468.954 273.5,472.5C 273.859,474.371 274.859,475.871 276.5,477C 296.643,492.309 316.643,507.809 336.5,523.5C 337.167,517.681 337.833,512.014 338.5,506.5C 338.5,512.833 338.5,519.167 338.5,525.5C 338.889,533.164 339.222,540.83 339.5,548.5C 334.447,540.609 328.114,533.776 320.5,528C 300.041,517.625 282.207,521.125 267,538.5C 264.252,541.734 261.752,545.068 259.5,548.5C 263.594,518.36 261.594,488.694 253.5,459.5 Z"/></g>
<g><path style="opacity:1" fill="#1d1202" d="M 339.5,548.5 C 340.167,549.5 340.833,550.5 341.5,551.5C 313.752,555.69 286.085,555.356 258.5,550.5C 258.833,549.833 259.167,549.167 259.5,548.5C 261.752,545.068 264.252,541.734 267,538.5C 282.207,521.125 300.041,517.625 320.5,528C 328.114,533.776 334.447,540.609 339.5,548.5 Z"/></g>
<g><path style="opacity:1" fill="#67462f" d="M 338.5,525.5 C 357.901,540.908 377.568,555.908 397.5,570.5C 395.899,575.927 392.233,579.093 386.5,580C 378.824,581.954 371.158,581.954 363.5,580C 360.241,578.789 357.408,576.956 355,574.5C 350.672,566.686 346.172,559.019 341.5,551.5C 340.833,550.5 340.167,549.5 339.5,548.5C 339.222,540.83 338.889,533.164 338.5,525.5 Z"/></g>
</svg>
