<?xml version="1.0" encoding="UTF-8"?>
<!DOCTYPE svg PUBLIC "-//W3C//DTD SVG 1.1//EN" "http://www.w3.org/Graphics/SVG/1.1/DTD/svg11.dtd">
<svg xmlns="http://www.w3.org/2000/svg" version="1.1" width="600px" height="600px" style="shape-rendering:geometricPrecision; text-rendering:geometricPrecision; image-rendering:optimizeQuality; fill-rule:evenodd; clip-rule:evenodd" xmlns:xlink="http://www.w3.org/1999/xlink">
<g><path style="opacity:0.959" fill="#020101" d="M 599.5,285.5 C 599.5,297.833 599.5,310.167 599.5,322.5C 596.996,323.765 594.496,324.099 592,323.5C 592.662,327.483 593.662,331.483 595,335.5C 598.215,346.486 598.215,357.486 595,368.5C 590.684,385.096 586.684,401.763 583,418.5C 582.208,420.587 581.041,422.421 579.5,424C 576.784,424.782 574.45,426.116 572.5,428C 574.082,434.336 572.415,439.67 567.5,444C 566.207,444.49 564.873,444.657 563.5,444.5C 565.61,456.774 568.276,468.941 571.5,481C 571.231,489.931 566.731,495.098 558,496.5C 553.872,495.513 550.039,493.846 546.5,491.5C 544.471,493.858 542.471,496.192 540.5,498.5C 545.571,510.88 550.737,523.213 556,535.5C 557.115,543.94 553.448,548.607 545,549.5C 537.547,548.191 530.713,545.358 524.5,541C 516.556,536.111 509.056,530.611 502,524.5C 503.635,536.879 506.469,549.045 510.5,561C 507.28,572.142 500.613,574.809 490.5,569C 486.761,565.383 482.928,561.883 479,558.5C 480.26,564.637 481.76,570.803 483.5,577C 483.061,583.938 479.395,587.772 472.5,588.5C 469.548,587.932 466.881,586.766 464.5,585C 456.969,577.803 449.802,570.303 443,562.5C 440.627,574.687 433.96,578.02 423,572.5C 415.333,583.167 407.667,583.167 400,572.5C 398.202,567.322 397.202,561.989 397,556.5C 395.538,560.519 393.705,564.352 391.5,568C 386.208,571.434 381.041,571.267 376,567.5C 374.529,571.581 372.862,575.581 371,579.5C 366.452,585.077 360.952,586.41 354.5,583.5C 346.584,592.544 338.751,592.544 331,583.5C 325.209,593.986 316.709,597.152 305.5,593C 302.131,590.635 299.964,587.468 299,583.5C 293.476,595.01 284.976,597.843 273.5,592C 270.422,589.677 267.922,586.843 266,583.5C 258.481,592.689 250.814,592.689 243,583.5C 237.017,586.173 231.683,585.173 227,580.5C 224.799,576.217 222.799,571.883 221,567.5C 214.063,572.176 208.063,571.176 203,564.5C 202.206,561.529 201.539,558.529 201,555.5C 200.221,562.081 198.554,568.414 196,574.5C 189.087,581.92 181.92,581.92 174.5,574.5C 164.519,576.754 159.019,572.754 158,562.5C 151.198,570.303 144.031,577.803 136.5,585C 130.888,589.622 125.388,589.455 120,584.5C 118.448,582.232 117.615,579.732 117.5,577C 119.034,570.424 120.534,563.924 122,557.5C 118.221,561.279 114.387,565.113 110.5,569C 100.327,574.799 93.6604,572.132 90.5,561C 94.5314,549.045 97.3648,536.879 99,524.5C 88.2521,533.904 76.4188,541.737 63.5,548C 58.2951,550.302 53.2951,549.969 48.5,547C 45.5135,543.708 44.3468,539.875 45,535.5C 50.646,523.043 56.146,510.543 61.5,498C 57.751,496.799 54.751,494.633 52.5,491.5C 44.3618,498.356 36.8618,497.689 30,489.5C 28.6071,484.905 28.2738,480.239 29,475.5C 32.2567,465.383 34.4234,455.049 35.5,444.5C 31.0388,444.21 28.2055,441.877 27,437.5C 26.6667,433.833 26.3333,430.167 26,426.5C 22.2102,425.714 19.2102,423.714 17,420.5C 10.9535,397.485 5.78685,374.319 1.5,351C 2.79427,342.032 4.79427,333.198 7.5,324.5C 4.7334,324.142 2.06674,323.475 -0.5,322.5C -0.5,310.167 -0.5,297.833 -0.5,285.5C 6.80465,272.232 14.638,259.232 23,246.5C 32.4597,225.045 45.1263,205.712 61,188.5C 61.7828,182.585 63.4495,176.918 66,171.5C 71.3333,165.5 76.6667,159.5 82,153.5C 79.3898,150.342 77.8898,146.509 77.5,142C 79.4691,135.01 83.4691,129.344 89.5,125C 95.6598,120.42 101.993,116.086 108.5,112C 103.09,105.212 103.424,98.7116 109.5,92.5C 111.359,90.8076 113.359,89.3076 115.5,88C 123.531,84.3167 131.531,80.65 139.5,77C 133.308,67.1231 135.642,59.7898 146.5,55C 155.069,52.6281 163.736,50.7948 172.5,49.5C 172.563,41.1792 176.563,36.0125 184.5,34C 199.608,29.7596 214.941,28.5929 230.5,30.5C 228.492,24.7132 229.492,19.5465 233.5,15C 249.412,11.3063 264.078,14.3063 277.5,24C 279.81,24.4966 282.143,24.6633 284.5,24.5C 288.239,9.08392 297.239,4.91726 311.5,12C 314.743,15.5566 316.743,19.7232 317.5,24.5C 323.079,24.4634 328.079,22.63 332.5,19C 342.337,14.2991 352.67,12.2991 363.5,13C 371.66,16.1611 374.327,21.9944 371.5,30.5C 388.971,28.1425 405.971,29.9758 422.5,36C 426.808,39.3887 429.141,43.8887 429.5,49.5C 438.221,51.0109 446.887,52.8443 455.5,55C 466.358,59.7898 468.692,67.1231 462.5,77C 470.469,80.65 478.469,84.3167 486.5,88C 492.621,91.2583 496.288,96.2583 497.5,103C 497.129,106.455 495.795,109.455 493.5,112C 503.757,118.206 512.923,125.706 521,134.5C 524.944,141.45 523.777,147.283 517.5,152C 524.074,157.904 529.908,164.404 535,171.5C 538.143,176.523 539.143,181.856 538,187.5C 547.717,199.55 557.051,211.883 566,224.5C 570.045,231.96 573.712,239.627 577,247.5C 585.296,259.767 592.796,272.434 599.5,285.5 Z"/></g>
<g><path style="opacity:1" fill="#bf9d79" d="M 515.5,177.5 C 514.5,177.5 513.5,177.5 512.5,177.5C 515.399,191.218 521.565,203.218 531,213.5C 533.988,218.131 535.822,223.131 536.5,228.5C 532.487,226.678 528.82,224.178 525.5,221C 524.552,220.517 523.552,220.351 522.5,220.5C 523.42,228.861 524.587,237.195 526,245.5C 529.609,255.659 533.609,265.659 538,275.5C 538.497,278.146 538.664,280.813 538.5,283.5C 537.448,283.649 536.448,283.483 535.5,283C 533.971,279.971 531.638,277.805 528.5,276.5C 527.335,285.482 527.168,294.482 528,303.5C 530.871,315.854 532.704,328.354 533.5,341C 533.625,344.355 533.125,347.522 532,350.5C 528.694,347.233 525.861,343.567 523.5,339.5C 522.808,340.025 522.308,340.692 522,341.5C 520.18,350.072 519.347,358.738 519.5,367.5C 521.097,379.774 521.597,392.107 521,404.5C 519.853,405.458 518.853,405.125 518,403.5C 516.425,398.09 514.092,393.09 511,388.5C 508.757,392.223 507.09,396.223 506,400.5C 505.768,399.263 505.268,398.263 504.5,397.5C 503.517,387.854 502.684,378.188 502,368.5C 501.022,331.154 499.689,293.821 498,256.5C 496.912,202.503 476.079,158.003 435.5,123C 395.164,91.9878 352.498,88.3212 307.5,112C 301.747,112.851 296.08,112.517 290.5,111C 248.327,89.0712 207.994,92.0712 169.5,120C 131.985,150.184 110.485,189.35 105,237.5C 102.163,277.112 100.497,316.779 100,356.5C 98.9739,371.514 97.8073,386.514 96.5,401.5C 94.9154,397.128 92.9154,392.794 90.5,388.5C 87.6781,394.331 84.6781,399.998 81.5,405.5C 80.4505,392.648 80.7838,379.815 82.5,367C 81.8946,358.096 80.728,349.262 79,340.5C 78.3333,339.167 77.6667,339.167 77,340.5C 75.5606,343.603 73.7272,346.436 71.5,349C 70.2161,349.684 69.0495,349.517 68,348.5C 67.5472,341.808 67.8806,335.141 69,328.5C 72.9201,311.386 74.7534,294.053 74.5,276.5C 70.8689,277.608 67.8689,279.774 65.5,283C 64.552,283.483 63.552,283.649 62.5,283.5C 62.267,278.966 63.1003,274.632 65,270.5C 73.891,254.936 78.0576,238.27 77.5,220.5C 73.5,223.5 69.5,226.5 65.5,229.5C 64.359,227.579 64.1923,225.579 65,223.5C 69.1499,214.362 74.4832,206.029 81,198.5C 84.4029,191.789 86.9029,184.789 88.5,177.5C 85.0787,177.518 82.4121,178.851 80.5,181.5C 77.994,182.75 75.3274,183.416 72.5,183.5C 72.8406,180.484 74.0073,177.818 76,175.5C 82.9687,167.53 90.302,159.864 98,152.5C 100.5,148.167 103,143.833 105.5,139.5C 104.833,139.167 104.167,138.833 103.5,138.5C 98.5779,140.464 93.5779,142.131 88.5,143.5C 88.933,140.715 90.2663,138.381 92.5,136.5C 101.301,128.934 110.634,122.1 120.5,116C 124.023,111.978 127.357,107.811 130.5,103.5C 129.5,103.167 128.5,102.833 127.5,102.5C 123.151,103.636 118.817,103.636 114.5,102.5C 115.313,101.186 116.313,100.019 117.5,99C 127.895,93.4699 138.561,88.4699 149.5,84C 154.899,80.6399 159.899,76.8066 164.5,72.5C 159.198,71.6705 153.864,71.1705 148.5,71C 146.342,69.6883 146.009,68.0217 147.5,66C 149.957,64.4379 152.624,63.4379 155.5,63C 166.153,61.24 176.82,59.5734 187.5,58C 193.297,56.9027 198.631,54.736 203.5,51.5C 202.975,50.8076 202.308,50.3076 201.5,50C 195.723,49.794 190.056,48.9607 184.5,47.5C 183.289,46.7261 183.289,45.8928 184.5,45C 194.043,41.8271 203.877,40.3271 214,40.5C 226.584,42.1475 239.084,41.6475 251.5,39C 253.158,38.2747 253.658,37.108 253,35.5C 248.185,32.1818 243.685,28.5151 239.5,24.5C 239.709,23.914 240.043,23.414 240.5,23C 252.972,22.9552 264.305,26.6218 274.5,34C 279.833,34.6667 285.167,34.6667 290.5,34C 292.854,30.1159 294.688,25.9492 296,21.5C 299.333,17.5 302.667,17.5 306,21.5C 307.068,26.0504 308.902,30.2171 311.5,34C 316.833,34.6667 322.167,34.6667 327.5,34C 334.105,29.8644 341.105,26.531 348.5,24C 352.779,22.7561 357.112,22.4228 361.5,23C 362.451,23.7175 362.617,24.5509 362,25.5C 357.667,28.8333 353.333,32.1667 349,35.5C 348.251,36.635 348.417,37.635 349.5,38.5C 362.188,41.5909 375.021,42.2576 388,40.5C 398.09,40.4067 407.923,41.9067 417.5,45C 418.711,45.8928 418.711,46.7261 417.5,47.5C 411.944,48.9607 406.277,49.794 400.5,50C 398.729,50.5354 398.396,51.3687 399.5,52.5C 404.055,54.6105 408.722,56.4438 413.5,58C 426.608,59.777 439.608,62.1104 452.5,65C 455.035,65.9282 456.035,67.7615 455.5,70.5C 449.501,71.034 443.501,71.7006 437.5,72.5C 441.428,76.4689 445.761,79.9689 450.5,83C 460.715,87.9409 471.048,92.6075 481.5,97C 483.976,98.3088 485.976,100.142 487.5,102.5C 485.833,102.833 484.167,103.167 482.5,103.5C 478.778,102.704 475.112,102.704 471.5,103.5C 474.977,108.145 478.644,112.645 482.5,117C 492.963,123.651 502.796,131.151 512,139.5C 513.982,141.246 513.815,142.579 511.5,143.5C 506.626,141.598 501.793,139.598 497,137.5C 496.5,137.833 496,138.167 495.5,138.5C 497.898,144.296 501.064,149.63 505,154.5C 512.365,161.53 519.365,168.864 526,176.5C 527.411,178.65 528.245,180.984 528.5,183.5C 527.127,183.657 525.793,183.49 524.5,183C 521.472,181.156 518.472,179.322 515.5,177.5 Z"/></g>
<g><path style="opacity:1" fill="#704628" d="M 504.5,397.5 C 507.731,421.489 512.564,445.155 519,468.5C 520.703,474.456 522.869,480.122 525.5,485.5C 530.441,503.25 537.441,520.584 546.5,537.5C 546.291,538.086 545.957,538.586 545.5,539C 526.309,531.337 509.975,519.504 496.5,503.5C 502.8,506.776 509.133,510.109 515.5,513.5C 516.5,513.167 517.167,512.5 517.5,511.5C 496.109,466.946 483.276,419.946 479,370.5C 478.222,335.143 476.888,299.809 475,264.5C 475.468,228.634 464.468,196.967 442,169.5C 416.38,142.563 384.88,129.563 347.5,130.5C 341.167,130.667 334.833,130.833 328.5,131C 321.596,133.451 314.93,136.451 308.5,140C 303.151,141.929 297.818,141.929 292.5,140C 285.848,136.174 278.848,133.174 271.5,131C 227.861,125.017 190.694,137.517 160,168.5C 143.193,188.121 132.86,210.787 129,236.5C 126.95,252.102 125.617,267.768 125,283.5C 124.135,316.188 122.801,348.854 121,381.5C 115.957,427.01 103.457,470.344 83.5,511.5C 84.723,512.614 86.0563,512.781 87.5,512C 93.2619,509.119 98.9286,506.286 104.5,503.5C 91.1502,518.862 75.1502,530.862 56.5,539.5C 55.3861,538.277 55.2195,536.944 56,535.5C 64.3105,519.063 71.1439,502.063 76.5,484.5C 80.8124,473.458 84.3124,462.125 87,450.5C 90.5989,434.238 93.7655,417.905 96.5,401.5C 97.8073,386.514 98.9739,371.514 100,356.5C 100.497,316.779 102.163,277.112 105,237.5C 110.485,189.35 131.985,150.184 169.5,120C 207.994,92.0712 248.327,89.0712 290.5,111C 296.08,112.517 301.747,112.851 307.5,112C 352.498,88.3212 395.164,91.9878 435.5,123C 476.079,158.003 496.912,202.503 498,256.5C 499.689,293.821 501.022,331.154 502,368.5C 502.684,378.188 503.517,387.854 504.5,397.5 Z"/></g>
<g><path style="opacity:1" fill="#8e5f42" d="M 496.5,503.5 C 494.5,501.833 492.5,500.167 490.5,498.5C 482.733,492.567 475.733,485.734 469.5,478C 468.216,477.316 467.049,477.483 466,478.5C 466.968,496.8 470.468,514.634 476.5,532C 476.167,532.5 475.833,533 475.5,533.5C 474.06,532.048 472.394,531.048 470.5,530.5C 468.212,526.544 465.212,523.211 461.5,520.5C 454.762,512.688 448.762,504.355 443.5,495.5C 442.334,502.516 442.5,509.516 444,516.5C 446.29,526.16 449.123,535.66 452.5,545C 452.15,546.257 451.483,546.591 450.5,546C 446,541.5 441.5,537 437,532.5C 436.51,531.207 436.343,529.873 436.5,528.5C 436.667,516.162 436.5,503.829 436,491.5C 434.114,477.193 432.614,462.86 431.5,448.5C 434.595,448.626 436.428,450.293 437,453.5C 440.774,467.04 445.107,480.373 450,493.5C 452.09,494.791 453.424,494.124 454,491.5C 453.637,475.112 452.303,458.779 450,442.5C 446.301,424.04 442.135,405.707 437.5,387.5C 440.263,387.744 442.429,389.077 444,391.5C 447.916,396.996 451.582,402.663 455,408.5C 456.444,410.155 458.278,410.822 460.5,410.5C 454.901,373.195 441.735,338.861 421,307.5C 390.067,266.706 348.734,247.039 297,248.5C 242.604,248.026 200.604,270.359 171,315.5C 153.255,344.901 141.755,376.567 136.5,410.5C 137.873,410.657 139.207,410.49 140.5,410C 145,403.5 149.5,397 154,390.5C 155.264,388.393 157.097,387.393 159.5,387.5C 155.189,406.416 151.022,425.416 147,444.5C 144.636,460.438 143.303,476.438 143,492.5C 144.079,494.394 145.413,494.727 147,493.5C 151.931,480.375 156.264,467.041 160,453.5C 160.572,450.293 162.405,448.626 165.5,448.5C 164.084,463.498 162.584,478.498 161,493.5C 160.301,507.516 160.467,521.516 161.5,535.5C 157.501,539.33 153.335,542.997 149,546.5C 148.833,545.833 148.667,545.167 148.5,544.5C 152.447,533.047 155.613,521.381 158,509.5C 158.828,504.798 158.662,500.131 157.5,495.5C 151.874,504.441 145.541,512.774 138.5,520.5C 135.453,523.545 132.787,526.878 130.5,530.5C 128.516,530.383 126.85,531.05 125.5,532.5C 125.167,532 124.833,531.5 124.5,531C 130.423,513.957 133.923,496.457 135,478.5C 133.542,477.253 132.042,477.253 130.5,478.5C 124.119,485.548 117.452,492.215 110.5,498.5C 108.5,500.167 106.5,501.833 104.5,503.5C 98.9286,506.286 93.2619,509.119 87.5,512C 86.0563,512.781 84.723,512.614 83.5,511.5C 103.457,470.344 115.957,427.01 121,381.5C 122.801,348.854 124.135,316.188 125,283.5C 125.617,267.768 126.95,252.102 129,236.5C 132.86,210.787 143.193,188.121 160,168.5C 190.694,137.517 227.861,125.017 271.5,131C 278.848,133.174 285.848,136.174 292.5,140C 297.818,141.929 303.151,141.929 308.5,140C 314.93,136.451 321.596,133.451 328.5,131C 334.833,130.833 341.167,130.667 347.5,130.5C 384.88,129.563 416.38,142.563 442,169.5C 464.468,196.967 475.468,228.634 475,264.5C 476.888,299.809 478.222,335.143 479,370.5C 483.276,419.946 496.109,466.946 517.5,511.5C 517.167,512.5 516.5,513.167 515.5,513.5C 509.133,510.109 502.8,506.776 496.5,503.5 Z"/></g>
<g><path style="opacity:1" fill="#8e5f42" d="M 96.5,401.5 C 93.7655,417.905 90.5989,434.238 87,450.5C 84.3124,462.125 80.8124,473.458 76.5,484.5C 72.0162,486.498 67.3495,487.332 62.5,487C 61.5333,482.599 61.2,478.099 61.5,473.5C 58.9837,473.755 56.6504,474.589 54.5,476C 50.8333,479 47.1667,482 43.5,485C 41.8876,485.72 40.3876,485.554 39,484.5C 38.3333,481.833 38.3333,479.167 39,476.5C 44.6705,459.641 47.5039,442.308 47.5,424.5C 46.448,424.351 45.448,424.517 44.5,425C 42.9594,427.916 41.2927,430.749 39.5,433.5C 38.675,434.386 37.675,434.719 36.5,434.5C 38.0405,424.892 38.5405,415.225 38,405.5C 37.2825,404.549 36.4491,404.383 35.5,405C 32.9627,407.906 30.796,411.073 29,414.5C 27.9887,415.337 26.8221,415.67 25.5,415.5C 23.2568,401.328 20.0902,387.328 16,373.5C 12.4538,361.976 11.7871,350.31 14,338.5C 16.389,331.39 19.0557,324.39 22,317.5C 22.6667,314.833 22.6667,312.167 22,309.5C 19.9361,308.409 17.7695,308.242 15.5,309C 12.4637,310.518 9.46373,312.018 6.5,313.5C 5.55805,313.392 4.72472,313.059 4,312.5C 4.47416,303.399 6.80749,294.732 11,286.5C 17.2694,275.237 23.9361,264.237 31,253.5C 37.0342,237.756 45.3675,223.423 56,210.5C 64.1746,200.802 72.3413,191.136 80.5,181.5C 82.4121,178.851 85.0787,177.518 88.5,177.5C 86.9029,184.789 84.4029,191.789 81,198.5C 74.4832,206.029 69.1499,214.362 65,223.5C 64.1923,225.579 64.359,227.579 65.5,229.5C 69.5,226.5 73.5,223.5 77.5,220.5C 78.0576,238.27 73.891,254.936 65,270.5C 63.1003,274.632 62.267,278.966 62.5,283.5C 63.552,283.649 64.552,283.483 65.5,283C 67.8689,279.774 70.8689,277.608 74.5,276.5C 74.7534,294.053 72.9201,311.386 69,328.5C 67.8806,335.141 67.5472,341.808 68,348.5C 69.0495,349.517 70.2161,349.684 71.5,349C 73.7272,346.436 75.5606,343.603 77,340.5C 77.6667,339.167 78.3333,339.167 79,340.5C 80.728,349.262 81.8946,358.096 82.5,367C 80.7838,379.815 80.4505,392.648 81.5,405.5C 84.6781,399.998 87.6781,394.331 90.5,388.5C 92.9154,392.794 94.9154,397.128 96.5,401.5 Z"/></g>
<g><path style="opacity:1" fill="#8e5f42" d="M 515.5,177.5 C 530.855,194.531 545.022,212.531 558,231.5C 561.939,239.045 565.606,246.712 569,254.5C 577.898,267.079 585.565,280.413 592,294.5C 594.491,300.289 595.491,306.289 595,312.5C 594.439,313.022 593.772,313.355 593,313.5C 589.773,312.136 586.606,310.636 583.5,309C 577.906,307.087 575.739,308.92 577,314.5C 580.286,323.405 583.286,332.405 586,341.5C 587.064,353.012 586.064,364.346 583,375.5C 579.188,388.747 575.688,402.08 572.5,415.5C 569.167,411.833 565.833,408.167 562.5,404.5C 561.747,414.53 561.414,424.53 561.5,434.5C 558.812,431.638 556.479,428.472 554.5,425C 553.551,424.383 552.718,424.549 552,425.5C 552.245,442.545 554.911,459.211 560,475.5C 560.667,478.5 560.667,481.5 560,484.5C 558.612,485.554 557.112,485.72 555.5,485C 550.642,479.296 544.642,475.462 537.5,473.5C 537.666,477.846 537.499,482.179 537,486.5C 533.101,487.66 529.267,487.327 525.5,485.5C 522.869,480.122 520.703,474.456 519,468.5C 512.564,445.155 507.731,421.489 504.5,397.5C 505.268,398.263 505.768,399.263 506,400.5C 507.09,396.223 508.757,392.223 511,388.5C 514.092,393.09 516.425,398.09 518,403.5C 518.853,405.125 519.853,405.458 521,404.5C 521.597,392.107 521.097,379.774 519.5,367.5C 519.347,358.738 520.18,350.072 522,341.5C 522.308,340.692 522.808,340.025 523.5,339.5C 525.861,343.567 528.694,347.233 532,350.5C 533.125,347.522 533.625,344.355 533.5,341C 532.704,328.354 530.871,315.854 528,303.5C 527.168,294.482 527.335,285.482 528.5,276.5C 531.638,277.805 533.971,279.971 535.5,283C 536.448,283.483 537.448,283.649 538.5,283.5C 538.664,280.813 538.497,278.146 538,275.5C 533.609,265.659 529.609,255.659 526,245.5C 524.587,237.195 523.42,228.861 522.5,220.5C 523.552,220.351 524.552,220.517 525.5,221C 528.82,224.178 532.487,226.678 536.5,228.5C 535.822,223.131 533.988,218.131 531,213.5C 521.565,203.218 515.399,191.218 512.5,177.5C 513.5,177.5 514.5,177.5 515.5,177.5 Z"/></g>
<g><path style="opacity:1" fill="#302d2c" d="M 238.5,193.5 C 240.39,193.297 241.89,193.963 243,195.5C 244.484,211.469 251.484,224.469 264,234.5C 264.667,235.833 264.667,237.167 264,238.5C 261.27,238.845 258.437,239.011 255.5,239C 244.678,243.872 233.345,246.872 221.5,248C 215.199,251.152 209.199,254.818 203.5,259C 202.5,259.667 201.5,259.667 200.5,259C 199.24,257.186 199.24,255.353 200.5,253.5C 214.413,244.42 226.58,233.42 237,220.5C 238.701,218.1 239.534,215.433 239.5,212.5C 237.754,206.161 237.421,199.828 238.5,193.5 Z"/></g>
<g><path style="opacity:1" fill="#302d2c" d="M 359.5,193.5 C 360.822,193.33 361.989,193.663 363,194.5C 363.489,200.565 362.989,206.565 361.5,212.5C 361.466,215.433 362.299,218.1 364,220.5C 374.42,233.42 386.587,244.42 400.5,253.5C 401.76,255.353 401.76,257.186 400.5,259C 399.5,259.667 398.5,259.667 397.5,259C 391.801,254.818 385.801,251.152 379.5,248C 366.526,246.606 354.026,243.44 342,238.5C 337.57,240.214 335.736,238.881 336.5,234.5C 349.644,223.876 357.311,210.209 359.5,193.5 Z"/></g>
<g><path style="opacity:1" fill="#5a4338" d="M 436.5,528.5 C 435.532,530.607 435.198,532.941 435.5,535.5C 434.857,537.076 433.857,538.41 432.5,539.5C 430.582,533.653 429.249,527.653 428.5,521.5C 427.039,514.284 424.872,507.284 422,500.5C 421.586,500.043 421.086,499.709 420.5,499.5C 419.511,503.107 419.177,506.774 419.5,510.5C 419.316,523.527 418.649,536.527 417.5,549.5C 415.705,554.904 414.539,560.57 414,566.5C 413.424,569.124 412.09,569.791 410,568.5C 407.345,553.26 405.178,537.926 403.5,522.5C 403.5,522.167 403.5,521.833 403.5,521.5C 402.885,512.256 401.051,503.256 398,494.5C 394.139,493.396 392.305,495.063 392.5,499.5C 389.915,514.442 387.915,529.608 386.5,545C 386.648,546.256 386.982,547.423 387.5,548.5C 386.022,552.285 384.855,556.285 384,560.5C 383.333,559.833 382.667,559.167 382,558.5C 378.926,545.568 376.26,532.568 374,519.5C 373.664,537.847 369.997,555.514 363,572.5C 361.921,574.394 360.587,574.727 359,573.5C 358.055,569.886 357.388,566.219 357,562.5C 356.632,561.09 355.799,560.09 354.5,559.5C 352.541,560.748 351.041,562.415 350,564.5C 348.726,568.99 347.059,573.323 345,577.5C 343.216,580.003 341.549,580.003 340,577.5C 339.833,573.667 339.667,569.833 339.5,566C 340.295,553.17 340.961,540.337 341.5,527.5C 341.521,520.792 340.521,520.292 338.5,526C 338.57,526.765 338.903,527.265 339.5,527.5C 338.313,528.534 337.48,529.867 337,531.5C 333.059,548.324 327.725,564.657 321,580.5C 318.24,584.207 314.74,585.207 310.5,583.5C 309.028,580.283 307.862,576.949 307,573.5C 306.462,563.184 304.462,553.184 301,543.5C 299.333,540.833 297.667,540.833 296,543.5C 295,546.833 294,550.167 293,553.5C 291.797,562.92 290.131,572.253 288,581.5C 285.497,584.945 282.331,585.445 278.5,583C 276.273,580.436 274.439,577.603 273,574.5C 267.643,558.601 262.81,542.601 258.5,526.5C 258.778,524.654 258.111,523.32 256.5,522.5C 255.374,523.808 255.374,525.142 256.5,526.5C 255.836,528.81 255.503,531.31 255.5,534C 257.258,548.458 257.758,562.958 257,577.5C 255.451,580.003 253.784,580.003 252,577.5C 250.056,573.277 248.389,568.944 247,564.5C 246.022,562.525 244.689,560.858 243,559.5C 242.228,559.645 241.561,559.978 241,560.5C 239.894,564.804 238.894,569.137 238,573.5C 237,574.833 236,574.833 235,573.5C 228.406,558.713 224.573,543.379 223.5,527.5C 223.666,522.156 223.499,516.823 223,511.5C 222.227,519.236 221.06,526.903 219.5,534.5C 219.543,535.416 219.876,536.083 220.5,536.5C 219.004,542.791 217.504,549.125 216,555.5C 215.74,557.618 214.74,559.284 213,560.5C 212.086,555.734 210.92,551.067 209.5,546.5C 210.124,546.083 210.457,545.416 210.5,544.5C 209.02,530.669 207.353,517.002 205.5,503.5C 205.6,500.333 204.933,497.333 203.5,494.5C 200.589,493.208 198.756,494.208 198,497.5C 194.578,510.289 192.411,523.289 191.5,536.5C 190.825,547.275 189.492,557.942 187.5,568.5C 187,568.833 186.5,569.167 186,569.5C 184.523,568.556 183.523,567.223 183,565.5C 182.295,561.335 181.461,557.335 180.5,553.5C 179.121,540.868 178.121,528.201 177.5,515.5C 177.828,510.125 177.495,504.792 176.5,499.5C 174.157,501.995 172.657,504.995 172,508.5C 170.513,513.779 169.347,519.112 168.5,524.5C 167.097,527.909 166.43,531.575 166.5,535.5C 165.442,536.6 164.608,537.934 164,539.5C 163.617,538.944 163.117,538.611 162.5,538.5C 162.443,537.391 162.11,536.391 161.5,535.5C 160.467,521.516 160.301,507.516 161,493.5C 162.584,478.498 164.084,463.498 165.5,448.5C 162.405,448.626 160.572,450.293 160,453.5C 156.264,467.041 151.931,480.375 147,493.5C 145.413,494.727 144.079,494.394 143,492.5C 143.303,476.438 144.636,460.438 147,444.5C 151.022,425.416 155.189,406.416 159.5,387.5C 157.097,387.393 155.264,388.393 154,390.5C 149.5,397 145,403.5 140.5,410C 139.207,410.49 137.873,410.657 136.5,410.5C 141.755,376.567 153.255,344.901 171,315.5C 200.604,270.359 242.604,248.026 297,248.5C 348.734,247.039 390.067,266.706 421,307.5C 441.735,338.861 454.901,373.195 460.5,410.5C 458.278,410.822 456.444,410.155 455,408.5C 451.582,402.663 447.916,396.996 444,391.5C 442.429,389.077 440.263,387.744 437.5,387.5C 442.135,405.707 446.301,424.04 450,442.5C 452.303,458.779 453.637,475.112 454,491.5C 453.424,494.124 452.09,494.791 450,493.5C 445.107,480.373 440.774,467.04 437,453.5C 436.428,450.293 434.595,448.626 431.5,448.5C 432.614,462.86 434.114,477.193 436,491.5C 436.5,503.829 436.667,516.162 436.5,528.5 Z"/></g>
<g><path style="opacity:1" fill="#2f2d2c" d="M 288.5,274.5 C 304.808,273.196 320.475,275.696 335.5,282C 345.771,289.203 349.605,299.037 347,311.5C 342.345,324.824 333.512,334.324 320.5,340C 303.118,348.307 286.452,346.974 270.5,336C 251.947,324.276 247.114,308.443 256,288.5C 260.45,283.39 265.95,279.89 272.5,278C 277.965,276.796 283.299,275.63 288.5,274.5 Z"/></g>
<g><path style="opacity:1" fill="#050404" d="M 348.5,404.5 C 348.5,398.833 348.5,393.167 348.5,387.5C 332.717,385.432 316.883,383.765 301,382.5C 284.188,384.424 267.355,386.09 250.5,387.5C 250.5,392.833 250.5,398.167 250.5,403.5C 247.485,396.909 246.318,389.909 247,382.5C 247.833,381.5 248.667,380.5 249.5,379.5C 254.608,377.258 259.941,375.758 265.5,375C 287.836,371.692 310.169,371.692 332.5,375C 338.37,375.806 344.037,377.306 349.5,379.5C 351.919,381.586 352.919,384.253 352.5,387.5C 352.33,393.567 350.997,399.233 348.5,404.5 Z"/></g>
<g><path style="opacity:1" fill="#f19c9f" d="M 348.5,404.5 C 346.957,429.385 340.79,453.052 330,475.5C 325.112,484.721 317.945,491.555 308.5,496C 297.195,499.231 287.195,496.898 278.5,489C 267.547,476.848 260.381,462.681 257,446.5C 253.929,432.163 251.762,417.83 250.5,403.5C 250.5,398.167 250.5,392.833 250.5,387.5C 267.355,386.09 284.188,384.424 301,382.5C 316.883,383.765 332.717,385.432 348.5,387.5C 348.5,393.167 348.5,398.833 348.5,404.5 Z"/></g>
<g><path style="opacity:1" fill="#6e4527" d="M 130.5,530.5 C 122.583,542.085 113.249,552.419 102.5,561.5C 102.167,560.833 101.833,560.167 101.5,559.5C 106.417,543.411 110.251,527.078 113,510.5C 113.667,507.167 113.667,503.833 113,500.5C 112.583,499.244 111.75,498.577 110.5,498.5C 117.452,492.215 124.119,485.548 130.5,478.5C 132.042,477.253 133.542,477.253 135,478.5C 133.923,496.457 130.423,513.957 124.5,531C 124.833,531.5 125.167,532 125.5,532.5C 126.85,531.05 128.516,530.383 130.5,530.5 Z"/></g>
<g><path style="opacity:1" fill="#6e4527" d="M 490.5,498.5 C 489.504,498.414 488.671,498.748 488,499.5C 487.333,503.167 487.333,506.833 488,510.5C 491.004,527.019 494.837,543.353 499.5,559.5C 499.167,560.167 498.833,560.833 498.5,561.5C 487.751,552.419 478.417,542.085 470.5,530.5C 472.394,531.048 474.06,532.048 475.5,533.5C 475.833,533 476.167,532.5 476.5,532C 470.468,514.634 466.968,496.8 466,478.5C 467.049,477.483 468.216,477.316 469.5,478C 475.733,485.734 482.733,492.567 490.5,498.5 Z"/></g>
<g><path style="opacity:1" fill="#885b3f" d="M 205.5,503.5 C 205.663,505.857 205.497,508.19 205,510.5C 202.275,514.385 199.775,518.385 197.5,522.5C 196.455,527.654 194.455,532.321 191.5,536.5C 192.411,523.289 194.578,510.289 198,497.5C 198.756,494.208 200.589,493.208 203.5,494.5C 204.933,497.333 205.6,500.333 205.5,503.5 Z"/></g>
<g><path style="opacity:1" fill="#8c5e42" d="M 403.5,521.5 C 397.721,515.276 394.055,507.943 392.5,499.5C 392.305,495.063 394.139,493.396 398,494.5C 401.051,503.256 402.885,512.256 403.5,521.5 Z"/></g>
<g><path style="opacity:1" fill="#6f4527" d="M 161.5,535.5 C 162.11,536.391 162.443,537.391 162.5,538.5C 153.398,553.28 142.065,566.28 128.5,577.5C 128.167,577 127.833,576.5 127.5,576C 135.126,558.043 138.793,539.543 138.5,520.5C 145.541,512.774 151.874,504.441 157.5,495.5C 158.662,500.131 158.828,504.798 158,509.5C 155.613,521.381 152.447,533.047 148.5,544.5C 148.667,545.167 148.833,545.833 149,546.5C 153.335,542.997 157.501,539.33 161.5,535.5 Z"/></g>
<g><path style="opacity:1" fill="#6e4527" d="M 461.5,520.5 C 462.016,539.899 466.016,558.566 473.5,576.5C 473.167,576.833 472.833,577.167 472.5,577.5C 457.969,565.311 445.636,551.311 435.5,535.5C 435.198,532.941 435.532,530.607 436.5,528.5C 436.343,529.873 436.51,531.207 437,532.5C 441.5,537 446,541.5 450.5,546C 451.483,546.591 452.15,546.257 452.5,545C 449.123,535.66 446.29,526.16 444,516.5C 442.5,509.516 442.334,502.516 443.5,495.5C 448.762,504.355 454.762,512.688 461.5,520.5 Z"/></g>
<g><path style="opacity:1" fill="#8b5e42" d="M 177.5,515.5 C 174.687,519.098 171.853,522.765 169,526.5C 168.536,525.906 168.369,525.239 168.5,524.5C 169.347,519.112 170.513,513.779 172,508.5C 172.657,504.995 174.157,501.995 176.5,499.5C 177.495,504.792 177.828,510.125 177.5,515.5 Z"/></g>
<g><path style="opacity:1" fill="#895c41" d="M 428.5,521.5 C 425.261,518.017 422.261,514.35 419.5,510.5C 419.177,506.774 419.511,503.107 420.5,499.5C 421.086,499.709 421.586,500.043 422,500.5C 424.872,507.284 427.039,514.284 428.5,521.5 Z"/></g>
<g><path style="opacity:1" fill="#6e4528" d="M 392.5,499.5 C 394.055,507.943 397.721,515.276 403.5,521.5C 403.5,521.833 403.5,522.167 403.5,522.5C 402.325,522.281 401.325,522.614 400.5,523.5C 396.448,531.603 392.948,539.937 390,548.5C 389.023,549.774 388.189,549.774 387.5,548.5C 386.982,547.423 386.648,546.256 386.5,545C 387.915,529.608 389.915,514.442 392.5,499.5 Z"/></g>
<g><path style="opacity:1" fill="#6d4528" d="M 205.5,503.5 C 207.353,517.002 209.02,530.669 210.5,544.5C 210.457,545.416 210.124,546.083 209.5,546.5C 207.345,538.52 204.345,530.853 200.5,523.5C 199.675,522.614 198.675,522.281 197.5,522.5C 199.775,518.385 202.275,514.385 205,510.5C 205.497,508.19 205.663,505.857 205.5,503.5 Z"/></g>
<g><path style="opacity:1" fill="#6f4528" d="M 419.5,510.5 C 422.261,514.35 425.261,518.017 428.5,521.5C 429.249,527.653 430.582,533.653 432.5,539.5C 431.755,548.133 431.255,556.8 431,565.5C 425.538,560.88 421.038,555.546 417.5,549.5C 418.649,536.527 419.316,523.527 419.5,510.5 Z"/></g>
<g><path style="opacity:1" fill="#6e4528" d="M 177.5,515.5 C 178.121,528.201 179.121,540.868 180.5,553.5C 177.582,557.924 174.082,561.924 170,565.5C 169.667,557.5 169.333,549.5 169,541.5C 168.155,539.389 167.322,537.389 166.5,535.5C 166.43,531.575 167.097,527.909 168.5,524.5C 168.369,525.239 168.536,525.906 169,526.5C 171.853,522.765 174.687,519.098 177.5,515.5 Z"/></g>
<g><path style="opacity:1" fill="#72492e" d="M 223.5,527.5 C 222.698,530.574 221.698,533.574 220.5,536.5C 219.876,536.083 219.543,535.416 219.5,534.5C 221.06,526.903 222.227,519.236 223,511.5C 223.499,516.823 223.666,522.156 223.5,527.5 Z"/></g>
<g><path style="opacity:1" fill="#b49472" d="M 341.5,527.5 C 340.833,527.5 340.167,527.5 339.5,527.5C 338.903,527.265 338.57,526.765 338.5,526C 340.521,520.292 341.521,520.792 341.5,527.5 Z"/></g>
<g><path style="opacity:1" fill="#b39371" d="M 258.5,526.5 C 257.833,526.5 257.167,526.5 256.5,526.5C 255.374,525.142 255.374,523.808 256.5,522.5C 258.111,523.32 258.778,524.654 258.5,526.5 Z"/></g>
</svg>
