<?xml version="1.0" encoding="UTF-8"?>
<!DOCTYPE svg PUBLIC "-//W3C//DTD SVG 1.1//EN" "http://www.w3.org/Graphics/SVG/1.1/DTD/svg11.dtd">
<svg xmlns="http://www.w3.org/2000/svg" version="1.1" width="600px" height="600px" style="shape-rendering:geometricPrecision; text-rendering:geometricPrecision; image-rendering:optimizeQuality; fill-rule:evenodd; clip-rule:evenodd" xmlns:xlink="http://www.w3.org/1999/xlink">
<g><path style="opacity:0.969" fill="#030100" d="M 599.5,303.5 C 599.5,316.5 599.5,329.5 599.5,342.5C 597.577,343.851 595.41,344.518 593,344.5C 590.491,343.907 587.991,343.741 585.5,344C 592.216,359.85 592.05,375.683 585,391.5C 577.94,407.349 571.273,423.349 565,439.5C 561.811,444.338 557.478,446.005 552,444.5C 552.582,451.427 550.416,457.26 545.5,462C 543.26,462.977 540.927,463.477 538.5,463.5C 539.157,473.288 540.657,482.954 543,492.5C 545.148,509.696 537.981,516.196 521.5,512C 519.023,510.357 516.69,508.524 514.5,506.5C 510.234,512.982 504.234,515.482 496.5,514C 468.566,506.127 446.399,490.294 430,466.5C 426.885,461.156 424.552,455.489 423,449.5C 422.705,465.85 422.039,482.183 421,498.5C 416.25,544.211 392.25,559.211 349,543.5C 316.725,551.693 284.558,551.359 252.5,542.5C 234.456,552.294 216.789,551.794 199.5,541C 193.411,535.986 188.911,529.819 186,522.5C 183.124,512.704 181.458,502.704 181,492.5C 180.417,471.477 180.417,450.477 181,429.5C 177.781,457.12 164.948,478.954 142.5,495C 130.219,503.473 116.886,509.806 102.5,514C 94.854,515.567 89.0206,513.067 85,506.5C 77.6288,514.235 69.4621,515.568 60.5,510.5C 57.2475,507.011 55.5808,502.844 55.5,498C 57.6969,486.851 59.6969,475.684 61.5,464.5C 57.653,463.499 54.153,461.832 51,459.5C 48.5762,454.806 47.2428,449.806 47,444.5C 42.1996,445.795 38.1996,444.462 35,440.5C 28,423.833 21,407.167 14,390.5C 11.3,382.867 9.46666,375.033 8.5,367C 9.1419,359.266 10.8086,351.766 13.5,344.5C 8.75637,345.061 4.0897,344.394 -0.5,342.5C -0.5,329.5 -0.5,316.5 -0.5,303.5C 5.88554,291.067 13.0522,279.067 21,267.5C 34.8036,236.346 54.1369,209.012 79,185.5C 85.5066,175.157 91.5066,164.49 97,153.5C 107.726,137.601 120.226,123.101 134.5,110C 143.495,101.751 153.995,96.2511 166,93.5C 167.162,94.1868 168.328,94.3534 169.5,94C 196.126,71.6953 226.793,58.0287 261.5,53C 314.119,44.2294 363.786,52.5627 410.5,78C 417.45,82.6153 424.116,87.6153 430.5,93C 445.17,96 457.836,102.667 468.5,113C 489.381,133.592 506.214,157.092 519,183.5C 534.859,200.244 549.526,217.911 563,236.5C 569.388,246.609 574.721,257.276 579,268.5C 586.378,279.933 593.211,291.6 599.5,303.5 Z"/></g>
<g><path style="opacity:1" fill="#b26715" d="M 428.5,105.5 C 431.474,108.138 434.474,110.805 437.5,113.5C 442.841,121.172 448.174,128.839 453.5,136.5C 454.659,140.151 456.326,143.485 458.5,146.5C 458.707,149.241 459.707,151.574 461.5,153.5C 461.733,156.542 462.733,159.208 464.5,161.5C 464.41,164.152 465.076,166.485 466.5,168.5C 470.864,181.011 473.198,194.011 473.5,207.5C 473.913,222.6 472.913,237.6 470.5,252.5C 470.543,253.416 470.876,254.083 471.5,254.5C 462.568,297.965 448.901,338.965 430.5,377.5C 424.204,391.868 418.371,406.535 413,421.5C 411.55,412.134 409.883,402.801 408,393.5C 398.902,370.191 387.902,347.858 375,326.5C 363.333,308.833 351.667,291.167 340,273.5C 323.84,249.027 318.84,222.36 325,193.5C 327.333,174.166 329.667,154.833 332,135.5C 333.124,125.851 333.457,116.185 333,106.5C 327.429,81.6262 312.263,72.4595 287.5,79C 277.108,84.3976 270.942,92.8976 269,104.5C 267.221,116.488 267.221,128.488 269,140.5C 273.971,166.938 277.138,193.605 278.5,220.5C 278.664,231.518 276.831,242.185 273,252.5C 269.175,260.819 264.842,268.819 260,276.5C 242.273,299.598 226.273,323.931 212,349.5C 199.918,371.747 192.251,395.414 189,420.5C 181.788,401.025 174.288,381.692 166.5,362.5C 165.974,360.77 164.974,359.436 163.5,358.5C 160.263,352.136 157.597,345.47 155.5,338.5C 147.334,315.673 140.001,292.673 133.5,269.5C 132.549,268.081 132.216,266.415 132.5,264.5C 132.128,258.268 131.128,252.268 129.5,246.5C 128.527,244.052 128.194,241.385 128.5,238.5C 128.389,223.82 128.723,209.153 129.5,194.5C 129.344,190.236 130.011,186.236 131.5,182.5C 133.795,175.326 135.795,167.993 137.5,160.5C 139.267,158.208 140.267,155.542 140.5,152.5C 141.042,149.088 142.375,146.088 144.5,143.5C 151.652,130.579 160.319,118.579 170.5,107.5C 197.241,82.6187 228.908,67.7854 265.5,63C 304.067,57.6073 341.733,61.274 378.5,74C 397.359,81.2494 414.025,91.7494 428.5,105.5 Z"/></g>
<g><path style="opacity:1" fill="#af7c5a" d="M 346.5,530.5 C 340.024,525.757 333.024,521.757 325.5,518.5C 310.001,508.634 294.001,507.967 277.5,516.5C 269.749,521.374 261.749,525.707 253.5,529.5C 246.279,531.938 238.946,534.105 231.5,536C 212.008,538.17 200.175,529.67 196,510.5C 193.055,479.876 192.722,449.209 195,418.5C 196.462,408.062 198.462,397.728 201,387.5C 210.124,364.131 221.458,341.797 235,320.5C 251.336,299.696 265.836,277.529 278.5,254C 283.192,238.506 284.692,222.673 283,206.5C 280.15,177.555 276.65,148.722 272.5,120C 272.619,110.318 274.786,101.152 279,92.5C 287.271,83.299 297.437,80.1323 309.5,83C 315.792,84.9551 320.625,88.7884 324,94.5C 328.909,106.836 329.909,119.503 327,132.5C 324.169,155.147 321.502,177.814 319,200.5C 318.333,212.833 318.333,225.167 319,237.5C 322.721,251.282 328.388,264.282 336,276.5C 354.25,302.657 371.25,329.657 387,357.5C 391.576,367.047 395.409,376.88 398.5,387C 400.044,388.586 401.211,390.42 402,392.5C 404.31,401.718 405.977,411.052 407,420.5C 410.298,449.173 410.298,477.84 407,506.5C 403.642,528.872 390.808,538.705 368.5,536C 362.957,534.562 357.624,532.562 352.5,530C 350.402,529.322 348.402,529.489 346.5,530.5 Z"/></g>
<g><path style="opacity:1" fill="#5e330f" d="M 428.5,105.5 C 432.734,106.731 435.734,109.398 437.5,113.5C 434.474,110.805 431.474,108.138 428.5,105.5 Z"/></g>
<g><path style="opacity:1" fill="#743e13" d="M 150.5,110.5 C 151.239,110.369 151.906,110.536 152.5,111C 132.549,137.84 121.049,168.007 118,201.5C 115.974,235.321 120.308,268.321 131,300.5C 139.507,328.158 150.174,354.825 163,380.5C 165.863,387.422 168.53,394.422 171,401.5C 172.03,418.533 170.03,435.199 165,451.5C 158.254,466.47 148.088,478.637 134.5,488C 123.392,495.386 111.392,500.886 98.5,504.5C 96.5749,504.41 95.4083,503.41 95,501.5C 93.8924,497.914 93.3924,494.247 93.5,490.5C 91.0108,490.298 88.6775,490.798 86.5,492C 81.5463,495.285 76.8797,498.952 72.5,503C 70.5594,503.743 68.7261,503.576 67,502.5C 66.3333,498.5 66.3333,494.5 67,490.5C 71.076,474.996 72.4093,459.329 71,443.5C 70.2747,441.842 69.108,441.342 67.5,442C 65.1244,445.919 62.6244,449.752 60,453.5C 59.6667,453.167 59.3333,452.833 59,452.5C 58.6667,444.167 58.3333,435.833 58,427.5C 57.8832,424.371 56.3832,423.205 53.5,424C 50.9737,427.026 48.6404,430.193 46.5,433.5C 45.3493,434.731 44.1827,434.731 43,433.5C 37.225,417.948 30.8917,402.615 24,387.5C 17.4002,370.094 18.4002,353.094 27,336.5C 29.0051,329.51 26.5051,326.676 19.5,328C 15.239,330.047 11.0724,332.213 7,334.5C 4.57507,333.327 3.40841,331.327 3.5,328.5C 4.73846,320.877 6.90513,313.544 10,306.5C 15.8296,295.503 22.163,284.836 29,274.5C 34.1078,260.948 40.7745,248.282 49,236.5C 61.2084,219.952 74.5417,204.285 89,189.5C 100.606,164.569 116.106,142.402 135.5,123C 140.571,118.815 145.571,114.648 150.5,110.5 Z"/></g>
<g><path style="opacity:1" fill="#693911" d="M 170.5,107.5 C 160.319,118.579 151.652,130.579 144.5,143.5C 150.659,129.851 158.826,117.518 169,106.5C 169.383,107.056 169.883,107.389 170.5,107.5 Z"/></g>
<g><path style="opacity:1" fill="#743e13" d="M 451.5,114.5 C 451.897,113.475 452.563,113.308 453.5,114C 477.317,134.484 495.817,158.984 509,187.5C 527.586,206.703 544.253,227.37 559,249.5C 566.658,267.801 575.991,285.135 587,301.5C 591.241,309.889 594.074,318.722 595.5,328C 596.221,332.267 594.554,334.267 590.5,334C 586.219,331.027 581.553,328.86 576.5,327.5C 574.971,327.529 573.804,328.196 573,329.5C 572.333,332.167 572.333,334.833 573,337.5C 577.883,348.358 580.217,359.692 580,371.5C 574.342,390.818 567.008,409.484 558,427.5C 557.023,429.74 556.523,432.073 556.5,434.5C 552.726,433.694 550.226,431.361 549,427.5C 547.611,425.773 545.944,424.439 544,423.5C 543.055,423.905 542.388,424.572 542,425.5C 541.806,434.548 541.306,443.548 540.5,452.5C 539.726,453.711 538.893,453.711 538,452.5C 536.46,448.581 534.293,445.081 531.5,442C 529.591,441.552 528.424,442.385 528,444.5C 527.114,461.082 528.781,477.416 533,493.5C 534.004,496.993 533.504,500.159 531.5,503C 530.167,503.667 528.833,503.667 527.5,503C 522.882,500.05 518.548,496.716 514.5,493C 511.794,491.092 508.794,490.259 505.5,490.5C 505.656,494.582 505.156,498.582 504,502.5C 503.044,503.894 501.711,504.561 500,504.5C 474.639,497.115 454.306,482.781 439,461.5C 426.695,437.835 425.695,413.835 436,389.5C 438.738,387.423 440.738,384.757 442,381.5C 452.98,354.897 462.98,327.897 472,300.5C 484.488,260.133 487.155,219.133 480,177.5C 475.493,158.823 468.493,141.156 459,124.5C 456.723,120.92 454.223,117.586 451.5,114.5 Z"/></g>
<g><path style="opacity:1" fill="#613410" d="M 437.5,113.5 C 444.385,120.057 449.718,127.724 453.5,136.5C 448.174,128.839 442.841,121.172 437.5,113.5 Z"/></g>
<g><path style="opacity:1" fill="#5e3210" d="M 453.5,136.5 C 456.207,139.247 457.873,142.58 458.5,146.5C 456.326,143.485 454.659,140.151 453.5,136.5 Z"/></g>
<g><path style="opacity:1" fill="#603310" d="M 458.5,146.5 C 460.293,148.426 461.293,150.759 461.5,153.5C 459.707,151.574 458.707,149.241 458.5,146.5 Z"/></g>
<g><path style="opacity:1" fill="#603410" d="M 140.5,152.5 C 140.267,155.542 139.267,158.208 137.5,160.5C 137.733,157.458 138.733,154.792 140.5,152.5 Z"/></g>
<g><path style="opacity:1" fill="#603410" d="M 461.5,153.5 C 463.267,155.792 464.267,158.458 464.5,161.5C 462.733,159.208 461.733,156.542 461.5,153.5 Z"/></g>
<g><path style="opacity:1" fill="#613410" d="M 464.5,161.5 C 465.924,163.515 466.59,165.848 466.5,168.5C 465.076,166.485 464.41,164.152 464.5,161.5 Z"/></g>
<g><path style="opacity:1" fill="#673810" d="M 137.5,160.5 C 135.795,167.993 133.795,175.326 131.5,182.5C 132.273,174.732 134.273,167.399 137.5,160.5 Z"/></g>
<g><path style="opacity:1" fill="#633f1b" d="M 214.5,201.5 C 243.383,200.215 256.883,213.882 255,242.5C 248.364,262.566 234.53,271.733 213.5,270C 195.697,263.86 186.863,251.36 187,232.5C 189.719,216.289 198.886,205.956 214.5,201.5 Z"/></g>
<g><path style="opacity:1" fill="#633e1b" d="M 377.5,201.5 C 398.291,203.791 409.957,215.291 412.5,236C 409.877,256.123 398.544,267.29 378.5,269.5C 358.078,267.578 346.744,256.411 344.5,236C 346.531,215.804 357.531,204.304 377.5,201.5 Z"/></g>
<g><path style="opacity:1" fill="#6a3a10" d="M 129.5,194.5 C 128.723,209.153 128.389,223.82 128.5,238.5C 127.834,232.843 127.501,227.01 127.5,221C 127.337,211.951 128.004,203.117 129.5,194.5 Z"/></g>
<g><path style="opacity:1" fill="#000000" d="M 215.5,212.5 C 238.635,211.804 247.801,222.804 243,245.5C 235.665,258.836 224.832,262.669 210.5,257C 200.262,249.621 196.762,239.787 200,227.5C 203.106,220.225 208.272,215.225 215.5,212.5 Z"/></g>
<g><path style="opacity:1" fill="#010000" d="M 372.5,212.5 C 389.87,211.05 399.536,218.884 401.5,236C 399.014,255.145 388.347,262.478 369.5,258C 356.781,250.997 352.614,240.497 357,226.5C 360.1,219.394 365.267,214.727 372.5,212.5 Z"/></g>
<g><path style="opacity:1" fill="#eaeaea" d="M 225.5,222.5 C 230.406,221.306 233.406,223.139 234.5,228C 231.891,234.242 228.057,235.075 223,230.5C 222.018,227.225 222.851,224.559 225.5,222.5 Z"/></g>
<g><path style="opacity:1" fill="#f2f2f2" d="M 382.5,222.5 C 390.168,222.507 392.168,225.84 388.5,232.5C 381.874,234.705 379.041,232.372 380,225.5C 381.045,224.627 381.878,223.627 382.5,222.5 Z"/></g>
<g><path style="opacity:1" fill="#653610" d="M 473.5,207.5 C 474.916,223.101 474.249,238.767 471.5,254.5C 470.876,254.083 470.543,253.416 470.5,252.5C 472.913,237.6 473.913,222.6 473.5,207.5 Z"/></g>
<g><path style="opacity:1" fill="#5d3210" d="M 471.5,254.5 C 472.124,254.917 472.457,255.584 472.5,256.5C 468.101,279.865 461.768,302.698 453.5,325C 446.292,343.317 439.125,361.484 432,379.5C 431.283,378.956 430.783,378.289 430.5,377.5C 448.901,338.965 462.568,297.965 471.5,254.5 Z"/></g>
<g><path style="opacity:1" fill="#623510" d="M 129.5,246.5 C 131.128,252.268 132.128,258.268 132.5,264.5C 130.656,258.767 129.656,252.767 129.5,246.5 Z"/></g>
<g><path style="opacity:1" fill="#976443" d="M 314.5,285.5 C 315.822,285.33 316.989,285.663 318,286.5C 321.225,291.399 322.225,296.732 321,302.5C 319.529,306.546 317.029,307.379 313.5,305C 309.307,298.248 309.64,291.748 314.5,285.5 Z"/></g>
<g><path style="opacity:1" fill="#623510" d="M 133.5,269.5 C 140.001,292.673 147.334,315.673 155.5,338.5C 145.785,316.351 138.452,293.351 133.5,269.5 Z"/></g>
<g><path style="opacity:1" fill="#572f0e" d="M 163.5,358.5 C 164.974,359.436 165.974,360.77 166.5,362.5C 165.778,362.918 165.278,363.584 165,364.5C 164.187,362.564 163.687,360.564 163.5,358.5 Z"/></g>
<g><path style="opacity:1" fill="#976442" d="M 219.5,388.5 C 223.962,387.803 226.629,389.637 227.5,394C 224.412,401.008 220.912,407.842 217,414.5C 213.284,417.475 210.951,416.475 210,411.5C 209.292,402.247 212.459,394.58 219.5,388.5 Z"/></g>
<g><path style="opacity:1" fill="#100b08" d="M 357.5,422.5 C 353.577,419.516 350.91,415.516 349.5,410.5C 343.009,403.584 335.009,399.251 325.5,397.5C 306.506,393.094 287.839,393.594 269.5,399C 265.008,402.308 260.341,405.475 255.5,408.5C 254.167,411.5 252.833,414.5 251.5,417.5C 249.955,418.452 248.288,418.785 246.5,418.5C 246.481,416.94 246.148,415.44 245.5,414C 249.322,404.844 255.822,398.344 265,394.5C 276.908,390.367 289.241,388.367 302,388.5C 317.604,387.956 332.104,391.456 345.5,399C 349.674,402.008 353.341,405.508 356.5,409.5C 359.63,413.841 359.964,418.174 357.5,422.5 Z"/></g>
<g><path style="opacity:1" fill="#45322b" d="M 357.5,422.5 C 357.993,436.682 352.66,448.182 341.5,457C 310.192,479.924 281.359,477.091 255,448.5C 248.131,439.695 245.297,429.695 246.5,418.5C 248.288,418.785 249.955,418.452 251.5,417.5C 252.833,414.5 254.167,411.5 255.5,408.5C 260.341,405.475 265.008,402.308 269.5,399C 287.839,393.594 306.506,393.094 325.5,397.5C 335.009,399.251 343.009,403.584 349.5,410.5C 350.91,415.516 353.577,419.516 357.5,422.5 Z"/></g>
<g><path style="opacity:1" fill="#8b5b39" d="M 376.5,449.5 C 382.221,450.87 385.721,454.537 387,460.5C 389.29,466.499 388.457,471.999 384.5,477C 379.452,477.97 376.618,475.803 376,470.5C 374.846,466.228 374.012,461.894 373.5,457.5C 373.4,454.376 374.4,451.71 376.5,449.5 Z"/></g>
<g><path style="opacity:1" fill="#8b5b39" d="M 344.5,469.5 C 352.876,469.591 355.043,473.258 351,480.5C 342.88,487.073 339.547,485.073 341,474.5C 341.997,472.677 343.164,471.01 344.5,469.5 Z"/></g>
<g><path style="opacity:1" fill="#312826" d="M 325.5,518.5 C 309.817,519.967 294.151,519.801 278.5,518C 277.944,517.617 277.611,517.117 277.5,516.5C 294.001,507.967 310.001,508.634 325.5,518.5 Z"/></g>
<g><path style="opacity:1" fill="#9c603b" d="M 277.5,516.5 C 277.611,517.117 277.944,517.617 278.5,518C 294.151,519.801 309.817,519.967 325.5,518.5C 333.024,521.757 340.024,525.757 346.5,530.5C 315.311,538.655 284.311,538.321 253.5,529.5C 261.749,525.707 269.749,521.374 277.5,516.5 Z"/></g>
</svg>
