<?xml version="1.0" encoding="UTF-8"?>
<!DOCTYPE svg PUBLIC "-//W3C//DTD SVG 1.1//EN" "http://www.w3.org/Graphics/SVG/1.1/DTD/svg11.dtd">
<svg xmlns="http://www.w3.org/2000/svg" version="1.1" width="600px" height="600px" style="shape-rendering:geometricPrecision; text-rendering:geometricPrecision; image-rendering:optimizeQuality; fill-rule:evenodd; clip-rule:evenodd" xmlns:xlink="http://www.w3.org/1999/xlink">
<g><path style="opacity:0.95" fill="#010000" d="M 123.5,8.5 C 128.71,8.93807 133.377,10.7714 137.5,14C 143.033,19.1983 148.2,24.6983 153,30.5C 180.9,65.9441 205.567,103.611 227,143.5C 229.167,145.667 231.333,147.833 233.5,150C 236.039,151.047 238.705,151.547 241.5,151.5C 259.066,148.763 276.732,147.096 294.5,146.5C 312.285,146.932 329.952,148.598 347.5,151.5C 351.123,151.756 354.456,150.923 357.5,149C 365.714,138.752 372.547,127.585 378,115.5C 397.665,82.5057 419.665,51.1724 444,21.5C 449.411,14.9218 456.245,10.5884 464.5,8.5C 473.079,9.70917 478.912,14.3758 482,22.5C 489.835,48.009 495.502,74.009 499,100.5C 504.466,133.962 506.8,167.628 506,201.5C 504.971,213.589 500.971,224.589 494,234.5C 488.089,241.989 482.423,249.655 477,257.5C 476.333,262.5 476.333,267.5 477,272.5C 485.037,310.708 484.037,348.708 474,386.5C 461.913,442.989 439.246,494.656 406,541.5C 384.198,569.156 355.698,584.99 320.5,589C 286.408,593.783 253.741,589.117 222.5,575C 204.799,564.301 189.966,550.468 178,533.5C 130.828,462.65 107.495,384.65 108,299.5C 109.128,290.397 110.795,281.397 113,272.5C 113.667,267.5 113.667,262.5 113,257.5C 104.594,247.024 96.9275,236.024 90,224.5C 86.7545,217.519 84.7545,210.186 84,202.5C 83.2358,151.943 88.2358,101.943 99,52.5C 101.33,41.1778 104.663,30.1778 109,19.5C 112.321,13.6598 117.154,9.99309 123.5,8.5 Z"/></g>
<g><path style="opacity:1" fill="#4a3930" d="M 484.5,75.5 C 479.681,66.5301 474.847,57.5301 470,48.5C 466.833,45.3333 463.667,42.1667 460.5,39C 456.856,36.3441 452.856,34.5107 448.5,33.5C 462.46,13.1256 471.96,15.1256 477,39.5C 479.823,51.4466 482.323,63.4466 484.5,75.5 Z"/></g>
<g><path style="opacity:1" fill="#564138" d="M 199.5,117.5 C 195.071,121.888 190.071,125.554 184.5,128.5C 172.852,103.855 158.685,80.8547 142,59.5C 138.799,55.9636 135.299,52.7969 131.5,50C 128.083,49.1244 125.583,50.291 124,53.5C 121.376,59.5688 119.71,65.9021 119,72.5C 112.359,111.909 109.359,151.576 110,191.5C 114.071,205.392 121.238,217.392 131.5,227.5C 127.457,233.876 122.124,238.876 115.5,242.5C 103.579,230.658 96.4122,216.325 94,199.5C 93.7458,147.531 99.4125,96.1978 111,45.5C 113.024,37.0899 116.024,29.0899 120,21.5C 123.043,19.0922 126.209,18.9255 129.5,21C 156.646,50.4825 179.979,82.6491 199.5,117.5 Z"/></g>
<g><path style="opacity:1" fill="#564138" d="M 448.5,33.5 C 452.856,34.5107 456.856,36.3441 460.5,39C 463.667,42.1667 466.833,45.3333 470,48.5C 474.847,57.5301 479.681,66.5301 484.5,75.5C 493.196,118.741 496.696,162.407 495,206.5C 494.392,210.373 493.226,214.04 491.5,217.5C 486.09,215.974 480.756,214.141 475.5,212C 473.527,211.505 471.527,211.338 469.5,211.5C 478.844,199.874 482.511,186.54 480.5,171.5C 478.403,134.984 474.569,98.651 469,62.5C 468.151,57.5967 465.984,53.43 462.5,50C 461.167,49.3333 459.833,49.3333 458.5,50C 454.033,53.4651 449.867,57.2984 446,61.5C 432.389,79.9404 420.222,99.2738 409.5,119.5C 404.328,116.415 399.328,113.081 394.5,109.5C 410.538,82.752 428.538,57.4187 448.5,33.5 Z"/></g>
<g><path style="opacity:1" fill="#794f55" d="M 184.5,128.5 C 188.025,136.909 190.858,145.576 193,154.5C 193.5,161.826 193.666,169.159 193.5,176.5C 191.73,183.293 189.23,189.96 186,196.5C 178.819,208.007 170.319,218.507 160.5,228C 157.672,230.248 154.672,232.248 151.5,234C 147.446,234.694 143.446,234.527 139.5,233.5C 136.872,231.512 134.205,229.512 131.5,227.5C 121.238,217.392 114.071,205.392 110,191.5C 109.359,151.576 112.359,111.909 119,72.5C 119.71,65.9021 121.376,59.5688 124,53.5C 125.583,50.291 128.083,49.1244 131.5,50C 135.299,52.7969 138.799,55.9636 142,59.5C 158.685,80.8547 172.852,103.855 184.5,128.5 Z"/></g>
<g><path style="opacity:1" fill="#794f55" d="M 469.5,211.5 C 467.167,214.833 464.833,218.167 462.5,221.5C 458.413,228.252 452.746,233.252 445.5,236.5C 438.294,235.233 432.294,231.899 427.5,226.5C 425.5,223.833 423.167,221.5 420.5,219.5C 414.913,212.641 409.579,205.641 404.5,198.5C 403.071,195.304 401.405,192.304 399.5,189.5C 396.408,181.461 395.075,173.128 395.5,164.5C 395.368,161.43 395.701,158.43 396.5,155.5C 398.23,147.643 400.564,139.976 403.5,132.5C 405.774,128.286 407.774,123.953 409.5,119.5C 420.222,99.2738 432.389,79.9404 446,61.5C 449.867,57.2984 454.033,53.4651 458.5,50C 459.833,49.3333 461.167,49.3333 462.5,50C 465.984,53.43 468.151,57.5967 469,62.5C 474.569,98.651 478.403,134.984 480.5,171.5C 482.511,186.54 478.844,199.874 469.5,211.5 Z"/></g>
<g><path style="opacity:1" fill="#4a3930" d="M 394.5,109.5 C 399.328,113.081 404.328,116.415 409.5,119.5C 407.774,123.953 405.774,128.286 403.5,132.5C 397.019,130.963 390.686,128.963 384.5,126.5C 387.08,120.332 390.414,114.665 394.5,109.5 Z"/></g>
<g><path style="opacity:1" fill="#4d3b32" d="M 199.5,117.5 C 205.53,126.885 211.197,136.551 216.5,146.5C 214.537,147.96 212.704,149.627 211,151.5C 207.586,157.997 203.919,164.33 200,170.5C 197.963,172.706 195.797,174.706 193.5,176.5C 193.666,169.159 193.5,161.826 193,154.5C 190.858,145.576 188.025,136.909 184.5,128.5C 190.071,125.554 195.071,121.888 199.5,117.5 Z"/></g>
<g><path style="opacity:1" fill="#5a443a" d="M 384.5,126.5 C 390.686,128.963 397.019,130.963 403.5,132.5C 400.564,139.976 398.23,147.643 396.5,155.5C 391.529,154.517 386.863,152.684 382.5,150C 379.261,148.264 376.927,145.764 375.5,142.5C 378.009,136.808 381.009,131.474 384.5,126.5 Z"/></g>
<g><path style="opacity:1" fill="#4a3930" d="M 375.5,142.5 C 376.927,145.764 379.261,148.264 382.5,150C 386.863,152.684 391.529,154.517 396.5,155.5C 395.701,158.43 395.368,161.43 395.5,164.5C 386.456,159.477 376.789,156.477 366.5,155.5C 369.759,151.304 372.759,146.97 375.5,142.5 Z"/></g>
<g><path style="opacity:1" fill="#5a443a" d="M 216.5,146.5 C 219.833,151.833 224.167,156.167 229.5,159.5C 226.562,161.934 223.729,164.601 221,167.5C 213,180.167 205,192.833 197,205.5C 179.77,222.013 164.436,240.013 151,259.5C 143.42,268.924 134.253,276.257 123.5,281.5C 122.614,280.675 122.281,279.675 122.5,278.5C 123.99,271.229 124.49,263.896 124,256.5C 122.604,253.936 121.437,251.269 120.5,248.5C 127.286,246.514 133.12,242.848 138,237.5C 138.791,236.255 139.291,234.922 139.5,233.5C 143.446,234.527 147.446,234.694 151.5,234C 154.672,232.248 157.672,230.248 160.5,228C 170.319,218.507 178.819,208.007 186,196.5C 189.23,189.96 191.73,183.293 193.5,176.5C 195.797,174.706 197.963,172.706 200,170.5C 203.919,164.33 207.586,157.997 211,151.5C 212.704,149.627 214.537,147.96 216.5,146.5 Z"/></g>
<g><path style="opacity:1" fill="#5a443a" d="M 366.5,155.5 C 376.789,156.477 386.456,159.477 395.5,164.5C 395.075,173.128 396.408,181.461 399.5,189.5C 393.643,186.405 387.643,183.572 381.5,181C 371.975,176.734 362.308,176.401 352.5,180C 339.134,186.453 325.468,192.12 311.5,197C 305.88,197.983 300.213,198.483 294.5,198.5C 283.304,197.871 272.137,196.871 261,195.5C 244.878,196.23 231.545,202.563 221,214.5C 219.092,217.215 217.759,220.215 217,223.5C 215.919,230.791 215.253,238.124 215,245.5C 214.226,249.049 212.893,252.382 211,255.5C 206.609,259.612 201.776,263.112 196.5,266C 194.954,268.257 193.288,270.424 191.5,272.5C 200.37,272.905 208.536,270.572 216,265.5C 221.319,256.969 224.319,247.635 225,237.5C 229.115,225.385 237.281,217.219 249.5,213C 253.42,211.687 257.42,210.687 261.5,210C 271.833,209.667 282.167,209.333 292.5,209C 315.135,203.303 338.135,200.303 361.5,200C 367.213,198.874 372.88,197.54 378.5,196C 387.403,194.865 396.07,195.698 404.5,198.5C 409.579,205.641 414.913,212.641 420.5,219.5C 411.221,222.76 401.888,225.926 392.5,229C 386.833,229.667 381.167,229.667 375.5,229C 364.398,225.604 353.065,224.271 341.5,225C 337.757,226.136 334.09,227.47 330.5,229C 320.112,237.054 309.446,244.721 298.5,252C 284.049,258.364 269.049,263.031 253.5,266C 243.527,269.314 234.861,274.648 227.5,282C 231.344,284.515 235.177,287.015 239,289.5C 243.288,286.875 247.788,284.709 252.5,283C 266.177,282.083 278.843,278.083 290.5,271C 299.5,264 308.5,257 317.5,250C 329.069,242.533 341.735,238.366 355.5,237.5C 376.095,241.739 396.095,239.906 415.5,232C 419.71,230.391 423.71,228.558 427.5,226.5C 432.294,231.899 438.294,235.233 445.5,236.5C 452.746,233.252 458.413,228.252 462.5,221.5C 470.038,223.273 477.371,225.607 484.5,228.5C 481.471,234.557 477.471,239.891 472.5,244.5C 462.25,242.655 451.917,242.155 441.5,243C 437.783,244.18 434.116,245.513 430.5,247C 422.881,252.284 415.548,257.951 408.5,264C 403.655,267.422 398.322,269.755 392.5,271C 380.167,271.333 367.833,271.667 355.5,272C 346.977,273.507 340.143,277.673 335,284.5C 331.857,291.959 327.357,298.459 321.5,304C 319.754,304.471 318.087,305.138 316.5,306C 293.153,306.992 269.82,308.159 246.5,309.5C 246.729,314.005 246.063,318.339 244.5,322.5C 246.857,322.337 249.19,322.503 251.5,323C 254.672,324.752 257.672,326.752 260.5,329C 267.048,336.546 273.215,344.379 279,352.5C 291.925,363.532 306.592,366.532 323,361.5C 329.546,361.942 336.046,362.776 342.5,364C 356.05,366.714 368.384,364.047 379.5,356C 386.833,349.333 394.167,342.667 401.5,336C 405.935,333.449 410.601,331.449 415.5,330C 435.388,326.72 453.721,319.553 470.5,308.5C 471.497,315.468 471.83,322.468 471.5,329.5C 471.376,342.833 469.709,355.833 466.5,368.5C 447.884,368.821 429.884,372.321 412.5,379C 400.865,380.331 389.199,381.331 377.5,382C 373.833,383 370.167,384 366.5,385C 355.67,391.415 344.337,396.748 332.5,401C 320.543,402.532 308.543,402.865 296.5,402C 288.035,400.35 281.535,395.85 277,388.5C 273.923,381.348 270.59,374.348 267,367.5C 263.35,363.261 258.85,360.428 253.5,359C 234.282,358.686 215.615,355.353 197.5,349C 179.656,345.364 162.656,347.697 146.5,356C 138.468,360.344 130.801,365.177 123.5,370.5C 121.679,362.603 120.345,354.603 119.5,346.5C 128.288,345.964 136.621,343.464 144.5,339C 152.204,331.627 160.204,324.627 168.5,318C 174.071,314.712 180.071,312.879 186.5,312.5C 186.5,309.167 186.5,305.833 186.5,302.5C 174.15,302.167 162.15,304.001 150.5,308C 146.664,310.084 142.997,312.417 139.5,315C 133.754,321.694 127.087,327.194 119.5,331.5C 118.824,330.398 118.158,329.398 117.5,328.5C 117.222,319.447 117.556,310.447 118.5,301.5C 121.003,299.167 123.669,297.001 126.5,295C 132.66,292.423 138.327,289.09 143.5,285C 151.837,276.476 159.337,267.31 166,257.5C 172.312,250.851 179.479,245.351 187.5,241C 194.08,234.989 199.58,228.156 204,220.5C 208.721,211.001 213.055,201.334 217,191.5C 223.601,183.28 231.767,177.114 241.5,173C 251.652,169.879 261.986,167.545 272.5,166C 278.626,164.44 283.959,161.607 288.5,157.5C 308.507,157.048 328.341,158.715 348,162.5C 354.91,161.955 361.077,159.621 366.5,155.5 Z"/></g>
<g><path style="opacity:1" fill="#4a3930" d="M 288.5,157.5 C 283.959,161.607 278.626,164.44 272.5,166C 261.986,167.545 251.652,169.879 241.5,173C 231.767,177.114 223.601,183.28 217,191.5C 213.055,201.334 208.721,211.001 204,220.5C 199.58,228.156 194.08,234.989 187.5,241C 179.479,245.351 172.312,250.851 166,257.5C 159.337,267.31 151.837,276.476 143.5,285C 138.327,289.09 132.66,292.423 126.5,295C 123.669,297.001 121.003,299.167 118.5,301.5C 118.732,293.515 120.065,285.849 122.5,278.5C 122.281,279.675 122.614,280.675 123.5,281.5C 134.253,276.257 143.42,268.924 151,259.5C 164.436,240.013 179.77,222.013 197,205.5C 205,192.833 213,180.167 221,167.5C 223.729,164.601 226.562,161.934 229.5,159.5C 233.447,161.058 237.614,161.724 242,161.5C 257.432,159.415 272.932,158.082 288.5,157.5 Z"/></g>
<g><path style="opacity:1" fill="#4b3a31" d="M 399.5,189.5 C 401.405,192.304 403.071,195.304 404.5,198.5C 396.07,195.698 387.403,194.865 378.5,196C 372.88,197.54 367.213,198.874 361.5,200C 338.135,200.303 315.135,203.303 292.5,209C 282.167,209.333 271.833,209.667 261.5,210C 257.42,210.687 253.42,211.687 249.5,213C 237.281,217.219 229.115,225.385 225,237.5C 224.319,247.635 221.319,256.969 216,265.5C 208.536,270.572 200.37,272.905 191.5,272.5C 193.288,270.424 194.954,268.257 196.5,266C 201.776,263.112 206.609,259.612 211,255.5C 212.893,252.382 214.226,249.049 215,245.5C 215.253,238.124 215.919,230.791 217,223.5C 217.759,220.215 219.092,217.215 221,214.5C 231.545,202.563 244.878,196.23 261,195.5C 272.137,196.871 283.304,197.871 294.5,198.5C 300.213,198.483 305.88,197.983 311.5,197C 325.468,192.12 339.134,186.453 352.5,180C 362.308,176.401 371.975,176.734 381.5,181C 387.643,183.572 393.643,186.405 399.5,189.5 Z"/></g>
<g><path style="opacity:1" fill="#4b3931" d="M 469.5,211.5 C 471.527,211.338 473.527,211.505 475.5,212C 480.756,214.141 486.09,215.974 491.5,217.5C 489.527,221.457 487.194,225.124 484.5,228.5C 477.371,225.607 470.038,223.273 462.5,221.5C 464.833,218.167 467.167,214.833 469.5,211.5 Z"/></g>
<g><path style="opacity:1" fill="#4b3a31" d="M 420.5,219.5 C 423.167,221.5 425.5,223.833 427.5,226.5C 423.71,228.558 419.71,230.391 415.5,232C 396.095,239.906 376.095,241.739 355.5,237.5C 341.735,238.366 329.069,242.533 317.5,250C 308.5,257 299.5,264 290.5,271C 278.843,278.083 266.177,282.083 252.5,283C 247.788,284.709 243.288,286.875 239,289.5C 235.177,287.015 231.344,284.515 227.5,282C 234.861,274.648 243.527,269.314 253.5,266C 269.049,263.031 284.049,258.364 298.5,252C 309.446,244.721 320.112,237.054 330.5,229C 334.09,227.47 337.757,226.136 341.5,225C 353.065,224.271 364.398,225.604 375.5,229C 381.167,229.667 386.833,229.667 392.5,229C 401.888,225.926 411.221,222.76 420.5,219.5 Z"/></g>
<g><path style="opacity:1" fill="#4b3a31" d="M 131.5,227.5 C 134.205,229.512 136.872,231.512 139.5,233.5C 139.291,234.922 138.791,236.255 138,237.5C 133.12,242.848 127.286,246.514 120.5,248.5C 118.844,246.54 117.177,244.54 115.5,242.5C 122.124,238.876 127.457,233.876 131.5,227.5 Z"/></g>
<g><path style="opacity:1" fill="#4b3a31" d="M 472.5,244.5 C 470.472,247.902 468.472,251.235 466.5,254.5C 455.601,252.032 445.268,254.199 435.5,261C 431.132,265.033 427.132,269.366 423.5,274C 416.296,279.446 408.129,281.613 399,280.5C 385.823,279.25 372.656,279.417 359.5,281C 351.932,283.038 345.766,287.205 341,293.5C 338.904,298.096 336.738,302.596 334.5,307C 327.641,311.924 319.975,314.924 311.5,316C 296.489,316.167 281.489,316.667 266.5,317.5C 267.831,320.834 269.665,323.834 272,326.5C 279.198,333.364 286.032,340.53 292.5,348C 300.848,352.836 309.848,354.67 319.5,353.5C 336.165,355.085 351.165,350.919 364.5,341C 371.671,340.751 378.338,338.751 384.5,335C 389.272,329.907 393.606,324.574 397.5,319C 405.088,317.541 412.754,316.541 420.5,316C 423.5,315 426.5,314 429.5,313C 442.5,306 455.5,299 468.5,292C 469.337,290.989 469.67,289.822 469.5,288.5C 470.918,293.602 471.751,298.936 472,304.5C 472.823,313.01 472.657,321.344 471.5,329.5C 471.83,322.468 471.497,315.468 470.5,308.5C 453.721,319.553 435.388,326.72 415.5,330C 410.601,331.449 405.935,333.449 401.5,336C 394.167,342.667 386.833,349.333 379.5,356C 368.384,364.047 356.05,366.714 342.5,364C 336.046,362.776 329.546,361.942 323,361.5C 306.592,366.532 291.925,363.532 279,352.5C 273.215,344.379 267.048,336.546 260.5,329C 257.672,326.752 254.672,324.752 251.5,323C 249.19,322.503 246.857,322.337 244.5,322.5C 246.063,318.339 246.729,314.005 246.5,309.5C 269.82,308.159 293.153,306.992 316.5,306C 318.087,305.138 319.754,304.471 321.5,304C 327.357,298.459 331.857,291.959 335,284.5C 340.143,277.673 346.977,273.507 355.5,272C 367.833,271.667 380.167,271.333 392.5,271C 398.322,269.755 403.655,267.422 408.5,264C 415.548,257.951 422.881,252.284 430.5,247C 434.116,245.513 437.783,244.18 441.5,243C 451.917,242.155 462.25,242.655 472.5,244.5 Z"/></g>
<g><path style="opacity:1" fill="#59443a" d="M 466.5,254.5 C 465.958,256.949 465.625,259.449 465.5,262C 466.14,270.962 467.474,279.795 469.5,288.5C 469.67,289.822 469.337,290.989 468.5,292C 455.5,299 442.5,306 429.5,313C 426.5,314 423.5,315 420.5,316C 412.754,316.541 405.088,317.541 397.5,319C 393.606,324.574 389.272,329.907 384.5,335C 378.338,338.751 371.671,340.751 364.5,341C 351.165,350.919 336.165,355.085 319.5,353.5C 309.848,354.67 300.848,352.836 292.5,348C 286.032,340.53 279.198,333.364 272,326.5C 269.665,323.834 267.831,320.834 266.5,317.5C 281.489,316.667 296.489,316.167 311.5,316C 319.975,314.924 327.641,311.924 334.5,307C 336.738,302.596 338.904,298.096 341,293.5C 345.766,287.205 351.932,283.038 359.5,281C 372.656,279.417 385.823,279.25 399,280.5C 408.129,281.613 416.296,279.446 423.5,274C 427.132,269.366 431.132,265.033 435.5,261C 445.268,254.199 455.601,252.032 466.5,254.5 Z"/></g>
<g><path style="opacity:1" fill="#010000" d="M 209.5,287.5 C 227.112,285.462 237.112,293.128 239.5,310.5C 238.098,324.735 230.265,332.402 216,333.5C 197.173,330.202 190.173,319.202 195,300.5C 198.162,294.164 202.996,289.831 209.5,287.5 Z"/></g>
<g><path style="opacity:1" fill="#010000" d="M 359.5,287.5 C 377.112,285.462 387.112,293.128 389.5,310.5C 388.098,324.735 380.265,332.402 366,333.5C 347.173,330.202 340.173,319.202 345,300.5C 348.162,294.164 352.996,289.831 359.5,287.5 Z"/></g>
<g><path style="opacity:1" fill="#e4e4e4" d="M 221.5,300.5 C 227.83,299.666 230.663,302.333 230,308.5C 226.333,312.5 222.667,312.5 219,308.5C 218.023,305.183 218.856,302.516 221.5,300.5 Z"/></g>
<g><path style="opacity:1" fill="#e4e4e4" d="M 371.5,300.5 C 377.83,299.666 380.663,302.333 380,308.5C 376.333,312.5 372.667,312.5 369,308.5C 368.023,305.183 368.856,302.516 371.5,300.5 Z"/></g>
<g><path style="opacity:1" fill="#4b3931" d="M 119.5,346.5 C 118.054,340.726 117.388,334.726 117.5,328.5C 118.158,329.398 118.824,330.398 119.5,331.5C 127.087,327.194 133.754,321.694 139.5,315C 142.997,312.417 146.664,310.084 150.5,308C 162.15,304.001 174.15,302.167 186.5,302.5C 186.5,305.833 186.5,309.167 186.5,312.5C 180.071,312.879 174.071,314.712 168.5,318C 160.204,324.627 152.204,331.627 144.5,339C 136.621,343.464 128.288,345.964 119.5,346.5 Z"/></g>
<g><path style="opacity:1" fill="#4b3a31" d="M 466.5,368.5 C 466.354,372.387 465.687,376.054 464.5,379.5C 454.702,383.044 444.702,385.877 434.5,388C 421.322,387.756 408.322,389.09 395.5,392C 380.6,397.783 365.934,404.116 351.5,411C 345.006,413.138 338.34,414.305 331.5,414.5C 316.352,413.732 301.352,411.898 286.5,409C 281.786,406.949 277.619,404.115 274,400.5C 268.794,390.582 262.96,381.082 256.5,372C 247.057,366.053 236.723,362.72 225.5,362C 190.113,356.225 157.446,362.892 127.5,382C 126.748,382.671 126.414,383.504 126.5,384.5C 124.656,380.138 123.656,375.471 123.5,370.5C 130.801,365.177 138.468,360.344 146.5,356C 162.656,347.697 179.656,345.364 197.5,349C 215.615,355.353 234.282,358.686 253.5,359C 258.85,360.428 263.35,363.261 267,367.5C 270.59,374.348 273.923,381.348 277,388.5C 281.535,395.85 288.035,400.35 296.5,402C 308.543,402.865 320.543,402.532 332.5,401C 344.337,396.748 355.67,391.415 366.5,385C 370.167,384 373.833,383 377.5,382C 389.199,381.331 400.865,380.331 412.5,379C 429.884,372.321 447.884,368.821 466.5,368.5 Z"/></g>
<g><path style="opacity:1" fill="#5a443a" d="M 464.5,379.5 C 463.786,385.642 462.452,391.642 460.5,397.5C 448.545,398.293 436.545,398.793 424.5,399C 403.431,405.533 382.764,413.199 362.5,422C 342.44,427.85 322.106,429.016 301.5,425.5C 294.169,426.206 286.835,426.372 279.5,426C 275.759,424.262 272.592,421.762 270,418.5C 264.69,409.381 258.523,400.881 251.5,393C 241.684,386.89 231.017,384.89 219.5,387C 204.416,387.961 189.416,389.628 174.5,392C 159.564,395.145 145.231,399.978 131.5,406.5C 129.204,399.317 127.538,391.983 126.5,384.5C 126.414,383.504 126.748,382.671 127.5,382C 157.446,362.892 190.113,356.225 225.5,362C 236.723,362.72 247.057,366.053 256.5,372C 262.96,381.082 268.794,390.582 274,400.5C 277.619,404.115 281.786,406.949 286.5,409C 301.352,411.898 316.352,413.732 331.5,414.5C 338.34,414.305 345.006,413.138 351.5,411C 365.934,404.116 380.6,397.783 395.5,392C 408.322,389.09 421.322,387.756 434.5,388C 444.702,385.877 454.702,383.044 464.5,379.5 Z"/></g>
<g><path style="opacity:1" fill="#4b3a31" d="M 460.5,397.5 C 459.408,403.433 457.741,409.1 455.5,414.5C 455.565,414.062 455.399,413.728 455,413.5C 449.361,415.63 443.528,417.13 437.5,418C 421.14,419.49 404.807,421.157 388.5,423C 384.51,424.327 380.51,425.66 376.5,427C 368.402,432.1 360.069,436.767 351.5,441C 347.402,442.006 343.236,442.506 339,442.5C 328.303,441.427 317.636,440.094 307,438.5C 301.686,438.901 296.519,440.067 291.5,442C 281.62,444.655 273.454,442.155 267,434.5C 262.439,423.943 256.272,414.443 248.5,406C 239.347,399.896 229.18,397.062 218,397.5C 205.613,397.87 193.446,399.703 181.5,403C 166.707,409.732 151.707,415.899 136.5,421.5C 134.659,416.643 132.992,411.643 131.5,406.5C 145.231,399.978 159.564,395.145 174.5,392C 189.416,389.628 204.416,387.961 219.5,387C 231.017,384.89 241.684,386.89 251.5,393C 258.523,400.881 264.69,409.381 270,418.5C 272.592,421.762 275.759,424.262 279.5,426C 286.835,426.372 294.169,426.206 301.5,425.5C 322.106,429.016 342.44,427.85 362.5,422C 382.764,413.199 403.431,405.533 424.5,399C 436.545,398.793 448.545,398.293 460.5,397.5 Z"/></g>
<g><path style="opacity:1" fill="#5a443a" d="M 455.5,414.5 C 454.239,420.615 452.573,426.615 450.5,432.5C 423.535,435.321 398.535,443.821 375.5,458C 370.376,460.562 365.043,462.562 359.5,464C 337.461,469.34 315.128,471.673 292.5,471C 281.788,469.476 272.121,465.476 263.5,459C 253.803,449.151 242.469,441.817 229.5,437C 225.211,436.122 220.878,435.622 216.5,435.5C 204.844,436.5 193.177,436.666 181.5,436C 167.91,433.336 154.244,432.836 140.5,434.5C 138.768,430.303 137.435,425.969 136.5,421.5C 151.707,415.899 166.707,409.732 181.5,403C 193.446,399.703 205.613,397.87 218,397.5C 229.18,397.062 239.347,399.896 248.5,406C 256.272,414.443 262.439,423.943 267,434.5C 273.454,442.155 281.62,444.655 291.5,442C 296.519,440.067 301.686,438.901 307,438.5C 317.636,440.094 328.303,441.427 339,442.5C 343.236,442.506 347.402,442.006 351.5,441C 360.069,436.767 368.402,432.1 376.5,427C 380.51,425.66 384.51,424.327 388.5,423C 404.807,421.157 421.14,419.49 437.5,418C 443.528,417.13 449.361,415.63 455,413.5C 455.399,413.728 455.565,414.062 455.5,414.5 Z"/></g>
<g><path style="opacity:1" fill="#4b3a31" d="M 450.5,432.5 C 448.349,439.455 445.682,446.122 442.5,452.5C 428.297,453.315 414.297,455.481 400.5,459C 393.592,460.922 388.092,464.755 384,470.5C 383.254,473.789 384.42,476.289 387.5,478C 394.484,479.882 401.484,479.882 408.5,478C 417.237,472.811 426.57,469.311 436.5,467.5C 433.01,475.813 429.01,483.813 424.5,491.5C 416.186,492.455 407.852,492.622 399.5,492C 387.747,488.292 376.081,484.292 364.5,480C 355.248,477.196 345.915,476.863 336.5,479C 326.891,481.87 317.224,484.536 307.5,487C 295.578,488.251 284.578,485.584 274.5,479C 265.544,472.379 256.877,465.379 248.5,458C 243.226,454.53 237.56,451.864 231.5,450C 218.786,449.375 206.12,449.875 193.5,451.5C 178.029,449.602 162.696,450.269 147.5,453.5C 144.574,447.391 142.241,441.057 140.5,434.5C 154.244,432.836 167.91,433.336 181.5,436C 193.177,436.666 204.844,436.5 216.5,435.5C 220.878,435.622 225.211,436.122 229.5,437C 242.469,441.817 253.803,449.151 263.5,459C 272.121,465.476 281.788,469.476 292.5,471C 315.128,471.673 337.461,469.34 359.5,464C 365.043,462.562 370.376,460.562 375.5,458C 398.535,443.821 423.535,435.321 450.5,432.5 Z"/></g>
<g><path style="opacity:1" fill="#5a443a" d="M 424.5,491.5 C 422.088,496.659 419.421,501.659 416.5,506.5C 409.782,509.263 402.782,510.929 395.5,511.5C 391.445,511.425 387.445,510.925 383.5,510C 370.49,505.58 357.156,502.747 343.5,501.5C 342.873,497.58 341.207,494.247 338.5,491.5C 335.141,488.088 330.974,486.088 326,485.5C 315.453,488.476 304.787,490.809 294,492.5C 284,490.5 274,488.5 264,486.5C 255.079,486.197 249.246,490.197 246.5,498.5C 245.883,498.611 245.383,498.944 245,499.5C 234.069,488.619 220.902,483.786 205.5,485C 197.621,487.403 189.621,489.403 181.5,491C 175.796,491.687 170.13,491.521 164.5,490.5C 158.014,478.53 152.348,466.196 147.5,453.5C 162.696,450.269 178.029,449.602 193.5,451.5C 206.12,449.875 218.786,449.375 231.5,450C 237.56,451.864 243.226,454.53 248.5,458C 256.877,465.379 265.544,472.379 274.5,479C 284.578,485.584 295.578,488.251 307.5,487C 317.224,484.536 326.891,481.87 336.5,479C 345.915,476.863 355.248,477.196 364.5,480C 376.081,484.292 387.747,488.292 399.5,492C 407.852,492.622 416.186,492.455 424.5,491.5 Z"/></g>
<g><path style="opacity:1" fill="#5a443a" d="M 442.5,452.5 C 440.781,457.606 438.781,462.606 436.5,467.5C 426.57,469.311 417.237,472.811 408.5,478C 401.484,479.882 394.484,479.882 387.5,478C 384.42,476.289 383.254,473.789 384,470.5C 388.092,464.755 393.592,460.922 400.5,459C 414.297,455.481 428.297,453.315 442.5,452.5 Z"/></g>
<g><path style="opacity:1" fill="#4a3930" d="M 246.5,498.5 C 246.5,501.5 246.5,504.5 246.5,507.5C 242.344,504.189 238.01,501.023 233.5,498C 225.808,494.752 217.808,493.752 209.5,495C 196.796,497.995 184.129,500.495 171.5,502.5C 169.182,498.535 166.848,494.535 164.5,490.5C 170.13,491.521 175.796,491.687 181.5,491C 189.621,489.403 197.621,487.403 205.5,485C 220.902,483.786 234.069,488.619 245,499.5C 245.383,498.944 245.883,498.611 246.5,498.5 Z"/></g>
<g><path style="opacity:1" fill="#000000" d="M 338.5,491.5 C 311.953,504.269 284.953,516.269 257.5,527.5C 251.778,522.064 248.112,515.397 246.5,507.5C 246.5,504.5 246.5,501.5 246.5,498.5C 249.246,490.197 255.079,486.197 264,486.5C 274,488.5 284,490.5 294,492.5C 304.787,490.809 315.453,488.476 326,485.5C 330.974,486.088 335.141,488.088 338.5,491.5 Z"/></g>
<g><path style="opacity:1" fill="#0b0604" d="M 338.5,491.5 C 341.207,494.247 342.873,497.58 343.5,501.5C 342.962,505.524 342.295,509.524 341.5,513.5C 338.314,520.023 333.981,525.689 328.5,530.5C 323.391,534.05 318.058,537.05 312.5,539.5C 295.941,544.908 280.274,543.242 265.5,534.5C 262.216,532.883 259.549,530.55 257.5,527.5C 284.953,516.269 311.953,504.269 338.5,491.5 Z"/></g>
<g><path style="opacity:1" fill="#59443a" d="M 246.5,507.5 C 248.112,515.397 251.778,522.064 257.5,527.5C 259.549,530.55 262.216,532.883 265.5,534.5C 267.22,537.731 269.553,540.564 272.5,543C 267.5,543.667 262.5,543.667 257.5,543C 230.567,537.254 229.9,538.921 255.5,548C 263.484,549.331 271.484,550.498 279.5,551.5C 289.845,552.004 299.512,554.837 308.5,560C 314.833,565 321.167,570 327.5,575C 328.598,575.77 328.598,576.603 327.5,577.5C 315.907,579.192 304.24,579.858 292.5,579.5C 283.087,569.28 271.754,561.78 258.5,557C 241.112,550.423 223.112,547.256 204.5,547.5C 190.803,534.471 179.803,519.471 171.5,502.5C 184.129,500.495 196.796,497.995 209.5,495C 217.808,493.752 225.808,494.752 233.5,498C 238.01,501.023 242.344,504.189 246.5,507.5 Z"/></g>
<g><path style="opacity:1" fill="#493830" d="M 343.5,501.5 C 357.156,502.747 370.49,505.58 383.5,510C 387.445,510.925 391.445,511.425 395.5,511.5C 402.782,510.929 409.782,509.263 416.5,506.5C 414.403,510.372 412.069,514.039 409.5,517.5C 396.757,521.193 383.757,522.36 370.5,521C 360.743,518.802 351.076,516.302 341.5,513.5C 342.295,509.524 342.962,505.524 343.5,501.5 Z"/></g>
<g><path style="opacity:1" fill="#543f36" d="M 341.5,513.5 C 351.076,516.302 360.743,518.802 370.5,521C 383.757,522.36 396.757,521.193 409.5,517.5C 403.369,528.967 395.369,538.967 385.5,547.5C 373.348,543.838 361.348,539.671 349.5,535C 343.254,533.459 336.921,532.459 330.5,532C 329.584,531.722 328.918,531.222 328.5,530.5C 333.981,525.689 338.314,520.023 341.5,513.5 Z"/></g>
<g><path style="opacity:1" fill="#44342c" d="M 328.5,530.5 C 328.918,531.222 329.584,531.722 330.5,532C 336.921,532.459 343.254,533.459 349.5,535C 361.348,539.671 373.348,543.838 385.5,547.5C 382.457,551.544 378.791,554.877 374.5,557.5C 367.036,555.369 359.369,553.536 351.5,552C 340.988,547.607 330.322,543.607 319.5,540C 317.19,539.503 314.857,539.337 312.5,539.5C 318.058,537.05 323.391,534.05 328.5,530.5 Z"/></g>
<g><path style="opacity:1" fill="#513d34" d="M 265.5,534.5 C 280.274,543.242 295.941,544.908 312.5,539.5C 314.857,539.337 317.19,539.503 319.5,540C 330.322,543.607 340.988,547.607 351.5,552C 359.369,553.536 367.036,555.369 374.5,557.5C 367.423,563.374 359.423,567.708 350.5,570.5C 345.314,569.244 340.314,567.41 335.5,565C 323.565,558.199 311.232,552.199 298.5,547C 290.29,544.786 281.956,544.119 273.5,545C 275.706,547.037 277.706,549.203 279.5,551.5C 271.484,550.498 263.484,549.331 255.5,548C 229.9,538.921 230.567,537.254 257.5,543C 262.5,543.667 267.5,543.667 272.5,543C 269.553,540.564 267.22,537.731 265.5,534.5 Z"/></g>
<g><path style="opacity:1" fill="#44342c" d="M 350.5,570.5 C 343.355,574.208 335.688,576.541 327.5,577.5C 328.598,576.603 328.598,575.77 327.5,575C 321.167,570 314.833,565 308.5,560C 299.512,554.837 289.845,552.004 279.5,551.5C 277.706,549.203 275.706,547.037 273.5,545C 281.956,544.119 290.29,544.786 298.5,547C 311.232,552.199 323.565,558.199 335.5,565C 340.314,567.41 345.314,569.244 350.5,570.5 Z"/></g>
<g><path style="opacity:1" fill="#4b3931" d="M 204.5,547.5 C 223.112,547.256 241.112,550.423 258.5,557C 271.754,561.78 283.087,569.28 292.5,579.5C 283.273,579.877 274.273,579.211 265.5,577.5C 256.354,568.208 245.687,561.041 233.5,556C 226.389,554.312 219.389,554.145 212.5,555.5C 209.5,553.167 206.833,550.5 204.5,547.5 Z"/></g>
<g><path style="opacity:1" fill="#594339" d="M 212.5,555.5 C 219.389,554.145 226.389,554.312 233.5,556C 245.687,561.041 256.354,568.208 265.5,577.5C 245.604,575.381 227.938,568.048 212.5,555.5 Z"/></g>
</svg>
