<?xml version="1.0" encoding="UTF-8"?>
<!DOCTYPE svg PUBLIC "-//W3C//DTD SVG 1.1//EN" "http://www.w3.org/Graphics/SVG/1.1/DTD/svg11.dtd">
<svg xmlns="http://www.w3.org/2000/svg" version="1.1" width="600px" height="600px" style="shape-rendering:geometricPrecision; text-rendering:geometricPrecision; image-rendering:optimizeQuality; fill-rule:evenodd; clip-rule:evenodd" xmlns:xlink="http://www.w3.org/1999/xlink">
<g><path style="opacity:0.952" fill="#020202" d="M 296.5,8.5 C 309.041,8.6836 321.374,10.3503 333.5,13.5C 356.648,10.999 379.482,12.6657 402,18.5C 467.416,13.8586 523.416,34.5253 570,80.5C 577.111,88.9459 583.445,97.9459 589,107.5C 590.795,114.023 590.129,120.356 587,126.5C 577.454,141.927 569.787,158.261 564,175.5C 562.744,180.448 561.744,185.448 561,190.5C 559.817,199.849 559.151,209.183 559,218.5C 557.278,220.444 555.111,221.444 552.5,221.5C 546.802,220.489 541.468,218.489 536.5,215.5C 541.195,256.539 542.362,297.872 540,339.5C 539.036,357.951 535.703,375.951 530,393.5C 526.735,402.929 520.568,409.596 511.5,413.5C 507.089,422.663 501.922,431.329 496,439.5C 496.506,460.154 496.506,480.82 496,501.5C 494.571,524.452 487.571,545.452 475,564.5C 467.261,572.265 459.095,579.432 450.5,586C 437.703,592.98 424.703,593.313 411.5,587C 400.324,581.158 390.991,573.158 383.5,563C 378.601,561.551 373.935,559.551 369.5,557C 356.833,547.667 344.167,538.333 331.5,529C 321.954,522.595 311.454,518.762 300,517.5C 291.974,518.397 284.474,520.897 277.5,525C 262.833,536.333 248.167,547.667 233.5,559C 227.416,562.861 220.749,565.028 213.5,565.5C 204.877,578.973 192.877,587.806 177.5,592C 164.302,595.263 153.302,591.93 144.5,582C 126.024,571.596 113.858,556.096 108,535.5C 104.48,522.715 102.147,509.715 101,496.5C 92.5069,481.337 86.6735,465.17 83.5,448C 81.5506,438.572 80.0506,429.072 79,419.5C 66.0325,392.297 58.6992,363.631 57,333.5C 54.0876,294.126 54.421,254.793 58,215.5C 53.1827,218.267 48.016,219.101 42.5,218C 41.3333,217.5 40.5,216.667 40,215.5C 40.6541,195.774 37.3208,176.774 30,158.5C 23.922,146.01 17.5887,133.677 11,121.5C 9.50763,116.589 9.1743,111.589 10,106.5C 20.217,87.9433 33.717,72.11 50.5,59C 91.9143,27.8631 138.581,13.1965 190.5,15C 192.433,15.2511 194.266,15.7511 196,16.5C 208.25,13.3057 220.75,11.9724 233.5,12.5C 243.393,12.381 253.227,13.0477 263,14.5C 274.142,11.5614 285.308,9.5614 296.5,8.5 Z"/></g>
<g><path style="opacity:1" fill="#e5e6e7" d="M 336.5,23.5 C 334.944,38.1257 334.444,52.7923 335,67.5C 337.493,78.9875 344.66,85.1541 356.5,86C 387.342,85.4023 417.009,90.9023 445.5,102.5C 446.107,102.376 446.44,102.043 446.5,101.5C 461.659,131.155 479.826,158.822 501,184.5C 509.094,193.099 517.594,201.099 526.5,208.5C 525.914,210.243 525.581,212.076 525.5,214C 530.266,254.363 531.766,294.863 530,335.5C 528.677,349.258 526.844,362.925 524.5,376.5C 523.307,352.305 521.807,327.971 520,303.5C 514.879,269.899 506.213,237.233 494,205.5C 485.955,182.21 471.788,163.71 451.5,150C 427.557,137.959 402.224,133.625 375.5,137C 350.391,140.635 325.224,143.801 300,146.5C 274.779,143.802 249.612,140.635 224.5,137C 163.405,129.487 122.905,154.654 103,212.5C 90.7555,245.811 83.0888,280.145 80,315.5C 78.7265,338.32 77.5598,360.987 76.5,383.5C 71.6222,366.538 68.4555,349.205 67,331.5C 65.616,303.512 65.2827,275.512 66,247.5C 66.5081,236.594 67.6748,225.761 69.5,215C 69.0566,213.175 68.7233,211.342 68.5,209.5C 94.1039,188.06 115.604,163.06 133,134.5C 139.194,123.438 145.361,112.438 151.5,101.5C 151.735,102.097 152.235,102.43 153,102.5C 184.644,90.1214 217.477,83.9547 251.5,84C 258.476,80.2302 262.642,74.3968 264,66.5C 264.943,52.3451 264.11,38.3451 261.5,24.5C 267.254,23.8119 272.921,22.6452 278.5,21C 285.298,20.048 292.132,19.548 299,19.5C 311.632,19.774 324.132,21.1073 336.5,23.5 Z"/></g>
<g><path style="opacity:1" fill="#f2f2f3" d="M 261.5,24.5 C 264.11,38.3451 264.943,52.3451 264,66.5C 262.642,74.3968 258.476,80.2302 251.5,84C 217.477,83.9547 184.644,90.1214 153,102.5C 152.235,102.43 151.735,102.097 151.5,101.5C 160.646,82.5388 171.812,64.8722 185,48.5C 191,43.1667 197,37.8333 203,32.5C 204.202,30.3225 204.702,27.9892 204.5,25.5C 205.263,24.7321 206.263,24.2321 207.5,24C 225.531,21.8823 243.531,22.049 261.5,24.5 Z"/></g>
<g><path style="opacity:1" fill="#f2f2f3" d="M 394.5,27.5 C 394.249,31.3311 395.416,34.6644 398,37.5C 402.077,40.788 406.244,43.9547 410.5,47C 424.881,63.5947 436.881,81.7614 446.5,101.5C 446.44,102.043 446.107,102.376 445.5,102.5C 417.009,90.9023 387.342,85.4023 356.5,86C 344.66,85.1541 337.493,78.9875 335,67.5C 334.444,52.7923 334.944,38.1257 336.5,23.5C 356.079,21.3703 375.412,22.7036 394.5,27.5 Z"/></g>
<g><path style="opacity:1" fill="#c29e72" d="M 204.5,25.5 C 204.702,27.9892 204.202,30.3225 203,32.5C 197,37.8333 191,43.1667 185,48.5C 171.812,64.8722 160.646,82.5388 151.5,101.5C 145.361,112.438 139.194,123.438 133,134.5C 115.604,163.06 94.1039,188.06 68.5,209.5C 66.211,206.439 63.0444,204.772 59,204.5C 55.6706,205.222 52.5039,206.222 49.5,207.5C 50.1804,187.581 46.3471,168.581 38,150.5C 32.6667,140.5 27.3333,130.5 22,120.5C 20.0558,116.682 19.3891,112.682 20,108.5C 38.3177,80.1826 62.8177,59.016 93.5,45C 118.862,32.4031 145.695,25.5698 174,24.5C 181.229,24.5441 188.396,25.2108 195.5,26.5C 198.449,25.6978 201.449,25.3645 204.5,25.5 Z"/></g>
<g><path style="opacity:1" fill="#d5d5d5" d="M 526.5,208.5 C 517.594,201.099 509.094,193.099 501,184.5C 479.826,158.822 461.659,131.155 446.5,101.5C 436.881,81.7614 424.881,63.5947 410.5,47C 406.244,43.9547 402.077,40.788 398,37.5C 395.416,34.6644 394.249,31.3311 394.5,27.5C 450.932,22.9175 501.599,38.0841 546.5,73C 560.572,84.3834 571.572,98.05 579.5,114C 579.369,116.253 578.869,118.419 578,120.5C 569.259,135.982 561.592,151.982 555,168.5C 551.427,181.936 549.594,195.603 549.5,209.5C 544.734,207.548 539.9,205.882 535,204.5C 531.387,204.302 528.553,205.635 526.5,208.5 Z"/></g>
<g><path style="opacity:1" fill="#dbdcdc" d="M 524.5,376.5 C 522.572,385.188 518.905,393.021 513.5,400C 509.614,401.527 506.114,403.694 503,406.5C 499.581,414.348 495.414,421.682 490.5,428.5C 484.982,417.134 479.149,405.8 473,394.5C 467.577,386.655 461.911,378.989 456,371.5C 447.987,364.097 440.153,356.597 432.5,349C 403.399,331.19 371.733,321.19 337.5,319C 306.574,317.342 275.74,318.509 245,322.5C 243.93,322.472 243.097,322.139 242.5,321.5C 248.562,316.553 253.062,310.22 256,302.5C 265.618,275.096 266.784,247.43 259.5,219.5C 259.735,218.903 260.235,218.57 261,218.5C 274.75,227.308 282.416,239.974 284,256.5C 284.667,257.167 285.333,257.833 286,258.5C 286.961,241.226 280.795,226.726 267.5,215C 263.381,211.774 258.714,209.94 253.5,209.5C 243.141,197.152 229.808,190.319 213.5,189C 179.819,184.669 149.485,192.669 122.5,213C 95.9983,237.776 85.4983,268.276 91,304.5C 91.0773,319.811 94.744,334.144 102,347.5C 105.534,351.369 109.367,354.869 113.5,358C 123.937,360.9 134.604,362.067 145.5,361.5C 147.199,361.34 148.866,361.506 150.5,362C 129.802,382.873 114.802,407.373 105.5,435.5C 105.043,436.298 104.376,436.631 103.5,436.5C 90.5801,420.996 81.5801,403.329 76.5,383.5C 77.5598,360.987 78.7265,338.32 80,315.5C 83.0888,280.145 90.7555,245.811 103,212.5C 122.905,154.654 163.405,129.487 224.5,137C 249.612,140.635 274.779,143.802 300,146.5C 325.224,143.801 350.391,140.635 375.5,137C 402.224,133.625 427.557,137.959 451.5,150C 471.788,163.71 485.955,182.21 494,205.5C 506.213,237.233 514.879,269.899 520,303.5C 521.807,327.971 523.307,352.305 524.5,376.5 Z"/></g>
<g><path style="opacity:1" fill="#bdbdbe" d="M 267.5,156.5 C 271.672,158.158 275.172,160.825 278,164.5C 287.821,180.78 293.155,198.447 294,217.5C 294.667,223.833 294.667,230.167 294,236.5C 293.395,238.481 292.395,238.815 291,237.5C 290.801,222.575 288.801,207.908 285,193.5C 282.127,181.735 275.794,172.402 266,165.5C 265.068,162.177 265.568,159.177 267.5,156.5 Z"/></g>
<g><path style="opacity:1" fill="#bdbdbe" d="M 328.5,156.5 C 330.017,156.511 331.184,157.177 332,158.5C 332.667,160.833 332.667,163.167 332,165.5C 323.937,170.949 318.27,178.283 315,187.5C 309.558,203.695 306.891,220.362 307,237.5C 305.582,240.001 304.582,239.668 304,236.5C 302.47,212.185 307.137,189.185 318,167.5C 321.03,163.305 324.53,159.639 328.5,156.5 Z"/></g>
<g><path style="opacity:1" fill="#ab9279" d="M 253.5,209.5 C 255.965,212.614 257.965,215.947 259.5,219.5C 266.784,247.43 265.618,275.096 256,302.5C 253.062,310.22 248.562,316.553 242.5,321.5C 218.493,324.891 195.826,332.391 174.5,344C 166.961,348.606 159.961,353.939 153.5,360C 150.635,360.183 147.969,360.683 145.5,361.5C 134.604,362.067 123.937,360.9 113.5,358C 109.367,354.869 105.534,351.369 102,347.5C 94.744,334.144 91.0773,319.811 91,304.5C 85.4983,268.276 95.9983,237.776 122.5,213C 149.485,192.669 179.819,184.669 213.5,189C 229.808,190.319 243.141,197.152 253.5,209.5 Z"/></g>
<g><path style="opacity:1" fill="#bdbdbe" d="M 339.5,209.5 C 344.675,208.507 346.509,210.507 345,215.5C 332.481,218.767 323.814,226.434 319,238.5C 316.399,244.235 314.733,250.235 314,256.5C 313.333,257.167 312.667,257.833 312,258.5C 311.032,241.237 317.199,226.737 330.5,215C 333.564,213.141 336.564,211.308 339.5,209.5 Z"/></g>
<g><path style="opacity:1" fill="#bdbdbd" d="M 253.5,209.5 C 258.714,209.94 263.381,211.774 267.5,215C 280.795,226.726 286.961,241.226 286,258.5C 285.333,257.833 284.667,257.167 284,256.5C 282.416,239.974 274.75,227.308 261,218.5C 260.235,218.57 259.735,218.903 259.5,219.5C 257.965,215.947 255.965,212.614 253.5,209.5 Z"/></g>
<g><path style="opacity:1" fill="#e5e6e7" d="M 447.5,291.5 C 444.987,287.142 441.987,283.142 438.5,279.5C 434.672,273.499 429.172,270.165 422,269.5C 413.428,270.415 404.928,271.748 396.5,273.5C 395.167,273.5 393.833,273.5 392.5,273.5C 386.612,274.012 380.945,273.345 375.5,271.5C 361.355,261.568 356.855,248.234 362,231.5C 367.958,222.602 376.125,216.768 386.5,214C 404.427,209.793 422.427,209.46 440.5,213C 469.46,220.308 483.793,238.974 483.5,269C 483.016,276.711 481.516,284.211 479,291.5C 475.486,298.515 469.986,303.181 462.5,305.5C 461.205,304.902 459.872,304.402 458.5,304C 454.453,300.002 450.786,295.835 447.5,291.5 Z"/></g>
<g><path style="opacity:1" fill="#c29e72" d="M 206.5,275.5 C 202.802,275.448 199.135,275.114 195.5,274.5C 176.72,267.004 163.053,272.338 154.5,290.5C 152.265,293.291 150.265,296.291 148.5,299.5C 145.813,300.664 143.48,302.497 141.5,305C 135.812,307.52 130.812,306.52 126.5,302C 119.175,293.057 115.841,282.724 116.5,271C 117.751,240.758 133.085,222.425 162.5,216C 181.537,212.046 200.204,213.379 218.5,220C 242.699,234.218 244.699,251.218 224.5,271C 218.681,273.708 212.681,275.208 206.5,275.5 Z"/></g>
<g><path style="opacity:1" fill="#110e0f" d="M 438.5,279.5 C 438.192,296.642 429.525,305.142 412.5,305C 396.932,299.697 391.598,289.197 396.5,273.5C 404.928,271.748 413.428,270.415 422,269.5C 429.172,270.165 434.672,273.499 438.5,279.5 Z"/></g>
<g><path style="opacity:1" fill="#110e0f" d="M 195.5,274.5 C 199.775,292.587 192.608,302.921 174,305.5C 164.745,304.078 158.245,299.078 154.5,290.5C 163.053,272.338 176.72,267.004 195.5,274.5 Z"/></g>
<g><path style="opacity:1" fill="#b2b2b3" d="M 375.5,271.5 C 380.945,273.345 386.612,274.012 392.5,273.5C 390.107,274.21 387.607,274.877 385,275.5C 384.501,279.821 384.334,284.154 384.5,288.5C 383.686,286.369 383.186,284.036 383,281.5C 380.239,278.286 377.739,274.953 375.5,271.5 Z"/></g>
<g><path style="opacity:1" fill="#444445" d="M 392.5,273.5 C 393.833,273.5 395.167,273.5 396.5,273.5C 391.598,289.197 396.932,299.697 412.5,305C 429.525,305.142 438.192,296.642 438.5,279.5C 441.987,283.142 444.987,287.142 447.5,291.5C 448.549,295.463 447.716,299.129 445,302.5C 430.415,318.605 413.915,320.772 395.5,309C 389.866,303.232 386.199,296.399 384.5,288.5C 384.334,284.154 384.501,279.821 385,275.5C 387.607,274.877 390.107,274.21 392.5,273.5 Z"/></g>
<g><path style="opacity:1" fill="#d9dadb" d="M 180.5,274.5 C 188.744,274.228 191.078,277.728 187.5,285C 180.243,287.746 177.077,285.246 178,277.5C 178.698,276.309 179.531,275.309 180.5,274.5 Z"/></g>
<g><path style="opacity:1" fill="#464545" d="M 195.5,274.5 C 199.135,275.114 202.802,275.448 206.5,275.5C 210.625,292.924 204.625,305.757 188.5,314C 171.726,319.562 158.06,315.396 147.5,301.5C 147.863,300.817 148.196,300.15 148.5,299.5C 150.265,296.291 152.265,293.291 154.5,290.5C 158.245,299.078 164.745,304.078 174,305.5C 192.608,302.921 199.775,292.587 195.5,274.5 Z"/></g>
<g><path style="opacity:1" fill="#dadbdc" d="M 421.5,274.5 C 428.665,273.497 431.498,276.497 430,283.5C 427.029,287.092 423.696,287.425 420,284.5C 417.729,280.697 418.229,277.363 421.5,274.5 Z"/></g>
<g><path style="opacity:1" fill="#e4d5cf" d="M 490.5,428.5 C 488.176,431.138 486.343,434.138 485,437.5C 486.42,457.343 486.753,477.343 486,497.5C 484.904,519.234 478.571,539.234 467,557.5C 456.863,568.443 445.03,576.109 431.5,580.5C 413.304,579.478 400.804,570.478 394,553.5C 388.537,535.984 383.537,518.317 379,500.5C 374.318,482.834 365.151,468.001 351.5,456C 343.167,451 334.833,446 326.5,441C 324,438.5 321.5,436 319,433.5C 316.965,430.439 315.799,427.105 315.5,423.5C 330.281,426.864 341.448,421.864 349,408.5C 358.801,385.277 352.968,367.111 331.5,354C 310.167,342.667 288.833,342.667 267.5,354C 244.248,369.92 239.748,390.087 254,414.5C 259.417,420.083 265.917,423.75 273.5,425.5C 276.82,424.703 280.154,424.036 283.5,423.5C 283.189,429.289 280.856,434.122 276.5,438C 267.099,444.396 257.432,450.396 247.5,456C 232.654,470.18 222.821,487.346 218,507.5C 214.368,525.697 209.035,543.364 202,560.5C 194.67,574.573 183.17,581.573 167.5,581.5C 166.307,579.473 164.64,577.973 162.5,577C 149.079,574.242 138.246,567.409 130,556.5C 120.201,541.657 114.534,525.323 113,507.5C 111.795,486.858 111.129,466.191 111,445.5C 108.665,442.335 106.165,439.335 103.5,436.5C 104.376,436.631 105.043,436.298 105.5,435.5C 114.802,407.373 129.802,382.873 150.5,362C 148.866,361.506 147.199,361.34 145.5,361.5C 147.969,360.683 150.635,360.183 153.5,360C 159.961,353.939 166.961,348.606 174.5,344C 195.826,332.391 218.493,324.891 242.5,321.5C 243.097,322.139 243.93,322.472 245,322.5C 275.74,318.509 306.574,317.342 337.5,319C 371.733,321.19 403.399,331.19 432.5,349C 440.153,356.597 447.987,364.097 456,371.5C 461.911,378.989 467.577,386.655 473,394.5C 479.149,405.8 484.982,417.134 490.5,428.5 Z"/></g>
<g><path style="opacity:1" fill="#202020" d="M 271.5,373.5 C 282.21,375.374 287.044,381.708 286,392.5C 278.766,400.1 270.266,401.933 260.5,398C 259.14,396.062 259.473,394.396 261.5,393C 265.882,392.032 270.049,390.532 274,388.5C 274.667,386.833 274.667,385.167 274,383.5C 271.569,380.383 270.735,377.05 271.5,373.5 Z"/></g>
<g><path style="opacity:1" fill="#202020" d="M 324.5,373.5 C 326.948,373.085 328.281,374.085 328.5,376.5C 327.351,378.797 326.185,381.13 325,383.5C 324.333,385.167 324.333,386.833 325,388.5C 328.872,390.745 333.038,392.245 337.5,393C 339.527,394.396 339.86,396.062 338.5,398C 329.333,401.9 321.166,400.4 314,393.5C 311.421,383.658 314.921,376.991 324.5,373.5 Z"/></g>
<g><path style="opacity:1" fill="#141414" d="M 188.5,410.5 C 198.855,410.038 201.855,414.538 197.5,424C 187.961,427.66 183.794,424.493 185,414.5C 185.69,412.65 186.856,411.316 188.5,410.5 Z"/></g>
<g><path style="opacity:1" fill="#151414" d="M 395.5,410.5 C 403.661,409.171 407.495,412.505 407,420.5C 404.565,425.224 400.731,426.724 395.5,425C 390.272,420.177 390.272,415.344 395.5,410.5 Z"/></g>
<g><path style="opacity:1" fill="#151414" d="M 430.5,441.5 C 438.661,440.171 442.495,443.505 442,451.5C 439.565,456.224 435.731,457.724 430.5,456C 425.232,451.171 425.232,446.337 430.5,441.5 Z"/></g>
<g><path style="opacity:1" fill="#151414" d="M 157.5,445.5 C 168.314,444.812 171.314,449.312 166.5,459C 157.457,462.292 153.29,459.126 154,449.5C 154.69,447.65 155.856,446.316 157.5,445.5 Z"/></g>
<g><path style="opacity:1" fill="#151515" d="M 199.5,451.5 C 205.516,450.852 208.849,453.518 209.5,459.5C 208.51,465.889 204.844,468.389 198.5,467C 191.712,461.333 192.046,456.166 199.5,451.5 Z"/></g>
<g><path style="opacity:1" fill="#151515" d="M 392.5,452.5 C 401.042,452.211 404.208,456.211 402,464.5C 394.652,470.791 389.819,469.291 387.5,460C 387.782,456.556 389.448,454.056 392.5,452.5 Z"/></g>
<g><path style="opacity:1" fill="#141414" d="M 467.5,467.5 C 476.56,467.046 479.727,471.046 477,479.5C 472.534,484.381 468.201,484.381 464,479.5C 461.255,474.248 462.422,470.248 467.5,467.5 Z"/></g>
<g><path style="opacity:1" fill="#171616" d="M 125.5,475.5 C 131.925,474.534 135.592,477.201 136.5,483.5C 136.181,488.485 133.515,491.152 128.5,491.5C 119.248,487.58 118.248,482.246 125.5,475.5 Z"/></g>
<g><path style="opacity:1" fill="#a79d99" d="M 290.5,474.5 C 305.486,473.898 320.153,475.732 334.5,480C 348.937,485.437 359.104,495.271 365,509.5C 369.505,521.01 373.172,532.677 376,544.5C 374.663,545.765 373.163,546.265 371.5,546C 360.5,537.667 349.5,529.333 338.5,521C 326.926,512.92 314.092,508.42 300,507.5C 291.434,508.147 283.267,510.313 275.5,514C 260.262,524.568 245.596,535.902 231.5,548C 229.083,549.626 226.583,551.126 224,552.5C 222.243,551.881 221.076,550.714 220.5,549C 225.35,532.782 231.183,516.949 238,501.5C 244.705,491.803 253.539,484.636 264.5,480C 273.146,477.398 281.813,475.565 290.5,474.5 Z"/></g>
<g><path style="opacity:1" fill="#141414" d="M 420.5,487.5 C 428.661,486.171 432.495,489.505 432,497.5C 428.797,502.916 424.464,503.916 419,500.5C 415.705,495.747 416.205,491.414 420.5,487.5 Z"/></g>
<g><path style="opacity:1" fill="#141413" d="M 173.5,489.5 C 182.543,489.031 185.71,493.031 183,501.5C 178.667,506.833 174.333,506.833 170,501.5C 167.458,496.361 168.624,492.361 173.5,489.5 Z"/></g>
</svg>
