<?xml version="1.0" encoding="UTF-8"?>
<!DOCTYPE svg PUBLIC "-//W3C//DTD SVG 1.1//EN" "http://www.w3.org/Graphics/SVG/1.1/DTD/svg11.dtd">
<svg xmlns="http://www.w3.org/2000/svg" version="1.1" width="600px" height="600px" style="shape-rendering:geometricPrecision; text-rendering:geometricPrecision; image-rendering:optimizeQuality; fill-rule:evenodd; clip-rule:evenodd" xmlns:xlink="http://www.w3.org/1999/xlink">
<g><path style="opacity:0.955" fill="#030202" d="M 148.5,-0.5 C 152.5,-0.5 156.5,-0.5 160.5,-0.5C 164.609,2.06559 168.609,4.89892 172.5,8C 197.914,37.0736 221.414,67.5736 243,99.5C 244.611,90.1096 250.111,86.2763 259.5,88C 266.237,91.402 271.737,96.2353 276,102.5C 275.846,95.8224 277.179,89.4891 280,83.5C 282.529,80.652 285.695,78.9853 289.5,78.5C 294.381,79.6071 298.714,81.7738 302.5,85C 308.202,92.2363 313.535,99.7363 318.5,107.5C 323.136,99.7 327.969,92.0333 333,84.5C 339.499,75.6501 347.166,74.3168 356,80.5C 358.359,85.6743 359.026,91.0076 358,96.5C 373.28,74.8857 388.947,53.5524 405,32.5C 414.734,19.9321 425.9,8.93211 438.5,-0.5C 442.833,-0.5 447.167,-0.5 451.5,-0.5C 457.578,3.31762 463.078,7.98429 468,13.5C 490.596,41.493 508.263,72.493 521,106.5C 526.886,108.098 532.72,109.931 538.5,112C 545.387,117.666 546.054,124 540.5,131C 537.508,133.11 534.175,134.443 530.5,135C 537.93,159.151 542.93,183.818 545.5,209C 546.495,219.635 542.162,226.969 532.5,231C 539.594,235.097 545.761,240.264 551,246.5C 555.244,256.718 557.577,267.385 558,278.5C 558.667,286.5 558.667,294.5 558,302.5C 557.374,310.455 553.208,315.288 545.5,317C 551.184,323.534 554.85,331.034 556.5,339.5C 556.402,346.676 553.735,352.509 548.5,357C 550.298,361.523 551.631,366.19 552.5,371C 551.059,378.597 549.226,386.097 547,393.5C 543.586,402.791 537.086,406.124 527.5,403.5C 530.197,411.89 533.697,419.89 538,427.5C 538.729,432.669 538.062,437.669 536,442.5C 532.795,449.691 528.795,456.358 524,462.5C 518.167,468.333 512.333,474.167 506.5,480C 499.396,484.107 492.562,488.607 486,493.5C 487.227,502.769 487.894,512.102 488,521.5C 485.106,541.204 474.606,554.87 456.5,562.5C 455.707,562.069 454.873,561.735 454,561.5C 450.747,566.75 446.247,570.583 440.5,573C 434.728,575.035 428.894,576.869 423,578.5C 417.8,577.734 413.467,575.401 410,571.5C 402.308,578.182 393.808,583.682 384.5,588C 371.371,592.993 358.037,596.826 344.5,599.5C 314.5,599.5 284.5,599.5 254.5,599.5C 237.135,596.483 220.468,590.983 204.5,583C 199.066,579.532 193.899,575.699 189,571.5C 185.533,575.401 181.2,577.734 176,578.5C 167.339,576.504 159.172,573.337 151.5,569C 149.443,566.374 147.277,563.874 145,561.5C 142.54,562.278 140.04,562.111 137.5,561C 120.762,551.226 111.762,536.56 110.5,517C 111.714,509.176 112.547,501.342 113,493.5C 94.3707,482.202 79.0374,467.536 67,449.5C 63.8405,443.688 61.6738,437.522 60.5,431C 65.2054,421.75 69.5387,412.25 73.5,402.5C 73.1667,402.167 72.8333,401.833 72.5,401.5C 66.5747,404.31 61.0747,403.643 56,399.5C 50.822,389.455 48.1554,378.788 48,367.5C 48.6701,363.989 49.8368,360.656 51.5,357.5C 43.2837,350.639 40.7837,341.972 44,331.5C 46.7734,326.396 49.9401,321.563 53.5,317C 47.8488,316.014 44.0154,312.847 42,307.5C 39.2391,287.445 40.9057,267.778 47,248.5C 52.2041,241.3 58.7041,235.466 66.5,231C 56.8613,226.985 52.5279,219.651 53.5,209C 56.0035,183.982 61.0035,159.482 68.5,135.5C 65.0533,134.277 61.7199,132.777 58.5,131C 52.8997,124.094 53.5664,117.761 60.5,112C 66.2802,109.931 72.1135,108.098 78,106.5C 90.8899,72.0315 108.89,40.6981 132,12.5C 137.112,7.54052 142.612,3.20719 148.5,-0.5 Z"/></g>
<g><path style="opacity:1" fill="#cfb69e" d="M 474.5,487.5 C 468.105,457.038 455.938,429.038 438,403.5C 411.437,370.123 376.937,349.956 334.5,343C 301.293,337.399 268.627,339.733 236.5,350C 185.419,368.607 151.252,403.773 134,455.5C 130.533,466.037 127.7,476.704 125.5,487.5C 101.271,476.771 83.4377,459.438 72,435.5C 71.3333,433.167 71.3333,430.833 72,428.5C 80.821,413.208 86.9876,396.875 90.5,379.5C 88.3453,379.372 86.3453,379.872 84.5,381C 79.4415,385.057 74.1082,388.724 68.5,392C 66.7412,392.798 65.0745,392.631 63.5,391.5C 60.4326,384.063 58.5992,376.397 58,368.5C 61.9046,359.353 67.738,351.687 75.5,345.5C 74.5,345.167 73.5,344.833 72.5,344.5C 66.8576,345.891 61.191,346.725 55.5,347C 51.2519,340.862 51.7519,335.029 57,329.5C 65.8039,317.396 74.9706,305.562 84.5,294C 78.2583,296.836 71.9249,299.836 65.5,303C 61.8641,304.268 58.1974,305.434 54.5,306.5C 53.8333,306.167 53.1667,305.833 52.5,305.5C 50.7373,288.727 51.5706,272.06 55,255.5C 57.7851,250.381 61.6184,246.214 66.5,243C 74.6717,238.08 83.005,233.413 91.5,229C 98.065,225.723 98.065,222.723 91.5,220C 83.4882,219.735 75.4882,219.735 67.5,220C 66.2986,219.097 65.4652,217.931 65,216.5C 65.6998,186.138 71.1998,156.638 81.5,128C 77.5352,126.874 73.5352,125.874 69.5,125C 64.1859,122.415 64.5192,120.415 70.5,119C 75.5956,118.155 80.5956,116.988 85.5,115.5C 98.099,81.2897 115.599,49.9563 138,21.5C 141.912,16.9167 146.412,13.0834 151.5,10C 153.5,9.33333 155.5,9.33333 157.5,10C 159.5,11.3333 161.5,12.6667 163.5,14C 174.591,25.7002 185.091,37.8669 195,50.5C 212.956,74.9114 230.789,99.4114 248.5,124C 251.816,125.936 254.316,125.103 256,121.5C 255.987,115.096 255.153,108.763 253.5,102.5C 253.667,101.167 253.833,99.8333 254,98.5C 254.414,98.0426 254.914,97.7093 255.5,97.5C 259.777,100.273 263.61,103.607 267,107.5C 272.045,114.423 277.212,121.256 282.5,128C 284.701,128.825 286.534,128.325 288,126.5C 288.167,123.5 288.333,120.5 288.5,117.5C 287.667,108.506 287.5,99.5062 288,90.5C 289.868,89.3281 291.702,89.4947 293.5,91C 296.021,93.2198 298.188,95.7198 300,98.5C 306.351,107.87 312.184,117.537 317.5,127.5C 319.858,125.976 321.691,123.976 323,121.5C 328.414,111.669 334.081,102.002 340,92.5C 342.016,90.316 344.183,88.316 346.5,86.5C 346.833,88.1667 347.167,89.8333 347.5,91.5C 345.715,100.261 344.381,109.095 343.5,118C 343.667,120.167 343.833,122.333 344,124.5C 346.244,126.994 348.577,126.994 351,124.5C 373.176,91.9896 396.509,60.3229 421,29.5C 426.5,22.6667 432.667,16.5 439.5,11C 442.03,9.57834 444.697,9.24501 447.5,10C 452.923,13.4187 457.756,17.5854 462,22.5C 483.977,50.6924 501.144,81.6924 513.5,115.5C 514.025,116.192 514.692,116.692 515.5,117C 519.848,117.573 524.181,118.24 528.5,119C 534.481,120.415 534.814,122.415 529.5,125C 525.323,125.579 521.323,126.579 517.5,128C 527.695,156.309 533.529,185.476 535,215.5C 534.215,217.286 533.049,218.786 531.5,220C 523.179,219.71 514.846,219.71 506.5,220C 501.141,223.334 501.475,226.334 507.5,229C 519.741,234.589 530.907,241.756 541,250.5C 542.861,252.888 544.194,255.554 545,258.5C 547.589,274.115 548.089,289.782 546.5,305.5C 544.926,306.631 543.259,306.798 541.5,306C 532.658,303.245 524.324,299.412 516.5,294.5C 516.167,294.833 515.833,295.167 515.5,295.5C 525.819,308.141 535.653,321.141 545,334.5C 545.978,338.9 545.478,343.067 543.5,347C 537.498,347.544 531.665,346.711 526,344.5C 525.5,344.833 525,345.167 524.5,345.5C 527.818,349.318 531.318,352.985 535,356.5C 540.771,362.915 542.437,370.249 540,378.5C 539.116,383.373 537.616,388.04 535.5,392.5C 531.929,393.248 528.595,392.415 525.5,390C 520.638,386.305 515.638,382.805 510.5,379.5C 510.167,380.667 509.833,381.833 509.5,383C 512.713,398.917 518.547,413.751 527,427.5C 527.738,431.261 527.405,434.928 526,438.5C 514.176,460.491 497.01,476.825 474.5,487.5 Z"/></g>
<g><path style="opacity:1" fill="#020202" d="M 149.5,50.5 C 155.899,50.0307 161.565,51.8641 166.5,56C 186.234,77.6375 203.4,101.137 218,126.5C 220.27,130.93 220.937,135.597 220,140.5C 219.535,141.931 218.701,143.097 217.5,144C 214.833,144.667 212.167,144.667 209.5,144C 206.681,141.425 203.681,139.092 200.5,137C 183.621,128.088 165.621,123.088 146.5,122C 136.856,121.019 127.19,120.352 117.5,120C 114.087,116.919 113.587,113.419 116,109.5C 122.866,93.4341 130.533,77.7674 139,62.5C 141.649,57.6887 145.149,53.6887 149.5,50.5 Z"/></g>
<g><path style="opacity:1" fill="#010101" d="M 443.5,50.5 C 447.308,50.1632 450.974,50.6632 454.5,52C 458.025,55.5569 461.191,59.3903 464,63.5C 472.448,78.0625 480.115,93.0625 487,108.5C 489.073,112.547 488.907,116.38 486.5,120C 458.228,119.466 430.895,124.133 404.5,134C 398.984,136.589 393.984,139.922 389.5,144C 381.991,146.488 378.657,143.821 379.5,136C 379.446,131.495 380.613,127.328 383,123.5C 397.294,101.203 413.127,80.0362 430.5,60C 434.546,56.3231 438.879,53.1564 443.5,50.5 Z"/></g>
<g><path style="opacity:1" fill="#62554a" d="M 455.5,60.5 C 451.136,55.9248 446.136,55.2581 440.5,58.5C 441.058,57.2101 442.058,56.3768 443.5,56C 446.5,55.3333 449.5,55.3333 452.5,56C 454.141,57.129 455.141,58.629 455.5,60.5 Z"/></g>
<g><path style="opacity:1" fill="#605348" d="M 157.5,56.5 C 152.949,55.6583 149.283,56.9917 146.5,60.5C 146.859,58.629 147.859,57.129 149.5,56C 152.367,55.1993 155.034,55.3659 157.5,56.5 Z"/></g>
<g><path style="opacity:1" fill="#b17269" d="M 157.5,56.5 C 159.674,56.7497 161.341,57.7497 162.5,59.5C 165.167,62.8333 168.167,65.8333 171.5,68.5C 173.914,69.9108 175.581,71.9108 176.5,74.5C 177.08,76.7488 178.413,78.4154 180.5,79.5C 184.812,83.4538 188.145,88.1205 190.5,93.5C 191.433,96.3702 193.1,98.7036 195.5,100.5C 198.241,102.975 200.241,105.975 201.5,109.5C 202.383,112.704 204.05,115.371 206.5,117.5C 208.326,119.147 209.66,121.147 210.5,123.5C 211.326,126.485 212.659,129.151 214.5,131.5C 214.813,134.247 214.48,136.914 213.5,139.5C 212.06,138.048 210.394,137.048 208.5,136.5C 207.198,134.178 205.198,132.845 202.5,132.5C 195.299,129.402 187.966,126.569 180.5,124C 178.694,123.19 177.194,122.024 176,120.5C 174.374,121.018 172.707,121.352 171,121.5C 154,118.083 136.833,116.417 119.5,116.5C 120.272,109.843 122.606,103.843 126.5,98.5C 128.293,96.5739 129.293,94.2406 129.5,91.5C 133.901,80.3566 139.567,70.0233 146.5,60.5C 149.283,56.9917 152.949,55.6583 157.5,56.5 Z"/></g>
<g><path style="opacity:1" fill="#b27269" d="M 455.5,60.5 C 460.685,66.3751 464.685,73.0417 467.5,80.5C 470.132,88.4301 473.798,95.7634 478.5,102.5C 480.957,105.751 482.624,109.418 483.5,113.5C 476.726,115.151 469.726,116.151 462.5,116.5C 449.108,118.032 435.775,120.032 422.5,122.5C 418.838,122.723 415.505,123.723 412.5,125.5C 404.927,128.62 397.593,132.287 390.5,136.5C 388.883,137.038 387.216,137.371 385.5,137.5C 385.474,132.915 386.474,128.581 388.5,124.5C 394.73,114.386 401.23,104.386 408,94.5C 411.613,89.579 415.446,84.9123 419.5,80.5C 421.587,79.4154 422.92,77.7488 423.5,75.5C 429.403,69.9843 435.07,64.3176 440.5,58.5C 446.136,55.2581 451.136,55.9248 455.5,60.5 Z"/></g>
<g><path style="opacity:1" fill="#6f5d51" d="M 440.5,58.5 C 435.07,64.3176 429.403,69.9843 423.5,75.5C 426.094,71.728 428.927,68.0613 432,64.5C 434.731,62.2553 437.564,60.2553 440.5,58.5 Z"/></g>
<g><path style="opacity:1" fill="#594e44" d="M 162.5,59.5 C 166.5,61.5 169.5,64.5 171.5,68.5C 168.167,65.8333 165.167,62.8333 162.5,59.5 Z"/></g>
<g><path style="opacity:1" fill="#615449" d="M 176.5,74.5 C 178.587,75.5846 179.92,77.2512 180.5,79.5C 178.413,78.4154 177.08,76.7488 176.5,74.5 Z"/></g>
<g><path style="opacity:1" fill="#615349" d="M 423.5,75.5 C 422.92,77.7488 421.587,79.4154 419.5,80.5C 420.08,78.2512 421.413,76.5846 423.5,75.5 Z"/></g>
<g><path style="opacity:1" fill="#796156" d="M 467.5,80.5 C 472.207,87.2476 475.874,94.581 478.5,102.5C 473.798,95.7634 470.132,88.4301 467.5,80.5 Z"/></g>
<g><path style="opacity:1" fill="#605348" d="M 129.5,91.5 C 129.293,94.2406 128.293,96.5739 126.5,98.5C 126.707,95.7594 127.707,93.4261 129.5,91.5 Z"/></g>
<g><path style="opacity:1" fill="#5c5046" d="M 190.5,93.5 C 192.9,95.2964 194.567,97.6298 195.5,100.5C 193.1,98.7036 191.433,96.3702 190.5,93.5 Z"/></g>
<g><path style="opacity:1" fill="#5e5147" d="M 201.5,109.5 C 203.95,111.629 205.617,114.296 206.5,117.5C 204.05,115.371 202.383,112.704 201.5,109.5 Z"/></g>
<g><path style="opacity:1" fill="#5f5247" d="M 483.5,113.5 C 484.404,114.209 484.737,115.209 484.5,116.5C 477.167,116.5 469.833,116.5 462.5,116.5C 469.726,116.151 476.726,115.151 483.5,113.5 Z"/></g>
<g><path style="opacity:1" fill="#5f5247" d="M 210.5,123.5 C 212.873,125.579 214.206,128.246 214.5,131.5C 212.659,129.151 211.326,126.485 210.5,123.5 Z"/></g>
<g><path style="opacity:1" fill="#605348" d="M 422.5,122.5 C 419.495,124.277 416.162,125.277 412.5,125.5C 415.505,123.723 418.838,122.723 422.5,122.5 Z"/></g>
<g><path style="opacity:1" fill="#040302" d="M 483.5,127.5 C 486.85,127.335 490.183,127.502 493.5,128C 500.85,141.889 505.183,156.723 506.5,172.5C 507.311,180.246 504.144,185.246 497,187.5C 494.304,186.81 492.137,185.31 490.5,183C 487.257,181.982 483.924,181.482 480.5,181.5C 472.856,182.832 465.189,183.665 457.5,184C 452.558,183.134 448.058,181.3 444,178.5C 442,176.167 442,173.833 444,171.5C 452.844,162.666 462.678,155.166 473.5,149C 455.497,151.499 439.163,158.166 424.5,169C 416.611,169.476 409.777,166.976 404,161.5C 402.824,157.74 403.99,154.907 407.5,153C 420.345,145.412 434.012,139.746 448.5,136C 460.256,132.977 471.923,130.143 483.5,127.5 Z"/></g>
<g><path style="opacity:1" fill="#040302" d="M 111.5,127.5 C 140.471,131.435 167.804,140.269 193.5,154C 195.478,156.497 195.978,159.331 195,162.5C 189.568,167.97 183.068,170.137 175.5,169C 159.785,157.876 142.452,150.876 123.5,148C 135.172,154.672 146.005,162.505 156,171.5C 156.667,174.167 156.667,176.833 156,179.5C 149.086,183.688 141.586,185.188 133.5,184C 123.557,180.512 113.724,180.679 104,184.5C 102.108,183.87 100.441,182.87 99,181.5C 97.5755,175.224 97.2422,168.891 98,162.5C 100.687,152.42 103.687,142.42 107,132.5C 108.025,130.313 109.525,128.646 111.5,127.5 Z"/></g>
<g><path style="opacity:1" fill="#744e47" d="M 485.5,131.5 C 487.604,131.201 489.604,131.534 491.5,132.5C 498.646,147.409 501.813,163.075 501,179.5C 500.592,181.41 499.425,182.41 497.5,182.5C 493.067,178.851 487.9,176.851 482,176.5C 475.033,177.142 468.2,178.475 461.5,180.5C 457.5,179.333 453.5,178.167 449.5,177C 448.572,176.612 447.905,175.945 447.5,175C 451.826,169.66 456.826,164.993 462.5,161C 471.372,155.736 480.039,150.236 488.5,144.5C 487.271,143.719 485.938,143.219 484.5,143C 467.526,143.578 451.526,147.911 436.5,156C 431.274,159.403 425.94,162.57 420.5,165.5C 416.598,163.965 412.765,162.298 409,160.5C 408.316,159.216 408.483,158.049 409.5,157C 422.345,149.412 436.012,143.746 450.5,140C 462.256,136.977 473.923,134.143 485.5,131.5 Z"/></g>
<g><path style="opacity:1" fill="#5c5046" d="M 202.5,132.5 C 205.198,132.845 207.198,134.178 208.5,136.5C 206.147,135.66 204.147,134.326 202.5,132.5 Z"/></g>
<g><path style="opacity:1" fill="#85685c" d="M 388.5,124.5 C 386.474,128.581 385.474,132.915 385.5,137.5C 387.216,137.371 388.883,137.038 390.5,136.5C 389.177,139.711 387.01,140.711 384,139.5C 383.002,133.667 384.502,128.667 388.5,124.5 Z"/></g>
<g><path style="opacity:1" fill="#64564b" d="M 214.5,131.5 C 215.477,134.287 215.81,137.287 215.5,140.5C 212.188,140.851 209.855,139.518 208.5,136.5C 210.394,137.048 212.06,138.048 213.5,139.5C 214.48,136.914 214.813,134.247 214.5,131.5 Z"/></g>
<g><path style="opacity:1" fill="#744e47" d="M 111.5,132.5 C 139.457,135.819 165.79,144.153 190.5,157.5C 191.731,158.651 191.731,159.817 190.5,161C 187.162,162.92 183.662,164.42 180,165.5C 171.481,161.156 162.981,156.656 154.5,152C 142.687,146.797 130.354,143.63 117.5,142.5C 115.091,142.915 112.758,143.582 110.5,144.5C 121.968,151.738 133.301,159.238 144.5,167C 146.705,169.54 149.205,171.707 152,173.5C 152.49,174.793 152.657,176.127 152.5,177.5C 147.988,178.419 143.488,179.419 139,180.5C 131.767,178.654 124.434,177.32 117,176.5C 112.132,177.44 107.299,178.44 102.5,179.5C 102.473,163.271 105.473,147.604 111.5,132.5 Z"/></g>
<g><path style="opacity:1" fill="#b29982" d="M 249.5,278.5 C 238.475,281.846 228.808,287.513 220.5,295.5C 213.418,302.073 206.418,308.906 199.5,316C 191.284,318.454 188.117,315.288 190,306.5C 193.011,298.306 197.178,290.806 202.5,284C 195.05,286.381 187.717,289.381 180.5,293C 174,294.5 171.5,292 173,285.5C 195.678,262.333 223.344,249.333 256,246.5C 261.269,246.687 266.436,247.52 271.5,249C 280.673,253.843 281.673,259.843 274.5,267C 268.082,269.04 261.749,271.373 255.5,274C 252.823,274.814 250.823,276.314 249.5,278.5 Z"/></g>
<g><path style="opacity:1" fill="#b29982" d="M 378.5,298.5 C 378.785,296.712 378.452,295.045 377.5,293.5C 373.787,290.317 369.787,287.65 365.5,285.5C 361.175,281.839 356.175,279.506 350.5,278.5C 350.631,277.624 350.298,276.957 349.5,276.5C 341.511,272.498 333.178,269.665 324.5,268C 316.682,259.106 318.349,252.439 329.5,248C 366.124,246.427 397.624,258.261 424,283.5C 428.19,292.325 425.356,295.492 415.5,293C 410.553,289.52 405.219,287.187 399.5,286C 406.001,294.154 409.834,303.321 411,313.5C 408.839,317.124 405.672,318.291 401.5,317C 395,309.167 387.833,302 380,295.5C 379.768,296.737 379.268,297.737 378.5,298.5 Z"/></g>
<g><path style="opacity:1" fill="#312826" d="M 249.5,278.5 C 264.015,289.255 265.015,301.088 252.5,314C 241.017,320.211 231.517,318.045 224,307.5C 222.302,303.621 221.135,299.621 220.5,295.5C 228.808,287.513 238.475,281.846 249.5,278.5 Z"/></g>
<g><path style="opacity:1" fill="#312826" d="M 350.5,278.5 C 356.175,279.506 361.175,281.839 365.5,285.5C 369.787,287.65 373.787,290.317 377.5,293.5C 378.452,295.045 378.785,296.712 378.5,298.5C 372.539,317.435 360.872,321.935 343.5,312C 336.564,303.8 335.73,294.966 341,285.5C 343.483,282.177 346.649,279.843 350.5,278.5 Z"/></g>
<g><path style="opacity:1" fill="#f0f0f0" d="M 241.5,285.5 C 248.827,284.329 251.994,287.329 251,294.5C 247.61,298.032 243.943,298.366 240,295.5C 237.729,291.697 238.229,288.363 241.5,285.5 Z"/></g>
<g><path style="opacity:1" fill="#f0f0f0" d="M 365.5,285.5 C 370.918,293.927 368.585,297.76 358.5,297C 353.4,288.906 355.733,285.073 365.5,285.5 Z"/></g>
<g><path style="opacity:1" fill="#b19881" d="M 474.5,487.5 C 476.526,499.758 477.359,512.091 477,524.5C 474.513,536.809 467.68,545.809 456.5,551.5C 455.914,551.291 455.414,550.957 455,550.5C 453.341,542.567 452.008,534.567 451,526.5C 450.424,523.876 449.09,523.209 447,524.5C 447.192,536.404 445.692,548.071 442.5,559.5C 435.866,564.1 428.533,566.6 420.5,567C 417.039,563.22 413.705,559.386 410.5,555.5C 401.504,566.838 390.171,575.005 376.5,580C 343.308,590.732 309.308,594.398 274.5,591C 248.951,590.033 225.285,583.033 203.5,570C 197.991,565.657 192.991,560.824 188.5,555.5C 185.723,558.872 183.057,562.372 180.5,566C 176.864,567.899 173.197,567.899 169.5,566C 165.714,564.607 162.048,562.941 158.5,561C 157.299,560.097 156.465,558.931 156,557.5C 153.193,546.347 152.026,535.013 152.5,523.5C 149.95,523.561 148.45,524.894 148,527.5C 146.864,535.442 145.364,543.275 143.5,551C 135.2,547.708 129.034,541.875 125,533.5C 121.766,525.122 120.766,516.455 122,507.5C 123.058,500.799 124.225,494.132 125.5,487.5C 127.7,476.704 130.533,466.037 134,455.5C 151.252,403.773 185.419,368.607 236.5,350C 268.627,339.733 301.293,337.399 334.5,343C 376.937,349.956 411.437,370.123 438,403.5C 455.938,429.038 468.105,457.038 474.5,487.5 Z"/></g>
<g><path style="opacity:1" fill="#302826" d="M 286.5,376.5 C 298.618,375.927 310.618,376.76 322.5,379C 341.246,386.561 345.746,399.395 336,417.5C 329.149,425.676 320.649,431.51 310.5,435C 306.979,438.389 305.313,442.556 305.5,447.5C 305.302,453.561 307.302,458.728 311.5,463C 320.037,464.941 328.703,466.275 337.5,467C 339.949,467.725 342.283,468.725 344.5,470C 345.833,471.333 345.833,472.667 344.5,474C 340.07,476.088 335.404,477.421 330.5,478C 309.504,481.245 288.504,481.245 267.5,478C 262.743,477.188 258.243,475.688 254,473.5C 253.251,472.365 253.417,471.365 254.5,470.5C 257.221,468.473 260.221,466.973 263.5,466C 270.885,465.801 278.218,465.135 285.5,464C 291.215,460.069 293.881,454.569 293.5,447.5C 294.075,442.384 292.408,438.217 288.5,435C 278.351,431.51 269.851,425.676 263,417.5C 253.45,400.067 257.617,387.234 275.5,379C 279.347,378.367 283.014,377.533 286.5,376.5 Z"/></g>
</svg>
