<?xml version="1.0" encoding="UTF-8"?>
<!DOCTYPE svg PUBLIC "-//W3C//DTD SVG 1.1//EN" "http://www.w3.org/Graphics/SVG/1.1/DTD/svg11.dtd">
<svg xmlns="http://www.w3.org/2000/svg" version="1.1" width="600px" height="600px" style="shape-rendering:geometricPrecision; text-rendering:geometricPrecision; image-rendering:optimizeQuality; fill-rule:evenodd; clip-rule:evenodd" xmlns:xlink="http://www.w3.org/1999/xlink">
<g><path style="opacity:0.956" fill="#040404" d="M 329.5,599.5 C 309.833,599.5 290.167,599.5 270.5,599.5C 231.747,592.123 197.414,575.623 167.5,550C 157.721,540.221 147.887,530.387 138,520.5C 130.065,508.298 121.398,496.632 112,485.5C 74.0825,428.161 58.5825,365.161 65.5,296.5C 65.6531,287.738 64.8198,279.072 63,270.5C 52.4405,240.04 42.4405,209.373 33,178.5C 21.4889,135.234 16.4889,91.2336 18,46.5C 18.6158,33.4419 23.4492,22.2752 32.5,13C 44.2128,6.02969 56.2128,5.69636 68.5,12C 85.5322,21.1782 101.532,31.8448 116.5,44C 136.921,61.758 157.921,78.758 179.5,95C 182.241,95.9771 185.075,96.4771 188,96.5C 199.643,94.7148 211.143,92.2148 222.5,89C 241.204,85.6555 259.871,85.8221 278.5,89.5C 280.385,88.3906 282.385,87.5573 284.5,87C 294.167,86.3333 303.833,86.3333 313.5,87C 315.722,87.6946 317.889,88.5279 320,89.5C 335.053,86.7941 350.22,85.9608 365.5,87C 379.267,89.5249 392.934,92.5249 406.5,96C 413.388,97.3437 419.722,96.0103 425.5,92C 449.542,71.6222 473.876,51.6222 498.5,32C 508.162,25.1669 518.162,18.8336 528.5,13C 559.471,0.742806 576.971,11.2428 581,44.5C 582.864,92.7271 577.197,140.06 564,186.5C 554.861,214.918 545.527,243.251 536,271.5C 534.303,279.577 533.47,287.743 533.5,296C 540.008,358.127 527.842,416.294 497,470.5C 486.667,485.5 476.333,500.5 466,515.5C 431.141,560.685 385.641,588.685 329.5,599.5 Z"/></g>
<g><path style="opacity:1" fill="#333639" d="M 43.5,18.5 C 48.1785,18.3342 52.8452,18.5008 57.5,19C 74.3059,26.8988 89.9725,36.5655 104.5,48C 125.018,64.7619 145.352,81.7619 165.5,99C 174.67,106.063 185.003,108.396 196.5,106C 209.942,102.037 223.608,99.0368 237.5,97C 249.531,96.6361 261.531,97.1361 273.5,98.5C 278.205,130.349 281.705,162.349 284,194.5C 285.98,224.833 285.98,255.166 284,285.5C 279.7,309.567 271.533,332.234 259.5,353.5C 256.152,352.024 252.652,351.024 249,350.5C 230.26,353.932 211.427,354.765 192.5,353C 179.138,349.156 167.471,342.49 157.5,333C 147.167,320.667 136.833,308.333 126.5,296C 117.791,292.272 111.625,294.772 108,303.5C 107.126,307.535 106.126,311.535 105,315.5C 104.287,337.361 104.787,359.194 106.5,381C 106.681,392.743 105.181,404.243 102,415.5C 101.667,425.5 101.333,435.5 101,445.5C 78.463,397.881 70.2964,347.881 76.5,295.5C 76.336,281.846 74.1693,268.513 70,255.5C 52.353,212.245 39.6863,167.579 32,121.5C 29.272,97.227 27.9386,72.8937 28,48.5C 28.6138,41.094 30.6138,34.094 34,27.5C 36.4057,23.5915 39.5724,20.5915 43.5,18.5 Z"/></g>
<g><path style="opacity:1" fill="#333639" d="M 541.5,18.5 C 556.328,15.8316 565.495,21.8316 569,36.5C 572.856,84.9375 568.19,132.604 555,179.5C 546.995,206.516 537.995,233.182 528,259.5C 524.355,270.892 522.855,282.559 523.5,294.5C 528.572,345.938 520.739,395.271 500,442.5C 499.667,434.833 499.333,427.167 499,419.5C 496.873,411.201 494.873,402.868 493,394.5C 493.695,368.178 494.029,341.845 494,315.5C 493.443,307.409 490.277,300.576 484.5,295C 479.889,293.993 475.555,294.66 471.5,297C 462.64,307.225 454.14,317.725 446,328.5C 428.502,347.994 406.669,356.494 380.5,354C 368.224,352.08 355.891,351.413 343.5,352C 341.671,352.273 340.171,353.107 339,354.5C 330.345,338.524 323.345,321.857 318,304.5C 315.373,296.033 314.04,287.366 314,278.5C 312.934,241.131 313.6,203.798 316,166.5C 318.422,144.13 320.922,121.796 323.5,99.5C 336.377,96.9104 349.377,96.0771 362.5,97C 375.966,99.3663 389.3,102.366 402.5,106C 413.929,108.045 424.262,105.712 433.5,99C 458.253,77.5765 483.586,56.9098 509.5,37C 519.771,30.0349 530.438,23.8683 541.5,18.5 Z"/></g>
<g><path style="opacity:1" fill="#070707" d="M 50.5,30.5 C 58.1168,31.3164 65.1168,33.8164 71.5,38C 102.96,60.4594 130.126,87.2927 153,118.5C 165.115,140.089 164.115,161.089 150,181.5C 139.095,199.085 125.928,214.918 110.5,229C 106.431,232.063 102.098,234.73 97.5,237C 93.7054,237.837 90.0387,237.504 86.5,236C 76.7521,221.789 69.0855,206.455 63.5,190C 48.351,147.588 39.351,103.922 36.5,59C 36.1916,52.3333 37.0249,45.8333 39,39.5C 41.5933,34.721 45.4266,31.721 50.5,30.5 Z"/></g>
<g><path style="opacity:1" fill="#070707" d="M 545.5,30.5 C 555.276,30.7753 560.776,35.7753 562,45.5C 561.423,103.147 549.756,158.48 527,211.5C 523.215,220.916 518.048,229.416 511.5,237C 508.167,237.667 504.833,237.667 501.5,237C 490.544,231.055 481.044,223.222 473,213.5C 459.167,197.842 447.833,180.509 439,161.5C 436.486,150.264 437.152,139.264 441,128.5C 449.068,113.43 459.068,99.7636 471,87.5C 490.409,67.4117 511.575,49.5783 534.5,34C 538.254,32.6912 541.921,31.5246 545.5,30.5 Z"/></g>
<g><path style="opacity:1" fill="#b9b8b7" d="M 48.5,35.5 C 55.3188,35.6217 61.6521,37.455 67.5,41C 100.667,63.5 128.5,91.3333 151,124.5C 158.499,137.309 159.499,150.642 154,164.5C 142.546,186.23 128.046,205.73 110.5,223C 105.25,227.791 99.2504,231.291 92.5,233.5C 89.9682,233.136 88.1348,231.803 87,229.5C 76.001,209.843 67.3343,189.176 61,167.5C 50.0571,132.287 43.5571,96.2867 41.5,59.5C 41.6667,54.5 41.8333,49.5 42,44.5C 43.2105,40.7209 45.3772,37.7209 48.5,35.5 Z"/></g>
<g><path style="opacity:1" fill="#b6b4b1" d="M 543.5,35.5 C 550.231,34.4476 554.731,37.1142 557,43.5C 557.667,54.5 557.667,65.5 557,76.5C 553.048,115.259 544.382,152.925 531,189.5C 525.369,204.262 518.535,218.429 510.5,232C 509.127,232.875 507.627,233.375 506,233.5C 495.294,228.478 485.961,221.478 478,212.5C 464.422,197.015 453.089,180.015 444,161.5C 440.197,150.21 440.864,139.21 446,128.5C 455.304,112.905 466.304,98.572 479,85.5C 495.326,69.1654 512.826,54.332 531.5,41C 535.481,38.8381 539.481,37.0048 543.5,35.5 Z"/></g>
<g><path style="opacity:1" fill="#f4efeb" d="M 284.5,92.5 C 293.839,92.3335 303.173,92.5002 312.5,93C 314.667,93.8333 316.167,95.3333 317,97.5C 317.667,102.167 317.667,106.833 317,111.5C 308.903,169.234 306.236,227.234 309,285.5C 314.301,313.399 323.968,339.733 338,364.5C 339.36,361.265 341.527,358.765 344.5,357C 358.992,357.598 373.492,358.432 388,359.5C 405.077,360.25 420.577,355.75 434.5,346C 438.833,342.333 443.167,338.667 447.5,335C 457.167,323.333 466.833,311.667 476.5,300C 480.26,298.824 483.093,299.99 485,303.5C 486.197,306.089 487.197,308.756 488,311.5C 488.074,339.834 488.074,368.168 488,396.5C 496.052,418.11 496.385,439.777 489,461.5C 456.943,538.22 399.777,582.72 317.5,595C 271.064,598.809 228.731,587.475 190.5,561C 153.183,535.022 126.35,500.856 110,458.5C 105.215,438.106 105.549,417.773 111,397.5C 110.955,369.167 110.955,340.834 111,312.5C 111.467,307.419 113.634,303.252 117.5,300C 120.93,299.541 123.93,300.541 126.5,303C 135.998,317.173 146.998,330.173 159.5,342C 169.919,350.875 181.919,356.541 195.5,359C 215.191,358.755 234.857,358.088 254.5,357C 257.371,358.371 259.371,360.537 260.5,363.5C 288.861,314.141 298.694,261.141 290,204.5C 288.506,170.395 284.673,136.562 278.5,103C 278.324,98.1769 280.324,94.6769 284.5,92.5 Z"/></g>
<g><path style="opacity:1" fill="#f1ece8" d="M 229.5,226.5 C 241.538,227.349 249.371,233.683 253,245.5C 254.196,251.052 253.363,256.219 250.5,261C 248.167,261.667 245.833,261.667 243.5,261C 238.685,256.088 233.018,252.421 226.5,250C 213.792,240.379 214.792,232.545 229.5,226.5 Z"/></g>
<g><path style="opacity:1" fill="#f1ece8" d="M 361.5,226.5 C 368.898,226.354 375.064,229.02 380,234.5C 380.667,236.833 380.667,239.167 380,241.5C 375.418,248.053 369.251,252.553 361.5,255C 358.872,256.626 356.539,258.626 354.5,261C 349.377,262.544 346.211,260.71 345,255.5C 344.319,242.184 349.819,232.517 361.5,226.5 Z"/></g>
<g><path style="opacity:1" fill="#000000" d="M 210.5,260.5 C 224.872,257.457 236.705,261.457 246,272.5C 252.291,282.04 255.791,292.54 256.5,304C 256.695,306.352 256.028,308.352 254.5,310C 227.899,312.626 205.399,304.126 187,284.5C 180.926,275.832 182.759,269.666 192.5,266C 198.435,263.523 204.435,261.69 210.5,260.5 Z"/></g>
<g><path style="opacity:1" fill="#000000" d="M 368.5,260.5 C 382.006,259.738 395.006,261.905 407.5,267C 415.116,270.988 416.616,276.821 412,284.5C 393.014,304.381 370.014,312.714 343,309.5C 341.593,292.726 346.759,278.226 358.5,266C 361.767,263.871 365.101,262.038 368.5,260.5 Z"/></g>
<g><path style="opacity:1" fill="#f1f1f1" d="M 232.5,274.5 C 238.82,274.32 241.32,277.32 240,283.5C 236.667,287.5 233.333,287.5 230,283.5C 228.927,279.9 229.76,276.9 232.5,274.5 Z"/></g>
<g><path style="opacity:1" fill="#e8e8e8" d="M 360.5,274.5 C 366.806,273.707 369.639,276.374 369,282.5C 365.693,287.298 362.026,287.631 358,283.5C 356.927,279.9 357.76,276.9 360.5,274.5 Z"/></g>
<g><path style="opacity:1" fill="#010101" d="M 345.5,409.5 C 351.765,429.553 347.432,447.053 332.5,462C 312.293,474.944 291.626,475.777 270.5,464.5C 259.142,456.135 252.642,444.802 251,430.5C 248.132,417.086 252.299,406.586 263.5,399C 287.48,387.668 311.48,387.668 335.5,399C 339.712,401.711 343.046,405.211 345.5,409.5 Z"/></g>
<g><path style="opacity:1" fill="#e3dfdb" d="M 345.5,409.5 C 346.239,409.369 346.906,409.536 347.5,410C 361.701,424.369 376.035,438.535 390.5,452.5C 387.453,467.476 381.953,481.476 374,494.5C 365.934,504.463 355.768,508.13 343.5,505.5C 341.095,504.232 338.428,503.565 335.5,503.5C 332.495,501.723 329.162,500.723 325.5,500.5C 323.786,499.262 321.786,498.595 319.5,498.5C 317.485,497.076 315.152,496.41 312.5,496.5C 309.124,494.918 305.458,494.251 301.5,494.5C 300.432,493.566 299.099,493.232 297.5,493.5C 288.111,484.114 279.111,474.447 270.5,464.5C 291.626,475.777 312.293,474.944 332.5,462C 347.432,447.053 351.765,429.553 345.5,409.5 Z"/></g>
<g><path style="opacity:1" fill="#080707" d="M 255.5,505.5 C 260.888,505.238 265.888,503.905 270.5,501.5C 280.646,498.38 290.979,496.047 301.5,494.5C 305.458,494.251 309.124,494.918 312.5,496.5C 314.515,497.924 316.848,498.59 319.5,498.5C 321.786,498.595 323.786,499.262 325.5,500.5C 328.505,502.277 331.838,503.277 335.5,503.5C 337.838,505.04 340.505,505.706 343.5,505.5C 355.768,508.13 365.934,504.463 374,494.5C 381.953,481.476 387.453,467.476 390.5,452.5C 391.522,448.213 392.855,444.046 394.5,440C 398.581,439.077 400.581,440.744 400.5,445C 397.469,466.433 390.303,486.267 379,504.5C 373.333,511.5 367,517.833 360,523.5C 352.247,533.924 343.747,543.757 334.5,553C 319.687,561.804 303.687,564.804 286.5,562C 278.597,560.366 271.264,557.366 264.5,553C 249.37,535.535 233.87,518.368 218,501.5C 207.823,483.804 201.323,464.804 198.5,444.5C 198.663,440.5 200.663,439 204.5,440C 207.449,450.517 210.615,461.017 214,471.5C 217.64,484.781 224.806,495.614 235.5,504C 242.001,506.683 248.667,507.183 255.5,505.5 Z"/></g>
<g><path style="opacity:1" fill="#764255" d="M 297.5,493.5 C 299.099,493.232 300.432,493.566 301.5,494.5C 290.979,496.047 280.646,498.38 270.5,501.5C 279.202,497.742 288.202,495.076 297.5,493.5 Z"/></g>
<g><path style="opacity:1" fill="#744153" d="M 312.5,496.5 C 315.152,496.41 317.485,497.076 319.5,498.5C 316.848,498.59 314.515,497.924 312.5,496.5 Z"/></g>
<g><path style="opacity:1" fill="#c15a83" d="M 342.5,510.5 C 343.391,511.261 344.058,512.261 344.5,513.5C 341.388,526.564 335.055,537.731 325.5,547C 316.035,553.784 305.702,556.284 294.5,554.5C 296.857,554.663 299.19,554.497 301.5,554C 287.5,540 273.5,526 259.5,512C 257.866,511.506 256.199,511.34 254.5,511.5C 264.746,508.477 275.079,505.31 285.5,502C 291.112,500.839 296.779,500.006 302.5,499.5C 315.971,502.77 329.305,506.436 342.5,510.5 Z"/></g>
<g><path style="opacity:1" fill="#754355" d="M 325.5,500.5 C 329.162,500.723 332.495,501.723 335.5,503.5C 331.838,503.277 328.505,502.277 325.5,500.5 Z"/></g>
<g><path style="opacity:1" fill="#734052" d="M 270.5,501.5 C 265.888,503.905 260.888,505.238 255.5,505.5C 260.278,503.721 265.278,502.387 270.5,501.5 Z"/></g>
<g><path style="opacity:1" fill="#6d3a4d" d="M 335.5,503.5 C 338.428,503.565 341.095,504.232 343.5,505.5C 340.505,505.706 337.838,505.04 335.5,503.5 Z"/></g>
<g><path style="opacity:1" fill="#362d2b" d="M 254.5,511.5 C 257.04,525.416 263.373,537.249 273.5,547C 279.705,551.771 286.705,554.271 294.5,554.5C 305.702,556.284 316.035,553.784 325.5,547C 335.055,537.731 341.388,526.564 344.5,513.5C 344.058,512.261 343.391,511.261 342.5,510.5C 348.13,511.521 353.796,511.687 359.5,511C 362.474,509.564 365.474,508.564 368.5,508C 356.514,518.644 346.014,530.478 337,543.5C 323.183,555.939 307.016,560.439 288.5,557C 278.718,555.359 270.218,551.192 263,544.5C 253.986,531.478 243.486,519.644 231.5,509C 234.017,508.743 236.35,509.41 238.5,511C 243.823,511.499 249.156,511.666 254.5,511.5 Z"/></g>
<g><path style="opacity:1" fill="#e16a99" d="M 254.5,511.5 C 256.199,511.34 257.866,511.506 259.5,512C 273.5,526 287.5,540 301.5,554C 299.19,554.497 296.857,554.663 294.5,554.5C 286.705,554.271 279.705,551.771 273.5,547C 263.373,537.249 257.04,525.416 254.5,511.5 Z"/></g>
</svg>
