<?xml version="1.0" encoding="UTF-8"?>
<!DOCTYPE svg PUBLIC "-//W3C//DTD SVG 1.1//EN" "http://www.w3.org/Graphics/SVG/1.1/DTD/svg11.dtd">
<svg xmlns="http://www.w3.org/2000/svg" version="1.1" width="600px" height="600px" style="shape-rendering:geometricPrecision; text-rendering:geometricPrecision; image-rendering:optimizeQuality; fill-rule:evenodd; clip-rule:evenodd" xmlns:xlink="http://www.w3.org/1999/xlink">
<g><path style="opacity:0.965" fill="#030202" d="M 49.5,3.5 C 61.7064,2.77464 73.373,4.94131 84.5,10C 101.353,18.2528 117.02,28.2528 131.5,40C 141.833,49 152.167,58 162.5,67C 191.249,95.415 219.583,124.082 247.5,153C 254.094,156.386 261.094,158.386 268.5,159C 289.5,161 310.5,161 331.5,159C 339.373,158.202 346.706,155.868 353.5,152C 382.86,121.641 412.526,91.6407 442.5,62C 460.908,45.3021 480.574,30.3021 501.5,17C 513.937,9.19223 527.437,4.69223 542,3.5C 561.402,4.19833 574.735,13.5317 582,31.5C 586.874,45.4085 589.374,59.7418 589.5,74.5C 587.252,123.823 580.418,172.489 569,220.5C 564.583,239.427 557.25,257.093 547,273.5C 534.667,288.5 522.333,303.5 510,318.5C 500.658,331.693 495.824,346.36 495.5,362.5C 498.29,389.651 500.956,416.818 503.5,444C 503.49,464.219 497.99,482.719 487,499.5C 473.793,512.197 458.626,522.031 441.5,529C 430.245,533.53 418.911,537.863 407.5,542C 399.167,549.667 390.833,557.333 382.5,565C 374.625,570.407 365.959,574.074 356.5,576C 346.782,582.353 336.115,586.353 324.5,588C 299.226,592.099 274.559,589.766 250.5,581C 243.937,576.253 236.603,573.253 228.5,572C 224.172,570.171 220.172,567.838 216.5,565C 207.833,557 199.167,549 190.5,541C 165.988,534.076 143.322,523.409 122.5,509C 106.342,494.513 97.8419,476.346 97,454.5C 96.3333,446.833 96.3333,439.167 97,431.5C 99.0867,411.14 101.42,390.806 104,370.5C 105.747,353.072 101.747,337.072 92,322.5C 80.7564,307.252 68.7564,292.586 56,278.5C 46.0043,264.506 38.6709,249.173 34,232.5C 16.8962,171.897 9.89617,110.23 13,47.5C 15.1833,32.9634 21.6833,20.7968 32.5,11C 37.8716,7.60712 43.5383,5.10712 49.5,3.5 Z"/></g>
<g><path style="opacity:1" fill="#59483f" d="M 485.5,348.5 C 483.519,346.856 481.519,345.19 479.5,343.5C 470.17,387.824 456.67,430.824 439,472.5C 429.683,493.821 417.85,513.488 403.5,531.5C 402.542,531.953 401.708,532.619 401,533.5C 403.386,507.862 400.053,482.862 391,458.5C 376.905,426.686 362.239,395.02 347,363.5C 341.25,348.916 336.25,333.916 332,318.5C 330.509,308.879 330.176,299.212 331,289.5C 334.463,268.521 337.796,247.521 341,226.5C 342.01,215.056 341.343,203.723 339,192.5C 334.649,183.827 327.649,179.16 318,178.5C 311.64,179.088 305.64,180.755 300,183.5C 277.369,172.582 263.369,179.249 258,203.5C 257.333,211.167 257.333,218.833 258,226.5C 261.991,248.778 265.658,271.112 269,293.5C 269.762,301.215 269.429,308.881 268,316.5C 264.084,330.916 259.417,344.916 254,358.5C 243.842,381.151 232.842,403.484 221,425.5C 215.062,438.576 209.729,451.909 205,465.5C 198.063,487.718 195.73,510.384 198,533.5C 197.283,532.956 196.783,532.289 196.5,531.5C 182.155,514.267 170.321,495.267 161,474.5C 142.144,431.433 128.644,386.767 120.5,340.5C 117.697,340.961 115.363,342.295 113.5,344.5C 109.3,332.099 103.466,320.433 96,309.5C 87.9031,299.647 79.5698,289.98 71,280.5C 61.6458,269.802 54.3124,257.802 49,244.5C 39.1101,214.824 32.1101,184.491 28,153.5C 24.5912,127.428 22.4246,101.262 21.5,75C 19.7009,57.6062 23.2009,41.4395 32,26.5C 41.2574,14.9093 53.0908,11.076 67.5,15C 82.1258,20.1462 95.7925,27.1462 108.5,36C 124.082,47.5778 139.082,59.9111 153.5,73C 177.393,96.2248 200.56,120.058 223,144.5C 229.361,151.252 236.195,157.418 243.5,163C 261.233,169.621 279.566,172.121 298.5,170.5C 310.86,170.543 323.194,170.043 335.5,169C 343.139,167.591 350.472,165.258 357.5,162C 383.474,136.359 409.141,110.359 434.5,84C 457.149,61.6718 481.815,42.0051 508.5,25C 518.98,18.5909 530.313,14.7576 542.5,13.5C 556.627,14.4792 566.46,21.4792 572,34.5C 578.101,51.6539 580.101,69.3206 578,87.5C 575.347,131.413 569.014,174.747 559,217.5C 554.766,236.219 547.433,253.553 537,269.5C 523.954,284.877 511.288,300.544 499,316.5C 492.647,326.394 488.147,337.061 485.5,348.5 Z"/></g>
<g><path style="opacity:1" fill="#66554c" d="M 538.5,33.5 C 549.119,32.9342 555.619,37.9342 558,48.5C 560.205,59.0651 560.872,69.7318 560,80.5C 555.541,129.003 543.874,175.669 525,220.5C 515.933,240.117 500.766,247.617 479.5,243C 450.207,231.374 429.04,211.207 416,182.5C 415.218,171.693 417.218,161.36 422,151.5C 441.003,110.824 468.503,76.9902 504.5,50C 515.272,43.1126 526.605,37.6126 538.5,33.5 Z"/></g>
<g><path style="opacity:1" fill="#66554c" d="M 52.5,33.5 C 66.5313,35.2365 79.5313,40.0699 91.5,48C 133.209,77.3845 163.375,115.885 182,163.5C 186.004,174.47 184.67,184.803 178,194.5C 163.364,218.801 142.531,235.301 115.5,244C 100.929,246.629 89.0953,242.129 80,230.5C 56.0428,181.009 42.5428,128.676 39.5,73.5C 39.5343,65.4687 40.0343,57.4687 41,49.5C 42.6656,42.463 46.499,37.1297 52.5,33.5 Z"/></g>
<g><path style="opacity:1" fill="#f8f5f1" d="M 390.5,500.5 C 390.662,502.527 390.495,504.527 390,506.5C 375.581,491.578 360.748,477.245 345.5,463.5C 336.79,452.98 325.457,447.48 311.5,447C 296.401,445.291 281.734,446.958 267.5,452C 253.579,459.672 247.412,471.506 249,487.5C 251.763,502.04 259.263,513.373 271.5,521.5C 280.909,532.413 290.909,542.913 301.5,553C 299.292,553.191 297.292,553.691 295.5,554.5C 283.226,558.09 270.893,561.59 258.5,565C 230.56,568.12 213.727,555.953 208,528.5C 206.083,506.921 208.749,485.921 216,465.5C 218.723,457.722 221.723,450.055 225,442.5C 238.606,414.955 251.939,387.289 265,359.5C 271.372,344.346 276.039,328.68 279,312.5C 279.667,305.5 279.667,298.5 279,291.5C 274.626,265.59 270.793,239.59 267.5,213.5C 266.874,204.203 269.874,196.369 276.5,190C 279.833,189.333 283.167,189.333 286.5,190C 290.743,191.803 295.077,193.303 299.5,194.5C 303.923,193.303 308.257,191.803 312.5,190C 321.427,187.546 327.26,190.712 330,199.5C 331.548,208.438 331.881,217.438 331,226.5C 327.911,246.876 324.578,267.209 321,287.5C 319.767,301.338 320.767,315.004 324,328.5C 327.339,341.518 331.672,354.184 337,366.5C 351.683,398.531 366.35,430.531 381,462.5C 385.74,474.793 388.907,487.46 390.5,500.5 Z"/></g>
<g><path style="opacity:1" fill="#f8f7f7" d="M 199.5,295.5 C 226.811,294.312 239.978,307.312 239,334.5C 234.414,350.246 223.914,358.913 207.5,360.5C 181.663,356.158 171.497,341.158 177,315.5C 181.889,305.771 189.389,299.104 199.5,295.5 Z"/></g>
<g><path style="opacity:1" fill="#f8f8f8" d="M 385.5,295.5 C 412.786,294.953 425.62,308.286 424,335.5C 416.83,354.333 403.33,362.166 383.5,359C 365.295,352.105 357.795,338.938 361,319.5C 365.12,307.212 373.286,299.212 385.5,295.5 Z"/></g>
<g><path style="opacity:1" fill="#241916" d="M 204.5,305.5 C 224.599,307.376 232.099,318.043 227,337.5C 218.773,349.904 207.94,352.737 194.5,346C 185.213,337.784 183.046,327.95 188,316.5C 192.115,310.518 197.615,306.851 204.5,305.5 Z"/></g>
<g><path style="opacity:1" fill="#241916" d="M 389.5,305.5 C 411.123,307.752 418.29,319.086 411,339.5C 403.164,349.552 393.331,352.052 381.5,347C 372.405,341.304 368.905,333.137 371,322.5C 373.995,313.272 380.161,307.606 389.5,305.5 Z"/></g>
<g><path style="opacity:1" fill="#f1f1f1" d="M 210.5,314.5 C 217.327,313.174 220.494,315.84 220,322.5C 214.311,328.324 210.478,327.324 208.5,319.5C 208.437,317.486 209.103,315.819 210.5,314.5 Z"/></g>
<g><path style="opacity:1" fill="#f0f0f0" d="M 395.5,314.5 C 402.327,313.174 405.494,315.84 405,322.5C 401.623,327.197 397.957,327.53 394,323.5C 393.068,320.177 393.568,317.177 395.5,314.5 Z"/></g>
<g><path style="opacity:1" fill="#514139" d="M 196.5,531.5 C 169.236,524.951 144.736,512.951 123,495.5C 115.94,487.046 111.274,477.379 109,466.5C 107.501,451.53 107.168,436.53 108,421.5C 109.781,406.47 111.781,391.47 114,376.5C 114.679,365.814 114.512,355.148 113.5,344.5C 115.363,342.295 117.697,340.961 120.5,340.5C 128.644,386.767 142.144,431.433 161,474.5C 170.321,495.267 182.155,514.267 196.5,531.5 Z"/></g>
<g><path style="opacity:1" fill="#514139" d="M 485.5,348.5 C 484.403,355.784 484.237,363.118 485,370.5C 489.863,399.325 492.197,428.325 492,457.5C 490.316,479.394 480.149,495.894 461.5,507C 443.203,517.649 423.87,525.816 403.5,531.5C 417.85,513.488 429.683,493.821 439,472.5C 456.67,430.824 470.17,387.824 479.5,343.5C 481.519,345.19 483.519,346.856 485.5,348.5 Z"/></g>
<g><path style="opacity:1" fill="#050505" d="M 345.5,463.5 C 354.618,483.873 350.952,501.706 334.5,517C 324.259,525.116 312.593,529.949 299.5,531.5C 289.345,530.338 280.011,527.005 271.5,521.5C 259.263,513.373 251.763,502.04 249,487.5C 247.412,471.506 253.579,459.672 267.5,452C 281.734,446.958 296.401,445.291 311.5,447C 325.457,447.48 336.79,452.98 345.5,463.5 Z"/></g>
<g><path style="opacity:1" fill="#221714" d="M 284.5,457.5 C 294.839,457.334 305.172,457.5 315.5,458C 334.12,460.418 342.287,470.918 340,489.5C 331.568,511.135 315.735,521.302 292.5,520C 273.24,514.621 261.906,502.121 258.5,482.5C 260.696,467.301 269.363,458.968 284.5,457.5 Z"/></g>
<g><path style="opacity:1" fill="#edeae6" d="M 345.5,463.5 C 360.748,477.245 375.581,491.578 390,506.5C 390.495,504.527 390.662,502.527 390.5,500.5C 391.86,511.37 391.693,522.37 390,533.5C 385.39,550.444 374.557,560.944 357.5,565C 350.833,565.667 344.167,565.667 337.5,565C 328.363,562.399 319.363,559.399 310.5,556C 305.58,554.75 300.58,554.25 295.5,554.5C 297.292,553.691 299.292,553.191 301.5,553C 290.909,542.913 280.909,532.413 271.5,521.5C 280.011,527.005 289.345,530.338 299.5,531.5C 312.593,529.949 324.259,525.116 334.5,517C 350.952,501.706 354.618,483.873 345.5,463.5 Z"/></g>
<g><path style="opacity:1" fill="#57473e" d="M 293.5,564.5 C 296.85,564.335 300.183,564.502 303.5,565C 313.616,568.927 323.949,572.261 334.5,575C 311.162,580.975 287.828,580.975 264.5,575C 273.828,572.225 283.162,569.225 292.5,566C 293.056,565.617 293.389,565.117 293.5,564.5 Z"/></g>
</svg>
