<?xml version="1.0" encoding="UTF-8"?>
<!DOCTYPE svg PUBLIC "-//W3C//DTD SVG 1.1//EN" "http://www.w3.org/Graphics/SVG/1.1/DTD/svg11.dtd">
<svg xmlns="http://www.w3.org/2000/svg" version="1.1" width="600px" height="600px" style="shape-rendering:geometricPrecision; text-rendering:geometricPrecision; image-rendering:optimizeQuality; fill-rule:evenodd; clip-rule:evenodd" xmlns:xlink="http://www.w3.org/1999/xlink">
<g><path style="opacity:0.969" fill="#010101" d="M 599.5,285.5 C 599.5,297.833 599.5,310.167 599.5,322.5C 596.996,323.765 594.496,324.099 592,323.5C 592.662,327.483 593.662,331.483 595,335.5C 598.215,346.486 598.215,357.486 595,368.5C 590.684,385.096 586.684,401.763 583,418.5C 582.208,420.587 581.041,422.421 579.5,424C 576.784,424.782 574.45,426.116 572.5,428C 574.082,434.336 572.415,439.67 567.5,444C 566.207,444.49 564.873,444.657 563.5,444.5C 565.61,456.774 568.276,468.941 571.5,481C 571.231,489.931 566.731,495.098 558,496.5C 553.872,495.513 550.039,493.846 546.5,491.5C 541.142,498.173 534.475,499.84 526.5,496.5C 526.167,496.833 525.833,497.167 525.5,497.5C 530.839,510.843 536.173,524.177 541.5,537.5C 540.5,544.5 536.5,548.5 529.5,549.5C 521.619,546.893 514.286,543.226 507.5,538.5C 502.327,539.631 497.327,538.964 492.5,536.5C 492.167,536.833 491.833,537.167 491.5,537.5C 493.656,545.124 495.656,552.791 497.5,560.5C 494.925,571.888 488.592,574.721 478.5,569C 475,565.5 471.5,562 468,558.5C 469.944,565.346 471.277,572.346 472,579.5C 467.93,588.393 461.763,590.226 453.5,585C 446.261,578.431 439.761,571.265 434,563.5C 433.261,567.062 431.761,570.228 429.5,573C 423.176,574.851 417.176,577.351 411.5,580.5C 406.187,579.929 402.353,577.263 400,572.5C 398.363,567.271 397.197,561.938 396.5,556.5C 395.506,560.669 393.839,564.503 391.5,568C 386.208,571.434 381.041,571.267 376,567.5C 374.529,571.581 372.862,575.581 371,579.5C 366.452,585.077 360.952,586.41 354.5,583.5C 346.584,592.544 338.751,592.544 331,583.5C 325.209,593.986 316.709,597.152 305.5,593C 302.131,590.635 299.964,587.468 299,583.5C 293.476,595.01 284.976,597.843 273.5,592C 270.422,589.677 267.922,586.843 266,583.5C 258.481,592.689 250.814,592.689 243,583.5C 237.017,586.173 231.683,585.173 227,580.5C 224.799,576.217 222.799,571.883 221,567.5C 214.063,572.176 208.063,571.176 203,564.5C 202.206,561.529 201.539,558.529 201,555.5C 200.221,562.081 198.554,568.414 196,574.5C 193.419,577.789 190.086,579.789 186,580.5C 180.959,578.473 176.126,575.973 171.5,573C 169.239,570.228 167.739,567.062 167,563.5C 161.541,570.627 155.708,577.461 149.5,584C 139.248,591.026 132.248,588.692 128.5,577C 130.447,571.18 131.947,565.347 133,559.5C 128.066,565.706 121.899,570.039 114.5,572.5C 107.375,571.707 103.708,567.707 103.5,560.5C 105.864,552.415 107.53,544.415 108.5,536.5C 103.337,538.965 98.0039,539.798 92.5,539C 86.4489,543.943 79.6156,547.443 72,549.5C 62.9028,547.987 59.2361,542.654 61,533.5C 66.2488,521.502 71.0821,509.335 75.5,497C 75.3333,496.5 75.1667,496 75,495.5C 66.2874,500.256 58.7874,498.922 52.5,491.5C 44.3618,498.356 36.8618,497.689 30,489.5C 28.6071,484.905 28.2738,480.239 29,475.5C 32.2567,465.383 34.4234,455.049 35.5,444.5C 31.0388,444.21 28.2055,441.877 27,437.5C 26.6667,433.833 26.3333,430.167 26,426.5C 22.2102,425.714 19.2102,423.714 17,420.5C 10.9535,397.485 5.78685,374.319 1.5,351C 2.79427,342.032 4.79427,333.198 7.5,324.5C 4.7334,324.142 2.06674,323.475 -0.5,322.5C -0.5,310.167 -0.5,297.833 -0.5,285.5C 6.80465,272.232 14.638,259.232 23,246.5C 25.9025,238.455 29.5691,230.788 34,223.5C 42.2573,211.408 51.0906,199.741 60.5,188.5C 59.1951,185.947 58.1951,183.28 57.5,180.5C 59.4298,173.308 62.9298,166.974 68,161.5C 71.8333,157.667 75.6667,153.833 79.5,150C 73.7277,145.681 72.2277,140.181 75,133.5C 83.3696,123.566 93.2029,115.399 104.5,109C 98.0477,99.6588 99.7143,91.9921 109.5,86C 118.197,81.9835 126.864,77.9835 135.5,74C 129.384,62.5437 132.717,54.877 145.5,51C 153.764,49.0672 162.098,47.5672 170.5,46.5C 169.319,38.8535 172.319,33.6868 179.5,31C 195.555,26.3277 211.888,24.8277 228.5,26.5C 226.492,20.7132 227.492,15.5465 231.5,11C 236.939,8.62919 242.606,7.96252 248.5,9C 258.557,10.9061 267.89,14.5728 276.5,20C 278.81,20.4966 281.143,20.6633 283.5,20.5C 286.505,6.33402 294.838,1.50068 308.5,6C 312.721,9.60522 315.554,14.1052 317,19.5C 318.231,20.1078 319.564,20.4411 321,20.5C 328.235,16.9687 335.735,13.8021 343.5,11C 351.428,8.26104 359.428,7.92771 367.5,10C 372.788,14.4851 374.122,19.8185 371.5,26C 388.421,24.8415 405.087,26.5082 421.5,31C 428.419,33.8425 431.086,38.8425 429.5,46C 440.859,47.2804 451.859,49.9471 462.5,54C 469.57,60.1311 470.236,66.7978 464.5,74C 474.104,77.8028 483.438,82.1361 492.5,87C 500.97,93.3453 502.47,100.845 497,109.5C 504.923,115.212 512.756,121.045 520.5,127C 523.753,130.676 526.087,134.842 527.5,139.5C 526.923,143.821 524.923,147.321 521.5,150C 529.141,157.302 535.641,165.469 541,174.5C 541.5,176.5 542,178.5 542.5,180.5C 541.63,183.98 540.797,187.313 540,190.5C 555.545,207.385 567.878,226.385 577,247.5C 585.296,259.767 592.796,272.434 599.5,285.5 Z"/></g>
<g><path style="opacity:1" fill="#464544" d="M 517.5,181.5 C 520.331,192.164 525.497,201.498 533,209.5C 535.588,213.674 537.921,218.007 540,222.5C 540.808,224.579 540.641,226.579 539.5,228.5C 535.5,225.5 531.5,222.5 527.5,219.5C 527.016,229.617 528.183,239.617 531,249.5C 534.528,257.084 537.861,264.751 541,272.5C 542.108,276.086 542.608,279.753 542.5,283.5C 541.448,283.649 540.448,283.483 539.5,283C 536.385,280.554 533.385,278.054 530.5,275.5C 529.335,284.482 529.168,293.482 530,302.5C 534.073,317.929 536.073,333.596 536,349.5C 534.951,350.517 533.784,350.684 532.5,350C 530.457,346.747 528.29,343.58 526,340.5C 524.417,342.911 523.417,345.578 523,348.5C 522.048,355.298 521.548,362.132 521.5,369C 523.081,381.449 523.581,393.949 523,406.5C 522.333,407.833 521.667,407.833 521,406.5C 518.541,401.624 516.375,396.624 514.5,391.5C 513.726,390.289 512.893,390.289 512,391.5C 509.592,396.949 507.925,402.616 507,408.5C 506.732,417.865 506.065,427.198 505,436.5C 504.265,438.871 503.432,441.205 502.5,443.5C 501.575,444.562 500.575,444.562 499.5,443.5C 498.12,433.972 496.454,424.472 494.5,415C 495.455,411.529 495.622,408.029 495,404.5C 489.928,381.777 487.928,358.777 489,335.5C 489.956,334.106 491.289,333.439 493,333.5C 497.032,334.767 500.865,336.434 504.5,338.5C 505.442,338.392 506.275,338.059 507,337.5C 507.167,336.167 507.333,334.833 507.5,333.5C 502.795,311.601 498.628,289.601 495,267.5C 494.333,262.167 494.333,256.833 495,251.5C 495.881,248.398 497.714,246.064 500.5,244.5C 504.525,247.533 508.525,250.533 512.5,253.5C 513.647,253.182 514.481,252.516 515,251.5C 515.137,237.666 512.47,224.333 507,211.5C 501.401,198.201 495.901,184.868 490.5,171.5C 490.529,169.971 491.196,168.804 492.5,168C 497.528,167.412 502.528,167.578 507.5,168.5C 507.116,164.396 505.616,160.729 503,157.5C 499.5,154 496,150.5 492.5,147C 478.667,137.833 464.833,128.667 451,119.5C 448.924,116.783 448.257,113.783 449,110.5C 451.847,106.989 454.68,103.489 457.5,100C 456.224,97.7194 454.557,95.7194 452.5,94C 446.175,90.5565 439.508,87.8898 432.5,86C 417.157,83.6648 401.823,81.3315 386.5,79C 385.483,77.9505 385.316,76.7839 386,75.5C 390.333,71.8333 394.667,68.1667 399,64.5C 399.617,63.5509 399.451,62.7175 398.5,62C 395.833,61.3333 393.167,61.3333 390.5,62C 378.446,64.4531 366.446,67.1197 354.5,70C 351.5,70.6667 348.5,70.6667 345.5,70C 344.903,68.9383 344.57,67.7716 344.5,66.5C 345.91,62.6025 346.91,58.6025 347.5,54.5C 331.712,55.5962 317.379,60.7628 304.5,70C 301.833,70.6667 299.167,70.6667 296.5,70C 284.936,61.7004 272.103,56.5338 258,54.5C 256.5,54.8333 255,55.1667 253.5,55.5C 255.456,60.0297 256.789,64.6964 257.5,69.5C 254.201,70.3761 250.868,70.5428 247.5,70C 232.63,66.3645 217.63,63.5311 202.5,61.5C 202.351,62.552 202.517,63.552 203,64.5C 207.333,68.1667 211.667,71.8333 216,75.5C 216.483,76.448 216.649,77.448 216.5,78.5C 198.017,80.6886 179.684,83.8553 161.5,88C 156.554,89.8061 151.888,92.1394 147.5,95C 145.99,96.3513 144.99,98.018 144.5,100C 146.224,103.73 148.724,106.897 152,109.5C 153.368,115.269 151.534,119.769 146.5,123C 132.319,131.254 118.653,140.254 105.5,150C 99.586,155.051 95.586,161.217 93.5,168.5C 97.337,167.917 101.17,167.25 105,166.5C 108.238,166.027 110.072,167.36 110.5,170.5C 103.712,187.36 97.2121,204.36 91,221.5C 88.8972,229.954 87.0638,238.454 85.5,247C 85.6667,248.833 85.8333,250.667 86,252.5C 86.7247,253.059 87.5581,253.392 88.5,253.5C 92.5129,250.326 96.6795,247.326 101,244.5C 103.593,245.661 105.259,247.661 106,250.5C 106.51,259.19 106.176,267.856 105,276.5C 101.174,295.319 97.3403,314.152 93.5,333C 93.1273,335.617 94.1273,337.45 96.5,338.5C 99.5,337 102.5,335.5 105.5,334C 107.568,333.313 109.568,333.48 111.5,334.5C 113.75,358.162 111.917,381.495 106,404.5C 105.501,408.514 105.667,412.514 106.5,416.5C 105.989,420.207 105.322,423.874 104.5,427.5C 103.25,427.577 102.417,428.244 102,429.5C 101.727,434.229 101.061,438.896 100,443.5C 99,444.833 98,444.833 97,443.5C 95.5275,439.277 94.5275,434.943 94,430.5C 93.6667,423.167 93.3333,415.833 93,408.5C 91.8569,402.421 90.0235,396.587 87.5,391C 86.6683,390.312 86.0016,390.479 85.5,391.5C 83.6252,396.624 81.4585,401.624 79,406.5C 78.3333,407.833 77.6667,407.833 77,406.5C 76.4026,394.115 76.9026,381.782 78.5,369.5C 78.5588,361.078 77.7255,352.745 76,344.5C 75.7104,342.956 75.0437,341.623 74,340.5C 71.7098,343.58 69.5431,346.747 67.5,350C 66.2161,350.684 65.0495,350.517 64,349.5C 64.0344,333.286 66.0344,317.286 70,301.5C 70.6667,293.167 70.6667,284.833 70,276.5C 69.2825,275.549 68.4491,275.383 67.5,276C 59.0625,286.619 56.5625,285.119 60,271.5C 63.6667,262.833 67.3333,254.167 71,245.5C 72.3084,236.842 73.475,228.175 74.5,219.5C 72.2166,219.608 70.2166,220.441 68.5,222C 66.2953,224.54 63.7953,226.707 61,228.5C 60.0565,227.737 59.5565,226.737 59.5,225.5C 63.9052,214.938 69.7386,205.271 77,196.5C 79.4679,190.927 81.6346,185.26 83.5,179.5C 84.2341,178.292 84.5674,176.959 84.5,175.5C 79.3575,177.967 74.0242,179.967 68.5,181.5C 69.3509,176.799 71.5176,172.799 75,169.5C 81.3333,163.167 87.6667,156.833 94,150.5C 97.5711,146.025 100.071,141.025 101.5,135.5C 95.9227,137.454 90.256,139.121 84.5,140.5C 86.1195,136.358 88.7862,132.858 92.5,130C 99.9921,124.42 107.659,119.087 115.5,114C 119.356,109.645 123.023,105.145 126.5,100.5C 121.167,100.167 115.833,99.8333 110.5,99.5C 111.313,98.1861 112.313,97.0195 113.5,96C 124.799,90.674 136.132,85.3406 147.5,80C 151.951,77.2171 156.117,74.0504 160,70.5C 160.617,69.5509 160.451,68.7175 159.5,68C 154.167,67.6667 148.833,67.3333 143.5,67C 142.167,65.6667 142.167,64.3333 143.5,63C 145.957,61.4379 148.624,60.4379 151.5,60C 162.461,58.0745 173.461,56.4079 184.5,55C 206.095,49.0898 205.762,45.7565 183.5,45C 182.328,44.5814 181.328,43.9147 180.5,43C 182.745,40.9125 185.412,39.5792 188.5,39C 195.743,37.3701 203.076,36.5367 210.5,36.5C 224.379,38.5856 238.046,37.7523 251.5,34C 252.711,33.1072 252.711,32.2739 251.5,31.5C 247.141,27.9739 242.641,24.6405 238,21.5C 237.383,20.5509 237.549,19.7175 238.5,19C 251.642,19.3808 263.642,23.3808 274.5,31C 279.545,31.5512 284.545,31.2179 289.5,30C 292.041,25.7249 294.208,21.2249 296,16.5C 298.795,13.887 301.629,13.887 304.5,16.5C 306.429,21.0879 308.429,25.5879 310.5,30C 315.455,31.2179 320.455,31.5512 325.5,31C 331.888,27.1394 338.554,23.8061 345.5,21C 350.693,19.0324 356.026,18.3657 361.5,19C 362.451,19.7175 362.617,20.5509 362,21.5C 357.667,24.8333 353.333,28.1667 349,31.5C 348.251,32.635 348.417,33.635 349.5,34.5C 362.002,37.7058 374.669,38.3725 387.5,36.5C 398.523,36.4085 409.19,38.2418 419.5,42C 420.833,42.6667 420.833,43.3333 419.5,44C 413.227,45.2177 406.893,46.051 400.5,46.5C 400.281,47.675 400.614,48.675 401.5,49.5C 405.969,51.8233 410.636,53.6566 415.5,55C 428.981,56.4973 442.315,58.8306 455.5,62C 457.616,63.1707 458.282,64.6707 457.5,66.5C 452.553,67.2826 447.553,67.7826 442.5,68C 441.376,68.2492 440.376,68.7492 439.5,69.5C 444.334,73.4939 449.334,77.3272 454.5,81C 466.35,85.8424 477.85,91.3424 489,97.5C 489.483,98.448 489.649,99.448 489.5,100.5C 484.482,100.387 479.482,100.053 474.5,99.5C 477.413,105.936 481.746,111.436 487.5,116C 496.778,121.89 505.611,128.39 514,135.5C 514.635,136.966 515.469,138.3 516.5,139.5C 511.593,139.932 506.926,138.765 502.5,136C 501.056,135.219 499.723,135.386 498.5,136.5C 500.495,141.16 502.995,145.494 506,149.5C 513.698,156.864 521.031,164.53 528,172.5C 530.287,175.072 531.453,178.072 531.5,181.5C 526.212,179.529 520.879,177.529 515.5,175.5C 515.604,177.703 516.27,179.703 517.5,181.5 Z"/></g>
<g><path style="opacity:1" fill="#262626" d="M 499.5,443.5 C 501.607,455.277 504.941,466.61 509.5,477.5C 508.903,477.735 508.57,478.235 508.5,479C 514.956,499.204 522.289,519.038 530.5,538.5C 522.705,535.684 515.538,531.684 509,526.5C 509.374,524.231 509.374,521.898 509,519.5C 496.408,484.541 488.408,448.541 485,411.5C 482.849,378.122 480.183,344.789 477,311.5C 474.537,294.022 471.371,276.688 467.5,259.5C 469.903,259.607 471.736,258.607 473,256.5C 473.891,244.054 471.891,232.054 467,220.5C 463.846,211.36 460.013,202.526 455.5,194C 464.8,194.7 468.3,190.533 466,181.5C 462.326,174.815 457.492,168.982 451.5,164C 441.635,157.303 431.635,150.803 421.5,144.5C 430.032,136.243 429.365,128.743 419.5,122C 418.167,121.333 416.833,120.667 415.5,120C 403.72,116.311 391.72,113.644 379.5,112C 383.715,107.042 383.381,102.375 378.5,98C 374.167,97.3333 369.833,97.3333 365.5,98C 357.834,99.5667 350.167,101.067 342.5,102.5C 343.404,95.2405 340.237,91.5738 333,91.5C 320.678,92.7184 309.344,96.7184 299,103.5C 291.611,99.0563 283.777,95.5563 275.5,93C 270.225,91.6415 264.891,91.3081 259.5,92C 255.952,94.5907 254.618,98.0907 255.5,102.5C 247.88,100.846 240.213,99.3457 232.5,98C 228.167,97.3333 223.833,97.3333 219.5,98C 214.619,102.375 214.285,107.042 218.5,112C 209.512,113.665 200.512,115.332 191.5,117C 183.014,118.492 176.18,122.658 171,129.5C 170.183,132.964 170.517,136.298 172,139.5C 173.685,141.017 175.185,142.684 176.5,144.5C 166.365,150.803 156.365,157.303 146.5,164C 140.922,168.907 136.089,174.407 132,180.5C 129.044,189.523 132.211,194.023 141.5,194C 134.546,208.529 129.379,223.695 126,239.5C 125.333,245.167 125.333,250.833 126,256.5C 128.228,258.968 131.062,260.135 134.5,260C 127.466,286.704 122.966,313.871 121,341.5C 120.245,393.295 113.579,444.295 101,494.5C 98.7322,502.637 96.0656,510.637 93,518.5C 92.3131,520.568 92.4798,522.568 93.5,524.5C 86.9357,530.95 79.269,535.617 70.5,538.5C 79.2588,518.302 86.9254,497.635 93.5,476.5C 93.3764,475.893 93.0431,475.56 92.5,475.5C 98.0484,459.973 102.048,443.973 104.5,427.5C 105.322,423.874 105.989,420.207 106.5,416.5C 105.667,412.514 105.501,408.514 106,404.5C 111.917,381.495 113.75,358.162 111.5,334.5C 109.568,333.48 107.568,333.313 105.5,334C 102.5,335.5 99.5,337 96.5,338.5C 94.1273,337.45 93.1273,335.617 93.5,333C 97.3403,314.152 101.174,295.319 105,276.5C 106.176,267.856 106.51,259.19 106,250.5C 105.259,247.661 103.593,245.661 101,244.5C 96.6795,247.326 92.5129,250.326 88.5,253.5C 87.5581,253.392 86.7247,253.059 86,252.5C 85.8333,250.667 85.6667,248.833 85.5,247C 87.0638,238.454 88.8972,229.954 91,221.5C 97.2121,204.36 103.712,187.36 110.5,170.5C 110.072,167.36 108.238,166.027 105,166.5C 101.17,167.25 97.337,167.917 93.5,168.5C 95.586,161.217 99.586,155.051 105.5,150C 118.653,140.254 132.319,131.254 146.5,123C 151.534,119.769 153.368,115.269 152,109.5C 148.724,106.897 146.224,103.73 144.5,100C 144.99,98.018 145.99,96.3513 147.5,95C 151.888,92.1394 156.554,89.8061 161.5,88C 179.684,83.8553 198.017,80.6886 216.5,78.5C 216.649,77.448 216.483,76.448 216,75.5C 211.667,71.8333 207.333,68.1667 203,64.5C 202.517,63.552 202.351,62.552 202.5,61.5C 217.63,63.5311 232.63,66.3645 247.5,70C 250.868,70.5428 254.201,70.3761 257.5,69.5C 256.789,64.6964 255.456,60.0297 253.5,55.5C 255,55.1667 256.5,54.8333 258,54.5C 272.103,56.5338 284.936,61.7004 296.5,70C 299.167,70.6667 301.833,70.6667 304.5,70C 317.379,60.7628 331.712,55.5962 347.5,54.5C 346.91,58.6025 345.91,62.6025 344.5,66.5C 344.57,67.7716 344.903,68.9383 345.5,70C 348.5,70.6667 351.5,70.6667 354.5,70C 366.446,67.1197 378.446,64.4531 390.5,62C 393.167,61.3333 395.833,61.3333 398.5,62C 399.451,62.7175 399.617,63.5509 399,64.5C 394.667,68.1667 390.333,71.8333 386,75.5C 385.316,76.7839 385.483,77.9505 386.5,79C 401.823,81.3315 417.157,83.6648 432.5,86C 439.508,87.8898 446.175,90.5565 452.5,94C 454.557,95.7194 456.224,97.7194 457.5,100C 454.68,103.489 451.847,106.989 449,110.5C 448.257,113.783 448.924,116.783 451,119.5C 464.833,128.667 478.667,137.833 492.5,147C 496,150.5 499.5,154 503,157.5C 505.616,160.729 507.116,164.396 507.5,168.5C 502.528,167.578 497.528,167.412 492.5,168C 491.196,168.804 490.529,169.971 490.5,171.5C 495.901,184.868 501.401,198.201 507,211.5C 512.47,224.333 515.137,237.666 515,251.5C 514.481,252.516 513.647,253.182 512.5,253.5C 508.525,250.533 504.525,247.533 500.5,244.5C 497.714,246.064 495.881,248.398 495,251.5C 494.333,256.833 494.333,262.167 495,267.5C 498.628,289.601 502.795,311.601 507.5,333.5C 507.333,334.833 507.167,336.167 507,337.5C 506.275,338.059 505.442,338.392 504.5,338.5C 500.865,336.434 497.032,334.767 493,333.5C 491.289,333.439 489.956,334.106 489,335.5C 487.928,358.777 489.928,381.777 495,404.5C 495.622,408.029 495.455,411.529 494.5,415C 496.454,424.472 498.12,433.972 499.5,443.5 Z"/></g>
<g><path style="opacity:1" fill="#252525" d="M 501.5,520.5 C 491.348,489.913 484.181,458.58 480,426.5C 476.631,389.191 473.631,351.858 471,314.5C 468.016,292.081 463.183,270.081 456.5,248.5C 457.002,247.479 457.668,247.312 458.5,248C 464.548,256.094 467.381,255.261 467,245.5C 462.145,226.268 455.312,207.768 446.5,190C 446.759,188.739 447.426,187.739 448.5,187C 452.203,186.421 455.869,186.588 459.5,187.5C 459.856,184.436 459.023,181.769 457,179.5C 446.338,168.587 434.171,159.753 420.5,153C 415.881,150.411 414.047,146.577 415,141.5C 416.848,138.989 418.681,136.489 420.5,134C 419.917,131.085 418.25,129.085 415.5,128C 408.087,124.896 400.42,122.562 392.5,121C 383.476,119.827 374.476,118.494 365.5,117C 364.549,116.282 364.383,115.449 365,114.5C 368.672,111.658 372.172,108.658 375.5,105.5C 371.541,104.34 367.541,104.173 363.5,105C 353.593,107.478 343.593,109.312 333.5,110.5C 333.541,106.384 334.207,102.384 335.5,98.5C 331.103,98.4246 326.77,98.9246 322.5,100C 314.408,103.463 306.575,107.297 299,111.5C 291.425,107.297 283.592,103.463 275.5,100C 271.249,98.8054 266.915,98.3054 262.5,98.5C 262.905,101.987 263.905,105.32 265.5,108.5C 265.291,109.086 264.957,109.586 264.5,110C 261.5,110.667 258.5,110.667 255.5,110C 248.186,108.241 240.852,106.574 233.5,105C 229.789,104.175 226.122,104.341 222.5,105.5C 225.828,108.658 229.328,111.658 233,114.5C 233.617,115.449 233.451,116.282 232.5,117C 216.862,118.495 201.528,121.495 186.5,126C 182.375,127.538 179.375,130.204 177.5,134C 178.608,136.112 180.108,137.946 182,139.5C 184.136,142.993 183.969,146.326 181.5,149.5C 171.671,156.249 161.671,162.749 151.5,169C 145.925,173.741 141.258,179.241 137.5,185.5C 137.887,186.72 138.72,187.387 140,187.5C 143.035,185.958 146.202,185.458 149.5,186C 150.574,186.739 151.241,187.739 151.5,189C 143.227,206.149 136.727,223.982 132,242.5C 131.211,246.091 131.378,249.591 132.5,253C 133.5,253.667 134.5,253.667 135.5,253C 137.732,250.265 140.399,248.098 143.5,246.5C 143.833,247 144.167,247.5 144.5,248C 135.062,279.854 129.229,312.354 127,345.5C 125.956,390.611 120.956,435.278 112,479.5C 108.27,494.108 104.104,508.441 99.5,522.5C 99.0825,521.778 98.4158,521.278 97.5,521C 110.901,483.665 119.068,445.165 122,405.5C 123.652,372.747 126.319,340.08 130,307.5C 132.995,287.856 136.995,268.522 142,249.5C 139.377,253.903 135.543,255.569 130.5,254.5C 130.043,245.618 131.21,236.951 134,228.5C 138.631,214.582 143.798,200.915 149.5,187.5C 145.19,188.08 140.857,188.414 136.5,188.5C 136.248,185.68 136.748,183.014 138,180.5C 141.131,176.367 144.631,172.534 148.5,169C 159.419,161.958 170.252,154.791 181,147.5C 181.5,146.5 182,145.5 182.5,144.5C 179.736,141.077 177.402,137.41 175.5,133.5C 176.559,130.932 178.226,128.765 180.5,127C 184.677,124.941 189.01,123.274 193.5,122C 205.863,119.877 218.196,117.711 230.5,115.5C 227.505,112.675 224.338,110.008 221,107.5C 220.28,105.888 220.446,104.388 221.5,103C 224.5,102.333 227.5,102.333 230.5,103C 240.878,105.012 251.211,107.178 261.5,109.5C 262.308,109.192 262.975,108.692 263.5,108C 261.622,104.709 260.788,101.209 261,97.5C 268.392,96.5742 275.558,97.7409 282.5,101C 288.029,103.596 293.362,106.429 298.5,109.5C 304.13,106.685 309.797,103.851 315.5,101C 322.442,97.7409 329.608,96.5742 337,97.5C 337.316,101.064 336.483,104.397 334.5,107.5C 334.887,108.72 335.72,109.387 337,109.5C 349.981,105.902 363.148,103.735 376.5,103C 377.554,104.388 377.72,105.888 377,107.5C 373.662,110.008 370.495,112.675 367.5,115.5C 378.106,117.563 388.772,119.397 399.5,121C 405.773,122.202 411.773,124.202 417.5,127C 419.774,128.765 421.441,130.932 422.5,133.5C 420.598,137.41 418.264,141.077 415.5,144.5C 416,145.5 416.5,146.5 417,147.5C 427.748,154.791 438.581,161.958 449.5,169C 453.369,172.534 456.869,176.367 460,180.5C 461.079,183.063 461.579,185.729 461.5,188.5C 458.272,188.701 455.105,188.367 452,187.5C 450.379,187.725 449.212,188.558 448.5,190C 456.781,207.177 463.281,225.01 468,243.5C 468.499,247.152 468.665,250.818 468.5,254.5C 465.315,254.98 462.481,254.314 460,252.5C 465.134,272.507 469.134,292.84 472,313.5C 475.183,346.789 477.849,380.122 480,413.5C 483.43,450.149 491.263,485.816 503.5,520.5C 503.03,521.463 502.363,521.463 501.5,520.5 Z"/></g>
<g><path style="opacity:1" fill="#464544" d="M 501.5,520.5 C 502.371,523.112 503.037,525.779 503.5,528.5C 499.687,527.84 496.021,526.674 492.5,525C 487.271,521.887 481.938,519.053 476.5,516.5C 461.712,506.965 448.045,496.632 435.5,485.5C 433.528,473.697 432.361,461.697 432,449.5C 432.414,449.043 432.914,448.709 433.5,448.5C 435.146,449.779 436.313,451.445 437,453.5C 440.781,467.05 445.114,480.383 450,493.5C 451.714,494.925 453.047,494.592 454,492.5C 453.821,473.725 452.154,455.058 449,436.5C 445.314,420.091 441.481,403.758 437.5,387.5C 440.263,387.744 442.429,389.077 444,391.5C 448.13,398.261 452.63,404.761 457.5,411C 458.449,411.617 459.282,411.451 460,410.5C 454.321,362.088 434.821,320.255 401.5,285C 376.768,263.079 347.768,251.079 314.5,249C 249.119,242.94 199.619,267.773 166,323.5C 150.703,350.723 141.037,379.723 137,410.5C 137.414,410.957 137.914,411.291 138.5,411.5C 140.149,410.352 141.649,409.019 143,407.5C 146.921,399.76 152.088,393.093 158.5,387.5C 158.833,388.333 159.167,389.167 159.5,390C 149.065,423.378 143.565,457.545 143,492.5C 143.689,493.357 144.522,494.023 145.5,494.5C 147.146,493.221 148.313,491.555 149,489.5C 153.249,476.935 157.249,464.268 161,451.5C 161.576,448.876 162.91,448.209 165,449.5C 165.167,451.333 165.333,453.167 165.5,455C 163.425,466.401 162.091,477.901 161.5,489.5C 150.008,499.66 137.674,508.66 124.5,516.5C 116.584,521.291 108.251,525.291 99.5,528.5C 98.8333,528.333 98.1667,528.167 97.5,528C 98.464,526.275 99.1307,524.441 99.5,522.5C 104.104,508.441 108.27,494.108 112,479.5C 120.956,435.278 125.956,390.611 127,345.5C 129.229,312.354 135.062,279.854 144.5,248C 144.167,247.5 143.833,247 143.5,246.5C 140.399,248.098 137.732,250.265 135.5,253C 134.5,253.667 133.5,253.667 132.5,253C 131.378,249.591 131.211,246.091 132,242.5C 136.727,223.982 143.227,206.149 151.5,189C 151.241,187.739 150.574,186.739 149.5,186C 146.202,185.458 143.035,185.958 140,187.5C 138.72,187.387 137.887,186.72 137.5,185.5C 141.258,179.241 145.925,173.741 151.5,169C 161.671,162.749 171.671,156.249 181.5,149.5C 183.969,146.326 184.136,142.993 182,139.5C 180.108,137.946 178.608,136.112 177.5,134C 179.375,130.204 182.375,127.538 186.5,126C 201.528,121.495 216.862,118.495 232.5,117C 233.451,116.282 233.617,115.449 233,114.5C 229.328,111.658 225.828,108.658 222.5,105.5C 226.122,104.341 229.789,104.175 233.5,105C 240.852,106.574 248.186,108.241 255.5,110C 258.5,110.667 261.5,110.667 264.5,110C 264.957,109.586 265.291,109.086 265.5,108.5C 263.905,105.32 262.905,101.987 262.5,98.5C 266.915,98.3054 271.249,98.8054 275.5,100C 283.592,103.463 291.425,107.297 299,111.5C 306.575,107.297 314.408,103.463 322.5,100C 326.77,98.9246 331.103,98.4246 335.5,98.5C 334.207,102.384 333.541,106.384 333.5,110.5C 343.593,109.312 353.593,107.478 363.5,105C 367.541,104.173 371.541,104.34 375.5,105.5C 372.172,108.658 368.672,111.658 365,114.5C 364.383,115.449 364.549,116.282 365.5,117C 374.476,118.494 383.476,119.827 392.5,121C 400.42,122.562 408.087,124.896 415.5,128C 418.25,129.085 419.917,131.085 420.5,134C 418.681,136.489 416.848,138.989 415,141.5C 414.047,146.577 415.881,150.411 420.5,153C 434.171,159.753 446.338,168.587 457,179.5C 459.023,181.769 459.856,184.436 459.5,187.5C 455.869,186.588 452.203,186.421 448.5,187C 447.426,187.739 446.759,188.739 446.5,190C 455.312,207.768 462.145,226.268 467,245.5C 467.381,255.261 464.548,256.094 458.5,248C 457.668,247.312 457.002,247.479 456.5,248.5C 463.183,270.081 468.016,292.081 471,314.5C 473.631,351.858 476.631,389.191 480,426.5C 484.181,458.58 491.348,489.913 501.5,520.5 Z"/></g>
<g><path style="opacity:1" fill="#343434" d="M 83.5,179.5 C 81.6346,185.26 79.4679,190.927 77,196.5C 69.7386,205.271 63.9052,214.938 59.5,225.5C 59.5565,226.737 60.0565,227.737 61,228.5C 63.7953,226.707 66.2953,224.54 68.5,222C 70.2166,220.441 72.2166,219.608 74.5,219.5C 73.475,228.175 72.3084,236.842 71,245.5C 67.3333,254.167 63.6667,262.833 60,271.5C 56.5625,285.119 59.0625,286.619 67.5,276C 68.4491,275.383 69.2825,275.549 70,276.5C 70.6667,284.833 70.6667,293.167 70,301.5C 66.0344,317.286 64.0344,333.286 64,349.5C 65.0495,350.517 66.2161,350.684 67.5,350C 69.5431,346.747 71.7098,343.58 74,340.5C 75.0437,341.623 75.7104,342.956 76,344.5C 77.7255,352.745 78.5588,361.078 78.5,369.5C 76.9026,381.782 76.4026,394.115 77,406.5C 77.6667,407.833 78.3333,407.833 79,406.5C 81.4585,401.624 83.6252,396.624 85.5,391.5C 86.0016,390.479 86.6683,390.312 87.5,391C 90.0235,396.587 91.8569,402.421 93,408.5C 93.3333,415.833 93.6667,423.167 94,430.5C 94.5275,434.943 95.5275,439.277 97,443.5C 98,444.833 99,444.833 100,443.5C 101.061,438.896 101.727,434.229 102,429.5C 102.417,428.244 103.25,427.577 104.5,427.5C 102.048,443.973 98.0484,459.973 92.5,475.5C 84.3918,481.385 75.3918,485.385 65.5,487.5C 64.0055,487.291 62.8388,486.624 62,485.5C 61.5012,481.514 61.3345,477.514 61.5,473.5C 58.9837,473.755 56.6504,474.589 54.5,476C 50.5623,479.78 46.2289,482.947 41.5,485.5C 40.3527,485.182 39.5194,484.516 39,483.5C 38.3333,481.5 38.3333,479.5 39,477.5C 44.682,460.288 47.5154,442.622 47.5,424.5C 46.448,424.351 45.448,424.517 44.5,425C 42.4552,427.586 40.7885,430.42 39.5,433.5C 38.675,434.386 37.675,434.719 36.5,434.5C 37.7748,424.865 38.2748,415.198 38,405.5C 37.2825,404.549 36.4491,404.383 35.5,405C 32.9627,407.906 30.796,411.073 29,414.5C 28,415.833 27,415.833 26,414.5C 23.449,400.63 20.1156,386.963 16,373.5C 13.7747,363.597 12.7747,353.597 13,343.5C 15.0943,335.311 17.7609,327.311 21,319.5C 22.2127,316.232 22.546,312.899 22,309.5C 19.9361,308.409 17.7695,308.242 15.5,309C 12.0288,311.072 8.36209,312.572 4.5,313.5C 4.29122,303.953 6.45788,294.953 11,286.5C 17.2694,275.237 23.9361,264.237 31,253.5C 43.8316,225.497 61.3316,200.83 83.5,179.5 Z"/></g>
<g><path style="opacity:1" fill="#282828" d="M 238.5,181.5 C 240.39,181.297 241.89,181.963 243,183.5C 244.387,199.948 251.72,212.948 265,222.5C 265.723,225.125 264.723,226.792 262,227.5C 259.88,226.541 257.713,226.374 255.5,227C 243.616,231.977 231.283,235.31 218.5,237C 213.328,240.085 208.328,243.419 203.5,247C 202.5,247.667 201.5,247.667 200.5,247C 199.424,245.274 199.257,243.441 200,241.5C 214.17,232.669 226.504,221.669 237,208.5C 238.701,206.1 239.534,203.433 239.5,200.5C 237.754,194.161 237.421,187.828 238.5,181.5 Z"/></g>
<g><path style="opacity:1" fill="#282828" d="M 359.5,181.5 C 360.822,181.33 361.989,181.663 363,182.5C 363.489,188.565 362.989,194.565 361.5,200.5C 361.466,203.433 362.299,206.1 364,208.5C 374.496,221.669 386.83,232.669 401,241.5C 401.743,243.441 401.576,245.274 400.5,247C 399.5,247.667 398.5,247.667 397.5,247C 391.801,242.818 385.801,239.152 379.5,236C 366.49,234.789 353.99,231.623 342,226.5C 337.788,228.274 335.788,226.941 336,222.5C 349.542,212.079 357.376,198.413 359.5,181.5 Z"/></g>
<g><path style="opacity:1" fill="#343434" d="M 517.5,181.5 C 539.499,202.347 556.665,226.68 569,254.5C 575.584,264.666 581.918,275 588,285.5C 592.406,294.036 594.739,303.036 595,312.5C 594.439,313.022 593.772,313.355 593,313.5C 589.742,312.12 586.575,310.62 583.5,309C 581.231,308.242 579.064,308.409 577,309.5C 576.542,312.558 576.876,315.558 578,318.5C 581.242,326.315 583.909,334.315 586,342.5C 586.762,350.215 586.429,357.881 585,365.5C 580.827,382.194 576.66,398.86 572.5,415.5C 569.167,411.833 565.833,408.167 562.5,404.5C 561.747,414.53 561.414,424.53 561.5,434.5C 558.812,431.638 556.479,428.472 554.5,425C 553.551,424.383 552.718,424.549 552,425.5C 552.074,442.544 554.741,459.21 560,475.5C 560.667,478.5 560.667,481.5 560,484.5C 558.951,485.517 557.784,485.684 556.5,485C 551.882,482.05 547.548,478.716 543.5,475C 541.564,474.187 539.564,473.687 537.5,473.5C 537.666,477.846 537.499,482.179 537,486.5C 535.938,487.097 534.772,487.43 533.5,487.5C 524.892,485.523 516.892,482.189 509.5,477.5C 504.941,466.61 501.607,455.277 499.5,443.5C 500.575,444.562 501.575,444.562 502.5,443.5C 503.432,441.205 504.265,438.871 505,436.5C 506.065,427.198 506.732,417.865 507,408.5C 507.925,402.616 509.592,396.949 512,391.5C 512.893,390.289 513.726,390.289 514.5,391.5C 516.375,396.624 518.541,401.624 521,406.5C 521.667,407.833 522.333,407.833 523,406.5C 523.581,393.949 523.081,381.449 521.5,369C 521.548,362.132 522.048,355.298 523,348.5C 523.417,345.578 524.417,342.911 526,340.5C 528.29,343.58 530.457,346.747 532.5,350C 533.784,350.684 534.951,350.517 536,349.5C 536.073,333.596 534.073,317.929 530,302.5C 529.168,293.482 529.335,284.482 530.5,275.5C 533.385,278.054 536.385,280.554 539.5,283C 540.448,283.483 541.448,283.649 542.5,283.5C 542.608,279.753 542.108,276.086 541,272.5C 537.861,264.751 534.528,257.084 531,249.5C 528.183,239.617 527.016,229.617 527.5,219.5C 531.5,222.5 535.5,225.5 539.5,228.5C 540.641,226.579 540.808,224.579 540,222.5C 537.921,218.007 535.588,213.674 533,209.5C 525.497,201.498 520.331,192.164 517.5,181.5 Z"/></g>
<g><path style="opacity:1" fill="#686665" d="M 435.5,485.5 C 435.216,487.415 435.549,489.081 436.5,490.5C 436.5,495.167 436.5,499.833 436.5,504.5C 436.684,515.523 436.351,526.523 435.5,537.5C 434.259,539.931 433.092,539.931 432,537.5C 430.477,530.622 428.644,523.955 426.5,517.5C 426.272,510.815 424.272,504.815 420.5,499.5C 419.502,507.807 419.169,516.14 419.5,524.5C 418.91,539.494 416.577,554.161 412.5,568.5C 411.998,569.521 411.332,569.688 410.5,569C 409.809,567.933 409.309,566.766 409,565.5C 408.422,557.359 407.255,549.359 405.5,541.5C 405.362,531.21 404.029,521.21 401.5,511.5C 401.5,511.167 401.5,510.833 401.5,510.5C 401.233,504.893 399.899,499.559 397.5,494.5C 396.349,493.269 395.183,493.269 394,494.5C 393.009,496.808 392.176,499.141 391.5,501.5C 389.968,520.622 387.635,539.622 384.5,558.5C 383.833,559.833 383.167,559.833 382.5,558.5C 378.065,544.158 375.232,529.492 374,514.5C 374.284,535.306 370.117,555.139 361.5,574C 360.668,574.688 360.002,574.521 359.5,573.5C 358.477,569.887 357.644,566.221 357,562.5C 356.451,558.383 354.784,557.716 352,560.5C 349.484,567.249 346.318,573.583 342.5,579.5C 341.914,579.291 341.414,578.957 341,578.5C 340.241,575.374 339.741,572.207 339.5,569C 340.345,557.151 341.345,545.318 342.5,533.5C 342.122,531.865 341.456,530.365 340.5,529C 341.645,526.801 341.645,524.635 340.5,522.5C 338.652,524.681 338.318,527.015 339.5,529.5C 338.509,530.665 337.509,531.832 336.5,533C 332.602,547.693 328.102,562.193 323,576.5C 320.881,580.455 317.715,583.122 313.5,584.5C 311.971,584.471 310.804,583.804 310,582.5C 307.346,570.914 305.013,559.248 303,547.5C 299.429,538.086 296.429,538.419 294,548.5C 292.093,559.945 289.76,571.278 287,582.5C 285.534,584.325 283.701,584.825 281.5,584C 279.376,582.878 277.543,581.378 276,579.5C 268.711,560.631 262.211,541.631 256.5,522.5C 255.554,524.075 255.554,525.742 256.5,527.5C 255.72,528.949 255.054,530.449 254.5,532C 255.902,543.795 256.902,555.628 257.5,567.5C 257.537,571.256 257.037,574.922 256,578.5C 255.586,578.957 255.086,579.291 254.5,579.5C 253.667,578.5 252.833,577.5 252,576.5C 249.861,571.084 247.528,565.751 245,560.5C 244.311,559.643 243.478,558.977 242.5,558.5C 240.291,563.747 238.291,569.081 236.5,574.5C 229.749,560.578 225.416,545.911 223.5,530.5C 223.666,525.156 223.499,519.823 223,514.5C 221.173,525.795 219.673,537.128 218.5,548.5C 216.877,551.6 215.543,554.933 214.5,558.5C 214.167,558.833 213.833,559.167 213.5,559.5C 212.749,558.624 212.249,557.624 212,556.5C 211.146,548.149 210.146,539.815 209,531.5C 207.217,529.711 206.384,527.544 206.5,525C 207.341,519.189 207.341,513.355 206.5,507.5C 206.002,504.513 205.502,501.513 205,498.5C 203.107,492.516 200.774,492.182 198,497.5C 197.023,503.552 195.856,509.552 194.5,515.5C 192.76,525.086 191.76,534.752 191.5,544.5C 189.932,551.628 188.765,558.962 188,566.5C 187.131,569.763 185.797,570.096 184,567.5C 180.488,554.073 178.322,540.406 177.5,526.5C 177.832,517.475 177.498,508.475 176.5,499.5C 173.437,504.022 171.77,509.022 171.5,514.5C 169.286,522.359 167.12,530.359 165,538.5C 164.333,539.833 163.667,539.833 163,538.5C 161.976,535.865 161.143,533.198 160.5,530.5C 160.24,516.804 160.573,503.137 161.5,489.5C 162.091,477.901 163.425,466.401 165.5,455C 165.333,453.167 165.167,451.333 165,449.5C 162.91,448.209 161.576,448.876 161,451.5C 157.249,464.268 153.249,476.935 149,489.5C 148.313,491.555 147.146,493.221 145.5,494.5C 144.522,494.023 143.689,493.357 143,492.5C 143.565,457.545 149.065,423.378 159.5,390C 159.167,389.167 158.833,388.333 158.5,387.5C 152.088,393.093 146.921,399.76 143,407.5C 141.649,409.019 140.149,410.352 138.5,411.5C 137.914,411.291 137.414,410.957 137,410.5C 141.037,379.723 150.703,350.723 166,323.5C 199.619,267.773 249.119,242.94 314.5,249C 347.768,251.079 376.768,263.079 401.5,285C 434.821,320.255 454.321,362.088 460,410.5C 459.282,411.451 458.449,411.617 457.5,411C 452.63,404.761 448.13,398.261 444,391.5C 442.429,389.077 440.263,387.744 437.5,387.5C 441.481,403.758 445.314,420.091 449,436.5C 452.154,455.058 453.821,473.725 454,492.5C 453.047,494.592 451.714,494.925 450,493.5C 445.114,480.383 440.781,467.05 437,453.5C 436.313,451.445 435.146,449.779 433.5,448.5C 432.914,448.709 432.414,449.043 432,449.5C 432.361,461.697 433.528,473.697 435.5,485.5 Z"/></g>
<g><path style="opacity:1" fill="#010202" d="M 288.5,274.5 C 305.314,273.031 321.314,275.864 336.5,283C 346.1,290.123 349.6,299.623 347,311.5C 340.958,327.872 329.458,338.372 312.5,343C 290.267,347.476 271.767,340.976 257,323.5C 245.218,300.238 251.718,284.738 276.5,277C 280.665,276.295 284.665,275.461 288.5,274.5 Z"/></g>
<g><path style="opacity:1" fill="#060505" d="M 348.5,404.5 C 348.5,398.833 348.5,393.167 348.5,387.5C 332.717,385.432 316.883,383.765 301,382.5C 284.188,384.424 267.355,386.09 250.5,387.5C 250.5,392.833 250.5,398.167 250.5,403.5C 247.62,396.888 246.453,389.888 247,382.5C 247.833,381.5 248.667,380.5 249.5,379.5C 265.216,374.387 281.383,372.054 298,372.5C 309.55,372.643 321.05,373.476 332.5,375C 338.37,375.806 344.037,377.306 349.5,379.5C 351.919,381.586 352.919,384.253 352.5,387.5C 352.33,393.567 350.997,399.233 348.5,404.5 Z"/></g>
<g><path style="opacity:1" fill="#f19c9f" d="M 347.5,404.5 C 345.897,420.985 343.23,437.318 339.5,453.5C 337.926,455.102 337.259,457.102 337.5,459.5C 334.584,465.054 331.75,470.721 329,476.5C 325.502,479.001 323.169,482.335 322,486.5C 319.937,488.734 317.771,490.734 315.5,492.5C 312.141,493.174 309.141,494.508 306.5,496.5C 301.12,496.676 295.787,496.342 290.5,495.5C 287.835,493.501 284.835,492.001 281.5,491C 270.131,479.285 262.297,465.452 258,449.5C 255.011,434.248 252.844,418.915 251.5,403.5C 251.5,398.5 251.5,393.5 251.5,388.5C 258.175,388.666 264.842,388.5 271.5,388C 277.167,387 282.833,386 288.5,385C 292.833,384.833 297.167,384.667 301.5,384.5C 316.834,385.872 332.167,387.206 347.5,388.5C 347.5,393.833 347.5,399.167 347.5,404.5 Z"/></g>
<g><path style="opacity:1" fill="#db8e90" d="M 348.5,404.5 C 348.167,404.5 347.833,404.5 347.5,404.5C 347.5,399.167 347.5,393.833 347.5,388.5C 332.167,387.206 316.834,385.872 301.5,384.5C 297.167,384.667 292.833,384.833 288.5,385C 282.833,386 277.167,387 271.5,388C 264.842,388.5 258.175,388.666 251.5,388.5C 251.5,393.5 251.5,398.5 251.5,403.5C 251.167,403.5 250.833,403.5 250.5,403.5C 250.5,398.167 250.5,392.833 250.5,387.5C 267.355,386.09 284.188,384.424 301,382.5C 316.883,383.765 332.717,385.432 348.5,387.5C 348.5,393.167 348.5,398.833 348.5,404.5 Z"/></g>
<g><path style="opacity:1" fill="#8a6a6a" d="M 347.5,404.5 C 347.833,404.5 348.167,404.5 348.5,404.5C 348.042,420.51 345.709,436.177 341.5,451.5C 340.818,452.243 340.151,452.909 339.5,453.5C 343.23,437.318 345.897,420.985 347.5,404.5 Z"/></g>
<g><path style="opacity:1" fill="#896c6c" d="M 337.5,459.5 C 334.805,472.37 328.472,483.204 318.5,492C 317.552,492.483 316.552,492.649 315.5,492.5C 317.771,490.734 319.937,488.734 322,486.5C 323.169,482.335 325.502,479.001 329,476.5C 331.75,470.721 334.584,465.054 337.5,459.5 Z"/></g>
<g><path style="opacity:1" fill="#252525" d="M 476.5,516.5 C 476.631,517.239 476.464,517.906 476,518.5C 462.145,509.649 449.145,499.649 437,488.5C 436.536,489.094 436.369,489.761 436.5,490.5C 435.549,489.081 435.216,487.415 435.5,485.5C 448.045,496.632 461.712,506.965 476.5,516.5 Z"/></g>
<g><path style="opacity:1" fill="#242424" d="M 161.5,489.5 C 160.573,503.137 160.24,516.804 160.5,530.5C 159.669,518.34 159.169,506.007 159,493.5C 148.51,502.992 137.177,511.325 125,518.5C 124.536,517.906 124.369,517.239 124.5,516.5C 137.674,508.66 150.008,499.66 161.5,489.5 Z"/></g>
<g><path style="opacity:1" fill="#484746" d="M 206.5,507.5 C 204.482,503.684 202.649,499.684 201,495.5C 198.848,502.101 197.015,508.768 195.5,515.5C 195.167,515.5 194.833,515.5 194.5,515.5C 195.856,509.552 197.023,503.552 198,497.5C 200.774,492.182 203.107,492.516 205,498.5C 205.502,501.513 206.002,504.513 206.5,507.5 Z"/></g>
<g><path style="opacity:1" fill="#484746" d="M 401.5,510.5 C 400.883,510.389 400.383,510.056 400,509.5C 399.287,504.648 397.954,499.981 396,495.5C 395.114,498.093 393.614,500.093 391.5,501.5C 392.176,499.141 393.009,496.808 394,494.5C 395.183,493.269 396.349,493.269 397.5,494.5C 399.899,499.559 401.233,504.893 401.5,510.5 Z"/></g>
<g><path style="opacity:1" fill="#9c6c6d" d="M 290.5,495.5 C 295.787,496.342 301.12,496.676 306.5,496.5C 302.019,497.648 297.352,497.815 292.5,497C 291.584,496.722 290.918,496.222 290.5,495.5 Z"/></g>
<g><path style="opacity:1" fill="#464544" d="M 426.5,517.5 C 425.13,513.571 423.63,509.571 422,505.5C 421.669,512.044 420.835,518.377 419.5,524.5C 419.169,516.14 419.502,507.807 420.5,499.5C 424.272,504.815 426.272,510.815 426.5,517.5 Z"/></g>
<g><path style="opacity:1" fill="#252525" d="M 442.5,500.5 C 452.395,508.556 462.729,516.056 473.5,523C 475.134,523.494 476.801,523.66 478.5,523.5C 480.272,534.32 482.772,544.987 486,555.5C 486.667,557.5 486.667,559.5 486,561.5C 472.445,549.735 461.779,535.735 454,519.5C 453,518.167 452,518.167 451,519.5C 450.333,524.167 450.333,528.833 451,533.5C 454.039,548.316 457.372,562.982 461,577.5C 451.23,567.902 442.397,557.569 434.5,546.5C 439.121,543.551 441.621,539.217 442,533.5C 442.5,522.505 442.667,511.505 442.5,500.5 Z"/></g>
<g><path style="opacity:1" fill="#252525" d="M 153.5,504.5 C 154.149,515.366 154.982,526.366 156,537.5C 157.476,544.21 161.31,546.877 167.5,545.5C 159.43,556.461 150.764,566.961 141.5,577C 140.517,577.591 139.85,577.257 139.5,576C 143.278,564.332 146.445,552.499 149,540.5C 150.331,533.541 150.664,526.541 150,519.5C 149.586,519.043 149.086,518.709 148.5,518.5C 143.165,527.841 137.332,536.841 131,545.5C 126.333,551.5 121,556.833 115,561.5C 117.013,549.108 119.513,536.775 122.5,524.5C 133.987,519.592 144.321,512.925 153.5,504.5 Z"/></g>
<g><path style="opacity:1" fill="#373736" d="M 177.5,526.5 C 176.671,518.677 176.171,510.677 176,502.5C 174.485,506.61 172.985,510.61 171.5,514.5C 171.77,509.022 173.437,504.022 176.5,499.5C 177.498,508.475 177.832,517.475 177.5,526.5 Z"/></g>
<g><path style="opacity:1" fill="#262626" d="M 401.5,511.5 C 404.029,521.21 405.362,531.21 405.5,541.5C 403.69,531.699 402.357,521.699 401.5,511.5 Z"/></g>
<g><path style="opacity:1" fill="#252525" d="M 200.5,517.5 C 201.65,522.316 201.816,527.316 201,532.5C 200.333,533.833 199.667,535.167 199,536.5C 198.62,530.107 199.12,523.774 200.5,517.5 Z"/></g>
<g><path style="opacity:1" fill="#272727" d="M 436.5,504.5 C 437.166,508.988 437.499,513.654 437.5,518.5C 437.716,525.08 437.049,531.413 435.5,537.5C 436.351,526.523 436.684,515.523 436.5,504.5 Z"/></g>
<g><path style="opacity:1" fill="#222222" d="M 194.5,515.5 C 194.833,515.5 195.167,515.5 195.5,515.5C 194.301,525.321 192.968,534.988 191.5,544.5C 191.76,534.752 192.76,525.086 194.5,515.5 Z"/></g>
<g><path style="opacity:1" fill="#232323" d="M 223.5,530.5 C 222.883,530.389 222.383,530.056 222,529.5C 221.33,536.062 220.163,542.396 218.5,548.5C 219.673,537.128 221.173,525.795 223,514.5C 223.499,519.823 223.666,525.156 223.5,530.5 Z"/></g>
</svg>
