<?xml version="1.0" encoding="UTF-8"?>
<!DOCTYPE svg PUBLIC "-//W3C//DTD SVG 1.1//EN" "http://www.w3.org/Graphics/SVG/1.1/DTD/svg11.dtd">
<svg xmlns="http://www.w3.org/2000/svg" version="1.1" width="600px" height="600px" style="shape-rendering:geometricPrecision; text-rendering:geometricPrecision; image-rendering:optimizeQuality; fill-rule:evenodd; clip-rule:evenodd" xmlns:xlink="http://www.w3.org/1999/xlink">
<g><path style="opacity:0.952" fill="#010000" d="M 135.5,-0.5 C 138.5,-0.5 141.5,-0.5 144.5,-0.5C 148.278,1.89244 152.278,4.0591 156.5,6C 168.068,9.74444 179.401,14.0778 190.5,19C 193.89,19.2463 197.223,19.7463 200.5,20.5C 261.653,1.10234 322.987,0.602342 384.5,19C 388.689,19.3355 392.856,19.8355 397,20.5C 400.812,19.8541 404.646,19.3541 408.5,19C 421.343,13.6075 434.343,8.60754 447.5,4C 449.898,2.47576 452.231,0.97576 454.5,-0.5C 457.5,-0.5 460.5,-0.5 463.5,-0.5C 469.601,3.60448 472.268,9.27115 471.5,16.5C 478.825,18.8271 482.158,23.8271 481.5,31.5C 512.871,44.5954 541.038,62.5954 566,85.5C 572.431,94.3128 574.098,103.98 571,114.5C 561.167,128.828 551.834,143.495 543,158.5C 536.199,170.932 530.366,183.766 525.5,197C 542.047,209.536 554.88,225.036 564,243.5C 568.723,253.019 566.223,259.519 556.5,263C 564.509,269.667 571.009,277.5 576,286.5C 579.039,292.997 579.706,299.664 578,306.5C 574.142,311.837 569.309,313.171 563.5,310.5C 564.182,329.85 561.682,348.85 556,367.5C 548.943,375.303 542.443,374.637 536.5,365.5C 535.522,365.977 534.689,366.643 534,367.5C 524.53,392.911 514.863,418.245 505,443.5C 495.375,466.103 481.541,485.603 463.5,502C 457.394,506.969 450.561,510.469 443,512.5C 440.849,512.227 438.849,511.561 437,510.5C 430.333,518.5 423.667,526.5 417,534.5C 408.754,542.75 399.921,550.25 390.5,557C 388.341,557.912 386.175,558.745 384,559.5C 381.115,558.409 378.281,557.575 375.5,557C 355.571,576.759 332.238,590.926 305.5,599.5C 299.833,599.5 294.167,599.5 288.5,599.5C 260.44,591.72 236.273,577.387 216,556.5C 212.303,559.063 208.47,559.563 204.5,558C 185.957,545.124 170.457,529.29 158,510.5C 154.193,513.726 150.027,514.226 145.5,512C 120.634,493.786 102.468,470.286 91,441.5C 81.2699,416.309 71.9366,390.976 63,365.5C 56.2975,374.779 49.6308,374.779 43,365.5C 37.1321,347.55 34.6321,329.217 35.5,310.5C 26.0635,312.572 21.0635,308.738 20.5,299C 21.4939,289.182 25.3272,280.682 32,273.5C 35.5,270 39,266.5 42.5,263C 36.0622,262.226 32.7288,258.56 32.5,252C 35.7758,240.28 41.2758,229.78 49,220.5C 56.5368,211.965 64.3701,203.798 72.5,196C 68.2367,182.972 62.7367,170.472 56,158.5C 47.3943,144.231 38.3943,130.231 29,116.5C 24.6291,104.863 26.2957,94.1964 34,84.5C 40.2066,78.6245 46.7066,73.1245 53.5,68C 73.2229,53.7994 94.2229,41.6327 116.5,31.5C 117.021,23.1452 121.354,17.9785 129.5,16C 127.256,8.89433 129.256,3.39433 135.5,-0.5 Z"/></g>
<g><path style="opacity:1" fill="#27211d" d="M 201.5,30.5 C 191.436,35.3667 181.436,40.5334 171.5,46C 163.074,46.95 155.074,49.2834 147.5,53C 146.643,53.6891 145.977,54.5224 145.5,55.5C 147.761,57.4554 149.761,59.622 151.5,62C 148.18,65.9887 144.847,69.9887 141.5,74C 128.833,80 116.167,86 103.5,92C 100.705,93.7932 98.2047,95.9598 96,98.5C 95.1349,100.888 95.9683,102.388 98.5,103C 102.093,102.255 105.76,101.922 109.5,102C 111.988,104.627 112.155,107.46 110,110.5C 101.037,122.152 93.7038,134.819 88,148.5C 85.985,161.504 89.8184,163.671 99.5,155C 106.76,153.967 109.593,157.133 108,164.5C 105.347,174.086 103.013,183.752 101,193.5C 100.015,194.814 98.8484,195.814 97.5,196.5C 94.1667,196.5 90.8333,196.5 87.5,196.5C 86.1667,195.067 84.6667,193.733 83,192.5C 72.198,163.885 57.5313,137.551 39,113.5C 35.4733,105.591 36.4733,98.2577 42,91.5C 63.8573,72.8123 87.6906,56.979 113.5,44C 119.915,41.5284 126.248,38.8617 132.5,36C 133.357,35.3109 134.023,34.4776 134.5,33.5C 132.807,31.9733 130.973,30.6399 129,29.5C 128.383,28.5509 128.549,27.7175 129.5,27C 134.843,26.8539 140.176,26.8539 145.5,27C 145.957,26.586 146.291,26.086 146.5,25.5C 143.449,21.2313 140.782,16.7313 138.5,12C 138.613,10.7202 139.28,9.88691 140.5,9.5C 143.673,11.5872 147.006,13.4205 150.5,15C 164.066,19.4104 177.399,24.4104 190.5,30C 194.152,30.4986 197.818,30.6653 201.5,30.5 Z"/></g>
<g><path style="opacity:1" fill="#27211d" d="M 509.5,196.5 C 501.372,196.568 494.039,194.235 487.5,189.5C 483.277,179.603 481.443,169.27 482,158.5C 483.296,156.185 485.296,155.185 488,155.5C 491.747,156.121 495.247,157.454 498.5,159.5C 499.192,158.975 499.692,158.308 500,157.5C 500.667,154.5 500.667,151.5 500,148.5C 492.901,132.634 485.068,117.3 476.5,102.5C 481.844,102.666 487.177,102.499 492.5,102C 493.672,100.132 493.505,98.2983 492,96.5C 477.805,87.8188 462.971,80.3188 447.5,74C 443.607,70.61 440.273,66.7767 437.5,62.5C 439.008,60.4925 440.842,58.8259 443,57.5C 443.711,55.6332 443.211,54.1332 441.5,53C 433.731,48.9076 425.397,46.5743 416.5,46C 407.058,40.2808 397.391,35.1141 387.5,30.5C 396.647,31.0457 405.647,30.2123 414.5,28C 430.008,22.0726 445.342,15.9059 460.5,9.5C 459.44,15.6204 456.773,20.9537 452.5,25.5C 452.709,26.086 453.043,26.586 453.5,27C 459.203,26.6044 464.869,26.771 470.5,27.5C 470.833,27.8333 471.167,28.1667 471.5,28.5C 469.167,30.3333 466.833,32.1667 464.5,34C 492.702,46.7645 519.369,62.0979 544.5,80C 552.601,85.423 558.434,92.5897 562,101.5C 562.277,106.399 561.277,111.065 559,115.5C 540.808,138.872 526.475,164.539 516,192.5C 513.905,194.125 511.739,195.458 509.5,196.5 Z"/></g>
<g><path style="opacity:1" fill="#39302a" d="M 387.5,30.5 C 397.391,35.1141 407.058,40.2808 416.5,46C 425.397,46.5743 433.731,48.9076 441.5,53C 443.211,54.1332 443.711,55.6332 443,57.5C 440.842,58.8259 439.008,60.4925 437.5,62.5C 440.273,66.7767 443.607,70.61 447.5,74C 462.971,80.3188 477.805,87.8188 492,96.5C 493.505,98.2983 493.672,100.132 492.5,102C 487.177,102.499 481.844,102.666 476.5,102.5C 485.068,117.3 492.901,132.634 500,148.5C 500.667,151.5 500.667,154.5 500,157.5C 499.692,158.308 499.192,158.975 498.5,159.5C 495.247,157.454 491.747,156.121 488,155.5C 485.296,155.185 483.296,156.185 482,158.5C 481.443,169.27 483.277,179.603 487.5,189.5C 487.062,189.435 486.728,189.601 486.5,190C 489.691,196.107 491.691,202.607 492.5,209.5C 492.596,211.926 491.93,214.093 490.5,216C 496.02,220.856 500.853,226.356 505,232.5C 509.682,242.817 507.182,244.984 497.5,239C 495.866,238.506 494.199,238.34 492.5,238.5C 492.337,240.857 492.503,243.19 493,245.5C 498.667,251.833 504.333,258.167 510,264.5C 513.466,268.796 516.299,273.462 518.5,278.5C 518.42,280.33 517.587,281.663 516,282.5C 512.333,280.833 508.667,279.167 505,277.5C 504.228,277.645 503.561,277.978 503,278.5C 503.546,293.81 503.546,309.144 503,324.5C 502.259,327.339 500.593,329.339 498,330.5C 495.53,327.194 492.363,324.86 488.5,323.5C 486.272,324.219 484.439,325.552 483,327.5C 479.336,340.155 475.669,352.822 472,365.5C 469.811,369.022 466.978,371.855 463.5,374C 458.54,403.252 444.206,426.585 420.5,444C 418.655,445.128 416.655,445.628 414.5,445.5C 417.628,432.467 415.128,430.8 407,440.5C 398.99,455.342 388.49,468.175 375.5,479C 372.583,481.431 369.25,482.598 365.5,482.5C 365.507,479.962 365.841,477.462 366.5,475C 366.167,474.167 365.833,473.333 365.5,472.5C 360.134,477.7 355.301,483.367 351,489.5C 347.595,492.784 344.095,495.95 340.5,499C 325.654,506.84 310.487,514.006 295,520.5C 284.922,514.911 274.422,510.077 263.5,506C 258.999,503.584 254.666,500.917 250.5,498C 242.696,490.042 235.363,481.709 228.5,473C 227.4,472.568 226.733,473.068 226.5,474.5C 227.269,477.115 227.603,479.781 227.5,482.5C 223.386,482.251 219.72,480.751 216.5,478C 212.333,473.833 208.167,469.667 204,465.5C 196.888,454.722 189.388,444.222 181.5,434C 181.167,433.833 180.833,433.667 180.5,433.5C 180.167,434.5 179.833,435.5 179.5,436.5C 180.162,439.468 180.495,442.468 180.5,445.5C 176.562,445.365 173.228,443.865 170.5,441C 149.804,423.112 137.304,400.612 133,373.5C 128.947,371.113 125.947,367.78 124,363.5C 121.335,352.841 118.669,342.174 116,331.5C 114.93,328.758 113.43,326.258 111.5,324C 106.299,323.769 102.299,325.936 99.5,330.5C 97.8035,329.636 96.6368,328.303 96,326.5C 94.9062,319.06 94.4062,311.56 94.5,304C 94.7936,295.478 94.9602,286.978 95,278.5C 94.4387,277.978 93.772,277.645 93,277.5C 89.5117,278.911 86.1783,280.577 83,282.5C 81.1147,282.138 80.2814,280.971 80.5,279C 86.7383,267.412 94.5716,256.912 104,247.5C 105.289,244.649 105.789,241.649 105.5,238.5C 100.88,239.799 96.2134,241.132 91.5,242.5C 91.1604,238.869 91.9937,235.536 94,232.5C 97.6418,227.358 101.475,222.358 105.5,217.5C 105.113,216.28 104.28,215.613 103,215.5C 97.3237,218.011 94.9903,216.344 96,210.5C 97.3084,206.715 98.475,202.881 99.5,199C 99.3158,197.624 98.6491,196.791 97.5,196.5C 98.8484,195.814 100.015,194.814 101,193.5C 103.013,183.752 105.347,174.086 108,164.5C 109.593,157.133 106.76,153.967 99.5,155C 89.8184,163.671 85.985,161.504 88,148.5C 93.7038,134.819 101.037,122.152 110,110.5C 112.155,107.46 111.988,104.627 109.5,102C 105.76,101.922 102.093,102.255 98.5,103C 95.9683,102.388 95.1349,100.888 96,98.5C 98.2047,95.9598 100.705,93.7932 103.5,92C 116.167,86 128.833,80 141.5,74C 144.847,69.9887 148.18,65.9887 151.5,62C 149.761,59.622 147.761,57.4554 145.5,55.5C 145.977,54.5224 146.643,53.6891 147.5,53C 155.074,49.2834 163.074,46.95 171.5,46C 181.436,40.5334 191.436,35.3667 201.5,30.5C 247.956,15.9588 295.289,12.4588 343.5,20C 358.403,22.5592 373.07,26.0592 387.5,30.5 Z"/></g>
<g><path style="opacity:1" fill="#030302" d="M 366.5,427.5 C 359.167,427.5 351.833,427.5 344.5,427.5C 340.903,444.261 330.569,454.094 313.5,457C 303.5,457.667 293.5,457.667 283.5,457C 267.54,453.208 257.874,443.375 254.5,427.5C 245.833,427.5 237.167,427.5 228.5,427.5C 223.954,427.732 219.621,426.899 215.5,425C 208.914,422.254 202.914,418.587 197.5,414C 183.337,400.869 174.837,384.702 172,365.5C 170.87,347.98 171.536,330.646 174,313.5C 179.243,301.724 180.91,289.391 179,276.5C 177.606,271.289 175.273,266.623 172,262.5C 166.333,256.833 160.667,251.167 155,245.5C 147.629,234.739 143.296,222.739 142,209.5C 139.972,188.067 144.306,168.067 155,149.5C 158.333,144.833 161.667,140.167 165,135.5C 186.417,111.735 212.584,95.902 243.5,88C 253.5,87.3333 263.5,87.3333 273.5,88C 277.655,89.2007 281.655,90.7007 285.5,92.5C 286.7,91.4688 288.034,90.6355 289.5,90C 297.473,88.807 305.14,89.6403 312.5,92.5C 320.701,87.9089 329.535,85.9089 339,86.5C 350.852,86.7836 362.352,88.9503 373.5,93C 379.244,96.2045 385.244,98.8711 391.5,101C 400.167,107 408.833,113 417.5,119C 423.667,125.167 429.833,131.333 436,137.5C 440.667,144.833 445.333,152.167 450,159.5C 462.96,189.398 460.96,218.065 444,245.5C 435.524,252.967 428.19,261.3 422,270.5C 420.964,280.649 420.131,290.815 419.5,301C 423.028,315.337 425.028,329.837 425.5,344.5C 425.467,357.761 423.634,370.761 420,383.5C 412.887,399.295 402.054,412.128 387.5,422C 380.635,424.437 373.635,426.271 366.5,427.5 Z"/></g>
<g><path style="opacity:1" fill="#705b46" d="M 350.5,97.5 C 361.302,100.882 371.969,104.882 382.5,109.5C 393.511,116.674 404.178,124.34 414.5,132.5C 429.832,146.818 440.332,164.152 446,184.5C 449.877,204.32 445.877,222.32 434,238.5C 425.531,246.63 418.198,255.63 412,265.5C 410.683,271.757 410.183,278.091 410.5,284.5C 409.677,287.977 409.177,291.644 409,295.5C 408.457,297.631 407.624,299.631 406.5,301.5C 397.596,279.102 383.596,260.602 364.5,246C 351.173,238.338 339.34,228.838 329,217.5C 316.869,199.437 310.536,179.437 310,157.5C 309.732,143.436 309.065,129.436 308,115.5C 311.561,107.606 317.395,102.106 325.5,99C 333.764,97.6301 342.097,97.1301 350.5,97.5 Z"/></g>
<g><path style="opacity:1" fill="#6f5a46" d="M 287.5,108.5 C 288.615,110.307 289.281,112.307 289.5,114.5C 288.169,138.967 285.669,163.3 282,187.5C 277.756,205.084 268.59,219.584 254.5,231C 238.897,240.261 224.73,251.428 212,264.5C 204.667,273.824 198.334,283.824 193,294.5C 192.148,293.429 191.315,292.429 190.5,291.5C 189.672,285.013 189.172,278.346 189,271.5C 188,268.167 187,264.833 186,261.5C 184.25,259.266 182.75,256.932 181.5,254.5C 177.527,248.86 172.861,243.86 167.5,239.5C 157.042,228.445 151.709,215.112 151.5,199.5C 154.309,170.214 167.309,146.547 190.5,128.5C 208.39,113.555 228.723,103.388 251.5,98C 265.334,95.6209 277.334,99.1209 287.5,108.5 Z"/></g>
<g><path style="opacity:1" fill="#27211d" d="M 350.5,97.5 C 342.097,97.1301 333.764,97.6301 325.5,99C 317.395,102.106 311.561,107.606 308,115.5C 309.065,129.436 309.732,143.436 310,157.5C 310.536,179.437 316.869,199.437 329,217.5C 339.34,228.838 351.173,238.338 364.5,246C 383.596,260.602 397.596,279.102 406.5,301.5C 407.624,299.631 408.457,297.631 409,295.5C 409.177,291.644 409.677,287.977 410.5,284.5C 410.955,291.884 409.955,299.051 407.5,306C 424.548,346.831 416.214,381.164 382.5,409C 379.242,411.461 375.575,413.127 371.5,414C 370.643,414.689 369.977,415.522 369.5,416.5C 358.509,417.453 347.509,417.453 336.5,416.5C 336.737,417.791 336.404,418.791 335.5,419.5C 335.884,417.071 336.551,414.737 337.5,412.5C 326.952,407.893 316.619,402.726 306.5,397C 300.054,394.877 293.72,395.211 287.5,398C 278.672,402.58 270.005,407.413 261.5,412.5C 262.372,414.45 263.039,416.45 263.5,418.5C 262.166,416.841 260.499,415.508 258.5,414.5C 252.288,417.014 245.788,418.014 239,417.5C 232.318,417.525 225.818,416.525 219.5,414.5C 216.945,413.056 214.279,411.889 211.5,411C 204.973,404.473 198.473,397.973 192,391.5C 181.179,367.781 178.679,343.115 184.5,317.5C 186.587,315.255 187.921,312.588 188.5,309.5C 189.694,303.557 190.361,297.557 190.5,291.5C 191.315,292.429 192.148,293.429 193,294.5C 198.334,283.824 204.667,273.824 212,264.5C 224.73,251.428 238.897,240.261 254.5,231C 268.59,219.584 277.756,205.084 282,187.5C 285.669,163.3 288.169,138.967 289.5,114.5C 289.281,112.307 288.615,110.307 287.5,108.5C 289.199,108.66 290.866,108.494 292.5,108C 293.583,104.752 295.583,102.252 298.5,100.5C 300.667,102.167 302.833,103.833 305,105.5C 305.265,107.651 306.265,109.318 308,110.5C 319.378,97.2775 333.545,92.9441 350.5,97.5 Z"/></g>
<g><path style="opacity:1" fill="#251f1b" d="M 382.5,109.5 C 394.587,115.208 405.253,122.875 414.5,132.5C 404.178,124.34 393.511,116.674 382.5,109.5 Z"/></g>
<g><path style="opacity:1" fill="#29221e" d="M 342.5,130.5 C 347.93,130.161 353.264,130.661 358.5,132C 364.244,136.705 363.577,140.371 356.5,143C 351.791,149.376 346.125,154.709 339.5,159C 333.543,160.054 330.043,157.554 329,151.5C 326.826,144.036 328.993,138.203 335.5,134C 337.925,132.787 340.259,131.621 342.5,130.5 Z"/></g>
<g><path style="opacity:1" fill="#29221e" d="M 236.5,131.5 C 246.282,129.645 254.448,132.312 261,139.5C 263.301,146.987 262.134,153.82 257.5,160C 254.002,161.967 250.668,161.633 247.5,159C 243.188,155.019 239.188,150.686 235.5,146C 226.021,140.549 226.354,135.715 236.5,131.5 Z"/></g>
<g><path style="opacity:1" fill="#342015" d="M 216.5,163.5 C 234.268,164.768 243.935,174.268 245.5,192C 243.06,212.766 231.394,222.1 210.5,220C 191.871,212.909 185.371,199.742 191,180.5C 196.526,170.167 205.026,164.501 216.5,163.5 Z"/></g>
<g><path style="opacity:1" fill="#342015" d="M 376.5,163.5 C 400.214,163.377 411.381,175.044 410,198.5C 404.33,214.923 392.83,222.089 375.5,220C 359.154,214.366 351.988,202.866 354,185.5C 357.779,174.223 365.279,166.889 376.5,163.5 Z"/></g>
<g><path style="opacity:1" fill="#010100" d="M 210.5,173.5 C 229.849,171.946 238.016,180.613 235,199.5C 229.431,210.025 220.931,213.525 209.5,210C 198.235,203.156 195.401,193.656 201,181.5C 203.772,178.217 206.939,175.55 210.5,173.5 Z"/></g>
<g><path style="opacity:1" fill="#020101" d="M 375.5,173.5 C 390.279,171.482 398.945,177.649 401.5,192C 398.36,208.738 388.693,214.405 372.5,209C 362.115,201.742 359.948,192.575 366,181.5C 368.772,178.217 371.939,175.55 375.5,173.5 Z"/></g>
<g><path style="opacity:1" fill="#ebebeb" d="M 221.5,179.5 C 228.745,179.555 230.745,182.722 227.5,189C 222.643,190.753 219.643,189.253 218.5,184.5C 219.092,182.577 220.092,180.911 221.5,179.5 Z"/></g>
<g><path style="opacity:1" fill="#f1f1f1" d="M 385.5,179.5 C 393.021,179.39 395.021,182.557 391.5,189C 383.424,189.805 381.424,186.638 385.5,179.5 Z"/></g>
<g><path style="opacity:1" fill="#4b3e31" d="M 487.5,189.5 C 494.039,194.235 501.372,196.568 509.5,196.5C 520.407,205.903 530.907,215.903 541,226.5C 547.666,234.167 552.499,242.833 555.5,252.5C 549.494,251.165 543.494,249.832 537.5,248.5C 538.156,255.812 540.99,262.146 546,267.5C 551,272.5 556,277.5 561,282.5C 563.852,286.204 566.185,290.204 568,294.5C 568.667,296.833 568.667,299.167 568,301.5C 562.415,299.146 556.581,297.812 550.5,297.5C 554.08,318.788 552.913,339.788 547,360.5C 540.095,352.519 533.095,352.519 526,360.5C 523.473,364.221 521.473,368.221 520,372.5C 510.764,401.212 499.764,429.212 487,456.5C 478.382,472.452 466.882,485.952 452.5,497C 449.52,499.324 446.187,500.824 442.5,501.5C 442.49,496.085 441.823,490.752 440.5,485.5C 426.069,510.432 407.236,531.432 384,548.5C 383.329,543.8 382.496,539.134 381.5,534.5C 361.054,561.068 334.721,579.234 302.5,589C 298.5,589.667 294.5,589.667 290.5,589C 258.452,579.731 232.285,561.898 212,535.5C 211.737,540.005 210.737,544.339 209,548.5C 186.698,531.534 168.698,510.868 155,486.5C 153.393,491.819 151.893,497.152 150.5,502.5C 129.183,486.881 113.35,466.881 103,442.5C 92.1528,416.628 82.4862,390.294 74,363.5C 70.6015,355.383 64.7681,352.549 56.5,355C 54.981,356.351 53.6477,357.851 52.5,359.5C 48.1395,348.111 46.1395,336.278 46.5,324C 46.4379,315.166 47.4379,306.5 49.5,298C 46.1667,297.333 42.8333,297.333 39.5,298C 36.9036,299.136 34.237,299.969 31.5,300.5C 31.1778,296.253 32.0111,292.253 34,288.5C 42.3773,279.125 50.3773,269.458 58,259.5C 59.5617,255.986 60.395,252.319 60.5,248.5C 55.1631,249.702 49.8298,251.035 44.5,252.5C 44.1667,252 43.8333,251.5 43.5,251C 47.4326,240.295 53.2659,230.795 61,222.5C 69.7285,213.604 78.5618,204.937 87.5,196.5C 90.8333,196.5 94.1667,196.5 97.5,196.5C 98.6491,196.791 99.3158,197.624 99.5,199C 98.475,202.881 97.3084,206.715 96,210.5C 94.9903,216.344 97.3237,218.011 103,215.5C 104.28,215.613 105.113,216.28 105.5,217.5C 101.475,222.358 97.6418,227.358 94,232.5C 91.9937,235.536 91.1604,238.869 91.5,242.5C 96.2134,241.132 100.88,239.799 105.5,238.5C 105.789,241.649 105.289,244.649 104,247.5C 94.5716,256.912 86.7383,267.412 80.5,279C 80.2814,280.971 81.1147,282.138 83,282.5C 86.1783,280.577 89.5117,278.911 93,277.5C 93.772,277.645 94.4387,277.978 95,278.5C 94.9602,286.978 94.7936,295.478 94.5,304C 94.4062,311.56 94.9062,319.06 96,326.5C 96.6368,328.303 97.8035,329.636 99.5,330.5C 102.299,325.936 106.299,323.769 111.5,324C 113.43,326.258 114.93,328.758 116,331.5C 118.669,342.174 121.335,352.841 124,363.5C 125.947,367.78 128.947,371.113 133,373.5C 137.304,400.612 149.804,423.112 170.5,441C 173.228,443.865 176.562,445.365 180.5,445.5C 180.495,442.468 180.162,439.468 179.5,436.5C 179.833,435.5 180.167,434.5 180.5,433.5C 180.833,433.667 181.167,433.833 181.5,434C 189.388,444.222 196.888,454.722 204,465.5C 208.167,469.667 212.333,473.833 216.5,478C 219.72,480.751 223.386,482.251 227.5,482.5C 227.603,479.781 227.269,477.115 226.5,474.5C 226.733,473.068 227.4,472.568 228.5,473C 235.363,481.709 242.696,490.042 250.5,498C 254.666,500.917 258.999,503.584 263.5,506C 274.422,510.077 284.922,514.911 295,520.5C 310.487,514.006 325.654,506.84 340.5,499C 344.095,495.95 347.595,492.784 351,489.5C 355.301,483.367 360.134,477.7 365.5,472.5C 365.833,473.333 366.167,474.167 366.5,475C 365.841,477.462 365.507,479.962 365.5,482.5C 369.25,482.598 372.583,481.431 375.5,479C 388.49,468.175 398.99,455.342 407,440.5C 415.128,430.8 417.628,432.467 414.5,445.5C 416.655,445.628 418.655,445.128 420.5,444C 444.206,426.585 458.54,403.252 463.5,374C 466.978,371.855 469.811,369.022 472,365.5C 475.669,352.822 479.336,340.155 483,327.5C 484.439,325.552 486.272,324.219 488.5,323.5C 492.363,324.86 495.53,327.194 498,330.5C 500.593,329.339 502.259,327.339 503,324.5C 503.546,309.144 503.546,293.81 503,278.5C 503.561,277.978 504.228,277.645 505,277.5C 508.667,279.167 512.333,280.833 516,282.5C 517.587,281.663 518.42,280.33 518.5,278.5C 516.299,273.462 513.466,268.796 510,264.5C 504.333,258.167 498.667,251.833 493,245.5C 492.503,243.19 492.337,240.857 492.5,238.5C 494.199,238.34 495.866,238.506 497.5,239C 507.182,244.984 509.682,242.817 505,232.5C 500.853,226.356 496.02,220.856 490.5,216C 491.93,214.093 492.596,211.926 492.5,209.5C 491.691,202.607 489.691,196.107 486.5,190C 486.728,189.601 487.062,189.435 487.5,189.5 Z"/></g>
<g><path style="opacity:1" fill="#42362a" d="M 167.5,239.5 C 172.861,243.86 177.527,248.86 181.5,254.5C 176.127,250.129 171.461,245.129 167.5,239.5 Z"/></g>
<g><path style="opacity:1" fill="#000000" d="M 283.5,281.5 C 296.538,281.173 309.538,281.673 322.5,283C 348.763,290.028 357.93,306.528 350,332.5C 336.211,356.978 315.378,367.478 287.5,364C 267.869,358.032 254.369,345.532 247,326.5C 243.141,307.383 249.974,293.883 267.5,286C 272.821,283.941 278.155,282.441 283.5,281.5 Z"/></g>
<g><path style="opacity:1" fill="#ed999c" d="M 335.5,419.5 C 327.673,443.406 311.34,452.24 286.5,446C 274.019,440.877 266.352,431.71 263.5,418.5C 263.039,416.45 262.372,414.45 261.5,412.5C 270.005,407.413 278.672,402.58 287.5,398C 293.72,395.211 300.054,394.877 306.5,397C 316.619,402.726 326.952,407.893 337.5,412.5C 336.551,414.737 335.884,417.071 335.5,419.5 Z"/></g>
<g><path style="opacity:1" fill="#2d2623" d="M 228.5,427.5 C 237.167,427.5 245.833,427.5 254.5,427.5C 257.874,443.375 267.54,453.208 283.5,457C 293.5,457.667 303.5,457.667 313.5,457C 330.569,454.094 340.903,444.261 344.5,427.5C 351.833,427.5 359.167,427.5 366.5,427.5C 360.986,428.167 355.319,428.833 349.5,429.5C 339.787,450.856 323.121,461.856 299.5,462.5C 275.66,461.796 258.994,450.63 249.5,429C 242.321,428.829 235.321,428.329 228.5,427.5 Z"/></g>
</svg>
