<?xml version="1.0" encoding="UTF-8"?>
<!DOCTYPE svg PUBLIC "-//W3C//DTD SVG 1.1//EN" "http://www.w3.org/Graphics/SVG/1.1/DTD/svg11.dtd">
<svg xmlns="http://www.w3.org/2000/svg" version="1.1" width="600px" height="600px" style="shape-rendering:geometricPrecision; text-rendering:geometricPrecision; image-rendering:optimizeQuality; fill-rule:evenodd; clip-rule:evenodd" xmlns:xlink="http://www.w3.org/1999/xlink">
<g><path style="opacity:0.953" fill="#020100" d="M 599.5,308.5 C 599.5,321.167 599.5,333.833 599.5,346.5C 594.789,349.095 589.789,349.928 584.5,349C 583.691,354.973 580.691,359.473 575.5,362.5C 576.939,367.379 577.606,372.379 577.5,377.5C 576.653,387.917 575.153,398.25 573,408.5C 569.535,420.966 562.035,430.132 550.5,436C 543.422,438.47 536.422,441.137 529.5,444C 509.669,467.083 485.836,472.583 458,460.5C 453.592,465.36 448.092,467.36 441.5,466.5C 441.226,473.597 439.393,480.263 436,486.5C 425.762,501.127 413.595,513.96 399.5,525C 386.749,531.625 378.582,528.125 375,514.5C 366.156,522.509 355.989,528.343 344.5,532C 329.789,537.261 314.789,541.427 299.5,544.5C 276.145,540.104 253.811,532.604 232.5,522C 229.37,519.872 226.537,517.372 224,514.5C 221.06,527.839 213.56,531.672 201.5,526C 189.04,517.207 178.207,506.707 169,494.5C 166.083,490.334 163.416,486.001 161,481.5C 159.714,476.904 158.881,472.237 158.5,467.5C 150.856,468.572 145.023,465.905 141,459.5C 121.573,468.377 102.74,467.21 84.5,456C 79.1667,451.333 73.8333,446.667 68.5,442C 57.7149,438.857 47.7149,434.191 38.5,428C 31.2309,420.629 26.7309,411.796 25,401.5C 23.3788,393.228 22.2121,384.895 21.5,376.5C 21.6926,371.072 22.1926,365.738 23,360.5C 21.0448,359.547 19.3782,358.213 18,356.5C 16.6612,353.119 15.3279,349.786 14,346.5C 8.97523,348.554 4.14189,347.887 -0.5,344.5C -0.5,332.167 -0.5,319.833 -0.5,307.5C 3.53373,299.102 7.86706,290.769 12.5,282.5C 3.74783,279.125 0.58116,272.792 3,263.5C 4.91966,254.991 8.91966,247.658 15,241.5C 19.4764,236.934 24.1431,232.601 29,228.5C 32.8196,216.224 36.4862,203.89 40,191.5C 43.0055,183.662 47.8388,177.162 54.5,172C 61.9397,167.558 69.1064,162.725 76,157.5C 78.331,148.516 80.6643,139.516 83,130.5C 88.9003,116.271 99.4003,107.438 114.5,104C 136.718,82.2042 163.385,73.0375 194.5,76.5C 194.744,73.7374 196.077,71.5707 198.5,70C 205.061,68.1793 211.728,66.8459 218.5,66C 223.408,60.8387 229.408,59.172 236.5,61C 240.514,61.7694 244.514,62.6028 248.5,63.5C 258.515,57.3295 269.015,56.3295 280,60.5C 286.673,57.329 293.673,55.329 301,54.5C 308.413,55.0826 315.413,57.0826 322,60.5C 326.486,59.4362 330.986,58.4362 335.5,57.5C 342.095,58.6986 348.429,60.6986 354.5,63.5C 361.663,61.0328 368.996,60.1995 376.5,61C 379.368,61.8608 381.702,63.5275 383.5,66C 390.286,66.7785 396.953,68.1118 403.5,70C 406.308,71.7933 407.974,74.2933 408.5,77.5C 438.694,75.2834 464.361,84.7834 485.5,106C 499.787,109.707 509.954,118.207 516,131.5C 518.494,140.478 520.828,149.478 523,158.5C 530.221,164.861 538.054,170.361 546.5,175C 551.831,179.998 555.997,185.831 559,192.5C 562.514,204.89 566.18,217.224 570,229.5C 579.498,237.656 587.498,246.989 594,257.5C 596.318,263.307 596.984,269.307 596,275.5C 594.402,280.099 591.235,282.932 586.5,284C 591.259,292.022 595.592,300.189 599.5,308.5 Z"/></g>
<g><path style="opacity:1" fill="#c38c44" d="M 367.5,71.5 C 369.735,71.2053 371.735,71.5386 373.5,72.5C 371.273,73.4006 370.273,75.0672 370.5,77.5C 379.202,77.2237 387.868,77.5571 396.5,78.5C 397.167,78.8333 397.833,79.1667 398.5,79.5C 395.215,79.6981 393.548,81.3648 393.5,84.5C 399.5,85.8333 405.5,87.1667 411.5,88.5C 416.613,89.9793 421.113,92.646 425,96.5C 425.667,97.8333 425.667,99.1667 425,100.5C 419.457,103.971 418.124,108.638 421,114.5C 431.748,121.791 442.581,128.958 453.5,136C 459.657,140.632 463.99,146.466 466.5,153.5C 462.846,153.058 459.179,152.724 455.5,152.5C 455.351,153.552 455.517,154.552 456,155.5C 459.74,159.311 462.74,163.644 465,168.5C 467.32,176.085 469.32,183.752 471,191.5C 475.633,200.147 480.3,208.813 485,217.5C 485.579,219.649 486.079,221.815 486.5,224C 486.561,225.711 485.894,227.044 484.5,228C 472.916,228.445 469.082,234.278 473,245.5C 476.198,255.429 479.198,265.429 482,275.5C 483.405,283.792 483.738,292.125 483,300.5C 482.576,302.615 481.409,303.448 479.5,303C 478.081,299.414 475.748,296.581 472.5,294.5C 472.017,309.875 469.684,324.875 465.5,339.5C 462.318,339.427 459.318,338.927 456.5,338C 458.333,340.167 460.167,342.333 462,344.5C 460.487,362.72 455.487,380.054 447,396.5C 443.181,389.532 439.348,382.532 435.5,375.5C 436,375.167 436.5,374.833 437,374.5C 440.171,376.008 443.338,377.341 446.5,378.5C 446.887,373.92 446.053,369.586 444,365.5C 439.667,357.496 434.833,349.829 429.5,342.5C 429.709,341.914 430.043,341.414 430.5,341C 433.894,340.248 437.227,340.415 440.5,341.5C 441.521,340.998 441.688,340.332 441,339.5C 436.72,334.941 431.553,331.774 425.5,330C 422.436,322.603 417.102,317.603 409.5,315C 399.77,314.774 392.77,310.274 388.5,301.5C 392.447,296.546 393.781,291.046 392.5,285C 379.869,286.875 367.203,288.542 354.5,290C 354.043,289.586 353.709,289.086 353.5,288.5C 357.456,282.804 358.789,276.637 357.5,270C 355.833,269.333 354.167,269.333 352.5,270C 343.586,277.306 333.586,281.473 322.5,282.5C 325.837,276.015 326.171,269.515 323.5,263C 322.167,262.333 320.833,262.333 319.5,263C 315.5,267 311.5,271 307.5,275C 303.589,278.597 299.256,279.263 294.5,277C 289.5,272.667 284.833,268 280.5,263C 278.527,262.505 276.527,262.338 274.5,262.5C 274.334,267.511 274.501,272.511 275,277.5C 275.45,279.519 276.283,281.352 277.5,283C 272.581,283.15 267.914,282.15 263.5,280C 258.035,277.768 253.035,274.768 248.5,271C 246.19,270.503 243.857,270.337 241.5,270.5C 241.19,277.736 243.19,284.236 247.5,290C 237.842,289.622 228.176,288.956 218.5,288C 214.396,286.314 210.062,285.481 205.5,285.5C 205.71,292.245 207.877,298.245 212,303.5C 212.667,304.5 212.667,305.5 212,306.5C 206.479,312.347 199.646,315.514 191.5,316C 186.884,318.282 183.217,321.616 180.5,326C 173.961,328.621 167.627,331.621 161.5,335C 159.349,336.405 157.682,338.239 156.5,340.5C 160.096,341.079 163.762,341.079 167.5,340.5C 164.467,347.558 160.634,354.224 156,360.5C 152.287,365.632 150.62,371.299 151,377.5C 151.414,377.957 151.914,378.291 152.5,378.5C 154.945,376.722 157.611,375.389 160.5,374.5C 161.737,374.556 162.737,375.056 163.5,376C 159.896,381.939 156.729,388.106 154,394.5C 146.093,379.367 141.093,363.367 139,346.5C 140.635,343.368 142.468,340.368 144.5,337.5C 144.333,337.167 144.167,336.833 144,336.5C 141.646,338.848 138.979,339.514 136,338.5C 133.182,324.622 131.182,310.622 130,296.5C 128.412,294.032 126.578,293.866 124.5,296C 122.85,298.813 120.85,301.313 118.5,303.5C 116.931,302.286 116.098,300.619 116,298.5C 115.245,289.734 115.912,281.067 118,272.5C 121.868,261.194 125.035,249.694 127.5,238C 127.506,235.7 127.006,233.534 126,231.5C 122.41,229.642 118.576,228.476 114.5,228C 113.285,223.844 113.452,219.678 115,215.5C 118.747,208.337 122.747,201.337 127,194.5C 129.333,185.833 131.667,177.167 134,168.5C 136.969,163.366 140.136,158.366 143.5,153.5C 139.904,152.921 136.238,152.921 132.5,153.5C 134.155,147.382 137.488,142.215 142.5,138C 152.323,130.586 162.656,123.919 173.5,118C 181.321,112.411 181.488,106.578 174,100.5C 173.124,97.083 174.291,94.583 177.5,93C 181.481,90.8381 185.481,89.0048 189.5,87.5C 195.786,86.1964 202.119,85.0297 208.5,84C 208.957,83.586 209.291,83.086 209.5,82.5C 207.328,81.7952 205.328,80.7952 203.5,79.5C 204.376,78.7492 205.376,78.2492 206.5,78C 214.833,77.6667 223.167,77.3333 231.5,77C 231.833,76.6667 232.167,76.3333 232.5,76C 231.333,74.8333 230.167,73.6667 229,72.5C 228.312,71.6683 228.479,71.0016 229.5,70.5C 236.616,71.1134 243.616,72.4468 250.5,74.5C 254.041,72.4701 257.708,70.6368 261.5,69C 269.477,69.5438 277.477,69.8771 285.5,70C 295.539,62.6753 305.539,62.6753 315.5,70C 323.855,69.9273 332.188,69.594 340.5,69C 344.292,70.6368 347.959,72.4701 351.5,74.5C 356.727,72.859 362.061,71.859 367.5,71.5 Z"/></g>
<g><path style="opacity:1" fill="#6f5027" d="M 367.5,71.5 C 369.693,70.2031 372.027,70.2031 374.5,71.5C 374.376,72.1067 374.043,72.44 373.5,72.5C 371.735,71.5386 369.735,71.2053 367.5,71.5 Z"/></g>
<g><path style="opacity:1" fill="#b07b39" d="M 189.5,87.5 C 185.481,89.0048 181.481,90.8381 177.5,93C 174.291,94.583 173.124,97.083 174,100.5C 181.488,106.578 181.321,112.411 173.5,118C 162.656,123.919 152.323,130.586 142.5,138C 137.488,142.215 134.155,147.382 132.5,153.5C 136.238,152.921 139.904,152.921 143.5,153.5C 140.136,158.366 136.969,163.366 134,168.5C 131.667,177.167 129.333,185.833 127,194.5C 122.747,201.337 118.747,208.337 115,215.5C 113.452,219.678 113.285,223.844 114.5,228C 118.576,228.476 122.41,229.642 126,231.5C 127.006,233.534 127.506,235.7 127.5,238C 125.035,249.694 121.868,261.194 118,272.5C 115.912,281.067 115.245,289.734 116,298.5C 116.098,300.619 116.931,302.286 118.5,303.5C 120.85,301.313 122.85,298.813 124.5,296C 126.578,293.866 128.412,294.032 130,296.5C 131.182,310.622 133.182,324.622 136,338.5C 138.979,339.514 141.646,338.848 144,336.5C 144.167,336.833 144.333,337.167 144.5,337.5C 142.468,340.368 140.635,343.368 139,346.5C 141.093,363.367 146.093,379.367 154,394.5C 156.729,388.106 159.896,381.939 163.5,376C 162.737,375.056 161.737,374.556 160.5,374.5C 157.611,375.389 154.945,376.722 152.5,378.5C 151.914,378.291 151.414,377.957 151,377.5C 150.62,371.299 152.287,365.632 156,360.5C 160.634,354.224 164.467,347.558 167.5,340.5C 163.762,341.079 160.096,341.079 156.5,340.5C 157.682,338.239 159.349,336.405 161.5,335C 167.627,331.621 173.961,328.621 180.5,326C 183.217,321.616 186.884,318.282 191.5,316C 199.646,315.514 206.479,312.347 212,306.5C 212.667,305.5 212.667,304.5 212,303.5C 207.877,298.245 205.71,292.245 205.5,285.5C 210.062,285.481 214.396,286.314 218.5,288C 228.176,288.956 237.842,289.622 247.5,290C 243.19,284.236 241.19,277.736 241.5,270.5C 243.857,270.337 246.19,270.503 248.5,271C 253.035,274.768 258.035,277.768 263.5,280C 267.914,282.15 272.581,283.15 277.5,283C 276.283,281.352 275.45,279.519 275,277.5C 274.501,272.511 274.334,267.511 274.5,262.5C 276.527,262.338 278.527,262.505 280.5,263C 284.833,268 289.5,272.667 294.5,277C 299.256,279.263 303.589,278.597 307.5,275C 311.5,271 315.5,267 319.5,263C 320.833,262.333 322.167,262.333 323.5,263C 326.171,269.515 325.837,276.015 322.5,282.5C 333.586,281.473 343.586,277.306 352.5,270C 354.167,269.333 355.833,269.333 357.5,270C 358.789,276.637 357.456,282.804 353.5,288.5C 353.709,289.086 354.043,289.586 354.5,290C 367.203,288.542 379.869,286.875 392.5,285C 393.781,291.046 392.447,296.546 388.5,301.5C 392.77,310.274 399.77,314.774 409.5,315C 417.102,317.603 422.436,322.603 425.5,330C 431.553,331.774 436.72,334.941 441,339.5C 441.688,340.332 441.521,340.998 440.5,341.5C 437.227,340.415 433.894,340.248 430.5,341C 430.043,341.414 429.709,341.914 429.5,342.5C 434.833,349.829 439.667,357.496 444,365.5C 446.053,369.586 446.887,373.92 446.5,378.5C 443.338,377.341 440.171,376.008 437,374.5C 436.5,374.833 436,375.167 435.5,375.5C 439.348,382.532 443.181,389.532 447,396.5C 455.487,380.054 460.487,362.72 462,344.5C 460.167,342.333 458.333,340.167 456.5,338C 459.318,338.927 462.318,339.427 465.5,339.5C 469.684,324.875 472.017,309.875 472.5,294.5C 475.748,296.581 478.081,299.414 479.5,303C 481.409,303.448 482.576,302.615 483,300.5C 483.738,292.125 483.405,283.792 482,275.5C 479.198,265.429 476.198,255.429 473,245.5C 469.082,234.278 472.916,228.445 484.5,228C 485.894,227.044 486.561,225.711 486.5,224C 486.079,221.815 485.579,219.649 485,217.5C 480.3,208.813 475.633,200.147 471,191.5C 469.32,183.752 467.32,176.085 465,168.5C 462.74,163.644 459.74,159.311 456,155.5C 455.517,154.552 455.351,153.552 455.5,152.5C 459.179,152.724 462.846,153.058 466.5,153.5C 463.99,146.466 459.657,140.632 453.5,136C 442.581,128.958 431.748,121.791 421,114.5C 418.124,108.638 419.457,103.971 425,100.5C 425.667,99.1667 425.667,97.8333 425,96.5C 421.113,92.646 416.613,89.9793 411.5,88.5C 438.603,86.2514 461.27,95.0847 479.5,115C 493.967,117.472 503.467,125.639 508,139.5C 509.825,147.132 511.491,154.798 513,162.5C 515.128,165.63 517.628,168.463 520.5,171C 529.502,175.669 537.669,181.503 545,188.5C 546.92,191.339 548.587,194.339 550,197.5C 552.998,208.495 555.998,219.495 559,230.5C 560,232.5 561,234.5 562,236.5C 570.782,244.276 578.449,252.942 585,262.5C 586.599,265.991 586.766,269.491 585.5,273C 568.725,270.393 565.892,275.227 577,287.5C 585.9,300.963 591.733,315.63 594.5,331.5C 594.984,335.573 593.318,337.907 589.5,338.5C 584.798,337.316 580.464,335.316 576.5,332.5C 575.917,338.866 574.584,345.032 572.5,351C 567.775,351.222 563.942,349.389 561,345.5C 563.172,353.704 565.172,362.038 567,370.5C 567.667,375.167 567.667,379.833 567,384.5C 565.159,391.394 563.826,398.394 563,405.5C 560.948,413.105 556.782,419.272 550.5,424C 541.869,427.663 533.203,431.33 524.5,435C 518.5,440.333 512.5,445.667 506.5,451C 491.467,458.212 476.467,458.212 461.5,451C 458.705,449.207 456.205,447.04 454,444.5C 452.48,447.382 451.147,450.382 450,453.5C 448.475,456.087 446.308,456.92 443.5,456C 439.465,452.3 435.798,448.3 432.5,444C 431.207,443.51 429.873,443.343 428.5,443.5C 429.329,450.645 429.996,457.812 430.5,465C 430.506,469.236 430.006,473.402 429,477.5C 419.296,492.874 407.129,506.041 392.5,517C 390.421,517.808 388.421,517.641 386.5,516.5C 385.243,511.192 383.577,506.026 381.5,501C 379.167,500.333 376.833,500.333 374.5,501C 368.741,506.762 362.408,511.762 355.5,516C 346.38,520.227 337.047,523.894 327.5,527C 318.085,529.314 308.752,531.814 299.5,534.5C 281.638,530.713 264.305,525.213 247.5,518C 239.046,514.214 231.713,508.881 225.5,502C 223.045,500.369 220.545,500.203 218,501.5C 215.392,506.595 213.392,511.928 212,517.5C 210.951,518.517 209.784,518.684 208.5,518C 191.689,506.865 178.856,492.365 170,474.5C 169.607,464.151 169.607,453.818 170,443.5C 165.479,446.357 161.979,450.19 159.5,455C 156.099,458.483 152.933,458.316 150,454.5C 148.138,450.581 146.471,446.581 145,442.5C 137.418,451.118 127.752,455.451 116,455.5C 107.605,455.368 99.7713,453.202 92.5,449C 86.4596,443.291 80.1263,437.957 73.5,433C 65.6754,430.392 58.0088,427.392 50.5,424C 43.0884,419.017 38.255,412.184 36,403.5C 34.8615,394.236 33.3615,385.069 31.5,376C 32.6881,364.755 35.1881,353.922 39,343.5C 35.8831,348.146 31.7164,350.146 26.5,349.5C 26,348.5 25.5,347.5 25,346.5C 24.6667,341.167 24.3333,335.833 24,330.5C 19.1402,333.513 13.9736,335.847 8.5,337.5C 6.57493,337.41 5.40826,336.41 5,334.5C 4.90643,325.865 6.5731,317.531 10,309.5C 15.874,297.579 22.374,286.079 29.5,275C 29.1802,273.347 28.1802,272.347 26.5,272C 21.8452,271.501 17.1785,271.334 12.5,271.5C 12.1388,265.608 13.6388,260.274 17,255.5C 23,248.167 29.6667,241.5 37,235.5C 37.6667,234.167 38.3333,232.833 39,231.5C 42.4888,219.878 45.8221,208.212 49,196.5C 52.0316,189.476 56.5316,183.643 62.5,179C 71.5102,174.644 79.3435,168.811 86,161.5C 87.6691,149.142 91.3358,137.475 97,126.5C 103.829,119.499 111.996,114.665 121.5,112C 139.952,92.2376 162.618,84.0709 189.5,87.5 Z"/></g>
<g><path style="opacity:1" fill="#b07b3a" d="M 237.5,212.5 C 227.88,213.924 218.547,216.424 209.5,220C 208.251,221.98 206.918,223.813 205.5,225.5C 205.539,224.417 205.873,223.417 206.5,222.5C 206,222.167 205.5,221.833 205,221.5C 187.023,228.822 172.69,240.488 162,256.5C 157.375,229.696 166.042,208.362 188,192.5C 188.684,191.216 188.517,190.049 187.5,189C 184.177,188.517 181.51,187.017 179.5,184.5C 186.592,179.287 194.592,177.12 203.5,178C 207.573,177.212 211.573,176.212 215.5,175C 216.554,173.612 216.72,172.112 216,170.5C 213.209,168.701 211.042,166.367 209.5,163.5C 215.137,162.337 220.804,162.17 226.5,163C 237.345,165.257 247.678,168.924 257.5,174C 267.596,182.441 269.929,192.608 264.5,204.5C 255.22,206.401 246.22,209.068 237.5,212.5 Z"/></g>
<g><path style="opacity:1" fill="#b17c3a" d="M 392.5,223.5 C 391.163,222.685 390.163,221.518 389.5,220C 381.025,216.881 372.358,214.381 363.5,212.5C 357.381,213.722 352.381,216.722 348.5,221.5C 348.291,220.078 347.791,218.745 347,217.5C 341.623,211.792 336.623,205.792 332,199.5C 330.25,189.168 333.416,180.668 341.5,174C 349.721,170.39 358.054,167.057 366.5,164C 374.105,162.689 381.772,162.189 389.5,162.5C 388.392,166.131 386.226,169.131 383,171.5C 382.316,172.784 382.483,173.951 383.5,175C 385.087,175.862 386.754,176.529 388.5,177C 398.161,177.039 407.495,178.706 416.5,182C 418.439,182.908 419.439,184.408 419.5,186.5C 416.833,187.167 414.167,187.833 411.5,188.5C 411.215,190.288 411.548,191.955 412.5,193.5C 433.379,208.942 441.879,229.609 438,255.5C 428.433,243.601 417.267,233.435 404.5,225C 401.551,223.239 398.384,222.072 395,221.5C 393.624,221.684 392.791,222.351 392.5,223.5 Z"/></g>
<g><path style="opacity:1" fill="#1d1e1c" d="M 237.5,212.5 C 255.394,222.344 259.894,236.344 251,254.5C 236.378,270.476 221.711,270.476 207,254.5C 200.944,244.94 200.444,235.273 205.5,225.5C 206.918,223.813 208.251,221.98 209.5,220C 218.547,216.424 227.88,213.924 237.5,212.5 Z"/></g>
<g><path style="opacity:1" fill="#1d1e1c" d="M 392.5,223.5 C 401.497,243.004 396.164,257.171 376.5,266C 353.674,267.839 342.507,257.339 343,234.5C 343.749,229.673 345.582,225.34 348.5,221.5C 352.381,216.722 357.381,213.722 363.5,212.5C 372.358,214.381 381.025,216.881 389.5,220C 390.163,221.518 391.163,222.685 392.5,223.5 Z"/></g>
<g><path style="opacity:1" fill="#f0f0f0" d="M 242.5,227.5 C 249.329,226.828 252.163,229.828 251,236.5C 247.775,241.387 244.108,241.72 240,237.5C 238.861,233.579 239.695,230.246 242.5,227.5 Z"/></g>
<g><path style="opacity:1" fill="#efefef" d="M 383.5,227.5 C 392.307,227.465 394.64,231.298 390.5,239C 384.723,241.611 381.39,239.778 380.5,233.5C 380.628,231.045 381.628,229.045 383.5,227.5 Z"/></g>
<g><path style="opacity:1" fill="#1d1e1c" d="M 285.5,336.5 C 299.023,335.74 312.356,336.907 325.5,340C 340.033,345.23 345.533,355.396 342,370.5C 334.912,384.243 323.745,392.743 308.5,396C 288.725,398.519 272.558,392.019 260,376.5C 252.745,364.003 254.579,353.17 265.5,344C 271.878,340.379 278.545,337.879 285.5,336.5 Z"/></g>
</svg>
