<?xml version="1.0" encoding="UTF-8"?>
<!DOCTYPE svg PUBLIC "-//W3C//DTD SVG 1.1//EN" "http://www.w3.org/Graphics/SVG/1.1/DTD/svg11.dtd">
<svg xmlns="http://www.w3.org/2000/svg" version="1.1" width="600px" height="600px" style="shape-rendering:geometricPrecision; text-rendering:geometricPrecision; image-rendering:optimizeQuality; fill-rule:evenodd; clip-rule:evenodd" xmlns:xlink="http://www.w3.org/1999/xlink">
<g><path style="opacity:0.954" fill="#010101" d="M 599.5,187.5 C 599.5,199.833 599.5,212.167 599.5,224.5C 597.146,224.838 594.813,225.338 592.5,226C 589.701,231.069 585.368,233.569 579.5,233.5C 579.353,237.906 578.686,242.239 577.5,246.5C 579.487,258.617 582.487,270.45 586.5,282C 586.153,288.041 583.153,292.041 577.5,294C 579.557,298.838 581.224,303.838 582.5,309C 581.002,318.394 575.668,322.394 566.5,321C 558.502,332.493 547.502,337.16 533.5,335C 527.6,333.867 521.933,332.033 516.5,329.5C 513.147,348.776 508.98,367.776 504,386.5C 492.148,427.51 470.315,461.343 438.5,488C 410.532,508.317 379.532,520.983 345.5,526C 297.938,533.344 251.605,529.344 206.5,514C 179.479,503.943 156.646,488.109 138,466.5C 137.166,463.828 136.332,461.161 135.5,458.5C 132.721,457.354 130.054,456.021 127.5,454.5C 107.68,426.88 94.5137,396.546 88,363.5C 85.7842,352.205 83.7842,340.872 82,329.5C 69.0494,336.614 55.8827,337.114 42.5,331C 38.5,328.333 35.1667,325 32.5,321C 23.6553,321.47 18.3219,317.47 16.5,309C 17.6698,303.991 19.3364,299.157 21.5,294.5C 15.9935,292.157 12.9935,287.99 12.5,282C 16.5943,270.29 19.5943,258.29 21.5,246C 20.7206,241.49 19.8872,236.99 19,232.5C 13.7135,232.938 9.54682,230.771 6.5,226C 4.26001,225.023 1.92668,224.523 -0.5,224.5C -0.5,212.167 -0.5,199.833 -0.5,187.5C 1.13016,181.867 2.46349,176.034 3.5,170C -0.388619,142.217 10.6114,122.883 36.5,112C 62.1909,100.157 88.8575,91.1569 116.5,85C 124.292,83.8067 132.126,82.9734 140,82.5C 156.826,84.4443 173.659,85.9443 190.5,87C 192.785,78.7508 198.285,75.2508 207,76.5C 218.187,77.6419 229.187,79.6419 240,82.5C 241.21,74.123 246.044,69.7897 254.5,69.5C 269.633,71.7665 283.966,76.4332 297.5,83.5C 310.864,76.5456 325.03,71.8789 340,69.5C 348.774,69.5348 353.44,73.8681 354,82.5C 365.323,79.6695 376.823,77.6695 388.5,76.5C 397.165,75.3413 402.332,79.008 404,87.5C 404.893,88.0814 405.893,88.4148 407,88.5C 429.367,84.8075 451.867,83.3075 474.5,84C 506.485,89.995 537.151,99.995 566.5,114C 590.379,125.592 600.046,144.425 595.5,170.5C 596.6,176.354 597.933,182.021 599.5,187.5 Z"/></g>
<g><path style="opacity:1" fill="#ecebeb" d="M 278.5,86.5 C 279.937,91.8714 279.77,97.2048 278,102.5C 266.637,110.685 255.637,119.351 245,128.5C 240.216,133.956 236.216,139.956 233,146.5C 228.862,157.724 229.862,168.391 236,178.5C 243,186.833 250.667,194.5 259,201.5C 277.073,222.532 280.073,245.532 268,270.5C 259.871,280.298 251.371,289.798 242.5,299C 199.097,315.396 172.597,346.23 163,391.5C 162.333,399.833 162.333,408.167 163,416.5C 163.228,423.078 164.562,429.411 167,435.5C 168.049,436.517 169.216,436.684 170.5,436C 171.685,434.647 173.019,433.48 174.5,432.5C 174.833,433 175.167,433.5 175.5,434C 173.14,440.138 172.973,446.305 175,452.5C 187.904,471.216 205.071,484.549 226.5,492.5C 227.442,492.392 228.275,492.059 229,491.5C 229.14,488.957 229.806,486.623 231,484.5C 232.579,488.81 234.746,492.81 237.5,496.5C 260.653,503.352 284.319,506.352 308.5,505.5C 312.631,509.13 316.631,512.963 320.5,517C 319.263,517.232 318.263,517.732 317.5,518.5C 296.437,519.044 275.437,518.211 254.5,516C 247.47,514.794 243.47,510.627 242.5,503.5C 240.957,506.086 239.291,508.586 237.5,511C 202.929,505.131 173.429,489.631 149,464.5C 148,462.5 147,460.5 146,458.5C 145.83,452.804 145.33,447.138 144.5,441.5C 142.684,442.815 141.017,444.315 139.5,446C 137.956,447.187 136.289,447.52 134.5,447C 118.759,425.432 108.259,401.598 103,375.5C 104.715,372.565 106.548,369.732 108.5,367C 108.167,366.5 107.833,366 107.5,365.5C 105.057,367.055 102.39,367.722 99.5,367.5C 96.0618,350.639 93.3951,333.639 91.5,316.5C 88.7032,294.301 89.0366,272.134 92.5,250C 92.3333,248.833 92.1667,247.667 92,246.5C 90.6667,247.833 89.3333,247.833 88,246.5C 87.4971,233.84 90.1638,221.84 96,210.5C 101.169,199.495 106.336,188.495 111.5,177.5C 110.652,175.239 108.985,174.239 106.5,174.5C 102.851,175.33 99.1847,175.996 95.5,176.5C 95.3398,174.801 95.5065,173.134 96,171.5C 98.4626,168.035 101.296,164.869 104.5,162C 118.578,152.209 133.078,143.042 148,134.5C 149.457,131.634 149.79,128.634 149,125.5C 142.943,120.885 143.11,116.718 149.5,113C 153.677,110.941 158.01,109.274 162.5,108C 178.893,104.944 195.226,102.444 211.5,100.5C 212.978,100.762 214.311,100.429 215.5,99.5C 212.065,95.942 208.065,93.1086 203.5,91C 201.963,89.8904 201.297,88.3904 201.5,86.5C 219.115,89.2229 236.781,91.5562 254.5,93.5C 253.796,89.0937 252.796,84.7603 251.5,80.5C 260.987,80.4682 269.987,82.4682 278.5,86.5 Z"/></g>
<g><path style="opacity:1" fill="#ebebeb" d="M 383.5,100.5 C 398.01,102.749 412.677,104.916 427.5,107C 436.577,108.205 444.243,112.038 450.5,118.5C 448.211,121.291 445.711,123.958 443,126.5C 441,128.833 441,131.167 443,133.5C 444.558,135.359 446.391,136.859 448.5,138C 461.488,144.493 474.155,151.493 486.5,159C 492.282,162.78 496.616,167.78 499.5,174C 499.355,174.772 499.022,175.439 498.5,176C 493.883,175.524 489.217,175.524 484.5,176C 483.919,176.893 483.585,177.893 483.5,179C 488.857,190.881 494.357,202.714 500,214.5C 504.875,224.66 507.208,235.327 507,246.5C 505.954,247.772 505.454,249.272 505.5,251C 507.346,271.447 508.012,291.947 507.5,312.5C 504.908,330.059 502.074,347.725 499,365.5C 495.263,368.056 491.596,367.723 488,364.5C 488.72,367.265 490.387,369.599 493,371.5C 494.545,373.209 495.378,375.209 495.5,377.5C 493.055,389.177 489.055,400.177 483.5,410.5C 460.833,388.833 438.167,367.167 415.5,345.5C 398.451,322.788 376.451,306.622 349.5,297C 343.667,290.5 337.833,284 332,277.5C 318.857,260.602 315.857,241.936 323,221.5C 326.081,215.669 329.415,210.002 333,204.5C 340.946,196.554 348.946,188.554 357,180.5C 364.809,170.804 366.475,160.137 362,148.5C 357.43,138.261 350.93,129.428 342.5,122C 334.088,115.711 325.588,109.544 317,103.5C 314.021,97.7888 313.854,92.1221 316.5,86.5C 325.109,82.7116 334.109,80.7116 343.5,80.5C 342.603,84.1338 341.27,87.6338 339.5,91C 339.645,91.772 339.978,92.4387 340.5,93C 354.68,92.5265 368.68,90.5265 382.5,87C 386.152,86.5014 389.818,86.3347 393.5,86.5C 393.719,87.675 393.386,88.675 392.5,89.5C 387.587,92.1183 383.254,95.4516 379.5,99.5C 380.689,100.429 382.022,100.762 383.5,100.5 Z"/></g>
<g><path style="opacity:1" fill="#e1dcd8" d="M 278.5,86.5 C 284.484,89.1575 290.484,91.8241 296.5,94.5C 303.377,92.2717 310.044,89.605 316.5,86.5C 313.854,92.1221 314.021,97.7888 317,103.5C 325.588,109.544 334.088,115.711 342.5,122C 350.93,129.428 357.43,138.261 362,148.5C 366.475,160.137 364.809,170.804 357,180.5C 348.946,188.554 340.946,196.554 333,204.5C 329.415,210.002 326.081,215.669 323,221.5C 315.857,241.936 318.857,260.602 332,277.5C 337.833,284 343.667,290.5 349.5,297C 376.451,306.622 398.451,322.788 415.5,345.5C 432.944,371.893 438.111,400.559 431,431.5C 430.735,433.651 429.735,435.318 428,436.5C 426.037,435.375 424.204,434.041 422.5,432.5C 422.167,433.167 421.833,433.833 421.5,434.5C 425.262,443.83 423.762,452.163 417,459.5C 403.987,475.203 387.821,486.037 368.5,492C 367.929,489.389 367.096,486.889 366,484.5C 364.148,487.711 362.481,491.044 361,494.5C 360.097,495.701 358.931,496.535 357.5,497C 341.284,501.368 324.95,504.202 308.5,505.5C 284.319,506.352 260.653,503.352 237.5,496.5C 234.746,492.81 232.579,488.81 231,484.5C 229.806,486.623 229.14,488.957 229,491.5C 228.275,492.059 227.442,492.392 226.5,492.5C 205.071,484.549 187.904,471.216 175,452.5C 172.973,446.305 173.14,440.138 175.5,434C 175.167,433.5 174.833,433 174.5,432.5C 173.019,433.48 171.685,434.647 170.5,436C 169.216,436.684 168.049,436.517 167,435.5C 164.562,429.411 163.228,423.078 163,416.5C 162.333,408.167 162.333,399.833 163,391.5C 172.597,346.23 199.097,315.396 242.5,299C 251.371,289.798 259.871,280.298 268,270.5C 280.073,245.532 277.073,222.532 259,201.5C 250.667,194.5 243,186.833 236,178.5C 229.862,168.391 228.862,157.724 233,146.5C 236.216,139.956 240.216,133.956 245,128.5C 255.637,119.351 266.637,110.685 278,102.5C 279.77,97.2048 279.937,91.8714 278.5,86.5 Z"/></g>
<g><path style="opacity:1" fill="#212121" d="M 211.5,100.5 C 195.226,102.444 178.893,104.944 162.5,108C 158.01,109.274 153.677,110.941 149.5,113C 143.11,116.718 142.943,120.885 149,125.5C 149.79,128.634 149.457,131.634 148,134.5C 133.078,143.042 118.578,152.209 104.5,162C 101.296,164.869 98.4626,168.035 96,171.5C 95.5065,173.134 95.3398,174.801 95.5,176.5C 99.1847,175.996 102.851,175.33 106.5,174.5C 108.985,174.239 110.652,175.239 111.5,177.5C 106.336,188.495 101.169,199.495 96,210.5C 90.1638,221.84 87.4971,233.84 88,246.5C 89.3333,247.833 90.6667,247.833 92,246.5C 92.1667,247.667 92.3333,248.833 92.5,250C 89.0366,272.134 88.7032,294.301 91.5,316.5C 90.7321,315.737 90.2321,314.737 90,313.5C 79.0401,321.265 66.8735,324.765 53.5,324C 49.2783,322.974 45.7783,320.807 43,317.5C 40.4673,312.773 38.8007,307.773 38,302.5C 35.1424,306.214 31.6424,308.88 27.5,310.5C 31.1355,298.296 33.9688,285.962 36,273.5C 32.61,277.393 28.7767,280.727 24.5,283.5C 24.1667,282.833 23.8333,282.167 23.5,281.5C 28.7765,267.955 31.2765,253.955 31,239.5C 29.8064,231.726 28.1398,224.06 26,216.5C 23.1702,219.188 20.0036,221.188 16.5,222.5C 18.8056,215.28 20.8056,207.947 22.5,200.5C 22.1667,199.833 21.8333,199.167 21.5,198.5C 17.7225,203.78 13.3892,208.614 8.5,213C 6.97506,214.009 5.30839,214.509 3.5,214.5C 11.0053,194.136 14.172,173.136 13,151.5C 15.7676,140.125 22.2676,131.625 32.5,126C 58.3924,113.036 85.3924,103.036 113.5,96C 122.292,94.6963 131.125,93.8629 140,93.5C 163.847,95.7238 187.68,98.0571 211.5,100.5 Z"/></g>
<g><path style="opacity:1" fill="#212020" d="M 507.5,312.5 C 508.012,291.947 507.346,271.447 505.5,251C 505.454,249.272 505.954,247.772 507,246.5C 507.208,235.327 504.875,224.66 500,214.5C 494.357,202.714 488.857,190.881 483.5,179C 483.585,177.893 483.919,176.893 484.5,176C 489.217,175.524 493.883,175.524 498.5,176C 499.022,175.439 499.355,174.772 499.5,174C 496.616,167.78 492.282,162.78 486.5,159C 474.155,151.493 461.488,144.493 448.5,138C 446.391,136.859 444.558,135.359 443,133.5C 441,131.167 441,128.833 443,126.5C 445.711,123.958 448.211,121.291 450.5,118.5C 444.243,112.038 436.577,108.205 427.5,107C 412.677,104.916 398.01,102.749 383.5,100.5C 405.557,98.9951 427.557,96.8284 449.5,94C 474.37,93.3065 498.37,97.6399 521.5,107C 536.826,112.553 551.826,118.887 566.5,126C 579.169,133.163 585.836,143.997 586.5,158.5C 585.697,164.159 585.53,169.825 586,175.5C 588.092,188.799 591.258,201.799 595.5,214.5C 594.127,214.657 592.793,214.49 591.5,214C 586.254,209.425 581.754,204.258 578,198.5C 577.13,199.108 576.63,199.941 576.5,201C 578.582,208.164 580.582,215.33 582.5,222.5C 578.797,222.138 575.797,220.471 573.5,217.5C 569.535,228.825 567.702,240.492 568,252.5C 569.72,262.825 572.553,272.825 576.5,282.5C 575.277,283.614 573.944,283.781 572.5,283C 569.667,280.167 566.833,277.333 564,274.5C 563.833,275.333 563.667,276.167 563.5,277C 565.368,288.387 568.035,299.553 571.5,310.5C 567.333,308.849 563.833,306.182 561,302.5C 560.595,316.37 553.595,324.037 540,325.5C 527.97,324.065 517.136,319.732 507.5,312.5 Z"/></g>
<g><path style="opacity:1" fill="#292324" d="M 216.5,240.5 C 231.801,239.061 242.301,245.394 248,259.5C 250.319,282.844 239.819,294.344 216.5,294C 202.764,290.085 195.43,280.918 194.5,266.5C 196.516,253.164 203.849,244.497 216.5,240.5 Z"/></g>
<g><path style="opacity:1" fill="#292324" d="M 368.5,240.5 C 388.264,239.358 399.264,248.525 401.5,268C 398.65,286.933 387.65,295.599 368.5,294C 352.142,288.8 345.308,277.633 348,260.5C 351.453,250.212 358.286,243.545 368.5,240.5 Z"/></g>
<g><path style="opacity:1" fill="#f7f7f7" d="M 222.5,251.5 C 229.939,249.431 234.272,252.098 235.5,259.5C 234.011,266.586 229.677,269.086 222.5,267C 217.221,261.836 217.221,256.669 222.5,251.5 Z"/></g>
<g><path style="opacity:1" fill="#f5f5f5" d="M 378.5,250.5 C 386.908,251.989 389.575,256.655 386.5,264.5C 381.354,269.864 376.521,269.531 372,263.5C 370.056,256.98 372.223,252.646 378.5,250.5 Z"/></g>
<g><path style="opacity:1" fill="#1b0e10" d="M 287.5,327.5 C 299.694,326.818 311.694,327.985 323.5,331C 337.923,335.672 343.756,345.505 341,360.5C 334.44,381.727 320.107,393.394 298,395.5C 271.856,392.855 257.022,378.522 253.5,352.5C 255.286,341.875 261.286,334.709 271.5,331C 276.905,329.504 282.239,328.337 287.5,327.5 Z"/></g>
<g><path style="opacity:1" fill="#dcdcdc" d="M 415.5,345.5 C 438.167,367.167 460.833,388.833 483.5,410.5C 478.316,423.201 471.816,435.201 464,446.5C 462.612,447.554 461.112,447.72 459.5,447C 457.65,444.982 455.65,443.149 453.5,441.5C 452.67,447.138 452.17,452.804 452,458.5C 451,460.5 450,462.5 449,464.5C 424.322,489.922 394.489,505.422 359.5,511C 358.259,508.437 356.926,505.937 355.5,503.5C 354.409,508.544 351.742,512.377 347.5,515C 337.531,516.496 327.531,517.663 317.5,518.5C 318.263,517.732 319.263,517.232 320.5,517C 316.631,512.963 312.631,509.13 308.5,505.5C 324.95,504.202 341.284,501.368 357.5,497C 358.931,496.535 360.097,495.701 361,494.5C 362.481,491.044 364.148,487.711 366,484.5C 367.096,486.889 367.929,489.389 368.5,492C 387.821,486.037 403.987,475.203 417,459.5C 423.762,452.163 425.262,443.83 421.5,434.5C 421.833,433.833 422.167,433.167 422.5,432.5C 424.204,434.041 426.037,435.375 428,436.5C 429.735,435.318 430.735,433.651 431,431.5C 438.111,400.559 432.944,371.893 415.5,345.5 Z"/></g>
<g><path style="opacity:1" fill="#1c1012" d="M 283.5,416.5 C 291.835,417.709 300.169,417.709 308.5,416.5C 312.609,416.514 314.109,418.514 313,422.5C 303.684,425.687 294.184,426.187 284.5,424C 281.055,421.852 280.721,419.352 283.5,416.5 Z"/></g>
</svg>
