<?xml version="1.0" encoding="UTF-8"?>
<!DOCTYPE svg PUBLIC "-//W3C//DTD SVG 1.1//EN" "http://www.w3.org/Graphics/SVG/1.1/DTD/svg11.dtd">
<svg xmlns="http://www.w3.org/2000/svg" version="1.1" width="600px" height="600px" style="shape-rendering:geometricPrecision; text-rendering:geometricPrecision; image-rendering:optimizeQuality; fill-rule:evenodd; clip-rule:evenodd" xmlns:xlink="http://www.w3.org/1999/xlink">
<g><path style="opacity:0.971" fill="#030303" d="M 599.5,345.5 C 599.5,367.167 599.5,388.833 599.5,410.5C 584.365,450.105 555.698,473.605 513.5,481C 498.849,482.791 484.183,482.958 469.5,481.5C 467.806,497.349 460.473,509.849 447.5,519C 444.268,520.466 440.935,521.633 437.5,522.5C 434.384,527.406 430.051,530.906 424.5,533C 419.857,535.103 415.024,536.603 410,537.5C 405.315,536.824 401.315,534.824 398,531.5C 388.17,541.004 376.67,547.837 363.5,552C 320.833,564.667 278.167,564.667 235.5,552C 222.33,547.837 210.83,541.004 201,531.5C 197.954,535.356 193.954,537.356 189,537.5C 180.597,535.7 172.764,532.533 165.5,528C 164.167,526 162.833,524 161.5,522C 148.325,518.5 139.158,510.333 134,497.5C 132.438,493.986 131.605,490.319 131.5,486.5C 85.2406,493.246 46.4073,479.58 15,445.5C 8.45628,435.415 3.28961,424.748 -0.5,413.5C -0.5,394.167 -0.5,374.833 -0.5,355.5C 6.0072,334.8 14.5072,314.8 25,295.5C 30.5365,275.019 36.5365,254.685 43,234.5C 51.7533,221.326 60.7533,208.326 70,195.5C 74.8016,186.396 78.635,176.896 81.5,167C 78.1327,159.108 79.2994,151.942 85,145.5C 92.922,140.029 99.2553,133.029 104,124.5C 112.08,116.416 120.747,109.082 130,102.5C 130.829,96.34 133.996,91.84 139.5,89C 155.428,82.0471 172.095,78.2138 189.5,77.5C 186.502,65.818 191.002,59.818 203,59.5C 215.234,61.5135 227.4,63.8468 239.5,66.5C 247.349,64.9401 255.182,63.2734 263,61.5C 268.053,62.244 273.053,63.244 278,64.5C 291.531,56.9958 305.197,56.6625 319,63.5C 326.089,62.9494 333.256,62.4494 340.5,62C 345.813,63.1186 350.98,64.6186 356,66.5C 368.084,63.7165 380.251,61.3831 392.5,59.5C 399.373,58.7329 404.206,61.3996 407,67.5C 407.215,70.8035 407.382,73.9701 407.5,77C 421.752,78.3751 435.752,81.0418 449.5,85C 466.933,93.4252 482.433,104.592 496,118.5C 504.672,130.502 512.338,143.168 519,156.5C 520.12,167.528 523.454,177.861 529,187.5C 538,200.5 547,213.5 556,226.5C 558.393,231.678 560.393,237.012 562,242.5C 565.866,258.299 570.2,273.966 575,289.5C 584.598,307.681 592.765,326.348 599.5,345.5 Z"/></g>
<g><path style="opacity:1" fill="#f4f4f4" d="M 367.5,314.5 C 367.44,315.043 367.107,315.376 366.5,315.5C 349.392,307.51 331.725,302.844 313.5,301.5C 300.18,284.849 286.513,268.516 272.5,252.5C 275.634,230.078 269.801,210.412 255,193.5C 245.667,185.5 237,176.833 229,167.5C 220.262,152.709 220.596,138.042 230,123.5C 235.748,114.416 242.915,106.583 251.5,100C 259.667,94.5 267.833,89 276,83.5C 278.916,80.7254 279.082,77.8921 276.5,75C 284.134,72.0986 291.968,69.932 300,68.5C 306.031,69.0108 311.531,71.0108 316.5,74.5C 313.991,78.7277 314.991,82.2277 319.5,85C 334.094,93.2535 347.261,103.42 359,115.5C 378.394,138.261 376.894,159.427 354.5,179C 339.777,189.606 329.277,203.44 323,220.5C 318.984,236.611 320.318,252.278 327,267.5C 340.71,283.039 354.21,298.705 367.5,314.5 Z"/></g>
<g><path style="opacity:1" fill="#494745" d="M 252.5,74.5 C 257.119,75.517 261.786,75.1836 266.5,73.5C 266.762,74.9778 266.429,76.3112 265.5,77.5C 251.413,85.4101 238.913,95.4101 228,107.5C 215.566,121.898 210.566,138.564 213,157.5C 215.779,166.395 220.112,174.395 226,181.5C 232.671,187.004 238.837,193.004 244.5,199.5C 208.632,196.067 180.799,209.4 161,239.5C 160.333,242.833 160.333,246.167 161,249.5C 162.864,252.207 165.364,253.041 168.5,252C 177.002,245.998 186.169,241.164 196,237.5C 196.765,237.57 197.265,237.903 197.5,238.5C 188.569,258.794 194.236,273.294 214.5,282C 238.159,283.341 249.659,272.174 249,248.5C 247.005,241.832 243.505,236.166 238.5,231.5C 243.179,231.666 247.845,231.499 252.5,231C 255.754,227.957 258.087,224.457 259.5,220.5C 263.941,235.11 263.108,249.443 257,263.5C 243.625,278.54 230.625,293.873 218,309.5C 179.258,334.25 153.591,368.916 141,413.5C 138.2,422.7 136.033,432.033 134.5,441.5C 132.278,441.822 130.444,441.155 129,439.5C 114.361,418.106 103.861,394.773 97.5,369.5C 98.8213,365.336 100.821,361.503 103.5,358C 103.167,357.5 102.833,357 102.5,356.5C 100.043,358.225 97.3766,358.725 94.5,358C 84.3847,316.984 82.0514,275.484 87.5,233.5C 85.5,233.5 83.5,233.5 81.5,233.5C 81.2961,222.687 83.4628,212.353 88,202.5C 93.9837,188.867 100.15,175.367 106.5,162C 105.785,159.219 103.952,158.052 101,158.5C 98.2402,158.646 95.7402,159.313 93.5,160.5C 89.4638,160.428 88.6304,158.761 91,155.5C 94.3843,151.613 98.2176,148.28 102.5,145.5C 117.765,136.084 132.932,126.417 148,116.5C 148.987,112.305 147.487,109.305 143.5,107.5C 142.878,106.373 142.045,105.373 141,104.5C 141.149,100.984 142.983,98.484 146.5,97C 154.428,93.2676 162.761,90.9343 171.5,90C 183.814,88.1873 196.148,86.5207 208.5,85C 210.246,84.5291 211.913,83.8624 213.5,83C 208.461,79.1553 203.461,75.322 198.5,71.5C 201.784,70.343 205.118,70.1764 208.5,71C 218.722,72.9306 228.888,75.0973 239,77.5C 243.674,77.0845 248.174,76.0845 252.5,74.5 Z"/></g>
<g><path style="opacity:1" fill="#494745" d="M 457.5,102.5 C 457.631,103.239 457.464,103.906 457,104.5C 454.667,106.5 452.333,108.5 450,110.5C 448.699,112.365 448.365,114.365 449,116.5C 452.833,119.667 456.667,122.833 460.5,126C 476.182,132.497 490.515,140.997 503.5,151.5C 505.738,154.299 507.738,157.299 509.5,160.5C 509.137,161.183 508.804,161.85 508.5,162.5C 503.519,161.668 498.519,161.502 493.5,162C 492.978,162.561 492.645,163.228 492.5,164C 502.461,182.085 510.628,200.919 517,220.5C 517.921,226.541 517.421,232.374 515.5,238C 520.386,274.06 519.053,309.893 511.5,345.5C 485.46,315.091 460.126,284.091 435.5,252.5C 437.173,251.657 438.34,250.324 439,248.5C 439.667,245.5 439.667,242.5 439,239.5C 419.536,210.685 392.369,197.185 357.5,199C 344.326,203.851 339.493,213.017 343,226.5C 344.167,228.333 345.667,229.833 347.5,231C 352.019,231.175 356.353,231.675 360.5,232.5C 346.977,247.476 347.31,262.31 361.5,277C 367.841,281.392 374.841,283.225 382.5,282.5C 384.467,282.261 386.301,282.594 388,283.5C 421.668,326.199 454.835,369.199 487.5,412.5C 484.057,421.385 479.557,429.719 474,437.5C 471.127,441.044 467.96,441.377 464.5,438.5C 457.199,395.725 438.199,359.225 407.5,329C 397.548,321.052 387.048,313.885 376,307.5C 365.742,294.571 354.742,282.238 343,270.5C 334.918,261.424 331.084,250.757 331.5,238.5C 331.267,231.566 332.433,224.899 335,218.5C 338.592,211.646 342.925,205.313 348,199.5C 356.69,191.809 365.023,183.809 373,175.5C 386.62,153.005 385.287,131.338 369,110.5C 357.497,97.1667 343.997,86.3334 328.5,78C 327.199,76.3845 327.199,74.8845 328.5,73.5C 335.286,75.059 342.286,76.059 349.5,76.5C 351.126,76.9383 352.793,77.2716 354.5,77.5C 364.838,75.3327 375.172,73.166 385.5,71C 389.541,70.1735 393.541,70.3401 397.5,71.5C 393.043,74.9012 388.377,78.0678 383.5,81C 382.663,82.0113 382.33,83.1779 382.5,84.5C 400.241,86.4741 417.908,88.9741 435.5,92C 444.092,93.1317 451.426,96.6317 457.5,102.5 Z"/></g>
<g><path style="opacity:1" fill="#d6d6d6" d="M 266.5,73.5 C 261.786,75.1836 257.119,75.517 252.5,74.5C 257.159,72.4308 261.825,72.0975 266.5,73.5 Z"/></g>
<g><path style="opacity:1" fill="#d9d8d8" d="M 349.5,76.5 C 342.286,76.059 335.286,75.059 328.5,73.5C 335.999,71.5926 342.999,72.5926 349.5,76.5 Z"/></g>
<g><path style="opacity:1" fill="#2f2826" d="M 457.5,102.5 C 479.031,113.03 494.364,129.364 503.5,151.5C 490.515,140.997 476.182,132.497 460.5,126C 456.667,122.833 452.833,119.667 449,116.5C 448.365,114.365 448.699,112.365 450,110.5C 452.333,108.5 454.667,106.5 457,104.5C 457.464,103.906 457.631,103.239 457.5,102.5 Z"/></g>
<g><path style="opacity:1" fill="#2f2725" d="M 143.5,107.5 C 147.487,109.305 148.987,112.305 148,116.5C 132.932,126.417 117.765,136.084 102.5,145.5C 112.375,128.621 126.041,115.954 143.5,107.5 Z"/></g>
<g><path style="opacity:1" fill="#2f2725" d="M 134.5,441.5 C 132.373,453.058 130.706,464.724 129.5,476.5C 92.9274,481.632 60.5941,472.465 32.5,449C 19.4887,436.148 11.322,420.648 8,402.5C 4.50129,381.49 6.83463,361.157 15,341.5C 21.3932,327.047 28.0599,312.713 35,298.5C 40.0011,280.495 45.0011,262.495 50,244.5C 52.079,240.007 54.4123,235.674 57,231.5C 66.4481,219.382 75.1148,206.716 83,193.5C 87.7073,182.559 91.2073,171.559 93.5,160.5C 95.7402,159.313 98.2402,158.646 101,158.5C 103.952,158.052 105.785,159.219 106.5,162C 100.15,175.367 93.9837,188.867 88,202.5C 83.4628,212.353 81.2961,222.687 81.5,233.5C 83.5,233.5 85.5,233.5 87.5,233.5C 82.0514,275.484 84.3847,316.984 94.5,358C 97.3766,358.725 100.043,358.225 102.5,356.5C 102.833,357 103.167,357.5 103.5,358C 100.821,361.503 98.8213,365.336 97.5,369.5C 103.861,394.773 114.361,418.106 129,439.5C 130.444,441.155 132.278,441.822 134.5,441.5 Z"/></g>
<g><path style="opacity:1" fill="#2f2725" d="M 508.5,162.5 C 510.631,171.059 513.464,179.392 517,187.5C 528.06,203.563 538.727,219.897 549,236.5C 554.642,255.066 559.975,273.732 565,292.5C 575.62,312.365 584.287,333.032 591,354.5C 600.189,416.624 574.356,455.124 513.5,470C 498.849,471.791 484.183,471.958 469.5,470.5C 468.489,459.716 466.822,449.049 464.5,438.5C 467.96,441.377 471.127,441.044 474,437.5C 479.557,429.719 484.057,421.385 487.5,412.5C 497.141,398.28 502.975,382.614 505,365.5C 502.688,362.354 500.188,359.354 497.5,356.5C 499.523,355.959 501.523,356.459 503.5,358C 505.167,358.667 506.833,358.667 508.5,358C 510.046,353.981 511.046,349.815 511.5,345.5C 519.053,309.893 520.386,274.06 515.5,238C 517.421,232.374 517.921,226.541 517,220.5C 510.628,200.919 502.461,182.085 492.5,164C 492.645,163.228 492.978,162.561 493.5,162C 498.519,161.502 503.519,161.668 508.5,162.5 Z"/></g>
<g><path style="opacity:1" fill="#302826" d="M 244.5,199.5 C 250.693,205.514 255.693,212.514 259.5,220.5C 258.087,224.457 255.754,227.957 252.5,231C 247.845,231.499 243.179,231.666 238.5,231.5C 225.537,230.107 212.87,231.607 200.5,236C 199.627,237.045 198.627,237.878 197.5,238.5C 197.265,237.903 196.765,237.57 196,237.5C 186.169,241.164 177.002,245.998 168.5,252C 165.364,253.041 162.864,252.207 161,249.5C 160.333,246.167 160.333,242.833 161,239.5C 180.799,209.4 208.632,196.067 244.5,199.5 Z"/></g>
<g><path style="opacity:1" fill="#302826" d="M 435.5,252.5 C 434.127,252.657 432.793,252.49 431.5,252C 421.702,245.768 411.369,240.601 400.5,236.5C 387.496,231.723 374.162,230.389 360.5,232.5C 356.353,231.675 352.019,231.175 347.5,231C 345.667,229.833 344.167,228.333 343,226.5C 339.493,213.017 344.326,203.851 357.5,199C 392.369,197.185 419.536,210.685 439,239.5C 439.667,242.5 439.667,245.5 439,248.5C 438.34,250.324 437.173,251.657 435.5,252.5 Z"/></g>
<g><path style="opacity:1" fill="#010101" d="M 238.5,231.5 C 243.505,236.166 247.005,241.832 249,248.5C 249.659,272.174 238.159,283.341 214.5,282C 194.236,273.294 188.569,258.794 197.5,238.5C 198.627,237.878 199.627,237.045 200.5,236C 212.87,231.607 225.537,230.107 238.5,231.5 Z"/></g>
<g><path style="opacity:1" fill="#010101" d="M 400.5,236.5 C 407.094,245.767 408.261,255.767 404,266.5C 399.334,275.395 392.167,280.729 382.5,282.5C 374.841,283.225 367.841,281.392 361.5,277C 347.31,262.31 346.977,247.476 360.5,232.5C 374.162,230.389 387.496,231.723 400.5,236.5 Z"/></g>
<g><path style="opacity:1" fill="#464442" d="M 400.5,236.5 C 411.369,240.601 421.702,245.768 431.5,252C 432.793,252.49 434.127,252.657 435.5,252.5C 460.126,284.091 485.46,315.091 511.5,345.5C 511.046,349.815 510.046,353.981 508.5,358C 506.833,358.667 505.167,358.667 503.5,358C 501.523,356.459 499.523,355.959 497.5,356.5C 500.188,359.354 502.688,362.354 505,365.5C 502.975,382.614 497.141,398.28 487.5,412.5C 454.835,369.199 421.668,326.199 388,283.5C 386.301,282.594 384.467,282.261 382.5,282.5C 392.167,280.729 399.334,275.395 404,266.5C 408.261,255.767 407.094,245.767 400.5,236.5 Z"/></g>
<g><path style="opacity:1" fill="#f0f0f0" d="M 225.5,239.5 C 233.037,241.688 234.371,245.855 229.5,252C 222.667,253.167 219.833,250.333 221,243.5C 222.25,241.807 223.75,240.473 225.5,239.5 Z"/></g>
<g><path style="opacity:1" fill="#f2f2f2" d="M 380.5,240.5 C 389.24,239.717 391.907,243.217 388.5,251C 379.069,253.05 376.402,249.55 380.5,240.5 Z"/></g>
<g><path style="opacity:1" fill="#e9e9e9" d="M 272.5,252.5 C 286.513,268.516 300.18,284.849 313.5,301.5C 282.503,299.132 253.336,305.132 226,319.5C 225.617,318.944 225.117,318.611 224.5,318.5C 237.747,301.746 251.581,285.413 266,269.5C 268.332,263.787 270.499,258.12 272.5,252.5 Z"/></g>
<g><path style="opacity:1" fill="#f1f1f1" d="M 313.5,301.5 C 331.725,302.844 349.392,307.51 366.5,315.5C 367.107,315.376 367.44,315.043 367.5,314.5C 409.837,338.408 437.337,374.075 450,421.5C 455.934,441.434 458.934,461.767 459,482.5C 456.939,494.953 450.606,504.619 440,511.5C 437.466,503.415 435.799,495.082 435,486.5C 434.632,485.09 433.799,484.09 432.5,483.5C 431.592,494.918 430.092,506.251 428,517.5C 426.749,520.381 424.583,522.214 421.5,523C 417.106,525.469 412.439,526.469 407.5,526C 404.593,522.44 401.759,518.94 399,515.5C 390.939,525.874 380.772,533.707 368.5,539C 339.382,549.301 309.382,552.968 278.5,550C 256.621,549.038 236.287,543.038 217.5,532C 211.3,526.798 205.467,521.298 200,515.5C 197.142,518.705 194.642,522.205 192.5,526C 184.94,526.312 178.106,524.146 172,519.5C 171.333,517.5 170.667,515.5 170,513.5C 169.384,503.4 168.217,493.4 166.5,483.5C 165.201,484.09 164.368,485.09 164,486.5C 163,493.833 162,501.167 161,508.5C 160.612,509.428 159.945,510.095 159,510.5C 151.168,506.33 145.835,499.997 143,491.5C 139.618,447.359 149.618,406.359 173,368.5C 186.45,347.881 203.617,331.215 224.5,318.5C 225.117,318.611 225.617,318.944 226,319.5C 253.336,305.132 282.503,299.132 313.5,301.5 Z"/></g>
<g><path style="opacity:1" fill="#010101" d="M 288.5,365.5 C 298.867,365.319 309.2,365.819 319.5,367C 346.917,372.338 354.75,387.504 343,412.5C 317.418,438.361 290.251,440.194 261.5,418C 251.202,407.369 248.702,395.202 254,381.5C 258.436,375.518 264.269,371.352 271.5,369C 277.301,367.816 282.968,366.649 288.5,365.5 Z"/></g>
</svg>
