<?xml version="1.0" encoding="UTF-8"?>
<!DOCTYPE svg PUBLIC "-//W3C//DTD SVG 1.1//EN" "http://www.w3.org/Graphics/SVG/1.1/DTD/svg11.dtd">
<svg xmlns="http://www.w3.org/2000/svg" version="1.1" width="600px" height="600px" style="shape-rendering:geometricPrecision; text-rendering:geometricPrecision; image-rendering:optimizeQuality; fill-rule:evenodd; clip-rule:evenodd" xmlns:xlink="http://www.w3.org/1999/xlink">
<g><path style="opacity:0.974" fill="#030202" d="M 599.5,150.5 C 599.5,171.833 599.5,193.167 599.5,214.5C 590.293,237.579 578.46,259.246 564,279.5C 549.773,306.612 537.773,334.612 528,363.5C 520.68,370.976 512.846,371.809 504.5,366C 501.639,363.106 499.139,359.939 497,356.5C 494.363,363.777 490.696,370.444 486,376.5C 478.037,383.976 469.704,390.976 461,397.5C 456.504,403.156 452.504,409.156 449,415.5C 439.59,435.985 429.923,456.319 420,476.5C 420.16,506.376 406.993,527.876 380.5,541C 365.691,546.907 350.691,547.574 335.5,543C 327.999,540.079 320.666,536.913 313.5,533.5C 304.824,534.59 296.157,534.757 287.5,534C 260.684,550.915 234.351,550.249 208.5,532C 192.378,517.916 184.211,500.083 184,478.5C 173.14,456.253 162.474,433.919 152,411.5C 149.333,407.5 146.667,403.5 144,399.5C 135.667,392.5 127.333,385.5 119,378.5C 112.976,370.455 107.976,361.788 104,352.5C 100.442,362.063 93.7754,368.063 84,370.5C 78.0129,369.506 73.3462,366.506 70,361.5C 57.195,320.706 38.8616,282.706 15,247.5C 9.23868,236.65 4.07201,225.65 -0.5,214.5C -0.5,193.167 -0.5,171.833 -0.5,150.5C 4.88729,142.274 11.554,135.108 19.5,129C 29.3323,121.914 39.6656,115.581 50.5,110C 89.3812,92.0592 128.381,74.3925 167.5,57C 181.152,52.4976 193.485,54.8309 204.5,64C 208.573,68.6969 212.74,73.1969 217,77.5C 272.223,59.2104 327.557,58.8771 383,76.5C 386.466,73.3622 389.633,69.8622 392.5,66C 401.449,57.3504 412.115,53.6837 424.5,55C 467.628,72.8962 510.295,91.8962 552.5,112C 567.738,120.236 581.572,130.403 594,142.5C 595.609,145.407 597.442,148.073 599.5,150.5 Z"/></g>
<g><path style="opacity:1" fill="#26150d" d="M 211.5,90.5 C 212.939,95.2494 212.772,99.9161 211,104.5C 189.618,117.548 172.618,134.881 160,156.5C 145.008,182.823 133.008,210.489 124,239.5C 116.4,264.9 109.9,290.566 104.5,316.5C 101.125,329.452 96.6249,342.119 91,354.5C 88.1126,359.142 84.4459,360.142 80,357.5C 67.3265,317.489 49.3265,280.156 26,245.5C 16.0447,228.631 9.04466,210.631 5,191.5C 1.12781,171.452 6.62781,154.619 21.5,141C 39.3546,128.232 58.3546,117.232 78.5,108C 110.416,94.5828 142.083,80.5828 173.5,66C 185.13,63.7652 194.63,67.2652 202,76.5C 205.421,81.0707 208.588,85.7374 211.5,90.5 Z"/></g>
<g><path style="opacity:1" fill="#26150d" d="M 496.5,324.5 C 487.648,277.755 474.148,232.422 456,188.5C 443.842,161.02 427.009,136.853 405.5,116C 399.388,112.221 393.555,108.055 388,103.5C 386.274,98.818 386.441,94.1514 388.5,89.5C 392.853,81.6405 398.52,74.8072 405.5,69C 412.54,65.2466 419.874,64.5799 427.5,67C 457.584,80.9164 487.918,94.2497 518.5,107C 539.134,115.976 558.467,126.976 576.5,140C 591.404,152.745 597.57,168.911 595,188.5C 591.489,206.857 585.155,224.191 576,240.5C 551.473,276.223 532.807,314.89 520,356.5C 516.043,360.53 512.377,360.197 509,355.5C 503.764,345.507 499.597,335.174 496.5,324.5 Z"/></g>
<g><path style="opacity:1" fill="#f7f4f4" d="M 290.5,74.5 C 298.174,74.3336 305.841,74.5003 313.5,75C 322.675,76.9966 328.509,82.4966 331,91.5C 331.667,97.5 331.667,103.5 331,109.5C 326.424,149.109 322.424,188.775 319,228.5C 315.389,256.843 320.389,283.509 334,308.5C 348.275,330.44 362.942,352.107 378,373.5C 391.581,396.237 401.248,420.571 407,446.5C 408.524,459.796 408.857,473.129 408,486.5C 403.105,516.893 385.272,533.226 354.5,535.5C 336.311,533.737 320.644,526.57 307.5,514C 303.833,510.667 300.167,510.667 296.5,514C 283.356,526.57 267.689,533.737 249.5,535.5C 229.316,534.996 213.816,526.329 203,509.5C 200.211,504.466 198.211,499.132 197,493.5C 192.903,467.438 195.569,442.105 205,417.5C 209.885,404.863 215.551,392.53 222,380.5C 237.667,357.167 253.333,333.833 269,310.5C 283.476,284.651 288.809,256.985 285,227.5C 281.434,184.937 277.267,142.437 272.5,100C 271.768,86.5997 277.768,78.0997 290.5,74.5 Z"/></g>
<g><path style="opacity:1" fill="#362e2b" d="M 104.5,316.5 C 109.9,290.566 116.4,264.9 124,239.5C 133.008,210.489 145.008,182.823 160,156.5C 172.618,134.881 189.618,117.548 211,104.5C 212.772,99.9161 212.939,95.2494 211.5,90.5C 229.511,82.9959 248.178,78.6625 267.5,77.5C 263.486,83.8912 261.819,90.8912 262.5,98.5C 265.42,132.269 268.587,165.935 272,199.5C 266.5,195.333 261,191.167 255.5,187C 248.513,183.75 241.18,181.417 233.5,180C 201.944,174.385 175.778,183.552 155,207.5C 148.777,217.151 143.11,227.151 138,237.5C 134.472,248.045 131.805,258.712 130,269.5C 126.231,299.903 129.897,329.237 141,357.5C 145,364.167 149,370.833 153,377.5C 159.833,384.333 166.667,391.167 173.5,398C 179.588,400.808 185.588,403.808 191.5,407C 193.5,407.333 195.5,407.667 197.5,408C 191.069,423.889 186.903,440.389 185,457.5C 176.724,437.617 167.391,418.283 157,399.5C 150.405,389.571 141.905,381.738 131.5,376C 123.282,368.409 117.449,359.242 114,348.5C 110.205,337.981 107.039,327.314 104.5,316.5 Z"/></g>
<g><path style="opacity:1" fill="#362e2b" d="M 388.5,89.5 C 386.441,94.1514 386.274,98.818 388,103.5C 393.555,108.055 399.388,112.221 405.5,116C 427.009,136.853 443.842,161.02 456,188.5C 474.148,232.422 487.648,277.755 496.5,324.5C 493.399,338.971 488.233,352.638 481,365.5C 473.109,374.39 464.276,382.224 454.5,389C 449.945,394.555 445.779,400.388 442,406.5C 434.044,422.743 426.377,439.077 419,455.5C 416.784,439.135 412.617,423.302 406.5,408C 435.907,398.26 455.74,378.76 466,349.5C 478.909,311.173 478.576,273.173 465,235.5C 455.033,211.866 438.533,194.366 415.5,183C 411.465,182.126 407.465,181.126 403.5,180C 390.833,179.333 378.167,179.333 365.5,180C 359.349,182.034 353.349,184.367 347.5,187C 342.667,190.5 337.833,194 333,197.5C 335.368,164.818 338.201,132.151 341.5,99.5C 342.533,91.1302 340.533,83.6302 335.5,77C 353.696,78.7987 371.363,82.9654 388.5,89.5 Z"/></g>
<g><path style="opacity:1" fill="#725328" d="M 373.5,190.5 C 381.656,189.343 389.99,189.177 398.5,190C 399.737,190.232 400.737,190.732 401.5,191.5C 392.199,190.613 382.866,190.279 373.5,190.5 Z"/></g>
<g><path style="opacity:1" fill="#a27639" d="M 180.5,386.5 C 174.485,380.485 168.818,374.151 163.5,367.5C 162.754,366.264 162.421,364.93 162.5,363.5C 160.678,363.169 159.011,362.502 157.5,361.5C 140.433,331.292 135.266,298.959 142,264.5C 146.211,246.527 153.878,230.194 165,215.5C 169.406,210.589 174.24,206.255 179.5,202.5C 182.486,201.192 185.486,199.859 188.5,198.5C 189.298,198.043 189.631,197.376 189.5,196.5C 195.171,194.833 200.837,193.333 206.5,192C 207.056,191.617 207.389,191.117 207.5,190.5C 235.77,187.381 257.937,197.714 274,221.5C 278.241,246.446 275.574,270.446 266,293.5C 261.92,301.329 257.587,308.996 253,316.5C 242,332.167 231,347.833 220,363.5C 213.354,374.459 207.521,385.793 202.5,397.5C 194.302,395.401 186.968,391.734 180.5,386.5 Z"/></g>
<g><path style="opacity:1" fill="#a17639" d="M 373.5,190.5 C 382.866,190.279 392.199,190.613 401.5,191.5C 411.497,193.719 420.164,198.386 427.5,205.5C 430.425,209.091 433.758,212.425 437.5,215.5C 451.454,231.466 459.954,250.133 463,271.5C 467.06,299.603 463.393,326.603 452,352.5C 451.303,354.584 450.136,356.251 448.5,357.5C 445.762,360.956 442.762,364.289 439.5,367.5C 438.523,369.411 437.857,371.411 437.5,373.5C 428.093,385.456 416.093,392.956 401.5,396C 396.048,384.928 390.215,374.094 384,363.5C 370.753,344.674 357.753,325.674 345,306.5C 329.018,279.952 324.018,251.285 330,220.5C 340.693,204.909 355.193,194.909 373.5,190.5 Z"/></g>
<g><path style="opacity:1" fill="#77572a" d="M 207.5,190.5 C 207.389,191.117 207.056,191.617 206.5,192C 200.837,193.333 195.171,194.833 189.5,196.5C 194.786,192.738 200.786,190.738 207.5,190.5 Z"/></g>
<g><path style="opacity:1" fill="#664b24" d="M 189.5,196.5 C 189.631,197.376 189.298,198.043 188.5,198.5C 185.486,199.859 182.486,201.192 179.5,202.5C 182.161,199.498 185.495,197.498 189.5,196.5 Z"/></g>
<g><path style="opacity:1" fill="#5c4322" d="M 427.5,205.5 C 431.855,207.855 435.188,211.188 437.5,215.5C 433.758,212.425 430.425,209.091 427.5,205.5 Z"/></g>
<g><path style="opacity:1" fill="#d6c1a4" d="M 201.5,247.5 C 228.356,245.333 245.856,257 254,282.5C 256.548,308.614 245.381,325.78 220.5,334C 191.647,337.138 173.813,324.638 167,296.5C 166.291,271.402 177.791,255.068 201.5,247.5 Z"/></g>
<g><path style="opacity:1" fill="#d6c1a4" d="M 383.5,247.5 C 410.14,245.008 427.64,256.342 436,281.5C 439.079,307.73 428.246,325.23 403.5,334C 376.473,337.408 358.639,326.241 350,300.5C 347.178,273.85 358.344,256.184 383.5,247.5 Z"/></g>
<g><path style="opacity:1" fill="#020303" d="M 203.5,260.5 C 229.509,259.343 242.009,271.676 241,297.5C 233.946,318.278 219.78,325.778 198.5,320C 184.589,312.733 178.423,301.233 180,285.5C 182.942,272.396 190.775,264.063 203.5,260.5 Z"/></g>
<g><path style="opacity:1" fill="#020303" d="M 385.5,260.5 C 407.569,258.407 420.569,268.241 424.5,290C 423.136,309.697 412.636,320.531 393,322.5C 370.623,319.114 360.623,306.114 363,283.5C 366.693,271.975 374.193,264.308 385.5,260.5 Z"/></g>
<g><path style="opacity:1" fill="#ececec" d="M 199.5,272.5 C 207.709,271.872 211.209,275.539 210,283.5C 205.333,288.833 200.667,288.833 196,283.5C 194.662,278.96 195.829,275.293 199.5,272.5 Z"/></g>
<g><path style="opacity:1" fill="#eaeaea" d="M 381.5,272.5 C 391.554,272.379 394.554,276.879 390.5,286C 381.961,289.451 377.794,286.618 378,277.5C 378.997,275.677 380.164,274.01 381.5,272.5 Z"/></g>
<g><path style="opacity:1" fill="#735429" d="M 448.5,357.5 C 445.607,363.388 441.94,368.722 437.5,373.5C 437.857,371.411 438.523,369.411 439.5,367.5C 442.762,364.289 445.762,360.956 448.5,357.5 Z"/></g>
<g><path style="opacity:1" fill="#644924" d="M 157.5,361.5 C 159.011,362.502 160.678,363.169 162.5,363.5C 162.421,364.93 162.754,366.264 163.5,367.5C 168.818,374.151 174.485,380.485 180.5,386.5C 171.099,379.765 163.432,371.432 157.5,361.5 Z"/></g>
<g><path style="opacity:1" fill="#050303" d="M 289.5,411.5 C 301.206,411.765 312.872,412.598 324.5,414C 347.265,418.382 356.432,431.882 352,454.5C 343.075,472.08 328.909,482.914 309.5,487C 287.224,488.61 269.057,480.777 255,463.5C 243.588,442.072 248.754,426.239 270.5,416C 276.946,414.417 283.28,412.917 289.5,411.5 Z"/></g>
<g><path style="opacity:1" fill="#320f13" d="M 300.5,421.5 C 312.733,421.427 324.399,423.927 335.5,429C 343.703,436.119 345.536,444.619 341,454.5C 327.124,474.258 308.624,480.758 285.5,474C 276.521,470.015 269.021,464.182 263,456.5C 255.492,438.69 261.325,427.856 280.5,424C 287.308,423.117 293.975,422.283 300.5,421.5 Z"/></g>
</svg>
