<?xml version="1.0" encoding="UTF-8"?>
<!DOCTYPE svg PUBLIC "-//W3C//DTD SVG 1.1//EN" "http://www.w3.org/Graphics/SVG/1.1/DTD/svg11.dtd">
<svg xmlns="http://www.w3.org/2000/svg" version="1.1" width="600px" height="600px" style="shape-rendering:geometricPrecision; text-rendering:geometricPrecision; image-rendering:optimizeQuality; fill-rule:evenodd; clip-rule:evenodd" xmlns:xlink="http://www.w3.org/1999/xlink">
<g><path style="opacity:0.953" fill="#010000" d="M 599.5,229.5 C 599.5,245.833 599.5,262.167 599.5,278.5C 591.826,293.345 583.492,307.845 574.5,322C 578.852,328.038 581.852,334.705 583.5,342C 581.59,352.364 575.757,355.864 566,352.5C 563.734,353.956 561.234,354.79 558.5,355C 549.356,371.404 549.522,387.57 559,403.5C 563.84,420.179 557.674,430.179 540.5,433.5C 532.483,432.49 525.483,429.323 519.5,424C 500.902,405.316 486.402,383.816 476,359.5C 472.41,366.348 469.077,373.348 466,380.5C 458.604,400.288 450.938,419.955 443,439.5C 436.115,454.937 428.448,469.937 420,484.5C 417.364,501.421 411.03,516.754 401,530.5C 384.348,546.663 365.014,550.996 343,543.5C 328.286,547.298 313.286,549.298 298,549.5C 283.031,549.025 268.198,547.358 253.5,544.5C 221.487,553.073 198.653,542.406 185,512.5C 183,506.5 181,500.5 179,494.5C 160.39,448.946 142.057,403.28 124,357.5C 113.254,383.576 97.7543,406.409 77.5,426C 66.2584,435.008 54.9251,435.341 43.5,427C 38.365,420.181 37.1984,412.681 40,404.5C 49.378,388.575 49.878,372.242 41.5,355.5C 38.5054,354.867 35.672,353.867 33,352.5C 26.9911,355.247 21.9911,353.914 18,348.5C 16.6323,345.262 16.2989,341.928 17,338.5C 18.8177,332.697 21.3177,327.197 24.5,322C 15.7591,307.347 7.42578,292.514 -0.5,277.5C -0.5,261.5 -0.5,245.5 -0.5,229.5C 30.3563,187.466 65.6897,149.299 105.5,115C 102.664,109.666 102.998,104.5 106.5,99.5C 100.297,94.3943 98.4635,88.061 101,80.5C 104.286,76.6344 108.452,75.1344 113.5,76C 124.195,80.431 134.695,85.2644 145,90.5C 155.531,85.0738 166.698,81.5738 178.5,80C 216.474,58.7993 257.307,48.966 301,50.5C 336.144,49.5958 369.977,55.7625 402.5,69C 410.153,72.4919 417.487,76.4919 424.5,81C 435.005,82.6253 445.005,85.792 454.5,90.5C 465.379,84.3924 476.712,79.3924 488.5,75.5C 498.525,77.6871 501.692,83.6871 498,93.5C 495.833,95.6667 493.667,97.8333 491.5,100C 495.855,104.655 496.522,109.821 493.5,115.5C 533.461,149.452 568.795,187.452 599.5,229.5 Z"/></g>
<g><path style="opacity:1" fill="#46291a" d="M 422.5,91.5 C 452.156,114.087 471.323,143.754 480,180.5C 486.109,212.553 488.109,244.886 486,277.5C 485.728,294.814 482.561,311.481 476.5,327.5C 462.655,360.197 449.488,393.197 437,426.5C 430.82,440.907 423.986,454.907 416.5,468.5C 414.246,467.585 412.246,466.252 410.5,464.5C 409.188,465.46 407.854,465.294 406.5,464C 385.217,447.538 363.551,431.704 341.5,416.5C 334.354,412.507 326.688,410.007 318.5,409C 300.595,406.305 282.929,407.305 265.5,412C 242.278,422.794 236.778,439.627 249,462.5C 260.324,476.415 274.824,485.081 292.5,488.5C 292.414,489.496 292.748,490.329 293.5,491C 311.454,504.619 329.121,518.619 346.5,533C 346.272,533.399 345.938,533.565 345.5,533.5C 344.167,533.5 342.833,533.5 341.5,533.5C 327.421,528.088 312.921,523.754 298,520.5C 283.071,523.758 268.571,528.091 254.5,533.5C 243.59,536.387 232.59,536.887 221.5,535C 212.975,532.462 206.142,527.629 201,520.5C 195.02,510.534 190.686,499.868 188,488.5C 165.608,434.154 144.108,379.487 123.5,324.5C 119.66,311.464 117.16,298.131 116,284.5C 112.773,250.568 114.44,216.901 121,183.5C 129.194,145.401 148.694,114.735 179.5,91.5C 204.543,75.7619 231.876,66.2619 261.5,63C 297.127,58.59 332.46,60.2567 367.5,68C 387.095,73.1376 405.429,80.9709 422.5,91.5 Z"/></g>
<g><path style="opacity:1" fill="#391b0f" d="M 179.5,91.5 C 148.694,114.735 129.194,145.401 121,183.5C 114.44,216.901 112.773,250.568 116,284.5C 117.16,298.131 119.66,311.464 123.5,324.5C 119.086,344.34 111.586,363.006 101,380.5C 92.0262,395.478 80.8595,408.645 67.5,420C 62.1168,423.127 56.7835,423.127 51.5,420C 49.9508,417.902 48.9508,415.568 48.5,413C 50.8682,406.925 53.5349,400.925 56.5,395C 59.8177,376.415 56.651,358.915 47,342.5C 44.1883,341.463 41.6883,342.13 39.5,344.5C 39.1667,344 38.8333,343.5 38.5,343C 39.5631,340.102 41.2298,337.602 43.5,335.5C 42.2343,329.704 39.7343,329.038 36,333.5C 33.8614,336.939 31.3614,340.106 28.5,343C 27.5165,343.591 26.8499,343.257 26.5,342C 28.6686,335.83 31.5019,329.996 35,324.5C 35.6667,322.833 35.6667,321.167 35,319.5C 25.4768,303.121 16.4768,286.454 8,269.5C 4.76627,261.105 3.76627,252.438 5,243.5C 7.89528,236.708 11.5619,230.375 16,224.5C 45.8518,185.312 79.8518,149.979 118,118.5C 118.667,116.833 118.667,115.167 118,113.5C 116.122,111.957 114.622,110.124 113.5,108C 118.463,108.314 123.296,109.481 128,111.5C 129.657,110.516 131.323,109.516 133,108.5C 133.624,106.536 133.124,104.869 131.5,103.5C 126.179,99.1716 120.512,95.3382 114.5,92C 112.981,90.6487 111.648,89.1487 110.5,87.5C 111,87.1667 111.5,86.8333 112,86.5C 123,91.5 134,96.5 145,101.5C 155.724,95.3818 167.224,92.0485 179.5,91.5 Z"/></g>
<g><path style="opacity:1" fill="#391b0f" d="M 476.5,327.5 C 482.561,311.481 485.728,294.814 486,277.5C 488.109,244.886 486.109,212.553 480,180.5C 471.323,143.754 452.156,114.087 422.5,91.5C 433.47,93.3232 443.97,96.6565 454,101.5C 464.59,96.787 475.09,91.9536 485.5,87C 486.833,86.3333 488.167,86.3333 489.5,87C 483.777,92.3751 477.443,97.0418 470.5,101C 467.588,102.858 466.088,105.358 466,108.5C 467.351,110.01 469.018,111.01 471,111.5C 475.136,110.066 479.303,108.732 483.5,107.5C 484.167,107.833 484.833,108.167 485.5,108.5C 484.185,110.316 482.685,111.983 481,113.5C 480.333,115.167 480.333,116.833 481,118.5C 524.317,153.904 561.65,194.57 593,240.5C 595.937,250.654 595.27,260.654 591,270.5C 582.208,287.921 573.041,305.087 563.5,322C 566.762,328.414 569.762,334.914 572.5,341.5C 572.267,342.932 571.6,343.432 570.5,343C 567.405,338.815 564.072,334.815 560.5,331C 558.174,330.815 556.84,331.982 556.5,334.5C 556.894,336.955 558.06,338.955 560,340.5C 561.018,345.241 559.852,345.741 556.5,342C 554.888,341.28 553.388,341.446 552,342.5C 548.407,350.279 545.407,358.279 543,366.5C 541.495,375.113 541.161,383.78 542,392.5C 545.265,399.191 548.098,406.025 550.5,413C 549.49,420.665 545.156,423.665 537.5,422C 533.929,420.881 530.596,419.215 527.5,417C 502.063,391.958 485.063,362.125 476.5,327.5 Z"/></g>
<g><path style="opacity:1" fill="#010202" d="M 209.5,223.5 C 230.761,223.907 244.928,234.24 252,254.5C 252.667,256.5 252.667,258.5 252,260.5C 243.484,263.503 234.984,266.669 226.5,270C 214.151,273.094 202.484,271.428 191.5,265C 185.913,261.29 180.413,257.457 175,253.5C 174.333,251.833 174.333,250.167 175,248.5C 183.336,235.645 194.836,227.312 209.5,223.5 Z"/></g>
<g><path style="opacity:1" fill="#010202" d="M 378.5,223.5 C 398.44,223.722 413.606,232.389 424,249.5C 424.667,250.5 424.667,251.5 424,252.5C 414.497,261.667 403.331,267.834 390.5,271C 384.442,271.739 378.442,271.406 372.5,270C 364.26,266.712 355.927,263.712 347.5,261C 346.234,257.491 346.401,253.991 348,250.5C 354.62,237.374 364.786,228.374 378.5,223.5 Z"/></g>
<g><path style="opacity:1" fill="#f1f1f1" d="M 218.5,233.5 C 225.736,233.892 228.57,237.559 227,244.5C 224.487,248.212 220.987,249.378 216.5,248C 210.76,242.211 211.427,237.378 218.5,233.5 Z"/></g>
<g><path style="opacity:1" fill="#f2f2f2" d="M 390.5,233.5 C 400.219,235.705 401.886,240.539 395.5,248C 387.501,249.665 384.001,246.498 385,238.5C 386.352,236.251 388.185,234.584 390.5,233.5 Z"/></g>
<g><path style="opacity:1" fill="#241200" d="M 341.5,416.5 C 352.015,424.551 356.181,435.218 354,448.5C 351.313,459.364 345.48,468.198 336.5,475C 323.421,484.637 308.754,489.137 292.5,488.5C 274.824,485.081 260.324,476.415 249,462.5C 236.778,439.627 242.278,422.794 265.5,412C 282.929,407.305 300.595,406.305 318.5,409C 326.688,410.007 334.354,412.507 341.5,416.5 Z"/></g>
<g><path style="opacity:1" fill="#422718" d="M 341.5,416.5 C 363.551,431.704 385.217,447.538 406.5,464C 407.854,465.294 409.188,465.46 410.5,464.5C 412.246,466.252 414.246,467.585 416.5,468.5C 414.267,473.299 411.767,477.965 409,482.5C 407.432,500.13 400.598,515.296 388.5,528C 375.045,537.036 360.712,538.87 345.5,533.5C 345.938,533.565 346.272,533.399 346.5,533C 329.121,518.619 311.454,504.619 293.5,491C 292.748,490.329 292.414,489.496 292.5,488.5C 308.754,489.137 323.421,484.637 336.5,475C 345.48,468.198 351.313,459.364 354,448.5C 356.181,435.218 352.015,424.551 341.5,416.5 Z"/></g>
<g><path style="opacity:1" fill="#231100" d="M 341.5,533.5 C 312.472,539.775 283.472,539.775 254.5,533.5C 268.571,528.091 283.071,523.758 298,520.5C 312.921,523.754 327.421,528.088 341.5,533.5 Z"/></g>
</svg>
