<?xml version="1.0" encoding="UTF-8"?>
<!DOCTYPE svg PUBLIC "-//W3C//DTD SVG 1.1//EN" "http://www.w3.org/Graphics/SVG/1.1/DTD/svg11.dtd">
<svg xmlns="http://www.w3.org/2000/svg" version="1.1" width="600px" height="600px" style="shape-rendering:geometricPrecision; text-rendering:geometricPrecision; image-rendering:optimizeQuality; fill-rule:evenodd; clip-rule:evenodd" xmlns:xlink="http://www.w3.org/1999/xlink">
<g><path style="opacity:0.949" fill="#000000" d="M 39.5,15.5 C 47.0768,15.7475 54.0768,17.9141 60.5,22C 86.2166,38.3742 110.217,57.0408 132.5,78C 149.167,93.3333 165.167,109.333 180.5,126C 184.545,129.523 189.211,131.689 194.5,132.5C 254.692,107.582 316.025,104.415 378.5,123C 386.278,125.723 393.945,128.723 401.5,132C 403.5,132.667 405.5,132.667 407.5,132C 411.4,130.435 415.066,128.435 418.5,126C 448.382,93.4421 480.716,63.7755 515.5,37C 525.711,29.1416 536.711,22.4749 548.5,17C 561.96,13.479 571.794,17.979 578,30.5C 586.957,52.0687 591.123,74.5687 590.5,98C 591.154,144.409 580.987,188.242 560,229.5C 546.704,252.145 530.371,272.478 511,290.5C 511.982,309.701 510.315,328.701 506,347.5C 502.105,369.084 495.439,389.751 486,409.5C 479.451,420.383 470.617,428.883 459.5,435C 451.429,443.748 444.929,453.582 440,464.5C 431.311,483.874 422.644,503.207 414,522.5C 406.254,534.914 396.421,545.414 384.5,554C 350.179,571.396 313.846,577.729 275.5,573C 250.547,569.796 227.547,561.463 206.5,548C 194.183,536.865 184.683,523.698 178,508.5C 170.025,487.549 160.691,467.215 150,447.5C 146.917,442.412 143.083,437.912 138.5,434C 132.096,430.265 126.263,425.765 121,420.5C 110.179,405.849 102.846,389.516 99,371.5C 90.8775,345.1 87.2109,318.1 88,290.5C 39.4354,246.026 13.4354,190.693 10,124.5C 7.21164,98.2047 8.8783,72.2047 15,46.5C 17.6316,36.3991 22.4649,27.5657 29.5,20C 32.8153,18.1702 36.1486,16.6702 39.5,15.5 Z"/></g>
<g><path style="opacity:1" fill="#362e2b" d="M 411.5,500.5 C 393.772,446.097 356.106,418.097 298.5,416.5C 241.839,418.462 204.505,446.129 186.5,499.5C 178.071,479.31 168.571,459.643 158,440.5C 154.917,435.412 151.083,430.912 146.5,427C 133.161,419.994 123.661,409.494 118,395.5C 104.307,360.711 97.9737,324.711 99,287.5C 43.4184,236.291 16.9184,172.625 19.5,96.5C 18.799,78.0318 21.299,60.0318 27,42.5C 29.3553,36.1573 33.1887,30.9906 38.5,27C 41.1667,26.3333 43.8333,26.3333 46.5,27C 55.4935,31.4947 64.1601,36.4947 72.5,42C 108.578,69.0672 141.912,99.4006 172.5,133C 177.035,136.768 182.035,139.768 187.5,142C 191.428,143.325 195.428,143.658 199.5,143C 254.343,118.947 310.677,114.947 368.5,131C 380.247,135.081 391.914,139.248 403.5,143.5C 412.163,142.168 419.829,138.668 426.5,133C 451.571,106.594 477.904,81.5943 505.5,58C 516.22,49.6132 527.22,41.6132 538.5,34C 544.127,30.3527 550.127,27.5194 556.5,25.5C 562.673,27.5007 567.173,31.5007 570,37.5C 575.033,49.3285 578.033,61.6619 579,74.5C 581.093,109.294 578.093,143.627 570,177.5C 561.237,207.03 547.237,233.697 528,257.5C 518.667,267.5 509.333,277.5 500,287.5C 501.199,325.845 494.532,362.845 480,398.5C 473.553,411.28 464.053,421.114 451.5,428C 445.814,433.876 440.98,440.376 437,447.5C 428.453,465.258 419.953,482.925 411.5,500.5 Z"/></g>
<g><path style="opacity:1" fill="#070605" d="M 39.5,44.5 C 42.5184,44.3354 45.5184,44.502 48.5,45C 79.6667,70.8333 108.167,99.3333 134,130.5C 139.355,137.206 143.688,144.54 147,152.5C 149.368,161.856 148.368,170.856 144,179.5C 135.356,199.47 124.69,218.136 112,235.5C 106.925,241.472 100.758,242.972 93.5,240C 62.3849,212.843 44.2182,178.676 39,137.5C 34.0419,111.045 32.0419,84.378 33,57.5C 34.1206,52.5922 36.2872,48.2588 39.5,44.5 Z"/></g>
<g><path style="opacity:1" fill="#070605" d="M 548.5,44.5 C 551.518,44.3354 554.518,44.502 557.5,45C 560.85,48.5319 563.016,52.6986 564,57.5C 564.877,94.0283 560.877,130.028 552,165.5C 542.731,195.762 525.897,220.928 501.5,241C 494.265,242.633 488.431,240.467 484,234.5C 471.56,216.633 460.893,197.633 452,177.5C 448.467,169.376 447.8,161.043 450,152.5C 452.812,146.21 456.145,140.21 460,134.5C 486.662,101.671 516.162,71.6712 548.5,44.5 Z"/></g>
<g><path style="opacity:1" fill="#d8c4a7" d="M 42.5,49.5 C 44.3084,49.4914 45.9751,49.9914 47.5,51C 78.7367,77.5691 107.237,106.736 133,138.5C 137.113,144.391 140.446,150.724 143,157.5C 143.867,162.697 143.2,167.697 141,172.5C 131.952,192.268 121.618,211.268 110,229.5C 107.795,232.04 105.295,234.207 102.5,236C 100.833,236.667 99.1667,236.667 97.5,236C 67.2306,209.634 49.3973,176.468 44,136.5C 39.6481,112.005 37.6481,87.3383 38,62.5C 38.2231,57.6619 39.7231,53.3286 42.5,49.5 Z"/></g>
<g><path style="opacity:1" fill="#d8c4a7" d="M 551.5,49.5 C 554.292,49.4521 556.125,50.7854 557,53.5C 558.875,59.8549 559.708,66.3549 559.5,73C 558.322,103.596 554.155,133.762 547,163.5C 538.345,191.815 522.845,215.648 500.5,235C 498.635,236.301 496.635,236.635 494.5,236C 490.333,233.167 486.833,229.667 484,225.5C 472.165,206.831 462.165,187.165 454,166.5C 453.333,163.5 453.333,160.5 454,157.5C 456.554,150.724 459.887,144.391 464,138.5C 490.329,106.005 519.496,76.338 551.5,49.5 Z"/></g>
<g><path style="opacity:1" fill="#d7c2a6" d="M 197.5,256.5 C 222.067,255.362 239.234,266.029 249,288.5C 251.167,298.333 247.333,302.167 237.5,300C 223.038,297.134 208.704,293.801 194.5,290C 187.863,284.289 185.696,277.123 188,268.5C 189.892,263.447 193.058,259.447 197.5,256.5 Z"/></g>
<g><path style="opacity:1" fill="#d7c2a6" d="M 388.5,256.5 C 407.744,253.911 416.244,262.244 414,281.5C 412.141,286.026 408.974,289.192 404.5,291C 391.238,294.316 377.904,297.316 364.5,300C 354.667,302.167 350.833,298.333 353,288.5C 359.941,272.392 371.774,261.725 388.5,256.5 Z"/></g>
<g><path style="opacity:1" fill="#d6c1a4" d="M 190.5,297.5 C 221.2,296.712 240.7,311.045 249,340.5C 251.571,368.874 239.738,388.374 213.5,399C 180.082,405.579 157.915,392.745 147,360.5C 143.736,326.98 158.236,305.98 190.5,297.5 Z"/></g>
<g><path style="opacity:1" fill="#d6c1a5" d="M 394.5,297.5 C 418.034,296.182 435.867,305.515 448,325.5C 459.336,353.485 452.836,376.318 428.5,394C 400.527,407.588 377.027,402.088 358,377.5C 343.127,347.489 349.294,322.989 376.5,304C 382.435,301.303 388.435,299.136 394.5,297.5 Z"/></g>
<g><path style="opacity:1" fill="#372f2c" d="M 193.5,312.5 C 217.854,312.529 231.52,324.529 234.5,348.5C 232.956,371.878 220.456,384.544 197,386.5C 169.104,381.719 157.771,365.386 163,337.5C 168.584,323.403 178.751,315.069 193.5,312.5 Z"/></g>
<g><path style="opacity:1" fill="#372f2c" d="M 397.5,312.5 C 428.095,314.256 441.262,330.256 437,360.5C 430.635,376.852 418.635,385.519 401,386.5C 378.884,383.717 367.05,371.217 365.5,349C 367.158,328.847 377.825,316.68 397.5,312.5 Z"/></g>
<g><path style="opacity:1" fill="#eeeeee" d="M 184.5,327.5 C 195.225,326.643 199.059,331.309 196,341.5C 189.365,347.341 184.032,346.341 180,338.5C 179.333,336.833 179.333,335.167 180,333.5C 181.332,331.34 182.832,329.34 184.5,327.5 Z"/></g>
<g><path style="opacity:1" fill="#efefee" d="M 388.5,327.5 C 399.565,326.39 403.398,331.057 400,341.5C 393.461,347.368 388.127,346.368 384,338.5C 383.333,336.833 383.333,335.167 384,333.5C 385.332,331.34 386.832,329.34 388.5,327.5 Z"/></g>
<g><path style="opacity:1" fill="#d8c3a6" d="M 411.5,500.5 C 403.302,525.869 386.635,543.369 361.5,553C 341.324,560.435 320.491,563.601 299,562.5C 267.611,563.779 238.777,555.946 212.5,539C 200.689,527.872 192.023,514.705 186.5,499.5C 204.505,446.129 241.839,418.462 298.5,416.5C 356.106,418.097 393.772,446.097 411.5,500.5 Z"/></g>
<g><path style="opacity:1" fill="#0a0706" d="M 291.5,452.5 C 304.741,451.947 317.741,453.447 330.5,457C 350.746,466.399 355.912,481.232 346,501.5C 329.2,523.982 307.367,531.149 280.5,523C 266.038,517.537 255.871,507.703 250,493.5C 245.852,475.628 252.352,463.462 269.5,457C 276.859,454.945 284.193,453.445 291.5,452.5 Z"/></g>
<g><path style="opacity:1" fill="#320f13" d="M 292.5,457.5 C 307.969,456.431 322.636,459.264 336.5,466C 347.569,477.337 348.402,489.504 339,502.5C 314.582,527.805 289.249,528.805 263,505.5C 254.495,496.487 252.162,486.154 256,474.5C 259.646,468.528 264.812,464.362 271.5,462C 278.495,459.84 285.495,458.34 292.5,457.5 Z"/></g>
</svg>
