<?xml version="1.0" encoding="UTF-8"?>
<!DOCTYPE svg PUBLIC "-//W3C//DTD SVG 1.1//EN" "http://www.w3.org/Graphics/SVG/1.1/DTD/svg11.dtd">
<svg xmlns="http://www.w3.org/2000/svg" version="1.1" width="600px" height="600px" style="shape-rendering:geometricPrecision; text-rendering:geometricPrecision; image-rendering:optimizeQuality; fill-rule:evenodd; clip-rule:evenodd" xmlns:xlink="http://www.w3.org/1999/xlink">
<g><path style="opacity:0.961" fill="#020201" d="M 599.5,81.5 C 599.5,101.5 599.5,121.5 599.5,141.5C 596.427,148.191 593.427,155.024 590.5,162C 594.725,171.234 597.392,180.901 598.5,191C 598.825,200.223 594.659,206.056 586,208.5C 583.251,208.026 580.751,207.026 578.5,205.5C 574.151,208.334 569.484,209.168 564.5,208C 556.815,220.387 552.315,233.887 551,248.5C 546.943,259.695 539.276,263.362 528,259.5C 526.963,307.022 517.63,352.688 500,396.5C 493.883,409.912 486.383,422.412 477.5,434C 475.045,435.312 472.545,436.478 470,437.5C 468.573,445.683 464.573,452.349 458,457.5C 448.537,478.421 440.203,499.755 433,521.5C 417.197,560.959 388.364,584.793 346.5,593C 300.793,603.705 257.127,598.372 215.5,577C 201.237,568.35 189.737,556.85 181,542.5C 176.228,534.059 171.894,525.392 168,516.5C 160.219,496.271 151.885,476.271 143,456.5C 141.503,452.835 139.503,449.502 137,446.5C 135.648,443.28 134.814,439.947 134.5,436.5C 128.783,436.226 124.616,433.56 122,428.5C 105.18,401.978 93.5131,373.645 87,343.5C 80.9237,315.147 77.257,286.481 76,257.5C 62.8108,264.708 53.4775,261.375 48,247.5C 46.7438,233.565 42.5772,220.565 35.5,208.5C 32.2832,208.342 28.9499,208.175 25.5,208C 23.5789,207.64 21.9122,206.806 20.5,205.5C 13.5104,209.629 7.67709,208.296 3,201.5C 0.152825,187.875 1.98616,174.875 8.5,162.5C 5.47531,155.072 2.47531,147.739 -0.5,140.5C -0.5,120.833 -0.5,101.167 -0.5,81.5C 4.52489,77.3176 10.1916,74.1509 16.5,72C 58.7673,62.4662 99.7673,49.1329 139.5,32C 138.557,29.1997 138.724,26.3663 140,23.5C 143.358,20.9623 144.192,17.7956 142.5,14C 143.214,6.12098 147.547,2.28765 155.5,2.5C 166.659,3.75129 176.659,7.75129 185.5,14.5C 200.825,8.3298 215.159,10.1631 228.5,20C 233.869,23.6901 238.869,27.8568 243.5,32.5C 244.992,30.8435 246.658,29.3435 248.5,28C 251.01,27.6237 253.343,26.7904 255.5,25.5C 254.012,19.1246 256.345,14.6246 262.5,12C 270.455,11.5377 277.788,13.5377 284.5,18C 290.633,22.3005 296.3,27.1339 301.5,32.5C 310.4,22.8848 321.067,16.0515 333.5,12C 344.279,10.7786 348.946,15.4453 347.5,26C 351.133,26.8196 354.133,28.6529 356.5,31.5C 365.551,22.9739 375.884,16.4739 387.5,12C 396.356,10.3057 405.023,11.139 413.5,14.5C 423.475,6.56399 434.808,2.73066 447.5,3C 454.982,5.58058 457.648,10.7472 455.5,18.5C 458.283,21.4551 459.95,24.9551 460.5,29C 460.415,30.1074 460.081,31.1074 459.5,32C 479.504,40.5002 499.837,48.1668 520.5,55C 542.299,60.5331 563.966,66.5331 585.5,73C 590.694,75.0911 595.361,77.9245 599.5,81.5 Z"/></g>
<g><path style="opacity:1" fill="#27211f" d="M 251.5,51.5 C 252.8,52.8267 254.133,54.16 255.5,55.5C 247.036,66.8987 235.703,72.7321 221.5,73C 206.432,81.8692 192.432,92.2026 179.5,104C 155.553,126.276 133.387,150.11 113,175.5C 105.665,194.391 97.4984,212.724 88.5,230.5C 88.5654,230.062 88.3988,229.728 88,229.5C 83.1667,238.333 76.3333,245.167 67.5,250C 65.1667,250.667 62.8333,250.667 60.5,250C 57.1721,227.848 49.0055,207.682 36,189.5C 34.3917,193.043 32.0584,196.043 29,198.5C 26.6982,195.82 25.5315,192.653 25.5,189C 26.6629,184.201 27.1629,179.368 27,174.5C 20.9697,181.221 16.4697,188.888 13.5,197.5C 12.0069,195.636 11.3403,193.47 11.5,191C 11.9339,180.809 14.9339,171.476 20.5,163C 11.0672,144.369 5.06719,124.702 2.5,104C 2.45648,92.3646 8.12315,85.0313 19.5,82C 41.034,75.5331 62.7007,69.5331 84.5,64C 108.381,56.0978 131.714,46.9312 154.5,36.5C 146.975,28.1443 148.975,25.3109 160.5,28C 163.35,29.1711 166.184,30.3377 169,31.5C 169.75,30.8742 170.584,30.3742 171.5,30C 166.288,23.9569 160.288,18.7902 153.5,14.5C 158.288,13.3565 162.955,13.8565 167.5,16C 173.296,18.8289 178.796,21.9956 184,25.5C 198.526,18.8326 212.026,20.3326 224.5,30C 231.833,36.3333 239.167,42.6667 246.5,49C 248.078,50.0945 249.745,50.9278 251.5,51.5 Z"/></g>
<g><path style="opacity:1" fill="#27211f" d="M 516.5,240.5 C 511.418,231.015 506.251,221.348 501,211.5C 494.885,195.271 488.219,179.271 481,163.5C 455.655,133.816 427.488,107.316 396.5,84C 390.5,80.3333 384.5,76.6667 378.5,73C 374.167,72.6667 369.833,72.3333 365.5,72C 356.69,68.184 349.357,62.5173 343.5,55C 345.093,54.0513 346.426,52.8846 347.5,51.5C 348.922,51.2914 350.255,50.7914 351.5,50C 360.167,42.6667 368.833,35.3333 377.5,28C 384.264,22.5228 391.931,20.5228 400.5,22C 405.432,22.7552 410.266,23.9219 415,25.5C 420.357,22.2332 425.857,19.0666 431.5,16C 436.331,13.9379 441.331,13.2712 446.5,14C 439.288,18.2055 432.955,23.5389 427.5,30C 428.5,30.5 429.5,31 430.5,31.5C 436.361,28.0254 442.694,26.6921 449.5,27.5C 449.657,28.8734 449.49,30.2068 449,31.5C 447.315,33.0175 445.815,34.6841 444.5,36.5C 469.131,47.9909 494.464,57.8242 520.5,66C 540.298,70.8661 559.965,76.1994 579.5,82C 593.901,86.2987 599.401,95.7987 596,110.5C 592.954,128.973 587.12,146.473 578.5,163C 585.429,173.121 588.262,184.287 587,196.5C 586.333,197.833 585.667,197.833 585,196.5C 582.192,188.21 577.859,180.876 572,174.5C 572.096,179.334 572.596,184.167 573.5,189C 572.179,200.984 569.013,201.484 564,190.5C 563.333,189.167 562.667,189.167 562,190.5C 550.006,208.481 542.34,228.147 539,249.5C 536.599,250.602 534.099,250.769 531.5,250C 525.437,247.271 520.603,243.104 517,237.5C 516.517,238.448 516.351,239.448 516.5,240.5 Z"/></g>
<g><path style="opacity:1" fill="#362e2b" d="M 88.5,230.5 C 97.4984,212.724 105.665,194.391 113,175.5C 133.387,150.11 155.553,126.276 179.5,104C 192.432,92.2026 206.432,81.8692 221.5,73C 235.703,72.7321 247.036,66.8987 255.5,55.5C 254.133,54.16 252.8,52.8267 251.5,51.5C 254.59,52.17 256.257,51.0033 256.5,48C 255.053,44.6124 254.053,41.1124 253.5,37.5C 261.969,37.6586 270.135,39.3253 278,42.5C 278.5,42.1667 279,41.8333 279.5,41.5C 275.571,35.4014 271.071,29.7348 266,24.5C 265.251,23.365 265.417,22.365 266.5,21.5C 277.135,25.15 286.135,31.15 293.5,39.5C 290.264,44.3693 288.097,49.7026 287,55.5C 279.745,95.8065 275.745,136.473 275,177.5C 273.744,206.158 272.744,234.825 272,263.5C 271.256,278.227 269.923,292.894 268,307.5C 259.287,347.638 246.954,386.638 231,424.5C 202.741,443.951 183.908,470.284 174.5,503.5C 168.396,489.623 162.562,475.623 157,461.5C 153.588,454.342 149.922,447.342 146,440.5C 144.946,433.552 144.112,426.552 143.5,419.5C 141.67,422.161 139.337,424.328 136.5,426C 134.633,426.711 133.133,426.211 132,424.5C 116.395,401.63 106.061,376.63 101,349.5C 102.715,346.565 104.548,343.732 106.5,341C 106.167,340.5 105.833,340 105.5,339.5C 102.733,341.246 99.8992,341.579 97,340.5C 88.8147,304.239 85.9814,267.572 88.5,230.5 Z"/></g>
<g><path style="opacity:1" fill="#362e2b" d="M 347.5,51.5 C 346.426,52.8846 345.093,54.0513 343.5,55C 349.357,62.5173 356.69,68.184 365.5,72C 369.833,72.3333 374.167,72.6667 378.5,73C 384.5,76.6667 390.5,80.3333 396.5,84C 427.488,107.316 455.655,133.816 481,163.5C 488.219,179.271 494.885,195.271 501,211.5C 506.251,221.348 511.418,231.015 516.5,240.5C 517.493,274.239 514.326,307.572 507,340.5C 503.221,341.845 499.721,341.179 496.5,338.5C 496.167,338.833 495.833,339.167 495.5,339.5C 499.705,343.032 502.705,347.365 504.5,352.5C 497.573,377.794 487.073,401.46 473,423.5C 471.981,424.687 470.814,425.687 469.5,426.5C 466.214,424.549 463.214,422.215 460.5,419.5C 459.894,426.886 459.06,434.219 458,441.5C 455.37,445.132 452.37,448.465 449,451.5C 441.391,469.052 434.057,486.719 427,504.5C 420.738,480.942 409.405,460.275 393,442.5C 384.831,435.938 377.164,428.938 370,421.5C 353.251,380.921 339.918,339.254 330,296.5C 328.266,284.562 327.266,272.562 327,260.5C 325.548,204.793 323.215,149.126 320,93.5C 318.632,80.7801 316.965,68.1134 315,55.5C 313.553,50.4884 311.72,45.6551 309.5,41C 316.367,31.6456 325.367,25.1456 336.5,21.5C 337.308,21.8076 337.975,22.3076 338.5,23C 333.263,28.4005 328.597,34.2338 324.5,40.5C 324.833,40.8333 325.167,41.1667 325.5,41.5C 332.55,38.6581 339.884,37.3248 347.5,37.5C 348.797,42.2928 347.797,46.6261 344.5,50.5C 345.325,51.3857 346.325,51.719 347.5,51.5 Z"/></g>
<g><path style="opacity:1" fill="#ebe6db" d="M 296.5,44.5 C 298.43,45.7635 300.097,47.4301 301.5,49.5C 302.845,48.6533 303.845,47.4866 304.5,46C 305.332,45.3123 305.998,45.479 306.5,46.5C 309.88,56.5672 312.047,66.9006 313,77.5C 314.69,95.1395 316.024,112.806 317,130.5C 318.546,176.173 320.212,221.84 322,267.5C 322.836,286.516 325.836,305.182 331,323.5C 340.743,357.396 352.076,390.729 365,423.5C 368.317,429.763 373.15,434.596 379.5,438C 402.927,458.504 417.593,484.17 423.5,515C 416.694,533.966 405.694,549.966 390.5,563C 369.249,576.817 345.916,584.484 320.5,586C 279.354,590.962 241.688,581.962 207.5,559C 194.279,545.563 184.612,529.897 178.5,512C 186.372,476.073 205.538,447.907 236,427.5C 250.473,392.081 262.14,355.747 271,318.5C 273.1,307.901 274.766,297.235 276,286.5C 277.909,225.78 280.909,165.113 285,104.5C 286.093,91.4252 287.759,78.4252 290,65.5C 291.282,58.1592 293.448,51.1592 296.5,44.5 Z"/></g>
<g><path style="opacity:1" fill="#c18c43" d="M 193.5,220.5 C 215.758,221.204 232.258,231.204 243,250.5C 249.032,263.965 244.865,269.465 230.5,267C 215.273,264.11 200.273,260.443 185.5,256C 179.838,249.902 178.005,242.736 180,234.5C 182.017,227.318 186.517,222.652 193.5,220.5 Z"/></g>
<g><path style="opacity:1" fill="#c18c43" d="M 396.5,220.5 C 414.636,220.479 422.136,229.479 419,247.5C 417.526,252.974 414.026,256.474 408.5,258C 395.203,261.126 381.87,264.126 368.5,267C 364.5,267.667 360.5,267.667 356.5,267C 353.806,264.347 352.973,261.18 354,257.5C 357.777,245.397 364.944,235.897 375.5,229C 382.347,225.448 389.347,222.615 396.5,220.5 Z"/></g>
<g><path style="opacity:1" fill="#bf8a42" d="M 194.5,273.5 C 222.149,272.66 240.316,285.326 249,311.5C 252.353,334.14 244.52,351.64 225.5,364C 199.894,375.723 178.394,370.557 161,348.5C 146.791,320.838 152.291,298.004 177.5,280C 183.02,277.11 188.686,274.943 194.5,273.5 Z"/></g>
<g><path style="opacity:1" fill="#bf8a42" d="M 393.5,273.5 C 414.977,272.155 431.477,280.488 443,298.5C 454.639,325.451 448.473,347.284 424.5,364C 398.894,375.723 377.394,370.557 360,348.5C 346.113,321.89 350.946,299.39 374.5,281C 380.604,277.583 386.937,275.083 393.5,273.5 Z"/></g>
<g><path style="opacity:1" fill="#010000" d="M 199.5,287.5 C 224.949,290.109 236.783,304.109 235,329.5C 227.132,351.185 211.965,359.351 189.5,354C 169.997,344.488 163.497,329.321 170,308.5C 175.995,295.934 185.828,288.934 199.5,287.5 Z"/></g>
<g><path style="opacity:1" fill="#010000" d="M 398.5,287.5 C 427.229,291.3 438.395,307.3 432,335.5C 421.43,354.353 405.93,360.187 385.5,353C 368.355,342.573 362.855,327.74 369,308.5C 374.955,295.948 384.788,288.948 398.5,287.5 Z"/></g>
<g><path style="opacity:1" fill="#eaeaea" d="M 189.5,301.5 C 197.828,300.663 201.661,304.33 201,312.5C 196.775,319.358 191.775,320.025 186,314.5C 183.348,309.039 184.514,304.706 189.5,301.5 Z"/></g>
<g><path style="opacity:1" fill="#eaeaea" d="M 388.5,301.5 C 398.194,300.902 401.694,305.235 399,314.5C 393.186,320.205 388.186,319.538 384,312.5C 382.776,307.626 384.276,303.959 388.5,301.5 Z"/></g>
<g><path style="opacity:1" fill="#0b0707" d="M 281.5,440.5 C 295.537,440.158 309.537,440.658 323.5,442C 341.491,443.867 353.657,453.034 360,469.5C 361.702,479.993 359.702,489.659 354,498.5C 323.57,534.325 290.237,537.325 254,507.5C 243.704,497.278 239.37,484.945 241,470.5C 243.462,460.372 249.295,452.872 258.5,448C 266,444.555 273.666,442.055 281.5,440.5 Z"/></g>
<g><path style="opacity:1" fill="#320f13" d="M 286.5,445.5 C 300.969,445.164 315.302,446.331 329.5,449C 354.73,457.281 361.23,473.114 349,496.5C 318.107,530.402 286.44,531.069 254,498.5C 239.481,475.389 244.981,458.889 270.5,449C 275.905,447.504 281.239,446.337 286.5,445.5 Z"/></g>
</svg>
