<?xml version="1.0" encoding="UTF-8"?>
<!DOCTYPE svg PUBLIC "-//W3C//DTD SVG 1.1//EN" "http://www.w3.org/Graphics/SVG/1.1/DTD/svg11.dtd">
<svg xmlns="http://www.w3.org/2000/svg" version="1.1" width="600px" height="600px" style="shape-rendering:geometricPrecision; text-rendering:geometricPrecision; image-rendering:optimizeQuality; fill-rule:evenodd; clip-rule:evenodd" xmlns:xlink="http://www.w3.org/1999/xlink">
<g><path style="opacity:0.944" fill="#020101" d="M 285.5,16.5 C 327.954,15.1868 369.287,21.3534 409.5,35C 429.827,34.6588 450.16,34.6588 470.5,35C 493.744,36.1911 514.744,43.5244 533.5,57C 544.712,67.5808 552.212,80.4142 556,95.5C 561.551,119.568 565.551,143.902 568,168.5C 572.588,189.598 577.588,210.598 583,231.5C 590.578,272.169 593.245,313.169 591,354.5C 589.128,381.051 585.128,407.051 579,432.5C 562.52,492.644 526.02,535.811 469.5,562C 432.475,576.871 393.975,584.038 354,583.5C 336.295,583.165 318.629,582.165 301,580.5C 253.587,586.651 206.754,583.818 160.5,572C 126.082,561.53 96.2491,543.697 71,518.5C 39.1573,481.456 20.324,438.456 14.5,389.5C 5.08891,317.926 10.9222,247.592 32,178.5C 35.5033,154.473 39.17,130.473 43,106.5C 49.7248,68.1086 72.2248,45.2753 110.5,38C 117.102,36.5664 123.768,35.5664 130.5,35C 151.174,34.6282 171.84,34.6282 192.5,35C 222.862,24.8941 253.862,18.7274 285.5,16.5 Z"/></g>
<g><path style="opacity:1" fill="#e9c08e" d="M 273.5,27.5 C 305.103,25.9771 336.436,28.1438 367.5,34C 383.333,38.1664 399.166,42.3331 415,46.5C 439.907,43.4337 464.741,43.9337 489.5,48C 525.207,55.3771 545.374,77.2104 550,113.5C 552.399,130.494 554.733,147.494 557,164.5C 562.194,188.944 567.861,213.277 574,237.5C 585.379,301.551 583.712,365.217 569,428.5C 544.301,510.456 489.468,557.289 404.5,569C 370.03,573.454 335.53,573.62 301,569.5C 255.002,575.406 209.502,572.906 164.5,562C 103.061,544.225 61.2273,505.392 39,445.5C 25.7209,405.608 19.5543,364.608 20.5,322.5C 20.5048,293.614 23.0048,264.947 28,236.5C 32.8426,216.13 37.8426,195.796 43,175.5C 46.4096,154.556 49.4096,133.556 52,112.5C 56.9667,77.2027 76.8001,55.7027 111.5,48C 124.045,45.5153 136.711,44.3486 149.5,44.5C 163.189,44.9799 176.856,45.4799 190.5,46C 217.668,36.9362 245.335,30.7695 273.5,27.5 Z"/></g>
<g><path style="opacity:1" fill="#caa274" d="M 124.5,81.5 C 131.841,81.3337 139.174,81.5003 146.5,82C 148.167,82.8333 149.833,83.6667 151.5,84.5C 152.631,86.0745 152.798,87.7412 152,89.5C 126.967,109.859 103.134,131.692 80.5,155C 75.108,157.454 73.108,155.621 74.5,149.5C 75.328,130.495 81.4947,113.495 93,98.5C 102.068,90.0515 112.568,84.3848 124.5,81.5 Z"/></g>
<g><path style="opacity:1" fill="#caa274" d="M 455.5,81.5 C 495.246,79.0855 518.746,97.4188 526,136.5C 527.278,143.051 527.444,149.551 526.5,156C 524.711,156.52 523.044,156.187 521.5,155C 506.195,140.696 491.195,126.029 476.5,111C 467.624,103.122 458.457,95.6218 449,88.5C 448.333,87.5 448.333,86.5 449,85.5C 451.013,83.7518 453.18,82.4185 455.5,81.5 Z"/></g>
<g><path style="opacity:1" fill="#312926" d="M 233.5,270.5 C 225.033,273.898 217.366,278.565 210.5,284.5C 192.135,283.689 173.802,282.856 155.5,282C 147.591,284.787 139.591,287.287 131.5,289.5C 128.404,289.571 126.738,288.071 126.5,285C 126.643,282.849 127.643,281.182 129.5,280C 156.787,272.521 181.787,260.521 204.5,244C 207.164,241.331 208.998,238.164 210,234.5C 210.601,228.16 211.267,221.826 212,215.5C 212.332,211.653 213.498,208.153 215.5,205C 217.769,204.242 219.936,204.409 222,205.5C 218.131,228.642 221.964,250.309 233.5,270.5 Z"/></g>
<g><path style="opacity:1" fill="#312826" d="M 376.5,283.5 C 369.688,278.37 362.355,274.037 354.5,270.5C 365.42,250.178 369.253,228.511 366,205.5C 368.064,204.409 370.231,204.242 372.5,205C 374.16,207.911 375.326,211.078 376,214.5C 376.225,221.218 376.892,227.885 378,234.5C 379.343,238.51 381.509,242.01 384.5,245C 407.055,260.942 431.722,272.609 458.5,280C 461.791,282.332 462.291,285.165 460,288.5C 458.938,289.097 457.772,289.43 456.5,289.5C 448.415,287.305 440.415,284.805 432.5,282C 429.374,281.241 426.207,280.741 423,280.5C 407.585,283.375 392.085,284.375 376.5,283.5 Z"/></g>
<g><path style="opacity:1" fill="#fad8be" d="M 354.5,270.5 C 362.355,274.037 369.688,278.37 376.5,283.5C 385.236,291.408 392.736,300.408 399,310.5C 399.617,311.449 399.451,312.282 398.5,313C 410.736,336.099 418.903,360.599 423,386.5C 426.272,409.434 428.272,432.434 429,455.5C 428.556,476.6 418.056,489.1 397.5,493C 384.259,495.506 371.259,494.672 358.5,490.5C 355.211,488.842 351.877,487.175 348.5,485.5C 342.809,481.987 337.476,477.987 332.5,473.5C 325.932,460.635 320.432,447.301 316,433.5C 313.143,424.694 312.143,415.694 313,406.5C 325.613,400.22 335.28,390.887 342,378.5C 348.924,356.18 341.424,341.347 319.5,334C 302.162,329.334 284.829,329.334 267.5,334C 246.314,341.876 239.147,356.709 246,378.5C 251.023,388.924 258.523,396.924 268.5,402.5C 269.684,405.861 271.517,408.861 274,411.5C 274.497,414.146 274.664,416.813 274.5,419.5C 273.126,427.993 270.96,436.326 268,444.5C 264.096,453.973 259.929,463.306 255.5,472.5C 250.477,476.673 245.144,480.34 239.5,483.5C 236.397,485.384 233.063,486.718 229.5,487.5C 213.12,491.639 196.786,491.472 180.5,487C 173.457,484.621 168.29,480.121 165,473.5C 162.999,467.483 160.999,461.483 159,455.5C 156.981,411.295 163.981,368.628 180,327.5C 187.253,310.953 197.42,296.62 210.5,284.5C 217.366,278.565 225.033,273.898 233.5,270.5C 273.811,255.835 314.145,255.835 354.5,270.5 Z"/></g>
<g><path style="opacity:1" fill="#2e2d2c" d="M 332.5,473.5 C 323.726,466.568 315.059,459.402 306.5,452C 301.522,447.895 295.855,446.229 289.5,447C 286.167,449 282.833,451 279.5,453C 271.653,459.748 263.653,466.248 255.5,472.5C 259.929,463.306 264.096,453.973 268,444.5C 270.96,436.326 273.126,427.993 274.5,419.5C 275.812,414.985 275.812,410.318 274.5,405.5C 272.473,404.487 270.473,403.487 268.5,402.5C 258.523,396.924 251.023,388.924 246,378.5C 239.147,356.709 246.314,341.876 267.5,334C 284.829,329.334 302.162,329.334 319.5,334C 341.424,341.347 348.924,356.18 342,378.5C 335.28,390.887 325.613,400.22 313,406.5C 312.143,415.694 313.143,424.694 316,433.5C 320.432,447.301 325.932,460.635 332.5,473.5 Z"/></g>
<g><path style="opacity:1" fill="#cdaa90" d="M 220.5,380.5 C 227.524,380.489 229.524,383.489 226.5,389.5C 218.415,390.86 216.415,387.86 220.5,380.5 Z"/></g>
<g><path style="opacity:1" fill="#b9987e" d="M 365.5,380.5 C 370.068,383.672 369.568,386.672 364,389.5C 362.167,389 361,387.833 360.5,386C 361.34,383.33 363.006,381.497 365.5,380.5 Z"/></g>
<g><path style="opacity:1" fill="#cfac92" d="M 203.5,393.5 C 209.164,394.159 210.497,396.826 207.5,401.5C 203.3,403.527 200.966,402.194 200.5,397.5C 200.787,395.557 201.787,394.223 203.5,393.5 Z"/></g>
<g><path style="opacity:1" fill="#ceab91" d="M 184.5,400.5 C 189.241,400.161 190.574,402.161 188.5,406.5C 182.787,407.452 181.454,405.452 184.5,400.5 Z"/></g>
<g><path style="opacity:1" fill="#ceab91" d="M 399.5,400.5 C 404.241,400.161 405.574,402.161 403.5,406.5C 397.787,407.452 396.454,405.452 399.5,400.5 Z"/></g>
<g><path style="opacity:1" fill="#c7ac97" d="M 268.5,402.5 C 270.473,403.487 272.473,404.487 274.5,405.5C 275.812,410.318 275.812,414.985 274.5,419.5C 274.664,416.813 274.497,414.146 274,411.5C 271.517,408.861 269.684,405.861 268.5,402.5 Z"/></g>
<g><path style="opacity:1" fill="#cdaa90" d="M 231.5,407.5 C 238.632,407.789 240.298,410.956 236.5,417C 228.03,417.531 226.364,414.364 231.5,407.5 Z"/></g>
<g><path style="opacity:1" fill="#b6967b" d="M 351.5,409.5 C 357.016,409.473 358.349,411.64 355.5,416C 350.177,416.18 348.843,414.014 351.5,409.5 Z"/></g>
<g><path style="opacity:1" fill="#cdaa90" d="M 214.5,420.5 C 221.536,419.603 223.203,422.103 219.5,428C 213.785,428.401 212.119,425.901 214.5,420.5 Z"/></g>
<g><path style="opacity:1" fill="#b6967b" d="M 368.5,421.5 C 373.145,422.28 373.645,424.28 370,427.5C 367.408,425.992 366.908,423.992 368.5,421.5 Z"/></g>
<g><path style="opacity:1" fill="#ceab91" d="M 195.5,425.5 C 200.747,425.64 201.747,427.806 198.5,432C 193.382,431.824 192.382,429.658 195.5,425.5 Z"/></g>
<g><path style="opacity:1" fill="#624c67" d="M 332.5,473.5 C 337.476,477.987 342.809,481.987 348.5,485.5C 336.966,494.936 323.966,501.769 309.5,506C 281.961,511.124 258.627,503.624 239.5,483.5C 245.144,480.34 250.477,476.673 255.5,472.5C 263.653,466.248 271.653,459.748 279.5,453C 282.833,451 286.167,449 289.5,447C 295.855,446.229 301.522,447.895 306.5,452C 315.059,459.402 323.726,466.568 332.5,473.5 Z"/></g>
<g><path style="opacity:1" fill="#302e2d" d="M 239.5,483.5 C 258.627,503.624 281.961,511.124 309.5,506C 323.966,501.769 336.966,494.936 348.5,485.5C 351.877,487.175 355.211,488.842 358.5,490.5C 353.493,494.679 348.827,499.512 344.5,505C 338.2,509.155 331.867,513.321 325.5,517.5C 289.305,531.54 258.638,523.873 233.5,494.5C 232.707,491.874 231.04,490.04 228.5,489C 229.056,488.617 229.389,488.117 229.5,487.5C 233.063,486.718 236.397,485.384 239.5,483.5 Z"/></g>
</svg>
