<?xml version="1.0" encoding="UTF-8"?>
<!DOCTYPE svg PUBLIC "-//W3C//DTD SVG 1.1//EN" "http://www.w3.org/Graphics/SVG/1.1/DTD/svg11.dtd">
<svg xmlns="http://www.w3.org/2000/svg" version="1.1" width="600px" height="600px" style="shape-rendering:geometricPrecision; text-rendering:geometricPrecision; image-rendering:optimizeQuality; fill-rule:evenodd; clip-rule:evenodd" xmlns:xlink="http://www.w3.org/1999/xlink">
<g><path style="opacity:0.968" fill="#010100" d="M 599.5,214.5 C 599.5,222.833 599.5,231.167 599.5,239.5C 597.083,247.551 593.583,255.218 589,262.5C 573.946,282.554 559.279,302.887 545,323.5C 542.781,327.271 541.115,331.271 540,335.5C 538.755,343.066 536.755,350.399 534,357.5C 526.79,364.08 519.624,364.08 512.5,357.5C 510.144,354.978 507.977,352.312 506,349.5C 494.837,381.837 478.504,411.17 457,437.5C 449.204,446.964 441.038,456.131 432.5,465C 419.983,474.76 407.65,484.76 395.5,495C 372.563,509.2 347.563,517.2 320.5,519C 287.227,522.229 254.894,518.229 223.5,507C 208.407,501.45 195.74,492.45 185.5,480C 171.377,470.877 159.544,459.377 150,445.5C 131.786,422.577 116.786,397.577 105,370.5C 101.399,361.363 98.3988,352.03 96,342.5C 93.5538,351.257 88.3871,357.757 80.5,362C 74.3943,363.587 69.2277,362.087 65,357.5C 62.5751,351.379 60.9084,345.046 60,338.5C 58.4481,332.511 56.1147,326.844 53,321.5C 38.6667,301.833 24.3333,282.167 10,262.5C 5.41953,255.229 1.91953,247.562 -0.5,239.5C -0.5,231.5 -0.5,223.5 -0.5,215.5C 3.83276,204.037 11.1661,194.871 21.5,188C 74.6897,160.24 127.69,132.24 180.5,104C 191.473,98.7998 201.639,99.9665 211,107.5C 270.259,83.9151 329.592,83.5818 389,106.5C 393.265,102.244 398.432,100.244 404.5,100.5C 410.812,100.745 416.812,102.245 422.5,105C 473.025,132.764 524.025,159.764 575.5,186C 587.162,192.534 595.162,202.034 599.5,214.5 Z"/></g>
<g><path style="opacity:1" fill="#674d33" d="M 411.5,468.5 C 411.969,464.678 412.969,461.011 414.5,457.5C 432.502,448.835 440.002,434.502 437,414.5C 435.218,405.281 432.051,396.614 427.5,388.5C 428.273,374.527 430.773,360.861 435,347.5C 442.116,329.268 449.782,311.268 458,293.5C 460.363,284.977 461.029,276.31 460,267.5C 447.523,235.028 424.356,214.528 390.5,206C 375.677,202.672 360.677,201.672 345.5,203C 340.36,204.14 337.193,207.306 336,212.5C 334.952,220.122 334.452,227.789 334.5,235.5C 336.143,260.195 338.143,284.861 340.5,309.5C 312.443,298.925 284.443,298.925 256.5,309.5C 255.195,307.603 254.529,305.269 254.5,302.5C 256.969,280.372 258.969,258.206 260.5,236C 260.443,228.469 259.943,220.969 259,213.5C 257.58,206.748 253.414,203.248 246.5,203C 213.272,199.746 183.939,208.746 158.5,230C 144.91,242.845 136.577,258.511 133.5,277C 134.31,284.74 136.143,292.24 139,299.5C 147.436,316.372 154.769,333.705 161,351.5C 164.574,364.612 166.741,377.945 167.5,391.5C 159.209,407.437 158.376,423.77 165,440.5C 169.146,448.145 175.313,453.478 183.5,456.5C 184.17,458.291 184.837,459.958 185.5,461.5C 185.517,463.565 185.85,465.565 186.5,467.5C 180.286,463.795 174.786,459.128 170,453.5C 145.614,425.417 126.281,394.084 112,359.5C 107.827,348.484 104.993,337.151 103.5,325.5C 110.421,286.242 122.587,248.909 140,213.5C 154.438,186.809 174.272,164.976 199.5,148C 204.367,143.468 208.867,138.634 213,133.5C 215.016,128.012 215.849,122.345 215.5,116.5C 271.21,94.6242 327.21,93.9575 383.5,114.5C 382.714,123.027 384.881,130.693 390,137.5C 404.855,150.265 419.521,163.265 434,176.5C 453.612,200.055 468.279,226.389 478,255.5C 486.479,281.251 493.313,307.418 498.5,334C 496.419,345.912 492.919,357.412 488,368.5C 471.441,402.789 449.608,433.289 422.5,460C 418.957,463.049 415.291,465.882 411.5,468.5 Z"/></g>
<g><path style="opacity:1" fill="#352d2b" d="M 188.5,111.5 C 196.946,109.553 202.613,112.553 205.5,120.5C 203.408,127.838 199.408,134.005 193.5,139C 154.92,166.274 128.087,202.441 113,247.5C 103.387,278.005 94.3867,308.671 86,339.5C 84.7723,343.059 83.1056,346.392 81,349.5C 79.2627,351.625 77.096,352.458 74.5,352C 72.0029,340.895 68.5029,330.062 64,319.5C 50.4897,299.813 36.4897,280.48 22,261.5C 11.8866,248.494 7.88656,233.827 10,217.5C 13.6654,208.169 19.832,201.002 28.5,196C 82.0844,168.044 135.418,139.878 188.5,111.5 Z"/></g>
<g><path style="opacity:1" fill="#352d2b" d="M 401.5,110.5 C 412.817,112.316 423.484,116.15 433.5,122C 476.69,146.097 520.357,169.43 564.5,192C 588.207,203.24 595.373,221.074 586,245.5C 583.507,251.157 580.507,256.49 577,261.5C 563.28,279.553 549.947,297.887 537,316.5C 531.238,327.391 527.405,338.891 525.5,351C 523.365,351.635 521.365,351.301 519.5,350C 514.696,341.914 510.862,333.414 508,324.5C 499.968,281.737 485.968,241.071 466,202.5C 455.732,185.889 443.565,170.723 429.5,157C 419.041,148.876 408.874,140.376 399,131.5C 396.356,127.879 394.523,123.879 393.5,119.5C 395.041,115.361 397.708,112.361 401.5,110.5 Z"/></g>
<g><path style="opacity:1" fill="#5a4433" d="M 293.5,175.5 C 300.02,174.185 303.52,176.852 304,183.5C 304.667,207.5 304.667,231.5 304,255.5C 298.513,261.133 293.846,260.466 290,253.5C 289.333,232.167 289.333,210.833 290,189.5C 290.036,184.474 291.203,179.808 293.5,175.5 Z"/></g>
<g><path style="opacity:1" fill="#433430" d="M 256.5,309.5 C 238.23,317.65 221.897,328.817 207.5,343C 192.835,358.224 179.501,374.391 167.5,391.5C 166.741,377.945 164.574,364.612 161,351.5C 154.769,333.705 147.436,316.372 139,299.5C 136.143,292.24 134.31,284.74 133.5,277C 136.577,258.511 144.91,242.845 158.5,230C 183.939,208.746 213.272,199.746 246.5,203C 253.414,203.248 257.58,206.748 259,213.5C 259.943,220.969 260.443,228.469 260.5,236C 258.969,258.206 256.969,280.372 254.5,302.5C 254.529,305.269 255.195,307.603 256.5,309.5 Z"/></g>
<g><path style="opacity:1" fill="#433430" d="M 427.5,388.5 C 408.403,360.903 385.07,337.403 357.5,318C 351.807,315.153 346.14,312.32 340.5,309.5C 338.143,284.861 336.143,260.195 334.5,235.5C 334.452,227.789 334.952,220.122 336,212.5C 337.193,207.306 340.36,204.14 345.5,203C 360.677,201.672 375.677,202.672 390.5,206C 424.356,214.528 447.523,235.028 460,267.5C 461.029,276.31 460.363,284.977 458,293.5C 449.782,311.268 442.116,329.268 435,347.5C 430.773,360.861 428.273,374.527 427.5,388.5 Z"/></g>
<g><path style="opacity:1" fill="#a09080" d="M 192.5,226.5 C 217.564,224.932 234.064,235.932 242,259.5C 245.458,284.431 235.624,301.598 212.5,311C 185.24,316.048 167.073,305.548 158,279.5C 154.541,251.839 166.041,234.172 192.5,226.5 Z"/></g>
<g><path style="opacity:1" fill="#a09080" d="M 390.5,226.5 C 417.418,225.27 434.251,237.603 441,263.5C 442.285,281.221 435.785,295.388 421.5,306C 398.756,317.875 379.256,314.042 363,294.5C 349.456,270.324 353.622,249.824 375.5,233C 380.367,230.226 385.367,228.059 390.5,226.5 Z"/></g>
<g><path style="opacity:1" fill="#010101" d="M 191.5,239.5 C 216.516,237.361 229.349,248.694 230,273.5C 224.264,295.449 210.431,303.616 188.5,298C 174.032,290.566 167.865,278.733 170,262.5C 173.594,251.409 180.761,243.742 191.5,239.5 Z"/></g>
<g><path style="opacity:1" fill="#010101" d="M 390.5,239.5 C 409.087,237.372 421.587,245.039 428,262.5C 429.887,284.608 419.887,297.275 398,300.5C 376.144,297.301 366.144,284.635 368,262.5C 371.719,250.949 379.219,243.283 390.5,239.5 Z"/></g>
<g><path style="opacity:1" fill="#e9e9e9" d="M 188.5,251.5 C 197.33,250.162 200.83,253.829 199,262.5C 192.28,268.401 187.446,267.067 184.5,258.5C 185.071,255.687 186.404,253.354 188.5,251.5 Z"/></g>
<g><path style="opacity:1" fill="#ededed" d="M 387.5,251.5 C 395.775,250.706 398.942,254.373 397,262.5C 392.667,267.833 388.333,267.833 384,262.5C 382.663,257.872 383.83,254.205 387.5,251.5 Z"/></g>
<g><path style="opacity:1" fill="#352d2b" d="M 340.5,309.5 C 346.14,312.32 351.807,315.153 357.5,318C 385.07,337.403 408.403,360.903 427.5,388.5C 432.051,396.614 435.218,405.281 437,414.5C 440.002,434.502 432.502,448.835 414.5,457.5C 412.969,461.011 411.969,464.678 411.5,468.5C 408.68,470.745 405.68,472.745 402.5,474.5C 397.667,474.625 393,473.792 388.5,472C 380.712,468.606 373.045,464.939 365.5,461C 367.134,460.506 368.801,460.34 370.5,460.5C 380.532,461.919 390.532,461.752 400.5,460C 382.215,460.531 364.548,457.531 347.5,451C 337.5,444.667 327.5,438.333 317.5,432C 311.14,426.98 306.307,420.813 303,413.5C 301.811,405.526 301.478,397.526 302,389.5C 309.722,386.462 316.388,381.795 322,375.5C 326.854,368.442 327.687,360.942 324.5,353C 324.957,352.586 325.291,352.086 325.5,351.5C 321.337,345.749 315.67,342.583 308.5,342C 301.833,341.333 295.167,341.333 288.5,342C 277.388,343.114 270.721,349.114 268.5,360C 270.304,376.452 279.304,386.285 295.5,389.5C 295.524,398.255 294.691,406.922 293,415.5C 287.88,424.287 281.047,431.453 272.5,437C 246.715,454.299 218.381,461.132 187.5,457.5C 186.883,457.389 186.383,457.056 186,456.5C 185.506,458.134 185.34,459.801 185.5,461.5C 184.837,459.958 184.17,458.291 183.5,456.5C 175.313,453.478 169.146,448.145 165,440.5C 158.376,423.77 159.209,407.437 167.5,391.5C 179.501,374.391 192.835,358.224 207.5,343C 221.897,328.817 238.23,317.65 256.5,309.5C 284.443,298.925 312.443,298.925 340.5,309.5 Z"/></g>
<g><path style="opacity:1" fill="#000000" d="M 370.5,460.5 C 350.325,457.783 331.325,450.95 313.5,440C 303.202,435.705 292.868,435.705 282.5,440C 257.337,455.5 230.004,462.833 200.5,462C 196.814,461.441 193.147,460.774 189.5,460C 188.244,459.583 187.577,458.75 187.5,457.5C 218.381,461.132 246.715,454.299 272.5,437C 281.047,431.453 287.88,424.287 293,415.5C 294.691,406.922 295.524,398.255 295.5,389.5C 279.304,386.285 270.304,376.452 268.5,360C 270.721,349.114 277.388,343.114 288.5,342C 295.167,341.333 301.833,341.333 308.5,342C 315.67,342.583 321.337,345.749 325.5,351.5C 325.291,352.086 324.957,352.586 324.5,353C 327.687,360.942 326.854,368.442 322,375.5C 316.388,381.795 309.722,386.462 302,389.5C 301.478,397.526 301.811,405.526 303,413.5C 306.307,420.813 311.14,426.98 317.5,432C 327.5,438.333 337.5,444.667 347.5,451C 364.548,457.531 382.215,460.531 400.5,460C 390.532,461.752 380.532,461.919 370.5,460.5 Z"/></g>
<g><path style="opacity:1" fill="#2e2624" d="M 370.5,460.5 C 368.801,460.34 367.134,460.506 365.5,461C 373.045,464.939 380.712,468.606 388.5,472C 393,473.792 397.667,474.625 402.5,474.5C 388.562,489.144 371.562,498.644 351.5,503C 309.195,513.298 267.528,511.298 226.5,497C 219.512,493.841 212.846,490.174 206.5,486C 200.29,479.288 193.623,473.121 186.5,467.5C 185.85,465.565 185.517,463.565 185.5,461.5C 185.34,459.801 185.506,458.134 186,456.5C 186.383,457.056 186.883,457.389 187.5,457.5C 187.577,458.75 188.244,459.583 189.5,460C 193.147,460.774 196.814,461.441 200.5,462C 230.004,462.833 257.337,455.5 282.5,440C 292.868,435.705 303.202,435.705 313.5,440C 331.325,450.95 350.325,457.783 370.5,460.5 Z"/></g>
</svg>
