<?xml version="1.0" encoding="UTF-8"?>
<!DOCTYPE svg PUBLIC "-//W3C//DTD SVG 1.1//EN" "http://www.w3.org/Graphics/SVG/1.1/DTD/svg11.dtd">
<svg xmlns="http://www.w3.org/2000/svg" version="1.1" width="600px" height="600px" style="shape-rendering:geometricPrecision; text-rendering:geometricPrecision; image-rendering:optimizeQuality; fill-rule:evenodd; clip-rule:evenodd" xmlns:xlink="http://www.w3.org/1999/xlink">
<g><path style="opacity:0.952" fill="#030101" d="M 121.5,-0.5 C 133.833,-0.5 146.167,-0.5 158.5,-0.5C 169.435,8.60107 179.602,18.6011 189,29.5C 224.318,77.8652 250.818,130.865 268.5,188.5C 278.708,186.312 289.042,184.979 299.5,184.5C 309.94,185.104 320.273,186.438 330.5,188.5C 347.93,131.308 374.097,78.641 409,30.5C 418.699,19.6345 428.866,9.30112 439.5,-0.5C 451.833,-0.5 464.167,-0.5 476.5,-0.5C 480.054,4.64568 482.554,10.3123 484,16.5C 496.492,65.7832 504.325,115.783 507.5,166.5C 506.235,194.171 505.069,221.838 504,249.5C 502.051,261.395 497.384,272.061 490,281.5C 478.696,293.804 467.03,305.804 455,317.5C 453.414,319.67 452.08,322.004 451,324.5C 445.307,367.273 434.307,408.606 418,448.5C 408.446,468.273 399.446,488.273 391,508.5C 384.396,530.248 378.73,552.248 374,574.5C 371.816,583.925 367.649,592.258 361.5,599.5C 320.167,599.5 278.833,599.5 237.5,599.5C 232.127,593.426 228.293,586.426 226,578.5C 221.524,554.119 215.524,530.119 208,506.5C 191.663,474.818 177.663,442.151 166,408.5C 157.751,380.256 151.418,351.589 147,322.5C 145.333,320.167 143.667,317.833 142,315.5C 130.304,304.138 118.97,292.471 108,280.5C 101.488,271.474 97.1551,261.474 95,250.5C 93.8933,222.34 92.7266,194.173 91.5,166C 94.501,116.493 102.001,67.6596 114,19.5C 115.692,12.4632 118.192,5.7965 121.5,-0.5 Z"/></g>
<g><path style="opacity:1" fill="#e4915a" d="M 134.5,1.5 C 142.887,2.19265 150.22,5.35932 156.5,11C 182.687,36.1815 203.854,65.0149 220,97.5C 236.4,129.368 250.067,162.368 261,196.5C 262.255,198.594 264.088,199.594 266.5,199.5C 276.972,196.691 287.639,195.358 298.5,195.5C 310.933,196.064 323.266,197.231 335.5,199C 336.333,198.167 337.167,197.333 338,196.5C 354.042,144.421 377.042,95.754 407,50.5C 419.371,32.2516 434.538,16.7516 452.5,4C 462.15,-0.763982 468.65,2.06935 472,12.5C 483.449,55.1962 491.449,98.5295 496,142.5C 496.38,177.859 495.714,213.193 494,248.5C 492.228,257.706 488.562,266.039 483,273.5C 472.03,285.471 460.696,297.138 449,308.5C 445.581,312.331 442.914,316.665 441,321.5C 436.158,357.023 427.824,391.689 416,425.5C 404.722,452 393.055,478.333 381,504.5C 373.865,529.375 367.198,554.375 361,579.5C 354.942,594.552 343.775,600.386 327.5,597C 318.227,594.185 308.893,591.685 299.5,589.5C 289.982,591.283 280.649,593.783 271.5,597C 252.598,600.403 240.765,592.903 236,574.5C 231.387,550.494 225.387,526.827 218,503.5C 211.212,487.924 203.879,472.59 196,457.5C 176.466,413.367 163.466,367.367 157,319.5C 154.443,314.277 151.109,309.61 147,305.5C 137.279,295.779 127.613,286.113 118,276.5C 109.805,265.921 105.138,253.921 104,240.5C 103.902,215.802 103.069,191.135 101.5,166.5C 104.5,113.168 113.333,60.835 128,9.5C 130.001,6.66927 132.167,4.0026 134.5,1.5 Z"/></g>
<g><path style="opacity:1" fill="#110b07" d="M 142.5,20.5 C 149.04,20.4388 154.707,22.6054 159.5,27C 176.829,43.9999 190.663,63.4999 201,85.5C 215.769,114.808 226.769,145.475 234,177.5C 236.425,191.125 234.092,203.792 227,215.5C 215.333,228.167 203.667,240.833 192,253.5C 184.015,262.8 177.015,272.8 171,283.5C 167.604,287.203 163.437,288.369 158.5,287C 143.175,278.009 131.675,265.509 124,249.5C 122.798,246.226 121.798,242.893 121,239.5C 119.991,217.02 117.657,194.687 114,172.5C 112.553,135.209 115.219,98.2095 122,61.5C 123.785,49.688 127.119,38.3546 132,27.5C 134.673,23.615 138.173,21.2817 142.5,20.5 Z"/></g>
<g><path style="opacity:1" fill="#0c0704" d="M 452.5,20.5 C 460.532,20.3653 466.032,24.032 469,31.5C 477.251,60.2538 482.251,89.5871 484,119.5C 486.76,145 485.76,170.333 481,195.5C 480.095,209.509 479.095,223.509 478,237.5C 476.349,248.133 472.015,257.466 465,265.5C 458.366,274.471 450.199,281.638 440.5,287C 434.938,288.581 430.438,287.081 427,282.5C 422.075,273.647 416.409,265.314 410,257.5C 398.034,243.866 385.701,230.533 373,217.5C 363.05,201.507 361.05,184.507 367,166.5C 379.261,120.319 399.261,77.9856 427,39.5C 431.5,35 436,30.5 440.5,26C 444.227,23.2986 448.227,21.4653 452.5,20.5 Z"/></g>
<g><path style="opacity:1" fill="#784d33" d="M 149.5,26.5 C 146.482,26.3354 143.482,26.502 140.5,27C 138.963,28.7073 137.296,30.2073 135.5,31.5C 136.203,29.2843 137.536,27.451 139.5,26C 143.027,25.1925 146.36,25.3592 149.5,26.5 Z"/></g>
<g><path style="opacity:1" fill="#e3a399" d="M 149.5,26.5 C 151.205,28.1921 153.205,29.5254 155.5,30.5C 158.5,34.1667 161.833,37.5 165.5,40.5C 166.419,43.0892 168.086,45.0892 170.5,46.5C 171.08,48.7488 172.413,50.4154 174.5,51.5C 176.673,55.8523 179.34,59.8523 182.5,63.5C 182.427,65.0269 183.094,66.0269 184.5,66.5C 185.079,69.3311 186.412,71.6644 188.5,73.5C 189.41,76.9922 191.076,79.9922 193.5,82.5C 194.992,86.8178 196.992,90.8178 199.5,94.5C 201.044,99.9194 203.378,104.919 206.5,109.5C 208.264,115.473 210.597,121.14 213.5,126.5C 213.733,129.542 214.733,132.208 216.5,134.5C 217.1,138.406 218.433,142.073 220.5,145.5C 220.41,148.152 221.076,150.485 222.5,152.5C 223.13,156.048 224.13,159.381 225.5,162.5C 225.898,166.761 226.898,170.761 228.5,174.5C 230.051,184.245 229.718,193.912 227.5,203.5C 225.992,205.181 224.992,207.181 224.5,209.5C 222.684,211.118 221.351,213.118 220.5,215.5C 218.086,216.911 216.419,218.911 215.5,221.5C 211.833,224.5 208.5,227.833 205.5,231.5C 201.434,234.563 198.101,238.229 195.5,242.5C 194.5,242.833 193.833,243.5 193.5,244.5C 191.086,245.911 189.419,247.911 188.5,250.5C 187.833,250.5 187.5,250.833 187.5,251.5C 185.413,252.585 184.08,254.251 183.5,256.5C 181.413,257.585 180.08,259.251 179.5,261.5C 177.1,263.296 175.433,265.63 174.5,268.5C 172.178,269.802 170.845,271.802 170.5,274.5C 168.75,275.659 167.75,277.326 167.5,279.5C 164.838,281.268 161.838,281.935 158.5,281.5C 157.101,280.11 155.434,279.11 153.5,278.5C 149.5,273.833 145.167,269.5 140.5,265.5C 135.388,258.934 131.054,251.934 127.5,244.5C 126.623,239.35 125.623,234.35 124.5,229.5C 124.572,209.98 122.739,190.647 119,171.5C 117.605,128.912 121.438,86.9116 130.5,45.5C 131.924,43.4855 132.59,41.1522 132.5,38.5C 134.293,36.5739 135.293,34.2406 135.5,31.5C 137.296,30.2073 138.963,28.7073 140.5,27C 143.482,26.502 146.482,26.3354 149.5,26.5 Z"/></g>
<g><path style="opacity:1" fill="#e3a399" d="M 462.5,30.5 C 462.992,32.8185 463.992,34.8185 465.5,36.5C 469.709,52.2084 473.043,68.2084 475.5,84.5C 475.123,89.4526 475.789,94.1193 477.5,98.5C 478.904,111.035 479.904,123.701 480.5,136.5C 480.433,149.842 480.1,163.175 479.5,176.5C 475.639,196.126 473.639,216.126 473.5,236.5C 472.076,238.515 471.41,240.848 471.5,243.5C 470.596,244.209 470.263,245.209 470.5,246.5C 468.659,248.849 467.326,251.515 466.5,254.5C 464.453,256.55 462.786,258.883 461.5,261.5C 459.413,262.585 458.08,264.251 457.5,266.5C 456.833,266.5 456.5,266.833 456.5,267.5C 452.833,270.5 449.5,273.833 446.5,277.5C 443.423,279.368 440.09,280.701 436.5,281.5C 435.5,281.333 434.5,281.167 433.5,281C 432.267,279.333 430.933,277.833 429.5,276.5C 428.872,273.91 427.705,271.577 426,269.5C 423.636,266.31 421.136,263.31 418.5,260.5C 417.92,258.251 416.587,256.585 414.5,255.5C 413.581,252.911 411.914,250.911 409.5,249.5C 407.906,246.236 405.573,243.569 402.5,241.5C 401.833,241.5 401.5,241.167 401.5,240.5C 395.891,233.222 389.558,226.556 382.5,220.5C 381.5,220.167 380.833,219.5 380.5,218.5C 379.214,215.883 377.547,213.55 375.5,211.5C 373.461,206.765 371.461,202.099 369.5,197.5C 368.835,194.351 368.502,191.018 368.5,187.5C 368.775,182.733 369.441,178.066 370.5,173.5C 371.768,171.095 372.435,168.428 372.5,165.5C 373.434,164.432 373.768,163.099 373.5,161.5C 375.277,158.495 376.277,155.162 376.5,151.5C 378.405,147.784 379.739,143.784 380.5,139.5C 382.397,137.302 383.397,134.636 383.5,131.5C 383.263,130.209 383.596,129.209 384.5,128.5C 386.403,125.47 387.737,122.137 388.5,118.5C 390.293,116.574 391.293,114.241 391.5,111.5C 393.403,108.021 395.07,104.354 396.5,100.5C 400.675,93.4843 404.341,86.151 407.5,78.5C 408.104,75.7823 409.437,73.449 411.5,71.5C 413.588,69.6644 414.921,67.3311 415.5,64.5C 418.375,58.6249 422.041,53.2916 426.5,48.5C 432.472,42.193 438.472,35.8597 444.5,29.5C 447.153,27.2649 450.32,25.9316 454,25.5C 455.5,25.8333 457,26.1667 458.5,26.5C 459.521,28.188 460.855,29.5213 462.5,30.5 Z"/></g>
<g><path style="opacity:1" fill="#644028" d="M 155.5,30.5 C 159.833,32.8333 163.167,36.1667 165.5,40.5C 161.833,37.5 158.5,34.1667 155.5,30.5 Z"/></g>
<g><path style="opacity:1" fill="#69432a" d="M 462.5,30.5 C 464.539,31.911 465.539,33.911 465.5,36.5C 463.992,34.8185 462.992,32.8185 462.5,30.5 Z"/></g>
<g><path style="opacity:1" fill="#68422a" d="M 135.5,31.5 C 135.293,34.2406 134.293,36.5739 132.5,38.5C 132.707,35.7594 133.707,33.4261 135.5,31.5 Z"/></g>
<g><path style="opacity:1" fill="#674129" d="M 132.5,38.5 C 132.59,41.1522 131.924,43.4855 130.5,45.5C 130.41,42.8478 131.076,40.5145 132.5,38.5 Z"/></g>
<g><path style="opacity:1" fill="#764c32" d="M 165.5,40.5 C 167.914,41.9108 169.581,43.9108 170.5,46.5C 168.086,45.0892 166.419,43.0892 165.5,40.5 Z"/></g>
<g><path style="opacity:1" fill="#70482f" d="M 444.5,29.5 C 438.472,35.8597 432.472,42.193 426.5,48.5C 431.121,40.8783 437.121,34.5449 444.5,29.5 Z"/></g>
<g><path style="opacity:1" fill="#69432b" d="M 170.5,46.5 C 172.587,47.5846 173.92,49.2512 174.5,51.5C 172.413,50.4154 171.08,48.7488 170.5,46.5 Z"/></g>
<g><path style="opacity:1" fill="#6a442b" d="M 174.5,51.5 C 178.156,54.8033 180.822,58.8033 182.5,63.5C 179.34,59.8523 176.673,55.8523 174.5,51.5 Z"/></g>
<g><path style="opacity:1" fill="#664129" d="M 415.5,64.5 C 414.921,67.3311 413.588,69.6644 411.5,71.5C 412.079,68.6689 413.412,66.3356 415.5,64.5 Z"/></g>
<g><path style="opacity:1" fill="#664129" d="M 184.5,66.5 C 186.588,68.3356 187.921,70.6689 188.5,73.5C 186.412,71.6644 185.079,69.3311 184.5,66.5 Z"/></g>
<g><path style="opacity:1" fill="#67422a" d="M 188.5,73.5 C 190.924,76.0078 192.59,79.0078 193.5,82.5C 191.076,79.9922 189.41,76.9922 188.5,73.5 Z"/></g>
<g><path style="opacity:1" fill="#664129" d="M 407.5,78.5 C 404.341,86.151 400.675,93.4843 396.5,100.5C 399.126,92.581 402.793,85.2476 407.5,78.5 Z"/></g>
<g><path style="opacity:1" fill="#936147" d="M 475.5,84.5 C 476.801,88.9426 477.468,93.6093 477.5,98.5C 475.789,94.1193 475.123,89.4526 475.5,84.5 Z"/></g>
<g><path style="opacity:1" fill="#664129" d="M 199.5,94.5 C 202.622,99.0806 204.956,104.081 206.5,109.5C 203.378,104.919 201.044,99.9194 199.5,94.5 Z"/></g>
<g><path style="opacity:1" fill="#664129" d="M 391.5,111.5 C 391.293,114.241 390.293,116.574 388.5,118.5C 388.707,115.759 389.707,113.426 391.5,111.5 Z"/></g>
<g><path style="opacity:1" fill="#674129" d="M 388.5,118.5 C 387.737,122.137 386.403,125.47 384.5,128.5C 384.872,124.703 386.206,121.37 388.5,118.5 Z"/></g>
<g><path style="opacity:1" fill="#69432b" d="M 213.5,126.5 C 215.267,128.792 216.267,131.458 216.5,134.5C 214.733,132.208 213.733,129.542 213.5,126.5 Z"/></g>
<g><path style="opacity:1" fill="#8f5f46" d="M 383.5,131.5 C 383.397,134.636 382.397,137.302 380.5,139.5C 380.733,136.458 381.733,133.792 383.5,131.5 Z"/></g>
<g><path style="opacity:1" fill="#654028" d="M 220.5,145.5 C 221.924,147.515 222.59,149.848 222.5,152.5C 221.076,150.485 220.41,148.152 220.5,145.5 Z"/></g>
<g><path style="opacity:1" fill="#67422a" d="M 376.5,151.5 C 376.277,155.162 375.277,158.495 373.5,161.5C 373.723,157.838 374.723,154.505 376.5,151.5 Z"/></g>
<g><path style="opacity:1" fill="#8f5e45" d="M 480.5,136.5 C 481.166,141.322 481.499,146.322 481.5,151.5C 481.611,160.047 480.944,168.38 479.5,176.5C 480.1,163.175 480.433,149.842 480.5,136.5 Z"/></g>
<g><path style="opacity:1" fill="#68422a" d="M 225.5,162.5 C 227.416,166.163 228.416,170.163 228.5,174.5C 226.898,170.761 225.898,166.761 225.5,162.5 Z"/></g>
<g><path style="opacity:1" fill="#67422a" d="M 372.5,165.5 C 372.435,168.428 371.768,171.095 370.5,173.5C 370.294,170.505 370.96,167.838 372.5,165.5 Z"/></g>
<g><path style="opacity:1" fill="#6b442c" d="M 369.5,197.5 C 371.461,202.099 373.461,206.765 375.5,211.5C 371.89,207.604 369.89,202.937 369.5,197.5 Z"/></g>
<g><path style="opacity:1" fill="#633f27" d="M 227.5,203.5 C 227.539,206.089 226.539,208.089 224.5,209.5C 224.992,207.181 225.992,205.181 227.5,203.5 Z"/></g>
<g><path style="opacity:1" fill="#69432a" d="M 375.5,211.5 C 377.547,213.55 379.214,215.883 380.5,218.5C 377.677,217.008 376.01,214.674 375.5,211.5 Z"/></g>
<g><path style="opacity:1" fill="#6c452d" d="M 220.5,215.5 C 219.581,218.089 217.914,220.089 215.5,221.5C 216.419,218.911 218.086,216.911 220.5,215.5 Z"/></g>
<g><path style="opacity:1" fill="#68432a" d="M 382.5,220.5 C 389.558,226.556 395.891,233.222 401.5,240.5C 394.442,234.444 388.109,227.778 382.5,220.5 Z"/></g>
<g><path style="opacity:1" fill="#67412a" d="M 473.5,236.5 C 473.59,239.152 472.924,241.485 471.5,243.5C 471.41,240.848 472.076,238.515 473.5,236.5 Z"/></g>
<g><path style="opacity:1" fill="#6b442c" d="M 124.5,229.5 C 125.623,234.35 126.623,239.35 127.5,244.5C 125.124,239.894 124.124,234.894 124.5,229.5 Z"/></g>
<g><path style="opacity:1" fill="#674229" d="M 205.5,231.5 C 202.899,235.771 199.566,239.437 195.5,242.5C 198.101,238.229 201.434,234.563 205.5,231.5 Z"/></g>
<g><path style="opacity:1" fill="#644028" d="M 402.5,241.5 C 405.573,243.569 407.906,246.236 409.5,249.5C 406.427,247.431 404.094,244.764 402.5,241.5 Z"/></g>
<g><path style="opacity:1" fill="#67422a" d="M 193.5,244.5 C 192.581,247.089 190.914,249.089 188.5,250.5C 189.419,247.911 191.086,245.911 193.5,244.5 Z"/></g>
<g><path style="opacity:1" fill="#68422a" d="M 409.5,249.5 C 411.914,250.911 413.581,252.911 414.5,255.5C 412.086,254.089 410.419,252.089 409.5,249.5 Z"/></g>
<g><path style="opacity:1" fill="#643f28" d="M 187.5,251.5 C 186.92,253.749 185.587,255.415 183.5,256.5C 184.08,254.251 185.413,252.585 187.5,251.5 Z"/></g>
<g><path style="opacity:1" fill="#654028" d="M 470.5,246.5 C 470.206,249.754 468.873,252.421 466.5,254.5C 467.326,251.515 468.659,248.849 470.5,246.5 Z"/></g>
<g><path style="opacity:1" fill="#68422a" d="M 414.5,255.5 C 416.587,256.585 417.92,258.251 418.5,260.5C 416.413,259.415 415.08,257.749 414.5,255.5 Z"/></g>
<g><path style="opacity:1" fill="#664129" d="M 183.5,256.5 C 182.92,258.749 181.587,260.415 179.5,261.5C 180.08,259.251 181.413,257.585 183.5,256.5 Z"/></g>
<g><path style="opacity:1" fill="#c97f4e" d="M 266.5,261.5 C 272.957,262.656 278.124,265.989 282,271.5C 292.292,286.973 295.792,303.64 292.5,321.5C 291.914,321.291 291.414,320.957 291,320.5C 291.879,301.794 286.045,285.628 273.5,272C 271.167,270.833 268.833,269.667 266.5,268.5C 265.286,266.141 265.286,263.808 266.5,261.5 Z"/></g>
<g><path style="opacity:1" fill="#c9804e" d="M 328.5,261.5 C 333.068,261.083 334.568,263.083 333,267.5C 318.469,275.865 310.469,288.532 309,305.5C 308.667,310.167 308.333,314.833 308,319.5C 307.333,320.167 306.667,320.833 306,321.5C 302.8,303.947 306.134,287.613 316,272.5C 319.767,268.224 323.934,264.557 328.5,261.5 Z"/></g>
<g><path style="opacity:1" fill="#69432b" d="M 461.5,261.5 C 460.92,263.749 459.587,265.415 457.5,266.5C 458.08,264.251 459.413,262.585 461.5,261.5 Z"/></g>
<g><path style="opacity:1" fill="#69432a" d="M 140.5,265.5 C 145.167,269.5 149.5,273.833 153.5,278.5C 148.167,275.167 143.833,270.833 140.5,265.5 Z"/></g>
<g><path style="opacity:1" fill="#664129" d="M 174.5,268.5 C 173.66,270.853 172.326,272.853 170.5,274.5C 170.845,271.802 172.178,269.802 174.5,268.5 Z"/></g>
<g><path style="opacity:1" fill="#613d26" d="M 456.5,267.5 C 454.167,271.833 450.833,275.167 446.5,277.5C 449.5,273.833 452.833,270.5 456.5,267.5 Z"/></g>
<g><path style="opacity:1" fill="#6a442b" d="M 429.5,276.5 C 430.933,277.833 432.267,279.333 433.5,281C 434.5,281.167 435.5,281.333 436.5,281.5C 440.09,280.701 443.423,279.368 446.5,277.5C 442.916,282.047 438.25,283.547 432.5,282C 430.84,280.512 429.84,278.679 429.5,276.5 Z"/></g>
<g><path style="opacity:1" fill="#734a31" d="M 167.5,279.5 C 167.586,280.496 167.252,281.329 166.5,282C 163.633,282.801 160.966,282.634 158.5,281.5C 161.838,281.935 164.838,281.268 167.5,279.5 Z"/></g>
<g><path style="opacity:1" fill="#c97f4e" d="M 250.5,298.5 C 266.102,296.923 275.269,303.923 278,319.5C 278.804,324.751 278.637,329.918 277.5,335C 276.216,335.684 275.049,335.517 274,334.5C 275.818,322.956 272.651,313.123 264.5,305C 256.103,301.973 248.769,303.64 242.5,310C 239.679,310.506 238.512,309.34 239,306.5C 242.464,303.195 246.297,300.528 250.5,298.5 Z"/></g>
<g><path style="opacity:1" fill="#c97f4e" d="M 339.5,298.5 C 348.438,297.357 356.272,299.69 363,305.5C 363.884,307.641 363.384,309.307 361.5,310.5C 345.689,298.344 334.856,301.678 329,320.5C 328.524,325.217 328.524,329.883 329,334.5C 327.951,335.517 326.784,335.684 325.5,335C 321.809,323.914 323.642,313.747 331,304.5C 333.671,302.098 336.505,300.098 339.5,298.5 Z"/></g>
<g><path style="opacity:1" fill="#cf8554" d="M 222.5,333.5 C 249.676,332.839 260.843,345.839 256,372.5C 245.918,389.901 231.751,394.068 213.5,385C 197.914,369.977 197.581,354.644 212.5,339C 215.767,336.87 219.1,335.037 222.5,333.5 Z"/></g>
<g><path style="opacity:1" fill="#d08554" d="M 361.5,333.5 C 385.638,332.139 397.471,343.473 397,367.5C 391.239,384.58 379.406,391.747 361.5,389C 346.118,383.069 339.284,371.903 341,355.5C 344.285,344.719 351.119,337.386 361.5,333.5 Z"/></g>
<g><path style="opacity:1" fill="#302825" d="M 224.5,342.5 C 242.151,341.65 249.985,349.984 248,367.5C 241.421,380.47 231.587,383.637 218.5,377C 206.198,362.976 208.198,351.476 224.5,342.5 Z"/></g>
<g><path style="opacity:1" fill="#312825" d="M 363.5,342.5 C 383.064,342.225 390.564,351.559 386,370.5C 378.483,381.045 368.983,383.211 357.5,377C 345.294,363.013 347.294,351.513 363.5,342.5 Z"/></g>
<g><path style="opacity:1" fill="#f3f3f3" d="M 233.5,351.5 C 240.574,352.482 242.24,355.982 238.5,362C 232,363.5 229.5,361 231,354.5C 232.045,353.627 232.878,352.627 233.5,351.5 Z"/></g>
<g><path style="opacity:1" fill="#f0f0f0" d="M 373.5,351.5 C 380.985,352.805 382.319,356.305 377.5,362C 372.16,362.989 369.66,360.822 370,355.5C 370.69,353.65 371.856,352.316 373.5,351.5 Z"/></g>
<g><path style="opacity:1" fill="#873913" d="M 298.5,514.5 C 313.838,514.253 326.004,520.253 335,532.5C 340.121,544.805 337.621,555.305 327.5,564C 309.368,577.596 291.035,577.93 272.5,565C 261.753,555.783 258.586,544.616 263,531.5C 268.063,524.775 274.563,519.941 282.5,517C 287.988,516.226 293.321,515.393 298.5,514.5 Z"/></g>
</svg>
