<?xml version="1.0" encoding="UTF-8"?>
<!DOCTYPE svg PUBLIC "-//W3C//DTD SVG 1.1//EN" "http://www.w3.org/Graphics/SVG/1.1/DTD/svg11.dtd">
<svg xmlns="http://www.w3.org/2000/svg" version="1.1" width="600px" height="600px" style="shape-rendering:geometricPrecision; text-rendering:geometricPrecision; image-rendering:optimizeQuality; fill-rule:evenodd; clip-rule:evenodd" xmlns:xlink="http://www.w3.org/1999/xlink">
<g><path style="opacity:0.957" fill="#020202" d="M 599.5,419.5 C 599.5,435.833 599.5,452.167 599.5,468.5C 592.105,508.731 568.438,533.564 528.5,543C 507.025,545.952 486.025,543.952 465.5,537C 446.334,529.504 434.834,515.671 431,495.5C 431.453,511.235 428.453,526.235 422,540.5C 417.169,547.556 410.502,550.556 402,549.5C 390.316,549.076 380.149,544.909 371.5,537C 365.922,532.093 361.089,526.593 357,520.5C 355.186,519.24 353.353,519.24 351.5,520.5C 340.961,545.779 321.961,556.612 294.5,553C 276.143,548.979 263.643,538.146 257,520.5C 255.806,519.57 254.473,518.903 253,518.5C 243.96,530.543 232.794,540.043 219.5,547C 201.124,553.393 188.624,547.559 182,529.5C 179.105,513.644 177.438,497.644 177,481.5C 176.275,479.051 175.275,476.717 174,474.5C 177.657,506.027 164.491,526.86 134.5,537C 111.768,544.36 88.7675,545.36 65.5,540C 27.5386,528.209 5.53861,502.709 -0.5,463.5C -0.5,449.5 -0.5,435.5 -0.5,421.5C 5.39637,393.977 14.2297,367.31 26,341.5C 31.6195,316.401 37.6195,291.401 44,266.5C 54,247.833 64,229.167 74,210.5C 79.6907,191.739 85.6907,173.072 92,154.5C 102.663,128.508 119.83,108.008 143.5,93C 155.869,86.6585 168.869,83.3252 182.5,83C 206.981,65.4384 234.314,55.1051 264.5,52C 307.998,46.3162 350.331,50.9829 391.5,66C 401.006,70.9165 410.006,76.5832 418.5,83C 438.832,82.2217 456.832,88.2217 472.5,101C 488.425,114.665 500.592,131.165 509,150.5C 516.153,172.108 523.153,193.774 530,215.5C 538.921,231.675 547.588,248.008 556,264.5C 558.405,271.047 560.405,277.714 562,284.5C 565.206,300.863 568.539,317.197 572,333.5C 577.603,350.308 583.603,366.975 590,383.5C 593.523,395.541 596.689,407.541 599.5,419.5 Z"/></g>
<g><path style="opacity:1" fill="#e2d4c9" d="M 441.5,96.5 C 441.029,100.503 439.029,103.669 435.5,106C 438.977,111.474 443.144,116.307 448,120.5C 448.383,119.944 448.883,119.611 449.5,119.5C 449.414,120.496 449.748,121.329 450.5,122C 453.412,123.373 456.246,124.873 459,126.5C 459.399,126.272 459.565,125.938 459.5,125.5C 467.695,130.763 476.029,135.763 484.5,140.5C 487.184,142.871 488.518,145.871 488.5,149.5C 486.712,149.215 485.045,149.548 483.5,150.5C 483.014,152.497 481.847,153.831 480,154.5C 478.178,152.898 476.345,151.231 474.5,149.5C 473.28,149.887 472.613,150.72 472.5,152C 476.958,161.75 481.791,171.25 487,180.5C 490.604,189.201 493.77,198.034 496.5,207C 496.742,209.348 495.908,211.182 494,212.5C 488.797,207.759 483.464,207.426 478,211.5C 477.881,225.987 480.548,239.987 486,253.5C 488.198,260.291 488.698,267.125 487.5,274C 484.266,274.2 481.266,275.033 478.5,276.5C 476.226,276.03 474.226,275.03 472.5,273.5C 470.808,278.253 470.475,282.919 471.5,287.5C 471.389,288.117 471.056,288.617 470.5,289C 473.779,295.057 476.946,301.224 480,307.5C 480.667,310.167 480.667,312.833 480,315.5C 477.367,320.237 476.867,325.237 478.5,330.5C 477.5,330.5 476.5,330.5 475.5,330.5C 475.194,333.385 475.527,336.052 476.5,338.5C 470.731,355.405 464.897,372.405 459,389.5C 454.658,400.686 449.824,411.686 444.5,422.5C 441.418,420.931 438.585,421.265 436,423.5C 433.315,428.744 431.148,434.077 429.5,439.5C 429.164,407.268 426.331,375.268 421,343.5C 419.438,336.567 417.271,329.9 414.5,323.5C 418.777,311.526 423.944,299.859 430,288.5C 432.898,282.036 435.231,275.37 437,268.5C 438.022,257.559 435.355,247.559 429,238.5C 413.162,215.056 390.995,201.889 362.5,199C 354.507,198.5 346.507,198.334 338.5,198.5C 338.5,200.167 338.5,201.833 338.5,203.5C 335.48,172.894 341.98,144.228 358,117.5C 363.752,108.328 369.752,99.328 376,90.5C 376.289,80.7749 371.456,75.2749 361.5,74C 320.955,64.745 280.621,65.4116 240.5,76C 234.139,78.8896 231.639,83.723 233,90.5C 243.258,104.671 252.258,119.671 260,135.5C 270.2,157.297 273.7,179.964 270.5,203.5C 270.5,201.833 270.5,200.167 270.5,198.5C 242.64,195.901 217.64,203.067 195.5,220C 185.362,229.774 177.862,241.274 173,254.5C 172.333,259.833 172.333,265.167 173,270.5C 179.801,287.902 186.801,305.235 194,322.5C 194.383,321.944 194.883,321.611 195.5,321.5C 188.383,338.378 184.216,356.044 183,374.5C 181.228,405.499 181.061,436.499 182.5,467.5C 177.204,454.792 172.371,441.792 168,428.5C 165.758,426.285 163.258,425.952 160.5,427.5C 154.945,418.387 150.445,408.721 147,398.5C 146.282,397.549 145.449,397.383 144.5,398C 142.667,399.833 140.833,401.667 139,403.5C 139.621,392.385 141.288,381.385 144,370.5C 144.667,367.167 144.667,363.833 144,360.5C 141.271,364.898 137.604,368.231 133,370.5C 132.228,370.355 131.561,370.022 131,369.5C 126.217,359.15 125.383,348.484 128.5,337.5C 127.844,335.547 127.511,333.547 127.5,331.5C 126.5,331.5 125.5,331.5 124.5,331.5C 124.83,328.843 125.163,326.176 125.5,323.5C 124.648,319.629 123.648,315.795 122.5,312C 124.375,305.414 127.209,299.248 131,293.5C 131.362,287.447 130.862,281.447 129.5,275.5C 126.422,278.034 123.422,278.034 120.5,275.5C 116.559,277.437 114.226,276.271 113.5,272C 119.013,251.747 122.846,231.247 125,210.5C 123.883,208.876 122.383,207.876 120.5,207.5C 116.856,209.324 113.356,211.324 110,213.5C 106.693,212.752 105.193,210.585 105.5,207C 109.816,189.868 116.983,174.034 127,159.5C 128.561,156.341 128.728,153.174 127.5,150C 123.187,150.245 118.853,150.245 114.5,150C 113.251,147.79 113.418,145.624 115,143.5C 117.074,141.548 119.241,139.715 121.5,138C 133.253,131.373 145.086,124.873 157,118.5C 159.973,114.026 163.14,109.693 166.5,105.5C 164.066,103.079 162.066,100.412 160.5,97.5C 162.359,96.4058 164.359,95.5725 166.5,95C 173.208,94.7114 179.875,94.0448 186.5,93C 219.954,69.4631 257.287,58.6297 298.5,60.5C 329.272,59.5555 358.939,64.7221 387.5,76C 397.166,81.1643 406.5,86.8309 415.5,93C 424.275,93.7922 432.942,94.9589 441.5,96.5 Z"/></g>
<g><path style="opacity:1" fill="#f6eae1" d="M 338.5,203.5 C 340.231,217.961 345.064,231.294 353,243.5C 357.95,250.784 363.283,257.784 369,264.5C 383.526,277.349 396.192,291.682 407,307.5C 409.785,312.735 412.285,318.068 414.5,323.5C 417.271,329.9 419.438,336.567 421,343.5C 426.331,375.268 429.164,407.268 429.5,439.5C 427.645,447.236 425.478,454.902 423,462.5C 421.792,482.539 420.125,502.539 418,522.5C 415.617,536.937 407.45,542.103 393.5,538C 379.988,531.489 369.321,521.822 361.5,509C 359.323,507.798 356.989,507.298 354.5,507.5C 353.449,506.778 352.782,505.778 352.5,504.5C 351.828,503.733 350.995,503.066 350,502.5C 349.304,499.562 348.138,496.896 346.5,494.5C 347.043,494.44 347.376,494.107 347.5,493.5C 345.971,484.527 344.471,475.527 343,466.5C 342.333,449.5 342.333,432.5 343,415.5C 344.933,408.302 345.767,400.969 345.5,393.5C 363.854,379.505 369.02,361.838 361,340.5C 351.411,327.839 338.578,321.006 322.5,320C 303.211,317.407 284.211,318.74 265.5,324C 244.902,332.027 237.069,346.86 242,368.5C 245.704,379.019 251.871,387.686 260.5,394.5C 264.906,421.68 265.739,449.014 263,476.5C 261.805,483.913 260.305,491.246 258.5,498.5C 257.566,499.568 257.232,500.901 257.5,502.5C 256.163,503.315 255.163,504.482 254.5,506C 253.552,506.483 252.552,506.649 251.5,506.5C 250.448,506.351 249.448,506.517 248.5,507C 240.126,518.375 230.126,528.041 218.5,536C 211.93,538.771 205.263,539.104 198.5,537C 193.764,532.144 190.931,526.311 190,519.5C 188.953,504.503 187.953,489.503 187,474.5C 184.481,472.789 182.981,470.455 182.5,467.5C 181.061,436.499 181.228,405.499 183,374.5C 184.216,356.044 188.383,338.378 195.5,321.5C 199.212,311.632 204.379,302.632 211,294.5C 227.488,278.687 242.488,261.687 256,243.5C 263.706,231.217 268.539,217.884 270.5,203.5C 273.7,179.964 270.2,157.297 260,135.5C 252.258,119.671 243.258,104.671 233,90.5C 231.639,83.723 234.139,78.8896 240.5,76C 280.621,65.4116 320.955,64.745 361.5,74C 371.456,75.2749 376.289,80.7749 376,90.5C 369.752,99.328 363.752,108.328 358,117.5C 341.98,144.228 335.48,172.894 338.5,203.5 Z"/></g>
<g><path style="opacity:1" fill="#baaea6" d="M 441.5,96.5 C 445.901,97.4056 449.901,99.0723 453.5,101.5C 452.676,105.312 452.176,109.312 452,113.5C 451.76,115.852 450.927,117.852 449.5,119.5C 448.883,119.611 448.383,119.944 448,120.5C 443.144,116.307 438.977,111.474 435.5,106C 439.029,103.669 441.029,100.503 441.5,96.5 Z"/></g>
<g><path style="opacity:1" fill="#673426" d="M 160.5,97.5 C 162.066,100.412 164.066,103.079 166.5,105.5C 163.14,109.693 159.973,114.026 157,118.5C 145.086,124.873 133.253,131.373 121.5,138C 119.241,139.715 117.074,141.548 115,143.5C 113.418,145.624 113.251,147.79 114.5,150C 118.853,150.245 123.187,150.245 127.5,150C 128.728,153.174 128.561,156.341 127,159.5C 116.983,174.034 109.816,189.868 105.5,207C 105.193,210.585 106.693,212.752 110,213.5C 113.356,211.324 116.856,209.324 120.5,207.5C 122.383,207.876 123.883,208.876 125,210.5C 122.846,231.247 119.013,251.747 113.5,272C 114.226,276.271 116.559,277.437 120.5,275.5C 123.422,278.034 126.422,278.034 129.5,275.5C 130.862,281.447 131.362,287.447 131,293.5C 127.209,299.248 124.375,305.414 122.5,312C 123.648,315.795 124.648,319.629 125.5,323.5C 125.163,326.176 124.83,328.843 124.5,331.5C 125.5,331.5 126.5,331.5 127.5,331.5C 127.511,333.547 127.844,335.547 128.5,337.5C 125.383,348.484 126.217,359.15 131,369.5C 131.561,370.022 132.228,370.355 133,370.5C 137.604,368.231 141.271,364.898 144,360.5C 144.667,363.833 144.667,367.167 144,370.5C 141.288,381.385 139.621,392.385 139,403.5C 140.833,401.667 142.667,399.833 144.5,398C 145.449,397.383 146.282,397.549 147,398.5C 150.445,408.721 154.945,418.387 160.5,427.5C 159.406,429.359 158.573,431.359 158,433.5C 157.333,440.833 157.333,448.167 158,455.5C 161.194,465.439 163.028,475.605 163.5,486C 163.676,503.825 155.676,516.492 139.5,524C 116.156,533.927 92.1561,535.927 67.5,530C 33.3555,518.844 14.1889,495.344 10,459.5C 7.43722,440.895 8.77055,422.561 14,404.5C 20.1494,384.05 27.4828,364.05 36,344.5C 41.1049,322.21 46.1049,299.877 51,277.5C 53.1175,271.264 55.7841,265.264 59,259.5C 67.8561,244.455 76.1895,229.121 84,213.5C 89.4991,194.669 95.4991,176.003 102,157.5C 110.723,138.114 123.223,121.614 139.5,108C 145.975,103.429 152.975,99.929 160.5,97.5 Z"/></g>
<g><path style="opacity:1" fill="#f5eae1" d="M 453.5,101.5 C 469.432,110.265 481.932,122.598 491,138.5C 501.754,157.924 509.254,178.591 513.5,200.5C 493.784,213.468 486.95,231.468 493,254.5C 494,256.833 495,259.167 496,261.5C 497.396,263.527 499.062,263.86 501,262.5C 506.778,246.319 512.611,230.319 518.5,214.5C 527.477,233.121 536.977,251.454 547,269.5C 549.466,276.365 551.466,283.365 553,290.5C 556.027,307.97 559.694,325.303 564,342.5C 571.23,360.962 577.897,379.628 584,398.5C 592.171,425.769 592.504,453.102 585,480.5C 578.548,502.617 564.715,518.117 543.5,527C 513.425,538.177 484.425,535.844 456.5,520C 443.905,508.55 439.072,494.383 442,477.5C 448.099,459.339 448.932,441.005 444.5,422.5C 449.824,411.686 454.658,400.686 459,389.5C 464.897,372.405 470.731,355.405 476.5,338.5C 481.511,338.666 486.511,338.499 491.5,338C 494.266,336.533 496.766,334.7 499,332.5C 502.588,326.325 505.922,319.991 509,313.5C 518.536,302.789 526.869,291.123 534,278.5C 536.784,273.825 538.117,268.825 538,263.5C 537.097,262.299 535.931,261.465 534.5,261C 530.789,260.561 527.122,260.894 523.5,262C 505.218,268.641 487.885,277.141 471.5,287.5C 470.475,282.919 470.808,278.253 472.5,273.5C 474.226,275.03 476.226,276.03 478.5,276.5C 481.266,275.033 484.266,274.2 487.5,274C 488.698,267.125 488.198,260.291 486,253.5C 480.548,239.987 477.881,225.987 478,211.5C 483.464,207.426 488.797,207.759 494,212.5C 495.908,211.182 496.742,209.348 496.5,207C 493.77,198.034 490.604,189.201 487,180.5C 481.791,171.25 476.958,161.75 472.5,152C 472.613,150.72 473.28,149.887 474.5,149.5C 476.345,151.231 478.178,152.898 480,154.5C 481.847,153.831 483.014,152.497 483.5,150.5C 485.045,149.548 486.712,149.215 488.5,149.5C 488.518,145.871 487.184,142.871 484.5,140.5C 480.125,128.602 472.791,118.769 462.5,111C 455.618,106.689 452.784,108.522 454,116.5C 455.343,119.862 457.176,122.862 459.5,125.5C 459.565,125.938 459.399,126.272 459,126.5C 456.246,124.873 453.412,123.373 450.5,122C 449.748,121.329 449.414,120.496 449.5,119.5C 450.927,117.852 451.76,115.852 452,113.5C 452.176,109.312 452.676,105.312 453.5,101.5 Z"/></g>
<g><path style="opacity:1" fill="#bcafa7" d="M 484.5,140.5 C 476.029,135.763 467.695,130.763 459.5,125.5C 457.176,122.862 455.343,119.862 454,116.5C 452.784,108.522 455.618,106.689 462.5,111C 472.791,118.769 480.125,128.602 484.5,140.5 Z"/></g>
<g><path style="opacity:1" fill="#88766e" d="M 270.5,203.5 C 268.539,217.884 263.706,231.217 256,243.5C 242.488,261.687 227.488,278.687 211,294.5C 204.379,302.632 199.212,311.632 195.5,321.5C 194.883,321.611 194.383,321.944 194,322.5C 186.801,305.235 179.801,287.902 173,270.5C 172.333,265.167 172.333,259.833 173,254.5C 177.862,241.274 185.362,229.774 195.5,220C 217.64,203.067 242.64,195.901 270.5,198.5C 270.5,200.167 270.5,201.833 270.5,203.5 Z"/></g>
<g><path style="opacity:1" fill="#88766e" d="M 414.5,323.5 C 412.285,318.068 409.785,312.735 407,307.5C 396.192,291.682 383.526,277.349 369,264.5C 363.283,257.784 357.95,250.784 353,243.5C 345.064,231.294 340.231,217.961 338.5,203.5C 338.5,201.833 338.5,200.167 338.5,198.5C 346.507,198.334 354.507,198.5 362.5,199C 390.995,201.889 413.162,215.056 429,238.5C 435.355,247.559 438.022,257.559 437,268.5C 435.231,275.37 432.898,282.036 430,288.5C 423.944,299.859 418.777,311.526 414.5,323.5 Z"/></g>
<g><path style="opacity:1" fill="#bbaea6" d="M 513.5,200.5 C 515.165,205.155 516.832,209.822 518.5,214.5C 512.611,230.319 506.778,246.319 501,262.5C 499.062,263.86 497.396,263.527 496,261.5C 495,259.167 494,256.833 493,254.5C 486.95,231.468 493.784,213.468 513.5,200.5 Z"/></g>
<g><path style="opacity:1" fill="#eec8d5" d="M 194.5,240.5 C 201.058,252.934 210.725,256.1 223.5,250C 232.857,240.927 233.857,231.093 226.5,220.5C 228.089,218.694 230.089,217.361 232.5,216.5C 239.002,223.163 241.169,231.163 239,240.5C 232.589,257.624 220.423,264.124 202.5,260C 196.437,257.271 191.603,253.104 188,247.5C 188.148,243.512 190.314,241.178 194.5,240.5 Z"/></g>
<g><path style="opacity:1" fill="#edc7d5" d="M 387.5,220.5 C 383.503,224.002 381.503,228.502 381.5,234C 384.189,248.695 392.856,254.695 407.5,252C 413.643,249.875 417.643,245.709 419.5,239.5C 422.029,241.265 424.362,243.265 426.5,245.5C 416.367,261.618 402.701,265.452 385.5,257C 371.716,245.068 369.883,231.568 380,216.5C 382.769,217.466 385.269,218.799 387.5,220.5 Z"/></g>
<g><path style="opacity:1" fill="#020101" d="M 226.5,220.5 C 233.857,231.093 232.857,240.927 223.5,250C 210.725,256.1 201.058,252.934 194.5,240.5C 203.781,231.847 214.448,225.18 226.5,220.5 Z"/></g>
<g><path style="opacity:1" fill="#020202" d="M 387.5,220.5 C 399.13,225.311 409.797,231.644 419.5,239.5C 417.643,245.709 413.643,249.875 407.5,252C 392.856,254.695 384.189,248.695 381.5,234C 381.503,228.502 383.503,224.002 387.5,220.5 Z"/></g>
<g><path style="opacity:1" fill="#bdb0a8" d="M 320.5,254.5 C 325.358,254.854 328.192,257.521 329,262.5C 330.125,267.399 329.291,271.899 326.5,276C 322.316,277.165 319.483,275.665 318,271.5C 316.891,265.501 317.725,259.834 320.5,254.5 Z"/></g>
<g><path style="opacity:1" fill="#bbaea6" d="M 476.5,338.5 C 475.527,336.052 475.194,333.385 475.5,330.5C 476.5,330.5 477.5,330.5 478.5,330.5C 476.867,325.237 477.367,320.237 480,315.5C 480.667,312.833 480.667,310.167 480,307.5C 476.946,301.224 473.779,295.057 470.5,289C 471.056,288.617 471.389,288.117 471.5,287.5C 487.885,277.141 505.218,268.641 523.5,262C 527.122,260.894 530.789,260.561 534.5,261C 535.931,261.465 537.097,262.299 538,263.5C 538.117,268.825 536.784,273.825 534,278.5C 526.869,291.123 518.536,302.789 509,313.5C 505.922,319.991 502.588,326.325 499,332.5C 496.766,334.7 494.266,336.533 491.5,338C 486.511,338.499 481.511,338.666 476.5,338.5 Z"/></g>
<g><path style="opacity:1" fill="#bbaea6" d="M 528.5,305.5 C 532.691,306.262 536.358,308.096 539.5,311C 546.48,317.642 552.313,325.142 557,333.5C 558.012,339.35 557.512,345.016 555.5,350.5C 554.675,351.386 553.675,351.719 552.5,351.5C 550.487,345.139 547.654,339.139 544,333.5C 538.429,327.352 533.096,321.019 528,314.5C 527.264,311.408 527.431,308.408 528.5,305.5 Z"/></g>
<g><path style="opacity:1" fill="#000000" d="M 345.5,393.5 C 329.031,406.784 310.365,411.617 289.5,408C 279.269,404.549 269.603,400.049 260.5,394.5C 251.871,387.686 245.704,379.019 242,368.5C 237.069,346.86 244.902,332.027 265.5,324C 284.211,318.74 303.211,317.407 322.5,320C 338.578,321.006 351.411,327.839 361,340.5C 369.02,361.838 363.854,379.505 345.5,393.5 Z"/></g>
<g><path style="opacity:1" fill="#bcafa7" d="M 217.5,366.5 C 224.314,366.49 226.814,369.823 225,376.5C 221.667,382.5 218.333,388.5 215,394.5C 210.87,398.57 208.203,397.57 207,391.5C 206.63,381.569 210.13,373.236 217.5,366.5 Z"/></g>
<g><path style="opacity:1" fill="#b2a69e" d="M 376.5,372.5 C 378.783,372.608 380.783,373.441 382.5,375C 388.232,380.291 390.732,386.791 390,394.5C 388.412,397.309 386.245,397.975 383.5,396.5C 379.544,390.641 376.544,384.307 374.5,377.5C 374.437,375.486 375.103,373.819 376.5,372.5 Z"/></g>
<g><path style="opacity:1" fill="#ada099" d="M 509.5,371.5 C 513.143,372.382 514.31,374.716 513,378.5C 510.319,383.874 507.152,388.874 503.5,393.5C 500.101,389.893 499.601,385.893 502,381.5C 503.803,377.523 506.303,374.189 509.5,371.5 Z"/></g>
<g><path style="opacity:1" fill="#92827b" d="M 345.5,393.5 C 345.767,400.969 344.933,408.302 343,415.5C 342.333,432.5 342.333,449.5 343,466.5C 344.471,475.527 345.971,484.527 347.5,493.5C 347.376,494.107 347.043,494.44 346.5,494.5C 344.167,490.5 341.833,486.5 339.5,482.5C 334.192,473.015 327.526,464.515 319.5,457C 305.879,448.416 293.712,450.249 283,462.5C 279.985,465.878 277.485,469.544 275.5,473.5C 274.026,474.436 273.026,475.77 272.5,477.5C 267.833,484.5 263.167,491.5 258.5,498.5C 260.305,491.246 261.805,483.913 263,476.5C 265.739,449.014 264.906,421.68 260.5,394.5C 269.603,400.049 279.269,404.549 289.5,408C 310.365,411.617 329.031,406.784 345.5,393.5 Z"/></g>
<g><path style="opacity:1" fill="#aa9e97" d="M 463.5,420.5 C 468.609,421.43 472.109,424.43 474,429.5C 476.292,434.101 475.958,438.434 473,442.5C 469.166,437.503 465.833,432.17 463,426.5C 462.322,424.402 462.489,422.402 463.5,420.5 Z"/></g>
<g><path style="opacity:1" fill="#aa9e97" d="M 533.5,429.5 C 542.711,437.55 549.211,447.55 553,459.5C 554.469,466.588 552.636,472.588 547.5,477.5C 544.881,471.377 542.715,465.043 541,458.5C 536.791,450.921 533.291,443.088 530.5,435C 531.124,432.915 532.124,431.082 533.5,429.5 Z"/></g>
<g><path style="opacity:1" fill="#b2a69e" d="M 388.5,433.5 C 391.564,433.144 394.231,433.977 396.5,436C 402.064,442.907 403.897,450.741 402,459.5C 400.828,463.998 397.994,465.832 393.5,465C 390.769,462.374 388.936,459.207 388,455.5C 387.102,451.179 386.269,446.845 385.5,442.5C 385.909,439.273 386.909,436.273 388.5,433.5 Z"/></g>
<g><path style="opacity:1" fill="#bdb0a8" d="M 233.5,449.5 C 238.886,449.377 242.053,452.044 243,457.5C 243.658,461.572 243.325,465.572 242,469.5C 239.624,473.205 236.958,473.205 234,469.5C 230.572,465 229.238,460 230,454.5C 230.997,452.677 232.164,451.01 233.5,449.5 Z"/></g>
<g><path style="opacity:1" fill="#e69598" d="M 339.5,482.5 C 341.833,486.5 344.167,490.5 346.5,494.5C 348.138,496.896 349.304,499.562 350,502.5C 350.995,503.066 351.828,503.733 352.5,504.5C 350.787,505.635 350.12,507.302 350.5,509.5C 347.492,509.877 344.992,511.211 343,513.5C 339.57,524.408 333.07,532.741 323.5,538.5C 306.262,518.352 289.262,498.018 272.5,477.5C 273.026,475.77 274.026,474.436 275.5,473.5C 280.491,467.702 285.824,462.202 291.5,457C 300.757,450.783 309.757,451.117 318.5,458C 325.81,464.972 331.977,472.805 337,481.5C 337.671,482.252 338.504,482.586 339.5,482.5 Z"/></g>
<g><path style="opacity:1" fill="#b2a69e" d="M 355.5,454.5 C 363.67,455.143 366.17,459.143 363,466.5C 360.851,469.659 358.017,471.992 354.5,473.5C 348.883,469.021 348.049,463.688 352,457.5C 353.145,456.364 354.312,455.364 355.5,454.5 Z"/></g>
<g><path style="opacity:1" fill="#aa9e97" d="M 488.5,457.5 C 491.73,457.561 493.563,459.228 494,462.5C 494.667,465.5 494.667,468.5 494,471.5C 491.211,474.129 489.211,473.462 488,469.5C 484.611,465.249 484.777,461.249 488.5,457.5 Z"/></g>
<g><path style="opacity:1" fill="#bb908d" d="M 339.5,482.5 C 338.504,482.586 337.671,482.252 337,481.5C 331.977,472.805 325.81,464.972 318.5,458C 309.757,451.117 300.757,450.783 291.5,457C 285.824,462.202 280.491,467.702 275.5,473.5C 277.485,469.544 279.985,465.878 283,462.5C 293.712,450.249 305.879,448.416 319.5,457C 327.526,464.515 334.192,473.015 339.5,482.5 Z"/></g>
<g><path style="opacity:1" fill="#f09b9e" d="M 272.5,477.5 C 289.262,498.018 306.262,518.352 323.5,538.5C 307.932,546.088 292.932,544.921 278.5,535C 272.352,528.545 267.852,521.045 265,512.5C 263.084,510.978 260.917,509.978 258.5,509.5C 257.781,507.236 257.448,504.903 257.5,502.5C 257.232,500.901 257.566,499.568 258.5,498.5C 263.167,491.5 267.833,484.5 272.5,477.5 Z"/></g>
<g><path style="opacity:1" fill="#aa9e97" d="M 508.5,479.5 C 510.017,479.511 511.184,480.177 512,481.5C 514.525,485.711 514.859,490.045 513,494.5C 511.667,495.833 510.333,495.833 509,494.5C 505.973,490.65 504.973,486.316 506,481.5C 506.995,480.934 507.828,480.267 508.5,479.5 Z"/></g>
<g><path style="opacity:1" fill="#675748" d="M 257.5,502.5 C 257.448,504.903 257.781,507.236 258.5,509.5C 256.145,508.341 253.812,507.341 251.5,506.5C 252.552,506.649 253.552,506.483 254.5,506C 255.163,504.482 256.163,503.315 257.5,502.5 Z"/></g>
<g><path style="opacity:1" fill="#5e5140" d="M 352.5,504.5 C 352.782,505.778 353.449,506.778 354.5,507.5C 353.329,508.345 351.995,509.011 350.5,509.5C 350.12,507.302 350.787,505.635 352.5,504.5 Z"/></g>
</svg>
