<?xml version="1.0" encoding="UTF-8"?>
<!DOCTYPE svg PUBLIC "-//W3C//DTD SVG 1.1//EN" "http://www.w3.org/Graphics/SVG/1.1/DTD/svg11.dtd">
<svg xmlns="http://www.w3.org/2000/svg" version="1.1" width="600px" height="600px" style="shape-rendering:geometricPrecision; text-rendering:geometricPrecision; image-rendering:optimizeQuality; fill-rule:evenodd; clip-rule:evenodd" xmlns:xlink="http://www.w3.org/1999/xlink">
<g><path style="opacity:0.961" fill="#040303" d="M 284.5,34.5 C 290.415,34.472 296.248,35.1387 302,36.5C 305.469,36.3395 308.803,35.6728 312,34.5C 317.118,35.9048 322.285,37.2382 327.5,38.5C 338.424,36.1482 348.757,37.6482 358.5,43C 370.24,41.5146 380.573,44.5146 389.5,52C 398.91,52.041 406.91,55.3743 413.5,62C 425.055,62.6064 434.055,67.6064 440.5,77C 449.904,78.0719 456.904,82.7386 461.5,91C 469.257,93.0875 474.924,97.7542 478.5,105C 484.647,107.492 489.814,111.326 494,116.5C 498.97,127.715 503.636,139.048 508,150.5C 512.877,155.046 518.044,159.213 523.5,163C 527.369,166.534 530.869,170.367 534,174.5C 536.772,182.812 539.439,191.145 542,199.5C 549.057,208.892 555.724,218.558 562,228.5C 563.848,237.758 565.181,247.091 566,256.5C 570.604,264.766 575.604,272.766 581,280.5C 582.556,284.558 583.723,288.725 584.5,293C 583.433,299.473 583.266,305.973 584,312.5C 587.945,322.726 591.612,333.06 595,343.5C 595.667,347.167 595.667,350.833 595,354.5C 593.079,359.135 592.246,363.968 592.5,369C 593.724,379.498 594.558,389.998 595,400.5C 594.221,406.398 591.221,410.732 586,413.5C 585.333,414.833 584.667,416.167 584,417.5C 582.381,425.927 580.381,434.26 578,442.5C 574.221,450.811 567.721,454.644 558.5,454C 550.631,457.877 543.298,462.544 536.5,468C 529.578,473.059 522.244,474.059 514.5,471C 507.88,463.773 499.713,459.607 490,458.5C 482.506,471.659 473.172,483.325 462,493.5C 463.943,514.653 456.776,531.819 440.5,545C 437.534,546.266 434.534,547.433 431.5,548.5C 430.028,551.805 427.695,554.305 424.5,556C 418.643,559.285 412.476,561.785 406,563.5C 400.294,562.481 395.961,559.481 393,554.5C 391.47,550.91 390.136,547.243 389,543.5C 380.848,549.314 372.014,553.814 362.5,557C 319.146,569.183 276.146,568.183 233.5,554C 226.446,550.766 219.78,546.933 213.5,542.5C 211.671,548.157 209.171,553.49 206,558.5C 202.845,561.243 199.179,562.91 195,563.5C 185.673,561.505 177.673,557.172 171,550.5C 170.517,549.552 170.351,548.552 170.5,547.5C 166.46,547.409 162.793,546.242 159.5,544C 144.132,530.235 137.632,513.069 140,492.5C 130.048,482.583 121.548,471.583 114.5,459.5C 109.111,458.719 103.778,459.219 98.5,461C 93.2765,463.557 88.6098,466.891 84.5,471C 82.0838,472.063 79.5838,472.896 77,473.5C 71.8662,472.455 67.0328,470.622 62.5,468C 53.1639,459.165 42.1639,453.832 29.5,452C 24.4488,449.28 21.2822,445.113 20,439.5C 18.46,432.133 16.7934,424.8 15,417.5C 12.4951,413.418 9.4951,409.751 6,406.5C 4.69317,402.939 3.85983,399.273 3.5,395.5C 4.9919,386.717 5.9919,377.884 6.5,369C 5.2226,360.519 4.38927,352.019 4,343.5C 7.38794,333.06 11.0546,322.726 15,312.5C 16.3992,305.979 16.2326,299.479 14.5,293C 15.4684,286.766 17.635,280.933 21,275.5C 25.7498,269.673 29.7498,263.34 33,256.5C 33.8669,247.108 35.2002,237.775 37,228.5C 42.5953,218.974 48.9286,209.974 56,201.5C 59.7371,192.73 62.7371,183.73 65,174.5C 67.7969,170.701 70.9636,167.201 74.5,164C 80.6249,159.544 86.4583,154.711 92,149.5C 93.5883,141.654 97.2549,134.987 103,129.5C 105.104,118.897 111.271,111.897 121.5,108.5C 124.242,100.259 129.909,95.4256 138.5,94C 142.82,85.3325 149.82,80.3325 159.5,79C 166.061,70.3852 174.727,65.3852 185.5,64C 189.659,60.7533 193.992,57.7533 198.5,55C 203.678,53.202 209.011,52.202 214.5,52C 225.551,43.0676 238.217,39.4009 252.5,41C 259.983,37.1915 267.65,36.3581 275.5,38.5C 278.482,36.836 281.482,35.5027 284.5,34.5 Z"/></g>
<g><path style="opacity:1" fill="#ebecec" d="M 473.5,380.5 C 474.568,381.434 475.901,381.768 477.5,381.5C 477.263,382.791 477.596,383.791 478.5,384.5C 481.607,397.627 485.274,410.627 489.5,423.5C 483.508,448.13 470.842,468.797 451.5,485.5C 449.933,484.319 449.099,482.653 449,480.5C 444.499,439.863 429.832,403.529 405,371.5C 376.76,340.052 341.427,324.719 299,325.5C 250.831,326.08 213.164,346.08 186,385.5C 167.151,416.215 155.984,449.549 152.5,485.5C 149.421,483.533 146.588,481.2 144,478.5C 132.668,465.495 123.335,451.162 116,435.5C 114.803,429.871 114.47,424.204 115,418.5C 119.722,406.877 123.389,394.877 126,382.5C 154.369,374.231 181.536,363.065 207.5,349C 254.251,321.859 281.751,281.359 290,227.5C 299.205,183.582 298.205,139.915 287,96.5C 282.101,79.8735 274.934,64.3735 265.5,50C 269.168,50.0539 272.834,50.5539 276.5,51.5C 280.639,50.01 284.806,48.6766 289,47.5C 292.777,48.4809 296.61,49.1476 300.5,49.5C 305.821,48.6369 311.154,48.4703 316.5,49C 323.657,51.7823 330.991,52.2823 338.5,50.5C 338.657,51.8734 338.49,53.2068 338,54.5C 321.575,82.1842 312.575,112.184 311,144.5C 308.135,188.115 314.135,230.448 329,271.5C 344.475,306.31 368.975,332.81 402.5,351C 425.569,362.542 449.235,372.376 473.5,380.5 Z"/></g>
<g><path style="opacity:1" fill="#e3d8c9" d="M 282.5,238.5 C 281.603,239.598 280.77,239.598 280,238.5C 278.295,236.423 277.128,234.09 276.5,231.5C 283.015,217.215 278.682,208.048 263.5,204C 247.258,202.541 231.591,204.874 216.5,211C 199.308,219.011 184.142,229.845 171,243.5C 167.319,247.52 165.986,252.187 167,257.5C 169.953,260.688 173.453,261.355 177.5,259.5C 179.785,260.957 181.618,262.957 183,265.5C 196.662,287.318 210.496,308.985 224.5,330.5C 209.673,341.756 193.673,351.256 176.5,359C 159.758,365.572 142.758,371.406 125.5,376.5C 127.294,370.569 127.627,364.569 126.5,358.5C 125.5,359 124.5,359.5 123.5,360C 118.98,366.02 113.647,371.187 107.5,375.5C 106.914,375.291 106.414,374.957 106,374.5C 102.581,364.079 101.248,353.412 102,342.5C 103.115,338.271 104.781,334.271 107,330.5C 108.811,323.444 106.144,319.444 99,318.5C 95.9874,311.773 96.3207,305.106 100,298.5C 107.679,283.478 115.013,268.478 122,253.5C 114.588,260.425 106.088,265.425 96.5,268.5C 98.1951,257.05 100.528,245.717 103.5,234.5C 102.312,228.101 100.812,221.768 99,215.5C 98.2093,211.074 98.5427,206.741 100,202.5C 107.877,191.48 117.711,182.646 129.5,176C 133.322,173.448 133.988,170.448 131.5,167C 126.563,165.915 121.563,165.248 116.5,165C 112.585,162.678 110.585,159.178 110.5,154.5C 112.563,147.647 113.563,140.647 113.5,133.5C 114.375,124.92 119.042,119.754 127.5,118C 130.29,114.254 132.957,110.421 135.5,106.5C 143.379,104.787 149.046,100.287 152.5,93C 156.688,90.9377 161.021,89.271 165.5,88C 168.5,85 171.5,82 174.5,79C 179.332,76.8741 184.332,75.2075 189.5,74C 193.833,71 198.167,68 202.5,65C 207.811,63.9277 213.145,62.9277 218.5,62C 223.542,58.4793 228.875,55.4793 234.5,53C 242.984,52.8291 251.317,52.1625 259.5,51C 275.576,75.8876 285.743,103.054 290,132.5C 294.103,168.329 291.603,203.662 282.5,238.5 Z"/></g>
<g><path style="opacity:1" fill="#e3d8c9" d="M 491.5,140.5 C 490.464,147.533 489.297,154.533 488,161.5C 486.786,163.049 485.286,164.215 483.5,165C 479.75,165.26 476.084,165.927 472.5,167C 471.196,167.804 470.529,168.971 470.5,170.5C 471.559,173.068 473.226,175.235 475.5,177C 484.867,182.695 493.367,189.528 501,197.5C 504.401,202.359 505.734,207.692 505,213.5C 502.558,219.825 500.725,226.325 499.5,233C 502.572,244.445 505.072,255.945 507,267.5C 506.439,268.022 505.772,268.355 505,268.5C 495.922,264.751 487.922,259.417 481,252.5C 480.833,252.833 480.667,253.167 480.5,253.5C 490.054,269.942 498.554,286.942 506,304.5C 506.81,309.257 506.476,313.924 505,318.5C 499.866,318.799 496.699,321.466 495.5,326.5C 498.298,331.894 500.298,337.561 501.5,343.5C 478.833,314.833 456.167,286.167 433.5,257.5C 433.283,253.015 431.783,249.015 429,245.5C 403.816,217.327 372.316,204.161 334.5,206C 322.307,211.018 319.64,219.018 326.5,230C 327.833,230.667 329.167,231.333 330.5,232C 340.873,232.588 351.206,233.588 361.5,235C 362.056,235.383 362.389,235.883 362.5,236.5C 345.377,247.694 342.877,261.694 355,278.5C 358.878,282.022 363.378,284.356 368.5,285.5C 371.105,287.337 373.272,289.67 375,292.5C 388.131,311.93 401.631,331.096 415.5,350C 414.906,350.464 414.239,350.631 413.5,350.5C 370.758,329.908 341.924,296.908 327,251.5C 312.064,201.486 310.731,151.153 323,100.5C 328.252,82.8999 336.086,66.5666 346.5,51.5C 347.293,51.0688 348.127,50.7355 349,50.5C 357.09,53.9826 365.59,55.4826 374.5,55C 378.167,57.3333 381.833,59.6667 385.5,62C 389.416,63.1024 393.416,63.769 397.5,64C 402.167,67 406.833,70 411.5,73C 415.896,73.7458 420.23,74.7458 424.5,76C 428.044,79.054 431.377,82.3874 434.5,86C 438.489,87.3314 442.489,88.6647 446.5,90C 449.407,93.1508 452.074,96.4841 454.5,100C 457.44,101.152 460.44,102.152 463.5,103C 466.08,106.158 468.413,109.492 470.5,113C 483.393,117.6 490.393,126.767 491.5,140.5 Z"/></g>
<g><path style="opacity:1" fill="#d9c9b4" d="M 113.5,133.5 C 113.563,140.647 112.563,147.647 110.5,154.5C 110.585,159.178 112.585,162.678 116.5,165C 121.563,165.248 126.563,165.915 131.5,167C 133.988,170.448 133.322,173.448 129.5,176C 117.711,182.646 107.877,191.48 100,202.5C 98.5427,206.741 98.2093,211.074 99,215.5C 100.812,221.768 102.312,228.101 103.5,234.5C 100.528,245.717 98.1951,257.05 96.5,268.5C 106.088,265.425 114.588,260.425 122,253.5C 115.013,268.478 107.679,283.478 100,298.5C 96.3207,305.106 95.9874,311.773 99,318.5C 106.144,319.444 108.811,323.444 107,330.5C 104.781,334.271 103.115,338.271 102,342.5C 101.248,353.412 102.581,364.079 106,374.5C 106.414,374.957 106.914,375.291 107.5,375.5C 113.647,371.187 118.98,366.02 123.5,360C 124.5,359.5 125.5,359 126.5,358.5C 127.627,364.569 127.294,370.569 125.5,376.5C 124.279,377.028 123.113,377.695 122,378.5C 119.402,388.96 116.402,399.294 113,409.5C 108.942,415.906 107.609,422.906 109,430.5C 111.398,435.968 113.231,441.635 114.5,447.5C 100.722,447.393 89.0553,452.227 79.5,462C 75.8798,462.841 72.5464,462.174 69.5,460C 62.772,454.941 55.772,450.274 48.5,446C 43.6649,444.147 38.6649,442.981 33.5,442.5C 31.1499,439.965 29.6499,436.965 29,433.5C 27.8514,425.265 25.8514,417.265 23,409.5C 20.1349,406.72 17.4682,403.72 15,400.5C 14.7992,389.268 15.6326,378.101 17.5,367C 17.3333,364.5 17.1667,362 17,359.5C 15.6235,355.706 14.4568,351.872 13.5,348C 18.0585,335.658 22.2251,323.158 26,310.5C 26.3531,303.148 26.3531,295.815 26,288.5C 29.2502,281.66 33.2502,275.327 38,269.5C 44.7264,258.792 47.393,247.126 46,234.5C 51.8385,224.821 58.1718,215.487 65,206.5C 69.4627,197.926 72.4627,188.926 74,179.5C 82.0367,171.795 90.37,164.461 99,157.5C 101.63,152.336 103.964,147.003 106,141.5C 108,138.334 110.5,135.668 113.5,133.5 Z"/></g>
<g><path style="opacity:1" fill="#d9c9b4" d="M 491.5,140.5 C 494.75,146.386 497.917,152.386 501,158.5C 509.322,165.156 517.322,172.156 525,179.5C 527.052,188.795 530.052,197.795 534,206.5C 540.579,215.325 546.913,224.325 553,233.5C 554.231,241.089 554.897,248.756 555,256.5C 556.393,260.286 558.059,263.952 560,267.5C 565.098,274.03 569.431,281.03 573,288.5C 573.335,293.167 573.168,297.834 572.5,302.5C 572.673,306.541 573.173,310.541 574,314.5C 578.132,325.757 581.965,337.09 585.5,348.5C 583.767,354.595 582.434,360.762 581.5,367C 582.073,373.198 582.906,379.365 584,385.5C 586.642,394.913 584.309,402.579 577,408.5C 573.392,416.798 571.059,425.464 570,434.5C 569,436.833 568,439.167 567,441.5C 562.306,443.028 557.473,444.195 552.5,445C 544.984,448.922 537.984,453.589 531.5,459C 527.909,461.805 523.909,462.805 519.5,462C 511.091,453.139 500.757,448.639 488.5,448.5C 489.645,442.896 491.479,437.563 494,432.5C 494.667,427.833 494.667,423.167 494,418.5C 490.941,410.656 488.274,402.656 486,394.5C 484.193,388.608 483.026,382.608 482.5,376.5C 480.265,376.795 478.265,376.461 476.5,375.5C 477.376,375.631 478.043,375.298 478.5,374.5C 476.639,369.335 475.639,364.002 475.5,358.5C 476.552,358.351 477.552,358.517 478.5,359C 484.043,364.879 489.877,370.379 496,375.5C 498.488,372.717 499.821,369.384 500,365.5C 501.952,358.174 502.452,350.841 501.5,343.5C 500.298,337.561 498.298,331.894 495.5,326.5C 496.699,321.466 499.866,318.799 505,318.5C 506.476,313.924 506.81,309.257 506,304.5C 498.554,286.942 490.054,269.942 480.5,253.5C 480.667,253.167 480.833,252.833 481,252.5C 487.922,259.417 495.922,264.751 505,268.5C 505.772,268.355 506.439,268.022 507,267.5C 505.072,255.945 502.572,244.445 499.5,233C 500.725,226.325 502.558,219.825 505,213.5C 505.734,207.692 504.401,202.359 501,197.5C 493.367,189.528 484.867,182.695 475.5,177C 473.226,175.235 471.559,173.068 470.5,170.5C 470.529,168.971 471.196,167.804 472.5,167C 476.084,165.927 479.75,165.26 483.5,165C 485.286,164.215 486.786,163.049 488,161.5C 489.297,154.533 490.464,147.533 491.5,140.5 Z"/></g>
<g><path style="opacity:1" fill="#d9c9b4" d="M 276.5,231.5 C 275.317,232.504 273.984,233.338 272.5,234C 261.875,235.178 251.209,235.845 240.5,236C 241.056,236.383 241.389,236.883 241.5,237.5C 228.85,237.662 216.85,240.662 205.5,246.5C 205.44,245.957 205.107,245.624 204.5,245.5C 194.999,249.416 185.999,254.082 177.5,259.5C 173.453,261.355 169.953,260.688 167,257.5C 165.986,252.187 167.319,247.52 171,243.5C 184.142,229.845 199.308,219.011 216.5,211C 231.591,204.874 247.258,202.541 263.5,204C 278.682,208.048 283.015,217.215 276.5,231.5 Z"/></g>
<g><path style="opacity:1" fill="#d9c9b4" d="M 433.5,257.5 C 432.674,262.819 429.674,264.653 424.5,263C 415.926,257.434 407.093,252.268 398,247.5C 397.536,248.094 397.369,248.761 397.5,249.5C 394.97,246.345 391.637,244.178 387.5,243C 379.432,239.698 371.099,237.531 362.5,236.5C 362.389,235.883 362.056,235.383 361.5,235C 351.206,233.588 340.873,232.588 330.5,232C 329.167,231.333 327.833,230.667 326.5,230C 319.64,219.018 322.307,211.018 334.5,206C 372.316,204.161 403.816,217.327 429,245.5C 431.783,249.015 433.283,253.015 433.5,257.5 Z"/></g>
<g><path style="opacity:1" fill="#ded4c5" d="M 276.5,231.5 C 277.128,234.09 278.295,236.423 280,238.5C 280.77,239.598 281.603,239.598 282.5,238.5C 275.217,271.561 259.217,299.728 234.5,323C 231.29,325.717 227.956,328.217 224.5,330.5C 210.496,308.985 196.662,287.318 183,265.5C 181.618,262.957 179.785,260.957 177.5,259.5C 185.999,254.082 194.999,249.416 204.5,245.5C 205.107,245.624 205.44,245.957 205.5,246.5C 198.439,264.119 203.439,276.953 220.5,285C 244,286.833 254.833,276 253,252.5C 250.803,246.15 246.97,241.15 241.5,237.5C 241.389,236.883 241.056,236.383 240.5,236C 251.209,235.845 261.875,235.178 272.5,234C 273.984,233.338 275.317,232.504 276.5,231.5 Z"/></g>
<g><path style="opacity:1" fill="#131313" d="M 241.5,237.5 C 246.97,241.15 250.803,246.15 253,252.5C 254.833,276 244,286.833 220.5,285C 203.439,276.953 198.439,264.119 205.5,246.5C 216.85,240.662 228.85,237.662 241.5,237.5 Z"/></g>
<g><path style="opacity:1" fill="#131313" d="M 362.5,236.5 C 371.099,237.531 379.432,239.698 387.5,243C 391.637,244.178 394.97,246.345 397.5,249.5C 402.195,266.945 396.195,278.778 379.5,285C 375.848,285.499 372.182,285.665 368.5,285.5C 363.378,284.356 358.878,282.022 355,278.5C 342.877,261.694 345.377,247.694 362.5,236.5 Z"/></g>
<g><path style="opacity:1" fill="#f3f3f3" d="M 229.5,244.5 C 237.204,243.58 241.037,246.913 241,254.5C 238.917,259.904 235.084,261.737 229.5,260C 222.914,254.84 222.914,249.673 229.5,244.5 Z"/></g>
<g><path style="opacity:1" fill="#f5f5f5" d="M 375.5,244.5 C 384.207,244.037 387.707,248.037 386,256.5C 380.514,262.08 375.514,261.747 371,255.5C 369.776,250.626 371.276,246.959 375.5,244.5 Z"/></g>
<g><path style="opacity:1" fill="#e0d5c6" d="M 433.5,257.5 C 456.167,286.167 478.833,314.833 501.5,343.5C 502.452,350.841 501.952,358.174 500,365.5C 499.821,369.384 498.488,372.717 496,375.5C 489.877,370.379 484.043,364.879 478.5,359C 477.552,358.517 476.552,358.351 475.5,358.5C 475.639,364.002 476.639,369.335 478.5,374.5C 478.043,375.298 477.376,375.631 476.5,375.5C 454.683,368.816 433.683,360.483 413.5,350.5C 414.239,350.631 414.906,350.464 415.5,350C 401.631,331.096 388.131,311.93 375,292.5C 373.272,289.67 371.105,287.337 368.5,285.5C 372.182,285.665 375.848,285.499 379.5,285C 396.195,278.778 402.195,266.945 397.5,249.5C 397.369,248.761 397.536,248.094 398,247.5C 407.093,252.268 415.926,257.434 424.5,263C 429.674,264.653 432.674,262.819 433.5,257.5 Z"/></g>
<g><path style="opacity:1" fill="#e1dfde" d="M 451.5,485.5 C 451.189,486.478 450.522,487.145 449.5,487.5C 448.669,495.145 448.169,502.812 448,510.5C 446.216,519.411 441.882,526.744 435,532.5C 433.796,524.402 432.129,516.402 430,508.5C 427.16,505.629 424.826,505.963 423,509.5C 422.774,520.573 421.774,531.573 420,542.5C 415.948,545.782 411.448,548.448 406.5,550.5C 405.201,549.91 404.368,548.91 404,547.5C 401.459,540.212 399.126,532.879 397,525.5C 395.938,524.101 394.605,523.101 393,522.5C 387.137,528.029 380.971,533.196 374.5,538C 360.005,545.244 344.672,549.578 328.5,551C 300.419,554.385 272.753,552.385 245.5,545C 231.203,540.535 219.869,532.202 211.5,520C 207.774,519.039 205.608,520.539 205,524.5C 202.734,532.632 200.067,540.632 197,548.5C 191.385,549.217 186.385,547.551 182,543.5C 180.058,531.353 178.558,519.187 177.5,507C 174.682,506.16 172.516,506.994 171,509.5C 169.668,517.484 168.334,525.484 167,533.5C 159.478,526.792 154.811,518.458 153,508.5C 152.869,500.746 152.702,493.08 152.5,485.5C 155.984,449.549 167.151,416.215 186,385.5C 213.164,346.08 250.831,326.08 299,325.5C 341.427,324.719 376.76,340.052 405,371.5C 429.832,403.529 444.499,439.863 449,480.5C 449.099,482.653 449.933,484.319 451.5,485.5 Z"/></g>
<g><path style="opacity:1" fill="#121212" d="M 289.5,372.5 C 303.46,371.533 317.127,373.033 330.5,377C 345.163,383.292 349.997,394.125 345,409.5C 341.224,418.276 335.058,424.776 326.5,429C 301.826,441.591 279.993,437.757 261,417.5C 250.941,402.789 252.774,389.956 266.5,379C 273.983,375.746 281.65,373.579 289.5,372.5 Z"/></g>
<g><path style="opacity:1" fill="#686969" d="M 473.5,380.5 C 475.167,380.5 476.833,380.5 478.5,380.5C 478.5,381.833 478.5,383.167 478.5,384.5C 477.596,383.791 477.263,382.791 477.5,381.5C 475.901,381.768 474.568,381.434 473.5,380.5 Z"/></g>
<g><path style="opacity:1" fill="#141414" d="M 295.5,471.5 C 306.288,470.891 316.288,473.391 325.5,479C 320.84,481.416 315.84,482.749 310.5,483C 302.445,483.822 294.445,483.488 286.5,482C 283.578,481.583 280.911,480.583 278.5,479C 284.001,475.911 289.668,473.411 295.5,471.5 Z"/></g>
</svg>
