<?xml version="1.0" encoding="UTF-8"?>
<!DOCTYPE svg PUBLIC "-//W3C//DTD SVG 1.1//EN" "http://www.w3.org/Graphics/SVG/1.1/DTD/svg11.dtd">
<svg xmlns="http://www.w3.org/2000/svg" version="1.1" width="600px" height="600px" style="shape-rendering:geometricPrecision; text-rendering:geometricPrecision; image-rendering:optimizeQuality; fill-rule:evenodd; clip-rule:evenodd" xmlns:xlink="http://www.w3.org/1999/xlink">
<g><path style="opacity:0.964" fill="#040201" d="M 52.5,4.5 C 61.4043,4.59519 70.0709,6.09519 78.5,9C 89.7693,13.6333 100.436,19.3 110.5,26C 131.668,41.1598 151.668,57.8265 170.5,76C 195.5,101.667 220.5,127.333 245.5,153C 254.472,157.994 264.138,160.661 274.5,161C 291.167,161.667 307.833,161.667 324.5,161C 333.872,160.605 342.872,158.605 351.5,155C 383.113,122.054 415.446,89.7208 448.5,58C 467.83,40.6719 488.83,25.6719 511.5,13C 551.86,-4.73646 577.027,7.76354 587,50.5C 589.539,112.19 582.539,172.857 566,232.5C 561.524,250.115 553.858,266.115 543,280.5C 532.333,293.167 521.667,305.833 511,318.5C 505.003,327.494 500.337,337.161 497,347.5C 495.447,356.772 495.114,366.105 496,375.5C 499.282,398.585 501.782,421.752 503.5,445C 503.353,462.071 499.52,478.238 492,493.5C 484.357,504.812 474.524,513.645 462.5,520C 445.194,529.32 427.194,536.987 408.5,543C 402.869,548.477 396.869,553.477 390.5,558C 382.136,568.689 371.136,575.022 357.5,577C 346.956,584.074 335.289,588.407 322.5,590C 298.203,593.718 274.536,591.384 251.5,583C 248.167,581 244.833,579 241.5,577C 227.875,575.027 216.875,568.694 208.5,558C 201.874,553.043 195.54,547.709 189.5,542C 166.266,535.262 144.6,525.262 124.5,512C 106.994,497.82 97.8272,479.32 97,456.5C 96.3333,448.5 96.3333,440.5 97,432.5C 99.1461,412.144 101.479,391.811 104,371.5C 105.714,359.652 104.047,348.319 99,337.5C 96.2547,331.675 93.2547,326.008 90,320.5C 79.8087,307.463 69.1421,294.796 58,282.5C 47.4474,269.063 39.7807,254.063 35,237.5C 19.0591,180.247 11.0591,121.914 11,62.5C 11.967,50.2983 14.967,38.6316 20,27.5C 27.1471,14.519 37.9804,6.85233 52.5,4.5 Z"/></g>
<g><path style="opacity:1" fill="#915d32" d="M 485.5,349.5 C 483.203,347.706 481.037,345.706 479,343.5C 468.692,400.424 450.026,454.424 423,505.5C 417.034,515.283 410.534,524.617 403.5,533.5C 402.542,533.953 401.708,534.619 401,535.5C 403.192,508.767 399.525,482.767 390,457.5C 376.038,427.572 362.038,397.572 348,367.5C 340.668,350.555 335.002,332.888 331,314.5C 330.333,306.833 330.333,299.167 331,291.5C 334,272.836 337,254.169 340,235.5C 341.934,222.828 341.934,210.162 340,197.5C 333.9,182.785 323.067,177.618 307.5,182C 305.01,183.149 302.51,184.316 300,185.5C 271.596,175.195 257.429,185.361 257.5,216C 260.519,242.281 264.352,268.448 269,294.5C 269.775,302.548 269.442,310.548 268,318.5C 264.769,331.095 260.769,343.429 256,355.5C 244.47,381.897 231.803,407.897 218,433.5C 207.741,454.959 201.075,477.625 198,501.5C 197.225,512.023 197.392,522.523 198.5,533C 198.475,536.131 197.808,536.297 196.5,533.5C 181.015,514.802 168.515,494.135 159,471.5C 141.14,429.254 128.14,385.588 120,340.5C 117.963,342.706 115.797,344.706 113.5,346.5C 109.456,333.078 103.289,320.744 95,309.5C 85.2368,297.647 75.2368,285.98 65,274.5C 56.3079,263.451 49.9746,251.117 46,237.5C 29.127,178.386 21.127,118.052 22,56.5C 23.2855,42.6149 28.7855,30.7816 38.5,21C 46.0579,15.8208 54.3912,14.1542 63.5,16C 73.0113,17.921 82.0113,21.2543 90.5,26C 109.627,37.791 127.627,51.1244 144.5,66C 177.554,97.7208 209.887,130.054 241.5,163C 247.99,166.71 254.99,169.043 262.5,170C 287.17,173.305 311.837,173.305 336.5,170C 343.357,168.619 350.023,166.619 356.5,164C 386.779,133.721 417.113,103.387 447.5,73C 465.404,56.0887 484.737,41.0887 505.5,28C 512.379,24.3938 519.379,21.0605 526.5,18C 549.554,10.6127 565.387,18.1127 574,40.5C 575.841,46.3671 577.174,52.3671 578,58.5C 578.184,111.876 572.184,164.543 560,216.5C 555.477,236.758 547.477,255.425 536,272.5C 522.196,287.298 509.529,302.965 498,319.5C 492.559,328.997 488.392,338.997 485.5,349.5 Z"/></g>
<g><path style="opacity:1" fill="#080402" d="M 50.5,29.5 C 63.8199,29.4389 76.1532,32.9389 87.5,40C 130.79,68.2966 162.957,106.13 184,153.5C 191.644,169.077 191.311,184.41 183,199.5C 169.643,219.854 152.143,235.688 130.5,247C 116.106,252.895 101.772,252.895 87.5,247C 81.2902,242.458 76.1235,236.958 72,230.5C 49.1901,179.76 36.3568,126.593 33.5,71C 33.4667,60.1469 35.3,49.6469 39,39.5C 41.8178,34.8388 45.6511,31.5055 50.5,29.5 Z"/></g>
<g><path style="opacity:1" fill="#080402" d="M 538.5,29.5 C 551.413,28.237 559.58,33.9037 563,46.5C 566.201,66.4795 566.201,86.4795 563,106.5C 556.774,149.074 545.107,190.074 528,229.5C 516.521,249.003 499.688,255.837 477.5,250C 451.889,240.262 431.723,223.762 417,200.5C 409.235,188.972 407.568,176.639 412,163.5C 423.004,133.139 439.337,106.139 461,82.5C 479.054,62.0788 500.22,45.9121 524.5,34C 529.254,32.3583 533.921,30.8583 538.5,29.5 Z"/></g>
<g><path style="opacity:1" fill="#452c17" d="M 63.5,35.5 C 53.9736,32.8901 46.9736,35.8901 42.5,44.5C 44.2885,37.6689 48.7885,34.0022 56,33.5C 58.7598,33.6462 61.2598,34.3128 63.5,35.5 Z"/></g>
<g><path style="opacity:1" fill="#be7d3e" d="M 63.5,35.5 C 73.0352,39.2658 82.3685,43.5991 91.5,48.5C 97.6469,53.4081 103.98,58.0748 110.5,62.5C 112.9,65.9031 115.9,68.5698 119.5,70.5C 122.5,74.1667 125.833,77.5 129.5,80.5C 131.766,84.4356 134.766,87.7689 138.5,90.5C 142.791,96.7915 147.458,102.792 152.5,108.5C 153.786,111.117 155.453,113.45 157.5,115.5C 159.087,119.683 161.421,123.35 164.5,126.5C 164.75,128.674 165.75,130.341 167.5,131.5C 170.659,139.151 174.325,146.484 178.5,153.5C 179.065,157.537 180.399,161.203 182.5,164.5C 183.957,170.4 184.623,176.4 184.5,182.5C 182.205,187.765 179.872,193.098 177.5,198.5C 174.102,201.627 171.435,205.293 169.5,209.5C 166.097,211.9 163.43,214.9 161.5,218.5C 160.5,218.833 159.833,219.5 159.5,220.5C 151.957,226.864 143.957,232.697 135.5,238C 128.669,241.547 121.669,244.381 114.5,246.5C 100.245,248.086 88.5788,243.42 79.5,232.5C 79.573,230.973 78.9063,229.973 77.5,229.5C 74.0096,221.007 70.3429,212.673 66.5,204.5C 63.7387,194.216 60.4054,184.216 56.5,174.5C 55.7687,169.562 54.4354,164.895 52.5,160.5C 50.9439,151.946 48.9439,143.613 46.5,135.5C 46.1179,130.256 45.1179,125.256 43.5,120.5C 41.3924,105.865 39.7258,91.198 38.5,76.5C 38.8936,69.5036 39.2269,62.5036 39.5,55.5C 40.6641,51.9892 41.6641,48.3225 42.5,44.5C 46.9736,35.8901 53.9736,32.8901 63.5,35.5 Z"/></g>
<g><path style="opacity:1" fill="#462d18" d="M 63.5,35.5 C 73.8982,37.7012 83.2316,42.0346 91.5,48.5C 82.3685,43.5991 73.0352,39.2658 63.5,35.5 Z"/></g>
<g><path style="opacity:1" fill="#be7d3e" d="M 540.5,34.5 C 547.648,34.4045 552.982,37.4045 556.5,43.5C 558.021,49.2438 559.354,54.9105 560.5,60.5C 560.658,75.2095 559.992,89.8762 558.5,104.5C 556.957,110.28 555.957,116.28 555.5,122.5C 552.038,136.687 548.705,151.02 545.5,165.5C 544.076,167.515 543.41,169.848 543.5,172.5C 540.724,178.499 538.724,184.833 537.5,191.5C 535.065,195.799 533.398,200.466 532.5,205.5C 529.734,210.117 527.734,215.117 526.5,220.5C 524.659,222.849 523.326,225.515 522.5,228.5C 519.484,231.52 516.817,234.854 514.5,238.5C 509.407,241.713 504.073,244.38 498.5,246.5C 492.435,246.739 486.435,246.239 480.5,245C 471.605,242.217 463.272,238.383 455.5,233.5C 452.792,230.791 449.792,228.458 446.5,226.5C 440.139,219.807 433.806,213.14 427.5,206.5C 424.497,201.825 421.497,197.159 418.5,192.5C 416.063,186.417 414.73,180.084 414.5,173.5C 415.434,172.432 415.768,171.099 415.5,169.5C 417.739,164.784 419.405,159.784 420.5,154.5C 425.226,144.715 430.226,135.049 435.5,125.5C 440.992,118.522 445.992,111.188 450.5,103.5C 455.881,98.3945 460.548,92.7278 464.5,86.5C 472.167,79.5 479.5,72.1667 486.5,64.5C 490.727,62.2153 494.393,59.2153 497.5,55.5C 505.172,50.8256 512.838,46.1589 520.5,41.5C 524.787,40.3517 528.787,38.685 532.5,36.5C 535.428,36.4349 538.095,35.7682 540.5,34.5 Z"/></g>
<g><path style="opacity:1" fill="#472d18" d="M 532.5,36.5 C 528.787,38.685 524.787,40.3517 520.5,41.5C 523.983,38.7633 527.983,37.0966 532.5,36.5 Z"/></g>
<g><path style="opacity:1" fill="#462c18" d="M 540.5,34.5 C 548.331,32.7544 553.665,35.7544 556.5,43.5C 552.982,37.4045 547.648,34.4045 540.5,34.5 Z"/></g>
<g><path style="opacity:1" fill="#492e19" d="M 497.5,55.5 C 494.393,59.2153 490.727,62.2153 486.5,64.5C 489.607,60.7847 493.273,57.7847 497.5,55.5 Z"/></g>
<g><path style="opacity:1" fill="#442c17" d="M 39.5,55.5 C 39.2269,62.5036 38.8936,69.5036 38.5,76.5C 37.4413,69.4643 37.7747,62.4643 39.5,55.5 Z"/></g>
<g><path style="opacity:1" fill="#492f19" d="M 110.5,62.5 C 114.1,64.4302 117.1,67.0969 119.5,70.5C 115.9,68.5698 112.9,65.9031 110.5,62.5 Z"/></g>
<g><path style="opacity:1" fill="#492e19" d="M 486.5,64.5 C 479.5,72.1667 472.167,79.5 464.5,86.5C 464.369,85.7611 464.536,85.0944 465,84.5C 471.756,77.2389 478.922,70.5722 486.5,64.5 Z"/></g>
<g><path style="opacity:1" fill="#472e18" d="M 129.5,80.5 C 133.234,83.2311 136.234,86.5644 138.5,90.5C 134.766,87.7689 131.766,84.4356 129.5,80.5 Z"/></g>
<g><path style="opacity:1" fill="#452c17" d="M 560.5,60.5 C 562.035,75.2495 561.368,89.9162 558.5,104.5C 559.992,89.8762 560.658,75.2095 560.5,60.5 Z"/></g>
<g><path style="opacity:1" fill="#482e18" d="M 464.5,86.5 C 460.548,92.7278 455.881,98.3945 450.5,103.5C 452.485,99.5444 454.985,95.8777 458,92.5C 460.037,90.2941 462.203,88.2941 464.5,86.5 Z"/></g>
<g><path style="opacity:1" fill="#482e18" d="M 138.5,90.5 C 144.306,95.6364 148.973,101.636 152.5,108.5C 147.458,102.792 142.791,96.7915 138.5,90.5 Z"/></g>
<g><path style="opacity:1" fill="#482e18" d="M 450.5,103.5 C 445.992,111.188 440.992,118.522 435.5,125.5C 439.514,117.465 444.514,110.132 450.5,103.5 Z"/></g>
<g><path style="opacity:1" fill="#472d18" d="M 157.5,115.5 C 160.579,118.65 162.913,122.317 164.5,126.5C 161.421,123.35 159.087,119.683 157.5,115.5 Z"/></g>
<g><path style="opacity:1" fill="#472d18" d="M 43.5,120.5 C 45.1179,125.256 46.1179,130.256 46.5,135.5C 44.6253,130.794 43.6253,125.794 43.5,120.5 Z"/></g>
<g><path style="opacity:1" fill="#472e18" d="M 167.5,131.5 C 172.207,138.248 175.874,145.581 178.5,153.5C 174.325,146.484 170.659,139.151 167.5,131.5 Z"/></g>
<g><path style="opacity:1" fill="#472e18" d="M 555.5,122.5 C 553.557,137.264 550.224,151.597 545.5,165.5C 548.705,151.02 552.038,136.687 555.5,122.5 Z"/></g>
<g><path style="opacity:1" fill="#482e18" d="M 420.5,154.5 C 419.405,159.784 417.739,164.784 415.5,169.5C 416.194,164.085 417.86,159.085 420.5,154.5 Z"/></g>
<g><path style="opacity:1" fill="#462d18" d="M 52.5,160.5 C 54.4354,164.895 55.7687,169.562 56.5,174.5C 54.2538,170.195 52.9205,165.529 52.5,160.5 Z"/></g>
<g><path style="opacity:1" fill="#432b17" d="M 182.5,164.5 C 185.39,170.293 186.056,176.293 184.5,182.5C 184.623,176.4 183.957,170.4 182.5,164.5 Z"/></g>
<g><path style="opacity:1" fill="#492f19" d="M 56.5,174.5 C 60.4054,184.216 63.7387,194.216 66.5,204.5C 62.1937,194.914 58.8603,184.914 56.5,174.5 Z"/></g>
<g><path style="opacity:1" fill="#452c17" d="M 414.5,173.5 C 414.73,180.084 416.063,186.417 418.5,192.5C 414.449,186.642 413.115,180.309 414.5,173.5 Z"/></g>
<g><path style="opacity:1" fill="#4b3019" d="M 543.5,172.5 C 542.276,179.167 540.276,185.501 537.5,191.5C 538.724,184.833 540.724,178.499 543.5,172.5 Z"/></g>
<g><path style="opacity:1" fill="#f8f5f1" d="M 390.5,501.5 C 390.663,503.857 390.497,506.19 390,508.5C 375.914,493.912 361.414,479.912 346.5,466.5C 342.451,459.288 336.451,454.455 328.5,452C 310.229,447.824 291.896,447.491 273.5,451C 256.082,457.424 247.915,469.924 249,488.5C 251.288,502.426 258.121,513.426 269.5,521.5C 279.243,532.747 289.576,543.58 300.5,554C 299.584,554.278 298.918,554.778 298.5,555.5C 286.385,558.481 274.385,561.981 262.5,566C 232.913,571.393 214.913,559.56 208.5,530.5C 207.668,522.195 207.335,513.862 207.5,505.5C 209.424,490.471 212.924,475.804 218,461.5C 227.691,438.452 238.191,415.785 249.5,393.5C 251.957,390.249 253.624,386.582 254.5,382.5C 266.313,360.9 274.48,337.9 279,313.5C 279.667,306.833 279.667,300.167 279,293.5C 275.334,270.168 271.667,246.835 268,223.5C 266.331,213.177 267.998,203.51 273,194.5C 276.184,191.156 280.018,189.989 284.5,191C 289.338,193.088 294.338,194.588 299.5,195.5C 304.662,194.588 309.662,193.088 314.5,191C 323.764,190.575 329.264,195.075 331,204.5C 331.763,216.904 331.096,229.237 329,241.5C 326.463,257.186 323.796,272.853 321,288.5C 320.207,299.869 320.54,311.202 322,322.5C 326.137,338.91 331.47,354.91 338,370.5C 352.257,400.683 366.257,431.016 380,461.5C 385.241,474.387 388.741,487.72 390.5,501.5 Z"/></g>
<g><path style="opacity:1" fill="#452c17" d="M 184.5,182.5 C 183.775,188.609 181.442,193.943 177.5,198.5C 179.872,193.098 182.205,187.765 184.5,182.5 Z"/></g>
<g><path style="opacity:1" fill="#452c17" d="M 427.5,206.5 C 433.806,213.14 440.139,219.807 446.5,226.5C 438.789,221.123 432.455,214.456 427.5,206.5 Z"/></g>
<g><path style="opacity:1" fill="#472d18" d="M 66.5,204.5 C 70.3429,212.673 74.0096,221.007 77.5,229.5C 75.1904,226.898 73.3571,223.898 72,220.5C 69.8593,215.244 68.0259,209.91 66.5,204.5 Z"/></g>
<g><path style="opacity:1" fill="#452c17" d="M 532.5,205.5 C 531.296,210.895 529.296,215.895 526.5,220.5C 527.734,215.117 529.734,210.117 532.5,205.5 Z"/></g>
<g><path style="opacity:1" fill="#492e19" d="M 169.5,209.5 C 167.57,213.1 164.903,216.1 161.5,218.5C 163.43,214.9 166.097,211.9 169.5,209.5 Z"/></g>
<g><path style="opacity:1" fill="#472d18" d="M 522.5,228.5 C 521.316,231.861 519.483,234.861 517,237.5C 516.329,238.252 515.496,238.586 514.5,238.5C 516.817,234.854 519.484,231.52 522.5,228.5 Z"/></g>
<g><path style="opacity:1" fill="#452c17" d="M 79.5,232.5 C 88.5788,243.42 100.245,248.086 114.5,246.5C 99.6854,249.673 88.0188,245.007 79.5,232.5 Z"/></g>
<g><path style="opacity:1" fill="#452c17" d="M 455.5,233.5 C 463.272,238.383 471.605,242.217 480.5,245C 486.435,246.239 492.435,246.739 498.5,246.5C 482.357,248.455 468.024,244.121 455.5,233.5 Z"/></g>
<g><path style="opacity:1" fill="#472d18" d="M 159.5,220.5 C 147.375,234.065 132.375,242.732 114.5,246.5C 121.669,244.381 128.669,241.547 135.5,238C 143.957,232.697 151.957,226.864 159.5,220.5 Z"/></g>
<g><path style="opacity:1" fill="#492f19" d="M 514.5,238.5 C 510.296,243.269 504.963,245.935 498.5,246.5C 504.073,244.38 509.407,241.713 514.5,238.5 Z"/></g>
<g><path style="opacity:1" fill="#f8f7f7" d="M 203.5,296.5 C 221.896,296.275 233.729,304.942 239,322.5C 240.177,349.323 227.343,362.157 200.5,361C 180.938,354.373 172.771,340.873 176,320.5C 180.685,307.258 189.852,299.258 203.5,296.5 Z"/></g>
<g><path style="opacity:1" fill="#f9f8f7" d="M 388.5,296.5 C 406.351,296.338 418.184,304.672 424,321.5C 426.864,341.615 418.697,354.782 399.5,361C 377.668,363.501 364.502,354.001 360,332.5C 360.217,313.033 369.717,301.033 388.5,296.5 Z"/></g>
<g><path style="opacity:1" fill="#241916" d="M 200.5,307.5 C 221.621,306.116 230.788,315.783 228,336.5C 222.048,349.269 212.215,353.769 198.5,350C 187.032,343.22 183.199,333.386 187,320.5C 190.076,314.589 194.576,310.255 200.5,307.5 Z"/></g>
<g><path style="opacity:1" fill="#241916" d="M 385.5,307.5 C 397.647,305.826 406.814,310.159 413,320.5C 416.685,337.799 409.851,348.132 392.5,351.5C 376.058,348.873 368.892,339.207 371,322.5C 374.021,315.647 378.855,310.647 385.5,307.5 Z"/></g>
<g><path style="opacity:1" fill="#f1f1f1" d="M 211.5,315.5 C 219.744,315.228 222.078,318.728 218.5,326C 211.243,328.746 208.077,326.246 209,318.5C 210.045,317.627 210.878,316.627 211.5,315.5 Z"/></g>
<g><path style="opacity:1" fill="#f1f1f1" d="M 396.5,315.5 C 404.489,315.319 406.822,318.819 403.5,326C 396.243,328.746 393.077,326.246 394,318.5C 395.045,317.627 395.878,316.627 396.5,315.5 Z"/></g>
<g><path style="opacity:1" fill="#81522d" d="M 196.5,533.5 C 174.97,527.401 154.637,518.568 135.5,507C 118.75,495.681 109.584,479.848 108,459.5C 107.333,447.5 107.333,435.5 108,423.5C 110.146,407.52 112.146,391.52 114,375.5C 114.693,365.811 114.527,356.144 113.5,346.5C 115.797,344.706 117.963,342.706 120,340.5C 128.14,385.588 141.14,429.254 159,471.5C 168.515,494.135 181.015,514.802 196.5,533.5 Z"/></g>
<g><path style="opacity:1" fill="#81522d" d="M 485.5,349.5 C 484.441,356.798 484.274,364.131 485,371.5C 488.9,395.698 491.4,420.031 492.5,444.5C 493.626,463.277 488.793,480.277 478,495.5C 466.606,505.789 453.772,513.956 439.5,520C 427.743,525.196 415.743,529.696 403.5,533.5C 410.534,524.617 417.034,515.283 423,505.5C 450.026,454.424 468.692,400.424 479,343.5C 481.037,345.706 483.203,347.706 485.5,349.5 Z"/></g>
<g><path style="opacity:1" fill="#433124" d="M 254.5,382.5 C 253.624,386.582 251.957,390.249 249.5,393.5C 250.376,389.418 252.043,385.751 254.5,382.5 Z"/></g>
<g><path style="opacity:1" fill="#030303" d="M 346.5,466.5 C 354.823,489.73 348.823,508.564 328.5,523C 308.379,536.048 288.713,535.548 269.5,521.5C 258.121,513.426 251.288,502.426 249,488.5C 247.915,469.924 256.082,457.424 273.5,451C 291.896,447.491 310.229,447.824 328.5,452C 336.451,454.455 342.451,459.288 346.5,466.5 Z"/></g>
<g><path style="opacity:1" fill="#221714" d="M 287.5,458.5 C 299.613,457.964 311.613,458.797 323.5,461C 338.44,467.05 343.607,477.883 339,493.5C 329.484,514.179 313.318,523.346 290.5,521C 276.576,516.636 266.743,507.803 261,494.5C 256.637,472.705 265.47,460.705 287.5,458.5 Z"/></g>
<g><path style="opacity:1" fill="#edeae6" d="M 346.5,466.5 C 361.414,479.912 375.914,493.912 390,508.5C 390.497,506.19 390.663,503.857 390.5,501.5C 392.12,513.781 391.62,526.114 389,538.5C 383.201,555.486 371.368,564.986 353.5,567C 348.833,567.667 344.167,567.667 339.5,567C 327.705,563.735 316.038,560.068 304.5,556C 302.527,555.505 300.527,555.338 298.5,555.5C 298.918,554.778 299.584,554.278 300.5,554C 289.576,543.58 279.243,532.747 269.5,521.5C 288.713,535.548 308.379,536.048 328.5,523C 348.823,508.564 354.823,489.73 346.5,466.5 Z"/></g>
<g><path style="opacity:1" fill="#534033" d="M 207.5,505.5 C 207.335,513.862 207.668,522.195 208.5,530.5C 206.96,525.935 206.293,521.102 206.5,516C 206.501,512.317 206.835,508.817 207.5,505.5 Z"/></g>
<g><path style="opacity:1" fill="#633f21" d="M 296.5,565.5 C 299.91,565.457 303.243,565.957 306.5,567C 315.249,570.082 323.916,573.248 332.5,576.5C 309.529,583.162 286.529,582.995 263.5,576C 274.767,572.965 285.767,569.465 296.5,565.5 Z"/></g>
</svg>
