<?xml version="1.0" encoding="UTF-8"?>
<!DOCTYPE svg PUBLIC "-//W3C//DTD SVG 1.1//EN" "http://www.w3.org/Graphics/SVG/1.1/DTD/svg11.dtd">
<svg xmlns="http://www.w3.org/2000/svg" version="1.1" width="600px" height="600px" style="shape-rendering:geometricPrecision; text-rendering:geometricPrecision; image-rendering:optimizeQuality; fill-rule:evenodd; clip-rule:evenodd" xmlns:xlink="http://www.w3.org/1999/xlink">
<g><path style="opacity:0.974" fill="#010101" d="M 599.5,231.5 C 599.5,235.5 599.5,239.5 599.5,243.5C 597.848,249.756 596.015,256.089 594,262.5C 592.392,265.772 590.392,268.772 588,271.5C 577.178,294.477 565.845,317.143 554,339.5C 551.728,347.525 550.228,355.691 549.5,364C 553.44,371.484 556.773,379.317 559.5,387.5C 558.19,396.297 554.19,403.464 547.5,409C 533.986,414.165 524.319,410.165 518.5,397C 508.74,393.012 502.573,385.845 500,375.5C 494.137,372.448 490.137,367.781 488,361.5C 475.682,394.143 463.349,426.809 451,459.5C 447.747,476.024 443.747,492.358 439,508.5C 429.041,534.404 410.207,545.237 382.5,541C 377.748,540.145 373.081,538.979 368.5,537.5C 364.055,550.77 356.055,561.27 344.5,569C 314.303,587.162 284.303,586.829 254.5,568C 243.199,560.237 235.699,549.737 232,536.5C 216.061,543.216 200.228,543.049 184.5,536C 173.646,528.801 166.146,518.968 162,506.5C 157.713,488.06 153.046,469.727 148,451.5C 135.676,421.201 123.342,390.867 111,360.5C 109.303,367.534 105.303,372.867 99,376.5C 97.1939,381.446 94.8606,386.112 92,390.5C 89.3308,393.164 86.1641,394.998 82.5,396C 76.2593,410.415 65.926,414.415 51.5,408C 44.7546,403.516 41.0879,397.183 40.5,389C 43.3803,380.085 46.3803,371.251 49.5,362.5C 48.8484,357.469 48.0151,352.469 47,347.5C 34.7756,317.718 20.4423,289.051 4,261.5C 2.02969,254.799 0.529694,248.132 -0.5,241.5C -0.5,237.833 -0.5,234.167 -0.5,230.5C 2.96772,217.247 9.80106,205.914 20,196.5C 20.9296,191.27 22.5962,186.27 25,181.5C 30.1595,177.586 35.4928,173.92 41,170.5C 42.8516,163.966 46.3516,158.466 51.5,154C 55.0838,151.959 58.5838,149.792 62,147.5C 63.0719,140.769 66.2385,135.269 71.5,131C 77.0816,127.96 82.5816,124.793 88,121.5C 88.8092,110.708 94.3092,103.541 104.5,100C 110.833,97.6667 117.167,95.3333 123.5,93C 128.169,80.8013 137.169,74.1347 150.5,73C 156.803,72.058 163.137,71.3914 169.5,71C 201.76,54.3499 236.094,45.0166 272.5,43C 316.107,39.4108 358.774,44.0774 400.5,57C 411.189,60.844 421.523,65.5107 431.5,71C 442.766,71.3853 453.433,74.0519 463.5,79C 466.295,80.7932 468.795,82.9598 471,85.5C 472.738,89.2413 475.238,92.408 478.5,95C 486.162,96.8861 493.495,99.5527 500.5,103C 506.107,107.469 509.273,113.302 510,120.5C 516.245,125.041 522.745,129.208 529.5,133C 532.902,136.968 535.402,141.468 537,146.5C 543.236,150.067 548.903,154.4 554,159.5C 555.927,162.948 557.261,166.615 558,170.5C 565.856,173.759 571.856,179.092 576,186.5C 576.844,190.211 577.844,193.877 579,197.5C 583.034,200.022 586.701,203.022 590,206.5C 592.124,215.383 595.291,223.716 599.5,231.5 Z"/></g>
<g><path style="opacity:1" fill="#7b6152" d="M 463.5,394.5 C 461.891,369.961 448.891,355.961 424.5,352.5C 400.342,355.493 387.175,369.159 385,393.5C 383.217,399.067 380.883,404.401 378,409.5C 371.541,404.71 365.374,399.543 359.5,394C 379.167,376.321 381.667,356.488 367,334.5C 362.307,329.468 356.807,325.635 350.5,323C 366.209,310.739 377.376,295.239 384,276.5C 385.704,270.278 386.537,263.945 386.5,257.5C 388.099,257.768 389.432,257.434 390.5,256.5C 402.279,252.92 412.779,246.92 422,238.5C 422.667,236.833 422.667,235.167 422,233.5C 412.447,219.891 399.447,211.891 383,209.5C 377.069,209.867 371.569,211.534 366.5,214.5C 347.75,199.208 326.584,188.542 303,182.5C 276.821,185.537 264.154,200.203 265,226.5C 266.842,236.683 271.676,245.183 279.5,252C 285.336,255.752 291.336,259.252 297.5,262.5C 298.521,263.002 298.688,263.668 298,264.5C 291.106,269.725 283.94,274.558 276.5,279C 245.484,296.176 214.15,312.843 182.5,329C 162.491,337.922 142.324,346.422 122,354.5C 121.722,353.584 121.222,352.918 120.5,352.5C 101.71,296.691 96.877,239.691 106,181.5C 119.344,120.494 155.844,80.9935 215.5,63C 267.904,50.2056 320.57,49.2056 373.5,60C 442.297,76.1313 483.13,118.965 496,188.5C 505.047,260.338 494.214,329.005 463.5,394.5 Z"/></g>
<g><path style="opacity:1" fill="#3d3938" d="M 119.5,115.5 C 120.239,115.369 120.906,115.536 121.5,116C 103.583,143.815 93.7495,174.315 92,207.5C 89.0827,248.662 92.916,289.162 103.5,329C 103,331.5 102.5,334 102,336.5C 95.7659,341.625 92.0992,348.292 91,356.5C 84.1613,361.155 79.4946,367.488 77,375.5C 71.1287,378.034 66.462,382.034 63,387.5C 69.879,373.513 71.2123,358.846 67,343.5C 54.6572,311.482 39.6572,280.815 22,251.5C 21.3125,245.447 20.6458,239.447 20,233.5C 21.4715,229.419 23.1382,225.419 25,221.5C 29.3333,216.5 33.6667,211.5 38,206.5C 39.9469,202.716 41.2802,198.716 42,194.5C 52.1851,190.317 58.8517,182.984 62,172.5C 67,168.833 72,165.167 77,161.5C 79.7604,156.271 82.5938,151.105 85.5,146C 94.3907,143.093 101.557,137.926 107,130.5C 107.868,126.73 109.034,123.064 110.5,119.5C 113.769,118.531 116.769,117.198 119.5,115.5 Z"/></g>
<g><path style="opacity:1" fill="#3d3938" d="M 479.5,117.5 C 479.56,116.957 479.893,116.624 480.5,116.5C 483.167,117.5 485.833,118.5 488.5,119.5C 489.665,123.494 490.832,127.494 492,131.5C 498.87,138.354 506.704,143.854 515.5,148C 516.801,151.565 518.301,155.065 520,158.5C 525.457,163.892 531.457,168.558 538,172.5C 538.352,179.038 541.185,184.205 546.5,188C 550.084,190.041 553.584,192.208 557,194.5C 557.848,205.54 563.182,213.54 573,218.5C 573.755,223.535 575.421,228.202 578,232.5C 579.783,244.273 576.783,254.607 569,263.5C 560.449,282.27 551.115,300.603 541,318.5C 531.734,336.156 528.401,354.823 531,374.5C 532.981,379.128 535.481,383.461 538.5,387.5C 538.167,387.833 537.833,388.167 537.5,388.5C 534.053,382.387 529.053,378.054 522.5,375.5C 519.939,367.684 515.439,361.35 509,356.5C 507.173,347.338 502.673,339.838 495.5,334C 509.117,286.98 512.95,239.147 507,190.5C 504.001,167.831 497.001,146.498 486,126.5C 484.301,123.079 482.135,120.079 479.5,117.5 Z"/></g>
<g><path style="opacity:1" fill="#785f50" d="M 366.5,214.5 C 361.209,219.636 356.376,225.303 352,231.5C 349.232,235.467 347.898,239.8 348,244.5C 356.708,248.096 365.541,251.596 374.5,255C 379.78,256.095 385.113,256.595 390.5,256.5C 389.432,257.434 388.099,257.768 386.5,257.5C 386.537,263.945 385.704,270.278 384,276.5C 377.376,295.239 366.209,310.739 350.5,323C 356.807,325.635 362.307,329.468 367,334.5C 381.667,356.488 379.167,376.321 359.5,394C 365.374,399.543 371.541,404.71 378,409.5C 380.883,404.401 383.217,399.067 385,393.5C 387.175,369.159 400.342,355.493 424.5,352.5C 448.891,355.961 461.891,369.961 463.5,394.5C 455.519,414.605 448.019,434.939 441,455.5C 437.38,471.936 433.38,488.269 429,504.5C 425.114,517.719 416.614,526.219 403.5,530C 389.743,531.988 376.41,530.155 363.5,524.5C 361.895,525.587 361.229,524.921 361.5,522.5C 363.164,515.673 365.331,509.007 368,502.5C 373.968,495.531 380.301,488.864 387,482.5C 394.803,473.355 400.97,463.189 405.5,452C 406.378,448.141 406.878,444.307 407,440.5C 404.221,455.225 397.388,467.725 386.5,478C 376.036,483.82 365.036,485.987 353.5,484.5C 352.942,483.21 351.942,482.377 350.5,482C 336.454,478.704 322.787,474.537 309.5,469.5C 302.931,463.147 301.764,455.813 306,447.5C 320.836,442.916 333.836,435.25 345,424.5C 359.729,404.198 356.229,387.698 334.5,375C 312.614,368.079 290.614,367.745 268.5,374C 247.378,384.031 242.212,399.531 253,420.5C 263.248,433.383 276.415,441.883 292.5,446C 298.164,451.779 298.997,458.279 295,465.5C 293.188,467.3 291.355,468.967 289.5,470.5C 286.513,470.998 283.513,471.498 280.5,472C 269.49,475.838 258.49,479.338 247.5,482.5C 228.247,487.144 213.414,481.144 203,464.5C 199.011,456.865 196.011,448.865 194,440.5C 193.156,449.791 195.156,458.458 200,466.5C 208.57,479.072 218.57,490.405 230,500.5C 234.372,507.942 236.872,515.775 237.5,524C 224.681,529.47 211.347,531.47 197.5,530C 186.511,526.347 178.678,519.18 174,508.5C 172.53,503.757 170.864,499.091 169,494.5C 166.095,478.64 162.429,462.974 158,447.5C 144.945,416.056 132.445,384.389 120.5,352.5C 121.222,352.918 121.722,353.584 122,354.5C 142.324,346.422 162.491,337.922 182.5,329C 214.15,312.843 245.484,296.176 276.5,279C 283.94,274.558 291.106,269.725 298,264.5C 298.688,263.668 298.521,263.002 297.5,262.5C 291.336,259.252 285.336,255.752 279.5,252C 271.676,245.183 266.842,236.683 265,226.5C 264.154,200.203 276.821,185.537 303,182.5C 326.584,188.542 347.75,199.208 366.5,214.5 Z"/></g>
<g><path style="opacity:1" fill="#010101" d="M 215.5,209.5 C 234.035,210.853 246.868,220.186 254,237.5C 254.995,240.126 255.328,242.793 255,245.5C 246.704,248.267 238.537,251.433 230.5,255C 217.282,258.408 204.949,256.408 193.5,249C 189.341,245.753 185.008,242.753 180.5,240C 179.409,237.936 179.242,235.769 180,233.5C 188.817,220.819 200.65,212.819 215.5,209.5 Z"/></g>
<g><path style="opacity:1" fill="#010101" d="M 390.5,256.5 C 385.113,256.595 379.78,256.095 374.5,255C 365.541,251.596 356.708,248.096 348,244.5C 347.898,239.8 349.232,235.467 352,231.5C 356.376,225.303 361.209,219.636 366.5,214.5C 371.569,211.534 377.069,209.867 383,209.5C 399.447,211.891 412.447,219.891 422,233.5C 422.667,235.167 422.667,236.833 422,238.5C 412.779,246.92 402.279,252.92 390.5,256.5 Z"/></g>
<g><path style="opacity:1" fill="#f3f3f3" d="M 220.5,220.5 C 230.247,220.085 232.913,224.252 228.5,233C 220.398,235.895 216.565,233.062 217,224.5C 217.69,222.65 218.856,221.316 220.5,220.5 Z"/></g>
<g><path style="opacity:1" fill="#f4f4f4" d="M 387.5,220.5 C 395.794,219.036 399.294,222.37 398,230.5C 394.644,234.948 390.644,235.615 386,232.5C 383.66,228.052 384.16,224.052 387.5,220.5 Z"/></g>
<g><path style="opacity:1" fill="#000000" d="M 309.5,469.5 C 302.713,467.906 296.047,468.239 289.5,470.5C 291.355,468.967 293.188,467.3 295,465.5C 298.997,458.279 298.164,451.779 292.5,446C 276.415,441.883 263.248,433.383 253,420.5C 242.212,399.531 247.378,384.031 268.5,374C 290.614,367.745 312.614,368.079 334.5,375C 356.229,387.698 359.729,404.198 345,424.5C 333.836,435.25 320.836,442.916 306,447.5C 301.764,455.813 302.931,463.147 309.5,469.5 Z"/></g>
<g><path style="opacity:1" fill="#f09c9f" d="M 309.5,469.5 C 322.787,474.537 336.454,478.704 350.5,482C 351.942,482.377 352.942,483.21 353.5,484.5C 353.794,500.516 351.628,516.183 347,531.5C 338.704,552.628 323.204,563.295 300.5,563.5C 281.187,563.932 266.687,555.932 257,539.5C 249.072,521.335 245.905,502.335 247.5,482.5C 258.49,479.338 269.49,475.838 280.5,472C 283.513,471.498 286.513,470.998 289.5,470.5C 296.047,468.239 302.713,467.906 309.5,469.5 Z"/></g>
</svg>
