<?xml version="1.0" encoding="UTF-8"?>
<!DOCTYPE svg PUBLIC "-//W3C//DTD SVG 1.1//EN" "http://www.w3.org/Graphics/SVG/1.1/DTD/svg11.dtd">
<svg xmlns="http://www.w3.org/2000/svg" version="1.1" width="600px" height="600px" style="shape-rendering:geometricPrecision; text-rendering:geometricPrecision; image-rendering:optimizeQuality; fill-rule:evenodd; clip-rule:evenodd" xmlns:xlink="http://www.w3.org/1999/xlink">
<g><path style="opacity:0.967" fill="#040201" d="M 599.5,218.5 C 599.5,228.833 599.5,239.167 599.5,249.5C 593.441,269.284 583.941,287.284 571,303.5C 558.602,317.954 547.936,333.62 539,350.5C 534.62,366.531 531.954,382.865 531,399.5C 527.784,413.024 519.618,417.524 506.5,413C 498.95,408.45 493.116,402.283 489,394.5C 475.011,425.143 460.511,455.477 445.5,485.5C 448.823,499.126 451.99,512.792 455,526.5C 456.605,539.546 451.438,548.712 439.5,554C 389.045,561.028 353.878,541.194 334,494.5C 311.271,507.742 288.604,507.742 266,494.5C 247.603,537.126 215.103,557.626 168.5,556C 153.023,554.19 144.69,545.523 143.5,530C 145.939,517.746 148.772,505.579 152,493.5C 152.997,490.199 153.33,486.866 153,483.5C 138.923,453.68 124.59,424.014 110,394.5C 104.557,405.621 95.8904,412.621 84,415.5C 74.6667,414.167 69.3333,408.833 68,399.5C 66.977,383.62 64.6437,367.954 61,352.5C 56.5053,343.507 51.5053,334.84 46,326.5C 33.5573,310.723 21.8906,294.39 11,277.5C 6.06294,268.498 2.2296,259.165 -0.5,249.5C -0.5,239.167 -0.5,228.833 -0.5,218.5C 4.00324,203.496 11.1699,189.829 21,177.5C 45.8694,146.964 73.7027,119.464 104.5,95C 123.585,80.288 144.585,68.9547 167.5,61C 187.816,56.1366 208.316,52.3033 229,49.5C 233.611,49.4405 238.111,50.1071 242.5,51.5C 280.5,43.5 318.5,43.5 356.5,51.5C 367.509,48.9324 378.509,49.099 389.5,52C 403.437,55.3178 417.437,58.3178 431.5,61C 451.58,68.0394 470.247,77.706 487.5,90C 526.747,119.247 560.581,153.747 589,193.5C 593.601,201.498 597.101,209.831 599.5,218.5 Z"/></g>
<g><path style="opacity:1" fill="#b1874e" d="M 360.5,62.5 C 389.596,71.7404 414.43,87.7404 435,110.5C 447.214,124.046 457.881,138.713 467,154.5C 475.118,172.303 480.118,190.97 482,210.5C 483.764,242.485 483.931,274.485 482.5,306.5C 480.387,324.942 481.554,343.275 486,361.5C 486.667,364.5 486.667,367.5 486,370.5C 481.845,383.813 476.845,396.813 471,409.5C 458.34,433.153 446.507,457.153 435.5,481.5C 434.883,481.389 434.383,481.056 434,480.5C 433.474,476.338 432.474,472.338 431,468.5C 430.686,453.667 430.853,438.834 431.5,424C 431.472,404.052 429.972,384.219 427,364.5C 425.056,359.499 423.223,354.499 421.5,349.5C 413.956,308.587 392.956,276.42 358.5,253C 323.856,233.418 288.189,231.418 251.5,247C 227.435,259.731 208.602,277.898 195,301.5C 179.787,328.898 171.12,358.231 169,389.5C 168.126,414.828 167.459,440.161 167,465.5C 166.568,471.13 165.402,476.463 163.5,481.5C 151.558,455.615 139.058,429.948 126,404.5C 120.941,393.49 116.775,382.157 113.5,370.5C 113.696,368.714 114.529,367.381 116,366.5C 117.571,359.871 118.905,353.204 120,346.5C 120.784,325.46 120.284,304.46 118.5,283.5C 117.5,283.5 116.5,283.5 115.5,283.5C 115.5,282.5 115.5,281.5 115.5,280.5C 115.11,256.806 115.61,233.14 117,209.5C 119.026,188.758 124.693,169.091 134,150.5C 153.549,117.284 180.049,91.1174 213.5,72C 221.749,68.3106 230.082,65.144 238.5,62.5C 279.147,54.5153 319.813,54.5153 360.5,62.5 Z"/></g>
<g><path style="opacity:1" fill="#422e0e" d="M 238.5,62.5 C 230.082,65.144 221.749,68.3106 213.5,72C 180.049,91.1174 153.549,117.284 134,150.5C 124.693,169.091 119.026,188.758 117,209.5C 115.61,233.14 115.11,256.806 115.5,280.5C 114.833,274.986 114.167,269.319 113.5,263.5C 112.333,233.506 112.167,203.506 113,173.5C 114.189,167.475 115.522,161.475 117,155.5C 123.868,138.023 132.702,121.69 143.5,106.5C 150.833,99.1667 158.167,91.8333 165.5,84.5C 171.135,80.905 176.802,77.405 182.5,74C 184.229,72.2111 184.896,70.0444 184.5,67.5C 197.826,65.0684 211.159,62.5684 224.5,60C 228.167,59.3333 231.833,59.3333 235.5,60C 236.942,60.3768 237.942,61.2101 238.5,62.5 Z"/></g>
<g><path style="opacity:1" fill="#412e0e" d="M 417.5,68.5 C 417.281,69.675 417.614,70.675 418.5,71.5C 436.339,81.7795 451.839,96.1128 465,114.5C 465.383,113.944 465.883,113.611 466.5,113.5C 468.192,115.205 469.525,117.205 470.5,119.5C 470.461,120.583 470.127,121.583 469.5,122.5C 473.473,129.246 476.973,136.246 480,143.5C 480.77,144.598 481.603,144.598 482.5,143.5C 485.563,151.071 487.73,159.071 489,167.5C 489.856,208.845 489.523,250.179 488,291.5C 486.374,295.335 485.374,299.335 485,303.5C 484.623,304.942 483.79,305.942 482.5,306.5C 483.931,274.485 483.764,242.485 482,210.5C 480.118,190.97 475.118,172.303 467,154.5C 457.881,138.713 447.214,124.046 435,110.5C 414.43,87.7404 389.596,71.7404 360.5,62.5C 360.881,61.0689 361.881,60.2355 363.5,60C 367.167,59.3333 370.833,59.3333 374.5,60C 389.011,62.7189 403.344,65.5522 417.5,68.5 Z"/></g>
<g><path style="opacity:1" fill="#30210d" d="M 417.5,68.5 C 419.167,68.5 420.833,68.5 422.5,68.5C 422.281,69.675 422.614,70.675 423.5,71.5C 440.81,82.4766 455.143,96.4766 466.5,113.5C 465.883,113.611 465.383,113.944 465,114.5C 451.839,96.1128 436.339,81.7795 418.5,71.5C 417.614,70.675 417.281,69.675 417.5,68.5 Z"/></g>
<g><path style="opacity:1" fill="#976a32" d="M 153.5,79.5 C 154.978,79.238 156.311,79.5713 157.5,80.5C 151.5,86.5 145.5,92.5 139.5,98.5C 138.675,99.3857 137.675,99.719 136.5,99.5C 136.742,103.917 134.742,106.583 130.5,107.5C 131.113,110.969 129.779,112.969 126.5,113.5C 122.737,123.03 118.404,132.363 113.5,141.5C 110.873,149.341 108.873,157.341 107.5,165.5C 106.333,200.495 106.167,235.495 107,270.5C 108.283,275.657 108.95,280.99 109,286.5C 110.333,287.167 111.333,288.167 112,289.5C 117.798,322.281 114.132,353.948 101,384.5C 100.092,386.439 98.5922,387.439 96.5,387.5C 96.6427,389.262 96.3094,390.929 95.5,392.5C 92.8333,395.167 90.1667,397.833 87.5,400.5C 85.5,401.833 83.5,401.833 81.5,400.5C 79.906,385.44 77.906,370.44 75.5,355.5C 73.2195,348.183 70.0528,341.183 66,334.5C 65.023,332.26 64.523,329.927 64.5,327.5C 63.325,327.719 62.325,327.386 61.5,326.5C 54.5612,316.225 47.2278,306.225 39.5,296.5C 38.6906,294.929 38.3573,293.262 38.5,291.5C 36.3944,291.321 34.7277,290.321 33.5,288.5C 24.6773,276.521 17.844,263.521 13,249.5C 11,239.167 11,228.833 13,218.5C 16.4429,212.049 19.4429,205.383 22,198.5C 29.7457,188.42 37.5791,178.42 45.5,168.5C 64.6098,148.72 84.2765,129.72 104.5,111.5C 112.748,106.056 120.748,100.222 128.5,94C 136.14,89.2342 144.14,85.2342 152.5,82C 153.252,81.3292 153.586,80.4959 153.5,79.5 Z"/></g>
<g><path style="opacity:1" fill="#986b32" d="M 455.5,89.5 C 459.795,92.6133 464.462,95.1133 469.5,97C 471.167,98.6667 472.833,100.333 474.5,102C 480.63,104.934 486.296,108.601 491.5,113C 521.859,139.353 549.359,168.186 574,199.5C 577.398,206.869 580.731,214.202 584,221.5C 586.292,232.364 585.626,243.031 582,253.5C 578.289,259.956 574.956,266.623 572,273.5C 562.463,287.712 552.13,301.379 541,314.5C 535.667,323.833 530.333,333.167 525,342.5C 519.301,360.36 516.301,378.693 516,397.5C 515.586,397.957 515.086,398.291 514.5,398.5C 510.515,395.016 506.682,391.349 503,387.5C 500.044,380.623 496.711,373.956 493,367.5C 491.363,357.339 489.363,347.339 487,337.5C 486.333,328.833 486.333,320.167 487,311.5C 488,310.5 489,309.5 490,308.5C 490.089,304.972 490.756,301.638 492,298.5C 494.505,253.991 495.172,209.325 494,164.5C 488.01,136.004 475.177,111.004 455.5,89.5 Z"/></g>
<g><path style="opacity:1" fill="#9a7646" d="M 297.5,97.5 C 299.582,97.472 301.416,98.1387 303,99.5C 303.667,134.167 303.667,168.833 303,203.5C 300.333,206.167 297.667,206.167 295,203.5C 294.333,168.833 294.333,134.167 295,99.5C 295.995,98.9341 296.828,98.2674 297.5,97.5 Z"/></g>
<g><path style="opacity:1" fill="#2c1e0c" d="M 470.5,119.5 C 474.867,127.233 478.867,135.233 482.5,143.5C 481.603,144.598 480.77,144.598 480,143.5C 476.973,136.246 473.473,129.246 469.5,122.5C 470.127,121.583 470.461,120.583 470.5,119.5 Z"/></g>
<g><path style="opacity:1" fill="#24190c" d="M 516.5,128.5 C 516.897,127.475 517.563,127.308 518.5,128C 526.667,136.167 534.833,144.333 543,152.5C 543.667,153.167 543.667,153.833 543,154.5C 534.298,145.631 525.465,136.964 516.5,128.5 Z"/></g>
<g><path style="opacity:1" fill="#9a7646" d="M 218.5,133.5 C 244.558,130.103 260.058,141.103 265,166.5C 266.712,179.629 265.045,192.296 260,204.5C 258.224,207.941 256.057,211.108 253.5,214C 249.771,214.783 247.437,213.283 246.5,209.5C 255.88,193.472 258.047,176.472 253,158.5C 246.218,146.001 235.718,141.168 221.5,144C 215.792,145.277 210.125,146.277 204.5,147C 201.833,144 201.833,141 204.5,138C 209.286,136.478 213.952,134.978 218.5,133.5 Z"/></g>
<g><path style="opacity:1" fill="#9a7646" d="M 361.5,133.5 C 372.8,132.828 383.8,134.328 394.5,138C 397.699,142.507 396.699,145.674 391.5,147.5C 382.085,144.281 372.418,143.115 362.5,144C 352.897,147.609 346.73,154.442 344,164.5C 341.265,180.559 344.099,195.559 352.5,209.5C 351.833,212.167 350.167,213.833 347.5,214.5C 344.559,213.394 342.392,211.394 341,208.5C 331.879,189.42 331.212,170.087 339,150.5C 344.365,141.964 351.865,136.297 361.5,133.5 Z"/></g>
<g><path style="opacity:1" fill="#9b7646" d="M 221.5,164.5 C 236.995,164.175 242.495,171.509 238,186.5C 236.462,190.625 233.796,193.625 230,195.5C 227.833,194.667 226.333,193.167 225.5,191C 227.393,188.046 228.893,184.879 230,181.5C 230.667,179.167 230.667,176.833 230,174.5C 226.534,173.798 223.034,173.131 219.5,172.5C 217.836,169.09 218.503,166.423 221.5,164.5 Z"/></g>
<g><path style="opacity:1" fill="#9b7646" d="M 367.5,164.5 C 371.911,164.021 376.078,164.688 380,166.5C 380.896,169.025 380.396,171.192 378.5,173C 375.242,173.212 372.076,173.712 369,174.5C 368.333,176.833 368.333,179.167 369,181.5C 370.107,184.879 371.607,188.046 373.5,191C 369.852,197.058 366.352,196.892 363,190.5C 359.425,184.086 358.759,177.419 361,170.5C 362.737,167.926 364.904,165.926 367.5,164.5 Z"/></g>
<g><path style="opacity:1" fill="#010000" d="M 199.5,205.5 C 221.765,205.652 228.932,216.319 221,237.5C 213.202,253.982 200.369,260.148 182.5,256C 167.568,248.312 162.401,236.479 167,220.5C 169.537,217.628 172.37,215.128 175.5,213C 183.273,209.351 191.273,206.851 199.5,205.5 Z"/></g>
<g><path style="opacity:1" fill="#010000" d="M 391.5,205.5 C 404.084,205.447 415.751,208.614 426.5,215C 435.981,223.65 437.148,233.483 430,244.5C 419.14,258.121 405.974,260.954 390.5,253C 378.036,243.554 373.202,231.054 376,215.5C 379.536,209.491 384.703,206.157 391.5,205.5 Z"/></g>
<g><path style="opacity:1" fill="#e8e8e8" d="M 205.5,216.5 C 210.383,217.466 211.717,220.299 209.5,225C 205.57,226.421 202.903,225.254 201.5,221.5C 202.16,219.185 203.493,217.519 205.5,216.5 Z"/></g>
<g><path style="opacity:1" fill="#e9e9e9" d="M 410.5,216.5 C 416.348,217.463 417.681,220.297 414.5,225C 408.664,226.494 406.498,224.327 408,218.5C 408.995,217.934 409.828,217.267 410.5,216.5 Z"/></g>
<g><path style="opacity:1" fill="#986b32" d="M 421.5,349.5 C 395.833,324.167 370.167,298.833 344.5,273.5C 329.519,256.151 310.519,249.318 287.5,253C 269.095,256.6 256.595,267.1 250,284.5C 247.994,296.142 250.328,306.808 257,316.5C 259.439,318.629 261.939,320.629 264.5,322.5C 279.223,337.724 294.223,352.891 309.5,368C 308.906,368.464 308.239,368.631 307.5,368.5C 296.242,366.481 286.242,369.148 277.5,376.5C 261.873,390.996 251.373,408.662 246,429.5C 243.893,448.913 241.227,468.246 238,487.5C 235.523,498.266 231.856,508.599 227,518.5C 217.488,530.996 205.321,539.663 190.5,544.5C 182.182,545.407 173.849,545.573 165.5,545C 161.483,543.969 158.317,541.802 156,538.5C 154.494,533.254 154.161,527.921 155,522.5C 158.793,509.996 161.959,497.33 164.5,484.5C 164.315,483.416 163.982,482.416 163.5,481.5C 165.402,476.463 166.568,471.13 167,465.5C 167.459,440.161 168.126,414.828 169,389.5C 171.12,358.231 179.787,328.898 195,301.5C 208.602,277.898 227.435,259.731 251.5,247C 288.189,231.418 323.856,233.418 358.5,253C 392.956,276.42 413.956,308.587 421.5,349.5 Z"/></g>
<g><path style="opacity:1" fill="#81521c" d="M 344.5,273.5 C 351.467,287.481 350.967,301.147 343,314.5C 337.685,321.489 330.685,325.489 322,326.5C 314.398,324.183 306.731,322.183 299,320.5C 291.182,321.908 283.515,323.908 276,326.5C 271.833,326.056 267.999,324.722 264.5,322.5C 261.939,320.629 259.439,318.629 257,316.5C 250.328,306.808 247.994,296.142 250,284.5C 256.595,267.1 269.095,256.6 287.5,253C 310.519,249.318 329.519,256.151 344.5,273.5 Z"/></g>
<g><path style="opacity:1" fill="#916630" d="M 344.5,273.5 C 370.167,298.833 395.833,324.167 421.5,349.5C 423.223,354.499 425.056,359.499 427,364.5C 429.972,384.219 431.472,404.052 431.5,424C 430.853,438.834 430.686,453.667 431,468.5C 432.474,472.338 433.474,476.338 434,480.5C 434.383,481.056 434.883,481.389 435.5,481.5C 435.196,482.15 434.863,482.817 434.5,483.5C 435.551,486.757 436.218,490.09 436.5,493.5C 405.251,463.752 374.417,433.419 344,402.5C 343.601,402.728 343.435,403.062 343.5,403.5C 337.727,392.625 330.06,383.291 320.5,375.5C 316.26,372.882 311.926,370.548 307.5,368.5C 308.239,368.631 308.906,368.464 309.5,368C 294.223,352.891 279.223,337.724 264.5,322.5C 267.999,324.722 271.833,326.056 276,326.5C 283.515,323.908 291.182,321.908 299,320.5C 306.731,322.183 314.398,324.183 322,326.5C 330.685,325.489 337.685,321.489 343,314.5C 350.967,301.147 351.467,287.481 344.5,273.5 Z"/></g>
<g><path style="opacity:1" fill="#654223" d="M 272.5,278.5 C 283.79,279.603 288.29,285.603 286,296.5C 280.251,301.981 273.418,303.814 265.5,302C 262.968,301.388 262.135,299.888 263,297.5C 266.768,295.245 270.768,293.578 275,292.5C 275.667,290.167 275.667,287.833 275,285.5C 273.097,283.559 272.264,281.226 272.5,278.5 Z"/></g>
<g><path style="opacity:1" fill="#644223" d="M 321.5,278.5 C 323.167,278.5 324.833,278.5 326.5,278.5C 326.245,281.016 325.411,283.35 324,285.5C 323.333,287.833 323.333,290.167 324,292.5C 327.778,294.073 331.611,295.573 335.5,297C 336.833,298.333 336.833,299.667 335.5,301C 328.995,303.263 322.662,302.929 316.5,300C 311.144,295.553 310.31,290.386 314,284.5C 316.114,281.879 318.614,279.879 321.5,278.5 Z"/></g>
<g><path style="opacity:1" fill="#020000" d="M 307.5,368.5 C 311.926,370.548 316.26,372.882 320.5,375.5C 320.611,376.117 320.944,376.617 321.5,377C 306.627,380.482 291.96,380.315 277.5,376.5C 286.242,369.148 296.242,366.481 307.5,368.5 Z"/></g>
<g><path style="opacity:1" fill="#7b4e24" d="M 320.5,375.5 C 330.06,383.291 337.727,392.625 343.5,403.5C 346.889,410.947 349.722,418.614 352,426.5C 355.1,445.103 357.767,463.769 360,482.5C 362.211,496.915 367.211,510.248 375,522.5C 384.22,532.903 395.387,540.236 408.5,544.5C 384.799,541.067 366.299,529.4 353,509.5C 348.473,501.779 344.473,493.779 341,485.5C 340.128,483.387 338.628,482.054 336.5,481.5C 312.621,497.252 288.621,497.419 264.5,482C 263.5,481.333 262.5,481.333 261.5,482C 256.017,490.464 251.184,499.298 247,508.5C 233.488,528.844 214.655,540.844 190.5,544.5C 205.321,539.663 217.488,530.996 227,518.5C 231.856,508.599 235.523,498.266 238,487.5C 241.227,468.246 243.893,448.913 246,429.5C 251.373,408.662 261.873,390.996 277.5,376.5C 291.96,380.315 306.627,380.482 321.5,377C 320.944,376.617 320.611,376.117 320.5,375.5 Z"/></g>
<g><path style="opacity:1" fill="#986b32" d="M 436.5,493.5 C 441.003,507.18 443.503,521.18 444,535.5C 442.482,541.357 438.648,544.524 432.5,545C 424.477,545.657 416.477,545.49 408.5,544.5C 395.387,540.236 384.22,532.903 375,522.5C 367.211,510.248 362.211,496.915 360,482.5C 357.767,463.769 355.1,445.103 352,426.5C 349.722,418.614 346.889,410.947 343.5,403.5C 343.435,403.062 343.601,402.728 344,402.5C 374.417,433.419 405.251,463.752 436.5,493.5 Z"/></g>
</svg>
