<?xml version="1.0" encoding="UTF-8"?>
<!DOCTYPE svg PUBLIC "-//W3C//DTD SVG 1.1//EN" "http://www.w3.org/Graphics/SVG/1.1/DTD/svg11.dtd">
<svg xmlns="http://www.w3.org/2000/svg" version="1.1" width="600px" height="600px" style="shape-rendering:geometricPrecision; text-rendering:geometricPrecision; image-rendering:optimizeQuality; fill-rule:evenodd; clip-rule:evenodd" xmlns:xlink="http://www.w3.org/1999/xlink">
<g><path style="opacity:0.955" fill="#010100" d="M 152.5,0.5 C 157.705,0.133598 162.705,0.966932 167.5,3C 174.116,6.55363 180.282,10.7203 186,15.5C 198.648,9.2057 210.481,10.3724 221.5,19C 229.372,27.2032 236.872,35.7032 244,44.5C 247.033,48.774 250.867,49.6074 255.5,47C 252.63,42.4119 252.964,38.0785 256.5,34C 260.833,33.6667 265.167,33.3333 269.5,33C 264.045,29.2821 262.212,24.4488 264,18.5C 267.415,15.0517 271.249,14.5517 275.5,17C 285.482,21.8142 293.815,28.6475 300.5,37.5C 305.684,31.4826 311.35,25.9826 317.5,21C 321.856,18.3203 326.522,16.4869 331.5,15.5C 337.19,17.0348 339.023,20.7014 337,26.5C 335.542,28.96 333.709,31.1266 331.5,33C 335.5,33.3333 339.5,33.6667 343.5,34C 346.67,37.6558 347.337,41.8224 345.5,46.5C 347.044,48.4461 349.044,48.9461 351.5,48C 359.462,38.3689 367.796,29.0355 376.5,20C 387.749,10.4204 400.082,8.92044 413.5,15.5C 418.937,10.6072 424.937,6.44052 431.5,3C 437.364,0.194966 443.198,0.0282998 449,2.5C 451.054,6.02903 450.721,9.36236 448,12.5C 445.555,13.9771 443.388,15.8104 441.5,18C 453.473,18.9465 456.473,24.6131 450.5,35C 486.281,56.889 524.281,73.889 564.5,86C 574.585,89.1212 583.085,94.6212 590,102.5C 593.16,109.299 594.66,116.466 594.5,124C 592.387,150.287 586.72,175.787 577.5,200.5C 583.677,214.895 586.177,229.895 585,245.5C 580.804,254.801 576.304,254.801 571.5,245.5C 568.011,253.441 563.178,254.441 557,248.5C 547.535,269.155 541.868,290.822 540,313.5C 536.988,320.728 531.821,322.895 524.5,320C 518.346,315.511 513.18,310.011 509,303.5C 500.137,288.438 493.47,272.438 489,255.5C 484.168,288.827 476.502,321.494 466,353.5C 461.88,363.741 457.213,373.741 452,383.5C 442.415,398.339 432.581,413.006 422.5,427.5C 429.663,444.479 432.496,462.145 431,480.5C 430.659,487.876 427.825,494.043 422.5,499C 418.909,499.789 415.409,499.622 412,498.5C 412.036,506.434 410.702,514.1 408,521.5C 399.646,534.857 389.479,546.69 377.5,557C 373.152,559.161 368.985,558.995 365,556.5C 362.298,562.54 358.131,567.373 352.5,571C 338.106,579.021 323.106,585.687 307.5,591C 305.129,593.706 302.463,596.039 299.5,598C 297.833,598.667 296.167,598.667 294.5,598C 292.5,596 290.5,594 288.5,592C 272.711,585.961 257.377,578.961 242.5,571C 236.768,566.613 232.602,561.113 230,554.5C 226.427,559.277 222.26,559.777 217.5,556C 205.904,545.739 195.737,534.239 187,521.5C 185.25,518.754 184.25,515.754 184,512.5C 183.667,507.5 183.333,502.5 183,497.5C 177.499,500.692 172.833,499.692 169,494.5C 163.952,484.388 162.285,473.721 164,462.5C 165.63,449.313 169.13,436.646 174.5,424.5C 164.503,410.51 155.003,396.177 146,381.5C 132.478,355.269 123.145,327.602 118,298.5C 114.997,284.138 112.33,269.805 110,255.5C 104.532,277.933 94.6989,298.1 80.5,316C 75.605,320.858 69.9383,322.192 63.5,320C 61.3834,318.269 59.8834,316.102 59,313.5C 57.2403,290.794 51.5736,269.127 42,248.5C 39.8387,252.124 36.672,253.291 32.5,252C 30.1064,250.048 28.6064,247.548 28,244.5C 26.2687,251.505 22.2687,253.505 16,250.5C 13.0321,241.646 12.6987,232.646 15,223.5C 16.562,215.815 18.7287,208.315 21.5,201C 14.3745,180.998 9.20778,160.498 6,139.5C 4.16492,129.823 4.16492,120.156 6,110.5C 9.80747,100.026 16.9741,92.8592 27.5,89C 48.2438,81.53 68.9105,73.8633 89.5,66C 109.609,56.4462 129.275,46.1129 148.5,35C 142.675,24.8013 145.675,19.1346 157.5,18C 153.517,14.8607 150.517,11.0273 148.5,6.5C 149.467,4.20994 150.8,2.20994 152.5,0.5 Z"/></g>
<g><path style="opacity:1" fill="#3d3938" d="M 253.5,58.5 C 249.197,67.6426 242.864,75.1426 234.5,81C 228.344,84.759 222.678,84.259 217.5,79.5C 217.489,77.9826 216.823,76.8159 215.5,76C 201.149,66.6369 187.483,67.6369 174.5,79C 166.137,87.5466 159.637,97.38 155,108.5C 150.138,120.087 145.471,131.754 141,143.5C 140.26,144.749 140.427,145.749 141.5,146.5C 139.512,148.465 138.012,150.798 137,153.5C 130.196,172.746 123.696,192.079 117.5,211.5C 115.278,211.178 113.444,211.845 112,213.5C 106.69,230.075 101.69,246.742 97,263.5C 92.1089,278.616 85.1089,292.616 76,305.5C 74.2609,307.741 72.0942,309.408 69.5,310.5C 66.8363,282.677 58.8363,256.511 45.5,232C 42.6529,231.056 40.1529,231.556 38,233.5C 37.9765,228.486 38.4765,223.486 39.5,218.5C 39.3008,213.124 36.6341,210.958 31.5,212C 29.9512,213.214 28.7845,214.714 28,216.5C 27.8333,216 27.6667,215.5 27.5,215C 29.4532,210.429 31.1199,205.762 32.5,201C 25.6981,181.928 20.5314,162.428 17,142.5C 15.6681,132.529 15.3347,122.529 16,112.5C 18.1145,108.052 21.2811,104.552 25.5,102C 28.8333,100.333 32.1667,98.6667 35.5,97C 77.272,83.9687 116.939,66.302 154.5,44C 162.538,40.8094 163.538,36.1428 157.5,30C 161.202,30.1762 164.535,31.5095 167.5,34C 172.338,34.5786 175.671,32.5786 177.5,28C 171.816,18.0096 172.482,17.343 179.5,26C 180.609,26.6377 181.775,27.1377 183,27.5C 188.22,25.806 193.387,23.9727 198.5,22C 204.091,21.0855 209.091,22.4188 213.5,26C 223.869,36.7008 233.869,47.7008 243.5,59C 246.888,59.6588 250.221,59.4922 253.5,58.5 Z"/></g>
<g><path style="opacity:1" fill="#3d3938" d="M 481.5,210.5 C 474.281,186.737 465.948,163.404 456.5,140.5C 450.134,121.105 441.634,102.772 431,85.5C 419.989,71.8927 406.156,67.3927 389.5,72C 386.134,73.6521 383.801,76.1521 382.5,79.5C 376.908,84.1136 370.908,84.6136 364.5,81C 357.397,75.6191 351.564,69.1191 347,61.5C 346.517,60.552 346.351,59.552 346.5,58.5C 349.408,59.5691 352.408,59.7358 355.5,59C 362.373,51.7954 368.873,44.2954 375,36.5C 379.959,30.5349 385.792,25.7016 392.5,22C 395.167,21.3333 397.833,21.3333 400.5,22C 405.52,23.8464 410.52,25.6797 415.5,27.5C 416.5,27.3333 417.5,27.1667 418.5,27C 420.645,23.6876 423.312,20.8543 426.5,18.5C 426.833,18.6667 427.167,18.8333 427.5,19C 421.417,23.7706 421.084,28.7706 426.5,34C 427.833,34.6667 429.167,34.6667 430.5,34C 433.951,32.7035 437.285,31.2035 440.5,29.5C 440.833,29.6667 441.167,29.8333 441.5,30C 438.806,32.6534 437.973,35.8201 439,39.5C 457.107,51.1409 475.941,61.6409 495.5,71C 519.442,81.3146 543.775,90.648 568.5,99C 574.97,101.806 579.804,106.306 583,112.5C 584.235,133.66 581.569,154.327 575,174.5C 572.07,183.125 569.236,191.791 566.5,200.5C 567.941,206.048 569.941,211.381 572.5,216.5C 572.154,217.696 571.654,217.696 571,216.5C 568.996,211.164 565.663,210.164 561,213.5C 560.399,215.137 559.899,216.803 559.5,218.5C 561.32,223.368 561.82,228.368 561,233.5C 558.847,231.556 556.347,231.056 553.5,232C 540.314,256.575 532.314,282.742 529.5,310.5C 525.859,308.693 523.026,306.026 521,302.5C 512.469,289.1 505.802,274.767 501,259.5C 496.536,243.774 491.869,228.107 487,212.5C 485.556,210.845 483.722,210.178 481.5,210.5 Z"/></g>
<g><path style="opacity:1" fill="#4c4848" d="M 346.5,58.5 C 346.351,59.552 346.517,60.552 347,61.5C 351.564,69.1191 357.397,75.6191 364.5,81C 370.908,84.6136 376.908,84.1136 382.5,79.5C 395.176,87.0035 407.176,95.5035 418.5,105C 431.639,116.305 444.306,128.138 456.5,140.5C 465.948,163.404 474.281,186.737 481.5,210.5C 478.854,212.398 477.52,215.065 477.5,218.5C 479.625,251.271 475.958,283.271 466.5,314.5C 466.19,313.262 465.69,313.262 465,314.5C 454.604,334.896 439.438,350.729 419.5,362C 413.357,364.345 407.024,365.011 400.5,364C 386.79,360.02 372.957,356.52 359,353.5C 353.906,353.288 350.406,355.455 348.5,360C 350.617,376.871 353.117,393.705 356,410.5C 357.023,419.49 357.856,428.49 358.5,437.5C 353.9,428.741 346.9,422.574 337.5,419C 324.368,414.553 310.868,412.719 297,413.5C 285.475,412.609 274.308,414.109 263.5,418C 253.855,421.623 246.522,427.79 241.5,436.5C 241.334,431.489 241.501,426.489 242,421.5C 245.199,400.856 247.865,380.19 250,359.5C 246.88,356.292 243.046,354.959 238.5,355.5C 232.45,356.349 226.45,357.515 220.5,359C 208.414,365.154 195.747,367.154 182.5,365C 170.6,359.112 160.434,350.945 152,340.5C 146.033,332.173 139.866,324.173 133.5,316.5C 123.48,284.847 119.48,252.347 121.5,219C 121.376,215.748 120.042,213.248 117.5,211.5C 123.696,192.079 130.196,172.746 137,153.5C 138.012,150.798 139.512,148.465 141.5,146.5C 160.708,125.459 181.375,105.959 203.5,88C 208.056,84.893 212.723,82.0597 217.5,79.5C 222.678,84.259 228.344,84.759 234.5,81C 242.864,75.1426 249.197,67.6426 253.5,58.5C 257.504,57.7764 261.504,56.9431 265.5,56C 266.333,55.1667 267.167,54.3333 268,53.5C 268.616,50.2424 268.283,47.2424 267,44.5C 271.451,47.2829 275.617,50.4496 279.5,54C 284.855,55.4948 288.189,53.6614 289.5,48.5C 288.538,44.1293 287.038,40.1293 285,36.5C 289.546,41.3774 293.713,46.544 297.5,52C 299.971,52.7063 302.305,52.373 304.5,51C 307.618,46.2139 311.118,41.7139 315,37.5C 313.965,41.4204 312.465,45.2537 310.5,49C 312.915,54.5637 316.915,55.897 322.5,53C 326.052,49.7809 329.885,46.9476 334,44.5C 332.909,47.3275 332.575,50.3275 333,53.5C 336.859,56.7147 341.359,58.3814 346.5,58.5 Z"/></g>
<g><path style="opacity:1" fill="#261e1d" d="M 217.5,79.5 C 212.723,82.0597 208.056,84.893 203.5,88C 181.375,105.959 160.708,125.459 141.5,146.5C 140.427,145.749 140.26,144.749 141,143.5C 145.471,131.754 150.138,120.087 155,108.5C 159.637,97.38 166.137,87.5466 174.5,79C 187.483,67.6369 201.149,66.6369 215.5,76C 216.823,76.8159 217.489,77.9826 217.5,79.5 Z"/></g>
<g><path style="opacity:1" fill="#261e1d" d="M 456.5,140.5 C 444.306,128.138 431.639,116.305 418.5,105C 407.176,95.5035 395.176,87.0035 382.5,79.5C 383.801,76.1521 386.134,73.6521 389.5,72C 406.156,67.3927 419.989,71.8927 431,85.5C 441.634,102.772 450.134,121.105 456.5,140.5 Z"/></g>
<g><path style="opacity:1" fill="#c18c45" d="M 239.5,173.5 C 252.869,173.697 259.036,180.364 258,193.5C 250.754,203.803 241.254,206.637 229.5,202C 224.741,197.509 223.241,192.009 225,185.5C 227.964,179.019 232.797,175.019 239.5,173.5 Z"/></g>
<g><path style="opacity:1" fill="#c18c45" d="M 360.5,173.5 C 375.909,174.366 381.409,182.033 377,196.5C 367.422,206.163 357.422,206.829 347,198.5C 343.025,185.791 347.525,177.457 360.5,173.5 Z"/></g>
<g><path style="opacity:1" fill="#bf8b44" d="M 200.5,212.5 C 224.95,210.798 241.117,221.465 249,244.5C 251.872,268.592 242.038,285.092 219.5,294C 193.856,298.096 176.689,287.929 168,263.5C 164.76,237.275 175.594,220.275 200.5,212.5 Z"/></g>
<g><path style="opacity:1" fill="#bf8b44" d="M 383.5,212.5 C 402.228,211.007 416.728,218.007 427,233.5C 436.717,256.47 431.55,275.303 411.5,290C 391.077,299.602 373.243,296.102 358,279.5C 343.712,256.151 347.212,235.984 368.5,219C 373.367,216.226 378.367,214.059 383.5,212.5 Z"/></g>
<g><path style="opacity:1" fill="#231815" d="M 205.5,224.5 C 219.709,224.354 229.876,230.688 236,243.5C 240.855,266.478 231.689,279.811 208.5,283.5C 185.382,279.867 176.215,266.534 181,243.5C 185.873,232.781 194.039,226.447 205.5,224.5 Z"/></g>
<g><path style="opacity:1" fill="#231815" d="M 387.5,224.5 C 407.357,224.565 418.023,234.399 419.5,254C 418.509,271.992 409.009,281.825 391,283.5C 368.167,280.161 358.833,267.161 363,244.5C 367.506,233.145 375.673,226.478 387.5,224.5 Z"/></g>
<g><path style="opacity:1" fill="#eaeaea" d="M 197.5,236.5 C 204.669,235.513 208.169,238.513 208,245.5C 204.468,251.29 200.135,251.957 195,247.5C 192.826,243.193 193.659,239.526 197.5,236.5 Z"/></g>
<g><path style="opacity:1" fill="#ececec" d="M 380.5,236.5 C 389.85,236.365 392.517,240.532 388.5,249C 379.319,252.325 375.485,249.158 377,239.5C 378.145,238.364 379.312,237.364 380.5,236.5 Z"/></g>
<g><path style="opacity:1" fill="#c28d44" d="M 466.5,314.5 C 460.332,340.843 450.165,365.509 436,388.5C 427.609,399.892 419.609,411.559 412,423.5C 411.333,425.833 411.333,428.167 412,430.5C 417.368,443.306 420.535,456.639 421.5,470.5C 421.236,476.753 419.903,482.753 417.5,488.5C 415.079,484.66 412.912,480.66 411,476.5C 406.939,472.263 403.272,472.597 400,477.5C 399.78,485.86 400.28,494.193 401.5,502.5C 400.988,506.573 400.155,510.573 399,514.5C 391.788,526.376 383.121,537.042 373,546.5C 372.548,543.123 371.882,539.789 371,536.5C 366.594,532.577 362.261,532.577 358,536.5C 357.446,544.23 355.279,551.397 351.5,558C 339.451,566.191 326.451,572.524 312.5,577C 307.175,579.327 302.175,582.16 297.5,585.5C 281.198,577.683 264.864,569.849 248.5,562C 246,559.5 243.5,557 241,554.5C 239.412,548.562 238.079,542.562 237,536.5C 234.078,531.178 230.078,530.178 225,533.5C 223.331,537.346 222.164,541.346 221.5,545.5C 210.756,536.001 201.923,525.001 195,512.5C 194.436,509.845 193.936,507.179 193.5,504.5C 195.13,495.555 195.63,486.555 195,477.5C 192.94,473.045 189.773,471.878 185.5,474C 182.707,478.418 180.041,482.918 177.5,487.5C 173.213,477.835 172.379,467.835 175,457.5C 176.595,447.714 179.595,438.38 184,429.5C 185.124,426.558 185.458,423.558 185,420.5C 177.725,408.893 170.058,397.56 162,386.5C 148.886,364.661 139.386,341.328 133.5,316.5C 139.866,324.173 146.033,332.173 152,340.5C 160.434,350.945 170.6,359.112 182.5,365C 195.747,367.154 208.414,365.154 220.5,359C 226.45,357.515 232.45,356.349 238.5,355.5C 243.046,354.959 246.88,356.292 250,359.5C 247.865,380.19 245.199,400.856 242,421.5C 241.501,426.489 241.334,431.489 241.5,436.5C 236.94,455.653 242.273,471.487 257.5,484C 290.733,508.327 321.567,505.494 350,475.5C 358.818,464.224 361.651,451.557 358.5,437.5C 357.856,428.49 357.023,419.49 356,410.5C 353.117,393.705 350.617,376.871 348.5,360C 350.406,355.455 353.906,353.288 359,353.5C 372.957,356.52 386.79,360.02 400.5,364C 407.024,365.011 413.357,364.345 419.5,362C 439.438,350.729 454.604,334.896 465,314.5C 465.69,313.262 466.19,313.262 466.5,314.5 Z"/></g>
<g><path style="opacity:1" fill="#231815" d="M 358.5,437.5 C 361.651,451.557 358.818,464.224 350,475.5C 321.567,505.494 290.733,508.327 257.5,484C 242.273,471.487 236.94,455.653 241.5,436.5C 246.522,427.79 253.855,421.623 263.5,418C 274.308,414.109 285.475,412.609 297,413.5C 310.868,412.719 324.368,414.553 337.5,419C 346.9,422.574 353.9,428.741 358.5,437.5 Z"/></g>
</svg>
