<?xml version="1.0" encoding="UTF-8"?>
<!DOCTYPE svg PUBLIC "-//W3C//DTD SVG 1.1//EN" "http://www.w3.org/Graphics/SVG/1.1/DTD/svg11.dtd">
<svg xmlns="http://www.w3.org/2000/svg" version="1.1" width="600px" height="600px" style="shape-rendering:geometricPrecision; text-rendering:geometricPrecision; image-rendering:optimizeQuality; fill-rule:evenodd; clip-rule:evenodd" xmlns:xlink="http://www.w3.org/1999/xlink">
<g><path style="opacity:0.952" fill="#000000" d="M 175.5,-0.5 C 185.5,-0.5 195.5,-0.5 205.5,-0.5C 212.353,5.50086 217.52,12.8342 221,21.5C 235.171,58.176 250.171,94.5093 266,130.5C 268.914,131.145 271.914,131.478 275,131.5C 294.402,130.693 313.735,130.36 333,130.5C 349.643,92.9036 365.31,54.9036 380,16.5C 383.568,9.99581 388.068,4.32915 393.5,-0.5C 403.5,-0.5 413.5,-0.5 423.5,-0.5C 436.388,9.93547 445.222,23.2688 450,39.5C 466.364,83.3473 474.197,128.681 473.5,175.5C 472.332,202.836 471.499,230.169 471,257.5C 478.081,304.399 484.414,351.399 490,398.5C 499.32,447.223 488.32,490.556 457,528.5C 425.369,564.569 386.202,588.235 339.5,599.5C 312.833,599.5 286.167,599.5 259.5,599.5C 200.461,584.921 154.961,551.921 123,500.5C 112.502,481.172 107.002,460.505 106.5,438.5C 107.076,422.124 108.243,405.79 110,389.5C 115.44,345.423 121.44,301.423 128,257.5C 128.667,247.5 128.667,237.5 128,227.5C 118.919,155.81 128.585,86.8099 157,20.5C 162.003,12.3393 168.17,5.33934 175.5,-0.5 Z"/></g>
<g><path style="opacity:1" fill="#030201" d="M 189.5,24.5 C 192.725,26.2131 195.559,28.5464 198,31.5C 218.051,60.6979 226.717,93.0312 224,128.5C 222.136,134.631 219.969,140.631 217.5,146.5C 215.5,149.833 213.5,153.167 211.5,156.5C 202.722,170.556 190.055,177.222 173.5,176.5C 172.571,175.685 171.571,174.852 170.5,174C 159.22,174.22 153.887,168.72 154.5,157.5C 155.184,152.099 156.184,146.765 157.5,141.5C 151.997,141.817 148.164,139.484 146,134.5C 144.568,127.769 145.735,121.603 149.5,116C 144.335,109.047 144.168,101.88 149,94.5C 153.3,91.2019 157.3,87.5352 161,83.5C 162.534,69.4913 164.201,55.4913 166,41.5C 167.698,26.9341 175.531,21.2674 189.5,24.5 Z"/></g>
<g><path style="opacity:1" fill="#b57468" d="M 180.5,33.5 C 185.208,33.9426 188.708,36.276 191,40.5C 207.833,65.9967 215.499,93.9967 214,124.5C 210.491,140.362 202.325,153.196 189.5,163C 186.551,164.761 183.384,165.928 180,166.5C 177.075,165.241 174.408,163.574 172,161.5C 169.592,162.536 167.259,162.536 165,161.5C 166.98,149.897 168.814,138.231 170.5,126.5C 165.422,127.539 160.422,128.872 155.5,130.5C 158.189,123.456 161.689,116.79 166,110.5C 166.977,108.26 167.477,105.927 167.5,103.5C 163.5,104.5 159.5,105.5 155.5,106.5C 155.351,105.448 155.517,104.448 156,103.5C 162.076,98.0947 167.409,92.0947 172,85.5C 172.345,70.3394 174.012,55.3394 177,40.5C 178.18,38.1401 179.347,35.8068 180.5,33.5 Z"/></g>
<g><path style="opacity:1" fill="#221a15" d="M 202.5,11.5 C 197.909,15.4248 193.575,19.7581 189.5,24.5C 175.531,21.2674 167.698,26.9341 166,41.5C 164.201,55.4913 162.534,69.4913 161,83.5C 157.3,87.5352 153.3,91.2019 149,94.5C 144.168,101.88 144.335,109.047 149.5,116C 145.735,121.603 144.568,127.769 146,134.5C 148.164,139.484 151.997,141.817 157.5,141.5C 156.184,146.765 155.184,152.099 154.5,157.5C 153.887,168.72 159.22,174.22 170.5,174C 171.571,174.852 172.571,175.685 173.5,176.5C 176.641,177.321 179.975,177.821 183.5,178C 181.833,179 180.167,180 178.5,181C 170.895,182.19 163.229,182.857 155.5,183C 148.907,185.131 142.241,186.965 135.5,188.5C 133.512,135.233 142.346,83.8994 162,34.5C 166.34,23.6132 173.173,14.7799 182.5,8C 190.137,4.09545 196.803,5.26212 202.5,11.5 Z"/></g>
<g><path style="opacity:1" fill="#1f1715" d="M 463.5,183.5 C 450.347,183.264 437.347,181.764 424.5,179C 417.032,178.139 409.699,178.805 402.5,181C 394.5,185.333 386.5,189.667 378.5,194C 368.739,197.326 359.072,196.993 349.5,193C 335.799,185.573 321.132,181.239 305.5,180C 293.295,175.265 280.962,170.932 268.5,167C 258.884,160.385 249.55,153.385 240.5,146C 232.796,144.079 225.129,144.245 217.5,146.5C 219.969,140.631 222.136,134.631 224,128.5C 226.717,93.0312 218.051,60.6979 198,31.5C 195.559,28.5464 192.725,26.2131 189.5,24.5C 193.575,19.7581 197.909,15.4248 202.5,11.5C 205.471,14.7537 207.971,18.4204 210,22.5C 225.528,62.7547 242.028,102.588 259.5,142C 286.194,140.939 312.861,141.439 339.5,143.5C 339.232,141.901 339.566,140.568 340.5,139.5C 340.281,140.675 340.614,141.675 341.5,142.5C 348.128,145.098 354.795,147.598 361.5,150C 368.189,150.609 374.856,150.443 381.5,149.5C 382.921,152.009 384.588,154.343 386.5,156.5C 384.073,156.523 381.74,157.023 379.5,158C 366.22,165.934 352.553,166.6 338.5,160C 326.638,156.774 314.804,156.941 303,160.5C 297.969,159.879 293.136,158.545 288.5,156.5C 287.479,157.002 287.312,157.668 288,158.5C 290.906,161.037 294.073,163.204 297.5,165C 311.071,164.248 324.071,166.581 336.5,172C 345.5,174 354.5,174 363.5,172C 370.945,169.639 378.279,166.972 385.5,164C 387.319,163.26 388.652,162.093 389.5,160.5C 395.293,167.784 402.626,172.951 411.5,176C 417.026,177.171 422.026,176.171 426.5,173C 436.727,173.104 442.061,168.104 442.5,158C 441.819,152.429 440.819,146.929 439.5,141.5C 450.289,140.176 454.122,134.176 451,123.5C 449.753,120.671 448.253,118.005 446.5,115.5C 453.089,108.239 453.089,100.906 446.5,93.5C 442.519,90.6865 439.019,87.3532 436,83.5C 434.526,68.0931 432.526,52.7597 430,37.5C 426.577,25.8737 419.077,21.707 407.5,25C 398.477,33.5734 391.31,43.4068 386,54.5C 376.44,75.4142 371.94,97.4142 372.5,120.5C 371.521,117.375 371.187,114.042 371.5,110.5C 363.17,112.832 355.503,116.499 348.5,121.5C 362.945,87.0118 377.111,52.3451 391,17.5C 400.533,3.18298 411.533,1.84965 424,13.5C 431.543,23.9146 437.543,35.248 442,47.5C 457.646,91.4701 464.813,136.803 463.5,183.5 Z"/></g>
<g><path style="opacity:1" fill="#281d16" d="M 372.5,120.5 C 372.5,121.167 372.5,121.833 372.5,122.5C 364.224,123.081 357.39,126.414 352,132.5C 351.104,135.025 351.604,137.192 353.5,139C 361.475,141.726 368.808,140.559 375.5,135.5C 376.952,140.403 378.952,145.07 381.5,149.5C 374.856,150.443 368.189,150.609 361.5,150C 354.795,147.598 348.128,145.098 341.5,142.5C 340.614,141.675 340.281,140.675 340.5,139.5C 342.637,133.229 345.304,127.229 348.5,121.5C 355.503,116.499 363.17,112.832 371.5,110.5C 371.187,114.042 371.521,117.375 372.5,120.5 Z"/></g>
<g><path style="opacity:1" fill="#030201" d="M 389.5,160.5 C 388.5,159.167 387.5,157.833 386.5,156.5C 384.588,154.343 382.921,152.009 381.5,149.5C 378.952,145.07 376.952,140.403 375.5,135.5C 374.181,131.26 373.181,126.927 372.5,122.5C 372.5,121.833 372.5,121.167 372.5,120.5C 371.94,97.4142 376.44,75.4142 386,54.5C 391.31,43.4068 398.477,33.5734 407.5,25C 419.077,21.707 426.577,25.8737 430,37.5C 432.526,52.7597 434.526,68.0931 436,83.5C 439.019,87.3532 442.519,90.6865 446.5,93.5C 453.089,100.906 453.089,108.239 446.5,115.5C 448.253,118.005 449.753,120.671 451,123.5C 454.122,134.176 450.289,140.176 439.5,141.5C 440.819,146.929 441.819,152.429 442.5,158C 442.061,168.104 436.727,173.104 426.5,173C 422.026,176.171 417.026,177.171 411.5,176C 402.626,172.951 395.293,167.784 389.5,160.5 Z"/></g>
<g><path style="opacity:1" fill="#b57468" d="M 411.5,34.5 C 414.044,34.1043 416.211,34.771 418,36.5C 419.197,39.0891 420.197,41.7558 421,44.5C 423.028,58.8174 424.695,73.1508 426,87.5C 430.664,93.9927 435.831,99.9927 441.5,105.5C 440.833,105.833 440.167,106.167 439.5,106.5C 436.325,104.909 432.991,103.909 429.5,103.5C 430.779,111.059 433.946,117.726 439,123.5C 440.411,125.65 441.245,127.984 441.5,130.5C 436.578,128.872 431.578,127.539 426.5,126.5C 428.33,138.151 429.997,149.818 431.5,161.5C 429.116,161.557 426.782,161.223 424.5,160.5C 422.71,161.786 421.043,163.286 419.5,165C 412.982,165.581 407.315,163.581 402.5,159C 387.278,144.004 380.778,125.837 383,104.5C 386.198,78.4598 395.698,55.1264 411.5,34.5 Z"/></g>
<g><path style="opacity:1" fill="#1e1714" d="M 372.5,122.5 C 373.181,126.927 374.181,131.26 375.5,135.5C 368.808,140.559 361.475,141.726 353.5,139C 351.604,137.192 351.104,135.025 352,132.5C 357.39,126.414 364.224,123.081 372.5,122.5 Z"/></g>
<g><path style="opacity:1" fill="#281d16" d="M 463.5,183.5 C 463.577,187.215 463.244,190.881 462.5,194.5C 435.242,193.407 408.576,196.907 382.5,205C 376.871,206.197 371.204,206.53 365.5,206C 355.2,203.508 344.866,201.175 334.5,199C 322.49,194.327 310.49,189.661 298.5,185C 287.054,183.932 276.388,180.599 266.5,175C 260.5,169 254.5,163 248.5,157C 245.446,154.806 242.112,153.139 238.5,152C 229.452,152.953 220.452,154.453 211.5,156.5C 213.5,153.167 215.5,149.833 217.5,146.5C 225.129,144.245 232.796,144.079 240.5,146C 249.55,153.385 258.884,160.385 268.5,167C 280.962,170.932 293.295,175.265 305.5,180C 321.132,181.239 335.799,185.573 349.5,193C 359.072,196.993 368.739,197.326 378.5,194C 386.5,189.667 394.5,185.333 402.5,181C 409.699,178.805 417.032,178.139 424.5,179C 437.347,181.764 450.347,183.264 463.5,183.5 Z"/></g>
<g><path style="opacity:1" fill="#1e1715" d="M 462.5,194.5 C 462.497,199.527 462.164,204.527 461.5,209.5C 455.824,209.334 450.157,209.501 444.5,210C 432.604,212.578 420.604,214.411 408.5,215.5C 394.103,213.248 379.769,213.415 365.5,216C 352.484,217.553 339.817,216.219 327.5,212C 315.674,205.921 304.007,199.588 292.5,193C 277.421,191.132 262.421,189.132 247.5,187C 250.502,189.503 253.835,191.503 257.5,193C 269.317,194.609 280.984,196.942 292.5,200C 294.996,201.08 297.33,202.414 299.5,204C 322.857,229.338 350.191,234.671 381.5,220C 390.167,219.333 398.833,219.333 407.5,220C 417.238,222.148 427.071,223.648 437,224.5C 445.024,224.14 452.857,222.807 460.5,220.5C 459.926,226.484 459.593,232.484 459.5,238.5C 448.554,236.338 437.554,234.504 426.5,233C 421.167,232.333 415.833,232.333 410.5,233C 417.841,235.42 424.341,239.253 430,244.5C 436.662,255.797 443.329,267.13 450,278.5C 454.282,282.717 459.116,286.05 464.5,288.5C 465.659,296.14 466.659,303.807 467.5,311.5C 449.003,304.344 435.17,292.011 426,274.5C 422.257,266.014 418.257,257.681 414,249.5C 408.971,245.149 403.137,242.316 396.5,241C 378.759,240.991 361.092,240.158 343.5,238.5C 332.571,239.793 322.571,243.627 313.5,250C 301.355,253.434 289.689,257.934 278.5,263.5C 273.76,261.458 269.093,259.458 264.5,257.5C 270.019,251.482 275.685,245.649 281.5,240C 288.918,236.895 296.585,234.561 304.5,233C 300.89,231.056 297.557,228.723 294.5,226C 271.18,197.782 241.847,188.449 206.5,198C 203.167,198.167 199.833,198.333 196.5,198.5C 180.547,196.673 164.547,195.339 148.5,194.5C 145.167,194.667 141.833,194.833 138.5,195C 137.244,195.417 136.577,196.25 136.5,197.5C 135.523,194.713 135.19,191.713 135.5,188.5C 142.241,186.965 148.907,185.131 155.5,183C 163.229,182.857 170.895,182.19 178.5,181C 180.167,180 181.833,179 183.5,178C 179.975,177.821 176.641,177.321 173.5,176.5C 190.055,177.222 202.722,170.556 211.5,156.5C 220.452,154.453 229.452,152.953 238.5,152C 242.112,153.139 245.446,154.806 248.5,157C 254.5,163 260.5,169 266.5,175C 276.388,180.599 287.054,183.932 298.5,185C 310.49,189.661 322.49,194.327 334.5,199C 344.866,201.175 355.2,203.508 365.5,206C 371.204,206.53 376.871,206.197 382.5,205C 408.576,196.907 435.242,193.407 462.5,194.5 Z"/></g>
<g><path style="opacity:1" fill="#281d16" d="M 386.5,156.5 C 387.5,157.833 388.5,159.167 389.5,160.5C 388.652,162.093 387.319,163.26 385.5,164C 378.279,166.972 370.945,169.639 363.5,172C 354.5,174 345.5,174 336.5,172C 324.071,166.581 311.071,164.248 297.5,165C 294.073,163.204 290.906,161.037 288,158.5C 287.312,157.668 287.479,157.002 288.5,156.5C 293.136,158.545 297.969,159.879 303,160.5C 314.804,156.941 326.638,156.774 338.5,160C 352.553,166.6 366.22,165.934 379.5,158C 381.74,157.023 384.073,156.523 386.5,156.5 Z"/></g>
<g><path style="opacity:1" fill="#281d16" d="M 461.5,209.5 C 461.756,213.269 461.423,216.936 460.5,220.5C 452.857,222.807 445.024,224.14 437,224.5C 427.071,223.648 417.238,222.148 407.5,220C 398.833,219.333 390.167,219.333 381.5,220C 350.191,234.671 322.857,229.338 299.5,204C 297.33,202.414 294.996,201.08 292.5,200C 280.984,196.942 269.317,194.609 257.5,193C 253.835,191.503 250.502,189.503 247.5,187C 262.421,189.132 277.421,191.132 292.5,193C 304.007,199.588 315.674,205.921 327.5,212C 339.817,216.219 352.484,217.553 365.5,216C 379.769,213.415 394.103,213.248 408.5,215.5C 420.604,214.411 432.604,212.578 444.5,210C 450.157,209.501 455.824,209.334 461.5,209.5 Z"/></g>
<g><path style="opacity:1" fill="#281d16" d="M 264.5,257.5 C 261.5,256.833 258.5,256.167 255.5,255.5C 263.922,244.471 274.589,236.637 287.5,232C 278.247,225.418 269.58,218.084 261.5,210C 256.503,206.166 251.17,202.833 245.5,200C 241.239,198.637 236.905,198.304 232.5,199C 222.611,202.445 212.444,204.611 202,205.5C 187.2,203.855 172.367,203.355 157.5,204C 149.978,204.931 143.311,207.764 137.5,212.5C 136.555,207.595 136.221,202.595 136.5,197.5C 136.577,196.25 137.244,195.417 138.5,195C 141.833,194.833 145.167,194.667 148.5,194.5C 164.547,195.339 180.547,196.673 196.5,198.5C 199.833,198.333 203.167,198.167 206.5,198C 241.847,188.449 271.18,197.782 294.5,226C 297.557,228.723 300.89,231.056 304.5,233C 296.585,234.561 288.918,236.895 281.5,240C 275.685,245.649 270.019,251.482 264.5,257.5 Z"/></g>
<g><path style="opacity:1" fill="#1e1715" d="M 255.5,255.5 C 250.87,254.771 246.203,254.437 241.5,254.5C 245.601,251.578 249.601,248.411 253.5,245C 256.798,240.7 260.465,236.7 264.5,233C 262.167,232.667 259.833,232.333 257.5,232C 249.153,227.331 240.153,225.331 230.5,226C 217.913,222.149 205.08,219.316 192,217.5C 184.823,218.769 177.657,220.102 170.5,221.5C 163.248,219.801 155.915,219.301 148.5,220C 144.626,221.431 141.293,223.597 138.5,226.5C 138.46,221.807 138.127,217.141 137.5,212.5C 143.311,207.764 149.978,204.931 157.5,204C 172.367,203.355 187.2,203.855 202,205.5C 212.444,204.611 222.611,202.445 232.5,199C 236.905,198.304 241.239,198.637 245.5,200C 251.17,202.833 256.503,206.166 261.5,210C 269.58,218.084 278.247,225.418 287.5,232C 274.589,236.637 263.922,244.471 255.5,255.5 Z"/></g>
<g><path style="opacity:1" fill="#281d16" d="M 241.5,254.5 C 235.783,254.793 230.116,255.46 224.5,256.5C 234.54,249.966 243.54,242.133 251.5,233C 244.5,232.667 237.5,232.333 230.5,232C 222.781,228.195 214.614,226.362 206,226.5C 195.116,227.762 184.283,229.428 173.5,231.5C 166.924,229.887 160.257,229.387 153.5,230C 150.073,231.76 146.406,232.926 142.5,233.5C 141.479,234.901 140.479,236.235 139.5,237.5C 139.058,233.846 138.724,230.179 138.5,226.5C 141.293,223.597 144.626,221.431 148.5,220C 155.915,219.301 163.248,219.801 170.5,221.5C 177.657,220.102 184.823,218.769 192,217.5C 205.08,219.316 217.913,222.149 230.5,226C 240.153,225.331 249.153,227.331 257.5,232C 259.833,232.333 262.167,232.667 264.5,233C 260.465,236.7 256.798,240.7 253.5,245C 249.601,248.411 245.601,251.578 241.5,254.5 Z"/></g>
<g><path style="opacity:1" fill="#1e1715" d="M 224.5,256.5 C 210.867,259.653 198.2,264.987 186.5,272.5C 189.579,266.696 193.412,261.363 198,256.5C 201.44,249.955 204.606,243.288 207.5,236.5C 207.167,236.167 206.833,235.833 206.5,235.5C 198.414,239.439 190.247,243.105 182,246.5C 179.176,245.946 176.343,245.446 173.5,245C 169.568,242.865 165.568,241.032 161.5,239.5C 141.037,246.784 141.704,249.617 163.5,248C 170.385,251.178 177.219,254.345 184,257.5C 184.667,258.833 184.667,260.167 184,261.5C 181.326,266.522 179.492,271.855 178.5,277.5C 170.421,283.914 163.755,291.58 158.5,300.5C 149.774,302.874 141.107,302.874 132.5,300.5C 136.231,279.652 138.564,258.652 139.5,237.5C 140.479,236.235 141.479,234.901 142.5,233.5C 146.406,232.926 150.073,231.76 153.5,230C 160.257,229.387 166.924,229.887 173.5,231.5C 184.283,229.428 195.116,227.762 206,226.5C 214.614,226.362 222.781,228.195 230.5,232C 237.5,232.333 244.5,232.667 251.5,233C 243.54,242.133 234.54,249.966 224.5,256.5 Z"/></g>
<g><path style="opacity:1" fill="#281d16" d="M 459.5,238.5 C 459.625,255.33 461.291,271.996 464.5,288.5C 459.116,286.05 454.282,282.717 450,278.5C 443.329,267.13 436.662,255.797 430,244.5C 424.341,239.253 417.841,235.42 410.5,233C 415.833,232.333 421.167,232.333 426.5,233C 437.554,234.504 448.554,236.338 459.5,238.5 Z"/></g>
<g><path style="opacity:1" fill="#281d16" d="M 186.5,272.5 C 183.816,274.193 181.149,275.86 178.5,277.5C 179.492,271.855 181.326,266.522 184,261.5C 184.667,260.167 184.667,258.833 184,257.5C 177.219,254.345 170.385,251.178 163.5,248C 141.704,249.617 141.037,246.784 161.5,239.5C 165.568,241.032 169.568,242.865 173.5,245C 176.343,245.446 179.176,245.946 182,246.5C 190.247,243.105 198.414,239.439 206.5,235.5C 206.833,235.833 207.167,236.167 207.5,236.5C 204.606,243.288 201.44,249.955 198,256.5C 193.412,261.363 189.579,266.696 186.5,272.5 Z"/></g>
<g><path style="opacity:1" fill="#271c16" d="M 467.5,311.5 C 470.094,321.985 471.76,332.651 472.5,343.5C 458.774,342.213 445.44,339.213 432.5,334.5C 438.839,331.661 443.339,326.994 446,320.5C 446.667,316.5 446.667,312.5 446,308.5C 439.89,294.896 430.724,283.896 418.5,275.5C 413.979,265.817 406.646,258.984 396.5,255C 383.205,251.146 369.705,248.312 356,246.5C 343.343,248.904 330.843,252.07 318.5,256C 308.144,261.51 297.811,267.01 287.5,272.5C 284.833,269.167 281.833,266.167 278.5,263.5C 289.689,257.934 301.355,253.434 313.5,250C 322.571,243.627 332.571,239.793 343.5,238.5C 361.092,240.158 378.759,240.991 396.5,241C 403.137,242.316 408.971,245.149 414,249.5C 418.257,257.681 422.257,266.014 426,274.5C 435.17,292.011 449.003,304.344 467.5,311.5 Z"/></g>
<g><path style="opacity:1" fill="#1e1715" d="M 418.5,275.5 C 396.136,259.335 371.136,252.502 343.5,255C 332.508,257.543 323.008,262.709 315,270.5C 310.098,279.367 306.265,288.701 303.5,298.5C 300.135,301.437 297.635,300.77 296,296.5C 293.853,288.223 291.019,280.223 287.5,272.5C 297.811,267.01 308.144,261.51 318.5,256C 330.843,252.07 343.343,248.904 356,246.5C 369.705,248.312 383.205,251.146 396.5,255C 406.646,258.984 413.979,265.817 418.5,275.5 Z"/></g>
<g><path style="opacity:1" fill="#2f2422" d="M 241.5,254.5 C 246.203,254.437 250.87,254.771 255.5,255.5C 258.5,256.167 261.5,256.833 264.5,257.5C 269.093,259.458 273.76,261.458 278.5,263.5C 281.833,266.167 284.833,269.167 287.5,272.5C 291.019,280.223 293.853,288.223 296,296.5C 297.635,300.77 300.135,301.437 303.5,298.5C 306.265,288.701 310.098,279.367 315,270.5C 323.008,262.709 332.508,257.543 343.5,255C 371.136,252.502 396.136,259.335 418.5,275.5C 430.724,283.896 439.89,294.896 446,308.5C 446.667,312.5 446.667,316.5 446,320.5C 443.339,326.994 438.839,331.661 432.5,334.5C 429.574,335.698 426.574,336.698 423.5,337.5C 416.783,339.036 410.45,341.369 404.5,344.5C 398.974,346.702 394.308,350.035 390.5,354.5C 386.246,358.662 383.246,363.662 381.5,369.5C 378.599,381.024 376.266,392.691 374.5,404.5C 373.656,407.345 372.99,410.345 372.5,413.5C 371.059,421.815 369.725,430.148 368.5,438.5C 367.137,442.632 366.137,446.965 365.5,451.5C 363.5,462.165 361.5,472.832 359.5,483.5C 357.893,491.218 355.06,498.552 351,505.5C 346.745,509.264 341.912,511.931 336.5,513.5C 313.551,518.421 290.551,518.755 267.5,514.5C 264.032,513.899 260.699,512.899 257.5,511.5C 248.193,505.531 243.026,496.864 242,485.5C 240.64,483.895 239.14,482.395 237.5,481C 240.472,478.031 240.805,474.531 238.5,470.5C 238.149,467.097 237.482,463.763 236.5,460.5C 235.506,454.512 234.506,448.512 233.5,442.5C 229.429,443.184 225.429,444.184 221.5,445.5C 221.167,445 220.833,444.5 220.5,444C 224.056,439.619 227.723,435.452 231.5,431.5C 229.914,423.016 228.248,414.683 226.5,406.5C 225.782,400.989 224.782,395.656 223.5,390.5C 223.082,383.855 221.749,377.521 219.5,371.5C 218.607,367.387 216.94,363.72 214.5,360.5C 210.407,352.605 204.073,347.271 195.5,344.5C 191.99,342.656 188.323,340.989 184.5,339.5C 180.686,338.964 177.019,337.964 173.5,336.5C 169.684,335.091 166.017,333.424 162.5,331.5C 155.668,326.181 152.835,319.181 154,310.5C 154.45,308.481 155.283,306.648 156.5,305C 153.014,306.218 149.347,307.218 145.5,308C 140.845,308.499 136.179,308.666 131.5,308.5C 131.401,305.763 131.735,303.096 132.5,300.5C 141.107,302.874 149.774,302.874 158.5,300.5C 163.755,291.58 170.421,283.914 178.5,277.5C 181.149,275.86 183.816,274.193 186.5,272.5C 198.2,264.987 210.867,259.653 224.5,256.5C 230.116,255.46 235.783,254.793 241.5,254.5 Z"/></g>
<g><path style="opacity:1" fill="#3c3c3b" d="M 230.5,280.5 C 247.741,278.698 258.908,286.031 264,302.5C 265.908,318.851 259.075,329.684 243.5,335C 219.197,336.363 208.031,324.863 210,300.5C 213.542,290.338 220.375,283.671 230.5,280.5 Z"/></g>
<g><path style="opacity:1" fill="#3c3b3b" d="M 357.5,280.5 C 377.615,279.288 388.948,288.622 391.5,308.5C 387.785,330.198 375.118,338.698 353.5,334C 339.94,327.381 334.44,316.548 337,301.5C 338.922,294.592 342.755,289.092 348.5,285C 351.592,283.454 354.592,281.954 357.5,280.5 Z"/></g>
<g><path style="opacity:1" fill="#020202" d="M 232.5,290.5 C 247.195,290.029 254.361,297.029 254,311.5C 248.613,324.944 239.447,328.444 226.5,322C 218.826,314.778 217.66,306.611 223,297.5C 225.79,294.535 228.957,292.202 232.5,290.5 Z"/></g>
<g><path style="opacity:1" fill="#010101" d="M 359.5,290.5 C 375.886,290.384 382.719,298.384 380,314.5C 375.735,322.883 368.901,326.383 359.5,325C 347.987,320.461 344.154,312.295 348,300.5C 350.794,295.866 354.627,292.533 359.5,290.5 Z"/></g>
<g><path style="opacity:1" fill="#f1f1f1" d="M 242.5,296.5 C 248.82,296.32 251.32,299.32 250,305.5C 246.667,309.5 243.333,309.5 240,305.5C 238.927,301.9 239.76,298.9 242.5,296.5 Z"/></g>
<g><path style="opacity:1" fill="#ebebeb" d="M 368.5,296.5 C 374.806,295.707 377.639,298.374 377,304.5C 373.693,309.298 370.026,309.631 366,305.5C 364.927,301.9 365.76,298.9 368.5,296.5 Z"/></g>
<g><path style="opacity:1" fill="#1e1715" d="M 162.5,331.5 C 159.203,334.296 156.036,337.296 153,340.5C 147.668,353.155 142.335,365.821 137,378.5C 132.957,384.381 127.457,388.047 120.5,389.5C 123.328,362.371 126.995,335.371 131.5,308.5C 136.179,308.666 140.845,308.499 145.5,308C 149.347,307.218 153.014,306.218 156.5,305C 155.283,306.648 154.45,308.481 154,310.5C 152.835,319.181 155.668,326.181 162.5,331.5 Z"/></g>
<g><path style="opacity:1" fill="#281d16" d="M 162.5,331.5 C 166.017,333.424 169.684,335.091 173.5,336.5C 164.956,340.873 158.122,347.207 153,355.5C 149.975,365.577 145.975,375.244 141,384.5C 137.833,387.667 134.667,390.833 131.5,394C 128.072,395.94 124.406,397.106 120.5,397.5C 120.5,395.833 120.5,394.167 120.5,392.5C 120.5,391.5 120.5,390.5 120.5,389.5C 127.457,388.047 132.957,384.381 137,378.5C 142.335,365.821 147.668,353.155 153,340.5C 156.036,337.296 159.203,334.296 162.5,331.5 Z"/></g>
<g><path style="opacity:1" fill="#1d1413" d="M 432.5,334.5 C 445.44,339.213 458.774,342.213 472.5,343.5C 473.299,346.43 473.632,349.43 473.5,352.5C 461.748,353.669 450.414,352.169 439.5,348C 435.326,345.412 430.993,343.079 426.5,341C 424.937,340.241 423.937,339.074 423.5,337.5C 426.574,336.698 429.574,335.698 432.5,334.5 Z"/></g>
<g><path style="opacity:1" fill="#1e1714" d="M 173.5,336.5 C 177.019,337.964 180.686,338.964 184.5,339.5C 179.904,342.261 176.07,345.927 173,350.5C 169.201,359.232 166.201,368.232 164,377.5C 162.527,381.779 160.527,385.779 158,389.5C 146.965,400.867 136.298,412.534 126,424.5C 123.371,426.888 120.538,428.888 117.5,430.5C 117.977,417.644 118.977,404.977 120.5,392.5C 120.5,394.167 120.5,395.833 120.5,397.5C 124.406,397.106 128.072,395.94 131.5,394C 134.667,390.833 137.833,387.667 141,384.5C 145.975,375.244 149.975,365.577 153,355.5C 158.122,347.207 164.956,340.873 173.5,336.5 Z"/></g>
<g><path style="opacity:1" fill="#241914" d="M 423.5,337.5 C 423.937,339.074 424.937,340.241 426.5,341C 430.993,343.079 435.326,345.412 439.5,348C 450.414,352.169 461.748,353.669 473.5,352.5C 474.563,356.639 475.23,360.972 475.5,365.5C 471.763,363.395 467.763,361.895 463.5,361C 443.631,360.784 425.298,355.451 408.5,345C 407.207,344.51 405.873,344.343 404.5,344.5C 410.45,341.369 416.783,339.036 423.5,337.5 Z"/></g>
<g><path style="opacity:1" fill="#281d16" d="M 184.5,339.5 C 188.323,340.989 191.99,342.656 195.5,344.5C 189.712,346.772 184.879,350.439 181,355.5C 174.883,366.851 170.549,378.851 168,391.5C 163.089,399.747 156.755,406.747 149,412.5C 144.544,418.625 139.711,424.458 134.5,430C 129.047,433.062 123.38,435.562 117.5,437.5C 117.5,435.167 117.5,432.833 117.5,430.5C 120.538,428.888 123.371,426.888 126,424.5C 136.298,412.534 146.965,400.867 158,389.5C 160.527,385.779 162.527,381.779 164,377.5C 166.201,368.232 169.201,359.232 173,350.5C 176.07,345.927 179.904,342.261 184.5,339.5 Z"/></g>
<g><path style="opacity:1" fill="#1d1413" d="M 404.5,344.5 C 405.873,344.343 407.207,344.51 408.5,345C 425.298,355.451 443.631,360.784 463.5,361C 467.763,361.895 471.763,363.395 475.5,365.5C 476.778,373.116 477.778,380.783 478.5,388.5C 473.473,381.317 466.807,376.15 458.5,373C 438.736,368.745 419.402,363.078 400.5,356C 397.207,355.174 393.874,354.674 390.5,354.5C 394.308,350.035 398.974,346.702 404.5,344.5 Z"/></g>
<g><path style="opacity:1" fill="#1e1715" d="M 195.5,344.5 C 204.073,347.271 210.407,352.605 214.5,360.5C 205.226,365.728 196.726,372.061 189,379.5C 186.442,382.822 184.442,386.489 183,390.5C 180.955,398.401 178.289,406.068 175,413.5C 171.333,417.167 167.667,420.833 164,424.5C 163.517,425.448 163.351,426.448 163.5,427.5C 171.011,426.661 177.178,423.328 182,417.5C 185.384,408.396 189.051,399.396 193,390.5C 201.246,383.299 210.079,376.965 219.5,371.5C 221.749,377.521 223.082,383.855 223.5,390.5C 211.063,405.108 199.563,420.441 189,436.5C 180.472,447.515 169.305,454.015 155.5,456C 143.833,456.333 132.167,456.667 120.5,457C 119.748,457.671 119.414,458.504 119.5,459.5C 118.072,452.38 117.406,445.047 117.5,437.5C 123.38,435.562 129.047,433.062 134.5,430C 139.711,424.458 144.544,418.625 149,412.5C 156.755,406.747 163.089,399.747 168,391.5C 170.549,378.851 174.883,366.851 181,355.5C 184.879,350.439 189.712,346.772 195.5,344.5 Z"/></g>
<g><path style="opacity:1" fill="#241914" d="M 390.5,354.5 C 393.874,354.674 397.207,355.174 400.5,356C 419.402,363.078 438.736,368.745 458.5,373C 466.807,376.15 473.473,381.317 478.5,388.5C 479.134,394.145 479.468,399.811 479.5,405.5C 466.717,398.521 454.717,389.687 443.5,379C 440.833,377.667 438.167,376.333 435.5,375C 422.556,373.744 409.556,373.077 396.5,373C 391.327,372.404 386.327,371.237 381.5,369.5C 383.246,363.662 386.246,358.662 390.5,354.5 Z"/></g>
<g><path style="opacity:1" fill="#281d16" d="M 214.5,360.5 C 216.94,363.72 218.607,367.387 219.5,371.5C 210.079,376.965 201.246,383.299 193,390.5C 189.051,399.396 185.384,408.396 182,417.5C 177.178,423.328 171.011,426.661 163.5,427.5C 163.351,426.448 163.517,425.448 164,424.5C 167.667,420.833 171.333,417.167 175,413.5C 178.289,406.068 180.955,398.401 183,390.5C 184.442,386.489 186.442,382.822 189,379.5C 196.726,372.061 205.226,365.728 214.5,360.5 Z"/></g>
<g><path style="opacity:1" fill="#1d1413" d="M 381.5,369.5 C 386.327,371.237 391.327,372.404 396.5,373C 409.556,373.077 422.556,373.744 435.5,375C 438.167,376.333 440.833,377.667 443.5,379C 454.717,389.687 466.717,398.521 479.5,405.5C 480.461,407.265 480.795,409.265 480.5,411.5C 477.168,414 474.334,417 472,420.5C 468.907,427.023 465.573,433.356 462,439.5C 456.539,447.482 449.039,452.315 439.5,454C 431.626,454.743 423.959,456.41 416.5,459C 406.003,464.748 395.67,470.748 385.5,477C 379.695,478.986 373.695,479.986 367.5,480C 364.69,480.906 362.024,482.073 359.5,483.5C 361.5,472.832 363.5,462.165 365.5,451.5C 370.08,451.887 374.414,451.053 378.5,449C 383.377,444.613 388.044,439.946 392.5,435C 399.11,431.2 406.276,429.366 414,429.5C 422.249,430.383 430.415,431.717 438.5,433.5C 451.957,432.047 461.957,425.381 468.5,413.5C 468.167,413.167 467.833,412.833 467.5,412.5C 462.362,415.805 457.362,419.305 452.5,423C 446.83,425.934 440.83,426.934 434.5,426C 426.812,424.796 419.145,423.462 411.5,422C 396.653,418.614 384.653,422.948 375.5,435C 373.333,436.5 371.167,438 369,439.5C 368.601,439.272 368.435,438.938 368.5,438.5C 369.725,430.148 371.059,421.815 372.5,413.5C 379.247,411.305 385.914,408.805 392.5,406C 396.772,404.846 401.106,404.012 405.5,403.5C 416.415,407.082 427.415,410.582 438.5,414C 442.833,414.667 447.167,414.667 451.5,414C 453.869,413.464 455.869,412.297 457.5,410.5C 452.248,409.194 446.914,408.361 441.5,408C 433.388,403.559 425.055,399.559 416.5,396C 411.167,395.333 405.833,395.333 400.5,396C 391.71,398.541 383.044,401.374 374.5,404.5C 376.266,392.691 378.599,381.024 381.5,369.5 Z"/></g>
<g><path style="opacity:1" fill="#271d16" d="M 223.5,390.5 C 224.782,395.656 225.782,400.989 226.5,406.5C 224.678,409.472 222.844,412.472 221,415.5C 215.333,420.167 209.667,424.833 204,429.5C 198.255,439.146 191.422,447.98 183.5,456C 180.167,458 176.833,460 173.5,462C 166.5,469.667 159.5,477.333 152.5,485C 146.353,489.79 139.353,492.29 131.5,492.5C 125.542,482.301 121.542,471.301 119.5,459.5C 119.414,458.504 119.748,457.671 120.5,457C 132.167,456.667 143.833,456.333 155.5,456C 169.305,454.015 180.472,447.515 189,436.5C 199.563,420.441 211.063,405.108 223.5,390.5 Z"/></g>
<g><path style="opacity:1" fill="#241914" d="M 372.5,413.5 C 372.99,410.345 373.656,407.345 374.5,404.5C 383.044,401.374 391.71,398.541 400.5,396C 405.833,395.333 411.167,395.333 416.5,396C 425.055,399.559 433.388,403.559 441.5,408C 446.914,408.361 452.248,409.194 457.5,410.5C 455.869,412.297 453.869,413.464 451.5,414C 447.167,414.667 442.833,414.667 438.5,414C 427.415,410.582 416.415,407.082 405.5,403.5C 401.106,404.012 396.772,404.846 392.5,406C 385.914,408.805 379.247,411.305 372.5,413.5 Z"/></g>
<g><path style="opacity:1" fill="#1e1715" d="M 226.5,406.5 C 228.248,414.683 229.914,423.016 231.5,431.5C 227.723,435.452 224.056,439.619 220.5,444C 220.833,444.5 221.167,445 221.5,445.5C 225.429,444.184 229.429,443.184 233.5,442.5C 234.506,448.512 235.506,454.512 236.5,460.5C 233.862,462.824 230.862,464.657 227.5,466C 218.857,467.18 210.19,468.18 201.5,469C 197.991,469.422 194.657,470.422 191.5,472C 183.5,478.667 175.5,485.333 167.5,492C 157.493,496.153 147.493,499.987 137.5,503.5C 134.742,500.322 132.742,496.655 131.5,492.5C 139.353,492.29 146.353,489.79 152.5,485C 159.5,477.333 166.5,469.667 173.5,462C 176.833,460 180.167,458 183.5,456C 191.422,447.98 198.255,439.146 204,429.5C 209.667,424.833 215.333,420.167 221,415.5C 222.844,412.472 224.678,409.472 226.5,406.5 Z"/></g>
<g><path style="opacity:1" fill="#241914" d="M 480.5,411.5 C 481.089,418.485 481.422,425.485 481.5,432.5C 478.522,436.443 476.022,440.777 474,445.5C 471.257,447.788 468.423,449.955 465.5,452C 455.911,455.251 446.244,458.251 436.5,461C 422.637,468.761 408.97,476.761 395.5,485C 388.293,487.424 380.96,489.424 373.5,491C 364.947,496.547 357.28,503.214 350.5,511C 346.357,514.241 341.69,516.074 336.5,516.5C 336.5,515.5 336.5,514.5 336.5,513.5C 341.912,511.931 346.745,509.264 351,505.5C 355.06,498.552 357.893,491.218 359.5,483.5C 362.024,482.073 364.69,480.906 367.5,480C 373.695,479.986 379.695,478.986 385.5,477C 395.67,470.748 406.003,464.748 416.5,459C 423.959,456.41 431.626,454.743 439.5,454C 449.039,452.315 456.539,447.482 462,439.5C 465.573,433.356 468.907,427.023 472,420.5C 474.334,417 477.168,414 480.5,411.5 Z"/></g>
<g><path style="opacity:1" fill="#241914" d="M 365.5,451.5 C 366.137,446.965 367.137,442.632 368.5,438.5C 368.435,438.938 368.601,439.272 369,439.5C 371.167,438 373.333,436.5 375.5,435C 384.653,422.948 396.653,418.614 411.5,422C 419.145,423.462 426.812,424.796 434.5,426C 440.83,426.934 446.83,425.934 452.5,423C 457.362,419.305 462.362,415.805 467.5,412.5C 467.833,412.833 468.167,413.167 468.5,413.5C 461.957,425.381 451.957,432.047 438.5,433.5C 430.415,431.717 422.249,430.383 414,429.5C 406.276,429.366 399.11,431.2 392.5,435C 388.044,439.946 383.377,444.613 378.5,449C 374.414,451.053 370.08,451.887 365.5,451.5 Z"/></g>
<g><path style="opacity:1" fill="#1d1413" d="M 481.5,432.5 C 481.74,440.875 481.407,449.208 480.5,457.5C 474.808,458.231 469.475,460.064 464.5,463C 458.389,469.9 452.055,476.567 445.5,483C 437.047,486.595 428.381,489.595 419.5,492C 416.339,493.413 413.339,495.08 410.5,497C 422.557,496.712 434.224,494.379 445.5,490C 451.833,485 458.167,480 464.5,475C 468.468,472.289 472.802,470.456 477.5,469.5C 473.877,481.733 468.544,493.067 461.5,503.5C 458.424,504.517 455.091,506.017 451.5,508C 439.575,508.447 428.575,511.78 418.5,518C 411.291,519.863 403.957,520.863 396.5,521C 389.094,523.135 381.761,525.469 374.5,528C 366.876,529.096 359.209,529.762 351.5,530C 345.811,531.347 340.477,533.513 335.5,536.5C 336.139,529.852 336.473,523.186 336.5,516.5C 341.69,516.074 346.357,514.241 350.5,511C 357.28,503.214 364.947,496.547 373.5,491C 380.96,489.424 388.293,487.424 395.5,485C 408.97,476.761 422.637,468.761 436.5,461C 446.244,458.251 455.911,455.251 465.5,452C 468.423,449.955 471.257,447.788 474,445.5C 476.022,440.777 478.522,436.443 481.5,432.5 Z"/></g>
<g><path style="opacity:1" fill="#030101" d="M 290.5,449.5 C 303.328,448.255 315.662,450.088 327.5,455C 339.67,462.564 342.837,473.064 337,486.5C 329.617,498.113 319.117,505.113 305.5,507.5C 305.274,510.249 305.607,512.916 306.5,515.5C 302.878,516.659 299.211,516.825 295.5,516C 296.435,513.619 296.768,511.119 296.5,508.5C 281.323,506.125 269.823,498.458 262,485.5C 256.587,470.066 261.42,459.233 276.5,453C 281.341,452.005 286.008,450.838 290.5,449.5 Z"/></g>
<g><path style="opacity:1" fill="#241914" d="M 480.5,457.5 C 479.503,461.479 478.503,465.479 477.5,469.5C 472.802,470.456 468.468,472.289 464.5,475C 458.167,480 451.833,485 445.5,490C 434.224,494.379 422.557,496.712 410.5,497C 413.339,495.08 416.339,493.413 419.5,492C 428.381,489.595 437.047,486.595 445.5,483C 452.055,476.567 458.389,469.9 464.5,463C 469.475,460.064 474.808,458.231 480.5,457.5 Z"/></g>
<g><path style="opacity:1" fill="#281d16" d="M 236.5,460.5 C 237.482,463.763 238.149,467.097 238.5,470.5C 236.641,471.594 234.641,472.427 232.5,473C 219.201,472.566 207.535,476.566 197.5,485C 188.237,498.795 175.237,504.795 158.5,503C 152.4,504.224 146.4,505.724 140.5,507.5C 139.026,506.564 138.026,505.23 137.5,503.5C 147.493,499.987 157.493,496.153 167.5,492C 175.5,485.333 183.5,478.667 191.5,472C 194.657,470.422 197.991,469.422 201.5,469C 210.19,468.18 218.857,467.18 227.5,466C 230.862,464.657 233.862,462.824 236.5,460.5 Z"/></g>
<g><path style="opacity:1" fill="#1e1715" d="M 238.5,470.5 C 240.805,474.531 240.472,478.031 237.5,481C 239.14,482.395 240.64,483.895 242,485.5C 243.026,496.864 248.193,505.531 257.5,511.5C 245.353,511.237 233.687,508.737 222.5,504C 208.243,501.762 195.243,504.762 183.5,513C 176.68,518.576 169.68,523.909 162.5,529C 161.177,529.816 160.511,530.983 160.5,532.5C 152.634,525.088 145.968,516.755 140.5,507.5C 146.4,505.724 152.4,504.224 158.5,503C 175.237,504.795 188.237,498.795 197.5,485C 207.535,476.566 219.201,472.566 232.5,473C 234.641,472.427 236.641,471.594 238.5,470.5 Z"/></g>
<g><path style="opacity:1" fill="#281d16" d="M 257.5,511.5 C 260.699,512.899 264.032,513.899 267.5,514.5C 267.5,517.833 267.5,521.167 267.5,524.5C 262.294,518.665 255.627,515.499 247.5,515C 221.703,509.56 198.036,514.226 176.5,529C 173.296,532.036 170.296,535.203 167.5,538.5C 165.167,536.5 162.833,534.5 160.5,532.5C 160.511,530.983 161.177,529.816 162.5,529C 169.68,523.909 176.68,518.576 183.5,513C 195.243,504.762 208.243,501.762 222.5,504C 233.687,508.737 245.353,511.237 257.5,511.5 Z"/></g>
<g><path style="opacity:1" fill="#241914" d="M 461.5,503.5 C 457.853,509.14 453.853,514.473 449.5,519.5C 444.156,519.334 438.823,519.501 433.5,520C 422.144,524.121 410.811,528.454 399.5,533C 386.053,534.283 372.72,536.283 359.5,539C 349.962,544.026 340.295,548.859 330.5,553.5C 332.555,547.852 334.221,542.185 335.5,536.5C 340.477,533.513 345.811,531.347 351.5,530C 359.209,529.762 366.876,529.096 374.5,528C 381.761,525.469 389.094,523.135 396.5,521C 403.957,520.863 411.291,519.863 418.5,518C 428.575,511.78 439.575,508.447 451.5,508C 455.091,506.017 458.424,504.517 461.5,503.5 Z"/></g>
<g><path style="opacity:1" fill="#1e1715" d="M 267.5,524.5 C 268.219,535.094 270.219,545.427 273.5,555.5C 269.599,548.219 264.599,541.719 258.5,536C 254.536,534.157 250.37,533.323 246,533.5C 226.984,533.882 208.484,537.049 190.5,543C 186.44,544.689 182.773,546.856 179.5,549.5C 174.874,546.542 170.874,542.876 167.5,538.5C 170.296,535.203 173.296,532.036 176.5,529C 198.036,514.226 221.703,509.56 247.5,515C 255.627,515.499 262.294,518.665 267.5,524.5 Z"/></g>
<g><path style="opacity:1" fill="#f59e8f" d="M 336.5,513.5 C 336.5,514.5 336.5,515.5 336.5,516.5C 336.473,523.186 336.139,529.852 335.5,536.5C 334.221,542.185 332.555,547.852 330.5,553.5C 329.105,557.29 327.438,560.957 325.5,564.5C 321.599,569.12 316.932,572.787 311.5,575.5C 305.167,576.833 298.833,576.833 292.5,575.5C 288.297,573.472 284.464,570.805 281,567.5C 278.225,563.604 275.725,559.604 273.5,555.5C 270.219,545.427 268.219,535.094 267.5,524.5C 267.5,521.167 267.5,517.833 267.5,514.5C 290.551,518.755 313.551,518.421 336.5,513.5 Z"/></g>
<g><path style="opacity:1" fill="#1d1413" d="M 449.5,519.5 C 446.571,523.606 443.404,527.606 440,531.5C 438.242,533.765 436.075,535.432 433.5,536.5C 425.499,538.267 417.499,540.101 409.5,542C 399.451,542.135 389.451,542.802 379.5,544C 366.135,548.897 353.135,554.564 340.5,561C 335.509,562.276 330.509,563.443 325.5,564.5C 327.438,560.957 329.105,557.29 330.5,553.5C 340.295,548.859 349.962,544.026 359.5,539C 372.72,536.283 386.053,534.283 399.5,533C 410.811,528.454 422.144,524.121 433.5,520C 438.823,519.501 444.156,519.334 449.5,519.5 Z"/></g>
<g><path style="opacity:1" fill="#281d17" d="M 273.5,555.5 C 275.725,559.604 278.225,563.604 281,567.5C 284.464,570.805 288.297,573.472 292.5,575.5C 287.156,578.276 281.823,578.109 276.5,575C 271.459,566.417 266.292,557.917 261,549.5C 257.468,546.15 253.301,543.984 248.5,543C 227.635,541.066 208.635,545.899 191.5,557.5C 187.228,555.226 183.228,552.559 179.5,549.5C 182.773,546.856 186.44,544.689 190.5,543C 208.484,537.049 226.984,533.882 246,533.5C 250.37,533.323 254.536,534.157 258.5,536C 264.599,541.719 269.599,548.219 273.5,555.5 Z"/></g>
<g><path style="opacity:1" fill="#251a15" d="M 433.5,536.5 C 428.821,541.178 423.821,545.511 418.5,549.5C 411.885,552.095 405.218,554.595 398.5,557C 386.547,558.711 374.547,560.044 362.5,561C 360.285,562.044 357.952,562.71 355.5,563C 347.037,567.399 338.704,572.066 330.5,577C 324.052,577.768 317.719,577.268 311.5,575.5C 316.932,572.787 321.599,569.12 325.5,564.5C 330.509,563.443 335.509,562.276 340.5,561C 353.135,554.564 366.135,548.897 379.5,544C 389.451,542.802 399.451,542.135 409.5,542C 417.499,540.101 425.499,538.267 433.5,536.5 Z"/></g>
<g><path style="opacity:1" fill="#1d1614" d="M 292.5,575.5 C 298.833,576.833 305.167,576.833 311.5,575.5C 317.719,577.268 324.052,577.768 330.5,577C 338.704,572.066 347.037,567.399 355.5,563C 357.952,562.71 360.285,562.044 362.5,561C 374.547,560.044 386.547,558.711 398.5,557C 405.218,554.595 411.885,552.095 418.5,549.5C 374.032,584.897 323.698,598.23 267.5,589.5C 268.239,589.631 268.906,589.464 269.5,589C 255.432,572.586 238.098,567.419 217.5,573.5C 208.128,569.155 199.461,563.822 191.5,557.5C 208.635,545.899 227.635,541.066 248.5,543C 253.301,543.984 257.468,546.15 261,549.5C 266.292,557.917 271.459,566.417 276.5,575C 281.823,578.109 287.156,578.276 292.5,575.5 Z"/></g>
<g><path style="opacity:1" fill="#281d16" d="M 267.5,589.5 C 250.11,586.474 233.443,581.141 217.5,573.5C 238.098,567.419 255.432,572.586 269.5,589C 268.906,589.464 268.239,589.631 267.5,589.5 Z"/></g>
</svg>
