<?xml version="1.0" encoding="UTF-8"?>
<!DOCTYPE svg PUBLIC "-//W3C//DTD SVG 1.1//EN" "http://www.w3.org/Graphics/SVG/1.1/DTD/svg11.dtd">
<svg xmlns="http://www.w3.org/2000/svg" version="1.1" width="600px" height="600px" style="shape-rendering:geometricPrecision; text-rendering:geometricPrecision; image-rendering:optimizeQuality; fill-rule:evenodd; clip-rule:evenodd" xmlns:xlink="http://www.w3.org/1999/xlink">
<g><path style="opacity:0.963" fill="#020202" d="M 599.5,317.5 C 599.5,327.5 599.5,337.5 599.5,347.5C 594.686,351.334 589.519,352.001 584,349.5C 585.794,357.363 587.294,365.363 588.5,373.5C 587.124,383.128 584.624,392.461 581,401.5C 574.391,416.385 568.058,431.385 562,446.5C 558.855,450.66 554.855,451.993 550,450.5C 549.811,455.357 548.811,460.024 547,464.5C 544.194,467.603 540.694,469.27 536.5,469.5C 537.259,480.628 538.925,491.628 541.5,502.5C 541.79,512.608 536.956,518.275 527,519.5C 521.136,518.402 516.136,515.736 512,511.5C 506.73,519.475 499.563,521.641 490.5,518C 464.852,509.671 444.352,494.504 429,472.5C 422.994,460.148 418.994,447.148 417,433.5C 414.471,439.421 412.137,445.421 410,451.5C 409.214,469.349 409.38,487.183 410.5,505C 408.838,539.346 391.504,552.013 358.5,543C 349.642,540.325 340.975,537.159 332.5,533.5C 310.195,537.347 287.862,537.347 265.5,533.5C 251.579,539.641 237.079,543.641 222,545.5C 204.565,545.397 194.565,536.731 192,519.5C 191.405,496.182 190.738,472.848 190,449.5C 187.943,443.719 185.61,438.053 183,432.5C 180.724,442.86 178.057,453.194 175,463.5C 160.09,490.4 137.923,508.567 108.5,518C 99.506,521.444 92.3394,519.277 87,511.5C 78.0963,521.183 69.0963,521.517 60,512.5C 58.9322,509.396 58.0989,506.229 57.5,503C 60.2033,491.946 62.2033,480.779 63.5,469.5C 53.3797,468.02 48.713,462.02 49.5,451.5C 45.1249,451.653 41.2916,450.32 38,447.5C 31.6089,431.718 24.9422,416.051 18,400.5C 14.3339,391.67 12.1672,382.503 11.5,373C 12.1158,365.371 13.4492,357.871 15.5,350.5C 9.6697,352.041 4.33637,351.041 -0.5,347.5C -0.5,337.833 -0.5,328.167 -0.5,318.5C 6.6752,302.488 15.1752,287.154 25,272.5C 29.2506,259.329 35.5839,247.329 44,236.5C 56.0506,220.424 69.0506,205.091 83,190.5C 95.8306,162.685 113.664,138.519 136.5,118C 145.793,110.02 156.459,104.687 168.5,102C 220.509,72.9399 276.176,62.2732 335.5,70C 369.648,74.417 401.648,85.0836 431.5,102C 442.379,104.274 452.046,108.94 460.5,116C 484.543,137.246 503.377,162.413 517,191.5C 535.833,210.861 552.5,231.861 567,254.5C 572.841,269.851 580.508,284.184 590,297.5C 593.487,304.136 596.654,310.803 599.5,317.5 Z"/></g>
<g><path style="opacity:1" fill="#f5f5f5" d="M 457.5,210.5 C 456.678,208.611 455.845,206.611 455,204.5C 450.647,202.763 448.147,204.263 447.5,209C 447.843,213.019 449.509,216.352 452.5,219C 453.784,219.684 454.951,219.517 456,218.5C 456.497,220.81 456.663,223.143 456.5,225.5C 455.358,245.328 452.858,264.994 449,284.5C 441.559,318.431 433.726,352.264 425.5,386C 426.409,387.789 426.576,389.623 426,391.5C 415.923,410.322 406.923,429.655 399,449.5C 398.225,468.346 398.391,487.18 399.5,506C 399.501,531.837 387.168,540.837 362.5,533C 353.613,530.317 344.946,527.15 336.5,523.5C 335.5,522.833 334.5,522.167 333.5,521.5C 343.35,506.472 352.184,490.806 360,474.5C 364.578,467.015 369.411,459.681 374.5,452.5C 380.085,446.52 380.585,440.186 376,433.5C 374.266,431.549 372.099,430.549 369.5,430.5C 363.556,425.894 357.89,420.894 352.5,415.5C 349.745,406.911 344.079,401.078 335.5,398C 311.5,390.667 287.5,390.667 263.5,398C 250.296,403.905 244.463,414.072 246,428.5C 249.74,441.738 257.907,451.072 270.5,456.5C 270.369,457.239 270.536,457.906 271,458.5C 291.702,479.035 312.202,499.701 332.5,520.5C 325.739,517.955 319.072,515.121 312.5,512C 303.021,508.457 293.688,508.79 284.5,513C 276.954,516.275 269.621,519.775 262.5,523.5C 249.351,529.205 235.684,533.205 221.5,535.5C 210.058,534.892 203.558,528.892 202,517.5C 201.667,494.5 201.333,471.5 201,448.5C 192.713,427.759 183.213,407.592 172.5,388C 172.911,386.856 173.244,385.689 173.5,384.5C 165.353,350.577 157.519,316.577 150,282.5C 143.427,251.446 141.094,220.113 143,188.5C 146.772,163.296 156.772,140.963 173,121.5C 173.784,118.24 173.617,115.073 172.5,112C 178.846,107.826 185.512,104.159 192.5,101C 204.702,96.713 216.702,92.0463 228.5,87C 272.987,76.4244 317.653,75.7577 362.5,85C 371.054,86.6277 379.054,89.6277 386.5,94C 400.694,97.9316 414.027,103.765 426.5,111.5C 425.415,114.773 425.248,118.106 426,121.5C 447.698,147.089 458.198,176.755 457.5,210.5 Z"/></g>
<g><path style="opacity:1" fill="#c0b7b6" d="M 377.5,109.5 C 385.481,108.916 390.314,112.583 392,120.5C 392.156,130.591 391.156,140.591 389,150.5C 388.101,152.368 386.601,153.368 384.5,153.5C 371.485,147.665 365.319,137.665 366,123.5C 368.595,117.746 372.428,113.079 377.5,109.5 Z"/></g>
<g><path style="opacity:1" fill="#5a443a" d="M 164.5,115.5 C 165.833,115.5 167.167,115.5 168.5,115.5C 168.657,116.873 168.49,118.207 168,119.5C 157.198,131.424 149.198,145.09 144,160.5C 138.707,176.215 136.207,192.382 136.5,209C 137.552,234.696 140.385,260.196 145,285.5C 153.14,319.726 160.807,354.06 168,388.5C 169.964,405.507 169.964,422.507 168,439.5C 165.61,458.115 157.11,473.281 142.5,485C 129.547,495.643 114.88,502.81 98.5,506.5C 98.979,502.089 98.3124,497.922 96.5,494C 93.366,493.21 90.366,493.543 87.5,495C 82.5463,498.285 77.8797,501.952 73.5,506C 72.5509,506.617 71.7175,506.451 71,505.5C 72.523,494.203 74.1896,482.87 76,471.5C 76.6667,464.167 76.6667,456.833 76,449.5C 74.6661,445.896 72.1661,444.729 68.5,446C 66.6411,447.558 65.1411,449.391 64,451.5C 63.6667,446.167 63.3333,440.833 63,435.5C 62.6042,432.304 61.4375,429.47 59.5,427C 58.1667,426.333 56.8333,426.333 55.5,427C 52.2694,429.727 49.6028,432.894 47.5,436.5C 39.1728,418.177 31.6728,399.51 25,380.5C 24.3333,375.167 24.3333,369.833 25,364.5C 27.3316,356.838 29.6649,349.171 32,341.5C 32.2729,332.461 28.1062,329.628 19.5,333C 16.4151,334.96 13.2485,336.793 10,338.5C 9.87165,327.831 12.5383,317.831 18,308.5C 22.6042,300.234 27.6042,292.234 33,284.5C 37.387,276.003 41.387,267.336 45,258.5C 59.6526,236.887 75.986,216.554 94,197.5C 105.969,171.397 122.469,148.563 143.5,129C 150.137,123.848 157.137,119.348 164.5,115.5 Z"/></g>
<g><path style="opacity:1" fill="#5a443a" d="M 430.5,115.5 C 435.193,115.898 439.526,117.398 443.5,120C 459,131.5 472.5,145 484,160.5C 491.838,172.839 499.172,185.506 506,198.5C 522.845,216.003 538.178,234.67 552,254.5C 556.627,262.043 560.294,270.043 563,278.5C 571.132,290.649 578.465,303.316 585,316.5C 588.432,323.544 589.932,330.877 589.5,338.5C 583.814,334.216 577.481,332.05 570.5,332C 569.667,332.833 568.833,333.667 568,334.5C 567.333,338.167 567.333,341.833 568,345.5C 574.001,357.181 576.001,369.515 574,382.5C 566.943,400.946 559.61,419.279 552,437.5C 550.204,434.073 548.037,430.906 545.5,428C 540.461,425.145 537.628,426.645 537,432.5C 536.667,439.5 536.333,446.5 536,453.5C 534.877,450.751 533.377,448.251 531.5,446C 526.957,444.385 524.124,445.885 523,450.5C 521.852,466.464 523.519,482.131 528,497.5C 528.821,500.554 528.655,503.554 527.5,506.5C 522.975,502.808 518.308,499.308 513.5,496C 509.867,493.528 506.034,493.028 502,494.5C 500.985,498.44 500.485,502.44 500.5,506.5C 475.973,500.654 456.139,487.654 441,467.5C 432.544,450.884 428.711,433.218 429.5,414.5C 429.591,406.806 430.091,399.139 431,391.5C 437.718,356.629 445.384,321.962 454,287.5C 461.474,252.818 463.807,217.818 461,182.5C 457.268,162.707 449.935,144.373 439,127.5C 434.715,124.405 431.882,120.405 430.5,115.5 Z"/></g>
<g><path style="opacity:1" fill="#c0b7b6" d="M 265.5,121.5 C 275.398,119.558 278.564,123.225 275,132.5C 268.332,145.178 260.665,157.178 252,168.5C 248.922,174.991 245.588,181.325 242,187.5C 234.024,194.169 225.19,195.336 215.5,191C 209.499,188.984 204.666,185.484 201,180.5C 199.121,171.067 200.788,162.4 206,154.5C 217.733,144.71 230.566,136.544 244.5,130C 251.491,126.844 258.491,124.01 265.5,121.5 Z"/></g>
<g><path style="opacity:1" fill="#c1b8b7" d="M 326.5,147.5 C 330.438,147.635 333.772,149.135 336.5,152C 342.831,157.851 348.331,164.351 353,171.5C 353.932,176.989 353.432,182.323 351.5,187.5C 350.167,188.833 348.833,188.833 347.5,187.5C 342.371,176.878 335.871,167.212 328,158.5C 325.479,155.071 324.979,151.404 326.5,147.5 Z"/></g>
<g><path style="opacity:1" fill="#c2b9b8" d="M 410.5,149.5 C 416.344,150.839 420.178,154.506 422,160.5C 422.804,164.204 422.304,167.704 420.5,171C 419.216,171.684 418.049,171.517 417,170.5C 414.333,165.833 411.667,161.167 409,156.5C 408.391,153.935 408.891,151.601 410.5,149.5 Z"/></g>
<g><path style="opacity:1" fill="#c2b9b8" d="M 265.5,192.5 C 269.295,191.959 271.295,193.625 271.5,197.5C 268.942,203.861 265.442,209.527 261,214.5C 257.803,211.51 256.803,207.843 258,203.5C 259.549,199.13 262.049,195.463 265.5,192.5 Z"/></g>
<g><path style="opacity:1" fill="#c2bab9" d="M 457.5,210.5 C 457.821,215.695 457.487,220.695 456.5,225.5C 456.663,223.143 456.497,220.81 456,218.5C 454.951,219.517 453.784,219.684 452.5,219C 449.509,216.352 447.843,213.019 447.5,209C 448.147,204.263 450.647,202.763 455,204.5C 455.845,206.611 456.678,208.611 457.5,210.5 Z"/></g>
<g><path style="opacity:1" fill="#bdb5b4" d="M 216.5,211.5 C 236.646,209.313 250.146,217.646 257,236.5C 259.225,258.272 249.725,271.772 228.5,277C 206.155,277.315 193.821,266.315 191.5,244C 192.898,227.775 201.232,216.942 216.5,211.5 Z"/></g>
<g><path style="opacity:1" fill="#bdb5b4" d="M 366.5,211.5 C 386.646,209.313 400.146,217.646 407,236.5C 409.225,258.272 399.725,271.772 378.5,277C 356.155,277.315 343.821,266.315 341.5,244C 342.898,227.775 351.232,216.942 366.5,211.5 Z"/></g>
<g><path style="opacity:1" fill="#241916" d="M 217.5,220.5 C 235.864,218.055 246.198,225.888 248.5,244C 247.698,256.959 241.031,264.959 228.5,268C 214.435,269.212 205.268,263.045 201,249.5C 199.279,235.599 204.779,225.932 217.5,220.5 Z"/></g>
<g><path style="opacity:1" fill="#241916" d="M 367.5,220.5 C 386.093,218.113 396.426,226.113 398.5,244.5C 397.547,257.261 390.88,265.094 378.5,268C 367.216,269.569 358.716,265.402 353,255.5C 346.932,239.132 351.765,227.465 367.5,220.5 Z"/></g>
<g><path style="opacity:1" fill="#f2f1f1" d="M 227.5,229.5 C 236.24,228.717 238.907,232.217 235.5,240C 229.995,242.871 226.328,241.371 224.5,235.5C 224.984,233.199 225.984,231.199 227.5,229.5 Z"/></g>
<g><path style="opacity:1" fill="#f1f1f1" d="M 382.5,228.5 C 389.639,229.112 391.972,232.779 389.5,239.5C 383.74,243.967 379.74,242.634 377.5,235.5C 378.06,232.288 379.727,229.955 382.5,228.5 Z"/></g>
<g><path style="opacity:1" fill="#c1b8b7" d="M 286.5,245.5 C 291.258,246.414 294.758,249.081 297,253.5C 302.63,261.402 305.963,270.069 307,279.5C 306.08,283.263 304.58,286.763 302.5,290C 301.216,290.684 300.049,290.517 299,289.5C 295.714,277.264 291.047,265.597 285,254.5C 284.068,251.177 284.568,248.177 286.5,245.5 Z"/></g>
<g><path style="opacity:1" fill="#c2b9b8" d="M 246.5,270.5 C 249.808,269.974 251.974,271.307 253,274.5C 253.667,277.833 253.667,281.167 253,284.5C 251.084,287.033 249.084,287.033 247,284.5C 244.099,279.788 243.932,275.121 246.5,270.5 Z"/></g>
<g><path style="opacity:1" fill="#c1b8b7" d="M 389.5,284.5 C 392.516,284.841 395.182,286.007 397.5,288C 404.458,293.951 410.291,300.785 415,308.5C 415.667,312.5 415.667,316.5 415,320.5C 414.45,325.226 412.45,326.226 409,323.5C 404.163,313.162 397.83,303.829 390,295.5C 389.133,293.316 388.299,291.149 387.5,289C 387.519,287.167 388.185,285.667 389.5,284.5 Z"/></g>
<g><path style="opacity:1" fill="#c0b7b6" d="M 332.5,326.5 C 334.411,326.574 335.578,327.574 336,329.5C 336.288,332.53 336.455,335.364 336.5,338C 334.299,338.825 332.466,338.325 331,336.5C 330.54,333.038 331.04,329.704 332.5,326.5 Z"/></g>
<g><path style="opacity:1" fill="#c0b7b6" d="M 196.5,342.5 C 198.39,342.297 199.89,342.963 201,344.5C 201.667,348.833 201.667,353.167 201,357.5C 196.673,370.157 192.34,382.824 188,395.5C 186.789,399.462 184.789,400.129 182,397.5C 172.62,375.351 177.453,357.017 196.5,342.5 Z"/></g>
<g><path style="opacity:1" fill="#bab0ae" d="M 391.5,346.5 C 403.262,346.399 412.762,351.066 420,360.5C 421.527,366.415 421.861,372.415 421,378.5C 420.42,382.426 418.253,383.926 414.5,383C 401.718,375.72 392.718,365.22 387.5,351.5C 388.508,349.501 389.841,347.834 391.5,346.5 Z"/></g>
<g><path style="opacity:1" fill="#c1b8b7" d="M 259.5,365.5 C 264.989,365.504 266.822,368.171 265,373.5C 261.977,378.828 258.644,383.828 255,388.5C 253.118,387.907 252.118,386.573 252,384.5C 251.149,376.865 253.649,370.532 259.5,365.5 Z"/></g>
<g><path style="opacity:1" fill="#3e3a39" d="M 352.5,415.5 C 354.865,428.939 350.865,440.105 340.5,449C 328.142,458.511 314.142,464.011 298.5,465.5C 288.509,464.34 279.176,461.34 270.5,456.5C 257.907,451.072 249.74,441.738 246,428.5C 244.463,414.072 250.296,403.905 263.5,398C 287.5,390.667 311.5,390.667 335.5,398C 344.079,401.078 349.745,406.911 352.5,415.5 Z"/></g>
<g><path style="opacity:1" fill="#c2b9b8" d="M 367.5,399.5 C 375.022,402.207 378.189,407.541 377,415.5C 375.867,417.211 374.367,417.711 372.5,417C 369.601,412.649 367.268,407.982 365.5,403C 365.978,401.697 366.645,400.531 367.5,399.5 Z"/></g>
<g><path style="opacity:1" fill="#eaeaea" d="M 352.5,415.5 C 357.89,420.894 363.556,425.894 369.5,430.5C 366.801,437.561 367.301,444.561 371,451.5C 372.011,452.337 373.178,452.67 374.5,452.5C 369.411,459.681 364.578,467.015 360,474.5C 352.184,490.806 343.35,506.472 333.5,521.5C 332.833,521.5 332.5,521.167 332.5,520.5C 312.202,499.701 291.702,479.035 271,458.5C 270.536,457.906 270.369,457.239 270.5,456.5C 279.176,461.34 288.509,464.34 298.5,465.5C 314.142,464.011 328.142,458.511 340.5,449C 350.865,440.105 354.865,428.939 352.5,415.5 Z"/></g>
<g><path style="opacity:1" fill="#bbb1b0" d="M 369.5,430.5 C 372.099,430.549 374.266,431.549 376,433.5C 380.585,440.186 380.085,446.52 374.5,452.5C 373.178,452.67 372.011,452.337 371,451.5C 367.301,444.561 366.801,437.561 369.5,430.5 Z"/></g>
<g><path style="opacity:1" fill="#bab0ae" d="M 353.5,452.5 C 360.519,452.796 362.352,456.129 359,462.5C 354.065,467.134 351.232,466.134 350.5,459.5C 350.667,458.167 350.833,456.833 351,455.5C 352.045,454.627 352.878,453.627 353.5,452.5 Z"/></g>
<g><path style="opacity:1" fill="#c2b9b8" d="M 241.5,452.5 C 244.808,451.974 246.974,453.307 248,456.5C 248.667,459.833 248.667,463.167 248,466.5C 246.522,469.993 244.522,470.326 242,467.5C 237.976,462.379 237.809,457.379 241.5,452.5 Z"/></g>
<g><path style="opacity:1" fill="#95837b" d="M 332.5,520.5 C 332.5,521.167 332.833,521.5 333.5,521.5C 334.5,522.167 335.5,522.833 336.5,523.5C 311.834,526.167 287.167,526.167 262.5,523.5C 269.621,519.775 276.954,516.275 284.5,513C 293.688,508.79 303.021,508.457 312.5,512C 319.072,515.121 325.739,517.955 332.5,520.5 Z"/></g>
</svg>
