<?xml version="1.0" encoding="UTF-8"?>
<!DOCTYPE svg PUBLIC "-//W3C//DTD SVG 1.1//EN" "http://www.w3.org/Graphics/SVG/1.1/DTD/svg11.dtd">
<svg xmlns="http://www.w3.org/2000/svg" version="1.1" width="600px" height="600px" style="shape-rendering:geometricPrecision; text-rendering:geometricPrecision; image-rendering:optimizeQuality; fill-rule:evenodd; clip-rule:evenodd" xmlns:xlink="http://www.w3.org/1999/xlink">
<g><path style="opacity:0.971" fill="#020201" d="M 599.5,165.5 C 599.5,205.167 599.5,244.833 599.5,284.5C 593.948,313.655 582.115,339.988 564,363.5C 550.686,379.119 534.852,382.286 516.5,373C 508.943,368.776 501.943,363.776 495.5,358C 494.668,357.312 494.002,357.479 493.5,358.5C 489.134,369.564 483.968,380.231 478,390.5C 466.667,408.5 455.333,426.5 444,444.5C 435.767,466.302 426.433,487.635 416,508.5C 409.667,518.167 403.333,527.833 397,537.5C 393.833,540.667 390.667,543.833 387.5,547C 377.119,553.191 366.452,558.857 355.5,564C 336.523,570.282 317.023,573.116 297,572.5C 280.595,572.675 264.429,570.842 248.5,567C 242.511,565.448 236.844,563.115 231.5,560C 223.667,555.584 216,550.918 208.5,546C 197.902,533.968 188.402,521.135 180,507.5C 169.611,485 159.611,462.333 150,439.5C 141,425.5 132,411.5 123,397.5C 115.552,384.938 108.885,371.938 103,358.5C 91.7438,369.961 78.0771,376.627 62,378.5C 50.9605,377.147 41.9605,372.147 35,363.5C 16.8851,339.988 5.05176,313.655 -0.5,284.5C -0.5,244.833 -0.5,205.167 -0.5,165.5C 3.93588,160.562 8.60254,155.729 13.5,151C 28.9836,138.094 44.6502,125.427 60.5,113C 89.109,92.3633 120.442,77.0299 154.5,67C 160.721,65.4465 166.055,66.9465 170.5,71.5C 201.256,55.8107 233.923,47.3107 268.5,46C 302.708,43.432 336.708,45.0987 370.5,51C 390.581,55.7049 409.581,63.2049 427.5,73.5C 433.014,66.5863 440.014,64.753 448.5,68C 479.346,77.7575 508.013,91.7575 534.5,110C 549.455,121.286 564.121,132.953 578.5,145C 586.031,151.365 593.031,158.199 599.5,165.5 Z"/></g>
<g><path style="opacity:1" fill="#2f2624" d="M 435.5,89.5 C 445.332,95.917 454.999,102.584 464.5,109.5C 467.325,114.452 469.491,119.786 471,125.5C 477.33,152.288 479.83,179.455 478.5,207C 477.874,234.167 477.707,261.334 478,288.5C 478.726,294.627 479.892,300.627 481.5,306.5C 478.865,309.079 476.699,312.079 475,315.5C 464.77,337.64 452.77,358.64 439,378.5C 428.076,388.713 415.242,395.38 400.5,398.5C 399.287,398.747 398.62,399.414 398.5,400.5C 396.534,395.005 394.701,389.338 393,383.5C 385.737,368.584 378.07,353.918 370,339.5C 369,338.5 368,337.5 367,336.5C 355.187,313.742 344.52,290.409 335,266.5C 333.873,260.277 332.207,254.277 330,248.5C 328.81,203.937 329.976,159.437 333.5,115C 333.945,100.225 330.778,86.3919 324,73.5C 313.303,59.1174 299.803,55.6174 283.5,63C 274.747,69.9624 268.914,78.7957 266,89.5C 265.009,99.1385 264.509,108.805 264.5,118.5C 265.892,153.331 267.225,188.164 268.5,223C 268.451,231.528 267.951,240.028 267,248.5C 265.408,253.375 264.074,258.375 263,263.5C 249.363,299.136 232.696,333.136 213,365.5C 207.598,375.756 203.098,386.422 199.5,397.5C 183.414,395.372 169.248,389.039 157,378.5C 152.943,373.442 149.276,368.108 146,362.5C 137.667,345.167 129.333,327.833 121,310.5C 120.051,308.907 118.885,307.574 117.5,306.5C 119.108,300.627 120.274,294.627 121,288.5C 120.846,250.168 120.846,211.835 121,173.5C 121.413,147.424 127.413,122.757 139,99.5C 144.331,90.3363 151.497,83.003 160.5,77.5C 162.982,79.5027 163.982,82.1694 163.5,85.5C 178.019,79.0762 192.686,72.9096 207.5,67C 235.81,59.385 264.643,55.5517 294,55.5C 320.05,55.1762 345.883,57.3429 371.5,62C 380.163,63.6657 388.497,66.3323 396.5,70C 409.832,75.9993 422.832,82.4993 435.5,89.5 Z"/></g>
<g><path style="opacity:1" fill="#f6f3f3" d="M 398.5,461.5 C 399.388,475.478 399.722,489.478 399.5,503.5C 398.596,504.209 398.263,505.209 398.5,506.5C 385.586,495.089 373.086,483.089 361,470.5C 360.517,469.552 360.351,468.552 360.5,467.5C 368.488,436.339 356.488,418.172 324.5,413C 301.015,408.59 278.015,410.257 255.5,418C 235.156,429.017 228.989,445.517 237,467.5C 245.338,482.498 257.505,493.331 273.5,500C 277.808,501.658 282.142,503.158 286.5,504.5C 298.583,517.084 310.916,529.584 323.5,542C 322.906,542.464 322.239,542.631 321.5,542.5C 313.657,538.08 305.99,533.414 298.5,528.5C 292.785,531.375 287.452,534.875 282.5,539C 260.978,552.561 239.312,552.894 217.5,540C 210.364,534.389 205.031,527.556 201.5,519.5C 197.507,501.041 196.507,482.374 198.5,463.5C 200.279,436.096 206.446,409.763 217,384.5C 236.473,350.886 253.807,316.22 269,280.5C 276.301,261.329 279.468,241.495 278.5,221C 276.974,180.834 275.807,140.667 275,100.5C 277.194,89.6078 282.36,80.4412 290.5,73C 295.205,68.7288 300.205,68.3955 305.5,72C 313.92,79.3285 319.42,88.4951 322,99.5C 322.667,110.833 322.667,122.167 322,133.5C 319.042,170.45 318.042,207.45 319,244.5C 322.861,266.084 329.528,286.751 339,306.5C 354.034,335.52 369.034,364.52 384,393.5C 391.731,415.551 396.564,438.217 398.5,461.5 Z"/></g>
<g><path style="opacity:1" fill="#3d3938" d="M 160.5,77.5 C 151.497,83.003 144.331,90.3363 139,99.5C 127.413,122.757 121.413,147.424 121,173.5C 120.846,211.835 120.846,250.168 121,288.5C 120.274,294.627 119.108,300.627 117.5,306.5C 114.43,317.045 110.763,327.378 106.5,337.5C 98.8046,350.022 88.1379,359.189 74.5,365C 65.6717,368.928 57.3384,368.261 49.5,363C 28.8544,341.208 16.021,315.375 11,285.5C 4.89388,251.104 2.22721,216.437 3,181.5C 7.59787,171.893 14.0979,163.726 22.5,157C 42.2628,140.568 62.5961,124.901 83.5,110C 106.436,96.0345 130.769,85.0345 156.5,77C 158.066,76.235 159.399,76.4017 160.5,77.5 Z"/></g>
<g><path style="opacity:1" fill="#3d3938" d="M 439.5,76.5 C 472.469,85.6528 502.803,100.153 530.5,120C 551.214,135.708 571.048,152.541 590,170.5C 592.435,173.934 594.435,177.6 596,181.5C 596.703,216.432 594.036,251.098 588,285.5C 583.071,311.347 572.738,334.68 557,355.5C 552.939,360.905 547.772,364.738 541.5,367C 524.247,366.791 510.08,359.958 499,346.5C 496.477,342.767 493.977,339.101 491.5,335.5C 487.767,325.967 484.434,316.3 481.5,306.5C 479.892,300.627 478.726,294.627 478,288.5C 477.707,261.334 477.874,234.167 478.5,207C 479.83,179.455 477.33,152.288 471,125.5C 469.491,119.786 467.325,114.452 464.5,109.5C 462.538,104.243 460.038,99.2432 457,94.5C 451.586,87.922 445.753,81.922 439.5,76.5 Z"/></g>
<g><path style="opacity:1" fill="#231815" d="M 439.5,76.5 C 445.753,81.922 451.586,87.922 457,94.5C 460.038,99.2432 462.538,104.243 464.5,109.5C 454.999,102.584 445.332,95.917 435.5,89.5C 434.859,84.4307 436.192,80.0973 439.5,76.5 Z"/></g>
<g><path style="opacity:1" fill="#c46a1e" d="M 218.5,177.5 C 230.761,176.211 239.261,181.211 244,192.5C 245.78,206.72 239.614,212.886 225.5,211C 218.24,208.399 212.073,204.232 207,198.5C 202.978,192.157 203.811,186.657 209.5,182C 212.437,180.199 215.437,178.699 218.5,177.5 Z"/></g>
<g><path style="opacity:1" fill="#c46a1e" d="M 368.5,177.5 C 376.429,176.939 383.596,178.939 390,183.5C 394.517,188.46 394.517,193.46 390,198.5C 382.132,207.523 372.298,211.69 360.5,211C 353.764,207.024 351.264,201.191 353,193.5C 355.685,185.65 360.852,180.316 368.5,177.5 Z"/></g>
<g><path style="opacity:1" fill="#3d3938" d="M 191.5,211.5 C 219.983,210.485 234.15,224.151 234,252.5C 227.711,274.401 213.211,283.901 190.5,281C 171.242,274.395 162.408,260.895 164,240.5C 167.573,225.429 176.74,215.762 191.5,211.5 Z"/></g>
<g><path style="opacity:1" fill="#3d3938" d="M 390.5,211.5 C 419.478,210.645 433.645,224.645 433,253.5C 426.274,274.883 411.774,284.049 389.5,281C 370.819,274.478 361.985,261.311 363,241.5C 364.937,231.776 369.77,223.943 377.5,218C 381.647,215.26 385.98,213.093 390.5,211.5 Z"/></g>
<g><path style="opacity:1" fill="#010101" d="M 192.5,222.5 C 214.155,220.989 224.322,230.989 223,252.5C 216.729,268.885 205.229,274.385 188.5,269C 172.308,257.634 170.308,244.134 182.5,228.5C 185.598,225.957 188.931,223.957 192.5,222.5 Z"/></g>
<g><path style="opacity:1" fill="#010101" d="M 391.5,222.5 C 413.155,220.989 423.322,230.989 422,252.5C 414.99,269.727 402.823,274.894 385.5,268C 373.442,258.817 370.608,247.317 377,233.5C 380.857,228.468 385.69,224.801 391.5,222.5 Z"/></g>
<g><path style="opacity:1" fill="#f4f4f4" d="M 202.5,229.5 C 211.658,228.491 215.492,232.491 214,241.5C 211.459,246.069 207.625,247.569 202.5,246C 197.193,240.428 197.193,234.928 202.5,229.5 Z"/></g>
<g><path style="opacity:1" fill="#f4f4f4" d="M 402.5,229.5 C 411.658,228.491 415.492,232.491 414,241.5C 411.459,246.069 407.625,247.569 402.5,246C 397.193,240.428 397.193,234.928 402.5,229.5 Z"/></g>
<g><path style="opacity:1" fill="#c46a1d" d="M 117.5,306.5 C 118.885,307.574 120.051,308.907 121,310.5C 129.333,327.833 137.667,345.167 146,362.5C 149.276,368.108 152.943,373.442 157,378.5C 169.248,389.039 183.414,395.372 199.5,397.5C 195.396,413.313 192.229,429.313 190,445.5C 188.157,462.782 187.157,480.115 187,497.5C 178.229,479.196 170.229,460.529 163,441.5C 149.082,419.334 135.416,397 122,374.5C 115.945,362.492 110.779,350.159 106.5,337.5C 110.763,327.378 114.43,317.045 117.5,306.5 Z"/></g>
<g><path style="opacity:1" fill="#c46a1d" d="M 481.5,306.5 C 484.434,316.3 487.767,325.967 491.5,335.5C 485.761,351.991 478.594,367.991 470,383.5C 458.667,401.5 447.333,419.5 436,437.5C 427.924,456.57 419.757,475.57 411.5,494.5C 410.833,486.167 410.167,477.833 409.5,469.5C 407.652,446.198 403.986,423.198 398.5,400.5C 398.62,399.414 399.287,398.747 400.5,398.5C 415.242,395.38 428.076,388.713 439,378.5C 452.77,358.64 464.77,337.64 475,315.5C 476.699,312.079 478.865,309.079 481.5,306.5 Z"/></g>
<g><path style="opacity:1" fill="#000000" d="M 360.5,467.5 C 346.634,490.788 325.967,503.454 298.5,505.5C 294.475,505.332 290.475,504.999 286.5,504.5C 282.142,503.158 277.808,501.658 273.5,500C 257.505,493.331 245.338,482.498 237,467.5C 228.989,445.517 235.156,429.017 255.5,418C 278.015,410.257 301.015,408.59 324.5,413C 356.488,418.172 368.488,436.339 360.5,467.5 Z"/></g>
<g><path style="opacity:1" fill="#ebe8e8" d="M 360.5,467.5 C 360.351,468.552 360.517,469.552 361,470.5C 373.086,483.089 385.586,495.089 398.5,506.5C 394.873,530.294 381.207,544.461 357.5,549C 344.581,551.204 332.581,549.037 321.5,542.5C 322.239,542.631 322.906,542.464 323.5,542C 310.916,529.584 298.583,517.084 286.5,504.5C 290.475,504.999 294.475,505.332 298.5,505.5C 325.967,503.454 346.634,490.788 360.5,467.5 Z"/></g>
<g><path style="opacity:1" fill="#321b07" d="M 398.5,461.5 C 399.29,462.609 399.79,463.942 400,465.5C 400.827,478.34 400.66,491.007 399.5,503.5C 399.722,489.478 399.388,475.478 398.5,461.5 Z"/></g>
<g><path style="opacity:1" fill="#3b210e" d="M 198.5,463.5 C 196.507,482.374 197.507,501.041 201.5,519.5C 200.883,519.389 200.383,519.056 200,518.5C 198.844,514.877 197.844,511.211 197,507.5C 196.333,494.833 196.333,482.167 197,469.5C 197.191,467.292 197.691,465.292 198.5,463.5 Z"/></g>
<g><path style="opacity:1" fill="#8c4c14" d="M 409.5,469.5 C 410.167,477.833 410.833,486.167 411.5,494.5C 411.013,495.473 410.513,496.473 410,497.5C 409.5,488.173 409.334,478.839 409.5,469.5 Z"/></g>
<g><path style="opacity:1" fill="#2e2624" d="M 297.5,543.5 C 306.062,548.085 314.728,552.585 323.5,557C 326.289,557.241 328.956,557.908 331.5,559C 326.949,560.215 322.282,560.881 317.5,561C 301.121,561.923 284.788,561.59 268.5,560C 268.167,559.667 267.833,559.333 267.5,559C 278.277,555.041 288.277,549.874 297.5,543.5 Z"/></g>
</svg>
