<?xml version="1.0" encoding="UTF-8"?>
<!DOCTYPE svg PUBLIC "-//W3C//DTD SVG 1.1//EN" "http://www.w3.org/Graphics/SVG/1.1/DTD/svg11.dtd">
<svg xmlns="http://www.w3.org/2000/svg" version="1.1" width="600px" height="600px" style="shape-rendering:geometricPrecision; text-rendering:geometricPrecision; image-rendering:optimizeQuality; fill-rule:evenodd; clip-rule:evenodd" xmlns:xlink="http://www.w3.org/1999/xlink">
<g><path style="opacity:0.965" fill="#010101" d="M 599.5,201.5 C 599.5,221.833 599.5,242.167 599.5,262.5C 575.308,306.889 556.475,353.556 543,402.5C 534.371,416.259 523.038,418.926 509,410.5C 502.518,448.652 484.351,479.818 454.5,504C 448.658,508.182 442.491,509.015 436,506.5C 426.322,525.845 412.155,541.012 393.5,552C 389.216,553.663 384.883,553.996 380.5,553C 372.726,562.107 363.726,569.774 353.5,576C 336.179,584.15 318.846,591.983 301.5,599.5C 300.5,599.5 299.5,599.5 298.5,599.5C 280.774,591.638 263.107,583.472 245.5,575C 235.377,568.544 226.877,560.377 220,550.5C 214.847,553.012 209.68,552.845 204.5,550C 195.779,544.286 187.946,537.452 181,529.5C 175.667,521.5 170.333,513.5 165,505.5C 160.64,507.984 156.14,508.15 151.5,506C 135.253,494.751 122.086,480.584 112,463.5C 105.215,460.57 102.715,455.57 104.5,448.5C 98.8038,435.717 94.9705,422.384 93,408.5C 75.0841,420.417 62.0841,416.417 54,396.5C 40.9934,349.291 22.8268,304.291 -0.5,261.5C -0.5,241.833 -0.5,222.167 -0.5,202.5C 21.871,160.631 49.5377,122.465 82.5,88C 76.8871,79.803 78.2204,72.803 86.5,67C 88.0249,65.9914 89.6916,65.4914 91.5,65.5C 88.8297,60.3102 86.8297,54.8102 85.5,49C 85.9336,41.2845 89.9336,36.7845 97.5,35.5C 102.49,37.327 107.49,39.1603 112.5,41C 124.093,42.7035 135.593,44.8701 147,47.5C 152.915,45.8968 158.748,44.0635 164.5,42C 188.89,22.7417 216.556,10.4084 247.5,5C 299.208,-4.4971 349.541,0.169562 398.5,19C 411.364,25.8746 423.697,33.5413 435.5,42C 440.531,43.2064 445.531,44.5397 450.5,46C 467.829,44.9171 484.663,41.4171 501,35.5C 511.866,38.0632 515.532,44.7298 512,55.5C 510.561,58.6026 508.727,61.4359 506.5,64C 514.293,66.125 518.96,71.125 520.5,79C 520.064,82.434 518.73,85.434 516.5,88C 549.054,122.368 576.721,160.202 599.5,201.5 Z"/></g>
<g><path style="opacity:1" fill="#7f572e" d="M 497.5,407.5 C 495.689,408.822 493.689,409.322 491.5,409C 488.517,406.086 485.517,403.086 482.5,400C 481.552,399.517 480.552,399.351 479.5,399.5C 478.653,404.33 477.32,408.997 475.5,413.5C 480.007,430.136 478.173,446.136 470,461.5C 466.419,468.33 462.586,474.997 458.5,481.5C 457.635,482.583 456.635,482.749 455.5,482C 448.211,470.922 442.378,459.088 438,446.5C 436.989,445.663 435.822,445.33 434.5,445.5C 432.444,453.242 429.944,460.909 427,468.5C 422.774,472.417 418.607,472.25 414.5,468C 405.4,456.897 395.567,446.397 385,436.5C 384.51,435.207 384.343,433.873 384.5,432.5C 384.631,431.761 384.464,431.094 384,430.5C 373.511,435.889 362.345,438.222 350.5,437.5C 333.685,435.149 316.685,433.149 299.5,431.5C 282.007,433.355 264.674,435.355 247.5,437.5C 233.741,438.314 221.408,434.647 210.5,426.5C 210.167,426.667 209.833,426.833 209.5,427C 211.32,430.141 212.986,433.308 214.5,436.5C 201.97,449.196 191.136,463.196 182,478.5C 179.984,480.684 177.817,482.684 175.5,484.5C 174.328,484.081 173.328,483.415 172.5,482.5C 170.872,478.992 169.706,475.325 169,471.5C 167.671,461.532 166.671,451.532 166,441.5C 161.304,454.585 155.637,467.251 149,479.5C 147.987,481.846 146.321,483.513 144,484.5C 142.739,484.241 141.739,483.574 141,482.5C 133.509,470.19 127.676,457.19 123.5,443.5C 120.397,445.684 117.73,448.351 115.5,451.5C 114.596,450.791 114.263,449.791 114.5,448.5C 117.638,432.734 119.805,416.734 121,400.5C 120.667,399.833 120.333,399.167 120,398.5C 117.049,401.572 114.216,404.739 111.5,408C 109.702,409.505 107.868,409.672 106,408.5C 105.125,405.599 103.958,402.932 102.5,400.5C 102.299,397.492 101.966,394.492 101.5,391.5C 105.06,380.496 106.226,369.162 105,357.5C 103.842,357.002 103.009,356.169 102.5,355C 103.55,351.545 103.717,348.045 103,344.5C 101.443,341.828 100.276,338.995 99.5,336C 100.47,332.756 101.637,329.59 103,326.5C 103.5,313.838 103.667,301.171 103.5,288.5C 100.254,288.398 97.4205,287.398 95,285.5C 93.175,285.943 91.3417,286.277 89.5,286.5C 94.7567,262.129 99.4233,237.629 103.5,213C 103.845,203.671 99.5112,199.671 90.5,201C 87.1466,202.677 84.1466,204.843 81.5,207.5C 80.3452,204.554 80.1786,201.554 81,198.5C 86.3457,179.786 94.0124,162.119 104,145.5C 107.733,138.889 107.233,132.722 102.5,127C 98.7087,126.409 95.0421,126.909 91.5,128.5C 90.8333,128.167 90.1667,127.833 89.5,127.5C 90.5922,124.906 92.2589,122.739 94.5,121C 97.1667,119 99.8333,117 102.5,115C 115.085,108.127 127.252,100.627 139,92.5C 141.941,87.228 145.274,82.228 149,77.5C 149.667,75.5 149.667,73.5 149,71.5C 147.167,69.6667 145.333,67.8333 143.5,66C 145.911,64.0445 148.411,62.2112 151,60.5C 151.219,59.062 151.719,57.7287 152.5,56.5C 157.134,55.2338 161.8,54.0671 166.5,53C 204.997,22.9486 248.831,9.11526 298,11.5C 334.254,9.75088 368.754,16.5842 401.5,32C 411.844,38.1705 421.844,44.8372 431.5,52C 437.943,53.0861 444.276,54.5861 450.5,56.5C 450.343,57.8734 450.51,59.2068 451,60.5C 453.445,61.9771 455.612,63.8104 457.5,66C 452.438,68.7333 450.605,72.9 452,78.5C 455,83.1667 458,87.8333 461,92.5C 475.583,101.208 490.083,110.041 504.5,119C 507.206,121.371 509.539,124.037 511.5,127C 506.845,126.836 502.179,126.836 497.5,127C 494.082,127.489 492.749,129.489 493.5,133C 493.565,135.591 494.065,138.091 495,140.5C 505.679,160.188 513.845,180.855 519.5,202.5C 519.333,203.5 519.167,204.5 519,205.5C 513.879,202.611 508.379,201.777 502.5,203C 500.951,204.214 499.785,205.714 499,207.5C 498.333,213.833 498.333,220.167 499,226.5C 502.597,244.722 506.431,262.888 510.5,281C 511.381,285.46 509.881,286.96 506,285.5C 503.278,287.573 500.112,288.573 496.5,288.5C 496.446,300.189 496.946,311.856 498,323.5C 500.198,327.594 501.698,331.927 502.5,336.5C 501.402,340.756 500.069,344.922 498.5,349C 498.957,352.085 499.623,355.085 500.5,358C 499.552,358.483 498.552,358.649 497.5,358.5C 497.334,364.842 497.5,371.175 498,377.5C 498.029,382.394 498.862,387.061 500.5,391.5C 499.312,396.819 498.312,402.152 497.5,407.5 Z"/></g>
<g><path style="opacity:1" fill="#2f2c28" d="M 498.5,49.5 C 499.239,49.369 499.906,49.5357 500.5,50C 496.721,56.1117 492.555,61.9451 488,67.5C 487.349,69.235 487.515,70.9017 488.5,72.5C 494.321,75.1906 500.321,77.3573 506.5,79C 499.475,80.3151 497.308,84.1484 500,90.5C 535.495,125.316 564.829,164.649 588,208.5C 593.468,223.052 593.801,237.718 589,252.5C 572.205,284.549 557.539,317.549 545,351.5C 539.737,365.882 535.404,380.549 532,395.5C 527.046,403.962 520.88,404.795 513.5,398C 510.333,394.167 507.167,390.333 504,386.5C 503.528,380.664 503.028,374.831 502.5,369C 502.351,364.981 503.351,361.314 505.5,358C 505.094,355.343 504.76,352.676 504.5,350C 508.844,339.947 508.344,330.114 503,320.5C 502.215,311.513 501.715,302.513 501.5,293.5C 505.084,292.454 508.75,291.621 512.5,291C 514.978,287.999 515.978,284.499 515.5,280.5C 511.831,261.486 507.997,242.486 504,223.5C 503.324,218.129 503.491,212.796 504.5,207.5C 510.222,207.204 515.222,208.87 519.5,212.5C 521.205,211.455 522.705,210.122 524,208.5C 524.896,198.742 523.23,189.409 519,180.5C 513.042,164.461 506.208,148.795 498.5,133.5C 499.328,132.585 500.328,131.919 501.5,131.5C 506.837,133.357 511.67,132.691 516,129.5C 516.667,127.5 516.667,125.5 516,123.5C 512.318,119.651 508.485,115.984 504.5,112.5C 490.823,104.442 477.323,96.109 464,87.5C 461.709,83.0432 459.209,78.7099 456.5,74.5C 457.949,72.1822 459.782,70.1822 462,68.5C 462.808,66.4213 462.641,64.4213 461.5,62.5C 460.019,61.5197 458.685,60.353 457.5,59C 467.147,57.2254 476.814,55.5588 486.5,54C 490.837,53.0948 494.837,51.5948 498.5,49.5 Z"/></g>
<g><path style="opacity:1" fill="#2f2c28" d="M 99.5,50.5 C 113.649,54.4536 127.982,57.6202 142.5,60C 138.113,61.5189 136.78,64.3523 138.5,68.5C 140.833,70.1667 142.833,72.1667 144.5,74.5C 140.279,79.3645 136.946,84.6978 134.5,90.5C 116.396,98.3898 100.063,109.056 85.5,122.5C 82.351,128.386 84.0176,132.386 90.5,134.5C 93.9174,133.653 97.2508,132.653 100.5,131.5C 100.357,133.262 100.691,134.929 101.5,136.5C 90.837,155.167 82.337,174.833 76,195.5C 75.3333,200.167 75.3333,204.833 76,209.5C 78.8954,214.225 82.3954,214.725 86.5,211C 88.9046,206.531 92.4046,205.031 97,206.5C 97.6667,211.167 97.6667,215.833 97,220.5C 93.1514,241.909 88.9847,263.243 84.5,284.5C 84.4345,291.271 87.6012,293.604 94,291.5C 95.3002,292.707 96.8002,293.374 98.5,293.5C 98.6665,303.506 98.4998,313.506 98,323.5C 93.1887,331.991 93.3554,340.325 98.5,348.5C 96.7775,355.246 97.4442,361.58 100.5,367.5C 99.8282,372.522 98.9949,377.522 98,382.5C 93.8782,388.291 89.3782,393.791 84.5,399C 76.668,404.894 70.8346,403.394 67,394.5C 54.1533,346.626 35.82,300.959 12,257.5C 5.72866,242.379 5.062,227.046 10,211.5C 13.4728,203.221 17.4728,195.221 22,187.5C 43.8611,152.288 69.5278,119.954 99,90.5C 100.373,88.3046 100.706,85.9712 100,83.5C 97.7068,81.6277 95.2068,80.1277 92.5,79C 98.8381,77.3057 105.005,75.139 111,72.5C 111.667,70.8333 111.667,69.1667 111,67.5C 106.528,62.2076 102.695,56.5409 99.5,50.5 Z"/></g>
<g><path style="opacity:1" fill="#4d3c2e" d="M 213.5,135.5 C 237.539,132.441 257.372,140.108 273,158.5C 273.262,184.188 268.262,208.855 258,232.5C 251.879,246.743 245.212,260.743 238,274.5C 225.569,294.593 213.569,314.926 202,335.5C 194.858,351.403 190.858,368.069 190,385.5C 173.221,340.162 159.887,293.828 150,246.5C 148.811,238.526 148.478,230.526 149,222.5C 154.118,198.48 162.784,175.814 175,154.5C 179.603,149.896 184.77,146.062 190.5,143C 198.261,140.356 205.928,137.856 213.5,135.5 Z"/></g>
<g><path style="opacity:1" fill="#4d3c2e" d="M 359.5,135.5 C 379.505,133.997 398.172,138.164 415.5,148C 422.61,155.044 428.11,163.211 432,172.5C 438.251,187.091 443.251,202.091 447,217.5C 449.358,233.349 448.358,249.016 444,264.5C 436.886,287.958 430.552,311.624 425,335.5C 420.774,349.516 415.774,363.183 410,376.5C 407.585,363.514 403.919,350.848 399,338.5C 394.04,332.25 390.374,325.25 388,317.5C 371.196,292.23 356.196,265.897 343,238.5C 336.988,220.795 331.988,202.795 328,184.5C 326.705,175.195 326.372,165.862 327,156.5C 336.042,146.572 346.875,139.572 359.5,135.5 Z"/></g>
<g><path style="opacity:1" fill="#906834" d="M 191.5,217.5 C 203.31,228.563 214.477,227.897 225,215.5C 228.087,208.893 228.254,202.227 225.5,195.5C 227.997,192.918 230.997,191.418 234.5,191C 241.071,206.717 237.738,220.05 224.5,231C 208.756,239.031 195.09,236.531 183.5,223.5C 185.473,220.52 188.14,218.52 191.5,217.5 Z"/></g>
<g><path style="opacity:1" fill="#906834" d="M 373.5,195.5 C 368.999,206.823 371.665,215.99 381.5,223C 391.483,227.17 400.15,225.336 407.5,217.5C 410.503,219.007 413.17,221.007 415.5,223.5C 407.255,233.751 396.588,237.584 383.5,235C 368.994,229.817 361.327,219.483 360.5,204C 360.808,199.077 362.308,194.577 365,190.5C 368.276,191.55 371.11,193.216 373.5,195.5 Z"/></g>
<g><path style="opacity:1" fill="#010100" d="M 225.5,195.5 C 228.254,202.227 228.087,208.893 225,215.5C 214.477,227.897 203.31,228.563 191.5,217.5C 201.508,208.16 212.841,200.827 225.5,195.5 Z"/></g>
<g><path style="opacity:1" fill="#010100" d="M 373.5,195.5 C 386.159,200.827 397.492,208.16 407.5,217.5C 400.15,225.336 391.483,227.17 381.5,223C 371.665,215.99 368.999,206.823 373.5,195.5 Z"/></g>
<g><path style="opacity:1" fill="#000000" d="M 295.5,322.5 C 308.79,322.431 321.79,324.265 334.5,328C 353.912,336.494 360.245,350.828 353.5,371C 343.572,389.225 328.238,400.225 307.5,404C 285.702,405.29 267.535,397.79 253,381.5C 244.807,371.054 242.474,359.387 246,346.5C 251.062,336.116 259.229,329.283 270.5,326C 278.931,324.451 287.264,323.284 295.5,322.5 Z"/></g>
<g><path style="opacity:1" fill="#5e4a36" d="M 114.5,448.5 C 108.665,432.989 104.665,416.989 102.5,400.5C 103.958,402.932 105.125,405.599 106,408.5C 107.868,409.672 109.702,409.505 111.5,408C 114.216,404.739 117.049,401.572 120,398.5C 120.333,399.167 120.667,399.833 121,400.5C 119.805,416.734 117.638,432.734 114.5,448.5 Z"/></g>
<g><path style="opacity:1" fill="#5e4a36" d="M 497.5,407.5 C 492.87,441.264 477.87,469.431 452.5,492C 449.11,495.196 445.11,497.029 440.5,497.5C 440.311,492.839 440.978,488.339 442.5,484C 442,483.5 441.5,483 441,482.5C 439,484.5 437,486.5 435,488.5C 428.583,499.003 421.916,509.337 415,519.5C 407.756,529.586 398.59,537.253 387.5,542.5C 385.261,542.426 384.261,541.259 384.5,539C 384.934,536.432 385.6,533.932 386.5,531.5C 385.635,530.417 384.635,530.251 383.5,531C 372.51,549.007 357.51,562.674 338.5,572C 325.681,577.245 313.015,582.745 300.5,588.5C 282.338,581.391 264.672,573.225 247.5,564C 241.698,559.2 236.198,554.033 231,548.5C 226.749,541.416 221.583,535.083 215.5,529.5C 215.167,530.333 214.833,531.167 214.5,532C 217.918,542.265 215.252,544.599 206.5,539C 200.031,533.532 193.864,527.699 188,521.5C 179.784,508.232 170.951,495.399 161.5,483C 160.552,482.517 159.552,482.351 158.5,482.5C 159.338,487.165 159.838,491.831 160,496.5C 158.951,497.517 157.784,497.684 156.5,497C 140.106,485.271 127.272,470.437 118,452.5C 117.329,451.748 116.496,451.414 115.5,451.5C 117.73,448.351 120.397,445.684 123.5,443.5C 127.676,457.19 133.509,470.19 141,482.5C 141.739,483.574 142.739,484.241 144,484.5C 146.321,483.513 147.987,481.846 149,479.5C 155.637,467.251 161.304,454.585 166,441.5C 166.671,451.532 167.671,461.532 169,471.5C 169.706,475.325 170.872,478.992 172.5,482.5C 173.328,483.415 174.328,484.081 175.5,484.5C 177.817,482.684 179.984,480.684 182,478.5C 191.136,463.196 201.97,449.196 214.5,436.5C 223.214,452.881 235.881,465.214 252.5,473.5C 255.244,490.501 263.244,504.334 276.5,515C 293.831,524.388 310.497,523.388 326.5,512C 329.715,508.291 332.715,504.458 335.5,500.5C 341.087,491.642 344.754,481.975 346.5,471.5C 346.5,470.833 346.833,470.5 347.5,470.5C 354.057,467.632 359.89,463.632 365,458.5C 371.788,449.902 378.288,441.236 384.5,432.5C 384.343,433.873 384.51,435.207 385,436.5C 395.567,446.397 405.4,456.897 414.5,468C 418.607,472.25 422.774,472.417 427,468.5C 429.944,460.909 432.444,453.242 434.5,445.5C 435.822,445.33 436.989,445.663 438,446.5C 442.378,459.088 448.211,470.922 455.5,482C 456.635,482.749 457.635,482.583 458.5,481.5C 462.586,474.997 466.419,468.33 470,461.5C 478.173,446.136 480.007,430.136 475.5,413.5C 477.32,408.997 478.653,404.33 479.5,399.5C 480.552,399.351 481.552,399.517 482.5,400C 485.517,403.086 488.517,406.086 491.5,409C 493.689,409.322 495.689,408.822 497.5,407.5 Z"/></g>
<g><path style="opacity:1" fill="#020100" d="M 247.5,437.5 C 248.497,449.463 250.164,461.463 252.5,473.5C 235.881,465.214 223.214,452.881 214.5,436.5C 212.986,433.308 211.32,430.141 209.5,427C 209.833,426.833 210.167,426.667 210.5,426.5C 221.408,434.647 233.741,438.314 247.5,437.5 Z"/></g>
<g><path style="opacity:1" fill="#f19c9f" d="M 350.5,437.5 C 350.094,448.559 349.094,459.559 347.5,470.5C 346.833,470.5 346.5,470.833 346.5,471.5C 343.159,481.2 339.493,490.867 335.5,500.5C 332.715,504.458 329.715,508.291 326.5,512C 310.497,523.388 293.831,524.388 276.5,515C 263.244,504.334 255.244,490.501 252.5,473.5C 250.164,461.463 248.497,449.463 247.5,437.5C 264.674,435.355 282.007,433.355 299.5,431.5C 316.685,433.149 333.685,435.149 350.5,437.5 Z"/></g>
<g><path style="opacity:1" fill="#010000" d="M 384.5,432.5 C 378.288,441.236 371.788,449.902 365,458.5C 359.89,463.632 354.057,467.632 347.5,470.5C 349.094,459.559 350.094,448.559 350.5,437.5C 362.345,438.222 373.511,435.889 384,430.5C 384.464,431.094 384.631,431.761 384.5,432.5 Z"/></g>
<g><path style="opacity:1" fill="#c4837f" d="M 346.5,471.5 C 344.754,481.975 341.087,491.642 335.5,500.5C 339.493,490.867 343.159,481.2 346.5,471.5 Z"/></g>
</svg>
