<?xml version="1.0" encoding="UTF-8"?>
<!DOCTYPE svg PUBLIC "-//W3C//DTD SVG 1.1//EN" "http://www.w3.org/Graphics/SVG/1.1/DTD/svg11.dtd">
<svg xmlns="http://www.w3.org/2000/svg" version="1.1" width="600px" height="600px" style="shape-rendering:geometricPrecision; text-rendering:geometricPrecision; image-rendering:optimizeQuality; fill-rule:evenodd; clip-rule:evenodd" xmlns:xlink="http://www.w3.org/1999/xlink">
<g><path style="opacity:0.964" fill="#040201" d="M 243.5,-0.5 C 280.167,-0.5 316.833,-0.5 353.5,-0.5C 379.65,7.27716 404.316,18.4438 427.5,33C 436.361,40.5218 442.861,49.6884 447,60.5C 459.967,71.7986 472.634,83.4652 485,95.5C 492.231,104.176 496.564,114.176 498,125.5C 499.333,128.167 500.667,130.833 502,133.5C 510.667,144.167 519.333,154.833 528,165.5C 535.569,175.54 539.569,186.873 540,199.5C 541.136,203.243 542.47,206.91 544,210.5C 552.543,226.252 560.543,242.252 568,258.5C 571.154,270.685 573.487,283.018 575,295.5C 581.985,310.787 587.985,326.453 593,342.5C 593.941,346.611 594.441,350.778 594.5,355C 592.293,372.016 593.96,388.516 599.5,404.5C 599.5,423.167 599.5,441.833 599.5,460.5C 598.618,474.006 597.785,487.672 597,501.5C 596.454,513.594 591.454,523.261 582,530.5C 576.528,540.447 571.861,550.78 568,561.5C 564.614,570.448 558.781,577.281 550.5,582C 534.763,586.212 519.763,592.045 505.5,599.5C 489.833,599.5 474.167,599.5 458.5,599.5C 446.206,594.008 433.539,589.175 420.5,585C 408.602,580.424 399.102,572.924 392,562.5C 386.817,549.959 379.984,538.459 371.5,528C 366.01,527.294 360.677,525.961 355.5,524C 349.903,520.872 344.236,518.039 338.5,515.5C 325.44,517.85 312.273,519.183 299,519.5C 284.418,518.828 269.918,517.661 255.5,516C 247.221,522.32 237.887,526.32 227.5,528C 218.202,540.752 210.036,554.252 203,568.5C 195.502,576.328 186.668,582.161 176.5,586C 164.052,589.645 152.052,594.145 140.5,599.5C 125.167,599.5 109.833,599.5 94.5,599.5C 79.7868,592.321 64.4535,586.488 48.5,582C 40.889,577.722 35.389,571.555 32,563.5C 28.217,553.267 23.8837,543.267 19,533.5C 16.6667,529.833 13.6667,526.833 10,524.5C 5.49455,517.158 2.82788,509.158 2,500.5C 1.49347,486.323 0.660135,472.323 -0.5,458.5C -0.5,440.833 -0.5,423.167 -0.5,405.5C 5.24305,389.031 6.90972,372.031 4.5,354.5C 4.95844,348.041 6.12511,341.707 8,335.5C 14,320.167 20,304.833 26,289.5C 26.181,277.08 28.5143,265.08 33,253.5C 42.1411,236.037 50.8078,218.371 59,200.5C 59.3078,190.956 61.6411,181.956 66,173.5C 75.2381,160.258 85.2381,147.592 96,135.5C 100.58,124.599 104.914,113.599 109,102.5C 113.245,96.5312 118.078,91.0312 123.5,86C 133.965,77.2033 144.132,68.0367 154,58.5C 159.236,43.9306 168.736,33.0972 182.5,26C 201.969,14.9261 222.302,6.09276 243.5,-0.5 Z"/></g>
<g><path style="opacity:1" fill="#6d503b" d="M 385.5,22.5 C 421.104,44.6555 443.938,76.3222 454,117.5C 461.495,148.112 463.495,179.112 460,210.5C 458.132,225.906 455.799,241.239 453,256.5C 448.113,273.117 444.113,289.783 441,306.5C 432.996,329.771 424.496,352.104 415.5,373.5C 414.5,373.5 413.5,373.5 412.5,373.5C 407.808,346.931 398.642,321.931 385,298.5C 368.08,270.987 350.413,243.987 332,217.5C 321.895,203.184 315.729,187.35 313.5,170C 314.283,160.219 315.116,150.385 316,140.5C 319.101,121.226 321.768,101.892 324,82.5C 324.667,72.1667 324.667,61.8333 324,51.5C 320.413,32.9387 309.247,25.772 290.5,30C 279.311,33.1634 273.478,40.6634 273,52.5C 272.263,65.5265 272.596,78.5265 274,91.5C 277.657,115.276 280.824,139.11 283.5,163C 283.519,177.423 280.019,190.923 273,203.5C 254.679,230.129 236.346,256.796 218,283.5C 205.717,302.99 195.717,323.657 188,345.5C 186.049,352.754 184.549,360.087 183.5,367.5C 167.591,330.574 154.425,292.574 144,253.5C 140.137,236.321 137.137,218.988 135,201.5C 131.156,161.247 137.156,122.581 153,85.5C 164.363,62.312 180.53,43.312 201.5,28.5C 238.098,7.94718 277.431,0.113849 319.5,5C 342.636,6.65826 364.636,12.4916 385.5,22.5 Z"/></g>
<g><path style="opacity:1" fill="#4b311f" d="M 385.5,22.5 C 400.187,27.7086 413.521,35.2086 425.5,45C 429.93,49.7657 433.097,55.2657 435,61.5C 436.667,63.8333 438.333,66.1667 440,68.5C 452.967,79.7986 465.634,91.4652 478,103.5C 483.926,111.491 487.593,120.491 489,130.5C 490.333,133.167 491.667,135.833 493,138.5C 503,151.167 513,163.833 523,176.5C 527.671,184.514 530.005,193.181 530,202.5C 531.136,206.243 532.47,209.91 534,213.5C 541.937,228.375 549.604,243.375 557,258.5C 558.535,262.773 559.869,267.106 561,271.5C 561.151,279.613 562.151,287.613 564,295.5C 570.196,310.42 576.196,325.42 582,340.5C 583.211,345.267 584.045,350.1 584.5,355C 582.744,362.415 582.244,369.915 583,377.5C 586.019,392.908 589.352,408.241 593,423.5C 593.667,429.833 593.667,436.167 593,442.5C 590.45,448.246 588.784,454.246 588,460.5C 587.667,473.167 587.333,485.833 587,498.5C 586.317,503.234 585.317,507.9 584,512.5C 579.667,517.833 575.333,523.167 571,528.5C 565.806,539.75 560.806,551.084 556,562.5C 553.167,566.667 549.667,570.167 545.5,573C 528.918,577.417 512.918,583.417 497.5,591C 489.728,593.946 481.728,595.28 473.5,595C 470.339,593.587 467.339,591.92 464.5,590C 450.833,585 437.167,580 423.5,575C 414.86,571.353 407.693,565.853 402,558.5C 395.467,543.919 387.3,530.419 377.5,518C 394.316,514.855 405.149,505.021 410,488.5C 411.754,480.072 413.254,471.739 414.5,463.5C 415.317,461.031 415.817,458.365 416,455.5C 416.667,435.833 416.667,416.167 416,396.5C 415.802,394.618 415.302,392.952 414.5,391.5C 413.795,385.601 413.128,379.601 412.5,373.5C 413.5,373.5 414.5,373.5 415.5,373.5C 424.496,352.104 432.996,329.771 441,306.5C 444.113,289.783 448.113,273.117 453,256.5C 455.799,241.239 458.132,225.906 460,210.5C 463.495,179.112 461.495,148.112 454,117.5C 443.938,76.3222 421.104,44.6555 385.5,22.5 Z"/></g>
<g><path style="opacity:1" fill="#4b311f" d="M 201.5,28.5 C 180.53,43.312 164.363,62.312 153,85.5C 137.156,122.581 131.156,161.247 135,201.5C 137.137,218.988 140.137,236.321 144,253.5C 154.425,292.574 167.591,330.574 183.5,367.5C 182.746,372.463 182.413,377.463 182.5,382.5C 181.691,384.292 181.191,386.292 181,388.5C 180.171,407.005 180.338,425.338 181.5,443.5C 180.587,463.427 184.42,482.427 193,500.5C 199.775,510.768 209.275,516.768 221.5,518.5C 211.846,530.339 204.013,543.339 198,557.5C 192.116,565.365 184.616,571.198 175.5,575C 158.409,579.916 142.076,586.583 126.5,595C 121.109,595.692 115.775,595.359 110.5,594C 96.2735,588.887 82.2735,583.22 68.5,577C 63.5435,575.511 58.5435,574.178 53.5,573C 50.7047,571.207 48.2047,569.04 46,566.5C 39.8616,555.222 34.5283,543.555 30,531.5C 27.4005,525.635 23.4005,520.969 18,517.5C 15.4215,513.202 13.7548,508.535 13,503.5C 12.0622,489.18 11.3955,474.846 11,460.5C 10.578,454.145 8.91137,448.145 6,442.5C 5.253,435.118 5.58633,427.785 7,420.5C 10.1565,406.873 13.1565,393.207 16,379.5C 16.4583,371.162 16.2917,362.828 15.5,354.5C 15.4848,350.098 15.9848,345.765 17,341.5C 22.3896,327.055 28.0563,312.721 34,298.5C 36.4701,287.246 38.4701,275.912 40,264.5C 47.8665,246.434 56.5332,228.767 66,211.5C 68.6456,202.652 70.6456,193.652 72,184.5C 74.3333,180.5 76.6667,176.5 79,172.5C 90.8699,159.968 101.203,146.301 110,131.5C 111.137,120.586 115.137,110.919 122,102.5C 135.523,90.3992 148.857,78.0659 162,65.5C 164.794,56.0714 169.961,48.2381 177.5,42C 184.921,36.3983 192.921,31.8983 201.5,28.5 Z"/></g>
<g><path style="opacity:1" fill="#b67635" d="M 338.5,499.5 C 336.833,498.833 335.167,498.167 333.5,497.5C 324.049,487.69 312.549,481.69 299,479.5C 285.086,481.204 273.586,487.204 264.5,497.5C 262.678,497.831 261.011,498.498 259.5,499.5C 256.813,499.336 254.146,499.503 251.5,500C 243.003,507.748 233.003,511.915 221.5,512.5C 210.08,511.871 201.58,506.537 196,496.5C 192.458,489.207 190.125,481.54 189,473.5C 186.69,443.872 186.024,414.205 187,384.5C 188.754,358.986 195.754,334.986 208,312.5C 213,303.833 218,295.167 223,286.5C 241.333,259.833 259.667,233.167 278,206.5C 287.067,189.258 290.4,170.925 288,151.5C 284.907,130.85 281.907,110.183 279,89.5C 277.64,77.8599 277.307,66.1933 278,54.5C 279.887,38.6343 288.721,32.1343 304.5,35C 313.248,37.9539 318.081,44.1206 319,53.5C 319.8,79.1073 317.466,104.441 312,129.5C 310.352,142.965 309.185,156.465 308.5,170C 309.88,186.473 315.046,201.639 324,215.5C 340.333,240.167 356.667,264.833 373,289.5C 387.558,312.948 398.558,337.948 406,364.5C 407.633,374.125 408.966,383.792 410,393.5C 410.667,416.167 410.667,438.833 410,461.5C 409.867,475.5 406.2,488.5 399,500.5C 389.619,512.069 377.786,515.569 363.5,511C 357.236,507.73 351.236,504.064 345.5,500C 343.19,499.503 340.857,499.337 338.5,499.5 Z"/></g>
<g><path style="opacity:1" fill="#b47434" d="M 204.5,142.5 C 229.157,141.675 244.99,153.008 252,176.5C 254.112,203.048 242.279,219.548 216.5,226C 191.351,226.672 175.518,214.838 169,190.5C 168.071,164.944 179.904,148.944 204.5,142.5 Z"/></g>
<g><path style="opacity:1" fill="#b47434" d="M 376.5,142.5 C 401.182,141.706 417.015,153.04 424,176.5C 426.094,203.062 414.261,219.562 388.5,226C 371.431,227.547 357.931,221.381 348,207.5C 335.677,185.448 339.177,166.282 358.5,150C 364.27,146.605 370.27,144.105 376.5,142.5 Z"/></g>
<g><path style="opacity:1" fill="#302826" d="M 209.5,155.5 C 230.064,157.564 239.564,168.897 238,189.5C 233.289,207.12 221.789,214.62 203.5,212C 187.786,205.418 181.286,193.584 184,176.5C 188.236,164.08 196.736,157.08 209.5,155.5 Z"/></g>
<g><path style="opacity:1" fill="#302826" d="M 381.5,155.5 C 402.356,157.866 411.856,169.532 410,190.5C 404.685,207.415 393.185,214.582 375.5,212C 365.262,208.761 358.762,201.928 356,191.5C 353.171,171.198 361.671,159.198 381.5,155.5 Z"/></g>
<g><path style="opacity:1" fill="#f6f6f6" d="M 387.5,167.5 C 393.523,166.197 397.189,168.53 398.5,174.5C 396.091,181.702 391.591,183.369 385,179.5C 382.523,174.669 383.356,170.669 387.5,167.5 Z"/></g>
<g><path style="opacity:1" fill="#f4f3f3" d="M 215.5,168.5 C 224.049,168.521 226.716,172.354 223.5,180C 215.246,183.081 211.746,180.248 213,171.5C 214.045,170.627 214.878,169.627 215.5,168.5 Z"/></g>
<g><path style="opacity:1" fill="#302826" d="M 285.5,333.5 C 303.989,331.966 321.989,334.133 339.5,340C 355.393,347.958 361.56,360.791 358,378.5C 355.36,388.815 349.86,397.315 341.5,404C 307.395,427.842 276.229,424.342 248,393.5C 239.348,380.358 238.348,366.692 245,352.5C 249.643,346.532 255.476,342.032 262.5,339C 270.101,336.348 277.768,334.515 285.5,333.5 Z"/></g>
<g><path style="opacity:1" fill="#2f1f14" d="M 182.5,382.5 C 181.616,402.819 181.282,423.152 181.5,443.5C 180.338,425.338 180.171,407.005 181,388.5C 181.191,386.292 181.691,384.292 182.5,382.5 Z"/></g>
<g><path style="opacity:1" fill="#301f14" d="M 414.5,391.5 C 415.302,392.952 415.802,394.618 416,396.5C 416.667,416.167 416.667,435.833 416,455.5C 415.817,458.365 415.317,461.031 414.5,463.5C 415.695,439.492 415.695,415.492 414.5,391.5 Z"/></g>
<g><path style="opacity:1" fill="#312826" d="M 333.5,497.5 C 322.023,498.498 310.523,499.164 299,499.5C 287.477,499.164 275.977,498.498 264.5,497.5C 273.586,487.204 285.086,481.204 299,479.5C 312.549,481.69 324.049,487.69 333.5,497.5 Z"/></g>
<g><path style="opacity:1" fill="#a86c31" d="M 264.5,497.5 C 275.977,498.498 287.477,499.164 299,499.5C 310.523,499.164 322.023,498.498 333.5,497.5C 335.167,498.167 336.833,498.833 338.5,499.5C 325.668,502.713 312.501,504.046 299,503.5C 285.491,504.079 272.324,502.745 259.5,499.5C 261.011,498.498 262.678,497.831 264.5,497.5 Z"/></g>
</svg>
