<?xml version="1.0" encoding="UTF-8"?>
<!DOCTYPE svg PUBLIC "-//W3C//DTD SVG 1.1//EN" "http://www.w3.org/Graphics/SVG/1.1/DTD/svg11.dtd">
<svg xmlns="http://www.w3.org/2000/svg" version="1.1" width="600px" height="600px" style="shape-rendering:geometricPrecision; text-rendering:geometricPrecision; image-rendering:optimizeQuality; fill-rule:evenodd; clip-rule:evenodd" xmlns:xlink="http://www.w3.org/1999/xlink">
<g><path style="opacity:0.952" fill="#030100" d="M 99.5,-0.5 C 112.5,-0.5 125.5,-0.5 138.5,-0.5C 149.627,7.1897 159.794,16.1897 169,26.5C 182.167,41.6667 195.333,56.8333 208.5,72C 220.608,80.0926 233.941,84.9259 248.5,86.5C 278.082,82.4808 307.748,81.6475 337.5,84C 347.546,86.5538 357.713,88.3871 368,89.5C 371.786,89.7761 375.286,88.9427 378.5,87C 396.452,66.2598 414.285,45.4264 432,24.5C 441.101,15.5566 450.601,7.22329 460.5,-0.5C 473.833,-0.5 487.167,-0.5 500.5,-0.5C 508.492,6.66838 514.325,15.335 518,25.5C 526.834,55.1676 531,85.501 530.5,116.5C 529.44,154.446 526.773,192.28 522.5,230C 525.406,245.797 528.239,261.63 531,277.5C 542.84,344.804 531.506,407.804 497,466.5C 468.597,515.57 430.097,554.736 381.5,584C 369.421,590.073 357.087,595.24 344.5,599.5C 315.833,599.5 287.167,599.5 258.5,599.5C 220.303,584.805 187.137,562.472 159,532.5C 126.665,498.181 99.998,459.848 79,417.5C 64.458,378.616 60.458,338.616 67,297.5C 70.2475,278.597 73.7475,259.764 77.5,241C 72.8171,199.788 69.8171,158.455 68.5,117C 67.8056,85.0499 72.3056,53.8832 82,23.5C 85.796,13.8916 91.6294,5.89155 99.5,-0.5 Z"/></g>
<g><path style="opacity:1" fill="#c87f3d" d="M 479.5,3.5 C 485.913,3.80294 491.58,5.96961 496.5,10C 505.683,21.2066 511.516,34.04 514,48.5C 516.569,61.3841 518.236,74.3841 519,87.5C 520.39,136.033 517.89,184.366 511.5,232.5C 526.142,284.643 528.308,337.309 518,390.5C 495.771,463.49 453.605,521.99 391.5,566C 363.658,584.085 333.158,593.919 300,595.5C 273.159,594.664 248.326,587.164 225.5,573C 198.334,555.848 174.167,535.014 153,510.5C 128.034,481.924 107.034,450.591 90,416.5C 82.4613,399.612 77.7947,381.946 76,363.5C 72.7241,325.476 76.3908,288.142 87,251.5C 87.1667,247.833 87.3333,244.167 87.5,240.5C 84.588,208.202 82.088,175.869 80,143.5C 78.4069,113.352 79.7403,83.3519 84,53.5C 86.3015,39.9255 90.9682,27.2588 98,15.5C 107.015,3.80873 118.182,1.30873 131.5,8C 143.184,15.6751 153.684,24.8418 163,35.5C 175.5,50 188,64.5 200.5,79C 223.431,95.7288 248.764,100.729 276.5,94C 295.5,93.3333 314.5,93.3333 333.5,94C 341.333,94.9164 348.999,96.5831 356.5,99C 371.887,103.193 384.387,99.0265 394,86.5C 412.299,62.4517 432.132,39.6183 453.5,18C 461.254,11.2954 469.92,6.46206 479.5,3.5 Z"/></g>
<g><path style="opacity:1" fill="#57371a" d="M 130.5,37.5 C 128.473,37.3379 126.473,37.5045 124.5,38C 122.686,40.4795 121.019,42.9795 119.5,45.5C 120.023,37.9326 123.69,35.2659 130.5,37.5 Z"/></g>
<g><path style="opacity:1" fill="#56371a" d="M 484.5,72.5 C 483.358,61.6421 480.858,50.9754 477,40.5C 474.321,37.1654 471.155,36.6654 467.5,39C 463.269,43.0621 459.269,47.2288 455.5,51.5C 458.173,46.3134 461.84,41.8134 466.5,38C 475.11,34.8977 479.944,38.0644 481,47.5C 483.148,55.7006 484.314,64.0339 484.5,72.5 Z"/></g>
<g><path style="opacity:1" fill="#0b0603" d="M 130.5,37.5 C 132.027,37.427 133.027,38.0937 133.5,39.5C 134.833,41.5 136.5,43.1667 138.5,44.5C 139.08,46.7488 140.413,48.4154 142.5,49.5C 145.004,54.5146 148.004,59.1813 151.5,63.5C 151.992,65.8185 152.992,67.8185 154.5,69.5C 155.674,70.5137 156.34,71.847 156.5,73.5C 158.989,80.9729 161.656,88.3063 164.5,95.5C 165.964,103.944 167.297,112.277 168.5,120.5C 169.833,122.833 169.833,125.167 168.5,127.5C 167.419,130.627 166.753,133.96 166.5,137.5C 164.79,143.924 161.79,149.591 157.5,154.5C 151.798,161.203 145.464,167.203 138.5,172.5C 135.256,173.463 132.256,174.796 129.5,176.5C 123.254,178.901 118.254,177.234 114.5,171.5C 112.217,172.321 109.884,172.988 107.5,173.5C 105.962,173.547 104.962,172.88 104.5,171.5C 105.94,162.343 108.106,153.343 111,144.5C 111.498,141.183 111.665,137.85 111.5,134.5C 106.351,134.993 101.684,136.659 97.5,139.5C 95.3352,139.884 93.6685,139.217 92.5,137.5C 93.4565,135.925 94.1231,134.258 94.5,132.5C 97.4686,129.358 100.302,126.025 103,122.5C 104.705,120.423 105.872,118.09 106.5,115.5C 106.843,113.517 106.176,112.183 104.5,111.5C 101.171,111.998 98.0047,112.998 95,114.5C 93.3964,113.932 92.7297,112.932 93,111.5C 95.0396,109.63 96.8729,107.63 98.5,105.5C 104.073,102.43 108.906,98.4299 113,93.5C 114.131,87.888 114.631,82.2213 114.5,76.5C 114.187,72.9581 114.521,69.6248 115.5,66.5C 116.709,62.3819 117.376,58.0485 117.5,53.5C 118.768,51.0948 119.435,48.4282 119.5,45.5C 121.019,42.9795 122.686,40.4795 124.5,38C 126.473,37.5045 128.473,37.3379 130.5,37.5 Z"/></g>
<g><path style="opacity:1" fill="#050301" d="M 484.5,72.5 C 484.397,79.3859 485.064,86.0526 486.5,92.5C 488.262,93.2623 489.262,94.5956 489.5,96.5C 491.193,99.1897 493.527,101.19 496.5,102.5C 498.404,102.738 499.738,103.738 500.5,105.5C 502.477,107.814 504.477,110.147 506.5,112.5C 505.68,114.111 504.346,114.778 502.5,114.5C 501.209,114.737 500.209,114.404 499.5,113.5C 497.208,111.733 494.542,110.733 491.5,110.5C 491.259,113.794 492.092,116.794 494,119.5C 497.04,124.269 500.54,128.603 504.5,132.5C 504.877,134.258 505.544,135.925 506.5,137.5C 506.291,138.086 505.957,138.586 505.5,139C 501.759,138.702 498.092,137.869 494.5,136.5C 492.562,134.837 490.228,134.171 487.5,134.5C 487.122,141.305 488.455,147.639 491.5,153.5C 492.338,158.519 493.338,163.519 494.5,168.5C 494.377,169.925 494.043,171.258 493.5,172.5C 490.447,172.089 487.447,171.423 484.5,170.5C 482.146,172.188 480.146,174.188 478.5,176.5C 473.699,176.65 469.033,175.984 464.5,174.5C 461.669,173.921 459.336,172.588 457.5,170.5C 454.769,166.766 451.436,163.766 447.5,161.5C 441.292,154.088 436.459,145.754 433,136.5C 431.63,128.236 431.13,119.903 431.5,111.5C 432.942,106.709 433.942,101.709 434.5,96.5C 436.739,91.7841 438.405,86.7841 439.5,81.5C 439.402,79.4471 440.069,77.7804 441.5,76.5C 446.159,68.1716 450.825,59.8382 455.5,51.5C 459.269,47.2288 463.269,43.0621 467.5,39C 471.155,36.6654 474.321,37.1654 477,40.5C 480.858,50.9754 483.358,61.6421 484.5,72.5 Z"/></g>
<g><path style="opacity:1" fill="#58391a" d="M 133.5,39.5 C 136.167,40.1667 137.833,41.8333 138.5,44.5C 136.5,43.1667 134.833,41.5 133.5,39.5 Z"/></g>
<g><path style="opacity:1" fill="#e1a263" d="M 126.5,42.5 C 128.963,42.7811 131.13,43.7811 133,45.5C 153.736,70.3716 163.736,99.0383 163,131.5C 158.689,145.464 150.856,156.964 139.5,166C 135.111,169.11 130.278,171.277 125,172.5C 121.914,171.747 119.748,169.914 118.5,167C 115.571,166.223 112.737,166.39 110,167.5C 111.174,160.466 112.841,153.466 115,146.5C 115.667,141.833 115.667,137.167 115,132.5C 110.733,129.894 106.399,129.894 102,132.5C 104.43,127.682 107.43,123.015 111,118.5C 111.667,115.167 111.667,111.833 111,108.5C 109.829,107.107 108.329,106.273 106.5,106C 110.667,103.167 114.167,99.6667 117,95.5C 118.465,84.1845 119.798,72.8512 121,61.5C 121.767,54.8178 123.6,48.4844 126.5,42.5 Z"/></g>
<g><path style="opacity:1" fill="#e1a263" d="M 471.5,41.5 C 472.79,42.0577 473.623,43.0577 474,44.5C 475.802,49.3745 477.135,54.3745 478,59.5C 479.597,71.4699 480.93,83.4699 482,95.5C 484.833,99.6667 488.333,103.167 492.5,106C 490.671,106.273 489.171,107.107 488,108.5C 487.333,111.5 487.333,114.5 488,117.5C 490.389,122.554 493.555,127.054 497.5,131C 495.04,131.063 492.54,130.896 490,130.5C 487.648,130.305 485.648,130.972 484,132.5C 483.333,136.833 483.333,141.167 484,145.5C 485.833,152.167 487.667,158.833 489.5,165.5C 489.167,166.167 488.833,166.833 488.5,167.5C 486.232,166.456 483.899,166.289 481.5,167C 479.551,169.621 477.051,171.454 474,172.5C 450.803,163.756 437.969,147.089 435.5,122.5C 437.32,98.54 444.82,76.54 458,56.5C 461.654,50.6823 466.154,45.6823 471.5,41.5 Z"/></g>
<g><path style="opacity:1" fill="#56371a" d="M 138.5,44.5 C 140.587,45.5846 141.92,47.2512 142.5,49.5C 140.413,48.4154 139.08,46.7488 138.5,44.5 Z"/></g>
<g><path style="opacity:1" fill="#57381a" d="M 119.5,45.5 C 119.435,48.4282 118.768,51.0948 117.5,53.5C 117.294,50.5049 117.96,47.8383 119.5,45.5 Z"/></g>
<g><path style="opacity:1" fill="#58391a" d="M 117.5,53.5 C 117.376,58.0485 116.709,62.3819 115.5,66.5C 115.28,61.9 115.946,57.5667 117.5,53.5 Z"/></g>
<g><path style="opacity:1" fill="#57381a" d="M 142.5,49.5 C 146.494,53.4787 149.494,58.1454 151.5,63.5C 148.004,59.1813 145.004,54.5146 142.5,49.5 Z"/></g>
<g><path style="opacity:1" fill="#57381a" d="M 455.5,51.5 C 450.825,59.8382 446.159,68.1716 441.5,76.5C 444.528,67.166 449.194,58.8327 455.5,51.5 Z"/></g>
<g><path style="opacity:1" fill="#58391a" d="M 151.5,63.5 C 153.539,64.911 154.539,66.911 154.5,69.5C 152.992,67.8185 151.992,65.8185 151.5,63.5 Z"/></g>
<g><path style="opacity:1" fill="#58391a" d="M 484.5,72.5 C 485.813,78.9592 486.479,85.6259 486.5,92.5C 485.064,86.0526 484.397,79.3859 484.5,72.5 Z"/></g>
<g><path style="opacity:1" fill="#58381a" d="M 156.5,73.5 C 160.531,80.2513 163.197,87.5846 164.5,95.5C 161.656,88.3063 158.989,80.9729 156.5,73.5 Z"/></g>
<g><path style="opacity:1" fill="#58381a" d="M 439.5,81.5 C 438.405,86.7841 436.739,91.7841 434.5,96.5C 435.194,91.085 436.86,86.085 439.5,81.5 Z"/></g>
<g><path style="opacity:1" fill="#523419" d="M 114.5,76.5 C 114.631,82.2213 114.131,87.888 113,93.5C 108.906,98.4299 104.073,102.43 98.5,105.5C 103.158,101.342 107.658,97.0092 112,92.5C 112.774,87.012 113.607,81.6787 114.5,76.5 Z"/></g>
<g><path style="opacity:1" fill="#543619" d="M 489.5,96.5 C 492.447,97.7805 494.781,99.7805 496.5,102.5C 493.527,101.19 491.193,99.1897 489.5,96.5 Z"/></g>
<g><path style="opacity:1" fill="#58381a" d="M 164.5,95.5 C 167.436,103.451 168.769,111.784 168.5,120.5C 167.297,112.277 165.964,103.944 164.5,95.5 Z"/></g>
<g><path style="opacity:1" fill="#58381a" d="M 434.5,96.5 C 433.942,101.709 432.942,106.709 431.5,111.5C 431.421,106.169 432.421,101.169 434.5,96.5 Z"/></g>
<g><path style="opacity:1" fill="#58381a" d="M 98.5,105.5 C 96.8729,107.63 95.0396,109.63 93,111.5C 92.7297,112.932 93.3964,113.932 95,114.5C 98.0047,112.998 101.171,111.998 104.5,111.5C 100.883,114.152 96.8829,115.152 92.5,114.5C 91.9011,110.048 93.9011,107.048 98.5,105.5 Z"/></g>
<g><path style="opacity:1" fill="#57381a" d="M 500.5,105.5 C 505.357,107.136 507.357,110.302 506.5,115C 504.934,115.765 503.601,115.598 502.5,114.5C 504.346,114.778 505.68,114.111 506.5,112.5C 504.477,110.147 502.477,107.814 500.5,105.5 Z"/></g>
<g><path style="opacity:1" fill="#58381a" d="M 431.5,111.5 C 431.13,119.903 431.63,128.236 433,136.5C 436.459,145.754 441.292,154.088 447.5,161.5C 432.717,147.82 427.384,131.153 431.5,111.5 Z"/></g>
<g><path style="opacity:1" fill="#56371a" d="M 106.5,115.5 C 105.872,118.09 104.705,120.423 103,122.5C 100.302,126.025 97.4686,129.358 94.5,132.5C 97.7651,126.299 101.765,120.632 106.5,115.5 Z"/></g>
<g><path style="opacity:1" fill="#58391a" d="M 168.5,127.5 C 168.841,131.16 168.175,134.493 166.5,137.5C 166.753,133.96 167.419,130.627 168.5,127.5 Z"/></g>
<g><path style="opacity:1" fill="#56371a" d="M 499.5,113.5 C 497.173,113.335 495.007,112.669 493,111.5C 492.833,112 492.667,112.5 492.5,113C 496.34,119.657 500.34,126.157 504.5,132.5C 500.54,128.603 497.04,124.269 494,119.5C 492.092,116.794 491.259,113.794 491.5,110.5C 494.542,110.733 497.208,111.733 499.5,113.5 Z"/></g>
<g><path style="opacity:1" fill="#58391a" d="M 94.5,132.5 C 94.1231,134.258 93.4565,135.925 92.5,137.5C 93.6685,139.217 95.3352,139.884 97.5,139.5C 93.1693,141.601 91.3359,140.267 92,135.5C 92.3768,134.058 93.2101,133.058 94.5,132.5 Z"/></g>
<g><path style="opacity:1" fill="#56371a" d="M 104.5,171.5 C 103.853,170.726 103.52,169.726 103.5,168.5C 105.359,160.089 107.526,151.755 110,143.5C 110.497,140.854 110.664,138.187 110.5,135.5C 106.167,136.833 101.833,138.167 97.5,139.5C 101.684,136.659 106.351,134.993 111.5,134.5C 111.665,137.85 111.498,141.183 111,144.5C 108.106,153.343 105.94,162.343 104.5,171.5 Z"/></g>
<g><path style="opacity:1" fill="#58381a" d="M 494.5,136.5 C 492.5,136.167 490.5,135.833 488.5,135.5C 488.863,141.614 489.863,147.614 491.5,153.5C 488.455,147.639 487.122,141.305 487.5,134.5C 490.228,134.171 492.562,134.837 494.5,136.5 Z"/></g>
<g><path style="opacity:1" fill="#57381a" d="M 504.5,132.5 C 507.276,134.439 507.943,136.939 506.5,140C 501.954,140.539 497.954,139.372 494.5,136.5C 498.092,137.869 501.759,138.702 505.5,139C 505.957,138.586 506.291,138.086 506.5,137.5C 505.544,135.925 504.877,134.258 504.5,132.5 Z"/></g>
<g><path style="opacity:1" fill="#58381a" d="M 157.5,154.5 C 153.113,162.554 146.779,168.554 138.5,172.5C 145.464,167.203 151.798,161.203 157.5,154.5 Z"/></g>
<g><path style="opacity:1" fill="#58381a" d="M 491.5,153.5 C 493.589,158.181 494.922,163.181 495.5,168.5C 495.415,170.333 494.748,171.666 493.5,172.5C 494.043,171.258 494.377,169.925 494.5,168.5C 493.338,163.519 492.338,158.519 491.5,153.5 Z"/></g>
<g><path style="opacity:1" fill="#503318" d="M 447.5,161.5 C 451.436,163.766 454.769,166.766 457.5,170.5C 453.564,168.234 450.231,165.234 447.5,161.5 Z"/></g>
<g><path style="opacity:1" fill="#58391a" d="M 493.5,172.5 C 490.358,172.849 487.025,173.016 483.5,173C 482.211,174.802 480.544,175.969 478.5,176.5C 480.146,174.188 482.146,172.188 484.5,170.5C 487.447,171.423 490.447,172.089 493.5,172.5 Z"/></g>
<g><path style="opacity:1" fill="#57381a" d="M 138.5,172.5 C 136.102,174.974 133.102,176.308 129.5,176.5C 132.256,174.796 135.256,173.463 138.5,172.5 Z"/></g>
<g><path style="opacity:1" fill="#58391a" d="M 464.5,174.5 C 469.033,175.984 473.699,176.65 478.5,176.5C 473.552,178.097 468.886,177.431 464.5,174.5 Z"/></g>
<g><path style="opacity:1" fill="#e4a464" d="M 233.5,213.5 C 247.222,213.043 257.055,219.043 263,231.5C 268.416,241.047 268.749,250.714 264,260.5C 261.683,263.097 258.85,263.93 255.5,263C 247.241,255.423 237.908,249.423 227.5,245C 211.238,231.072 213.238,220.572 233.5,213.5 Z"/></g>
<g><path style="opacity:1" fill="#e4a464" d="M 354.5,213.5 C 362.49,212.659 369.823,214.492 376.5,219C 384.132,225.83 384.299,232.997 377,240.5C 370.407,245.55 363.24,249.717 355.5,253C 350.916,255.58 346.916,258.913 343.5,263C 336.819,263.547 332.985,260.381 332,253.5C 330.756,242.23 333.756,232.23 341,223.5C 345.141,219.503 349.641,216.17 354.5,213.5 Z"/></g>
<g><path style="opacity:1" fill="#010000" d="M 213.5,265.5 C 231.372,262.846 243.539,269.846 250,286.5C 252.145,293.079 253.978,299.745 255.5,306.5C 255.06,309.214 253.726,311.38 251.5,313C 226.22,313.91 205.054,305.076 188,286.5C 186.372,282.675 186.205,278.842 187.5,275C 195.593,269.987 204.259,266.82 213.5,265.5 Z"/></g>
<g><path style="opacity:1" fill="#010000" d="M 373.5,265.5 C 386.258,265.19 398.258,268.023 409.5,274C 411.833,275.333 412.833,277.333 412.5,280C 412.048,283.409 410.881,286.576 409,289.5C 391.921,306.117 371.421,313.95 347.5,313C 346.667,312.167 345.833,311.333 345,310.5C 344.036,293.707 349.869,279.874 362.5,269C 366.161,267.407 369.828,266.241 373.5,265.5 Z"/></g>
<g><path style="opacity:1" fill="#ececec" d="M 232.5,278.5 C 240.818,278.987 242.485,282.487 237.5,289C 231.143,290.481 228.643,287.981 230,281.5C 231.045,280.627 231.878,279.627 232.5,278.5 Z"/></g>
<g><path style="opacity:1" fill="#ededed" d="M 362.5,278.5 C 369.57,279.407 371.237,282.907 367.5,289C 361.662,290.48 358.829,288.313 359,282.5C 359.69,280.65 360.856,279.316 362.5,278.5 Z"/></g>
<g><path style="opacity:1" fill="#e4a464" d="M 417.5,442.5 C 414.173,450.943 410.34,459.276 406,467.5C 394.845,481.644 381.011,492.477 364.5,500C 358.593,501.361 352.593,501.861 346.5,501.5C 336.29,496.829 325.956,491.995 315.5,487C 303.379,483.414 291.379,483.748 279.5,488C 270.032,492.067 261.032,496.567 252.5,501.5C 244.497,502.292 236.831,501.125 229.5,498C 214.895,490.726 202.728,480.56 193,467.5C 188.57,459.315 184.737,450.982 181.5,442.5C 182.733,433.367 186.566,425.7 193,419.5C 211.647,390.852 236.481,369.352 267.5,355C 294.183,345.794 319.849,348.127 344.5,362C 361.856,371.676 377.19,384.01 390.5,399C 391.5,399.333 392.5,399.667 393.5,400C 405.118,412.12 413.118,426.286 417.5,442.5 Z"/></g>
<g><path style="opacity:1" fill="#000000" d="M 298.5,387.5 C 314.901,387.244 329.401,392.244 342,402.5C 344.194,405.554 345.861,408.888 347,412.5C 349.649,431.56 343.816,447.394 329.5,460C 312.752,468.399 295.418,469.732 277.5,464C 262.385,456.537 253.885,444.371 252,427.5C 249.012,414.66 252.845,404.493 263.5,397C 274.439,390.667 286.106,387.5 298.5,387.5 Z"/></g>
<g><path style="opacity:1" fill="#040302" d="M 181.5,442.5 C 184.737,450.982 188.57,459.315 193,467.5C 202.728,480.56 214.895,490.726 229.5,498C 236.831,501.125 244.497,502.292 252.5,501.5C 256.466,516.263 264.132,528.763 275.5,539C 287.56,546.548 300.56,548.548 314.5,545C 334.818,537.818 345.485,523.318 346.5,501.5C 352.593,501.861 358.593,501.361 364.5,500C 381.011,492.477 394.845,481.644 406,467.5C 410.34,459.276 414.173,450.943 417.5,442.5C 421.002,442.167 423.336,443.667 424.5,447C 418.726,466.214 408.393,482.547 393.5,496C 382.78,504.387 371.78,512.387 360.5,520C 353.5,525.667 347.167,532 341.5,539C 329.212,549.095 315.045,553.595 299,552.5C 286.317,553.098 274.484,550.264 263.5,544C 255.197,536.698 247.197,529.031 239.5,521C 228.22,513.387 217.22,505.387 206.5,497C 191.127,483.476 180.461,466.976 174.5,447.5C 174.826,443.187 177.159,441.52 181.5,442.5 Z"/></g>
<g><path style="opacity:1" fill="#e46c9b" d="M 346.5,501.5 C 345.485,523.318 334.818,537.818 314.5,545C 300.56,548.548 287.56,546.548 275.5,539C 264.132,528.763 256.466,516.263 252.5,501.5C 261.032,496.567 270.032,492.067 279.5,488C 291.379,483.748 303.379,483.414 315.5,487C 325.956,491.995 336.29,496.829 346.5,501.5 Z"/></g>
</svg>
