<?xml version="1.0" encoding="UTF-8"?>
<!DOCTYPE svg PUBLIC "-//W3C//DTD SVG 1.1//EN" "http://www.w3.org/Graphics/SVG/1.1/DTD/svg11.dtd">
<svg xmlns="http://www.w3.org/2000/svg" version="1.1" width="600px" height="600px" style="shape-rendering:geometricPrecision; text-rendering:geometricPrecision; image-rendering:optimizeQuality; fill-rule:evenodd; clip-rule:evenodd" xmlns:xlink="http://www.w3.org/1999/xlink">
<g><path style="opacity:0.982" fill="#010101" d="M 148.5,-0.5 C 159.833,-0.5 171.167,-0.5 182.5,-0.5C 206.12,17.2707 228.453,36.7707 249.5,58C 250.873,58.8749 252.373,59.3749 254,59.5C 285.173,55.714 316.34,55.5473 347.5,59C 348.833,58.3333 350.167,57.6667 351.5,57C 371.537,36.116 392.87,16.9493 415.5,-0.5C 427.167,-0.5 438.833,-0.5 450.5,-0.5C 454.076,3.63914 456.909,8.3058 459,13.5C 469.552,47.1259 472.886,81.4592 469,116.5C 511.986,150.754 538.986,195.088 550,249.5C 555.353,275.22 557.853,301.22 557.5,327.5C 556.899,332.871 556.066,338.204 555,343.5C 554.837,345.676 554.004,347.509 552.5,349C 555.492,378.74 552.325,407.907 543,436.5C 541.078,442.57 537.245,446.737 531.5,449C 528.563,448.989 525.73,449.155 523,449.5C 502.731,499.767 467.731,535.434 418,556.5C 413.904,556.035 410.404,554.368 407.5,551.5C 381.505,570.333 353.838,586.333 324.5,599.5C 307.167,599.5 289.833,599.5 272.5,599.5C 242.963,587.318 215.463,571.651 190,552.5C 185.1,556.719 179.6,557.552 173.5,555C 137.308,536.809 108.808,510.309 88,475.5C 83.4527,467.073 79.4527,458.406 76,449.5C 72.9701,449.382 69.8035,449.215 66.5,449C 61.0319,446.607 57.5319,442.441 56,436.5C 46.76,408.094 43.5934,379.094 46.5,349.5C 45.3906,347.615 44.5573,345.615 44,343.5C 37.4282,284.026 48.4282,228.026 77,175.5C 89.7948,154.037 106.128,135.704 126,120.5C 125.678,83.4106 130.678,47.0772 141,11.5C 143.261,7.30374 145.761,3.30374 148.5,-0.5 Z"/></g>
<g><path style="opacity:1" fill="#30241b" d="M 431.5,453.5 C 448.641,406.898 439.641,366.064 404.5,331C 386.569,315.039 365.569,306.206 341.5,304.5C 339.97,304.64 338.97,305.307 338.5,306.5C 338.001,310.475 337.668,314.475 337.5,318.5C 339.311,333.764 340.311,349.097 340.5,364.5C 334.323,355.677 325.656,350.844 314.5,350C 306.167,349.333 297.833,349.333 289.5,350C 279.025,350.74 270.359,354.906 263.5,362.5C 263.032,348.061 264.032,333.728 266.5,319.5C 266.28,314.954 265.28,310.621 263.5,306.5C 263.209,305.351 262.376,304.684 261,304.5C 215.337,310.164 184.337,334.498 168,377.5C 159.973,402.549 160.806,427.216 170.5,451.5C 163.733,454.434 159.233,459.434 157,466.5C 130.97,441.09 118.137,410.09 118.5,373.5C 116.61,373.297 115.11,373.963 114,375.5C 103.007,392.146 97.0071,410.479 96,430.5C 95.4646,432.271 94.6313,432.604 93.5,431.5C 74.3329,389.496 72.6663,346.829 88.5,303.5C 87.9984,302.479 87.3317,302.312 86.5,303C 83.3333,306.167 80.1667,309.333 77,312.5C 69.8207,322.871 62.654,333.204 55.5,343.5C 48.5187,291.229 56.3521,241.229 79,193.5C 92.6145,167.553 110.948,145.553 134,127.5C 137.616,119.863 138.45,111.863 136.5,103.5C 137.625,77.5019 141.125,51.8353 147,26.5C 148.794,18.7435 152.294,11.9101 157.5,6C 165.465,3.53624 172.798,4.86958 179.5,10C 202.321,27.1444 223.654,46.1444 243.5,67C 244.833,67.6667 246.167,68.3333 247.5,69C 264.817,68.4542 282.15,67.9542 299.5,67.5C 314.033,67.4645 328.533,68.1311 343,69.5C 347.44,69.8323 351.606,68.999 355.5,67C 374.639,47.1866 394.972,28.8532 416.5,12C 423.07,6.03214 430.736,3.69881 439.5,5C 443.958,7.74 447.125,11.5733 449,16.5C 459.546,47.6335 462.379,79.4668 457.5,112C 457.493,115.258 457.993,118.425 459,121.5C 503.972,156.573 531.472,202.406 541.5,259C 546.548,286.335 547.714,313.835 545,341.5C 544.692,342.308 544.192,342.975 543.5,343.5C 538.431,336.375 533.598,329.041 529,321.5C 524.075,314.571 518.408,308.238 512,302.5C 515.036,314.674 517.703,327.007 520,339.5C 524.209,372.203 519.043,403.203 504.5,432.5C 503.808,431.975 503.308,431.308 503,430.5C 502.438,412.152 497.438,395.152 488,379.5C 486.39,377.269 484.557,375.269 482.5,373.5C 480.871,399.977 473.038,424.644 459,447.5C 454.075,454.429 448.408,460.762 442,466.5C 440.377,460.556 436.877,456.223 431.5,453.5 Z"/></g>
<g><path style="opacity:1" fill="#090706" d="M 172.5,27.5 C 176.308,27.1632 179.974,27.6632 183.5,29C 200.161,44.1566 209.495,62.9899 211.5,85.5C 211.683,93.7864 209.183,101.12 204,107.5C 196.856,117.149 187.356,122.816 175.5,124.5C 169.543,122.351 163.376,121.017 157,120.5C 156.333,118.167 156.333,115.833 157,113.5C 158.777,108.19 160.11,102.857 161,97.5C 156.888,100.105 152.555,100.772 148,99.5C 147.955,92.7606 150.788,87.2606 156.5,83C 153.902,83.4217 151.236,83.4217 148.5,83C 147.409,80.9361 147.242,78.7695 148,76.5C 152.491,72.9213 157.157,69.5879 162,66.5C 163.991,57.2556 165.657,47.9222 167,38.5C 167.797,34.2501 169.63,30.5835 172.5,27.5 Z"/></g>
<g><path style="opacity:1" fill="#090706" d="M 418.5,27.5 C 426.703,25.8614 431.536,29.1947 433,37.5C 434.698,46.4445 436.031,55.4445 437,64.5C 440.64,68.2503 444.807,71.417 449.5,74C 452.524,76.4746 453.19,79.4746 451.5,83C 448.764,83.4217 446.098,83.4217 443.5,83C 446.704,85.8688 449.537,89.0354 452,92.5C 452.667,94.5 452.667,96.5 452,98.5C 447.752,99.8672 443.586,99.5339 439.5,97.5C 439.167,98 438.833,98.5 438.5,99C 441.99,105.787 443.49,112.954 443,120.5C 436.76,120.985 430.76,122.318 425,124.5C 414.104,122.943 405.104,117.943 398,109.5C 388.668,97.8469 386.335,84.8469 391,70.5C 395.996,53.3694 405.162,39.0361 418.5,27.5 Z"/></g>
<g><path style="opacity:1" fill="#e6caa6" d="M 175.5,32.5 C 178.421,32.1459 180.754,33.1459 182.5,35.5C 196.378,49.2582 204.378,65.9248 206.5,85.5C 204.869,98.239 198.536,108.072 187.5,115C 183.689,117.489 179.522,118.989 175,119.5C 172.672,119.183 170.839,118.016 169.5,116C 166.723,115.949 164.057,115.782 161.5,115.5C 163.235,110.462 165.068,105.462 167,100.5C 168.601,95.2217 166.767,92.5551 161.5,92.5C 158.693,92.9017 156.027,93.4017 153.5,94C 157.036,90.7988 160.203,87.2988 163,83.5C 164.88,78.2041 163.047,75.7041 157.5,76C 161.241,74.2621 164.408,71.7621 167,68.5C 169.073,58.917 170.74,49.2504 172,39.5C 172.959,37.047 174.126,34.7137 175.5,32.5 Z"/></g>
<g><path style="opacity:1" fill="#e6caa6" d="M 421.5,32.5 C 423.39,32.2965 424.89,32.9632 426,34.5C 427.197,37.0891 428.197,39.7558 429,42.5C 429.752,51.2701 431.085,59.9368 433,68.5C 435.592,71.7621 438.759,74.2621 442.5,76C 437.357,75.4712 435.524,77.6379 437,82.5C 439.412,86.9159 442.578,90.7492 446.5,94C 443.306,93.6077 440.139,92.7744 437,91.5C 434.5,92 433,93.5 432.5,96C 434.607,102.82 436.607,109.653 438.5,116.5C 434.12,114.475 430.454,115.308 427.5,119C 411.373,116.891 400.54,108.057 395,92.5C 393.873,68.0299 402.707,48.0299 421.5,32.5 Z"/></g>
<g><path style="opacity:1" fill="#e5c9a5" d="M 238.5,183.5 C 254.562,184.562 264.562,192.895 268.5,208.5C 268.444,211.111 267.444,213.278 265.5,215C 256.289,213.381 246.956,212.048 237.5,211C 226.086,208.984 222.586,202.817 227,192.5C 230.161,188.491 233.994,185.491 238.5,183.5 Z"/></g>
<g><path style="opacity:1" fill="#e5c8a5" d="M 364.5,183.5 C 375.382,183.564 382.382,188.73 385.5,199C 384.122,206.04 379.788,210.04 372.5,211C 363.044,212.048 353.711,213.381 344.5,215C 342.556,213.278 341.556,211.111 341.5,208.5C 344.709,195.961 352.376,187.628 364.5,183.5 Z"/></g>
<g><path style="opacity:1" fill="#cfbfa4" d="M 232.5,222.5 C 248.48,221.571 259.313,228.571 265,243.5C 266.682,266.15 256.182,277.65 233.5,278C 215.846,273.205 208.346,261.705 211,243.5C 214.776,232.889 221.943,225.889 232.5,222.5 Z"/></g>
<g><path style="opacity:1" fill="#cfc0a4" d="M 362.5,222.5 C 378.48,221.571 389.313,228.571 395,243.5C 396.693,266.14 386.193,277.64 363.5,278C 345.846,273.205 338.346,261.705 341,243.5C 344.776,232.889 351.943,225.889 362.5,222.5 Z"/></g>
<g><path style="opacity:1" fill="#040505" d="M 233.5,233.5 C 245.869,232.376 253.202,237.876 255.5,250C 252.438,265.697 243.438,270.697 228.5,265C 221.915,259.643 219.749,252.809 222,244.5C 224.437,239.226 228.271,235.56 233.5,233.5 Z"/></g>
<g><path style="opacity:1" fill="#050505" d="M 362.5,233.5 C 381.563,233.399 388.063,242.399 382,260.5C 374.328,268.438 365.828,269.438 356.5,263.5C 347.123,251.163 349.123,241.163 362.5,233.5 Z"/></g>
<g><path style="opacity:1" fill="#f5f5f5" d="M 242.5,239.5 C 251.216,238.537 253.549,241.87 249.5,249.5C 240.972,250.63 238.639,247.297 242.5,239.5 Z"/></g>
<g><path style="opacity:1" fill="#f3f3f3" d="M 371.5,239.5 C 379.489,238.317 382.156,241.484 379.5,249C 372.243,251.746 369.077,249.246 370,241.5C 370.717,240.956 371.217,240.289 371.5,239.5 Z"/></g>
<g><path style="opacity:1" fill="#e8cca8" d="M 263.5,306.5 C 256.026,318.77 248.526,331.103 241,343.5C 233.015,356.457 228.182,370.457 226.5,385.5C 226.297,396.55 229.297,406.55 235.5,415.5C 236.833,418.833 239.167,421.167 242.5,422.5C 246.654,426.507 251.154,430.173 256,433.5C 260.686,443.546 265.853,453.213 271.5,462.5C 276.868,475.864 286.868,482.198 301.5,481.5C 305.902,481.515 310.235,481.015 314.5,480C 319.308,475.863 324.141,471.696 329,467.5C 329.791,466.255 330.291,464.922 330.5,463.5C 336.226,453.723 341.726,443.723 347,433.5C 351.026,430.302 354.859,426.968 358.5,423.5C 368.194,415.447 373.694,405.114 375,392.5C 375.501,379.834 372.834,367.834 367,356.5C 361.425,345.01 355.091,334.01 348,323.5C 346.302,318.713 344.302,314.046 342,309.5C 341.241,307.937 340.074,306.937 338.5,306.5C 338.97,305.307 339.97,304.64 341.5,304.5C 365.569,306.206 386.569,315.039 404.5,331C 439.641,366.064 448.641,406.898 431.5,453.5C 428.889,457.951 426.056,462.284 423,466.5C 408.595,478.903 395.595,492.57 384,507.5C 376.411,520.847 370.911,535.014 367.5,550C 366.365,550.749 365.365,550.583 364.5,549.5C 356.437,540.37 351.937,529.703 351,517.5C 341.598,532.199 335.431,548.199 332.5,565.5C 327.222,560.621 323.722,554.621 322,547.5C 319.685,538.315 318.352,528.982 318,519.5C 314.939,526.621 311.606,533.621 308,540.5C 305.64,549.14 303.473,557.807 301.5,566.5C 299.402,558.191 297.236,549.858 295,541.5C 291.392,533.95 288.058,526.283 285,518.5C 284.133,528.237 282.799,537.904 281,547.5C 278.76,554.324 275.26,560.324 270.5,565.5C 267.625,547.704 261.125,531.371 251,516.5C 250.954,522.351 249.954,528.017 248,533.5C 245.252,538.666 242.252,543.666 239,548.5C 238.163,550.007 236.996,550.507 235.5,550C 231.237,530.312 223.07,512.478 211,496.5C 201.304,486.47 191.304,476.803 181,467.5C 176.884,462.555 173.384,457.221 170.5,451.5C 160.806,427.216 159.973,402.549 168,377.5C 184.337,334.498 215.337,310.164 261,304.5C 262.376,304.684 263.209,305.351 263.5,306.5 Z"/></g>
<g><path style="opacity:1" fill="#f4f4f4" d="M 263.5,306.5 C 265.28,310.621 266.28,314.954 266.5,319.5C 264.032,333.728 263.032,348.061 263.5,362.5C 257.739,378.383 261.739,391.216 275.5,401C 297.576,414.791 317.743,412.291 336,393.5C 342.634,384.627 344.134,374.96 340.5,364.5C 340.311,349.097 339.311,333.764 337.5,318.5C 337.668,314.475 338.001,310.475 338.5,306.5C 340.074,306.937 341.241,307.937 342,309.5C 344.302,314.046 346.302,318.713 348,323.5C 355.091,334.01 361.425,345.01 367,356.5C 372.834,367.834 375.501,379.834 375,392.5C 373.694,405.114 368.194,415.447 358.5,423.5C 353.291,426.681 347.625,428.681 341.5,429.5C 328.082,429.012 314.749,427.678 301.5,425.5C 288.251,427.678 274.918,429.012 261.5,429.5C 254.841,428.836 248.841,426.503 243.5,422.5C 240.859,420.196 238.192,417.862 235.5,415.5C 229.297,406.55 226.297,396.55 226.5,385.5C 228.182,370.457 233.015,356.457 241,343.5C 248.526,331.103 256.026,318.77 263.5,306.5 Z"/></g>
<g><path style="opacity:1" fill="#010202" d="M 340.5,364.5 C 344.134,374.96 342.634,384.627 336,393.5C 317.743,412.291 297.576,414.791 275.5,401C 261.739,391.216 257.739,378.383 263.5,362.5C 270.359,354.906 279.025,350.74 289.5,350C 297.833,349.333 306.167,349.333 314.5,350C 325.656,350.844 334.323,355.677 340.5,364.5 Z"/></g>
<g><path style="opacity:1" fill="#7f7568" d="M 235.5,415.5 C 238.192,417.862 240.859,420.196 243.5,422.5C 243.167,422.5 242.833,422.5 242.5,422.5C 239.167,421.167 236.833,418.833 235.5,415.5 Z"/></g>
<g><path style="opacity:1" fill="#0d0c0b" d="M 242.5,422.5 C 242.833,422.5 243.167,422.5 243.5,422.5C 248.841,426.503 254.841,428.836 261.5,429.5C 262.919,430.451 264.585,430.784 266.5,430.5C 266.208,441.501 267.874,452.167 271.5,462.5C 265.853,453.213 260.686,443.546 256,433.5C 251.154,430.173 246.654,426.507 242.5,422.5 Z"/></g>
<g><path style="opacity:1" fill="#050505" d="M 358.5,423.5 C 354.859,426.968 351.026,430.302 347,433.5C 341.726,443.723 336.226,453.723 330.5,463.5C 334.76,452.942 336.76,441.942 336.5,430.5C 338.415,430.784 340.081,430.451 341.5,429.5C 347.625,428.681 353.291,426.681 358.5,423.5 Z"/></g>
<g><path style="opacity:1" fill="#f09da0" d="M 341.5,429.5 C 340.081,430.451 338.415,430.784 336.5,430.5C 336.76,441.942 334.76,452.942 330.5,463.5C 330.291,464.922 329.791,466.255 329,467.5C 324.141,471.696 319.308,475.863 314.5,480C 310.235,481.015 305.902,481.515 301.5,481.5C 286.868,482.198 276.868,475.864 271.5,462.5C 267.874,452.167 266.208,441.501 266.5,430.5C 264.585,430.784 262.919,430.451 261.5,429.5C 274.918,429.012 288.251,427.678 301.5,425.5C 314.749,427.678 328.082,429.012 341.5,429.5 Z"/></g>
</svg>
