<?xml version="1.0" encoding="UTF-8"?>
<!DOCTYPE svg PUBLIC "-//W3C//DTD SVG 1.1//EN" "http://www.w3.org/Graphics/SVG/1.1/DTD/svg11.dtd">
<svg xmlns="http://www.w3.org/2000/svg" version="1.1" width="600px" height="600px" style="shape-rendering:geometricPrecision; text-rendering:geometricPrecision; image-rendering:optimizeQuality; fill-rule:evenodd; clip-rule:evenodd" xmlns:xlink="http://www.w3.org/1999/xlink">
<g><path style="opacity:0.958" fill="#040303" d="M 113.5,0.5 C 126.076,-0.141562 137.076,3.69177 146.5,12C 157.14,21.8026 165.973,32.9693 173,45.5C 191.504,83.1766 210.504,120.51 230,157.5C 231.299,158.98 232.966,159.646 235,159.5C 241.801,158.504 248.635,157.837 255.5,157.5C 271.354,158.984 287.187,160.65 303,162.5C 322.751,159.875 342.585,158.208 362.5,157.5C 385.836,120.166 408.669,82.4994 431,44.5C 438.655,32.1702 447.822,21.0035 458.5,11C 485.526,-6.02831 505.692,0.138354 519,29.5C 529.306,61.6668 534.972,94.6668 536,128.5C 537.25,150.156 537.583,171.822 537,193.5C 535.875,218.495 534.875,243.495 534,268.5C 533.707,279.3 531.374,289.633 527,299.5C 523.045,305.123 518.712,310.457 514,315.5C 511.776,331.396 508.443,347.062 504,362.5C 501.279,385.987 497.613,409.321 493,432.5C 484.142,468.548 468.142,500.881 445,529.5C 440,534.5 435,539.5 430,544.5C 423.978,583.193 401.478,601.027 362.5,598C 357.22,596.888 352.054,595.388 347,593.5C 314.847,600.134 282.68,600.134 250.5,593.5C 221.311,603.497 197.144,596.497 178,572.5C 172.18,561.218 169.18,549.218 169,536.5C 144.649,513.486 127.649,485.82 118,453.5C 114.864,443.29 112.198,432.957 110,422.5C 105.773,398.246 102.107,373.913 99,349.5C 94.4541,338.528 91.1207,327.195 89,315.5C 85,310.833 81,306.167 77,301.5C 73.9968,295.49 71.9968,289.157 71,282.5C 69.8342,269.199 69.1675,255.865 69,242.5C 62.7575,199.013 60.7575,155.346 63,111.5C 64.5909,87.5454 69.2576,64.2121 77,41.5C 81.3774,27.8985 88.8774,16.3985 99.5,7C 104.034,4.33271 108.7,2.16604 113.5,0.5 Z"/></g>
<g><path style="opacity:1" fill="#855822" d="M 113.5,11.5 C 123.901,10.7009 132.901,13.8676 140.5,21C 151.937,32.77 161.437,45.9366 169,60.5C 186.541,97.918 205.375,134.585 225.5,170.5C 226,170.833 226.5,171.167 227,171.5C 237.435,169.878 247.935,168.878 258.5,168.5C 272.751,219.829 278.251,272.162 275,325.5C 273.647,341.223 269.647,356.223 263,370.5C 252.333,390.5 241.667,410.5 231,430.5C 215.84,442.988 202.84,457.321 192,473.5C 182.099,490.2 176.433,508.2 175,527.5C 149.181,501.875 132.181,471.209 124,435.5C 122.175,427.868 120.509,420.202 119,412.5C 116.03,390.1 112.697,367.767 109,345.5C 104.109,333.937 100.776,321.937 99,309.5C 91.2866,303.803 85.9533,296.469 83,287.5C 82.0881,283.205 81.4215,278.872 81,274.5C 80.5433,248.055 78.5433,221.722 75,195.5C 70.6789,153.246 72.3456,111.246 80,69.5C 83.3089,52.5575 89.6422,36.8908 99,22.5C 102.951,17.4657 107.784,13.799 113.5,11.5 Z"/></g>
<g><path style="opacity:1" fill="#855822" d="M 482.5,11.5 C 492.413,12.2102 499.913,16.8769 505,25.5C 513.603,44.2414 518.936,63.9081 521,84.5C 524.522,114.052 526.356,143.718 526.5,173.5C 525.643,209.717 523.976,245.883 521.5,282C 519.698,293.789 513.864,302.956 504,309.5C 501.761,327.459 498.094,345.125 493,362.5C 490.175,384.93 486.842,407.264 483,429.5C 476.586,452.25 467.919,473.917 457,494.5C 448.613,509.565 437.947,522.898 425,534.5C 422.437,496.04 406.604,464.374 377.5,439.5C 366.604,417.375 355.438,395.375 344,373.5C 334.076,354.054 328.41,333.387 327,311.5C 324.603,263.49 329.103,216.157 340.5,169.5C 349.857,169.832 359.19,169.498 368.5,168.5C 395.667,124.167 422.833,79.8333 450,35.5C 456.634,26.529 464.801,19.3624 474.5,14C 477.31,13.2177 479.977,12.3844 482.5,11.5 Z"/></g>
<g><path style="opacity:1" fill="#1b0e10" d="M 114.5,45.5 C 120.899,45.0307 126.565,46.8641 131.5,51C 164.805,84.9465 184.472,125.613 190.5,173C 190.677,178.791 189.51,184.291 187,189.5C 173.849,206.83 157.349,219.997 137.5,229C 128.084,234.032 118.084,236.365 107.5,236C 103.491,231.99 100.991,227.157 100,221.5C 96.982,202.129 95.482,182.629 95.5,163C 96.0247,137.822 96.858,112.655 98,87.5C 99.3515,74.4165 103.018,62.0832 109,50.5C 110.812,48.6997 112.645,47.0331 114.5,45.5 Z"/></g>
<g><path style="opacity:1" fill="#1b0e10" d="M 475.5,45.5 C 483.739,43.9207 489.573,46.9207 493,54.5C 498.574,68.6045 501.574,83.2711 502,98.5C 503.938,134.505 503.938,170.505 502,206.5C 501.383,215.97 499.049,224.97 495,233.5C 492.521,235.917 489.521,236.917 486,236.5C 455.349,230.169 430.683,214.503 412,189.5C 411.275,187.051 410.275,184.717 409,182.5C 409.051,155.63 415.384,130.296 428,106.5C 438.434,85.463 451.934,66.6297 468.5,50C 470.898,48.4758 473.231,46.9758 475.5,45.5 Z"/></g>
<g><path style="opacity:1" fill="#e8e8e8" d="M 324.5,232.5 C 322.409,244.263 321.409,256.263 321.5,268.5C 319.234,298.738 322.401,328.405 331,357.5C 344.723,385.946 358.723,414.28 373,442.5C 391.908,459.047 405.574,479.047 414,502.5C 416.908,511.616 418.408,520.95 418.5,530.5C 418.19,533.713 418.523,536.713 419.5,539.5C 417.739,569.26 402.072,585.593 372.5,588.5C 365.619,587.946 358.952,586.446 352.5,584C 338.062,577.615 324.062,570.448 310.5,562.5C 306.178,549.754 305.011,536.754 307,523.5C 308.672,517.818 310.339,512.151 312,506.5C 336.901,496.042 347.234,477.375 343,450.5C 340.432,441.953 334.932,436.12 326.5,433C 309.276,427.406 291.943,427.072 274.5,432C 256.993,440.148 250.826,453.648 256,472.5C 260.101,489.102 270.268,500.102 286.5,505.5C 295.423,524.925 295.756,544.425 287.5,564C 276.554,568.806 265.888,574.139 255.5,580C 246.262,584.293 236.595,586.793 226.5,587.5C 203.652,586.659 188.819,575.326 182,553.5C 179.705,541.036 179.538,528.703 181.5,516.5C 182.787,512.687 183.787,508.687 184.5,504.5C 186.428,499.216 188.261,493.883 190,488.5C 193.427,483.069 196.427,477.403 199,471.5C 201.921,468.184 204.755,464.851 207.5,461.5C 209.262,460.738 210.262,459.404 210.5,457.5C 218.943,449.386 227.276,441.386 235.5,433.5C 246.948,412.659 258.115,391.659 269,370.5C 276.456,351.554 280.456,331.887 281,311.5C 282.196,263.519 276.696,216.352 264.5,170C 277.263,169.881 289.929,171.047 302.5,173.5C 313.481,171.919 324.481,170.586 335.5,169.5C 330.674,190.298 327.007,211.298 324.5,232.5 Z"/></g>
<g><path style="opacity:1" fill="#504031" d="M 324.5,232.5 C 323.819,244.675 322.819,256.675 321.5,268.5C 321.409,256.263 322.409,244.263 324.5,232.5 Z"/></g>
<g><path style="opacity:1" fill="#44362e" d="M 205.5,303.5 C 230.882,302.388 243.715,314.388 244,339.5C 239.285,359.866 226.451,369.033 205.5,367C 186.338,360.807 178.171,347.64 181,327.5C 185.12,315.212 193.286,307.212 205.5,303.5 Z"/></g>
<g><path style="opacity:1" fill="#44362e" d="M 378.5,304.5 C 398.046,302.183 411.213,310.183 418,328.5C 419.728,355.773 406.894,368.94 379.5,368C 361.113,361.734 352.946,348.901 355,329.5C 358.589,317.08 366.423,308.747 378.5,304.5 Z"/></g>
<g><path style="opacity:1" fill="#1b0f10" d="M 206.5,315.5 C 227.545,315.282 235.379,325.282 230,345.5C 222.064,355.941 212.231,358.108 200.5,352C 191.771,343.66 190.271,334.16 196,323.5C 198.94,319.963 202.44,317.297 206.5,315.5 Z"/></g>
<g><path style="opacity:1" fill="#1b0e10" d="M 382.5,316.5 C 404.163,317.664 410.997,328.33 403,348.5C 393.801,357.782 383.801,358.782 373,351.5C 365.241,342.695 364.574,333.361 371,323.5C 374.263,320.037 378.097,317.704 382.5,316.5 Z"/></g>
<g><path style="opacity:1" fill="#e6e7e7" d="M 215.5,324.5 C 224.556,323.904 226.889,327.571 222.5,335.5C 216.713,338.043 213.379,336.21 212.5,330C 212.863,327.808 213.863,325.974 215.5,324.5 Z"/></g>
<g><path style="opacity:1" fill="#e3e3e3" d="M 389.5,325.5 C 398.24,324.717 400.907,328.217 397.5,336C 391.793,338.977 388.126,337.31 386.5,331C 387.124,328.915 388.124,327.082 389.5,325.5 Z"/></g>
<g><path style="opacity:1" fill="#7b6b58" d="M 210.5,457.5 C 210.262,459.404 209.262,460.738 207.5,461.5C 207.738,459.596 208.738,458.262 210.5,457.5 Z"/></g>
<g><path style="opacity:1" fill="#0a0a0a" d="M 249.5,504.5 C 256.644,505.94 257.977,509.44 253.5,515C 247,516.5 244.5,514 246,507.5C 247.145,506.364 248.312,505.364 249.5,504.5 Z"/></g>
<g><path style="opacity:1" fill="#060606" d="M 352.5,504.5 C 359.156,506.277 360.489,509.777 356.5,515C 350,516.5 347.5,514 349,507.5C 350.145,506.364 351.312,505.364 352.5,504.5 Z"/></g>
<g><path style="opacity:1" fill="#544330" d="M 184.5,504.5 C 183.787,508.687 182.787,512.687 181.5,516.5C 181.272,512.076 182.272,508.076 184.5,504.5 Z"/></g>
<g><path style="opacity:1" fill="#0a0a0a" d="M 225.5,513.5 C 231.192,513.626 232.858,516.293 230.5,521.5C 226.626,523.468 223.96,522.468 222.5,518.5C 223.26,516.64 224.26,514.973 225.5,513.5 Z"/></g>
<g><path style="opacity:1" fill="#080808" d="M 375.5,513.5 C 381.293,514.421 382.626,517.255 379.5,522C 374.502,523.33 372.336,521.496 373,516.5C 373.698,515.309 374.531,514.309 375.5,513.5 Z"/></g>
<g><path style="opacity:1" fill="#111111" d="M 203.5,515.5 C 208.328,515.385 209.661,517.552 207.5,522C 201.738,522.418 200.404,520.251 203.5,515.5 Z"/></g>
<g><path style="opacity:1" fill="#090909" d="M 397.5,515.5 C 402.478,515.952 403.478,518.119 400.5,522C 395.382,521.824 394.382,519.658 397.5,515.5 Z"/></g>
<g><path style="opacity:1" fill="#73624f" d="M 418.5,530.5 C 419.205,533.228 419.872,536.061 420.5,539C 420.272,539.399 419.938,539.565 419.5,539.5C 418.523,536.713 418.19,533.713 418.5,530.5 Z"/></g>
<g><path style="opacity:1" fill="#050505" d="M 251.5,537.5 C 259.168,537.507 261.168,540.84 257.5,547.5C 252.368,549.894 249.368,548.394 248.5,543C 248.863,540.808 249.863,538.974 251.5,537.5 Z"/></g>
<g><path style="opacity:1" fill="#070707" d="M 347.5,537.5 C 355.168,537.507 357.168,540.84 353.5,547.5C 348.672,549.698 345.672,548.198 344.5,543C 345.124,540.915 346.124,539.082 347.5,537.5 Z"/></g>
<g><path style="opacity:1" fill="#0b0b0b" d="M 208.5,545.5 C 213.493,545.997 214.493,548.164 211.5,552C 208.433,553.164 206.767,552.164 206.5,549C 206.862,547.566 207.528,546.399 208.5,545.5 Z"/></g>
<g><path style="opacity:1" fill="#090909" d="M 230.5,546.5 C 237.896,546.615 239.23,549.448 234.5,555C 228.499,554.495 227.165,551.662 230.5,546.5 Z"/></g>
<g><path style="opacity:1" fill="#080808" d="M 368.5,546.5 C 375.285,545.626 377.285,548.126 374.5,554C 367.803,555.786 365.803,553.286 368.5,546.5 Z"/></g>
<g><path style="opacity:1" fill="#0c0c0c" d="M 392.5,545.5 C 397.651,545.654 398.984,547.82 396.5,552C 391.177,552.18 389.843,550.014 392.5,545.5 Z"/></g>
</svg>
