<?xml version="1.0" encoding="UTF-8"?>
<!DOCTYPE svg PUBLIC "-//W3C//DTD SVG 1.1//EN" "http://www.w3.org/Graphics/SVG/1.1/DTD/svg11.dtd">
<svg xmlns="http://www.w3.org/2000/svg" version="1.1" width="600px" height="600px" style="shape-rendering:geometricPrecision; text-rendering:geometricPrecision; image-rendering:optimizeQuality; fill-rule:evenodd; clip-rule:evenodd" xmlns:xlink="http://www.w3.org/1999/xlink">
<g><path style="opacity:0.951" fill="#030100" d="M 35.5,-0.5 C 53.8333,-0.5 72.1667,-0.5 90.5,-0.5C 105.899,8.3809 120.065,19.0476 133,31.5C 159,64.1667 185,96.8333 211,129.5C 221.386,141.721 232.886,152.721 245.5,162.5C 280.522,151.899 315.522,151.899 350.5,162.5C 352.299,162.423 353.966,161.923 355.5,161C 366.667,151.167 377.167,140.667 387,129.5C 413,96.8333 439,64.1667 465,31.5C 477.935,19.0476 492.101,8.3809 507.5,-0.5C 526.167,-0.5 544.833,-0.5 563.5,-0.5C 572.406,8.30876 577.906,18.9754 580,31.5C 584.058,58.7365 582.725,85.7365 576,112.5C 565.297,156.563 550.63,199.23 532,240.5C 529.558,255.045 526.225,269.378 522,283.5C 518.995,291.338 514.161,297.838 507.5,303C 497.084,309.625 486.584,316.125 476,322.5C 476.005,368.481 465.338,411.814 444,452.5C 436,465.167 428,477.833 420,490.5C 413.117,506.936 406.784,523.603 401,540.5C 394.348,557.802 384.514,572.968 371.5,586C 364.395,591.549 356.729,596.049 348.5,599.5C 310.833,599.5 273.167,599.5 235.5,599.5C 224.906,593.407 216.406,585.074 210,574.5C 197.855,551.731 187.855,528.064 180,503.5C 170.861,485.382 160.527,468.049 149,451.5C 127.688,409.785 116.855,365.451 116.5,318.5C 103.342,312.841 91.8417,304.841 82,294.5C 79.4432,290.554 77.2765,286.387 75.5,282C 71.5689,268.345 68.4023,254.512 66,240.5C 48.0892,200.102 33.7559,158.435 23,115.5C 15.8946,88.4602 14.2279,61.1269 18,33.5C 19.9308,19.9671 25.7641,8.63381 35.5,-0.5 Z"/></g>
<g><path style="opacity:1" fill="#c38d44" d="M 383.5,550.5 C 381.177,536.365 376.011,523.365 368,511.5C 358.21,496.709 346.043,484.209 331.5,474C 316.201,467.253 300.201,464.92 283.5,467C 269.314,469.84 257.481,476.674 248,487.5C 230.569,507.033 218.403,529.366 211.5,554.5C 202.186,533.063 193.352,511.396 185,489.5C 175.333,473.833 165.667,458.167 156,442.5C 135.718,401.929 126.218,358.929 127.5,313.5C 117.833,307.667 108.167,301.833 98.5,296C 89.5469,288.931 84.0469,279.764 82,268.5C 80,257.833 78,247.167 76,236.5C 60.2911,200.707 46.9577,164.041 36,126.5C 31.8393,109.364 28.8393,92.0305 27,74.5C 26.1189,61.1247 26.4523,47.7914 28,34.5C 29.7865,19.7423 37.2865,9.2423 50.5,3C 62.7996,1.3251 74.4662,3.3251 85.5,9C 106.371,20.5337 124.205,35.7004 139,54.5C 160.518,82.8631 182.518,110.863 205,138.5C 215.201,150.368 226.368,161.202 238.5,171C 240.274,171.97 242.107,172.804 244,173.5C 278.794,163.029 313.628,162.862 348.5,173C 350.833,173.667 353.167,173.667 355.5,173C 366.514,165.995 376.347,157.495 385,147.5C 412.094,115.077 438.427,82.0768 464,48.5C 481.387,27.4378 502.887,12.2711 528.5,3C 551.7,-0.478934 565.534,9.3544 570,32.5C 573.665,68.1996 569.999,103.2 559,137.5C 548.636,171.263 536.302,204.263 522,236.5C 519.739,250.318 516.739,263.985 513,277.5C 509.408,286.532 503.575,293.699 495.5,299C 487.671,303.08 480.004,307.413 472.5,312C 464.365,317.097 462.031,324.264 465.5,333.5C 463.796,372.981 453.963,410.314 436,445.5C 427.667,458.833 419.333,472.167 411,485.5C 403.502,502.165 396.835,519.165 391,536.5C 389.249,541.674 386.749,546.341 383.5,550.5 Z"/></g>
<g><path style="opacity:1" fill="#030201" d="M 58.5,28.5 C 68.1913,27.1624 77.1913,28.9957 85.5,34C 111.769,57.9244 133.936,85.091 152,115.5C 163.374,133.83 172.374,153.163 179,173.5C 186.965,199.509 183.632,223.842 169,246.5C 161.369,260.133 150.535,270.3 136.5,277C 131.167,277.667 125.833,277.667 120.5,277C 112.065,270.97 105.899,263.137 102,253.5C 91.4364,224.144 81.4364,194.477 72,164.5C 67.8445,153.184 62.8445,142.184 57,131.5C 46.3401,106.215 42.0067,79.8815 44,52.5C 45.5328,42.4226 50.3661,34.4226 58.5,28.5 Z"/></g>
<g><path style="opacity:1" fill="#040201" d="M 521.5,28.5 C 541.696,26.1895 552.863,35.1895 555,55.5C 555.985,80.2582 551.985,104.258 543,127.5C 536.762,139.971 531.095,152.638 526,165.5C 516.431,196.208 506.098,226.542 495,256.5C 491.294,264.201 486.127,270.701 479.5,276C 468.92,279.18 459.253,277.513 450.5,271C 412.589,236.332 405.089,195.832 428,149.5C 447.953,108.22 474.119,71.3867 506.5,39C 511.403,35.2476 516.403,31.7476 521.5,28.5 Z"/></g>
<g><path style="opacity:1" fill="#7b4e24" d="M 62.5,37.5 C 70.8884,36.8588 78.2218,39.3588 84.5,45C 123.067,82.5873 151.567,126.754 170,177.5C 177.064,200.28 174.064,221.613 161,241.5C 155.562,249.937 149.062,257.437 141.5,264C 131.227,271.328 122.727,269.828 116,259.5C 114.333,256.167 112.667,252.833 111,249.5C 100.609,220.327 90.6087,190.993 81,161.5C 76.4884,149.475 71.155,137.809 65,126.5C 54.1756,101.402 50.8423,75.4017 55,48.5C 56.0425,43.7207 58.5425,40.054 62.5,37.5 Z"/></g>
<g><path style="opacity:1" fill="#7b4e24" d="M 497.5,62.5 C 503.167,57.5 508.5,52.1667 513.5,46.5C 519.183,39.4949 526.517,36.6616 535.5,38C 537.624,39.1217 539.457,40.6217 541,42.5C 542.937,46.6457 544.271,50.979 545,55.5C 546.763,78.5868 543.43,100.92 535,122.5C 528.451,135.596 522.451,148.93 517,162.5C 508.333,188.5 499.667,214.5 491,240.5C 487.989,250.701 482.823,259.535 475.5,267C 468.183,269.173 461.516,267.84 455.5,263C 424.576,235.137 417.076,201.971 433,163.5C 443.852,137.45 457.518,113.117 474,90.5C 481.322,80.6833 489.155,71.35 497.5,62.5 Z"/></g>
<g><path style="opacity:1" fill="#563e1e" d="M 513.5,46.5 C 508.5,52.1667 503.167,57.5 497.5,62.5C 501.833,56.1667 507.167,50.8333 513.5,46.5 Z"/></g>
<g><path style="opacity:1" fill="#4d4948" d="M 216.5,323.5 C 236.906,322.093 250.073,331.093 256,350.5C 257.841,370.001 249.675,383.168 231.5,390C 209.854,393.928 195.687,385.428 189,364.5C 186.743,342.981 195.91,329.314 216.5,323.5 Z"/></g>
<g><path style="opacity:1" fill="#4c4948" d="M 370.5,323.5 C 393.983,322.721 407.316,333.887 410.5,357C 407.269,381.56 393.269,392.893 368.5,391C 348.965,384.12 340.465,370.286 343,349.5C 347.226,335.437 356.393,326.77 370.5,323.5 Z"/></g>
<g><path style="opacity:1" fill="#241916" d="M 215.5,332.5 C 236.049,330.895 246.549,340.228 247,360.5C 242.446,378.703 230.946,385.536 212.5,381C 197.217,372.146 193.384,359.646 201,343.5C 204.873,338.49 209.706,334.823 215.5,332.5 Z"/></g>
<g><path style="opacity:1" fill="#241916" d="M 370.5,332.5 C 391.54,331.708 401.707,341.708 401,362.5C 396.187,377.997 385.687,384.497 369.5,382C 354.218,375.268 348.718,363.768 353,347.5C 356.92,340.066 362.754,335.066 370.5,332.5 Z"/></g>
<g><path style="opacity:1" fill="#e8e8e8" d="M 227.5,345.5 C 236.306,345.464 238.639,349.297 234.5,357C 228.561,359.918 224.895,358.084 223.5,351.5C 224.467,349.21 225.8,347.21 227.5,345.5 Z"/></g>
<g><path style="opacity:1" fill="#e8e8e8" d="M 379.5,345.5 C 385.641,344.816 388.808,347.483 389,353.5C 385.421,359.753 381.421,360.086 377,354.5C 375.927,350.9 376.76,347.9 379.5,345.5 Z"/></g>
<g><path style="opacity:1" fill="#4b4848" d="M 383.5,550.5 C 373.18,575.51 354.514,589.676 327.5,593C 303.195,595.747 278.862,596.08 254.5,594C 241.183,591.931 230.683,585.431 223,574.5C 218.902,567.969 215.069,561.302 211.5,554.5C 218.403,529.366 230.569,507.033 248,487.5C 257.481,476.674 269.314,469.84 283.5,467C 300.201,464.92 316.201,467.253 331.5,474C 346.043,484.209 358.21,496.709 368,511.5C 376.011,523.365 381.177,536.365 383.5,550.5 Z"/></g>
<g><path style="opacity:1" fill="#000000" d="M 287.5,478.5 C 302.679,476.696 317.012,479.196 330.5,486C 340.93,496.367 343.43,508.533 338,522.5C 333.042,535.787 323.542,543.62 309.5,546C 296.766,548.102 284.766,546.102 273.5,540C 265.538,534.59 260.705,527.09 259,517.5C 255.366,494.735 264.866,481.735 287.5,478.5 Z"/></g>
</svg>
