<?xml version="1.0" encoding="UTF-8"?>
<!DOCTYPE svg PUBLIC "-//W3C//DTD SVG 1.1//EN" "http://www.w3.org/Graphics/SVG/1.1/DTD/svg11.dtd">
<svg xmlns="http://www.w3.org/2000/svg" version="1.1" width="600px" height="600px" style="shape-rendering:geometricPrecision; text-rendering:geometricPrecision; image-rendering:optimizeQuality; fill-rule:evenodd; clip-rule:evenodd" xmlns:xlink="http://www.w3.org/1999/xlink">
<g><path style="opacity:0.96" fill="#010100" d="M 599.5,89.5 C 599.5,102.5 599.5,115.5 599.5,128.5C 596.494,140.84 592.994,153.173 589,165.5C 580.724,184.385 572.724,203.385 565,222.5C 563.182,232.764 561.849,243.097 561,253.5C 559.323,261.937 554.156,266.603 545.5,267.5C 532.085,264.203 520.919,257.203 512,246.5C 508,241.167 504,235.833 500,230.5C 500.856,238.936 502.523,247.269 505,255.5C 507.982,310.59 496.648,362.59 471,411.5C 462.807,424.032 453.473,435.699 443,446.5C 436.344,455.476 432.178,465.476 430.5,476.5C 433.08,489.85 433.913,503.517 433,517.5C 425.753,552.7 404.253,568.867 368.5,566C 364.384,565.675 360.384,564.841 356.5,563.5C 318.832,572.81 281.165,572.81 243.5,563.5C 210.471,571.224 186.638,559.891 172,529.5C 168.525,518.348 167.692,507.015 169.5,495.5C 168.904,486.821 168.07,478.155 167,469.5C 158.318,452.815 147.318,437.815 134,424.5C 115.493,395.671 102.826,364.338 96,330.5C 89.485,300.986 88.1517,271.319 92,241.5C 84.1019,252.205 74.2685,260.705 62.5,267C 49.791,271.338 41.6243,267.171 38,254.5C 37.2395,244.081 35.9061,233.748 34,223.5C 27.2506,206.253 19.9173,189.253 12,172.5C 6.71888,158.355 2.55221,144.022 -0.5,129.5C -0.5,116.5 -0.5,103.5 -0.5,90.5C 3.9244,80.5837 11.5911,74.417 22.5,72C 50.4373,67.0075 78.4373,62.3408 106.5,58C 134.292,51.1354 161.958,43.8021 189.5,36C 199.684,33.3026 210.018,31.4693 220.5,30.5C 228.502,31.6662 235.835,34.4995 242.5,39C 252.5,47.6667 261.833,57 270.5,67C 288.874,66.2083 307.207,66.7083 325.5,68.5C 335.988,57.1784 346.988,46.3451 358.5,36C 371.543,28.912 385.21,27.5786 399.5,32C 429.795,40.157 460.128,48.157 490.5,56C 514.049,60.4117 537.715,64.0784 561.5,67C 572.86,68.2496 583.193,72.0829 592.5,78.5C 595.62,81.7571 597.953,85.4238 599.5,89.5 Z"/></g>
<g><path style="opacity:1" fill="#272122" d="M 481.5,175.5 C 465.347,146.026 446.347,118.526 424.5,93C 411.924,82.6969 397.591,78.6969 381.5,81C 377.385,82.2235 373.718,84.2235 370.5,87C 420.82,109.654 456.653,146.487 478,197.5C 482.177,209.526 486.01,221.526 489.5,233.5C 496.048,258.194 497.214,283.194 493,308.5C 488.009,344.14 477.009,377.807 460,409.5C 452.043,419.792 443.71,429.792 435,439.5C 431.415,445.002 428.081,450.669 425,456.5C 422.118,449.069 418.451,442.069 414,435.5C 401.833,423.333 389.667,411.167 377.5,399C 359.994,386.682 340.327,379.682 318.5,378C 295.735,375.951 273.402,377.951 251.5,384C 222.764,397.726 199.931,418.226 183,445.5C 180.65,451.238 178.15,456.905 175.5,462.5C 166.46,445.954 155.294,430.954 142,417.5C 116.896,377.181 103.23,333.181 101,285.5C 100.333,274.5 100.333,263.5 101,252.5C 103.17,243.153 105.337,233.819 107.5,224.5C 127.902,162.261 167.235,116.094 225.5,86C 207.261,78.5797 190.595,81.2464 175.5,94C 166.161,103.859 157.661,114.359 150,125.5C 136.07,146.359 122.904,167.692 110.5,189.5C 103.346,202.473 96.1789,215.473 89,228.5C 81.4529,240.381 71.6195,249.881 59.5,257C 55.4873,259.461 51.9873,258.961 49,255.5C 48.7902,236.66 44.7902,218.66 37,201.5C 20.7354,172.542 11.2354,141.542 8.5,108.5C 7.97978,101.824 9.14644,95.4905 12,89.5C 17.8858,84.4206 24.7191,81.254 32.5,80C 58.2856,76.7353 83.9523,72.7353 109.5,68C 136.92,61.0839 164.253,53.7505 191.5,46C 200.126,44.1758 208.792,42.6758 217.5,41.5C 224.102,41.4233 230.102,43.2566 235.5,47C 246.167,56.3333 256.167,66.3333 265.5,77C 287.171,77.6298 308.838,77.9631 330.5,78C 340.833,67.6667 351.167,57.3333 361.5,47C 366.857,41.9884 373.191,39.8217 380.5,40.5C 387.26,40.5711 393.927,41.4045 400.5,43C 430.708,51.4688 461.042,59.4688 491.5,67C 516.766,71.4333 542.1,75.4333 567.5,79C 574.202,80.2707 580.369,82.7707 586,86.5C 587.861,88.8877 589.194,91.5544 590,94.5C 591.33,116.856 587.997,138.523 580,159.5C 571.115,179.271 562.781,199.271 555,219.5C 552.355,229.993 551.022,240.66 551,251.5C 549.336,256.038 546.169,257.538 541.5,256C 526.667,247.833 515.167,236.333 507,221.5C 498.741,205.978 490.241,190.645 481.5,175.5 Z"/></g>
<g><path style="opacity:1" fill="#120c0e" d="M 481.5,175.5 C 480.876,175.917 480.543,176.584 480.5,177.5C 484.798,195.953 487.798,214.62 489.5,233.5C 486.01,221.526 482.177,209.526 478,197.5C 456.653,146.487 420.82,109.654 370.5,87C 373.718,84.2235 377.385,82.2235 381.5,81C 397.591,78.6969 411.924,82.6969 424.5,93C 446.347,118.526 465.347,146.026 481.5,175.5 Z"/></g>
<g><path style="opacity:1" fill="#120c0e" d="M 107.5,224.5 C 107.883,213.715 109.217,203.049 111.5,192.5C 111.48,191.274 111.147,190.274 110.5,189.5C 122.904,167.692 136.07,146.359 150,125.5C 157.661,114.359 166.161,103.859 175.5,94C 190.595,81.2464 207.261,78.5797 225.5,86C 167.235,116.094 127.902,162.261 107.5,224.5 Z"/></g>
<g><path style="opacity:1" fill="#b68145" d="M 187.5,236.5 C 208.364,234.841 222.197,243.841 229,263.5C 231.155,284.357 222.322,298.19 202.5,305C 181.22,307.62 167.387,298.786 161,278.5C 158.462,257.228 167.296,243.228 187.5,236.5 Z"/></g>
<g><path style="opacity:1" fill="#b68145" d="M 396.5,236.5 C 426.173,235.671 440.006,250.005 438,279.5C 431.107,299.04 417.274,307.54 396.5,305C 377.716,298.543 368.882,285.376 370,265.5C 373.469,250.867 382.302,241.2 396.5,236.5 Z"/></g>
<g><path style="opacity:1" fill="#1b0e10" d="M 188.5,245.5 C 204.279,243.968 214.779,250.634 220,265.5C 221.377,284.47 212.711,294.803 194,296.5C 178.005,295.083 169.505,286.25 168.5,270C 170.324,257.693 176.991,249.526 188.5,245.5 Z"/></g>
<g><path style="opacity:1" fill="#1b0f10" d="M 398.5,245.5 C 416.797,244.136 427.464,252.469 430.5,270.5C 427.659,290.161 416.326,298.661 396.5,296C 380.448,288.523 375.282,276.356 381,259.5C 385.245,252.746 391.078,248.079 398.5,245.5 Z"/></g>
<g><path style="opacity:1" fill="#e2e3e3" d="M 200.5,259.5 C 206.966,258.475 210.132,261.142 210,267.5C 205.667,274.167 201.333,274.167 197,267.5C 196.796,264.24 197.963,261.573 200.5,259.5 Z"/></g>
<g><path style="opacity:1" fill="#e5e6e6" d="M 407.5,259.5 C 414.827,258.329 417.994,261.329 417,268.5C 413,273.833 409,273.833 405,268.5C 403.927,264.9 404.76,261.9 407.5,259.5 Z"/></g>
<g><path style="opacity:1" fill="#ba8447" d="M 279.5,388.5 C 292.837,388.333 306.171,388.5 319.5,389C 338.237,390.709 354.904,397.376 369.5,409C 385.999,421.907 399.832,437.073 411,454.5C 421.487,476.091 424.82,498.758 421,522.5C 412.658,547.095 395.491,558.262 369.5,556C 365.398,555.142 361.398,553.975 357.5,552.5C 330.909,559.153 303.909,561.32 276.5,559C 265.09,558.012 253.923,555.846 243,552.5C 221.775,560.089 203.775,555.422 189,538.5C 184.626,532.086 181.626,525.086 180,517.5C 178.268,501.326 179.768,485.493 184.5,470C 198.498,438.002 220.832,413.669 251.5,397C 260.665,393.215 269.998,390.381 279.5,388.5 Z"/></g>
<g><path style="opacity:1" fill="#1b0e10" d="M 298.5,417.5 C 312.637,417.355 325.97,420.522 338.5,427C 348.685,438.353 350.185,450.853 343,464.5C 335.31,474.687 325.477,482.02 313.5,486.5C 308.85,501.576 310.017,516.243 317,530.5C 326.833,536.333 336.667,542.167 346.5,548C 343.167,548.667 339.833,548.667 336.5,548C 327.63,545.599 318.964,542.599 310.5,539C 304.903,537.544 299.237,537.211 293.5,538C 282.229,543.646 270.396,547.479 258,549.5C 256.601,548.773 255.101,548.273 253.5,548C 262.66,542.674 271.827,537.507 281,532.5C 288.883,517.733 290.383,502.4 285.5,486.5C 278.5,482.667 271.5,478.833 264.5,475C 252.16,464.652 248.327,451.818 253,436.5C 256.691,429.147 262.525,424.313 270.5,422C 279.825,419.514 289.158,418.014 298.5,417.5 Z"/></g>
<g><path style="opacity:1" fill="#1c0f10" d="M 210.5,470.5 C 212.981,470.323 214.814,471.323 216,473.5C 216.339,477.487 214.506,478.987 210.5,478C 208.497,475.691 208.497,473.191 210.5,470.5 Z"/></g>
<g><path style="opacity:1" fill="#1a0e0f" d="M 386.5,471.5 C 389.183,471.663 390.85,472.996 391.5,475.5C 389.054,480.711 386.387,480.711 383.5,475.5C 384.524,474.148 385.524,472.815 386.5,471.5 Z"/></g>
<g><path style="opacity:1" fill="#1a0e0f" d="M 236.5,490.5 C 241.651,490.654 242.984,492.82 240.5,497C 234.738,497.418 233.404,495.251 236.5,490.5 Z"/></g>
<g><path style="opacity:1" fill="#1a0e0f" d="M 360.5,490.5 C 367.671,492.13 368.171,494.796 362,498.5C 358.005,496.518 357.505,493.851 360.5,490.5 Z"/></g>
<g><path style="opacity:1" fill="#1a0e0f" d="M 210.5,495.5 C 216.016,495.473 217.349,497.64 214.5,502C 209.177,502.18 207.843,500.014 210.5,495.5 Z"/></g>
<g><path style="opacity:1" fill="#1a0e0f" d="M 386.5,495.5 C 390.487,495.652 391.987,497.652 391,501.5C 387.736,504.304 385.236,503.637 383.5,499.5C 384.172,497.84 385.172,496.507 386.5,495.5 Z"/></g>
<g><path style="opacity:1" fill="#1a0e0f" d="M 236.5,513.5 C 243.596,515.068 244.096,517.735 238,521.5C 234.192,519.285 233.692,516.618 236.5,513.5 Z"/></g>
<g><path style="opacity:1" fill="#1a0e0f" d="M 361.5,513.5 C 367.355,516.104 367.522,518.77 362,521.5C 357.544,519.031 357.377,516.365 361.5,513.5 Z"/></g>
</svg>
