<?xml version="1.0" encoding="UTF-8"?>
<!DOCTYPE svg PUBLIC "-//W3C//DTD SVG 1.1//EN" "http://www.w3.org/Graphics/SVG/1.1/DTD/svg11.dtd">
<svg xmlns="http://www.w3.org/2000/svg" version="1.1" width="600px" height="600px" style="shape-rendering:geometricPrecision; text-rendering:geometricPrecision; image-rendering:optimizeQuality; fill-rule:evenodd; clip-rule:evenodd" xmlns:xlink="http://www.w3.org/1999/xlink">
<g><path style="opacity:0.956" fill="#050505" d="M 45.5,10.5 C 60.9551,10.7061 75.2885,14.8728 88.5,23C 105.13,33.289 119.63,46.1224 132,61.5C 153.905,90.7418 176.572,119.408 200,147.5C 206.833,154.333 213.667,161.167 220.5,168C 222.777,169.959 225.277,171.459 228,172.5C 261.121,161.593 294.955,158.427 329.5,163C 344.276,165.915 358.943,168.915 373.5,172C 385,161.833 395.833,151 406,139.5C 428.333,111.167 450.667,82.8333 473,54.5C 488.282,37.2829 506.449,24.1163 527.5,15C 560.253,4.62298 580.42,16.123 588,49.5C 591.586,72.2692 590.919,94.9358 586,117.5C 576.391,160.993 562.391,202.993 544,243.5C 541.129,256.855 538.129,270.188 535,283.5C 531.824,293.039 526.324,300.872 518.5,307C 508.916,312.708 499.416,318.541 490,324.5C 491.986,338.447 493.986,352.447 496,366.5C 500.503,405.138 497.503,443.138 487,480.5C 477.872,505.422 462.872,526.088 442,542.5C 432.956,564.202 416.789,577.035 393.5,581C 384.195,582.527 375.029,581.694 366,578.5C 349.854,585.263 333.021,589.096 315.5,590C 286.893,592.591 259.226,588.758 232.5,578.5C 205.985,585.578 183.485,578.911 165,558.5C 160.946,553.058 157.946,547.058 156,540.5C 133.863,523.018 118.863,500.684 111,473.5C 102.875,442.329 99.8745,410.662 102,378.5C 103.692,360.362 106.025,342.362 109,324.5C 99.5836,318.541 90.0836,312.708 80.5,307C 74.1713,302.005 69.338,295.838 66,288.5C 61.4123,274.815 58.0789,260.815 56,246.5C 41.6868,212.895 29.3534,178.561 19,143.5C 10.1728,114.387 7.17283,84.72 10,54.5C 11.3193,41.1848 16.486,29.6848 25.5,20C 31.3749,14.9952 38.0416,11.8285 45.5,10.5 Z"/></g>
<g><path style="opacity:1" fill="#6f6e6e" d="M 42.5,21.5 C 58.5559,20.6842 73.2225,24.8508 86.5,34C 101.113,43.8922 113.947,55.7256 125,69.5C 145.285,96.1203 165.952,122.454 187,148.5C 195.136,157.637 203.636,166.47 212.5,175C 216.364,178.432 220.698,181.099 225.5,183C 227.167,183.667 228.833,183.667 230.5,183C 234.866,181.1 239.366,179.6 244,178.5C 246.131,179.54 247.964,181.04 249.5,183C 252.914,183.297 256.247,183.964 259.5,185C 261.667,187.167 263.833,189.333 266,191.5C 273.124,207.091 277.291,223.591 278.5,241C 280.809,270.495 280.309,299.995 277,329.5C 275.098,341.909 272.098,353.909 268,365.5C 265.5,368 263,370.5 260.5,373C 253.924,375.25 247.257,377.25 240.5,379C 198.76,401.541 171.593,435.374 159,480.5C 156.853,495.64 155.853,510.974 156,526.5C 132.063,504.091 118.397,476.424 115,443.5C 111.565,419.237 110.898,394.904 113,370.5C 114.831,354.03 117.164,337.696 120,321.5C 117.833,318 115,315.167 111.5,313C 101.834,307.836 92.5004,302.169 83.5,296C 77.7092,289.921 73.8759,282.754 72,274.5C 70.2446,264.128 68.2446,253.795 66,243.5C 49.683,206.216 36.3497,167.883 26,128.5C 20.0993,104.492 18.0993,80.1589 20,55.5C 21.317,39.8143 28.817,28.481 42.5,21.5 Z"/></g>
<g><path style="opacity:1" fill="#6f6e6e" d="M 540.5,21.5 C 558.386,19.242 570.22,26.5753 576,43.5C 578.849,54.2993 580.015,65.2993 579.5,76.5C 578.468,106.636 572.968,135.97 563,164.5C 553.982,191.223 543.982,217.556 533,243.5C 530.426,256.949 527.426,270.282 524,283.5C 521.611,288.554 518.445,293.054 514.5,297C 505.5,303.169 496.166,308.836 486.5,314C 483.333,315.833 480.833,318.333 479,321.5C 478.333,323.833 478.333,326.167 479,328.5C 485.62,358.004 488.454,387.838 487.5,418C 485.895,437.793 482.395,457.293 477,476.5C 469.363,497.136 457.363,514.803 441,529.5C 443.284,508.749 441.618,488.416 436,468.5C 432,459.167 428,449.833 424,440.5C 408.05,415.882 387.55,396.048 362.5,381C 356.978,379.383 351.645,377.383 346.5,375C 344.167,374.667 341.833,374.333 339.5,374C 336.667,371.167 333.833,368.333 331,365.5C 326.902,353.909 323.902,341.909 322,329.5C 317.803,293.504 318.137,257.504 323,221.5C 324.832,211.014 328.166,201.014 333,191.5C 335.167,189.333 337.333,187.167 339.5,185C 342.424,184.012 345.424,183.346 348.5,183C 350.665,181.661 352.665,180.161 354.5,178.5C 359.273,179.693 363.94,181.193 368.5,183C 370.167,183.667 371.833,183.667 373.5,183C 378.302,181.099 382.636,178.432 386.5,175C 397.732,164.437 408.232,153.27 418,141.5C 435.716,119.453 453.049,97.1193 470,74.5C 484.096,55.7302 501.263,40.5635 521.5,29C 527.718,25.8792 534.051,23.3792 540.5,21.5 Z"/></g>
<g><path style="opacity:1" fill="#0e0e0e" d="M 50.5,50.5 C 59.2184,49.1305 66.8851,51.2972 73.5,57C 111.231,92.9463 139.064,135.446 157,184.5C 165.724,218.004 157.224,246.504 131.5,270C 123.74,276.953 115.073,278.62 105.5,275C 97.215,265.936 91.3816,255.436 88,243.5C 80.3989,219.363 72.3989,195.363 64,171.5C 59.8801,161.259 55.2134,151.259 50,141.5C 39.362,116.374 36.0287,90.3736 40,63.5C 41.562,57.4533 45.062,53.1199 50.5,50.5 Z"/></g>
<g><path style="opacity:1" fill="#0e0e0e" d="M 538.5,49.5 C 549.245,48.4087 556.079,53.0753 559,63.5C 562.455,84.0937 561.122,104.427 555,124.5C 548.218,142.064 540.885,159.398 533,176.5C 525.465,198.771 518.132,221.104 511,243.5C 507.942,251.283 504.608,258.95 501,266.5C 491.309,279.893 480.143,281.06 467.5,270C 435.162,238.649 429.328,202.816 450,162.5C 468.911,122.84 494.078,87.6737 525.5,57C 529.602,53.9539 533.935,51.4539 538.5,49.5 Z"/></g>
<g><path style="opacity:1" fill="#f9cecc" d="M 63.5,157.5 C 60.9545,150.077 57.6212,143.077 53.5,136.5C 46.3298,117.486 42.8298,97.8193 43,77.5C 42.9618,71.5022 44.2951,65.8355 47,60.5C 50.4384,55.9191 54.9384,54.4191 60.5,56C 63.6612,57.4131 66.6612,59.0797 69.5,61C 107.476,97.0863 135.309,139.92 153,189.5C 159.196,221.908 149.363,248.408 123.5,269C 115.895,273.297 109.395,272.13 104,265.5C 102.08,262.661 100.413,259.661 99,256.5C 88.8765,228.347 79.2098,200.014 70,171.5C 68.1014,166.604 65.9348,161.937 63.5,157.5 Z"/></g>
<g><path style="opacity:1" fill="#f8cecc" d="M 538.5,55.5 C 548.369,54.8603 553.869,59.527 555,69.5C 557.152,92.6104 553.819,114.944 545,136.5C 538.845,147.809 533.512,159.475 529,171.5C 520.194,198.252 511.194,224.918 502,251.5C 499.34,257.49 496.174,263.156 492.5,268.5C 489.836,271.669 486.503,272.835 482.5,272C 474.271,268.783 467.438,263.616 462,256.5C 451.117,242.692 444.617,227.026 442.5,209.5C 445.431,187.873 452.265,167.54 463,148.5C 479.64,117.855 500.14,90.0212 524.5,65C 529.059,61.5629 533.726,58.3963 538.5,55.5 Z"/></g>
<g><path style="opacity:1" fill="#373434" d="M 53.5,136.5 C 57.6212,143.077 60.9545,150.077 63.5,157.5C 59.3788,150.923 56.0455,143.923 53.5,136.5 Z"/></g>
<g><path style="opacity:1" fill="#f4f4f4" d="M 335.5,180.5 C 329.254,183.438 325.587,188.438 324.5,195.5C 322.413,199.49 321.08,203.823 320.5,208.5C 318.625,213.206 317.625,218.206 317.5,223.5C 312.055,262.042 312.222,300.709 318,339.5C 319.392,349.07 321.726,358.403 325,367.5C 326.886,371.44 329.386,374.94 332.5,378C 342.698,380.265 352.364,383.932 361.5,389C 369.549,394.019 377.215,399.519 384.5,405.5C 390.5,412.167 396.833,418.5 403.5,424.5C 409.558,432.559 415.224,440.893 420.5,449.5C 423.98,458.468 427.48,467.468 431,476.5C 436.752,495.329 437.585,514.329 433.5,533.5C 428.338,552.828 416.005,564.995 396.5,570C 391.826,570.434 387.159,570.934 382.5,571.5C 376.05,570.637 369.717,569.304 363.5,567.5C 357.562,564.194 351.562,560.861 345.5,557.5C 344.702,557.043 344.369,556.376 344.5,555.5C 345.465,554.279 345.298,552.946 344,551.5C 331.138,535.255 323.972,516.755 322.5,496C 322.832,489.343 323.998,482.843 326,476.5C 331.344,466.474 337.677,457.141 345,448.5C 347.173,441.183 345.84,434.516 341,428.5C 329.502,417.385 315.669,412.052 299.5,412.5C 283.173,411.66 269.34,416.993 258,428.5C 253.97,433.88 252.303,439.88 253,446.5C 257.281,453.115 261.947,459.448 267,465.5C 277.655,482.947 279.321,501.281 272,520.5C 267.141,532.8 261.308,544.467 254.5,555.5C 248.132,560.016 241.466,564.016 234.5,567.5C 210.317,575.801 189.817,570.467 173,551.5C 169.017,545.201 165.85,538.535 163.5,531.5C 161.392,518.881 161.058,506.214 162.5,493.5C 169.203,460.083 185.203,432.083 210.5,409.5C 214.192,406.138 217.859,402.805 221.5,399.5C 234.621,388.608 249.621,381.441 266.5,378C 269.614,374.94 272.114,371.44 274,367.5C 280.691,346.02 284.358,324.02 285,301.5C 285.667,286.833 285.667,272.167 285,257.5C 284.595,245.939 283.428,234.605 281.5,223.5C 281.375,218.206 280.375,213.206 278.5,208.5C 277.013,199.527 273.847,191.193 269,183.5C 264.72,180.11 259.887,177.944 254.5,177C 284.45,169.885 314.45,169.885 344.5,177C 341.21,177.725 338.21,178.892 335.5,180.5 Z"/></g>
<g><path style="opacity:1" fill="#2b2b2b" d="M 335.5,180.5 C 331.1,184.967 327.434,189.967 324.5,195.5C 325.587,188.438 329.254,183.438 335.5,180.5 Z"/></g>
<g><path style="opacity:1" fill="#4e4d4d" d="M 278.5,208.5 C 280.375,213.206 281.375,218.206 281.5,223.5C 279.882,218.744 278.882,213.744 278.5,208.5 Z"/></g>
<g><path style="opacity:1" fill="#4e4d4d" d="M 320.5,208.5 C 320.118,213.744 319.118,218.744 317.5,223.5C 317.625,218.206 318.625,213.206 320.5,208.5 Z"/></g>
<g><path style="opacity:1" fill="#bfbfbf" d="M 173.5,325.5 C 206.328,324.161 221.828,339.828 220,372.5C 212.614,394.279 197.448,404.112 174.5,402C 151.69,394.898 141.524,379.398 144,355.5C 148.385,339.95 158.218,329.95 173.5,325.5 Z"/></g>
<g><path style="opacity:1" fill="#bfbfbf" d="M 407.5,325.5 C 431.526,322.753 447.36,332.753 455,355.5C 456.491,386.675 441.658,402.175 410.5,402C 386.958,395.433 376.458,379.933 379,355.5C 381.296,345.733 386.463,337.899 394.5,332C 398.789,329.495 403.122,327.328 407.5,325.5 Z"/></g>
<g><path style="opacity:1" fill="#241a17" d="M 181.5,339.5 C 199.124,341.723 206.958,351.723 205,369.5C 201.786,381.035 194.119,387.035 182,387.5C 163.678,385.168 156.011,374.834 159,356.5C 163.246,346.409 170.746,340.742 181.5,339.5 Z"/></g>
<g><path style="opacity:1" fill="#241a17" d="M 416.5,339.5 C 438.26,344.017 445.094,356.684 437,377.5C 423.625,390.827 410.292,390.827 397,377.5C 388.526,356.775 395.026,344.108 416.5,339.5 Z"/></g>
<g><path style="opacity:1" fill="#eaeaea" d="M 185.5,350.5 C 193.161,349.663 196.661,352.996 196,360.5C 192.011,365.356 187.678,365.689 183,361.5C 180.826,357.193 181.659,353.526 185.5,350.5 Z"/></g>
<g><path style="opacity:1" fill="#ececec" d="M 418.5,350.5 C 426.885,349.716 430.051,353.383 428,361.5C 423.322,365.689 418.989,365.356 415,360.5C 414.333,358.5 414.333,356.5 415,354.5C 416.376,353.295 417.542,351.962 418.5,350.5 Z"/></g>
<g><path style="opacity:1" fill="#464646" d="M 221.5,399.5 C 217.859,402.805 214.192,406.138 210.5,409.5C 212.574,404.427 216.24,401.093 221.5,399.5 Z"/></g>
<g><path style="opacity:1" fill="#525151" d="M 384.5,405.5 C 391.833,410.833 398.167,417.167 403.5,424.5C 396.833,418.5 390.5,412.167 384.5,405.5 Z"/></g>
<g><path style="opacity:1" fill="#3c3c3b" d="M 344.5,555.5 C 343.735,555.923 342.902,556.257 342,556.5C 328.256,550.956 314.256,546.289 300,542.5C 285.998,545.414 272.498,549.914 259.5,556C 257.735,556.64 256.068,556.473 254.5,555.5C 261.308,544.467 267.141,532.8 272,520.5C 279.321,501.281 277.655,482.947 267,465.5C 261.947,459.448 257.281,453.115 253,446.5C 252.303,439.88 253.97,433.88 258,428.5C 269.34,416.993 283.173,411.66 299.5,412.5C 315.669,412.052 329.502,417.385 341,428.5C 345.84,434.516 347.173,441.183 345,448.5C 337.677,457.141 331.344,466.474 326,476.5C 323.998,482.843 322.832,489.343 322.5,496C 323.972,516.755 331.138,535.255 344,551.5C 345.298,552.946 345.465,554.279 344.5,555.5 Z"/></g>
<g><path style="opacity:1" fill="#676767" d="M 420.5,449.5 C 435.908,475.937 440.241,503.937 433.5,533.5C 437.585,514.329 436.752,495.329 431,476.5C 427.48,467.468 423.98,458.468 420.5,449.5 Z"/></g>
<g><path style="opacity:1" fill="#281d1a" d="M 241.5,486.5 C 250.487,485.665 252.82,489.165 248.5,497C 239.43,498.136 237.096,494.636 241.5,486.5 Z"/></g>
<g><path style="opacity:1" fill="#271c19" d="M 350.5,486.5 C 358.489,485.317 361.156,488.484 358.5,496C 348.837,498.834 346.17,495.668 350.5,486.5 Z"/></g>
<g><path style="opacity:1" fill="#291e1b" d="M 218.5,495.5 C 225.784,496.265 227.117,499.431 222.5,505C 217.333,505.833 215.167,503.667 216,498.5C 216.698,497.309 217.531,496.309 218.5,495.5 Z"/></g>
<g><path style="opacity:1" fill="#291e1b" d="M 376.5,495.5 C 381.665,495.162 383.831,497.495 383,502.5C 379.527,506.717 376.527,506.384 374,501.5C 373.333,500.5 373.333,499.5 374,498.5C 375.045,497.627 375.878,496.627 376.5,495.5 Z"/></g>
<g><path style="opacity:1" fill="#2a201d" d="M 193.5,497.5 C 200.145,496.977 201.811,499.477 198.5,505C 192.788,505.433 191.122,502.933 193.5,497.5 Z"/></g>
<g><path style="opacity:1" fill="#291e1b" d="M 399.5,497.5 C 406.004,497.138 407.671,499.638 404.5,505C 398.788,505.433 397.122,502.933 399.5,497.5 Z"/></g>
<g><path style="opacity:1" fill="#303030" d="M 162.5,493.5 C 161.058,506.214 161.392,518.881 163.5,531.5C 162.073,529.852 161.24,527.852 161,525.5C 160.333,516.167 160.333,506.833 161,497.5C 161.21,495.942 161.71,494.609 162.5,493.5 Z"/></g>
<g><path style="opacity:1" fill="#271c19" d="M 246.5,520.5 C 254.617,521.566 256.284,525.399 251.5,532C 245.212,533.378 242.379,530.878 243,524.5C 243.69,522.65 244.856,521.316 246.5,520.5 Z"/></g>
<g><path style="opacity:1" fill="#281d1a" d="M 347.5,520.5 C 355.52,520.392 357.854,523.892 354.5,531C 347.752,533.909 344.586,531.743 345,524.5C 345.662,523.016 346.496,521.683 347.5,520.5 Z"/></g>
<g><path style="opacity:1" fill="#291f1c" d="M 198.5,529.5 C 203.501,528.671 205.668,530.671 205,535.5C 202.952,537.787 200.785,537.954 198.5,536C 197.232,533.837 197.232,531.67 198.5,529.5 Z"/></g>
<g><path style="opacity:1" fill="#281d1a" d="M 225.5,529.5 C 230.151,530.232 231.651,532.899 230,537.5C 223.479,540.995 220.813,538.995 222,531.5C 223.302,530.915 224.469,530.249 225.5,529.5 Z"/></g>
<g><path style="opacity:1" fill="#2c221f" d="M 394.5,529.5 C 400.113,528.079 402.28,530.079 401,535.5C 394.707,538.381 392.541,536.381 394.5,529.5 Z"/></g>
<g><path style="opacity:1" fill="#281e1b" d="M 370.5,529.5 C 377.358,530.155 379.025,533.322 375.5,539C 369.498,539.993 367.332,537.493 369,531.5C 369.717,530.956 370.217,530.289 370.5,529.5 Z"/></g>
<g><path style="opacity:1" fill="#4b4848" d="M 344.5,555.5 C 344.369,556.376 344.702,557.043 345.5,557.5C 351.562,560.861 357.562,564.194 363.5,567.5C 354.715,571.929 345.382,575.096 335.5,577C 308.036,580.787 280.703,580.121 253.5,575C 247.03,572.789 240.697,570.289 234.5,567.5C 241.466,564.016 248.132,560.016 254.5,555.5C 256.068,556.473 257.735,556.64 259.5,556C 272.498,549.914 285.998,545.414 300,542.5C 314.256,546.289 328.256,550.956 342,556.5C 342.902,556.257 343.735,555.923 344.5,555.5 Z"/></g>
</svg>
