<?xml version="1.0" encoding="UTF-8"?>
<!DOCTYPE svg PUBLIC "-//W3C//DTD SVG 1.1//EN" "http://www.w3.org/Graphics/SVG/1.1/DTD/svg11.dtd">
<svg xmlns="http://www.w3.org/2000/svg" version="1.1" width="600px" height="600px" style="shape-rendering:geometricPrecision; text-rendering:geometricPrecision; image-rendering:optimizeQuality; fill-rule:evenodd; clip-rule:evenodd" xmlns:xlink="http://www.w3.org/1999/xlink">
<g><path style="opacity:0.954" fill="#010101" d="M 20.5,-0.5 C 36.5,-0.5 52.5,-0.5 68.5,-0.5C 86.1191,8.60151 101.952,20.2682 116,34.5C 140.714,64.8788 165.047,95.5454 189,126.5C 198.136,136.637 207.636,146.47 217.5,156C 220.074,158.243 222.908,160.076 226,161.5C 260.728,149.805 296.228,146.639 332.5,152C 347.075,154.273 361.409,157.273 375.5,161C 389,150.167 401.167,138 412,124.5C 436.286,93.2119 460.953,62.2119 486,31.5C 499.706,18.6064 514.873,7.93975 531.5,-0.5C 547.167,-0.5 562.833,-0.5 578.5,-0.5C 586.072,5.58834 591.572,13.255 595,22.5C 596.581,28.2757 598.081,33.9424 599.5,39.5C 599.5,53.8333 599.5,68.1667 599.5,82.5C 594.314,115.57 585.814,147.903 574,179.5C 566.529,198.913 558.863,218.246 551,237.5C 548.812,252.108 545.479,266.441 541,280.5C 538.275,286.786 534.442,292.286 529.5,297C 518.418,304.291 507.252,311.458 496,318.5C 498.792,335.717 501.126,353.05 503,370.5C 505.128,400.794 503.128,430.794 497,460.5C 488.438,502.519 465.271,533.352 427.5,553C 418.353,569.586 405.019,581.586 387.5,589C 377.568,593.031 367.568,596.531 357.5,599.5C 318.5,599.5 279.5,599.5 240.5,599.5C 221.554,594.861 204.221,586.695 188.5,575C 181.139,568.93 175.473,561.597 171.5,553C 133.918,532.725 110.752,501.559 102,459.5C 95.9615,430.789 93.9615,401.789 96,372.5C 97.9672,354.069 100.301,335.735 103,317.5C 92.8333,311.333 82.6667,305.167 72.5,299C 65.4957,293.158 60.329,285.991 57,277.5C 53.2502,264.003 50.2502,250.336 48,236.5C 30.6215,197.365 16.6215,157.032 6,115.5C 3.48204,103.754 1.31537,92.0869 -0.5,80.5C -0.5,67.1667 -0.5,53.8333 -0.5,40.5C 1.27102,30.0259 4.77102,20.0259 10,10.5C 13.0298,6.30533 16.5298,2.63866 20.5,-0.5 Z"/></g>
<g><path style="opacity:1" fill="#6f6e6e" d="M 473.5,493.5 C 466.833,487.167 460.167,480.833 453.5,474.5C 459.906,454.208 464.74,433.541 468,412.5C 470.175,391.707 465.841,372.374 455,354.5C 440.759,329.923 420.592,312.09 394.5,301C 379.001,295.332 368.168,300.166 362,315.5C 358.634,329.991 354.634,344.325 350,358.5C 346.916,366.061 342.416,372.395 336.5,377.5C 311.801,369.719 287.134,369.719 262.5,377.5C 253.154,367.147 246.654,355.147 243,341.5C 241.55,329.904 238.216,318.904 233,308.5C 227.208,300.455 219.375,297.288 209.5,299C 175.721,311.776 151.221,334.609 136,367.5C 128.988,385.036 127.655,403.036 132,421.5C 133.794,428.804 135.461,436.138 137,443.5C 142.341,459.357 147.175,475.357 151.5,491.5C 150.35,506.913 155.683,519.413 167.5,529C 170.971,531.072 174.638,532.572 178.5,533.5C 178.747,536.939 178.414,540.272 177.5,543.5C 151.103,530.599 131.936,510.599 120,483.5C 111.878,461.225 107.212,438.225 106,414.5C 105.333,401.5 105.333,388.5 106,375.5C 107.808,355.328 110.475,335.328 114,315.5C 113.208,313.413 112.041,311.579 110.5,310C 100.5,304 90.5,298 80.5,292C 72.5089,285.665 67.3423,277.498 65,267.5C 62.5743,256.188 60.241,244.854 58,233.5C 43.154,199.296 30.4873,164.296 20,128.5C 11.738,100.404 8.4047,71.7377 10,42.5C 14.4996,7.50521 32.9996,-3.32813 65.5,10C 87.3174,21.4793 105.817,36.9793 121,56.5C 143.239,86.0757 166.239,115.076 190,143.5C 198.898,153.068 208.398,161.901 218.5,170C 220.534,171.006 222.7,171.506 225,171.5C 249.315,164.606 274.148,160.606 299.5,159.5C 323.394,160.235 346.727,164.068 369.5,171C 372.5,171.667 375.5,171.667 378.5,171C 391.169,162.566 402.335,152.399 412,140.5C 436.714,110.121 461.047,79.4546 485,48.5C 501.845,27.6631 523.012,13.1631 548.5,5C 566.375,1.85039 578.541,8.68373 585,25.5C 586.961,30.6767 588.294,36.01 589,41.5C 590.726,76.3591 586.059,110.359 575,143.5C 565.043,174.375 553.709,204.709 541,234.5C 539.241,243.149 537.574,251.816 536,260.5C 534.589,272.093 529.756,281.927 521.5,290C 513.664,295.755 505.331,300.755 496.5,305C 492.542,307.234 489.042,310.067 486,313.5C 485.333,317.5 485.333,321.5 486,325.5C 496.411,373.673 495.744,421.673 484,469.5C 481.824,478.176 478.324,486.176 473.5,493.5 Z"/></g>
<g><path style="opacity:1" fill="#070707" d="M 39.5,29.5 C 48.8293,28.2832 57.4959,30.1166 65.5,35C 92.9963,59.8611 115.83,88.3611 134,120.5C 143.317,136.793 150.984,153.793 157,171.5C 166.138,210.086 155.638,242.252 125.5,268C 109.87,278.871 97.0364,276.371 87,260.5C 83.3916,252.95 80.0582,245.283 77,237.5C 69.0656,212.363 60.7322,187.363 52,162.5C 47.8801,152.259 43.2134,142.259 38,132.5C 25.1477,103.879 21.481,74.212 27,43.5C 30.3193,38.0175 34.486,33.3508 39.5,29.5 Z"/></g>
<g><path style="opacity:1" fill="#070707" d="M 543.5,29.5 C 562.449,27.2894 572.949,35.6227 575,54.5C 576.71,80.8631 572.377,106.196 562,130.5C 557.394,139.378 553.061,148.378 549,157.5C 539.473,185.082 530.139,212.748 521,240.5C 518.549,247.404 515.549,254.07 512,260.5C 505.372,272.047 495.539,276.214 482.5,273C 458.45,258.102 443.95,236.602 439,208.5C 437.939,196.33 438.939,184.33 442,172.5C 460.784,122.106 489.284,77.9395 527.5,40C 532.489,35.82 537.822,32.32 543.5,29.5 Z"/></g>
<g><path style="opacity:1" fill="#f6c4c3" d="M 62.5,45.5 C 68.5,52.1667 74.8333,58.5 81.5,64.5C 104.145,91.7558 123.311,121.422 139,153.5C 145.51,167.86 149.676,182.86 151.5,198.5C 149.002,222.19 139.002,242.024 121.5,258C 110.728,266.663 101.895,265.163 95,253.5C 92.6667,248.167 90.3333,242.833 88,237.5C 79.337,211.511 70.6703,185.511 62,159.5C 60.1014,154.604 57.9348,149.937 55.5,145.5C 52.9545,138.077 49.6212,131.077 45.5,124.5C 38.815,106.408 34.815,87.7418 33.5,68.5C 33.4956,60.524 34.9956,52.8573 38,45.5C 40.9188,39.9752 45.4188,38.1419 51.5,40C 55.499,41.3328 59.1656,43.1661 62.5,45.5 Z"/></g>
<g><path style="opacity:1" fill="#f7c4c3" d="M 546.5,39.5 C 555.045,37.8541 560.545,41.1875 563,49.5C 565.379,58.3581 566.045,67.3581 565,76.5C 563.771,87.3118 561.771,97.9785 559,108.5C 551.276,127.615 543.276,146.615 535,165.5C 526.46,193.12 517.127,220.454 507,247.5C 504.455,252.761 501.288,257.594 497.5,262C 493.961,263.504 490.295,263.837 486.5,263C 476.051,257.551 467.885,249.718 462,239.5C 453.895,227.185 449.395,213.685 448.5,199C 448.502,191.324 449.668,183.824 452,176.5C 470.159,127.025 497.993,83.8581 535.5,47C 539.233,44.4772 542.899,41.9772 546.5,39.5 Z"/></g>
<g><path style="opacity:1" fill="#3e3838" d="M 62.5,45.5 C 69.8333,50.8333 76.1667,57.1667 81.5,64.5C 74.8333,58.5 68.5,52.1667 62.5,45.5 Z"/></g>
<g><path style="opacity:1" fill="#373333" d="M 45.5,124.5 C 49.6212,131.077 52.9545,138.077 55.5,145.5C 51.3788,138.923 48.0455,131.923 45.5,124.5 Z"/></g>
<g><path style="opacity:1" fill="#4d4747" d="M 262.5,377.5 C 243.177,384.664 225.844,395.164 210.5,409C 191.756,426.398 175.256,445.565 161,466.5C 156.126,474.303 152.959,482.636 151.5,491.5C 147.175,475.357 142.341,459.357 137,443.5C 135.461,436.138 133.794,428.804 132,421.5C 127.655,403.036 128.988,385.036 136,367.5C 151.221,334.609 175.721,311.776 209.5,299C 219.375,297.288 227.208,300.455 233,308.5C 238.216,318.904 241.55,329.904 243,341.5C 246.654,355.147 253.154,367.147 262.5,377.5 Z"/></g>
<g><path style="opacity:1" fill="#4d4747" d="M 453.5,474.5 C 450.518,480.787 448.518,487.454 447.5,494.5C 446.396,484.59 443.229,475.257 438,466.5C 416.789,434.288 389.955,407.788 357.5,387C 350.608,383.326 343.608,380.159 336.5,377.5C 342.416,372.395 346.916,366.061 350,358.5C 354.634,344.325 358.634,329.991 362,315.5C 368.168,300.166 379.001,295.332 394.5,301C 420.592,312.09 440.759,329.923 455,354.5C 465.841,372.374 470.175,391.707 468,412.5C 464.74,433.541 459.906,454.208 453.5,474.5 Z"/></g>
<g><path style="opacity:1" fill="#8c8273" d="M 187.5,318.5 C 210.946,317.14 226.446,327.473 234,349.5C 237.165,374.693 226.665,390.86 202.5,398C 176.416,400.547 160.583,389.047 155,363.5C 154.47,340.209 165.303,325.209 187.5,318.5 Z"/></g>
<g><path style="opacity:1" fill="#8d8273" d="M 395.5,318.5 C 427.499,318.664 442.999,334.664 442,366.5C 434.362,390.787 417.862,401.287 392.5,398C 369.813,389.811 359.979,373.644 363,349.5C 368.193,333.138 379.026,322.805 395.5,318.5 Z"/></g>
<g><path style="opacity:1" fill="#020303" d="M 193.5,333.5 C 213.682,336.202 221.849,347.535 218,367.5C 211.18,381.157 200.347,385.991 185.5,382C 170.232,373.188 166.399,360.688 174,344.5C 179.068,338.055 185.568,334.388 193.5,333.5 Z"/></g>
<g><path style="opacity:1" fill="#020303" d="M 401.5,333.5 C 422.661,336.826 430.494,348.826 425,369.5C 416.968,382.289 405.802,386.122 391.5,381C 382.114,376.072 377.447,368.239 377.5,357.5C 379.205,343.128 387.205,335.128 401.5,333.5 Z"/></g>
<g><path style="opacity:1" fill="#eaeaea" d="M 202.5,344.5 C 211.606,345.06 214.273,349.394 210.5,357.5C 206.066,361.423 201.899,361.09 198,356.5C 196.309,351.131 197.809,347.131 202.5,344.5 Z"/></g>
<g><path style="opacity:1" fill="#eaeaea" d="M 408.5,344.5 C 417.096,345.27 419.596,349.603 416,357.5C 412.04,361.478 408.04,361.478 404,357.5C 401.093,351.557 402.593,347.223 408.5,344.5 Z"/></g>
<g><path style="opacity:1" fill="#352d2b" d="M 336.5,377.5 C 343.608,380.159 350.608,383.326 357.5,387C 389.955,407.788 416.789,434.288 438,466.5C 443.229,475.257 446.396,484.59 447.5,494.5C 449.018,513.983 440.685,527.317 422.5,534.5C 421.751,537.527 421.084,540.527 420.5,543.5C 414.91,556.596 405.91,566.762 393.5,574C 364.01,589.038 332.676,596.205 299.5,595.5C 268.332,596.3 238.665,590.133 210.5,577C 195.849,569.184 184.849,558.017 177.5,543.5C 178.414,540.272 178.747,536.939 178.5,533.5C 174.638,532.572 170.971,531.072 167.5,529C 155.683,519.413 150.35,506.913 151.5,491.5C 152.959,482.636 156.126,474.303 161,466.5C 175.256,445.565 191.756,426.398 210.5,409C 225.844,395.164 243.177,384.664 262.5,377.5C 287.134,369.719 311.801,369.719 336.5,377.5 Z"/></g>
<g><path style="opacity:1" fill="#010202" d="M 289.5,410.5 C 299.744,409.79 309.744,410.957 319.5,414C 329.723,419.323 332.889,427.49 329,438.5C 324.182,450.678 315.349,458.344 302.5,461.5C 301.214,469.85 301.88,478.016 304.5,486C 304.167,487 303.833,488 303.5,489C 309.437,499.938 317.77,508.604 328.5,515C 353.418,531.064 380.752,538.397 410.5,537C 389.264,539.929 368.597,537.596 348.5,530C 337.769,525.801 327.436,520.801 317.5,515C 305.854,511.202 294.187,511.535 282.5,516C 254.35,533.704 223.684,541.371 190.5,539C 187.57,538.394 184.737,537.56 182,536.5C 212.071,538.191 240.571,531.024 267.5,515C 274.24,510.93 280.407,506.096 286,500.5C 288.761,496.65 291.761,492.983 295,489.5C 296.087,481.197 296.92,472.864 297.5,464.5C 297.167,463.5 296.833,462.5 296.5,461.5C 278.164,456.694 268.664,445.027 268,426.5C 272.225,417.144 279.392,411.811 289.5,410.5 Z"/></g>
<g><path style="opacity:1" fill="#676666" d="M 453.5,474.5 C 460.167,480.833 466.833,487.167 473.5,493.5C 462.251,517.086 444.584,533.752 420.5,543.5C 421.084,540.527 421.751,537.527 422.5,534.5C 440.685,527.317 449.018,513.983 447.5,494.5C 448.518,487.454 450.518,480.787 453.5,474.5 Z"/></g>
</svg>
