<?xml version="1.0" encoding="UTF-8"?>
<!DOCTYPE svg PUBLIC "-//W3C//DTD SVG 1.1//EN" "http://www.w3.org/Graphics/SVG/1.1/DTD/svg11.dtd">
<svg xmlns="http://www.w3.org/2000/svg" version="1.1" width="600px" height="600px" style="shape-rendering:geometricPrecision; text-rendering:geometricPrecision; image-rendering:optimizeQuality; fill-rule:evenodd; clip-rule:evenodd" xmlns:xlink="http://www.w3.org/1999/xlink">
<g><path style="opacity:0.947" fill="#010101" d="M 599.5,79.5 C 599.5,92.5 599.5,105.5 599.5,118.5C 581.043,154.129 554.71,182.629 520.5,204C 511.618,208.293 502.451,211.793 493,214.5C 493.567,253.729 489.234,292.396 480,330.5C 475.322,346.867 469.656,362.867 463,378.5C 450.476,400.882 438.476,423.548 427,446.5C 423.465,456.771 420.132,467.105 417,477.5C 412.768,502.658 407.768,527.658 402,552.5C 396.398,573.739 382.565,585.239 360.5,587C 353.167,587.667 345.833,587.667 338.5,587C 325.268,585.22 312.101,583.054 299,580.5C 285.06,583.157 271.06,585.49 257,587.5C 244.551,587.485 232.384,585.652 220.5,582C 209.609,576.775 201.775,568.608 197,557.5C 194.353,548.246 192.02,538.913 190,529.5C 185.64,503.367 180.64,477.367 175,451.5C 171.214,441.927 166.88,432.593 162,423.5C 143.703,395.569 129.703,365.569 120,333.5C 109.257,294.223 104.257,254.223 105,213.5C 85.669,207.755 68.5023,198.255 53.5,185C 30.2188,164.532 12.2188,140.365 -0.5,112.5C -0.5,102.5 -0.5,92.5 -0.5,82.5C 3.07929,77.4278 7.74596,73.5945 13.5,71C 67.6098,44.3891 124.61,27.5558 184.5,20.5C 189.389,21.1112 194.223,21.1112 199,20.5C 209.168,21.0368 217.168,25.3702 223,33.5C 225.724,39.0053 228.057,44.672 230,50.5C 275.663,32.1922 321.496,31.8588 367.5,49.5C 368.167,49.1667 368.833,48.8333 369.5,48.5C 373.65,33.5128 383.316,24.6795 398.5,22C 417.699,20.0208 436.699,21.3542 455.5,26C 503.365,35.8433 549.032,51.8433 592.5,74C 594.996,75.6665 597.329,77.4998 599.5,79.5 Z"/></g>
<g><path style="opacity:1" fill="#131410" d="M 404.5,32.5 C 403.445,35.0728 403.278,37.7395 404,40.5C 414.906,53.3161 425.572,66.3161 436,79.5C 442.801,91.435 448.801,103.768 454,116.5C 458.051,135.754 461.717,155.087 465,174.5C 466.867,182.967 469.2,191.3 472,199.5C 476.221,203.923 481.387,205.59 487.5,204.5C 488.209,205.404 489.209,205.737 490.5,205.5C 491.196,211.502 488.529,213.835 482.5,212.5C 482.828,224.012 482.495,235.346 481.5,246.5C 481.5,234.833 481.5,223.167 481.5,211.5C 473.586,210.744 468.086,206.744 465,199.5C 462.464,191.559 460.131,183.559 458,175.5C 455.309,157.046 451.976,138.713 448,120.5C 443.611,107.055 437.611,94.3887 430,82.5C 419.094,69.6839 408.428,56.6839 398,43.5C 397.004,40.0911 396.171,36.7577 395.5,33.5C 397.39,31.4099 399.057,29.0765 400.5,26.5C 404.49,27.1028 405.824,29.1028 404.5,32.5 Z"/></g>
<g><path style="opacity:1" fill="#131410" d="M 198.5,31.5 C 186.915,49.5999 175.082,67.5999 163,85.5C 154.514,98.8035 148.514,113.137 145,128.5C 141.48,150.475 138.146,172.475 135,194.5C 134.208,196.587 133.041,198.421 131.5,200C 126.239,202.545 121.406,205.712 117,209.5C 116.506,211.134 116.34,212.801 116.5,214.5C 115.566,213.432 115.232,212.099 115.5,210.5C 114.5,210.5 113.5,210.5 112.5,210.5C 112.5,208.5 112.5,206.5 112.5,204.5C 111.209,204.737 110.209,204.404 109.5,203.5C 111.199,203.66 112.866,203.494 114.5,203C 118.912,199.71 123.412,196.544 128,193.5C 131.924,170.544 135.591,147.544 139,124.5C 143.218,108.398 149.885,93.3984 159,79.5C 169.304,63.6971 179.804,48.0304 190.5,32.5C 188.257,31.5258 185.924,31.1924 183.5,31.5C 186.563,30.7986 189.73,30.132 193,29.5C 194.584,30.8613 196.418,31.528 198.5,31.5 Z"/></g>
<g><path style="opacity:1" fill="#8f8f8f" d="M 183.5,31.5 C 185.924,31.1924 188.257,31.5258 190.5,32.5C 179.804,48.0304 169.304,63.6971 159,79.5C 149.885,93.3984 143.218,108.398 139,124.5C 135.591,147.544 131.924,170.544 128,193.5C 123.412,196.544 118.912,199.71 114.5,203C 112.866,203.494 111.199,203.66 109.5,203.5C 91.8674,199.017 76.2008,190.851 62.5,179C 48.1881,166.029 35.3548,151.862 24,136.5C 17.085,126.67 11.7517,116.003 8,104.5C 7.33333,99.5 7.33333,94.5 8,89.5C 9.4578,87.04 11.2911,84.8734 13.5,83C 66.8714,55.0436 123.538,37.8769 183.5,31.5 Z"/></g>
<g><path style="opacity:1" fill="#6f6e6e" d="M 198.5,31.5 C 207.663,31.5034 213.83,35.8367 217,44.5C 218.177,50.3949 220.677,55.5616 224.5,60C 225.833,60.1667 227.167,60.3333 228.5,60.5C 241.348,56.4963 254.348,52.9963 267.5,50C 301.143,44.1088 333.81,47.4421 365.5,60C 369.244,60.9285 372.744,60.4285 376,58.5C 378.852,49.9547 383.352,42.4547 389.5,36C 391.407,34.878 393.407,34.0447 395.5,33.5C 396.171,36.7577 397.004,40.0911 398,43.5C 408.428,56.6839 419.094,69.6839 430,82.5C 437.611,94.3887 443.611,107.055 448,120.5C 451.976,138.713 455.309,157.046 458,175.5C 460.131,183.559 462.464,191.559 465,199.5C 468.086,206.744 473.586,210.744 481.5,211.5C 481.5,223.167 481.5,234.833 481.5,246.5C 480.827,264.862 478.494,282.862 474.5,300.5C 474.496,295.011 471.829,293.178 466.5,295C 464.833,296 463.167,297 461.5,298C 450,313.5 438.5,329 427,344.5C 407.47,367.006 383.637,373.506 355.5,364C 350.107,361.274 345.274,357.774 341,353.5C 343.478,385.61 347.145,417.61 352,449.5C 352.825,460.341 352.659,471.008 351.5,481.5C 348.812,462.311 337.812,451.144 318.5,448C 306.209,446.464 293.876,446.13 281.5,447C 269.667,448.501 259.501,453.334 251,461.5C 247.356,466.777 244.856,472.444 243.5,478.5C 243.334,468.828 243.5,459.161 244,449.5C 249.073,419.684 251.24,389.684 250.5,359.5C 219.899,373.473 193.065,368.14 170,343.5C 159.624,327.914 149.124,312.414 138.5,297C 128.942,291.942 124.275,294.776 124.5,305.5C 118.041,275.661 115.374,245.327 116.5,214.5C 116.34,212.801 116.506,211.134 117,209.5C 121.406,205.712 126.239,202.545 131.5,200C 133.041,198.421 134.208,196.587 135,194.5C 138.146,172.475 141.48,150.475 145,128.5C 148.514,113.137 154.514,98.8035 163,85.5C 175.082,67.5999 186.915,49.5999 198.5,31.5 Z"/></g>
<g><path style="opacity:1" fill="#8f8f8f" d="M 487.5,204.5 C 481.387,205.59 476.221,203.923 472,199.5C 469.2,191.3 466.867,182.967 465,174.5C 461.717,155.087 458.051,135.754 454,116.5C 448.801,103.768 442.801,91.435 436,79.5C 425.572,66.3161 414.906,53.3161 404,40.5C 403.278,37.7395 403.445,35.0728 404.5,32.5C 414.831,31.2581 425.164,31.4248 435.5,33C 488.693,42.0645 539.36,58.7311 587.5,83C 589,84.5 590.5,86 592,87.5C 594.511,97.1849 593.511,106.518 589,115.5C 574.625,143.547 554.792,167.047 529.5,186C 516.825,195.171 502.825,201.338 487.5,204.5 Z"/></g>
<g><path style="opacity:1" fill="#cfa168" d="M 231.5,182.5 C 243.372,183.025 251.872,188.691 257,199.5C 260.035,205.515 261.035,211.848 260,218.5C 258.127,224.789 254.294,226.955 248.5,225C 246.5,223 244.5,221 242.5,219C 236.675,216.255 231.008,213.255 225.5,210C 217.512,205.536 215.012,199.036 218,190.5C 222.183,187.164 226.683,184.497 231.5,182.5 Z"/></g>
<g><path style="opacity:1" fill="#cfa268" d="M 361.5,182.5 C 368.346,182.616 374.679,184.449 380.5,188C 386.189,195.171 385.523,201.838 378.5,208C 372.154,212.174 365.488,215.841 358.5,219C 348.655,229.765 342.655,227.765 340.5,213C 341.985,198.814 348.985,188.647 361.5,182.5 Z"/></g>
<g><path style="opacity:1" fill="#cc9f66" d="M 203.5,218.5 C 234.319,217.818 249.152,232.818 248,263.5C 241.297,285.443 226.464,295.277 203.5,293C 181.539,286.253 171.706,271.42 174,248.5C 178.015,232.652 187.848,222.652 203.5,218.5 Z"/></g>
<g><path style="opacity:1" fill="#cc9f66" d="M 382.5,218.5 C 404.873,216.761 419.707,226.428 427,247.5C 428.606,278.807 413.773,293.973 382.5,293C 361.03,285.895 351.196,271.062 353,248.5C 357.718,233.283 367.552,223.283 382.5,218.5 Z"/></g>
<g><path style="opacity:1" fill="#010101" d="M 210.5,229.5 C 233.239,233.657 241.072,246.657 234,268.5C 223.703,282.429 210.87,285.262 195.5,277C 184.39,266.239 182.556,254.072 190,240.5C 195.321,233.759 202.155,230.093 210.5,229.5 Z"/></g>
<g><path style="opacity:1" fill="#010100" d="M 389.5,229.5 C 412.239,233.657 420.072,246.657 413,268.5C 402.703,282.429 389.87,285.262 374.5,277C 363.39,266.239 361.556,254.072 369,240.5C 374.313,233.763 381.146,230.097 389.5,229.5 Z"/></g>
<g><path style="opacity:1" fill="#f3f3f3" d="M 215.5,237.5 C 226.456,237.43 229.956,242.43 226,252.5C 219.068,257.417 213.735,256.083 210,248.5C 209.71,243.746 211.544,240.08 215.5,237.5 Z"/></g>
<g><path style="opacity:1" fill="#f2f2f2" d="M 395.5,237.5 C 406.462,237.444 409.962,242.444 406,252.5C 399.068,257.417 393.735,256.083 390,248.5C 389.71,243.746 391.544,240.08 395.5,237.5 Z"/></g>
<g><path style="opacity:1" fill="#d0a267" d="M 243.5,478.5 C 244.562,520.053 265.895,538.887 307.5,535C 337.287,529.705 351.954,511.872 351.5,481.5C 352.659,471.008 352.825,460.341 352,449.5C 347.145,417.61 343.478,385.61 341,353.5C 345.274,357.774 350.107,361.274 355.5,364C 383.637,373.506 407.47,367.006 427,344.5C 438.5,329 450,313.5 461.5,298C 463.167,297 464.833,296 466.5,295C 471.829,293.178 474.496,295.011 474.5,300.5C 474.647,307.287 473.813,313.954 472,320.5C 467.324,337.528 461.658,354.194 455,370.5C 443.588,392.326 431.921,413.993 420,435.5C 415.272,447.682 410.939,460.016 407,472.5C 403,493.833 399,515.167 395,536.5C 393.466,543.635 391.466,550.635 389,557.5C 382.984,568.774 373.484,574.94 360.5,576C 350.464,576.756 340.464,576.423 330.5,575C 319.998,573.166 309.498,571.333 299,569.5C 285.902,572.044 272.735,574.211 259.5,576C 247.964,577.13 236.63,576.13 225.5,573C 211.905,565.682 204.405,554.182 203,538.5C 198.205,513.526 193.539,488.526 189,463.5C 186.36,450.887 182.026,438.887 176,427.5C 162.425,404.897 150.091,381.564 139,357.5C 132.423,340.61 127.59,323.277 124.5,305.5C 124.275,294.776 128.942,291.942 138.5,297C 149.124,312.414 159.624,327.914 170,343.5C 193.065,368.14 219.899,373.473 250.5,359.5C 251.24,389.684 249.073,419.684 244,449.5C 243.5,459.161 243.334,468.828 243.5,478.5 Z"/></g>
<g><path style="opacity:1" fill="#010000" d="M 351.5,481.5 C 351.954,511.872 337.287,529.705 307.5,535C 265.895,538.887 244.562,520.053 243.5,478.5C 244.856,472.444 247.356,466.777 251,461.5C 259.501,453.334 269.667,448.501 281.5,447C 293.876,446.13 306.209,446.464 318.5,448C 337.812,451.144 348.812,462.311 351.5,481.5 Z"/></g>
</svg>
