<?xml version="1.0" encoding="UTF-8"?>
<!DOCTYPE svg PUBLIC "-//W3C//DTD SVG 1.1//EN" "http://www.w3.org/Graphics/SVG/1.1/DTD/svg11.dtd">
<svg xmlns="http://www.w3.org/2000/svg" version="1.1" width="600px" height="600px" style="shape-rendering:geometricPrecision; text-rendering:geometricPrecision; image-rendering:optimizeQuality; fill-rule:evenodd; clip-rule:evenodd" xmlns:xlink="http://www.w3.org/1999/xlink">
<g><path style="opacity:0.973" fill="#020101" d="M 599.5,274.5 C 599.5,292.167 599.5,309.833 599.5,327.5C 584.585,367.007 563.751,403.007 537,435.5C 529.433,443.737 521.267,451.237 512.5,458C 496.657,466.645 481.324,465.645 466.5,455C 455.312,445.811 445.479,435.311 437,423.5C 435.445,425.443 434.278,427.61 433.5,430C 440.575,445.792 443.408,462.292 442,479.5C 441.053,488.903 436.886,496.403 429.5,502C 427.187,502.662 424.854,503.162 422.5,503.5C 422.256,512.155 419.423,519.822 414,526.5C 405.87,536.964 396.703,546.464 386.5,555C 376.953,561.408 368.786,559.908 362,550.5C 355.542,554.646 348.709,558.146 341.5,561C 327.586,565.478 313.586,569.645 299.5,573.5C 285.99,569.955 272.657,565.788 259.5,561C 251.01,558.427 243.177,554.593 236,549.5C 231.88,558.48 225.38,560.98 216.5,557C 201.487,545.991 189.32,532.491 180,516.5C 178.369,512.312 177.536,507.979 177.5,503.5C 172.2,503.266 167.7,501.266 164,497.5C 158.13,487.288 155.796,476.288 157,464.5C 158.765,452.439 161.932,440.773 166.5,429.5C 165.478,428.646 164.645,427.646 164,426.5C 163.282,425.549 162.449,425.383 161.5,426C 151.636,441.2 138.636,452.866 122.5,461C 111.249,465.52 100.249,464.853 89.5,459C 76.3725,449.54 64.8725,438.373 55,425.5C 31.1802,394.483 12.6802,360.483 -0.5,323.5C -0.5,308.167 -0.5,292.833 -0.5,277.5C 9.793,257.589 21.6263,238.589 35,220.5C 63.9329,182.891 95.7662,147.724 130.5,115C 146.1,104.034 163.1,96.0335 181.5,91C 183.721,89.3308 184.055,87.3308 182.5,85C 182.855,80.6525 184.855,77.3192 188.5,75C 196.647,72.2132 204.98,70.2132 213.5,69C 216.155,64.0852 220.322,61.5852 226,61.5C 230.471,62.5127 234.971,62.6794 239.5,62C 241.637,57.5209 245.137,55.0209 250,54.5C 254.228,55.7969 258.562,56.4636 263,56.5C 286.669,52.5245 310.335,52.5245 334,56.5C 338.283,56.5172 342.45,55.8506 346.5,54.5C 351.971,54.6484 355.304,57.3151 356.5,62.5C 362.201,62.3842 367.868,62.2175 373.5,62C 377.595,62.7087 380.595,64.8754 382.5,68.5C 390.27,69.8875 397.937,71.7208 405.5,74C 412.34,77.1296 415.173,82.2962 414,89.5C 423.004,92.8359 432.171,96.0026 441.5,99C 453.158,103.822 463.824,110.156 473.5,118C 516.549,159.354 554.716,204.521 588,253.5C 591.861,260.562 595.695,267.562 599.5,274.5 Z"/></g>
<g><path style="opacity:1" fill="#5a443a" d="M 354.5,332.5 C 350.299,321.737 346.466,310.404 343,298.5C 338.521,264.194 334.188,229.86 330,195.5C 326.736,174.848 322.069,154.515 316,134.5C 313.711,128.749 310.545,123.582 306.5,119C 299.038,115.975 293.538,118.142 290,125.5C 286.162,132.842 283.162,140.508 281,148.5C 277.614,163.094 274.614,177.761 272,192.5C 267.772,222.765 264.105,253.099 261,283.5C 258.365,300.527 253.532,316.86 246.5,332.5C 236.416,333.362 227.083,336.528 218.5,342C 215.772,344.392 212.772,346.392 209.5,348C 204.188,353.644 198.521,358.977 192.5,364C 183.443,366.94 175.61,371.774 169,378.5C 165.773,384.226 165.939,389.893 169.5,395.5C 168.167,397.5 166.833,399.5 165.5,401.5C 164.295,400.423 163.628,399.09 163.5,397.5C 164.793,370.057 162.96,342.723 158,315.5C 151.002,290.174 145.668,264.508 142,238.5C 141.5,223.17 141.333,207.837 141.5,192.5C 142.897,153.345 160.397,124.012 194,104.5C 194.167,104.167 194.333,103.833 194.5,103.5C 193.5,103.167 192.5,102.833 191.5,102.5C 188.188,103.379 184.855,103.546 181.5,103C 190.167,98 198.833,93 207.5,88C 202.97,86.3677 198.304,85.3677 193.5,85C 194.328,84.0853 195.328,83.4186 196.5,83C 207.636,80.0955 218.969,78.4288 230.5,78C 228.343,76.0879 226.009,74.4213 223.5,73C 228.486,72.8734 233.486,73.0401 238.5,73.5C 242.569,73.4961 246.569,72.9961 250.5,72C 250.899,69.398 250.899,66.898 250.5,64.5C 253.626,66.813 257.126,67.813 261,67.5C 285.495,63.509 309.995,63.509 334.5,67.5C 338.7,67.3225 342.7,66.3225 346.5,64.5C 346.833,64.8333 347.167,65.1667 347.5,65.5C 344.559,68.5431 344.892,71.0431 348.5,73C 356.839,73.142 365.172,73.142 373.5,73C 371.167,74.5 368.833,76 366.5,77.5C 375.092,79.1263 383.759,80.293 392.5,81C 396.376,81.8811 400.042,83.2145 403.5,85C 402.5,85.3333 401.5,85.6667 400.5,86C 396.642,86.0791 392.976,86.7458 389.5,88C 397.995,92.4132 406.328,97.0799 414.5,102C 411.447,102.179 408.447,102.679 405.5,103.5C 438.52,122.423 456.353,151.09 459,189.5C 461,207.5 461,225.5 459,243.5C 452.826,275.198 446.492,306.865 440,338.5C 437.079,356.491 436.912,374.491 439.5,392.5C 439.764,397.78 438.264,402.447 435,406.5C 434.333,407.833 433.667,407.833 433,406.5C 431.294,402.921 429.461,399.421 427.5,396C 433.543,386.435 431.543,378.769 421.5,373C 416.833,370.667 412.167,368.333 407.5,366C 402.123,360.292 397.123,354.292 392.5,348C 389.833,346.333 387.167,344.667 384.5,343C 374.321,339.564 364.321,336.064 354.5,332.5 Z"/></g>
<g><path style="opacity:1" fill="#47382e" d="M 169.5,105.5 C 171.355,105.272 172.188,105.939 172,107.5C 147.948,126.594 134.615,151.594 132,182.5C 128.854,207.199 129.187,231.866 133,256.5C 136.527,274.273 140.527,291.94 145,309.5C 151.899,338.822 154.233,368.489 152,398.5C 152.333,400.167 152.667,401.833 153,403.5C 155,405.569 156.833,407.735 158.5,410C 149.617,427.55 136.617,441.217 119.5,451C 109.045,455.255 99.3784,453.922 90.5,447C 71.3758,429.883 55.2091,410.383 42,388.5C 26.6682,364.182 15.0016,338.182 7,310.5C 4.3644,300.125 5.3644,290.125 10,280.5C 22.8474,255.455 38.1807,232.122 56,210.5C 79.657,181.168 105.157,153.334 132.5,127C 143.65,117.76 155.984,110.593 169.5,105.5 Z"/></g>
<g><path style="opacity:1" fill="#47382e" d="M 425.5,105.5 C 425.56,104.957 425.893,104.624 426.5,104.5C 445.611,110.801 462.277,120.968 476.5,135C 509.287,168.105 539.454,203.272 567,240.5C 578.562,256.084 587.562,273.084 594,291.5C 594.667,296.5 594.667,301.5 594,306.5C 579.264,360.161 552.097,406.328 512.5,445C 498.57,456.273 484.57,456.273 470.5,445C 459.667,435.838 450.667,425.171 443.5,413C 446.486,409.389 448.319,405.223 449,400.5C 449.595,389.95 449.095,379.45 447.5,369C 448.088,356.777 449.255,344.61 451,332.5C 457.513,303.267 463.513,273.934 469,244.5C 471.6,219.35 470.6,194.35 466,169.5C 460.802,142.741 447.302,121.408 425.5,105.5 Z"/></g>
<g><path style="opacity:1" fill="#6d5349" d="M 354.5,332.5 C 350.147,332.235 345.813,331.735 341.5,331C 339.611,324.293 335.111,321.126 328,321.5C 322.007,322.998 316.174,324.998 310.5,327.5C 304.832,324.499 298.832,322.499 292.5,321.5C 288.528,321.991 284.695,322.991 281,324.5C 276.682,323.74 272.348,323.074 268,322.5C 261.803,322.68 257.303,325.513 254.5,331C 251.883,331.822 249.216,332.322 246.5,332.5C 253.532,316.86 258.365,300.527 261,283.5C 264.105,253.099 267.772,222.765 272,192.5C 274.614,177.761 277.614,163.094 281,148.5C 283.162,140.508 286.162,132.842 290,125.5C 293.538,118.142 299.038,115.975 306.5,119C 310.545,123.582 313.711,128.749 316,134.5C 322.069,154.515 326.736,174.848 330,195.5C 334.188,229.86 338.521,264.194 343,298.5C 346.466,310.404 350.299,321.737 354.5,332.5 Z"/></g>
<g><path style="opacity:1" fill="#856f66" d="M 245.5,214.5 C 243.833,216.808 241.5,218.308 238.5,219C 235.305,219.181 232.305,219.681 229.5,220.5C 219.066,222.418 209.399,226.085 200.5,231.5C 195.632,233.382 191.299,236.048 187.5,239.5C 182.795,242.704 177.962,245.704 173,248.5C 170.812,248.646 169.479,247.646 169,245.5C 168.245,242.697 168.578,240.03 170,237.5C 182.729,217.372 200.563,203.872 223.5,197C 231.166,195.267 238,196.767 244,201.5C 246.559,205.637 247.059,209.97 245.5,214.5 Z"/></g>
<g><path style="opacity:1" fill="#866f66" d="M 414.5,239.5 C 410.449,235.806 405.783,233.14 400.5,231.5C 391.481,225.49 381.481,221.824 370.5,220.5C 365.426,220.062 360.76,218.395 356.5,215.5C 352.808,208.253 354.475,202.42 361.5,198C 369.245,195.95 376.912,196.283 384.5,199C 404.955,206.639 420.788,219.806 432,238.5C 433.004,241.993 432.504,245.159 430.5,248C 428.365,248.635 426.365,248.301 424.5,247C 421.29,244.283 417.956,241.783 414.5,239.5 Z"/></g>
<g><path style="opacity:1" fill="#6c5349" d="M 245.5,214.5 C 247.749,218.598 250.249,222.598 253,226.5C 259.949,249.769 252.115,265.602 229.5,274C 203.865,276.524 189.865,265.024 187.5,239.5C 191.299,236.048 195.632,233.382 200.5,231.5C 196.22,246.44 201.22,256.94 215.5,263C 236.164,264.74 245.664,255.24 244,234.5C 241.869,226.866 237.035,222.199 229.5,220.5C 232.305,219.681 235.305,219.181 238.5,219C 241.5,218.308 243.833,216.808 245.5,214.5 Z"/></g>
<g><path style="opacity:1" fill="#6c5349" d="M 356.5,215.5 C 360.76,218.395 365.426,220.062 370.5,220.5C 361.454,223.874 356.788,230.541 356.5,240.5C 358.738,257.572 368.405,265.072 385.5,263C 400.296,257.239 405.296,246.739 400.5,231.5C 405.783,233.14 410.449,235.806 414.5,239.5C 410.751,267.054 395.084,278.221 367.5,273C 351.052,264.941 343.885,251.774 346,233.5C 347.714,226.398 351.214,220.398 356.5,215.5 Z"/></g>
<g><path style="opacity:1" fill="#060505" d="M 229.5,220.5 C 237.035,222.199 241.869,226.866 244,234.5C 245.664,255.24 236.164,264.74 215.5,263C 201.22,256.94 196.22,246.44 200.5,231.5C 209.399,226.085 219.066,222.418 229.5,220.5 Z"/></g>
<g><path style="opacity:1" fill="#050505" d="M 370.5,220.5 C 381.481,221.824 391.481,225.49 400.5,231.5C 405.296,246.739 400.296,257.239 385.5,263C 368.405,265.072 358.738,257.572 356.5,240.5C 356.788,230.541 361.454,223.874 370.5,220.5 Z"/></g>
<g><path style="opacity:1" fill="#f0f0f0" d="M 233.5,238.5 C 230.349,242.027 226.849,242.36 223,239.5C 221.991,237.975 221.491,236.308 221.5,234.5C 224.183,232.719 227.183,232.219 230.5,233C 232.16,234.488 233.16,236.321 233.5,238.5 Z"/></g>
<g><path style="opacity:1" fill="#222120" d="M 381.5,234.5 C 380.624,234.369 379.957,234.702 379.5,235.5C 381.9,241.712 385.9,243.045 391.5,239.5C 390.498,249.171 385.164,253.338 375.5,252C 367.28,247.345 365.613,241.011 370.5,233C 374.381,232.65 378.048,233.15 381.5,234.5 Z"/></g>
<g><path style="opacity:1" fill="#e5e5e5" d="M 381.5,234.5 C 385.299,235.421 388.632,237.088 391.5,239.5C 385.9,243.045 381.9,241.712 379.5,235.5C 379.957,234.702 380.624,234.369 381.5,234.5 Z"/></g>
<g><path style="opacity:1" fill="#222120" d="M 221.5,234.5 C 221.491,236.308 221.991,237.975 223,239.5C 226.849,242.36 230.349,242.027 233.5,238.5C 233.446,249.351 228.113,253.851 217.5,252C 212.658,249.509 209.991,245.509 209.5,240C 212.846,236.828 216.846,234.995 221.5,234.5 Z"/></g>
<g><path style="opacity:1" fill="#45372d" d="M 141.5,192.5 C 141.333,207.837 141.5,223.17 142,238.5C 145.668,264.508 151.002,290.174 158,315.5C 162.96,342.723 164.793,370.057 163.5,397.5C 162.778,397.918 162.278,398.584 162,399.5C 163.157,378.123 162.49,356.789 160,335.5C 154.967,308.702 149.301,282.035 143,255.5C 139.789,234.38 139.289,213.38 141.5,192.5 Z"/></g>
<g><path style="opacity:1" fill="#523f37" d="M 300.5,334.5 C 297.211,333.626 293.877,332.959 290.5,332.5C 290.5,333.833 290.5,335.167 290.5,336.5C 289.549,335.081 289.216,333.415 289.5,331.5C 293.647,331.126 297.314,332.126 300.5,334.5 Z"/></g>
<g><path style="opacity:1" fill="#604e44" d="M 325.5,332.5 C 327.265,331.539 329.265,331.205 331.5,331.5C 331.737,332.791 331.404,333.791 330.5,334.5C 329.448,332.744 327.781,332.077 325.5,332.5 Z"/></g>
<g><path style="opacity:1" fill="#caba9f" d="M 300.5,334.5 C 303.314,336.409 306.314,338.076 309.5,339.5C 315.152,337.669 320.486,335.335 325.5,332.5C 327.781,332.077 329.448,332.744 330.5,334.5C 326.399,337.332 326.733,339.332 331.5,340.5C 337.099,341.752 342.766,342.418 348.5,342.5C 348.833,342.5 349.167,342.5 349.5,342.5C 352.219,343.913 355.219,344.58 358.5,344.5C 365.673,348.453 373.34,351.453 381.5,353.5C 386.805,359.14 392.139,364.807 397.5,370.5C 397.238,371.978 397.571,373.311 398.5,374.5C 406.614,377.388 413.947,381.554 420.5,387C 417.902,386.578 415.236,386.578 412.5,387C 411.572,387.388 410.905,388.055 410.5,389C 415.385,396.903 419.885,405.069 424,413.5C 424.708,414.381 425.542,415.047 426.5,415.5C 426.5,417.5 426.5,419.5 426.5,421.5C 423.221,420.374 419.888,419.541 416.5,419C 425.839,434.352 431.172,451.019 432.5,469C 432.532,476.176 431.032,483.01 428,489.5C 425.525,492.524 422.525,493.19 419,491.5C 417.333,488.833 415.667,486.167 414,483.5C 413,484.833 412,484.833 411,483.5C 411.999,493.19 411.666,502.856 410,512.5C 401.404,527.263 389.904,539.263 375.5,548.5C 374.522,548.023 373.689,547.357 373,546.5C 372.148,542.073 370.982,537.739 369.5,533.5C 368.264,532.643 366.931,531.977 365.5,531.5C 356.556,541.65 345.556,548.817 332.5,553C 321.521,556.327 310.521,559.494 299.5,562.5C 283.3,559.044 267.633,553.878 252.5,547C 244.786,543.446 238.453,538.279 233.5,531.5C 232.069,531.977 230.736,532.643 229.5,533.5C 228.188,538.229 226.688,542.896 225,547.5C 223.951,548.517 222.784,548.684 221.5,548C 209.864,538.574 199.697,527.74 191,515.5C 189.601,512.637 188.601,509.637 188,506.5C 188,497.833 188,489.167 188,480.5C 184.349,483.28 181.516,486.78 179.5,491C 176.165,493.291 173.332,492.791 171,489.5C 167.102,478.091 166.435,466.425 169,454.5C 172.422,441.732 176.922,429.399 182.5,417.5C 179.136,418.561 175.803,419.561 172.5,420.5C 172.301,417.059 172.801,413.726 174,410.5C 177.914,403.004 182.08,395.671 186.5,388.5C 183.232,387.513 179.898,387.18 176.5,387.5C 176.281,386.325 176.614,385.325 177.5,384.5C 184.108,379.362 191.441,375.529 199.5,373C 205.855,367.643 211.855,361.977 217.5,356C 224.803,350.515 232.803,346.348 241.5,343.5C 247.417,343.784 253.084,343.117 258.5,341.5C 261.848,340.924 264.515,339.924 266.5,338.5C 266.371,336.784 266.038,335.117 265.5,333.5C 269.798,334.2 274.131,334.533 278.5,334.5C 282.524,336.211 286.524,337.878 290.5,339.5C 290.5,338.5 290.5,337.5 290.5,336.5C 290.5,335.167 290.5,333.833 290.5,332.5C 293.877,332.959 297.211,333.626 300.5,334.5 Z"/></g>
<g><path style="opacity:1" fill="#6b594d" d="M 265.5,333.5 C 266.097,332.861 266.93,332.528 268,332.5C 271.677,332.972 275.177,333.638 278.5,334.5C 274.131,334.533 269.798,334.2 265.5,333.5 Z"/></g>
<g><path style="opacity:1" fill="#746255" d="M 330.5,334.5 C 330.461,335.583 330.127,336.583 329.5,337.5C 330.5,338.167 331.5,338.833 332.5,339.5C 337.997,340.36 343.33,341.36 348.5,342.5C 342.766,342.418 337.099,341.752 331.5,340.5C 326.733,339.332 326.399,337.332 330.5,334.5 Z"/></g>
<g><path style="opacity:1" fill="#604e44" d="M 265.5,333.5 C 266.038,335.117 266.371,336.784 266.5,338.5C 264.515,339.924 261.848,340.924 258.5,341.5C 259.209,340.596 260.209,340.263 261.5,340.5C 261.5,339.5 261.5,338.5 261.5,337.5C 262.873,337.657 264.207,337.49 265.5,337C 264.209,335.708 264.209,334.542 265.5,333.5 Z"/></g>
<g><path style="opacity:1" fill="#705e51" d="M 258.5,341.5 C 253.084,343.117 247.417,343.784 241.5,343.5C 246.973,342.383 252.64,341.717 258.5,341.5 Z"/></g>
<g><path style="opacity:1" fill="#5d4a41" d="M 349.5,342.5 C 352.781,342.42 355.781,343.087 358.5,344.5C 355.219,344.58 352.219,343.913 349.5,342.5 Z"/></g>
<g><path style="opacity:1" fill="#59493e" d="M 358.5,344.5 C 366.461,346.928 374.128,349.928 381.5,353.5C 373.34,351.453 365.673,348.453 358.5,344.5 Z"/></g>
<g><path style="opacity:1" fill="#5c4c41" d="M 397.5,370.5 C 398.158,371.398 398.824,372.398 399.5,373.5C 406.112,376.139 412.446,379.306 418.5,383C 420.607,384.264 421.607,386.097 421.5,388.5C 418.054,387.293 414.721,387.46 411.5,389C 417.41,397.32 422.41,406.153 426.5,415.5C 425.542,415.047 424.708,414.381 424,413.5C 419.885,405.069 415.385,396.903 410.5,389C 410.905,388.055 411.572,387.388 412.5,387C 415.236,386.578 417.902,386.578 420.5,387C 413.947,381.554 406.614,377.388 398.5,374.5C 397.571,373.311 397.238,371.978 397.5,370.5 Z"/></g>
<g><path style="opacity:1" fill="#050201" d="M 282.5,411.5 C 298.439,410.46 314.106,411.96 329.5,416C 350.354,426.565 354.521,441.732 342,461.5C 313.787,490.559 285.787,490.559 258,461.5C 249.261,450.072 248.261,438.072 255,425.5C 262.771,417.869 271.938,413.202 282.5,411.5 Z"/></g>
<g><path style="opacity:1" fill="#391f0f" d="M 299.5,421.5 C 310.263,421.517 320.596,423.684 330.5,428C 337.283,432.334 339.783,438.501 338,446.5C 330.007,461.841 317.341,470.508 300,472.5C 285.751,470.876 274.084,464.543 265,453.5C 258.243,443.799 259.41,435.299 268.5,428C 272.531,425.545 276.864,423.879 281.5,423C 287.681,422.828 293.681,422.328 299.5,421.5 Z"/></g>
</svg>
