<?xml version="1.0" encoding="UTF-8"?>
<!DOCTYPE svg PUBLIC "-//W3C//DTD SVG 1.1//EN" "http://www.w3.org/Graphics/SVG/1.1/DTD/svg11.dtd">
<svg xmlns="http://www.w3.org/2000/svg" version="1.1" width="600px" height="600px" style="shape-rendering:geometricPrecision; text-rendering:geometricPrecision; image-rendering:optimizeQuality; fill-rule:evenodd; clip-rule:evenodd" xmlns:xlink="http://www.w3.org/1999/xlink">
<g><path style="opacity:0.962" fill="#030302" d="M 599.5,304.5 C 599.5,317.833 599.5,331.167 599.5,344.5C 595.411,345.4 591.411,345.734 587.5,345.5C 594.049,358.078 596.549,371.411 595,385.5C 589.497,410.329 582.997,434.829 575.5,459C 572.464,461.006 569.131,461.84 565.5,461.5C 567.821,469.381 566.154,476.215 560.5,482C 558.212,482.822 555.878,483.489 553.5,484C 556.268,496.236 559.434,508.403 563,520.5C 564.593,536.247 557.76,542.413 542.5,539C 539.827,537.999 537.493,536.499 535.5,534.5C 532.431,541.062 527.264,544.729 520,545.5C 464.892,533.059 434.559,498.725 429,442.5C 427.25,445.246 426.25,448.246 426,451.5C 424.577,466.51 423.244,481.51 422,496.5C 417.913,524.255 401.913,539.255 374,541.5C 363.727,540.973 353.894,538.64 344.5,534.5C 315.152,546.147 285.652,546.48 256,535.5C 240.739,541.765 225.239,542.599 209.5,538C 196.846,532.679 188.346,523.512 184,510.5C 182.285,504.926 180.952,499.26 180,493.5C 178.521,479.146 176.854,464.813 175,450.5C 174.135,445.375 172.802,440.375 171,435.5C 168.712,453.59 164.379,471.257 158,488.5C 144.58,512.977 124.746,530.144 98.5,540C 92.0581,542.036 85.5581,543.869 79,545.5C 71.7357,544.729 66.5691,541.062 63.5,534.5C 55.892,541.455 47.892,542.122 39.5,536.5C 36.8781,533.135 35.5448,529.302 35.5,525C 39.2125,511.317 42.2125,497.484 44.5,483.5C 36.8635,482.358 32.8635,477.858 32.5,470C 33.2156,467.208 33.5489,464.374 33.5,461.5C 27.5753,462.125 23.4086,459.792 21,454.5C 15.8257,433.47 10.4924,412.47 5,391.5C 1.72133,375.229 3.888,359.729 11.5,345C 7.5218,345.713 3.5218,345.547 -0.5,344.5C -0.5,331.167 -0.5,317.833 -0.5,304.5C 7.89664,290.052 17.0633,276.052 27,262.5C 32.5574,249.042 39.8907,236.709 49,225.5C 62.9565,208.543 77.9565,192.543 94,177.5C 108.368,150.793 126.868,127.293 149.5,107C 155.66,102.42 161.993,98.0862 168.5,94C 186.237,86.4701 204.237,79.4701 222.5,73C 273.843,59.0438 325.176,59.0438 376.5,73C 388.777,76.6403 400.444,81.6403 411.5,88C 425.788,91.1441 438.455,97.4774 449.5,107C 472.132,127.293 490.632,150.793 505,177.5C 527.222,198.048 546.889,220.715 564,245.5C 566.394,251.287 569.06,256.954 572,262.5C 581.937,276.052 591.103,290.052 599.5,304.5 Z"/></g>
<g><path style="opacity:1" fill="#5a443a" d="M 409.5,99.5 C 408.137,102.214 408.304,104.881 410,107.5C 432.758,132.715 446.092,162.382 450,196.5C 451.903,228.828 451.903,261.161 450,293.5C 446.493,328.587 442.66,363.587 438.5,398.5C 433.896,407.609 429.063,416.609 424,425.5C 420.197,434.243 417.197,443.243 415,452.5C 414.658,445.362 413.492,438.362 411.5,431.5C 408.409,421.222 404.743,411.222 400.5,401.5C 397.221,400.969 395.887,398.969 396.5,395.5C 392.258,394.583 390.258,391.917 390.5,387.5C 386.258,386.583 384.258,383.917 384.5,379.5C 380.306,377.321 376.639,374.321 373.5,370.5C 372.691,368.929 372.357,367.262 372.5,365.5C 368.306,363.321 364.639,360.321 361.5,356.5C 360.691,354.929 360.357,353.262 360.5,351.5C 356.258,350.583 354.258,347.917 354.5,343.5C 351.221,342.969 349.887,340.969 350.5,337.5C 347.221,336.969 345.887,334.969 346.5,331.5C 345.325,331.719 344.325,331.386 343.5,330.5C 333.253,311.425 327.253,291.091 325.5,269.5C 325.077,233.452 323.91,197.452 322,161.5C 320.175,146.544 317.009,131.877 312.5,117.5C 310.641,117.539 309.308,116.706 308.5,115C 303.511,114.501 298.511,114.334 293.5,114.5C 293.167,117.5 291.5,119.167 288.5,119.5C 283.474,135.18 280.474,151.18 279.5,167.5C 277.065,203.114 275.899,238.78 276,274.5C 273.904,287.884 270.404,300.884 265.5,313.5C 261.891,320.384 258.558,327.384 255.5,334.5C 254.272,336.321 252.606,337.321 250.5,337.5C 251.113,340.969 249.779,342.969 246.5,343.5C 246.053,348.613 243.386,351.947 238.5,353.5C 238.643,355.262 238.309,356.929 237.5,358.5C 235.02,361.664 232.02,363.998 228.5,365.5C 228.643,367.262 228.309,368.929 227.5,370.5C 224.361,374.321 220.694,377.321 216.5,379.5C 216.053,384.613 213.386,387.947 208.5,389.5C 209.113,392.969 207.779,394.969 204.5,395.5C 205.113,398.969 203.779,400.969 200.5,401.5C 193.174,417.473 188.341,434.14 186,451.5C 184.208,441.457 181.208,431.79 177,422.5C 171.644,412.339 166.144,402.339 160.5,392.5C 160.013,391.527 159.513,390.527 159,389.5C 156.331,362.801 153.331,336.135 150,309.5C 147.269,271.848 146.936,234.181 149,196.5C 152.908,162.382 166.242,132.715 189,107.5C 190.818,104.584 190.984,101.584 189.5,98.5C 212.696,85.2778 237.696,77.4444 264.5,75C 297.77,71.8127 330.77,73.4794 363.5,80C 372.637,82.6011 381.637,85.6011 390.5,89C 397.508,91.4989 403.841,94.9989 409.5,99.5 Z"/></g>
<g><path style="opacity:1" fill="#47382e" d="M 189.5,98.5 C 190.984,101.584 190.818,104.584 189,107.5C 166.242,132.715 152.908,162.382 149,196.5C 146.936,234.181 147.269,271.848 150,309.5C 153.331,336.135 156.331,362.801 159,389.5C 159.513,390.527 160.013,391.527 160.5,392.5C 161.636,415.168 160.136,437.834 156,460.5C 147.873,495.632 126.707,519.132 92.5,531C 86.9345,532.971 81.2678,533.971 75.5,534C 74.8742,533.25 74.3742,532.416 74,531.5C 73.501,527.179 73.3343,522.846 73.5,518.5C 69.4885,518.502 65.8219,519.668 62.5,522C 59.1134,525.053 55.4467,527.72 51.5,530C 49.8876,530.72 48.3876,530.554 47,529.5C 46.3333,525.833 46.3333,522.167 47,518.5C 53.4966,500.357 56.4966,481.691 56,462.5C 55.2825,461.549 54.4491,461.383 53.5,462C 50.3682,465.782 47.3682,469.615 44.5,473.5C 44.1667,471.667 43.8333,469.833 43.5,468C 44.6987,459.188 45.1987,450.355 45,441.5C 44.2747,439.842 43.108,439.342 41.5,440C 38.5,443.667 35.5,447.333 32.5,451C 31.6683,451.688 31.0016,451.521 30.5,450.5C 27.2627,434.283 23.096,418.283 18,402.5C 14.8101,391.701 13.4768,380.701 14,369.5C 16.5384,359.885 19.8717,350.552 24,341.5C 25.2127,338.232 25.546,334.899 25,331.5C 23.874,330.056 22.374,329.39 20.5,329.5C 14.8886,331.479 9.22193,333.146 3.5,334.5C 3.57115,323.447 6.40448,313.114 12,303.5C 19.1716,291.821 26.8382,280.488 35,269.5C 40.4723,256.548 47.4723,244.548 56,233.5C 69.9565,216.543 84.9565,200.543 101,185.5C 108.667,173.5 116.333,161.5 124,149.5C 135.833,133.667 149.667,119.833 165.5,108C 172.77,102.861 180.77,99.6941 189.5,98.5 Z"/></g>
<g><path style="opacity:1" fill="#47382e" d="M 409.5,99.5 C 418.38,99.7698 426.38,102.603 433.5,108C 447.962,118.795 460.795,131.295 472,145.5C 480.667,158.833 489.333,172.167 498,185.5C 516.789,202.618 533.789,221.285 549,241.5C 554.524,250.547 559.524,259.88 564,269.5C 577.408,285.639 587.741,303.639 595,323.5C 596.438,326.821 596.605,330.154 595.5,333.5C 594.667,333.833 593.833,334.167 593,334.5C 588.148,332.438 583.148,330.771 578,329.5C 576.289,329.439 574.956,330.106 574,331.5C 574.812,340.948 577.479,349.948 582,358.5C 583.88,363.854 585.047,369.354 585.5,375C 584.702,384.29 583.202,393.456 581,402.5C 575.971,418.117 571.804,433.95 568.5,450C 568.15,451.257 567.483,451.591 566.5,451C 563.56,446.592 560.06,442.758 556,439.5C 555.055,439.905 554.388,440.572 554,441.5C 553.801,450.355 554.301,459.188 555.5,468C 555.167,469.833 554.833,471.667 554.5,473.5C 551.632,469.615 548.632,465.782 545.5,462C 543.591,461.552 542.424,462.385 542,464.5C 542.754,482.938 546.087,500.938 552,518.5C 552.825,522.211 552.659,525.878 551.5,529.5C 550.232,530.428 548.899,530.595 547.5,530C 542.004,526.084 536.337,522.418 530.5,519C 528.866,518.506 527.199,518.34 525.5,518.5C 525.888,523.628 525.388,528.628 524,533.5C 520.179,534.675 516.346,534.508 512.5,533C 485.564,525.385 465.064,509.552 451,485.5C 444.002,468.184 440.002,450.184 439,431.5C 438.697,420.313 438.53,409.313 438.5,398.5C 442.66,363.587 446.493,328.587 450,293.5C 451.903,261.161 451.903,228.828 450,196.5C 446.092,162.382 432.758,132.715 410,107.5C 408.304,104.881 408.137,102.214 409.5,99.5 Z"/></g>
<g><path style="opacity:1" fill="#fdfdfd" d="M 298.5,119.5 C 303.84,119.665 307.34,122.332 309,127.5C 314.614,147.076 317.614,167.076 318,187.5C 319.033,216.491 319.7,245.491 320,274.5C 321.723,296.842 328.39,317.509 340,336.5C 351.479,353.986 364.479,370.319 379,385.5C 400.335,410.687 410.835,439.854 410.5,473C 411.766,488.275 408.599,502.442 401,515.5C 396.601,520.947 391.101,524.78 384.5,527C 375.454,527.807 366.454,527.474 357.5,526C 351.046,523.273 344.712,520.273 338.5,517C 330.664,511.245 322.331,506.245 313.5,502C 305.938,499.175 298.271,498.842 290.5,501C 276.122,509.523 261.455,517.523 246.5,525C 212.463,533.983 194.297,520.816 192,485.5C 187.508,453.809 194.175,424.809 212,398.5C 221.915,385.247 232.582,372.581 244,360.5C 262.883,338.563 274.883,313.23 280,284.5C 281.334,242.463 283.334,200.463 286,158.5C 286.553,146.165 289.553,134.498 295,123.5C 296.376,122.295 297.542,120.962 298.5,119.5 Z"/></g>
<g><path style="opacity:1" fill="#6d5349" d="M 215.5,206.5 C 243.715,206.544 256.882,220.544 255,248.5C 248.424,268.548 234.591,277.048 213.5,274C 194.262,267.373 185.762,253.873 188,233.5C 192.454,219.545 201.621,210.545 215.5,206.5 Z"/></g>
<g><path style="opacity:1" fill="#6d5349" d="M 372.5,206.5 C 401.709,206.205 415.209,220.539 413,249.5C 404.042,271.395 388.209,278.895 365.5,272C 345.335,259.518 340.502,242.684 351,221.5C 356.818,214.359 363.985,209.359 372.5,206.5 Z"/></g>
<g><path style="opacity:1" fill="#2f2725" d="M 216.5,217.5 C 237.996,217.821 246.83,228.488 243,249.5C 237.241,261.537 227.741,266.037 214.5,263C 202.708,257.584 197.541,248.417 199,235.5C 201.683,226.318 207.517,220.318 216.5,217.5 Z"/></g>
<g><path style="opacity:1" fill="#2f2725" d="M 374.5,217.5 C 396.008,217.831 404.841,228.498 401,249.5C 395.284,261.606 385.784,266.106 372.5,263C 359.036,256.944 354.203,246.777 358,232.5C 361.19,224.843 366.69,219.843 374.5,217.5 Z"/></g>
<g><path style="opacity:1" fill="#f1f1f1" d="M 224.5,228.5 C 230.641,227.816 233.808,230.483 234,236.5C 230.421,242.753 226.421,243.086 222,237.5C 220.927,233.9 221.76,230.9 224.5,228.5 Z"/></g>
<g><path style="opacity:1" fill="#f2f2f2" d="M 385.5,228.5 C 394.244,228.413 396.577,232.246 392.5,240C 386.793,242.977 383.126,241.31 381.5,235C 382.25,232.429 383.583,230.262 385.5,228.5 Z"/></g>
<g><path style="opacity:1" fill="#c8c8c8" d="M 314.5,314.5 C 318.523,315.025 320.69,317.359 321,321.5C 321.667,324.5 321.667,327.5 321,330.5C 318.209,335.709 315.209,335.709 312,330.5C 310.833,324.789 311.667,319.456 314.5,314.5 Z"/></g>
<g><path style="opacity:1" fill="#0b0a0a" d="M 287.5,408.5 C 300.658,407.974 313.658,409.141 326.5,412C 347.344,417.862 355.177,431.362 350,452.5C 340.696,470.75 325.862,481.584 305.5,485C 283.506,485.753 266.006,477.253 253,459.5C 242.86,438.891 248.027,423.391 268.5,413C 274.924,411.309 281.258,409.809 287.5,408.5 Z"/></g>
<g><path style="opacity:1" fill="#c8c8c8" d="M 224.5,412.5 C 229.813,412.644 231.979,415.31 231,420.5C 227.667,426.5 224.333,432.5 221,438.5C 217.916,439.959 215.916,438.959 215,435.5C 214.292,426.247 217.459,418.58 224.5,412.5 Z"/></g>
<g><path style="opacity:1" fill="#47382e" d="M 281.5,414.5 C 292.505,414.333 303.505,414.5 314.5,415C 322.03,417.343 329.363,420.176 336.5,423.5C 343.876,429.971 346.876,437.971 345.5,447.5C 341.78,456.235 336.113,463.568 328.5,469.5C 320.069,473.715 311.403,477.382 302.5,480.5C 285.501,478.53 271.168,471.196 259.5,458.5C 257.776,454.052 255.776,449.719 253.5,445.5C 252.562,436.705 255.562,429.371 262.5,423.5C 268.879,420.28 275.212,417.28 281.5,414.5 Z"/></g>
<g><path style="opacity:1" fill="#c8c8c8" d="M 362.5,418.5 C 365.785,418.269 368.285,419.603 370,422.5C 370.333,422.167 370.667,421.833 371,421.5C 375.714,426.528 377.048,432.194 375,438.5C 374.667,438.167 374.333,437.833 374,437.5C 372,440.167 370,440.167 368,437.5C 365.726,433.286 363.726,428.953 362,424.5C 361.322,422.402 361.489,420.402 362.5,418.5 Z"/></g>
<g><path style="opacity:1" fill="#babbba" d="M 375.5,470.5 C 385.402,476.837 388.236,485.503 384,496.5C 381.718,500.041 379.051,500.374 376,497.5C 372.271,490.249 370.937,482.583 372,474.5C 372.69,472.65 373.856,471.316 375.5,470.5 Z"/></g>
<g><path style="opacity:1" fill="#c6c7c6" d="M 238.5,486.5 C 240.39,486.297 241.89,486.963 243,488.5C 245.637,493.03 245.97,497.696 244,502.5C 243.439,503.022 242.772,503.355 242,503.5C 235.683,498.753 234.516,493.086 238.5,486.5 Z"/></g>
<g><path style="opacity:1" fill="#babbba" d="M 344.5,489.5 C 354.504,493.064 355.171,498.231 346.5,505C 341.473,506.313 339.14,504.313 339.5,499C 339.744,495.01 341.41,491.843 344.5,489.5 Z"/></g>
<g><path style="opacity:1" fill="#604738" d="M 299.5,504.5 C 301.199,504.34 302.866,504.506 304.5,505C 308.683,507.257 313.016,509.257 317.5,511C 318.973,511.71 319.64,512.876 319.5,514.5C 322.567,515.195 325.567,516.195 328.5,517.5C 329.386,518.325 329.719,519.325 329.5,520.5C 334.929,521.303 335.429,522.969 331,525.5C 330.517,526.448 330.351,527.448 330.5,528.5C 308.052,535.453 285.719,534.953 263.5,527C 262.027,526.29 261.36,525.124 261.5,523.5C 265.792,521.785 270.125,519.951 274.5,518C 279.747,514.411 285.08,510.911 290.5,507.5C 293.109,506.77 295.776,506.27 298.5,506C 299.056,505.617 299.389,505.117 299.5,504.5 Z"/></g>
</svg>
