<?xml version="1.0" encoding="UTF-8"?>
<!DOCTYPE svg PUBLIC "-//W3C//DTD SVG 1.1//EN" "http://www.w3.org/Graphics/SVG/1.1/DTD/svg11.dtd">
<svg xmlns="http://www.w3.org/2000/svg" version="1.1" width="600px" height="600px" style="shape-rendering:geometricPrecision; text-rendering:geometricPrecision; image-rendering:optimizeQuality; fill-rule:evenodd; clip-rule:evenodd" xmlns:xlink="http://www.w3.org/1999/xlink">
<g><path style="opacity:0.956" fill="#010000" d="M 181.5,-0.5 C 191.167,-0.5 200.833,-0.5 210.5,-0.5C 216.259,4.44301 220.759,10.443 224,17.5C 238.064,56.2906 253.231,94.6239 269.5,132.5C 289.5,129.833 309.5,129.833 329.5,132.5C 346.089,93.9796 361.589,54.9796 376,15.5C 379.236,9.43157 383.403,4.09823 388.5,-0.5C 398.167,-0.5 407.833,-0.5 417.5,-0.5C 428.49,8.42201 436.323,19.7553 441,33.5C 458.128,79.27 466.295,126.603 465.5,175.5C 464.639,202.179 463.806,228.846 463,255.5C 469.748,302.738 475.748,350.072 481,397.5C 490.613,447.716 479.28,492.383 447,531.5C 417.538,565.482 381.038,588.149 337.5,599.5C 312.167,599.5 286.833,599.5 261.5,599.5C 205.644,584.833 162.811,552.833 133,503.5C 122.096,483.385 116.263,461.885 115.5,439C 116.228,425.494 117.061,411.994 118,398.5C 123.345,351.416 129.345,304.416 136,257.5C 135.501,230.169 134.668,202.835 133.5,175.5C 132.905,127.735 140.739,81.4013 157,36.5C 161.704,21.7268 169.871,9.39345 181.5,-0.5 Z"/></g>
<g><path style="opacity:1" fill="#3f3531" d="M 266.5,142.5 C 264.782,143.224 262.948,143.891 261,144.5C 234.79,191.71 197.29,226.877 148.5,250C 147.901,251.622 147.234,253.122 146.5,254.5C 146.503,250.476 146.836,246.476 147.5,242.5C 141.709,196.748 142.209,151.082 149,105.5C 153.649,76.2326 162.316,48.2326 175,21.5C 179.042,13.791 185.209,8.62429 193.5,6C 201.753,5.71234 207.919,9.21234 212,16.5C 228.242,58.6436 244.742,100.644 261.5,142.5C 263.167,142.5 264.833,142.5 266.5,142.5 Z"/></g>
<g><path style="opacity:1" fill="#3f3531" d="M 452.5,250.5 C 402.685,227.827 364.518,192.494 338,144.5C 335.061,143.872 332.228,143.205 329.5,142.5C 332.711,142.988 335.544,142.321 338,140.5C 355.009,98.1329 372.009,55.7996 389,13.5C 399.897,2.66431 410.231,3.33097 420,15.5C 429.848,32.0232 437.181,49.6899 442,68.5C 451.421,103.205 455.921,138.538 455.5,174.5C 454.854,199.852 453.854,225.186 452.5,250.5 Z"/></g>
<g><path style="opacity:1" fill="#5a4d4a" d="M 193.5,24.5 C 197.594,23.7046 200.761,25.038 203,28.5C 216.023,67.9426 225.356,108.276 231,149.5C 231.667,156.5 231.667,163.5 231,170.5C 230.399,173.637 229.399,176.637 228,179.5C 210.901,193.264 195.068,208.431 180.5,225C 174.866,227.776 170.366,226.609 167,221.5C 165.017,213.956 163.684,206.289 163,198.5C 157.745,151.643 161.745,105.643 175,60.5C 178.024,50.4291 182.024,40.7624 187,31.5C 188.728,28.6703 190.895,26.337 193.5,24.5 Z"/></g>
<g><path style="opacity:1" fill="#5a4d4a" d="M 399.5,24.5 C 402.32,24.2475 404.986,24.7475 407.5,26C 411.288,30.4058 414.455,35.2391 417,40.5C 439.099,99.7335 444.099,160.4 432,222.5C 428.146,226.671 423.646,227.504 418.5,225C 405.098,209.596 390.431,195.596 374.5,183C 372.3,180.766 370.467,178.266 369,175.5C 368.223,162.138 368.557,148.805 370,135.5C 376.005,99.1462 384.672,63.4795 396,28.5C 397.376,27.2949 398.542,25.9616 399.5,24.5 Z"/></g>
<g><path style="opacity:1" fill="#cd964b" d="M 329.5,142.5 C 332.228,143.205 335.061,143.872 338,144.5C 364.518,192.494 402.685,227.827 452.5,250.5C 457.67,293.539 463.17,336.539 469,379.5C 471.622,400.086 472.789,420.753 472.5,441.5C 440.537,412.707 408.704,383.707 377,354.5C 376.503,352.19 376.337,349.857 376.5,347.5C 379.942,344.288 382.109,340.288 383,335.5C 389.048,329.219 396.214,324.553 404.5,321.5C 405.993,320.859 406.993,319.859 407.5,318.5C 414.175,318.98 419.841,316.98 424.5,312.5C 435.516,308.133 440.016,300.133 438,288.5C 435.933,282.695 433.099,277.362 429.5,272.5C 428,268.167 425.5,264.5 422,261.5C 420.416,260.139 418.582,259.472 416.5,259.5C 411.477,256.133 406.477,252.8 401.5,249.5C 399.588,245.302 396.255,243.635 391.5,244.5C 388.421,243.696 385.421,242.696 382.5,241.5C 381.583,239.489 379.917,238.489 377.5,238.5C 372.604,237.003 367.604,236.337 362.5,236.5C 345.433,234.974 329.933,238.974 316,248.5C 314.277,250.717 312.777,253.05 311.5,255.5C 308.625,257.249 307.292,259.915 307.5,263.5C 306.946,266.746 305.946,269.746 304.5,272.5C 303.188,274.479 301.521,276.145 299.5,277.5C 298.133,276.775 296.8,276.108 295.5,275.5C 293.119,264.669 288.452,255.002 281.5,246.5C 276.936,240.936 270.936,238.269 263.5,238.5C 244.13,234.624 225.463,236.791 207.5,245C 201.315,247.925 195.315,251.091 189.5,254.5C 186.755,254.373 184.755,255.54 183.5,258C 182.207,258.49 180.873,258.657 179.5,258.5C 176.519,262.82 173.519,267.153 170.5,271.5C 166.567,277.03 163.4,283.03 161,289.5C 160.12,294.796 160.953,299.796 163.5,304.5C 163.703,306.044 164.37,307.378 165.5,308.5C 168.803,310.985 172.47,312.652 176.5,313.5C 188.783,316.034 200.116,320.701 210.5,327.5C 211.757,330.427 213.757,332.761 216.5,334.5C 220.948,339.973 223.782,346.307 225,353.5C 228.253,370.105 231.086,386.771 233.5,403.5C 233.87,408.422 234.87,413.089 236.5,417.5C 239.61,432.371 242.777,447.371 246,462.5C 247.772,469.065 251.272,474.398 256.5,478.5C 257.713,481.225 259.546,483.559 262,485.5C 262.494,487.134 262.66,488.801 262.5,490.5C 258.863,513.1 261.697,534.767 271,555.5C 283.156,572.369 298.656,576.202 317.5,567C 321.398,563.271 325.065,559.438 328.5,555.5C 329.239,555.369 329.906,555.536 330.5,556C 338.672,565.005 347.005,573.838 355.5,582.5C 307.642,599.441 261.309,595.608 216.5,571C 182.229,552.062 156.062,525.229 138,490.5C 129.54,472.612 125.706,453.779 126.5,434C 127.009,410.399 128.842,386.899 132,363.5C 136.975,327.177 141.808,290.844 146.5,254.5C 147.234,253.122 147.901,251.622 148.5,250C 197.29,226.877 234.79,191.71 261,144.5C 262.948,143.891 264.782,143.224 266.5,142.5C 287.499,141.182 308.499,141.182 329.5,142.5 Z"/></g>
<g><path style="opacity:1" fill="#966e37" d="M 362.5,236.5 C 367.604,236.337 372.604,237.003 377.5,238.5C 379.917,238.489 381.583,239.489 382.5,241.5C 375.724,239.787 369.057,238.121 362.5,236.5 Z"/></g>
<g><path style="opacity:1" fill="#050402" d="M 263.5,238.5 C 269.698,240.596 275.698,243.263 281.5,246.5C 288.452,255.002 293.119,264.669 295.5,275.5C 296.572,279.32 298.906,280.32 302.5,278.5C 303.747,276.677 304.414,274.677 304.5,272.5C 305.946,269.746 306.946,266.746 307.5,263.5C 308.801,260.899 310.134,258.232 311.5,255.5C 312.777,253.05 314.277,250.717 316,248.5C 329.933,238.974 345.433,234.974 362.5,236.5C 369.057,238.121 375.724,239.787 382.5,241.5C 385.421,242.696 388.421,243.696 391.5,244.5C 394.515,246.674 397.849,248.341 401.5,249.5C 406.477,252.8 411.477,256.133 416.5,259.5C 421.167,263.5 425.5,267.833 429.5,272.5C 433.099,277.362 435.933,282.695 438,288.5C 440.016,300.133 435.516,308.133 424.5,312.5C 418.694,314.36 413.027,316.36 407.5,318.5C 391.663,322.338 381.33,332.005 376.5,347.5C 374.344,353.873 373.011,360.539 372.5,367.5C 370.601,374.592 369.267,381.926 368.5,389.5C 364.93,405.945 361.763,422.611 359,439.5C 357.215,451.312 353.881,462.645 349,473.5C 344.776,477.697 339.942,481.03 334.5,483.5C 340.134,508.2 338.134,532.2 328.5,555.5C 325.065,559.438 321.398,563.271 317.5,567C 298.656,576.202 283.156,572.369 271,555.5C 261.697,534.767 258.863,513.1 262.5,490.5C 263.657,487.727 264.324,484.727 264.5,481.5C 261.496,481.278 258.829,480.278 256.5,478.5C 251.272,474.398 247.772,469.065 246,462.5C 242.777,447.371 239.61,432.371 236.5,417.5C 236.344,412.529 235.344,407.862 233.5,403.5C 231.086,386.771 228.253,370.105 225,353.5C 223.782,346.307 220.948,339.973 216.5,334.5C 215.243,331.573 213.243,329.239 210.5,327.5C 200.116,320.701 188.783,316.034 176.5,313.5C 171.914,310.923 167.581,307.923 163.5,304.5C 160.953,299.796 160.12,294.796 161,289.5C 163.4,283.03 166.567,277.03 170.5,271.5C 176.561,265.434 182.894,259.767 189.5,254.5C 195.315,251.091 201.315,247.925 207.5,245C 225.463,236.791 244.13,234.624 263.5,238.5 Z"/></g>
<g><path style="opacity:1" fill="#a1763b" d="M 263.5,238.5 C 270.936,238.269 276.936,240.936 281.5,246.5C 275.698,243.263 269.698,240.596 263.5,238.5 Z"/></g>
<g><path style="opacity:1" fill="#3d3431" d="M 236.5,241.5 C 251.663,239.765 265.663,242.931 278.5,251C 281.787,254.293 284.287,258.127 286,262.5C 287.937,268.976 290.27,275.309 293,281.5C 297.954,285.677 302.62,285.343 307,280.5C 309.746,271.928 313.079,263.594 317,255.5C 324.789,247.561 334.289,243.061 345.5,242C 375.419,240.549 400.919,250.382 422,271.5C 425.726,276.228 429.059,281.228 432,286.5C 435.338,294.506 433.505,301.006 426.5,306C 413.867,310.243 401.534,315.243 389.5,321C 377.94,329.61 371.107,341.11 369,355.5C 363.29,391.008 356.623,426.341 349,461.5C 346.932,469.901 341.766,475.401 333.5,478C 330.086,478.297 326.753,478.964 323.5,480C 307.833,480.667 292.167,480.667 276.5,480C 260.708,479.205 251.541,471.038 249,455.5C 242.253,421.254 235.92,386.921 230,352.5C 227.444,338.538 220.277,327.704 208.5,320C 199.145,315.548 189.478,311.881 179.5,309C 164.984,303.785 161.817,294.618 170,281.5C 186.678,259.076 208.844,245.743 236.5,241.5 Z"/></g>
<g><path style="opacity:1" fill="#906a35" d="M 391.5,244.5 C 396.255,243.635 399.588,245.302 401.5,249.5C 397.849,248.341 394.515,246.674 391.5,244.5 Z"/></g>
<g><path style="opacity:1" fill="#835029" d="M 225.5,260.5 C 243.708,258.888 254.042,267.054 256.5,285C 253.272,304.616 241.939,312.282 222.5,308C 207.633,299.376 203.8,287.21 211,271.5C 214.906,266.404 219.739,262.738 225.5,260.5 Z"/></g>
<g><path style="opacity:1" fill="#79592d" d="M 311.5,255.5 C 310.134,258.232 308.801,260.899 307.5,263.5C 307.292,259.915 308.625,257.249 311.5,255.5 Z"/></g>
<g><path style="opacity:1" fill="#835029" d="M 361.5,260.5 C 383.108,259.751 392.941,270.084 391,291.5C 386.056,305.394 376.222,311.228 361.5,309C 347.584,304.074 341.418,294.241 343,279.5C 346.017,269.984 352.184,263.651 361.5,260.5 Z"/></g>
<g><path style="opacity:1" fill="#956d37" d="M 416.5,259.5 C 418.582,259.472 420.416,260.139 422,261.5C 425.5,264.5 428,268.167 429.5,272.5C 425.5,267.833 421.167,263.5 416.5,259.5 Z"/></g>
<g><path style="opacity:1" fill="#856231" d="M 189.5,254.5 C 182.894,259.767 176.561,265.434 170.5,271.5C 173.519,267.153 176.519,262.82 179.5,258.5C 180.873,258.657 182.207,258.49 183.5,258C 184.755,255.54 186.755,254.373 189.5,254.5 Z"/></g>
<g><path style="opacity:1" fill="#251916" d="M 225.5,268.5 C 242.155,266.656 249.655,273.989 248,290.5C 243.439,300.028 235.939,303.528 225.5,301C 216.141,296.116 212.975,288.616 216,278.5C 218.022,273.98 221.189,270.647 225.5,268.5 Z"/></g>
<g><path style="opacity:1" fill="#251a16" d="M 361.5,268.5 C 376.818,266.66 384.318,273.327 384,288.5C 380.455,299.527 372.955,303.694 361.5,301C 351.496,295.998 348.33,288.165 352,277.5C 354.406,273.592 357.572,270.592 361.5,268.5 Z"/></g>
<g><path style="opacity:1" fill="#f1f0f0" d="M 234.5,275.5 C 240.83,274.666 243.663,277.333 243,283.5C 239.333,287.5 235.667,287.5 232,283.5C 231.018,280.225 231.851,277.559 234.5,275.5 Z"/></g>
<g><path style="opacity:1" fill="#f4f4f4" d="M 370.5,275.5 C 378.618,275.382 380.618,278.882 376.5,286C 369.837,287.666 367.004,285.166 368,278.5C 368.698,277.309 369.531,276.309 370.5,275.5 Z"/></g>
<g><path style="opacity:1" fill="#71532a" d="M 304.5,272.5 C 304.414,274.677 303.747,276.677 302.5,278.5C 298.906,280.32 296.572,279.32 295.5,275.5C 296.8,276.108 298.133,276.775 299.5,277.5C 301.521,276.145 303.188,274.479 304.5,272.5 Z"/></g>
<g><path style="opacity:1" fill="#805e2f" d="M 163.5,304.5 C 167.581,307.923 171.914,310.923 176.5,313.5C 172.47,312.652 168.803,310.985 165.5,308.5C 164.37,307.378 163.703,306.044 163.5,304.5 Z"/></g>
<g><path style="opacity:1" fill="#9c7239" d="M 424.5,312.5 C 419.841,316.98 414.175,318.98 407.5,318.5C 413.027,316.36 418.694,314.36 424.5,312.5 Z"/></g>
<g><path style="opacity:1" fill="#70522a" d="M 210.5,327.5 C 213.243,329.239 215.243,331.573 216.5,334.5C 213.757,332.761 211.757,330.427 210.5,327.5 Z"/></g>
<g><path style="opacity:1" fill="#9d733a" d="M 407.5,318.5 C 406.993,319.859 405.993,320.859 404.5,321.5C 396.214,324.553 389.048,329.219 383,335.5C 382.109,340.288 379.942,344.288 376.5,347.5C 381.33,332.005 391.663,322.338 407.5,318.5 Z"/></g>
<g><path style="opacity:1" fill="#bf8c45" d="M 376.5,347.5 C 376.337,349.857 376.503,352.19 377,354.5C 408.704,383.707 440.537,412.707 472.5,441.5C 471.864,462.509 466.364,482.176 456,500.5C 432.051,539.555 398.551,566.889 355.5,582.5C 347.005,573.838 338.672,565.005 330.5,556C 329.906,555.536 329.239,555.369 328.5,555.5C 338.134,532.2 340.134,508.2 334.5,483.5C 339.942,481.03 344.776,477.697 349,473.5C 353.881,462.645 357.215,451.312 359,439.5C 361.763,422.611 364.93,405.945 368.5,389.5C 370.104,386.597 371.104,383.263 371.5,379.5C 372.491,375.555 372.824,371.555 372.5,367.5C 373.011,360.539 374.344,353.873 376.5,347.5 Z"/></g>
<g><path style="opacity:1" fill="#8b6532" d="M 372.5,367.5 C 372.824,371.555 372.491,375.555 371.5,379.5C 371.104,383.263 370.104,386.597 368.5,389.5C 369.267,381.926 370.601,374.592 372.5,367.5 Z"/></g>
<g><path style="opacity:1" fill="#241916" d="M 286.5,403.5 C 295.173,403.334 303.84,403.5 312.5,404C 333.998,407.448 341.164,419.281 334,439.5C 320.13,457.569 302.63,462.402 281.5,454C 272.519,449.686 266.352,442.853 263,433.5C 260.117,423.16 262.951,414.994 271.5,409C 276.299,406.238 281.299,404.404 286.5,403.5 Z"/></g>
<g><path style="opacity:1" fill="#846131" d="M 233.5,403.5 C 235.344,407.862 236.344,412.529 236.5,417.5C 234.87,413.089 233.87,408.422 233.5,403.5 Z"/></g>
<g><path style="opacity:1" fill="#986f37" d="M 256.5,478.5 C 258.829,480.278 261.496,481.278 264.5,481.5C 264.324,484.727 263.657,487.727 262.5,490.5C 262.66,488.801 262.494,487.134 262,485.5C 259.546,483.559 257.713,481.225 256.5,478.5 Z"/></g>
<g><path style="opacity:1" fill="#dc9583" d="M 329.5,483.5 C 329.41,486.152 330.076,488.485 331.5,490.5C 331.5,491.167 331.5,491.833 331.5,492.5C 332.143,500.15 332.477,507.817 332.5,515.5C 332.59,522.966 331.756,530.3 330,537.5C 328.629,542.464 326.796,547.131 324.5,551.5C 324.167,551.5 323.833,551.5 323.5,551.5C 323.649,550.448 323.483,549.448 323,548.5C 305,529.833 287,511.167 269,492.5C 267.567,503.756 267.067,515.09 267.5,526.5C 266.286,520.539 265.619,514.372 265.5,508C 265.908,499.656 266.908,491.489 268.5,483.5C 288.867,487.497 309.2,487.497 329.5,483.5 Z"/></g>
<g><path style="opacity:1" fill="#6b4d2c" d="M 329.5,483.5 C 330.924,485.515 331.59,487.848 331.5,490.5C 330.076,488.485 329.41,486.152 329.5,483.5 Z"/></g>
<g><path style="opacity:1" fill="#f1a293" d="M 323.5,551.5 C 322.139,553.85 320.806,556.184 319.5,558.5C 317.687,561.647 315.02,563.647 311.5,564.5C 303.5,565.833 295.5,565.833 287.5,564.5C 283.859,561.195 280.192,557.862 276.5,554.5C 275.07,550.646 273.403,546.979 271.5,543.5C 268.911,538.241 267.578,532.575 267.5,526.5C 267.067,515.09 267.567,503.756 269,492.5C 287,511.167 305,529.833 323,548.5C 323.483,549.448 323.649,550.448 323.5,551.5 Z"/></g>
<g><path style="opacity:1" fill="#684c2a" d="M 331.5,492.5 C 333.539,500.111 333.872,507.777 332.5,515.5C 332.477,507.817 332.143,500.15 331.5,492.5 Z"/></g>
<g><path style="opacity:1" fill="#76562d" d="M 271.5,543.5 C 273.403,546.979 275.07,550.646 276.5,554.5C 273.504,551.503 271.837,547.836 271.5,543.5 Z"/></g>
<g><path style="opacity:1" fill="#75562d" d="M 323.5,551.5 C 323.833,551.5 324.167,551.5 324.5,551.5C 323.99,554.674 322.323,557.008 319.5,558.5C 320.806,556.184 322.139,553.85 323.5,551.5 Z"/></g>
<g><path style="opacity:1" fill="#7f5d33" d="M 276.5,554.5 C 280.192,557.862 283.859,561.195 287.5,564.5C 282.559,562.558 278.892,559.225 276.5,554.5 Z"/></g>
<g><path style="opacity:1" fill="#a2724e" d="M 287.5,564.5 C 295.5,565.833 303.5,565.833 311.5,564.5C 307.931,566.726 303.931,567.726 299.5,567.5C 295.069,567.726 291.069,566.726 287.5,564.5 Z"/></g>
</svg>
