<?xml version="1.0" encoding="UTF-8"?>
<!DOCTYPE svg PUBLIC "-//W3C//DTD SVG 1.1//EN" "http://www.w3.org/Graphics/SVG/1.1/DTD/svg11.dtd">
<svg xmlns="http://www.w3.org/2000/svg" version="1.1" width="600px" height="600px" style="shape-rendering:geometricPrecision; text-rendering:geometricPrecision; image-rendering:optimizeQuality; fill-rule:evenodd; clip-rule:evenodd" xmlns:xlink="http://www.w3.org/1999/xlink">
<g><path style="opacity:0.95" fill="#000000" d="M 143.5,-0.5 C 154.167,-0.5 164.833,-0.5 175.5,-0.5C 195.747,19.7305 214.08,41.3971 230.5,64.5C 265.243,54.621 300.577,51.7877 336.5,56C 348.071,58.0607 359.404,60.7274 370.5,64C 385.76,40.2372 403.76,18.7372 424.5,-0.5C 434.833,-0.5 445.167,-0.5 455.5,-0.5C 463.204,9.42229 467.704,20.7556 469,33.5C 473.488,65.0228 476.488,96.6895 478,128.5C 479.718,145.095 483.718,161.095 490,176.5C 497.508,188.184 505.508,199.517 514,210.5C 521.444,222.386 528.111,234.72 534,247.5C 536.757,255.465 535.257,262.465 529.5,268.5C 541.098,299.556 548.265,331.556 551,364.5C 549.805,375.876 543.638,381.209 532.5,380.5C 522.64,441.076 494.973,491.576 449.5,532C 444.5,535.667 439.5,539.333 434.5,543C 431.232,544.213 427.899,544.546 424.5,544C 420.205,542.619 416.205,540.952 412.5,539C 387.51,564.506 358.843,584.672 326.5,599.5C 308.5,599.5 290.5,599.5 272.5,599.5C 240.255,584.534 211.589,564.367 186.5,539C 183.945,540.138 181.278,541.471 178.5,543C 173.023,545.088 167.689,544.755 162.5,542C 139.501,524.338 120.001,503.505 104,479.5C 85.9767,448.425 73.81,415.092 67.5,379.5C 58.4665,380.972 52.6332,377.306 50,368.5C 49.3711,365.689 48.8711,362.856 48.5,360C 52.8509,328.597 60.1843,297.931 70.5,268C 63.9481,262.974 62.1148,256.474 65,248.5C 67.727,242.046 70.727,235.712 74,229.5C 84.9411,212.228 96.2744,195.228 108,178.5C 115.114,162.94 119.447,146.607 121,129.5C 122.732,97.7109 125.732,66.0443 130,34.5C 131.082,21.4054 135.582,9.73877 143.5,-0.5 Z"/></g>
<g><path style="opacity:1" fill="#553920" d="M 154.5,4.5 C 159.121,3.99268 163.454,4.82601 167.5,7C 187.404,25.3728 204.571,45.8728 219,68.5C 221.714,71.5511 224.714,74.2178 228,76.5C 252.945,68.1263 278.612,64.1263 305,64.5C 327.944,63.4908 349.944,67.4908 371,76.5C 374.221,75.284 376.888,73.284 379,70.5C 393.523,47.6289 410.69,26.7956 430.5,8C 439.987,1.862 447.487,3.69533 453,13.5C 455.934,20.5684 457.934,27.9018 459,35.5C 463.141,67.3894 466.141,99.3894 468,131.5C 469.888,149.619 474.555,166.952 482,183.5C 493.248,199.661 504.248,215.994 515,232.5C 519.136,239.105 522.469,246.105 525,253.5C 525.323,258.479 522.823,260.979 517.5,261C 516.978,261.561 516.645,262.228 516.5,263C 529.151,295.766 536.984,329.599 540,364.5C 540.088,368.246 538.254,370.246 534.5,370.5C 530.687,368.894 526.854,368.561 523,369.5C 514.813,435.738 484.98,489.572 433.5,531C 430.88,533.271 427.88,533.938 424.5,533C 420.833,530.667 417.833,527.667 415.5,524C 414.167,523.333 412.833,523.333 411.5,524C 383.347,555.752 349.347,579.085 309.5,594C 302.833,596 296.167,596 289.5,594C 250.001,578.591 216.001,555.258 187.5,524C 186.5,523.333 185.5,523.333 184.5,524C 181.089,528.598 176.756,531.765 171.5,533.5C 170.5,533.333 169.5,533.167 168.5,533C 129.238,503.667 102.404,465.5 88,418.5C 83.0559,402.445 79.3892,386.112 77,369.5C 71.9029,368.858 66.7362,368.691 61.5,369C 60.8742,368.25 60.3742,367.416 60,366.5C 59.1459,353.619 60.4793,340.952 64,328.5C 69.1546,306.382 75.3213,284.548 82.5,263C 82.3552,262.228 82.0219,261.561 81.5,261C 79.2381,260.358 77.0715,259.525 75,258.5C 74.3333,255.833 74.3333,253.167 75,250.5C 87.749,227.325 101.749,204.992 117,183.5C 120.115,178.156 122.448,172.489 124,166.5C 131.158,138.299 134.825,109.632 135,80.5C 136.487,65.8118 138.153,51.1451 140,36.5C 141.121,27.3449 143.788,18.6783 148,10.5C 150.063,8.26589 152.229,6.26589 154.5,4.5 Z"/></g>
<g><path style="opacity:1" fill="#080502" d="M 160.5,24.5 C 165.072,24.8166 169.406,25.9833 173.5,28C 187.24,41.6459 198.406,57.1459 207,74.5C 208.509,81.7566 207.175,88.4233 203,94.5C 192.041,109.129 178.874,121.296 163.5,131C 155.964,133.365 150.464,131.198 147,124.5C 144.078,114.396 142.911,104.063 143.5,93.5C 144.339,75.1016 146.172,56.7682 149,38.5C 149.82,31.1165 153.653,26.4498 160.5,24.5 Z"/></g>
<g><path style="opacity:1" fill="#080402" d="M 429.5,27.5 C 441.254,24.6153 448.421,28.9486 451,40.5C 456.259,65.9301 458.259,91.5968 457,117.5C 455.245,129.631 448.412,134.131 436.5,131C 419.333,119.167 404.833,104.667 393,87.5C 391.511,82.1829 391.845,76.8495 394,71.5C 401.222,59.612 409.222,48.2787 418,37.5C 421.438,33.5587 425.271,30.2254 429.5,27.5 Z"/></g>
<g><path style="opacity:1" fill="#9c7c62" d="M 161.5,35.5 C 164.226,35.2639 166.559,36.0972 168.5,38C 180.171,51.0158 189.837,65.3492 197.5,81C 187.458,97.0451 174.624,110.545 159,121.5C 158.228,121.355 157.561,121.022 157,120.5C 156.178,118.212 155.511,115.878 155,113.5C 153.742,91.386 154.742,69.386 158,47.5C 158.554,43.2775 159.721,39.2775 161.5,35.5 Z"/></g>
<g><path style="opacity:1" fill="#9c7c62" d="M 434.5,37.5 C 437.48,37.2411 439.313,38.5744 440,41.5C 446.06,66.5277 448.06,91.861 446,117.5C 445.882,119.573 444.882,120.907 443,121.5C 438.079,118.954 433.579,115.787 429.5,112C 422.333,104.833 415.167,97.6667 408,90.5C 405.306,87.8121 403.473,84.6455 402.5,81C 405.004,74.8276 408.17,68.9943 412,63.5C 418.647,54.025 426.147,45.3583 434.5,37.5 Z"/></g>
<g><path style="opacity:1" fill="#020303" d="M 356.5,194.5 C 370.523,195.163 378.856,202.33 381.5,216C 381.674,227.017 376.674,234.35 366.5,238C 352.991,243.34 343.157,239.506 337,226.5C 332.582,208.982 339.082,198.316 356.5,194.5 Z"/></g>
<g><path style="opacity:1" fill="#010202" d="M 238.5,195.5 C 252.784,196.133 261.117,203.466 263.5,217.5C 259.747,236.374 248.747,242.874 230.5,237C 218.923,228.753 216.423,218.253 223,205.5C 227.205,200.492 232.372,197.159 238.5,195.5 Z"/></g>
<g><path style="opacity:1" fill="#eaeaea" d="M 246.5,206.5 C 252,205.831 254.167,208.165 253,213.5C 249.592,217.483 246.592,217.15 244,212.5C 243.458,209.918 244.292,207.918 246.5,206.5 Z"/></g>
<g><path style="opacity:1" fill="#f4f4f4" d="M 364.5,206.5 C 370.989,206.156 372.989,208.99 370.5,215C 362.749,216.091 360.749,213.258 364.5,206.5 Z"/></g>
<g><path style="opacity:1" fill="#010202" d="M 301.5,266.5 C 312.696,266.663 322.196,270.663 330,278.5C 336.423,297.165 330.59,310.665 312.5,319C 293.773,324.537 279.273,319.037 269,302.5C 262.868,285.84 268.034,274.673 284.5,269C 290.303,268.109 295.97,267.275 301.5,266.5 Z"/></g>
<g><path style="opacity:1" fill="#060505" d="M 261.5,334.5 C 265.988,365.757 283.655,377.59 314.5,370C 323.863,367.061 330.03,360.895 333,351.5C 335.221,346.007 336.721,340.34 337.5,334.5C 337.833,334.5 338.167,334.5 338.5,334.5C 350.92,335.375 360.087,330.375 366,319.5C 369.921,311.406 373.254,303.072 376,294.5C 377.668,291.79 378.501,291.957 378.5,295C 376.116,307.152 371.949,318.652 366,329.5C 356.247,343.822 345.414,357.322 333.5,370C 316.37,381.058 298.037,383.391 278.5,377C 271.556,373.947 265.389,369.781 260,364.5C 250.615,352.783 241.615,340.783 233,328.5C 227.44,317.485 223.273,305.985 220.5,294C 221.253,292.513 222.086,292.346 223,293.5C 226.057,301.946 229.39,310.279 233,318.5C 239.034,330.039 248.534,335.372 261.5,334.5 Z"/></g>
<g><path style="opacity:1" fill="#e19ac2" d="M 306.5,328.5 C 310.167,330.345 314.167,331.512 318.5,332C 324.857,332.835 331.191,333.668 337.5,334.5C 336.721,340.34 335.221,346.007 333,351.5C 330.03,360.895 323.863,367.061 314.5,370C 283.655,377.59 265.988,365.757 261.5,334.5C 261.611,333.883 261.944,333.383 262.5,333C 273.612,332.092 284.612,330.426 295.5,328C 299.221,327.322 302.888,327.489 306.5,328.5 Z"/></g>
<g><path style="opacity:1" fill="#b47b8e" d="M 306.5,328.5 C 316.382,330.698 326.382,332.198 336.5,333C 337.416,333.278 338.082,333.778 338.5,334.5C 338.167,334.5 337.833,334.5 337.5,334.5C 331.191,333.668 324.857,332.835 318.5,332C 314.167,331.512 310.167,330.345 306.5,328.5 Z"/></g>
</svg>
