<?xml version="1.0" encoding="UTF-8"?>
<!DOCTYPE svg PUBLIC "-//W3C//DTD SVG 1.1//EN" "http://www.w3.org/Graphics/SVG/1.1/DTD/svg11.dtd">
<svg xmlns="http://www.w3.org/2000/svg" version="1.1" width="600px" height="600px" style="shape-rendering:geometricPrecision; text-rendering:geometricPrecision; image-rendering:optimizeQuality; fill-rule:evenodd; clip-rule:evenodd" xmlns:xlink="http://www.w3.org/1999/xlink">
<g><path style="opacity:0.949" fill="#020202" d="M 599.5,137.5 C 599.5,149.833 599.5,162.167 599.5,174.5C 596.887,175.435 594.221,175.602 591.5,175C 580.843,171.006 570.177,167.006 559.5,163C 555.239,161.637 550.905,161.304 546.5,162C 552.65,168.092 554.816,175.258 553,183.5C 549.243,189.063 544.076,191.229 537.5,190C 550.352,213.556 559.019,238.556 563.5,265C 561.982,281.256 553.982,285.756 539.5,278.5C 539.437,288.496 540.603,298.496 543,308.5C 546.784,325.136 550.951,341.636 555.5,358C 552.867,373.685 544.201,378.185 529.5,371.5C 529.167,372.5 528.833,373.5 528.5,374.5C 532.043,397.001 536.376,419.334 541.5,441.5C 538.463,453.019 531.463,456.519 520.5,452C 517.667,449.167 514.833,446.333 512,443.5C 512.631,456.822 513.465,470.155 514.5,483.5C 515.815,491.426 513.815,498.259 508.5,504C 502.695,507.192 497.028,506.859 491.5,503C 488.963,500.128 486.13,497.628 483,495.5C 481.526,507.01 479.193,518.343 476,529.5C 473.238,537.763 467.738,543.097 459.5,545.5C 451.236,543.07 445.736,537.737 443,529.5C 438.108,543.139 429.942,554.306 418.5,563C 410.946,565.486 405.113,563.319 401,556.5C 389.592,567.123 376.759,575.623 362.5,582C 356.596,583.984 351.096,583.151 346,579.5C 314.333,592.833 282.667,592.833 251,579.5C 246.577,582.33 241.744,583.163 236.5,582C 221.58,575.293 208.08,566.46 196,555.5C 192.275,563.105 186.442,565.272 178.5,562C 167.292,552.771 159.125,541.271 154,527.5C 151.638,536.36 146.138,542.027 137.5,544.5C 130.333,542.836 125.5,538.503 123,531.5C 119.056,519.112 116.389,506.445 115,493.5C 110.786,497.382 106.286,500.882 101.5,504C 92.3527,506.841 86.5194,503.674 84,494.5C 83.8333,491 83.6667,487.5 83.5,484C 84.767,469.839 85.6003,455.672 86,441.5C 81.6563,447.531 75.9897,451.531 69,453.5C 63.3448,453.505 59.6781,450.838 58,445.5C 57.3333,441.833 57.3333,438.167 58,434.5C 61,420.5 64,406.5 67,392.5C 68.5772,384.89 69.2438,377.223 69,369.5C 55.008,377.569 46.1746,373.903 42.5,358.5C 46.1757,342.13 50.009,325.797 54,309.5C 56.5424,299.224 57.709,288.891 57.5,278.5C 43.3929,285.777 35.3929,281.444 33.5,265.5C 38.2362,239.625 46.5695,214.958 58.5,191.5C 45.2257,189.281 41.0591,181.948 46,169.5C 47.8333,167 49.6667,164.5 51.5,162C 46.7767,161.376 42.11,161.71 37.5,163C 29.2707,165.781 21.2707,169.115 13.5,173C 8.88422,174.833 4.21755,175.333 -0.5,174.5C -0.5,161.5 -0.5,148.5 -0.5,135.5C 14.2688,110.233 34.9354,91.3995 61.5,79C 97.758,66.9931 134.758,63.8264 172.5,69.5C 171.033,63.8839 172.699,59.3839 177.5,56C 180.755,54.8529 184.088,54.0196 187.5,53.5C 202.814,55.9295 217.98,58.9295 233,62.5C 231.445,51.5464 236.278,45.8798 247.5,45.5C 256.687,46.8802 265.687,49.0468 274.5,52C 282.77,55.7197 290.937,59.553 299,63.5C 306.185,60.1583 313.351,56.6583 320.5,53C 330.267,49.5582 340.267,47.0582 350.5,45.5C 361.707,45.866 366.54,51.5326 365,62.5C 379.991,58.7956 395.158,55.7956 410.5,53.5C 421.261,53.9141 426.261,59.2475 425.5,69.5C 463.231,63.9281 500.231,67.0948 536.5,79C 553.555,86.7118 568.388,97.5451 581,111.5C 587.806,119.791 593.973,128.458 599.5,137.5 Z"/></g>
<g><path style="opacity:1" fill="#f8f0e7" d="M 591.5,164.5 C 592.429,163.685 593.429,162.852 594.5,162C 590.019,151.849 583.019,143.849 573.5,138C 555.594,128.587 536.594,122.587 516.5,120C 502.585,117.582 488.585,116.582 474.5,117C 473.668,122.354 475.668,126.687 480.5,130C 491.833,136.333 503.167,142.667 514.5,149C 517.02,150.697 519.353,152.53 521.5,154.5C 530.765,159.264 537.931,166.264 543,175.5C 543.49,176.793 543.657,178.127 543.5,179.5C 537.841,178.8 532.175,178.634 526.5,179C 524.632,179.899 523.632,181.399 523.5,183.5C 535.508,206.515 545.008,230.515 552,255.5C 552.804,260.751 552.637,265.918 551.5,271C 549.365,271.635 547.365,271.301 545.5,270C 542.793,266.279 539.293,263.779 535,262.5C 531.691,263.142 529.691,265.142 529,268.5C 528.333,275.167 528.333,281.833 529,288.5C 533.46,311.84 538.627,335.007 544.5,358C 544.057,359.825 543.723,361.658 543.5,363.5C 541.143,363.663 538.81,363.497 536.5,363C 524.312,354.929 517.978,358.262 517.5,373C 520.803,396.041 525.136,418.874 530.5,441.5C 529.652,443.283 528.319,443.783 526.5,443C 520.816,437.248 515.15,431.581 509.5,426C 506.989,423.895 504.656,424.062 502.5,426.5C 500.996,431.534 500.33,436.701 500.5,442C 500.969,452.195 501.803,462.362 503,472.5C 503.667,479.833 503.667,487.167 503,494.5C 501.132,495.672 499.298,495.505 497.5,494C 493.8,489.965 489.8,486.298 485.5,483C 478.333,478.775 474.166,480.941 473,489.5C 471.245,500.542 469.245,511.542 467,522.5C 465.733,526.869 463.567,530.703 460.5,534C 458.255,533.805 456.422,532.638 455,530.5C 452.606,524.713 449.94,519.046 447,513.5C 444.842,510.05 442.342,509.717 439.5,512.5C 434.176,523.817 428.343,534.817 422,545.5C 412.613,557.368 408.613,555.702 410,540.5C 408.135,538.145 405.969,537.978 403.5,540C 392.224,550.3 380.224,559.633 367.5,568C 363.329,571.068 358.829,572.235 354,571.5C 353.505,569.527 353.338,567.527 353.5,565.5C 342.7,569.488 331.7,572.988 320.5,576C 295.295,581.132 271.295,577.798 248.5,566C 246.866,565.506 245.199,565.34 243.5,565.5C 243.662,567.527 243.495,569.527 243,571.5C 242.275,572.059 241.442,572.392 240.5,572.5C 233.163,569.341 226.163,565.508 219.5,561C 209.656,553.153 199.822,545.32 190,537.5C 188.739,537.759 187.739,538.426 187,539.5C 186.667,543.833 186.333,548.167 186,552.5C 185.282,553.451 184.449,553.617 183.5,553C 180.667,550.167 177.833,547.333 175,544.5C 168.886,534.606 163.552,524.272 159,513.5C 157.924,511.423 156.257,510.09 154,509.5C 151.346,510.821 149.346,512.821 148,515.5C 145.59,521.318 142.923,526.985 140,532.5C 138.951,533.517 137.784,533.684 136.5,533C 133.681,529.195 131.514,525.029 130,520.5C 128.432,509.09 126.432,497.757 124,486.5C 122.001,480.465 118.168,478.965 112.5,482C 107.571,486.772 102.237,490.939 96.5,494.5C 95.3527,494.182 94.5194,493.516 94,492.5C 93.3333,486.833 93.3333,481.167 94,475.5C 96.8876,459.543 97.5542,443.543 96,427.5C 93.3214,424.165 90.1547,423.665 86.5,426C 80.6521,432.015 74.6521,437.848 68.5,443.5C 67.3483,440.894 67.1816,438.227 68,435.5C 72.1395,417.941 75.8061,400.274 79,382.5C 79.6667,376.5 79.6667,370.5 79,364.5C 77.3659,360.686 74.5326,358.686 70.5,358.5C 66.0016,359.992 61.5016,361.658 57,363.5C 54.0661,362.438 52.8994,360.271 53.5,357C 58.8858,334.289 63.7191,311.456 68,288.5C 68.8959,280.754 68.5625,273.087 67,265.5C 65.8176,263.643 64.151,262.643 62,262.5C 57.0491,265.279 52.2158,268.279 47.5,271.5C 46.5581,271.392 45.7247,271.059 45,270.5C 44.3372,264.452 44.6705,258.452 46,252.5C 47.6667,246.833 49.3333,241.167 51,235.5C 57.9607,217.582 65.4607,199.915 73.5,182.5C 73.4302,181.228 73.0968,180.062 72.5,179C 66.4839,178.501 60.4839,178.668 54.5,179.5C 54.9438,174.941 56.7771,170.941 60,167.5C 64.925,162.306 70.425,157.972 76.5,154.5C 89.7723,145.856 103.439,137.689 117.5,130C 122.366,126.769 124.366,122.269 123.5,116.5C 94.3303,116.584 65.9969,121.417 38.5,131C 23.326,136.184 11.826,145.684 4,159.5C 3.36001,161.543 3.86001,163.21 5.5,164.5C 3.83333,164.5 2.16667,164.5 0.5,164.5C 0.177769,160.253 1.0111,156.253 3,152.5C 14.0859,128.078 30.9192,108.578 53.5,94C 61.7333,89.5504 70.4,86.2171 79.5,84C 115.119,75.7841 150.785,75.4508 186.5,83C 190.594,83.7673 194.594,83.434 198.5,82C 199.451,81.2825 199.617,80.4491 199,79.5C 194.255,75.8776 189.422,72.3776 184.5,69C 182.963,67.8904 182.297,66.3904 182.5,64.5C 186.182,64.3347 189.848,64.5014 193.5,65C 207.86,67.5386 222.193,70.2053 236.5,73C 239.833,73.6667 243.167,73.6667 246.5,73C 247.081,72.1074 247.415,71.1074 247.5,70C 245.855,65.567 244.521,61.067 243.5,56.5C 251.369,56.2882 259.035,57.4549 266.5,60C 277.453,64.7296 288.286,69.5629 299,74.5C 310.598,68.9549 322.431,63.7882 334.5,59C 341.028,57.058 347.695,56.2247 354.5,56.5C 353.332,61.0151 351.999,65.5151 350.5,70C 350.585,71.1074 350.919,72.1074 351.5,73C 354.833,73.6667 358.167,73.6667 361.5,73C 374.845,70.3323 388.178,67.6656 401.5,65C 406.155,64.5008 410.821,64.3342 415.5,64.5C 415.703,66.3904 415.037,67.8904 413.5,69C 408.224,71.8879 403.391,75.3879 399,79.5C 398.729,81.807 399.895,82.9736 402.5,83C 416.411,81.029 430.411,79.3623 444.5,78C 478.418,75.2094 511.085,80.2094 542.5,93C 568.089,108.691 586.256,130.525 597,158.5C 598.414,163.94 596.581,165.94 591.5,164.5 Z"/></g>
<g><path style="opacity:1" fill="#e1d2bf" d="M 76.5,154.5 C 60.604,149.055 44.604,149.222 28.5,155C 21.0405,158.732 13.3738,161.898 5.5,164.5C 3.86001,163.21 3.36001,161.543 4,159.5C 11.826,145.684 23.326,136.184 38.5,131C 65.9969,121.417 94.3303,116.584 123.5,116.5C 124.366,122.269 122.366,126.769 117.5,130C 103.439,137.689 89.7723,145.856 76.5,154.5 Z"/></g>
<g><path style="opacity:1" fill="#e1d2bf" d="M 591.5,164.5 C 584.739,161.955 578.072,159.121 571.5,156C 556.543,150.453 541.209,149.12 525.5,152C 523.563,152.122 522.23,152.955 521.5,154.5C 519.353,152.53 517.02,150.697 514.5,149C 503.167,142.667 491.833,136.333 480.5,130C 475.668,126.687 473.668,122.354 474.5,117C 488.585,116.582 502.585,117.582 516.5,120C 536.594,122.587 555.594,128.587 573.5,138C 583.019,143.849 590.019,151.849 594.5,162C 593.429,162.852 592.429,163.685 591.5,164.5 Z"/></g>
<g><path style="opacity:1" fill="#2b2421" d="M 214.5,222.5 C 231.679,219.567 243.846,225.9 251,241.5C 252.277,248.36 249.777,253.193 243.5,256C 226.606,258.311 210.273,262.644 194.5,269C 189.459,270.809 187.125,269.143 187.5,264C 189.628,245.549 198.628,231.716 214.5,222.5 Z"/></g>
<g><path style="opacity:1" fill="#2b2421" d="M 366.5,222.5 C 379.971,220.321 390.804,224.654 399,235.5C 406.85,245.212 410.35,256.212 409.5,268.5C 407.235,269.647 404.902,269.814 402.5,269C 387.829,262.499 372.496,258.499 356.5,257C 350.213,255.386 346.88,251.386 346.5,245C 349.132,233.87 355.799,226.37 366.5,222.5 Z"/></g>
<g><path style="opacity:1" fill="#f5f4f4" d="M 225.5,230.5 C 232.655,230.153 235.821,233.486 235,240.5C 231.171,246.703 226.838,247.036 222,241.5C 220.663,236.872 221.83,233.205 225.5,230.5 Z"/></g>
<g><path style="opacity:1" fill="#f4f4f4" d="M 377.5,230.5 C 385.147,230.313 388.314,233.98 387,241.5C 382.585,246.726 378.251,246.726 374,241.5C 372.663,236.916 373.829,233.249 377.5,230.5 Z"/></g>
<g><path style="opacity:1" fill="#2b2421" d="M 349.5,449.5 C 349.546,441.602 349.046,433.602 348,425.5C 345.376,420.439 341.21,418.439 335.5,419.5C 323.375,421.037 311.208,422.037 299,422.5C 284.504,421.296 270.004,420.463 255.5,420C 252.667,421.5 250.5,423.667 249,426.5C 248.666,434.37 248.5,442.037 248.5,449.5C 236.964,441.807 226.131,433.14 216,423.5C 212.245,418.997 209.245,413.997 207,408.5C 204.918,403.185 205.085,398.018 207.5,393C 209.167,392.333 210.833,392.333 212.5,393C 217.62,403.075 225.953,408.409 237.5,409C 252.151,410.634 266.484,409.3 280.5,405C 288.125,401.875 293.125,396.375 295.5,388.5C 283.165,386.249 272.331,380.916 263,372.5C 251.254,357.877 249.588,342.21 258,325.5C 269.503,315.345 283.003,310.678 298.5,311.5C 310.1,311.652 321.1,314.152 331.5,319C 343.338,327.499 347.505,338.999 344,353.5C 340.727,365.319 333.893,374.486 323.5,381C 316.65,383.961 309.65,386.461 302.5,388.5C 305.237,396.736 310.57,402.569 318.5,406C 332.303,409.362 346.303,410.362 360.5,409C 371.806,408.36 380.139,403.193 385.5,393.5C 387.674,392.107 389.507,392.44 391,394.5C 392.368,397.738 392.701,401.072 392,404.5C 388.99,409.577 385.99,414.577 383,419.5C 377.14,425.36 371.306,431.194 365.5,437C 359.7,440.641 354.367,444.807 349.5,449.5 Z"/></g>
<g><path style="opacity:1" fill="#ee8a90" d="M 349.5,449.5 C 347.534,454.586 346.201,459.919 345.5,465.5C 342.653,475.844 338.153,485.511 332,494.5C 322.984,504.122 311.817,508.788 298.5,508.5C 283.805,508.486 272.139,502.653 263.5,491C 262.552,490.517 261.552,490.351 260.5,490.5C 258.609,485.717 256.442,481.051 254,476.5C 251.775,467.516 249.941,458.516 248.5,449.5C 248.5,442.037 248.666,434.37 249,426.5C 250.5,423.667 252.667,421.5 255.5,420C 270.004,420.463 284.504,421.296 299,422.5C 311.208,422.037 323.375,421.037 335.5,419.5C 341.21,418.439 345.376,420.439 348,425.5C 349.046,433.602 349.546,441.602 349.5,449.5 Z"/></g>
<g><path style="opacity:1" fill="#f1acad" d="M 345.5,465.5 C 338.966,501.191 317.966,515.024 282.5,507C 273.258,503.909 265.925,498.409 260.5,490.5C 261.552,490.351 262.552,490.517 263.5,491C 272.139,502.653 283.805,508.486 298.5,508.5C 311.817,508.788 322.984,504.122 332,494.5C 338.153,485.511 342.653,475.844 345.5,465.5 Z"/></g>
</svg>
