<?xml version="1.0" encoding="UTF-8"?>
<!DOCTYPE svg PUBLIC "-//W3C//DTD SVG 1.1//EN" "http://www.w3.org/Graphics/SVG/1.1/DTD/svg11.dtd">
<svg xmlns="http://www.w3.org/2000/svg" version="1.1" width="600px" height="600px" style="shape-rendering:geometricPrecision; text-rendering:geometricPrecision; image-rendering:optimizeQuality; fill-rule:evenodd; clip-rule:evenodd" xmlns:xlink="http://www.w3.org/1999/xlink">
<g><path style="opacity:0.962" fill="#060403" d="M 599.5,373.5 C 599.5,385.167 599.5,396.833 599.5,408.5C 598.059,418.298 597.225,428.298 597,438.5C 596.307,450.559 590.974,459.892 581,466.5C 576.636,476.736 571.136,486.236 564.5,495C 557.869,499.99 550.369,502.823 542,503.5C 526.557,510.814 510.39,515.814 493.5,518.5C 485.011,516.84 476.844,514.173 469,510.5C 464.338,518.839 458.505,526.339 451.5,533C 447.69,535.992 443.357,537.492 438.5,537.5C 437.874,540.315 436.54,542.815 434.5,545C 426.061,551.036 416.728,554.036 406.5,554C 403.703,552.767 401.037,551.267 398.5,549.5C 380.468,565.246 359.468,574.746 335.5,578C 303.911,582.969 272.578,581.636 241.5,574C 223.986,569.498 208.819,560.998 196,548.5C 190.557,554.413 184.057,555.913 176.5,553C 170.139,550.737 164.306,547.571 159,543.5C 157.414,541.33 156.08,538.996 155,536.5C 152.557,537.285 150.057,537.119 147.5,536C 138.47,529.068 131.47,520.568 126.5,510.5C 118.787,515.241 110.454,517.408 101.5,517C 81.8441,511.337 62.1775,505.671 42.5,500C 37.3811,497.215 33.2144,493.382 30,488.5C 25.6667,480.5 21.3333,472.5 17,464.5C 11.561,461.061 7.561,456.395 5,450.5C 2.56944,436.092 0.736106,421.759 -0.5,407.5C -0.5,396.5 -0.5,385.5 -0.5,374.5C 4.97024,362.615 6.6369,350.115 4.5,337C 5.11344,331.713 6.28011,326.546 8,321.5C 12.4102,311.68 17.0769,302.014 22,292.5C 22.936,282.82 25.2694,273.487 29,264.5C 36,253.167 43,241.833 50,230.5C 51.0716,219.029 55.405,209.029 63,200.5C 70.6126,193.377 77.9459,186.044 85,178.5C 87.4268,174.46 89.0935,170.126 90,165.5C 93.6815,157.483 99.1815,150.983 106.5,146C 114.778,140.722 122.778,135.055 130.5,129C 133.293,125.919 135.46,122.419 137,118.5C 143.012,113.098 148.846,107.598 154.5,102C 164.683,96.0338 175.683,92.3672 187.5,91C 191.889,89.9715 195.889,88.1381 199.5,85.5C 196.174,83.006 193.34,80.006 191,76.5C 186.439,62.0139 191.939,54.1805 207.5,53C 203.85,47.2647 203.683,41.4314 207,35.5C 211.628,31.4416 216.795,30.6083 222.5,33C 234.731,38.8973 245.564,46.7306 255,56.5C 256.257,51.2722 258.757,46.7722 262.5,43C 271.179,40.2548 277.345,43.0881 281,51.5C 281.189,46.6426 282.189,41.9759 284,37.5C 290.333,30.8333 296.667,30.8333 303,37.5C 306.865,44.5647 310.198,51.8981 313,59.5C 316.082,50.5885 319.748,41.9218 324,33.5C 328.947,28.3154 334.781,27.1487 341.5,30C 344.683,33.198 346.683,37.0313 347.5,41.5C 353.942,36.0604 361.275,32.3937 369.5,30.5C 381.788,33.5776 385.121,40.911 379.5,52.5C 386.501,53.5359 392.001,56.8693 396,62.5C 397.832,66.7044 397.665,70.8711 395.5,75C 398.435,78.1226 400.435,81.7893 401.5,86C 405.048,87.9407 408.714,89.6074 412.5,91C 421.313,92.3699 429.979,94.3699 438.5,97C 444.067,99.3576 448.233,103.191 451,108.5C 458.116,112.283 463.116,117.95 466,125.5C 473.931,132.767 482.431,139.267 491.5,145C 496.301,148.799 500.801,152.966 505,157.5C 508.667,165.167 512.333,172.833 516,180.5C 525.734,189.565 534.734,199.231 543,209.5C 546.237,215.778 548.237,222.445 549,229.5C 556.919,242.335 564.585,255.335 572,268.5C 574.433,277.069 576.433,285.736 578,294.5C 583.547,304.926 588.547,315.592 593,326.5C 593.956,329.93 594.456,333.43 594.5,337C 592.751,349.728 594.418,361.894 599.5,373.5 Z"/></g>
<g><path style="opacity:1" fill="#e9cc8f" d="M 441.5,114.5 C 439.901,116.604 438.068,118.604 436,120.5C 435.333,122.833 435.333,125.167 436,127.5C 448.588,136.215 461.755,144.048 475.5,151C 480.588,154.083 485.088,157.917 489,162.5C 489.72,164.112 489.554,165.612 488.5,167C 483.833,167 479.167,167 474.5,167C 473.919,167.893 473.585,168.893 473.5,170C 479.464,182.761 485.297,195.595 491,208.5C 492.333,212.5 493.667,216.5 495,220.5C 495.607,224.537 495.44,228.537 494.5,232.5C 491.075,230.301 487.242,228.968 483,228.5C 479.94,228.225 477.94,229.558 477,232.5C 478.016,249.581 481.35,266.248 487,282.5C 487.667,287.5 487.667,292.5 487,297.5C 483.843,298.079 480.843,299.079 478,300.5C 475.773,299.637 473.607,298.637 471.5,297.5C 467.76,300.633 466.593,304.633 468,309.5C 471.394,317.288 475.061,324.955 479,332.5C 479.167,334 479.333,335.5 479.5,337C 479.089,340.824 478.089,344.49 476.5,348C 477.603,351.194 477.603,354.361 476.5,357.5C 475.914,357.291 475.414,356.957 475,356.5C 475.166,365.827 475.166,375.161 475,384.5C 474.313,388.58 473.313,392.58 472,396.5C 470.412,398.968 468.578,399.134 466.5,397C 463.784,393.739 460.951,390.572 458,387.5C 457.833,387.833 457.667,388.167 457.5,388.5C 459.885,406.529 462.552,424.529 465.5,442.5C 465.838,447.926 464.838,453.093 462.5,458C 462.164,459.03 461.497,459.53 460.5,459.5C 459.778,458.449 458.778,457.782 457.5,457.5C 456.833,452.167 456.167,446.833 455.5,441.5C 455.843,439.517 455.176,438.183 453.5,437.5C 452.11,429.275 450.11,421.275 447.5,413.5C 446.994,407.977 445.66,402.643 443.5,397.5C 442.817,397.137 442.15,396.804 441.5,396.5C 441.5,396.167 441.5,395.833 441.5,395.5C 441.579,392.729 441.079,390.063 440,387.5C 438.657,384.353 436.823,381.686 434.5,379.5C 432.896,378.713 432.229,377.38 432.5,375.5C 428.567,368.352 424.401,361.352 420,354.5C 418.622,352.787 416.955,351.453 415,350.5C 414.062,347.743 412.562,345.41 410.5,343.5C 406.036,339.537 401.702,335.37 397.5,331C 396.207,330.51 394.873,330.343 393.5,330.5C 392.5,329.167 391.5,327.833 390.5,326.5C 388.675,322.676 385.675,320.343 381.5,319.5C 379.847,319.34 378.514,318.674 377.5,317.5C 374.856,314.505 371.523,312.505 367.5,311.5C 367.5,310.5 367.5,309.5 367.5,308.5C 362.673,307.426 358.006,305.76 353.5,303.5C 350.914,302.52 348.247,302.187 345.5,302.5C 340.906,301.185 336.239,300.185 331.5,299.5C 327.285,297.564 322.619,296.897 317.5,297.5C 311.202,296.17 304.535,295.503 297.5,295.5C 290.465,295.503 283.798,296.17 277.5,297.5C 272.786,297.173 268.12,297.507 263.5,298.5C 260.384,298.92 257.717,299.92 255.5,301.5C 254.167,301.5 252.833,301.5 251.5,301.5C 249.517,301.157 248.183,301.824 247.5,303.5C 243.958,304.393 240.624,305.726 237.5,307.5C 234.193,308.051 230.86,308.384 227.5,308.5C 227.5,309.5 227.5,310.5 227.5,311.5C 222.482,310.998 219.148,312.998 217.5,317.5C 214.392,317.375 212.392,318.708 211.5,321.5C 207.373,321.635 204.706,323.635 203.5,327.5C 201.692,327.491 200.025,327.991 198.5,329C 193,334.5 187.5,340 182,345.5C 181.51,346.793 181.343,348.127 181.5,349.5C 181.5,349.833 181.5,350.167 181.5,350.5C 179.871,351.625 178.371,352.959 177,354.5C 174.943,357.721 173.109,361.054 171.5,364.5C 169.273,365.401 168.273,367.067 168.5,369.5C 167.5,369.5 166.5,369.5 165.5,369.5C 165.5,370.833 165.5,372.167 165.5,373.5C 163.824,374.183 163.157,375.517 163.5,377.5C 161.824,378.183 161.157,379.517 161.5,381.5C 159.824,382.183 159.157,383.517 159.5,385.5C 157.824,386.183 157.157,387.517 157.5,389.5C 155.824,390.183 155.157,391.517 155.5,393.5C 152.84,396.113 151.507,399.446 151.5,403.5C 149.824,404.183 149.157,405.517 149.5,407.5C 149.5,408.167 149.5,408.833 149.5,409.5C 147.824,410.183 147.157,411.517 147.5,413.5C 147.5,414.167 147.5,414.833 147.5,415.5C 144.964,420.31 143.63,425.644 143.5,431.5C 140.775,437.801 139.109,444.468 138.5,451.5C 137.504,451.414 136.671,451.748 136,452.5C 135.333,446.167 135.333,439.833 136,433.5C 139.313,418.267 141.646,402.934 143,387.5C 140.203,391.299 137.036,394.799 133.5,398C 132.056,398.781 130.723,398.614 129.5,397.5C 127.714,393.693 126.548,389.693 126,385.5C 125.598,376.16 125.765,366.827 126.5,357.5C 125.5,357.5 124.5,357.5 123.5,357.5C 123.411,354.291 123.744,351.125 124.5,348C 124.091,345.679 123.257,343.513 122,341.5C 121.333,338.5 121.333,335.5 122,332.5C 125.606,325.621 128.939,318.621 132,311.5C 134.507,306.205 133.673,301.538 129.5,297.5C 126.136,300.589 122.636,300.922 119,298.5C 114.507,300.687 112.34,299.353 112.5,294.5C 117.633,273.696 121.467,252.696 124,231.5C 123.204,229.033 121.537,227.7 119,227.5C 115.08,229.098 111.414,231.098 108,233.5C 107.167,233.167 106.333,232.833 105.5,232.5C 103.958,225.266 104.791,218.266 108,211.5C 112.946,198.942 118.946,186.942 126,175.5C 128.048,166.387 124.881,164.053 116.5,168.5C 112.853,167.514 111.686,165.181 113,161.5C 114.833,159.667 116.667,157.833 118.5,156C 134.084,146.625 149.584,137.125 165,127.5C 167.096,121.674 165.262,117.341 159.5,114.5C 160.637,109.894 163.637,107.06 168.5,106C 185.339,103.499 201.005,97.8323 215.5,89C 211.524,87.6066 210.691,85.4399 213,82.5C 208.667,78.8333 204.333,75.1667 200,71.5C 197.639,68.5931 198.139,66.4265 201.5,65C 205.167,64.3333 208.833,64.3333 212.5,65C 221.101,69.9388 229.435,75.2721 237.5,81C 239.167,81.6667 240.833,81.6667 242.5,81C 234.628,72.7968 227.128,64.2968 220,55.5C 218.333,52.1667 216.667,48.8333 215,45.5C 214.316,44.2161 214.483,43.0495 215.5,42C 222.444,43.9739 228.777,47.3073 234.5,52C 242.204,59.3726 250.204,66.3726 258.5,73C 260.367,73.7112 261.867,73.2112 263,71.5C 263.498,68.5184 263.665,65.5184 263.5,62.5C 264.833,62.5 266.167,62.5 267.5,62.5C 267.18,59.1016 267.513,55.7683 268.5,52.5C 273.659,58.8029 277.826,65.8029 281,73.5C 286.274,78.187 289.108,77.0203 289.5,70C 288.761,66.1731 288.594,62.3397 289,58.5C 289.414,58.0426 289.914,57.7093 290.5,57.5C 291.328,53.2044 291.828,48.8711 292,44.5C 293.587,43.273 294.921,43.6063 296,45.5C 299.392,53.9507 303.059,62.284 307,70.5C 313.727,76.6458 318.727,75.3125 322,66.5C 324.33,59.5109 326.663,52.5109 329,45.5C 329.883,42.8976 331.383,40.7309 333.5,39C 334.449,38.3828 335.282,38.5494 336,39.5C 336.157,47.5785 335.324,55.5785 333.5,63.5C 333.833,64.1667 334.167,64.8333 334.5,65.5C 344.124,56.7068 354.457,48.8734 365.5,42C 367.473,41.5045 369.473,41.3379 371.5,41.5C 371.66,43.1992 371.494,44.8659 371,46.5C 363.244,58.1593 354.41,68.9927 344.5,79C 346.913,79.4838 349.246,79.1505 351.5,78C 358.593,73.2362 365.926,68.9028 373.5,65C 377.167,64.3333 380.833,64.3333 384.5,65C 387.082,67.8921 386.916,70.7254 384,73.5C 379.833,77 375.667,80.5 371.5,84C 377.833,84.3333 384.167,84.6667 390.5,85C 388.983,86.6851 387.316,88.1851 385.5,89.5C 393.37,93.6014 401.37,97.4347 409.5,101C 419.58,102.281 429.247,104.947 438.5,109C 440.607,110.264 441.607,112.097 441.5,114.5 Z"/></g>
<g><path style="opacity:1" fill="#cda164" d="M 159.5,114.5 C 165.262,117.341 167.096,121.674 165,127.5C 149.584,137.125 134.084,146.625 118.5,156C 116.667,157.833 114.833,159.667 113,161.5C 111.686,165.181 112.853,167.514 116.5,168.5C 124.881,164.053 128.048,166.387 126,175.5C 118.946,186.942 112.946,198.942 108,211.5C 104.791,218.266 103.958,225.266 105.5,232.5C 106.333,232.833 107.167,233.167 108,233.5C 111.414,231.098 115.08,229.098 119,227.5C 121.537,227.7 123.204,229.033 124,231.5C 121.467,252.696 117.633,273.696 112.5,294.5C 112.34,299.353 114.507,300.687 119,298.5C 122.636,300.922 126.136,300.589 129.5,297.5C 133.673,301.538 134.507,306.205 132,311.5C 128.939,318.621 125.606,325.621 122,332.5C 121.333,335.5 121.333,338.5 122,341.5C 123.257,343.513 124.091,345.679 124.5,348C 123.744,351.125 123.411,354.291 123.5,357.5C 124.5,357.5 125.5,357.5 126.5,357.5C 125.765,366.827 125.598,376.16 126,385.5C 126.548,389.693 127.714,393.693 129.5,397.5C 130.723,398.614 132.056,398.781 133.5,398C 137.036,394.799 140.203,391.299 143,387.5C 141.646,402.934 139.313,418.267 136,433.5C 135.333,439.833 135.333,446.167 136,452.5C 136.671,451.748 137.504,451.414 138.5,451.5C 137.949,454.807 137.616,458.14 137.5,461.5C 135.554,466.396 134.887,471.729 135.5,477.5C 133.796,484.17 132.796,491.17 132.5,498.5C 124.898,500.131 117.564,502.631 110.5,506C 106.167,506.667 101.833,506.667 97.5,506C 79.7667,500.31 62.1,494.644 44.5,489C 41.9598,486.795 39.7932,484.295 38,481.5C 33.9685,471.927 28.8018,463.094 22.5,455C 17.9481,453.412 15.1148,450.245 14,445.5C 12.4395,432.881 11.4395,420.214 11,407.5C 8.42454,402.874 6.92454,397.874 6.5,392.5C 9.19408,379.39 12.3607,366.39 16,353.5C 15.9448,345.836 15.9448,338.169 16,330.5C 20.1946,319.112 25.1946,308.112 31,297.5C 33.273,288.133 35.6063,278.799 38,269.5C 45,258.167 52,246.833 59,235.5C 60.7375,231.339 61.7375,227.005 62,222.5C 63.0587,219.382 64.3921,216.382 66,213.5C 74.3027,204.196 82.9693,195.196 92,186.5C 95.8156,178.903 99.4823,171.236 103,163.5C 112.355,154.577 122.521,146.744 133.5,140C 136.333,137.167 139.167,134.333 142,131.5C 145.157,123.018 150.991,117.351 159.5,114.5 Z"/></g>
<g><path style="opacity:1" fill="#cda164" d="M 441.5,114.5 C 449.202,118.373 454.702,124.373 458,132.5C 467.204,140.849 477.037,148.349 487.5,155C 491,158.5 494.5,162 498,165.5C 500.217,172.054 502.884,178.388 506,184.5C 515.333,194.5 524.667,204.5 534,214.5C 535,216.5 536,218.5 537,220.5C 537.189,225.346 538.189,230.012 540,234.5C 547.919,247.335 555.585,260.335 563,273.5C 564.609,282.246 566.609,290.912 569,299.5C 573.939,309.045 578.606,318.711 583,328.5C 583.759,331.626 584.259,334.793 584.5,338C 583.549,344.151 583.382,350.317 584,356.5C 587.661,368.148 590.495,379.981 592.5,392C 591.822,398.037 590.322,403.87 588,409.5C 587.709,420.525 587.042,431.525 586,442.5C 585.333,444.5 584.667,446.5 584,448.5C 580.946,452.044 577.613,455.377 574,458.5C 569.144,466.212 564.81,474.212 561,482.5C 559.38,484.241 557.88,486.075 556.5,488C 541.034,492.722 525.701,498.055 510.5,504C 504.922,505.596 499.256,506.763 493.5,507.5C 483.036,503.568 472.37,500.235 461.5,497.5C 461.5,492.833 461.5,488.167 461.5,483.5C 460.737,475.441 460.403,467.441 460.5,459.5C 461.497,459.53 462.164,459.03 462.5,458C 464.838,453.093 465.838,447.926 465.5,442.5C 462.552,424.529 459.885,406.529 457.5,388.5C 457.667,388.167 457.833,387.833 458,387.5C 460.951,390.572 463.784,393.739 466.5,397C 468.578,399.134 470.412,398.968 472,396.5C 473.313,392.58 474.313,388.58 475,384.5C 475.166,375.161 475.166,365.827 475,356.5C 475.414,356.957 475.914,357.291 476.5,357.5C 477.603,354.361 477.603,351.194 476.5,348C 478.089,344.49 479.089,340.824 479.5,337C 479.333,335.5 479.167,334 479,332.5C 475.061,324.955 471.394,317.288 468,309.5C 466.593,304.633 467.76,300.633 471.5,297.5C 473.607,298.637 475.773,299.637 478,300.5C 480.843,299.079 483.843,298.079 487,297.5C 487.667,292.5 487.667,287.5 487,282.5C 481.35,266.248 478.016,249.581 477,232.5C 477.94,229.558 479.94,228.225 483,228.5C 487.242,228.968 491.075,230.301 494.5,232.5C 495.44,228.537 495.607,224.537 495,220.5C 493.667,216.5 492.333,212.5 491,208.5C 485.297,195.595 479.464,182.761 473.5,170C 473.585,168.893 473.919,167.893 474.5,167C 479.167,167 483.833,167 488.5,167C 489.554,165.612 489.72,164.112 489,162.5C 485.088,157.917 480.588,154.083 475.5,151C 461.755,144.048 448.588,136.215 436,127.5C 435.333,125.167 435.333,122.833 436,120.5C 438.068,118.604 439.901,116.604 441.5,114.5 Z"/></g>
<g><path style="opacity:1" fill="#d6b381" d="M 393.5,241.5 C 392.751,240.469 392.085,239.302 391.5,238C 379.806,232.046 367.472,228.213 354.5,226.5C 353.737,225.732 352.737,225.232 351.5,225C 342.114,224.248 332.78,223.248 323.5,222C 317.402,216.296 315.902,209.462 319,201.5C 326.4,192.596 335.9,189.429 347.5,192C 381.021,197.868 407.521,214.701 427,242.5C 429.419,252.419 425.919,255.585 416.5,252C 409.622,247.06 402.289,242.894 394.5,239.5C 393.702,239.957 393.369,240.624 393.5,241.5 Z"/></g>
<g><path style="opacity:1" fill="#d6b381" d="M 237.5,227.5 C 224.705,228.282 212.371,231.115 200.5,236C 199.934,236.995 199.267,237.828 198.5,238.5C 198.631,237.624 198.298,236.957 197.5,236.5C 187.67,241.751 177.67,246.418 167.5,250.5C 165.307,250.674 163.473,250.007 162,248.5C 161.035,244.218 161.702,240.218 164,236.5C 187.725,208.722 217.892,194.555 254.5,194C 270.612,196.442 276.446,205.276 272,220.5C 270.833,221.667 269.667,222.833 268.5,224C 258.105,225.795 247.772,226.962 237.5,227.5 Z"/></g>
<g><path style="opacity:1" fill="#312926" d="M 354.5,226.5 C 367.472,228.213 379.806,232.046 391.5,238C 392.085,239.302 392.751,240.469 393.5,241.5C 394.54,266.299 382.873,276.799 358.5,273C 344.76,265.802 339.927,254.636 344,239.5C 346.227,234.11 349.727,229.776 354.5,226.5 Z"/></g>
<g><path style="opacity:1" fill="#312926" d="M 237.5,227.5 C 250.875,239.6 252.042,252.933 241,267.5C 226.471,277.901 213.137,276.567 201,263.5C 196.142,255.532 195.309,247.198 198.5,238.5C 199.267,237.828 199.934,236.995 200.5,236C 212.371,231.115 224.705,228.282 237.5,227.5 Z"/></g>
<g><path style="opacity:1" fill="#f5f5f5" d="M 223.5,233.5 C 232.158,232.327 235.992,235.994 235,244.5C 230.049,251.154 225.049,251.154 220,244.5C 218.882,240.077 220.049,236.41 223.5,233.5 Z"/></g>
<g><path style="opacity:1" fill="#f6f6f6" d="M 369.5,233.5 C 376.304,232.221 380.304,234.888 381.5,241.5C 380.81,246.355 377.977,249.021 373,249.5C 366.582,248.008 364.249,244.008 366,237.5C 367.376,236.295 368.542,234.962 369.5,233.5 Z"/></g>
<g><path style="opacity:1" fill="#443a2a" d="M 317.5,297.5 C 304.167,296.167 290.833,296.167 277.5,297.5C 283.798,296.17 290.465,295.503 297.5,295.5C 304.535,295.503 311.202,296.17 317.5,297.5 Z"/></g>
<g><path style="opacity:1" fill="#554834" d="M 317.5,297.5 C 322.619,296.897 327.285,297.564 331.5,299.5C 326.662,299.089 321.995,298.422 317.5,297.5 Z"/></g>
<g><path style="opacity:1" fill="#3c3325" d="M 277.5,297.5 C 270.392,299.371 263.059,300.704 255.5,301.5C 257.717,299.92 260.384,298.92 263.5,298.5C 268.12,297.507 272.786,297.173 277.5,297.5 Z"/></g>
<g><path style="opacity:1" fill="#d6b381" d="M 285.5,300.5 C 333.348,299.285 373.515,316.285 406,351.5C 414.144,361.638 421.477,372.305 428,383.5C 443.789,415.92 452.789,450.253 455,486.5C 456.796,498.775 453.129,509.441 444,518.5C 443.327,511.778 442.327,505.112 441,498.5C 436.374,494.221 432.374,494.887 429,500.5C 427.711,509.419 426.711,518.419 426,527.5C 425.457,529.631 424.624,531.631 423.5,533.5C 419.379,535.644 415.212,537.644 411,539.5C 408.873,535.411 406.373,531.577 403.5,528C 401.305,526.627 398.971,526.294 396.5,527C 392.069,532.521 387.402,537.854 382.5,543C 361.987,556.726 339.32,564.059 314.5,565C 291.88,566.679 269.547,565.013 247.5,560C 242.355,557.617 237.022,555.617 231.5,554C 226.395,550.299 221.062,546.965 215.5,544C 209.833,538.333 204.167,532.667 198.5,527C 196.5,526.333 194.5,526.333 192.5,527C 188.56,530.445 185.227,534.279 182.5,538.5C 178.036,536.291 173.869,533.624 170,530.5C 168.004,519.602 167.004,508.602 167,497.5C 164.413,490.847 160.413,489.847 155,494.5C 154.333,495.833 153.667,497.167 153,498.5C 152.297,504.643 151.297,510.643 150,516.5C 143.656,508.964 139.822,500.297 138.5,490.5C 140.355,476.133 142.522,461.8 145,447.5C 147.549,439.704 149.549,431.704 151,423.5C 159.579,398.445 171.579,375.112 187,353.5C 209.873,327.19 238.039,310.356 271.5,303C 275.833,302.667 280.167,302.333 284.5,302C 285.056,301.617 285.389,301.117 285.5,300.5 Z"/></g>
<g><path style="opacity:1" fill="#66583f" d="M 251.5,301.5 C 250.817,303.176 249.483,303.843 247.5,303.5C 248.183,301.824 249.517,301.157 251.5,301.5 Z"/></g>
<g><path style="opacity:1" fill="#b59e6f" d="M 345.5,302.5 C 348.247,302.187 350.914,302.52 353.5,303.5C 358.006,305.76 362.673,307.426 367.5,308.5C 367.5,309.5 367.5,310.5 367.5,311.5C 360.096,308.481 352.762,305.481 345.5,302.5 Z"/></g>
<g><path style="opacity:1" fill="#a89267" d="M 237.5,307.5 C 234.317,309.01 230.984,310.343 227.5,311.5C 227.5,310.5 227.5,309.5 227.5,308.5C 230.86,308.384 234.193,308.051 237.5,307.5 Z"/></g>
<g><path style="opacity:1" fill="#9b875f" d="M 227.5,311.5 C 224.235,313.472 220.902,315.472 217.5,317.5C 219.148,312.998 222.482,310.998 227.5,311.5 Z"/></g>
<g><path style="opacity:1" fill="#877553" d="M 367.5,311.5 C 371.523,312.505 374.856,314.505 377.5,317.5C 374.517,316.197 371.517,314.864 368.5,313.5C 367.702,313.043 367.369,312.376 367.5,311.5 Z"/></g>
<g><path style="opacity:1" fill="#60523a" d="M 217.5,317.5 C 216.878,320.776 214.878,322.109 211.5,321.5C 212.392,318.708 214.392,317.375 217.5,317.5 Z"/></g>
<g><path style="opacity:1" fill="#8a7955" d="M 381.5,319.5 C 385.675,320.343 388.675,322.676 390.5,326.5C 386.799,325.048 383.799,322.715 381.5,319.5 Z"/></g>
<g><path style="opacity:1" fill="#66583e" d="M 211.5,321.5 C 210.737,323.567 209.404,325.234 207.5,326.5C 206.311,327.429 204.978,327.762 203.5,327.5C 204.706,323.635 207.373,321.635 211.5,321.5 Z"/></g>
<g><path style="opacity:1" fill="#81714f" d="M 393.5,330.5 C 394.873,330.343 396.207,330.51 397.5,331C 401.702,335.37 406.036,339.537 410.5,343.5C 410.5,344.167 410.5,344.833 410.5,345.5C 405.5,340.833 400.5,336.167 395.5,331.5C 394.508,331.672 393.842,331.338 393.5,330.5 Z"/></g>
<g><path style="opacity:1" fill="#9e8b61" d="M 203.5,327.5 C 203.5,327.833 203.5,328.167 203.5,328.5C 195.21,333.79 188.21,340.456 182.5,348.5C 182.5,349.167 182.167,349.5 181.5,349.5C 181.343,348.127 181.51,346.793 182,345.5C 187.5,340 193,334.5 198.5,329C 200.025,327.991 201.692,327.491 203.5,327.5 Z"/></g>
<g><path style="opacity:1" fill="#413627" d="M 395.5,331.5 C 400.5,336.167 405.5,340.833 410.5,345.5C 412.765,350.092 415.765,354.092 419.5,357.5C 415.517,355.682 412.684,352.682 411,348.5C 405.236,343.242 400.069,337.576 395.5,331.5 Z"/></g>
<g><path style="opacity:1" fill="#554834" d="M 203.5,328.5 C 196.526,335.139 189.526,341.806 182.5,348.5C 188.21,340.456 195.21,333.79 203.5,328.5 Z"/></g>
<g><path style="opacity:1" fill="#aa9568" d="M 410.5,343.5 C 412.562,345.41 414.062,347.743 415,350.5C 416.955,351.453 418.622,352.787 420,354.5C 424.401,361.352 428.567,368.352 432.5,375.5C 431.5,374.833 430.5,374.167 429.5,373.5C 428.231,369.946 426.231,366.946 423.5,364.5C 422.404,361.968 421.071,359.635 419.5,357.5C 415.765,354.092 412.765,350.092 410.5,345.5C 410.5,344.833 410.5,344.167 410.5,343.5 Z"/></g>
<g><path style="opacity:1" fill="#342d21" d="M 181.5,350.5 C 179.392,353.856 177.726,357.523 176.5,361.5C 174.336,361.721 172.67,362.721 171.5,364.5C 173.109,361.054 174.943,357.721 177,354.5C 178.371,352.959 179.871,351.625 181.5,350.5 Z"/></g>
<g><path style="opacity:1" fill="#512f1c" d="M 340.5,408.5 C 335.167,411.833 330.833,416.167 327.5,421.5C 319.484,426.842 310.817,430.842 301.5,433.5C 297.298,433.183 293.298,433.517 289.5,434.5C 279.699,431.061 270.365,426.561 261.5,421C 249.637,412.49 244.137,400.99 245,386.5C 248.105,374.062 255.938,366.229 268.5,363C 289.9,358.029 310.9,359.362 331.5,367C 346.302,378.17 349.302,392.003 340.5,408.5 Z"/></g>
<g><path style="opacity:1" fill="#524532" d="M 423.5,364.5 C 426.231,366.946 428.231,369.946 429.5,373.5C 428.504,373.586 427.671,373.252 427,372.5C 425.519,369.89 424.352,367.223 423.5,364.5 Z"/></g>
<g><path style="opacity:1" fill="#65563d" d="M 165.5,373.5 C 165.843,375.483 165.176,376.817 163.5,377.5C 163.157,375.517 163.824,374.183 165.5,373.5 Z"/></g>
<g><path style="opacity:1" fill="#64553c" d="M 163.5,377.5 C 163.843,379.483 163.176,380.817 161.5,381.5C 161.157,379.517 161.824,378.183 163.5,377.5 Z"/></g>
<g><path style="opacity:1" fill="#64553c" d="M 161.5,381.5 C 161.843,383.483 161.176,384.817 159.5,385.5C 159.157,383.517 159.824,382.183 161.5,381.5 Z"/></g>
<g><path style="opacity:1" fill="#ae986a" d="M 434.5,379.5 C 436.823,381.686 438.657,384.353 440,387.5C 441.079,390.063 441.579,392.729 441.5,395.5C 439.824,394.817 439.157,393.483 439.5,391.5C 437.441,387.655 435.775,383.655 434.5,379.5 Z"/></g>
<g><path style="opacity:1" fill="#64553d" d="M 159.5,385.5 C 159.843,387.483 159.176,388.817 157.5,389.5C 157.157,387.517 157.824,386.183 159.5,385.5 Z"/></g>
<g><path style="opacity:1" fill="#3c3425" d="M 429.5,373.5 C 430.5,374.167 431.5,374.833 432.5,375.5C 432.229,377.38 432.896,378.713 434.5,379.5C 435.775,383.655 437.441,387.655 439.5,391.5C 437.616,391.288 436.283,390.288 435.5,388.5C 434.896,384.169 433.063,380.503 430,377.5C 429.51,376.207 429.343,374.873 429.5,373.5 Z"/></g>
<g><path style="opacity:1" fill="#65563d" d="M 157.5,389.5 C 157.843,391.483 157.176,392.817 155.5,393.5C 155.157,391.517 155.824,390.183 157.5,389.5 Z"/></g>
<g><path style="opacity:1" fill="#a28d63" d="M 441.5,396.5 C 442.15,396.804 442.817,397.137 443.5,397.5C 445.66,402.643 446.994,407.977 447.5,413.5C 445.167,408.18 443.167,402.513 441.5,396.5 Z"/></g>
<g><path style="opacity:1" fill="#67583e" d="M 155.5,393.5 C 154.908,397.306 153.575,400.639 151.5,403.5C 151.507,399.446 152.84,396.113 155.5,393.5 Z"/></g>
<g><path style="opacity:1" fill="#67593f" d="M 151.5,403.5 C 151.843,405.483 151.176,406.817 149.5,407.5C 149.157,405.517 149.824,404.183 151.5,403.5 Z"/></g>
<g><path style="opacity:1" fill="#66583e" d="M 149.5,409.5 C 149.843,411.483 149.176,412.817 147.5,413.5C 147.157,411.517 147.824,410.183 149.5,409.5 Z"/></g>
<g><path style="opacity:1" fill="#7f5e40" d="M 340.5,408.5 C 337.167,413.833 332.833,418.167 327.5,421.5C 330.833,416.167 335.167,411.833 340.5,408.5 Z"/></g>
<g><path style="opacity:1" fill="#322f2d" d="M 289.5,434.5 C 293.298,433.517 297.298,433.183 301.5,433.5C 298.02,438.664 297.686,443.997 300.5,449.5C 300.5,450.833 299.833,451.5 298.5,451.5C 295.059,451.301 291.726,451.801 288.5,453C 275.461,460.514 261.461,464.681 246.5,465.5C 244.271,485.462 247.438,504.462 256,522.5C 267.468,539.003 283.301,545.836 303.5,543C 322.315,539.189 334.482,528.022 340,509.5C 343.451,495.042 344.951,480.376 344.5,465.5C 342.167,465.5 339.833,465.5 337.5,465.5C 337.5,464.833 337.833,464.5 338.5,464.5C 347.147,465.562 355.147,463.896 362.5,459.5C 363.552,459.649 364.552,459.483 365.5,459C 368.667,455.833 371.833,452.667 375,449.5C 375.483,448.552 375.649,447.552 375.5,446.5C 380.541,439.084 384.541,431.084 387.5,422.5C 390.454,420.853 392.62,421.519 394,424.5C 394.866,440.736 389.699,454.736 378.5,466.5C 371.924,471.57 365.757,477.237 360,483.5C 359.517,484.448 359.351,485.448 359.5,486.5C 354.695,501.079 349.195,515.412 343,529.5C 324.244,548.817 301.744,554.983 275.5,548C 264.053,544.198 254.553,537.698 247,528.5C 240.878,514.801 235.545,500.801 231,486.5C 219.844,476.686 210.177,465.686 202,453.5C 197.061,445.134 195.061,436.134 196,426.5C 196.608,422.539 198.774,421.039 202.5,422C 207.37,436.761 215.703,449.094 227.5,459C 236.502,464.645 246.169,465.978 256.5,463C 266.873,460.32 276.873,456.654 286.5,452C 291.985,447.032 292.985,441.199 289.5,434.5 Z"/></g>
<g><path style="opacity:1" fill="#3e3526" d="M 147.5,415.5 C 147.538,421.313 146.205,426.646 143.5,431.5C 143.63,425.644 144.964,420.31 147.5,415.5 Z"/></g>
<g><path style="opacity:1" fill="#7a6a4b" d="M 453.5,437.5 C 455.176,438.183 455.843,439.517 455.5,441.5C 453.824,440.817 453.157,439.483 453.5,437.5 Z"/></g>
<g><path style="opacity:1" fill="#393123" d="M 143.5,431.5 C 142.343,441.802 140.343,451.802 137.5,461.5C 137.616,458.14 137.949,454.807 138.5,451.5C 139.109,444.468 140.775,437.801 143.5,431.5 Z"/></g>
<g><path style="opacity:1" fill="#f09c9f" d="M 298.5,451.5 C 310.724,458.102 323.724,462.769 337.5,465.5C 339.833,465.5 342.167,465.5 344.5,465.5C 344.951,480.376 343.451,495.042 340,509.5C 334.482,528.022 322.315,539.189 303.5,543C 283.301,545.836 267.468,539.003 256,522.5C 247.438,504.462 244.271,485.462 246.5,465.5C 261.461,464.681 275.461,460.514 288.5,453C 291.726,451.801 295.059,451.301 298.5,451.5 Z"/></g>
<g><path style="opacity:1" fill="#5f5444" d="M 375.5,446.5 C 375.649,447.552 375.483,448.552 375,449.5C 371.833,452.667 368.667,455.833 365.5,459C 364.552,459.483 363.552,459.649 362.5,459.5C 367.167,455.5 371.5,451.167 375.5,446.5 Z"/></g>
<g><path style="opacity:1" fill="#7c6746" d="M 457.5,457.5 C 458.778,457.782 459.778,458.449 460.5,459.5C 460.403,467.441 460.737,475.441 461.5,483.5C 460.036,475.026 458.703,466.359 457.5,457.5 Z"/></g>
<g><path style="opacity:1" fill="#50453e" d="M 300.5,449.5 C 312.416,456.471 325.083,461.471 338.5,464.5C 337.833,464.5 337.5,464.833 337.5,465.5C 323.724,462.769 310.724,458.102 298.5,451.5C 299.833,451.5 300.5,450.833 300.5,449.5 Z"/></g>
<g><path style="opacity:1" fill="#413525" d="M 137.5,461.5 C 137.048,466.998 136.381,472.331 135.5,477.5C 134.887,471.729 135.554,466.396 137.5,461.5 Z"/></g>
<g><path style="opacity:1" fill="#665948" d="M 378.5,466.5 C 372.814,473.851 366.48,480.518 359.5,486.5C 359.351,485.448 359.517,484.448 360,483.5C 365.757,477.237 371.924,471.57 378.5,466.5 Z"/></g>
<g><path style="opacity:1" fill="#3f3323" d="M 135.5,477.5 C 135.323,484.892 134.323,491.892 132.5,498.5C 132.796,491.17 133.796,484.17 135.5,477.5 Z"/></g>
</svg>
