<?xml version="1.0" encoding="UTF-8"?>
<!DOCTYPE svg PUBLIC "-//W3C//DTD SVG 1.1//EN" "http://www.w3.org/Graphics/SVG/1.1/DTD/svg11.dtd">
<svg xmlns="http://www.w3.org/2000/svg" version="1.1" width="600px" height="600px" style="shape-rendering:geometricPrecision; text-rendering:geometricPrecision; image-rendering:optimizeQuality; fill-rule:evenodd; clip-rule:evenodd" xmlns:xlink="http://www.w3.org/1999/xlink">
<g><path style="opacity:0.965" fill="#020101" d="M 94.5,-0.5 C 105.833,-0.5 117.167,-0.5 128.5,-0.5C 154.012,13.1605 177.179,30.1605 198,50.5C 204.526,48.8194 209.192,51.1528 212,57.5C 221.361,52.8496 227.361,55.5163 230,65.5C 230.07,72.9385 230.737,80.2718 232,87.5C 240.362,95.8463 250.029,102.18 261,106.5C 286.925,100.25 312.925,99.9164 339,105.5C 349.872,101.973 359.206,95.9733 367,87.5C 368.26,80.6062 368.926,73.6062 369,66.5C 371.368,56.3162 377.368,53.3162 387,57.5C 390.053,51.6396 394.72,49.3062 401,50.5C 421.908,29.7355 445.408,12.7355 471.5,-0.5C 482.5,-0.5 493.5,-0.5 504.5,-0.5C 514.667,7.17513 519.501,17.5085 519,30.5C 520.036,91.2835 510.369,150.284 490,207.5C 487.716,214.07 484.882,220.403 481.5,226.5C 486.895,234.128 485.895,240.962 478.5,247C 474.661,249.116 470.661,250.95 466.5,252.5C 466.167,254 465.833,255.5 465.5,257C 466.551,261.539 466.551,266.039 465.5,270.5C 469.852,275.018 474.019,279.684 478,284.5C 480.004,290.486 478.838,295.82 474.5,300.5C 480.702,308.903 484.702,318.236 486.5,328.5C 486.355,333.289 484.688,337.455 481.5,341C 484.637,357.718 485.137,374.552 483,391.5C 481.495,407.84 479.161,423.84 476,439.5C 473.828,446.175 469.328,450.175 462.5,451.5C 451.004,492.353 428.671,525.853 395.5,552C 392.387,553.779 389.054,554.945 385.5,555.5C 382.518,554.499 379.518,553.999 376.5,554C 358.819,572.552 338.819,587.719 316.5,599.5C 306.167,599.5 295.833,599.5 285.5,599.5C 262.578,588.115 242.245,572.949 224.5,554C 219.416,555.839 214.416,555.172 209.5,552C 175.444,525.434 152.778,491.268 141.5,449.5C 137.641,449.374 134.308,448.041 131.5,445.5C 128.254,439.931 126.087,433.931 125,427.5C 119.293,398.666 118.126,369.666 121.5,340.5C 118.614,336.885 116.947,332.718 116.5,328C 118.948,317.772 123.281,308.439 129.5,300C 122.948,293.056 122.948,286.056 129.5,279C 127.335,274.871 127.168,270.704 129,266.5C 131.838,262.664 135.005,259.164 138.5,256C 138.355,255.228 138.022,254.561 137.5,254C 131.672,252.057 126.005,249.724 120.5,247C 113.105,240.962 112.105,234.128 117.5,226.5C 93.5275,169.142 80.8608,109.309 79.5,47C 79.9377,38.4964 80.4377,29.9964 81,21.5C 82.7251,12.3682 87.2251,5.03491 94.5,-0.5 Z"/></g>
<g><path style="opacity:1" fill="#382f28" d="M 163.5,184.5 C 157.822,191.848 153.155,199.848 149.5,208.5C 144.782,211.568 139.615,213.235 134,213.5C 133.289,215.367 133.789,216.867 135.5,218C 139.048,219.941 142.714,221.607 146.5,223C 143.129,227.545 138.796,230.711 133.5,232.5C 123.408,216.958 116.575,199.958 113,181.5C 106.468,164.71 101.802,147.376 99,129.5C 92.2094,94.4792 89.5427,59.1459 91,23.5C 93.497,11.0141 100.997,5.51412 113.5,7C 101.447,8.86699 95.2801,16.0337 95,28.5C 94.512,79.9122 103.179,129.579 121,177.5C 127.796,190.66 138.296,194.826 152.5,190C 155.879,187.644 159.545,185.811 163.5,184.5 Z"/></g>
<g><path style="opacity:1" fill="#382f27" d="M 466.5,232.5 C 459.109,231.783 455.776,227.783 456.5,220.5C 459.016,220.245 461.35,219.411 463.5,218C 465.211,216.867 465.711,215.367 465,213.5C 461.667,212.833 458.333,212.167 455,211.5C 451.681,203.528 447.847,195.861 443.5,188.5C 455.565,194.214 466.065,192.214 475,182.5C 484.045,163.365 490.712,143.365 495,122.5C 499.974,96.039 503.141,69.3723 504.5,42.5C 504.775,34.0352 503.941,25.7018 502,17.5C 498.531,10.8466 493.031,7.34665 485.5,7C 497.588,5.41077 505.088,10.5774 508,22.5C 509.91,71.6436 504.577,119.977 492,167.5C 486.543,182.321 481.543,197.321 477,212.5C 473.729,219.378 470.229,226.045 466.5,232.5 Z"/></g>
<g><path style="opacity:1" fill="#dcb6ab" d="M 110.5,17.5 C 116.672,17.0566 122.338,18.5566 127.5,22C 158.467,42.7531 179.634,70.9198 191,106.5C 192.352,122.424 188.686,137.091 180,150.5C 172.244,164.923 160.744,175.09 145.5,181C 137.452,181.978 132.286,178.478 130,170.5C 112.656,124.758 104.322,77.4244 105,28.5C 105.787,24.2586 107.621,20.5919 110.5,17.5 Z"/></g>
<g><path style="opacity:1" fill="#dcb6ab" d="M 479.5,17.5 C 487.703,15.8614 492.536,19.1947 494,27.5C 495.114,78.706 486.114,128.039 467,175.5C 462.673,181.275 457.173,182.775 450.5,180C 427.722,167.308 413.555,148.141 408,122.5C 406.646,110.91 408.646,99.9104 414,89.5C 428.43,58.5783 450.264,34.5783 479.5,17.5 Z"/></g>
<g><path style="opacity:1" fill="#392f28" d="M 257.5,117.5 C 247.578,120.293 238.245,124.46 229.5,130C 214.946,139.105 200.946,148.938 187.5,159.5C 192.506,150.492 196.673,141.158 200,131.5C 203.409,114.38 201.409,98.0463 194,82.5C 182.916,60.5334 168.083,41.3667 149.5,25C 150.167,24.3333 150.833,24.3333 151.5,25C 166.913,36.7211 181.58,49.3878 195.5,63C 197.5,62.3333 199.5,61.6667 201.5,61C 203.645,65.0932 205.979,69.0932 208.5,73C 209.5,73.6667 210.5,73.6667 211.5,73C 213.311,70.022 215.644,67.522 218.5,65.5C 219.331,71.8072 219.831,78.1406 220,84.5C 220.774,88.0487 222.107,91.382 224,94.5C 233.993,104.012 245.159,111.679 257.5,117.5 Z"/></g>
<g><path style="opacity:1" fill="#392f28" d="M 407.5,152.5 C 389.617,138.719 370.283,127.219 349.5,118C 346.964,117.814 344.631,117.314 342.5,116.5C 354.568,111.045 365.401,103.712 375,94.5C 376.608,91.6179 377.941,88.6179 379,85.5C 379.169,78.8085 379.669,72.1419 380.5,65.5C 383.356,67.522 385.689,70.022 387.5,73C 388.833,73.6667 390.167,73.6667 391.5,73C 393.229,68.8762 395.229,64.8762 397.5,61C 399.5,61.6667 401.5,62.3333 403.5,63C 417.244,49.9186 431.577,37.5852 446.5,26C 447.167,25.3333 447.833,25.3333 448.5,26C 426.205,45.4675 410.039,68.9675 400,96.5C 395.301,116.247 397.801,134.913 407.5,152.5 Z"/></g>
<g><path style="opacity:1" fill="#a98142" d="M 342.5,116.5 C 344.631,117.314 346.964,117.814 349.5,118C 370.283,127.219 389.617,138.719 407.5,152.5C 416.5,167.5 428.5,179.5 443.5,188.5C 447.847,195.861 451.681,203.528 455,211.5C 458.333,212.167 461.667,212.833 465,213.5C 465.711,215.367 465.211,216.867 463.5,218C 461.35,219.411 459.016,220.245 456.5,220.5C 455.776,227.783 459.109,231.783 466.5,232.5C 469.096,233.265 471.763,233.599 474.5,233.5C 474.714,235.144 474.38,236.644 473.5,238C 467.615,240.776 461.615,243.276 455.5,245.5C 454.933,253.182 454.599,260.849 454.5,268.5C 448.937,263.221 448.104,264.221 452,271.5C 457.699,276.865 463.033,282.531 468,288.5C 468.684,289.784 468.517,290.951 467.5,292C 464.441,292.645 461.441,293.478 458.5,294.5C 465.942,304.883 471.942,316.05 476.5,328C 476.561,329.711 475.894,331.044 474.5,332C 472.381,332.098 470.714,332.931 469.5,334.5C 471.367,339.669 472.534,345.002 473,350.5C 474.338,379.13 472.004,407.463 466,435.5C 465.417,437.002 464.584,438.335 463.5,439.5C 462.914,439.291 462.414,438.957 462,438.5C 460.129,431.609 458.796,424.609 458,417.5C 452.217,468.919 429.383,510.752 389.5,543C 387.655,544.128 385.655,544.628 383.5,544.5C 383.436,540.78 382.936,537.114 382,533.5C 364.27,552.576 344.77,569.41 323.5,584C 316.541,587.978 309.208,591.145 301.5,593.5C 286.397,588.95 272.73,581.783 260.5,572C 246.38,560.88 233.213,548.714 221,535.5C 219.908,538.044 219.241,540.711 219,543.5C 218.586,543.957 218.086,544.291 217.5,544.5C 181.9,517.686 159.067,482.353 149,438.5C 147.593,431.477 146.26,424.477 145,417.5C 144.036,424.247 142.703,430.914 141,437.5C 139.844,438.993 139.01,438.826 138.5,437C 131.058,408.989 128.225,380.489 130,351.5C 130.654,345.562 131.821,339.729 133.5,334C 132.056,331.966 130.056,331.132 127.5,331.5C 128.26,323.959 130.76,316.959 135,310.5C 138.303,305.031 141.803,299.698 145.5,294.5C 142.5,293.667 139.5,292.833 136.5,292C 135.941,291.275 135.608,290.442 135.5,289.5C 137.907,285.585 140.907,282.085 144.5,279C 140.027,277.226 138.194,274.06 139,269.5C 141.846,267.743 144.512,265.743 147,263.5C 148.205,260.108 149.039,256.608 149.5,253C 149.297,250.594 148.297,248.594 146.5,247C 139.172,244.504 132.172,241.337 125.5,237.5C 124.269,236.349 124.269,235.183 125.5,234C 128.168,233.433 130.834,232.933 133.5,232.5C 138.796,230.711 143.129,227.545 146.5,223C 142.714,221.607 139.048,219.941 135.5,218C 133.789,216.867 133.289,215.367 134,213.5C 139.615,213.235 144.782,211.568 149.5,208.5C 153.155,199.848 157.822,191.848 163.5,184.5C 172.173,176.826 180.173,168.493 187.5,159.5C 200.946,148.938 214.946,139.105 229.5,130C 238.245,124.46 247.578,120.293 257.5,117.5C 285.737,109.966 314.07,109.632 342.5,116.5 Z"/></g>
<g><path style="opacity:1" fill="#9d773a" d="M 377.5,355.5 C 366.397,343.974 356.23,331.64 347,318.5C 330.707,299.296 310.207,292.463 285.5,298C 276.018,301.16 267.851,306.327 261,313.5C 250.529,327.459 239.362,340.793 227.5,353.5C 228.473,348.546 230.306,343.879 233,339.5C 241,326.833 249,314.167 257,301.5C 269.295,280.61 277.629,258.277 282,234.5C 282.499,215.812 281.999,197.145 280.5,178.5C 279.448,161.82 284.448,147.32 295.5,135C 302.394,131.507 308.227,133.007 313,139.5C 320.396,151.414 323.896,164.414 323.5,178.5C 321.912,197.142 321.412,215.809 322,234.5C 325.061,252.683 330.728,270.016 339,286.5C 348.474,304.955 359.141,322.621 371,339.5C 374.015,344.525 376.182,349.858 377.5,355.5 Z"/></g>
<g><path style="opacity:1" fill="#503e2c" d="M 230.5,196.5 C 243.271,196.463 252.437,202.13 258,213.5C 259.74,223.061 255.906,226.228 246.5,223C 238.153,221.799 230.153,219.465 222.5,216C 217.021,210.694 217.355,205.694 223.5,201C 225.898,199.476 228.231,197.976 230.5,196.5 Z"/></g>
<g><path style="opacity:1" fill="#503e2c" d="M 366.5,196.5 C 374.591,196.295 380.758,199.629 385,206.5C 385.811,212.377 383.311,216.21 377.5,218C 367.742,221.353 357.742,223.019 347.5,223C 344.812,218.447 344.979,213.947 348,209.5C 352.722,202.92 358.888,198.586 366.5,196.5 Z"/></g>
<g><path style="opacity:1" fill="#020100" d="M 234.5,233.5 C 246.35,233.842 255.183,239.175 261,249.5C 262.721,252.315 263.388,255.315 263,258.5C 254.956,263.181 246.29,265.848 237,266.5C 225.987,265.41 216.82,260.744 209.5,252.5C 215.324,242.653 223.657,236.32 234.5,233.5 Z"/></g>
<g><path style="opacity:1" fill="#020100" d="M 363.5,233.5 C 369.535,233.592 375.201,235.092 380.5,238C 384.967,241.465 389.133,245.298 393,249.5C 393.667,251.167 393.667,252.833 393,254.5C 375.825,269.787 358.325,270.453 340.5,256.5C 343.916,244.418 351.582,236.751 363.5,233.5 Z"/></g>
<g><path style="opacity:1" fill="#e6e6e6" d="M 238.5,240.5 C 246.818,240.987 248.485,244.487 243.5,251C 235.088,250.812 233.421,247.312 238.5,240.5 Z"/></g>
<g><path style="opacity:1" fill="#e9e9e9" d="M 369.5,240.5 C 377.818,240.987 379.485,244.487 374.5,251C 368.714,251.881 366.214,249.381 367,243.5C 368.045,242.627 368.878,241.627 369.5,240.5 Z"/></g>
<g><path style="opacity:1" fill="#392f28" d="M 377.5,355.5 C 385.799,364.084 392.632,373.751 398,384.5C 405.212,407.247 397.379,421.747 374.5,428C 371.183,428.498 367.85,428.665 364.5,428.5C 370.887,422.072 376.053,414.739 380,406.5C 383.301,400.01 383.968,393.343 382,386.5C 380.604,384.473 378.938,384.14 377,385.5C 373.28,399.812 365.113,410.645 352.5,418C 346.235,419.484 339.902,419.818 333.5,419C 323.782,416.316 314.449,412.65 305.5,408C 304.291,404.699 304.958,401.699 307.5,399C 309.303,398.363 310.636,397.197 311.5,395.5C 321.424,392.404 329.924,387.071 337,379.5C 347.911,361.412 343.744,348.245 324.5,340C 312.599,337.671 300.599,337.004 288.5,338C 262.851,342.467 255.685,356.3 267,379.5C 275.657,387.903 285.49,394.403 296.5,399C 298.567,401.971 298.9,405.138 297.5,408.5C 288.427,412.691 279.094,416.191 269.5,419C 264.167,419.667 258.833,419.667 253.5,419C 244.39,414.889 237.556,408.389 233,399.5C 230.806,395.251 228.806,390.918 227,386.5C 225.062,385.14 223.396,385.473 222,387.5C 220.135,398.591 222.801,408.591 230,417.5C 233.002,421.334 236.169,425 239.5,428.5C 214.954,428.788 203.12,416.788 204,392.5C 205.419,383.996 208.752,376.33 214,369.5C 218.711,364.294 223.211,358.961 227.5,353.5C 239.362,340.793 250.529,327.459 261,313.5C 267.851,306.327 276.018,301.16 285.5,298C 310.207,292.463 330.707,299.296 347,318.5C 356.23,331.64 366.397,343.974 377.5,355.5 Z"/></g>
<g><path style="opacity:1" fill="#191717" d="M 364.5,428.5 C 360.668,429.818 357.501,432.152 355,435.5C 350.394,447.982 345.394,460.316 340,472.5C 331.991,481.922 321.824,487.255 309.5,488.5C 315.853,486.823 321.52,483.823 326.5,479.5C 332.067,474.72 335.901,468.72 338,461.5C 341.131,449.375 342.298,437.041 341.5,424.5C 338.15,424.665 334.817,424.498 331.5,424C 323.97,421.903 316.637,419.236 309.5,416C 306.689,415.371 303.856,414.871 301,414.5C 292.703,416.895 284.537,419.729 276.5,423C 271.915,424.225 267.248,424.725 262.5,424.5C 262.5,425.833 262.5,427.167 262.5,428.5C 261.143,444.03 263.976,458.697 271,472.5C 276.808,480.974 284.641,486.308 294.5,488.5C 279.566,486.79 268.399,479.457 261,466.5C 257.53,456.423 253.863,446.423 250,436.5C 247.142,432.786 243.642,430.12 239.5,428.5C 236.169,425 233.002,421.334 230,417.5C 222.801,408.591 220.135,398.591 222,387.5C 223.396,385.473 225.062,385.14 227,386.5C 228.806,390.918 230.806,395.251 233,399.5C 237.556,408.389 244.39,414.889 253.5,419C 258.833,419.667 264.167,419.667 269.5,419C 279.094,416.191 288.427,412.691 297.5,408.5C 298.9,405.138 298.567,401.971 296.5,399C 285.49,394.403 275.657,387.903 267,379.5C 255.685,356.3 262.851,342.467 288.5,338C 300.599,337.004 312.599,337.671 324.5,340C 343.744,348.245 347.911,361.412 337,379.5C 329.924,387.071 321.424,392.404 311.5,395.5C 310.636,397.197 309.303,398.363 307.5,399C 304.958,401.699 304.291,404.699 305.5,408C 314.449,412.65 323.782,416.316 333.5,419C 339.902,419.818 346.235,419.484 352.5,418C 365.113,410.645 373.28,399.812 377,385.5C 378.938,384.14 380.604,384.473 382,386.5C 383.968,393.343 383.301,400.01 380,406.5C 376.053,414.739 370.887,422.072 364.5,428.5 Z"/></g>
<g><path style="opacity:1" fill="#e59497" d="M 326.5,479.5 C 305.206,462.511 283.872,445.511 262.5,428.5C 262.5,427.167 262.5,425.833 262.5,424.5C 267.248,424.725 271.915,424.225 276.5,423C 284.537,419.729 292.703,416.895 301,414.5C 303.856,414.871 306.689,415.371 309.5,416C 316.637,419.236 323.97,421.903 331.5,424C 334.817,424.498 338.15,424.665 341.5,424.5C 342.298,437.041 341.131,449.375 338,461.5C 335.901,468.72 332.067,474.72 326.5,479.5 Z"/></g>
<g><path style="opacity:1" fill="#ef9b9e" d="M 262.5,428.5 C 283.872,445.511 305.206,462.511 326.5,479.5C 321.52,483.823 315.853,486.823 309.5,488.5C 304.5,488.5 299.5,488.5 294.5,488.5C 284.641,486.308 276.808,480.974 271,472.5C 263.976,458.697 261.143,444.03 262.5,428.5 Z"/></g>
</svg>
