<?xml version="1.0" encoding="UTF-8"?>
<!DOCTYPE svg PUBLIC "-//W3C//DTD SVG 1.1//EN" "http://www.w3.org/Graphics/SVG/1.1/DTD/svg11.dtd">
<svg xmlns="http://www.w3.org/2000/svg" version="1.1" width="600px" height="600px" style="shape-rendering:geometricPrecision; text-rendering:geometricPrecision; image-rendering:optimizeQuality; fill-rule:evenodd; clip-rule:evenodd" xmlns:xlink="http://www.w3.org/1999/xlink">
<g><path style="opacity:0.95" fill="#020100" d="M 599.5,278.5 C 599.5,283.833 599.5,289.167 599.5,294.5C 596.255,297.615 592.589,299.949 588.5,301.5C 590.72,306.596 592.053,311.929 592.5,317.5C 591.635,324.961 590.135,332.294 588,339.5C 583.93,351.044 580.263,362.711 577,374.5C 574.971,377.596 572.138,379.262 568.5,379.5C 569.005,386.994 566.005,392.494 559.5,396C 561.915,403.91 563.915,411.91 565.5,420C 565.037,430.805 559.537,435.305 549,433.5C 540.671,440.208 531.504,441.708 521.5,438C 509.876,432.188 498.542,425.854 487.5,419C 477.714,412.221 470.547,403.388 466,392.5C 458.276,412.335 450.943,432.335 444,452.5C 440.841,467.629 437.174,482.629 433,497.5C 419.728,528.713 397.062,538.38 365,526.5C 355.968,549.515 339.134,563.015 314.5,567C 285.428,571.979 261.262,563.479 242,541.5C 239.393,536.62 237.06,531.62 235,526.5C 202.029,538.302 179.362,527.969 167,495.5C 162.897,480.319 159.564,464.985 157,449.5C 149.122,430.19 141.456,410.857 134,391.5C 127.478,405.406 117.645,416.24 104.5,424C 95.3116,428.427 86.3116,433.093 77.5,438C 67.5289,441.54 58.3622,440.04 50,433.5C 40.0156,435.072 34.5156,430.739 33.5,420.5C 34.8641,413.377 36.6975,406.377 39,399.5C 39.6667,397.833 39.6667,396.167 39,394.5C 33.0519,391.601 30.5519,386.934 31.5,380.5C 27.1401,379.741 23.9734,377.408 22,373.5C 16.9282,357.618 12.2616,341.618 8,325.5C 6.89191,317.448 7.72524,309.614 10.5,302C 10.3552,301.228 10.0219,300.561 9.5,300C 4.9448,299.565 1.61147,297.398 -0.5,293.5C -0.5,288.833 -0.5,284.167 -0.5,279.5C 1.17009,276.652 2.17009,273.485 2.5,270C -1.03636,257.531 0.463641,245.698 7,234.5C 39.9897,188.842 78.4897,148.342 122.5,113C 129.328,108.085 136.328,103.419 143.5,99C 160.271,91.4484 176.604,83.115 192.5,74C 227.278,60.9255 263.278,54.4255 300.5,54.5C 338.505,54.3335 375.172,61.1669 410.5,75C 414.5,77 418.5,79 422.5,81C 433.719,88.1104 445.386,94.4437 457.5,100C 488.612,120.423 516.778,144.59 542,172.5C 557.476,190.131 572.476,208.131 587,226.5C 597.669,239.343 600.835,253.843 596.5,270C 597.417,272.972 598.417,275.806 599.5,278.5 Z"/></g>
<g><path style="opacity:1" fill="#d28744" d="M 433.5,99.5 C 464.026,124.52 482.193,156.853 488,196.5C 495.438,252.735 488.605,307.069 467.5,359.5C 455.883,388.947 444.716,418.614 434,448.5C 430.745,461.442 427.745,474.442 425,487.5C 418.094,515.035 400.927,525.202 373.5,518C 368.441,516.59 363.441,515.09 358.5,513.5C 360.041,505.88 362.374,498.546 365.5,491.5C 372.93,484.906 379.763,477.906 386,470.5C 389.99,463.911 393.99,457.244 398,450.5C 400.296,445.026 401.296,439.359 401,433.5C 398.266,449.05 390.766,461.717 378.5,471.5C 369.478,474.903 360.145,476.236 350.5,475.5C 336.597,471.088 322.597,466.421 308.5,461.5C 303.311,456.024 302.145,449.691 305,442.5C 308.798,439.075 313.298,436.908 318.5,436C 324.544,433.316 330.211,430.149 335.5,426.5C 339.5,424.5 342.5,421.5 344.5,417.5C 355.205,400.513 352.872,385.68 337.5,373C 316.274,364.987 294.608,363.654 272.5,369C 258.95,373.895 251.283,383.561 249.5,398C 251.039,410.076 256.705,419.743 266.5,427C 274.828,432.664 283.828,436.997 293.5,440C 299.032,447.397 298.699,454.564 292.5,461.5C 277.888,465.262 263.555,469.596 249.5,474.5C 247.901,474.232 246.568,474.566 245.5,475.5C 235.124,476.193 225.457,474.026 216.5,469C 209.226,460.622 203.893,451.122 200.5,440.5C 200.162,438.146 199.662,435.813 199,433.5C 198.195,436.696 198.362,439.696 199.5,442.5C 200.955,451.356 204.455,459.356 210,466.5C 213.759,469.405 216.925,472.738 219.5,476.5C 221.5,480.5 224.5,483.5 228.5,485.5C 236.284,493.166 240.617,502.499 241.5,513.5C 231.667,517.166 221.501,519.499 211,520.5C 199.439,520.55 190.439,515.883 184,506.5C 176.034,491.281 171.534,475.281 170.5,458.5C 159.36,424.215 146.527,390.548 132,357.5C 131.617,358.056 131.117,358.389 130.5,358.5C 130.664,355.813 130.497,353.146 130,350.5C 111.627,300.32 105.96,248.653 113,195.5C 117.151,166.015 128.818,140.015 148,117.5C 155.437,110.219 163.27,103.552 171.5,97.5C 200.097,79.4692 231.43,69.3025 265.5,67C 305.396,62.9924 344.729,65.9924 383.5,76C 401.368,81.4471 418.034,89.2804 433.5,99.5 Z"/></g>
<g><path style="opacity:1" fill="#c76a1d" d="M 171.5,97.5 C 163.27,103.552 155.437,110.219 148,117.5C 128.818,140.015 117.151,166.015 113,195.5C 105.96,248.653 111.627,300.32 130,350.5C 130.497,353.146 130.664,355.813 130.5,358.5C 129.806,374.296 124.973,388.629 116,401.5C 113.116,404.685 109.949,407.518 106.5,410C 95.4578,416.854 84.1244,423.188 72.5,429C 63.2831,431.149 57.7831,427.649 56,418.5C 52.9354,421.949 49.1021,423.616 44.5,423.5C 44.3354,420.482 44.502,417.482 45,414.5C 49.4256,402.207 51.5923,389.54 51.5,376.5C 50.448,376.351 49.448,376.517 48.5,377C 46.8495,379.813 44.8495,382.313 42.5,384.5C 42.2566,376.903 42.2566,369.236 42.5,361.5C 38.4999,362.656 35.4999,365.156 33.5,369C 32.5509,369.617 31.7175,369.451 31,368.5C 26.8735,353.786 22.5402,339.119 18,324.5C 16.8308,314.508 18.8308,305.174 24,296.5C 24.6667,295.167 24.6667,293.833 24,292.5C 22.7838,290.032 21.1171,288.032 19,286.5C 16.0416,288.233 12.8749,289.233 9.5,289.5C 9.58655,282.906 10.9199,276.573 13.5,270.5C 9.11095,256.936 11.2776,244.603 20,233.5C 47.6402,197.521 78.4735,164.354 112.5,134C 121.55,126.615 130.884,119.615 140.5,113C 150.298,106.768 160.631,101.601 171.5,97.5 Z"/></g>
<g><path style="opacity:1" fill="#c76a1d" d="M 433.5,99.5 C 445.621,104.724 456.955,111.224 467.5,119C 513.617,154.778 553.117,196.611 586,244.5C 589.317,253.202 589.15,261.869 585.5,270.5C 588.196,276.583 589.863,282.917 590.5,289.5C 586.609,289.391 582.942,288.391 579.5,286.5C 577.211,288.902 575.545,291.735 574.5,295C 577.081,299.994 579.247,305.161 581,310.5C 581.667,315.833 581.667,321.167 581,326.5C 576.116,340.649 571.949,354.983 568.5,369.5C 564.955,367.309 561.622,364.642 558.5,361.5C 557.808,362.025 557.308,362.692 557,363.5C 556.918,370.544 556.751,377.544 556.5,384.5C 554.631,381.948 552.631,379.448 550.5,377C 549.551,376.383 548.718,376.549 548,377.5C 547.93,390.895 550.263,403.895 555,416.5C 556.913,422.094 555.08,424.261 549.5,423C 547.359,421.692 545.359,420.192 543.5,418.5C 541.727,427.953 536.061,431.453 526.5,429C 518.594,423.915 510.26,419.582 501.5,416C 489.897,409.064 481.064,399.564 475,387.5C 472.159,378.127 469.659,368.794 467.5,359.5C 488.605,307.069 495.438,252.735 488,196.5C 482.193,156.853 464.026,124.52 433.5,99.5 Z"/></g>
<g><path style="opacity:1" fill="#382f2b" d="M 215.5,209.5 C 234.789,211.272 247.955,221.272 255,239.5C 255.667,241.5 255.667,243.5 255,245.5C 246.914,248.79 238.747,251.957 230.5,255C 221.392,257.237 212.392,256.904 203.5,254C 195.081,250.044 187.247,245.211 180,239.5C 179.333,237.5 179.333,235.5 180,233.5C 188.817,220.819 200.65,212.819 215.5,209.5 Z"/></g>
<g><path style="opacity:1" fill="#382f2b" d="M 379.5,209.5 C 397.634,210.467 411.801,218.467 422,233.5C 422.667,235.167 422.667,236.833 422,238.5C 413.113,246.528 402.946,252.361 391.5,256C 384.444,256.788 377.444,256.455 370.5,255C 362.935,251.717 355.268,248.717 347.5,246C 346.451,242.854 346.617,239.688 348,236.5C 354.531,222.681 365.031,213.681 379.5,209.5 Z"/></g>
<g><path style="opacity:1" fill="#f5f5f5" d="M 220.5,220.5 C 230.247,220.085 232.913,224.252 228.5,233C 220.447,235.951 216.613,233.118 217,224.5C 218.032,222.973 219.199,221.64 220.5,220.5 Z"/></g>
<g><path style="opacity:1" fill="#f5f5f5" d="M 387.5,220.5 C 395.794,219.036 399.294,222.37 398,230.5C 394.174,235.389 390.008,235.722 385.5,231.5C 383.762,227.31 384.429,223.643 387.5,220.5 Z"/></g>
<g><path style="opacity:1" fill="#372f2b" d="M 344.5,417.5 C 341.167,420.167 338.167,423.167 335.5,426.5C 330.211,430.149 324.544,433.316 318.5,436C 313.298,436.908 308.798,439.075 305,442.5C 302.145,449.691 303.311,456.024 308.5,461.5C 303.158,460.239 297.825,460.239 292.5,461.5C 298.699,454.564 299.032,447.397 293.5,440C 283.828,436.997 274.828,432.664 266.5,427C 256.705,419.743 251.039,410.076 249.5,398C 251.283,383.561 258.95,373.895 272.5,369C 294.608,363.654 316.274,364.987 337.5,373C 352.872,385.68 355.205,400.513 344.5,417.5 Z"/></g>
<g><path style="opacity:1" fill="#9a673a" d="M 344.5,417.5 C 342.5,421.5 339.5,424.5 335.5,426.5C 338.167,423.167 341.167,420.167 344.5,417.5 Z"/></g>
<g><path style="opacity:1" fill="#6b4528" d="M 200.5,440.5 C 199.662,440.842 199.328,441.508 199.5,442.5C 198.362,439.696 198.195,436.696 199,433.5C 199.662,435.813 200.162,438.146 200.5,440.5 Z"/></g>
<g><path style="opacity:1" fill="#261a16" d="M 358.5,513.5 C 355.632,520.928 352.466,528.261 349,535.5C 335.935,550.693 319.268,558.026 299,557.5C 268.715,557.131 249.549,542.464 241.5,513.5C 240.617,502.499 236.284,493.166 228.5,485.5C 225.833,482.167 222.833,479.167 219.5,476.5C 216.925,472.738 213.759,469.405 210,466.5C 204.455,459.356 200.955,451.356 199.5,442.5C 199.328,441.508 199.662,440.842 200.5,440.5C 203.893,451.122 209.226,460.622 216.5,469C 225.457,474.026 235.124,476.193 245.5,475.5C 246.833,475.5 248.167,475.5 249.5,475.5C 249.183,479.702 249.517,483.702 250.5,487.5C 249.842,505.017 254.342,521.017 264,535.5C 278.497,549.87 295.663,554.37 315.5,549C 334.023,541.84 344.857,528.34 348,508.5C 349.868,497.579 350.701,486.579 350.5,475.5C 360.145,476.236 369.478,474.903 378.5,471.5C 390.766,461.717 398.266,449.05 401,433.5C 401.296,439.359 400.296,445.026 398,450.5C 393.99,457.244 389.99,463.911 386,470.5C 379.763,477.906 372.93,484.906 365.5,491.5C 362.374,498.546 360.041,505.88 358.5,513.5 Z"/></g>
<g><path style="opacity:1" fill="#f19c9f" d="M 308.5,461.5 C 322.597,466.421 336.597,471.088 350.5,475.5C 350.701,486.579 349.868,497.579 348,508.5C 344.857,528.34 334.023,541.84 315.5,549C 295.663,554.37 278.497,549.87 264,535.5C 254.342,521.017 249.842,505.017 250.5,487.5C 250.818,482.968 250.485,478.634 249.5,474.5C 263.555,469.596 277.888,465.262 292.5,461.5C 297.825,460.239 303.158,460.239 308.5,461.5 Z"/></g>
<g><path style="opacity:1" fill="#84552e" d="M 219.5,476.5 C 222.833,479.167 225.833,482.167 228.5,485.5C 224.5,483.5 221.5,480.5 219.5,476.5 Z"/></g>
<g><path style="opacity:1" fill="#a26864" d="M 245.5,475.5 C 246.568,474.566 247.901,474.232 249.5,474.5C 250.485,478.634 250.818,482.968 250.5,487.5C 249.517,483.702 249.183,479.702 249.5,475.5C 248.167,475.5 246.833,475.5 245.5,475.5 Z"/></g>
</svg>
