<?xml version="1.0" encoding="UTF-8"?>
<!DOCTYPE svg PUBLIC "-//W3C//DTD SVG 1.1//EN" "http://www.w3.org/Graphics/SVG/1.1/DTD/svg11.dtd">
<svg xmlns="http://www.w3.org/2000/svg" version="1.1" width="600px" height="600px" style="shape-rendering:geometricPrecision; text-rendering:geometricPrecision; image-rendering:optimizeQuality; fill-rule:evenodd; clip-rule:evenodd" xmlns:xlink="http://www.w3.org/1999/xlink">
<g><path style="opacity:0.951" fill="#010000" d="M 599.5,206.5 C 599.5,222.833 599.5,239.167 599.5,255.5C 586.343,284.111 577.509,314.111 573,345.5C 570.774,354.956 564.774,359.956 555,360.5C 544.209,358.268 535.209,352.935 528,344.5C 521.922,336.677 516.089,328.677 510.5,320.5C 506.64,332.913 502.473,345.247 498,357.5C 485.546,386.316 473.546,415.316 462,444.5C 456.081,464.765 450.414,485.098 445,505.5C 434.512,530.666 415.679,541.166 388.5,537C 382.487,535.829 376.487,534.663 370.5,533.5C 366.584,547.494 358.251,557.994 345.5,565C 316.333,579.938 286.999,580.271 257.5,566C 243.968,558.628 234.635,547.628 229.5,533C 220.312,534.935 210.979,536.435 201.5,537.5C 179.796,536.285 164.963,525.618 157,505.5C 151.461,485.479 145.795,465.479 140,445.5C 128.528,418.085 116.861,390.751 105,363.5C 99.1329,348.399 93.9662,333.065 89.5,317.5C 81.2004,330.976 71.2004,343.142 59.5,354C 50.7518,361.109 41.4185,362.109 31.5,357C 28.5095,354.01 26.3428,350.51 25,346.5C 20.826,315.786 12.326,286.452 -0.5,258.5C -0.5,240.5 -0.5,222.5 -0.5,204.5C 3.41063,198.072 7.5773,191.738 12,185.5C 33.233,159.931 56.233,135.931 81,113.5C 79.4184,104.063 83.2518,97.8959 92.5,95C 87.9529,87.4167 88.9529,80.7501 95.5,75C 97.5806,74.1313 99.7473,73.6313 102,73.5C 115.417,76.1025 128.917,78.2692 142.5,80C 146.833,80.6667 151.167,80.6667 155.5,80C 175.715,68.0655 197.382,59.7322 220.5,55C 273.833,43.6667 327.167,43.6667 380.5,55C 403.555,59.795 425.222,68.1283 445.5,80C 462.46,79.004 479.294,76.8373 496,73.5C 503.683,74.3512 507.85,78.6846 508.5,86.5C 508.032,89.5473 507.032,92.3807 505.5,95C 514.753,98.3486 518.753,104.849 517.5,114.5C 541.586,135.75 563.752,158.75 584,183.5C 589.813,190.798 594.98,198.465 599.5,206.5 Z"/></g>
<g><path style="opacity:1" fill="#4c4848" d="M 439.5,88.5 C 438.054,89.6129 436.387,89.7796 434.5,89C 427.715,85.9571 420.715,83.9571 413.5,83C 444.043,106.572 464.21,137.072 474,174.5C 481.695,213.948 492.195,252.614 505.5,290.5C 502.551,309.63 497.717,328.296 491,346.5C 477.994,377.843 464.994,409.177 452,440.5C 446.401,456.492 442.068,472.826 439,489.5C 436.26,502.165 430.094,512.665 420.5,521C 416.928,523.637 412.928,525.303 408.5,526C 394.213,527.591 380.38,525.758 367,520.5C 366.098,520.743 365.265,521.077 364.5,521.5C 365.343,513.802 367.51,506.469 371,499.5C 377.914,492.517 384.914,485.517 392,478.5C 403.784,463.896 402.951,463.063 389.5,476C 378.658,481.287 367.325,482.787 355.5,480.5C 340.254,476.089 324.921,471.422 309.5,466.5C 303.371,461.006 301.871,454.339 305,446.5C 306.214,444.951 307.714,443.785 309.5,443C 326.916,438.563 340.749,429.063 351,414.5C 361.795,386.931 352.628,369.764 323.5,363C 306.829,359.714 290.162,359.714 273.5,363C 245.769,371.298 237.602,388.798 249,415.5C 259.209,430.696 273.376,439.863 291.5,443C 294.381,444.251 296.214,446.417 297,449.5C 297.667,452.833 297.667,456.167 297,459.5C 295.334,461.996 293.5,464.329 291.5,466.5C 276.485,471.425 261.151,475.758 245.5,479.5C 220.981,484.326 203.815,475.326 194,452.5C 191.927,446.947 190.26,441.28 189,435.5C 187.771,443.921 189.105,451.921 193,459.5C 202.501,474.34 214.168,487.34 228,498.5C 231.403,505.211 233.903,512.211 235.5,519.5C 221.943,524.593 207.943,526.76 193.5,526C 183.22,523.444 175.386,517.611 170,508.5C 167.276,502.995 164.943,497.328 163,491.5C 159.346,473.899 154.679,456.565 149,439.5C 134.172,406.177 120.172,372.51 107,338.5C 100.864,321.268 96.6975,303.601 94.5,285.5C 106.51,248.798 116.343,211.464 124,173.5C 133.922,136.287 154.089,106.121 184.5,83C 176.803,83.6674 169.469,85.8341 162.5,89.5C 161.893,89.3764 161.56,89.0431 161.5,88.5C 189.71,72.487 220.043,62.987 252.5,60C 294.764,55.5774 336.764,57.244 378.5,65C 400.067,69.7972 420.4,77.6305 439.5,88.5 Z"/></g>
<g><path style="opacity:1" fill="#3d3938" d="M 94.5,285.5 C 85.3985,304.346 74.2319,322.013 61,338.5C 57.1667,341.667 53.3333,344.833 49.5,348C 45.9279,349.405 42.2613,349.738 38.5,349C 36.5125,347.681 35.3459,345.848 35,343.5C 29.6493,308.448 19.6493,274.782 5,242.5C 1.59643,229.29 3.59643,216.957 11,205.5C 32.1595,176.748 55.9929,150.248 82.5,126C 88.3235,122.34 93.3235,117.84 97.5,112.5C 95.8208,111.218 93.9874,110.218 92,109.5C 91.2506,108.365 91.4173,107.365 92.5,106.5C 97.5456,104.393 102.712,102.727 108,101.5C 108.315,100.092 107.982,98.7589 107,97.5C 102.391,93.9499 100.224,89.2832 100.5,83.5C 105.012,85.1683 109.678,86.335 114.5,87C 126.245,87.8921 137.912,89.3921 149.5,91.5C 153.737,91.2548 157.737,90.2548 161.5,88.5C 161.56,89.0431 161.893,89.3764 162.5,89.5C 169.469,85.8341 176.803,83.6674 184.5,83C 154.089,106.121 133.922,136.287 124,173.5C 116.343,211.464 106.51,248.798 94.5,285.5 Z"/></g>
<g><path style="opacity:1" fill="#3d3938" d="M 439.5,88.5 C 441.843,90.7492 444.677,91.7492 448,91.5C 461.75,89.0832 475.583,87.2499 489.5,86C 492.096,84.8644 494.763,84.031 497.5,83.5C 497.143,89.5469 494.643,94.5469 490,98.5C 489.333,99.5 489.333,100.5 490,101.5C 495.614,102.768 500.947,104.768 506,107.5C 506.688,108.332 506.521,108.998 505.5,109.5C 503.941,110.074 502.441,110.74 501,111.5C 500.333,112.5 500.333,113.5 501,114.5C 531.443,139.941 558.776,168.274 583,199.5C 591.945,211.002 595.611,224.002 594,238.5C 581.536,267.225 571.87,296.891 565,327.5C 564.07,332.799 563.403,338.133 563,343.5C 560.752,349.233 556.586,351.067 550.5,349C 544.466,345.972 539.299,341.805 535,336.5C 523.867,321.876 514.034,306.543 505.5,290.5C 492.195,252.614 481.695,213.948 474,174.5C 464.21,137.072 444.043,106.572 413.5,83C 420.715,83.9571 427.715,85.9571 434.5,89C 436.387,89.7796 438.054,89.6129 439.5,88.5 Z"/></g>
<g><path style="opacity:1" fill="#010101" d="M 215.5,209.5 C 223.586,209.187 230.92,211.354 237.5,216C 245.642,222.138 251.475,229.972 255,239.5C 255.667,241.5 255.667,243.5 255,245.5C 246.914,248.79 238.747,251.957 230.5,255C 221.392,257.237 212.392,256.904 203.5,254C 195.081,250.044 187.247,245.211 180,239.5C 179.333,237.5 179.333,235.5 180,233.5C 188.817,220.819 200.65,212.819 215.5,209.5 Z"/></g>
<g><path style="opacity:1" fill="#010101" d="M 379.5,209.5 C 397.634,210.467 411.801,218.467 422,233.5C 422.687,235.568 422.52,237.568 421.5,239.5C 412.576,246.916 402.576,252.416 391.5,256C 384.444,256.788 377.444,256.455 370.5,255C 362.935,251.717 355.268,248.717 347.5,246C 346.451,242.854 346.617,239.688 348,236.5C 354.531,222.681 365.031,213.681 379.5,209.5 Z"/></g>
<g><path style="opacity:1" fill="#f3f3f3" d="M 220.5,220.5 C 230.247,220.085 232.913,224.252 228.5,233C 220.398,235.895 216.565,233.062 217,224.5C 217.69,222.65 218.856,221.316 220.5,220.5 Z"/></g>
<g><path style="opacity:1" fill="#f4f4f4" d="M 387.5,220.5 C 395.794,219.036 399.294,222.37 398,230.5C 394.644,234.948 390.644,235.615 386,232.5C 383.66,228.052 384.16,224.052 387.5,220.5 Z"/></g>
<g><path style="opacity:1" fill="#000000" d="M 309.5,466.5 C 303.492,465.226 297.492,465.226 291.5,466.5C 293.5,464.329 295.334,461.996 297,459.5C 297.667,456.167 297.667,452.833 297,449.5C 296.214,446.417 294.381,444.251 291.5,443C 273.376,439.863 259.209,430.696 249,415.5C 237.602,388.798 245.769,371.298 273.5,363C 290.162,359.714 306.829,359.714 323.5,363C 352.628,369.764 361.795,386.931 351,414.5C 340.749,429.063 326.916,438.563 309.5,443C 307.714,443.785 306.214,444.951 305,446.5C 301.871,454.339 303.371,461.006 309.5,466.5 Z"/></g>
<g><path style="opacity:1" fill="#241815" d="M 245.5,479.5 C 243.346,500.898 247.512,520.898 258,539.5C 272.246,555.584 290.08,561.75 311.5,558C 334.82,552.678 348.653,538.178 353,514.5C 355.132,503.271 355.965,491.937 355.5,480.5C 367.325,482.787 378.658,481.287 389.5,476C 402.951,463.063 403.784,463.896 392,478.5C 384.914,485.517 377.914,492.517 371,499.5C 367.51,506.469 365.343,513.802 364.5,521.5C 358.985,543.848 344.985,557.682 322.5,563C 298.434,569.652 276.101,565.986 255.5,552C 251.667,549.5 248.5,546.333 246,542.5C 242.187,534.858 238.687,527.191 235.5,519.5C 233.903,512.211 231.403,505.211 228,498.5C 214.168,487.34 202.501,474.34 193,459.5C 189.105,451.921 187.771,443.921 189,435.5C 190.26,441.28 191.927,446.947 194,452.5C 203.815,475.326 220.981,484.326 245.5,479.5 Z"/></g>
<g><path style="opacity:1" fill="#f09c9f" d="M 309.5,466.5 C 324.921,471.422 340.254,476.089 355.5,480.5C 355.965,491.937 355.132,503.271 353,514.5C 348.653,538.178 334.82,552.678 311.5,558C 290.08,561.75 272.246,555.584 258,539.5C 247.512,520.898 243.346,500.898 245.5,479.5C 261.151,475.758 276.485,471.425 291.5,466.5C 297.492,465.226 303.492,465.226 309.5,466.5 Z"/></g>
</svg>
