<?xml version="1.0" encoding="UTF-8"?>
<!DOCTYPE svg PUBLIC "-//W3C//DTD SVG 1.1//EN" "http://www.w3.org/Graphics/SVG/1.1/DTD/svg11.dtd">
<svg xmlns="http://www.w3.org/2000/svg" version="1.1" width="600px" height="600px" style="shape-rendering:geometricPrecision; text-rendering:geometricPrecision; image-rendering:optimizeQuality; fill-rule:evenodd; clip-rule:evenodd" xmlns:xlink="http://www.w3.org/1999/xlink">
<g><path style="opacity:0.97" fill="#040302" d="M 464.5,599.5 C 457.833,599.5 451.167,599.5 444.5,599.5C 439.726,595.604 434.392,592.437 428.5,590C 416.485,585.826 404.819,580.826 393.5,575C 389.033,571.535 384.867,567.702 381,563.5C 372.717,544.929 362.883,527.263 351.5,510.5C 339.81,515.651 332.81,511.817 330.5,499C 331.909,494.878 332.742,490.711 333,486.5C 322.961,493.351 311.961,498.017 300,500.5C 287.109,498.208 275.442,493.208 265,485.5C 265.688,490.618 266.521,495.785 267.5,501C 267.186,508.134 263.519,512.301 256.5,513.5C 252.619,512.893 249.286,511.226 246.5,508.5C 246.167,508.833 245.833,509.167 245.5,509.5C 233.956,527.92 223.456,546.92 214,566.5C 209.786,570.382 205.286,573.882 200.5,577C 187.996,582.723 175.33,588.057 162.5,593C 158.991,595.03 155.658,597.196 152.5,599.5C 145.5,599.5 138.5,599.5 131.5,599.5C 112.333,590.753 93,582.253 73.5,574C 69.5554,570.054 66.3887,565.554 64,560.5C 59.9206,548.594 55.2539,536.928 50,525.5C 47,521.833 44,518.167 41,514.5C 39.198,509.625 37.8647,504.625 37,499.5C 35.9584,482.172 34.9584,464.838 34,447.5C 31.7136,441.355 30.2136,435.021 29.5,428.5C 32.3435,410.449 35.5101,392.449 39,374.5C 39.6424,365.488 39.4757,356.488 38.5,347.5C 38.88,342.099 39.7133,336.766 41,331.5C 46.0474,315.738 51.3808,300.071 57,284.5C 57.7716,273.366 59.4383,262.366 62,251.5C 68.5075,234.151 75.8408,217.151 84,200.5C 86.3987,190.189 88.732,179.856 91,169.5C 92.6667,166.167 94.3333,162.833 96,159.5C 104,148.167 112,136.833 120,125.5C 123.744,117.527 126.411,109.194 128,100.5C 133.62,89.5457 140.787,79.7123 149.5,71C 162.401,58.2283 176.401,46.895 191.5,37C 190.039,31.8526 191.372,27.5192 195.5,24C 203.253,21.0619 211.253,19.0619 219.5,18C 221.05,14.5538 223.717,12.5538 227.5,12C 232.869,12.1751 238.202,12.0084 243.5,11.5C 245.788,7.38293 249.288,5.0496 254,4.5C 263.407,8.11343 272.907,8.2801 282.5,5C 299.608,3.83631 316.608,4.66965 333.5,7.5C 338.401,5.9289 343.401,5.4289 348.5,6C 351.573,6.69716 353.573,8.53049 354.5,11.5C 359.786,11.8629 365.12,12.0296 370.5,12C 374.318,12.7445 377.318,14.7445 379.5,18C 386.925,19.2848 394.258,20.9515 401.5,23C 404,24.1667 405.833,26 407,28.5C 408.252,31.5552 408.752,34.5552 408.5,37.5C 415.269,42.099 421.602,47.2657 427.5,53C 431.5,54 435.5,55 439.5,56C 446.385,59.2598 449.551,64.7598 449,72.5C 456.101,80.2652 462.434,88.5986 468,97.5C 470.46,105.467 472.793,113.467 475,121.5C 482.944,133.776 491.277,145.776 500,157.5C 502.861,161.888 505.194,166.554 507,171.5C 508.739,180.15 510.406,188.816 512,197.5C 520.827,216.154 528.827,235.154 536,254.5C 537.667,265.503 539.333,276.503 541,287.5C 546.398,301.694 551.398,316.027 556,330.5C 557.417,336.084 558.25,341.751 558.5,347.5C 557.579,356.157 557.413,364.823 558,373.5C 561.555,391.607 564.722,409.773 567.5,428C 566.711,434.988 565.211,441.821 563,448.5C 561.956,462.814 561.29,477.148 561,491.5C 560.645,497.608 559.645,503.608 558,509.5C 553.364,516.813 548.698,524.146 544,531.5C 539.873,545.23 534.206,558.23 527,570.5C 521.022,576.28 513.855,579.78 505.5,581C 492.181,588.259 478.515,594.425 464.5,599.5 Z"/></g>
<g><path style="opacity:1" fill="#dfcab0" d="M 457.5,139.5 C 457.44,138.957 457.107,138.624 456.5,138.5C 455.203,140.973 455.203,143.307 456.5,145.5C 456.5,147.167 456.5,148.833 456.5,150.5C 456.785,152.288 456.452,153.955 455.5,155.5C 434.683,141.394 411.683,133.561 386.5,132C 367.064,130.881 347.73,131.714 328.5,134.5C 329.942,145.486 331.275,156.486 332.5,167.5C 339.106,166.128 345.772,165.128 352.5,164.5C 342.232,176.683 340.732,190.016 348,204.5C 360.335,219.478 375.168,222.645 392.5,214C 401.865,206.433 406.198,196.6 405.5,184.5C 408.521,187.366 411.021,190.7 413,194.5C 416.349,201.198 419.682,207.864 423,214.5C 423.667,209.5 423.667,204.5 423,199.5C 421.606,192.689 419.773,186.022 417.5,179.5C 419.308,179.491 420.975,179.991 422.5,181C 426.639,183.639 430.639,186.472 434.5,189.5C 435.539,184.09 434.373,179.09 431,174.5C 427.023,168.023 421.856,162.689 415.5,158.5C 414.571,157.311 414.238,155.978 414.5,154.5C 420.923,154.632 427.257,155.465 433.5,157C 444.063,160.284 454.396,164.118 464.5,168.5C 466.021,172.652 466.854,176.985 467,181.5C 467.765,192.534 467.599,203.534 466.5,214.5C 463.276,214.797 460.276,214.13 457.5,212.5C 456.34,216.459 456.173,220.459 457,224.5C 460.527,230.221 463.527,236.221 466,242.5C 466.847,245.588 466.347,248.421 464.5,251C 463.5,251.167 462.5,251.333 461.5,251.5C 458.488,250.828 455.488,250.161 452.5,249.5C 452.351,250.552 452.517,251.552 453,252.5C 463.132,264.251 465.298,277.417 459.5,292C 457.833,292.667 456.167,292.667 454.5,292C 451.035,289.537 447.869,286.704 445,283.5C 443.443,286.294 443.11,289.294 444,292.5C 446.883,303.643 450.05,314.643 453.5,325.5C 444.778,324.771 436.111,323.938 427.5,323C 424.035,327.931 421.368,333.264 419.5,339C 422.352,342.342 424.019,346.175 424.5,350.5C 421.819,350.538 419.319,349.871 417,348.5C 413.887,351.148 412.887,354.481 414,358.5C 419.241,368.213 421.574,378.546 421,389.5C 419.612,390.554 418.112,390.72 416.5,390C 413.667,387.167 410.833,384.333 408,381.5C 407.308,382.025 406.808,382.692 406.5,383.5C 413.643,413.644 408.81,441.644 392,467.5C 387.729,472.888 382.229,475.388 375.5,475C 375.345,464.937 375.345,454.77 375.5,444.5C 373.61,444.297 372.11,444.963 371,446.5C 368.593,459.879 364.926,472.879 360,485.5C 354.992,491.507 349.659,497.173 344,502.5C 342.268,502.266 341.434,501.266 341.5,499.5C 344.242,489.624 346.408,479.624 348,469.5C 348.89,466.294 348.557,463.294 347,460.5C 338.833,467.333 330.667,474.167 322.5,481C 315.356,484.824 307.856,487.657 300,489.5C 291.894,487.464 284.061,484.631 276.5,481C 269.274,473.937 261.607,467.437 253.5,461.5C 252.914,461.709 252.414,462.043 252,462.5C 251.333,466.167 251.333,469.833 252,473.5C 253.835,483.181 255.669,492.848 257.5,502.5C 255.61,502.703 254.11,502.037 253,500.5C 248.333,494.5 243.667,488.5 239,482.5C 236.894,475.357 234.727,468.357 232.5,461.5C 232.246,456.556 231.246,451.889 229.5,447.5C 228.878,444.224 226.878,442.891 223.5,443.5C 224.133,453.821 224.466,464.155 224.5,474.5C 220.869,474.84 217.536,474.006 214.5,472C 204.534,462.908 198.034,451.741 195,438.5C 192.795,429.434 191.295,420.268 190.5,411C 191.699,400.845 192.699,390.678 193.5,380.5C 189.188,382.289 185.521,385.123 182.5,389C 181.216,389.684 180.049,389.517 179,388.5C 178.333,386.167 178.333,383.833 179,381.5C 180.529,374.715 182.362,368.048 184.5,361.5C 187.269,356.34 186.769,351.34 183,346.5C 181.482,347.163 180.315,348.163 179.5,349.5C 178.022,349.762 176.689,349.429 175.5,348.5C 177.5,345.5 179.5,342.5 181.5,339.5C 180.004,335.647 178.338,331.981 176.5,328.5C 176.528,326.418 175.861,324.584 174.5,323C 168.97,322.672 163.637,323.172 158.5,324.5C 155.482,324.665 152.482,324.498 149.5,324C 149.043,323.586 148.709,323.086 148.5,322.5C 154.359,309.761 157.859,296.428 159,282.5C 158.396,280.314 157.23,280.148 155.5,282C 152.936,286.232 149.436,289.399 145,291.5C 143.347,291.18 142.347,290.18 142,288.5C 139.755,281.654 139.089,274.654 140,267.5C 143.001,261.023 146.168,254.69 149.5,248.5C 146.055,249.093 142.721,250.093 139.5,251.5C 137.971,251.471 136.804,250.804 136,249.5C 135.262,245.739 135.595,242.072 137,238.5C 139.758,233.925 142.258,229.258 144.5,224.5C 145.644,220.648 145.644,216.648 144.5,212.5C 142.447,212.402 140.78,213.069 139.5,214.5C 137.856,214.714 136.356,214.38 135,213.5C 134.168,200.133 134.501,186.799 136,173.5C 136.847,171.146 137.68,168.812 138.5,166.5C 148.923,161.191 159.923,157.358 171.5,155C 186.226,153.451 187.226,156.451 174.5,164C 168.221,170.392 163.888,177.892 161.5,186.5C 161.833,187.5 162.167,188.5 162.5,189.5C 167.303,186.529 171.97,183.362 176.5,180C 177.448,179.517 178.448,179.351 179.5,179.5C 176.982,186.237 175.149,193.237 174,200.5C 173.172,204.871 173.339,209.205 174.5,213.5C 178.893,205.197 183.393,196.863 188,188.5C 190.63,184.868 193.63,181.535 197,178.5C 197.399,178.728 197.565,179.062 197.5,179.5C 194.267,197.535 200.933,210.368 217.5,218C 238.357,222.49 252.19,214.657 259,194.5C 260.663,183.997 258.163,174.664 251.5,166.5C 257.191,166.033 262.858,167.033 268.5,169.5C 270.276,158.513 271.942,147.513 273.5,136.5C 248.725,131.357 223.725,130.191 198.5,133C 178.214,136.148 159.547,143.314 142.5,154.5C 142.255,149.946 142.588,145.446 143.5,141C 145.241,117.132 153.074,94.965 167,74.5C 167.195,72.7928 167.195,71.1261 167,69.5C 168.648,68.283 170.481,67.4497 172.5,67C 183.85,53.6563 197.517,43.323 213.5,36C 210.167,35.6667 206.833,35.3333 203.5,35C 202.376,34.7508 201.376,34.2508 200.5,33.5C 205.162,31.0625 210.162,29.5625 215.5,29C 221.914,28.871 228.247,28.2043 234.5,27C 232.5,25.6667 230.5,24.3333 228.5,23C 236.16,23.1528 243.827,23.1528 251.5,23C 254.551,21.6395 255.218,19.4728 253.5,16.5C 254,16.1667 254.5,15.8333 255,15.5C 259.045,16.8965 263.212,17.5632 267.5,17.5C 277.911,15.8111 288.411,14.8111 299,14.5C 310.366,15.1333 321.7,16.1333 333,17.5C 336.846,17.6688 340.513,17.0022 344,15.5C 344.5,15.8333 345,16.1667 345.5,16.5C 342.582,19.2307 342.915,21.3974 346.5,23C 354.496,22.8981 362.496,22.8981 370.5,23C 368.004,24.0804 365.67,25.4138 363.5,27C 371.419,28.2823 379.419,29.2823 387.5,30C 400.519,32.6533 400.519,34.32 387.5,35C 385.699,35.3173 385.366,35.984 386.5,37C 400.177,43.3429 412.177,52.0096 422.5,63C 427.234,63.6833 431.9,64.6833 436.5,66C 437.167,66.6667 437.833,67.3333 438.5,68C 436.013,69.792 433.346,71.292 430.5,72.5C 433.258,78.6883 437.425,83.6883 443,87.5C 442.845,89.8107 442.845,92.144 443,94.5C 447.327,103.814 450.66,113.481 453,123.5C 454.829,127.828 457.162,131.828 460,135.5C 460.49,136.793 460.657,138.127 460.5,139.5C 459.5,139.5 458.5,139.5 457.5,139.5 Z"/></g>
<g><path style="opacity:1" fill="#5a443a" d="M 140.5,98.5 C 138.949,110.684 135.782,122.684 131,134.5C 130.356,138.141 130.856,141.641 132.5,145C 129.716,148.787 126.549,152.287 123,155.5C 119.384,162.431 119.717,169.098 124,175.5C 123.769,188.16 123.769,200.827 124,213.5C 125.142,217.786 127.309,221.453 130.5,224.5C 124.321,234.943 123.155,245.943 127,257.5C 127.667,258.167 128.333,258.833 129,259.5C 127.57,272.436 128.904,285.103 133,297.5C 136.267,300.171 139.767,302.338 143.5,304C 132.347,329.526 140.513,340.026 168,335.5C 168.418,337.788 167.751,339.788 166,341.5C 163.915,349.762 166.415,356.095 173.5,360.5C 169.353,370.073 167.853,380.073 169,390.5C 170.274,396.727 174.107,400.061 180.5,400.5C 179.655,424.803 184.489,447.803 195,469.5C 199.167,473.667 203.333,477.833 207.5,482C 210.595,482.714 213.595,483.714 216.5,485C 220.213,485.405 223.879,485.405 227.5,485C 228.872,490.098 231.539,494.431 235.5,498C 236.448,498.483 237.448,498.649 238.5,498.5C 233.772,509.739 227.939,520.406 221,530.5C 217.119,537.595 213.785,544.929 211,552.5C 205.729,560.883 198.562,567.05 189.5,571C 174.726,575.722 160.726,582.055 147.5,590C 141.682,590.724 136.015,590.057 130.5,588C 114.028,580.094 97.3609,572.761 80.5,566C 76.7916,562.09 73.9583,557.59 72,552.5C 68.5885,541.931 64.5885,531.598 60,521.5C 57.6961,517.203 54.6961,513.536 51,510.5C 49.8035,507.911 48.8035,505.244 48,502.5C 46.8853,485.178 45.8853,467.844 45,450.5C 42.777,442.991 41.277,435.324 40.5,427.5C 43.4476,408.481 46.6143,389.481 50,370.5C 49.9609,359.501 49.9609,348.501 50,337.5C 55.2678,320.363 60.9344,303.363 67,286.5C 67.5156,274.256 69.5156,262.256 73,250.5C 79.7255,234.715 86.7255,219.049 94,203.5C 96.8476,193.259 99.1809,182.926 101,172.5C 103.667,167.833 106.333,163.167 109,158.5C 115.72,150.114 122.053,141.447 128,132.5C 132.785,121.339 136.951,110.006 140.5,98.5 Z"/></g>
<g><path style="opacity:1" fill="#d0b695" d="M 251.5,166.5 C 235.092,162.348 219.425,164.514 204.5,173C 201.642,174.694 199.309,176.861 197.5,179.5C 197.565,179.062 197.399,178.728 197,178.5C 193.63,181.535 190.63,184.868 188,188.5C 183.393,196.863 178.893,205.197 174.5,213.5C 173.339,209.205 173.172,204.871 174,200.5C 175.149,193.237 176.982,186.237 179.5,179.5C 178.448,179.351 177.448,179.517 176.5,180C 171.97,183.362 167.303,186.529 162.5,189.5C 162.167,188.5 161.833,187.5 161.5,186.5C 163.888,177.892 168.221,170.392 174.5,164C 187.226,156.451 186.226,153.451 171.5,155C 159.923,157.358 148.923,161.191 138.5,166.5C 135.904,167.265 133.237,167.599 130.5,167.5C 130.351,166.448 130.517,165.448 131,164.5C 134.438,160.559 138.271,157.225 142.5,154.5C 159.547,143.314 178.214,136.148 198.5,133C 223.725,130.191 248.725,131.357 273.5,136.5C 271.942,147.513 270.276,158.513 268.5,169.5C 262.858,167.033 257.191,166.033 251.5,166.5 Z"/></g>
<g><path style="opacity:1" fill="#d0b694" d="M 456.5,150.5 C 457.309,152.292 457.809,154.292 458,156.5C 461.722,158.721 464.556,161.721 466.5,165.5C 466.058,166.739 465.391,167.739 464.5,168.5C 454.396,164.118 444.063,160.284 433.5,157C 427.257,155.465 420.923,154.632 414.5,154.5C 414.238,155.978 414.571,157.311 415.5,158.5C 421.856,162.689 427.023,168.023 431,174.5C 434.373,179.09 435.539,184.09 434.5,189.5C 430.639,186.472 426.639,183.639 422.5,181C 420.975,179.991 419.308,179.491 417.5,179.5C 419.773,186.022 421.606,192.689 423,199.5C 423.667,204.5 423.667,209.5 423,214.5C 419.682,207.864 416.349,201.198 413,194.5C 411.021,190.7 408.521,187.366 405.5,184.5C 399.97,177.968 393.303,172.968 385.5,169.5C 382.167,168.5 378.833,167.5 375.5,166.5C 368.063,164.868 360.396,164.201 352.5,164.5C 345.772,165.128 339.106,166.128 332.5,167.5C 331.275,156.486 329.942,145.486 328.5,134.5C 347.73,131.714 367.064,130.881 386.5,132C 411.683,133.561 434.683,141.394 455.5,155.5C 456.452,153.955 456.785,152.288 456.5,150.5 Z"/></g>
<g><path style="opacity:1" fill="#5a443a" d="M 471.5,136.5 C 480.193,147.711 488.36,159.377 496,171.5C 498.232,182.92 500.898,194.254 504,205.5C 512.159,222.151 519.493,239.151 526,256.5C 527.788,266.106 529.121,275.772 530,285.5C 535.953,302.405 541.62,319.405 547,336.5C 547.199,347.839 547.199,359.173 547,370.5C 549.13,384.279 551.796,397.945 555,411.5C 556.351,419.797 556.684,428.13 556,436.5C 554.063,440.646 552.729,444.979 552,449.5C 551.667,460.833 551.333,472.167 551,483.5C 550.947,492.821 549.28,501.821 546,510.5C 541.593,514.915 537.926,519.915 535,525.5C 531,536.167 527,546.833 523,557.5C 519.281,565.277 513.114,569.444 504.5,570C 493.167,575.333 481.833,580.667 470.5,586C 463.794,589.096 456.794,590.429 449.5,590C 443.822,586.159 437.822,582.826 431.5,580C 420.841,576.447 410.508,572.114 400.5,567C 389.505,559.196 382.338,548.696 379,535.5C 373.448,526.897 368.281,518.064 363.5,509C 366.398,504.637 367.898,499.804 368,494.5C 369.595,491.879 371.095,489.213 372.5,486.5C 379.771,486.769 386.771,485.269 393.5,482C 399.104,477.07 403.938,471.57 408,465.5C 412.599,453.105 416.265,440.439 419,427.5C 420.613,418.828 420.779,410.162 419.5,401.5C 423.497,400.338 426.997,398.338 430,395.5C 432.52,383.826 431.686,372.492 427.5,361.5C 434.652,354.999 436.319,347.166 432.5,338C 433.058,335.942 434.391,334.775 436.5,334.5C 444.203,335.919 451.87,335.753 459.5,334C 464.716,327.946 465.883,321.113 463,313.5C 460.815,310.113 459.315,306.446 458.5,302.5C 462.846,302.104 466.68,300.437 470,297.5C 473.744,285.602 474.244,273.602 471.5,261.5C 479.457,249.378 479.124,237.378 470.5,225.5C 472.747,224.755 474.58,223.422 476,221.5C 477.931,214.301 478.765,206.968 478.5,199.5C 477.813,187.438 477.313,175.438 477,163.5C 475.798,160.226 474.798,156.893 474,153.5C 471.963,151.564 469.797,149.898 467.5,148.5C 470.362,145.07 471.695,141.07 471.5,136.5 Z"/></g>
<g><path style="opacity:1" fill="#847465" d="M 457.5,139.5 C 456.539,141.265 456.205,143.265 456.5,145.5C 455.203,143.307 455.203,140.973 456.5,138.5C 457.107,138.624 457.44,138.957 457.5,139.5 Z"/></g>
<g><path style="opacity:1" fill="#986a3b" d="M 251.5,166.5 C 258.163,174.664 260.663,183.997 259,194.5C 252.19,214.657 238.357,222.49 217.5,218C 200.933,210.368 194.267,197.535 197.5,179.5C 199.309,176.861 201.642,174.694 204.5,173C 219.425,164.514 235.092,162.348 251.5,166.5 Z"/></g>
<g><path style="opacity:1" fill="#98693a" d="M 352.5,164.5 C 360.396,164.201 368.063,164.868 375.5,166.5C 364.547,166.95 357.047,172.284 353,182.5C 351.548,200.377 359.714,209.211 377.5,209C 390.94,205.306 396.773,196.473 395,182.5C 392.743,177.423 389.576,173.09 385.5,169.5C 393.303,172.968 399.97,177.968 405.5,184.5C 406.198,196.6 401.865,206.433 392.5,214C 375.168,222.645 360.335,219.478 348,204.5C 340.732,190.016 342.232,176.683 352.5,164.5 Z"/></g>
<g><path style="opacity:1" fill="#302825" d="M 227.5,166.5 C 240.377,167.71 247.71,174.71 249.5,187.5C 247.736,203.719 238.736,210.885 222.5,209C 210.518,204.208 205.351,195.375 207,182.5C 210.861,173.117 217.694,167.784 227.5,166.5 Z"/></g>
<g><path style="opacity:1" fill="#302825" d="M 375.5,166.5 C 378.833,167.5 382.167,168.5 385.5,169.5C 389.576,173.09 392.743,177.423 395,182.5C 396.773,196.473 390.94,205.306 377.5,209C 359.714,209.211 351.548,200.377 353,182.5C 357.047,172.284 364.547,166.95 375.5,166.5 Z"/></g>
<g><path style="opacity:1" fill="#f2f2f2" d="M 231.5,177.5 C 237.806,176.707 240.639,179.374 240,185.5C 236.645,190.31 232.979,190.644 229,186.5C 227.93,182.858 228.764,179.858 231.5,177.5 Z"/></g>
<g><path style="opacity:1" fill="#f4f4f4" d="M 378.5,177.5 C 383.333,176.75 386.333,178.75 387.5,183.5C 384.939,190.041 381.106,191.041 376,186.5C 374.93,182.858 375.764,179.858 378.5,177.5 Z"/></g>
<g><path style="opacity:1" fill="#5c4d43" d="M 144.5,224.5 C 144.664,221.813 144.497,219.146 144,216.5C 142.89,214.963 141.39,214.297 139.5,214.5C 140.78,213.069 142.447,212.402 144.5,212.5C 145.644,216.648 145.644,220.648 144.5,224.5 Z"/></g>
<g><path style="opacity:1" fill="#40342d" d="M 176.5,328.5 C 175.151,326.319 173.318,324.652 171,323.5C 166.874,324.329 162.707,324.663 158.5,324.5C 163.637,323.172 168.97,322.672 174.5,323C 175.861,324.584 176.528,326.418 176.5,328.5 Z"/></g>
<g><path style="opacity:1" fill="#3f302d" d="M 287.5,332.5 C 301.429,331.77 315.095,333.27 328.5,337C 331.661,338.413 334.661,340.08 337.5,342C 342.097,347.189 344.763,353.189 345.5,360C 345.677,364.37 344.843,368.536 343,372.5C 341.065,375.371 339.399,378.371 338,381.5C 306.408,408.536 279.075,404.87 256,370.5C 251.598,353.803 257.432,342.303 273.5,336C 278.402,335.259 283.068,334.092 287.5,332.5 Z"/></g>
<g><path style="opacity:1" fill="#2d231e" d="M 184.5,361.5 C 184.665,357.818 184.499,354.152 184,350.5C 182.644,349.62 181.144,349.286 179.5,349.5C 180.315,348.163 181.482,347.163 183,346.5C 186.769,351.34 187.269,356.34 184.5,361.5 Z"/></g>
<g><path style="opacity:1" fill="#473532" d="M 292.5,429.5 C 299.987,429.058 307.32,429.892 314.5,432C 319.286,435.726 324.619,438.393 330.5,440C 320.025,442.928 309.358,444.762 298.5,445.5C 290.28,445.159 282.28,443.659 274.5,441C 273.289,440.107 273.289,439.274 274.5,438.5C 280.556,435.472 286.556,432.472 292.5,429.5 Z"/></g>
<g><path style="opacity:1" fill="#463931" d="M 229.5,447.5 C 231.246,451.889 232.246,456.556 232.5,461.5C 230.754,457.111 229.754,452.444 229.5,447.5 Z"/></g>
</svg>
