<?xml version="1.0" encoding="UTF-8"?>
<!DOCTYPE svg PUBLIC "-//W3C//DTD SVG 1.1//EN" "http://www.w3.org/Graphics/SVG/1.1/DTD/svg11.dtd">
<svg xmlns="http://www.w3.org/2000/svg" version="1.1" width="600px" height="600px" style="shape-rendering:geometricPrecision; text-rendering:geometricPrecision; image-rendering:optimizeQuality; fill-rule:evenodd; clip-rule:evenodd" xmlns:xlink="http://www.w3.org/1999/xlink">
<g><path style="opacity:0.961" fill="#030302" d="M 36.5,-0.5 C 45.8333,-0.5 55.1667,-0.5 64.5,-0.5C 76.5075,4.33871 87.8408,10.5054 98.5,18C 127.381,39.9458 155.714,62.6124 183.5,86C 185,86.1667 186.5,86.3333 188,86.5C 199.646,84.7137 211.146,82.2137 222.5,79C 230.941,77.3257 239.441,76.159 248,75.5C 265.268,77.7416 282.602,79.4082 300,80.5C 317.555,79.368 335.055,77.7013 352.5,75.5C 369.462,77.0733 386.128,80.24 402.5,85C 409.834,87.8101 416.501,86.8101 422.5,82C 451.778,55.3783 482.778,31.045 515.5,9C 522.136,5.51259 528.803,2.34593 535.5,-0.5C 544.833,-0.5 554.167,-0.5 563.5,-0.5C 575.847,5.46507 584.014,15.1317 588,28.5C 589.976,35.3787 591.309,42.3787 592,49.5C 592.782,103.81 584.782,156.81 568,208.5C 562.727,224.319 557.06,239.986 551,255.5C 546.508,268.285 544.008,281.451 543.5,295C 550.646,363.24 536.146,426.407 500,484.5C 474.527,522.315 441.36,551.148 400.5,571C 386.453,583.854 370.453,593.354 352.5,599.5C 317.5,599.5 282.5,599.5 247.5,599.5C 230.685,593.759 215.685,584.925 202.5,573C 126.169,534.586 79.0027,473.419 61,389.5C 54.2501,358.59 52.7501,327.423 56.5,296C 56.041,282.119 53.541,268.619 49,255.5C 27.3468,203.22 14.0135,148.887 9,92.5C 7.76977,78.1827 7.43644,63.8494 8,49.5C 8.71187,34.6938 13.3785,21.3605 22,9.5C 26.2907,5.27999 31.1241,1.94666 36.5,-0.5 Z"/></g>
<g><path style="opacity:1" fill="#ccb794" d="M 41.5,8.5 C 56.5478,7.34846 70.2144,11.1818 82.5,20C 114.606,42.4305 145.273,66.7638 174.5,93C 178.547,95.8716 183.047,97.0383 188,96.5C 201.903,94.2345 215.737,91.4012 229.5,88C 235.632,87.0889 241.799,86.5889 248,86.5C 265.304,88.3856 282.638,90.0522 300,91.5C 313.865,90.2878 327.698,88.7878 341.5,87C 362.697,86.2332 383.363,89.2332 403.5,96C 413.763,98.1852 422.763,95.8518 430.5,89C 459.063,63.4283 489.063,39.7616 520.5,18C 526.93,14.4514 533.596,11.4514 540.5,9C 556.649,5.49397 568.482,10.994 576,25.5C 578.442,30.933 580.108,36.5997 581,42.5C 583.211,98.2327 575.544,152.566 558,205.5C 551.894,223.819 545.394,241.985 538.5,260C 535.155,270.746 533.489,281.746 533.5,293C 538.345,338.048 533.178,381.882 518,424.5C 517.137,408.854 514.471,393.52 510,378.5C 510.803,353.513 511.136,328.513 511,303.5C 511.109,294.806 507.942,287.64 501.5,282C 500.552,281.517 499.552,281.351 498.5,281.5C 498.106,275.703 496.272,270.37 493,265.5C 478.183,247.829 460.016,234.663 438.5,226C 433.322,223.607 427.988,221.607 422.5,220C 417.327,215.91 411.66,212.577 405.5,210C 398.5,203 391.5,196 384.5,189C 370.368,179.656 355.035,176.989 338.5,181C 319.377,188.46 307.877,202.293 304,222.5C 301.614,236.74 299.948,251.074 299,265.5C 297.895,247.663 295.562,229.997 292,212.5C 286.24,195.197 274.407,184.697 256.5,181C 230.157,176.877 209.824,185.877 195.5,208C 188.263,211.568 181.263,215.568 174.5,220C 147.83,227.74 125.33,241.907 107,262.5C 103.097,268.31 100.264,274.643 98.5,281.5C 91.884,286.062 88.384,292.395 88,300.5C 87.189,324.028 87.689,347.528 89.5,371C 87.7974,383.181 85.9641,395.347 84,407.5C 83.6667,414.167 83.3333,420.833 83,427.5C 67.0434,384.155 61.5434,339.489 66.5,293.5C 66.2535,280.512 64.0868,267.845 60,255.5C 39.3066,205.726 25.9733,154.06 20,100.5C 18.1939,79.4756 18.1939,58.4756 20,37.5C 22.5051,24.1893 29.6717,14.5227 41.5,8.5 Z"/></g>
<g><path style="opacity:1" fill="#0d0c0a" d="M 45.5,28.5 C 53.9734,27.5982 61.9734,29.0982 69.5,33C 102.919,56.4181 131.752,84.5848 156,117.5C 168.093,139.734 167.093,161.4 153,182.5C 141.03,201.141 126.863,217.974 110.5,233C 103.93,238.968 96.2637,241.301 87.5,240C 86.1667,239.333 84.8333,238.667 83.5,238C 73.3437,221.851 65.177,204.685 59,186.5C 44.5336,144.335 36.0336,101.001 33.5,56.5C 33.4758,48.8226 34.9758,41.4893 38,34.5C 40.1141,31.8792 42.6141,29.8792 45.5,28.5 Z"/></g>
<g><path style="opacity:1" fill="#0d0c0a" d="M 540.5,28.5 C 552.511,25.6462 560.345,29.9796 564,41.5C 565.908,66.0357 564.241,90.369 559,114.5C 552.071,154.287 539.737,192.287 522,228.5C 519.888,232.278 517.388,235.778 514.5,239C 506.144,241.661 498.477,240.328 491.5,235C 467.315,214.797 448.815,190.297 436,161.5C 432.631,146.702 434.631,132.702 442,119.5C 465.5,86.6667 493.667,58.5 526.5,35C 531.147,32.5056 535.814,30.339 540.5,28.5 Z"/></g>
<g><path style="opacity:1" fill="#333639" d="M 48.5,33.5 C 54.8897,33.4308 60.8897,34.9308 66.5,38C 101.667,61.1667 130.833,90.3333 154,125.5C 160.064,137.399 161.064,149.733 157,162.5C 144.072,189.204 126.238,212.037 103.5,231C 100.618,232.608 97.6179,233.941 94.5,235C 91.7431,235.782 89.2431,235.282 87,233.5C 75.4879,213.976 66.4879,193.309 60,171.5C 48.2701,134.017 41.1035,95.6841 38.5,56.5C 38.5736,49.8023 40.0736,43.469 43,37.5C 44.4998,35.5313 46.3331,34.198 48.5,33.5 Z"/></g>
<g><path style="opacity:1" fill="#333639" d="M 543.5,33.5 C 554.323,33.1544 559.823,38.4878 560,49.5C 558.502,98.6586 549.168,146.325 532,192.5C 526.742,206.349 520.409,219.682 513,232.5C 511.406,234.297 509.406,235.297 507,235.5C 498.862,233.014 491.695,228.847 485.5,223C 468.238,205.74 454.071,186.24 443,164.5C 437.29,149.036 438.956,134.369 448,120.5C 471.582,88.2508 499.749,60.7508 532.5,38C 536.157,36.1776 539.824,34.6776 543.5,33.5 Z"/></g>
<g><path style="opacity:1" fill="#cab694" d="M 484.5,486.5 C 491.483,475.21 497.983,463.544 504,451.5C 510.187,437.469 512.187,422.802 510,407.5C 507.876,399.218 505.876,390.884 504,382.5C 503.383,361.81 503.883,341.143 505.5,320.5C 505.927,310.493 504.427,300.826 501,291.5C 498.997,287.798 496.164,286.798 492.5,288.5C 492.482,279.797 489.649,272.13 484,265.5C 465.742,246.61 443.909,233.444 418.5,226C 412.165,221.497 405.498,217.497 398.5,214C 392.476,206.978 386.143,200.311 379.5,194C 362.953,184.404 346.286,184.071 329.5,193C 318.452,202.257 311.952,214.09 310,228.5C 306.958,250.084 304.625,271.751 303,293.5C 302.118,296.789 301.452,300.123 301,303.5C 299.667,306.167 298.333,306.167 297,303.5C 293.852,285.649 291.852,267.649 291,249.5C 289.431,237.42 287.431,225.42 285,213.5C 275.963,192.89 260.13,184.057 237.5,187C 227.728,189.219 219.061,193.553 211.5,200C 208.21,205.225 204.21,209.892 199.5,214C 192.502,217.497 185.835,221.497 179.5,226C 154.098,233.433 132.265,246.6 114,265.5C 108.643,271.878 105.809,279.211 105.5,287.5C 102.215,287.269 99.7155,288.603 98,291.5C 95.6597,295.521 94.3264,299.854 94,304.5C 94.2283,330.503 94.5616,356.503 95,382.5C 86.343,409.528 87.843,435.861 99.5,461.5C 93.2421,452.955 89.7421,443.289 89,432.5C 88.8333,428.667 88.6667,424.833 88.5,421C 89.7385,404.237 91.7385,387.57 94.5,371C 92.7546,348.192 92.2546,325.359 93,302.5C 93.2864,296.493 95.453,291.327 99.5,287C 101.134,286.506 102.801,286.34 104.5,286.5C 104.511,277.807 107.345,270.141 113,263.5C 130.752,245.2 151.918,232.367 176.5,225C 183.243,220.6 190.243,216.6 197.5,213C 202.057,208.946 206.057,204.446 209.5,199.5C 222.548,187.655 237.882,183.155 255.5,186C 269.131,188.643 278.964,196.143 285,208.5C 287.751,218.006 289.751,227.673 291,237.5C 292.722,254.494 294.388,271.494 296,288.5C 297.982,307.13 299.982,307.13 302,288.5C 303.674,267.082 306.007,245.749 309,224.5C 318.702,188.231 341.202,176.731 376.5,190C 383.026,194.161 388.526,199.328 393,205.5C 395.869,208.704 399.035,211.537 402.5,214C 409.324,216.909 415.658,220.576 421.5,225C 440.781,231.472 458.448,240.805 474.5,253C 483.003,259.854 489.17,268.354 493,278.5C 493.497,281.146 493.664,283.813 493.5,286.5C 498.133,285.458 501.299,287.125 503,291.5C 504.632,296.03 505.632,300.696 506,305.5C 505.823,330.504 505.49,355.504 505,380.5C 509.045,394.059 511.545,407.893 512.5,422C 512.465,432.305 510.299,442.139 506,451.5C 500.313,464.234 493.146,475.901 484.5,486.5 Z"/></g>
<g><path style="opacity:1" fill="#ab9f8b" d="M 492.5,288.5 C 489.885,290.379 487.719,292.712 486,295.5C 474.966,316.055 461.133,334.555 444.5,351C 426.196,364.746 405.53,370.412 382.5,368C 376.76,368.643 371.26,370.143 366,372.5C 359.14,365.973 351.973,359.806 344.5,354C 321.603,339.586 297.27,336.586 271.5,345C 262.643,349.205 254.309,354.205 246.5,360C 242.289,364.547 237.789,368.714 233,372.5C 227.951,370.557 222.784,369.057 217.5,368C 206.13,367.826 194.797,367.159 183.5,366C 166.073,360.533 151.573,350.699 140,336.5C 130.17,322.844 120.837,308.844 112,294.5C 110.272,291.67 108.105,289.337 105.5,287.5C 105.809,279.211 108.643,271.878 114,265.5C 132.265,246.6 154.098,233.433 179.5,226C 185.835,221.497 192.502,217.497 199.5,214C 204.21,209.892 208.21,205.225 211.5,200C 219.061,193.553 227.728,189.219 237.5,187C 260.13,184.057 275.963,192.89 285,213.5C 287.431,225.42 289.431,237.42 291,249.5C 291.852,267.649 293.852,285.649 297,303.5C 298.333,306.167 299.667,306.167 301,303.5C 301.452,300.123 302.118,296.789 303,293.5C 304.625,271.751 306.958,250.084 310,228.5C 311.952,214.09 318.452,202.257 329.5,193C 346.286,184.071 362.953,184.404 379.5,194C 386.143,200.311 392.476,206.978 398.5,214C 405.498,217.497 412.165,221.497 418.5,226C 443.909,233.444 465.742,246.61 484,265.5C 489.649,272.13 492.482,279.797 492.5,288.5 Z"/></g>
<g><path style="opacity:1" fill="#010101" d="M 210.5,260.5 C 220.29,259.454 229.623,260.954 238.5,265C 251.636,277.416 256.969,292.416 254.5,310C 228.095,312.056 205.595,303.556 187,284.5C 184.734,280.769 183.734,276.769 184,272.5C 187.236,269.129 191.069,266.629 195.5,265C 200.664,263.631 205.664,262.131 210.5,260.5 Z"/></g>
<g><path style="opacity:1" fill="#010101" d="M 372.5,260.5 C 387.56,259.808 401.393,263.475 414,271.5C 414.837,275.295 414.504,278.961 413,282.5C 398.878,298.648 381.045,308.148 359.5,311C 354.051,311.896 348.718,311.563 343.5,310C 342.439,308.151 341.773,306.151 341.5,304C 343.126,294.455 345.96,285.288 350,276.5C 355.225,267.748 362.725,262.414 372.5,260.5 Z"/></g>
<g><path style="opacity:1" fill="#f1f1f1" d="M 232.5,274.5 C 238.82,274.32 241.32,277.32 240,283.5C 236.667,287.5 233.333,287.5 230,283.5C 228.927,279.9 229.76,276.9 232.5,274.5 Z"/></g>
<g><path style="opacity:1" fill="#e8e8e8" d="M 360.5,274.5 C 366.806,273.707 369.639,276.374 369,282.5C 365.693,287.298 362.026,287.631 358,283.5C 356.927,279.9 357.76,276.9 360.5,274.5 Z"/></g>
<g><path style="opacity:1" fill="#eae0d2" d="M 105.5,287.5 C 108.105,289.337 110.272,291.67 112,294.5C 120.837,308.844 130.17,322.844 140,336.5C 151.573,350.699 166.073,360.533 183.5,366C 194.797,367.159 206.13,367.826 217.5,368C 222.784,369.057 227.951,370.557 233,372.5C 237.789,368.714 242.289,364.547 246.5,360C 254.309,354.205 262.643,349.205 271.5,345C 297.27,336.586 321.603,339.586 344.5,354C 351.973,359.806 359.14,365.973 366,372.5C 371.26,370.143 376.76,368.643 382.5,368C 405.53,370.412 426.196,364.746 444.5,351C 461.133,334.555 474.966,316.055 486,295.5C 487.719,292.712 489.885,290.379 492.5,288.5C 496.164,286.798 498.997,287.798 501,291.5C 504.427,300.826 505.927,310.493 505.5,320.5C 503.883,341.143 503.383,361.81 504,382.5C 505.876,390.884 507.876,399.218 510,407.5C 512.187,422.802 510.187,437.469 504,451.5C 497.983,463.544 491.483,475.21 484.5,486.5C 461.446,518.718 432.113,543.551 396.5,561C 365.351,588.156 329.018,599.49 287.5,595C 257.186,594.458 230.853,584.124 208.5,564C 160.674,542.006 124.34,507.839 99.5,461.5C 87.843,435.861 86.343,409.528 95,382.5C 94.5616,356.503 94.2283,330.503 94,304.5C 94.3264,299.854 95.6597,295.521 98,291.5C 99.7155,288.603 102.215,287.269 105.5,287.5 Z"/></g>
<g><path style="opacity:1" fill="#000000" d="M 287.5,390.5 C 304.843,388.723 321.176,391.889 336.5,400C 344.567,405.667 348.567,413.501 348.5,423.5C 346.622,454.379 330.289,470.379 299.5,471.5C 268.483,470.317 252.15,454.15 250.5,423C 250.548,411.634 255.548,403.301 265.5,398C 272.708,394.765 280.042,392.265 287.5,390.5 Z"/></g>
<g><path style="opacity:1" fill="#3b3330" d="M 252.5,506.5 C 255.273,518.633 260.106,529.966 267,540.5C 282.074,555.654 299.574,559.154 319.5,551C 329.983,544.851 337.15,536.017 341,524.5C 343.168,518.469 345.001,512.469 346.5,506.5C 358.697,507.833 368.197,503.5 375,493.5C 383.765,477.874 389.765,461.207 393,443.5C 396.329,438.001 398.829,438.335 400.5,444.5C 397.582,466.093 390.415,486.093 379,504.5C 373.333,511.5 367,517.833 360,523.5C 352.247,533.924 343.747,543.757 334.5,553C 323.58,560.138 311.58,563.305 298.5,562.5C 280.878,563.24 266.378,556.906 255,543.5C 245.819,530.311 235.152,518.311 223,507.5C 208.899,487.788 200.899,465.788 199,441.5C 202.159,438.659 204.492,439.326 206,443.5C 209.642,464.765 217.642,484.098 230,501.5C 236.866,505.642 244.366,507.308 252.5,506.5 Z"/></g>
<g><path style="opacity:1" fill="#e46c9b" d="M 346.5,506.5 C 345.001,512.469 343.168,518.469 341,524.5C 337.15,536.017 329.983,544.851 319.5,551C 299.574,559.154 282.074,555.654 267,540.5C 260.106,529.966 255.273,518.633 252.5,506.5C 264.139,503.347 275.805,499.847 287.5,496C 294.5,494 301.5,494 308.5,496C 321.43,498.976 334.097,502.476 346.5,506.5 Z"/></g>
</svg>
