<?xml version="1.0" encoding="UTF-8"?>
<!DOCTYPE svg PUBLIC "-//W3C//DTD SVG 1.1//EN" "http://www.w3.org/Graphics/SVG/1.1/DTD/svg11.dtd">
<svg xmlns="http://www.w3.org/2000/svg" version="1.1" width="600px" height="600px" style="shape-rendering:geometricPrecision; text-rendering:geometricPrecision; image-rendering:optimizeQuality; fill-rule:evenodd; clip-rule:evenodd" xmlns:xlink="http://www.w3.org/1999/xlink">
<g><path style="opacity:0.968" fill="#020101" d="M 599.5,208.5 C 599.5,227.833 599.5,247.167 599.5,266.5C 584.851,310.465 564.351,351.465 538,389.5C 529.589,401.248 520.423,412.415 510.5,423C 479.493,449.873 454.66,445.04 436,408.5C 432.525,417.593 429.858,426.927 428,436.5C 424.489,459.096 421.489,481.763 419,504.5C 417.038,523.914 409.538,540.747 396.5,555C 383.505,563.697 369.505,565.697 354.5,561C 347.365,558.848 340.532,556.015 334,552.5C 311.007,556.369 288.007,556.369 265,552.5C 248.946,562.426 231.779,565.259 213.5,561C 201.027,555.578 192.527,546.412 188,533.5C 184.399,523.762 181.732,513.762 180,503.5C 177.608,482.465 174.942,461.465 172,440.5C 170.234,429.43 167.234,418.764 163,408.5C 147.546,441.881 124.712,448.381 94.5,428C 72.2028,405.377 53.3695,380.211 38,352.5C 22.3806,324.607 9.5473,295.607 -0.5,265.5C -0.5,246.5 -0.5,227.5 -0.5,208.5C 19.53,170.271 46.1967,137.105 79.5,109C 106.175,86.2441 136.675,71.7441 171,65.5C 185.487,56.6757 200.987,50.1757 217.5,46C 273.585,31.7583 329.585,32.0917 385.5,47C 400.566,51.5201 414.9,57.6868 428.5,65.5C 462.58,71.8711 492.914,86.3711 519.5,109C 552.803,137.105 579.47,170.271 599.5,208.5 Z"/></g>
<g><path style="opacity:1" fill="#2e2624" d="M 424.5,78.5 C 424.248,81.3198 424.748,83.9865 426,86.5C 458.508,115.348 471.174,151.348 464,194.5C 462.846,202.935 461.18,211.269 459,219.5C 450.727,243.653 442.061,267.653 433,291.5C 429.505,306.363 428.672,321.363 430.5,336.5C 426.473,338.02 423.14,340.52 420.5,344C 413.816,348.094 406.649,350.927 399,352.5C 391.945,352.423 386.612,349.423 383,343.5C 376.27,329.437 366.103,318.603 352.5,311C 349.447,309.928 347.447,310.928 346.5,314C 365.036,343.905 381.869,374.738 397,406.5C 411.822,443.865 413.489,481.865 402,520.5C 399.236,530.459 394.069,538.959 386.5,546C 375.444,551.524 364.111,551.857 352.5,547C 337.594,540.41 323.428,532.577 310,523.5C 307.723,522.63 305.389,521.963 303,521.5C 301.624,521.684 300.791,522.351 300.5,523.5C 299.833,523.5 299.167,523.5 298.5,523.5C 298.209,522.351 297.376,521.684 296,521.5C 293.11,522.13 290.276,522.963 287.5,524C 275.491,531.014 263.491,538.014 251.5,545C 242.537,548.86 233.203,550.526 223.5,550C 211.93,547.104 204.097,539.937 200,528.5C 182.847,480.102 186.513,433.435 211,388.5C 224.656,362.512 239.323,337.179 255,312.5C 254.848,310.481 254.348,308.481 253.5,306.5C 240.784,311.458 230.284,319.458 222,330.5C 218.919,336.331 215.585,341.998 212,347.5C 205.582,352.489 198.749,353.323 191.5,350C 183.669,345.644 176.002,341.144 168.5,336.5C 171.497,315.479 168.997,295.145 161,275.5C 151.005,252.849 143.005,229.515 137,205.5C 125.655,158.504 137.655,118.837 173,86.5C 174.252,83.9865 174.752,81.3198 174.5,78.5C 203.425,61.4729 234.758,51.9729 268.5,50C 302.129,47.0997 335.463,49.0997 368.5,56C 388.505,60.494 407.171,67.994 424.5,78.5 Z"/></g>
<g><path style="opacity:1" fill="#11100f" d="M 174.5,78.5 C 174.752,81.3198 174.252,83.9865 173,86.5C 137.655,118.837 125.655,158.504 137,205.5C 143.005,229.515 151.005,252.849 161,275.5C 168.997,295.145 171.497,315.479 168.5,336.5C 167.542,336.953 166.708,337.619 166,338.5C 164.696,363.402 158.696,387.068 148,409.5C 135.495,430.556 119.995,433.056 101.5,417C 81.2489,396.087 64.0822,372.921 50,347.5C 33.0466,317.94 19.7132,286.94 10,254.5C 6.13182,240.263 6.79849,226.263 12,212.5C 37.793,165.707 72.9596,127.54 117.5,98C 132.384,89.7243 148.051,83.391 164.5,79C 167.817,78.5017 171.15,78.335 174.5,78.5 Z"/></g>
<g><path style="opacity:1" fill="#11100f" d="M 424.5,78.5 C 435.607,79.0337 446.273,81.5337 456.5,86C 481.198,96.3389 503.198,110.672 522.5,129C 549.059,153.988 570.893,182.488 588,214.5C 592.295,227.705 592.628,241.038 589,254.5C 571.991,310.196 545.324,360.529 509,405.5C 503.096,412.074 496.596,417.908 489.5,423C 474.201,430.783 462.034,427.283 453,412.5C 445.565,400.105 440.565,386.772 438,372.5C 436.053,361.208 434.387,349.874 433,338.5C 432.292,337.619 431.458,336.953 430.5,336.5C 428.672,321.363 429.505,306.363 433,291.5C 442.061,267.653 450.727,243.653 459,219.5C 461.18,211.269 462.846,202.935 464,194.5C 471.174,151.348 458.508,115.348 426,86.5C 424.748,83.9865 424.248,81.3198 424.5,78.5 Z"/></g>
<g><path style="opacity:1" fill="#cba56f" d="M 216.5,191.5 C 224.507,191.334 232.507,191.5 240.5,192C 255.614,194.393 260.448,202.56 255,216.5C 253.745,217.211 252.579,218.044 251.5,219C 244.8,218.997 238.134,218.33 231.5,217C 210.669,215.082 190.503,217.916 171,225.5C 164.899,223.442 163.899,219.775 168,214.5C 182.212,202.644 198.378,194.977 216.5,191.5 Z"/></g>
<g><path style="opacity:1" fill="#cba570" d="M 359.5,191.5 C 384.902,189.765 407.902,196.265 428.5,211C 432.927,213.685 434.76,217.518 434,222.5C 432.972,224.516 431.305,225.516 429,225.5C 408.823,217.831 387.989,214.998 366.5,217C 360.872,218.329 355.205,218.995 349.5,219C 343.636,215.434 341.47,210.267 343,203.5C 346.7,196.959 352.2,192.959 359.5,191.5 Z"/></g>
<g><path style="opacity:1" fill="#834d28" d="M 207.5,224.5 C 226.694,222.505 239.528,230.505 246,248.5C 248.481,267.715 240.648,280.548 222.5,287C 202.783,289.562 189.95,281.396 184,262.5C 182.204,243.811 190.037,231.144 207.5,224.5 Z"/></g>
<g><path style="opacity:1" fill="#834d28" d="M 375.5,226.5 C 395.451,223.712 408.617,231.712 415,250.5C 417.357,270.125 409.191,282.958 390.5,289C 371.393,290.885 358.893,282.719 353,264.5C 351.035,246.081 358.535,233.414 375.5,226.5 Z"/></g>
<g><path style="opacity:1" fill="#010100" d="M 211.5,232.5 C 230.087,232.706 238.92,242.039 238,260.5C 233.967,274.187 224.801,280.353 210.5,279C 199.092,275.587 192.759,267.921 191.5,256C 193.021,243.655 199.687,235.822 211.5,232.5 Z"/></g>
<g><path style="opacity:1" fill="#010100" d="M 378.5,234.5 C 399.946,234.106 409.112,244.439 406,265.5C 397.793,280.792 385.96,284.625 370.5,277C 357.871,264.594 357.538,251.928 369.5,239C 372.592,237.454 375.592,235.954 378.5,234.5 Z"/></g>
<g><path style="opacity:1" fill="#f1f1f1" d="M 222.5,241.5 C 230.868,242.349 233.701,246.683 231,254.5C 226.977,259.179 222.643,259.512 218,255.5C 214.999,249.157 216.499,244.49 222.5,241.5 Z"/></g>
<g><path style="opacity:1" fill="#f2f2f2" d="M 391.5,241.5 C 399.868,242.349 402.701,246.683 400,254.5C 395.977,259.179 391.643,259.512 387,255.5C 383.998,249.2 385.498,244.533 391.5,241.5 Z"/></g>
<g><path style="opacity:1" fill="#caa56f" d="M 237.5,321.5 C 238.978,321.238 240.311,321.571 241.5,322.5C 239.494,325.841 237.494,329.175 235.5,332.5C 234.675,333.386 233.675,333.719 232.5,333.5C 232.874,338.489 230.874,341.822 226.5,343.5C 223.356,351.129 220.189,358.796 217,366.5C 216.092,368.439 214.592,369.439 212.5,369.5C 208.36,382.272 202.693,394.272 195.5,405.5C 190.417,419.164 186.584,433.164 184,447.5C 180.14,424.394 173.64,402.06 164.5,380.5C 167.083,368.252 169.25,355.919 171,343.5C 173.164,345.48 174.664,347.813 175.5,350.5C 181.227,352.019 186.727,354.019 192,356.5C 207.258,359.997 217.758,354.664 223.5,340.5C 228.163,334.225 232.83,327.892 237.5,321.5 Z"/></g>
<g><path style="opacity:1" fill="#bd9967" d="M 363.5,327.5 C 370.497,332.006 374.997,338.34 377,346.5C 380.806,349.128 383.639,352.462 385.5,356.5C 389.632,357.213 393.799,357.88 398,358.5C 409.629,357.849 419.629,353.515 428,345.5C 430.054,357.486 432.22,369.486 434.5,381.5C 424.887,403.949 418.387,427.282 415,451.5C 413.745,442.057 411.911,432.724 409.5,423.5C 404.957,409.792 399.957,396.459 394.5,383.5C 392.408,383.439 390.908,382.439 390,380.5C 384.885,368.925 379.718,357.259 374.5,345.5C 373.325,345.719 372.325,345.386 371.5,344.5C 370.195,341.567 369.195,338.567 368.5,335.5C 364.486,334.457 362.82,331.791 363.5,327.5 Z"/></g>
<g><path style="opacity:1" fill="#000000" d="M 284.5,436.5 C 296.547,436.135 308.547,436.635 320.5,438C 347.09,445.42 353.59,461.253 340,485.5C 311.19,513.082 283.523,512.082 257,482.5C 246.996,463.048 251.83,448.881 271.5,440C 275.848,438.417 280.182,437.251 284.5,436.5 Z"/></g>
<g><path style="opacity:1" fill="#10100f" d="M 298.5,523.5 C 299.167,523.5 299.833,523.5 300.5,523.5C 300.5,524.5 300.5,525.5 300.5,526.5C 303.187,526.336 305.854,526.503 308.5,527C 316.094,530.935 323.427,535.268 330.5,540C 311.872,541.586 293.205,541.919 274.5,541C 273.062,540.781 271.729,540.281 270.5,539.5C 278.586,532.472 287.92,528.138 298.5,526.5C 298.5,525.5 298.5,524.5 298.5,523.5 Z"/></g>
</svg>
