<?xml version="1.0" encoding="UTF-8"?>
<!DOCTYPE svg PUBLIC "-//W3C//DTD SVG 1.1//EN" "http://www.w3.org/Graphics/SVG/1.1/DTD/svg11.dtd">
<svg xmlns="http://www.w3.org/2000/svg" version="1.1" width="600px" height="600px" style="shape-rendering:geometricPrecision; text-rendering:geometricPrecision; image-rendering:optimizeQuality; fill-rule:evenodd; clip-rule:evenodd" xmlns:xlink="http://www.w3.org/1999/xlink">
<g><path style="opacity:0.968" fill="#060302" d="M 599.5,259.5 C 599.5,277.5 599.5,295.5 599.5,313.5C 571.119,363.722 532.786,404.888 484.5,437C 456.938,454.907 432.105,451.74 410,427.5C 407.057,435.662 403.724,443.662 400,451.5C 400.117,459.667 400.617,467.833 401.5,476C 402.236,495.584 396.736,513.084 385,528.5C 373.904,540.58 360.07,546.58 343.5,546.5C 335.207,546.414 327.207,544.914 319.5,542C 311.151,537.812 303.484,532.646 296.5,526.5C 285.417,536.708 272.417,543.208 257.5,546C 220.32,545.495 199.487,526.662 195,489.5C 194.212,476.311 194.379,463.144 195.5,450C 193.004,443.18 190.504,436.347 188,429.5C 164.752,452.341 139.585,454.508 112.5,436C 65.3251,403.72 27.6584,362.887 -0.5,313.5C -0.5,296.167 -0.5,278.833 -0.5,261.5C 14.512,228.325 32.6786,196.992 54,167.5C 73.4606,140.259 94.1272,113.926 116,88.5C 128.856,76.316 143.356,66.4827 159.5,59C 180.658,52.8612 201.658,46.1946 222.5,39C 264.511,29.7191 306.844,28.0524 349.5,34C 368.794,36.947 387.294,42.447 405,50.5C 410.191,49.661 415.358,50.161 420.5,52C 453.657,61.8281 480.49,80.6615 501,108.5C 527.996,141.498 552.663,176.165 575,212.5C 584.246,227.661 592.413,243.328 599.5,259.5 Z"/></g>
<g><path style="opacity:1" fill="#543521" d="M 281.5,41.5 C 292.833,40.1667 304.167,40.1667 315.5,41.5C 311.298,41.1832 307.298,41.5166 303.5,42.5C 299.5,42.5 295.5,42.5 291.5,42.5C 288.375,41.5206 285.042,41.1872 281.5,41.5 Z"/></g>
<g><path style="opacity:1" fill="#c37d4c" d="M 281.5,41.5 C 285.042,41.1872 288.375,41.5206 291.5,42.5C 279.919,43.2051 270.752,48.2051 264,57.5C 263.027,59.3921 262.36,61.3921 262,63.5C 261.333,73.5 261.333,83.5 262,93.5C 264.687,131.145 267.021,168.812 269,206.5C 272.884,236.364 268.884,265.03 257,292.5C 241.563,320.937 226.563,349.604 212,378.5C 205.618,394.363 200.952,410.696 198,427.5C 196.095,421.367 193.929,415.367 191.5,409.5C 176.945,366.334 164.111,322.668 153,278.5C 148.406,256.865 144.073,235.198 140,213.5C 137.412,197.602 135.912,181.602 135.5,165.5C 134.858,135.261 143.691,108.261 162,84.5C 170.918,74.7297 181.085,66.7297 192.5,60.5C 220.811,48.0571 250.477,41.7237 281.5,41.5 Z"/></g>
<g><path style="opacity:1" fill="#c37d4c" d="M 303.5,42.5 C 307.298,41.5166 311.298,41.1832 315.5,41.5C 346.347,41.8803 375.681,48.547 403.5,61.5C 436.322,79.2277 454.822,106.894 459,144.5C 460.36,166.957 459.36,189.29 456,211.5C 446.213,269.648 431.88,326.648 413,382.5C 411.595,391.209 409.095,399.543 405.5,407.5C 402.773,415.514 399.939,423.514 397,431.5C 393.872,412.989 388.872,394.989 382,377.5C 369.097,351.357 355.43,325.691 341,300.5C 333.668,285.171 328.335,269.171 325,252.5C 325.072,203.727 327.405,155.06 332,106.5C 332.667,91.8333 332.667,77.1667 332,62.5C 330.078,55.4722 325.911,50.3055 319.5,47C 314.458,44.5989 309.125,43.0989 303.5,42.5 Z"/></g>
<g><path style="opacity:1" fill="#704e3a" d="M 291.5,52.5 C 293.304,51.838 295.304,51.5046 297.5,51.5C 301.117,51.3981 304.45,52.0648 307.5,53.5C 302.195,52.8058 296.862,52.4724 291.5,52.5 Z"/></g>
<g><path style="opacity:1" fill="#f7f4f3" d="M 291.5,52.5 C 296.862,52.4724 302.195,52.8058 307.5,53.5C 310.9,55.037 314.233,56.8703 317.5,59C 319.617,60.7309 321.117,62.8976 322,65.5C 322.667,74.1667 322.667,82.8333 322,91.5C 320.634,112.493 319.467,133.493 318.5,154.5C 316.991,164.628 316.325,174.962 316.5,185.5C 316.5,185.833 316.5,186.167 316.5,186.5C 314.848,202.97 314.181,219.637 314.5,236.5C 313.978,253.414 316.812,269.747 323,285.5C 327.085,296.085 331.752,306.418 337,316.5C 349.096,337.022 360.43,358.022 371,379.5C 387.985,419.378 393.318,460.711 387,503.5C 376.283,530.111 356.783,540.278 328.5,534C 325.417,532.861 322.417,531.528 319.5,530C 312,524.5 304.5,519 297,513.5C 287.8,520.857 277.967,527.357 267.5,533C 238.735,540.201 218.902,530.034 208,502.5C 204.826,487.658 203.826,472.658 205,457.5C 206.823,429.067 213.49,401.734 225,375.5C 234.413,357.673 244.079,340.006 254,322.5C 264.011,305.13 271.678,286.797 277,267.5C 278.162,260.868 278.996,254.201 279.5,247.5C 280.785,232.808 280.452,218.141 278.5,203.5C 278.5,201.167 278.5,198.833 278.5,196.5C 278.666,185.298 277.999,174.298 276.5,163.5C 275.244,138.489 273.744,113.489 272,88.5C 266.076,69.2826 272.576,57.2826 291.5,52.5 Z"/></g>
<g><path style="opacity:1" fill="#6e3f11" d="M 192.5,60.5 C 181.085,66.7297 170.918,74.7297 162,84.5C 143.691,108.261 134.858,135.261 135.5,165.5C 135.912,181.602 137.412,197.602 140,213.5C 144.073,235.198 148.406,256.865 153,278.5C 164.111,322.668 176.945,366.334 191.5,409.5C 186.436,416.071 180.769,422.237 174.5,428C 164.895,435.98 153.895,439.313 141.5,438C 133.66,435.746 126.327,432.413 119.5,428C 71.4174,395.925 33.9174,354.425 7,303.5C 2.81288,294.299 2.47955,284.965 6,275.5C 12.0408,258.085 19.7075,241.418 29,225.5C 58.325,176.7 92.1583,131.2 130.5,89C 145.379,76.8905 162.046,67.8905 180.5,62C 184.466,61.1721 188.466,60.6721 192.5,60.5 Z"/></g>
<g><path style="opacity:1" fill="#6e3f11" d="M 405.5,407.5 C 409.095,399.543 411.595,391.209 413,382.5C 431.88,326.648 446.213,269.648 456,211.5C 459.36,189.29 460.36,166.957 459,144.5C 454.822,106.894 436.322,79.2277 403.5,61.5C 409.594,60.075 415.594,60.575 421.5,63C 448.791,72.0592 471.291,87.8925 489,110.5C 517.699,144.895 543.699,181.229 567,219.5C 577.286,236.738 585.952,254.738 593,273.5C 595.789,281.748 596.122,290.081 594,298.5C 591.883,304.736 589.216,310.736 586,316.5C 559.101,360.069 524.601,396.569 482.5,426C 476.293,429.603 469.96,432.936 463.5,436C 446.521,440.339 432.021,436.172 420,423.5C 415.62,418.789 411.62,413.789 408,408.5C 407.329,407.748 406.496,407.414 405.5,407.5 Z"/></g>
<g><path style="opacity:1" fill="#866654" d="M 276.5,163.5 C 277.999,174.298 278.666,185.298 278.5,196.5C 277.287,185.685 276.621,174.685 276.5,163.5 Z"/></g>
<g><path style="opacity:1" fill="#8b6c5a" d="M 318.5,154.5 C 318.372,165.02 317.706,175.353 316.5,185.5C 316.325,174.962 316.991,164.628 318.5,154.5 Z"/></g>
<g><path style="opacity:1" fill="#896957" d="M 316.5,186.5 C 316.204,203.339 315.538,220.006 314.5,236.5C 314.181,219.637 314.848,202.97 316.5,186.5 Z"/></g>
<g><path style="opacity:1" fill="#6f3f11" d="M 205.5,213.5 C 221.787,210.978 234.287,216.645 243,230.5C 248.584,238.401 250.751,247.067 249.5,256.5C 242.053,257.361 234.72,258.861 227.5,261C 215.709,263.073 204.709,261.073 194.5,255C 186.897,248.899 180.23,242.066 174.5,234.5C 174.848,232.303 175.848,230.47 177.5,229C 185.814,221.82 195.148,216.654 205.5,213.5 Z"/></g>
<g><path style="opacity:1" fill="#382f2b" d="M 209.5,214.5 C 228.874,213.375 238.04,222.375 237,241.5C 232.878,254.477 224.045,260.31 210.5,259C 197.22,254.613 191.387,245.447 193,231.5C 196.019,223.316 201.519,217.649 209.5,214.5 Z"/></g>
<g><path style="opacity:1" fill="#6f3f12" d="M 379.5,213.5 C 398.908,211.689 415.075,218.023 428,232.5C 428.667,233.833 428.667,235.167 428,236.5C 423.167,241.333 418.333,246.167 413.5,251C 402.447,260.148 389.78,263.482 375.5,261C 368.267,259.046 360.934,257.713 353.5,257C 351.522,254.503 351.022,251.669 352,248.5C 355.879,232.478 365.046,220.811 379.5,213.5 Z"/></g>
<g><path style="opacity:1" fill="#382f2b" d="M 382.5,214.5 C 402.344,213.51 411.511,222.843 410,242.5C 405.746,255.216 396.913,260.716 383.5,259C 369.863,253.905 364.363,244.072 367,229.5C 370.106,222.225 375.272,217.225 382.5,214.5 Z"/></g>
<g><path style="opacity:1" fill="#f3f3f3" d="M 217.5,222.5 C 224.655,222.153 227.821,225.486 227,232.5C 222.383,239.152 217.717,239.152 213,232.5C 212.077,228.017 213.577,224.683 217.5,222.5 Z"/></g>
<g><path style="opacity:1" fill="#f6f6f6" d="M 391.5,222.5 C 399.489,221.989 402.655,225.656 401,233.5C 396.585,238.726 392.251,238.726 388,233.5C 386.663,228.916 387.829,225.249 391.5,222.5 Z"/></g>
<g><path style="opacity:1" fill="#a08273" d="M 278.5,203.5 C 280.452,218.141 280.785,232.808 279.5,247.5C 279.413,232.826 279.08,218.16 278.5,203.5 Z"/></g>
<g><path style="opacity:1" fill="#050404" d="M 283.5,418.5 C 297.687,417.71 311.687,418.876 325.5,422C 341.293,428.423 346.793,439.923 342,456.5C 332.586,473.89 317.919,483.556 298,485.5C 281.25,483.715 267.584,476.382 257,463.5C 247.08,444.725 251.58,430.892 270.5,422C 274.919,420.648 279.252,419.481 283.5,418.5 Z"/></g>
<g><path style="opacity:1" fill="#362e2a" d="M 285.5,428.5 C 293.84,428.334 302.173,428.5 310.5,429C 317.302,430.155 323.635,432.488 329.5,436C 334.747,443.846 334.58,451.679 329,459.5C 309,479.027 288.667,479.36 268,460.5C 260.254,450.998 260.754,442.165 269.5,434C 274.835,431.834 280.168,430.001 285.5,428.5 Z"/></g>
</svg>
