<?xml version="1.0" encoding="UTF-8"?>
<!DOCTYPE svg PUBLIC "-//W3C//DTD SVG 1.1//EN" "http://www.w3.org/Graphics/SVG/1.1/DTD/svg11.dtd">
<svg xmlns="http://www.w3.org/2000/svg" version="1.1" width="600px" height="600px" style="shape-rendering:geometricPrecision; text-rendering:geometricPrecision; image-rendering:optimizeQuality; fill-rule:evenodd; clip-rule:evenodd" xmlns:xlink="http://www.w3.org/1999/xlink">
<g><path style="opacity:0.956" fill="#000000" d="M 599.5,251.5 C 599.5,289.833 599.5,328.167 599.5,366.5C 597.467,367.898 596.467,369.898 596.5,372.5C 597.96,380.876 597.794,389.21 596,397.5C 592.333,405.167 588.667,412.833 585,420.5C 584.669,428.516 584.669,436.516 585,444.5C 582.791,452.049 578.291,457.882 571.5,462C 558.369,469.21 544.369,473.71 529.5,475.5C 517.937,474.526 506.937,471.526 496.5,466.5C 492.114,470.157 487.114,471.324 481.5,470C 477.385,467.552 473.552,464.719 470,461.5C 468.341,469.748 466.674,478.082 465,486.5C 463.771,491.529 461.771,496.196 459,500.5C 452.751,504.385 446.917,508.885 441.5,514C 438.5,514.833 435.5,515.667 432.5,516.5C 431.408,519.094 429.741,521.261 427.5,523C 420.769,526.521 413.769,529.354 406.5,531.5C 402.031,530.682 398.198,528.682 395,525.5C 381.053,537.722 364.886,545.556 346.5,549C 315.166,554.985 283.833,554.985 252.5,549C 234.114,545.556 217.947,537.722 204,525.5C 200.9,528.55 197.233,530.55 193,531.5C 186.309,529.601 179.809,527.101 173.5,524C 170.305,522.305 167.972,519.805 166.5,516.5C 162.977,515.858 159.644,514.692 156.5,513C 151.875,508.367 146.709,504.534 141,501.5C 138.473,497.779 136.473,493.779 135,489.5C 132.678,480.255 130.845,470.922 129.5,461.5C 124.873,466.298 119.373,469.631 113,471.5C 109.274,470.637 105.941,468.971 103,466.5C 85.4553,475.955 67.2886,477.455 48.5,471C 37.7354,468.037 28.2354,462.87 20,455.5C 16.4885,451.31 14.3219,446.477 13.5,441C 15.2968,434.938 15.7968,428.772 15,422.5C 11.0355,413.853 7.03552,405.186 3,396.5C 2.04353,393.07 1.54353,389.57 1.5,386C 2.27287,380.173 2.43953,374.339 2,368.5C 1.62325,367.058 0.789915,366.058 -0.5,365.5C -0.5,327.833 -0.5,290.167 -0.5,252.5C 6.37678,242.777 13.8768,233.443 22,224.5C 26.5505,213.477 32.2172,203.143 39,193.5C 46.6357,184.863 54.6357,176.53 63,168.5C 66.6741,156.476 73.8408,146.976 84.5,140C 98.1695,131.163 112.169,122.83 126.5,115C 115.833,106 115.833,97 126.5,88C 135.808,82.5626 145.808,78.896 156.5,77C 165.133,75.4501 173.799,74.1168 182.5,73C 182.957,72.586 183.291,72.086 183.5,71.5C 180.035,59.8095 184.535,53.4762 197,52.5C 210.898,55.0142 224.731,57.5142 238.5,60C 237.634,50.5225 242.134,45.6892 252,45.5C 269.094,47.6977 284.928,53.3644 299.5,62.5C 314.218,53.2605 330.218,47.5938 347.5,45.5C 357.68,45.3469 362.347,50.3469 361.5,60.5C 375.264,57.5139 389.097,54.8473 403,52.5C 416.126,54.3281 420.626,61.1614 416.5,73C 433.665,74.4992 450.331,78.1659 466.5,84C 477.903,88.6787 482.07,96.8454 479,108.5C 477.542,110.96 475.709,113.127 473.5,115C 488,123.415 502.333,132.082 516.5,141C 524.479,146.643 530.645,153.809 535,162.5C 535.333,164.167 535.667,165.833 536,167.5C 545.401,176.232 554.068,185.565 562,195.5C 567.921,205.673 573.587,216.006 579,226.5C 586.076,234.732 592.909,243.065 599.5,251.5 Z"/></g>
<g><path style="opacity:1" fill="#413f3e" d="M 524.5,169.5 C 519.501,168.916 514.501,168.749 509.5,169C 508.106,169.956 507.439,171.289 507.5,173C 514.739,188.646 521.573,204.48 528,220.5C 530.203,227.442 532.203,234.442 534,241.5C 534.767,245.558 534.6,249.558 533.5,253.5C 531.45,254.663 529.45,254.496 527.5,253C 524.897,249.724 521.73,247.224 518,245.5C 514.922,246.911 512.922,249.244 512,252.5C 511.347,261.255 512.014,269.922 514,278.5C 517.035,294.641 520.702,310.641 525,326.5C 525.499,330.486 525.666,334.486 525.5,338.5C 520.043,337.778 514.709,336.445 509.5,334.5C 506.729,334.756 504.562,336.09 503,338.5C 501.508,343.411 501.174,348.411 502,353.5C 505.103,372.077 508.603,390.577 512.5,409C 512.167,410.5 511.833,412 511.5,413.5C 506.981,409.815 502.981,405.648 499.5,401C 496.046,399.698 492.712,398.198 489.5,396.5C 487.912,397.01 486.745,398.01 486,399.5C 485.333,407.833 485.333,416.167 486,424.5C 487.23,432.799 488.063,441.132 488.5,449.5C 488.665,452.85 488.498,456.183 488,459.5C 487.439,460.022 486.772,460.355 486,460.5C 480.555,456.726 475.389,452.56 470.5,448C 467.784,445.849 465.284,446.016 463,448.5C 462,450.5 461,452.5 460,454.5C 458.221,466.288 455.888,477.955 453,489.5C 452.07,492.362 450.403,494.695 448,496.5C 447.617,495.944 447.117,495.611 446.5,495.5C 451.067,487.799 453.4,479.466 453.5,470.5C 451.304,426.737 437.137,387.404 411,352.5C 381.17,318.841 343.67,302.508 298.5,303.5C 231.4,305.637 185.567,337.971 161,400.5C 152.003,425.815 147.003,451.815 146,478.5C 147.68,484.375 149.846,490.041 152.5,495.5C 152.103,496.525 151.437,496.692 150.5,496C 148.383,494.269 146.883,492.102 146,489.5C 143.021,477.629 140.688,465.629 139,453.5C 137.812,448.958 134.978,446.792 130.5,447C 124.877,450.955 119.543,455.288 114.5,460C 112.843,460.725 111.843,460.225 111.5,458.5C 111.373,442.797 112.04,427.13 113.5,411.5C 113.609,406.722 113.109,402.056 112,397.5C 109.716,395.016 107.216,394.849 104.5,397C 99.5171,401.914 94.5171,406.914 89.5,412C 88.552,412.483 87.552,412.649 86.5,412.5C 89.5146,394.102 93.0146,375.769 97,357.5C 97.6667,351.833 97.6667,346.167 97,340.5C 96.1121,336.474 93.6121,334.474 89.5,334.5C 84.2905,336.445 78.9572,337.778 73.5,338.5C 73.3347,334.818 73.5014,331.152 74,327.5C 77.9828,311.569 81.6495,295.569 85,279.5C 86.8257,270.234 87.4924,260.901 87,251.5C 85.8812,248.576 83.8812,246.576 81,245.5C 76.6221,248.716 72.1221,251.716 67.5,254.5C 66.3527,254.182 65.5194,253.516 65,252.5C 65.7998,237.964 69.1331,223.964 75,210.5C 80.8361,197.495 86.6695,184.495 92.5,171.5C 92.3918,170.558 92.0585,169.725 91.5,169C 86.1535,168.568 80.8202,168.734 75.5,169.5C 74.3871,168.054 74.2204,166.387 75,164.5C 82.6308,154.206 92.1308,146.039 103.5,140C 115.459,134.357 126.625,127.524 137,119.5C 138.373,117.305 138.706,114.971 138,112.5C 134.943,108.951 132.109,105.284 129.5,101.5C 131.881,96.9572 135.548,93.7906 140.5,92C 162.437,85.9653 184.771,82.132 207.5,80.5C 207.657,79.1266 207.49,77.7932 207,76.5C 202.92,73.543 198.753,70.7097 194.5,68C 192.963,66.8904 192.297,65.3904 192.5,63.5C 207.363,64.8106 222.03,67.3106 236.5,71C 241.823,71.4994 247.156,71.666 252.5,71.5C 251.461,66.422 250.128,61.422 248.5,56.5C 265.498,57.555 281.165,62.7216 295.5,72C 298.5,72.6667 301.5,72.6667 304.5,72C 318.719,62.3159 334.385,57.1492 351.5,56.5C 350.908,59.6907 349.741,62.6907 348,65.5C 347.505,67.4727 347.338,69.4727 347.5,71.5C 364.073,70.7533 380.406,68.2533 396.5,64C 399.833,63.3333 403.167,63.3333 406.5,64C 407.833,65 407.833,66 406.5,67C 401.224,69.8879 396.391,73.3879 392,77.5C 391.383,78.4491 391.549,79.2825 392.5,80C 409.816,82.5183 427.149,85.1849 444.5,88C 451.497,89.4152 458.164,91.7485 464.5,95C 468.491,96.6206 470.324,99.4539 470,103.5C 458.511,111.258 458.677,118.758 470.5,126C 485.161,133.326 499.161,141.66 512.5,151C 518.2,155.521 522.534,161.021 525.5,167.5C 525.457,168.416 525.124,169.083 524.5,169.5 Z"/></g>
<g><path style="opacity:1" fill="#272625" d="M 111.5,458.5 C 110.681,455.695 110.181,452.695 110,449.5C 83.9151,468.94 57.4151,469.44 30.5,451C 27.8941,449.062 26.0608,446.562 25,443.5C 25.4535,435.191 25.4535,426.858 25,418.5C 21.2726,410.045 17.2726,401.712 13,393.5C 12.779,385.157 12.779,376.824 13,368.5C 10.7358,363.249 8.06915,358.249 5,353.5C 4.0187,332.735 5.85204,312.235 10.5,292C 9.39503,286.614 7.5617,281.447 5,276.5C 4.20935,272.074 4.54268,267.741 6,263.5C 7.93435,259.241 10.2677,255.241 13,251.5C 19,244.167 25,236.833 31,229.5C 35.4764,219.88 40.4764,210.547 46,201.5C 56.0392,190.963 65.8726,180.297 75.5,169.5C 80.8202,168.734 86.1535,168.568 91.5,169C 92.0585,169.725 92.3918,170.558 92.5,171.5C 86.6695,184.495 80.8361,197.495 75,210.5C 69.1331,223.964 65.7998,237.964 65,252.5C 65.5194,253.516 66.3527,254.182 67.5,254.5C 72.1221,251.716 76.6221,248.716 81,245.5C 83.8812,246.576 85.8812,248.576 87,251.5C 87.4924,260.901 86.8257,270.234 85,279.5C 81.6495,295.569 77.9828,311.569 74,327.5C 73.5014,331.152 73.3347,334.818 73.5,338.5C 78.9572,337.778 84.2905,336.445 89.5,334.5C 93.6121,334.474 96.1121,336.474 97,340.5C 97.6667,346.167 97.6667,351.833 97,357.5C 93.0146,375.769 89.5146,394.102 86.5,412.5C 87.552,412.649 88.552,412.483 89.5,412C 94.5171,406.914 99.5171,401.914 104.5,397C 107.216,394.849 109.716,395.016 112,397.5C 113.109,402.056 113.609,406.722 113.5,411.5C 112.04,427.13 111.373,442.797 111.5,458.5 Z"/></g>
<g><path style="opacity:1" fill="#272625" d="M 524.5,169.5 C 534.474,180.311 544.308,191.311 554,202.5C 559.524,211.547 564.524,220.88 569,230.5C 575,237.833 581,245.167 587,252.5C 592.671,259.183 595.338,266.85 595,275.5C 591.257,280.898 589.423,286.898 589.5,293.5C 591.062,303.48 592.562,313.48 594,323.5C 594.726,332.504 595.059,341.504 595,350.5C 594.667,352.167 594.333,353.833 594,355.5C 591.277,358.557 588.944,361.89 587,365.5C 586.355,372.35 586.522,379.183 587.5,386C 585.813,395.213 582.313,403.713 577,411.5C 575.714,414.405 574.714,417.405 574,420.5C 573.735,428.512 573.735,436.512 574,444.5C 572.207,447.295 570.04,449.795 567.5,452C 540.457,469.269 514.124,468.435 488.5,449.5C 488.063,441.132 487.23,432.799 486,424.5C 485.333,416.167 485.333,407.833 486,399.5C 486.745,398.01 487.912,397.01 489.5,396.5C 492.712,398.198 496.046,399.698 499.5,401C 502.981,405.648 506.981,409.815 511.5,413.5C 511.833,412 512.167,410.5 512.5,409C 508.603,390.577 505.103,372.077 502,353.5C 501.174,348.411 501.508,343.411 503,338.5C 504.562,336.09 506.729,334.756 509.5,334.5C 514.709,336.445 520.043,337.778 525.5,338.5C 525.666,334.486 525.499,330.486 525,326.5C 520.702,310.641 517.035,294.641 514,278.5C 512.014,269.922 511.347,261.255 512,252.5C 512.922,249.244 514.922,246.911 518,245.5C 521.73,247.224 524.897,249.724 527.5,253C 529.45,254.496 531.45,254.663 533.5,253.5C 534.6,249.558 534.767,245.558 534,241.5C 532.203,234.442 530.203,227.442 528,220.5C 521.573,204.48 514.739,188.646 507.5,173C 507.439,171.289 508.106,169.956 509.5,169C 514.501,168.749 519.501,168.916 524.5,169.5 Z"/></g>
<g><path style="opacity:1" fill="#282726" d="M 230.5,209.5 C 237.175,209.334 243.842,209.5 250.5,210C 258.758,210.701 264.924,214.534 269,221.5C 270.358,226.993 269.191,231.827 265.5,236C 263.634,236.985 261.634,237.485 259.5,237.5C 233.977,232.107 208.977,233.94 184.5,243C 177.353,245.05 174.52,242.55 176,235.5C 184.758,226.867 194.925,220.367 206.5,216C 214.551,213.49 222.551,211.323 230.5,209.5 Z"/></g>
<g><path style="opacity:1" fill="#282726" d="M 348.5,209.5 C 374.28,208.275 397.613,215.108 418.5,230C 422.415,232.99 424.248,236.823 424,241.5C 421.503,243.478 418.669,243.978 415.5,243C 396.428,235.942 376.761,233.275 356.5,235C 349.591,236.813 342.591,237.48 335.5,237C 327.549,229.835 327.549,222.502 335.5,215C 339.76,212.703 344.093,210.87 348.5,209.5 Z"/></g>
<g><path style="opacity:1" fill="#000000" d="M 230.5,242.5 C 247.905,243.906 257.905,253.239 260.5,270.5C 243.295,274.623 226.795,280.623 211,288.5C 200.981,273.371 202.814,259.871 216.5,248C 221.017,245.445 225.684,243.612 230.5,242.5 Z"/></g>
<g><path style="opacity:1" fill="#000000" d="M 369.5,242.5 C 391.727,245.21 401.227,257.543 398,279.5C 397.038,282.456 395.372,284.79 393,286.5C 377.113,279.26 360.613,273.927 343.5,270.5C 345.681,254.99 354.348,245.657 369.5,242.5 Z"/></g>
<g><path style="opacity:1" fill="#eaeaea" d="M 381.5,255.5 C 391.818,255.322 394.151,259.489 388.5,268C 378.102,268.471 375.768,264.305 381.5,255.5 Z"/></g>
<g><path style="opacity:1" fill="#ebebeb" d="M 242.5,255.5 C 252.82,255.411 255.154,259.578 249.5,268C 239.102,268.471 236.768,264.305 242.5,255.5 Z"/></g>
<g><path style="opacity:1" fill="#272625" d="M 446.5,495.5 C 442.834,498.997 439.001,502.331 435,505.5C 433.113,498.296 431.779,490.963 431,483.5C 430.64,481.579 429.806,479.912 428.5,478.5C 427.808,479.025 427.308,479.692 427,480.5C 426.36,490.207 425.36,499.874 424,509.5C 423.654,511.848 422.487,513.681 420.5,515C 415.94,517.114 411.274,518.947 406.5,520.5C 404.272,519.781 402.439,518.448 401,516.5C 399.569,513.96 397.902,511.627 396,509.5C 387.16,519.994 376.327,527.827 363.5,533C 322.723,546.222 281.723,546.889 240.5,535C 225.726,530.046 213.56,521.546 204,509.5C 202.739,509.759 201.739,510.426 201,511.5C 199.496,515.904 196.663,518.904 192.5,520.5C 186.356,519.069 180.856,516.402 176,512.5C 174.117,501.912 172.784,491.245 172,480.5C 171.692,479.692 171.192,479.025 170.5,478.5C 169.066,480.22 168.233,482.22 168,484.5C 167.07,489.799 166.403,495.133 166,500.5C 165.784,502.384 165.117,504.051 164,505.5C 159.999,502.331 156.166,498.997 152.5,495.5C 149.846,490.041 147.68,484.375 146,478.5C 147.003,451.815 152.003,425.815 161,400.5C 185.567,337.971 231.4,305.637 298.5,303.5C 343.67,302.508 381.17,318.841 411,352.5C 437.137,387.404 451.304,426.737 453.5,470.5C 453.4,479.466 451.067,487.799 446.5,495.5 Z"/></g>
<g><path style="opacity:1" fill="#000000" d="M 290.5,330.5 C 300.289,330.024 309.956,330.857 319.5,333C 340.562,339.966 345.062,352.799 333,371.5C 308.613,392.645 285.613,391.312 264,367.5C 257.316,354.617 259.816,344.117 271.5,336C 277.701,333.205 284.034,331.371 290.5,330.5 Z"/></g>
<g><path style="opacity:1" fill="#040202" d="M 286.5,399.5 C 304.792,398.537 322.792,400.37 340.5,405C 342.286,405.785 343.786,406.951 345,408.5C 346.479,427.065 340.313,442.565 326.5,455C 308.806,464.961 291.14,464.961 273.5,455C 259.687,442.565 253.521,427.065 255,408.5C 256.613,406.223 258.78,404.723 261.5,404C 269.942,402.296 278.276,400.796 286.5,399.5 Z"/></g>
<g><path style="opacity:1" fill="#f09b9e" d="M 286.5,409.5 C 304.867,409.351 323.2,410.017 341.5,411.5C 341.413,432.533 332.08,447.699 313.5,457C 287.03,463.682 269.197,454.182 260,428.5C 258.783,422.899 258.283,417.232 258.5,411.5C 268.019,411.323 277.352,410.656 286.5,409.5 Z"/></g>
</svg>
