<?xml version="1.0" encoding="UTF-8"?>
<!DOCTYPE svg PUBLIC "-//W3C//DTD SVG 1.1//EN" "http://www.w3.org/Graphics/SVG/1.1/DTD/svg11.dtd">
<svg xmlns="http://www.w3.org/2000/svg" version="1.1" width="600px" height="600px" style="shape-rendering:geometricPrecision; text-rendering:geometricPrecision; image-rendering:optimizeQuality; fill-rule:evenodd; clip-rule:evenodd" xmlns:xlink="http://www.w3.org/1999/xlink">
<g><path style="opacity:0.968" fill="#020000" d="M 599.5,210.5 C 599.5,232.167 599.5,253.833 599.5,275.5C 575.255,318.738 560.088,365.071 554,414.5C 548.87,428.315 539.37,432.815 525.5,428C 517.421,423.256 510.588,417.09 505,409.5C 489.096,389.365 477.096,367.032 469,342.5C 461.709,361.913 453.209,380.746 443.5,399C 448.94,404.89 450.107,411.39 447,418.5C 444.705,421.065 441.872,422.731 438.5,423.5C 442.911,433.387 445.077,443.72 445,454.5C 443.553,462.278 439.053,467.111 431.5,469C 433.684,500.505 420.351,522.838 391.5,536C 387.84,537.448 384.173,537.948 380.5,537.5C 372.518,548.322 362.018,555.322 349,558.5C 346.551,558.139 344.218,557.472 342,556.5C 330.49,568.508 316.657,576.508 300.5,580.5C 285.199,576.016 271.866,568.183 260.5,557C 257.579,556.85 254.746,557.35 252,558.5C 238.971,554.46 228.471,546.96 220.5,536C 214.962,536.621 209.629,535.621 204.5,533C 178.218,518.207 166.718,495.707 170,465.5C 164.667,466.501 160.667,464.501 158,459.5C 156.067,446.818 157.901,434.652 163.5,423C 151.841,418.034 149.841,410.368 157.5,400C 149.198,378.56 141.031,357.06 133,335.5C 124.485,364.87 110.485,391.203 91,414.5C 84.341,423.171 75.6743,428.504 65,430.5C 55.3179,429.152 48.9846,423.818 46,414.5C 42.1633,385.82 35.4966,357.82 26,330.5C 17.9392,310.718 9.10585,291.385 -0.5,272.5C -0.5,251.5 -0.5,230.5 -0.5,209.5C 34.0117,158.154 78.0117,116.987 131.5,86C 145.564,78.2007 160.564,73.2007 176.5,71C 180.236,69.7838 181.236,67.4505 179.5,64C 179.74,58.5041 182.407,54.8375 187.5,53C 194.999,50.5669 202.666,48.9002 210.5,48C 213.121,44.0495 216.788,41.7162 221.5,41C 227.187,41.3693 232.854,41.2027 238.5,40.5C 240.541,36.0577 244.041,33.7243 249,33.5C 253.228,34.7969 257.562,35.4636 262,35.5C 286.672,31.5193 311.339,31.5193 336,35.5C 340.438,35.4636 344.772,34.7969 349,33.5C 354.732,33.4129 358.232,36.0796 359.5,41.5C 365.52,41.2391 371.52,41.0725 377.5,41C 378.833,41.3333 380.167,41.6667 381.5,42C 383.623,44.2452 385.956,46.2452 388.5,48C 397.02,49.2132 405.353,51.2132 413.5,54C 417.704,57.6514 419.038,62.1514 417.5,67.5C 418.5,68.3333 419.5,69.1667 420.5,70C 438.939,72.8129 456.272,78.8129 472.5,88C 524.504,118.838 566.838,159.671 599.5,210.5 Z"/></g>
<g><path style="opacity:1" fill="#984d21" d="M 289.5,42.5 C 305.134,42.3298 320.634,43.6631 336,46.5C 340.476,46.1311 344.809,45.1311 349,43.5C 349.5,43.6667 350,43.8333 350.5,44C 346.164,47.3102 346.497,49.9768 351.5,52C 360.167,52 368.833,52 377.5,52C 374.846,53.0453 372.512,54.5453 370.5,56.5C 383.464,57.3271 396.131,59.6604 408.5,63.5C 403.68,64.0231 399.013,65.0231 394.5,66.5C 399.167,69.1667 403.833,71.8333 408.5,74.5C 408.833,75 409.167,75.5 409.5,76C 407.061,80.408 406.895,84.908 409,89.5C 435.172,111.365 449.506,139.365 452,173.5C 454.711,200.099 456.378,226.766 457,253.5C 458.607,264.267 459.774,275.101 460.5,286C 460.294,287.366 459.96,288.699 459.5,290C 461.573,299.244 463.24,308.578 464.5,318C 462.008,329.81 458.508,341.31 454,352.5C 447.257,367.651 440.257,382.651 433,397.5C 432.333,399.167 432.333,400.833 433,402.5C 435.335,405.166 437.169,408.166 438.5,411.5C 434.857,412.449 431.69,411.449 429,408.5C 426.771,412.261 425.771,416.261 426,420.5C 431.474,431.208 434.14,442.541 434,454.5C 433.577,455.956 432.744,456.456 431.5,456C 427.352,452.686 423.352,449.186 419.5,445.5C 418.434,453.893 418.934,462.227 421,470.5C 422.551,497.393 410.884,516.06 386,526.5C 384.941,526.37 384.108,525.87 383.5,525C 384.617,521.927 384.784,518.76 384,515.5C 382.601,516.227 381.101,516.727 379.5,517C 374.315,530.852 364.982,540.852 351.5,547C 349.866,547.494 348.199,547.66 346.5,547.5C 347.827,540.888 348.327,534.222 348,527.5C 347.586,527.043 347.086,526.709 346.5,526.5C 341.801,543.032 331.801,555.198 316.5,563C 311.124,565.403 305.791,567.903 300.5,570.5C 289.174,565.843 278.841,559.677 269.5,552C 262.68,544.202 257.513,535.369 254,525.5C 252.891,527.8 252.391,530.3 252.5,533C 252.958,537.829 253.291,542.662 253.5,547.5C 237.628,542.796 227.128,532.463 222,516.5C 219.959,515.577 217.792,515.244 215.5,515.5C 216.051,518.807 216.384,522.14 216.5,525.5C 200.517,521.024 189.35,511.024 183,495.5C 180.808,489.872 179.641,484.039 179.5,478C 181.092,466.866 181.925,455.7 182,444.5C 177.645,448.356 173.145,452.023 168.5,455.5C 167.338,450.869 167.172,446.202 168,441.5C 170.201,433.729 172.701,426.062 175.5,418.5C 174.456,415.2 173.123,412.033 171.5,409C 169.042,410.038 166.375,410.871 163.5,411.5C 164.44,408.286 165.94,405.286 168,402.5C 168.667,401.167 168.667,399.833 168,398.5C 160.725,378.676 153.059,359.009 145,339.5C 141.394,329.409 138.894,319.076 137.5,308.5C 138.671,297.129 140.171,285.795 142,274.5C 143.003,241.104 145.003,207.771 148,174.5C 150.696,140.439 165.03,112.439 191,90.5C 193.053,85.2007 192.886,80.034 190.5,75C 194.841,71.8276 199.508,69.1609 204.5,67C 199.939,65.6983 195.272,64.5316 190.5,63.5C 190.833,63.1667 191.167,62.8333 191.5,62.5C 203.253,59.266 215.253,57.266 227.5,56.5C 225.717,54.7684 223.717,53.2684 221.5,52C 227.004,51.5995 232.504,51.7662 238,52.5C 241.57,52.4565 245.07,51.9565 248.5,51C 249.428,50.6121 250.095,49.9454 250.5,49C 249.971,47.4411 249.304,45.9411 248.5,44.5C 248.833,44.1667 249.167,43.8333 249.5,43.5C 253.1,45.3585 256.934,46.3585 261,46.5C 270.646,45.191 280.146,43.8577 289.5,42.5 Z"/></g>
<g><path style="opacity:1" fill="#612906" d="M 180.5,81.5 C 181.525,81.8966 181.692,82.5632 181,83.5C 161.119,99.7392 148.119,120.406 142,145.5C 137.78,162.928 135.113,180.594 134,198.5C 132.157,225.984 131.324,253.317 131.5,280.5C 129.101,305.32 123.935,329.653 116,353.5C 107.622,372.597 96.9553,390.263 84,406.5C 80.1334,410.702 75.9668,414.535 71.5,418C 62.437,421.301 56.937,418.135 55,408.5C 51.5539,380.824 45.2206,353.824 36,327.5C 26.9413,306.382 17.6079,285.382 8,264.5C 2.19084,248.406 2.19084,232.406 8,216.5C 42.2572,164.572 86.4239,123.405 140.5,93C 146.752,90.1383 153.085,87.4716 159.5,85C 166.359,82.8773 173.359,81.7106 180.5,81.5 Z"/></g>
<g><path style="opacity:1" fill="#612906" d="M 418.5,81.5 C 431.483,82.1047 443.816,85.2714 455.5,91C 506.035,118.526 548.201,155.693 582,202.5C 587.365,209.893 591.698,217.893 595,226.5C 597.553,239.436 596.553,252.103 592,264.5C 582.392,285.382 573.059,306.382 564,327.5C 554.779,353.831 548.445,380.831 545,408.5C 543.046,418.158 537.546,421.324 528.5,418C 519.583,411.085 512.083,402.918 506,393.5C 484.546,362.641 472.712,328.308 470.5,290.5C 471.156,289.378 471.489,288.045 471.5,286.5C 468.703,252.876 466.536,219.21 465,185.5C 463.455,158.411 456.122,133.078 443,109.5C 436.415,99.5799 428.415,90.9132 419,83.5C 418.536,82.9056 418.369,82.2389 418.5,81.5 Z"/></g>
<g><path style="opacity:1" fill="#86431c" d="M 180.5,81.5 C 180.56,80.9569 180.893,80.6236 181.5,80.5C 182.631,82.0745 182.798,83.7412 182,85.5C 159.341,103.8 145.674,127.466 141,156.5C 138.596,168.733 136.929,181.066 136,193.5C 134.306,222.495 132.806,251.495 131.5,280.5C 131.324,253.317 132.157,225.984 134,198.5C 135.113,180.594 137.78,162.928 142,145.5C 148.119,120.406 161.119,99.7392 181,83.5C 181.692,82.5632 181.525,81.8966 180.5,81.5 Z"/></g>
<g><path style="opacity:1" fill="#87431c" d="M 418.5,81.5 C 418.369,82.2389 418.536,82.9056 419,83.5C 428.415,90.9132 436.415,99.5799 443,109.5C 456.122,133.078 463.455,158.411 465,185.5C 466.536,219.21 468.703,252.876 471.5,286.5C 471.489,288.045 471.156,289.378 470.5,290.5C 467.448,257.942 465.281,224.942 464,191.5C 462.57,165.674 456.57,141.007 446,117.5C 438.484,104.982 429.151,93.9819 418,84.5C 417.26,83.2506 417.427,82.2506 418.5,81.5 Z"/></g>
<g><path style="opacity:1" fill="#8d461d" d="M 212.5,185.5 C 242.09,184.702 255.923,199.035 254,228.5C 245.327,251.418 229.161,259.252 205.5,252C 186.073,240.049 180.906,223.549 190,202.5C 195.502,194.019 203.002,188.352 212.5,185.5 Z"/></g>
<g><path style="opacity:1" fill="#8d461d" d="M 373.5,185.5 C 403.183,184.681 417.016,199.015 415,228.5C 409.158,246.994 396.658,255.328 377.5,253.5C 370.83,244.17 361.83,238.503 350.5,236.5C 342.609,219.124 345.942,204.291 360.5,192C 364.789,189.495 369.122,187.328 373.5,185.5 Z"/></g>
<g><path style="opacity:1" fill="#302725" d="M 214.5,196.5 C 234.716,195.881 244.216,205.548 243,225.5C 237.481,241.177 226.647,246.677 210.5,242C 199.732,235.964 195.232,226.798 197,214.5C 198.267,210.131 200.433,206.297 203.5,203C 207.096,200.539 210.763,198.373 214.5,196.5 Z"/></g>
<g><path style="opacity:1" fill="#302725" d="M 375.5,196.5 C 398.027,196.518 407.194,207.518 403,229.5C 395.997,242.219 385.497,246.386 371.5,242C 358.921,234.262 355.087,223.428 360,209.5C 363.869,203.452 369.035,199.118 375.5,196.5 Z"/></g>
<g><path style="opacity:1" fill="#f3f3f3" d="M 224.5,208.5 C 232.543,209.02 234.876,212.854 231.5,220C 223.758,223.248 220.258,220.748 221,212.5C 221.69,210.65 222.856,209.316 224.5,208.5 Z"/></g>
<g><path style="opacity:1" fill="#f2f2f2" d="M 386.5,208.5 C 393.88,208.043 396.713,211.376 395,218.5C 390.601,222.654 386.601,222.321 383,217.5C 382.333,215.833 382.333,214.167 383,212.5C 384.376,211.295 385.542,209.962 386.5,208.5 Z"/></g>
<g><path style="opacity:1" fill="#622a07" d="M 286.5,393.5 C 301.119,392.49 315.452,393.99 329.5,398C 350.097,408.893 354.597,424.393 343,444.5C 330.673,458.975 315.173,466.642 296.5,467.5C 276.81,463.618 261.643,453.284 251,436.5C 245.51,417.936 251.677,405.103 269.5,398C 275.276,396.419 280.942,394.919 286.5,393.5 Z"/></g>
<g><path style="opacity:1" fill="#603611" d="M 293.5,501.5 C 299.577,501.196 305.577,501.696 311.5,503C 317.531,506.016 323.531,509.016 329.5,512C 310.039,518.986 290.372,519.319 270.5,513C 277.99,508.588 285.657,504.755 293.5,501.5 Z"/></g>
</svg>
