<?xml version="1.0" encoding="UTF-8"?>
<!DOCTYPE svg PUBLIC "-//W3C//DTD SVG 1.1//EN" "http://www.w3.org/Graphics/SVG/1.1/DTD/svg11.dtd">
<svg xmlns="http://www.w3.org/2000/svg" version="1.1" width="600px" height="600px" style="shape-rendering:geometricPrecision; text-rendering:geometricPrecision; image-rendering:optimizeQuality; fill-rule:evenodd; clip-rule:evenodd" xmlns:xlink="http://www.w3.org/1999/xlink">
<g><path style="opacity:0.956" fill="#010000" d="M 283.5,-0.5 C 290.5,-0.5 297.5,-0.5 304.5,-0.5C 307.321,5.81176 310.155,12.1451 313,18.5C 314.472,10.8748 317.972,4.5415 323.5,-0.5C 328.167,-0.5 332.833,-0.5 337.5,-0.5C 339.334,1.83446 341.167,4.16779 343,6.5C 350.297,2.36819 357.464,2.53486 364.5,7C 367.11,9.99488 368.443,13.4949 368.5,17.5C 377.145,17.0666 382.311,21.0666 384,29.5C 386.886,30.7599 389.719,32.0932 392.5,33.5C 394.629,36.0445 396.296,38.8778 397.5,42C 408.155,46.1674 419.155,49.1674 430.5,51C 438.763,53.7617 444.097,59.2617 446.5,67.5C 446.291,68.086 445.957,68.586 445.5,69C 483.295,92.793 512.795,124.293 534,163.5C 555.509,203.358 570.675,245.525 579.5,290C 578.734,294.526 577.401,298.859 575.5,303C 576.991,308.965 578.325,314.965 579.5,321C 578.129,333.426 571.629,338.259 560,335.5C 561.331,348.497 562.998,361.497 565,374.5C 566.522,387.301 567.688,400.135 568.5,413C 568.469,416.818 567.802,420.485 566.5,424C 568.412,434.125 568.579,444.291 567,454.5C 560.715,468.032 552.049,469.699 541,459.5C 539.023,463.017 538.189,466.851 538.5,471C 540.226,490.11 538.726,508.943 534,527.5C 529.721,535.369 523.554,537.202 515.5,533C 513.131,530.43 511.131,527.596 509.5,524.5C 506.771,540.198 503.604,555.865 500,571.5C 495.767,581.685 488.6,584.519 478.5,580C 474.855,576.547 472.355,572.38 471,567.5C 466.711,566.023 463.378,563.356 461,559.5C 458.616,551.958 456.949,544.291 456,536.5C 455.194,545.337 453.527,554.004 451,562.5C 444.641,569.886 437.975,570.219 431,563.5C 428.806,560.446 427.139,557.112 426,553.5C 422.299,564.943 417.633,575.943 412,586.5C 402.754,593.039 395.421,591.372 390,581.5C 387.611,586.554 384.445,591.054 380.5,595C 373.327,599.752 366.827,598.919 361,592.5C 358.456,587.452 356.789,582.119 356,576.5C 355.586,576.043 355.086,575.709 354.5,575.5C 351.353,584.471 346.686,592.471 340.5,599.5C 330.167,599.5 319.833,599.5 309.5,599.5C 307.519,596.064 306.019,592.397 305,588.5C 302.892,578.187 300.892,567.854 299,557.5C 297.667,565.5 296.333,573.5 295,581.5C 293.904,587.96 291.737,593.96 288.5,599.5C 278.5,599.5 268.5,599.5 258.5,599.5C 251.327,591.84 246.16,582.84 243,572.5C 242.207,580.342 239.874,587.675 236,594.5C 226.896,600.144 219.23,598.478 213,589.5C 211.667,586.833 210.333,584.167 209,581.5C 199.364,594.707 190.364,594.04 182,579.5C 178.803,570.908 175.803,562.242 173,553.5C 171.3,559.4 167.8,563.9 162.5,567C 152.148,569.079 146.315,564.912 145,554.5C 143.744,547.879 142.911,541.212 142.5,534.5C 141.5,534.5 140.5,534.5 139.5,534.5C 139.468,543.426 137.968,552.093 135,560.5C 132.977,563.52 130.31,565.854 127,567.5C 124.194,580.33 116.694,584.497 104.5,580C 101.193,577.222 99.0262,573.722 98,569.5C 94.2725,554.697 91.7725,539.697 90.5,524.5C 89.5,524.5 88.5,524.5 87.5,524.5C 84.6457,534.739 78.3124,537.572 68.5,533C 66.3834,531.269 64.8834,529.102 64,526.5C 61.8921,518.627 60.5587,510.627 60,502.5C 59.5001,488.504 59.3334,474.504 59.5,460.5C 56.4007,460.092 54.0674,461.259 52.5,464C 42.6883,468.339 35.8549,465.506 32,455.5C 28.9586,416.196 31.4586,377.196 39.5,338.5C 38.0336,336.343 36.2003,336.01 34,337.5C 24.9399,335.77 20.1066,330.27 19.5,321C 20.8604,314.557 22.5271,308.224 24.5,302C 20.118,296.424 18.9514,290.258 21,283.5C 31.0836,236.235 48.417,191.901 73,150.5C 93.3097,117.024 120.143,90.0236 153.5,69.5C 154.713,60.4515 159.713,54.6182 168.5,52C 177.048,49.4904 185.715,47.4904 194.5,46C 198.112,44.8605 201.446,43.1939 204.5,41C 200.405,33.6936 201.738,27.3603 208.5,22C 213.092,20.5187 217.759,19.352 222.5,18.5C 221.53,10.4459 225.197,5.77924 233.5,4.5C 241.826,6.83009 249.493,10.4968 256.5,15.5C 258.163,12.2569 259.829,8.92359 261.5,5.5C 269.209,0.0466418 275.709,1.37998 281,9.5C 281.838,6.1484 282.671,2.81507 283.5,-0.5 Z"/></g>
<g><path style="opacity:1" fill="#503e2e" d="M 562.5,294.5 C 560.871,293.375 559.371,292.041 558,290.5C 553.391,282.893 548.391,275.559 543,268.5C 539.59,264.584 535.757,261.251 531.5,258.5C 530.609,259.261 529.942,260.261 529.5,261.5C 532.533,273.966 536.033,286.299 540,298.5C 543.344,310.863 546.177,323.196 548.5,335.5C 554.343,364.588 557.009,393.922 556.5,423.5C 554.932,424.473 553.265,424.64 551.5,424C 549.288,421.079 547.455,417.912 546,414.5C 541.93,400.79 537.763,387.124 533.5,373.5C 530.901,366.471 527.901,359.638 524.5,353C 523.216,352.316 522.049,352.483 521,353.5C 520.333,358.833 520.333,364.167 521,369.5C 525.226,395.159 527.726,420.826 528.5,446.5C 528.5,454.167 528.5,461.833 528.5,469.5C 527.674,474.316 527.174,479.316 527,484.5C 526.443,488.175 525.11,491.508 523,494.5C 518.636,485.728 515.802,476.395 514.5,466.5C 511.729,454.816 507.895,443.482 503,432.5C 502.333,431.167 501.667,431.167 501,432.5C 500.654,450.209 499.821,467.876 498.5,485.5C 497.075,502.311 494.575,518.978 491,535.5C 490.392,539.461 488.226,540.961 484.5,540C 483.177,539.184 482.511,538.017 482.5,536.5C 479.158,511.932 475.991,487.265 473,462.5C 471,452.5 469,442.5 467,432.5C 465.861,429.417 464.528,426.417 463,423.5C 461.333,422.167 459.667,422.167 458,423.5C 454.658,431.894 452.492,440.561 451.5,449.5C 450.55,461.18 449.55,472.847 448.5,484.5C 446.503,498.37 444.503,512.37 442.5,526.5C 438.871,526.205 436.871,524.205 436.5,520.5C 433.896,513.752 432.062,506.752 431,499.5C 429.087,483.764 426.753,468.097 424,452.5C 423.667,463.167 423.333,473.833 423,484.5C 422.285,493.023 420.785,501.356 418.5,509.5C 415.845,519.298 412.679,528.964 409,538.5C 407.914,542.346 406.081,545.68 403.5,548.5C 402.178,548.67 401.011,548.337 400,547.5C 397.525,541.038 395.859,534.371 395,527.5C 394.653,525.82 393.653,524.82 392,524.5C 389.346,525.821 387.346,527.821 386,530.5C 383.847,535.796 382.013,541.129 380.5,546.5C 380.34,548.153 379.674,549.486 378.5,550.5C 372.475,559.109 368.641,558.109 367,547.5C 368.256,520.844 369.256,494.177 370,467.5C 368.853,466.542 367.853,466.875 367,468.5C 363.258,480.392 360.091,492.392 357.5,504.5C 352.191,520.25 346.357,535.917 340,551.5C 336.714,558.462 331.381,562.795 324,564.5C 319.067,563.567 316.067,560.567 315,555.5C 312.096,538.741 308.763,522.074 305,505.5C 304.275,503.051 303.275,500.717 302,498.5C 298.117,496.995 295.45,498.329 294,502.5C 289.894,521.47 285.894,540.47 282,559.5C 279.774,563.861 276.274,565.361 271.5,564C 264.161,560.199 258.994,554.365 256,546.5C 246.713,522.642 239.047,498.309 233,473.5C 232.115,471 230.948,468.667 229.5,466.5C 228.808,467.025 228.308,467.692 228,468.5C 227.833,471.667 227.667,474.833 227.5,478C 229.012,497.822 230.345,517.655 231.5,537.5C 231.554,542.899 231.054,548.233 230,553.5C 228.272,557.176 225.939,557.509 223,554.5C 218.883,546.367 215.216,538.034 212,529.5C 210.595,527.349 208.761,525.682 206.5,524.5C 205.522,524.977 204.689,525.643 204,526.5C 202.636,534.031 200.636,541.364 198,548.5C 197.439,549.022 196.772,549.355 196,549.5C 194.923,548.571 193.756,547.904 192.5,547.5C 186.575,531.803 181.575,515.803 177.5,499.5C 175.31,483.248 174.143,466.915 174,450.5C 171.306,471.94 167.973,493.274 164,514.5C 162.59,518.236 161.09,521.902 159.5,525.5C 158.312,526.684 157.145,526.684 156,525.5C 153.831,514.082 151.997,502.748 150.5,491.5C 149.759,477.093 148.426,462.759 146.5,448.5C 146.148,439.776 144.148,431.442 140.5,423.5C 137.247,421.888 135.08,422.888 134,426.5C 131.196,435.381 128.863,444.381 127,453.5C 122.89,480.054 119.557,506.72 117,533.5C 116.764,535.811 115.931,537.811 114.5,539.5C 113.399,540.598 112.066,540.765 110.5,540C 108.962,538.068 107.795,535.901 107,533.5C 103.571,517.333 101.405,500.999 100.5,484.5C 98.884,468.23 98.0507,451.897 98,435.5C 97.7811,434.062 97.2811,432.729 96.5,431.5C 93.328,436.841 90.828,442.508 89,448.5C 86.6498,458.235 84.1498,467.902 81.5,477.5C 80.7401,483.549 78.9067,489.216 76,494.5C 74.6152,493.449 73.6152,492.116 73,490.5C 72.5812,486.608 71.7479,482.942 70.5,479.5C 70.5,465.167 70.5,450.833 70.5,436.5C 71.5248,420.281 73.0248,403.948 75,387.5C 75.6296,381.757 76.6296,376.09 78,370.5C 78.6667,365.167 78.6667,359.833 78,354.5C 77.1627,352.993 75.9961,352.493 74.5,353C 72.9588,354.579 71.7922,356.413 71,358.5C 66.7256,370.491 62.559,382.491 58.5,394.5C 56.169,403.326 53.3357,411.993 50,420.5C 48.2325,423.844 45.7325,424.844 42.5,423.5C 41.6691,392.475 44.6691,361.809 51.5,331.5C 55.2741,310.071 60.7741,289.071 68,268.5C 68.4983,265.183 68.665,261.85 68.5,258.5C 67.209,258.263 66.209,258.596 65.5,259.5C 61.3565,262.081 57.8565,265.414 55,269.5C 50.0852,276.328 45.4186,283.328 41,290.5C 39.6288,292.041 38.1288,293.375 36.5,294.5C 34.3891,295.968 32.5557,295.635 31,293.5C 39.7662,240.535 58.7662,191.535 88,146.5C 109.118,115.54 135.952,90.8731 168.5,72.5C 167.167,70.8333 165.833,69.1667 164.5,67.5C 165.313,66.1861 166.313,65.0195 167.5,64C 178.933,59.9254 190.599,56.5921 202.5,54C 208.081,51.1402 213.748,48.4735 219.5,46C 217.545,45.0467 215.878,43.7134 214.5,42C 215.5,41.6667 216.5,41.3333 217.5,41C 209.453,31.3402 211.787,28.0069 224.5,31C 230.207,32.3811 235.207,35.0478 239.5,39C 241.259,39.7975 242.926,39.6309 244.5,38.5C 238.129,32.0918 234.129,24.4252 232.5,15.5C 236.062,15.9652 239.395,17.1319 242.5,19C 248.872,23.1808 255.206,27.3475 261.5,31.5C 262.442,31.3918 263.275,31.0585 264,30.5C 264.498,27.5184 264.665,24.5184 264.5,21.5C 265.833,21.5 267.167,21.5 268.5,21.5C 268.183,18.4281 268.516,15.4281 269.5,12.5C 274.068,17.955 277.902,23.955 281,30.5C 282.88,33.1924 285.38,34.3591 288.5,34C 289.307,28.917 289.807,23.7503 290,18.5C 290.414,18.0426 290.914,17.7093 291.5,17.5C 292.167,13.1667 292.833,8.83333 293.5,4.5C 294.478,4.97665 295.311,5.64332 296,6.5C 299,13.1667 302,19.8333 305,26.5C 307.799,32.749 312.133,34.4157 318,31.5C 321.381,24.6983 324.381,17.6983 327,10.5C 329.856,7.56463 331.689,8.06463 332.5,12C 331.089,16.7934 330.255,21.6268 330,26.5C 337.054,20.6395 345.054,16.6395 354,14.5C 355.973,14.3094 357.473,14.976 358.5,16.5C 354.121,24.0493 348.788,30.8827 342.5,37C 345.257,37.5837 347.923,37.2504 350.5,36C 357.462,31.1776 365.129,28.6776 373.5,28.5C 373.51,33.638 371.51,37.8046 367.5,41C 373.833,41.3333 380.167,41.6667 386.5,42C 385.016,43.5737 383.349,44.907 381.5,46C 393.661,52.9173 406.661,57.2506 420.5,59C 426.975,59.7299 431.975,62.7299 435.5,68C 434.43,69.7092 433.097,71.2092 431.5,72.5C 472.009,96.5083 503.509,129.175 526,170.5C 547.015,209.213 561.015,250.213 568,293.5C 566.444,295.635 564.611,295.968 562.5,294.5 Z"/></g>
<g><path style="opacity:1" fill="#271300" d="M 231.5,189.5 C 233.144,189.286 234.644,189.62 236,190.5C 238.191,207.214 245.858,220.88 259,231.5C 259.667,232.5 259.667,233.5 259,234.5C 245.092,238.461 230.925,241.628 216.5,244C 209.669,246.836 203.336,250.502 197.5,255C 193.333,256.167 191.833,254.667 193,250.5C 207.505,241.334 220.172,230.001 231,216.5C 232.552,214.232 233.385,211.732 233.5,209C 232.692,203.795 231.692,198.629 230.5,193.5C 230.623,192.075 230.957,190.742 231.5,189.5 Z"/></g>
<g><path style="opacity:1" fill="#271300" d="M 354.5,189.5 C 356.144,189.286 357.644,189.62 359,190.5C 359.098,196.191 358.598,201.857 357.5,207.5C 357.542,210.259 358.042,212.925 359,215.5C 369.935,229.79 382.935,241.79 398,251.5C 398.684,252.784 398.517,253.951 397.5,255C 395.833,255.667 394.167,255.667 392.5,255C 387.772,251.274 382.772,247.941 377.5,245C 361.978,242.632 346.811,239.132 332,234.5C 331.333,233.167 331.333,231.833 332,230.5C 345.237,220.028 352.737,206.362 354.5,189.5 Z"/></g>
<g><path style="opacity:1" fill="#493321" d="M 51.5,331.5 C 47.1064,331.946 45.4397,329.946 46.5,325.5C 47.2052,319.347 48.5385,313.347 50.5,307.5C 54.7038,291.224 59.7038,275.224 65.5,259.5C 66.209,258.596 67.209,258.263 68.5,258.5C 68.665,261.85 68.4983,265.183 68,268.5C 60.7741,289.071 55.2741,310.071 51.5,331.5 Z"/></g>
<g><path style="opacity:1" fill="#271300" d="M 65.5,259.5 C 59.7038,275.224 54.7038,291.224 50.5,307.5C 46.5299,312.084 43.0299,317.084 40,322.5C 37.4483,326.322 34.4483,326.988 31,324.5C 30.3333,321.833 30.3333,319.167 31,316.5C 32.8381,309.148 34.6714,301.814 36.5,294.5C 38.1288,293.375 39.6288,292.041 41,290.5C 45.4186,283.328 50.0852,276.328 55,269.5C 57.8565,265.414 61.3565,262.081 65.5,259.5 Z"/></g>
<g><path style="opacity:1" fill="#261300" d="M 531.5,258.5 C 535.757,261.251 539.59,264.584 543,268.5C 548.391,275.559 553.391,282.893 558,290.5C 559.371,292.041 560.871,293.375 562.5,294.5C 564.482,301.427 566.315,308.427 568,315.5C 569.813,327.058 566.48,329.058 558,321.5C 554.718,315.063 550.884,309.729 546.5,305.5C 541.849,289.83 536.849,274.163 531.5,258.5 Z"/></g>
<g><path style="opacity:1" fill="#483220" d="M 531.5,258.5 C 536.849,274.163 541.849,289.83 546.5,305.5C 548.007,312.529 549.674,319.529 551.5,326.5C 550.471,329.514 549.471,332.514 548.5,335.5C 546.177,323.196 543.344,310.863 540,298.5C 536.033,286.299 532.533,273.966 529.5,261.5C 529.942,260.261 530.609,259.261 531.5,258.5 Z"/></g>
<g><path style="opacity:1" fill="#010202" d="M 280.5,263.5 C 297.821,261.95 314.488,264.45 330.5,271C 342.066,279.397 345.899,290.564 342,304.5C 333.285,322.198 319.119,332.698 299.5,336C 279.513,336.925 263.013,329.758 250,314.5C 242.636,303.371 241.636,291.705 247,279.5C 256.104,269.697 267.271,264.363 280.5,263.5 Z"/></g>
<g><path style="opacity:1" fill="#493421" d="M 70.5,436.5 C 70.6602,434.801 70.4935,433.134 70,431.5C 68.0574,437.328 65.724,442.995 63,448.5C 59.2055,451.418 56.8722,450.418 56,445.5C 55.5026,442.854 55.3359,440.187 55.5,437.5C 56.1735,424.105 57.5068,410.772 59.5,397.5C 59.4805,396.274 59.1471,395.274 58.5,394.5C 62.559,382.491 66.7256,370.491 71,358.5C 71.7922,356.413 72.9588,354.579 74.5,353C 75.9961,352.493 77.1627,352.993 78,354.5C 78.6667,359.833 78.6667,365.167 78,370.5C 76.6296,376.09 75.6296,381.757 75,387.5C 73.0248,403.948 71.5248,420.281 70.5,436.5 Z"/></g>
<g><path style="opacity:1" fill="#4a3421" d="M 533.5,373.5 C 532.876,373.917 532.543,374.584 532.5,375.5C 536.471,391.935 538.804,408.602 539.5,425.5C 540.917,433.223 540.75,440.89 539,448.5C 538.163,450.007 536.996,450.507 535.5,450C 532.193,447.222 530.026,443.722 529,439.5C 528.503,441.81 528.337,444.143 528.5,446.5C 527.726,420.826 525.226,395.159 521,369.5C 520.333,364.167 520.333,358.833 521,353.5C 522.049,352.483 523.216,352.316 524.5,353C 527.901,359.638 530.901,366.471 533.5,373.5 Z"/></g>
<g><path style="opacity:1" fill="#010202" d="M 336.5,387.5 C 336.5,382.833 336.5,378.167 336.5,373.5C 322.347,372.382 308.181,371.382 294,370.5C 279.183,371.804 264.35,372.804 249.5,373.5C 249.337,378.547 249.671,383.547 250.5,388.5C 247.533,382.809 245.866,376.642 245.5,370C 245.281,362.548 248.948,358.548 256.5,358C 276.735,354.313 297.069,353.646 317.5,356C 324.797,356.759 331.797,358.592 338.5,361.5C 340.042,363.879 340.709,366.546 340.5,369.5C 340.295,375.873 338.961,381.873 336.5,387.5 Z"/></g>
<g><path style="opacity:1" fill="#f09c9f" d="M 336.5,387.5 C 334.587,402.981 329.087,416.981 320,429.5C 309.629,441.4 296.795,445.234 281.5,441C 277.912,439.037 274.245,437.37 270.5,436C 265.344,429.363 260.677,422.363 256.5,415C 253.63,406.354 251.63,397.521 250.5,388.5C 249.671,383.547 249.337,378.547 249.5,373.5C 264.35,372.804 279.183,371.804 294,370.5C 308.181,371.382 322.347,372.382 336.5,373.5C 336.5,378.167 336.5,382.833 336.5,387.5 Z"/></g>
<g><path style="opacity:1" fill="#271300" d="M 533.5,373.5 C 537.763,387.124 541.93,400.79 546,414.5C 547.455,417.912 549.288,421.079 551.5,424C 553.265,424.64 554.932,424.473 556.5,423.5C 557.259,433.16 557.426,442.826 557,452.5C 555.174,456.037 552.84,456.371 550,453.5C 545.976,444.251 542.476,434.917 539.5,425.5C 538.804,408.602 536.471,391.935 532.5,375.5C 532.543,374.584 532.876,373.917 533.5,373.5 Z"/></g>
<g><path style="opacity:1" fill="#271300" d="M 58.5,394.5 C 59.1471,395.274 59.4805,396.274 59.5,397.5C 57.5068,410.772 56.1735,424.105 55.5,437.5C 53.3844,442.41 51.2178,447.41 49,452.5C 47.5402,455.21 45.5402,455.876 43,454.5C 41.2439,444.243 41.0773,433.909 42.5,423.5C 45.7325,424.844 48.2325,423.844 50,420.5C 53.3357,411.993 56.169,403.326 58.5,394.5 Z"/></g>
<g><path style="opacity:1" fill="#4a3421" d="M 146.5,448.5 C 143.676,450.8 141.843,453.8 141,457.5C 138.498,470.208 135.998,482.875 133.5,495.5C 131.558,512.813 129.724,530.147 128,547.5C 127.422,550.903 126.255,554.07 124.5,557C 121.632,557.64 119.965,556.473 119.5,553.5C 117.523,549.482 116.357,545.148 116,540.5C 115.617,539.944 115.117,539.611 114.5,539.5C 115.931,537.811 116.764,535.811 117,533.5C 119.557,506.72 122.89,480.054 127,453.5C 128.863,444.381 131.196,435.381 134,426.5C 135.08,422.888 137.247,421.888 140.5,423.5C 144.148,431.442 146.148,439.776 146.5,448.5 Z"/></g>
<g><path style="opacity:1" fill="#4a3421" d="M 482.5,536.5 C 480.923,539.979 479.59,543.645 478.5,547.5C 478.196,550.579 477.196,553.413 475.5,556C 471.774,556.961 469.608,555.461 469,551.5C 467.334,536.511 465.834,521.511 464.5,506.5C 461.867,488.711 458.367,471.044 454,453.5C 453.392,451.934 452.558,450.6 451.5,449.5C 452.492,440.561 454.658,431.894 458,423.5C 459.667,422.167 461.333,422.167 463,423.5C 464.528,426.417 465.861,429.417 467,432.5C 469,442.5 471,452.5 473,462.5C 475.991,487.265 479.158,511.932 482.5,536.5 Z"/></g>
<g><path style="opacity:1" fill="#4a3421" d="M 100.5,484.5 C 99.71,483.391 99.21,482.058 99,480.5C 98.4867,481.527 97.9867,482.527 97.5,483.5C 95.2148,493.588 92.5482,503.588 89.5,513.5C 88.7261,514.711 87.8928,514.711 87,513.5C 85.5877,509.272 84.7544,504.939 84.5,500.5C 83.1285,492.758 82.1285,485.091 81.5,477.5C 84.1498,467.902 86.6498,458.235 89,448.5C 90.828,442.508 93.328,436.841 96.5,431.5C 97.2811,432.729 97.7811,434.062 98,435.5C 98.0507,451.897 98.884,468.23 100.5,484.5 Z"/></g>
<g><path style="opacity:1" fill="#4a3421" d="M 514.5,466.5 C 513.808,475.401 513.141,484.401 512.5,493.5C 512.613,500.907 511.113,507.907 508,514.5C 504.014,507.037 501.514,499.037 500.5,490.5C 500.204,488.597 499.537,486.93 498.5,485.5C 499.821,467.876 500.654,450.209 501,432.5C 501.667,431.167 502.333,431.167 503,432.5C 507.895,443.482 511.729,454.816 514.5,466.5 Z"/></g>
<g><path style="opacity:1" fill="#281511" d="M 146.5,448.5 C 148.426,462.759 149.759,477.093 150.5,491.5C 149.527,493.948 149.194,496.615 149.5,499.5C 148.159,506.331 146.993,513.331 146,520.5C 143.226,525.818 140.893,525.484 139,519.5C 137.451,512.206 136.118,504.873 135,497.5C 134.722,496.584 134.222,495.918 133.5,495.5C 135.998,482.875 138.498,470.208 141,457.5C 141.843,453.8 143.676,450.8 146.5,448.5 Z"/></g>
<g><path style="opacity:1" fill="#4a3421" d="M 177.5,499.5 C 176.861,503.816 175.861,508.149 174.5,512.5C 173.63,521.684 171.796,530.684 169,539.5C 168.125,542.215 166.292,543.548 163.5,543.5C 162.965,539.181 162.465,534.848 162,530.5C 161.901,528.347 161.067,526.681 159.5,525.5C 161.09,521.902 162.59,518.236 164,514.5C 167.973,493.274 171.306,471.94 174,450.5C 174.143,466.915 175.31,483.248 177.5,499.5 Z"/></g>
<g><path style="opacity:1" fill="#281511" d="M 451.5,449.5 C 452.558,450.6 453.392,451.934 454,453.5C 458.367,471.044 461.867,488.711 464.5,506.5C 463.883,506.611 463.383,506.944 463,507.5C 462.409,512.727 461.076,517.727 459,522.5C 458.163,524.007 456.996,524.507 455.5,524C 454.283,522.352 453.45,520.519 453,518.5C 452.369,510.278 451.203,502.278 449.5,494.5C 449.747,491.061 449.414,487.728 448.5,484.5C 449.55,472.847 450.55,461.18 451.5,449.5 Z"/></g>
<g><path style="opacity:1" fill="#4a3421" d="M 436.5,520.5 C 435.178,527.382 433.845,534.382 432.5,541.5C 432.157,543.225 431.157,543.725 429.5,543C 425.53,536.032 423.197,528.532 422.5,520.5C 421.354,516.606 420.521,512.606 420,508.5C 419.617,509.056 419.117,509.389 418.5,509.5C 420.785,501.356 422.285,493.023 423,484.5C 423.333,473.833 423.667,463.167 424,452.5C 426.753,468.097 429.087,483.764 431,499.5C 432.062,506.752 433.896,513.752 436.5,520.5 Z"/></g>
<g><path style="opacity:1" fill="#493321" d="M 378.5,550.5 C 376.623,555.925 374.456,561.259 372,566.5C 370.951,568.618 369.451,570.284 367.5,571.5C 366.178,571.67 365.011,571.337 364,570.5C 361.175,560.306 360.675,549.973 362.5,539.5C 364.395,523.363 365.229,507.03 365,490.5C 364.107,489.289 363.274,489.289 362.5,490.5C 361.197,495.417 359.53,500.084 357.5,504.5C 360.091,492.392 363.258,480.392 367,468.5C 367.853,466.875 368.853,466.542 370,467.5C 369.256,494.177 368.256,520.844 367,547.5C 368.641,558.109 372.475,559.109 378.5,550.5 Z"/></g>
<g><path style="opacity:1" fill="#493421" d="M 357.5,504.5 C 357.5,505.833 357.5,507.167 357.5,508.5C 353.734,520.07 349.9,531.736 346,543.5C 342.885,552.398 339.218,561.064 335,569.5C 331.109,576.402 325.276,579.236 317.5,578C 315.372,575.727 313.705,573.227 312.5,570.5C 310.983,559.659 308.983,548.992 306.5,538.5C 306.473,531.333 304.639,524.666 301,518.5C 299,515.833 297,515.833 295,518.5C 293.382,522.068 292.049,525.735 291,529.5C 288.51,544.616 285.51,559.616 282,574.5C 279.045,578.277 275.212,579.443 270.5,578C 263.376,573.273 258.543,566.773 256,558.5C 251.561,545.675 247.061,533.009 242.5,520.5C 240.19,510.111 237.19,499.944 233.5,490C 232.668,489.312 232.002,489.479 231.5,490.5C 230.898,492.608 230.565,494.775 230.5,497C 231.619,508.832 232.619,520.665 233.5,532.5C 234.453,543.486 234.619,554.486 234,565.5C 233.427,567.641 232.594,569.641 231.5,571.5C 228.737,571.256 226.571,569.923 225,567.5C 221.667,560.167 218.333,552.833 215,545.5C 212.461,541.624 210.128,541.624 208,545.5C 207.174,548.793 206.674,552.126 206.5,555.5C 205.396,558.81 203.729,561.81 201.5,564.5C 200.504,564.586 199.671,564.252 199,563.5C 196.338,558.343 194.171,553.01 192.5,547.5C 193.756,547.904 194.923,548.571 196,549.5C 196.772,549.355 197.439,549.022 198,548.5C 200.636,541.364 202.636,534.031 204,526.5C 204.689,525.643 205.522,524.977 206.5,524.5C 208.761,525.682 210.595,527.349 212,529.5C 215.216,538.034 218.883,546.367 223,554.5C 225.939,557.509 228.272,557.176 230,553.5C 231.054,548.233 231.554,542.899 231.5,537.5C 230.345,517.655 229.012,497.822 227.5,478C 227.667,474.833 227.833,471.667 228,468.5C 228.308,467.692 228.808,467.025 229.5,466.5C 230.948,468.667 232.115,471 233,473.5C 239.047,498.309 246.713,522.642 256,546.5C 258.994,554.365 264.161,560.199 271.5,564C 276.274,565.361 279.774,563.861 282,559.5C 285.894,540.47 289.894,521.47 294,502.5C 295.45,498.329 298.117,496.995 302,498.5C 303.275,500.717 304.275,503.051 305,505.5C 308.763,522.074 312.096,538.741 315,555.5C 316.067,560.567 319.067,563.567 324,564.5C 331.381,562.795 336.714,558.462 340,551.5C 346.357,535.917 352.191,520.25 357.5,504.5 Z"/></g>
<g><path style="opacity:1" fill="#271300" d="M 514.5,466.5 C 515.802,476.395 518.636,485.728 523,494.5C 525.11,491.508 526.443,488.175 527,484.5C 527.174,479.316 527.674,474.316 528.5,469.5C 529.312,488.017 527.979,506.351 524.5,524.5C 522.876,524.64 521.71,523.973 521,522.5C 518.606,512.568 515.772,502.901 512.5,493.5C 513.141,484.401 513.808,475.401 514.5,466.5 Z"/></g>
<g><path style="opacity:1" fill="#271300" d="M 81.5,477.5 C 82.1285,485.091 83.1285,492.758 84.5,500.5C 83.8826,500.611 83.3826,500.944 83,501.5C 81.0054,509.144 79.1721,516.811 77.5,524.5C 76.1779,524.67 75.0113,524.337 74,523.5C 71.0125,508.985 69.8458,494.319 70.5,479.5C 71.7479,482.942 72.5812,486.608 73,490.5C 73.6152,492.116 74.6152,493.449 76,494.5C 78.9067,489.216 80.7401,483.549 81.5,477.5 Z"/></g>
<g><path style="opacity:1" fill="#271300" d="M 448.5,484.5 C 449.414,487.728 449.747,491.061 449.5,494.5C 448.149,515.304 445.649,535.971 442,556.5C 440.413,557.727 439.079,557.394 438,555.5C 436.204,551.317 434.871,546.984 434,542.5C 433.617,541.944 433.117,541.611 432.5,541.5C 433.845,534.382 435.178,527.382 436.5,520.5C 436.871,524.205 438.871,526.205 442.5,526.5C 444.503,512.37 446.503,498.37 448.5,484.5 Z"/></g>
<g><path style="opacity:1" fill="#271300" d="M 498.5,485.5 C 499.537,486.93 500.204,488.597 500.5,490.5C 499.311,516.666 495.811,542.666 490,568.5C 488.174,572.037 485.84,572.371 483,569.5C 481.122,562.977 480.122,556.31 480,549.5C 479.722,548.584 479.222,547.918 478.5,547.5C 479.59,543.645 480.923,539.979 482.5,536.5C 482.511,538.017 483.177,539.184 484.5,540C 488.226,540.961 490.392,539.461 491,535.5C 494.575,518.978 497.075,502.311 498.5,485.5 Z"/></g>
<g><path style="opacity:1" fill="#271301" d="M 100.5,484.5 C 101.405,500.999 103.571,517.333 107,533.5C 107.795,535.901 108.962,538.068 110.5,540C 112.066,540.765 113.399,540.598 114.5,539.5C 115.117,539.611 115.617,539.944 116,540.5C 116.357,545.148 117.523,549.482 119.5,553.5C 118.199,559.099 116.699,564.765 115,570.5C 111.057,572.251 108.723,570.918 108,566.5C 102.166,540.496 99.1662,514.163 99,487.5C 98.79,485.942 98.29,484.609 97.5,483.5C 97.9867,482.527 98.4867,481.527 99,480.5C 99.21,482.058 99.71,483.391 100.5,484.5 Z"/></g>
<g><path style="opacity:1" fill="#281511" d="M 242.5,520.5 C 242.717,525.23 242.383,529.897 241.5,534.5C 240.739,535.391 239.739,536.058 238.5,536.5C 236.423,535.677 234.756,534.344 233.5,532.5C 232.619,520.665 231.619,508.832 230.5,497C 230.565,494.775 230.898,492.608 231.5,490.5C 232.002,489.479 232.668,489.312 233.5,490C 237.19,499.944 240.19,510.111 242.5,520.5 Z"/></g>
<g><path style="opacity:1" fill="#281511" d="M 362.5,539.5 C 362.5,538.5 362.5,537.5 362.5,536.5C 359.6,536.592 357.933,535.259 357.5,532.5C 356.562,524.522 356.562,516.522 357.5,508.5C 357.5,507.167 357.5,505.833 357.5,504.5C 359.53,500.084 361.197,495.417 362.5,490.5C 363.274,489.289 364.107,489.289 365,490.5C 365.229,507.03 364.395,523.363 362.5,539.5 Z"/></g>
<g><path style="opacity:1" fill="#271300" d="M 150.5,491.5 C 151.997,502.748 153.831,514.082 156,525.5C 157.145,526.684 158.312,526.684 159.5,525.5C 161.067,526.681 161.901,528.347 162,530.5C 162.465,534.848 162.965,539.181 163.5,543.5C 163.231,548.994 161.231,553.66 157.5,557.5C 156.808,556.975 156.308,556.308 156,555.5C 153.284,536.89 151.117,518.224 149.5,499.5C 149.194,496.615 149.527,493.948 150.5,491.5 Z"/></g>
<g><path style="opacity:1" fill="#271300" d="M 177.5,499.5 C 181.575,515.803 186.575,531.803 192.5,547.5C 194.171,553.01 196.338,558.343 199,563.5C 199.671,564.252 200.504,564.586 201.5,564.5C 201.472,570.509 199.638,575.843 196,580.5C 195,579.5 194,578.5 193,577.5C 183.689,555.813 177.523,534.146 174.5,512.5C 175.861,508.149 176.861,503.816 177.5,499.5 Z"/></g>
<g><path style="opacity:1" fill="#271300" d="M 357.5,508.5 C 356.562,516.522 356.562,524.522 357.5,532.5C 352.291,550.627 345.791,568.294 338,585.5C 334.578,591.465 329.411,594.799 322.5,595.5C 320.272,594.781 318.439,593.448 317,591.5C 314.706,584.66 313.206,577.66 312.5,570.5C 313.705,573.227 315.372,575.727 317.5,578C 325.276,579.236 331.109,576.402 335,569.5C 339.218,561.064 342.885,552.398 346,543.5C 349.9,531.736 353.734,520.07 357.5,508.5 Z"/></g>
<g><path style="opacity:1" fill="#271300" d="M 422.5,520.5 C 419.566,540.646 413.566,559.979 404.5,578.5C 402.994,579.747 401.494,579.747 400,578.5C 398.51,573.871 397.343,569.204 396.5,564.5C 399.602,559.537 401.935,554.204 403.5,548.5C 406.081,545.68 407.914,542.346 409,538.5C 412.679,528.964 415.845,519.298 418.5,509.5C 419.117,509.389 419.617,509.056 420,508.5C 420.521,512.606 421.354,516.606 422.5,520.5 Z"/></g>
<g><path style="opacity:1" fill="#271300" d="M 306.5,538.5 C 305.005,535.347 303.338,532.181 301.5,529C 298.692,528.08 296.525,528.913 295,531.5C 292.731,536.64 291.065,541.973 290,547.5C 287.774,560.522 285.441,573.522 283,586.5C 280.706,595.269 275.539,597.436 267.5,593C 261.14,587.138 256.64,579.971 254,571.5C 249.524,559.239 245.357,546.905 241.5,534.5C 242.383,529.897 242.717,525.23 242.5,520.5C 247.061,533.009 251.561,545.675 256,558.5C 258.543,566.773 263.376,573.273 270.5,578C 275.212,579.443 279.045,578.277 282,574.5C 285.51,559.616 288.51,544.616 291,529.5C 292.049,525.735 293.382,522.068 295,518.5C 297,515.833 299,515.833 301,518.5C 304.639,524.666 306.473,531.333 306.5,538.5 Z"/></g>
<g><path style="opacity:1" fill="#4a3421" d="M 403.5,548.5 C 401.935,554.204 399.602,559.537 396.5,564.5C 395.178,564.67 394.011,564.337 393,563.5C 392.153,561.146 391.32,558.812 390.5,556.5C 389.606,552.532 388.773,548.532 388,544.5C 384.711,541.759 382.211,542.425 380.5,546.5C 382.013,541.129 383.847,535.796 386,530.5C 387.346,527.821 389.346,525.821 392,524.5C 393.653,524.82 394.653,525.82 395,527.5C 395.859,534.371 397.525,541.038 400,547.5C 401.011,548.337 402.178,548.67 403.5,548.5 Z"/></g>
<g><path style="opacity:1" fill="#271300" d="M 231.5,571.5 C 231.515,575.56 231.015,579.56 230,583.5C 229.278,586.882 227.445,587.882 224.5,586.5C 219.287,578.377 215.121,569.71 212,560.5C 210.924,557.921 209.091,556.254 206.5,555.5C 206.674,552.126 207.174,548.793 208,545.5C 210.128,541.624 212.461,541.624 215,545.5C 218.333,552.833 221.667,560.167 225,567.5C 226.571,569.923 228.737,571.256 231.5,571.5 Z"/></g>
<g><path style="opacity:1" fill="#271300" d="M 390.5,556.5 C 388.549,557.716 387.049,559.382 386,561.5C 383.804,566.42 381.804,571.42 380,576.5C 378.46,580.419 376.293,583.919 373.5,587C 371.633,587.711 370.133,587.211 369,585.5C 367.775,580.915 367.275,576.248 367.5,571.5C 369.451,570.284 370.951,568.618 372,566.5C 374.456,561.259 376.623,555.925 378.5,550.5C 379.674,549.486 380.34,548.153 380.5,546.5C 382.211,542.425 384.711,541.759 388,544.5C 388.773,548.532 389.606,552.532 390.5,556.5 Z"/></g>
</svg>
