<?xml version="1.0" encoding="UTF-8"?>
<!DOCTYPE svg PUBLIC "-//W3C//DTD SVG 1.1//EN" "http://www.w3.org/Graphics/SVG/1.1/DTD/svg11.dtd">
<svg xmlns="http://www.w3.org/2000/svg" version="1.1" width="600px" height="600px" style="shape-rendering:geometricPrecision; text-rendering:geometricPrecision; image-rendering:optimizeQuality; fill-rule:evenodd; clip-rule:evenodd" xmlns:xlink="http://www.w3.org/1999/xlink">
<g><path style="opacity:0.96" fill="#030302" d="M 108.5,-0.5 C 121.167,-0.5 133.833,-0.5 146.5,-0.5C 163.265,7.41772 178.598,17.5844 192.5,30C 212.439,47.602 230.605,66.7687 247,87.5C 248.845,90.183 251.345,91.8497 254.5,92.5C 271.505,89.2303 288.672,87.5636 306,87.5C 323.985,87.8318 341.818,89.3318 359.5,92C 369,81.1667 378.5,70.3333 388,59.5C 410.532,35.4397 436.032,15.4397 464.5,-0.5C 477.5,-0.5 490.5,-0.5 503.5,-0.5C 509.465,10.6789 512.965,22.6789 514,35.5C 516.163,58.1231 517.663,80.7898 518.5,103.5C 518.201,125.558 515.201,147.224 509.5,168.5C 520.519,169.22 524.685,174.887 522,185.5C 520.833,186.667 519.667,187.833 518.5,189C 512.085,191.472 505.752,194.138 499.5,197C 497.99,198.351 496.99,200.018 496.5,202C 502.879,206.7 509.545,211.033 516.5,215C 522.215,220.013 523.382,225.846 520,232.5C 513.797,237.115 507.13,237.781 500,234.5C 506.602,246.81 515.269,257.81 526,267.5C 532.041,279.021 528.874,286.687 516.5,290.5C 519.562,297.353 518.562,303.52 513.5,309C 517.825,315.598 518.325,322.432 515,329.5C 510.228,334.068 504.728,335.235 498.5,333C 495.582,331.291 492.748,329.458 490,327.5C 491.085,343.856 492.752,360.19 495,376.5C 495.117,398.014 495.284,419.514 495.5,441C 496.988,451.552 492.655,458.052 482.5,460.5C 480.618,459.907 478.785,459.24 477,458.5C 476.915,470.018 474.582,481.018 470,491.5C 465.286,496.182 459.953,497.182 454,494.5C 448.967,506.902 442.633,518.569 435,529.5C 426.03,539.47 416.697,549.137 407,558.5C 403.44,564.449 399.274,569.949 394.5,575C 386.453,578.779 379.619,577.279 374,570.5C 366.206,581.463 356.039,589.13 343.5,593.5C 338.678,593.089 334.678,591.089 331.5,587.5C 327.12,591.55 322.787,595.55 318.5,599.5C 308.167,599.5 297.833,599.5 287.5,599.5C 287.097,593.283 284.764,587.949 280.5,583.5C 278.198,588.807 274.198,591.807 268.5,592.5C 263.69,591.761 259.356,589.927 255.5,587C 248.99,581.656 242.99,575.823 237.5,569.5C 232.721,576.399 226.388,578.233 218.5,575C 213.546,568.924 208.713,562.757 204,556.5C 190.47,544.647 178.803,531.314 169,516.5C 165.061,508.955 161.394,501.288 158,493.5C 149.853,496.793 143.853,494.46 140,486.5C 137.314,477.027 135.814,467.36 135.5,457.5C 124.405,460.94 118.071,456.773 116.5,445C 117.704,427.69 117.704,410.357 116.5,393C 118.217,371.098 120.55,349.265 123.5,327.5C 123.333,326.833 123.167,326.167 123,325.5C 119.559,327.276 116.392,329.443 113.5,332C 98.3324,334.824 92.8324,328.657 97,313.5C 97.7065,311.919 98.5399,310.419 99.5,309C 92.768,302.895 92.1014,296.228 97.5,289C 83.7282,287.587 79.8948,280.754 86,268.5C 91.3009,262.198 96.9675,256.198 103,250.5C 106.891,245.607 110.391,240.44 113.5,235C 108.289,236.131 102.956,236.464 97.5,236C 90.2727,232.645 88.1061,227.145 91,219.5C 92.8333,217.667 94.6667,215.833 96.5,214C 103.213,210.317 109.546,206.15 115.5,201.5C 114.376,200.086 113.376,198.586 112.5,197C 105.466,193.992 98.4659,190.992 91.5,188C 86.5069,182.205 86.8402,176.539 92.5,171C 95.8333,169.833 99.1667,168.667 102.5,167.5C 94.7106,140.034 91.8773,112.034 94,83.5C 95.0868,64.1091 96.7534,44.7758 99,25.5C 100.043,15.9505 103.21,7.28385 108.5,-0.5 Z"/></g>
<g><path style="opacity:1" fill="#e0c8ab" d="M 118.5,4.5 C 130.559,4.90651 141.893,8.07318 152.5,14C 179.666,31.1523 203.833,51.9857 225,76.5C 230.833,83.6667 236.667,90.8333 242.5,98C 245.849,100.759 249.683,102.259 254,102.5C 280.026,98.6562 306.192,97.4895 332.5,99C 342.424,101.038 352.424,102.038 362.5,102C 366.916,99.5883 370.749,96.4217 374,92.5C 397.036,62.4603 424.202,36.9603 455.5,16C 465.256,10.4483 475.59,6.61496 486.5,4.5C 492.85,3.75829 497.017,6.42495 499,12.5C 500.843,18.3835 502.177,24.3835 503,30.5C 508.383,69.4709 508.716,108.471 504,147.5C 501.565,157.402 498.731,167.235 495.5,177C 495.645,177.772 495.978,178.439 496.5,179C 502.167,179.333 507.833,179.667 513.5,180C 506.302,182.619 499.302,185.619 492.5,189C 488.878,194.956 484.211,199.956 478.5,204C 488.5,210 498.5,216 508.5,222C 509.687,223.019 510.687,224.186 511.5,225.5C 510.667,225.833 509.833,226.167 509,226.5C 500.509,224.769 492.009,223.102 483.5,221.5C 486.059,234.285 491.559,245.618 500,255.5C 505.301,261.802 510.968,267.802 517,273.5C 518.009,275.025 518.509,276.692 518.5,278.5C 508.729,276.575 499.395,273.242 490.5,268.5C 490.167,269 489.833,269.5 489.5,270C 490.53,272.56 491.697,275.06 493,277.5C 497.667,283.5 502.333,289.5 507,295.5C 507.798,297.259 507.631,298.926 506.5,300.5C 500.684,297.741 494.684,295.908 488.5,295C 493,300.167 497.5,305.333 502,310.5C 504.992,314.31 506.492,318.643 506.5,323.5C 502.357,322.762 498.69,320.929 495.5,318C 481.001,312.82 475.501,317.986 479,333.5C 480.585,347.844 482.251,362.177 484,376.5C 484.162,400.518 484.162,424.518 484,448.5C 482.887,449.711 481.72,449.711 480.5,448.5C 476.164,442.667 471.331,437.333 466,432.5C 465.667,432.833 465.333,433.167 465,433.5C 465.1,445.831 465.1,458.164 465,470.5C 464.529,475.362 463.362,480.029 461.5,484.5C 460.5,485.833 459.5,485.833 458.5,484.5C 457.403,480.585 456.736,476.585 456.5,472.5C 463.297,444.408 456.297,420.575 435.5,401C 419.004,388.913 400.671,381.58 380.5,379C 379.975,379.692 379.308,380.192 378.5,380.5C 376.142,369.953 372.975,359.62 369,349.5C 358.449,326.399 348.449,303.065 339,279.5C 334.453,263.455 332.786,247.122 334,230.5C 338.037,208.352 342.704,186.352 348,164.5C 355.302,114.472 334.136,94.6385 284.5,105C 271.774,111.296 264.608,121.462 263,135.5C 262.155,148.243 262.822,160.91 265,173.5C 268.689,190.922 272.689,208.256 277,225.5C 279.734,247.489 277.067,268.823 269,289.5C 258.983,312.197 248.983,334.864 239,357.5C 236.859,365.06 234.859,372.727 233,380.5C 229.369,378.65 225.536,378.15 221.5,379C 214.893,381.975 207.893,383.975 200.5,385C 186.638,390.681 174.805,399.181 165,410.5C 152.426,427.707 149.26,446.541 155.5,467C 155.023,472.803 154.023,478.47 152.5,484C 151.551,484.617 150.718,484.451 150,483.5C 148.842,479.203 147.842,474.869 147,470.5C 146.706,457.832 146.873,445.165 147.5,432.5C 145.692,432.491 144.025,432.991 142.5,434C 138.5,438.667 134.5,443.333 130.5,448C 129.552,448.483 128.552,448.649 127.5,448.5C 128.267,424.507 128.434,400.507 128,376.5C 131.154,357.943 132.821,339.276 133,320.5C 130.301,314.279 125.801,312.779 119.5,316C 115.054,318.523 110.721,320.856 106.5,323C 105.591,319.245 106.425,315.745 109,312.5C 113.271,306.392 118.104,300.726 123.5,295.5C 121.579,294.359 119.579,294.192 117.5,295C 113.332,297.089 108.998,298.589 104.5,299.5C 104.841,296.484 106.007,293.818 108,291.5C 111.76,286.317 115.76,281.317 120,276.5C 121.341,273.978 122.174,271.311 122.5,268.5C 112.924,272.123 103.257,275.456 93.5,278.5C 93.6079,276.217 94.4412,274.217 96,272.5C 111.853,259.45 122.687,243.116 128.5,223.5C 128.566,221.734 127.732,220.734 126,220.5C 118.085,222.82 110.085,224.82 102,226.5C 101.167,226.167 100.333,225.833 99.5,225.5C 99.6667,225.167 99.8333,224.833 100,224.5C 110.916,217.29 122.083,210.457 133.5,204C 131.167,202.333 128.833,200.667 126.5,199C 123.978,194.966 120.978,191.299 117.5,188C 111.077,185.482 104.744,182.815 98.5,180C 104.167,179.667 109.833,179.333 115.5,179C 115.957,178.586 116.291,178.086 116.5,177.5C 107.332,152.157 103.332,125.99 104.5,99C 104.698,77.1181 105.865,55.2847 108,33.5C 108.963,26.7578 110.296,20.0911 112,13.5C 113.611,10.0624 115.777,7.06241 118.5,4.5 Z"/></g>
<g><path style="opacity:1" fill="#d3b89b" d="M 128.5,25.5 C 135.577,25.8027 142.243,27.636 148.5,31C 174.686,48.5339 195.519,71.0339 211,98.5C 212.745,107.68 210.411,115.68 204,122.5C 187.27,136.441 171.77,151.607 157.5,168C 144.521,176.785 135.355,173.619 130,158.5C 125.511,146.568 122.844,134.234 122,121.5C 120.481,93.851 120.147,66.1844 121,38.5C 121.692,35.0636 122.692,31.7302 124,28.5C 125.652,27.6006 127.152,26.6006 128.5,25.5 Z"/></g>
<g><path style="opacity:1" fill="#d3b89b" d="M 477.5,25.5 C 484.33,24.8327 488.496,27.8327 490,34.5C 492.015,65.518 491.681,96.518 489,127.5C 487.505,140.817 483.838,153.484 478,165.5C 472.341,174.028 465.174,175.528 456.5,170C 440.688,152.522 423.855,136.022 406,120.5C 400.901,113.627 399.235,105.96 401,97.5C 415.93,70.9003 436.097,49.0669 461.5,32C 466.744,29.315 472.077,27.1484 477.5,25.5 Z"/></g>
<g><path style="opacity:1" fill="#bcaa95" d="M 315.5,108.5 C 307.149,108.482 298.816,108.815 290.5,109.5C 295.245,108.001 300.245,107.334 305.5,107.5C 309.018,107.502 312.351,107.835 315.5,108.5 Z"/></g>
<g><path style="opacity:1" fill="#f5f5f5" d="M 315.5,108.5 C 318.829,108.215 321.829,108.882 324.5,110.5C 329.335,113.095 333.669,116.429 337.5,120.5C 339.873,122.579 341.206,125.246 341.5,128.5C 342.558,136.461 343.225,144.461 343.5,152.5C 343.5,152.833 343.5,153.167 343.5,153.5C 342.318,159.301 341.652,165.301 341.5,171.5C 335.566,190.306 331.066,209.64 328,229.5C 326.077,250.116 328.744,270.116 336,289.5C 343.451,307.736 351.451,325.736 360,343.5C 368.869,363.367 373.702,384.034 374.5,405.5C 374.833,405.5 375.167,405.5 375.5,405.5C 378.158,399.019 381.158,392.019 384.5,384.5C 405.488,389.075 423.654,398.741 439,413.5C 449.251,427.429 453.751,443.096 452.5,460.5C 448.564,486.032 438.398,508.699 422,528.5C 409.848,539.311 399.181,551.311 390,564.5C 388.211,566.229 386.044,566.896 383.5,566.5C 383.305,562.085 383.805,557.751 385,553.5C 387.667,546.167 390.333,538.833 393,531.5C 394.123,525.563 392.789,524.563 389,528.5C 380.991,542.524 371.991,555.858 362,568.5C 356.959,573.598 351.459,578.098 345.5,582C 343.888,582.72 342.388,582.554 341,581.5C 342.565,574.942 344.065,568.275 345.5,561.5C 345.779,558.994 344.946,556.994 343,555.5C 334.625,567.548 325.125,578.715 314.5,589C 309.674,593.415 304.007,595.582 297.5,595.5C 296.849,588.709 294.349,582.709 290,577.5C 282.774,570.61 275.941,563.443 269.5,556C 266.082,555.351 264.749,556.851 265.5,560.5C 267.374,567.453 269.04,574.453 270.5,581.5C 268.011,581.702 265.677,581.202 263.5,580C 246.96,565.795 233.793,548.961 224,529.5C 222.429,527.077 220.263,525.744 217.5,525.5C 220.852,537.726 224.519,549.893 228.5,562C 227.838,566.504 225.838,567.337 222.5,564.5C 220,560.833 217.5,557.167 215,553.5C 206.03,543.53 196.697,533.863 187,524.5C 172.914,505.659 163.747,484.659 159.5,461.5C 158.319,452.842 158.319,444.176 159.5,435.5C 160.097,429.025 162.43,423.358 166.5,418.5C 172.868,411.131 179.868,404.464 187.5,398.5C 193.401,393.884 200.068,390.884 207.5,389.5C 207.435,389.938 207.601,390.272 208,390.5C 214.581,387.646 221.414,385.646 228.5,384.5C 230.5,390.833 232.5,397.167 234.5,403.5C 235.5,403.5 236.5,403.5 237.5,403.5C 238.021,393.057 239.354,382.724 241.5,372.5C 244.133,362.226 247.633,352.226 252,342.5C 259.608,326.285 266.941,309.952 274,293.5C 288.035,258.27 287.869,223.27 273.5,188.5C 271.291,181.446 269.958,174.112 269.5,166.5C 269.291,156.828 268.958,147.161 268.5,137.5C 268.336,131.46 270.003,126.127 273.5,121.5C 276.297,119.205 278.964,116.705 281.5,114C 284.592,112.454 287.592,110.954 290.5,109.5C 298.816,108.815 307.149,108.482 315.5,108.5 Z"/></g>
<g><path style="opacity:1" fill="#bba892" d="M 290.5,109.5 C 287.592,110.954 284.592,112.454 281.5,114C 278.964,116.705 276.297,119.205 273.5,121.5C 276.937,114.404 282.604,110.404 290.5,109.5 Z"/></g>
<g><path style="opacity:1" fill="#b9a690" d="M 324.5,110.5 C 330.526,111.675 334.859,115.008 337.5,120.5C 333.669,116.429 329.335,113.095 324.5,110.5 Z"/></g>
<g><path style="opacity:1" fill="#c8b8a6" d="M 341.5,128.5 C 344.152,136.37 344.819,144.37 343.5,152.5C 343.225,144.461 342.558,136.461 341.5,128.5 Z"/></g>
<g><path style="opacity:1" fill="#cdbeae" d="M 268.5,137.5 C 268.958,147.161 269.291,156.828 269.5,166.5C 267.469,156.877 267.135,147.211 268.5,137.5 Z"/></g>
<g><path style="opacity:1" fill="#beac97" d="M 343.5,153.5 C 343.724,159.739 343.057,165.739 341.5,171.5C 341.652,165.301 342.318,159.301 343.5,153.5 Z"/></g>
<g><path style="opacity:1" fill="#3c3c3a" d="M 219.5,222.5 C 239.391,220.07 250.391,228.737 252.5,248.5C 251.307,259.846 245.641,268.013 235.5,273C 220.643,277.984 209.81,273.484 203,259.5C 198.231,242.383 203.731,230.05 219.5,222.5 Z"/></g>
<g><path style="opacity:1" fill="#3a3a39" d="M 381.5,222.5 C 401.252,224.084 410.419,234.751 409,254.5C 401.733,273.369 388.9,278.535 370.5,270C 355.558,255.239 355.892,240.905 371.5,227C 374.815,225.17 378.149,223.67 381.5,222.5 Z"/></g>
<g><path style="opacity:1" fill="#030404" d="M 222.5,227.5 C 239.765,227.598 247.931,236.265 247,253.5C 241.253,267.957 231.086,272.457 216.5,267C 206.203,258.639 204.037,248.472 210,236.5C 213.299,232.118 217.466,229.118 222.5,227.5 Z"/></g>
<g><path style="opacity:1" fill="#020303" d="M 380.5,227.5 C 398.991,227.828 406.825,237.161 404,255.5C 397.803,268.567 387.97,272.4 374.5,267C 363.947,258.696 361.78,248.53 368,236.5C 371.299,232.118 375.466,229.118 380.5,227.5 Z"/></g>
<g><path style="opacity:1" fill="#f3f3f3" d="M 233.5,236.5 C 241.744,236.228 244.078,239.728 240.5,247C 233.243,249.746 230.077,247.246 231,239.5C 231.698,238.309 232.531,237.309 233.5,236.5 Z"/></g>
<g><path style="opacity:1" fill="#f1f1f1" d="M 390.5,236.5 C 399.16,235.687 401.827,239.187 398.5,247C 392.657,250.05 389.324,248.383 388.5,242C 388.395,239.822 389.061,237.988 390.5,236.5 Z"/></g>
<g><path style="opacity:1" fill="#c0af9a" d="M 273.5,188.5 C 287.869,223.27 288.035,258.27 274,293.5C 266.941,309.952 259.608,326.285 252,342.5C 247.633,352.226 244.133,362.226 241.5,372.5C 241.167,372.5 240.833,372.5 240.5,372.5C 242.899,361.804 246.399,351.47 251,341.5C 258.608,325.285 265.941,308.952 273,292.5C 282.119,270.966 285.119,248.633 282,225.5C 278.881,213.292 276.048,200.959 273.5,188.5 Z"/></g>
<g><path style="opacity:1" fill="#c3b3a1" d="M 341.5,171.5 C 336.647,190.926 332.48,210.592 329,230.5C 327.243,250.442 329.909,269.776 337,288.5C 344.451,306.736 352.451,324.736 361,342.5C 370.296,362.478 374.796,383.478 374.5,405.5C 373.702,384.034 368.869,363.367 360,343.5C 351.451,325.736 343.451,307.736 336,289.5C 328.744,270.116 326.077,250.116 328,229.5C 331.066,209.64 335.566,190.306 341.5,171.5 Z"/></g>
<g><path style="opacity:1" fill="#010202" d="M 296.5,366.5 C 307.39,365.8 318.057,366.967 328.5,370C 339.4,374.42 345.067,382.586 345.5,394.5C 343.654,418.844 330.488,431.511 306,432.5C 273.68,429.186 261.68,411.853 270,380.5C 276.708,371.73 285.542,367.063 296.5,366.5 Z"/></g>
<g><path style="opacity:1" fill="#cccac6" d="M 240.5,372.5 C 240.833,372.5 241.167,372.5 241.5,372.5C 239.354,382.724 238.021,393.057 237.5,403.5C 236.5,403.5 235.5,403.5 234.5,403.5C 232.5,397.167 230.5,390.833 228.5,384.5C 221.414,385.646 214.581,387.646 208,390.5C 207.601,390.272 207.435,389.938 207.5,389.5C 214.409,386.271 221.742,384.271 229.5,383.5C 231.359,389.91 233.526,396.243 236,402.5C 236.968,392.41 238.468,382.41 240.5,372.5 Z"/></g>
<g><path style="opacity:1" fill="#d1cecb" d="M 452.5,460.5 C 453.751,443.096 449.251,427.429 439,413.5C 423.654,398.741 405.488,389.075 384.5,384.5C 381.158,392.019 378.158,399.019 375.5,405.5C 376.974,397.381 379.974,390.048 384.5,383.5C 405.923,387.793 424.423,397.459 440,412.5C 450.856,426.877 455.022,442.877 452.5,460.5 Z"/></g>
<g><path style="opacity:1" fill="#c3b19e" d="M 187.5,398.5 C 179.868,404.464 172.868,411.131 166.5,418.5C 171.551,409.782 178.551,403.115 187.5,398.5 Z"/></g>
<g><path style="opacity:1" fill="#b7a897" d="M 159.5,435.5 C 158.319,444.176 158.319,452.842 159.5,461.5C 158.778,461.082 158.278,460.416 158,459.5C 157.833,456.333 157.667,453.167 157.5,450C 157.344,444.91 158.01,440.077 159.5,435.5 Z"/></g>
<g><path style="opacity:1" fill="#c2bebb" d="M 299.5,452.5 C 302.931,454.59 306.264,454.59 309.5,452.5C 312.456,453.137 315.456,453.637 318.5,454C 314.137,454.29 309.804,454.79 305.5,455.5C 301.529,454.803 297.529,454.303 293.5,454C 295.25,452.681 297.25,452.181 299.5,452.5 Z"/></g>
<g><path style="opacity:1" fill="#000000" d="M 299.5,452.5 C 302.833,452.5 306.167,452.5 309.5,452.5C 306.264,454.59 302.931,454.59 299.5,452.5 Z"/></g>
</svg>
