<?xml version="1.0" encoding="UTF-8"?>
<!DOCTYPE svg PUBLIC "-//W3C//DTD SVG 1.1//EN" "http://www.w3.org/Graphics/SVG/1.1/DTD/svg11.dtd">
<svg xmlns="http://www.w3.org/2000/svg" version="1.1" width="600px" height="600px" style="shape-rendering:geometricPrecision; text-rendering:geometricPrecision; image-rendering:optimizeQuality; fill-rule:evenodd; clip-rule:evenodd" xmlns:xlink="http://www.w3.org/1999/xlink">
<g><path style="opacity:0.957" fill="#000000" d="M 230.5,-0.5 C 238.5,-0.5 246.5,-0.5 254.5,-0.5C 268.715,6.6023 276.548,18.269 278,34.5C 279.145,43.1299 279.645,51.7966 279.5,60.5C 292.846,59.203 306.179,59.203 319.5,60.5C 320.816,52.891 321.65,45.2243 322,37.5C 323.027,20.4145 330.86,7.74778 345.5,-0.5C 353.833,-0.5 362.167,-0.5 370.5,-0.5C 420.843,9.00516 468.51,26.1718 513.5,51C 521.782,57.0634 526.282,65.23 527,75.5C 527.523,91.5609 525.189,107.228 520,122.5C 512.459,146.458 504.125,170.124 495,193.5C 491.595,203.716 488.595,214.049 486,224.5C 482.219,256.859 478.219,289.192 474,321.5C 470.322,346.89 465.489,372.057 459.5,397C 464.337,409.179 468.17,421.679 471,434.5C 473.526,448.689 472.859,462.689 469,476.5C 465.542,486.815 458.375,491.482 447.5,490.5C 447.714,497.887 446.214,504.887 443,511.5C 434.004,525.171 423.504,537.671 411.5,549C 407.173,552.499 402.506,555.499 397.5,558C 393.955,558.717 390.455,558.55 387,557.5C 384.625,560.394 382.125,563.228 379.5,566C 360.999,577.415 341.333,586.415 320.5,593C 317.079,594.699 314.079,596.865 311.5,599.5C 304.167,599.5 296.833,599.5 289.5,599.5C 285.939,596.468 281.939,593.968 277.5,592C 258.496,586.163 240.496,578.163 223.5,568C 219.578,564.749 216.412,560.916 214,556.5C 210.405,558.456 206.572,558.956 202.5,558C 184.623,545.79 169.789,530.623 158,512.5C 154.096,505.685 152.596,498.352 153.5,490.5C 144.889,491.943 138.389,488.943 134,481.5C 127.57,467.09 125.903,452.09 129,436.5C 131.568,422.798 135.734,409.632 141.5,397C 135.77,375.459 131.27,353.626 128,331.5C 122.968,295.207 118.301,258.874 114,222.5C 110.869,211.44 107.536,200.44 104,189.5C 90.7822,158.513 80.7822,126.513 74,93.5C 72.1326,81.2664 73.7992,69.5998 79,58.5C 89.1713,49.3541 100.671,42.1874 113.5,37C 151.029,19.5447 190.029,7.04467 230.5,-0.5 Z"/></g>
<g><path style="opacity:1" fill="#605143" d="M 254.5,12.5 C 230.062,37.6989 214.228,67.6989 207,102.5C 204.333,119.842 201.666,137.175 199,154.5C 197.904,159.26 195.071,162.427 190.5,164C 178.395,163.523 167.062,160.19 156.5,154C 130.141,136.976 109.308,114.809 94,87.5C 89.8044,79.5676 88.6377,71.2342 90.5,62.5C 93.3664,59.4789 96.6997,56.9789 100.5,55C 141.956,33.6255 185.623,18.6255 231.5,10C 238.5,9.33333 245.5,9.33333 252.5,10C 253.381,10.7083 254.047,11.5416 254.5,12.5 Z"/></g>
<g><path style="opacity:1" fill="#605143" d="M 510.5,63.5 C 511.828,70.7107 510.995,77.7107 508,84.5C 496.61,106.9 481.11,126.067 461.5,142C 446.705,154.567 429.705,161.9 410.5,164C 404.647,162.495 401.48,158.661 401,152.5C 398.742,134.774 396.076,117.107 393,99.5C 385.453,65.7227 369.62,36.7227 345.5,12.5C 346.058,11.2101 347.058,10.3768 348.5,10C 350.953,9.26177 353.453,8.76177 356,8.5C 408.062,15.8541 457.229,32.0208 503.5,57C 506.331,58.6657 508.664,60.8324 510.5,63.5 Z"/></g>
<g><path style="opacity:1" fill="#dfad57" d="M 254.5,12.5 C 260.78,16.3606 264.614,22.0273 266,29.5C 267.693,43.1551 269.026,56.8217 270,70.5C 272.075,71.1344 274.241,71.4677 276.5,71.5C 294.17,70.4265 311.837,70.2598 329.5,71C 330,70.5 330.5,70 331,69.5C 331.214,55.3807 332.547,41.3807 335,27.5C 336.555,21.0281 340.055,16.0281 345.5,12.5C 369.62,36.7227 385.453,65.7227 393,99.5C 396.076,117.107 398.742,134.774 401,152.5C 401.48,158.661 404.647,162.495 410.5,164C 429.705,161.9 446.705,154.567 461.5,142C 481.11,126.067 496.61,106.9 508,84.5C 510.995,77.7107 511.828,70.7107 510.5,63.5C 513.946,66.6348 515.779,70.6348 516,75.5C 516.442,92.6304 513.775,109.297 508,125.5C 500.758,147.562 492.924,169.395 484.5,191C 480.945,202.055 477.778,213.222 475,224.5C 471.219,256.859 467.219,289.192 463,321.5C 459.968,342.692 455.968,363.692 451,384.5C 429.958,347.458 400.458,319.291 362.5,300C 298.599,275.76 241.266,286.427 190.5,332C 174.137,347.591 160.304,365.091 149,384.5C 144.228,362.642 140.228,340.642 137,318.5C 132.999,286.493 128.999,254.493 125,222.5C 121.738,210.048 118.071,197.714 114,185.5C 102.265,157.629 92.9319,128.962 86,99.5C 84.5261,90.5464 84.1927,81.5464 85,72.5C 85.5599,68.3733 87.3932,65.04 90.5,62.5C 88.6377,71.2342 89.8044,79.5676 94,87.5C 109.308,114.809 130.141,136.976 156.5,154C 167.062,160.19 178.395,163.523 190.5,164C 195.071,162.427 197.904,159.26 199,154.5C 201.666,137.175 204.333,119.842 207,102.5C 214.228,67.6989 230.062,37.6989 254.5,12.5 Z"/></g>
<g><path style="opacity:1" fill="#372f2c" d="M 217.5,206.5 C 233.901,205.403 244.401,212.736 249,228.5C 250.082,244.426 242.916,254.593 227.5,259C 206.22,259.281 196.054,248.781 197,227.5C 200.043,216.626 206.876,209.626 217.5,206.5 Z"/></g>
<g><path style="opacity:1" fill="#372f2c" d="M 372.5,206.5 C 389.346,205.516 399.846,213.183 404,229.5C 404.545,244.897 397.378,254.731 382.5,259C 364.189,259.834 353.522,251.168 350.5,233C 352.257,219.42 359.59,210.586 372.5,206.5 Z"/></g>
<g><path style="opacity:1" fill="#ebebeb" d="M 229.5,219.5 C 236.821,220.319 238.154,223.486 233.5,229C 228.008,229.486 226.175,226.986 228,221.5C 228.717,220.956 229.217,220.289 229.5,219.5 Z"/></g>
<g><path style="opacity:1" fill="#f0efef" d="M 386.5,219.5 C 392.023,219.562 393.856,222.229 392,227.5C 387.791,230.596 384.958,229.596 383.5,224.5C 384.092,222.577 385.092,220.911 386.5,219.5 Z"/></g>
<g><path style="opacity:1" fill="#a9762c" d="M 284.5,297.5 C 328.85,294.449 367.516,307.616 400.5,337C 432.515,365.865 453.015,401.365 462,443.5C 463.526,454.56 462.192,465.226 458,475.5C 454.75,481.15 450.75,481.816 446,477.5C 443,472.167 440,466.833 437,461.5C 436.667,461.833 436.333,462.167 436,462.5C 435.669,472.367 436.169,482.2 437.5,492C 436.944,496.23 436.11,500.397 435,504.5C 424.971,519.532 413.138,533.032 399.5,545C 397.557,546.555 395.39,547.722 393,548.5C 392.228,548.355 391.561,548.022 391,547.5C 389.413,542.232 388.08,536.899 387,531.5C 386.632,530.09 385.799,529.09 384.5,528.5C 381.979,534.916 380.146,541.583 379,548.5C 377.224,551.941 375.057,555.108 372.5,558C 365.989,562.759 358.989,566.759 351.5,570C 338.007,574.942 324.674,580.275 311.5,586C 307.084,588.412 303.251,591.578 300,595.5C 297.575,591.866 294.408,589.032 290.5,587C 274.5,580.333 258.5,573.667 242.5,567C 233.552,563.614 226.719,557.781 222,549.5C 219.923,542.615 218.423,535.615 217.5,528.5C 216.325,528.281 215.325,528.614 214.5,529.5C 212.811,535.109 211.311,540.776 210,546.5C 209.261,547.574 208.261,548.241 207,548.5C 190.593,536.76 176.926,522.427 166,505.5C 165.027,503.608 164.36,501.608 164,499.5C 163.31,488.614 163.81,477.781 165.5,467C 165.204,465.112 164.704,463.278 164,461.5C 160.828,465.841 158.161,470.508 156,475.5C 152.517,480.886 148.517,481.552 144,477.5C 139.58,469.99 137.413,461.823 137.5,453C 138.719,437.626 142.219,422.793 148,408.5C 163.6,374.465 186.433,346.298 216.5,324C 237.178,309.819 259.845,300.985 284.5,297.5 Z"/></g>
<g><path style="opacity:1" fill="#000000" d="M 299.5,385.5 C 316.15,384.938 331.817,388.438 346.5,396C 362.946,410.253 365.446,426.753 354,445.5C 322.668,480.896 289.668,482.563 255,450.5C 242.639,435.372 241.305,419.372 251,402.5C 256.815,396.675 263.648,392.509 271.5,390C 280.825,387.514 290.158,386.014 299.5,385.5 Z"/></g>
<g><path style="opacity:1" fill="#362e2a" d="M 300.5,395.5 C 314.533,395.226 327.867,398.059 340.5,404C 352.391,414.144 354.225,425.977 346,439.5C 319.985,469.501 292.318,471.168 263,444.5C 255.265,436.287 252.598,426.62 255,415.5C 259.381,407.047 266.215,401.547 275.5,399C 283.913,397.361 292.246,396.195 300.5,395.5 Z"/></g>
</svg>
