<?xml version="1.0" encoding="UTF-8"?>
<!DOCTYPE svg PUBLIC "-//W3C//DTD SVG 1.1//EN" "http://www.w3.org/Graphics/SVG/1.1/DTD/svg11.dtd">
<svg xmlns="http://www.w3.org/2000/svg" version="1.1" width="600px" height="600px" style="shape-rendering:geometricPrecision; text-rendering:geometricPrecision; image-rendering:optimizeQuality; fill-rule:evenodd; clip-rule:evenodd" xmlns:xlink="http://www.w3.org/1999/xlink">
<g><path style="opacity:0.967" fill="#040202" d="M 599.5,317.5 C 599.5,327.5 599.5,337.5 599.5,347.5C 594.686,351.334 589.519,352.001 584,349.5C 585.794,357.363 587.294,365.363 588.5,373.5C 587.124,383.128 584.624,392.461 581,401.5C 574.391,416.385 568.058,431.385 562,446.5C 558.855,450.66 554.855,451.993 550,450.5C 549.811,455.357 548.811,460.024 547,464.5C 544.194,467.603 540.694,469.27 536.5,469.5C 537.259,480.628 538.925,491.628 541.5,502.5C 541.79,512.608 536.956,518.275 527,519.5C 521.136,518.402 516.136,515.736 512,511.5C 506.73,519.475 499.563,521.641 490.5,518C 464.852,509.671 444.352,494.504 429,472.5C 422.677,459.545 418.677,445.879 417,431.5C 413.942,438.007 411.275,444.674 409,451.5C 408.276,469.342 408.442,487.176 409.5,505C 408.841,539.644 391.841,551.978 358.5,542C 350.245,539.36 342.078,536.526 334,533.5C 311.158,537.421 288.324,537.421 265.5,533.5C 251.579,539.641 237.079,543.641 222,545.5C 204.565,545.397 194.565,536.731 192,519.5C 191.405,496.182 190.738,472.848 190,449.5C 187.943,443.719 185.61,438.053 183,432.5C 180.724,442.86 178.057,453.194 175,463.5C 160.09,490.4 137.923,508.567 108.5,518C 99.506,521.444 92.3394,519.277 87,511.5C 78.0963,521.183 69.0963,521.517 60,512.5C 58.9322,509.396 58.0989,506.229 57.5,503C 60.2033,491.946 62.2033,480.779 63.5,469.5C 53.3797,468.02 48.713,462.02 49.5,451.5C 45.1249,451.653 41.2916,450.32 38,447.5C 31.6089,431.718 24.9422,416.051 18,400.5C 14.3339,391.67 12.1672,382.503 11.5,373C 12.1158,365.371 13.4492,357.871 15.5,350.5C 9.6697,352.041 4.33637,351.041 -0.5,347.5C -0.5,337.833 -0.5,328.167 -0.5,318.5C 6.6752,302.488 15.1752,287.154 25,272.5C 29.2506,259.329 35.5839,247.329 44,236.5C 56.0506,220.424 69.0506,205.091 83,190.5C 95.8306,162.685 113.664,138.519 136.5,118C 145.793,110.02 156.459,104.687 168.5,102C 220.509,72.9399 276.176,62.2732 335.5,70C 369.648,74.417 401.648,85.0836 431.5,102C 442.379,104.274 452.046,108.94 460.5,116C 484.543,137.246 503.377,162.413 517,191.5C 535.833,210.861 552.5,231.861 567,254.5C 572.841,269.851 580.508,284.184 590,297.5C 593.487,304.136 596.654,310.803 599.5,317.5 Z"/></g>
<g><path style="opacity:1" fill="#f4f4f4" d="M 379.5,113.5 C 373.5,118.833 367.833,124.5 362.5,130.5C 352.598,140.728 344.264,152.061 337.5,164.5C 335.012,167.466 333.012,170.799 331.5,174.5C 317.949,206.199 317.116,238.199 329,270.5C 349.339,303.508 367.339,337.841 383,373.5C 389.578,395.475 394.411,417.808 397.5,440.5C 397.666,447.175 397.5,453.842 397,460.5C 391.833,455.333 386.667,450.167 381.5,445C 369.833,444.667 358.167,444.333 346.5,444C 347.252,443.329 347.586,442.496 347.5,441.5C 354.24,431.333 355.073,420.666 350,409.5C 344.974,402.394 338.141,397.894 329.5,396C 307.31,390.828 285.31,391.495 263.5,398C 247.455,405.451 242.289,417.617 248,434.5C 253.29,445.229 261.456,452.895 272.5,457.5C 290.913,477.415 309.913,496.915 329.5,516C 325.706,514.74 321.706,513.907 317.5,513.5C 314.888,512.629 312.221,511.963 309.5,511.5C 307.257,510.188 304.59,509.522 301.5,509.5C 298.645,509.503 295.978,509.836 293.5,510.5C 289.501,511.5 285.501,512.5 281.5,513.5C 278.848,513.41 276.515,514.076 274.5,515.5C 271.856,516.144 270.189,517.811 269.5,520.5C 267.161,521.634 264.827,522.634 262.5,523.5C 253.091,527.358 243.424,530.525 233.5,533C 224.796,535.594 216.462,534.927 208.5,531C 204.581,526.252 202.414,520.752 202,514.5C 201.333,486.833 201.333,459.167 202,431.5C 204.724,412.547 208.724,393.881 214,375.5C 219.121,363.258 224.787,351.258 231,339.5C 244.333,316.167 257.667,292.833 271,269.5C 283.674,234.213 281.341,199.88 264,166.5C 250.599,145.753 234.932,126.753 217,109.5C 213.619,105.753 212.286,101.419 213,96.5C 217.134,91.1761 222.634,88.0094 229.5,87C 278.662,75.195 327.662,75.8617 376.5,89C 382.024,90.6927 385.69,94.1927 387.5,99.5C 385.849,104.808 383.182,109.475 379.5,113.5 Z"/></g>
<g><path style="opacity:1" fill="#774e2c" d="M 200.5,97.5 C 202.301,104.497 204.801,111.497 208,118.5C 229.868,138.018 247.535,160.685 261,186.5C 265.612,200.161 268.445,214.161 269.5,228.5C 268.606,237.256 267.106,245.923 265,254.5C 255.012,274.484 244.012,293.817 232,312.5C 221.182,333.136 211.182,354.136 202,375.5C 198.441,392.495 195.108,409.495 192,426.5C 184.922,412.01 177.589,397.677 170,383.5C 174.611,409.542 172.944,435.209 165,460.5C 150.038,486.563 127.871,502.729 98.5,509C 96.385,504.838 95.385,500.338 95.5,495.5C 92.5755,495.46 89.9088,496.293 87.5,498C 82.9863,501.091 78.653,504.425 74.5,508C 72.7412,508.798 71.0745,508.631 69.5,507.5C 68.4149,504.227 68.2483,500.894 69,497.5C 73.1501,482.423 74.8168,467.089 74,451.5C 73.5638,448.716 72.0638,447.55 69.5,448C 67.2879,450.921 65.4545,454.088 64,457.5C 62.9887,458.337 61.8221,458.67 60.5,458.5C 60.9172,449.085 60.4172,439.752 59,430.5C 57.9505,429.483 56.7839,429.316 55.5,430C 52.7886,433.922 49.9553,437.756 47,441.5C 38.7986,423.091 31.132,404.425 24,385.5C 22.4772,377.898 22.1439,370.232 23,362.5C 25.198,356.239 27.198,349.905 29,343.5C 31.575,335.912 29.075,333.079 21.5,335C 18.3388,336.413 15.3388,338.08 12.5,340C 10.8333,340.667 9.16667,340.667 7.5,340C 6.43923,333.361 7.27256,326.861 10,320.5C 16.3857,306.057 24.0524,292.39 33,279.5C 36.2335,270.46 40.2335,261.793 45,253.5C 58.8218,233.67 74.1552,215.003 91,197.5C 102.944,172.23 118.777,149.73 138.5,130C 146.018,123.407 154.352,118.073 163.5,114C 165.833,113.667 168.167,113.333 170.5,113C 180.153,107.008 190.153,101.841 200.5,97.5 Z"/></g>
<g><path style="opacity:1" fill="#774e2c" d="M 397.5,97.5 C 408.818,101.326 419.484,106.492 429.5,113C 440.186,115.009 449.519,119.676 457.5,127C 471.216,139.705 483.049,153.872 493,169.5C 500.893,187.958 512.226,203.958 527,217.5C 539.163,231.997 550.163,247.33 560,263.5C 561.552,269.489 563.885,275.156 567,280.5C 578.225,295.282 586.558,311.615 592,329.5C 592.667,332.833 592.667,336.167 592,339.5C 590.612,340.554 589.112,340.72 587.5,340C 583.272,337.468 578.772,335.635 574,334.5C 572.289,334.439 570.956,335.106 570,336.5C 569.333,338.833 569.333,341.167 570,343.5C 574.216,352.753 576.716,362.42 577.5,372.5C 576.212,383.205 573.379,393.538 569,403.5C 563.047,415.368 557.88,427.535 553.5,440C 552.365,440.749 551.365,440.583 550.5,439.5C 548.36,436.193 546.026,433.026 543.5,430C 542.552,429.517 541.552,429.351 540.5,429.5C 538.678,439.044 538.011,448.71 538.5,458.5C 537.325,458.719 536.325,458.386 535.5,457.5C 534.093,453.933 532.093,450.766 529.5,448C 528.004,447.493 526.837,447.993 526,449.5C 525.333,458.167 525.333,466.833 526,475.5C 528.648,486.044 529.981,496.711 530,507.5C 529.107,508.081 528.107,508.415 527,508.5C 520.559,503.418 513.559,499.085 506,495.5C 505.228,495.645 504.561,495.978 504,496.5C 503.667,499.5 503.333,502.5 503,505.5C 501.666,509.104 499.166,510.271 495.5,509C 469.15,500.924 448.983,485.09 435,461.5C 426.137,436.368 424.137,410.702 429,384.5C 421.396,398.708 414.063,413.042 407,427.5C 403.672,412.178 400.338,396.844 397,381.5C 389.476,357.449 379.476,334.449 367,312.5C 358.333,297.833 349.667,283.167 341,268.5C 331.822,250.235 328.822,230.902 332,210.5C 336.866,188.104 346.532,168.104 361,150.5C 370.934,138.563 381.601,127.23 393,116.5C 396.845,110.727 398.345,104.393 397.5,97.5 Z"/></g>
<g><path style="opacity:1" fill="#32241a" d="M 379.5,113.5 C 374.833,120.167 369.167,125.833 362.5,130.5C 367.833,124.5 373.5,118.833 379.5,113.5 Z"/></g>
<g><path style="opacity:1" fill="#433328" d="M 337.5,164.5 C 336.783,168.711 334.783,172.045 331.5,174.5C 333.012,170.799 335.012,167.466 337.5,164.5 Z"/></g>
<g><path style="opacity:1" fill="#eeeded" d="M 195.5,211.5 C 213.281,208.643 226.448,214.976 235,230.5C 241.327,250.195 235.494,265.028 217.5,275C 197.06,281.195 182.227,274.695 173,255.5C 168.099,234.298 175.599,219.632 195.5,211.5 Z"/></g>
<g><path style="opacity:1" fill="#eeeeed" d="M 386.5,211.5 C 406.46,208.887 419.96,216.887 427,235.5C 430.08,256.515 421.58,270.349 401.5,277C 374.333,277.833 361.167,264.667 362,237.5C 365.952,224.719 374.118,216.052 386.5,211.5 Z"/></g>
<g><path style="opacity:1" fill="#241916" d="M 197.5,220.5 C 222.342,219.833 231.842,231.499 226,255.5C 217.132,268.258 205.632,271.425 191.5,265C 180.318,256.42 177.484,245.587 183,232.5C 186.541,226.78 191.374,222.78 197.5,220.5 Z"/></g>
<g><path style="opacity:1" fill="#241916" d="M 387.5,220.5 C 405.864,218.055 416.198,225.888 418.5,244C 417.766,259.235 409.766,267.401 394.5,268.5C 375.568,265.305 368.068,254.305 372,235.5C 375.106,228.225 380.272,223.225 387.5,220.5 Z"/></g>
<g><path style="opacity:1" fill="#efefef" d="M 211.5,228.5 C 216.984,228.481 218.65,230.981 216.5,236C 209.369,237.211 207.702,234.711 211.5,228.5 Z"/></g>
<g><path style="opacity:1" fill="#e6e6e6" d="M 404.5,228.5 C 411.004,228.138 412.671,230.638 409.5,236C 402.745,236.756 401.078,234.256 404.5,228.5 Z"/></g>
<g><path style="opacity:1" fill="#c5bebb" d="M 312.5,304.5 C 316.17,304.327 318.67,305.993 320,309.5C 320.828,313.871 320.661,318.205 319.5,322.5C 316.417,325.057 313.417,324.891 310.5,322C 309.369,319.478 308.703,316.811 308.5,314C 309.694,310.725 311.027,307.558 312.5,304.5 Z"/></g>
<g><path style="opacity:1" fill="#231815" d="M 347.5,441.5 C 326.333,464.708 301.333,470.041 272.5,457.5C 261.456,452.895 253.29,445.229 248,434.5C 242.289,417.617 247.455,405.451 263.5,398C 285.31,391.495 307.31,390.828 329.5,396C 338.141,397.894 344.974,402.394 350,409.5C 355.073,420.666 354.24,431.333 347.5,441.5 Z"/></g>
<g><path style="opacity:1" fill="#c4bcba" d="M 220.5,405.5 C 225.85,406.184 227.684,409.184 226,414.5C 225,416.833 224,419.167 223,421.5C 219.916,425.07 217.083,428.737 214.5,432.5C 212.803,431.636 211.637,430.303 211,428.5C 208.967,418.397 212.134,410.73 220.5,405.5 Z"/></g>
<g><path style="opacity:1" fill="#c5bebb" d="M 360.5,409.5 C 364.909,408.618 368.409,409.952 371,413.5C 375.121,419.143 376.288,425.31 374.5,432C 371.165,434.291 368.332,433.791 366,430.5C 364.855,426.036 362.855,422.036 360,418.5C 359.264,415.408 359.431,412.408 360.5,409.5 Z"/></g>
<g><path style="opacity:1" fill="#e9e9e9" d="M 397.5,440.5 C 397.369,465.668 397.536,491.002 398,516.5C 397.265,524.885 393.099,530.719 385.5,534C 368.564,534.694 352.564,531.027 337.5,523C 335.402,522.322 333.402,522.489 331.5,523.5C 331.174,521.339 330.174,519.506 328.5,518C 324.668,517.11 321.001,515.944 317.5,514.5C 317.5,514.167 317.5,513.833 317.5,513.5C 321.706,513.907 325.706,514.74 329.5,516C 309.913,496.915 290.913,477.415 272.5,457.5C 301.333,470.041 326.333,464.708 347.5,441.5C 347.586,442.496 347.252,443.329 346.5,444C 358.167,444.333 369.833,444.667 381.5,445C 386.667,450.167 391.833,455.333 397,460.5C 397.5,453.842 397.666,447.175 397.5,440.5 Z"/></g>
<g><path style="opacity:1" fill="#bbb3b1" d="M 372.5,464.5 C 379.069,464.886 383.569,468.219 386,474.5C 386.667,480.5 386.667,486.5 386,492.5C 383.159,494.504 379.993,495.004 376.5,494C 370.255,484.822 368.922,474.989 372.5,464.5 Z"/></g>
<g><path style="opacity:1" fill="#c3bcb9" d="M 233.5,480.5 C 237.429,480.256 240.263,481.923 242,485.5C 242.564,490.194 242.397,494.86 241.5,499.5C 239.396,499.799 237.396,499.466 235.5,498.5C 231.099,492.89 230.432,486.89 233.5,480.5 Z"/></g>
<g><path style="opacity:1" fill="#bbb4b1" d="M 342.5,483.5 C 350.304,483.294 353.471,486.961 352,494.5C 349.024,500.651 344.691,501.984 339,498.5C 337.676,492.817 338.843,487.817 342.5,483.5 Z"/></g>
<g><path style="opacity:1" fill="#535353" d="M 293.5,510.5 C 295.978,509.836 298.645,509.503 301.5,509.5C 304.59,509.522 307.257,510.188 309.5,511.5C 304.203,510.725 298.87,510.392 293.5,510.5 Z"/></g>
<g><path style="opacity:1" fill="#666666" d="M 281.5,513.5 C 279.721,515.344 277.388,516.01 274.5,515.5C 276.515,514.076 278.848,513.41 281.5,513.5 Z"/></g>
<g><path style="opacity:1" fill="#333333" d="M 317.5,514.5 C 321.001,515.944 324.668,517.11 328.5,518C 330.174,519.506 331.174,521.339 331.5,523.5C 326.749,520.492 322.082,517.492 317.5,514.5 Z"/></g>
<g><path style="opacity:1" fill="#535353" d="M 269.5,520.5 C 267.97,523.021 265.636,524.021 262.5,523.5C 264.827,522.634 267.161,521.634 269.5,520.5 Z"/></g>
</svg>
