<?xml version="1.0" encoding="UTF-8"?>
<!DOCTYPE svg PUBLIC "-//W3C//DTD SVG 1.1//EN" "http://www.w3.org/Graphics/SVG/1.1/DTD/svg11.dtd">
<svg xmlns="http://www.w3.org/2000/svg" version="1.1" width="600px" height="600px" style="shape-rendering:geometricPrecision; text-rendering:geometricPrecision; image-rendering:optimizeQuality; fill-rule:evenodd; clip-rule:evenodd" xmlns:xlink="http://www.w3.org/1999/xlink">
<g><path style="opacity:0.952" fill="#010101" d="M 250.5,-0.5 C 260.833,-0.5 271.167,-0.5 281.5,-0.5C 287.771,3.25851 293.938,7.25851 300,11.5C 305.796,7.35959 311.629,3.35959 317.5,-0.5C 328.167,-0.5 338.833,-0.5 349.5,-0.5C 350.08,3.14194 350.58,6.80861 351,10.5C 360.617,7.12911 370.45,4.46244 380.5,2.5C 393.986,4.47305 397.652,11.4731 391.5,23.5C 391.833,23.8333 392.167,24.1667 392.5,24.5C 412.307,13.9108 432.974,11.7442 454.5,18C 485.53,26.251 508.697,44.4177 524,72.5C 538.648,102.443 549.315,133.777 556,166.5C 561.634,191.036 566.634,215.703 571,240.5C 572.571,250.615 571.238,260.282 567,269.5C 562.997,274.34 557.83,277.007 551.5,277.5C 533.534,273.35 516.867,266.183 501.5,256C 496.957,251.625 492.624,247.125 488.5,242.5C 485.207,244.181 481.874,244.514 478.5,243.5C 481.133,270.464 484.799,297.298 489.5,324C 489.106,335.904 483.106,341.07 471.5,339.5C 471.597,363.902 474.263,388.068 479.5,412C 479.13,420.036 474.964,424.536 467,425.5C 463.566,425.064 460.566,423.73 458,421.5C 458.629,432.618 459.129,443.785 459.5,455C 459.573,461.23 459.073,467.397 458,473.5C 453.688,479.828 448.021,481.494 441,478.5C 442.043,498.967 437.376,517.967 427,535.5C 417.796,545.035 408.963,554.868 400.5,565C 396.028,567.842 391.528,568.009 387,565.5C 378.211,580.125 366.377,591.458 351.5,599.5C 347.5,599.5 343.5,599.5 339.5,599.5C 335.264,597.084 332.764,593.418 332,588.5C 328.998,592.334 325.831,596 322.5,599.5C 316.833,599.5 311.167,599.5 305.5,599.5C 302.63,596.417 300.797,592.75 300,588.5C 298.843,592.822 296.676,596.489 293.5,599.5C 288.167,599.5 282.833,599.5 277.5,599.5C 274.169,596 271.002,592.334 268,588.5C 267.249,592.54 265.749,596.207 263.5,599.5C 257.167,599.5 250.833,599.5 244.5,599.5C 231.061,591.56 220.895,580.56 214,566.5C 208.522,569.406 203.356,568.906 198.5,565C 191.372,556.203 183.872,547.703 176,539.5C 163.812,521.1 157.645,500.766 157.5,478.5C 149.761,480.714 144.595,478.048 142,470.5C 141.623,466.981 141.123,463.481 140.5,460C 141.649,446.484 142.482,432.984 143,419.5C 135.86,426.426 129.193,426.093 123,418.5C 122.342,416.2 121.842,413.867 121.5,411.5C 125.153,389.586 128.153,367.586 130.5,345.5C 131.574,338.671 129.407,337.004 124,340.5C 115.335,338.492 111.169,332.992 111.5,324C 114.537,303.147 117.704,282.314 121,261.5C 121.765,255.183 122.265,248.849 122.5,242.5C 118.615,243.671 114.781,243.337 111,241.5C 105.481,248.685 98.9814,254.852 91.5,260C 77.7033,268.097 63.0366,273.931 47.5,277.5C 37.9339,276.64 31.7672,271.64 29,262.5C 27.4853,255.233 27.1519,247.899 28,240.5C 35.7751,192.955 47.1084,146.288 62,100.5C 69.9223,78.8026 81.7557,59.636 97.5,43C 123.214,20.7616 152.881,12.095 186.5,17C 194.364,19.5083 202.03,22.1749 209.5,25C 203.466,18.9244 203.133,12.5911 208.5,6C 211.914,4.06266 215.581,2.89599 219.5,2.5C 229.387,4.38823 239.053,7.0549 248.5,10.5C 248.267,6.80673 248.933,3.14006 250.5,-0.5 Z"/></g>
<g><path style="opacity:1" fill="#9f9e9f" d="M 388.5,35.5 C 401.881,36.6745 414.548,40.5078 426.5,47C 429.017,49.3494 431.35,51.8494 433.5,54.5C 443.206,55.7549 452.873,57.2549 462.5,59C 465.568,60.0158 468.568,61.1825 471.5,62.5C 470.975,63.1924 470.308,63.6924 469.5,64C 457.203,63.9899 445.536,66.6565 434.5,72C 432.259,73.7391 430.592,75.9058 429.5,78.5C 430.348,79.9911 431.681,80.6578 433.5,80.5C 443.15,78.4493 452.816,76.9493 462.5,76C 463.451,76.7175 463.617,77.5509 463,78.5C 457.442,82.39 452.942,87.2234 449.5,93C 451.001,95.5898 453.335,96.9231 456.5,97C 464.833,97.3333 473.167,97.6667 481.5,98C 485.179,98.2814 488.512,99.4481 491.5,101.5C 484.426,102.279 477.426,103.445 470.5,105C 467.592,105.689 464.925,106.855 462.5,108.5C 464.38,111.091 466.38,113.591 468.5,116C 475.232,116.566 481.898,117.566 488.5,119C 492.928,119.697 496.928,121.363 500.5,124C 493.437,124.16 486.437,124.827 479.5,126C 478.672,126.915 477.672,127.581 476.5,128C 477.435,130.381 477.768,132.881 477.5,135.5C 475.5,135.167 473.5,134.833 471.5,134.5C 471.502,138.511 472.668,142.178 475,145.5C 480.667,150.833 486.333,156.167 492,161.5C 492.49,162.793 492.657,164.127 492.5,165.5C 486.895,164.18 481.228,163.68 475.5,164C 472.98,168.453 473.146,172.953 476,177.5C 480.351,183.539 484.185,189.872 487.5,196.5C 487.547,198 486.881,199 485.5,199.5C 483.742,198.872 482.242,197.872 481,196.5C 481.927,203.969 483.427,211.302 485.5,218.5C 484.498,220.992 484.498,223.658 485.5,226.5C 485.331,228.839 484.664,231.006 483.5,233C 481.953,233.333 480.62,232.833 479.5,231.5C 477.528,227.895 474.861,224.895 471.5,222.5C 469.578,224.003 468.412,226.003 468,228.5C 467.291,239.529 467.624,250.529 469,261.5C 472.113,282.343 475.279,303.176 478.5,324C 478.333,325.5 478.167,327 478,328.5C 477.107,329.081 476.107,329.415 475,329.5C 471.989,328.41 469.156,326.91 466.5,325C 462.515,325.017 460.348,327.183 460,331.5C 459.333,338.5 459.333,345.5 460,352.5C 462.509,373.221 465.343,393.888 468.5,414.5C 466.61,414.703 465.11,414.037 464,412.5C 460.221,406.388 456.055,400.555 451.5,395C 450.004,394.493 448.837,394.993 448,396.5C 446.974,402.112 446.474,407.779 446.5,413.5C 447.878,432.142 448.545,450.809 448.5,469.5C 447.448,469.649 446.448,469.483 445.5,469C 441.5,464.333 437.5,459.667 433.5,455C 431.729,452.887 430.229,453.053 429,455.5C 428.296,457.278 427.796,459.112 427.5,461C 431.104,480.498 429.937,499.665 424,518.5C 421.252,523.666 418.252,528.666 415,533.5C 407.428,540.401 400.595,547.901 394.5,556C 393.552,556.483 392.552,556.649 391.5,556.5C 391.833,553.833 392.167,551.167 392.5,548.5C 388.018,549.663 384.184,551.996 381,555.5C 375.101,564.122 368.601,572.289 361.5,580C 356.624,583.938 351.291,587.105 345.5,589.5C 344.263,589.444 343.263,588.944 342.5,588C 344.192,579.613 344.692,571.113 344,562.5C 343.692,561.692 343.192,561.025 342.5,560.5C 334.095,568.403 326.595,577.07 320,586.5C 318.281,588.557 316.281,590.224 314,591.5C 313.228,591.355 312.561,591.022 312,590.5C 309.863,584.284 308.196,577.951 307,571.5C 304.589,573.578 301.922,575.245 299,576.5C 297.028,574.922 294.862,574.089 292.5,574C 291.577,578.524 290.41,583.024 289,587.5C 288.363,589.303 287.197,590.636 285.5,591.5C 278.63,584.762 272.464,577.429 267,569.5C 263.985,566.317 260.818,563.317 257.5,560.5C 256.808,561.025 256.308,561.692 256,562.5C 255.708,572.169 255.875,581.835 256.5,591.5C 246.349,588.494 237.849,582.828 231,574.5C 225.336,563.839 218.503,554.006 210.5,545C 209.216,544.316 208.049,544.483 207,545.5C 206.501,548.518 206.668,551.518 207.5,554.5C 207.167,555.5 206.833,556.5 206.5,557.5C 196.801,547.301 187.635,536.634 179,525.5C 176.39,519.947 174.057,514.281 172,508.5C 170.871,502.521 169.871,496.521 169,490.5C 168.728,478.421 169.395,466.421 171,454.5C 169.132,453.328 167.298,453.495 165.5,455C 161.678,460.153 157.511,464.987 153,469.5C 152.667,469.167 152.333,468.833 152,468.5C 152.511,444.838 152.844,421.172 153,397.5C 152.051,394.8 150.217,393.967 147.5,395C 142.301,401.232 137.468,407.732 133,414.5C 132.833,412.5 132.667,410.5 132.5,408.5C 135.227,389.141 138.06,369.808 141,350.5C 141.667,344.5 141.667,338.5 141,332.5C 140.849,326.671 138.016,324.171 132.5,325C 130.067,326.632 127.567,328.132 125,329.5C 124.228,329.355 123.561,329.022 123,328.5C 122.333,324.167 122.333,319.833 123,315.5C 126.707,292.882 130.041,270.215 133,247.5C 133.667,241.5 133.667,235.5 133,229.5C 132.539,226.225 130.873,223.891 128,222.5C 124.604,225.095 121.771,228.261 119.5,232C 118.5,232.667 117.5,232.667 116.5,232C 115.326,225.885 115.326,219.718 116.5,213.5C 116.909,208.548 117.909,203.715 119.5,199C 119.167,198.5 118.833,198 118.5,197.5C 117.167,198.167 115.833,198.833 114.5,199.5C 113.28,199.113 112.613,198.28 112.5,197C 116.284,189.933 120.45,183.1 125,176.5C 125.679,173.45 126.512,170.45 127.5,167.5C 127.023,166.522 126.357,165.689 125.5,165C 119.484,164.501 113.484,164.668 107.5,165.5C 107.608,163.217 108.441,161.217 110,159.5C 115.661,154.839 120.994,149.839 126,144.5C 128.351,141.399 128.851,138.066 127.5,134.5C 125.929,135.309 124.262,135.643 122.5,135.5C 122.782,132.653 122.782,129.987 122.5,127.5C 114.97,125.455 107.303,124.121 99.5,123.5C 101.554,121.806 103.888,120.639 106.5,120C 114.842,118.332 123.176,116.665 131.5,115C 133.684,112.984 135.684,110.817 137.5,108.5C 127.687,105.04 117.687,102.54 107.5,101C 110.957,99.2565 114.623,98.2565 118.5,98C 124.833,97.6667 131.167,97.3333 137.5,97C 141.523,96.8548 145.356,96.0215 149,94.5C 149.635,92.3646 149.301,90.3646 148,88.5C 144.633,84.7974 140.966,81.464 137,78.5C 136.517,77.552 136.351,76.552 136.5,75.5C 147.047,77.9873 157.713,79.4873 168.5,80C 169.529,75.7356 167.862,72.7356 163.5,71C 152.621,66.5401 141.287,64.2067 129.5,64C 128.692,63.6924 128.025,63.1924 127.5,62.5C 140.09,57.9554 153.09,55.1221 166.5,54C 170.653,48.5246 175.987,44.5246 182.5,42C 189.99,39.3774 197.656,37.5441 205.5,36.5C 212.942,35.9124 220.108,34.2457 227,31.5C 227.667,30.5 227.667,29.5 227,28.5C 223.667,25.1667 220.333,21.8333 217,18.5C 215.991,16.9751 215.491,15.3084 215.5,13.5C 218.187,13.3359 220.854,13.5026 223.5,14C 233.505,16.6686 243.505,19.3352 253.5,22C 256.482,22.498 259.482,22.6646 262.5,22.5C 261.919,16.4264 260.919,10.4264 259.5,4.5C 273.946,6.38948 286.279,12.5562 296.5,23C 299.303,23.755 301.97,23.4217 304.5,22C 314.299,11.6001 326.299,5.76678 340.5,4.5C 338.549,10.3141 337.549,16.3141 337.5,22.5C 340.85,22.665 344.183,22.4983 347.5,22C 359.404,17.1963 371.737,14.363 384.5,13.5C 384.649,14.552 384.483,15.552 384,16.5C 379.19,20.4662 375.356,25.1328 372.5,30.5C 372.818,31.6473 373.484,32.4806 374.5,33C 379.16,33.9432 383.827,34.7766 388.5,35.5 Z"/></g>
<g><path style="opacity:1" fill="#525150" d="M 205.5,36.5 C 197.656,37.5441 189.99,39.3774 182.5,42C 175.987,44.5246 170.653,48.5246 166.5,54C 153.09,55.1221 140.09,57.9554 127.5,62.5C 128.025,63.1924 128.692,63.6924 129.5,64C 141.287,64.2067 152.621,66.5401 163.5,71C 167.862,72.7356 169.529,75.7356 168.5,80C 157.713,79.4873 147.047,77.9873 136.5,75.5C 136.351,76.552 136.517,77.552 137,78.5C 140.966,81.464 144.633,84.7974 148,88.5C 149.301,90.3646 149.635,92.3646 149,94.5C 145.356,96.0215 141.523,96.8548 137.5,97C 131.167,97.3333 124.833,97.6667 118.5,98C 114.623,98.2565 110.957,99.2565 107.5,101C 117.687,102.54 127.687,105.04 137.5,108.5C 135.684,110.817 133.684,112.984 131.5,115C 123.176,116.665 114.842,118.332 106.5,120C 103.888,120.639 101.554,121.806 99.5,123.5C 107.303,124.121 114.97,125.455 122.5,127.5C 122.782,129.987 122.782,132.653 122.5,135.5C 124.262,135.643 125.929,135.309 127.5,134.5C 128.851,138.066 128.351,141.399 126,144.5C 120.994,149.839 115.661,154.839 110,159.5C 108.441,161.217 107.608,163.217 107.5,165.5C 113.484,164.668 119.484,164.501 125.5,165C 126.357,165.689 127.023,166.522 127.5,167.5C 126.512,170.45 125.679,173.45 125,176.5C 120.45,183.1 116.284,189.933 112.5,197C 112.613,198.28 113.28,199.113 114.5,199.5C 115.833,198.833 117.167,198.167 118.5,197.5C 118.833,198 119.167,198.5 119.5,199C 117.909,203.715 116.909,208.548 116.5,213.5C 111.939,220.939 107.105,228.273 102,235.5C 97.5,241.333 92.3333,246.5 86.5,251C 75.5821,256.971 64.2487,261.971 52.5,266C 46.4188,267.858 41.9188,266.025 39,260.5C 37.14,252.187 37.14,243.853 39,235.5C 44.051,208.686 49.7176,182.019 56,155.5C 62.0267,129.085 71.0267,103.752 83,79.5C 101.346,45.6982 129.846,27.3649 168.5,24.5C 181.863,25.7331 194.196,29.7331 205.5,36.5 Z"/></g>
<g><path style="opacity:1" fill="#525150" d="M 485.5,218.5 C 483.427,211.302 481.927,203.969 481,196.5C 482.242,197.872 483.742,198.872 485.5,199.5C 486.881,199 487.547,198 487.5,196.5C 484.185,189.872 480.351,183.539 476,177.5C 473.146,172.953 472.98,168.453 475.5,164C 481.228,163.68 486.895,164.18 492.5,165.5C 492.657,164.127 492.49,162.793 492,161.5C 486.333,156.167 480.667,150.833 475,145.5C 472.668,142.178 471.502,138.511 471.5,134.5C 473.5,134.833 475.5,135.167 477.5,135.5C 477.768,132.881 477.435,130.381 476.5,128C 477.672,127.581 478.672,126.915 479.5,126C 486.437,124.827 493.437,124.16 500.5,124C 496.928,121.363 492.928,119.697 488.5,119C 481.898,117.566 475.232,116.566 468.5,116C 466.38,113.591 464.38,111.091 462.5,108.5C 464.925,106.855 467.592,105.689 470.5,105C 477.426,103.445 484.426,102.279 491.5,101.5C 488.512,99.4481 485.179,98.2814 481.5,98C 473.167,97.6667 464.833,97.3333 456.5,97C 453.335,96.9231 451.001,95.5898 449.5,93C 452.942,87.2234 457.442,82.39 463,78.5C 463.617,77.5509 463.451,76.7175 462.5,76C 452.816,76.9493 443.15,78.4493 433.5,80.5C 431.681,80.6578 430.348,79.9911 429.5,78.5C 430.592,75.9058 432.259,73.7391 434.5,72C 445.536,66.6565 457.203,63.9899 469.5,64C 470.308,63.6924 470.975,63.1924 471.5,62.5C 468.568,61.1825 465.568,60.0158 462.5,59C 452.873,57.2549 443.206,55.7549 433.5,54.5C 431.35,51.8494 429.017,49.3494 426.5,47C 414.548,40.5078 401.881,36.6745 388.5,35.5C 390.857,35.6633 393.19,35.4966 395.5,35C 416.763,22.6183 438.763,21.285 461.5,31C 485.952,40.1196 504.119,56.2863 516,79.5C 526.901,101.2 535.234,123.867 541,147.5C 547.762,176.737 554.095,206.07 560,235.5C 562.301,244.646 561.968,253.646 559,262.5C 555.257,266.259 550.757,267.426 545.5,266C 534.143,261.822 523.143,256.822 512.5,251C 501.463,241.802 492.463,230.969 485.5,218.5 Z"/></g>
<g><path style="opacity:1" fill="#b1b0b0" d="M 407.5,199.5 C 390.556,196.033 373.556,195.699 356.5,198.5C 353.865,202.098 353.032,206.098 354,210.5C 357.138,220.101 361.304,229.101 366.5,237.5C 367.543,240.056 369.21,242.223 371.5,244C 374.667,246.5 377.833,249 381,251.5C 384.81,259.788 389.144,267.788 394,275.5C 396.157,281.798 398.157,288.131 400,294.5C 400.809,300.749 400.642,306.916 399.5,313C 405.152,315.75 409.986,319.583 414,324.5C 414.483,325.448 414.649,326.448 414.5,327.5C 412.512,327.173 410.512,326.84 408.5,326.5C 406.681,326.342 405.348,327.009 404.5,328.5C 412.301,345.705 416.968,363.705 418.5,382.5C 415.916,382.431 413.916,381.265 412.5,379C 411.365,378.251 410.365,378.417 409.5,379.5C 417.447,398.731 422.28,418.731 424,439.5C 424.768,451.199 424.435,462.865 423,474.5C 421.799,478.356 419.799,481.689 417,484.5C 412.787,481.604 410.12,477.604 409,472.5C 407.127,473.089 405.46,472.422 404,470.5C 403.333,475.833 403.333,481.167 404,486.5C 407.151,489.088 408.151,492.421 407,496.5C 401.443,518.611 389.61,536.611 371.5,550.5C 368.874,547.145 366.707,543.478 365,539.5C 364.275,538.941 363.442,538.608 362.5,538.5C 360.161,540.647 358.161,543.147 356.5,546C 341.569,552.636 326.569,558.969 311.5,565C 307.358,567.817 303.525,570.984 300,574.5C 292.989,571.48 286.489,567.646 280.5,563C 269.317,557.94 257.983,553.273 246.5,549C 242.969,545.804 239.802,542.304 237,538.5C 235.237,538.975 233.57,539.642 232,540.5C 231.171,544.161 229.671,547.495 227.5,550.5C 226.5,550 225.5,549.5 224.5,549C 212.666,537.162 203.166,523.662 196,508.5C 194.394,503.803 193.561,498.969 193.5,494C 194.58,486.155 194.58,478.321 193.5,470.5C 192.186,471.313 191.019,472.313 190,473.5C 188.46,477.419 186.293,480.919 183.5,484C 181.633,484.711 180.133,484.211 179,482.5C 173.837,470.344 172.171,457.678 174,444.5C 176,421.838 180.833,399.838 188.5,378.5C 185.916,378.569 183.916,379.735 182.5,382C 181.207,382.49 179.873,382.657 178.5,382.5C 180.971,363.284 185.637,344.617 192.5,326.5C 183.768,327.893 182.101,325.726 187.5,320C 190.663,317.584 193.996,315.418 197.5,313.5C 199.633,288.883 208.633,267.383 224.5,249C 228.747,245.258 232.414,241.092 235.5,236.5C 240.142,227.246 243.809,217.579 246.5,207.5C 245.792,204.542 244.792,201.709 243.5,199C 226.47,195.649 209.47,195.816 192.5,199.5C 183.777,201.515 175.11,203.848 166.5,206.5C 163.065,206.232 161.065,204.399 160.5,201C 161.302,197.529 162.968,194.529 165.5,192C 189.067,173.773 215.734,166.106 245.5,169C 256.926,169.775 264.093,175.608 267,186.5C 266.819,182.453 266.985,178.453 267.5,174.5C 271.777,177.273 275.61,180.607 279,184.5C 279.176,181.118 279.676,177.785 280.5,174.5C 282.833,176.333 285.167,178.167 287.5,180C 288.944,180.781 290.277,180.614 291.5,179.5C 292.188,172.538 292.355,165.538 292,158.5C 294.167,160.83 295.834,163.497 297,166.5C 300.409,174.981 304.076,183.314 308,191.5C 313.552,178.728 319.885,166.395 327,154.5C 327.346,164.03 326.846,173.53 325.5,183C 325.833,184.5 326.167,186 326.5,187.5C 331.388,183.615 335.722,179.115 339.5,174C 375.307,163.163 407.474,169.996 436,194.5C 438.099,196.974 438.599,199.641 437.5,202.5C 429.171,196.75 420.505,196.083 411.5,200.5C 410.151,200.154 408.817,199.821 407.5,199.5 Z"/></g>
<g><path style="opacity:1" fill="#030304" d="M 235.5,236.5 C 223.718,243.289 212.051,243.122 200.5,236C 189.368,225.644 186.702,213.478 192.5,199.5C 209.47,195.816 226.47,195.649 243.5,199C 244.792,201.709 245.792,204.542 246.5,207.5C 243.809,217.579 240.142,227.246 235.5,236.5 Z"/></g>
<g><path style="opacity:1" fill="#030304" d="M 407.5,199.5 C 413.188,224.128 403.521,238.128 378.5,241.5C 374.159,241.084 370.159,239.751 366.5,237.5C 361.304,229.101 357.138,220.101 354,210.5C 353.032,206.098 353.865,202.098 356.5,198.5C 373.556,195.699 390.556,196.033 407.5,199.5 Z"/></g>
<g><path style="opacity:1" fill="#f4f4f4" d="M 225.5,199.5 C 231.971,197.784 235.971,200.118 237.5,206.5C 235.084,213.702 230.584,215.369 224,211.5C 221.66,207.052 222.16,203.052 225.5,199.5 Z"/></g>
<g><path style="opacity:1" fill="#f4f4f4" d="M 389.5,199.5 C 397.494,198.329 400.994,201.663 400,209.5C 395.333,214.833 390.667,214.833 386,209.5C 384.756,205.191 385.923,201.858 389.5,199.5 Z"/></g>
<g><path style="opacity:1" fill="#020203" d="M 295.5,409.5 C 310.429,409.384 325.095,411.217 339.5,415C 348.242,417.738 353.409,423.571 355,432.5C 356.379,478.457 334.212,499.957 288.5,497C 264.407,493.91 249.907,480.41 245,456.5C 241.507,445.981 241.84,435.648 246,425.5C 251.117,418.684 257.951,414.517 266.5,413C 276.253,411.308 285.919,410.141 295.5,409.5 Z"/></g>
</svg>
