<?xml version="1.0" encoding="UTF-8"?>
<!DOCTYPE svg PUBLIC "-//W3C//DTD SVG 1.1//EN" "http://www.w3.org/Graphics/SVG/1.1/DTD/svg11.dtd">
<svg xmlns="http://www.w3.org/2000/svg" version="1.1" width="600px" height="600px" style="shape-rendering:geometricPrecision; text-rendering:geometricPrecision; image-rendering:optimizeQuality; fill-rule:evenodd; clip-rule:evenodd" xmlns:xlink="http://www.w3.org/1999/xlink">
<g><path style="opacity:0.951" fill="#010000" d="M 599.5,186.5 C 599.5,191.167 599.5,195.833 599.5,200.5C 594.98,205.129 589.647,206.295 583.5,204C 570.641,196.48 558.308,188.146 546.5,179C 544.5,178.333 542.5,178.333 540.5,179C 534.877,182.955 529.543,187.288 524.5,192C 516.709,196.159 508.376,198.159 499.5,198C 484.137,215.207 467.137,230.374 448.5,243.5C 444.442,266.066 439.276,288.399 433,310.5C 420.934,349.032 408.267,387.365 395,425.5C 390.644,440.233 387.31,454.899 385,469.5C 381.712,475.985 380.045,482.652 380,489.5C 372.069,516.761 354.069,532.761 326,537.5C 310.196,537.169 294.362,537.002 278.5,537C 248.809,534.923 228.643,520.089 218,492.5C 212.015,468.561 206.348,444.561 201,420.5C 182.716,371.315 167.049,321.315 154,270.5C 152.225,261.516 150.558,252.516 149,243.5C 130.814,230.638 114.314,215.805 99.5,199C 91.6845,198.164 84.0178,196.498 76.5,194C 69.5918,189.762 63.2585,184.762 57.5,179C 54.6967,178.245 52.0301,178.578 49.5,180C 38.3544,188.741 26.6877,196.741 14.5,204C 9.18989,206.168 4.18989,205.668 -0.5,202.5C -0.5,196.5 -0.5,190.5 -0.5,184.5C 31.7048,150.08 68.0382,120.914 108.5,97C 127.661,86.2798 148.161,79.7798 170,77.5C 195.834,80.0007 215.5,92.334 229,114.5C 275.347,99.8612 321.68,99.8612 368,114.5C 376.541,102.959 386.707,93.1254 398.5,85C 413.267,77.9037 428.601,76.237 444.5,80C 467.093,85.7978 488.093,95.1311 507.5,108C 541.149,130.66 571.815,156.826 599.5,186.5 Z"/></g>
<g><path style="opacity:1" fill="#895733" d="M 349.5,119.5 C 352.681,126.687 357.681,132.353 364.5,136.5C 367.645,133.54 370.312,130.207 372.5,126.5C 380.238,114.926 389.572,104.759 400.5,96C 413.669,88.5546 427.669,86.5546 442.5,90C 458.259,94.0441 473.259,100.044 487.5,108C 524.988,130.851 558.821,158.351 589,190.5C 589.5,191.5 590,192.5 590.5,193.5C 586.929,194.248 583.595,193.415 580.5,191C 570.231,182.891 559.564,175.391 548.5,168.5C 515.621,144.222 479.621,125.389 440.5,112C 428.162,107.721 415.495,106.054 402.5,107C 400,108.167 398.167,110 397,112.5C 391.564,126.377 386.398,140.377 381.5,154.5C 384.828,157.494 388.161,160.494 391.5,163.5C 383.858,163.968 376.191,165.135 368.5,167C 355.604,172.616 342.604,177.949 329.5,183C 316.193,185.939 302.86,185.939 289.5,183C 272.133,180.591 256.466,184.591 242.5,195C 239.612,198.222 237.112,201.722 235,205.5C 232.944,215.058 231.611,224.725 231,234.5C 229.657,238.51 227.491,242.01 224.5,245C 218.416,248.089 213.249,252.256 209,257.5C 208.251,258.635 208.417,259.635 209.5,260.5C 213.215,258.701 216.882,258.367 220.5,259.5C 207.465,264.224 200.798,273.557 200.5,287.5C 199.848,288.725 198.681,289.392 197,289.5C 187.964,289.845 179.131,291.178 170.5,293.5C 168.656,285.126 166.656,276.793 164.5,268.5C 175.6,250.232 190.267,235.399 208.5,224C 219.375,210.758 227.541,195.925 233,179.5C 240.071,169.878 249.238,163.045 260.5,159C 271.74,155.9 283.073,153.234 294.5,151C 300.388,148.555 305.388,144.888 309.5,140C 293.622,141.966 277.622,142.966 261.5,143C 255.092,143.28 249.092,144.947 243.5,148C 240.333,151.833 237.167,155.667 234,159.5C 223.638,180.532 209.638,198.865 192,214.5C 182.719,227.383 172.719,239.716 162,251.5C 161.617,250.944 161.117,250.611 160.5,250.5C 160.628,246.119 160.295,241.785 159.5,237.5C 167.605,214.959 179.105,194.292 194,175.5C 200.901,167.928 208.401,161.095 216.5,155C 215.206,152.913 214.039,150.746 213,148.5C 209.857,135.736 205.523,123.403 200,111.5C 198.5,110 197,108.5 195.5,107C 185.72,106.08 176.053,106.747 166.5,109C 124.095,122.534 85.095,142.368 49.5,168.5C 38.0504,176.067 26.717,183.9 15.5,192C 7.48432,196.39 5.65098,195.223 10,188.5C 40.9451,156.31 75.4451,128.81 113.5,106C 126.491,98.8928 140.157,93.5595 154.5,90C 178.814,84.9125 198.647,92.0791 214,111.5C 217.695,116.849 221.695,121.849 226,126.5C 242.58,120.117 259.747,116.284 277.5,115C 301.73,113.287 325.73,114.787 349.5,119.5 Z"/></g>
<g><path style="opacity:1" fill="#391807" d="M 159.5,237.5 C 149.094,230.601 139.094,223.101 129.5,215C 120.779,206.279 112.113,197.613 103.5,189C 101.913,188.138 100.246,187.471 98.5,187C 89.4078,188.128 81.4078,185.795 74.5,180C 69.161,173.317 62.3277,169.15 54,167.5C 52.4672,167.773 50.9672,168.106 49.5,168.5C 85.095,142.368 124.095,122.534 166.5,109C 176.053,106.747 185.72,106.08 195.5,107C 197,108.5 198.5,110 200,111.5C 205.523,123.403 209.857,135.736 213,148.5C 214.039,150.746 215.206,152.913 216.5,155C 208.401,161.095 200.901,167.928 194,175.5C 179.105,194.292 167.605,214.959 159.5,237.5 Z"/></g>
<g><path style="opacity:1" fill="#391807" d="M 548.5,168.5 C 544.439,167.009 540.439,167.176 536.5,169C 529.32,174.091 522.32,179.424 515.5,185C 510.25,186.174 504.916,186.841 499.5,187C 497.051,187.725 494.717,188.725 492.5,190C 476.81,207.863 459.144,223.363 439.5,236.5C 438.831,238.631 438.165,240.631 437.5,242.5C 437.5,242.167 437.5,241.833 437.5,241.5C 435.989,233.964 433.656,226.631 430.5,219.5C 429.203,215.917 427.537,212.584 425.5,209.5C 420.993,199.139 414.993,189.806 407.5,181.5C 402.627,175.083 397.293,169.083 391.5,163.5C 388.161,160.494 384.828,157.494 381.5,154.5C 386.398,140.377 391.564,126.377 397,112.5C 398.167,110 400,108.167 402.5,107C 415.495,106.054 428.162,107.721 440.5,112C 479.621,125.389 515.621,144.222 548.5,168.5 Z"/></g>
<g><path style="opacity:1" fill="#714728" d="M 349.5,119.5 C 357.237,121.635 364.904,123.968 372.5,126.5C 370.312,130.207 367.645,133.54 364.5,136.5C 357.681,132.353 352.681,126.687 349.5,119.5 Z"/></g>
<g><path style="opacity:1" fill="#744929" d="M 164.5,268.5 C 162.803,262.693 161.469,256.693 160.5,250.5C 161.117,250.611 161.617,250.944 162,251.5C 172.719,239.716 182.719,227.383 192,214.5C 209.638,198.865 223.638,180.532 234,159.5C 237.167,155.667 240.333,151.833 243.5,148C 249.092,144.947 255.092,143.28 261.5,143C 277.622,142.966 293.622,141.966 309.5,140C 305.388,144.888 300.388,148.555 294.5,151C 283.073,153.234 271.74,155.9 260.5,159C 249.238,163.045 240.071,169.878 233,179.5C 227.541,195.925 219.375,210.758 208.5,224C 190.267,235.399 175.6,250.232 164.5,268.5 Z"/></g>
<g><path style="opacity:1" fill="#744929" d="M 391.5,163.5 C 397.293,169.083 402.627,175.083 407.5,181.5C 403.486,181.334 399.486,181.501 395.5,182C 388.001,184.433 380.334,186.1 372.5,187C 361.475,187.291 350.475,187.958 339.5,189C 328.572,191.628 317.572,193.962 306.5,196C 295.833,196.333 285.167,196.667 274.5,197C 263.9,199.714 254.733,204.881 247,212.5C 244.806,215.554 243.139,218.888 242,222.5C 240.547,229.888 238.88,237.221 237,244.5C 233.768,251.202 228.601,255.702 221.5,258C 222.448,258.483 223.448,258.649 224.5,258.5C 223.432,259.434 222.099,259.768 220.5,259.5C 216.882,258.367 213.215,258.701 209.5,260.5C 208.417,259.635 208.251,258.635 209,257.5C 213.249,252.256 218.416,248.089 224.5,245C 227.491,242.01 229.657,238.51 231,234.5C 231.611,224.725 232.944,215.058 235,205.5C 237.112,201.722 239.612,198.222 242.5,195C 256.466,184.591 272.133,180.591 289.5,183C 302.86,185.939 316.193,185.939 329.5,183C 342.604,177.949 355.604,172.616 368.5,167C 376.191,165.135 383.858,163.968 391.5,163.5 Z"/></g>
<g><path style="opacity:1" fill="#8a5733" d="M 407.5,181.5 C 414.993,189.806 420.993,199.139 425.5,209.5C 417.518,213.994 408.851,215.994 399.5,215.5C 390.75,215.087 382.083,213.92 373.5,212C 363.194,210.171 353.527,211.838 344.5,217C 337.833,222.333 331.167,227.667 324.5,233C 320.159,236.172 315.492,238.839 310.5,241C 294.898,246.15 279.231,250.984 263.5,255.5C 261.027,246.935 255.361,242.768 246.5,243C 244.065,247.633 243.898,252.467 246,257.5C 247.371,259.041 248.871,260.375 250.5,261.5C 250.167,263.833 248.833,265.167 246.5,265.5C 239.979,260.771 232.645,258.438 224.5,258.5C 223.448,258.649 222.448,258.483 221.5,258C 228.601,255.702 233.768,251.202 237,244.5C 238.88,237.221 240.547,229.888 242,222.5C 243.139,218.888 244.806,215.554 247,212.5C 254.733,204.881 263.9,199.714 274.5,197C 285.167,196.667 295.833,196.333 306.5,196C 317.572,193.962 328.572,191.628 339.5,189C 350.475,187.958 361.475,187.291 372.5,187C 380.334,186.1 388.001,184.433 395.5,182C 399.486,181.501 403.486,181.334 407.5,181.5 Z"/></g>
<g><path style="opacity:1" fill="#744929" d="M 425.5,209.5 C 427.537,212.584 429.203,215.917 430.5,219.5C 422.293,222.135 413.96,224.302 405.5,226C 395.645,226.207 385.812,225.707 376,224.5C 360.445,224.019 346.278,228.186 333.5,237C 323.345,244.91 313.012,252.577 302.5,260C 298.065,262.551 293.399,264.551 288.5,266C 276.653,266.728 265.653,270.062 255.5,276C 254.663,277.011 254.33,278.178 254.5,279.5C 252.893,274.293 250.226,269.626 246.5,265.5C 248.833,265.167 250.167,263.833 250.5,261.5C 254.488,263.023 258.321,262.689 262,260.5C 263.009,258.975 263.509,257.308 263.5,255.5C 279.231,250.984 294.898,246.15 310.5,241C 315.492,238.839 320.159,236.172 324.5,233C 331.167,227.667 337.833,222.333 344.5,217C 353.527,211.838 363.194,210.171 373.5,212C 382.083,213.92 390.75,215.087 399.5,215.5C 408.851,215.994 417.518,213.994 425.5,209.5 Z"/></g>
<g><path style="opacity:1" fill="#8a5733" d="M 430.5,219.5 C 433.656,226.631 435.989,233.964 437.5,241.5C 431.729,245.424 426.063,249.591 420.5,254C 417.618,255.608 414.618,256.941 411.5,258C 398.504,258.5 385.504,258.667 372.5,258.5C 355.806,258.864 345.806,267.197 342.5,283.5C 341.926,285.788 340.926,287.955 339.5,290C 336.134,292.184 332.467,293.517 328.5,294C 309.855,295.151 291.188,295.818 272.5,296C 266.639,296.647 260.806,297.48 255,298.5C 253.93,298.472 253.097,298.139 252.5,297.5C 254.233,291.654 254.9,285.654 254.5,279.5C 254.33,278.178 254.663,277.011 255.5,276C 265.653,270.062 276.653,266.728 288.5,266C 293.399,264.551 298.065,262.551 302.5,260C 313.012,252.577 323.345,244.91 333.5,237C 346.278,228.186 360.445,224.019 376,224.5C 385.812,225.707 395.645,226.207 405.5,226C 413.96,224.302 422.293,222.135 430.5,219.5 Z"/></g>
<g><path style="opacity:1" fill="#724828" d="M 437.5,241.5 C 437.5,241.833 437.5,242.167 437.5,242.5C 436.989,250.765 435.656,258.765 433.5,266.5C 422.282,267.813 410.782,267.813 399,266.5C 396.5,266.667 394,266.833 391.5,267C 390.944,267.383 390.611,267.883 390.5,268.5C 385.671,263.085 379.671,259.752 372.5,258.5C 385.504,258.667 398.504,258.5 411.5,258C 414.618,256.941 417.618,255.608 420.5,254C 426.063,249.591 431.729,245.424 437.5,241.5 Z"/></g>
<g><path style="opacity:1" fill="#22180e" d="M 263.5,255.5 C 263.509,257.308 263.009,258.975 262,260.5C 258.321,262.689 254.488,263.023 250.5,261.5C 248.871,260.375 247.371,259.041 246,257.5C 243.898,252.467 244.065,247.633 246.5,243C 255.361,242.768 261.027,246.935 263.5,255.5 Z"/></g>
<g><path style="opacity:1" fill="#22180e" d="M 343.5,243.5 C 346.652,242.959 349.152,243.959 351,246.5C 352.389,260.775 346.389,265.775 333,261.5C 332.333,258.833 332.333,256.167 333,253.5C 335.738,249.26 339.238,245.926 343.5,243.5 Z"/></g>
<g><path style="opacity:1" fill="#030203" d="M 224.5,258.5 C 232.645,258.438 239.979,260.771 246.5,265.5C 250.226,269.626 252.893,274.293 254.5,279.5C 254.9,285.654 254.233,291.654 252.5,297.5C 248.783,303.55 243.783,308.217 237.5,311.5C 223.58,314.976 212.58,310.976 204.5,299.5C 202.535,295.607 201.202,291.607 200.5,287.5C 200.798,273.557 207.465,264.224 220.5,259.5C 222.099,259.768 223.432,259.434 224.5,258.5 Z"/></g>
<g><path style="opacity:1" fill="#030203" d="M 372.5,258.5 C 379.671,259.752 385.671,263.085 390.5,268.5C 399.751,282.956 398.084,296.123 385.5,308C 369.135,316.601 355.801,313.434 345.5,298.5C 343.397,293.749 342.397,288.749 342.5,283.5C 345.806,267.197 355.806,258.864 372.5,258.5 Z"/></g>
<g><path style="opacity:1" fill="#8a5733" d="M 433.5,266.5 C 431.097,279.446 427.764,292.113 423.5,304.5C 417.298,304.642 411.631,306.475 406.5,310C 396.815,316.176 387.481,322.843 378.5,330C 359.873,341.105 339.873,344.438 318.5,340C 314.221,338.527 310.221,336.527 306.5,334C 299.667,326.5 292.833,319 286,311.5C 284.007,309.182 282.841,306.516 282.5,303.5C 297.837,303.667 313.17,303.5 328.5,303C 334.322,301.962 339.989,300.462 345.5,298.5C 355.801,313.434 369.135,316.601 385.5,308C 398.084,296.123 399.751,282.956 390.5,268.5C 390.611,267.883 390.944,267.383 391.5,267C 394,266.833 396.5,266.667 399,266.5C 410.782,267.813 422.282,267.813 433.5,266.5 Z"/></g>
<g><path style="opacity:1" fill="#eaeaea" d="M 234.5,271.5 C 240.966,270.475 244.132,273.142 244,279.5C 239.667,286.167 235.333,286.167 231,279.5C 230.777,276.275 231.943,273.609 234.5,271.5 Z"/></g>
<g><path style="opacity:1" fill="#eaeaea" d="M 376.5,271.5 C 383.825,270.992 386.658,274.326 385,281.5C 380.601,285.654 376.601,285.321 373,280.5C 371.98,276.553 373.147,273.553 376.5,271.5 Z"/></g>
<g><path style="opacity:1" fill="#744929" d="M 342.5,283.5 C 342.397,288.749 343.397,293.749 345.5,298.5C 339.989,300.462 334.322,301.962 328.5,303C 313.17,303.5 297.837,303.667 282.5,303.5C 282.841,306.516 284.007,309.182 286,311.5C 292.833,319 299.667,326.5 306.5,334C 310.221,336.527 314.221,338.527 318.5,340C 339.873,344.438 359.873,341.105 378.5,330C 387.481,322.843 396.815,316.176 406.5,310C 411.631,306.475 417.298,304.642 423.5,304.5C 422.072,311.441 420.072,318.107 417.5,324.5C 410.467,329.021 404.134,334.521 398.5,341C 391.993,346.253 384.66,349.92 376.5,352C 364.633,351.797 352.8,350.964 341,349.5C 315.135,356.229 296.135,347.896 284,324.5C 279.801,319.966 275.301,315.799 270.5,312C 266.708,310.219 262.708,309.386 258.5,309.5C 251.527,310.496 244.527,311.162 237.5,311.5C 243.783,308.217 248.783,303.55 252.5,297.5C 253.097,298.139 253.93,298.472 255,298.5C 260.806,297.48 266.639,296.647 272.5,296C 291.188,295.818 309.855,295.151 328.5,294C 332.467,293.517 336.134,292.184 339.5,290C 340.926,287.955 341.926,285.788 342.5,283.5 Z"/></g>
<g><path style="opacity:1" fill="#724828" d="M 200.5,287.5 C 201.202,291.607 202.535,295.607 204.5,299.5C 196.564,299.533 189.231,301.7 182.5,306C 179.706,307.535 177.706,309.702 176.5,312.5C 174.13,306.385 172.13,300.051 170.5,293.5C 179.131,291.178 187.964,289.845 197,289.5C 198.681,289.392 199.848,288.725 200.5,287.5 Z"/></g>
<g><path style="opacity:1" fill="#8a5733" d="M 204.5,299.5 C 212.58,310.976 223.58,314.976 237.5,311.5C 244.527,311.162 251.527,310.496 258.5,309.5C 262.708,309.386 266.708,310.219 270.5,312C 275.301,315.799 279.801,319.966 284,324.5C 296.135,347.896 315.135,356.229 341,349.5C 352.8,350.964 364.633,351.797 376.5,352C 384.66,349.92 391.993,346.253 398.5,341C 404.134,334.521 410.467,329.021 417.5,324.5C 413.741,338.901 409.074,352.901 403.5,366.5C 396.909,366.231 390.575,367.397 384.5,370C 375.198,374.651 365.864,379.318 356.5,384C 342.355,387.339 328.022,388.339 313.5,387C 306.417,385.584 300.584,382.084 296,376.5C 292.394,369.621 289.061,362.621 286,355.5C 280.917,347.103 273.417,342.936 263.5,343C 245.242,342.803 227.575,339.47 210.5,333C 201.144,332.313 191.811,332.479 182.5,333.5C 180.344,326.544 178.344,319.544 176.5,312.5C 177.706,309.702 179.706,307.535 182.5,306C 189.231,301.7 196.564,299.533 204.5,299.5 Z"/></g>
<g><path style="opacity:1" fill="#744929" d="M 403.5,366.5 C 402.072,372.784 400.072,378.784 397.5,384.5C 397.44,383.957 397.107,383.624 396.5,383.5C 387.5,387.667 378.5,391.833 369.5,396C 359.388,399.173 349.055,400.173 338.5,399C 326.689,398.265 315.023,396.598 303.5,394C 297.754,391.247 292.921,387.414 289,382.5C 285,375.167 281,367.833 277,360.5C 269.112,352.81 259.612,348.643 248.5,348C 228.82,344.758 209.154,344.758 189.5,348C 188.748,348.671 188.414,349.504 188.5,350.5C 186.129,345.059 184.129,339.392 182.5,333.5C 191.811,332.479 201.144,332.313 210.5,333C 227.575,339.47 245.242,342.803 263.5,343C 273.417,342.936 280.917,347.103 286,355.5C 289.061,362.621 292.394,369.621 296,376.5C 300.584,382.084 306.417,385.584 313.5,387C 328.022,388.339 342.355,387.339 356.5,384C 365.864,379.318 375.198,374.651 384.5,370C 390.575,367.397 396.909,366.231 403.5,366.5 Z"/></g>
<g><path style="opacity:1" fill="#8a5733" d="M 397.5,384.5 C 395.56,391.322 393.226,397.989 390.5,404.5C 366.754,414.615 342.254,416.948 317,411.5C 310.208,412.811 303.374,413.311 296.5,413C 292.421,410.925 288.921,408.092 286,404.5C 280.889,396.39 275.389,388.557 269.5,381C 262.294,375.484 254.127,372.651 245,372.5C 229.195,374.498 213.361,376.164 197.5,377.5C 194.3,368.567 191.3,359.567 188.5,350.5C 188.414,349.504 188.748,348.671 189.5,348C 209.154,344.758 228.82,344.758 248.5,348C 259.612,348.643 269.112,352.81 277,360.5C 281,367.833 285,375.167 289,382.5C 292.921,387.414 297.754,391.247 303.5,394C 315.023,396.598 326.689,398.265 338.5,399C 349.055,400.173 359.388,399.173 369.5,396C 378.5,391.833 387.5,387.667 396.5,383.5C 397.107,383.624 397.44,383.957 397.5,384.5 Z"/></g>
<g><path style="opacity:1" fill="#744929" d="M 390.5,404.5 C 389.204,410.05 387.537,415.383 385.5,420.5C 385.631,419.624 385.298,418.957 384.5,418.5C 374.275,426.806 362.608,430.306 349.5,429C 341.239,427.382 332.905,426.215 324.5,425.5C 318.082,426.032 311.749,427.199 305.5,429C 298.418,430.649 292.085,429.315 286.5,425C 280.875,416.251 275.375,407.417 270,398.5C 260.426,387.304 248.259,382.637 233.5,384.5C 222.632,384.312 211.966,385.645 201.5,388.5C 199.796,385.061 198.462,381.395 197.5,377.5C 213.361,376.164 229.195,374.498 245,372.5C 254.127,372.651 262.294,375.484 269.5,381C 275.389,388.557 280.889,396.39 286,404.5C 288.921,408.092 292.421,410.925 296.5,413C 303.374,413.311 310.208,412.811 317,411.5C 342.254,416.948 366.754,414.615 390.5,404.5 Z"/></g>
<g><path style="opacity:1" fill="#8a5733" d="M 385.5,420.5 C 380.28,444.711 374.447,468.711 368,492.5C 360.284,511.124 346.451,522.291 326.5,526C 321.511,526.61 316.511,527.11 311.5,527.5C 298.46,527.292 285.46,526.792 272.5,526C 252.893,522.712 238.726,512.212 230,494.5C 223.196,468.952 216.863,443.285 211,417.5C 207.727,407.847 204.56,398.18 201.5,388.5C 211.966,385.645 222.632,384.312 233.5,384.5C 248.259,382.637 260.426,387.304 270,398.5C 275.375,407.417 280.875,416.251 286.5,425C 292.085,429.315 298.418,430.649 305.5,429C 311.749,427.199 318.082,426.032 324.5,425.5C 332.905,426.215 341.239,427.382 349.5,429C 362.608,430.306 374.275,426.806 384.5,418.5C 385.298,418.957 385.631,419.624 385.5,420.5 Z"/></g>
<g><path style="opacity:1" fill="#2b1906" d="M 290.5,435.5 C 305.223,434.409 318.89,437.576 331.5,445C 337.304,450.575 341.137,457.408 343,465.5C 346.799,486.047 338.966,500.214 319.5,508C 309.398,511.826 299.065,512.826 288.5,511C 259.123,506.264 248.29,489.431 256,460.5C 258.389,455.446 261.555,450.946 265.5,447C 269.183,445.159 272.516,442.826 275.5,440C 280.524,438.155 285.524,436.655 290.5,435.5 Z"/></g>
</svg>
