<?xml version="1.0" encoding="UTF-8"?>
<!DOCTYPE svg PUBLIC "-//W3C//DTD SVG 1.1//EN" "http://www.w3.org/Graphics/SVG/1.1/DTD/svg11.dtd">
<svg xmlns="http://www.w3.org/2000/svg" version="1.1" width="600px" height="600px" style="shape-rendering:geometricPrecision; text-rendering:geometricPrecision; image-rendering:optimizeQuality; fill-rule:evenodd; clip-rule:evenodd" xmlns:xlink="http://www.w3.org/1999/xlink">
<g><path style="opacity:0.973" fill="#040404" d="M 599.5,208.5 C 599.5,223.167 599.5,237.833 599.5,252.5C 592.583,269 584.083,284.667 574,299.5C 559.38,318.456 544.38,337.122 529,355.5C 522.319,366.542 516.985,378.208 513,390.5C 501.67,401.355 491.67,400.021 483,386.5C 479.451,380.07 476.451,373.404 474,366.5C 464.998,384.166 453.665,400.166 440,414.5C 432.193,424.443 426.193,435.443 422,447.5C 417.934,462.031 413.268,476.364 408,490.5C 403.489,502.01 396.323,511.51 386.5,519C 377.162,523.106 368.162,527.772 359.5,533C 353.924,534.644 348.257,535.811 342.5,536.5C 328.053,534.81 313.72,532.477 299.5,529.5C 286.219,532.089 272.885,534.423 259.5,536.5C 241.12,532.972 224.12,526.139 208.5,516C 201.39,508.956 195.89,500.789 192,491.5C 187.868,479.304 184.201,466.97 181,454.5C 178.784,446.518 175.784,438.851 172,431.5C 163.245,418.989 154.245,406.656 145,394.5C 137.966,383.768 131.966,372.435 127,360.5C 124.296,373.406 118.796,384.906 110.5,395C 103.167,401 95.8333,401 88.5,395C 82.9151,381.926 76.7484,369.092 70,356.5C 54.6204,338.122 39.6204,319.456 25,300.5C 14.9174,285.667 6.41743,270 -0.5,253.5C -0.5,239.167 -0.5,224.833 -0.5,210.5C 4.26938,205.229 9.26938,200.062 14.5,195C 33.1178,181.383 51.4512,167.383 69.5,153C 94.7753,129.726 119.442,105.726 143.5,81C 149.221,76.2794 155.221,71.946 161.5,68C 169.38,64.0238 177.38,63.6905 185.5,67C 198.784,72.9753 211.784,79.4753 224.5,86.5C 273.89,72.2017 323.39,71.8684 373,85.5C 376.409,85.0476 379.576,83.881 382.5,82C 391.016,76.2392 400.016,71.2392 409.5,67C 418.068,63.0091 426.734,62.6757 435.5,66C 441.677,68.9193 447.344,72.5859 452.5,77C 476.5,100.333 500.5,123.667 524.5,147C 544.595,163.765 565.262,179.765 586.5,195C 591.064,199.395 595.398,203.895 599.5,208.5 Z"/></g>
<g><path style="opacity:1" fill="#656565" d="M 475.5,325.5 C 475.083,294.405 472.583,263.405 468,232.5C 467.256,230.1 466.423,227.767 465.5,225.5C 463.447,204.178 459.947,182.845 455,161.5C 451.316,148.623 444.483,137.789 434.5,129C 427.057,123.39 418.724,121.39 409.5,123C 407.68,123.2 406.347,124.034 405.5,125.5C 403.09,126.389 400.59,127.055 398,127.5C 391.588,125.437 386.588,121.437 383,115.5C 379.804,109.109 376.638,102.776 373.5,96.5C 375.564,96.313 377.564,95.813 379.5,95C 391.882,87.8087 404.549,81.1421 417.5,75C 424.215,73.7522 430.548,74.7522 436.5,78C 441.454,81.2853 446.12,84.952 450.5,89C 474.225,113.393 498.558,137.059 523.5,160C 541.549,174.383 559.882,188.383 578.5,202C 585.189,207.348 590.355,213.848 594,221.5C 594.692,226.891 594.359,232.225 593,237.5C 584.571,262.697 572.238,285.697 556,306.5C 543.957,320.208 532.29,334.208 521,348.5C 514.001,360.83 507.834,373.497 502.5,386.5C 500.902,387.485 499.235,387.651 497.5,387C 489.902,378.972 485.069,369.472 483,358.5C 480.103,347.441 477.603,336.441 475.5,325.5 Z"/></g>
<g><path style="opacity:1" fill="#656565" d="M 224.5,97.5 C 221.718,107.899 216.718,117.065 209.5,125C 204.505,129.023 199.171,129.523 193.5,126.5C 186.745,122.698 179.745,122.532 172.5,126C 164.108,129.725 157.608,135.559 153,143.5C 149.426,149.881 146.426,156.547 144,163.5C 139.544,182.658 136.044,201.991 133.5,221.5C 133.52,222.726 133.853,223.726 134.5,224.5C 133.065,227.711 131.898,231.045 131,234.5C 127.376,261.737 124.876,289.071 123.5,316.5C 122.278,334.811 118.778,352.811 113,370.5C 110.897,377.213 107.397,383.046 102.5,388C 100.5,388.667 98.5,388.667 96.5,388C 89.8197,369.806 80.653,352.972 69,337.5C 49.9927,317.804 33.6594,296.138 20,272.5C 12.2653,258.706 7.09865,244.039 4.5,228.5C 5.65179,220.366 9.31846,213.532 15.5,208C 36.1667,192 56.8333,176 77.5,160C 98.1385,140.362 118.472,120.362 138.5,100C 146.248,92.2479 154.581,85.2479 163.5,79C 168.399,75.7754 173.732,74.7754 179.5,76C 186.404,78.4514 193.07,81.4514 199.5,85C 207.046,90.7731 215.379,94.9397 224.5,97.5 Z"/></g>
<g><path style="opacity:1" fill="#343333" d="M 288.5,86.5 C 295.833,85.1667 303.167,85.1667 310.5,86.5C 308.585,86.2155 306.919,86.5489 305.5,87.5C 301.5,86.1667 297.5,86.1667 293.5,87.5C 292.081,86.5489 290.415,86.2155 288.5,86.5 Z"/></g>
<g><path style="opacity:1" fill="#7b7b7b" d="M 288.5,86.5 C 290.415,86.2155 292.081,86.5489 293.5,87.5C 290.685,88.1264 288.185,89.4598 286,91.5C 283.027,96.0788 281.027,101.079 280,106.5C 274.206,148.767 268.873,191.1 264,233.5C 260.804,260.283 254.471,286.283 245,311.5C 234.54,334.749 224.373,358.082 214.5,381.5C 212.011,381.702 209.677,381.202 207.5,380C 200.856,373.024 193.856,366.357 186.5,360C 177.396,352.366 166.896,348.2 155,347.5C 148.113,347.849 141.613,349.349 135.5,352C 130.404,340.545 126.404,328.712 123.5,316.5C 124.876,289.071 127.376,261.737 131,234.5C 131.898,231.045 133.065,227.711 134.5,224.5C 147.428,195.303 162.928,167.637 181,141.5C 184.709,136.06 188.875,131.06 193.5,126.5C 199.171,129.523 204.505,129.023 209.5,125C 216.718,117.065 221.718,107.899 224.5,97.5C 245.178,90.2321 266.511,86.5654 288.5,86.5 Z"/></g>
<g><path style="opacity:1" fill="#7b7b7b" d="M 305.5,87.5 C 306.919,86.5489 308.585,86.2155 310.5,86.5C 332,86.7933 353,90.1266 373.5,96.5C 376.638,102.776 379.804,109.109 383,115.5C 386.588,121.437 391.588,125.437 398,127.5C 400.59,127.055 403.09,126.389 405.5,125.5C 416.296,137.476 425.796,150.476 434,164.5C 446.038,184.039 456.538,204.372 465.5,225.5C 466.423,227.767 467.256,230.1 468,232.5C 472.583,263.405 475.083,294.405 475.5,325.5C 473.95,335.366 471.617,345.032 468.5,354.5C 450.133,344.288 432.466,345.455 415.5,358C 407.5,365.333 399.5,372.667 391.5,380C 389.376,381.582 387.21,381.749 385,380.5C 376.941,362.048 368.607,343.714 360,325.5C 346.271,293.534 337.604,260.201 334,225.5C 329.789,185.392 324.789,145.392 319,105.5C 317.771,100.471 315.771,95.8041 313,91.5C 310.815,89.4598 308.315,88.1264 305.5,87.5 Z"/></g>
<g><path style="opacity:1" fill="#f3f3f3" d="M 297.5,96.5 C 301.273,95.8224 304.106,97.1558 306,100.5C 307.74,103.981 308.907,107.648 309.5,111.5C 310.673,120.559 312.173,129.559 314,138.5C 317.477,169.795 320.81,201.128 324,232.5C 328.109,271.312 338.943,307.978 356.5,342.5C 356.707,345.241 357.707,347.574 359.5,349.5C 359.992,351.819 360.992,353.819 362.5,355.5C 362.707,358.241 363.707,360.574 365.5,362.5C 365.66,364.153 366.326,365.486 367.5,366.5C 367.707,369.241 368.707,371.574 370.5,373.5C 370.328,374.492 370.662,375.158 371.5,375.5C 371.707,378.241 372.707,380.574 374.5,382.5C 375.837,392.012 381.17,395.178 390.5,392C 393.174,391.33 395.507,390.163 397.5,388.5C 399.749,387.92 401.415,386.587 402.5,384.5C 406.5,380.833 410.5,377.167 414.5,373.5C 416.833,371.833 418.833,369.833 420.5,367.5C 422.404,367.262 423.738,366.262 424.5,364.5C 427.331,363.921 429.664,362.588 431.5,360.5C 438.74,358.328 446.074,357.995 453.5,359.5C 455.181,361.008 457.181,362.008 459.5,362.5C 460.29,363.794 461.29,364.961 462.5,366C 451.341,383.814 438.841,400.647 425,416.5C 422.368,421.814 419.701,427.147 417,432.5C 411.271,448.352 405.938,464.352 401,480.5C 397.353,492.314 390.853,502.147 381.5,510C 372.554,513.806 363.888,518.139 355.5,523C 350.935,524.645 346.269,525.312 341.5,525C 342.167,524.667 342.833,524.333 343.5,524C 334.265,514.544 323.265,507.877 310.5,504C 306.556,500.004 304.89,495.17 305.5,489.5C 305.069,483.627 306.736,478.46 310.5,474C 325.401,470.306 337.568,462.473 347,450.5C 359.788,423.914 351.955,407.081 323.5,400C 304.639,396.088 285.973,396.755 267.5,402C 248.105,410.299 241.938,424.465 249,444.5C 252.702,451.208 257.535,457.041 263.5,462C 271.891,467.445 280.725,471.945 290,475.5C 296.442,485.446 295.942,494.946 288.5,504C 275.735,507.877 264.735,514.544 255.5,524C 258.121,524.906 257.954,525.406 255,525.5C 251.482,524.745 247.982,523.912 244.5,523C 234.249,518.036 224.249,512.702 214.5,507C 209.15,501.305 204.984,494.805 202,487.5C 196.615,468.621 190.615,449.954 184,431.5C 175.169,416.338 165.169,402.005 154,388.5C 149.082,380.577 144.582,372.411 140.5,364C 142.435,361.355 145.102,359.689 148.5,359C 153.861,358.391 159.195,358.558 164.5,359.5C 168.666,362.084 173,364.417 177.5,366.5C 182.807,371.472 188.14,376.472 193.5,381.5C 195.239,384.243 197.573,386.243 200.5,387.5C 201.659,389.25 203.326,390.25 205.5,390.5C 207.438,392.163 209.772,392.829 212.5,392.5C 215.93,392.893 219.096,392.227 222,390.5C 224.846,383.479 227.679,376.479 230.5,369.5C 232.293,367.574 233.293,365.241 233.5,362.5C 236.544,357.047 239.211,351.381 241.5,345.5C 243.293,343.574 244.293,341.241 244.5,338.5C 253.136,321.595 259.802,303.928 264.5,285.5C 265.946,282.746 266.946,279.746 267.5,276.5C 269.998,262.181 272.498,247.848 275,233.5C 277.78,205.312 280.947,177.312 284.5,149.5C 285.482,145.684 286.149,141.684 286.5,137.5C 287.121,125.915 288.787,114.582 291.5,103.5C 292.8,100.568 294.8,98.2344 297.5,96.5 Z"/></g>
<g><path style="opacity:1" fill="#5a5a5a" d="M 297.5,96.5 C 294.8,98.2344 292.8,100.568 291.5,103.5C 291.427,99.2798 293.427,96.9464 297.5,96.5 Z"/></g>
<g><path style="opacity:1" fill="#331014" d="M 465.5,225.5 C 456.538,204.372 446.038,184.039 434,164.5C 425.796,150.476 416.296,137.476 405.5,125.5C 406.347,124.034 407.68,123.2 409.5,123C 418.724,121.39 427.057,123.39 434.5,129C 444.483,137.789 451.316,148.623 455,161.5C 459.947,182.845 463.447,204.178 465.5,225.5 Z"/></g>
<g><path style="opacity:1" fill="#331014" d="M 193.5,126.5 C 188.875,131.06 184.709,136.06 181,141.5C 162.928,167.637 147.428,195.303 134.5,224.5C 133.853,223.726 133.52,222.726 133.5,221.5C 136.044,201.991 139.544,182.658 144,163.5C 146.426,156.547 149.426,149.881 153,143.5C 157.608,135.559 164.108,129.725 172.5,126C 179.745,122.532 186.745,122.698 193.5,126.5 Z"/></g>
<g><path style="opacity:1" fill="#8c8c8c" d="M 286.5,137.5 C 286.149,141.684 285.482,145.684 284.5,149.5C 284.083,145.183 284.75,141.183 286.5,137.5 Z"/></g>
<g><path style="opacity:1" fill="#f1f1f1" d="M 217.5,206.5 C 229.139,206.067 237.973,210.734 244,220.5C 245.538,225.12 244.038,228.287 239.5,230C 228.61,231.804 219.443,228.637 212,220.5C 207.991,213.519 209.825,208.852 217.5,206.5 Z"/></g>
<g><path style="opacity:1" fill="#f2f2f2" d="M 373.5,206.5 C 378.034,206.267 382.368,207.1 386.5,209C 390.923,214.891 389.923,219.891 383.5,224C 376.057,229.61 367.724,231.61 358.5,230C 354.467,226.832 353.633,222.999 356,218.5C 360.417,212.379 366.25,208.379 373.5,206.5 Z"/></g>
<g><path style="opacity:1" fill="#9d9d9d" d="M 202.5,236.5 C 233.997,235.168 250.163,250.168 251,281.5C 244.792,306.864 228.625,318.364 202.5,316C 179.244,308.726 168.744,292.893 171,268.5C 175.722,251.946 186.222,241.279 202.5,236.5 Z"/></g>
<g><path style="opacity:1" fill="#9d9d9d" d="M 378.5,236.5 C 403.014,233.66 419.514,243.66 428,266.5C 431.497,292.023 420.997,308.523 396.5,316C 374.239,318.285 358.739,309.119 350,288.5C 345.178,263.134 354.678,245.801 378.5,236.5 Z"/></g>
<g><path style="opacity:1" fill="#1d1d1b" d="M 208.5,247.5 C 231.277,249.757 241.11,262.091 238,284.5C 234.736,294.765 227.902,301.265 217.5,304C 192.677,305.844 181.177,294.344 183,269.5C 186.776,256.55 195.276,249.216 208.5,247.5 Z"/></g>
<g><path style="opacity:1" fill="#1d1d1b" d="M 386.5,247.5 C 408.627,249.458 418.461,261.458 416,283.5C 409.939,299.957 398.106,306.79 380.5,304C 364.254,297.684 357.754,285.851 361,268.5C 365.217,256.101 373.717,249.101 386.5,247.5 Z"/></g>
<g><path style="opacity:1" fill="#e7e7e7" d="M 202.5,258.5 C 209.173,259.338 211.673,263.004 210,269.5C 203.653,275.455 199.153,274.288 196.5,266C 196.886,262.122 198.886,259.622 202.5,258.5 Z"/></g>
<g><path style="opacity:1" fill="#e7e7e7" d="M 380.5,258.5 C 387.648,259.796 389.815,263.796 387,270.5C 380.665,275.084 376.498,273.584 374.5,266C 374.869,262.136 376.869,259.636 380.5,258.5 Z"/></g>
<g><path style="opacity:1" fill="#797979" d="M 267.5,276.5 C 266.946,279.746 265.946,282.746 264.5,285.5C 264.446,282.008 265.446,279.008 267.5,276.5 Z"/></g>
<g><path style="opacity:1" fill="#575757" d="M 244.5,338.5 C 244.293,341.241 243.293,343.574 241.5,345.5C 241.707,342.759 242.707,340.426 244.5,338.5 Z"/></g>
<g><path style="opacity:1" fill="#585858" d="M 356.5,342.5 C 358.293,344.426 359.293,346.759 359.5,349.5C 357.707,347.574 356.707,345.241 356.5,342.5 Z"/></g>
<g><path style="opacity:1" fill="#575757" d="M 362.5,355.5 C 364.293,357.426 365.293,359.759 365.5,362.5C 363.707,360.574 362.707,358.241 362.5,355.5 Z"/></g>
<g><path style="opacity:1" fill="#5a5a5a" d="M 453.5,359.5 C 456.089,359.461 458.089,360.461 459.5,362.5C 457.181,362.008 455.181,361.008 453.5,359.5 Z"/></g>
<g><path style="opacity:1" fill="#595959" d="M 431.5,360.5 C 429.664,362.588 427.331,363.921 424.5,364.5C 426.336,362.412 428.669,361.079 431.5,360.5 Z"/></g>
<g><path style="opacity:1" fill="#5e5e5e" d="M 164.5,359.5 C 169.596,360.546 173.929,362.879 177.5,366.5C 173,364.417 168.666,362.084 164.5,359.5 Z"/></g>
<g><path style="opacity:1" fill="#575757" d="M 233.5,362.5 C 233.293,365.241 232.293,367.574 230.5,369.5C 230.707,366.759 231.707,364.426 233.5,362.5 Z"/></g>
<g><path style="opacity:1" fill="#575757" d="M 367.5,366.5 C 369.293,368.426 370.293,370.759 370.5,373.5C 368.707,371.574 367.707,369.241 367.5,366.5 Z"/></g>
<g><path style="opacity:1" fill="#707070" d="M 420.5,367.5 C 418.833,369.833 416.833,371.833 414.5,373.5C 415.5,370.5 417.5,368.5 420.5,367.5 Z"/></g>
<g><path style="opacity:1" fill="#575757" d="M 371.5,375.5 C 373.293,377.426 374.293,379.759 374.5,382.5C 372.707,380.574 371.707,378.241 371.5,375.5 Z"/></g>
<g><path style="opacity:1" fill="#575757" d="M 193.5,381.5 C 196.427,382.757 198.761,384.757 200.5,387.5C 197.573,386.243 195.239,384.243 193.5,381.5 Z"/></g>
<g><path style="opacity:1" fill="#606060" d="M 402.5,384.5 C 401.415,386.587 399.749,387.92 397.5,388.5C 398.585,386.413 400.251,385.08 402.5,384.5 Z"/></g>
<g><path style="opacity:1" fill="#5c5c5c" d="M 205.5,390.5 C 208.067,390.721 210.401,391.388 212.5,392.5C 209.772,392.829 207.438,392.163 205.5,390.5 Z"/></g>
<g><path style="opacity:1" fill="#1c1c1a" d="M 289.5,407.5 C 302.789,406.647 315.789,408.147 328.5,412C 342.168,417.854 346.001,427.687 340,441.5C 331.856,453.334 320.69,460.834 306.5,464C 303.703,465.721 301.369,467.887 299.5,470.5C 295.691,465.716 290.691,462.883 284.5,462C 271.702,456.868 262.536,448.035 257,435.5C 255.117,423.021 260.283,414.855 272.5,411C 278.229,409.432 283.896,408.265 289.5,407.5 Z"/></g>
<g><path style="opacity:1" fill="#222220" d="M 298.5,508.5 C 301.603,510.423 304.603,512.59 307.5,515C 314.783,517.21 321.783,520.21 328.5,524C 318.87,522.347 309.203,520.513 299.5,518.5C 289.797,520.513 280.13,522.347 270.5,524C 277.202,520.145 284.202,517.145 291.5,515C 294.331,513.334 296.664,511.168 298.5,508.5 Z"/></g>
</svg>
