<?xml version="1.0" encoding="UTF-8"?>
<!DOCTYPE svg PUBLIC "-//W3C//DTD SVG 1.1//EN" "http://www.w3.org/Graphics/SVG/1.1/DTD/svg11.dtd">
<svg xmlns="http://www.w3.org/2000/svg" version="1.1" width="600px" height="600px" style="shape-rendering:geometricPrecision; text-rendering:geometricPrecision; image-rendering:optimizeQuality; fill-rule:evenodd; clip-rule:evenodd" xmlns:xlink="http://www.w3.org/1999/xlink">
<g><path style="opacity:0.951" fill="#000000" d="M 599.5,45.5 C 599.5,77.5 599.5,109.5 599.5,141.5C 593.253,185.42 576.42,224.753 549,259.5C 536.333,273.5 523.667,287.5 511,301.5C 508.73,341.578 499.397,379.911 483,416.5C 479.25,423.002 475.25,429.335 471,435.5C 461.364,446.137 451.364,456.471 441,466.5C 429.384,482.378 422.884,500.045 421.5,519.5C 418.545,538.336 412.379,556.002 403,572.5C 392.373,584.942 378.873,592.108 362.5,594C 352.496,595.927 342.496,595.927 332.5,594C 321.525,592.338 310.691,590.172 300,587.5C 284.431,591.512 268.598,594.178 252.5,595.5C 217.765,596.563 195.598,580.563 186,547.5C 181.873,530.529 177.873,513.529 174,496.5C 170.499,485.163 165.165,474.829 158,465.5C 143.474,452.651 130.808,438.318 120,422.5C 101.693,384.941 91.3599,345.274 89,303.5C 87.7291,300.567 86.0624,297.901 84,295.5C 53.0235,267.872 29.6902,234.872 14,196.5C 7.57051,178.111 2.73717,159.444 -0.5,140.5C -0.5,108.833 -0.5,77.1667 -0.5,45.5C 1.9725,34.2625 6.13917,23.5958 12,13.5C 21.1437,2.50291 31.9771,0.336244 44.5,7C 63.9443,18.446 82.2776,31.446 99.5,46C 125.797,69.2959 151.13,93.6292 175.5,119C 181.196,124.232 187.863,126.232 195.5,125C 254.454,99.3889 314.787,95.7222 376.5,114C 386.071,117.079 395.404,120.745 404.5,125C 411.219,125.983 417.219,124.317 422.5,120C 438.833,103.667 455.167,87.3333 471.5,71C 487.206,56.9587 503.206,43.292 519.5,30C 530.653,21.5875 542.32,13.9209 554.5,7C 567.057,0.177921 577.89,2.34459 587,13.5C 592.862,23.6007 597.029,34.2674 599.5,45.5 Z"/></g>
<g><path style="opacity:1" fill="#2f2725" d="M 27.5,13.5 C 34.3629,13.9222 40.6962,16.0889 46.5,20C 71.2684,36.4267 94.6017,54.7601 116.5,75C 134.167,91.3333 151.167,108.333 167.5,126C 174.404,131.951 182.404,135.451 191.5,136.5C 202.904,132.636 214.237,128.47 225.5,124C 278.147,109.191 330.48,110.191 382.5,127C 389.616,129.725 396.616,132.725 403.5,136C 413.655,136.543 422.655,133.543 430.5,127C 447.5,110 464.5,93 481.5,76C 498.613,60.618 516.28,45.9513 534.5,32C 543.976,25.2045 553.976,19.2045 564.5,14C 571.397,12.8922 576.564,15.3922 580,21.5C 585.683,33.2181 589.35,45.5515 591,58.5C 594.543,101.658 590.209,143.991 578,185.5C 563.698,225.103 540.698,258.77 509,286.5C 506.089,289.99 503.422,293.656 501,297.5C 498.963,333.68 491.296,368.68 478,402.5C 474.011,411.82 469.011,420.487 463,428.5C 453.697,438.804 444.03,448.804 434,458.5C 425.918,468.661 419.918,479.994 416,492.5C 412.226,512.371 407.559,532.038 402,551.5C 396.1,568.07 384.6,578.237 367.5,582C 360.708,583.133 353.875,583.966 347,584.5C 331.075,583.124 315.408,580.457 300,576.5C 284.431,580.512 268.598,583.178 252.5,584.5C 238.478,584.579 225.478,581.079 213.5,574C 205.247,565.671 199.414,555.837 196,544.5C 191.893,527.522 187.893,510.522 184,493.5C 180.274,480.044 173.94,468.044 165,457.5C 153.601,446.77 142.934,435.437 133,423.5C 117.644,396.434 107.644,367.434 103,336.5C 100.715,324.272 99.3821,311.939 99,299.5C 96.8295,295.156 94.1628,291.156 91,287.5C 36.4412,238.568 8.4412,177.234 7,103.5C 5.20915,78.6475 7.87581,54.3142 15,30.5C 17.2364,23.3388 21.4031,17.6721 27.5,13.5 Z"/></g>
<g><path style="opacity:1" fill="#010101" d="M 29.5,26.5 C 35.4836,26.439 40.8169,28.2723 45.5,32C 76.6778,59.8447 105.844,89.6781 133,121.5C 138.973,129.777 143.639,138.777 147,148.5C 148.217,156.466 147.217,164.132 144,171.5C 134.297,194.584 122.297,216.25 108,236.5C 100.176,244.821 91.0089,246.654 80.5,242C 54.5615,219.388 36.7282,191.555 27,158.5C 18.024,122.383 14.024,85.7161 15,48.5C 15.1665,37.7739 19.9998,30.4406 29.5,26.5 Z"/></g>
<g><path style="opacity:1" fill="#010100" d="M 561.5,26.5 C 573.071,26.2326 579.571,31.8993 581,43.5C 583.303,83.4429 579.303,122.776 569,161.5C 559.164,193.341 541.664,220.174 516.5,242C 505.367,246.899 495.867,244.733 488,235.5C 472.462,212.761 459.796,188.428 450,162.5C 449.333,157.833 449.333,153.167 450,148.5C 452.865,140.438 456.531,132.771 461,125.5C 488.576,91.8693 518.743,60.7027 551.5,32C 554.767,29.8703 558.1,28.037 561.5,26.5 Z"/></g>
<g><path style="opacity:1" fill="#1e1918" d="M 30.5,36.5 C 32.6547,36.372 34.6547,36.872 36.5,38C 42.1233,41.9546 47.4566,46.2879 52.5,51C 78.073,75.2377 102.24,100.738 125,127.5C 129.837,134.347 133.837,141.68 137,149.5C 138.35,157.627 137.017,165.294 133,172.5C 124.603,190.968 114.937,208.635 104,225.5C 101.5,228.667 98.6667,231.5 95.5,234C 92.5,234.667 89.5,234.667 86.5,234C 53.2661,204.702 34.4328,167.869 30,123.5C 25.7911,98.9953 24.1245,74.3287 25,49.5C 25.1907,44.3191 27.0241,39.9857 30.5,36.5 Z"/></g>
<g><path style="opacity:1" fill="#4b4848" d="M 31.5,37.5 C 34.2739,38.7226 36.9406,40.2226 39.5,42C 69.733,68.8987 97.8997,97.732 124,128.5C 128.837,135.347 132.837,142.68 136,150.5C 136.914,156.03 136.247,161.363 134,166.5C 125.622,185.592 115.956,203.926 105,221.5C 101.833,226 98,229.833 93.5,233C 91.5,233.667 89.5,233.667 87.5,233C 53.2705,201.37 34.1039,162.203 30,115.5C 26.5102,93.9576 25.1768,72.2909 26,50.5C 26.1907,45.3191 28.0241,40.9857 31.5,37.5 Z"/></g>
<g><path style="opacity:1" fill="#1f1918" d="M 562.5,36.5 C 566.42,36.0428 568.92,37.7095 570,41.5C 571.906,49.0329 572.74,56.6996 572.5,64.5C 571.463,95.9261 567.296,126.926 560,157.5C 550.675,187.653 534.175,213.153 510.5,234C 504.622,235.653 499.788,234.153 496,229.5C 481.403,208.312 469.403,185.645 460,161.5C 459.333,157.5 459.333,153.5 460,149.5C 462.473,143.221 465.473,137.221 469,131.5C 496.66,96.3399 527.827,64.6732 562.5,36.5 Z"/></g>
<g><path style="opacity:1" fill="#4b4848" d="M 563.5,37.5 C 567.288,38.6915 569.454,41.3582 570,45.5C 571.907,83.0084 568.24,120.008 559,156.5C 549.353,186.801 532.519,212.301 508.5,233C 506.5,233.667 504.5,233.667 502.5,233C 492.821,223.146 484.987,211.979 479,199.5C 473.061,187.956 467.394,176.289 462,164.5C 460.607,159.905 460.274,155.239 461,150.5C 463.473,144.221 466.473,138.221 470,132.5C 498.384,97.9501 529.551,66.2835 563.5,37.5 Z"/></g>
<g><path style="opacity:1" fill="#4b4848" d="M 176.5,290.5 C 209.295,287.486 229.795,301.819 238,333.5C 239.565,362.889 226.399,382.056 198.5,391C 176.54,394.793 158.707,387.96 145,370.5C 128.286,338.179 135.453,312.679 166.5,294C 169.98,292.897 173.313,291.731 176.5,290.5 Z"/></g>
<g><path style="opacity:1" fill="#4a4747" d="M 401.5,290.5 C 433.243,287.604 453.743,301.271 463,331.5C 465.947,355.102 457.447,373.269 437.5,386C 408.967,398.376 385.801,391.876 368,366.5C 355.78,339.888 360.946,317.388 383.5,299C 389.208,295.31 395.208,292.477 401.5,290.5 Z"/></g>
<g><path style="opacity:1" fill="#000000" d="M 181.5,304.5 C 209.336,304.835 223.17,318.835 223,346.5C 217.165,368.847 202.665,379.013 179.5,377C 157.667,369.502 148.5,354.336 152,331.5C 156.827,316.866 166.661,307.866 181.5,304.5 Z"/></g>
<g><path style="opacity:1" fill="#000000" d="M 408.5,304.5 C 425.725,304.021 438.225,311.355 446,326.5C 452.589,347.08 446.755,362.913 428.5,374C 406.737,381.637 390.237,375.471 379,355.5C 372.821,337.711 376.987,322.877 391.5,311C 397.02,308.11 402.686,305.943 408.5,304.5 Z"/></g>
<g><path style="opacity:1" fill="#ededed" d="M 174.5,319.5 C 184.212,318.709 188.045,323.042 186,332.5C 180.667,337.833 175.333,337.833 170,332.5C 168.379,326.923 169.879,322.589 174.5,319.5 Z"/></g>
<g><path style="opacity:1" fill="#ececec" d="M 399.5,319.5 C 411.249,319.398 414.582,324.564 409.5,335C 401.671,338.832 396.671,336.498 394.5,328C 395.137,324.537 396.803,321.704 399.5,319.5 Z"/></g>
<g><path style="opacity:1" fill="#000000" d="M 283.5,470.5 C 300.103,469.429 316.436,470.929 332.5,475C 348.183,481.194 355.016,492.694 353,509.5C 342.411,532.07 324.578,544.737 299.5,547.5C 278.23,546.356 261.73,537.023 250,519.5C 241.314,497.713 247.814,482.547 269.5,474C 274.224,472.506 278.891,471.339 283.5,470.5 Z"/></g>
</svg>
