<?xml version="1.0" encoding="UTF-8"?>
<!DOCTYPE svg PUBLIC "-//W3C//DTD SVG 1.1//EN" "http://www.w3.org/Graphics/SVG/1.1/DTD/svg11.dtd">
<svg xmlns="http://www.w3.org/2000/svg" version="1.1" width="600px" height="600px" style="shape-rendering:geometricPrecision; text-rendering:geometricPrecision; image-rendering:optimizeQuality; fill-rule:evenodd; clip-rule:evenodd" xmlns:xlink="http://www.w3.org/1999/xlink">
<g><path style="opacity:0.96" fill="#020100" d="M 238.5,71.5 C 255.952,69.7645 272.785,72.0979 289,78.5C 296.72,77.228 304.387,77.228 312,78.5C 319.042,74.8633 326.542,72.6967 334.5,72C 356.233,69.9618 377.233,72.9618 397.5,81C 445.083,101.289 490.75,124.956 534.5,152C 548.187,161.177 561.521,170.844 574.5,181C 584.045,189.195 591.212,199.029 596,210.5C 598.326,223.972 597.66,237.306 594,250.5C 587.071,275.286 579.738,299.952 572,324.5C 568.967,339.333 565.3,353.999 561,368.5C 549.642,394.286 530.475,403.119 503.5,395C 483.633,386.132 469.466,371.632 461,351.5C 451.541,375.102 438.541,396.435 422,415.5C 409.278,434.724 403.944,455.724 406,478.5C 399.59,510.406 380.09,527.073 347.5,528.5C 341.177,528.469 335.01,527.469 329,525.5C 309.333,529.5 289.667,529.5 270,525.5C 240.578,533.028 217.245,524.361 200,499.5C 197.151,494.134 195.151,488.468 194,482.5C 192.816,471.542 192.149,460.542 192,449.5C 190.27,441.976 187.937,434.643 185,427.5C 175.39,412.89 165.39,398.557 155,384.5C 148.715,374.263 143.215,363.597 138.5,352.5C 132.077,364.169 124.077,374.669 114.5,384C 99.8361,396.5 83.1694,400.5 64.5,396C 49.9852,389.159 40.4852,377.992 36,362.5C 28.4985,328.328 19.1652,294.662 8,261.5C 5.52578,252.603 3.52578,243.603 2,234.5C -0.968014,213.399 5.86532,196.233 22.5,183C 50.1198,161.182 79.4532,141.848 110.5,125C 144.604,105.947 179.938,89.6137 216.5,76C 223.931,74.281 231.265,72.781 238.5,71.5 Z"/></g>
<g><path style="opacity:1" fill="#6f4b2b" d="M 237.5,84.5 C 246.839,84.3335 256.173,84.5002 265.5,85C 269.653,85.3844 273.653,86.3844 277.5,88C 269.189,90.1631 260.855,92.4964 252.5,95C 236.165,101.98 221.999,112.146 210,125.5C 186.462,155.578 170.129,189.245 161,226.5C 155.746,258.441 148.079,289.774 138,320.5C 133.624,330.921 128.958,341.255 124,351.5C 118.024,362.618 109.857,371.785 99.5,379C 80.6875,390.466 65.1875,387.3 53,369.5C 49.9045,363.454 47.5712,357.121 46,350.5C 44.0021,341.171 42.0021,331.838 40,322.5C 31.5456,295.692 23.5456,268.692 16,241.5C 13.772,230.701 14.1053,220.035 17,209.5C 24.1292,200.037 32.2959,191.537 41.5,184C 89.833,149.651 141.5,120.651 196.5,97C 209.71,90.8707 223.377,86.7041 237.5,84.5 Z"/></g>
<g><path style="opacity:1" fill="#6f4b2b" d="M 333.5,84.5 C 351.978,82.9668 369.978,85.1335 387.5,91C 436.869,111.683 484.203,136.016 529.5,164C 547.825,175.249 564.325,188.749 579,204.5C 581.194,207.554 582.861,210.888 584,214.5C 584.928,225.268 584.262,235.935 582,246.5C 575.133,270.966 567.8,295.3 560,319.5C 557.036,330.024 554.702,340.691 553,351.5C 550.559,362.553 545.392,372.053 537.5,380C 529.181,385.558 520.181,386.891 510.5,384C 494.468,376.636 482.302,365.136 474,349.5C 471.194,342.75 468.194,336.083 465,329.5C 459.663,312.811 454.329,296.145 449,279.5C 444.51,256.382 439.51,233.382 434,210.5C 426.095,183.357 413.928,158.357 397.5,135.5C 378.269,109.727 352.936,93.8937 321.5,88C 325.531,86.5092 329.531,85.3425 333.5,84.5 Z"/></g>
<g><path style="opacity:1" fill="#bb8447" d="M 423.5,197.5 C 410.546,191.051 398.213,183.551 386.5,175C 376.397,168.709 365.731,167.376 354.5,171C 335.9,176.884 318.4,185.051 302,195.5C 281.809,182.487 259.975,173.487 236.5,168.5C 232.015,168.538 227.681,169.371 223.5,171C 213.827,176.501 204.494,182.501 195.5,189C 189.206,192.981 182.539,196.147 175.5,198.5C 185.488,167.706 201.821,140.873 224.5,118C 241.484,104.442 260.817,96.1088 282.5,93C 284.863,92.4115 285.863,90.9115 285.5,88.5C 294.833,88.5 304.167,88.5 313.5,88.5C 313.137,90.9115 314.137,92.4115 316.5,93C 344.929,96.4721 368.429,108.972 387,130.5C 402.792,150.742 414.958,173.076 423.5,197.5 Z"/></g>
<g><path style="opacity:1" fill="#2b2a2a" d="M 423.5,197.5 C 426.798,206.234 429.631,215.234 432,224.5C 436,243.833 440,263.167 444,282.5C 447.913,297.494 452.747,312.16 458.5,326.5C 453.802,342.093 447.635,357.093 440,371.5C 430.159,386.517 419.825,401.184 409,415.5C 398.134,435.279 393.468,456.279 395,478.5C 389.063,503.404 373.229,516.404 347.5,517.5C 341.456,517.224 335.456,516.558 329.5,515.5C 327.135,515.636 324.802,515.97 322.5,516.5C 314.805,514.961 307.138,513.294 299.5,511.5C 291.862,513.294 284.195,514.961 276.5,516.5C 274.198,515.97 271.865,515.636 269.5,515.5C 252.333,520.093 236.333,517.593 221.5,508C 211.37,499.874 205.537,489.374 204,476.5C 205.778,451.179 199.444,428.179 185,407.5C 164.336,383.684 149.503,356.517 140.5,326C 141.99,325.255 142.99,324.088 143.5,322.5C 153.223,292.055 160.723,261.055 166,229.5C 168.5,218.842 171.667,208.509 175.5,198.5C 182.539,196.147 189.206,192.981 195.5,189C 204.494,182.501 213.827,176.501 223.5,171C 227.681,169.371 232.015,168.538 236.5,168.5C 259.975,173.487 281.809,182.487 302,195.5C 318.4,185.051 335.9,176.884 354.5,171C 365.731,167.376 376.397,168.709 386.5,175C 398.213,183.551 410.546,191.051 423.5,197.5 Z"/></g>
<g><path style="opacity:1" fill="#616262" d="M 214.5,232.5 C 236.156,231.848 249.822,241.848 255.5,262.5C 255.4,271.742 253.567,280.742 250,289.5C 235.258,307.145 218.091,309.978 198.5,298C 183.203,283.706 180.369,267.206 190,248.5C 196.306,240.267 204.473,234.934 214.5,232.5 Z"/></g>
<g><path style="opacity:1" fill="#616262" d="M 373.5,232.5 C 398.537,232.041 412.537,244.207 415.5,269C 411.432,289.735 398.932,301.568 378,304.5C 357.89,301.057 346.723,289.224 344.5,269C 344.463,261.446 346.629,254.613 351,248.5C 354.682,244.985 358.182,241.318 361.5,237.5C 365.45,235.414 369.45,233.748 373.5,232.5 Z"/></g>
<g><path style="opacity:1" fill="#010101" d="M 213.5,243.5 C 235.021,242.191 245.521,252.191 245,273.5C 239.89,290.145 228.723,296.645 211.5,293C 195.302,284.742 190.802,272.242 198,255.5C 202.02,249.919 207.186,245.919 213.5,243.5 Z"/></g>
<g><path style="opacity:1" fill="#010101" d="M 373.5,243.5 C 394.988,242.821 405.155,253.154 404,274.5C 398.356,290.409 387.19,296.576 370.5,293C 358.447,287.722 352.947,278.555 354,265.5C 355.821,253.854 362.321,246.521 373.5,243.5 Z"/></g>
<g><path style="opacity:1" fill="#e6e7e7" d="M 210.5,253.5 C 219.024,253.345 221.358,257.011 217.5,264.5C 209.878,267.042 206.711,264.375 208,256.5C 209.045,255.627 209.878,254.627 210.5,253.5 Z"/></g>
<g><path style="opacity:1" fill="#e7e8e8" d="M 369.5,253.5 C 378.024,253.345 380.358,257.011 376.5,264.5C 369.202,266.701 366.036,264.034 367,256.5C 368.045,255.627 368.878,254.627 369.5,253.5 Z"/></g>
<g><path style="opacity:1" fill="#000000" d="M 286.5,401.5 C 297.207,401.224 307.873,401.724 318.5,403C 320.878,403.511 323.212,404.178 325.5,405C 325.167,405.333 324.833,405.667 324.5,406C 338.278,411.058 342.778,420.558 338,434.5C 333.569,442.807 327.069,448.974 318.5,453C 307.769,459.072 296.769,459.739 285.5,455C 275.894,451.042 267.727,445.208 261,437.5C 253.812,425.02 256.312,414.854 268.5,407C 274.34,404.213 280.34,402.38 286.5,401.5 Z"/></g>
</svg>
