<?xml version="1.0" encoding="UTF-8"?>
<!DOCTYPE svg PUBLIC "-//W3C//DTD SVG 1.1//EN" "http://www.w3.org/Graphics/SVG/1.1/DTD/svg11.dtd">
<svg xmlns="http://www.w3.org/2000/svg" version="1.1" width="600px" height="600px" style="shape-rendering:geometricPrecision; text-rendering:geometricPrecision; image-rendering:optimizeQuality; fill-rule:evenodd; clip-rule:evenodd" xmlns:xlink="http://www.w3.org/1999/xlink">
<g><path style="opacity:0.951" fill="#020100" d="M 79.5,-0.5 C 94.1667,-0.5 108.833,-0.5 123.5,-0.5C 135.456,6.60595 146.456,15.1059 156.5,25C 172.536,42.0346 188.203,59.3679 203.5,77C 206.037,78.8376 208.871,79.6709 212,79.5C 227.568,77.0666 243.068,74.2332 258.5,71C 297.938,65.5671 336.938,67.9004 375.5,78C 380.799,79.1451 386.132,79.4784 391.5,79C 396.588,75.9166 401.088,72.0833 405,67.5C 425.146,41.1841 448.646,18.5174 475.5,-0.5C 490.167,-0.5 504.833,-0.5 519.5,-0.5C 528.156,7.02617 534.323,16.3595 538,27.5C 542.063,40.2118 544.73,53.2118 546,66.5C 549.021,110.667 547.354,154.667 541,198.5C 540.333,206.167 540.333,213.833 541,221.5C 547.31,248.075 553.31,274.741 559,301.5C 567.217,336.144 566.217,370.477 556,404.5C 545.732,439.373 528.732,470.373 505,497.5C 472.074,537.102 432.24,567.602 385.5,589C 375.568,593.031 365.568,596.531 355.5,599.5C 319.5,599.5 283.5,599.5 247.5,599.5C 213.179,590.506 181.846,575.34 153.5,554C 121.08,527.92 93.247,497.753 70,463.5C 38.3853,412.384 28.7186,357.051 41,297.5C 46.3556,272.745 52.0223,248.079 58,223.5C 58.6667,214.5 58.6667,205.5 58,196.5C 51.8434,153.998 50.1767,111.331 53,68.5C 54.258,53.8015 57.258,39.4682 62,25.5C 65.7083,15.3116 71.5416,6.64494 79.5,-0.5 Z"/></g>
<g><path style="opacity:1" fill="#e29b34" d="M 552.5,338.5 C 545.482,319.331 531.815,307.831 511.5,304C 480.97,299.287 455.47,308.454 435,331.5C 427.245,341.359 419.745,351.359 412.5,361.5C 403.729,377.385 394.729,393.051 385.5,408.5C 381.5,411.833 377.833,415.5 374.5,419.5C 370.977,421.087 367.31,421.587 363.5,421C 348.532,411.122 332.198,404.789 314.5,402C 286.083,398.604 260.083,404.938 236.5,421C 231.187,422.014 226.52,420.681 222.5,417C 214.842,409.01 208.342,400.177 203,390.5C 192.51,370.851 180.51,352.184 167,334.5C 139.882,302.512 107.048,294.678 68.5,311C 57.0428,318.276 49.7095,328.443 46.5,341.5C 48.4406,306.297 54.9406,271.964 66,238.5C 68.9835,225.315 69.9835,211.982 69,198.5C 64.4922,166.84 61.9922,135.007 61.5,103C 60.9308,78.3196 64.0975,54.1529 71,30.5C 74.1909,19.9898 80.3576,11.8231 89.5,6C 97.9361,3.79812 106.269,4.13145 114.5,7C 131.688,16.5082 146.855,28.6748 160,43.5C 171.716,57.0937 183.549,70.5937 195.5,84C 200.565,88.2831 206.399,90.1164 213,89.5C 229.215,87.0473 245.382,84.214 261.5,81C 283.459,78.1207 305.459,77.7874 327.5,80C 344.952,82.3531 362.286,85.3531 379.5,89C 387.736,90.5373 395.403,89.204 402.5,85C 416.038,70.464 429.205,55.6307 442,40.5C 451.908,30.5877 462.408,21.421 473.5,13C 486.426,3.40658 500.093,2.07325 514.5,9C 523.625,18.7487 529.458,30.2487 532,43.5C 537.112,71.2719 538.779,99.2719 537,127.5C 535.993,148.601 533.993,169.601 531,190.5C 530.333,201.833 530.333,213.167 531,224.5C 537.251,250.415 543.251,276.415 549,302.5C 551.098,314.412 552.265,326.412 552.5,338.5 Z"/></g>
<g><path style="opacity:1" fill="#140e06" d="M 100.5,25.5 C 110.614,24.8148 119.281,27.9815 126.5,35C 148.035,57.5397 165.202,83.0397 178,111.5C 181.521,121.628 181.187,131.628 177,141.5C 171.769,150.066 165.769,158.066 159,165.5C 145.277,179.565 130.111,191.732 113.5,202C 97.6904,208.511 88.1904,203.344 85,186.5C 77.7992,147.431 75.4659,108.098 78,68.5C 78.936,55.3994 82.936,43.3994 90,32.5C 93.154,29.4884 96.654,27.1551 100.5,25.5 Z"/></g>
<g><path style="opacity:1" fill="#150e06" d="M 488.5,25.5 C 498.959,23.7025 506.793,27.3692 512,36.5C 518.213,49.4305 521.546,63.0971 522,77.5C 522.934,114.421 520.268,151.088 514,187.5C 511.338,202.248 502.838,207.415 488.5,203C 465.708,189.825 445.875,172.992 429,152.5C 417.656,138.417 415.656,123.083 423,106.5C 435.497,80.991 451.33,57.8243 470.5,37C 475.912,32.0575 481.912,28.2241 488.5,25.5 Z"/></g>
<g><path style="opacity:1" fill="#fef4e7" d="M 122.5,38.5 C 125.167,41.8333 128.167,44.8333 131.5,47.5C 145.39,64.2613 157.556,82.2613 168,101.5C 173.216,110.48 175.55,120.147 175,130.5C 173.142,136.549 170.475,142.216 167,147.5C 150.166,168.674 129.999,185.841 106.5,199C 99.3826,200.858 94.5492,198.358 92,191.5C 88.0267,174.384 85.3601,157.051 84,139.5C 81.01,113.479 81.01,87.4788 84,61.5C 85.2206,48.8841 90.7206,38.7174 100.5,31C 103.5,30.3333 106.5,30.3333 109.5,31C 114.188,33.0065 118.521,35.5065 122.5,38.5 Z"/></g>
<g><path style="opacity:1" fill="#fef4e7" d="M 514.5,148.5 C 513.116,153.944 512.45,159.611 512.5,165.5C 511.793,175.949 509.293,185.949 505,195.5C 499.655,200.311 493.821,200.811 487.5,197C 464.78,182.28 445.28,164.113 429,142.5C 423.578,134.458 422.245,125.791 425,116.5C 437.735,87.1074 455.235,60.9407 477.5,38C 480.672,36.2481 483.672,34.2481 486.5,32C 495.965,28.934 503.131,31.7673 508,40.5C 512.212,48.6808 514.879,57.3475 516,66.5C 518.196,93.8806 517.696,121.214 514.5,148.5 Z"/></g>
<g><path style="opacity:1" fill="#432f14" d="M 122.5,38.5 C 126.5,40.5 129.5,43.5 131.5,47.5C 128.167,44.8333 125.167,41.8333 122.5,38.5 Z"/></g>
<g><path style="opacity:1" fill="#624a2c" d="M 514.5,148.5 C 514.55,154.389 513.884,160.056 512.5,165.5C 512.45,159.611 513.116,153.944 514.5,148.5 Z"/></g>
<g><path style="opacity:1" fill="#372f2c" d="M 199.5,272.5 C 213.996,270.606 225.83,275.273 235,286.5C 241.183,295.028 244.683,304.528 245.5,315C 245.726,317.671 245.059,320.004 243.5,322C 234.313,322.67 225.147,323.504 216,324.5C 200.382,324.691 187.715,318.691 178,306.5C 174.667,302.5 171.333,298.5 168,294.5C 167.294,292.029 167.627,289.695 169,287.5C 178.253,280.456 188.42,275.456 199.5,272.5 Z"/></g>
<g><path style="opacity:1" fill="#372f2c" d="M 386.5,272.5 C 403.393,272.186 418.227,277.519 431,288.5C 432.654,291.275 432.321,293.942 430,296.5C 424.171,303.329 418.004,309.829 411.5,316C 403.046,322.262 393.546,325.095 383,324.5C 373.853,323.504 364.687,322.67 355.5,322C 354.148,319.706 353.481,317.206 353.5,314.5C 355.233,298.961 362.233,286.461 374.5,277C 378.432,274.972 382.432,273.472 386.5,272.5 Z"/></g>
<g><path style="opacity:1" fill="#f4f4f4" d="M 216.5,286.5 C 223.57,287.407 225.237,290.907 221.5,297C 215,298.5 212.5,296 214,289.5C 215.045,288.627 215.878,287.627 216.5,286.5 Z"/></g>
<g><path style="opacity:1" fill="#f2f1f1" d="M 396.5,286.5 C 403.57,287.407 405.237,290.907 401.5,297C 396.921,298.577 393.921,297.077 392.5,292.5C 393.467,290.21 394.8,288.21 396.5,286.5 Z"/></g>
<g><path style="opacity:1" fill="#fef5e8" d="M 374.5,419.5 C 379.167,416.833 382.833,413.167 385.5,408.5C 394.729,393.051 403.729,377.385 412.5,361.5C 419.745,351.359 427.245,341.359 435,331.5C 455.47,308.454 480.97,299.287 511.5,304C 531.815,307.831 545.482,319.331 552.5,338.5C 555.157,363.578 551.99,387.912 543,411.5C 531.926,440.999 516.259,467.665 496,491.5C 464.452,529.388 426.285,558.555 381.5,579C 368.379,584.863 354.712,588.696 340.5,590.5C 326.196,588.96 311.863,588.127 297.5,588C 299.5,590 301.5,592 303.5,594C 302.584,594.278 301.918,594.778 301.5,595.5C 251.633,594.62 206.633,579.454 166.5,550C 128.663,521.833 97.4961,487.667 73,447.5C 54.3852,414.606 45.5519,379.273 46.5,341.5C 49.7095,328.443 57.0428,318.276 68.5,311C 107.048,294.678 139.882,302.512 167,334.5C 180.51,352.184 192.51,370.851 203,390.5C 208.342,400.177 214.842,409.01 222.5,417C 226.52,420.681 231.187,422.014 236.5,421C 260.083,404.938 286.083,398.604 314.5,402C 332.198,404.789 348.532,411.122 363.5,421C 367.31,421.587 370.977,421.087 374.5,419.5 Z"/></g>
<g><path style="opacity:1" fill="#f3cf9c" d="M 385.5,408.5 C 382.833,413.167 379.167,416.833 374.5,419.5C 377.833,415.5 381.5,411.833 385.5,408.5 Z"/></g>
<g><path style="opacity:1" fill="#38302d" d="M 342.5,474.5 C 338.833,477.5 335.5,480.833 332.5,484.5C 312.796,501.543 292.13,502.709 270.5,488C 260.233,479.948 253.066,469.781 249,457.5C 247.868,449.555 248.868,441.889 252,434.5C 253.049,432.382 254.549,430.716 256.5,429.5C 258.749,428.92 260.415,427.587 261.5,425.5C 264.805,423.882 268.139,422.216 271.5,420.5C 275.768,419.059 280.102,417.893 284.5,417C 294.5,416.333 304.5,416.333 314.5,417C 320.904,418.407 327.237,420.24 333.5,422.5C 337.739,425.746 341.906,429.079 346,432.5C 352.659,447.259 351.492,461.259 342.5,474.5 Z"/></g>
<g><path style="opacity:1" fill="#908881" d="M 261.5,425.5 C 260.415,427.587 258.749,428.92 256.5,429.5C 257.585,427.413 259.251,426.08 261.5,425.5 Z"/></g>
<g><path style="opacity:1" fill="#b4aba2" d="M 342.5,474.5 C 340.167,478.833 336.833,482.167 332.5,484.5C 335.5,480.833 338.833,477.5 342.5,474.5 Z"/></g>
<g><path style="opacity:1" fill="#413835" d="M 228.5,517.5 C 227.415,515.413 225.749,514.08 223.5,513.5C 222.92,511.251 221.587,509.585 219.5,508.5C 215.689,502.222 211.856,495.889 208,489.5C 206.581,485.118 207.748,481.784 211.5,479.5C 213.472,480.305 214.972,481.639 216,483.5C 218.06,492.421 220.727,501.088 224,509.5C 227.714,512.722 231.548,515.722 235.5,518.5C 245.263,521.571 255.263,522.905 265.5,522.5C 276.904,522.325 288.237,521.325 299.5,519.5C 315.737,522.204 332.07,523.037 348.5,522C 356.477,521.175 363.81,518.675 370.5,514.5C 377.087,505.259 381.254,494.925 383,483.5C 385.256,478.585 388.09,478.251 391.5,482.5C 389.065,493.357 383.898,503.023 376,511.5C 375.517,512.448 375.351,513.448 375.5,514.5C 368.843,518.495 361.843,521.995 354.5,525C 336.336,528.895 318.002,531.395 299.5,532.5C 278.588,532.347 258.255,529.181 238.5,523C 234.697,521.933 231.363,520.1 228.5,517.5 Z"/></g>
<g><path style="opacity:1" fill="#948c84" d="M 219.5,508.5 C 221.587,509.585 222.92,511.251 223.5,513.5C 221.413,512.415 220.08,510.749 219.5,508.5 Z"/></g>
<g><path style="opacity:1" fill="#978f87" d="M 223.5,513.5 C 225.749,514.08 227.415,515.413 228.5,517.5C 226.251,516.92 224.585,515.587 223.5,513.5 Z"/></g>
<g><path style="opacity:1" fill="#dfd6cb" d="M 340.5,590.5 C 327.886,594.036 314.886,595.702 301.5,595.5C 301.918,594.778 302.584,594.278 303.5,594C 301.5,592 299.5,590 297.5,588C 311.863,588.127 326.196,588.96 340.5,590.5 Z"/></g>
</svg>
