<?xml version="1.0" encoding="UTF-8"?>
<!DOCTYPE svg PUBLIC "-//W3C//DTD SVG 1.1//EN" "http://www.w3.org/Graphics/SVG/1.1/DTD/svg11.dtd">
<svg xmlns="http://www.w3.org/2000/svg" version="1.1" width="600px" height="600px" style="shape-rendering:geometricPrecision; text-rendering:geometricPrecision; image-rendering:optimizeQuality; fill-rule:evenodd; clip-rule:evenodd" xmlns:xlink="http://www.w3.org/1999/xlink">
<g><path style="opacity:0.975" fill="#020202" d="M 599.5,132.5 C 599.5,148.167 599.5,163.833 599.5,179.5C 591.991,200.518 581.824,220.184 569,238.5C 566.333,243.833 563.667,249.167 561,254.5C 558.438,264.222 555.771,273.889 553,283.5C 545.309,291.724 536.975,292.39 528,285.5C 522.617,328.368 511.617,369.701 495,409.5C 485.824,429.204 474.157,447.204 460,463.5C 456.402,485.08 445.069,501.08 426,511.5C 421.767,528.485 411.601,540.319 395.5,547C 380.291,553.777 364.624,555.11 348.5,551C 335.318,547.606 322.318,543.606 309.5,539C 306.139,538.663 302.806,538.163 299.5,537.5C 296.194,538.163 292.861,538.663 289.5,539C 276.692,543.602 263.692,547.602 250.5,551C 228.373,556.051 208.04,552.051 189.5,539C 181.121,531.608 175.621,522.441 173,511.5C 154.579,500.722 143.579,484.722 140,463.5C 121.194,442.318 106.861,418.318 97,391.5C 85.0447,357.011 76.5447,321.678 71.5,285.5C 60.8375,292.955 52.0042,291.289 45,280.5C 43.3864,269.425 40.3864,258.759 36,248.5C 29.2516,236.668 22.2516,225.001 15,213.5C 8.95598,201.759 3.78931,189.759 -0.5,177.5C -0.5,162.833 -0.5,148.167 -0.5,133.5C 5.14114,127.335 12.1411,123.168 20.5,121C 46.9664,114.884 72.9664,107.217 98.5,98C 119.087,89.471 139.753,81.1377 160.5,73C 167.179,70.7885 174.012,69.2885 181,68.5C 188.026,69.0642 194.526,71.2309 200.5,75C 207.347,79.9249 214.014,85.0915 220.5,90.5C 246.63,86.1586 272.963,84.1586 299.5,84.5C 326.374,84.0893 353.041,86.0893 379.5,90.5C 387.411,83.7549 395.744,77.5882 404.5,72C 410.577,69.2286 416.911,68.2286 423.5,69C 431.677,70.7257 439.677,73.059 447.5,76C 470.674,85.7248 494.007,95.0581 517.5,104C 539.789,110.489 562.122,116.822 584.5,123C 590.186,125.206 595.186,128.372 599.5,132.5 Z"/></g>
<g><path style="opacity:1" fill="#352d2b" d="M 216.5,101.5 C 219.31,104.136 222.31,106.636 225.5,109C 220.056,114.887 213.723,119.554 206.5,123C 200.151,123.83 194.818,121.83 190.5,117C 171.475,110.908 155.642,115.741 143,131.5C 121.535,167.432 103.535,205.099 89,244.5C 86.0627,250.712 82.896,256.712 79.5,262.5C 75.403,268.432 70.403,273.599 64.5,278C 59.9898,280.703 56.4898,279.869 54,275.5C 53.5115,265.702 51.1781,256.369 47,247.5C 40.5047,235.172 33.5047,223.172 26,211.5C 14.4507,192.019 7.61741,171.019 5.5,148.5C 5.25381,144.662 6.42047,141.328 9,138.5C 14.3585,134.738 20.1918,131.904 26.5,130C 47.1388,125.424 67.4721,119.757 87.5,113C 115.955,101.439 144.622,90.4387 173.5,80C 178.921,79.1608 184.254,79.4941 189.5,81C 199.512,86.5141 208.512,93.3475 216.5,101.5 Z"/></g>
<g><path style="opacity:1" fill="#352d2b" d="M 519.5,262.5 C 508.067,237.062 496.9,211.395 486,185.5C 477.189,165.868 466.856,147.201 455,129.5C 443.226,115.935 428.726,111.435 411.5,116C 407.833,118.333 404.167,120.667 400.5,123C 394.145,123.771 388.478,122.105 383.5,118C 380.262,114.932 377.262,111.765 374.5,108.5C 377.35,106.573 380.017,104.406 382.5,102C 382.272,101.601 381.938,101.435 381.5,101.5C 383.019,100.59 384.685,99.7568 386.5,99C 394.102,91.2 402.769,84.8666 412.5,80C 416.833,79.3333 421.167,79.3333 425.5,80C 454.378,90.4387 483.045,101.439 511.5,113C 533.699,119.8 556.033,126.133 578.5,132C 592.935,136.366 597.768,145.866 593,160.5C 589.093,178.886 582.427,196.219 573,212.5C 562.504,227.342 554.17,243.342 548,260.5C 547.261,266.268 546.095,271.934 544.5,277.5C 540.815,280.076 537.149,279.91 533.5,277C 528.603,272.271 523.936,267.438 519.5,262.5 Z"/></g>
<g><path style="opacity:1" fill="#e3d8c8" d="M 413.5,128.5 C 420.432,133.646 427.432,138.812 434.5,144C 445.335,153.337 456.002,162.837 466.5,172.5C 480.155,198.622 491.988,225.288 502,252.5C 505.556,257.389 508.223,262.722 510,268.5C 511.921,270.963 514.254,272.963 517,274.5C 513.841,329.138 499.174,380.472 473,428.5C 469.246,434.342 465.246,440.009 461,445.5C 460.486,425.785 456.653,406.785 449.5,388.5C 449.338,386.473 449.505,384.473 450,382.5C 456.136,366.091 461.47,349.424 466,332.5C 469.518,316.09 466.851,300.757 458,286.5C 441.471,260.807 418.304,244.307 388.5,237C 376.961,236.023 368.794,240.856 364,251.5C 359.273,268.738 353.773,285.738 347.5,302.5C 346.675,303.386 345.675,303.719 344.5,303.5C 337.439,302.587 330.439,301.42 323.5,300C 310.865,298.541 298.198,298.208 285.5,299C 274.811,300.439 264.144,301.939 253.5,303.5C 246.578,286.233 240.744,268.566 236,250.5C 228.739,235.466 217.239,230.966 201.5,237C 171.783,247.72 149.949,267.22 136,295.5C 131.899,304.744 130.565,314.411 132,324.5C 136.659,342.812 142.326,360.812 149,378.5C 149.953,381.432 150.453,384.432 150.5,387.5C 144.482,402.574 140.815,418.241 139.5,434.5C 138.833,437.833 138.167,441.167 137.5,444.5C 113.741,409.961 97.9081,371.961 90,330.5C 86.422,312.787 83.5886,294.954 81.5,277C 81.8623,275.775 82.3623,274.609 83,273.5C 84.9552,272.547 86.6218,271.213 88,269.5C 98.0907,251.539 106.424,232.872 113,213.5C 118.259,201.984 123.759,190.651 129.5,179.5C 147.222,160.849 166.222,143.849 186.5,128.5C 195.089,134.881 204.423,136.048 214.5,132C 221.483,128.253 227.649,123.419 233,117.5C 237.94,110.801 237.44,104.635 231.5,99C 254.241,96.1267 277.075,94.96 300,95.5C 322.637,94.7843 345.137,96.1176 367.5,99.5C 361.457,107.83 362.457,115.33 370.5,122C 373.99,124.911 377.656,127.578 381.5,130C 392.563,136.378 403.229,135.878 413.5,128.5 Z"/></g>
<g><path style="opacity:1" fill="#a9a094" d="M 186.5,128.5 C 166.222,143.849 147.222,160.849 129.5,179.5C 135.465,166.904 141.965,154.571 149,142.5C 155.745,132.413 165.078,126.413 177,124.5C 180.611,125.014 183.778,126.347 186.5,128.5 Z"/></g>
<g><path style="opacity:1" fill="#a9a094" d="M 466.5,172.5 C 456.002,162.837 445.335,153.337 434.5,144C 427.432,138.812 420.432,133.646 413.5,128.5C 414.058,127.21 415.058,126.377 416.5,126C 421.899,124.339 427.232,124.672 432.5,127C 441.61,131.111 448.444,137.611 453,146.5C 457.781,155.063 462.281,163.73 466.5,172.5 Z"/></g>
<g><path style="opacity:1" fill="#6c665e" d="M 216.5,101.5 C 219.721,102.709 222.721,104.376 225.5,106.5C 226.614,107.723 226.781,109.056 226,110.5C 218.995,119.754 209.829,124.254 198.5,124C 195.249,122.423 192.249,120.423 189.5,118C 178.946,113.643 168.613,114.31 158.5,120C 147.457,127.042 139.29,136.542 134,148.5C 116.883,179.733 102.217,212.066 90,245.5C 86.9066,252.023 83.5733,258.356 80,264.5C 79.5357,263.906 79.369,263.239 79.5,262.5C 82.896,256.712 86.0627,250.712 89,244.5C 103.535,205.099 121.535,167.432 143,131.5C 155.642,115.741 171.475,110.908 190.5,117C 194.818,121.83 200.151,123.83 206.5,123C 213.723,119.554 220.056,114.887 225.5,109C 222.31,106.636 219.31,104.136 216.5,101.5 Z"/></g>
<g><path style="opacity:1" fill="#6b655e" d="M 381.5,101.5 C 381.938,101.435 382.272,101.601 382.5,102C 380.017,104.406 377.35,106.573 374.5,108.5C 377.262,111.765 380.262,114.932 383.5,118C 388.478,122.105 394.145,123.771 400.5,123C 404.167,120.667 407.833,118.333 411.5,116C 428.726,111.435 443.226,115.935 455,129.5C 466.856,147.201 477.189,165.868 486,185.5C 496.9,211.395 508.067,237.062 519.5,262.5C 519.631,263.239 519.464,263.906 519,264.5C 507.297,238.745 495.963,212.745 485,186.5C 476.189,166.868 465.856,148.201 454,130.5C 445.485,121.325 434.985,115.992 422.5,114.5C 414.487,115.508 407.487,118.674 401.5,124C 394.419,125.195 388.086,123.529 382.5,119C 379.051,116.518 375.884,113.685 373,110.5C 372.333,109.5 372.333,108.5 373,107.5C 375.95,105.613 378.784,103.613 381.5,101.5 Z"/></g>
<g><path style="opacity:1" fill="#d7c9b6" d="M 297.5,171.5 C 301.182,170.725 303.682,172.059 305,175.5C 306.385,196.818 306.718,218.151 306,239.5C 302.352,244.331 298.352,244.665 294,240.5C 293.333,220.167 293.333,199.833 294,179.5C 294.368,176.435 295.535,173.768 297.5,171.5 Z"/></g>
<g><path style="opacity:1" fill="#d7c9b6" d="M 242.5,195.5 C 250.155,195.579 255.988,198.913 260,205.5C 266.307,217.039 269.307,229.373 269,242.5C 266.008,248.596 262.675,248.93 259,243.5C 257.822,226.945 252.155,212.279 242,199.5C 241.421,198.072 241.588,196.738 242.5,195.5 Z"/></g>
<g><path style="opacity:1" fill="#d7c9b6" d="M 350.5,195.5 C 352.527,195.338 354.527,195.505 356.5,196C 357.554,197.388 357.72,198.888 357,200.5C 352.666,205.16 349.332,210.494 347,216.5C 343.562,225.917 341.229,235.584 340,245.5C 335.869,248.543 332.869,247.543 331,242.5C 329.999,227.842 333.666,214.509 342,202.5C 344.441,199.546 347.275,197.213 350.5,195.5 Z"/></g>
<g><path style="opacity:1" fill="#625853" d="M 253.5,303.5 C 246.574,306.031 239.574,308.364 232.5,310.5C 240.533,291.131 236.533,274.631 220.5,261C 194.969,247.181 174.802,252.681 160,277.5C 152.704,302.068 160.538,319.902 183.5,331C 187.418,332.156 191.418,332.656 195.5,332.5C 186.232,339.934 177.732,348.267 170,357.5C 162.729,367.053 156.229,377.053 150.5,387.5C 150.453,384.432 149.953,381.432 149,378.5C 142.326,360.812 136.659,342.812 132,324.5C 130.565,314.411 131.899,304.744 136,295.5C 149.949,267.22 171.783,247.72 201.5,237C 217.239,230.966 228.739,235.466 236,250.5C 240.744,268.566 246.578,286.233 253.5,303.5 Z"/></g>
<g><path style="opacity:1" fill="#625853" d="M 449.5,388.5 C 438.294,366.942 423.294,348.275 404.5,332.5C 424.055,330.794 436.555,320.461 442,301.5C 444.436,276.528 433.603,260.695 409.5,254C 386.523,251.899 371.356,261.733 364,283.5C 362.791,292.739 363.625,301.739 366.5,310.5C 359.122,308.151 351.788,305.818 344.5,303.5C 345.675,303.719 346.675,303.386 347.5,302.5C 353.773,285.738 359.273,268.738 364,251.5C 368.794,240.856 376.961,236.023 388.5,237C 418.304,244.307 441.471,260.807 458,286.5C 466.851,300.757 469.518,316.09 466,332.5C 461.47,349.424 456.136,366.091 450,382.5C 449.505,384.473 449.338,386.473 449.5,388.5 Z"/></g>
<g><path style="opacity:1" fill="#a69887" d="M 232.5,310.5 C 219.409,316.546 207.075,323.879 195.5,332.5C 191.418,332.656 187.418,332.156 183.5,331C 160.538,319.902 152.704,302.068 160,277.5C 174.802,252.681 194.969,247.181 220.5,261C 236.533,274.631 240.533,291.131 232.5,310.5 Z"/></g>
<g><path style="opacity:1" fill="#a69787" d="M 404.5,332.5 C 392.74,323.619 380.073,316.286 366.5,310.5C 363.625,301.739 362.791,292.739 364,283.5C 371.356,261.733 386.523,251.899 409.5,254C 433.603,260.695 444.436,276.528 442,301.5C 436.555,320.461 424.055,330.794 404.5,332.5 Z"/></g>
<g><path style="opacity:1" fill="#251a16" d="M 192.5,268.5 C 211.492,268.326 220.992,277.659 221,296.5C 217.062,313.228 206.562,320.061 189.5,317C 172.927,308.953 168.427,296.453 176,279.5C 180.406,273.901 185.906,270.234 192.5,268.5 Z"/></g>
<g><path style="opacity:1" fill="#251a17" d="M 398.5,268.5 C 422.126,269.624 430.959,281.624 425,304.5C 417.574,316.327 407.074,320.161 393.5,316C 378.45,307.511 374.616,295.344 382,279.5C 386.39,273.907 391.89,270.24 398.5,268.5 Z"/></g>
<g><path style="opacity:1" fill="#f4f4f4" d="M 203.5,273.5 C 211.775,272.706 214.942,276.373 213,284.5C 209.341,288.115 205.341,288.448 201,285.5C 198.523,280.669 199.356,276.669 203.5,273.5 Z"/></g>
<g><path style="opacity:1" fill="#f6f5f5" d="M 407.5,273.5 C 417.563,274.054 419.897,278.554 414.5,287C 406.225,289.057 402.725,285.89 404,277.5C 405.102,276.051 406.269,274.718 407.5,273.5 Z"/></g>
<g><path style="opacity:1" fill="#352d2b" d="M 450.5,458.5 C 448.057,480.075 436.89,495.075 417,503.5C 414.403,521.424 404.57,533.257 387.5,539C 375.353,542.804 363.02,543.471 350.5,541C 338.588,538.105 326.921,534.439 315.5,530C 304.5,526.667 293.5,526.667 282.5,530C 269.117,535.017 255.45,539.017 241.5,542C 221.337,544.724 204.17,538.89 190,524.5C 186.046,517.929 183.212,510.929 181.5,503.5C 163.049,494.636 152.383,479.969 149.5,459.5C 147.875,402.591 171.542,359.425 220.5,330C 275.694,301.81 330.361,302.81 384.5,333C 410.121,349.958 429.287,372.458 442,400.5C 448.449,419.504 451.283,438.838 450.5,458.5 Z"/></g>
<g><path style="opacity:1" fill="#231815" d="M 286.5,334.5 C 299.374,333.729 312.041,334.896 324.5,338C 341.589,344.675 346.756,356.508 340,373.5C 330.583,384.308 319.083,392.308 305.5,397.5C 304.667,398.5 303.833,399.5 303,400.5C 302.139,406.585 302.473,412.585 304,418.5C 309.582,429.755 317.082,439.588 326.5,448C 341.483,459.327 357.816,468.327 375.5,475C 394,480.418 412.833,481.918 432,479.5C 434.456,479.287 435.456,480.287 435,482.5C 417.462,488.214 399.629,489.047 381.5,485C 358.772,480.468 337.772,471.801 318.5,459C 306.956,454.744 295.289,454.41 283.5,458C 254.609,476.741 222.942,487.075 188.5,489C 181.06,489.928 173.726,489.594 166.5,488C 165.643,487.311 164.977,486.478 164.5,485.5C 189.352,486.63 213.018,481.796 235.5,471C 247.162,464.838 258.496,458.171 269.5,451C 281.692,441.479 290.859,429.645 297,415.5C 297.667,410.5 297.667,405.5 297,400.5C 291.077,395.785 284.577,391.951 277.5,389C 269.29,384.158 262.79,377.658 258,369.5C 254.616,356.438 258.782,346.605 270.5,340C 275.758,337.597 281.091,335.764 286.5,334.5 Z"/></g>
<g><path style="opacity:1" fill="#5d5550" d="M 450.5,458.5 C 451.283,438.838 448.449,419.504 442,400.5C 429.287,372.458 410.121,349.958 384.5,333C 330.361,302.81 275.694,301.81 220.5,330C 171.542,359.425 147.875,402.591 149.5,459.5C 146.718,432.183 151.885,406.516 165,382.5C 202.503,325.845 255.337,301.679 323.5,310C 378.141,318.224 417.641,347.058 442,396.5C 449.507,416.541 452.341,437.208 450.5,458.5 Z"/></g>
<g><path style="opacity:1" fill="#635f58" d="M 139.5,434.5 C 139.666,438.514 139.499,442.514 139,446.5C 138.283,445.956 137.783,445.289 137.5,444.5C 138.167,441.167 138.833,437.833 139.5,434.5 Z"/></g>
</svg>
