<?xml version="1.0" encoding="UTF-8"?>
<!DOCTYPE svg PUBLIC "-//W3C//DTD SVG 1.1//EN" "http://www.w3.org/Graphics/SVG/1.1/DTD/svg11.dtd">
<svg xmlns="http://www.w3.org/2000/svg" version="1.1" width="600px" height="600px" style="shape-rendering:geometricPrecision; text-rendering:geometricPrecision; image-rendering:optimizeQuality; fill-rule:evenodd; clip-rule:evenodd" xmlns:xlink="http://www.w3.org/1999/xlink">
<g><path style="opacity:0.953" fill="#010101" d="M 203.5,-0.5 C 216.167,-0.5 228.833,-0.5 241.5,-0.5C 240.5,1.16667 239.167,2.5 237.5,3.5C 230.034,3.84982 222.701,5.01649 215.5,7C 184.812,16.8428 155.146,29.1761 126.5,44C 122.403,46.3696 118.736,49.2029 115.5,52.5C 113.141,53.176 110.808,54.0093 108.5,55C 107.978,55.5613 107.645,56.228 107.5,57C 108.604,58.8204 110.104,60.3204 112,61.5C 112.333,61.1667 112.667,60.8333 113,60.5C 115.031,63.3553 117.197,66.022 119.5,68.5C 125.931,96.3637 138.431,121.03 157,142.5C 162.826,150.976 166.492,160.309 168,170.5C 173.604,210.694 174.937,251.027 172,291.5C 144.933,324.368 132.933,362.035 136,404.5C 136.725,405.059 137.558,405.392 138.5,405.5C 141.204,404.428 143.87,403.428 146.5,402.5C 144.737,410.63 143.07,418.797 141.5,427C 142.823,441.441 145.49,455.608 149.5,469.5C 151.903,469.607 153.736,468.607 155,466.5C 156.709,463.582 158.542,460.748 160.5,458C 161.332,457.312 161.998,457.479 162.5,458.5C 157.507,468.073 156.341,478.073 159,488.5C 167.638,503.142 178.472,515.976 191.5,527C 194.506,529.515 197.84,530.849 201.5,531C 203.901,525.789 205.401,520.289 206,514.5C 206.368,513.09 207.201,512.09 208.5,511.5C 208.904,535.159 219.904,551.659 241.5,561C 257.783,567.425 273.783,574.425 289.5,582C 295.309,585.309 299.976,589.809 303.5,595.5C 308.418,589.083 314.418,583.916 321.5,580C 334.602,573.782 347.935,568.115 361.5,563C 374.332,558.486 384.499,550.653 392,539.5C 395.573,530.628 397.74,521.461 398.5,512C 399.449,511.383 400.282,511.549 401,512.5C 401.744,517.552 402.744,522.552 404,527.5C 404.68,529.513 406.013,530.846 408,531.5C 423.321,521.512 435.988,508.846 446,493.5C 449.873,487.34 451.207,480.673 450,473.5C 448.598,468.078 447.264,462.745 446,457.5C 448.955,461.244 451.789,465.078 454.5,469C 456.108,469.658 457.275,469.158 458,467.5C 463.163,451.86 465.497,435.86 465,419.5C 463.526,414.91 462.359,410.243 461.5,405.5C 462.303,402.118 463.97,401.951 466.5,405C 468.259,405.798 469.926,405.631 471.5,404.5C 474.135,391.833 473.968,379.167 471,366.5C 466.748,347.073 459.748,328.739 450,311.5C 445.723,304.621 440.723,298.288 435,292.5C 431.825,250.307 433.492,208.307 440,166.5C 440.871,162.016 442.204,157.683 444,153.5C 452.333,141.167 460.667,128.833 469,116.5C 475.243,104.928 480.41,92.928 484.5,80.5C 490.062,75.4317 494.729,69.5984 498.5,63C 496.636,61.5693 494.636,60.4026 492.5,59.5C 493.014,57.4884 493.18,55.4884 493,53.5C 489.958,50.0673 486.458,47.234 482.5,45C 452.107,28.9725 420.44,15.9725 387.5,6C 380.274,4.02508 372.941,3.35841 365.5,4C 364.944,4.38258 364.611,4.88258 364.5,5.5C 361.572,6.59136 359.406,8.59136 358,11.5C 352.501,22.1634 347.834,33.1634 344,44.5C 340.96,47.5183 337.294,48.8516 333,48.5C 313.499,47.1736 293.999,47.1736 274.5,48.5C 269.167,48.8908 265,46.8908 262,42.5C 258.7,29.4066 253.2,17.4066 245.5,6.5C 247.063,3.86842 246.73,1.53509 244.5,-0.5C 247.5,-0.5 250.5,-0.5 253.5,-0.5C 261.861,10.8999 267.528,23.5666 270.5,37.5C 292.523,36.5018 314.523,36.1685 336.5,36.5C 340.309,23.2215 345.976,10.8882 353.5,-0.5C 370.167,-0.5 386.833,-0.5 403.5,-0.5C 430.427,8.98483 456.76,20.1515 482.5,33C 487.435,35.6057 492.102,38.6057 496.5,42C 503.219,47.4947 505.052,54.328 502,62.5C 496.943,77.9978 491.277,93.3312 485,108.5C 482.255,114.325 479.255,119.992 476,125.5C 468.912,136.009 461.579,146.342 454,156.5C 452.259,161.054 450.926,165.721 450,170.5C 444.063,210.051 442.729,249.718 446,289.5C 460.159,305.811 470.159,324.478 476,345.5C 482.375,364.067 484.708,383.067 483,402.5C 481.989,408.329 479.156,412.996 474.5,416.5C 476.878,424.422 477.045,432.422 475,440.5C 469.489,480.686 450.655,513.186 418.5,538C 413.845,541.212 408.845,542.045 403.5,540.5C 396.915,553.585 386.915,563.085 373.5,569C 355.178,575.663 337.511,583.663 320.5,593C 318.294,595.037 316.294,597.203 314.5,599.5C 307.5,599.5 300.5,599.5 293.5,599.5C 290.616,595.451 286.949,592.284 282.5,590C 264.5,582 246.5,574 228.5,566C 217.949,559.783 209.783,551.283 204,540.5C 199.372,541.793 194.872,541.293 190.5,539C 173.055,526.228 159.221,510.394 149,491.5C 147.687,487.58 146.687,483.58 146,479.5C 143.3,477.766 141.3,475.432 140,472.5C 136.545,461.014 133.879,449.348 132,437.5C 131.261,430.64 131.428,423.807 132.5,417C 131.084,414.575 129.25,412.409 127,410.5C 123.678,400.773 122.678,390.773 124,380.5C 128.421,345.682 141.088,314.348 162,286.5C 164.424,249.707 163.091,213.04 158,176.5C 157.348,167.21 154.681,158.543 150,150.5C 137.255,136.698 127.255,121.031 120,103.5C 114.103,87.3872 108.603,71.2206 103.5,55C 104.133,50.5676 105.967,46.7343 109,43.5C 121.107,35.1927 133.94,28.026 147.5,22C 166.143,14.1696 184.809,6.66955 203.5,-0.5 Z"/></g>
<g><path style="opacity:1" fill="#131313" d="M 241.5,-0.5 C 242.5,-0.5 243.5,-0.5 244.5,-0.5C 246.73,1.53509 247.063,3.86842 245.5,6.5C 237.855,11.9791 231.355,18.6457 226,26.5C 216.723,48.7203 207.723,71.0536 199,93.5C 193.961,106.429 186.795,117.929 177.5,128C 175.711,128.52 174.044,128.187 172.5,127C 154.466,107.711 136.799,88.2106 119.5,68.5C 117.197,66.022 115.031,63.3553 113,60.5C 112.667,60.8333 112.333,61.1667 112,61.5C 110.104,60.3204 108.604,58.8204 107.5,57C 107.645,56.228 107.978,55.5613 108.5,55C 110.808,54.0093 113.141,53.176 115.5,52.5C 135.125,75.2951 154.958,97.9617 175,120.5C 181.244,113.687 186.244,106.02 190,97.5C 200.081,71.5904 210.748,45.9237 222,20.5C 227.004,14.6635 232.171,8.99687 237.5,3.5C 239.167,2.5 240.5,1.16667 241.5,-0.5 Z"/></g>
<g><path style="opacity:1" fill="#706b6b" d="M 237.5,3.5 C 232.171,8.99687 227.004,14.6635 222,20.5C 210.748,45.9237 200.081,71.5904 190,97.5C 186.244,106.02 181.244,113.687 175,120.5C 154.958,97.9617 135.125,75.2951 115.5,52.5C 118.736,49.2029 122.403,46.3696 126.5,44C 155.146,29.1761 184.812,16.8428 215.5,7C 222.701,5.01649 230.034,3.84982 237.5,3.5 Z"/></g>
<g><path style="opacity:1" fill="#706b6b" d="M 492.5,59.5 C 490.023,63.1008 487.523,66.7674 485,70.5C 477.626,76.3729 471.126,83.0395 465.5,90.5C 462.59,92.2391 460.09,94.5724 458,97.5C 452.333,106.167 446.667,114.833 441,123.5C 438.45,127.192 434.95,128.858 430.5,128.5C 428.847,128.34 427.514,127.674 426.5,126.5C 420.98,118.125 415.98,109.458 411.5,100.5C 402.024,71.2098 389.524,43.2098 374,16.5C 371.716,12.0506 368.549,8.38396 364.5,5.5C 364.611,4.88258 364.944,4.38258 365.5,4C 372.941,3.35841 380.274,4.02508 387.5,6C 420.44,15.9725 452.107,28.9725 482.5,45C 486.458,47.234 489.958,50.0673 493,53.5C 493.18,55.4884 493.014,57.4884 492.5,59.5 Z"/></g>
<g><path style="opacity:1" fill="#131313" d="M 364.5,5.5 C 368.549,8.38396 371.716,12.0506 374,16.5C 389.524,43.2098 402.024,71.2098 411.5,100.5C 413.146,107.464 415.646,114.131 419,120.5C 421.066,123.107 423.566,125.107 426.5,126.5C 427.514,127.674 428.847,128.34 430.5,128.5C 433.723,129.925 436.89,129.592 440,127.5C 449.004,115.486 457.504,103.152 465.5,90.5C 471.126,83.0395 477.626,76.3729 485,70.5C 487.523,66.7674 490.023,63.1008 492.5,59.5C 494.636,60.4026 496.636,61.5693 498.5,63C 494.729,69.5984 490.062,75.4317 484.5,80.5C 480.834,83.9973 477.001,87.3307 473,90.5C 464.001,105.83 453.834,120.33 442.5,134C 438.738,136.156 434.738,136.823 430.5,136C 421.29,133.653 414.79,128.153 411,119.5C 403.393,98.0116 395.393,76.6783 387,55.5C 380.143,39.607 371.643,24.7736 361.5,11C 362.758,9.25909 363.758,7.42576 364.5,5.5 Z"/></g>
<g><path style="opacity:1" fill="#534e4d" d="M 364.5,5.5 C 363.758,7.42576 362.758,9.25909 361.5,11C 371.643,24.7736 380.143,39.607 387,55.5C 395.393,76.6783 403.393,98.0116 411,119.5C 414.79,128.153 421.29,133.653 430.5,136C 434.738,136.823 438.738,136.156 442.5,134C 453.834,120.33 464.001,105.83 473,90.5C 477.001,87.3307 480.834,83.9973 484.5,80.5C 480.41,92.928 475.243,104.928 469,116.5C 460.667,128.833 452.333,141.167 444,153.5C 442.204,157.683 440.871,162.016 440,166.5C 433.492,208.307 431.825,250.307 435,292.5C 440.723,298.288 445.723,304.621 450,311.5C 459.748,328.739 466.748,347.073 471,366.5C 473.968,379.167 474.135,391.833 471.5,404.5C 469.926,405.631 468.259,405.798 466.5,405C 463.97,401.951 462.303,402.118 461.5,405.5C 462.359,410.243 463.526,414.91 465,419.5C 465.497,435.86 463.163,451.86 458,467.5C 457.275,469.158 456.108,469.658 454.5,469C 451.789,465.078 448.955,461.244 446,457.5C 447.264,462.745 448.598,468.078 450,473.5C 451.207,480.673 449.873,487.34 446,493.5C 435.988,508.846 423.321,521.512 408,531.5C 406.013,530.846 404.68,529.513 404,527.5C 402.744,522.552 401.744,517.552 401,512.5C 400.282,511.549 399.449,511.383 398.5,512C 397.74,521.461 395.573,530.628 392,539.5C 384.499,550.653 374.332,558.486 361.5,563C 347.935,568.115 334.602,573.782 321.5,580C 314.418,583.916 308.418,589.083 303.5,595.5C 299.976,589.809 295.309,585.309 289.5,582C 273.783,574.425 257.783,567.425 241.5,561C 219.904,551.659 208.904,535.159 208.5,511.5C 207.201,512.09 206.368,513.09 206,514.5C 205.401,520.289 203.901,525.789 201.5,531C 197.84,530.849 194.506,529.515 191.5,527C 178.472,515.976 167.638,503.142 159,488.5C 156.341,478.073 157.507,468.073 162.5,458.5C 161.998,457.479 161.332,457.312 160.5,458C 158.542,460.748 156.709,463.582 155,466.5C 153.736,468.607 151.903,469.607 149.5,469.5C 145.49,455.608 142.823,441.441 141.5,427C 143.07,418.797 144.737,410.63 146.5,402.5C 143.87,403.428 141.204,404.428 138.5,405.5C 137.558,405.392 136.725,405.059 136,404.5C 132.933,362.035 144.933,324.368 172,291.5C 174.937,251.027 173.604,210.694 168,170.5C 166.492,160.309 162.826,150.976 157,142.5C 138.431,121.03 125.931,96.3637 119.5,68.5C 136.799,88.2106 154.466,107.711 172.5,127C 174.044,128.187 175.711,128.52 177.5,128C 186.795,117.929 193.961,106.429 199,93.5C 207.723,71.0536 216.723,48.7203 226,26.5C 231.355,18.6457 237.855,11.9791 245.5,6.5C 253.2,17.4066 258.7,29.4066 262,42.5C 265,46.8908 269.167,48.8908 274.5,48.5C 293.999,47.1736 313.499,47.1736 333,48.5C 337.294,48.8516 340.96,47.5183 344,44.5C 347.834,33.1634 352.501,22.1634 358,11.5C 359.406,8.59136 361.572,6.59136 364.5,5.5 Z"/></g>
<g><path style="opacity:1" fill="#504b4b" d="M 465.5,90.5 C 457.504,103.152 449.004,115.486 440,127.5C 436.89,129.592 433.723,129.925 430.5,128.5C 434.95,128.858 438.45,127.192 441,123.5C 446.667,114.833 452.333,106.167 458,97.5C 460.09,94.5724 462.59,92.2391 465.5,90.5 Z"/></g>
<g><path style="opacity:1" fill="#534e4d" d="M 411.5,100.5 C 415.98,109.458 420.98,118.125 426.5,126.5C 423.566,125.107 421.066,123.107 419,120.5C 415.646,114.131 413.146,107.464 411.5,100.5 Z"/></g>
<g><path style="opacity:1" fill="#020303" d="M 238.5,176.5 C 244.863,176.418 250.696,178.085 256,181.5C 257.37,191.728 254.203,200.228 246.5,207C 241.004,210.498 235.17,213.331 229,215.5C 225.621,213.785 223.287,211.118 222,207.5C 218.089,191.981 223.589,181.648 238.5,176.5 Z"/></g>
<g><path style="opacity:1" fill="#020303" d="M 363.5,176.5 C 381.324,178.157 388.824,187.824 386,205.5C 384.998,209.164 383.164,212.331 380.5,215C 368.049,213.693 358.882,207.526 353,196.5C 351.325,191.222 351.159,185.889 352.5,180.5C 356.035,178.434 359.702,177.1 363.5,176.5 Z"/></g>
<g><path style="opacity:1" fill="#ebebeb" d="M 237.5,183.5 C 244.896,183.615 246.23,186.448 241.5,192C 238.783,193.033 236.949,192.2 236,189.5C 235.252,187.16 235.752,185.16 237.5,183.5 Z"/></g>
<g><path style="opacity:1" fill="#e9e9e9" d="M 364.5,183.5 C 368.445,182.573 371.112,183.906 372.5,187.5C 370.921,192.595 368.087,193.595 364,190.5C 363.297,188.071 363.463,185.738 364.5,183.5 Z"/></g>
<g><path style="opacity:1" fill="#231815" d="M 292.5,344.5 C 304.675,343.939 316.675,345.105 328.5,348C 347.674,354.849 354.174,368.016 348,387.5C 336.616,408.111 319.116,417.611 295.5,416C 282.248,412.401 271.414,405.235 263,394.5C 251.616,373.66 256.45,358.16 277.5,348C 282.528,346.426 287.528,345.259 292.5,344.5 Z"/></g>
<g><path style="opacity:1" fill="#f19c9f" d="M 295.5,443.5 C 308.886,443.745 322.219,444.745 335.5,446.5C 339.201,446.373 342.868,446.04 346.5,445.5C 348.134,467.962 345.634,489.962 339,511.5C 328.482,536.511 310.649,544.011 285.5,534C 275.638,526.457 269.138,516.623 266,504.5C 261.373,485.106 259.54,465.439 260.5,445.5C 272.401,446.943 284.068,446.276 295.5,443.5 Z"/></g>
</svg>
