<?xml version="1.0" encoding="UTF-8"?>
<!DOCTYPE svg PUBLIC "-//W3C//DTD SVG 1.1//EN" "http://www.w3.org/Graphics/SVG/1.1/DTD/svg11.dtd">
<svg xmlns="http://www.w3.org/2000/svg" version="1.1" width="600px" height="600px" style="shape-rendering:geometricPrecision; text-rendering:geometricPrecision; image-rendering:optimizeQuality; fill-rule:evenodd; clip-rule:evenodd" xmlns:xlink="http://www.w3.org/1999/xlink">
<g><path style="opacity:0.96" fill="#060402" d="M 599.5,313.5 C 599.5,325.5 599.5,337.5 599.5,349.5C 592.52,353.675 585.686,353.342 579,348.5C 581.132,356.022 583.132,363.688 585,371.5C 585.667,378.167 585.667,384.833 585,391.5C 581.195,417.858 575.862,443.858 569,469.5C 564.707,474.032 559.54,475.365 553.5,473.5C 554.061,479.732 553.228,485.732 551,491.5C 547.545,495.875 543.212,497.208 538,495.5C 538.667,510.677 540.833,525.677 544.5,540.5C 542.465,555.347 534.465,560.18 520.5,555C 517,552.167 513.5,549.333 510,546.5C 507.683,553.814 502.683,557.814 495,558.5C 465.328,551.008 440.662,535.675 421,512.5C 411.478,500.45 405.478,486.783 403,471.5C 400.677,461.23 398.677,450.897 397,440.5C 388.926,454.467 377.426,464.634 362.5,471C 319.687,487.938 277.021,487.605 234.5,470C 221.103,463.599 210.603,454.099 203,441.5C 201.155,457.06 198.155,472.393 194,487.5C 183.86,511.642 167.36,530.142 144.5,543C 132.438,550.131 119.605,555.297 106,558.5C 98.2923,557.784 93.2923,553.784 91,546.5C 86.1991,552.468 80.0324,556.135 72.5,557.5C 61.8754,556.275 56.8754,550.275 57.5,539.5C 60.5067,524.956 62.34,510.289 63,495.5C 54.7387,497.196 49.7387,493.862 48,485.5C 47.5012,481.514 47.3345,477.514 47.5,473.5C 40.4773,475.549 34.9773,473.549 31,467.5C 23.2597,439.208 17.4264,410.541 13.5,381.5C 13.6667,378.833 13.8333,376.167 14,373.5C 15.8689,365.029 17.8689,356.695 20,348.5C 13.0461,353.814 6.21281,353.814 -0.5,348.5C -0.5,337.167 -0.5,325.833 -0.5,314.5C 2.81757,305.528 6.98423,296.862 12,288.5C 11.0473,270.317 15.714,253.65 26,238.5C 49.411,203.418 74.7443,169.751 102,137.5C 117.167,123.667 131.667,109.167 145.5,94C 173.129,71.4365 204.463,56.1032 239.5,48C 259.463,45.1704 279.463,42.6704 299.5,40.5C 316.474,42.498 333.474,44.3314 350.5,46C 381.609,52.057 409.943,64.3903 435.5,83C 467.553,106.718 496.053,134.218 521,165.5C 538.722,189.555 556.055,213.889 573,238.5C 583.173,253.343 587.84,269.676 587,287.5C 591.487,296.136 595.653,304.803 599.5,313.5 Z"/></g>
<g><path style="opacity:1" fill="#efefef" d="M 328.5,54.5 C 330.838,56.0395 333.505,56.7062 336.5,56.5C 337.209,57.404 338.209,57.7373 339.5,57.5C 342.215,59.0719 345.215,60.0719 348.5,60.5C 349.93,61.5375 351.597,62.2041 353.5,62.5C 356.515,64.6744 359.849,66.3411 363.5,67.5C 383.588,80.0227 391.422,98.0227 387,121.5C 385.44,129.409 383.106,137.076 380,144.5C 368.982,165.212 357.482,185.546 345.5,205.5C 343.127,207.579 341.794,210.246 341.5,213.5C 335.558,223.286 333.392,233.952 335,245.5C 338.758,263.014 346.258,278.681 357.5,292.5C 360.411,297.746 364.078,302.413 368.5,306.5C 369.08,308.749 370.413,310.415 372.5,311.5C 373.08,313.749 374.413,315.415 376.5,316.5C 377.08,318.749 378.413,320.415 380.5,321.5C 381.08,323.749 382.413,325.415 384.5,326.5C 388.257,332.35 392.257,338.017 396.5,343.5C 398.588,345.336 399.921,347.669 400.5,350.5C 402.983,357.462 405.983,364.128 409.5,370.5C 410.913,373.219 411.58,376.219 411.5,379.5C 412.48,390.937 410.147,401.604 404.5,411.5C 400.638,416.109 395.971,419.776 390.5,422.5C 358.605,424.919 331.438,414.586 309,391.5C 306.938,389.099 305.271,386.433 304,383.5C 302.88,376.196 302.047,368.863 301.5,361.5C 316.854,359.074 329.687,352.074 340,340.5C 352.772,323.397 352.606,306.564 339.5,290C 326.628,282.256 312.628,278.756 297.5,279.5C 282.297,278.735 268.797,283.068 257,292.5C 245.605,311.559 247.772,329.059 263.5,345C 273.11,353.971 284.443,359.471 297.5,361.5C 297.236,369.234 296.403,376.9 295,384.5C 278.784,405.865 257.284,418.365 230.5,422C 222.971,422.276 215.638,422.443 208.5,422.5C 203.269,419.773 198.769,416.106 195,411.5C 194.667,411.833 194.333,412.167 194,412.5C 192.463,408.771 190.963,405.105 189.5,401.5C 189.324,398.273 188.657,395.273 187.5,392.5C 186.171,380.487 188.337,369.154 194,358.5C 200.768,351.38 206.434,343.38 211,334.5C 216.761,327.286 222.261,319.953 227.5,312.5C 229.587,311.415 230.92,309.749 231.5,307.5C 247.755,289.726 258.589,269.06 264,245.5C 264.816,240.316 264.65,235.316 263.5,230.5C 263.706,227.505 263.04,224.838 261.5,222.5C 259.512,215.519 256.679,208.852 253,202.5C 244,187.833 235,173.167 226,158.5C 221.463,150.023 217.63,141.356 214.5,132.5C 214.258,128.521 213.258,124.854 211.5,121.5C 207.749,103.89 212.082,88.8905 224.5,76.5C 226.5,75.1667 228.167,73.5 229.5,71.5C 231.853,70.6597 233.853,69.3264 235.5,67.5C 236.492,67.6716 237.158,67.3382 237.5,66.5C 239.819,66.0075 241.819,65.0075 243.5,63.5C 249.842,60.9442 256.176,58.6109 262.5,56.5C 265.781,56.5797 268.781,55.913 271.5,54.5C 290.493,50.5326 309.493,50.5326 328.5,54.5 Z"/></g>
<g><path style="opacity:1" fill="#6f5637" d="M 328.5,54.5 C 331.428,54.5651 334.095,55.2318 336.5,56.5C 333.505,56.7062 330.838,56.0395 328.5,54.5 Z"/></g>
<g><path style="opacity:1" fill="#8d765c" d="M 271.5,54.5 C 268.781,55.913 265.781,56.5797 262.5,56.5C 265.219,55.087 268.219,54.4203 271.5,54.5 Z"/></g>
<g><path style="opacity:1" fill="#705739" d="M 339.5,57.5 C 342.916,57.5275 345.916,58.5275 348.5,60.5C 345.215,60.0719 342.215,59.0719 339.5,57.5 Z"/></g>
<g><path style="opacity:1" fill="#c28d44" d="M 450.5,108.5 C 455.478,115.662 460.311,122.996 465,130.5C 468.336,137.509 470.67,144.842 472,152.5C 475.408,207.392 467.741,260.725 449,312.5C 446.667,317.167 444.333,321.833 442,326.5C 432.941,339.228 424.274,352.228 416,365.5C 415.329,366.252 414.496,366.586 413.5,366.5C 408.461,354.755 402.627,343.421 396,332.5C 381.517,314.862 367.517,296.862 354,278.5C 344.472,264.586 339.805,249.253 340,232.5C 342.948,221.602 347.281,211.268 353,201.5C 364.929,183.986 375.595,165.653 385,146.5C 391.158,132.052 393.824,117.052 393,101.5C 391.005,87.6729 384.505,76.5062 373.5,68C 367.99,63.8317 361.99,60.4984 355.5,58C 360.824,58.6598 366.157,59.6598 371.5,61C 401.069,71.7953 427.403,87.6286 450.5,108.5 Z"/></g>
<g><path style="opacity:1" fill="#c28d44" d="M 185.5,367.5 C 176.935,354.725 168.102,342.058 159,329.5C 152.03,317.555 146.696,304.888 143,291.5C 128.559,242.757 123.559,193.09 128,142.5C 130.427,133.655 133.927,125.321 138.5,117.5C 149.821,103.68 163.154,92.1802 178.5,83C 196.908,72.7967 216.242,64.7967 236.5,59C 238.167,58.3333 239.833,58.3333 241.5,59C 214.626,70.2386 202.792,90.4053 206,119.5C 209.29,135.365 214.956,150.365 223,164.5C 233.503,180.835 243.503,197.502 253,214.5C 261.619,231.145 261.619,247.812 253,264.5C 240.004,288.157 224.671,310.157 207,330.5C 202.451,339.044 197.118,347.044 191,354.5C 188.672,358.658 186.839,362.992 185.5,367.5 Z"/></g>
<g><path style="opacity:1" fill="#6f5637" d="M 243.5,63.5 C 241.819,65.0075 239.819,66.0075 237.5,66.5C 238.911,64.461 240.911,63.461 243.5,63.5 Z"/></g>
<g><path style="opacity:1" fill="#6c5334" d="M 353.5,62.5 C 357.42,63.1266 360.753,64.7933 363.5,67.5C 359.849,66.3411 356.515,64.6744 353.5,62.5 Z"/></g>
<g><path style="opacity:1" fill="#6b5232" d="M 235.5,67.5 C 233.853,69.3264 231.853,70.6597 229.5,71.5C 230.802,69.1782 232.802,67.8449 235.5,67.5 Z"/></g>
<g><path style="opacity:1" fill="#8a7156" d="M 229.5,71.5 C 228.167,73.5 226.5,75.1667 224.5,76.5C 225.167,73.8333 226.833,72.1667 229.5,71.5 Z"/></g>
<g><path style="opacity:1" fill="#b17b39" d="M 450.5,108.5 C 479.359,132.187 504.525,159.187 526,189.5C 538.667,207.5 551.333,225.5 564,243.5C 569.078,251.657 573.078,260.324 576,269.5C 576.543,276.219 576.543,282.886 576,289.5C 584.152,302.137 589.818,315.803 593,330.5C 593.667,333.5 593.667,336.5 593,339.5C 592.653,341.18 591.653,342.18 590,342.5C 585.613,340.723 581.446,338.557 577.5,336C 567.393,331.773 563.893,334.939 567,345.5C 569.333,353.167 571.667,360.833 574,368.5C 574.941,372.611 575.441,376.778 575.5,381C 571.862,408.383 567.029,435.549 561,462.5C 559.951,463.517 558.784,463.684 557.5,463C 555.124,459.081 552.624,455.248 550,451.5C 547.101,448.733 545.101,449.4 544,453.5C 543.811,464.213 543.311,474.88 542.5,485.5C 541.132,486.594 539.965,486.26 539,484.5C 537.213,480.423 535.046,476.59 532.5,473C 529.26,472.558 527.427,474.058 527,477.5C 526.371,496.433 528.371,515.1 533,533.5C 533.978,537.9 533.478,542.067 531.5,546C 529.833,546.667 528.167,546.667 526.5,546C 521.546,542.715 516.88,539.048 512.5,535C 508.983,532.901 505.316,531.401 501.5,530.5C 500.965,534.819 500.465,539.152 500,543.5C 497.947,547.292 494.781,548.458 490.5,547C 461.594,537.742 438.761,520.575 422,495.5C 418.006,487.186 415.006,478.519 413,469.5C 409.072,452.341 406.739,435.007 406,417.5C 411.737,411.692 415.07,404.692 416,396.5C 417.249,386.268 416.416,376.268 413.5,366.5C 414.496,366.586 415.329,366.252 416,365.5C 424.274,352.228 432.941,339.228 442,326.5C 444.333,321.833 446.667,317.167 449,312.5C 467.741,260.725 475.408,207.392 472,152.5C 470.67,144.842 468.336,137.509 465,130.5C 460.311,122.996 455.478,115.662 450.5,108.5 Z"/></g>
<g><path style="opacity:1" fill="#b17b39" d="M 138.5,117.5 C 133.927,125.321 130.427,133.655 128,142.5C 123.559,193.09 128.559,242.757 143,291.5C 146.696,304.888 152.03,317.555 159,329.5C 168.102,342.058 176.935,354.725 185.5,367.5C 180.288,384.142 181.788,400.142 190,415.5C 191.011,416.337 192.178,416.67 193.5,416.5C 193.456,437.465 190.956,458.131 186,478.5C 180.63,495.398 171.13,509.565 157.5,521C 143.508,532.5 127.842,541.167 110.5,547C 107.331,547.978 104.497,547.478 102,545.5C 100.759,540.57 99.9253,535.57 99.5,530.5C 95.684,531.401 92.0173,532.901 88.5,535C 84.1667,538.667 79.8333,542.333 75.5,546C 69.7281,547.732 67.0614,545.565 67.5,539.5C 69.7745,526.853 71.9412,514.186 74,501.5C 74.6667,493.167 74.6667,484.833 74,476.5C 73.2441,473.208 71.4107,472.208 68.5,473.5C 65.8294,476.837 63.6627,480.504 62,484.5C 60.9887,485.337 59.8221,485.67 58.5,485.5C 58.6664,476.494 58.4998,467.494 58,458.5C 57.587,455.768 56.9203,453.101 56,450.5C 55.2825,449.549 54.4491,449.383 53.5,450C 49.6823,453.973 46.349,458.306 43.5,463C 42.365,463.749 41.365,463.583 40.5,462.5C 33.2824,435.674 27.6157,408.508 23.5,381C 25.2247,368.155 28.3914,355.655 33,343.5C 34.6549,335.492 31.4883,332.659 23.5,335C 18.8864,337.89 14.0531,340.39 9,342.5C 7.34684,342.18 6.34684,341.18 6,339.5C 6.26928,328.752 8.60262,318.418 13,308.5C 16.0785,302.009 19.4118,295.675 23,289.5C 21.1183,277.961 22.785,266.961 28,256.5C 51.7199,217.742 78.3866,181.076 108,146.5C 117.733,136.264 127.9,126.597 138.5,117.5 Z"/></g>
<g><path style="opacity:1" fill="#6f5637" d="M 211.5,121.5 C 213.258,124.854 214.258,128.521 214.5,132.5C 212.742,129.146 211.742,125.479 211.5,121.5 Z"/></g>
<g><path style="opacity:1" fill="#684f30" d="M 345.5,205.5 C 344.674,208.485 343.341,211.151 341.5,213.5C 341.794,210.246 343.127,207.579 345.5,205.5 Z"/></g>
<g><path style="opacity:1" fill="#020101" d="M 207.5,210.5 C 231.967,210.799 243.467,223.132 242,247.5C 236.736,264.423 225.236,272.256 207.5,271C 188.017,265.494 179.85,252.66 183,232.5C 187.298,220.694 195.465,213.361 207.5,210.5 Z"/></g>
<g><path style="opacity:1" fill="#020101" d="M 382.5,210.5 C 403.032,210.534 414.699,220.7 417.5,241C 413.806,264.686 400.139,274.352 376.5,270C 358.809,261.277 352.975,247.444 359,228.5C 364.135,218.853 371.968,212.853 382.5,210.5 Z"/></g>
<g><path style="opacity:1" fill="#6e5536" d="M 261.5,222.5 C 263.04,224.838 263.706,227.505 263.5,230.5C 262.232,228.095 261.565,225.428 261.5,222.5 Z"/></g>
<g><path style="opacity:1" fill="#f0f0f0" d="M 219.5,223.5 C 228.365,223.847 231.532,228.181 229,236.5C 223.186,242.205 218.186,241.538 214,234.5C 213.176,229.482 215.009,225.815 219.5,223.5 Z"/></g>
<g><path style="opacity:1" fill="#f2f2f2" d="M 391.5,223.5 C 400.207,223.037 403.707,227.037 402,235.5C 396.916,242.059 391.916,242.059 387,235.5C 385.474,230.239 386.974,226.239 391.5,223.5 Z"/></g>
<g><path style="opacity:1" fill="#020202" d="M 390.5,422.5 C 389.833,422.5 389.5,422.833 389.5,423.5C 361.253,428.084 335.586,421.917 312.5,405C 304.923,402.212 297.257,401.878 289.5,404C 270.604,416.743 249.77,423.91 227,425.5C 220.626,425.471 214.459,424.471 208.5,422.5C 215.638,422.443 222.971,422.276 230.5,422C 257.284,418.365 278.784,405.865 295,384.5C 296.403,376.9 297.236,369.234 297.5,361.5C 284.443,359.471 273.11,353.971 263.5,345C 247.772,329.059 245.605,311.559 257,292.5C 268.797,283.068 282.297,278.735 297.5,279.5C 312.628,278.756 326.628,282.256 339.5,290C 352.606,306.564 352.772,323.397 340,340.5C 329.687,352.074 316.854,359.074 301.5,361.5C 302.047,368.863 302.88,376.196 304,383.5C 305.271,386.433 306.938,389.099 309,391.5C 331.438,414.586 358.605,424.919 390.5,422.5 Z"/></g>
<g><path style="opacity:1" fill="#8d7658" d="M 357.5,292.5 C 361.922,296.587 365.589,301.254 368.5,306.5C 364.078,302.413 360.411,297.746 357.5,292.5 Z"/></g>
<g><path style="opacity:1" fill="#947d5f" d="M 368.5,306.5 C 370.587,307.585 371.92,309.251 372.5,311.5C 370.413,310.415 369.08,308.749 368.5,306.5 Z"/></g>
<g><path style="opacity:1" fill="#6c5233" d="M 231.5,307.5 C 230.92,309.749 229.587,311.415 227.5,312.5C 228.08,310.251 229.413,308.585 231.5,307.5 Z"/></g>
<g><path style="opacity:1" fill="#947d5f" d="M 372.5,311.5 C 374.587,312.585 375.92,314.251 376.5,316.5C 374.413,315.415 373.08,313.749 372.5,311.5 Z"/></g>
<g><path style="opacity:1" fill="#957e60" d="M 376.5,316.5 C 378.587,317.585 379.92,319.251 380.5,321.5C 378.413,320.415 377.08,318.749 376.5,316.5 Z"/></g>
<g><path style="opacity:1" fill="#957e60" d="M 380.5,321.5 C 382.587,322.585 383.92,324.251 384.5,326.5C 382.413,325.415 381.08,323.749 380.5,321.5 Z"/></g>
<g><path style="opacity:1" fill="#998365" d="M 384.5,326.5 C 389.727,331.281 393.727,336.948 396.5,343.5C 392.257,338.017 388.257,332.35 384.5,326.5 Z"/></g>
<g><path style="opacity:1" fill="#90795a" d="M 400.5,350.5 C 404.565,356.635 407.565,363.301 409.5,370.5C 405.983,364.128 402.983,357.462 400.5,350.5 Z"/></g>
<g><path style="opacity:1" fill="#7c654b" d="M 187.5,392.5 C 188.657,395.273 189.324,398.273 189.5,401.5C 187.882,398.829 187.215,395.829 187.5,392.5 Z"/></g>
<g><path style="opacity:1" fill="#eeeeee" d="M 389.5,423.5 C 390.518,426.377 390.351,429.377 389,432.5C 381.76,447.387 370.26,457.554 354.5,463C 319.731,474.973 284.731,475.64 249.5,465C 235.792,460.243 224.292,452.409 215,441.5C 210.942,435.826 208.775,429.492 208.5,422.5C 214.459,424.471 220.626,425.471 227,425.5C 249.77,423.91 270.604,416.743 289.5,404C 297.257,401.878 304.923,402.212 312.5,405C 335.586,421.917 361.253,428.084 389.5,423.5 Z"/></g>
<g><path style="opacity:1" fill="#6d583e" d="M 411.5,379.5 C 413.635,390.683 411.801,401.349 406,411.5C 405.31,412.738 404.81,412.738 404.5,411.5C 410.147,401.604 412.48,390.937 411.5,379.5 Z"/></g>
</svg>
