<?xml version="1.0" encoding="UTF-8"?>
<!DOCTYPE svg PUBLIC "-//W3C//DTD SVG 1.1//EN" "http://www.w3.org/Graphics/SVG/1.1/DTD/svg11.dtd">
<svg xmlns="http://www.w3.org/2000/svg" version="1.1" width="600px" height="600px" style="shape-rendering:geometricPrecision; text-rendering:geometricPrecision; image-rendering:optimizeQuality; fill-rule:evenodd; clip-rule:evenodd" xmlns:xlink="http://www.w3.org/1999/xlink">
<g><path style="opacity:0.959" fill="#030302" d="M 599.5,249.5 C 599.5,259.833 599.5,270.167 599.5,280.5C 595.718,281.55 592.051,282.05 588.5,282C 591.252,287.671 592.919,293.671 593.5,300C 591.894,318.803 588.727,337.303 584,355.5C 581.081,359.198 577.247,360.864 572.5,360.5C 572.455,364.346 571.622,368.013 570,371.5C 567.13,374.146 563.964,376.146 560.5,377.5C 562.765,383.796 564.932,390.129 567,396.5C 568.943,409.495 563.443,415.662 550.5,415C 546.24,414.191 542.24,412.691 538.5,410.5C 535.274,416.286 530.274,419.286 523.5,419.5C 499.144,416.776 477.144,408.276 457.5,394C 454.667,391.167 451.833,388.333 449,385.5C 445.131,394.019 440.465,402.019 435,409.5C 431.451,415.93 428.451,422.596 426,429.5C 418.732,452.57 412.399,475.904 407,499.5C 404.731,509.319 400.731,518.319 395,526.5C 389.17,532.627 383.003,538.461 376.5,544C 357.869,554.006 338.369,556.173 318,550.5C 304.196,551.826 290.363,551.826 276.5,550.5C 239.956,560.463 212.456,549.129 194,516.5C 192.022,510.589 190.355,504.589 189,498.5C 185.833,474.332 180.5,450.665 173,427.5C 166.026,412.881 158.026,398.881 149,385.5C 135.905,399.468 120.072,408.968 101.5,414C 93.3239,416.535 84.9906,418.369 76.5,419.5C 69.7504,419.385 64.917,416.385 62,410.5C 54.985,415.809 47.485,416.975 39.5,414C 35.3986,410.898 33.0652,406.731 32.5,401.5C 34.9617,393.448 37.6284,385.448 40.5,377.5C 31.6763,375.873 27.6763,370.539 28.5,361.5C 19.6549,361.157 14.8215,356.491 14,347.5C 10.2655,331.828 7.4322,315.994 5.5,300C 6.24095,294.031 7.90761,288.365 10.5,283C 6.6098,282.894 2.94313,282.061 -0.5,280.5C -0.5,270.5 -0.5,260.5 -0.5,250.5C 2.75674,246.065 6.25674,241.732 10,237.5C 10.8172,226.203 15.1506,216.537 23,208.5C 49.6975,181.761 78.8642,158.261 110.5,138C 130.073,127.714 149.74,117.714 169.5,108C 193.128,97.5925 217.795,90.9258 243.5,88C 287.671,83.1013 331.671,84.4346 375.5,92C 398.856,96.1871 420.522,104.52 440.5,117C 468.333,128.245 494.333,142.578 518.5,160C 540.029,176.535 560.529,194.369 580,213.5C 584.943,220.389 587.943,228.056 589,236.5C 592.743,240.732 596.243,245.065 599.5,249.5 Z"/></g>
<g><path style="opacity:1" fill="#433b31" d="M 435.5,126.5 C 429.026,123.751 422.359,121.917 415.5,121C 433.266,134.801 443.433,152.968 446,175.5C 447.529,191.134 447.862,206.801 447,222.5C 442.235,257.678 439.902,293.012 440,328.5C 441.897,339.42 444.73,350.087 448.5,360.5C 448.137,361.183 447.804,361.85 447.5,362.5C 443.824,372.018 439.657,381.351 435,390.5C 424.477,405.034 416.811,421.034 412,438.5C 407.177,456.123 402.511,473.79 398,491.5C 397.554,470.932 393.887,450.932 387,431.5C 374,403.5 361,375.5 348,347.5C 337.07,320.778 329.736,293.111 326,264.5C 325.671,230.478 326.004,196.478 327,162.5C 324.8,147.028 320.133,132.361 313,118.5C 302.758,104.303 292.092,103.969 281,117.5C 269.579,139.438 264.745,162.772 266.5,187.5C 267.367,211.167 267.867,234.834 268,258.5C 264.501,290.994 256.501,322.327 244,352.5C 231.574,379.682 218.907,406.682 206,433.5C 200.631,448.044 197.298,463.044 196,478.5C 193.119,451.961 185.452,426.961 173,403.5C 163.859,390.217 156.026,376.217 149.5,361.5C 153.894,345.469 156.227,329.136 156.5,312.5C 154.99,280.386 152.157,248.386 148,216.5C 146.299,196.201 147.966,176.201 153,156.5C 157.439,141.442 165.939,129.275 178.5,120C 177.167,119.333 175.833,119.333 174.5,120C 170.515,121.605 166.515,123.105 162.5,124.5C 175.302,115.94 189.302,109.773 204.5,106C 263.342,92.8007 322.342,92.134 381.5,104C 401.043,108.116 419.043,115.616 435.5,126.5 Z"/></g>
<g><path style="opacity:1" fill="#f6f2ef" d="M 292.5,113.5 C 298.661,112.331 303.494,114.331 307,119.5C 319.085,139.847 323.919,161.847 321.5,185.5C 321.339,205.517 320.673,225.517 319.5,245.5C 320.128,272.932 324.961,299.599 334,325.5C 337.803,337.094 342.136,348.428 347,359.5C 356.195,380.223 366.195,400.556 377,420.5C 383.903,436.877 388.569,453.877 391,471.5C 394.166,492.833 389.499,512.166 377,529.5C 363.585,540.941 348.085,545.108 330.5,542C 319.204,540.173 307.87,538.673 296.5,537.5C 281.913,539.82 267.246,541.486 252.5,542.5C 223.25,541.758 206.75,526.758 203,497.5C 200.496,471.683 204.829,447.016 216,423.5C 229.683,397.8 242.017,371.467 253,344.5C 262.954,318.64 269.621,291.973 273,264.5C 272.667,230.5 272.333,196.5 272,162.5C 273.972,146.247 279.305,131.247 288,117.5C 289.667,116.267 291.167,114.933 292.5,113.5 Z"/></g>
<g><path style="opacity:1" fill="#221714" d="M 149.5,361.5 C 143.469,378.893 131.802,391.059 114.5,398C 100.93,404.437 86.7637,407.604 72,407.5C 71.6667,404.833 71.3333,402.167 71,399.5C 70.1612,398.376 68.9945,397.709 67.5,397.5C 61.1463,399.178 55.1463,401.678 49.5,405C 43.9202,406.261 42.0868,404.094 44,398.5C 49.8399,386.477 52.5066,373.811 52,360.5C 51.2747,358.842 50.108,358.342 48.5,359C 45.9841,361.683 43.3174,364.183 40.5,366.5C 39.8181,358.943 39.1514,351.443 38.5,344C 33.9071,344.542 30.2404,346.875 27.5,351C 26.6683,351.688 26.0016,351.521 25.5,350.5C 22.4769,336.218 19.6436,321.884 17,307.5C 16.3333,303.5 16.3333,299.5 17,295.5C 19.1919,288.783 22.1919,282.449 26,276.5C 27.6513,271.859 26.1513,269.193 21.5,268.5C 16.5287,269.324 11.6954,270.657 7,272.5C 5.00775,271.771 4.17442,270.271 4.5,268C 7.80201,257.571 13.302,248.404 21,240.5C 20.7296,234.416 22.063,228.749 25,223.5C 29.4234,217.072 34.5901,211.239 40.5,206C 56.9439,190.954 73.9439,176.62 91.5,163C 113.599,147.431 137.265,134.598 162.5,124.5C 166.515,123.105 170.515,121.605 174.5,120C 175.833,119.333 177.167,119.333 178.5,120C 165.939,129.275 157.439,141.442 153,156.5C 147.966,176.201 146.299,196.201 148,216.5C 152.157,248.386 154.99,280.386 156.5,312.5C 156.227,329.136 153.894,345.469 149.5,361.5 Z"/></g>
<g><path style="opacity:1" fill="#221814" d="M 435.5,126.5 C 461.099,136.465 485.099,149.298 507.5,165C 527.917,180.746 547.751,197.246 567,214.5C 570.74,218.311 573.74,222.644 576,227.5C 576.912,231.795 577.579,236.128 578,240.5C 585.985,247.811 591.485,256.645 594.5,267C 594.947,269.599 593.947,271.099 591.5,271.5C 585.528,268.579 579.362,267.912 573,269.5C 572.333,271.5 572.333,273.5 573,275.5C 576.527,281.221 579.527,287.221 582,293.5C 581.697,312.789 579.197,331.789 574.5,350.5C 571.025,348.192 567.692,345.692 564.5,343C 562.892,342.342 561.725,342.842 561,344.5C 560.501,351.514 560.668,358.514 561.5,365.5C 560.448,365.649 559.448,365.483 558.5,365C 556.64,361.64 553.973,359.14 550.5,357.5C 548.34,359.637 547.34,362.304 547.5,365.5C 549.346,376.872 552.513,387.872 557,398.5C 557.667,400.167 557.667,401.833 557,403.5C 554.599,404.602 552.099,404.769 549.5,404C 543.339,400.113 536.673,397.946 529.5,397.5C 529.475,400.96 528.808,404.294 527.5,407.5C 500.05,407.515 476.55,397.848 457,378.5C 454.516,373.531 452.016,368.531 449.5,363.5C 449.043,362.702 448.376,362.369 447.5,362.5C 447.804,361.85 448.137,361.183 448.5,360.5C 444.73,350.087 441.897,339.42 440,328.5C 439.902,293.012 442.235,257.678 447,222.5C 447.862,206.801 447.529,191.134 446,175.5C 443.433,152.968 433.266,134.801 415.5,121C 422.359,121.917 429.026,123.751 435.5,126.5 Z"/></g>
<g><path style="opacity:1" fill="#231815" d="M 236.5,229.5 C 250.616,230.407 255.116,237.407 250,250.5C 244.221,254.902 237.721,256.402 230.5,255C 224.092,251.677 221.925,246.511 224,239.5C 226.918,234.396 231.085,231.063 236.5,229.5 Z"/></g>
<g><path style="opacity:1" fill="#231815" d="M 353.5,229.5 C 367.267,230.063 372.101,236.73 368,249.5C 362.25,255.115 355.417,256.948 347.5,255C 339.711,249.772 338.545,243.272 344,235.5C 346.843,232.837 350.009,230.837 353.5,229.5 Z"/></g>
<g><path style="opacity:1" fill="#7d6e60" d="M 206.5,258.5 C 229.963,256.976 245.463,267.31 253,289.5C 256.175,314.669 245.675,330.836 221.5,338C 204.063,340.526 190.23,334.693 180,320.5C 167.886,295.925 173.386,276.425 196.5,262C 199.98,260.897 203.313,259.731 206.5,258.5 Z"/></g>
<g><path style="opacity:1" fill="#7d6e60" d="M 371.5,258.5 C 395.401,256.581 411.234,266.914 419,289.5C 422.097,314.16 411.931,330.327 388.5,338C 363.227,340.724 347.061,329.89 340,305.5C 338.402,281.617 348.902,265.95 371.5,258.5 Z"/></g>
<g><path style="opacity:1" fill="#231815" d="M 207.5,270.5 C 230.67,269.506 242.17,280.506 242,303.5C 235.04,324.063 221.207,330.896 200.5,324C 185.348,313.225 181.848,299.392 190,282.5C 194.505,276.348 200.338,272.348 207.5,270.5 Z"/></g>
<g><path style="opacity:1" fill="#231815" d="M 373.5,270.5 C 397.854,269.686 409.021,281.352 407,305.5C 402.658,319.018 393.324,326.018 379,326.5C 359.285,323.777 350.285,312.443 352,292.5C 355.35,281.318 362.517,273.984 373.5,270.5 Z"/></g>
<g><path style="opacity:1" fill="#f5f5f5" d="M 204.5,280.5 C 211.82,279.318 216.153,282.318 217.5,289.5C 214.446,297.866 209.28,299.533 202,294.5C 199.418,289.12 200.251,284.453 204.5,280.5 Z"/></g>
<g><path style="opacity:1" fill="#f4f4f4" d="M 369.5,280.5 C 378.658,279.491 382.492,283.491 381,292.5C 378.459,297.069 374.625,298.569 369.5,297C 362.914,291.457 362.914,285.957 369.5,280.5 Z"/></g>
<g><path style="opacity:1" fill="#090807" d="M 290.5,423.5 C 305.244,423.088 319.577,425.255 333.5,430C 351.768,440.47 356.601,455.304 348,474.5C 333.907,493.102 315.074,501.935 291.5,501C 271.829,498.592 256.329,489.425 245,473.5C 236.953,451.951 243.453,436.784 264.5,428C 273.131,425.515 281.798,424.015 290.5,423.5 Z"/></g>
<g><path style="opacity:1" fill="#221714" d="M 278.5,429.5 C 291.863,429.254 305.196,429.754 318.5,431C 343.296,436.107 351.13,450.273 342,473.5C 318.997,498.367 292.831,502.2 263.5,485C 250.579,476.99 245.412,465.49 248,450.5C 251.676,441.933 257.843,436.099 266.5,433C 270.623,431.808 274.623,430.641 278.5,429.5 Z"/></g>
</svg>
