<?xml version="1.0" encoding="UTF-8"?>
<!DOCTYPE svg PUBLIC "-//W3C//DTD SVG 1.1//EN" "http://www.w3.org/Graphics/SVG/1.1/DTD/svg11.dtd">
<svg xmlns="http://www.w3.org/2000/svg" version="1.1" width="600px" height="600px" style="shape-rendering:geometricPrecision; text-rendering:geometricPrecision; image-rendering:optimizeQuality; fill-rule:evenodd; clip-rule:evenodd" xmlns:xlink="http://www.w3.org/1999/xlink">
<g><path style="opacity:0.956" fill="#040404" d="M 283.5,-0.5 C 290.5,-0.5 297.5,-0.5 304.5,-0.5C 307.321,5.81176 310.155,12.1451 313,18.5C 314.472,10.8748 317.972,4.5415 323.5,-0.5C 328.167,-0.5 332.833,-0.5 337.5,-0.5C 339.334,1.83446 341.167,4.16779 343,6.5C 350.297,2.36819 357.464,2.53486 364.5,7C 367.11,9.99488 368.443,13.4949 368.5,17.5C 377.145,17.0666 382.311,21.0666 384,29.5C 386.886,30.7599 389.719,32.0932 392.5,33.5C 394.629,36.0445 396.296,38.8778 397.5,42C 408.155,46.1674 419.155,49.1674 430.5,51C 438.763,53.7617 444.097,59.2617 446.5,67.5C 446.291,68.086 445.957,68.586 445.5,69C 483.295,92.793 512.795,124.293 534,163.5C 555.509,203.358 570.675,245.525 579.5,290C 578.734,294.526 577.401,298.859 575.5,303C 576.991,308.965 578.325,314.965 579.5,321C 578.129,333.426 571.629,338.259 560,335.5C 561.331,348.497 562.998,361.497 565,374.5C 566.522,387.301 567.688,400.135 568.5,413C 568.469,416.818 567.802,420.485 566.5,424C 568.412,434.125 568.579,444.291 567,454.5C 560.715,468.032 552.049,469.699 541,459.5C 539.023,463.017 538.189,466.851 538.5,471C 540.226,490.11 538.726,508.943 534,527.5C 529.721,535.369 523.554,537.202 515.5,533C 513.131,530.43 511.131,527.596 509.5,524.5C 506.771,540.198 503.604,555.865 500,571.5C 495.767,581.685 488.6,584.519 478.5,580C 474.855,576.547 472.355,572.38 471,567.5C 466.711,566.023 463.378,563.356 461,559.5C 458.616,551.958 456.949,544.291 456,536.5C 455.194,545.337 453.527,554.004 451,562.5C 444.641,569.886 437.975,570.219 431,563.5C 428.806,560.446 427.139,557.112 426,553.5C 422.299,564.943 417.633,575.943 412,586.5C 402.754,593.039 395.421,591.372 390,581.5C 387.611,586.554 384.445,591.054 380.5,595C 373.327,599.752 366.827,598.919 361,592.5C 358.456,587.452 356.789,582.119 356,576.5C 355.586,576.043 355.086,575.709 354.5,575.5C 351.353,584.471 346.686,592.471 340.5,599.5C 330.167,599.5 319.833,599.5 309.5,599.5C 307.519,596.064 306.019,592.397 305,588.5C 302.892,578.187 300.892,567.854 299,557.5C 297.667,565.5 296.333,573.5 295,581.5C 293.904,587.96 291.737,593.96 288.5,599.5C 278.5,599.5 268.5,599.5 258.5,599.5C 251.327,591.84 246.16,582.84 243,572.5C 242.207,580.342 239.874,587.675 236,594.5C 226.896,600.144 219.23,598.478 213,589.5C 211.667,586.833 210.333,584.167 209,581.5C 199.364,594.707 190.364,594.04 182,579.5C 178.803,570.908 175.803,562.242 173,553.5C 171.3,559.4 167.8,563.9 162.5,567C 152.148,569.079 146.315,564.912 145,554.5C 143.744,547.879 142.911,541.212 142.5,534.5C 141.5,534.5 140.5,534.5 139.5,534.5C 139.468,543.426 137.968,552.093 135,560.5C 132.977,563.52 130.31,565.854 127,567.5C 124.194,580.33 116.694,584.497 104.5,580C 101.193,577.222 99.0262,573.722 98,569.5C 94.2725,554.697 91.7725,539.697 90.5,524.5C 89.5,524.5 88.5,524.5 87.5,524.5C 84.6457,534.739 78.3124,537.572 68.5,533C 66.3834,531.269 64.8834,529.102 64,526.5C 61.8921,518.627 60.5587,510.627 60,502.5C 59.5001,488.504 59.3334,474.504 59.5,460.5C 56.4007,460.092 54.0674,461.259 52.5,464C 42.6883,468.339 35.8549,465.506 32,455.5C 28.9586,416.196 31.4586,377.196 39.5,338.5C 38.0336,336.343 36.2003,336.01 34,337.5C 24.9399,335.77 20.1066,330.27 19.5,321C 20.8604,314.557 22.5271,308.224 24.5,302C 20.118,296.424 18.9514,290.258 21,283.5C 31.0836,236.235 48.417,191.901 73,150.5C 93.3097,117.024 120.143,90.0236 153.5,69.5C 154.713,60.4515 159.713,54.6182 168.5,52C 177.048,49.4904 185.715,47.4904 194.5,46C 198.112,44.8605 201.446,43.1939 204.5,41C 200.405,33.6936 201.738,27.3603 208.5,22C 213.092,20.5187 217.759,19.352 222.5,18.5C 221.53,10.4459 225.197,5.77924 233.5,4.5C 241.826,6.83009 249.493,10.4968 256.5,15.5C 258.163,12.2569 259.829,8.92359 261.5,5.5C 269.209,0.0466418 275.709,1.37998 281,9.5C 281.838,6.1484 282.671,2.81507 283.5,-0.5 Z"/></g>
<g><path style="opacity:1" fill="#e8e8e8" d="M 547.5,305.5 C 542.261,290.955 537.094,276.288 532,261.5C 530.332,258.79 529.499,258.957 529.5,262C 536.883,286.369 543.216,310.869 548.5,335.5C 556.662,374.116 559.495,413.116 557,452.5C 555.174,456.037 552.84,456.371 550,453.5C 545.877,444.296 542.377,434.962 539.5,425.5C 538.131,405.926 535.298,386.593 531,367.5C 529.39,362.669 527.39,358.003 525,353.5C 523.667,352.167 522.333,352.167 521,353.5C 520.333,358.833 520.333,364.167 521,369.5C 524.949,395.185 527.449,420.852 528.5,446.5C 528.667,465.17 528.5,483.836 528,502.5C 528.222,510.379 526.722,517.879 523.5,525C 522.256,525.456 521.423,524.956 521,523.5C 518.027,513.276 515.527,502.943 513.5,492.5C 512.688,480.909 512.188,469.242 512,457.5C 509.838,448.341 506.504,439.674 502,431.5C 500.79,448.217 499.623,465.051 498.5,482C 499.159,484.462 499.493,486.962 499.5,489.5C 499.39,516.214 496.223,542.547 490,568.5C 488.676,572.597 486.51,573.264 483.5,570.5C 481.212,563.007 479.879,555.341 479.5,547.5C 479.886,542.799 480.552,538.133 481.5,533.5C 478.756,502.641 474.59,471.975 469,441.5C 467.92,435.176 465.92,429.176 463,423.5C 460.733,422.065 458.733,422.398 457,424.5C 450.728,447.781 448.228,471.448 449.5,495.5C 448.101,515.254 445.935,534.92 443,554.5C 441.857,557.915 440.19,558.249 438,555.5C 435.789,550.702 434.289,545.702 433.5,540.5C 433.96,533.986 434.627,527.486 435.5,521C 430.857,497.976 427.024,474.81 424,451.5C 423.678,465.85 423.011,480.184 422,494.5C 421.025,499.876 419.858,505.209 418.5,510.5C 419.154,511.504 419.987,512.504 421,513.5C 421.498,516.817 421.665,520.15 421.5,523.5C 418.743,542.608 413.243,560.941 405,578.5C 403.333,581.167 401.667,581.167 400,578.5C 398.205,573.988 397.039,569.321 396.5,564.5C 398.971,560.272 400.971,555.772 402.5,551C 401.349,549.177 400.182,547.344 399,545.5C 397.793,538.452 395.96,531.619 393.5,525C 391.097,524.37 389.263,525.203 388,527.5C 384,536.167 380,544.833 376,553.5C 372.801,557.659 370.135,557.325 368,552.5C 366.994,548.402 366.494,544.236 366.5,540C 368.063,520.514 369.396,501.014 370.5,481.5C 370.614,476.391 370.114,471.391 369,466.5C 363.403,480.793 358.903,495.46 355.5,510.5C 350.379,525.345 344.546,540.012 338,554.5C 334.059,561.219 328.226,564.386 320.5,564C 317.366,561.612 315.533,558.446 315,554.5C 312.427,540.153 309.76,525.82 307,511.5C 305.749,506.742 303.915,502.242 301.5,498C 297.412,497.396 294.912,499.23 294,503.5C 292.356,508.077 291.022,512.744 290,517.5C 287.99,530.561 285.656,543.561 283,556.5C 281.006,563.914 276.506,566.081 269.5,563C 263.926,559.423 259.759,554.589 257,548.5C 247.126,523.007 238.793,497.007 232,470.5C 231.417,468.998 230.584,467.665 229.5,466.5C 228.808,467.025 228.308,467.692 228,468.5C 227.833,472.167 227.667,475.833 227.5,479.5C 228.859,499.331 230.192,519.164 231.5,539C 231.523,543.568 231.023,548.068 230,552.5C 229.477,554.223 228.477,555.556 227,556.5C 224.719,555.224 222.719,553.557 221,551.5C 217.608,543.049 213.941,534.716 210,526.5C 206.841,523.659 204.508,524.326 203,528.5C 201.881,534.551 200.547,540.551 199,546.5C 197.433,548.856 195.6,550.023 193.5,550C 195.138,554.58 196.971,559.08 199,563.5C 199.671,564.252 200.504,564.586 201.5,564.5C 201.287,569.969 199.954,575.136 197.5,580C 196.216,580.684 195.049,580.517 194,579.5C 184.391,559.511 178.557,538.511 176.5,516.5C 176.368,494.857 175.535,473.191 174,451.5C 171.427,469.178 168.76,486.845 166,504.5C 165.174,509.964 163.841,515.297 162,520.5C 161.883,528.525 162.383,536.525 163.5,544.5C 163.406,549.812 161.406,554.146 157.5,557.5C 156.808,556.975 156.308,556.308 156,555.5C 152.604,537.648 150.438,519.648 149.5,501.5C 150.321,480.043 148.821,458.709 145,437.5C 144.424,432.525 142.924,427.859 140.5,423.5C 138.389,422.152 136.555,422.485 135,424.5C 132.565,429.236 130.899,434.236 130,439.5C 123.749,472.422 119.249,505.589 116.5,539C 117.028,543.866 117.695,548.699 118.5,553.5C 118.248,559.39 117.081,565.056 115,570.5C 112.724,573.064 110.724,572.73 109,569.5C 102.647,546.602 99.4806,523.269 99.5,499.5C 99.2965,477.566 98.7965,455.566 98,433.5C 97.6924,432.692 97.1924,432.025 96.5,431.5C 94.7467,434.005 93.2467,436.671 92,439.5C 89.0224,448.744 86.3557,458.077 84,467.5C 83.5002,478.161 83.3335,488.828 83.5,499.5C 81.8031,507.954 79.6364,516.288 77,524.5C 76.1072,525.711 75.2739,525.711 74.5,524.5C 73.6677,521.839 72.8344,519.172 72,516.5C 70.5714,488.863 70.0714,461.197 70.5,433.5C 71.4682,431.393 71.8016,429.059 71.5,426.5C 73.0417,404.416 75.375,382.416 78.5,360.5C 76.9117,350.135 74.0784,350.135 70,360.5C 66.9344,368.363 64.2678,376.363 62,384.5C 59.4738,402.55 56.9738,420.55 54.5,438.5C 53.2803,443.829 51.2803,448.829 48.5,453.5C 46.287,456.08 44.1203,456.08 42,453.5C 42.456,433.483 42.456,413.483 42,393.5C 44.0455,373.672 46.8788,354.005 50.5,334.5C 55.7662,310.603 61.7662,286.769 68.5,263C 68.1667,261.5 67.8333,260 67.5,258.5C 66.081,260.336 64.9143,262.336 64,264.5C 58.8393,278.816 54.006,293.15 49.5,307.5C 46.1275,313.739 42.1275,319.572 37.5,325C 35.1047,327.145 32.938,326.978 31,324.5C 30.9935,314.684 32.8269,305.184 36.5,296C 36.3333,295.5 36.1667,295 36,294.5C 34.0624,295.86 32.3957,295.527 31,293.5C 40.8077,231.04 65.141,175.04 104,125.5C 122.687,104.303 144.187,86.6368 168.5,72.5C 167.167,70.8333 165.833,69.1667 164.5,67.5C 167.655,63.7504 171.655,61.2504 176.5,60C 191.559,58.4046 205.559,53.7379 218.5,46C 217.167,44.6667 215.833,43.3333 214.5,42C 215.5,41.6667 216.5,41.3333 217.5,41C 209.453,31.3402 211.787,28.0069 224.5,31C 230.207,32.3811 235.207,35.0478 239.5,39C 241.259,39.7975 242.926,39.6309 244.5,38.5C 238.129,32.0918 234.129,24.4252 232.5,15.5C 236.105,15.7986 239.439,16.9653 242.5,19C 248.872,23.1808 255.206,27.3475 261.5,31.5C 262.442,31.3918 263.275,31.0585 264,30.5C 264.498,27.5184 264.665,24.5184 264.5,21.5C 265.833,21.5 267.167,21.5 268.5,21.5C 268.183,18.4281 268.516,15.4281 269.5,12.5C 269.833,12.6667 270.167,12.8333 270.5,13C 274.377,18.5847 277.877,24.4181 281,30.5C 283.076,33.5545 285.742,34.5545 289,33.5C 289.499,28.1771 289.666,22.8437 289.5,17.5C 290.5,17.5 291.5,17.5 292.5,17.5C 292.174,13.1161 292.508,8.7828 293.5,4.5C 293.833,4.66667 294.167,4.83333 294.5,5C 298.849,13.0253 303.015,21.192 307,29.5C 310.112,33.699 313.779,34.3656 318,31.5C 321.39,24.6641 324.39,17.6641 327,10.5C 328.444,8.84464 330.278,8.17798 332.5,8.5C 331.65,14.5456 330.817,20.5456 330,26.5C 337.963,19.4251 347.13,15.5917 357.5,15C 357.957,15.414 358.291,15.914 358.5,16.5C 354.457,23.7128 349.457,30.2128 343.5,36C 345.833,36.6667 348.167,36.6667 350.5,36C 357.181,31.3306 364.514,28.6639 372.5,28C 373.63,33.2627 371.963,37.596 367.5,41C 373.833,41.3333 380.167,41.6667 386.5,42C 385.016,43.5737 383.349,44.907 381.5,46C 393.661,52.9173 406.661,57.2506 420.5,59C 424.341,59.876 428.007,61.2094 431.5,63C 436.786,66.0667 436.786,69.2333 431.5,72.5C 472.009,96.5083 503.509,129.175 526,170.5C 545.141,206.588 559.141,244.588 568,284.5C 568.667,287.5 568.667,290.5 568,293.5C 566.89,295.037 565.39,295.703 563.5,295.5C 565.244,303.643 566.91,311.809 568.5,320C 568.819,325.7 566.486,327.366 561.5,325C 556.227,318.9 551.56,312.4 547.5,305.5 Z"/></g>
<g><path style="opacity:1" fill="#b9baba" d="M 232.5,188.5 C 234.592,188.561 236.092,189.561 237,191.5C 238.378,207.93 245.712,220.93 259,230.5C 259.595,231.899 259.428,233.232 258.5,234.5C 243.753,238.912 228.753,242.412 213.5,245C 208.565,247.606 203.898,250.606 199.5,254C 197.323,255.202 194.989,255.702 192.5,255.5C 192.34,253.801 192.506,252.134 193,250.5C 207.17,241.669 219.504,230.669 230,217.5C 231.734,214.702 232.901,211.702 233.5,208.5C 232.628,203.473 231.628,198.473 230.5,193.5C 230.437,191.486 231.103,189.819 232.5,188.5 Z"/></g>
<g><path style="opacity:1" fill="#babbbb" d="M 355.5,188.5 C 356.822,188.33 357.989,188.663 359,189.5C 359.625,195.585 359.125,201.585 357.5,207.5C 357.622,210.698 358.455,213.698 360,216.5C 371.062,229.894 383.728,241.561 398,251.5C 398.684,252.784 398.517,253.951 397.5,255C 395.833,255.667 394.167,255.667 392.5,255C 388.167,252 383.833,249 379.5,246C 373.893,244.677 368.226,243.677 362.5,243C 352.412,239.695 342.246,236.862 332,234.5C 331.333,233.167 331.333,231.833 332,230.5C 345.307,219.551 353.141,205.551 355.5,188.5 Z"/></g>
<g><path style="opacity:1" fill="#d6d6d6" d="M 50.5,334.5 C 49.7934,332.866 48.6268,331.532 47,330.5C 46.1608,323.019 47.3275,315.853 50.5,309C 50.4301,308.235 50.0967,307.735 49.5,307.5C 54.006,293.15 58.8393,278.816 64,264.5C 64.9143,262.336 66.081,260.336 67.5,258.5C 67.8333,260 68.1667,261.5 68.5,263C 61.7662,286.769 55.7662,310.603 50.5,334.5 Z"/></g>
<g><path style="opacity:1" fill="#d1d1d1" d="M 547.5,305.5 C 546.957,305.56 546.624,305.893 546.5,306.5C 548.479,313.083 550.146,319.749 551.5,326.5C 550.752,329.645 549.752,332.645 548.5,335.5C 543.216,310.869 536.883,286.369 529.5,262C 529.499,258.957 530.332,258.79 532,261.5C 537.094,276.288 542.261,290.955 547.5,305.5 Z"/></g>
<g><path style="opacity:1" fill="#1e0e09" d="M 280.5,263.5 C 297.821,261.95 314.488,264.45 330.5,271C 341.857,279.067 345.691,289.9 342,303.5C 338.789,312.421 333.289,319.587 325.5,325C 297.54,342.563 272.374,339.063 250,314.5C 242.254,302.883 241.587,290.883 248,278.5C 252.037,273.898 256.871,270.398 262.5,268C 268.644,266.544 274.644,265.044 280.5,263.5 Z"/></g>
<g><path style="opacity:1" fill="#d7d7d7" d="M 71.5,426.5 C 70.4625,427.93 69.7959,429.597 69.5,431.5C 68.0917,438.229 65.4251,444.396 61.5,450C 60.0563,450.781 58.723,450.614 57.5,449.5C 56.2222,445.781 55.2222,442.114 54.5,438.5C 56.9738,420.55 59.4738,402.55 62,384.5C 64.2678,376.363 66.9344,368.363 70,360.5C 74.0784,350.135 76.9117,350.135 78.5,360.5C 75.375,382.416 73.0417,404.416 71.5,426.5 Z"/></g>
<g><path style="opacity:1" fill="#d6d6d6" d="M 539.5,425.5 C 539.667,430.174 540.001,434.841 540.5,439.5C 540.599,442.999 539.932,446.332 538.5,449.5C 537.635,450.583 536.635,450.749 535.5,450C 532.193,447.222 530.026,443.722 529,439.5C 528.503,441.81 528.337,444.143 528.5,446.5C 527.449,420.852 524.949,395.185 521,369.5C 520.333,364.167 520.333,358.833 521,353.5C 522.333,352.167 523.667,352.167 525,353.5C 527.39,358.003 529.39,362.669 531,367.5C 535.298,386.593 538.131,405.926 539.5,425.5 Z"/></g>
<g><path style="opacity:1" fill="#1e0e09" d="M 336.5,387.5 C 336.5,382.833 336.5,378.167 336.5,373.5C 322.34,372.475 308.173,371.475 294,370.5C 279.494,371.584 264.994,372.75 250.5,374C 249.689,378.965 249.356,383.799 249.5,388.5C 247.472,382.505 246.139,376.338 245.5,370C 245.703,367.189 246.369,364.522 247.5,362C 254.477,358.755 261.81,356.755 269.5,356C 285.169,354.024 300.835,354.024 316.5,356C 323.745,356.706 330.745,358.373 337.5,361C 339.995,363.219 340.995,366.052 340.5,369.5C 340.295,375.873 338.961,381.873 336.5,387.5 Z"/></g>
<g><path style="opacity:1" fill="#f19da0" d="M 336.5,387.5 C 335.135,402.429 330.302,416.095 322,428.5C 306.979,445.503 289.813,448.003 270.5,436C 258.005,422.71 251.005,406.876 249.5,388.5C 249.356,383.799 249.689,378.965 250.5,374C 264.994,372.75 279.494,371.584 294,370.5C 308.173,371.475 322.34,372.475 336.5,373.5C 336.5,378.167 336.5,382.833 336.5,387.5 Z"/></g>
<g><path style="opacity:1" fill="#d6d6d6" d="M 149.5,501.5 C 148.231,508.013 147.064,514.68 146,521.5C 145.388,524.032 143.888,524.865 141.5,524C 139.383,520.453 137.883,516.62 137,512.5C 136.325,506.432 135.325,500.432 134,494.5C 131.52,513.488 129.187,532.488 127,551.5C 125.371,558.552 122.537,559.219 118.5,553.5C 117.695,548.699 117.028,543.866 116.5,539C 119.249,505.589 123.749,472.422 130,439.5C 130.899,434.236 132.565,429.236 135,424.5C 136.555,422.485 138.389,422.152 140.5,423.5C 142.924,427.859 144.424,432.525 145,437.5C 148.821,458.709 150.321,480.043 149.5,501.5 Z"/></g>
<g><path style="opacity:1" fill="#d6d6d6" d="M 479.5,547.5 C 478.319,550.838 476.653,554.005 474.5,557C 472.613,557.163 471.113,556.329 470,554.5C 467.738,537.887 465.738,521.22 464,504.5C 463.173,511.308 461.34,517.808 458.5,524C 457.5,524.667 456.5,524.667 455.5,524C 453.562,521.53 452.396,518.696 452,515.5C 451.797,508.61 450.964,501.943 449.5,495.5C 448.228,471.448 450.728,447.781 457,424.5C 458.733,422.398 460.733,422.065 463,423.5C 465.92,429.176 467.92,435.176 469,441.5C 474.59,471.975 478.756,502.641 481.5,533.5C 480.552,538.133 479.886,542.799 479.5,547.5 Z"/></g>
<g><path style="opacity:1" fill="#757575" d="M 71.5,426.5 C 71.8016,429.059 71.4682,431.393 70.5,433.5C 70.6716,432.508 70.3382,431.842 69.5,431.5C 69.7959,429.597 70.4625,427.93 71.5,426.5 Z"/></g>
<g><path style="opacity:1" fill="#d5d5d5" d="M 99.5,499.5 C 98.6728,494.015 98.1728,488.348 98,482.5C 95.9424,493.065 93.1091,503.399 89.5,513.5C 88.7261,514.711 87.8928,514.711 87,513.5C 85.3473,508.816 84.1807,504.15 83.5,499.5C 83.3335,488.828 83.5002,478.161 84,467.5C 86.3557,458.077 89.0224,448.744 92,439.5C 93.2467,436.671 94.7467,434.005 96.5,431.5C 97.1924,432.025 97.6924,432.692 98,433.5C 98.7965,455.566 99.2965,477.566 99.5,499.5 Z"/></g>
<g><path style="opacity:1" fill="#d6d6d6" d="M 513.5,492.5 C 512.353,497.642 511.52,502.975 511,508.5C 510.288,510.847 509.121,512.847 507.5,514.5C 504.359,506.253 501.692,497.919 499.5,489.5C 499.493,486.962 499.159,484.462 498.5,482C 499.623,465.051 500.79,448.217 502,431.5C 506.504,439.674 509.838,448.341 512,457.5C 512.188,469.242 512.688,480.909 513.5,492.5 Z"/></g>
<g><path style="opacity:1" fill="#d6d6d6" d="M 176.5,516.5 C 175.71,515.391 175.21,514.058 175,512.5C 173.934,522.5 171.601,532.166 168,541.5C 166.729,542.883 165.229,543.883 163.5,544.5C 162.383,536.525 161.883,528.525 162,520.5C 163.841,515.297 165.174,509.964 166,504.5C 168.76,486.845 171.427,469.178 174,451.5C 175.535,473.191 176.368,494.857 176.5,516.5 Z"/></g>
<g><path style="opacity:1" fill="#d7d7d7" d="M 433.5,540.5 C 432.596,541.209 432.263,542.209 432.5,543.5C 431.178,543.67 430.011,543.337 429,542.5C 426.016,537.2 424.183,531.534 423.5,525.5C 423.253,524.287 422.586,523.62 421.5,523.5C 421.665,520.15 421.498,516.817 421,513.5C 419.987,512.504 419.154,511.504 418.5,510.5C 419.858,505.209 421.025,499.876 422,494.5C 423.011,480.184 423.678,465.85 424,451.5C 427.024,474.81 430.857,497.976 435.5,521C 434.627,527.486 433.96,533.986 433.5,540.5 Z"/></g>
<g><path style="opacity:1" fill="#d5d5d5" d="M 396.5,564.5 C 395.178,564.67 394.011,564.337 393,563.5C 392.256,561.1 391.423,558.767 390.5,556.5C 390.369,552.346 389.536,548.346 388,544.5C 386.867,542.789 385.367,542.289 383.5,543C 378.679,550.808 374.513,558.974 371,567.5C 367.784,570.774 366.617,574.774 367.5,579.5C 366.351,573.976 364.518,568.643 362,563.5C 361.448,554.487 361.615,545.487 362.5,536.5C 360.041,536.69 358.374,535.69 357.5,533.5C 357.666,525.16 357.5,516.827 357,508.5C 356.722,509.416 356.222,510.082 355.5,510.5C 358.903,495.46 363.403,480.793 369,466.5C 370.114,471.391 370.614,476.391 370.5,481.5C 369.396,501.014 368.063,520.514 366.5,540C 366.494,544.236 366.994,548.402 368,552.5C 370.135,557.325 372.801,557.659 376,553.5C 380,544.833 384,536.167 388,527.5C 389.263,525.203 391.097,524.37 393.5,525C 395.96,531.619 397.793,538.452 399,545.5C 400.182,547.344 401.349,549.177 402.5,551C 400.971,555.772 398.971,560.272 396.5,564.5 Z"/></g>
<g><path style="opacity:1" fill="#d7d7d7" d="M 355.5,510.5 C 350.618,531.313 343.451,551.313 334,570.5C 330.783,575.358 326.283,578.024 320.5,578.5C 318.626,578.61 317.126,577.944 316,576.5C 314.438,574.043 313.438,571.376 313,568.5C 312.51,569.793 312.343,571.127 312.5,572.5C 310.879,562.182 308.879,551.849 306.5,541.5C 307.376,541.631 308.043,541.298 308.5,540.5C 306.696,535.254 305.196,529.921 304,524.5C 302.877,521.751 301.377,519.251 299.5,517C 297.633,516.289 296.133,516.789 295,518.5C 292.739,522.95 291.072,527.617 290,532.5C 287.668,545.159 285.334,557.826 283,570.5C 280.358,578.944 275.191,580.777 267.5,576C 261.689,570.218 257.522,563.385 255,555.5C 250.993,543.49 246.993,531.49 243,519.5C 242.609,524.854 242.109,530.188 241.5,535.5C 237.932,537.312 235.432,536.312 234,532.5C 234.517,543.474 234.517,554.474 234,565.5C 232.153,570.803 230.987,576.136 230.5,581.5C 230.82,578.102 230.487,574.768 229.5,571.5C 227.142,569.976 225.309,567.976 224,565.5C 221.347,557.359 217.513,549.859 212.5,543C 211.216,542.316 210.049,542.483 209,543.5C 207.092,547.285 205.925,551.285 205.5,555.5C 205.308,559.102 203.974,562.102 201.5,564.5C 200.504,564.586 199.671,564.252 199,563.5C 196.971,559.08 195.138,554.58 193.5,550C 195.6,550.023 197.433,548.856 199,546.5C 200.547,540.551 201.881,534.551 203,528.5C 204.508,524.326 206.841,523.659 210,526.5C 213.941,534.716 217.608,543.049 221,551.5C 222.719,553.557 224.719,555.224 227,556.5C 228.477,555.556 229.477,554.223 230,552.5C 231.023,548.068 231.523,543.568 231.5,539C 230.192,519.164 228.859,499.331 227.5,479.5C 227.667,475.833 227.833,472.167 228,468.5C 228.308,467.692 228.808,467.025 229.5,466.5C 230.584,467.665 231.417,468.998 232,470.5C 238.793,497.007 247.126,523.007 257,548.5C 259.759,554.589 263.926,559.423 269.5,563C 276.506,566.081 281.006,563.914 283,556.5C 285.656,543.561 287.99,530.561 290,517.5C 291.022,512.744 292.356,508.077 294,503.5C 294.912,499.23 297.412,497.396 301.5,498C 303.915,502.242 305.749,506.742 307,511.5C 309.76,525.82 312.427,540.153 315,554.5C 315.533,558.446 317.366,561.612 320.5,564C 328.226,564.386 334.059,561.219 338,554.5C 344.546,540.012 350.379,525.345 355.5,510.5 Z"/></g>
<g><path style="opacity:1" fill="#eeeeee" d="M 357.5,533.5 C 351.945,552 345.112,570 337,587.5C 326.649,599.408 318.982,598.075 314,583.5C 313.452,579.83 312.952,576.163 312.5,572.5C 312.343,571.127 312.51,569.793 313,568.5C 313.438,571.376 314.438,574.043 316,576.5C 317.126,577.944 318.626,578.61 320.5,578.5C 326.283,578.024 330.783,575.358 334,570.5C 343.451,551.313 350.618,531.313 355.5,510.5C 356.222,510.082 356.722,509.416 357,508.5C 357.5,516.827 357.666,525.16 357.5,533.5 Z"/></g>
<g><path style="opacity:1" fill="#ededed" d="M 306.5,541.5 C 305.848,536.167 303.514,531.834 299.5,528.5C 297.971,528.529 296.804,529.196 296,530.5C 293.201,536.232 291.201,542.232 290,548.5C 287.747,561.527 285.414,574.527 283,587.5C 279.227,596.336 273.394,597.836 265.5,592C 263.212,589.257 261.045,586.423 259,583.5C 252.302,567.78 246.469,551.78 241.5,535.5C 242.109,530.188 242.609,524.854 243,519.5C 246.993,531.49 250.993,543.49 255,555.5C 257.522,563.385 261.689,570.218 267.5,576C 275.191,580.777 280.358,578.944 283,570.5C 285.334,557.826 287.668,545.159 290,532.5C 291.072,527.617 292.739,522.95 295,518.5C 296.133,516.789 297.633,516.289 299.5,517C 301.377,519.251 302.877,521.751 304,524.5C 305.196,529.921 306.696,535.254 308.5,540.5C 308.043,541.298 307.376,541.631 306.5,541.5 Z"/></g>
<g><path style="opacity:1" fill="#ededed" d="M 230.5,581.5 C 230.259,587.501 227.759,588.834 223,585.5C 218.621,577.037 214.621,568.371 211,559.5C 209.549,557.536 207.716,556.203 205.5,555.5C 205.925,551.285 207.092,547.285 209,543.5C 210.049,542.483 211.216,542.316 212.5,543C 217.513,549.859 221.347,557.359 224,565.5C 225.309,567.976 227.142,569.976 229.5,571.5C 230.487,574.768 230.82,578.102 230.5,581.5 Z"/></g>
<g><path style="opacity:1" fill="#eeeeee" d="M 390.5,556.5 C 389.542,556.953 388.708,557.619 388,558.5C 383.992,567.201 379.992,575.868 376,584.5C 372.801,588.659 370.135,588.325 368,583.5C 367.51,582.207 367.343,580.873 367.5,579.5C 366.617,574.774 367.784,570.774 371,567.5C 374.513,558.974 378.679,550.808 383.5,543C 385.367,542.289 386.867,542.789 388,544.5C 389.536,548.346 390.369,552.346 390.5,556.5 Z"/></g>
</svg>
