<?xml version="1.0" encoding="UTF-8"?>
<!DOCTYPE svg PUBLIC "-//W3C//DTD SVG 1.1//EN" "http://www.w3.org/Graphics/SVG/1.1/DTD/svg11.dtd">
<svg xmlns="http://www.w3.org/2000/svg" version="1.1" width="600px" height="600px" style="shape-rendering:geometricPrecision; text-rendering:geometricPrecision; image-rendering:optimizeQuality; fill-rule:evenodd; clip-rule:evenodd" xmlns:xlink="http://www.w3.org/1999/xlink">
<g><path style="opacity:0.96" fill="#060201" d="M 599.5,303.5 C 599.5,317.167 599.5,330.833 599.5,344.5C 593.486,346.892 587.653,346.225 582,342.5C 585.231,351.807 587.397,361.473 588.5,371.5C 584.887,397.063 580.054,422.397 574,447.5C 571.016,455.891 565.182,458.891 556.5,456.5C 556.825,461.599 556.325,466.599 555,471.5C 551.726,476.097 547.226,478.097 541.5,477.5C 542.47,490.486 544.47,503.319 547.5,516C 545.388,531.888 537.054,536.555 522.5,530C 519.667,527.833 516.833,525.667 514,523.5C 511.152,530.092 506.152,533.758 499,534.5C 467.755,526.723 442.088,510.39 422,485.5C 417.263,478.693 413.597,471.36 411,463.5C 401.016,482.14 385.516,492.973 364.5,496C 358.167,496.333 351.833,496.667 345.5,497C 318.15,505.665 290.816,505.665 263.5,497C 239.651,498.981 219.817,491.147 204,473.5C 199.33,467.158 195.996,460.158 194,452.5C 189.171,480.99 174.671,503.157 150.5,519C 135.692,528.985 119.526,535.819 102,539.5C 94.9926,539.164 89.9926,535.831 87,529.5C 81.9027,534.753 75.7361,538.087 68.5,539.5C 58.9143,537.913 53.9143,532.246 53.5,522.5C 56.434,509.393 58.7673,496.226 60.5,483C 52.3714,484.825 47.2047,481.659 45,473.5C 44.5014,469.848 44.3347,466.182 44.5,462.5C 39.1736,463.961 34.3403,462.961 30,459.5C 21.202,432.172 14.702,404.338 10.5,376C 12.1308,366.647 14.2975,357.48 17,348.5C 11.1588,352.622 5.32545,352.955 -0.5,349.5C -0.5,336.5 -0.5,323.5 -0.5,310.5C 2.61647,303.606 6.28314,296.939 10.5,290.5C 9.15874,283.411 9.65874,276.411 12,269.5C 14.9455,260.942 18.9455,252.942 24,245.5C 47.8948,211.593 74.0615,179.426 102.5,149C 135.425,117.747 172.425,92.4134 213.5,73C 250.942,61.1287 289.276,56.7954 328.5,60C 361.189,61.1706 391.855,69.504 420.5,85C 457.172,107.321 490.005,134.488 519,166.5C 536.716,188.547 554.049,210.881 571,233.5C 579.678,244.857 585.678,257.524 589,271.5C 589.333,276.5 589.667,281.5 590,286.5C 593.194,292.229 596.361,297.896 599.5,303.5 Z"/></g>
<g><path style="opacity:1" fill="#da5712" d="M 426.5,102.5 C 446.405,120.986 457.238,143.986 459,171.5C 460.377,193.068 458.71,214.401 454,235.5C 442.551,282.347 428.384,328.347 411.5,373.5C 409.304,380.922 406.804,388.255 404,395.5C 399.272,385.044 394.272,374.711 389,364.5C 378.722,349.222 368.055,334.222 357,319.5C 348.095,302.455 341.762,284.455 338,265.5C 330.127,224.125 328.294,182.458 332.5,140.5C 332.561,124.307 329.728,108.64 324,93.5C 320.932,86.1081 316.099,80.2748 309.5,76C 303.982,74.7131 298.982,75.7131 294.5,79C 286.057,89.3055 280.89,101.139 279,114.5C 277.726,123.121 276.893,131.788 276.5,140.5C 281.607,186.567 279.107,232.233 269,277.5C 265.601,291.957 260.268,305.624 253,318.5C 234.427,341.963 218.094,366.963 204,393.5C 199.06,378.847 194.227,364.18 189.5,349.5C 171.995,304.816 159.162,258.816 151,211.5C 147.504,187.007 149.504,163.007 157,139.5C 162.655,124.491 171.488,111.825 183.5,101.5C 198.558,89.6403 215.558,81.4737 234.5,77C 283.65,66.5053 332.65,67.172 381.5,79C 398.296,83.7282 413.296,91.5615 426.5,102.5 Z"/></g>
<g><path style="opacity:1" fill="#f7f3f3" d="M 301.5,80.5 C 308.203,80.3503 313.036,83.3503 316,89.5C 320.931,98.9583 324.264,108.958 326,119.5C 325.852,151.498 325.852,183.498 326,215.5C 328.066,240.895 332.399,265.895 339,290.5C 342.079,300.071 345.745,309.404 350,318.5C 362.58,335.992 374.913,353.659 387,371.5C 396.11,387.501 402.444,404.501 406,422.5C 408.548,438.91 405.215,453.91 396,467.5C 381.142,483.099 362.975,488.933 341.5,485C 328.9,483.266 316.566,480.433 304.5,476.5C 292.36,480.118 280.026,482.951 267.5,485C 246.025,488.933 227.858,483.099 213,467.5C 208.083,461.332 205.083,454.332 204,446.5C 200.891,429.356 202.557,412.689 209,396.5C 223.426,369.299 240.092,343.632 259,319.5C 268.535,300.225 274.868,279.891 278,258.5C 280.438,242.554 282.438,226.554 284,210.5C 283.09,180.514 282.757,150.514 283,120.5C 284.624,108.294 288.624,96.9602 295,86.5C 297.063,84.2659 299.229,82.2659 301.5,80.5 Z"/></g>
<g><path style="opacity:1" fill="#88371a" d="M 183.5,101.5 C 171.488,111.825 162.655,124.491 157,139.5C 149.504,163.007 147.504,187.007 151,211.5C 159.162,258.816 171.995,304.816 189.5,349.5C 188.332,357.497 187.332,365.664 186.5,374C 189.379,404.868 187.213,435.368 180,465.5C 175.374,480.571 166.874,493.071 154.5,503C 139.822,514.653 123.488,523.32 105.5,529C 102.653,529.944 100.153,529.444 98,527.5C 96.8099,523.619 96.1432,519.619 96,515.5C 93.1619,514.325 90.3285,514.491 87.5,516C 82.5463,519.285 77.8797,522.952 73.5,527C 67.0251,530.19 64.0251,528.19 64.5,521C 66.7189,509.571 68.5522,498.071 70,486.5C 70.6667,478.833 70.6667,471.167 70,463.5C 69.3878,460.968 67.8878,460.135 65.5,461C 62.7069,464.081 60.5403,467.581 59,471.5C 57.6667,472.833 56.3333,472.833 55,471.5C 54.6667,462.167 54.3333,452.833 54,443.5C 53.4169,441.998 52.5836,440.665 51.5,439.5C 46.9317,442.9 43.2651,447.066 40.5,452C 39.552,452.483 38.552,452.649 37.5,452.5C 31.7035,429.98 26.5368,407.314 22,384.5C 21.3333,379.167 21.3333,373.833 22,368.5C 24.2714,360.352 26.9381,352.352 30,344.5C 32.3409,336.512 29.5075,333.345 21.5,335C 16.979,337.426 12.3124,339.593 7.5,341.5C 4.70568,340.602 3.37235,338.602 3.5,335.5C 6.23631,320.698 11.7363,307.031 20,294.5C 20.3333,287.833 20.6667,281.167 21,274.5C 26.8754,260.412 34.5421,247.412 44,235.5C 60.6124,213.286 77.9458,191.619 96,170.5C 121.866,143.024 151.033,120.024 183.5,101.5 Z"/></g>
<g><path style="opacity:1" fill="#88371a" d="M 426.5,102.5 C 461.339,123.484 491.839,149.818 518,181.5C 534.667,203.5 551.333,225.5 568,247.5C 573.029,255.226 576.696,263.559 579,272.5C 579.359,277.859 579.359,283.193 579,288.5C 588.617,302.049 593.95,317.049 595,333.5C 594.196,334.804 593.029,335.471 591.5,335.5C 586.505,333.336 581.505,331.17 576.5,329C 568.992,327.859 566.492,331.026 569,338.5C 572.066,346.363 574.732,354.363 577,362.5C 577.791,374.636 576.791,386.636 574,398.5C 570.712,414.235 567.212,429.902 563.5,445.5C 562.635,446.583 561.635,446.749 560.5,446C 557.693,441.198 554.193,437.031 550,433.5C 548.26,434.716 547.26,436.382 547,438.5C 546.667,447.833 546.333,457.167 546,466.5C 545,467.833 544,467.833 543,466.5C 540.873,462.411 538.373,458.577 535.5,455C 533.112,454.135 531.612,454.968 531,457.5C 529.655,475.114 531.322,492.447 536,509.5C 536.667,513.167 536.667,516.833 536,520.5C 534.23,522.418 532.063,522.918 529.5,522C 524.167,518 518.833,514 513.5,510C 510.937,508.921 508.271,508.421 505.5,508.5C 504.955,511.813 504.455,515.146 504,518.5C 502.923,523.115 500.09,524.615 495.5,523C 468.406,514.882 446.239,499.715 429,477.5C 422.126,463.209 417.459,448.209 415,432.5C 412.044,412.739 410.877,393.073 411.5,373.5C 428.384,328.347 442.551,282.347 454,235.5C 458.71,214.401 460.377,193.068 459,171.5C 457.238,143.986 446.405,120.986 426.5,102.5 Z"/></g>
<g><path style="opacity:1" fill="#6f3e10" d="M 217.5,211.5 C 236.828,209.906 250.328,217.906 258,235.5C 262.227,257.555 253.727,272.055 232.5,279C 203.856,280.022 190.356,266.189 192,237.5C 196.052,224.283 204.552,215.616 217.5,211.5 Z"/></g>
<g><path style="opacity:1" fill="#6f3e10" d="M 376.5,211.5 C 405.193,211.024 418.693,225.024 417,253.5C 410.094,273.045 396.261,281.545 375.5,279C 352.82,269.983 345.32,253.816 353,230.5C 358.365,220.954 366.199,214.621 376.5,211.5 Z"/></g>
<g><path style="opacity:1" fill="#241916" d="M 219.5,224.5 C 235.28,222.96 244.28,229.96 246.5,245.5C 244.161,261.653 234.828,268.486 218.5,266C 205.795,259.906 201.628,250.072 206,236.5C 209.225,230.986 213.725,226.986 219.5,224.5 Z"/></g>
<g><path style="opacity:1" fill="#241916" d="M 377.5,224.5 C 397.034,223.199 405.867,232.199 404,251.5C 399.365,263.738 390.532,268.572 377.5,266C 362.975,259.096 359.141,248.263 366,233.5C 369.161,229.491 372.994,226.491 377.5,224.5 Z"/></g>
<g><path style="opacity:1" fill="#f1f1f1" d="M 230.5,234.5 C 237.521,234.524 239.854,237.857 237.5,244.5C 232.313,248.586 228.646,247.419 226.5,241C 226.722,238.038 228.056,235.871 230.5,234.5 Z"/></g>
<g><path style="opacity:1" fill="#f1f1f1" d="M 389.5,234.5 C 394.713,233.762 397.713,235.928 398.5,241C 397.089,246.141 393.755,247.808 388.5,246C 385.681,241.899 386.014,238.065 389.5,234.5 Z"/></g>
<g><path style="opacity:1" fill="#0b0a0a" d="M 288.5,381.5 C 303.019,380.696 317.353,381.863 331.5,385C 345.913,391.328 351.079,402.161 347,417.5C 336.854,436.328 321.021,445.494 299.5,445C 282.436,441.921 269.936,432.754 262,417.5C 258.323,405.349 261.49,395.515 271.5,388C 277.02,385.11 282.686,382.943 288.5,381.5 Z"/></g>
<g><path style="opacity:1" fill="#362e2a" d="M 292.5,386.5 C 302.55,386.169 312.55,386.669 322.5,388C 343.63,393.755 348.464,405.921 337,424.5C 313.643,446.243 291.309,445.243 270,421.5C 262.68,409.859 264.513,400.025 275.5,392C 281.038,389.374 286.705,387.54 292.5,386.5 Z"/></g>
<g><path style="opacity:1" fill="#b24713" d="M 302.5,481.5 C 313.069,484.309 323.736,486.809 334.5,489C 330.076,490.809 325.41,491.809 320.5,492C 306.796,492.862 293.129,492.528 279.5,491C 277.616,490.784 275.949,490.117 274.5,489C 284.202,487.41 293.535,484.91 302.5,481.5 Z"/></g>
</svg>
