<?xml version="1.0" encoding="UTF-8"?>
<!DOCTYPE svg PUBLIC "-//W3C//DTD SVG 1.1//EN" "http://www.w3.org/Graphics/SVG/1.1/DTD/svg11.dtd">
<svg xmlns="http://www.w3.org/2000/svg" version="1.1" width="600px" height="600px" style="shape-rendering:geometricPrecision; text-rendering:geometricPrecision; image-rendering:optimizeQuality; fill-rule:evenodd; clip-rule:evenodd" xmlns:xlink="http://www.w3.org/1999/xlink">
<g><path style="opacity:0.975" fill="#030201" d="M 599.5,217.5 C 599.5,231.167 599.5,244.833 599.5,258.5C 590.804,276.221 581.304,293.554 571,310.5C 562.437,324.954 556.103,340.287 552,356.5C 549.884,366.776 551.884,376.11 558,384.5C 563.271,401.294 557.271,411.294 540,414.5C 534.849,414.004 530.015,412.504 525.5,410C 510.274,397.03 497.774,381.863 488,364.5C 474.835,395.832 462.501,427.499 451,459.5C 447.793,473.867 444.46,488.201 441,502.5C 429.228,538.301 405.395,549.968 369.5,537.5C 361.803,558.696 347.137,572.529 325.5,579C 294.281,587.819 266.781,581.319 243,559.5C 237.955,552.743 233.955,545.41 231,537.5C 197.413,549.698 174.08,539.365 161,506.5C 157.236,493.679 154.236,480.679 152,467.5C 140.24,432.218 126.906,397.551 112,363.5C 103.371,378.133 93.2044,391.633 81.5,404C 75.4777,409.761 68.3111,413.261 60,414.5C 43.6346,412.489 36.9679,403.489 40,387.5C 47.6037,376.129 49.6037,363.795 46,350.5C 43.7841,342.518 40.7841,334.851 37,327.5C 27.8404,309.844 18.1737,292.511 8,275.5C 4.84555,269.53 2.01221,263.53 -0.5,257.5C -0.5,244.5 -0.5,231.5 -0.5,218.5C 27.9407,178.209 60.9407,141.709 98.5,109C 113.81,96.3373 130.476,85.6706 148.5,77C 153.772,75.1314 159.106,73.4647 164.5,72C 193.067,55.8549 223.734,46.1882 256.5,43C 309.141,36.2347 360.474,41.568 410.5,59C 419.446,62.8061 428.112,67.1394 436.5,72C 457.423,78.9529 476.423,89.2862 493.5,103C 533.989,136.646 569.323,174.813 599.5,217.5 Z"/></g>
<g><path style="opacity:1" fill="#fee3a0" d="M 434.5,82.5 C 459.74,99.9737 478.074,122.974 489.5,151.5C 494.194,161.932 497.194,172.932 498.5,184.5C 503.27,224.983 502.27,265.317 495.5,305.5C 495.784,307.415 495.451,309.081 494.5,310.5C 491.517,319.738 488.517,329.071 485.5,338.5C 483.506,346.315 481.006,353.982 478,361.5C 465.933,390.297 454.433,419.297 443.5,448.5C 431.573,438.744 420.073,428.411 409,417.5C 408.501,421.821 408.334,426.154 408.5,430.5C 407.732,431.263 407.232,432.263 407,433.5C 388.607,418.264 370.107,403.264 351.5,388.5C 347.94,382.443 342.94,377.943 336.5,375C 314.073,367.121 291.406,366.455 268.5,373C 248.988,380.524 242.155,394.357 248,414.5C 251.622,423.456 257.455,430.623 265.5,436C 274.687,441.278 284.187,445.778 294,449.5C 296.34,453.555 297.007,457.889 296,462.5C 293.59,465.397 291.423,468.397 289.5,471.5C 281.215,473.595 273.215,476.262 265.5,479.5C 260.562,480.231 255.895,481.565 251.5,483.5C 229.434,489.306 212.6,482.306 201,462.5C 198.124,455.533 195.457,448.533 193,441.5C 192.325,450.456 194.325,458.789 199,466.5C 207.463,479.974 217.796,491.974 230,502.5C 233.283,509.276 236.116,516.276 238.5,523.5C 224.279,531.044 209.279,533.211 193.5,530C 182.159,524.518 174.659,515.685 171,503.5C 166.333,484.828 161.666,466.162 157,447.5C 145.943,419.054 134.61,390.721 123,362.5C 119.66,353.981 116.827,345.315 114.5,336.5C 98.002,283.017 94.6686,228.684 104.5,173.5C 104.742,169.521 105.742,165.854 107.5,162.5C 117.984,129.022 137.65,102.356 166.5,82.5C 207.895,59.3616 252.395,49.0282 300,51.5C 337.011,50.3631 372.844,56.1964 407.5,69C 416.832,72.9993 425.832,77.4993 434.5,82.5 Z"/></g>
<g><path style="opacity:1" fill="#f0c76c" d="M 126.5,100.5 C 127.239,100.369 127.906,100.536 128.5,101C 110.175,122.593 98.3412,147.427 93,175.5C 82.7931,235.252 87.4597,293.585 107,350.5C 99.4857,364.87 90.4857,378.203 80,390.5C 76.0877,395.083 71.5877,398.917 66.5,402C 59.9406,404.952 54.4406,403.786 50,398.5C 49.3333,395.833 49.3333,393.167 50,390.5C 59.4878,375.747 61.1544,360.08 55,343.5C 50.7751,332.163 45.7751,321.163 40,310.5C 31,294.5 22,278.5 13,262.5C 7.48741,251.784 5.48741,240.45 7,228.5C 10.5095,220.99 14.8428,213.99 20,207.5C 51.0295,167.304 86.5295,131.637 126.5,100.5 Z"/></g>
<g><path style="opacity:1" fill="#f0c76c" d="M 472.5,102.5 C 472.56,101.957 472.893,101.624 473.5,101.5C 517.975,134.807 556.142,174.141 588,219.5C 594.633,230.373 595.299,241.706 590,253.5C 587.273,259.954 584.273,266.288 581,272.5C 571.16,288.843 561.826,305.51 553,322.5C 548.545,331.866 544.878,341.533 542,351.5C 538.389,364.525 540.389,376.525 548,387.5C 552.112,400.058 547.612,405.225 534.5,403C 531.228,401.392 528.228,399.392 525.5,397C 512.589,383.674 501.755,368.841 493,352.5C 513.073,295.346 518.073,236.679 508,176.5C 502.873,150.758 492.54,127.425 477,106.5C 475.629,104.959 474.129,103.625 472.5,102.5 Z"/></g>
<g><path style="opacity:1" fill="#e0bb66" d="M 434.5,82.5 C 461.152,98.7697 479.485,121.77 489.5,151.5C 478.074,122.974 459.74,99.9737 434.5,82.5 Z"/></g>
<g><path style="opacity:1" fill="#e1bb67" d="M 166.5,82.5 C 137.65,102.356 117.984,129.022 107.5,162.5C 116.515,127.84 136.182,101.173 166.5,82.5 Z"/></g>
<g><path style="opacity:1" fill="#060504" d="M 212.5,209.5 C 224.537,208.856 234.87,212.689 243.5,221C 248.473,226.444 252.307,232.611 255,239.5C 255.667,241.5 255.667,243.5 255,245.5C 246.914,248.79 238.747,251.957 230.5,255C 219.425,257.782 208.758,256.782 198.5,252C 192.833,248.333 187.167,244.667 181.5,241C 179.009,238.032 178.843,234.865 181,231.5C 189.498,221.026 199.998,213.692 212.5,209.5 Z"/></g>
<g><path style="opacity:1" fill="#060504" d="M 377.5,209.5 C 396.487,209.744 411.32,217.744 422,233.5C 422.667,235.5 422.667,237.5 422,239.5C 412.776,246.719 402.61,252.219 391.5,256C 378.15,258.107 365.817,255.441 354.5,248C 348.033,248.538 345.533,245.704 347,239.5C 352.443,224.556 362.609,214.556 377.5,209.5 Z"/></g>
<g><path style="opacity:1" fill="#362f2b" d="M 221.5,220.5 C 215.226,224.416 214.893,228.916 220.5,234C 227.631,235.604 230.964,232.771 230.5,225.5C 235.649,228.483 239.649,232.65 242.5,238C 224.985,250.151 208.319,249.151 192.5,235C 198.928,227.454 206.928,222.454 216.5,220C 218.387,219.22 220.054,219.387 221.5,220.5 Z"/></g>
<g><path style="opacity:1" fill="#f5f4f4" d="M 221.5,220.5 C 225.272,220.884 228.272,222.55 230.5,225.5C 230.964,232.771 227.631,235.604 220.5,234C 214.893,228.916 215.226,224.416 221.5,220.5 Z"/></g>
<g><path style="opacity:1" fill="#372f2b" d="M 390.5,221.5 C 384.844,221.867 383.011,224.867 385,230.5C 389.285,235.821 393.619,235.821 398,230.5C 398.49,229.207 398.657,227.873 398.5,226.5C 402.468,228.832 406.134,231.665 409.5,235C 403.444,239.696 396.777,243.363 389.5,246C 379.099,247.259 369.433,245.092 360.5,239.5C 359.417,238.635 359.251,237.635 360,236.5C 364.167,231 369,226.167 374.5,222C 379.894,218.932 385.227,218.765 390.5,221.5 Z"/></g>
<g><path style="opacity:1" fill="#f4f4f4" d="M 390.5,221.5 C 393.915,222.195 396.582,223.862 398.5,226.5C 398.657,227.873 398.49,229.207 398,230.5C 393.619,235.821 389.285,235.821 385,230.5C 383.011,224.867 384.844,221.867 390.5,221.5 Z"/></g>
<g><path style="opacity:1" fill="#e7c26f" d="M 498.5,184.5 C 500.308,191.59 501.474,198.924 502,206.5C 504.531,239.946 502.364,272.946 495.5,305.5C 502.27,265.317 503.27,224.983 498.5,184.5 Z"/></g>
<g><path style="opacity:1" fill="#e4bf6c" d="M 104.5,173.5 C 94.6686,228.684 98.002,283.017 114.5,336.5C 112.908,337.602 112.075,336.935 112,334.5C 96.3156,281.262 93.8156,227.596 104.5,173.5 Z"/></g>
<g><path style="opacity:1" fill="#e2bd6a" d="M 494.5,310.5 C 492.786,320.356 490.286,330.022 487,339.5C 486.617,338.944 486.117,338.611 485.5,338.5C 488.517,329.071 491.517,319.738 494.5,310.5 Z"/></g>
<g><path style="opacity:1" fill="#f7dd9c" d="M 351.5,388.5 C 370.107,403.264 388.607,418.264 407,433.5C 407.232,432.263 407.732,431.263 408.5,430.5C 407.357,433.684 406.691,437.017 406.5,440.5C 399.809,476.328 378.809,490.328 343.5,482.5C 340.592,480.395 337.258,479.395 333.5,479.5C 326.482,476.384 319.149,474.05 311.5,472.5C 311.649,471.448 311.483,470.448 311,469.5C 303.406,463.056 302.573,455.889 308.5,448C 322.983,444.161 335.483,436.994 346,426.5C 354.951,414.834 356.784,402.167 351.5,388.5 Z"/></g>
<g><path style="opacity:1" fill="#f0d897" d="M 443.5,448.5 C 439.304,463.311 435.804,478.311 433,493.5C 430.28,503.605 425.947,512.938 420,521.5C 415.498,526.337 409.998,529.503 403.5,531C 389.653,532.47 376.319,530.47 363.5,525C 363.778,517.143 365.945,509.643 370,502.5C 381.156,492.686 390.823,481.686 399,469.5C 404.967,460.483 407.467,450.816 406.5,440.5C 406.691,437.017 407.357,433.684 408.5,430.5C 408.334,426.154 408.501,421.821 409,417.5C 420.073,428.411 431.573,438.744 443.5,448.5 Z"/></g>
<g><path style="opacity:1" fill="#c48481" d="M 289.5,471.5 C 281.959,475.125 273.959,477.792 265.5,479.5C 273.215,476.262 281.215,473.595 289.5,471.5 Z"/></g>
<g><path style="opacity:1" fill="#e59497" d="M 353.5,494.5 C 354.028,513.723 349.195,531.389 339,547.5C 336.963,549.706 334.797,551.706 332.5,553.5C 332.586,552.504 332.252,551.671 331.5,551C 307.546,532.714 283.879,514.048 260.5,495C 258.975,493.991 257.308,493.491 255.5,493.5C 267.751,489.808 280.084,485.975 292.5,482C 295.672,479.994 298.338,477.494 300.5,474.5C 302.262,477.518 304.596,480.018 307.5,482C 322.53,487.514 337.864,491.68 353.5,494.5 Z"/></g>
<g><path style="opacity:1" fill="#c48481" d="M 311.5,472.5 C 319.149,474.05 326.482,476.384 333.5,479.5C 325.832,477.943 318.499,475.609 311.5,472.5 Z"/></g>
<g><path style="opacity:1" fill="#c48581" d="M 265.5,479.5 C 261.195,481.746 256.529,483.08 251.5,483.5C 255.895,481.565 260.562,480.231 265.5,479.5 Z"/></g>
<g><path style="opacity:1" fill="#c78a83" d="M 333.5,479.5 C 337.258,479.395 340.592,480.395 343.5,482.5C 339.838,482.277 336.505,481.277 333.5,479.5 Z"/></g>
<g><path style="opacity:1" fill="#f09b9e" d="M 255.5,493.5 C 257.308,493.491 258.975,493.991 260.5,495C 283.879,514.048 307.546,532.714 331.5,551C 332.252,551.671 332.586,552.504 332.5,553.5C 326.421,559.371 319.088,562.871 310.5,564C 283.764,568.054 264.93,557.887 254,533.5C 249.466,520.894 247.299,507.894 247.5,494.5C 250.167,494.167 252.833,493.833 255.5,493.5 Z"/></g>
<g><path style="opacity:1" fill="#231815" d="M 247.5,494.5 C 247.299,507.894 249.466,520.894 254,533.5C 264.93,557.887 283.764,568.054 310.5,564C 319.088,562.871 326.421,559.371 332.5,553.5C 334.797,551.706 336.963,549.706 339,547.5C 349.195,531.389 354.028,513.723 353.5,494.5C 356.85,494.335 360.183,494.502 363.5,495C 361.622,496.543 360.122,498.376 359,500.5C 354.487,509.352 352.487,518.685 353,528.5C 353.882,531.552 355.716,533.886 358.5,535.5C 353.515,549.652 344.182,559.819 330.5,566C 305.774,576.201 282.108,574.201 259.5,560C 250.62,553.607 244.62,545.107 241.5,534.5C 247.036,531.39 249.203,526.723 248,520.5C 246.202,514.105 244.202,507.772 242,501.5C 241.117,498.898 239.617,496.731 237.5,495C 240.817,494.502 244.15,494.335 247.5,494.5 Z"/></g>
</svg>
