<?xml version="1.0" encoding="UTF-8"?>
<!DOCTYPE svg PUBLIC "-//W3C//DTD SVG 1.1//EN" "http://www.w3.org/Graphics/SVG/1.1/DTD/svg11.dtd">
<svg xmlns="http://www.w3.org/2000/svg" version="1.1" width="600px" height="600px" style="shape-rendering:geometricPrecision; text-rendering:geometricPrecision; image-rendering:optimizeQuality; fill-rule:evenodd; clip-rule:evenodd" xmlns:xlink="http://www.w3.org/1999/xlink">
<g><path style="opacity:0.953" fill="#010100" d="M 599.5,283.5 C 599.5,311.167 599.5,338.833 599.5,366.5C 596.072,374.845 593.238,383.512 591,392.5C 587.285,399.881 581.451,404.715 573.5,407C 565.015,415.154 555.682,422.154 545.5,428C 542.828,428.834 540.161,429.668 537.5,430.5C 533.964,428.91 530.297,428.41 526.5,429C 518.5,433.333 510.5,437.667 502.5,442C 498.447,443.125 494.614,444.625 491,446.5C 489.92,452.66 487.253,457.993 483,462.5C 484.102,475.896 479.102,486.229 468,493.5C 466.681,505.976 460.181,514.476 448.5,519C 445.298,524.877 441.298,530.211 436.5,535C 431.23,538.369 425.564,540.869 419.5,542.5C 411.764,553.536 401.097,559.036 387.5,559C 377.033,568.374 364.699,572.374 350.5,571C 340.082,577.66 328.915,579.16 317,575.5C 310.648,577.546 304.148,578.88 297.5,579.5C 290.852,578.88 284.352,577.546 278,575.5C 266.162,579.033 254.996,577.533 244.5,571C 230.419,572.07 218.086,568.07 207.5,559C 193.952,558.562 183.285,552.895 175.5,542C 162.579,539.652 153.746,532.485 149,520.5C 136.889,515.389 129.556,506.389 127,493.5C 122.965,489.8 119.298,485.8 116,481.5C 114.014,475.683 113.014,469.683 113,463.5C 108.242,457.984 105.075,451.651 103.5,444.5C 93.092,440.129 83.092,434.963 73.5,429C 69.4932,428.287 65.6598,428.787 62,430.5C 53.4784,428.656 45.9784,424.823 39.5,419C 32.5192,411.847 24.5192,406.181 15.5,402C 11.5538,398.613 8.72043,394.446 7,389.5C 5.2496,381.464 2.7496,373.797 -0.5,366.5C -0.5,339.167 -0.5,311.833 -0.5,284.5C 4.16616,275.155 6.33283,265.155 6,254.5C 10.28,240.936 15.9466,227.936 23,215.5C 24.3806,208.643 26.3806,201.977 29,195.5C 33.8318,186.499 39.1651,177.832 45,169.5C 48.7593,162.128 51.7593,154.462 54,146.5C 61.295,137.536 68.9617,128.87 77,120.5C 80.7048,109.121 87.2048,99.6215 96.5,92C 101.5,88.3333 106.5,84.6667 111.5,81C 115.689,74.9651 120.356,69.2985 125.5,64C 132.459,58.7227 140.126,54.7227 148.5,52C 161.297,48.1802 174.297,45.1802 187.5,43C 200.118,32.2637 214.785,27.9304 231.5,30C 244.477,22.2416 258.311,20.0749 273,23.5C 281.274,21.8488 289.608,20.5154 298,19.5C 306.392,20.5154 314.726,21.8488 323,23.5C 337.706,19.9786 351.539,22.1453 364.5,30C 381.215,27.9304 395.882,32.2637 408.5,43C 420.578,45.1427 432.578,47.476 444.5,50C 455.782,53.1414 466.115,58.1414 475.5,65C 479.57,69.1384 482.903,73.8051 485.5,79C 494.792,85.5676 503.625,92.7343 512,100.5C 516.088,106.746 519.421,113.412 522,120.5C 530.038,128.87 537.705,137.536 545,146.5C 547.515,153.563 550.182,160.563 553,167.5C 559.837,177.836 566.17,188.503 572,199.5C 573.541,205.537 575.207,211.537 577,217.5C 581.349,226.198 585.682,234.864 590,243.5C 592.84,251.234 594.173,259.234 594,267.5C 594.97,273.246 596.803,278.579 599.5,283.5 Z"/></g>
<g><path style="opacity:1" fill="#6c533d" d="M 431.5,59.5 C 434.991,63.4908 438.657,67.3241 442.5,71C 450.223,73.0948 457.556,76.0948 464.5,80C 467.749,84.4968 470.749,89.1635 473.5,94C 477.221,96.5272 481.221,98.5272 485.5,100C 493.127,105.079 497.294,112.245 498,121.5C 502.333,125.167 506.667,128.833 511,132.5C 514.027,138.765 515.36,145.431 515,152.5C 516.961,155.463 519.294,158.129 522,160.5C 523.439,162.275 524.439,164.275 525,166.5C 524.667,173.167 524.333,179.833 524,186.5C 528.908,191.982 530.574,198.315 529,205.5C 526.72,209.551 524.887,213.718 523.5,218C 523.891,220.953 524.725,223.787 526,226.5C 526.667,229.167 526.667,231.833 526,234.5C 523.157,239.519 519.824,244.186 516,248.5C 515.862,254.581 515.196,260.581 514,266.5C 510.329,270.667 506.163,274.334 501.5,277.5C 496.189,283.524 495.689,289.857 500,296.5C 500.499,301.489 500.666,306.489 500.5,311.5C 498.25,309.756 496.083,307.756 494,305.5C 483.044,291.542 471.71,277.875 460,264.5C 459.517,263.552 459.351,262.552 459.5,261.5C 460.03,256.713 458.863,252.38 456,248.5C 430.712,216.594 397.878,197.094 357.5,190C 344.252,187.264 333.085,190.764 324,200.5C 318.462,210.257 319.628,219.09 327.5,227C 342.331,228.851 356.998,231.018 371.5,233.5C 357.134,240.224 350.467,251.557 351.5,267.5C 351.719,268.675 351.386,269.675 350.5,270.5C 345.068,267.45 339.402,264.95 333.5,263C 327.93,262.632 322.43,263.132 317,264.5C 310.444,262.763 303.778,261.43 297,260.5C 292.495,260.446 288.328,261.613 284.5,264C 275.505,263.867 266.505,263.867 257.5,264C 254.222,265.809 250.889,267.309 247.5,268.5C 247.81,265.287 247.477,262.287 246.5,259.5C 245.163,247.831 239.163,239.498 228.5,234.5C 239.948,232.835 251.614,232.002 263.5,232C 271.12,232.383 275.954,228.883 278,221.5C 280.531,206.403 274.365,196.903 259.5,193C 237.489,190.946 216.489,194.613 196.5,204C 175.126,214.047 156.626,227.881 141,245.5C 136.636,251.314 136.47,257.147 140.5,263C 141.873,263.875 143.373,264.375 145,264.5C 158.524,257.488 172.358,251.154 186.5,245.5C 179.369,259.933 180.702,273.6 190.5,286.5C 188.469,290.711 185.802,294.544 182.5,298C 170.428,299.579 162.428,306.079 158.5,317.5C 153.245,321.044 148.079,324.71 143,328.5C 140.584,333.246 138.917,338.246 138,343.5C 135.297,346.538 132.297,349.205 129,351.5C 127.414,353.67 126.08,356.004 125,358.5C 124.667,363.167 124.333,367.833 124,372.5C 121.333,376.5 118.667,380.5 116,384.5C 115.432,389.622 115.932,394.622 117.5,399.5C 117.919,402.747 116.919,405.414 114.5,407.5C 110.787,403.567 108.287,398.9 107,393.5C 106.667,386.167 106.333,378.833 106,371.5C 102.892,366.053 100.225,360.387 98,354.5C 97.2549,345.756 97.7549,337.089 99.5,328.5C 97.4466,320.447 95.7799,312.28 94.5,304C 95.0119,298.464 96.3452,293.13 98.5,288C 98.0788,285.815 97.5788,283.649 97,281.5C 92.6864,276.856 88.0197,272.522 83,268.5C 82.3333,267.167 81.6667,265.833 81,264.5C 82.8783,254.229 79.8783,245.895 72,239.5C 70.3499,236.55 69.5166,233.383 69.5,230C 70.0845,225.578 71.0845,221.244 72.5,217C 71.473,213.631 69.973,210.464 68,207.5C 66.566,203.594 66.2327,199.594 67,195.5C 69.8384,191.323 72.0051,186.823 73.5,182C 73.0905,179.679 72.2572,177.513 71,175.5C 70.3333,172.5 70.3333,169.5 71,166.5C 74.2464,160.913 77.9131,155.58 82,150.5C 82.3333,145.833 82.6667,141.167 83,136.5C 83.6667,135.167 84.3333,133.833 85,132.5C 89.3333,128.833 93.6667,125.167 98,121.5C 98.7065,112.245 102.873,105.079 110.5,100C 114.71,98.3772 118.71,96.3772 122.5,94C 125.251,89.1635 128.251,84.4968 131.5,80C 138.247,75.6379 145.581,72.6379 153.5,71C 157.729,66.6022 162.062,62.4356 166.5,58.5C 174.228,55.7088 182.228,53.8755 190.5,53C 195.008,50.2467 199.341,47.2467 203.5,44C 206.363,42.6011 209.363,41.6011 212.5,41C 219.5,40.6667 226.5,40.3333 233.5,40C 239.063,37.3845 244.729,35.0511 250.5,33C 258.26,32.2687 265.927,32.7687 273.5,34.5C 281.529,32.328 289.696,30.6613 298,29.5C 305.887,30.9302 313.72,32.5968 321.5,34.5C 335.664,30.5122 348.997,32.3455 361.5,40C 370.217,40.1608 378.884,40.8275 387.5,42C 393.743,45.2382 399.743,48.9049 405.5,53C 414.559,53.784 423.226,55.9507 431.5,59.5 Z"/></g>
<g><path style="opacity:1" fill="#503e2e" d="M 166.5,58.5 C 162.062,62.4356 157.729,66.6022 153.5,71C 145.581,72.6379 138.247,75.6379 131.5,80C 128.251,84.4968 125.251,89.1635 122.5,94C 118.71,96.3772 114.71,98.3772 110.5,100C 102.873,105.079 98.7065,112.245 98,121.5C 93.6667,125.167 89.3333,128.833 85,132.5C 84.3333,133.833 83.6667,135.167 83,136.5C 82.6667,141.167 82.3333,145.833 82,150.5C 77.9131,155.58 74.2464,160.913 71,166.5C 70.3333,169.5 70.3333,172.5 71,175.5C 72.2572,177.513 73.0905,179.679 73.5,182C 72.0051,186.823 69.8384,191.323 67,195.5C 66.2327,199.594 66.566,203.594 68,207.5C 69.973,210.464 71.473,213.631 72.5,217C 71.0845,221.244 70.0845,225.578 69.5,230C 69.5166,233.383 70.3499,236.55 72,239.5C 79.8783,245.895 82.8783,254.229 81,264.5C 81.6667,265.833 82.3333,267.167 83,268.5C 88.0197,272.522 92.6864,276.856 97,281.5C 97.5788,283.649 98.0788,285.815 98.5,288C 96.3452,293.13 95.0119,298.464 94.5,304C 95.7799,312.28 97.4466,320.447 99.5,328.5C 97.7549,337.089 97.2549,345.756 98,354.5C 100.225,360.387 102.892,366.053 106,371.5C 106.333,378.833 106.667,386.167 107,393.5C 108.287,398.9 110.787,403.567 114.5,407.5C 116.919,405.414 117.919,402.747 117.5,399.5C 115.932,394.622 115.432,389.622 116,384.5C 118.667,380.5 121.333,376.5 124,372.5C 124.333,367.833 124.667,363.167 125,358.5C 126.08,356.004 127.414,353.67 129,351.5C 132.297,349.205 135.297,346.538 138,343.5C 138.917,338.246 140.584,333.246 143,328.5C 148.079,324.71 153.245,321.044 158.5,317.5C 162.428,306.079 170.428,299.579 182.5,298C 185.802,294.544 188.469,290.711 190.5,286.5C 197.56,283.735 204.893,281.902 212.5,281C 216.705,276.46 221.705,273.126 227.5,271C 233.5,270.667 239.5,270.333 245.5,270C 246.456,266.606 246.789,263.106 246.5,259.5C 247.477,262.287 247.81,265.287 247.5,268.5C 250.889,267.309 254.222,265.809 257.5,264C 266.505,263.867 275.505,263.867 284.5,264C 288.328,261.613 292.495,260.446 297,260.5C 303.778,261.43 310.444,262.763 317,264.5C 322.43,263.132 327.93,262.632 333.5,263C 339.402,264.95 345.068,267.45 350.5,270.5C 351.386,269.675 351.719,268.675 351.5,267.5C 352.404,268.209 352.737,269.209 352.5,270.5C 358.593,270.139 364.593,270.639 370.5,272C 375.008,274.753 379.341,277.753 383.5,281C 389.144,282.441 394.811,283.774 400.5,285C 402.196,286.176 403.862,287.343 405.5,288.5C 410.706,297.118 418.373,302.284 428.5,304C 432.721,307.605 435.554,312.105 437,317.5C 443.236,321.067 448.903,325.4 454,330.5C 455.651,334.745 456.984,339.079 458,343.5C 462.719,347.553 466.719,352.219 470,357.5C 470.333,362.167 470.667,366.833 471,371.5C 473.667,375.5 476.333,379.5 479,383.5C 479.673,388.776 479.173,393.942 477.5,399C 478.487,408.747 481.321,409.58 486,401.5C 486.667,399.5 487.333,397.5 488,395.5C 488.333,387.833 488.667,380.167 489,372.5C 491.064,368.039 493.398,363.706 496,359.5C 498.227,353.672 498.893,347.672 498,341.5C 497.007,337.687 496.173,333.854 495.5,330C 496.664,323.678 498.331,317.511 500.5,311.5C 500.666,306.489 500.499,301.489 500,296.5C 495.689,289.857 496.189,283.524 501.5,277.5C 506.163,274.334 510.329,270.667 514,266.5C 515.196,260.581 515.862,254.581 516,248.5C 519.824,244.186 523.157,239.519 526,234.5C 526.667,231.833 526.667,229.167 526,226.5C 524.725,223.787 523.891,220.953 523.5,218C 524.887,213.718 526.72,209.551 529,205.5C 530.574,198.315 528.908,191.982 524,186.5C 524.333,179.833 524.667,173.167 525,166.5C 524.439,164.275 523.439,162.275 522,160.5C 519.294,158.129 516.961,155.463 515,152.5C 515.36,145.431 514.027,138.765 511,132.5C 506.667,128.833 502.333,125.167 498,121.5C 497.294,112.245 493.127,105.079 485.5,100C 481.221,98.5272 477.221,96.5272 473.5,94C 470.749,89.1635 467.749,84.4968 464.5,80C 457.556,76.0948 450.223,73.0948 442.5,71C 438.657,67.3241 434.991,63.4908 431.5,59.5C 444.559,59.9113 456.559,64.078 467.5,72C 471.785,78.5542 476.785,84.5542 482.5,90C 490.582,95.4111 498.082,101.578 505,108.5C 507.956,115.377 511.289,122.044 515,128.5C 522.705,136.537 530.039,144.87 537,153.5C 538.682,160.879 541.348,167.879 545,174.5C 551.169,183.5 556.836,192.834 562,202.5C 563.667,208.5 565.333,214.5 567,220.5C 572.272,230.711 577.272,241.044 582,251.5C 582.333,256.5 582.667,261.5 583,266.5C 586.263,278.289 589.93,289.956 594,301.5C 593.578,318.844 593.912,336.177 595,353.5C 593.066,357.759 590.732,361.759 588,365.5C 585.76,374.81 582.76,383.81 579,392.5C 575.851,393.996 572.684,395.496 569.5,397C 561.455,404.047 553.122,410.713 544.5,417C 542.084,418.063 539.584,418.896 537,419.5C 532.225,417.15 527.392,416.983 522.5,419C 513.398,424.436 504.065,429.436 494.5,434C 492.167,434.667 489.833,434.667 487.5,434C 484.63,431.628 482.297,428.795 480.5,425.5C 479.031,427.192 478.365,429.192 478.5,431.5C 480.137,436.73 480.637,442.064 480,447.5C 477.761,452.077 475.095,456.411 472,460.5C 471.667,465.167 471.333,469.833 471,474.5C 470.333,475.833 469.667,477.167 469,478.5C 465.248,482.184 461.581,485.85 458,489.5C 457.452,500.39 451.952,507.557 441.5,511C 438.129,514.236 435.629,518.069 434,522.5C 432.167,524.333 430.333,526.167 428.5,528C 423.768,529.466 419.102,531.133 414.5,533C 410.446,537.054 406.446,541.054 402.5,545C 396.283,546.84 389.95,548.173 383.5,549C 379.016,553.078 374.016,556.411 368.5,559C 362.167,559.333 355.833,559.667 349.5,560C 345.359,562.489 341.025,564.489 336.5,566C 327.83,566.095 319.163,566.095 310.5,566C 301.821,570.664 293.154,570.664 284.5,566C 275.505,566.133 266.505,566.133 257.5,566C 253.359,563.511 249.025,561.511 244.5,560C 232.398,561.733 222.065,558.399 213.5,550C 208.572,548.678 203.572,547.678 198.5,547C 191.691,544.528 186.357,540.195 182.5,534C 176.729,531.949 171.063,529.616 165.5,527C 161.792,523.09 158.958,518.59 157,513.5C 151.728,510.559 146.728,507.226 142,503.5C 139.587,498.801 137.921,493.801 137,488.5C 133.965,485.13 130.632,482.13 127,479.5C 123.973,473.235 122.64,466.569 123,459.5C 119.905,455.411 117.239,451.077 115,446.5C 114.94,441.559 115.773,436.726 117.5,432C 117.167,431.167 116.833,430.333 116.5,429.5C 113.727,434.03 109.727,435.53 104.5,434C 95.8532,429.367 87.1865,424.7 78.5,420C 72.9034,416.954 67.2367,416.788 61.5,419.5C 59.0583,418.964 56.7249,418.131 54.5,417C 46.7992,411.478 39.4658,405.478 32.5,399C 27.7141,396.529 23.2141,393.696 19,390.5C 15.9128,383.065 13.5795,375.399 12,367.5C 10.185,363.204 7.85168,359.204 5,355.5C 5.2012,339.82 5.03453,324.154 4.5,308.5C 5.01218,304.106 5.84551,299.772 7,295.5C 13.018,281.763 16.3513,267.43 17,252.5C 20.8654,242.436 25.532,232.77 31,223.5C 33.1393,214.996 35.806,206.663 39,198.5C 44.6667,189.5 50.3333,180.5 56,171.5C 58.7914,164.525 61.4581,157.525 64,150.5C 71,142.833 78,135.167 85,127.5C 88.291,120.286 91.9577,113.286 96,106.5C 103.546,99.9522 111.379,93.7855 119.5,88C 123.689,81.9651 128.356,76.2985 133.5,71C 143.665,64.5571 154.665,60.3904 166.5,58.5 Z"/></g>
<g><path style="opacity:1" fill="#513f2f" d="M 459.5,261.5 C 457.812,266.982 454.145,268.815 448.5,267C 437.663,260.414 426.663,254.081 415.5,248C 414.563,247.308 413.897,247.475 413.5,248.5C 400.432,241.142 386.432,236.142 371.5,233.5C 356.998,231.018 342.331,228.851 327.5,227C 319.628,219.09 318.462,210.257 324,200.5C 333.085,190.764 344.252,187.264 357.5,190C 397.878,197.094 430.712,216.594 456,248.5C 458.863,252.38 460.03,256.713 459.5,261.5 Z"/></g>
<g><path style="opacity:1" fill="#513f2f" d="M 228.5,234.5 C 213.923,235.978 199.923,239.644 186.5,245.5C 172.358,251.154 158.524,257.488 145,264.5C 143.373,264.375 141.873,263.875 140.5,263C 136.47,257.147 136.636,251.314 141,245.5C 156.626,227.881 175.126,214.047 196.5,204C 216.489,194.613 237.489,190.946 259.5,193C 274.365,196.903 280.531,206.403 278,221.5C 275.954,228.883 271.12,232.383 263.5,232C 251.614,232.002 239.948,232.835 228.5,234.5 Z"/></g>
<g><path style="opacity:1" fill="#2d2624" d="M 371.5,233.5 C 386.432,236.142 400.432,241.142 413.5,248.5C 419.563,263.633 416.897,276.967 405.5,288.5C 403.862,287.343 402.196,286.176 400.5,285C 394.811,283.774 389.144,282.441 383.5,281C 379.341,277.753 375.008,274.753 370.5,272C 364.593,270.639 358.593,270.139 352.5,270.5C 352.737,269.209 352.404,268.209 351.5,267.5C 350.467,251.557 357.134,240.224 371.5,233.5 Z"/></g>
<g><path style="opacity:1" fill="#2d2624" d="M 228.5,234.5 C 239.163,239.498 245.163,247.831 246.5,259.5C 246.789,263.106 246.456,266.606 245.5,270C 239.5,270.333 233.5,270.667 227.5,271C 221.705,273.126 216.705,276.46 212.5,281C 204.893,281.902 197.56,283.735 190.5,286.5C 180.702,273.6 179.369,259.933 186.5,245.5C 199.923,239.644 213.923,235.978 228.5,234.5 Z"/></g>
<g><path style="opacity:1" fill="#e8e8e8" d="M 220.5,242.5 C 229.161,241.329 232.994,244.996 232,253.5C 226.951,260.154 221.951,260.154 217,253.5C 215.882,249.077 217.049,245.41 220.5,242.5 Z"/></g>
<g><path style="opacity:1" fill="#e8e8e8" d="M 390.5,242.5 C 399.161,241.329 402.994,244.996 402,253.5C 396.951,260.154 391.951,260.154 387,253.5C 385.882,249.077 387.049,245.41 390.5,242.5 Z"/></g>
<g><path style="opacity:1" fill="#674f3a" d="M 459.5,261.5 C 459.351,262.552 459.517,263.552 460,264.5C 471.71,277.875 483.044,291.542 494,305.5C 496.083,307.756 498.25,309.756 500.5,311.5C 498.331,317.511 496.664,323.678 495.5,330C 496.173,333.854 497.007,337.687 498,341.5C 498.893,347.672 498.227,353.672 496,359.5C 493.398,363.706 491.064,368.039 489,372.5C 488.667,380.167 488.333,387.833 488,395.5C 487.333,397.5 486.667,399.5 486,401.5C 481.321,409.58 478.487,408.747 477.5,399C 479.173,393.942 479.673,388.776 479,383.5C 476.333,379.5 473.667,375.5 471,371.5C 470.667,366.833 470.333,362.167 470,357.5C 466.719,352.219 462.719,347.553 458,343.5C 456.984,339.079 455.651,334.745 454,330.5C 448.903,325.4 443.236,321.067 437,317.5C 435.554,312.105 432.721,307.605 428.5,304C 418.373,302.284 410.706,297.118 405.5,288.5C 416.897,276.967 419.563,263.633 413.5,248.5C 413.897,247.475 414.563,247.308 415.5,248C 426.663,254.081 437.663,260.414 448.5,267C 454.145,268.815 457.812,266.982 459.5,261.5 Z"/></g>
<g><path style="opacity:1" fill="#302826" d="M 277.5,322.5 C 290.837,322.333 304.171,322.5 317.5,323C 328.064,324.387 337.731,328.054 346.5,334C 355.893,342.521 359.06,353.021 356,365.5C 351.514,380.657 342.014,391.49 327.5,398C 318.958,401.848 310.124,404.681 301,406.5C 300.333,412.5 300.333,418.5 301,424.5C 301.516,427.034 302.683,429.2 304.5,431C 315.434,432.994 326.434,434.661 337.5,436C 340.196,436.765 342.696,437.932 345,439.5C 345.729,443.333 344.063,444.999 340,444.5C 325.445,441.754 310.778,439.754 296,438.5C 282.54,440.031 269.207,442.364 256,445.5C 251.314,445.87 249.314,443.87 250,439.5C 251.419,438.54 252.919,437.707 254.5,437C 266.16,435.074 277.826,433.074 289.5,431C 291.317,429.2 292.484,427.034 293,424.5C 293.667,418.5 293.667,412.5 293,406.5C 278.223,403.694 265.057,397.527 253.5,388C 237.98,373.503 235.146,357.003 245,338.5C 249.274,334.226 254.107,330.726 259.5,328C 265.648,326.225 271.648,324.392 277.5,322.5 Z"/></g>
</svg>
