<?xml version="1.0" encoding="UTF-8"?>
<!DOCTYPE svg PUBLIC "-//W3C//DTD SVG 1.1//EN" "http://www.w3.org/Graphics/SVG/1.1/DTD/svg11.dtd">
<svg xmlns="http://www.w3.org/2000/svg" version="1.1" width="600px" height="600px" style="shape-rendering:geometricPrecision; text-rendering:geometricPrecision; image-rendering:optimizeQuality; fill-rule:evenodd; clip-rule:evenodd" xmlns:xlink="http://www.w3.org/1999/xlink">
<g><path style="opacity:0.944" fill="#010000" d="M 237.5,-0.5 C 241.833,-0.5 246.167,-0.5 250.5,-0.5C 267.547,5.17798 276.714,17.178 278,35.5C 279.184,43.7918 279.684,52.1251 279.5,60.5C 293.167,60.5 306.833,60.5 320.5,60.5C 319.638,43.9783 322.804,28.3116 330,13.5C 335.367,6.42085 342.201,1.75419 350.5,-0.5C 354.833,-0.5 359.167,-0.5 363.5,-0.5C 415.495,8.77706 464.828,25.9437 511.5,51C 519.973,56.1038 524.807,63.6038 526,73.5C 526.839,92.3118 524.173,110.645 518,128.5C 511.788,148.47 504.788,168.137 497,187.5C 493.023,199.407 489.357,211.407 486,223.5C 481.699,259.874 477.032,296.208 472,332.5C 468.779,354.606 464.279,376.439 458.5,398C 465.574,413.797 470.074,430.297 472,447.5C 472.536,457.081 471.203,466.415 468,475.5C 465.785,480.1 462.952,484.266 459.5,488C 455.777,490.066 451.943,490.566 448,489.5C 447.515,495.258 446.515,500.925 445,506.5C 434.401,524.106 421.234,539.606 405.5,553C 399.178,557.582 392.512,559.249 385.5,558C 376.202,566.989 365.536,573.989 353.5,579C 342.167,583.333 330.833,587.667 319.5,592C 315.561,593.791 312.228,596.291 309.5,599.5C 303.167,599.5 296.833,599.5 290.5,599.5C 287.236,595.753 283.236,592.92 278.5,591C 259.053,584.969 240.72,576.636 223.5,566C 219.964,562.799 216.797,559.299 214,555.5C 211.083,557.393 207.916,557.893 204.5,557C 200.204,555.185 196.204,552.852 192.5,550C 177.823,537.097 165.656,522.264 156,505.5C 154.677,499.893 153.677,494.226 153,488.5C 148.152,489.833 143.652,488.999 139.5,486C 133.433,479.362 129.933,471.529 129,462.5C 128.101,439.425 132.601,417.425 142.5,396.5C 137.501,376.003 133.334,355.336 130,334.5C 124.146,296.565 118.813,258.565 114,220.5C 105.327,192.148 95.6604,164.148 85,136.5C 79.9155,121.162 76.2488,105.495 74,89.5C 72.7912,78.5439 74.7912,68.2105 80,58.5C 85.217,53.4744 91.0504,49.3078 97.5,46C 141.978,23.5627 188.645,8.06269 237.5,-0.5 Z"/></g>
<g><path style="opacity:1" fill="#84562a" d="M 254.5,13.5 C 230.959,37.5666 215.459,66.2332 208,99.5C 204.761,117.079 202.094,134.746 200,152.5C 199.443,158.15 196.61,161.983 191.5,164C 178.952,163.945 167.286,160.611 156.5,154C 130.473,137.308 109.973,115.475 95,88.5C 90.309,79.7913 89.4757,70.7913 92.5,61.5C 131.011,39.5917 172.011,23.7584 215.5,14C 227.343,11.0219 239.343,10.0219 251.5,11C 252.942,11.3768 253.942,12.2101 254.5,13.5 Z"/></g>
<g><path style="opacity:1" fill="#84562a" d="M 509.5,63.5 C 511.155,71.0884 510.321,78.4218 507,85.5C 491.267,116.131 468.434,139.964 438.5,157C 429.363,161.701 419.696,164.035 409.5,164C 406.087,162.923 403.587,160.756 402,157.5C 399.001,138.512 396.001,119.512 393,100.5C 385.439,66.6918 369.606,37.6918 345.5,13.5C 346.058,12.2101 347.058,11.3768 348.5,11C 354.833,10.3333 361.167,10.3333 367.5,11C 413.715,19.4053 457.715,34.4053 499.5,56C 503.3,57.9789 506.634,60.4789 509.5,63.5 Z"/></g>
<g><path style="opacity:1" fill="#d38645" d="M 254.5,13.5 C 260.841,17.3623 264.674,23.0289 266,30.5C 267.997,43.4111 268.997,56.4111 269,69.5C 269.758,71.9096 271.425,72.9096 274,72.5C 292.507,71.3858 311.007,71.2192 329.5,72C 330.126,71.2496 330.626,70.4162 331,69.5C 330.975,55.6854 332.308,42.0188 335,28.5C 336.555,22.0281 340.055,17.0281 345.5,13.5C 369.606,37.6918 385.439,66.6918 393,100.5C 396.001,119.512 399.001,138.512 402,157.5C 403.587,160.756 406.087,162.923 409.5,164C 419.696,164.035 429.363,161.701 438.5,157C 468.434,139.964 491.267,116.131 507,85.5C 510.321,78.4218 511.155,71.0884 509.5,63.5C 512.537,66.0601 514.371,69.3935 515,73.5C 516.038,90.94 513.705,107.94 508,124.5C 501.788,144.47 494.788,164.137 487,183.5C 482.595,196.714 478.595,210.047 475,223.5C 470.699,259.874 466.032,296.208 461,332.5C 457.835,354.491 453.335,376.158 447.5,397.5C 426.913,358.413 396.913,328.913 357.5,309C 299.569,286.036 246.569,295.703 198.5,338C 180.179,355.466 165.179,375.299 153.5,397.5C 147.823,375.78 143.323,353.78 140,331.5C 134.484,294.582 129.484,257.582 125,220.5C 116.195,190.753 106.195,161.419 95,132.5C 88.3112,114.393 84.9779,95.7266 85,76.5C 85.4105,70.3453 87.9105,65.3453 92.5,61.5C 89.4757,70.7913 90.309,79.7913 95,88.5C 109.973,115.475 130.473,137.308 156.5,154C 167.286,160.611 178.952,163.945 191.5,164C 196.61,161.983 199.443,158.15 200,152.5C 202.094,134.746 204.761,117.079 208,99.5C 215.459,66.2332 230.959,37.5666 254.5,13.5 Z"/></g>
<g><path style="opacity:1" fill="#342b28" d="M 374.5,206.5 C 392.092,207.093 402.092,216.093 404.5,233.5C 401.31,251.534 390.643,260.034 372.5,259C 352.484,251.463 346.984,237.963 356,218.5C 360.652,212.095 366.818,208.095 374.5,206.5 Z"/></g>
<g><path style="opacity:1" fill="#362e2a" d="M 245.5,247.5 C 242.5,249.833 239.833,252.5 237.5,255.5C 215.305,263.734 201.639,256.234 196.5,233C 199.137,215.689 209.137,207.022 226.5,207C 242.97,211.132 250.47,221.632 249,238.5C 247.82,241.521 246.654,244.521 245.5,247.5 Z"/></g>
<g><path style="opacity:1" fill="#f2f2f2" d="M 229.5,220.5 C 236.225,220.204 237.891,222.871 234.5,228.5C 230.608,230.051 228.274,228.718 227.5,224.5C 227.752,222.927 228.418,221.594 229.5,220.5 Z"/></g>
<g><path style="opacity:1" fill="#f1f0f0" d="M 385.5,220.5 C 391.487,219.977 393.487,222.477 391.5,228C 387.301,230.401 384.634,229.234 383.5,224.5C 383.752,222.927 384.418,221.594 385.5,220.5 Z"/></g>
<g><path style="opacity:1" fill="#9c663b" d="M 245.5,247.5 C 243.833,251.167 241.167,253.833 237.5,255.5C 239.833,252.5 242.5,249.833 245.5,247.5 Z"/></g>
<g><path style="opacity:1" fill="#b76934" d="M 447.5,397.5 C 453.501,411.338 458.001,425.672 461,440.5C 462.517,452.202 461.184,463.536 457,474.5C 452.858,481.09 448.524,481.09 444,474.5C 442.279,469.974 440.112,465.64 437.5,461.5C 436.726,460.289 435.893,460.289 435,461.5C 435.875,473.469 436.208,485.469 436,497.5C 435.71,499.952 435.044,502.285 434,504.5C 426.01,517.165 416.51,528.665 405.5,539C 402.113,542.053 398.447,544.72 394.5,547C 393.056,547.781 391.723,547.614 390.5,546.5C 389.064,540.824 387.564,535.157 386,529.5C 385.577,528.044 384.744,527.544 383.5,528C 381.723,535.147 379.889,542.313 378,549.5C 376.207,552.295 374.04,554.795 371.5,557C 364.989,561.759 357.989,565.759 350.5,569C 337.007,573.942 323.674,579.275 310.5,585C 306.569,587.132 303.236,589.965 300.5,593.5C 297.646,590.812 294.646,588.312 291.5,586C 276.994,579.609 262.328,573.609 247.5,568C 237.56,564.044 229.393,557.877 223,549.5C 221.075,542.35 219.241,535.183 217.5,528C 216.216,527.316 215.049,527.483 214,528.5C 212.667,533.828 211.334,539.162 210,544.5C 209.632,545.91 208.799,546.91 207.5,547.5C 190.736,535.235 176.903,520.235 166,502.5C 164.791,488.54 164.291,474.54 164.5,460.5C 160.928,464.631 158.094,469.298 156,474.5C 152.324,480.599 148.324,480.932 144,475.5C 138.991,465.725 137.325,455.392 139,444.5C 141.319,428.045 146.152,412.378 153.5,397.5C 165.179,375.299 180.179,355.466 198.5,338C 246.569,295.703 299.569,286.036 357.5,309C 396.913,328.913 426.913,358.413 447.5,397.5 Z"/></g>
<g><path style="opacity:1" fill="#372f2c" d="M 289.5,397.5 C 301.037,396.81 312.37,397.976 323.5,401C 334.545,405.067 339.878,413.067 339.5,425C 337.255,440.927 328.588,451.927 313.5,458C 300.172,462.872 287.839,460.872 276.5,452C 271.577,447.415 267.077,442.582 263,437.5C 256.542,414.089 265.376,400.756 289.5,397.5 Z"/></g>
<g><path style="opacity:1" fill="#352c29" d="M 253.5,474.5 C 284.283,483.736 315.116,483.736 346,474.5C 351.788,476.559 352.621,479.725 348.5,484C 339.217,487.857 329.55,490.191 319.5,491C 301.022,492.311 282.688,491.311 264.5,488C 259.99,486.997 255.657,485.497 251.5,483.5C 248.837,479.812 249.504,476.812 253.5,474.5 Z"/></g>
</svg>
