<?xml version="1.0" encoding="UTF-8"?>
<!DOCTYPE svg PUBLIC "-//W3C//DTD SVG 1.1//EN" "http://www.w3.org/Graphics/SVG/1.1/DTD/svg11.dtd">
<svg xmlns="http://www.w3.org/2000/svg" version="1.1" width="600px" height="600px" style="shape-rendering:geometricPrecision; text-rendering:geometricPrecision; image-rendering:optimizeQuality; fill-rule:evenodd; clip-rule:evenodd" xmlns:xlink="http://www.w3.org/1999/xlink">
<g><path style="opacity:0.955" fill="#000000" d="M 599.5,305.5 C 599.5,318.167 599.5,330.833 599.5,343.5C 595.629,345.475 591.629,346.141 587.5,345.5C 594.789,359.776 596.956,374.776 594,390.5C 588.821,411.55 583.488,432.55 578,453.5C 575.75,459.048 571.583,461.714 565.5,461.5C 567.335,467.844 566.501,473.844 563,479.5C 560.192,481.821 557.025,483.488 553.5,484.5C 556.195,496.946 559.362,509.279 563,521.5C 563.813,536.356 556.98,542.19 542.5,539C 539.827,537.999 537.493,536.499 535.5,534.5C 533.631,537.052 531.631,539.552 529.5,542C 526.55,543.65 523.383,544.483 520,544.5C 464.73,532.89 434.396,498.89 429,442.5C 424.524,458.117 422.691,473.951 423.5,490C 415.155,536.51 388.821,551.343 344.5,534.5C 314.988,546.16 285.321,546.493 255.5,535.5C 241.846,540.583 227.846,541.75 213.5,539C 197.596,534.095 187.429,523.595 183,507.5C 181.154,500.935 179.82,494.269 179,487.5C 177.996,474.799 176.662,462.132 175,449.5C 174.074,444.721 172.741,440.054 171,435.5C 168.703,453.645 164.37,471.312 158,488.5C 141.502,517.974 116.669,536.474 83.5,544C 74.3257,545.896 67.659,542.729 63.5,534.5C 54.8599,542.322 46.3599,542.322 38,534.5C 36.6212,531.485 35.7879,528.319 35.5,525C 38.9371,511.523 42.2704,498.023 45.5,484.5C 37.4914,482.99 33.1581,478.157 32.5,470C 33.3479,467.23 33.6813,464.397 33.5,461.5C 27.6812,462.015 23.5145,459.681 21,454.5C 15.1801,431.553 9.51339,408.553 4,385.5C 2.67681,371.458 5.17681,358.124 11.5,345.5C 7.37113,346.141 3.37113,345.475 -0.5,343.5C -0.5,330.833 -0.5,318.167 -0.5,305.5C 7.25752,291.222 16.0909,277.555 26,264.5C 31.3883,252.051 38.055,240.385 46,229.5C 60.5283,210.965 76.5283,193.632 94,177.5C 108.368,150.793 126.868,127.293 149.5,107C 156.827,100.999 164.827,95.9989 173.5,92C 189.631,85.287 205.965,78.9536 222.5,73C 272.739,59.4406 323.073,59.1073 373.5,72C 386.852,75.7817 399.519,81.1151 411.5,88C 425.82,91.1599 438.486,97.4932 449.5,107C 461.01,117.844 471.843,129.344 482,141.5C 489.667,153.5 497.333,165.5 505,177.5C 526.235,197.389 545.235,219.056 562,242.5C 569.311,259.134 578.645,274.467 590,288.5C 593.194,294.229 596.361,299.896 599.5,305.5 Z"/></g>
<g><path style="opacity:1" fill="#3e332d" d="M 409.5,99.5 C 408.104,103.036 408.604,106.37 411,109.5C 415.679,113.18 419.679,117.514 423,122.5C 440.131,148.227 449.464,176.56 451,207.5C 451.667,230.833 451.667,254.167 451,277.5C 447.523,317.958 443.356,358.291 438.5,398.5C 423.04,421.216 414.373,446.216 412.5,473.5C 413.732,442.703 405.566,414.703 388,389.5C 370.864,369.905 356.197,348.572 344,325.5C 337.432,310.796 333.099,295.463 331,279.5C 329.341,236.602 325.341,193.935 319,151.5C 317.171,140 313.004,129.5 306.5,120C 303.88,117.729 300.88,117.062 297.5,118C 292.057,122.881 288.39,128.881 286.5,136C 282.208,152.919 279.375,170.085 278,187.5C 275.635,219.143 273.635,250.81 272,282.5C 268.174,305.142 260.174,326.142 248,345.5C 237.151,360.528 225.817,375.195 214,389.5C 196.812,412.565 188.312,438.565 188.5,467.5C 187.414,454.585 184.581,441.918 180,429.5C 174.012,416.855 167.512,404.522 160.5,392.5C 155.085,354.736 150.918,316.736 148,278.5C 147.333,254.5 147.333,230.5 148,206.5C 149.898,172.802 160.898,142.469 181,115.5C 185.373,112.143 188.54,107.976 190.5,103C 190.613,101.301 189.947,100.134 188.5,99.5C 201.681,90.93 216.015,84.7633 231.5,81C 275.411,71.3645 319.411,71.0312 363.5,80C 379.983,84.0829 395.317,90.5829 409.5,99.5 Z"/></g>
<g><path style="opacity:1" fill="#2a211b" d="M 188.5,99.5 C 189.947,100.134 190.613,101.301 190.5,103C 188.54,107.976 185.373,112.143 181,115.5C 160.898,142.469 149.898,172.802 148,206.5C 147.333,230.5 147.333,254.5 148,278.5C 150.918,316.736 155.085,354.736 160.5,392.5C 162.755,423.113 158.922,453.113 149,482.5C 143.162,495.681 134.329,506.515 122.5,515C 108.746,525.212 93.4122,531.546 76.5,534C 76,533.5 75.5,533 75,532.5C 74.6667,527.833 74.3333,523.167 74,518.5C 71.0751,517.677 68.2417,518.177 65.5,520C 61.2171,522.615 57.2171,525.615 53.5,529C 51.1047,531.145 48.938,530.978 47,528.5C 46.3333,525.5 46.3333,522.5 47,519.5C 49.9832,509.566 52.6499,499.566 55,489.5C 56.8768,481.247 57.5435,472.914 57,464.5C 56.5756,462.385 55.4089,461.552 53.5,462C 50.3007,465.566 47.4674,469.4 45,473.5C 44.6667,473.167 44.3333,472.833 44,472.5C 44.238,464.512 44.738,456.512 45.5,448.5C 45.4765,445.579 45.1432,442.746 44.5,440C 43.5,439.333 42.5,439.333 41.5,440C 38.3333,443.833 35.1667,447.667 32,451.5C 25.8796,430.021 20.2129,408.355 15,386.5C 14.3333,380.167 14.3333,373.833 15,367.5C 17.5369,357.89 20.8702,348.556 25,339.5C 25.8214,336.446 25.6548,333.446 24.5,330.5C 18.7307,329.247 13.3973,330.414 8.5,334C 6.86586,334.494 5.19919,334.66 3.5,334.5C 4.06868,322.292 7.56868,310.959 14,300.5C 21.2753,288.893 28.9419,277.56 37,266.5C 42.0401,254.146 48.7068,242.813 57,232.5C 70.6228,215.877 85.2894,200.21 101,185.5C 108.25,174.669 115.25,163.669 122,152.5C 134.126,135.374 148.626,120.54 165.5,108C 172.369,102.894 180.035,100.061 188.5,99.5 Z"/></g>
<g><path style="opacity:1" fill="#2a211b" d="M 409.5,99.5 C 414.034,99.267 418.368,100.1 422.5,102C 432.89,107.194 442.223,113.861 450.5,122C 457.333,129.5 464.167,137 471,144.5C 480.165,157.492 488.831,170.826 497,184.5C 515.846,201.67 532.846,220.337 548,240.5C 554.035,250.579 559.702,260.913 565,271.5C 576.015,284.866 585.015,299.533 592,315.5C 594.61,321.262 595.61,327.262 595,333.5C 594.275,334.059 593.442,334.392 592.5,334.5C 588.838,333.003 585.172,331.503 581.5,330C 578.901,329.231 576.401,329.398 574,330.5C 573.93,339.729 576.263,348.396 581,356.5C 585.554,371.127 585.554,385.794 581,400.5C 576.162,417.525 571.495,434.525 567,451.5C 563.833,447.667 560.667,443.833 557.5,440C 556.216,439.316 555.049,439.483 554,440.5C 553.592,451.214 553.925,461.881 555,472.5C 553.853,473.458 552.853,473.125 552,471.5C 550.224,468.059 548.057,464.892 545.5,462C 544.004,461.493 542.837,461.993 542,463.5C 542.362,482.981 545.695,501.981 552,520.5C 553.004,523.993 552.504,527.159 550.5,530C 548.711,530.52 547.044,530.187 545.5,529C 540.12,523.963 533.953,520.13 527,517.5C 526.228,517.645 525.561,517.978 525,518.5C 524.667,523.167 524.333,527.833 524,532.5C 521.847,534.444 519.347,534.944 516.5,534C 489.799,526.913 468.633,512.08 453,489.5C 445.16,471.303 440.493,452.303 439,432.5C 438.69,420.979 438.523,409.646 438.5,398.5C 443.356,358.291 447.523,317.958 451,277.5C 451.667,254.167 451.667,230.833 451,207.5C 449.464,176.56 440.131,148.227 423,122.5C 419.679,117.514 415.679,113.18 411,109.5C 408.604,106.37 408.104,103.036 409.5,99.5 Z"/></g>
<g><path style="opacity:1" fill="#4e423e" d="M 412.5,473.5 C 413.64,488.334 410.806,502.334 404,515.5C 396.587,526.373 386.253,531.373 373,530.5C 369.833,530.333 366.667,530.167 363.5,530C 356.968,528.323 350.634,526.156 344.5,523.5C 335.066,516.606 325.066,510.44 314.5,505C 308.35,503.754 302.183,502.588 296,501.5C 290.558,502.97 285.391,505.136 280.5,508C 272.103,513.192 263.769,518.358 255.5,523.5C 242.858,530.218 229.525,532.051 215.5,529C 205.026,525.193 197.859,518.026 194,507.5C 190.045,494.484 188.212,481.15 188.5,467.5C 188.312,438.565 196.812,412.565 214,389.5C 225.817,375.195 237.151,360.528 248,345.5C 260.174,326.142 268.174,305.142 272,282.5C 273.635,250.81 275.635,219.143 278,187.5C 279.375,170.085 282.208,152.919 286.5,136C 288.39,128.881 292.057,122.881 297.5,118C 300.88,117.062 303.88,117.729 306.5,120C 313.004,129.5 317.171,140 319,151.5C 325.341,193.935 329.341,236.602 331,279.5C 333.099,295.463 337.432,310.796 344,325.5C 356.197,348.572 370.864,369.905 388,389.5C 405.566,414.703 413.732,442.703 412.5,473.5 Z"/></g>
<g><path style="opacity:1" fill="#6c5248" d="M 214.5,206.5 C 243.16,205.992 256.66,219.992 255,248.5C 248.357,268.576 234.524,277.076 213.5,274C 194.257,267.36 185.757,253.86 188,233.5C 191.682,219.319 200.515,210.319 214.5,206.5 Z"/></g>
<g><path style="opacity:1" fill="#6c5248" d="M 372.5,206.5 C 401.181,206.012 414.681,220.012 413,248.5C 403.065,273.879 385.898,280.379 361.5,268C 345.924,255.456 342.924,240.456 352.5,223C 351.833,222.667 351.167,222.333 350.5,222C 356.07,214.253 363.403,209.086 372.5,206.5 Z"/></g>
<g><path style="opacity:1" fill="#010101" d="M 219.5,217.5 C 234.614,217.952 242.947,225.618 244.5,240.5C 241.802,259.347 231.136,266.514 212.5,262C 203.117,257.08 198.451,249.247 198.5,238.5C 200.584,226.416 207.584,219.416 219.5,217.5 Z"/></g>
<g><path style="opacity:1" fill="#010101" d="M 374.5,217.5 C 397.348,218.222 405.848,229.555 400,251.5C 392.891,262.409 383.057,265.909 370.5,262C 357.09,253.955 353.59,242.789 360,228.5C 363.857,223.468 368.69,219.801 374.5,217.5 Z"/></g>
<g><path style="opacity:1" fill="#efefef" d="M 385.5,228.5 C 394.244,228.413 396.577,232.246 392.5,240C 385.388,242.554 381.888,240.054 382,232.5C 382.69,230.65 383.856,229.316 385.5,228.5 Z"/></g>
<g><path style="opacity:1" fill="#efefef" d="M 224.5,228.5 C 230.966,227.475 234.132,230.142 234,236.5C 230.819,242.252 226.819,242.919 222,238.5C 220.861,234.579 221.695,231.246 224.5,228.5 Z"/></g>
<g><path style="opacity:1" fill="#000000" d="M 296.5,410.5 C 310.88,410.117 324.547,412.951 337.5,419C 339.96,420.458 342.127,422.291 344,424.5C 346.224,430.563 348.057,436.73 349.5,443C 346.854,452.949 341.854,461.616 334.5,469C 328.325,472.588 321.991,475.922 315.5,479C 304.043,483.761 292.71,483.427 281.5,478C 269.03,474.19 259.53,466.69 253,455.5C 245.565,432.869 253.398,418.702 276.5,413C 283.308,412.117 289.975,411.283 296.5,410.5 Z"/></g>
<g><path style="opacity:1" fill="#403531" d="M 224.5,412.5 C 229.813,412.644 231.979,415.31 231,420.5C 227.716,427.429 223.716,433.762 219,439.5C 216.575,438.739 215.242,437.072 215,434.5C 214.58,425.667 217.747,418.334 224.5,412.5 Z"/></g>
<g><path style="opacity:1" fill="#2b221b" d="M 344.5,523.5 C 321.857,533.183 298.523,535.349 274.5,530C 267.973,528.288 261.64,526.121 255.5,523.5C 263.769,518.358 272.103,513.192 280.5,508C 285.391,505.136 290.558,502.97 296,501.5C 302.183,502.588 308.35,503.754 314.5,505C 325.066,510.44 335.066,516.606 344.5,523.5 Z"/></g>
</svg>
