<?xml version="1.0" encoding="UTF-8"?>
<!DOCTYPE svg PUBLIC "-//W3C//DTD SVG 1.1//EN" "http://www.w3.org/Graphics/SVG/1.1/DTD/svg11.dtd">
<svg xmlns="http://www.w3.org/2000/svg" version="1.1" width="600px" height="600px" style="shape-rendering:geometricPrecision; text-rendering:geometricPrecision; image-rendering:optimizeQuality; fill-rule:evenodd; clip-rule:evenodd" xmlns:xlink="http://www.w3.org/1999/xlink">
<g><path style="opacity:0.952" fill="#020101" d="M 599.5,340.5 C 599.5,356.833 599.5,373.167 599.5,389.5C 594.733,401.181 587.399,411.015 577.5,419C 550.981,436.964 521.648,444.631 489.5,442C 482.067,441.204 474.734,440.204 467.5,439C 464.809,445.029 460.309,448.862 454,450.5C 451.461,459.723 446.295,467.223 438.5,473C 404.161,500.784 364.828,515.784 320.5,518C 298.388,519.258 276.388,518.258 254.5,515C 250.549,514.464 247.049,512.964 244,510.5C 242.769,511.108 241.436,511.441 240,511.5C 206.255,504.378 177.255,488.712 153,464.5C 149.607,460.381 147.274,455.714 146,450.5C 143.26,449.856 140.76,448.689 138.5,447C 136.5,444 134.5,441 132.5,438C 96.2459,446.897 61.5793,442.564 28.5,425C 20.3985,419.897 13.2319,413.73 7,406.5C 4.24109,402.593 1.74109,398.593 -0.5,394.5C -0.5,374.833 -0.5,355.167 -0.5,335.5C 5.63701,323.174 12.4703,311.174 20,299.5C 24.4089,285.272 29.4089,271.272 35,257.5C 43.2905,246.874 51.9572,236.541 61,226.5C 66.4883,214.19 72.4883,202.19 79,190.5C 84.5,182.333 91.3333,175.5 99.5,170C 115.99,159.663 132.324,149.163 148.5,138.5C 143.304,130.398 144.637,123.231 152.5,117C 157.804,113.85 163.471,111.517 169.5,110C 178.717,107.69 188.051,106.023 197.5,105C 196.364,95.9726 200.364,90.6392 209.5,89C 221.626,90.3666 233.626,92.3666 245.5,95C 244.654,91.2126 245.487,87.7126 248,84.5C 251.165,82.3319 254.665,80.9985 258.5,80.5C 272.776,82.5913 286.109,87.2579 298.5,94.5C 311.038,87.1536 324.538,82.4869 339,80.5C 348.265,81.2625 352.765,86.2625 352.5,95.5C 360.486,93.6705 368.486,91.8371 376.5,90C 384.002,87.4346 390.836,88.6012 397,93.5C 399.147,97.3811 399.647,101.381 398.5,105.5C 415.181,106.086 430.848,110.253 445.5,118C 452.973,124.189 453.973,131.189 448.5,139C 448.759,140.261 449.426,141.261 450.5,142C 459.167,146.667 467.833,151.333 476.5,156C 484.156,161.83 492.156,167.163 500.5,172C 509.997,179.175 517.497,188.008 523,198.5C 527,207.167 531,215.833 535,224.5C 545.046,236.211 554.713,248.211 564,260.5C 568.307,272.392 572.307,284.392 576,296.5C 584.655,310.815 592.489,325.482 599.5,340.5 Z"/></g>
<g><path style="opacity:1" fill="#d0a267" d="M 338.5,103.5 C 336.801,103.34 335.134,103.506 333.5,104C 335.384,104.216 337.051,104.883 338.5,106C 341.039,106.796 343.372,106.629 345.5,105.5C 347.734,105.38 349.901,105.713 352,106.5C 360.427,103.958 368.927,101.792 377.5,100C 381.211,99.1747 384.878,99.3414 388.5,100.5C 385.742,103.718 382.409,106.218 378.5,108C 376.384,109.171 375.718,110.671 376.5,112.5C 392.892,114.491 409.225,116.991 425.5,120C 429.581,121.471 433.581,123.138 437.5,125C 439.227,126.389 440.561,128.056 441.5,130C 439.385,133.118 436.885,135.952 434,138.5C 433.219,139.944 433.386,141.277 434.5,142.5C 443.328,150.421 453.328,156.588 464.5,161C 470.321,164.663 475.988,168.497 481.5,172.5C 482.738,174.619 484.238,176.619 486,178.5C 487.128,180.345 487.628,182.345 487.5,184.5C 483.181,183.751 478.848,183.585 474.5,184C 473.572,184.388 472.905,185.055 472.5,186C 478.136,197.439 483.636,208.939 489,220.5C 491.602,226.639 493.602,232.972 495,239.5C 495.81,244.214 495.31,248.714 493.5,253C 497.741,289.889 495.575,326.389 487,362.5C 485.938,363.097 484.772,363.43 483.5,363.5C 481.079,362.928 478.746,362.428 476.5,362C 479,365.167 481.5,368.333 484,371.5C 484.667,373.167 484.667,374.833 484,376.5C 478.558,393.34 472.058,409.674 464.5,425.5C 460.843,429.597 457.51,434.097 454.5,439C 452.833,439.667 451.167,439.667 449.5,439C 447.983,437.315 446.316,435.815 444.5,434.5C 443.67,440.138 443.17,445.804 443,451.5C 437.874,458.96 431.707,465.46 424.5,471C 404.666,486.61 382.333,496.61 357.5,501C 355.623,498.749 354.123,496.249 353,493.5C 352.252,497.538 350.418,501.038 347.5,504C 316.902,509.604 286.235,509.937 255.5,505C 250.27,503.065 247.603,499.232 247.5,493.5C 245.541,495.245 244.208,497.411 243.5,500C 210.81,494.905 182.977,480.405 160,456.5C 158.561,454.725 157.561,452.725 157,450.5C 156.829,445.136 156.329,439.802 155.5,434.5C 153.684,435.815 152.017,437.315 150.5,439C 148.833,439.667 147.167,439.667 145.5,439C 142.614,434.055 139.614,429.221 136.5,424.5C 126.309,407.753 119.809,389.753 117,370.5C 119.375,368.188 120.708,365.521 121,362.5C 118.443,364.314 115.776,364.648 113,363.5C 104.275,325.805 102.442,287.805 107.5,249.5C 105.533,249.739 103.699,249.406 102,248.5C 101.906,239.865 103.573,231.531 107,223.5C 111.892,210.829 117.559,198.495 124,186.5C 124.494,184.866 124.66,183.199 124.5,181.5C 119.463,181.413 114.463,181.746 109.5,182.5C 109.4,179.892 110.067,177.558 111.5,175.5C 128.491,164.03 145.657,152.696 163,141.5C 163.52,139.711 163.187,138.044 162,136.5C 159.154,134.987 156.987,132.821 155.5,130C 157.154,127.013 159.487,124.679 162.5,123C 168.317,120.712 174.317,119.046 180.5,118C 193.875,116.215 207.209,114.215 220.5,112C 221.458,110.853 221.125,109.853 219.5,109C 215.381,106.71 211.714,103.876 208.5,100.5C 211.446,99.3452 214.446,99.1786 217.5,100C 226.821,101.942 236.154,103.775 245.5,105.5C 249.818,104.918 254.151,104.585 258.5,104.5C 257.301,100.231 256.301,95.8972 255.5,91.5C 269.582,92.2032 282.582,96.3699 294.5,104C 297.167,104.667 299.833,104.667 302.5,104C 314.41,96.3074 327.41,92.1407 341.5,91.5C 341.088,95.6536 340.088,99.6536 338.5,103.5 Z"/></g>
<g><path style="opacity:1" fill="#917047" d="M 338.5,103.5 C 340.833,104.167 343.167,104.833 345.5,105.5C 343.372,106.629 341.039,106.796 338.5,106C 337.051,104.883 335.384,104.216 333.5,104C 335.134,103.506 336.801,103.34 338.5,103.5 Z"/></g>
<g><path style="opacity:1" fill="#b78f5c" d="M 481.5,172.5 C 495.401,179.567 506.234,189.9 514,203.5C 518,212.167 522,220.833 526,229.5C 536.046,241.211 545.713,253.211 555,265.5C 559.33,278.489 563.663,291.489 568,304.5C 576.029,316.555 583.029,329.222 589,342.5C 599.569,379.863 587.069,406.363 551.5,422C 529.687,431.019 507.02,434.019 483.5,431C 476.62,430.646 470.286,428.813 464.5,425.5C 472.058,409.674 478.558,393.34 484,376.5C 484.667,374.833 484.667,373.167 484,371.5C 481.5,368.333 479,365.167 476.5,362C 478.746,362.428 481.079,362.928 483.5,363.5C 484.772,363.43 485.938,363.097 487,362.5C 495.575,326.389 497.741,289.889 493.5,253C 495.31,248.714 495.81,244.214 495,239.5C 493.602,232.972 491.602,226.639 489,220.5C 483.636,208.939 478.136,197.439 472.5,186C 472.905,185.055 473.572,184.388 474.5,184C 478.848,183.585 483.181,183.751 487.5,184.5C 487.628,182.345 487.128,180.345 486,178.5C 484.238,176.619 482.738,174.619 481.5,172.5 Z"/></g>
<g><path style="opacity:1" fill="#b78f5c" d="M 111.5,175.5 C 110.067,177.558 109.4,179.892 109.5,182.5C 114.463,181.746 119.463,181.413 124.5,181.5C 124.66,183.199 124.494,184.866 124,186.5C 117.559,198.495 111.892,210.829 107,223.5C 103.573,231.531 101.906,239.865 102,248.5C 103.699,249.406 105.533,249.739 107.5,249.5C 102.442,287.805 104.275,325.805 113,363.5C 115.776,364.648 118.443,364.314 121,362.5C 120.708,365.521 119.375,368.188 117,370.5C 119.809,389.753 126.309,407.753 136.5,424.5C 122.95,430.143 108.784,432.476 94,431.5C 64.3823,432.075 38.7156,422.409 17,402.5C 3.28292,384.149 0.282918,364.149 8,342.5C 14.8112,328.877 22.1446,315.544 30,302.5C 33.8778,288.865 38.5445,275.532 44,262.5C 53.3333,251.167 62.6667,239.833 72,228.5C 77.1078,214.948 83.7745,202.282 92,190.5C 97.7489,184.392 104.249,179.392 111.5,175.5 Z"/></g>
<g><path style="opacity:1" fill="#b78f5c" d="M 410.5,245.5 C 396.105,237.813 380.772,233.147 364.5,231.5C 356.343,230.671 348.01,230.171 339.5,230C 332.077,223.023 331.744,215.689 338.5,208C 348.078,203.176 358.078,202.176 368.5,205C 390.544,209.892 409.044,220.725 424,237.5C 426.941,241.68 427.108,245.847 424.5,250C 419.428,249.975 414.761,248.475 410.5,245.5 Z"/></g>
<g><path style="opacity:1" fill="#b78f5c" d="M 232.5,232.5 C 216.348,232.191 201.014,235.524 186.5,242.5C 182.402,244.048 178.402,245.881 174.5,248C 166.069,249.567 163.569,246.4 167,238.5C 187.235,216.307 212.401,205.141 242.5,205C 254.816,205.971 260.65,212.471 260,224.5C 259.117,227.102 257.617,229.269 255.5,231C 247.656,231.171 239.989,231.671 232.5,232.5 Z"/></g>
<g><path style="opacity:1" fill="#241916" d="M 364.5,231.5 C 380.772,233.147 396.105,237.813 410.5,245.5C 410.834,264.159 401.834,274.825 383.5,277.5C 363.34,274.488 354.84,262.821 358,242.5C 359.674,238.476 361.841,234.809 364.5,231.5 Z"/></g>
<g><path style="opacity:1" fill="#251916" d="M 232.5,232.5 C 239.878,243.472 240.378,254.806 234,266.5C 221.539,279.548 208.039,280.715 193.5,270C 186.278,262.063 183.945,252.896 186.5,242.5C 201.014,235.524 216.348,232.191 232.5,232.5 Z"/></g>
<g><path style="opacity:1" fill="#e6e6e6" d="M 225.5,243.5 C 230.136,242.812 233.136,244.645 234.5,249C 232.516,254.747 229.016,255.913 224,252.5C 222.058,249.141 222.558,246.141 225.5,243.5 Z"/></g>
<g><path style="opacity:1" fill="#ebebeb" d="M 395.5,243.5 C 403.022,243.67 405.022,247.003 401.5,253.5C 394.874,255.705 392.041,253.372 393,246.5C 394.045,245.627 394.878,244.627 395.5,243.5 Z"/></g>
<g><path style="opacity:1" fill="#b78f5c" d="M 282.5,266.5 C 321.478,263.327 357.144,272.494 389.5,294C 424.739,320.314 441.239,355.481 439,399.5C 438.065,405.471 436.232,411.137 433.5,416.5C 432.277,417.614 430.944,417.781 429.5,417C 428.287,414.674 426.954,414.341 425.5,416C 427.425,421.695 427.925,427.529 427,433.5C 413.909,455.45 395.076,469.45 370.5,475.5C 370.334,466.809 368.834,466.476 366,474.5C 362.885,476.647 360.052,479.147 357.5,482C 318.854,491.954 280.187,491.954 241.5,482C 239.152,481.654 237.319,480.487 236,478.5C 234.783,475.006 233.283,471.673 231.5,468.5C 229.771,470.851 229.104,473.518 229.5,476.5C 212.281,471.383 197.281,462.383 184.5,449.5C 180.808,444.975 177.308,440.308 174,435.5C 173.042,432.925 172.542,430.259 172.5,427.5C 173.083,423.113 173.583,418.78 174,414.5C 172.075,415.88 170.241,417.38 168.5,419C 167.551,419.617 166.718,419.451 166,418.5C 153.795,368.002 168.295,326.836 209.5,295C 231.491,279.332 255.825,269.832 282.5,266.5 Z"/></g>
<g><path style="opacity:1" fill="#010000" d="M 287.5,291.5 C 297.964,290.945 308.297,291.778 318.5,294C 332.911,300.335 336.411,310.502 329,324.5C 323.662,331.421 316.829,336.255 308.5,339C 304.411,342.333 302.411,346.666 302.5,352C 303.307,358.683 304.807,365.183 307,371.5C 309.749,374.041 313.082,375.041 317,374.5C 325.463,373.296 333.963,372.296 342.5,371.5C 345.533,371.669 348.533,372.002 351.5,372.5C 351.719,373.675 351.386,374.675 350.5,375.5C 347.252,376.645 343.919,377.479 340.5,378C 314.541,381.997 288.541,382.33 262.5,379C 256.166,378.57 250.166,377.07 244.5,374.5C 245.09,373.201 246.09,372.368 247.5,372C 249.667,371.833 251.833,371.667 254,371.5C 262.655,372.609 271.322,373.609 280,374.5C 282.755,374.475 285.422,374.141 288,373.5C 293.395,364.022 294.728,354.022 292,343.5C 291.535,342.069 290.701,340.903 289.5,340C 281.038,337.024 273.871,332.19 268,325.5C 259.685,305.804 266.185,294.47 287.5,291.5 Z"/></g>
</svg>
