<?xml version="1.0" encoding="UTF-8"?>
<!DOCTYPE svg PUBLIC "-//W3C//DTD SVG 1.1//EN" "http://www.w3.org/Graphics/SVG/1.1/DTD/svg11.dtd">
<svg xmlns="http://www.w3.org/2000/svg" version="1.1" width="600px" height="600px" style="shape-rendering:geometricPrecision; text-rendering:geometricPrecision; image-rendering:optimizeQuality; fill-rule:evenodd; clip-rule:evenodd" xmlns:xlink="http://www.w3.org/1999/xlink">
<g><path style="opacity:0.971" fill="#010101" d="M 599.5,287.5 C 599.5,295.833 599.5,304.167 599.5,312.5C 595.32,321.54 588.654,323.873 579.5,319.5C 579.469,328.436 579.302,337.436 579,346.5C 578.158,350.869 577.158,355.203 576,359.5C 565.07,381.416 553.736,403.083 542,424.5C 538.023,429.02 533.19,430.854 527.5,430C 526.873,435.546 524.873,440.546 521.5,445C 518.13,447.078 514.463,447.911 510.5,447.5C 510.667,461.171 510.5,474.837 510,488.5C 508.122,500.682 501.289,505.182 489.5,502C 485.333,499.167 481.833,495.667 479,491.5C 477.106,494.392 474.439,496.059 471,496.5C 458.659,492.49 450.659,484.156 447,471.5C 445.131,466.228 443.465,460.894 442,455.5C 434.64,462.76 426.473,468.927 417.5,474C 408.297,488.872 396.631,501.539 382.5,512C 373.023,516.17 366.523,513.337 363,503.5C 353.504,509.832 343.337,514.999 332.5,519C 321.396,522.42 310.229,525.587 299,528.5C 280.487,524.329 262.654,518.162 245.5,510C 242.073,508.204 238.906,506.037 236,503.5C 231.686,514.16 224.519,516.66 214.5,511C 200.448,499.956 188.948,486.789 180,471.5C 172.381,466.216 165.048,460.549 158,454.5C 154.66,466.343 149.827,477.51 143.5,488C 139.139,491.706 134.306,494.539 129,496.5C 125.537,495.712 122.537,494.046 120,491.5C 116.286,498.059 110.786,502.059 103.5,503.5C 94.0385,501.968 89.2052,496.301 89,486.5C 89.7972,473.503 89.6305,460.503 88.5,447.5C 81.1153,448.4 76.2819,445.4 74,438.5C 73.0467,435.568 72.5467,432.568 72.5,429.5C 66.9641,430.907 62.1308,429.573 58,425.5C 48.2541,407.007 38.2541,388.673 28,370.5C 19.7914,353.922 17.4581,336.588 21,318.5C 11.1471,324.049 3.98039,321.715 -0.5,311.5C -0.5,304.167 -0.5,296.833 -0.5,289.5C 1.27214,279.935 4.77214,270.935 10,262.5C 24.0861,241.327 38.4195,220.327 53,199.5C 86.4992,162.319 123.333,129.152 163.5,100C 174.308,94.2862 185.642,89.9529 197.5,87C 200.339,79.7445 205.672,76.2445 213.5,76.5C 224.144,78.3852 234.811,80.0519 245.5,81.5C 245.891,75.2743 249.224,71.7743 255.5,71C 271.23,71.185 285.897,75.3516 299.5,83.5C 311.194,76.4075 323.861,72.0741 337.5,70.5C 345.463,69.7202 350.63,73.0536 353,80.5C 354.062,81.0968 355.228,81.4302 356.5,81.5C 366.111,79.5093 375.778,77.8426 385.5,76.5C 393.091,76.1182 398.091,79.4515 400.5,86.5C 418.232,90.5355 434.232,98.0355 448.5,109C 483.492,136.985 516.325,167.485 547,200.5C 562.058,221.893 576.725,243.56 591,265.5C 594.751,272.602 597.584,279.935 599.5,287.5 Z"/></g>
<g><path style="opacity:1" fill="#e8e6e3" d="M 255.5,81.5 C 260.566,81.3399 265.566,81.8399 270.5,83C 280.295,86.149 289.795,89.9824 299,94.5C 306.452,91.3453 313.952,88.1786 321.5,85C 328.266,82.3914 335.266,81.2247 342.5,81.5C 340.912,85.3464 339.912,89.3464 339.5,93.5C 341.527,93.3379 343.527,93.5045 345.5,94C 338.345,102.468 332.845,111.968 329,122.5C 314.212,160.889 308.212,200.556 311,241.5C 312.565,253.995 315.398,266.162 319.5,278C 316.726,280.471 313.56,282.305 310,283.5C 300.352,278.17 290.352,277.17 280,280.5C 276.835,280.666 274.002,279.833 271.5,278C 280.569,249.48 283.069,220.313 279,190.5C 274.765,160.464 266.098,131.797 253,104.5C 250.045,100.756 247.211,96.9224 244.5,93C 249.44,93.3256 254.44,93.4923 259.5,93.5C 258.733,89.3017 257.399,85.3017 255.5,81.5 Z"/></g>
<g><path style="opacity:1" fill="#3e3d3d" d="M 270.5,209.5 C 269.772,204.235 267.105,200.068 262.5,197C 227.693,195.064 194.693,201.731 163.5,217C 155.661,222.022 147.995,227.189 140.5,232.5C 141.525,203.536 148.692,176.203 162,150.5C 177.403,127.427 197.903,110.594 223.5,100C 221.886,97.8733 219.886,96.3733 217.5,95.5C 214.349,93.417 211.349,91.0837 208.5,88.5C 210.333,88.1667 212.167,87.8333 214,87.5C 220.85,88.4371 227.683,89.4371 234.5,90.5C 234.337,92.8568 234.503,95.1902 235,97.5C 239.727,103.897 244.06,110.564 248,117.5C 260.216,147.03 267.716,177.697 270.5,209.5 Z"/></g>
<g><path style="opacity:1" fill="#3e3d3d" d="M 381.5,94.5 C 379.683,95.8157 378.017,97.3157 376.5,99C 376.645,99.772 376.978,100.439 377.5,101C 401.523,111.366 421.023,127.199 436,148.5C 450.048,174.69 457.548,202.69 458.5,232.5C 455.907,231.246 453.573,229.58 451.5,227.5C 450.808,228.025 450.308,228.692 450,229.5C 445.439,225.134 440.272,221.634 434.5,219C 436.301,218.683 436.634,218.016 435.5,217C 404.229,201.934 371.229,195.267 336.5,197C 324.025,207.386 323.359,218.386 334.5,230C 354.986,227.636 374.32,231.303 392.5,241C 396.299,243.797 399.799,246.964 403,250.5C 403.333,249.833 403.667,249.167 404,248.5C 412.354,259.882 418.021,272.549 421,286.5C 421.814,275.754 421.314,265.087 419.5,254.5C 421.527,254.338 423.527,254.505 425.5,255C 429.553,257.93 433.053,261.43 436,265.5C 436.126,259.061 434.459,253.061 431,247.5C 427.715,242.546 424.048,237.88 420,233.5C 419.28,231.888 419.446,230.388 420.5,229C 427.188,228.447 433.521,229.78 439.5,233C 446.885,235.348 453.219,239.181 458.5,244.5C 456.915,275.512 455.082,306.512 453,337.5C 451.667,340.833 450.333,344.167 449,347.5C 445.841,371.428 445.007,395.428 446.5,419.5C 445.883,419.611 445.383,419.944 445,420.5C 444.547,424.177 444.714,427.844 445.5,431.5C 445.534,434.433 444.701,437.1 443,439.5C 444.646,420.356 441.812,401.856 434.5,384C 436.997,379.837 437.831,375.337 437,370.5C 435.728,361.497 431.895,353.83 425.5,347.5C 428.918,339.673 427.252,333.173 420.5,328C 417.392,325.894 414.059,324.228 410.5,323C 402.809,314.31 394.809,305.977 386.5,298C 380.927,295.532 375.26,293.365 369.5,291.5C 392.084,283.666 398.917,268.666 390,246.5C 379.399,235.845 367.233,233.679 353.5,240C 339.717,250.362 336.884,263.195 345,278.5C 347.028,281.692 349.528,284.359 352.5,286.5C 348.753,286.608 345.086,286.108 341.5,285C 339.871,278.875 335.871,275.375 329.5,274.5C 324.951,263.254 322.117,251.588 321,239.5C 318.307,195.937 325.973,154.271 344,114.5C 349.573,108.021 353.573,100.688 356,92.5C 366.918,88.9296 378.084,87.5962 389.5,88.5C 387.2,90.984 384.533,92.984 381.5,94.5 Z"/></g>
<g><path style="opacity:1" fill="#252424" d="M 217.5,95.5 C 219.886,96.3733 221.886,97.8733 223.5,100C 197.903,110.594 177.403,127.427 162,150.5C 148.692,176.203 141.525,203.536 140.5,232.5C 140.5,236.5 140.5,240.5 140.5,244.5C 140.557,255.518 141.057,266.518 142,277.5C 146.399,311.758 150.066,346.091 153,380.5C 153.722,394.518 153.555,408.518 152.5,422.5C 151.059,442.596 145.726,461.596 136.5,479.5C 134.144,481.69 131.644,483.69 129,485.5C 127.608,480.864 125.775,476.53 123.5,472.5C 120.23,474.267 117.397,476.6 115,479.5C 112.412,483.676 109.579,487.676 106.5,491.5C 103.527,493.218 101.36,492.551 100,489.5C 99.6667,473.833 99.3333,458.167 99,442.5C 98.4298,437.078 97.4298,431.745 96,426.5C 94.7367,424.203 92.9034,423.37 90.5,424C 88.8905,428.621 87.0571,433.121 85,437.5C 82.8827,426.801 80.5494,416.134 78,405.5C 77.3109,404.643 76.4776,403.977 75.5,403.5C 73.8539,404.779 72.6872,406.445 72,408.5C 70.9319,411.871 69.7653,415.204 68.5,418.5C 67.7261,419.711 66.8928,419.711 66,418.5C 59.1888,404.877 51.8554,391.544 44,378.5C 39.1762,369.854 35.1762,360.854 32,351.5C 31.0355,346.214 30.5355,340.88 30.5,335.5C 31.5591,325.159 32.3925,314.825 33,304.5C 31.6661,300.896 29.1661,299.729 25.5,301C 21.8683,303.63 18.535,306.63 15.5,310C 13.4216,312.134 11.5883,311.968 10,309.5C 8.31164,295.275 10.9783,281.942 18,269.5C 30,251.5 42,233.5 54,215.5C 88.7728,175.052 127.606,139.219 170.5,108C 185.135,99.842 200.802,95.6753 217.5,95.5 Z"/></g>
<g><path style="opacity:1" fill="#252424" d="M 381.5,94.5 C 407.25,96.5391 429.917,106.039 449.5,123C 481.501,148.661 511.334,176.828 539,207.5C 556.507,231.178 572.507,255.844 587,281.5C 589.229,290.723 589.895,300.057 589,309.5C 588.275,311.158 587.108,311.658 585.5,311C 581.868,308.37 578.535,305.37 575.5,302C 573.045,300.369 570.545,300.203 568,301.5C 566.935,304.375 566.435,307.375 566.5,310.5C 568.012,318.92 569.012,327.42 569.5,336C 568.699,349.406 564.865,361.906 558,373.5C 549.413,388.339 541.08,403.339 533,418.5C 532.333,419.833 531.667,419.833 531,418.5C 529.47,414.91 528.136,411.243 527,407.5C 526.059,405.939 524.892,404.605 523.5,403.5C 521.157,405.995 519.657,408.995 519,412.5C 517.666,420.505 516.333,428.505 515,436.5C 514.333,437.833 513.667,437.833 513,436.5C 511.928,431.617 510.261,426.95 508,422.5C 505.86,423.728 504.193,425.395 503,427.5C 501.673,434.112 500.673,440.778 500,447.5C 499.667,461.5 499.333,475.5 499,489.5C 498.051,492.2 496.217,493.033 493.5,492C 489.95,488.117 486.783,483.951 484,479.5C 481.603,476.6 478.77,474.267 475.5,472.5C 473.221,476.578 471.387,480.912 470,485.5C 462.899,480.663 458.232,473.997 456,465.5C 450.792,450.588 447.626,435.254 446.5,419.5C 445.007,395.428 445.841,371.428 449,347.5C 450.333,344.167 451.667,340.833 453,337.5C 455.082,306.512 456.915,275.512 458.5,244.5C 458.5,240.5 458.5,236.5 458.5,232.5C 457.548,202.69 450.048,174.69 436,148.5C 421.023,127.199 401.523,111.366 377.5,101C 376.978,100.439 376.645,99.772 376.5,99C 378.017,97.3157 379.683,95.8157 381.5,94.5 Z"/></g>
<g><path style="opacity:1" fill="#5f5f5f" d="M 270.5,209.5 C 270.5,214.5 270.5,219.5 270.5,224.5C 268.617,226.398 266.617,228.231 264.5,230C 250.677,228.642 237.01,229.642 223.5,233C 203.667,239.5 190.5,252.667 184,272.5C 182.307,278.468 180.807,284.468 179.5,290.5C 178.25,290.423 177.417,289.756 177,288.5C 176.833,284 176.667,279.5 176.5,275C 176.28,268.87 176.947,262.87 178.5,257C 177.423,255.457 176.089,255.457 174.5,257C 170.652,261.016 166.652,264.849 162.5,268.5C 161.187,263.78 161.353,259.113 163,254.5C 166.426,246.64 171.093,239.64 177,233.5C 177.483,232.552 177.649,231.552 177.5,230.5C 171.933,230.52 166.6,231.687 161.5,234C 154.447,237.527 147.447,241.027 140.5,244.5C 140.5,240.5 140.5,236.5 140.5,232.5C 147.995,227.189 155.661,222.022 163.5,217C 194.693,201.731 227.693,195.064 262.5,197C 267.105,200.068 269.772,204.235 270.5,209.5 Z"/></g>
<g><path style="opacity:1" fill="#5f5f5f" d="M 458.5,232.5 C 458.5,236.5 458.5,240.5 458.5,244.5C 453.219,239.181 446.885,235.348 439.5,233C 433.521,229.78 427.188,228.447 420.5,229C 419.446,230.388 419.28,231.888 420,233.5C 424.048,237.88 427.715,242.546 431,247.5C 434.459,253.061 436.126,259.061 436,265.5C 433.053,261.43 429.553,257.93 425.5,255C 423.527,254.505 421.527,254.338 419.5,254.5C 421.314,265.087 421.814,275.754 421,286.5C 418.021,272.549 412.354,259.882 404,248.5C 403.667,249.167 403.333,249.833 403,250.5C 399.799,246.964 396.299,243.797 392.5,241C 374.32,231.303 354.986,227.636 334.5,230C 323.359,218.386 324.025,207.386 336.5,197C 371.229,195.267 404.229,201.934 435.5,217C 436.634,218.016 436.301,218.683 434.5,219C 440.272,221.634 445.439,225.134 450,229.5C 450.308,228.692 450.808,228.025 451.5,227.5C 453.573,229.58 455.907,231.246 458.5,232.5 Z"/></g>
<g><path style="opacity:1" fill="#393737" d="M 270.5,224.5 C 270.764,243.252 267.264,261.252 260,278.5C 257.46,280.705 255.293,283.205 253.5,286C 250.883,286.822 248.216,287.322 245.5,287.5C 260.061,275.446 262.228,261.446 252,245.5C 241.467,235.762 229.633,233.929 216.5,240C 202.06,251.874 199.893,265.707 210,281.5C 215.211,287.357 221.711,290.357 229.5,290.5C 223.399,293.721 217.399,297.221 211.5,301C 207.592,305.413 203.259,309.247 198.5,312.5C 192.036,305.535 185.369,298.702 178.5,292C 179.056,291.617 179.389,291.117 179.5,290.5C 180.807,284.468 182.307,278.468 184,272.5C 190.5,252.667 203.667,239.5 223.5,233C 237.01,229.642 250.677,228.642 264.5,230C 266.617,228.231 268.617,226.398 270.5,224.5 Z"/></g>
<g><path style="opacity:1" fill="#3e3d3d" d="M 179.5,290.5 C 179.389,291.117 179.056,291.617 178.5,292C 185.369,298.702 192.036,305.535 198.5,312.5C 196.37,314.127 194.37,315.96 192.5,318C 182.415,321.121 173.915,326.621 167,334.5C 164.983,340.054 165.149,345.554 167.5,351C 161.415,360.823 159.581,371.323 162,382.5C 163.022,383.354 163.855,384.354 164.5,385.5C 160.106,395.742 157.273,406.409 156,417.5C 155.777,419.881 154.61,421.547 152.5,422.5C 153.555,408.518 153.722,394.518 153,380.5C 150.066,346.091 146.399,311.758 142,277.5C 141.057,266.518 140.557,255.518 140.5,244.5C 147.447,241.027 154.447,237.527 161.5,234C 166.6,231.687 171.933,230.52 177.5,230.5C 177.649,231.552 177.483,232.552 177,233.5C 171.093,239.64 166.426,246.64 163,254.5C 161.353,259.113 161.187,263.78 162.5,268.5C 166.652,264.849 170.652,261.016 174.5,257C 176.089,255.457 177.423,255.457 178.5,257C 176.947,262.87 176.28,268.87 176.5,275C 176.667,279.5 176.833,284 177,288.5C 177.417,289.756 178.25,290.423 179.5,290.5 Z"/></g>
<g><path style="opacity:1" fill="#241815" d="M 245.5,287.5 C 239.998,287.734 234.664,288.734 229.5,290.5C 221.711,290.357 215.211,287.357 210,281.5C 199.893,265.707 202.06,251.874 216.5,240C 229.633,233.929 241.467,235.762 252,245.5C 262.228,261.446 260.061,275.446 245.5,287.5 Z"/></g>
<g><path style="opacity:1" fill="#241815" d="M 369.5,291.5 C 363.791,289.66 358.124,287.993 352.5,286.5C 349.528,284.359 347.028,281.692 345,278.5C 336.884,263.195 339.717,250.362 353.5,240C 367.233,233.679 379.399,235.845 390,246.5C 398.917,268.666 392.084,283.666 369.5,291.5 Z"/></g>
<g><path style="opacity:1" fill="#ededed" d="M 243.5,249.5 C 249.33,249.161 251.83,251.827 251,257.5C 247.383,262.815 243.717,262.815 240,257.5C 239.333,256.167 239.333,254.833 240,253.5C 241.376,252.295 242.542,250.962 243.5,249.5 Z"/></g>
<g><path style="opacity:1" fill="#eeeeee" d="M 381.5,249.5 C 389.957,250.437 391.624,254.27 386.5,261C 379.834,261.996 377.334,259.163 379,252.5C 380.045,251.627 380.878,250.627 381.5,249.5 Z"/></g>
<g><path style="opacity:1" fill="#5f5f5f" d="M 323.5,287.5 C 325.354,287.61 327.354,287.943 329.5,288.5C 328.253,290.323 327.586,292.323 327.5,294.5C 343.972,296.36 360.639,300.527 377.5,307C 379.901,309.062 382.567,310.729 385.5,312C 386.191,313.067 386.691,314.234 387,315.5C 392.416,320.411 397.25,325.744 401.5,331.5C 407.118,333.307 412.118,336.14 416.5,340C 414.444,340.311 412.444,340.811 410.5,341.5C 409.369,343.074 409.202,344.741 410,346.5C 412.415,351.37 415.748,355.37 420,358.5C 423.758,363.937 425.591,369.937 425.5,376.5C 422.937,375.8 420.437,374.8 418,373.5C 417.5,373.833 417,374.167 416.5,374.5C 423.205,386.447 428.038,399.114 431,412.5C 432.436,423.466 431.436,434.133 428,444.5C 424.667,449.833 421.333,449.833 418,444.5C 416.414,442.33 415.08,439.996 414,437.5C 412.413,438.727 411.079,438.394 410,436.5C 410.244,446.144 410.411,455.811 410.5,465.5C 402.589,478.926 392.589,490.76 380.5,501C 378.559,502.903 376.226,503.736 373.5,503.5C 372.644,498.178 371.31,493.012 369.5,488C 368.128,487.598 366.795,487.098 365.5,486.5C 358.689,495.125 350.022,501.292 339.5,505C 326.563,510.479 313.23,514.646 299.5,517.5C 279.261,513.587 260.261,506.421 242.5,496C 239.289,492.958 236.289,489.791 233.5,486.5C 231.941,487.074 230.441,487.74 229,488.5C 227.415,493.085 226.082,497.752 225,502.5C 224.439,503.022 223.772,503.355 223,503.5C 212.388,496.556 203.388,487.889 196,477.5C 192.969,473.434 190.469,469.1 188.5,464.5C 188.509,454.803 188.676,445.136 189,435.5C 184.479,438.357 180.979,442.19 178.5,447C 176.215,448.954 174.048,448.787 172,446.5C 170.275,443.326 168.942,439.993 168,436.5C 165.911,421.262 167.911,406.595 174,392.5C 177.128,385.917 179.961,379.25 182.5,372.5C 179.148,373.008 176.148,374.342 173.5,376.5C 172.119,376 171.453,375 171.5,373.5C 174.911,362.679 179.911,352.679 186.5,343.5C 183.215,342.676 179.882,342.176 176.5,342C 177.257,340.488 178.257,339.154 179.5,338C 185.888,334.139 192.554,330.806 199.5,328C 205.521,322.977 211.188,317.644 216.5,312C 223.225,306.969 230.558,302.969 238.5,300C 246.921,298.985 255.254,297.652 263.5,296C 263.167,295.667 262.833,295.333 262.5,295C 263.756,294.583 264.423,293.75 264.5,292.5C 264.5,290.833 264.5,289.167 264.5,287.5C 273.315,287.867 281.482,290.201 289,294.5C 289.5,294 290,293.5 290.5,293C 289.594,291.301 289.261,289.467 289.5,287.5C 296.857,287.427 303.357,289.761 309,294.5C 313.936,292.281 318.77,289.948 323.5,287.5 Z"/></g>
<g><path style="opacity:1" fill="#060505" d="M 288.5,322.5 C 298.315,321.927 307.982,322.76 317.5,325C 329.573,331.661 331.74,340.827 324,352.5C 309.725,366.564 294.558,367.731 278.5,356C 265.226,339.738 268.56,328.571 288.5,322.5 Z"/></g>
<g><path style="opacity:1" fill="#3f3e3e" d="M 410.5,465.5 C 410.411,455.811 410.244,446.144 410,436.5C 411.079,438.394 412.413,438.727 414,437.5C 415.08,439.996 416.414,442.33 418,444.5C 421.333,449.833 424.667,449.833 428,444.5C 431.436,434.133 432.436,423.466 431,412.5C 428.038,399.114 423.205,386.447 416.5,374.5C 417,374.167 417.5,373.833 418,373.5C 420.437,374.8 422.937,375.8 425.5,376.5C 425.591,369.937 423.758,363.937 420,358.5C 415.748,355.37 412.415,351.37 410,346.5C 409.202,344.741 409.369,343.074 410.5,341.5C 412.444,340.811 414.444,340.311 416.5,340C 412.118,336.14 407.118,333.307 401.5,331.5C 397.25,325.744 392.416,320.411 387,315.5C 386.691,314.234 386.191,313.067 385.5,312C 382.567,310.729 379.901,309.062 377.5,307C 360.639,300.527 343.972,296.36 327.5,294.5C 327.586,292.323 328.253,290.323 329.5,288.5C 327.354,287.943 325.354,287.61 323.5,287.5C 325.993,286.226 328.659,285.56 331.5,285.5C 331.683,287.936 331.016,290.103 329.5,292C 331.663,292.245 333.33,293.245 334.5,295C 351.017,295.713 366.684,299.713 381.5,307C 383.759,308.715 385.926,310.548 388,312.5C 392.85,319.009 398.016,325.176 403.5,331C 407.779,332.473 411.779,334.473 415.5,337C 417.037,338.11 417.703,339.61 417.5,341.5C 414.62,341.033 412.287,341.866 410.5,344C 413.027,349.895 416.86,354.729 422,358.5C 425.459,364.061 427.126,370.061 427,376.5C 424.526,377.465 422.026,377.632 419.5,377C 430.721,396.104 434.887,416.604 432,438.5C 431.296,442.625 429.463,446.125 426.5,449C 423.697,449.755 421.03,449.422 418.5,448C 416.306,445.305 414.306,442.472 412.5,439.5C 412.217,447.798 412.05,456.132 412,464.5C 411.617,465.056 411.117,465.389 410.5,465.5 Z"/></g>
<g><path style="opacity:1" fill="#222020" d="M 289.5,333.5 C 295.509,333.334 301.509,333.501 307.5,334C 319.444,336.876 320.444,341.876 310.5,349C 298.677,355.955 289.177,353.455 282,341.5C 281.333,340.5 281.333,339.5 282,338.5C 284.426,336.548 286.926,334.881 289.5,333.5 Z"/></g>
<g><path style="opacity:1" fill="#0a0909" d="M 274.5,393.5 C 289.502,394.729 304.502,394.729 319.5,393.5C 323.532,393.217 326.532,394.717 328.5,398C 328.241,399.261 327.574,400.261 326.5,401C 322.916,402.073 319.25,402.74 315.5,403C 303.167,403.667 290.833,403.667 278.5,403C 275.542,402.771 273.042,401.604 271,399.5C 270.651,396.669 271.817,394.669 274.5,393.5 Z"/></g>
<g><path style="opacity:1" fill="#3f3e3e" d="M 264.5,292.5 C 264.423,293.75 263.756,294.583 262.5,295C 262.833,295.333 263.167,295.667 263.5,296C 255.254,297.652 246.921,298.985 238.5,300C 230.558,302.969 223.225,306.969 216.5,312C 211.188,317.644 205.521,322.977 199.5,328C 192.554,330.806 185.888,334.139 179.5,338C 178.257,339.154 177.257,340.488 176.5,342C 179.882,342.176 183.215,342.676 186.5,343.5C 179.911,352.679 174.911,362.679 171.5,373.5C 171.453,375 172.119,376 173.5,376.5C 176.148,374.342 179.148,373.008 182.5,372.5C 179.961,379.25 177.128,385.917 174,392.5C 167.911,406.595 165.911,421.262 168,436.5C 168.942,439.993 170.275,443.326 172,446.5C 174.048,448.787 176.215,448.954 178.5,447C 180.979,442.19 184.479,438.357 189,435.5C 188.676,445.136 188.509,454.803 188.5,464.5C 187.883,464.389 187.383,464.056 187,463.5C 186.906,455.46 186.739,447.46 186.5,439.5C 184.427,443.081 181.76,446.248 178.5,449C 175.044,450.123 172.21,449.29 170,446.5C 164.731,433.457 164.065,420.124 168,406.5C 171.307,395.904 174.974,385.571 179,375.5C 176.435,377.179 173.602,377.846 170.5,377.5C 170.192,372.629 171.025,367.963 173,363.5C 176.455,356.753 180.289,350.253 184.5,344C 181.525,343.956 178.525,344.123 175.5,344.5C 175.143,340.336 176.81,337.169 180.5,335C 186.379,331.894 192.379,329.06 198.5,326.5C 206.726,319.894 214.726,313.06 222.5,306C 233.562,299.386 245.562,296.052 258.5,296C 259.973,295.29 260.64,294.124 260.5,292.5C 261.833,292.5 263.167,292.5 264.5,292.5 Z"/></g>
</svg>
