<?xml version="1.0" encoding="UTF-8"?>
<!DOCTYPE svg PUBLIC "-//W3C//DTD SVG 1.1//EN" "http://www.w3.org/Graphics/SVG/1.1/DTD/svg11.dtd">
<svg xmlns="http://www.w3.org/2000/svg" version="1.1" width="600px" height="600px" style="shape-rendering:geometricPrecision; text-rendering:geometricPrecision; image-rendering:optimizeQuality; fill-rule:evenodd; clip-rule:evenodd" xmlns:xlink="http://www.w3.org/1999/xlink">
<g><path style="opacity:0.976" fill="#030303" d="M 205.5,15.5 C 215.598,15.8098 225.598,16.9765 235.5,19C 252.557,23.4637 269.557,28.1303 286.5,33C 295.167,35 303.833,35 312.5,33C 332.927,26.7266 353.594,21.3933 374.5,17C 397.377,13.2388 418.044,18.2388 436.5,32C 447.604,36.3827 457.937,42.0494 467.5,49C 473.995,54.4996 478.495,61.333 481,69.5C 493.484,80.6427 504.484,92.9761 514,106.5C 515.334,113.845 517.668,120.845 521,127.5C 529.841,138.013 537.508,149.347 544,161.5C 545.623,168.12 546.957,174.787 548,181.5C 554.549,194.596 560.549,207.93 566,221.5C 568.068,229.709 569.401,238.042 570,246.5C 575.672,260.517 580.339,274.85 584,289.5C 583.811,297.492 583.811,305.492 584,313.5C 586.757,327.286 589.257,341.12 591.5,355C 587.726,371.578 585.893,388.411 586,405.5C 585.455,415.586 581.455,423.92 574,430.5C 571,438.167 568,445.833 565,453.5C 562.546,458.277 559.713,462.777 556.5,467C 560.869,482.773 566.036,498.273 572,513.5C 573.456,522.254 569.79,527.254 561,528.5C 559.506,527.253 558.006,527.253 556.5,528.5C 554.866,534.653 550.866,537.986 544.5,538.5C 535.871,536.033 528.038,532.033 521,526.5C 519.333,527.167 517.667,527.833 516,528.5C 512.105,527.399 508.271,526.066 504.5,524.5C 505.652,533.465 507.652,542.465 510.5,551.5C 508.754,560.856 503.42,564.356 494.5,562C 488.042,557.876 482.542,552.71 478,546.5C 479.288,553.884 481.121,561.217 483.5,568.5C 480.917,579.889 474.584,582.722 464.5,577C 456.928,570.099 450.095,562.599 444,554.5C 446.489,568.516 440.989,573.516 427.5,569.5C 425.545,582.31 418.878,585.81 407.5,580C 404.369,575.867 400.869,572.034 397,568.5C 392.784,574.18 387.617,575.347 381.5,572C 376.742,567.633 372.575,562.8 369,557.5C 365.26,561.582 360.76,562.915 355.5,561.5C 346.795,564.563 340.962,561.563 338,552.5C 331.957,565.609 322.124,570.109 308.5,566C 303.753,562.272 300.753,557.439 299.5,551.5C 295.443,567.029 286.11,571.529 271.5,565C 267.669,561.533 264.169,557.7 261,553.5C 257.54,561.819 251.707,564.486 243.5,561.5C 238.24,562.915 233.74,561.582 230,557.5C 226.414,562.84 222.248,567.673 217.5,572C 211.425,575.359 206.259,574.192 202,568.5C 198.85,572.617 195.35,576.451 191.5,580C 180.153,585.907 173.653,582.407 172,569.5C 165.862,572.739 160.529,571.739 156,566.5C 154.338,562.554 154.004,558.554 155,554.5C 148.571,562.933 141.404,570.766 133.5,578C 123.83,582.412 117.83,579.412 115.5,569C 118.079,561.175 120.245,553.341 122,545.5C 116.405,553.774 109.072,559.774 100,563.5C 93.5,562.333 89.6667,558.5 88.5,552C 90.9815,543.41 93.3148,534.743 95.5,526C 95.1667,525.5 94.8333,525 94.5,524.5C 90.7288,526.066 86.8954,527.399 83,528.5C 81.3333,527.833 79.6667,527.167 78,526.5C 71.0729,532.214 63.2396,536.214 54.5,538.5C 47.8286,537.992 43.8286,534.492 42.5,528C 32.3364,529.167 27.1697,524.667 27,514.5C 32.6665,499.001 37.8331,483.334 42.5,467.5C 39.505,462.989 36.6717,458.322 34,453.5C 31.392,445.675 28.392,438.009 25,430.5C 21.6153,426.783 18.6153,422.783 16,418.5C 14.5235,413.594 13.5235,408.594 13,403.5C 13.4047,386.875 11.5713,370.542 7.5,354.5C 9.80396,341.48 12.304,328.48 15,315.5C 15.351,307.151 15.351,298.817 15,290.5C 17.9304,276.709 22.2637,263.376 28,250.5C 29.8778,243.972 30.8778,237.305 31,230.5C 35.6643,214.501 41.9976,199.168 50,184.5C 51.757,176.123 53.757,167.79 56,159.5C 57.9343,155.241 60.2677,151.241 63,147.5C 69.3985,140.368 75.0652,132.701 80,124.5C 81.7846,112.267 86.7846,101.6 95,92.5C 101.697,85.4683 108.697,78.8016 116,72.5C 118.96,66.281 122.293,60.281 126,54.5C 137.114,44.0181 149.948,36.1848 164.5,31C 168.827,27.5013 173.494,24.5013 178.5,22C 187.381,18.7518 196.381,16.5851 205.5,15.5 Z"/></g>
<g><path style="opacity:1" fill="#f2f2f2" d="M 432.5,41.5 C 445.001,54.6557 456.334,68.6557 466.5,83.5C 474.127,95.0852 480.46,107.419 485.5,120.5C 487.264,126.473 489.597,132.14 492.5,137.5C 494.343,146.702 497.343,155.368 501.5,163.5C 504.258,170.183 506.258,177.183 507.5,184.5C 508.073,190.455 509.407,196.122 511.5,201.5C 514.866,224.028 518.533,246.361 522.5,268.5C 522.5,269.167 522.5,269.833 522.5,270.5C 523.435,294.701 525.102,318.701 527.5,342.5C 528.661,350.771 529.328,359.105 529.5,367.5C 529.755,377.211 530.589,386.877 532,396.5C 532.149,400.133 532.982,403.466 534.5,406.5C 535.1,419.003 536.933,431.337 540,443.5C 540.383,444.056 540.883,444.389 541.5,444.5C 542.025,449.6 543.025,454.6 544.5,459.5C 549.292,478.877 555.292,497.877 562.5,516.5C 560.926,517.631 559.259,517.798 557.5,517C 551.364,514.763 545.364,512.263 539.5,509.5C 522.845,470.415 511.678,429.748 506,387.5C 503.38,367.923 501.714,348.257 501,328.5C 500.865,286.104 499.198,243.77 496,201.5C 493.401,160.992 478.735,125.659 452,95.5C 420.398,65.1891 382.898,53.3557 339.5,60C 327.925,64.787 316.592,70.1204 305.5,76C 301.5,76.6667 297.5,76.6667 293.5,76C 281.525,69.512 269.192,63.8453 256.5,59C 202.453,53.0965 160.286,72.5965 130,117.5C 118.736,135.03 111.07,154.03 107,174.5C 103.976,191.714 101.976,209.047 101,226.5C 99.925,268.174 98.5917,309.841 97,351.5C 92.9567,405.782 80.7901,458.115 60.5,508.5C 53.1022,513.242 45.1022,516.076 36.5,517C 43.8005,498.598 49.8005,479.764 54.5,460.5C 55.9749,455.6 56.9749,450.6 57.5,445.5C 58.5487,436.923 60.2154,428.589 62.5,420.5C 66.2539,406.89 68.2539,392.89 68.5,378.5C 68.2641,375.391 68.5975,372.391 69.5,369.5C 70.1174,369.389 70.6174,369.056 71,368.5C 73.2048,336.851 75.0382,305.184 76.5,273.5C 76.5,272.833 76.5,272.167 76.5,271.5C 79.6151,253.699 82.2817,235.699 84.5,217.5C 87.1979,199.32 91.5312,181.654 97.5,164.5C 100.405,157.784 102.739,150.784 104.5,143.5C 106.964,139.556 108.63,135.223 109.5,130.5C 110.932,125.522 112.932,120.856 115.5,116.5C 120.751,106.998 125.751,97.3313 130.5,87.5C 140.924,70.6648 153.257,55.3315 167.5,41.5C 179.233,31.0855 193.067,26.0855 209,26.5C 217.231,26.6758 225.398,27.5092 233.5,29C 251.5,34 269.5,39 287.5,44C 298.3,45.0671 308.966,44.4005 319.5,42C 335.936,36.5215 352.603,31.8548 369.5,28C 392.789,22.5772 413.789,27.0772 432.5,41.5 Z"/></g>
<g><path style="opacity:1" fill="#b5b2b0" d="M 167.5,41.5 C 153.257,55.3315 140.924,70.6648 130.5,87.5C 138.657,71.8284 148.991,57.6617 161.5,45C 163.405,43.5787 165.405,42.412 167.5,41.5 Z"/></g>
<g><path style="opacity:1" fill="#dddbd9" d="M 539.5,509.5 C 541.544,515.259 543.878,520.926 546.5,526.5C 545.667,526.833 544.833,527.167 544,527.5C 533.248,522.579 523.414,516.245 514.5,508.5C 499.597,464.149 490.764,418.482 488,371.5C 487.126,350.759 485.626,330.093 483.5,309.5C 484.022,308.393 484.355,307.226 484.5,306C 483.063,291.882 480.729,278.216 477.5,265C 471.243,219.599 455.743,177.099 431,137.5C 424.25,128.079 416.75,119.246 408.5,111C 392.866,99.6036 375.532,96.2703 356.5,101C 340.417,105.021 324.417,109.354 308.5,114C 302.5,114.667 296.5,114.667 290.5,114C 276.122,110.156 261.789,106.156 247.5,102C 234.891,99.1843 222.225,98.851 209.5,101C 204.108,102.53 199.108,104.863 194.5,108C 169.158,132.157 150.991,160.99 140,194.5C 127.792,229.206 119.792,264.873 116,301.5C 113.779,329.482 111.779,357.482 110,385.5C 106.528,428.029 98.0285,469.362 84.5,509.5C 77.0055,514.811 69.3388,519.978 61.5,525C 59.0912,526.707 56.4245,527.54 53.5,527.5C 55.5384,521.084 57.8717,514.751 60.5,508.5C 80.7901,458.115 92.9567,405.782 97,351.5C 98.5917,309.841 99.925,268.174 101,226.5C 101.976,209.047 103.976,191.714 107,174.5C 111.07,154.03 118.736,135.03 130,117.5C 160.286,72.5965 202.453,53.0965 256.5,59C 269.192,63.8453 281.525,69.512 293.5,76C 297.5,76.6667 301.5,76.6667 305.5,76C 316.592,70.1204 327.925,64.787 339.5,60C 382.898,53.3557 420.398,65.1891 452,95.5C 478.735,125.659 493.401,160.992 496,201.5C 499.198,243.77 500.865,286.104 501,328.5C 501.714,348.257 503.38,367.923 506,387.5C 511.678,429.748 522.845,470.415 539.5,509.5 Z"/></g>
<g><path style="opacity:1" fill="#b2afad" d="M 432.5,41.5 C 439.106,46.2708 444.939,51.9375 450,58.5C 456.515,66.2048 462.015,74.5381 466.5,83.5C 456.334,68.6557 445.001,54.6557 432.5,41.5 Z"/></g>
<g><path style="opacity:1" fill="#c3c0be" d="M 117.5,84.5 C 118.239,84.369 118.906,84.5357 119.5,85C 96.4472,127.489 80.9472,172.656 73,220.5C 70.627,233.777 68.627,247.111 67,260.5C 64.3672,302.224 61.0339,343.891 57,385.5C 54.2864,407.735 50.2864,429.735 45,451.5C 41.3895,442.003 37.3895,432.669 33,423.5C 27.9757,420.114 24.9757,415.448 24,409.5C 22.9883,396.185 22.3217,382.852 22,369.5C 21.5621,366.624 20.5621,363.957 19,361.5C 18.8333,359.167 18.6667,356.833 18.5,354.5C 20.8882,339.838 23.3882,325.171 26,310.5C 25.8107,302.508 25.8107,294.508 26,286.5C 30.8641,272.908 35.5308,259.241 40,245.5C 40.1946,239.436 40.8613,233.436 42,227.5C 47.1347,214.566 52.8014,201.9 59,189.5C 62.3666,181.477 64.3666,173.143 65,164.5C 71.9275,152.976 79.5941,141.976 88,131.5C 90.7918,123.869 93.4585,116.202 96,108.5C 102.633,100.033 109.8,92.033 117.5,84.5 Z"/></g>
<g><path style="opacity:1" fill="#c3c0be" d="M 478.5,82.5 C 486.828,89.9953 494.662,97.9953 502,106.5C 505.538,113.838 508.204,121.505 510,129.5C 514.935,137.701 520.601,145.368 527,152.5C 530.172,156.841 532.839,161.508 535,166.5C 535.778,173.286 537.112,179.953 539,186.5C 544.957,198.744 550.624,211.078 556,223.5C 557.776,232.783 559.443,242.117 561,251.5C 565.007,262.843 569.007,274.177 573,285.5C 573.333,295.5 573.667,305.5 574,315.5C 576.889,328.221 579.056,341.054 580.5,354C 580.399,359.71 579.232,365.21 577,370.5C 576.667,381.5 576.333,392.5 576,403.5C 575.616,407.653 574.616,411.653 573,415.5C 570.333,418.833 567.667,422.167 565,425.5C 561.495,433.842 557.995,442.175 554.5,450.5C 549.379,431.109 545.545,411.443 543,391.5C 538.559,347.232 534.892,302.899 532,258.5C 526.522,207.918 513.855,159.252 494,112.5C 489.063,102.29 483.896,92.2896 478.5,82.5 Z"/></g>
<g><path style="opacity:1" fill="#e3e2e2" d="M 514.5,508.5 C 515.487,511.146 516.487,513.812 517.5,516.5C 516.667,516.833 515.833,517.167 515,517.5C 506.17,514.668 498.004,510.668 490.5,505.5C 480.034,499.557 470.201,492.557 461,484.5C 459.814,469.937 457.981,455.603 455.5,441.5C 453.6,434.737 452.767,427.737 453,420.5C 454.418,418.637 456.251,418.137 458.5,419C 460.202,421.235 461.202,423.735 461.5,426.5C 464.576,439.228 468.743,451.562 474,463.5C 475.243,465.833 476.909,466.5 479,465.5C 479.869,463.419 480.369,461.253 480.5,459C 480.085,448.894 478.752,439.061 476.5,429.5C 473.047,407.354 467.547,385.688 460,364.5C 459.503,362.19 459.337,359.857 459.5,357.5C 461.527,357.338 463.527,357.505 465.5,358C 471.428,363.924 476.594,370.424 481,377.5C 482.264,379.607 484.097,380.607 486.5,380.5C 478.265,338.702 460.432,301.702 433,269.5C 407.82,244.159 377.653,228.159 342.5,221.5C 338.353,220.26 334.019,219.26 329.5,218.5C 309.857,195.191 289.523,172.525 268.5,150.5C 271.677,140.724 268.01,134.891 257.5,133C 222.08,128.895 190.58,138.061 163,160.5C 160.261,168.43 163.094,171.263 171.5,169C 178.005,166.162 184.671,164.162 191.5,163C 184.299,170.24 179.299,178.74 176.5,188.5C 176.652,193.822 179.319,195.989 184.5,195C 186.323,194.003 187.99,192.836 189.5,191.5C 192.429,195.606 195.596,199.606 199,203.5C 207.716,211.714 215.882,220.38 223.5,229.5C 220.286,230.937 217.286,232.603 214.5,234.5C 197.444,241.026 182.777,251.026 170.5,264.5C 165.843,270.489 160.843,276.156 155.5,281.5C 148.368,289.739 142.201,298.739 137,308.5C 132.281,317.168 128.448,326.168 125.5,335.5C 120.84,349.495 116.507,363.495 112.5,377.5C 111.165,380.994 112.499,382.16 116.5,381C 121.782,373.115 127.782,365.782 134.5,359C 135.793,358.51 137.127,358.343 138.5,358.5C 138.5,360.5 138.5,362.5 138.5,364.5C 128.32,395.731 121.987,427.731 119.5,460.5C 120.246,461.736 120.579,463.07 120.5,464.5C 123.434,463.711 125.268,461.711 126,458.5C 129.958,445.119 134.792,432.119 140.5,419.5C 145.323,417.891 147.323,419.725 146.5,425C 145.429,433.921 144.096,442.754 142.5,451.5C 140.516,462.263 139.35,473.263 139,484.5C 129.264,491.751 119.431,498.751 109.5,505.5C 101.248,510.708 92.4146,514.708 83,517.5C 82.5,517.167 82,516.833 81.5,516.5C 82.3124,514.055 83.3124,511.722 84.5,509.5C 98.0285,469.362 106.528,428.029 110,385.5C 111.779,357.482 113.779,329.482 116,301.5C 119.792,264.873 127.792,229.206 140,194.5C 150.991,160.99 169.158,132.157 194.5,108C 199.108,104.863 204.108,102.53 209.5,101C 222.225,98.851 234.891,99.1843 247.5,102C 261.789,106.156 276.122,110.156 290.5,114C 296.5,114.667 302.5,114.667 308.5,114C 324.417,109.354 340.417,105.021 356.5,101C 375.532,96.2703 392.866,99.6036 408.5,111C 416.75,119.246 424.25,128.079 431,137.5C 455.743,177.099 471.243,219.599 477.5,265C 480.729,278.216 483.063,291.882 484.5,306C 484.355,307.226 484.022,308.393 483.5,309.5C 485.626,330.093 487.126,350.759 488,371.5C 490.764,418.482 499.597,464.149 514.5,508.5 Z"/></g>
<g><path style="opacity:1" fill="#b3b1af" d="M 130.5,87.5 C 125.751,97.3313 120.751,106.998 115.5,116.5C 119.207,106.083 124.207,96.4164 130.5,87.5 Z"/></g>
<g><path style="opacity:1" fill="#f3f3f3" d="M 268.5,150.5 C 267.251,152.136 265.584,153.303 263.5,154C 256.961,155.278 250.627,157.112 244.5,159.5C 231.328,162.32 219.661,167.987 209.5,176.5C 201.799,180.028 195.132,185.028 189.5,191.5C 187.99,192.836 186.323,194.003 184.5,195C 179.319,195.989 176.652,193.822 176.5,188.5C 179.299,178.74 184.299,170.24 191.5,163C 184.671,164.162 178.005,166.162 171.5,169C 163.094,171.263 160.261,168.43 163,160.5C 190.58,138.061 222.08,128.895 257.5,133C 268.01,134.891 271.677,140.724 268.5,150.5 Z"/></g>
<g><path style="opacity:1" fill="#f3f3f3" d="M 393.5,172.5 C 384.699,166.446 375.032,162.113 364.5,159.5C 357.207,156.579 349.541,154.746 341.5,154C 335.831,151.185 333.998,146.685 336,140.5C 338.708,136.896 342.208,134.396 346.5,133C 377.051,129.377 405.384,135.71 431.5,152C 435.61,154.809 439.443,157.975 443,161.5C 443.944,164.347 443.444,166.847 441.5,169C 433.443,169.155 425.776,167.322 418.5,163.5C 418.167,163.833 417.833,164.167 417.5,164.5C 423.238,170.303 427.738,176.969 431,184.5C 432.933,193.235 429.766,196.402 421.5,194C 413.008,185.604 403.674,178.438 393.5,172.5 Z"/></g>
<g><path style="opacity:1" fill="#b4b1af" d="M 485.5,120.5 C 488.793,125.699 491.127,131.365 492.5,137.5C 489.597,132.14 487.264,126.473 485.5,120.5 Z"/></g>
<g><path style="opacity:1" fill="#b4b1af" d="M 109.5,130.5 C 108.63,135.223 106.964,139.556 104.5,143.5C 105.37,138.777 107.036,134.444 109.5,130.5 Z"/></g>
<g><path style="opacity:1" fill="#c2c0be" d="M 492.5,137.5 C 496.275,145.821 499.275,154.488 501.5,163.5C 497.343,155.368 494.343,146.702 492.5,137.5 Z"/></g>
<g><path style="opacity:1" fill="#dddcdc" d="M 268.5,150.5 C 289.523,172.525 309.857,195.191 329.5,218.5C 334.019,219.26 338.353,220.26 342.5,221.5C 334.322,220.811 326.322,219.811 318.5,218.5C 306.007,217.34 293.34,217.173 280.5,218C 270.529,218.451 260.862,219.951 251.5,222.5C 238.986,225.671 226.652,229.671 214.5,234.5C 217.286,232.603 220.286,230.937 223.5,229.5C 215.882,220.38 207.716,211.714 199,203.5C 195.596,199.606 192.429,195.606 189.5,191.5C 195.132,185.028 201.799,180.028 209.5,176.5C 205.261,194.516 211.928,206.683 229.5,213C 253.877,213.622 264.71,201.789 262,177.5C 258.647,168.982 252.814,162.982 244.5,159.5C 250.627,157.112 256.961,155.278 263.5,154C 265.584,153.303 267.251,152.136 268.5,150.5 Z"/></g>
<g><path style="opacity:1" fill="#b2afad" d="M 104.5,143.5 C 102.739,150.784 100.405,157.784 97.5,164.5C 98.8604,157.085 101.194,150.085 104.5,143.5 Z"/></g>
<g><path style="opacity:1" fill="#040404" d="M 244.5,159.5 C 252.814,162.982 258.647,168.982 262,177.5C 264.71,201.789 253.877,213.622 229.5,213C 211.928,206.683 205.261,194.516 209.5,176.5C 219.661,167.987 231.328,162.32 244.5,159.5 Z"/></g>
<g><path style="opacity:1" fill="#060505" d="M 364.5,159.5 C 375.032,162.113 384.699,166.446 393.5,172.5C 400.738,191.969 394.738,205.469 375.5,213C 357.455,214.899 346.288,207.066 342,189.5C 340.869,175.926 346.369,166.093 358.5,160C 360.473,159.505 362.473,159.338 364.5,159.5 Z"/></g>
<g><path style="opacity:1" fill="#eeeeee" d="M 249.5,176.5 C 249.311,182.356 246.311,185.689 240.5,186.5C 233.888,185.304 231.221,181.304 232.5,174.5C 237.307,170.592 242.307,170.092 247.5,173C 248.305,174.113 248.972,175.279 249.5,176.5 Z"/></g>
<g><path style="opacity:1" fill="#302826" d="M 368.5,171.5 C 365.111,177.298 366.111,182.131 371.5,186C 377.951,187.28 381.951,184.78 383.5,178.5C 385.988,180.056 386.988,182.389 386.5,185.5C 384.483,199.677 376.483,205.177 362.5,202C 350.228,193.334 348.895,183.334 358.5,172C 360.081,171.293 361.581,170.46 363,169.5C 364.725,170.464 366.559,171.131 368.5,171.5 Z"/></g>
<g><path style="opacity:1" fill="#efeeee" d="M 368.5,171.5 C 373.689,173.597 378.689,175.93 383.5,178.5C 381.951,184.78 377.951,187.28 371.5,186C 366.111,182.131 365.111,177.298 368.5,171.5 Z"/></g>
<g><path style="opacity:1" fill="#302826" d="M 232.5,174.5 C 231.221,181.304 233.888,185.304 240.5,186.5C 246.311,185.689 249.311,182.356 249.5,176.5C 255.805,191.215 250.972,200.215 235,203.5C 222.477,201.168 217.31,193.835 219.5,181.5C 223.701,178.9 228.034,176.566 232.5,174.5 Z"/></g>
<g><path style="opacity:1" fill="#b4b1af" d="M 507.5,184.5 C 509.593,189.878 510.927,195.545 511.5,201.5C 509.407,196.122 508.073,190.455 507.5,184.5 Z"/></g>
<g><path style="opacity:1" fill="#b7b7b7" d="M 318.5,218.5 C 296.025,217.711 273.691,219.044 251.5,222.5C 260.862,219.951 270.529,218.451 280.5,218C 293.34,217.173 306.007,217.34 318.5,218.5 Z"/></g>
<g><path style="opacity:1" fill="#010101" d="M 318.5,218.5 C 326.322,219.811 334.322,220.811 342.5,221.5C 377.653,228.159 407.82,244.159 433,269.5C 460.432,301.702 478.265,338.702 486.5,380.5C 484.097,380.607 482.264,379.607 481,377.5C 476.594,370.424 471.428,363.924 465.5,358C 463.527,357.505 461.527,357.338 459.5,357.5C 459.337,359.857 459.503,362.19 460,364.5C 467.547,385.688 473.047,407.354 476.5,429.5C 477.463,439.334 478.463,449.168 479.5,459C 478.899,465.564 477.065,466.064 474,460.5C 470.099,448.953 465.932,437.619 461.5,426.5C 461.202,423.735 460.202,421.235 458.5,419C 456.251,418.137 454.418,418.637 453,420.5C 452.767,427.737 453.6,434.737 455.5,441.5C 457.104,457.307 458.437,473.14 459.5,489C 459.109,496.308 457.943,503.475 456,510.5C 451.944,495.919 447.444,481.586 442.5,467.5C 438.415,439.972 436.081,412.306 435.5,384.5C 435.775,367.972 435.108,351.638 433.5,335.5C 433.477,320.658 431.144,306.324 426.5,292.5C 418.285,264.779 400.951,244.946 374.5,233C 368.998,230.775 363.331,229.275 357.5,228.5C 343.158,224.536 328.825,224.536 314.5,228.5C 309.482,229.337 304.482,230.337 299.5,231.5C 297.218,230.777 294.884,230.443 292.5,230.5C 274.267,224.283 255.934,223.95 237.5,229.5C 213.204,235.293 194.704,248.96 182,270.5C 177.088,278.649 173.588,287.315 171.5,296.5C 167.396,310.06 165.396,324.06 165.5,338.5C 163.876,365.654 162.71,392.987 162,420.5C 160.774,436.578 158.941,452.578 156.5,468.5C 151.721,482.003 147.221,495.67 143,509.5C 141.908,506.956 141.241,504.289 141,501.5C 140.243,484.792 140.743,468.126 142.5,451.5C 144.096,442.754 145.429,433.921 146.5,425C 147.323,419.725 145.323,417.891 140.5,419.5C 134.792,432.119 129.958,445.119 126,458.5C 125.268,461.711 123.434,463.711 120.5,464.5C 120.579,463.07 120.246,461.736 119.5,460.5C 121.987,427.731 128.32,395.731 138.5,364.5C 139.468,362.393 139.802,360.059 139.5,357.5C 137.473,357.338 135.473,357.505 133.5,358C 126.782,364.782 120.782,372.115 115.5,380C 113.511,380.519 112.511,379.686 112.5,377.5C 116.507,363.495 120.84,349.495 125.5,335.5C 133.946,316.605 143.946,298.605 155.5,281.5C 160.843,276.156 165.843,270.489 170.5,264.5C 176.317,259.524 182.317,254.691 188.5,250C 197.065,244.556 205.731,239.389 214.5,234.5C 226.652,229.671 238.986,225.671 251.5,222.5C 273.691,219.044 296.025,217.711 318.5,218.5 Z"/></g>
<g><path style="opacity:1" fill="#c7c5c3" d="M 511.5,201.5 C 516.984,223.407 520.651,245.741 522.5,268.5C 518.533,246.361 514.866,224.028 511.5,201.5 Z"/></g>
<g><path style="opacity:1" fill="#f0f0f0" d="M 292.5,230.5 C 300.066,233.29 307.4,232.624 314.5,228.5C 328.825,224.536 343.158,224.536 357.5,228.5C 391.378,238.042 414.378,259.376 426.5,292.5C 431.144,306.324 433.477,320.658 433.5,335.5C 433.333,348.504 433.5,361.504 434,374.5C 434.179,378.025 434.679,381.359 435.5,384.5C 436.081,412.306 438.415,439.972 442.5,467.5C 446.438,492.639 453.771,516.639 464.5,539.5C 464.833,540.833 465.167,542.167 465.5,543.5C 465.265,544.097 464.765,544.43 464,544.5C 455.685,540.519 448.185,535.352 441.5,529C 440.552,528.517 439.552,528.351 438.5,528.5C 438.167,527.833 437.833,527.167 437.5,526.5C 435.552,523.379 433.385,520.379 431,517.5C 429.89,515.963 428.39,515.297 426.5,515.5C 426.19,518.713 426.523,521.713 427.5,524.5C 430.32,536.657 432.487,548.99 434,561.5C 424.15,552.485 415.983,542.151 409.5,530.5C 408.853,544.608 411.186,558.275 416.5,571.5C 416.167,571.833 415.833,572.167 415.5,572.5C 406.059,563.059 397.726,552.726 390.5,541.5C 388.771,543.851 388.104,546.518 388.5,549.5C 387.833,553.833 387.167,558.167 386.5,562.5C 382.142,557.627 378.309,552.294 375,546.5C 374.333,545.167 373.667,545.167 373,546.5C 371.377,542.29 369.377,538.29 367,534.5C 364.016,539.473 361.849,544.806 360.5,550.5C 357.936,551.564 356.603,550.564 356.5,547.5C 355.093,545.692 353.926,543.692 353,541.5C 351.021,535.079 349.188,528.745 347.5,522.5C 346.748,515.654 345.248,508.987 343,502.5C 339.726,471.218 342.226,440.551 350.5,410.5C 353.435,402.773 355.769,394.773 357.5,386.5C 360.944,377.826 363.61,368.826 365.5,359.5C 367.878,348.653 370.545,337.986 373.5,327.5C 387.572,292.315 376.572,269.649 340.5,259.5C 337.381,253.747 332.714,249.58 326.5,247C 307.699,240.741 289.032,241.074 270.5,248C 264.927,250.738 260.927,254.905 258.5,260.5C 245.967,262.35 235.467,268.017 227,277.5C 222.599,285.229 220.765,293.562 221.5,302.5C 221.128,310.935 222.461,318.935 225.5,326.5C 234.64,359.716 243.807,393.049 253,426.5C 254.379,433.107 255.213,439.773 255.5,446.5C 255.82,465.909 255.487,485.243 254.5,504.5C 253.458,518.954 250.458,532.954 245.5,546.5C 242.983,547.864 241.149,549.864 240,552.5C 237.95,548.357 236.284,544.024 235,539.5C 234.376,537.246 233.043,535.579 231,534.5C 229.885,538.729 228.219,542.729 226,546.5C 225.333,545.167 224.667,545.167 224,546.5C 220.691,552.294 216.858,557.627 212.5,562.5C 211.833,557.167 211.167,551.833 210.5,546.5C 210.617,544.516 209.95,542.85 208.5,541.5C 201.355,552.788 193.022,563.121 183.5,572.5C 183.167,572.167 182.833,571.833 182.5,571.5C 188.074,558.306 190.408,544.639 189.5,530.5C 183.182,542.137 175.182,552.47 165.5,561.5C 165.167,561 164.833,560.5 164.5,560C 166.531,550.734 168.531,541.567 170.5,532.5C 171.222,532.082 171.722,531.416 172,530.5C 172.499,525.511 172.666,520.511 172.5,515.5C 167.943,518.056 164.277,521.723 161.5,526.5C 156.347,530.81 151.014,534.977 145.5,539C 141.856,541.656 137.856,543.489 133.5,544.5C 133.721,541.933 134.388,539.599 135.5,537.5C 145.898,515.633 152.898,492.633 156.5,468.5C 158.068,466.189 158.902,463.522 159,460.5C 160.724,449.547 162.057,438.547 163,427.5C 164.761,397.859 165.594,368.192 165.5,338.5C 165.396,324.06 167.396,310.06 171.5,296.5C 179.189,272.977 193.189,254.144 213.5,240C 221.239,235.624 229.239,232.124 237.5,229.5C 255.934,223.95 274.267,224.283 292.5,230.5 Z"/></g>
<g><path style="opacity:1" fill="#bcbcbc" d="M 314.5,228.5 C 307.4,232.624 300.066,233.29 292.5,230.5C 294.884,230.443 297.218,230.777 299.5,231.5C 304.482,230.337 309.482,229.337 314.5,228.5 Z"/></g>
<g><path style="opacity:1" fill="#b8b8b8" d="M 357.5,228.5 C 363.331,229.275 368.998,230.775 374.5,233C 400.951,244.946 418.285,264.779 426.5,292.5C 414.378,259.376 391.378,238.042 357.5,228.5 Z"/></g>
<g><path style="opacity:1" fill="#b7b7b7" d="M 214.5,234.5 C 205.731,239.389 197.065,244.556 188.5,250C 182.317,254.691 176.317,259.524 170.5,264.5C 182.777,251.026 197.444,241.026 214.5,234.5 Z"/></g>
<g><path style="opacity:1" fill="#b7b7b7" d="M 237.5,229.5 C 229.239,232.124 221.239,235.624 213.5,240C 193.189,254.144 179.189,272.977 171.5,296.5C 173.588,287.315 177.088,278.649 182,270.5C 194.704,248.96 213.204,235.293 237.5,229.5 Z"/></g>
<g><path style="opacity:1" fill="#302826" d="M 343.5,272.5 C 341.554,279.883 337.888,286.383 332.5,292C 323.781,297.684 314.948,303.184 306,308.5C 301.181,320.111 301.347,331.611 306.5,343C 318.474,345.163 330.474,347.163 342.5,349C 344.081,349.707 345.581,350.54 347,351.5C 347.749,352.635 347.583,353.635 346.5,354.5C 342.558,355.6 338.558,355.767 334.5,355C 323.095,352.519 311.595,350.685 300,349.5C 286.594,351.351 273.261,353.684 260,356.5C 257.739,356.561 255.739,355.894 254,354.5C 253.243,351.524 254.409,349.691 257.5,349C 267.713,346.606 278.047,344.939 288.5,344C 293.404,343.39 295.904,340.557 296,335.5C 297.08,326.674 296.413,318.007 294,309.5C 292.5,308 291,306.5 289.5,305C 278.693,301.187 269.527,295.02 262,286.5C 259.322,281.915 257.155,277.248 255.5,272.5C 258.429,271.462 261.429,270.296 264.5,269C 269.066,260.043 276.399,255.043 286.5,254C 299.064,252.623 311.397,253.623 323.5,257C 328.177,259.844 331.844,263.678 334.5,268.5C 337.412,270.24 340.412,271.573 343.5,272.5 Z"/></g>
<g><path style="opacity:1" fill="#c8c5c4" d="M 84.5,217.5 C 82.2817,235.699 79.6151,253.699 76.5,271.5C 77.7851,253.166 80.4518,235.166 84.5,217.5 Z"/></g>
<g><path style="opacity:1" fill="#bbbbbb" d="M 340.5,259.5 C 376.572,269.649 387.572,292.315 373.5,327.5C 375.014,318.398 376.014,309.232 376.5,300C 377.162,288.658 373.162,279.325 364.5,272C 356.816,266.993 348.816,262.827 340.5,259.5 Z"/></g>
<g><path style="opacity:1" fill="#bbbbbb" d="M 258.5,260.5 C 245.683,263.493 235.183,270.16 227,280.5C 223.78,286.764 222.28,293.43 222.5,300.5C 223.127,309.219 224.127,317.886 225.5,326.5C 222.461,318.935 221.128,310.935 221.5,302.5C 220.765,293.562 222.599,285.229 227,277.5C 235.467,268.017 245.967,262.35 258.5,260.5 Z"/></g>
<g><path style="opacity:1" fill="#c3c2c2" d="M 255.5,272.5 C 257.155,277.248 259.322,281.915 262,286.5C 269.527,295.02 278.693,301.187 289.5,305C 291,306.5 292.5,308 294,309.5C 296.413,318.007 297.08,326.674 296,335.5C 295.904,340.557 293.404,343.39 288.5,344C 278.047,344.939 267.713,346.606 257.5,349C 254.409,349.691 253.243,351.524 254,354.5C 255.739,355.894 257.739,356.561 260,356.5C 273.261,353.684 286.594,351.351 300,349.5C 311.595,350.685 323.095,352.519 334.5,355C 338.558,355.767 342.558,355.6 346.5,354.5C 347.583,353.635 347.749,352.635 347,351.5C 345.581,350.54 344.081,349.707 342.5,349C 330.474,347.163 318.474,345.163 306.5,343C 301.347,331.611 301.181,320.111 306,308.5C 314.948,303.184 323.781,297.684 332.5,292C 337.888,286.383 341.554,279.883 343.5,272.5C 361.579,277.317 369.079,288.983 366,307.5C 360.35,339.099 352.35,370.099 342,400.5C 330.323,439.906 328.656,479.573 337,519.5C 336.25,530.092 333.25,540.092 328,549.5C 325.106,555.795 320.273,558.295 313.5,557C 312.54,555.581 311.707,554.081 311,552.5C 309.071,540.329 306.405,528.329 303,516.5C 300.14,512.417 297.807,512.75 296,517.5C 292.558,528.255 290.225,539.255 289,550.5C 288.047,556.787 284.547,558.954 278.5,557C 273.516,553.334 270.016,548.501 268,542.5C 266,537.167 264,531.833 262,526.5C 261.287,519.4 262.62,512.733 266,506.5C 269.79,471.653 267.124,437.319 258,403.5C 250.711,380.346 244.045,357.013 238,333.5C 235.456,322.616 233.623,311.616 232.5,300.5C 232.117,293.734 233.95,287.734 238,282.5C 243.203,277.984 249.036,274.651 255.5,272.5 Z"/></g>
<g><path style="opacity:1" fill="#c1c1c1" d="M 161.5,290.5 C 162.054,292.771 161.554,295.104 160,297.5C 158.108,306.08 156.774,314.747 156,323.5C 154.235,352.812 152.901,382.146 152,411.5C 147.684,408.501 143.017,407.835 138,409.5C 140.133,394.853 143.8,380.52 149,366.5C 151.817,352.822 146.317,346.488 132.5,347.5C 139.726,327.384 149.392,308.384 161.5,290.5 Z"/></g>
<g><path style="opacity:1" fill="#c1c1c1" d="M 437.5,291.5 C 449.821,308.809 459.488,327.476 466.5,347.5C 455.562,345.62 449.895,350.12 449.5,361C 454.137,377.079 458.47,393.245 462.5,409.5C 459.998,409.251 457.498,408.917 455,408.5C 451.927,408.523 449.26,409.523 447,411.5C 446.157,385.493 445.157,359.493 444,333.5C 443.274,319.252 441.108,305.252 437.5,291.5 Z"/></g>
<g><path style="opacity:1" fill="#c7c5c4" d="M 522.5,270.5 C 525.175,294.279 526.842,318.279 527.5,342.5C 525.102,318.701 523.435,294.701 522.5,270.5 Z"/></g>
<g><path style="opacity:1" fill="#b7b7b7" d="M 155.5,281.5 C 143.946,298.605 133.946,316.605 125.5,335.5C 128.448,326.168 132.281,317.168 137,308.5C 142.201,298.739 148.368,289.739 155.5,281.5 Z"/></g>
<g><path style="opacity:1" fill="#cccac9" d="M 76.5,273.5 C 75.0382,305.184 73.2048,336.851 71,368.5C 70.6174,369.056 70.1174,369.389 69.5,369.5C 71.4702,337.322 73.8036,305.322 76.5,273.5 Z"/></g>
<g><path style="opacity:1" fill="#b7b7b7" d="M 138.5,364.5 C 138.5,362.5 138.5,360.5 138.5,358.5C 137.127,358.343 135.793,358.51 134.5,359C 127.782,365.782 121.782,373.115 116.5,381C 112.499,382.16 111.165,380.994 112.5,377.5C 112.511,379.686 113.511,380.519 115.5,380C 120.782,372.115 126.782,364.782 133.5,358C 135.473,357.505 137.473,357.338 139.5,357.5C 139.802,360.059 139.468,362.393 138.5,364.5 Z"/></g>
<g><path style="opacity:1" fill="#b6b6b6" d="M 365.5,359.5 C 363.61,368.826 360.944,377.826 357.5,386.5C 359.409,377.18 362.076,368.18 365.5,359.5 Z"/></g>
<g><path style="opacity:1" fill="#cdcdcd" d="M 433.5,335.5 C 435.108,351.638 435.775,367.972 435.5,384.5C 434.679,381.359 434.179,378.025 434,374.5C 433.5,361.504 433.333,348.504 433.5,335.5 Z"/></g>
<g><path style="opacity:1" fill="#c3c0bf" d="M 529.5,367.5 C 531.519,380.317 533.186,393.317 534.5,406.5C 532.982,403.466 532.149,400.133 532,396.5C 530.589,386.877 529.755,377.211 529.5,367.5 Z"/></g>
<g><path style="opacity:1" fill="#b6b6b6" d="M 357.5,386.5 C 355.769,394.773 353.435,402.773 350.5,410.5C 351.921,402.136 354.254,394.136 357.5,386.5 Z"/></g>
<g><path style="opacity:1" fill="#c7c5c3" d="M 68.5,378.5 C 68.2539,392.89 66.2539,406.89 62.5,420.5C 64.3081,406.337 66.3081,392.337 68.5,378.5 Z"/></g>
<g><path style="opacity:1" fill="#c9c9c9" d="M 165.5,338.5 C 165.594,368.192 164.761,397.859 163,427.5C 162.057,438.547 160.724,449.547 159,460.5C 158.902,463.522 158.068,466.189 156.5,468.5C 158.941,452.578 160.774,436.578 162,420.5C 162.71,392.987 163.876,365.654 165.5,338.5 Z"/></g>
<g><path style="opacity:1" fill="#cecdcb" d="M 534.5,406.5 C 537.065,418.999 539.398,431.666 541.5,444.5C 540.883,444.389 540.383,444.056 540,443.5C 536.933,431.337 535.1,419.003 534.5,406.5 Z"/></g>
<g><path style="opacity:1" fill="#b4b1af" d="M 541.5,444.5 C 543.042,448.814 544.375,453.314 545.5,458C 545.43,458.765 545.097,459.265 544.5,459.5C 543.025,454.6 542.025,449.6 541.5,444.5 Z"/></g>
<g><path style="opacity:1" fill="#b0adab" d="M 57.5,445.5 C 56.9749,450.6 55.9749,455.6 54.5,460.5C 53.9033,460.265 53.5699,459.765 53.5,459C 54.6246,454.314 55.9579,449.814 57.5,445.5 Z"/></g>
<g><path style="opacity:1" fill="#bebebe" d="M 461.5,426.5 C 465.932,437.619 470.099,448.953 474,460.5C 477.065,466.064 478.899,465.564 479.5,459C 478.463,449.168 477.463,439.334 476.5,429.5C 478.752,439.061 480.085,448.894 480.5,459C 480.369,461.253 479.869,463.419 479,465.5C 476.909,466.5 475.243,465.833 474,463.5C 468.743,451.562 464.576,439.228 461.5,426.5 Z"/></g>
<g><path style="opacity:1" fill="#cdcdcd" d="M 255.5,446.5 C 257.703,463.81 258.036,481.31 256.5,499C 256.453,501.295 255.787,503.129 254.5,504.5C 255.487,485.243 255.82,465.909 255.5,446.5 Z"/></g>
<g><path style="opacity:1" fill="#d6d4d3" d="M 142.5,451.5 C 140.743,468.126 140.243,484.792 141,501.5C 141.241,504.289 141.908,506.956 143,509.5C 147.221,495.67 151.721,482.003 156.5,468.5C 152.898,492.633 145.898,515.633 135.5,537.5C 135.887,532.126 136.554,526.793 137.5,521.5C 138.937,518.67 138.604,516.003 136.5,513.5C 136.433,511.599 136.767,509.766 137.5,508C 136.99,506.174 136.156,506.007 135,507.5C 126.396,524.7 114.896,539.7 100.5,552.5C 100.167,551.833 99.8333,551.167 99.5,550.5C 103.627,535.661 106.96,520.661 109.5,505.5C 119.431,498.751 129.264,491.751 139,484.5C 139.35,473.263 140.516,462.263 142.5,451.5 Z"/></g>
<g><path style="opacity:1" fill="#d6d4d2" d="M 455.5,441.5 C 457.981,455.603 459.814,469.937 461,484.5C 470.201,492.557 480.034,499.557 490.5,505.5C 492.231,520.321 495.231,535.155 499.5,550C 499.167,550.833 498.833,551.667 498.5,552.5C 483.465,539.135 471.465,523.469 462.5,505.5C 461.605,508.375 461.938,511.208 463.5,514C 462.453,515.68 461.787,517.514 461.5,519.5C 462.174,526.232 463.174,532.898 464.5,539.5C 453.771,516.639 446.438,492.639 442.5,467.5C 447.444,481.586 451.944,495.919 456,510.5C 457.943,503.475 459.109,496.308 459.5,489C 458.437,473.14 457.104,457.307 455.5,441.5 Z"/></g>
<g><path style="opacity:1" fill="#b8b8b8" d="M 170.5,532.5 C 171.266,527.18 171.432,521.846 171,516.5C 169,519.167 167,521.833 165,524.5C 164.184,525.823 163.017,526.489 161.5,526.5C 164.277,521.723 167.943,518.056 172.5,515.5C 172.666,520.511 172.499,525.511 172,530.5C 171.722,531.416 171.222,532.082 170.5,532.5 Z"/></g>
<g><path style="opacity:1" fill="#b0b0b0" d="M 437.5,526.5 C 434.258,524.074 431.091,520.74 428,516.5C 427.503,519.146 427.336,521.813 427.5,524.5C 426.523,521.713 426.19,518.713 426.5,515.5C 428.39,515.297 429.89,515.963 431,517.5C 433.385,520.379 435.552,523.379 437.5,526.5 Z"/></g>
<g><path style="opacity:1" fill="#797877" d="M 136.5,513.5 C 138.604,516.003 138.937,518.67 137.5,521.5C 137.84,518.856 137.173,516.523 135.5,514.5C 135.624,513.893 135.957,513.56 136.5,513.5 Z"/></g>
<g><path style="opacity:1" fill="#d5d3d1" d="M 161.5,526.5 C 152.388,542.708 140.888,557.041 127,569.5C 128.393,560.926 130.56,552.592 133.5,544.5C 137.856,543.489 141.856,541.656 145.5,539C 151.014,534.977 156.347,530.81 161.5,526.5 Z"/></g>
<g><path style="opacity:1" fill="#d6d4d2" d="M 438.5,528.5 C 439.552,528.351 440.552,528.517 441.5,529C 448.185,535.352 455.685,540.519 464,544.5C 464.765,544.43 465.265,544.097 465.5,543.5C 467.488,550.423 469.655,557.423 472,564.5C 472.667,566.167 472.667,567.833 472,569.5C 458.729,557.411 447.562,543.744 438.5,528.5 Z"/></g>
<g><path style="opacity:1" fill="#b5b5b5" d="M 347.5,522.5 C 349.188,528.745 351.021,535.079 353,541.5C 353.926,543.692 355.093,545.692 356.5,547.5C 354.112,546.781 352.612,545.115 352,542.5C 349.233,536.101 347.733,529.435 347.5,522.5 Z"/></g>
<g><path style="opacity:1" fill="#888888" d="M 210.5,546.5 C 211.167,551.833 211.833,557.167 212.5,562.5C 212.44,563.043 212.107,563.376 211.5,563.5C 210.505,557.872 210.171,552.206 210.5,546.5 Z"/></g>
<g><path style="opacity:1" fill="#a6a6a6" d="M 388.5,549.5 C 388.827,554.214 388.493,558.88 387.5,563.5C 386.893,563.376 386.56,563.043 386.5,562.5C 387.167,558.167 387.833,553.833 388.5,549.5 Z"/></g>
</svg>
