<?xml version="1.0" encoding="UTF-8"?>
<!DOCTYPE svg PUBLIC "-//W3C//DTD SVG 1.1//EN" "http://www.w3.org/Graphics/SVG/1.1/DTD/svg11.dtd">
<svg xmlns="http://www.w3.org/2000/svg" version="1.1" width="600px" height="600px" style="shape-rendering:geometricPrecision; text-rendering:geometricPrecision; image-rendering:optimizeQuality; fill-rule:evenodd; clip-rule:evenodd" xmlns:xlink="http://www.w3.org/1999/xlink">
<g><path style="opacity:0.945" fill="#060606" d="M 248.5,63.5 C 257.066,63.6464 265.4,65.1464 273.5,68C 281.737,71.3693 289.904,74.8693 298,78.5C 312.027,70.7132 327.027,65.7132 343,63.5C 352.093,64.2349 354.926,68.7349 351.5,77C 363.529,75.5295 375.529,73.5295 387.5,71C 391.833,70.3333 396.167,70.3333 400.5,71C 408.334,76.5947 408,81.928 399.5,87C 413.956,88.5889 428.29,90.9223 442.5,94C 450.855,95.7721 458.022,99.6054 464,105.5C 466.848,110.718 466.015,115.551 461.5,120C 488.514,132.348 512.181,149.348 532.5,171C 548.558,185.947 561.058,203.447 570,223.5C 579.147,232.976 587.147,243.31 594,254.5C 596.733,262.406 595.733,269.74 591,276.5C 590.023,279.241 589.523,282.075 589.5,285C 594.032,305.582 595.865,326.415 595,347.5C 591.828,351.841 589.161,356.508 587,361.5C 586.811,369.508 586.811,377.508 587,385.5C 582.944,394.612 578.611,403.612 574,412.5C 571.991,420.546 572.157,428.546 574.5,436.5C 571.327,444.506 565.66,450.006 557.5,453C 534.851,464.259 512.684,463.426 491,450.5C 487.606,454.898 484.606,459.565 482,464.5C 479.464,468.046 476.13,470.38 472,471.5C 471.228,471.355 470.561,471.022 470,470.5C 469.359,476.099 467.359,481.099 464,485.5C 437.318,513.348 404.985,531.348 367,539.5C 364.739,539.135 362.573,538.469 360.5,537.5C 358.641,539.192 356.641,540.692 354.5,542C 317.833,549.333 281.167,549.333 244.5,542C 242.359,540.692 240.359,539.192 238.5,537.5C 233.94,539.894 229.274,540.061 224.5,538C 189.459,529.074 159.625,511.574 135,485.5C 132.247,480.488 130.413,475.155 129.5,469.5C 127.147,470.565 124.814,470.398 122.5,469C 117.691,463.179 113.025,457.346 108.5,451.5C 97.207,457.324 85.207,460.657 72.5,461.5C 58.5997,459.478 45.5997,454.978 33.5,448C 29.1571,445.013 26.4904,441.013 25.5,436C 28.5334,426.636 28.0334,417.469 24,408.5C 20.0634,401.626 16.3967,394.626 13,387.5C 12.779,379.157 12.779,370.824 13,362.5C 11.5542,357.393 8.88755,353.06 5,349.5C 3.55227,327.706 5.3856,306.206 10.5,285C 8.56623,277.649 6.2329,270.483 3.5,263.5C 4.19543,258.104 6.02876,253.104 9,248.5C 16.2888,238.876 23.9555,229.542 32,220.5C 37.4092,207.785 44.4092,196.118 53,185.5C 66.63,171.969 80.4633,158.802 94.5,146C 107.333,136.411 121,128.078 135.5,121C 128.033,115.011 127.7,108.678 134.5,102C 141.524,97.4351 149.19,94.4351 157.5,93C 170.109,90.6272 182.776,88.6272 195.5,87C 190.268,84.3674 188.435,80.2008 190,74.5C 191.319,72.5125 193.152,71.3459 195.5,71C 199.5,70.3333 203.5,70.3333 207.5,71C 218.847,73.1027 230.18,75.2693 241.5,77.5C 242.167,77.1667 242.833,76.8333 243.5,76.5C 240.945,70.2911 242.612,65.9578 248.5,63.5 Z"/></g>
<g><path style="opacity:1" fill="#f5f5f5" d="M 467.5,136.5 C 471.347,139.593 475.68,141.926 480.5,143.5C 491.627,149.455 501.46,157.122 510,166.5C 511.128,168.345 511.628,170.345 511.5,172.5C 506.501,171.916 501.501,171.749 496.5,172C 495.196,172.804 494.529,173.971 494.5,175.5C 500.421,188.084 506.255,200.751 512,213.5C 515.27,221.642 517.936,229.976 520,238.5C 521.157,243.318 520.324,247.651 517.5,251.5C 521.829,286.556 521.329,321.556 516,356.5C 514.946,363.606 513.446,370.606 511.5,377.5C 510.562,378.553 509.395,379.22 508,379.5C 502.419,378.499 502.086,379.832 507,383.5C 507.808,385.423 508.308,387.423 508.5,389.5C 502.097,416.805 490.431,441.639 473.5,464C 471.711,464.52 470.044,464.187 468.5,463C 466.667,461.167 464.833,459.333 463,457.5C 462.667,457.833 462.333,458.167 462,458.5C 461.958,461.968 462.125,465.468 462.5,469C 462.672,472.477 462.006,475.644 460.5,478.5C 458.825,476.998 456.992,475.665 455,474.5C 449.47,463.759 446.97,452.426 447.5,440.5C 444.983,405.342 433.483,373.675 413,345.5C 389.831,317.992 360.331,301.492 324.5,296C 302.953,293.173 281.62,294.173 260.5,299C 215.164,309.005 182.998,335.171 164,377.5C 152.713,401.603 147.713,426.937 149,453.5C 149.728,467.376 154.895,479.209 164.5,489C 165.483,489.591 166.15,489.257 166.5,488C 167.717,476.517 168.884,465.017 170,453.5C 171.561,447.044 172.894,447.044 174,453.5C 174.333,463.167 174.667,472.833 175,482.5C 175.536,487.52 176.703,492.354 178.5,497C 182.949,499.875 187.616,501.375 192.5,501.5C 193.694,489.813 195.027,478.147 196.5,466.5C 203.514,479.198 210.514,491.865 217.5,504.5C 218.274,505.711 219.107,505.711 220,504.5C 221.352,501.28 222.186,497.947 222.5,494.5C 237.5,508.833 252.167,523.5 266.5,538.5C 259.687,538.775 253.021,537.942 246.5,536C 242.507,533.181 240.84,529.347 241.5,524.5C 240.178,524.33 239.011,524.663 238,525.5C 237.631,529.968 235.297,532.302 231,532.5C 195.33,524.788 164.996,507.788 140,481.5C 139.138,479.913 138.471,478.246 138,476.5C 137.667,470.5 137.333,464.5 137,458.5C 136.586,458.043 136.086,457.709 135.5,457.5C 133.064,461.214 129.731,463.047 125.5,463C 109.275,440.852 97.9415,416.352 91.5,389.5C 92.3198,385.026 94.3198,381.193 97.5,378C 97.1667,377.5 96.8333,377 96.5,376.5C 93.9049,378.159 91.2382,378.493 88.5,377.5C 86.4467,370.561 84.7801,363.561 83.5,356.5C 83.5621,351.924 82.8955,347.591 81.5,343.5C 81.624,337.931 80.9573,332.598 79.5,327.5C 77.8531,300.744 78.3531,274.077 81,247.5C 79.6043,249.527 77.9376,249.86 76,248.5C 75.3333,244.167 75.3333,239.833 76,235.5C 80.2853,221.141 85.452,207.141 91.5,193.5C 95.2881,187.588 98.2881,181.255 100.5,174.5C 100.5,173.5 100.5,172.5 100.5,171.5C 94.828,171.76 89.1613,172.093 83.5,172.5C 85.6688,165.807 89.6688,160.307 95.5,156C 107.731,147.466 120.731,140.132 134.5,134C 137.423,131.955 140.257,129.788 143,127.5C 144.373,125.305 144.706,122.971 144,120.5C 142.14,117.728 139.806,115.395 137,113.5C 135.835,109.316 137.335,106.483 141.5,105C 146.951,102.405 152.618,100.405 158.5,99C 175.5,96.3676 192.5,93.8676 209.5,91.5C 210.282,89.6707 209.616,88.1707 207.5,87C 203.667,84.5 199.833,82 196,79.5C 195.383,78.5509 195.549,77.7175 196.5,77C 199.167,76.3333 201.833,76.3333 204.5,77C 218.504,79.5677 232.504,82.0677 246.5,84.5C 248.167,84.3333 249.833,84.1667 251.5,84C 252.308,79.5528 251.308,75.3862 248.5,71.5C 252.459,70.3401 256.459,70.1735 260.5,71C 266.912,72.7032 273.245,74.7032 279.5,77C 285.431,80.1337 291.431,82.9671 297.5,85.5C 305.998,81.4206 314.665,77.5873 323.5,74C 330.907,71.1327 338.574,69.966 346.5,70.5C 345.462,74.2482 344.129,77.9149 342.5,81.5C 342.608,82.4419 342.941,83.2753 343.5,84C 358.972,82.8846 374.305,80.5512 389.5,77C 392.5,76.3333 395.5,76.3333 398.5,77C 399.727,78.5874 399.394,79.9207 397.5,81C 393.247,83.7097 389.08,86.543 385,89.5C 384.383,90.4491 384.549,91.2825 385.5,92C 400.81,94.1457 416.144,96.1457 431.5,98C 439.035,99.734 446.368,102.067 453.5,105C 456.179,106.346 458.179,108.346 459.5,111C 457.385,114.118 454.885,116.952 452,119.5C 450.132,122.939 450.632,126.106 453.5,129C 457.744,132.288 462.41,134.788 467.5,136.5 Z"/></g>
<g><path style="opacity:1" fill="#444444" d="M 467.5,136.5 C 472.32,138.074 476.653,140.407 480.5,143.5C 475.68,141.926 471.347,139.593 467.5,136.5 Z"/></g>
<g><path style="opacity:1" fill="#60605f" d="M 517.5,173.5 C 526.734,179.897 534.901,187.563 542,196.5C 548.173,206.175 553.84,216.175 559,226.5C 566,234.833 573,243.167 580,251.5C 582.505,255.011 584.339,258.844 585.5,263C 583.812,267.545 581.979,272.045 580,276.5C 579.371,279.311 578.871,282.144 578.5,285C 583.259,304.523 585.426,324.356 585,344.5C 580.413,349.673 577.413,355.673 576,362.5C 576.237,370.156 576.237,377.823 576,385.5C 573,390.833 570,396.167 567,401.5C 564.731,406.64 563.065,411.973 562,417.5C 561.496,423.931 561.829,430.265 563,436.5C 559.707,439.787 555.873,442.287 551.5,444C 532.205,453.43 513.539,452.43 495.5,441C 505.749,423.056 512.249,403.889 515,383.5C 516.74,382.284 517.74,380.618 518,378.5C 527.518,336.986 529.685,295.153 524.5,253C 525.191,251.933 525.691,250.766 526,249.5C 526.667,244.167 526.667,238.833 526,233.5C 520.357,214.741 512.857,196.741 503.5,179.5C 507.428,179.919 511.428,179.419 515.5,178C 517.037,176.89 517.703,175.39 517.5,173.5 Z"/></g>
<g><path style="opacity:1" fill="#60605f" d="M 77.5,175.5 C 81.507,179.287 86.1737,180.454 91.5,179C 81.8447,196.964 74.3447,215.797 69,235.5C 68.3333,239.833 68.3333,244.167 69,248.5C 70.7601,251.411 72.2601,254.411 73.5,257.5C 69.5425,297.888 72.0425,337.888 81,377.5C 81.6898,380.196 83.1898,382.363 85.5,384C 84.3895,386.737 84.2228,389.571 85,392.5C 89.2996,409.234 95.4662,425.234 103.5,440.5C 89.8545,450.191 74.8545,452.691 58.5,448C 50.9422,445.554 43.9422,442.054 37.5,437.5C 37.2319,429.873 37.0652,422.206 37,414.5C 34.1976,403.896 29.5309,394.23 23,385.5C 23.1768,376.84 23.1768,368.174 23,359.5C 21.883,353.931 19.2163,349.264 15,345.5C 14.9119,335.168 15.2452,324.835 16,314.5C 17.4363,304.486 18.9363,294.486 20.5,284.5C 20.3333,282.167 20.1667,279.833 20,277.5C 18.1475,272.6 16.3142,267.767 14.5,263C 15.4567,257.92 17.6234,253.42 21,249.5C 27.7071,242.462 34.0404,235.128 40,227.5C 45.0795,217.673 50.4129,208.006 56,198.5C 63.005,190.662 70.1717,182.996 77.5,175.5 Z"/></g>
<g><path style="opacity:1" fill="#3f3f3f" d="M 100.5,174.5 C 98.2881,181.255 95.2881,187.588 91.5,193.5C 93.7119,186.745 96.7119,180.412 100.5,174.5 Z"/></g>
<g><path style="opacity:1" fill="#626261" d="M 223.5,229.5 C 222.711,229.217 222.044,228.717 221.5,228C 209.426,227.267 197.426,227.934 185.5,230C 181.875,230.566 178.542,231.732 175.5,233.5C 175.083,232.876 174.416,232.543 173.5,232.5C 165.951,235.077 158.284,236.911 150.5,238C 147.71,235.79 146.877,232.956 148,229.5C 149.793,226.705 151.96,224.205 154.5,222C 180.1,202.767 208.767,195.433 240.5,200C 248.111,201.946 253.611,206.446 257,213.5C 258.175,220.307 256.008,225.807 250.5,230C 242.451,230.495 234.451,229.995 226.5,228.5C 225.274,228.52 224.274,228.853 223.5,229.5 Z"/></g>
<g><path style="opacity:1" fill="#626261" d="M 420.5,233.5 C 411.873,230.391 402.873,228.558 393.5,228C 387.167,227.333 380.833,227.333 374.5,228C 373.956,228.717 373.289,229.217 372.5,229.5C 371.207,228.842 369.707,228.508 368,228.5C 360.835,229.756 353.669,230.589 346.5,231C 335.942,222.06 335.942,213.06 346.5,204C 349.382,202.392 352.382,201.059 355.5,200C 387.238,195.434 415.905,202.768 441.5,222C 446.258,225.347 448.425,229.847 448,235.5C 444.693,238.765 440.86,239.265 436.5,237C 431.149,234.701 425.816,233.534 420.5,233.5 Z"/></g>
<g><path style="opacity:1" fill="#261c19" d="M 223.5,229.5 C 232.215,242.095 232.715,255.095 225,268.5C 208.494,284.155 192.161,283.822 176,267.5C 169.071,256.043 168.904,244.71 175.5,233.5C 178.542,231.732 181.875,230.566 185.5,230C 197.426,227.934 209.426,227.267 221.5,228C 222.044,228.717 222.711,229.217 223.5,229.5 Z"/></g>
<g><path style="opacity:1" fill="#241a17" d="M 420.5,233.5 C 425.656,244.031 425.822,254.698 421,265.5C 409.003,280.589 394.503,283.756 377.5,275C 366.667,265.836 362.834,254.336 366,240.5C 367.661,236.508 369.827,232.842 372.5,229.5C 373.289,229.217 373.956,228.717 374.5,228C 380.833,227.333 387.167,227.333 393.5,228C 402.873,228.558 411.873,230.391 420.5,233.5 Z"/></g>
<g><path style="opacity:1" fill="#ededed" d="M 210.5,234.5 C 219.539,236.068 221.539,240.568 216.5,248C 210.365,250.568 206.365,248.568 204.5,242C 205.622,238.72 207.622,236.22 210.5,234.5 Z"/></g>
<g><path style="opacity:1" fill="#e9e9e9" d="M 403.5,234.5 C 411.554,234.966 414.388,238.966 412,246.5C 407.291,250.769 402.958,250.436 399,245.5C 397.776,240.626 399.276,236.959 403.5,234.5 Z"/></g>
<g><path style="opacity:1" fill="#ece7dc" d="M 447.5,440.5 C 447.917,455.831 444.417,470.164 437,483.5C 434.984,485.684 432.817,487.684 430.5,489.5C 429.515,487.228 428.681,484.895 428,482.5C 427.732,473.135 427.065,463.802 426,454.5C 425.381,451.968 424.381,449.635 423,447.5C 422.176,463.216 420.843,478.883 419,494.5C 418.626,495.416 418.126,496.25 417.5,497C 413.299,498.841 409.132,500.675 405,502.5C 404.055,502.095 403.388,501.428 403,500.5C 401.919,488.655 400.253,476.988 398,465.5C 392.078,476.343 386.411,487.343 381,498.5C 379.327,501.001 377.493,503.334 375.5,505.5C 374.914,505.291 374.414,504.957 374,504.5C 372.665,498.471 371.331,492.471 370,486.5C 363.131,494.039 355.131,500.039 346,504.5C 346,501.833 346,499.167 346,496.5C 342.535,500.967 338.702,505.133 334.5,509C 312.04,517.943 289.373,518.609 266.5,511C 260.139,507.813 254.806,503.313 250.5,497.5C 250.502,499.741 250.168,502.074 249.5,504.5C 239.832,499.842 231.498,493.509 224.5,485.5C 223.068,488.327 222.401,491.327 222.5,494.5C 222.186,497.947 221.352,501.28 220,504.5C 219.107,505.711 218.274,505.711 217.5,504.5C 210.514,491.865 203.514,479.198 196.5,466.5C 195.027,478.147 193.694,489.813 192.5,501.5C 187.616,501.375 182.949,499.875 178.5,497C 176.703,492.354 175.536,487.52 175,482.5C 174.667,472.833 174.333,463.167 174,453.5C 172.894,447.044 171.561,447.044 170,453.5C 168.884,465.017 167.717,476.517 166.5,488C 166.15,489.257 165.483,489.591 164.5,489C 154.895,479.209 149.728,467.376 149,453.5C 147.713,426.937 152.713,401.603 164,377.5C 182.998,335.171 215.164,309.005 260.5,299C 281.62,294.173 302.953,293.173 324.5,296C 360.331,301.492 389.831,317.992 413,345.5C 433.483,373.675 444.983,405.342 447.5,440.5 Z"/></g>
<g><path style="opacity:1" fill="#060505" d="M 289.5,321.5 C 300.513,320.608 311.18,322.108 321.5,326C 329.413,330.666 332.246,337.499 330,346.5C 322.536,366.482 308.369,374.315 287.5,370C 274.18,364.528 266.847,354.695 265.5,340.5C 266.227,332.262 270.56,326.762 278.5,324C 282.312,323.205 285.979,322.371 289.5,321.5 Z"/></g>
<g><path style="opacity:1" fill="#231815" d="M 293.5,327.5 C 300.915,327.639 308.248,328.472 315.5,330C 318.884,331.932 321.718,334.432 324,337.5C 323.847,349.948 318.013,358.782 306.5,364C 292.478,367.411 281.645,362.911 274,350.5C 268.949,341.218 271.116,334.384 280.5,330C 284.965,329.126 289.298,328.293 293.5,327.5 Z"/></g>
<g><path style="opacity:1" fill="#484848" d="M 79.5,327.5 C 80.9573,332.598 81.624,337.931 81.5,343.5C 80.1937,338.384 79.527,333.051 79.5,327.5 Z"/></g>
<g><path style="opacity:1" fill="#5a5a59" d="M 81.5,343.5 C 82.8955,347.591 83.5621,351.924 83.5,356.5C 82.1045,352.409 81.4379,348.076 81.5,343.5 Z"/></g>
<g><path style="opacity:1" fill="#2a201c" d="M 286.5,387.5 C 293.841,387.334 301.174,387.5 308.5,388C 309.38,389.356 309.714,390.856 309.5,392.5C 301.828,393.786 294.162,393.786 286.5,392.5C 286.5,390.833 286.5,389.167 286.5,387.5 Z"/></g>
<g><path style="opacity:1" fill="#e9e9e9" d="M 447.5,440.5 C 446.97,452.426 449.47,463.759 455,474.5C 456.992,475.665 458.825,476.998 460.5,478.5C 445.233,496.25 426.9,510.083 405.5,520C 393.28,525.614 380.614,529.781 367.5,532.5C 366.167,532.167 364.833,531.833 363.5,531.5C 362.5,529.5 361.5,527.5 360.5,525.5C 359.675,524.614 358.675,524.281 357.5,524.5C 358.019,531.809 354.686,535.976 347.5,537C 320.506,540.949 293.506,541.449 266.5,538.5C 252.167,523.5 237.5,508.833 222.5,494.5C 222.401,491.327 223.068,488.327 224.5,485.5C 231.498,493.509 239.832,499.842 249.5,504.5C 250.168,502.074 250.502,499.741 250.5,497.5C 254.806,503.313 260.139,507.813 266.5,511C 289.373,518.609 312.04,517.943 334.5,509C 338.702,505.133 342.535,500.967 346,496.5C 346,499.167 346,501.833 346,504.5C 355.131,500.039 363.131,494.039 370,486.5C 371.331,492.471 372.665,498.471 374,504.5C 374.414,504.957 374.914,505.291 375.5,505.5C 377.493,503.334 379.327,501.001 381,498.5C 386.411,487.343 392.078,476.343 398,465.5C 400.253,476.988 401.919,488.655 403,500.5C 403.388,501.428 404.055,502.095 405,502.5C 409.132,500.675 413.299,498.841 417.5,497C 418.126,496.25 418.626,495.416 419,494.5C 420.843,478.883 422.176,463.216 423,447.5C 424.381,449.635 425.381,451.968 426,454.5C 427.065,463.802 427.732,473.135 428,482.5C 428.681,484.895 429.515,487.228 430.5,489.5C 432.817,487.684 434.984,485.684 437,483.5C 444.417,470.164 447.917,455.831 447.5,440.5 Z"/></g>
</svg>
