<?xml version="1.0" encoding="UTF-8"?>
<!DOCTYPE svg PUBLIC "-//W3C//DTD SVG 1.1//EN" "http://www.w3.org/Graphics/SVG/1.1/DTD/svg11.dtd">
<svg xmlns="http://www.w3.org/2000/svg" version="1.1" width="600px" height="600px" style="shape-rendering:geometricPrecision; text-rendering:geometricPrecision; image-rendering:optimizeQuality; fill-rule:evenodd; clip-rule:evenodd" xmlns:xlink="http://www.w3.org/1999/xlink">
<g><path style="opacity:0.95" fill="#010100" d="M 173.5,52.5 C 181.585,52.0989 189.585,52.5989 197.5,54C 203.545,60.7735 207.711,68.6069 210,77.5C 211.918,80.4277 214.585,82.0943 218,82.5C 270.32,64.4538 322.82,63.9538 375.5,81C 380.152,82.1931 384.319,81.3597 388,78.5C 391.45,69.2347 396.617,61.2347 403.5,54.5C 408.013,52.9716 412.68,52.3049 417.5,52.5C 476.448,58.9826 532.448,75.4826 585.5,102C 590.026,103.859 593.192,107.026 595,111.5C 596.248,119.796 595.248,127.796 592,135.5C 577.6,163.442 558.1,187.275 533.5,207C 527.764,211.064 521.764,214.73 515.5,218C 512.525,223.045 510.692,228.545 510,234.5C 511.558,277.927 505.558,320.261 492,361.5C 487.155,374.192 481.488,386.525 475,398.5C 463.667,416.5 452.333,434.5 441,452.5C 431.805,473.084 422.805,493.751 414,514.5C 390.053,560.898 351.886,583.231 299.5,581.5C 241.896,582.73 202.063,556.73 180,503.5C 173.862,488.086 167.529,472.753 161,457.5C 147.749,436.668 134.749,415.668 122,394.5C 103.064,357.093 92.3977,317.427 90,275.5C 89.6667,261.5 89.3333,247.5 89,233.5C 88.2942,228.01 86.9608,222.677 85,217.5C 50.4989,196.67 24.8322,168.003 8,131.5C 4.94812,123.764 4.94812,116.098 8,108.5C 9.16667,106.667 10.6667,105.167 12.5,104C 63.5427,78.2621 117.209,61.0955 173.5,52.5 Z"/></g>
<g><path style="opacity:1" fill="#4e4542" d="M 192.5,65.5 C 166.181,93.129 149.014,125.796 141,163.5C 137.966,179.397 135.299,195.397 133,211.5C 131.972,216.605 129.805,221.105 126.5,225C 124.361,226.404 122.028,227.237 119.5,227.5C 112,226.964 104.667,225.631 97.5,223.5C 96.815,218.777 95.1483,214.443 92.5,210.5C 60.4782,190.649 35.9782,163.982 19,130.5C 16.5451,124.996 16.0451,119.33 17.5,113.5C 69.657,86.292 124.99,69.292 183.5,62.5C 185.833,62.6667 188.167,62.8333 190.5,63C 191.381,63.7083 192.047,64.5416 192.5,65.5 Z"/></g>
<g><path style="opacity:1" fill="#4e4542" d="M 501.5,223.5 C 493.453,227.371 485.12,228.205 476.5,226C 471.676,221.578 468.842,216.078 468,209.5C 465.494,164.649 451.827,123.649 427,86.5C 421.624,78.9631 415.458,72.2964 408.5,66.5C 409.141,65.5178 409.807,64.5178 410.5,63.5C 415.467,62.3377 420.467,62.1711 425.5,63C 473.254,70.251 519.254,83.5843 563.5,103C 570.905,106.452 578.072,110.285 585,114.5C 585.867,119.697 585.2,124.697 583,129.5C 569.755,157.092 550.921,180.258 526.5,199C 520.998,202.585 515.331,205.919 509.5,209C 504.877,212.745 502.21,217.579 501.5,223.5 Z"/></g>
<g><path style="opacity:1" fill="#352d2b" d="M 192.5,65.5 C 194.474,67.428 195.974,69.7613 197,72.5C 199.196,84.3653 206.196,91.0319 218,92.5C 232.108,88.7978 246.275,85.2978 260.5,82C 300.008,75.9294 338.675,79.2628 376.5,92C 384.091,93.0253 390.591,90.8586 396,85.5C 399,79.8333 402,74.1667 405,68.5C 405.816,67.1772 406.983,66.5106 408.5,66.5C 415.458,72.2964 421.624,78.9631 427,86.5C 451.827,123.649 465.494,164.649 468,209.5C 468.842,216.078 471.676,221.578 476.5,226C 485.12,228.205 493.453,227.371 501.5,223.5C 500.895,226.127 500.395,228.793 500,231.5C 500.831,260.511 498.331,289.178 492.5,317.5C 488.668,318.818 485.501,321.152 483,324.5C 473,343.167 463,361.833 453,380.5C 438.569,404.064 417.402,416.397 389.5,417.5C 380.179,416.92 371.179,414.92 362.5,411.5C 362.167,411.833 361.833,412.167 361.5,412.5C 371.05,437.984 378.884,463.984 385,490.5C 388.083,506.149 388.25,521.816 385.5,537.5C 363.521,562.564 335.687,573.897 302,571.5C 266.133,574.629 236.3,562.963 212.5,536.5C 210.463,516.48 211.963,496.48 217,476.5C 224.035,454.068 231.035,431.734 238,409.5C 226.5,415.028 214.333,416.861 201.5,415C 174.36,412.866 154.86,399.7 143,375.5C 135.607,359.046 127.94,342.713 120,326.5C 117.553,322.216 114.053,319.216 109.5,317.5C 108.287,317.747 107.62,318.414 107.5,319.5C 104.526,307.784 102.359,295.784 101,283.5C 100.667,267.167 100.333,250.833 100,234.5C 99.5908,230.698 98.7575,227.031 97.5,223.5C 104.667,225.631 112,226.964 119.5,227.5C 122.028,227.237 124.361,226.404 126.5,225C 129.805,221.105 131.972,216.605 133,211.5C 135.299,195.397 137.966,179.397 141,163.5C 149.014,125.796 166.181,93.129 192.5,65.5 Z"/></g>
<g><path style="opacity:1" fill="#3d3432" d="M 212.5,225.5 C 231.852,223.693 241.352,232.36 241,251.5C 236.186,261.549 228.686,264.049 218.5,259C 211.076,255.712 204.909,250.879 200,244.5C 198,240.833 198,237.167 200,233.5C 203.671,229.923 207.838,227.256 212.5,225.5 Z"/></g>
<g><path style="opacity:1" fill="#3d3432" d="M 377.5,224.5 C 384.364,225.177 390.698,227.343 396.5,231C 401.798,236.897 401.632,242.73 396,248.5C 388.202,256.651 378.702,260.818 367.5,261C 362.36,259.86 359.193,256.694 358,251.5C 356.673,236.813 363.173,227.813 377.5,224.5 Z"/></g>
<g><path style="opacity:1" fill="#4d4441" d="M 187.5,260.5 C 208.763,259.874 222.93,269.541 230,289.5C 232.923,313.163 223.09,328.663 200.5,336C 183.726,338.194 170.559,332.361 161,318.5C 149.594,289.78 158.427,270.446 187.5,260.5 Z"/></g>
<g><path style="opacity:1" fill="#4d4441" d="M 396.5,261.5 C 419.992,258.65 435.492,268.317 443,290.5C 445.223,314.573 434.723,329.74 411.5,336C 389.708,337.185 375.542,327.352 369,306.5C 366.461,284.231 375.628,269.231 396.5,261.5 Z"/></g>
<g><path style="opacity:1" fill="#010101" d="M 186.5,272.5 C 209.166,271.334 219.999,282 219,304.5C 212.715,321.893 200.549,328.06 182.5,323C 169.949,315.723 165.116,304.89 168,290.5C 171.441,281.557 177.608,275.557 186.5,272.5 Z"/></g>
<g><path style="opacity:1" fill="#010101" d="M 400.5,272.5 C 419.022,271.25 429.689,279.75 432.5,298C 428.502,320.503 415.502,328.503 393.5,322C 380.192,312.648 376.692,300.482 383,285.5C 387.089,278.565 392.923,274.232 400.5,272.5 Z"/></g>
<g><path style="opacity:1" fill="#f4f4f4" d="M 197.5,280.5 C 208.747,280.232 212.247,285.232 208,295.5C 202.286,299.969 197.286,299.303 193,293.5C 191.379,287.923 192.879,283.589 197.5,280.5 Z"/></g>
<g><path style="opacity:1" fill="#f4f4f4" d="M 410.5,280.5 C 420.659,279.158 424.826,283.491 423,293.5C 418.628,299.174 413.628,299.841 408,295.5C 404.253,289.734 405.087,284.734 410.5,280.5 Z"/></g>
<g><path style="opacity:1" fill="#3d3432" d="M 212.5,536.5 C 207.087,530.903 202.587,524.57 199,517.5C 187.752,494.085 177.085,470.418 167,446.5C 150.822,422.825 136.156,398.158 123,372.5C 115.499,355.49 110.332,337.824 107.5,319.5C 107.62,318.414 108.287,317.747 109.5,317.5C 114.053,319.216 117.553,322.216 120,326.5C 127.94,342.713 135.607,359.046 143,375.5C 154.86,399.7 174.36,412.866 201.5,415C 214.333,416.861 226.5,415.028 238,409.5C 231.035,431.734 224.035,454.068 217,476.5C 211.963,496.48 210.463,516.48 212.5,536.5 Z"/></g>
<g><path style="opacity:1" fill="#3d3432" d="M 492.5,317.5 C 487.44,347.511 476.94,375.511 461,401.5C 450.75,416.997 440.75,432.664 431,448.5C 421.883,470.735 412.216,492.735 402,514.5C 397.459,522.939 391.959,530.606 385.5,537.5C 388.25,521.816 388.083,506.149 385,490.5C 378.884,463.984 371.05,437.984 361.5,412.5C 361.833,412.167 362.167,411.833 362.5,411.5C 371.179,414.92 380.179,416.92 389.5,417.5C 417.402,416.397 438.569,404.064 453,380.5C 463,361.833 473,343.167 483,324.5C 485.501,321.152 488.668,318.818 492.5,317.5 Z"/></g>
<g><path style="opacity:1" fill="#000000" d="M 282.5,469.5 C 292.506,469.334 302.506,469.5 312.5,470C 319.791,470.986 326.791,472.986 333.5,476C 333.167,476.333 332.833,476.667 332.5,477C 347.331,485.499 353.497,498.332 351,515.5C 347.745,536.75 335.911,550.583 315.5,557C 298.093,562.542 281.426,560.875 265.5,552C 245.887,536.994 239.387,517.494 246,493.5C 248.872,486.243 253.705,480.743 260.5,477C 267.639,473.559 274.973,471.059 282.5,469.5 Z"/></g>
</svg>
