<?xml version="1.0" encoding="UTF-8"?>
<!DOCTYPE svg PUBLIC "-//W3C//DTD SVG 1.1//EN" "http://www.w3.org/Graphics/SVG/1.1/DTD/svg11.dtd">
<svg xmlns="http://www.w3.org/2000/svg" version="1.1" width="600px" height="600px" style="shape-rendering:geometricPrecision; text-rendering:geometricPrecision; image-rendering:optimizeQuality; fill-rule:evenodd; clip-rule:evenodd" xmlns:xlink="http://www.w3.org/1999/xlink">
<g><path style="opacity:0.974" fill="#030303" d="M 164.5,-0.5 C 178.5,-0.5 192.5,-0.5 206.5,-0.5C 213.199,4.86814 218.866,11.2015 223.5,18.5C 248.928,13.7491 274.595,11.7491 300.5,12.5C 326.076,11.7426 351.41,13.7426 376.5,18.5C 381.134,11.2015 386.801,4.86814 393.5,-0.5C 407.5,-0.5 421.5,-0.5 435.5,-0.5C 468.188,11.3324 500.855,23.4991 533.5,36C 548.889,42.1043 562.722,50.6043 575,61.5C 583.335,72.8418 586.335,85.5084 584,99.5C 581.856,109.267 578.522,118.6 574,127.5C 562.057,145.775 549.724,163.775 537,181.5C 528.65,195.868 521.65,210.868 516,226.5C 508.676,235.8 500.176,237.3 490.5,231C 487.639,228.106 485.139,224.939 483,221.5C 481.641,246.839 480.641,272.173 480,297.5C 498.77,318.064 508.436,342.398 509,370.5C 511.209,408.661 502.876,444.328 484,477.5C 480.579,482.471 476.079,484.471 470.5,483.5C 467.934,497.632 461.434,509.632 451,519.5C 449.094,534.473 444.427,548.473 437,561.5C 435.167,563.333 433.333,565.167 431.5,567C 429.122,567.511 426.788,568.178 424.5,569C 423.505,572.654 421.505,575.654 418.5,578C 413.151,582.174 407.151,585.007 400.5,586.5C 393.461,585.627 389.627,581.627 389,574.5C 386.667,578.5 384.333,582.5 382,586.5C 375.579,591.982 369.412,591.649 363.5,585.5C 355.234,590.462 346.901,595.129 338.5,599.5C 312.833,599.5 287.167,599.5 261.5,599.5C 252.909,594.762 244.409,589.762 236,584.5C 229.991,590.691 223.658,591.024 217,585.5C 215.08,582.661 213.413,579.661 212,576.5C 209.291,584.27 204.125,587.104 196.5,585C 191.207,582.687 186.207,579.854 181.5,576.5C 179.095,574.358 177.762,571.691 177.5,568.5C 173.821,568.249 170.487,567.082 167.5,565C 162.399,558.894 158.566,552.061 156,544.5C 153.999,536.495 151.999,528.495 150,520.5C 138.928,511.023 132.594,499.023 131,484.5C 123.273,484.447 117.607,480.78 114,473.5C 91.714,432.498 85.3807,389.165 95,343.5C 99.5066,326.017 107.84,310.684 120,297.5C 119.641,271.82 118.641,246.154 117,220.5C 111.584,232.463 102.751,236.63 90.5,233C 88.9095,231.954 87.4095,230.787 86,229.5C 79.7575,213.68 72.4242,198.347 64,183.5C 52,166.167 40,148.833 28,131.5C 20.4924,118.644 15.9924,104.81 14.5,90C 15.8568,70.6497 25.1901,56.6497 42.5,48C 55.7761,40.8625 69.4427,34.5292 83.5,29C 110.713,19.4321 137.713,9.59875 164.5,-0.5 Z"/></g>
<g><path style="opacity:1" fill="#d3d0d1" d="M 215.5,30.5 C 215.141,32.371 214.141,33.871 212.5,35C 209.404,36.8718 206.404,38.7052 203.5,40.5C 198.335,42.3375 194.001,45.3375 190.5,49.5C 184.5,53.5 179.5,58.5 175.5,64.5C 171.874,67.0948 169.208,70.4281 167.5,74.5C 163.39,78.9508 160.056,83.9508 157.5,89.5C 157.25,91.674 156.25,93.3406 154.5,94.5C 149.459,101.914 145.459,109.914 142.5,118.5C 135.339,133.638 129.339,149.305 124.5,165.5C 120.167,183.332 114.334,200.665 107,217.5C 104.962,222.232 101.462,224.399 96.5,224C 95.0692,223.535 93.9025,222.701 93,221.5C 80.9138,189.462 63.9138,160.462 42,134.5C 32.4094,120.818 26.9094,105.652 25.5,89C 25.822,78.356 30.1553,69.6893 38.5,63C 48.7605,55.7618 59.7605,49.7618 71.5,45C 107.1,31.4669 142.767,18.1335 178.5,5C 187.284,3.1916 195.284,4.85827 202.5,10C 206.369,13.5338 209.869,17.3672 213,21.5C 214.908,24.2065 215.741,27.2065 215.5,30.5 Z"/></g>
<g><path style="opacity:1" fill="#d3d0d1" d="M 475.5,167.5 C 475.605,163.313 474.772,159.313 473,155.5C 469.86,149.225 467.027,142.891 464.5,136.5C 462.733,134.208 461.733,131.542 461.5,128.5C 456.18,112.19 448.513,97.1904 438.5,83.5C 435.985,77.6522 432.318,72.6522 427.5,68.5C 425.086,67.0892 423.419,65.0892 422.5,62.5C 419.5,57.5 415.5,53.5 410.5,50.5C 404.511,43.8675 397.178,39.2009 388.5,36.5C 385.74,35.577 383.74,33.7437 382.5,31C 386.315,18.517 394.315,9.85037 406.5,5C 410.833,4.33333 415.167,4.33333 419.5,5C 457.286,18.7283 494.952,32.7283 532.5,47C 541.485,51.158 550.152,55.8246 558.5,61C 571.168,69.5077 576.335,81.3411 574,96.5C 571.202,109.428 566.202,121.428 559,132.5C 540.081,155.311 524.414,180.311 512,207.5C 510.451,212.717 508.451,217.717 506,222.5C 501.166,225.441 497.166,224.441 494,219.5C 486.302,202.709 480.136,185.376 475.5,167.5 Z"/></g>
<g><path style="opacity:1" fill="#9a9595" d="M 457.5,148.5 C 441.755,136.127 424.422,126.627 405.5,120C 385.712,114.216 365.712,113.216 345.5,117C 339.224,119.721 333.724,123.555 329,128.5C 324.753,135.305 324.42,142.305 328,149.5C 332.53,155.171 338.363,157.004 345.5,155C 350.343,154.221 355.176,153.387 360,152.5C 361.07,152.528 361.903,152.861 362.5,153.5C 355.706,165.59 355.872,177.59 363,189.5C 380.555,209.482 398.222,209.482 416,189.5C 422.549,178.922 423.216,167.922 418,156.5C 416.378,155.901 414.878,155.234 413.5,154.5C 428.248,156.437 442.582,160.104 456.5,165.5C 459.352,164.755 461.352,163.089 462.5,160.5C 467.23,172.399 470.897,184.733 473.5,197.5C 471.514,227.473 470.014,257.473 469,287.5C 445.749,269.295 419.916,255.795 391.5,247C 310.367,221.816 232.367,229.149 157.5,269C 148.381,274.31 139.881,280.477 132,287.5C 130.244,256.84 128.41,226.173 126.5,195.5C 128.048,188.743 129.881,182.076 132,175.5C 133.385,174.449 134.385,173.116 135,171.5C 135.546,168.621 136.379,165.954 137.5,163.5C 137.611,164.117 137.944,164.617 138.5,165C 148.458,165.351 157.791,163.017 166.5,158C 173.013,155.871 179.68,154.704 186.5,154.5C 182.989,154.837 180.822,156.837 180,160.5C 175.643,184.98 185.643,199.647 210,204.5C 223.199,203.59 232.866,197.256 239,185.5C 244.141,174.808 243.641,164.475 237.5,154.5C 235.369,153.831 233.369,153.165 231.5,152.5C 242.829,153.668 254.162,154.501 265.5,155C 273.586,149.408 276.086,141.908 273,132.5C 268.637,124.891 262.137,120.058 253.5,118C 222.996,112.834 194.163,117.667 167,132.5C 166.586,132.043 166.086,131.709 165.5,131.5C 157.864,135.825 150.531,140.491 143.5,145.5C 153.916,112.567 171.249,83.7338 195.5,59C 202.743,53.5494 210.41,48.8827 218.5,45C 224.819,40.861 227.819,35.0277 227.5,27.5C 275.525,20.6803 323.525,20.847 371.5,28C 372.791,31.4448 373.957,34.9448 375,38.5C 377.167,40.6667 379.333,42.8333 381.5,45C 396.007,51.5072 408.173,61.0072 418,73.5C 435.419,96.3407 448.585,121.341 457.5,148.5 Z"/></g>
<g><path style="opacity:1" fill="#8e8a8a" d="M 215.5,30.5 C 216.239,30.369 216.906,30.5357 217.5,31C 214.054,35.9422 209.388,39.1088 203.5,40.5C 206.404,38.7052 209.404,36.8718 212.5,35C 214.141,33.871 215.141,32.371 215.5,30.5 Z"/></g>
<g><path style="opacity:1" fill="#8c8888" d="M 388.5,36.5 C 397.178,39.2009 404.511,43.8675 410.5,50.5C 403.429,45.4309 396.096,40.7642 388.5,36.5 Z"/></g>
<g><path style="opacity:1" fill="#8c8888" d="M 203.5,40.5 C 199.447,43.8827 195.114,46.8827 190.5,49.5C 194.001,45.3375 198.335,42.3375 203.5,40.5 Z"/></g>
<g><path style="opacity:1" fill="#8d8989" d="M 190.5,49.5 C 185.833,54.8333 180.833,59.8333 175.5,64.5C 179.5,58.5 184.5,53.5 190.5,49.5 Z"/></g>
<g><path style="opacity:1" fill="#938f8f" d="M 410.5,50.5 C 415.5,53.5 419.5,57.5 422.5,62.5C 418.167,58.8333 414.167,54.8333 410.5,50.5 Z"/></g>
<g><path style="opacity:1" fill="#8e8a8a" d="M 175.5,64.5 C 173.312,68.2071 170.645,71.5405 167.5,74.5C 169.208,70.4281 171.874,67.0948 175.5,64.5 Z"/></g>
<g><path style="opacity:1" fill="#8d8888" d="M 427.5,68.5 C 432.318,72.6522 435.985,77.6522 438.5,83.5C 434.454,78.7861 430.788,73.7861 427.5,68.5 Z"/></g>
<g><path style="opacity:1" fill="#8d8989" d="M 167.5,74.5 C 164.908,80.0244 161.575,85.0244 157.5,89.5C 160.056,83.9508 163.39,78.9508 167.5,74.5 Z"/></g>
<g><path style="opacity:1" fill="#8c8888" d="M 154.5,94.5 C 151.008,102.818 147.008,110.818 142.5,118.5C 145.459,109.914 149.459,101.914 154.5,94.5 Z"/></g>
<g><path style="opacity:1" fill="#8f8a8b" d="M 438.5,83.5 C 448.513,97.1904 456.18,112.19 461.5,128.5C 454.634,113.101 446.967,98.1015 438.5,83.5 Z"/></g>
<g><path style="opacity:1" fill="#e4e2e3" d="M 231.5,152.5 C 216.438,152.106 201.438,152.773 186.5,154.5C 179.68,154.704 173.013,155.871 166.5,158C 157.791,163.017 148.458,165.351 138.5,165C 137.944,164.617 137.611,164.117 137.5,163.5C 138.905,157.285 140.905,151.285 143.5,145.5C 150.531,140.491 157.864,135.825 165.5,131.5C 166.086,131.709 166.586,132.043 167,132.5C 194.163,117.667 222.996,112.834 253.5,118C 262.137,120.058 268.637,124.891 273,132.5C 276.086,141.908 273.586,149.408 265.5,155C 254.162,154.501 242.829,153.668 231.5,152.5 Z"/></g>
<g><path style="opacity:1" fill="#e3e1e2" d="M 457.5,148.5 C 458.566,152.786 460.233,156.786 462.5,160.5C 461.352,163.089 459.352,164.755 456.5,165.5C 442.582,160.104 428.248,156.437 413.5,154.5C 396.534,152.355 379.534,152.022 362.5,153.5C 361.903,152.861 361.07,152.528 360,152.5C 355.176,153.387 350.343,154.221 345.5,155C 338.363,157.004 332.53,155.171 328,149.5C 324.42,142.305 324.753,135.305 329,128.5C 333.724,123.555 339.224,119.721 345.5,117C 365.712,113.216 385.712,114.216 405.5,120C 424.422,126.627 441.755,136.127 457.5,148.5 Z"/></g>
<g><path style="opacity:1" fill="#8e8a8a" d="M 142.5,118.5 C 136.115,134.487 130.615,150.82 126,167.5C 125.722,166.584 125.222,165.918 124.5,165.5C 129.339,149.305 135.339,133.638 142.5,118.5 Z"/></g>
<g><path style="opacity:1" fill="#241916" d="M 231.5,152.5 C 233.369,153.165 235.369,153.831 237.5,154.5C 243.641,164.475 244.141,174.808 239,185.5C 232.866,197.256 223.199,203.59 210,204.5C 185.643,199.647 175.643,184.98 180,160.5C 180.822,156.837 182.989,154.837 186.5,154.5C 201.438,152.773 216.438,152.106 231.5,152.5 Z"/></g>
<g><path style="opacity:1" fill="#251a17" d="M 413.5,154.5 C 414.878,155.234 416.378,155.901 418,156.5C 423.216,167.922 422.549,178.922 416,189.5C 398.222,209.482 380.555,209.482 363,189.5C 355.872,177.59 355.706,165.59 362.5,153.5C 379.534,152.022 396.534,152.355 413.5,154.5 Z"/></g>
<g><path style="opacity:1" fill="#e5e5e5" d="M 218.5,156.5 C 224.82,156.32 227.32,159.32 226,165.5C 222.714,169.485 219.381,169.485 216,165.5C 214.927,161.9 215.76,158.9 218.5,156.5 Z"/></g>
<g><path style="opacity:1" fill="#e5e4e4" d="M 376.5,156.5 C 382.82,156.32 385.32,159.32 384,165.5C 380.619,169.485 377.286,169.485 374,165.5C 372.93,161.858 373.764,158.858 376.5,156.5 Z"/></g>
<g><path style="opacity:1" fill="#928e8e" d="M 464.5,136.5 C 467.027,142.891 469.86,149.225 473,155.5C 474.772,159.313 475.605,163.313 475.5,167.5C 471.07,157.598 467.403,147.265 464.5,136.5 Z"/></g>
<g><path style="opacity:1" fill="#f5f5f5" d="M 468.5,300.5 C 486.38,317.6 496.213,338.6 498,363.5C 502.094,402.367 494.427,438.701 475,472.5C 471.518,474.077 468.852,473.077 467,469.5C 463.737,463.3 460.237,457.3 456.5,451.5C 456.167,452.5 455.833,453.5 455.5,454.5C 457.989,466.382 458.823,478.382 458,490.5C 454.803,499.581 449.636,507.248 442.5,513.5C 440.13,486.043 438.963,458.376 439,430.5C 438.24,412.785 436.907,395.119 435,377.5C 422.076,315.241 383.909,286.408 320.5,291C 310.749,294.102 300.749,295.269 290.5,294.5C 262.826,286.229 236.159,289.063 210.5,303C 187.639,317.551 172.806,338.051 166,364.5C 164.177,373.087 162.843,381.753 162,390.5C 160.204,425.145 159.037,459.812 158.5,494.5C 158.646,501.56 159.313,508.56 160.5,515.5C 148.652,506.803 142.319,495.137 141.5,480.5C 142.448,470.805 143.282,461.139 144,451.5C 139.91,456.673 136.577,462.34 134,468.5C 132.647,469.685 131.48,471.019 130.5,472.5C 129.232,473.428 127.899,473.595 126.5,473C 103.202,434.833 95.7019,393.667 104,349.5C 108.363,330.986 117.196,314.986 130.5,301.5C 165.691,273.575 205.691,255.741 250.5,248C 316.427,236.92 378.76,247.253 437.5,279C 447.549,285.027 456.882,292.027 465.5,300C 466.448,300.483 467.448,300.649 468.5,300.5 Z"/></g>
<g><path style="opacity:1" fill="#9a9797" d="M 468.5,300.5 C 467.448,300.649 466.448,300.483 465.5,300C 456.882,292.027 447.549,285.027 437.5,279C 378.76,247.253 316.427,236.92 250.5,248C 205.691,255.741 165.691,273.575 130.5,301.5C 157.192,278.315 187.858,262.148 222.5,253C 297.83,233.144 369.83,241.477 438.5,278C 449.25,284.594 459.25,292.094 468.5,300.5 Z"/></g>
<g><path style="opacity:1" fill="#f3e7d8" d="M 290.5,294.5 C 289.833,294.5 289.5,294.833 289.5,295.5C 275.862,295.904 264.696,301.237 256,311.5C 253.921,315.652 252.421,319.986 251.5,324.5C 240.043,327.973 230.543,334.306 223,343.5C 221.392,346.382 220.059,349.382 219,352.5C 217.919,366.977 218.919,381.31 222,395.5C 229.743,425.055 238.076,454.388 247,483.5C 252.998,507.15 255.332,531.15 254,555.5C 253.722,561.957 252.722,568.29 251,574.5C 243.667,568.5 237,561.833 231,554.5C 229.281,557.454 229.115,560.454 230.5,563.5C 228.982,567.566 228.149,571.899 228,576.5C 227.581,577.672 226.915,578.672 226,579.5C 224.171,577.844 222.837,575.844 222,573.5C 218.636,563.663 215.136,553.996 211.5,544.5C 210.792,538.42 208.458,533.087 204.5,528.5C 203.503,535.468 203.17,542.468 203.5,549.5C 204.833,549.5 206.167,549.5 207.5,549.5C 206.081,550.451 204.415,550.784 202.5,550.5C 202.638,558.9 201.971,567.233 200.5,575.5C 196.34,573.588 192.34,571.421 188.5,569C 185.491,558.769 183.991,548.269 184,537.5C 183.283,536.956 182.783,536.289 182.5,535.5C 183.658,526.343 183.824,517.009 183,507.5C 182.333,506.833 181.667,506.167 181,505.5C 178.657,514.805 178.157,524.138 179.5,533.5C 177.905,540.434 176.905,547.6 176.5,555C 176.167,555.833 175.833,556.667 175.5,557.5C 171.076,552.996 167.909,547.663 166,541.5C 163.442,532.991 161.609,524.324 160.5,515.5C 159.313,508.56 158.646,501.56 158.5,494.5C 159.037,459.812 160.204,425.145 162,390.5C 162.843,381.753 164.177,373.087 166,364.5C 172.806,338.051 187.639,317.551 210.5,303C 236.159,289.063 262.826,286.229 290.5,294.5 Z"/></g>
<g><path style="opacity:1" fill="#f3e7d8" d="M 442.5,513.5 C 441.199,514.882 440.366,516.548 440,518.5C 438.716,529.969 435.716,540.969 431,551.5C 429.859,553.609 428.359,555.442 426.5,557C 425.256,557.456 424.423,556.956 424,555.5C 423.647,547.815 423.147,540.148 422.5,532.5C 422.569,524.798 422.069,517.131 421,509.5C 420.73,506.638 419.896,503.972 418.5,501.5C 417.501,512.814 417.168,524.147 417.5,535.5C 416.709,545.821 415.543,556.154 414,566.5C 410.398,571.389 405.565,574.389 399.5,575.5C 398.778,567.172 398.112,558.839 397.5,550.5C 395.585,550.784 393.919,550.451 392.5,549.5C 394.167,549.5 395.833,549.5 397.5,549.5C 397.534,541.371 396.701,533.371 395,525.5C 391.931,531.209 389.764,537.209 388.5,543.5C 384.126,555.107 379.626,566.773 375,578.5C 374,579.833 373,579.833 372,578.5C 371.162,573.357 370.328,568.357 369.5,563.5C 369.817,560.428 369.484,557.428 368.5,554.5C 363.239,563.929 356.072,571.595 347,577.5C 345.181,574.832 345.015,571.999 346.5,569C 346.389,567.278 345.889,567.112 345,568.5C 342.308,540.168 344.308,512.168 351,484.5C 360.423,454.715 369.09,424.715 377,394.5C 380.025,380.976 381.025,367.309 380,353.5C 374.698,339.032 364.531,330.032 349.5,326.5C 349.795,328.735 349.461,330.735 348.5,332.5C 349.749,316.164 342.749,304.997 327.5,299C 315.055,295.814 302.388,294.648 289.5,295.5C 289.5,294.833 289.833,294.5 290.5,294.5C 300.749,295.269 310.749,294.102 320.5,291C 383.909,286.408 422.076,315.241 435,377.5C 436.907,395.119 438.24,412.785 439,430.5C 438.963,458.376 440.13,486.043 442.5,513.5 Z"/></g>
<g><path style="opacity:1" fill="#060505" d="M 289.5,295.5 C 302.388,294.648 315.055,295.814 327.5,299C 342.749,304.997 349.749,316.164 348.5,332.5C 345.881,349.96 336.547,362.46 320.5,370C 314.781,372.763 308.781,374.596 302.5,375.5C 302.781,380.229 304.781,384.063 308.5,387C 317.362,387.289 326.196,386.789 335,385.5C 341.63,384.93 346.963,387.264 351,392.5C 354.025,397.541 356.192,402.874 357.5,408.5C 356.127,408.657 354.793,408.49 353.5,408C 350.743,403.821 347.743,399.821 344.5,396C 342.232,394.448 339.732,393.615 337,393.5C 312.123,400.055 287.29,400.055 262.5,393.5C 260.423,393.692 258.423,394.192 256.5,395C 252.682,398.973 249.349,403.306 246.5,408C 245.207,408.49 243.873,408.657 242.5,408.5C 244.257,399.146 248.923,391.646 256.5,386C 268.133,386.898 279.8,387.231 291.5,387C 295.678,384.295 297.678,380.462 297.5,375.5C 280.177,372.657 266.677,363.99 257,349.5C 252.797,341.688 250.964,333.354 251.5,324.5C 252.421,319.986 253.921,315.652 256,311.5C 264.696,301.237 275.862,295.904 289.5,295.5 Z"/></g>
<g><path style="opacity:1" fill="#362e2a" d="M 286.5,305.5 C 297.54,305.215 308.54,305.715 319.5,307C 334.09,310.578 340.257,319.744 338,334.5C 330.82,353.83 316.987,363.996 296.5,365C 276.973,360.475 265.306,348.475 261.5,329C 261.477,321.039 264.81,315.039 271.5,311C 276.547,308.999 281.547,307.166 286.5,305.5 Z"/></g>
<g><path style="opacity:1" fill="#f5f5f5" d="M 251.5,324.5 C 250.964,333.354 252.797,341.688 257,349.5C 266.677,363.99 280.177,372.657 297.5,375.5C 297.678,380.462 295.678,384.295 291.5,387C 279.8,387.231 268.133,386.898 256.5,386C 248.923,391.646 244.257,399.146 242.5,408.5C 243.873,408.657 245.207,408.49 246.5,408C 249.349,403.306 252.682,398.973 256.5,395C 258.423,394.192 260.423,393.692 262.5,393.5C 287.29,400.055 312.123,400.055 337,393.5C 339.732,393.615 342.232,394.448 344.5,396C 347.743,399.821 350.743,403.821 353.5,408C 354.793,408.49 356.127,408.657 357.5,408.5C 356.192,402.874 354.025,397.541 351,392.5C 346.963,387.264 341.63,384.93 335,385.5C 326.196,386.789 317.362,387.289 308.5,387C 304.781,384.063 302.781,380.229 302.5,375.5C 308.781,374.596 314.781,372.763 320.5,370C 336.547,362.46 345.881,349.96 348.5,332.5C 349.461,330.735 349.795,328.735 349.5,326.5C 364.531,330.032 374.698,339.032 380,353.5C 381.025,367.309 380.025,380.976 377,394.5C 369.09,424.715 360.423,454.715 351,484.5C 344.308,512.168 342.308,540.168 345,568.5C 345.889,567.112 346.389,567.278 346.5,569C 345.015,571.999 345.181,574.832 347,577.5C 356.072,571.595 363.239,563.929 368.5,554.5C 369.484,557.428 369.817,560.428 369.5,563.5C 364.938,571.894 358.271,578.06 349.5,582C 338.261,588.789 326.261,593.622 313.5,596.5C 310.259,596.428 308.426,594.761 308,591.5C 305.354,579.94 303.354,568.273 302,556.5C 301.581,555.328 300.915,554.328 300,553.5C 298.417,555.911 297.417,558.578 297,561.5C 296.231,571.993 294.564,582.326 292,592.5C 291.135,595.203 289.301,596.536 286.5,596.5C 267.327,591.664 250.161,582.997 235,570.5C 233.277,568.283 231.777,565.95 230.5,563.5C 229.115,560.454 229.281,557.454 231,554.5C 237,561.833 243.667,568.5 251,574.5C 252.722,568.29 253.722,561.957 254,555.5C 255.332,531.15 252.998,507.15 247,483.5C 238.076,454.388 229.743,425.055 222,395.5C 218.919,381.31 217.919,366.977 219,352.5C 220.059,349.382 221.392,346.382 223,343.5C 230.543,334.306 240.043,327.973 251.5,324.5 Z"/></g>
<g><path style="opacity:1" fill="#f4f4f3" d="M 422.5,532.5 C 420.999,533.752 419.332,534.752 417.5,535.5C 417.168,524.147 417.501,512.814 418.5,501.5C 419.896,503.972 420.73,506.638 421,509.5C 422.069,517.131 422.569,524.798 422.5,532.5 Z"/></g>
<g><path style="opacity:1" fill="#f5f4f4" d="M 182.5,535.5 C 181.5,534.833 180.5,534.167 179.5,533.5C 178.157,524.138 178.657,514.805 181,505.5C 181.667,506.167 182.333,506.833 183,507.5C 183.824,517.009 183.658,526.343 182.5,535.5 Z"/></g>
<g><path style="opacity:1" fill="#f3f2f1" d="M 392.5,549.5 C 390.262,548.147 388.929,546.147 388.5,543.5C 389.764,537.209 391.931,531.209 395,525.5C 396.701,533.371 397.534,541.371 397.5,549.5C 395.833,549.5 394.167,549.5 392.5,549.5 Z"/></g>
<g><path style="opacity:1" fill="#f4f4f3" d="M 211.5,544.5 C 210.876,546.754 209.543,548.421 207.5,549.5C 206.167,549.5 204.833,549.5 203.5,549.5C 203.17,542.468 203.503,535.468 204.5,528.5C 208.458,533.087 210.792,538.42 211.5,544.5 Z"/></g>
</svg>
