<?xml version="1.0" encoding="UTF-8"?>
<!DOCTYPE svg PUBLIC "-//W3C//DTD SVG 1.1//EN" "http://www.w3.org/Graphics/SVG/1.1/DTD/svg11.dtd">
<svg xmlns="http://www.w3.org/2000/svg" version="1.1" width="600px" height="600px" style="shape-rendering:geometricPrecision; text-rendering:geometricPrecision; image-rendering:optimizeQuality; fill-rule:evenodd; clip-rule:evenodd" xmlns:xlink="http://www.w3.org/1999/xlink">
<g><path style="opacity:0.967" fill="#010101" d="M 599.5,381.5 C 599.5,417.167 599.5,452.833 599.5,488.5C 598.171,492.774 596.671,497.107 595,501.5C 590.667,507.167 585.667,512.167 580,516.5C 574.681,526.468 569.348,536.468 564,546.5C 556.202,559.25 544.702,565.75 529.5,566C 508.164,574.835 486.164,581.335 463.5,585.5C 451.207,581.361 438.874,577.194 426.5,573C 410.46,569.653 395.126,564.32 380.5,557C 373.282,552.782 367.782,546.948 364,539.5C 321.695,560.978 279.528,560.644 237.5,538.5C 230.118,549.701 220.118,557.867 207.5,563C 183.507,569.609 159.84,577.109 136.5,585.5C 113.836,581.335 91.8356,574.835 70.5,566C 55.298,565.75 43.798,559.25 36,546.5C 30.6519,536.468 25.3186,526.468 20,516.5C 14.3333,512.167 9.33333,507.167 5,501.5C 2.51516,494.882 0.681829,488.215 -0.5,481.5C -0.5,449.5 -0.5,417.5 -0.5,385.5C 4.69568,372.912 5.69568,359.912 2.5,346.5C 3.25962,340.767 4.42629,335.101 6,329.5C 12.1372,315.226 18.8039,301.226 26,287.5C 27.6907,276.715 30.024,266.048 33,255.5C 43.2675,236.908 53.9342,218.574 65,200.5C 65.9214,186.719 70.9214,174.719 80,164.5C 85,159.5 90,154.5 95,149.5C 91.7598,137.39 94.9264,127.223 104.5,119C 103.437,111.502 105.271,104.669 110,98.5C 113.333,95.8333 116.667,93.1667 120,90.5C 122.284,78.2155 129.451,70.3822 141.5,67C 145.114,59.719 150.448,54.0523 157.5,50C 162.511,48.3297 167.511,46.663 172.5,45C 176.143,39.34 181.143,35.34 187.5,33C 193.696,31.0275 200.029,29.6941 206.5,29C 217.645,20.4297 230.312,16.763 244.5,18C 258.536,11.6065 273.203,9.60653 288.5,12C 293.394,10.3878 298.394,9.22112 303.5,8.5C 308.606,9.22112 313.606,10.3878 318.5,12C 327.17,12.0947 335.837,12.0947 344.5,12C 350.518,13.0059 356.184,15.0059 361.5,18C 376.029,16.6314 389.029,20.298 400.5,29C 410.668,29.5393 420.002,32.5393 428.5,38C 430.874,40.039 432.874,42.3723 434.5,45C 448.475,47.3229 458.808,54.6562 465.5,67C 477.549,70.3822 484.716,78.2155 487,90.5C 498.344,97.1791 504.011,107.179 504,120.5C 509.673,125.345 512.839,131.511 513.5,139C 511.962,142.724 511.462,146.557 512,150.5C 514.414,153.815 516.081,157.482 517,161.5C 527.496,171.16 533.162,183.16 534,197.5C 540.393,211.291 548.06,224.291 557,236.5C 560.588,242.675 563.922,249.009 567,255.5C 569.976,266.048 572.309,276.715 574,287.5C 582.079,302.326 589.079,317.659 595,333.5C 597.009,340.181 597.342,346.847 596,353.5C 594.766,363.258 595.932,372.591 599.5,381.5 Z"/></g>
<g><path style="opacity:1" fill="#3b3834" d="M 506.5,166.5 C 504.139,170.389 502.472,174.555 501.5,179C 503.243,183.69 503.743,188.523 503,193.5C 500.749,197.425 498.083,201.092 495,204.5C 495.04,210.386 494.04,216.053 492,221.5C 488.185,225.072 484.185,228.405 480,231.5C 479.418,238.164 476.585,243.664 471.5,248C 467.5,250 463.5,252 459.5,254C 456.963,256.906 454.796,260.073 453,263.5C 452.329,264.252 451.496,264.586 450.5,264.5C 448.88,262.016 446.547,260.516 443.5,260C 436.527,258.907 429.861,259.907 423.5,263C 419.142,266.696 414.808,270.363 410.5,274C 403.688,274.684 397.021,276.017 390.5,278C 385.731,281.103 380.731,283.769 375.5,286C 369.167,286.333 362.833,286.667 356.5,287C 350.828,289.17 345.162,291.336 339.5,293.5C 327.122,290.425 314.955,291.092 303,295.5C 291.373,291.136 279.54,290.469 267.5,293.5C 261.612,291.135 255.612,288.968 249.5,287C 237.366,288.471 226.366,285.804 216.5,279C 209.896,277.341 203.23,276.008 196.5,275C 191.167,271 185.833,267 180.5,263C 174.94,261.702 169.44,260.202 164,258.5C 160.417,258.968 157.25,260.302 154.5,262.5C 152.544,259.461 150.21,256.628 147.5,254C 141.749,251.711 136.582,248.545 132,244.5C 129.59,240.437 127.923,236.104 127,231.5C 124.257,229.212 121.423,227.045 118.5,225C 115.894,223.062 114.061,220.562 113,217.5C 114.233,209.432 111.899,202.766 106,197.5C 102.955,191.445 102.788,185.278 105.5,179C 103.979,174.123 102.312,169.289 100.5,164.5C 100.964,161.583 101.964,158.916 103.5,156.5C 105.6,154.29 106.6,151.624 106.5,148.5C 105.237,144.228 104.737,139.895 105,135.5C 107.587,131.239 110.587,127.239 114,123.5C 114.109,118.386 114.776,113.386 116,108.5C 119.981,104.188 124.314,100.188 129,96.5C 130.551,84.9448 137.051,77.7781 148.5,75C 151.926,70.1518 155.592,65.4851 159.5,61C 166.05,58.0298 172.717,55.3631 179.5,53C 186.866,42.9869 196.866,38.3203 209.5,39C 214.597,35.5667 219.931,32.5667 225.5,30C 237.851,30.9947 249.518,28.6614 260.5,23C 269.839,22.8341 279.173,22.8341 288.5,23C 292.889,20.7032 297.556,19.5366 302.5,19.5C 309.882,20.6288 317.215,21.9622 324.5,23.5C 331.822,22.5838 339.155,22.4172 346.5,23C 351.167,25 355.833,27 360.5,29C 374.112,27.0659 386.112,30.3992 396.5,39C 404.877,39.5583 412.877,41.5583 420.5,45C 423.623,48.6126 426.956,51.946 430.5,55C 436.382,56.4051 442.049,58.4051 447.5,61C 451.408,65.4851 455.074,70.1518 458.5,75C 464.219,77.2755 469.385,80.4421 474,84.5C 475.754,88.3614 477.088,92.3614 478,96.5C 482,99.8333 486,103.167 490,106.5C 490.667,107.833 491.333,109.167 492,110.5C 492.333,114.833 492.667,119.167 493,123.5C 496.413,127.239 499.413,131.239 502,135.5C 501.506,141.148 501.173,146.815 501,152.5C 504.241,156.643 506.074,161.31 506.5,166.5 Z"/></g>
<g><path style="opacity:1" fill="#2e2c2b" d="M 103.5,156.5 C 101.964,158.916 100.964,161.583 100.5,164.5C 102.312,169.289 103.979,174.123 105.5,179C 102.788,185.278 102.955,191.445 106,197.5C 111.899,202.766 114.233,209.432 113,217.5C 114.061,220.562 115.894,223.062 118.5,225C 121.423,227.045 124.257,229.212 127,231.5C 127.923,236.104 129.59,240.437 132,244.5C 136.582,248.545 141.749,251.711 147.5,254C 150.21,256.628 152.544,259.461 154.5,262.5C 150.966,270.298 152.466,276.965 159,282.5C 159.167,283.667 159.333,284.833 159.5,286C 158.397,291.617 157.73,297.283 157.5,303C 158.22,311.703 159.22,320.37 160.5,329C 157.988,343.967 159.488,358.467 165,372.5C 163.531,390.375 167.198,407.042 176,422.5C 176.079,437.503 180.745,450.837 190,462.5C 191.355,468.589 193.022,474.589 195,480.5C 196.933,484.698 199.599,488.365 203,491.5C 206.415,499.282 209.415,507.282 212,515.5C 217.5,521 223,526.5 228.5,532C 221.736,543.749 211.736,551.416 198.5,555C 179.691,559.617 161.358,565.617 143.5,573C 134.335,575.057 125.335,574.39 116.5,571C 95.3199,563.384 73.9866,556.384 52.5,550C 49.0673,546.958 46.234,543.458 44,539.5C 39.1758,529.183 33.8425,519.183 28,509.5C 23.967,505.132 19.6337,501.132 15,497.5C 12.7361,493.113 11.4027,488.446 11,483.5C 10.1661,468.815 9.16609,454.148 8,439.5C 2.3515,429.756 1.01816,419.423 4,408.5C 8.44975,394.368 12.1164,380.034 15,365.5C 15.5553,358.438 15.0553,351.438 13.5,344.5C 13.8064,341.468 14.3064,338.468 15,335.5C 21.7266,320.38 28.7266,305.38 36,290.5C 38.8011,283.1 40.1344,275.434 40,267.5C 41.1365,263.757 42.4698,260.09 44,256.5C 53.2692,240.237 62.9359,224.237 73,208.5C 75.6269,201.745 77.2936,194.745 78,187.5C 84.0975,175.232 92.5975,164.898 103.5,156.5 Z"/></g>
<g><path style="opacity:1" fill="#2e2c2b" d="M 506.5,166.5 C 513.346,172.191 518.513,179.191 522,187.5C 522.651,194.756 524.317,201.756 527,208.5C 537.064,224.237 546.731,240.237 556,256.5C 559.737,264.054 561.403,272.054 561,280.5C 565.7,295.233 572.033,309.233 580,322.5C 582.285,328.07 584.285,333.736 586,339.5C 585.448,348.15 585.115,356.817 585,365.5C 587.885,380.042 591.552,394.375 596,408.5C 598.982,419.423 597.649,429.756 592,439.5C 590.834,454.148 589.834,468.815 589,483.5C 588.597,488.446 587.264,493.113 585,497.5C 580.366,501.132 576.033,505.132 572,509.5C 566.158,519.183 560.824,529.183 556,539.5C 553.766,543.458 550.933,546.958 547.5,550C 523.329,557.083 499.329,564.75 475.5,573C 465.483,576.092 456.15,574.758 447.5,569C 430.167,563.667 412.833,558.333 395.5,553C 386.86,549.353 379.693,543.853 374,536.5C 373.383,535.551 373.549,534.718 374.5,534C 384.054,528.78 391.22,521.28 396,511.5C 400.026,499.763 405.026,488.429 411,477.5C 412.538,472.552 413.872,467.552 415,462.5C 425.169,451.197 430.169,437.863 430,422.5C 439.013,407.444 442.68,391.111 441,373.5C 443.27,368.356 444.937,363.022 446,357.5C 446.621,347.823 446.454,338.156 445.5,328.5C 446.986,320.411 447.986,312.244 448.5,304C 448.433,298.099 447.766,292.265 446.5,286.5C 448.478,282.989 450.311,279.322 452,275.5C 452.758,271.638 452.258,267.972 450.5,264.5C 451.496,264.586 452.329,264.252 453,263.5C 454.796,260.073 456.963,256.906 459.5,254C 463.5,252 467.5,250 471.5,248C 476.585,243.664 479.418,238.164 480,231.5C 484.185,228.405 488.185,225.072 492,221.5C 494.04,216.053 495.04,210.386 495,204.5C 498.083,201.092 500.749,197.425 503,193.5C 503.743,188.523 503.243,183.69 501.5,179C 502.472,174.555 504.139,170.389 506.5,166.5 Z"/></g>
<g><path style="opacity:1" fill="#34322e" d="M 442.5,270.5 C 442.167,270.5 441.833,270.5 441.5,270.5C 437.313,270.395 433.313,271.228 429.5,273C 425.804,277.358 421.47,281.025 416.5,284C 409.861,285.496 403.195,286.829 396.5,288C 391.833,290.667 387.167,293.333 382.5,296C 374.895,297.19 367.229,297.857 359.5,298C 353.254,301.471 346.588,303.637 339.5,304.5C 334.514,303.725 329.514,303.058 324.5,302.5C 317.526,303.994 310.526,305.327 303.5,306.5C 296.511,305.172 289.511,303.839 282.5,302.5C 277.486,303.058 272.486,303.725 267.5,304.5C 260.558,303.242 253.892,301.075 247.5,298C 241.167,297.667 234.833,297.333 228.5,297C 225.401,296.613 222.734,295.446 220.5,293.5C 229.606,296.01 238.94,297.176 248.5,297C 254.606,299.869 260.939,302.035 267.5,303.5C 272.458,302.507 277.458,301.84 282.5,301.5C 289.588,302.419 296.588,303.753 303.5,305.5C 310.474,304.006 317.474,302.673 324.5,301.5C 329.542,301.84 334.542,302.507 339.5,303.5C 346.21,302.43 352.543,300.263 358.5,297C 366.229,296.857 373.895,296.19 381.5,295C 386.167,292.333 390.833,289.667 395.5,287C 402.195,285.829 408.861,284.496 415.5,283C 420.47,280.025 424.804,276.358 428.5,272C 433.149,269.665 437.816,269.165 442.5,270.5 Z"/></g>
<g><path style="opacity:1" fill="#868484" d="M 162.5,270.5 C 162.5,270.167 162.5,269.833 162.5,269.5C 172.412,270.622 180.412,275.122 186.5,283C 188.5,284 190.5,285 192.5,286C 198.5,287 204.5,288 210.5,289C 213.286,291.06 216.286,292.56 219.5,293.5C 219.833,293.5 220.167,293.5 220.5,293.5C 222.734,295.446 225.401,296.613 228.5,297C 234.833,297.333 241.167,297.667 247.5,298C 253.892,301.075 260.558,303.242 267.5,304.5C 272.486,303.725 277.486,303.058 282.5,302.5C 289.511,303.839 296.511,305.172 303.5,306.5C 310.526,305.327 317.526,303.994 324.5,302.5C 329.514,303.058 334.514,303.725 339.5,304.5C 346.588,303.637 353.254,301.471 359.5,298C 367.229,297.857 374.895,297.19 382.5,296C 387.167,293.333 391.833,290.667 396.5,288C 403.195,286.829 409.861,285.496 416.5,284C 421.47,281.025 425.804,277.358 429.5,273C 433.313,271.228 437.313,270.395 441.5,270.5C 441.649,271.552 441.483,272.552 441,273.5C 437.239,277.022 435.073,281.355 434.5,286.5C 438.493,300.432 438.159,314.266 433.5,328C 437.036,343.187 435.869,358.02 430,372.5C 429.847,381.55 429.18,390.55 428,399.5C 425.871,405.756 423.204,411.756 420,417.5C 418.885,425.201 417.552,432.867 416,440.5C 413.121,446.705 409.454,452.372 405,457.5C 403.851,467.292 400.185,475.959 394,483.5C 392.717,487.414 391.884,491.414 391.5,495.5C 389.833,495.5 388.167,495.5 386.5,495.5C 386.665,499.182 386.499,502.848 386,506.5C 383.336,510.657 380.503,514.657 377.5,518.5C 372.398,521.755 367.398,525.255 362.5,529C 359.167,530.667 355.833,532.333 352.5,534C 349.524,534.757 347.691,533.591 347,530.5C 346.394,533.548 344.894,536.048 342.5,538C 315.844,546.601 289.178,546.601 262.5,538C 260.787,536.075 259.453,533.908 258.5,531.5C 257.571,532.689 257.238,534.022 257.5,535.5C 249.115,532.808 241.449,528.808 234.5,523.5C 230.543,518.041 226.043,513.041 221,508.5C 219.633,504.3 219.133,499.967 219.5,495.5C 217.856,495.714 216.356,495.38 215,494.5C 214.245,491.312 213.411,488.145 212.5,485C 209.263,482.428 206.763,479.261 205,475.5C 203.022,469.589 201.355,463.589 200,457.5C 199.117,454.898 197.617,452.731 195.5,451C 195.833,450.667 196.167,450.333 196.5,450C 193.917,446.932 191.584,443.765 189.5,440.5C 188.224,432.524 187.057,424.524 186,416.5C 183.077,410.985 180.41,405.318 178,399.5C 176.813,390.217 176.147,380.883 176,371.5C 170.47,357.638 168.97,343.305 171.5,328.5C 169.325,317.62 168.325,306.62 168.5,295.5C 173.132,285.674 171.132,277.341 162.5,270.5 Z"/></g>
<g><path style="opacity:1" fill="#2a2827" d="M 162.5,270.5 C 171.132,277.341 173.132,285.674 168.5,295.5C 168.467,292.164 169.134,288.997 170.5,286C 169.832,282.68 168.665,279.513 167,276.5C 164.873,274.886 163.373,272.886 162.5,270.5 Z"/></g>
<g><path style="opacity:1" fill="#383632" d="M 162.5,269.5 C 162.735,268.903 163.235,268.57 164,268.5C 167.81,269.744 171.644,270.911 175.5,272C 180.833,276 186.167,280 191.5,284C 198.099,285.658 204.765,286.992 211.5,288C 214.407,289.609 217.073,291.442 219.5,293.5C 216.286,292.56 213.286,291.06 210.5,289C 204.5,288 198.5,287 192.5,286C 190.5,285 188.5,284 186.5,283C 180.412,275.122 172.412,270.622 162.5,269.5 Z"/></g>
<g><path style="opacity:1" fill="#362e2a" d="M 218.5,309.5 C 233.849,308.681 242.849,315.848 245.5,331C 240.34,351.247 228.34,356.914 209.5,348C 199.271,337.283 198.938,326.283 208.5,315C 211.767,312.87 215.1,311.037 218.5,309.5 Z"/></g>
<g><path style="opacity:1" fill="#362e2a" d="M 377.5,309.5 C 392.836,308.666 401.836,315.832 404.5,331C 401.12,348.52 390.786,355.187 373.5,351C 360.845,343.369 357.679,332.869 364,319.5C 367.555,314.763 372.055,311.43 377.5,309.5 Z"/></g>
<g><path style="opacity:1" fill="#ebeaea" d="M 229.5,318.5 C 236.968,319.674 238.301,323.174 233.5,329C 228.178,329.34 226.011,326.84 227,321.5C 228.045,320.627 228.878,319.627 229.5,318.5 Z"/></g>
<g><path style="opacity:1" fill="#ededed" d="M 386.5,319.5 C 394.877,319.274 396.544,322.441 391.5,329C 387.349,329.698 385.016,327.865 384.5,323.5C 384.752,321.927 385.418,320.594 386.5,319.5 Z"/></g>
<g><path style="opacity:1" fill="#251a17" d="M 298.5,437.5 C 305.888,437.253 313.221,437.753 320.5,439C 323.588,440.875 326.921,442.208 330.5,443C 337.088,449.145 339.255,456.645 337,465.5C 335.865,469.765 334.198,473.765 332,477.5C 328.348,480.153 325.014,483.153 322,486.5C 302.518,496.228 288.185,491.228 279,471.5C 272.384,452.34 278.884,441.006 298.5,437.5 Z"/></g>
<g><path style="opacity:1" fill="#201f1e" d="M 441.5,270.5 C 441.833,270.5 442.167,270.5 442.5,270.5C 442.657,271.873 442.49,273.207 442,274.5C 438.416,277.5 436.583,281.334 436.5,286C 437.494,291.965 438.161,297.965 438.5,304C 437.716,312.369 436.716,320.702 435.5,329C 437.996,344.288 436.496,359.121 431,373.5C 430.847,382.55 430.18,391.55 429,400.5C 426.871,406.756 424.204,412.756 421,418.5C 419.885,426.201 418.552,433.867 417,441.5C 414.121,447.705 410.454,453.372 406,458.5C 404.851,468.292 401.185,476.959 395,484.5C 393.717,488.414 392.884,492.414 392.5,496.5C 390.833,496.5 389.167,496.5 387.5,496.5C 388.467,505.892 385.134,513.225 377.5,518.5C 380.503,514.657 383.336,510.657 386,506.5C 386.499,502.848 386.665,499.182 386.5,495.5C 388.167,495.5 389.833,495.5 391.5,495.5C 391.884,491.414 392.717,487.414 394,483.5C 400.185,475.959 403.851,467.292 405,457.5C 409.454,452.372 413.121,446.705 416,440.5C 417.552,432.867 418.885,425.201 420,417.5C 423.204,411.756 425.871,405.756 428,399.5C 429.18,390.55 429.847,381.55 430,372.5C 435.869,358.02 437.036,343.187 433.5,328C 438.159,314.266 438.493,300.432 434.5,286.5C 435.073,281.355 437.239,277.022 441,273.5C 441.483,272.552 441.649,271.552 441.5,270.5 Z"/></g>
<g><path style="opacity:1" fill="#252423" d="M 189.5,440.5 C 191.584,443.765 193.917,446.932 196.5,450C 196.167,450.333 195.833,450.667 195.5,451C 197.617,452.731 199.117,454.898 200,457.5C 201.355,463.589 203.022,469.589 205,475.5C 206.763,479.261 209.263,482.428 212.5,485C 213.411,488.145 214.245,491.312 215,494.5C 216.356,495.38 217.856,495.714 219.5,495.5C 219.133,499.967 219.633,504.3 221,508.5C 226.043,513.041 230.543,518.041 234.5,523.5C 229.836,519.349 225.003,514.682 220,509.5C 218.633,505.3 218.133,500.967 218.5,496.5C 216.856,496.714 215.356,496.38 214,495.5C 213.245,492.312 212.411,489.145 211.5,486C 208.983,483.816 206.817,481.316 205,478.5C 202.382,472.028 200.382,465.362 199,458.5C 196.147,454.262 193.48,449.928 191,445.5C 189.991,443.975 189.491,442.308 189.5,440.5 Z"/></g>
<g><path style="opacity:1" fill="#2e2421" d="M 296.5,509.5 C 302.343,510.576 308.177,510.576 314,509.5C 317.439,510.056 318.272,511.889 316.5,515C 309.778,516.993 303.111,516.826 296.5,514.5C 295.334,512.833 295.334,511.166 296.5,509.5 Z"/></g>
</svg>
