<?xml version="1.0" encoding="UTF-8"?>
<!DOCTYPE svg PUBLIC "-//W3C//DTD SVG 1.1//EN" "http://www.w3.org/Graphics/SVG/1.1/DTD/svg11.dtd">
<svg xmlns="http://www.w3.org/2000/svg" version="1.1" width="600px" height="600px" style="shape-rendering:geometricPrecision; text-rendering:geometricPrecision; image-rendering:optimizeQuality; fill-rule:evenodd; clip-rule:evenodd" xmlns:xlink="http://www.w3.org/1999/xlink">
<g><path style="opacity:0.965" fill="#030201" d="M 350.5,0.5 C 358.141,0.307401 362.641,3.97407 364,11.5C 363.22,21.2409 361.72,30.9076 359.5,40.5C 369.096,42.1987 378.263,45.1987 387,49.5C 393.135,42.364 399.635,35.5307 406.5,29C 416.96,19.2594 428.793,17.0927 442,22.5C 448.88,15.9769 457.047,11.9769 466.5,10.5C 474.062,11.0987 478.395,15.0987 479.5,22.5C 478.907,24.3817 478.24,26.2151 477.5,28C 481.096,31.942 482.762,36.442 482.5,41.5C 495.582,48.4742 508.915,54.9742 522.5,61C 542.921,68.1398 563.254,75.4731 583.5,83C 594.291,89.5796 599.291,99.2463 598.5,112C 596.771,132.082 592.438,151.582 585.5,170.5C 588.529,179.783 590.529,189.283 591.5,199C 591.393,202.929 590.726,206.763 589.5,210.5C 592.709,228.101 593.209,245.768 591,263.5C 588.301,269.775 583.468,272.942 576.5,273C 582.159,279.819 586.659,287.319 590,295.5C 592.171,306.201 588.671,314.201 579.5,319.5C 582.202,324.776 584.202,330.276 585.5,336C 583.577,344.523 581.411,353.023 579,361.5C 573.894,371.859 566.228,374.193 556,368.5C 558.653,379.148 562.986,389.148 569,398.5C 571.054,407.306 569.721,415.639 565,423.5C 551.236,445.931 532.903,463.598 510,476.5C 511.571,487.416 512.238,498.416 512,509.5C 508.839,528.323 499.006,542.49 482.5,552C 479.181,553.431 475.848,553.931 472.5,553.5C 469.512,560.005 464.512,564.172 457.5,566C 451.59,568.137 445.59,569.97 439.5,571.5C 433.499,570.667 428.499,568 424.5,563.5C 404.777,579.855 382.11,590.021 356.5,594C 319.884,599.592 283.217,599.925 246.5,595C 218.656,591.565 193.989,581.065 172.5,563.5C 168.377,568.145 163.211,570.812 157,571.5C 149.974,569.936 143.141,567.769 136.5,565C 129.903,562.737 125.736,558.237 124,551.5C 120.881,553.664 117.714,553.831 114.5,552C 95.0621,541.143 85.0621,524.476 84.5,502C 85.2474,493.116 86.0808,484.282 87,475.5C 66.1892,464.025 49.1892,448.358 36,428.5C 32.364,422.597 29.6973,416.263 28,409.5C 27.2617,405.739 27.5951,402.072 29,398.5C 34.4229,389.485 38.9229,379.985 42.5,370C 42.1667,369.5 41.8333,369 41.5,368.5C 33.3784,373.258 26.2118,372.258 20,365.5C 16.308,355.896 13.4747,346.063 11.5,336C 12.7978,330.276 14.7978,324.776 17.5,319.5C 11.0591,316.636 7.55909,311.636 7,304.5C 6.13318,299.303 6.79985,294.303 9,289.5C 12.7101,283.913 16.5435,278.413 20.5,273C 11.5931,272.758 6.4264,268.258 5,259.5C 3.64047,241.16 4.80714,222.994 8.5,205C 7.40474,193.141 9.40474,181.807 14.5,171C 5.31524,149.764 0.815243,127.598 1,104.5C 3.02586,93.4672 9.19252,85.6338 19.5,81C 39.5643,74.2007 59.5643,67.2007 79.5,60C 92.6225,53.9388 105.623,47.6055 118.5,41C 117.409,38.9361 117.242,36.7695 118,34.5C 118.97,32.0408 120.137,29.7075 121.5,27.5C 118.878,17.7418 122.544,12.0751 132.5,10.5C 142.028,12.0982 150.362,16.0982 157.5,22.5C 170.005,17.3139 181.339,19.1472 191.5,28C 198.4,34.8997 205.233,41.7331 212,48.5C 220.483,45.395 228.983,42.395 237.5,39.5C 235.154,33.2223 234.988,26.889 237,20.5C 241.997,13.1107 248.497,11.6107 256.5,16C 263.356,21.2228 269.189,27.3895 274,34.5C 272.684,26.3519 273.351,18.3519 276,10.5C 278.654,6.66775 282.321,4.33442 287,3.5C 290.216,4.46164 293.382,5.62831 296.5,7C 305.874,16.3705 313.707,26.8705 320,38.5C 325.269,28.9035 330.936,19.5702 337,10.5C 340.585,5.72392 345.085,2.39058 350.5,0.5 Z"/></g>
<g><path style="opacity:1" fill="#5f3f27" d="M 388.5,60.5 C 387.782,62.1368 387.616,63.8034 388,65.5C 392.21,71.3775 397.377,76.2108 403.5,80C 408.473,82.3938 412.806,81.5605 416.5,77.5C 427.421,83.3041 437.754,90.1374 447.5,98C 457.373,106.71 467.373,115.21 477.5,123.5C 491.376,155.285 503.21,187.952 513,221.5C 517.34,235.694 524.84,247.861 535.5,258C 538.51,260.222 541.01,259.722 543,256.5C 543.845,254.389 544.678,252.389 545.5,250.5C 554.803,261.98 563.97,273.647 573,285.5C 576.422,289.844 578.922,294.677 580.5,300C 580.845,307.329 577.512,310.329 570.5,309C 566.123,307.989 561.79,306.822 557.5,305.5C 556,305.453 555,306.119 554.5,307.5C 563.676,314.196 570.176,322.862 574,333.5C 573.433,342.772 571.433,351.772 568,360.5C 565.853,361.476 563.686,361.309 561.5,360C 555.221,356.054 549.221,351.721 543.5,347C 541.655,345.872 539.655,345.372 537.5,345.5C 541.398,365.688 548.564,384.688 559,402.5C 559.343,409.829 557.343,416.495 553,422.5C 541.191,440.644 525.857,454.977 507,465.5C 479.081,343.761 402.581,285.594 277.5,291C 192.735,298.779 134.235,341.946 102,420.5C 97.0407,435.008 92.7074,449.675 89,464.5C 70.7585,453.593 55.7585,439.259 44,421.5C 41.0008,416.502 38.8341,411.169 37.5,405.5C 48.1974,386.765 55.5307,366.765 59.5,345.5C 57.3453,345.372 55.3453,345.872 53.5,347C 46.5452,352.724 39.0452,357.558 31,361.5C 30.228,361.355 29.5613,361.022 29,360.5C 26.1329,352.532 23.9662,344.366 22.5,336C 26.0533,324.42 32.7199,314.92 42.5,307.5C 42.0004,306.119 41.0004,305.453 39.5,305.5C 32.9505,307.641 26.2838,308.808 19.5,309C 17.889,306.231 16.889,303.231 16.5,300C 18.078,294.677 20.578,289.844 24,285.5C 33.6003,272.622 43.4336,259.956 53.5,247.5C 54.963,250.203 55.7963,253.203 56,256.5C 57.0616,257.899 58.395,258.899 60,259.5C 62.3899,258.722 64.5566,257.555 66.5,256C 75.5147,245.145 82.3481,232.979 87,219.5C 95.54,191.88 104.873,164.546 115,137.5C 115.837,133.843 117.67,130.843 120.5,128.5C 132.706,115.794 145.706,103.961 159.5,93C 166.548,87.1449 174.215,82.3116 182.5,78.5C 185.186,79.537 187.852,80.537 190.5,81.5C 199.183,78.6634 206.016,73.3301 211,65.5C 211.613,63.5048 211.113,61.8381 209.5,60.5C 217.831,57.0878 226.331,54.0878 235,51.5C 237.38,52.2007 239.547,53.3674 241.5,55C 247.142,55.1758 249.476,52.3424 248.5,46.5C 247.898,40.9922 247.232,35.4922 246.5,30C 246.404,27.6253 246.904,25.4587 248,23.5C 252.584,26.0797 256.584,29.4131 260,33.5C 265.723,40.8907 271.056,48.5574 276,56.5C 279.862,60.775 282.862,60.4417 285,55.5C 285.167,51.6667 285.333,47.8333 285.5,44C 284.784,34.5018 284.617,25.0018 285,15.5C 285.725,14.9415 286.558,14.6082 287.5,14.5C 289.606,15.4295 291.606,16.5962 293.5,18C 303.212,30.579 311.545,44.079 318.5,58.5C 320.149,57.3523 321.649,56.019 323,54.5C 330.622,40.0816 339.122,26.2483 348.5,13C 350.025,11.9914 351.692,11.4914 353.5,11.5C 352.953,20.9785 351.453,30.3119 349,39.5C 348.333,44.1667 348.333,48.8333 349,53.5C 352.631,57.5352 355.797,57.0352 358.5,52C 360.5,51.3333 362.5,51.3333 364.5,52C 372.486,54.9392 380.486,57.7726 388.5,60.5 Z"/></g>
<g><path style="opacity:1" fill="#4b2f22" d="M 209.5,60.5 C 211.113,61.8381 211.613,63.5048 211,65.5C 206.016,73.3301 199.183,78.6634 190.5,81.5C 187.852,80.537 185.186,79.537 182.5,78.5C 181.342,75.1783 179.008,73.0117 175.5,72C 170.254,70.4941 164.921,70.1608 159.5,71C 146.333,76.1667 137.167,85.3333 132,98.5C 127.541,108.043 123.375,117.71 119.5,127.5C 119.624,128.107 119.957,128.44 120.5,128.5C 117.67,130.843 115.837,133.843 115,137.5C 104.873,164.546 95.54,191.88 87,219.5C 82.3481,232.979 75.5147,245.145 66.5,256C 64.5566,257.555 62.3899,258.722 60,259.5C 58.395,258.899 57.0616,257.899 56,256.5C 55.7963,253.203 54.963,250.203 53.5,247.5C 53.1667,247.5 52.8333,247.5 52.5,247.5C 53.4715,246.601 54.1382,245.434 54.5,244C 51.7548,227.759 46.2548,212.592 38,198.5C 36.4138,200.67 35.0804,203.004 34,205.5C 33.2825,206.451 32.4491,206.617 31.5,206C 30.1041,201.827 29.1041,197.661 28.5,193.5C 30.4714,190.321 31.1381,186.988 30.5,183.5C 27.0956,187.642 24.7623,192.309 23.5,197.5C 22.3893,200.856 20.7226,203.856 18.5,206.5C 17.2642,193.946 19.5975,182.113 25.5,171C 15.7665,148.814 11.2665,125.647 12,101.5C 16.9092,94.1134 23.7426,89.2801 32.5,87C 67.6946,77.4019 101.028,63.4019 132.5,45C 130.819,42.656 129.152,40.3227 127.5,38C 127.645,37.228 127.978,36.5613 128.5,36C 133.947,35.6995 139.114,36.8662 144,39.5C 144.5,39.1667 145,38.8333 145.5,38.5C 141.026,32.5254 136.026,27.0254 130.5,22C 140.412,22.541 148.578,26.7076 155,34.5C 163.334,29.2192 171.834,28.7192 180.5,33C 190.391,42.0611 200.058,51.2278 209.5,60.5 Z"/></g>
<g><path style="opacity:1" fill="#4b2f22" d="M 578.5,205.5 C 577.175,197.352 574.008,190.019 569,183.5C 568.938,187.148 569.105,190.815 569.5,194.5C 569.811,198.68 569.145,202.68 567.5,206.5C 565.025,204.23 563.025,201.563 561.5,198.5C 551.9,213.96 546.567,230.627 545.5,248.5C 544.494,248.938 544.494,249.604 545.5,250.5C 544.678,252.389 543.845,254.389 543,256.5C 541.01,259.722 538.51,260.222 535.5,258C 524.84,247.861 517.34,235.694 513,221.5C 503.21,187.952 491.376,155.285 477.5,123.5C 473.744,112.08 468.911,101.08 463,90.5C 456.089,78.7365 445.922,72.0698 432.5,70.5C 425.709,69.7551 420.376,72.0884 416.5,77.5C 412.806,81.5605 408.473,82.3938 403.5,80C 397.377,76.2108 392.21,71.3775 388,65.5C 387.616,63.8034 387.782,62.1368 388.5,60.5C 389.552,60.6495 390.552,60.4828 391.5,60C 398.802,51.6968 406.469,43.6968 414.5,36C 423.838,28.0447 433.671,27.5447 444,34.5C 449.874,27.9816 457.041,23.6483 465.5,21.5C 466.5,21.8333 467.5,22.1667 468.5,22.5C 464.542,25.9567 460.708,29.6233 457,33.5C 455.441,35.2166 454.608,37.2166 454.5,39.5C 457.691,38.9078 460.691,37.7411 463.5,36C 473.086,35.4131 474.086,38.4131 466.5,45C 499.756,63.7934 534.756,78.4601 571.5,89C 576.59,90.9583 581.09,93.7916 585,97.5C 585.667,98.8333 586.333,100.167 587,101.5C 588.138,125.755 583.638,148.921 573.5,171C 580.107,182.114 581.773,193.614 578.5,205.5 Z"/></g>
<g><path style="opacity:1" fill="#332523" d="M 182.5,78.5 C 174.215,82.3116 166.548,87.1449 159.5,93C 145.706,103.961 132.706,115.794 120.5,128.5C 119.957,128.44 119.624,128.107 119.5,127.5C 123.375,117.71 127.541,108.043 132,98.5C 137.167,85.3333 146.333,76.1667 159.5,71C 164.921,70.1608 170.254,70.4941 175.5,72C 179.008,73.0117 181.342,75.1783 182.5,78.5 Z"/></g>
<g><path style="opacity:1" fill="#332523" d="M 477.5,123.5 C 467.373,115.21 457.373,106.71 447.5,98C 437.754,90.1374 427.421,83.3041 416.5,77.5C 420.376,72.0884 425.709,69.7551 432.5,70.5C 445.922,72.0698 456.089,78.7365 463,90.5C 468.911,101.08 473.744,112.08 477.5,123.5 Z"/></g>
<g><path style="opacity:1" fill="#080503" d="M 578.5,205.5 C 576.635,200.962 573.635,197.296 569.5,194.5C 569.105,190.815 568.938,187.148 569,183.5C 574.008,190.019 577.175,197.352 578.5,205.5 Z"/></g>
<g><path style="opacity:1" fill="#0a0503" d="M 28.5,193.5 C 26.8333,194.833 25.1667,196.167 23.5,197.5C 24.7623,192.309 27.0956,187.642 30.5,183.5C 31.1381,186.988 30.4714,190.321 28.5,193.5 Z"/></g>
<g><path style="opacity:1" fill="#5f3f27" d="M 28.5,193.5 C 29.1041,197.661 30.1041,201.827 31.5,206C 32.4491,206.617 33.2825,206.451 34,205.5C 35.0804,203.004 36.4138,200.67 38,198.5C 46.2548,212.592 51.7548,227.759 54.5,244C 54.1382,245.434 53.4715,246.601 52.5,247.5C 41.9232,254.12 30.5899,259.12 18.5,262.5C 17.8333,262.167 17.1667,261.833 16.5,261.5C 13.6924,243.07 14.3591,224.736 18.5,206.5C 20.7226,203.856 22.3893,200.856 23.5,197.5C 25.1667,196.167 26.8333,194.833 28.5,193.5 Z"/></g>
<g><path style="opacity:1" fill="#0c0b0b" d="M 240.5,229.5 C 228.156,234.534 217.156,241.534 207.5,250.5C 199.047,257.583 191.38,265.417 184.5,274C 174.834,276.335 171.001,272.502 173,262.5C 176.409,253.181 181.242,244.681 187.5,237C 178.113,240.521 168.78,244.355 159.5,248.5C 152.908,247.317 151.075,243.65 154,237.5C 179.082,212.711 209.249,198.211 244.5,194C 253.816,192.498 262.483,194.164 270.5,199C 277.167,205 277.167,211 270.5,217C 260.289,220.897 250.289,225.063 240.5,229.5 Z"/></g>
<g><path style="opacity:1" fill="#0d0c0b" d="M 387.5,247.5 C 378.344,239.414 368.011,233.08 356.5,228.5C 347.66,223.915 338.326,220.748 328.5,219C 318.806,212.862 318.139,205.862 326.5,198C 331.487,195.302 336.82,193.802 342.5,193.5C 381.253,195.904 414.42,210.57 442,237.5C 443.365,245.762 439.865,248.928 431.5,247C 426.341,244.588 421.341,241.921 416.5,239C 415.365,238.251 414.365,238.417 413.5,239.5C 420.091,247.518 424.091,256.684 425.5,267C 424.424,273.41 420.757,275.743 414.5,274C 406.268,264.267 397.268,255.434 387.5,247.5 Z"/></g>
<g><path style="opacity:1" fill="#5e3f27" d="M 569.5,194.5 C 573.635,197.296 576.635,200.962 578.5,205.5C 581.993,223.745 582.826,242.079 581,260.5C 577.179,261.675 573.346,261.508 569.5,260C 561.352,256.426 553.352,252.592 545.5,248.5C 546.567,230.627 551.9,213.96 561.5,198.5C 563.025,201.563 565.025,204.23 567.5,206.5C 569.145,202.68 569.811,198.68 569.5,194.5 Z"/></g>
<g><path style="opacity:1" fill="#f0e7e1" d="M 244.5,198.5 C 251.342,198.039 258.009,198.872 264.5,201C 271.532,204.479 272.199,208.813 266.5,214C 231.983,223.558 203.65,242.224 181.5,270C 180.207,270.49 178.873,270.657 177.5,270.5C 179.327,258.51 184.16,247.843 192,238.5C 192.993,232.498 190.493,230.332 184.5,232C 175.699,236.403 166.699,240.236 157.5,243.5C 157.608,241.217 158.441,239.217 160,237.5C 184.114,215.739 212.28,202.739 244.5,198.5 Z"/></g>
<g><path style="opacity:1" fill="#f0e6e0" d="M 338.5,198.5 C 367.955,199.263 394.955,207.763 419.5,224C 425.928,228.423 431.761,233.59 437,239.5C 437.483,240.448 437.649,241.448 437.5,242.5C 430.3,239.403 422.966,236.569 415.5,234C 412.975,233.104 410.808,233.604 409,235.5C 408.348,238.594 408.682,241.594 410,244.5C 414.113,250.391 417.446,256.724 420,263.5C 420.851,266.053 420.518,268.386 419,270.5C 394.743,241.61 364.243,222.443 327.5,213C 324.431,208.675 325.098,205.008 329.5,202C 332.459,200.396 335.459,199.229 338.5,198.5 Z"/></g>
<g><path style="opacity:1" fill="#372a25" d="M 240.5,229.5 C 242.1,230.644 243.767,231.811 245.5,233C 245.167,233.333 244.833,233.667 244.5,234C 258.093,246.755 257.759,259.088 243.5,271C 230.86,277.34 220.36,274.84 212,263.5C 210.43,259.073 208.93,254.74 207.5,250.5C 217.156,241.534 228.156,234.534 240.5,229.5 Z"/></g>
<g><path style="opacity:1" fill="#dfdede" d="M 234.5,237.5 C 241.632,237.802 244.465,241.469 243,248.5C 237.833,254.092 233.167,253.759 229,247.5C 228.448,242.879 230.282,239.545 234.5,237.5 Z"/></g>
<g><path style="opacity:1" fill="#322825" d="M 356.5,228.5 C 368.011,233.08 378.344,239.414 387.5,247.5C 388.145,263.351 380.645,272.351 365,274.5C 351.546,273.046 344.046,265.546 342.5,252C 342.656,247.864 343.823,244.031 346,240.5C 350.318,236.489 353.818,232.489 356.5,228.5 Z"/></g>
<g><path style="opacity:1" fill="#dedddd" d="M 368.5,237.5 C 378.203,239.498 379.87,244.332 373.5,252C 365.83,253.327 362.33,250.161 363,242.5C 364.107,239.887 365.94,238.22 368.5,237.5 Z"/></g>
<g><path style="opacity:1" fill="#f3e9e3" d="M 333.5,303.5 C 337.833,304.167 342.167,304.833 346.5,305.5C 348.599,306.612 350.933,307.279 353.5,307.5C 355.042,308.301 356.708,308.634 358.5,308.5C 360.515,309.924 362.848,310.59 365.5,310.5C 367.936,311.871 370.603,312.871 373.5,313.5C 400.791,322.471 424.125,337.471 443.5,358.5C 444.419,361.089 446.086,363.089 448.5,364.5C 463.344,380.821 474.677,399.487 482.5,420.5C 482.98,423.443 483.98,426.11 485.5,428.5C 485.604,430.703 486.27,432.703 487.5,434.5C 489.666,442.322 491.999,449.989 494.5,457.5C 494.5,457.833 494.5,458.167 494.5,458.5C 494.964,463.531 496.297,468.198 498.5,472.5C 501.563,486.758 502.063,501.092 500,515.5C 496.207,527.437 488.874,536.437 478,542.5C 477.055,542.095 476.388,541.428 476,540.5C 474.283,533.615 473.283,526.615 473,519.5C 472.542,515.917 471.042,512.917 468.5,510.5C 467.914,510.709 467.414,511.043 467,511.5C 466.803,522.906 465.803,534.24 464,545.5C 463.235,548.196 462.068,550.696 460.5,553C 453.899,556.634 446.899,559.134 439.5,560.5C 434.499,558.909 430.999,555.576 429,550.5C 427.938,549.101 426.605,548.101 425,547.5C 408.336,565.588 387.836,577.088 363.5,582C 321.564,590.265 279.564,590.598 237.5,583C 211.143,578.577 188.976,566.744 171,547.5C 167.627,551.727 164.127,555.894 160.5,560C 152.356,560.11 144.689,558.11 137.5,554C 135.263,551.97 133.763,549.47 133,546.5C 131.299,534.547 130.132,522.547 129.5,510.5C 126.95,510.561 125.45,511.894 125,514.5C 123.662,523.87 122.162,533.204 120.5,542.5C 108.728,537.553 100.894,528.887 97,516.5C 94.8246,459.692 111.491,409.026 147,364.5C 173.73,334.215 206.897,314.882 246.5,306.5C 251.744,306.118 256.744,305.118 261.5,303.5C 261.833,303.5 262.167,303.5 262.5,303.5C 286.17,300.85 309.836,300.85 333.5,303.5 Z"/></g>
<g><path style="opacity:1" fill="#73645a" d="M 333.5,303.5 C 309.836,300.85 286.17,300.85 262.5,303.5C 267.272,302.129 272.272,301.296 277.5,301C 291.5,300.333 305.5,300.333 319.5,301C 324.434,301.116 329.1,301.949 333.5,303.5 Z"/></g>
<g><path style="opacity:1" fill="#75665b" d="M 261.5,303.5 C 256.744,305.118 251.744,306.118 246.5,306.5C 251.206,304.625 256.206,303.625 261.5,303.5 Z"/></g>
<g><path style="opacity:1" fill="#68594f" d="M 346.5,305.5 C 349.228,305.171 351.562,305.837 353.5,307.5C 350.933,307.279 348.599,306.612 346.5,305.5 Z"/></g>
<g><path style="opacity:1" fill="#605247" d="M 358.5,308.5 C 361.152,308.41 363.485,309.076 365.5,310.5C 362.848,310.59 360.515,309.924 358.5,308.5 Z"/></g>
<g><path style="opacity:1" fill="#615248" d="M 365.5,310.5 C 368.716,310.345 371.383,311.345 373.5,313.5C 370.603,312.871 367.936,311.871 365.5,310.5 Z"/></g>
<g><path style="opacity:1" fill="#302d2b" d="M 309.5,342.5 C 299.148,342.399 288.815,342.733 278.5,343.5C 284.601,342.028 290.935,341.361 297.5,341.5C 301.681,341.501 305.681,341.834 309.5,342.5 Z"/></g>
<g><path style="opacity:1" fill="#060505" d="M 309.5,342.5 C 321.846,342.536 332.346,346.869 341,355.5C 347.466,367.52 346.799,379.187 339,390.5C 331.198,398.625 322.031,404.792 311.5,409C 303.29,417.125 302.623,425.791 309.5,435C 317.422,438.197 325.422,441.197 333.5,444C 340.248,446.945 345.915,451.112 350.5,456.5C 350.182,457.647 349.516,458.481 348.5,459C 344.227,460.03 339.894,460.697 335.5,461C 309.833,461.667 284.167,461.667 258.5,461C 255.086,460.703 251.753,460.036 248.5,459C 247.09,458.632 246.09,457.799 245.5,456.5C 251.596,449.941 258.93,445.108 267.5,442C 273.5,440 279.5,438 285.5,436C 292.103,429.085 293.27,421.252 289,412.5C 287.833,411.333 286.667,410.167 285.5,409C 273.056,404.552 262.89,397.052 255,386.5C 246.038,363.094 253.872,348.761 278.5,343.5C 288.815,342.733 299.148,342.399 309.5,342.5 Z"/></g>
<g><path style="opacity:1" fill="#2f2725" d="M 292.5,351.5 C 303.127,351.162 313.46,352.662 323.5,356C 337.892,364.297 339.225,374.463 327.5,386.5C 320.298,392.603 312.298,397.437 303.5,401C 301.649,402.684 299.982,404.517 298.5,406.5C 297.002,404.171 295.002,402.337 292.5,401C 281.07,396.715 271.57,389.882 264,380.5C 259.052,370.628 261.219,362.795 270.5,357C 277.643,353.881 284.976,352.048 292.5,351.5 Z"/></g>
<g><path style="opacity:1" fill="#807066" d="M 443.5,358.5 C 445.914,359.911 447.581,361.911 448.5,364.5C 446.086,363.089 444.419,361.089 443.5,358.5 Z"/></g>
<g><path style="opacity:1" fill="#77685e" d="M 482.5,420.5 C 484.585,422.684 485.585,425.351 485.5,428.5C 483.98,426.11 482.98,423.443 482.5,420.5 Z"/></g>
<g><path style="opacity:1" fill="#695a4f" d="M 487.5,434.5 C 491.2,441.61 493.533,449.276 494.5,457.5C 491.999,449.989 489.666,442.322 487.5,434.5 Z"/></g>
<g><path style="opacity:1" fill="#2f2725" d="M 297.5,438.5 C 303.305,445.061 310.639,448.894 319.5,450C 305.5,450.667 291.5,450.667 277.5,450C 283.468,448.423 289.135,446.09 294.5,443C 296.141,441.871 297.141,440.371 297.5,438.5 Z"/></g>
<g><path style="opacity:1" fill="#54473e" d="M 494.5,458.5 C 496.45,462.867 497.783,467.534 498.5,472.5C 496.297,468.198 494.964,463.531 494.5,458.5 Z"/></g>
</svg>
