<?xml version="1.0" encoding="UTF-8"?>
<!DOCTYPE svg PUBLIC "-//W3C//DTD SVG 1.1//EN" "http://www.w3.org/Graphics/SVG/1.1/DTD/svg11.dtd">
<svg xmlns="http://www.w3.org/2000/svg" version="1.1" width="600px" height="600px" style="shape-rendering:geometricPrecision; text-rendering:geometricPrecision; image-rendering:optimizeQuality; fill-rule:evenodd; clip-rule:evenodd" xmlns:xlink="http://www.w3.org/1999/xlink">
<g><path style="opacity:0.965" fill="#020202" d="M 317.5,599.5 C 307.833,599.5 298.167,599.5 288.5,599.5C 288.027,592.905 285.527,587.238 281,582.5C 274.451,593.921 265.951,595.421 255.5,587C 248.99,581.656 242.99,575.823 237.5,569.5C 232.596,576.806 226.263,578.639 218.5,575C 207.145,559.638 194.312,545.471 180,532.5C 177.167,528.333 174.333,524.167 171.5,520C 164.739,522.372 158.073,525.372 151.5,529C 134.982,534.243 125.982,528.243 124.5,511C 125.982,501.248 128.148,491.748 131,482.5C 123.833,490.346 115.166,495.68 105,498.5C 97.3789,497.717 92.2122,493.717 89.5,486.5C 77.94,490.469 70.7733,486.469 68,474.5C 67.3333,465.5 67.3333,456.5 68,447.5C 75.87,386.943 86.5367,326.943 100,267.5C 102.815,257.38 106.982,247.88 112.5,239C 107.126,239.997 101.792,239.664 96.5,238C 88.6289,232.07 87.7956,225.236 94,217.5C 97.2012,213.964 100.701,210.797 104.5,208C 96.5337,204.109 94.0337,197.943 97,189.5C 103.594,183.365 110.594,177.698 118,172.5C 116.795,122.678 122.462,73.6781 135,25.5C 143.575,7.74955 157.075,2.58289 175.5,10C 184.867,15.6946 193.367,22.5279 201,30.5C 214.178,45.1744 226.011,60.8411 236.5,77.5C 242.737,78.6214 247.07,82.1214 249.5,88C 258.932,87.2533 263.932,91.7533 264.5,101.5C 263.1,106.933 262.1,112.433 261.5,118C 261.285,122.018 262.285,125.685 264.5,129C 287.833,129.667 311.167,129.667 334.5,129C 336.886,125.92 337.886,122.42 337.5,118.5C 337.081,112.571 336.081,106.737 334.5,101C 335.399,90.9183 340.732,86.7517 350.5,88.5C 350.642,85.383 351.976,82.883 354.5,81C 357.33,80.131 359.997,78.9643 362.5,77.5C 377.39,53.1064 395.723,31.6064 417.5,13C 435.876,1.8914 451.042,5.05807 463,22.5C 476.599,71.5528 482.599,121.553 481,172.5C 486.569,177.035 492.403,181.201 498.5,185C 503.46,190.047 504.627,195.88 502,202.5C 500.062,205.106 497.562,206.939 494.5,208C 501.989,212.647 506.989,219.147 509.5,227.5C 508.917,233.247 505.917,237.08 500.5,239C 495.783,239.476 491.117,239.476 486.5,239C 491.481,246.603 495.315,254.769 498,263.5C 511.8,324.297 522.8,385.63 531,447.5C 531.667,456.5 531.667,465.5 531,474.5C 528.199,487.141 521.033,491.141 509.5,486.5C 503.827,498.255 495.16,501.088 483.5,495C 478.379,491.547 473.546,487.714 469,483.5C 471.537,492.823 473.704,502.323 475.5,512C 473.097,528.431 464.097,534.098 448.5,529C 445.088,527.545 441.921,525.712 439,523.5C 430.108,535.398 420.108,546.398 409,556.5C 404.77,563.12 399.937,569.287 394.5,575C 386.531,578.8 379.697,577.3 374,570.5C 368.127,578.04 361.294,584.54 353.5,590C 345.004,595.167 337.504,594 331,586.5C 326.605,591.064 322.105,595.398 317.5,599.5 Z"/></g>
<g><path style="opacity:1" fill="#353436" d="M 155.5,17.5 C 160.599,17.1746 165.599,17.6746 170.5,19C 176.033,21.9338 181.033,25.6004 185.5,30C 203.298,48.4564 218.798,68.623 232,90.5C 234.104,90.2922 236.27,90.2922 238.5,90.5C 239.439,94.4643 240.272,98.4643 241,102.5C 242.588,104.968 244.422,105.134 246.5,103C 248.076,100.923 250.076,99.4229 252.5,98.5C 253.328,103.23 252.828,107.896 251,112.5C 249.545,121.138 251.211,129.138 256,136.5C 257.932,138.038 260.099,139.205 262.5,140C 287.167,140.667 311.833,140.667 336.5,140C 338.087,139.138 339.754,138.471 341.5,138C 347.498,130.508 349.665,122.008 348,112.5C 347.246,108.649 346.412,104.816 345.5,101C 345.833,100.167 346.167,99.3333 346.5,98.5C 348.924,99.4229 350.924,100.923 352.5,103C 354.578,105.134 356.412,104.968 358,102.5C 358.9,98.1658 359.734,93.8324 360.5,89.5C 362.484,89.3832 364.15,90.0499 365.5,91.5C 378.292,71.8635 392.459,53.1969 408,35.5C 414.255,29.241 421.088,23.741 428.5,19C 442.611,14.4718 451.777,19.3051 456,33.5C 467.001,79.8396 471.668,126.84 470,174.5C 471.467,177.266 473.3,179.766 475.5,182C 481.948,185.954 487.948,190.454 493.5,195.5C 493.291,196.086 492.957,196.586 492.5,197C 491.167,197.167 489.833,197.333 488.5,197.5C 483.599,195.929 478.599,195.429 473.5,196C 472.941,196.725 472.608,197.558 472.5,198.5C 473.137,201.107 474.304,203.44 476,205.5C 483.868,212.37 491.368,219.537 498.5,227C 498.266,228.732 497.266,229.566 495.5,229.5C 488.278,227.462 480.945,226.628 473.5,227C 472.234,230.509 472.401,234.009 474,237.5C 485.582,255.08 492.082,274.414 493.5,295.5C 488.187,294.638 482.854,294.471 477.5,295C 473.216,298.288 470.05,302.455 468,307.5C 465.637,303.66 462.137,301.66 457.5,301.5C 454.649,302.287 451.983,303.12 449.5,304C 447.742,299.908 444.742,297.241 440.5,296C 444.075,282.422 445.575,268.589 445,254.5C 444.439,252.275 443.439,250.275 442,248.5C 419.186,223.021 391.019,206.854 357.5,200C 342.136,197.61 328.469,201.277 316.5,211C 312.779,214.943 309.945,219.443 308,224.5C 307.333,238.833 307.333,253.167 308,267.5C 309.566,281.561 311.566,295.561 314,309.5C 318.222,323.42 313.222,331.087 299,332.5C 289.317,331.981 284.15,326.981 283.5,317.5C 287.573,293.654 290.24,269.654 291.5,245.5C 295.331,222.199 285.998,207.366 263.5,201C 246.93,198.205 230.93,200.205 215.5,207C 193.453,217.271 173.953,231.104 157,248.5C 154.105,252.681 152.938,257.348 153.5,262.5C 153.922,275.455 155.922,288.122 159.5,300.5C 154.408,300.97 150.074,302.97 146.5,306.5C 139.666,300.832 133.5,301.499 128,308.5C 124.019,302.784 118.519,300.617 111.5,302C 108.947,302.761 106.447,303.594 104,304.5C 105.085,292.734 107.085,281.067 110,269.5C 115.304,256.228 121.138,243.228 127.5,230.5C 127.471,228.971 126.804,227.804 125.5,227C 117.997,226.207 110.664,227.04 103.5,229.5C 100.918,229.253 100.085,227.92 101,225.5C 108.667,218.5 116.333,211.5 124,204.5C 126.209,201.859 126.709,199.025 125.5,196C 120.25,195.468 115.084,195.968 110,197.5C 108.027,197.691 106.527,197.024 105.5,195.5C 110.721,190.786 116.388,186.619 122.5,183C 125.433,180.736 127.6,177.902 129,174.5C 128.362,138.294 130.695,102.294 136,66.5C 138.246,52.1015 141.912,38.1015 147,24.5C 149.441,21.5464 152.275,19.2131 155.5,17.5 Z"/></g>
<g><path style="opacity:1" fill="#ddada3" d="M 163.5,44.5 C 170.375,45.3627 175.875,48.6961 180,54.5C 199.283,77.6835 208.617,104.35 208,134.5C 202.947,150.091 193.447,162.257 179.5,171C 172.667,175.738 165.333,177.071 157.5,175C 155.898,173.065 154.731,170.899 154,168.5C 148.47,129.926 149.803,91.593 158,53.5C 159.343,50.1381 161.176,47.1381 163.5,44.5 Z"/></g>
<g><path style="opacity:1" fill="#ddada3" d="M 430.5,44.5 C 433.652,43.9586 436.152,44.9586 438,47.5C 439.908,50.2154 441.241,53.2154 442,56.5C 448.925,91.9495 450.259,127.616 446,163.5C 446.047,168.909 443.88,173.075 439.5,176C 432.313,176.608 425.647,174.941 419.5,171C 402.309,160.103 392.642,144.603 390.5,124.5C 393.284,92.2644 406.618,65.5978 430.5,44.5 Z"/></g>
<g><path style="opacity:1" fill="#ece6da" d="M 279.5,228.5 C 274.508,266.951 265.008,304.284 251,340.5C 244.069,354.418 236.736,368.085 229,381.5C 219.743,403.564 220.41,425.231 231,446.5C 233.335,449.665 235.835,452.665 238.5,455.5C 246.052,469.307 252.552,483.64 258,498.5C 261.768,507.048 266.268,515.048 271.5,522.5C 272.045,524.593 272.878,526.593 274,528.5C 277.063,531.076 280.229,533.409 283.5,535.5C 285.34,537.669 287.674,539.002 290.5,539.5C 292.491,541.061 294.824,542.061 297.5,542.5C 302.643,541.932 307.643,540.766 312.5,539C 318.003,534.663 323.003,529.83 327.5,524.5C 331.142,519.903 334.308,514.903 337,509.5C 344.038,491.098 351.871,473.098 360.5,455.5C 364.183,451.975 367.35,447.975 370,443.5C 378.285,423.69 378.618,403.69 371,383.5C 365.1,371.931 358.767,360.598 352,349.5C 335.687,309.914 324.854,268.914 319.5,226.5C 323.077,219.356 328.744,214.522 336.5,212C 352.132,208.987 367.132,210.987 381.5,218C 401.575,227.291 419.075,240.124 434,256.5C 434.333,263.183 433.999,269.85 433,276.5C 431.368,287.65 429.368,298.65 427,309.5C 430.444,308.073 433.944,306.74 437.5,305.5C 440.759,313.59 445.425,320.757 451.5,327C 453.025,328.009 454.692,328.509 456.5,328.5C 456.149,322.738 456.649,317.072 458,311.5C 461.157,319.812 466.324,326.479 473.5,331.5C 474.086,331.291 474.586,330.957 475,330.5C 474.206,321.34 476.373,313.007 481.5,305.5C 482.167,305.167 482.833,304.833 483.5,304.5C 488.086,305.648 492.586,306.981 497,308.5C 504.864,349.015 511.864,389.682 518,430.5C 520.631,445.852 520.965,461.185 519,476.5C 518.333,477.167 517.667,477.833 517,478.5C 514.372,476.874 512.039,474.874 510,472.5C 505.049,464.392 499.549,456.725 493.5,449.5C 493.167,450.5 492.833,451.5 492.5,452.5C 494.897,461.921 496.897,471.421 498.5,481C 498.36,487.471 495.36,489.138 489.5,486C 480.916,480.087 472.916,473.42 465.5,466C 462.163,463.329 458.496,461.163 454.5,459.5C 453.201,460.09 452.368,461.09 452,462.5C 452.319,464.595 452.152,466.595 451.5,468.5C 456.948,482.675 461.281,497.175 464.5,512C 463.656,519.854 459.656,522.188 452.5,519C 446.915,515.625 441.415,512.125 436,508.5C 426.247,524.266 414.247,538.266 400,550.5C 396.753,554.659 393.753,558.992 391,563.5C 389.214,566.362 386.881,567.028 384,565.5C 383.333,562.833 383.333,560.167 384,557.5C 386.799,548.769 389.799,540.103 393,531.5C 394.123,525.563 392.789,524.563 389,528.5C 379.825,546.015 368.325,561.849 354.5,576C 351.672,578.248 348.672,580.248 345.5,582C 343.888,582.72 342.388,582.554 341,581.5C 342.466,575.077 343.966,568.577 345.5,562C 345.809,559.336 344.975,557.17 343,555.5C 333.591,569.244 322.424,581.411 309.5,592C 305.98,594.874 302.147,595.708 298,594.5C 296.958,587.752 294.291,581.752 290,576.5C 282.299,569.797 274.965,562.797 268,555.5C 267.228,555.645 266.561,555.978 266,556.5C 265.833,557.833 265.667,559.167 265.5,560.5C 267.374,567.453 269.04,574.453 270.5,581.5C 268.011,581.702 265.677,581.202 263.5,580C 257.698,575.2 252.198,570.033 247,564.5C 238.17,552.176 229.836,539.509 222,526.5C 220.644,525.62 219.144,525.286 217.5,525.5C 220.486,536.96 223.986,548.294 228,559.5C 228.965,562.363 228.298,564.696 226,566.5C 224.605,566.22 223.438,565.553 222.5,564.5C 220,560.833 217.5,557.167 215,553.5C 199.237,539.089 185.737,522.922 174.5,505C 165.521,509.326 156.521,513.992 147.5,519C 142.779,521.591 138.945,520.758 136,516.5C 135.333,512.833 135.333,509.167 136,505.5C 139.066,493.97 142.732,482.637 147,471.5C 150.942,458.609 147.442,456.109 136.5,464C 127.79,471.712 118.79,479.045 109.5,486C 104.099,489.035 101.099,487.535 100.5,481.5C 101.859,473.065 103.692,464.732 106,456.5C 106.814,454.098 106.647,451.765 105.5,449.5C 99.5218,456.776 94.0218,464.443 89,472.5C 87.5,474 86,475.5 84.5,477C 82.8876,477.72 81.3876,477.554 80,476.5C 78.1928,463.564 78.1928,450.564 80,437.5C 85.8637,397.318 92.697,357.318 100.5,317.5C 105.624,314.938 110.957,312.938 116.5,311.5C 118.194,313.554 119.361,315.888 120,318.5C 120.499,323.155 120.666,327.821 120.5,332.5C 124.503,332.029 127.669,330.029 130,326.5C 133.172,322.159 135.839,317.492 138,312.5C 139.351,318.072 139.851,323.738 139.5,329.5C 143.503,329.029 146.669,327.029 149,323.5C 151.974,319.882 154.141,315.882 155.5,311.5C 161.575,312.852 167.575,314.519 173.5,316.5C 173.833,316.167 174.167,315.833 174.5,315.5C 168.084,296.34 164.918,276.673 165,256.5C 184.236,234.962 207.736,220.129 235.5,212C 251.901,207.145 266.068,210.645 278,222.5C 279.128,224.345 279.628,226.345 279.5,228.5 Z"/></g>
<g><path style="opacity:1" fill="#d6d0c4" d="M 319.5,226.5 C 324.854,268.914 335.687,309.914 352,349.5C 358.767,360.598 365.1,371.931 371,383.5C 378.618,403.69 378.285,423.69 370,443.5C 367.35,447.975 364.183,451.975 360.5,455.5C 354.363,459.021 347.696,460.355 340.5,459.5C 328.638,454.931 316.638,450.431 304.5,446C 297.385,444.577 291.052,446.077 285.5,450.5C 279.78,453.353 273.78,455.686 267.5,457.5C 264.627,457.802 261.961,458.469 259.5,459.5C 251.976,460.393 244.976,459.06 238.5,455.5C 235.835,452.665 233.335,449.665 231,446.5C 220.41,425.231 219.743,403.564 229,381.5C 236.736,368.085 244.069,354.418 251,340.5C 265.008,304.284 274.508,266.951 279.5,228.5C 280.659,238.658 280.825,248.992 280,259.5C 278.969,273.95 277.136,288.283 274.5,302.5C 272.504,309.443 272.17,316.443 273.5,323.5C 275.195,333.697 281.195,339.863 291.5,342C 300.874,343.718 309.541,342.051 317.5,337C 323.296,331.616 325.963,324.949 325.5,317C 322.878,298.191 320.378,279.358 318,260.5C 317.333,250.833 317.333,241.167 318,231.5C 318.198,229.618 318.698,227.952 319.5,226.5 Z"/></g>
<g><path style="opacity:1" fill="#563d2b" d="M 232.5,247.5 C 227.797,247.437 223.13,247.771 218.5,248.5C 221.017,247.027 223.85,246.36 227,246.5C 229.033,246.506 230.866,246.839 232.5,247.5 Z"/></g>
<g><path style="opacity:1" fill="#080503" d="M 232.5,247.5 C 234.099,247.232 235.432,247.566 236.5,248.5C 238.181,250.008 240.181,251.008 242.5,251.5C 244.5,254.167 246.833,256.5 249.5,258.5C 249.992,260.819 250.992,262.819 252.5,264.5C 253.314,269.119 253.647,273.786 253.5,278.5C 253.741,280.898 253.074,282.898 251.5,284.5C 248.542,289.126 244.876,293.126 240.5,296.5C 233.785,300.716 226.785,301.383 219.5,298.5C 217.819,296.992 215.819,295.992 213.5,295.5C 209.833,293.833 207.167,291.167 205.5,287.5C 205.008,285.181 204.008,283.181 202.5,281.5C 201.566,280.432 201.232,279.099 201.5,277.5C 201.505,273.466 201.838,269.466 202.5,265.5C 204.43,256.646 209.764,250.979 218.5,248.5C 223.13,247.771 227.797,247.437 232.5,247.5 Z"/></g>
<g><path style="opacity:1" fill="#080503" d="M 380.5,248.5 C 382.181,250.008 384.181,251.008 386.5,251.5C 391.451,256.419 395.118,262.086 397.5,268.5C 397.628,272.881 397.295,277.215 396.5,281.5C 396.737,282.791 396.404,283.791 395.5,284.5C 392.759,286.975 390.759,289.975 389.5,293.5C 381.58,299.706 372.913,301.373 363.5,298.5C 359.251,296.259 355.251,293.592 351.5,290.5C 347.933,287.367 345.933,283.367 345.5,278.5C 345.246,273.03 345.913,267.696 347.5,262.5C 347.75,260.326 348.75,258.659 350.5,257.5C 352.5,256.167 354.167,254.5 355.5,252.5C 361.426,247.145 368.426,245.311 376.5,247C 378.058,247.21 379.391,247.71 380.5,248.5 Z"/></g>
<g><path style="opacity:1" fill="#59402e" d="M 236.5,248.5 C 239.089,248.461 241.089,249.461 242.5,251.5C 240.181,251.008 238.181,250.008 236.5,248.5 Z"/></g>
<g><path style="opacity:1" fill="#5d4432" d="M 380.5,248.5 C 383.089,248.461 385.089,249.461 386.5,251.5C 384.181,251.008 382.181,250.008 380.5,248.5 Z"/></g>
<g><path style="opacity:1" fill="#5b422f" d="M 242.5,251.5 C 245.833,252.833 248.167,255.167 249.5,258.5C 246.833,256.5 244.5,254.167 242.5,251.5 Z"/></g>
<g><path style="opacity:1" fill="#5d4432" d="M 355.5,252.5 C 354.167,254.5 352.5,256.167 350.5,257.5C 351.167,254.833 352.833,253.167 355.5,252.5 Z"/></g>
<g><path style="opacity:1" fill="#1b0e10" d="M 222.5,257.5 C 237.314,256.813 244.147,263.813 243,278.5C 237.861,288.879 230.028,291.712 219.5,287C 208.158,275.896 209.158,266.063 222.5,257.5 Z"/></g>
<g><path style="opacity:1" fill="#1b0e10" d="M 384.5,265.5 C 386.652,267.607 387.652,270.274 387.5,273.5C 386.449,283.383 380.949,288.717 371,289.5C 358.477,286.639 353.81,278.972 357,266.5C 362.824,257.229 370.657,255.062 380.5,260C 382.464,261.451 383.797,263.284 384.5,265.5 Z"/></g>
<g><path style="opacity:1" fill="#604735" d="M 386.5,251.5 C 390.099,253.263 392.932,255.93 395,259.5C 396.549,262.312 397.382,265.312 397.5,268.5C 395.118,262.086 391.451,256.419 386.5,251.5 Z"/></g>
<g><path style="opacity:1" fill="#5a412f" d="M 249.5,258.5 C 251.539,259.911 252.539,261.911 252.5,264.5C 250.992,262.819 249.992,260.819 249.5,258.5 Z"/></g>
<g><path style="opacity:1" fill="#f0f0f0" d="M 230.5,262.5 C 239.745,261.899 242.411,265.732 238.5,274C 234.22,276.477 230.72,275.644 228,271.5C 226.927,267.9 227.76,264.9 230.5,262.5 Z"/></g>
<g><path style="opacity:1" fill="#f1f1f1" d="M 384.5,265.5 C 384.479,274.049 380.646,276.716 373,273.5C 369.752,265.758 372.252,262.258 380.5,263C 381.984,263.662 383.317,264.496 384.5,265.5 Z"/></g>
<g><path style="opacity:1" fill="#5c4330" d="M 252.5,264.5 C 254.047,266.807 254.713,269.473 254.5,272.5C 254.495,274.696 254.162,276.696 253.5,278.5C 253.647,273.786 253.314,269.119 252.5,264.5 Z"/></g>
<g><path style="opacity:1" fill="#7e6757" d="M 202.5,265.5 C 201.838,269.466 201.505,273.466 201.5,277.5C 200.84,276.036 200.507,274.369 200.5,272.5C 200.316,269.795 200.983,267.462 202.5,265.5 Z"/></g>
<g><path style="opacity:1" fill="#644c3a" d="M 347.5,262.5 C 345.913,267.696 345.246,273.03 345.5,278.5C 344.357,275.024 344.19,271.358 345,267.5C 345.374,265.509 346.207,263.842 347.5,262.5 Z"/></g>
<g><path style="opacity:1" fill="#5f4634" d="M 397.5,268.5 C 398.161,270.134 398.494,271.967 398.5,274C 398.7,276.866 398.033,279.366 396.5,281.5C 397.295,277.215 397.628,272.881 397.5,268.5 Z"/></g>
<g><path style="opacity:1" fill="#5b422f" d="M 202.5,281.5 C 204.008,283.181 205.008,285.181 205.5,287.5C 203.461,286.089 202.461,284.089 202.5,281.5 Z"/></g>
<g><path style="opacity:1" fill="#604735" d="M 395.5,284.5 C 394.277,288.049 392.277,291.049 389.5,293.5C 390.759,289.975 392.759,286.975 395.5,284.5 Z"/></g>
<g><path style="opacity:1" fill="#6d5644" d="M 251.5,284.5 C 249.939,290.396 246.272,294.396 240.5,296.5C 244.876,293.126 248.542,289.126 251.5,284.5 Z"/></g>
<g><path style="opacity:1" fill="#5a412f" d="M 213.5,295.5 C 215.819,295.992 217.819,296.992 219.5,298.5C 216.911,298.539 214.911,297.539 213.5,295.5 Z"/></g>
<g><path style="opacity:1" fill="#5c4331" d="M 351.5,290.5 C 355.251,293.592 359.251,296.259 363.5,298.5C 358.094,297.733 354.094,295.066 351.5,290.5 Z"/></g>
<g><path style="opacity:1" fill="#4c4a47" d="M 274.5,302.5 C 273.911,309.485 273.578,316.485 273.5,323.5C 272.17,316.443 272.504,309.443 274.5,302.5 Z"/></g>
<g><path style="opacity:1" fill="#040303" d="M 288.5,368.5 C 298.212,368.214 307.879,368.714 317.5,370C 335.3,373.761 342.467,384.595 339,402.5C 329.54,420.929 314.374,429.762 293.5,429C 282.211,426.037 272.711,420.204 265,411.5C 253.627,386.701 261.46,372.368 288.5,368.5 Z"/></g>
<g><path style="opacity:1" fill="#221e1f" d="M 295.5,378.5 C 306.129,377.991 316.129,380.158 325.5,385C 330.571,391.269 330.737,397.769 326,404.5C 309.564,422.271 292.564,422.937 275,406.5C 266.946,395.881 268.779,387.381 280.5,381C 285.643,380.162 290.643,379.328 295.5,378.5 Z"/></g>
<g><path style="opacity:1" fill="#050404" d="M 340.5,459.5 C 347.696,460.355 354.363,459.021 360.5,455.5C 351.871,473.098 344.038,491.098 337,509.5C 334.308,514.903 331.142,519.903 327.5,524.5C 322.059,528.766 316.726,533.266 311.5,538C 304.541,541.027 297.541,541.527 290.5,539.5C 288.664,537.412 286.331,536.079 283.5,535.5C 281.166,532.334 278.333,529.667 275,527.5C 274,525.5 273,523.5 272,521.5C 271.601,521.728 271.435,522.062 271.5,522.5C 266.268,515.048 261.768,507.048 258,498.5C 252.552,483.64 246.052,469.307 238.5,455.5C 244.976,459.06 251.976,460.393 259.5,459.5C 259.56,460.043 259.893,460.376 260.5,460.5C 263.127,459.942 265.46,458.942 267.5,457.5C 273.78,455.686 279.78,453.353 285.5,450.5C 289.062,450.035 292.395,448.868 295.5,447C 298.167,446.333 300.833,446.333 303.5,447C 315.683,451.505 327.85,456.005 340,460.5C 340.399,460.272 340.565,459.938 340.5,459.5 Z"/></g>
<g><path style="opacity:1" fill="#ce9286" d="M 340.5,459.5 C 340.565,459.938 340.399,460.272 340,460.5C 327.85,456.005 315.683,451.505 303.5,447C 300.833,446.333 298.167,446.333 295.5,447C 292.395,448.868 289.062,450.035 285.5,450.5C 291.052,446.077 297.385,444.577 304.5,446C 316.638,450.431 328.638,454.931 340.5,459.5 Z"/></g>
<g><path style="opacity:1" fill="#f49d8e" d="M 297.5,456.5 C 299.527,456.338 301.527,456.505 303.5,457C 314.795,462.265 326.462,466.431 338.5,469.5C 335.914,485.47 330.414,500.47 322,514.5C 317.135,519.7 311.968,524.533 306.5,529C 302.594,530.434 298.594,530.767 294.5,530C 287.306,525.473 281.473,519.639 277,512.5C 269.846,500.192 264.346,487.192 260.5,473.5C 260.57,472.228 260.903,471.062 261.5,470C 273.897,466.29 285.897,461.79 297.5,456.5 Z"/></g>
<g><path style="opacity:1" fill="#c8877c" d="M 267.5,457.5 C 265.46,458.942 263.127,459.942 260.5,460.5C 259.893,460.376 259.56,460.043 259.5,459.5C 261.961,458.469 264.627,457.802 267.5,457.5 Z"/></g>
<g><path style="opacity:1" fill="#cd9287" d="M 283.5,535.5 C 280.229,533.409 277.063,531.076 274,528.5C 272.878,526.593 272.045,524.593 271.5,522.5C 271.435,522.062 271.601,521.728 272,521.5C 273,523.5 274,525.5 275,527.5C 278.333,529.667 281.166,532.334 283.5,535.5 Z"/></g>
<g><path style="opacity:1" fill="#c78479" d="M 283.5,535.5 C 286.331,536.079 288.664,537.412 290.5,539.5C 287.674,539.002 285.34,537.669 283.5,535.5 Z"/></g>
<g><path style="opacity:1" fill="#d69e92" d="M 327.5,524.5 C 323.003,529.83 318.003,534.663 312.5,539C 307.643,540.766 302.643,541.932 297.5,542.5C 294.824,542.061 292.491,541.061 290.5,539.5C 297.541,541.527 304.541,541.027 311.5,538C 316.726,533.266 322.059,528.766 327.5,524.5 Z"/></g>
</svg>
