<?xml version="1.0" encoding="UTF-8"?>
<!DOCTYPE svg PUBLIC "-//W3C//DTD SVG 1.1//EN" "http://www.w3.org/Graphics/SVG/1.1/DTD/svg11.dtd">
<svg xmlns="http://www.w3.org/2000/svg" version="1.1" width="600px" height="600px" style="shape-rendering:geometricPrecision; text-rendering:geometricPrecision; image-rendering:optimizeQuality; fill-rule:evenodd; clip-rule:evenodd" xmlns:xlink="http://www.w3.org/1999/xlink">
<g><path style="opacity:0.953" fill="#030101" d="M 599.5,224.5 C 599.5,245.5 599.5,266.5 599.5,287.5C 597.146,287.838 594.813,288.338 592.5,289C 596.095,297.138 597.262,305.638 596,314.5C 591.603,331.357 586.603,348.024 581,364.5C 578.658,367.754 575.491,369.588 571.5,370C 572.752,377.439 569.752,382.439 562.5,385C 565.025,393.58 567.358,402.247 569.5,411C 567.952,422.219 561.619,426.886 550.5,425C 542.875,430.993 534.541,432.326 525.5,429C 516.838,423.772 507.838,419.106 498.5,415C 485.225,407.725 475.391,397.225 469,383.5C 460.501,402.832 452.835,422.499 446,442.5C 442.761,458.696 438.761,474.696 434,490.5C 424.91,514.265 407.743,524.765 382.5,522C 376.808,520.727 371.142,519.727 365.5,519C 355.335,542.772 337.335,556.439 311.5,560C 285.352,563.284 262.852,555.784 244,537.5C 239.85,531.367 236.35,524.867 233.5,518C 227.858,518.727 222.192,519.727 216.5,521C 191.336,523.178 174.503,512.345 166,488.5C 161.698,473.324 158.031,457.991 155,442.5C 147.982,421.11 139.982,400.11 131,379.5C 126.176,391.665 118.343,401.498 107.5,409C 96.9167,415.791 85.9167,421.791 74.5,427C 64.3119,431.25 55.1453,429.75 47,422.5C 36.2881,424.884 30.4548,420.55 29.5,409.5C 31.9161,400.587 33.9161,391.587 35.5,382.5C 32.2933,381.974 29.7933,380.308 28,377.5C 26.9571,374.243 26.4571,370.91 26.5,367.5C 21.5115,367.682 18.3448,365.349 17,360.5C 11.9265,344.613 7.2598,328.613 3,312.5C 1.78296,303.969 2.94962,295.802 6.5,288C 4.257,286.864 1.92367,286.03 -0.5,285.5C -0.5,265.167 -0.5,244.833 -0.5,224.5C 29.5993,181.219 64.9326,142.385 105.5,108C 114.99,100.755 124.656,93.7552 134.5,87C 151.658,78.2547 168.658,69.2547 185.5,60C 222.109,44.7454 260.275,37.5788 300,38.5C 332.219,38.048 363.719,42.548 394.5,52C 405.635,55.5668 416.302,60.2335 426.5,66C 440.005,73.92 453.672,81.5867 467.5,89C 518.858,127.189 562.858,172.356 599.5,224.5 Z"/></g>
<g><path style="opacity:1" fill="#e3a56a" d="M 437.5,84.5 C 470.73,112.955 489.23,149.289 493,193.5C 497.849,247.04 490.349,298.707 470.5,348.5C 458.717,378.343 447.217,408.343 436,438.5C 432.745,451.442 429.745,464.442 427,477.5C 424.127,490.101 417.627,500.268 407.5,508C 399.472,511.274 391.138,512.274 382.5,511C 374.548,509.737 366.881,507.57 359.5,504.5C 360.836,496.981 363.17,489.814 366.5,483C 369.422,480.585 371.756,477.751 373.5,474.5C 386.028,471.145 395.528,463.811 402,452.5C 419.405,417.609 418.405,383.276 399,349.5C 368.407,309.98 346.074,266.313 332,218.5C 330.348,211.591 329.014,204.591 328,197.5C 326.961,175.502 325.961,153.502 325,131.5C 323.337,120.872 321.67,110.205 320,99.5C 316.435,84.5682 307.268,78.7348 292.5,82C 287.555,84.9456 284.055,89.1122 282,94.5C 278.849,107.715 276.516,121.048 275,134.5C 274.726,155.544 273.726,176.544 272,197.5C 260.288,254.354 236.621,305.687 201,351.5C 180.688,386.286 180.355,421.286 200,456.5C 206.027,464.698 213.861,470.365 223.5,473.5C 226.49,476.991 229.657,480.324 233,483.5C 236.282,490.178 238.449,497.178 239.5,504.5C 232.886,506.425 226.22,508.259 219.5,510C 196.343,514.176 181.509,505.01 175,482.5C 170.72,459.713 164.72,437.38 157,415.5C 147.138,392.408 137.971,369.074 129.5,345.5C 109.764,294.611 102.931,241.945 109,187.5C 113.622,144.236 132.788,109.236 166.5,82.5C 206.581,57.9425 250.248,46.9425 297.5,49.5C 335.559,47.8542 372.226,54.0208 407.5,68C 417.715,73.2707 427.715,78.7707 437.5,84.5 Z"/></g>
<g><path style="opacity:1" fill="#0b0806" d="M 373.5,474.5 C 365.924,476.684 358.258,477.017 350.5,475.5C 335.114,472.874 320.114,468.707 305.5,463C 302.813,461.125 300.979,458.625 300,455.5C 299.021,458.625 297.187,461.125 294.5,463C 279.466,468.372 264.132,472.538 248.5,475.5C 240.001,476.74 231.668,476.074 223.5,473.5C 213.861,470.365 206.027,464.698 200,456.5C 180.355,421.286 180.688,386.286 201,351.5C 236.621,305.687 260.288,254.354 272,197.5C 273.726,176.544 274.726,155.544 275,134.5C 276.516,121.048 278.849,107.715 282,94.5C 284.055,89.1122 287.555,84.9456 292.5,82C 307.268,78.7348 316.435,84.5682 320,99.5C 321.67,110.205 323.337,120.872 325,131.5C 325.961,153.502 326.961,175.502 328,197.5C 329.014,204.591 330.348,211.591 332,218.5C 346.074,266.313 368.407,309.98 399,349.5C 418.405,383.276 419.405,417.609 402,452.5C 395.528,463.811 386.028,471.145 373.5,474.5 Z"/></g>
<g><path style="opacity:1" fill="#d28645" d="M 166.5,82.5 C 132.788,109.236 113.622,144.236 109,187.5C 102.931,241.945 109.764,294.611 129.5,345.5C 127.575,358.483 123.742,371.15 118,383.5C 107.555,397.921 93.7221,407.755 76.5,413C 69.7462,420.299 62.4128,421.132 54.5,415.5C 52.9293,413.118 52.096,410.451 52,407.5C 49.5,409.333 47,411.167 44.5,413C 40.0233,413.165 38.5233,410.998 40,406.5C 45.2928,393.304 47.6262,379.637 47,365.5C 46.6667,365.167 46.3333,364.833 46,364.5C 43.2888,367.042 40.7888,369.709 38.5,372.5C 38.2784,365.212 38.1117,357.878 38,350.5C 37.586,350.043 37.086,349.709 36.5,349.5C 33.6443,351.522 31.311,354.022 29.5,357C 28.552,357.483 27.552,357.649 26.5,357.5C 22.8478,343.374 18.6812,329.374 14,315.5C 11.3782,303.308 13.5449,291.975 20.5,281.5C 18.963,278.398 16.963,275.732 14.5,273.5C 11.3248,275.091 7.99145,276.091 4.5,276.5C 4.33537,273.482 4.50204,270.482 5,267.5C 8.26241,262.419 8.92908,257.086 7,251.5C 6.33333,245.5 6.33333,239.5 7,233.5C 9.16089,228.508 11.8276,223.841 15,219.5C 42.6402,183.521 73.4735,150.354 107.5,120C 117.809,111.513 128.476,103.513 139.5,96C 147.964,90.4345 156.964,85.9345 166.5,82.5 Z"/></g>
<g><path style="opacity:1" fill="#d28645" d="M 437.5,84.5 C 451.401,90.9149 464.401,98.7482 476.5,108C 520.633,143.794 558.8,184.961 591,231.5C 594.393,240.563 594.226,249.563 590.5,258.5C 593.77,264.463 595.27,270.796 595,277.5C 594.439,278.022 593.772,278.355 593,278.5C 584.354,273.086 580.021,275.419 580,285.5C 585.007,293.858 587.007,302.858 586,312.5C 581.626,328.335 576.793,344.002 571.5,359.5C 568.644,357.478 566.311,354.978 564.5,352C 563.207,351.51 561.873,351.343 560.5,351.5C 560.799,359.226 560.799,366.892 560.5,374.5C 558.194,371.527 555.527,368.86 552.5,366.5C 551.031,368.192 550.365,370.192 550.5,372.5C 552.053,384.046 554.553,395.379 558,406.5C 558.667,408.833 558.667,411.167 558,413.5C 556.612,414.554 555.112,414.72 553.5,414C 551.333,412.5 549.167,411 547,409.5C 545.154,418.672 539.654,422.172 530.5,420C 520.536,414.673 510.536,409.339 500.5,404C 487.065,395.223 478.231,383.057 474,367.5C 473.029,360.99 471.862,354.657 470.5,348.5C 490.349,298.707 497.849,247.04 493,193.5C 489.23,149.289 470.73,112.955 437.5,84.5 Z"/></g>
<g><path style="opacity:1" fill="#684e38" d="M 302.5,90.5 C 305.167,91.1667 306.833,92.8333 307.5,95.5C 305.5,94.1667 303.833,92.5 302.5,90.5 Z"/></g>
<g><path style="opacity:1" fill="#fdfdfd" d="M 302.5,90.5 C 303.833,92.5 305.5,94.1667 307.5,95.5C 309.978,102.744 311.811,110.077 313,117.5C 315.282,140.78 316.615,164.113 317,187.5C 320.309,219.247 329.142,249.247 343.5,277.5C 343.707,280.241 344.707,282.574 346.5,284.5C 346.328,285.492 346.662,286.158 347.5,286.5C 348.41,289.992 350.076,292.992 352.5,295.5C 363.502,316.999 376.335,337.332 391,356.5C 409.243,388.751 408.91,420.751 390,452.5C 382.531,462.05 372.698,466.717 360.5,466.5C 342.748,465.145 325.748,460.812 309.5,453.5C 309.709,452.914 310.043,452.414 310.5,452C 302.564,445.668 301.564,438.501 307.5,430.5C 321.732,426.971 333.899,419.971 344,409.5C 353.1,398.163 354.767,385.829 349,372.5C 341.789,362.522 331.956,357.022 319.5,356C 304.768,353.772 290.102,354.105 275.5,357C 252.897,362.254 244.397,376.087 250,398.5C 258.324,414.766 271.49,424.932 289.5,429C 295.603,432.04 297.769,436.874 296,443.5C 294.6,446.902 292.433,449.736 289.5,452C 289.957,452.414 290.291,452.914 290.5,453.5C 278.405,458.031 266.072,461.865 253.5,465C 230.109,470.563 213.275,462.73 203,441.5C 191.283,412.823 193.283,385.156 209,358.5C 232.695,326.792 252.029,292.459 267,255.5C 271.77,242.417 275.603,229.084 278.5,215.5C 280.011,212.456 280.678,209.122 280.5,205.5C 281.733,199.913 282.566,194.246 283,188.5C 283.67,163.425 285.337,138.425 288,113.5C 288.978,105.391 291.811,98.0577 296.5,91.5C 298.396,90.5344 300.396,90.2011 302.5,90.5 Z"/></g>
<g><path style="opacity:1" fill="#382f2b" d="M 212.5,195.5 C 232.86,196.346 246.693,206.346 254,225.5C 254.667,227.833 254.667,230.167 254,232.5C 244.357,236.399 234.523,239.899 224.5,243C 212.941,244.777 202.274,242.444 192.5,236C 187.667,232.5 182.833,229 178,225.5C 177.333,223.833 177.333,222.167 178,220.5C 186.325,207.659 197.825,199.326 212.5,195.5 Z"/></g>
<g><path style="opacity:1" fill="#372f2b" d="M 377.5,196.5 C 396.645,195.656 411.811,202.989 423,218.5C 424.422,221.03 424.755,223.697 424,226.5C 414.776,233.719 404.61,239.219 393.5,243C 386.111,243.801 378.777,243.467 371.5,242C 363.935,238.717 356.268,235.717 348.5,233C 347.292,228.721 347.792,224.555 350,220.5C 356.297,209.025 365.464,201.025 377.5,196.5 Z"/></g>
<g><path style="opacity:1" fill="#f6f6f6" d="M 218.5,206.5 C 224.979,204.784 228.979,207.117 230.5,213.5C 229.189,219.643 225.523,221.809 219.5,220C 214.519,215.92 214.186,211.42 218.5,206.5 Z"/></g>
<g><path style="opacity:1" fill="#f2f2f2" d="M 389.5,206.5 C 397.161,205.663 400.661,208.996 400,216.5C 395.194,223.053 390.527,223.053 386,216.5C 385.333,214.5 385.333,212.5 386,210.5C 387.376,209.295 388.542,207.962 389.5,206.5 Z"/></g>
<g><path style="opacity:1" fill="#866c57" d="M 280.5,205.5 C 280.678,209.122 280.011,212.456 278.5,215.5C 278.549,211.922 279.215,208.589 280.5,205.5 Z"/></g>
<g><path style="opacity:1" fill="#684f39" d="M 343.5,277.5 C 345.293,279.426 346.293,281.759 346.5,284.5C 344.707,282.574 343.707,280.241 343.5,277.5 Z"/></g>
<g><path style="opacity:1" fill="#6b523c" d="M 347.5,286.5 C 349.924,289.008 351.59,292.008 352.5,295.5C 350.076,292.992 348.41,289.992 347.5,286.5 Z"/></g>
<g><path style="opacity:1" fill="#362e2a" d="M 288.5,364.5 C 302.46,363.533 316.127,365.033 329.5,369C 343.562,377.084 346.062,387.917 337,401.5C 332.701,406.805 327.534,410.972 321.5,414C 314.118,416.796 306.951,419.962 300,423.5C 292.83,420.502 285.664,417.335 278.5,414C 269.611,409.444 263.111,402.61 259,393.5C 256.259,381.148 260.759,372.648 272.5,368C 277.939,366.711 283.273,365.544 288.5,364.5 Z"/></g>
<g><path style="opacity:1" fill="#f09c9f" d="M 350.5,475.5 C 351.14,493.944 346.64,510.944 337,526.5C 324.408,540.031 308.908,545.198 290.5,542C 270.234,538.401 257.734,526.568 253,506.5C 250.334,496.336 248.834,486.003 248.5,475.5C 264.132,472.538 279.466,468.372 294.5,463C 297.187,461.125 299.021,458.625 300,455.5C 300.979,458.625 302.813,461.125 305.5,463C 320.114,468.707 335.114,472.874 350.5,475.5 Z"/></g>
<g><path style="opacity:1" fill="#241915" d="M 223.5,473.5 C 231.668,476.074 240.001,476.74 248.5,475.5C 248.834,486.003 250.334,496.336 253,506.5C 257.734,526.568 270.234,538.401 290.5,542C 308.908,545.198 324.408,540.031 337,526.5C 346.64,510.944 351.14,493.944 350.5,475.5C 358.258,477.017 365.924,476.684 373.5,474.5C 371.756,477.751 369.422,480.585 366.5,483C 363.17,489.814 360.836,496.981 359.5,504.5C 356.682,511.474 353.849,518.474 351,525.5C 338.064,541.8 321.064,550.134 300,550.5C 279.712,550.31 263.045,542.644 250,527.5C 246.179,519.823 242.679,512.157 239.5,504.5C 238.449,497.178 236.282,490.178 233,483.5C 229.657,480.324 226.49,476.991 223.5,473.5 Z"/></g>
</svg>
