<?xml version="1.0" encoding="UTF-8"?>
<!DOCTYPE svg PUBLIC "-//W3C//DTD SVG 1.1//EN" "http://www.w3.org/Graphics/SVG/1.1/DTD/svg11.dtd">
<svg xmlns="http://www.w3.org/2000/svg" version="1.1" width="600px" height="600px" style="shape-rendering:geometricPrecision; text-rendering:geometricPrecision; image-rendering:optimizeQuality; fill-rule:evenodd; clip-rule:evenodd" xmlns:xlink="http://www.w3.org/1999/xlink">
<g><path style="opacity:0.971" fill="#020101" d="M 281.5,-0.5 C 287.167,-0.5 292.833,-0.5 298.5,-0.5C 303.181,7.52791 307.347,15.8612 311,24.5C 312.969,15.725 317.135,8.22497 323.5,2C 332.819,-1.18048 339.486,1.65285 343.5,10.5C 350.68,6.35633 358.013,5.85633 365.5,9C 369.804,12.0314 371.804,16.1981 371.5,21.5C 382.058,20.401 387.725,25.0677 388.5,35.5C 396.179,35.4223 401.013,39.0889 403,46.5C 406.984,48.718 411.15,50.5513 415.5,52C 423.935,53.1537 432.269,54.8204 440.5,57C 446.069,59.0352 450.903,62.2019 455,66.5C 458.386,72.3468 457.886,77.8468 453.5,83C 465.184,89.8429 477.184,96.1762 489.5,102C 495.346,105.338 500.513,109.504 505,114.5C 509.752,124.851 506.919,132.184 496.5,136.5C 499.667,142.167 502.833,147.833 506,153.5C 515.475,163.796 524.475,174.463 533,185.5C 538.013,195.236 541.013,205.569 542,216.5C 551.271,234.042 560.271,251.709 569,269.5C 572.213,278.899 573.88,288.566 574,298.5C 579.391,312.281 585.057,325.948 591,339.5C 592.644,344.077 593.978,348.744 595,353.5C 595.117,363.837 595.117,374.17 595,384.5C 595.692,391.475 597.192,398.142 599.5,404.5C 599.5,435.167 599.5,465.833 599.5,496.5C 598.852,506.202 596.352,515.535 592,524.5C 587.632,528.533 583.632,532.866 580,537.5C 574.706,550.756 568.372,563.422 561,575.5C 557.94,578.614 554.44,581.114 550.5,583C 534.79,586.868 519.79,592.368 505.5,599.5C 489.5,599.5 473.5,599.5 457.5,599.5C 440.814,593.322 424.148,586.822 407.5,580C 398.204,574.205 391.204,566.372 386.5,556.5C 381.156,560.174 375.49,563.34 369.5,566C 352.716,572.595 335.716,578.595 318.5,584C 312.64,586.093 307.64,589.426 303.5,594C 295.435,598.317 288.768,596.65 283.5,589C 268.563,582.353 253.23,576.687 237.5,572C 228.625,568.652 219.959,564.819 211.5,560.5C 202.824,573.183 191.158,582.016 176.5,587C 164.404,590.307 152.738,594.474 141.5,599.5C 125.5,599.5 109.5,599.5 93.5,599.5C 79.2102,592.368 64.2102,586.868 48.5,583C 42.0568,580.223 37.2235,575.723 34,569.5C 28.6667,558.167 23.3333,546.833 18,535.5C 12.9781,531.141 8.64478,526.141 5,520.5C 1.79037,511.288 -0.0429679,501.955 -0.5,492.5C -0.5,463.5 -0.5,434.5 -0.5,405.5C 1.4403,399.399 2.9403,393.066 4,386.5C 4.07814,375.831 4.07814,365.164 4,354.5C 5.26171,348.715 6.92837,343.048 9,337.5C 14.6097,324.614 19.943,311.614 25,298.5C 25.4319,286.773 27.7652,275.44 32,264.5C 39.4122,250.008 47.0788,235.674 55,221.5C 58.014,213.766 60.014,205.766 61,197.5C 61.9419,194.007 63.2752,190.674 65,187.5C 70.6184,179.547 76.6184,171.88 83,164.5C 87.4511,155.096 92.2845,145.93 97.5,137C 86.3289,131.146 84.1622,122.98 91,112.5C 95.6029,107.896 100.77,104.062 106.5,101C 118.178,95.4963 129.511,89.4963 140.5,83C 134.727,74.0856 136.394,66.7522 145.5,61C 160.779,56.1214 176.113,51.4548 191.5,47C 191.833,46.6667 192.167,46.3333 192.5,46C 187.415,36.9265 189.415,29.9265 198.5,25C 203.104,23.9393 207.771,23.2727 212.5,23C 211.22,11.952 216.22,7.28536 227.5,9C 235.16,11.9132 242.326,15.7465 249,20.5C 251.047,17.0362 252.713,13.3695 254,9.5C 259.499,3.97159 265.332,3.47159 271.5,8C 273.333,10.5 275.167,13 277,15.5C 276.96,9.64847 278.46,4.31513 281.5,-0.5 Z"/></g>
<g><path style="opacity:1" fill="#373027" d="M 497.5,159.5 C 499.557,165.503 501.724,171.503 504,177.5C 504.579,181.203 504.412,184.869 503.5,188.5C 499.622,186.489 495.456,185.156 491,184.5C 488.333,184.167 486.333,185.167 485,187.5C 484.333,191.5 484.333,195.5 485,199.5C 488.838,214.344 492.671,229.177 496.5,244C 497.174,250.268 494.674,252.434 489,250.5C 485.792,252.945 482.459,252.945 479,250.5C 476.155,251.678 474.655,253.845 474.5,257C 478.309,267.611 482.643,277.944 487.5,288C 486.879,291.747 485.546,295.247 483.5,298.5C 485.476,301.348 485.809,304.348 484.5,307.5C 483.914,307.291 483.414,306.957 483,306.5C 482.833,308.333 482.667,310.167 482.5,312C 484.17,321.952 483.67,331.786 481,341.5C 480.623,342.942 479.79,343.942 478.5,344.5C 466.391,324.375 449.724,309.708 428.5,300.5C 421.871,300.962 417.371,304.296 415,310.5C 411.527,302.221 407.527,294.221 403,286.5C 398.033,279.847 391.533,277.347 383.5,279C 380.853,274.864 377.853,271.031 374.5,267.5C 395.848,273.655 410.848,266.655 419.5,246.5C 425.628,251.457 431.628,256.624 437.5,262C 442.92,264.856 447.087,263.689 450,258.5C 450.767,254.406 450.434,250.406 449,246.5C 429.743,209.627 400.243,185.127 360.5,173C 354.5,172.333 348.5,172.333 342.5,173C 328.61,178.662 324.443,188.495 330,202.5C 331.731,204.617 333.898,206.117 336.5,207C 344.723,209.639 353.057,211.806 361.5,213.5C 361.804,214.15 362.137,214.817 362.5,215.5C 352.282,228.897 351.949,242.564 361.5,256.5C 320.712,233.794 279.379,232.794 237.5,253.5C 244.662,240.097 243.995,227.097 235.5,214.5C 243.358,211.38 251.358,208.547 259.5,206C 263.77,204.73 266.27,201.896 267,197.5C 268.967,185.264 264.134,177.097 252.5,173C 241.604,171.248 231.271,172.914 221.5,178C 189.224,194.612 165.39,219.445 150,252.5C 147.777,257.937 148.277,263.103 151.5,268C 154.833,270 158.167,270 161.5,268C 167.702,261.631 174.035,255.464 180.5,249.5C 189.518,264.173 202.518,269.84 219.5,266.5C 216.524,270.482 213.524,274.482 210.5,278.5C 202.742,277.143 196.242,279.476 191,285.5C 186.049,293.068 181.882,301.068 178.5,309.5C 173.17,300.832 165.837,298.665 156.5,303C 139.703,313.297 126.036,326.797 115.5,343.5C 114.883,343.389 114.383,343.056 114,342.5C 112.513,337.22 111.346,331.887 110.5,326.5C 111.947,319.917 112.614,313.25 112.5,306.5C 111.5,306.5 110.5,306.5 109.5,306.5C 109.397,303.781 109.731,301.115 110.5,298.5C 108.88,295.143 107.546,291.643 106.5,288C 110.25,278.998 114.417,270.164 119,261.5C 120.813,252.302 117.48,249.302 109,252.5C 107.289,252.561 105.956,251.894 105,250.5C 98.1501,252.984 95.8167,250.651 98,243.5C 102.675,225.927 106.841,208.26 110.5,190.5C 110.42,186.417 108.42,183.75 104.5,182.5C 100.787,184.04 97.4532,186.207 94.5,189C 90.594,189.095 88.594,187.095 88.5,183C 88.9588,178.997 89.9588,175.164 91.5,171.5C 98.4513,157.096 105.785,142.93 113.5,129C 113.561,127.289 112.894,125.956 111.5,125C 107.467,125.126 103.467,125.46 99.5,126C 97.6751,124.534 97.1751,122.701 98,120.5C 101.042,117.067 104.542,114.234 108.5,112C 122.5,104.667 136.5,97.3333 150.5,90C 154.644,87.2796 155.477,83.7796 153,79.5C 150.782,77.8178 148.949,75.8178 147.5,73.5C 148.748,71.5414 150.415,70.0414 152.5,69C 162.995,65.7095 173.662,63.0428 184.5,61C 192.283,57.9418 199.95,54.6084 207.5,51C 205.545,50.0467 203.878,48.7134 202.5,47C 203.624,46.7508 204.624,46.2508 205.5,45.5C 203.115,43.1162 201.115,40.4495 199.5,37.5C 199.977,36.5224 200.643,35.6891 201.5,35C 211.873,33.175 220.873,35.8416 228.5,43C 230.833,43.6667 233.167,43.6667 235.5,43C 228.131,36.4289 223.798,28.2623 222.5,18.5C 233.262,22.1 242.929,27.6 251.5,35C 254.025,35.8959 256.192,35.3959 258,33.5C 258.43,30.8078 258.263,28.1411 257.5,25.5C 259.167,25.5 260.833,25.5 262.5,25.5C 262.18,22.1016 262.513,18.7683 263.5,15.5C 268.485,22.1238 272.985,29.1238 277,36.5C 281.868,39.9171 284.701,38.7505 285.5,33C 284.667,29.5157 284.501,26.0157 285,22.5C 285.414,22.0426 285.914,21.7093 286.5,21.5C 287.327,17.5408 287.827,13.5408 288,9.5C 288.419,8.32791 289.085,7.32791 290,6.5C 294.985,15.8018 299.985,25.1351 305,34.5C 310.349,38.9426 315.015,38.2759 319,32.5C 321.16,25.513 323.993,18.8463 327.5,12.5C 329.045,11.5481 330.712,11.2148 332.5,11.5C 331.717,17.8961 330.884,24.2294 330,30.5C 337.824,24.1716 346.657,19.8382 356.5,17.5C 357.772,17.5698 358.938,17.9032 360,18.5C 360.552,21.4192 359.885,24.0859 358,26.5C 353.867,31.6344 349.367,36.4677 344.5,41C 346.833,41.6667 349.167,41.6667 351.5,41C 357.234,37.8012 363.234,35.1345 369.5,33C 372.167,32.3333 374.833,32.3333 377.5,33C 377.767,38.1477 375.767,42.481 371.5,46C 378.191,46.1691 384.858,46.6691 391.5,47.5C 390.395,48.8924 389.061,50.059 387.5,51C 401.978,59.6032 417.644,64.6032 434.5,66C 437.583,67.1392 440.583,68.4725 443.5,70C 444.899,71.0616 445.899,72.395 446.5,74C 444.72,76.7838 442.553,79.2838 440,81.5C 439.333,83.1667 439.333,84.8333 440,86.5C 442.743,88.7879 445.577,90.9545 448.5,93C 464.722,100.357 480.222,108.857 495,118.5C 496.202,120.677 496.702,123.011 496.5,125.5C 491.511,124.778 486.511,124.612 481.5,125C 480.919,125.893 480.585,126.893 480.5,128C 485.786,138.741 491.453,149.241 497.5,159.5 Z"/></g>
<g><path style="opacity:1" fill="#1b160d" d="M 497.5,159.5 C 507.125,170.06 516.291,181.06 525,192.5C 528.742,198.63 530.408,205.296 530,212.5C 531.47,217.243 533.136,221.909 535,226.5C 543.525,241.55 551.525,256.883 559,272.5C 561.679,281.982 563.346,291.649 564,301.5C 571.567,319.297 578.567,337.297 585,355.5C 584.667,365.167 584.333,374.833 584,384.5C 587.667,400.5 591.333,416.5 595,432.5C 595.667,436.167 595.667,439.833 595,443.5C 593.042,449.082 591.376,454.748 590,460.5C 589,476.833 588,493.167 587,509.5C 585.803,512.089 584.803,514.756 584,517.5C 579.632,521.533 575.632,525.866 572,530.5C 566.807,541.081 561.807,551.748 557,562.5C 554.955,565.423 552.788,568.257 550.5,571C 530.323,577.751 510.323,585.084 490.5,593C 484.224,594.424 477.891,594.758 471.5,594C 457.851,586.894 443.518,581.561 428.5,578C 416.269,574.48 406.435,567.646 399,557.5C 397.045,554.281 395.712,550.947 395,547.5C 395.689,546.643 396.522,545.977 397.5,545.5C 402.172,548.832 407.172,549.332 412.5,547C 431.958,533.876 448.458,517.709 462,498.5C 465.084,491.496 466.918,484.163 467.5,476.5C 478.296,478.58 486.129,474.58 491,464.5C 491.845,458.961 491.345,453.628 489.5,448.5C 492.082,432.181 494.582,415.848 497,399.5C 497.318,378.955 491.152,360.622 478.5,344.5C 479.79,343.942 480.623,342.942 481,341.5C 483.67,331.786 484.17,321.952 482.5,312C 482.667,310.167 482.833,308.333 483,306.5C 483.414,306.957 483.914,307.291 484.5,307.5C 485.809,304.348 485.476,301.348 483.5,298.5C 485.546,295.247 486.879,291.747 487.5,288C 482.643,277.944 478.309,267.611 474.5,257C 474.655,253.845 476.155,251.678 479,250.5C 482.459,252.945 485.792,252.945 489,250.5C 494.674,252.434 497.174,250.268 496.5,244C 492.671,229.177 488.838,214.344 485,199.5C 484.333,195.5 484.333,191.5 485,187.5C 486.333,185.167 488.333,184.167 491,184.5C 495.456,185.156 499.622,186.489 503.5,188.5C 504.412,184.869 504.579,181.203 504,177.5C 501.724,171.503 499.557,165.503 497.5,159.5 Z"/></g>
<g><path style="opacity:1" fill="#9e6e3e" d="M 235.5,214.5 C 231.203,215.655 227.203,217.321 223.5,219.5C 211.697,225.316 200.697,232.316 190.5,240.5C 187.141,243.529 183.808,246.529 180.5,249.5C 174.035,255.464 167.702,261.631 161.5,268C 158.167,270 154.833,270 151.5,268C 148.277,263.103 147.777,257.937 150,252.5C 165.39,219.445 189.224,194.612 221.5,178C 231.271,172.914 241.604,171.248 252.5,173C 264.134,177.097 268.967,185.264 267,197.5C 266.27,201.896 263.77,204.73 259.5,206C 251.358,208.547 243.358,211.38 235.5,214.5 Z"/></g>
<g><path style="opacity:1" fill="#9e6e3e" d="M 419.5,246.5 C 416.81,243.815 413.81,241.482 410.5,239.5C 399.28,230.718 386.947,223.718 373.5,218.5C 369.739,216.462 365.739,214.796 361.5,213.5C 353.057,211.806 344.723,209.639 336.5,207C 333.898,206.117 331.731,204.617 330,202.5C 324.443,188.495 328.61,178.662 342.5,173C 348.5,172.333 354.5,172.333 360.5,173C 400.243,185.127 429.743,209.627 449,246.5C 450.434,250.406 450.767,254.406 450,258.5C 447.087,263.689 442.92,264.856 437.5,262C 431.628,256.624 425.628,251.457 419.5,246.5 Z"/></g>
<g><path style="opacity:1" fill="#1b160e" d="M 91.5,171.5 C 89.9588,175.164 88.9588,178.997 88.5,183C 88.594,187.095 90.594,189.095 94.5,189C 97.4532,186.207 100.787,184.04 104.5,182.5C 108.42,183.75 110.42,186.417 110.5,190.5C 106.841,208.26 102.675,225.927 98,243.5C 95.8167,250.651 98.1501,252.984 105,250.5C 105.956,251.894 107.289,252.561 109,252.5C 117.48,249.302 120.813,252.302 119,261.5C 114.417,270.164 110.25,278.998 106.5,288C 107.546,291.643 108.88,295.143 110.5,298.5C 109.731,301.115 109.397,303.781 109.5,306.5C 110.5,306.5 111.5,306.5 112.5,306.5C 112.614,313.25 111.947,319.917 110.5,326.5C 111.346,331.887 112.513,337.22 114,342.5C 114.383,343.056 114.883,343.389 115.5,343.5C 101.866,360.435 95.3656,379.769 96,401.5C 99.3422,417.548 102.176,433.715 104.5,450C 99.5698,460.936 102.237,469.602 112.5,476C 117.11,477.827 121.777,477.993 126.5,476.5C 126.479,483.376 127.646,490.043 130,496.5C 141.749,514.25 156.249,529.416 173.5,542C 177.056,544.889 181.056,546.889 185.5,548C 188.827,548.535 191.994,548.035 195,546.5C 196.938,549.39 199.105,552.056 201.5,554.5C 196.586,563.247 189.586,569.747 180.5,574C 166.919,578.959 153.252,583.626 139.5,588C 130.037,594.61 119.703,596.277 108.5,593C 88.0877,585.31 67.7544,577.644 47.5,570C 40.1678,558.503 34.0012,546.337 29,533.5C 25.3845,527.884 21.0511,522.884 16,518.5C 14.7246,516.283 13.7246,513.949 13,511.5C 11.1561,496.564 10.1561,481.564 10,466.5C 9.73838,459.786 8.07172,453.453 5,447.5C 4.33333,441.833 4.33333,436.167 5,430.5C 8.64441,415.253 11.9777,399.92 15,384.5C 15.3722,377.165 15.2055,369.831 14.5,362.5C 14.5214,357.777 15.0214,353.111 16,348.5C 22.3333,333.167 28.6667,317.833 35,302.5C 35.332,286.5 39.332,271.5 47,257.5C 55.6409,243.886 62.9743,229.552 69,214.5C 68.953,205.469 71.2863,197.136 76,189.5C 80.6576,183.013 85.8243,177.013 91.5,171.5 Z"/></g>
<g><path style="opacity:1" fill="#594339" d="M 361.5,213.5 C 365.739,214.796 369.739,216.462 373.5,218.5C 363.813,227.258 361.98,237.591 368,249.5C 375.49,258.996 384.99,261.829 396.5,258C 404.434,254.297 409.1,248.131 410.5,239.5C 413.81,241.482 416.81,243.815 419.5,246.5C 410.848,266.655 395.848,273.655 374.5,267.5C 370.312,263.586 365.979,259.919 361.5,256.5C 351.949,242.564 352.282,228.897 362.5,215.5C 362.137,214.817 361.804,214.15 361.5,213.5 Z"/></g>
<g><path style="opacity:1" fill="#594339" d="M 235.5,214.5 C 243.995,227.097 244.662,240.097 237.5,253.5C 231.147,257.343 225.147,261.677 219.5,266.5C 202.518,269.84 189.518,264.173 180.5,249.5C 183.808,246.529 187.141,243.529 190.5,240.5C 192.715,250.879 199.215,256.212 210,256.5C 220.793,256.029 227.793,250.696 231,240.5C 232.408,233.058 230.741,226.391 226,220.5C 225.329,219.748 224.496,219.414 223.5,219.5C 227.203,217.321 231.203,215.655 235.5,214.5 Z"/></g>
<g><path style="opacity:1" fill="#010000" d="M 373.5,218.5 C 386.947,223.718 399.28,230.718 410.5,239.5C 409.1,248.131 404.434,254.297 396.5,258C 384.99,261.829 375.49,258.996 368,249.5C 361.98,237.591 363.813,227.258 373.5,218.5 Z"/></g>
<g><path style="opacity:1" fill="#010000" d="M 223.5,219.5 C 224.496,219.414 225.329,219.748 226,220.5C 230.741,226.391 232.408,233.058 231,240.5C 227.793,250.696 220.793,256.029 210,256.5C 199.215,256.212 192.715,250.879 190.5,240.5C 200.697,232.316 211.697,225.316 223.5,219.5 Z"/></g>
<g><path style="opacity:1" fill="#9f6e3e" d="M 443.5,320.5 C 448.833,326.5 454.5,332.167 460.5,337.5C 473.264,352.692 482.097,370.025 487,389.5C 487.667,392.5 487.667,395.5 487,398.5C 483.601,417.457 480.435,436.457 477.5,455.5C 477.667,456.833 477.833,458.167 478,459.5C 479.049,458.483 480.216,458.316 481.5,459C 477.126,467.813 471.626,468.646 465,461.5C 462.387,456.4 459.22,451.733 455.5,447.5C 454.914,447.709 454.414,448.043 454,448.5C 454.33,457.984 454.83,467.484 455.5,477C 455.569,481.585 455.069,486.085 454,490.5C 441.167,508.667 425.667,524.167 407.5,537C 406.5,537.667 405.5,537.667 404.5,537C 402.419,531.283 400.586,525.45 399,519.5C 397.494,516.526 395.828,516.193 394,518.5C 392.466,526.433 390.133,534.1 387,541.5C 385.167,544.667 382.667,547.167 379.5,549C 373.112,552.861 366.446,556.194 359.5,559C 343.167,564.667 326.833,570.333 310.5,576C 304.871,578.398 300.037,581.898 296,586.5C 292.282,582.727 288.116,579.56 283.5,577C 269.919,572.139 256.252,567.473 242.5,563C 228.573,558.623 216.073,551.789 205,542.5C 202.038,534.699 199.705,526.699 198,518.5C 197.047,516.408 195.714,516.075 194,517.5C 190.665,523.819 189.665,530.152 191,536.5C 189.612,537.554 188.112,537.72 186.5,537C 167.333,524.5 151.5,508.667 139,489.5C 138.144,485.376 137.644,481.21 137.5,477C 138.528,467.508 139.028,458.008 139,448.5C 138,447.167 137,447.167 136,448.5C 132.997,455.169 128.831,461.002 123.5,466C 118.237,467.094 114.57,465.094 112.5,460C 113.01,458.174 113.844,458.007 115,459.5C 114.289,440.265 111.622,421.265 107,402.5C 105.74,393.231 106.74,384.231 110,375.5C 118.49,356.018 130.323,338.852 145.5,324C 148.328,321.752 151.328,319.752 154.5,318C 156.701,317.175 158.534,317.675 160,319.5C 160.667,317.5 161.333,315.5 162,313.5C 164,310.833 166,310.833 168,313.5C 170.667,320.167 173.333,326.833 176,333.5C 179.667,331.167 182.667,328.167 185,324.5C 188.6,311.8 194.433,300.3 202.5,290C 203.449,289.383 204.282,289.549 205,290.5C 204.912,294.89 205.079,299.223 205.5,303.5C 209.648,305.22 212.481,303.887 214,299.5C 219.431,281.067 230.931,267.9 248.5,260C 282.953,245.205 316.953,246.205 350.5,263C 358.215,267.709 365.049,273.542 371,280.5C 374.713,287.631 378.047,294.964 381,302.5C 383.034,305.859 385.368,306.192 388,303.5C 387.907,299.174 387.907,294.841 388,290.5C 389.049,289.483 390.216,289.316 391.5,290C 399.166,302.164 405.666,314.997 411,328.5C 412.815,330.405 414.815,332.072 417,333.5C 419.876,326.374 423.043,319.374 426.5,312.5C 430.572,311.898 432.572,313.898 432.5,318.5C 434.06,318.481 435.56,318.148 437,317.5C 439.279,318.391 441.446,319.391 443.5,320.5 Z"/></g>
<g><path style="opacity:1" fill="#32271d" d="M 443.5,320.5 C 450.167,325.167 455.833,330.833 460.5,337.5C 454.5,332.167 448.833,326.5 443.5,320.5 Z"/></g>
<g><path style="opacity:1" fill="#000000" d="M 279.5,337.5 C 294.257,336.98 308.923,337.814 323.5,340C 335.256,341.627 345.09,346.794 353,355.5C 361.884,371.154 361.217,386.487 351,401.5C 315.285,438.423 279.285,438.757 243,402.5C 232.775,388.188 231.441,373.188 239,357.5C 242.913,352.289 247.746,348.123 253.5,345C 262.052,341.666 270.719,339.166 279.5,337.5 Z"/></g>
<g><path style="opacity:1" fill="#af7461" d="M 286.5,568.5 C 287.167,568.5 287.833,568.5 288.5,568.5C 314.195,571.583 333.029,561.916 345,539.5C 347.346,532.493 349.68,525.493 352,518.5C 354.164,504.588 354.997,490.588 354.5,476.5C 348.435,476.739 342.435,476.239 336.5,475C 325.593,471.253 314.926,466.92 304.5,462C 300.259,460.543 295.926,460.209 291.5,461C 279.577,466.918 267.244,471.751 254.5,475.5C 266.488,470.658 278.488,465.491 290.5,460C 295.589,459.174 300.589,459.508 305.5,461C 315.926,465.92 326.593,470.253 337.5,474C 343.435,475.239 349.435,475.739 355.5,475.5C 356.02,490.254 355.186,504.92 353,519.5C 345.835,556.528 323.668,572.862 286.5,568.5 Z"/></g>
<g><path style="opacity:1" fill="#040202" d="M 288.5,568.5 C 282.587,566.47 276.587,564.303 270.5,562C 266.008,559.002 261.675,555.835 257.5,552.5C 252.505,545.185 248.005,537.518 244,529.5C 239.528,512.117 237.695,494.45 238.5,476.5C 243.363,476.819 248.03,476.486 252.5,475.5C 253.167,475.5 253.833,475.5 254.5,475.5C 267.244,471.751 279.577,466.918 291.5,461C 295.926,460.209 300.259,460.543 304.5,462C 314.926,466.92 325.593,471.253 336.5,475C 342.435,476.239 348.435,476.739 354.5,476.5C 354.997,490.588 354.164,504.588 352,518.5C 349.68,525.493 347.346,532.493 345,539.5C 333.029,561.916 314.195,571.583 288.5,568.5 Z"/></g>
<g><path style="opacity:1" fill="#f09c9f" d="M 293.5,470.5 C 303.026,471.954 312.026,475.121 320.5,480C 328.272,483.092 336.272,485.259 344.5,486.5C 345.598,505.929 341.764,524.263 333,541.5C 322.243,555.412 308.077,560.912 290.5,558C 269.475,553.976 256.642,541.476 252,520.5C 249.711,509.282 248.545,497.948 248.5,486.5C 264.429,483.525 279.429,478.192 293.5,470.5 Z"/></g>
<g><path style="opacity:1" fill="#ae7361" d="M 252.5,475.5 C 248.03,476.486 243.363,476.819 238.5,476.5C 237.695,494.45 239.528,512.117 244,529.5C 248.005,537.518 252.505,545.185 257.5,552.5C 253.481,548.479 249.814,544.146 246.5,539.5C 239.032,518.842 236.032,497.509 237.5,475.5C 242.5,475.5 247.5,475.5 252.5,475.5 Z"/></g>
<g><path style="opacity:1" fill="#996462" d="M 257.5,552.5 C 261.675,555.835 266.008,559.002 270.5,562C 276.587,564.303 282.587,566.47 288.5,568.5C 287.833,568.5 287.167,568.5 286.5,568.5C 276.252,566.922 267.252,562.756 259.5,556C 258.177,555.184 257.511,554.017 257.5,552.5 Z"/></g>
</svg>
