<?xml version="1.0" encoding="UTF-8"?>
<!DOCTYPE svg PUBLIC "-//W3C//DTD SVG 1.1//EN" "http://www.w3.org/Graphics/SVG/1.1/DTD/svg11.dtd">
<svg xmlns="http://www.w3.org/2000/svg" version="1.1" width="600px" height="600px" style="shape-rendering:geometricPrecision; text-rendering:geometricPrecision; image-rendering:optimizeQuality; fill-rule:evenodd; clip-rule:evenodd" xmlns:xlink="http://www.w3.org/1999/xlink">
<g><path style="opacity:0.966" fill="#030201" d="M 153.5,11.5 C 165.038,12.29 175.538,15.9566 185,22.5C 199.763,16.9646 213.263,19.1313 225.5,29C 232.293,34.1245 238.793,39.6245 245,45.5C 245.996,39.4867 249.329,35.4867 255,33.5C 253.025,24.1478 256.691,18.4811 266,16.5C 279.26,19.4252 290.26,26.0919 299,36.5C 307.884,25.2637 319.384,18.7637 333.5,17C 341.048,19.5946 343.714,24.7612 341.5,32.5C 347.312,34.4789 350.812,38.4789 352,44.5C 361.041,35.4565 371.208,27.9565 382.5,22C 392.041,18.6411 401.541,18.8077 411,22.5C 420.314,15.3953 430.814,11.8953 442.5,12C 450.483,14.8056 453.65,20.3056 452,28.5C 454.287,32.028 455.787,35.8613 456.5,40C 472.056,46.2776 487.723,52.2776 503.5,58C 526.934,64.3582 550.268,71.0248 573.5,78C 585.559,83.4509 591.226,92.7842 590.5,106C 588.963,124.948 583.963,142.948 575.5,160C 581.973,171.986 583.473,184.486 580,197.5C 575.29,202.721 569.79,203.721 563.5,200.5C 562.088,201.806 560.421,202.64 558.5,203C 555.723,203.051 553.057,203.218 550.5,203.5C 543.829,215.679 539.663,228.679 538,242.5C 532.658,251.379 525.158,253.879 515.5,250C 510.367,247.346 505.867,243.846 502,239.5C 497.17,287.986 483.837,333.986 462,377.5C 452.152,391.344 442.319,405.177 432.5,419C 438.948,434.57 441.782,450.737 441,467.5C 440.225,476.882 436.392,484.715 429.5,491C 426.432,492.016 423.432,493.183 420.5,494.5C 419.517,502.291 416.683,509.291 412,515.5C 402.789,529.044 391.289,540.211 377.5,549C 374.23,550.66 370.897,550.994 367.5,550C 363.723,554.379 359.39,558.046 354.5,561C 341.177,567.495 327.51,573.162 313.5,578C 309.252,580.243 305.586,583.243 302.5,587C 300.341,587.912 298.175,588.745 296,589.5C 293.825,588.745 291.659,587.912 289.5,587C 285.858,583.513 281.858,580.513 277.5,578C 260.945,572.887 245.279,565.887 230.5,557C 228.167,554.667 225.833,552.333 223.5,550C 217.259,550.686 211.593,549.019 206.5,545C 193.858,534.027 183.024,521.527 174,507.5C 172.516,502.899 171.35,498.232 170.5,493.5C 160.733,491.905 154.567,486.239 152,476.5C 148.919,464.64 148.919,452.64 152,440.5C 154.036,431.727 156.869,423.227 160.5,415C 152.015,403.177 143.515,391.344 135,379.5C 124.287,362.039 116.287,343.373 111,323.5C 102.385,296.09 96.718,268.09 94,239.5C 88.1373,246.014 80.9706,250.347 72.5,252.5C 64.6132,251.977 59.4466,247.977 57,240.5C 55.4807,227.442 51.6474,215.109 45.5,203.5C 40.7339,204.186 36.2339,203.186 32,200.5C 25.1112,204.045 19.4445,202.711 15,196.5C 12.3008,183.661 14.1341,171.494 20.5,160C 11.7549,142.691 6.42154,124.358 4.5,105C 4.5615,91.9547 10.5615,82.9547 22.5,78C 42.31,71.7137 62.31,66.0471 82.5,61C 101.808,54.7868 120.808,47.7868 139.5,40C 140.18,35.139 141.847,30.639 144.5,26.5C 142.971,18.7103 145.971,13.7103 153.5,11.5 Z"/></g>
<g><path style="opacity:1" fill="#80511b" d="M 245.5,58.5 C 246.058,59.7899 247.058,60.6232 248.5,61C 242.682,67.1542 236.015,72.1542 228.5,76C 224.848,76.4986 221.182,76.6653 217.5,76.5C 209.447,68.4009 199.781,65.7343 188.5,68.5C 176.436,70.8614 167.103,77.1948 160.5,87.5C 158.549,88.7158 157.049,90.3825 156,92.5C 141.607,117.618 129.107,143.618 118.5,170.5C 115.18,174.144 113.18,178.478 112.5,183.5C 110.656,187.01 108.989,190.677 107.5,194.5C 102.27,210.799 93.6029,224.966 81.5,237C 78.0206,240.082 74.0206,241.415 69.5,241C 68.2986,240.097 67.4652,238.931 67,237.5C 64.7791,218.335 57.9457,201.002 46.5,185.5C 44.775,188.316 42.6083,190.65 40,192.5C 38.3468,192.18 37.3468,191.18 37,189.5C 36.208,183.712 36.708,178.046 38.5,172.5C 38.1667,172.167 37.8333,171.833 37.5,171.5C 32.3129,177.871 28.1462,184.871 25,192.5C 23.4796,188.625 23.1462,184.625 24,180.5C 25.6206,173.468 28.1206,166.801 31.5,160.5C 25.3802,147.308 20.5469,133.642 17,119.5C 15.6471,112.208 15.3138,104.875 16,97.5C 17.3767,95.2462 18.8767,93.0795 20.5,91C 26.1322,87.5646 32.1322,84.898 38.5,83C 79.0182,74.1053 118.018,60.9387 155.5,43.5C 154.185,41.6841 152.685,40.0175 151,38.5C 150.383,37.5509 150.549,36.7175 151.5,36C 157.443,34.994 163.11,35.8274 168.5,38.5C 169.932,38.2668 170.432,37.6001 170,36.5C 165.565,31.226 160.398,26.8927 154.5,23.5C 155.833,23.1667 157.167,22.8333 158.5,22.5C 163.437,23.1338 168.104,24.6338 172.5,27C 175.702,29.43 179.035,31.5967 182.5,33.5C 191.719,29.3451 201.052,28.8451 210.5,32C 213.833,34 217.167,36 220.5,38C 228.496,45.3197 236.83,52.153 245.5,58.5 Z"/></g>
<g><path style="opacity:1" fill="#80511b" d="M 486.5,192.5 C 483.184,180.538 478.517,169.204 472.5,158.5C 470.282,151.734 467.282,145.401 463.5,139.5C 460.874,131.581 457.207,124.248 452.5,117.5C 446.224,102.444 437.557,88.9436 426.5,77C 412.788,66.4785 398.121,64.8118 382.5,72C 380.937,73.736 379.27,75.236 377.5,76.5C 373.119,76.6282 368.785,76.2949 364.5,75.5C 358.161,71.6333 352.495,66.8 347.5,61C 348.571,60.1482 349.571,59.3149 350.5,58.5C 359.293,51.5452 367.96,44.3785 376.5,37C 380.888,34.1394 385.554,31.8061 390.5,30C 398.055,29.5524 405.389,30.7191 412.5,33.5C 417.463,30.683 422.463,27.8496 427.5,25C 432.005,23.0379 436.672,22.3712 441.5,23C 435.367,27.3005 429.7,32.1339 424.5,37.5C 425.167,37.8333 425.833,38.1667 426.5,38.5C 432.219,35.9482 438.219,34.9482 444.5,35.5C 444.378,39.1473 442.712,41.9806 439.5,44C 459.596,52.5879 479.929,60.5879 500.5,68C 522.122,74.1556 543.789,80.1556 565.5,86C 578.3,90.4313 583.133,99.2646 580,112.5C 576.789,129.3 571.289,145.3 563.5,160.5C 570.573,170.125 572.906,180.792 570.5,192.5C 568.016,187.531 565.516,182.531 563,177.5C 561.71,175.208 560.043,173.208 558,171.5C 558.484,177.795 558.484,184.129 558,190.5C 557.275,192.158 556.108,192.658 554.5,192C 552.548,189.926 550.715,187.759 549,185.5C 537.545,201.747 530.545,219.747 528,239.5C 525.847,241.444 523.347,241.944 520.5,241C 509.85,234.019 501.684,224.852 496,213.5C 492.784,206.41 489.617,199.41 486.5,192.5 Z"/></g>
<g><path style="opacity:1" fill="#f5f5f5" d="M 388.5,82.5 C 409.426,97.4947 429.093,114.161 447.5,132.5C 454.559,145.616 461.392,158.949 468,172.5C 472.26,182.281 475.927,192.281 479,202.5C 482.856,209.076 486.523,215.742 490,222.5C 489.752,275.157 477.419,324.824 453,371.5C 442.333,386.167 431.667,400.833 421,415.5C 420.333,417.167 420.333,418.833 421,420.5C 429.854,438.077 432.187,456.41 428,475.5C 426.241,481.998 422.575,483.665 417,480.5C 413.828,476.159 411.161,471.492 409,466.5C 408.5,468 408,469.5 407.5,471C 409.596,481.157 409.762,491.324 408,501.5C 401.016,513.158 392.516,523.658 382.5,533C 379.337,535.416 376.004,537.582 372.5,539.5C 371.914,539.291 371.414,538.957 371,538.5C 369.675,534.2 368.508,529.866 367.5,525.5C 366.635,524.417 365.635,524.251 364.5,525C 363.422,529.814 362.255,534.647 361,539.5C 359.6,542.902 357.433,545.736 354.5,548C 349.49,551.507 344.157,554.507 338.5,557C 327.5,561.333 316.5,565.667 305.5,570C 301.592,572.032 298.425,574.866 296,578.5C 293.463,575.628 290.63,573.128 287.5,571C 275.28,565.723 262.947,560.723 250.5,556C 245.833,553.333 241.167,550.667 236.5,548C 230.404,541.835 227.237,534.335 227,525.5C 226.581,524.328 225.915,523.328 225,522.5C 223.164,527.011 221.83,531.677 221,536.5C 220.632,537.91 219.799,538.91 218.5,539.5C 208.94,533.776 200.773,526.443 194,517.5C 190.667,512.833 187.333,508.167 184,503.5C 182.452,499.475 181.619,495.308 181.5,491C 182.017,484.483 182.683,477.983 183.5,471.5C 183.423,469.701 182.923,468.034 182,466.5C 179.607,472.534 176.107,477.701 171.5,482C 167.056,482.25 164.222,480.084 163,475.5C 158.737,454.798 161.737,435.131 172,416.5C 172.667,414.833 172.667,413.167 172,411.5C 156.313,393.132 142.98,373.132 132,351.5C 119.205,319.242 110.538,285.909 106,251.5C 105.333,241.5 105.333,231.5 106,221.5C 113.308,209.553 118.974,196.886 123,183.5C 129.986,168.195 137.486,153.195 145.5,138.5C 164.648,118.012 185.314,99.3458 207.5,82.5C 215.939,88.21 224.939,89.0433 234.5,85C 243.176,80.7376 250.676,74.9043 257,67.5C 257.683,63.3084 258.85,59.3084 260.5,55.5C 257.493,52.0404 256.16,48.2071 256.5,44C 265.417,44.2883 273.084,47.6216 279.5,54C 280.635,54.7494 281.635,54.5827 282.5,53.5C 278.396,44.5591 272.896,36.5591 266,29.5C 265.568,28.3999 266.068,27.7332 267.5,27.5C 280.486,32.4802 290.819,40.8136 298.5,52.5C 305.867,41.6347 315.534,33.468 327.5,28C 329.167,27.3333 330.833,27.3333 332.5,28C 328,33.8333 323.5,39.6667 319,45.5C 317.259,48.3093 316.092,51.3093 315.5,54.5C 316.552,54.6495 317.552,54.4828 318.5,54C 324.709,47.8903 332.043,44.557 340.5,44C 341.262,48.5239 339.929,52.5239 336.5,56C 337.21,59.8246 338.044,63.658 339,67.5C 345.854,76.0032 354.354,82.1699 364.5,86C 370.5,86.6667 376.5,86.6667 382.5,86C 384.692,85.074 386.692,83.9073 388.5,82.5 Z"/></g>
<g><path style="opacity:1" fill="#595451" d="M 350.5,58.5 C 349.571,59.3149 348.571,60.1482 347.5,61C 352.495,66.8 358.161,71.6333 364.5,75.5C 357.568,72.77 351.734,68.4366 347,62.5C 346.153,59.5096 347.32,58.1762 350.5,58.5 Z"/></g>
<g><path style="opacity:1" fill="#56524f" d="M 245.5,58.5 C 248.342,58.5283 249.509,59.8617 249,62.5C 243.346,68.4893 236.846,73.3226 229.5,77C 225.311,77.8119 221.311,77.6453 217.5,76.5C 221.182,76.6653 224.848,76.4986 228.5,76C 236.015,72.1542 242.682,67.1542 248.5,61C 247.058,60.6232 246.058,59.7899 245.5,58.5 Z"/></g>
<g><path style="opacity:1" fill="#635c57" d="M 364.5,75.5 C 368.785,76.2949 373.119,76.6282 377.5,76.5C 376.649,77.2554 374.982,77.5888 372.5,77.5C 369.473,77.7135 366.807,77.0468 364.5,75.5 Z"/></g>
<g><path style="opacity:1" fill="#2c0f10" d="M 188.5,68.5 C 177.553,72.3179 168.219,78.6513 160.5,87.5C 167.103,77.1948 176.436,70.8614 188.5,68.5 Z"/></g>
<g><path style="opacity:1" fill="#341215" d="M 207.5,82.5 C 185.314,99.3458 164.648,118.012 145.5,138.5C 152.348,122.47 160.515,107.137 170,92.5C 178.284,82.603 188.784,78.103 201.5,79C 203.692,79.926 205.692,81.0927 207.5,82.5 Z"/></g>
<g><path style="opacity:1" fill="#341216" d="M 447.5,132.5 C 429.093,114.161 409.426,97.4947 388.5,82.5C 393.118,78.7883 398.451,77.6217 404.5,79C 417.344,82.5098 426.511,90.3431 432,102.5C 437.448,112.397 442.614,122.397 447.5,132.5 Z"/></g>
<g><path style="opacity:1" fill="#321412" d="M 452.5,117.5 C 457.207,124.248 460.874,131.581 463.5,139.5C 459.325,132.484 455.659,125.151 452.5,117.5 Z"/></g>
<g><path style="opacity:1" fill="#554f4c" d="M 472.5,158.5 C 478.517,169.204 483.184,180.538 486.5,192.5C 486.631,193.239 486.464,193.906 486,194.5C 482.338,182.179 477.505,170.345 471.5,159C 471.728,158.601 472.062,158.435 472.5,158.5 Z"/></g>
<g><path style="opacity:1" fill="#57524f" d="M 118.5,170.5 C 116.736,175.022 114.736,179.355 112.5,183.5C 113.18,178.478 115.18,174.144 118.5,170.5 Z"/></g>
<g><path style="opacity:1" fill="#413d3b" d="M 112.5,183.5 C 111.494,187.858 110.327,192.191 109,196.5C 108.722,195.584 108.222,194.918 107.5,194.5C 108.989,190.677 110.656,187.01 112.5,183.5 Z"/></g>
<g><path style="opacity:1" fill="#80521e" d="M 204.5,211.5 C 230.982,211.319 245.982,224.319 249.5,250.5C 247.244,274.589 234.077,287.923 210,290.5C 185.697,287.864 172.53,274.364 170.5,250C 172.892,229.116 184.225,216.283 204.5,211.5 Z"/></g>
<g><path style="opacity:1" fill="#331014" d="M 207.5,222.5 C 224.815,222.974 235.148,231.641 238.5,248.5C 236.276,271.239 223.943,281.072 201.5,278C 184.661,270.156 178.828,257.322 184,239.5C 189.018,229.758 196.851,224.092 207.5,222.5 Z"/></g>
<g><path style="opacity:1" fill="#351316" d="M 383.5,222.5 C 401.582,223.251 411.582,232.584 413.5,250.5C 412.032,267.775 402.698,277.442 385.5,279.5C 368.319,277.321 358.986,267.654 357.5,250.5C 359.006,234.333 367.673,224.999 383.5,222.5 Z"/></g>
<g><path style="opacity:1" fill="#ebebeb" d="M 200.5,233.5 C 207.978,233.485 210.811,237.152 209,244.5C 205,248.5 201,248.5 197,244.5C 195.663,239.916 196.829,236.249 200.5,233.5 Z"/></g>
<g><path style="opacity:1" fill="#eae9e9" d="M 376.5,233.5 C 383.193,233.685 386.026,237.019 385,243.5C 380.667,248.833 376.333,248.833 372,243.5C 370.571,238.783 372.071,235.45 376.5,233.5 Z"/></g>
<g><path style="opacity:1" fill="#331115" d="M 281.5,398.5 C 296.264,397.919 310.931,398.753 325.5,401C 353.076,408.652 361.576,425.819 351,452.5C 335.903,473.464 315.403,483.298 289.5,482C 267.894,477.707 252.06,465.874 242,446.5C 236.092,423.876 244.259,409.042 266.5,402C 271.646,400.875 276.646,399.709 281.5,398.5 Z"/></g>
</svg>
