<?xml version="1.0" encoding="UTF-8"?>
<!DOCTYPE svg PUBLIC "-//W3C//DTD SVG 1.1//EN" "http://www.w3.org/Graphics/SVG/1.1/DTD/svg11.dtd">
<svg xmlns="http://www.w3.org/2000/svg" version="1.1" width="600px" height="600px" style="shape-rendering:geometricPrecision; text-rendering:geometricPrecision; image-rendering:optimizeQuality; fill-rule:evenodd; clip-rule:evenodd" xmlns:xlink="http://www.w3.org/1999/xlink">
<g><path style="opacity:0.963" fill="#010101" d="M 599.5,106.5 C 599.5,112.833 599.5,119.167 599.5,125.5C 595.041,145.697 587.874,165.03 578,183.5C 567.702,199.094 558.702,215.427 551,232.5C 549.44,240.191 547.774,247.857 546,255.5C 539.647,265.547 531.147,267.714 520.5,262C 516.39,259.191 512.557,256.025 509,252.5C 505.234,302.125 491.567,348.791 468,392.5C 456.333,408.833 444.667,425.167 433,441.5C 429.603,449.692 426.603,458.025 424,466.5C 420.392,486.213 415.392,505.546 409,524.5C 399.659,544.098 384.159,555.264 362.5,558C 355.535,559.254 348.535,559.587 341.5,559C 327.562,557.479 313.728,555.312 300,552.5C 289.82,554.203 279.653,556.036 269.5,558C 250.475,560.997 232.141,558.664 214.5,551C 199.274,542.078 189.774,528.911 186,511.5C 181.873,495.995 178.54,480.328 176,464.5C 174.06,458.013 171.727,451.679 169,445.5C 156.333,427.5 143.667,409.5 131,391.5C 114.73,362.362 103.397,331.362 97,298.5C 93.5219,283.343 91.1886,268.009 90,252.5C 84.3427,259.662 77.0094,263.996 68,265.5C 62.5257,265.263 58.1924,262.93 55,258.5C 51.8795,247.125 48.5462,235.792 45,224.5C 38.5047,212.172 31.5047,200.172 24,188.5C 12.1516,168.437 3.98491,147.104 -0.5,124.5C -0.5,118.5 -0.5,112.5 -0.5,106.5C 3.02508,95.1481 10.6918,87.9814 22.5,85C 44.2109,79.1556 65.8775,73.1556 87.5,67C 115.737,56.5879 143.737,45.5879 171.5,34C 180.734,30.4832 190.234,27.9832 200,26.5C 206.903,27.4676 213.403,29.6342 219.5,33C 228.79,39.9548 237.79,47.2882 246.5,55C 255.666,54.2083 264.832,53.0417 274,51.5C 291.668,51.5318 309.335,51.5318 327,51.5C 335.439,53.1342 343.939,54.3009 352.5,55C 362.365,45.1306 373.365,36.7973 385.5,30C 392.642,26.7073 399.976,26.0407 407.5,28C 415.287,29.929 422.954,32.2623 430.5,35C 456.262,45.9208 482.262,56.2541 508.5,66C 532.122,72.8222 555.789,79.4889 579.5,86C 589.841,89.5045 596.508,96.3378 599.5,106.5 Z"/></g>
<g><path style="opacity:1" fill="#2f2725" d="M 193.5,37.5 C 200.157,36.9649 206.49,38.1316 212.5,41C 223.453,48.9516 234.12,57.2849 244.5,66C 251.837,65.3325 259.171,64.6659 266.5,64C 268.227,69.6287 270.394,75.1287 273,80.5C 277.031,104.988 278.365,129.655 277,154.5C 276.364,197.391 270.031,239.391 258,280.5C 253.357,294.783 247.357,308.45 240,321.5C 230.254,333.973 218.088,343.473 203.5,350C 187.257,357.249 170.257,361.083 152.5,361.5C 145.416,361.625 138.416,360.959 131.5,359.5C 129.202,361.03 127.369,360.696 126,358.5C 111.381,322.903 103.214,285.903 101.5,247.5C 101.683,233.037 102.849,218.704 105,204.5C 99.1155,223.796 88.6155,239.962 73.5,253C 70.341,254.561 67.1743,254.728 64,253.5C 62.0466,241.461 58.7133,229.794 54,218.5C 46.5854,205.335 38.9187,192.335 31,179.5C 22.7243,164.616 16.391,148.949 12,132.5C 10.2327,124.572 9.56601,116.572 10,108.5C 12.7693,101.349 17.936,96.8489 25.5,95C 53.1054,87.932 80.4387,79.932 107.5,71C 136.013,59.1131 164.679,47.9464 193.5,37.5 Z"/></g>
<g><path style="opacity:1" fill="#2f2725" d="M 393.5,37.5 C 399.988,37.1656 406.322,37.9989 412.5,40C 441.579,51.1373 470.579,62.4706 499.5,74C 524.055,81.378 548.722,88.378 573.5,95C 581.064,96.8489 586.231,101.349 589,108.5C 589.446,124.485 586.446,139.819 580,154.5C 575.939,163.622 571.606,172.622 567,181.5C 558.322,194.181 550.656,207.514 544,221.5C 540.15,231.946 537.15,242.613 535,253.5C 532.936,254.591 530.769,254.758 528.5,254C 523.142,251.646 518.642,248.146 515,243.5C 506.001,232.508 499.335,220.175 495,206.5C 496.715,220.409 497.881,234.409 498.5,248.5C 496.16,286.526 487.827,323.192 473.5,358.5C 437.631,365.866 404.965,358.699 375.5,337C 367.467,329.638 360.967,321.138 356,311.5C 342.969,280.714 334.303,248.714 330,215.5C 325.293,177.937 323.959,140.27 326,102.5C 326.94,94.433 328.273,86.433 330,78.5C 332.71,73.7448 334.877,68.7448 336.5,63.5C 342.423,65.099 348.423,65.9324 354.5,66C 363.456,59.3792 372.123,52.3792 380.5,45C 384.602,41.9539 388.935,39.4539 393.5,37.5 Z"/></g>
<g><path style="opacity:1" fill="#e6e6e6" d="M 284.5,61.5 C 297.546,61.1225 310.546,61.6225 323.5,63C 323.957,63.414 324.291,63.914 324.5,64.5C 318.328,79.526 315.162,95.1926 315,111.5C 313.406,160.296 317.406,208.629 327,256.5C 332.067,282.376 341.067,306.709 354,329.5C 366.114,345.161 381.614,356.328 400.5,363C 422.597,371.405 445.263,373.738 468.5,370C 458.624,388.867 446.79,406.367 433,422.5C 425.501,432.497 419.834,443.497 416,455.5C 411.618,472.407 407.618,489.407 404,506.5C 395.127,537.88 374.293,551.713 341.5,548C 327.562,546.479 313.728,544.312 300,541.5C 289.82,543.203 279.653,545.036 269.5,547C 252.686,549.856 236.353,548.19 220.5,542C 210.479,535.973 203.312,527.473 199,516.5C 193.567,498.433 189.233,480.1 186,461.5C 182.391,447.951 176.391,435.617 168,424.5C 153.68,408.003 141.514,390.003 131.5,370.5C 167.243,374.816 200.243,366.983 230.5,347C 243.512,336.827 253.012,323.994 259,308.5C 273.233,271.112 281.9,232.445 285,192.5C 287.321,164.208 287.987,135.874 287,107.5C 286.396,97.3987 285.063,87.3987 283,77.5C 281.511,72.3556 279.344,67.5223 276.5,63C 279.365,62.8171 282.031,62.3171 284.5,61.5 Z"/></g>
<g><path style="opacity:1" fill="#321014" d="M 188.5,75.5 C 199.701,74.1783 209.368,77.345 217.5,85C 202.937,94.1186 189.27,104.452 176.5,116C 154.161,136.664 133.661,158.831 115,182.5C 126.495,153.509 140.161,125.509 156,98.5C 164.255,86.9756 175.088,79.3089 188.5,75.5 Z"/></g>
<g><path style="opacity:1" fill="#321014" d="M 399.5,75.5 C 416.834,75.0849 430.668,81.7516 441,95.5C 456.085,119.338 468.752,144.338 479,170.5C 463.532,152.699 447.032,135.865 429.5,120C 414.564,106.866 398.564,95.1994 381.5,85C 386.625,79.9397 392.625,76.7731 399.5,75.5 Z"/></g>
<g><path style="opacity:1" fill="#3d3938" d="M 201.5,223.5 C 226.547,221.754 242.714,232.754 250,256.5C 252.23,280.912 241.73,296.746 218.5,304C 192.797,307.071 176.297,296.238 169,271.5C 167.65,247.187 178.484,231.187 201.5,223.5 Z"/></g>
<g><path style="opacity:1" fill="#3d3938" d="M 381.5,223.5 C 406.335,221.318 422.502,231.985 430,255.5C 432.471,273.72 426.304,288.22 411.5,299C 389.846,310.003 371.346,306.17 356,287.5C 342.081,257.072 350.581,235.739 381.5,223.5 Z"/></g>
<g><path style="opacity:1" fill="#1d1d1b" d="M 202.5,235.5 C 227.155,234.322 238.988,245.989 238,270.5C 232.804,286.85 221.637,294.35 204.5,293C 186.321,288.134 178.488,276.301 181,257.5C 184.35,246.318 191.517,238.984 202.5,235.5 Z"/></g>
<g><path style="opacity:1" fill="#1d1d1b" d="M 382.5,235.5 C 410.766,235.412 421.933,249.079 416,276.5C 407.236,291.759 394.403,296.592 377.5,291C 360.206,279.947 356.373,265.447 366,247.5C 370.281,241.705 375.781,237.705 382.5,235.5 Z"/></g>
<g><path style="opacity:1" fill="#efefef" d="M 200.5,246.5 C 208.6,247.088 211.1,251.088 208,258.5C 201.665,263.084 197.498,261.584 195.5,254C 195.782,250.556 197.448,248.056 200.5,246.5 Z"/></g>
<g><path style="opacity:1" fill="#f0f0f0" d="M 380.5,246.5 C 387.685,246.848 390.519,250.515 389,257.5C 382.329,263.54 377.829,262.207 375.5,253.5C 376.014,250.323 377.681,247.989 380.5,246.5 Z"/></g>
<g><path style="opacity:1" fill="#060606" d="M 279.5,418.5 C 291.838,418.333 304.171,418.5 316.5,419C 331.509,419.66 344.009,425.493 354,436.5C 360.778,448.675 360.945,461.008 354.5,473.5C 339.221,495.972 317.888,506.472 290.5,505C 270.33,500.936 254.664,490.436 243.5,473.5C 233.348,450.456 239.681,433.623 262.5,423C 268.236,421.278 273.903,419.778 279.5,418.5 Z"/></g>
<g><path style="opacity:1" fill="#1c1c1a" d="M 281.5,428.5 C 297.697,427.585 313.697,428.751 329.5,432C 348.546,439.3 353.379,452.133 344,470.5C 316.349,502.024 287.349,503.357 257,474.5C 243.797,455.531 247.631,441.364 268.5,432C 273.11,431.386 277.443,430.22 281.5,428.5 Z"/></g>
</svg>
