<?xml version="1.0" encoding="UTF-8"?>
<!DOCTYPE svg PUBLIC "-//W3C//DTD SVG 1.1//EN" "http://www.w3.org/Graphics/SVG/1.1/DTD/svg11.dtd">
<svg xmlns="http://www.w3.org/2000/svg" version="1.1" width="600px" height="600px" style="shape-rendering:geometricPrecision; text-rendering:geometricPrecision; image-rendering:optimizeQuality; fill-rule:evenodd; clip-rule:evenodd" xmlns:xlink="http://www.w3.org/1999/xlink">
<g><path style="opacity:0.961" fill="#050302" d="M 599.5,253.5 C 599.5,266.167 599.5,278.833 599.5,291.5C 595.603,292.357 591.936,292.691 588.5,292.5C 594.347,305.235 596.514,318.568 595,332.5C 590.156,354.207 585.156,375.874 580,397.5C 578.423,402.71 574.923,405.71 569.5,406.5C 570.223,412.446 569.056,418.113 566,423.5C 563.419,425.516 560.586,427.016 557.5,428C 559.931,439.56 562.765,451.06 566,462.5C 567.162,468.557 566.162,474.223 563,479.5C 555.005,485.073 547.505,484.406 540.5,477.5C 537.19,482.495 532.523,485.495 526.5,486.5C 517.56,484.243 509.06,480.91 501,476.5C 500.399,479.637 499.399,482.637 498,485.5C 485.047,502.123 469.88,516.289 452.5,528C 447.334,530.748 442.334,533.748 437.5,537C 432.88,538.663 428.213,538.997 423.5,538C 420.536,541.966 417.203,545.633 413.5,549C 389.953,560.273 366.287,571.273 342.5,582C 331.945,587.103 321.945,592.936 312.5,599.5C 304.833,599.5 297.167,599.5 289.5,599.5C 280.724,593.27 271.391,587.77 261.5,583C 237.5,572 213.5,561 189.5,550C 184.977,546.977 181.31,543.144 178.5,538.5C 173.822,538.846 169.155,538.346 164.5,537C 141.064,524.903 121.231,508.403 105,487.5C 102.573,483.46 100.906,479.126 100,474.5C 92.3654,478.489 84.3654,481.489 76,483.5C 70.0129,482.506 65.3462,479.506 62,474.5C 52.8737,482.749 44.5404,482.082 37,472.5C 36.1816,469.893 35.6816,467.226 35.5,464.5C 38.9388,450.973 41.6055,437.306 43.5,423.5C 37.7269,423.231 34.2269,420.231 33,414.5C 32.5012,410.514 32.3345,406.514 32.5,402.5C 28.1171,402.652 24.6171,400.985 22,397.5C 16.5124,376.55 11.1791,355.55 6,334.5C 2.63414,318.464 4.46748,302.964 11.5,288C 7.37817,288.926 3.37817,288.426 -0.5,286.5C -0.5,273.833 -0.5,261.167 -0.5,248.5C 7.2019,233.437 15.7019,218.771 25,204.5C 28.5318,195.103 32.8652,186.103 38,177.5C 50.9845,157.889 65.6512,139.556 82,122.5C 93.2858,92.7626 110.452,66.9293 133.5,45C 140.627,39.213 148.293,34.213 156.5,30C 163.682,27.4238 171.015,26.7571 178.5,28C 248.851,-5.29938 320.517,-8.29938 393.5,19C 401.288,22.394 408.955,26.0606 416.5,30C 424.307,28.8005 431.973,29.4672 439.5,32C 446.34,35.2502 452.673,39.2502 458.5,44C 474.591,58.7446 488.424,75.2446 500,93.5C 504.814,104.287 509.814,114.953 515,125.5C 534.42,145.694 551.42,167.694 566,191.5C 572.53,207.564 580.863,222.564 591,236.5C 593.879,242.259 596.713,247.925 599.5,253.5 Z"/></g>
<g><path style="opacity:1" fill="#a46422" d="M 415.5,41.5 C 414.782,43.1368 414.616,44.8034 415,46.5C 424.521,50.0202 431.521,56.3536 436,65.5C 456.505,103.352 465.005,143.852 461.5,187C 461.205,231.739 457.872,276.239 451.5,320.5C 439.681,309.181 428.014,297.681 416.5,286C 415.906,285.536 415.239,285.369 414.5,285.5C 410.026,264.886 401.026,246.552 387.5,230.5C 409.667,218.504 416.833,200.504 409,176.5C 397.998,157.415 381.831,150.581 360.5,156C 344.106,162.578 335.106,174.744 333.5,192.5C 305.633,183.176 277.8,183.176 250,192.5C 247.896,170.125 235.73,157.292 213.5,154C 192.076,153.749 178.242,163.915 172,184.5C 169.421,205.179 177.255,220.345 195.5,230C 168.1,262.885 159.933,300.052 171,341.5C 172.749,346.005 175.249,350.005 178.5,353.5C 178.167,353.833 177.833,354.167 177.5,354.5C 169.89,351.697 162.89,347.864 156.5,343C 154.257,341.864 151.924,341.03 149.5,340.5C 147.249,311.739 144.082,283.072 140,254.5C 135.462,214.915 134.462,175.249 137,135.5C 139.962,105.252 149.962,77.5854 167,52.5C 171.63,49.8384 176.297,47.1717 181,44.5C 181.182,42.6698 180.682,41.0031 179.5,39.5C 226.559,14.8222 276.559,5.9889 329.5,13C 360.064,16.9697 388.731,26.4697 415.5,41.5 Z"/></g>
<g><path style="opacity:1" fill="#90561f" d="M 179.5,39.5 C 180.682,41.0031 181.182,42.6698 181,44.5C 176.297,47.1717 171.63,49.8384 167,52.5C 149.962,77.5854 139.962,105.252 137,135.5C 134.462,175.249 135.462,214.915 140,254.5C 144.082,283.072 147.249,311.739 149.5,340.5C 147.629,340.859 146.129,341.859 145,343.5C 145.822,367.684 142.822,391.35 136,414.5C 130.089,429.412 120.756,441.746 108,451.5C 107.667,453.833 107.333,456.167 107,458.5C 97.0456,466.235 85.879,470.735 73.5,472C 72.8742,471.25 72.3742,470.416 72,469.5C 71.6667,465.5 71.3333,461.5 71,457.5C 70.4387,456.978 69.772,456.645 69,456.5C 63.0487,459.231 57.882,463.064 53.5,468C 51.6354,469.301 49.6354,469.635 47.5,469C 46.374,465.256 46.2073,461.423 47,457.5C 52.4683,439.888 55.1349,421.888 55,403.5C 54.5774,402.044 53.7441,401.544 52.5,402C 49.7101,405.746 47.0434,409.579 44.5,413.5C 44.1162,402.611 43.7829,391.778 43.5,381C 42.5,380.333 41.5,380.333 40.5,381C 37.7886,384.922 34.9553,388.756 32,392.5C 27.0322,374.248 22.0322,355.915 17,337.5C 15.1051,328.576 14.4385,319.576 15,310.5C 17.5887,300.732 20.5887,291.066 24,281.5C 26.575,273.912 24.075,271.079 16.5,273C 13.3272,275.087 9.9939,276.921 6.5,278.5C 4.12729,277.45 3.12729,275.617 3.5,273C 5.32886,263.847 8.16219,255.013 12,246.5C 18.2694,235.237 24.9361,224.237 32,213.5C 45.8814,181.738 65.2148,153.738 90,129.5C 94.8068,120.884 98.8068,111.884 102,102.5C 114.859,78.9721 132.025,59.1388 153.5,43C 161.642,38.3911 170.309,37.2244 179.5,39.5 Z"/></g>
<g><path style="opacity:1" fill="#90561f" d="M 414.5,285.5 C 415.239,285.369 415.906,285.536 416.5,286C 428.014,297.681 439.681,309.181 451.5,320.5C 457.872,276.239 461.205,231.739 461.5,187C 465.005,143.852 456.505,103.352 436,65.5C 431.521,56.3536 424.521,50.0202 415,46.5C 414.616,44.8034 414.782,43.1368 415.5,41.5C 424.27,38.1383 432.603,38.9716 440.5,44C 461.499,59.3328 478.666,78.1661 492,100.5C 495.252,106.589 497.918,112.922 500,119.5C 502.161,124.492 504.828,129.159 508,133.5C 532.455,157.616 551.788,185.283 566,216.5C 574.423,229.006 582.089,242.006 589,255.5C 591.399,261.363 593.399,267.363 595,273.5C 595.728,276.23 595.562,278.897 594.5,281.5C 593.635,282.583 592.635,282.749 591.5,282C 588.661,280.08 585.661,278.413 582.5,277C 574.925,275.079 572.425,277.912 575,285.5C 580.997,297.488 584.497,310.155 585.5,323.5C 585.21,329.573 584.377,335.573 583,341.5C 579.671,354.155 576.338,366.822 573,379.5C 571.522,384.743 570.688,390.076 570.5,395.5C 569.448,395.649 568.448,395.483 567.5,395C 565.042,390.712 562.042,386.879 558.5,383.5C 557.914,383.709 557.414,384.043 557,384.5C 556.656,394.199 557.156,403.866 558.5,413.5C 558.167,414.5 557.833,415.5 557.5,416.5C 554.554,412.38 551.388,408.38 548,404.5C 547.333,405.167 546.667,405.833 546,406.5C 546.62,425.938 549.953,444.938 556,463.5C 558.136,471.155 555.636,473.655 548.5,471C 543.843,466.168 538.509,462.335 532.5,459.5C 531.914,459.709 531.414,460.043 531,460.5C 530.667,464.5 530.333,468.5 530,472.5C 529.521,474.646 528.188,475.646 526,475.5C 515.008,472.586 504.841,467.92 495.5,461.5C 494.686,459.234 494.186,456.9 494,454.5C 470.458,434.748 458.125,409.414 457,378.5C 456.029,364.149 455.695,349.816 456,335.5C 453.121,332.558 449.954,332.058 446.5,334C 432.682,346.575 416.682,354.909 398.5,359C 407.216,351.406 412.716,341.906 415,330.5C 418.199,315.462 418.033,300.462 414.5,285.5 Z"/></g>
<g><path style="opacity:1" fill="#f6f2ef" d="M 475.5,443.5 C 478.895,447.898 482.895,451.564 487.5,454.5C 490.589,462.588 491.089,470.922 489,479.5C 473.172,500.179 453.672,516.179 430.5,527.5C 429.006,527.291 427.839,526.624 427,525.5C 425.602,519.216 424.435,512.883 423.5,506.5C 421.035,513.008 418.869,519.675 417,526.5C 415.186,531.964 412.02,536.464 407.5,540C 381.748,551.807 356.082,563.807 330.5,576C 320.403,581.462 310.57,587.296 301,593.5C 289.435,586.283 277.602,579.45 265.5,573C 242.167,562.333 218.833,551.667 195.5,541C 190.189,537.009 186.355,531.843 184,525.5C 182.497,518.627 180.497,511.961 178,505.5C 177.082,511.848 176.082,518.181 175,524.5C 174.521,526.646 173.188,527.646 171,527.5C 146.774,516.279 127.108,499.612 112,477.5C 111.114,469.402 111.614,461.402 113.5,453.5C 135.062,435.71 146.562,412.71 148,384.5C 148.959,371.516 149.626,358.516 150,345.5C 164.258,355.093 179.758,362.093 196.5,366.5C 197.712,364.159 197.378,361.993 195.5,360C 182.248,352.731 174.415,341.564 172,326.5C 167.995,298.855 173.329,273.189 188,249.5C 193.257,241.988 198.757,234.654 204.5,227.5C 183.713,220.592 174.546,206.258 177,184.5C 184.531,164.818 198.698,156.651 219.5,160C 237.787,166.721 246.454,179.888 245.5,199.5C 267.078,190.578 289.412,188.078 312.5,192C 321.675,193.836 330.509,196.67 339,200.5C 337.899,176.28 349.233,162.28 373,158.5C 396.223,161.376 407.556,174.376 407,197.5C 403.755,213.415 394.255,223.581 378.5,228C 400.301,251.282 411.634,278.948 412.5,311C 412.909,328.122 407.242,342.788 395.5,355C 392.251,357.543 388.751,359.709 385,361.5C 384.338,363.813 383.838,366.146 383.5,368.5C 409.042,364.893 431.375,354.56 450.5,337.5C 450.755,351.118 451.255,364.785 452,378.5C 453.576,397.475 458.576,415.475 467,432.5C 469.358,436.558 472.192,440.225 475.5,443.5 Z"/></g>
<g><path style="opacity:1" fill="#0c0b0b" d="M 204.5,168.5 C 229.865,168.026 239.365,180.026 233,204.5C 226.761,209.37 220.261,213.87 213.5,218C 196.983,217.82 187.649,209.487 185.5,193C 186.446,180.589 192.779,172.422 204.5,168.5 Z"/></g>
<g><path style="opacity:1" fill="#0c0b0b" d="M 366.5,168.5 C 390.998,167.83 400.831,179.496 396,203.5C 389.567,215.467 379.734,219.967 366.5,217C 362.341,213.753 358.008,210.753 353.5,208C 349.611,203.629 347.944,198.462 348.5,192.5C 348.845,180.167 354.845,172.167 366.5,168.5 Z"/></g>
<g><path style="opacity:1" fill="#362e2b" d="M 205.5,173.5 C 217.561,171.608 225.728,176.274 230,187.5C 230.879,192.287 230.545,196.953 229,201.5C 222.944,205.733 216.777,209.733 210.5,213.5C 195.437,210.729 189.27,201.729 192,186.5C 194.773,180.228 199.273,175.894 205.5,173.5 Z"/></g>
<g><path style="opacity:1" fill="#362e2b" d="M 366.5,173.5 C 378.299,171.485 386.799,175.818 392,186.5C 394.287,201.6 387.953,210.6 373,213.5C 371.373,213.375 369.873,212.875 368.5,212C 365.113,208.947 361.447,206.28 357.5,204C 355.951,202.786 354.785,201.286 354,199.5C 351.519,187.466 355.686,178.799 366.5,173.5 Z"/></g>
<g><path style="opacity:1" fill="#ececec" d="M 214.5,178.5 C 225.564,178.025 228.564,182.525 223.5,192C 216.719,195.108 212.386,193.108 210.5,186C 210.927,182.977 212.261,180.477 214.5,178.5 Z"/></g>
<g><path style="opacity:1" fill="#ececec" d="M 376.5,178.5 C 387.481,177.989 390.481,182.489 385.5,192C 376.42,195.215 372.253,192.048 373,182.5C 374.376,181.295 375.542,179.962 376.5,178.5 Z"/></g>
<g><path style="opacity:1" fill="#0a0909" d="M 281.5,208.5 C 292.075,207.766 302.409,208.932 312.5,212C 325.521,218.21 328.688,227.71 322,240.5C 319.5,243 317,245.5 314.5,248C 307.547,252.055 300.714,256.222 294,260.5C 293.228,265.904 293.561,271.238 295,276.5C 303.609,292.442 316.109,304.276 332.5,312C 353.539,323.108 375.872,327.608 399.5,325.5C 397.78,326.934 395.78,327.767 393.5,328C 372.551,331.103 352.218,328.769 332.5,321C 323.271,316.771 314.271,312.104 305.5,307C 300.76,305.44 295.927,304.273 291,303.5C 286.012,304.031 281.178,305.198 276.5,307C 248.016,325.372 217.016,332.872 183.5,329.5C 217.538,328.88 247.538,317.713 273.5,296C 280.269,289.23 285.435,281.397 289,272.5C 289.667,268.5 289.667,264.5 289,260.5C 280.58,255.708 272.413,250.542 264.5,245C 255.173,234.959 255.173,224.959 264.5,215C 269.888,211.752 275.554,209.585 281.5,208.5 Z"/></g>
<g><path style="opacity:1" fill="#221714" d="M 281.5,213.5 C 293.085,212.182 304.085,214.016 314.5,219C 320.288,223.389 321.788,228.889 319,235.5C 316.5,239.333 313.333,242.5 309.5,245C 303.252,248.373 297.085,251.873 291,255.5C 286.578,252.036 281.744,249.203 276.5,247C 270.667,243.833 266.167,239.333 263,233.5C 261.328,227.342 263.162,222.509 268.5,219C 272.741,216.651 277.075,214.818 281.5,213.5 Z"/></g>
<g><path style="opacity:1" fill="#211714" d="M 290.5,281.5 C 295.182,288.694 300.849,295.194 307.5,301C 302.025,300.441 296.525,299.608 291,298.5C 285.734,299.295 280.567,300.128 275.5,301C 281.608,295.251 286.608,288.751 290.5,281.5 Z"/></g>
<g><path style="opacity:1" fill="#4b3e33" d="M 475.5,443.5 C 480.105,446.436 484.105,450.102 487.5,454.5C 482.895,451.564 478.895,447.898 475.5,443.5 Z"/></g>
</svg>
