<?xml version="1.0" encoding="UTF-8"?>
<!DOCTYPE svg PUBLIC "-//W3C//DTD SVG 1.1//EN" "http://www.w3.org/Graphics/SVG/1.1/DTD/svg11.dtd">
<svg xmlns="http://www.w3.org/2000/svg" version="1.1" width="600px" height="600px" style="shape-rendering:geometricPrecision; text-rendering:geometricPrecision; image-rendering:optimizeQuality; fill-rule:evenodd; clip-rule:evenodd" xmlns:xlink="http://www.w3.org/1999/xlink">
<g><path style="opacity:0.969" fill="#040303" d="M 599.5,66.5 C 599.5,96.1667 599.5,125.833 599.5,155.5C 592.692,189.097 582.525,221.764 569,253.5C 564.46,262.696 559.126,271.362 553,279.5C 539.246,294.583 526.246,310.25 514,326.5C 510.119,333.595 506.785,340.929 504,348.5C 502.503,356.779 502.169,365.112 503,373.5C 505.395,392.613 507.228,411.78 508.5,431C 508.681,471.305 492.681,503.305 460.5,527C 432.549,547.106 401.549,560.439 367.5,567C 346.19,578.27 323.524,584.77 299.5,586.5C 276.237,584.913 254.237,578.747 233.5,568C 193.248,560.702 157.581,544.035 126.5,518C 101.455,494.389 89.122,465.223 89.5,430.5C 90.8569,411.787 92.6903,393.121 95,374.5C 96.5716,362.797 95.2382,351.464 91,340.5C 88.2547,334.675 85.2547,329.008 82,323.5C 71.0828,309.245 59.4161,295.578 47,282.5C 33.5862,264.674 23.5862,245.007 17,223.5C 10.049,202.683 4.21563,181.683 -0.5,160.5C -0.5,128.5 -0.5,96.5 -0.5,64.5C 9.20384,47.1303 24.2038,38.1303 44.5,37.5C 57.7583,38.864 70.425,42.364 82.5,48C 91.1667,52.6667 99.8333,57.3333 108.5,62C 149.167,87.6667 189.833,113.333 230.5,139C 246.348,147.169 263.182,151.335 281,151.5C 293.004,148.863 305.004,148.863 317,151.5C 330.024,150.733 342.858,148.567 355.5,145C 365.421,140.068 375.087,134.735 384.5,129C 417.494,107.168 450.827,85.8343 484.5,65C 500.374,55.3966 517.041,47.3966 534.5,41C 556.383,34.3075 575.55,38.8075 592,54.5C 594.759,58.407 597.259,62.407 599.5,66.5 Z"/></g>
<g><path style="opacity:1" fill="#59483e" d="M 270.5,257.5 C 261.653,240.307 251.653,223.807 240.5,208C 221.594,192.982 201.594,191.649 180.5,204C 158.542,217.29 141.376,235.123 129,257.5C 126.638,268.797 127.638,279.797 132,290.5C 136.35,300.704 141.85,310.204 148.5,319C 149.448,319.483 150.448,319.649 151.5,319.5C 135.594,326.268 125.427,338.268 121,355.5C 117.767,368.984 116.767,382.65 118,396.5C 123.294,443.064 140.627,484.398 170,520.5C 178.939,530.444 188.772,539.278 199.5,547C 171.254,538.434 146.754,523.6 126,502.5C 111.731,486.618 103.398,467.951 101,446.5C 100.333,435.167 100.333,423.833 101,412.5C 103.302,396.051 105.136,379.551 106.5,363C 104.88,344.263 98.3797,327.43 87,312.5C 76.3733,299.538 65.3733,286.871 54,274.5C 41.9964,258.117 32.9964,240.117 27,220.5C 12.1807,178.739 4.18068,135.739 3,91.5C 7.57923,57.2507 26.7459,43.7507 60.5,51C 64.5,52.3333 68.5,53.6667 72.5,55C 89.3153,63.2386 105.649,72.2386 121.5,82C 154.833,103.333 188.167,124.667 221.5,146C 234.691,154.175 249.024,159.175 264.5,161C 263.363,166.082 263.196,171.249 264,176.5C 269.264,189.959 273.931,203.626 278,217.5C 279.611,231.701 277.111,245.035 270.5,257.5 Z"/></g>
<g><path style="opacity:1" fill="#59483e" d="M 450.5,320.5 C 459.969,308.229 466.802,294.563 471,279.5C 471.667,272.5 471.667,265.5 471,258.5C 467.933,250.695 463.599,243.695 458,237.5C 445.879,223.03 431.712,211.197 415.5,202C 390.809,189.552 369.976,194.052 353,215.5C 345.062,229.719 336.896,243.719 328.5,257.5C 325.538,251.126 323.038,244.459 321,237.5C 320.333,230.5 320.333,223.5 321,216.5C 324.935,204.027 329.269,191.694 334,179.5C 335.405,173.063 335.905,166.73 335.5,160.5C 349.403,158.608 362.403,154.108 374.5,147C 408.768,125.728 442.768,104.061 476.5,82C 495.349,69.5745 515.349,59.2411 536.5,51C 570.75,43.2558 590.25,56.7558 595,91.5C 593.283,148.333 580.616,202.667 557,254.5C 553.582,260.337 549.916,266.004 546,271.5C 532.958,286.207 520.291,301.207 508,316.5C 498.117,330.436 492.617,345.936 491.5,363C 493.037,379.538 494.87,396.038 497,412.5C 502.907,455.148 489.407,489.981 456.5,517C 439.632,529.599 421.299,539.266 401.5,546C 440.41,514.386 465.244,473.886 476,424.5C 481.865,399.459 481.865,374.459 476,349.5C 471.182,336.52 462.682,326.854 450.5,320.5 Z"/></g>
<g><path style="opacity:1" fill="#66554c" d="M 38.5,71.5 C 51.174,71.4959 62.8407,74.9959 73.5,82C 98.7418,96.3862 120.575,114.886 139,137.5C 145.248,145.997 149.915,155.33 153,165.5C 154.359,170.775 154.692,176.109 154,181.5C 143.357,207.95 126.19,229.117 102.5,245C 94.075,249.577 85.7416,249.577 77.5,245C 66.5492,234.37 58.3825,221.87 53,207.5C 40.8992,179.969 32.8992,151.302 29,121.5C 27.8635,108.049 28.5302,94.7157 31,81.5C 32.3174,77.1633 34.8174,73.8299 38.5,71.5 Z"/></g>
<g><path style="opacity:1" fill="#66554c" d="M 548.5,71.5 C 561.674,70.1692 568.507,76.1692 569,89.5C 571.021,114.998 568.354,139.998 561,164.5C 554.144,187.877 544.811,210.21 533,231.5C 528.303,239.866 521.469,245.699 512.5,249C 505.486,249.997 499.153,248.331 493.5,244C 471.962,228.063 455.795,207.897 445,183.5C 443.381,170.55 446.047,158.55 453,147.5C 460.99,134.835 470.49,123.335 481.5,113C 494.126,102.354 507.459,92.6875 521.5,84C 530.317,79.1316 539.317,74.9649 548.5,71.5 Z"/></g>
<g><path style="opacity:1" fill="#f8f5f2" d="M 314.5,202.5 C 312.254,206.805 310.92,211.471 310.5,216.5C 308.595,237.213 313.428,256.213 325,273.5C 337.949,291.281 349.449,309.947 359.5,329.5C 361.442,334.441 364.775,338.108 369.5,340.5C 369.842,341.338 370.508,341.672 371.5,341.5C 372.347,342.966 373.68,343.8 375.5,344C 379.689,344.812 383.689,344.645 387.5,343.5C 391.258,343.605 394.592,342.605 397.5,340.5C 400.089,340.539 402.089,339.539 403.5,337.5C 409.545,334.147 415.878,331.313 422.5,329C 443.618,325.311 458.118,333.478 466,353.5C 467.961,358.677 469.294,364.01 470,369.5C 471.777,429.53 451.943,481.03 410.5,524C 385.344,547.584 356.011,563.917 322.5,573C 299.898,577.6 277.898,575.6 256.5,567C 181.405,535.212 138.905,478.712 129,397.5C 125.893,378.392 128.893,360.392 138,343.5C 149.135,328.179 163.635,323.846 181.5,330.5C 183.181,332.008 185.181,333.008 187.5,333.5C 192.247,337.207 197.581,339.874 203.5,341.5C 204.842,342.793 206.509,343.626 208.5,344C 213.352,344.815 218.019,344.648 222.5,343.5C 225.38,343.06 228.046,342.06 230.5,340.5C 233.167,338.5 235.5,336.167 237.5,333.5C 243.91,321.012 250.577,308.678 257.5,296.5C 260.185,293.81 262.518,290.81 264.5,287.5C 270.825,278.193 276.658,268.527 282,258.5C 288.409,242.667 290.076,226.333 287,209.5C 283.393,198.678 279.393,188.012 275,177.5C 270.422,167.306 273.588,161.806 284.5,161C 297.28,159.908 309.946,160.575 322.5,163C 325.394,165.909 326.227,169.409 325,173.5C 321.486,183.188 317.986,192.854 314.5,202.5 Z"/></g>
<g><path style="opacity:1" fill="#be7b3e" d="M 270.5,257.5 C 261.978,272.2 252.811,286.534 243,300.5C 238.452,308.263 234.452,316.263 231,324.5C 226.781,332.359 220.281,335.526 211.5,334C 203.508,330.835 195.841,326.835 188.5,322C 176.442,317.265 164.108,316.432 151.5,319.5C 150.448,319.649 149.448,319.483 148.5,319C 141.85,310.204 136.35,300.704 132,290.5C 127.638,279.797 126.638,268.797 129,257.5C 141.376,235.123 158.542,217.29 180.5,204C 201.594,191.649 221.594,192.982 240.5,208C 251.653,223.807 261.653,240.307 270.5,257.5 Z"/></g>
<g><path style="opacity:1" fill="#be7b3e" d="M 450.5,320.5 C 436.929,316.062 423.596,316.562 410.5,322C 403.047,327.06 395.047,331.06 386.5,334C 378.133,335.232 371.966,332.066 368,324.5C 359.32,305.52 348.654,287.853 336,271.5C 333.22,266.938 330.72,262.272 328.5,257.5C 336.896,243.719 345.062,229.719 353,215.5C 369.976,194.052 390.809,189.552 415.5,202C 431.712,211.197 445.879,223.03 458,237.5C 463.599,243.695 467.933,250.695 471,258.5C 471.667,265.5 471.667,272.5 471,279.5C 466.802,294.563 459.969,308.229 450.5,320.5 Z"/></g>
<g><path style="opacity:1" fill="#443d39" d="M 314.5,202.5 C 313.769,207.438 312.435,212.105 310.5,216.5C 310.92,211.471 312.254,206.805 314.5,202.5 Z"/></g>
<g><path style="opacity:1" fill="#cd9f65" d="M 188.5,237.5 C 211.377,235.512 225.877,245.512 232,267.5C 232.206,295.294 218.373,309.127 190.5,309C 168.788,302.612 158.955,288.112 161,265.5C 165.35,251.317 174.517,241.984 188.5,237.5 Z"/></g>
<g><path style="opacity:1" fill="#cd9f65" d="M 394.5,237.5 C 424.513,237.012 438.68,251.678 437,281.5C 430.737,301.221 417.237,310.388 396.5,309C 374.026,302.553 364.192,287.719 367,264.5C 371.419,250.58 380.586,241.58 394.5,237.5 Z"/></g>
<g><path style="opacity:1" fill="#231815" d="M 192.5,248.5 C 214.821,249.985 223.654,261.652 219,283.5C 210.016,297.714 197.849,301.214 182.5,294C 168.975,281.184 168.308,267.851 180.5,254C 184.284,251.471 188.284,249.638 192.5,248.5 Z"/></g>
<g><path style="opacity:1" fill="#231815" d="M 398.5,248.5 C 421.539,250.254 430.039,262.254 424,284.5C 415.087,298.02 403.254,301.187 388.5,294C 376.567,284.046 374.4,272.212 382,258.5C 386.427,253.211 391.927,249.878 398.5,248.5 Z"/></g>
<g><path style="opacity:1" fill="#eeeeee" d="M 205.5,258.5 C 212.771,258.036 215.604,261.369 214,268.5C 209.648,272.665 205.648,272.331 202,267.5C 201.481,263.868 202.647,260.868 205.5,258.5 Z"/></g>
<g><path style="opacity:1" fill="#eeeeee" d="M 407.5,258.5 C 414.771,258.036 417.604,261.369 416,268.5C 411.648,272.665 407.648,272.331 404,267.5C 403.481,263.868 404.647,260.868 407.5,258.5 Z"/></g>
<g><path style="opacity:1" fill="#694c36" d="M 264.5,287.5 C 262.518,290.81 260.185,293.81 257.5,296.5C 258.781,292.567 261.114,289.567 264.5,287.5 Z"/></g>
<g><path style="opacity:1" fill="#5c4028" d="M 181.5,330.5 C 184.089,330.461 186.089,331.461 187.5,333.5C 185.181,333.008 183.181,332.008 181.5,330.5 Z"/></g>
<g><path style="opacity:1" fill="#5b3f27" d="M 359.5,329.5 C 362.805,333.141 366.138,336.808 369.5,340.5C 364.775,338.108 361.442,334.441 359.5,329.5 Z"/></g>
<g><path style="opacity:1" fill="#6d4f39" d="M 237.5,333.5 C 235.5,336.167 233.167,338.5 230.5,340.5C 231.833,337.167 234.167,334.833 237.5,333.5 Z"/></g>
<g><path style="opacity:1" fill="#5b4028" d="M 403.5,337.5 C 402.089,339.539 400.089,340.539 397.5,340.5C 399.181,338.992 401.181,337.992 403.5,337.5 Z"/></g>
<g><path style="opacity:1" fill="#030303" d="M 280.5,341.5 C 292.838,341.333 305.171,341.5 317.5,342C 338.778,347.38 347.278,360.88 343,382.5C 334.328,404.425 318.161,415.259 294.5,415C 268.269,409.784 254.769,393.951 254,367.5C 257.424,353.242 266.257,344.575 280.5,341.5 Z"/></g>
<g><path style="opacity:1" fill="#62462f" d="M 203.5,341.5 C 209.698,343.183 216.031,343.849 222.5,343.5C 218.019,344.648 213.352,344.815 208.5,344C 206.509,343.626 204.842,342.793 203.5,341.5 Z"/></g>
<g><path style="opacity:1" fill="#5a3e26" d="M 371.5,341.5 C 376.676,343.184 382.009,343.85 387.5,343.5C 383.689,344.645 379.689,344.812 375.5,344C 373.68,343.8 372.347,342.966 371.5,341.5 Z"/></g>
<g><path style="opacity:1" fill="#221714" d="M 283.5,351.5 C 293.839,351.334 304.172,351.5 314.5,352C 330.028,354.893 336.195,364.06 333,379.5C 326.287,394.363 314.787,403.03 298.5,405.5C 282.651,402.681 271.484,394.014 265,379.5C 262.432,364.286 268.598,354.953 283.5,351.5 Z"/></g>
<g><path style="opacity:1" fill="#030303" d="M 251.5,445.5 C 251.435,445.938 251.601,446.272 252,446.5C 254.607,445.877 257.107,445.21 259.5,444.5C 262.916,444.472 265.916,443.472 268.5,441.5C 270.553,441.598 272.22,440.931 273.5,439.5C 277.787,438.352 281.787,436.685 285.5,434.5C 291.723,432.731 298.057,432.231 304.5,433C 314.311,436.271 323.978,439.937 333.5,444C 337.152,444.897 340.819,445.73 344.5,446.5C 345.416,446.457 346.083,446.124 346.5,445.5C 353.976,445.841 360.643,443.675 366.5,439C 369.037,436.128 371.87,433.628 375,431.5C 382.79,421.375 390.956,411.542 399.5,402C 402.237,400.92 403.904,401.754 404.5,404.5C 398.885,418.399 392.718,432.066 386,445.5C 377.756,457.949 368.089,469.282 357,479.5C 341.168,513.327 315.001,525.494 278.5,516C 268.738,512.911 260.571,507.411 254,499.5C 248.834,492.505 244.167,485.172 240,477.5C 216.876,456.917 201.709,431.583 194.5,401.5C 198.273,400.822 201.106,402.156 203,405.5C 211.457,416.293 220.291,426.793 229.5,437C 235.878,442.357 243.211,445.191 251.5,445.5 Z"/></g>
<g><path style="opacity:1" fill="#c18f98" d="M 346.5,445.5 C 346.083,446.124 345.416,446.457 344.5,446.5C 340.819,445.73 337.152,444.897 333.5,444C 323.978,439.937 314.311,436.271 304.5,433C 298.057,432.231 291.723,432.731 285.5,434.5C 287.148,433.073 289.148,432.24 291.5,432C 296.167,431.333 300.833,431.333 305.5,432C 315.311,435.271 324.978,438.937 334.5,443C 338.473,444.028 342.473,444.861 346.5,445.5 Z"/></g>
<g><path style="opacity:1" fill="#b77784" d="M 285.5,434.5 C 281.787,436.685 277.787,438.352 273.5,439.5C 276.983,436.763 280.983,435.097 285.5,434.5 Z"/></g>
<g><path style="opacity:1" fill="#f09aab" d="M 340.5,455.5 C 341.568,456.434 342.901,456.768 344.5,456.5C 342.939,473.703 336.272,488.537 324.5,501C 322.102,502.524 319.769,504.024 317.5,505.5C 305.167,509.5 292.833,509.5 280.5,505.5C 270.976,499.466 264.143,491.133 260,480.5C 257.206,472.656 255.039,464.656 253.5,456.5C 266.822,453.336 279.822,448.836 292.5,443C 296.5,442.333 300.5,442.333 304.5,443C 313.614,446.39 322.614,450.057 331.5,454C 334.432,454.953 337.432,455.453 340.5,455.5 Z"/></g>
<g><path style="opacity:1" fill="#b77684" d="M 268.5,441.5 C 265.916,443.472 262.916,444.472 259.5,444.5C 262.215,442.928 265.215,441.928 268.5,441.5 Z"/></g>
<g><path style="opacity:1" fill="#ba7a87" d="M 259.5,444.5 C 257.107,445.21 254.607,445.877 252,446.5C 251.601,446.272 251.435,445.938 251.5,445.5C 253.948,444.527 256.615,444.194 259.5,444.5 Z"/></g>
<g><path style="opacity:1" fill="#231815" d="M 253.5,456.5 C 255.039,464.656 257.206,472.656 260,480.5C 264.143,491.133 270.976,499.466 280.5,505.5C 272.534,503.057 266.034,498.39 261,491.5C 256.936,485.764 253.27,479.764 250,473.5C 242.096,466.266 234.929,458.433 228.5,450C 231.506,450.996 234.506,452.329 237.5,454C 242.802,455.089 248.135,455.922 253.5,456.5 Z"/></g>
<g><path style="opacity:1" fill="#221715" d="M 317.5,505.5 C 319.769,504.024 322.102,502.524 324.5,501C 336.272,488.537 342.939,473.703 344.5,456.5C 342.901,456.768 341.568,456.434 340.5,455.5C 345.7,456.091 351.034,455.924 356.5,455C 361.511,453.806 366.178,452.139 370.5,450C 364.032,457.47 357.198,464.636 350,471.5C 345.163,479.844 339.83,487.844 334,495.5C 329.264,500.276 323.764,503.61 317.5,505.5 Z"/></g>
</svg>
