<?xml version="1.0" encoding="UTF-8"?>
<!DOCTYPE svg PUBLIC "-//W3C//DTD SVG 1.1//EN" "http://www.w3.org/Graphics/SVG/1.1/DTD/svg11.dtd">
<svg xmlns="http://www.w3.org/2000/svg" version="1.1" width="600px" height="600px" style="shape-rendering:geometricPrecision; text-rendering:geometricPrecision; image-rendering:optimizeQuality; fill-rule:evenodd; clip-rule:evenodd" xmlns:xlink="http://www.w3.org/1999/xlink">
<g><path style="opacity:0.955" fill="#010101" d="M 599.5,256.5 C 599.5,284.5 599.5,312.5 599.5,340.5C 584.455,390.931 563.622,438.931 537,484.5C 525.808,504.038 512.308,521.871 496.5,538C 476.781,555.343 457.948,554.51 440,535.5C 426.177,513.176 416.177,489.176 410,463.5C 409.249,480.172 404.916,495.838 397,510.5C 384.339,527.464 367.839,532.63 347.5,526C 340.908,523.692 334.408,521.192 328,518.5C 308.672,521.141 289.338,521.141 270,518.5C 263.79,520.459 257.624,522.626 251.5,525C 221.772,532.544 202.939,521.377 195,491.5C 192.489,482.276 190.489,472.943 189,463.5C 182.891,488.706 173.224,512.372 160,534.5C 141.411,554.913 121.911,555.746 101.5,537C 82.2613,516.361 66.0946,493.528 53,468.5C 30.963,427.446 13.1297,384.779 -0.5,340.5C -0.5,312.833 -0.5,285.167 -0.5,257.5C 22.6131,208.825 53.9464,165.991 93.5,129C 115.562,109.794 140.562,95.4611 168.5,86C 182.548,74.807 198.214,66.4737 215.5,61C 273.709,44.0178 331.709,44.6845 389.5,63C 404.559,68.3583 418.225,76.0249 430.5,86C 471.549,100.387 506.049,124.22 534,157.5C 560.339,187.51 582.173,220.51 599.5,256.5 Z"/></g>
<g><path style="opacity:1" fill="#2f2f30" d="M 424.5,94.5 C 414.884,92.6313 411.384,96.6313 414,106.5C 423.101,116.932 431.435,127.932 439,139.5C 453.196,166.603 459.363,195.103 457.5,225C 455.892,244.141 452.392,262.975 447,281.5C 439.453,304.143 431.12,326.476 422,348.5C 418.199,358.38 415.366,368.38 413.5,378.5C 407.539,390.877 403.039,403.877 400,417.5C 402.789,444.355 400.123,470.688 392,496.5C 382.396,517.264 366.896,523.098 345.5,514C 339.665,511.223 333.999,508.889 328.5,507C 319.979,500.156 310.479,495.323 300,492.5C 296.358,492.713 292.858,493.547 289.5,495C 283.833,498.5 278.167,502 272.5,505.5C 271.914,505.291 271.414,504.957 271,504.5C 258.773,512.868 245.273,517.034 230.5,517C 218.505,514.008 210.672,506.508 207,494.5C 198.697,469.894 196.197,444.727 199.5,419C 196.691,404.736 192.025,391.236 185.5,378.5C 183.732,369.021 181.232,359.688 178,350.5C 169.111,328.72 160.778,306.72 153,284.5C 143.668,255.182 140.335,225.182 143,194.5C 146.072,162.029 159.072,134.362 182,111.5C 184.309,108.548 185.809,105.214 186.5,101.5C 185.518,94.8459 181.851,92.5126 175.5,94.5C 179.025,90.8166 183.025,87.6499 187.5,85C 221.744,67.0826 258.244,58.5826 297,59.5C 332.194,58.5037 366.027,64.6703 398.5,78C 407.875,82.5733 416.542,88.0733 424.5,94.5 Z"/></g>
<g><path style="opacity:1" fill="#363535" d="M 185.5,378.5 C 189.449,428.919 179.616,476.585 156,521.5C 143.708,542.044 128.208,544.878 109.5,530C 91.9565,511.457 77.1232,490.957 65,468.5C 37.1363,419.104 16.803,366.77 4,311.5C 1.74283,298.746 2.07616,286.079 5,273.5C 27.0248,219.947 59.5248,173.781 102.5,135C 124.19,116.82 148.523,103.32 175.5,94.5C 181.851,92.5126 185.518,94.8459 186.5,101.5C 185.809,105.214 184.309,108.548 182,111.5C 159.072,134.362 146.072,162.029 143,194.5C 140.335,225.182 143.668,255.182 153,284.5C 160.778,306.72 169.111,328.72 178,350.5C 181.232,359.688 183.732,369.021 185.5,378.5 Z"/></g>
<g><path style="opacity:1" fill="#363535" d="M 424.5,94.5 C 455.179,104.712 482.179,120.879 505.5,143C 544.079,180.319 573.579,223.819 594,273.5C 597.184,288.471 597.184,303.471 594,318.5C 577.325,384.504 550.325,445.837 513,502.5C 505.582,512.589 497.415,522.089 488.5,531C 469.812,544.904 454.645,541.738 443,521.5C 424.135,483.872 413.635,444.039 411.5,402C 411.416,394.089 412.082,386.256 413.5,378.5C 415.366,368.38 418.199,358.38 422,348.5C 431.12,326.476 439.453,304.143 447,281.5C 452.392,262.975 455.892,244.141 457.5,225C 459.363,195.103 453.196,166.603 439,139.5C 431.435,127.932 423.101,116.932 414,106.5C 411.384,96.6313 414.884,92.6313 424.5,94.5 Z"/></g>
<g><path style="opacity:1" fill="#474747" d="M 216.5,220.5 C 240.694,219.859 252.194,231.526 251,255.5C 245.421,272.066 233.921,279.233 216.5,277C 196.816,269.136 190.649,255.302 198,235.5C 202.567,228.424 208.733,223.424 216.5,220.5 Z"/></g>
<g><path style="opacity:1" fill="#484748" d="M 367.5,222.5 C 389.153,219.845 401.486,229.179 404.5,250.5C 400.799,273.533 387.466,282.367 364.5,277C 347.588,266.595 343.421,252.429 352,234.5C 356.233,229.077 361.4,225.077 367.5,222.5 Z"/></g>
<g><path style="opacity:1" fill="#020303" d="M 216.5,228.5 C 237.297,226.792 246.131,236.126 243,256.5C 238.968,265.778 231.802,270.444 221.5,270.5C 205.632,266.438 199.799,256.438 204,240.5C 206.744,234.921 210.911,230.921 216.5,228.5 Z"/></g>
<g><path style="opacity:1" fill="#020303" d="M 370.5,229.5 C 391.346,229.178 399.513,239.178 395,259.5C 388.772,270.36 379.605,273.86 367.5,270C 358.975,265.462 354.641,258.295 354.5,248.5C 356.294,239.05 361.627,232.717 370.5,229.5 Z"/></g>
<g><path style="opacity:1" fill="#f5f5f5" d="M 227.5,236.5 C 237.525,235.731 240.525,239.898 236.5,249C 227.249,252.416 223.415,249.25 225,239.5C 226.045,238.627 226.878,237.627 227.5,236.5 Z"/></g>
<g><path style="opacity:1" fill="#f3f3f3" d="M 380.5,236.5 C 390.052,236.197 393.052,240.364 389.5,249C 382.864,252.33 378.531,250.497 376.5,243.5C 377.071,240.687 378.404,238.354 380.5,236.5 Z"/></g>
<g><path style="opacity:1" fill="#010202" d="M 297.5,412.5 C 308.641,412.428 319.308,414.595 329.5,419C 341.854,427.918 344.354,439.085 337,452.5C 323.498,469.691 306.332,475.524 285.5,470C 279.749,467.711 274.582,464.545 270,460.5C 269.282,461.451 268.449,461.617 267.5,461C 253.41,447.119 253.077,433.119 266.5,419C 268.607,417.313 270.774,416.813 273,417.5C 281.047,414.591 289.214,412.924 297.5,412.5 Z"/></g>
</svg>
