<?xml version="1.0" encoding="UTF-8"?>
<!DOCTYPE svg PUBLIC "-//W3C//DTD SVG 1.1//EN" "http://www.w3.org/Graphics/SVG/1.1/DTD/svg11.dtd">
<svg xmlns="http://www.w3.org/2000/svg" version="1.1" width="600px" height="600px" style="shape-rendering:geometricPrecision; text-rendering:geometricPrecision; image-rendering:optimizeQuality; fill-rule:evenodd; clip-rule:evenodd" xmlns:xlink="http://www.w3.org/1999/xlink">
<g><path style="opacity:0.978" fill="#030302" d="M 599.5,291.5 C 599.5,292.167 599.5,292.833 599.5,293.5C 593.831,322.536 583.331,349.869 568,375.5C 553.551,401.556 535.384,424.723 513.5,445C 494.203,458.284 475.536,457.284 457.5,442C 450.254,435.259 443.588,428.092 437.5,420.5C 432.938,427.628 429.438,435.295 427,443.5C 423.951,463.129 421.284,482.796 419,502.5C 409.945,531.096 390.778,542.93 361.5,538C 355.224,537.075 349.224,535.241 343.5,532.5C 314.626,544.449 285.792,544.449 257,532.5C 238.408,541.85 219.908,541.683 201.5,532C 192.154,523.816 185.987,513.65 183,501.5C 180.261,483.235 177.927,464.901 176,446.5C 173.821,436.459 169.988,427.125 164.5,418.5C 157.355,427.145 149.688,435.312 141.5,443C 121.824,458.635 102.49,458.301 83.5,442C 45.0003,403.191 18.1669,357.358 3,304.5C 0.656402,294.633 1.32307,284.966 5,275.5C 14.5819,253.948 26.5819,233.948 41,215.5C 69.6273,177.867 101.461,143.033 136.5,111C 151.995,100.497 168.995,93.4974 187.5,90C 223.051,72.3223 260.718,64.1556 300.5,65.5C 338.542,64.1786 374.542,72.012 408.5,89C 429.833,92.3287 449.166,100.329 466.5,113C 511.953,155.094 551.453,201.927 585,253.5C 592.336,265.358 597.169,278.025 599.5,291.5 Z"/></g>
<g><path style="opacity:1" fill="#dfc78f" d="M 347.5,251.5 C 355.033,268.6 368.033,275.766 386.5,273C 394.246,270.412 400.746,266.578 406,261.5C 417.017,242.789 414.184,226.622 397.5,213C 380.324,203.663 365.157,206.163 352,220.5C 349.473,224.221 347.473,228.221 346,232.5C 345.617,231.944 345.117,231.611 344.5,231.5C 341.576,195.713 334.742,160.713 324,126.5C 316.842,110.334 305.009,105.501 288.5,112C 282.385,117.719 277.885,124.553 275,132.5C 265.686,165.572 259.519,199.238 256.5,233.5C 249.184,214.84 235.517,206.34 215.5,208C 190.27,217.626 183.104,234.793 194,259.5C 206.578,275.75 222.078,279.25 240.5,270C 245,266.833 248.833,263 252,258.5C 252.49,259.793 252.657,261.127 252.5,262.5C 251.3,291.361 243.134,318.028 228,342.5C 214.162,361.496 201.829,381.496 191,402.5C 187.98,411.56 184.98,420.56 182,429.5C 178.559,421.452 174.726,413.618 170.5,406C 175.097,397.116 177.597,387.616 178,377.5C 178.558,355.337 176.891,333.337 173,311.5C 166.556,286.059 161.223,260.392 157,234.5C 154.311,209.108 156.311,184.108 163,159.5C 167.727,146.445 175.227,135.278 185.5,126C 193.089,120.622 200.589,115.122 208,109.5C 209.701,107.1 210.534,104.433 210.5,101.5C 210.118,97.8917 209.285,94.5584 208,91.5C 220.364,86.1994 233.197,82.366 246.5,80C 287.801,72.9527 328.801,74.286 369.5,84C 377.505,86.2222 385.172,89.2222 392.5,93C 388.732,98.3391 388.566,103.839 392,109.5C 398.675,114.511 405.508,119.344 412.5,124C 433.827,143.269 444.327,167.436 444,196.5C 445.565,218.413 443.899,240.08 439,261.5C 427.73,301.391 422.73,342.058 424,383.5C 425.188,392.425 427.688,400.925 431.5,409C 426.828,415.684 422.995,422.851 420,430.5C 417.765,421.787 415.098,413.121 412,404.5C 407.667,395.833 403.333,387.167 399,378.5C 383.999,359.182 370.999,338.515 360,316.5C 352.357,295.499 348.19,273.833 347.5,251.5 Z"/></g>
<g><path style="opacity:1" fill="#ab8555" d="M 193.5,98.5 C 195.025,100.036 197.025,101.036 199.5,101.5C 187.67,109.151 176.837,118.151 167,128.5C 153.302,148.261 145.969,170.261 145,194.5C 144.022,211.9 144.688,229.233 147,246.5C 151.744,269.554 156.744,292.554 162,315.5C 167.209,342.14 167.709,368.807 163.5,395.5C 158.548,409.305 150.548,421.138 139.5,431C 135.783,434.385 131.783,437.385 127.5,440C 116.931,446.306 106.597,445.972 96.5,439C 73.8148,419.104 55.3148,395.937 41,369.5C 28.5412,348.124 19.2078,325.458 13,301.5C 12.3333,295.833 12.3333,290.167 13,284.5C 20.4165,264.994 30.4165,246.994 43,230.5C 69.8894,194.596 99.3894,160.762 131.5,129C 149.366,113.234 170.033,103.067 193.5,98.5 Z"/></g>
<g><path style="opacity:1" fill="#ab8555" d="M 404.5,98.5 C 426.953,101.816 446.953,110.649 464.5,125C 507.656,165.79 545.156,210.957 577,260.5C 581.775,268.715 585.442,277.382 588,286.5C 588.663,292.548 588.33,298.548 587,304.5C 573.617,348.615 551.951,387.949 522,422.5C 514.812,429.835 506.979,436.335 498.5,442C 489.029,445.696 480.029,444.696 471.5,439C 457.01,429.021 446.01,416.188 438.5,400.5C 433.177,372.813 433.51,345.147 439.5,317.5C 439.013,316.554 438.68,315.554 438.5,314.5C 445.269,288.09 450.769,261.424 455,234.5C 455.667,219.5 455.667,204.5 455,189.5C 452.984,151.095 435.484,122.428 402.5,103.5C 401.614,102.675 401.281,101.675 401.5,100.5C 403.179,100.715 404.179,100.048 404.5,98.5 Z"/></g>
<g><path style="opacity:1" fill="#beb29a" d="M 305.5,120.5 C 301.766,120.323 298.099,120.656 294.5,121.5C 295.898,119.467 297.898,118.467 300.5,118.5C 302.557,118.436 304.223,119.102 305.5,120.5 Z"/></g>
<g><path style="opacity:1" fill="#f7f4f3" d="M 305.5,120.5 C 306.833,122.5 308.5,124.167 310.5,125.5C 311.675,129.183 313.341,132.516 315.5,135.5C 318.14,140.085 319.806,145.085 320.5,150.5C 321.662,157.154 322.829,163.821 324,170.5C 324.383,171.056 324.883,171.389 325.5,171.5C 327.919,181.679 329.585,192.012 330.5,202.5C 330.614,209.761 331.614,216.761 333.5,223.5C 333.5,223.833 333.5,224.167 333.5,224.5C 333.398,232.772 334.398,240.772 336.5,248.5C 337.36,252.434 337.693,256.434 337.5,260.5C 338.044,271.229 339.211,281.896 341,292.5C 341.383,293.056 341.883,293.389 342.5,293.5C 342.5,293.833 342.5,294.167 342.5,294.5C 342.294,297.495 342.96,300.162 344.5,302.5C 344.171,305.228 344.837,307.562 346.5,309.5C 347.738,311.214 348.405,313.214 348.5,315.5C 348.603,318.636 349.603,321.302 351.5,323.5C 351.182,326.481 352.182,328.815 354.5,330.5C 356.714,336.595 359.714,342.262 363.5,347.5C 363.75,349.674 364.75,351.341 366.5,352.5C 375.001,364.169 383.001,376.169 390.5,388.5C 391.079,391.331 392.412,393.664 394.5,395.5C 395.338,395.842 395.672,396.508 395.5,397.5C 398.205,403.568 400.872,409.568 403.5,415.5C 403.402,417.553 404.069,419.22 405.5,420.5C 405.5,420.833 405.5,421.167 405.5,421.5C 405.721,424.067 406.388,426.401 407.5,428.5C 409.375,433.89 410.375,439.556 410.5,445.5C 410.881,454.498 411.214,463.498 411.5,472.5C 412.665,488.866 408.831,503.866 400,517.5C 392.485,525.17 383.319,528.837 372.5,528.5C 364.886,528.341 357.552,526.841 350.5,524C 337.425,515.934 324.091,508.267 310.5,501C 303.044,498.788 295.711,499.122 288.5,502C 274.402,510.434 260.069,518.434 245.5,526C 218.541,534.275 201.041,525.108 193,498.5C 191.049,492.659 190.216,486.659 190.5,480.5C 190.334,467.149 190.667,453.815 191.5,440.5C 191.5,440.167 191.5,439.833 191.5,439.5C 192.222,439.082 192.722,438.416 193,437.5C 193.737,432.464 194.571,427.464 195.5,422.5C 196.079,417.362 197.746,412.695 200.5,408.5C 203.008,404.818 205.008,400.818 206.5,396.5C 207.079,393.669 208.412,391.336 210.5,389.5C 212.95,387.371 214.617,384.704 215.5,381.5C 217.673,377.148 220.34,373.148 223.5,369.5C 228.489,364.197 232.489,358.197 235.5,351.5C 236.079,348.669 237.412,346.336 239.5,344.5C 241.588,342.664 242.921,340.331 243.5,337.5C 243.328,336.508 243.662,335.842 244.5,335.5C 246.818,333.815 247.818,331.481 247.5,328.5C 247.66,326.847 248.326,325.514 249.5,324.5C 251.885,321.347 253.218,317.68 253.5,313.5C 253.721,310.933 254.388,308.599 255.5,306.5C 257.163,304.562 257.829,302.228 257.5,299.5C 258.117,299.389 258.617,299.056 259,298.5C 260.075,294.23 260.575,289.897 260.5,285.5C 262.104,281.1 262.771,276.434 262.5,271.5C 262.5,270.833 262.5,270.167 262.5,269.5C 264.178,264.432 264.844,259.098 264.5,253.5C 264.5,252.833 264.5,252.167 264.5,251.5C 266.386,243.41 267.386,235.076 267.5,226.5C 267.5,226.167 267.5,225.833 267.5,225.5C 269.468,218.434 270.468,211.1 270.5,203.5C 272.762,197.835 273.762,191.835 273.5,185.5C 273.631,181.048 274.298,176.714 275.5,172.5C 276.117,172.389 276.617,172.056 277,171.5C 278.504,163.487 280.004,155.487 281.5,147.5C 281.595,145.214 282.262,143.214 283.5,141.5C 285.897,138.691 287.23,135.358 287.5,131.5C 288.383,127.039 290.717,123.705 294.5,121.5C 298.099,120.656 301.766,120.323 305.5,120.5 Z"/></g>
<g><path style="opacity:1" fill="#91825f" d="M 305.5,120.5 C 308.167,121.167 309.833,122.833 310.5,125.5C 308.5,124.167 306.833,122.5 305.5,120.5 Z"/></g>
<g><path style="opacity:1" fill="#a29474" d="M 310.5,125.5 C 313.207,128.247 314.873,131.58 315.5,135.5C 313.341,132.516 311.675,129.183 310.5,125.5 Z"/></g>
<g><path style="opacity:1" fill="#c3b7a1" d="M 287.5,131.5 C 287.23,135.358 285.897,138.691 283.5,141.5C 283.872,137.703 285.206,134.37 287.5,131.5 Z"/></g>
<g><path style="opacity:1" fill="#b5a78c" d="M 320.5,150.5 C 322.926,157.207 324.592,164.207 325.5,171.5C 324.883,171.389 324.383,171.056 324,170.5C 322.829,163.821 321.662,157.154 320.5,150.5 Z"/></g>
<g><path style="opacity:1" fill="#b5a78b" d="M 281.5,147.5 C 280.004,155.487 278.504,163.487 277,171.5C 276.617,172.056 276.117,172.389 275.5,172.5C 276.741,163.873 278.741,155.54 281.5,147.5 Z"/></g>
<g><path style="opacity:1" fill="#c5b9a1" d="M 273.5,185.5 C 273.762,191.835 272.762,197.835 270.5,203.5C 270.771,197.25 271.771,191.25 273.5,185.5 Z"/></g>
<g><path style="opacity:1" fill="#ab8556" d="M 256.5,233.5 C 255.227,243.27 253.893,252.937 252.5,262.5C 252.657,261.127 252.49,259.793 252,258.5C 248.833,263 245,266.833 240.5,270C 222.078,279.25 206.578,275.75 194,259.5C 183.104,234.793 190.27,217.626 215.5,208C 235.517,206.34 249.184,214.84 256.5,233.5 Z"/></g>
<g><path style="opacity:1" fill="#aa8555" d="M 347.5,251.5 C 346.502,244.861 345.502,238.194 344.5,231.5C 345.117,231.611 345.617,231.944 346,232.5C 347.473,228.221 349.473,224.221 352,220.5C 365.157,206.163 380.324,203.663 397.5,213C 414.184,226.622 417.017,242.789 406,261.5C 400.746,266.578 394.246,270.412 386.5,273C 368.033,275.766 355.033,268.6 347.5,251.5 Z"/></g>
<g><path style="opacity:1" fill="#b9ac90" d="M 330.5,202.5 C 332.135,209.276 333.135,216.276 333.5,223.5C 331.614,216.761 330.614,209.761 330.5,202.5 Z"/></g>
<g><path style="opacity:1" fill="#302825" d="M 217.5,218.5 C 239.931,219.071 248.431,230.071 243,251.5C 235.768,262.865 225.601,266.365 212.5,262C 202.41,256.102 198.243,247.269 200,235.5C 203.144,226.853 208.977,221.187 217.5,218.5 Z"/></g>
<g><path style="opacity:1" fill="#2f2725" d="M 373.5,218.5 C 392.705,218.203 401.871,227.536 401,246.5C 396.173,260.669 386.34,266.169 371.5,263C 357.887,256.512 353.387,246.012 358,231.5C 361.818,225.512 366.984,221.179 373.5,218.5 Z"/></g>
<g><path style="opacity:1" fill="#baac91" d="M 270.5,203.5 C 270.468,211.1 269.468,218.434 267.5,225.5C 267.959,217.958 268.959,210.625 270.5,203.5 Z"/></g>
<g><path style="opacity:1" fill="#f0f0f0" d="M 385.5,228.5 C 394.244,228.413 396.577,232.246 392.5,240C 385.388,242.554 381.888,240.054 382,232.5C 383.032,230.973 384.199,229.64 385.5,228.5 Z"/></g>
<g><path style="opacity:1" fill="#f5f5f5" d="M 224.5,228.5 C 233.306,228.464 235.639,232.297 231.5,240C 225.461,243.132 222.128,241.298 221.5,234.5C 221.628,232.045 222.628,230.045 224.5,228.5 Z"/></g>
<g><path style="opacity:1" fill="#b3a589" d="M 333.5,224.5 C 334.975,232.302 335.975,240.302 336.5,248.5C 334.398,240.772 333.398,232.772 333.5,224.5 Z"/></g>
<g><path style="opacity:1" fill="#ae9f82" d="M 267.5,226.5 C 267.386,235.076 266.386,243.41 264.5,251.5C 264.943,242.961 265.943,234.628 267.5,226.5 Z"/></g>
<g><path style="opacity:1" fill="#b8aa8f" d="M 264.5,253.5 C 264.844,259.098 264.178,264.432 262.5,269.5C 262.668,263.966 263.335,258.633 264.5,253.5 Z"/></g>
<g><path style="opacity:1" fill="#b2a386" d="M 262.5,271.5 C 262.771,276.434 262.104,281.1 260.5,285.5C 260.69,280.63 261.356,275.964 262.5,271.5 Z"/></g>
<g><path style="opacity:1" fill="#c1aa78" d="M 193.5,98.5 C 195.861,98.6741 198.194,99.0074 200.5,99.5C 200.657,100.873 200.49,102.207 200,103.5C 169.641,120.221 152.308,145.888 148,180.5C 143.927,209.081 145.26,237.414 152,265.5C 159.054,290.772 164.054,316.439 167,342.5C 168.542,358.049 168.375,373.549 166.5,389C 166.456,391.801 165.456,393.968 163.5,395.5C 167.709,368.807 167.209,342.14 162,315.5C 156.744,292.554 151.744,269.554 147,246.5C 144.688,229.233 144.022,211.9 145,194.5C 145.969,170.261 153.302,148.261 167,128.5C 176.837,118.151 187.67,109.151 199.5,101.5C 197.025,101.036 195.025,100.036 193.5,98.5 Z"/></g>
<g><path style="opacity:1" fill="#b7ab95" d="M 337.5,260.5 C 339.084,271.379 340.751,282.379 342.5,293.5C 341.883,293.389 341.383,293.056 341,292.5C 339.211,281.896 338.044,271.229 337.5,260.5 Z"/></g>
<g><path style="opacity:1" fill="#c6baa5" d="M 260.5,285.5 C 260.575,289.897 260.075,294.23 259,298.5C 258.617,299.056 258.117,299.389 257.5,299.5C 258.01,294.609 259.01,289.942 260.5,285.5 Z"/></g>
<g><path style="opacity:1" fill="#95876a" d="M 342.5,294.5 C 343.768,296.905 344.435,299.572 344.5,302.5C 342.96,300.162 342.294,297.495 342.5,294.5 Z"/></g>
<g><path style="opacity:1" fill="#c2aa79" d="M 404.5,98.5 C 404.179,100.048 403.179,100.715 401.5,100.5C 401.281,101.675 401.614,102.675 402.5,103.5C 435.484,122.428 452.984,151.095 455,189.5C 455.667,204.5 455.667,219.5 455,234.5C 450.769,261.424 445.269,288.09 438.5,314.5C 438.68,315.554 439.013,316.554 439.5,317.5C 433.51,345.147 433.177,372.813 438.5,400.5C 436.245,395.155 434.745,389.488 434,383.5C 432.919,342.737 437.919,302.737 449,263.5C 455.887,231.557 456.221,199.557 450,167.5C 443.515,139.03 427.348,118.197 401.5,105C 399.845,103.556 399.178,101.722 399.5,99.5C 401.216,99.3713 402.883,99.038 404.5,98.5 Z"/></g>
<g><path style="opacity:1" fill="#ab9d7f" d="M 257.5,299.5 C 257.829,302.228 257.163,304.562 255.5,306.5C 255.721,303.933 256.388,301.599 257.5,299.5 Z"/></g>
<g><path style="opacity:1" fill="#aa9d83" d="M 344.5,302.5 C 345.924,304.515 346.59,306.848 346.5,309.5C 344.837,307.562 344.171,305.228 344.5,302.5 Z"/></g>
<g><path style="opacity:1" fill="#ae8a5c" d="M 314.5,314.5 C 316.39,314.297 317.89,314.963 319,316.5C 321.835,321.343 322.168,326.343 320,331.5C 317.667,334.167 315.333,334.167 313,331.5C 309.412,325.453 309.912,319.786 314.5,314.5 Z"/></g>
<g><path style="opacity:1" fill="#b8ab91" d="M 253.5,313.5 C 253.218,317.68 251.885,321.347 249.5,324.5C 250.065,320.463 251.399,316.797 253.5,313.5 Z"/></g>
<g><path style="opacity:1" fill="#a99d83" d="M 348.5,315.5 C 350.267,317.792 351.267,320.458 351.5,323.5C 349.603,321.302 348.603,318.636 348.5,315.5 Z"/></g>
<g><path style="opacity:1" fill="#95886b" d="M 351.5,323.5 C 353.293,325.426 354.293,327.759 354.5,330.5C 352.182,328.815 351.182,326.481 351.5,323.5 Z"/></g>
<g><path style="opacity:1" fill="#a09172" d="M 247.5,328.5 C 247.818,331.481 246.818,333.815 244.5,335.5C 244.707,332.759 245.707,330.426 247.5,328.5 Z"/></g>
<g><path style="opacity:1" fill="#988867" d="M 243.5,337.5 C 242.921,340.331 241.588,342.664 239.5,344.5C 240.079,341.669 241.412,339.336 243.5,337.5 Z"/></g>
<g><path style="opacity:1" fill="#897c5c" d="M 363.5,347.5 C 365.25,348.659 366.25,350.326 366.5,352.5C 364.75,351.341 363.75,349.674 363.5,347.5 Z"/></g>
<g><path style="opacity:1" fill="#9c8e6d" d="M 235.5,351.5 C 232.489,358.197 228.489,364.197 223.5,369.5C 227.007,363.148 231.007,357.148 235.5,351.5 Z"/></g>
<g><path style="opacity:1" fill="#9d8e6d" d="M 215.5,381.5 C 214.617,384.704 212.95,387.371 210.5,389.5C 211.383,386.296 213.05,383.629 215.5,381.5 Z"/></g>
<g><path style="opacity:1" fill="#938d7f" d="M 390.5,388.5 C 392.588,390.336 393.921,392.669 394.5,395.5C 392.412,393.664 391.079,391.331 390.5,388.5 Z"/></g>
<g><path style="opacity:1" fill="#958663" d="M 206.5,396.5 C 205.008,400.818 203.008,404.818 200.5,408.5C 201.46,403.914 203.46,399.914 206.5,396.5 Z"/></g>
<g><path style="opacity:1" fill="#4d4031" d="M 311.5,410.5 C 301.476,410.334 291.476,410.668 281.5,411.5C 287.084,409.966 292.917,409.299 299,409.5C 303.347,409.501 307.514,409.834 311.5,410.5 Z"/></g>
<g><path style="opacity:1" fill="#080604" d="M 311.5,410.5 C 320.376,411.016 328.709,413.349 336.5,417.5C 338.454,420.067 340.287,422.734 342,425.5C 342.816,426.823 343.983,427.489 345.5,427.5C 346.833,436.167 346.833,444.833 345.5,453.5C 345.34,455.153 344.674,456.486 343.5,457.5C 338.806,460.861 334.806,464.861 331.5,469.5C 327.355,470.344 324.022,472.344 321.5,475.5C 319.304,476.812 316.97,477.979 314.5,479C 312.866,479.494 311.199,479.66 309.5,479.5C 302.505,480.779 295.505,480.779 288.5,479.5C 287.01,477.72 285.01,477.054 282.5,477.5C 269.359,473.014 259.692,464.681 253.5,452.5C 252.249,444.488 252.249,436.488 253.5,428.5C 257.167,424.167 261.167,420.167 265.5,416.5C 270.257,413.305 275.591,411.639 281.5,411.5C 291.476,410.668 301.476,410.334 311.5,410.5 Z"/></g>
<g><path style="opacity:1" fill="#5c5547" d="M 395.5,397.5 C 397.384,397.712 398.717,398.712 399.5,400.5C 401.151,405.452 402.484,410.452 403.5,415.5C 400.872,409.568 398.205,403.568 395.5,397.5 Z"/></g>
<g><path style="opacity:1" fill="#ad8859" d="M 225.5,411.5 C 231.156,411.867 232.989,414.867 231,420.5C 228,425.833 225,431.167 222,436.5C 218.613,438.318 216.613,437.318 216,433.5C 215.201,424.379 218.368,417.046 225.5,411.5 Z"/></g>
<g><path style="opacity:1" fill="#b18d60" d="M 360.5,416.5 C 367.426,416.905 371.926,420.572 374,427.5C 374.789,431.091 374.622,434.591 373.5,438C 369.525,439.379 366.691,438.213 365,434.5C 363.333,430.5 361.667,426.5 360,422.5C 359.51,420.455 359.677,418.455 360.5,416.5 Z"/></g>
<g><path style="opacity:1" fill="#6e6756" d="M 403.5,415.5 C 405.256,416.552 405.923,418.219 405.5,420.5C 404.069,419.22 403.402,417.553 403.5,415.5 Z"/></g>
<g><path style="opacity:1" fill="#a98454" d="M 290.5,419.5 C 303.01,418.222 315.01,420.055 326.5,425C 330.369,428.534 333.869,432.367 337,436.5C 338.111,441.611 337.111,446.278 334,450.5C 324.922,461.398 313.422,468.398 299.5,471.5C 286.578,468.626 275.745,462.293 267,452.5C 263.107,447.823 261.44,442.49 262,436.5C 268.97,426.467 278.47,420.801 290.5,419.5 Z"/></g>
<g><path style="opacity:1" fill="#453625" d="M 265.5,416.5 C 261.167,420.167 257.167,424.167 253.5,428.5C 255.833,422.833 259.833,418.833 265.5,416.5 Z"/></g>
<g><path style="opacity:1" fill="#4f4335" d="M 336.5,417.5 C 340.918,419.583 343.918,422.916 345.5,427.5C 343.983,427.489 342.816,426.823 342,425.5C 340.287,422.734 338.454,420.067 336.5,417.5 Z"/></g>
<g><path style="opacity:1" fill="#8f887a" d="M 405.5,421.5 C 407.344,423.279 408.01,425.612 407.5,428.5C 406.388,426.401 405.721,424.067 405.5,421.5 Z"/></g>
<g><path style="opacity:1" fill="#4e402e" d="M 345.5,427.5 C 346.966,428.347 347.8,429.68 348,431.5C 348.667,436.833 348.667,442.167 348,447.5C 347.76,449.852 346.927,451.852 345.5,453.5C 346.833,444.833 346.833,436.167 345.5,427.5 Z"/></g>
<g><path style="opacity:1" fill="#4e4030" d="M 253.5,428.5 C 252.249,436.488 252.249,444.488 253.5,452.5C 250.665,446.571 249.831,440.238 251,433.5C 251.374,431.509 252.207,429.842 253.5,428.5 Z"/></g>
<g><path style="opacity:1" fill="#beb197" d="M 195.5,422.5 C 194.571,427.464 193.737,432.464 193,437.5C 192.722,438.416 192.222,439.082 191.5,439.5C 191.833,433.484 193.166,427.817 195.5,422.5 Z"/></g>
<g><path style="opacity:1" fill="#c8c1b6" d="M 410.5,445.5 C 412.439,454.46 412.773,463.46 411.5,472.5C 411.214,463.498 410.881,454.498 410.5,445.5 Z"/></g>
<g><path style="opacity:1" fill="#4b3f31" d="M 343.5,457.5 C 340.5,462.5 336.5,466.5 331.5,469.5C 334.806,464.861 338.806,460.861 343.5,457.5 Z"/></g>
<g><path style="opacity:1" fill="#c1b7a4" d="M 191.5,440.5 C 190.667,453.815 190.334,467.149 190.5,480.5C 189.834,475.177 189.501,469.677 189.5,464C 189.307,455.94 189.973,448.107 191.5,440.5 Z"/></g>
<g><path style="opacity:1" fill="#af8b5d" d="M 372.5,468.5 C 379.363,469.527 383.53,473.527 385,480.5C 385.726,485.239 385.393,489.905 384,494.5C 381.79,497.29 378.956,498.123 375.5,497C 372.111,490.783 370.111,484.116 369.5,477C 369.822,473.852 370.822,471.019 372.5,468.5 Z"/></g>
<g><path style="opacity:1" fill="#524638" d="M 331.5,469.5 C 328.506,472 325.173,474 321.5,475.5C 324.022,472.344 327.355,470.344 331.5,469.5 Z"/></g>
<g><path style="opacity:1" fill="#5d5145" d="M 282.5,477.5 C 285.01,477.054 287.01,477.72 288.5,479.5C 286.102,479.741 284.102,479.074 282.5,477.5 Z"/></g>
<g><path style="opacity:1" fill="#4d4338" d="M 288.5,479.5 C 295.505,480.779 302.505,480.779 309.5,479.5C 309.082,480.222 308.416,480.722 307.5,481C 305,481.167 302.5,481.333 300,481.5C 295.888,481.651 292.054,480.984 288.5,479.5 Z"/></g>
<g><path style="opacity:1" fill="#b18e61" d="M 239.5,483.5 C 243.07,483.901 245.236,485.901 246,489.5C 246.667,492.833 246.667,496.167 246,499.5C 245.653,501.18 244.653,502.18 243,502.5C 237.076,498.88 234.743,493.547 236,486.5C 237.145,485.364 238.312,484.364 239.5,483.5 Z"/></g>
<g><path style="opacity:1" fill="#b18d60" d="M 342.5,487.5 C 352.7,487.297 355.2,491.63 350,500.5C 343.398,506.8 339.565,505.467 338.5,496.5C 338.488,492.861 339.821,489.861 342.5,487.5 Z"/></g>
<g><path style="opacity:1" fill="#665132" d="M 298.5,509.5 C 299.873,509.343 301.207,509.51 302.5,510C 309.155,512.993 315.488,516.493 321.5,520.5C 321.949,523.044 321.949,525.71 321.5,528.5C 306.824,531.141 292.157,531.141 277.5,528.5C 277.244,526.208 277.577,524.041 278.5,522C 284.808,517.179 291.475,513.012 298.5,509.5 Z"/></g>
</svg>
