<?xml version="1.0" encoding="UTF-8"?>
<!DOCTYPE svg PUBLIC "-//W3C//DTD SVG 1.1//EN" "http://www.w3.org/Graphics/SVG/1.1/DTD/svg11.dtd">
<svg xmlns="http://www.w3.org/2000/svg" version="1.1" width="600px" height="600px" style="shape-rendering:geometricPrecision; text-rendering:geometricPrecision; image-rendering:optimizeQuality; fill-rule:evenodd; clip-rule:evenodd" xmlns:xlink="http://www.w3.org/1999/xlink">
<g><path style="opacity:0.986" fill="#040303" d="M 296.5,8.5 C 307.107,8.77422 313.44,14.1076 315.5,24.5C 318.106,25.6517 320.773,25.8184 323.5,25C 335.539,16.3253 348.873,12.6586 363.5,14C 371.473,17.9567 373.473,23.9567 369.5,32C 386.063,30.4047 402.397,31.738 418.5,36C 426.374,38.9366 429.708,44.4366 428.5,52.5C 436.928,53.4187 445.261,54.9187 453.5,57C 465.18,60.2007 469.014,67.3673 465,78.5C 464.167,79.3333 463.333,80.1667 462.5,81C 472.564,84.8654 482.23,89.532 491.5,95C 500.155,101.542 501.155,108.875 494.5,117C 505.564,124.064 515.398,132.564 524,142.5C 526.948,149.398 525.448,155.064 519.5,159.5C 527.538,167.258 534.372,175.925 540,185.5C 542.018,189.438 541.851,193.272 539.5,197C 541.529,202.286 542.695,207.786 543,213.5C 548.667,226.167 554.333,238.833 560,251.5C 563.367,261.573 565.367,271.906 566,282.5C 571.328,294.816 575.661,307.482 579,320.5C 579.237,328.177 579.237,335.844 579,343.5C 581.436,357.847 583.936,372.18 586.5,386.5C 583.068,403.623 581.234,420.956 581,438.5C 580.514,447.473 576.847,454.806 570,460.5C 566.333,469.5 562.667,478.5 559,487.5C 555.381,495.447 549.214,499.947 540.5,501C 538.82,501.347 537.82,502.347 537.5,504C 542,514.833 546.5,525.667 551,536.5C 551.198,547.969 545.698,552.469 534.5,550C 520.701,543.355 508.201,534.855 497,524.5C 499.36,537.608 502.526,550.608 506.5,563.5C 504.307,572.857 498.64,576.024 489.5,573C 484.313,568.811 479.48,564.311 475,559.5C 476.055,566.022 477.555,572.522 479.5,579C 477.245,589.421 471.245,592.421 461.5,588C 454.635,581.469 448.135,574.636 442,567.5C 439.657,578.339 433.657,581.339 424,576.5C 424.699,584.384 421.032,589.05 413,590.5C 409.823,590.109 406.99,588.943 404.5,587C 401.216,583.595 398.05,580.095 395,576.5C 390.07,581.445 384.57,582.278 378.5,579C 374.975,575.443 371.809,571.61 369,567.5C 365.513,575.491 359.679,580.824 351.5,583.5C 342.856,581.237 338.856,575.571 339.5,566.5C 337.173,566.665 335.007,567.331 333,568.5C 330.828,574.869 327.995,580.869 324.5,586.5C 317.361,592.09 310.861,591.424 305,584.5C 303.268,579.65 302.268,574.65 302,569.5C 299.959,568.577 297.792,568.244 295.5,568.5C 295.662,575.766 293.662,582.266 289.5,588C 283.021,591.704 277.187,590.871 272,585.5C 269.092,580.449 266.758,575.116 265,569.5C 263.266,567.549 261.099,566.549 258.5,566.5C 257.621,581.251 250.621,585.751 237.5,580C 233.919,576.252 230.919,572.085 228.5,567.5C 225.363,572.137 221.696,576.304 217.5,580C 211.737,582.143 206.737,580.976 202.5,576.5C 199.043,580.458 195.377,584.292 191.5,588C 180.038,592.889 173.872,589.056 173,576.5C 166.87,580.474 161.536,579.474 157,573.5C 156.784,571.616 156.117,569.949 155,568.5C 149.532,574.969 143.699,581.136 137.5,587C 132.396,591.035 127.063,591.368 121.5,588C 119.27,585.434 117.936,582.434 117.5,579C 119.574,572.46 121.407,565.96 123,559.5C 117.958,565.888 111.791,570.721 104.5,574C 96.3062,574.644 91.9729,570.811 91.5,562.5C 95.1437,550.265 97.977,537.932 100,525.5C 87.4808,536.851 73.3141,545.518 57.5,551.5C 50.2762,550.443 46.2762,546.276 45.5,539C 50.3559,526.786 55.3559,514.62 60.5,502.5C 52.8813,501.274 46.7146,497.607 42,491.5C 37.0912,481.782 32.7578,471.782 29,461.5C 25.6153,457.783 22.6153,453.783 20,449.5C 18.5235,444.594 17.5235,439.594 17,434.5C 16.6667,425.5 16.3333,416.5 16,407.5C 14.3533,400.58 13.1866,393.58 12.5,386.5C 13.956,373.719 16.1227,361.052 19,348.5C 19.7209,341.477 19.5542,334.477 18.5,327.5C 19,324.5 19.5,321.5 20,318.5C 23.734,305.632 28.0673,292.965 33,280.5C 33.3746,270.164 35.3746,260.164 39,250.5C 44.0594,238.714 49.3928,227.047 55,215.5C 55.9235,209.772 57.0901,204.105 58.5,198.5C 56.6088,195.038 56.1088,191.372 57,187.5C 58.5557,182.72 60.8891,178.387 64,174.5C 68.5,169.5 73,164.5 77.5,159.5C 71.2704,154.518 70.1037,148.518 74,141.5C 82.3696,131.566 92.2029,123.399 103.5,117C 97.4733,111.324 96.9733,105.158 102,98.5C 104.074,96.5479 106.241,94.7146 108.5,93C 117.167,89 125.833,85 134.5,81C 128.737,73.4316 129.403,66.4316 136.5,60C 147.215,56.1021 158.215,53.2688 169.5,51.5C 167.697,44.7677 170.03,39.9344 176.5,37C 193.205,31.9796 210.205,30.1463 227.5,31.5C 224.069,20.3896 228.236,14.0562 240,12.5C 252.457,14.0961 263.957,18.2628 274.5,25C 276.833,25.6667 279.167,25.6667 281.5,25C 283.227,16.2893 288.227,10.7893 296.5,8.5 Z"/></g>
<g><path style="opacity:1" fill="#e1d4c7" d="M 539.5,240.5 C 538.448,240.649 537.448,240.483 536.5,240C 534.63,237.96 532.63,236.127 530.5,234.5C 528.947,232.615 526.947,231.615 524.5,231.5C 525.591,241.223 527.091,250.889 529,260.5C 532.39,269.614 536.057,278.614 540,287.5C 541.703,291.282 541.703,294.948 540,298.5C 536.687,296.021 533.52,293.355 530.5,290.5C 529.335,299.816 529.168,309.149 530,318.5C 531.667,328.502 533.334,338.502 535,348.5C 535.667,354.833 535.667,361.167 535,367.5C 534.282,368.451 533.449,368.617 532.5,368C 529.907,365.234 527.907,362.067 526.5,358.5C 525.726,357.289 524.893,357.289 524,358.5C 519.956,375.104 519.623,391.771 523,408.5C 523.667,413.833 523.667,419.167 523,424.5C 522.395,426.481 521.395,426.815 520,425.5C 517.96,419.846 515.46,414.512 512.5,409.5C 509.041,416.046 506.875,423.046 506,430.5C 502.282,411.321 499.615,391.988 498,372.5C 496.833,342.174 495.833,311.841 495,281.5C 494.43,263.785 493.263,246.119 491.5,228.5C 491.247,224.96 490.581,221.627 489.5,218.5C 486.221,188.289 474.554,161.956 454.5,139.5C 451.564,134.895 447.898,130.895 443.5,127.5C 420.796,108.256 394.463,97.5895 364.5,95.5C 364.44,94.9569 364.107,94.6236 363.5,94.5C 362.673,98.4592 362.173,102.459 362,106.5C 360.487,110.188 358.987,113.855 357.5,117.5C 357.262,119.404 356.262,120.738 354.5,121.5C 350.167,125.167 346.167,129.167 342.5,133.5C 341.5,135.167 340.167,136.5 338.5,137.5C 334.043,140.418 331.043,144.418 329.5,149.5C 323.757,156.385 320.757,164.385 320.5,173.5C 319.222,181.039 319.388,188.705 321,196.5C 321.383,197.056 321.883,197.389 322.5,197.5C 323.871,199.936 324.871,202.603 325.5,205.5C 325.845,208.198 327.178,210.198 329.5,211.5C 330.08,213.749 331.413,215.415 333.5,216.5C 335.094,219.764 337.427,222.431 340.5,224.5C 341.075,226.411 342.075,228.078 343.5,229.5C 328.199,228.015 313.199,229.682 298.5,234.5C 289.563,232.354 280.563,230.521 271.5,229C 265.13,228.294 258.797,228.461 252.5,229.5C 254.909,227.098 256.909,224.431 258.5,221.5C 266.29,215.569 271.29,207.902 273.5,198.5C 274.117,198.389 274.617,198.056 275,197.5C 276.464,188.88 276.798,180.213 276,171.5C 275.721,168.543 274.887,165.877 273.5,163.5C 271.935,161.491 270.935,159.157 270.5,156.5C 270.539,153.911 269.539,151.911 267.5,150.5C 265.674,148.853 264.34,146.853 263.5,144.5C 262.92,142.251 261.587,140.585 259.5,139.5C 257.5,135.5 254.5,132.5 250.5,130.5C 246.805,126.474 243.138,122.474 239.5,118.5C 237.19,115.898 235.357,112.898 234,109.5C 233.098,104.706 232.265,100.039 231.5,95.5C 223.851,95.773 216.518,97.1063 209.5,99.5C 173.118,107.779 145.618,128.112 127,160.5C 111.993,188.201 104.326,217.868 104,249.5C 102.324,285.82 100.99,322.154 100,358.5C 99.0853,376.225 97.5853,393.892 95.5,411.5C 93.7635,416.911 92.7635,422.578 92.5,428.5C 91.5084,428.672 90.8417,428.338 90.5,427.5C 90.4159,423.163 89.4159,419.163 87.5,415.5C 87.5531,412.939 86.5531,410.939 84.5,409.5C 81.7859,414.633 79.4526,419.967 77.5,425.5C 76.675,426.386 75.675,426.719 74.5,426.5C 74.411,412.791 75.0777,399.124 76.5,385.5C 76.5412,377.08 75.7079,368.747 74,360.5C 73.5814,359.328 72.9147,358.328 72,357.5C 69.7095,361.619 66.8762,365.286 63.5,368.5C 62.8076,367.975 62.3076,367.308 62,366.5C 61.9767,350.302 63.8101,334.302 67.5,318.5C 68.4936,309.348 68.8269,300.015 68.5,290.5C 64.8689,291.608 61.8689,293.774 59.5,297C 58.552,297.483 57.552,297.649 56.5,297.5C 56.5,296.167 56.5,294.833 56.5,293.5C 56.8143,290.053 57.6476,286.72 59,283.5C 67.9038,267.221 72.0705,249.888 71.5,231.5C 67.5,234.5 63.5,237.5 59.5,240.5C 58.359,238.579 58.1923,236.579 59,234.5C 63.6487,224.533 69.3154,215.2 76,206.5C 79.0383,200.096 81.205,193.43 82.5,186.5C 77.1213,188.529 71.788,190.529 66.5,192.5C 67.176,188.813 68.676,185.48 71,182.5C 78.3333,174.5 85.6667,166.5 93,158.5C 95.9882,154.192 98.1549,149.525 99.5,144.5C 93.8998,146.471 88.2331,148.138 82.5,149.5C 84.1195,145.358 86.7862,141.858 90.5,139C 97.3239,133.755 104.324,128.755 111.5,124C 116.774,119.565 121.107,114.398 124.5,108.5C 119.167,108.167 113.833,107.833 108.5,107.5C 109.648,105.851 110.981,104.351 112.5,103C 123.347,97.4103 134.347,92.077 145.5,87C 150.454,83.7147 155.12,80.048 159.5,76C 154.008,74.7137 148.341,74.047 142.5,74C 139.936,71.724 140.27,69.724 143.5,68C 156.255,64.4459 169.255,62.1126 182.5,61C 204.228,54.0955 203.562,50.4289 180.5,50C 179.269,48.8173 179.269,47.6507 180.5,46.5C 184.702,44.8661 189.035,43.6995 193.5,43C 207.833,42.6667 222.167,42.3333 236.5,42C 240.5,41.3333 244.5,40.6667 248.5,40C 250.158,39.2747 250.658,38.108 250,36.5C 246.588,33.8773 243.088,31.3773 239.5,29C 237.393,27.7365 236.393,25.9032 236.5,23.5C 249.783,23.9751 261.783,28.1418 272.5,36C 277.891,36.6919 283.225,36.3585 288.5,35C 290.513,30.6424 292.346,26.1424 294,21.5C 297.619,18.6572 300.952,18.9905 304,22.5C 306.045,36.111 313.545,40.2777 326.5,35C 336.498,27.1117 347.831,23.445 360.5,24C 361.28,25.073 361.113,26.2396 360,27.5C 355.821,30.2567 351.821,33.2567 348,36.5C 347.316,37.7839 347.483,38.9505 348.5,40C 355.722,41.8147 363.055,42.648 370.5,42.5C 385.736,40.6307 400.736,41.7974 415.5,46C 417.904,46.5079 418.571,47.6745 417.5,49.5C 411.839,50.243 406.172,51.0763 400.5,52C 399.044,52.4226 398.544,53.2559 399,54.5C 403.987,57.0525 409.154,59.2192 414.5,61C 423.824,62.3328 433.157,63.6661 442.5,65C 447.021,65.7293 451.354,67.0626 455.5,69C 456.991,71.0217 456.658,72.6883 454.5,74C 449.177,74.4994 443.844,74.666 438.5,74.5C 438.297,76.3904 438.963,77.8904 440.5,79C 444.344,81.422 448.01,84.0887 451.5,87C 462.167,92 472.833,97 483.5,102C 485.651,103.405 487.318,105.239 488.5,107.5C 483.142,108.091 477.808,108.424 472.5,108.5C 476.311,113.479 480.311,118.312 484.5,123C 496.167,129.83 506.501,138.33 515.5,148.5C 514.5,148.833 513.5,149.167 512.5,149.5C 508.626,148.565 504.96,147.065 501.5,145C 500.056,144.219 498.723,144.386 497.5,145.5C 499.731,150.294 502.231,154.961 505,159.5C 512.333,167.5 519.667,175.5 527,183.5C 529.287,186.072 530.453,189.072 530.5,192.5C 525.167,190.5 519.833,188.5 514.5,186.5C 515.827,192.314 517.66,197.981 520,203.5C 525.667,212.5 531.333,221.5 537,230.5C 538.352,233.72 539.186,237.053 539.5,240.5 Z"/></g>
<g><path style="opacity:1" fill="#4f4439" d="M 231.5,95.5 C 224.367,97.2462 217.034,98.5796 209.5,99.5C 216.518,97.1063 223.851,95.773 231.5,95.5 Z"/></g>
<g><path style="opacity:1" fill="#998978" d="M 113.5,350.5 C 112.836,347.854 112.502,345.021 112.5,342C 114.196,315.179 115.696,288.346 117,261.5C 118.569,234.178 123.569,207.511 132,181.5C 135.805,171.222 140.639,161.556 146.5,152.5C 158.625,135.745 174.292,123.245 193.5,115C 203.135,111.342 212.968,108.509 223,106.5C 224.914,113.661 227.914,120.328 232,126.5C 237.667,133.5 244,139.833 251,145.5C 266.173,162.034 269.506,180.7 261,201.5C 247.113,192.783 239.447,179.783 238,162.5C 237.333,161.167 236.333,160.167 235,159.5C 233.369,161.059 232.536,163.059 232.5,165.5C 233.102,170.342 233.768,175.175 234.5,180C 234.671,183.129 233.838,185.963 232,188.5C 220.866,202.304 207.866,213.97 193,223.5C 192.506,225.134 192.34,226.801 192.5,228.5C 198.586,227.284 203.92,224.451 208.5,220C 210.717,218.725 213.051,217.725 215.5,217C 228.441,215.473 240.941,212.306 253,207.5C 253.833,207.833 254.667,208.167 255.5,208.5C 250.687,214.481 245.687,220.314 240.5,226C 194.552,237.298 159.385,263.131 135,303.5C 126.195,318.442 119.028,334.109 113.5,350.5 Z"/></g>
<g><path style="opacity:1" fill="#9a8a78" d="M 463.5,171.5 C 470.231,191.654 474.731,212.321 477,233.5C 479.901,268.282 482.067,303.116 483.5,338C 483.498,341.021 483.164,343.854 482.5,346.5C 468.729,305.771 444.396,272.938 409.5,248C 393.123,237.648 375.457,230.314 356.5,226C 350.932,220.188 345.599,214.188 340.5,208C 346.196,207.672 351.529,209.006 356.5,212C 364.73,214.179 373.063,215.846 381.5,217C 388.135,219.65 394.135,223.316 399.5,228C 406.022,228.768 407.022,226.768 402.5,222C 388.497,213.336 376.33,202.503 366,189.5C 364.266,186.702 363.099,183.702 362.5,180.5C 364.059,174.22 364.892,167.886 365,161.5C 363.759,159.579 362.259,159.246 360.5,160.5C 358.158,177.357 350.491,191.191 337.5,202C 335.887,202.089 334.72,201.255 334,199.5C 328.278,184.165 329.611,169.499 338,155.5C 340.615,151.217 343.615,147.217 347,143.5C 359.893,133.796 369.06,121.463 374.5,106.5C 414.75,114.137 444.417,135.803 463.5,171.5 Z"/></g>
<g><path style="opacity:1" fill="#827668" d="M 364.5,95.5 C 363.676,99.3123 363.176,103.312 363,107.5C 361.914,111.346 360.081,114.68 357.5,117.5C 358.987,113.855 360.487,110.188 362,106.5C 362.173,102.459 362.673,98.4592 363.5,94.5C 364.107,94.6236 364.44,94.9569 364.5,95.5 Z"/></g>
<g><path style="opacity:1" fill="#786c5e" d="M 239.5,118.5 C 243.138,122.474 246.805,126.474 250.5,130.5C 245.444,127.777 241.777,123.777 239.5,118.5 Z"/></g>
<g><path style="opacity:1" fill="#776b5d" d="M 354.5,121.5 C 351.5,126.5 347.5,130.5 342.5,133.5C 346.167,129.167 350.167,125.167 354.5,121.5 Z"/></g>
<g><path style="opacity:1" fill="#433a2f" d="M 443.5,127.5 C 447.898,130.895 451.564,134.895 454.5,139.5C 450.102,136.105 446.436,132.105 443.5,127.5 Z"/></g>
<g><path style="opacity:1" fill="#897c6f" d="M 250.5,130.5 C 254.5,132.5 257.5,135.5 259.5,139.5C 256.167,136.833 253.167,133.833 250.5,130.5 Z"/></g>
<g><path style="opacity:1" fill="#7a6e60" d="M 259.5,139.5 C 261.587,140.585 262.92,142.251 263.5,144.5C 261.413,143.415 260.08,141.749 259.5,139.5 Z"/></g>
<g><path style="opacity:1" fill="#7c7062" d="M 338.5,137.5 C 335.497,141.509 332.497,145.509 329.5,149.5C 331.043,144.418 334.043,140.418 338.5,137.5 Z"/></g>
<g><path style="opacity:1" fill="#7e7264" d="M 267.5,150.5 C 269.539,151.911 270.539,153.911 270.5,156.5C 268.992,154.819 267.992,152.819 267.5,150.5 Z"/></g>
<g><path style="opacity:1" fill="#7e7264" d="M 329.5,149.5 C 325.324,157.163 322.324,165.163 320.5,173.5C 320.757,164.385 323.757,156.385 329.5,149.5 Z"/></g>
<g><path style="opacity:1" fill="#604e38" d="M 146.5,152.5 C 140.639,161.556 135.805,171.222 132,181.5C 123.569,207.511 118.569,234.178 117,261.5C 115.696,288.346 114.196,315.179 112.5,342C 112.502,345.021 112.836,347.854 113.5,350.5C 113.013,351.473 112.513,352.473 112,353.5C 111.042,308.006 113.042,262.673 118,217.5C 121.577,193.033 131.077,171.366 146.5,152.5 Z"/></g>
<g><path style="opacity:1" fill="#625039" d="M 463.5,171.5 C 465.474,173.428 466.974,175.761 468,178.5C 474.991,194.447 479.324,211.114 481,228.5C 483.999,270.794 485.665,313.128 486,355.5C 484.727,352.511 483.561,349.511 482.5,346.5C 483.164,343.854 483.498,341.021 483.5,338C 482.067,303.116 479.901,268.282 477,233.5C 474.731,212.321 470.231,191.654 463.5,171.5 Z"/></g>
<g><path style="opacity:1" fill="#9d9082" d="M 320.5,173.5 C 320.315,181.581 320.982,189.581 322.5,197.5C 321.883,197.389 321.383,197.056 321,196.5C 319.388,188.705 319.222,181.039 320.5,173.5 Z"/></g>
<g><path style="opacity:1" fill="#978a7d" d="M 273.5,163.5 C 274.887,165.877 275.721,168.543 276,171.5C 276.798,180.213 276.464,188.88 275,197.5C 274.617,198.056 274.117,198.389 273.5,198.5C 276.167,186.833 276.167,175.167 273.5,163.5 Z"/></g>
<g><path style="opacity:1" fill="#7b6f61" d="M 325.5,205.5 C 327.326,207.147 328.66,209.147 329.5,211.5C 327.178,210.198 325.845,208.198 325.5,205.5 Z"/></g>
<g><path style="opacity:1" fill="#827668" d="M 273.5,198.5 C 271.29,207.902 266.29,215.569 258.5,221.5C 261.739,216.714 265.239,212.047 269,207.5C 270.546,204.408 272.046,201.408 273.5,198.5 Z"/></g>
<g><path style="opacity:1" fill="#796d60" d="M 329.5,211.5 C 331.587,212.585 332.92,214.251 333.5,216.5C 331.413,215.415 330.08,213.749 329.5,211.5 Z"/></g>
<g><path style="opacity:1" fill="#7f7365" d="M 333.5,216.5 C 336.573,218.569 338.906,221.236 340.5,224.5C 337.427,222.431 335.094,219.764 333.5,216.5 Z"/></g>
<g><path style="opacity:1" fill="#84776a" d="M 258.5,221.5 C 256.909,224.431 254.909,227.098 252.5,229.5C 251.761,229.631 251.094,229.464 250.5,229C 253.036,226.295 255.703,223.795 258.5,221.5 Z"/></g>
<g><path style="opacity:1" fill="#584e42" d="M 489.5,218.5 C 490.581,221.627 491.247,224.96 491.5,228.5C 489.825,225.493 489.159,222.16 489.5,218.5 Z"/></g>
<g><path style="opacity:1" fill="#85786a" d="M 340.5,224.5 C 342.296,225.793 343.963,227.293 345.5,229C 344.906,229.464 344.239,229.631 343.5,229.5C 342.075,228.078 341.075,226.411 340.5,224.5 Z"/></g>
<g><path style="opacity:1" fill="#443a2f" d="M 530.5,234.5 C 532.63,236.127 534.63,237.96 536.5,240C 537.448,240.483 538.448,240.649 539.5,240.5C 535.126,241.205 532.126,239.205 530.5,234.5 Z"/></g>
<g><path style="opacity:1" fill="#9a8a78" d="M 441.5,486.5 C 441.031,485.255 440.697,485.421 440.5,487C 441.468,491.404 442.802,495.571 444.5,499.5C 445.434,500.568 445.768,501.901 445.5,503.5C 445.41,506.152 446.076,508.485 447.5,510.5C 448.542,516.959 450.542,522.959 453.5,528.5C 454.704,533.895 456.704,538.895 459.5,543.5C 460.578,546.402 461.244,549.402 461.5,552.5C 460.5,552.5 459.5,552.5 458.5,552.5C 454.181,549.004 449.515,546.004 444.5,543.5C 443.761,543.631 443.094,543.464 442.5,543C 436.765,536.721 430.931,530.554 425,524.5C 424.333,528.167 424.333,531.833 425,535.5C 426.566,545.997 428.733,556.497 431.5,567C 431.167,567.5 430.833,568 430.5,568.5C 421.025,561.2 413.692,552.2 408.5,541.5C 408.585,540.005 407.919,539.005 406.5,538.5C 405.191,542.649 405.191,546.649 406.5,550.5C 408.409,560.617 410.575,570.617 413,580.5C 404.42,570.98 396.087,561.313 388,551.5C 386.711,557.463 385.711,563.796 385,570.5C 382.46,568.295 380.293,565.795 378.5,563C 381.6,560.208 383.267,556.708 383.5,552.5C 381.012,546.187 378.512,539.854 376,533.5C 370.201,528.863 364.201,528.53 358,532.5C 350.207,496.033 350.874,459.699 360,423.5C 370.859,390.732 379.525,357.399 386,323.5C 390.942,290.89 377.442,270.39 345.5,262C 341.188,261.226 337.022,261.726 333,263.5C 318.374,256.171 302.874,253.671 286.5,256C 278.6,256.971 271.266,259.471 264.5,263.5C 260.335,261.648 256.002,261.148 251.5,262C 217.708,271.732 204.542,293.898 212,328.5C 214.017,339.234 216.35,349.901 219,360.5C 226,385.167 233,409.833 240,434.5C 247.224,466.182 247.224,497.849 240,529.5C 239.692,530.308 239.192,530.975 238.5,531.5C 231.993,528.585 226.159,529.585 221,534.5C 218.964,540.068 216.798,545.568 214.5,551C 214.673,555.386 216.34,559.053 219.5,562C 217.326,565.004 214.992,567.837 212.5,570.5C 211.84,564.047 210.673,557.714 209,551.5C 201.778,561.397 193.778,570.73 185,579.5C 186.82,569.874 188.82,560.208 191,550.5C 191.667,546.5 191.667,542.5 191,538.5C 187.084,543.996 183.418,549.663 180,555.5C 176.333,560.5 172,564.833 167,568.5C 168.712,554.987 170.879,541.487 173.5,528C 173.491,526.596 172.991,525.43 172,524.5C 168.825,527.818 166.325,531.485 164.5,535.5C 164.217,534.711 163.717,534.044 163,533.5C 159.271,537.398 155.438,541.065 151.5,544.5C 146.434,547.699 141.101,550.366 135.5,552.5C 136.099,549.037 137.099,545.704 138.5,542.5C 140.964,538.556 142.63,534.223 143.5,529.5C 143.733,526.458 144.733,523.792 146.5,521.5C 147.117,521.389 147.617,521.056 148,520.5C 148.945,516.506 149.778,512.506 150.5,508.5C 151.924,506.485 152.59,504.152 152.5,501.5C 153.652,497.223 154.652,492.889 155.5,488.5C 155.069,487.707 154.735,486.873 154.5,486C 156.09,482.987 157.257,479.82 158,476.5C 160.227,464.242 161.894,451.909 163,439.5C 164.223,404.144 165.89,368.81 168,333.5C 170.335,301.324 183.835,275.157 208.5,255C 229.952,241.442 253.286,236.442 278.5,240C 285.316,241.579 292.149,243.079 299,244.5C 328.574,234.972 357.074,237.472 384.5,252C 409.15,269.035 423.65,292.535 428,322.5C 429.396,332.459 430.396,342.459 431,352.5C 431.895,379.838 432.895,407.171 434,434.5C 435.379,452.326 437.879,469.659 441.5,486.5 Z"/></g>
<g><path style="opacity:1" fill="#625038" d="M 486.5,458.5 C 489.419,461.365 490.752,460.531 490.5,456C 488.978,438.195 487.978,420.361 487.5,402.5C 488.172,401.733 489.005,401.066 490,400.5C 491.851,410.121 493.518,419.788 495,429.5C 496.835,438.998 502.335,442.165 511.5,439C 512.981,438.02 514.315,436.853 515.5,435.5C 524.139,438.9 529.972,436.234 533,427.5C 533.167,423.667 533.333,419.833 533.5,416C 531.923,403.581 531.257,391.081 531.5,378.5C 539.222,378.563 544.055,374.897 546,367.5C 546.667,362.833 546.667,358.167 546,353.5C 543.897,340.153 541.731,326.82 539.5,313.5C 539.833,311.833 540.167,310.167 540.5,308.5C 548.126,307.539 551.793,303.206 551.5,295.5C 551.217,291.804 550.717,288.137 550,284.5C 545.326,273.306 541.159,261.973 537.5,250.5C 540.972,250.874 543.972,249.874 546.5,247.5C 552.126,256.669 554.626,266.669 554,277.5C 559.289,292.41 564.289,307.41 569,322.5C 568.751,331.157 568.751,339.823 569,348.5C 571.494,360.801 573.661,373.134 575.5,385.5C 575.333,388.167 575.167,390.833 575,393.5C 573.422,396.657 572.422,399.991 572,403.5C 571.87,415.874 571.203,428.208 570,440.5C 569.713,445.696 567.379,449.696 563,452.5C 561.08,455.339 559.413,458.339 558,461.5C 555.219,469.729 551.885,477.729 548,485.5C 546.833,486.667 545.667,487.833 544.5,489C 537.917,490.807 531.583,493.307 525.5,496.5C 525.167,497.167 524.833,497.833 524.5,498.5C 529.335,512.505 535.002,526.172 541.5,539.5C 540.277,540.614 538.944,540.781 537.5,540C 520.501,531.665 505.834,520.332 493.5,506C 490.222,504.191 486.889,502.691 483.5,501.5C 485.319,521.927 489.319,541.927 495.5,561.5C 495.167,562.167 494.833,562.833 494.5,563.5C 480.924,552.832 470.591,539.665 463.5,524C 464.704,519.57 465.538,515.07 466,510.5C 466.168,501.814 466.668,493.148 467.5,484.5C 476.34,487.658 482.506,484.991 486,476.5C 486.499,470.509 486.666,464.509 486.5,458.5 Z"/></g>
<g><path style="opacity:1" fill="#625038" d="M 109.5,402.5 C 107.8,421.367 104.8,440.034 100.5,458.5C 100.833,459.167 101.167,459.833 101.5,460.5C 102.892,459.395 104.059,458.061 105,456.5C 107.883,450.077 110.717,443.743 113.5,437.5C 110.879,450.034 110.046,462.701 111,475.5C 113.992,484.746 120.159,487.746 129.5,484.5C 130.332,493.482 130.832,502.482 131,511.5C 131.954,515.896 133.121,520.23 134.5,524.5C 126.983,539.194 116.983,552.027 104.5,563C 103.365,563.749 102.365,563.583 101.5,562.5C 108.234,542.664 112.068,522.331 113,501.5C 104.337,506.155 96.8366,512.322 90.5,520C 85.1667,524 79.8333,528 74.5,532C 68.8608,535.654 62.8608,538.487 56.5,540.5C 62.3528,526.282 68.0194,511.948 73.5,497.5C 68.1479,493.664 62.1479,491.164 55.5,490C 54.4214,489.044 53.2547,488.211 52,487.5C 46.6201,476.703 41.6201,465.703 37,454.5C 34.294,452.129 31.9606,449.463 30,446.5C 27.1405,431.314 25.8072,415.981 26,400.5C 24.0446,395.679 22.8779,390.679 22.5,385.5C 25.0661,371.171 27.5661,356.837 30,342.5C 29.7963,335.176 29.7963,327.843 30,320.5C 33.4042,308.62 37.4042,296.954 42,285.5C 43.7717,277.573 45.105,269.573 46,261.5C 47.2996,256.905 49.1329,252.572 51.5,248.5C 54.2198,250.111 57.2198,250.944 60.5,251C 57.0967,260.645 53.2634,270.145 49,279.5C 47.3602,284.393 46.1935,289.393 45.5,294.5C 45.3635,302.613 49.1968,307.279 57,308.5C 56.9011,321.672 55.2344,334.672 52,347.5C 51.3333,354.167 51.3333,360.833 52,367.5C 53.2871,375.065 57.7871,378.732 65.5,378.5C 66.3527,388.215 65.8527,397.881 64,407.5C 63.3333,413.5 63.3333,419.5 64,425.5C 66.7857,436.558 73.1191,439.558 83,434.5C 88.1721,439.497 93.6721,439.83 99.5,435.5C 100.584,434.335 101.417,433.002 102,431.5C 103.613,423.212 104.946,414.879 106,406.5C 106.471,404.754 107.138,403.087 108,401.5C 108.383,402.056 108.883,402.389 109.5,402.5 Z"/></g>
<g><path style="opacity:1" fill="#7f7466" d="M 426.5,275.5 C 422.933,273.443 419.766,270.777 417,267.5C 416.601,267.728 416.435,268.062 416.5,268.5C 415.38,266.876 414.047,265.376 412.5,264C 412.667,263.5 412.833,263 413,262.5C 418.003,266.336 422.503,270.67 426.5,275.5 Z"/></g>
<g><path style="opacity:1" fill="#dfd2c5" d="M 179.5,270.5 C 168.444,286.828 161.61,304.828 159,324.5C 157.459,336.454 156.459,348.454 156,360.5C 155.303,386.514 154.303,412.514 153,438.5C 151.216,459.207 147.716,479.54 142.5,499.5C 141.512,494.36 141.179,489.026 141.5,483.5C 141.5,479.167 141.5,474.833 141.5,470.5C 144.363,457.106 146.03,443.44 146.5,429.5C 143.2,430.029 141.2,432.029 140.5,435.5C 139.545,437.746 138.878,440.079 138.5,442.5C 135.86,447.085 134.194,452.085 133.5,457.5C 131.135,463.41 128.468,469.243 125.5,475C 124.216,475.684 123.049,475.517 122,474.5C 120.953,471.961 120.453,469.295 120.5,466.5C 122.475,436.628 128.142,407.628 137.5,379.5C 138.924,377.485 139.59,375.152 139.5,372.5C 140.404,371.791 140.737,370.791 140.5,369.5C 135.374,370.618 131.707,373.618 129.5,378.5C 129.262,380.404 128.262,381.738 126.5,382.5C 124.1,384.296 122.433,386.63 121.5,389.5C 119.539,391.312 117.206,392.312 114.5,392.5C 114.437,387.797 114.771,383.13 115.5,378.5C 116.409,372.513 118.076,366.847 120.5,361.5C 123.322,357.376 124.989,352.709 125.5,347.5C 125.402,345.447 126.069,343.78 127.5,342.5C 129.818,340.815 130.818,338.481 130.5,335.5C 134.341,329.151 137.675,322.484 140.5,315.5C 143,312.506 145,309.173 146.5,305.5C 146.427,303.973 147.094,302.973 148.5,302.5C 150.9,300.704 152.567,298.37 153.5,295.5C 153.738,293.596 154.738,292.262 156.5,291.5C 163.27,284.229 170.27,277.062 177.5,270C 178.437,269.308 179.103,269.475 179.5,270.5 Z"/></g>
<g><path style="opacity:1" fill="#dfd2c5" d="M 426.5,275.5 C 427.5,275.833 428.167,276.5 428.5,277.5C 431.101,281.771 434.434,285.437 438.5,288.5C 439.08,290.749 440.413,292.415 442.5,293.5C 446.237,297.302 449.237,301.635 451.5,306.5C 453,310.173 455,313.506 457.5,316.5C 458.338,316.842 458.672,317.508 458.5,318.5C 460.659,324.151 463.326,329.484 466.5,334.5C 466.182,337.481 467.182,339.815 469.5,341.5C 470.931,342.78 471.598,344.447 471.5,346.5C 472.011,351.709 473.678,356.376 476.5,360.5C 479.746,368.136 482.079,376.136 483.5,384.5C 483.768,387.119 483.435,389.619 482.5,392C 481.5,392.667 480.5,392.667 479.5,392C 477.963,390.293 476.296,388.793 474.5,387.5C 473.567,384.63 471.9,382.296 469.5,380.5C 468.92,378.251 467.587,376.585 465.5,375.5C 464.294,371.635 461.627,369.635 457.5,369.5C 457.216,371.415 457.549,373.081 458.5,374.5C 459.057,379.165 460.39,383.498 462.5,387.5C 469.216,409.582 473.716,432.248 476,455.5C 476.793,461.885 476.626,468.218 475.5,474.5C 474.635,475.583 473.635,475.749 472.5,475C 470.177,472.83 468.51,470.33 467.5,467.5C 466.37,462.776 465.036,458.109 463.5,453.5C 462.205,449.266 460.539,445.266 458.5,441.5C 457.069,440.22 456.402,438.553 456.5,436.5C 456.458,433.415 455.125,431.081 452.5,429.5C 451.914,429.709 451.414,430.043 451,430.5C 450.199,433.367 450.366,436.034 451.5,438.5C 452.773,452.35 454.44,466.017 456.5,479.5C 456.666,487.174 456.5,494.841 456,502.5C 448.035,473.749 443.702,444.415 443,414.5C 442.561,393.493 441.895,372.493 441,351.5C 441.34,321.171 433.174,293.504 416.5,268.5C 416.435,268.062 416.601,267.728 417,267.5C 419.766,270.777 422.933,273.443 426.5,275.5 Z"/></g>
<g><path style="opacity:1" fill="#807466" d="M 179.5,270.5 C 179.103,269.475 178.437,269.308 177.5,270C 170.27,277.062 163.27,284.229 156.5,291.5C 164.437,280.395 173.937,270.729 185,262.5C 183.864,265.5 182.031,268.166 179.5,270.5 Z"/></g>
<g><path style="opacity:1" fill="#e1d4c7" d="M 340.5,274.5 C 342.288,273.378 344.288,273.211 346.5,274C 350.855,275.846 355.188,277.679 359.5,279.5C 361.55,281.547 363.883,283.214 366.5,284.5C 367.419,287.089 369.086,289.089 371.5,290.5C 371.992,292.819 372.992,294.819 374.5,296.5C 375.833,307.833 375.833,319.167 374.5,330.5C 374.784,332.415 374.451,334.081 373.5,335.5C 369.878,348.653 366.545,361.986 363.5,375.5C 362.076,377.515 361.41,379.848 361.5,382.5C 359.723,385.505 358.723,388.838 358.5,392.5C 356.723,395.505 355.723,398.838 355.5,402.5C 353.723,405.505 352.723,408.838 352.5,412.5C 351.076,414.515 350.41,416.848 350.5,419.5C 348.96,421.838 348.294,424.505 348.5,427.5C 344.79,439.767 342.79,452.434 342.5,465.5C 342.5,478.167 342.5,490.833 342.5,503.5C 342.743,511.886 343.577,520.22 345,528.5C 345.383,529.056 345.883,529.389 346.5,529.5C 347.434,530.568 347.768,531.901 347.5,533.5C 347.126,537.647 348.126,541.314 350.5,544.5C 351.482,549.47 353.316,554.137 356,558.5C 357,559.833 358,559.833 359,558.5C 359.494,556.866 359.66,555.199 359.5,553.5C 361.567,549.495 363.567,545.328 365.5,541C 365.833,540.833 366.167,540.667 366.5,540.5C 367.065,542.544 368.065,544.21 369.5,545.5C 369.694,548.33 370.361,550.996 371.5,553.5C 371.189,554.478 370.522,555.145 369.5,555.5C 368.5,554.167 367.5,552.833 366.5,551.5C 366.167,551.667 365.833,551.833 365.5,552C 361.793,558.582 357.959,565.082 354,571.5C 352.708,572.791 351.542,572.791 350.5,571.5C 350.5,567.5 350.5,563.5 350.5,559.5C 349.5,559.5 348.5,559.5 347.5,559.5C 346.208,557.745 345.208,555.745 344.5,553.5C 338.392,555.388 332.392,557.555 326.5,560C 322.837,565.811 319.837,571.978 317.5,578.5C 316.311,579.429 314.978,579.762 313.5,579.5C 313.087,574.106 312.253,568.773 311,563.5C 308.268,558.745 304.101,556.745 298.5,557.5C 292.38,556.578 288.213,558.911 286,564.5C 285.088,568.795 284.421,573.128 284,577.5C 283.047,579.592 281.714,579.925 280,578.5C 277.965,571.713 274.799,565.547 270.5,560C 264.471,557.076 258.137,555.243 251.5,554.5C 251.978,557.278 250.978,559.278 248.5,560.5C 247.675,564.122 247.175,567.789 247,571.5C 244.909,572.5 243.243,571.833 242,569.5C 238.835,563.166 235.169,557.166 231,551.5C 230.059,553.061 228.892,554.395 227.5,555.5C 226.478,555.145 225.811,554.478 225.5,553.5C 226.933,551.442 227.6,549.108 227.5,546.5C 228.834,544.534 230.168,542.534 231.5,540.5C 233.505,544.61 235.505,548.61 237.5,552.5C 237.934,560.487 240.1,561.153 244,554.5C 244.49,553.207 244.657,551.873 244.5,550.5C 244.402,548.447 245.069,546.78 246.5,545.5C 248.712,542.679 249.712,539.345 249.5,535.5C 250.947,534.866 251.613,533.699 251.5,532C 252.934,526.59 253.601,521.09 253.5,515.5C 253.5,515.167 253.5,514.833 253.5,514.5C 255.126,508.072 255.793,501.405 255.5,494.5C 255.5,487.833 255.5,481.167 255.5,474.5C 255.796,464.888 254.796,455.555 252.5,446.5C 251.539,444.735 251.205,442.735 251.5,440.5C 251.068,432.781 249.401,425.447 246.5,418.5C 246.08,413.471 244.746,408.805 242.5,404.5C 241.943,399.835 240.61,395.502 238.5,391.5C 237.769,386.562 236.435,381.895 234.5,377.5C 234.59,374.848 233.924,372.515 232.5,370.5C 232.258,366.521 231.258,362.854 229.5,359.5C 228.579,352.534 226.912,345.867 224.5,339.5C 223.539,337.735 223.205,335.735 223.5,333.5C 222.639,321.856 222.305,310.19 222.5,298.5C 225.977,290.019 231.644,283.352 239.5,278.5C 239.842,277.662 240.508,277.328 241.5,277.5C 244.82,276.607 247.82,275.273 250.5,273.5C 252.915,271.621 255.582,271.287 258.5,272.5C 254.192,288.395 259.192,300.562 273.5,309C 279.293,311.73 284.96,314.73 290.5,318C 292.652,320.469 294.152,323.302 295,326.5C 295.667,333.167 295.667,339.833 295,346.5C 294.771,349.458 293.604,351.958 291.5,354C 279.76,355.637 268.094,357.637 256.5,360C 251.199,363.294 251.699,365.794 258,367.5C 271.594,364.647 285.261,362.314 299,360.5C 310.027,361.172 320.861,363.005 331.5,366C 335.89,366.772 340.223,366.606 344.5,365.5C 345.644,362.752 344.644,360.919 341.5,360C 330.889,358.007 320.223,356.34 309.5,355C 306.107,354.606 303.94,352.773 303,349.5C 302.333,341.167 302.333,332.833 303,324.5C 304.4,321.098 306.567,318.264 309.5,316C 319.758,312.29 328.591,306.457 336,298.5C 340.417,290.995 341.917,282.995 340.5,274.5 Z"/></g>
<g><path style="opacity:1" fill="#8a7d70" d="M 359.5,279.5 C 355.188,277.679 350.855,275.846 346.5,274C 344.288,273.211 342.288,273.378 340.5,274.5C 339.596,273.791 339.263,272.791 339.5,271.5C 347.114,272.033 353.781,274.7 359.5,279.5 Z"/></g>
<g><path style="opacity:1" fill="#897d6f" d="M 250.5,273.5 C 247.82,275.273 244.82,276.607 241.5,277.5C 243.898,275.026 246.898,273.692 250.5,273.5 Z"/></g>
<g><path style="opacity:1" fill="#7e7263" d="M 359.5,279.5 C 362.674,280.01 365.008,281.677 366.5,284.5C 363.883,283.214 361.55,281.547 359.5,279.5 Z"/></g>
<g><path style="opacity:1" fill="#7e7264" d="M 239.5,278.5 C 231.644,283.352 225.977,290.019 222.5,298.5C 224.544,288.787 230.211,282.12 239.5,278.5 Z"/></g>
<g><path style="opacity:1" fill="#827567" d="M 428.5,277.5 C 432.566,280.563 435.899,284.229 438.5,288.5C 434.434,285.437 431.101,281.771 428.5,277.5 Z"/></g>
<g><path style="opacity:1" fill="#86796b" d="M 366.5,284.5 C 368.914,285.911 370.581,287.911 371.5,290.5C 369.086,289.089 367.419,287.089 366.5,284.5 Z"/></g>
<g><path style="opacity:1" fill="#3a3126" d="M 67.5,318.5 C 67.6664,309.494 67.4998,300.494 67,291.5C 64.8333,293.667 62.6667,295.833 60.5,298C 58.8659,298.494 57.1992,298.66 55.5,298.5C 55.2155,296.585 55.5489,294.919 56.5,293.5C 56.5,294.833 56.5,296.167 56.5,297.5C 57.552,297.649 58.552,297.483 59.5,297C 61.8689,293.774 64.8689,291.608 68.5,290.5C 68.8269,300.015 68.4936,309.348 67.5,318.5 Z"/></g>
<g><path style="opacity:1" fill="#7e7263" d="M 371.5,290.5 C 373.539,291.911 374.539,293.911 374.5,296.5C 372.992,294.819 371.992,292.819 371.5,290.5 Z"/></g>
<g><path style="opacity:1" fill="#7c7062" d="M 438.5,288.5 C 440.587,289.585 441.92,291.251 442.5,293.5C 440.413,292.415 439.08,290.749 438.5,288.5 Z"/></g>
<g><path style="opacity:1" fill="#837769" d="M 153.5,295.5 C 152.567,298.37 150.9,300.704 148.5,302.5C 149.433,299.63 151.1,297.296 153.5,295.5 Z"/></g>
<g><path style="opacity:1" fill="#a5988a" d="M 222.5,298.5 C 222.305,310.19 222.639,321.856 223.5,333.5C 221.636,326.427 220.636,319.093 220.5,311.5C 220.379,306.907 221.046,302.574 222.5,298.5 Z"/></g>
<g><path style="opacity:1" fill="#7e7264" d="M 146.5,305.5 C 145,309.173 143,312.506 140.5,315.5C 141.498,311.495 143.498,308.161 146.5,305.5 Z"/></g>
<g><path style="opacity:1" fill="#7c7062" d="M 451.5,306.5 C 454.502,309.161 456.502,312.495 457.5,316.5C 455,313.506 453,310.173 451.5,306.5 Z"/></g>
<g><path style="opacity:1" fill="#8b7e70" d="M 374.5,296.5 C 376.052,301.401 376.719,306.568 376.5,312C 376.63,318.399 375.963,324.566 374.5,330.5C 375.833,319.167 375.833,307.833 374.5,296.5 Z"/></g>
<g><path style="opacity:1" fill="#7c7062" d="M 458.5,318.5 C 462.207,323.247 464.874,328.581 466.5,334.5C 463.326,329.484 460.659,324.151 458.5,318.5 Z"/></g>
<g><path style="opacity:1" fill="#7f7365" d="M 140.5,315.5 C 137.675,322.484 134.341,329.151 130.5,335.5C 132.793,328.248 136.126,321.581 140.5,315.5 Z"/></g>
<g><path style="opacity:1" fill="#877b6d" d="M 466.5,334.5 C 468.293,336.426 469.293,338.759 469.5,341.5C 467.182,339.815 466.182,337.481 466.5,334.5 Z"/></g>
<g><path style="opacity:1" fill="#897d6f" d="M 130.5,335.5 C 130.818,338.481 129.818,340.815 127.5,342.5C 127.707,339.759 128.707,337.426 130.5,335.5 Z"/></g>
<g><path style="opacity:1" fill="#847769" d="M 373.5,335.5 C 371.396,349.249 368.063,362.582 363.5,375.5C 366.545,361.986 369.878,348.653 373.5,335.5 Z"/></g>
<g><path style="opacity:1" fill="#807466" d="M 224.5,339.5 C 226.912,345.867 228.579,352.534 229.5,359.5C 227.088,353.133 225.421,346.466 224.5,339.5 Z"/></g>
<g><path style="opacity:1" fill="#a4988a" d="M 471.5,346.5 C 473.935,350.799 475.602,355.466 476.5,360.5C 473.678,356.376 472.011,351.709 471.5,346.5 Z"/></g>
<g><path style="opacity:1" fill="#a39688" d="M 125.5,347.5 C 124.989,352.709 123.322,357.376 120.5,361.5C 121.398,356.466 123.065,351.799 125.5,347.5 Z"/></g>
<g><path style="opacity:1" fill="#837669" d="M 229.5,359.5 C 231.258,362.854 232.258,366.521 232.5,370.5C 230.742,367.146 229.742,363.479 229.5,359.5 Z"/></g>
<g><path style="opacity:1" fill="#827668" d="M 465.5,375.5 C 463.495,373.666 461.328,371.999 459,370.5C 458.51,371.793 458.343,373.127 458.5,374.5C 457.549,373.081 457.216,371.415 457.5,369.5C 461.627,369.635 464.294,371.635 465.5,375.5 Z"/></g>
<g><path style="opacity:1" fill="#817567" d="M 232.5,370.5 C 233.924,372.515 234.59,374.848 234.5,377.5C 233.076,375.485 232.41,373.152 232.5,370.5 Z"/></g>
<g><path style="opacity:1" fill="#7c7062" d="M 139.5,372.5 C 139.483,370.972 138.816,370.472 137.5,371C 134.964,373.705 132.297,376.205 129.5,378.5C 131.707,373.618 135.374,370.618 140.5,369.5C 140.737,370.791 140.404,371.791 139.5,372.5 Z"/></g>
<g><path style="opacity:1" fill="#7c7062" d="M 139.5,372.5 C 139.59,375.152 138.924,377.485 137.5,379.5C 137.41,376.848 138.076,374.515 139.5,372.5 Z"/></g>
<g><path style="opacity:1" fill="#7c7062" d="M 465.5,375.5 C 467.587,376.585 468.92,378.251 469.5,380.5C 467.413,379.415 466.08,377.749 465.5,375.5 Z"/></g>
<g><path style="opacity:1" fill="#817467" d="M 363.5,375.5 C 363.59,378.152 362.924,380.485 361.5,382.5C 361.41,379.848 362.076,377.515 363.5,375.5 Z"/></g>
<g><path style="opacity:1" fill="#7d7163" d="M 458.5,374.5 C 460.61,378.502 461.943,382.835 462.5,387.5C 460.39,383.498 459.057,379.165 458.5,374.5 Z"/></g>
<g><path style="opacity:1" fill="#807466" d="M 234.5,377.5 C 236.435,381.895 237.769,386.562 238.5,391.5C 236.254,387.195 234.92,382.529 234.5,377.5 Z"/></g>
<g><path style="opacity:1" fill="#827567" d="M 361.5,382.5 C 361.277,386.162 360.277,389.495 358.5,392.5C 358.723,388.838 359.723,385.505 361.5,382.5 Z"/></g>
<g><path style="opacity:1" fill="#7c7062" d="M 469.5,380.5 C 471.9,382.296 473.567,384.63 474.5,387.5C 472.1,385.704 470.433,383.37 469.5,380.5 Z"/></g>
<g><path style="opacity:1" fill="#7c7062" d="M 126.5,382.5 C 125.567,385.37 123.9,387.704 121.5,389.5C 122.433,386.63 124.1,384.296 126.5,382.5 Z"/></g>
<g><path style="opacity:1" fill="#94887a" d="M 115.5,378.5 C 114.771,383.13 114.437,387.797 114.5,392.5C 117.206,392.312 119.539,391.312 121.5,389.5C 119.977,393.218 117.311,394.218 113.5,392.5C 112.254,387.505 112.921,382.838 115.5,378.5 Z"/></g>
<g><path style="opacity:1" fill="#7f7365" d="M 483.5,384.5 C 484.817,387.23 484.817,390.063 483.5,393C 478.881,393.891 475.881,392.057 474.5,387.5C 476.296,388.793 477.963,390.293 479.5,392C 480.5,392.667 481.5,392.667 482.5,392C 483.435,389.619 483.768,387.119 483.5,384.5 Z"/></g>
<g><path style="opacity:1" fill="#817567" d="M 238.5,391.5 C 240.61,395.502 241.943,399.835 242.5,404.5C 240.39,400.498 239.057,396.165 238.5,391.5 Z"/></g>
<g><path style="opacity:1" fill="#837769" d="M 358.5,392.5 C 358.277,396.162 357.277,399.495 355.5,402.5C 355.723,398.838 356.723,395.505 358.5,392.5 Z"/></g>
<g><path style="opacity:1" fill="#968674" d="M 109.5,402.5 C 112.786,403.207 116.119,403.54 119.5,403.5C 117.371,414.81 115.371,426.144 113.5,437.5C 110.717,443.743 107.883,450.077 105,456.5C 104.059,458.061 102.892,459.395 101.5,460.5C 101.167,459.833 100.833,459.167 100.5,458.5C 104.8,440.034 107.8,421.367 109.5,402.5 Z"/></g>
<g><path style="opacity:1" fill="#938372" d="M 487.5,402.5 C 487.978,420.361 488.978,438.195 490.5,456C 490.752,460.531 489.419,461.365 486.5,458.5C 484.618,440.33 481.618,422.33 477.5,404.5C 480.753,403.402 484.086,402.736 487.5,402.5 Z"/></g>
<g><path style="opacity:1" fill="#817567" d="M 242.5,404.5 C 244.746,408.805 246.08,413.471 246.5,418.5C 244.565,414.105 243.231,409.438 242.5,404.5 Z"/></g>
<g><path style="opacity:1" fill="#807365" d="M 355.5,402.5 C 355.277,406.162 354.277,409.495 352.5,412.5C 352.723,408.838 353.723,405.505 355.5,402.5 Z"/></g>
<g><path style="opacity:1" fill="#807365" d="M 352.5,412.5 C 352.59,415.152 351.924,417.485 350.5,419.5C 350.41,416.848 351.076,414.515 352.5,412.5 Z"/></g>
<g><path style="opacity:1" fill="#42392d" d="M 87.5,415.5 C 89.4159,419.163 90.4159,423.163 90.5,427.5C 88.8984,423.761 87.8984,419.761 87.5,415.5 Z"/></g>
<g><path style="opacity:1" fill="#837769" d="M 246.5,418.5 C 249.401,425.447 251.068,432.781 251.5,440.5C 249.549,433.351 247.882,426.017 246.5,418.5 Z"/></g>
<g><path style="opacity:1" fill="#847769" d="M 350.5,419.5 C 350.435,422.428 349.768,425.095 348.5,427.5C 348.294,424.505 348.96,421.838 350.5,419.5 Z"/></g>
<g><path style="opacity:1" fill="#40362b" d="M 95.5,411.5 C 95.2365,417.422 94.2365,423.089 92.5,428.5C 92.7635,422.578 93.7635,416.911 95.5,411.5 Z"/></g>
<g><path style="opacity:1" fill="#837769" d="M 348.5,427.5 C 346.261,440.259 344.261,452.926 342.5,465.5C 342.79,452.434 344.79,439.767 348.5,427.5 Z"/></g>
<g><path style="opacity:1" fill="#7e7264" d="M 456.5,436.5 C 452.694,429.413 451.028,430.079 451.5,438.5C 450.366,436.034 450.199,433.367 451,430.5C 451.414,430.043 451.914,429.709 452.5,429.5C 455.125,431.081 456.458,433.415 456.5,436.5 Z"/></g>
<g><path style="opacity:1" fill="#837669" d="M 458.5,441.5 C 460.539,445.266 462.205,449.266 463.5,453.5C 463.167,453.5 462.833,453.5 462.5,453.5C 460.595,449.784 459.261,445.784 458.5,441.5 Z"/></g>
<g><path style="opacity:1" fill="#41382d" d="M 138.5,442.5 C 137.405,447.784 135.739,452.784 133.5,457.5C 134.194,452.085 135.86,447.085 138.5,442.5 Z"/></g>
<g><path style="opacity:1" fill="#908376" d="M 141.5,470.5 C 142.457,458.798 143.791,447.131 145.5,435.5C 145.333,433.833 145.167,432.167 145,430.5C 143.933,432.692 142.433,434.358 140.5,435.5C 141.2,432.029 143.2,430.029 146.5,429.5C 146.03,443.44 144.363,457.106 141.5,470.5 Z"/></g>
<g><path style="opacity:1" fill="#827668" d="M 252.5,446.5 C 254.796,455.555 255.796,464.888 255.5,474.5C 254.356,465.326 253.356,455.993 252.5,446.5 Z"/></g>
<g><path style="opacity:1" fill="#978b7d" d="M 451.5,438.5 C 454.381,451.883 456.047,465.55 456.5,479.5C 454.44,466.017 452.773,452.35 451.5,438.5 Z"/></g>
<g><path style="opacity:1" fill="#41382d" d="M 462.5,453.5 C 462.833,453.5 463.167,453.5 463.5,453.5C 465.036,458.109 466.37,462.776 467.5,467.5C 465.065,463.201 463.398,458.534 462.5,453.5 Z"/></g>
<g><path style="opacity:1" fill="#95897e" d="M 141.5,483.5 C 141.179,489.026 141.512,494.36 142.5,499.5C 142.013,500.473 141.513,501.473 141,502.5C 140.18,495.986 140.347,489.653 141.5,483.5 Z"/></g>
<g><path style="opacity:1" fill="#554533" d="M 441.5,486.5 C 442.967,490.702 443.967,495.035 444.5,499.5C 442.802,495.571 441.468,491.404 440.5,487C 440.697,485.421 441.031,485.255 441.5,486.5 Z"/></g>
<g><path style="opacity:1" fill="#4e3f2d" d="M 152.5,501.5 C 152.59,504.152 151.924,506.485 150.5,508.5C 150.41,505.848 151.076,503.515 152.5,501.5 Z"/></g>
<g><path style="opacity:1" fill="#827668" d="M 255.5,494.5 C 255.793,501.405 255.126,508.072 253.5,514.5C 253.735,507.646 254.402,500.979 255.5,494.5 Z"/></g>
<g><path style="opacity:1" fill="#4f402e" d="M 445.5,503.5 C 446.924,505.515 447.59,507.848 447.5,510.5C 446.076,508.485 445.41,506.152 445.5,503.5 Z"/></g>
<g><path style="opacity:1" fill="#574735" d="M 150.5,508.5 C 149.778,512.506 148.945,516.506 148,520.5C 147.617,521.056 147.117,521.389 146.5,521.5C 147.078,516.835 148.411,512.501 150.5,508.5 Z"/></g>
<g><path style="opacity:1" fill="#564735" d="M 447.5,510.5 C 450.072,516.216 452.072,522.216 453.5,528.5C 450.542,522.959 448.542,516.959 447.5,510.5 Z"/></g>
<g><path style="opacity:1" fill="#938678" d="M 342.5,503.5 C 344.026,512.002 345.36,520.669 346.5,529.5C 345.883,529.389 345.383,529.056 345,528.5C 343.577,520.22 342.743,511.886 342.5,503.5 Z"/></g>
<g><path style="opacity:1" fill="#a79a8c" d="M 253.5,515.5 C 253.601,521.09 252.934,526.59 251.5,532C 251.613,533.699 250.947,534.866 249.5,535.5C 250.472,528.637 251.806,521.971 253.5,515.5 Z"/></g>
<g><path style="opacity:1" fill="#4f402e" d="M 453.5,528.5 C 456.266,533.117 458.266,538.117 459.5,543.5C 456.704,538.895 454.704,533.895 453.5,528.5 Z"/></g>
<g><path style="opacity:1" fill="#50412f" d="M 143.5,529.5 C 142.63,534.223 140.964,538.556 138.5,542.5C 139.37,537.777 141.036,533.444 143.5,529.5 Z"/></g>
<g><path style="opacity:1" fill="#50402f" d="M 164.5,535.5 C 160.442,538.89 156.109,541.89 151.5,544.5C 155.438,541.065 159.271,537.398 163,533.5C 163.717,534.044 164.217,534.711 164.5,535.5 Z"/></g>
<g><path style="opacity:1" fill="#9a8d7f" d="M 249.5,535.5 C 249.712,539.345 248.712,542.679 246.5,545.5C 246.899,541.884 247.899,538.55 249.5,535.5 Z"/></g>
<g><path style="opacity:1" fill="#938779" d="M 347.5,533.5 C 349.074,536.907 350.074,540.573 350.5,544.5C 348.126,541.314 347.126,537.647 347.5,533.5 Z"/></g>
<g><path style="opacity:1" fill="#39322a" d="M 408.5,541.5 C 407.883,541.389 407.383,541.056 407,540.5C 406.502,543.817 406.335,547.15 406.5,550.5C 405.191,546.649 405.191,542.649 406.5,538.5C 407.919,539.005 408.585,540.005 408.5,541.5 Z"/></g>
<g><path style="opacity:1" fill="#908375" d="M 369.5,545.5 C 368.065,544.21 367.065,542.544 366.5,540.5C 366.167,540.667 365.833,540.833 365.5,541C 363.567,545.328 361.567,549.495 359.5,553.5C 360.298,548.94 361.798,544.606 364,540.5C 365.356,539.62 366.856,539.286 368.5,539.5C 368.833,541.5 369.167,543.5 369.5,545.5 Z"/></g>
<g><path style="opacity:1" fill="#908476" d="M 237.5,552.5 C 235.505,548.61 233.505,544.61 231.5,540.5C 230.168,542.534 228.834,544.534 227.5,546.5C 227.687,544.436 228.187,542.436 229,540.5C 230.494,539.253 231.994,539.253 233.5,540.5C 235.438,544.314 236.771,548.314 237.5,552.5 Z"/></g>
<g><path style="opacity:1" fill="#4f402e" d="M 151.5,544.5 C 147.539,548.487 142.873,551.487 137.5,553.5C 136.584,553.457 135.917,553.124 135.5,552.5C 141.101,550.366 146.434,547.699 151.5,544.5 Z"/></g>
<g><path style="opacity:1" fill="#867b6d" d="M 369.5,545.5 C 371.79,548.077 372.956,551.077 373,554.5C 372.617,553.944 372.117,553.611 371.5,553.5C 370.361,550.996 369.694,548.33 369.5,545.5 Z"/></g>
<g><path style="opacity:1" fill="#50412f" d="M 444.5,543.5 C 449.515,546.004 454.181,549.004 458.5,552.5C 453.145,550.494 448.479,547.494 444.5,543.5 Z"/></g>
<g><path style="opacity:1" fill="#8a7e70" d="M 227.5,546.5 C 227.6,549.108 226.933,551.442 225.5,553.5C 224.597,550.908 225.264,548.574 227.5,546.5 Z"/></g>
<g><path style="opacity:1" fill="#86796b" d="M 350.5,544.5 C 352.621,548.741 354.787,553.075 357,557.5C 357.934,556.142 358.768,554.808 359.5,553.5C 359.66,555.199 359.494,556.866 359,558.5C 358,559.833 357,559.833 356,558.5C 353.316,554.137 351.482,549.47 350.5,544.5 Z"/></g>
<g><path style="opacity:1" fill="#8b7e70" d="M 244.5,550.5 C 244.657,551.873 244.49,553.207 244,554.5C 240.1,561.153 237.934,560.487 237.5,552.5C 238.41,554.019 239.243,555.685 240,557.5C 241.524,555.102 243.024,552.769 244.5,550.5 Z"/></g>
<g><path style="opacity:1" fill="#7c756e" d="M 347.5,559.5 C 348.5,559.5 349.5,559.5 350.5,559.5C 350.5,563.5 350.5,567.5 350.5,571.5C 350.023,567.38 349.023,563.38 347.5,559.5 Z"/></g>
<g><path style="opacity:1" fill="#5d4b35" d="M 449.5,559.5 C 453.986,563.197 458.986,564.197 464.5,562.5C 465.356,566.57 466.523,570.57 468,574.5C 468.667,576.167 468.667,577.833 468,579.5C 465.037,577.539 462.371,575.206 460,572.5C 456.263,568.273 452.763,563.94 449.5,559.5 Z"/></g>
<g><path style="opacity:1" fill="#5e4c35" d="M 146.5,559.5 C 147.239,559.369 147.906,559.536 148.5,560C 142.684,566.983 136.35,573.483 129.5,579.5C 129.167,578.833 128.833,578.167 128.5,577.5C 129.998,572.845 131.498,568.178 133,563.5C 136.367,563.707 139.867,563.207 143.5,562C 144.942,561.623 145.942,560.79 146.5,559.5 Z"/></g>
</svg>
