<?xml version="1.0" encoding="UTF-8"?>
<!DOCTYPE svg PUBLIC "-//W3C//DTD SVG 1.1//EN" "http://www.w3.org/Graphics/SVG/1.1/DTD/svg11.dtd">
<svg xmlns="http://www.w3.org/2000/svg" version="1.1" width="600px" height="600px" style="shape-rendering:geometricPrecision; text-rendering:geometricPrecision; image-rendering:optimizeQuality; fill-rule:evenodd; clip-rule:evenodd" xmlns:xlink="http://www.w3.org/1999/xlink">
<g><path style="opacity:0.948" fill="#010101" d="M 185.5,-0.5 C 194.833,-0.5 204.167,-0.5 213.5,-0.5C 228.257,5.05036 240.757,14.0504 251,26.5C 262.586,41.6665 271.586,58.3331 278,76.5C 279.231,77.1078 280.564,77.4411 282,77.5C 289.482,76.6404 296.982,75.9738 304.5,75.5C 313.175,76.3347 321.841,76.8347 330.5,77C 338.039,56.1618 348.873,37.3285 363,20.5C 372.393,11.0666 383.227,4.06663 395.5,-0.5C 404.833,-0.5 414.167,-0.5 423.5,-0.5C 444.831,8.29742 462.664,21.9641 477,40.5C 503.023,76.5643 520.356,116.564 529,160.5C 531.669,174.506 534.335,188.506 537,202.5C 540.007,240.565 543.674,278.565 548,316.5C 551.618,408.348 518.118,483.515 447.5,542C 426.048,560.571 402.381,575.905 376.5,588C 364.619,592.573 352.619,596.406 340.5,599.5C 316.5,599.5 292.5,599.5 268.5,599.5C 243.492,593.835 220.159,584.001 198.5,570C 164.555,547.059 134.722,519.559 109,487.5C 74.0351,434.906 58.3684,376.906 62,313.5C 66.3268,276.232 69.9935,238.899 73,201.5C 77.7299,156.907 90.0632,114.574 110,74.5C 122.713,49.4462 140.213,28.2795 162.5,11C 169.701,6.06604 177.368,2.2327 185.5,-0.5 Z"/></g>
<g><path style="opacity:1" fill="#f5f5f5" d="M 190.5,8.5 C 207.082,6.72741 221.416,11.5607 233.5,23C 250.127,40.7397 262.294,61.2397 270,84.5C 271.87,87.0184 274.37,88.3518 277.5,88.5C 295.169,85.8554 312.835,85.8554 330.5,88.5C 332.634,88.4847 334.634,87.9847 336.5,87C 342.804,73.7638 349.304,60.5971 356,47.5C 384.54,0.29971 418.54,-4.03362 458,34.5C 483.876,64.573 502.209,98.9063 513,137.5C 518.731,158.889 523.065,180.555 526,202.5C 529.007,240.565 532.674,278.565 537,316.5C 540.94,394.05 515.773,460.217 461.5,515C 442.271,533.238 421.604,549.571 399.5,564C 344.714,596.525 288.047,600.192 229.5,575C 191.466,554.379 157.966,527.879 129,495.5C 95.0442,452.903 76.0442,404.237 72,349.5C 71.3333,338.5 71.3333,327.5 72,316.5C 77.0922,271.541 81.7589,226.541 86,181.5C 93.01,136.457 108.677,94.7899 133,56.5C 144.212,39.6215 158.378,25.7882 175.5,15C 180.59,12.7822 185.59,10.6156 190.5,8.5 Z"/></g>
<g><path style="opacity:1" fill="#e6e6e6" d="M 182.5,45.5 C 185.614,46.0913 188.114,47.758 190,50.5C 197.919,64.9187 202.586,80.252 204,96.5C 191.118,108.609 176.451,117.943 160,124.5C 158.399,120.017 158.066,115.351 159,110.5C 162.603,87.1816 170.436,65.5149 182.5,45.5 Z"/></g>
<g><path style="opacity:1" fill="#e6e6e6" d="M 418.5,45.5 C 421.642,45.7993 423.809,47.4659 425,50.5C 436.504,73.851 442.671,98.5177 443.5,124.5C 440.729,124.579 438.063,124.079 435.5,123C 425.156,116.83 415.156,110.163 405.5,103C 401.017,99.864 398.85,95.6973 399,90.5C 402.265,73.9825 408.765,58.9825 418.5,45.5 Z"/></g>
<g><path style="opacity:1" fill="#38302c" d="M 219.5,307.5 C 235.026,308.093 246.026,315.427 252.5,329.5C 234.95,340.91 221.284,355.91 211.5,374.5C 192.825,367.159 184.992,353.493 188,333.5C 192.68,317.643 203.18,308.977 219.5,307.5 Z"/></g>
<g><path style="opacity:1" fill="#3a322e" d="M 390.5,307.5 C 416.167,310.656 427.334,324.99 424,350.5C 419.09,365.243 408.923,373.576 393.5,375.5C 389.081,367.657 384.414,359.991 379.5,352.5C 372.644,346.143 365.977,339.643 359.5,333C 361.947,322.778 367.947,315.445 377.5,311C 381.86,309.417 386.194,308.25 390.5,307.5 Z"/></g>
<g><path style="opacity:1" fill="#f3f3f3" d="M 228.5,324.5 C 237.872,324.414 240.539,328.581 236.5,337C 230.162,340.224 226.162,338.391 224.5,331.5C 225.071,328.687 226.404,326.354 228.5,324.5 Z"/></g>
<g><path style="opacity:1" fill="#f3f3f3" d="M 401.5,324.5 C 410.872,324.414 413.539,328.581 409.5,337C 403.162,340.224 399.162,338.391 397.5,331.5C 398.071,328.687 399.404,326.354 401.5,324.5 Z"/></g>
<g><path style="opacity:1" fill="#38312d" d="M 335.5,419.5 C 332.5,420.5 330.5,422.5 329.5,425.5C 311.66,437.321 293.66,437.488 275.5,426C 260.285,412.347 257.452,396.514 267,378.5C 273.892,372.14 282.059,368.64 291.5,368C 306.303,365.801 320.303,368.134 333.5,375C 343.118,384.849 345.618,396.349 341,409.5C 339.363,412.963 337.529,416.296 335.5,419.5 Z"/></g>
<g><path style="opacity:1" fill="#999694" d="M 335.5,419.5 C 333.833,421.833 331.833,423.833 329.5,425.5C 330.5,422.5 332.5,420.5 335.5,419.5 Z"/></g>
<g><path style="opacity:1" fill="#3a312e" d="M 253.5,455.5 C 253.539,471.388 255.372,487.055 259,502.5C 263.736,518.572 274.236,528.405 290.5,532C 325.798,537.105 345.298,521.938 349,486.5C 350.266,476.207 350.766,465.874 350.5,455.5C 375.964,450.511 400.131,441.845 423,429.5C 423.667,430.167 423.667,430.833 423,431.5C 421.293,433.037 419.793,434.704 418.5,436.5C 414.5,438.5 411.5,441.5 409.5,445.5C 402.833,452.5 396.167,459.5 389.5,466.5C 386.833,467.167 385.167,468.833 384.5,471.5C 379.1,476.746 373.933,482.08 369,487.5C 364.15,494.194 359.65,501.194 355.5,508.5C 342.13,543.131 317.463,555.631 281.5,546C 270.682,541.258 262.349,533.758 256.5,523.5C 250.406,510.968 243.573,498.968 236,487.5C 230.688,481.02 224.854,475.02 218.5,469.5C 217.243,466.573 215.243,464.239 212.5,462.5C 204.806,455.473 197.473,448.14 190.5,440.5C 189.581,437.911 187.914,435.911 185.5,434.5C 183.243,433.438 182.077,431.772 182,429.5C 187.511,434.171 193.677,437.671 200.5,440C 217.961,446.277 235.628,451.444 253.5,455.5 Z"/></g>
<g><path style="opacity:1" fill="#928e8d" d="M 185.5,434.5 C 187.914,435.911 189.581,437.911 190.5,440.5C 188.086,439.089 186.419,437.089 185.5,434.5 Z"/></g>
<g><path style="opacity:1" fill="#938f8e" d="M 418.5,436.5 C 415.833,439.833 412.833,442.833 409.5,445.5C 411.5,441.5 414.5,438.5 418.5,436.5 Z"/></g>
<g><path style="opacity:1" fill="#dd9abe" d="M 350.5,455.5 C 350.766,465.874 350.266,476.207 349,486.5C 345.298,521.938 325.798,537.105 290.5,532C 274.236,528.405 263.736,518.572 259,502.5C 255.372,487.055 253.539,471.388 253.5,455.5C 266.046,458.061 278.713,458.894 291.5,458C 295.095,456.287 298.595,454.453 302,452.5C 305.405,454.453 308.905,456.287 312.5,458C 325.287,458.894 337.954,458.061 350.5,455.5 Z"/></g>
<g><path style="opacity:1" fill="#938f8e" d="M 212.5,462.5 C 215.243,464.239 217.243,466.573 218.5,469.5C 215.757,467.761 213.757,465.427 212.5,462.5 Z"/></g>
<g><path style="opacity:1" fill="#938f8e" d="M 389.5,466.5 C 388.167,468.5 386.5,470.167 384.5,471.5C 385.167,468.833 386.833,467.167 389.5,466.5 Z"/></g>
</svg>
