<?xml version="1.0" encoding="UTF-8"?>
<!DOCTYPE svg PUBLIC "-//W3C//DTD SVG 1.1//EN" "http://www.w3.org/Graphics/SVG/1.1/DTD/svg11.dtd">
<svg xmlns="http://www.w3.org/2000/svg" version="1.1" width="600px" height="600px" style="shape-rendering:geometricPrecision; text-rendering:geometricPrecision; image-rendering:optimizeQuality; fill-rule:evenodd; clip-rule:evenodd" xmlns:xlink="http://www.w3.org/1999/xlink">
<g><path style="opacity:0.961" fill="#020202" d="M 253.5,-0.5 C 283.833,-0.5 314.167,-0.5 344.5,-0.5C 346.741,0.620727 349.075,1.78739 351.5,3C 364.777,1.98413 376.777,5.31747 387.5,13C 399.657,12.9153 409.657,17.4153 417.5,26.5C 429.387,28.5687 438.387,34.7353 444.5,45C 455.123,48.6213 461.956,55.7879 465,66.5C 474.666,72.4942 479.666,81.1609 480,92.5C 487.492,99.3031 489.658,107.47 486.5,117C 489.252,121.422 490.919,126.255 491.5,131.5C 491.048,136.435 489.714,141.101 487.5,145.5C 490.508,155.133 488.342,163.466 481,170.5C 480.333,172.833 480.333,175.167 481,177.5C 482.608,180.772 484.608,183.772 487,186.5C 498.399,197.23 509.066,208.563 519,220.5C 520.608,223.382 521.941,226.382 523,229.5C 523.767,235.322 525.1,240.989 527,246.5C 536.252,261.334 545.252,276.334 554,291.5C 557.865,301.492 560.198,311.825 561,322.5C 565.561,332.725 570.561,342.725 576,352.5C 578.572,358.311 580.572,364.311 582,370.5C 581.956,380.165 581.956,389.832 582,399.5C 586.556,415.332 590.389,431.332 593.5,447.5C 592.775,453.843 590.941,459.843 588,465.5C 586.945,476.808 586.279,488.142 586,499.5C 585.492,508.877 582.825,517.543 578,525.5C 573.348,528.486 569.348,532.153 566,536.5C 561.922,544.991 557.588,553.324 553,561.5C 549.114,568.386 543.614,573.553 536.5,577C 513.844,583.663 491.177,590.329 468.5,597C 457.201,598.717 446.701,596.55 437,590.5C 422.051,586.388 407.218,581.888 392.5,577C 378.333,570.833 368.167,560.667 362,546.5C 354.645,537.979 347.478,529.312 340.5,520.5C 315.699,535.778 290.032,537.278 263.5,525C 261.333,523.5 259.167,522 257,520.5C 244.54,534.093 233.54,548.76 224,564.5C 213.594,573.953 201.428,580.12 187.5,583C 173.954,585.738 160.954,590.071 148.5,596C 144.695,596.961 140.862,597.794 137,598.5C 129.72,597.555 122.553,596.055 115.5,594C 96.0602,586.853 76.3935,580.52 56.5,575C 52.3333,572.167 48.8333,568.667 46,564.5C 40.5873,554.006 34.9206,543.673 29,533.5C 24.3483,530.514 20.3483,526.847 17,522.5C 14.5605,517.078 12.8939,511.412 12,505.5C 11.0613,493.849 10.3947,482.183 10,470.5C 9.81216,466.123 8.47882,462.123 6,458.5C 4,450.833 4,443.167 6,435.5C 9,424.167 12,412.833 15,401.5C 12.4722,384.914 14.4722,368.914 21,353.5C 26.0156,343.469 31.0156,333.469 36,323.5C 37.2797,312.931 39.613,302.598 43,292.5C 52.0816,276.668 61.4149,261.001 71,245.5C 72.2018,237.149 74.5351,229.149 78,221.5C 86.2558,209.909 95.9224,199.575 107,190.5C 111.109,186.39 114.443,181.723 117,176.5C 117.991,174.553 118.325,172.553 118,170.5C 110.274,163.431 108.108,154.931 111.5,145C 105.911,135.574 106.244,126.407 112.5,117.5C 109.178,107.789 111.345,99.4554 119,92.5C 118.86,80.7692 123.86,72.1026 134,66.5C 136.519,55.3041 143.353,48.1374 154.5,45C 160.025,34.5628 168.692,28.5628 180.5,27C 189.301,17.39 200.301,12.39 213.5,12C 223.706,5.08686 235.039,2.08686 247.5,3C 249.727,2.05898 251.727,0.892318 253.5,-0.5 Z"/></g>
<g><path style="opacity:1" fill="#3b3834" d="M 291.5,6.5 C 300.832,6.06622 309.999,7.06622 319,9.5C 330.114,7.03758 340.614,8.53758 350.5,14C 362.012,12.5275 372.345,15.1941 381.5,22C 387.763,23.6953 394.096,25.0287 400.5,26C 405.084,28.5797 409.084,31.9131 412.5,36C 417.5,37.6667 422.5,39.3333 427.5,41C 431.642,44.9623 435.308,49.2956 438.5,54C 448.139,56.6373 453.972,62.804 456,72.5C 459.966,75.464 463.633,78.7974 467,82.5C 468.204,86.7159 468.87,91.0492 469,95.5C 471.667,98.8333 474.333,102.167 477,105.5C 477.626,109.785 477.126,113.952 475.5,118C 477.86,122.224 479.526,126.724 480.5,131.5C 479.572,135.841 478.239,140.008 476.5,144C 477.867,148.087 478.367,152.254 478,156.5C 475.72,160.447 473.053,164.113 470,167.5C 469.667,171.167 469.333,174.833 469,178.5C 467.795,179.071 466.628,179.738 465.5,180.5C 464.027,184.313 461.36,186.647 457.5,187.5C 457.505,196.515 453.338,202.515 445,205.5C 440.323,202.545 435.989,202.878 432,206.5C 430.877,209.249 429.377,211.749 427.5,214C 420.869,216.663 414.202,219.329 407.5,222C 400.634,229.738 391.967,233.405 381.5,233C 377.241,234.934 373.241,237.268 369.5,240C 362.218,241.135 354.885,241.801 347.5,242C 342.129,244.735 336.463,246.568 330.5,247.5C 326.217,246.508 321.884,245.842 317.5,245.5C 311.34,246.611 305.173,247.611 299,248.5C 292.608,247.818 286.274,246.818 280,245.5C 275.762,245.714 271.595,246.381 267.5,247.5C 260.759,245.633 254.092,243.466 247.5,241C 244.161,240.61 240.827,240.776 237.5,241.5C 230.686,240.925 224.686,238.425 219.5,234C 213.212,232.423 206.879,231.089 200.5,230C 197.203,227.705 194.203,225.038 191.5,222C 185.156,219.663 178.822,217.33 172.5,215C 169.882,210.446 166.548,206.446 162.5,203C 158.26,200.65 154.427,201.15 151,204.5C 145.494,201.498 142.494,196.831 142,190.5C 138.058,185.604 133.892,180.937 129.5,176.5C 128.746,173.223 128.246,169.89 128,166.5C 125.667,163.5 123.333,160.5 121,157.5C 120.307,152.878 120.807,148.378 122.5,144C 120.277,140.164 118.944,135.997 118.5,131.5C 119.474,126.724 121.14,122.224 123.5,118C 121.874,113.952 121.374,109.785 122,105.5C 124.667,102.167 127.333,98.8333 130,95.5C 130.13,91.0492 130.796,86.7159 132,82.5C 135.342,78.8258 139.008,75.4925 143,72.5C 144.087,68.2339 145.754,64.2339 148,60.5C 152.29,57.6053 156.79,55.1053 161.5,53C 164.118,48.4459 167.452,44.4459 171.5,41C 176.845,38.9984 182.178,36.9984 187.5,35C 190.586,31.2435 194.252,28.2435 198.5,26C 204.566,24.9912 210.566,23.6578 216.5,22C 220.706,19.3977 225.039,17.0643 229.5,15C 240.141,15.7965 250.141,13.7965 259.5,9C 266.518,8.32452 273.518,8.49119 280.5,9.5C 284.489,9.25533 288.156,8.25533 291.5,6.5 Z"/></g>
<g><path style="opacity:1" fill="#2e2c2b" d="M 124.5,184.5 C 129.131,188.63 133.631,192.963 138,197.5C 138.333,199.833 138.667,202.167 139,204.5C 143.667,208.416 148.167,212.416 152.5,216.5C 169.26,290.885 189.427,364.219 213,436.5C 219.1,452.313 225.767,467.98 233,483.5C 238.058,493.12 244.225,501.953 251.5,510C 243,520.5 234.5,531 226,541.5C 220.168,556.663 209.335,566.163 193.5,570C 176.02,574.285 159.02,579.952 142.5,587C 140.333,587.167 138.167,587.333 136,587.5C 128.739,586.561 121.573,585.061 114.5,583C 98.5278,576.787 82.1945,571.787 65.5,568C 61.7587,566.262 58.592,563.762 56,560.5C 49.9812,547.625 42.8145,535.458 34.5,524C 30.0965,522.052 26.9299,518.886 25,514.5C 23.2738,508.968 22.2738,503.301 22,497.5C 21.6667,488.5 21.3333,479.5 21,470.5C 18.5345,462.573 16.3678,454.573 14.5,446.5C 18.0153,430.438 21.8486,414.438 26,398.5C 26.5662,391.489 26.3995,384.489 25.5,377.5C 25.6155,373.78 26.1155,370.113 27,366.5C 33.3333,353.167 39.6667,339.833 46,326.5C 47.6071,317.818 49.2737,309.152 51,300.5C 60.4947,282.84 70.4947,265.507 81,248.5C 82.5119,243.607 83.5119,238.607 84,233.5C 85.2277,229.941 86.8944,226.608 89,223.5C 98.9699,212.529 109.303,201.863 120,191.5C 121.723,189.283 123.223,186.95 124.5,184.5 Z"/></g>
<g><path style="opacity:1" fill="#2e2c2b" d="M 472.5,185.5 C 483.404,197.908 494.904,209.908 507,221.5C 508.333,223.5 509.667,225.5 511,227.5C 513.322,234.759 515.322,242.093 517,249.5C 525.748,264.666 534.748,279.666 544,294.5C 545,297.167 546,299.833 547,302.5C 547.875,310.25 549.208,317.917 551,325.5C 557.94,339.713 564.607,354.047 571,368.5C 571.893,371.433 572.393,374.433 572.5,377.5C 570.886,384.088 570.386,390.755 571,397.5C 574.353,411.576 578.019,425.576 582,439.5C 582.667,444.167 582.667,448.833 582,453.5C 579.545,457.531 577.879,461.864 577,466.5C 575.898,478.138 575.232,489.805 575,501.5C 574.632,506.304 573.632,510.97 572,515.5C 567.387,520.113 562.721,524.779 558,529.5C 552.667,539.5 547.333,549.5 542,559.5C 536.083,566.256 528.583,569.756 519.5,570C 505.908,574.864 492.241,579.531 478.5,584C 470.729,586.926 462.729,587.926 454.5,587C 450.499,584.778 446.333,582.945 442,581.5C 428.285,576.957 414.452,572.79 400.5,569C 386.088,563.589 375.922,553.755 370,539.5C 361.473,529.607 353.307,519.441 345.5,509C 351.737,503.051 356.903,496.218 361,488.5C 370.55,469.542 378.883,450.208 386,430.5C 408.666,360.015 428.166,288.515 444.5,216C 447.53,211.879 451.53,209.212 456.5,208C 459.889,205.381 461.389,201.881 461,197.5C 465.037,193.631 468.87,189.631 472.5,185.5 Z"/></g>
<g><path style="opacity:1" fill="#838181" d="M 165.5,215.5 C 165.859,217.371 166.859,218.871 168.5,220C 172.187,222.285 176.187,223.452 180.5,223.5C 182.741,224.621 185.075,225.787 187.5,227C 194.888,235.357 204.222,239.357 215.5,239C 219.309,242.238 223.642,244.404 228.5,245.5C 233.61,247.628 238.944,247.962 244.5,246.5C 251.077,248.956 257.744,251.123 264.5,253C 267.039,253.796 269.372,253.629 271.5,252.5C 274.319,252.131 277.152,251.798 280,251.5C 286.274,252.926 292.608,253.926 299,254.5C 305.44,254.14 311.773,253.14 318,251.5C 320.848,251.798 323.681,252.131 326.5,252.5C 334.435,253.911 341.768,252.244 348.5,247.5C 356.979,247.95 365.312,247.117 373.5,245C 377.241,242.268 381.241,239.934 385.5,238C 396.597,238.617 405.597,234.617 412.5,226C 417.002,224.635 421.336,223.135 425.5,221.5C 430.347,220.91 433.347,218.243 434.5,213.5C 435.837,212.685 436.837,211.518 437.5,210C 438.483,209.409 439.15,209.743 439.5,211C 435.644,225.73 432.311,240.563 429.5,255.5C 423.742,274.863 418.742,294.529 414.5,314.5C 406.692,341.716 398.859,369.049 391,396.5C 386.295,411.453 381.129,426.12 375.5,440.5C 375.649,439.448 375.483,438.448 375,437.5C 328.917,390.916 282.417,344.916 235.5,299.5C 245.298,284.932 242.964,272.765 228.5,263C 219.525,260.186 211.192,261.352 203.5,266.5C 189.869,252.368 176.035,238.368 162,224.5C 161.536,225.094 161.369,225.761 161.5,226.5C 159.859,220.617 158.193,214.617 156.5,208.5C 156.833,208.167 157.167,207.833 157.5,207.5C 160.621,209.77 163.287,212.437 165.5,215.5 Z"/></g>
<g><path style="opacity:1" fill="#302e2c" d="M 434.5,213.5 C 433.347,218.243 430.347,220.91 425.5,221.5C 429.105,219.528 432.105,216.861 434.5,213.5 Z"/></g>
<g><path style="opacity:1" fill="#2d2c29" d="M 165.5,215.5 C 169.847,219.505 174.847,222.172 180.5,223.5C 176.187,223.452 172.187,222.285 168.5,220C 166.859,218.871 165.859,217.371 165.5,215.5 Z"/></g>
<g><path style="opacity:1" fill="#868484" d="M 203.5,266.5 C 196.488,274.332 194.655,283.332 198,293.5C 208.367,308.389 220.867,310.389 235.5,299.5C 282.417,344.916 328.917,390.916 375,437.5C 375.483,438.448 375.649,439.448 375.5,440.5C 371.185,454.118 365.519,467.118 358.5,479.5C 348.035,469.535 337.702,459.369 327.5,449C 326.906,448.536 326.239,448.369 325.5,448.5C 320.755,441.724 314.088,438.224 305.5,438C 295.232,436.327 285.566,437.993 276.5,443C 267.955,453.443 268.955,463.11 279.5,472C 283.221,474.527 287.221,476.527 291.5,478C 294.723,481.112 295.223,484.612 293,488.5C 291.769,489.108 290.436,489.441 289,489.5C 282.378,488.547 275.878,487.38 269.5,486C 265.55,488.779 265.55,491.613 269.5,494.5C 277.777,504.114 286.444,513.447 295.5,522.5C 277.567,522.617 263.067,515.617 252,501.5C 242.211,488.265 234.211,473.932 228,458.5C 221.41,442.397 215.41,426.064 210,409.5C 198.746,372.921 188.246,336.254 178.5,299.5C 175.435,284.573 171.768,269.907 167.5,255.5C 165.657,245.794 163.657,236.128 161.5,226.5C 161.369,225.761 161.536,225.094 162,224.5C 176.035,238.368 189.869,252.368 203.5,266.5 Z"/></g>
<g><path style="opacity:1" fill="#2e2d2b" d="M 228.5,245.5 C 233.844,246.613 239.177,246.613 244.5,245.5C 250.078,246.637 255.412,248.471 260.5,251C 264.114,251.936 267.78,252.436 271.5,252.5C 269.372,253.629 267.039,253.796 264.5,253C 257.744,251.123 251.077,248.956 244.5,246.5C 238.944,247.962 233.61,247.628 228.5,245.5 Z"/></g>
<g><path style="opacity:1" fill="#32302e" d="M 348.5,247.5 C 341.768,252.244 334.435,253.911 326.5,252.5C 334.211,252.359 341.544,250.692 348.5,247.5 Z"/></g>
<g><path style="opacity:1" fill="#222121" d="M 429.5,255.5 C 425.258,275.471 420.258,295.137 414.5,314.5C 418.742,294.529 423.742,274.863 429.5,255.5 Z"/></g>
<g><path style="opacity:1" fill="#0d0a09" d="M 235.5,299.5 C 220.867,310.389 208.367,308.389 198,293.5C 194.655,283.332 196.488,274.332 203.5,266.5C 211.192,261.352 219.525,260.186 228.5,263C 242.964,272.765 245.298,284.932 235.5,299.5 Z"/></g>
<g><path style="opacity:1" fill="#0c0a09" d="M 371.5,261.5 C 391.821,259.989 401.321,269.322 400,289.5C 393.786,304.575 382.953,309.408 367.5,304C 353.598,293.307 351.931,280.973 362.5,267C 365.263,264.626 368.263,262.792 371.5,261.5 Z"/></g>
<g><path style="opacity:1" fill="#362e2a" d="M 229.5,271.5 C 222.801,271.312 220.801,274.312 223.5,280.5C 225.656,282.938 227.989,283.105 230.5,281C 232.155,279.556 232.822,277.722 232.5,275.5C 237.96,286.916 234.627,295.082 222.5,300C 206.628,300.147 200.295,292.313 203.5,276.5C 210.722,266.586 219.389,264.92 229.5,271.5 Z"/></g>
<g><path style="opacity:1" fill="#362e2a" d="M 388.5,271.5 C 390.017,271.511 391.184,272.177 392,273.5C 397.788,291.434 391.288,300.267 372.5,300C 361.423,293.45 358.923,284.617 365,273.5C 369.884,267.78 376.05,265.947 383.5,268C 385.584,268.697 387.251,269.864 388.5,271.5 Z"/></g>
<g><path style="opacity:1" fill="#212020" d="M 167.5,255.5 C 171.768,269.907 175.435,284.573 178.5,299.5C 173.917,285.169 170.251,270.502 167.5,255.5 Z"/></g>
<g><path style="opacity:1" fill="#ebeaea" d="M 229.5,271.5 C 231.262,272.262 232.262,273.596 232.5,275.5C 232.822,277.722 232.155,279.556 230.5,281C 227.989,283.105 225.656,282.938 223.5,280.5C 220.801,274.312 222.801,271.312 229.5,271.5 Z"/></g>
<g><path style="opacity:1" fill="#ececec" d="M 388.5,271.5 C 393.292,278.737 391.292,281.904 382.5,281C 379.197,274.769 381.197,271.602 388.5,271.5 Z"/></g>
<g><path style="opacity:1" fill="#020202" d="M 325.5,448.5 C 328.334,458.834 325.334,467.001 316.5,473C 312.912,474.923 309.246,476.756 305.5,478.5C 303.564,481.208 303.064,484.208 304,487.5C 305.299,488.98 306.966,489.646 309,489.5C 315.612,488.506 322.112,487.339 328.5,486C 331.917,488.321 332.25,490.988 329.5,494C 309.497,499.732 289.497,499.899 269.5,494.5C 265.55,491.613 265.55,488.779 269.5,486C 275.878,487.38 282.378,488.547 289,489.5C 290.436,489.441 291.769,489.108 293,488.5C 295.223,484.612 294.723,481.112 291.5,478C 287.221,476.527 283.221,474.527 279.5,472C 268.955,463.11 267.955,453.443 276.5,443C 285.566,437.993 295.232,436.327 305.5,438C 314.088,438.224 320.755,441.724 325.5,448.5 Z"/></g>
<g><path style="opacity:1" fill="#828080" d="M 325.5,448.5 C 326.239,448.369 326.906,448.536 327.5,449C 337.702,459.369 348.035,469.535 358.5,479.5C 352.349,493.16 343.349,504.66 331.5,514C 320.452,520.718 308.452,523.551 295.5,522.5C 286.444,513.447 277.777,504.114 269.5,494.5C 289.497,499.899 309.497,499.732 329.5,494C 332.25,490.988 331.917,488.321 328.5,486C 322.112,487.339 315.612,488.506 309,489.5C 306.966,489.646 305.299,488.98 304,487.5C 303.064,484.208 303.564,481.208 305.5,478.5C 309.246,476.756 312.912,474.923 316.5,473C 325.334,467.001 328.334,458.834 325.5,448.5 Z"/></g>
</svg>
