<?xml version="1.0" encoding="UTF-8"?>
<!DOCTYPE svg PUBLIC "-//W3C//DTD SVG 1.1//EN" "http://www.w3.org/Graphics/SVG/1.1/DTD/svg11.dtd">
<svg xmlns="http://www.w3.org/2000/svg" version="1.1" width="600px" height="600px" style="shape-rendering:geometricPrecision; text-rendering:geometricPrecision; image-rendering:optimizeQuality; fill-rule:evenodd; clip-rule:evenodd" xmlns:xlink="http://www.w3.org/1999/xlink">
<g><path style="opacity:0.967" fill="#030202" d="M 101.5,-0.5 C 110.5,-0.5 119.5,-0.5 128.5,-0.5C 139.687,11.5029 150.187,24.1696 160,37.5C 182.002,68.1546 202.002,100.155 220,133.5C 221.333,138.167 222.667,142.833 224,147.5C 274.03,130.565 324.197,130.232 374.5,146.5C 376.505,139.989 379.005,133.656 382,127.5C 405.254,86.596 431.254,47.596 460,10.5C 463.704,6.96427 467.204,3.2976 470.5,-0.5C 479.5,-0.5 488.5,-0.5 497.5,-0.5C 503.651,11.0801 507.818,23.4134 510,36.5C 517.853,73.1349 523.186,110.135 526,147.5C 526.896,162.541 526.563,177.541 525,192.5C 522.728,202.048 519.061,211.048 514,219.5C 505.495,233.179 496.495,246.512 487,259.5C 489.95,273.323 492.283,287.323 494,301.5C 495.74,324.169 493.74,346.502 488,368.5C 479.681,413.546 460.681,453.213 431,487.5C 424.141,496.885 419.141,507.218 416,518.5C 412.794,532.862 409.461,547.196 406,561.5C 401.914,578.395 392.414,591.062 377.5,599.5C 326.5,599.5 275.5,599.5 224.5,599.5C 209.322,591.79 199.822,579.456 196,562.5C 192.207,547.201 188.54,531.868 185,516.5C 181.997,506.828 177.664,497.828 172,489.5C 146.223,460.656 128.557,427.322 119,389.5C 111.862,365.836 107.695,341.67 106.5,317C 107.001,299.161 109.667,281.661 114.5,264.5C 105.099,250.71 95.9321,236.71 87,222.5C 78.9603,210.714 74.2936,197.714 73,183.5C 72.98,127.304 79.98,71.9703 94,17.5C 95.7023,11.1042 98.2023,5.10419 101.5,-0.5 Z"/></g>
<g><path style="opacity:1" fill="#534b4a" d="M 111.5,4.5 C 115.219,4.00249 118.553,4.83582 121.5,7C 156.026,47.546 185.859,91.3794 211,138.5C 211.988,141.424 212.654,144.424 213,147.5C 213.237,152.592 213.404,157.592 213.5,162.5C 248.062,148.011 284.062,142.511 321.5,146C 342.824,147.997 363.49,152.831 383.5,160.5C 383.96,151.354 386.127,142.687 390,134.5C 414.926,89.5896 443.759,47.4229 476.5,8C 480.931,3.64619 485.431,3.47952 490,7.5C 493.793,14.4202 496.46,21.7535 498,29.5C 507.25,69.6692 513.25,110.336 516,151.5C 517.233,167.001 516.233,182.334 513,197.5C 502.557,219.566 489.723,240.066 474.5,259C 484.572,289.569 486.739,320.736 481,352.5C 475.19,383.597 465.19,413.263 451,441.5C 438.58,460.007 425.913,478.341 413,496.5C 407.26,510.471 402.927,524.804 400,539.5C 398.881,527.024 395.881,515.024 391,503.5C 383.175,487.847 374.842,472.514 366,457.5C 351.711,427.676 342.711,396.343 339,363.5C 338.09,310.819 336.756,258.152 335,205.5C 333.842,188.359 328.509,172.692 319,158.5C 306.667,146.5 294.333,146.5 282,158.5C 275.774,167.287 271.441,176.954 269,187.5C 266.574,200.053 265.241,212.72 265,225.5C 263.992,273.166 262.992,320.833 262,368.5C 256.613,403.996 245.613,437.662 229,469.5C 214.708,490.09 205.374,512.756 201,537.5C 198.345,522.203 193.679,507.536 187,493.5C 176,478.167 165,462.833 154,447.5C 136.352,414.556 124.685,379.556 119,342.5C 117.667,328.521 117.334,314.521 118,300.5C 120.021,286.708 122.354,273.042 125,259.5C 108.895,239.641 95.5619,217.974 85,194.5C 82.8574,135.301 89.1907,76.9673 104,19.5C 105.464,13.9173 107.964,8.91728 111.5,4.5 Z"/></g>
<g><path style="opacity:1" fill="#68635f" d="M 116.5,34.5 C 122.607,34.6408 127.44,37.3075 131,42.5C 148.177,64.8314 162.843,88.8314 175,114.5C 181.988,129.435 184.988,145.101 184,161.5C 182.179,169.629 179.179,177.296 175,184.5C 166.565,197.267 156.399,208.433 144.5,218C 137.745,221.598 131.411,220.931 125.5,216C 101.793,195.367 93.2926,169.534 100,138.5C 102.279,107.654 105.946,76.987 111,46.5C 112.043,42.0845 113.876,38.0845 116.5,34.5 Z"/></g>
<g><path style="opacity:1" fill="#68635f" d="M 476.5,34.5 C 479.97,33.8748 482.804,34.8748 485,37.5C 487.55,43.2455 489.216,49.2455 490,55.5C 496.625,95.5751 499.625,135.908 499,176.5C 498.605,180.019 497.605,183.352 496,186.5C 488.602,197.9 480.435,208.733 471.5,219C 469.232,220.552 466.732,221.385 464,221.5C 459.422,220.628 455.255,218.795 451.5,216C 435.298,202.149 423.465,185.315 416,165.5C 413.714,149.66 415.714,134.327 422,119.5C 435.703,88.0429 453.869,59.7096 476.5,34.5 Z"/></g>
<g><path style="opacity:1" fill="#f5f2ef" d="M 389.5,539.5 C 389.666,543.846 389.499,548.179 389,552.5C 378,541.5 367,530.5 356,519.5C 355.517,518.552 355.351,517.552 355.5,516.5C 358.753,499.508 352.753,487.008 337.5,479C 316.141,471.596 294.474,470.596 272.5,476C 248.281,483.605 240.448,499.438 249,523.5C 252.977,530.974 258.477,536.974 265.5,541.5C 280.912,558.415 296.912,574.915 313.5,591C 312.906,591.464 312.239,591.631 311.5,591.5C 307.76,591.759 304.094,591.426 300.5,590.5C 283.309,593.646 265.976,595.146 248.5,595C 228.131,591.631 215.964,579.798 212,559.5C 209.761,543.655 211.761,528.321 218,513.5C 229.24,492.02 240.24,470.354 251,448.5C 261.755,422.814 268.755,396.147 272,368.5C 273.182,324.505 274.182,280.505 275,236.5C 275.304,222.782 276.304,209.115 278,195.5C 280.08,182.56 285.58,171.394 294.5,162C 298.5,160 302.5,160 306.5,162C 313.506,168.84 318.339,177.007 321,186.5C 323.307,194.676 324.64,203.009 325,211.5C 326.868,254.479 327.868,297.479 328,340.5C 328.071,382.188 337.071,421.855 355,459.5C 363.333,474.833 371.667,490.167 380,505.5C 385.106,516.315 388.273,527.648 389.5,539.5 Z"/></g>
<g><path style="opacity:1" fill="#c08b43" d="M 208.5,295.5 C 232.926,293.446 248.426,304.113 255,327.5C 255.768,349.059 245.935,363.226 225.5,370C 202.231,372.618 187.064,362.784 180,340.5C 177.923,317.957 187.423,302.957 208.5,295.5 Z"/></g>
<g><path style="opacity:1" fill="#c08b43" d="M 375.5,295.5 C 398.593,292.953 413.759,302.619 421,324.5C 423.531,347.283 414.031,362.45 392.5,370C 369.198,372.605 354.031,362.771 347,340.5C 344.569,317.794 354.069,302.794 375.5,295.5 Z"/></g>
<g><path style="opacity:1" fill="#372f2c" d="M 209.5,306.5 C 229.785,303.805 241.452,312.471 244.5,332.5C 240.858,354.293 228.192,362.793 206.5,358C 192.11,349.498 187.61,337.331 193,321.5C 196.822,314.504 202.322,309.504 209.5,306.5 Z"/></g>
<g><path style="opacity:1" fill="#372f2c" d="M 377.5,306.5 C 396.732,304.604 408.065,313.104 411.5,332C 409.276,352.448 397.943,361.448 377.5,359C 362.181,353.538 355.681,342.705 358,326.5C 361.386,316.616 367.886,309.949 377.5,306.5 Z"/></g>
<g><path style="opacity:1" fill="#f3f3f3" d="M 207.5,316.5 C 216.049,316.521 218.716,320.354 215.5,328C 207.246,331.081 203.746,328.248 205,319.5C 206.045,318.627 206.878,317.627 207.5,316.5 Z"/></g>
<g><path style="opacity:1" fill="#f4f4f4" d="M 374.5,316.5 C 381.825,315.992 384.658,319.326 383,326.5C 378.648,330.665 374.648,330.331 371,325.5C 370.481,321.868 371.647,318.868 374.5,316.5 Z"/></g>
<g><path style="opacity:1" fill="#060505" d="M 355.5,516.5 C 349.858,530.313 340.192,540.48 326.5,547C 305.05,557.106 284.716,555.272 265.5,541.5C 258.477,536.974 252.977,530.974 249,523.5C 240.448,499.438 248.281,483.605 272.5,476C 294.474,470.596 316.141,471.596 337.5,479C 352.753,487.008 358.753,499.508 355.5,516.5 Z"/></g>
<g><path style="opacity:1" fill="#362e2b" d="M 284.5,483.5 C 295.172,483.333 305.839,483.5 316.5,484C 323.948,485.086 330.948,487.419 337.5,491C 345.11,497.098 347.61,504.932 345,514.5C 341.286,522.545 335.786,529.045 328.5,534C 316.54,541.879 303.54,544.545 289.5,542C 277.709,537.859 267.876,531.025 260,521.5C 252.543,509.206 254.377,498.706 265.5,490C 271.59,486.738 277.924,484.571 284.5,483.5 Z"/></g>
<g><path style="opacity:1" fill="#eae7e4" d="M 355.5,516.5 C 355.351,517.552 355.517,518.552 356,519.5C 367,530.5 378,541.5 389,552.5C 389.499,548.179 389.666,543.846 389.5,539.5C 391.776,580.052 372.442,598.552 331.5,595C 324.609,594.312 317.943,593.146 311.5,591.5C 312.239,591.631 312.906,591.464 313.5,591C 296.912,574.915 280.912,558.415 265.5,541.5C 284.716,555.272 305.05,557.106 326.5,547C 340.192,540.48 349.858,530.313 355.5,516.5 Z"/></g>
</svg>
