<?xml version="1.0" encoding="UTF-8"?>
<!DOCTYPE svg PUBLIC "-//W3C//DTD SVG 1.1//EN" "http://www.w3.org/Graphics/SVG/1.1/DTD/svg11.dtd">
<svg xmlns="http://www.w3.org/2000/svg" version="1.1" width="600px" height="600px" style="shape-rendering:geometricPrecision; text-rendering:geometricPrecision; image-rendering:optimizeQuality; fill-rule:evenodd; clip-rule:evenodd" xmlns:xlink="http://www.w3.org/1999/xlink">
<g><path style="opacity:0.949" fill="#020101" d="M 599.5,170.5 C 599.5,172.833 599.5,175.167 599.5,177.5C 597.869,187.226 594.702,196.559 590,205.5C 575.667,225.5 561.333,245.5 547,265.5C 542.611,274.718 539.611,284.385 538,294.5C 537.163,296.844 535.829,298.844 534,300.5C 533.586,315.169 533.753,329.835 534.5,344.5C 535.415,367.996 532.582,390.996 526,413.5C 519.859,427.645 510.692,439.479 498.5,449C 485.883,457.949 473.55,467.283 461.5,477C 448.167,491 434.833,505 421.5,519C 399.052,539.728 372.719,553.062 342.5,559C 303.139,566.262 264.473,563.595 226.5,551C 207.677,543.164 190.677,532.498 175.5,519C 162.167,505 148.833,491 135.5,477C 117.176,463.912 99.6757,449.745 83,434.5C 74.0888,423.34 68.4222,410.673 66,396.5C 64.1895,385.912 63.1895,375.246 63,364.5C 62.6828,343.161 62.6828,321.828 63,300.5C 61.1706,298.844 59.8372,296.844 59,294.5C 57.6685,283.502 54.3351,273.169 49,263.5C 35.422,245.344 22.0887,227.01 9,208.5C 5.23533,201.647 2.06867,194.647 -0.5,187.5C -0.5,178.833 -0.5,170.167 -0.5,161.5C 3.57361,149.244 11.2403,139.744 22.5,133C 66.6432,110.43 110.31,87.0969 153.5,63C 163.878,57.1421 174.878,52.9754 186.5,50.5C 193.899,51.4028 200.232,54.4028 205.5,59.5C 267.802,35.7365 330.469,34.7365 393.5,56.5C 398.842,53.7185 404.509,51.7185 410.5,50.5C 417.844,51.5854 424.844,53.7521 431.5,57C 481.008,83.9211 530.674,110.588 580.5,137C 591.16,145.831 597.493,156.998 599.5,170.5 Z"/></g>
<g><path style="opacity:1" fill="#e3d8c8" d="M 396.5,68.5 C 396.276,75.9596 398.443,82.6263 403,88.5C 416.629,99.794 429.963,111.461 443,123.5C 464.326,149.143 479.659,178.143 489,210.5C 495.334,233.838 501.668,257.172 508,280.5C 509.746,284.327 511.746,287.993 514,291.5C 516.421,293.697 519.255,295.03 522.5,295.5C 523.591,321.82 523.758,348.154 523,374.5C 522.287,384.311 520.787,393.978 518.5,403.5C 499.752,386.254 481.418,368.42 463.5,350C 462.906,349.536 462.239,349.369 461.5,349.5C 465.105,338.87 468.938,327.87 473,316.5C 485.443,286.018 481.109,258.351 460,233.5C 444.096,215.304 424.596,202.804 401.5,196C 384.048,191.975 371.881,198.142 365,214.5C 362.324,225.529 358.657,236.196 354,246.5C 353.255,247.99 352.088,248.99 350.5,249.5C 315.688,236.2 280.855,236.2 246,249.5C 244.098,247.373 242.431,245.04 241,242.5C 237.693,233.273 234.693,223.939 232,214.5C 224.225,196.896 211.058,191.063 192.5,197C 163.115,206.726 140.615,224.892 125,251.5C 116.563,268.913 115.23,286.913 121,305.5C 125.636,320.406 130.469,335.24 135.5,350C 119.811,374.886 119.644,399.719 135,424.5C 138.167,427.667 141.333,430.833 144.5,434C 147.48,436.324 150.813,437.824 154.5,438.5C 155.348,448.546 158.848,457.546 165,465.5C 174.073,476.12 184.906,484.453 197.5,490.5C 215.246,509.748 233.58,528.582 252.5,547C 252.272,547.399 251.938,547.565 251.5,547.5C 229.013,543.069 209.013,533.569 191.5,519C 175.8,504.968 161.134,489.968 147.5,474C 132.015,461.426 116.348,449.092 100.5,437C 85.8456,424.528 77.3456,408.694 75,389.5C 73.2793,357.832 73.1126,326.166 74.5,294.5C 78.4257,294.953 81.5923,293.62 84,290.5C 86.3772,286.71 88.3772,282.71 90,278.5C 94.9774,260.591 99.6441,242.591 104,224.5C 112.487,191.995 126.154,161.995 145,134.5C 148.667,130.167 152.333,125.833 156,121.5C 168.704,109.794 181.704,98.4604 195,87.5C 198.125,82.9585 199.958,77.9585 200.5,72.5C 265.287,46.0339 330.621,44.7006 396.5,68.5 Z"/></g>
<g><path style="opacity:1" fill="#362e2c" d="M 200.5,72.5 C 199.958,77.9585 198.125,82.9585 195,87.5C 181.704,98.4604 168.704,109.794 156,121.5C 152.333,125.833 148.667,130.167 145,134.5C 126.154,161.995 112.487,191.995 104,224.5C 99.6441,242.591 94.9774,260.591 90,278.5C 88.3772,282.71 86.3772,286.71 84,290.5C 81.5923,293.62 78.4257,294.953 74.5,294.5C 71.7081,294.548 69.8747,293.215 69,290.5C 67.6078,280.324 64.6078,270.657 60,261.5C 47.0535,242.887 33.7202,224.553 20,206.5C 13.1777,196.367 9.34441,185.2 8.5,173C 10.2071,158.933 17.2071,148.267 29.5,141C 77.8162,116.176 125.816,90.8429 173.5,65C 180.412,61.2287 187.412,60.8953 194.5,64C 197.395,66.3218 199.395,69.1552 200.5,72.5 Z"/></g>
<g><path style="opacity:1" fill="#362e2c" d="M 522.5,295.5 C 519.255,295.03 516.421,293.697 514,291.5C 511.746,287.993 509.746,284.327 508,280.5C 501.668,257.172 495.334,233.838 489,210.5C 479.659,178.143 464.326,149.143 443,123.5C 429.963,111.461 416.629,99.794 403,88.5C 398.443,82.6263 396.276,75.9596 396.5,68.5C 398.886,67.6267 400.886,66.1267 402.5,64C 404.768,62.4481 407.268,61.6148 410,61.5C 414.64,62.1183 419.14,63.2849 423.5,65C 473.5,91.6667 523.5,118.333 573.5,145C 588.796,157.573 592.63,173.073 585,191.5C 582.174,197.822 578.841,203.822 575,209.5C 562.756,225.656 550.756,241.989 539,258.5C 533.034,268.683 529.367,279.683 528,291.5C 526.5,293.469 524.667,294.802 522.5,295.5 Z"/></g>
<g><path style="opacity:1" fill="#d7c9b6" d="M 295.5,139.5 C 301.913,138.448 305.413,141.115 306,147.5C 306.667,173.167 306.667,198.833 306,224.5C 301.049,231.154 296.049,231.154 291,224.5C 290.333,199.833 290.333,175.167 291,150.5C 291.823,146.5 293.323,142.834 295.5,139.5 Z"/></g>
<g><path style="opacity:1" fill="#d7c9b6" d="M 227.5,169.5 C 231.747,169.178 235.747,170.011 239.5,172C 248.204,179.711 254.037,189.211 257,200.5C 260.209,210.053 260.876,219.719 259,229.5C 256.643,234.366 253.31,235.366 249,232.5C 246.977,210.799 239.644,191.133 227,173.5C 226.421,172.072 226.588,170.738 227.5,169.5 Z"/></g>
<g><path style="opacity:1" fill="#d7c9b6" d="M 362.5,169.5 C 364.857,169.337 367.19,169.503 369.5,170C 370.554,171.388 370.72,172.888 370,174.5C 360.943,185.645 354.943,198.312 352,212.5C 351.163,218.532 350.163,224.532 349,230.5C 344.993,235.975 341.326,235.642 338,229.5C 336.009,211.461 340.009,194.795 350,179.5C 353.512,175.134 357.679,171.801 362.5,169.5 Z"/></g>
<g><path style="opacity:1" fill="#0a0908" d="M 461.5,349.5 C 474.524,370.371 476.691,392.371 468,415.5C 462.872,426.439 454.706,434.106 443.5,438.5C 440.324,455.829 431.657,469.662 417.5,480C 391.018,496.652 362.018,506.319 330.5,509C 292.126,513.108 254.459,509.775 217.5,499C 210.652,496.445 203.986,493.611 197.5,490.5C 184.906,484.453 174.073,476.12 165,465.5C 158.848,457.546 155.348,448.546 154.5,438.5C 150.813,437.824 147.48,436.324 144.5,434C 141.333,430.833 138.167,427.667 135,424.5C 119.644,399.719 119.811,374.886 135.5,350C 130.469,335.24 125.636,320.406 121,305.5C 115.23,286.913 116.563,268.913 125,251.5C 140.615,224.892 163.115,206.726 192.5,197C 211.058,191.063 224.225,196.896 232,214.5C 234.693,223.939 237.693,233.273 241,242.5C 242.431,245.04 244.098,247.373 246,249.5C 280.855,236.2 315.688,236.2 350.5,249.5C 352.088,248.99 353.255,247.99 354,246.5C 358.657,236.196 362.324,225.529 365,214.5C 371.881,198.142 384.048,191.975 401.5,196C 424.596,202.804 444.096,215.304 460,233.5C 481.109,258.351 485.443,286.018 473,316.5C 468.938,327.87 465.105,338.87 461.5,349.5 Z"/></g>
<g><path style="opacity:1" fill="#615752" d="M 244.5,255.5 C 217.168,268.963 193.335,287.296 173,310.5C 162.238,322.592 152.238,335.258 143,348.5C 142.329,349.252 141.496,349.586 140.5,349.5C 135.243,333.56 130.076,317.56 125,301.5C 120.041,283.941 122.041,267.275 131,251.5C 146.794,226.384 168.961,209.551 197.5,201C 212.779,197.89 222.945,203.723 228,218.5C 230.55,231.402 235.216,243.402 242,254.5C 242.671,255.252 243.504,255.586 244.5,255.5 Z"/></g>
<g><path style="opacity:1" fill="#615752" d="M 455.5,350.5 C 439.763,327.966 421.763,307.132 401.5,288C 386.645,275.411 370.645,264.578 353.5,255.5C 356.135,252.921 358.301,249.921 360,246.5C 363.615,237.379 366.615,228.046 369,218.5C 373.146,204.664 382.312,198.497 396.5,200C 425.809,207.657 448.642,224.157 465,249.5C 470.902,259.206 474.402,269.706 475.5,281C 474.772,289.308 473.272,297.475 471,305.5C 466.528,318.415 462.361,331.415 458.5,344.5C 454.698,343.221 451.531,340.888 449,337.5C 451.279,341.659 453.446,345.993 455.5,350.5 Z"/></g>
<g><path style="opacity:1" fill="#030203" d="M 173.5,234.5 C 195.33,234.162 205.83,244.829 205,266.5C 200.041,281.736 189.541,288.569 173.5,287C 154.122,279.204 148.622,265.704 157,246.5C 161.256,240.737 166.756,236.737 173.5,234.5 Z"/></g>
<g><path style="opacity:1" fill="#020203" d="M 412.5,234.5 C 430.773,233.285 441.44,241.618 444.5,259.5C 441.376,282.114 428.71,290.614 406.5,285C 395.106,278.043 390.273,267.877 392,254.5C 395.444,244.221 402.278,237.554 412.5,234.5 Z"/></g>
<g><path style="opacity:1" fill="#362e2c" d="M 353.5,255.5 C 370.645,264.578 386.645,275.411 401.5,288C 421.763,307.132 439.763,327.966 455.5,350.5C 469.738,370.385 472.238,391.718 463,414.5C 460.015,419.311 456.515,423.644 452.5,427.5C 412.835,386.168 372.501,345.501 331.5,305.5C 326.049,298.273 318.716,294.439 309.5,294C 295.785,291.821 282.785,293.821 270.5,300C 262.977,306.93 260.477,315.43 263,325.5C 268.417,340.416 278.917,349.416 294.5,352.5C 294.666,359.508 294.5,366.508 294,373.5C 293.949,380.722 291.616,387.055 287,392.5C 252.543,426.545 211.043,441.378 162.5,437C 165.891,438.952 169.558,440.285 173.5,441C 200.452,443.478 226.452,439.478 251.5,429C 261.5,424 271.5,419 281.5,414C 293.939,410.439 306.272,410.772 318.5,415C 345.177,431.504 374.177,440.67 405.5,442.5C 415.571,442.372 425.238,440.706 434.5,437.5C 435.467,436.194 436.801,435.527 438.5,435.5C 437.229,450.875 430.562,463.375 418.5,473C 392.746,491.032 364.079,501.366 332.5,504C 294.871,508.391 257.871,505.391 221.5,495C 205.383,489.943 190.716,482.276 177.5,472C 166.55,462.268 160.217,450.101 158.5,435.5C 138.823,426.945 128.823,411.778 128.5,390C 128.628,384.065 129.461,378.232 131,372.5C 133.651,364.543 136.818,356.876 140.5,349.5C 141.496,349.586 142.329,349.252 143,348.5C 152.238,335.258 162.238,322.592 173,310.5C 193.335,287.296 217.168,268.963 244.5,255.5C 270.936,244.016 298.269,241.183 326.5,247C 335.693,249.343 344.693,252.176 353.5,255.5 Z"/></g>
<g><path style="opacity:1" fill="#f7f7f7" d="M 183.5,248.5 C 191.486,247.998 193.486,251.165 189.5,258C 181.424,258.805 179.424,255.638 183.5,248.5 Z"/></g>
<g><path style="opacity:1" fill="#f0f0f0" d="M 423.5,248.5 C 429.597,247.263 432.43,249.597 432,255.5C 428.952,259.01 425.619,259.343 422,256.5C 421.109,253.502 421.609,250.836 423.5,248.5 Z"/></g>
<g><path style="opacity:1" fill="#010000" d="M 331.5,305.5 C 338.141,321.423 334.475,334.59 320.5,345C 315.071,348.881 309.071,351.381 302.5,352.5C 302.616,362.891 303.449,373.225 305,383.5C 311.073,394.24 319.239,403.074 329.5,410C 361.433,431.232 396.433,440.399 434.5,437.5C 425.238,440.706 415.571,442.372 405.5,442.5C 374.177,440.67 345.177,431.504 318.5,415C 306.272,410.772 293.939,410.439 281.5,414C 271.5,419 261.5,424 251.5,429C 226.452,439.478 200.452,443.478 173.5,441C 169.558,440.285 165.891,438.952 162.5,437C 211.043,441.378 252.543,426.545 287,392.5C 291.616,387.055 293.949,380.722 294,373.5C 294.5,366.508 294.666,359.508 294.5,352.5C 278.917,349.416 268.417,340.416 263,325.5C 260.477,315.43 262.977,306.93 270.5,300C 282.785,293.821 295.785,291.821 309.5,294C 318.716,294.439 326.049,298.273 331.5,305.5 Z"/></g>
<g><path style="opacity:1" fill="#2f2725" d="M 331.5,305.5 C 372.501,345.501 412.835,386.168 452.5,427.5C 448.489,431.177 443.822,433.843 438.5,435.5C 436.801,435.527 435.467,436.194 434.5,437.5C 396.433,440.399 361.433,431.232 329.5,410C 319.239,403.074 311.073,394.24 305,383.5C 303.449,373.225 302.616,362.891 302.5,352.5C 309.071,351.381 315.071,348.881 320.5,345C 334.475,334.59 338.141,321.423 331.5,305.5 Z"/></g>
<g><path style="opacity:1" fill="#d5c7b4" d="M 461.5,349.5 C 462.239,349.369 462.906,349.536 463.5,350C 481.418,368.42 499.752,386.254 518.5,403.5C 514.897,416.541 507.897,427.374 497.5,436C 482.167,448 466.833,460 451.5,472C 435.132,491.368 417.132,509.035 397.5,525C 373.682,541.062 347.349,550.062 318.5,552C 305.167,552.667 291.833,552.667 278.5,552C 269.19,551.56 260.19,550.06 251.5,547.5C 251.938,547.565 252.272,547.399 252.5,547C 233.58,528.582 215.246,509.748 197.5,490.5C 203.986,493.611 210.652,496.445 217.5,499C 254.459,509.775 292.126,513.108 330.5,509C 362.018,506.319 391.018,496.652 417.5,480C 431.657,469.662 440.324,455.829 443.5,438.5C 454.706,434.106 462.872,426.439 468,415.5C 476.691,392.371 474.524,370.371 461.5,349.5 Z"/></g>
</svg>
