<?xml version="1.0" encoding="UTF-8"?>
<!DOCTYPE svg PUBLIC "-//W3C//DTD SVG 1.1//EN" "http://www.w3.org/Graphics/SVG/1.1/DTD/svg11.dtd">
<svg xmlns="http://www.w3.org/2000/svg" version="1.1" width="600px" height="600px" style="shape-rendering:geometricPrecision; text-rendering:geometricPrecision; image-rendering:optimizeQuality; fill-rule:evenodd; clip-rule:evenodd" xmlns:xlink="http://www.w3.org/1999/xlink">
<g><path style="opacity:0.971" fill="#040302" d="M 599.5,242.5 C 599.5,258.833 599.5,275.167 599.5,291.5C 573.837,339.668 538.17,378.835 492.5,409C 487.795,411.234 482.961,413.068 478,414.5C 469.25,432.252 456.584,446.586 440,457.5C 435.454,473.041 426.121,484.708 412,492.5C 406.337,510.829 394.17,522.329 375.5,527C 364.167,530.333 352.833,530.333 341.5,527C 331.712,524.404 322.045,521.404 312.5,518C 304.924,515.26 297.257,514.927 289.5,517C 273.512,523.289 257.012,527.455 240,529.5C 218.979,529.162 202.646,520.496 191,503.5C 189.333,499.5 187.667,495.5 186,491.5C 171.826,483.664 162.493,471.997 158,456.5C 143.542,446.04 131.875,433.04 123,417.5C 112.465,414.649 102.965,409.816 94.5,403C 54.2209,372.572 22.5542,335.072 -0.5,290.5C -0.5,274.833 -0.5,259.167 -0.5,243.5C 5.41937,233.062 13.086,223.896 22.5,216C 58.633,187.757 98.2997,165.424 141.5,149C 154.313,145.485 167.313,144.152 180.5,145C 236.436,115.132 295.436,107.132 357.5,121C 379.065,125.952 399.398,133.952 418.5,145C 437.668,143.566 456.001,146.9 473.5,155C 512.871,171.435 548.871,193.101 581.5,220C 588.504,226.822 594.504,234.322 599.5,242.5 Z"/></g>
<g><path style="opacity:1" fill="#cfa267" d="M 242.5,311.5 C 247.047,295.199 242.714,281.365 229.5,270C 203.73,258.141 185.563,265.308 175,291.5C 172.992,309.319 179.826,322.486 195.5,331C 198.952,331.885 202.286,332.718 205.5,333.5C 171.372,361.208 154.539,397.208 155,441.5C 144.035,431.546 135.535,419.88 129.5,406.5C 135.105,405.395 138.605,402.062 140,396.5C 140.667,389.833 140.667,383.167 140,376.5C 130.427,331.552 130.094,286.552 139,241.5C 142.78,222.284 150.113,204.617 161,188.5C 163.537,185.628 166.37,183.128 169.5,181C 176.594,177.706 183.094,173.54 189,168.5C 191.92,163.09 190.42,159.59 184.5,158C 183.748,157.329 183.414,156.496 183.5,155.5C 207.844,140.663 234.177,131.497 262.5,128C 236.288,140.583 225.455,161.417 230,190.5C 231.922,201.933 235.256,212.933 240,223.5C 249.1,240.364 257.1,257.698 264,275.5C 265.535,285.913 264.202,295.913 260,305.5C 254.272,307.798 248.438,309.798 242.5,311.5 Z"/></g>
<g><path style="opacity:1" fill="#cfa267" d="M 417.5,156.5 C 406.833,159.668 405.833,164.834 414.5,172C 423.502,176.669 431.669,182.503 439,189.5C 449.108,205.141 456.108,222.141 460,240.5C 468.905,286.244 468.572,331.91 459,377.5C 457.928,385.029 458.595,392.362 461,399.5C 463.843,402.163 467.009,404.163 470.5,405.5C 469.601,408.395 468.267,411.062 466.5,413.5C 457.853,406.483 449.52,398.983 441.5,391C 439.266,389.25 436.932,387.75 434.5,386.5C 425.309,366.309 412.309,348.976 395.5,334.5C 402.224,332.06 408.557,328.56 414.5,324C 426.818,308.75 427.651,292.916 417,276.5C 407.288,266.441 395.454,262.607 381.5,265C 360.308,273.053 352.308,288.053 357.5,310C 357.43,310.765 357.097,311.265 356.5,311.5C 350.562,309.798 344.728,307.798 339,305.5C 334.798,295.913 333.465,285.913 335,275.5C 341.9,257.698 349.9,240.364 359,223.5C 367.353,206.069 370.686,187.735 369,168.5C 365.573,149.071 354.739,135.571 336.5,128C 365.643,131.436 392.643,140.936 417.5,156.5 Z"/></g>
<g><path style="opacity:1" fill="#ac9377" d="M 306.5,130.5 C 298.137,130.839 289.804,131.505 281.5,132.5C 289.698,129.7 298.031,129.034 306.5,130.5 Z"/></g>
<g><path style="opacity:1" fill="#fefefe" d="M 306.5,130.5 C 308.379,131.341 310.379,131.675 312.5,131.5C 316.239,133.102 320.239,134.102 324.5,134.5C 325.78,135.931 327.447,136.598 329.5,136.5C 332.515,138.674 335.849,140.341 339.5,141.5C 339.973,142.906 340.973,143.573 342.5,143.5C 346.528,147.859 350.528,152.193 354.5,156.5C 355.256,160.767 356.589,164.767 358.5,168.5C 358.68,177.528 358.347,186.528 357.5,195.5C 355.13,201.616 353.13,207.949 351.5,214.5C 350.662,214.842 350.328,215.508 350.5,216.5C 348.707,218.426 347.707,220.759 347.5,223.5C 344.326,228.516 341.659,233.849 339.5,239.5C 337.896,240.287 337.229,241.62 337.5,243.5C 335.992,245.181 334.992,247.181 334.5,249.5C 332.896,250.287 332.229,251.62 332.5,253.5C 329.763,256.983 328.097,260.983 327.5,265.5C 326.596,266.209 326.263,267.209 326.5,268.5C 324.899,271.55 323.899,274.884 323.5,278.5C 322.842,279.793 322.508,281.293 322.5,283C 323.033,287.83 323.533,292.663 324,297.5C 324.383,298.056 324.883,298.389 325.5,298.5C 325.138,302.081 326.138,305.081 328.5,307.5C 329.338,307.842 329.672,308.508 329.5,309.5C 329.629,311.216 329.962,312.883 330.5,314.5C 314.572,312.557 298.572,312.057 282.5,313C 277.863,313.306 273.363,314.14 269,315.5C 268.601,315.272 268.435,314.938 268.5,314.5C 269.038,312.883 269.371,311.216 269.5,309.5C 269.328,308.508 269.662,307.842 270.5,307.5C 272.862,305.081 273.862,302.081 273.5,298.5C 274.117,298.389 274.617,298.056 275,297.5C 275.467,292.663 275.967,287.83 276.5,283C 276.492,281.293 276.158,279.793 275.5,278.5C 275.101,274.884 274.101,271.55 272.5,268.5C 272.737,267.209 272.404,266.209 271.5,265.5C 270.903,260.983 269.237,256.983 266.5,253.5C 266.771,251.62 266.104,250.287 264.5,249.5C 260.675,240.516 256.341,231.849 251.5,223.5C 251.293,220.759 250.293,218.426 248.5,216.5C 248.598,214.447 247.931,212.78 246.5,211.5C 245.204,205.95 243.537,200.617 241.5,195.5C 241.784,193.585 241.451,191.919 240.5,190.5C 240.026,179.68 241.026,169.014 243.5,158.5C 247.371,153.281 251.705,148.281 256.5,143.5C 258.027,143.573 259.027,142.906 259.5,141.5C 259.842,140.662 260.508,140.328 261.5,140.5C 264.485,139.674 267.151,138.341 269.5,136.5C 271.553,136.598 273.22,135.931 274.5,134.5C 277.228,134.829 279.562,134.163 281.5,132.5C 289.804,131.505 298.137,130.839 306.5,130.5 Z"/></g>
<g><path style="opacity:1" fill="#886d4b" d="M 312.5,131.5 C 316.837,131.584 320.837,132.584 324.5,134.5C 320.239,134.102 316.239,133.102 312.5,131.5 Z"/></g>
<g><path style="opacity:1" fill="#a58c6f" d="M 281.5,132.5 C 279.562,134.163 277.228,134.829 274.5,134.5C 276.515,133.076 278.848,132.41 281.5,132.5 Z"/></g>
<g><path style="opacity:1" fill="#826743" d="M 274.5,134.5 C 273.22,135.931 271.553,136.598 269.5,136.5C 270.78,135.069 272.447,134.402 274.5,134.5 Z"/></g>
<g><path style="opacity:1" fill="#836844" d="M 324.5,134.5 C 326.553,134.402 328.22,135.069 329.5,136.5C 327.447,136.598 325.78,135.931 324.5,134.5 Z"/></g>
<g><path style="opacity:1" fill="#846946" d="M 269.5,136.5 C 267.151,138.341 264.485,139.674 261.5,140.5C 263.579,138.127 266.246,136.794 269.5,136.5 Z"/></g>
<g><path style="opacity:1" fill="#836744" d="M 329.5,136.5 C 333.42,137.127 336.753,138.793 339.5,141.5C 335.849,140.341 332.515,138.674 329.5,136.5 Z"/></g>
<g><path style="opacity:1" fill="#856a47" d="M 339.5,141.5 C 341.027,141.427 342.027,142.094 342.5,143.5C 340.973,143.573 339.973,142.906 339.5,141.5 Z"/></g>
<g><path style="opacity:1" fill="#8f7452" d="M 259.5,141.5 C 259.027,142.906 258.027,143.573 256.5,143.5C 256.973,142.094 257.973,141.427 259.5,141.5 Z"/></g>
<g><path style="opacity:1" fill="#907554" d="M 342.5,143.5 C 347.887,146.554 351.887,150.887 354.5,156.5C 350.528,152.193 346.528,147.859 342.5,143.5 Z"/></g>
<g><path style="opacity:1" fill="#967c5c" d="M 256.5,143.5 C 251.705,148.281 247.371,153.281 243.5,158.5C 246.054,151.947 250.387,146.947 256.5,143.5 Z"/></g>
<g><path style="opacity:1" fill="#9d7b4e" d="M 183.5,155.5 C 183.414,156.496 183.748,157.329 184.5,158C 190.42,159.59 191.92,163.09 189,168.5C 183.094,173.54 176.594,177.706 169.5,181C 166.37,183.128 163.537,185.628 161,188.5C 150.113,204.617 142.78,222.284 139,241.5C 130.094,286.552 130.427,331.552 140,376.5C 140.667,383.167 140.667,389.833 140,396.5C 138.605,402.062 135.105,405.395 129.5,406.5C 121.813,406.661 114.813,404.494 108.5,400C 66.3848,370.556 33.5515,333.056 10,287.5C 3.67898,272.959 4.01231,258.626 11,244.5C 14.902,238.541 19.402,233.041 24.5,228C 63.222,195.463 106.889,171.463 155.5,156C 164.919,155.826 174.252,155.66 183.5,155.5 Z"/></g>
<g><path style="opacity:1" fill="#9d7b4e" d="M 470.5,405.5 C 467.009,404.163 463.843,402.163 461,399.5C 458.595,392.362 457.928,385.029 459,377.5C 468.572,331.91 468.905,286.244 460,240.5C 456.108,222.141 449.108,205.141 439,189.5C 431.669,182.503 423.502,176.669 414.5,172C 405.833,164.834 406.833,159.668 417.5,156.5C 427.845,155.091 438.179,155.258 448.5,157C 494.084,172.782 535.417,195.782 572.5,226C 583.587,234.68 590.754,245.846 594,259.5C 594.709,270.336 592.709,280.67 588,290.5C 563.913,333.923 531.413,369.756 490.5,398C 484.322,401.928 477.655,404.428 470.5,405.5 Z"/></g>
<g><path style="opacity:1" fill="#ad967b" d="M 354.5,156.5 C 357.208,159.956 358.541,163.956 358.5,168.5C 356.589,164.767 355.256,160.767 354.5,156.5 Z"/></g>
<g><path style="opacity:1" fill="#b39d84" d="M 243.5,158.5 C 241.026,169.014 240.026,179.68 240.5,190.5C 239.345,183.679 239.179,176.679 240,169.5C 240.115,165.386 241.282,161.719 243.5,158.5 Z"/></g>
<g><path style="opacity:1" fill="#876c4a" d="M 241.5,195.5 C 243.537,200.617 245.204,205.95 246.5,211.5C 243.654,206.624 241.987,201.291 241.5,195.5 Z"/></g>
<g><path style="opacity:1" fill="#876c49" d="M 357.5,195.5 C 356.679,202.293 354.679,208.626 351.5,214.5C 353.13,207.949 355.13,201.616 357.5,195.5 Z"/></g>
<g><path style="opacity:1" fill="#8b704e" d="M 246.5,211.5 C 247.931,212.78 248.598,214.447 248.5,216.5C 247.069,215.22 246.402,213.553 246.5,211.5 Z"/></g>
<g><path style="opacity:1" fill="#836845" d="M 248.5,216.5 C 250.293,218.426 251.293,220.759 251.5,223.5C 249.707,221.574 248.707,219.241 248.5,216.5 Z"/></g>
<g><path style="opacity:1" fill="#876c49" d="M 350.5,216.5 C 350.293,219.241 349.293,221.574 347.5,223.5C 347.707,220.759 348.707,218.426 350.5,216.5 Z"/></g>
<g><path style="opacity:1" fill="#846946" d="M 339.5,239.5 C 339.34,241.153 338.674,242.486 337.5,243.5C 337.229,241.62 337.896,240.287 339.5,239.5 Z"/></g>
<g><path style="opacity:1" fill="#8d7251" d="M 264.5,249.5 C 266.104,250.287 266.771,251.62 266.5,253.5C 265.326,252.486 264.66,251.153 264.5,249.5 Z"/></g>
<g><path style="opacity:1" fill="#8d7251" d="M 334.5,249.5 C 334.34,251.153 333.674,252.486 332.5,253.5C 332.229,251.62 332.896,250.287 334.5,249.5 Z"/></g>
<g><path style="opacity:1" fill="#846947" d="M 266.5,253.5 C 269.237,256.983 270.903,260.983 271.5,265.5C 269.315,261.787 267.648,257.787 266.5,253.5 Z"/></g>
<g><path style="opacity:1" fill="#846947" d="M 332.5,253.5 C 331.352,257.787 329.685,261.787 327.5,265.5C 328.097,260.983 329.763,256.983 332.5,253.5 Z"/></g>
<g><path style="opacity:1" fill="#9b7a4d" d="M 242.5,311.5 C 229.164,317.174 216.831,324.507 205.5,333.5C 202.286,332.718 198.952,331.885 195.5,331C 179.826,322.486 172.992,309.319 175,291.5C 185.563,265.308 203.73,258.141 229.5,270C 242.714,281.365 247.047,295.199 242.5,311.5 Z"/></g>
<g><path style="opacity:1" fill="#9c7a4d" d="M 395.5,334.5 C 383.553,325.027 370.553,317.36 356.5,311.5C 357.097,311.265 357.43,310.765 357.5,310C 352.308,288.053 360.308,273.053 381.5,265C 395.454,262.607 407.288,266.441 417,276.5C 427.651,292.916 426.818,308.75 414.5,324C 408.557,328.56 402.224,332.06 395.5,334.5 Z"/></g>
<g><path style="opacity:1" fill="#020101" d="M 204.5,277.5 C 223.483,276.649 231.983,285.649 230,304.5C 226.832,314.499 219.998,319.832 209.5,320.5C 192.776,317.696 185.943,308.029 189,291.5C 191.877,284.114 197.044,279.448 204.5,277.5 Z"/></g>
<g><path style="opacity:1" fill="#846946" d="M 272.5,268.5 C 274.101,271.55 275.101,274.884 275.5,278.5C 275.5,280.5 275.5,282.5 275.5,284.5C 274.508,279.293 273.508,273.96 272.5,268.5 Z"/></g>
<g><path style="opacity:1" fill="#846946" d="M 326.5,268.5 C 325.492,273.96 324.492,279.293 323.5,284.5C 323.5,282.5 323.5,280.5 323.5,278.5C 323.899,274.884 324.899,271.55 326.5,268.5 Z"/></g>
<g><path style="opacity:1" fill="#010100" d="M 384.5,277.5 C 397.671,275.829 406.505,281.163 411,293.5C 411.903,313.596 402.403,322.096 382.5,319C 369.615,312.318 365.782,302.152 371,288.5C 374.213,283.107 378.713,279.441 384.5,277.5 Z"/></g>
<g><path style="opacity:1" fill="#c2ac95" d="M 275.5,278.5 C 276.158,279.793 276.492,281.293 276.5,283C 275.967,287.83 275.467,292.663 275,297.5C 274.617,298.056 274.117,298.389 273.5,298.5C 274.004,293.798 274.671,289.131 275.5,284.5C 275.5,282.5 275.5,280.5 275.5,278.5 Z"/></g>
<g><path style="opacity:1" fill="#c2ac94" d="M 323.5,278.5 C 323.5,280.5 323.5,282.5 323.5,284.5C 324.329,289.131 324.996,293.798 325.5,298.5C 324.883,298.389 324.383,298.056 324,297.5C 323.533,292.663 323.033,287.83 322.5,283C 322.508,281.293 322.842,279.793 323.5,278.5 Z"/></g>
<g><path style="opacity:1" fill="#f2f2f2" d="M 214.5,283.5 C 220.849,284.027 223.016,287.361 221,293.5C 213.33,297.333 209.997,294.999 211,286.5C 212.145,285.364 213.312,284.364 214.5,283.5 Z"/></g>
<g><path style="opacity:1" fill="#ececec" d="M 395.5,283.5 C 401.356,283.854 403.523,286.854 402,292.5C 399.833,295.287 396.999,296.12 393.5,295C 389.141,290.272 389.808,286.439 395.5,283.5 Z"/></g>
<g><path style="opacity:1" fill="#ad957a" d="M 273.5,298.5 C 273.862,302.081 272.862,305.081 270.5,307.5C 270.928,304.215 271.928,301.215 273.5,298.5 Z"/></g>
<g><path style="opacity:1" fill="#ad957a" d="M 325.5,298.5 C 327.072,301.215 328.072,304.215 328.5,307.5C 326.138,305.081 325.138,302.081 325.5,298.5 Z"/></g>
<g><path style="opacity:1" fill="#907553" d="M 269.5,309.5 C 269.371,311.216 269.038,312.883 268.5,314.5C 266.521,316.168 264.188,316.834 261.5,316.5C 265.371,315.634 268.038,313.301 269.5,309.5 Z"/></g>
<g><path style="opacity:1" fill="#f6ede1" d="M 330.5,314.5 C 333.926,316.274 337.593,317.274 341.5,317.5C 344.785,317.928 347.785,318.928 350.5,320.5C 351.78,321.931 353.447,322.598 355.5,322.5C 355.842,323.338 356.508,323.672 357.5,323.5C 361.182,326.008 365.182,328.008 369.5,329.5C 369.842,330.338 370.508,330.672 371.5,330.5C 371.973,331.906 372.973,332.573 374.5,332.5C 376.853,333.34 378.853,334.674 380.5,336.5C 380.973,337.906 381.973,338.573 383.5,338.5C 384.585,340.587 386.251,341.92 388.5,342.5C 393.833,348.5 399.5,354.167 405.5,359.5C 406.08,361.749 407.413,363.415 409.5,364.5C 413.508,370.838 417.508,377.172 421.5,383.5C 422.279,386.545 423.613,389.211 425.5,391.5C 426.938,395.118 428.271,398.785 429.5,402.5C 429.294,405.495 429.96,408.162 431.5,410.5C 431.5,410.833 431.5,411.167 431.5,411.5C 432.233,423.152 432.566,434.819 432.5,446.5C 431.291,453.283 428.791,459.617 425,465.5C 382.12,469.207 345.453,455.874 315,425.5C 311.166,420.503 307.833,415.17 305,409.5C 303.473,403.585 303.139,397.585 304,391.5C 311.417,386.874 318.917,382.374 326.5,378C 342.951,366.723 344.618,353.723 331.5,339C 316.58,331.534 300.913,329.534 284.5,333C 272.982,335.638 265.482,342.471 262,353.5C 261.411,358.481 262.411,363.148 265,367.5C 273.21,376.687 283.043,383.52 294.5,388C 296,388.833 297.167,390 298,391.5C 298.667,396.833 298.667,402.167 298,407.5C 292.899,418.523 285.733,428.023 276.5,436C 254.017,453.389 228.684,464.389 200.5,469C 193.629,469.778 186.795,469.612 180,468.5C 178.739,468.759 177.739,469.426 177,470.5C 171.813,464.45 168.647,457.45 167.5,449.5C 166.604,439.532 166.271,429.532 166.5,419.5C 166.5,419.167 166.5,418.833 166.5,418.5C 168.592,413.126 169.925,407.46 170.5,401.5C 171.065,397.463 172.399,393.797 174.5,390.5C 176.008,388.819 177.008,386.819 177.5,384.5C 180.415,382.349 182.082,379.349 182.5,375.5C 183.906,375.027 184.573,374.027 184.5,372.5C 184.427,370.973 185.094,369.973 186.5,369.5C 188.984,367.2 190.984,364.533 192.5,361.5C 195.573,359.431 197.906,356.764 199.5,353.5C 201.5,352.167 203.167,350.5 204.5,348.5C 209.132,345.202 213.466,341.536 217.5,337.5C 219.975,334.759 222.975,332.759 226.5,331.5C 228.674,331.25 230.341,330.25 231.5,328.5C 240.782,322.864 250.782,318.864 261.5,316.5C 264.188,316.834 266.521,316.168 268.5,314.5C 268.435,314.938 268.601,315.272 269,315.5C 273.363,314.14 277.863,313.306 282.5,313C 298.572,312.057 314.572,312.557 330.5,314.5 Z"/></g>
<g><path style="opacity:1" fill="#876c4a" d="M 329.5,309.5 C 330.601,310.848 331.601,312.348 332.5,314C 335.662,315.027 338.662,316.194 341.5,317.5C 337.593,317.274 333.926,316.274 330.5,314.5C 329.962,312.883 329.629,311.216 329.5,309.5 Z"/></g>
<g><path style="opacity:1" fill="#886c4a" d="M 350.5,320.5 C 352.553,320.402 354.22,321.069 355.5,322.5C 353.447,322.598 351.78,321.931 350.5,320.5 Z"/></g>
<g><path style="opacity:1" fill="#8a6f4d" d="M 357.5,323.5 C 362.086,324.46 366.086,326.46 369.5,329.5C 365.182,328.008 361.182,326.008 357.5,323.5 Z"/></g>
<g><path style="opacity:1" fill="#836845" d="M 231.5,328.5 C 230.341,330.25 228.674,331.25 226.5,331.5C 227.659,329.75 229.326,328.75 231.5,328.5 Z"/></g>
<g><path style="opacity:1" fill="#856a47" d="M 371.5,330.5 C 373.027,330.427 374.027,331.094 374.5,332.5C 372.973,332.573 371.973,331.906 371.5,330.5 Z"/></g>
<g><path style="opacity:1" fill="#876c49" d="M 380.5,336.5 C 382.027,336.427 383.027,337.094 383.5,338.5C 381.973,338.573 380.973,337.906 380.5,336.5 Z"/></g>
<g><path style="opacity:1" fill="#886d4a" d="M 383.5,338.5 C 385.749,339.08 387.415,340.413 388.5,342.5C 386.251,341.92 384.585,340.587 383.5,338.5 Z"/></g>
<g><path style="opacity:1" fill="#856c4d" d="M 388.5,342.5 C 395.167,347.167 400.833,352.833 405.5,359.5C 399.5,354.167 393.833,348.5 388.5,342.5 Z"/></g>
<g><path style="opacity:1" fill="#a58b6c" d="M 217.5,337.5 C 213.466,341.536 209.132,345.202 204.5,348.5C 207.948,343.713 212.281,340.046 217.5,337.5 Z"/></g>
<g><path style="opacity:1" fill="#816542" d="M 204.5,348.5 C 203.167,350.5 201.5,352.167 199.5,353.5C 200.167,350.833 201.833,349.167 204.5,348.5 Z"/></g>
<g><path style="opacity:1" fill="#9f8565" d="M 199.5,353.5 C 197.906,356.764 195.573,359.431 192.5,361.5C 194.094,358.236 196.427,355.569 199.5,353.5 Z"/></g>
<g><path style="opacity:1" fill="#786144" d="M 405.5,359.5 C 407.587,360.585 408.92,362.251 409.5,364.5C 407.413,363.415 406.08,361.749 405.5,359.5 Z"/></g>
<g><path style="opacity:1" fill="#8d7250" d="M 192.5,361.5 C 190.984,364.533 188.984,367.2 186.5,369.5C 187.529,366.109 189.529,363.443 192.5,361.5 Z"/></g>
<g><path style="opacity:1" fill="#896d4b" d="M 184.5,372.5 C 184.573,374.027 183.906,375.027 182.5,375.5C 182.427,373.973 183.094,372.973 184.5,372.5 Z"/></g>
<g><path style="opacity:1" fill="#c1ac92" d="M 182.5,375.5 C 182.082,379.349 180.415,382.349 177.5,384.5C 178.41,381.008 180.076,378.008 182.5,375.5 Z"/></g>
<g><path style="opacity:1" fill="#bb925c" d="M 434.5,386.5 C 436.932,387.75 439.266,389.25 441.5,391C 449.52,398.983 457.853,406.483 466.5,413.5C 460.689,424.082 453.189,433.415 444,441.5C 445.141,422.346 441.975,404.013 434.5,386.5 Z"/></g>
<g><path style="opacity:1" fill="#886e4b" d="M 177.5,384.5 C 177.008,386.819 176.008,388.819 174.5,390.5C 174.461,387.911 175.461,385.911 177.5,384.5 Z"/></g>
<g><path style="opacity:1" fill="#998369" d="M 421.5,383.5 C 423.873,385.579 425.206,388.246 425.5,391.5C 423.613,389.211 422.279,386.545 421.5,383.5 Z"/></g>
<g><path style="opacity:1" fill="#836c50" d="M 429.5,402.5 C 430.768,404.905 431.435,407.572 431.5,410.5C 429.96,408.162 429.294,405.495 429.5,402.5 Z"/></g>
<g><path style="opacity:1" fill="#967b5a" d="M 170.5,401.5 C 169.925,407.46 168.592,413.126 166.5,418.5C 167.087,412.544 168.421,406.878 170.5,401.5 Z"/></g>
<g><path style="opacity:1" fill="#b59c7c" d="M 166.5,419.5 C 166.271,429.532 166.604,439.532 167.5,449.5C 166.732,448.737 166.232,447.737 166,446.5C 165.176,437.324 165.343,428.324 166.5,419.5 Z"/></g>
<g><path style="opacity:1" fill="#ad977f" d="M 431.5,411.5 C 433.03,418.097 433.697,424.93 433.5,432C 433.499,437.012 433.166,441.845 432.5,446.5C 432.566,434.819 432.233,423.152 431.5,411.5 Z"/></g>
<g><path style="opacity:1" fill="#f5ece0" d="M 294.5,441.5 C 301.342,441.039 308.009,441.872 314.5,444C 327.737,451.451 341.404,458.118 355.5,464C 369.267,467.905 383.267,470.405 397.5,471.5C 406.705,471.164 415.705,469.997 424.5,468C 418.834,475.162 411.834,480.662 403.5,484.5C 401.112,497.145 394.445,506.645 383.5,513C 372.364,518.081 360.697,519.748 348.5,518C 336.942,515.481 325.608,512.148 314.5,508C 305.255,505.161 295.921,504.827 286.5,507C 274.661,511.28 262.661,514.947 250.5,518C 234.623,521.035 220.289,517.702 207.5,508C 201.203,500.908 196.87,492.741 194.5,483.5C 188.8,480.985 183.8,477.485 179.5,473C 217.374,474.448 252.374,465.115 284.5,445C 287.85,443.514 291.184,442.347 294.5,441.5 Z"/></g>
</svg>
