<?xml version="1.0" encoding="UTF-8"?>
<!DOCTYPE svg PUBLIC "-//W3C//DTD SVG 1.1//EN" "http://www.w3.org/Graphics/SVG/1.1/DTD/svg11.dtd">
<svg xmlns="http://www.w3.org/2000/svg" version="1.1" width="600px" height="600px" style="shape-rendering:geometricPrecision; text-rendering:geometricPrecision; image-rendering:optimizeQuality; fill-rule:evenodd; clip-rule:evenodd" xmlns:xlink="http://www.w3.org/1999/xlink">
<g><path style="opacity:0.952" fill="#030100" d="M 90.5,-0.5 C 102.833,-0.5 115.167,-0.5 127.5,-0.5C 146.207,13.7111 162.04,30.7111 175,50.5C 205.439,96.3922 226.272,146.392 237.5,200.5C 257.838,194.133 278.671,190.8 300,190.5C 320.98,190.93 341.48,194.263 361.5,200.5C 374.685,137.814 400.518,81.1476 439,30.5C 448.809,18.518 459.975,8.18469 472.5,-0.5C 484.5,-0.5 496.5,-0.5 508.5,-0.5C 512.937,5.04629 515.77,11.3796 517,18.5C 521.922,41.779 526.589,65.1123 531,88.5C 541.86,141.749 540.86,194.749 528,247.5C 524.042,266.609 514.208,281.776 498.5,293C 489.769,295.685 481.603,299.519 474,304.5C 472.728,311.091 471.894,317.758 471.5,324.5C 474.348,374.444 464.515,421.777 442,466.5C 435.055,477.111 427.722,487.444 420,497.5C 412.693,511.755 406.36,526.422 401,541.5C 395.801,552.679 389.801,563.345 383,573.5C 372.846,584.791 361.013,593.458 347.5,599.5C 316.167,599.5 284.833,599.5 253.5,599.5C 229.271,589.105 211.771,571.772 201,547.5C 194.528,531.752 187.862,516.085 181,500.5C 173.912,489.991 166.579,479.658 159,469.5C 133.278,418.175 122.278,363.842 126,306.5C 124.833,304 123,302.167 120.5,301C 110.913,297.809 101.913,293.475 93.5,288C 83.4791,278.468 76.6458,266.968 73,253.5C 59.9611,201.289 57.9611,148.623 67,95.5C 72.0268,67.366 77.6935,39.366 84,11.5C 85.4021,7.02524 87.5688,3.02524 90.5,-0.5 Z"/></g>
<g><path style="opacity:1" fill="#e4892f" d="M 511.5,44.5 C 511.737,45.791 511.404,46.791 510.5,47.5C 509.594,35.2588 504.594,25.0921 495.5,17C 486.611,12.1568 477.944,12.4901 469.5,18C 462.958,22.8748 457.458,28.7082 453,35.5C 422.738,83.101 402.571,134.768 392.5,190.5C 393.942,214.663 401.442,236.663 415,256.5C 427.062,271.28 442.562,279.28 461.5,280.5C 485.029,278.974 500.529,266.974 508,244.5C 517.817,213.781 522.984,182.281 523.5,150C 522.636,131.128 521.302,112.295 519.5,93.5C 519.216,91.5853 519.549,89.9187 520.5,88.5C 529.974,138.526 529.807,188.526 520,238.5C 516.854,253.454 510.521,266.787 501,278.5C 492.53,284.329 483.363,288.829 473.5,292C 468.95,294.883 465.45,298.716 463,303.5C 466.505,356.477 457.505,407.143 436,455.5C 426.726,470.438 417.06,485.104 407,499.5C 401.333,513.167 395.667,526.833 390,540.5C 373.622,579.365 344.288,597.698 302,595.5C 254.814,598.246 222.814,577.579 206,533.5C 201.447,520.508 196.113,507.841 190,495.5C 183.055,484.889 175.722,474.556 168,464.5C 143.049,414.812 132.716,362.145 137,306.5C 135.676,300.678 132.509,296.178 127.5,293C 119.751,289.861 112.084,286.528 104.5,283C 95.3327,276.161 88.8327,267.328 85,256.5C 72.7996,215.305 68.7996,173.305 73,130.5C 74.385,116.757 76.2184,103.09 78.5,89.5C 79.4614,91.2646 79.7947,93.2646 79.5,95.5C 73.4494,141.331 75.9494,186.665 87,231.5C 90.1723,248.354 98.339,262.187 111.5,273C 126.54,281.733 142.206,282.733 158.5,276C 177.661,266.505 190.828,251.671 198,231.5C 205.484,213.446 207.818,194.779 205,175.5C 192.643,124.367 172.31,76.7008 144,32.5C 138.203,23.698 130.369,17.5314 120.5,14C 108.24,12.3827 99.4069,17.2161 94,28.5C 92.1898,33.4287 90.6898,38.4287 89.5,43.5C 88.596,42.791 88.2627,41.791 88.5,40.5C 90.1017,31.4558 91.9351,22.4558 94,13.5C 97.848,4.93783 104.348,2.1045 113.5,5C 125.672,10.4938 136.172,18.3272 145,28.5C 186.836,79.8493 214.503,138.183 228,203.5C 228.888,208.658 231.888,211.325 237,211.5C 278.672,198.167 320.338,198.167 362,211.5C 365.804,211.6 368.471,209.934 370,206.5C 380.85,156.6 399.516,109.933 426,66.5C 437.919,46.9092 452.419,29.4092 469.5,14C 474.542,10.4793 479.875,7.47929 485.5,5C 494.652,2.1045 501.152,4.93783 505,13.5C 507.744,23.7192 509.91,34.0526 511.5,44.5 Z"/></g>
<g><path style="opacity:1" fill="#0d0702" d="M 79.5,95.5 C 82.1656,78.1671 85.4989,60.8338 89.5,43.5C 90.6898,38.4287 92.1898,33.4287 94,28.5C 99.4069,17.2161 108.24,12.3827 120.5,14C 130.369,17.5314 138.203,23.698 144,32.5C 172.31,76.7008 192.643,124.367 205,175.5C 207.818,194.779 205.484,213.446 198,231.5C 190.828,251.671 177.661,266.505 158.5,276C 142.206,282.733 126.54,281.733 111.5,273C 98.339,262.187 90.1723,248.354 87,231.5C 75.9494,186.665 73.4494,141.331 79.5,95.5 Z"/></g>
<g><path style="opacity:1" fill="#0c0602" d="M 510.5,47.5 C 514.037,62.8473 517.037,78.1806 519.5,93.5C 521.302,112.295 522.636,131.128 523.5,150C 522.984,182.281 517.817,213.781 508,244.5C 500.529,266.974 485.029,278.974 461.5,280.5C 442.562,279.28 427.062,271.28 415,256.5C 401.442,236.663 393.942,214.663 392.5,190.5C 402.571,134.768 422.738,83.101 453,35.5C 457.458,28.7082 462.958,22.8748 469.5,18C 477.944,12.4901 486.611,12.1568 495.5,17C 504.594,25.0921 509.594,35.2588 510.5,47.5 Z"/></g>
<g><path style="opacity:1" fill="#d3b17f" d="M 120.5,24.5 C 121.899,25.8897 123.566,26.8897 125.5,27.5C 127.5,30.1667 129.833,32.5 132.5,34.5C 133.08,36.7488 134.413,38.4154 136.5,39.5C 165.317,86.4229 185.65,136.923 197.5,191C 197.394,193.884 197.061,196.718 196.5,199.5C 195.087,202.219 194.42,205.219 194.5,208.5C 194.5,208.833 194.5,209.167 194.5,209.5C 193.076,211.515 192.41,213.848 192.5,216.5C 191.076,218.515 190.41,220.848 190.5,223.5C 186.966,232.235 182.632,240.568 177.5,248.5C 175.413,249.585 174.08,251.251 173.5,253.5C 165.954,260.444 157.287,265.611 147.5,269C 137.356,271.639 127.689,270.472 118.5,265.5C 117.415,263.413 115.749,262.08 113.5,261.5C 110.822,258.127 108.156,254.794 105.5,251.5C 104.674,248.515 103.341,245.849 101.5,243.5C 99.1333,236.071 96.8,228.738 94.5,221.5C 94.5797,218.219 93.913,215.219 92.5,212.5C 86.6059,179.407 84.9392,146.074 87.5,112.5C 89.0308,107.75 89.6975,102.75 89.5,97.5C 91.3918,85.1492 93.3918,72.8159 95.5,60.5C 97.7493,55.5032 99.0826,50.1698 99.5,44.5C 100.989,39.9236 102.655,35.2569 104.5,30.5C 106.671,28.4998 109.004,26.6665 111.5,25C 114.482,24.502 117.482,24.3354 120.5,24.5 Z"/></g>
<g><path style="opacity:1" fill="#d3b17e" d="M 478.5,24.5 C 481.518,24.3354 484.518,24.502 487.5,25C 489.996,26.6665 492.329,28.4998 494.5,30.5C 497.457,38.9741 500.124,47.6408 502.5,56.5C 502.294,59.4951 502.96,62.1617 504.5,64.5C 506.559,77.8542 508.726,91.1875 511,104.5C 512.868,119.242 513.701,134.076 513.5,149C 512.644,175.158 509.311,200.991 503.5,226.5C 502.076,228.515 501.41,230.848 501.5,233.5C 498.587,241.992 494.587,249.992 489.5,257.5C 487.5,258.833 485.833,260.5 484.5,262.5C 473.592,270.745 461.592,272.579 448.5,268C 442.587,265.882 437.253,263.048 432.5,259.5C 429.5,255.833 426.167,252.5 422.5,249.5C 420.735,246.291 418.735,243.291 416.5,240.5C 415.341,236.849 413.674,233.515 411.5,230.5C 404.99,214.452 402.157,197.785 403,180.5C 404.216,178.038 404.882,175.371 405,172.5C 411.407,152.275 418.074,131.941 425,111.5C 434.897,88.7047 446.063,66.7047 458.5,45.5C 460.9,43.7036 462.567,41.3702 463.5,38.5C 465.262,37.7377 466.262,36.4044 466.5,34.5C 468.833,32.8333 470.833,30.8333 472.5,28.5C 474.795,27.5254 476.795,26.1921 478.5,24.5 Z"/></g>
<g><path style="opacity:1" fill="#69421c" d="M 478.5,24.5 C 481.64,23.3592 484.973,23.1925 488.5,24C 491.409,25.4055 493.409,27.5722 494.5,30.5C 492.329,28.4998 489.996,26.6665 487.5,25C 484.518,24.502 481.518,24.3354 478.5,24.5 Z"/></g>
<g><path style="opacity:1" fill="#6d441e" d="M 120.5,24.5 C 117.482,24.3354 114.482,24.502 111.5,25C 109.004,26.6665 106.671,28.4998 104.5,30.5C 105.591,27.5722 107.591,25.4055 110.5,24C 114.027,23.1925 117.36,23.3592 120.5,24.5 Z"/></g>
<g><path style="opacity:1" fill="#583614" d="M 125.5,27.5 C 128.833,28.8333 131.167,31.1667 132.5,34.5C 129.833,32.5 127.5,30.1667 125.5,27.5 Z"/></g>
<g><path style="opacity:1" fill="#523111" d="M 472.5,28.5 C 470.833,30.8333 468.833,32.8333 466.5,34.5C 467.5,31.5 469.5,29.5 472.5,28.5 Z"/></g>
<g><path style="opacity:1" fill="#66401b" d="M 132.5,34.5 C 134.587,35.5846 135.92,37.2512 136.5,39.5C 134.413,38.4154 133.08,36.7488 132.5,34.5 Z"/></g>
<g><path style="opacity:1" fill="#653f1a" d="M 463.5,38.5 C 462.567,41.3702 460.9,43.7036 458.5,45.5C 459.433,42.6298 461.1,40.2964 463.5,38.5 Z"/></g>
<g><path style="opacity:1" fill="#a56322" d="M 88.5,40.5 C 88.2627,41.791 88.596,42.791 89.5,43.5C 85.4989,60.8338 82.1656,78.1671 79.5,95.5C 79.7947,93.2646 79.4614,91.2646 78.5,89.5C 81.0876,72.8927 84.421,56.5594 88.5,40.5 Z"/></g>
<g><path style="opacity:1" fill="#7c5128" d="M 99.5,44.5 C 99.0826,50.1698 97.7493,55.5032 95.5,60.5C 96.2317,54.9063 97.565,49.5729 99.5,44.5 Z"/></g>
<g><path style="opacity:1" fill="#a86423" d="M 511.5,44.5 C 515.246,58.8925 518.246,73.5592 520.5,88.5C 519.549,89.9187 519.216,91.5853 519.5,93.5C 517.037,78.1806 514.037,62.8473 510.5,47.5C 511.404,46.791 511.737,45.791 511.5,44.5 Z"/></g>
<g><path style="opacity:1" fill="#6b441e" d="M 502.5,56.5 C 503.768,58.9052 504.435,61.5718 504.5,64.5C 502.96,62.1617 502.294,59.4951 502.5,56.5 Z"/></g>
<g><path style="opacity:1" fill="#7d5229" d="M 89.5,97.5 C 89.6975,102.75 89.0308,107.75 87.5,112.5C 87.6084,107.29 88.2751,102.29 89.5,97.5 Z"/></g>
<g><path style="opacity:1" fill="#5e3a17" d="M 196.5,199.5 C 196.58,202.781 195.913,205.781 194.5,208.5C 194.42,205.219 195.087,202.219 196.5,199.5 Z"/></g>
<g><path style="opacity:1" fill="#613d19" d="M 194.5,209.5 C 194.59,212.152 193.924,214.485 192.5,216.5C 192.41,213.848 193.076,211.515 194.5,209.5 Z"/></g>
<g><path style="opacity:1" fill="#67411c" d="M 92.5,212.5 C 93.913,215.219 94.5797,218.219 94.5,221.5C 93.087,218.781 92.4203,215.781 92.5,212.5 Z"/></g>
<g><path style="opacity:1" fill="#633e1a" d="M 192.5,216.5 C 192.59,219.152 191.924,221.485 190.5,223.5C 190.41,220.848 191.076,218.515 192.5,216.5 Z"/></g>
<g><path style="opacity:1" fill="#613c18" d="M 503.5,226.5 C 503.59,229.152 502.924,231.485 501.5,233.5C 501.41,230.848 502.076,228.515 503.5,226.5 Z"/></g>
<g><path style="opacity:1" fill="#5e3a17" d="M 411.5,230.5 C 413.674,233.515 415.341,236.849 416.5,240.5C 413.793,237.753 412.127,234.42 411.5,230.5 Z"/></g>
<g><path style="opacity:1" fill="#5c3816" d="M 101.5,243.5 C 103.341,245.849 104.674,248.515 105.5,251.5C 103.127,249.421 101.794,246.754 101.5,243.5 Z"/></g>
<g><path style="opacity:1" fill="#623d18" d="M 422.5,249.5 C 426.167,252.5 429.5,255.833 432.5,259.5C 428.167,257.167 424.833,253.833 422.5,249.5 Z"/></g>
<g><path style="opacity:1" fill="#5b3815" d="M 177.5,248.5 C 176.92,250.749 175.587,252.415 173.5,253.5C 174.08,251.251 175.413,249.585 177.5,248.5 Z"/></g>
<g><path style="opacity:1" fill="#513111" d="M 489.5,257.5 C 488.833,260.167 487.167,261.833 484.5,262.5C 485.833,260.5 487.5,258.833 489.5,257.5 Z"/></g>
<g><path style="opacity:1" fill="#633d19" d="M 113.5,261.5 C 115.749,262.08 117.415,263.413 118.5,265.5C 116.251,264.92 114.585,263.587 113.5,261.5 Z"/></g>
<g><path style="opacity:1" fill="#675c59" d="M 211.5,349.5 C 236.215,349.045 247.715,361.045 246,385.5C 240.264,402.546 228.43,409.712 210.5,407C 193.695,400.566 186.862,388.4 190,370.5C 193.751,359.915 200.917,352.915 211.5,349.5 Z"/></g>
<g><path style="opacity:1" fill="#685c59" d="M 374.5,349.5 C 398.51,349.011 410.343,360.677 410,384.5C 401.993,405.502 387.493,412.002 366.5,404C 351.642,392.888 348.475,379.055 357,362.5C 361.748,356.559 367.581,352.226 374.5,349.5 Z"/></g>
<g><path style="opacity:1" fill="#302826" d="M 212.5,357.5 C 234.059,357.538 242.226,367.872 237,388.5C 228.724,400.072 218.224,402.572 205.5,396C 193.5,384.333 193.5,372.667 205.5,361C 207.925,359.787 210.259,358.621 212.5,357.5 Z"/></g>
<g><path style="opacity:1" fill="#302827" d="M 375.5,357.5 C 393.834,356.668 402.667,365.335 402,383.5C 397.276,396.284 388.109,401.451 374.5,399C 360.986,392.129 357.152,381.629 363,367.5C 366.462,363.196 370.629,359.862 375.5,357.5 Z"/></g>
<g><path style="opacity:1" fill="#eeeded" d="M 222.5,364.5 C 228.643,365.026 229.976,367.86 226.5,373C 221.545,374.376 219.379,372.542 220,367.5C 220.698,366.309 221.531,365.309 222.5,364.5 Z"/></g>
<g><path style="opacity:1" fill="#f5f5f5" d="M 385.5,364.5 C 391.643,365.026 392.976,367.86 389.5,373C 384.504,373.664 382.67,371.498 384,366.5C 384.717,365.956 385.217,365.289 385.5,364.5 Z"/></g>
<g><path style="opacity:1" fill="#382f2c" d="M 285.5,509.5 C 296.953,508.949 308.287,509.782 319.5,512C 337.432,518.359 343.932,530.859 339,549.5C 337.45,554.375 335.45,559.042 333,563.5C 321.074,576.537 306.24,581.371 288.5,578C 265.738,572.549 255.238,558.049 257,534.5C 258.336,524.161 263.836,516.994 273.5,513C 277.531,511.509 281.531,510.343 285.5,509.5 Z"/></g>
</svg>
