<?xml version="1.0" encoding="UTF-8"?>
<!DOCTYPE svg PUBLIC "-//W3C//DTD SVG 1.1//EN" "http://www.w3.org/Graphics/SVG/1.1/DTD/svg11.dtd">
<svg xmlns="http://www.w3.org/2000/svg" version="1.1" width="600px" height="600px" style="shape-rendering:geometricPrecision; text-rendering:geometricPrecision; image-rendering:optimizeQuality; fill-rule:evenodd; clip-rule:evenodd" xmlns:xlink="http://www.w3.org/1999/xlink">
<g><path style="opacity:0.968" fill="#030303" d="M 157.5,-0.5 C 168.833,-0.5 180.167,-0.5 191.5,-0.5C 197.977,5.13571 204.644,10.6357 211.5,16C 226.5,29.6667 240.833,44 254.5,59C 269.941,57.7711 285.441,56.9377 301,56.5C 315.564,56.8775 330.064,57.7108 344.5,59C 364.437,37.8925 385.437,18.0592 407.5,-0.5C 418.833,-0.5 430.167,-0.5 441.5,-0.5C 449.265,11.6273 453.765,24.9606 455,39.5C 457.135,62.4245 456.301,85.2578 452.5,108C 452.833,109.5 453.167,111 453.5,112.5C 474.494,128.656 491.327,148.323 504,171.5C 535.289,228.923 545.789,289.756 535.5,354C 540.19,386.096 537.69,417.596 528,448.5C 524.326,456.742 518.159,460.409 509.5,459.5C 498.864,486.643 482.531,509.81 460.5,529C 447.217,540.293 432.884,549.96 417.5,558C 411.384,560.21 405.718,559.377 400.5,555.5C 393.753,560.29 386.92,564.957 380,569.5C 378.514,573.776 377.181,578.109 376,582.5C 369.254,590.306 362.42,590.306 355.5,582.5C 351.993,584.754 348.327,586.754 344.5,588.5C 343.341,592.135 342.341,595.802 341.5,599.5C 313.833,599.5 286.167,599.5 258.5,599.5C 257.962,596.347 256.962,593.347 255.5,590.5C 251.091,588.547 246.924,586.213 243,583.5C 236.529,589.827 230.196,589.494 224,582.5C 222.844,578.877 221.844,575.211 221,571.5C 213.239,566.704 205.739,561.537 198.5,556C 195.588,557.182 192.421,558.016 189,558.5C 149.673,542.516 119.673,515.849 99,478.5C 95.6105,471.664 92.6105,464.664 90,457.5C 83.124,460.263 77.7906,458.263 74,451.5C 62.0841,419.841 58.9174,387.341 64.5,354C 62.2355,350.553 60.7355,346.72 60,342.5C 54.7701,281.981 66.4368,224.981 95,171.5C 108.022,148.499 125.022,128.832 146,112.5C 144.97,96.1877 143.803,79.8544 142.5,63.5C 142.508,46.4514 145.008,29.7847 150,13.5C 151.892,8.45898 154.392,3.79232 157.5,-0.5 Z"/></g>
<g><path style="opacity:1" fill="#2e312d" d="M 170.5,5.5 C 172.527,5.33788 174.527,5.50454 176.5,6C 182.365,8.5419 187.699,11.8752 192.5,16C 211.468,32.6347 229.468,50.3014 246.5,69C 249.884,70.9598 253.55,71.7931 257.5,71.5C 266.825,70.6522 276.158,69.9855 285.5,69.5C 284.426,106.559 282.259,143.559 279,180.5C 273.026,162.888 265.692,145.888 257,129.5C 246.006,116.928 232.84,114.095 217.5,121C 199.907,132.592 185.74,147.426 175,165.5C 163.082,186.334 167.582,202.5 188.5,214C 201.195,224.699 209.862,238.032 214.5,254C 162.92,286.998 140.087,334.164 146,395.5C 147.948,406.242 150.282,416.908 153,427.5C 157.172,438.673 160.505,450.006 163,461.5C 141.981,436.45 131.647,407.45 132,374.5C 130.267,372.398 128.267,372.065 126,373.5C 114.802,390.429 108.802,409.095 108,429.5C 95.9388,401.408 91.6055,372.075 95,341.5C 97.5257,328.068 100.359,314.735 103.5,301.5C 102.127,301.343 100.793,301.51 99.5,302C 88.7231,313.113 79.8898,325.613 73,339.5C 66.9928,279.863 78.9928,224.196 109,172.5C 122.321,151.557 138.654,133.223 158,117.5C 158.863,114.731 159.363,111.898 159.5,109C 156.384,87.6001 155.218,66.1001 156,44.5C 156.701,32.0224 160.034,20.3558 166,9.5C 167.397,7.92975 168.897,6.59641 170.5,5.5 Z"/></g>
<g><path style="opacity:1" fill="#2e312d" d="M 422.5,5.5 C 427.347,4.84042 431.181,6.50709 434,10.5C 441.361,26.3253 444.527,42.992 443.5,60.5C 442.764,78.5591 441.598,96.5591 440,114.5C 443.833,121 449,126.167 455.5,130C 488.926,163.673 510.759,203.84 521,250.5C 527.015,279.899 528.849,309.566 526.5,339.5C 521.272,329.445 515.439,319.779 509,310.5C 505.462,305.83 500.962,302.83 495.5,301.5C 497.025,312.27 499.191,322.937 502,333.5C 507.3,365.429 503.967,396.429 492,426.5C 490.14,407.38 484.14,389.714 474,373.5C 471.936,372.409 469.769,372.242 467.5,373C 466.612,397.384 460.779,420.551 450,442.5C 446.054,448.779 441.721,454.779 437,460.5C 441.695,447.077 446.028,433.41 450,419.5C 461.249,372.817 453.249,329.817 426,290.5C 420.908,283.404 415.074,276.904 408.5,271C 399.774,264.257 391.108,257.591 382.5,251C 385.141,242.552 388.974,234.719 394,227.5C 404.637,217.864 414.971,207.864 425,197.5C 428.489,187.905 427.822,178.572 423,169.5C 414.356,155.516 404.19,142.682 392.5,131C 365.313,108.839 344.48,113.673 330,145.5C 324.941,157.343 320.274,169.343 316,181.5C 313.301,144.179 311.134,106.845 309.5,69.5C 319.845,69.9252 330.178,70.5919 340.5,71.5C 344.776,71.8209 348.776,70.9875 352.5,69C 370.565,48.9334 389.898,30.2667 410.5,13C 414.407,10.2411 418.407,7.74109 422.5,5.5 Z"/></g>
<g><path style="opacity:1" fill="#090704" d="M 177.5,34.5 C 182.945,34.4246 187.112,36.758 190,41.5C 200.357,54.8901 204.357,69.8901 202,86.5C 197.274,96.7301 189.441,103.063 178.5,105.5C 174.95,103.379 171.116,102.046 167,101.5C 168,95.8333 169,90.1667 170,84.5C 167.096,86.2268 163.93,86.8935 160.5,86.5C 160.343,85.1266 160.51,83.7932 161,82.5C 163.406,80.0167 165.573,77.35 167.5,74.5C 165.448,74.2947 163.114,74.2947 160.5,74.5C 160.343,73.1266 160.51,71.7932 161,70.5C 164.881,68.5544 168.214,65.8877 171,62.5C 171.966,56.8702 172.633,51.2036 173,45.5C 173.751,41.4599 175.251,37.7932 177.5,34.5 Z"/></g>
<g><path style="opacity:1" fill="#0a0704" d="M 414.5,34.5 C 417.044,34.1043 419.211,34.771 421,36.5C 423.799,44.9156 425.465,53.5822 426,62.5C 429.151,65.407 432.484,68.0736 436,70.5C 436.49,71.7932 436.657,73.1266 436.5,74.5C 433.886,74.2947 431.552,74.2947 429.5,74.5C 432.906,77.9928 435.239,81.9928 436.5,86.5C 433.07,86.8935 429.904,86.2268 427,84.5C 428.15,90.4442 429.316,96.4442 430.5,102.5C 428.143,102.337 425.81,102.503 423.5,103C 422.107,104.363 420.441,105.196 418.5,105.5C 400.802,100.976 392.635,89.6431 394,71.5C 396.703,56.7502 403.536,44.4168 414.5,34.5 Z"/></g>
<g><path style="opacity:1" fill="#c49257" d="M 179.5,38.5 C 182.394,39.8823 184.894,41.8823 187,44.5C 196.052,55.9868 200.052,68.9868 199,83.5C 194.881,92.1208 188.381,98.1208 179.5,101.5C 177.208,99.5513 174.541,98.5513 171.5,98.5C 172.301,94.4595 173.301,90.4595 174.5,86.5C 174.936,82.5912 173.269,80.2579 169.5,79.5C 171.006,77.3455 172.006,75.0121 172.5,72.5C 172.291,71.0055 171.624,69.8388 170.5,69C 171.685,67.647 173.019,66.4803 174.5,65.5C 175.968,58.9246 176.801,52.2579 177,45.5C 178.144,43.2906 178.977,40.9572 179.5,38.5 Z"/></g>
<g><path style="opacity:1" fill="#c49257" d="M 415.5,38.5 C 416.496,38.4142 417.329,38.7476 418,39.5C 418.17,41.7148 418.837,43.7148 420,45.5C 420.199,52.2579 421.032,58.9246 422.5,65.5C 423.981,66.4803 425.315,67.647 426.5,69C 423.78,73.6754 424.78,77.6754 429.5,81C 427.19,81.4966 424.857,81.6633 422.5,81.5C 422.575,87.0048 423.575,92.3382 425.5,97.5C 422.515,98.4185 419.848,99.7518 417.5,101.5C 398.196,93.4248 392.696,79.7581 401,60.5C 404.092,51.9717 408.926,44.6384 415.5,38.5 Z"/></g>
<g><path style="opacity:1" fill="#8b8b8b" d="M 305.5,70.5 C 304.596,69.791 304.263,68.791 304.5,67.5C 299.833,67.5 295.167,67.5 290.5,67.5C 290.802,70.0593 290.468,72.3926 289.5,74.5C 289.5,71.8333 289.5,69.1667 289.5,66.5C 294.833,66.5 300.167,66.5 305.5,66.5C 305.5,67.8333 305.5,69.1667 305.5,70.5 Z"/></g>
<g><path style="opacity:1" fill="#f4f4f4" d="M 305.5,70.5 C 307.316,98.4411 308.483,126.441 309,154.5C 310.626,166.026 311.959,177.693 313,189.5C 313.671,190.252 314.504,190.586 315.5,190.5C 316.493,208.793 319.327,226.793 324,244.5C 331.128,259.165 342.961,266.998 359.5,268C 364.5,268.333 369.5,268.667 374.5,269C 375.056,269.383 375.389,269.883 375.5,270.5C 370.572,309.496 365.406,348.496 360,387.5C 359.332,399.837 355.665,411.171 349,421.5C 341.023,429.056 331.523,433.556 320.5,435C 309.188,436.253 297.855,436.586 286.5,436C 278.552,434.012 270.552,432.346 262.5,431C 254.667,427.167 248.833,421.333 245,413.5C 241.706,404.071 239.373,394.405 238,384.5C 231.354,346.136 225.521,307.802 220.5,269.5C 230.975,268.649 241.308,266.816 251.5,264C 264.186,257.817 271.353,247.651 273,233.5C 275.712,218.231 277.878,202.898 279.5,187.5C 280.496,187.586 281.329,187.252 282,186.5C 286.571,149.402 289.071,112.068 289.5,74.5C 290.468,72.3926 290.802,70.0593 290.5,67.5C 295.167,67.5 299.833,67.5 304.5,67.5C 304.263,68.791 304.596,69.791 305.5,70.5 Z"/></g>
<g><path style="opacity:1" fill="#c99559" d="M 279.5,187.5 C 277.878,202.898 275.712,218.231 273,233.5C 271.353,247.651 264.186,257.817 251.5,264C 241.308,266.816 230.975,268.649 220.5,269.5C 218.755,265.8 217.755,261.8 217.5,257.5C 214.192,234.112 202.192,216.279 181.5,204C 172.061,195.886 169.895,186.052 175,174.5C 185.913,153.846 201.08,137.012 220.5,124C 235.584,118.029 247.418,121.862 256,135.5C 264.172,152.016 271.172,169.016 277,186.5C 277.671,187.252 278.504,187.586 279.5,187.5 Z"/></g>
<g><path style="opacity:1" fill="#c99559" d="M 379.5,255.5 C 378.155,260.589 376.821,265.589 375.5,270.5C 375.389,269.883 375.056,269.383 374.5,269C 369.5,268.667 364.5,268.333 359.5,268C 342.961,266.998 331.128,259.165 324,244.5C 319.327,226.793 316.493,208.793 315.5,190.5C 316.458,190.047 317.292,189.381 318,188.5C 323.628,170.618 330.628,153.284 339,136.5C 351.805,118.899 366.971,116.733 384.5,130C 401.164,143.986 413.997,160.82 423,180.5C 424.266,186.631 423.266,192.298 420,197.5C 413.632,203.926 406.798,209.759 399.5,215C 388.908,225.441 381.908,237.941 378.5,252.5C 378.52,253.726 378.853,254.726 379.5,255.5 Z"/></g>
<g><path style="opacity:1" fill="#ece0c9" d="M 233.5,179.5 C 247.594,177.625 257.094,183.292 262,196.5C 262.773,216.884 252.94,226.051 232.5,224C 221.012,218.857 215.845,210.024 217,197.5C 219.619,188.719 225.119,182.719 233.5,179.5 Z"/></g>
<g><path style="opacity:1" fill="#ebdfc8" d="M 351.5,179.5 C 370.621,178.456 380.121,187.456 380,206.5C 374.431,222.202 363.598,227.702 347.5,223C 334.397,214.686 331.23,203.519 338,189.5C 341.579,184.731 346.079,181.397 351.5,179.5 Z"/></g>
<g><path style="opacity:1" fill="#322b28" d="M 235.5,187.5 C 250.434,187.92 255.934,195.253 252,209.5C 244.288,218.27 236.288,218.603 228,210.5C 223.094,200.331 225.594,192.664 235.5,187.5 Z"/></g>
<g><path style="opacity:1" fill="#322a28" d="M 356.5,187.5 C 370.088,190.008 374.255,197.675 369,210.5C 360.692,218.74 352.692,218.406 345,209.5C 340.721,197.719 344.554,190.386 356.5,187.5 Z"/></g>
<g><path style="opacity:1" fill="#dbdbdb" d="M 244.5,192.5 C 251.821,193.319 253.154,196.486 248.5,202C 241.075,201.484 239.742,198.318 244.5,192.5 Z"/></g>
<g><path style="opacity:1" fill="#dfdfdf" d="M 361.5,192.5 C 366.989,192.504 368.822,195.171 367,200.5C 364.034,203.265 361.367,202.932 359,199.5C 358.162,196.519 358.995,194.186 361.5,192.5 Z"/></g>
<g><path style="opacity:1" fill="#e4e4e4" d="M 379.5,255.5 C 431.644,287.788 455.144,334.788 450,396.5C 446.888,419.926 440.221,442.259 430,463.5C 429.36,465.265 429.527,466.932 430.5,468.5C 418.685,485.827 405.518,502.16 391,517.5C 387.496,523.844 383.496,529.844 379,535.5C 375.289,543.912 372.456,552.578 370.5,561.5C 369.785,566.98 368.452,572.313 366.5,577.5C 363.748,574.996 361.748,571.996 360.5,568.5C 353.668,559.794 350.501,549.794 351,538.5C 342.838,551.821 337.338,566.154 334.5,581.5C 333.779,585.863 332.779,590.196 331.5,594.5C 329.822,591.805 328.156,589.139 326.5,586.5C 323.455,581.203 321.288,575.536 320,569.5C 318.634,560.206 317.634,550.873 317,541.5C 313.667,549.5 310.333,557.5 307,565.5C 304.507,575.138 302.34,584.804 300.5,594.5C 300.167,595.833 299.833,595.833 299.5,594.5C 298.323,586.783 296.823,579.116 295,571.5C 291,561.5 287,551.5 283,541.5C 282.94,557.544 279.773,572.878 273.5,587.5C 271.686,589.764 269.853,592.097 268,594.5C 267.367,590.653 266.533,586.986 265.5,583.5C 263.65,567.466 258.15,552.799 249,539.5C 249.02,551.113 245.52,561.446 238.5,570.5C 237.223,572.95 235.723,575.283 234,577.5C 232.027,573.247 230.527,568.913 229.5,564.5C 225.474,543.782 216.64,525.449 203,509.5C 191.18,499.022 180.847,487.355 172,474.5C 170.293,472.091 169.46,469.425 169.5,466.5C 165.309,452.426 160.809,438.426 156,424.5C 148.982,398.559 147.649,372.225 152,345.5C 161.477,306.841 183.311,277.508 217.5,257.5C 217.755,261.8 218.755,265.8 220.5,269.5C 225.521,307.802 231.354,346.136 238,384.5C 239.373,394.405 241.706,404.071 245,413.5C 248.833,421.333 254.667,427.167 262.5,431C 270.552,432.346 278.552,434.012 286.5,436C 297.855,436.586 309.188,436.253 320.5,435C 331.523,433.556 341.023,429.056 349,421.5C 355.665,411.171 359.332,399.837 360,387.5C 365.406,348.496 370.572,309.496 375.5,270.5C 376.821,265.589 378.155,260.589 379.5,255.5 Z"/></g>
<g><path style="opacity:1" fill="#d4d4d4" d="M 507.5,434.5 C 507.719,433.325 507.386,432.325 506.5,431.5C 505.365,433.707 504.699,436.04 504.5,438.5C 495.353,472.832 477.02,501.332 449.5,524C 443.285,529.056 436.952,533.89 430.5,538.5C 423.596,541.285 416.93,544.619 410.5,548.5C 409.817,548.137 409.15,547.804 408.5,547.5C 407.907,544.2 407.24,540.866 406.5,537.5C 405.893,537.624 405.56,537.957 405.5,538.5C 403.952,538.821 403.285,539.821 403.5,541.5C 402.127,541.343 400.793,541.51 399.5,542C 390.537,549.486 380.87,555.986 370.5,561.5C 372.456,552.578 375.289,543.912 379,535.5C 383.496,529.844 387.496,523.844 391,517.5C 405.518,502.16 418.685,485.827 430.5,468.5C 435.029,468.504 438.529,466.504 441,462.5C 460.465,437.241 470.465,408.574 471,376.5C 475.113,382.391 478.446,388.724 481,395.5C 484.303,407.649 486.636,419.982 488,432.5C 489.444,434.155 491.278,434.822 493.5,434.5C 497.363,425.445 500.53,416.112 503,406.5C 510.756,373.621 510.089,340.954 501,308.5C 510.653,318.974 518.153,330.807 523.5,344C 522.409,346.064 522.242,348.231 523,350.5C 525.272,355.59 526.606,360.923 527,366.5C 528.817,391.661 526.151,416.327 519,440.5C 518.115,443 516.948,445.333 515.5,447.5C 514.167,448.833 512.833,448.833 511.5,447.5C 509.751,443.255 508.417,438.922 507.5,434.5 Z"/></g>
<g><path style="opacity:1" fill="#d2d2d2" d="M 126.5,380.5 C 127.167,382.167 127.833,383.833 128.5,385.5C 130.505,417.695 142.505,445.528 164.5,469C 165.793,469.49 167.127,469.657 168.5,469.5C 168.263,468.209 168.596,467.209 169.5,466.5C 169.46,469.425 170.293,472.091 172,474.5C 180.847,487.355 191.18,499.022 203,509.5C 216.64,525.449 225.474,543.782 229.5,564.5C 216.605,556.444 204.105,547.777 192,538.5C 190.595,541.619 190.095,544.952 190.5,548.5C 158.916,534.249 133.416,512.582 114,483.5C 103.92,466.586 96.5862,448.586 92,429.5C 90.7835,435.702 88.9502,441.702 86.5,447.5C 85.9984,448.521 85.3317,448.688 84.5,448C 77.8483,433.952 74.015,419.119 73,403.5C 71.6821,391.857 71.3488,380.191 72,368.5C 74.179,359.605 75.8456,350.605 77,341.5C 82.4205,330.316 89.0872,319.983 97,310.5C 85.9815,352.756 88.8148,394.089 105.5,434.5C 107.045,435.452 108.712,435.785 110.5,435.5C 112.363,424.851 114.196,414.184 116,403.5C 118.435,395.3 121.935,387.633 126.5,380.5 Z"/></g>
<g><path style="opacity:1" fill="#010101" d="M 287.5,358.5 C 298.296,357.932 308.963,358.766 319.5,361C 330.471,365.778 334.305,373.944 331,385.5C 324.037,397.162 313.703,403.829 300,405.5C 285.955,404.326 275.621,397.659 269,385.5C 266.371,377.182 268.205,370.015 274.5,364C 278.76,361.703 283.093,359.87 287.5,358.5 Z"/></g>
<g><path style="opacity:1" fill="#666666" d="M 128.5,385.5 C 127.833,383.833 127.167,382.167 126.5,380.5C 126.783,379.711 127.283,379.044 128,378.5C 128.497,380.81 128.663,383.143 128.5,385.5 Z"/></g>
<g><path style="opacity:1" fill="#717171" d="M 507.5,434.5 C 506.5,435.833 505.5,437.167 504.5,438.5C 504.699,436.04 505.365,433.707 506.5,431.5C 507.386,432.325 507.719,433.325 507.5,434.5 Z"/></g>
<g><path style="opacity:1" fill="#d4d4d4" d="M 265.5,583.5 C 256.352,579.425 247.352,575.092 238.5,570.5C 245.52,561.446 249.02,551.113 249,539.5C 258.15,552.799 263.65,567.466 265.5,583.5 Z"/></g>
<g><path style="opacity:1" fill="#d4d4d4" d="M 360.5,568.5 C 351.833,572.833 343.167,577.167 334.5,581.5C 337.338,566.154 342.838,551.821 351,538.5C 350.501,549.794 353.668,559.794 360.5,568.5 Z"/></g>
<g><path style="opacity:1" fill="#5d5d5d" d="M 405.5,538.5 C 405.56,537.957 405.893,537.624 406.5,537.5C 407.24,540.866 407.907,544.2 408.5,547.5C 406.89,544.797 405.89,541.797 405.5,538.5 Z"/></g>
<g><path style="opacity:1" fill="#d5d5d5" d="M 299.5,594.5 C 290.626,592.987 281.96,590.654 273.5,587.5C 279.773,572.878 282.94,557.544 283,541.5C 287,551.5 291,561.5 295,571.5C 296.823,579.116 298.323,586.783 299.5,594.5 Z"/></g>
<g><path style="opacity:1" fill="#d4d4d4" d="M 326.5,586.5 C 317.905,589.365 309.239,592.031 300.5,594.5C 302.34,584.804 304.507,575.138 307,565.5C 310.333,557.5 313.667,549.5 317,541.5C 317.634,550.873 318.634,560.206 320,569.5C 321.288,575.536 323.455,581.203 326.5,586.5 Z"/></g>
</svg>
