<?xml version="1.0" encoding="UTF-8"?>
<!DOCTYPE svg PUBLIC "-//W3C//DTD SVG 1.1//EN" "http://www.w3.org/Graphics/SVG/1.1/DTD/svg11.dtd">
<svg xmlns="http://www.w3.org/2000/svg" version="1.1" width="600px" height="600px" style="shape-rendering:geometricPrecision; text-rendering:geometricPrecision; image-rendering:optimizeQuality; fill-rule:evenodd; clip-rule:evenodd" xmlns:xlink="http://www.w3.org/1999/xlink">
<g><path style="opacity:0.965" fill="#020101" d="M 160.5,-0.5 C 176.167,-0.5 191.833,-0.5 207.5,-0.5C 213.755,4.67502 219.089,10.675 223.5,17.5C 248.425,12.7703 273.591,10.7703 299,11.5C 324.74,10.7748 350.24,12.7748 375.5,17.5C 379.771,10.5623 385.104,4.56234 391.5,-0.5C 406.833,-0.5 422.167,-0.5 437.5,-0.5C 462.697,8.73509 488.03,17.9018 513.5,27C 532.615,33.8911 550.615,42.8911 567.5,54C 580.445,64.8283 585.945,78.6617 584,95.5C 582.125,106.791 578.459,117.457 573,127.5C 561,144.833 549,162.167 537,179.5C 528.168,195.496 520.168,211.829 513,228.5C 503.098,235.752 494.098,234.752 486,225.5C 484.667,223.5 483.333,221.5 482,219.5C 481.364,244.232 479.864,268.898 477.5,293.5C 485.275,302.79 492.109,312.79 498,323.5C 516.137,376.742 511.137,427.742 483,476.5C 479.628,481.444 475.128,483.444 469.5,482.5C 466.914,496.675 460.414,508.675 450,518.5C 448.195,531.725 444.528,544.391 439,556.5C 436.146,562.693 431.479,566.693 425,568.5C 424.667,568.167 424.333,567.833 424,567.5C 419.234,577.575 411.234,583.575 400,585.5C 392.246,584.743 388.246,580.41 388,572.5C 386.226,578.553 383.059,583.72 378.5,588C 372.39,590.305 367.056,589.139 362.5,584.5C 353.567,589.796 344.567,594.796 335.5,599.5C 311.5,599.5 287.5,599.5 263.5,599.5C 254.331,594.663 245.164,589.663 236,584.5C 223.904,592.688 215.571,589.688 211,575.5C 208.316,584.591 202.483,587.425 193.5,584C 184.975,580.648 178.809,575.481 175,568.5C 166.727,565.56 161.06,559.894 158,551.5C 154.237,541.449 151.571,531.116 150,520.5C 138.727,510.291 131.894,497.625 129.5,482.5C 124.903,483.343 120.903,482.009 117.5,478.5C 89.5231,432.02 83.0231,382.686 98,330.5C 102.939,317.572 110.273,306.239 120,296.5C 120.109,270.449 119.109,244.449 117,218.5C 109.567,233.986 98.9,236.986 85,227.5C 78.0109,209.855 69.6775,192.855 60,176.5C 49.0877,161.676 38.4211,146.676 28,131.5C 18.3363,116.177 14.0029,99.5103 15,81.5C 17.1517,69.6888 22.985,60.1888 32.5,53C 46.7812,44.0256 61.7812,36.3589 77.5,30C 105.304,19.9021 132.97,9.73548 160.5,-0.5 Z"/></g>
<g><path style="opacity:1" fill="#5a443a" d="M 179.5,8.5 C 193.736,7.56295 203.902,13.5629 210,26.5C 210.667,27.8333 210.667,29.1667 210,30.5C 195.004,37.8195 182.004,47.8195 171,60.5C 154.754,80.31 142.088,102.31 133,126.5C 129.383,137.355 125.383,148.022 121,158.5C 115.794,176.784 109.794,194.784 103,212.5C 101.71,214.792 100.043,216.792 98,218.5C 85.9911,188.129 69.6578,160.462 49,135.5C 38.6472,121.457 32.1472,105.791 29.5,88.5C 29.9099,80.5149 32.9099,73.6815 38.5,68C 47.6469,61.5358 57.3136,55.8691 67.5,51C 104.811,36.5 142.145,22.3333 179.5,8.5 Z"/></g>
<g><path style="opacity:1" fill="#5a443a" d="M 406.5,8.5 C 412.7,8.01575 418.7,8.84908 424.5,11C 457.921,23.14 491.255,35.4733 524.5,48C 538.368,53.8465 551.202,61.3465 563,70.5C 564.935,73.3707 566.601,76.3707 568,79.5C 569.615,90.261 568.282,100.594 564,110.5C 561.667,115.167 559.333,119.833 557,124.5C 545.945,139.222 535.278,154.222 525,169.5C 515.656,185.188 507.656,201.522 501,218.5C 497.341,215.188 494.674,211.188 493,206.5C 484.844,178.697 475.511,151.364 465,124.5C 452.853,91.7108 433.686,63.8775 407.5,41C 401.577,37.1204 395.41,33.6204 389,30.5C 388.882,26.3841 390.216,22.7175 393,19.5C 396.819,14.8329 401.319,11.1663 406.5,8.5 Z"/></g>
<g><path style="opacity:1" fill="#7b6152" d="M 467.5,299.5 C 429.528,267.224 385.528,249.724 335.5,247C 267.742,235.818 205.075,248.818 147.5,286C 141.708,289.959 136.374,294.459 131.5,299.5C 130.551,258.275 128.551,217.109 125.5,176C 132.721,134.068 149.554,96.5679 176,63.5C 186.184,51.6424 198.351,42.4757 212.5,36C 214.972,34.2015 216.639,31.8682 217.5,29C 270.761,19.3776 324.095,19.0443 377.5,28C 381.149,29.9994 384.149,32.6661 386.5,36C 402.206,43.2755 415.373,53.7755 426,67.5C 449.184,99.2046 465.351,134.205 474.5,172.5C 474.308,174.577 473.808,176.577 473,178.5C 470.978,218.829 469.145,259.162 467.5,299.5 Z"/></g>
<g><path style="opacity:1" fill="#947b66" d="M 236.5,152.5 C 218.052,149.577 199.719,150.244 181.5,154.5C 169.683,156.966 158.017,160.133 146.5,164C 137.667,165.833 134.167,162.333 136,153.5C 137.561,150.217 139.727,147.383 142.5,145C 175.658,119.377 212.992,109.71 254.5,116C 275.456,123.204 279.79,135.871 267.5,154C 262.348,156.122 257.348,155.789 252.5,153C 247.177,152.501 241.844,152.334 236.5,152.5 Z"/></g>
<g><path style="opacity:1" fill="#947b66" d="M 417.5,154.5 C 406.083,152.458 394.583,151.125 383,150.5C 375.716,150.459 368.549,151.126 361.5,152.5C 352.766,151.845 344.266,152.845 336,155.5C 333.077,155.205 330.743,153.871 329,151.5C 328.673,145.026 327.173,138.86 324.5,133C 326.716,125.782 331.383,120.782 338.5,118C 347.059,114.955 355.893,113.455 365,113.5C 397.632,114.155 427.132,123.988 453.5,143C 457.422,146.251 460.588,150.084 463,154.5C 462.402,157.643 461.569,160.81 460.5,164C 457.833,164.667 455.167,164.667 452.5,164C 440.864,160.675 429.197,157.508 417.5,154.5 Z"/></g>
<g><path style="opacity:1" fill="#322b29" d="M 236.5,152.5 C 245.145,169.747 242.145,184.58 227.5,197C 209.867,206.673 195.034,203.506 183,187.5C 177.515,176.706 177.015,165.706 181.5,154.5C 199.719,150.244 218.052,149.577 236.5,152.5 Z"/></g>
<g><path style="opacity:1" fill="#322b29" d="M 417.5,154.5 C 417.586,155.496 417.252,156.329 416.5,157C 424.553,177.383 418.553,192.05 398.5,201C 381.277,204.768 368.444,198.935 360,183.5C 356.086,173.556 356.919,164.056 362.5,155C 361.748,154.329 361.414,153.496 361.5,152.5C 368.549,151.126 375.716,150.459 383,150.5C 394.583,151.125 406.083,152.458 417.5,154.5 Z"/></g>
<g><path style="opacity:1" fill="#dbdbdb" d="M 218.5,155.5 C 224.377,155.206 226.877,157.872 226,163.5C 222.433,168.796 218.766,168.796 215,163.5C 214.279,159.946 215.446,157.28 218.5,155.5 Z"/></g>
<g><path style="opacity:1" fill="#dad9d9" d="M 375.5,155.5 C 381.17,155.339 384.003,158.006 384,163.5C 380.645,168.31 376.979,168.644 373,164.5C 371.927,160.9 372.76,157.9 375.5,155.5 Z"/></g>
<g><path style="opacity:1" fill="#947b66" d="M 467.5,299.5 C 486.887,318.286 497.054,341.286 498,368.5C 500.513,405.452 492.346,439.785 473.5,471.5C 472.277,472.614 470.944,472.781 469.5,472C 468.333,470.833 467.167,469.667 466,468.5C 462.752,462.336 459.252,456.336 455.5,450.5C 455.167,451.5 454.833,452.5 454.5,453.5C 456.87,465.398 457.703,477.398 457,489.5C 453.803,498.581 448.636,506.248 441.5,512.5C 439.448,475.682 437.948,438.682 437,401.5C 436.445,366.235 423.279,336.735 397.5,313C 372.323,296.102 344.656,289.935 314.5,294.5C 304.803,293.675 295.136,293.675 285.5,294.5C 264.01,290.583 243.01,292.416 222.5,300C 193.728,312.774 174.894,334.274 166,364.5C 163.51,375.374 161.844,386.374 161,397.5C 159.694,436.402 158.861,475.069 158.5,513.5C 143.611,501.673 138.111,486.34 142,467.5C 142.576,462.622 143.409,457.789 144.5,453C 144.167,452.167 143.833,451.333 143.5,450.5C 139.179,456.465 135.345,462.798 132,469.5C 130.475,472.087 128.308,472.92 125.5,472C 102.271,432.653 95.1048,390.486 104,345.5C 108.853,327.44 118.02,312.107 131.5,299.5C 136.374,294.459 141.708,289.959 147.5,286C 205.075,248.818 267.742,235.818 335.5,247C 385.528,249.724 429.528,267.224 467.5,299.5 Z"/></g>
<g><path style="opacity:1" fill="#846954" d="M 285.5,294.5 C 274.304,295.514 264.804,300.181 257,308.5C 252.066,316.041 250.232,324.374 251.5,333.5C 250.835,331.631 250.169,329.631 249.5,327.5C 239.211,330.967 230.377,336.634 223,344.5C 220.566,347.795 218.899,351.462 218,355.5C 216.975,369.316 217.975,382.982 221,396.5C 229.197,426.952 237.863,457.285 247,487.5C 251.848,509.252 253.848,531.252 253,553.5C 252.543,560.578 251.543,567.578 250,574.5C 242.667,568.5 236,561.833 230,554.5C 229.503,556.81 229.337,559.143 229.5,561.5C 228.412,567.021 227.412,572.688 226.5,578.5C 223.566,577.711 221.732,575.711 221,572.5C 217.514,562.894 214.181,553.227 211,543.5C 209.359,547.323 206.526,549.323 202.5,549.5C 202.312,558.287 201.312,566.953 199.5,575.5C 193.965,573.452 189.465,570.119 186,565.5C 184.835,555.524 184.002,545.524 183.5,535.5C 183.666,526.494 183.5,517.494 183,508.5C 182,507.5 181,506.5 180,505.5C 178.836,514.137 178.002,522.804 177.5,531.5C 177.666,537.509 177.499,543.509 177,549.5C 177.866,557.387 175.866,558.72 171,553.5C 164.682,540.719 160.515,527.386 158.5,513.5C 158.861,475.069 159.694,436.402 161,397.5C 161.844,386.374 163.51,375.374 166,364.5C 174.894,334.274 193.728,312.774 222.5,300C 243.01,292.416 264.01,290.583 285.5,294.5 Z"/></g>
<g><path style="opacity:1" fill="#372f2b" d="M 314.5,294.5 C 324.077,296.088 332.744,299.922 340.5,306C 345.836,312.49 348.503,319.99 348.5,328.5C 346.05,349.203 335.05,363.37 315.5,371C 311.284,372.684 306.951,373.851 302.5,374.5C 302.781,379.229 304.781,383.063 308.5,386C 317.404,386.651 326.237,386.151 335,384.5C 339.113,384.192 342.946,385.025 346.5,387C 350.939,392.549 354.606,398.549 357.5,405C 356.499,407.502 354.833,408.002 352.5,406.5C 349.684,400.856 345.684,396.356 340.5,393C 326.174,395.583 311.674,397.083 297,397.5C 292.833,397.333 288.667,397.167 284.5,397C 277.21,395.309 269.876,393.809 262.5,392.5C 257.571,392.909 253.738,395.242 251,399.5C 249.877,402.249 248.377,404.749 246.5,407C 245.207,407.49 243.873,407.657 242.5,407.5C 243.783,398.764 247.783,391.597 254.5,386C 256.87,384.964 259.37,384.464 262,384.5C 271.454,386.064 280.954,386.564 290.5,386C 294.764,383.41 297.098,379.577 297.5,374.5C 273.346,370.676 258.012,357.01 251.5,333.5C 250.232,324.374 252.066,316.041 257,308.5C 264.804,300.181 274.304,295.514 285.5,294.5C 295.136,293.675 304.803,293.675 314.5,294.5 Z"/></g>
<g><path style="opacity:1" fill="#846853" d="M 441.5,512.5 C 439.224,523.186 436.39,533.853 433,544.5C 431.16,549.52 428.327,553.854 424.5,557.5C 422.795,548.942 421.795,540.275 421.5,531.5C 421.701,522.792 421.201,514.125 420,505.5C 419.804,503.714 418.971,502.381 417.5,501.5C 416.177,512.326 416.177,522.993 417.5,533.5C 417.217,534.289 416.717,534.956 416,535.5C 415.745,545.199 415.078,554.865 414,564.5C 413.727,566.329 412.893,567.829 411.5,569C 407.748,571.293 403.914,573.46 400,575.5C 399.667,575.167 399.333,574.833 399,574.5C 397.713,566.219 397.213,557.886 397.5,549.5C 395.585,549.784 393.919,549.451 392.5,548.5C 393.833,548.5 395.167,548.5 396.5,548.5C 396.55,540.77 395.884,533.104 394.5,525.5C 391.622,530.59 389.288,535.924 387.5,541.5C 387.863,542.183 388.196,542.85 388.5,543.5C 387.503,543.47 386.836,543.97 386.5,545C 383.113,556.596 378.779,567.763 373.5,578.5C 372.369,579.604 371.535,579.271 371,577.5C 370.646,572.611 369.813,567.944 368.5,563.5C 369.75,551.173 367.917,550.507 363,561.5C 357.635,567.199 351.969,572.533 346,577.5C 341.425,545.481 343.091,513.815 351,482.5C 359.839,454.301 368.172,425.968 376,397.5C 377.925,387.097 379.425,376.597 380.5,366C 380.659,353.985 375.992,344.318 366.5,337C 360.861,333.346 354.861,330.513 348.5,328.5C 348.503,319.99 345.836,312.49 340.5,306C 332.744,299.922 324.077,296.088 314.5,294.5C 344.656,289.935 372.323,296.102 397.5,313C 423.279,336.735 436.445,366.235 437,401.5C 437.948,438.682 439.448,475.682 441.5,512.5 Z"/></g>
<g><path style="opacity:1" fill="#947b66" d="M 251.5,333.5 C 258.012,357.01 273.346,370.676 297.5,374.5C 297.098,379.577 294.764,383.41 290.5,386C 280.954,386.564 271.454,386.064 262,384.5C 259.37,384.464 256.87,384.964 254.5,386C 247.783,391.597 243.783,398.764 242.5,407.5C 243.873,407.657 245.207,407.49 246.5,407C 248.377,404.749 249.877,402.249 251,399.5C 253.738,395.242 257.571,392.909 262.5,392.5C 269.876,393.809 277.21,395.309 284.5,397C 288.667,397.167 292.833,397.333 297,397.5C 311.674,397.083 326.174,395.583 340.5,393C 345.684,396.356 349.684,400.856 352.5,406.5C 354.833,408.002 356.499,407.502 357.5,405C 354.606,398.549 350.939,392.549 346.5,387C 342.946,385.025 339.113,384.192 335,384.5C 326.237,386.151 317.404,386.651 308.5,386C 304.781,383.063 302.781,379.229 302.5,374.5C 306.951,373.851 311.284,372.684 315.5,371C 335.05,363.37 346.05,349.203 348.5,328.5C 354.861,330.513 360.861,333.346 366.5,337C 375.992,344.318 380.659,353.985 380.5,366C 379.425,376.597 377.925,387.097 376,397.5C 368.172,425.968 359.839,454.301 351,482.5C 343.091,513.815 341.425,545.481 346,577.5C 351.969,572.533 357.635,567.199 363,561.5C 367.917,550.507 369.75,551.173 368.5,563.5C 364.664,569.502 359.664,574.335 353.5,578C 340.881,585.893 327.381,591.726 313,595.5C 309.359,595.192 307.359,593.192 307,589.5C 304.68,578.943 303.013,568.276 302,557.5C 300.769,551.515 299.102,551.182 297,556.5C 295.816,568.643 293.816,580.643 291,592.5C 289.818,594.357 288.151,595.357 286,595.5C 270.949,591.392 256.782,585.225 243.5,577C 237.573,572.91 232.907,567.743 229.5,561.5C 229.337,559.143 229.503,556.81 230,554.5C 236,561.833 242.667,568.5 250,574.5C 251.543,567.578 252.543,560.578 253,553.5C 253.848,531.252 251.848,509.252 247,487.5C 237.863,457.285 229.197,426.952 221,396.5C 217.975,382.982 216.975,369.316 218,355.5C 218.899,351.462 220.566,347.795 223,344.5C 230.377,336.634 239.211,330.967 249.5,327.5C 250.169,329.631 250.835,331.631 251.5,333.5 Z"/></g>
<g><path style="opacity:1" fill="#927964" d="M 421.5,531.5 C 420.395,532.6 419.062,533.267 417.5,533.5C 416.177,522.993 416.177,512.326 417.5,501.5C 418.971,502.381 419.804,503.714 420,505.5C 421.201,514.125 421.701,522.792 421.5,531.5 Z"/></g>
<g><path style="opacity:1" fill="#917864" d="M 183.5,535.5 C 181.228,534.559 179.228,533.226 177.5,531.5C 178.002,522.804 178.836,514.137 180,505.5C 181,506.5 182,507.5 183,508.5C 183.5,517.494 183.666,526.494 183.5,535.5 Z"/></g>
<g><path style="opacity:1" fill="#927965" d="M 392.5,548.5 C 390.003,547.871 388.67,546.204 388.5,543.5C 388.196,542.85 387.863,542.183 387.5,541.5C 389.288,535.924 391.622,530.59 394.5,525.5C 395.884,533.104 396.55,540.77 396.5,548.5C 395.167,548.5 393.833,548.5 392.5,548.5 Z"/></g>
</svg>
