<?xml version="1.0" encoding="UTF-8"?>
<!DOCTYPE svg PUBLIC "-//W3C//DTD SVG 1.1//EN" "http://www.w3.org/Graphics/SVG/1.1/DTD/svg11.dtd">
<svg xmlns="http://www.w3.org/2000/svg" version="1.1" width="600px" height="600px" style="shape-rendering:geometricPrecision; text-rendering:geometricPrecision; image-rendering:optimizeQuality; fill-rule:evenodd; clip-rule:evenodd" xmlns:xlink="http://www.w3.org/1999/xlink">
<g><path style="opacity:0.961" fill="#030202" d="M 192.5,-0.5 C 198.833,-0.5 205.167,-0.5 211.5,-0.5C 218.736,8.96002 225.236,18.96 231,29.5C 241.016,49.5311 251.016,69.5311 261,89.5C 267.736,84.0741 274.236,84.4074 280.5,90.5C 282.192,78.9921 288.525,75.1588 299.5,79C 305.051,84.5997 309.218,91.0997 312,98.5C 314.377,92.7434 317.044,87.0767 320,81.5C 325.623,73.6425 332.29,72.6425 340,78.5C 340.667,79.8333 341.333,81.1667 342,82.5C 354.625,53.2341 369.792,25.5674 387.5,-0.5C 393.833,-0.5 400.167,-0.5 406.5,-0.5C 415.16,10.1356 422.327,21.8022 428,34.5C 437.792,57.5427 445.792,81.2093 452,105.5C 455.879,107.189 459.712,109.022 463.5,111C 468.16,116.451 468.66,122.284 465,128.5C 462.523,129.985 460.356,131.819 458.5,134C 464.75,161.166 467.917,188.666 468,216.5C 467.171,222.66 464.004,227.16 458.5,230C 465.678,236.167 470.845,243.667 474,252.5C 477.069,269.369 478.069,286.369 477,303.5C 476.816,310.071 473.649,314.238 467.5,316C 471.749,323.335 474.749,331.169 476.5,339.5C 476.545,346.399 474.545,352.565 470.5,358C 474.58,372.061 473.747,385.894 468,399.5C 464.84,402.994 461.006,405.328 456.5,406.5C 458.704,413.945 461.204,421.278 464,428.5C 463.079,447.68 456.079,464.347 443,478.5C 442.558,492.269 439.892,505.602 435,518.5C 425.976,539.647 411.476,556.147 391.5,568C 388.247,569.036 384.914,569.703 381.5,570C 374.032,580.119 364.032,586.119 351.5,588C 340.163,590 328.829,592 317.5,594C 313.88,594.672 311.214,596.506 309.5,599.5C 303.167,599.5 296.833,599.5 290.5,599.5C 288.181,596.706 285.181,594.872 281.5,594C 270.202,591.814 258.868,589.814 247.5,588C 235.238,586.213 225.571,580.38 218.5,570.5C 209.568,569.699 201.901,566.199 195.5,560C 189,554.833 183.167,549 178,542.5C 164.256,523.596 156.922,502.262 156,478.5C 146.409,466.317 139.742,452.65 136,437.5C 135.333,434.5 135.333,431.5 136,428.5C 139.21,420.706 141.71,412.706 143.5,404.5C 137.607,404.426 133.44,401.759 131,396.5C 126.107,383.608 125.607,370.608 129.5,357.5C 123.232,349.225 121.732,340.225 125,330.5C 126.893,325.713 129.06,321.047 131.5,316.5C 125.398,313.887 122.231,309.22 122,302.5C 121.337,287.778 122.004,273.111 124,258.5C 126.14,246.701 131.973,237.201 141.5,230C 135.384,227.549 131.884,223.049 131,216.5C 131.305,188.859 134.472,161.525 140.5,134.5C 138.836,132.005 136.67,130.005 134,128.5C 130.615,123.04 130.782,117.706 134.5,112.5C 138.294,109.519 142.461,107.186 147,105.5C 154.933,73.3621 166.599,42.6955 182,13.5C 185.266,8.62467 188.766,3.95801 192.5,-0.5 Z"/></g>
<g><path style="opacity:1" fill="#cfb59d" d="M 330.5,85.5 C 331.473,87.9479 331.806,90.6146 331.5,93.5C 330.378,101.308 329.378,109.141 328.5,117C 328.494,119.3 328.994,121.466 330,123.5C 331.183,124.731 332.349,124.731 333.5,123.5C 350.406,86.3554 368.906,50.0221 389,14.5C 391.012,11.1542 393.679,8.48751 397,6.5C 401.645,9.48382 405.312,13.4838 408,18.5C 424.33,48.8163 436.33,80.8163 444,114.5C 447.399,115.893 450.899,117.06 454.5,118C 457.915,119.143 458.249,120.81 455.5,123C 453.212,123.822 450.878,124.489 448.5,125C 447.572,125.388 446.905,126.055 446.5,127C 453.701,156.071 457.534,185.571 458,215.5C 457.535,216.931 456.701,218.097 455.5,219C 449.833,219.333 444.167,219.667 438.5,220C 436.637,221.418 436.137,223.251 437,225.5C 444.523,231.933 451.856,238.6 459,245.5C 461.81,249.453 463.81,253.787 465,258.5C 466.508,274.137 466.841,289.803 466,305.5C 463.353,306.464 460.853,305.964 458.5,304C 453.709,300.263 449.043,297.097 444.5,294.5C 451.255,307.01 457.755,319.677 464,332.5C 465.696,337.661 465.863,342.827 464.5,348C 460.49,348.261 456.656,347.427 453,345.5C 452.5,345.833 452,346.167 451.5,346.5C 463.841,361.289 465.841,377.289 457.5,394.5C 451.885,390.388 446.719,385.722 442,380.5C 441.5,381 441,381.5 440.5,382C 443.581,399.325 447.915,416.325 453.5,433C 451.286,445.595 446.453,457.095 439,467.5C 437.086,454.591 434.419,441.925 431,429.5C 425.227,416.294 419.227,403.294 413,390.5C 409.535,386.033 405.702,381.867 401.5,378C 394.281,374.391 386.948,370.724 379.5,367C 351.143,356.221 326.143,361.221 304.5,382C 303.271,382.781 301.938,383.281 300.5,383.5C 294.718,379.56 289.051,375.393 283.5,371C 278.656,369.582 273.99,367.582 269.5,365C 258.015,361.279 246.348,360.612 234.5,363C 227.353,364.429 220.353,366.096 213.5,368C 194.72,378.447 181.22,393.614 173,413.5C 164.931,430.24 160.598,447.907 160,466.5C 152.731,456.63 148.231,445.63 146.5,433.5C 151.592,416.797 155.592,399.797 158.5,382.5C 158.167,381.5 157.833,380.5 157.5,379.5C 152.981,383.185 148.981,387.352 145.5,392C 143.975,393.009 142.308,393.509 140.5,393.5C 138.461,385.268 137.294,376.935 137,368.5C 139.523,360.452 143.357,353.119 148.5,346.5C 147.667,346.167 146.833,345.833 146,345.5C 142.286,346.869 138.453,347.536 134.5,347.5C 133.669,343.524 133.503,339.524 134,335.5C 140.818,320.868 147.818,306.535 155,292.5C 149.429,298.739 142.762,303.405 135,306.5C 134.228,306.355 133.561,306.022 133,305.5C 131.946,288.422 132.613,271.422 135,254.5C 140.068,244.765 147.234,236.932 156.5,231C 159.325,228.857 161.325,226.19 162.5,223C 162.245,221.674 161.578,220.674 160.5,220C 154.833,219.667 149.167,219.333 143.5,219C 141.996,217.509 141.163,215.676 141,213.5C 141.98,183.805 145.813,154.472 152.5,125.5C 148.01,125.473 144.343,123.806 141.5,120.5C 145.43,117.01 150.097,115.343 155.5,115.5C 162.967,80.2646 175.467,46.9313 193,15.5C 195.346,11.8209 198.346,8.82088 202,6.5C 204.281,7.77626 206.281,9.44293 208,11.5C 213.585,20.335 218.919,29.335 224,38.5C 238.211,66.2548 251.878,94.2548 265,122.5C 267.454,124.013 269.121,123.346 270,120.5C 270.615,113.761 270.115,107.094 268.5,100.5C 268.436,98.6107 268.936,96.9441 270,95.5C 277.199,104.558 282.866,114.558 287,125.5C 288.356,126.38 289.856,126.714 291.5,126.5C 291.333,113.829 291.5,101.162 292,88.5C 292.741,87.3595 293.575,87.3595 294.5,88.5C 301.765,100.371 307.432,113.037 311.5,126.5C 316.81,116.209 321.31,105.543 325,94.5C 326.357,91.1019 328.19,88.1019 330.5,85.5 Z"/></g>
<g><path style="opacity:1" fill="#090706" d="M 197.5,126.5 C 194.404,125.052 191.071,124.552 187.5,125C 190.154,125.941 192.821,126.774 195.5,127.5C 210.832,132.914 224.332,141.247 236,152.5C 237.588,158.645 236.088,163.811 231.5,168C 226.062,172.921 219.729,174.588 212.5,173C 211.667,172.167 210.833,171.333 210,170.5C 210.812,180.361 206.312,186.195 196.5,188C 190.013,189.019 183.846,188.186 178,185.5C 174.596,186.199 171.262,187.199 168,188.5C 162.094,187.593 158.427,184.259 157,178.5C 157.197,160.928 159.53,143.595 164,126.5C 166.016,124.316 168.183,122.316 170.5,120.5C 168.093,115.009 167.926,109.342 170,103.5C 174.788,85.1248 181.122,67.4581 189,50.5C 194.579,43.3974 201.412,41.8974 209.5,46C 213.369,49.5338 216.869,53.3672 220,57.5C 232.084,79.9919 242.75,102.992 252,126.5C 252.667,131.5 252.667,136.5 252,141.5C 251.654,143.848 250.487,145.681 248.5,147C 244.594,148.434 240.594,148.767 236.5,148C 226.395,135.613 213.395,128.447 197.5,126.5 Z"/></g>
<g><path style="opacity:1" fill="#090706" d="M 403.5,127.5 C 406.179,126.774 408.846,125.941 411.5,125C 407.619,124.65 403.952,125.15 400.5,126.5C 386.068,128.549 374.068,135.049 364.5,146C 352.836,149.824 346.836,145.657 346.5,133.5C 346.756,127.143 348.256,121.143 351,115.5C 359.416,97.3352 368.416,79.3352 378,61.5C 381.794,55.0748 386.627,49.5748 392.5,45C 400.197,42.5655 406.697,44.3988 412,50.5C 420.359,68.8937 427.359,87.8937 433,107.5C 434.123,112.436 433.29,116.936 430.5,121C 433.562,122.061 436.062,123.894 438,126.5C 442.685,143.238 445.018,160.238 445,177.5C 443.893,188.273 438.059,192.44 427.5,190C 425.619,187.656 423.286,186.156 420.5,185.5C 409.545,190.146 399.711,188.48 391,180.5C 389.964,177.247 389.297,173.914 389,170.5C 384.936,173.29 380.436,174.123 375.5,173C 373.343,171.088 371.009,169.421 368.5,168C 363.848,163.464 362.348,157.964 364,151.5C 375.599,140.79 388.766,132.79 403.5,127.5 Z"/></g>
<g><path style="opacity:1" fill="#b3726a" d="M 205.5,55.5 C 206.419,58.0892 208.086,60.0892 210.5,61.5C 212.223,63.2528 213.723,65.2528 215,67.5C 219.254,78.3384 224.254,88.6718 230,98.5C 233.043,108.24 236.876,117.573 241.5,126.5C 242.19,130.49 242.357,134.49 242,138.5C 240.629,136.959 239.129,135.625 237.5,134.5C 233.329,129.729 228.329,125.896 222.5,123C 214.883,120.679 207.216,118.512 199.5,116.5C 199.082,115.778 198.416,115.278 197.5,115C 193.848,114.501 190.182,114.335 186.5,114.5C 185.833,114.5 185.167,114.5 184.5,114.5C 182.708,113.691 180.708,113.191 178.5,113C 179.991,110.379 180.658,107.545 180.5,104.5C 180.723,100.838 181.723,97.5046 183.5,94.5C 184.924,92.4855 185.59,90.1522 185.5,87.5C 189.114,78.6046 192.448,69.6046 195.5,60.5C 196.69,58.6455 198.023,56.8121 199.5,55C 201.545,54.5099 203.545,54.6765 205.5,55.5 Z"/></g>
<g><path style="opacity:1" fill="#b3726a" d="M 396.5,54.5 C 398.199,54.3398 399.866,54.5065 401.5,55C 403.65,58.1467 405.65,61.3133 407.5,64.5C 410.797,70.3813 413.13,76.7147 414.5,83.5C 415.261,87.7843 416.595,91.7843 418.5,95.5C 420.025,101.916 422.025,108.25 424.5,114.5C 415.605,114.139 406.939,114.806 398.5,116.5C 395.505,116.294 392.838,116.96 390.5,118.5C 379.397,120.382 370.063,125.382 362.5,133.5C 360.809,134.864 359.142,136.197 357.5,137.5C 356.307,137.03 355.64,136.03 355.5,134.5C 359.653,122.874 364.319,111.54 369.5,100.5C 371.293,98.5739 372.293,96.2406 372.5,93.5C 373.988,89.1899 375.988,85.1899 378.5,81.5C 379.376,81.6309 380.043,81.2975 380.5,80.5C 381.513,77.8122 382.513,75.1456 383.5,72.5C 386.324,65.353 390.657,59.353 396.5,54.5 Z"/></g>
<g><path style="opacity:1" fill="#5f5146" d="M 205.5,55.5 C 203.545,54.6765 201.545,54.5099 199.5,55C 198.023,56.8121 196.69,58.6455 195.5,60.5C 196.435,53.4868 199.768,51.8202 205.5,55.5 Z"/></g>
<g><path style="opacity:1" fill="#5f5146" d="M 396.5,54.5 C 398.288,53.3775 400.288,53.2109 402.5,54C 405.115,57.0619 406.781,60.5619 407.5,64.5C 405.65,61.3133 403.65,58.1467 401.5,55C 399.866,54.5065 398.199,54.3398 396.5,54.5 Z"/></g>
<g><path style="opacity:1" fill="#605246" d="M 205.5,55.5 C 207.914,56.9108 209.581,58.9108 210.5,61.5C 208.086,60.0892 206.419,58.0892 205.5,55.5 Z"/></g>
<g><path style="opacity:1" fill="#7b6055" d="M 383.5,72.5 C 382.513,75.1456 381.513,77.8122 380.5,80.5C 380.043,81.2975 379.376,81.6309 378.5,81.5C 379.41,78.0078 381.076,75.0078 383.5,72.5 Z"/></g>
<g><path style="opacity:1" fill="#746558" d="M 330.5,85.5 C 330.56,84.9569 330.893,84.6236 331.5,84.5C 332.803,87.6447 332.803,90.6447 331.5,93.5C 331.806,90.6146 331.473,87.9479 330.5,85.5 Z"/></g>
<g><path style="opacity:1" fill="#594c42" d="M 414.5,83.5 C 416.806,87.0845 418.139,91.0845 418.5,95.5C 416.595,91.7843 415.261,87.7843 414.5,83.5 Z"/></g>
<g><path style="opacity:1" fill="#5b4e44" d="M 185.5,87.5 C 185.59,90.1522 184.924,92.4855 183.5,94.5C 183.41,91.8478 184.076,89.5145 185.5,87.5 Z"/></g>
<g><path style="opacity:1" fill="#584c41" d="M 372.5,93.5 C 372.293,96.2406 371.293,98.5739 369.5,100.5C 369.707,97.7594 370.707,95.4261 372.5,93.5 Z"/></g>
<g><path style="opacity:1" fill="#786256" d="M 180.5,104.5 C 180.658,107.545 179.991,110.379 178.5,113C 180.708,113.191 182.708,113.691 184.5,114.5C 182.167,114.5 179.833,114.5 177.5,114.5C 177.899,110.884 178.899,107.55 180.5,104.5 Z"/></g>
<g><path style="opacity:1" fill="#7b6357" d="M 186.5,114.5 C 190.182,114.335 193.848,114.501 197.5,115C 198.416,115.278 199.082,115.778 199.5,116.5C 194.972,116.23 190.639,115.563 186.5,114.5 Z"/></g>
<g><path style="opacity:1" fill="#544139" d="M 398.5,116.5 C 396.095,117.768 393.428,118.435 390.5,118.5C 392.838,116.96 395.505,116.294 398.5,116.5 Z"/></g>
<g><path style="opacity:1" fill="#7d6d5f" d="M 197.5,126.5 C 196.508,126.328 195.842,126.662 195.5,127.5C 192.821,126.774 190.154,125.941 187.5,125C 191.071,124.552 194.404,125.052 197.5,126.5 Z"/></g>
<g><path style="opacity:1" fill="#7a6b5d" d="M 403.5,127.5 C 402.791,126.596 401.791,126.263 400.5,126.5C 403.952,125.15 407.619,124.65 411.5,125C 408.846,125.941 406.179,126.774 403.5,127.5 Z"/></g>
<g><path style="opacity:1" fill="#56413a" d="M 241.5,126.5 C 243.177,130.545 243.844,134.878 243.5,139.5C 240.288,139.288 238.288,137.621 237.5,134.5C 239.129,135.625 240.629,136.959 242,138.5C 242.357,134.49 242.19,130.49 241.5,126.5 Z"/></g>
<g><path style="opacity:1" fill="#b4726a" d="M 198.5,139.5 C 201.515,141.674 204.849,143.341 208.5,144.5C 214.968,148.249 220.968,152.749 226.5,158C 224.76,159.517 223.094,161.017 221.5,162.5C 220.153,163.028 218.819,163.195 217.5,163C 214.899,159.888 211.899,157.388 208.5,155.5C 200.843,147.671 191.51,143.005 180.5,141.5C 177.97,140.224 175.303,140.224 172.5,141.5C 171.702,141.043 171.369,140.376 171.5,139.5C 172.192,136.74 173.192,134.073 174.5,131.5C 182.586,133.973 190.586,136.64 198.5,139.5 Z"/></g>
<g><path style="opacity:1" fill="#b17068" d="M 429.5,134.5 C 429.584,138.837 430.584,142.837 432.5,146.5C 433.47,153.727 434.47,160.893 435.5,168C 435.593,171.95 435.093,175.784 434,179.5C 433.667,179.833 433.333,180.167 433,180.5C 430.187,176.511 426.354,174.844 421.5,175.5C 416.645,175.675 411.979,176.675 407.5,178.5C 405.058,176.774 402.391,175.274 399.5,174C 400.252,173.329 400.586,172.496 400.5,171.5C 405.735,166.021 410.735,160.354 415.5,154.5C 418.089,153.581 420.089,151.914 421.5,149.5C 422.812,147.521 424.479,145.855 426.5,144.5C 427.386,143.675 427.719,142.675 427.5,141.5C 412.063,141.057 399.063,146.39 388.5,157.5C 385.606,158.882 383.106,160.882 381,163.5C 380.329,162.748 379.496,162.414 378.5,162.5C 376.673,161.068 375.006,159.401 373.5,157.5C 377.011,154.488 380.344,151.322 383.5,148C 394.799,142.435 406.299,137.268 418,132.5C 421.816,131.693 425.65,131.026 429.5,130.5C 429.5,131.833 429.5,133.167 429.5,134.5 Z"/></g>
<g><path style="opacity:1" fill="#57423b" d="M 362.5,133.5 C 362.033,136.297 360.367,137.631 357.5,137.5C 359.142,136.197 360.809,134.864 362.5,133.5 Z"/></g>
<g><path style="opacity:1" fill="#60463f" d="M 429.5,134.5 C 431.102,138.239 432.102,142.239 432.5,146.5C 430.584,142.837 429.584,138.837 429.5,134.5 Z"/></g>
<g><path style="opacity:1" fill="#5a433c" d="M 171.5,139.5 C 171.369,140.376 171.702,141.043 172.5,141.5C 175.303,140.224 177.97,140.224 180.5,141.5C 177.14,141.616 173.807,141.949 170.5,142.5C 170.263,141.209 170.596,140.209 171.5,139.5 Z"/></g>
<g><path style="opacity:1" fill="#533f38" d="M 198.5,139.5 C 202.42,140.127 205.753,141.793 208.5,144.5C 204.849,143.341 201.515,141.674 198.5,139.5 Z"/></g>
<g><path style="opacity:1" fill="#b37169" d="M 170.5,143.5 C 171.239,143.369 171.906,143.536 172.5,144C 182.042,153.041 191.042,162.541 199.5,172.5C 197.577,176.477 194.243,178.477 189.5,178.5C 184.95,176.816 180.116,175.816 175,175.5C 172.779,175.393 170.946,176.06 169.5,177.5C 167.554,172.604 166.887,167.271 167.5,161.5C 168.219,159.236 168.552,156.903 168.5,154.5C 169.903,151.091 170.57,147.425 170.5,143.5 Z"/></g>
<g><path style="opacity:1" fill="#58423b" d="M 170.5,143.5 C 170.57,147.425 169.903,151.091 168.5,154.5C 168.43,150.575 169.097,146.909 170.5,143.5 Z"/></g>
<g><path style="opacity:1" fill="#57413a" d="M 421.5,149.5 C 420.089,151.914 418.089,153.581 415.5,154.5C 416.911,152.086 418.911,150.419 421.5,149.5 Z"/></g>
<g><path style="opacity:1" fill="#543f39" d="M 208.5,155.5 C 211.899,157.388 214.899,159.888 217.5,163C 218.819,163.195 220.153,163.028 221.5,162.5C 220.341,164.377 218.674,164.877 216.5,164C 213.629,161.297 210.962,158.464 208.5,155.5 Z"/></g>
<g><path style="opacity:1" fill="#4c3b34" d="M 388.5,157.5 C 386.371,161.165 383.371,163.332 379.5,164C 378.944,163.617 378.611,163.117 378.5,162.5C 379.496,162.414 380.329,162.748 381,163.5C 383.106,160.882 385.606,158.882 388.5,157.5 Z"/></g>
<g><path style="opacity:1" fill="#644942" d="M 167.5,161.5 C 166.887,167.271 167.554,172.604 169.5,177.5C 168.791,178.404 167.791,178.737 166.5,178.5C 166.178,172.642 166.511,166.975 167.5,161.5 Z"/></g>
<g><path style="opacity:1" fill="#4f3c36" d="M 400.5,171.5 C 400.586,172.496 400.252,173.329 399.5,174C 402.391,175.274 405.058,176.774 407.5,178.5C 403.947,178.057 400.947,176.557 398.5,174C 398.639,172.699 399.305,171.866 400.5,171.5 Z"/></g>
<g><path style="opacity:1" fill="#503d36" d="M 199.5,172.5 C 200.782,173.708 200.782,175.042 199.5,176.5C 196.341,179.133 193.008,179.8 189.5,178.5C 194.243,178.477 197.577,176.477 199.5,172.5 Z"/></g>
<g><path style="opacity:1" fill="#bb9674" d="M 377.5,308.5 C 368.694,303.898 359.361,300.898 349.5,299.5C 339.968,297.577 330.301,295.743 320.5,294C 314.527,282.279 317.861,274.612 330.5,271C 360.525,272.096 385.025,284.262 404,307.5C 406.298,311.218 406.965,315.218 406,319.5C 405.196,320.804 404.029,321.471 402.5,321.5C 394.307,316.903 385.974,312.57 377.5,308.5 Z"/></g>
<g><path style="opacity:1" fill="#bb9574" d="M 250.5,299.5 C 241.109,300.451 232.109,302.785 223.5,306.5C 222.399,305.402 221.066,305.235 219.5,306C 211.342,309.579 203.342,313.413 195.5,317.5C 194.353,317.182 193.519,316.516 193,315.5C 192.386,313.121 192.053,310.788 192,308.5C 212.411,284.046 238.578,272.213 270.5,273C 283.008,278.151 285.008,285.818 276.5,296C 267.495,296.703 258.828,297.87 250.5,299.5 Z"/></g>
<g><path style="opacity:1" fill="#232222" d="M 250.5,299.5 C 250.414,300.496 250.748,301.329 251.5,302C 253.329,302.273 254.829,303.107 256,304.5C 263.651,315.929 262.317,326.263 252,335.5C 247.857,337.437 243.523,338.77 239,339.5C 233.941,338.38 229.441,336.38 225.5,333.5C 224.292,330.081 222.792,326.747 221,323.5C 219.893,317.468 220.726,311.801 223.5,306.5C 232.109,302.785 241.109,300.451 250.5,299.5 Z"/></g>
<g><path style="opacity:1" fill="#232322" d="M 349.5,299.5 C 359.361,300.898 368.694,303.898 377.5,308.5C 379.317,313.337 379.817,318.337 379,323.5C 377.065,326.371 375.399,329.371 374,332.5C 357.339,343.946 345.339,340.279 338,321.5C 336.823,311.52 340.656,304.186 349.5,299.5 Z"/></g>
<g><path style="opacity:1" fill="#efefef" d="M 243.5,305.5 C 250.326,306.491 252.493,310.158 250,316.5C 244.019,321.215 240.186,319.881 238.5,312.5C 238.661,309.017 240.327,306.684 243.5,305.5 Z"/></g>
<g><path style="opacity:1" fill="#f2f2f2" d="M 361.5,305.5 C 368.586,306.397 370.753,310.064 368,316.5C 364.545,320.413 361.045,320.413 357.5,316.5C 355.382,311.448 356.715,307.781 361.5,305.5 Z"/></g>
<g><path style="opacity:1" fill="#ba9573" d="M 237.5,366.5 C 244.841,366.334 252.174,366.5 259.5,367C 267.51,370.339 275.51,373.673 283.5,377C 288.353,382.918 294.353,387.085 301.5,389.5C 304.107,388.863 306.44,387.696 308.5,386C 332.333,362.981 358.667,359.981 387.5,377C 390.174,380.012 393.507,381.678 397.5,382C 402.746,386.575 407.246,391.742 411,397.5C 415.977,408.793 420.977,420.126 426,431.5C 430.709,443.195 432.875,455.195 432.5,467.5C 430.929,465.585 428.929,464.585 426.5,464.5C 428.101,471.203 429.101,478.036 429.5,485C 428.694,494.055 426.861,502.888 424,511.5C 422.167,509 420.333,506.5 418.5,504C 416.527,503.505 414.527,503.338 412.5,503.5C 413.694,508.233 415.194,512.899 417,517.5C 417.581,524.018 415.581,529.685 411,534.5C 403.532,543.142 395.032,550.475 385.5,556.5C 384.201,555.91 383.368,554.91 383,553.5C 382.855,549.973 382.022,546.64 380.5,543.5C 378.926,542.369 377.259,542.202 375.5,543C 374.884,551.447 372.384,559.28 368,566.5C 363.423,571.032 357.923,573.866 351.5,575C 338.453,577.089 325.453,579.422 312.5,582C 307.84,583.995 303.506,586.495 299.5,589.5C 295.279,586.222 290.612,583.722 285.5,582C 274.268,579.443 262.934,577.443 251.5,576C 242.115,575.002 234.615,570.836 229,563.5C 226.368,556.867 224.535,550.034 223.5,543C 221.299,542.175 219.466,542.675 218,544.5C 216.631,548.377 215.798,552.377 215.5,556.5C 210.612,555.053 206.279,552.553 202.5,549C 195.593,542.764 189.427,535.931 184,528.5C 182.596,526.361 181.763,524.028 181.5,521.5C 182.937,515.381 184.437,509.381 186,503.5C 184.612,502.446 183.112,502.28 181.5,503C 179.333,505.833 177.167,508.667 175,511.5C 172.33,502.829 170.497,493.995 169.5,485C 170.016,478.074 171.016,471.241 172.5,464.5C 170.071,464.585 168.071,465.585 166.5,467.5C 165.337,461.863 165.17,456.196 166,450.5C 171.426,422.804 184.26,399.304 204.5,380C 206.833,378.333 209.167,376.667 211.5,375C 220.319,372.412 228.986,369.579 237.5,366.5 Z"/></g>
<g><path style="opacity:1" fill="#0c0a07" d="M 287.5,435.5 C 303.872,433.307 319.205,436.14 333.5,444C 343.642,454.948 344.142,466.448 335,478.5C 309.539,501.852 285.206,500.852 262,475.5C 254.582,461.771 257.082,450.271 269.5,441C 275.435,438.523 281.435,436.69 287.5,435.5 Z"/></g>
<g><path style="opacity:1" fill="#202020" d="M 290.5,440.5 C 301.372,439.863 312.039,441.03 322.5,444C 336.321,450.461 339.487,460.294 332,473.5C 313.751,492.625 293.918,494.458 272.5,479C 262.977,471.414 260.81,462.247 266,451.5C 267.873,449.291 270.04,447.458 272.5,446C 278.435,443.523 284.435,441.69 290.5,440.5 Z"/></g>
</svg>
