<?xml version="1.0" encoding="UTF-8"?>
<!DOCTYPE svg PUBLIC "-//W3C//DTD SVG 1.1//EN" "http://www.w3.org/Graphics/SVG/1.1/DTD/svg11.dtd">
<svg xmlns="http://www.w3.org/2000/svg" version="1.1" width="600px" height="600px" style="shape-rendering:geometricPrecision; text-rendering:geometricPrecision; image-rendering:optimizeQuality; fill-rule:evenodd; clip-rule:evenodd" xmlns:xlink="http://www.w3.org/1999/xlink">
<g><path style="opacity:0.972" fill="#030201" d="M 250.5,-0.5 C 283.5,-0.5 316.5,-0.5 349.5,-0.5C 368.526,2.78466 386.859,8.618 404.5,17C 413.652,18.1209 422.319,20.7876 430.5,25C 448.924,35.3194 464.757,48.8194 478,65.5C 505.83,110.819 530.83,157.819 553,206.5C 571.184,245.897 586.684,286.231 599.5,327.5C 599.5,353.5 599.5,379.5 599.5,405.5C 576.695,464.469 545.195,518.135 505,566.5C 493.789,579.226 481.289,590.226 467.5,599.5C 456.833,599.5 446.167,599.5 435.5,599.5C 422.004,590.211 411.504,578.211 404,563.5C 399.613,555.003 395.613,546.336 392,537.5C 379.991,551.621 364.657,558.621 346,558.5C 328.965,557.933 313.632,552.6 300,542.5C 276.139,559.184 250.639,561.684 223.5,550C 217.711,546.545 212.878,542.045 209,536.5C 203.115,549.938 196.448,562.938 189,575.5C 182.264,585.07 174.097,593.07 164.5,599.5C 153.833,599.5 143.167,599.5 132.5,599.5C 119.38,590.896 107.547,580.563 97,568.5C 54.7629,518.717 22.2629,463.05 -0.5,401.5C -0.5,378.5 -0.5,355.5 -0.5,332.5C 13.0534,287.354 29.8868,243.354 50,200.5C 71.2657,153.289 95.599,107.955 123,64.5C 138.81,44.6932 158.31,29.8599 181.5,20C 186.1,18.6833 190.766,17.6833 195.5,17C 213.141,8.618 231.474,2.78466 250.5,-0.5 Z"/></g>
<g><path style="opacity:1" fill="#c08d58" d="M 449.5,242.5 C 446.565,251.573 444.232,260.907 442.5,270.5C 441.028,274.704 439.695,279.037 438.5,283.5C 435.178,292.151 432.845,301.151 431.5,310.5C 422.586,337.281 414.586,364.281 407.5,391.5C 404.742,398.86 402.742,406.527 401.5,414.5C 397.624,426.145 393.957,437.978 390.5,450C 392.014,461.097 392.68,472.263 392.5,483.5C 392.839,494.936 392.006,506.27 390,517.5C 380.697,540.58 363.531,550.413 338.5,547C 324.507,544.502 311.841,539.002 300.5,530.5C 291.391,536.388 281.724,541.221 271.5,545C 258.619,547.589 245.953,546.923 233.5,543C 222.114,537.946 214.614,529.446 211,517.5C 208.869,505.765 207.703,493.932 207.5,482C 208.473,469.504 208.973,457.004 209,444.5C 197.885,403.338 185.718,362.671 172.5,322.5C 170.614,312.524 167.947,302.857 164.5,293.5C 160.148,277.42 155.815,261.42 151.5,245.5C 150.246,236.22 148.246,227.22 145.5,218.5C 142.76,201.583 140.594,184.583 139,167.5C 129.969,69.2173 174.469,16.0506 272.5,8C 302.389,6.14441 332.055,7.81108 361.5,13C 420.799,25.2953 453.965,61.462 461,121.5C 461.951,129.972 462.451,138.472 462.5,147C 461.712,161.854 460.545,176.687 459,191.5C 455.988,208.545 452.821,225.545 449.5,242.5 Z"/></g>
<g><path style="opacity:1" fill="#41362d" d="M 155.5,46.5 C 156.525,46.8966 156.692,47.5632 156,48.5C 138.959,71.9484 129.626,98.2817 128,127.5C 126.335,159.856 129.002,191.856 136,223.5C 139.412,239.225 143.078,254.892 147,270.5C 160.978,318.41 174.644,366.41 188,414.5C 192.724,424.358 196.39,434.691 199,445.5C 197.799,464.133 197.466,482.8 198,501.5C 199.117,508.75 200.617,515.916 202.5,523C 195.457,544.761 184.79,564.428 170.5,582C 164.575,587.629 157.575,591.129 149.5,592.5C 146.468,592.194 143.468,591.694 140.5,591C 134.323,588.081 128.656,584.414 123.5,580C 90.2151,547.058 62.7151,509.891 41,468.5C 28.195,445.078 17.5283,420.745 9,395.5C 3.34059,377.948 3.00726,360.281 8,342.5C 12.322,324.533 17.6554,306.867 24,289.5C 51.9864,217.51 85.3198,148.176 124,81.5C 132.913,68.4191 143.413,56.7524 155.5,46.5 Z"/></g>
<g><path style="opacity:1" fill="#41362d" d="M 444.5,47.5 C 457.962,57.7934 469.129,70.1267 478,84.5C 520.954,158.077 556.62,235.077 585,315.5C 590.922,332.87 594.422,350.703 595.5,369C 595.677,375.957 594.843,382.79 593,389.5C 571.992,451.539 540.659,507.539 499,557.5C 489.804,567.03 480.304,576.197 470.5,585C 460.09,593.127 449.09,594.127 437.5,588C 426.062,578.895 417.229,567.729 411,554.5C 406.419,544.504 402.252,534.337 398.5,524C 400.05,518.584 401.217,513.084 402,507.5C 402.499,487.487 402.499,467.487 402,447.5C 418.773,388.84 435.773,330.173 453,271.5C 462.161,238.36 468.495,204.693 472,170.5C 475.706,137.48 471.706,105.48 460,74.5C 455.315,65.1189 450.149,56.1189 444.5,47.5 Z"/></g>
<g><path style="opacity:1" fill="#6c3d10" d="M 213.5,176.5 C 237.235,177.023 250.569,189.023 253.5,212.5C 248.684,240.48 232.35,251.646 204.5,246C 184.3,235.41 177.8,219.243 185,197.5C 191.293,186.026 200.793,179.026 213.5,176.5 Z"/></g>
<g><path style="opacity:1" fill="#6b3d10" d="M 377.5,176.5 C 401.813,176.485 415.48,188.485 418.5,212.5C 416.253,233.914 404.419,245.914 383,248.5C 364.612,246.766 352.945,237.1 348,219.5C 345.878,196.812 355.711,182.479 377.5,176.5 Z"/></g>
<g><path style="opacity:1" fill="#241916" d="M 211.5,190.5 C 233.143,189.972 241.976,200.306 238,221.5C 229.858,234.989 218.691,238.155 204.5,231C 194.773,221.921 192.939,211.421 199,199.5C 202.299,195.118 206.466,192.118 211.5,190.5 Z"/></g>
<g><path style="opacity:1" fill="#251916" d="M 376.5,190.5 C 390.594,188.625 400.094,194.292 405,207.5C 406.219,220.57 400.719,229.403 388.5,234C 368.708,235.541 359.541,226.374 361,206.5C 362.54,202.581 364.707,199.081 367.5,196C 370.564,194.141 373.564,192.308 376.5,190.5 Z"/></g>
<g><path style="opacity:1" fill="#f3f3f3" d="M 221.5,201.5 C 228.827,200.329 231.994,203.329 231,210.5C 227,214.5 223,214.5 219,210.5C 217.927,206.9 218.76,203.9 221.5,201.5 Z"/></g>
<g><path style="opacity:1" fill="#f2f2f2" d="M 390.5,200.5 C 398.47,202.263 400.136,206.429 395.5,213C 388.17,214.666 385.003,211.833 386,204.5C 387.397,202.93 388.897,201.596 390.5,200.5 Z"/></g>
<g><path style="opacity:1" fill="#3a2d22" d="M 145.5,218.5 C 148.246,227.22 150.246,236.22 151.5,245.5C 148.74,236.783 146.74,227.783 145.5,218.5 Z"/></g>
<g><path style="opacity:1" fill="#382c21" d="M 449.5,242.5 C 448.083,252.169 445.749,261.503 442.5,270.5C 444.232,260.907 446.565,251.573 449.5,242.5 Z"/></g>
<g><path style="opacity:1" fill="#423325" d="M 438.5,283.5 C 437.155,292.849 434.822,301.849 431.5,310.5C 432.845,301.151 435.178,292.151 438.5,283.5 Z"/></g>
<g><path style="opacity:1" fill="#413225" d="M 164.5,293.5 C 167.947,302.857 170.614,312.524 172.5,322.5C 168.762,313.225 166.096,303.559 164.5,293.5 Z"/></g>
<g><path style="opacity:1" fill="#483624" d="M 407.5,391.5 C 406.129,400.016 404.129,407.683 401.5,414.5C 402.742,406.527 404.742,398.86 407.5,391.5 Z"/></g>
<g><path style="opacity:1" fill="#080604" d="M 332.5,488.5 C 330.251,489.08 328.585,490.413 327.5,492.5C 320.77,498.315 312.77,501.649 303.5,502.5C 299.452,502.605 295.452,502.272 291.5,501.5C 272.731,497.23 260.564,485.897 255,467.5C 252.054,447.895 260.221,435.728 279.5,431C 291.123,429.473 302.79,429.139 314.5,430C 343.8,435.5 352.466,452 340.5,479.5C 337.833,482.536 335.166,485.536 332.5,488.5 Z"/></g>
<g><path style="opacity:1" fill="#362e2a" d="M 291.5,439.5 C 304.509,438.19 316.842,440.356 328.5,446C 335.453,452.167 337.286,459.667 334,468.5C 325.807,484.693 312.64,492.526 294.5,492C 281.26,488.087 271.76,479.92 266,467.5C 262.695,455.944 266.529,447.778 277.5,443C 282.184,441.347 286.85,440.181 291.5,439.5 Z"/></g>
<g><path style="opacity:1" fill="#5b442d" d="M 332.5,488.5 C 331.415,490.587 329.749,491.92 327.5,492.5C 328.585,490.413 330.251,489.08 332.5,488.5 Z"/></g>
<g><path style="opacity:1" fill="#57422c" d="M 291.5,501.5 C 295.452,502.272 299.452,502.605 303.5,502.5C 302.036,503.16 300.369,503.493 298.5,503.5C 295.795,503.684 293.462,503.017 291.5,501.5 Z"/></g>
</svg>
