<?xml version="1.0" encoding="UTF-8"?>
<!DOCTYPE svg PUBLIC "-//W3C//DTD SVG 1.1//EN" "http://www.w3.org/Graphics/SVG/1.1/DTD/svg11.dtd">
<svg xmlns="http://www.w3.org/2000/svg" version="1.1" width="600px" height="600px" style="shape-rendering:geometricPrecision; text-rendering:geometricPrecision; image-rendering:optimizeQuality; fill-rule:evenodd; clip-rule:evenodd" xmlns:xlink="http://www.w3.org/1999/xlink">
<g><path style="opacity:0.966" fill="#030303" d="M 260.5,-0.5 C 289.167,-0.5 317.833,-0.5 346.5,-0.5C 363.19,2.93118 377.357,10.9312 389,23.5C 395.155,32.126 398.655,41.7926 399.5,52.5C 441.622,53.3064 471.122,72.9731 488,111.5C 497.884,141.679 503.217,172.679 504,204.5C 517.177,243.067 524.51,282.733 526,323.5C 528.141,369.945 526.641,416.278 521.5,462.5C 525.439,482.92 530.939,502.92 538,522.5C 538.51,533.316 533.344,537.816 522.5,536C 510.259,531.044 498.593,525.377 487.5,519C 484.65,521.682 481.984,524.516 479.5,527.5C 484.398,535.129 488.065,543.296 490.5,552C 488.037,562.4 481.703,565.734 471.5,562C 464.723,557.06 458.39,551.56 452.5,545.5C 452.167,546.333 451.833,547.167 451.5,548C 453.822,558.428 455.322,568.928 456,579.5C 453.028,586.717 447.861,588.883 440.5,586C 438.714,585.215 437.214,584.049 436,582.5C 435.919,586.032 436.419,589.532 437.5,593C 437.125,595.289 436.459,597.455 435.5,599.5C 429.167,599.5 422.833,599.5 416.5,599.5C 413.855,594.218 410.688,589.218 407,584.5C 401.865,591.663 395.699,592.83 388.5,588C 384.375,581.584 380.375,575.084 376.5,568.5C 369.666,576.389 362.833,576.389 356,568.5C 348.989,550.788 344.322,532.455 342,513.5C 336.667,508.167 331.333,502.833 326,497.5C 320.545,504.956 314.378,511.79 307.5,518C 303.714,521.226 299.381,523.393 294.5,524.5C 291.257,523.985 288.424,522.652 286,520.5C 284.042,513.712 282.208,506.879 280.5,500C 280.15,498.743 279.483,498.409 278.5,499C 273.925,504.246 268.758,508.746 263,512.5C 260.651,532.229 255.651,551.229 248,569.5C 240.628,576.159 233.961,575.493 228,567.5C 224.375,575.256 219.875,582.423 214.5,589C 207.77,592.441 202.27,590.941 198,584.5C 194.49,589.529 190.99,594.529 187.5,599.5C 181.5,599.5 175.5,599.5 169.5,599.5C 168.149,597.577 167.482,595.41 167.5,593C 168.264,589.472 168.764,585.972 169,582.5C 163.833,588 158,588.833 151.5,585C 148.709,580.899 147.875,576.399 149,571.5C 150.436,563.487 151.936,555.487 153.5,547.5C 153.167,546.833 152.833,546.167 152.5,545.5C 146.078,552.536 138.744,558.37 130.5,563C 121.346,564.764 116.013,561.097 114.5,552C 117.268,543.197 119.934,534.363 122.5,525.5C 121.441,522.932 119.774,520.765 117.5,519C 109.013,523.584 100.346,528.25 91.5,533C 84.5836,536.912 77.5836,537.246 70.5,534C 68.3481,531.576 67.0148,528.743 66.5,525.5C 73.4823,506.386 79.1489,486.886 83.5,467C 77.4872,415.975 75.9872,364.808 79,313.5C 81.0347,274.66 88.7013,236.993 102,200.5C 102.693,169.638 108.027,139.638 118,110.5C 135.497,71.6547 165.663,52.3214 208.5,52.5C 208.231,45.9087 209.397,39.5754 212,33.5C 217.423,23.076 225.256,14.9093 235.5,9C 243.609,4.9132 251.942,1.74653 260.5,-0.5 Z"/></g>
<g><path style="opacity:1" fill="#f4f4f4" d="M 341.5,100.5 C 338.377,102.115 335.044,103.115 331.5,103.5C 331.167,103.5 330.833,103.5 330.5,103.5C 330.5,97.5 330.5,91.5 330.5,85.5C 321.238,88.3646 311.904,91.0313 302.5,93.5C 293.198,91.2171 284.031,88.5504 275,85.5C 274.505,87.4727 274.338,89.4727 274.5,91.5C 274.824,95.5546 274.491,99.5546 273.5,103.5C 270.427,102.65 267.427,101.65 264.5,100.5C 245.796,95.2906 231.629,84.2906 222,67.5C 217.878,57.9346 217.545,48.2679 221,38.5C 221.414,38.0426 221.914,37.7093 222.5,37.5C 225.112,38.7787 227.445,40.4453 229.5,42.5C 229.833,42.1667 230.167,41.8333 230.5,41.5C 227.845,38.206 226.345,34.5393 226,30.5C 235.375,20.1576 246.708,13.8243 260,11.5C 260.179,14.5535 260.679,17.5535 261.5,20.5C 262.151,16.4126 263.484,12.5792 265.5,9C 290.828,3.08042 316.161,3.08042 341.5,9C 343.323,12.2995 344.656,15.7995 345.5,19.5C 346.318,16.8929 346.818,14.2263 347,11.5C 360.397,13.8713 371.73,20.2047 381,30.5C 381.667,31.8333 381.667,33.1667 381,34.5C 374.444,43.8099 375.61,44.8099 384.5,37.5C 386.317,39.4161 387.484,41.7494 388,44.5C 389.476,65.0475 381.309,80.5475 363.5,91C 356.747,95.5441 349.414,98.7107 341.5,100.5 Z"/></g>
<g><path style="opacity:1" fill="#494745" d="M 229.5,87.5 C 182.119,104.378 146.619,135.045 123,179.5C 119.727,185.712 116.727,192.046 114,198.5C 113.503,195.854 113.336,193.187 113.5,190.5C 114.232,170.208 117.065,150.208 122,130.5C 135.049,84.235 165.549,61.735 213.5,63C 217.452,72.109 222.785,80.2757 229.5,87.5 Z"/></g>
<g><path style="opacity:1" fill="#494745" d="M 492.5,197.5 C 492.66,199.199 492.494,200.866 492,202.5C 470.469,147.135 431.969,109.135 376.5,88.5C 384.39,81.3835 389.723,72.7168 392.5,62.5C 432.596,61.151 461.096,78.4843 478,114.5C 487.478,141.308 492.312,168.974 492.5,197.5 Z"/></g>
<g><path style="opacity:1" fill="#130505" d="M 330.5,103.5 C 330.821,108.695 330.487,113.695 329.5,118.5C 320.314,116.105 311.314,113.105 302.5,109.5C 294.219,112.704 285.886,115.704 277.5,118.5C 276.833,115.833 276.167,113.167 275.5,110.5C 275.823,103.978 275.49,97.6446 274.5,91.5C 274.338,89.4727 274.505,87.4727 275,85.5C 284.031,88.5504 293.198,91.2171 302.5,93.5C 311.904,91.0313 321.238,88.3646 330.5,85.5C 330.5,91.5 330.5,97.5 330.5,103.5 Z"/></g>
<g><path style="opacity:1" fill="#2f2725" d="M 229.5,87.5 C 237.134,93.6578 245.468,98.8245 254.5,103C 244.763,111.65 237.929,122.15 234,134.5C 232.297,144.987 234.297,154.653 240,163.5C 246,170.833 252.667,177.5 260,183.5C 272.687,197.061 277.854,213.061 275.5,231.5C 264.706,230.074 254.04,230.74 243.5,233.5C 253.999,216.39 250.999,202.223 234.5,191C 215.56,184.721 202.727,190.888 196,209.5C 194.263,223.861 199.763,234.361 212.5,241C 214.813,241.662 217.146,242.162 219.5,242.5C 196.126,259.733 179.292,282.066 169,309.5C 163.906,324.21 159.906,339.21 157,354.5C 152.895,383.442 149.229,412.442 146,441.5C 141.966,466.84 136.466,491.84 129.5,516.5C 126.137,512.137 122.137,508.471 117.5,505.5C 114.683,499.825 111.183,494.491 107,489.5C 102.659,482.821 98.8254,475.821 95.5,468.5C 95.0431,467.702 94.3764,467.369 93.5,467.5C 87.7011,413.594 86.5344,359.594 90,305.5C 92.6001,270.438 99.9334,236.438 112,203.5C 112.175,198.981 112.675,194.647 113.5,190.5C 113.336,193.187 113.503,195.854 114,198.5C 116.727,192.046 119.727,185.712 123,179.5C 146.619,135.045 182.119,104.378 229.5,87.5 Z"/></g>
<g><path style="opacity:1" fill="#2f2725" d="M 376.5,88.5 C 431.969,109.135 470.469,147.135 492,202.5C 492.494,200.866 492.66,199.199 492.5,197.5C 493.321,200.641 493.821,203.975 494,207.5C 506.053,242.143 513.053,277.81 515,314.5C 516.373,338.487 516.706,362.487 516,386.5C 514.879,412.86 513.379,439.193 511.5,465.5C 503.946,478.927 495.613,491.927 486.5,504.5C 481.881,509.785 476.881,514.785 471.5,519.5C 467.086,512.11 463.919,504.11 462,495.5C 459.59,485.963 457.923,476.296 457,466.5C 455.307,433.813 453.307,401.147 451,368.5C 447.485,332.277 435.485,299.277 415,269.5C 406.521,258.847 396.687,249.847 385.5,242.5C 403.894,239.261 412.394,228.261 411,209.5C 405.499,193.657 394.332,186.823 377.5,189C 360.598,195.636 354.431,207.803 359,225.5C 360.356,228.329 361.856,230.996 363.5,233.5C 352.294,231.183 340.96,230.183 329.5,230.5C 327.766,217.105 330.599,204.772 338,193.5C 346.266,183.231 355.266,173.565 365,164.5C 373.62,151.731 374.62,138.398 368,124.5C 363.798,116.796 358.631,109.796 352.5,103.5C 361.049,99.2648 369.049,94.2648 376.5,88.5 Z"/></g>
<g><path style="opacity:1" fill="#b81521" d="M 323.5,92.5 C 325.456,98.412 326.123,104.745 325.5,111.5C 317.643,108.771 309.643,106.437 301.5,104.5C 294.544,107.041 287.544,109.374 280.5,111.5C 280.5,105.5 280.5,99.5 280.5,93.5C 287.969,95.2667 295.469,96.9334 303,98.5C 310.225,97.4893 317.059,95.4893 323.5,92.5 Z"/></g>
<g><path style="opacity:1" fill="#f0f0f0" d="M 274.5,91.5 C 275.49,97.6446 275.823,103.978 275.5,110.5C 275.183,113.572 275.516,116.572 276.5,119.5C 277.107,119.376 277.44,119.043 277.5,118.5C 285.886,115.704 294.219,112.704 302.5,109.5C 311.314,113.105 320.314,116.105 329.5,118.5C 329.56,119.043 329.893,119.376 330.5,119.5C 331.495,114.208 331.828,108.875 331.5,103.5C 335.044,103.115 338.377,102.115 341.5,100.5C 346.054,105.557 350.887,110.557 356,115.5C 360.128,121.422 363.461,127.756 366,134.5C 368.316,145.907 365.649,155.907 358,164.5C 352.191,170.398 346.191,176.065 340,181.5C 326.88,196.368 321.713,213.701 324.5,233.5C 309.963,232.973 295.297,233.64 280.5,235.5C 284.197,216.498 280.03,199.498 268,184.5C 260.667,177.167 253.333,169.833 246,162.5C 236.091,148.634 236.091,134.634 246,120.5C 251.326,113.01 257.492,106.343 264.5,100.5C 267.427,101.65 270.427,102.65 273.5,103.5C 274.491,99.5546 274.824,95.5546 274.5,91.5 Z"/></g>
<g><path style="opacity:1" fill="#bd9d9d" d="M 330.5,103.5 C 330.833,103.5 331.167,103.5 331.5,103.5C 331.828,108.875 331.495,114.208 330.5,119.5C 329.893,119.376 329.56,119.043 329.5,118.5C 330.487,113.695 330.821,108.695 330.5,103.5 Z"/></g>
<g><path style="opacity:1" fill="#a27878" d="M 275.5,110.5 C 276.167,113.167 276.833,115.833 277.5,118.5C 277.44,119.043 277.107,119.376 276.5,119.5C 275.516,116.572 275.183,113.572 275.5,110.5 Z"/></g>
<g><path style="opacity:1" fill="#e6e1d6" d="M 243.5,233.5 C 235.071,235.382 227.071,238.382 219.5,242.5C 217.146,242.162 214.813,241.662 212.5,241C 199.763,234.361 194.263,223.861 196,209.5C 202.727,190.888 215.56,184.721 234.5,191C 250.999,202.223 253.999,216.39 243.5,233.5 Z"/></g>
<g><path style="opacity:1" fill="#e6e1d7" d="M 385.5,242.5 C 378.41,238.957 371.077,235.957 363.5,233.5C 361.856,230.996 360.356,228.329 359,225.5C 354.431,207.803 360.598,195.636 377.5,189C 394.332,186.823 405.499,193.657 411,209.5C 412.394,228.261 403.894,239.261 385.5,242.5 Z"/></g>
<g><path style="opacity:1" fill="#322a28" d="M 219.5,198.5 C 236.354,199.842 242.187,208.509 237,224.5C 227.864,234.48 218.531,234.813 209,225.5C 202.65,212.523 206.15,203.523 219.5,198.5 Z"/></g>
<g><path style="opacity:1" fill="#312927" d="M 381.5,198.5 C 396.476,199.294 402.643,206.961 400,221.5C 395.133,230.849 387.633,234.016 377.5,231C 366.526,223.737 364.693,214.571 372,203.5C 374.907,201.132 378.074,199.465 381.5,198.5 Z"/></g>
<g><path style="opacity:1" fill="#e9e9e9" d="M 225.5,206.5 C 231.488,206.664 232.821,209.164 229.5,214C 224.632,213.711 223.299,211.211 225.5,206.5 Z"/></g>
<g><path style="opacity:1" fill="#dedede" d="M 386.5,206.5 C 392.488,206.664 393.821,209.164 390.5,214C 384.403,214.147 383.07,211.647 386.5,206.5 Z"/></g>
<g><path style="opacity:1" fill="#d8d8d8" d="M 324.5,233.5 C 326.642,235.662 329.309,236.662 332.5,236.5C 359.138,244.304 378.638,260.638 391,285.5C 396.544,299.074 397.878,313.074 395,327.5C 394.751,330.177 393.751,332.51 392,334.5C 390.488,333.743 389.154,332.743 388,331.5C 387.96,334.124 388.127,336.791 388.5,339.5C 388.522,341.965 388.022,344.298 387,346.5C 379.244,357.582 369.077,365.749 356.5,371C 355.891,372.948 355.224,374.782 354.5,376.5C 354.5,375.167 354.5,373.833 354.5,372.5C 353.167,372.5 351.833,372.5 350.5,372.5C 350.66,370.801 350.494,369.134 350,367.5C 348.802,370.726 346.969,373.559 344.5,376C 317.499,383.28 290.499,383.28 263.5,376C 261.554,373.325 259.887,370.492 258.5,367.5C 257.548,369.045 257.215,370.712 257.5,372.5C 254.951,372.613 252.618,371.946 250.5,370.5C 249.893,370.624 249.56,370.957 249.5,371.5C 244.954,367.542 239.954,364.042 234.5,361C 229.966,356.801 225.799,352.301 222,347.5C 218.926,342.584 218.759,337.584 221.5,332.5C 221.167,332.167 220.833,331.833 220.5,331.5C 219.167,332.5 217.833,333.5 216.5,334.5C 215.036,331.997 213.869,329.33 213,326.5C 209.176,294.986 220.009,269.819 245.5,251C 254.486,245.341 263.82,240.508 273.5,236.5C 275.95,236.702 278.283,236.369 280.5,235.5C 295.297,233.64 309.963,232.973 324.5,233.5 Z"/></g>
<g><path style="opacity:1" fill="#f4f4f4" d="M 273.5,236.5 C 263.82,240.508 254.486,245.341 245.5,251C 220.009,269.819 209.176,294.986 213,326.5C 213.869,329.33 215.036,331.997 216.5,334.5C 217.833,333.5 219.167,332.5 220.5,331.5C 220.833,331.833 221.167,332.167 221.5,332.5C 218.759,337.584 218.926,342.584 222,347.5C 225.799,352.301 229.966,356.801 234.5,361C 239.954,364.042 244.954,367.542 249.5,371.5C 258.635,423.458 258.802,475.458 250,527.5C 247.754,539.487 244.42,551.154 240,562.5C 238.605,563.815 237.605,563.481 237,561.5C 235.562,552.406 232.896,543.739 229,535.5C 224.918,551.248 218.418,565.915 209.5,579.5C 208.833,572.5 208.167,565.5 207.5,558.5C 207.998,554.781 207.164,551.447 205,548.5C 198.182,564.821 189.348,579.821 178.5,593.5C 178.167,593 177.833,592.5 177.5,592C 183.493,572.556 186.159,552.722 185.5,532.5C 180.955,542.298 176.121,551.965 171,561.5C 167.487,567.191 163.487,572.524 159,577.5C 162.257,557.283 165.09,536.95 167.5,516.5C 167.333,514.833 167.167,513.167 167,511.5C 166.586,511.043 166.086,510.709 165.5,510.5C 158.742,520.998 151.242,530.998 143,540.5C 137.931,545.405 132.431,549.738 126.5,553.5C 126.167,552.667 125.833,551.833 125.5,551C 134.645,520.918 142.145,490.418 148,459.5C 153.005,421.121 158.338,382.788 164,344.5C 170.902,310.858 186.068,281.691 209.5,257C 227.972,241.232 249.305,234.398 273.5,236.5 Z"/></g>
<g><path style="opacity:1" fill="#f4f4f4" d="M 397.5,555.5 C 396.833,563.5 396.167,571.5 395.5,579.5C 386.711,565.8 380.044,551.133 375.5,535.5C 374.808,536.025 374.308,536.692 374,537.5C 371.687,546.238 369.187,554.905 366.5,563.5C 364.854,562.221 363.687,560.555 363,558.5C 356.234,537.672 351.901,516.339 350,494.5C 346.871,454.953 348.371,415.619 354.5,376.5C 355.224,374.782 355.891,372.948 356.5,371C 369.077,365.749 379.244,357.582 387,346.5C 388.022,344.298 388.522,341.965 388.5,339.5C 388.127,336.791 387.96,334.124 388,331.5C 389.154,332.743 390.488,333.743 392,334.5C 393.751,332.51 394.751,330.177 395,327.5C 397.878,313.074 396.544,299.074 391,285.5C 378.638,260.638 359.138,244.304 332.5,236.5C 365.751,235.042 392.251,247.709 412,274.5C 430.838,303.006 442.171,334.339 446,368.5C 448.268,397.129 449.935,425.796 451,454.5C 452.215,486.7 460.882,516.7 477,544.5C 478.43,547.353 479.263,550.353 479.5,553.5C 472.018,549.207 465.185,543.874 459,537.5C 451.887,528.896 445.387,519.896 439.5,510.5C 438.914,510.709 438.414,511.043 438,511.5C 437.833,513 437.667,514.5 437.5,516C 439.641,536.667 442.474,557.167 446,577.5C 440.224,571.057 435.224,564.057 431,556.5C 426.929,548.601 423.095,540.601 419.5,532.5C 418.338,537.467 418.171,542.467 419,547.5C 421.032,562.94 423.366,578.273 426,593.5C 415.719,579.947 407.219,565.28 400.5,549.5C 399.833,548.167 399.167,548.167 398.5,549.5C 397.652,551.409 397.318,553.409 397.5,555.5 Z"/></g>
<g><path style="opacity:1" fill="#090808" d="M 295.5,264.5 C 306.389,263.324 316.723,265.157 326.5,270C 330.302,273.064 331.969,277.064 331.5,282C 330.151,295.007 323.151,303.34 310.5,307C 294.32,309.159 283.153,302.659 277,287.5C 274.748,279.635 276.915,273.468 283.5,269C 287.584,267.397 291.584,265.897 295.5,264.5 Z"/></g>
<g><path style="opacity:1" fill="#231815" d="M 293.5,270.5 C 300.508,270.334 307.508,270.5 314.5,271C 327.2,274.06 330.033,281.227 323,292.5C 311.008,305.408 298.674,305.742 286,293.5C 277.992,282.047 280.492,274.38 293.5,270.5 Z"/></g>
<g><path style="opacity:1" fill="#090908" d="M 311.5,333.5 C 316.006,332.527 318.172,334.194 318,338.5C 317.5,339 317,339.5 316.5,340C 308.158,341.959 299.825,341.959 291.5,340C 290.594,338.301 290.261,336.467 290.5,334.5C 297.687,334.825 304.687,334.491 311.5,333.5 Z"/></g>
<g><path style="opacity:1" fill="#454240" d="M 321.5,483.5 C 300.196,450.007 279.03,416.34 258,382.5C 257.51,383.793 257.343,385.127 257.5,386.5C 256.2,383.976 256.2,381.309 257.5,378.5C 272.525,384.672 288.191,387.338 304.5,386.5C 316.001,386.966 327.335,385.8 338.5,383C 341.835,382.247 345.002,381.081 348,379.5C 346.408,392.083 345.075,404.75 344,417.5C 343.112,445.564 343.445,473.564 345,501.5C 337.46,495.627 330.96,488.794 325.5,481C 324.833,480.333 324.167,480.333 323.5,481C 322.934,481.995 322.267,482.828 321.5,483.5 Z"/></g>
<g><path style="opacity:1" fill="#494745" d="M 321.5,483.5 C 318.03,490.814 313.53,497.48 308,503.5C 303.923,507.412 299.423,510.745 294.5,513.5C 293.183,500.529 288.683,488.863 281,478.5C 275.419,487.416 268.419,495.083 260,501.5C 261.417,474.538 261.751,447.538 261,420.5C 260.161,409.112 258.995,397.779 257.5,386.5C 257.343,385.127 257.51,383.793 258,382.5C 279.03,416.34 300.196,450.007 321.5,483.5 Z"/></g>
<g><path style="opacity:1" fill="#484644" d="M 511.5,465.5 C 515.399,485.99 521.066,505.99 528.5,525.5C 527.833,525.833 527.167,526.167 526.5,526.5C 512.245,520.709 498.912,513.375 486.5,504.5C 495.613,491.927 503.946,478.927 511.5,465.5 Z"/></g>
<g><path style="opacity:1" fill="#484644" d="M 93.5,467.5 C 94.3764,467.369 95.0431,467.702 95.5,468.5C 98.8254,475.821 102.659,482.821 107,489.5C 111.183,494.491 114.683,499.825 117.5,505.5C 109.317,510.838 100.983,516.005 92.5,521C 87.6855,523.41 82.6855,525.244 77.5,526.5C 83.6503,507.05 88.9837,487.383 93.5,467.5 Z"/></g>
<g><path style="opacity:1" fill="#a2a2a2" d="M 207.5,558.5 C 208.167,565.5 208.833,572.5 209.5,579.5C 209.44,580.043 209.107,580.376 208.5,580.5C 207.503,573.197 207.169,565.863 207.5,558.5 Z"/></g>
<g><path style="opacity:1" fill="#757575" d="M 397.5,555.5 C 397.831,563.86 397.498,572.193 396.5,580.5C 395.893,580.376 395.56,580.043 395.5,579.5C 396.167,571.5 396.833,563.5 397.5,555.5 Z"/></g>
</svg>
