<?xml version="1.0" encoding="UTF-8"?>
<!DOCTYPE svg PUBLIC "-//W3C//DTD SVG 1.1//EN" "http://www.w3.org/Graphics/SVG/1.1/DTD/svg11.dtd">
<svg xmlns="http://www.w3.org/2000/svg" version="1.1" width="600px" height="600px" style="shape-rendering:geometricPrecision; text-rendering:geometricPrecision; image-rendering:optimizeQuality; fill-rule:evenodd; clip-rule:evenodd" xmlns:xlink="http://www.w3.org/1999/xlink">
<g><path style="opacity:0.973" fill="#040200" d="M 599.5,260.5 C 599.5,269.167 599.5,277.833 599.5,286.5C 596.84,288.826 595.507,291.826 595.5,295.5C 596.217,301.765 597.55,307.765 599.5,313.5C 599.5,330.5 599.5,347.5 599.5,364.5C 597.197,366.978 595.031,369.645 593,372.5C 592.424,378.514 592.59,384.514 593.5,390.5C 593.145,394.921 592.312,399.254 591,403.5C 586.747,410.337 582.747,417.337 579,424.5C 577.13,431.521 577.296,438.521 579.5,445.5C 579.127,450.794 577.294,455.461 574,459.5C 569.609,463.612 564.776,467.112 559.5,470C 548.807,474.342 537.807,477.676 526.5,480C 519.452,480.73 512.452,480.397 505.5,479C 497.207,477.231 489.207,474.898 481.5,472C 479.169,484.659 474.669,496.492 468,507.5C 463.978,513.207 458.645,516.874 452,518.5C 448.966,516.834 447.299,517.834 447,521.5C 444.736,524.433 441.902,526.6 438.5,528C 433.137,530.232 427.637,532.066 422,533.5C 417.652,533.145 414.319,531.145 412,527.5C 410.874,523.535 409.874,519.535 409,515.5C 405.947,522.444 401.781,528.611 396.5,534C 386.742,538.469 380.075,535.636 376.5,525.5C 353.44,539.573 328.273,547.573 301,549.5C 284.915,548.55 269.415,545.05 254.5,539C 251.458,536.125 247.791,534.792 243.5,535C 236.895,531.199 230.228,527.699 223.5,524.5C 221.626,534.85 215.626,538.35 205.5,535C 199.996,530.173 195.83,524.34 193,517.5C 193.31,526.261 189.31,531.594 181,533.5C 173.871,531.79 167.038,529.29 160.5,526C 157.598,523.76 155.431,520.927 154,517.5C 147.1,518.561 141.433,516.228 137,510.5C 128.49,498.172 123.156,484.505 121,469.5C 89.8166,485.466 59.6499,483.633 30.5,464C 25.7475,460.586 22.5809,456.086 21,450.5C 21.221,442.176 21.221,433.843 21,425.5C 16.6812,417.532 12.3479,409.532 8,401.5C 7.07526,397.555 6.57526,393.555 6.5,389.5C 7.14951,384.166 7.31618,378.832 7,373.5C 4.25186,370.266 1.75186,366.932 -0.5,363.5C -0.5,347.833 -0.5,332.167 -0.5,316.5C 1.78217,309.78 3.44883,302.78 4.5,295.5C 3.61717,291.406 1.9505,287.739 -0.5,284.5C -0.5,276.833 -0.5,269.167 -0.5,261.5C 6.96892,248.955 16.1356,237.622 27,227.5C 34.2604,212.634 43.2604,198.967 54,186.5C 69.2413,171.921 85.0746,158.088 101.5,145C 114.692,135.9 128.692,128.066 143.5,121.5C 150.207,111.131 159.873,105.298 172.5,104C 180.758,102.201 189.091,100.868 197.5,100C 196.636,89.1887 201.803,83.6887 213,83.5C 224.153,84.8646 235.153,86.8646 246,89.5C 247.233,81.5437 251.9,77.5437 260,77.5C 274.565,79.5217 288.398,83.855 301.5,90.5C 314.155,83.6711 327.655,79.3378 342,77.5C 350.291,77.4629 355.291,81.4629 357,89.5C 368.955,86.2422 381.121,84.4089 393.5,84C 397.491,84.4123 400.658,86.2456 403,89.5C 404.426,93.0243 404.926,96.5243 404.5,100C 420.18,101.004 435.18,104.67 449.5,111C 454.013,114.033 457.347,118.033 459.5,123C 487.319,135.904 511.986,153.238 533.5,175C 541.031,182.197 548.198,189.697 555,197.5C 560.919,207.002 566.586,216.669 572,226.5C 582.385,236.988 591.551,248.321 599.5,260.5 Z"/></g>
<g><path style="opacity:1" fill="#b88024" d="M 257.5,87.5 C 262.547,88.0069 267.547,88.8403 272.5,90C 282.216,93.4569 291.716,97.2902 301,101.5C 310.414,97.5461 319.914,93.7127 329.5,90C 334.767,88.809 340.101,88.309 345.5,88.5C 343.912,92.3464 342.912,96.3464 342.5,100.5C 354.972,99.8016 367.305,97.9683 379.5,95C 384.202,94.1717 388.869,94.3384 393.5,95.5C 389.464,98.9426 385.297,102.276 381,105.5C 380.544,106.744 381.044,107.577 382.5,108C 397.899,109.521 413.232,111.521 428.5,114C 433.977,115.604 439.311,117.604 444.5,120C 446.019,121.351 447.352,122.851 448.5,124.5C 445.534,126.569 442.701,128.902 440,131.5C 439.333,134.167 439.333,136.833 440,139.5C 441.873,141.709 444.04,143.542 446.5,145C 462.757,152.036 477.591,161.203 491,172.5C 492.167,174.333 493.333,176.167 494.5,178C 489.883,177.524 485.217,177.524 480.5,178C 479.427,179.313 478.76,180.813 478.5,182.5C 484.938,195.708 491.104,209.042 497,222.5C 499.536,229.145 501.369,235.978 502.5,243C 502.115,245.184 501.115,247.018 499.5,248.5C 504.726,286.159 502.893,323.493 494,360.5C 493.439,361.022 492.772,361.355 492,361.5C 489.276,360.313 486.443,359.647 483.5,359.5C 483.343,360.873 483.51,362.207 484,363.5C 486.374,365.539 488.374,367.872 490,370.5C 486.367,389.721 479.367,407.721 469,424.5C 449.375,334.21 393.375,287.544 301,284.5C 210.91,287.696 155.243,333.029 134,420.5C 126.031,405.09 119.531,389.09 114.5,372.5C 115.761,369.736 117.595,367.403 120,365.5C 120.495,363.527 120.662,361.527 120.5,359.5C 117.574,360.461 114.574,361.127 111.5,361.5C 102.555,323.105 100.888,284.438 106.5,245.5C 104.738,245.357 103.071,245.691 101.5,246.5C 100.269,241.799 100.436,237.132 102,232.5C 108.093,214.988 115.26,197.988 123.5,181.5C 123.43,180.228 123.097,179.062 122.5,178C 120.863,177.399 119.197,176.899 117.5,176.5C 114.174,177.468 110.841,177.968 107.5,178C 111.36,171.895 116.36,166.895 122.5,163C 134.007,156.412 145.674,150.079 157.5,144C 166.19,136.293 165.19,130.459 154.5,126.5C 154.178,124.278 154.845,122.444 156.5,121C 165.185,116.158 174.519,113.158 184.5,112C 196.546,110.696 208.546,109.196 220.5,107.5C 221.583,106.635 221.749,105.635 221,104.5C 216.67,101.662 212.504,98.6617 208.5,95.5C 212.795,94.3391 217.129,94.1725 221.5,95C 230.191,96.5382 238.857,98.2048 247.5,100C 260.15,103.667 263.15,100.167 256.5,89.5C 256.863,88.8165 257.196,88.1499 257.5,87.5 Z"/></g>
<g><path style="opacity:1" fill="#81511c" d="M 469.5,431.5 C 470.446,436.793 471.113,442.126 471.5,447.5C 468.812,448.024 467.312,449.691 467,452.5C 467.675,469.178 463.675,484.511 455,498.5C 453.859,485.754 452.192,473.087 450,460.5C 446.958,455.358 443.292,454.691 439,458.5C 437.919,476.535 436.252,494.535 434,512.5C 431.104,514.533 427.937,515.866 424.5,516.5C 424.024,504.436 422.858,492.436 421,480.5C 419.309,476.787 416.475,475.621 412.5,477C 410.641,478.558 409.141,480.391 408,482.5C 402.333,493.833 396.667,505.167 391,516.5C 389.97,497.747 383.47,495.58 371.5,510C 368.073,511.796 364.906,513.963 362,516.5C 360.923,511.885 358.09,510.385 353.5,512C 349.868,516.634 345.868,520.967 341.5,525C 318.335,535.473 294.668,536.807 270.5,529C 267.382,527.941 264.382,526.608 261.5,525C 257.132,520.967 253.132,516.634 249.5,512C 244.91,510.385 242.077,511.885 241,516.5C 233.62,512.127 227.12,506.627 221.5,500C 218.331,499.022 215.497,499.522 213,501.5C 211.678,506.428 210.678,511.428 210,516.5C 204.682,505.864 199.349,495.198 194,484.5C 192.227,481.055 189.56,478.722 186,477.5C 183.849,477.643 182.182,478.643 181,480.5C 179.829,492.593 178.329,504.593 176.5,516.5C 172.755,515.662 169.922,513.662 168,510.5C 166.255,494.886 165.255,479.219 165,463.5C 164.945,457.776 162.112,455.276 156.5,456C 154.383,457.731 152.883,459.898 152,462.5C 150.006,474.75 148.673,487.083 148,499.5C 138.758,483.094 134.425,465.427 135,446.5C 133.192,444.604 131.025,444.104 128.5,445C 101.534,468.66 72.5342,471.326 41.5,453C 38.6752,450.857 36.6752,448.19 35.5,445C 38.0058,436.964 38.0058,428.964 35.5,421C 31.4211,411.93 26.9211,403.096 22,394.5C 22.2901,386.179 22.2901,377.846 22,369.5C 20.3378,364.846 17.6711,360.846 14,357.5C 13.3333,347.833 13.3333,338.167 14,328.5C 15.5926,316.963 17.4259,305.463 19.5,294C 19.4771,291.075 18.9771,288.241 18,285.5C 15.3505,281.868 13.5171,277.868 12.5,273.5C 13.4349,269.626 14.9349,265.96 17,262.5C 23.6274,254.204 30.6274,246.204 38,238.5C 44.4233,229.326 50.09,219.66 55,209.5C 59.758,202.738 65.258,196.571 71.5,191C 79.8793,184.133 87.8793,176.8 95.5,169C 111.168,156.356 128.168,145.689 146.5,137C 149.742,135.361 153.076,134.361 156.5,134C 157.5,136.091 156.833,137.757 154.5,139C 141.014,145.574 128.014,152.907 115.5,161C 110.287,164.546 106.12,169.046 103,174.5C 102.022,177.669 102.522,180.503 104.5,183C 108.866,183.363 113.199,183.363 117.5,183C 108.012,198.814 100.845,215.647 96,233.5C 95.3333,238.833 95.3333,244.167 96,249.5C 98.3287,250.771 99.4953,252.771 99.5,255.5C 96.0826,292.238 98.5826,328.571 107,364.5C 108.074,365.618 109.24,366.618 110.5,367.5C 109.425,370.438 109.259,373.438 110,376.5C 114.925,394.844 122.425,412.011 132.5,428C 135.025,428.896 137.192,428.396 139,426.5C 157.732,339.097 211.732,293.764 301,290.5C 391.18,293.336 445.513,339.003 464,427.5C 464.875,430.215 466.708,431.548 469.5,431.5 Z"/></g>
<g><path style="opacity:1" fill="#81511c" d="M 566.5,414.5 C 544.74,395.523 523.24,376.19 502,356.5C 501.536,355.906 501.369,355.239 501.5,354.5C 507.655,320.516 508.988,286.349 505.5,252C 507.435,247.392 507.935,242.559 507,237.5C 502.412,218.153 494.912,199.987 484.5,183C 488.801,183.363 493.134,183.363 497.5,183C 500.302,178.254 499.802,173.754 496,169.5C 482.276,157.044 466.776,147.211 449.5,140C 447.415,138.959 445.748,137.459 444.5,135.5C 445.723,134.386 447.056,134.219 448.5,135C 469.478,144.482 488.812,156.482 506.5,171C 518.304,181.803 529.804,192.97 541,204.5C 547.423,213.674 553.09,223.34 558,233.5C 563.26,240.763 569.26,247.43 576,253.5C 579.726,258.228 583.059,263.228 586,268.5C 586.667,271.5 586.667,274.5 586,277.5C 582.064,282.476 580.23,288.143 580.5,294.5C 581.549,303.911 583.049,313.245 585,322.5C 586.302,333.809 586.635,345.143 586,356.5C 581.729,360.703 578.729,365.703 577,371.5C 577.351,379.817 577.351,388.151 577,396.5C 573.672,402.647 570.172,408.647 566.5,414.5 Z"/></g>
<g><path style="opacity:1" fill="#82521d" d="M 394.5,250.5 C 385.477,246.937 376.144,244.604 366.5,243.5C 357.069,241.58 347.402,240.414 337.5,240C 330.915,235.532 328.748,229.365 331,221.5C 333.562,215.939 337.728,212.106 343.5,210C 381.737,209.868 412.904,224.701 437,254.5C 440.242,258.64 441.242,263.306 440,268.5C 438.818,270.357 437.151,271.357 435,271.5C 421.876,263.902 408.376,256.902 394.5,250.5 Z"/></g>
<g><path style="opacity:1" fill="#82521d" d="M 240.5,244.5 C 229.502,244.503 219.169,246.836 209.5,251.5C 209.265,250.903 208.765,250.57 208,250.5C 203.167,252.333 198.333,254.167 193.5,256C 185.018,260.325 176.518,264.492 168,268.5C 165.695,268.516 164.028,267.516 163,265.5C 162.035,261.218 162.702,257.218 165,253.5C 183.733,231.872 207.233,218.039 235.5,212C 244.562,211.119 253.562,211.452 262.5,213C 272.388,216.896 276.221,224.063 274,234.5C 272.283,239.551 268.783,242.385 263.5,243C 255.656,243.171 247.989,243.671 240.5,244.5 Z"/></g>
<g><path style="opacity:1" fill="#302826" d="M 366.5,243.5 C 376.144,244.604 385.477,246.937 394.5,250.5C 403.494,264.401 402.161,277.235 390.5,289C 373.934,297.735 360.767,294.235 351,278.5C 345.884,262.079 351.05,250.413 366.5,243.5 Z"/></g>
<g><path style="opacity:1" fill="#302826" d="M 240.5,244.5 C 253.967,252.431 258.134,263.764 253,278.5C 245.698,292.135 234.531,296.635 219.5,292C 206.931,285.724 201.764,275.558 204,261.5C 205.592,257.979 207.425,254.646 209.5,251.5C 219.169,246.836 229.502,244.503 240.5,244.5 Z"/></g>
<g><path style="opacity:1" fill="#f3f3f3" d="M 230.5,252.5 C 239.161,251.329 242.994,254.996 242,263.5C 239.459,268.069 235.625,269.569 230.5,268C 225.208,262.835 225.208,257.668 230.5,252.5 Z"/></g>
<g><path style="opacity:1" fill="#f4f4f4" d="M 376.5,252.5 C 383.967,251.806 387.8,255.139 388,262.5C 385.917,267.904 382.084,269.737 376.5,268C 370.134,262.896 370.134,257.729 376.5,252.5 Z"/></g>
<g><path style="opacity:1" fill="#050301" d="M 297.5,312.5 C 306.953,312.738 316.287,313.905 325.5,316C 341.066,322.663 346.233,334.163 341,350.5C 327.948,377.184 307.781,384.684 280.5,373C 270.929,366.773 264.429,358.273 261,347.5C 257.682,332.301 263.182,321.801 277.5,316C 284.215,314.286 290.881,313.12 297.5,312.5 Z"/></g>
<g><path style="opacity:1" fill="#231915" d="M 299.5,317.5 C 311.047,317.219 321.714,320.053 331.5,326C 337.424,332.202 338.924,339.369 336,347.5C 328.406,365.434 314.906,373.934 295.5,373C 276.055,367.254 266.222,354.421 266,334.5C 268.568,327.599 273.402,323.099 280.5,321C 286.884,319.326 293.218,318.16 299.5,317.5 Z"/></g>
<g><path style="opacity:1" fill="#7b4d1b" d="M 501.5,354.5 C 501.369,355.239 501.536,355.906 502,356.5C 523.24,376.19 544.74,395.523 566.5,414.5C 565.062,417.716 563.895,421.049 563,424.5C 562.735,432.512 562.735,440.512 563,448.5C 533.333,471.214 503.833,471.047 474.5,448C 473.552,447.517 472.552,447.351 471.5,447.5C 471.113,442.126 470.446,436.793 469.5,431.5C 471.017,431.489 472.184,430.823 473,429.5C 482.243,413.345 489.576,396.345 495,378.5C 495.793,374.577 495.626,370.744 494.5,367C 496.286,366.215 497.786,365.049 499,363.5C 499.406,360.258 500.239,357.258 501.5,354.5 Z"/></g>
<g><path style="opacity:1" fill="#040201" d="M 287.5,387.5 C 296.506,388.613 305.506,388.78 314.5,388C 320.759,392.167 321.092,396.833 315.5,402C 306.158,403.966 296.825,403.966 287.5,402C 282.214,397.169 282.214,392.335 287.5,387.5 Z"/></g>
<g><path style="opacity:1" fill="#231915" d="M 290.5,392.5 C 297.18,393.752 303.847,393.752 310.5,392.5C 312.002,393.083 313.335,393.916 314.5,395C 312.974,396.887 310.974,397.887 308.5,398C 303.833,398.667 299.167,398.667 294.5,398C 292.026,397.887 290.026,396.887 288.5,395C 289.381,394.292 290.047,393.458 290.5,392.5 Z"/></g>
</svg>
