<?xml version="1.0" encoding="UTF-8"?>
<!DOCTYPE svg PUBLIC "-//W3C//DTD SVG 1.1//EN" "http://www.w3.org/Graphics/SVG/1.1/DTD/svg11.dtd">
<svg xmlns="http://www.w3.org/2000/svg" version="1.1" width="600px" height="600px" style="shape-rendering:geometricPrecision; text-rendering:geometricPrecision; image-rendering:optimizeQuality; fill-rule:evenodd; clip-rule:evenodd" xmlns:xlink="http://www.w3.org/1999/xlink">
<g><path style="opacity:0.964" fill="#020202" d="M 599.5,169.5 C 599.5,182.167 599.5,194.833 599.5,207.5C 592.283,227.957 584.45,248.29 576,268.5C 568.909,291.29 562.575,314.29 557,337.5C 543.826,378.37 516.66,391.87 475.5,378C 467.093,375.632 459.759,371.466 453.5,365.5C 439.744,400.601 427.077,436.101 415.5,472C 419.219,487.772 419.386,503.605 416,519.5C 407.25,539.06 392.083,548.727 370.5,548.5C 367.5,548.333 364.5,548.167 361.5,548C 341.17,542.301 320.504,538.467 299.5,536.5C 288.439,536.947 277.606,538.614 267,541.5C 266.439,540.978 265.772,540.645 265,540.5C 253.432,543.81 241.765,546.476 230,548.5C 214.04,548.184 200.706,542.184 190,530.5C 183.438,520.87 180.605,510.203 181.5,498.5C 181.485,487.787 182.818,477.287 185.5,467C 175.047,431.807 162.714,397.307 148.5,363.5C 133.293,376.349 115.627,382.683 95.5,382.5C 78.6763,383.002 65.1763,376.669 55,363.5C 50.8873,357.609 47.5539,351.276 45,344.5C 37.8232,318.793 30.4899,293.127 23,267.5C 14.2525,247.409 6.41913,227.076 -0.5,206.5C -0.5,194.5 -0.5,182.5 -0.5,170.5C 1.72474,166.396 4.22474,162.396 7,158.5C 11.8774,153.954 17.044,149.787 22.5,146C 37.1667,137.667 51.8333,129.333 66.5,121C 86.6289,106.878 107.296,93.5451 128.5,81C 153.077,67.7117 179.077,58.3783 206.5,53C 218.474,50.7628 229.474,52.9295 239.5,59.5C 269.057,51.5718 299.057,49.4052 329.5,53C 339.922,54.1506 350.089,56.3173 360,59.5C 369.856,52.9127 380.689,50.746 392.5,53C 431.637,61.2422 467.637,76.5755 500.5,99C 524.828,116.17 550.161,131.837 576.5,146C 586.408,151.74 594.075,159.574 599.5,169.5 Z"/></g>
<g><path style="opacity:1" fill="#333131" d="M 365.5,71.5 C 390.397,100.976 405.897,134.976 412,173.5C 414.609,197.138 416.942,220.805 419,244.5C 422.963,279.037 432.796,311.704 448.5,342.5C 448.167,343.833 447.833,345.167 447.5,346.5C 434.097,362.079 421.597,378.412 410,395.5C 405.926,401.283 400.426,404.616 393.5,405.5C 382.333,380.176 366.5,358.176 346,339.5C 336.819,327.791 331.486,314.458 330,299.5C 327.653,276.889 326.987,254.222 328,231.5C 329.481,206.505 330.481,181.505 331,156.5C 330.504,146.325 325.671,139.158 316.5,135C 303.585,131.243 290.918,131.91 278.5,137C 272.937,140.614 269.77,145.781 269,152.5C 268.36,156.483 267.86,160.483 267.5,164.5C 270.83,203.438 271.997,242.438 271,281.5C 270.809,299.128 266.809,315.795 259,331.5C 257.088,333.657 255.421,335.991 254,338.5C 232.645,357.573 216.478,380.239 205.5,406.5C 199.17,404.382 193.67,400.716 189,395.5C 179.402,381.078 168.902,367.411 157.5,354.5C 155.679,349.548 154.012,344.548 152.5,339.5C 166.758,310.07 175.925,279.07 180,246.5C 182.113,222.477 184.446,198.477 187,174.5C 192.271,143 203.605,114 221,87.5C 225.711,82.2939 230.211,76.9605 234.5,71.5C 278.185,58.3245 321.851,58.3245 365.5,71.5 Z"/></g>
<g><path style="opacity:1" fill="#272626" d="M 234.5,71.5 C 230.211,76.9605 225.711,82.2939 221,87.5C 203.605,114 192.271,143 187,174.5C 184.446,198.477 182.113,222.477 180,246.5C 175.925,279.07 166.758,310.07 152.5,339.5C 147.373,348.55 140.706,356.383 132.5,363C 114.076,372.16 95.0759,373.827 75.5,368C 65.0705,360.679 57.9038,350.846 54,338.5C 47.4889,314.789 40.8222,291.122 34,267.5C 25.7445,247.735 18.0779,227.735 11,207.5C 7.96937,198.037 6.96937,188.371 8,178.5C 10.6284,169.741 15.7951,162.908 23.5,158C 49.8386,143.837 75.1719,128.17 99.5,111C 113.239,102.269 127.239,93.9352 141.5,86C 163.171,75.3318 185.838,67.6652 209.5,63C 216.817,61.9669 223.817,62.9669 230.5,66C 232.469,67.4998 233.802,69.3331 234.5,71.5 Z"/></g>
<g><path style="opacity:1" fill="#272626" d="M 448.5,342.5 C 432.796,311.704 422.963,279.037 419,244.5C 416.942,220.805 414.609,197.138 412,173.5C 405.897,134.976 390.397,100.976 365.5,71.5C 366.248,67.583 368.582,65.083 372.5,64C 383.259,62.3903 393.926,63.057 404.5,66C 436.375,75.1078 466.042,88.7745 493.5,107C 519.826,125.503 547.159,142.503 575.5,158C 591.779,169.83 596.279,185.33 589,204.5C 582.315,224.891 574.648,244.891 566,264.5C 558.666,290.505 551.333,316.505 544,342.5C 534.38,367.064 516.546,376.564 490.5,371C 478.885,369.58 468.719,365.08 460,357.5C 456.146,352.431 452.313,347.431 448.5,342.5 Z"/></g>
<g><path style="opacity:1" fill="#e3dcd6" d="M 379.5,402.5 C 381.928,407.693 384.595,412.693 387.5,417.5C 393.47,428.123 397.803,439.456 400.5,451.5C 400.584,455.837 401.584,459.837 403.5,463.5C 407.141,479.172 408.308,495.172 407,511.5C 401.499,529.348 389.333,538.014 370.5,537.5C 367.5,537.333 364.5,537.167 361.5,537C 341.17,531.301 320.504,527.467 299.5,525.5C 277.872,527.709 256.539,531.542 235.5,537C 220.448,539.428 207.948,534.928 198,523.5C 191.863,512.63 189.863,500.963 192,488.5C 193.204,480.498 194.37,472.498 195.5,464.5C 197.416,460.837 198.416,456.837 198.5,452.5C 200.68,449.619 201.68,446.286 201.5,442.5C 203.99,439.374 205.323,435.708 205.5,431.5C 207.834,429.824 208.834,427.491 208.5,424.5C 218.392,402.067 230.892,381.067 246,361.5C 259.309,351.218 268.976,338.218 275,322.5C 282.122,291.556 284.456,260.222 282,228.5C 280.542,204.171 279.542,179.837 279,155.5C 280.167,149 284,145.167 290.5,144C 298.663,142.95 306.663,143.617 314.5,146C 317.467,148.1 319.3,150.934 320,154.5C 318.335,190.474 317.335,226.474 317,262.5C 316.453,284.673 319.453,306.339 326,327.5C 328.577,333.66 331.91,339.327 336,344.5C 354.501,360.834 369.001,380.167 379.5,402.5 Z"/></g>
<g><path style="opacity:1" fill="#a07f4a" d="M 220.5,182.5 C 242.184,182.347 255.518,192.847 260.5,214C 258.771,222.042 253.771,225.375 245.5,224C 237.833,221 230.167,218 222.5,215C 211.648,210.831 206.482,202.998 207,191.5C 210.144,186.353 214.644,183.353 220.5,182.5 Z"/></g>
<g><path style="opacity:1" fill="#a17f4a" d="M 367.5,182.5 C 376.924,181.559 385.09,184.226 392,190.5C 393.503,201.326 389.336,209.16 379.5,214C 371.422,216.803 363.422,219.803 355.5,223C 348.496,225.066 342.996,223.233 339,217.5C 338.054,211.329 339.388,205.662 343,200.5C 348.878,191.167 357.045,185.167 367.5,182.5 Z"/></g>
<g><path style="opacity:1" fill="#84bcc5" d="M 219.5,235.5 C 238.609,233.128 250.776,241.128 256,259.5C 257.342,276.658 249.842,287.825 233.5,293C 212.063,294.733 200.063,284.9 197.5,263.5C 199.252,249.752 206.585,240.418 219.5,235.5 Z"/></g>
<g><path style="opacity:1" fill="#85bcc6" d="M 364.5,235.5 C 383.091,233.202 395.257,240.868 401,258.5C 402.679,275.974 395.179,287.474 378.5,293C 357.332,294.84 345.332,285.174 342.5,264C 344.08,249.935 351.413,240.435 364.5,235.5 Z"/></g>
<g><path style="opacity:1" fill="#212120" d="M 220.5,245.5 C 238.606,243.449 247.106,251.449 246,269.5C 240.732,282.148 231.565,286.315 218.5,282C 205.981,272.987 204.315,262.32 213.5,250C 215.898,248.476 218.231,246.976 220.5,245.5 Z"/></g>
<g><path style="opacity:1" fill="#222120" d="M 365.5,245.5 C 385.477,243.972 393.644,252.972 390,272.5C 383.09,283.578 373.59,286.412 361.5,281C 348.462,267.508 349.795,255.675 365.5,245.5 Z"/></g>
<g><path style="opacity:1" fill="#f1f1f1" d="M 228.5,253.5 C 235.993,252.829 238.326,255.995 235.5,263C 230.117,265.961 226.784,264.461 225.5,258.5C 226.092,256.577 227.092,254.911 228.5,253.5 Z"/></g>
<g><path style="opacity:1" fill="#ededed" d="M 373.5,253.5 C 381.244,253.048 383.577,256.215 380.5,263C 375.601,265.55 372.267,264.216 370.5,259C 371.124,256.915 372.124,255.082 373.5,253.5 Z"/></g>
<g><path style="opacity:1" fill="#a17f4a" d="M 447.5,346.5 C 436.168,380.997 424.334,415.33 412,449.5C 406.672,435.169 400.506,420.502 393.5,405.5C 400.426,404.616 405.926,401.283 410,395.5C 421.597,378.412 434.097,362.079 447.5,346.5 Z"/></g>
<g><path style="opacity:1" fill="#a17f4a" d="M 157.5,354.5 C 168.902,367.411 179.402,381.078 189,395.5C 193.67,400.716 199.17,404.382 205.5,406.5C 198.869,418.886 193.703,431.886 190,445.5C 179.652,414.953 168.819,384.62 157.5,354.5 Z"/></g>
<g><path style="opacity:1" fill="#040404" d="M 283.5,386.5 C 299.011,385.661 314.345,386.827 329.5,390C 349.283,396.399 357.783,409.899 355,430.5C 352.544,442.63 346.377,452.464 336.5,460C 305.324,482.012 277.158,478.512 252,449.5C 241.564,434.189 240.897,418.523 250,402.5C 259.364,393.233 270.531,387.9 283.5,386.5 Z"/></g>
<g><path style="opacity:1" fill="#201f1e" d="M 292.5,396.5 C 304.744,396.224 316.744,397.724 328.5,401C 342.326,406.819 347.493,416.986 344,431.5C 340.086,442.083 333.253,450.249 323.5,456C 307.473,465.964 291.473,465.964 275.5,456C 265.747,450.249 258.914,442.083 255,431.5C 251.981,414.508 258.814,403.675 275.5,399C 281.331,398.29 286.998,397.457 292.5,396.5 Z"/></g>
<g><path style="opacity:1" fill="#725f45" d="M 379.5,402.5 C 383.426,406.678 386.093,411.678 387.5,417.5C 384.595,412.693 381.928,407.693 379.5,402.5 Z"/></g>
<g><path style="opacity:1" fill="#9e8c76" d="M 208.5,424.5 C 208.834,427.491 207.834,429.824 205.5,431.5C 205.707,428.759 206.707,426.426 208.5,424.5 Z"/></g>
<g><path style="opacity:1" fill="#9f8d77" d="M 205.5,431.5 C 205.323,435.708 203.99,439.374 201.5,442.5C 202.065,438.463 203.399,434.797 205.5,431.5 Z"/></g>
<g><path style="opacity:1" fill="#917e66" d="M 201.5,442.5 C 201.68,446.286 200.68,449.619 198.5,452.5C 198.899,448.884 199.899,445.55 201.5,442.5 Z"/></g>
<g><path style="opacity:1" fill="#968978" d="M 400.5,451.5 C 402.102,455.239 403.102,459.239 403.5,463.5C 401.584,459.837 400.584,455.837 400.5,451.5 Z"/></g>
<g><path style="opacity:1" fill="#806c51" d="M 198.5,452.5 C 198.416,456.837 197.416,460.837 195.5,464.5C 195.898,460.239 196.898,456.239 198.5,452.5 Z"/></g>
</svg>
