<?xml version="1.0" encoding="UTF-8"?>
<!DOCTYPE svg PUBLIC "-//W3C//DTD SVG 1.1//EN" "http://www.w3.org/Graphics/SVG/1.1/DTD/svg11.dtd">
<svg xmlns="http://www.w3.org/2000/svg" version="1.1" width="600px" height="600px" style="shape-rendering:geometricPrecision; text-rendering:geometricPrecision; image-rendering:optimizeQuality; fill-rule:evenodd; clip-rule:evenodd" xmlns:xlink="http://www.w3.org/1999/xlink">
<g><path style="opacity:0.977" fill="#030303" d="M 599.5,95.5 C 599.5,128.833 599.5,162.167 599.5,195.5C 592.232,243.037 569.732,281.704 532,311.5C 532.88,319.126 533.88,326.793 535,334.5C 535.667,338.833 535.667,343.167 535,347.5C 533.676,354.985 529.176,358.652 521.5,358.5C 521.41,369.714 522.077,380.881 523.5,392C 525.201,402.461 521.201,409.294 511.5,412.5C 510.264,411.754 508.93,411.421 507.5,411.5C 507.53,422.247 505.53,432.58 501.5,442.5C 508.646,470.604 517.979,497.937 529.5,524.5C 527.601,534.884 521.601,538.384 511.5,535C 506.398,532.032 501.231,529.199 496,526.5C 494.856,526.911 493.689,527.244 492.5,527.5C 489.521,526.672 486.521,526.005 483.5,525.5C 484.691,532.599 486.358,539.599 488.5,546.5C 486.489,557.33 480.489,560.496 470.5,556C 467.573,553.618 464.739,551.118 462,548.5C 463.292,554.062 463.958,559.728 464,565.5C 462.283,570.448 458.783,573.115 453.5,573.5C 450.548,572.932 447.881,571.766 445.5,570C 438.926,564.096 433.092,557.596 428,550.5C 427.687,554.965 425.521,558.132 421.5,560C 417.072,560.697 413.072,562.363 409.5,565C 403.457,566.319 398.624,564.486 395,559.5C 393.676,555.204 392.509,550.871 391.5,546.5C 388.103,555.865 381.77,558.698 372.5,555C 371.08,561.739 367.413,566.739 361.5,570C 358.084,570.893 354.917,570.393 352,568.5C 344.918,577.075 337.585,577.408 330,569.5C 323.877,578.834 315.711,581.667 305.5,578C 302.567,575.736 300.4,572.902 299,569.5C 296.486,575.773 291.819,579.44 285,580.5C 277.764,579.266 272.098,575.599 268,569.5C 261.41,577.28 254.577,577.447 247.5,570C 241.424,571.518 235.924,570.351 231,566.5C 228.89,562.614 227.057,558.614 225.5,554.5C 215.764,558.65 209.598,555.65 207,545.5C 203.195,567.435 192.862,571.102 176,556.5C 175.027,554.608 174.36,552.608 174,550.5C 168.167,557 162.333,563.5 156.5,570C 148.672,575.279 142.506,573.779 138,565.5C 137.333,562.833 137.333,560.167 138,557.5C 139.445,553.85 140.445,550.183 141,546.5C 136.709,552.31 131.209,556.31 124.5,558.5C 117.941,557.441 114.275,553.608 113.5,547C 115.249,539.837 116.916,532.671 118.5,525.5C 115.26,525.768 112.094,526.434 109,527.5C 107.211,526.591 105.377,526.424 103.5,527C 97.8668,531.9 91.3668,535.066 84,536.5C 75.7003,534.901 72.0336,529.901 73,521.5C 84.4313,495.967 93.5979,469.634 100.5,442.5C 96.3073,432.662 94.3073,422.329 94.5,411.5C 87.7773,413.265 82.944,410.932 80,404.5C 78.9848,400.235 78.4848,395.902 78.5,391.5C 79.8699,380.545 80.5366,369.545 80.5,358.5C 72.859,358.693 68.359,355.026 67,347.5C 66.2008,336.101 67.3675,324.935 70.5,314C 41.7921,290.966 21.2921,262.132 9,227.5C 5.38258,215.413 3.04925,203.079 2,190.5C 1.32924,189.748 0.495904,189.414 -0.5,189.5C -0.5,164.833 -0.5,140.167 -0.5,115.5C 1.4504,105.592 3.61707,95.5924 6,85.5C 16.7156,50.7281 39.8823,36.8948 75.5,44C 94.7903,49.9853 113.624,57.152 132,65.5C 134.289,63.9398 136.789,62.7731 139.5,62C 144.519,55.9515 150.519,54.9515 157.5,59C 158.701,59.9025 159.535,61.0692 160,62.5C 165.719,61.0188 171.553,60.0188 177.5,59.5C 176.672,52.6503 179.339,47.817 185.5,45C 200.916,40.6591 216.582,38.8258 232.5,39.5C 230.286,31.7612 232.952,26.5946 240.5,24C 255.123,23.2623 268.456,27.0956 280.5,35.5C 281.931,35.0234 283.264,34.3567 284.5,33.5C 289.489,19.8319 298.489,16.3319 311.5,23C 313.986,26.1371 315.819,29.6371 317,33.5C 318.441,34.2598 319.941,34.9264 321.5,35.5C 333.55,27.0932 346.883,23.2598 361.5,24C 369.217,26.9607 371.884,32.4607 369.5,40.5C 385.43,38.9595 401.096,40.4595 416.5,45C 422.635,47.8961 425.302,52.7294 424.5,59.5C 430.265,59.9608 435.932,60.9608 441.5,62.5C 448.744,53.5652 456.077,53.3986 463.5,62C 465.899,62.7311 468.065,63.8978 470,65.5C 487.833,57.5543 506,50.3876 524.5,44C 555.976,34.9914 578.809,45.1581 593,74.5C 595.344,81.5719 597.511,88.5719 599.5,95.5 Z"/></g>
<g><path style="opacity:1" fill="#f3ebe2" d="M 396.5,62.5 C 396.5,63.1667 396.167,63.5 395.5,63.5C 390.821,63.3342 386.155,63.5008 381.5,64C 373.237,66.2503 364.904,68.0836 356.5,69.5C 355.826,59.3819 350.326,55.0486 340,56.5C 325.806,58.3433 312.806,63.3433 301,71.5C 286.73,61.409 270.897,56.5756 253.5,57C 247.944,59.2719 245.277,63.4386 245.5,69.5C 236.166,67.7333 226.833,65.9 217.5,64C 201.463,60.5441 194.797,66.7108 197.5,82.5C 183.706,83.5753 170.372,86.5753 157.5,91.5C 157.062,91.5654 156.728,91.3988 156.5,91C 159.407,89.3909 162.073,87.5576 164.5,85.5C 166.893,84.6473 168.226,82.9806 168.5,80.5C 167.5,80.5 166.5,80.5 165.5,80.5C 161.662,79.7611 157.662,79.5944 153.5,80C 152.643,79.3109 151.977,78.4776 151.5,77.5C 152.707,75.4589 154.374,74.1255 156.5,73.5C 167.739,71.2196 179.073,69.3863 190.5,68C 212.032,61.6887 211.365,58.3554 188.5,58C 187.209,55.9098 187.876,54.5764 190.5,54C 204.655,50.406 218.989,49.5727 233.5,51.5C 240.22,51.0682 246.886,50.2349 253.5,49C 254.956,48.5774 255.456,47.7441 255,46.5C 251.448,43.2809 247.615,40.4476 243.5,38C 242.12,36.6764 241.786,35.3431 242.5,34C 247.976,33.3774 253.31,34.0441 258.5,36C 264.568,38.2012 270.235,41.2012 275.5,45C 280.921,45.8392 286.254,45.5059 291.5,44C 293.073,40.2221 294.573,36.3887 296,32.5C 298.706,29.0221 301.706,28.6888 305,31.5C 306.927,34.9481 308.261,38.6148 309,42.5C 309.833,43.3333 310.667,44.1667 311.5,45C 316.167,45.6667 320.833,45.6667 325.5,45C 331.221,41.4728 337.221,38.4728 343.5,36C 348.69,34.0441 354.024,33.3774 359.5,34C 359.833,34.3333 360.167,34.6667 360.5,35C 356.452,39.1041 351.952,42.6041 347,45.5C 346.251,46.635 346.417,47.635 347.5,48.5C 359.501,51.7355 371.667,52.4021 384,50.5C 394.111,50.3251 403.944,51.8251 413.5,55C 414.711,55.8928 414.711,56.7261 413.5,57.5C 407.909,58.7329 402.243,59.5662 396.5,60C 395.226,60.9772 395.226,61.8106 396.5,62.5 Z"/></g>
<g><path style="opacity:1" fill="#c9b7a1" d="M 520.5,309.5 C 518.559,298.689 518.226,287.689 519.5,276.5C 522.5,279.167 525.5,281.833 528.5,284.5C 529.946,283.829 530.612,282.662 530.5,281C 527.642,271.116 523.809,261.616 519,252.5C 517.173,242.879 515.673,233.212 514.5,223.5C 518.756,224.974 522.422,227.474 525.5,231C 526.448,231.483 527.448,231.649 528.5,231.5C 525.697,220.896 520.53,211.563 513,203.5C 509.839,196.86 507.006,190.193 504.5,183.5C 504.932,182.29 505.599,181.29 506.5,180.5C 508.331,182.776 510.664,184.609 513.5,186C 515.65,187.411 517.984,188.245 520.5,188.5C 518.569,180.882 514.236,174.882 507.5,170.5C 506.489,166.144 504.656,162.144 502,158.5C 497.271,153.603 492.438,148.936 487.5,144.5C 493.601,145.755 499.601,147.422 505.5,149.5C 503.541,145.019 500.541,141.185 496.5,138C 484.473,131.139 474.14,122.306 465.5,111.5C 468.948,110.65 472.448,110.65 476,111.5C 477.5,111.167 479,110.833 480.5,110.5C 478.644,107.81 476.311,105.644 473.5,104C 466.874,101.069 460.208,98.2359 453.5,95.5C 452.893,95.6236 452.56,95.9569 452.5,96.5C 448.26,93.8816 443.926,91.5482 439.5,89.5C 440.239,89.631 440.906,89.4643 441.5,89C 440.269,87.5952 438.936,86.4286 437.5,85.5C 439.371,85.1412 440.871,84.1412 442,82.5C 442.528,81.184 442.028,80.5173 440.5,80.5C 442.964,80.1757 445.631,80.009 448.5,80C 450.007,79.1627 450.507,77.9961 450,76.5C 448.591,75.2189 447.091,74.2189 445.5,73.5C 446.239,73.631 446.906,73.4643 447.5,73C 449.006,70.6667 450.673,68.5 452.5,66.5C 452.833,67.1667 453.167,67.8333 453.5,68.5C 452.144,72.7655 451.644,77.0988 452,81.5C 454.491,77.1646 457.991,74.1646 462.5,72.5C 462.201,74.604 462.534,76.604 463.5,78.5C 479.781,72.6844 495.781,66.1844 511.5,59C 552.68,40.6762 578.514,53.1762 589,96.5C 593.964,124.277 596.131,152.277 595.5,180.5C 594.325,180.719 593.325,180.386 592.5,179.5C 591.42,177.004 590.086,174.67 588.5,172.5C 590.374,201.405 583.874,228.405 569,253.5C 557.363,272.474 542.863,288.974 525.5,303C 523.21,304.777 521.543,306.944 520.5,309.5 Z"/></g>
<g><path style="opacity:1" fill="#c9b7a1" d="M 156.5,73.5 C 154.374,74.1255 152.707,75.4589 151.5,77.5C 151.977,78.4776 152.643,79.3109 153.5,80C 157.662,79.5944 161.662,79.7611 165.5,80.5C 163.473,80.3379 161.473,80.5045 159.5,81C 160.411,83.4148 162.078,84.9148 164.5,85.5C 162.073,87.5576 159.407,89.3909 156.5,91C 156.728,91.3988 157.062,91.5654 157.5,91.5C 155.819,93.0075 153.819,94.0075 151.5,94.5C 141.066,97.9676 131.233,102.634 122,108.5C 121.517,109.448 121.351,110.448 121.5,111.5C 126.489,110.778 131.489,110.612 136.5,111C 133.249,116.255 129.249,120.922 124.5,125C 116.659,130.087 108.992,135.42 101.5,141C 99.3799,143.409 97.3799,145.909 95.5,148.5C 100.025,148.725 104.359,147.558 108.5,145C 110.134,144.506 111.801,144.34 113.5,144.5C 108.893,149.056 104.393,153.722 100,158.5C 97.5361,162.434 95.3694,166.434 93.5,170.5C 89.8651,174.307 86.3651,178.307 83,182.5C 81.872,184.345 81.372,186.345 81.5,188.5C 86.4079,186.713 91.0745,184.379 95.5,181.5C 96.1667,181.5 96.5,181.833 96.5,182.5C 94.9569,190.29 92.1236,197.624 88,204.5C 82.3346,211.156 77.6679,218.49 74,226.5C 73.5065,228.134 73.3398,229.801 73.5,231.5C 74.552,231.649 75.552,231.483 76.5,231C 79.2739,227.038 82.9405,224.538 87.5,223.5C 86.5954,240.53 82.0954,256.53 74,271.5C 72.228,275.313 71.3947,279.313 71.5,283.5C 75.3488,283.498 78.0155,281.665 79.5,278C 80.7604,276.887 81.927,276.72 83,277.5C 83.9308,287.927 83.4308,298.26 81.5,308.5C 48.9277,284.743 27.0944,253.41 16,214.5C 13.9451,200.925 12.9451,187.258 13,173.5C 11.8333,175.833 10.6667,178.167 9.5,180.5C 8.67504,181.386 7.67504,181.719 6.5,181.5C 5.52531,152.196 8.02531,123.196 14,94.5C 16.8449,80.3035 23.6783,68.4702 34.5,59C 38.4535,56.1901 42.7868,54.1901 47.5,53C 56.2135,52.2024 64.8802,52.5357 73.5,54C 95.4747,62.2689 117.475,70.4356 139.5,78.5C 139.5,76.5 139.5,74.5 139.5,72.5C 143.642,74.1195 147.142,76.7862 150,80.5C 150.376,76.0821 149.876,71.7488 148.5,67.5C 149.002,66.479 149.668,66.3123 150.5,67C 152.041,68.5793 153.208,70.4127 154,72.5C 154.671,73.2524 155.504,73.5858 156.5,73.5 Z"/></g>
<g><path style="opacity:1" fill="#8e8984" d="M 396.5,62.5 C 398.75,63.1302 400.75,64.1302 402.5,65.5C 401.833,65.5 401.5,65.8333 401.5,66.5C 399.588,65.2008 397.588,64.2008 395.5,63.5C 396.167,63.5 396.5,63.1667 396.5,62.5 Z"/></g>
<g><path style="opacity:1" fill="#f3ebe3" d="M 401.5,66.5 C 401.5,65.8333 401.833,65.5 402.5,65.5C 416.687,68.7341 431.02,71.4008 445.5,73.5C 447.091,74.2189 448.591,75.2189 450,76.5C 450.507,77.9961 450.007,79.1627 448.5,80C 445.631,80.009 442.964,80.1757 440.5,80.5C 437.753,80.1866 435.086,80.52 432.5,81.5C 433.611,83.5522 435.277,84.8855 437.5,85.5C 438.936,86.4286 440.269,87.5952 441.5,89C 440.906,89.4643 440.239,89.631 439.5,89.5C 427.969,86.5271 416.302,84.1938 404.5,82.5C 405.412,78.8694 405.579,75.2027 405,71.5C 404.303,69.4156 403.136,67.7489 401.5,66.5 Z"/></g>
<g><path style="opacity:1" fill="#e2c5a2" d="M 445.5,116.5 C 441.213,119.622 440.379,123.622 443,128.5C 452.795,136.312 463.295,142.979 474.5,148.5C 483.72,153.55 491.22,160.55 497,169.5C 497.497,171.81 497.663,174.143 497.5,176.5C 493.864,176.406 490.364,175.739 487,174.5C 485.933,175.191 484.766,175.691 483.5,176C 482.919,176.893 482.585,177.893 482.5,179C 489.075,194.654 495.242,210.487 501,226.5C 504.675,236.203 506.008,246.203 505,256.5C 503.612,257.554 502.112,257.72 500.5,257C 497.035,254.537 493.869,251.704 491,248.5C 490.329,249.252 489.496,249.586 488.5,249.5C 487.21,250.058 486.377,251.058 486,252.5C 484.595,268.694 486.428,284.361 491.5,299.5C 494.641,310.031 496.975,320.864 498.5,332C 498.596,336.763 496.596,338.263 492.5,336.5C 488.674,331.981 484.174,330.981 479,333.5C 478.779,348.861 479.446,364.194 481,379.5C 481.383,380.056 481.883,380.389 482.5,380.5C 485.658,389.786 486.658,399.286 485.5,409C 486.128,412.936 487.128,416.77 488.5,420.5C 487.331,424.184 487.498,427.85 489,431.5C 489.763,428.937 490.263,428.937 490.5,431.5C 490.167,432.833 489.833,434.167 489.5,435.5C 496.775,466.323 506.441,496.323 518.5,525.5C 516.345,525.628 514.345,525.128 512.5,524C 505.123,519.65 498.123,514.817 491.5,509.5C 481.681,481.222 474.847,452.222 471,422.5C 467.668,385.535 464.668,348.535 462,311.5C 458.415,290.903 454.082,270.569 449,250.5C 451.019,253.712 453.853,255.378 457.5,255.5C 457.876,248.678 457.043,242.012 455,235.5C 450.322,221.965 445.155,208.631 439.5,195.5C 439.608,194.558 439.941,193.725 440.5,193C 444.188,192.55 447.854,192.717 451.5,193.5C 450.344,187.043 447.011,181.876 441.5,178C 432.506,171.501 423.173,165.501 413.5,160C 412,158.5 410.5,157 409,155.5C 408.333,153.5 408.333,151.5 409,149.5C 411.438,147.571 413.272,145.238 414.5,142.5C 414.471,140.971 413.804,139.804 412.5,139C 407.179,135.891 401.512,133.558 395.5,132C 384.454,130.486 373.454,128.82 362.5,127C 361.549,126.282 361.383,125.449 362,124.5C 364.557,121.808 367.391,119.475 370.5,117.5C 371.386,116.675 371.719,115.675 371.5,114.5C 358.127,116.376 344.793,118.376 331.5,120.5C 332.167,116.5 332.833,112.5 333.5,108.5C 329.055,108.72 324.722,109.554 320.5,111C 313.075,114.13 305.908,117.63 299,121.5C 293.538,118.731 288.038,115.898 282.5,113C 276.635,110.867 270.635,109.367 264.5,108.5C 265.761,112.374 266.428,116.374 266.5,120.5C 263.15,120.665 259.817,120.498 256.5,120C 247.823,117.456 238.99,115.623 230,114.5C 228.833,114.833 227.667,115.167 226.5,115.5C 229.338,118.838 232.505,121.838 236,124.5C 236.688,125.332 236.521,125.998 235.5,126.5C 224.572,128.652 213.572,130.485 202.5,132C 194.674,132.91 188.341,136.41 183.5,142.5C 184.761,145.264 186.595,147.597 189,149.5C 189.755,152.303 189.422,154.97 188,157.5C 176.909,164.294 166.076,171.461 155.5,179C 151.017,182.968 148.017,187.802 146.5,193.5C 149.344,192.942 152.178,192.275 155,191.5C 157.5,191.333 158.667,192.5 158.5,195C 152.306,209.558 146.806,224.392 142,239.5C 140.809,244.767 140.309,250.101 140.5,255.5C 144.326,255.203 147.326,253.37 149.5,250C 150.448,249.517 151.448,249.351 152.5,249.5C 148.04,267.344 144.206,285.344 141,303.5C 137.338,332.718 135.005,362.051 134,391.5C 130.964,431.846 123.131,471.18 110.5,509.5C 103.207,515.152 95.5407,520.319 87.5,525C 85.7412,525.798 84.0745,525.631 82.5,524.5C 100.071,485.959 111.404,447.293 116.5,408.5C 115.456,407.377 114.79,406.044 114.5,404.5C 119.535,382.613 122.202,360.447 122.5,338C 122.467,335.431 121.3,333.597 119,332.5C 115.118,334.441 111.118,336.108 107,337.5C 105.893,337.415 104.893,337.081 104,336.5C 103.833,334.833 103.667,333.167 103.5,331.5C 106.678,313.777 110.178,296.111 114,278.5C 115.331,270.536 115.665,262.536 115,254.5C 114.482,251.977 113.148,249.977 111,248.5C 108.167,250 106,252.167 104.5,255C 97.4841,259.337 94.8175,257.337 96.5,249C 96.8432,240.951 98.3432,233.117 101,225.5C 106.337,209.162 112.504,193.162 119.5,177.5C 118.921,175.539 117.587,174.539 115.5,174.5C 112.685,175.245 109.851,175.912 107,176.5C 105.93,176.472 105.097,176.139 104.5,175.5C 105.867,170.123 108.534,165.456 112.5,161.5C 120.875,154.329 129.541,147.662 138.5,141.5C 141.494,139 144.827,137 148.5,135.5C 151.516,134.657 154.183,133.157 156.5,131C 162.265,124.402 161.431,118.568 154,113.5C 153.333,111.5 153.333,109.5 154,107.5C 156.738,105.574 159.238,103.574 161.5,101.5C 166.143,99.0044 171.143,97.1711 176.5,96C 190.339,93.8326 204.173,91.6659 218,89.5C 219.257,89.1501 219.591,88.4835 219,87.5C 214.815,84.4049 210.815,81.0716 207,77.5C 206.51,76.2068 206.343,74.8734 206.5,73.5C 210.6,73.2367 214.6,73.5701 218.5,74.5C 231.405,78.8884 244.738,81.3884 258.5,82C 259.081,81.1074 259.415,80.1074 259.5,79C 258.333,75.1795 257.333,71.3461 256.5,67.5C 259.833,67.5 263.167,67.5 266.5,67.5C 271.696,68.2868 276.696,69.7868 281.5,72C 287.952,75.6418 294.452,79.1418 301,82.5C 311.664,75.5869 323.164,70.4202 335.5,67C 339.152,66.5014 342.818,66.3347 346.5,66.5C 346.323,70.6982 345.323,74.6982 343.5,78.5C 343.712,80.888 345.045,81.888 347.5,81.5C 359.513,79.0641 371.513,76.5641 383.5,74C 387.486,73.5012 391.486,73.3345 395.5,73.5C 395.657,74.8734 395.49,76.2068 395,77.5C 390.66,81.0095 386.493,84.6762 382.5,88.5C 398.067,91.5593 413.733,94.3927 429.5,97C 437.685,98.6696 444.518,102.503 450,108.5C 450.257,111.017 449.59,113.35 448,115.5C 447.329,116.252 446.496,116.586 445.5,116.5 Z"/></g>
<g><path style="opacity:1" fill="#d1c7bc" d="M 266.5,67.5 C 263.167,67.5 259.833,67.5 256.5,67.5C 257.333,71.3461 258.333,75.1795 259.5,79C 259.415,80.1074 259.081,81.1074 258.5,82C 244.738,81.3884 231.405,78.8884 218.5,74.5C 231.419,77.385 244.419,79.5517 257.5,81C 258.022,80.4387 258.355,79.772 258.5,79C 256.449,75.0719 255.449,70.9052 255.5,66.5C 259.371,66.185 263.038,66.5184 266.5,67.5 Z"/></g>
<g><path style="opacity:1" fill="#0f0e0d" d="M 165.5,80.5 C 166.5,80.5 167.5,80.5 168.5,80.5C 168.226,82.9806 166.893,84.6473 164.5,85.5C 162.078,84.9148 160.411,83.4148 159.5,81C 161.473,80.5045 163.473,80.3379 165.5,80.5 Z"/></g>
<g><path style="opacity:1" fill="#161514" d="M 440.5,80.5 C 442.028,80.5173 442.528,81.184 442,82.5C 440.871,84.1412 439.371,85.1412 437.5,85.5C 435.277,84.8855 433.611,83.5522 432.5,81.5C 435.086,80.52 437.753,80.1866 440.5,80.5 Z"/></g>
<g><path style="opacity:1" fill="#f4ece3" d="M 151.5,94.5 C 139.965,102.62 138.631,112.12 147.5,123C 136.279,130.438 124.946,137.605 113.5,144.5C 111.801,144.34 110.134,144.506 108.5,145C 104.359,147.558 100.025,148.725 95.5,148.5C 97.3799,145.909 99.3799,143.409 101.5,141C 108.992,135.42 116.659,130.087 124.5,125C 129.249,120.922 133.249,116.255 136.5,111C 131.489,110.612 126.489,110.778 121.5,111.5C 121.351,110.448 121.517,109.448 122,108.5C 131.233,102.634 141.066,97.9676 151.5,94.5 Z"/></g>
<g><path style="opacity:1" fill="#f5ece3" d="M 452.5,96.5 C 452.56,95.9569 452.893,95.6236 453.5,95.5C 460.208,98.2359 466.874,101.069 473.5,104C 476.311,105.644 478.644,107.81 480.5,110.5C 479,110.833 477.5,111.167 476,111.5C 472.448,110.65 468.948,110.65 465.5,111.5C 474.14,122.306 484.473,131.139 496.5,138C 500.541,141.185 503.541,145.019 505.5,149.5C 499.601,147.422 493.601,145.755 487.5,144.5C 476.528,137.344 465.528,130.177 454.5,123C 463.002,113.376 462.335,104.543 452.5,96.5 Z"/></g>
<g><path style="opacity:1" fill="#e1d1be" d="M 491.5,509.5 C 491.961,511.55 492.628,513.55 493.5,515.5C 492.667,515.833 491.833,516.167 491,516.5C 482.872,514.019 475.372,510.352 468.5,505.5C 454.024,496.696 440.69,486.363 428.5,474.5C 427.624,464.994 426.624,455.494 425.5,446C 425.284,439.253 426.784,438.753 430,444.5C 433.939,457.428 438.106,470.262 442.5,483C 443.784,483.684 444.951,483.517 446,482.5C 446.084,449.504 440.917,417.337 430.5,386C 430.509,384.596 431.009,383.43 432,382.5C 438.154,388.318 443.154,394.985 447,402.5C 448.243,404.833 449.909,405.5 452,404.5C 446.587,363.912 431.253,327.579 406,295.5C 382.636,270.235 353.803,255.735 319.5,252C 245.656,244.32 193.822,274.153 164,341.5C 155.611,361 149.444,381.167 145.5,402C 145.516,405.17 146.849,406.003 149.5,404.5C 153.92,397.246 158.92,390.412 164.5,384C 165.448,383.517 166.448,383.351 167.5,383.5C 162.717,401.973 158.55,420.64 155,439.5C 152.984,453.782 151.984,468.115 152,482.5C 153.333,483.833 154.667,483.833 156,482.5C 160.535,469.229 164.868,455.895 169,442.5C 172.451,439.743 173.951,440.743 173.5,445.5C 171.443,456.4 170.11,467.4 169.5,478.5C 157.71,488.633 145.377,497.966 132.5,506.5C 124.968,510.932 116.968,514.265 108.5,516.5C 108.878,514.079 109.545,511.746 110.5,509.5C 123.131,471.18 130.964,431.846 134,391.5C 135.005,362.051 137.338,332.718 141,303.5C 144.206,285.344 148.04,267.344 152.5,249.5C 151.448,249.351 150.448,249.517 149.5,250C 147.326,253.37 144.326,255.203 140.5,255.5C 140.309,250.101 140.809,244.767 142,239.5C 146.806,224.392 152.306,209.558 158.5,195C 158.667,192.5 157.5,191.333 155,191.5C 152.178,192.275 149.344,192.942 146.5,193.5C 148.017,187.802 151.017,182.968 155.5,179C 166.076,171.461 176.909,164.294 188,157.5C 189.422,154.97 189.755,152.303 189,149.5C 186.595,147.597 184.761,145.264 183.5,142.5C 188.341,136.41 194.674,132.91 202.5,132C 213.572,130.485 224.572,128.652 235.5,126.5C 236.521,125.998 236.688,125.332 236,124.5C 232.505,121.838 229.338,118.838 226.5,115.5C 227.667,115.167 228.833,114.833 230,114.5C 238.99,115.623 247.823,117.456 256.5,120C 259.817,120.498 263.15,120.665 266.5,120.5C 266.428,116.374 265.761,112.374 264.5,108.5C 270.635,109.367 276.635,110.867 282.5,113C 288.038,115.898 293.538,118.731 299,121.5C 305.908,117.63 313.075,114.13 320.5,111C 324.722,109.554 329.055,108.72 333.5,108.5C 332.833,112.5 332.167,116.5 331.5,120.5C 344.793,118.376 358.127,116.376 371.5,114.5C 371.719,115.675 371.386,116.675 370.5,117.5C 367.391,119.475 364.557,121.808 362,124.5C 361.383,125.449 361.549,126.282 362.5,127C 373.454,128.82 384.454,130.486 395.5,132C 401.512,133.558 407.179,135.891 412.5,139C 413.804,139.804 414.471,140.971 414.5,142.5C 413.272,145.238 411.438,147.571 409,149.5C 408.333,151.5 408.333,153.5 409,155.5C 410.5,157 412,158.5 413.5,160C 423.173,165.501 432.506,171.501 441.5,178C 447.011,181.876 450.344,187.043 451.5,193.5C 447.854,192.717 444.188,192.55 440.5,193C 439.941,193.725 439.608,194.558 439.5,195.5C 445.155,208.631 450.322,221.965 455,235.5C 457.043,242.012 457.876,248.678 457.5,255.5C 453.853,255.378 451.019,253.712 449,250.5C 454.082,270.569 458.415,290.903 462,311.5C 464.668,348.535 467.668,385.535 471,422.5C 474.847,452.222 481.681,481.222 491.5,509.5 Z"/></g>
<g><path style="opacity:1" fill="#cec5ba" d="M 161.5,101.5 C 159.238,103.574 156.738,105.574 154,107.5C 153.333,109.5 153.333,111.5 154,113.5C 161.431,118.568 162.265,124.402 156.5,131C 154.183,133.157 151.516,134.657 148.5,135.5C 151.476,132.698 154.642,130.031 158,127.5C 160,124.833 160,122.167 158,119.5C 148.664,111.506 149.831,105.506 161.5,101.5 Z"/></g>
<g><path style="opacity:1" fill="#ccc4bb" d="M 445.5,116.5 C 444.29,118.552 443.29,120.718 442.5,123C 442.625,124.627 443.125,126.127 444,127.5C 453.972,134.893 464.139,141.893 474.5,148.5C 463.295,142.979 452.795,136.312 443,128.5C 440.379,123.622 441.213,119.622 445.5,116.5 Z"/></g>
<g><path style="opacity:1" fill="#cfc6bb" d="M 138.5,141.5 C 129.541,147.662 120.875,154.329 112.5,161.5C 108.534,165.456 105.867,170.123 104.5,175.5C 103.402,174.399 103.235,173.066 104,171.5C 112.258,157.74 123.758,147.74 138.5,141.5 Z"/></g>
<g><path style="opacity:1" fill="#f4ece3" d="M 507.5,170.5 C 514.236,174.882 518.569,180.882 520.5,188.5C 517.984,188.245 515.65,187.411 513.5,186C 510.664,184.609 508.331,182.776 506.5,180.5C 507.051,177.193 507.384,173.86 507.5,170.5 Z"/></g>
<g><path style="opacity:1" fill="#f4ece3" d="M 93.5,170.5 C 93.414,174.319 94.0807,177.985 95.5,181.5C 91.0745,184.379 86.4079,186.713 81.5,188.5C 81.372,186.345 81.872,184.345 83,182.5C 86.3651,178.307 89.8651,174.307 93.5,170.5 Z"/></g>
<g><path style="opacity:1" fill="#100f0f" d="M 359.5,212.5 C 361.709,217.381 365.043,221.381 369.5,224.5C 378.171,231.667 387.004,238.667 396,245.5C 396.49,246.793 396.657,248.127 396.5,249.5C 393.99,249.946 391.99,249.28 390.5,247.5C 382.66,239.44 372.993,235.773 361.5,236.5C 352.91,234.026 344.244,231.859 335.5,230C 334.483,228.951 334.316,227.784 335,226.5C 337.086,223.906 339.586,221.906 342.5,220.5C 346.387,217.728 349.054,214.061 350.5,209.5C 353.24,203.109 355.074,196.442 356,189.5C 356.953,187.408 358.286,187.075 360,188.5C 360.53,194.405 360.03,200.238 358.5,206C 358.788,208.187 359.122,210.354 359.5,212.5 Z"/></g>
<g><path style="opacity:1" fill="#0e0e0d" d="M 246.5,195.5 C 246.75,201.593 248.75,206.926 252.5,211.5C 256.167,215.5 259.833,219.5 263.5,223.5C 263.859,225.371 264.859,226.871 266.5,228C 262.687,228.923 259.021,230.09 255.5,231.5C 246.428,235.821 236.761,238.321 226.5,239C 222.697,240.655 219.03,242.489 215.5,244.5C 212.607,246.114 209.607,247.447 206.5,248.5C 207.203,246.127 208.536,244.127 210.5,242.5C 212.296,240.1 214.63,238.433 217.5,237.5C 225.79,232.21 232.79,225.544 238.5,217.5C 240.955,214.253 242.621,210.586 243.5,206.5C 242.326,201.158 241.492,195.825 241,190.5C 242.143,187.085 243.81,186.751 246,189.5C 246.495,191.473 246.662,193.473 246.5,195.5 Z"/></g>
<g><path style="opacity:1" fill="#44423d" d="M 246.5,195.5 C 248.278,200.825 250.278,206.158 252.5,211.5C 248.75,206.926 246.75,201.593 246.5,195.5 Z"/></g>
<g><path style="opacity:1" fill="#46433f" d="M 350.5,209.5 C 349.054,214.061 346.387,217.728 342.5,220.5C 344.925,216.648 347.591,212.981 350.5,209.5 Z"/></g>
<g><path style="opacity:1" fill="#4b4742" d="M 359.5,212.5 C 363.203,216.202 366.537,220.202 369.5,224.5C 365.043,221.381 361.709,217.381 359.5,212.5 Z"/></g>
<g><path style="opacity:1" fill="#4c4944" d="M 263.5,223.5 C 268.174,225.805 268.508,228.472 264.5,231.5C 261.526,230.423 258.526,230.423 255.5,231.5C 259.021,230.09 262.687,228.923 266.5,228C 264.859,226.871 263.859,225.371 263.5,223.5 Z"/></g>
<g><path style="opacity:1" fill="#47443f" d="M 238.5,217.5 C 232.79,225.544 225.79,232.21 217.5,237.5C 224.474,230.861 231.474,224.194 238.5,217.5 Z"/></g>
<g><path style="opacity:1" fill="#4b4843" d="M 361.5,236.5 C 372.993,235.773 382.66,239.44 390.5,247.5C 386.222,245.023 381.888,242.523 377.5,240C 371.963,239.153 366.63,237.987 361.5,236.5 Z"/></g>
<g><path style="opacity:1" fill="#f4ece3" d="M 96.5,182.5 C 99.1386,184.156 101.805,185.822 104.5,187.5C 98.1057,202.849 92.6057,218.516 88,234.5C 85.7146,243.967 86.0479,253.3 89,262.5C 93.6116,267.681 98.9449,268.681 105,265.5C 102.634,285.393 98.967,305.059 94,324.5C 93.0165,330.705 93.6831,336.705 96,342.5C 100.221,346.923 105.387,348.59 111.5,347.5C 111.474,355.859 110.974,364.193 110,372.5C 108.174,381.46 106.674,390.46 105.5,399.5C 104.833,399.5 104.167,399.5 103.5,399.5C 103.35,394.199 101.683,389.533 98.5,385.5C 95.9808,390.38 93.6474,395.38 91.5,400.5C 90.3687,401.604 89.5354,401.271 89,399.5C 88.8351,387.648 89.3351,375.815 90.5,364C 90.452,357.132 89.952,350.298 89,343.5C 88.9024,341.381 88.0691,339.714 86.5,338.5C 84.314,342.198 81.6473,345.532 78.5,348.5C 76.9873,346.465 76.3207,344.131 76.5,341.5C 77.2652,330.345 78.9319,319.345 81.5,308.5C 83.4308,298.26 83.9308,287.927 83,277.5C 81.927,276.72 80.7604,276.887 79.5,278C 78.0155,281.665 75.3488,283.498 71.5,283.5C 71.3947,279.313 72.228,275.313 74,271.5C 82.0954,256.53 86.5954,240.53 87.5,223.5C 82.9405,224.538 79.2739,227.038 76.5,231C 75.552,231.483 74.552,231.649 73.5,231.5C 73.3398,229.801 73.5065,228.134 74,226.5C 77.6679,218.49 82.3346,211.156 88,204.5C 92.1236,197.624 94.9569,190.29 96.5,182.5 Z"/></g>
<g><path style="opacity:1" fill="#f5ede4" d="M 504.5,183.5 C 507.006,190.193 509.839,196.86 513,203.5C 520.53,211.563 525.697,220.896 528.5,231.5C 527.448,231.649 526.448,231.483 525.5,231C 522.422,227.474 518.756,224.974 514.5,223.5C 515.673,233.212 517.173,242.879 519,252.5C 523.809,261.616 527.642,271.116 530.5,281C 530.612,282.662 529.946,283.829 528.5,284.5C 525.5,281.833 522.5,279.167 519.5,276.5C 518.226,287.689 518.559,298.689 520.5,309.5C 524.249,322.432 525.082,335.432 523,348.5C 520.257,345.346 517.757,342.012 515.5,338.5C 513.931,339.714 513.098,341.381 513,343.5C 511.37,350.743 510.537,358.076 510.5,365.5C 512.321,376.418 513.154,387.418 513,398.5C 512.716,400.886 511.716,401.552 510,400.5C 508.425,395.09 506.092,390.09 503,385.5C 499.87,390.723 498.037,396.389 497.5,402.5C 497.167,402.5 496.833,402.5 496.5,402.5C 494.735,389.839 492.902,377.172 491,364.5C 490.501,358.843 490.334,353.176 490.5,347.5C 502.682,348.595 508.682,343.095 508.5,331C 504.081,310.298 500.081,289.465 496.5,268.5C 496.833,267.833 497.167,267.167 497.5,266.5C 506.723,268.974 512.557,265.641 515,256.5C 515.788,249.444 515.455,242.444 514,235.5C 509.453,219.024 503.619,203.024 496.5,187.5C 498.942,185.874 501.609,184.541 504.5,183.5 Z"/></g>
<g><path style="opacity:1" fill="#4b4843" d="M 210.5,242.5 C 208.536,244.127 207.203,246.127 206.5,248.5C 209.607,247.447 212.607,246.114 215.5,244.5C 213.077,248.103 209.744,249.603 205.5,249C 204.289,247.887 204.289,246.72 205.5,245.5C 206.94,244.048 208.606,243.048 210.5,242.5 Z"/></g>
<g><path style="opacity:1" fill="#cab8a2" d="M 428.5,474.5 C 429.966,491.182 429.8,507.848 428,524.5C 427.683,526.301 427.016,526.634 426,525.5C 423.942,516.255 421.442,507.255 418.5,498.5C 418.181,494.864 417.015,491.531 415,488.5C 412.968,490.768 411.635,490.102 411,486.5C 403.391,464.787 398.724,442.454 397,419.5C 396.089,396.162 395.089,372.829 394,349.5C 393.053,322.092 381.553,300.592 359.5,285C 342.916,276.581 326.916,274.414 311.5,278.5C 303.158,278.541 294.825,278.541 286.5,278.5C 284.003,276.879 280.003,275.879 274.5,275.5C 239.511,277.328 217.011,294.995 207,328.5C 205.72,335.795 204.72,343.128 204,350.5C 203.214,379.557 201.548,408.557 199,437.5C 196.325,456.209 191.492,474.209 184.5,491.5C 184.719,490.325 184.386,489.325 183.5,488.5C 182.416,489.665 181.583,490.998 181,492.5C 177.826,503.865 174.66,515.198 171.5,526.5C 170.808,525.975 170.308,525.308 170,524.5C 168.284,509.166 168.117,493.832 169.5,478.5C 170.11,467.4 171.443,456.4 173.5,445.5C 173.951,440.743 172.451,439.743 169,442.5C 164.868,455.895 160.535,469.229 156,482.5C 154.667,483.833 153.333,483.833 152,482.5C 151.984,468.115 152.984,453.782 155,439.5C 158.55,420.64 162.717,401.973 167.5,383.5C 166.448,383.351 165.448,383.517 164.5,384C 158.92,390.412 153.92,397.246 149.5,404.5C 146.849,406.003 145.516,405.17 145.5,402C 149.444,381.167 155.611,361 164,341.5C 193.822,274.153 245.656,244.32 319.5,252C 353.803,255.735 382.636,270.235 406,295.5C 431.253,327.579 446.587,363.912 452,404.5C 449.909,405.5 448.243,404.833 447,402.5C 443.154,394.985 438.154,388.318 432,382.5C 431.009,383.43 430.509,384.596 430.5,386C 440.917,417.337 446.084,449.504 446,482.5C 444.951,483.517 443.784,483.684 442.5,483C 438.106,470.262 433.939,457.428 430,444.5C 426.784,438.753 425.284,439.253 425.5,446C 426.624,455.494 427.624,464.994 428.5,474.5 Z"/></g>
<g><path style="opacity:1" fill="#d0c6bb" d="M 488.5,249.5 C 486.482,257 485.982,264.667 487,272.5C 488.567,281.5 490.067,290.5 491.5,299.5C 486.428,284.361 484.595,268.694 486,252.5C 486.377,251.058 487.21,250.058 488.5,249.5 Z"/></g>
<g><path style="opacity:1" fill="#2f2d2c" d="M 341.5,290.5 C 347.216,296.276 349.882,303.276 349.5,311.5C 346.385,327.465 337.385,338.965 322.5,346C 316.325,348.627 309.991,350.794 303.5,352.5C 301.575,360.051 301.075,367.718 302,375.5C 302.116,378.932 303.283,381.932 305.5,384.5C 317.42,386.99 329.42,388.99 341.5,390.5C 343.956,391.122 345.623,392.622 346.5,395C 346.252,396.749 345.252,397.582 343.5,397.5C 328.473,395.762 313.473,393.762 298.5,391.5C 284.141,393.705 269.807,396.039 255.5,398.5C 253.182,398.182 251.848,396.848 251.5,394.5C 252.57,392.46 254.237,391.126 256.5,390.5C 267.83,388.704 279.163,386.87 290.5,385C 293.473,382.552 294.973,379.386 295,375.5C 295.667,370.5 295.667,365.5 295,360.5C 294.853,357.429 294.02,354.596 292.5,352C 274.147,348.285 260.314,338.451 251,322.5C 249.69,318.93 248.857,315.263 248.5,311.5C 248.564,307.78 249.064,304.114 250,300.5C 251.604,296.952 253.437,293.618 255.5,290.5C 266.102,287.013 276.936,286.68 288,289.5C 295.169,288.189 302.336,288.189 309.5,289.5C 320.389,286.747 331.055,287.08 341.5,290.5 Z"/></g>
<g><path style="opacity:1" fill="#f2e6d7" d="M 255.5,290.5 C 253.437,293.618 251.604,296.952 250,300.5C 249.064,304.114 248.564,307.78 248.5,311.5C 246.526,313.428 245.026,315.761 244,318.5C 243.333,324.833 243.333,331.167 244,337.5C 247.384,355.367 251.55,373.034 256.5,390.5C 254.237,391.126 252.57,392.46 251.5,394.5C 251.848,396.848 253.182,398.182 255.5,398.5C 256.919,399.451 258.585,399.784 260.5,399.5C 267.627,424.063 269.794,449.063 267,474.5C 265.542,486.002 262.375,497.002 257.5,507.5C 256.998,508.521 256.332,508.688 255.5,508C 254.252,503.253 252.418,498.753 250,494.5C 246.767,502.636 242.267,509.969 236.5,516.5C 235.895,511.423 235.062,506.423 234,501.5C 229.091,509.079 223.425,516.079 217,522.5C 216.601,522.272 216.435,521.938 216.5,521.5C 219.226,516.934 220.559,511.934 220.5,506.5C 220.559,503.31 220.893,500.143 221.5,497C 221.563,494.123 220.563,493.289 218.5,494.5C 219.946,488.443 219.779,482.443 218,476.5C 214.19,471.917 209.524,470.584 204,472.5C 206.47,460.269 208.803,447.936 211,435.5C 212.87,409.198 214.203,382.864 215,356.5C 214.182,333.655 222.016,314.489 238.5,299C 243.642,295.096 249.309,292.262 255.5,290.5 Z"/></g>
<g><path style="opacity:1" fill="#f2e6d7" d="M 341.5,290.5 C 360.454,296.622 372.954,309.288 379,328.5C 381.36,338.022 382.694,347.688 383,357.5C 383.76,383.867 385.093,410.2 387,436.5C 389.235,448.176 391.402,459.842 393.5,471.5C 383.327,470.674 378.327,475.341 378.5,485.5C 378.724,488.855 379.057,492.188 379.5,495.5C 378.849,494.909 378.182,494.243 377.5,493.5C 377.167,494.833 376.833,496.167 376.5,497.5C 378.041,506.319 379.875,514.985 382,523.5C 375.24,516.581 369.073,509.248 363.5,501.5C 362.833,506.5 362.167,511.5 361.5,516.5C 355.734,509.973 351.234,502.639 348,494.5C 345.572,499.025 343.405,503.691 341.5,508.5C 337.937,503.313 335.437,497.647 334,491.5C 326.948,460.212 328.448,429.379 338.5,399C 340.382,398.802 342.048,398.302 343.5,397.5C 345.252,397.582 346.252,396.749 346.5,395C 345.623,392.622 343.956,391.122 341.5,390.5C 346.607,372.738 350.773,354.738 354,336.5C 354.667,330.833 354.667,325.167 354,319.5C 353.246,316.316 351.746,313.649 349.5,311.5C 349.882,303.276 347.216,296.276 341.5,290.5 Z"/></g>
<g><path style="opacity:1" fill="#c8b6a0" d="M 248.5,311.5 C 248.857,315.263 249.69,318.93 251,322.5C 260.314,338.451 274.147,348.285 292.5,352C 294.02,354.596 294.853,357.429 295,360.5C 295.667,365.5 295.667,370.5 295,375.5C 294.973,379.386 293.473,382.552 290.5,385C 279.163,386.87 267.83,388.704 256.5,390.5C 251.55,373.034 247.384,355.367 244,337.5C 243.333,331.167 243.333,324.833 244,318.5C 245.026,315.761 246.526,313.428 248.5,311.5 Z"/></g>
<g><path style="opacity:1" fill="#c8b6a0" d="M 349.5,311.5 C 351.746,313.649 353.246,316.316 354,319.5C 354.667,325.167 354.667,330.833 354,336.5C 350.773,354.738 346.607,372.738 341.5,390.5C 329.42,388.99 317.42,386.99 305.5,384.5C 303.283,381.932 302.116,378.932 302,375.5C 301.075,367.718 301.575,360.051 303.5,352.5C 309.991,350.794 316.325,348.627 322.5,346C 337.385,338.965 346.385,327.465 349.5,311.5 Z"/></g>
<g><path style="opacity:1" fill="#d5c9bb" d="M 492.5,336.5 C 489.282,335.308 486.115,333.975 483,332.5C 482,333.167 481,333.833 480,334.5C 479.871,349.881 480.704,365.214 482.5,380.5C 481.883,380.389 481.383,380.056 481,379.5C 479.446,364.194 478.779,348.861 479,333.5C 484.174,330.981 488.674,331.981 492.5,336.5 Z"/></g>
<g><path style="opacity:1" fill="#d9ccbd" d="M 286.5,278.5 C 245.538,274.389 219.371,292.056 208,331.5C 204.526,357.038 202.859,382.705 203,408.5C 201.829,440.83 195.163,471.83 183,501.5C 191.386,496.121 198.886,489.621 205.5,482C 206.793,481.51 208.127,481.343 209.5,481.5C 208.559,491.247 207.392,500.913 206,510.5C 207.11,508.963 208.61,508.297 210.5,508.5C 210.84,510.548 210.507,511.548 209.5,511.5C 209.103,510.475 208.437,510.308 207.5,511C 206,512.5 204.5,514 203,515.5C 203.335,511.143 204.169,506.81 205.5,502.5C 205.333,501.833 205.167,501.167 205,500.5C 203.385,501.386 201.885,502.386 200.5,503.5C 201.375,497.353 202.541,491.353 204,485.5C 198.941,492.113 192.774,497.446 185.5,501.5C 184.509,505.445 184.176,509.445 184.5,513.5C 183.791,514.404 182.791,514.737 181.5,514.5C 181.299,511.272 181.633,508.105 182.5,505C 181.833,504 181.167,503 180.5,502C 181.938,498.515 183.272,495.015 184.5,491.5C 191.492,474.209 196.325,456.209 199,437.5C 201.548,408.557 203.214,379.557 204,350.5C 204.72,343.128 205.72,335.795 207,328.5C 217.011,294.995 239.511,277.328 274.5,275.5C 280.003,275.879 284.003,276.879 286.5,278.5 Z"/></g>
<g><path style="opacity:1" fill="#c9b7a1" d="M 343.5,397.5 C 342.048,398.302 340.382,398.802 338.5,399C 328.448,429.379 326.948,460.212 334,491.5C 335.437,497.647 337.937,503.313 341.5,508.5C 343.405,503.691 345.572,499.025 348,494.5C 351.234,502.639 355.734,509.973 361.5,516.5C 362.167,511.5 362.833,506.5 363.5,501.5C 369.073,509.248 375.24,516.581 382,523.5C 379.875,514.985 378.041,506.319 376.5,497.5C 376.833,496.167 377.167,494.833 377.5,493.5C 378.182,494.243 378.849,494.909 379.5,495.5C 381.418,504.008 383.418,512.508 385.5,521C 382.985,528.947 381.485,537.113 381,545.5C 379.853,546.458 378.853,546.125 378,544.5C 376.074,535.274 373.408,526.274 370,517.5C 369.179,532.783 365.179,547.117 358,560.5C 356.14,556.382 354.807,552.048 354,547.5C 352.087,545.044 350.421,545.378 349,548.5C 347.39,553.331 345.39,557.997 343,562.5C 340.81,565.249 339.143,564.915 338,561.5C 337.977,547.491 338.477,533.491 339.5,519.5C 337.549,519.227 336.049,519.893 335,521.5C 331.387,536.672 326.387,551.339 320,565.5C 316.383,570.115 312.717,570.448 309,566.5C 307,555.833 305,545.167 303,534.5C 302.55,532.481 301.717,530.648 300.5,529C 299.365,528.251 298.365,528.417 297.5,529.5C 295.837,532.656 294.67,535.989 294,539.5C 292.503,547.474 291.17,555.474 290,563.5C 289.011,569.503 285.845,571.003 280.5,568C 278.044,565.592 276.211,562.759 275,559.5C 270.123,546.037 265.956,532.37 262.5,518.5C 261.167,518.5 259.833,518.5 258.5,518.5C 259.942,532.804 260.442,547.137 260,561.5C 258.857,564.915 257.19,565.249 255,562.5C 253.01,556.33 250.176,550.663 246.5,545.5C 245.522,545.977 244.689,546.643 244,547.5C 244.035,552.344 242.702,556.677 240,560.5C 234.735,549.371 231.069,537.705 229,525.5C 224.737,531.611 221.57,538.278 219.5,545.5C 218.833,546.833 218.167,546.833 217.5,545.5C 216.698,539.155 215.698,532.822 214.5,526.5C 214.436,524.443 215.102,522.777 216.5,521.5C 216.435,521.938 216.601,522.272 217,522.5C 223.425,516.079 229.091,509.079 234,501.5C 235.062,506.423 235.895,511.423 236.5,516.5C 242.267,509.969 246.767,502.636 250,494.5C 252.418,498.753 254.252,503.253 255.5,508C 256.332,508.688 256.998,508.521 257.5,507.5C 262.375,497.002 265.542,486.002 267,474.5C 269.794,449.063 267.627,424.063 260.5,399.5C 258.585,399.784 256.919,399.451 255.5,398.5C 269.807,396.039 284.141,393.705 298.5,391.5C 313.473,393.762 328.473,395.762 343.5,397.5 Z"/></g>
<g><path style="opacity:1" fill="#43413e" d="M 103.5,399.5 C 104.167,399.5 104.833,399.5 105.5,399.5C 105.493,419.43 104.826,419.43 103.5,399.5 Z"/></g>
<g><path style="opacity:1" fill="#797571" d="M 496.5,402.5 C 496.833,402.5 497.167,402.5 497.5,402.5C 497.875,405.397 497.375,408.063 496,410.5C 496.083,407.881 496.25,405.214 496.5,402.5 Z"/></g>
<g><path style="opacity:1" fill="#dec29e" d="M 428.5,474.5 C 440.69,486.363 454.024,496.696 468.5,505.5C 471.666,519.489 474.5,533.489 477,547.5C 471.333,543.167 466.333,538.167 462,532.5C 455.836,524.175 450.169,515.508 445,506.5C 443.912,508.288 443.412,510.288 443.5,512.5C 445.116,529.299 448.783,545.632 454.5,561.5C 453.998,562.521 453.332,562.688 452.5,562C 440.148,549.655 429.314,536.155 420,521.5C 419.333,522.833 418.667,524.167 418,525.5C 417.832,533.853 417.332,542.187 416.5,550.5C 413.792,548.734 411.792,546.401 410.5,543.5C 411.546,533.123 412.546,522.79 413.5,512.5C 415.588,513.939 417.921,514.606 420.5,514.5C 419.399,509.227 418.733,503.894 418.5,498.5C 421.442,507.255 423.942,516.255 426,525.5C 427.016,526.634 427.683,526.301 428,524.5C 429.8,507.848 429.966,491.182 428.5,474.5 Z"/></g>
<g><path style="opacity:1" fill="#ddc19e" d="M 169.5,478.5 C 168.117,493.832 168.284,509.166 170,524.5C 170.308,525.308 170.808,525.975 171.5,526.5C 174.66,515.198 177.826,503.865 181,492.5C 181.583,490.998 182.416,489.665 183.5,488.5C 184.386,489.325 184.719,490.325 184.5,491.5C 183.272,495.015 181.938,498.515 180.5,502C 181.167,503 181.833,504 182.5,505C 181.633,508.105 181.299,511.272 181.5,514.5C 182.791,514.737 183.791,514.404 184.5,513.5C 185.954,524.68 187.287,536.014 188.5,547.5C 187.735,548.66 186.735,549.66 185.5,550.5C 184.668,542.521 184.168,534.521 184,526.5C 183.64,524.579 182.806,522.912 181.5,521.5C 172.367,536.637 161.367,550.303 148.5,562.5C 148.167,562 147.833,561.5 147.5,561C 151.685,548.759 154.852,536.259 157,523.5C 157.83,517.804 157.663,512.137 156.5,506.5C 148.456,522.276 137.789,535.943 124.5,547.5C 124.167,547.167 123.833,546.833 123.5,546.5C 127.451,533.366 130.451,520.032 132.5,506.5C 145.377,497.966 157.71,488.633 169.5,478.5 Z"/></g>
<g><path style="opacity:1" fill="#c9b7a1" d="M 200.5,503.5 C 198.318,514.246 197.318,524.912 197.5,535.5C 196.203,541.778 195.036,548.111 194,554.5C 193,555.833 192,555.833 191,554.5C 190.302,551.996 189.469,549.663 188.5,547.5C 187.287,536.014 185.954,524.68 184.5,513.5C 184.176,509.445 184.509,505.445 185.5,501.5C 192.774,497.446 198.941,492.113 204,485.5C 202.541,491.353 201.375,497.353 200.5,503.5 Z"/></g>
<g><path style="opacity:1" fill="#c8b6a1" d="M 413.5,512.5 C 412.546,522.79 411.546,533.123 410.5,543.5C 409.368,546.628 408.535,549.962 408,553.5C 407.035,555.26 405.868,555.594 404.5,554.5C 403.029,545.407 401.362,536.407 399.5,527.5C 400.331,518.123 399.331,508.79 396.5,499.5C 396.292,495.378 395.792,491.378 395,487.5C 400.377,492.767 406.21,497.434 412.5,501.5C 413.489,505.107 413.823,508.774 413.5,512.5 Z"/></g>
<g><path style="opacity:1" fill="#dacdbd" d="M 418.5,498.5 C 418.733,503.894 419.399,509.227 420.5,514.5C 417.921,514.606 415.588,513.939 413.5,512.5C 413.823,508.774 413.489,505.107 412.5,501.5C 406.21,497.434 400.377,492.767 395,487.5C 395.792,491.378 396.292,495.378 396.5,499.5C 394.537,498.04 392.704,496.373 391,494.5C 392.082,501.001 393.582,507.501 395.5,514C 395.43,514.765 395.097,515.265 394.5,515.5C 390.852,504.58 388.852,493.246 388.5,481.5C 389.873,481.343 391.207,481.51 392.5,482C 399.063,489.562 406.563,496.062 415,501.5C 402.873,472.548 396.206,442.215 395,410.5C 394.777,388.462 393.777,366.462 392,344.5C 385.645,297.298 358.812,275.298 311.5,278.5C 326.916,274.414 342.916,276.581 359.5,285C 381.553,300.592 393.053,322.092 394,349.5C 395.089,372.829 396.089,396.162 397,419.5C 398.724,442.454 403.391,464.787 411,486.5C 411.635,490.102 412.968,490.768 415,488.5C 417.015,491.531 418.181,494.864 418.5,498.5 Z"/></g>
<g><path style="opacity:1" fill="#c3b39f" d="M 220.5,506.5 C 217.519,502.977 216.852,498.977 218.5,494.5C 220.563,493.289 221.563,494.123 221.5,497C 220.893,500.143 220.559,503.31 220.5,506.5 Z"/></g>
<g><path style="opacity:1" fill="#e0c4a1" d="M 396.5,499.5 C 399.331,508.79 400.331,518.123 399.5,527.5C 397.284,523.734 395.617,519.734 394.5,515.5C 395.097,515.265 395.43,514.765 395.5,514C 393.582,507.501 392.082,501.001 391,494.5C 392.704,496.373 394.537,498.04 396.5,499.5 Z"/></g>
<g><path style="opacity:1" fill="#ddc19f" d="M 209.5,511.5 C 206.587,519.992 202.587,527.992 197.5,535.5C 197.318,524.912 198.318,514.246 200.5,503.5C 201.885,502.386 203.385,501.386 205,500.5C 205.167,501.167 205.333,501.833 205.5,502.5C 204.169,506.81 203.335,511.143 203,515.5C 204.5,514 206,512.5 207.5,511C 208.437,510.308 209.103,510.475 209.5,511.5 Z"/></g>
</svg>
