<?xml version="1.0" encoding="UTF-8"?>
<!DOCTYPE svg PUBLIC "-//W3C//DTD SVG 1.1//EN" "http://www.w3.org/Graphics/SVG/1.1/DTD/svg11.dtd">
<svg xmlns="http://www.w3.org/2000/svg" version="1.1" width="600px" height="600px" style="shape-rendering:geometricPrecision; text-rendering:geometricPrecision; image-rendering:optimizeQuality; fill-rule:evenodd; clip-rule:evenodd" xmlns:xlink="http://www.w3.org/1999/xlink">
<g><path style="opacity:0.954" fill="#020100" d="M 599.5,206.5 C 599.5,226.833 599.5,247.167 599.5,267.5C 586.415,304.683 566.915,338.016 541,367.5C 527.991,382.183 512.491,393.35 494.5,401C 458.754,413.372 439.754,400.872 437.5,363.5C 439.421,347.134 441.255,330.8 443,314.5C 431.531,349.241 419.864,383.907 408,418.5C 402.141,445.602 395.808,472.602 389,499.5C 378.003,528.258 357.17,544.425 326.5,548C 307.833,548.667 289.167,548.667 270.5,548C 230.534,542.039 208.367,519.205 204,479.5C 198.469,456.376 192.469,433.376 186,410.5C 176.667,383.167 167.333,355.833 158,328.5C 159.159,340.452 160.326,352.452 161.5,364.5C 161.484,395.658 146.151,408.825 115.5,404C 100.008,400.421 86.3414,393.421 74.5,383C 53.2515,363.756 35.7515,341.589 22,316.5C 13.3557,300.554 5.85574,284.221 -0.5,267.5C -0.5,247.167 -0.5,226.833 -0.5,206.5C 2.81514,200.553 6.64848,194.887 11,189.5C 48.5877,150.554 90.7543,117.721 137.5,91C 159.634,78.3998 183.301,70.3998 208.5,67C 250.693,51.7141 294.026,47.3807 338.5,54C 355.377,56.3084 371.711,60.6417 387.5,67C 401.899,68.0995 415.899,71.0995 429.5,76C 457.381,87.5999 483.381,102.267 507.5,120C 533.907,138.811 558.74,159.644 582,182.5C 588.857,189.841 594.69,197.841 599.5,206.5 Z"/></g>
<g><path style="opacity:1" fill="#ae7b3c" d="M 388.5,78.5 C 406.663,94.158 422.496,111.825 436,131.5C 450.031,156.411 457.198,183.078 457.5,211.5C 457.089,218.212 456.256,224.879 455,231.5C 446.047,268.978 435.38,305.978 423,342.5C 414.268,366.695 405.935,391.028 398,415.5C 391.758,444.047 384.758,472.381 377,500.5C 366.925,521.895 350.091,534.061 326.5,537C 307.833,537.667 289.167,537.667 270.5,537C 235.852,531.683 217.018,511.516 214,476.5C 208.206,453.451 202.206,430.451 196,407.5C 176.26,353.613 158.927,298.947 144,243.5C 142.415,237.239 141.249,230.906 140.5,224.5C 139.839,186.32 150.006,151.32 171,119.5C 183.693,105.31 196.526,91.3098 209.5,77.5C 237.889,66.3231 267.389,60.9898 298,61.5C 329.35,61.2373 359.517,66.904 388.5,78.5 Z"/></g>
<g><path style="opacity:1" fill="#905d2d" d="M 209.5,77.5 C 196.526,91.3098 183.693,105.31 171,119.5C 150.006,151.32 139.839,186.32 140.5,224.5C 139.34,236.66 139.173,248.993 140,261.5C 142.398,291.274 145.731,320.94 150,350.5C 154.995,393.438 137.828,405.605 98.5,387C 81.5042,376.675 67.0042,363.508 55,347.5C 32.8889,318.614 16.5556,286.614 6,251.5C 0.71391,231.929 4.38058,214.262 17,198.5C 60.3985,152.433 110.565,115.6 167.5,88C 180.871,81.9907 194.871,78.4907 209.5,77.5 Z"/></g>
<g><path style="opacity:1" fill="#905d2d" d="M 388.5,78.5 C 401.659,78.5263 414.325,81.0263 426.5,86C 456.404,99.278 484.404,115.611 510.5,135C 534.142,152.298 556.309,171.465 577,192.5C 586.142,202.116 592.142,213.449 595,226.5C 595.802,234.943 595.135,243.276 593,251.5C 581.964,288.242 564.631,321.576 541,351.5C 527.41,368.435 510.91,381.602 491.5,391C 480.57,395.145 469.57,395.479 458.5,392C 452.893,387.531 449.727,381.698 449,374.5C 448.333,366.833 448.333,359.167 449,351.5C 454.945,313.886 458.445,276.052 459.5,238C 459.498,228.807 458.832,219.974 457.5,211.5C 457.198,183.078 450.031,156.411 436,131.5C 422.496,111.825 406.663,94.158 388.5,78.5 Z"/></g>
<g><path style="opacity:1" fill="#030203" d="M 208.5,228.5 C 228.078,226.025 240.912,234.025 247,252.5C 249.298,272.418 240.798,284.918 221.5,290C 202.412,291.577 190.579,283.077 186,264.5C 184.652,246.844 192.152,234.844 208.5,228.5 Z"/></g>
<g><path style="opacity:1" fill="#030203" d="M 372.5,228.5 C 395.138,226.614 407.805,236.781 410.5,259C 409.493,278.341 399.326,288.841 380,290.5C 361.084,288.75 350.584,278.417 348.5,259.5C 349.786,243.89 357.786,233.556 372.5,228.5 Z"/></g>
<g><path style="opacity:1" fill="#e8e8e8" d="M 225.5,242.5 C 234.141,243.433 236.808,247.766 233.5,255.5C 226.737,260.129 222.07,258.462 219.5,250.5C 220.406,246.938 222.406,244.272 225.5,242.5 Z"/></g>
<g><path style="opacity:1" fill="#e9e9e9" d="M 389.5,242.5 C 397.687,243.54 400.187,247.873 397,255.5C 390.057,260.446 385.557,258.779 383.5,250.5C 383.654,246.357 385.654,243.691 389.5,242.5 Z"/></g>
<g><path style="opacity:1" fill="#372f2c" d="M 287.5,432.5 C 305.63,430.46 322.297,434.293 337.5,444C 351.788,460.427 354.288,478.594 345,498.5C 333.13,513.182 317.63,520.515 298.5,520.5C 272.336,520.525 254.502,508.525 245,484.5C 243.643,454.365 257.81,437.032 287.5,432.5 Z"/></g>
</svg>
