<?xml version="1.0" encoding="UTF-8"?>
<!DOCTYPE svg PUBLIC "-//W3C//DTD SVG 1.1//EN" "http://www.w3.org/Graphics/SVG/1.1/DTD/svg11.dtd">
<svg xmlns="http://www.w3.org/2000/svg" version="1.1" width="600px" height="600px" style="shape-rendering:geometricPrecision; text-rendering:geometricPrecision; image-rendering:optimizeQuality; fill-rule:evenodd; clip-rule:evenodd" xmlns:xlink="http://www.w3.org/1999/xlink">
<g><path style="opacity:0.966" fill="#020202" d="M 599.5,369.5 C 599.5,380.833 599.5,392.167 599.5,403.5C 597.883,412.944 597.049,422.611 597,432.5C 596.603,444.967 591.269,454.634 581,461.5C 577.078,468.342 573.412,475.342 570,482.5C 567.203,486.299 564.036,489.799 560.5,493C 540.047,499.928 519.38,506.261 498.5,512C 494.095,512.696 489.761,512.363 485.5,511C 480.053,509.11 474.72,506.943 469.5,504.5C 465.248,514.482 458.915,522.982 450.5,530C 447.533,531.7 444.367,532.867 441,533.5C 433.444,542.869 423.611,548.536 411.5,550.5C 406.621,550.199 402.287,548.532 398.5,545.5C 386.694,556.408 373.027,564.242 357.5,569C 318.593,578.927 279.593,578.927 240.5,569C 223.765,564.405 209.098,556.239 196.5,544.5C 189.3,550.73 181.634,551.564 173.5,547C 165.684,544.501 159.684,539.834 155.5,533C 147.027,531.168 140.193,526.668 135,519.5C 131.888,514.931 129.055,510.265 126.5,505.5C 118.487,510.452 109.82,512.619 100.5,512C 80.3587,506.397 60.3587,500.397 40.5,494C 37.3699,491.872 34.5366,489.372 32,486.5C 27.1582,478.819 22.8249,470.819 19,462.5C 16.3953,458.94 13.2286,455.94 9.5,453.5C 7.50136,451.507 6.00136,449.173 5,446.5C 2.4946,431.769 0.661262,417.102 -0.5,402.5C -0.5,391.5 -0.5,380.5 -0.5,369.5C 5.15955,357.815 6.82622,345.482 4.5,332.5C 5.07585,326.272 6.57585,320.272 9,314.5C 13.9391,304.955 18.6058,295.289 23,285.5C 23.4348,278.326 24.7681,271.326 27,264.5C 34.4146,251.335 42.0813,238.335 50,225.5C 51.0993,217.768 53.4327,210.434 57,203.5C 66.3333,193.5 75.6667,183.5 85,173.5C 87.4223,169.495 89.0889,165.162 90,160.5C 92.0836,156.664 94.417,152.997 97,149.5C 107.598,140.233 118.765,131.733 130.5,124C 133.373,120.423 135.873,116.589 138,112.5C 140.921,108.908 144.421,106.075 148.5,104C 152.008,98.1613 157.008,94.1613 163.5,92C 171.343,89.3725 179.343,87.3725 187.5,86C 191.286,84.6074 194.952,82.9407 198.5,81C 194.964,77.7988 191.797,74.2988 189,70.5C 185.837,56.962 191.337,49.462 205.5,48C 201.189,40.5669 202.189,33.9003 208.5,28C 213.631,25.9561 218.631,26.2895 223.5,29C 234.682,34.6807 244.515,42.1807 253,51.5C 254.193,46.233 256.693,41.733 260.5,38C 268.572,35.3082 274.405,37.8082 278,45.5C 278.403,40.5539 279.736,35.8873 282,31.5C 288.958,25.9253 295.291,26.592 301,33.5C 304.39,40.3359 307.39,47.3359 310,54.5C 312.79,46.467 315.79,38.467 319,30.5C 325.688,22.1141 333.021,21.4474 341,28.5C 342.197,31.0891 343.197,33.7558 344,36.5C 350.254,31.1224 357.421,27.4558 365.5,25.5C 377.795,28.6301 381.129,35.9634 375.5,47.5C 380.874,48.7871 385.707,51.1205 390,54.5C 393.407,59.5419 393.907,64.7086 391.5,70C 394.015,73.3623 396.015,77.029 397.5,81C 406.618,85.6974 416.285,88.6974 426.5,90C 429.993,90.9419 433.326,92.2752 436.5,94C 442.156,98.4962 448.156,102.496 454.5,106C 460.874,112.706 466.874,119.706 472.5,127C 483.479,133.744 493.645,141.577 503,150.5C 505.248,153.328 507.248,156.328 509,159.5C 509.749,164.5 511.416,169.167 514,173.5C 524.011,182.845 533.344,192.845 542,203.5C 545.692,209.257 547.692,215.591 548,222.5C 556,236.5 564,250.5 572,264.5C 574.39,272.023 576.057,279.69 577,287.5C 583.138,298.778 588.472,310.445 593,322.5C 593.824,325.785 594.324,329.118 594.5,332.5C 592.492,345.427 594.159,357.761 599.5,369.5 Z"/></g>
<g><path style="opacity:1" fill="#52453f" d="M 436.5,107.5 C 436.649,108.552 436.483,109.552 436,110.5C 428.242,117.102 428.742,122.935 437.5,128C 450.167,135.333 462.833,142.667 475.5,150C 487.626,160.801 485.626,164.801 469.5,162C 468.484,162.519 467.818,163.353 467.5,164.5C 472.331,174.828 477.164,185.162 482,195.5C 485.693,203.886 488.526,212.553 490.5,221.5C 490.336,229.088 487.669,230.254 482.5,225C 478.402,223.853 474.902,224.686 472,227.5C 471.963,236.916 472.963,246.25 475,255.5C 478.523,265.426 481.023,275.593 482.5,286C 482.665,288.917 481.998,291.583 480.5,294C 479.101,294.595 477.768,294.428 476.5,293.5C 472.857,296.063 469.357,295.73 466,292.5C 462.147,296.983 461.48,301.983 464,307.5C 467.061,314.621 470.394,321.621 474,328.5C 474.667,331.167 474.667,333.833 474,336.5C 471.218,341.582 470.718,346.915 472.5,352.5C 471.5,352.5 470.5,352.5 469.5,352.5C 470.208,361.495 470.375,370.495 470,379.5C 469.378,383.612 468.378,387.612 467,391.5C 465.867,393.211 464.367,393.711 462.5,393C 458.964,389.799 455.797,386.299 453,382.5C 452.802,384.382 452.302,386.048 451.5,387.5C 448.34,378.514 444.507,369.848 440,361.5C 435.333,354.167 430.667,346.833 426,339.5C 414.414,327.243 402.247,315.743 389.5,305C 369.927,293.085 348.594,285.418 325.5,282C 316.334,281.111 307.167,280.278 298,279.5C 280.843,279.996 264.01,282.163 247.5,286C 238.562,288.809 229.895,292.143 221.5,296C 183.998,316.979 157.998,347.479 143.5,387.5C 142.71,386.391 142.21,385.058 142,383.5C 139.128,386.037 136.628,388.87 134.5,392C 132.956,393.187 131.289,393.52 129.5,393C 124.297,382.194 123.297,371.027 126.5,359.5C 126.054,355.67 125.054,352.004 123.5,348.5C 123.63,346.625 123.963,344.792 124.5,343C 122.737,339.645 121.404,336.145 120.5,332.5C 123.515,323.471 127.348,314.804 132,306.5C 132.667,303.167 132.667,299.833 132,296.5C 131.653,294.82 130.653,293.82 129,293.5C 125.727,295.872 122.56,295.872 119.5,293.5C 115.23,295.647 112.897,294.48 112.5,290C 117.156,268.888 120.99,247.722 124,226.5C 123.204,224.033 121.537,222.7 119,222.5C 115.041,224.316 111.375,226.65 108,229.5C 105.09,227.738 103.924,225.071 104.5,221.5C 105.349,213.784 107.516,206.451 111,199.5C 115.219,189.394 120.219,179.727 126,170.5C 126.667,167.833 126.667,165.167 126,162.5C 125.107,161.919 124.107,161.585 123,161.5C 119.979,163.038 116.812,163.538 113.5,163C 112.409,160.936 112.242,158.769 113,156.5C 116.251,152.578 120.084,149.412 124.5,147C 135.5,140.667 146.5,134.333 157.5,128C 162.546,125.656 165.046,121.823 165,116.5C 162.969,113.645 160.803,110.978 158.5,108.5C 160.83,104.817 164.163,102.317 168.5,101C 184.725,98.7593 199.725,93.2593 213.5,84.5C 212.352,82.8513 211.019,81.3513 209.5,80C 210.624,79.7508 211.624,79.2508 212.5,78.5C 207.22,74.7225 202.386,70.3892 198,65.5C 197.37,63.0966 198.203,61.2633 200.5,60C 207.104,58.5942 213.104,59.9276 218.5,64C 224.531,69.6941 231.364,74.1941 239,77.5C 239.5,77.1667 240,76.8333 240.5,76.5C 233.146,68.314 225.98,59.9807 219,51.5C 216.316,47.1368 214.482,42.4701 213.5,37.5C 220.117,38.9748 226.117,41.8081 231.5,46C 239.537,53.7055 247.87,61.0388 256.5,68C 258.367,68.7112 259.867,68.2112 261,66.5C 261.498,63.5184 261.665,60.5184 261.5,57.5C 262.822,57.33 263.989,57.6634 265,58.5C 265.175,54.789 265.675,51.1224 266.5,47.5C 271.076,53.6415 274.91,60.3082 278,67.5C 279.852,71.0767 282.518,72.0767 286,70.5C 286.499,64.8431 286.666,59.1764 286.5,53.5C 287.5,53.5 288.5,53.5 289.5,53.5C 289.173,48.456 289.506,43.456 290.5,38.5C 290.833,38.6667 291.167,38.8333 291.5,39C 295.849,47.6957 300.016,56.529 304,65.5C 310.675,71.6525 315.675,70.3192 319,61.5C 321.72,52.004 325.22,42.8374 329.5,34C 332.645,33.8765 333.978,35.5432 333.5,39C 332.073,46.519 330.906,54.019 330,61.5C 338.544,53.9545 347.377,46.7878 356.5,40C 359.822,37.6683 363.489,36.5016 367.5,36.5C 367.299,41.5308 365.466,45.8642 362,49.5C 355.167,57.6667 348.333,65.8333 341.5,74C 342.833,74.6667 344.167,74.6667 345.5,74C 353.5,69.3333 361.5,64.6667 369.5,60C 373.9,59.0223 378.067,59.5223 382,61.5C 382.667,62.8333 382.667,64.1667 382,65.5C 377.52,70.311 372.687,74.811 367.5,79C 373.528,79.1697 379.528,79.6697 385.5,80.5C 384.5,82.1667 383.167,83.5 381.5,84.5C 395.571,93.4686 410.905,98.9686 427.5,101C 430.961,102.643 433.961,104.81 436.5,107.5 Z"/></g>
<g><path style="opacity:1" fill="#322620" d="M 436.5,107.5 C 445.751,111.252 452.585,117.586 457,126.5C 465.682,135.084 475.182,142.584 485.5,149C 494.961,155.418 500.794,164.251 503,175.5C 510.932,185.435 519.599,194.768 529,203.5C 535.147,210.64 538.481,218.973 539,228.5C 546.667,241.5 554.333,254.5 562,267.5C 563.74,276.194 565.74,284.861 568,293.5C 573.272,303.711 578.272,314.044 583,324.5C 583.189,332.508 583.189,340.508 583,348.5C 586.72,361.547 589.887,374.714 592.5,388C 591.729,393.376 590.229,398.542 588,403.5C 587.27,416.92 585.937,430.253 584,443.5C 580.419,447.15 576.752,450.816 573,454.5C 568.172,464.159 562.839,473.492 557,482.5C 555.745,483.211 554.579,484.044 553.5,485C 538.246,488.791 523.246,493.457 508.5,499C 501.967,501.109 495.3,501.776 488.5,501C 483.062,498.633 477.562,496.466 472,494.5C 471.686,466.373 468.019,438.706 461,411.5C 458.642,403.128 455.476,395.128 451.5,387.5C 452.302,386.048 452.802,384.382 453,382.5C 455.797,386.299 458.964,389.799 462.5,393C 464.367,393.711 465.867,393.211 467,391.5C 468.378,387.612 469.378,383.612 470,379.5C 470.375,370.495 470.208,361.495 469.5,352.5C 470.5,352.5 471.5,352.5 472.5,352.5C 470.718,346.915 471.218,341.582 474,336.5C 474.667,333.833 474.667,331.167 474,328.5C 470.394,321.621 467.061,314.621 464,307.5C 461.48,301.983 462.147,296.983 466,292.5C 469.357,295.73 472.857,296.063 476.5,293.5C 477.768,294.428 479.101,294.595 480.5,294C 481.998,291.583 482.665,288.917 482.5,286C 481.023,275.593 478.523,265.426 475,255.5C 472.963,246.25 471.963,236.916 472,227.5C 474.902,224.686 478.402,223.853 482.5,225C 487.669,230.254 490.336,229.088 490.5,221.5C 488.526,212.553 485.693,203.886 482,195.5C 477.164,185.162 472.331,174.828 467.5,164.5C 467.818,163.353 468.484,162.519 469.5,162C 485.626,164.801 487.626,160.801 475.5,150C 462.833,142.667 450.167,135.333 437.5,128C 428.742,122.935 428.242,117.102 436,110.5C 436.483,109.552 436.649,108.552 436.5,107.5 Z"/></g>
<g><path style="opacity:1" fill="#322620" d="M 158.5,108.5 C 160.803,110.978 162.969,113.645 165,116.5C 165.046,121.823 162.546,125.656 157.5,128C 146.5,134.333 135.5,140.667 124.5,147C 120.084,149.412 116.251,152.578 113,156.5C 112.242,158.769 112.409,160.936 113.5,163C 116.812,163.538 119.979,163.038 123,161.5C 124.107,161.585 125.107,161.919 126,162.5C 126.667,165.167 126.667,167.833 126,170.5C 120.219,179.727 115.219,189.394 111,199.5C 107.516,206.451 105.349,213.784 104.5,221.5C 103.924,225.071 105.09,227.738 108,229.5C 111.375,226.65 115.041,224.316 119,222.5C 121.537,222.7 123.204,224.033 124,226.5C 120.99,247.722 117.156,268.888 112.5,290C 112.897,294.48 115.23,295.647 119.5,293.5C 122.56,295.872 125.727,295.872 129,293.5C 130.653,293.82 131.653,294.82 132,296.5C 132.667,299.833 132.667,303.167 132,306.5C 127.348,314.804 123.515,323.471 120.5,332.5C 121.404,336.145 122.737,339.645 124.5,343C 123.963,344.792 123.63,346.625 123.5,348.5C 125.054,352.004 126.054,355.67 126.5,359.5C 123.297,371.027 124.297,382.194 129.5,393C 131.289,393.52 132.956,393.187 134.5,392C 136.628,388.87 139.128,386.037 142,383.5C 142.21,385.058 142.71,386.391 143.5,387.5C 130.302,422.252 123.469,458.252 123,495.5C 113.875,501.511 104.041,503.011 93.5,500C 78.4064,494.524 63.0731,489.858 47.5,486C 44.7047,484.207 42.2047,482.04 40,479.5C 35.5868,471.005 30.9201,462.672 26,454.5C 21.9081,450.748 18.2414,446.748 15,442.5C 13.9635,439.247 13.2969,435.914 13,432.5C 12.6667,424.5 12.3333,416.5 12,408.5C 10.3084,401.62 8.47505,394.787 6.5,388C 9.46163,374.782 12.6283,361.616 16,348.5C 15.8472,340.84 15.8472,333.173 16,325.5C 20.4699,314.561 25.4699,303.895 31,293.5C 33.273,284.133 35.6063,274.799 38,265.5C 45.5852,253.332 52.9185,240.999 60,228.5C 61.0439,222.324 62.7106,216.324 65,210.5C 67.3333,207.5 69.6667,204.5 72,201.5C 82.1306,193.707 90.464,184.373 97,173.5C 97.7068,167.423 100.04,162.09 104,157.5C 113.204,149.151 123.037,141.651 133.5,135C 138.475,131.03 142.309,126.197 145,120.5C 149.175,115.878 153.675,111.878 158.5,108.5 Z"/></g>
<g><path style="opacity:1" fill="#261c15" d="M 236.5,216.5 C 238.39,216.297 239.89,216.963 241,218.5C 243.098,234.696 250.432,248.029 263,258.5C 263.779,260.906 262.946,262.573 260.5,263.5C 258.568,262.48 256.568,262.313 254.5,263C 242.235,267.853 229.568,271.186 216.5,273C 211.992,275.753 207.659,278.753 203.5,282C 198.907,284.532 196.907,283.365 197.5,278.5C 211.722,269.114 224.222,257.78 235,244.5C 236.872,241.795 237.705,238.795 237.5,235.5C 235.949,229.144 235.616,222.81 236.5,216.5 Z"/></g>
<g><path style="opacity:1" fill="#261c15" d="M 359.5,216.5 C 360.822,216.33 361.989,216.663 363,217.5C 363.424,223.724 362.924,229.891 361.5,236C 361.329,239.129 362.162,241.963 364,244.5C 374.828,258.001 387.495,269.334 402,278.5C 403.167,282.667 401.667,284.167 397.5,283C 392.135,278.316 386.135,274.65 379.5,272C 366.538,270.608 354.038,267.442 342,262.5C 337.788,264.274 335.788,262.941 336,258.5C 349.329,247.504 357.162,233.504 359.5,216.5 Z"/></g>
<g><path style="opacity:1" fill="#e2e2e2" d="M 330.5,293.5 C 338.127,295.595 345.794,297.928 353.5,300.5C 368.284,306.721 381.951,314.721 394.5,324.5C 399.5,330.167 404.833,335.5 410.5,340.5C 444.956,384.701 461.79,435.034 461,491.5C 459.049,504.742 452.549,515.076 441.5,522.5C 440.914,522.291 440.414,521.957 440,521.5C 438.902,511.706 437.235,502.039 435,492.5C 433.197,503.009 431.863,513.676 431,524.5C 430.941,527.822 429.774,530.656 427.5,533C 423.286,535.274 418.953,537.274 414.5,539C 411.412,539.847 408.579,539.347 406,537.5C 404.069,533.96 401.902,530.626 399.5,527.5C 390.532,539.998 378.865,549.165 364.5,555C 350.959,560.218 336.959,563.552 322.5,565C 306.167,565.667 289.833,565.667 273.5,565C 252.262,563.423 232.595,557.09 214.5,546C 207.287,540.288 200.953,533.788 195.5,526.5C 192.6,529.285 190.434,532.618 189,536.5C 187.53,538.152 185.697,539.152 183.5,539.5C 177.029,537.682 171.196,534.682 166,530.5C 165.08,527.899 164.413,525.232 164,522.5C 163.149,512.474 162.315,502.474 161.5,492.5C 160.998,491.479 160.332,491.312 159.5,492C 157.415,501.012 155.915,510.179 155,519.5C 154.612,520.428 153.945,521.095 153,521.5C 140.437,512.042 133.937,499.375 133.5,483.5C 135.974,435.582 150.141,391.582 176,351.5C 215.594,301.347 267.094,282.014 330.5,293.5 Z"/></g>
<g><path style="opacity:1" fill="#322e2c" d="M 330.5,293.5 C 339.014,293.538 346.681,295.871 353.5,300.5C 345.794,297.928 338.127,295.595 330.5,293.5 Z"/></g>
<g><path style="opacity:1" fill="#413b39" d="M 394.5,324.5 C 400.833,328.833 406.167,334.167 410.5,340.5C 404.833,335.5 399.5,330.167 394.5,324.5 Z"/></g>
<g><path style="opacity:1" fill="#010101" d="M 283.5,355.5 C 296.209,355.152 308.875,355.652 321.5,357C 343.744,361.349 352.577,374.515 348,396.5C 342.067,409.763 332.234,418.93 318.5,424C 293.017,431.841 271.85,425.341 255,404.5C 243.812,384.067 248.645,368.901 269.5,359C 274.224,357.506 278.891,356.339 283.5,355.5 Z"/></g>
<g><path style="opacity:1" fill="#050606" d="M 342.5,488.5 C 342.914,483.636 342.914,478.969 342.5,474.5C 325.579,471.608 308.579,470.608 291.5,471.5C 279.841,472.287 268.174,472.954 256.5,473.5C 256.5,478.5 256.5,483.5 256.5,488.5C 253.836,482.208 252.169,475.541 251.5,468.5C 251.8,465.421 253.133,462.921 255.5,461C 277.441,454.598 299.774,452.932 322.5,456C 330.145,456.662 337.479,458.495 344.5,461.5C 346.283,463.845 347.283,466.512 347.5,469.5C 346.898,476.246 345.232,482.58 342.5,488.5 Z"/></g>
<g><path style="opacity:1" fill="#f19da0" d="M 291.5,471.5 C 295.846,471.334 300.179,471.501 304.5,472C 306.116,472.615 307.449,473.615 308.5,475C 319.822,474.914 331.155,474.747 342.5,474.5C 342.914,478.969 342.914,483.636 342.5,488.5C 340.74,504.75 334.573,519.084 324,531.5C 316.032,537.233 307.199,540.9 297.5,542.5C 291.292,542.364 285.625,540.531 280.5,537C 269.863,530.344 263.03,520.844 260,508.5C 257.994,501.969 256.827,495.302 256.5,488.5C 256.5,483.5 256.5,478.5 256.5,473.5C 268.174,472.954 279.841,472.287 291.5,471.5 Z"/></g>
<g><path style="opacity:1" fill="#d78b8e" d="M 291.5,471.5 C 308.579,470.608 325.579,471.608 342.5,474.5C 331.155,474.747 319.822,474.914 308.5,475C 307.449,473.615 306.116,472.615 304.5,472C 300.179,471.501 295.846,471.334 291.5,471.5 Z"/></g>
</svg>
