<?xml version="1.0" encoding="UTF-8"?>
<!DOCTYPE svg PUBLIC "-//W3C//DTD SVG 1.1//EN" "http://www.w3.org/Graphics/SVG/1.1/DTD/svg11.dtd">
<svg xmlns="http://www.w3.org/2000/svg" version="1.1" width="600px" height="600px" style="shape-rendering:geometricPrecision; text-rendering:geometricPrecision; image-rendering:optimizeQuality; fill-rule:evenodd; clip-rule:evenodd" xmlns:xlink="http://www.w3.org/1999/xlink">
<g><path style="opacity:0.953" fill="#020101" d="M 599.5,412.5 C 599.5,423.5 599.5,434.5 599.5,445.5C 596.825,452.084 596.158,458.918 597.5,466C 596.686,472.753 596.186,479.586 596,486.5C 594.981,497.208 590.315,505.875 582,512.5C 577.452,523.929 572.118,534.929 566,545.5C 560.119,551.524 552.952,555.024 544.5,556C 529.495,563.39 513.829,568.89 497.5,572.5C 494.167,571.667 490.833,570.833 487.5,570C 471.5,563.333 455.5,556.667 439.5,550C 434.699,546.201 430.199,542.034 426,537.5C 423.255,531.675 420.255,526.008 417,520.5C 411.986,524.423 406.486,527.423 400.5,529.5C 397.72,528.805 395.053,527.805 392.5,526.5C 386.282,533.949 378.616,539.449 369.5,543C 351.716,549.614 333.716,555.614 315.5,561C 310.956,562.882 306.956,565.549 303.5,569C 301.341,569.912 299.175,570.745 297,571.5C 290.449,567.31 283.616,563.476 276.5,560C 257.484,554.661 238.817,548.328 220.5,541C 213.528,537.693 207.528,533.193 202.5,527.5C 200.5,528.167 198.5,528.833 196.5,529.5C 190.619,527.893 185.286,525.226 180.5,521.5C 176.748,527.336 173.248,533.336 170,539.5C 163.419,546.542 155.585,551.709 146.5,555C 134.742,558.361 123.409,562.695 112.5,568C 108.291,569.635 103.958,570.802 99.5,571.5C 91.2538,570.251 83.2538,568.085 75.5,565C 62.5321,559.011 49.1988,554.011 35.5,550C 32.2959,547.131 29.4626,543.965 27,540.5C 22.4733,531.252 18.1399,521.918 14,512.5C 6.42399,506.452 1.59065,498.785 -0.5,489.5C -0.5,459.167 -0.5,428.833 -0.5,398.5C 2.57331,388.462 3.23998,378.129 1.5,367.5C 1.69388,362.723 2.52721,358.057 4,353.5C 8.80409,340.754 13.8041,328.087 19,315.5C 19.3009,307.329 20.6342,299.329 23,291.5C 29.7905,276.586 37.1239,261.919 45,247.5C 46.2909,238.077 48.9576,229.077 53,220.5C 61.6667,209.833 70.3333,199.167 79,188.5C 81.6667,181.167 84.3333,173.833 87,166.5C 90.5863,160.909 94.9196,155.909 100,151.5C 100.759,148.215 102.092,145.215 104,142.5C 110.062,136.882 116.896,132.382 124.5,129C 129.172,118.492 136.505,110.325 146.5,104.5C 150.549,96.7948 156.883,91.9614 165.5,90C 175.36,88.1369 185.027,85.6369 194.5,82.5C 195.521,81.9984 195.688,81.3317 195,80.5C 184.615,72.2724 184.115,63.7724 193.5,55C 196.679,53.5387 200.012,52.7054 203.5,52.5C 200.013,36.8218 206.013,30.6551 221.5,34C 232.863,39.3431 243.196,46.1765 252.5,54.5C 254.417,51.2878 256.25,47.9545 258,44.5C 266.303,39.4508 272.969,41.1175 278,49.5C 278.834,45.3214 280.168,41.3214 282,37.5C 288,32.1667 294,32.1667 300,37.5C 303.759,44.0178 307.259,50.6845 310.5,57.5C 313.227,50.8265 316.061,44.1599 319,37.5C 324.093,29.2573 330.926,27.4239 339.5,32C 341.821,34.8083 343.488,37.975 344.5,41.5C 351.073,36.5476 358.406,33.2143 366.5,31.5C 377.839,33.8435 381.672,40.5102 378,51.5C 387.045,52.7482 392.545,57.7482 394.5,66.5C 393.907,68.3817 393.24,70.2151 392.5,72C 395.062,74.2894 396.729,77.1228 397.5,80.5C 400.706,82.2695 404.039,83.7695 407.5,85C 417.369,86.573 427.035,88.9063 436.5,92C 443.538,98.6546 451.204,104.655 459.5,110C 465.288,115.077 469.455,121.244 472,128.5C 477.5,132 483,135.5 488.5,139C 491.825,141.823 493.992,145.323 495,149.5C 506.985,159.468 514.318,172.135 517,187.5C 523.955,196.79 531.288,205.79 539,214.5C 541.732,218.241 544.066,222.241 546,226.5C 547.575,233.86 549.241,241.194 551,248.5C 557.589,260.677 563.922,273.01 570,285.5C 573.72,295.151 575.72,305.151 576,315.5C 581.278,328.389 586.278,341.389 591,354.5C 592.103,358.949 592.936,363.449 593.5,368C 592.209,383.353 594.209,398.187 599.5,412.5 Z"/></g>
<g><path style="opacity:1" fill="#c19c6a" d="M 437.5,105.5 C 436.839,108.813 435.006,111.48 432,113.5C 431.333,115.167 431.333,116.833 432,118.5C 442.002,125.92 452.836,131.92 464.5,136.5C 469.947,139.44 475.28,142.607 480.5,146C 482.041,147.371 483.375,148.871 484.5,150.5C 484.5,151.833 484.5,153.167 484.5,154.5C 479.821,154.334 475.155,154.501 470.5,155C 469.941,155.725 469.608,156.558 469.5,157.5C 474.316,166.463 479.15,175.463 484,184.5C 487.963,193.056 491.13,201.889 493.5,211C 493.184,213.499 491.851,214.999 489.5,215.5C 487.203,214.351 484.87,213.185 482.5,212C 477.605,210.884 474.939,212.884 474.5,218C 478.074,234.215 481.741,250.381 485.5,266.5C 485.333,268.5 485.167,270.5 485,272.5C 479.51,275.692 473.843,276.025 468,273.5C 467.03,275.274 466.196,277.107 465.5,279C 468.653,287.14 472.487,294.974 477,302.5C 478.018,307.856 477.185,312.856 474.5,317.5C 475.302,320.449 475.636,323.449 475.5,326.5C 474.5,326.5 473.5,326.5 472.5,326.5C 473.718,338.078 472.385,349.412 468.5,360.5C 465.9,361.846 463.567,361.512 461.5,359.5C 452.979,347.641 442.312,338.308 429.5,331.5C 428.452,332.383 427.285,333.05 426,333.5C 424.336,331.201 422.669,328.868 421,326.5C 418.953,329.964 417.287,333.63 416,337.5C 415.586,337.043 415.086,336.709 414.5,336.5C 413.338,338.824 412.171,341.158 411,343.5C 408.037,341.539 405.371,339.206 403,336.5C 399.721,327.276 395.388,318.609 390,310.5C 388.211,308.771 386.044,308.104 383.5,308.5C 384.135,311.493 384.301,314.493 384,317.5C 380.512,320.462 377.845,319.795 376,315.5C 374.589,313.35 373.755,311.016 373.5,308.5C 372.5,308.5 371.5,308.5 370.5,308.5C 370.245,305.984 369.411,303.65 368,301.5C 351.319,284.08 330.819,274.58 306.5,273C 289.982,271.732 273.982,274.065 258.5,280C 250.807,283.713 243.141,287.38 235.5,291C 227.684,297.459 222.518,305.625 220,315.5C 218.833,316.667 217.667,317.833 216.5,319C 214.633,319.711 213.133,319.211 212,317.5C 212.108,313.843 212.108,310.177 212,306.5C 211.282,305.549 210.449,305.383 209.5,306C 202.318,315.192 196.818,325.359 193,336.5C 190.629,339.206 187.963,341.539 185,343.5C 182.619,339.032 180.619,334.365 179,329.5C 174.839,322.711 171.839,323.378 170,331.5C 167.936,330.409 165.769,330.242 163.5,331C 151.667,339 141.667,348.833 133.5,360.5C 131.516,361.694 129.516,361.694 127.5,360.5C 123.23,350.828 122.563,340.995 125.5,331C 125.369,328.747 124.869,326.581 124,324.5C 122.513,325.741 121.68,325.241 121.5,323C 121.887,321.177 122.221,319.343 122.5,317.5C 121.5,314.167 120.5,310.833 119.5,307.5C 121.837,300.491 125.004,293.824 129,287.5C 130.944,283.682 131.611,279.682 131,275.5C 129.758,274.128 128.258,273.128 126.5,272.5C 123.422,275.034 120.422,275.034 117.5,272.5C 113.559,274.437 111.226,273.271 110.5,269C 112.923,254.799 115.756,240.633 119,226.5C 122.173,221.977 123.173,216.977 122,211.5C 120.883,209.876 119.383,208.876 117.5,208.5C 113.833,210.5 110.167,212.5 106.5,214.5C 103.458,213.952 102.124,212.119 102.5,209C 106.51,193.148 113.343,178.648 123,165.5C 125.412,162.203 125.912,158.703 124.5,155C 120.081,155.097 115.747,154.931 111.5,154.5C 110.402,153.399 110.235,152.066 111,150.5C 117.24,144.43 124.407,139.763 132.5,136.5C 142.113,131.358 151.779,126.192 161.5,121C 165.873,116.32 165.206,112.487 159.5,109.5C 158.2,108.399 157.7,107.066 158,105.5C 159.731,103.383 161.898,101.883 164.5,101C 171.996,98.5837 179.662,96.917 187.5,96C 196.598,93.3024 205.264,89.6357 213.5,85C 211.697,84.3632 210.364,83.1965 209.5,81.5C 210.025,80.8076 210.692,80.3076 211.5,80C 206.729,76.8625 202.229,73.3625 198,69.5C 196.86,66.4718 197.694,64.3051 200.5,63C 203.5,62.3333 206.5,62.3333 209.5,63C 218.405,67.5681 227.072,72.5681 235.5,78C 237.167,78.6667 238.833,78.6667 240.5,78C 230.556,69.0613 221.722,59.228 214,48.5C 213.187,46.5643 212.687,44.5643 212.5,42.5C 217.454,43.4726 222.121,45.3059 226.5,48C 236.072,54.2358 245.072,61.2358 253.5,69C 255.677,70.2022 258.011,70.7022 260.5,70.5C 260.335,67.4816 260.502,64.4816 261,61.5C 262.533,61.0563 264.033,60.723 265.5,60.5C 264.025,57.3529 264.192,54.3529 266,51.5C 270.831,57.8256 275.165,64.4923 279,71.5C 281.167,73.4644 283.501,73.7978 286,72.5C 286.499,67.5111 286.666,62.5111 286.5,57.5C 287.5,57.5 288.5,57.5 289.5,57.5C 289.063,52.6386 289.563,47.9719 291,43.5C 296.19,51.8797 300.857,60.5464 305,69.5C 309.294,73.601 313.294,73.2676 317,68.5C 320.908,61.5324 323.908,54.1991 326,46.5C 326.883,43.8976 328.383,41.7309 330.5,40C 331.449,39.3828 332.282,39.5494 333,40.5C 333.167,41.8333 333.333,43.1667 333.5,44.5C 332.658,51.2325 331.825,57.8992 331,64.5C 340.893,56.4681 351.393,49.3014 362.5,43C 364.473,42.5045 366.473,42.3379 368.5,42.5C 368.365,46.4383 366.865,49.7717 364,52.5C 357.017,60.3173 349.85,67.984 342.5,75.5C 343.723,76.6139 345.056,76.7805 346.5,76C 354.5,71.6667 362.5,67.3333 370.5,63C 374.866,62.1145 379.033,62.6145 383,64.5C 383.667,65.8333 383.667,67.1667 383,68.5C 378.454,72.7139 373.621,76.5473 368.5,80C 374.528,80.1697 380.528,80.6697 386.5,81.5C 385.636,83.1965 384.303,84.3632 382.5,85C 396.693,93.3975 412.026,98.3975 428.5,100C 432.181,100.872 435.181,102.706 437.5,105.5 Z"/></g>
<g><path style="opacity:1" fill="#9b7949" d="M 159.5,109.5 C 165.206,112.487 165.873,116.32 161.5,121C 151.779,126.192 142.113,131.358 132.5,136.5C 137.83,123.837 146.83,114.837 159.5,109.5 Z"/></g>
<g><path style="opacity:1" fill="#9b7949" d="M 437.5,105.5 C 438.161,106.718 438.828,108.051 439.5,109.5C 451.673,115.004 460.006,124.004 464.5,136.5C 452.836,131.92 442.002,125.92 432,118.5C 431.333,116.833 431.333,115.167 432,113.5C 435.006,111.48 436.839,108.813 437.5,105.5 Z"/></g>
<g><path style="opacity:1" fill="#9c7a49" d="M 111.5,154.5 C 115.747,154.931 120.081,155.097 124.5,155C 125.912,158.703 125.412,162.203 123,165.5C 113.343,178.648 106.51,193.148 102.5,209C 102.124,212.119 103.458,213.952 106.5,214.5C 110.167,212.5 113.833,210.5 117.5,208.5C 119.383,208.876 120.883,209.876 122,211.5C 123.173,216.977 122.173,221.977 119,226.5C 115.756,240.633 112.923,254.799 110.5,269C 111.226,273.271 113.559,274.437 117.5,272.5C 120.422,275.034 123.422,275.034 126.5,272.5C 128.258,273.128 129.758,274.128 131,275.5C 131.611,279.682 130.944,283.682 129,287.5C 125.004,293.824 121.837,300.491 119.5,307.5C 120.5,310.833 121.5,314.167 122.5,317.5C 122.221,319.343 121.887,321.177 121.5,323C 121.68,325.241 122.513,325.741 124,324.5C 124.869,326.581 125.369,328.747 125.5,331C 122.563,340.995 123.23,350.828 127.5,360.5C 129.516,361.694 131.516,361.694 133.5,360.5C 128.159,369.315 123.659,378.649 120,388.5C 119.333,392.167 119.333,395.833 120,399.5C 124.35,416.622 127.017,433.955 128,451.5C 126.667,450.167 125.333,448.833 124,447.5C 124.805,454.304 128.639,457.47 135.5,457C 140.394,453.065 144.228,448.231 147,442.5C 147.853,440.875 148.853,440.542 150,441.5C 150.223,449.162 150.057,456.829 149.5,464.5C 148.164,472.656 150.331,479.656 156,485.5C 163.062,492.73 170.229,499.73 177.5,506.5C 172.095,514.428 167.262,522.761 163,531.5C 157.581,537.59 151.081,542.09 143.5,545C 129.97,548.597 116.97,553.597 104.5,560C 100.5,560.667 96.5,560.667 92.5,560C 79.3892,555.278 66.3892,550.278 53.5,545C 45.9938,544.832 40.1605,541.665 36,535.5C 31.3333,525.5 26.6667,515.5 22,505.5C 19,502.5 16,499.5 13,496.5C 12.0266,494.608 11.3599,492.608 11,490.5C 9.24872,476.223 8.24872,461.89 8,447.5C 5.62213,442.412 4.12213,437.078 3.5,431.5C 6.00662,417.467 8.83995,403.467 12,389.5C 12.6755,382.482 12.5088,375.482 11.5,368.5C 11.8916,365.151 12.3916,361.817 13,358.5C 18.1373,344.754 23.4706,331.088 29,317.5C 29.5727,308.604 31.2393,299.937 34,291.5C 39.8089,279.215 46.1422,267.215 53,255.5C 56.0155,247.756 58.0155,239.756 59,231.5C 61.6057,226.565 64.6057,221.898 68,217.5C 75.4201,210.084 82.0868,202.084 88,193.5C 90.9436,187.065 93.277,180.399 95,173.5C 99.9627,166.704 105.463,160.37 111.5,154.5 Z"/></g>
<g><path style="opacity:1" fill="#9c7a49" d="M 484.5,150.5 C 485.302,151.952 485.802,153.618 486,155.5C 491.034,160.199 495.7,165.199 500,170.5C 503.086,177.689 505.752,185.022 508,192.5C 517.717,204.55 527.051,216.883 536,229.5C 537.677,237.587 539.677,245.587 542,253.5C 548.093,266.021 554.427,278.354 561,290.5C 563.476,300.397 565.476,310.397 567,320.5C 572.278,333.389 577.278,346.389 582,359.5C 582.102,367.504 582.102,375.504 582,383.5C 585.167,399.503 588.334,415.503 591.5,431.5C 590.298,437.572 588.798,443.572 587,449.5C 586.234,461.828 585.567,474.161 585,486.5C 584.466,490.768 583.133,494.768 581,498.5C 577.667,500.5 575,503.167 573,506.5C 568.667,516.167 564.333,525.833 560,535.5C 558.38,537.241 556.88,539.075 555.5,541C 541.519,545.489 527.852,550.823 514.5,557C 508.958,558.969 503.292,560.469 497.5,561.5C 483.121,555.317 468.455,549.817 453.5,545C 440.872,539.704 432.372,530.537 428,517.5C 425.39,513.258 422.557,509.258 419.5,505.5C 429.546,496.954 438.379,487.287 446,476.5C 446.222,464.827 446.222,453.16 446,441.5C 447.147,440.542 448.147,440.875 449,442.5C 451.261,447.749 454.595,452.082 459,455.5C 463.444,454.218 465.778,451.218 466,446.5C 469.804,429.582 473.304,412.582 476.5,395.5C 476.034,390.335 474.867,385.335 473,380.5C 469.65,373.125 465.817,366.125 461.5,359.5C 463.567,361.512 465.9,361.846 468.5,360.5C 472.385,349.412 473.718,338.078 472.5,326.5C 473.5,326.5 474.5,326.5 475.5,326.5C 475.636,323.449 475.302,320.449 474.5,317.5C 477.185,312.856 478.018,307.856 477,302.5C 472.487,294.974 468.653,287.14 465.5,279C 466.196,277.107 467.03,275.274 468,273.5C 473.843,276.025 479.51,275.692 485,272.5C 485.167,270.5 485.333,268.5 485.5,266.5C 481.741,250.381 478.074,234.215 474.5,218C 474.939,212.884 477.605,210.884 482.5,212C 484.87,213.185 487.203,214.351 489.5,215.5C 491.851,214.999 493.184,213.499 493.5,211C 491.13,201.889 487.963,193.056 484,184.5C 479.15,175.463 474.316,166.463 469.5,157.5C 469.608,156.558 469.941,155.725 470.5,155C 475.155,154.501 479.821,154.334 484.5,154.5C 484.5,153.167 484.5,151.833 484.5,150.5 Z"/></g>
<g><path style="opacity:1" fill="#b38648" d="M 402.5,213.5 C 391.437,208.48 380.103,204.48 368.5,201.5C 367.411,199.883 365.744,199.05 363.5,199C 353.512,197.89 343.512,196.89 333.5,196C 328.25,194.748 324.083,191.914 321,187.5C 319.826,174.354 325.659,166.187 338.5,163C 370.069,162.954 397.735,173.287 421.5,194C 420.833,194.333 420.167,194.667 419.5,195C 428.417,201.915 435.917,210.082 442,219.5C 444.762,224.829 443.429,228.496 438,230.5C 427.307,224.567 416.473,218.734 405.5,213C 404.251,212.26 403.251,212.427 402.5,213.5 Z"/></g>
<g><path style="opacity:1" fill="#b38649" d="M 225.5,202.5 C 213.747,204.012 202.414,207.012 191.5,211.5C 191.083,210.876 190.416,210.543 189.5,210.5C 177.115,215.777 164.948,221.444 153,227.5C 147.339,225.63 146.006,221.963 149,216.5C 152.167,212.667 155.333,208.833 158.5,205C 158.167,204.667 157.833,204.333 157.5,204C 183.44,177.911 214.773,164.911 251.5,165C 265.913,167.216 272.579,175.383 271.5,189.5C 269.635,193.043 266.968,195.876 263.5,198C 253.225,199.233 242.892,199.9 232.5,200C 229.639,199.97 227.305,200.803 225.5,202.5 Z"/></g>
<g><path style="opacity:1" fill="#010100" d="M 225.5,202.5 C 239.395,208.615 245.229,219.282 243,234.5C 237.04,252.901 224.54,260.067 205.5,256C 190.298,249.434 184.132,237.934 187,221.5C 188.24,218.022 189.74,214.689 191.5,211.5C 202.414,207.012 213.747,204.012 225.5,202.5 Z"/></g>
<g><path style="opacity:1" fill="#010100" d="M 368.5,201.5 C 380.103,204.48 391.437,208.48 402.5,213.5C 410.999,234.509 404.665,249.009 383.5,257C 363.282,258.456 351.616,249.123 348.5,229C 349.46,215.546 356.127,206.379 368.5,201.5 Z"/></g>
<g><path style="opacity:1" fill="#efefef" d="M 218.5,213.5 C 224.967,213.806 227.467,217.139 226,223.5C 221.132,227.911 217.132,227.244 214,221.5C 213.533,217.785 215.033,215.119 218.5,213.5 Z"/></g>
<g><path style="opacity:1" fill="#f1f1f1" d="M 381.5,213.5 C 388.369,213.538 390.869,216.871 389,223.5C 385.333,227.5 381.667,227.5 378,223.5C 376.581,219.082 377.748,215.749 381.5,213.5 Z"/></g>
<g><path style="opacity:1" fill="#b38648" d="M 461.5,359.5 C 465.817,366.125 469.65,373.125 473,380.5C 474.867,385.335 476.034,390.335 476.5,395.5C 473.304,412.582 469.804,429.582 466,446.5C 465.778,451.218 463.444,454.218 459,455.5C 454.595,452.082 451.261,447.749 449,442.5C 448.147,440.875 447.147,440.542 446,441.5C 446.222,453.16 446.222,464.827 446,476.5C 438.379,487.287 429.546,496.954 419.5,505.5C 413.716,510.565 407.383,514.898 400.5,518.5C 399.522,518.023 398.689,517.357 398,516.5C 397.101,511.236 395.435,506.236 393,501.5C 390.291,500.294 388.625,501.294 388,504.5C 387.779,515.115 383.279,523.282 374.5,529C 354.406,537.92 333.739,545.254 312.5,551C 306.824,553.167 301.824,556.334 297.5,560.5C 294.18,557.506 290.513,555.006 286.5,553C 270.226,547.514 253.893,542.181 237.5,537C 228.138,533.572 219.638,528.739 212,522.5C 209.381,516.023 207.381,509.357 206,502.5C 203.211,499.871 201.211,500.538 200,504.5C 199.089,507.311 198.256,510.144 197.5,513C 197.759,514.261 198.426,515.261 199.5,516C 198.91,517.299 197.91,518.132 196.5,518.5C 189.639,515.3 183.306,511.3 177.5,506.5C 170.229,499.73 163.062,492.73 156,485.5C 150.331,479.656 148.164,472.656 149.5,464.5C 150.057,456.829 150.223,449.162 150,441.5C 148.853,440.542 147.853,440.875 147,442.5C 144.228,448.231 140.394,453.065 135.5,457C 128.639,457.47 124.805,454.304 124,447.5C 125.333,448.833 126.667,450.167 128,451.5C 127.017,433.955 124.35,416.622 120,399.5C 119.333,395.833 119.333,392.167 120,388.5C 123.659,378.649 128.159,369.315 133.5,360.5C 141.667,348.833 151.667,339 163.5,331C 165.769,330.242 167.936,330.409 170,331.5C 171.839,323.378 174.839,322.711 179,329.5C 180.619,334.365 182.619,339.032 185,343.5C 187.963,341.539 190.629,339.206 193,336.5C 196.818,325.359 202.318,315.192 209.5,306C 210.449,305.383 211.282,305.549 212,306.5C 212.108,310.177 212.108,313.843 212,317.5C 213.133,319.211 214.633,319.711 216.5,319C 217.667,317.833 218.833,316.667 220,315.5C 222.518,305.625 227.684,297.459 235.5,291C 243.141,287.38 250.807,283.713 258.5,280C 273.982,274.065 289.982,271.732 306.5,273C 330.819,274.58 351.319,284.08 368,301.5C 369.411,303.65 370.245,305.984 370.5,308.5C 371.5,308.5 372.5,308.5 373.5,308.5C 373.755,311.016 374.589,313.35 376,315.5C 377.845,319.795 380.512,320.462 384,317.5C 384.301,314.493 384.135,311.493 383.5,308.5C 386.044,308.104 388.211,308.771 390,310.5C 395.388,318.609 399.721,327.276 403,336.5C 405.371,339.206 408.037,341.539 411,343.5C 412.171,341.158 413.338,338.824 414.5,336.5C 415.086,336.709 415.586,337.043 416,337.5C 417.287,333.63 418.953,329.964 421,326.5C 422.669,328.868 424.336,331.201 426,333.5C 427.285,333.05 428.452,332.383 429.5,331.5C 442.312,338.308 452.979,347.641 461.5,359.5 Z"/></g>
<g><path style="opacity:1" fill="#000000" d="M 288.5,344.5 C 305.262,343.642 321.595,345.809 337.5,351C 353.024,358.208 359.524,370.375 357,387.5C 353.708,399.792 346.875,409.626 336.5,417C 304.281,437.094 275.114,433.261 249,405.5C 238.57,390.92 237.904,375.92 247,360.5C 251.346,355.826 256.513,352.326 262.5,350C 271.116,347.312 279.782,345.478 288.5,344.5 Z"/></g>
<g><path style="opacity:1" fill="#0a0704" d="M 293.5,434.5 C 300.438,434.09 307.105,435.257 313.5,438C 322.167,443.333 330.833,448.667 339.5,454C 344.867,459.863 351.201,464.53 358.5,468C 363.994,472.155 366.327,477.655 365.5,484.5C 363.534,504.264 356.201,521.764 343.5,537C 337.604,539.722 332.438,538.889 328,534.5C 318.252,544.794 306.419,550.294 292.5,551C 283.241,546.754 274.741,541.254 267,534.5C 260.164,539.741 253.831,539.074 248,532.5C 237.797,517.889 231.963,501.722 230.5,484C 230.667,481.167 230.833,478.333 231,475.5C 237.548,469.476 244.715,464.309 252.5,460C 253.928,457.815 255.595,455.815 257.5,454C 262.833,450.667 268.167,447.333 273.5,444C 279.874,439.977 286.54,436.811 293.5,434.5 Z"/></g>
<g><path style="opacity:1" fill="#7d5d32" d="M 332.5,465.5 C 332.439,463.408 331.439,461.908 329.5,461C 322.332,456.917 315.332,452.584 308.5,448C 300.483,444.39 292.816,445.057 285.5,450C 278.668,454.584 271.668,458.917 264.5,463C 263.748,463.671 263.414,464.504 263.5,465.5C 262.209,464.458 262.209,463.292 263.5,462C 272.335,456.415 281.335,451.081 290.5,446C 299.139,443.493 307.139,444.826 314.5,450C 320.366,454.031 326.366,457.864 332.5,461.5C 333.782,462.958 333.782,464.292 332.5,465.5 Z"/></g>
<g><path style="opacity:1" fill="#f19d9f" d="M 332.5,465.5 C 317.816,485.659 299.15,490.159 276.5,479C 271.262,475.264 266.929,470.764 263.5,465.5C 263.414,464.504 263.748,463.671 264.5,463C 271.668,458.917 278.668,454.584 285.5,450C 292.816,445.057 300.483,444.39 308.5,448C 315.332,452.584 322.332,456.917 329.5,461C 331.439,461.908 332.439,463.408 332.5,465.5 Z"/></g>
<g><path style="opacity:1" fill="#ebe6da" d="M 262.5,513.5 C 260.75,517.183 260.083,521.183 260.5,525.5C 260.539,526.756 260.039,527.756 259,528.5C 256.575,525.947 254.408,523.28 252.5,520.5C 251.008,516.182 249.008,512.182 246.5,508.5C 244.572,503.216 242.739,497.883 241,492.5C 240.333,488.167 240.333,483.833 241,479.5C 247.416,475.375 253.916,471.375 260.5,467.5C 276.507,488.942 296.841,494.109 321.5,483C 324.167,481 326.833,479 329.5,477C 332.025,473.814 334.525,470.647 337,467.5C 343.15,470.909 349.15,474.576 355,478.5C 355.667,483.167 355.667,487.833 355,492.5C 350.893,505.517 344.893,517.517 337,528.5C 335.451,523.69 334.451,518.69 334,513.5C 332.989,512.663 331.822,512.33 330.5,512.5C 328.825,518.669 325.492,523.836 320.5,528C 313.756,533.741 306.256,538.241 298,541.5C 286.989,536.829 277.323,530.163 269,521.5C 267.139,519.112 265.806,516.446 265,513.5C 264.023,512.226 263.189,512.226 262.5,513.5 Z"/></g>
<g><path style="opacity:1" fill="#503f29" d="M 246.5,508.5 C 249.008,512.182 251.008,516.182 252.5,520.5C 249.46,517.086 247.46,513.086 246.5,508.5 Z"/></g>
<g><path style="opacity:1" fill="#63513a" d="M 262.5,513.5 C 262.149,517.684 261.482,521.684 260.5,525.5C 260.083,521.183 260.75,517.183 262.5,513.5 Z"/></g>
</svg>
