<?xml version="1.0" encoding="UTF-8"?>
<!DOCTYPE svg PUBLIC "-//W3C//DTD SVG 1.1//EN" "http://www.w3.org/Graphics/SVG/1.1/DTD/svg11.dtd">
<svg xmlns="http://www.w3.org/2000/svg" version="1.1" width="600px" height="600px" style="shape-rendering:geometricPrecision; text-rendering:geometricPrecision; image-rendering:optimizeQuality; fill-rule:evenodd; clip-rule:evenodd" xmlns:xlink="http://www.w3.org/1999/xlink">
<g><path style="opacity:0.953" fill="#000000" d="M 148.5,-0.5 C 160.167,-0.5 171.833,-0.5 183.5,-0.5C 206.829,17.9825 229.162,37.8159 250.5,59C 252.167,59.1667 253.833,59.3333 255.5,59.5C 270.126,57.9192 284.793,56.9192 299.5,56.5C 315.864,57.2373 332.198,58.0706 348.5,59C 360.833,47.3333 373.167,35.6667 385.5,24C 395.733,15.5887 406.066,7.42198 416.5,-0.5C 427.833,-0.5 439.167,-0.5 450.5,-0.5C 454.076,3.63914 456.909,8.3058 459,13.5C 469.786,46.3966 472.62,79.8966 467.5,114C 509.427,147.967 536.594,191.467 549,244.5C 554.895,271.681 557.729,299.181 557.5,327C 556.791,334.605 555.125,341.938 552.5,349C 555.342,377.101 552.675,404.768 544.5,432C 543.079,436.343 541.246,440.509 539,444.5C 537.048,446.894 534.548,448.394 531.5,449C 528.563,448.989 525.73,449.155 523,449.5C 502.776,499.556 467.942,535.223 418.5,556.5C 414.198,556.179 410.531,554.513 407.5,551.5C 381.823,570.823 354.156,586.823 324.5,599.5C 307.167,599.5 289.833,599.5 272.5,599.5C 243.171,586.995 215.671,571.328 190,552.5C 187.637,555.18 184.637,556.513 181,556.5C 176.485,555.994 172.319,554.494 168.5,552C 134.058,533.367 106.891,507.2 87,473.5C 82.418,465.578 78.918,457.245 76.5,448.5C 68.9957,451.157 63.1624,449.157 59,442.5C 53.4653,429.696 49.7986,416.363 48,402.5C 45.0091,385.006 44.5091,367.506 46.5,350C 44.2912,342.636 42.6246,335.136 41.5,327.5C 40.1447,278.108 49.978,231.108 71,186.5C 84.6145,160.553 102.948,138.553 126,120.5C 125.678,83.4106 130.678,47.0772 141,11.5C 143.261,7.30374 145.761,3.30374 148.5,-0.5 Z"/></g>
<g><path style="opacity:1" fill="#363535" d="M 542.5,342.5 C 536.592,333.024 530.425,323.69 524,314.5C 520.667,309.833 516.667,305.833 512,302.5C 511.333,304.167 511.333,305.833 512,307.5C 525.777,349.199 523.777,390.199 506,430.5C 504.605,431.815 503.605,431.481 503,429.5C 502.191,412.073 497.525,395.739 489,380.5C 487.039,377.537 484.706,374.871 482,372.5C 480.99,401.877 471.99,428.544 455,452.5C 451.285,457.259 447.118,461.593 442.5,465.5C 440.178,460.181 436.511,456.181 431.5,453.5C 432.598,452.603 432.598,451.77 431.5,451C 432.364,449.863 433.364,448.53 434.5,447C 433.366,445.984 433.699,445.317 435.5,445C 434.542,443.853 434.875,442.853 436.5,442C 435.863,438.865 436.529,435.865 438.5,433C 437.646,431.119 437.979,429.286 439.5,427.5C 439.069,426.707 438.735,425.873 438.5,425C 441.092,416.817 441.092,408.65 438.5,400.5C 439.31,398.174 438.977,395.841 437.5,393.5C 434.849,375.701 427.849,359.868 416.5,346C 416.833,345.667 417.167,345.333 417.5,345C 410.296,338.826 402.796,331.659 395,323.5C 393.442,324.345 392.442,323.679 392,321.5C 391.667,321.833 391.333,322.167 391,322.5C 388.658,321.21 386.324,319.21 384,316.5C 383.667,316.833 383.333,317.167 383,317.5C 376.088,313.38 368.755,310.046 361,307.5C 360.439,308.022 359.772,308.355 359,308.5C 355.471,308.027 352.138,307.027 349,305.5C 346.208,305.661 343.375,305.994 340.5,306.5C 351.777,325.386 362.277,344.719 372,364.5C 378.237,380.641 377.904,396.308 371,411.5C 368.95,414.713 366.45,417.379 363.5,419.5C 355.531,425.65 346.531,429.316 336.5,430.5C 324.905,429.404 313.238,427.738 301.5,425.5C 289.429,427.749 277.429,429.416 265.5,430.5C 256.697,429.457 248.697,426.457 241.5,421.5C 234.467,416.268 229.967,409.268 228,400.5C 225.199,386.304 226.865,372.637 233,359.5C 242.326,341.511 252.16,323.844 262.5,306.5C 245.464,305.39 229.797,309.556 215.5,319C 172.747,347.704 156.247,387.537 166,438.5C 167.41,442.899 168.91,447.232 170.5,451.5C 164.181,454.321 159.681,458.987 157,465.5C 138.311,448.141 126.311,426.808 121,401.5C 119.535,391.748 118.202,382.082 117,372.5C 107.765,383.173 101.765,395.507 99,409.5C 97.2826,416.385 96.2826,423.385 96,430.5C 95,431.833 94,431.833 93,430.5C 74.267,388.886 72.767,346.719 88.5,304C 88.1667,303.5 87.8333,303 87.5,302.5C 82.8561,305.31 79.0227,308.977 76,313.5C 69.2182,322.444 63.0515,331.778 57.5,341.5C 57.189,342.478 56.5223,343.145 55.5,343.5C 47.8743,285.339 58.3743,230.672 87,179.5C 99.0072,159.826 114.174,142.992 132.5,129C 135.522,125.593 137.189,121.593 137.5,117C 136.608,83.9694 140.441,51.4694 149,19.5C 153.41,4.21018 162.577,0.376848 176.5,8C 200.522,25.5486 222.855,45.2153 243.5,67C 246.84,69.009 250.507,70.1757 254.5,70.5C 283.942,66.8545 313.442,66.5212 343,69.5C 346.921,69.545 350.755,69.045 354.5,68C 373.972,47.8539 394.639,29.1872 416.5,12C 421.695,7.56898 427.695,5.06898 434.5,4.5C 440.33,4.48474 444.496,7.1514 447,12.5C 453.678,29.5391 457.678,47.2058 459,65.5C 459.799,81.0409 459.299,96.5409 457.5,112C 457.493,115.258 457.993,118.425 459,121.5C 500.49,153.434 527.156,195.1 539,246.5C 546.286,277.498 548.286,308.831 545,340.5C 544.751,341.624 544.251,342.624 543.5,343.5C 542.893,343.376 542.56,343.043 542.5,342.5 Z"/></g>
<g><path style="opacity:1" fill="#3b3b3a" d="M 174.5,30.5 C 176.989,30.2978 179.323,30.7978 181.5,32C 198.636,47.7706 207.47,67.2706 208,90.5C 203.497,107.496 192.664,117.83 175.5,121.5C 174.167,121.333 172.833,121.167 171.5,121C 170.275,119.437 168.775,118.27 167,117.5C 164.566,118.322 162.066,118.656 159.5,118.5C 160.991,111.527 162.991,104.694 165.5,98C 164.95,96.1554 163.95,94.6554 162.5,93.5C 158.895,94.9852 155.228,96.3185 151.5,97.5C 151.167,97 150.833,96.5 150.5,96C 153.604,91.2249 157.104,86.7249 161,82.5C 161.49,81.2068 161.657,79.8734 161.5,78.5C 158.327,78.4012 155.327,79.0678 152.5,80.5C 151.833,80.1667 151.167,79.8333 150.5,79.5C 155.813,75.3548 160.98,71.0214 166,66.5C 167.136,57.475 168.469,48.475 170,39.5C 170.986,36.1943 172.486,33.1943 174.5,30.5 Z"/></g>
<g><path style="opacity:1" fill="#3b3b3a" d="M 420.5,30.5 C 423.652,29.9586 426.152,30.9586 428,33.5C 431.384,44.2348 433.384,55.2348 434,66.5C 439.074,70.9523 444.241,75.2856 449.5,79.5C 449,79.8333 448.5,80.1667 448,80.5C 444.974,79.1282 441.807,78.4615 438.5,78.5C 438.841,81.5158 440.007,84.1825 442,86.5C 454.165,97.5037 452.665,99.837 437.5,93.5C 436.914,93.7093 436.414,94.0426 436,94.5C 435.333,96.8333 435.333,99.1667 436,101.5C 438.22,106.991 439.72,112.658 440.5,118.5C 438.08,118.708 435.747,118.374 433.5,117.5C 428.793,121.816 423.46,122.65 417.5,120C 403.174,113.353 394.507,102.353 391.5,87C 393.584,64.3322 403.251,45.4988 420.5,30.5 Z"/></g>
<g><path style="opacity:1" fill="#030404" d="M 231.5,233.5 C 247.535,231.72 255.368,238.72 255,254.5C 251.07,265.049 243.57,269.216 232.5,267C 219.789,260.102 217.289,250.602 225,238.5C 227.352,236.97 229.519,235.303 231.5,233.5 Z"/></g>
<g><path style="opacity:1" fill="#020303" d="M 361.5,233.5 C 381.117,232.939 387.95,241.939 382,260.5C 373.895,268.76 365.061,269.594 355.5,263C 347.327,251.004 349.327,241.17 361.5,233.5 Z"/></g>
<g><path style="opacity:1" fill="#f1f1f1" d="M 244.5,238.5 C 250.849,239.027 253.016,242.361 251,248.5C 243.577,252.081 240.244,249.748 241,241.5C 242.145,240.364 243.312,239.364 244.5,238.5 Z"/></g>
<g><path style="opacity:1" fill="#ededed" d="M 373.5,238.5 C 380.009,239.207 382.176,242.54 380,248.5C 372.577,252.081 369.244,249.748 370,241.5C 371.145,240.364 372.312,239.364 373.5,238.5 Z"/></g>
<g><path style="opacity:1" fill="#282727" d="M 170.5,451.5 C 174.057,457.896 178.223,463.896 183,469.5C 196.372,479.872 208.039,491.872 218,505.5C 226.026,519.749 232.193,534.749 236.5,550.5C 245.962,541.232 250.796,529.898 251,516.5C 261.512,531.196 268.012,547.529 270.5,565.5C 275.556,560.058 279.056,553.725 281,546.5C 282.435,537.138 283.769,527.805 285,518.5C 288.392,526.951 292.059,535.284 296,543.5C 298.249,551.083 300.082,558.749 301.5,566.5C 304.237,549.556 309.737,533.556 318,518.5C 318.221,532.512 321.221,545.846 327,558.5C 328.673,561.001 330.507,563.334 332.5,565.5C 334.993,547.512 341.493,531.178 352,516.5C 352.201,529.893 357.034,541.226 366.5,550.5C 369.623,541.574 372.623,532.574 375.5,523.5C 379.77,514.977 384.603,506.644 390,498.5C 399.643,488.525 409.643,478.858 420,469.5C 424.088,464.314 427.921,458.98 431.5,453.5C 436.511,456.181 440.178,460.181 442.5,465.5C 447.118,461.593 451.285,457.259 455,452.5C 471.99,428.544 480.99,401.877 482,372.5C 484.706,374.871 487.039,377.537 489,380.5C 497.525,395.739 502.191,412.073 503,429.5C 503.605,431.481 504.605,431.815 506,430.5C 523.777,390.199 525.777,349.199 512,307.5C 511.333,305.833 511.333,304.167 512,302.5C 516.667,305.833 520.667,309.833 524,314.5C 530.425,323.69 536.592,333.024 542.5,342.5C 545.145,373.209 541.978,403.542 533,433.5C 532.163,435.844 530.829,437.844 529,439.5C 528.667,439.167 528.333,438.833 528,438.5C 525.813,431.406 523.48,424.406 521,417.5C 511.885,461.255 489.719,496.755 454.5,524C 443.005,532.251 431.005,539.751 418.5,546.5C 417.914,546.291 417.414,545.957 417,545.5C 415.971,541.571 415.137,537.571 414.5,533.5C 384.532,556.994 351.865,576.161 316.5,591C 310.806,593.049 304.972,594.549 299,595.5C 278.039,590.606 258.206,582.773 239.5,572C 220.216,561.207 201.883,549.04 184.5,535.5C 183.76,538.836 183.094,542.17 182.5,545.5C 138.017,526.18 106.183,493.846 87,448.5C 83.5328,438.297 80.5328,427.964 78,417.5C 75.6829,424.451 73.3496,431.451 71,438.5C 69.0573,438.959 67.724,437.959 67,435.5C 57.0226,404.563 53.8559,373.23 57.5,341.5C 63.0515,331.778 69.2182,322.444 76,313.5C 79.0227,308.977 82.8561,305.31 87.5,302.5C 87.8333,303 88.1667,303.5 88.5,304C 72.767,346.719 74.267,388.886 93,430.5C 94,431.833 95,431.833 96,430.5C 96.2826,423.385 97.2826,416.385 99,409.5C 101.765,395.507 107.765,383.173 117,372.5C 118.202,382.082 119.535,391.748 121,401.5C 126.311,426.808 138.311,448.141 157,465.5C 159.681,458.987 164.181,454.321 170.5,451.5 Z"/></g>
<g><path style="opacity:1" fill="#3c3b3a" d="M 241.5,421.5 C 245.521,425.681 250.021,429.348 255,432.5C 260.274,442.723 265.774,452.723 271.5,462.5C 279.99,478.074 292.99,483.907 310.5,480C 315.418,478.874 319.752,476.708 323.5,473.5C 339.339,488.837 355.672,503.67 372.5,518C 374.607,519.264 375.607,521.097 375.5,523.5C 372.623,532.574 369.623,541.574 366.5,550.5C 357.034,541.226 352.201,529.893 352,516.5C 341.493,531.178 334.993,547.512 332.5,565.5C 330.507,563.334 328.673,561.001 327,558.5C 321.221,545.846 318.221,532.512 318,518.5C 309.737,533.556 304.237,549.556 301.5,566.5C 300.082,558.749 298.249,551.083 296,543.5C 292.059,535.284 288.392,526.951 285,518.5C 283.769,527.805 282.435,537.138 281,546.5C 279.056,553.725 275.556,560.058 270.5,565.5C 268.012,547.529 261.512,531.196 251,516.5C 250.796,529.898 245.962,541.232 236.5,550.5C 232.193,534.749 226.026,519.749 218,505.5C 208.039,491.872 196.372,479.872 183,469.5C 178.223,463.896 174.057,457.896 170.5,451.5C 168.91,447.232 167.41,442.899 166,438.5C 156.247,387.537 172.747,347.704 215.5,319C 229.797,309.556 245.464,305.39 262.5,306.5C 252.16,323.844 242.326,341.511 233,359.5C 226.865,372.637 225.199,386.304 228,400.5C 229.967,409.268 234.467,416.268 241.5,421.5 Z"/></g>
<g><path style="opacity:1" fill="#383837" d="M 431.5,453.5 C 427.921,458.98 424.088,464.314 420,469.5C 409.643,478.858 399.643,488.525 390,498.5C 384.603,506.644 379.77,514.977 375.5,523.5C 375.607,521.097 374.607,519.264 372.5,518C 355.672,503.67 339.339,488.837 323.5,473.5C 325.603,470.28 327.936,467.28 330.5,464.5C 336.559,454.056 342.392,443.389 348,432.5C 353.65,428.678 358.817,424.345 363.5,419.5C 366.45,417.379 368.95,414.713 371,411.5C 377.904,396.308 378.237,380.641 372,364.5C 362.277,344.719 351.777,325.386 340.5,306.5C 343.375,305.994 346.208,305.661 349,305.5C 352.138,307.027 355.471,308.027 359,308.5C 359.772,308.355 360.439,308.022 361,307.5C 368.755,310.046 376.088,313.38 383,317.5C 383.333,317.167 383.667,316.833 384,316.5C 386.324,319.21 388.658,321.21 391,322.5C 391.333,322.167 391.667,321.833 392,321.5C 392.442,323.679 393.442,324.345 395,323.5C 402.796,331.659 410.296,338.826 417.5,345C 417.167,345.333 416.833,345.667 416.5,346C 427.849,359.868 434.849,375.701 437.5,393.5C 438.977,395.841 439.31,398.174 438.5,400.5C 441.092,408.65 441.092,416.817 438.5,425C 438.735,425.873 439.069,426.707 439.5,427.5C 437.979,429.286 437.646,431.119 438.5,433C 436.529,435.865 435.863,438.865 436.5,442C 434.875,442.853 434.542,443.853 435.5,445C 433.699,445.317 433.366,445.984 434.5,447C 433.364,448.53 432.364,449.863 431.5,451C 432.598,451.77 432.598,452.603 431.5,453.5 Z"/></g>
<g><path style="opacity:1" fill="#010202" d="M 289.5,349.5 C 299.55,349.169 309.55,349.669 319.5,351C 339.962,355.47 346.795,367.637 340,387.5C 327.406,405.882 310.239,412.716 288.5,408C 280.383,404.529 273.217,399.695 267,393.5C 255.052,375.037 258.885,361.204 278.5,352C 282.312,351.205 285.979,350.371 289.5,349.5 Z"/></g>
<g><path style="opacity:1" fill="#050606" d="M 363.5,419.5 C 358.817,424.345 353.65,428.678 348,432.5C 342.392,443.389 336.559,454.056 330.5,464.5C 334.654,453.576 336.654,442.243 336.5,430.5C 346.531,429.316 355.531,425.65 363.5,419.5 Z"/></g>
<g><path style="opacity:1" fill="#050505" d="M 241.5,421.5 C 248.697,426.457 256.697,429.457 265.5,430.5C 265.994,441.467 267.994,452.133 271.5,462.5C 265.774,452.723 260.274,442.723 255,432.5C 250.021,429.348 245.521,425.681 241.5,421.5 Z"/></g>
<g><path style="opacity:1" fill="#f09c9f" d="M 336.5,430.5 C 336.654,442.243 334.654,453.576 330.5,464.5C 327.936,467.28 325.603,470.28 323.5,473.5C 319.752,476.708 315.418,478.874 310.5,480C 292.99,483.907 279.99,478.074 271.5,462.5C 267.994,452.133 265.994,441.467 265.5,430.5C 277.429,429.416 289.429,427.749 301.5,425.5C 313.238,427.738 324.905,429.404 336.5,430.5 Z"/></g>
</svg>
