<?xml version="1.0" encoding="UTF-8"?>
<!DOCTYPE svg PUBLIC "-//W3C//DTD SVG 1.1//EN" "http://www.w3.org/Graphics/SVG/1.1/DTD/svg11.dtd">
<svg xmlns="http://www.w3.org/2000/svg" version="1.1" width="600px" height="600px" style="shape-rendering:geometricPrecision; text-rendering:geometricPrecision; image-rendering:optimizeQuality; fill-rule:evenodd; clip-rule:evenodd" xmlns:xlink="http://www.w3.org/1999/xlink">
<g><path style="opacity:0.974" fill="#020101" d="M 599.5,364.5 C 599.5,390.167 599.5,415.833 599.5,441.5C 598.544,446.206 597.044,450.873 595,455.5C 590.752,459.816 586.419,464.15 582,468.5C 577.295,478.752 571.462,488.252 564.5,497C 561.952,499.442 558.952,501.108 555.5,502C 539.67,506.054 524.003,510.72 508.5,516C 502.671,517.418 496.837,518.585 491,519.5C 481.396,516.743 471.896,513.576 462.5,510C 459.018,509.088 455.518,508.255 452,507.5C 449.266,508.593 446.6,508.593 444,507.5C 442.6,510.902 440.433,513.736 437.5,516C 431.094,519.191 424.427,521.691 417.5,523.5C 409.048,521.188 404.881,515.522 405,506.5C 402.065,513.896 397.565,520.063 391.5,525C 389.645,525.422 387.811,525.922 386,526.5C 384.189,525.922 382.355,525.422 380.5,525C 377.634,522.468 375.134,519.635 373,516.5C 368.113,518.359 363.613,520.859 359.5,524C 354.292,524.408 349.626,526.075 345.5,529C 331.069,534.149 316.236,537.649 301,539.5C 287.59,537.793 274.423,534.959 261.5,531C 258.339,529.587 255.339,527.92 252.5,526C 243.222,524.223 234.889,520.389 227.5,514.5C 224.138,525.017 217.471,528.184 207.5,524C 203.226,519.726 199.726,514.893 197,509.5C 196.53,517.296 192.53,521.963 185,523.5C 177.544,521.458 170.378,518.625 163.5,515C 162.044,513.255 160.711,511.422 159.5,509.5C 155.751,508.775 152.084,507.775 148.5,506.5C 134.859,510.548 121.359,514.881 108,519.5C 90.7432,516.309 73.9098,511.476 57.5,505C 47.6647,504.591 39.1647,501.091 32,494.5C 26.4947,486.16 21.4947,477.493 17,468.5C 13,464.5 9,460.5 5,456.5C 2.22586,451.361 0.392531,446.028 -0.5,440.5C -0.5,415.5 -0.5,390.5 -0.5,365.5C 3.30473,356.419 4.30473,346.919 2.5,337C 2.89661,329.475 4.72995,322.308 8,315.5C 12.5884,307.324 16.9218,298.991 21,290.5C 21.7124,278.697 25.0457,267.697 31,257.5C 38.4582,247.365 45.1248,236.699 51,225.5C 51.3082,218.591 53.3082,212.257 57,206.5C 66.303,196.196 75.9697,186.196 86,176.5C 89,169.833 92,163.167 95,156.5C 106.021,145.473 118.188,135.973 131.5,128C 136.187,123.457 140.02,118.291 143,112.5C 162.788,96.6938 185.288,87.0272 210.5,83.5C 208.3,73.0171 212.633,67.3504 223.5,66.5C 232.612,68.0283 241.612,70.0283 250.5,72.5C 251.942,64.0582 256.942,60.0582 265.5,60.5C 278.558,62.1291 290.391,66.7957 301,74.5C 311.9,66.6371 324.067,61.9704 337.5,60.5C 345.521,60.5177 350.188,64.5177 351.5,72.5C 360.385,70.029 369.385,68.029 378.5,66.5C 389.388,67.3681 393.721,73.0348 391.5,83.5C 400.871,85.4744 410.204,87.641 419.5,90C 423.286,91.3926 426.952,93.0593 430.5,95C 437.996,100.249 445.663,105.249 453.5,110C 457.833,115.667 462.167,121.333 466.5,127C 477.446,134.279 488.112,141.946 498.5,150C 501,153.167 503.5,156.333 506,159.5C 507.949,165.351 510.282,171.017 513,176.5C 524.122,186.949 534.455,197.949 544,209.5C 546.123,216.914 548.456,224.247 551,231.5C 558.25,242.331 565.25,253.331 572,264.5C 575.476,273.547 577.809,282.88 579,292.5C 585.134,303.102 590.468,314.102 595,325.5C 595.897,329.152 596.73,332.819 597.5,336.5C 594.886,346.161 595.553,355.494 599.5,364.5 Z"/></g>
<g><path style="opacity:1" fill="#d2a87e" d="M 430.5,108.5 C 430.649,109.552 430.483,110.552 430,111.5C 423.987,115.168 422.32,120.168 425,126.5C 436.92,134.543 448.754,142.71 460.5,151C 466.373,155.608 470.04,161.441 471.5,168.5C 467.51,167.81 463.51,167.643 459.5,168C 458.426,168.739 457.759,169.739 457.5,171C 465.183,188.048 471.683,205.548 477,223.5C 479.053,230.166 478.886,236.666 476.5,243C 477.382,246.441 477.716,249.941 477.5,253.5C 477.662,255.527 477.495,257.527 477,259.5C 463.019,244.175 449.519,228.508 436.5,212.5C 439.047,209.229 438.88,205.895 436,202.5C 409.309,179.869 378.809,172.035 344.5,179C 333.531,184.574 331.031,192.741 337,203.5C 337.903,204.701 339.069,205.535 340.5,206C 343.482,206.498 346.482,206.665 349.5,206.5C 351.199,206.34 352.866,206.506 354.5,207C 356.333,210.167 358.833,212.667 362,214.5C 363.094,216.078 363.928,217.745 364.5,219.5C 353.334,231.049 351.501,244.049 359,258.5C 372.689,272.932 387.522,274.266 403.5,262.5C 405.133,263.945 406.966,265.279 409,266.5C 430.343,290.675 451.843,314.675 473.5,338.5C 474.386,339.325 474.719,340.325 474.5,341.5C 473.552,348.523 472.385,355.523 471,362.5C 467.571,364.013 464.571,363.347 462,360.5C 463.022,364.24 465.022,367.574 468,370.5C 467.216,382.638 464.382,394.304 459.5,405.5C 450.318,370.833 432.318,341.667 405.5,318C 387.882,304.397 368.215,294.897 346.5,289.5C 344.913,286.732 343.08,284.065 341,281.5C 316.282,254.618 292.116,227.285 268.5,199.5C 270.014,188.371 265.347,181.204 254.5,178C 222.628,172.801 193.962,180.135 168.5,200C 164.146,203.79 163.479,208.123 166.5,213C 171.667,213.293 176.667,212.46 181.5,210.5C 187.73,213.726 192.73,218.392 196.5,224.5C 186.957,240.361 189.29,254.194 203.5,266C 214.084,271.828 224.75,271.994 235.5,266.5C 243.758,272.758 251.091,280.091 257.5,288.5C 199.763,304.735 162.263,341.735 145,399.5C 144.617,400.056 144.117,400.389 143.5,400.5C 140.859,392.078 138.526,383.578 136.5,375C 137.513,370.489 139.179,366.322 141.5,362.5C 138.873,363.092 136.206,363.425 133.5,363.5C 126.289,322.742 124.622,281.742 128.5,240.5C 126.833,240.5 125.167,240.5 123.5,240.5C 123.511,230.94 125.011,221.607 128,212.5C 132.807,198.055 138.307,183.888 144.5,170C 143.942,167.942 142.609,166.775 140.5,166.5C 137.18,167.297 133.846,167.964 130.5,168.5C 131.899,161.911 135.233,156.411 140.5,152C 152.404,143.131 164.571,134.631 177,126.5C 179.702,120.74 178.369,116.073 173,112.5C 172.51,110.455 172.677,108.455 173.5,106.5C 178.817,102.343 184.817,99.5094 191.5,98C 204.804,95.5996 218.137,93.4329 231.5,91.5C 231.649,90.448 231.483,89.448 231,88.5C 226.846,85.5107 223.012,82.1774 219.5,78.5C 231.361,78.4931 243.028,80.3264 254.5,84C 257.833,84.6667 261.167,84.6667 264.5,84C 265.022,83.4387 265.355,82.772 265.5,82C 263.748,78.3392 262.748,74.5059 262.5,70.5C 268.029,70.7151 273.362,71.8818 278.5,74C 286.21,77.2342 293.544,81.0676 300.5,85.5C 306.621,82.6055 312.621,79.4388 318.5,76C 324.284,73.4609 330.284,71.6276 336.5,70.5C 338.319,70.3422 339.652,71.0089 340.5,72.5C 337.902,76.0925 336.902,79.9259 337.5,84C 339.833,84.6667 342.167,84.6667 344.5,84C 353.541,82.2093 362.541,80.2093 371.5,78C 375.211,77.1747 378.878,77.3414 382.5,78.5C 379.064,82.0574 375.397,85.3908 371.5,88.5C 370.121,89.8626 370.287,90.8626 372,91.5C 384.808,93.7887 397.641,95.9554 410.5,98C 418.194,99.6792 424.861,103.179 430.5,108.5 Z"/></g>
<g><path style="opacity:1" fill="#b08659" d="M 158.5,113.5 C 159.496,113.414 160.329,113.748 161,114.5C 161.69,117.196 163.19,119.363 165.5,121C 149.961,129.194 136.127,139.694 124,152.5C 119.45,159.318 118.45,166.652 121,174.5C 122.845,177.183 125.345,178.85 128.5,179.5C 118.286,199.636 113.119,220.969 113,243.5C 113.536,245.869 114.703,247.869 116.5,249.5C 111.667,301.851 117,353.018 132.5,403C 126.676,422.101 124.509,441.601 126,461.5C 128.003,474.51 132.169,486.677 138.5,498C 129.592,500.528 120.925,503.861 112.5,508C 108.5,508.667 104.5,508.667 100.5,508C 83.2027,502.789 65.8694,497.789 48.5,493C 44.7257,491.698 41.559,489.531 39,486.5C 34.0799,478.328 29.4132,469.995 25,461.5C 21.6325,457.797 17.9658,454.464 14,451.5C 11.8952,447.417 10.5618,443.083 10,438.5C 9.66667,429.833 9.33333,421.167 9,412.5C 8.19934,407.227 6.53267,402.227 4,397.5C 3.33333,394.833 3.33333,392.167 4,389.5C 7.15991,377.86 10.1599,366.193 13,354.5C 13.6181,348.317 13.4515,342.151 12.5,336C 12.7134,332.358 13.5468,328.858 15,325.5C 20.0156,315.469 25.0156,305.469 30,295.5C 31.6013,287.811 33.268,280.145 35,272.5C 41.9153,259.663 49.5819,247.33 58,235.5C 60.5625,230.478 61.8959,225.145 62,219.5C 64.5013,214.494 67.5013,209.827 71,205.5C 78.6363,198.865 85.9696,191.865 93,184.5C 97.4838,176.713 101.484,168.713 105,160.5C 116.208,150.814 128.041,141.981 140.5,134C 144.528,130.113 147.694,125.613 150,120.5C 152.996,118.267 155.829,115.934 158.5,113.5 Z"/></g>
<g><path style="opacity:1" fill="#a98155" d="M 457.5,133.5 C 450.972,129.648 444.472,125.648 438,121.5C 438.778,119.151 439.945,116.817 441.5,114.5C 444.77,116.267 447.603,118.6 450,121.5C 451.933,125.917 454.433,129.917 457.5,133.5 Z"/></g>
<g><path style="opacity:1" fill="#775a3c" d="M 457.5,133.5 C 459.196,133.685 460.529,134.519 461.5,136C 459.588,136.279 458.254,135.446 457.5,133.5 Z"/></g>
<g><path style="opacity:1" fill="#b08659" d="M 465.5,140.5 C 476.299,145.36 486.133,152.36 495,161.5C 497.782,166.936 500.115,172.602 502,178.5C 509.963,188.797 518.963,198.131 529,206.5C 535.441,213.143 538.774,221.143 539,230.5C 546.603,243.764 554.603,256.764 563,269.5C 565.394,278.799 567.727,288.133 570,297.5C 575.808,308.297 581.142,319.297 586,330.5C 586.47,336.175 586.303,341.841 585.5,347.5C 585.766,351.86 586.266,356.193 587,360.5C 590.853,371.079 593.686,381.912 595.5,393C 593.825,399.525 591.991,406.025 590,412.5C 589.819,423.537 589.153,434.537 588,445.5C 587.529,447.246 586.862,448.913 586,450.5C 575.417,458.973 567.75,469.639 563,482.5C 560.448,486.719 556.948,489.886 552.5,492C 535.701,496.376 519.034,501.376 502.5,507C 497.201,508.145 491.868,508.478 486.5,508C 478.829,504.724 471.162,501.557 463.5,498.5C 474.161,480.382 478.661,460.715 477,439.5C 475.554,428.602 473.72,417.768 471.5,407C 482.882,371.881 489.048,335.715 490,298.5C 489.974,274.467 489.641,250.467 489,226.5C 485.227,209.977 480.06,193.977 473.5,178.5C 481.149,176.999 484.316,172.332 483,164.5C 482.303,160.072 480.637,156.072 478,152.5C 473.964,148.296 469.798,144.296 465.5,140.5 Z"/></g>
<g><path style="opacity:1" fill="#ad8559" d="M 430.5,108.5 C 431.598,109.601 431.765,110.934 431,112.5C 428.052,114.775 425.886,117.609 424.5,121C 425.716,124.221 427.716,126.888 430.5,129C 444.491,136.915 457.325,146.415 469,157.5C 472.035,160.925 473.202,164.759 472.5,169C 468.806,169.278 465.139,169.278 461.5,169C 460.484,169.519 459.818,170.353 459.5,171.5C 467.691,189.571 474.191,208.238 479,227.5C 479.667,232.167 479.667,236.833 479,241.5C 478.5,242 478,242.5 477.5,243C 482.086,283.72 480.253,324.22 472,364.5C 470.266,365.249 468.433,365.749 466.5,366C 467.701,366.903 468.535,368.069 469,369.5C 468.663,382.523 465.83,395.023 460.5,407C 462.2,411.665 463.2,416.499 463.5,421.5C 461.802,416.372 460.469,411.039 459.5,405.5C 464.382,394.304 467.216,382.638 468,370.5C 465.022,367.574 463.022,364.24 462,360.5C 464.571,363.347 467.571,364.013 471,362.5C 472.385,355.523 473.552,348.523 474.5,341.5C 476.248,331.714 477.414,321.714 478,311.5C 478.829,291.996 478.662,272.662 477.5,253.5C 477.716,249.941 477.382,246.441 476.5,243C 478.886,236.666 479.053,230.166 477,223.5C 471.683,205.548 465.183,188.048 457.5,171C 457.759,169.739 458.426,168.739 459.5,168C 463.51,167.643 467.51,167.81 471.5,168.5C 470.04,161.441 466.373,155.608 460.5,151C 448.754,142.71 436.92,134.543 425,126.5C 422.32,120.168 423.987,115.168 430,111.5C 430.483,110.552 430.649,109.552 430.5,108.5 Z"/></g>
<g><path style="opacity:1" fill="#ae8559" d="M 268.5,199.5 C 266.734,201.771 264.734,203.937 262.5,206C 245.577,204.085 228.577,203.418 211.5,204C 201.061,204.755 191.061,206.922 181.5,210.5C 176.667,212.46 171.667,213.293 166.5,213C 163.479,208.123 164.146,203.79 168.5,200C 193.962,180.135 222.628,172.801 254.5,178C 265.347,181.204 270.014,188.371 268.5,199.5 Z"/></g>
<g><path style="opacity:1" fill="#010100" d="M 235.5,176.5 C 242.275,176.981 248.942,178.147 255.5,180C 266.232,183.956 269.399,191.122 265,201.5C 263.786,203.049 262.286,204.215 260.5,205C 248.555,203.7 236.555,202.533 224.5,201.5C 205.728,202.154 187.562,205.821 170,212.5C 167.717,212.051 166.217,210.717 165.5,208.5C 166.868,204.63 169.202,201.464 172.5,199C 191.34,185.237 212.34,177.737 235.5,176.5 Z"/></g>
<g><path style="opacity:1" fill="#ac8357" d="M 225.5,187.5 C 232.841,187.334 240.174,187.5 247.5,188C 250.284,188.892 252.95,190.058 255.5,191.5C 256.386,192.325 256.719,193.325 256.5,194.5C 246.045,193.098 235.545,192.098 225,191.5C 218.823,191.983 212.657,192.15 206.5,192C 212.924,190.309 219.258,188.809 225.5,187.5 Z"/></g>
<g><path style="opacity:1" fill="#cda47b" d="M 268.5,199.5 C 292.116,227.285 316.282,254.618 341,281.5C 343.08,284.065 344.913,286.732 346.5,289.5C 316.927,283.204 287.261,282.87 257.5,288.5C 251.091,280.091 243.758,272.758 235.5,266.5C 250.467,253.556 252.301,238.889 241,222.5C 228.16,211.5 214.66,210.666 200.5,220C 198.93,221.397 197.596,222.897 196.5,224.5C 192.73,218.392 187.73,213.726 181.5,210.5C 191.061,206.922 201.061,204.755 211.5,204C 228.577,203.418 245.577,204.085 262.5,206C 264.734,203.937 266.734,201.771 268.5,199.5 Z"/></g>
<g><path style="opacity:1" fill="#ad8559" d="M 436.5,212.5 C 433.927,213.555 431.261,213.722 428.5,213C 402.69,203.112 376.356,200.945 349.5,206.5C 346.482,206.665 343.482,206.498 340.5,206C 339.069,205.535 337.903,204.701 337,203.5C 331.031,192.741 333.531,184.574 344.5,179C 378.809,172.035 409.309,179.869 436,202.5C 438.88,205.895 439.047,209.229 436.5,212.5 Z"/></g>
<g><path style="opacity:1" fill="#010000" d="M 364.5,176.5 C 389.841,177.445 412.507,185.612 432.5,201C 435.669,203.479 436.836,206.646 436,210.5C 435.261,211.574 434.261,212.241 433,212.5C 415.227,206.012 396.894,202.345 378,201.5C 365.777,202.512 353.61,203.679 341.5,205C 332.285,194.672 333.952,186.339 346.5,180C 352.55,178.374 358.55,177.208 364.5,176.5 Z"/></g>
<g><path style="opacity:1" fill="#a88055" d="M 356.5,187.5 C 369.49,186.498 382.157,187.998 394.5,192C 378.334,190.769 362.334,191.935 346.5,195.5C 345.246,193.741 345.579,192.241 347.5,191C 350.35,189.209 353.35,188.042 356.5,187.5 Z"/></g>
<g><path style="opacity:1" fill="#cda47b" d="M 436.5,212.5 C 449.519,228.508 463.019,244.175 477,259.5C 477.495,257.527 477.662,255.527 477.5,253.5C 478.662,272.662 478.829,291.996 478,311.5C 477.414,321.714 476.248,331.714 474.5,341.5C 474.719,340.325 474.386,339.325 473.5,338.5C 451.843,314.675 430.343,290.675 409,266.5C 406.966,265.279 405.133,263.945 403.5,262.5C 412.703,251.007 413.87,238.674 407,225.5C 394.443,211.926 380.277,209.926 364.5,219.5C 363.928,217.745 363.094,216.078 362,214.5C 358.833,212.667 356.333,210.167 354.5,207C 352.866,206.506 351.199,206.34 349.5,206.5C 376.356,200.945 402.69,203.112 428.5,213C 431.261,213.722 433.927,213.555 436.5,212.5 Z"/></g>
<g><path style="opacity:1" fill="#040302" d="M 235.5,266.5 C 224.75,271.994 214.084,271.828 203.5,266C 189.29,254.194 186.957,240.361 196.5,224.5C 197.596,222.897 198.93,221.397 200.5,220C 214.66,210.666 228.16,211.5 241,222.5C 252.301,238.889 250.467,253.556 235.5,266.5 Z"/></g>
<g><path style="opacity:1" fill="#030202" d="M 403.5,262.5 C 387.522,274.266 372.689,272.932 359,258.5C 351.501,244.049 353.334,231.049 364.5,219.5C 380.277,209.926 394.443,211.926 407,225.5C 413.87,238.674 412.703,251.007 403.5,262.5 Z"/></g>
<g><path style="opacity:1" fill="#231916" d="M 229.5,226.5 C 223.248,230.33 222.915,234.83 228.5,240C 231.823,240.932 234.823,240.432 237.5,238.5C 237.903,253.597 230.57,260.764 215.5,260C 206.135,257.431 201.468,251.265 201.5,241.5C 203.07,228.431 210.403,222.597 223.5,224C 225.611,224.845 227.611,225.678 229.5,226.5 Z"/></g>
<g><path style="opacity:1" fill="#231916" d="M 391.5,226.5 C 388.433,229.601 387.767,233.268 389.5,237.5C 392.33,240.528 395.664,241.195 399.5,239.5C 400.386,238.675 400.719,237.675 400.5,236.5C 402.11,252.397 394.776,260.231 378.5,260C 369.837,256.839 365.17,250.673 364.5,241.5C 366.898,228.589 374.565,222.756 387.5,224C 389.32,224.2 390.653,225.034 391.5,226.5 Z"/></g>
<g><path style="opacity:1" fill="#eaeaea" d="M 229.5,226.5 C 233.669,229.505 236.335,233.505 237.5,238.5C 234.823,240.432 231.823,240.932 228.5,240C 222.915,234.83 223.248,230.33 229.5,226.5 Z"/></g>
<g><path style="opacity:1" fill="#eeeeee" d="M 391.5,226.5 C 395.895,228.562 398.895,231.896 400.5,236.5C 400.719,237.675 400.386,238.675 399.5,239.5C 395.664,241.195 392.33,240.528 389.5,237.5C 387.767,233.268 388.433,229.601 391.5,226.5 Z"/></g>
<g><path style="opacity:1" fill="#ae865a" d="M 173.5,106.5 C 172.677,108.455 172.51,110.455 173,112.5C 178.369,116.073 179.702,120.74 177,126.5C 164.571,134.631 152.404,143.131 140.5,152C 135.233,156.411 131.899,161.911 130.5,168.5C 133.846,167.964 137.18,167.297 140.5,166.5C 142.609,166.775 143.942,167.942 144.5,170C 138.307,183.888 132.807,198.055 128,212.5C 125.011,221.607 123.511,230.94 123.5,240.5C 125.167,240.5 126.833,240.5 128.5,240.5C 124.622,281.742 126.289,322.742 133.5,363.5C 136.206,363.425 138.873,363.092 141.5,362.5C 139.179,366.322 137.513,370.489 136.5,375C 138.526,383.578 140.859,392.078 143.5,400.5C 143.419,405.477 142.419,410.143 140.5,414.5C 140.764,410.607 141.431,406.774 142.5,403C 139.302,393.707 136.968,384.207 135.5,374.5C 135.112,371.139 136.112,368.306 138.5,366C 134.878,366.379 132.711,364.879 132,361.5C 124.33,322.155 122.83,282.655 127.5,243C 125.899,242.727 124.399,242.227 123,241.5C 122.25,231.242 123.584,221.242 127,211.5C 132.197,197.12 137.364,182.786 142.5,168.5C 138.176,168.927 133.842,169.261 129.5,169.5C 129.211,166.351 129.711,163.351 131,160.5C 134.465,156.033 138.298,151.867 142.5,148C 151.494,141.501 160.827,135.501 170.5,130C 172.667,127.833 174.833,125.667 177,123.5C 176.899,118.974 174.899,115.307 171,112.5C 170.09,109.69 170.923,107.69 173.5,106.5 Z"/></g>
<g><path style="opacity:1" fill="#be9169" d="M 346.5,289.5 C 368.215,294.897 387.882,304.397 405.5,318C 432.318,341.667 450.318,370.833 459.5,405.5C 460.469,411.039 461.802,416.372 463.5,421.5C 470.006,444.376 468.173,466.71 458,488.5C 456.167,491 454.333,493.5 452.5,496C 450.22,496.233 448.22,497.066 446.5,498.5C 445.329,496.158 444.162,493.824 443,491.5C 442.384,483.163 441.718,474.829 441,466.5C 440.882,463.629 440.216,460.962 439,458.5C 439.252,473.726 437.586,488.726 434,503.5C 433.215,505.286 432.049,506.786 430.5,508C 425.98,510.007 421.313,511.507 416.5,512.5C 415.167,501.843 413.834,491.176 412.5,480.5C 408.573,483.715 404.74,487.049 401,490.5C 397.861,498.112 394.194,505.446 390,512.5C 388.194,515.684 386.194,516.017 384,513.5C 383.305,509.467 382.472,505.467 381.5,501.5C 372.206,505.262 363.206,509.596 354.5,514.5C 353.851,512.376 353.017,510.376 352,508.5C 346.421,517.042 338.588,522.209 328.5,524C 305.192,530.908 282.525,529.241 260.5,519C 257.479,515.123 253.812,512.289 249.5,510.5C 249.66,512.199 249.494,513.866 249,515.5C 239.534,509.517 229.701,504.183 219.5,499.5C 218.098,503.711 217.264,508.044 217,512.5C 216.576,514.615 215.409,515.448 213.5,515C 212.333,513.833 211.167,512.667 210,511.5C 205.333,502.167 200.667,492.833 196,483.5C 193.961,481.126 191.628,479.126 189,477.5C 187.667,489.159 186.501,500.825 185.5,512.5C 179.372,511.625 173.872,509.291 169,505.5C 168.172,499.652 166.839,493.985 165,488.5C 164.518,478.155 163.851,467.821 163,457.5C 161.413,469.134 160.079,480.801 159,492.5C 157.883,493.949 157.216,495.616 157,497.5C 156.586,497.957 156.086,498.291 155.5,498.5C 150.222,496.389 146.388,492.723 144,487.5C 134.022,463.502 132.856,439.169 140.5,414.5C 142.419,410.143 143.419,405.477 143.5,400.5C 144.117,400.389 144.617,400.056 145,399.5C 162.263,341.735 199.763,304.735 257.5,288.5C 287.261,282.87 316.927,283.204 346.5,289.5 Z"/></g>
<g><path style="opacity:1" fill="#050302" d="M 290.5,309.5 C 305.782,307.923 320.115,310.756 333.5,318C 339.646,324.848 341.146,332.681 338,341.5C 330.204,361.153 315.704,370.32 294.5,369C 279.152,364.983 268.985,355.483 264,340.5C 261.082,329.574 264.249,321.074 273.5,315C 279.127,312.623 284.793,310.79 290.5,309.5 Z"/></g>
<g><path style="opacity:1" fill="#231815" d="M 288.5,320.5 C 296.84,320.334 305.173,320.5 313.5,321C 329.905,323.31 333.739,331.476 325,345.5C 307.319,364.936 290.986,363.936 276,342.5C 272.283,336.214 272.783,330.381 277.5,325C 281.213,323.337 284.88,321.837 288.5,320.5 Z"/></g>
<g><path style="opacity:1" fill="#0e0a07" d="M 289.5,386.5 C 297.507,386.334 305.507,386.5 313.5,387C 314.761,390.446 313.428,392.446 309.5,393C 303.833,393.667 298.167,393.667 292.5,393C 288.591,392.208 287.591,390.041 289.5,386.5 Z"/></g>
</svg>
