<?xml version="1.0" encoding="UTF-8"?>
<!DOCTYPE svg PUBLIC "-//W3C//DTD SVG 1.1//EN" "http://www.w3.org/Graphics/SVG/1.1/DTD/svg11.dtd">
<svg xmlns="http://www.w3.org/2000/svg" version="1.1" width="600px" height="600px" style="shape-rendering:geometricPrecision; text-rendering:geometricPrecision; image-rendering:optimizeQuality; fill-rule:evenodd; clip-rule:evenodd" xmlns:xlink="http://www.w3.org/1999/xlink">
<g><path style="opacity:0.97" fill="#030302" d="M 599.5,278.5 C 599.5,289.833 599.5,301.167 599.5,312.5C 595.977,314.477 592.31,314.81 588.5,313.5C 588.167,314 587.833,314.5 587.5,315C 591.228,324.11 591.395,333.277 588,342.5C 580.738,358.078 573.071,373.412 565,388.5C 561.734,393.223 557.401,394.89 552,393.5C 552.286,400.318 549.453,405.151 543.5,408C 541.866,408.494 540.199,408.66 538.5,408.5C 539.687,416.917 541.354,425.251 543.5,433.5C 542.359,444.482 536.359,449.315 525.5,448C 521.214,447.03 517.38,445.197 514,442.5C 509.686,447.57 504.186,449.737 497.5,449C 479.977,445.278 463.977,438.278 449.5,428C 448.241,427.018 446.908,426.685 445.5,427C 439.703,436.095 433.536,444.929 427,453.5C 425.672,467.813 422.005,481.48 416,494.5C 404.656,511.184 388.823,518.684 368.5,517C 360.214,515.35 352.381,512.516 345,508.5C 315.558,518.05 286.225,517.716 257,507.5C 235.933,520.89 215.1,520.723 194.5,507C 183.659,496.846 177.159,484.346 175,469.5C 173.949,460.841 172.949,452.174 172,443.5C 167.167,436.5 162.333,429.5 157.5,422.5C 138.95,438.276 117.616,447.776 93.5,451C 89.3552,450.094 86.0219,447.927 83.5,444.5C 81.0324,445.803 78.699,447.303 76.5,449C 63.9344,453.719 56.2678,449.552 53.5,436.5C 55.5884,428.314 57.5884,420.147 59.5,412C 50.6041,410.736 45.9374,405.569 45.5,396.5C 40.3973,397.515 36.2307,395.849 33,391.5C 28.1144,380.061 22.4477,369.061 16,358.5C 11.6741,350.524 9.17412,342.024 8.5,333C 8.47076,327.951 9.47076,323.117 11.5,318.5C 7.5245,317.614 3.5245,316.948 -0.5,316.5C -0.5,305.167 -0.5,293.833 -0.5,282.5C 6.36717,272.118 13.8672,262.118 22,252.5C 26.4914,242.181 32.4914,232.847 40,224.5C 53.7276,210.103 68.061,196.437 83,183.5C 99.7313,154.767 122.898,132.933 152.5,118C 157.982,115.879 163.649,114.546 169.5,114C 174.599,111.117 179.933,108.783 185.5,107C 196.523,104.44 207.523,101.774 218.5,99C 243.409,84.1856 270.409,76.0189 299.5,74.5C 313.061,75.2602 326.395,77.4269 339.5,81C 357.272,88.2166 375.272,94.8832 393.5,101C 448.703,106.908 490.203,133.742 518,181.5C 538.073,198.238 556.073,216.905 572,237.5C 573.473,241.779 575.473,245.779 578,249.5C 585.801,258.786 592.968,268.453 599.5,278.5 Z"/></g>
<g><path style="opacity:1" fill="#eeeeee" d="M 371.5,106.5 C 373.833,109.5 376.5,112.167 379.5,114.5C 380.34,116.853 381.674,118.853 383.5,120.5C 386.013,124.378 387.346,128.711 387.5,133.5C 388.315,146.09 386.981,158.423 383.5,170.5C 382.903,175.017 381.237,179.017 378.5,182.5C 376.659,184.849 375.326,187.515 374.5,190.5C 367.503,204.504 359.503,217.838 350.5,230.5C 348.412,232.336 347.079,234.669 346.5,237.5C 346.672,238.492 346.338,239.158 345.5,239.5C 343.461,240.911 342.461,242.911 342.5,245.5C 341.537,248.744 340.204,251.744 338.5,254.5C 336.738,257.503 335.572,260.837 335,264.5C 334.333,270.167 334.333,275.833 335,281.5C 335.383,282.056 335.883,282.389 336.5,282.5C 338.638,289.74 341.471,296.74 345,303.5C 350.521,311.89 356.021,320.224 361.5,328.5C 362.08,330.749 363.413,332.415 365.5,333.5C 366.419,336.089 368.086,338.089 370.5,339.5C 371.419,342.089 373.086,344.089 375.5,345.5C 376.757,348.427 378.757,350.761 381.5,352.5C 382.419,355.089 384.086,357.089 386.5,358.5C 387.08,360.749 388.413,362.415 390.5,363.5C 391.906,363.973 392.573,364.973 392.5,366.5C 393.34,368.853 394.674,370.853 396.5,372.5C 398.588,374.336 399.921,376.669 400.5,379.5C 401.042,382.912 402.375,385.912 404.5,388.5C 406.935,392.799 408.602,397.466 409.5,402.5C 410.053,407.806 411.386,412.806 413.5,417.5C 413.5,417.833 413.5,418.167 413.5,418.5C 413.362,423.414 414.028,428.081 415.5,432.5C 416.437,441.002 416.437,449.668 415.5,458.5C 414.698,457.048 414.198,455.382 414,453.5C 392.964,432.963 371.798,412.63 350.5,392.5C 347.016,377.516 337.682,368.35 322.5,365C 304.633,361.147 286.966,361.814 269.5,367C 248.257,378.409 243.423,394.909 255,416.5C 265.639,431.411 280.139,440.078 298.5,442.5C 318.967,462.799 339.634,482.966 360.5,503C 359.906,503.464 359.239,503.631 358.5,503.5C 345.132,498.654 332.798,491.82 321.5,483C 316.02,479.593 310.353,476.76 304.5,474.5C 301.36,473.359 298.027,473.192 294.5,474C 292.509,474.374 290.842,475.207 289.5,476.5C 279.559,482.143 269.892,488.31 260.5,495C 251.596,499.637 242.262,503.304 232.5,506C 211.94,508.636 197.44,500.469 189,481.5C 184.798,468.527 182.965,455.194 183.5,441.5C 184.413,434.526 185.08,427.526 185.5,420.5C 186.713,409.539 189.713,399.206 194.5,389.5C 196.293,387.574 197.293,385.241 197.5,382.5C 198.742,378.345 200.742,374.678 203.5,371.5C 205.326,369.853 206.66,367.853 207.5,365.5C 207.738,363.596 208.738,362.262 210.5,361.5C 212.587,360.415 213.92,358.749 214.5,356.5C 218.877,352.732 222.544,348.399 225.5,343.5C 227.914,342.089 229.581,340.089 230.5,337.5C 232.914,336.089 234.581,334.089 235.5,331.5C 235.738,329.596 236.738,328.262 238.5,327.5C 241.471,325.557 243.471,322.891 244.5,319.5C 248.156,316.197 250.822,312.197 252.5,307.5C 257.272,298.62 260.938,289.286 263.5,279.5C 264.651,274.35 264.817,269.016 264,263.5C 263.61,260.896 262.776,258.562 261.5,256.5C 258.872,250.568 256.205,244.568 253.5,238.5C 252.921,235.669 251.588,233.336 249.5,231.5C 244.778,224.77 240.445,217.77 236.5,210.5C 235.617,207.296 233.95,204.629 231.5,202.5C 229.076,199.992 227.41,196.992 226.5,193.5C 224.341,187.849 221.674,182.516 218.5,177.5C 216.733,175.208 215.733,172.542 215.5,169.5C 215.59,166.848 214.924,164.515 213.5,162.5C 209.685,150.695 209.519,138.695 213,126.5C 213.522,123.719 214.689,121.385 216.5,119.5C 218.878,117.122 220.878,114.455 222.5,111.5C 237.499,99.1788 254.832,91.3455 274.5,88C 302.032,83.1433 328.699,86.1433 354.5,97C 359.38,99.6067 364.38,101.94 369.5,104C 370.381,104.708 371.047,105.542 371.5,106.5 Z"/></g>
<g><path style="opacity:1" fill="#9e8b66" d="M 371.5,106.5 C 375.167,108.167 377.833,110.833 379.5,114.5C 376.5,112.167 373.833,109.5 371.5,106.5 Z"/></g>
<g><path style="opacity:1" fill="#dcc088" d="M 437.5,122.5 C 436.122,123.234 434.622,123.901 433,124.5C 432.333,125.833 432.333,127.167 433,128.5C 457.646,151.843 467.646,180.51 463,214.5C 461.225,225.484 459.558,236.484 458,247.5C 449.698,278.07 441.198,308.57 432.5,339C 432.911,340.144 433.244,341.311 433.5,342.5C 429.022,360.092 429.855,377.425 436,394.5C 437.882,399.044 440.549,403.044 444,406.5C 444.49,407.793 444.657,409.127 444.5,410.5C 438.219,418.35 432.385,426.684 427,435.5C 423.848,406.368 414.181,379.701 398,355.5C 382.858,338.697 368.858,321.03 356,302.5C 344.997,287.181 342.997,270.847 350,253.5C 360.829,233.838 372.162,214.505 384,195.5C 396.299,174.313 400.632,151.646 397,127.5C 395.254,122.094 393.421,116.761 391.5,111.5C 407.358,113.137 422.691,116.803 437.5,122.5 Z"/></g>
<g><path style="opacity:1" fill="#dbbf88" d="M 159.5,405.5 C 168.301,386.681 170.801,367.014 167,346.5C 166.037,339.758 164.704,333.091 163,326.5C 156.799,305.563 150.799,284.563 145,263.5C 140.222,243.276 137.389,222.776 136.5,202C 137.157,173.193 147.99,149.026 169,129.5C 169.49,128.207 169.657,126.873 169.5,125.5C 181.478,118.007 194.478,113.84 208.5,113C 201.756,125.286 199.256,138.452 201,152.5C 203.547,168.807 208.88,184.14 217,198.5C 228.17,216.17 238.837,234.17 249,252.5C 256.163,269.714 254.496,286.047 244,301.5C 233.191,318.315 220.858,333.982 207,348.5C 189.026,371.062 178.026,396.728 174,425.5C 173.333,426.833 172.667,426.833 172,425.5C 167.572,418.973 163.405,412.307 159.5,405.5 Z"/></g>
<g><path style="opacity:1" fill="#aa9976" d="M 222.5,111.5 C 220.878,114.455 218.878,117.122 216.5,119.5C 217.353,115.98 219.353,113.313 222.5,111.5 Z"/></g>
<g><path style="opacity:1" fill="#a2906b" d="M 379.5,114.5 C 381.822,115.802 383.155,117.802 383.5,120.5C 381.674,118.853 380.34,116.853 379.5,114.5 Z"/></g>
<g><path style="opacity:1" fill="#d0a267" d="M 437.5,122.5 C 459.228,131.632 477.728,145.299 493,163.5C 499,172.167 505,180.833 511,189.5C 529.667,204.167 546.333,220.833 561,239.5C 563.826,245.822 567.159,251.822 571,257.5C 579.168,266.67 586.168,276.67 592,287.5C 594.273,292.298 595.273,297.298 595,302.5C 594.261,303.574 593.261,304.241 592,304.5C 586.027,300.828 579.694,299.494 573,300.5C 572.333,302.5 572.333,304.5 573,306.5C 574.804,311.58 576.804,316.58 579,321.5C 580.291,329.498 579.291,337.164 576,344.5C 569.318,357.198 562.652,369.865 556,382.5C 554.951,383.517 553.784,383.684 552.5,383C 550.355,379.688 547.688,376.854 544.5,374.5C 543.201,375.09 542.368,376.09 542,377.5C 541.667,384.167 541.333,390.833 541,397.5C 540.282,398.451 539.449,398.617 538.5,398C 536.5,395.333 534.5,392.667 532.5,390C 530.112,389.135 528.612,389.968 528,392.5C 527.333,397.5 527.333,402.5 528,407.5C 529.31,415.884 530.81,424.217 532.5,432.5C 533.485,437.684 531.485,439.517 526.5,438C 520.886,433.607 514.719,430.107 508,427.5C 507.228,427.645 506.561,427.978 506,428.5C 505.9,431.903 505.066,435.07 503.5,438C 480.816,435.325 461.149,426.158 444.5,410.5C 444.657,409.127 444.49,407.793 444,406.5C 440.549,403.044 437.882,399.044 436,394.5C 429.855,377.425 429.022,360.092 433.5,342.5C 433.244,341.311 432.911,340.144 432.5,339C 441.198,308.57 449.698,278.07 458,247.5C 459.558,236.484 461.225,225.484 463,214.5C 467.646,180.51 457.646,151.843 433,128.5C 432.333,127.167 432.333,125.833 433,124.5C 434.622,123.901 436.122,123.234 437.5,122.5 Z"/></g>
<g><path style="opacity:1" fill="#d0a267" d="M 169.5,125.5 C 169.657,126.873 169.49,128.207 169,129.5C 147.99,149.026 137.157,173.193 136.5,202C 137.389,222.776 140.222,243.276 145,263.5C 150.799,284.563 156.799,305.563 163,326.5C 164.704,333.091 166.037,339.758 167,346.5C 170.801,367.014 168.301,386.681 159.5,405.5C 143.556,423.146 123.89,434.646 100.5,440C 92.9632,441.515 89.9632,438.348 91.5,430.5C 89.4727,430.338 87.4727,430.505 85.5,431C 80.5,434 75.5,437 70.5,440C 68.8333,440.667 67.1667,440.667 65.5,440C 64.3895,437.263 64.2228,434.429 65,431.5C 69.1656,419.506 70.8323,407.173 70,394.5C 68.9335,392.717 67.4335,392.217 65.5,393C 63.5,395.333 61.5,397.667 59.5,400C 58.552,400.483 57.552,400.649 56.5,400.5C 56.7988,393.109 56.4655,385.776 55.5,378.5C 53.8125,377.432 52.1459,377.599 50.5,379C 48.5001,382.844 45.5001,385.344 41.5,386.5C 41.6567,385.127 41.49,383.793 41,382.5C 32.338,368.176 25.0047,353.176 19,337.5C 18.3333,334.167 18.3333,330.833 19,327.5C 21.3333,321.5 23.6667,315.5 26,309.5C 27.5906,302.923 25.0906,300.756 18.5,303C 3.64561,310.814 -0.18772,306.98 7,291.5C 20.4219,272.419 33.4219,253.085 46,233.5C 60.0079,218.826 74.6746,204.826 90,191.5C 104.028,167.805 122.528,148.305 145.5,133C 150.38,130.393 155.38,128.06 160.5,126C 163.482,125.502 166.482,125.335 169.5,125.5 Z"/></g>
<g><path style="opacity:1" fill="#ab9a77" d="M 387.5,133.5 C 388.655,140.655 388.822,147.988 388,155.5C 387.251,160.855 385.751,165.855 383.5,170.5C 386.981,158.423 388.315,146.09 387.5,133.5 Z"/></g>
<g><path style="opacity:1" fill="#a5936f" d="M 213.5,162.5 C 214.924,164.515 215.59,166.848 215.5,169.5C 214.076,167.485 213.41,165.152 213.5,162.5 Z"/></g>
<g><path style="opacity:1" fill="#a28f6a" d="M 218.5,177.5 C 221.674,182.516 224.341,187.849 226.5,193.5C 222.793,188.753 220.126,183.419 218.5,177.5 Z"/></g>
<g><path style="opacity:1" fill="#9e8b65" d="M 378.5,182.5 C 378.206,185.754 376.873,188.421 374.5,190.5C 375.326,187.515 376.659,184.849 378.5,182.5 Z"/></g>
<g><path style="opacity:1" fill="#a18f6a" d="M 231.5,202.5 C 233.95,204.629 235.617,207.296 236.5,210.5C 234.05,208.371 232.383,205.704 231.5,202.5 Z"/></g>
<g><path style="opacity:1" fill="#9e8b65" d="M 350.5,230.5 C 349.921,233.331 348.588,235.664 346.5,237.5C 347.079,234.669 348.412,232.336 350.5,230.5 Z"/></g>
<g><path style="opacity:1" fill="#9e8c66" d="M 249.5,231.5 C 251.588,233.336 252.921,235.669 253.5,238.5C 251.412,236.664 250.079,234.331 249.5,231.5 Z"/></g>
<g><path style="opacity:1" fill="#a08d68" d="M 345.5,239.5 C 345.008,241.819 344.008,243.819 342.5,245.5C 342.461,242.911 343.461,240.911 345.5,239.5 Z"/></g>
<g><path style="opacity:1" fill="#010101" d="M 199.5,254.5 C 214.225,252.944 225.058,258.611 232,271.5C 236.672,288.643 231.172,301.143 215.5,309C 193.345,313.669 180.679,304.836 177.5,282.5C 178.554,268.124 185.887,258.791 199.5,254.5 Z"/></g>
<g><path style="opacity:1" fill="#010101" d="M 387.5,254.5 C 407.624,253.299 418.957,262.632 421.5,282.5C 421.203,295.283 415.203,304.117 403.5,309C 384.711,313.524 372.211,306.691 366,288.5C 363.831,271.156 370.998,259.823 387.5,254.5 Z"/></g>
<g><path style="opacity:1" fill="#b3a283" d="M 338.5,254.5 C 335.538,263.67 334.872,273.003 336.5,282.5C 335.883,282.389 335.383,282.056 335,281.5C 334.333,275.833 334.333,270.167 335,264.5C 335.572,260.837 336.738,257.503 338.5,254.5 Z"/></g>
<g><path style="opacity:1" fill="#9c8a64" d="M 261.5,256.5 C 262.776,258.562 263.61,260.896 264,263.5C 264.817,269.016 264.651,274.35 263.5,279.5C 263.805,271.73 263.138,264.063 261.5,256.5 Z"/></g>
<g><path style="opacity:1" fill="#f5f5f5" d="M 210.5,266.5 C 222.569,266.402 225.569,271.569 219.5,282C 209.836,285.088 205.336,281.588 206,271.5C 207.025,269.313 208.525,267.646 210.5,266.5 Z"/></g>
<g><path style="opacity:1" fill="#f4f4f4" d="M 399.5,266.5 C 406.391,265.063 410.724,267.73 412.5,274.5C 411.155,281.842 406.822,284.675 399.5,283C 392.843,277.327 392.843,271.827 399.5,266.5 Z"/></g>
<g><path style="opacity:1" fill="#a79571" d="M 252.5,307.5 C 250.822,312.197 248.156,316.197 244.5,319.5C 246.673,315.148 249.34,311.148 252.5,307.5 Z"/></g>
<g><path style="opacity:1" fill="#a3906b" d="M 244.5,319.5 C 243.471,322.891 241.471,325.557 238.5,327.5C 240.016,324.467 242.016,321.8 244.5,319.5 Z"/></g>
<g><path style="opacity:1" fill="#a28f6a" d="M 361.5,328.5 C 363.587,329.585 364.92,331.251 365.5,333.5C 363.413,332.415 362.08,330.749 361.5,328.5 Z"/></g>
<g><path style="opacity:1" fill="#a5936f" d="M 235.5,331.5 C 234.581,334.089 232.914,336.089 230.5,337.5C 231.419,334.911 233.086,332.911 235.5,331.5 Z"/></g>
<g><path style="opacity:1" fill="#a4926e" d="M 365.5,333.5 C 367.914,334.911 369.581,336.911 370.5,339.5C 368.086,338.089 366.419,336.089 365.5,333.5 Z"/></g>
<g><path style="opacity:1" fill="#a3916d" d="M 230.5,337.5 C 229.581,340.089 227.914,342.089 225.5,343.5C 226.419,340.911 228.086,338.911 230.5,337.5 Z"/></g>
<g><path style="opacity:1" fill="#a69470" d="M 370.5,339.5 C 372.914,340.911 374.581,342.911 375.5,345.5C 373.086,344.089 371.419,342.089 370.5,339.5 Z"/></g>
<g><path style="opacity:1" fill="#a5936f" d="M 225.5,343.5 C 222.544,348.399 218.877,352.732 214.5,356.5C 217.456,351.601 221.123,347.268 225.5,343.5 Z"/></g>
<g><path style="opacity:1" fill="#a89673" d="M 375.5,345.5 C 378.243,347.239 380.243,349.573 381.5,352.5C 378.757,350.761 376.757,348.427 375.5,345.5 Z"/></g>
<g><path style="opacity:1" fill="#a08e6c" d="M 381.5,352.5 C 383.914,353.911 385.581,355.911 386.5,358.5C 384.086,357.089 382.419,355.089 381.5,352.5 Z"/></g>
<g><path style="opacity:1" fill="#a5936f" d="M 214.5,356.5 C 213.92,358.749 212.587,360.415 210.5,361.5C 211.08,359.251 212.413,357.585 214.5,356.5 Z"/></g>
<g><path style="opacity:1" fill="#988665" d="M 386.5,358.5 C 388.587,359.585 389.92,361.251 390.5,363.5C 388.413,362.415 387.08,360.749 386.5,358.5 Z"/></g>
<g><path style="opacity:1" fill="#010101" d="M 350.5,392.5 C 350.262,410.234 342.595,423.734 327.5,433C 318.634,438.678 308.968,441.844 298.5,442.5C 280.139,440.078 265.639,431.411 255,416.5C 243.423,394.909 248.257,378.409 269.5,367C 286.966,361.814 304.633,361.147 322.5,365C 337.682,368.35 347.016,377.516 350.5,392.5 Z"/></g>
<g><path style="opacity:1" fill="#a18f6a" d="M 207.5,365.5 C 206.66,367.853 205.326,369.853 203.5,371.5C 203.845,368.802 205.178,366.802 207.5,365.5 Z"/></g>
<g><path style="opacity:1" fill="#998866" d="M 392.5,366.5 C 394.822,367.802 396.155,369.802 396.5,372.5C 394.674,370.853 393.34,368.853 392.5,366.5 Z"/></g>
<g><path style="opacity:1" fill="#a3916d" d="M 197.5,382.5 C 197.293,385.241 196.293,387.574 194.5,389.5C 194.707,386.759 195.707,384.426 197.5,382.5 Z"/></g>
<g><path style="opacity:1" fill="#958361" d="M 400.5,379.5 C 402.625,382.088 403.958,385.088 404.5,388.5C 402.375,385.912 401.042,382.912 400.5,379.5 Z"/></g>
<g><path style="opacity:1" fill="#eaeaea" d="M 350.5,392.5 C 371.798,412.63 392.964,432.963 414,453.5C 414.198,455.382 414.698,457.048 415.5,458.5C 414.789,474.146 409.123,487.646 398.5,499C 385.861,507.215 372.527,508.715 358.5,503.5C 359.239,503.631 359.906,503.464 360.5,503C 339.634,482.966 318.967,462.799 298.5,442.5C 308.968,441.844 318.634,438.678 327.5,433C 342.595,423.734 350.262,410.234 350.5,392.5 Z"/></g>
<g><path style="opacity:1" fill="#ad9d81" d="M 409.5,402.5 C 411.591,407.191 412.924,412.191 413.5,417.5C 411.386,412.806 410.053,407.806 409.5,402.5 Z"/></g>
<g><path style="opacity:1" fill="#b9ab93" d="M 413.5,418.5 C 414.972,422.919 415.638,427.586 415.5,432.5C 414.028,428.081 413.362,423.414 413.5,418.5 Z"/></g>
<g><path style="opacity:1" fill="#bbab8f" d="M 185.5,420.5 C 185.08,427.526 184.413,434.526 183.5,441.5C 182.853,440.726 182.52,439.726 182.5,438.5C 183.071,432.289 184.071,426.289 185.5,420.5 Z"/></g>
<g><path style="opacity:1" fill="#9c8b6a" d="M 304.5,474.5 C 299.364,474.292 294.364,474.959 289.5,476.5C 290.842,475.207 292.509,474.374 294.5,474C 298.027,473.192 301.36,473.359 304.5,474.5 Z"/></g>
<g><path style="opacity:1" fill="#ceb47f" d="M 296.5,484.5 C 299.941,484.301 303.274,484.801 306.5,486C 314.904,490.576 322.904,495.742 330.5,501.5C 311.009,505.445 291.509,505.445 272,501.5C 271.5,501.167 271,500.833 270.5,500.5C 278.929,494.627 287.596,489.293 296.5,484.5 Z"/></g>
</svg>
