<?xml version="1.0" encoding="UTF-8"?>
<!DOCTYPE svg PUBLIC "-//W3C//DTD SVG 1.1//EN" "http://www.w3.org/Graphics/SVG/1.1/DTD/svg11.dtd">
<svg xmlns="http://www.w3.org/2000/svg" version="1.1" width="600px" height="600px" style="shape-rendering:geometricPrecision; text-rendering:geometricPrecision; image-rendering:optimizeQuality; fill-rule:evenodd; clip-rule:evenodd" xmlns:xlink="http://www.w3.org/1999/xlink">
<g><path style="opacity:0.972" fill="#010101" d="M 599.5,246.5 C 599.5,284.833 599.5,323.167 599.5,361.5C 598.21,362.058 597.377,363.058 597,364.5C 596.324,370.687 596.49,376.854 597.5,383C 596.923,387.218 596.09,391.384 595,395.5C 591.077,403.014 587.41,410.681 584,418.5C 583.334,425.185 583.501,431.851 584.5,438.5C 583.684,447.811 579.351,454.978 571.5,460C 552.566,472.159 532.232,475.825 510.5,471C 505.146,469.238 499.979,467.072 495,464.5C 494.641,468.502 494.808,472.502 495.5,476.5C 494.514,489.504 487.847,494.171 475.5,490.5C 475.167,490.833 474.833,491.167 474.5,491.5C 475.837,501.13 474.003,510.13 469,518.5C 463.333,522.5 457.667,522.5 452,518.5C 450.614,525.837 447.781,532.504 443.5,538.5C 437.615,543.711 431.782,543.711 426,538.5C 425.038,549.474 419.205,554.641 408.5,554C 405.245,552.791 402.411,550.958 400,548.5C 392.248,547.05 387.582,542.384 386,534.5C 370.659,544.175 354.159,551.342 336.5,556C 325.832,558.566 315.166,561.066 304.5,563.5C 278.366,558.844 253.366,550.678 229.5,539C 227.359,537.692 225.359,536.192 223.5,534.5C 221.911,537.421 220.411,540.421 219,543.5C 214.856,547.408 210.023,548.908 204.5,548C 200.214,554.093 194.548,555.76 187.5,553C 182.816,549.968 180.15,545.635 179.5,540C 176.564,540.654 173.564,541.487 170.5,542.5C 164.776,541.602 160.609,538.602 158,533.5C 156.33,528.489 154.663,523.489 153,518.5C 147.333,522.5 141.667,522.5 136,518.5C 131.443,509.786 129.276,500.452 129.5,490.5C 117.162,494.182 110.495,489.515 109.5,476.5C 109.981,472.136 110.647,467.802 111.5,463.5C 111.167,462.833 110.833,462.167 110.5,461.5C 80.3322,479.644 51.3322,477.81 23.5,456C 15.3981,447.319 13.3981,437.319 17.5,426C 16.9461,423.176 16.4461,420.343 16,417.5C 12.3333,410.167 8.66667,402.833 5,395.5C 2.53828,387.286 2.37161,378.953 4.5,370.5C 4.28976,366.335 2.62309,363.002 -0.5,360.5C -0.5,338.833 -0.5,317.167 -0.5,295.5C 0.342545,292.674 1.00921,289.674 1.5,286.5C 1.19921,284.578 0.532541,282.912 -0.5,281.5C -0.5,270.5 -0.5,259.5 -0.5,248.5C 7.15824,237.211 15.3249,226.211 24,215.5C 31.7316,195.774 43.3982,178.774 59,164.5C 58.1553,157.887 59.8219,151.887 64,146.5C 68.8653,141.3 74.0319,136.467 79.5,132C 93.6695,123.414 108.003,115.081 122.5,107C 112.078,98.2216 112.078,89.5549 122.5,81C 127.774,77.5302 133.44,74.8636 139.5,73C 153.446,69.7475 167.446,66.9142 181.5,64.5C 177.565,52.4037 182.065,46.0704 195,45.5C 208.955,47.5911 222.788,50.2577 236.5,53.5C 236.237,43.7597 241.237,38.7597 251.5,38.5C 268.922,40.6957 285.089,46.3624 300,55.5C 314.911,46.3624 331.078,40.6957 348.5,38.5C 359.101,38.431 364.101,43.431 363.5,53.5C 377.526,50.1344 391.693,47.4677 406,45.5C 418.265,46.7218 422.431,53.0552 418.5,64.5C 432.554,66.9142 446.554,69.7475 460.5,73C 469.344,75.3356 476.844,79.8356 483,86.5C 486.734,94.7243 484.901,101.558 477.5,107C 488.578,113.734 499.911,120.067 511.5,126C 518.617,130.783 525.45,135.949 532,141.5C 535.163,145.156 537.829,149.156 540,153.5C 541.558,157.142 541.891,160.809 541,164.5C 557.298,179.755 569.631,197.755 578,218.5C 585.914,227.361 593.08,236.695 599.5,246.5 Z"/></g>
<g><path style="opacity:1" fill="#494745" d="M 523.5,160.5 C 516.336,157.51 512.836,159.843 513,167.5C 519.879,180.591 526.212,193.924 532,207.5C 536.897,219.081 539.564,231.081 540,243.5C 539.311,244.357 538.478,245.023 537.5,245.5C 532.809,242.464 528.143,239.464 523.5,236.5C 520.896,237.269 519.062,238.936 518,241.5C 516.941,254.325 517.941,266.991 521,279.5C 523.818,289.104 526.485,298.77 529,308.5C 530.49,314.777 531.157,321.111 531,327.5C 529.612,328.554 528.112,328.72 526.5,328C 523.04,325.935 519.374,324.435 515.5,323.5C 513.701,323.577 512.034,324.077 510.5,325C 506.627,330.891 505.46,337.391 507,344.5C 510.239,361.269 513.906,377.936 518,394.5C 518.814,396.902 518.647,399.235 517.5,401.5C 511.278,395.108 504.611,389.274 497.5,384C 496.167,383.333 494.833,383.333 493.5,384C 492.432,386.438 491.098,388.605 489.5,390.5C 487.096,380.021 482.763,370.355 476.5,361.5C 482.945,351.816 481.278,343.65 471.5,337C 468.661,335.08 465.661,333.413 462.5,332C 456.83,330.161 451.164,328.161 445.5,326C 439.134,319.969 433.134,313.636 427.5,307C 405.334,295.374 381.667,289.208 356.5,288.5C 355.414,280.425 350.748,276.758 342.5,277.5C 333.889,278.871 325.722,281.537 318,285.5C 308.951,280.045 299.118,277.879 288.5,279C 286.152,279.346 284.319,280.513 283,282.5C 272.615,279.556 262.115,279.056 251.5,281C 248.688,283.901 245.688,286.568 242.5,289C 229.042,289.54 216.042,292.207 203.5,297C 196.342,300.412 189.342,304.078 182.5,308C 180.649,309.684 178.982,311.517 177.5,313.5C 171.99,317.088 166.657,320.922 161.5,325C 152.588,328.082 143.922,331.748 135.5,336C 132.37,338.128 129.537,340.628 127,343.5C 124.415,349.924 125.248,355.757 129.5,361C 123.926,368.316 120.093,376.482 118,385.5C 115.567,389.367 113.4,393.367 111.5,397.5C 109.86,394.512 109.026,391.179 109,387.5C 108.266,385.264 106.766,383.931 104.5,383.5C 101.709,384.73 99.0421,386.23 96.5,388C 92.0968,392.682 87.5968,397.182 83,401.5C 82.3333,397.833 82.3333,394.167 83,390.5C 87.1161,375.7 90.4494,360.7 93,345.5C 94.0108,338.964 93.3441,332.631 91,326.5C 88.3466,323.806 85.1799,322.973 81.5,324C 69.0284,331.213 65.1951,327.713 70,313.5C 75.0982,296.773 79.0982,279.773 82,262.5C 82.6667,255.5 82.6667,248.5 82,241.5C 81.2625,238.595 79.4292,236.928 76.5,236.5C 71.8574,239.464 67.1907,242.464 62.5,245.5C 60.0454,244.09 59.0454,241.923 59.5,239C 60.9573,230.004 63.124,221.17 66,212.5C 72.761,195.813 79.9276,179.313 87.5,163C 87.2451,161.674 86.5784,160.674 85.5,160C 82.3035,159.195 79.3035,159.362 76.5,160.5C 74.139,160.674 71.8056,161.007 69.5,161.5C 69.1437,158.436 69.9771,155.769 72,153.5C 78.6167,145.551 86.45,139.051 95.5,134C 108.571,127.718 121.071,120.552 133,112.5C 134.457,109.634 134.79,106.634 134,103.5C 130.783,100.62 127.95,97.4529 125.5,94C 126.776,91.7194 128.443,89.7194 130.5,88C 137.818,84.3384 145.485,81.6718 153.5,80C 170.862,77.4969 188.196,74.9969 205.5,72.5C 206.521,71.9984 206.688,71.3317 206,70.5C 200.5,66.3333 195,62.1667 189.5,58C 192.972,56.4201 196.638,56.0867 200.5,57C 212.583,58.9499 224.583,61.2833 236.5,64C 241.489,64.4993 246.489,64.6659 251.5,64.5C 250.957,59.2166 249.623,54.2166 247.5,49.5C 254.01,49.0698 260.344,49.9031 266.5,52C 277.748,55.9594 288.748,60.4594 299.5,65.5C 302.581,64.9733 305.581,64.14 308.5,63C 321.852,54.16 336.519,49.66 352.5,49.5C 351.754,53.6667 350.421,57.6667 348.5,61.5C 348.608,62.4419 348.941,63.2753 349.5,64C 355.865,64.5127 362.199,64.1794 368.5,63C 378.503,60.9995 388.503,58.9995 398.5,57C 402.691,56.0784 406.691,56.4118 410.5,58C 405.422,61.9552 400.256,65.7886 395,69.5C 394.316,70.7839 394.483,71.9505 395.5,73C 413.87,75.301 432.204,77.9676 450.5,81C 457.13,82.5432 463.463,84.8765 469.5,88C 471.557,89.7194 473.224,91.7194 474.5,94C 472.385,97.1185 469.885,99.9518 467,102.5C 465.578,105.03 465.245,107.697 466,110.5C 468.511,113.343 471.344,115.843 474.5,118C 490.993,126.075 506.66,135.408 521.5,146C 525.443,150.055 528.776,154.555 531.5,159.5C 531,160.881 530,161.547 528.5,161.5C 526.865,160.954 525.199,160.62 523.5,160.5 Z"/></g>
<g><path style="opacity:1" fill="#3b3b3a" d="M 111.5,397.5 C 106.895,405.478 103.562,413.978 101.5,423C 102.097,433.592 107.764,438.592 118.5,438C 117.365,442.141 115.031,445.475 111.5,448C 85.0937,468.2 58.427,468.533 31.5,449C 29.6411,447.442 28.1411,445.609 27,443.5C 27.051,435.169 27.051,426.835 27,418.5C 26.4888,416.122 25.8221,413.788 25,411.5C 21.6511,404.802 18.3178,398.136 15,391.5C 14.141,388.052 13.641,384.552 13.5,381C 14.3607,375.178 14.5273,369.344 14,363.5C 11.853,358.54 9.18637,353.873 6,349.5C 5.93904,337.836 6.27237,326.169 7,314.5C 8.63057,305.348 10.1306,296.182 11.5,287C 11.3333,284.833 11.1667,282.667 11,280.5C 3.27066,268.715 3.93733,257.382 13,246.5C 19.7141,238.788 26.0474,230.788 32,222.5C 36.8242,212.183 42.1575,202.183 48,192.5C 57.3367,181.665 66.8367,170.998 76.5,160.5C 79.3035,159.362 82.3035,159.195 85.5,160C 86.5784,160.674 87.2451,161.674 87.5,163C 79.9276,179.313 72.761,195.813 66,212.5C 63.124,221.17 60.9573,230.004 59.5,239C 59.0454,241.923 60.0454,244.09 62.5,245.5C 67.1907,242.464 71.8574,239.464 76.5,236.5C 79.4292,236.928 81.2625,238.595 82,241.5C 82.6667,248.5 82.6667,255.5 82,262.5C 79.0982,279.773 75.0982,296.773 70,313.5C 65.1951,327.713 69.0284,331.213 81.5,324C 85.1799,322.973 88.3466,323.806 91,326.5C 93.3441,332.631 94.0108,338.964 93,345.5C 90.4494,360.7 87.1161,375.7 83,390.5C 82.3333,394.167 82.3333,397.833 83,401.5C 87.5968,397.182 92.0968,392.682 96.5,388C 99.0421,386.23 101.709,384.73 104.5,383.5C 106.766,383.931 108.266,385.264 109,387.5C 109.026,391.179 109.86,394.512 111.5,397.5 Z"/></g>
<g><path style="opacity:1" fill="#3b3b3a" d="M 523.5,160.5 C 533.496,171.331 543.33,182.331 553,193.5C 558.781,202.727 563.781,212.394 568,222.5C 573.667,229.5 579.333,236.5 585,243.5C 588.172,247.841 590.839,252.508 593,257.5C 594.434,261.406 594.767,265.406 594,269.5C 591.156,274.683 589.323,280.183 588.5,286C 589.632,295.261 591.132,304.428 593,313.5C 594.133,325.485 594.466,337.485 594,349.5C 590.931,354.249 588.264,359.249 586,364.5C 586.095,373.163 586.095,381.83 586,390.5C 580.584,399.333 576.25,408.666 573,418.5C 572.949,426.835 572.949,435.169 573,443.5C 568.919,448.964 563.752,453.131 557.5,456C 534.791,467.259 513.125,465.592 492.5,451C 489.846,447.201 488.346,443.034 488,438.5C 497.864,437.969 503.031,432.802 503.5,423C 501.062,411.178 496.395,400.345 489.5,390.5C 491.098,388.605 492.432,386.438 493.5,384C 494.833,383.333 496.167,383.333 497.5,384C 504.611,389.274 511.278,395.108 517.5,401.5C 518.647,399.235 518.814,396.902 518,394.5C 513.906,377.936 510.239,361.269 507,344.5C 505.46,337.391 506.627,330.891 510.5,325C 512.034,324.077 513.701,323.577 515.5,323.5C 519.374,324.435 523.04,325.935 526.5,328C 528.112,328.72 529.612,328.554 531,327.5C 531.157,321.111 530.49,314.777 529,308.5C 526.485,298.77 523.818,289.104 521,279.5C 517.941,266.991 516.941,254.325 518,241.5C 519.062,238.936 520.896,237.269 523.5,236.5C 528.143,239.464 532.809,242.464 537.5,245.5C 538.478,245.023 539.311,244.357 540,243.5C 539.564,231.081 536.897,219.081 532,207.5C 526.212,193.924 519.879,180.591 513,167.5C 512.836,159.843 516.336,157.51 523.5,160.5 Z"/></g>
<g><path style="opacity:1" fill="#3c3c3a" d="M 232.5,219.5 C 221.233,221.796 210.566,225.796 200.5,231.5C 199.304,233.145 198.304,234.811 197.5,236.5C 197.435,233.002 196.101,232.502 193.5,235C 182.471,242.85 171.804,251.184 161.5,260C 154.406,260.223 151.573,256.723 153,249.5C 157.271,239.901 163.105,231.401 170.5,224C 161.044,226.094 151.711,228.927 142.5,232.5C 137.156,231.655 135.323,228.655 137,223.5C 146.3,214.249 157.134,207.083 169.5,202C 192.778,191.613 217.112,187.946 242.5,191C 248.508,192.687 253.008,196.187 256,201.5C 257.011,205.982 255.844,209.816 252.5,213C 245.484,214.355 238.817,216.521 232.5,219.5 Z"/></g>
<g><path style="opacity:1" fill="#3c3c3a" d="M 407.5,234.5 C 403.953,230.71 399.62,227.876 394.5,226C 387.705,223.123 380.705,220.957 373.5,219.5C 367.043,215.958 360.043,214.125 352.5,214C 346.334,210.344 344.834,205.178 348,198.5C 350.559,195.469 353.726,193.302 357.5,192C 393.353,187.213 426.353,194.879 456.5,215C 460.333,217.5 463.5,220.667 466,224.5C 466.917,229.327 464.917,231.994 460,232.5C 452.602,229.697 445.102,227.531 437.5,226C 443.455,232.735 448.288,240.235 452,248.5C 454.003,256.827 450.836,260.327 442.5,259C 432.558,249.701 421.891,241.368 410.5,234C 409.251,233.26 408.251,233.427 407.5,234.5 Z"/></g>
<g><path style="opacity:1" fill="#040202" d="M 232.5,219.5 C 247.861,227.574 252.695,239.907 247,256.5C 239.38,268.816 228.547,273.316 214.5,270C 200.215,263.264 194.548,252.097 197.5,236.5C 198.304,234.811 199.304,233.145 200.5,231.5C 210.566,225.796 221.233,221.796 232.5,219.5 Z"/></g>
<g><path style="opacity:1" fill="#020101" d="M 373.5,219.5 C 380.705,220.957 387.705,223.123 394.5,226C 399.62,227.876 403.953,230.71 407.5,234.5C 411.817,255.561 403.484,267.894 382.5,271.5C 362.781,268.611 354.281,257.278 357,237.5C 359.563,228.772 365.063,222.772 373.5,219.5 Z"/></g>
<g><path style="opacity:1" fill="#ececec" d="M 224.5,228.5 C 232.828,227.663 236.661,231.33 236,239.5C 230.667,247.5 225.333,247.5 220,239.5C 219.333,237.833 219.333,236.167 220,234.5C 221.332,232.34 222.832,230.34 224.5,228.5 Z"/></g>
<g><path style="opacity:1" fill="#ededed" d="M 384.5,228.5 C 391.148,227.654 395.148,230.487 396.5,237C 393.807,245.286 388.807,247.119 381.5,242.5C 378.219,236.836 379.219,232.17 384.5,228.5 Z"/></g>
<g><path style="opacity:1" fill="#777676" d="M 354.5,298.5 C 358.6,298.237 362.6,298.57 366.5,299.5C 382.052,302.286 397.385,306.453 412.5,312C 422.111,318.427 430.778,326.26 438.5,335.5C 447.993,338.249 456.993,342.082 465.5,347C 467.019,348.351 468.352,349.851 469.5,351.5C 465.567,351.83 461.567,351.997 457.5,352C 456.483,353.049 456.316,354.216 457,355.5C 464.177,363.684 470.177,372.684 475,382.5C 475.988,385.424 476.654,388.424 477,391.5C 482.385,400.275 487.219,409.275 491.5,418.5C 492.167,420.819 492.334,423.153 492,425.5C 490.612,426.554 489.112,426.72 487.5,426C 482.833,422 478.167,418 473.5,414C 470.89,412.519 468.223,411.352 465.5,410.5C 467.426,417.683 470.426,424.349 474.5,430.5C 475.933,432.519 477.267,434.686 478.5,437C 477.692,437.308 477.025,437.808 476.5,438.5C 481.341,450.865 484.341,463.699 485.5,477C 485.049,480.964 483.049,482.131 479.5,480.5C 475.981,475.463 472.981,470.13 470.5,464.5C 468.345,460.861 466.178,457.194 464,453.5C 462.556,451.845 460.722,451.178 458.5,451.5C 458.216,453.415 458.549,455.081 459.5,456.5C 463.163,472.308 464.663,488.308 464,504.5C 463.333,506.5 462.667,508.5 462,510.5C 461,511.833 460,511.833 459,510.5C 456.054,502.998 452.721,495.665 449,488.5C 448.092,486.561 446.592,485.561 444.5,485.5C 445.176,501.064 442.676,516.064 437,530.5C 435.333,531.833 433.667,531.833 432,530.5C 430.588,522.527 428.755,514.86 426.5,507.5C 426.117,502.183 424.617,497.183 422,492.5C 421.333,491.167 420.667,491.167 420,492.5C 419.646,503.18 419.146,513.847 418.5,524.5C 417.5,531.34 415.5,537.84 412.5,544C 411.551,544.617 410.718,544.451 410,543.5C 409.115,540.048 408.282,536.714 407.5,533.5C 407.508,526.876 406.508,520.543 404.5,514.5C 405.288,504.275 402.121,495.609 395,488.5C 392.811,493.712 389.977,498.545 386.5,503C 385.5,503.667 384.5,503.667 383.5,503C 382.267,500.686 380.933,498.519 379.5,496.5C 378.61,490.614 377.277,484.947 375.5,479.5C 375.655,475.612 374.655,472.112 372.5,469C 361.934,463.55 351.267,458.383 340.5,453.5C 337.382,452.76 334.382,451.094 331.5,448.5C 324.314,443.739 316.647,439.739 308.5,436.5C 306.911,434.694 304.911,433.361 302.5,432.5C 297.445,434.688 292.778,437.355 288.5,440.5C 280.217,443.975 272.217,447.975 264.5,452.5C 254.017,458.242 243.35,463.742 232.5,469C 230.771,470.789 230.104,472.956 230.5,475.5C 228.549,481.245 227.215,487.245 226.5,493.5C 225.26,496.024 224.093,498.691 223,501.5C 220.368,504.192 218.034,503.859 216,500.5C 213.993,496.465 211.993,492.465 210,488.5C 208.628,489.91 207.795,491.577 207.5,493.5C 206.279,494.028 205.113,494.695 204,495.5C 203.489,497.878 202.822,500.212 202,502.5C 200.101,516.279 197.768,529.946 195,543.5C 193.413,544.727 192.079,544.394 191,542.5C 188.958,535.225 187.458,527.892 186.5,520.5C 185.94,510.839 185.273,501.172 184.5,491.5C 180.263,497.875 177.596,504.875 176.5,512.5C 175.966,518.887 174.632,525.053 172.5,531C 170.888,531.72 169.388,531.554 168,530.5C 162.735,516.004 160.235,501.004 160.5,485.5C 158.408,485.561 156.908,486.561 156,488.5C 152.667,495.833 149.333,503.167 146,510.5C 145,511.833 144,511.833 143,510.5C 140.601,502.328 139.934,493.994 141,485.5C 142.512,474.097 144.345,462.763 146.5,451.5C 144.856,451.286 143.356,451.62 142,452.5C 136.626,462.082 131.126,471.582 125.5,481C 124.167,481.667 122.833,481.667 121.5,481C 120.478,465.268 123.144,450.101 129.5,435.5C 132.063,428.363 135.23,421.363 139,414.5C 139.49,413.207 139.657,411.873 139.5,410.5C 131.92,413.889 125.254,418.722 119.5,425C 116.286,427.444 113.952,426.944 112.5,423.5C 113.467,421.238 114.134,418.905 114.5,416.5C 119.038,407.766 123.871,399.099 129,390.5C 129.466,385.102 131.133,380.102 134,375.5C 138.583,367.751 143.75,360.418 149.5,353.5C 147.979,352.063 146.145,351.396 144,351.5C 141.502,351.917 139.002,352.251 136.5,352.5C 136.351,351.448 136.517,350.448 137,349.5C 146.081,342.961 156.081,338.294 167,335.5C 172.93,330.246 179.43,325.746 186.5,322C 193.011,315.536 200.678,310.536 209.5,307C 215.137,304.682 220.803,302.849 226.5,301.5C 233.415,300.451 240.415,299.784 247.5,299.5C 249.199,299.66 250.866,299.494 252.5,299C 253.833,298.333 253.833,297.667 252.5,297C 254.473,296.505 256.473,296.338 258.5,296.5C 258.167,294.5 257.833,292.5 257.5,290.5C 260.833,290.5 264.167,290.5 267.5,290.5C 268.167,290.5 268.833,290.5 269.5,290.5C 276.878,292.403 284.212,294.736 291.5,297.5C 291.5,294.833 291.5,292.167 291.5,289.5C 300.548,290.237 309.048,292.904 317,297.5C 322.209,296.138 327.042,294.138 331.5,291.5C 335.345,290.608 339.179,289.608 343,288.5C 343.833,288.833 344.667,289.167 345.5,289.5C 343.673,291.487 342.673,293.821 342.5,296.5C 345.875,297.723 349.875,298.39 354.5,298.5 Z"/></g>
<g><path style="opacity:1" fill="#444241" d="M 267.5,290.5 C 264.167,290.5 260.833,290.5 257.5,290.5C 257.833,292.5 258.167,294.5 258.5,296.5C 256.473,296.338 254.473,296.505 252.5,297C 253.833,297.667 253.833,298.333 252.5,299C 250.866,299.494 249.199,299.66 247.5,299.5C 248.609,298.71 249.942,298.21 251.5,298C 250.663,296.989 250.33,295.822 250.5,294.5C 252.869,294.851 255.203,295.018 257.5,295C 256.594,293.301 256.261,291.467 256.5,289.5C 260.371,289.185 264.038,289.518 267.5,290.5 Z"/></g>
<g><path style="opacity:1" fill="#444240" d="M 354.5,298.5 C 349.875,298.39 345.875,297.723 342.5,296.5C 342.673,293.821 343.673,291.487 345.5,289.5C 344.667,289.167 343.833,288.833 343,288.5C 339.179,289.608 335.345,290.608 331.5,291.5C 335.974,288.57 340.974,287.237 346.5,287.5C 346.693,290.475 345.693,292.975 343.5,295C 345.488,295.18 347.488,295.014 349.5,294.5C 349.5,295.5 349.5,296.5 349.5,297.5C 351.415,297.216 353.081,297.549 354.5,298.5 Z"/></g>
<g><path style="opacity:1" fill="#444240" d="M 331.5,291.5 C 327.042,294.138 322.209,296.138 317,297.5C 309.048,292.904 300.548,290.237 291.5,289.5C 291.5,292.167 291.5,294.833 291.5,297.5C 284.212,294.736 276.878,292.403 269.5,290.5C 276.952,290.405 283.786,292.405 290,296.5C 290.497,293.854 290.664,291.187 290.5,288.5C 300.138,288.397 308.971,291.064 317,296.5C 321.691,294.404 326.525,292.737 331.5,291.5 Z"/></g>
<g><path style="opacity:1" fill="#454341" d="M 366.5,299.5 C 386.303,301.269 404.97,306.769 422.5,316C 427.983,322.317 433.649,328.483 439.5,334.5C 448.993,337.249 457.993,341.082 466.5,346C 469.397,347.715 470.731,350.215 470.5,353.5C 467.223,353.784 464.057,353.451 461,352.5C 459.933,353.191 458.766,353.691 457.5,354C 464.842,362.348 471.008,371.515 476,381.5C 476.988,384.424 477.654,387.424 478,390.5C 483.847,399.194 488.347,408.528 491.5,418.5C 487.219,409.275 482.385,400.275 477,391.5C 476.654,388.424 475.988,385.424 475,382.5C 470.177,372.684 464.177,363.684 457,355.5C 456.316,354.216 456.483,353.049 457.5,352C 461.567,351.997 465.567,351.83 469.5,351.5C 468.352,349.851 467.019,348.351 465.5,347C 456.993,342.082 447.993,338.249 438.5,335.5C 430.778,326.26 422.111,318.427 412.5,312C 397.385,306.453 382.052,302.286 366.5,299.5 Z"/></g>
<g><path style="opacity:1" fill="#000000" d="M 290.5,337.5 C 302.27,337.019 313.937,337.852 325.5,340C 349.642,347.748 355.809,362.914 344,385.5C 316.934,413.062 289.6,413.396 262,386.5C 249.447,366.102 253.947,350.936 275.5,341C 280.545,339.425 285.545,338.259 290.5,337.5 Z"/></g>
<g><path style="opacity:1" fill="#444240" d="M 226.5,301.5 C 220.803,302.849 215.137,304.682 209.5,307C 200.678,310.536 193.011,315.536 186.5,322C 179.43,325.746 172.93,330.246 167,335.5C 156.081,338.294 146.081,342.961 137,349.5C 136.517,350.448 136.351,351.448 136.5,352.5C 139.002,352.251 141.502,351.917 144,351.5C 146.145,351.396 147.979,352.063 149.5,353.5C 143.75,360.418 138.583,367.751 134,375.5C 131.133,380.102 129.466,385.102 129,390.5C 123.871,399.099 119.038,407.766 114.5,416.5C 117.913,407.007 122.413,398.007 128,389.5C 128.466,384.102 130.133,379.102 133,374.5C 137.219,367.228 142.052,360.395 147.5,354C 146.975,353.308 146.308,352.808 145.5,352.5C 142.242,353.417 138.909,353.751 135.5,353.5C 135.34,351.801 135.506,350.134 136,348.5C 145.081,341.961 155.081,337.294 166,334.5C 171.93,329.246 178.43,324.746 185.5,321C 193.416,313.359 202.749,307.692 213.5,304C 217.688,302.369 222.021,301.536 226.5,301.5 Z"/></g>
<g><path style="opacity:1" fill="#434240" d="M 129.5,435.5 C 129.196,434.85 128.863,434.183 128.5,433.5C 131.433,426.467 134.766,419.634 138.5,413C 135.902,413.126 133.569,414.126 131.5,416C 127.534,418.964 123.867,422.297 120.5,426C 117.97,427.422 115.303,427.755 112.5,427C 110.963,423.052 111.63,419.552 114.5,416.5C 114.134,418.905 113.467,421.238 112.5,423.5C 113.952,426.944 116.286,427.444 119.5,425C 125.254,418.722 131.92,413.889 139.5,410.5C 139.657,411.873 139.49,413.207 139,414.5C 135.23,421.363 132.063,428.363 129.5,435.5 Z"/></g>
<g><path style="opacity:1" fill="#42403f" d="M 491.5,418.5 C 493.385,420.795 493.885,423.462 493,426.5C 490.936,427.591 488.769,427.758 486.5,427C 481.833,423 477.167,419 472.5,415C 470.598,413.699 468.598,413.032 466.5,413C 469.861,418.552 472.527,424.386 474.5,430.5C 470.426,424.349 467.426,417.683 465.5,410.5C 468.223,411.352 470.89,412.519 473.5,414C 478.167,418 482.833,422 487.5,426C 489.112,426.72 490.612,426.554 492,425.5C 492.334,423.153 492.167,420.819 491.5,418.5 Z"/></g>
<g><path style="opacity:1" fill="#835a5b" d="M 308.5,436.5 C 306.516,435.844 304.516,435.178 302.5,434.5C 297.817,436.509 293.15,438.509 288.5,440.5C 292.778,437.355 297.445,434.688 302.5,432.5C 304.911,433.361 306.911,434.694 308.5,436.5 Z"/></g>
<g><path style="opacity:1" fill="#83595a" d="M 308.5,436.5 C 316.647,439.739 324.314,443.739 331.5,448.5C 323.353,445.261 315.686,441.261 308.5,436.5 Z"/></g>
<g><path style="opacity:1" fill="#7b5354" d="M 288.5,440.5 C 280.827,445.338 272.827,449.672 264.5,453.5C 264.5,453.167 264.5,452.833 264.5,452.5C 272.217,447.975 280.217,443.975 288.5,440.5 Z"/></g>
<g><path style="opacity:1" fill="#eb989b" d="M 333.5,461.5 C 323.024,475.829 309.024,480.996 291.5,477C 282.218,474.714 275.218,469.548 270.5,461.5C 280.799,455.767 291.299,450.434 302,445.5C 312.701,450.434 323.201,455.767 333.5,461.5 Z"/></g>
<g><path style="opacity:1" fill="#353534" d="M 264.5,452.5 C 264.5,452.833 264.5,453.167 264.5,453.5C 254.546,459.48 244.212,464.98 233.5,470C 232.131,471.719 231.131,473.552 230.5,475.5C 230.104,472.956 230.771,470.789 232.5,469C 243.35,463.742 254.017,458.242 264.5,452.5 Z"/></g>
<g><path style="opacity:1" fill="#363635" d="M 470.5,464.5 C 469.883,464.611 469.383,464.944 469,465.5C 466.723,460.738 463.89,456.405 460.5,452.5C 459.571,453.689 459.238,455.022 459.5,456.5C 458.549,455.081 458.216,453.415 458.5,451.5C 460.722,451.178 462.556,451.845 464,453.5C 466.178,457.194 468.345,460.861 470.5,464.5 Z"/></g>
<g><path style="opacity:1" fill="#39302d" d="M 270.5,461.5 C 275.218,469.548 282.218,474.714 291.5,477C 309.024,480.996 323.024,475.829 333.5,461.5C 334.833,462.5 336.167,463.5 337.5,464.5C 328.978,476.259 317.311,481.926 302.5,481.5C 287.596,481.712 275.596,476.046 266.5,464.5C 267.795,463.512 269.128,462.512 270.5,461.5 Z"/></g>
<g><path style="opacity:1" fill="#3b3b3a" d="M 266.5,464.5 C 275.596,476.046 287.596,481.712 302.5,481.5C 317.311,481.926 328.978,476.259 337.5,464.5C 346.63,468.899 355.63,473.565 364.5,478.5C 366.4,488.768 369.233,498.768 373,508.5C 378.61,514.788 385.276,516.122 393,512.5C 394.324,516.446 394.991,520.446 395,524.5C 394.205,520.705 391.872,518.705 388,518.5C 384.213,521.284 380.713,524.451 377.5,528C 363.511,535.555 348.844,541.555 333.5,546C 323.755,548.289 314.088,550.789 304.5,553.5C 283.975,549.047 263.975,542.881 244.5,535C 235.659,530.933 227.992,525.433 221.5,518.5C 218.99,518.833 216.823,519.833 215,521.5C 213.822,526.543 212.489,531.543 211,536.5C 209.989,537.337 208.822,537.67 207.5,537.5C 209.045,529.188 210.545,520.854 212,512.5C 221.394,516.487 228.727,514.154 234,505.5C 236.192,496.063 238.692,486.73 241.5,477.5C 250.017,473.409 258.351,469.076 266.5,464.5 Z"/></g>
<g><path style="opacity:1" fill="#353534" d="M 340.5,453.5 C 351.267,458.383 361.934,463.55 372.5,469C 374.655,472.112 375.655,475.612 375.5,479.5C 374.55,476.233 373.216,473.067 371.5,470C 360.788,464.98 350.454,459.48 340.5,453.5 Z"/></g>
<g><path style="opacity:1" fill="#373736" d="M 404.5,514.5 C 403.21,508.581 401.71,502.581 400,496.5C 397.957,494.792 396.29,492.792 395,490.5C 393.402,495.532 390.902,500.032 387.5,504C 382.197,504.686 379.531,502.186 379.5,496.5C 380.933,498.519 382.267,500.686 383.5,503C 384.5,503.667 385.5,503.667 386.5,503C 389.977,498.545 392.811,493.712 395,488.5C 402.121,495.609 405.288,504.275 404.5,514.5 Z"/></g>
<g><path style="opacity:1" fill="#3a3a39" d="M 426.5,507.5 C 425.13,503.571 423.63,499.571 422,495.5C 421.097,505.336 419.93,515.002 418.5,524.5C 419.146,513.847 419.646,503.18 420,492.5C 420.667,491.167 421.333,491.167 422,492.5C 424.617,497.183 426.117,502.183 426.5,507.5 Z"/></g>
<g><path style="opacity:1" fill="#373736" d="M 186.5,520.5 C 185.732,519.737 185.232,518.737 185,517.5C 184.667,509.833 184.333,502.167 184,494.5C 181.081,499.421 179.248,504.754 178.5,510.5C 178.253,511.713 177.586,512.38 176.5,512.5C 177.596,504.875 180.263,497.875 184.5,491.5C 185.273,501.172 185.94,510.839 186.5,520.5 Z"/></g>
<g><path style="opacity:1" fill="#333332" d="M 226.5,493.5 C 226.382,496.688 225.549,499.688 224,502.5C 220.706,505.311 217.706,504.978 215,501.5C 213.059,497.952 211.393,494.286 210,490.5C 209.623,491.942 208.79,492.942 207.5,493.5C 207.795,491.577 208.628,489.91 210,488.5C 211.993,492.465 213.993,496.465 216,500.5C 218.034,503.859 220.368,504.192 223,501.5C 224.093,498.691 225.26,496.024 226.5,493.5 Z"/></g>
<g><path style="opacity:1" fill="#3c3c3b" d="M 404.5,514.5 C 406.508,520.543 407.508,526.876 407.5,533.5C 405.776,527.413 404.776,521.08 404.5,514.5 Z"/></g>
</svg>
