<?xml version="1.0" encoding="UTF-8"?>
<!DOCTYPE svg PUBLIC "-//W3C//DTD SVG 1.1//EN" "http://www.w3.org/Graphics/SVG/1.1/DTD/svg11.dtd">
<svg xmlns="http://www.w3.org/2000/svg" version="1.1" width="600px" height="600px" style="shape-rendering:geometricPrecision; text-rendering:geometricPrecision; image-rendering:optimizeQuality; fill-rule:evenodd; clip-rule:evenodd" xmlns:xlink="http://www.w3.org/1999/xlink">
<g><path style="opacity:0.97" fill="#010101" d="M 599.5,381.5 C 599.5,417.167 599.5,452.833 599.5,488.5C 598.171,492.774 596.671,497.107 595,501.5C 590.667,507.167 585.667,512.167 580,516.5C 574.681,526.468 569.348,536.468 564,546.5C 556.202,559.25 544.702,565.75 529.5,566C 508.164,574.835 486.164,581.335 463.5,585.5C 451.207,581.361 438.874,577.194 426.5,573C 410.46,569.653 395.126,564.32 380.5,557C 373.667,552.833 368.167,547.333 364,540.5C 334.853,555.479 304.353,558.979 272.5,551C 260.329,548.057 248.829,543.557 238,537.5C 230.615,549.209 220.449,557.709 207.5,563C 183.507,569.609 159.84,577.109 136.5,585.5C 113.836,581.335 91.8356,574.835 70.5,566C 55.298,565.75 43.798,559.25 36,546.5C 30.6519,536.468 25.3186,526.468 20,516.5C 14.3333,512.167 9.33333,507.167 5,501.5C 2.51516,494.882 0.681829,488.215 -0.5,481.5C -0.5,449.5 -0.5,417.5 -0.5,385.5C 4.69568,372.912 5.69568,359.912 2.5,346.5C 3.25962,340.767 4.42629,335.101 6,329.5C 12.1372,315.226 18.8039,301.226 26,287.5C 27.6907,276.715 30.024,266.048 33,255.5C 43.2675,236.908 53.9342,218.574 65,200.5C 65.9214,186.719 70.9214,174.719 80,164.5C 85,159.5 90,154.5 95,149.5C 91.7598,137.39 94.9264,127.223 104.5,119C 103.437,111.502 105.271,104.669 110,98.5C 113.333,95.8333 116.667,93.1667 120,90.5C 122.284,78.2155 129.451,70.3822 141.5,67C 145.114,59.719 150.448,54.0523 157.5,50C 162.511,48.3297 167.511,46.663 172.5,45C 176.143,39.34 181.143,35.34 187.5,33C 193.696,31.0275 200.029,29.6941 206.5,29C 217.645,20.4297 230.312,16.763 244.5,18C 258.536,11.6065 273.203,9.60653 288.5,12C 293.394,10.3878 298.394,9.22112 303.5,8.5C 308.606,9.22112 313.606,10.3878 318.5,12C 327.17,12.0947 335.837,12.0947 344.5,12C 350.518,13.0059 356.184,15.0059 361.5,18C 376.029,16.6314 389.029,20.298 400.5,29C 410.668,29.5393 420.002,32.5393 428.5,38C 430.874,40.039 432.874,42.3723 434.5,45C 448.475,47.3229 458.808,54.6562 465.5,67C 477.549,70.3822 484.716,78.2155 487,90.5C 498.344,97.1791 504.011,107.179 504,120.5C 509.673,125.345 512.839,131.511 513.5,139C 511.962,142.724 511.462,146.557 512,150.5C 514.414,153.815 516.081,157.482 517,161.5C 527.496,171.16 533.162,183.16 534,197.5C 540.393,211.291 548.06,224.291 557,236.5C 560.588,242.675 563.922,249.009 567,255.5C 569.976,266.048 572.309,276.715 574,287.5C 582.079,302.326 589.079,317.659 595,333.5C 597.009,340.181 597.342,346.847 596,353.5C 594.766,363.258 595.932,372.591 599.5,381.5 Z"/></g>
<g><path style="opacity:1" fill="#918e8e" d="M 506.5,166.5 C 504.139,170.389 502.472,174.555 501.5,179C 503.243,183.69 503.743,188.523 503,193.5C 500.842,197.81 498.175,201.81 495,205.5C 494.827,210.584 494.161,215.584 493,220.5C 489.278,224.725 485.112,228.392 480.5,231.5C 479.453,238.095 476.453,243.595 471.5,248C 467.039,250.064 462.706,252.398 458.5,255C 454.529,263.474 448.196,269.307 439.5,272.5C 436.48,271.528 433.48,272.028 430.5,274C 426.804,278.358 422.47,282.025 417.5,285C 410.854,286.497 404.187,287.83 397.5,289C 386.604,297.406 374.27,300.74 360.5,299C 355.603,301.283 350.603,303.283 345.5,305C 338.535,305.848 331.701,305.348 325,303.5C 317.593,305.358 310.093,306.691 302.5,307.5C 295.694,306.785 289.028,305.452 282.5,303.5C 275.565,305.055 268.565,305.555 261.5,305C 256.397,303.283 251.397,301.283 246.5,299C 232.924,300.942 220.924,297.609 210.5,289C 201.245,288.753 192.578,286.42 184.5,282C 180.066,274.495 173.733,271.328 165.5,272.5C 161.542,269.715 157.709,266.715 154,263.5C 152.698,259.726 150.531,256.559 147.5,254C 141.238,251.623 135.738,248.123 131,243.5C 129.416,239.575 128.083,235.575 127,231.5C 122.815,228.405 118.815,225.072 115,221.5C 114.333,220.167 113.667,218.833 113,217.5C 112.667,213.167 112.333,208.833 112,204.5C 108.947,201.113 106.28,197.447 104,193.5C 103.502,190.518 103.335,187.518 103.5,184.5C 105.427,181.863 105.927,178.863 105,175.5C 102.935,172.04 101.435,168.374 100.5,164.5C 100.964,161.583 101.964,158.916 103.5,156.5C 105.452,154.422 106.452,151.922 106.5,149C 105.097,144.236 104.597,139.403 105,134.5C 107.761,130.65 110.761,126.983 114,123.5C 114.333,119.167 114.667,114.833 115,110.5C 115.667,109.167 116.333,107.833 117,106.5C 121,103.167 125,99.8333 129,96.5C 129.566,88.8616 133.066,83.0282 139.5,79C 142.956,77.5186 146.289,75.852 149.5,74C 152.349,69.306 155.682,64.9727 159.5,61C 165.291,58.0708 171.291,55.7374 177.5,54C 185.598,43.6188 196.264,38.6188 209.5,39C 214.542,35.4793 219.875,32.4793 225.5,30C 237.558,31.038 248.891,28.7047 259.5,23C 267.178,22.4025 274.845,22.5691 282.5,23.5C 289.106,21.9674 295.773,20.634 302.5,19.5C 309.588,20.4192 316.588,21.7526 323.5,23.5C 331.152,22.5192 338.819,22.3526 346.5,23C 351.167,25 355.833,27 360.5,29C 374.188,26.8574 386.188,30.1907 396.5,39C 402.484,40.0725 408.484,41.0725 414.5,42C 420.057,44.2239 424.39,47.8905 427.5,53C 434.155,55.6653 440.822,58.332 447.5,61C 451.318,64.9727 454.651,69.306 457.5,74C 463.515,76.6794 469.015,80.1794 474,84.5C 475.947,88.2842 477.28,92.2842 478,96.5C 482,99.8333 486,103.167 490,106.5C 492.095,111.577 493.095,116.91 493,122.5C 496.322,126.169 499.322,130.169 502,134.5C 502.403,139.403 501.903,144.236 500.5,149C 500.788,152.743 502.288,155.91 505,158.5C 506.079,161.063 506.579,163.729 506.5,166.5 Z"/></g>
<g><path style="opacity:1" fill="#5e5f5f" d="M 103.5,156.5 C 101.964,158.916 100.964,161.583 100.5,164.5C 101.435,168.374 102.935,172.04 105,175.5C 105.927,178.863 105.427,181.863 103.5,184.5C 103.723,182.658 104.057,180.825 104.5,179C 101.859,174.541 100.192,169.707 99.5,164.5C 99.2641,160.971 100.597,158.305 103.5,156.5 Z"/></g>
<g><path style="opacity:1" fill="#606262" d="M 89.5,169.5 C 90.9711,173.007 92.3045,176.674 93.5,180.5C 90.6224,191.679 93.1224,201.346 101,209.5C 100.898,215.845 102.232,221.845 105,227.5C 108.7,231.535 112.7,235.202 117,238.5C 120.274,250.444 127.774,258.611 139.5,263C 144.667,270.833 151.167,277.333 159,282.5C 158.153,289.256 157.653,296.089 157.5,303C 157.683,311.6 158.683,320.1 160.5,328.5C 157.988,343.964 159.488,358.964 165,373.5C 163.302,390.34 166.636,406.007 175,420.5C 175.882,429.316 177.548,437.982 180,446.5C 182.941,451.772 186.274,456.772 190,461.5C 191.116,472.394 195.449,481.728 203,489.5C 205.218,497.362 207.885,505.029 211,512.5C 215.905,519.808 221.405,526.642 227.5,533C 222.527,542.669 214.86,549.336 204.5,553C 188.904,557.865 173.237,562.532 157.5,567C 152.167,569.333 146.833,571.667 141.5,574C 129.5,574.201 117.833,572.201 106.5,568C 88.7283,561.187 70.7283,555.187 52.5,550C 51,548.5 49.5,547 48,545.5C 41.3333,533.5 34.6667,521.5 28,509.5C 24.61,505.607 20.7767,502.273 16.5,499.5C 13.4561,495.339 11.6228,490.672 11,485.5C 9.9531,472.187 9.28643,458.854 9,445.5C 8.36991,439.349 6.36991,433.682 3,428.5C 2.33333,423.167 2.33333,417.833 3,412.5C 7.61518,396.988 11.6152,381.322 15,365.5C 15.5849,358.598 15.0849,351.765 13.5,345C 13.9014,339.66 15.0681,334.493 17,329.5C 23.3333,316.5 29.6667,303.5 36,290.5C 38.7024,283.075 40.0357,275.409 40,267.5C 42.1737,260.152 45.1737,253.152 49,246.5C 58.4206,232.665 67.0873,218.332 75,203.5C 76.0562,197.105 77.3895,190.772 79,184.5C 81.9413,179.067 85.4413,174.067 89.5,169.5 Z"/></g>
<g><path style="opacity:1" fill="#606262" d="M 514.5,176.5 C 517.346,178.475 519.513,181.141 521,184.5C 522.051,196.373 525.718,207.373 532,217.5C 541.127,230.64 549.461,244.306 557,258.5C 559.81,265.208 561.143,272.208 561,279.5C 561.844,283.211 562.844,286.877 564,290.5C 568.791,301.414 574.124,312.081 580,322.5C 582.595,327.951 584.595,333.618 586,339.5C 585.536,348.156 585.203,356.823 585,365.5C 588.527,381.273 592.527,396.94 597,412.5C 598.638,421.059 597.304,429.059 593,436.5C 592.461,439.529 591.794,442.529 591,445.5C 590.714,458.854 590.047,472.187 589,485.5C 588.28,489.716 586.947,493.716 585,497.5C 580.708,501.491 576.375,505.491 572,509.5C 566.158,519.183 560.824,529.183 556,539.5C 549.418,550.547 539.584,556.047 526.5,556C 509.668,562.126 492.668,567.793 475.5,573C 469.558,574.406 463.558,574.739 457.5,574C 453.286,571.726 448.953,569.726 444.5,568C 428.016,563.463 411.683,558.463 395.5,553C 386.644,549.246 379.311,543.579 373.5,536C 382.997,528.825 390.497,519.992 396,509.5C 399.266,502.472 401.932,495.139 404,487.5C 406.744,485.016 408.744,482.016 410,478.5C 411.958,473.335 413.291,468.001 414,462.5C 417.333,457.833 420.667,453.167 424,448.5C 427.375,439.138 429.375,429.471 430,419.5C 438.414,406.115 441.747,391.448 440,375.5C 446.143,360.511 447.643,345.011 444.5,329C 446.263,320.42 447.263,311.753 447.5,303C 447.379,296.415 446.879,289.915 446,283.5C 455.121,278.046 462.621,270.88 468.5,262C 471.376,261.562 474.043,260.562 476.5,259C 479.667,255.833 482.833,252.667 486,249.5C 487.927,246.052 489.261,242.385 490,238.5C 494.634,234.868 498.967,230.868 503,226.5C 504.851,220.992 505.851,215.325 506,209.5C 509.93,205.912 512.597,201.579 514,196.5C 514.264,189.745 514.43,183.078 514.5,176.5 Z"/></g>
<g><path style="opacity:1" fill="#5b5d5d" d="M 506.5,166.5 C 507.043,166.56 507.376,166.893 507.5,167.5C 505.947,171.434 504.28,175.268 502.5,179C 504.404,184.346 504.904,189.846 504,195.5C 501.578,199.344 498.911,203.01 496,206.5C 495.827,211.584 495.161,216.584 494,221.5C 489.967,225.868 485.634,229.868 481,233.5C 480.027,240.281 476.86,245.781 471.5,250C 467.29,251.623 463.29,253.623 459.5,256C 456.079,263.755 450.413,269.088 442.5,272C 437.933,275.562 435.6,280.229 435.5,286C 438.292,299.572 437.959,313.072 434.5,326.5C 433.861,325.903 433.528,325.07 433.5,324C 435.214,317.266 436.214,310.432 436.5,303.5C 435.016,295.562 434.516,287.562 435,279.5C 436.511,277.138 438.011,274.805 439.5,272.5C 448.196,269.307 454.529,263.474 458.5,255C 462.706,252.398 467.039,250.064 471.5,248C 476.453,243.595 479.453,238.095 480.5,231.5C 485.112,228.392 489.278,224.725 493,220.5C 494.161,215.584 494.827,210.584 495,205.5C 498.175,201.81 500.842,197.81 503,193.5C 503.743,188.523 503.243,183.69 501.5,179C 502.472,174.555 504.139,170.389 506.5,166.5 Z"/></g>
<g><path style="opacity:1" fill="#a19e9e" d="M 439.5,272.5 C 438.011,274.805 436.511,277.138 435,279.5C 434.516,287.562 435.016,295.562 436.5,303.5C 436.214,310.432 435.214,317.266 433.5,324C 433.528,325.07 433.861,325.903 434.5,326.5C 434.5,329.5 434.5,332.5 434.5,335.5C 433.718,332.286 432.885,328.952 432,325.5C 422.614,321.306 413.447,321.639 404.5,326.5C 400.218,312.848 390.885,307.014 376.5,309C 365.673,312.654 360.006,320.154 359.5,331.5C 331.498,331.667 303.498,331.5 275.5,331C 267.903,325.077 260.57,318.744 253.5,312C 244.471,305.469 235.138,304.303 225.5,308.5C 218.58,307.918 212.58,309.918 207.5,314.5C 195.589,301.086 183.089,288.086 170,275.5C 169.536,276.094 169.369,276.761 169.5,277.5C 168.197,275.858 166.864,274.191 165.5,272.5C 173.733,271.328 180.066,274.495 184.5,282C 192.578,286.42 201.245,288.753 210.5,289C 220.924,297.609 232.924,300.942 246.5,299C 251.397,301.283 256.397,303.283 261.5,305C 268.565,305.555 275.565,305.055 282.5,303.5C 289.028,305.452 295.694,306.785 302.5,307.5C 310.093,306.691 317.593,305.358 325,303.5C 331.701,305.348 338.535,305.848 345.5,305C 350.603,303.283 355.603,301.283 360.5,299C 374.27,300.74 386.604,297.406 397.5,289C 404.187,287.83 410.854,286.497 417.5,285C 422.47,282.025 426.804,278.358 430.5,274C 433.48,272.028 436.48,271.528 439.5,272.5 Z"/></g>
<g><path style="opacity:1" fill="#a5a2a2" d="M 207.5,314.5 C 207.5,314.833 207.5,315.167 207.5,315.5C 201.46,320.788 199.294,327.454 201,335.5C 201.438,338.376 202.438,341.043 204,343.5C 213.129,353.148 223.629,354.982 235.5,349C 245.997,339.562 247.497,329.062 240,317.5C 237.372,314.79 234.539,312.456 231.5,310.5C 229.786,309.262 227.786,308.595 225.5,308.5C 235.138,304.303 244.471,305.469 253.5,312C 260.57,318.744 267.903,325.077 275.5,331C 303.498,331.5 331.498,331.667 359.5,331.5C 364.78,350.14 376.446,355.973 394.5,349C 401.506,343.152 404.84,335.652 404.5,326.5C 413.447,321.639 422.614,321.306 432,325.5C 432.885,328.952 433.718,332.286 434.5,335.5C 436.808,342.652 436.975,349.985 435,357.5C 430.147,370.016 428.147,383.016 429,396.5C 428.61,399.104 427.776,401.438 426.5,403.5C 421.734,409.535 418.734,416.368 417.5,424C 417.528,425.07 417.861,425.903 418.5,426.5C 418.5,438.013 414.333,447.68 406,455.5C 404.207,461.463 402.541,467.463 401,473.5C 399.651,477.533 397.318,480.866 394,483.5C 393.313,487.58 392.313,491.58 391,495.5C 389.667,496.833 388.333,496.833 387,495.5C 388.267,500.888 387.267,505.888 384,510.5C 381.667,513.5 379.333,516.5 377,519.5C 373.703,521.795 370.703,524.462 368,527.5C 367.586,527.043 367.086,526.709 366.5,526.5C 361.025,530.571 355.025,533.571 348.5,535.5C 348.509,533.692 348.009,532.025 347,530.5C 346.402,533.308 345.235,535.808 343.5,538C 319.081,545.282 294.414,545.948 269.5,540C 263.394,539.06 259.727,535.56 258.5,529.5C 257.548,531.045 257.215,532.712 257.5,534.5C 248.848,532.341 241.181,528.341 234.5,522.5C 229.072,517.572 224.572,511.905 221,505.5C 220.233,501.442 220.4,497.442 221.5,493.5C 221.167,493.167 220.833,492.833 220.5,492.5C 219.15,493.95 217.484,494.617 215.5,494.5C 215.154,491.115 214.488,487.782 213.5,484.5C 206.046,476.764 201.879,467.431 201,456.5C 196.943,451.442 193.276,446.108 190,440.5C 188.585,432.184 187.252,423.85 186,415.5C 177.325,402.135 173.991,387.468 176,371.5C 170.523,357.61 169.023,343.276 171.5,328.5C 170.372,320.189 169.372,311.855 168.5,303.5C 168.382,297.638 169.382,291.971 171.5,286.5C 170.936,283.435 170.269,280.435 169.5,277.5C 169.369,276.761 169.536,276.094 170,275.5C 183.089,288.086 195.589,301.086 207.5,314.5 Z"/></g>
<g><path style="opacity:1" fill="#040303" d="M 231.5,310.5 C 234.539,312.456 237.372,314.79 240,317.5C 247.497,329.062 245.997,339.562 235.5,349C 223.629,354.982 213.129,353.148 204,343.5C 202.438,341.043 201.438,338.376 201,335.5C 199.294,327.454 201.46,320.788 207.5,315.5C 210.834,313.166 214.501,311.333 218.5,310C 222.859,309.466 227.192,309.632 231.5,310.5 Z"/></g>
<g><path style="opacity:1" fill="#060505" d="M 404.5,326.5 C 404.84,335.652 401.506,343.152 394.5,349C 376.446,355.973 364.78,350.14 359.5,331.5C 360.006,320.154 365.673,312.654 376.5,309C 390.885,307.014 400.218,312.848 404.5,326.5 Z"/></g>
<g><path style="opacity:1" fill="#393432" d="M 225.5,308.5 C 227.786,308.595 229.786,309.262 231.5,310.5C 227.192,309.632 222.859,309.466 218.5,310C 214.501,311.333 210.834,313.166 207.5,315.5C 207.5,315.167 207.5,314.833 207.5,314.5C 212.58,309.918 218.58,307.918 225.5,308.5 Z"/></g>
<g><path style="opacity:1" fill="#362e2a" d="M 229.5,321.5 C 228.5,321.5 227.5,321.5 226.5,321.5C 226.209,327.555 228.876,329.889 234.5,328.5C 234.694,338.807 229.694,343.307 219.5,342C 209.721,335.879 209.054,328.879 217.5,321C 221.69,318.964 225.69,319.131 229.5,321.5 Z"/></g>
<g><path style="opacity:1" fill="#352d29" d="M 386.5,320.5 C 383.347,324.673 384.347,327.673 389.5,329.5C 390.849,329.154 392.183,328.821 393.5,328.5C 393.694,338.807 388.694,343.307 378.5,342C 367.844,334.718 367.844,327.384 378.5,320C 381.367,319.199 384.034,319.366 386.5,320.5 Z"/></g>
<g><path style="opacity:1" fill="#e7e6e6" d="M 229.5,321.5 C 231.9,323.296 233.567,325.63 234.5,328.5C 228.876,329.889 226.209,327.555 226.5,321.5C 227.5,321.5 228.5,321.5 229.5,321.5 Z"/></g>
<g><path style="opacity:1" fill="#e4e4e4" d="M 386.5,320.5 C 390.26,321.926 392.593,324.593 393.5,328.5C 392.183,328.821 390.849,329.154 389.5,329.5C 384.347,327.673 383.347,324.673 386.5,320.5 Z"/></g>
<g><path style="opacity:1" fill="#5f6060" d="M 426.5,403.5 C 424.979,407.559 423.146,411.559 421,415.5C 419.846,419.104 419.013,422.771 418.5,426.5C 417.861,425.903 417.528,425.07 417.5,424C 418.734,416.368 421.734,409.535 426.5,403.5 Z"/></g>
<g><path style="opacity:1" fill="#0a0a09" d="M 291.5,486.5 C 289.167,483.5 286.5,480.833 283.5,478.5C 276.793,470.671 274.627,461.671 277,451.5C 280.157,444.354 285.657,440.187 293.5,439C 306.875,435.873 319.542,437.539 331.5,444C 337.164,450.059 338.998,457.226 337,465.5C 335.885,469.729 334.219,473.729 332,477.5C 328.167,480 325,483.167 322.5,487C 311.957,494.407 301.623,494.24 291.5,486.5 Z"/></g>
<g><path style="opacity:1" fill="#231815" d="M 298.5,448.5 C 305.563,448.212 312.563,448.712 319.5,450C 324.18,451.51 326.847,454.677 327.5,459.5C 325.293,469.42 319.626,476.587 310.5,481C 299.563,481.096 292.063,475.929 288,465.5C 285.122,455.881 288.622,450.214 298.5,448.5 Z"/></g>
<g><path style="opacity:1" fill="#5d5f5f" d="M 103.5,184.5 C 103.335,187.518 103.502,190.518 104,193.5C 106.28,197.447 108.947,201.113 112,204.5C 112.333,208.833 112.667,213.167 113,217.5C 113.667,218.833 114.333,220.167 115,221.5C 118.815,225.072 122.815,228.405 127,231.5C 128.083,235.575 129.416,239.575 131,243.5C 135.738,248.123 141.238,251.623 147.5,254C 150.531,256.559 152.698,259.726 154,263.5C 157.709,266.715 161.542,269.715 165.5,272.5C 166.864,274.191 168.197,275.858 169.5,277.5C 170.269,280.435 170.936,283.435 171.5,286.5C 169.382,291.971 168.382,297.638 168.5,303.5C 169.372,311.855 170.372,320.189 171.5,328.5C 169.023,343.276 170.523,357.61 176,371.5C 173.991,387.468 177.325,402.135 186,415.5C 187.252,423.85 188.585,432.184 190,440.5C 193.276,446.108 196.943,451.442 201,456.5C 201.879,467.431 206.046,476.764 213.5,484.5C 214.488,487.782 215.154,491.115 215.5,494.5C 217.484,494.617 219.15,493.95 220.5,492.5C 220.833,492.833 221.167,493.167 221.5,493.5C 220.4,497.442 220.233,501.442 221,505.5C 224.572,511.905 229.072,517.572 234.5,522.5C 234.103,523.525 233.437,523.692 232.5,523C 225.529,517.041 220.862,509.707 218.5,501C 218.603,499.439 218.937,497.939 219.5,496.5C 218.152,496.55 216.652,496.217 215,495.5C 214.607,488.961 211.94,483.627 207,479.5C 203.284,472.975 200.951,465.975 200,458.5C 196.333,452.833 192.667,447.167 189,441.5C 187.142,433.595 185.809,425.595 185,417.5C 176.447,403.743 173.114,388.743 175,372.5C 169.472,358.288 167.972,343.621 170.5,328.5C 169.111,320.219 168.111,311.885 167.5,303.5C 167.486,297.582 168.152,291.749 169.5,286C 169.469,279.606 166.803,274.606 161.5,271C 158.217,269.439 155.383,267.273 153,264.5C 151.204,261.073 149.037,257.906 146.5,255C 140.238,252.623 134.738,249.123 130,244.5C 128.416,240.575 127.083,236.575 126,232.5C 121.815,229.405 117.815,226.072 114,222.5C 113.333,221.167 112.667,219.833 112,218.5C 111.667,214.167 111.333,209.833 111,205.5C 107.917,202.092 105.251,198.425 103,194.5C 102.192,190.973 102.359,187.64 103.5,184.5 Z"/></g>
<g><path style="opacity:1" fill="#4d4949" d="M 283.5,478.5 C 286.5,480.833 289.167,483.5 291.5,486.5C 287.833,484.833 285.167,482.167 283.5,478.5 Z"/></g>
<g><path style="opacity:1" fill="#181717" d="M 296.5,509.5 C 302.343,510.576 308.177,510.576 314,509.5C 317.439,510.056 318.272,511.889 316.5,515C 309.778,516.993 303.111,516.826 296.5,514.5C 295.334,512.833 295.334,511.166 296.5,509.5 Z"/></g>
</svg>
