<?xml version="1.0" encoding="UTF-8"?>
<!DOCTYPE svg PUBLIC "-//W3C//DTD SVG 1.1//EN" "http://www.w3.org/Graphics/SVG/1.1/DTD/svg11.dtd">
<svg xmlns="http://www.w3.org/2000/svg" version="1.1" width="600px" height="600px" style="shape-rendering:geometricPrecision; text-rendering:geometricPrecision; image-rendering:optimizeQuality; fill-rule:evenodd; clip-rule:evenodd" xmlns:xlink="http://www.w3.org/1999/xlink">
<g><path style="opacity:0.951" fill="#020202" d="M 599.5,239.5 C 599.5,253.833 599.5,268.167 599.5,282.5C 589.717,304.743 579.884,327.077 570,349.5C 560.504,376.819 553.837,404.819 550,433.5C 545.794,446.017 537.294,450.85 524.5,448C 517.216,445.101 511.049,440.601 506,434.5C 486.909,412.19 473.075,386.857 464.5,358.5C 455.215,385.638 444.715,412.305 433,438.5C 428.946,455.933 426.613,473.599 426,491.5C 423.89,515.238 413.39,534.072 394.5,548C 374.413,558.193 355.58,556.359 338,542.5C 313.323,551.449 288.489,551.782 263.5,543.5C 255.338,548.14 246.671,551.64 237.5,554C 218.997,555.997 203.83,549.831 192,535.5C 187.163,528.496 182.829,521.163 179,513.5C 173.219,494.618 170.886,475.284 172,455.5C 170.795,448.473 169.461,441.473 168,434.5C 160.608,416.717 152.942,399.05 145,381.5C 141.601,372.637 138.601,363.637 136,354.5C 127.505,383.827 113.505,410.161 94,433.5C 87.4561,442.018 78.9561,447.352 68.5,449.5C 58.1302,448.298 51.6302,442.632 49,432.5C 45.4673,404.835 39.134,377.835 30,351.5C 19.5017,328.184 9.33499,304.85 -0.5,281.5C -0.5,266.833 -0.5,252.167 -0.5,237.5C 14.1225,211.345 32.4558,187.845 54.5,167C 77.17,145.32 101.837,126.32 128.5,110C 143.464,101.234 159.464,95.2343 176.5,92C 190.661,81.4202 206.328,73.7535 223.5,69C 274.176,55.0862 324.842,55.0862 375.5,69C 392.228,74.0306 407.561,81.6973 421.5,92C 439.692,95.1745 456.692,101.508 472.5,111C 514.847,136.801 551.014,169.635 581,209.5C 587.944,219.062 594.111,229.062 599.5,239.5 Z"/></g>
<g><path style="opacity:1" fill="#898a92" d="M 417.5,102.5 C 415.775,102.843 415.275,103.843 416,105.5C 418.167,107 420.333,108.5 422.5,110C 423.823,110.816 424.489,111.983 424.5,113.5C 443.398,157.115 456.398,201.781 463.5,247.5C 464.527,263.683 465.527,280.017 466.5,296.5C 462.834,316.319 458.667,336.319 454,356.5C 444.88,382.978 434.547,408.978 423,434.5C 418.287,453.206 415.62,472.206 415,491.5C 413.173,509.017 406.006,523.851 393.5,536C 375.204,548.277 357.871,546.944 341.5,532C 340.552,531.517 339.552,531.351 338.5,531.5C 331.025,524.865 323.358,518.365 315.5,512C 306.33,506.519 296.997,506.186 287.5,511C 278.352,517.654 269.685,524.82 261.5,532.5C 260.883,532.389 260.383,532.056 260,531.5C 238.346,549.797 218.012,548.463 199,527.5C 190.266,515.638 185.266,502.304 184,487.5C 184.557,469.603 182.89,451.936 179,434.5C 169.333,411.167 159.667,387.833 150,364.5C 142.133,341.248 136.633,317.581 133.5,293.5C 133.179,288.305 133.513,283.305 134.5,278.5C 137.438,233.959 146.605,189.959 162,146.5C 166.37,134.099 171.537,122.099 177.5,110.5C 178.976,108.5 180.809,106.833 183,105.5C 183.483,104.552 183.649,103.552 183.5,102.5C 182.5,102.5 181.5,102.5 180.5,102.5C 194.595,90.9511 210.595,82.7845 228.5,78C 274.427,67.0792 320.427,66.7458 366.5,77C 385.504,81.8352 402.504,90.3352 417.5,102.5 Z"/></g>
<g><path style="opacity:1" fill="#91929b" d="M 180.5,102.5 C 181.5,102.5 182.5,102.5 183.5,102.5C 183.649,103.552 183.483,104.552 183,105.5C 180.809,106.833 178.976,108.5 177.5,110.5C 164.704,122.153 155.204,136.153 149,152.5C 142.56,173.339 138.56,194.672 137,216.5C 135.667,237.148 134.834,257.815 134.5,278.5C 133.513,283.305 133.179,288.305 133.5,293.5C 133.483,342.639 118.316,386.306 88,424.5C 83.8006,429.034 79.3006,433.201 74.5,437C 67.0747,440.204 61.9081,438.037 59,430.5C 55.347,402.542 49.0136,375.209 40,348.5C 29.1103,324.723 18.7769,300.723 9,276.5C 4.30023,260.214 6.30023,244.881 15,230.5C 47.4657,184.699 87.6324,147.199 135.5,118C 149.407,109.531 164.407,104.365 180.5,102.5 Z"/></g>
<g><path style="opacity:1" fill="#91929b" d="M 417.5,102.5 C 434.741,104.303 450.741,109.803 465.5,119C 513.162,148.329 552.662,186.163 584,232.5C 593.087,247.39 594.754,263.057 589,279.5C 579.609,301.95 569.942,324.283 560,346.5C 550.534,374.899 543.534,403.899 539,433.5C 535.1,438.533 530.267,439.7 524.5,437C 506.894,420.648 493.061,401.482 483,379.5C 472.363,352.887 466.863,325.22 466.5,296.5C 465.527,280.017 464.527,263.683 463.5,247.5C 462.929,219.527 459.762,191.86 454,164.5C 449.277,144.367 439.444,127.367 424.5,113.5C 424.489,111.983 423.823,110.816 422.5,110C 420.333,108.5 418.167,107 416,105.5C 415.275,103.843 415.775,102.843 417.5,102.5 Z"/></g>
<g><path style="opacity:1" fill="#494a4a" d="M 177.5,110.5 C 171.537,122.099 166.37,134.099 162,146.5C 146.605,189.959 137.438,233.959 134.5,278.5C 134.834,257.815 135.667,237.148 137,216.5C 138.56,194.672 142.56,173.339 149,152.5C 155.204,136.153 164.704,122.153 177.5,110.5 Z"/></g>
<g><path style="opacity:1" fill="#484948" d="M 424.5,113.5 C 439.444,127.367 449.277,144.367 454,164.5C 459.762,191.86 462.929,219.527 463.5,247.5C 456.398,201.781 443.398,157.115 424.5,113.5 Z"/></g>
<g><path style="opacity:1" fill="#6f737c" d="M 212.5,193.5 C 232.93,191.782 246.763,200.448 254,219.5C 256.969,242.738 247.136,257.238 224.5,263C 205.089,263.712 192.255,254.878 186,236.5C 183.155,214.841 191.988,200.507 212.5,193.5 Z"/></g>
<g><path style="opacity:1" fill="#6f737b" d="M 373.5,193.5 C 395.758,191.626 409.924,201.292 416,222.5C 417.233,244.598 407.067,258.098 385.5,263C 358.087,262.247 345.254,248.081 347,220.5C 351.351,206.984 360.184,197.984 373.5,193.5 Z"/></g>
<g><path style="opacity:1" fill="#221b18" d="M 219.5,204.5 C 241.647,209.127 248.147,221.794 239,242.5C 231.197,251.16 221.697,253.66 210.5,250C 198.716,242.988 194.55,232.821 198,219.5C 202.444,210.379 209.611,205.379 219.5,204.5 Z"/></g>
<g><path style="opacity:1" fill="#221b18" d="M 380.5,204.5 C 397.799,206.41 405.633,216.077 404,233.5C 399.648,247.597 390.148,253.43 375.5,251C 360.987,245.811 355.487,235.645 359,220.5C 362.966,210.682 370.132,205.348 380.5,204.5 Z"/></g>
<g><path style="opacity:1" fill="#f2f2f2" d="M 224.5,216.5 C 232.867,216.739 235.2,220.572 231.5,228C 223.809,231.306 220.309,228.806 221,220.5C 221.69,218.65 222.856,217.316 224.5,216.5 Z"/></g>
<g><path style="opacity:1" fill="#f1f1f1" d="M 386.5,216.5 C 393.771,216.036 396.604,219.369 395,226.5C 390.601,230.654 386.601,230.321 383,225.5C 382.333,223.833 382.333,222.167 383,220.5C 384.376,219.295 385.542,217.962 386.5,216.5 Z"/></g>
<g><path style="opacity:1" fill="#221b18" d="M 285.5,388.5 C 298.996,387.944 312.329,389.11 325.5,392C 348.88,400.137 355.047,415.304 344,437.5C 315.703,468.63 286.703,469.296 257,439.5C 245.661,422.834 247.828,408 263.5,395C 270.606,391.623 277.94,389.457 285.5,388.5 Z"/></g>
<g><path style="opacity:1" fill="#60626a" d="M 338.5,531.5 C 321.173,538.415 303.173,540.582 284.5,538C 276.701,536.633 269.034,534.8 261.5,532.5C 269.685,524.82 278.352,517.654 287.5,511C 296.997,506.186 306.33,506.519 315.5,512C 323.358,518.365 331.025,524.865 338.5,531.5 Z"/></g>
</svg>
