<?xml version="1.0" encoding="UTF-8"?>
<!DOCTYPE svg PUBLIC "-//W3C//DTD SVG 1.1//EN" "http://www.w3.org/Graphics/SVG/1.1/DTD/svg11.dtd">
<svg xmlns="http://www.w3.org/2000/svg" version="1.1" width="600px" height="600px" style="shape-rendering:geometricPrecision; text-rendering:geometricPrecision; image-rendering:optimizeQuality; fill-rule:evenodd; clip-rule:evenodd" xmlns:xlink="http://www.w3.org/1999/xlink">
<g><path style="opacity:0.957" fill="#010101" d="M 350.5,599.5 C 318.5,599.5 286.5,599.5 254.5,599.5C 236.711,595.355 220.877,587.355 207,575.5C 204.096,578.809 200.429,580.809 196,581.5C 187.584,579.696 179.75,576.53 172.5,572C 171.167,570 169.833,568 168.5,566C 161.577,565.372 155.911,562.372 151.5,557C 144.872,555.708 140.372,551.874 138,545.5C 137.265,543.129 136.432,540.795 135.5,538.5C 127.715,537.959 120.382,535.459 113.5,531C 89.8155,517.65 71.9822,498.817 60,474.5C 59.1667,471.167 58.3333,467.833 57.5,464.5C 62.3785,454.073 66.7118,443.407 70.5,432.5C 64.3542,435.201 58.5209,434.534 53,430.5C 46.8146,418.448 44.4812,405.781 46,392.5C 46.7648,389.804 47.9315,387.304 49.5,385C 46.804,384.31 44.6374,382.81 43,380.5C 39.473,373.759 38.8063,366.759 41,359.5C 43.8758,353.577 47.3758,348.077 51.5,343C 43.2048,341.705 38.7048,336.871 38,328.5C 36.5882,309.875 38.2548,291.542 43,273.5C 48.2357,263.965 55.7357,256.798 65.5,252C 56.8793,250.379 52.0459,245.213 51,236.5C 55.8341,164.664 77.8341,98.6642 117,38.5C 124.477,27.6916 133.31,18.1916 143.5,10C 150.915,6.30188 157.915,6.96855 164.5,12C 170.667,16.8333 176.167,22.3333 181,28.5C 202.559,55.9516 222.893,84.2849 242,113.5C 245.981,101.623 253.481,98.7896 264.5,105C 268.702,108.867 272.535,113.033 276,117.5C 275.987,110.973 276.987,104.639 279,98.5C 284.133,92.3457 290.299,91.179 297.5,95C 306.223,103.258 313.39,112.758 319,123.5C 323.495,114.507 328.495,105.84 334,97.5C 340.842,88.6906 348.509,87.6906 357,94.5C 359.498,99.6416 360.164,104.975 359,110.5C 378.173,81.6602 398.506,53.6602 420,26.5C 425.531,20.634 431.365,15.134 437.5,10C 445.492,6.221 452.825,7.221 459.5,13C 475.473,28.7864 488.639,46.6198 499,66.5C 526.087,117.597 542.587,171.93 548.5,229.5C 549.579,241.225 544.579,248.725 533.5,252C 549.89,260.063 558.723,273.23 560,291.5C 561.459,304.135 561.792,316.802 561,329.5C 560.167,337.667 555.667,342.167 547.5,343C 553.898,349.795 557.898,357.795 559.5,367C 559.345,371.78 558.178,376.28 556,380.5C 554.363,382.81 552.196,384.31 549.5,385C 554.391,392.631 555.558,400.797 553,409.5C 551.799,417.149 549.299,424.316 545.5,431C 542.673,432.623 539.673,433.79 536.5,434.5C 533.904,433.518 531.238,432.851 528.5,432.5C 532.148,443.294 536.481,453.794 541.5,464C 540.667,467.498 539.834,470.998 539,474.5C 523.874,505.292 500.207,526.626 468,538.5C 467.228,538.355 466.561,538.022 466,537.5C 464.274,541.953 462.274,546.286 460,550.5C 453.736,557.449 446.403,562.782 438,566.5C 437.667,566.167 437.333,565.833 437,565.5C 435.207,568.295 433.04,570.795 430.5,573C 423.798,577.012 416.631,579.845 409,581.5C 404.426,581.048 400.759,579.048 398,575.5C 384.123,587.355 368.289,595.355 350.5,599.5 Z"/></g>
<g><path style="opacity:1" fill="#3b3838" d="M 506.5,501.5 C 481.117,475.116 455.117,449.45 428.5,424.5C 403.848,382.651 367.181,359.151 318.5,354C 248.382,348.629 198.215,377.462 168,440.5C 155.981,468.286 149.648,497.286 149,527.5C 150.14,533.418 151.973,539.085 154.5,544.5C 153.686,546.273 152.352,546.773 150.5,546C 149.206,543.913 148.039,541.746 147,539.5C 144.352,529.966 142.352,520.299 141,510.5C 137.897,515.706 135.064,521.04 132.5,526.5C 129.115,526.688 125.782,525.854 122.5,524C 100.385,512.218 83.2183,495.385 71,473.5C 69.0558,469.682 68.3891,465.682 69,461.5C 78.6512,445.046 84.8179,427.379 87.5,408.5C 86.448,408.351 85.448,408.517 84.5,409C 77.6417,414.593 70.3084,419.426 62.5,423.5C 61.3527,423.182 60.5194,422.516 60,421.5C 56.7301,413.099 55.3968,404.432 56,395.5C 57.5651,391.6 59.5651,387.934 62,384.5C 65.6824,380.985 69.1824,377.318 72.5,373.5C 68.0158,372.258 63.6825,372.758 59.5,375C 51.2525,376.391 48.0858,372.891 50,364.5C 59.5151,348.8 70.0151,333.8 81.5,319.5C 75.065,322.208 68.3984,325.375 61.5,329C 57.6818,330.944 53.6818,331.611 49.5,331C 48.3471,320.243 48.1804,309.41 49,298.5C 48.1334,286.418 51.9667,276.251 60.5,268C 66.1667,264.167 71.8333,260.333 77.5,256.5C 79.7046,251.259 82.038,246.092 84.5,241C 79.4826,240.41 74.4826,240.577 69.5,241.5C 67.0741,241.596 64.9074,240.93 63,239.5C 61.911,235.952 61.411,232.285 61.5,228.5C 67.2501,169.418 84.7501,114.084 114,62.5C 123.235,46.1923 134.735,31.6923 148.5,19C 150.365,17.6986 152.365,17.3653 154.5,18C 159.923,21.4187 164.756,25.5854 169,30.5C 174.667,37.5 180.333,44.5 186,51.5C 206.536,80.0711 226.703,108.904 246.5,138C 249.289,139.664 252.123,139.83 255,138.5C 255.054,129.814 254.554,121.147 253.5,112.5C 254.873,112.343 256.207,112.51 257.5,113C 266.378,122.099 274.045,132.099 280.5,143C 283.714,145.402 286.214,144.902 288,141.5C 288.04,128.839 287.874,116.173 287.5,103.5C 291.025,103.346 293.859,104.679 296,107.5C 304.155,118.99 311.488,130.99 318,143.5C 319.326,142.201 320.66,140.868 322,139.5C 328.704,125.916 336.537,113.083 345.5,101C 346.448,100.517 347.448,100.351 348.5,100.5C 346.968,111.498 345.301,122.498 343.5,133.5C 343.086,141.78 346.086,143.447 352.5,138.5C 371.416,110.086 390.916,82.0859 411,54.5C 418.289,44.8758 425.955,35.5425 434,26.5C 437.167,24 440.333,21.5 443.5,19C 445.5,18.3333 447.5,18.3333 449.5,19C 459.025,26.527 467.192,35.3603 474,45.5C 512.509,104.168 533.509,168.502 537,238.5C 536.097,239.701 534.931,240.535 533.5,241C 527.459,240.958 521.459,241.125 515.5,241.5C 518.273,246.713 520.773,252.046 523,257.5C 531.882,262.383 539.548,268.717 546,276.5C 550.311,292.536 551.978,308.869 551,325.5C 550.764,327.764 550.264,329.931 549.5,332C 537.443,330.058 526.61,325.225 517,317.5C 523.203,327.502 530.203,337.168 538,346.5C 542.064,352.236 545.73,358.236 549,364.5C 550.914,372.891 547.747,376.391 539.5,375C 536.362,374.012 533.195,373.178 530,372.5C 528.833,372.833 527.667,373.167 526.5,373.5C 529.818,377.318 533.318,380.985 537,384.5C 539.876,388.919 542.21,393.586 544,398.5C 543.142,406.275 541.475,413.942 539,421.5C 537.933,423.283 536.433,423.783 534.5,423C 528.556,419.389 522.889,415.389 517.5,411C 515.655,409.872 513.655,409.372 511.5,409.5C 514.856,428.903 521.189,447.236 530.5,464.5C 526.532,479.465 518.532,491.798 506.5,501.5 Z"/></g>
<g><path style="opacity:1" fill="#050404" d="M 148.5,55.5 C 152.846,55.3343 157.179,55.501 161.5,56C 167.667,60.8333 173.167,66.3333 178,72.5C 188.759,89.6799 198.759,107.347 208,125.5C 209.852,132.09 208.352,137.59 203.5,142C 190.461,143.375 177.461,145.041 164.5,147C 157.516,147.994 150.849,149.994 144.5,153C 150.942,161.035 151.108,169.202 145,177.5C 137.379,183.783 129.213,189.283 120.5,194C 109.13,196.651 103.463,192.151 103.5,180.5C 110.306,138.921 123.139,99.5879 142,62.5C 144.372,60.2968 146.539,57.9635 148.5,55.5 Z"/></g>
<g><path style="opacity:1" fill="#040303" d="M 438.5,55.5 C 445.332,54.197 451.165,55.8636 456,60.5C 475.781,98.014 488.948,138.014 495.5,180.5C 495.316,192.189 489.649,196.355 478.5,193C 468.673,188.669 460.173,182.502 453,174.5C 451.494,169.254 451.161,163.921 452,158.5C 453.141,156.391 454.641,154.558 456.5,153C 437.024,146.753 417.024,143.087 396.5,142C 390.862,137.281 389.362,131.447 392,124.5C 401.737,104.682 412.737,85.6819 425,67.5C 429.123,62.8656 433.623,58.8656 438.5,55.5 Z"/></g>
<g><path style="opacity:1" fill="#da8980" d="M 153.5,65.5 C 156.226,65.2639 158.559,66.0972 160.5,68C 163.667,71.8333 166.833,75.6667 170,79.5C 180.262,96.3523 189.762,113.686 198.5,131.5C 179.59,133.782 160.923,137.282 142.5,142C 136.808,143.667 132.474,147.001 129.5,152C 131.95,155.453 134.783,158.62 138,161.5C 139.361,168.277 136.861,173.11 130.5,176C 125.414,178.96 120.247,181.794 115,184.5C 114.333,180.5 114.333,176.5 115,172.5C 122.682,136.788 134.348,102.454 150,69.5C 151.032,67.9733 152.199,66.64 153.5,65.5 Z"/></g>
<g><path style="opacity:1" fill="#d98980" d="M 442.5,65.5 C 443.873,65.3433 445.207,65.51 446.5,66C 454.53,79.4043 461.03,93.5709 466,108.5C 473.555,128.72 479.555,149.386 484,170.5C 484.998,175.143 485.332,179.81 485,184.5C 476.844,180.673 469.511,175.673 463,169.5C 461.627,167.305 461.294,164.971 462,162.5C 465.057,158.951 467.891,155.284 470.5,151.5C 469.394,148.559 467.394,146.392 464.5,145C 459.049,142.405 453.382,140.405 447.5,139C 431.843,136.264 416.176,133.764 400.5,131.5C 408.905,114.352 418.072,97.685 428,81.5C 431.989,75.3475 436.822,70.0141 442.5,65.5 Z"/></g>
<g><path style="opacity:1" fill="#000000" d="M 218.5,298.5 C 235.44,296.046 246.94,302.713 253,318.5C 254.511,342.323 243.344,353.489 219.5,352C 206.533,347.694 199.533,338.694 198.5,325C 199.768,311.915 206.435,303.082 218.5,298.5 Z"/></g>
<g><path style="opacity:1" fill="#000000" d="M 368.5,298.5 C 389.063,295.93 401.063,304.764 404.5,325C 401.674,344.835 390.341,353.835 370.5,352C 354.641,346.462 347.808,335.296 350,318.5C 353.264,309.072 359.431,302.405 368.5,298.5 Z"/></g>
<g><path style="opacity:1" fill="#e9e9e9" d="M 232.5,308.5 C 241.244,308.413 243.577,312.246 239.5,320C 232.074,322.902 228.574,320.402 229,312.5C 229.69,310.65 230.856,309.316 232.5,308.5 Z"/></g>
<g><path style="opacity:1" fill="#e7e7e7" d="M 384.5,310.5 C 391.12,309.954 394.286,312.954 394,319.5C 390.385,324.423 386.385,324.756 382,320.5C 380.861,316.579 381.695,313.246 384.5,310.5 Z"/></g>
<g><path style="opacity:1" fill="#272626" d="M 428.5,424.5 C 446.205,458.044 455.538,493.711 456.5,531.5C 455.471,536.587 453.471,541.254 450.5,545.5C 446.508,548.985 442.342,552.318 438,555.5C 435.944,548.382 434.611,541.049 434,533.5C 433.846,530.475 432.346,528.809 429.5,528.5C 430.131,540.034 428.964,551.367 426,562.5C 421.144,566.402 415.644,569.069 409.5,570.5C 408.062,570.281 406.729,569.781 405.5,569C 403.521,565.528 401.188,562.362 398.5,559.5C 383.832,576.673 365.165,586.84 342.5,590C 309.837,595.789 277.504,594.456 245.5,586C 229.894,580.876 216.894,572.042 206.5,559.5C 203.845,563.32 200.845,566.82 197.5,570C 190.788,569.65 184.622,567.484 179,563.5C 176.362,554.366 175.028,545.033 175,535.5C 174.64,533.579 173.806,531.912 172.5,530.5C 170.5,538.833 168.5,547.167 166.5,555.5C 161.828,552.492 157.828,548.825 154.5,544.5C 151.973,539.085 150.14,533.418 149,527.5C 149.648,497.286 155.981,468.286 168,440.5C 198.215,377.462 248.382,348.629 318.5,354C 367.181,359.151 403.848,382.651 428.5,424.5 Z"/></g>
<g><path style="opacity:1" fill="#000000" d="M 288.5,395.5 C 302.355,394.724 316.022,395.891 329.5,399C 350.21,407.127 355.044,420.96 344,440.5C 334.046,451.895 321.546,458.729 306.5,461C 305.342,462.009 304.675,463.342 304.5,465C 304.762,467.547 305.262,470.047 306,472.5C 306.833,474.667 308.333,476.167 310.5,477C 321.521,476.995 332.521,476.662 343.5,476C 344.833,477.333 344.833,478.667 343.5,480C 336.272,483.56 328.605,485.56 320.5,486C 306.167,486.667 291.833,486.667 277.5,486C 271.245,485.57 265.745,483.403 261,479.5C 260.316,478.216 260.483,477.049 261.5,476C 268.62,476.586 275.787,477.086 283,477.5C 286.95,477.593 290.784,477.093 294.5,476C 295.893,474.829 296.727,473.329 297,471.5C 297.499,467.848 297.665,464.182 297.5,460.5C 283.547,458.721 271.713,452.721 262,442.5C 251.865,429.936 252.032,417.603 262.5,405.5C 270.415,399.977 279.081,396.643 288.5,395.5 Z"/></g>
<g><path style="opacity:1" fill="#383535" d="M 428.5,424.5 C 455.117,449.45 481.117,475.116 506.5,501.5C 495.726,513.089 482.893,521.756 468,527.5C 467.228,527.355 466.561,527.022 466,526.5C 464.306,521.912 462.14,517.579 459.5,513.5C 458.499,519.509 457.499,525.509 456.5,531.5C 455.538,493.711 446.205,458.044 428.5,424.5 Z"/></g>
</svg>
