<?xml version="1.0" encoding="UTF-8"?>
<!DOCTYPE svg PUBLIC "-//W3C//DTD SVG 1.1//EN" "http://www.w3.org/Graphics/SVG/1.1/DTD/svg11.dtd">
<svg xmlns="http://www.w3.org/2000/svg" version="1.1" width="600px" height="600px" style="shape-rendering:geometricPrecision; text-rendering:geometricPrecision; image-rendering:optimizeQuality; fill-rule:evenodd; clip-rule:evenodd" xmlns:xlink="http://www.w3.org/1999/xlink">
<g><path style="opacity:0.967" fill="#020101" d="M 599.5,272.5 C 599.5,286.5 599.5,300.5 599.5,314.5C 596.269,315.368 592.935,315.368 589.5,314.5C 593.151,323.632 595.485,333.132 596.5,343C 595.221,351.616 593.388,360.116 591,368.5C 585.46,384.787 580.126,401.12 575,417.5C 571.448,421.085 567.281,422.585 562.5,422C 565.478,433.779 561.478,440.779 550.5,443C 552.925,453.609 555.759,464.109 559,474.5C 560.327,489.844 553.493,496.01 538.5,493C 535.582,491.291 532.748,489.458 530,487.5C 527.382,494.457 522.382,497.791 515,497.5C 483.874,491.992 458.54,476.992 439,452.5C 433.007,441.84 428.674,430.507 426,418.5C 421.934,429.363 418.268,440.363 415,451.5C 416.113,461.771 416.446,472.105 416,482.5C 415.469,500.982 410.469,517.982 401,533.5C 393.621,543.306 383.788,547.972 371.5,547.5C 357.874,547.346 345.54,543.346 334.5,535.5C 322.902,536.997 311.235,537.997 299.5,538.5C 288.168,537.533 276.835,537.033 265.5,537C 251.545,545.91 236.545,548.576 220.5,545C 206.533,539.698 197.367,529.865 193,515.5C 188.09,496.498 185.757,477.165 186,457.5C 182.464,444.227 178.131,431.227 173,418.5C 167.485,447.671 151.651,469.171 125.5,483C 112.924,489.914 99.591,494.748 85.5,497.5C 78.4417,497.112 74.1083,493.445 72.5,486.5C 67.4995,489.656 62.1662,492.156 56.5,494C 45.8801,494.718 40.2134,489.718 39.5,479C 43.0604,466.598 45.8937,454.098 48,441.5C 43.3139,441.901 39.6472,439.901 37,435.5C 35.5841,430.791 35.0841,426.124 35.5,421.5C 29.9427,422.64 25.776,420.64 23,415.5C 17.9636,398.422 12.6303,381.422 7,364.5C 1.0469,347.423 2.21357,330.756 10.5,314.5C 7.06502,315.272 3.39836,315.272 -0.5,314.5C -0.5,300.833 -0.5,287.167 -0.5,273.5C 6.32931,261.863 14.1626,250.863 23,240.5C 27.5081,233.487 31.5081,226.153 35,218.5C 52.8569,195.305 72.8569,173.972 95,154.5C 112.642,123.523 136.476,98.3562 166.5,79C 174.673,74.8313 183.339,72.4979 192.5,72C 205.714,66.2791 219.38,61.9458 233.5,59C 248.071,56.7416 262.404,53.7416 276.5,50C 308.236,49.3902 339.569,52.7236 370.5,60C 382.91,62.8033 394.91,66.8033 406.5,72C 419.746,72.9701 431.746,77.3034 442.5,85C 468.304,104.135 489.138,127.635 505,155.5C 521.667,170.833 537.667,186.833 553,203.5C 557.721,209.221 562.054,215.221 566,221.5C 568.637,228.777 572.304,235.444 577,241.5C 585.011,251.547 592.511,261.88 599.5,272.5 Z"/></g>
<g><path style="opacity:1" fill="#e4dfde" d="M 310.5,61.5 C 322.54,62.5769 334.54,64.0769 346.5,66C 351.626,69.4754 354.792,74.3087 356,80.5C 356.667,85.8333 356.667,91.1667 356,96.5C 350.228,126.03 345.228,155.696 341,185.5C 332.758,229.718 336.758,272.718 353,314.5C 364.218,338.603 376.218,362.269 389,385.5C 399.685,411.095 404.519,437.761 403.5,465.5C 393.665,456.499 383.665,447.666 373.5,439C 369.345,436.034 365.012,433.201 360.5,430.5C 357.748,428.664 354.748,427.664 351.5,427.5C 351.5,426.5 351.5,425.5 351.5,424.5C 352.674,408.003 345.34,397.503 329.5,393C 314.681,389.672 299.681,388.672 284.5,390C 272.505,390.66 262.005,394.826 253,402.5C 246.158,412.937 245.825,423.603 252,434.5C 262.728,447.783 276.561,455.783 293.5,458.5C 298.017,463.534 301.517,469.201 304,475.5C 306.402,478.258 308.402,477.925 310,474.5C 310.167,473 310.333,471.5 310.5,470C 309.143,466.362 308.476,462.529 308.5,458.5C 322.076,455.548 333.743,449.214 343.5,439.5C 344.117,439.611 344.617,439.944 345,440.5C 348.216,463.217 353.549,485.217 361,506.5C 361.843,516.212 363.01,525.879 364.5,535.5C 362.833,535.5 361.167,535.5 359.5,535.5C 353.874,534.192 348.541,532.025 343.5,529C 335.167,522.667 326.833,516.333 318.5,510C 314.112,507.139 309.446,504.806 304.5,503C 300.739,502.262 297.072,502.595 293.5,504C 286.743,507.603 280.409,511.77 274.5,516.5C 273.883,516.389 273.383,516.056 273,515.5C 270.759,498.851 263.592,484.685 251.5,473C 246.968,472.465 244.968,474.632 245.5,479.5C 245.806,482.532 246.306,485.532 247,488.5C 250.067,491.706 252.401,495.373 254,499.5C 255.099,504.366 256.766,509.033 259,513.5C 259.974,517.825 260.807,522.158 261.5,526.5C 247.537,537.09 232.537,538.924 216.5,532C 210.151,526.811 205.651,520.311 203,512.5C 200.595,504.996 198.928,497.329 198,489.5C 197.5,476.504 197.333,463.504 197.5,450.5C 198.397,449.402 199.23,449.402 200,450.5C 203.3,460.357 208.8,468.857 216.5,476C 220.274,477.183 223.441,476.349 226,473.5C 229.479,464.911 232.646,456.244 235.5,447.5C 236.322,445.611 237.155,443.611 238,441.5C 238.667,435.5 238.667,429.5 238,423.5C 236.444,420.102 234.277,417.102 231.5,414.5C 220.66,412.391 211.66,415.558 204.5,424C 202.843,424.725 201.843,424.225 201.5,422.5C 204.555,404.66 210.555,387.993 219.5,372.5C 223.846,372.666 228.179,372.499 232.5,372C 235.427,369.618 238.261,367.118 241,364.5C 247.674,350.169 256.007,336.835 266,324.5C 270.484,316.702 275.151,309.035 280,301.5C 286.222,289.421 282.722,284.255 269.5,286C 266.118,286.253 262.951,287.086 260,288.5C 258.93,288.472 258.097,288.139 257.5,287.5C 263.709,262.149 265.209,236.482 262,210.5C 257.777,174.386 251.111,138.719 242,103.5C 240.571,95.8812 240.238,88.2146 241,80.5C 244.34,68.5793 252.173,63.246 264.5,64.5C 267.94,64.3371 269.94,66.0038 270.5,69.5C 275.528,76.884 282.195,81.884 290.5,84.5C 293.301,84.5359 295.135,83.2026 296,80.5C 297.407,74.2411 298.241,67.9078 298.5,61.5C 302.5,61.5 306.5,61.5 310.5,61.5 Z"/></g>
<g><path style="opacity:1" fill="#b1a9a7" d="M 310.5,61.5 C 306.5,61.5 302.5,61.5 298.5,61.5C 298.241,67.9078 297.407,74.2411 296,80.5C 295.135,83.2026 293.301,84.5359 290.5,84.5C 282.195,81.884 275.528,76.884 270.5,69.5C 269.94,66.0038 267.94,64.3371 264.5,64.5C 272.328,63.1168 280.328,61.9502 288.5,61C 296.012,60.1782 303.345,60.3448 310.5,61.5 Z"/></g>
<g><path style="opacity:1" fill="#552d23" d="M 407.5,83.5 C 407.338,85.5273 407.505,87.5273 408,89.5C 435.154,117.159 449.154,150.493 450,189.5C 450.566,214.555 449.566,239.555 447,264.5C 441.589,300.875 436.423,337.208 431.5,373.5C 431.443,374.609 431.11,375.609 430.5,376.5C 406.833,349.833 383.167,323.167 359.5,296.5C 354.732,283.391 351.065,270.057 348.5,256.5C 348.335,252.818 348.501,249.152 349,245.5C 358.774,267.3 374.94,274.134 397.5,266C 413.701,255.77 419.201,241.27 414,222.5C 401.323,200.717 383.823,195.55 361.5,207C 355.372,212.337 351.038,218.17 348.5,224.5C 349.114,209.789 350.28,195.122 352,180.5C 355.914,156.092 360.247,131.759 365,107.5C 366.832,94.8518 366.999,82.1852 365.5,69.5C 379.972,72.7684 393.972,77.4351 407.5,83.5 Z"/></g>
<g><path style="opacity:1" fill="#552d23" d="M 167.5,373.5 C 163.619,341.834 159.119,310.167 154,278.5C 149.761,245.292 148.428,211.958 150,178.5C 152.959,144.227 166.292,114.894 190,90.5C 190.991,88.1924 191.824,85.8591 192.5,83.5C 205.585,77.0828 219.251,72.5828 233.5,70C 233,70.5 232.5,71 232,71.5C 230.117,84.1603 230.117,96.827 232,109.5C 238.435,135.677 244.102,162.01 249,188.5C 252.151,211.046 253.484,233.712 253,256.5C 251.905,263.204 250.571,269.871 249,276.5C 246.085,280.653 244.751,285.32 245,290.5C 241.035,299.67 237.368,309.004 234,318.5C 222.106,339.828 210.773,361.495 200,383.5C 194.816,399.276 191.15,415.276 189,431.5C 182.098,412.036 174.931,392.703 167.5,373.5 Z"/></g>
<g><path style="opacity:1" fill="#4d281e" d="M 192.5,83.5 C 191.824,85.8591 190.991,88.1924 190,90.5C 166.292,114.894 152.959,144.227 150,178.5C 148.428,211.958 149.761,245.292 154,278.5C 159.119,310.167 163.619,341.834 167.5,373.5C 167.438,394.618 163.938,415.285 157,435.5C 149.686,451.149 138.519,463.316 123.5,472C 112.871,478.312 101.538,482.979 89.5,486C 87.4213,486.808 85.4213,486.641 83.5,485.5C 85.9383,481.558 88.9383,478.058 92.5,475C 83.3106,474.274 74.3106,475.274 65.5,478C 62.5674,479.271 59.9007,480.938 57.5,483C 55.2305,483.758 53.0639,483.591 51,482.5C 50.3333,479.167 50.3333,475.833 51,472.5C 57.2019,456.37 60.2019,439.703 60,422.5C 59.1627,420.993 57.9961,420.493 56.5,421C 53.6083,424.633 50.6083,428.133 47.5,431.5C 47.2784,421.283 46.945,411.117 46.5,401C 45.5,400.333 44.5,400.333 43.5,401C 40.7145,404.074 38.0478,407.241 35.5,410.5C 34.675,411.386 33.675,411.719 32.5,411.5C 28.0431,394.628 22.8765,377.962 17,361.5C 13.0345,350.571 12.7011,339.571 16,328.5C 18.6667,321.833 21.3333,315.167 24,308.5C 26.5,300.333 23.6667,297.5 15.5,300C 12.3821,301.059 9.38214,302.392 6.5,304C 5.16667,304.667 3.83333,304.667 2.5,304C 1.16407,297.956 1.99741,292.122 5,286.5C 12.7643,271.412 22.0977,257.412 33,244.5C 39.98,228.868 49.3133,214.868 61,202.5C 74.3621,188.804 88.0288,175.471 102,162.5C 111.87,146.098 123.203,130.765 136,116.5C 146.007,106.59 156.841,97.7562 168.5,90C 175.818,85.1661 183.818,82.9995 192.5,83.5 Z"/></g>
<g><path style="opacity:1" fill="#4d281e" d="M 407.5,83.5 C 419.049,83.9363 429.382,87.7696 438.5,95C 451.26,104.425 462.76,115.258 473,127.5C 481.333,139.5 489.667,151.5 498,163.5C 518.406,180.571 536.739,199.571 553,220.5C 556.894,226.494 560.227,232.827 563,239.5C 572.388,251.889 581.388,264.555 590,277.5C 592.724,283.005 595.057,288.672 597,294.5C 597.784,297.76 597.617,300.927 596.5,304C 595.167,304.667 593.833,304.667 592.5,304C 587.064,300.345 581.23,299.178 575,300.5C 574.333,302.833 574.333,305.167 575,307.5C 578,315.167 581,322.833 584,330.5C 585.441,337.11 585.774,343.776 585,350.5C 579.2,370.232 573.2,389.898 567,409.5C 566.577,410.956 565.744,411.456 564.5,411C 561.734,407.478 558.734,404.145 555.5,401C 554.5,400.333 553.5,400.333 552.5,401C 552.22,411.112 551.887,421.278 551.5,431.5C 548.392,428.133 545.392,424.633 542.5,421C 540.591,420.552 539.424,421.385 539,423.5C 539.244,441.387 542.577,458.72 549,475.5C 550.838,482.322 548.338,484.822 541.5,483C 535.516,477.341 528.516,473.841 520.5,472.5C 520.666,476.514 520.499,480.514 520,484.5C 518.972,486.516 517.305,487.516 515,487.5C 487.139,481.587 464.472,467.587 447,445.5C 441.004,434.178 437.004,422.178 435,409.5C 433.5,397.377 432.333,385.377 431.5,373.5C 436.423,337.208 441.589,300.875 447,264.5C 449.566,239.555 450.566,214.555 450,189.5C 449.154,150.493 435.154,117.159 408,89.5C 407.505,87.5273 407.338,85.5273 407.5,83.5 Z"/></g>
<g><path style="opacity:1" fill="#b1a9a7" d="M 305.5,95.5 C 307.857,95.3367 310.19,95.5034 312.5,96C 323.841,103.343 332.341,113.176 338,125.5C 338.667,130.167 338.667,134.833 338,139.5C 337.446,143.428 335.446,144.761 332,143.5C 330.184,139.901 328.517,136.234 327,132.5C 322,126.167 317,119.833 312,113.5C 310.151,110.06 308.151,106.727 306,103.5C 305.503,100.854 305.336,98.1873 305.5,95.5 Z"/></g>
<g><path style="opacity:1" fill="#b1a9a7" d="M 299.5,125.5 C 303.815,124.683 306.149,126.349 306.5,130.5C 303.852,136.696 301.018,142.696 298,148.5C 295.598,151.258 293.598,150.925 292,147.5C 291.318,139.071 293.818,131.738 299.5,125.5 Z"/></g>
<g><path style="opacity:1" fill="#4b2820" d="M 213.5,200.5 C 232.346,200.162 244.846,208.829 251,226.5C 253.543,251.284 242.543,265.617 218,269.5C 200.469,268.302 189.135,259.302 184,242.5C 181.788,219.895 191.621,205.895 213.5,200.5 Z"/></g>
<g><path style="opacity:1" fill="#b0a8a6" d="M 267.5,198.5 C 284.459,199.291 295.959,207.625 302,223.5C 302.991,233.711 300.491,242.878 294.5,251C 292.833,251.667 291.167,251.667 289.5,251C 284.07,247.906 279.57,243.739 276,238.5C 274.416,233.734 272.083,229.4 269,225.5C 266.853,218.91 265.019,212.244 263.5,205.5C 263.974,202.689 265.307,200.355 267.5,198.5 Z"/></g>
<g><path style="opacity:1" fill="#4a2820" d="M 348.5,256.5 C 347.167,245.833 347.167,235.167 348.5,224.5C 351.038,218.17 355.372,212.337 361.5,207C 383.823,195.55 401.323,200.717 414,222.5C 419.201,241.27 413.701,255.77 397.5,266C 374.94,274.134 358.774,267.3 349,245.5C 348.501,249.152 348.335,252.818 348.5,256.5 Z"/></g>
<g><path style="opacity:1" fill="#231815" d="M 211.5,209.5 C 233.069,208.901 243.236,219.234 242,240.5C 237.348,255.466 227.181,261.966 211.5,260C 195.155,253.476 189.322,241.643 194,224.5C 197.889,217.103 203.722,212.103 211.5,209.5 Z"/></g>
<g><path style="opacity:1" fill="#231815" d="M 375.5,209.5 C 396.834,209.001 407.334,219.335 407,240.5C 401.854,255.496 391.354,261.996 375.5,260C 358.632,253.085 353.132,240.918 359,223.5C 363.146,217.183 368.646,212.516 375.5,209.5 Z"/></g>
<g><path style="opacity:1" fill="#e8e8e8" d="M 224.5,218.5 C 230.53,218.815 232.197,221.481 229.5,226.5C 222.409,227.531 220.742,224.864 224.5,218.5 Z"/></g>
<g><path style="opacity:1" fill="#f0f0f0" d="M 392.5,218.5 C 398.643,219.026 399.976,221.86 396.5,227C 391.504,227.664 389.67,225.498 391,220.5C 391.717,219.956 392.217,219.289 392.5,218.5 Z"/></g>
<g><path style="opacity:1" fill="#b4acaa" d="M 322.5,260.5 C 324.924,260.192 327.257,260.526 329.5,261.5C 330.046,262.772 330.379,264.106 330.5,265.5C 327.185,271.489 323.851,277.489 320.5,283.5C 315.779,286.91 313.446,285.743 313.5,280C 313.913,272.244 316.913,265.744 322.5,260.5 Z"/></g>
<g><path style="opacity:1" fill="#ada5a4" d="M 219.5,372.5 C 227.708,356.716 235.875,340.716 244,324.5C 249.103,312.311 253.603,299.978 257.5,287.5C 258.097,288.139 258.93,288.472 260,288.5C 262.951,287.086 266.118,286.253 269.5,286C 282.722,284.255 286.222,289.421 280,301.5C 275.151,309.035 270.484,316.702 266,324.5C 256.007,336.835 247.674,350.169 241,364.5C 238.261,367.118 235.427,369.618 232.5,372C 228.179,372.499 223.846,372.666 219.5,372.5 Z"/></g>
<g><path style="opacity:1" fill="#4f2a20" d="M 359.5,296.5 C 383.167,323.167 406.833,349.833 430.5,376.5C 424.246,393.426 418.079,410.426 412,427.5C 408.372,403.663 401.039,380.996 390,359.5C 389,358.5 388,357.5 387,356.5C 381.751,344.737 375.751,333.403 369,322.5C 365.527,313.913 362.361,305.246 359.5,296.5 Z"/></g>
<g><path style="opacity:1" fill="#b1a9a7" d="M 305.5,321.5 C 307.857,321.337 310.19,321.503 312.5,322C 323.803,329.311 332.303,339.144 338,351.5C 338.287,375.613 333.787,376.613 324.5,354.5C 317.376,347.213 311.21,339.213 306,330.5C 305.502,327.518 305.335,324.518 305.5,321.5 Z"/></g>
<g><path style="opacity:1" fill="#291004" d="M 351.5,424.5 C 349.648,429.868 346.981,434.868 343.5,439.5C 333.743,449.214 322.076,455.548 308.5,458.5C 303.469,459.591 298.469,459.591 293.5,458.5C 276.561,455.783 262.728,447.783 252,434.5C 245.825,423.603 246.158,412.937 253,402.5C 262.005,394.826 272.505,390.66 284.5,390C 299.681,388.672 314.681,389.672 329.5,393C 345.34,397.503 352.674,408.003 351.5,424.5 Z"/></g>
<g><path style="opacity:1" fill="#b3abaa" d="M 372.5,394.5 C 374.833,394.5 377.167,394.5 379.5,394.5C 382.049,400.812 382.049,407.146 379.5,413.5C 378.022,413.762 376.689,413.429 375.5,412.5C 370.275,407.105 369.275,401.105 372.5,394.5 Z"/></g>
<g><path style="opacity:1" fill="#afa7a5" d="M 235.5,447.5 C 232.646,456.244 229.479,464.911 226,473.5C 223.441,476.349 220.274,477.183 216.5,476C 208.8,468.857 203.3,460.357 200,450.5C 199.23,449.402 198.397,449.402 197.5,450.5C 198.56,442.71 199.56,435.043 200.5,427.5C 200.517,429.028 201.184,429.528 202.5,429C 208.813,419.797 217.479,415.13 228.5,415C 235.009,419.026 238.009,424.86 237.5,432.5C 236.913,437.534 236.246,442.534 235.5,447.5 Z"/></g>
<g><path style="opacity:1" fill="#c3bcbb" d="M 235.5,447.5 C 236.246,442.534 236.913,437.534 237.5,432.5C 238.009,424.86 235.009,419.026 228.5,415C 217.479,415.13 208.813,419.797 202.5,429C 201.184,429.528 200.517,429.028 200.5,427.5C 200.216,425.585 200.549,423.919 201.5,422.5C 201.843,424.225 202.843,424.725 204.5,424C 211.66,415.558 220.66,412.391 231.5,414.5C 234.277,417.102 236.444,420.102 238,423.5C 238.667,429.5 238.667,435.5 238,441.5C 237.155,443.611 236.322,445.611 235.5,447.5 Z"/></g>
<g><path style="opacity:1" fill="#afa7a5" d="M 351.5,424.5 C 351.5,425.5 351.5,426.5 351.5,427.5C 354.748,427.664 357.748,428.664 360.5,430.5C 365.012,433.201 369.345,436.034 373.5,439C 383.665,447.666 393.665,456.499 403.5,465.5C 405.535,485.876 402.035,505.21 393,523.5C 384.32,534.559 373.153,538.559 359.5,535.5C 361.167,535.5 362.833,535.5 364.5,535.5C 363.01,525.879 361.843,516.212 361,506.5C 353.549,485.217 348.216,463.217 345,440.5C 344.617,439.944 344.117,439.611 343.5,439.5C 346.981,434.868 349.648,429.868 351.5,424.5 Z"/></g>
<g><path style="opacity:1" fill="#b0a8a7" d="M 293.5,458.5 C 298.469,459.591 303.469,459.591 308.5,458.5C 308.476,462.529 309.143,466.362 310.5,470C 310.333,471.5 310.167,473 310,474.5C 308.402,477.925 306.402,478.258 304,475.5C 301.517,469.201 298.017,463.534 293.5,458.5 Z"/></g>
<g><path style="opacity:1" fill="#b1a9a7" d="M 274.5,516.5 C 270.191,519.802 265.857,523.136 261.5,526.5C 260.807,522.158 259.974,517.825 259,513.5C 256.766,509.033 255.099,504.366 254,499.5C 252.401,495.373 250.067,491.706 247,488.5C 246.306,485.532 245.806,482.532 245.5,479.5C 244.968,474.632 246.968,472.465 251.5,473C 263.592,484.685 270.759,498.851 273,515.5C 273.383,516.056 273.883,516.389 274.5,516.5 Z"/></g>
<g><path style="opacity:1" fill="#270f03" d="M 298.5,514.5 C 305.659,516.797 311.993,520.63 317.5,526C 305.571,527.604 293.571,527.937 281.5,527C 287.092,522.558 292.758,518.392 298.5,514.5 Z"/></g>
</svg>
