<?xml version="1.0" encoding="UTF-8"?>
<!DOCTYPE svg PUBLIC "-//W3C//DTD SVG 1.1//EN" "http://www.w3.org/Graphics/SVG/1.1/DTD/svg11.dtd">
<svg xmlns="http://www.w3.org/2000/svg" version="1.1" width="600px" height="600px" style="shape-rendering:geometricPrecision; text-rendering:geometricPrecision; image-rendering:optimizeQuality; fill-rule:evenodd; clip-rule:evenodd" xmlns:xlink="http://www.w3.org/1999/xlink">
<g><path style="opacity:0.955" fill="#030302" d="M 157.5,-0.5 C 164.5,-0.5 171.5,-0.5 178.5,-0.5C 188.183,8.68686 197.016,18.6869 205,29.5C 219.163,49.8236 232.83,70.4903 246,91.5C 249.056,93.2792 252.223,94.9458 255.5,96.5C 254.694,87.5189 258.861,81.8523 268,79.5C 273.895,81.114 278.561,84.4474 282,89.5C 281.319,79.8188 285.652,74.1522 295,72.5C 299.177,73.089 302.843,74.7556 306,77.5C 310.083,83.3305 313.916,89.3305 317.5,95.5C 321.163,88.1695 325.33,81.1695 330,74.5C 336.975,67.7806 343.641,68.114 350,75.5C 350.818,78.1071 351.318,80.7737 351.5,83.5C 350.769,87.8681 350.269,92.2014 350,96.5C 355.092,93.5169 360.592,91.6836 366.5,91C 383.819,62.1901 402.985,34.6901 424,8.5C 427.062,5.26781 430.229,2.26781 433.5,-0.5C 440.5,-0.5 447.5,-0.5 454.5,-0.5C 458.438,2.93519 462.271,6.60185 466,10.5C 472.768,2.55333 479.435,2.55333 486,10.5C 486.516,15.4872 487.182,20.4872 488,25.5C 489.24,28.412 490.906,31.0787 493,33.5C 493.392,39.2777 493.058,44.9444 492,50.5C 510.604,85.3111 524.271,121.978 533,160.5C 536.56,162.7 540.393,164.533 544.5,166C 549.711,171.782 549.711,177.615 544.5,183.5C 545.362,186.146 545.195,188.813 544,191.5C 542.203,193.131 541.036,195.131 540.5,197.5C 541.088,207.671 543.422,217.338 547.5,226.5C 546.41,232.758 542.743,236.591 536.5,238C 533.734,241.522 530.734,244.855 527.5,248C 534,255.833 541.167,263 549,269.5C 555.983,276.656 556.15,283.823 549.5,291C 546.693,292.589 543.86,293.089 541,292.5C 540.167,293.333 539.333,294.167 538.5,295C 544.087,302.651 543.087,309.318 535.5,315C 536.701,315.903 537.535,317.069 538,318.5C 539.252,322.678 540.418,326.844 541.5,331C 540.571,336.187 537.571,339.52 532.5,341C 526.404,341.455 520.404,341.122 514.5,340C 522.964,350.798 532.464,360.631 543,369.5C 551.437,380.756 548.937,388.422 535.5,392.5C 534.549,391.674 533.549,391.508 532.5,392C 537.992,399.164 537.326,405.664 530.5,411.5C 536.069,419.065 535.736,426.232 529.5,433C 525.339,435.793 521.006,436.126 516.5,434C 512.859,431.197 508.859,429.03 504.5,427.5C 504.167,428.5 503.833,429.5 503.5,430.5C 505.713,446.828 507.88,463.161 510,479.5C 509.892,501.517 509.892,523.517 510,545.5C 508.854,552.314 504.854,555.981 498,556.5C 494.927,556.477 492.26,555.477 490,553.5C 490.093,565.557 487.427,576.89 482,587.5C 476,592.833 470,592.833 464,587.5C 461.214,576.802 458.214,566.136 455,555.5C 452.157,548.465 448.324,542.132 443.5,536.5C 438.228,541.95 432.061,545.95 425,548.5C 422.849,549.588 420.682,551.422 418.5,554C 411.93,557.3 405.096,559.8 398,561.5C 393.974,560.603 390.307,558.937 387,556.5C 375.813,565.906 362.979,572.073 348.5,575C 312.006,582.851 275.673,582.185 239.5,573C 227.911,569.457 217.411,563.957 208,556.5C 204.815,559.26 201.148,560.926 197,561.5C 189.544,559.458 182.378,556.625 175.5,553C 174.12,551.075 172.62,549.241 171,547.5C 165.895,547.791 161.562,545.791 158,541.5C 155.079,546.341 152.412,551.341 150,556.5C 147.011,566.439 144.344,576.439 142,586.5C 136.149,592.671 129.982,593.004 123.5,587.5C 120.614,583.634 118.78,579.3 118,574.5C 117.043,567.522 116.209,560.522 115.5,553.5C 109.406,557.749 103.573,557.415 98,552.5C 97.1376,550.913 96.4709,549.246 96,547.5C 95.7221,528.826 95.2221,510.159 94.5,491.5C 96.3646,471.781 98.698,452.114 101.5,432.5C 101.167,430.833 100.833,429.167 100.5,427.5C 95.1024,431.115 89.2691,433.782 83,435.5C 75.516,434.683 71.3493,430.516 70.5,423C 71.6281,419.285 72.9614,415.618 74.5,412C 68.9452,406.043 68.2785,399.543 72.5,392.5C 58.2942,391.422 54.4608,384.422 61,371.5C 72.2438,362.258 82.0772,351.758 90.5,340C 67.1452,345.648 59.8119,337.315 68.5,315C 61.346,308.688 60.6793,301.688 66.5,294C 50.708,292.35 46.8746,284.517 55,270.5C 59.6988,265.466 64.6988,260.8 70,256.5C 73.8821,252.286 77.3821,247.786 80.5,243C 78.2911,241.127 76.4578,238.96 75,236.5C 61.6076,239.108 56.2743,233.774 59,220.5C 61.7564,217.073 65.0897,214.407 69,212.5C 70.169,206.969 71.3357,201.469 72.5,196C 68.1557,192.708 66.4891,188.541 67.5,183.5C 61.4085,170.789 65.4085,163.789 79.5,162.5C 88.0004,122.329 102,84.1628 121.5,48C 120.297,44.7241 119.297,41.3908 118.5,38C 120.943,32.0594 123.61,26.226 126.5,20.5C 124.492,8.34061 129.492,3.50728 141.5,6C 143.609,7.14115 145.442,8.64115 147,10.5C 150.03,6.30533 153.53,2.63866 157.5,-0.5 Z"/></g>
<g><path style="opacity:1" fill="#b77f25" d="M 240.5,101.5 C 239.957,101.56 239.624,101.893 239.5,102.5C 241.869,105.561 243.369,108.894 244,112.5C 240.959,109.403 237.793,109.07 234.5,111.5C 235.946,113.618 236.613,115.951 236.5,118.5C 233.482,118.665 230.482,118.498 227.5,118C 222.086,114.626 216.419,111.793 210.5,109.5C 202.03,91.2234 192.53,73.5567 182,56.5C 177.579,49.0769 171.579,43.4103 164,39.5C 161.743,40.0899 160.076,41.4232 159,43.5C 149.687,62.9434 141.853,82.9434 135.5,103.5C 129.302,103.372 123.469,104.705 118,107.5C 117.342,109.108 117.842,110.275 119.5,111C 123.447,112.154 127.447,112.987 131.5,113.5C 127.573,126.784 123.74,140.118 120,153.5C 118.294,159.405 117.127,165.405 116.5,171.5C 112.869,170.588 109.203,170.421 105.5,171C 104.253,172.458 104.253,173.958 105.5,175.5C 99.1667,176.167 92.8333,176.833 86.5,177.5C 93.6862,180.738 101.02,183.905 108.5,187C 109.71,188.039 110.71,189.206 111.5,190.5C 111.5,192.167 111.5,193.833 111.5,195.5C 107.949,197.887 105.283,201.054 103.5,205C 95.6038,209.447 87.6038,213.614 79.5,217.5C 80.2505,208.581 81.5838,199.747 83.5,191C 81.7499,188.947 79.7499,187.114 77.5,185.5C 79.3153,183.306 81.482,182.972 84,184.5C 84.1667,184 84.3333,183.5 84.5,183C 81.6691,179.676 78.3358,176.843 74.5,174.5C 78.4793,173.495 82.4793,173.495 86.5,174.5C 95.4138,131.673 110.247,91.006 131,52.5C 131.635,47.0535 131.135,41.7201 129.5,36.5C 133.453,37.0149 135.619,39.3483 136,43.5C 136.622,37.7051 136.289,32.0384 135,26.5C 137.785,28.7106 140.118,31.3773 142,34.5C 140.183,28.5015 138.016,22.5015 135.5,16.5C 135.833,16.1667 136.167,15.8333 136.5,15.5C 140.226,19.2721 143.726,23.2721 147,27.5C 151.79,21.0408 156.957,14.8741 162.5,9C 165.58,6.18448 168.913,5.85115 172.5,8C 181.747,17.243 190.247,27.0764 198,37.5C 212.781,58.4437 226.948,79.777 240.5,101.5 Z"/></g>
<g><path style="opacity:1" fill="#b77f25" d="M 476.5,34.5 C 475.359,37.6399 475.192,40.9733 476,44.5C 476.513,43.4734 477.013,42.4734 477.5,41.5C 477.69,37.6426 479.69,35.976 483.5,36.5C 482.969,39.237 482.136,41.9036 481,44.5C 480.333,47.1667 480.333,49.8333 481,52.5C 502.264,90.789 517.097,131.456 525.5,174.5C 529.507,173.387 533.507,173.387 537.5,174.5C 533.726,176.771 530.393,179.604 527.5,183C 529.5,183.333 531.5,183.667 533.5,184C 534.337,185.011 534.67,186.178 534.5,187.5C 531.178,187.489 529.511,189.155 529.5,192.5C 531.27,202.45 532.603,212.45 533.5,222.5C 522.502,217.003 511.835,211.003 501.5,204.5C 501.208,198.123 500.541,191.79 499.5,185.5C 506.073,183.204 512.406,180.538 518.5,177.5C 511.866,176.503 505.2,176.17 498.5,176.5C 498.833,174.5 499.167,172.5 499.5,170.5C 498.167,170.5 496.833,170.5 495.5,170.5C 491.75,150.833 486.75,131.499 480.5,112.5C 483.69,112.11 486.357,110.777 488.5,108.5C 485.345,106.002 481.678,104.668 477.5,104.5C 470.66,82.8093 462.16,61.8093 452,41.5C 448.698,38.7816 445.531,38.9483 442.5,42C 432.976,52.8759 424.809,64.7093 418,77.5C 413.153,87.1932 408.32,96.8599 403.5,106.5C 393.634,109.186 384.467,113.52 376,119.5C 373.619,118.565 371.119,118.232 368.5,118.5C 368.387,115.951 369.054,113.618 370.5,111.5C 369.643,110.575 368.643,109.908 367.5,109.5C 386.582,77.6789 407.415,47.0123 430,17.5C 433.849,12.6354 438.515,8.96875 444,6.5C 445.627,6.62515 447.127,7.12515 448.5,8C 455.099,13.7605 460.766,20.2605 465.5,27.5C 468.486,23.183 471.82,19.183 475.5,15.5C 475.833,16 476.167,16.5 476.5,17C 474.231,22.4739 472.398,27.9739 471,33.5C 472.626,30.8723 474.626,28.539 477,26.5C 477.175,29.1572 477.008,31.8239 476.5,34.5 Z"/></g>
<g><path style="opacity:1" fill="#4c4949" d="M 210.5,109.5 C 185.913,102.692 160.913,100.692 135.5,103.5C 141.853,82.9434 149.687,62.9434 159,43.5C 160.076,41.4232 161.743,40.0899 164,39.5C 171.579,43.4103 177.579,49.0769 182,56.5C 192.53,73.5567 202.03,91.2234 210.5,109.5 Z"/></g>
<g><path style="opacity:1" fill="#4c4949" d="M 477.5,104.5 C 452.736,101.402 428.069,102.069 403.5,106.5C 408.32,96.8599 413.153,87.1932 418,77.5C 424.809,64.7093 432.976,52.8759 442.5,42C 445.531,38.9483 448.698,38.7816 452,41.5C 462.16,61.8093 470.66,82.8093 477.5,104.5 Z"/></g>
<g><path style="opacity:1" fill="#5f4213" d="M 476.5,34.5 C 476.198,37.0593 476.532,39.3926 477.5,41.5C 477.013,42.4734 476.513,43.4734 476,44.5C 475.192,40.9733 475.359,37.6399 476.5,34.5 Z"/></g>
<g><path style="opacity:1" fill="#f5f2ef" d="M 367.5,109.5 C 368.643,109.908 369.643,110.575 370.5,111.5C 369.054,113.618 368.387,115.951 368.5,118.5C 371.119,118.232 373.619,118.565 376,119.5C 384.467,113.52 393.634,109.186 403.5,106.5C 428.069,102.069 452.736,101.402 477.5,104.5C 481.678,104.668 485.345,106.002 488.5,108.5C 486.357,110.777 483.69,112.11 480.5,112.5C 460.975,115.714 441.642,119.881 422.5,125C 412.448,128.527 402.781,132.86 393.5,138C 397.821,139.166 402.154,140.332 406.5,141.5C 422.13,129.009 439.797,124.509 459.5,128C 461.997,128.412 463.997,129.578 465.5,131.5C 453.274,134.447 442.274,139.781 432.5,147.5C 431.479,148.002 431.312,148.668 432,149.5C 433.47,151.152 435.303,152.152 437.5,152.5C 447.589,148.347 457.923,147.514 468.5,150C 470.325,151.466 470.825,153.299 470,155.5C 466.686,159.648 463.186,163.648 459.5,167.5C 463.292,170.79 466.958,174.29 470.5,178C 478.929,176.25 487.262,173.75 495.5,170.5C 496.833,170.5 498.167,170.5 499.5,170.5C 499.167,172.5 498.833,174.5 498.5,176.5C 505.2,176.17 511.866,176.503 518.5,177.5C 512.406,180.538 506.073,183.204 499.5,185.5C 489.229,190.232 489.062,195.232 499,200.5C 497.826,202.86 498.66,204.193 501.5,204.5C 511.835,211.003 522.502,217.003 533.5,222.5C 537.966,226.587 537.3,227.921 531.5,226.5C 522.379,225.476 513.379,223.809 504.5,221.5C 505.318,230.639 508.651,238.639 514.5,245.5C 516.121,249.397 518.288,253.064 521,256.5C 527.527,263.939 534.527,270.939 542,277.5C 543.009,279.025 543.509,280.692 543.5,282.5C 540.729,282.579 538.063,282.079 535.5,281C 527.17,277.725 518.837,274.558 510.5,271.5C 511.623,276.579 513.957,281.079 517.5,285C 522.202,285.172 526.868,285.672 531.5,286.5C 528.5,287.833 525.5,289.167 522.5,290.5C 526.791,294.776 529.791,299.776 531.5,305.5C 525.849,303.783 520.182,301.95 514.5,300C 512.741,299.202 511.074,299.369 509.5,300.5C 514.152,305.652 518.985,310.652 524,315.5C 526.393,318.952 528.226,322.619 529.5,326.5C 529.5,327.833 529.5,329.167 529.5,330.5C 527.5,330.5 525.5,330.5 523.5,330.5C 515.463,329.292 507.463,327.959 499.5,326.5C 500.767,335.709 504.267,344.042 510,351.5C 519.04,361.371 528.206,371.037 537.5,380.5C 535.579,381.641 533.579,381.808 531.5,381C 522.923,378.03 514.423,374.863 506,371.5C 505.5,371.833 505,372.167 504.5,372.5C 509.663,381.835 516.163,390.169 524,397.5C 525.009,399.025 525.509,400.692 525.5,402.5C 520.429,401.31 515.429,399.81 510.5,398C 508.421,397.192 506.421,397.359 504.5,398.5C 511.911,404.411 518.078,411.411 523,419.5C 523.494,421.134 523.66,422.801 523.5,424.5C 516.453,420.761 508.953,418.094 501,416.5C 497.154,416.676 494.82,418.676 494,422.5C 493.424,428.514 493.59,434.514 494.5,440.5C 496.661,454.454 498.494,468.454 500,482.5C 499.874,503.826 499.708,525.16 499.5,546.5C 498.448,546.649 497.448,546.483 496.5,546C 491.946,539.777 486.446,534.611 480,530.5C 479.228,530.645 478.561,530.978 478,531.5C 478.436,544.485 478.436,557.485 478,570.5C 476.848,573.44 475.848,576.44 475,579.5C 473.286,580.925 471.953,580.592 471,578.5C 469.089,558.52 461.589,541.02 448.5,526C 445.864,525.066 443.197,524.232 440.5,523.5C 436.181,528.816 431.181,533.483 425.5,537.5C 424.066,535.78 423.233,533.78 423,531.5C 422.697,527.106 422.03,522.773 421,518.5C 419.989,517.663 418.822,517.33 417.5,517.5C 417.594,526.34 416.428,535.007 414,543.5C 410.026,546.63 405.526,548.797 400.5,550C 398.833,550.667 397.167,550.667 395.5,550C 393,546.833 390.5,543.667 388,540.5C 378.085,552.22 365.585,560.054 350.5,564C 314.059,572.903 277.726,572.57 241.5,563C 228.17,558.651 216.67,551.484 207,541.5C 204.625,544.394 202.125,547.228 199.5,550C 193.42,549.976 187.754,548.309 182.5,545C 181.54,543.581 180.707,542.081 180,540.5C 179.108,533.524 178.608,526.524 178.5,519.5C 177.07,519.421 175.736,519.754 174.5,520.5C 173.247,526.197 171.914,531.864 170.5,537.5C 164.908,534.742 160.408,530.742 157,525.5C 143.882,541.082 136.215,559.082 134,579.5C 132.817,580.731 131.651,580.731 130.5,579.5C 127.7,571.781 126.367,563.781 126.5,555.5C 127.336,547.497 127.836,539.497 128,531.5C 126.612,530.446 125.112,530.28 123.5,531C 118.061,535.527 113.061,540.527 108.5,546C 107.551,546.617 106.718,546.451 106,545.5C 106.324,523.848 106.324,502.181 106,480.5C 108.58,461.533 110.58,442.533 112,423.5C 110.855,419.351 108.188,417.018 104,416.5C 97.1684,417.442 91.0017,419.942 85.5,424C 84.2068,424.49 82.8734,424.657 81.5,424.5C 81.7986,420.895 82.9653,417.561 85,414.5C 89.9302,408.447 95.4302,402.947 101.5,398C 94.3852,397.539 87.7185,399.039 81.5,402.5C 80.8333,402.167 80.1667,401.833 79.5,401.5C 84.7178,393.111 90.8845,385.444 98,378.5C 99.4114,376.35 100.245,374.016 100.5,371.5C 91.2279,374.758 81.8946,377.924 72.5,381C 70.7412,381.798 69.0745,381.631 67.5,380.5C 74.183,372.983 81.3497,365.983 89,359.5C 95.5808,352.015 100.914,343.681 105,334.5C 105.497,331.854 105.664,329.187 105.5,326.5C 97.1994,327.939 88.866,329.272 80.5,330.5C 78.8333,330.5 77.1667,330.5 75.5,330.5C 75.5,329.167 75.5,327.833 75.5,326.5C 76.6209,322.526 78.4543,318.86 81,315.5C 85.9309,310.613 90.7643,305.613 95.5,300.5C 93.5787,299.359 91.5787,299.192 89.5,300C 71.113,309.068 68.7796,305.902 82.5,290.5C 79.3046,289.548 76.3046,288.215 73.5,286.5C 78.1315,285.672 82.7982,285.172 87.5,285C 90.7343,281.367 93.0677,277.201 94.5,272.5C 94,272.167 93.5,271.833 93,271.5C 83.9896,275.393 74.8229,278.893 65.5,282C 63.7412,282.798 62.0745,282.631 60.5,281.5C 67.4502,273.048 74.9502,265.048 83,257.5C 87.1419,252.537 90.6419,247.204 93.5,241.5C 97.3789,235.695 99.5456,229.362 100,222.5C 99.4387,221.978 98.772,221.645 98,221.5C 92.2595,223.281 86.4261,224.615 80.5,225.5C 76.4793,226.505 72.4793,226.505 68.5,225.5C 72.2085,222.777 75.8751,220.11 79.5,217.5C 87.6038,213.614 95.6038,209.447 103.5,205C 105.283,201.054 107.949,197.887 111.5,195.5C 114.167,193.833 114.167,192.167 111.5,190.5C 110.71,189.206 109.71,188.039 108.5,187C 101.02,183.905 93.6862,180.738 86.5,177.5C 92.8333,176.833 99.1667,176.167 105.5,175.5C 104.253,173.958 104.253,172.458 105.5,171C 109.203,170.421 112.869,170.588 116.5,171.5C 123.126,173.072 129.459,175.405 135.5,178.5C 140.626,176.717 144.959,173.717 148.5,169.5C 145.146,165.981 141.98,162.314 139,158.5C 137.586,154.248 139.086,151.748 143.5,151C 155.136,149.894 166.136,152.06 176.5,157.5C 178.997,157.065 180.163,155.731 180,153.5C 170.224,143.562 158.39,137.395 144.5,135C 143.167,134 143.167,133 144.5,132C 165.401,126.476 184.401,130.309 201.5,143.5C 204.994,141.921 208.327,140.087 211.5,138C 201.997,132.583 191.997,128.25 181.5,125C 164.989,120.332 148.323,116.499 131.5,113.5C 127.447,112.987 123.447,112.154 119.5,111C 117.842,110.275 117.342,109.108 118,107.5C 123.469,104.705 129.302,103.372 135.5,103.5C 160.913,100.692 185.913,102.692 210.5,109.5C 216.419,111.793 222.086,114.626 227.5,118C 230.482,118.498 233.482,118.665 236.5,118.5C 236.613,115.951 235.946,113.618 234.5,111.5C 237.793,109.07 240.959,109.403 244,112.5C 243.369,108.894 241.869,105.561 239.5,102.5C 239.624,101.893 239.957,101.56 240.5,101.5C 248.964,104.125 256.297,108.625 262.5,115C 267.321,115.675 269.321,113.509 268.5,108.5C 267.441,102.539 266.774,96.5392 266.5,90.5C 269.614,91.0913 272.114,92.758 274,95.5C 279.085,101.997 283.418,108.997 287,116.5C 288.789,118.229 290.956,118.896 293.5,118.5C 293.5,106.833 293.5,95.1667 293.5,83.5C 296.325,83.0807 298.491,84.0807 300,86.5C 306.607,96.6463 312.274,107.313 317,118.5C 322.842,108.817 328.176,98.8175 333,88.5C 334.459,85.2436 336.626,82.5769 339.5,80.5C 339.833,82.3333 340.167,84.1667 340.5,86C 339.014,93.0845 338.014,100.251 337.5,107.5C 337.551,110.223 337.884,112.89 338.5,115.5C 339.723,116.614 341.056,116.781 342.5,116C 348.174,109.071 355.341,104.237 364,101.5C 364.5,101.833 365,102.167 365.5,102.5C 363.102,105.571 361.102,108.905 359.5,112.5C 359.833,112.833 360.167,113.167 360.5,113.5C 362.4,111.384 364.733,110.051 367.5,109.5 Z"/></g>
<g><path style="opacity:1" fill="#4e4a4a" d="M 480.5,112.5 C 486.75,131.499 491.75,150.833 495.5,170.5C 487.262,173.75 478.929,176.25 470.5,178C 466.958,174.29 463.292,170.79 459.5,167.5C 463.186,163.648 466.686,159.648 470,155.5C 470.825,153.299 470.325,151.466 468.5,150C 457.923,147.514 447.589,148.347 437.5,152.5C 435.303,152.152 433.47,151.152 432,149.5C 431.312,148.668 431.479,148.002 432.5,147.5C 442.274,139.781 453.274,134.447 465.5,131.5C 463.997,129.578 461.997,128.412 459.5,128C 439.797,124.509 422.13,129.009 406.5,141.5C 402.154,140.332 397.821,139.166 393.5,138C 402.781,132.86 412.448,128.527 422.5,125C 441.642,119.881 460.975,115.714 480.5,112.5 Z"/></g>
<g><path style="opacity:1" fill="#4e4a4a" d="M 131.5,113.5 C 148.323,116.499 164.989,120.332 181.5,125C 191.997,128.25 201.997,132.583 211.5,138C 208.327,140.087 204.994,141.921 201.5,143.5C 184.401,130.309 165.401,126.476 144.5,132C 143.167,133 143.167,134 144.5,135C 158.39,137.395 170.224,143.562 180,153.5C 180.163,155.731 178.997,157.065 176.5,157.5C 166.136,152.06 155.136,149.894 143.5,151C 139.086,151.748 137.586,154.248 139,158.5C 141.98,162.314 145.146,165.981 148.5,169.5C 144.959,173.717 140.626,176.717 135.5,178.5C 129.459,175.405 123.126,173.072 116.5,171.5C 117.127,165.405 118.294,159.405 120,153.5C 123.74,140.118 127.573,126.784 131.5,113.5 Z"/></g>
<g><path style="opacity:1" fill="#534e4d" d="M 499.5,185.5 C 500.541,191.79 501.208,198.123 501.5,204.5C 498.66,204.193 497.826,202.86 499,200.5C 489.062,195.232 489.229,190.232 499.5,185.5 Z"/></g>
<g><path style="opacity:1" fill="#665546" d="M 111.5,190.5 C 114.167,192.167 114.167,193.833 111.5,195.5C 111.5,193.833 111.5,192.167 111.5,190.5 Z"/></g>
<g><path style="opacity:1" fill="#b67f25" d="M 93.5,241.5 C 88.4393,236.771 84.106,231.438 80.5,225.5C 86.4261,224.615 92.2595,223.281 98,221.5C 98.772,221.645 99.4387,221.978 100,222.5C 99.5456,229.362 97.3789,235.695 93.5,241.5 Z"/></g>
<g><path style="opacity:1" fill="#b67f25" d="M 531.5,226.5 C 526.917,233.753 521.25,240.086 514.5,245.5C 508.651,238.639 505.318,230.639 504.5,221.5C 513.379,223.809 522.379,225.476 531.5,226.5 Z"/></g>
<g><path style="opacity:1" fill="#131312" d="M 360.5,222.5 C 389.936,217.888 414.436,226.555 434,248.5C 440.078,257.391 445.411,266.724 450,276.5C 453.151,288.63 456.485,300.63 460,312.5C 462.976,331.325 466.309,349.992 470,368.5C 470.667,388.5 470.667,408.5 470,428.5C 466.667,434.5 463.333,440.5 460,446.5C 458.333,448.167 456.667,449.833 455,451.5C 452.066,457.63 448.399,463.296 444,468.5C 440.239,471.088 436.073,471.921 431.5,471C 430.667,470.167 429.833,469.333 429,468.5C 406.83,404.988 362.163,372.321 295,370.5C 233.146,372.4 191.146,402.066 169,459.5C 166.77,462.241 163.936,463.408 160.5,463C 150.766,451.924 142.599,439.757 136,426.5C 133.882,404.794 134.216,383.128 137,361.5C 140.615,340.425 144.615,319.425 149,298.5C 155.143,266.994 172.643,244.494 201.5,231C 215.08,226.786 228.746,226.453 242.5,230C 256.907,238.407 268.741,249.573 278,263.5C 295.554,290.92 302.554,320.92 299,353.5C 299.471,355.246 300.138,356.913 301,358.5C 305.169,354.338 307.503,349.338 308,343.5C 307.896,327.646 308.896,311.98 311,296.5C 315.536,282.903 320.869,269.569 327,256.5C 331.815,251.023 335.815,245.023 339,238.5C 342.167,235.333 345.333,232.167 348.5,229C 352.959,227.476 356.959,225.309 360.5,222.5 Z"/></g>
<g><path style="opacity:1" fill="#514c48" d="M 390.5,229.5 C 381.457,226.993 372.457,226.993 363.5,229.5C 364.23,227.955 365.563,227.122 367.5,227C 373.5,226.333 379.5,226.333 385.5,227C 387.653,227.099 389.319,227.933 390.5,229.5 Z"/></g>
<g><path style="opacity:1" fill="#c38e45" d="M 390.5,229.5 C 398.802,231.487 406.468,234.82 413.5,239.5C 420.869,245.868 427.536,252.868 433.5,260.5C 433.5,260.833 433.5,261.167 433.5,261.5C 437.371,267.245 440.704,273.245 443.5,279.5C 444.267,283.149 445.6,286.482 447.5,289.5C 447.5,289.833 447.5,290.167 447.5,290.5C 447.928,293.785 448.928,296.785 450.5,299.5C 450.565,302.428 451.232,305.095 452.5,307.5C 452.96,313.814 454.293,319.814 456.5,325.5C 456.958,333.115 458.292,340.448 460.5,347.5C 461.205,355.729 462.538,363.729 464.5,371.5C 465.495,383.655 465.829,395.989 465.5,408.5C 464.747,414.032 464.08,419.699 463.5,425.5C 461.25,428.999 459.25,432.665 457.5,436.5C 454.449,440.223 451.782,444.223 449.5,448.5C 444.814,453.858 440.481,459.525 436.5,465.5C 435.175,466.953 434.342,466.619 434,464.5C 429.023,447.542 421.189,432.209 410.5,418.5C 404.601,409.929 397.601,402.262 389.5,395.5C 389.167,395.5 388.833,395.5 388.5,395.5C 384.761,391.432 380.428,388.099 375.5,385.5C 375.167,385.5 374.833,385.5 374.5,385.5C 366.876,380.189 358.543,376.189 349.5,373.5C 347.007,372.226 344.341,371.56 341.5,371.5C 330.63,367.595 319.296,365.595 307.5,365.5C 305.5,365.5 303.5,365.5 301.5,365.5C 302.833,364.833 304.167,364.167 305.5,363.5C 307.773,363.043 309.106,361.71 309.5,359.5C 311.728,355.924 312.728,351.924 312.5,347.5C 313.194,342.195 313.528,336.862 313.5,331.5C 313.999,320.536 315.332,309.536 317.5,298.5C 323.254,279.326 331.921,261.66 343.5,245.5C 347.167,241.167 351.167,237.167 355.5,233.5C 358.14,232.18 360.807,230.847 363.5,229.5C 372.457,226.993 381.457,226.993 390.5,229.5 Z"/></g>
<g><path style="opacity:1" fill="#c38d45" d="M 299.5,363.5 C 297.833,364.167 296.167,364.833 294.5,365.5C 230.01,367.515 186.177,398.515 163,458.5C 154.588,447.347 146.921,435.68 140,423.5C 138.876,377.989 144.542,333.322 157,289.5C 166,260.165 185.167,241.332 214.5,233C 227.697,230.634 239.697,233.301 250.5,241C 272.8,260.762 286.966,285.262 293,314.5C 293.333,328.5 293.667,342.5 294,356.5C 294.991,359.64 296.824,361.974 299.5,363.5 Z"/></g>
<g><path style="opacity:1" fill="#605d59" d="M 355.5,233.5 C 351.167,237.167 347.167,241.167 343.5,245.5C 345.098,240.717 348.098,236.883 352.5,234C 353.448,233.517 354.448,233.351 355.5,233.5 Z"/></g>
<g><path style="opacity:1" fill="#65605c" d="M 413.5,239.5 C 414.978,239.238 416.311,239.571 417.5,240.5C 422.887,246.05 428.054,251.716 433,257.5C 433.483,258.448 433.649,259.448 433.5,260.5C 427.536,252.868 420.869,245.868 413.5,239.5 Z"/></g>
<g><path style="opacity:1" fill="#3d3a37" d="M 433.5,261.5 C 434.583,261.539 435.583,261.873 436.5,262.5C 437.339,265.674 439.005,268.341 441.5,270.5C 442.678,273.391 443.345,276.391 443.5,279.5C 440.704,273.245 437.371,267.245 433.5,261.5 Z"/></g>
<g><path style="opacity:1" fill="#484542" d="M 443.5,279.5 C 444.496,279.414 445.329,279.748 446,280.5C 446.696,283.478 447.196,286.478 447.5,289.5C 445.6,286.482 444.267,283.149 443.5,279.5 Z"/></g>
<g><path style="opacity:1" fill="#d8b589" d="M 381.5,281.5 C 405.212,279.262 421.045,289.262 429,311.5C 432.155,336.719 421.655,352.886 397.5,360C 373.442,362.059 357.942,351.559 351,328.5C 348.653,304.492 358.82,288.825 381.5,281.5 Z"/></g>
<g><path style="opacity:1" fill="#d2b085" d="M 196.5,355.5 C 191.87,350.369 187.037,345.369 182,340.5C 180.226,336.592 178.392,332.925 176.5,329.5C 172.805,308.724 180.472,293.558 199.5,284C 224.751,277.043 242.585,285.543 253,309.5C 256.857,326.91 252.023,341.41 238.5,353C 228.736,359.287 218.069,361.62 206.5,360C 202.73,359.278 199.397,357.778 196.5,355.5 Z"/></g>
<g><path style="opacity:1" fill="#331114" d="M 212.5,292.5 C 237.634,295.43 246.8,309.097 240,333.5C 232.735,346.045 221.902,350.878 207.5,348C 191.664,342.515 184.83,331.349 187,314.5C 190.801,301.521 199.301,294.188 212.5,292.5 Z"/></g>
<g><path style="opacity:1" fill="#331114" d="M 387.5,292.5 C 406.989,293.283 417.156,303.283 418,322.5C 414.357,342.922 402.19,351.422 381.5,348C 366.298,341.434 360.132,329.934 363,313.5C 367.116,301.536 375.282,294.536 387.5,292.5 Z"/></g>
<g><path style="opacity:1" fill="#5f5953" d="M 447.5,290.5 C 449.554,293.008 450.554,296.008 450.5,299.5C 448.928,296.785 447.928,293.785 447.5,290.5 Z"/></g>
<g><path style="opacity:1" fill="#eae9e9" d="M 205.5,303.5 C 212.193,303.685 215.026,307.019 214,313.5C 209.763,318.808 205.429,318.808 201,313.5C 200.077,309.017 201.577,305.683 205.5,303.5 Z"/></g>
<g><path style="opacity:1" fill="#ebebeb" d="M 380.5,303.5 C 387.978,303.485 390.811,307.152 389,314.5C 385,318.5 381,318.5 377,314.5C 375.663,309.916 376.829,306.249 380.5,303.5 Z"/></g>
<g><path style="opacity:1" fill="#766b61" d="M 317.5,298.5 C 315.332,309.536 313.999,320.536 313.5,331.5C 313.072,320.723 313.905,310.056 316,299.5C 316.383,298.944 316.883,298.611 317.5,298.5 Z"/></g>
<g><path style="opacity:1" fill="#605952" d="M 452.5,307.5 C 454.752,313.187 456.086,319.187 456.5,325.5C 454.293,319.814 452.96,313.814 452.5,307.5 Z"/></g>
<g><path style="opacity:1" fill="#969593" d="M 75.5,326.5 C 75.5,327.833 75.5,329.167 75.5,330.5C 77.1667,330.5 78.8333,330.5 80.5,330.5C 78.7354,331.461 76.7354,331.795 74.5,331.5C 74.2155,329.585 74.5489,327.919 75.5,326.5 Z"/></g>
<g><path style="opacity:1" fill="#5a5550" d="M 456.5,325.5 C 458.755,332.549 460.088,339.882 460.5,347.5C 458.292,340.448 456.958,333.115 456.5,325.5 Z"/></g>
<g><path style="opacity:1" fill="#92908f" d="M 529.5,326.5 C 530.451,327.919 530.784,329.585 530.5,331.5C 527.941,331.802 525.607,331.468 523.5,330.5C 525.5,330.5 527.5,330.5 529.5,330.5C 529.5,329.167 529.5,327.833 529.5,326.5 Z"/></g>
<g><path style="opacity:1" fill="#ac8f6a" d="M 176.5,329.5 C 178.392,332.925 180.226,336.592 182,340.5C 187.037,345.369 191.87,350.369 196.5,355.5C 187.847,351.68 181.681,345.346 178,336.5C 177.023,334.26 176.523,331.927 176.5,329.5 Z"/></g>
<g><path style="opacity:1" fill="#56524e" d="M 312.5,347.5 C 312.728,351.924 311.728,355.924 309.5,359.5C 309.898,355.239 310.898,351.239 312.5,347.5 Z"/></g>
<g><path style="opacity:1" fill="#5b554f" d="M 460.5,347.5 C 463.076,355.174 464.409,363.174 464.5,371.5C 462.538,363.729 461.205,355.729 460.5,347.5 Z"/></g>
<g><path style="opacity:1" fill="#8b7662" d="M 299.5,363.5 C 301.5,363.5 303.5,363.5 305.5,363.5C 304.167,364.167 302.833,364.833 301.5,365.5C 299.167,365.5 296.833,365.5 294.5,365.5C 296.167,364.833 297.833,364.167 299.5,363.5 Z"/></g>
<g><path style="opacity:1" fill="#645e59" d="M 307.5,365.5 C 319.296,365.595 330.63,367.595 341.5,371.5C 329.99,369.759 318.656,367.759 307.5,365.5 Z"/></g>
<g><path style="opacity:1" fill="#5b5551" d="M 349.5,373.5 C 358.543,376.189 366.876,380.189 374.5,385.5C 369.076,383.298 363.742,380.798 358.5,378C 355.899,377.08 353.232,376.413 350.5,376C 349.748,375.329 349.414,374.496 349.5,373.5 Z"/></g>
<g><path style="opacity:1" fill="#4e4b47" d="M 375.5,385.5 C 380.428,388.099 384.761,391.432 388.5,395.5C 384.524,393.205 380.524,390.871 376.5,388.5C 375.873,387.583 375.539,386.583 375.5,385.5 Z"/></g>
<g><path style="opacity:1" fill="#302826" d="M 283.5,399.5 C 295.613,398.964 307.613,399.797 319.5,402C 339.166,408.647 344.666,421.48 336,440.5C 328.578,449.309 319.412,455.809 308.5,460C 301.947,467.887 301.947,475.72 308.5,483.5C 321.465,486.9 333.299,492.567 344,500.5C 344.684,501.784 344.517,502.951 343.5,504C 339.227,505.03 334.894,505.697 330.5,506C 308.5,506.667 286.5,506.667 264.5,506C 259.488,505.964 254.821,504.797 250.5,502.5C 253.915,498.622 257.915,495.455 262.5,493C 270.159,489.085 278.159,486.085 286.5,484C 288.81,482.363 290.31,480.196 291,477.5C 292.704,470.717 291.204,464.883 286.5,460C 276.697,456.019 268.197,450.186 261,442.5C 252.703,429.638 253.87,417.804 264.5,407C 270.604,403.583 276.937,401.083 283.5,399.5 Z"/></g>
<g><path style="opacity:1" fill="#53504c" d="M 389.5,395.5 C 397.601,402.262 404.601,409.929 410.5,418.5C 403.173,411.171 396.173,403.505 389.5,395.5 Z"/></g>
<g><path style="opacity:1" fill="#978b80" d="M 465.5,408.5 C 466.117,414.598 465.45,420.265 463.5,425.5C 464.08,419.699 464.747,414.032 465.5,408.5 Z"/></g>
<g><path style="opacity:1" fill="#5b5753" d="M 463.5,425.5 C 463.004,429.988 461.004,433.655 457.5,436.5C 459.25,432.665 461.25,428.999 463.5,425.5 Z"/></g>
<g><path style="opacity:1" fill="#595450" d="M 457.5,436.5 C 456.381,441.511 453.715,445.511 449.5,448.5C 451.782,444.223 454.449,440.223 457.5,436.5 Z"/></g>
<g><path style="opacity:1" fill="#5a5652" d="M 449.5,448.5 C 447.112,453.582 443.945,458.249 440,462.5C 439.517,463.448 439.351,464.448 439.5,465.5C 438.5,465.5 437.5,465.5 436.5,465.5C 440.481,459.525 444.814,453.858 449.5,448.5 Z"/></g>
</svg>
