<?xml version="1.0" encoding="UTF-8"?>
<!DOCTYPE svg PUBLIC "-//W3C//DTD SVG 1.1//EN" "http://www.w3.org/Graphics/SVG/1.1/DTD/svg11.dtd">
<svg xmlns="http://www.w3.org/2000/svg" version="1.1" width="600px" height="600px" style="shape-rendering:geometricPrecision; text-rendering:geometricPrecision; image-rendering:optimizeQuality; fill-rule:evenodd; clip-rule:evenodd" xmlns:xlink="http://www.w3.org/1999/xlink">
<g><path style="opacity:0.972" fill="#030302" d="M 599.5,257.5 C 599.5,267.167 599.5,276.833 599.5,286.5C 597.198,288.656 594.531,290.323 591.5,291.5C 590.137,300.244 588.304,308.911 586,317.5C 584.3,324.275 581.633,330.608 578,336.5C 574.386,339.261 570.386,341.261 566,342.5C 564.795,349.411 561.628,355.245 556.5,360C 549.959,362.853 543.793,366.353 538,370.5C 537.976,380.084 533.476,386.251 524.5,389C 519.825,389.797 515.159,390.63 510.5,391.5C 516.794,400.936 516.961,410.603 511,420.5C 502.121,436.547 489.954,449.547 474.5,459.5C 474.463,480.335 465.463,495.835 447.5,506C 445.167,506.333 442.833,506.667 440.5,507C 437.718,511.781 433.718,515.114 428.5,517C 423.297,519.013 417.963,520.513 412.5,521.5C 407.826,521.388 403.826,519.722 400.5,516.5C 386.866,527.148 371.533,534.315 354.5,538C 325.386,543.677 296.053,545.01 266.5,542C 241.282,539.877 218.615,531.377 198.5,516.5C 192.49,521.43 185.823,522.597 178.5,520C 172.268,517.926 166.435,515.093 161,511.5C 159.49,507.099 156.324,505.266 151.5,506C 135.373,496.938 126.373,483.104 124.5,464.5C 105.809,453.309 90.9757,438.309 80,419.5C 78.0346,414.638 76.5346,409.638 75.5,404.5C 76.6901,399.787 78.6901,395.453 81.5,391.5C 76.4601,390.156 71.4601,388.656 66.5,387C 61.3787,382.316 58.5454,376.483 58,369.5C 51.452,366.142 44.952,362.642 38.5,359C 34.2497,354.33 31.7497,348.83 31,342.5C 25.3006,341.65 20.6339,338.983 17,334.5C 11.0835,321.085 7.41687,307.085 6,292.5C 3.72176,291.281 1.55509,289.948 -0.5,288.5C -0.5,276.5 -0.5,264.5 -0.5,252.5C 7.92352,241.977 13.4235,229.977 16,216.5C 23.0613,202.109 31.728,188.776 42,176.5C 65.0941,154.061 89.9274,133.894 116.5,116C 134.5,104.024 153.833,94.6911 174.5,88C 184.035,85.5902 193.701,83.9235 203.5,83C 202.556,72.4317 207.556,66.9317 218.5,66.5C 228.815,67.9299 238.982,69.9299 249,72.5C 251.512,62.9863 257.679,59.153 267.5,61C 280.349,62.9477 292.182,67.4477 303,74.5C 315.175,67.163 328.342,62.4963 342.5,60.5C 350.835,60.3214 355.502,64.3214 356.5,72.5C 364.475,70.9385 372.475,69.4385 380.5,68C 385.921,67.1608 391.254,67.4941 396.5,69C 401.85,72.3642 403.517,77.0309 401.5,83C 415.941,84.5543 429.941,87.8877 443.5,93C 455.286,101.734 467.619,109.734 480.5,117C 508.077,135.898 533.911,157.065 558,180.5C 571.546,196.258 580.88,214.258 586,234.5C 590.363,242.336 594.863,250.003 599.5,257.5 Z"/></g>
<g><path style="opacity:1" fill="#434344" d="M 524.5,165.5 C 524.5,166.5 524.5,167.5 524.5,168.5C 523.127,168.657 521.793,168.49 520.5,168C 502.627,158.23 484.627,148.73 466.5,139.5C 466.167,139.833 465.833,140.167 465.5,140.5C 468.972,145.806 472.639,150.972 476.5,156C 489.521,164.019 501.021,173.852 511,185.5C 511.667,189.833 511.667,194.167 511,198.5C 510.535,199.931 509.701,201.097 508.5,202C 500.167,202.333 491.833,202.667 483.5,203C 481.995,205.912 482.662,208.245 485.5,210C 496.954,215.807 507.454,222.974 517,231.5C 518,233.167 519,234.833 520,236.5C 523.384,252.057 524.218,267.724 522.5,283.5C 520.579,284.641 518.579,284.808 516.5,284C 509.263,281.382 502.263,278.215 495.5,274.5C 495.167,274.833 494.833,275.167 494.5,275.5C 502.578,285.989 510.411,296.656 518,307.5C 522.001,312.673 522.501,318.173 519.5,324C 514.161,324.448 508.994,323.615 504,321.5C 503.167,321.833 502.333,322.167 501.5,322.5C 508.4,328.641 513.567,335.974 517,344.5C 516.832,351.677 515.498,358.677 513,365.5C 512.632,366.91 511.799,367.91 510.5,368.5C 503.248,363.958 496.081,359.291 489,354.5C 488.774,362.582 490.274,370.248 493.5,377.5C 496.26,386.351 500.093,394.685 505,402.5C 504.773,408.188 503.106,413.521 500,418.5C 493.296,429.541 484.796,439.041 474.5,447C 473.551,447.617 472.718,447.451 472,446.5C 468.496,425.481 462.663,405.148 454.5,385.5C 462.607,363.347 468.774,340.68 473,317.5C 474.764,301.084 472.097,285.418 465,270.5C 459.462,259.483 452.962,249.149 445.5,239.5C 453.91,241.266 456.743,238.266 454,230.5C 435.249,215.375 414.082,204.875 390.5,199C 377.016,195.652 363.349,193.485 349.5,192.5C 342.122,192.385 335.122,193.885 328.5,197C 327.29,198.039 326.29,199.206 325.5,200.5C 318.192,202.581 312.025,206.581 307,212.5C 304.667,216.167 302.333,219.833 300,223.5C 295.962,216.456 290.796,210.289 284.5,205C 281.516,202.674 278.183,201.174 274.5,200.5C 272.388,197.937 269.721,196.104 266.5,195C 223.194,190.662 183.861,201.328 148.5,227C 144.941,229.28 143.441,232.447 144,236.5C 144.5,237.667 145.333,238.5 146.5,239C 149.462,239.301 152.128,239.468 154.5,239.5C 140.59,255.321 131.423,273.654 127,294.5C 125.315,315.063 127.982,335.063 135,354.5C 138.308,364.758 141.808,374.925 145.5,385C 135.967,406.627 129.301,429.127 125.5,452.5C 109.326,442.161 96.8263,428.494 88,411.5C 86.6815,408.594 86.3482,405.594 87,402.5C 91.5909,395.319 95.0909,387.652 97.5,379.5C 99.5968,374.04 101.43,368.373 103,362.5C 103.818,359.773 103.652,357.106 102.5,354.5C 96.3256,358.42 90.3256,362.587 84.5,367C 82.8333,367.667 81.1667,367.667 79.5,367C 77.056,360.557 75.3893,353.891 74.5,347C 74.8654,343.237 76.032,339.737 78,336.5C 81.9812,331.684 86.1479,327.018 90.5,322.5C 89.6667,322.167 88.8333,321.833 88,321.5C 82.9008,323.071 77.7341,323.904 72.5,324C 70.0045,319.677 69.8378,315.177 72,310.5C 80.2215,297.891 89.0549,285.724 98.5,274C 91.0922,277.528 83.4255,280.861 75.5,284C 73.4213,284.808 71.4213,284.641 69.5,283.5C 68.1828,270.513 68.3494,257.513 70,244.5C 70.8343,240.321 72.1676,236.321 74,232.5C 77.2012,228.964 80.7012,225.797 84.5,223C 93.2498,218.21 101.75,213.043 110,207.5C 110.865,205.112 110.032,203.612 107.5,203C 99.1468,202.832 90.8134,202.332 82.5,201.5C 80.4884,196.016 79.9884,190.35 81,184.5C 90.7509,170.081 102.584,157.581 116.5,147C 112.382,148.049 108.382,149.716 104.5,152C 93.5688,158.632 82.2355,164.465 70.5,169.5C 69.5836,169.457 68.9169,169.124 68.5,168.5C 79.6996,156.473 92.0329,145.64 105.5,136C 122.346,124.405 140.012,114.072 158.5,105C 166.814,101.006 175.481,98.0064 184.5,96C 198.493,94.001 212.493,92.1677 226.5,90.5C 226.649,89.448 226.483,88.448 226,87.5C 221.856,84.8509 218.022,81.8509 214.5,78.5C 217.784,77.343 221.118,77.1764 224.5,78C 237.119,80.6593 249.786,82.6593 262.5,84C 263.081,83.1074 263.415,82.1074 263.5,81C 262.346,77.865 261.346,74.6983 260.5,71.5C 266.285,71.4899 271.951,72.3233 277.5,74C 286.231,77.121 294.731,80.621 303,84.5C 309.762,82.3712 316.262,79.5378 322.5,76C 330.172,72.2438 338.172,71.0771 346.5,72.5C 344.889,75.3872 343.556,78.3872 342.5,81.5C 342.901,83.9474 344.401,84.9474 347,84.5C 356.896,82.9439 366.729,81.1106 376.5,79C 381.47,77.9193 386.47,77.586 391.5,78C 392.458,79.1475 392.125,80.1475 390.5,81C 386.722,83.112 383.222,85.612 380,88.5C 379.383,89.4491 379.549,90.2825 380.5,91C 392.809,92.786 405.142,94.4527 417.5,96C 425.91,97.47 433.91,100.137 441.5,104C 443.213,105.378 444.547,107.045 445.5,109C 474.719,123.93 501.052,142.763 524.5,165.5 Z"/></g>
<g><path style="opacity:1" fill="#353435" d="M 524.5,165.5 C 550.665,182.866 567.831,206.866 576,237.5C 580.413,245.995 585.08,254.328 590,262.5C 596.583,272.574 594.417,279.741 583.5,284C 581.959,285.579 580.792,287.413 580,289.5C 579.363,303.048 576.363,316.048 571,328.5C 568.53,330.438 565.696,331.604 562.5,332C 556.985,335.188 554.152,340.022 554,346.5C 553.028,348.305 551.861,349.972 550.5,351.5C 543.124,354.604 536.291,358.604 530,363.5C 527.298,367.372 525.965,371.705 526,376.5C 524.829,377.893 523.329,378.727 521.5,379C 512.086,379.792 502.753,379.292 493.5,377.5C 490.274,370.248 488.774,362.582 489,354.5C 496.081,359.291 503.248,363.958 510.5,368.5C 511.799,367.91 512.632,366.91 513,365.5C 515.498,358.677 516.832,351.677 517,344.5C 513.567,335.974 508.4,328.641 501.5,322.5C 502.333,322.167 503.167,321.833 504,321.5C 508.994,323.615 514.161,324.448 519.5,324C 522.501,318.173 522.001,312.673 518,307.5C 510.411,296.656 502.578,285.989 494.5,275.5C 494.833,275.167 495.167,274.833 495.5,274.5C 502.263,278.215 509.263,281.382 516.5,284C 518.579,284.808 520.579,284.641 522.5,283.5C 524.218,267.724 523.384,252.057 520,236.5C 519,234.833 518,233.167 517,231.5C 507.454,222.974 496.954,215.807 485.5,210C 482.662,208.245 481.995,205.912 483.5,203C 491.833,202.667 500.167,202.333 508.5,202C 509.701,201.097 510.535,199.931 511,198.5C 511.667,194.167 511.667,189.833 511,185.5C 501.021,173.852 489.521,164.019 476.5,156C 472.639,150.972 468.972,145.806 465.5,140.5C 465.833,140.167 466.167,139.833 466.5,139.5C 484.627,148.73 502.627,158.23 520.5,168C 521.793,168.49 523.127,168.657 524.5,168.5C 524.5,167.5 524.5,166.5 524.5,165.5 Z"/></g>
<g><path style="opacity:1" fill="#353435" d="M 97.5,379.5 C 89.2807,379.942 80.9474,379.442 72.5,378C 71.6667,377.167 70.8333,376.333 70,375.5C 70.1929,370.648 68.8596,366.315 66,362.5C 58.7991,357.901 51.4658,353.568 44,349.5C 42.6391,344.722 40.9724,340.056 39,335.5C 34.2205,332.979 29.5538,330.312 25,327.5C 20.2565,314.862 17.2565,301.862 16,288.5C 14.8783,286.376 13.3783,284.543 11.5,283C 3.36073,280.115 1.19406,274.615 5,266.5C 8.55976,258.379 12.8931,250.712 18,243.5C 24.7066,216.577 38.2066,193.744 58.5,175C 61.7196,172.563 65.053,170.397 68.5,168.5C 68.9169,169.124 69.5836,169.457 70.5,169.5C 82.2355,164.465 93.5688,158.632 104.5,152C 108.382,149.716 112.382,148.049 116.5,147C 102.584,157.581 90.7509,170.081 81,184.5C 79.9884,190.35 80.4884,196.016 82.5,201.5C 90.8134,202.332 99.1468,202.832 107.5,203C 110.032,203.612 110.865,205.112 110,207.5C 101.75,213.043 93.2498,218.21 84.5,223C 80.7012,225.797 77.2012,228.964 74,232.5C 72.1676,236.321 70.8343,240.321 70,244.5C 68.3494,257.513 68.1828,270.513 69.5,283.5C 71.4213,284.641 73.4213,284.808 75.5,284C 83.4255,280.861 91.0922,277.528 98.5,274C 89.0549,285.724 80.2215,297.891 72,310.5C 69.8378,315.177 70.0045,319.677 72.5,324C 77.7341,323.904 82.9008,323.071 88,321.5C 88.8333,321.833 89.6667,322.167 90.5,322.5C 86.1479,327.018 81.9812,331.684 78,336.5C 76.032,339.737 74.8654,343.237 74.5,347C 75.3893,353.891 77.056,360.557 79.5,367C 81.1667,367.667 82.8333,367.667 84.5,367C 90.3256,362.587 96.3256,358.42 102.5,354.5C 103.652,357.106 103.818,359.773 103,362.5C 101.43,368.373 99.5968,374.04 97.5,379.5 Z"/></g>
<g><path style="opacity:1" fill="#353435" d="M 274.5,200.5 C 248.799,206.566 224.466,216.066 201.5,229C 195.91,233.045 190.41,237.212 185,241.5C 186.465,226.967 180.298,222.133 166.5,227C 162.269,231.062 158.269,235.229 154.5,239.5C 152.128,239.468 149.462,239.301 146.5,239C 145.333,238.5 144.5,237.667 144,236.5C 143.441,232.447 144.941,229.28 148.5,227C 183.861,201.328 223.194,190.662 266.5,195C 269.721,196.104 272.388,197.937 274.5,200.5 Z"/></g>
<g><path style="opacity:1" fill="#353435" d="M 445.5,239.5 C 441.036,235.537 436.702,231.37 432.5,227C 422.922,221.799 416.588,224.299 413.5,234.5C 414.172,236.832 414.339,239.166 414,241.5C 402.426,232.291 389.926,224.457 376.5,218C 359.592,211.643 342.592,205.809 325.5,200.5C 326.29,199.206 327.29,198.039 328.5,197C 335.122,193.885 342.122,192.385 349.5,192.5C 363.349,193.485 377.016,195.652 390.5,199C 414.082,204.875 435.249,215.375 454,230.5C 456.743,238.266 453.91,241.266 445.5,239.5 Z"/></g>
<g><path style="opacity:1" fill="#a17434" d="M 443.5,388.5 C 417.532,336.972 375.532,308.472 317.5,303C 272.677,298.285 232.344,309.285 196.5,336C 179.918,350.368 166.585,367.202 156.5,386.5C 150.168,367.335 144.334,348.002 139,328.5C 134.116,309.389 136.116,291.056 145,273.5C 152.427,259.152 161.927,246.319 173.5,235C 174.332,234.312 174.998,234.479 175.5,235.5C 170.764,241.742 167.097,248.576 164.5,256C 165.704,262.106 169.371,264.439 175.5,263C 182.126,258.043 188.46,252.709 194.5,247C 217.062,230.471 242.062,219.138 269.5,213C 270.966,212.365 272.3,211.531 273.5,210.5C 287.31,219.78 294.643,232.78 295.5,249.5C 293.958,259.122 293.458,268.789 294,278.5C 294.842,283.7 296.842,288.367 300,292.5C 302.478,289.211 304.144,285.544 305,281.5C 305.545,270.993 305.379,260.493 304.5,250C 304.841,233.192 311.841,220.025 325.5,210.5C 326.646,211.145 327.646,211.978 328.5,213C 354.861,219.224 379.194,229.891 401.5,245C 408.833,251 416.167,257 423.5,263C 429.397,264.391 433.064,262.224 434.5,256.5C 432.133,248.805 428.466,241.805 423.5,235.5C 423.833,235.167 424.167,234.833 424.5,234.5C 442.823,250.803 455.323,270.803 462,294.5C 463.009,306.937 462.343,319.271 460,331.5C 454.964,348.578 449.63,365.578 444,382.5C 443.505,384.473 443.338,386.473 443.5,388.5 Z"/></g>
<g><path style="opacity:1" fill="#060403" d="M 224.5,231.5 C 247.895,231.058 258.728,242.391 257,265.5C 250.439,283.197 237.939,289.364 219.5,284C 207.545,276.923 202.378,266.423 204,252.5C 207.685,242.316 214.519,235.316 224.5,231.5 Z"/></g>
<g><path style="opacity:1" fill="#060403" d="M 362.5,231.5 C 378.529,230.591 389.362,237.591 395,252.5C 396.896,272.592 387.896,283.592 368,285.5C 354.705,284.874 346.038,278.207 342,265.5C 339.905,248.678 346.738,237.345 362.5,231.5 Z"/></g>
<g><path style="opacity:1" fill="#322a27" d="M 233.5,242.5 C 225.883,247.414 225.55,252.914 232.5,259C 239.452,260.203 243.452,257.369 244.5,250.5C 249.589,259.227 247.922,266.727 239.5,273C 228.628,277.932 220.462,275.098 215,264.5C 213.058,250.279 219.225,242.946 233.5,242.5 Z"/></g>
<g><path style="opacity:1" fill="#322a28" d="M 374.5,243.5 C 366.459,244.04 363.959,248.04 367,255.5C 373.96,261.585 379.127,260.252 382.5,251.5C 387.204,265.076 382.371,273.076 368,275.5C 353.684,272.534 349.018,264.2 354,250.5C 359.283,243.087 366.116,240.754 374.5,243.5 Z"/></g>
<g><path style="opacity:1" fill="#f4f3f3" d="M 233.5,242.5 C 238.311,243.652 241.978,246.318 244.5,250.5C 243.452,257.369 239.452,260.203 232.5,259C 225.55,252.914 225.883,247.414 233.5,242.5 Z"/></g>
<g><path style="opacity:1" fill="#f7f6f6" d="M 374.5,243.5 C 378.188,245.188 380.855,247.855 382.5,251.5C 379.127,260.252 373.96,261.585 367,255.5C 363.959,248.04 366.459,244.04 374.5,243.5 Z"/></g>
<g><path style="opacity:1" fill="#bc8547" d="M 443.5,388.5 C 456.466,415.362 462.633,443.696 462,473.5C 458.745,483.079 452.912,490.579 444.5,496C 443.551,496.617 442.718,496.451 442,495.5C 440.71,489.228 439.71,482.895 439,476.5C 438.588,474.003 437.422,472.003 435.5,470.5C 434.331,481.221 432.831,491.887 431,502.5C 429.891,504.815 428.057,506.315 425.5,507C 420.572,508.982 415.572,510.316 410.5,511C 407.135,507.739 404.135,504.239 401.5,500.5C 389.292,513.942 374.292,522.776 356.5,527C 317.07,535.997 277.736,535.664 238.5,526C 222.245,521.545 208.578,513.045 197.5,500.5C 194.675,503.495 192.008,506.662 189.5,510C 188.271,510.781 186.938,511.281 185.5,511.5C 180.726,509.947 176.06,508.114 171.5,506C 169.185,504.891 167.685,503.057 167,500.5C 165.669,490.516 164.502,480.516 163.5,470.5C 162.522,470.977 161.689,471.643 161,472.5C 159.538,480.385 158.038,488.218 156.5,496C 146.431,491.489 139.931,483.656 137,472.5C 136.872,442.346 143.372,413.679 156.5,386.5C 166.585,367.202 179.918,350.368 196.5,336C 232.344,309.285 272.677,298.285 317.5,303C 375.532,308.472 417.532,336.972 443.5,388.5 Z"/></g>
<g><path style="opacity:1" fill="#060403" d="M 289.5,336.5 C 304.281,334.967 318.281,337.467 331.5,344C 339.473,351.689 341.64,360.856 338,371.5C 327.772,388.698 312.606,396.532 292.5,395C 281.856,391.929 272.689,386.429 265,378.5C 254.191,359.923 258.691,346.757 278.5,339C 282.312,338.205 285.979,337.371 289.5,336.5 Z"/></g>
<g><path style="opacity:1" fill="#2f2726" d="M 288.5,347.5 C 295.508,347.334 302.508,347.5 309.5,348C 317.001,348.002 323.168,350.835 328,356.5C 330.126,361.006 329.793,365.339 327,369.5C 309.363,389.036 291.363,389.369 273,370.5C 268.288,361.833 270.122,355 278.5,350C 282.038,349.465 285.372,348.632 288.5,347.5 Z"/></g>
<g><path style="opacity:1" fill="#090504" d="M 289.5,418.5 C 314.489,418.652 339.322,420.652 364,424.5C 364.833,424.833 365.667,425.167 366.5,425.5C 354.551,427.043 342.551,428.043 330.5,428.5C 330.623,458.537 315.956,470.37 286.5,464C 278.071,460.571 272.904,454.404 271,445.5C 269.653,439.905 268.82,434.238 268.5,428.5C 256.415,428.796 244.415,427.963 232.5,426C 232.833,425.667 233.167,425.333 233.5,425C 252.131,421.306 270.798,419.139 289.5,418.5 Z"/></g>
<g><path style="opacity:1" fill="#e26573" d="M 289.5,428.5 C 299.591,428.171 309.591,428.837 319.5,430.5C 319.294,452.622 308.627,459.956 287.5,452.5C 281.56,446.019 278.56,438.353 278.5,429.5C 282.371,429.815 286.038,429.482 289.5,428.5 Z"/></g>
</svg>
