<?xml version="1.0" encoding="UTF-8"?>
<!DOCTYPE svg PUBLIC "-//W3C//DTD SVG 1.1//EN" "http://www.w3.org/Graphics/SVG/1.1/DTD/svg11.dtd">
<svg xmlns="http://www.w3.org/2000/svg" version="1.1" width="600px" height="600px" style="shape-rendering:geometricPrecision; text-rendering:geometricPrecision; image-rendering:optimizeQuality; fill-rule:evenodd; clip-rule:evenodd" xmlns:xlink="http://www.w3.org/1999/xlink">
<g><path style="opacity:0.975" fill="#030303" d="M 599.5,220.5 C 599.5,257.833 599.5,295.167 599.5,332.5C 597.431,334.098 596.431,336.265 596.5,339C 597.974,346.547 597.808,354.047 596,361.5C 591.08,369.672 586.413,378.005 582,386.5C 581.434,392.244 581.934,397.91 583.5,403.5C 582.892,410.882 579.559,416.715 573.5,421C 550.023,435.131 525.023,439.465 498.5,434C 496.709,437.751 494.543,441.251 492,444.5C 487.515,448.408 482.848,452.074 478,455.5C 474.788,467.123 468.288,476.289 458.5,483C 454.5,484.667 450.5,486.333 446.5,488C 443.543,492.08 440.71,496.247 438,500.5C 429.532,508.718 419.366,513.385 407.5,514.5C 397.08,527.921 383.413,533.421 366.5,531C 354.285,541.643 340.452,544.476 325,539.5C 320.477,540.84 315.977,542.34 311.5,544C 304.833,546 298.167,546 291.5,544C 287.34,541.916 283.007,540.416 278.5,539.5C 273.322,540.419 268.156,541.419 263,542.5C 253.014,541.255 244.18,537.422 236.5,531C 219.617,533.149 205.95,527.482 195.5,514C 182.636,513.484 172.136,508.318 164,498.5C 161.888,494.722 159.388,491.222 156.5,488C 140.569,483.069 130.402,472.569 126,456.5C 121.645,452.644 117.145,448.977 112.5,445.5C 109.169,441.508 106.336,437.175 104,432.5C 93.8057,436.052 83.3057,437.552 72.5,437C 55.2331,434.69 39.2331,429.024 24.5,420C 19.1416,415.803 16.1416,410.303 15.5,403.5C 17.3242,397.61 17.8242,391.61 17,385.5C 12.3333,377.5 7.66667,369.5 3,361.5C 2.06111,358.236 1.56111,354.903 1.5,351.5C 2.26689,346.173 2.43355,340.84 2,335.5C 1.62325,334.058 0.789915,333.058 -0.5,332.5C -0.5,295.167 -0.5,257.833 -0.5,220.5C 7.10357,212.395 14.9369,204.395 23,196.5C 30.3317,183.504 38.8317,171.338 48.5,160C 60.3529,150.237 72.0196,140.237 83.5,130C 106.143,113.343 130.809,100.343 157.5,91C 170.377,88.2651 183.377,86.2651 196.5,85C 207.02,71.9432 220.686,66.2766 237.5,68C 248.924,58.0613 261.924,55.228 276.5,59.5C 284.261,55.2469 292.595,52.5803 301.5,51.5C 308.921,52.8799 315.921,55.3799 322.5,59C 330.43,57.9041 338.43,57.5708 346.5,58C 353.845,59.5051 360.179,62.8384 365.5,68C 382.433,66.2979 396.099,71.9645 406.5,85C 426.077,86.1143 444.743,90.781 462.5,99C 501.112,116.619 534.279,141.452 562,173.5C 566.499,181.836 571.499,189.836 577,197.5C 584.73,205.062 592.23,212.728 599.5,220.5 Z"/></g>
<g><path style="opacity:1" fill="#f1f1f1" d="M 341.5,271.5 C 312.541,263.793 283.541,263.793 254.5,271.5C 277.805,248.889 282.305,222.889 268,193.5C 265.752,190.672 263.752,187.672 262,184.5C 253.636,176.47 245.636,168.137 238,159.5C 230.692,149.061 229.692,138.061 235,126.5C 239.57,116.261 246.07,107.428 254.5,100C 262.244,94.0449 270.077,88.2115 278,82.5C 279.669,78.6538 280.836,74.6538 281.5,70.5C 291.665,61.8703 302.665,60.537 314.5,66.5C 315.015,71.6761 316.181,76.6761 318,81.5C 328.183,89.2597 338.183,97.2597 348,105.5C 355.679,113.858 361.013,123.524 364,134.5C 365.636,145.923 362.636,155.923 355,164.5C 347.527,171.061 340.527,178.061 334,185.5C 319.606,205.172 316.606,226.505 325,249.5C 330.266,257.042 335.766,264.375 341.5,271.5 Z"/></g>
<g><path style="opacity:1" fill="#4b4848" d="M 112.5,419.5 C 110.689,411.489 106.522,404.823 100,399.5C 97.7813,395.729 96.1146,391.729 95,387.5C 94.6667,380.833 94.3333,374.167 94,367.5C 90.1973,361.561 87.1973,355.227 85,348.5C 84.3333,344.5 84.3333,340.5 85,336.5C 86.4347,332.966 87.268,329.299 87.5,325.5C 85.5,317.833 83.5,310.167 81.5,302.5C 81.6764,299.118 82.1764,295.785 83,292.5C 85.6346,287.263 87.4679,281.763 88.5,276C 86.4406,268.61 85.6073,261.11 86,253.5C 88.5389,246.756 91.8723,240.422 96,234.5C 96.1358,226.438 96.8025,218.438 98,210.5C 99.4131,207.339 101.08,204.339 103,201.5C 111.225,194.841 115.225,186.174 115,175.5C 116.139,171.888 117.806,168.554 120,165.5C 125.521,161.069 130.854,156.402 136,151.5C 138.139,143.409 141.972,136.243 147.5,130C 152.772,126.243 158.439,123.243 164.5,121C 168.738,114.092 173.738,107.759 179.5,102C 185.323,99.6291 190.989,97.4624 196.5,95.5C 198.655,95.628 200.655,95.128 202.5,94C 206.909,88.9196 211.909,84.5863 217.5,81C 224.771,79.8177 232.104,79.1511 239.5,79C 245.375,74.5619 251.708,70.8953 258.5,68C 262.225,67.2401 265.892,67.4068 269.5,68.5C 270.647,70.7649 270.814,73.0982 270,75.5C 253.806,84.6925 240.472,97.0259 230,112.5C 218.355,131.444 218.688,150.11 231,168.5C 239.309,176.477 247.309,184.81 255,193.5C 265.366,206.956 268.366,221.956 264,238.5C 263.101,242.538 261.434,246.205 259,249.5C 255.267,254.567 250.933,258.9 246,262.5C 242.7,256.79 238.533,251.623 233.5,247C 218.531,238.299 205.031,240.132 193,252.5C 187.821,260.058 186.154,268.391 188,277.5C 188.739,281.062 190.239,284.228 192.5,287C 140.687,323.81 120.187,373.644 131,436.5C 131.879,441.136 133.545,445.469 136,449.5C 137.085,450.293 138.252,450.96 139.5,451.5C 140.198,457.056 141.364,462.39 143,467.5C 139.473,461.779 136.473,455.779 134,449.5C 129.786,445.618 125.286,442.118 120.5,439C 115.484,433.468 112.818,426.968 112.5,419.5 Z"/></g>
<g><path style="opacity:1" fill="#4b4848" d="M 405.5,96.5 C 413.071,97.1119 420.071,99.6119 426.5,104C 430.925,110.181 435.592,116.181 440.5,122C 449.779,124.376 456.946,129.543 462,137.5C 464.196,142.42 466.196,147.42 468,152.5C 474.083,157.039 479.75,162.039 485,167.5C 485.815,169.623 486.815,171.623 488,173.5C 488.847,179.616 490.18,185.616 492,191.5C 496.823,197.147 501.157,203.147 505,209.5C 506.235,217.423 506.902,225.423 507,233.5C 510.881,239.929 514.215,246.596 517,253.5C 517.289,261.033 516.789,268.533 515.5,276C 516.31,282.458 518.143,288.625 521,294.5C 521.167,296.833 521.333,299.167 521.5,301.5C 521.4,306.693 520.4,311.693 518.5,316.5C 516.953,318.807 516.287,321.473 516.5,324.5C 518.245,333.089 518.745,341.756 518,350.5C 515,356.5 512,362.5 509,368.5C 508.822,376.551 508.156,384.551 507,392.5C 502.719,399.115 498.053,405.448 493,411.5C 491.851,414.393 491.351,417.393 491.5,420.5C 490.364,428.042 487.03,434.542 481.5,440C 477.4,442.467 473.566,445.301 470,448.5C 467.044,455.377 463.711,462.044 460,468.5C 445.48,480.527 443.48,479.194 454,464.5C 455.313,460.58 456.313,456.58 457,452.5C 462.275,447.387 465.275,441.054 466,433.5C 475.282,371.645 454.449,322.812 403.5,287C 411.219,273.341 409.886,260.674 399.5,249C 386.729,239.453 373.729,239.12 360.5,248C 356.446,252.641 352.779,257.474 349.5,262.5C 331.195,246.612 326.361,227.278 335,204.5C 337.941,199.228 341.274,194.228 345,189.5C 352.698,182.136 360.031,174.47 367,166.5C 378.314,145.105 376.647,124.772 362,105.5C 357.867,100.366 353.367,95.5323 348.5,91C 341.885,85.6859 334.885,80.8525 327.5,76.5C 326.167,74.5 326.167,72.5 327.5,70.5C 333.256,67.8911 339.256,67.0578 345.5,68C 351.801,71.1516 357.801,74.8183 363.5,79C 378.538,76.4041 390.538,81.0708 399.5,93C 401.388,94.3937 403.388,95.5604 405.5,96.5 Z"/></g>
<g><path style="opacity:1" fill="#3d3938" d="M 196.5,95.5 C 190.989,97.4624 185.323,99.6291 179.5,102C 173.738,107.759 168.738,114.092 164.5,121C 158.439,123.243 152.772,126.243 147.5,130C 141.972,136.243 138.139,143.409 136,151.5C 130.854,156.402 125.521,161.069 120,165.5C 117.806,168.554 116.139,171.888 115,175.5C 115.225,186.174 111.225,194.841 103,201.5C 101.08,204.339 99.4131,207.339 98,210.5C 96.8025,218.438 96.1358,226.438 96,234.5C 91.8723,240.422 88.5389,246.756 86,253.5C 85.6073,261.11 86.4406,268.61 88.5,276C 87.4679,281.763 85.6346,287.263 83,292.5C 82.1764,295.785 81.6764,299.118 81.5,302.5C 83.5,310.167 85.5,317.833 87.5,325.5C 87.268,329.299 86.4347,332.966 85,336.5C 84.3333,340.5 84.3333,344.5 85,348.5C 87.1973,355.227 90.1973,361.561 94,367.5C 94.3333,374.167 94.6667,380.833 95,387.5C 96.1146,391.729 97.7813,395.729 100,399.5C 106.522,404.823 110.689,411.489 112.5,419.5C 105.88,421.428 99.2137,423.261 92.5,425C 71.9339,428.027 52.6006,424.361 34.5,414C 30.092,411.767 27.4254,408.267 26.5,403.5C 29.8223,393.729 28.989,384.396 24,375.5C 20.0842,370.004 16.4175,364.337 13,358.5C 12.6102,350.48 12.6102,342.48 13,334.5C 11.245,329.33 8.24505,324.996 4,321.5C 3.66667,320.167 3.33333,318.833 3,317.5C 3.00102,305.482 3.66769,293.482 5,281.5C 7.13611,274.957 8.63611,268.291 9.5,261.5C 9.33333,259.5 9.16667,257.5 9,255.5C 6.96556,251.48 4.96556,247.48 3,243.5C 2.75899,236.298 5.09232,229.965 10,224.5C 18.3643,216.47 26.3643,208.137 34,199.5C 39.0898,188.978 45.4232,179.312 53,170.5C 72.7799,151.377 94.2799,134.544 117.5,120C 133.721,111.039 150.721,104.039 168.5,99C 177.838,97.7959 187.172,96.6292 196.5,95.5 Z"/></g>
<g><path style="opacity:1" fill="#3d3938" d="M 405.5,96.5 C 420.69,96.7829 435.356,99.6163 449.5,105C 479.659,117.194 506.659,134.194 530.5,156C 545.694,168.19 557.528,183.023 566,200.5C 577.098,210.263 586.765,221.263 595,233.5C 596.405,237.072 596.738,240.739 596,244.5C 594.254,248.327 592.254,251.993 590,255.5C 589.631,264.405 590.964,273.072 594,281.5C 595.009,291.818 595.842,302.152 596.5,312.5C 596.393,315.567 595.893,318.567 595,321.5C 591.947,324.887 589.28,328.553 587,332.5C 586.811,340.508 586.811,348.508 587,356.5C 585.408,360.021 583.575,363.354 581.5,366.5C 579.745,365.928 578.078,365.094 576.5,364C 557.289,347.911 537.956,332.078 518.5,316.5C 520.4,311.693 521.4,306.693 521.5,301.5C 521.333,299.167 521.167,296.833 521,294.5C 518.143,288.625 516.31,282.458 515.5,276C 516.789,268.533 517.289,261.033 517,253.5C 514.215,246.596 510.881,239.929 507,233.5C 506.902,225.423 506.235,217.423 505,209.5C 501.157,203.147 496.823,197.147 492,191.5C 490.18,185.616 488.847,179.616 488,173.5C 486.815,171.623 485.815,169.623 485,167.5C 479.75,162.039 474.083,157.039 468,152.5C 466.196,147.42 464.196,142.42 462,137.5C 456.946,129.543 449.779,124.376 440.5,122C 435.592,116.181 430.925,110.181 426.5,104C 420.071,99.6119 413.071,97.1119 405.5,96.5 Z"/></g>
<g><path style="opacity:1" fill="#f5f5f5" d="M 217.5,253.5 C 230.134,252.94 233.467,258.106 227.5,269C 221.026,272.848 216.193,271.348 213,264.5C 212.333,262.5 212.333,260.5 213,258.5C 214.366,256.638 215.866,254.972 217.5,253.5 Z"/></g>
<g><path style="opacity:1" fill="#f3f3f3" d="M 383.5,252.5 C 390.306,252.4 393.973,255.734 394.5,262.5C 392.527,269.987 387.86,272.487 380.5,270C 376.212,266.229 375.379,261.729 378,256.5C 379.5,254.531 381.333,253.198 383.5,252.5 Z"/></g>
<g><path style="opacity:1" fill="#f5f5f5" d="M 341.5,271.5 C 390.137,282.983 425.637,310.983 448,355.5C 459.977,383.224 461.643,411.557 453,440.5C 452.612,441.428 451.945,442.095 451,442.5C 448.102,441.437 445.602,439.77 443.5,437.5C 443.167,437.833 442.833,438.167 442.5,438.5C 447.666,449.887 446.166,460.221 438,469.5C 422.703,487.488 404.037,500.821 382,509.5C 381.228,509.355 380.561,509.022 380,508.5C 379.355,505.441 378.522,502.441 377.5,499.5C 375.37,503.333 373.536,507.333 372,511.5C 370.681,513.487 368.848,514.654 366.5,515C 326.483,525.979 286.15,527.312 245.5,519C 238.627,517.616 231.96,515.616 225.5,513C 222.951,508.69 220.785,504.19 219,499.5C 217.547,502.298 216.547,505.298 216,508.5C 215.439,509.022 214.772,509.355 214,509.5C 186.681,499.693 165.681,482.36 151,457.5C 150.09,451.108 150.923,444.942 153.5,439C 153.167,438.5 152.833,438 152.5,437.5C 150.641,439.192 148.641,440.692 146.5,442C 145.365,442.749 144.365,442.583 143.5,441.5C 131.486,400.406 138.319,362.739 164,328.5C 187.535,299.162 217.702,280.162 254.5,271.5C 283.541,263.793 312.541,263.793 341.5,271.5 Z"/></g>
<g><path style="opacity:1" fill="#363332" d="M 518.5,316.5 C 537.956,332.078 557.289,347.911 576.5,364C 578.078,365.094 579.745,365.928 581.5,366.5C 577.327,371.531 574.16,377.197 572,383.5C 571.811,391.508 571.811,399.508 572,407.5C 566.74,413.55 560.24,417.716 552.5,420C 544.871,422.157 537.205,424.157 529.5,426C 516.306,427.269 503.64,425.436 491.5,420.5C 491.351,417.393 491.851,414.393 493,411.5C 498.053,405.448 502.719,399.115 507,392.5C 508.156,384.551 508.822,376.551 509,368.5C 512,362.5 515,356.5 518,350.5C 518.745,341.756 518.245,333.089 516.5,324.5C 516.287,321.473 516.953,318.807 518.5,316.5 Z"/></g>
<g><path style="opacity:1" fill="#030303" d="M 287.5,320.5 C 300.764,319.8 313.764,321.3 326.5,325C 341.228,331.152 346.394,341.985 342,357.5C 337.092,368.041 329.258,375.541 318.5,380C 313.113,382.596 307.447,384.096 301.5,384.5C 301.947,390.767 304.947,395.267 310.5,398C 320.514,397.69 330.514,396.857 340.5,395.5C 348.236,394.671 354.402,397.337 359,403.5C 361.667,408.833 364.333,414.167 367,419.5C 367.611,423.088 366.111,424.254 362.5,423C 359.456,418.412 356.29,413.912 353,409.5C 351.414,408.624 349.914,407.624 348.5,406.5C 348.21,439.29 331.71,455.956 299,456.5C 265.337,457.005 248.17,440.338 247.5,406.5C 241.74,410.694 237.407,416.027 234.5,422.5C 232.955,423.452 231.288,423.785 229.5,423.5C 230.942,414.115 234.942,405.948 241.5,399C 245.067,396.983 248.901,395.816 253,395.5C 264.116,397.291 275.282,398.125 286.5,398C 292.106,395.229 295.106,390.729 295.5,384.5C 280.369,382.892 267.869,376.225 258,364.5C 247.971,345.584 252.804,332.084 272.5,324C 277.545,322.425 282.545,321.259 287.5,320.5 Z"/></g>
<g><path style="opacity:1" fill="#de78ab" d="M 259.5,406.5 C 272.329,409.38 285.329,411.047 298.5,411.5C 311.646,410.86 324.646,409.193 337.5,406.5C 338.558,434.108 325.225,447.442 297.5,446.5C 270.791,446.458 258.124,433.125 259.5,406.5 Z"/></g>
</svg>
